<svg xmlns="http://www.w3.org/2000/svg" xmlns:xlink="http://www.w3.org/1999/xlink" height="487.9" width="804.65"><defs><g id="A"><path d="M480.15 211.65v5L-.2-23.3v-5l480.35 239.95" fill="#c87b31" fill-rule="evenodd" transform="translate(280.1 130.7)"/><path d="M279.9 102.4v5l480.35 239.95v-5" fill="none" stroke="#293726" stroke-linecap="round" stroke-linejoin="round" stroke-width=".5"/><path d="M760.25 342.35L279.9 102.4z" fill="none" stroke="#8c4828" stroke-linecap="round" stroke-linejoin="round" stroke-width=".5"/><path d="M16-30.75l5-2.5L422.95 167.8l78.05 39-5 2.5-73.05-36.5L16-30.75m10-4.95l5-2.5 5-2.5 386.95 193.5 84 42 9.05 4.55-5 2.5-4.05 2-.95.5-83.05-41.55L26-35.7m480.95 235.55l4.05 2-4.05-2-84-42.05 84 42.05M31-38.2l391.95 196L31-38.2" fill="#c87b31" fill-rule="evenodd" transform="translate(280.1 130.7)"/><path d="M521.05 196.8l-.05 3.9-14.05 7.05L481 220.7v-3.9h.05l4.95-2.5 5-2.5 5-2.5 5-2.5 5-2.45.95-.5 4.05-2 5-2.5 5.05-2.55" fill="#8a3d20" fill-rule="evenodd" transform="translate(280.1 130.7)"/><path d="M6-25.75l5-2.5 411.95 206L491 211.8l-5 2.5-63.05-31.5L6-25.75" fill="#d38434" fill-rule="evenodd" transform="translate(280.1 130.7)"/><path d="M21-33.25l5-2.45 396.95 198.5L506 204.35l-5 2.45-78.05-39L21-33.25m-10 5l5-2.5L422.95 172.8 496 209.3l-5 2.5-68.05-34.05L11-28.25" fill="#d08337" fill-rule="evenodd" transform="translate(280.1 130.7)"/><path d="M481.05 216.8v-.05l-58.1-29.05L1-23.3l5-2.45L422.95 182.8 486 214.3l-4.95 2.5" fill="#d78644" fill-rule="evenodd" transform="translate(280.1 130.7)"/><path d="M36-40.7l5.05-2.5 381.9 190.95 84 42 14.1 7.05-5.05 2.55-9.05-4.55-84-42L36-40.7" fill="#c1712f" fill-rule="evenodd" transform="translate(280.1 130.7)"/><path d="M296.1 99.95l5-2.5 5-2.45 5-2.5 5-2.5 5.05-2.5 381.9 190.95m84 42l14.1 7.05-.05 3.9-14.05 7.05m-84-20.05l-421.95-211 5-2.45 5-2.5 5-2.5L703.05 303.5m0-5L301.1 97.45m495 232.6l-5 2.5-4.05 2m4.05-2l-4.05-2m-84-42.05L311.1 92.5m391.95 221L286.1 104.95M787.05 325.5l9.05 4.55 5.05-2.55M291.1 102.45l411.95 206M316.1 90l386.95 193.5M306.1 95l396.95 198.5" fill="none" stroke="#49250e" stroke-linecap="round" stroke-linejoin="round" stroke-width=".5"/><path d="M703.05 278.45l84 42m0 18L761.1 351.4v-3.9h.05v-.05l-58.1-29.05m0-14.9L776.1 340l5-2.5-78.05-39m84 36.05l-.95.5-5 2.45m5.95-6.95l-84-42.05M776.1 340l-5 2.5-5 2.5-4.95 2.5m-58.1-39.05l68.05 34.05m-5 2.5l-63.05-31.5m0-30l84 42m-84-32l83.05 41.55" fill="none" stroke="#49250e" stroke-linecap="round" stroke-linejoin="round" stroke-width=".5"/><path d="M40.6-86.4v2.95l-80.05-40.05v-2.95L40.6-86.4m0 76.75v4.6L-39.5-45.1v-4.6L40.6-9.65M-39.55-42.9l-.05-.05.1-.05-.05.1m0-87.75v-.05h.1l-.1.05m319.1 163.7V36l-78-39v-2.95l78 39m0 76.8v4.6l-78-39v-4.6l78 39M480.2 133.4v2.9l-36.1-18v-2.95l36.1 18.05m-.05 76.7v4.6l-36.05-18v-4.6l36.05 18" fill="#e2e7e5" fill-rule="evenodd" transform="translate(280.1 130.7)"/><path d="M40.6-79.45v3.5L-39.45-116v-3.5L40.6-79.45m0 62.3v3.5L-39.5-53.7v-3.5l80.1 40.05M279.55 40v3.5l-78-39V1l78 39m0 62.35v3.5l-78-39v-3.5l78 39M480.2 140.3v3.5l-36.1-18v-3.5l36.1 18m-.05 62.3v3.5l-36.05-18v-3.5l36.05 18" fill="#eceeeb" fill-rule="evenodd" transform="translate(280.1 130.7)"/><path d="M40.6-75.95v3L-39.45-113v-3L40.6-75.95m0 55.8v3L-39.5-57.2v-3l80.1 40.05M279.55 43.5v3l-78-39v-3l78 39m0 55.85v3l-78-39v-3l78 39M480.2 143.8v3l-36.1-18v-3l36.1 18m-.05 55.8v3l-36.05-18v-3l36.05 18" fill="#f1f1ee" fill-rule="evenodd" transform="translate(280.1 130.7)"/><path d="M40.6-83.45v4l-80.05-40.05v-4L40.6-83.45m0 69.8v4L-39.5-49.7v-4l80.1 40.05M279.55 36v4l-78-39v-4l78 39m0 69.85v4l-78-39v-4l78 39M480.2 136.3v4l-36.1-18v-4l36.1 18m-.05 69.8v4l-36.05-18v-4l36.05 18" fill="#e7eae7" fill-rule="evenodd" transform="translate(280.1 130.7)"/><path d="M40.6-72.95v52.8L-39.5-60.2l.05-52.8L40.6-72.95M279.55 46.5v52.85l-78-39V7.5l78 39M480.2 146.8l-.05 52.8-36.05-18v-52.8l36.1 18" fill="#f1f1ef" fill-rule="evenodd" transform="translate(280.1 130.7)"/><path d="M40.6-5.05v2.15l-80.15-40 .05-.1v-2.1L40.6-5.05M-39.45-130.7h.35l79.7 39.8v4.5l-80.05-40.05v-4.25m241 124.75v-4.6l78 39v4.6l-78-39m78 120.4v2l-78-38.95v-2.05l78 39m200.6 100.25v1.95l-36.05-18v-1.95l36.05 18m-36.05-99.35v-4.7l36.1 18v4.75l-36.1-18.05" fill="#d8dcdb" fill-rule="evenodd" transform="translate(280.1 130.7)"/><path d="M-39.6-42.95l-40.05 20.1v-50.3L-117.1-91.9l77.55-38.75.1-.05v17.7l-.05 52.8V-43l-.1.05" fill="url(#a)" fill-rule="evenodd" transform="translate(280.1 130.7)"/><path d="M-267.35-8.15L-237.4 6.9v.7l110.3-55.15V-.1L-237.4 55v3.5l-29.95 15.2V-8.15m148.5-43.5l3.75-1.9v52.7l-3.75-1.9v-48.9M-239.6 8.7l.45-.25-.45.25" fill="#dbdddb" fill-rule="evenodd" transform="translate(280.1 130.7)"/><path d="M-91.55-65.3l11.6-5.8v87.8l-11.6-5.8v-76.2" fill="#b9bbb9" fill-rule="evenodd" transform="translate(280.1 130.7)"/><path d="M-93.9-64.15l2.35-1.15v76.2l-2.35-1.15v-73.9" fill="#dadbd9" fill-rule="evenodd" transform="translate(280.1 130.7)"/><path d="M-115.1-53.55l21.2-10.6v73.9l-21.2-10.6v-52.7" fill="#e6e6e6" fill-rule="evenodd" transform="translate(280.1 130.7)"/><path d="M-122.35-49.9l2-1 1.5-.75v48.9l-1.5-.75-2 1v-47.4M-273.6 76.9l-4.25 2.15V-13.4l4.25 2.15V76.9m153.25-127.8v47.4-47.4" fill="#cdcecc" fill-rule="evenodd" transform="translate(280.1 130.7)"/><path d="M-127.1-47.55l4.75-2.35v47.4l-4.75 2.4v-47.45" fill="#d8d9d7" fill-rule="evenodd" transform="translate(280.1 130.7)"/><path d="M-273.6-11.25l6.25 3.1V73.7l-6.25 3.2v-88.15" fill="#d5d6d3" fill-rule="evenodd" transform="translate(280.1 130.7)"/><path d="M-277.85 79.05l-2.25 1.15v-94.7l2.25 1.1v92.45" fill="#c2c5c2" fill-rule="evenodd" transform="translate(280.1 130.7)"/><path d="M159.75 127.2V79.8" fill="none" stroke="#683a16" stroke-linecap="round" stroke-linejoin="round" stroke-width=".5"/><path d="M200.15 59.6v87.8" fill="none" stroke="#49250e" stroke-linecap="round" stroke-linejoin="round" stroke-width=".5"/><path d="M40.95 139.15l-.45.25" fill="none" stroke="#633612" stroke-linecap="round" stroke-linejoin="round" stroke-width=".5"/></g><g id="b"><path d="M-20-49.45v76.3L17.1 45.4 17-30.9l-37-18.55m-1-3.3l40 20v86.5l-40-20v-86.5m39 100.1L-20 28.3v4.5l38 19.05v-4.5" fill="#da9c5f" fill-rule="evenodd" transform="translate(21.25 54)"/><path d="M-20-49.45L17-30.9l.1 76.3L-20 26.85v-76.3" fill="#c7cfcb" fill-opacity=".4" fill-rule="evenodd" transform="translate(21.25 54)"/><path d="M-20-14l2.3 1.05V26.8L17 43.95l.1-4.6v6.05L-20 26.85V-14" fill="#a05e27" fill-rule="evenodd" transform="translate(21.25 54)"/><path d="M8.5-35.15L17-30.9l.05 35.4L8.4.15l.1-35.3L8.4.15-1.05-4.6l-9.4-4.7-8.15-4.1v-.05l-1.2-.55-.2-.1v-35.35l9.65 4.9 9.4 4.75 9.45 4.65M-.95-39.8l-.1 35.2.1-35.2m-9.5 30.5l.1-35.25-.1 35.25m-8.55-5v-34 34" fill="#fff" fill-rule="evenodd" transform="translate(21.25 54)"/><path d="M-21-52.75l2-1 40 20v86.5l-2 1v-86.5l-40-20" fill="#c87b31" fill-rule="evenodd" transform="translate(21.25 54)"/><path d="M18 47.35v4.5L-20 32.8v-4.5l38 19.05" fill="#e2bb87" fill-rule="evenodd" transform="translate(21.25 54)"/><path d="M17 43.75v.2L-17.7 26.8v-.15L17 43.75" fill="#da9c5f" fill-rule="evenodd" transform="translate(21.25 54)"/><path d="M29.65 54.15l8.65 4.35-.05-35.4-8.5-4.25m-.1 35.3L20.2 49.4l-9.4-4.7-8.15-4.1v-.05L1.45 40m-.2-.1V4.55l9.65 4.9 9.4 4.75 9.45 4.65M38.3 58.5l.05 40m-.1-.75l-34.7-17.1m35.7 20.7l-38-19.05" fill="none" stroke="#a6621e" stroke-linecap="round" stroke-linejoin="round" stroke-width=".5"/><path d="M.25 1.25l2-1 40 20v86.5l-2 1-40-20V1.25m40 20v86.5" fill="none" stroke="#633612" stroke-linecap="round" stroke-linejoin="round" stroke-width=".5"/><path d="M1.25 82.3v4.5l38 19.05v-4.5" fill="none" stroke="#a6621e" stroke-linecap="round" stroke-linejoin="round" stroke-width=".5"/><path d="M29.75 18.85l-.1 35.3M2.25 5.7v34M10.9 9.45l-.1 35.25m9.4 4.7l.1-35.2" fill="none" stroke="#c9b9a0" stroke-linecap="round" stroke-linejoin="round" stroke-width=".5"/><path d="M.25 1.25l40 20" fill="none" stroke="#633612" stroke-linecap="round" stroke-linejoin="round" stroke-width=".5"/><path d="M-20-11.4l.05-1.25.35-.8 37 18.5.5.6-.05.75-.55.5-.8-.05L-20-11.4" fill="#da9c5f" fill-rule="evenodd" transform="translate(21.25 54)"/><path d="M37.9 36.35L2.25 18.5M38 43.4L2.25 25.5m35.6 24.9L2.25 32.6m35.6-3.3L2.25 11.5" fill="none" stroke="#c9b9a0" stroke-linecap="round" stroke-linejoin="round" stroke-width=".5"/></g><g id="c"><path d="M-5-20.45L74.9 19.6l.05 4-69.6 34.8-.1-3.95.9-.45-.45.2-79.75-40h-.05l-.1-.05L-5-20.45M63.1 19.2q1.8-1.4 3.6-1.8-1.8.4-3.6 1.8m3.25 1.55q1.8-1.4 3.6-1.8-1.8.4-3.6 1.8M24.7-.1q1.65-1.3 3.3-1.7-1.65.4-3.3 1.7m-3.25-1.6l.5-.4q1.55-1.05 3.1-1.35-1.55.3-3.1 1.35l-.5.4m-19.1-9.5q1.8-1.4 3.6-1.8-1.8.4-3.6 1.8m5.8 9.1q1.8-1.4 3.6-1.75-1.8.35-3.6 1.75m.5-5.85Q10.1-9.1 11.6-9.6l.65-.15-.65.15q-1.5.5-2.95 1.65m9.5 4.75l.7-.5q1.45-1 2.95-1.3-1.5.3-2.95 1.3l-.7.5m-7 2.7l.7-.5q1.45-1 2.9-1.3-1.45.3-2.9 1.3l-.7.5m4-4.3q1.8-1.4 3.6-1.8-1.8.4-3.6 1.8M11.9-6.35q1.8-1.4 3.6-1.8-1.8.4-3.6 1.8M5.4-9.5q1.8-1.4 3.6-1.8-1.8.4-3.6 1.8m-.5 5.9Q6.7-5 8.5-5.4 6.7-5 4.9-3.6M1.65-5.2q1.5-1.15 2.95-1.65L5.25-7l-.65.15q-1.45.5-2.95 1.65m16 7.85q1.65-1.3 3.3-1.7-1.65.4-3.3 1.7m2.05 8.3q1.8-1.4 3.6-1.8-1.8.4-3.6 1.8M34.8 26.2q1.6-1.3 3.3-1.75-1.7.45-3.3 1.75m-31.6.15q1.6-1.25 3.2-1.7-1.6.45-3.2 1.7m14.3-.9q1.8-1.4 3.6-1.8-1.8.4-3.6 1.8m.3 16.45q1.8-1.4 3.65-1.8-1.85.4-3.65 1.8m1.45-7.45q1.65-1.3 3.3-1.75-1.65.45-3.3 1.75M18.7 18.1q1.6-1.25 3.2-1.7-1.6.45-3.2 1.7m10.1 21.15q1.8-1.4 3.6-1.8-1.8.4-3.6 1.8m1.5-7.55q1.8-1.4 3.6-1.75-1.8.35-3.6 1.75m-4.75 6q1.8-1.4 3.6-1.8-1.8.4-3.6 1.8m-4.5 5.75q1.8-1.4 3.65-1.8-1.85.4-3.65 1.8m1.5-7.5q1.8-1.4 3.55-1.75-1.75.35-3.55 1.75M27 30.2q1.65-1.3 3.3-1.75-1.65.45-3.3 1.75m-6.5-3.15l.7-.5q1.2-.85 2.4-1.2l.5-.1-.5.1q-1.2.35-2.4 1.2l-.7.5m3.25 1.55q1.8-1.4 3.6-1.8-1.8.4-3.6 1.8m12.8 6.4q1.8-1.4 3.65-1.8-1.85.4-3.65 1.8m-3.25-1.55q1.8-1.4 3.65-1.8-1.85.4-3.65 1.8M11.5 38.7q1.65-1.3 3.3-1.75-1.65.45-3.3 1.75m-1.75-9q1.8-1.4 3.6-1.8-1.8.4-3.6 1.8m-1.5 7.4q1.8-1.4 3.6-1.8-1.8.4-3.6 1.8m1.55 8.55q1.8-1.4 3.6-1.8-1.8.4-3.6 1.8m-3-1.75q1.75-1.35 3.55-1.75-1.8.4-3.55 1.75m8-3.75q1.8-1.35 3.6-1.7-1.8.35-3.6 1.7m-1.75 7.05q1.8-1.4 3.6-1.8-1.8.4-3.6 1.8M-3 39.3l.7-.5q1.2-.85 2.4-1.2l.5-.1-.5.1q-1.2.35-2.4 1.2l-.7.5m3.25 1.5q1.8-1.4 3.6-1.75-1.8.35-3.6 1.75m2.6 8.55q1.8-1.4 3.6-1.8-1.8.4-3.6 1.8m.65-6.95q1.65-1.3 3.3-1.7-1.65.4-3.3 1.7M5 35.55l.7-.5q1.2-.85 2.4-1.2l.5-.1-.5.1q-1.2.35-2.4 1.2l-.7.5m-3-1.6q1.75-1.4 3.6-1.8-1.85.4-3.6 1.8m4.5-5.8q1.8-1.4 3.6-1.8-1.8.4-3.6 1.8m9.5 4.7q1.8-1.4 3.6-1.8-1.8.4-3.6 1.8m-3.25-1.55l.7-.5q1.2-.85 2.4-1.2l.5-.1-.5.1q-1.2.35-2.4 1.2l-.7.5m-3.8-17.9q1.8-1.4 3.6-1.8-1.8.4-3.6 1.8m-1.05 7q1.7-1.3 3.4-1.65-1.7.35-3.4 1.65m4.3-5.45q1.8-1.4 3.6-1.8-1.8.4-3.6 1.8m3.45 1.45q1.7-1.25 3.4-1.65-1.7.4-3.4 1.65m-4.7 5.7q1.6-1.25 3.2-1.7-1.6.45-3.2 1.7m3.3 1.8q1.8-1.4 3.6-1.8-1.8.4-3.6 1.8m-14.1.75q1.7-1.3 3.4-1.65-1.7.35-3.4 1.65m4.3-5.7q1.8-1.4 3.6-1.8-1.8.4-3.6 1.8M1.2 17.4Q3 16 4.8 15.6 3 16 1.2 17.4M6.9 4.55l.55-.4q1.5-1.05 3.05-1.4-1.55.35-3.05 1.4l-.55.4m-4.25 5.6q1.65-1.3 3.3-1.7-1.65.4-3.3 1.7m3.3 1.5Q7.7 10.3 9.5 9.9q-1.8.4-3.55 1.75M3.65 3l.7-.5q1.45-1 2.9-1.3-1.45.3-2.9 1.3l-.7.5m12.8 6.4q1.8-1.4 3.6-1.8-1.8.4-3.6 1.8m-6.3-3.25q1.65-1.3 3.3-1.7-1.65.4-3.3 1.7m3.3 1.5Q15.25 6.3 17 5.9q-1.75.4-3.55 1.75m.95-6.6l.55-.4Q16.5-.4 18-.75q-1.5.35-3.05 1.4l-.55.4m8.75 11.35q1.7-1.25 3.4-1.65-1.7.4-3.4 1.65m6.35 3.5q1.8-1.4 3.6-1.8-1.8.4-3.6 1.8m-2.3-8.45q1.8-1.4 3.65-1.8-1.85.4-3.65 1.8m4.35 17.15q1.75-1.4 3.6-1.8-1.85.4-3.6 1.8m4.2-5.55l.7-.5q1.2-.8 2.4-1.15l.5-.15-.5.15q-1.2.35-2.4 1.15l-.7.5m-3-1.6q1.8-1.4 3.6-1.8-1.8.4-3.6 1.8M26.2 14.1q1.6-1.25 3.2-1.7-1.6.45-3.2 1.7M22 19.9q1.8-1.4 3.6-1.8-1.8.4-3.6 1.8m3.25 1.55q1.8-1.4 3.6-1.8-1.8.4-3.6 1.8m3.05 1.6l.65-.5q1.2-.85 2.45-1.2l.5-.1-.5.1q-1.25.35-2.45 1.2l-.65.5m-7.35-18.9q1.8-1.35 3.6-1.75-1.8.4-3.6 1.75m3 1.75q1.8-1.4 3.65-1.8-1.85.4-3.65 1.8M31 3.15q1.75-1.4 3.6-1.8-1.85.4-3.6 1.8m-.3 5.75q1.65-1.25 3.4-1.65-1.75.4-3.4 1.65m3.05 1.7q1.6-1.25 3.2-1.7-1.6.45-3.2 1.7m.5-5.9q1.8-1.4 3.6-1.8-1.8.4-3.6 1.8M48.6 25.45q1.75-1.4 3.6-1.8-1.85.4-3.6 1.8m10.75-1.95q1.8-1.4 3.6-1.8-1.8.4-3.6 1.8m.75-6.05q1.75-1.35 3.55-1.75-1.8.4-3.55 1.75M51.85 27q1.8-1.4 3.6-1.8-1.8.4-3.6 1.8m-7.5 4q1.4-1.1 2.8-1.6l.8-.2-.8.2q-1.4.5-2.8 1.6m-3.25-1.55q1.55-1.25 3.1-1.7l.5-.1-.5.1q-1.55.45-3.1 1.7m-.75-15.4l1.4-1.05q1.05-.6 2.15-.85-1.1.25-2.15.85l-1.4 1.05m6.95-2.85q1.8-1.4 3.6-1.8-1.8.4-3.6 1.8m2.5 7.5q1.6-1.3 3.3-1.7-1.7.4-3.3 1.7m3.75-4.35q1.8-1.4 3.6-1.8-1.8.4-3.6 1.8m3.25 1.6q1.65-1.3 3.3-1.7-1.65.4-3.3 1.7m-.7 6q1.75-1.4 3.6-1.8-1.85.4-3.6 1.8m-3-1.75q1.75-1.35 3.55-1.75-1.8.4-3.55 1.75m-7.55 3.5q1.8-1.4 3.6-1.75-1.8.35-3.6 1.75m-3.3-1.5q1.65-1.3 3.3-1.75-1.65.45-3.3 1.75m1.05-6.65l.7-.5q1.15-.8 2.4-1.15l.5-.15-.5.15q-1.25.35-2.4 1.15l-.7.5m3.25 1.55q1.75-1.4 3.6-1.8-1.85.4-3.6 1.8m-5.8-9.25q1.6-1.25 3.2-1.7-1.6.45-3.2 1.7m3.3 1.8q1.8-1.4 3.6-1.8-1.8.4-3.6 1.8m6.25 3.15l.7-.5q1.15-.8 2.4-1.15l.5-.15-.5.15q-1.25.35-2.4 1.15l-.7.5m24.6 6.8L6.15 54 74.9 19.6m-78.2 3.6q1.8-1.4 3.6-1.8-1.8.4-3.6 1.8m.7-23.35q1.8-1.4 3.6-1.8-1.8.4-3.6 1.8m1-6.6Q.15-8.15 2-8.55q-1.85.4-3.6 1.8m.7-6q1.8-1.4 3.6-1.8-1.8.4-3.6 1.8m-.9 28.4q1.75-1.35 3.55-1.75-1.8.4-3.55 1.75m.55 16.75q1.8-1.4 3.6-1.8-1.8.4-3.6 1.8m1.1 15.2q1.8-1.35 3.55-1.75-1.75.4-3.55 1.75m-30.5-46.15q1.8-1.4 3.6-1.8-1.8.4-3.6 1.8M-16.6.7q1.75-1.4 3.6-1.8-1.85.4-3.6 1.8m-25.1 3.4q1.8-1.4 3.6-1.8-1.8.4-3.6 1.8m-1.2 7.4q1.8-1.4 3.6-1.8-1.8.4-3.6 1.8m1.5 8.6q1.8-1.4 3.6-1.8-1.8.4-3.6 1.8m-3.7 5.25q1.8-1.4 3.6-1.8-1.8.4-3.6 1.8m-16.05-7.95q1.8-1.4 3.6-1.8-1.8.4-3.6 1.8m19.1 9.55l.65-.5q1.45-1 2.9-1.3-1.45.3-2.9 1.3l-.65.5m-25.6-12.7q1.8-1.4 3.6-1.8-1.8.4-3.6 1.8m3.25 1.55q1.8-1.4 3.6-1.8-1.8.4-3.6 1.8m11.7-9q1.8-1.4 3.65-1.8-1.85.4-3.65 1.8m-1.5 6.9q1.8-1.4 3.6-1.8-1.8.4-3.6 1.8m3.25 1.55q1.8-1.4 3.6-1.8-1.8.4-3.6 1.8m-.65 6.95q1.5-1.15 2.95-1.65l.65-.15-.65.15q-1.45.5-2.95 1.65m3.25 1.6q1.8-1.4 3.6-1.8-1.8.4-3.6 1.8m3.7-5.3q1.45-1.15 2.95-1.6l.65-.2-.65.2q-1.5.45-2.95 1.6m-3.25-1.55q1.8-1.4 3.6-1.8-1.8.4-3.6 1.8m-6.95 3.7q1.8-1.4 3.6-1.8-1.8.4-3.6 1.8m-3.05-1.7q1.8-1.4 3.6-1.8-1.8.4-3.6 1.8m.45-6.85q1.8-1.4 3.6-1.8-1.8.4-3.6 1.8m-3.25-1.55q1.8-1.4 3.6-1.8-1.8.4-3.6 1.8m11.25-2.2q1.8-1.4 3.65-1.8-1.85.4-3.65 1.8m3.3 1.6q1.8-1.4 3.6-1.8-1.8.4-3.6 1.8m1.2-7.4q1.8-1.4 3.6-1.8-1.8.4-3.6 1.8m22.6 11.1q1.75-1.4 3.6-1.8-1.85.4-3.6 1.8m8.05 12.25q1.8-1.4 3.6-1.8-1.8.4-3.6 1.8m-14.3.5q1.6-1.3 3.3-1.75-1.7.45-3.3 1.75m6.05 9.95q1.65-1.3 3.4-1.65-1.75.35-3.4 1.65m.25-6.7q1.8-1.4 3.6-1.8-1.8.4-3.6 1.8m1.7-7q1.6-1.3 3.3-1.75-1.7.45-3.3 1.75m1.1 15.4q1.6-1.25 3.2-1.7-1.6.45-3.2 1.7M-6 37.7q1.8-1.4 3.6-1.8-1.8.4-3.6 1.8m-5.05-10.25q1.8-1.4 3.6-1.8-1.8.4-3.6 1.8m-1.5 6.9q1.6-1.25 3.2-1.7-1.6.45-3.2 1.7m-.4 7q1.8-1.4 3.6-1.75-1.8.35-3.6 1.75m3 1.6l.7-.5q1.2-.8 2.4-1.15l.5-.15-.5.15q-1.2.35-2.4 1.15l-.7.5m3.25 1.55q1.8-1.4 3.6-1.8-1.8.4-3.6 1.8m3.25 1.6q1.65-1.3 3.3-1.7-1.65.4-3.3 1.7m-12.75-6.3q1.8-1.4 3.6-1.75-1.8.35-3.6 1.75m.6-7.15q1.7-1.3 3.4-1.65-1.7.35-3.4 1.65m-3.45-1.45q1.8-1.4 3.6-1.8-1.8.4-3.6 1.8m9.8 4.95q1.8-1.4 3.6-1.8-1.8.4-3.6 1.8m4.7-5.55q1.6-1.25 3.2-1.7-1.6.45-3.2 1.7m-3.05-1.7q1.65-1.3 3.4-1.65-1.75.35-3.4 1.65m-17.7-1q1.75-1.4 3.5-1.75-1.75.35-3.5 1.75m-13.5.6l.5-.4q1.55-1.1 3.05-1.4-1.5.3-3.05 1.4l-.5.4m12.8 6.4q1.8-1.4 3.6-1.8-1.8.4-3.6 1.8m-3.25-1.55q1.8-1.4 3.6-1.8-1.8.4-3.6 1.8m-6.3-3.25q1.6-1.3 3.3-1.75-1.7.45-3.3 1.75m3.3 1.5q1.75-1.4 3.55-1.75-1.8.35-3.55 1.75m-7.6-18.4q1.8-1.4 3.6-1.8-1.8.4-3.6 1.8m7.75-4.25q1.75-1.4 3.55-1.8-1.8.4-3.55 1.8m-1.25 7.4q1.8-1.4 3.6-1.8-1.8.4-3.6 1.8m1.45 8.45l.55-.4q1.5-1.1 3.05-1.4-1.55.3-3.05 1.4l-.55.4m8.05-3.75l.55-.4q1.5-1.1 3.05-1.4-1.55.3-3.05 1.4l-.55.4m-3.25-1.55l.7-.5q1.4-1 2.9-1.3-1.5.3-2.9 1.3l-.7.5m-3-1.6q1.8-1.4 3.6-1.8-1.8.4-3.6 1.8m-6.5-3.15q1.45-1.15 2.95-1.6l.65-.2-.65.2q-1.5.45-2.95 1.6m-1.55 6.9q1.8-1.4 3.6-1.8-1.8.4-3.6 1.8m3 1.6l.7-.5q1.45-1 2.9-1.3-1.45.3-2.9 1.3l-.7.5m-3.3-17.55q1.8-1.4 3.6-1.8-1.8.4-3.6 1.8m3.25 1.55q1.8-1.4 3.6-1.8-1.8.4-3.6 1.8m10.85-2.55q1.8-1.4 3.6-1.8-1.8.4-3.6 1.8m-4.5 5.8q1.45-1.15 2.95-1.6l.65-.2-.65.2q-1.5.45-2.95 1.6m3.25 1.6q1.75-1.4 3.6-1.8-1.85.4-3.6 1.8M-27.4 3q1.8-1.4 3.6-1.8-1.8.4-3.6 1.8m14.55 15.4q1.65-1.3 3.3-1.7-1.65.4-3.3 1.7m7.75-4.25q1.65-1.3 3.3-1.7-1.65.4-3.3 1.7m-1.45 7.5q1.8-1.4 3.6-1.8-1.8.4-3.6 1.8m-3-1.75Q-7.8 18.55-6 18.15q-1.8.4-3.55 1.75m-9.8-4.65l.7-.5q1.4-1 2.9-1.3-1.5.3-2.9 1.3l-.7.5m2.05 8.9q1.75-1.4 3.55-1.75-1.8.35-3.55 1.75m1.2-7.35l.55-.4q1.5-1.05 3.05-1.4-1.55.35-3.05 1.4l-.55.4m2.75-14.55Q-11.9 1.1-10.4.65l.65-.2-.65.2q-1.5.45-2.95 1.6m-4.5 5.6q1.8-1.4 3.6-1.8-1.8.4-3.6 1.8M-11.6 11l.7-.5q1.4-1 2.9-1.3-1.5.3-2.9 1.3l-.7.5m-3-1.6Q-12.8 8-11 7.6q-1.8.4-3.6 1.8m-6.5-3.15q1.45-1.15 2.95-1.6l.65-.2-.65.2q-1.5.45-2.95 1.6m11-2.4q1.75-1.4 3.6-1.8-1.85.4-3.6 1.8m1.75 8.7l.55-.4q1.5-1.05 3.05-1.4-1.55.35-3.05 1.4l-.55.4m7.75-4l.55-.4Q1.5 7.1 3 6.75q-1.5.35-3.05 1.4l-.55.4M-3.85 7l.7-.5q1.45-1 2.9-1.3-1.45.3-2.9 1.3l-.7.5m-3-1.6q1.8-1.4 3.6-1.8-1.8.4-3.6 1.8M-22.9-2.5q1.75-1.4 3.6-1.8-1.85.4-3.6 1.8m1-7.15q1.75-1.4 3.6-1.8-1.85.4-3.6 1.8m10.75-1.95q1.75-1.4 3.6-1.8-1.85.4-3.6 1.8m-1 6.65q1.8-1.4 3.6-1.8-1.8.4-3.6 1.8M-7.9-10q1.8-1.4 3.6-1.8-1.8.4-3.6 1.8m3.25 1.55q1.8-1.4 3.6-1.8-1.8.4-3.6 1.8m-1.2 6.7Q-4.4-2.9-2.9-3.35l.65-.15-.65.15q-1.5.45-2.95 1.6m-3.25-1.5q1.8-1.4 3.6-1.8-1.8.4-3.6 1.8m-6.3-3.25q1.8-1.4 3.6-1.8-1.8.4-3.6 1.8M-19.65-1q1.8-1.4 3.6-1.75-1.8.35-3.6 1.75m1-7.1q1.75-1.4 3.6-1.8-1.85.4-3.6 1.8m4.25-5.05q1.75-1.4 3.6-1.8-1.85.4-3.6 1.8m7-2.75q1.2-1 2.45-1.45l1.15-.35-1.15.35q-1.25.45-2.45 1.45m3.25 1.55q1.8-1.4 3.6-1.8-1.8.4-3.6 1.8M-33.9-.15q1.8-1.4 3.6-1.8-1.8.4-3.6 1.8m7.75-3.95q1.75-1.4 3.6-1.8-1.85.4-3.6 1.8m-3.25-1.55q1.75-1.4 3.6-1.8-1.85.4-3.6 1.8m-7.8 3.95q1.8-1.4 3.65-1.75-1.85.35-3.65 1.75M.65 1.4Q2.45 0 4.25-.4q-1.8.4-3.6 1.8M28 1.4Q29.75.05 31.55-.35 29.75.05 28 1.4m9.05 11q1.8-1.4 3.6-1.8-1.8.4-3.6 1.8m.65-6.25q1.65-1.25 3.4-1.65-1.75.4-3.4 1.65M6.1 50.9q1.8-1.4 3.6-1.8-1.8.4-3.6 1.8m32-23.2q1.6-1.25 3.2-1.7-1.6.45-3.2 1.7m.9-7.1q1.8-1.4 3.6-1.8-1.8.4-3.6 1.8" fill="#a0be7e" fill-rule="evenodd" transform="translate(79.55 23.45)"/><path d="M.7-23.15v.05l-.05-.05.05.05v-.2l80 40v4l-.05-.05v.1l-5.7 2.85-.05-4L-5-20.45.5-23.2l.15.05H.7m0 .05l.15.1 79.8 39.75-5.75 2.85 5.75-2.85L.85-23l-.15-.1m4.65 81.5L.7 60.7l-80-40v-4h.05l5-2.5.05-.05.1.05h.05l79.75 40-.45.25.1 3.95m75.3-41.65v3.9-3.9M.7 60.7v-4l4.55-2.25L.7 56.7v4m-80-44l80 40-80-40" fill="#618259" fill-rule="evenodd" transform="translate(79.55 23.45)"/><path d="M84.8 16.45l-.65.15q-1.45.5-2.95 1.65m6.85-.2q-1.8.4-3.6 1.8m4.1-7.7q-1.8.4-3.6 1.8m10.1 1.35q-1.8.4-3.6 1.8m6.85-.25q-1.8.4-3.6 1.8m-.4 2.5q-1.45.3-2.9 1.3l-.7.5m10.65-4.5q-1.5.3-2.95 1.3l-.7.5m-5.9-6.55l-.65.15q-1.5.5-2.95 1.65m3.1 4.1q-1.8.35-3.6 1.75m-2.2-10.9q-1.8.4-3.6 1.8M104.6 20q-1.55.3-3.1 1.35l-.5.4m6.55-.1q-1.65.4-3.3 1.7M149.5 42.4q-1.8.4-3.6 1.8m.35-3.35q-1.8.4-3.6 1.8m-9.2-8.2l-.5.15q-1.25.35-2.4 1.15l-.7.5m-2.65-4.95q-1.8.4-3.6 1.8m-.1-3.5q-1.6.45-3.2 1.7m9.4 7.45q-1.85.4-3.6 1.8m.35-3.35l-.5.15q-1.25.35-2.4 1.15l-.7.5m2.25 4.9q-1.65.45-3.3 1.75m6.9-.25q-1.8.35-3.6 1.75m11.1-5.25q-1.8.4-3.55 1.75m6.6-.05q-1.85.4-3.6 1.8m4-7.7q-1.65.4-3.3 1.7m.35-3.4q-1.8.4-3.6 1.8m-.45 2.65q-1.7.4-3.3 1.7m1.1-9.3q-1.8.4-3.6 1.8m-3.4.95q-1.1.25-2.15.85l-1.4 1.05m4.35 13.6l-.5.1q-1.55.45-3.1 1.7m6.85-.25l-.8.2q-1.4.5-2.8 1.6m11.1-5.8q-1.8.4-3.6 1.8m11.8-11.3q-1.8.4-3.55 1.75m2.85 4.25q-1.8.4-3.6 1.8m-7.15.15q-1.85.4-3.6 1.8M117.4 26.35q-1.8.4-3.6 1.8m2.7 4.2q-1.6.45-3.2 1.7m.35-3.35q-1.75.4-3.4 1.65m3.9-7.55q-1.85.4-3.6 1.8m-3.4.95q-1.85.4-3.65 1.8m.6-3.5q-1.8.4-3.6 1.75m10.95 17.1l-.5.1q-1.25.35-2.45 1.2l-.65.5m.55-3.4q-1.8.4-3.6 1.8m.35-3.35q-1.8.4-3.6 1.8m7.4-7.5q-1.6.45-3.2 1.7m10.15 1.55q-1.8.4-3.6 1.8m6.6-.2l-.5.15q-1.2.35-2.4 1.15l-.7.5m-.6 3.75q-1.85.4-3.6 1.8m-.7-18.95q-1.85.4-3.65 1.8m5.9 6.65q-1.8.4-3.6 1.8m-2.95-5.15q-1.7.4-3.4 1.65M97.55 22.7q-1.5.35-3.05 1.4l-.55.4m2.6 4.85q-1.75.4-3.55 1.75m0-3.2q-1.65.4-3.3 1.7m9.9 1.45q-1.8.4-3.6 1.8m-9.2-8.2q-1.45.3-2.9 1.3l-.7.5m5.85 6.9q-1.8.4-3.55 1.75m0-3.2q-1.65.4-3.3 1.7m7.85-7.4q-1.55.35-3.05 1.4l-.55.4m-2.1 11.05q-1.8.4-3.6 1.8m6.85-.25q-1.8.4-3.6 1.8m-.9 4.05q-1.7.35-3.4 1.65m17.7-2.55q-1.8.4-3.6 1.8m-.1-3.5q-1.6.45-3.2 1.7m8.1-7.35q-1.7.4-3.4 1.65m.15-3.25q-1.8.4-3.6 1.8m-.9 3.8q-1.7.35-3.4 1.65m4.65-8.8q-1.8.4-3.6 1.8m7.4 16.1l-.5.1q-1.2.35-2.4 1.2l-.7.5m6.85-.25q-1.8.4-3.6 1.8m-5.9-6.5q-1.8.4-3.6 1.8m-.9 4q-1.85.4-3.6 1.8m6.6-.2l-.5.1q-1.2.35-2.4 1.2l-.7.5m1.8 5.15q-1.65.4-3.3 1.7M86 71q-1.8.4-3.6 1.8m1-10.3q-1.8.35-3.6 1.75m.35-3.3l-.5.1q-1.2.35-2.4 1.2l-.7.5m19.65 6.1q-1.8.4-3.6 1.8m5.35-8.75q-1.8.35-3.6 1.7m-4.45 2q-1.8.4-3.55 1.75m6.6-.05q-1.8.4-3.6 1.8m2.05-10.35q-1.8.4-3.6 1.8m5.1-9.2q-1.8.4-3.6 1.8m5.05 7.25q-1.65.45-3.3 1.75m25.45-7.05q-1.85.4-3.65 1.8m6.9-.25q-1.85.4-3.65 1.8m-9.2-8.2q-1.8.4-3.6 1.8m.35-3.35l-.5.1q-1.2.35-2.4 1.2l-.7.5m9.8 1.4q-1.65.45-3.3 1.75m-.9 4q-1.75.35-3.55 1.75m2.15 5.7q-1.85.4-3.65 1.8m8.1-7.55q-1.8.4-3.6 1.8m8.35-7.75q-1.8.35-3.6 1.75m2.1 5.75q-1.8.4-3.6 1.8m-6.9-22.85q-1.6.45-3.2 1.7m3.85 14.6q-1.65.45-3.3 1.75m2.2 5.65q-1.85.4-3.65 1.8m3.3-18.25q-1.8.4-3.6 1.8m-11.1-.8q-1.6.45-3.2 1.7m34.9-1.9q-1.7.45-3.3 1.75m-11.5-17.05q-1.8.4-3.6 1.8m1.25-10q-1.65.4-3.3 1.7m24.95 16.15q-1.8.4-3.6 1.8m2.3 5.4q-1.6.45-3.2 1.7m-28.4 21.4q-1.8.4-3.6 1.8m35-46.4q-1.75.4-3.4 1.65m2.95 4.45q-1.8.4-3.6 1.8m-5.5-12.75q-1.8.4-3.55 1.75m-23.75-1.8q-1.8.4-3.6 1.8M46 20q-1.85.35-3.65 1.75M53.75 16q-1.85.4-3.6 1.8m6.85-.25q-1.85.4-3.6 1.8m-4.15 2.15q-1.8.4-3.6 1.8M79 7.3q-1.8.4-3.6 1.8m.35-3.35l-1.15.35q-1.25.45-2.45 1.45m-3.4.95q-1.85.4-3.6 1.8m-.65 3.25q-1.85.4-3.6 1.8m2.6 5.35q-1.8.35-3.6 1.75m7.85-7.3q-1.8.4-3.6 1.8m9.9 1.45q-1.8.4-3.6 1.8m6.85-.25l-.65.15q-1.5.45-2.95 1.6m4.8-8.5q-1.8.4-3.6 1.8m.35-3.35q-1.8.4-3.6 1.8M71 16.7q-1.8.4-3.6 1.8m4.6-8.45q-1.85.4-3.6 1.8m-7.15.15q-1.85.4-3.6 1.8m2.6 5.35q-1.85.4-3.6 1.8m19.65 6.1q-1.8.4-3.6 1.8m6.6-.2q-1.45.3-2.9 1.3l-.7.5m6.85-.25q-1.5.35-3.05 1.4l-.55.4m-4.15 2.2q-1.55.35-3.05 1.4l-.55.4m1.85-10.5q-1.85.4-3.6 1.8m-7.4.6l-.65.2q-1.5.45-2.95 1.6m10.1 1.35q-1.8.4-3.6 1.8m6.6-.2q-1.5.3-2.9 1.3l-.7.5M65.3 29.5q-1.8.4-3.6 1.8m8.1-7.4l-.65.2q-1.5.45-2.95 1.6m.85 12.75q-1.55.35-3.05 1.4l-.55.4m2.35 5.6q-1.8.35-3.55 1.75m1.55-10.7q-1.5.3-2.9 1.3l-.7.5m13.35 2.9q-1.8.4-3.55 1.75m6.6-.05q-1.8.4-3.6 1.8m4.75-9.2q-1.65.4-3.3 1.7M70 40.15q-1.65.4-3.3 1.7m-10.95-17.2q-1.8.4-3.6 1.8m5.4 7.3q-1.85.4-3.6 1.8m.35-3.4l-.65.2q-1.5.45-2.95 1.6m8.1-7.6q-1.8.4-3.6 1.8m-7.25.75q-1.8.4-3.6 1.8m.35-3.35q-1.8.4-3.6 1.8M48 44.9q-1.45.3-2.9 1.3l-.7.5m.6-3.4q-1.8.4-3.6 1.8m5.15-8.7l-.65.2q-1.5.45-2.95 1.6m10.1 1.35q-1.8.4-3.6 1.8m6.6-.2q-1.5.3-2.9 1.3l-.7.5m6.85-.25q-1.55.3-3.05 1.4l-.55.4m-4.45 1.95q-1.55.3-3.05 1.4l-.55.4M49.8 38q-1.8.4-3.6 1.8m4.8-9.2q-1.8.4-3.55 1.8m-4.15 2.45q-1.8.4-3.6 1.8M50.85 53.3q-1.8.35-3.55 1.75m0-3.25q-1.7.45-3.3 1.75M53.9 55q-1.8.4-3.6 1.8m6.85-.25q-1.8.4-3.6 1.8m-9.25-8.2q-1.5.3-3.05 1.4l-.5.4m17-2.35q-1.75.35-3.5 1.75m21.1-.65q-1.75.35-3.4 1.65m6.25 0q-1.6.45-3.2 1.7m-1.1 3.75q-1.8.4-3.6 1.8m-6.2-6.75q-1.8.4-3.6 1.8m6.85-.2q-1.7.35-3.4 1.65m3 5.4q-1.8.35-3.6 1.75m16.05 4.6q-1.65.4-3.3 1.7m.35-3.4q-1.8.4-3.6 1.8m.35-3.35l-.5.15q-1.2.35-2.4 1.15l-.7.5m.6-3.35q-1.8.35-3.6 1.75m3.6-8.7q-1.6.45-3.2 1.7m5.1-8.7q-1.8.4-3.6 1.8m8.65 8.45q-1.8.4-3.6 1.8m-10.3-1.35q-1.6.45-3.2 1.7m2.2-17.15q-1.7.45-3.3 1.75m1.9 5.2q-1.8.4-3.6 1.8m3.15 5.05q-1.75.35-3.4 1.65m-2.75-11.7q-1.7.45-3.3 1.75m17.9-2.3q-1.8.4-3.6 1.8M60.8 35.3q-1.85.4-3.6 1.8m-19-12.9q-1.8.4-3.6 1.8m2.4 5.6q-1.8.4-3.6 1.8m.35-3.4q-1.85.4-3.65 1.8m-7.65.4q-1.8.4-3.6 1.8m6.85-.25q-1.8.4-3.6 1.8m3.15 5.05q-1.8.4-3.6 1.8m6.65-.1q-1.8.4-3.6 1.8m10.55-5.5q-1.8.4-3.6 1.8m6.85-.25l-.65.2q-1.5.45-2.95 1.6m-.1 3.5q-1.8.4-3.6 1.8m.35-3.4l-.65.15q-1.45.5-2.95 1.65m4.25-8.75q-1.8.4-3.6 1.8m.35-3.35q-1.8.4-3.6 1.8m5.15-8.7q-1.85.4-3.65 1.8m-8.1 7.2q-1.8.4-3.6 1.8m.35-3.35q-1.8.4-3.6 1.8m29.15 10.9q-1.45.3-2.9 1.3l-.65.5M22 39.05q-1.8.4-3.6 1.8M38.05 47q-1.8.4-3.6 1.8m7.3-7.05q-1.8.4-3.6 1.8m2.1-10.4q-1.8.4-3.6 1.8m4.8-9.2q-1.8.4-3.6 1.8m28.7-5.2q-1.85.4-3.6 1.8M52.5 23.1q-1.8.4-3.6 1.8m34.05 44.4q-1.75.4-3.55 1.75m2.5-17q-1.8.4-3.6 1.8m3-18.5q-1.8.4-3.55 1.75m4.5-30.2q-1.8.4-3.6 1.8m2.9 4.2q-1.85.4-3.6 1.8m2.6 4.8q-1.8.4-3.6 1.8m2.9 21.55q-1.8.4-3.6 1.8" fill="none" stroke="#becfa7" stroke-linecap="round" stroke-linejoin="round" stroke-width=".25"/><path d="M80.2.3l.05.05V.3h-.05l-.15-.05L74.55 3l79.9 40.05 5.75-2.85L80.4.45l-.15-.1M160.2 44.1v.1l-5.7 2.85-69.6 34.8-4.65 2.3-80-40v-4H.3l5-2.5.05-.05L74.55 3m85.65 41.1v-3.9m-5.75 2.85l.05 4M84.8 77.9l.1 3.95m-.1-3.95l-4.55 2.25v4m5-6.5l-79.75-40h-.05l-.1-.05M85.7 77.45l68.75-34.4m-74.2 37.1l-80-40" fill="none" stroke="#293726" stroke-linecap="round" stroke-linejoin="round" stroke-width=".5"/><path d="M85.7 77.45l-.9.45" fill="none" stroke="#000" stroke-linecap="round" stroke-linejoin="round" stroke-width=".5"/></g><g id="D"><path d="M239.2 96.6l4.1 2.05.6.3L4.8 218.5v4.4l-1.1-.55v-4.75q-3-1.5-6-2.95v-.1L236.4 95.2l2.1 1.05.1.1.6.25M88.7 175.95l49.25-24.6-49.25 24.6L4.2 218.2l84.5-42.25m49.25-24.6l105.35-52.7-105.35 52.7" fill="#c87b31" fill-rule="evenodd" transform="translate(283.35 138.25)"/><path d="M3.7 222.35l-6-3.15v-4.55q3 1.45 6 2.95v4.75" fill="#8a3d20" fill-rule="evenodd" transform="translate(283.35 138.25)"/><path d="M522.55 234.85l-.6-.25M521.95 234.6l-.1-.1" fill="none" stroke="#43563d" stroke-linecap="round" stroke-linejoin="round" stroke-width=".5"/><path d="M372.05 314.2l-84.5 42.25m239.1-119.55L421.3 289.6" fill="none" stroke="#a05e27" stroke-linecap="round" stroke-linejoin="round" stroke-width=".5"/><path d="M522.55 234.85l4.1 2.05.6.3-239.1 119.55v4.4l-1.1-.55-6-3.15V352.8l238.7-119.35 2.1 1.05.7.35" fill="none" stroke="#493227" stroke-linecap="round" stroke-linejoin="round" stroke-width=".5"/><path d="M421.3 289.6l-49.25 24.6" fill="none" stroke="#a05e27" stroke-linecap="round" stroke-linejoin="round" stroke-width=".5"/><path d="M521.25 234.2l-237.9 119.15m240.5-117.85l-237.9 118.95" fill="none" stroke="#e8ba6f" stroke-linecap="round" stroke-linejoin="round" stroke-width="1.25"/><path d="M39.3-89.15v-3.3L201.55-11.5v3.35l-162.25-81m404.8 202.2l-21.15-10.6-143.4-71.6V27.4L422.95 99l21.15 10.55v3.5" fill="#da9c5f" fill-rule="evenodd" transform="translate(283.35 138.25)"/><path d="M322.65 49.1l162.25 81m0-3.35L322.65 45.8M706.3 240.7l-143.4-71.6m0-3.45l143.4 71.6M727.45 251.3l-21.15-10.6m0-3.45l21.15 10.55" fill="none" stroke="#633612" stroke-linecap="round" stroke-linejoin="round" stroke-width=".5"/><path d="M-120.3-92.65l35.4 17.7-156.25 78.1-35.35-17.7 156.2-78.1M-243 4.05l1.85.9V5l-1.85-.95m-37.1 76.15l.95.45-.95-.45" fill="#3f332c" fill-rule="evenodd" transform="translate(283.35 138.25)"/><path d="M163.05 45.6L6.85 123.7l35.35 17.7 156.25-78.1-35.4-17.7z" fill="none" stroke="#000" stroke-linecap="round" stroke-linejoin="round" stroke-width=".5"/><path d="M-168.15-11.15q-2.15-.8-6.1 1.05l-3 1.4q-1.05.35-1-.8.05-1.2 2.75-2.9l2.65-1.3 4.7 2.55" fill="#925832" fill-rule="evenodd" transform="translate(283.35 138.25)"/><path d="M-172.85-13.7l-2.65 1.3q-2.7 1.7-2.75 2.9-.05 1.15 1 .8l3-1.4q3.95-1.85 6.1-1.05l.7.35q1.4.75 1.4 1.95 0 1.4-1 2.4-.95 1-4.5 2.7L-249.4 35.2v-2.35l1-.5 5.1-2.6 1-.45 1.1-.6-1.1.6v-.05l1.1-.55L-171.75-6q3-1.45 3.05-2.5.05-1.05-4.05.5-5.2 1.95-5.65 1.75l-1.5-.85q-1.15-1.3-1.05-2.45l.05-.2.65-1.45.05-.1 2-2.7 95.05-46.85v2.25l-89.7 44.9m-76.55 46.55l1-.5-1 .5" fill="#cf8e38" fill-rule="evenodd" transform="translate(283.35 138.25)"/><path d="M-83.15-60.85L-178.2-14l-2 2.7-.05.1-.65 1.45-.05.2q-.1 1.15 1.05 2.45l-16.4-8.85L-94.75-66.7l11.6 5.85" fill="url(#d)" fill-rule="evenodd" transform="translate(283.35 138.25)"/><path d="M-179.9-7.1l1.5.85q.45.2 5.65-1.75 4.1-1.55 4.05-.5-.05 1.05-3.05 2.5l-69.45 34.7-1.1.55-1 .5-5.1 2.6-1 .5-30-15.1-.5-.25 31.95-16 8.35 4.2 43.3-21.65 16.4 8.85m-59.7 12.8V4.55 5.7" fill="url(#e)" fill-rule="evenodd" transform="translate(283.35 138.25)"/><path d="M-249.4 32.85v2.35l-.55-.25-29.7-14.9-.35-.2-.1-.05v-2.3l.1.05 30.6 15.3m-30.6-13v-2.3 2.3" fill="#b36f42" fill-rule="evenodd" transform="translate(283.35 138.25)"/><path d="M110.5 124.55l-2.65 1.3q-2.7 1.7-2.75 2.9-.05 1.15 1 .8l3-1.4q3.95-1.85 6.1-1.05l-4.7-2.55 89.7-44.9V77.4l-95.05 46.85-2 2.7m-.05.1l-.65 1.45-.05.2q-.1 1.15 1.05 2.45l1.5.85q.45.2 5.65-1.75 4.1-1.55 4.05-.5-.05 1.05-3.05 2.5l-69.45 34.7-1.1.6-1 .45-5.1 2.6-1 .5 1-.5m-1 2.85l77.85-38.95q3.55-1.7 4.5-2.7 1-1 1-2.4 0-1.2-1.4-1.95l-.7-.35m-11.75 4.05l-16.4-8.85-43.3 21.65-8.35-4.2-31.95 16-.1.05v-.1l.1.05m.5.25l30 15.1M200.2 77.4l-11.6-5.85L87.05 122.3m-46 45.2v.05m0-.05l1.1-.55M3.95 156l-.5-.25m-.1.05v2.3m.35.2l29.7 14.9.55.25-.55-.25M3.7 158.3l-.35-.15v-.05m36.7 9.9l1-.5" fill="none" stroke="#49250e" stroke-linecap="round" stroke-linejoin="round" stroke-width=".5"/><path d="M-283.1-16.55l159.5-79.7 3.65-1.8.05-.05.45-.2 79.35-39.65.05-.05v3.5h-.05l-76.3 38.15-.05.05-.1.05 3.5 1.75.1-.05L-80-78.05l.05-.05 3.5 1.75-.05.05-163.1 81.5-42.45-21.2-1.05-.5v-.05l1.05.55-1.05-.55m163.05-77.9l-2 1-.15.05L-276-16.55l1.85.95 34.6 17.3L-85.6-75.25l2-1-33-16.5h.05l-3.5-1.75h-.05l-.75.4.8-.35M-76.5-76.3l-3.5-1.75 3.5 1.75" fill="#7b570d" fill-rule="evenodd" transform="translate(283.35 138.25)"/><path d="M480.2 125.15v3.5l-57.25-28.55-462.5-230.8-.5-.3h-.05l-72.8 36.4-.05.05-.1.05-3.5-1.75.1-.05 3.5 1.75-3.5-1.75.05-.05 76.3-38.15h.05l39 19.55 424 211.55 57.25 28.55M-76.45-76.35v3.5l-.15.1-3.35 1.65L-239.6 8.7V5.2l163.1-81.5.05-.05m-40.15-16.4l-3.45-1.7-.05-.05h.05l3.5 1.75h-.05m3.7-1.85l-3.5-1.75 3.5 1.75m111.8-20.25l.95.35-.9-.45-.05.1M-76.5-76.3h.05-.05" fill="#da9c5f" fill-rule="evenodd" transform="translate(283.35 138.25)"/><path d="M-40.05-138l178 88.85 342.25 170.8v3.5L422.95 96.6l-424-211.55-39-19.55v-3.5" fill="#a05e27" fill-rule="evenodd" transform="translate(283.35 138.25)"/><path d="M-274.15-15.6l-1.85-.95 153.8-76.85.15-.05 2-1 3.45 1.7 33 16.5-2 1-30.35-15.15-3.9-1.95-.5-.25-153.8 77m154.05-78.9l.05.05-.8.35.75-.4" fill="#784829" fill-rule="evenodd" transform="translate(283.35 138.25)"/><path d="M-283.1-16.5l1.05.5 42.45 21.2v3.5L-280-11.45v87.7l41.05 20.5v4L-283.1 78.7v-93.05V-13v-3.5m3.1 5.05l-3.1-1.55 3.1 1.55" fill="#b36f42" fill-rule="evenodd" transform="translate(283.35 138.25)"/><path d="M706.3 238.35L243.8 7.55l-.55-.3-72.8 36.4-.05.05m36.5 21.7l-.15.1-3.35 1.65-159.65 79.8v-3.5M243.3 3.75l39 19.55 424 211.55M243.25 3.75l-76.3 38.15-.05.05-.1.05m3.5 1.75l.1-.05m36.45 18.25l.05-.05m-.05.05l-163.1 81.5" fill="none" stroke="#633612" stroke-linecap="round" stroke-linejoin="round" stroke-width=".5"/><path d="M421.3 89.1l342.25 170.8v3.5M.25 121.75v-.05L159.75 42l3.65-1.8.05-.05.45-.2L243.25.3l.05-.05 178 88.85M170.4 43.7l32.95 16.5 3.5 1.75m.05-.05v3.5m-3.5 1.75v87.8M.25 121.7v.05m1.05.5l-1.05-.55m0 2.2v1.35-3.5M163.3 43.8l-2 1-.15.05L7.35 121.7l1.85.95 153.8-77 .5.25 3.9 1.95L197.75 63l2-1-33-16.5-3.45-1.7-.05-.05m-163 81.5l3.1 1.55 40.4 20.15m0-3.5L1.3 122.25M166.95 41.9l3.5 1.75m-.05.05l-3.5-1.75m40 20h-.05M3.35 126.8v87.7L44.4 235v4L.25 216.95v-91.7m8.95-2.6l34.6 17.3L197.75 63" fill="none" stroke="#49250e" stroke-linecap="round" stroke-linejoin="round" stroke-width=".5"/><path d="M763.55 263.4v3.5l-57.25-28.55m0-3.5l57.25 28.55" fill="none" stroke="#633612" stroke-linecap="round" stroke-linejoin="round" stroke-width=".5"/></g><g id="f"><path d="M6.3-49.55h.05v9.1l-2.7 1.35v-.05l-.95.5v3.3l.1.05.1.05.75.6-.75-.6.75.35v88.1l-1.95 1-.05-.05V-47.2l1-.55 3.65-1.8-3.65 1.8-1 .5v-.05l-1.85-1-1.1-.6-1-.5-.9-.45-1.15-.6 4.25-2.3 6.4 3.2" fill="#ad6825" fill-rule="evenodd" transform="translate(4.6 53)"/><path d="M-4.35-50.45l1.15.6v101.6l-1.15-.6v-101.6" fill="#d2913a" fill-rule="evenodd" transform="translate(4.6 53)"/><path d="M-3.2-49.85l.9.45V52.2l-.9-.45v-101.6" fill="#dca254" fill-rule="evenodd" transform="translate(4.6 53)"/><path d="M-2.3-49.4l1 .5V52.7l-1-.5V-49.4" fill="#d89c4b" fill-rule="evenodd" transform="translate(4.6 53)"/><path d="M-.2-48.3V53.25l-1.1-.55V-48.9l1.1.6" fill="#d49541" fill-rule="evenodd" transform="translate(4.6 53)"/><path d="M1.65-47.2V54.2l-1.85-.95V-48.3l1.85 1v.1" fill="#cd892f" fill-rule="evenodd" transform="translate(4.6 53)"/><path d="M8.25 13.9l2.7-1.35v-9.1h-.05l-3.65 1.8m1 13.1l-.75-.6m-.2-.1v-3.3m.95-.45l-.95.45M6.25 5.7l-1.85-1m1.85 102.5v-.05m0-101.4l1-.5m-1 101.95h.05M.25 2.55l1.15.6.9.45 1 .5 1.1.6m6.5-1.25L4.5.25.25 2.55" fill="none" stroke="#633612" stroke-linecap="round" stroke-linejoin="round" stroke-width=".5"/><path d="M6.25 5.8v101.35m0-101.35v-.1" fill="none" stroke="#944b1d" stroke-linecap="round" stroke-linejoin="round" stroke-width=".5"/><path d="M6.3 107.2l1.95-1V18.1m-8-15.55v101.6M4.4 106.25l1.85.95m-6-3.05l1.15.6m.9.45l-.9-.45m1.9.95l-1-.5m2.1 1.05l-1.1-.55" fill="none" stroke="#49250e" stroke-linecap="round" stroke-linejoin="round" stroke-width=".5"/></g><g id="g"><path d="M-2.95-49.7l4.45-2.25 4.65 2.3.15.1h.05v9.1l-2.7 1.35v-.05l-.95.5v3.3l.1.05.85.4v88.1l-1.95 1-.05-.05V-47.2l.9-.45-.9.4v-.05l-1.8-.85q.9.4 1.75.85V54.2l-2-1v-88.15l.85-.45.1-.05v-3.25l-.95-.5-2.7-1.35v-9.05l.05-.05.1-.05m9.25.15l-3.75 1.9 3.75-1.9m-9.35-.1l2.9 1.5-2.9-1.5" fill="#ad6825" fill-rule="evenodd" transform="translate(3.35 52.2)"/><path d="M.4 2.5L4.85.25l4.65 2.3m.15.1h.05v9.1L7 13.1l-.95.45v3.3l.1.05.85.4m-1.95 89.1H5v-.05M5 4.9l-1.8-.85q.9.4 1.75.85m0 101.45v.05l-2-1V17.25l.85-.45.1-.05V13.5l-.95-.5-2.7-1.35V2.6l.05-.05M5 4.95l.9-.4 3.75-1.9M3.2 4.05L.3 2.55" fill="none" stroke="#633612" stroke-linecap="round" stroke-linejoin="round" stroke-width=".5"/><path d="M5 106.35V4.9" fill="none" stroke="#944b1d" stroke-linecap="round" stroke-linejoin="round" stroke-width=".5"/><path d="M7 17.3v88.1l-1.95 1" fill="none" stroke="#49250e" stroke-linecap="round" stroke-linejoin="round" stroke-width=".5"/></g><g id="h"><path d="M.4-48.9V54.15l-7-3.5V-52.4h.05l-.05.05.05-.05L0-49.1l.4.2" fill="url(#i)" fill-rule="evenodd" transform="translate(6.85 55.85)"/><path d="M3.7-35.75l.2.1v88.1l-.2.1v-88.3 88.3l-1.3.65-.25.15-1.7.85-.05-.05V-49.3l-.35.2H0l-6.55-3.3h.05l6.35-3.2 6.55 3.3.1 11.05-3.55 1.85v3.3l.1.05.65.3M.4-49.3l6-3-6 3m-6.9-3.1l6.55 3.3-6.55-3.3" fill="#934629" fill-rule="evenodd" transform="translate(6.85 55.85)"/><path d="M10.55 108.4l.2-.1m-.2-88.2l-.65-.3-.1-.05V16.7m0-.25l3.55-1.85m-6.1-7.65V110m2-.95l1.3-.65m-3.25 1.65h-.05V110" fill="none" stroke="#633612" stroke-linecap="round" stroke-linejoin="round" stroke-width=".5"/><path d="M10.55 20.1v88.3m2.8-93.8l-.1-11.05-6 3-.35.2h-.05l.4.2m.05 103.1l1.7-.85m-1.75.8l-7-3.5V3.45h.1L6.7.25l6.55 3.3m-13-.05l.05-.05m6.6 3.3L.35 3.45" fill="none" stroke="#49250e" stroke-linecap="round" stroke-linejoin="round" stroke-width=".5"/></g><g id="j"><path d="M.8-49.8V53.85l-3.65-1.7V52l.05-103.5 3.6 1.7M-2.85 52L.8 53.85-2.85 52" fill="url(#k)" fill-rule="evenodd" transform="translate(3.25 53.9)"/><path d="M4.95-51.9H5V56.45l-4.2 2.1V-49.8l4.15-2.1L.8-49.8l-3.6-1.7-.05-.15L1.4-53.6l3.55 1.7m.05 0v-2 2" fill="#8a3d20" fill-rule="evenodd" transform="translate(3.25 53.9)"/><path d="M8.25 2H8.2L4.05 4.1v103.65M8.25 2H8.2L4.65.3.4 2.25m.05.15l3.6 1.7M.25 2.3l.15-.05" fill="none" stroke="#633612" stroke-linecap="round" stroke-linejoin="round" stroke-width=".5"/><path d="M8.25 105.85V2M.4 105.9L.45 2.4M4.05 107.75v4.7l4.2-2.1v-4.5m-4.2 1.9L.4 105.9" fill="none" stroke="#49250e" stroke-linecap="round" stroke-linejoin="round" stroke-width=".5"/></g><g id="I" transform="translate(30.05 54.2)"><use height="23.4" transform="translate(-26 -21.55)" width="46.85" xlink:href="#l"/><use height="64.6" transform="translate(-30.05 -54.2)" width="47.85" xlink:href="#m"/><use height="34.35" transform="matrix(-1 0 0 1 28.2 -33.3)" width="19.9" xlink:href="#n"/><use height="20.1" transform="rotate(180 -.775 -6.625)" width="9.25" xlink:href="#o"/><use height="20.1" transform="translate(-2.85 -37.3)" width="9.25" xlink:href="#o"/></g><g id="m"><path d="M15.15-43.6l1.35-.65-1.35.65m2.15-1.7v1.75l-1.3.65 1.3-.65v17.05l-1.3.65V-42.9l-7.55 3.75-1.5.75-11.75 5.85-3 1.5-3.45 1.7-1.4.7 1.4-.7v17.1l-1.45.75V.15L-29.55-8.3V-38.75l16.85 8.45v1.6l-16.85-8.4 16.85 8.4v-1.6l.5-.25L17.3-45.3m-27.8 14.5l-1.7.25 1.7-.25m27.05-10.15v-1.5 1.5m-7.35.35l-3.75 2 3.75-2M16.55-29v1.75V-29m-9.5 7.65h-.1v-.15l.1.15m-19.7-7.3l-.05-.05v.05h.05m-2.6-2.2l1.7.9-1.7-.9m3.3 4.85v-2.1 2.1m-1.85.05l.1-2.25-1.8-1 1.8 1-.1 2.25m-13.05-10.5l-2.15-1.1 2.15 1.1m-.1 1.85l-1.85-1.1v2.1-2.1l1.85 1.1m15 20v1.85-1.85m-3.25.85l1.7 1v-1.95 1.95l-1.7-1m-13.45-8.8v1.95l2.05 1.1-2.05-1.1v-1.95m2.3 5.4l-2.45-1.3v2.3-2.3l2.45 1.3m-2.05 6.55V-9l2.1 1.25L-28.4-9v-1.6m12.95-1.35l1.7 1.1.05 2.9-.05-2.9-1.7-1.1m1.8 8.35v2.35l-1.9-1.1 1.9 1.1V-3.6m-15.9-16.35l16.85 8.45v-17.15 17.15l-16.85-8.45" fill="#3c201c" fill-rule="evenodd" transform="translate(30.05 54.2)"/><path d="M2.05-51.9L.4-52.7l-1.2.5 1.2-.5 1.65.8m15.25 6.6l-29.5 14.75-.5.25-16.85-8.45 30-14.95 16.85 8.4m0 18.8v11.65q-9.75 1.55-30 15V-11.5l1.45-.75 18.2-9.1h.1l1.4-.75L16-25.85 8.45-22.1l-1.4.75-.1-.15v-16.9l1.5-.75L16-42.9v17.05l1.3-.65m-3.6-19.6l1.4.7-1 .35 1-.35-1.4-.7m-2.85 9.25v3.1-3.1l3.25-1.75-3.25 1.75m2.3 7.35q1.3-.2 1.15.75-.2.9-1.5 1-1.3.05-.95-1.1-.35 1.15.95 1.1 1.3-.1 1.5-1 .15-.95-1.15-.75m.25-7.35q1.3-.2 1.15.75-.2.9-1.5 1-1.3.05-.95-1.1-.35 1.15.95 1.1 1.3-.1 1.5-1 .15-.95-1.15-.75m-2.8 7.55v3.45-3.45l3.35-1.95-3.35 1.95m4.45-5.65v-5.5l-5.35 2.8v5.45l5.35-2.75L9.7-32.2v-5.45l5.35-2.8v5.5m0 7.5v-5.5l-5.35 2.8v5.45l5.35-2.75L9.7-24.7v-5.45l5.35-2.8v5.5M7.7-37.6v1.6-1.6m2.75 18.95q1.3-.2 1.15.75-.2.9-1.5 1-1.3.05-.95-1.1-.35 1.15.95 1.1 1.3-.1 1.5-1 .15-.95-1.15-.75m5.2-5.25v6.45L3.15-11.2l-.05-6.45 12.55-6.25L3.1-17.65l.05 6.45 12.5-6.25v-6.45m-.35 8.6h1.35v-2.4 2.4H15.3M2.2-18.05l-1.3.7 1.3-.7 1.25-.7-1.25.7v1.35-1.35m6.8-3.6l-2.25 1.3L9-21.65m-1.35-2.3v1.35-1.35M2.2 1.55v.05-.05.05l-.15.25v.05q-.25.45-.25.95h-.35q-2.1 0-3.55.7-1.5.65-1.45 1.55-.05.95 1.45 1.6l3.55.65q2.05 0 3.5-.65l1-.6-1 .6q-1.45.65-3.5.65L-2.1 6.7q-1.5-.65-1.45-1.6-.05-.9 1.45-1.55 1.45-.7 3.55-.7h.35q-.05.8.45 1.55.8 1.3 2.3 1.65l1.4.05q.8-.15 1.65-.7 1.15-.75 1.15-2.15l.7.45-.7-.45v-.3l.35.3.35.45.25 1.05q0 1.65-2.5 2.8-2.5 1.2-6 1.2t-6-1.2l-.25-.1-.4-.25q-.25-.15.1 0-.85-.75-.85-1.3v-.1q.05-1.6 2.5-2.75Q-1.3 1.9 2.05 1.9q-3.35 0-5.75 1.15Q-6.15 4.2-6.2 5.8v.1q0 .55.85 1.3l-.95-.55q-.6-.7-.6-1.5v-.1q.05-1.6 2.5-2.75 2.5-1.2 6-1.15H2l.1.25.1.15m1.5-12.1l-1.15.6-1.35.6 1.35-.6-.15-1.55.15 1.55 1.15-.6M1.45-16.8l.1 6.4q-6.3 3.1-12.6 6.25v-6.4l12.5-6.25-12.5 6.25v6.4q6.3-3.15 12.6-6.25l-.1-6.4m2.75 4.45V-17v4.65m0-4.65l10.5-5.25L4.2-17m4.25-5.1v-17.05 17.05m-19.6-10.15l-1.8.8-1.7-.8 1.7.8 1.8-.8M16.45-23l-.05-2.2-1.65.85 1.65-.85.05 2.2m-28.2-9.85l-1.35.6 1.35-.6m-10.55-3.3l-3.05-1.6 3.05 1.6m-4.1-1.9l-1.2-.8 1.25-.65-1.25.65 1.2.8M-11.95-8.3v-2.8l1.85-.9-1.85.9v2.8m1.4 5.8l-1.4 1.2v-2.5 2.5l1.4-1.2m.5-7.45v4.45-4.45l10.5-5.3-10.5 5.3m6.35-1.55q1.3-.2 1.15.75-.2.9-1.5 1-1.3.05-.95-1.1-.35 1.15.95 1.1 1.3-.1 1.5-1 .15-.95-1.15-.75M13-44.35l-23.55 11.8L13-44.35" fill="#4f2c26" fill-rule="evenodd" transform="translate(30.05 54.2)"/><path d="M6.95-21.35l-18.2 9.1V-24.2l2.45-1.2L-4-23l-4.8-2.4 4.5-2.25q1.6-.75 2.15-.55l.1.05q.5.3-.45 1.9l-.4.7q-1.35 2-1.1 2.55.05.2.4.2.45-.05 1.55-.6l2.6-1.3 6.4 3.2-6.4-3.2 5.1-2.55-10.45-5.3L6.95-38.4V-21.35M8.75 1.5q2.65 1.45 2.65 3.4 0 2.1-2.95 3.55-1.5.75-3.25 1.1l-3.8.35h-.1l-3.5-.3-3.45-1.15Q-8.6 7-8.6 4.9q0-2.05 2.95-3.55L-3.3.5l4.6-.6h.1l1.7.15-.5.25-.4.25-.1.15-.05.05H1.2Q-2.3.7-4.8 1.9q-2.5 1.15-2.5 2.85 0 1.05 1 1.9l.95.55q-.35-.15-.1 0l.4.25.25.1q2.5 1.2 6 1.2t6-1.2q2.5-1.15 2.5-2.8L9.45 3.7l-.35-.45-.35-.4-.15-.8.1-.25-.25-.15.3-.1V1.5m.35 5.55q1-.85 1-1.9v-.2L9.75 3.9l-.65-.65.65.65.35 1.05v.2q0 1.05-1 1.9m.65-3.15l-.3-.2.3.2M5.2 9.55q1.7-.4 3.15-1.1Q11.3 7 11.3 4.9q0-1.95-2.55-3.35 2.55 1.4 2.55 3.35 0 2.1-2.95 3.55-1.45.7-3.15 1.1" fill="#1b0d0c" fill-rule="evenodd" transform="translate(30.05 54.2)"/><path d="M.55-24.7l-2.6 1.3q-1.1.55-1.55.6-.35 0-.4-.2-.25-.55 1.1-2.55l.4-.7q.95-1.6.45-1.9l-.1-.05q-.55-.2-2.15.55l-4.5 2.25-2.45 1.2v-5.15l3.45-1.7 3-1.5 10.45 5.3-5.1 2.55m-8.35-6.35l5.65 2.85-5.65-2.85" fill="#2c1614" fill-rule="evenodd" transform="translate(30.05 54.2)"/><path d="M2 1.15h-.4q-3.5-.05-6 1.15-2.45 1.15-2.5 2.75v.1q0 .8.6 1.5-1-.85-1-1.9 0-1.7 2.5-2.85Q-2.3.7 1.2.75h.85q-.1.15-.05.4m6.75 1.7l.35.4-.35-.3v-.1" fill="#300" fill-rule="evenodd" transform="translate(30.05 54.2)"/><path d="M3.7-.15l1.5-.1L7.6.2l.1.1h.05q.95.5 1 1.2v.05l-.3.1.25.15-.1.25.15.8v.4q0 1.4-1.15 2.15-.85.55-1.65.7l-1.4-.05q-1.5-.35-2.3-1.65-.5-.75-.45-1.55 0-.5.25-.95v-.05l.15-.25v-.05l-.05-.2.05-.2.1-.3.05-.05.75-.65.15-.1.45-.2-.45.2-.15.1-.75.65-.05.05-.1.3-.05.2.05.2-.1-.15-.1-.25q-.05-.25.05-.4L2.1.7l.1-.15.4-.25.5-.25.6-.2M7.75.3q.6.45.7 1.05v.05l-.4.95-.1.15-.3.25-.1.05q-.95.55-2.25.55T3.1 2.8q-.6-.35-.8-.9l-.1-.3.1.3q.2.55.8.9.9.55 2.2.55 1.3 0 2.25-.55l.1-.05.3-.25.1-.15.4-.95v-.05q-.1-.6-.7-1.05m.85 1.75l-.15-.4.15.4m-.7.2L8 2q-.05-.4-.7-.65L5.2 1.1h-.4l-.8.05-.25.1-.3.1q-.65.2-.75.55l-.05.05.05.15h.05-.05l.75.65 1.9.3 1.85-.3.2-.1.4-.25.1-.15m-5.85-.4l.15-.25-.15.25" fill="#e3ecf7" fill-rule="evenodd" transform="translate(30.05 54.2)"/><path d="M7.9 2.25l-.1.15-.4.25-.2.1-1.85.3-1.9-.3-.75-.65h.05-.05l-.05-.15.05-.05q.1-.35.75-.55l.3-.1.25-.1.8-.05h.4l2.1.25q.65.25.7.65l-.1.25" fill="#bbd2ea" fill-rule="evenodd" transform="translate(30.05 54.2)"/><path d="M17.3-45.3l-29.5 14.75M16-42.9l1.3-.65v17.05m0 11.65q-9.75 1.55-30 15L-29.55-8.3m0-11.65V-37.1l16.85 8.4v-1.6l-16.85-8.45 30-14.95 16.85 8.4M6.95-38.4l1.5-.75L16-42.9v17.05l1.3-.65m-2.25-.95L9.7-24.7v-5.45l5.35-2.8v5.5m0-7.5L9.7-32.2v-5.45l5.35-2.8v5.5m.6 11.05L3.1-17.65l.05 6.45 12.5-6.25v-6.45m-8.6 2.55h-.1l-18.2 9.1-1.45.75V.15m28.7-26L8.45-22.1l-1.4.75m-.1-.15l-6.4-3.2M-4-23l-4.8-2.4m-2.45 1.2v11.95m12.7-4.55l-12.5 6.25v6.4q6.3-3.15 12.6-6.25l-.1-6.4m7-22.35v17.05m-1.5-16.3L-4.8-32.55l10.45 5.3M-12.7-28.7v.05h.05l1.4-.7 3.45-1.7 3-1.5m-7.9 2.25l.5-.25m10.05 2.35l-5.65-2.85m-4.9 2.4v17.15l-16.85-8.45m18.3-9.4v5.15M17.3-43.55v-1.75m0 18.8v11.65M-29.55-8.3v-11.65m0-17.15v-1.65M6.95-21.5v.15m0-.15v-16.9" fill="none" stroke="#300" stroke-linecap="round" stroke-linejoin="round" transform="translate(30.05 54.2)"/><path d="M-3.25 9.35l-2.5-.9Q-8.7 7-8.7 4.9q0-2.05 2.95-3.55Q-4.65.8-3.3.5l4.6-.6h.1l1.7.15" fill="none" stroke="#704536" stroke-linecap="round" stroke-linejoin="round" transform="translate(30.05 54.2)"/><path d="M.55-24.7l-2.6 1.3q-1.1.55-1.55.6-.35 0-.4-.2m-4.8-2.4l-2.45 1.2M5.2 9.55l-3.8.35h-.1l-3.5-.3-1.05-.25m8.9-36.6L.55-24.7m-9.35-.7l4.5-2.25q1.6-.75 2.15-.55l.1.05q.5.3-.45 1.9l-.4.7q-1.35 2-1.1 2.55M8.75 1.55q2.55 1.4 2.55 3.35 0 2.1-2.95 3.55-1.45.7-3.15 1.1" fill="none" stroke="#4f2c26" stroke-linecap="round" stroke-linejoin="round" transform="translate(30.05 54.2)"/><path d="M-5.35 7.2q-.35-.15-.1 0l.4.25m-1.25-.8q-.6-.7-.6-1.5v-.1q.05-1.6 2.5-2.75 2.5-1.2 6-1.15H2m-8.3 5.5l.95.55M9.1 3.25l.65.65.35 1.05v.2q0 1.05-1 1.9m-.35-4.1l.35.3m.35.45l.3.2" fill="none" stroke="#261313" stroke-linecap="round" stroke-linejoin="round" transform="translate(30.05 54.2)"/><path d="M2.05 1.9q-3.35 0-5.75 1.15Q-6.15 4.2-6.2 5.8v.1q0 .55.85 1.3m14.8-3.5l-.7-.45" fill="none" stroke="#371e1c" stroke-linecap="round" stroke-linejoin="round" transform="translate(30.05 54.2)"/><path d="M5.95 6.1l-1 .6q-1.45.65-3.5.65L-2.1 6.7q-1.5-.65-1.45-1.6-.05-.9 1.45-1.55 1.45-.7 3.55-.7h.35" fill="none" stroke="#5e382f" stroke-linecap="round" stroke-linejoin="round" transform="translate(30.05 54.2)"/><path d="M-.8-52.2l1.2-.5 1.65.8m14.45 7.65l-1.35.65m1.4 1.15v1.5m-2.45-4.1l1-.35-1.4-.7m-8.25 7.5l3.75-2m7.35 13.35V-29M7.7-36v-1.6m8.95 19.9v2.4H15.3m-7.65-7.3v-1.35m-.9 3.6L9-21.65m-5.55 2.9l-1.25.7v1.35m-1.3-.65l1.3-.7m-1 8.7l1.35-.6-.15-1.55m.15 1.55l1.15-.6m11.05-13.8l1.65-.85.05 2.2m-31.1-9.25l1.7.8 1.8-.8m-4.35 3.05l1.8 1-.1 2.25m1.85-2.15v2.1m-1.6-3.95l-1.7-.9M-28.8-33.6v-2.1l1.85 1.1M-29-37.55l2.15 1.1m.5-3.05l-1.25.65 1.2.8m.1 30.3L-28.4-9v-1.6m-.4-5.55v-2.3l2.45 1.3m-.25-2.35l-2.05-1.1v-1.95m15.15 7.85v1.95l-1.7-1m3.25 1v-1.85m1.85 2.6l-1.85.9v2.8m-1.75.35l-.05-2.9-1.7-1.1m3.5 8.15v2.5l1.4-1.2m-5 .15l1.9 1.1V-3.6M-12.2-30.55l1.7-.25m22.6-5.4q-.35 1.15.95 1.1 1.3-.1 1.5-1 .15-.95-1.15-.75m-1.55 8q-.35 1.15.95 1.1 1.3-.1 1.5-1 .15-.95-1.15-.75m-4 11.5q-.35 1.15.95 1.1 1.3-.1 1.5-1 .15-.95-1.15-.75M-5-10.85q-.35 1.15.95 1.1 1.3-.1 1.5-1 .15-.95-1.15-.75" fill="none" stroke="#000" stroke-linecap="round" stroke-linejoin="round" transform="translate(30.05 54.2)"/><path d="M7.6.2L7.55.15Q6.6-.4 5.3-.35l-1.6.2-.45.2-.15.1-.75.65-.05.05-.1.3-.05.2.05.2v.05l-.15.25m.15-.25l.1.3q.2.55.8.9.9.55 2.2.55 1.3 0 2.25-.55l.1-.05.3-.25.1-.15.4-.95v-.05q-.1-.6-.7-1.05M7.6.2l.15.1" fill="none" stroke="#afafcf" stroke-linecap="round" stroke-linejoin="round" transform="translate(30.05 54.2)"/><path d="M8.45 1.65l.15.4" fill="none" stroke="#373256" stroke-linecap="round" stroke-linejoin="round" transform="translate(30.05 54.2)"/><path d="M1.8 2.85q0-.5.25-.95m6.7 1.35q0 1.4-1.15 2.15-.85.55-1.65.7l-1.4-.05q-1.5-.35-2.3-1.65-.5-.75-.45-1.55m6.8-.8l.15.8v.4m-6.7-1.4v.05" fill="none" stroke="#7292d1" stroke-linecap="round" stroke-linejoin="round" transform="translate(30.05 54.2)"/><path d="M2 1.15q-.05-.25.05-.4m.15-.2L2.1.7l-.05.05m-.05.4l.1.25" fill="none" stroke="#fff" stroke-linecap="round" stroke-linejoin="round" transform="translate(30.05 54.2)"/><path d="M19.5 21.65l23.55-11.8" fill="none" stroke="#5e382f" stroke-linecap="round" stroke-linejoin="round" stroke-width=".5"/><path d="M40.9 20.45v-3.1m-.25 11V24.9m-6.4 12.3v4.65M20 48.7v-4.45" fill="none" stroke="#6c4635" stroke-linecap="round" stroke-linejoin="round" stroke-width=".5"/><path d="M40.9 17.35l3.25-1.75m-3.5 9.3L44 22.95m.75 9l-10.5 5.25M20 44.25l10.5-5.3" fill="none" stroke="#6d4038" stroke-linecap="round" stroke-linejoin="round" stroke-width=".5"/><path d="M-13.1-32.25l1.35-.6m-13.6-4.9l3.05 1.6" fill="none" stroke="#5f3d2e" stroke-linecap="round" stroke-linejoin="round" transform="translate(30.05 54.2)"/></g><g id="n" transform="translate(0 .25)"><use height="33.7" width="19.9" xlink:href="#p"/><use height="34.35" transform="translate(.5 -.25)" width="16.7" xlink:href="#q"/></g><g id="q"><path d="M7.65 5.95L14.4.25l2.3 9.95-.55-.35-.8-.05-1.4 1.2-1.8 6.65L6.9 16.4l2.15-7.05.55-1.65-1.95-1.75m-.5 21.25q-.75 1.65-2.35 3.05L2.6 31.7l2.2-1.45q1.6-1.4 2.35-3.05m-.35-5.8l.45.05.45-.3.05-.45-.3-.4-.5-.05-.4.3-.1.45.35.4M4.15 33.6L2.6 31.7l-1.6-2q1.45-.75 2.55-1.8l1.2-1.45.05-.1-.05-.15-.4-.75 2.5-8.55 4.7 1.15.05-.1h1.15l-2.15 9.8h-.75q-1 2-2.4 3.45-1.4 1.45-3.3 2.4m6.6-11.25l.45-.3.05-.45-.3-.4-.5-.05-.4.3-.1.45.35.4.45.05" fill="#e9bb8f" fill-rule="evenodd" transform="translate(-.5 .25)"/><path d="M6.8 21.4l-.35-.4.1-.45.4-.3.5.05.3.4-.05.45-.45.3-.45-.05m3.95.95l-.45-.05-.35-.4.1-.45.4-.3.5.05.3.4-.05.45-.45.3" fill-rule="evenodd" transform="translate(-.5 .25)"/><path d="M16.7 10.2L14.4.25l-6.75 5.7m1.4 3.4L6.9 16.4l5.25 1.25 1.8-6.65M2.6 31.7l2.2-1.45q1.6-1.4 2.35-3.05M1 29.7q1.45-.75 2.55-1.8l1.2-1.45.05-.1-.05-.15m5.1 1.55q-1 2-2.4 3.45-1.4 1.45-3.3 2.4" fill="none" stroke="#000" stroke-linecap="round" stroke-linejoin="round" transform="translate(-.5 .25)"/></g><g id="o"><path d="M10.25.25V15.9Q5.6 18.1 1 20.35V4.65l9.25-4.4" fill="#999" fill-opacity=".286" fill-rule="evenodd" transform="translate(-1 -.25)"/><path d="M9.4 9.5v-2" fill="none" stroke="#fff" stroke-linecap="round" stroke-linejoin="round" stroke-opacity=".286" transform="translate(-1 -.25)"/></g><g id="J"><path d="M-137.05 10.15v-2.3l32.35-16.2V-6l-32.35 16.15M-178 30.65V28.3l36.95-18.45v2.3L-178 30.65m-39 19.45v-2.3l35-17.5v2.35l-35 17.45m-39 19.5v-2.3l35-17.5v2.3l-35 17.5" fill="#d3ccb4" fill-rule="evenodd" transform="translate(283.35 71.35)"/><path d="M-104.7-6V.25l-32.3 16.2-.05-6.3L-104.7-6M-178 30.65l36.95-18.5.05 6.3-37 18.45v-6.25m-39 19.45l35-17.45v6.25l-35 17.5v-6.3m-4 2v6.3l-35 17.5v-6.3l35-17.5" fill="#f1f1ef" fill-rule="evenodd" transform="translate(283.35 71.35)"/><path d="M-104.7.25v3.1L-137 19.5v-3.05l32.3-16.2m-36.3 18.2v3.05L-178 40v-3.1l37-18.45m-41 20.45V42l-35 17.5v-3.1l35-17.5m-39 19.5v3.1L-256 79v-3.1l35-17.5" fill="#e7eae7" fill-rule="evenodd" transform="translate(283.35 71.35)"/><path d="M-104.7 3.35V4.9L-137 21.05V19.5l32.3-16.15M-141 21.5v1.55l-37 18.5V40l37-18.5M-182 42v1.55l-35 17.5V59.5l35-17.5m-39 19.5v1.55l-35 17.5V79l35-17.5" fill="#dde1e0" fill-rule="evenodd" transform="translate(283.35 71.35)"/><path d="M-104.7 4.9v1.6L-137 22.7v-1.65l32.3-16.15M-141 23.05v1.65l-37 18.5v-1.65l37-18.5m-41 20.5v1.65l-35 17.5v-1.65l35-17.5m-39 19.5v1.65l-35 17.45v-1.6l35-17.5" fill="#d2b335" fill-rule="evenodd" transform="translate(283.35 71.35)"/><path d="M-8.7-27v3.05l-71.25 35.6v-3L-8.7-27" fill="#c79e69" fill-rule="evenodd" transform="translate(283.35 71.35)"/><path d="M-258.5 65.3l-2.05.95v.45-.05l-.05 1.15v.85l-1.4-.7-18.05-9.05v-2.35l.05-.05 19.45 9.75L-280 56.5l1.9-.95v-.05h.05l19.55 9.8M-8.7-23.95l5 2.5-155.6 78-71.3 35.7-8.35 4.5-5.7-2.85-2.85-1.4 2-1h.05l22.75-11.4V69.15l8.5-4.25v10.95l31-15.5V49.4l7.4-3.7v10.85l33.75-16.85V28.75l.05.05 5.9-2.95v10.9l31-15.5V10.3l.05.05 3.95-2 13.9 6.9 7.25-3.65v.05l71.25-35.6m-245 113.35l-4.8-2.4 4.8-2.4v4.8m169.6-72.6l-3.1-1.55 3.1 1.55m-75.2 39.75l-5.25-2.65 77.35-38.65-77.35 38.65 5.25 2.65m-101.25 9.7v.4-.4m96-12.35l-80.1 40 80.1-40" fill="#c87b31" fill-rule="evenodd" transform="translate(283.35 71.35)"/><path d="M-41.4-51.2l1.9.95q1-.5 1.95-.95L-8.7-36.75v3.45l1.55.8v.15l1.2.45v.1l-74 36.95v-37l2.8-1.45 35.75-17.9" fill="url(#r)" fill-rule="evenodd" transform="translate(283.35 71.35)"/><path d="M-2.45-33.6v-.05h.05l-.05.05" fill="url(#s)" fill-rule="evenodd" transform="translate(283.35 71.35)"/><path d="M-5.95-31.9l-1.2-.45 1.1.4.1.05" fill="url(#t)" fill-rule="evenodd" transform="translate(283.35 71.35)"/><path d="M-79.95 5.15l74-36.95v3.4l-1.2.65-.25.1-1.3.65-71.25 35.65v-3.5" fill="url(#u)" fill-rule="evenodd" transform="translate(283.35 71.35)"/><path d="M-104.7-8.35v-.9l2.05-1V7.5l-.05.05-39.35 19.65-33.75 16.85v.05L-219 65.7l-41.05 20.5v.05l-2.05-1-16-8.05-.55-.25-1.35-.7-.05-17.35 18.05 9.05-.1 17.3.1-17.3 1.4.7 1.85-.9.2.15.5-.25.05 2.9v9.35l-.05 1.6h.05v1.6l2-.95 1.65-.8L-221 64.7V48.9l4-2v15.8l35-17.5V29.4l4-1.95V43.2l37-18.5-.05-14.85v-.9l4-2v.9l.05 14.85 32.3-16.2V-8.35M-260.55 66.7l-.05 1.1.05-1.15v.05" fill="#363041" fill-rule="evenodd" transform="translate(283.35 71.35)"/><path d="M-104.7-9.25v.9l-32.35 16.2v-.9l32.35-16.2M-256 66.4l35-17.5v.9L-255.3 67l-.7.3v-.9m39-19.5l35-17.5v.9l-35 17.5v-.9m39-19.45l36.95-18.5v.9L-178 28.3v-.85" fill="#ddddc8" fill-rule="evenodd" transform="translate(283.35 71.35)"/><path d="M-104.7-9.25l-32.35 16.2-4 2-36.95 18.5-4 1.95-35 17.5-4 2-35 17.5-2.75 1.35-1.85.9v-.85l.05-1.1v-.45l2.05-.95 1-.5 1-.5 155.3-77.65V-11l-1.45.75-2.05 1" fill="#d89c4b" fill-rule="evenodd" transform="translate(283.35 71.35)"/><path d="M-101.2-13.35L-256.5 64.3v-.05l-1 .55-1 .5-19.55-9.8 1.4-.7.6-.35 155.3-77.65 19.55 9.8v.05" fill="url(#v)" fill-rule="evenodd" transform="translate(283.35 71.35)"/><path d="M-258.5 87l-1.5-.8h-.05L-219 65.7l43.2-21.6v-.05l33.75-16.85 39.35-19.65 1.6.8-3.95 2-.05-.05-31 15.5v.05l-5.9 2.95-.05-.05-33.75 16.85v.1l-7.4 3.7-31 15.5-8.5 4.25-31 15.5v-.05l-4.8 2.4" fill="#935626" fill-rule="evenodd" transform="translate(283.35 71.35)"/><path d="M-247.5 92.5l-1.5-.75 2-1 24.3-12.15v1.5l-22.75 11.4h-.05l-2 1m142.4-72.75v1.5l-31 15.5v-1.5l31-15.5m-36.95 18.45v1.5l-33.75 16.85V55.1l33.75-16.9m-41.15 20.65v1.5l-31 15.5v-1.5l31-15.5" fill="#cc823e" fill-rule="evenodd" transform="translate(283.35 71.35)"/><path d="M-249 91.75l-1.5-.75 27.8-13.9v1.5L-247 90.75l-2 1m143.9-73.5v1.5l-31 15.5v-1.5l31-15.5m-36.95 18.45v1.5l-33.75 16.9v-1.55l33.75-16.85m-41.15 20.65v1.5l-31 15.5v-1.5l31-15.5" fill="#d18c4e" fill-rule="evenodd" transform="translate(283.35 71.35)"/><path d="M-250.5 91l-2.75-1.4 30.55-15.25v2.75L-250.5 91m145.4-75.5v2.75l-31 15.5V31l31-15.5m-36.95 18.45v2.75l-33.75 16.85V50.8l33.75-16.85M-183.2 54.6v2.75l-31 15.5V70.1l31-15.5" fill="#d39055" fill-rule="evenodd" transform="translate(283.35 71.35)"/><path d="M-253.25 89.6l-.45-.2v-4.75l31-15.5v5.2l-30.55 15.25m148.15-79.3v5.2l-31 15.5v-5.2l31-15.5m-36.95 18.45v5.2L-175.8 50.8V45.6l33.75-16.85M-183.2 49.4v5.2l-31 15.5v-5.2l31-15.5" fill="#d6945c" fill-rule="evenodd" transform="translate(283.35 71.35)"/><path d="M-242.3 32.25l-.3-.2.35.2h-.05" fill="url(#w)" fill-rule="evenodd" transform="translate(283.35 71.35)"/><path d="M-106.7-1.2q.3.65.3 1.55t-.3 1.55q-.35.65-.8.65-.45 0-.75-.65-.35-.65-.35-1.55t.35-1.55q.3-.65.75-.65t.8.65m-77.4 38.15q.3.65.3 1.55t-.3 1.55q-.35.65-.8.65-.45 0-.75-.65l-.35-1.55q0-.9.35-1.55.3-.65.75-.65t.8.65m8.9-5q.45 0 .8.65.3.65.3 1.55t-.3 1.55q-.35.65-.8.65-.45 0-.75-.65-.35-.65-.35-1.55t.35-1.55q.3-.65.75-.65m-78.5 39.7q.3-.65.75-.65t.8.65q.3.65.3 1.55t-.3 1.55q-.35.65-.8.65-.45 0-.75-.65l-.35-1.55q0-.9.35-1.55" fill="#666" fill-rule="evenodd" transform="translate(283.35 71.35)"/><path d="M-280 13.4v-.05l.95.5-.95-.45" fill="#b36f42" fill-rule="evenodd" transform="translate(283.35 71.35)"/><path d="M-255.05 80.05l.7-.35v1.65L-258 83.1v-1.6l2.85-1.4.1-.05" fill="#d2b335" fill-rule="evenodd" transform="translate(283.35 71.35)"/><path d="M-255.15 78.55l.1-.05v1.55l-.1.05-2.85 1.4v-1.6l2.85-1.35" fill="#dde1e0" fill-rule="evenodd" transform="translate(283.35 71.35)"/><path d="M-255.15 75.5v3.05L-258 79.9v-3.05l2.85-1.35" fill="#e7eae7" fill-rule="evenodd" transform="translate(283.35 71.35)"/><path d="M-255.3 69.2h.05l.1 6.3-2.85 1.35v-6.3l2.7-1.35" fill="#f1f1ef" fill-rule="evenodd" transform="translate(283.35 71.35)"/><path d="M-258.75 67.75l2.75-1.35v.9l.7-.3v2.2l-2.7 1.35-.05-2.9-.5.25-.2-.15" fill="#d3ccb4" fill-rule="evenodd" transform="translate(283.35 71.35)"/><path d="M182.15 58v-.05l-19.55-9.8L7.3 125.8l-.6.35-1.4.7 1.4-.7.6-.35m155.3-77.65v-13.6m79.35-14.4l-35.75 17.9-2.8 1.45v37l74-36.95v-.05m-1.2-.65l-1.55-.8m0-3.45L245.8 20.15m-39.6 17.9l-2.8 1.35v.1m73.9-.1l-1.1-.55m-1.55 5.5l1.3-.65.25-.1 1.2-.65v-3.4m2.25 10.35l-155.6 78-71.3 35.7-8.35 4.5-5.7-2.85-2.85-1.4-1.5-.75-1.5-.75-2.75-1.4-.45-.2-4.8-2.4-1.5-.8h-.05v.05l-2.05-1-16-8.05-.55-.25-1.35-.7-3.1-1.5M203.4 39.4V.25m0 76.25V80l71.25-35.65M203.4 80v3l71.25-35.6m-78.5 39.2l3.1 1.55m-3.1-1.55l-13.9-6.9m-1.6-.8l1.6.8m21.15 3.25l-7.25 3.65m-174.9 70l.1-17.3-18.05-9.05m19.5 7.35l-19.45-9.75-.05.05v2.35m18.05 9.05l1.4.7m-19.4-12.15l1.9-.95m0 21.65l-.55-.25m176-87.2v17.75" fill="none" stroke="#49250e" stroke-linecap="round" stroke-linejoin="round" stroke-width=".5"/><path d="M245.8 20.15q-.95.45-1.95.95l-1.9-.95" fill="none" stroke="#633612" stroke-linecap="round" stroke-linejoin="round" stroke-width=".5"/><path d="M196.15 86.6l-77.35 38.65 5.25 2.65M38.7 165.25l80.1-40" fill="none" stroke="#ac572f" stroke-linecap="round" stroke-linejoin="round" stroke-width=".5"/><path d="M176.65 70.15q.3.65.3 1.55t-.3 1.55q-.35.65-.8.65-.45 0-.75-.65-.35-.65-.35-1.55t.35-1.55q.3-.65.75-.65t.8.65m-77.4 38.15q.3.65.3 1.55t-.3 1.55q-.35.65-.8.65-.45 0-.75-.65l-.35-1.55q0-.9.35-1.55.3-.65.75-.65t.8.65m8.9-5q.45 0 .8.65.3.65.3 1.55t-.3 1.55q-.35.65-.8.65-.45 0-.75-.65-.35-.65-.35-1.55t.35-1.55q.3-.65.75-.65M29.65 143q.3-.65.75-.65t.8.65q.3.65.3 1.55t-.3 1.55q-.35.65-.8.65-.45 0-.75-.65l-.35-1.55q0-.9.35-1.55" fill="none" stroke="#000" stroke-linecap="round" stroke-linejoin="round" stroke-width=".5"/><path d="M178.65 62.1L146.3 78.3m32.35-16.2l2.05-1 1.45-.75V58l-155.3 77.65-1 .5-1 .5-2.05.95m-.05 1.55v.85l1.85-.9 2.75-1.35 35-17.5 4-2 35-17.5 4-1.95 36.95-18.5 4-2M22.75 139.15l.05-1.15v-.4" fill="none" stroke="#683a16" stroke-linecap="round" stroke-linejoin="round" stroke-width=".5"/><path d="M-242 38.95v1.85l-38-19v-1.9l30.6 15.3 7.4 3.75" fill="#b36f42" fill-rule="evenodd" transform="translate(283.35 71.35)"/><path d="M-249.4 35.2l1.15-.55 6.25 3.1v1.2l-7.4-3.75" fill="#cf8e38" fill-rule="evenodd" transform="translate(283.35 71.35)"/><path d="M118.8 125.25l-15.4-7.7" fill="none" stroke="#ac572f" stroke-linecap="round" stroke-linejoin="round" stroke-width=".5"/><path d="M33.95 106.55l1.15-.55 6.25 3.1v3.05l-38-19v-1.9l30.6 15.3 7.4 3.75" fill="none" stroke="#49250e" stroke-linecap="round" stroke-linejoin="round" stroke-width=".5"/><path d="M25.35 140L180.7 62.35" fill="none" stroke="#16151c" stroke-linecap="round" stroke-linejoin="round" stroke-width=".5"/><path d="M-278.85 80.8l-4.25-2.15V-16.5l43.85 22.05v95.05l-1.9-.95-37.7-18.85" fill-opacity=".424" fill-rule="evenodd" transform="translate(283.35 71.35)"/></g><g id="x"><path d="M10 38v4.2l-20 10V48l20-10m0 56.35V98l-20 10v-3.65l20-10" fill="#636" fill-rule="evenodd" transform="translate(10.5 -34.25)"/><path d="M10 42.2v2.65l-20 10V52.2l20-10m0 48.9v3.25l-20 10v-3.25l20-10m1.05 8.75Q11.2 101 10 102l-20 10q1.2-1 1.05-2.15l20-10" fill="#774f84" fill-rule="evenodd" transform="translate(10.5 -34.25)"/><path d="M.65 71.85q.55-.35.15-.25l-1.3.45q-1.25 2.85-4.1 6l1-.1 3.05-4.05 4.45-2.1-2.2 3.15-2.1.4-.7.9 5-.4.65-.6-1.95-.15q1.05-1.15 2.2-3.25 1.3-1.4-.35-.95H4.4L0 73l.65-1.15M7 52v35l-14 7V59l14-7" fill="#e2ddc2" fill-rule="evenodd" transform="translate(10.5 -34.25)"/><path d="M10 44.85V91.1l-20 10V54.85l20-10M10 98q.95.95 1.05 1.85l-20 10q-.1-.9-1.05-1.85l20-10M7 52l-14 7v35l14-7V52" fill="#76658f" fill-rule="evenodd" transform="translate(10.5 -34.25)"/><path d="M.65 71.85L0 73l4.4-2.1h.05q1.65-.45.35.95-1.15 2.1-2.2 3.25l1.95.15-.65.6-5 .4.7-.9 2.1-.4 2.2-3.15-4.45 2.1-3.05 4.05-1 .1q2.85-3.15 4.1-6l1.3-.45q.4-.1-.15.25" fill-rule="evenodd" transform="translate(10.5 -34.25)"/><path d="M-10 48L0 34.75 10 38v60q.95.95 1.05 1.85Q11.2 101 10 102l-20 10q1.2-1 1.05-2.15-.1-.9-1.05-1.85V48l20-10m0 60l-20 10" fill="none" stroke="#000" stroke-linecap="round" stroke-linejoin="round" transform="translate(10.5 -34.25)"/><path d="M7 52l-14 7v35l14-7V52" fill="none" stroke="#938744" stroke-linecap="round" stroke-linejoin="round" transform="translate(10.5 -34.25)"/></g><g id="y"><path d="M51.6 124.8q0 1.6-2.3 2.7-2.25 1.15-5.5 1.15t-5.55-1.15Q36 126.4 36 124.8t2.25-2.75q2.3-1.1 5.55-1.1t5.5 1.1q2.3 1.15 2.3 2.75" fill="#4e3d32" fill-opacity=".361" fill-rule="evenodd" transform="translate(-35.8 -102.7)"/><path d="M40.3 107l-.65-1.8q4.2-.75 7.45.45l.1-.1.1-.35q0-.55-1.1-.9l-2.7-.35-2.7.35q-1.15.35-1.15.9l-.15 1.45-.6-.7-.1-.2-.05-.45q0-.95 1.4-1.65 1.35-.7 3.3-.7 1.95 0 3.35.7 1.4.7 1.4 1.65l-.45 1.05-4.3.15h-.1l-.6.1-.25.05.05-.05-2.15.4h-.1m7.15 1.05l.45.3q2.65.45 3.2 3.15v.1q-.05 2.65-.55 4.85l-.1.35-1 1.75-.05.1q.8-2.4.6-4.3-.3-2.8-1.7-4.65-2.6-1.2-.85-1.65" fill="#614f41" fill-rule="evenodd" transform="translate(-35.8 -102.7)"/><path d="M39.5 106.65l.15-1.45q0-.55 1.15-.9l2.7-.35 2.7.35q1.1.35 1.1.9l-.1.35-.1.1q-3.25-1.2-7.45-.45l.65 1.8q-.35-.8-.8-.35" fill="#76614e" fill-rule="evenodd" transform="translate(-35.8 -102.7)"/><path d="M40.4 107l2.15-.4-.05.05.25-.05q-.3.05-.3.2l.65.4 1.6.2 1.6-.2.65-.4q0-.25-.45-.35l-1.2-.1-1.75.15h-.1l4.3-.15-.4 1.4.1.3q-1.75.45.85 1.65 1.4 1.85 1.7 4.65.2 1.9-.6 4.3-.5.8-.9 2.15l-.05.1v.05l.4.5q.4.55.5 1.75l-.95.7-2.45.4q-3.4.8-3.6-.9l3.45-1.55q-1.1.45-2.35-1.25-1.15-1.5-2.45-3.8-1.3-2.3.4-6.6l2.7-.8 1.6-.95q.9-.7-.65-.3-1.6.4-3.3-.7L40.4 107m2.1-.35l-.6.1.5-.05.1-.05m5.4 4.45q-.3-.55-.75-.55l-1.15.15q-.7.15-.5 1.2l.6 3.25q.35 2.2.9 1.05l.9-2 .3-1.65-.3-1.45m-4 11.65q-.5.2.1.4l1.5.15 1.6-.2.65-.65q0-.45-.45-.35l-1.1.25-1.2.2-1.1.2" fill="#725f49" fill-rule="evenodd" transform="translate(-35.8 -102.7)"/><path d="M39.5 106.65q.6-.1.75.4.15.5 1.05.75l.5.7q-.6.4-1.2 1.5-1.8 1.45-1.6 4.4.2 2.95 1.2 4.5 1 1.5.7 2.6-.35 1.15-1.05 1.85-.45.35-.65 1.15-1-.4-1.45-1.35 0-.75.25-1.3l.3-.5.4-.4v-.05l-.4-.55-.7-1.15-.15-.3-.8-2.2q-.6-2.25-.6-5.15v-.05q.45-2.55 3.2-3.15l.4-.25q.45-.25-.15-1.45" fill="#4e3d32" fill-rule="evenodd" transform="translate(-35.8 -102.7)"/><path d="M40.3 107h.1l1.35.45q1.7 1.1 3.3.7 1.55-.4.65.3l-1.6.95-2.7.8q-1.7 4.3-.4 6.6 1.3 2.3 2.45 3.8 1.25 1.7 2.35 1.25l-3.45 1.55q.2 1.7 3.6.9l2.45-.4q-2.1 1.1-4.55 1.4-2.5.3-4.65-.8.2-.8.65-1.15.7-.7 1.05-1.85.3-1.1-.7-2.6-1-1.55-1.2-4.5-.2-2.95 1.6-4.4.6-1.1 1.2-1.5l-.5-.7q-.9-.25-1.05-.75-.15-.5-.75-.4.45-.45.8.35" fill="#554637" fill-rule="evenodd" transform="translate(-35.8 -102.7)"/><path d="M42.75 106.6l.6-.1h.2l1.75-.15 1.2.1q.45.1.45.35l-.65.4-1.6.2-1.6-.2-.65-.4q0-.15.3-.2m5.15 4.5l.3 1.45-.3 1.65-.9 2q-.55 1.15-.9-1.05l-.6-3.25q-.2-1.05.5-1.2l1.15-.15q.45 0 .75.55m-4 11.65l1.1-.2 1.2-.2 1.1-.25q.45-.1.45.35l-.65.65-1.6.2-1.5-.15q-.6-.2-.1-.4" fill="#a48877" fill-rule="evenodd" transform="translate(-35.8 -102.7)"/><path d="M12.65 18.25l.4.5q.4.55.5 1.75M11.65 5.35l.3-1.7m-.3 1.7l.45.3q2.65.45 3.2 3.15v.1q-.05 2.65-.55 4.85l-.1.35-1 1.75-.05.1q-.5.8-.9 2.15l-.05.15" fill="none" stroke="#332724" stroke-linecap="round" stroke-linejoin="round" stroke-width=".5"/><path d="M11.95 3.65l.45-1.05q0-.95-1.4-1.65T7.65.25q-1.95 0-3.3.7-1.4.7-1.4 1.65l.05.45.1.2.6.7m-1.75 16.5q0-.75.25-1.3l.3-.5.4-.4v-.05l-.4-.55-.7-1.15-.15-.3-.8-2.2q-.6-2.25-.6-5.15V8.8q.45-2.55 3.2-3.15l.4-.25q.45-.25-.15-1.45M3.4 21.8q2.15 1.1 4.65.8 2.45-.3 4.55-1.4m.95-.7l-.95.7m-9.2.6q-1-.4-1.45-1.35" fill="none" stroke="#2b1f1e" stroke-linecap="round" stroke-linejoin="round" stroke-width=".5"/></g><g id="M" fill-rule="evenodd"><path d="M114.8 75.7l1.9-.95 1.1-.55v4.25L-40 157.3l-80-40.05V113l79.55 39.8.5.25L114.8 75.7" fill-opacity=".2" transform="translate(120 -33)"/><path d="M114.8 75.7h-.05L-40 153.05l-.45-.25L-120 113v-.05L39.9 33l77.9 39v2.2l-1.1.55-1.9.95" fill-opacity=".298" transform="translate(120 -33)"/></g><g id="z"><path d="M3.6-57.1l3.3-.4.65-.2-.1 3.7-.05.7-.3 3.65-.3 2.55-.15 1.15q-.4 3.45.2 5.05.7 1.9.55 10.25-.2 8.35.15 12.45.35 4.05-1.25 12.1-1.65 8.05-.75 13.15.9 5.05.25 9.9-.65 4.8 1.15 17.4-1.05 4 .2 2.95l.25 4.65-.5.15-3.3.4q-.6-.4-.1-6.7l.35-6.75q.05-4.25-.25-7.75l-.05-.6Q2.25 7 2.5-2.3q.1-3.95.9-13.55.75-8.5.7-13.8L3.65-41.2l-.1-3.2-.05-3.35v-3.6l.1-5.75m7.45 20.8l.1 1.7-.05-.65-.05-1.05" fill="#602d2d" fill-rule="evenodd" transform="translate(1.5 64.55)"/><path d="M3.6-57.1l-.1 5.75v3.6l.05 3.35.1 3.2.45 11.55q.05 5.3-.7 13.8-.8 9.6-.9 13.55-.25 9.3 1.05 23l.05.6q.3 3.5.25 7.75L3.5 35.8q-.5 6.3.1 6.7-2.4-.15-4.6-1.55V-42.1l3.4-1.7-.1-3.85q-2.5.1-3.3-1.45v-9.55q2.2 1.4 4.6 1.55" fill="#381b1b" fill-rule="evenodd" transform="translate(1.5 64.55)"/><path d="M7.4 41.95l-.25-4.65q-1.25 1.05-.2-2.95-1.8-12.6-1.15-17.4.65-4.85-.25-9.9-.9-5.1.75-13.15 1.6-8.05 1.25-12.1-.35-4.1-.15-12.45.15-8.35-.55-10.25-.6-1.6-.2-5.05l.15-1.15.3-2.55.3-3.65.05-.7.1-3.7.15-.05q3.15-1.1 3.3-3.15l-.1 22.85.15 1.75.05 1.05.05.65.05 1.55Q11.9-19.1 11 .5l-.15 9.8q-.15 6.95.15 11 .65 8.1 0 17.3-1.25 2.5-3.6 3.35" fill="#713f31" fill-rule="evenodd" transform="translate(1.5 64.55)"/><path d="M7.55-57.7l-.65.2-3.3.4q-2.4-.15-4.6-1.55v-.4l10-5q1.85.85 2 2.65v.5q-.15 2.05-3.3 3.15l-.15.05" fill="#431f1f" fill-rule="evenodd" transform="translate(1.5 64.55)"/><path d="M5.1 7.45L5 13.2v3.6l.05 3.35.1 3.2.45 11.55q.05 5.3-.7 13.8-.8 9.6-.9 13.55-.25 9.3 1.05 23l.05.6q.3 3.5.25 7.75L5 100.35q-.5 6.3.1 6.7" fill="none" stroke="#000" stroke-linecap="round" stroke-linejoin="round" stroke-width=".5"/><path d="M7.55-57.7l-.65.2-3.3.4m0 99.6l3.3-.4.5-.15m.3-99.7q3.15-1.1 3.3-3.15v-.5q-.15-1.8-2-2.65l-10 5v.4q2.2 1.4 4.6 1.55M-1-49.15v-9.5M11.15-34.6l.05 1.55Q11.9-19.1 11 .5l-.15 9.8q-.15 6.95.15 11 .65 8.1 0 17.3-1.25 2.5-3.6 3.35m3.75-76.55l-.05-.65-.05-1.05-.15-1.75.1-22.85M3.6 42.5q-2.4-.15-4.6-1.55V-42.1" fill="none" stroke="#000" stroke-linecap="round" stroke-linejoin="round" transform="translate(1.5 64.55)"/></g><g id="O"><path d="M-25-6.4l-3.5-3.15Q-19.55-20.1.55-25q19.6 4.15 28.8 15.5L27.7-8Q16.15 2.25.65 5.95-14.2 2.5-25-6.4m19.8-5.95q3.1-1.35 5.65 0v1.6-1.6q-2.55-1.35-5.65 0m11 0q-2.65-1.15-5.35 0v-2.15 2.15q2.7-1.15 5.35 0" fill="#493d83" fill-rule="evenodd" transform="translate(33.1 25.5)"/><path d="M27.7-8l2 2.7Q17.3 5.75 1.05 8.95l-.6-2.6L-.3 8.8l.75-2.45.6 2.6-.55.1-.8-.25Q-14.95 4.05-25-6.4-14.2 2.5.65 5.95 16.15 2.25 27.7-8" fill="#666" fill-opacity=".4" fill-rule="evenodd" transform="translate(33.1 25.5)"/><path d="M-25-6.4l-3.5-3.15Q-19.55-20.1.55-25q19.6 4.15 28.8 15.5L27.7-8Q16.15 2.25.65 5.95-14.2 2.5-25-6.4" fill="none" stroke="#000" stroke-linecap="round" stroke-linejoin="round" transform="translate(33.1 25.5)"/><path d="M32.65-9.85l-2.95.05 3.2 1.55M1.05 8.95l.2 1.05M-.3 8.8l.75-2.45.6 2.6M-.3 8.8l-.25.85M-29-9.5l-3.3 2.1m3.3-2.45l-3.6.7" fill="none" stroke="#493d83" stroke-linecap="round" stroke-linejoin="round" transform="translate(33.1 25.5)"/><path d="M33.55 11v2.15q2.7-1.15 5.35 0m-5.35 1.6v-1.6q-2.55-1.35-5.65 0" fill="none" stroke="#6a5bb3" stroke-linecap="round" stroke-linejoin="round" stroke-width=".5"/></g><use height="108" width="42.5" xlink:href="#b" id="B"/><use height="84.4" width="160.45" xlink:href="#c" id="C"/><use height="107.45" width="11.2" xlink:href="#f" id="E"/><use height="106.65" width="9.95" xlink:href="#g" id="F"/><use height="110.3" width="13.6" xlink:href="#h" id="G"/><use height="112.7" width="8.5" xlink:href="#j" id="H"/><use height="78.25" width="22.05" xlink:href="#x" id="K"/><use height="25.95" width="15.8" xlink:href="#y" id="L"/><use height="107.55" width="13.5" xlink:href="#z" id="N"/><radialGradient cx="0" cy="0" gradientTransform="matrix(.0772 0 0 .1016 -80 -59.3)" gradientUnits="userSpaceOnUse" id="a" r="819.2" spreadMethod="pad"><stop offset="0" stop-color="#fff"/><stop offset=".514" stop-color="#e9edf1"/><stop offset="1" stop-color="#e3e8e5"/></radialGradient><radialGradient cx="0" cy="0" gradientTransform="translate(-130.65 -37.4) scale(.0843)" gradientUnits="userSpaceOnUse" id="d" r="819.2" spreadMethod="pad"><stop offset="0" stop-color="#c87b31"/><stop offset="1" stop-color="#9d5322"/></radialGradient><radialGradient cx="0" cy="0" gradientTransform="translate(-211.75 13.9) scale(.0788)" gradientUnits="userSpaceOnUse" id="e" r="819.2" spreadMethod="pad"><stop offset="0" stop-color="#c87b31"/><stop offset="1" stop-color="#9d5322"/></radialGradient><radialGradient cx="0" cy="0" gradientTransform="matrix(.0295 -.0079 .022 .0822 -10.75 -18.75)" gradientUnits="userSpaceOnUse" id="i" r="819.2" spreadMethod="pad"><stop offset="0" stop-color="#c1723e"/><stop offset=".192" stop-color="#d68754"/><stop offset=".345" stop-color="#c9722c"/><stop offset=".514" stop-color="#bd7546"/><stop offset=".769" stop-color="#c86a2d"/><stop offset="1" stop-color="#985621"/></radialGradient><radialGradient cx="0" cy="0" gradientTransform="matrix(.0319 -.0079 .0238 .0823 -11.2 -19.15)" gradientUnits="userSpaceOnUse" id="k" r="819.2" spreadMethod="pad"><stop offset="0" stop-color="#c1723e"/><stop offset=".192" stop-color="#d68754"/><stop offset=".345" stop-color="#c9722c"/><stop offset=".514" stop-color="#bd7546"/><stop offset=".769" stop-color="#c86a2d"/><stop offset="1" stop-color="#985621"/></radialGradient><radialGradient cx="0" cy="0" gradientTransform="translate(-211.75 16.9) scale(.0788)" gradientUnits="userSpaceOnUse" id="w" r="819.2" spreadMethod="pad"><stop offset="0" stop-color="#c87b31"/><stop offset="1" stop-color="#9d5322"/></radialGradient><linearGradient gradientTransform="matrix(.0732 0 0 .0366 -62.4 -23.65)" gradientUnits="userSpaceOnUse" id="r" spreadMethod="pad" x1="-819.2" x2="819.2"><stop offset="0" stop-color="#723e25"/><stop offset=".145" stop-color="#5d3822"/><stop offset=".427" stop-color="#91523c"/><stop offset=".624" stop-color="#83442e"/><stop offset=".757" stop-color="#b56b3c"/><stop offset=".902" stop-color="#9c503a"/><stop offset="1" stop-color="#a76c3b"/></linearGradient><linearGradient gradientTransform="matrix(.0732 0 0 .0366 -62.4 -23.65)" gradientUnits="userSpaceOnUse" id="s" spreadMethod="pad" x1="-819.2" x2="819.2"><stop offset="0" stop-color="#723e25"/><stop offset=".145" stop-color="#5d3822"/><stop offset=".427" stop-color="#42291a"/><stop offset=".624" stop-color="#6b3c24"/><stop offset=".757" stop-color="#553120"/><stop offset=".902" stop-color="#593220"/><stop offset="1" stop-color="#542e1d"/></linearGradient><linearGradient gradientTransform="matrix(.0007 0 0 .0006 -6.55 -31.85)" gradientUnits="userSpaceOnUse" id="t" spreadMethod="pad" x1="-819.2" x2="819.2"><stop offset="0" stop-color="#723e25"/><stop offset=".145" stop-color="#5d3822"/><stop offset=".427" stop-color="#91523c"/><stop offset=".624" stop-color="#83442e"/><stop offset=".757" stop-color="#b56b3c"/><stop offset=".902" stop-color="#9c503a"/><stop offset="1" stop-color="#a76c3b"/></linearGradient><linearGradient gradientTransform="matrix(.0452 0 0 .0247 -43 -11.65)" gradientUnits="userSpaceOnUse" id="u" spreadMethod="pad" x1="-819.2" x2="819.2"><stop offset="0" stop-color="#723e25"/><stop offset=".145" stop-color="#5d3822"/><stop offset=".427" stop-color="#91523c"/><stop offset=".624" stop-color="#83442e"/><stop offset=".757" stop-color="#b56b3c"/><stop offset=".902" stop-color="#9c503a"/><stop offset="1" stop-color="#a76c3b"/></linearGradient><linearGradient gradientTransform="matrix(-.0632 0 0 -.0534 -189.7 20.55)" gradientUnits="userSpaceOnUse" id="v" spreadMethod="pad" x1="-819.2" x2="819.2"><stop offset=".035" stop-color="#d5a054"/><stop offset=".122" stop-color="#dfae60"/><stop offset=".184" stop-color="#e2b87e"/><stop offset=".729" stop-color="#c99045"/><stop offset="1" stop-color="#d5a054"/></linearGradient><path d="M0 14.95L30 0l16.85 8.4-30 15L0 14.95" fill="#232429" fill-opacity=".498" fill-rule="evenodd" id="l"/><path d="M18.7 2.15l4.05 11.6v13.9l.45.2L7.85 35.7 3.3 30.35l12.15-6.2-1.2-.55V5.15L18.45 2l.25.15" fill="#232429" fill-opacity=".498" fill-rule="evenodd" transform="translate(-3.3 -2)" id="p"/></defs><use height="351.65" transform="translate(3.25 16.25)" width="801.4" xlink:href="#A"/><use height="108" transform="matrix(.9999 0 0 1 683.403 235.9)" width="42.5" xlink:href="#B"/><use height="108" transform="matrix(.9999 0 0 1 563.403 175.9)" width="42.5" xlink:href="#B"/><use height="108" transform="matrix(.9999 0 0 1 443.403 115.9)" width="42.5" xlink:href="#B"/><use height="108" transform="matrix(.9999 0 0 1 323.403 55.9)" width="42.5" xlink:href="#B"/><use height="84.4" transform="matrix(.9999 0 0 1 203.81 123.5)" width="160.45" xlink:href="#C"/><use height="84.4" transform="matrix(.9999 0 0 1 283.81 163.5)" width="160.45" xlink:href="#C"/><use height="84.4" transform="matrix(.9999 0 0 1 123.81 163.5)" width="160.45" xlink:href="#C"/><use height="84.4" transform="matrix(.9999 0 0 1 364.11 203.5)" width="160.45" xlink:href="#C"/><use height="84.4" transform="matrix(.9999 0 0 1 443.81 243.5)" width="160.45" xlink:href="#C"/><use height="84.4" transform="matrix(.9999 0 0 1 203.81 203.5)" width="160.45" xlink:href="#C"/><use height="84.4" transform="matrix(.9999 0 0 1 284.11 243.5)" width="160.45" xlink:href="#C"/><use height="84.4" transform="matrix(.9999 0 0 1 524.11 283.5)" width="160.45" xlink:href="#C"/><use height="84.4" transform="matrix(.9999 0 0 1 604.11 323.5)" width="160.45" xlink:href="#C"/><use height="84.4" transform="matrix(.9999 0 0 1 44.11 203.5)" width="160.45" xlink:href="#C"/><use height="84.4" transform="matrix(.9999 0 0 1 363.81 283.5)" width="160.45" xlink:href="#C"/><use height="84.4" transform="matrix(.9999 0 0 1 444.11 323.5)" width="160.45" xlink:href="#C"/><use height="84.4" transform="matrix(.9999 0 0 1 524.11 363.5)" width="160.45" xlink:href="#C"/><use height="84.4" transform="matrix(.9999 0 0 1 124.11 243.5)" width="160.45" xlink:href="#C"/><use height="84.4" transform="matrix(.9999 0 0 1 204.41 283.5)" width="160.45" xlink:href="#C"/><use height="84.4" transform="matrix(.9999 0 0 1 284.41 323.5)" width="160.45" xlink:href="#C"/><use height="84.4" transform="matrix(.9999 0 0 1 364.11 363.5)" width="160.45" xlink:href="#C"/><use height="84.4" transform="matrix(.9999 0 0 1 444.11 403.5)" width="160.45" xlink:href="#C"/><use height="361.4" transform="translate(0 8.7)" width="763.8" xlink:href="#D"/><use height="107.45" transform="matrix(.9999 0 0 1 481.6 120.8)" width="11.2" xlink:href="#E"/><use height="107.45" transform="matrix(.9999 0 0 1 555.65 157.95)" width="11.2" xlink:href="#E"/><use height="107.45" transform="matrix(.9999 0 0 1 721.6 240.5)" width="11.2" xlink:href="#E"/><use height="107.45" transform="matrix(.9999 0 0 1 315.6 37.95)" width="11.2" xlink:href="#E"/><use height="106.65" transform="matrix(.9999 0 0 1 238.9 0)" width="9.95" xlink:href="#F"/><use height="110.3" transform="matrix(.9999 0 0 1 516.6 137.6)" width="13.6" xlink:href="#G"/><use height="112.7" transform="translate(756.05 257.35)" width="8.5" xlink:href="#H"/><use height="110.3" transform="matrix(.9999 0 0 1 274.55 16.7)" width="13.6" xlink:href="#G"/><use height="64.6" transform="matrix(-.9999 0 0 1 557.146 214.1)" width="58.25" xlink:href="#I"/><use height="171.95" transform="translate(0 75.6)" width="280.95" xlink:href="#J"/><use height="78.25" transform="matrix(1 0 0 1.0007 199.35 33.473)" width="22.05" xlink:href="#K"/><use height="25.95" transform="translate(220.15 99.55)" width="15.8" xlink:href="#L"/><use height="124.3" transform="translate(163.35 179.95)" width="237.8" xlink:href="#M"/><use height="107.55" transform="translate(193.65 58.1)" width="13.5" xlink:href="#N"/><use height="112.7" transform="matrix(-.9999 0 0 1 48.6 135.2)" width="8.5" xlink:href="#H"/><use height="36" width="66.5" xlink:href="#O" transform="translate(530.005 381.525)"/><use height="36" width="66.5" xlink:href="#O" transform="translate(569.94 361.646)"/><use height="36" width="66.5" xlink:href="#O" transform="translate(569.949 321.847)"/><use height="36" width="66.5" xlink:href="#O" transform="translate(530.017 301.906)"/><use height="36" width="66.5" xlink:href="#O" transform="translate(450.293 301.852)"/><use height="36" width="66.5" xlink:href="#O" transform="translate(410.256 321.652)"/><use height="36" width="66.5" xlink:href="#O" transform="translate(410.216 361.942)"/><use height="36" width="66.5" xlink:href="#O" transform="translate(450.14 381.671)"/><use height="36" width="66.5" xlink:href="#O" transform="translate(250.623 281.859)"/><use height="36" width="66.5" xlink:href="#O" transform="translate(290.34 261.802)"/><use height="36" width="66.5" xlink:href="#O" transform="translate(330.492 242.062)"/><use height="36" width="66.5" xlink:href="#O" transform="translate(130.894 221.989)"/><use height="36" width="66.5" xlink:href="#O" transform="translate(170.474 201.674)"/><use height="36" width="66.5" xlink:href="#O" transform="translate(210.659 181.906)"/><use height="36" width="66.5" xlink:href="#O" transform="translate(250.532 161.805)"/><path d="M273.696 104.416l-2 1.1-2.75-3.15.25-.25.2-.2-1-1.1-.1-.15q-1.4-1.85-1.4-4l.05-1q.2-1.25.9-2.35l1.55-1.9-.5-.5 2.4-3.15.6.3 4-8.75 4 8.75.5-.2.3-.15 2.15.6v.35h4.2v-.3l1-.2-.15.45h.55l.3-.55 1.75-.35.75.35 4-8.75 4 8.75.5-.25 1.35 2.25.65 1-.1.1-.25.25.25.2-.15.15.1.1 1.2 1.45q.95 1.45 1.1 3.1l.05.6-.15 1.25-.05.3-1 2.1-1.35 1.45.15.1-.05.05.25.25-3.1 1.75-3.45 3.65-.1-.05-.85.75-.25.25-.05.05-1.55.65h-1.2l-1.95 4.85-2-4.85H286.046v.05l-9.65-2.55-.05-.05-.25-.3-2.4-2.3m13.85-9.5q-2.1 2.1-2.2 4.25v.25q0 1.4.6 1.95.6.5 1.55.55.9-.05 1.6-.6l.55-.65.55.75q.55.45 1.6.5 1.15 0 1.95-.7.8-.75 1.05-2.05l.15-1.35q-.05-1.6-.6-2.9l-1 .2q.4 1.15.45 2.7l-.15 1.35q-.2.9-.7 1.4-.55.45-1.2.45-.65-.05-1.05-.35-.4-.35-.4-.85l.4-.65.1-.3.3-1.4q-.05-1.05-.45-1.05t-.75.7l-.5 1.3-.05.75.05.5-.7.95q-.55.4-1.2.45-.5-.05-.85-.3-.3-.3-.3-1.35v-.25q.15-1.8 2.1-3.8l-.9-.45m11.1 2.8h2.35v-2.35h-2.35v2.35m-23.05-7.25l-2.1 2.4h1.3l2.75-2.4h-1.95m5.9 4.9h-2.35v2.35h2.35v-2.35" fill="#fff"/><path d="M288.446 88.616h-.55l.15-.45.4-1h-.55v-1.2h1.3v1.2l-.45.9-.3.55m2.05-.9l-.3-.15 5.05-10.95 5.05 10.95-.55.25-.5.25-4-8.75-4 8.75-.75-.35m11 14.55l.05-.05 1.35-1.65.25-.45.6-1.55.05-.3.15-1.25-.05-.6q-.15-1.65-1.1-3.1l-1.2-1.45-.1-.1.15-.15.2-.25.35-.35 1.85 2.3q.8 1.45.9 3.1l.05.6q0 1.9-.9 3.55-.7 1.25-1.9 2.4l-.45-.45-.25-.25m-6.3 5.65q4.35 2.8 6.35 5.6l-.3.25-.3.25-.75.65q-2.15-3-6.25-5.75l.05-.05.25-.25.85-.75.1.05m11.95 9.3l-2.75-2.4.55-.7.3-.4q1.7 1.05 2.85 2.35l-.25.3-.25.3-.45.55m-4.2 11.95q3.1-2.6 4.25-8.95l.55.25.15.1.4.2q.4.2 0 .3-1.1 6.2-4.45 9.25l-.55-.7-.35-.45m-6.7 17.25v-13.9h1.1v13.9h-1.1m-6.95-11.4h.65V147.366h-1.05v-12.35h.4m-21.15 10.2l-.1.15-.5-.4 6-10.7.15.1.35.25-5.75 10.35-.15.25m6.95-15.7l-.1-.2-.15-.15q1.65-1.35 2.75-3.7.95-2.2 1.5-5.25l1.15.55q.4.2 0 .3l-.55 2.5-.05.1-.6 1.8-.25.6-.15.3-.05.1q-1.05 2.1-2.55 3.6l-.05.05-.2.2h-.05l-.65-.8m-14.5-7.35l4.4 3.3 2.05 2.35-.7.6-.05.05-.05.05-.55.45q-1.25-1.8-3.25-3.5l-3-2.25.5-.45.65-.6m-.4-6.4h-1.3v-1.2h1.3V115.766m1.75-.6l-.35-.3q2.45-1.25 4.15-3.25l1.1-1.55q1-1.75 1.65-4.2l1.1.5.3.15h.05l.2.15q0 .15-.35.3l-1.35 3.1-1.2 1.9q-1.8 2.35-4.35 3.95l-.55-.45-.4-.3m7.25-13.05l-.55.5-.4-.35-.6-.7-.65-.9q-1.15-1.8-1.15-4l.05-1q.15-1.25.7-2.35.7-1.4 2.05-2.65l.25.25.5.5-1.55 1.9q-.7 1.1-.9 2.35l-.05 1q0 2.15 1.4 4l.1.15 1 1.1-.2.2m11.2-14.25l-.5.2-4-8.75-4 8.75-.6-.3-.45-.2 5.05-10.95 5.05 10.95-.25.15-.3.15m2.45.45v-.3h4.2V88.666h-4.2v-.35m5.6 7.05q-1.95 2-2.1 3.8v.25q0 1.05.3 1.35.35.25.85.3.65-.05 1.2-.45l.7-.95-.05-.5.05-.75.5-1.3q.35-.7.75-.7t.45 1.05l-.3 1.4-.1.3-.4.65q0 .5.4.85.4.3 1.05.35.65 0 1.2-.45.5-.5.7-1.4l.15-1.35q-.05-1.55-.45-2.7l1-.2q.55 1.3.6 2.9l-.15 1.35q-.25 1.3-1.05 2.05-.8.7-1.95.7-1.05-.05-1.6-.5l-.55-.75-.55.65q-.7.55-1.6.6-.95-.05-1.55-.55-.6-.55-.6-1.95v-.25q.1-2.15 2.2-4.25l.9.45m10.2 0h2.35v2.35h-2.35v-2.35m-6.25 14.2l-2.75 6.55-.65 1.15q-.45.45-1.1.45l-.95-.2v-1.05l.9.2.5-.2.35-.6-2.65-6.25v-.05H287.246l2 4.85 1.95-4.85h1.2m3.7 20.5v-9.35h1.05v9.35H296.096m-7.55-6.5v-.45h6.2V123.966h-6.2v-.4m-7-.45h6.2V123.966h-6.2V123.116m1.05 4.2h-1.05V126.466h6.2V127.316h-5.15m5.95 0V126.466h6.2V127.316H288.546m-11-36.85l-2.75 2.4h-1.3l2.1-2.4h1.95m3.95 7.25h-2.35v-2.35h2.35v2.35"/><path d="M293.996 108.866l-.05.05.05-.05" fill="#006"/><path d="M274.596 129.366l-1.1.05 1.1-.05m-2.4.1v.05l-1.55.1v-.05l1.55-.1" fill="#333"/><path d="M297.346 132.516l.05.15h-.05v-.15m-22.5-3.35l.15.15H274.846v-.15" fill="#99f"/><path d="M273.496 129.416l-1.3.05-1.55.1-1.3-.05-1.3-.5-1.7-.6.7-.6-2.05-2.35-4.4-3.3-.65.6-.5-7h.75v-.65l1.75.05.4.3.55.45q2.55-1.6 4.35-3.95l1.2-1.9 1.35-3.1q.35-.15.35-.3l-.2-.15v-.05l1.75-.95 2-1.1 2.4 2.3.25.3.05.05 9.65 2.55 2.65 6.25-.35.6-.5.2-.9-.2v1.05l.95.2q.65 0 1.1-.45l.65-1.15 2.75-6.55 1.55-.65q4.1 2.75 6.25 5.75l.75-.65.3-.25 3.7.35-.55.7 2.75 2.4.45-.55.15 3.8-.55-.25q-1.15 6.35-4.25 8.95l.35.45-5.9 3.05-.05-.15h-.65l-.25-2.45h.7v-9.35h-1.05v2.85h-1.35v-.45h-6.2v.45h-.8v-.45h-6.2v.45h-1.85l.55-2.5q.4-.1 0-.3l-1.15-.55q-.55 3.05-1.5 5.25-1.1 2.35-2.75 3.7v.15l-.25.05-1.1.05m22.2 17.4l-.8.5h-2.25l-1.1-20h2.4l1.75 19.5m-6.8-11.8v12.1l-3.1-.3.15-19.5h1.8v-.45h.8v.45h.65l.1 7.7h-.4m-7.1 11.45l-4.7-.45 2.35-19.5 2.1.35v.45h1.05l-.8 19.15m-13.5-1.5l5.75-10.35-.35-.25.05-.05 1.35-4.8.65.8h.05l-2.95 15.3-4.7-.4.15-.25" fill="#666"/><path d="M293.946 127.316h.8v-.45h1.35v3.2h.35l.25 2.45h-.45V146.466l-.55.35-1.75-19.5m-4 7.7h-.65l-.1-7.7h2.35l1.1 20h-2.7v-12.3m-4-7.7l-.15 19.5-4-.35.8-19.15h3.35m-8.85 18.7l-4.25-.4 2.95-15.3.2-.2.05-.05q1.5-1.5 2.55-3.6l.05-.1.55.1.25.05-2.35 19.5" fill="#999"/><path d="M296.096 126.866h-1.35v-.4h-6.2v.4h-.8v-.4h-6.2v.4l-2.1-.35-.25-.05-.55-.1.15-.3.25-.6.6-1.8.05-.1h1.85v.4h6.2v-.4h.8v.4h6.2v-.4h1.35v3.3" fill="#ba402e"/><path d="M301.646 91.166l.2.2m-.2-.2l-.55-1.1" fill="none" stroke="#000" stroke-linecap="round" stroke-linejoin="round" stroke-miterlimit="3"/><path d="M296.696 146.416h-.4l-.05.05-.55.35-.8.5h-4.95m-1.05-.2l-3.1-.3-4-.35-4.7-.45-4.25-.4-4.7-.4m-.1.15l-.5-.4m7.45-15.65h-.05m-.35.05l-1.1.05-1.3.05-1.55.1-1.3-.05-1.3-.5-1.75-.55m27.6-1.6l.05.45 1.75 19.5m-4.15-19.5l1.1 20m-1.1-20l-.05-.45m-5.55.45l-.15 19.5m-10-16.5l-2.95 15.3m4.25.4l2.35-19.5m2.35 19.95l.8-19.15M287.046 88.366l1-.2.7-.1 1.75-.35m10.45 26.3l.3-.25 3.7.35m2.9 2.25l-.25.3.15 3.8.15.1m-34.2 13.8l.05-.05 1.35-4.8m-.15-.2h-.1m-8.55-.85l-.05.05m-6.3-5.75l-.5-7h-.05m.8-.7v.05l1.75.05m18.75-27.45l2.15.6m11.1 20.6l-1.55.65m-6.35.05l-9.65-2.55-.05-.05h-.35m17.95 1.9l.05-.05.25-.25m-8.2 1l.55-.05m5.4 0H292.396m-3.85 14H297.146m-8.6 0h-.8m-6.2 0h-1.85l-.05.1m-1 2.7l.55.1.25.05 2.1.35m6.2 0h.8m6.2 0h1.85m-1.85 0h-.85m2.8 5.65l.05.4.6-.25m-1.1 13.45v.05m-7.05-18.85l.1 7.7m2.2-8.15h-2.95m2.95 0h2.4m-.45 0v.45m-11.9-3.75h6.2m-7.05-35.85l-.3.15m-18.05 27.6l-.4-.3m8.2-8.5l-.3-.15-.25-.15m11.95 20.55v-.05m-2.9-.5l-.05.1m-2.6 3.65l.2-.5.25-.75m-.4 1.2l.15-.45m-9.9-1.15l.05-.05" fill="none" stroke="#000" stroke-width=".1" stroke-linecap="round" stroke-linejoin="round" stroke-miterlimit="3"/><path d="M269.846 106.516h.05l.05-.05 1.75-.95 2-1.1 2.4 2.3.3.35" fill="none" stroke="#1e1e3e" stroke-width=".1" stroke-linecap="round" stroke-linejoin="round" stroke-miterlimit="3"/><g><path d="M395.58 211.575l4.8-1.35.05 1.7.05 3.95-.1 1.85-4.85 2.35q-.95-3.2-3-6l3.05-2.5m4.95 10.1v4.4l-4.9 2.45-.05-4.35v-.05l4.95-2.45m-5-1.55h-.1l.1-.05v.05" fill="#311a0f" fill-rule="evenodd"/><path d="M395.63 228.525l-.2.1-4.9-2.4v-4.4l4.9 2.35h.15l.05 4.35m-4.7-10.6l-.2-.3-.2-.25q-.6-3.6-2.95-5.45l4.95 2.15q2.05 2.8 3 6l-.1.05-4.5-2.2" fill="#61392c" fill-rule="evenodd"/><path d="M390.53 221.825v-.45q1.5-1.5.4-3.45l4.5 2.2.1.25.05 3.75-.15.05-4.9-2.35" fill="#462920" fill-rule="evenodd"/><path d="M400.38 217.725q-.95 2.05.15 3.65v.3l-4.95 2.45-.05-3.75v-.3l4.85-2.35" fill-rule="evenodd"/><path d="M395.53 220.375l-.1-.25h.1v.25" fill="#5c3636" fill-rule="evenodd"/><path d="M400.38 210.225l.05 1.7.05 3.95-.1 1.85q-.95 2.05.15 3.65m0 .3v4.4l-4.9 2.45-.2.1-4.9-2.4v-4.4m0-.45q1.5-1.5.4-3.45l-.2-.3m1.8-3.55l3.05-2.5m-.05 8.8v-.25m-.1 0l.1-.05q-.95-3.2-3-6m3 6v.05m.05 4l-.15.05" fill="none" stroke="#000" stroke-linecap="round" stroke-linejoin="round"/><path d="M400.53 221.375v.3m-10 .15v-.45m.2-3.75l-.2-.25q-.6-3.6-2.95-5.45m8 12.25v-.05m0 .05l.05 4.35" fill="none" stroke="#442e09" stroke-linecap="round" stroke-linejoin="round"/><path d="M400.43 211.925l-6 3" fill="none" stroke="#4d2c0b" stroke-linecap="round" stroke-linejoin="round"/><path d="M400.43 212.425l-6 3" fill="none" stroke="#5d3822" stroke-linecap="round" stroke-linejoin="round"/></g><use height="36" width="66.5" xlink:href="#O" transform="translate(370.305 221.933)"/><g><path d="M511.673 438.994l-20 10 7.65 3.8-34.9.25v-17.4l7.45 3.45 19.95-10 19.85 9.9" fill="#fc6" fill-opacity=".6"/><path d="M491.823 429.094l-19.95 10-7.45-3.45v17.4l34.9-.25-7.65-3.8 20-10z" fill="none" stroke="#f60" stroke-linecap="round" stroke-linejoin="round" stroke-miterlimit="3" stroke-opacity=".6"/></g></svg>