<svg width="160" height="182" xml:space="preserve" style="fill-rule:evenodd;clip-rule:evenodd;stroke-linecap:round;stroke-linejoin:round;stroke-miterlimit:1.5" xmlns="http://www.w3.org/2000/svg"><defs><filter id="a" x="0" width="1" y="0" height="1" color-interpolation-filters="sRGB"><feGaussianBlur/></filter></defs><path d="m78.732 84.618-12.08.16s-2.08 2.64.16 4l12.72-.48-.8-3.68Z" style="fill:#732700;stroke:#732700;stroke-width:1px" transform="scale(-1 1) rotate(-17.001 -20.842 715.571)"/><path d="M71.783 84.345s-1.376 2.13.066 4.653l2.195-.065s-1.802-2.032-.098-4.555l-2.163-.033Z" style="fill:#fe0;stroke:#fe0;stroke-width:.35px" transform="matrix(-1.07019 -.38144 -.40075 .93817 228.017 33.336)"/><path d="m58.358 66.022-1.446 2.354-4.134 5.647-1.373 6.522-4.509 2.383-1.121 5.59 3.719 4.748 5.625 5.372 3.498 10.06-.189 5.69.331 4.6.54 1.611.629 1.467.461.816-.942 1.961.111 10.928 2.073 3.443 4.053 1.501 3.266-1.269 1.894-3.041.84-12.854-1.379-.619 6.109-1.424 11.663-.023 5.318 1.415-.995 1.1.266 8.853.29 3.401 1.724 3.292 3.534.704 2.849-.376 2.782-3.047 1.06-5.79-.397-7.27-1.183-.829 1.149-9.779.017-4.19 3.906-10.165 6.924-6.995 2.459-4.561-.29-4.465-4.523-2.158.008-3.067-.969-3.683-2.254-4.107-1.983-1.65-2.819-1.392-8.527-18.031-1.081 1.019-8.066 16.617-11.82.174-8.575-17.368-1.195 1.257-7.328 15.628Z" style="fill:#fff;fill-rule:nonzero"/><path d="M59.251 123.818s7.475-2.816 12.339.307v10.65l-1.28 3.584-2.867 2.355h-3.994l-3.43-2.611-.922-8.192.154-6.093Z" style="fill:#ff0100;stroke:#000;stroke-width:1.15px"/><path d="M59.251 123.818s7.475-2.816 12.339.307v10.65l-1.28 3.584-2.867 2.355h-3.994l-3.43-2.611-.922-8.192.154-6.093Z" style="fill:#ff0100;stroke:#000;stroke-width:1.15px" transform="translate(33.075 -.051)"/><path d="M58.732 115.418c.64.64 9.6.16 13.36 7.36 0 0 10.4 3.36 20.48.16 0 0 2.464-6.88 11.584-7.44l.336-4.352-46.24.032s-.16 3.6.48 4.24Z" style="fill:red;stroke:#000;stroke-width:1px"/><path d="m52.61 100.718-.24 7.04s6.8 1.28 24.48 1.36c0 0 16.24-.08 27.52-1.68l.266-7.857s-14.746.817-27.866.577c0 0-22.4 0-24-.32l-.16.88Z" style="stroke:#000;stroke-width:1.18px" transform="matrix(.89433 0 0 .79206 11.03 29.69)"/><g transform="matrix(.86034 0 0 .86033 16.197 22.145)"><circle cx="73.59" cy="101.858" r=".58" style="fill:none;stroke:#fe0;stroke-width:.67px"/><circle cx="73.59" cy="101.858" r=".58" style="fill:none;stroke:#fe0;stroke-width:.67px" transform="translate(0 2)"/><circle cx="73.59" cy="101.858" r=".58" style="fill:none;stroke:#fe0;stroke-width:.67px" transform="translate(0 4)"/><circle cx="73.59" cy="101.858" r=".58" style="fill:none;stroke:#fe0;stroke-width:.67px" transform="translate(0 6)"/><circle cx="73.59" cy="101.858" r=".58" style="fill:none;stroke:#fe0;stroke-width:.67px"/><circle cx="73.59" cy="101.858" r=".58" style="fill:none;stroke:#fe0;stroke-width:.67px" transform="translate(2)"/><circle cx="73.59" cy="101.858" r=".58" style="fill:none;stroke:#fe0;stroke-width:.67px" transform="translate(2 2)"/><circle cx="73.59" cy="101.858" r=".58" style="fill:none;stroke:#fe0;stroke-width:.67px" transform="translate(2 4)"/><circle cx="73.59" cy="101.858" r=".58" style="fill:none;stroke:#fe0;stroke-width:.67px" transform="translate(2 6)"/><circle cx="73.59" cy="101.858" r=".58" style="fill:none;stroke:#fe0;stroke-width:.67px" transform="translate(2)"/><circle cx="73.59" cy="101.858" r=".58" style="fill:none;stroke:#fe0;stroke-width:.67px" transform="translate(4)"/><circle cx="73.59" cy="101.858" r=".58" style="fill:none;stroke:#fe0;stroke-width:.67px" transform="translate(4 2)"/><circle cx="73.59" cy="101.858" r=".58" style="fill:none;stroke:#fe0;stroke-width:.67px" transform="translate(4 4)"/><circle cx="73.59" cy="101.858" r=".58" style="fill:none;stroke:#fe0;stroke-width:.67px" transform="translate(4 6)"/><circle cx="73.59" cy="101.858" r=".58" style="fill:none;stroke:#fe0;stroke-width:.67px" transform="translate(4)"/><circle cx="73.59" cy="101.858" r=".58" style="fill:none;stroke:#fe0;stroke-width:.67px" transform="translate(6)"/><circle cx="73.59" cy="101.858" r=".58" style="fill:none;stroke:#fe0;stroke-width:.67px" transform="translate(6 2)"/><circle cx="73.59" cy="101.858" r=".58" style="fill:none;stroke:#fe0;stroke-width:.67px" transform="translate(6 4)"/><circle cx="73.59" cy="101.858" r=".58" style="fill:none;stroke:#fe0;stroke-width:.67px" transform="translate(6 6)"/><circle cx="73.59" cy="101.858" r=".58" style="fill:none;stroke:#fe0;stroke-width:.67px" transform="translate(6)"/></g><path d="m55.79 93.453 1.672 1.96-3.569 3.168-2.525 2.463-1.609 1.658-1.42 1.766-.842 1.603-.342 1.341-.065 1.246.173.821.527.929.703.951.907.658 1.557.436s1.143.231 1.327.231c.184 0 1.511-.265 1.511-.265l1.404-.516 1.449-.861 1.604-1.6 1.418-1.988s1.049-1.701 1.122-1.84c.074-.14.354-.624.354-.624l1.897 2.024-1.343 2.022-1.376 1.719-1.14.966-2.608 1.998-1.715.765-1.321.265-2.153.095-1.868-.311s-1.372-.636-1.542-.682c-.17-.046-1.435-1.295-1.435-1.295l-.961-1.506-.515-1.416-.001-1.372.172-1.621.45-1.321.874-1.526 1.092-1.78 1.746-1.959 2.088-2.226 1.909-1.944 2.394-2.432Z" style="fill-rule:nonzero" transform="matrix(1 0 0 -1 0 194.297)"/><path d="m52.87 82.598-.204-3.686 6.195-.512 6.758 8.96-2.969 3.789-6.912-5.428-2.868-3.123Z" style="fill:#fff" transform="translate(.232)"/><path d="M97.049 73.561H95.3l2.64-4.23h2.839l-3.73 4.23Zm6.693-6.072 2.398-1.113-10.167-21.891-9.744 20.992-9.803.005-9.705-20.953-9.979 21.65 2.37 1.171 7.595-17.034 7.868 17.26 13.611-.212 7.781-17.199 7.775 17.324Zm4.032.09 3.162 3.641 1.789 3.046.873 2.638.172 1.791.048 2.78-.413 2.408s-.591 1.647-.97 2.434a14.584 14.584 0 0 1-1.002 1.762c-.676 1.017-1.45 1.967-2.234 2.902-.461.551-1.452 1.593-1.452 1.593l-1.717-1.326 2.199-2.231 1.56-2.06 1.156-2.311.593-2.089.214-2.248-.187-2.747-.778-2.7-1.03-1.794-1.371-1.681-2.368-2.512 1.756-1.296Z" style="fill-rule:nonzero"/><path d="m110.861 80.418 3.968.96-2.112 9.344-6.272 4.672-3.2-4.032 5.632-6.208 1.984-4.736Z" style="fill:#fff"/><path d="m104.481 95.008 1.671-2.075 4.639 4.685 2.998 3.329 1.594 2.292 1.325 2.449.341 1.934-.157 1.954-.733 1.512-1.013 1.403-1.608 1.124-1.358.608-2.137.433-1.635-.057-1.89-.623-1.81-1.201-2.289-1.899-1.475-1.557 1.768-1.791 1.546 2.11 1.483 1.402 1.749.966 1.37.357 1.544-.02 1.448-.389 1.274-.76.822-.843.833-1.427.248-1.12-.266-1.631-.611-1.371-1.204-1.828-1.279-1.45-1.431-1.509-2.044-1.797-2.34-1.979-1.373-1.231Z" style="fill-rule:nonzero" transform="matrix(1 0 0 -1 2 193.589)"/><path d="m56.736 92.787 1.792-1.192-2.506-2.74-1.875-2.971-.74-2.087-.337-1.701-.069-2.186.134-2.571.509-2.214 1.17-2.263 1.29-1.599 1.381-1.689 1.136-1.125-1.636-1.324-1.402 1.532-1.622 1.888-1.104 1.81-1.24 2.65-.716 2.396-.118 1.844-.02 2.021.132 1.423.721 2.529.859 1.942 1.358 2.062s1.015 1.38 1.558 2.041c.43.523 1.345 1.524 1.345 1.524Zm46.589 30.151v11.121l-.421 1.803-.859 1.566-.95.926-1.282.706-1.097.155-1.452-.063-1.46-.547-1.141-.988-.653-1.364-.528-1.767-.087-1.365V122.9h-2.39v11.123l.18 1.686.606 1.731.857 1.545 1.094 1.125 1.154.954 1.45.563 1.751.292 1.507-.076 1.246-.437 1.262-.703 1.636-1.42 1.063-1.702.609-1.886.265-1.996v-10.764l-2.36.003Zm-33.02-.006v10.78l-.412 1.986-.911 1.811-1.277 1.25-1.385.482-2.385-.023-1.211-.591-1.144-1.169-.793-1.72-.398-1.466v-11.39h-2.408v11.019l.231 1.655.39 1.337.671 1.557.906 1.076 1.173 1.105 1.076.529 1.325.61 1.521.184 1.556-.24 1.514-.502 1.822-1.342 1.201-1.467.858-2.074.484-2.285v-11.135l-2.404.023Z" style="fill-rule:nonzero"/><path d="M103.532 77.366c2.012.598 4.169.324 5.246-.469" stroke-width="3" id="gikopoipoi_eyes_closed" style="display:none;stroke-width:2.14607;stroke-dasharray:none" fill="none" stroke="#000" stroke-linecap="round" stroke-linejoin="round"/><circle cx="106.129" cy="76.682" r="2.118" opacity=".99" filter="url(#a)" id="gikopoipoi_eyes_open" style="display:inline"/></svg>