<svg width="160" height="182" xmlns="http://www.w3.org/2000/svg" xml:space="preserve" style="fill-rule:evenodd;clip-rule:evenodd;stroke-linecap:round;stroke-linejoin:round;stroke-miterlimit:1.5"><path d="m78.732 84.618-12.08.16s-2.08 2.64.16 4l12.72-.48-.8-3.68Z" style="fill:#732700;stroke:#732700;stroke-width:1px" transform="scale(-1 1) rotate(-17.001 -37.569 713.071)"/><path d="M71.783 84.345s-1.376 2.13.066 4.653l2.195-.065s-1.802-2.032-.098-4.555l-2.163-.033Z" style="fill:#fe0;stroke:#fe0;stroke-width:.35px" transform="matrix(-1.07019 -.38144 -.40075 .93817 228.017 28.336)"/><path d="m56.323 85.554.314-.815-3.807-6.035-1.438-4.56 1.373-6.522 4.135-5.647 1.446-2.354 7.328-15.627 1.194-1.258 8.576 17.368 11.82-.173 8.065-16.618 1.081-1.018 8.527 18.03 2.819 1.392 1.711 1.861 2.526 3.897.969 3.683-.132 6.317-3.978 6.408-2.835.964-1.342 2.107 6.103 8.451 1.311 6.64-3.362 3.071-6.917.982 2.141 1.432 2.781 2.534 2.789 4.482-.357 5.985-3.313 2.639-1.677.216H61.582s-5.409-1.873-8.293-6.778c-1.837-3.126-1.045-12.87-1.045-12.87l-.565-6.189 6.837-12.354-2.599-.362 50.1.014" style="fill:#fff;fill-opacity:.99;fill-rule:nonzero"/><path d="M103.67 107.098s-6.889 7.556-1.889 16.334l-41.334-.223s-9.222-3.222-8.333-15.889l51.556-.222Z" style="fill:red;stroke:#000;stroke-width:1px"/><path d="m59.538 109.145 13.312-.32 32.128.101.597 6.823s-1.741 1.202-21.488 1.524c-5.213-.092-11.116.172-16.669-.379-3.648-.361-8.456-.771-8.456-.771l-.32-5.89.896-1.088Z" style="stroke:#000;stroke-width:1.14px" transform="matrix(1.11309 0 0 .89236 -13.405 3.783)"/><path d="m52.61 100.718-.24 7.04s6.8 1.28 24.48 1.36c0 0 16.24-.08 27.52-1.68l-1.04-7.92s-13.44.88-26.56.64c0 0-22.4 0-24-.32l-.16.88Z" style="stroke:#000;stroke-width:1px"/><path d="M111.41 97.838s4.56 8.08-6.72 9.04" style="fill:none;stroke:#000;stroke-width:1.89px" transform="matrix(1.052 .16044 -.14639 .95986 8.564 -14.133)"/><circle cx="73.59" cy="101.858" r=".58" style="fill:none;stroke:#fe0;stroke-width:.58px"/><circle cx="73.59" cy="101.858" r=".58" style="fill:none;stroke:#fe0;stroke-width:.58px" transform="translate(0 2)"/><circle cx="73.59" cy="101.858" r=".58" style="fill:none;stroke:#fe0;stroke-width:.58px" transform="translate(0 4)"/><circle cx="73.59" cy="101.858" r=".58" style="fill:none;stroke:#fe0;stroke-width:.58px" transform="translate(0 6)"/><circle cx="73.59" cy="101.858" r=".58" style="fill:none;stroke:#fe0;stroke-width:.58px"/><circle cx="73.59" cy="101.858" r=".58" style="fill:none;stroke:#fe0;stroke-width:.58px" transform="translate(2)"/><circle cx="73.59" cy="101.858" r=".58" style="fill:none;stroke:#fe0;stroke-width:.58px" transform="translate(2 2)"/><circle cx="73.59" cy="101.858" r=".58" style="fill:none;stroke:#fe0;stroke-width:.58px" transform="translate(2 4)"/><circle cx="73.59" cy="101.858" r=".58" style="fill:none;stroke:#fe0;stroke-width:.58px" transform="translate(2 6)"/><circle cx="73.59" cy="101.858" r=".58" style="fill:none;stroke:#fe0;stroke-width:.58px" transform="translate(2)"/><circle cx="73.59" cy="101.858" r=".58" style="fill:none;stroke:#fe0;stroke-width:.58px" transform="translate(4)"/><circle cx="73.59" cy="101.858" r=".58" style="fill:none;stroke:#fe0;stroke-width:.58px" transform="translate(4 2)"/><circle cx="73.59" cy="101.858" r=".58" style="fill:none;stroke:#fe0;stroke-width:.58px" transform="translate(4 4)"/><circle cx="73.59" cy="101.858" r=".58" style="fill:none;stroke:#fe0;stroke-width:.58px" transform="translate(4 6)"/><circle cx="73.59" cy="101.858" r=".58" style="fill:none;stroke:#fe0;stroke-width:.58px" transform="translate(4)"/><circle cx="73.59" cy="101.858" r=".58" style="fill:none;stroke:#fe0;stroke-width:.58px" transform="translate(6)"/><circle cx="73.59" cy="101.858" r=".58" style="fill:none;stroke:#fe0;stroke-width:.58px" transform="translate(6 2)"/><circle cx="73.59" cy="101.858" r=".58" style="fill:none;stroke:#fe0;stroke-width:.58px" transform="translate(6 4)"/><circle cx="73.59" cy="101.858" r=".58" style="fill:none;stroke:#fe0;stroke-width:.58px" transform="translate(6 6)"/><circle cx="73.59" cy="101.858" r=".58" style="fill:none;stroke:#fe0;stroke-width:.58px" transform="translate(6)"/><path d="M72.425 111.512s-4.288 6.528.576 12.352l10.24.256s4.416-2.304 2.432-5.376c0 0-1.6-3.776-7.168-5.376l-5.12-1.664-.96-.192Z" style="fill:red" transform="translate(33 -1)"/><path d="m74.153 114.712 4.416-.832m-3.136-1.472 2.432 3.136" style="fill:none;stroke:#fff;stroke-width:1.11px" transform="translate(33 -1)"/><path d="m74.153 114.712 4.416-.832m-3.136-1.472 2.432 3.136" style="fill:none;stroke:#fff;stroke-width:1.11px" transform="translate(36 1)"/><path d="m56.936 112.978-2.079.974-2.329 1.535-1.681 1.983-.792 1.874-.08 1.993.269 1.127 1.051 1.427 2.061 1.062 3.248.228 8.395-.054.386-2.573-6.117.459-2.517.054-2.827-.455-1.05-.807-.535-1.198.105-1.577.646-1.184 1.223-1.374 1.453-.902 3.624-1.608 4.084-1.45 1.374-.39 1.262-.402-1.955-2.384-.633.744-3.287 1.309-3.299 1.589Z" style="fill-rule:nonzero" transform="matrix(-1 0 0 1 170.084 -1)"/><path d="m103.73 61.089 2.397-1.113-10.166-21.891-9.745 20.992-9.803.004-9.705-20.953-9.978 21.65 2.369 1.172 7.595-17.034 7.868 17.26 13.612-.212 7.78-17.199 7.776 17.324Zm4.031.09 3.162 3.641 1.79 3.046.873 2.638.172 1.791.047 2.78-.413 2.407s-.591 1.647-.969 2.435a14.727 14.727 0 0 1-1.003 1.762c-.675 1.016-1.449 1.966-2.233 2.902-.462.551-1.452 1.593-1.452 1.593l-1.718-1.327 2.199-2.23 1.56-2.061 1.156-2.31.593-2.09.214-2.247-.186-2.747-.778-2.7-1.031-1.794-1.371-1.682-2.367-2.512 1.755-1.295ZM56.723 86.386l1.793-1.191-2.507-2.741-1.874-2.97-.74-2.087-.338-1.701-.068-2.186.133-2.572.509-2.214 1.171-2.263 1.289-1.599 1.381-1.689 1.137-1.125-1.636-1.324-1.402 1.533-1.623 1.888-1.103 1.81-1.241 2.649-.715 2.397-.119 1.843-.019 2.022.132 1.423.72 2.528.86 1.942 1.358 2.063s1.015 1.379 1.558 2.041c.43.523 1.344 1.523 1.344 1.523Zm2.527 1.735-2.087-1.589-1.811 1.719-1.569 1.653-1.17 1.534-.949 1.924-.43 1.998-.328 1.478-.16 2.156-.258 2.591.155 1.249.657.926.944-.022-.008-2.384.452-2.595.372-1.96.703-2.011.574-1.58.995-1.546 1.564-1.746 2.354-1.795Z" style="fill-opacity:.99;fill-rule:nonzero"/><path d="m102.445 86.143 3.856 3.936 2.172 2.302 2.106 2.435 1.641 2.434.733 1.685-2.201-.344-1.094-1.747-2.008-2.41-2.464-2.45-1.966-1.668-1.594-1.355-.824-.772 1.643-2.046Z" style="fill-opacity:.99;fill-rule:nonzero" transform="rotate(11.027 110.366 98.593)"/><path d="M102.69 93.198s2.24 2.48 1.04 13.84" style="fill:none;stroke:#000;stroke-width:1.92px"/><circle cx="106.129" cy="76.682" r="2.118" transform="translate(0 -7)"/><path d="M97.049 73.561H95.3l2.64-4.23h2.839l-3.73 4.23Z" style="fill-rule:nonzero" transform="translate(0 -7)"/></svg>