<svg xmlns="http://www.w3.org/2000/svg" xmlns:xlink="http://www.w3.org/1999/xlink" height="182" width="160"><defs><path d="M.7-.3l1.85 2.2H1.5L.05.7-1.4 1.9h-1.05l1.9-2.2H.7" fill-rule="evenodd" transform="translate(2.45 .3)" id="a"/><use height="2.2" width="5" xlink:href="#a" id="c"/><g id="b"><path d="M-15.5-41.55q-2.65-3.1-2.5-7.1-.15-5.3 5.35-9.8Q-7.15-63.5.5-64q7.6.5 13.05 5.55 5.45 4.5 5.45 9.8 0 4-2.6 7.1h.1-.05l-1 1.2-1.25-.3-.7.75 8.5 3.05.05-.1.8.1h.95l.4.3.55.55.25.35.25 1.5-.2.45q-.35 1.55-1.4 1.65l-2.1.1-1.15-.9v-.05h-.05l.05-.15-6.05-2.2-.45 1.3h.05l-1.3 10.5h.05l-.05.4v.05h-.05l-.35 4.2-1.05 4.1-1.65 4v.05H8.4v5.2Q8.35-4.1 7.6-3.2q-.65.75-1.7.75-1 0-1.7-.75-.8-.9-.8-2.25v-5.2H2.1v-1.2h-.3V-12l-.9-1.55h-2.45l-.45.5-1.35.2h-7.1l-2.2-1q-1.2-1.6-1.5-3.4l-.1-1.2.05-.95.55-1.85h.1v-.55l.15-.15v-1.35h-.05l-.05-.8v-2.05l-.2-.65-.15-.45.15-.4.25-.5.25-.75h.1l.35-4.75.1-1.6-.9.35v.05l-4.95 1.8.05.15h-.05v.05l-1.1.9-2.1-.1q-1.1-.1-1.45-1.65l-.15-.45.25-1.5.2-.35.6-.55.35-.3h1l.75-.1.05.1 6.2-2.2-.7-1.05-1.1-1.45h.2m2.85 6.3l.05-.3-.05.3m-1.1 13.35l-.05-.1.05.1m3.7-6.55l-.05-.05v.05h.05" fill="#fff" fill-rule="evenodd" transform="translate(24.75 64.6)"/><path d="M15.45-40.35l4.15 1.2v-.05l2.55.95v-.05l.3.2v.1h.1l1.25-.1q.2.15.3 0 1.55.35 2 1.5l.15.25v.25l.15.3.2.7q.2.9-.15 1.6l-.1.2q-.35 1.9-2 2.4.05.45-.2.1l-2.7.2q-.65-.35-1.65-1.25l-5.85-2.1h-.05l.45-1.3 6.05 2.2-.05.15h.05v.05l1.15.9 2.1-.1q1.05-.1 1.4-1.65l.2-.45-.25-1.5-.25-.35-.55-.55-.4-.3h-.95l-.8-.1-.05.1-8.5-3.05.7-.75 1.25.3m-5.9 29.7v5.2q0 1.95-1 3.1Q7.45-1.1 5.9-1.1q-1.5 0-2.65-1.25-1.05-1.15-1-3.1v-5.2H3.4v5.2q0 1.35.8 2.25.7.75 1.7.75 1.05 0 1.7-.75.75-.9.8-2.25v-5.2h1.15m-22.3-23l-1 .4v-.1l-4.15 1.5q-1 .9-1.6 1.25l-2.7-.2q-.3.35-.2-.1-1.7-.5-2-2.4l-.15-.2q-.35-.7-.15-1.6l.25-.7.15-.3v-.25l.1-.25q.45-1.15 2.05-1.5.05.15.3 0l1.2.1h.1v-.1l.3-.2.05.05q1.25-.5 2.55-.95v.05l3.05-.95.7 1.05-6.2 2.2-.05-.1-.75.1h-1l-.35.3-.6.55-.2.35-.25 1.5.15.45q.35 1.55 1.45 1.65l2.1.1 1.1-.9v-.05h.05l-.05-.15 4.95-1.8v-.05l.9-.35-.1 1.6" fill-rule="evenodd" transform="translate(24.75 64.6)"/><path d="M9.25 23.05q-2.65-3.1-2.5-7.1-.15-5.3 5.35-9.8Q17.6 1.1 25.25.6q7.6.5 13.05 5.55 5.45 4.5 5.45 9.8 0 4-2.6 7.1" fill="none" stroke="#000" stroke-linecap="round" stroke-linejoin="round" stroke-width="1.2"/></g></defs><g transform="matrix(2 0 0 2 82.641 144.2)"><use height="63.5" transform="translate(-24.75 -64.6)" width="51.4" xlink:href="#b"/><use height="2.2" transform="translate(10.35 -53.3)" width="5" xlink:href="#c"/></g><path d="M55.34 102h52.069c-.198 2.791-.355 5.607-1.245 8.282-.609 2.915-1.475 5.766-2.733 8.47-1.003 1.194-.675 4.368-2.628 4.148H87.14c.08-2.264-1.428-4.594-3.052-5.8h-4.548c-.718 1.575-2.873 1.291-4.327 1.549-4.49-.07-8.982-.099-13.473-.149-1.625-.976-3.845-1.211-4.995-2.782a15.388 15.388 0 01-2.624-9.171L55.34 102z" fill="#ffd42a" stroke="#000"/><path d="M99.088 105.266c-.742-.23-3.153 1.428-1.174.52 2.517-1.122 4.39 1.7 6.713 1.401.86-.034 3.44-1.669 1.28-.627-2.332.982-4.01-1.498-6.191-1.444l-.317.054zm-2 9c-.742-.23-3.153 1.428-1.174.52 2.517-1.122 4.39 1.7 6.713 1.401.86-.034 3.44-1.669 1.28-.627-2.332.982-4.01-1.498-6.191-1.444l-.317.054zm-2.67-6c-.741-.23-3.152 1.428-1.173.52 2.517-1.122 4.39 1.7 6.713 1.401.86-.034 3.44-1.669 1.28-.627-2.332.982-4.01-1.498-6.191-1.444l-.317.054zm-7-4c-.741-.23-3.152 1.428-1.173.52 2.517-1.122 4.39 1.7 6.713 1.401.86-.034 3.44-1.669 1.28-.627-2.332.982-4.01-1.498-6.191-1.444l-.317.054zm-1 8c-.741-.23-3.152 1.428-1.173.52 2.517-1.122 4.39 1.7 6.713 1.401.86-.034 3.44-1.669 1.28-.627-2.332.982-4.01-1.498-6.191-1.444l-.317.054zm-7-4c-.741-.23-3.152 1.428-1.173.52 2.517-1.122 4.39 1.7 6.713 1.401.86-.034 3.44-1.669 1.28-.627-2.332.982-4.01-1.498-6.191-1.444l-.317.054zm-7-4c-.741-.23-3.152 1.428-1.173.52 2.517-1.122 4.39 1.7 6.713 1.401.86-.034 3.44-1.669 1.28-.627-2.332.982-4.01-1.498-6.191-1.444l-.317.054zm-14 10c-.741-.23-3.152 1.428-1.173.52 2.517-1.122 4.39 1.7 6.713 1.401.86-.034 3.44-1.669 1.28-.627-2.332.982-4.01-1.498-6.191-1.444l-.317.054zm11-2c-.741-.23-3.152 1.428-1.173.52 2.517-1.122 4.39 1.7 6.713 1.401.86-.034 3.44-1.669 1.28-.627-2.332.982-4.01-1.498-6.191-1.444l-.317.054zm-7-4c-.741-.23-3.152 1.428-1.173.52 2.517-1.122 4.39 1.7 6.713 1.401.86-.034 3.44-1.669 1.28-.627-2.332.982-4.01-1.498-6.191-1.444l-.317.054zm-5.83-4c-.742-.23-3.153 1.428-1.174.52 2.517-1.122 4.39 1.7 6.713 1.401.86-.034 3.44-1.669 1.28-.627-2.332.982-4.01-1.498-6.191-1.444l-.317.054zm38.83 14c-.741-.23-3.152 1.428-1.173.52 2.517-1.122 4.39 1.7 6.713 1.401.86-.034 3.44-1.669 1.28-.627-2.332.982-4.01-1.498-6.191-1.444l-.317.054zm-6.33 1c-.742-.23-3.153 1.428-1.174.52 2.517-1.122 4.39 1.7 6.713 1.401.86-.034 3.44-1.669 1.28-.627-2.332.982-4.01-1.498-6.191-1.444l-.317.054z" stroke="#000" stroke-width=".5" stroke-linejoin="round"/><path d="M57.998 29.22c5.473-55.848 9.998-10.624 9.998-10.624M108.784 29.22c-5.473-55.848-9.997-10.624-9.997-10.624" fill="#fc0" stroke="#806600" stroke-width="2.332"/><path d="M98.992 30c-.54 1.76-.155-3.628.59-.608.203 6.726-3.032-.596-.804-2.521 2.306-1.309 1.703 9.587-.408 7.054-2.767-3.227.63-13.739 2.249-6.849.225.845.362 1.873.381 2.924m-4.008 2c-.54 1.76-.155-3.628.59-.608.203 6.726-3.032-.596-.804-2.521 2.306-1.309 1.703 9.587-.408 7.054-2.767-3.227.63-13.739 2.249-6.849.226.845.362 1.873.381 2.924m-5.008 3c-.54 1.76-.155-3.628.59-.608.203 6.726-3.032-.596-.804-2.521 2.306-1.309 1.703 9.587-.408 7.054-2.767-3.227.63-13.739 2.249-6.849.226.845.362 1.873.381 2.924m-4.008 2c-.54 1.76-.155-3.628.59-.608.203 6.726-3.032-.596-.804-2.521 2.306-1.309 1.703 9.587-.408 7.054-2.767-3.227.63-13.739 2.249-6.849.226.845.362 1.873.381 2.924m-5.008 4c-.54 1.76-.155-3.628.59-.608.203 6.726-3.032-.596-.804-2.521 2.306-1.309 1.703 9.587-.408 7.054-2.767-3.227.63-13.739 2.249-6.849.226.845.362 1.873.381 2.924m18.992-12c-.54 1.76-.155-3.628.59-.608.203 6.726-3.032-.596-.804-2.521 2.306-1.309 1.703 9.587-.408 7.054-2.767-3.227.63-13.739 2.249-6.849.225.845.362 1.873.381 2.924m-4.008 0c-.54 1.76-.155-3.628.59-.608.203 6.726-3.032-.596-.804-2.521 2.306-1.309 1.703 9.587-.408 7.054-2.767-3.227.63-13.739 2.249-6.849.225.845.362 1.873.381 2.924m-4.008 0c-.54 1.76-.155-3.628.59-.608.203 6.726-3.032-.596-.804-2.521 2.306-1.309 1.703 9.587-.408 7.054-2.767-3.227.63-13.739 2.249-6.849.225.845.362 1.873.381 2.924m-4.008 0c-.54 1.76-.155-3.628.59-.608.203 6.726-3.032-.596-.804-2.521 2.306-1.309 1.703 9.587-.408 7.054-2.767-3.227.63-13.739 2.249-6.849.225.845.362 1.873.381 2.924M47.992 50c-.54 1.76-.155-3.628.59-.608.203 6.726-3.032-.596-.804-2.521 2.306-1.309 1.703 9.587-.408 7.054-2.767-3.227.63-13.739 2.249-6.849.226.845.362 1.873.381 2.924m-.008 0c-.54 1.76-.155-3.628.59-.608.203 6.726-3.032-.596-.804-2.521 2.306-1.309 1.703 9.587-.408 7.054-2.767-3.227.63-13.739 2.249-6.849.225.845.362 1.873.381 2.924m.992 0c-.54 1.76-.155-3.628.59-.608.203 6.726-3.032-.596-.804-2.521 2.306-1.309 1.703 9.587-.408 7.054-2.767-3.227.63-13.739 2.249-6.849.225.845.362 1.873.381 2.924m2.992 0c-.54 1.76-.155-3.628.59-.608.203 6.726-3.032-.596-.804-2.521 2.306-1.309 1.703 9.587-.408 7.054-2.767-3.227.63-13.739 2.249-6.849.225.845.362 1.873.381 2.924m-4.008 0c-.54 1.76-.155-3.628.59-.608.203 6.726-3.032-.596-.804-2.521 2.306-1.309 1.703 9.587-.408 7.054-2.767-3.227.63-13.739 2.249-6.849.225.845.362 1.873.381 2.924m7.992 0c-.54 1.76-.155-3.628.59-.608.203 6.726-3.032-.596-.804-2.521 2.306-1.309 1.703 9.587-.408 7.054-2.767-3.227.63-13.739 2.249-6.849.225.845.362 1.873.381 2.924m-7.008 0c-.54 1.76-.155-3.628.59-.608.203 6.726-3.032-.596-.804-2.521 2.306-1.309 1.703 9.587-.408 7.054-2.767-3.227.63-13.739 2.249-6.849.225.845.362 1.873.381 2.924m.992 0c-.54 1.76-.155-3.628.59-.608.203 6.726-3.032-.596-.804-2.521 2.306-1.309 1.703 9.587-.408 7.054-2.767-3.227.63-13.739 2.249-6.849.225.845.362 1.873.381 2.924m2.992 0c-.54 1.76-.155-3.628.59-.608.203 6.726-3.032-.596-.804-2.521 2.306-1.309 1.703 9.587-.408 7.054-2.767-3.227.63-13.739 2.249-6.849.225.845.362 1.873.381 2.924m.992 0c-.54 1.76-.155-3.628.59-.608.203 6.726-3.032-.596-.804-2.521 2.306-1.309 1.703 9.587-.408 7.054-2.767-3.227.63-13.739 2.249-6.849.225.845.362 1.873.381 2.924m1.992 0c-.54 1.76-.155-3.628.59-.608.203 6.726-3.032-.596-.804-2.521 2.306-1.309 1.703 9.587-.408 7.054-2.767-3.227.63-13.739 2.249-6.849.225.845.362 1.873.381 2.924m1.992 0c-.54 1.76-.155-3.628.59-.608.203 6.726-3.032-.596-.804-2.521 2.306-1.309 1.703 9.587-.408 7.054-2.767-3.227.63-13.739 2.249-6.849.225.845.362 1.873.381 2.924m-35.008-2c-.54 1.76-.155-3.628.59-.608.203 6.726-3.032-.596-.804-2.521 2.306-1.309 1.703 9.587-.408 7.054-2.767-3.227.63-13.739 2.249-6.849.225.845.362 1.873.381 2.924m.992 0c-.54 1.76-.155-3.628.59-.608.203 6.726-3.032-.596-.804-2.521 2.306-1.309 1.703 9.587-.408 7.054-2.767-3.227.63-13.739 2.249-6.849.225.845.362 1.873.381 2.924m.992 0c-.54 1.76-.155-3.628.59-.608.203 6.726-3.032-.596-.804-2.521 2.306-1.309 1.703 9.587-.408 7.054-2.767-3.227.63-13.739 2.249-6.849.225.845.362 1.873.381 2.924m2.992 0c-.54 1.76-.155-3.628.59-.608.203 6.726-3.032-.596-.804-2.521 2.306-1.309 1.703 9.587-.408 7.054-2.767-3.227.63-13.739 2.249-6.849.225.845.362 1.873.381 2.924m1.992 0c-.54 1.76-.155-3.628.59-.608.203 6.726-3.032-.596-.804-2.521 2.306-1.309 1.703 9.587-.408 7.054-2.767-3.227.63-13.739 2.249-6.849.225.845.362 1.873.381 2.924m1.992 0c-.54 1.76-.155-3.628.59-.608.203 6.726-3.032-.596-.804-2.521 2.306-1.309 1.703 9.587-.408 7.054-2.767-3.227.63-13.739 2.249-6.849.225.845.362 1.873.381 2.924m1.992 0c-.54 1.76-.155-3.628.59-.608.203 6.726-3.032-.596-.804-2.521 2.306-1.309 1.703 9.587-.408 7.054-2.767-3.227.63-13.739 2.249-6.849.225.845.362 1.873.381 2.924m1.992 0c-.54 1.76-.155-3.628.59-.608.203 6.726-3.032-.596-.804-2.521 2.306-1.309 1.703 9.587-.408 7.054-2.767-3.227.63-13.739 2.249-6.849.225.845.362 1.873.381 2.924m.992 0c-.54 1.76-.155-3.628.59-.608.203 6.726-3.032-.596-.804-2.521 2.306-1.309 1.703 9.587-.408 7.054-2.767-3.227.63-13.739 2.249-6.849.225.845.362 1.873.381 2.924m2.992 0c-.54 1.76-.155-3.628.59-.608.203 6.726-3.032-.596-.804-2.521 2.306-1.309 1.703 9.587-.408 7.054-2.767-3.227.63-13.739 2.249-6.849.225.845.362 1.873.381 2.924m-35.008-3c-.54 1.76-.155-3.628.59-.608.203 6.726-3.032-.596-.804-2.521 2.306-1.309 1.703 9.587-.408 7.054-2.767-3.227.63-13.739 2.249-6.849.225.845.362 1.873.381 2.924m-.008 0c-.54 1.76-.155-3.628.59-.608.203 6.726-3.032-.596-.804-2.521 2.306-1.309 1.703 9.587-.408 7.054-2.767-3.227.63-13.739 2.249-6.849.225.845.362 1.873.381 2.924m1.992 0c-.54 1.76-.155-3.628.59-.608.203 6.726-3.032-.596-.804-2.521 2.306-1.309 1.703 9.587-.408 7.054-2.767-3.227.63-13.739 2.249-6.849.225.845.362 1.873.381 2.924m-.008 0c-.54 1.76-.155-3.628.59-.608.203 6.726-3.032-.596-.804-2.521 2.306-1.309 1.703 9.587-.408 7.054-2.767-3.227.63-13.739 2.249-6.849.225.845.362 1.873.381 2.924m-.008 0c-.54 1.76-.155-3.628.59-.608.203 6.726-3.032-.596-.804-2.521 2.306-1.309 1.703 9.587-.408 7.054-2.767-3.227.63-13.739 2.249-6.849.225.845.362 1.873.381 2.924m1.992 0c-.54 1.76-.155-3.628.59-.608.203 6.726-3.032-.596-.804-2.521 2.306-1.309 1.703 9.587-.408 7.054-2.767-3.227.63-13.739 2.249-6.849.225.845.362 1.873.381 2.924m-.008 0c-.54 1.76-.155-3.628.59-.608.203 6.726-3.032-.596-.804-2.521 2.306-1.309 1.703 9.587-.408 7.054-2.767-3.227.63-13.739 2.249-6.849.225.845.362 1.873.381 2.924m-.008 0c-.54 1.76-.155-3.628.59-.608.203 6.726-3.033-.596-.804-2.521 2.306-1.309 1.703 9.587-.408 7.054-2.767-3.227.63-13.739 2.249-6.849.225.845.362 1.873.381 2.924m-.008 0c-.54 1.76-.155-3.628.59-.608.203 6.726-3.033-.596-.804-2.521 2.306-1.309 1.703 9.587-.408 7.054-2.767-3.227.63-13.739 2.249-6.849.225.845.362 1.873.381 2.924m1.992 0c-.54 1.76-.155-3.628.59-.608.203 6.726-3.033-.596-.804-2.521 2.306-1.309 1.703 9.587-.408 7.054-2.767-3.227.63-13.739 2.249-6.849.225.845.362 1.873.381 2.924m-.008 0c-.54 1.76-.155-3.628.59-.608.203 6.726-3.033-.596-.804-2.521 2.306-1.309 1.703 9.587-.408 7.054-2.767-3.227.63-13.739 2.249-6.849.225.845.362 1.873.381 2.924m1.992 0c-.54 1.76-.155-3.628.59-.608.203 6.726-3.033-.596-.804-2.521 2.306-1.309 1.703 9.587-.408 7.054-2.767-3.227.63-13.739 2.249-6.849.225.845.362 1.873.381 2.924m-.008 0c-.54 1.76-.155-3.628.59-.608.203 6.726-3.033-.596-.804-2.521 2.306-1.309 1.703 9.587-.408 7.054-2.767-3.227.63-13.739 2.249-6.849.225.845.362 1.873.381 2.924m-.008 0c-.54 1.76-.155-3.628.59-.608.203 6.726-3.033-.596-.804-2.521 2.306-1.309 1.703 9.587-.408 7.054-2.767-3.227.63-13.739 2.249-6.849.225.845.362 1.873.381 2.924m-.008 0c-.54 1.76-.155-3.628.59-.608.203 6.726-3.033-.596-.804-2.521 2.306-1.309 1.703 9.587-.408 7.054-2.767-3.227.63-13.739 2.249-6.849.225.845.362 1.873.381 2.924M64.992 32c-.54 1.76-.155-3.628.59-.608.203 6.726-3.033-.596-.804-2.521 2.306-1.309 1.703 9.587-.408 7.054-2.767-3.227.63-13.739 2.249-6.849.225.845.362 1.873.381 2.924m22.992 8c-.54 1.76-.155-3.628.59-.608.203 6.726-3.033-.596-.804-2.521 2.306-1.309 1.703 9.587-.408 7.054-2.767-3.227.63-13.739 2.249-6.849.225.845.362 1.873.381 2.924m-5.008 0c-.54 1.76-.155-3.628.59-.608.203 6.726-3.033-.596-.804-2.521 2.306-1.309 1.703 9.587-.408 7.054-2.767-3.227.63-13.739 2.249-6.849.225.845.362 1.873.381 2.924m-4.008 0c-.54 1.76-.155-3.628.59-.608.203 6.726-3.033-.596-.804-2.521 2.306-1.309 1.703 9.587-.408 7.054-2.767-3.227.63-13.739 2.249-6.849.225.845.362 1.873.381 2.924m-7.008 0c-.54 1.76-.155-3.628.59-.608.203 6.726-3.033-.596-.804-2.521 2.306-1.309 1.703 9.587-.408 7.054-2.767-3.227.63-13.739 2.249-6.849.225.845.362 1.873.381 2.924m-4.008 0c-.54 1.76-.155-3.628.59-.608.203 6.726-3.033-.596-.804-2.521 2.306-1.309 1.703 9.587-.408 7.054-2.767-3.227.63-13.739 2.249-6.849.225.845.362 1.873.381 2.924m-4.493 0c-.54 1.76-.154-3.628.59-.608.204 6.726-3.032-.596-.804-2.521 2.307-1.309 1.704 9.587-.408 7.054-2.767-3.227.63-13.739 2.25-6.849.225.845.361 1.873.38 2.924m-4.523 0c-.54 1.76-.155-3.628.59-.608.203 6.726-3.033-.596-.804-2.521 2.306-1.309 1.703 9.587-.408 7.054-2.767-3.227.63-13.739 2.249-6.849.225.845.362 1.873.381 2.924m-6.008 0c-.54 1.76-.155-3.628.59-.608.203 6.726-3.033-.596-.804-2.521 2.306-1.309 1.703 9.587-.408 7.054-2.767-3.227.63-13.739 2.249-6.849.225.845.362 1.873.381 2.924m-4.008 0c-.54 1.76-.155-3.628.59-.608.203 6.726-3.033-.596-.804-2.521 2.306-1.309 1.703 9.587-.408 7.054-2.767-3.227.63-13.739 2.249-6.849.225.845.362 1.873.381 2.924m-4.008 0c-.54 1.76-.155-3.628.59-.608.203 6.726-3.033-.596-.804-2.521 2.306-1.309 1.703 9.587-.408 7.054-2.767-3.227.63-13.739 2.249-6.849.225.845.362 1.873.381 2.924m-4.507 0c-.54 1.76-.154-3.628.59-.608.204 6.726-3.032-.596-.803-2.521 2.306-1.309 1.703 9.587-.409 7.054-2.766-3.227.63-13.739 2.25-6.849.225.845.362 1.873.381 2.924m-9.51 2c-.54 1.76-.155-3.628.59-.608.203 6.726-3.033-.596-.804-2.521 2.306-1.309 1.703 9.587-.408 7.054-2.767-3.227.63-13.739 2.249-6.849.225.845.362 1.873.381 2.924m38.992-14c-.54 1.76-.155-3.628.59-.608.203 6.726-3.033-.596-.804-2.521 2.306-1.309 1.703 9.587-.408 7.054-2.767-3.227.63-13.739 2.249-6.849.225.845.362 1.873.381 2.924m-4.008 0c-.54 1.76-.155-3.628.59-.608.203 6.726-3.033-.596-.804-2.521 2.306-1.309 1.703 9.587-.408 7.054-2.767-3.227.63-13.739 2.249-6.849.225.845.362 1.873.381 2.924m-4.008 0c-.54 1.76-.155-3.628.59-.608.203 6.726-3.033-.596-.804-2.521 2.306-1.309 1.703 9.587-.408 7.054-2.767-3.227.63-13.739 2.249-6.849.225.845.362 1.873.381 2.924m-4.008 0c-.54 1.76-.155-3.628.59-.608.203 6.726-3.033-.596-.804-2.521 2.306-1.309 1.703 9.587-.408 7.054-2.767-3.227.63-13.739 2.249-6.849.225.845.362 1.873.381 2.924m-4.008 0c-.54 1.76-.155-3.628.59-.608.203 6.726-3.033-.596-.804-2.521 2.306-1.309 1.703 9.587-.408 7.054-2.767-3.227.63-13.739 2.249-6.849.225.845.362 1.873.381 2.924m-4.008 0c-.54 1.76-.155-3.628.59-.608.203 6.726-3.033-.596-.804-2.521 2.306-1.309 1.703 9.587-.408 7.054-2.767-3.227.63-13.739 2.249-6.849.225.845.362 1.873.381 2.924m-4.008 0c-.54 1.76-.155-3.628.59-.608.203 6.726-3.033-.596-.804-2.521 2.306-1.309 1.703 9.587-.408 7.054-2.767-3.227.63-13.739 2.249-6.849.225.845.362 1.873.381 2.924m-4.008 0c-.54 1.76-.155-3.628.59-.608.203 6.726-3.033-.596-.804-2.521 2.306-1.309 1.703 9.587-.408 7.054-2.767-3.227.63-13.739 2.249-6.849.225.845.362 1.873.381 2.924m-4.008 0c-.54 1.76-.155-3.628.59-.608.203 6.726-3.033-.596-.804-2.521 2.306-1.309 1.703 9.587-.408 7.054-2.767-3.227.63-13.739 2.249-6.849.225.845.362 1.873.381 2.924m-5.008 0c-.54 1.76-.155-3.628.59-.608.203 6.726-3.033-.596-.804-2.521 2.306-1.309 1.703 9.587-.408 7.054-2.767-3.227.63-13.739 2.249-6.849.225.845.362 1.873.381 2.924m-5.008 0c-.54 1.76-.155-3.628.59-.608.203 6.726-3.033-.596-.804-2.521 2.306-1.309 1.703 9.587-.408 7.054-2.767-3.227.63-13.739 2.249-6.849.225.845.362 1.873.381 2.924m-5.008 0c-.54 1.76-.155-3.628.59-.608.203 6.726-3.033-.596-.804-2.521 2.306-1.309 1.703 9.587-.408 7.054-2.767-3.227.63-13.739 2.249-6.849.225.845.362 1.873.381 2.924m-4.008 2c-.54 1.76-.155-3.628.59-.608.203 6.726-3.033-.596-.804-2.521 2.306-1.309 1.703 9.587-.408 7.054-2.767-3.227.63-13.739 2.249-6.849.225.845.362 1.873.381 2.924m-5.008 1c-.54 1.76-.155-3.628.59-.608.203 6.726-3.033-.596-.804-2.521 2.306-1.309 1.703 9.587-.408 7.054-2.767-3.227.63-13.739 2.249-6.849.225.845.362 1.873.381 2.924m-4.008 2c-.54 1.76-.155-3.628.59-.608.203 6.726-3.033-.596-.804-2.521 2.306-1.309 1.703 9.587-.408 7.054-2.767-3.227.63-13.739 2.249-6.849.225.845.362 1.873.381 2.924m-5.008 2c-.54 1.76-.155-3.628.59-.608.203 6.726-3.033-.596-.804-2.521 2.306-1.309 1.703 9.587-.408 7.054-2.767-3.227.63-13.739 2.249-6.849.225.845.362 1.873.381 2.924m-5.008 2c-.54 1.76-.155-3.628.59-.608.203 6.726-3.033-.596-.804-2.521 2.306-1.309 1.703 9.587-.408 7.054-2.767-3.227.63-13.739 2.249-6.849.225.845.362 1.873.381 2.924m41.992-8c-.54 1.76-.155-3.628.59-.608.203 6.726-3.033-.596-.804-2.521 2.306-1.309 1.703 9.587-.408 7.054-2.767-3.227.63-13.739 2.249-6.849.225.845.362 1.873.381 2.924m-4.008 0c-.54 1.76-.155-3.628.59-.608.203 6.726-3.033-.596-.804-2.521 2.306-1.309 1.703 9.587-.408 7.054-2.767-3.227.63-13.739 2.249-6.849.225.845.362 1.873.381 2.924m-4.008 0c-.54 1.76-.155-3.628.59-.608.203 6.726-3.033-.596-.804-2.521 2.306-1.309 1.703 9.587-.408 7.054-2.767-3.227.63-13.739 2.249-6.849.225.845.362 1.873.381 2.924m-4.008 0c-.54 1.76-.155-3.628.59-.608.203 6.726-3.033-.596-.804-2.521 2.306-1.309 1.703 9.587-.408 7.054-2.767-3.227.63-13.739 2.249-6.849.225.845.362 1.873.381 2.924m-4.008 0c-.54 1.76-.155-3.628.59-.608.203 6.726-3.033-.596-.804-2.521 2.306-1.309 1.703 9.587-.408 7.054-2.767-3.227.63-13.739 2.249-6.849.225.845.362 1.873.381 2.924m-4.008 0c-.54 1.76-.155-3.628.59-.608.203 6.726-3.033-.596-.804-2.521 2.306-1.309 1.703 9.587-.408 7.054-2.767-3.227.63-13.739 2.249-6.849.225.845.362 1.873.381 2.924m-4.008 0c-.54 1.76-.155-3.628.59-.608.203 6.726-3.033-.596-.804-2.521 2.306-1.309 1.703 9.587-.408 7.054-2.767-3.227.63-13.739 2.249-6.849.225.845.362 1.873.381 2.924m-4.008 0c-.54 1.76-.155-3.628.59-.608.203 6.726-3.033-.596-.804-2.521 2.306-1.309 1.703 9.587-.408 7.054-2.767-3.227.63-13.739 2.249-6.849.225.845.362 1.873.381 2.924m-4.008 0c-.54 1.76-.155-3.628.59-.608.203 6.726-3.033-.596-.804-2.521 2.306-1.309 1.703 9.587-.408 7.054-2.767-3.227.63-13.739 2.249-6.849.225.845.362 1.873.381 2.924m-4.008 0c-.54 1.76-.155-3.628.59-.608.203 6.726-3.033-.596-.804-2.521 2.306-1.309 1.703 9.587-.408 7.054-2.767-3.227.63-13.739 2.249-6.849.225.845.362 1.873.381 2.924m-4.008 0c-.54 1.76-.155-3.628.59-.608.203 6.726-3.033-.596-.804-2.521 2.306-1.309 1.703 9.587-.408 7.054-2.767-3.227.63-13.739 2.249-6.849.225.845.362 1.873.381 2.924m-4.008 0c-.54 1.76-.155-3.628.59-.608.203 6.726-3.033-.596-.804-2.521 2.306-1.309 1.703 9.587-.408 7.054-2.767-3.227.63-13.739 2.249-6.849.225.845.362 1.873.381 2.924m-3.64 0c-.54 1.76-.155-3.628.589-.608.204 6.726-3.032-.596-.804-2.521 2.307-1.309 1.704 9.587-.408 7.054-2.766-3.227.63-13.739 2.25-6.849.225.845.362 1.873.381 2.924m-4.02 0c-.54 1.76-.154-3.628.59-.608.204 6.726-3.032-.596-.803-2.521 2.306-1.309 1.703 9.587-.408 7.054-2.767-3.227.63-13.739 2.249-6.849.225.845.362 1.873.381 2.924m-3.951 0c-.54 1.76-.154-3.628.59-.608.204 6.726-3.032-.596-.804-2.521 2.306-1.309 1.704 9.587-.408 7.054-2.767-3.227.63-13.739 2.249-6.849.226.845.362 1.873.381 2.924m-3.849 0c-.54 1.76-.154-3.628.59-.608.204 6.726-3.032-.596-.803-2.521 2.306-1.309 1.703 9.587-.409 7.054-2.766-3.227.63-13.739 2.25-6.849.225.845.362 1.873.381 2.924m-4.02 0c-.54 1.76-.154-3.628.59-.608.204 6.726-3.032-.596-.803-2.521 2.306-1.309 1.703 9.587-.408 7.054-2.767-3.227.63-13.739 2.249-6.849.225.845.362 1.873.381 2.924m-3.917 0c-.54 1.76-.154-3.628.59-.608.204 6.726-3.032-.596-.804-2.521 2.306-1.309 1.704 9.587-.408 7.054-2.767-3.227.63-13.739 2.25-6.849.225.845.361 1.873.38 2.924m24.338 5c-.54 1.76-.155-3.628.59-.608.203 6.726-3.033-.596-.804-2.521 2.306-1.309 1.703 9.587-.408 7.054-2.767-3.227.63-13.739 2.249-6.849.225.845.362 1.873.381 2.924m-4.008 0c-.54 1.76-.155-3.628.59-.608.203 6.726-3.033-.596-.804-2.521 2.306-1.309 1.703 9.587-.408 7.054-2.767-3.227.63-13.739 2.249-6.849.225.845.362 1.873.381 2.924m-4.008 0c-.54 1.76-.155-3.628.59-.608.203 6.726-3.033-.596-.804-2.521 2.306-1.309 1.703 9.587-.408 7.054-2.767-3.227.63-13.739 2.249-6.849.225.845.362 1.873.381 2.924m-4.008 0c-.54 1.76-.155-3.628.59-.608.203 6.726-3.033-.596-.804-2.521 2.306-1.309 1.703 9.587-.408 7.054-2.767-3.227.63-13.739 2.249-6.849.225.845.362 1.873.381 2.924m-4.008 0c-.54 1.76-.155-3.628.59-.608.203 6.726-3.033-.596-.804-2.521 2.306-1.309 1.703 9.587-.408 7.054-2.767-3.227.63-13.739 2.249-6.849.225.845.362 1.873.381 2.924m-4.008 0c-.54 1.76-.155-3.628.59-.608.203 6.726-3.033-.596-.804-2.521 2.306-1.309 1.703 9.587-.408 7.054-2.767-3.227.63-13.739 2.249-6.849.225.845.362 1.873.381 2.924m-4.008 0c-.54 1.76-.155-3.628.59-.608.203 6.726-3.033-.596-.804-2.521 2.306-1.309 1.703 9.587-.408 7.054-2.767-3.227.63-13.739 2.249-6.849.225.845.362 1.873.381 2.924m-4.008 0c-.54 1.76-.155-3.628.59-.608.203 6.726-3.033-.596-.804-2.521 2.306-1.309 1.703 9.587-.408 7.054-2.767-3.227.63-13.739 2.249-6.849.225.845.362 1.873.381 2.924m-4.008 0c-.54 1.76-.155-3.628.59-.608.203 6.726-3.033-.596-.804-2.521 2.306-1.309 1.703 9.587-.408 7.054-2.767-3.227.63-13.739 2.249-6.849.225.845.362 1.873.381 2.924m-4.008 0c-.54 1.76-.155-3.628.59-.608.203 6.726-3.033-.596-.804-2.521 2.306-1.309 1.703 9.587-.408 7.054-2.767-3.227.63-13.739 2.249-6.849.225.845.362 1.873.381 2.924m-4.008 0c-.54 1.76-.155-3.628.59-.608.203 6.726-3.033-.596-.804-2.521 2.306-1.309 1.703 9.587-.408 7.054-2.767-3.227.63-13.739 2.249-6.849.225.845.362 1.873.381 2.924m-4.008 0c-.54 1.76-.155-3.628.59-.608.203 6.726-3.033-.596-.804-2.521 2.306-1.309 1.703 9.587-.408 7.054-2.767-3.227.63-13.739 2.249-6.849.225.845.362 1.873.381 2.924m-4.008 0c-.54 1.76-.155-3.628.59-.608.203 6.726-3.033-.596-.804-2.521 2.306-1.309 1.703 9.587-.408 7.054-2.767-3.227.63-13.739 2.249-6.849.225.845.362 1.873.381 2.924m-4.008 0c-.54 1.76-.155-3.628.59-.608.203 6.726-3.033-.596-.804-2.521 2.306-1.309 1.703 9.587-.408 7.054-2.767-3.227.63-13.739 2.249-6.849.225.845.362 1.873.381 2.924m-4.008-.441c-.54 1.759-.155-3.628.59-.61.203 6.727-3.033-.594-.804-2.52 2.306-1.309 1.703 9.587-.408 7.054-2.767-3.227.63-13.739 2.249-6.849.225.845.362 1.874.381 2.925m-4.008-.205c-.54 1.76-.155-3.628.59-.609.203 6.726-3.033-.595-.804-2.52 2.306-1.31 1.703 9.587-.408 7.054-2.767-3.227.63-13.74 2.249-6.849.225.845.362 1.873.381 2.924m-4.008.034c-.54 1.76-.155-3.628.59-.609.203 6.727-3.033-.595-.804-2.52 2.306-1.31 1.703 9.587-.408 7.054-2.767-3.227.63-13.739 2.249-6.849.225.845.362 1.873.381 2.924m-4.008.068c-.54 1.76-.155-3.627.59-.608.203 6.726-3.033-.596-.804-2.521 2.306-1.309 1.703 9.587-.408 7.054-2.767-3.227.63-13.739 2.249-6.849.225.845.362 1.873.381 2.924M90.992 38c-.54 1.76-.155-3.628.59-.608.203 6.726-3.033-.596-.804-2.521 2.306-1.309 1.703 9.587-.408 7.054-2.767-3.227.63-13.739 2.249-6.849.225.845.362 1.873.381 2.924m-4.008 0c-.54 1.76-.155-3.628.59-.608.203 6.726-3.033-.596-.804-2.521 2.306-1.309 1.703 9.587-.408 7.054-2.767-3.227.63-13.739 2.249-6.849.225.845.362 1.873.381 2.924m-4.008 0c-.54 1.76-.155-3.628.59-.608.203 6.726-3.033-.596-.804-2.521 2.306-1.309 1.703 9.587-.408 7.054-2.767-3.227.63-13.739 2.249-6.849.225.845.362 1.873.381 2.924m-4.008 0c-.54 1.76-.155-3.628.59-.608.203 6.726-3.033-.596-.804-2.521 2.306-1.309 1.703 9.587-.408 7.054-2.767-3.227.63-13.739 2.249-6.849.225.845.362 1.873.381 2.924m-4.008 0c-.54 1.76-.155-3.628.59-.608.203 6.726-3.033-.596-.804-2.521 2.306-1.309 1.703 9.587-.408 7.054-2.767-3.227.63-13.739 2.249-6.849.225.845.362 1.873.381 2.924m-4.008 0c-.54 1.76-.155-3.628.59-.608.203 6.726-3.033-.596-.804-2.521 2.306-1.309 1.703 9.587-.408 7.054-2.767-3.227.63-13.739 2.249-6.849.225.845.362 1.873.381 2.924m-4.008 0c-.54 1.76-.155-3.628.59-.608.203 6.726-3.033-.596-.804-2.521 2.306-1.309 1.703 9.587-.408 7.054-2.767-3.227.63-13.739 2.249-6.849.225.845.362 1.873.381 2.924m-4.008 0c-.54 1.76-.155-3.628.59-.608.203 6.726-3.033-.596-.804-2.521 2.306-1.309 1.703 9.587-.408 7.054-2.767-3.227.63-13.739 2.249-6.849.225.845.362 1.873.381 2.924m-4.008 0c-.54 1.76-.155-3.628.59-.608.203 6.726-3.033-.596-.804-2.521 2.306-1.309 1.703 9.587-.408 7.054-2.767-3.227.63-13.739 2.249-6.849.225.845.362 1.873.381 2.924m-4.008 0c-.54 1.76-.155-3.628.59-.608.203 6.726-3.033-.596-.804-2.521 2.306-1.309 1.703 9.587-.408 7.054-2.767-3.227.63-13.739 2.249-6.849.225.845.362 1.873.381 2.924m-4.008 0c-.54 1.76-.155-3.628.59-.608.203 6.726-3.033-.596-.804-2.521 2.306-1.309 1.703 9.587-.408 7.054-2.767-3.227.63-13.739 2.249-6.849.225.845.362 1.873.381 2.924m-4.008 0c-.54 1.76-.155-3.628.59-.608.203 6.726-3.033-.596-.804-2.521 2.306-1.309 1.703 9.587-.408 7.054-2.767-3.227.63-13.739 2.249-6.849.225.845.362 1.873.381 2.924m-4.008 0c-.54 1.76-.155-3.628.59-.608.203 6.726-3.033-.596-.804-2.521 2.306-1.309 1.703 9.587-.408 7.054-2.767-3.227.63-13.739 2.249-6.849.225.845.362 1.873.381 2.924m-4.008 0c-.54 1.76-.155-3.628.59-.608.203 6.726-3.033-.596-.804-2.521 2.306-1.309 1.703 9.587-.408 7.054-2.767-3.227.63-13.739 2.249-6.849.225.845.362 1.873.381 2.924m-4.008.398c-.54 1.76-.155-3.628.59-.608.203 6.726-3.033-.596-.804-2.521 2.306-1.31 1.703 9.587-.408 7.054-2.767-3.227.63-13.739 2.249-6.849.225.845.362 1.873.381 2.924m-4.008.068c-.54 1.76-.155-3.627.59-.608.203 6.726-3.033-.596-.804-2.521 2.306-1.309 1.703 9.587-.408 7.054-2.767-3.227.63-13.739 2.249-6.849.225.845.362 1.873.381 2.924m-4.008-.102c-.54 1.76-.155-3.628.59-.609.203 6.726-3.033-.595-.804-2.52 2.306-1.31 1.703 9.587-.408 7.054-2.767-3.227.63-13.74 2.249-6.849.225.845.362 1.873.381 2.924m-4.008.137c-.54 1.759-.155-3.628.59-.61.203 6.727-3.033-.595-.804-2.52 2.306-1.309 1.703 9.587-.408 7.054-2.767-3.227.63-13.739 2.249-6.849.225.845.362 1.874.381 2.925m-4.008-.069c-.54 1.76-.155-3.628.59-.608.203 6.726-3.033-.596-.804-2.521 2.306-1.309 1.703 9.587-.408 7.054-2.767-3.227.63-13.739 2.249-6.849.225.845.362 1.873.381 2.924M113.992 28c-.54 1.76-.155-3.628.59-.608.203 6.726-3.032-.596-.804-2.521 2.306-1.309 1.703 9.587-.408 7.054-2.767-3.227.63-13.739 2.249-6.849.226.845.362 1.873.381 2.924M86.992 43c-.54 1.76-.155-3.628.59-.608.203 6.726-3.032-.596-.804-2.521 2.306-1.309 1.703 9.587-.408 7.054-2.767-3.227.63-13.739 2.249-6.849.226.845.362 1.873.381 2.924m-4.008 0c-.54 1.76-.155-3.628.59-.608.203 6.726-3.032-.596-.804-2.521 2.306-1.309 1.703 9.587-.408 7.054-2.767-3.227.63-13.739 2.249-6.849.226.845.362 1.873.381 2.924m-4.008 0c-.54 1.76-.155-3.628.59-.608.203 6.726-3.032-.596-.804-2.521 2.306-1.309 1.703 9.587-.408 7.054-2.767-3.227.63-13.739 2.249-6.849.226.845.362 1.873.381 2.924m-4.008 0c-.54 1.76-.155-3.628.59-.608.203 6.726-3.032-.596-.804-2.521 2.306-1.309 1.703 9.587-.408 7.054-2.767-3.227.63-13.739 2.249-6.849.226.845.362 1.873.381 2.924m-4.008 0c-.54 1.76-.155-3.628.59-.608.203 6.726-3.032-.596-.804-2.521 2.306-1.309 1.703 9.587-.408 7.054-2.767-3.227.63-13.739 2.249-6.849.226.845.362 1.873.381 2.924m-4.008 0c-.54 1.76-.155-3.628.59-.608.203 6.726-3.032-.596-.804-2.521 2.306-1.309 1.703 9.587-.408 7.054-2.767-3.227.63-13.739 2.249-6.849.226.845.362 1.873.381 2.924m-4.008 0c-.54 1.76-.155-3.628.59-.608.203 6.726-3.032-.596-.804-2.521 2.306-1.309 1.703 9.587-.408 7.054-2.767-3.227.63-13.739 2.249-6.849.226.845.362 1.873.381 2.924m-4.008 0c-.54 1.76-.155-3.628.59-.608.203 6.726-3.032-.596-.804-2.521 2.306-1.309 1.703 9.587-.408 7.054-2.767-3.227.63-13.739 2.249-6.849.226.845.362 1.873.381 2.924m-4.008 0c-.54 1.76-.155-3.628.59-.608.203 6.726-3.032-.596-.804-2.521 2.306-1.309 1.703 9.587-.408 7.054-2.767-3.227.63-13.739 2.249-6.849.226.845.362 1.873.381 2.924m-4.008 0c-.54 1.76-.155-3.628.59-.608.203 6.726-3.032-.596-.804-2.521 2.306-1.309 1.703 9.587-.408 7.054-2.767-3.227.63-13.739 2.249-6.849.226.845.362 1.873.381 2.924m-4.008 0c-.54 1.76-.155-3.628.59-.608.203 6.726-3.032-.596-.804-2.521 2.306-1.309 1.703 9.587-.408 7.054-2.767-3.227.63-13.739 2.249-6.849.226.845.362 1.873.381 2.924m-4.008 0c-.54 1.76-.155-3.628.59-.608.203 6.726-3.032-.596-.804-2.521 2.306-1.309 1.703 9.587-.408 7.054-2.767-3.227.63-13.739 2.249-6.849.226.845.362 1.873.381 2.924m-4.008.264c-.54 1.759-.155-3.628.59-.61.203 6.727-3.032-.595-.804-2.52 2.306-1.309 1.703 9.587-.408 7.054-2.767-3.227.63-13.739 2.249-6.849.226.845.362 1.874.381 2.925m-4.008 0c-.54 1.759-.155-3.628.59-.61.203 6.727-3.032-.595-.804-2.52 2.306-1.309 1.703 9.587-.408 7.054-2.767-3.227.63-13.739 2.249-6.849.226.845.362 1.874.381 2.925m-4.008.024c-.54 1.759-.155-3.628.59-.61.203 6.727-3.032-.595-.804-2.52 2.306-1.309 1.703 9.587-.408 7.054-2.767-3.227.63-13.739 2.249-6.849.226.845.362 1.874.381 2.925m-4.008 0c-.54 1.759-.155-3.628.59-.61.203 6.727-3.032-.595-.804-2.52 2.306-1.309 1.703 9.587-.408 7.054-2.767-3.227.63-13.739 2.249-6.849.226.845.362 1.874.381 2.925m-3.592.048c-.54 1.76-.154-3.628.59-.609.204 6.726-3.032-.595-.804-2.52 2.307-1.31 1.704 9.586-.408 7.054-2.766-3.228.63-13.74 2.25-6.85.225.846.362 1.874.38 2.925m-3.863 0c-.54 1.76-.155-3.628.59-.609.203 6.726-3.032-.595-.804-2.52 2.306-1.31 1.703 9.586-.408 7.054-2.767-3.228.63-13.74 2.249-6.85.225.846.362 1.874.381 2.925m-3.912.144c-.54 1.76-.155-3.627.59-.608.204 6.726-3.032-.596-.804-2.521 2.306-1.309 1.703 9.587-.408 7.054-2.767-3.227.63-13.739 2.249-6.849.226.845.362 1.873.381 2.924m-3.96.193c-.54 1.76-.155-3.628.59-.609.203 6.726-3.032-.595-.804-2.52 2.306-1.31 1.703 9.587-.408 7.054-2.767-3.227.63-13.74 2.249-6.849.226.845.362 1.873.381 2.924m-5.713-.128c-.54 1.759-.155-3.628.59-.61.203 6.727-3.032-.594-.804-2.52 2.306-1.309 1.703 9.587-.408 7.054-2.767-3.227.63-13.739 2.249-6.849.226.845.362 1.874.381 2.925m10.115-16.65c-.54 1.76-.155-3.627.59-.608.203 6.726-3.033-.596-.804-2.521 2.306-1.309 1.703 9.587-.408 7.054-2.767-3.227.63-13.739 2.249-6.849.225.845.362 1.873.381 2.924m-4.053.904c-.54 1.759-.155-3.628.59-.61.203 6.727-3.032-.594-.804-2.52 2.306-1.309 1.703 9.587-.408 7.054-2.767-3.227.63-13.739 2.249-6.849.225.845.362 1.874.381 2.925M47.86 37.92c-.54 1.76-.154-3.628.59-.609.204 6.726-3.032-.595-.804-2.52 2.307-1.31 1.704 9.587-.408 7.054-2.767-3.227.63-13.74 2.25-6.85.225.846.361 1.874.38 2.925m1.805-5.76c-.54 1.76-.154-3.628.59-.609.204 6.726-3.032-.595-.804-2.52 2.306-1.31 1.704 9.587-.408 7.054-2.767-3.227.63-13.74 2.25-6.849.225.845.361 1.873.38 2.924m-2.82 1.125c-.54 1.76-.155-3.628.589-.609.204 6.726-3.032-.595-.804-2.52 2.307-1.31 1.704 9.586-.408 7.054-2.767-3.228.63-13.74 2.25-6.85.225.846.361 1.874.38 2.925M49.56 35.46c-.54 1.759-.154-3.628.59-.61.204 6.727-3.032-.595-.804-2.52 2.306-1.309 1.704 9.587-.408 7.054-2.767-3.227.63-13.739 2.249-6.849.226.845.362 1.874.382 2.925M93.86 17.043c-.54 1.76-.154-3.628.59-.609.204 6.726-3.032-.595-.804-2.52 2.307-1.31 1.704 9.587-.408 7.054-2.767-3.227.63-13.74 2.25-6.85.225.846.361 1.874.38 2.925m-6.008-.582c-.54 1.759-.154-3.628.59-.61.204 6.727-3.032-.595-.804-2.52 2.307-1.309 1.704 9.587-.408 7.054-2.767-3.227.63-13.739 2.25-6.849.225.845.361 1.874.38 2.925m-15.008 0c-.54 1.759-.154-3.628.59-.61.204 6.727-3.032-.595-.804-2.52 2.307-1.309 1.704 9.587-.408 7.054-2.767-3.227.63-13.739 2.25-6.849.225.845.361 1.874.38 2.925m12.992.437c-.54 1.76-.154-3.627.59-.608.204 6.726-3.032-.596-.804-2.521 2.307-1.309 1.704 9.587-.408 7.054-2.767-3.227.63-13.739 2.25-6.849.225.845.361 1.873.38 2.924m-5.347-.144c-.54 1.76-.154-3.628.59-.609.204 6.726-3.032-.595-.804-2.52 2.306-1.31 1.704 9.586-.408 7.054-2.767-3.228.63-13.74 2.249-6.85.226.846.362 1.874.382 2.925m-3.961.024c-.54 1.76-.155-3.628.59-.609.204 6.726-3.032-.595-.804-2.52 2.306-1.31 1.704 9.586-.408 7.054-2.767-3.227.63-13.74 2.249-6.85.226.846.362 1.874.381 2.925m-4.008-.024c-.54 1.76-.155-3.628.59-.609.203 6.726-3.033-.595-.804-2.52 2.306-1.31 1.703 9.586-.408 7.054-2.767-3.228.63-13.74 2.249-6.85.225.846.362 1.874.381 2.925m-4.009 0c-.54 1.76-.154-3.628.59-.609.204 6.726-3.032-.595-.804-2.52 2.307-1.31 1.704 9.586-.408 7.054-2.767-3.228.63-13.74 2.25-6.85.225.846.362 1.874.38 2.925m-4.008-.293c-.54 1.759-.154-3.628.59-.61.204 6.727-3.032-.595-.804-2.52 2.306-1.309 1.704 9.587-.408 7.054-2.767-3.227.63-13.739 2.25-6.849.225.845.361 1.874.38 2.925m-3.96 0c-.54 1.759-.154-3.628.59-.61.204 6.727-3.032-.595-.804-2.52 2.306-1.309 1.704 9.587-.408 7.054-2.767-3.227.63-13.739 2.249-6.849.226.845.362 1.874.382 2.925m-31.765 25c-.54 1.759-.154-3.628.59-.61.204 6.727-3.032-.595-.804-2.52 2.307-1.309 1.704 9.587-.408 7.054-2.767-3.227.63-13.739 2.25-6.849.225.845.361 1.874.38 2.925m-.008-3c-.54 1.759-.154-3.628.59-.61.204 6.727-3.032-.595-.804-2.52 2.307-1.309 1.704 9.587-.408 7.054-2.767-3.227.63-13.739 2.25-6.849.225.845.361 1.874.38 2.925m-.008-2c-.54 1.759-.154-3.628.59-.61.204 6.727-3.032-.595-.804-2.52 2.307-1.309 1.704 9.587-.408 7.054-2.767-3.227.63-13.739 2.25-6.849.225.845.361 1.874.38 2.925m-.008-2.62c-.54 1.759-.154-3.628.59-.61.204 6.727-3.032-.595-.804-2.52 2.307-1.309 1.704 9.587-.408 7.054-2.767-3.227.63-13.739 2.25-6.849.225.845.361 1.873.38 2.924m-.008-1.38c-.54 1.76-.154-3.627.59-.608.204 6.726-3.032-.596-.804-2.52 2.306-1.31 1.704 9.586-.408 7.053-2.767-3.227.63-13.739 2.25-6.849.225.845.361 1.874.38 2.925m-.008-2.67c-.54 1.76-.154-3.627.59-.608.204 6.726-3.032-.595-.804-2.52 2.306-1.31 1.704 9.586-.408 7.054-2.767-3.228.63-13.74 2.25-6.85.225.845.361 1.874.38 2.925m-.008-1.331c-.54 1.759-.154-3.628.59-.61.204 6.727-3.032-.595-.804-2.52 2.306-1.309 1.704 9.587-.408 7.054-2.767-3.227.63-13.739 2.25-6.849.225.845.361 1.874.38 2.925m-.008-1.73c-.54 1.76-.154-3.628.59-.609.204 6.726-3.032-.595-.804-2.52 2.306-1.31 1.704 9.587-.408 7.054-2.767-3.227.63-13.74 2.25-6.85.225.846.361 1.874.38 2.925m-.008-.988c-.54 1.76-.154-3.628.59-.609.204 6.726-3.032-.595-.804-2.52 2.306-1.31 1.704 9.587-.408 7.054-2.767-3.227.63-13.74 2.25-6.85.225.846.361 1.874.38 2.925m-.008-1.282c-.54 1.759-.154-3.628.59-.61.204 6.727-3.032-.595-.804-2.52 2.306-1.309 1.704 9.587-.408 7.054-2.767-3.227.63-13.739 2.25-6.849.225.845.361 1.874.38 2.925m-.008-1c-.54 1.759-.154-3.628.59-.61.204 6.727-3.032-.595-.804-2.52 2.306-1.309 1.704 9.587-.408 7.054-2.767-3.227.63-13.739 2.25-6.849.225.845.361 1.874.38 2.925m-.008-1c-.54 1.759-.154-3.628.59-.61.204 6.727-3.032-.595-.804-2.52 2.306-1.309 1.704 9.587-.408 7.054-2.767-3.227.63-13.739 2.25-6.849.225.845.361 1.874.38 2.925m-.008 0c-.54 1.759-.154-3.628.59-.61.204 6.727-3.032-.595-.804-2.52 2.306-1.309 1.704 9.587-.408 7.054-2.767-3.227.63-13.739 2.25-6.849.225.845.361 1.874.38 2.925m-.008 0c-.54 1.759-.154-3.628.59-.61.204 6.727-3.032-.595-.804-2.52 2.306-1.309 1.704 9.587-.408 7.054-2.767-3.227.63-13.739 2.25-6.849.225.845.361 1.874.38 2.925m-.008 0c-.54 1.759-.154-3.628.59-.61.204 6.727-3.032-.595-.804-2.52 2.306-1.309 1.704 9.587-.408 7.054-2.767-3.227.63-13.739 2.25-6.849.225.845.361 1.874.38 2.925m-.008 0c-.54 1.759-.154-3.628.59-.61.204 6.727-3.032-.595-.804-2.52 2.306-1.309 1.704 9.587-.408 7.054-2.767-3.227.63-13.739 2.25-6.849.225.845.361 1.874.38 2.925m-.008 0c-.54 1.759-.154-3.628.59-.61.204 6.727-3.032-.595-.804-2.52 2.306-1.309 1.704 9.587-.408 7.054-2.767-3.227.63-13.739 2.25-6.849.225.845.361 1.874.38 2.925m-.008 0c-.54 1.759-.154-3.628.59-.61.204 6.727-3.032-.595-.804-2.52 2.306-1.309 1.704 9.587-.408 7.054-2.767-3.227.63-13.739 2.25-6.849.225.845.361 1.874.38 2.925m-.008 0c-.54 1.759-.154-3.628.59-.61.204 6.727-3.032-.595-.804-2.52 2.306-1.309 1.704 9.587-.408 7.054-2.767-3.227.63-13.739 2.25-6.849.225.845.361 1.874.38 2.925m-.008 0c-.54 1.759-.154-3.628.59-.61.204 6.727-3.032-.595-.804-2.52 2.306-1.309 1.704 9.587-.408 7.054-2.767-3.227.63-13.739 2.25-6.849.225.845.361 1.874.38 2.925m-.008 0c-.54 1.759-.154-3.628.59-.61.204 6.727-3.032-.595-.804-2.52 2.306-1.309 1.704 9.587-.408 7.054-2.767-3.227.63-13.739 2.249-6.849.226.845.362 1.874.382 2.925m-.009 0c-.54 1.759-.154-3.628.59-.61.204 6.727-3.032-.595-.804-2.52 2.306-1.309 1.704 9.587-.408 7.054-2.767-3.227.63-13.739 2.249-6.849.226.845.362 1.874.382 2.925m-.009 0c-.54 1.759-.154-3.628.59-.61.204 6.727-3.032-.595-.804-2.52 2.306-1.309 1.704 9.587-.408 7.054-2.767-3.227.63-13.739 2.249-6.849.226.845.362 1.874.382 2.925m-.009.27c-.54 1.759-.154-3.628.59-.61.204 6.727-3.032-.595-.804-2.52 2.306-1.309 1.704 9.587-.408 7.054-2.767-3.227.63-13.739 2.249-6.849.226.845.362 1.874.382 2.925m-.009.41c-.54 1.758-.154-3.629.59-.61.204 6.726-3.032-.595-.804-2.52 2.306-1.31 1.704 9.587-.408 7.054-2.767-3.227.63-13.74 2.249-6.849.226.845.362 1.873.382 2.924m-.009-.048c-.54 1.76-.154-3.628.59-.609.204 6.726-3.032-.595-.804-2.52 2.306-1.31 1.704 9.587-.408 7.054-2.767-3.227.63-13.74 2.249-6.85.226.846.362 1.874.382 2.925m-.01.369c-.54 1.759-.154-3.628.59-.61.204 6.727-3.032-.595-.803-2.52 2.306-1.309 1.703 9.587-.409 7.054-2.766-3.227.63-13.739 2.25-6.849.225.845.362 1.874.381 2.925m-.009.716c-.54 1.759-.154-3.628.59-.61.204 6.727-3.032-.595-.804-2.52 2.306-1.309 1.704 9.587-.408 7.054-2.767-3.227.63-13.739 2.25-6.849.225.845.361 1.874.38 2.925m-.008.988c-.54 1.759-.155-3.628.59-.61.203 6.727-3.032-.595-.804-2.52 2.306-1.309 1.703 9.587-.408 7.054-2.767-3.227.63-13.739 2.249-6.849.225.845.362 1.874.381 2.925m-.009.77c-.54 1.76-.154-3.627.59-.608.204 6.726-3.032-.595-.804-2.52 2.307-1.31 1.704 9.586-.408 7.054-2.767-3.228.63-13.74 2.25-6.85.225.846.362 1.874.38 2.925m-.008.525c-.54 1.759-.154-3.628.59-.61.204 6.727-3.032-.595-.804-2.52 2.306-1.309 1.704 9.587-.408 7.054-2.767-3.227.63-13.739 2.249-6.849.226.845.362 1.874.382 2.925m-5.01-2c-.539 1.759-.153-3.628.59-.61.205 6.727-3.031-.595-.803-2.52 2.306-1.309 1.704 9.587-.408 7.054-2.767-3.227.63-13.739 2.249-6.849.226.845.362 1.874.382 2.925m-4.01-1.465c-.539 1.759-.153-3.628.59-.61.205 6.727-3.031-.595-.803-2.52 2.306-1.309 1.704 9.587-.408 7.054-2.767-3.227.63-13.739 2.249-6.849.226.845.362 1.874.382 2.925m-4.01-1.535c-.539 1.759-.153-3.628.59-.61.205 6.727-3.031-.595-.803-2.52 2.306-1.309 1.704 9.587-.408 7.054-2.767-3.227.63-13.739 2.249-6.849.226.845.362 1.874.382 2.925m-4.01-1c-.539 1.759-.153-3.628.59-.61.205 6.727-3.031-.595-.803-2.52 2.306-1.309 1.704 9.587-.408 7.054-2.767-3.227.63-13.739 2.249-6.849.226.845.362 1.874.382 2.925m-3.757-1c-.54 1.759-.154-3.628.59-.61.204 6.727-3.032-.595-.804-2.52 2.306-1.309 1.704 9.587-.408 7.054-2.767-3.227.63-13.739 2.25-6.849.225.845.361 1.874.38 2.925m-30.26-2c-.54 1.759-.154-3.628.59-.61.204 6.727-3.032-.595-.804-2.52 2.306-1.309 1.704 9.587-.408 7.054-2.767-3.227.63-13.739 2.249-6.849.226.845.362 1.874.382 2.925m-4.01 1.341c-.539 1.76-.153-3.628.59-.608.205 6.726-3.031-.596-.803-2.521 2.306-1.31 1.704 9.587-.408 7.054-2.767-3.227.63-13.739 2.249-6.849.226.845.362 1.873.382 2.924m-4.01 1.659c-.539 1.759-.153-3.628.59-.61.205 6.727-3.031-.595-.803-2.52 2.306-1.309 1.704 9.587-.408 7.054-2.767-3.227.63-13.739 2.249-6.849.226.845.362 1.874.382 2.925m-4.01 1c-.539 1.759-.153-3.628.59-.61.205 6.727-3.031-.595-.803-2.52 2.306-1.309 1.704 9.587-.408 7.054-2.767-3.227.63-13.739 2.249-6.849.226.845.362 1.874.382 2.925m-4.01 1.535c-.539 1.759-.153-3.628.59-.61.205 6.727-3.031-.595-.803-2.52 2.306-1.309 1.704 9.587-.408 7.054-2.767-3.227.63-13.739 2.249-6.849.226.845.362 1.874.382 2.925m-4.01 1.132c-.539 1.76-.153-3.628.59-.608.205 6.726-3.031-.596-.803-2.521 2.306-1.31 1.704 9.587-.408 7.054-2.767-3.227.63-13.739 2.249-6.849.226.845.362 1.873.382 2.924m-4.01 1.88c-.539 1.76-.153-3.628.59-.609.205 6.726-3.031-.595-.803-2.52 2.306-1.31 1.704 9.587-.408 7.054-2.767-3.227.63-13.74 2.249-6.85.226.846.362 1.874.382 2.925m-4.01 1.856c-.539 1.759-.153-3.628.59-.609.205 6.726-3.031-.595-.803-2.52 2.306-1.31 1.704 9.586-.408 7.054-2.767-3.228.63-13.74 2.249-6.85.226.846.362 1.874.382 2.925m-4.01 2.597c-.539 1.759-.153-3.628.59-.61.205 6.727-3.031-.595-.803-2.52 2.306-1.309 1.704 9.587-.408 7.054-2.767-3.227.63-13.739 2.249-6.849.226.845.362 1.874.382 2.925m-4.01 2.656c-.539 1.76-.153-3.627.59-.608.205 6.726-3.031-.596-.803-2.521 2.306-1.309 1.704 9.587-.408 7.054-2.767-3.227.63-13.739 2.249-6.849.226.845.362 1.873.382 2.924m-4.01 2.844c-.539 1.76-.153-3.628.59-.609.205 6.726-3.031-.595-.803-2.52 2.306-1.31 1.704 9.587-.408 7.054-2.767-3.227.63-13.74 2.249-6.849.226.845.362 1.873.382 2.924m-4.01 3.11c-.539 1.758-.153-3.629.59-.61.205 6.726-3.031-.595-.803-2.52 2.306-1.31 1.704 9.587-.408 7.054-2.767-3.227.63-13.74 2.249-6.85.226.846.362 1.874.382 2.925M96.86 18.128c-.54 1.759-.154-3.628.59-.61.204 6.727-3.032-.595-.804-2.52 2.307-1.309 1.704 9.587-.408 7.054-2.767-3.227.63-13.739 2.25-6.849.225.845.361 1.874.38 2.925m-4.008 0c-.54 1.759-.154-3.628.59-.61.204 6.727-3.032-.595-.804-2.52 2.307-1.309 1.704 9.587-.408 7.054-2.767-3.227.63-13.739 2.25-6.849.225.845.361 1.874.38 2.925m-4.008-.025c-.54 1.76-.154-3.627.59-.608.204 6.726-3.032-.596-.804-2.521 2.307-1.309 1.704 9.587-.408 7.054-2.767-3.227.63-13.739 2.25-6.849.225.845.361 1.873.38 2.924m-4.008 0c-.54 1.76-.154-3.627.59-.608.204 6.726-3.032-.596-.804-2.521 2.307-1.309 1.704 9.587-.408 7.054-2.767-3.227.63-13.739 2.25-6.849.225.845.361 1.873.38 2.924m-4.008-.096c-.54 1.76-.154-3.628.59-.609.204 6.726-3.032-.595-.804-2.52 2.307-1.31 1.704 9.587-.408 7.054-2.767-3.227.63-13.74 2.25-6.85.225.846.361 1.874.38 2.925m-4.008-.048c-.54 1.76-.154-3.628.59-.609.204 6.726-3.032-.595-.804-2.52 2.307-1.31 1.704 9.586-.408 7.054-2.767-3.228.63-13.74 2.25-6.85.225.846.361 1.874.38 2.925m-4.008-.072c-.54 1.759-.154-3.628.59-.61.204 6.727-3.032-.595-.804-2.52 2.307-1.309 1.704 9.587-.408 7.054-2.767-3.227.63-13.739 2.25-6.849.225.845.361 1.874.38 2.925m-4.008.048c-.54 1.759-.154-3.628.59-.609.204 6.726-3.032-.595-.804-2.52 2.307-1.31 1.704 9.586-.408 7.054-2.767-3.228.63-13.74 2.25-6.85.225.846.361 1.874.38 2.925m-4.008-.048c-.54 1.759-.154-3.628.59-.61.204 6.727-3.032-.595-.804-2.52 2.307-1.309 1.704 9.587-.408 7.054-2.767-3.227.63-13.739 2.25-6.849.225.845.361 1.874.38 2.925m-4.008 0c-.54 1.759-.154-3.628.59-.61.204 6.727-3.032-.595-.804-2.52 2.307-1.309 1.704 9.587-.408 7.054-2.767-3.227.63-13.739 2.25-6.849.225.845.361 1.874.38 2.925m-4.008 0c-.54 1.759-.154-3.628.59-.61.204 6.727-3.032-.595-.804-2.52 2.307-1.309 1.704 9.587-.408 7.054-2.767-3.227.63-13.739 2.25-6.849.225.845.361 1.874.38 2.925m-3.746 0c-.54 1.759-.155-3.628.59-.61.203 6.727-3.033-.595-.804-2.52 2.306-1.309 1.703 9.587-.409 7.054-2.766-3.227.63-13.739 2.25-6.849.225.845.362 1.874.381 2.925m-3.84-.025c-.54 1.76-.154-3.627.59-.608.204 6.726-3.032-.596-.804-2.521 2.306-1.309 1.704 9.587-.408 7.054-2.767-3.227.63-13.739 2.249-6.849.226.845.362 1.873.382 2.924m-3.816.073c-.54 1.759-.155-3.628.59-.609.203 6.726-3.033-.595-.804-2.52 2.306-1.31 1.703 9.586-.409 7.054-2.766-3.228.63-13.74 2.25-6.85.225.846.362 1.874.381 2.925m38.37 10.526c-.54 1.759-.155-3.628.589-.61.204 6.727-3.032-.595-.804-2.52 2.307-1.309 1.704 9.587-.408 7.054-2.767-3.227.63-13.739 2.25-6.849.225.845.361 1.874.38 2.925m-4.008-1c-.54 1.759-.154-3.628.59-.61.204 6.727-3.032-.595-.804-2.52 2.307-1.309 1.704 9.587-.408 7.054-2.767-3.227.63-13.739 2.25-6.849.225.845.361 1.874.38 2.925m-4.008-1c-.54 1.759-.154-3.628.59-.61.204 6.727-3.032-.595-.804-2.52 2.307-1.309 1.704 9.587-.408 7.054-2.767-3.227.63-13.739 2.25-6.849.225.845.361 1.874.38 2.925m-4.008 0c-.54 1.759-.154-3.628.59-.61.204 6.727-3.032-.595-.804-2.52 2.307-1.309 1.704 9.587-.408 7.054-2.767-3.227.63-13.739 2.25-6.849.225.845.361 1.874.38 2.925m-4.008-1c-.54 1.759-.154-3.628.59-.61.204 6.727-3.032-.595-.804-2.52 2.307-1.309 1.704 9.587-.408 7.054-2.767-3.227.63-13.739 2.25-6.849.225.845.361 1.874.38 2.925m-4.008-1c-.54 1.759-.154-3.628.59-.61.204 6.727-3.032-.595-.804-2.52 2.307-1.309 1.704 9.587-.408 7.054-2.767-3.227.63-13.739 2.25-6.849.225.845.361 1.874.38 2.925m-4.008-1c-.54 1.759-.154-3.628.59-.61.204 6.727-3.032-.595-.804-2.52 2.307-1.309 1.704 9.587-.408 7.054-2.767-3.227.63-13.739 2.25-6.849.225.845.361 1.874.38 2.925m-4.008 0c-.54 1.759-.154-3.628.59-.61.204 6.727-3.032-.595-.804-2.52 2.307-1.309 1.704 9.587-.408 7.054-2.767-3.227.63-13.739 2.25-6.849.225.845.361 1.874.38 2.925m-4.008-1c-.54 1.759-.154-3.628.59-.61.204 6.727-3.032-.595-.804-2.52 2.307-1.309 1.704 9.587-.408 7.054-2.767-3.227.63-13.739 2.25-6.849.225.845.361 1.874.38 2.925m-4.008 0c-.54 1.759-.154-3.628.59-.61.204 6.727-3.032-.595-.804-2.52 2.307-1.309 1.704 9.587-.408 7.054-2.767-3.227.63-13.739 2.25-6.849.225.845.361 1.874.38 2.925m-4.008 0c-.54 1.759-.154-3.628.59-.61.204 6.727-3.032-.595-.804-2.52 2.307-1.309 1.704 9.587-.408 7.054-2.767-3.227.63-13.739 2.25-6.849.225.845.361 1.874.38 2.925m-4.008 0c-.54 1.759-.154-3.628.59-.61.204 6.727-3.032-.595-.804-2.52 2.307-1.309 1.704 9.587-.408 7.054-2.767-3.227.63-13.739 2.25-6.849.225.845.361 1.874.38 2.925m-4.008 0c-.54 1.759-.154-3.628.59-.61.204 6.727-3.032-.595-.804-2.52 2.307-1.309 1.704 9.587-.408 7.054-2.767-3.227.63-13.739 2.25-6.849.225.845.361 1.874.38 2.925m-4.008 0c-.54 1.759-.154-3.628.59-.61.204 6.727-3.032-.595-.804-2.52 2.307-1.309 1.704 9.587-.408 7.054-2.767-3.227.63-13.739 2.25-6.849.225.845.361 1.874.38 2.925m-4.008 0c-.54 1.759-.154-3.628.59-.61.204 6.727-3.032-.595-.804-2.52 2.307-1.309 1.704 9.587-.408 7.054-2.767-3.227.63-13.739 2.25-6.849.225.845.361 1.874.38 2.925m-4.008 0c-.54 1.759-.154-3.628.59-.61.204 6.727-3.032-.595-.804-2.52 2.307-1.309 1.704 9.587-.408 7.054-2.767-3.227.63-13.739 2.25-6.849.225.845.361 1.874.38 2.925m-4.008 0c-.54 1.759-.154-3.628.59-.61.204 6.727-3.032-.595-.804-2.52 2.307-1.309 1.704 9.587-.408 7.054-2.767-3.227.63-13.739 2.25-6.849.225.845.361 1.874.38 2.925m-4.008 0c-.54 1.759-.154-3.628.59-.61.204 6.727-3.032-.595-.804-2.52 2.307-1.309 1.704 9.587-.408 7.054-2.767-3.227.63-13.739 2.25-6.849.225.845.361 1.874.38 2.925m-4.008 0c-.54 1.759-.154-3.628.59-.61.204 6.727-3.032-.595-.804-2.52 2.307-1.309 1.704 9.587-.408 7.054-2.767-3.227.63-13.739 2.25-6.849.225.845.361 1.874.38 2.925m-4.008 0c-.54 1.759-.154-3.628.59-.61.204 6.727-3.032-.595-.804-2.52 2.307-1.309 1.704 9.587-.408 7.054-2.767-3.227.63-13.739 2.25-6.849.225.845.361 1.874.38 2.925m-4.008 0c-.54 1.759-.154-3.628.59-.61.204 6.727-3.032-.595-.804-2.52 2.307-1.309 1.704 9.587-.408 7.054-2.767-3.227.63-13.739 2.25-6.849.225.845.361 1.874.38 2.925m-4.008 1c-.54 1.759-.154-3.628.59-.61.204 6.727-3.032-.595-.804-2.52 2.307-1.309 1.704 9.587-.408 7.054-2.767-3.227.63-13.739 2.25-6.849.225.845.361 1.874.38 2.925m-4.008 1c-.54 1.759-.154-3.628.59-.61.204 6.727-3.032-.595-.804-2.52 2.307-1.309 1.704 9.587-.408 7.054-2.767-3.227.63-13.739 2.25-6.849.225.845.361 1.874.38 2.925m-4.008 1c-.54 1.759-.154-3.628.59-.61.204 6.727-3.032-.595-.804-2.52 2.307-1.309 1.704 9.587-.408 7.054-2.767-3.227.63-13.739 2.25-6.849.225.845.361 1.874.38 2.925m-4.008 1c-.54 1.759-.154-3.628.59-.61.204 6.727-3.032-.595-.804-2.52 2.307-1.309 1.704 9.587-.408 7.054-2.767-3.227.63-13.739 2.25-6.849.225.845.361 1.874.38 2.925m-4.008 1c-.54 1.759-.154-3.628.59-.61.204 6.727-3.032-.595-.804-2.52 2.307-1.309 1.704 9.587-.408 7.054-2.767-3.227.63-13.739 2.25-6.849.225.845.361 1.874.38 2.925m-4.008 2c-.54 1.759-.154-3.628.59-.61.204 6.727-3.032-.595-.804-2.52 2.307-1.309 1.704 9.587-.408 7.054-2.767-3.227.63-13.739 2.25-6.849.225.845.361 1.874.38 2.925m-4.008 2c-.54 1.759-.154-3.628.59-.61.204 6.727-3.032-.595-.804-2.52 2.307-1.309 1.704 9.587-.408 7.054-2.767-3.227.63-13.739 2.25-6.849.225.845.361 1.874.38 2.925m-4.008 2c-.54 1.759-.154-3.628.59-.61.204 6.727-3.032-.595-.804-2.52 2.307-1.309 1.704 9.587-.408 7.054-2.767-3.227.63-13.739 2.25-6.849.225.845.361 1.874.38 2.925m-4.008 2c-.54 1.759-.154-3.628.59-.61.204 6.727-3.032-.595-.804-2.52 2.307-1.309 1.704 9.587-.408 7.054-2.767-3.227.63-13.739 2.25-6.849.225.845.361 1.874.38 2.925m-4.008 2c-.54 1.759-.154-3.628.59-.61.204 6.727-3.032-.595-.804-2.52 2.307-1.309 1.704 9.587-.408 7.054-2.767-3.227.63-13.739 2.25-6.849.225.845.361 1.874.38 2.925m-4.008 3c-.54 1.759-.154-3.628.59-.61.204 6.727-3.032-.595-.804-2.52 2.307-1.309 1.704 9.587-.408 7.054-2.767-3.227.63-13.739 2.25-6.849.225.845.361 1.874.38 2.925m-4.008 3c-.54 1.759-.154-3.628.59-.61.204 6.727-3.032-.595-.804-2.52 2.307-1.309 1.704 9.587-.408 7.054-2.767-3.227.63-13.739 2.25-6.849.225.845.361 1.874.38 2.925m62.992-16c-.54 1.759-.154-3.628.59-.61.204 6.727-3.032-.595-.804-2.52 2.307-1.309 1.704 9.587-.408 7.054-2.767-3.227.63-13.739 2.25-6.849.225.845.361 1.874.38 2.925m-4.008-2c-.54 1.759-.154-3.628.59-.61.204 6.727-3.032-.595-.804-2.52 2.307-1.309 1.704 9.587-.408 7.054-2.767-3.227.63-13.739 2.25-6.849.225.845.361 1.874.38 2.925m-4.008-2c-.54 1.759-.154-3.628.59-.61.204 6.727-3.032-.595-.804-2.52 2.307-1.309 1.704 9.587-.408 7.054-2.767-3.227.63-13.739 2.25-6.849.225.845.361 1.874.38 2.925m-4.008-2c-.54 1.759-.154-3.628.59-.61.204 6.727-3.032-.595-.804-2.52 2.307-1.309 1.704 9.587-.408 7.054-2.767-3.227.63-13.739 2.25-6.849.225.845.361 1.874.38 2.925m-4.008-1c-.54 1.759-.154-3.628.59-.61.204 6.727-3.032-.595-.804-2.52 2.307-1.309 1.704 9.587-.408 7.054-2.767-3.227.63-13.739 2.25-6.849.225.845.361 1.874.38 2.925m-4.008-2c-.54 1.759-.154-3.628.59-.61.204 6.727-3.032-.595-.804-2.52 2.307-1.309 1.704 9.587-.408 7.054-2.767-3.227.63-13.739 2.25-6.849.225.845.361 1.874.38 2.925m-4.008-1c-.54 1.759-.154-3.628.59-.61.204 6.727-3.032-.595-.804-2.52 2.307-1.309 1.704 9.587-.408 7.054-2.767-3.227.63-13.739 2.25-6.849.225.845.361 1.874.38 2.925m-4.008-1c-.54 1.759-.154-3.628.59-.61.204 6.727-3.032-.595-.804-2.52 2.307-1.309 1.704 9.587-.408 7.054-2.767-3.227.63-13.739 2.25-6.849.225.845.361 1.874.38 2.925m-4.008 0c-.54 1.759-.154-3.628.59-.61.204 6.727-3.032-.595-.804-2.52 2.307-1.309 1.704 9.587-.408 7.054-2.767-3.227.63-13.739 2.25-6.849.225.845.361 1.874.38 2.925m-4.008-1c-.54 1.759-.154-3.628.59-.61.204 6.727-3.032-.595-.804-2.52 2.307-1.309 1.704 9.587-.408 7.054-2.767-3.227.63-13.739 2.25-6.849.225.845.361 1.874.38 2.925m-4.008-1c-.54 1.759-.154-3.628.59-.61.204 6.727-3.032-.595-.804-2.52 2.307-1.309 1.704 9.587-.408 7.054-2.767-3.227.63-13.739 2.25-6.849.225.845.361 1.874.38 2.925m-4.008 0c-.54 1.759-.154-3.628.59-.61.204 6.727-3.032-.595-.804-2.52 2.307-1.309 1.704 9.587-.408 7.054-2.767-3.227.63-13.739 2.25-6.849.225.845.361 1.874.38 2.925m-4.008-1c-.54 1.759-.154-3.628.59-.61.204 6.727-3.032-.595-.804-2.52 2.307-1.309 1.704 9.587-.408 7.054-2.767-3.227.63-13.739 2.25-6.849.225.845.361 1.874.38 2.925m-4.008 0c-.54 1.759-.154-3.628.59-.61.204 6.727-3.032-.595-.804-2.52 2.307-1.309 1.704 9.587-.408 7.054-2.767-3.227.63-13.739 2.25-6.849.225.845.361 1.874.38 2.925m-4.008 0c-.54 1.759-.154-3.628.59-.61.204 6.727-3.032-.595-.804-2.52 2.307-1.309 1.704 9.587-.408 7.054-2.767-3.227.63-13.739 2.25-6.849.225.845.361 1.874.38 2.925m-4.008 0c-.54 1.759-.154-3.628.59-.61.204 6.727-3.032-.595-.804-2.52 2.307-1.309 1.704 9.587-.408 7.054-2.767-3.227.63-13.739 2.25-6.849.225.845.361 1.874.38 2.925m-4.008 0c-.54 1.759-.154-3.628.59-.61.204 6.727-3.032-.595-.804-2.52 2.307-1.309 1.704 9.587-.408 7.054-2.767-3.227.63-13.739 2.25-6.849.225.845.361 1.874.38 2.925m-4.008 0c-.54 1.759-.154-3.628.59-.61.204 6.727-3.032-.595-.804-2.52 2.307-1.309 1.704 9.587-.408 7.054-2.767-3.227.63-13.739 2.25-6.849.225.845.361 1.874.38 2.925m-4.008 0c-.54 1.759-.154-3.628.59-.61.204 6.727-3.032-.595-.804-2.52 2.307-1.309 1.704 9.587-.408 7.054-2.767-3.227.63-13.739 2.25-6.849.225.845.361 1.874.38 2.925m-4.008 1c-.54 1.759-.154-3.628.59-.61.204 6.727-3.032-.595-.804-2.52 2.307-1.309 1.704 9.587-.408 7.054-2.767-3.227.63-13.739 2.25-6.849.225.845.361 1.874.38 2.925m-4.008 0c-.54 1.759-.154-3.628.59-.61.204 6.727-3.032-.595-.804-2.52 2.307-1.309 1.704 9.587-.408 7.054-2.767-3.227.63-13.739 2.25-6.849.225.845.361 1.874.38 2.925m-4.008 1c-.54 1.759-.154-3.628.59-.61.204 6.727-3.032-.595-.804-2.52 2.307-1.309 1.704 9.587-.408 7.054-2.767-3.227.63-13.739 2.25-6.849.225.845.361 1.874.38 2.925m-4.008 1c-.54 1.759-.154-3.628.59-.61.204 6.727-3.032-.595-.804-2.52 2.307-1.309 1.704 9.587-.408 7.054-2.767-3.227.63-13.739 2.25-6.849.225.845.361 1.874.38 2.925m-4.008 1c-.54 1.759-.154-3.628.59-.61.204 6.727-3.032-.595-.804-2.52 2.307-1.309 1.704 9.587-.408 7.054-2.767-3.227.63-13.739 2.25-6.849.225.845.361 1.874.38 2.925m-4.008 1c-.54 1.759-.154-3.628.59-.61.204 6.727-3.032-.595-.804-2.52 2.307-1.309 1.704 9.587-.408 7.054-2.767-3.227.63-13.739 2.25-6.849.225.845.361 1.874.38 2.925m-4.008 1c-.54 1.759-.154-3.628.59-.61.204 6.727-3.032-.595-.804-2.52 2.307-1.309 1.704 9.587-.408 7.054-2.767-3.227.63-13.739 2.25-6.849.225.845.361 1.874.38 2.925m-4.008 2c-.54 1.759-.154-3.628.59-.61.204 6.727-3.032-.595-.804-2.52 2.307-1.309 1.704 9.587-.408 7.054-2.767-3.227.63-13.739 2.25-6.849.225.845.361 1.874.38 2.925m-4.008 1c-.54 1.759-.154-3.628.59-.61.204 6.727-3.032-.595-.804-2.52 2.307-1.309 1.704 9.587-.408 7.054-2.767-3.227.63-13.739 2.25-6.849.225.845.361 1.874.38 2.925m-4.008 2c-.54 1.759-.154-3.628.59-.61.204 6.727-3.032-.595-.804-2.52 2.307-1.309 1.704 9.587-.408 7.054-2.767-3.227.63-13.739 2.25-6.849.225.845.361 1.874.38 2.925M55 26c-.54 1.758-.154-3.629.59-.61.204 6.726-3.032-.595-.804-2.52 2.306-1.31 1.704 9.587-.408 7.054-2.767-3.227.63-13.74 2.25-6.849.225.845.361 1.873.38 2.924M53 28c-.54 1.76-.154-3.628.59-.609.204 6.726-3.032-.595-.804-2.52 2.306-1.31 1.704 9.587-.408 7.054-2.767-3.227.63-13.74 2.25-6.849.225.845.361 1.873.38 2.924M51 31c-.54 1.76-.154-3.628.59-.609.204 6.726-3.032-.595-.804-2.52 2.306-1.31 1.704 9.587-.408 7.054-2.767-3.227.63-13.74 2.25-6.849.225.845.361 1.873.38 2.924M49 34.491c-.54 1.76-.154-3.628.59-.609.204 6.726-3.032-.595-.804-2.52 2.306-1.31 1.704 9.587-.408 7.054-2.767-3.227.63-13.74 2.25-6.849.225.845.361 1.873.38 2.924M47 39.001c-.54 1.758-.154-3.629.59-.61.204 6.726-3.032-.595-.804-2.52 2.306-1.31 1.704 9.587-.408 7.054-2.767-3.227.63-13.74 2.25-6.849.225.845.361 1.873.38 2.924" fill="none" stroke="green" stroke-width=".418"/></svg>