<svg height="182" width="160" xmlns:xlink="http://www.w3.org/1999/xlink" xmlns="http://www.w3.org/2000/svg"><defs><g id="a"><path d="M-15.5-41.55q-2.65-3.1-2.5-7.1-.15-5.3 5.35-9.8Q-7.15-63.5.5-64q7.6.5 13.05 5.55 5.45 4.5 5.45 9.8 0 4-2.6 7.1h.1-.05l-2.6 3.1v.8l-.2-.95-.8.05.65 9.65h.15l.25.75.2.5.2.4-.15.45-.3.75-.2.35-.9.7h-.05l-.05 1.5h.05l-.05.5h-.05l-.05.45h.05l-.25 2.65h-1.8l-.75 1.55h5.4l1.15.4q.55.55.55 1.65 0 1.05-.55 1.6-.45.45-1.15.45H8.6v1.45l-4.5-.25.65-.5q.9-.9.9-2.75 0-1.9-.9-2.8-.8-.8-2.05-.8h-6.6v1.55h6.55q.7 0 1.15.4.55.55.55 1.65 0 1.05-.55 1.6-.45.45-1.15.45H-3.9v1.4l-6.55-.35-1.95-.4q-1.45-1.7-1.75-3.65l-.1-1.2.05-.95.55-1.85h.1v-.55l.15-.15V-24q.75.6 1.55.55l.25-.05q1.9.5 3-.85.4.2.2-.15 1-.75 1.25-2.4-.05-.7-.45-2l.45-6.3-1.35-.1-.5 6.45.15.05v.05h.05l.4 1.4q.15 1.45-.95 1.9-.55.9-2.1.6h-.5q-.6-.2-1.3-.85l-.2-.35v-2.1l.25-.75h.1l.7-9.65-.85-.05-.4-.05v-.15l-2.05-2.75h.2M-13.8-22l.05.1-.05-.1m3.75-6.45-.05-.05v.05h.05" fill="#fff" fill-rule="evenodd" transform="translate(18.6 64.6)"/><path d="M13.85-37.65 14.5-34l.15 1.95.05-.05v.1l.2 2.65v.35h-.1v.1q.25.7.6 1.1-.05.25.15.3.3 1.6-.6 2.45l-.15.2q-.15-.05-.2.1l-.25.25-.55.5q-.55.4-1.1.5h-.05l.05-1.5h.05l.9-.7.2-.35.3-.75.15-.45-.2-.4-.2-.5-.25-.75h-.15l-.65-9.65.8-.05.2.95m-1.5 17.75h2.9q1.25 0 2.05.8.9.9.9 2.8 0 1.85-.9 2.75-.8.8-2.05.8H8.6v-1.5h6.6q.7 0 1.15-.45.55-.55.55-1.6 0-1.1-.55-1.65l-1.15-.4H9.8l.75-1.55h1.8M4.1-13.05l-1.3.3h-6.7v-1.5h6.55q.7 0 1.15-.45.55-.55.55-1.6 0-1.1-.55-1.65-.45-.4-1.15-.4H-3.9v-1.55h6.6q1.25 0 2.05.8.9.9.9 2.8 0 1.85-.9 2.75l-.65.5M-13.4-24l-.55-.5-.2-.25-.2-.1-.2-.2q-.9-.85-.55-2.45.15-.05.15-.3l.55-1.1.05-.1h-.1l-.05-.35h.05l.2-2.65v-.1l.05.05.1-1.95.85-4.6.85.05-.7 9.65h-.1l-.25.75-.25.5-.15.4.15.45.25.75.2.35q.7.65 1.3.85h.5q1.55.3 2.1-.6 1.1-.45.95-1.9l-.4-1.4h-.05v-.05l-.15-.05.5-6.45 1.35.1-.45 6.3q.4 1.3.45 2-.25 1.65-1.25 2.4.2.35-.2.15-1.1 1.35-3 .85l-.25.05q-.8.05-1.55-.55" fill-rule="evenodd" transform="translate(18.6 64.6)"/><path d="M3.1 23.05q-2.65-3.1-2.5-7.1-.15-5.3 5.35-9.8Q11.45 1.1 19.1.6q7.6.5 13.05 5.55 5.45 4.5 5.45 9.8 0 4-2.6 7.1" fill="none" stroke="#000" stroke-linecap="round" stroke-linejoin="round" stroke-width="1.2"/><path d="M5.4-44.05q.15.45.45.75l.7.25.95-.6q.4-.65.4-1.65 0-1.35-.9-3.25h1.05q.9 1.6.9 3.15 0 1.55-.65 2.4-.6.8-1.6.8-1.35 0-1.9-1.4-.6 1.4-1.9 1.4-1.05 0-1.65-.85Q.6-43.9.6-45.4q0-1.55.95-3.15h1q-.85 1.9-.85 3.25 0 1 .35 1.65.4.6.95.6.4 0 .7-.3l.45-.7.1-1.15V-47H5.3v1.8l.1 1.15" fill-rule="evenodd" transform="translate(18.6 64.6)"/></g></defs><path d="M57.998 29.22c5.473-55.848 9.998-10.624 9.998-10.624m40.788 10.624c-5.473-55.848-9.997-10.624-9.997-10.624" fill="#fc0" stroke="#806600" stroke-width="2.332"/><use height="51.85" transform="matrix(2 0 0 2 45.141 15)" width="38.2" xlink:href="#a"/><path d="M58.114 26.895c-.54 1.76-.154-3.628.59-.609.087 7.164-3.128-1.534-.59-2.634 2.396-.09 1.034 10.516-.898 6.796-2.511-4.702 1.589-13.267 2.718-5.59l.13.983.059 1.054m-4.054.903c-.54 1.76-.154-3.628.59-.608.087 7.164-3.128-1.535-.59-2.635 2.396-.09 1.034 10.516-.898 6.796-2.511-4.702 1.589-13.267 2.718-5.59l.13.984.059 1.053M47.86 37.921c-.54 1.759-.154-3.628.59-.61.087 7.165-3.128-1.533-.59-2.633 2.396-.091 1.034 10.516-.899 6.795-2.51-4.701 1.59-13.266 2.719-5.589l.13.983.059 1.054m1.804-5.76c-.54 1.759-.155-3.628.59-.609.086 7.164-3.129-1.534-.59-2.634 2.396-.091 1.034 10.516-.899 6.795-2.51-4.701 1.59-13.266 2.719-5.589l.13.983.058 1.054m-2.821 1.125c-.54 1.759-.154-3.628.59-.61.087 7.165-3.128-1.534-.59-2.634 2.396-.09 1.034 10.517-.899 6.796-2.51-4.701 1.59-13.266 2.719-5.589l.13.983.059 1.054m-3.31 2.174c-.54 1.76-.154-3.628.59-.609.087 7.164-3.128-1.534-.59-2.634 2.397-.09 1.034 10.516-.898 6.796-2.511-4.702 1.59-13.267 2.719-5.59l.13.983.058 1.054M93.86 17.043c-.54 1.759-.154-3.628.59-.609.087 7.164-3.128-1.534-.59-2.634 2.396-.091 1.034 10.516-.899 6.795-2.51-4.701 1.59-13.266 2.719-5.589l.13.983.059 1.054m-6.01-.583c-.539 1.76-.153-3.628.59-.609.088 7.164-3.127-1.534-.59-2.634 2.397-.09 1.035 10.516-.898 6.796-2.51-4.702 1.59-13.267 2.719-5.59l.13.983.059 1.054m-15.01 0c-.539 1.76-.153-3.628.59-.609.088 7.164-3.127-1.534-.59-2.634 2.397-.09 1.035 10.516-.898 6.796-2.51-4.702 1.59-13.267 2.719-5.59l.13.983.059 1.054m12.99.438c-.539 1.76-.153-3.628.59-.609.088 7.164-3.127-1.534-.59-2.634 2.397-.09 1.035 10.516-.898 6.796-2.51-4.702 1.59-13.267 2.719-5.59l.13.983.059 1.054m-5.348-.144c-.54 1.759-.155-3.628.59-.61.086 7.165-3.129-1.534-.59-2.634 2.395-.09 1.033 10.517-.9 6.796-2.51-4.701 1.59-13.266 2.72-5.589l.13.983.058 1.054m-3.96.024c-.54 1.759-.155-3.628.59-.61.086 7.165-3.129-1.533-.59-2.634 2.395-.09 1.033 10.517-.9 6.796-2.51-4.701 1.59-13.266 2.72-5.589l.13.983.058 1.054m-4.009-.024c-.54 1.759-.154-3.628.59-.61.087 7.165-3.128-1.534-.59-2.634 2.396-.09 1.034 10.517-.898 6.796-2.511-4.701 1.589-13.266 2.718-5.589l.13.983.059 1.054m-4.009 0c-.54 1.759-.154-3.628.59-.61.087 7.165-3.128-1.534-.59-2.634 2.396-.09 1.034 10.517-.899 6.796-2.51-4.701 1.59-13.266 2.719-5.589l.13.983.059 1.054m-4.01-.294c-.54 1.76-.154-3.628.59-.609.087 7.164-3.128-1.534-.59-2.634 2.397-.09 1.035 10.516-.898 6.796-2.511-4.702 1.59-13.267 2.719-5.59l.13.983.058 1.054m-3.96 0c-.54 1.76-.155-3.628.59-.609.086 7.164-3.129-1.534-.59-2.634 2.396-.09 1.033 10.516-.9 6.796-2.51-4.702 1.59-13.267 2.72-5.59l.13.983.058 1.054m-31.764 25c-.54 1.76-.154-3.628.59-.609.087 7.164-3.128-1.534-.59-2.634 2.396-.09 1.034 10.516-.899 6.796-2.51-4.702 1.59-13.267 2.719-5.59l.13.983.059 1.054m-.01-3c-.539 1.76-.153-3.628.59-.609.088 7.164-3.127-1.534-.59-2.634 2.397-.09 1.035 10.516-.898 6.796-2.51-4.702 1.59-13.267 2.719-5.59l.13.983.059 1.054m-.01-2c-.539 1.76-.153-3.628.59-.609.088 7.164-3.127-1.534-.59-2.634 2.397-.09 1.035 10.516-.898 6.796-2.51-4.702 1.59-13.267 2.719-5.59l.13.983.059 1.054m-.01-2.62c-.539 1.76-.153-3.628.59-.609.088 7.164-3.127-1.534-.59-2.634 2.397-.09 1.035 10.516-.898 6.796-2.51-4.702 1.59-13.267 2.719-5.59l.13.983.058 1.054m-.008-1.38c-.54 1.76-.154-3.628.59-.609.087 7.164-3.128-1.534-.59-2.634 2.396-.09 1.034 10.516-.899 6.796-2.51-4.702 1.59-13.267 2.719-5.59l.13.983.058 1.054m-.008-2.669c-.54 1.76-.155-3.628.59-.608.087 7.164-3.128-1.535-.59-2.635 2.396-.09 1.034 10.517-.899 6.796-2.51-4.702 1.59-13.267 2.719-5.59l.13.984.058 1.053m-.008-1.33c-.54 1.758-.155-3.629.59-.61.087 7.164-3.129-1.534-.59-2.634 2.396-.09 1.034 10.516-.899 6.796-2.51-4.702 1.59-13.267 2.719-5.59l.13.983.058 1.054m-.008-1.73c-.54 1.76-.155-3.627.59-.608.086 7.164-3.129-1.534-.59-2.634 2.396-.091 1.034 10.516-.899 6.795-2.51-4.701 1.59-13.266 2.719-5.589l.13.983.058 1.054m-.008-.988c-.54 1.759-.155-3.628.59-.61.086 7.165-3.129-1.533-.59-2.633 2.396-.091 1.034 10.516-.899 6.795-2.51-4.701 1.59-13.266 2.719-5.589l.13.983.058 1.054m-.008-1.283c-.54 1.76-.155-3.628.59-.609.086 7.164-3.129-1.534-.59-2.634 2.396-.09 1.034 10.516-.899 6.796-2.51-4.702 1.59-13.267 2.719-5.59l.13.983.058 1.054m-.008-1c-.54 1.76-.155-3.628.59-.609.086 7.164-3.129-1.534-.59-2.634 2.396-.09 1.034 10.516-.899 6.796-2.51-4.702 1.59-13.267 2.719-5.59l.13.983.058 1.054m-.008-1c-.54 1.76-.155-3.628.59-.609.086 7.164-3.129-1.534-.59-2.634 2.396-.09 1.034 10.516-.899 6.796-2.51-4.702 1.59-13.267 2.719-5.59l.13.983.058 1.054m-.008 0c-.54 1.76-.155-3.628.59-.609.086 7.164-3.129-1.534-.59-2.634 2.396-.09 1.034 10.516-.899 6.796-2.51-4.702 1.59-13.267 2.719-5.59l.13.983.058 1.054m-.008 0c-.54 1.76-.155-3.628.59-.609.086 7.164-3.129-1.534-.59-2.634 2.396-.09 1.034 10.516-.899 6.796-2.51-4.702 1.59-13.267 2.719-5.59l.13.983.058 1.054m-.008 0c-.54 1.76-.155-3.628.59-.609.086 7.164-3.129-1.534-.59-2.634 2.396-.09 1.034 10.516-.899 6.796-2.51-4.702 1.59-13.267 2.719-5.59l.13.983.058 1.054m-.008 0c-.54 1.76-.155-3.628.59-.609.086 7.164-3.129-1.534-.59-2.634 2.396-.09 1.034 10.516-.899 6.796-2.511-4.702 1.59-13.267 2.719-5.59l.13.983.058 1.054m-.008 0c-.54 1.76-.155-3.628.59-.609.086 7.164-3.129-1.534-.59-2.634 2.396-.09 1.034 10.516-.899 6.796-2.511-4.702 1.59-13.267 2.719-5.59l.13.983.058 1.054m-.008 0c-.54 1.76-.155-3.628.59-.609.086 7.164-3.129-1.534-.59-2.634 2.396-.09 1.033 10.516-.899 6.796-2.511-4.702 1.59-13.267 2.719-5.59l.13.983.058 1.054m-.008 0c-.54 1.76-.155-3.628.59-.609.086 7.164-3.129-1.534-.59-2.634 2.396-.09 1.033 10.516-.9 6.796-2.51-4.702 1.59-13.267 2.72-5.59l.13.983.058 1.054m-.008 0c-.54 1.76-.155-3.628.59-.609.086 7.164-3.129-1.534-.59-2.634 2.396-.09 1.033 10.516-.9 6.796-2.51-4.702 1.59-13.267 2.72-5.59l.13.983.058 1.054m-.008 0c-.54 1.76-.155-3.628.59-.609.086 7.164-3.129-1.534-.59-2.634 2.396-.09 1.033 10.516-.9 6.796-2.51-4.702 1.59-13.267 2.72-5.59l.13.983.058 1.054m-.008 0c-.54 1.76-.155-3.628.59-.609.086 7.164-3.129-1.534-.59-2.634 2.396-.09 1.033 10.516-.9 6.796-2.51-4.702 1.59-13.267 2.72-5.59l.13.983.058 1.054m-.008 0c-.54 1.76-.155-3.628.59-.609.086 7.164-3.129-1.534-.59-2.634 2.396-.09 1.033 10.516-.9 6.796-2.51-4.702 1.59-13.267 2.72-5.59l.13.983.058 1.054m-.008.27c-.54 1.76-.155-3.628.59-.609.086 7.164-3.129-1.534-.59-2.634 2.396-.09 1.033 10.516-.9 6.796-2.51-4.702 1.59-13.267 2.72-5.59l.13.983.058 1.054m-.008.41c-.54 1.76-.155-3.628.59-.609.086 7.164-3.129-1.534-.59-2.634 2.396-.09 1.033 10.516-.9 6.796-2.51-4.702 1.59-13.267 2.72-5.59l.13.983.058 1.054m-.008-.048c-.54 1.759-.155-3.628.59-.61.086 7.165-3.129-1.533-.59-2.633 2.395-.091 1.033 10.516-.9 6.795-2.51-4.701 1.59-13.266 2.72-5.589l.13.983.058 1.054m-.009.368c-.54 1.76-.154-3.628.59-.609.087 7.164-3.128-1.534-.59-2.634 2.396-.09 1.034 10.516-.899 6.796-2.51-4.702 1.59-13.267 2.719-5.59l.13.983.059 1.054m-.01.716c-.539 1.76-.154-3.628.59-.609.087 7.164-3.128-1.534-.59-2.634 2.397-.09 1.035 10.516-.898 6.796-2.51-4.702 1.59-13.267 2.719-5.59l.13.983.058 1.054m-.009.988c-.54 1.76-.154-3.628.59-.608.087 7.163-3.128-1.535-.59-2.635 2.396-.09 1.034 10.516-.898 6.796-2.511-4.702 1.589-13.267 2.718-5.59l.13.984.059 1.053m-.009.771c-.54 1.76-.154-3.627.59-.608.087 7.164-3.128-1.535-.59-2.635 2.396-.09 1.034 10.517-.899 6.796-2.51-4.701 1.59-13.267 2.719-5.589l.13.983.059 1.053m-.01.525c-.54 1.76-.154-3.628.59-.609.087 7.164-3.128-1.534-.59-2.634 2.396-.09 1.034 10.516-.898 6.796-2.511-4.702 1.589-13.267 2.718-5.59l.13.983.06 1.054m5.39 5.38c-.54 1.76-.155-3.628.59-.609.086 7.164-3.129-1.534-.59-2.634 2.396-.091 1.034 10.516-.899 6.796-2.51-4.702 1.59-13.267 2.719-5.59l.13.983.058 1.054m-.407 3.012c-.54 1.76-.155-3.628.59-.608.086 7.164-3.129-1.535-.59-2.635 2.395-.09 1.033 10.516-.9 6.796-2.51-4.702 1.59-13.267 2.72-5.59l.13.984.058 1.053M105.858 24.46c-.54 1.76-.155-3.628.59-.609.086 7.164-3.129-1.534-.59-2.634 2.395-.09 1.033 10.516-.9 6.796-2.51-4.702 1.59-13.267 2.72-5.59l.13.983.058 1.054m-4.008-1.465c-.54 1.76-.155-3.628.59-.608.086 7.164-3.129-1.535-.59-2.635 2.395-.09 1.033 10.516-.9 6.796-2.51-4.702 1.59-13.267 2.72-5.59l.13.984.058 1.053m-4.008-1.535c-.54 1.76-.155-3.628.59-.609.086 7.164-3.129-1.534-.59-2.634 2.395-.09 1.033 10.516-.9 6.796-2.51-4.702 1.59-13.267 2.72-5.59l.13.983.058 1.054m-4.008-1c-.54 1.76-.155-3.628.59-.609.086 7.164-3.129-1.534-.59-2.634 2.395-.09 1.033 10.516-.9 6.796-2.51-4.702 1.59-13.267 2.72-5.59l.13.983.058 1.054m-3.756-1c-.54 1.76-.155-3.628.59-.609.087 7.164-3.128-1.534-.59-2.634 2.396-.09 1.034 10.516-.899 6.796-2.51-4.702 1.59-13.267 2.719-5.59l.13.983.058 1.054m-30.26-2c-.54 1.76-.155-3.628.59-.609.086 7.164-3.129-1.534-.59-2.634 2.395-.09 1.033 10.516-.9 6.796-2.51-4.702 1.59-13.267 2.72-5.59l.13.983.058 1.054m-4.008 1.342c-.54 1.76-.155-3.628.59-.609.086 7.164-3.129-1.534-.59-2.634 2.395-.09 1.033 10.516-.9 6.796-2.51-4.702 1.59-13.267 2.72-5.59l.13.983.058 1.054m-4.008 1.658c-.54 1.76-.155-3.628.59-.609.086 7.164-3.129-1.534-.59-2.634 2.395-.09 1.033 10.516-.9 6.796-2.51-4.702 1.59-13.267 2.72-5.59l.13.983.058 1.054m-4.008 1c-.54 1.76-.155-3.628.59-.609.086 7.164-3.129-1.534-.59-2.634 2.395-.09 1.033 10.516-.9 6.796-2.51-4.702 1.59-13.267 2.72-5.59l.13.983.058 1.054m-4.008 1.535c-.54 1.76-.155-3.628.59-.608.086 7.164-3.129-1.535-.59-2.635 2.395-.09 1.033 10.516-.9 6.796-2.51-4.702 1.59-13.267 2.72-5.59l.13.984.058 1.053m-4.008 1.133c-.54 1.76-.155-3.628.59-.609.086 7.164-3.129-1.534-.59-2.634 2.395-.09 1.033 10.516-.9 6.796-2.508-4.702 1.592-13.267 2.722-5.59l.13.983.059 1.054m-4.01 1.88c-.539 1.759-.153-3.628.59-.609.088 7.164-3.127-1.534-.59-2.634 2.397-.091 1.035 10.516-.898 6.795-2.51-4.701 1.59-13.266 2.719-5.589l.13.983.059 1.054m-4.01 1.855c-.539 1.76-.153-3.627.59-.608.088 7.164-3.127-1.535-.59-2.635 2.397-.09 1.035 10.517-.898 6.796-2.51-4.702 1.59-13.267 2.719-5.59l.13.984.059 1.053m-4.01 2.597c-.539 1.76-.153-3.628.59-.609.088 7.164-3.127-1.534-.59-2.634 2.397-.09 1.035 10.516-.898 6.796-2.51-4.702 1.59-13.267 2.719-5.59l.13.983.059 1.054m-4.01 2.657c-.539 1.76-.153-3.628.59-.609.088 7.164-3.127-1.534-.59-2.634 2.397-.09 1.035 10.516-.898 6.796-2.51-4.702 1.59-13.267 2.719-5.59l.13.983.059 1.054m-4.01 2.844c-.539 1.76-.153-3.628.59-.609.088 7.164-3.127-1.534-.59-2.634 2.397-.091 1.035 10.516-.898 6.796-2.51-4.702 1.59-13.267 2.719-5.59l.13.983.059 1.054m-4.01 3.109c-.539 1.759-.153-3.628.59-.609.088 7.164-3.127-1.534-.59-2.634 2.397-.091 1.035 10.516-.898 6.795-2.51-4.701 1.59-13.266 2.719-5.589l.13.983.059 1.054M46.1 43.46c-.54 1.76-.154-3.628.59-.609.087 7.164-3.128-1.534-.59-2.634 2.396-.09 1.034 10.516-.898 6.796-2.511-4.702 1.589-13.267 2.718-5.59l.13.983.059 1.054m48.75-25.333c-.539 1.76-.153-3.628.59-.609.088 7.164-3.127-1.534-.59-2.634 2.397-.09 1.035 10.516-.898 6.796-2.51-4.702 1.59-13.267 2.719-5.59l.13.983.059 1.054m-4.01 0c-.539 1.76-.153-3.628.59-.609.088 7.164-3.127-1.534-.59-2.634 2.397-.09 1.035 10.516-.898 6.796-2.51-4.702 1.59-13.267 2.719-5.59l.13.983.059 1.054m-4.01-.024c-.539 1.76-.153-3.628.59-.609.088 7.164-3.127-1.534-.59-2.634 2.397-.09 1.035 10.516-.898 6.796-2.51-4.702 1.59-13.267 2.719-5.59l.13.983.059 1.054m-4.01 0c-.539 1.76-.153-3.628.59-.609.088 7.164-3.127-1.534-.59-2.634 2.397-.09 1.035 10.516-.898 6.796-2.51-4.702 1.59-13.267 2.719-5.59l.13.983.059 1.054m-4.01-.096c-.539 1.759-.153-3.628.59-.61.088 7.165-3.127-1.533-.59-2.633 2.397-.091 1.035 10.516-.898 6.795-2.51-4.701 1.59-13.266 2.719-5.589l.13.983.059 1.054m-4.01-.049c-.539 1.76-.153-3.627.59-.608.088 7.164-3.127-1.535-.59-2.635 2.397-.09 1.035 10.517-.898 6.796-2.51-4.701 1.59-13.266 2.719-5.589l.13.983.059 1.053m-4.01-.072c-.539 1.76-.153-3.628.59-.609.088 7.164-3.127-1.534-.59-2.634 2.397-.09 1.035 10.516-.898 6.796-2.51-4.702 1.59-13.267 2.719-5.59l.13.983.059 1.054m-4.01.048c-.539 1.76-.153-3.628.59-.608.088 7.164-3.127-1.535-.59-2.635 2.397-.09 1.035 10.517-.898 6.796-2.51-4.702 1.59-13.267 2.719-5.59l.13.984.059 1.053m-4.01-.048c-.539 1.76-.153-3.628.59-.609.088 7.164-3.127-1.534-.59-2.634 2.397-.09 1.035 10.516-.898 6.796-2.51-4.702 1.59-13.267 2.719-5.59l.13.983.059 1.054m-4.01 0c-.539 1.76-.153-3.628.59-.609.088 7.164-3.127-1.534-.59-2.634 2.397-.09 1.035 10.516-.898 6.796-2.51-4.702 1.59-13.267 2.719-5.59l.13.983.059 1.054m-4.01 0c-.539 1.76-.153-3.628.59-.609.088 7.164-3.127-1.534-.59-2.634 2.397-.09 1.035 10.516-.898 6.796-2.51-4.702 1.59-13.267 2.719-5.59l.13.983.059 1.054m-3.748 0c-.54 1.76-.154-3.628.59-.609.087 7.164-3.128-1.534-.59-2.634 2.396-.09 1.034 10.516-.899 6.796-2.51-4.702 1.59-13.267 2.719-5.59l.13.983.059 1.054m-3.84-.024c-.54 1.76-.155-3.628.59-.609.086 7.164-3.129-1.534-.59-2.634 2.396-.09 1.033 10.516-.9 6.796-2.51-4.702 1.59-13.267 2.72-5.59l.13.983.058 1.054m-3.816.072c-.54 1.76-.154-3.628.59-.608.087 7.164-3.128-1.535-.59-2.635 2.396-.09 1.034 10.517-.899 6.796-2.51-4.702 1.59-13.267 2.719-5.59l.13.984.059 1.053M115.86 30.46c-.54 1.76-.154-3.628.59-.609.087 7.164-3.128-1.534-.59-2.634 2.396-.09 1.034 10.516-.899 6.796-2.51-4.702 1.59-13.267 2.719-5.59l.13.983.059 1.054m-4.01-1c-.539 1.76-.153-3.628.59-.609.088 7.164-3.127-1.534-.59-2.634 2.397-.09 1.035 10.516-.898 6.796-2.51-4.702 1.59-13.267 2.719-5.59l.13.983.059 1.054m-4.01-1c-.539 1.76-.153-3.628.59-.609.088 7.164-3.127-1.534-.59-2.634 2.397-.09 1.035 10.516-.898 6.796-2.51-4.702 1.59-13.267 2.719-5.59l.13.983.059 1.054m-4.01-1c-.539 1.76-.153-3.628.59-.609.088 7.164-3.127-1.534-.59-2.634 2.397-.09 1.035 10.516-.898 6.796-2.51-4.702 1.59-13.267 2.719-5.59l.13.983.059 1.054m-4.01-1c-.539 1.76-.153-3.628.59-.609.088 7.164-3.127-1.534-.59-2.634 2.397-.09 1.035 10.516-.898 6.796-2.51-4.702 1.59-13.267 2.719-5.59l.13.983.059 1.054m-4.01 0c-.539 1.76-.153-3.628.59-.609.088 7.164-3.127-1.534-.59-2.634 2.397-.09 1.035 10.516-.898 6.796-2.51-4.702 1.59-13.267 2.719-5.59l.13.983.059 1.054m-4.01-1c-.539 1.76-.153-3.628.59-.609.088 7.164-3.127-1.534-.59-2.634 2.397-.09 1.035 10.516-.898 6.796-2.51-4.702 1.59-13.267 2.719-5.59l.13.983.059 1.054m-4.01-1c-.539 1.76-.153-3.628.59-.609.088 7.164-3.127-1.534-.59-2.634 2.397-.09 1.035 10.516-.898 6.796-2.51-4.702 1.59-13.267 2.719-5.59l.13.983.059 1.054m-4.01-1c-.539 1.76-.153-3.628.59-.609.088 7.164-3.127-1.534-.59-2.634 2.397-.09 1.035 10.516-.898 6.796-2.51-4.702 1.59-13.267 2.719-5.59l.13.983.059 1.054m-4.01 0c-.539 1.76-.153-3.628.59-.609.088 7.164-3.127-1.534-.59-2.634 2.397-.09 1.035 10.516-.898 6.796-2.51-4.702 1.59-13.267 2.719-5.59l.13.983.059 1.054m-4.01-1c-.539 1.76-.153-3.628.59-.609.088 7.164-3.127-1.534-.59-2.634 2.397-.09 1.035 10.516-.898 6.796-2.51-4.702 1.59-13.267 2.719-5.59l.13.983.059 1.054m-4.01 0c-.539 1.76-.153-3.628.59-.609.088 7.164-3.127-1.534-.59-2.634 2.397-.09 1.035 10.516-.898 6.796-2.51-4.702 1.59-13.267 2.719-5.59l.13.983.059 1.054m-4.01 0c-.539 1.76-.153-3.628.59-.609.088 7.164-3.127-1.534-.59-2.634 2.397-.09 1.035 10.516-.898 6.796-2.51-4.702 1.59-13.267 2.719-5.59l.13.983.059 1.054m-4.01 0c-.539 1.76-.153-3.628.59-.609.088 7.164-3.127-1.534-.59-2.634 2.397-.09 1.035 10.516-.898 6.796-2.51-4.702 1.59-13.267 2.719-5.59l.13.983.059 1.054m-4.01 0c-.539 1.76-.153-3.628.59-.609.088 7.164-3.127-1.534-.59-2.634 2.397-.09 1.035 10.516-.898 6.796-2.51-4.702 1.59-13.267 2.719-5.59l.13.983.059 1.054m-4.01 0c-.539 1.76-.153-3.628.59-.609.088 7.164-3.127-1.534-.59-2.634 2.397-.09 1.035 10.516-.898 6.796-2.51-4.702 1.59-13.267 2.719-5.59l.13.983.059 1.054m-4.01 0c-.539 1.76-.153-3.628.59-.609.088 7.164-3.127-1.534-.59-2.634 2.397-.09 1.035 10.516-.898 6.796-2.51-4.702 1.59-13.267 2.719-5.59l.13.983.059 1.054m-4.01 0c-.539 1.76-.153-3.628.59-.609.088 7.164-3.127-1.534-.59-2.634 2.397-.09 1.035 10.516-.898 6.796-2.51-4.702 1.59-13.267 2.719-5.59l.13.983.059 1.054m-4.01 0c-.539 1.76-.153-3.628.59-.609.088 7.164-3.127-1.534-.59-2.634 2.397-.09 1.035 10.516-.898 6.796-2.51-4.702 1.59-13.267 2.719-5.59l.13.983.059 1.054m-4.01 0c-.539 1.76-.153-3.628.59-.609.088 7.164-3.127-1.534-.59-2.634 2.397-.09 1.035 10.516-.898 6.796-2.51-4.702 1.59-13.267 2.719-5.59l.13.983.059 1.054m-4.01 0c-.539 1.76-.153-3.628.59-.609.088 7.164-3.127-1.534-.59-2.634 2.397-.09 1.035 10.516-.898 6.796-2.51-4.702 1.59-13.267 2.719-5.59l.13.983.059 1.054m-4.01 0c-.539 1.76-.153-3.628.59-.609.088 7.164-3.127-1.534-.59-2.634 2.397-.09 1.035 10.516-.898 6.796-2.51-4.702 1.59-13.267 2.719-5.59l.13.983.059 1.054m-4.01 0c-.539 1.76-.153-3.628.59-.609.088 7.164-3.127-1.534-.59-2.634 2.397-.09 1.035 10.516-.898 6.796-2.51-4.702 1.59-13.267 2.719-5.59l.13.983.059 1.054m-4.01 1c-.539 1.76-.153-3.628.59-.609.088 7.164-3.127-1.534-.59-2.634 2.397-.09 1.035 10.516-.898 6.796-2.51-4.702 1.59-13.267 2.719-5.59l.13.983.059 1.054m-4.01 1c-.539 1.76-.153-3.628.59-.609.088 7.164-3.127-1.534-.59-2.634 2.397-.09 1.035 10.516-.898 6.796-2.51-4.702 1.59-13.267 2.719-5.59l.13.983.059 1.054m-4.01 1c-.539 1.76-.153-3.628.59-.609.088 7.164-3.127-1.534-.59-2.634 2.397-.09 1.035 10.516-.898 6.796-2.51-4.702 1.59-13.267 2.719-5.59l.13.983.059 1.054m-4.01 1c-.539 1.76-.153-3.628.59-.609.088 7.164-3.127-1.534-.59-2.634 2.397-.09 1.035 10.516-.898 6.796-2.51-4.702 1.59-13.267 2.719-5.59l.13.983.059 1.054m-4.01 1c-.539 1.76-.153-3.628.59-.609.088 7.164-3.127-1.534-.59-2.634 2.397-.09 1.035 10.516-.898 6.796-2.51-4.702 1.59-13.267 2.719-5.59l.13.983.059 1.054m-4.01 2c-.539 1.76-.153-3.628.59-.609.088 7.164-3.127-1.534-.59-2.634 2.397-.09 1.035 10.516-.898 6.796-2.51-4.702 1.59-13.267 2.719-5.59l.13.983.059 1.054m-4.01 2c-.539 1.76-.153-3.628.59-.609.088 7.164-3.127-1.534-.59-2.634 2.397-.09 1.035 10.516-.898 6.796-2.51-4.702 1.59-13.267 2.719-5.59l.13.983.059 1.054m-4.01 2c-.539 1.76-.153-3.628.59-.609.088 7.164-3.127-1.534-.59-2.634 2.397-.09 1.035 10.516-.898 6.796-2.51-4.702 1.59-13.267 2.719-5.59l.13.983.059 1.054m-4.01 2c-.539 1.76-.153-3.628.59-.609.088 7.164-3.127-1.534-.59-2.634 2.397-.09 1.035 10.516-.898 6.796-2.51-4.702 1.59-13.267 2.719-5.59l.13.983.059 1.054m-4.01 2c-.539 1.76-.153-3.628.59-.609.088 7.164-3.127-1.534-.59-2.634 2.397-.09 1.035 10.516-.898 6.796-2.51-4.702 1.59-13.267 2.719-5.59l.13.983.059 1.054m-4.01 3c-.539 1.76-.153-3.628.59-.609.088 7.164-3.127-1.534-.59-2.634 2.397-.09 1.035 10.516-.898 6.796-2.51-4.702 1.59-13.267 2.719-5.59l.13.983.059 1.054m-4.01 3c-.539 1.76-.153-3.628.59-.609.088 7.164-3.127-1.534-.59-2.634 2.397-.09 1.035 10.516-.898 6.796-2.51-4.702 1.59-13.267 2.719-5.59l.13.983.059 1.054m68.99-8c-.539 1.76-.153-3.628.59-.609.088 7.164-3.127-1.534-.59-2.634 2.397-.09 1.035 10.516-.898 6.796-2.51-4.702 1.59-13.267 2.719-5.59l.13.983.059 1.054m-4.01-3c-.539 1.76-.153-3.628.59-.609.088 7.164-3.127-1.534-.59-2.634 2.397-.09 1.035 10.516-.898 6.796-2.51-4.702 1.59-13.267 2.719-5.59l.13.983.059 1.054m-4.01-3c-.539 1.76-.153-3.628.59-.609.088 7.164-3.127-1.534-.59-2.634 2.397-.09 1.035 10.516-.898 6.796-2.51-4.702 1.59-13.267 2.719-5.59l.13.983.059 1.054m-4.01-2c-.539 1.76-.153-3.628.59-.609.088 7.164-3.127-1.534-.59-2.634 2.397-.09 1.035 10.516-.898 6.796-2.51-4.702 1.59-13.267 2.719-5.59l.13.983.059 1.054m-4.01-2c-.539 1.76-.153-3.628.59-.609.088 7.164-3.127-1.534-.59-2.634 2.397-.09 1.035 10.516-.898 6.796-2.51-4.702 1.59-13.267 2.719-5.59l.13.983.059 1.054m-4.01-2c-.539 1.76-.153-3.628.59-.609.088 7.164-3.127-1.534-.59-2.634 2.397-.09 1.035 10.516-.898 6.796-2.51-4.702 1.59-13.267 2.719-5.59l.13.983.059 1.054m-4.01-2c-.539 1.76-.153-3.628.59-.609.088 7.164-3.127-1.534-.59-2.634 2.397-.09 1.035 10.516-.898 6.796-2.51-4.702 1.59-13.267 2.719-5.59l.13.983.059 1.054m-4.01-1c-.539 1.76-.153-3.628.59-.609.088 7.164-3.127-1.534-.59-2.634 2.397-.09 1.035 10.516-.898 6.796-2.51-4.702 1.59-13.267 2.719-5.59l.13.983.059 1.054m-4.01-2c-.539 1.76-.153-3.628.59-.609.088 7.164-3.127-1.534-.59-2.634 2.397-.09 1.035 10.516-.898 6.796-2.51-4.702 1.59-13.267 2.719-5.59l.13.983.059 1.054m-4.01-1c-.539 1.76-.153-3.628.59-.609.088 7.164-3.127-1.534-.59-2.634 2.397-.09 1.035 10.516-.898 6.796-2.51-4.702 1.59-13.267 2.719-5.59l.13.983.059 1.054m-4.01-1c-.539 1.76-.153-3.628.59-.609.088 7.164-3.127-1.534-.59-2.634 2.397-.09 1.035 10.516-.898 6.796-2.51-4.702 1.59-13.267 2.719-5.59l.13.983.059 1.054m-4.01 0c-.539 1.76-.153-3.628.59-.609.088 7.164-3.127-1.534-.59-2.634 2.397-.09 1.035 10.516-.898 6.796-2.51-4.702 1.59-13.267 2.719-5.59l.13.983.059 1.054m-4.01-1c-.539 1.76-.153-3.628.59-.609.088 7.164-3.127-1.534-.59-2.634 2.397-.09 1.035 10.516-.898 6.796-2.51-4.702 1.59-13.267 2.719-5.59l.13.983.059 1.054m-4.01-1c-.539 1.76-.153-3.628.59-.609.088 7.164-3.127-1.534-.59-2.634 2.397-.09 1.035 10.516-.898 6.796-2.51-4.702 1.59-13.267 2.719-5.59l.13.983.059 1.054m-4.01 0c-.539 1.76-.153-3.628.59-.609.088 7.164-3.127-1.534-.59-2.634 2.397-.09 1.035 10.516-.898 6.796-2.51-4.702 1.59-13.267 2.719-5.59l.13.983.059 1.054m-4.01-1c-.539 1.76-.153-3.628.59-.609.088 7.164-3.127-1.534-.59-2.634 2.397-.09 1.035 10.516-.898 6.796-2.51-4.702 1.59-13.267 2.719-5.59l.13.983.059 1.054m-4.01 0c-.539 1.76-.153-3.628.59-.609.088 7.164-3.127-1.534-.59-2.634 2.397-.09 1.035 10.516-.898 6.796-2.51-4.702 1.59-13.267 2.719-5.59l.13.983.059 1.054m-4.01 0c-.539 1.76-.153-3.628.59-.609.088 7.164-3.127-1.534-.59-2.634 2.397-.09 1.035 10.516-.898 6.796-2.51-4.702 1.59-13.267 2.719-5.59l.13.983.059 1.054m-4.01 0c-.539 1.76-.153-3.628.59-.609.088 7.164-3.127-1.534-.59-2.634 2.397-.09 1.035 10.516-.898 6.796-2.51-4.702 1.59-13.267 2.719-5.59l.13.983.059 1.054m-4.01 0c-.539 1.76-.153-3.628.59-.609.088 7.164-3.127-1.534-.59-2.634 2.397-.09 1.035 10.516-.898 6.796-2.51-4.702 1.59-13.267 2.719-5.59l.13.983.059 1.054m-4.01 0c-.539 1.76-.153-3.628.59-.609.088 7.164-3.127-1.534-.59-2.634 2.397-.09 1.035 10.516-.898 6.796-2.51-4.702 1.59-13.267 2.719-5.59l.13.983.059 1.054m-4.01 0c-.539 1.76-.153-3.628.59-.609.088 7.164-3.127-1.534-.59-2.634 2.397-.09 1.035 10.516-.898 6.796-2.51-4.702 1.59-13.267 2.719-5.59l.13.983.059 1.054m-4.01 1c-.539 1.76-.153-3.628.59-.609.088 7.164-3.127-1.534-.59-2.634 2.397-.09 1.035 10.516-.898 6.796-2.51-4.702 1.59-13.267 2.719-5.59l.13.983.059 1.054m-4.01 0c-.539 1.76-.153-3.628.59-.609.088 7.164-3.127-1.534-.59-2.634 2.397-.09 1.035 10.516-.898 6.796-2.51-4.702 1.59-13.267 2.719-5.59l.13.983.059 1.054m-4.01 1c-.539 1.76-.153-3.628.59-.609.088 7.164-3.127-1.534-.59-2.634 2.397-.09 1.035 10.516-.898 6.796-2.51-4.702 1.59-13.267 2.719-5.59l.13.983.059 1.054m-4.01 1c-.539 1.76-.153-3.628.59-.609.088 7.164-3.127-1.534-.59-2.634 2.397-.09 1.035 10.516-.898 6.796-2.51-4.702 1.59-13.267 2.719-5.59l.13.983.059 1.054m-4.01 1c-.539 1.76-.153-3.628.59-.609.088 7.164-3.127-1.534-.59-2.634 2.397-.09 1.035 10.516-.898 6.796-2.51-4.702 1.59-13.267 2.719-5.59l.13.983.059 1.054m-4.01 1c-.539 1.76-.153-3.628.59-.609.088 7.164-3.127-1.534-.59-2.634 2.397-.09 1.035 10.516-.898 6.796-2.51-4.702 1.59-13.267 2.719-5.59l.13.983.059 1.054m-4.01 1c-.539 1.76-.153-3.628.59-.609.088 7.164-3.127-1.534-.59-2.634 2.397-.09 1.035 10.516-.898 6.796-2.51-4.702 1.59-13.267 2.719-5.59l.13.983.059 1.054m-4.01 2c-.539 1.76-.153-3.628.59-.609.088 7.164-3.127-1.534-.59-2.634 2.397-.09 1.035 10.516-.898 6.796-2.51-4.702 1.59-13.267 2.719-5.59l.13.983.059 1.054m-4.01 1c-.539 1.76-.153-3.628.59-.609.088 7.164-3.127-1.534-.59-2.634 2.397-.09 1.035 10.516-.898 6.796-2.51-4.702 1.59-13.267 2.719-5.59l.13.983.059 1.054m-4.01 2c-.539 1.76-.153-3.628.59-.609.088 7.164-3.127-1.534-.59-2.634 2.397-.09 1.035 10.516-.898 6.796-2.51-4.702 1.59-13.267 2.719-5.59l.13.983.059 1.054M54.999 26c-.539 1.76-.154-3.628.59-.609.087 7.164-3.128-1.534-.59-2.634 2.397-.091 1.035 10.516-.898 6.796-2.51-4.702 1.59-13.267 2.719-5.59l.13.983.058 1.054M53 28c-.54 1.76-.155-3.628.59-.609.086 7.164-3.129-1.534-.59-2.634 2.396-.091 1.034 10.516-.899 6.796-2.51-4.702 1.59-13.267 2.719-5.59l.13.983.058 1.054M51 31c-.54 1.76-.155-3.628.59-.609.086 7.164-3.129-1.534-.59-2.634 2.396-.091 1.034 10.516-.899 6.796-2.51-4.702 1.59-13.267 2.719-5.59l.13.983.058 1.054M49 34.49c-.54 1.76-.155-3.627.59-.608.086 7.164-3.129-1.534-.59-2.634 2.396-.091 1.034 10.516-.899 6.795-2.51-4.701 1.59-13.266 2.719-5.589l.13.983.058 1.054M47 39c-.54 1.76-.155-3.628.59-.609.086 7.164-3.129-1.534-.59-2.634 2.396-.091 1.034 10.516-.899 6.796-2.51-4.702 1.59-13.267 2.719-5.59l.13.983.058 1.054M45 43c-.54 1.76-.155-3.628.59-.609.086 7.164-3.129-1.534-.59-2.634 2.396-.091 1.034 10.516-.899 6.796-2.51-4.702 1.59-13.267 2.719-5.59l.13.983.058 1.054" fill="none" stroke="green" stroke-width=".418"/><path d="M55 102h52.291l-.291 3h-4c-.942 1.956-1.534 4.037-2.119 6.12-.421 1.606-1.03 3.188-1.334 4.809l.062 2.228-9.357-.539c2.456-1.565 3.009-4.863 2.75-7.565-.172-2.486-2.008-5.054-4.692-5.045-4.437-.018-8.873-.003-13.31-.008-.016 4.277-.185 8.554-.4 12.826.028.768-1.21.152-1.736.316-3.88-.143-7.774-.18-11.647-.388L57.541 117c-2.958-2.498-3.678-6.59-3.67-10.27-.064-1.66.718-3.155 1.129-4.73z" fill="#ffd42a" stroke="#000"/><path d="M93.63 104.552c.195-.632-1.368-3.223-.676-1.67-.626-1.267.747 1.625.256 2.17.433 2.017-2.14 2.875-1.487 4.967.094.896 1.383 3.293.916 2.097.534.822-.352-.47-.506-1.828-.464-2.036 2.114-2.894 1.492-4.98.144.044-.193-.914.005-.756zm4 5c.195-.632-1.368-3.223-.676-1.67-.626-1.267.747 1.625.256 2.17.433 2.017-2.14 2.875-1.487 4.967.094.896 1.383 3.293.916 2.097.534.822-.352-.47-.506-1.828-.464-2.036 2.114-2.894 1.492-4.98.144.044-.193-.914.005-.756zm3-5c.195-.632-1.368-3.223-.676-1.67-.626-1.267.747 1.625.256 2.17.433 2.017-2.14 2.875-1.487 4.967.094.896 1.383 3.293.916 2.097.534.822-.352-.47-.506-1.828-.464-2.036 2.114-2.894 1.492-4.98.144.044-.193-.914.004-.756zm-42 0c.195-.632-1.368-3.223-.676-1.67-.626-1.267.747 1.625.256 2.17.433 2.017-2.14 2.875-1.487 4.967.094.896 1.383 3.293.916 2.097.534.822-.352-.47-.506-1.828-.464-2.036 2.114-2.894 1.492-4.98.144.044-.193-.914.005-.756zm5 5c.195-.632-1.368-3.223-.676-1.67-.626-1.267.747 1.625.256 2.17.433 2.017-2.14 2.875-1.487 4.967.094.896 1.383 3.293.916 2.097.534.822-.352-.47-.506-1.828-.464-2.036 2.114-2.894 1.492-4.98.144.044-.193-.914.005-.756zm5-5c.195-.632-1.368-3.223-.676-1.67-.626-1.267.747 1.625.256 2.17.433 2.017-2.14 2.875-1.487 4.967.094.896 1.383 3.293.916 2.097.534.822-.352-.47-.506-1.828-.464-2.036 2.114-2.894 1.492-4.98.144.044-.193-.914.005-.756zm4 5c.195-.632-1.368-3.223-.676-1.67-.626-1.267.747 1.625.256 2.17.433 2.017-2.14 2.875-1.487 4.967.094.896 1.383 3.293.916 2.097.534.822-.352-.47-.506-1.828-.464-2.036 2.114-2.894 1.492-4.98.144.044-.193-.914.005-.756z" stroke="#000" stroke-width=".5" stroke-linejoin="round"/><path d="m109.341 37.6 3.7 4.4h-2.1l-2.9-2.4-2.9 2.4h-2.1l3.8-4.4h2.5m-32.5 0 3.7 4.4h-2.1l-2.9-2.4-2.9 2.4h-2.1l3.8-4.4h2.5" style="stroke-width:2" id="gikopoipoi_eyes_open" fill-rule="evenodd"/><g style="display:none" fill="none" stroke="#000" stroke-linecap="round" stroke-linejoin="round" stroke-width="3" id="gikopoipoi_eyes_closed"><path d="M72.341 39.9h6.3m26.2 0h6.3" style="display:inline"/></g></svg>