<svg xmlns="http://www.w3.org/2000/svg" height="182" width="160"><g style="clip-rule:evenodd;fill-rule:evenodd;stroke-linecap:square;stroke-linejoin:round;stroke-miterlimit:1.5"><path d="m84.702 102.682-26.286 36.571" style="fill:none;stroke:#000;stroke-width:2px" transform="translate(8.643 .148)"/><path d="M57.045 94.382S41.404 86.687 47.1 67.423c2.637-8.917 8.757-12.217 13.803-14.418 5.855-2.553 10.513-3.23 10.513-3.23s15.069-3.969 21.085-.961 9.152 1.6 18.048 11.328c8.896 9.728 3.008 7.168 7.232 12.096 0 0 3.2 14.144-2.88 18.688 0 0-8.192 13.376-30.912 12.032l.192 2.88s8.704 24.512 6.272 29.248c0 0-4.16 8.96-25.856 5.504 0 0-10.88-4.288-9.152-20.224l3.2-25.088z" style="fill:#fff;stroke:#fff;stroke-width:.21px" transform="translate(9.643 .148)"/><path d="m89.78 69.855-11.2 15.52m14 2.4-2.273-17.017" style="fill:none;stroke:#000;stroke-width:2px" transform="translate(9.643 .148)"/><path d="m83.38 78.815 8.24 2.32" style="fill:none;stroke:#000;stroke-width:2px;stroke-linecap:round" transform="translate(9.643 .148)"/><path d="M84.629 102.638s20.8 2.304 31.04-12.928" style="fill:none;stroke:#000;stroke-width:2.5px" transform="translate(9.643 .148)"/><path d="m79.06 57.455-5.2 4.4m27.36.72.16 6.64" style="fill:none;stroke:#000;stroke-width:2px" transform="translate(9.643 .148)"/><path d="M37.901 51.799s.576.96 4.48 2.752c4.4 2.645-3.66-7.22-4.48-2.752z" style="fill:#00e9ff;stroke:#00e9ff;stroke-width:1px;stroke-linecap:round" transform="rotate(15.786 61.427 96.528)"/><path d="M37.901 51.799s.576.96 4.48 2.752c5.159 3.366-3.701-6.872-4.48-2.752z" style="fill:#00e9ff;stroke:#00e9ff;stroke-width:1px;stroke-linecap:round" transform="rotate(-60.005 54.9 61.57)"/><path d="M58.82 94.303s-5.36 25.312-2.32 37.232" style="fill:none;stroke:#000;stroke-width:2.52px;stroke-linecap:butt" transform="translate(9.643 .148)"/><path d="m58.141 95.487-24.022 41.984" style="fill:none;stroke:#000;stroke-width:2px" transform="translate(9.643 .148)"/><path d="m66.9 140.335 15.318-21.687 30.836 22.05" style="fill:none;stroke:#000;stroke-width:2px;stroke-linecap:round" transform="translate(9.643 .148)"/><path d="m84.5 139.215 10.598-20.163 30.906 20.769" style="fill:none;stroke:#000;stroke-width:2px;stroke-linecap:round" transform="translate(9.643 .148)"/><path d="M46.178 74.886c-1.75-12.75 11.76-20.72 11.76-20.72s42.627-22.12 59.587 17.88" style="fill:none;stroke:#000;stroke-width:2.5px" transform="translate(9.643 .148)"/></g></svg>