<svg xmlns="http://www.w3.org/2000/svg" height="182" width="160"><g style="clip-rule:evenodd;fill-rule:evenodd;stroke-linecap:square;stroke-linejoin:round;stroke-miterlimit:1.5"><path d="M57.045 94.382s-15.684-7.452-9.988-26.716c2.544-8.603 8.892-12.622 13.478-14.878 5.684-2.795 10.366-2.77 10.366-2.77s15.584-4.212 21.6-1.204c6.016 3.008 9.152 1.6 18.048 11.328 8.896 9.728 3.008 7.168 7.232 12.096 0 0 3.2 14.144-2.88 18.688 0 0-8.192 13.376-30.912 12.032l.192 2.88s8.704 24.512 6.272 29.248c0 0-4.16 8.96-25.856 5.504 0 0-10.88-4.288-9.152-20.224l3.2-25.088z" style="fill:#fff;stroke:#fff;stroke-width:.21px" transform="translate(9.558 -.046)"/><path d="m89.78 69.855-11.2 15.52m14 2.4-2.273-17.017" style="fill:none;stroke:#000;stroke-width:2px" transform="translate(9.558 -.046)"/><path d="m83.38 78.815 8.24 2.32" style="fill:none;stroke:#000;stroke-width:2px;stroke-linecap:round" transform="translate(9.558 -.046)"/><path d="M84.629 102.638s20.8 2.304 31.04-12.928M46.178 74.886c-1.75-12.75 11.76-20.72 11.76-20.72s42.627-22.12 59.587 17.88" style="fill:none;stroke:#000;stroke-width:2.5px" transform="translate(9.558 -.046)"/><path d="m79.06 57.455-5.2 4.4m27.36.72.16 6.64" style="fill:none;stroke:#000;stroke-width:2px" transform="translate(9.558 -.046)"/><path d="M58.82 94.303s-5.36 25.312-2.32 37.232" style="fill:none;stroke:#000;stroke-width:2.52px;stroke-linecap:butt" transform="translate(9.558 -.046)"/><path d="M58.141 95.487 43.13 138.904" style="fill:none;stroke:#000;stroke-width:2px" transform="translate(9.558 -.046)"/><path d="m66.9 140.335 12.4-26.96 20.48 30" style="fill:none;stroke:#000;stroke-width:2px;stroke-linecap:round" transform="translate(9.558 -.046)"/><path d="m84.5 139.215 8.96-23.44 23.04 23.76" style="fill:none;stroke:#000;stroke-width:2px;stroke-linecap:round" transform="translate(9.558 -.046)"/></g></svg>