<svg height="182" width="160" xmlns="http://www.w3.org/2000/svg"><path d="m56.323 85.554.314-.815-3.807-6.035-1.438-4.56 1.373-6.522 4.135-5.647 1.446-2.354 7.328-15.627 1.194-1.258 8.576 17.368 11.82-.173 8.065-16.618 1.081-1.018 8.527 18.03 2.82 1.392 1.983 1.65 2.253 4.108.97 3.683-.133 6.317-3.978 6.408-2.835.964-3.342 2.884L110 95.627l2.089 6.418-4.807 4.96-5.472-.907 3.919 1.321 1.892 2.312 1.9 4.815-.357 5.985-3.313 2.639-1.677.216H61.582l-8.487.512-2.646-.988-2.067-4.224 4.465-5.051-.512-3.703.885-3.95-.976-2.244-.565-6.19 6.837-12.353-2.599-.362 50.1.014" style="fill:#fff;fill-opacity:.99;fill-rule:nonzero"/><path d="M97.044 67.205h-1.749l2.64-4.23h2.839l-3.73 4.23Zm6.686-6.116 2.397-1.113-10.166-21.89-9.745 20.99-9.803.005-9.705-20.953-9.978 21.65 2.37 1.172 7.594-17.034 7.868 17.26 13.612-.212 7.78-17.2 7.776 17.325Zm4.031.09 3.162 3.64 1.79 3.047.873 2.638.172 1.79.047 2.78-.413 2.408s-.59 1.647-.97 2.435c-.293.61-.628 1.199-1.002 1.762-.675 1.016-1.45 1.966-2.233 2.902-.462.55-1.452 1.593-1.452 1.593l-1.718-1.327 2.2-2.23 1.56-2.06 1.155-2.311.593-2.09.214-2.247-.186-2.747-.778-2.7-1.03-1.794-1.372-1.682-2.367-2.512 1.755-1.295ZM56.723 86.386l1.793-1.19-2.507-2.742-1.874-2.97-.74-2.087-.338-1.701-.068-2.186.133-2.572.51-2.214 1.17-2.263 1.29-1.599 1.38-1.689 1.137-1.125-1.636-1.324-1.402 1.533-1.623 1.888-1.103 1.81-1.24 2.65L50.888 71l-.119 1.843-.02 2.022.133 1.423.72 2.528.86 1.942 1.358 2.063s1.015 1.38 1.558 2.04c.438.516.886 1.025 1.344 1.524l.001.001Zm2.527 1.735-2.087-1.589-1.811 1.719-1.57 1.653-1.17 1.534-.948 1.924-.43 1.998-.328 1.478-.16 2.156-.258 2.59.155 1.25.657.926.944-.022-.008-2.384.452-2.595.372-1.96.703-2.01.574-1.58.995-1.547 1.564-1.746 2.354-1.795Zm44.826 20.696 1.653-1.398 2.334 2.257 1.101 1.312.626 1.082.453 1.356.398 1.867.039 1.449-.2 2.146-.468 1.405-.96 1.717-1.264 1.513-1.63 1.46-.557.477-1.427-1.323 1.773-1.514 1.38-1.606.86-1.6.475-1.413.055-1.418-.086-2.107-.507-1.451-1.335-2.015-1.294-1.178-1.419-1.018Zm-53.533-3.812.768 5.77.809 3.488-2.33 1.536-1.68 1.982-.793 1.874-.08 1.994.27 1.126 1.05 1.427 2.062 1.063 3.248.228 8.395-.054.386-2.573-6.117.459-2.518.054-2.827-.456-1.05-.807-.534-1.197.105-1.577.645-1.185 1.224-1.373 1.453-.902 3.624-1.608-.386-1.95-2.068.965-.78-3.043-.283-2.679.084-2.581-2.677.019Z" style="fill-opacity:.99;fill-rule:nonzero"/><path d="m102.445 86.143 3.856 3.936 2.172 2.302 2.106 2.435 1.641 2.434.733 1.685.335 2.095-.296 2.183-.857 1.732-1.636 1.51-1.81.858-2.17.561-1.976-.17-2.67-1.137-2.935-2.248-1.695-1.81 1.704-1.774 1.44 2.105 1.326 1.294 1.72.934 1.936.467 1.903-.032 1.794-.809 1.042-.979.934-1.623.233-1.545-.523-1.956-1.094-1.747-2.008-2.41-2.464-2.45-1.966-1.668-1.594-1.355-.824-.772 1.643-2.046Zm-15.439 24.143-2.652 1.169-4.506 1.975-3.375 1.717-1.611 1.446-1.323 2.11-.412 1.677.175 1.803 1.093 1.72 1.629.884 2.425.398 2.369.222 7.056-.023.35-2.683-3.179.289-4.438.21-2.34-.131-1.456-.418-.75-.587-.574-.903-.053-1.16.42-1.453 1.125-1.256 1.3-.904 1.786-.993 1.896-.79 2.359-.949 2.014-.662 2.357-.813-1.685-1.895Z" style="fill-opacity:.99;fill-rule:nonzero"/><path d="m56.727 66.001 9.937-21.442 9.623 20.71h9.832l9.623-20.92 10.206 22.234 3.87 4.516c-12.805 2.561-9.552 21.144.068 17.846-2.518 2.925-5.036 4.638-7.554 5.611l7.217 7.636c-.529 4.251-3.62 7.22-8.054 9.518 7.418 3.309 12.525 12.486 4.602 19.142l-6.955.019c-.539-5.36-11.422-13.709-18.368-10.568-6.601 3.304-14.843.008-14.843.008.053-.185-10.375-.108-10.375-.108l-4.885 2.452c-.559-1.644 1.774-4.864 1.382-6.396-2.72-10.619-1.342-18.488 5.511-23.062-8.783-8.626-8.232-17.734-.837-27.196Z" style="fill:#ffd500;stroke:#000;stroke-width:2px" transform="translate(0 -6.485)"/><path d="m104.737 111.815-2.615-5.021" style="fill:none;stroke:#000;stroke-width:2px" transform="rotate(-20.147 82.928 118.721)"/><path d="M103.535 70.904c2.012.598 4.169.324 5.246-.469" stroke-width="3" id="gikopoipoi_eyes_closed" style="display:none;stroke-width:2.14607;stroke-dasharray:none" fill="none" stroke="#000" stroke-linecap="round" stroke-linejoin="round"/><circle cx="106.132" cy="70.22" r="2.118" opacity=".99" filter="url(#b)" id="gikopoipoi_eyes_open" style="display:inline"/></svg>