<svg xmlns="http://www.w3.org/2000/svg" width="133" height="85"><g transform="translate(96 55.7)"><path d="M-56.3-30.3l-.05-.05q.65-.35 1.35-.65l-1.3.7m28.1 31.35l.3.1-.3.15-7.25-3.3 7.25 3.05m-17.85-30.7l-1.1-.55 1.1.5v.05" fill="#666"/><path d="M-41.9-4.9l-7.55-3.8h-.05l-.5-.25-2.15-1.1 10.25-5.1V-4.9" fill="#333"/><path d="M-53-32l1.2-.6.65-.25 1.35-.75 2.1-1q1-.55 2.05-1.05l2.15-1.05 1.8-.95 2.05-.95 2-1.05 2.05-.95 2.05-1.05 2-1 2-.95 2.1-1.05 1.95-.95 2-1.05 2.1-1 1.95-1 2.1-1 1.95-1 2.05-1 2.05-1 2-1 5.75 2.85-2 1.05-2.05 1-2.25 1.1-1.8.85-2 1.05-2 .95-2.3 1.15-1.8.9-2 .95-2.2 1.15-1.8.85-2 1.05-2.1.95-2.2 1.1-1.8.95-2.1 1.05-1.95.95-2.05 1L-42-31.7v1.75l-.35.2-1.35.65-1.8.85L-53-32m6.95 2.3l-1.1-.5 1.1.55v-.05" fill="#fff"/><path d="M31.7-2.5l-1.5.75 1.5-.75m-3 1.5L2.45 14.4l.2.1-6.85 4q-7.5 1.1-22.45-.15l-1.4-.05-2.6-.15q-8.2-.4-14.55.25l-5.45.85-4 1-2.25.85-1.6.5-1.8 1.1-9.4 6.35-.65-.3-.1.1-.4.2-12-6-13.15-6.7 6.9-4.15h-.05l36.65-22 1.75.8-.05.05.95.45.35-.2h.05l7.55 3.8 6.45 2.9 7.25 3.3.3-.15 2.7-1.35 4.9-2.4v-16.45q9.2-2.4 24.6-1.4l1.4.05 8.7.55q5.8.25 10.05 0V-3.1l1.25.6 3 1.5" fill-opacity=".2"/><linearGradient id="a" gradientUnits="userSpaceOnUse" gradientTransform="matrix(.00137 -.0223 .01808 .00111 -3.15 -40.35)" spreadMethod="pad" x1="-819.2" y1="0" x2="819.2" y2="0"><stop offset="0" stop-color="#282828"/><stop offset="1" stop-color="#494949"/></linearGradient><path d="M32.6-31.2l-.6.25q-6.9 2.3-26.3.7l-1.4-.05-2.6-.15q-8.2-.4-14.55.25Q-23-29.15-28.3-25.5L-42-31.7l2.05-1.05 2.05-1 1.95-.95 2.1-1.05 1.8-.95 2.2-1.1 2.1-.95 2-1.05 1.8-.85 2.2-1.15 2-.95 1.8-.9 2.3-1.15 2-.95 2-1.05 1.8-.85 2.25-1.1 2.05-1 2-1.05 3.1-1.45q2.9-1.5 5.8-2.95 11.9 6 23.85 11.95 6.35 5.2 6.5 8.4v.3q-.1 2.15-3.1 3.35" fill="url(#a)"/><linearGradient id="b" gradientUnits="userSpaceOnUse" gradientTransform="matrix(.04742 0 0 .02173 -3.15 -16.75)" spreadMethod="pad" x1="-819.2" y1="0" x2="819.2" y2="0"><stop offset="0" stop-color="#282828"/><stop offset=".235" stop-color="#282828"/><stop offset=".475" stop-color="#515151"/><stop offset=".792" stop-color="#242424"/><stop offset="1" stop-color="#494949"/></linearGradient><path d="M-35.45-2l-6.45-2.9v-10.25l-.05-2.55L-42-22v-9.7l13.7 6.2q5.3-3.65 15.45-4.7 6.35-.65 14.55-.25l2.6.15 1.4.05q19.4 1.6 26.3-.7l.6-.25q3-1.2 3.1-3.35v9.95q-.2 2.35-4 3.6l-3 .7-3 .35-1.25.1q-4.25.25-10.05 0l-8.7-.55-1.4-.05q-15.4-1-24.6 1.4-4.85 1.25-8 3.4l.1 16.7L-35.45-2" fill="url(#b)"/><path d="M-41.95-17.7l-15.75-7.45v-4.55q.65-.35 1.35-.65l.05.05 1.3-.7.45-.25L-53-32l7.5 3.75 1.8-.85 1.35-.65.35-.2V-22l.05 4.3M-28.2 1.05l-.1-16.7q3.15-2.15 8-3.4V-2.6l-4.9 2.4-2.7 1.35-.3-.1" fill="#282828"/><path d="M28.7-1l-3-1.5-1.25-.6v-16.75l1.25-.1 3-.35V-1" fill="#2a2a2a"/><path d="M30.2-1.75L28.7-1v-19.3l3-.7v18.5l-1.5.75" fill="#404040"/><path d="M-9.3-53.65l3-1.55 5.85 2.95-3.1 1.45-5.75-2.85" fill="#444"/><path d="M35.7-34.55v-.3q-.15-3.2-6.5-8.4Q17.25-49.2 5.35-55.2q-2.9 1.45-5.8 2.95l-3.1 1.45-2 1.05-2.05 1-2.25 1.1-1.8.85-2 1.05-2 .95-2.3 1.15-1.8.9-2 .95-2.2 1.15-1.8.85-2 1.05-2.1.95-2.2 1.1-1.8.95-2.1 1.05-1.95.95-2.05 1L-42-31.7l13.7 6.2q5.3-3.65 15.45-4.7 6.35-.65 14.55-.25l2.6.15 1.4.05q19.4 1.6 26.3-.7l.6-.25q3-1.2 3.1-3.35v9.95q-.2 2.35-4 3.6v18.5l-1.5.75-1.5.75v-19.3l3-.7M-49.5-8.7l-.5-.25-2.15-1.1 10.25-5.1-.05-2.55-15.75-7.45v-4.55q.65-.35 1.35-.65.65-.35 1.35-.65l.25-.2.2-.05L-53-32l1.2-.6.65-.25 1.35-.75 2.1-1q1-.55 2.05-1.05l2.15-1.05 1.8-.95 2.05-.95 2-1.05 2.05-.95 2.05-1.05 2-1 2-.95 2.1-1.05 1.95-.95 2-1.05 2.1-1 1.95-1 2.1-1 1.95-1 2.05-1 2.05-1 2-1 3-1.55 5.85 2.95M28.7-20.3l-3 .35-1.25.1q-4.25.25-10.05 0l-8.7-.55-1.4-.05q-15.4-1-24.6 1.4V-2.6l-4.9 2.4-2.7 1.35-.3.15-7.25-3.3-6.45-2.9-7.55-3.8m73.9-11.15V-3.1l1.25.6 3 1.5m1.5-.75l1.5-.75m-42-47.6l2.7 1.35m-.7-2.45l2.75 1.45m-3.75-3.9l5.75 2.85m-52.8 20.45l.05.05 1.3-.7.45-.25m8.25-.6l3.95 2.1.35-.2v-1.75l-2.3-1.15m1.95 3.1l-1.35.65-1.8.85-4.6 2.3 4.85 2.45h.05L-42-22v-7.95m-.25-3.95l2.3 1.15m-10.15 6.8l-7.6-3.75M-42-22l.05 4.3M-50-8.95l.55.25m7.55 3.8v-10.25m23.6-30.9l2.65 1.25m1.35-3.3l2.65 1.3m-4.65-.3l2.65 1.35M-28.25-41l2.5 1.2m-2 1.05l-2.5-1.25m6-3.05l2.5 1.25m-.45-2.25l2.45 1.3M-32.25-39l2.4 1.2m-8.45 1.9l2.35 1.2m-.35-2.25l2.45 1.2m13.55 16.7q-4.85 1.25-8 3.4l.1 16.7.3.1m-.3-.1v.25m0-.25L-35.45-2" fill="none" stroke-linecap="round" stroke-linejoin="round" stroke-miterlimit="3" stroke="#000"/><path d="M-13.35-51.65l3.05 1.55m-1-2.55l3 1.45m-36 18.35l-3.4-1.75m-2.1 1l3.5 1.75m.65-3.8l3.4 1.75M-53-32l7.5 3.75m1.8-.85l-7.45-3.75m31.7-15.8l3.15 1.55M-30.25-40l-3.3-1.65m8.05-3.95l3.3 1.55m-7.35.45l5.6 2.95m-3.5-4l3.2 1.6M-35.6-40.6l3.35 1.6m.7-3.65l3.3 1.65m-11.4 2.4l3.35 1.65m-1.35-2.7l5.6 2.95m10.65-10.95l3.1 1.6m-5.2-.6l5.55 3m-23.75 6l3.4 1.75m-5.2-.8l5.6 2.95m22.5-16.9l5.55 3m-7.5-2l3.05 1.55" fill="none" stroke-width=".05" stroke-linecap="round" stroke-linejoin="round" stroke-miterlimit="3" stroke="#000"/></g></svg>