<svg height="182" width="160" xmlns:xlink="http://www.w3.org/1999/xlink" xmlns="http://www.w3.org/2000/svg"><defs><g id="b"><path d="M-15.55-41.55q-2.65-3.1-2.5-7.1-.15-5.3 5.35-9.8Q-7.2-63.5.45-64q7.6.5 13.05 5.55 5.45 4.5 5.45 9.8 0 4-2.6 7.1h.05l-1 1.2-1.25-.3-.7.75 8.5 3.05.05-.1.8.1h.95l.4.3.55.55.25.35.25 1.5-.2.45q-.35 1.55-1.4 1.65l-2.1.1q-.45-.3-1.15-.9v-.05h-.05l.05-.15-6.05-2.2-.45 1.3h.05l-1.3 10.5h.05l-.05.4v.05h-.05l-.25 3.1H10l-.75 1.55h5.4q.7 0 1.15.4.55.55.55 1.65 0 1.05-.55 1.6-.45.45-1.15.45h-3.5v-.45l-.15.45H8.05v1.45l-7.2-.7v-.05H-1.6l-1.55 1.7v1.2h-1.2v5.2q-.05 1.35-.8 2.25-.7.75-1.7.75T-8.6-3.2q-.75-.9-.75-2.25v-5.2h-1.2l-1.6-2.35.1-.1q-1.8-1.9-2.15-4.15l-.1-1.2.05-.95.55-1.85h.1v-.55l.15-.15v-1.35h-.05l-.05-2.85-.2-.65-.15-.45.15-.4.25-.5.25-.75h.1l.35-4.75h.05l.1-1.6h-.05l-.85.35h-.05v.05l-4.9 1.8h-.05l.05.15h-.05v.05l-1.1.9q-.6.35-1.1.35-.55 0-.95-.45h-.05q-1.05-.1-1.4-1.65l-.15-.45.25-1.5.2-.35.6-.55.35-.3h.95l.5-.05h.15l.1-.05.05.1h.05l6.15-2.2h.05l-.7-1.05h-.05l-1.1-1.45h.2m5.4 13.05v.05h.05l-.05-.05" fill="url(#a)" fill-rule="evenodd" transform="translate(24.75 64.6)"/><path d="M-14.65-40.1h.05l.7 1.05h-.05l-6.15 2.2h-.05l-.05-.1-.1.05h-.15l-.5.05h-.95l-.35.3-.6.55-.2.35-.25 1.5.15.45q.35 1.55 1.4 1.65h.05q.4.45.95.45.5 0 1.1-.35l1.1-.9v-.05h.05l-.05-.15h.05l4.9-1.8v-.05h.05l.85-.35h.05l-.1 1.6h-.05l-.95.4h-.05v-.05l-4.1 1.45q-1 .9-1.6 1.25h-.05l-2.65-.2-.2.15-.05-.25Q-23.5-31.2-24-32v-.05l-.4-1.25-.15-.2q-.35-.7-.15-1.6l.25-.7.15-.3v-.25l.1-.25.2-.4v-.05q.35-.5 1-.8l.85-.25.15.05.1-.05h.05l1.2.1h.05v-.1l.3-.2.05.05v-.05l.05.05 2.5-.95h.05v.05l3-.95m4.1 29.45h1.2v5.2q0 1.35.75 2.25.75.75 1.75.75t1.7-.75q.75-.9.8-2.25v-5.2h1.15v5.2q0 1.95-1.05 3.1-1.1 1.25-2.6 1.25T-9.5-2.35q-1.05-1.15-1.05-3.1v-5.2m18.6-2.15v-1.45h6.6q.7 0 1.15-.45.55-.55.55-1.6 0-1.1-.55-1.65-.45-.4-1.15-.4h-5.4L10-19.9h4.7q1.25 0 2.05.8.9.9.9 2.8 0 1.85-.9 2.75-.8.8-2.05.8H8.05v-.05m5.85-21.15h-.05l.45-1.3 6.05 2.2-.05.15h.05v.05q.7.6 1.15.9l2.1-.1q1.05-.1 1.4-1.65l.2-.45-.25-1.5-.25-.35-.55-.55-.4-.3h-.95l-.8-.1-.05.1-8.5-3.05.7-.75 1.25.3 4.15 1.2v-.05l2.55.95v-.05l.3.2v.1h.1l1.25-.1q.2.15.3 0 1.55.35 2 1.5l.15.25v.25l.15.3.2.7q.2.9-.15 1.6l-.1.2q-.35 1.9-2 2.4.05.45-.2.1l-2.7.2-1.65-1.25-5.85-2.1" fill-rule="evenodd" transform="translate(24.75 64.6)"/><path d="M41.1 23.05q2.6-3.1 2.6-7.1 0-5.3-5.45-9.8Q32.8 1.1 25.2.6q-7.65.5-13.15 5.55-5.5 4.5-5.35 9.8-.15 4 2.5 7.1" fill="none" stroke="#000" stroke-linecap="round" stroke-linejoin="round" stroke-width="1.2"/></g><g id="c"><path d="m-17.4-35.6-4.65-.8 4.55-7.1 3.35 2.35 11.4 2.85H.8l4.05-.85 13.4-2.75 5.25 8.55-3.8-1.15-2.55.95h-.05l-1.05.1.05-.1q-1.4-.15-.95.25-.1.9.35 2.3l.5 2q.05 3.75-1.2 6.2l-2.05 4.5q-1.1 2.35-1.25 3.3-.15.95-1.05.7l-1.4-.5-.3 2.3q-2.5.35-6.55-.7l-6.55-1.7-13.75-.4-5.4.45q-2.85-.15-5.35-2.75-2.5-2.6-2.4-5.4l5.7-.25q.8-.6 3.55-1.65 1.95-.7 2.7-2.3l3.7-7.95-1.8-.45m13.85 2.7h-.1l-3.25-.4-8.7-1.85 8.7 1.85 3.25.4h.1l1.65.15L-2-33h-.5l-.05-.1-.1-.05-.3.05-.6.2m18.7-.4L9.55-32l-.6-.05-1.5-.25-1.7.3-2.8-.15-4.8-.6h-.05.05l4.8.6 2.8.15 1.7-.3 1.5.25.6.05 5.6-1.3m-31.75 6.7-2.7-.6 2.7.6M9.05-14.8q-2.45.25-3.65-.85-1.2-1.15-.4-3.1-5 .3-14.8-1.55l-15.75-2.95L-9.8-20.3Q0-18.45 5-18.75q-.8 1.95.4 3.1 1.2 1.1 3.65.85m1.7-9.3 4.05 1.3-4.05-1.3m1.5-4.9H16h-3.75" fill-rule="evenodd" transform="translate(31.75 43.5)"/><path d="m-17.4-35.6 1.8.45 8.7 1.85 3.25.4h.1m1.65.15h.05l4.8.6 2.8.15 1.7-.3 1.5.25.6.05 5.6-1.3.5.05.4-.2 1.05-.1h.05l2.55-.95m-3.6.95-.05.1m-17.95.7-1.65-.15" fill="none" stroke="#ccc" stroke-linecap="round" stroke-linejoin="round" transform="translate(31.75 43.5)"/><path d="M15.15-33.3q-.1.9.35 2.3l.5 2q.05 3.75-1.2 6.2l-2.05 4.5q-1.1 2.35-1.25 3.3-.15.95-1.05.7l-1.4-.5-.3 2.3q-2.5.35-6.55-.7l-6.55-1.7-13.75-.4-5.4.45q-2.85-.15-5.35-2.75-2.5-2.6-2.4-5.4l5.7-.25q.8-.6 3.55-1.65 1.95-.7 2.7-2.3l3.7-7.95M16-29h-3.75m2.55 6.2-4.05-1.3m-36.3.85L-9.8-20.3Q0-18.45 5-18.75q-.8 1.95.4 3.1 1.2 1.1 3.65.85M-19.3-27.2l2.7.6" fill="none" stroke="#000" stroke-linecap="round" stroke-linejoin="round" transform="translate(31.75 43.5)"/><path d="m.5-25.45-1.95-2.5-.35-.1-4.8-.4-.55-.15-2.4 1.8-.1.1 2.45 3.6.3.45 3.15.2.95.15.15.25 3.5-2.7-.05-.05-.3-.65m-6.6 3.95-.8-1.15h-.05l-.25-.45-.5.35-5.4-1.35 2-1.65 1.15-.8.3-.15-2.25-3.4 4.75 1.5.45-.35.1.5.75-1.15 2.1-1.6 1.65 2.25.3.9h.3l.05.1 5.65.8-3.35 2.4 2.65 3.6-6.15-.9-.85.55" fill="none" stroke="#fff" stroke-linecap="round" stroke-linejoin="round" transform="translate(31.75 43.5)"/></g><linearGradient gradientTransform="matrix(0 .0378 -.0376 0 .95 -33.2)" gradientUnits="userSpaceOnUse" id="a" spreadMethod="pad" x1="-819.2" x2="819.2"><stop offset="0" stop-color="#999"/><stop offset="1" stop-color="#333"/></linearGradient></defs><g transform="matrix(2 0 0 2 82.741 144.2)"><use height="63.5" transform="translate(-24.75 -64.6)" width="51.35" xlink:href="#b"/><use height="31.6" transform="translate(-31.75 -43.5)" width="55.25" xlink:href="#c"/></g><path d="m109.641 37.6 3.7 4.4h-2.1l-2.9-2.4-2.9 2.4h-2.1l3.8-4.4h2.5" fill-rule="evenodd" id="gikopoipoi_eyes_open" style="stroke-width:2"/><path d="M105.141 39.9h6.3" fill="none" stroke="#000" stroke-linecap="round" stroke-linejoin="round" stroke-width="3" id="gikopoipoi_eyes_closed" style="display:none"/></svg>