<svg height="182" width="160" xmlns:xlink="http://www.w3.org/1999/xlink" xmlns="http://www.w3.org/2000/svg"><defs><g id="b"><path d="M-15.5-41.55q-2.65-3.1-2.5-7.1-.15-5.3 5.35-9.8Q-7.15-63.5.5-64q7.6.5 13.05 5.55 5.45 4.5 5.45 9.8 0 4-2.6 7.1h.1-.05l-1 1.2-1.25-.3-.7.75 8.5 3.05.05-.1.8.1h.95l.4.3.55.55.25.35.25 1.5-.2.45q-.35 1.55-1.4 1.65l-2.1.1-1.15-.9v-.05h-.05l.05-.15-6.05-2.2-.45 1.3h.05l-1.3 10.5h.05l-.05.4v.05h-.05l-.35 4.2-1.05 4.1-1.65 4v.05H8.4v5.2Q8.35-4.1 7.6-3.2q-.65.75-1.7.75-1 0-1.7-.75-.8-.9-.8-2.25v-5.2H2.1v-1.2h-.3V-12l-.9-1.55h-2.45l-.45.5-1.35.2h-7.1l-2.2-1q-1.2-1.6-1.5-3.4l-.1-1.2.05-.95.55-1.85h.1v-.55l.15-.15v-1.35h-.05l-.05-.8v-2.05l-.2-.65-.15-.45.15-.4.25-.5.25-.75h.1l.35-4.75.1-1.6-.9.35v.05l-4.95 1.8.05.15h-.05v.05l-1.1.9-2.1-.1q-1.1-.1-1.45-1.65l-.15-.45.25-1.5.2-.35.6-.55.35-.3h1l.75-.1.05.1 6.2-2.2-.7-1.05-1.1-1.45h.2m5.45 13.1-.05-.05v.05h.05m-2.6-6.8.05-.3-.05.3" fill="url(#a)" fill-rule="evenodd" transform="translate(24.75 64.6)"/><path d="m15.45-40.35 4.15 1.2v-.05l2.55.95v-.05l.3.2v.1h.1l1.25-.1q.2.15.3 0 1.55.35 2 1.5l.15.25v.25l.15.3.2.7q.2.9-.15 1.6l-.1.2q-.35 1.9-2 2.4.05.45-.2.1l-2.7.2q-.65-.35-1.65-1.25l-5.85-2.1h-.05l.45-1.3 6.05 2.2-.05.15h.05v.05l1.15.9 2.1-.1q1.05-.1 1.4-1.65l.2-.45-.25-1.5-.25-.35-.55-.55-.4-.3h-.95l-.8-.1-.05.1-8.5-3.05.7-.75 1.25.3m-5.9 29.7v5.2q0 1.95-1 3.1Q7.45-1.1 5.9-1.1q-1.5 0-2.65-1.25-1.05-1.15-1-3.1v-5.2H3.4v5.2q0 1.35.8 2.25.7.75 1.7.75 1.05 0 1.7-.75.75-.9.8-2.25v-5.2h1.15m-22.3-23-1 .4v-.1l-4.15 1.5q-1 .9-1.6 1.25l-2.7-.2q-.3.35-.2-.1-1.7-.5-2-2.4l-.15-.2q-.35-.7-.15-1.6l.25-.7.15-.3v-.25l.1-.25q.45-1.15 2.05-1.5.05.15.3 0l1.2.1h.1v-.1l.3-.2.05.05q1.25-.5 2.55-.95v.05l3.05-.95.7 1.05-6.2 2.2-.05-.1-.75.1h-1l-.35.3-.6.55-.2.35-.25 1.5.15.45q.35 1.55 1.45 1.65l2.1.1 1.1-.9v-.05h.05l-.05-.15 4.95-1.8v-.05l.9-.35-.1 1.6" fill-rule="evenodd" transform="translate(24.75 64.6)"/><path d="m-13.75-21.9-.05-.1.05.1" fill="#fff" fill-rule="evenodd" transform="translate(24.75 64.6)"/><path d="M9.25 23.05q-2.65-3.1-2.5-7.1-.15-5.3 5.35-9.8Q17.6 1.1 25.25.6q7.6.5 13.05 5.55 5.45 4.5 5.45 9.8 0 4-2.6 7.1" fill="none" stroke="#000" stroke-linecap="round" stroke-linejoin="round" stroke-width="1.2"/></g><g id="c"><path d="m-17.4-35.6-4.65-.8 4.55-7.1 3.35 2.35 11.4 2.85H.8l4.05-.85 13.4-2.75 5.25 8.55-3.8-1.15-2.55.95h-.05l-1.05.1.05-.1q-1.4-.15-.95.25L9.55-32l-.6-.05-1.5-.25-1.7.3-2.8-.15-4.8-.6h-.05.05l4.8.6 2.8.15 1.7-.3 1.5.25.6.05 5.6-1.3q-.25 2.05-.15 4.8l.15 3.5q.05 1.5-.35 2.2l-.6 1.4q.15 2.7-1 4.55l-1.5 2.3q-.35.5-1.25.25l-1.4-.5-.3 2.3q-2.5-2.25-5.45-2.4l-6.3.35q-.65-.05-4.4 2.1-3.8 2.1-7.55-.3-3.7-2.45-4.3-2.4l-4.05-2.5q-2.35-1.25-5.2-1.9-2.85-.65-2.75-3.45l5.7-.25q-.55-1.35 1.4-2.45 1.95-1.15 4.85-1.5l.6-1.2q2.5-1.9 3.1-6.75l-1.8-.45m13.85 2.7h-.1l-3.25-.4-8.7-1.85 8.7 1.85 3.25.4h.1l1.65.15L-2-33h-.5l-.05-.1-.1-.05-.3.05-.6.2m15.8 3.9 2.75.5-2.75-.5m-28.85 2.4-2.7-.6 2.7.6m1.85-.9-3.95-.9 3.95.9m23.8 12.7q-2.45.25-3.65-.85-1.2-1.15-.4-3.1-5 .3-14.8-1.55l-15.75-2.95L-9.8-20.3Q0-18.45 5-18.75q-.8 1.95.4 3.1 1.2 1.1 3.65.85M11-22.5l3.2 1.1-3.2-1.1m-.25-1.6 4.05 1.3-4.05-1.3m-30 5.6v3.35-3.35M-3-17.25v2.7-2.7" fill-rule="evenodd" transform="translate(31.75 43.5)"/><path d="m-17.4-35.6 1.8.45 8.7 1.85 3.25.4h.1m1.65.15h.05l4.8.6 2.8.15 1.7-.3 1.5.25.6.05 5.6-1.3.5.05.4-.2 1.05-.1h.05l2.55-.95m-3.6.95-.05.1m-17.95.7-1.65-.15" fill="none" stroke="#ccc" stroke-linecap="round" stroke-linejoin="round" transform="translate(31.75 43.5)"/><path d="m15-28.5-2.75-.5m2.9-4.3q-.25 2.05-.15 4.8l.15 3.5q.05 1.5-.35 2.2l-.6 1.4q.15 2.7-1 4.55l-1.5 2.3q-.35.5-1.25.25l-1.4-.5-.3 2.3q-2.5-2.25-5.45-2.4l-6.3.35q-.65-.05-4.4 2.1-3.8 2.1-7.55-.3-3.7-2.45-4.3-2.4l-4.05-2.5q-2.35-1.25-5.2-1.9-2.85-.65-2.75-3.45l5.7-.25q-.55-1.35 1.4-2.45 1.95-1.15 4.85-1.5l.6-1.2q2.5-1.9 3.1-6.75M14.8-22.8l-4.05-1.3m3.45 2.7L11-22.5m-36.55-.75L-9.8-20.3Q0-18.45 5-18.75q-.8 1.95.4 3.1 1.2 1.1 3.65.85M-18.7-28.4l3.95.9m-4.55.3 2.7.6M-3-14.55v-2.7m-16.25 2.1v-3.35" fill="none" stroke="#000" stroke-linecap="round" stroke-linejoin="round" transform="translate(31.75 43.5)"/><path d="m.5-25.45-1.95-2.5-.35-.1-4.8-.4-.55-.15-2.4 1.8-.1.1 2.45 3.6.3.45 3.15.2.95.15.15.25 3.5-2.7-.05-.05-.3-.65m-7.4 2.8h-.05l-.25-.45-.5.35-5.4-1.35 2-1.65 1.15-.8.3-.15-2.25-3.4 4.75 1.5.45-.35.1.5.75-1.15 2.1-1.6 1.65 2.25.3.9h.3l.05.1 5.65.8-3.35 2.4L2.9-22m-3.55.25-2-.3" fill="none" stroke="#fff" stroke-linecap="round" stroke-linejoin="round" transform="translate(31.75 43.5)"/><path d="m2.9-22 .45.6m-6-.65-.85.55m-2.6 0-.8-1.15m9.25 1.35-3-.45" fill="none" stroke="#999" stroke-linecap="round" stroke-linejoin="round" transform="translate(31.75 43.5)"/></g><linearGradient gradientTransform="matrix(0 .0378 -.0376 0 1 -33.2)" gradientUnits="userSpaceOnUse" id="a" spreadMethod="pad" x1="-819.2" x2="819.2"><stop offset="0" stop-color="#999"/><stop offset="1" stop-color="#333"/></linearGradient></defs><g transform="matrix(2 0 0 2 82.641 144.2)"><use height="63.5" transform="translate(-24.75 -64.6)" width="51.4" xlink:href="#b"/><use height="32.55" transform="translate(-31.75 -43.5)" width="55.25" xlink:href="#c"/></g><path d="m109.641 37.6 3.7 4.4h-2.1l-2.9-2.4-2.9 2.4h-2.1l3.8-4.4h2.5" fill-rule="evenodd" id="gikopoipoi_eyes_open" style="stroke-width:2"/><path d="M105.141 39.9h6.3" fill="none" stroke="#000" stroke-linecap="round" stroke-linejoin="round" stroke-width="3" id="gikopoipoi_eyes_closed" style="display:none"/></svg>