<svg xmlns="http://www.w3.org/2000/svg" xmlns:xlink="http://www.w3.org/1999/xlink" height="182" width="160"><defs><g id="c"><path d="M-10.25-9.4q-4.05.25-5.75-3.8-1.8-4.25-1.5-14.55l3.25-6.5 23 3q7.95-1.45 6.9 5.5v1.2L18.1-15l-1 1.75-.85.25-.55-.1-8.6 1.35-17.35 2.35" fill-rule="evenodd" transform="translate(18.6 64.6)"/><path d="m15.7-13.1-8.6 1.35-17.35 2.35" fill="none" stroke="#000" stroke-linecap="round" stroke-linejoin="round" transform="translate(18.6 64.6)"/><path d="M8.35 55.2q-4.05.25-5.75-3.8-1.8-4.25-1.5-14.55l3.25-6.5 23 3q7.95-1.45 6.9 5.5" fill="none" stroke="#333" stroke-linecap="round" stroke-linejoin="round" stroke-width=".5"/><path d="M-15.5-41.55q-2.65-3.1-2.5-7.1-.15-5.3 5.35-9.8Q-7.15-63.5.5-64q7.6.5 13.05 5.55 5.45 4.5 5.45 9.8 0 4-2.6 7.1h.1-.05l-2.6 3.1v.8l-.2-.95-.8.05.65 9.65h.15l.25.75.2.5.2.4-.15.45-.3.75-.2.35-.9.7h-.05l-.05 1.5h.05l-.05.5h-.05l-.05.45h.05l-.25 2.65h-1.8l-.75 1.55h5.4l1.15.4q.55.55.55 1.65 0 1.05-.55 1.6-.45.45-1.15.45H8.6v1.45l-4.5-.25.65-.5q.9-.9.9-2.75 0-1.9-.9-2.8-.8-.8-2.05-.8h-6.6v1.55h6.55q.7 0 1.15.4.55.55.55 1.65 0 1.05-.55 1.6-.45.45-1.15.45H-3.9v1.4l-6.55-.35-1.95-.4q-1.45-1.7-1.75-3.65l-.1-1.2.05-.95.55-1.85h.1v-.55l.15-.15V-24q.75.6 1.55.55l.25-.05q1.9.5 3-.85.4.2.2-.15 1-.75 1.25-2.4-.05-.7-.45-2l.45-6.3-1.35-.1-.5 6.45.15.05v.05h.05l.4 1.4q.15 1.45-.95 1.9-.55.9-2.1.6h-.5q-.6-.2-1.3-.85l-.2-.35v-2.1l.25-.75h.1l.7-9.65-.85-.05-.4-.05v-.15l-2.05-2.75h.2m5.4 13.1h.05l-.05-.05v.05" fill="url(#a)" fill-rule="evenodd" transform="translate(18.6 64.6)"/><path d="M13.85-37.65 14.5-34l.15 1.95.05-.05v.1l.2 2.65v.35h-.1v.1q.25.7.6 1.1-.05.25.15.3.3 1.6-.6 2.45l-.15.2q-.15-.05-.2.1l-.25.25-.55.5q-.55.4-1.1.5h-.05l.05-1.5h.05l.9-.7.2-.35.3-.75.15-.45-.2-.4-.2-.5-.25-.75h-.15l-.65-9.65.8-.05.2.95m-1.5 17.75h2.9q1.25 0 2.05.8.9.9.9 2.8 0 1.85-.9 2.75-.8.8-2.05.8H8.6v-1.5h6.6q.7 0 1.15-.45.55-.55.55-1.6 0-1.1-.55-1.65l-1.15-.4H9.8l.75-1.55h1.8M4.1-13.05l-1.3.3h-6.7v-1.5h6.55q.7 0 1.15-.45.55-.55.55-1.6 0-1.1-.55-1.65-.45-.4-1.15-.4H-3.9v-1.55h6.6q1.25 0 2.05.8.9.9.9 2.8 0 1.85-.9 2.75l-.65.5M-13.4-24l-.55-.5-.2-.25-.2-.1-.2-.2q-.9-.85-.55-2.45.15-.05.15-.3l.55-1.1.05-.1h-.1l-.05-.35h.05l.2-2.65v-.1l.05.05.1-1.95.85-4.6.85.05-.7 9.65h-.1l-.25.75-.25.5-.15.4.15.45.25.75.2.35q.7.65 1.3.85h.5q1.55.3 2.1-.6 1.1-.45.95-1.9l-.4-1.4h-.05v-.05l-.15-.05.5-6.45 1.35.1-.45 6.3q.4 1.3.45 2-.25 1.65-1.25 2.4.2.35-.2.15-1.1 1.35-3 .85l-.25.05q-.8.05-1.55-.55" fill-rule="evenodd" transform="translate(18.6 64.6)"/><path d="m-13.8-22 .05.1-.05-.1" fill="#fff" fill-rule="evenodd" transform="translate(18.6 64.6)"/><path d="M3.1 23.05q-2.65-3.1-2.5-7.1-.15-5.3 5.35-9.8Q11.45 1.1 19.1.6q7.6.5 13.05 5.55 5.45 4.5 5.45 9.8 0 4-2.6 7.1" fill="none" stroke="#000" stroke-linecap="round" stroke-linejoin="round" stroke-width="1.2"/><path d="M5.4-44.05q.15.45.45.75l.7.25.95-.6q.4-.65.4-1.65 0-1.35-.9-3.25h1.05q.9 1.6.9 3.15 0 1.55-.65 2.4-.6.8-1.6.8-1.35 0-1.9-1.4-.6 1.4-1.9 1.4-1.05 0-1.65-.85Q.6-43.9.6-45.4q0-1.55.95-3.15h1q-.85 1.9-.85 3.25 0 1 .35 1.65.4.6.95.6.4 0 .7-.3l.45-.7.1-1.15V-47H5.3v1.8l.1 1.15" fill-rule="evenodd" transform="translate(18.6 64.6)"/></g><g id="e"><path d="M4.05-31.2 15.9-42.55l4.7.55 3.55 4.8-2.25-.6-7.75 2.5L4.1-31.15l-.05-.05.05.05 10.05-4.15 1.5 6.25v1.25l-.3.05-.25-1.7Q13.6-33.35 4-31l.15-.1-.05-.05.05.05L4-31l-5.35 2.45q-12.3-6.2-14.5-2.35l-2.05 2.4 2.05-2.4q-1.45 2.5 1.45 9.3l.1 11.55-4.5-2.6.9-15.85.15-1.85-.3-5.35 10.85-.2q5.2 0 7.95 1.85Q-2-35.9-7.2-35.9l-10.85.2-4.7-.05 5.9-6.15 13.5 4.3 4.1 3.55 3.3 2.85-.15.1.2-.05-.2.05.15-.1m-.15.1.1.1-.1-.1M-13.7-9.85h2.8l.75.7-3.55-.7" fill-rule="evenodd" transform="translate(23.25 43.05)"/><path d="m14.15-35.3 7.75-2.5 2.25.6L20.6-42l-4.7-.55L4.05-31.2l.05.05 10.05-4.15 1.5 6.25v4.5q2.25 5.1 2.2 10.15l-1.6 1.4M4.1-31.15l.05.05L4-31q9.6-2.35 11.1 1.55M4.05-31.2l-.15.1.2-.05m-.05-.05-3.3-2.85Q-2-35.9-7.2-35.9l-10.85.2.3 5.35-.15 1.85 2.05-2.4q2.2-3.85 14.5 2.35L4-31l-.1-.1m-21.95-4.6-4.7-.05 5.9-6.15 13.5 4.3 4.1 3.55m-10.9 24.9-3.55-.7-.6-.2-4.5-2.6.9-15.85" fill="none" stroke="#000" stroke-linecap="round" stroke-linejoin="round" transform="translate(23.25 43.05)"/><path d="m.8-35 6.25-.55q1-.1 1 .9v8.9q0 1-1 1.1L.8-24.1q-1 .1-1-.9v-8.9q0-1 1-1.1" fill-rule="evenodd" transform="translate(23.25 43.05)"/><path d="M24.05 8.05q-1 .1-1 1.1v8.9q0 1 1 .9l6.25-.55q1-.1 1-1.1V8.4q0-1-1-.9l-6.25.55z" fill="none" stroke="#ccc" stroke-linecap="round" stroke-linejoin="round" stroke-width=".5"/><path d="M29.65 9.85v.6m-4.95 3.5.25-.1h.3" fill="none" stroke="red" stroke-linecap="round" stroke-linejoin="round" stroke-width="1.5"/><path d="m24.95 11.35 1.4-.25" fill="none" stroke="#ccc" stroke-linecap="round" stroke-linejoin="round" stroke-width="1.5"/><path d="M27.75 9.25 28 9.2" fill="none" stroke="#0f0" stroke-linecap="round" stroke-linejoin="round" stroke-width="1.5"/><path d="M24.95 16.05V17m2.8-2.75v.95m1.6-1.95v.95" fill="none" stroke="#fff" stroke-linecap="round" stroke-linejoin="round" stroke-width="1.5"/></g><linearGradient gradientTransform="matrix(0 .0385 -.0312 0 5 -32.5)" gradientUnits="userSpaceOnUse" id="a" spreadMethod="pad" x1="-819.2" x2="819.2"><stop offset="0" stop-color="#999"/><stop offset="1" stop-color="#333"/></linearGradient><path d="m.7-.3 1.85 2.2H1.5L.05.7-1.4 1.9h-1.05l1.9-2.2H.7" fill-rule="evenodd" transform="translate(2.45 .3)" id="b"/><use height="2.2" width="5" xlink:href="#b" id="d"/></defs><g transform="matrix(2 0 0 2 82.341 144.2)"><use height="55.7" transform="translate(-18.6 -64.6)" width="38.2" xlink:href="#c"/><use height="2.2" transform="translate(10.35 -53.3)" width="5" xlink:href="#d"/><use height="2.2" transform="translate(-5.9 -53.3)" width="5" xlink:href="#d"/><use height="34.4" transform="translate(-23.25 -43.05)" width="47.9" xlink:href="#e"/></g></svg>