<svg xmlns:xlink="http://www.w3.org/1999/xlink" height="90.7" width="78.75" xmlns="http://www.w3.org/2000/svg"><g transform="translate(39.2 64.2)"><use height="70.8" transform="translate(-39.2 -44.3)" width="78.75" xlink:href="#a"/><use height="51.65" transform="translate(-30.8 -64.2)" width="44.35" xlink:href="#b"/></g><defs><linearGradient gradientTransform="matrix(-.001 0 0 .0198 -36.45 -12.6)" gradientUnits="userSpaceOnUse" id="d" spreadMethod="pad" x1="-819.2" x2="819.2"><stop offset="0" stop-color="#bfb1a2"/><stop offset=".498" stop-color="#e4e1de"/><stop offset=".988" stop-color="#c7bbad"/></linearGradient><linearGradient gradientTransform="matrix(-.0011 0 0 .0247 37 1.5)" gradientUnits="userSpaceOnUse" id="e" spreadMethod="pad" x1="-819.2" x2="819.2"><stop offset="0" stop-color="#bfb1a2"/><stop offset=".498" stop-color="#e4e1de"/><stop offset=".988" stop-color="#c7bbad"/></linearGradient><g id="a"><path d="M37 13.1 11.05 25 11 21.15l.2-.2-.1-.2h-.05l-.4-.25-.1-.05h-.05V17l18.3-8.4 5.85 3v.65l-.1.2.65.4 1.6.25h.2M8.95 26l-.85.35-24.85-12.1V14L-34.7 5.25l.45-.4-.05-.15-.05-1.55.15-.2-.05-.15-.05-.05h-.05V1.2l16.1-7.45h-.05l5.25-2.4L7.6 1.7v3.8l-.05 1.25.05-1.25v1.25h-.05v.6l-.05 13.1h-.1l-.6.3-.05.2.1.2-.1 4-.05.2q-.05.2.65.4L8.9 26h.05" fill="#848484" fill-opacity=".4" fill-rule="evenodd" transform="translate(39.2 44.3)"/><path d="m-19.1-11.3.4.25-.4-.25" fill="#a38c7e" fill-rule="evenodd" transform="translate(39.2 44.3)"/><path d="m38.9 8.25.05 4 .05.2q0 .2-.65.4L37 13.1h-.2l-1.6-.25-.65-.4.1-.2v-.65l.1-3.4.5.25 1.6.2 1.55-.2.5-.2M11.05 25v.15l.1.2q-.05.2-.65.4L8.95 26H8.9l-1.55-.25q-.7-.2-.65-.4l.05-.2.1-4 .55.2 1.55.25 1.6-.25.45-.2.05 3.85M-34.7 5.25l-.2.05-1.55.2-1.6-.2-.65-.45.1-.15.05-1.35V2.8l.05-2.15.5.25.15.05 1.45.15 1.55-.2.5-.2v2.45l.05 1.55.05.15-.45.4" fill="#614b49" fill-rule="evenodd" transform="translate(39.2 44.3)"/><path d="m-38.55 3.35-.25-.1.25-.1v.2m49.2 17.15-.15-.05h.05l.1.05" fill="#666" fill-opacity=".498" fill-rule="evenodd" transform="translate(39.2 44.3)"/><path d="m-38.5-26.45.4.65-.4-.2v-.45m25.85 13.35v-.05.05" fill="url(#c)" fill-rule="evenodd" transform="translate(39.2 44.3)"/><path d="m-38.55 3.1-.1-.15.1-.15v.3m4.2-.35h.05l.05.05.05.15-.15.2v-.4" fill="url(#d)" fill-rule="evenodd" transform="translate(39.2 44.3)"/><path d="M35.4.8v.05V.8" fill="url(#e)" fill-rule="evenodd" transform="translate(39.2 44.3)"/><path d="M12.25-29.15 8.9-26.5l-1.75-1.25 3.85-2.5 1.25 1.1" fill-rule="evenodd" transform="translate(39.2 44.3)"/><path d="M12.25-29.15 11-30.25l-3.85 2.5L8.9-26.5l3.35-2.65M38.7-19.9 8.85-6.3-38.35-30 8.85-6.3 38.7-19.9l.2 3.85-.6.25-2.9 1.35V5.6l-6.6 3L10.5 17V2.2L34.6-8.85l.8-.2-.8.2L10.5 2.2v-5.25l-1.65.75-1.2-.6L3.2-5.1l-1.25-.65L.7-6.4l-4.85-2.5-8.5-4.25v.05l-17.65-8.8-4.55-2.3-2.8-1.4h-.05l-.4-.2-.4-.65.15-3.55 29.9-13.8L38.65-20l.05.1M8.85-6.3v4-4m1.65 3.25 24.9-11.4-24.9 11.4" fill="#ffc" fill-rule="evenodd" transform="translate(39.2 44.3)"/><path d="M-37.7-25.6h.05l2.8 1.4v4.1l16.35 8.2-16.35 7.8V0l.15.05.4.2.05.05.05.15-.15.25-.5.2-1.55.2-1.45-.15L-38 .9l-.5-.25-.15-.2.1-.15q.1-.2.55-.3h.05l.1-.05.15-25.55M7.65-2.9l1.2.6 1.65-.75v23.5l.15.05.4.25h.05l.1.2-.2.2-.45.2-1.6.25-1.55-.25-.55-.2-.1-.2.05-.2.6-.3h.1l.05-13.1v-.6h.05V1.2l.05-4.1M38.3-15.8l.1 23.35.15.05.4.2.05.05.05.15-.15.25-.5.2-1.55.2-1.6-.2-.5-.25-.15-.2.1-.15q.1-.2.55-.3h.05l.1-.05v-21.95l2.9-1.35m-73.15 8.7v3-16 13" fill="#999" fill-rule="evenodd" transform="translate(39.2 44.3)"/><path d="m-34.85-24.2 4.55 2.3 17.65 8.8v-.05l8.5 4.25L.7-6.4l1.25.65 1.25.65 4.45 2.2-.05 4.1-26.1-13.1-16.35-8.2.9-.15 3.65-1.65-3.65 1.65-.9.15v-4.1" fill="#666" fill-rule="evenodd" transform="translate(39.2 44.3)"/><path d="M-38.35-30 8.85-6.3 38.7-19.9l.2 3.85-.6.25.1 23.35.15.05.4.2.05.05.05.15-.15.25.05 4 .05.2q0 .2-.65.4L37 13.1M-8.45-43.8-38.35-30l-.15 3.55.4.65.4.2h.05l2.8 1.4 4.55 2.3 17.65 8.8m0-.05 8.5 4.25M.7-6.4l1.25.65m1.25.65 4.45 2.2 1.2.6v-4m1.65 3.25-1.65.75m2.2 27.3v.15l.1.2q-.05.2-.65.4L8.95 26M-34.7 5.25l-.2.05-1.55.2-1.6-.2-.65-.45.1-.15.05-1.35V2.8l.05-2.15-.15-.2.1-.15q.1-.2.55-.3h.05l.1-.05.15-25.55m76.4 5.7v-.05m-.4 4.15-2.9 1.35V.8m0 1.35v.4m0 3.05v1.9l-.1.05h-.05q-.45.1-.55.3l-.1.15.15.2.5.25 1.6.2 1.55-.2.5-.2m-3.5-17.3-.8.2L10.5 2.2m0 3.4V17l18.3-8.4 6.6-3m0-20.05L10.5-3.05M35.4.85v1.3m0-1.3V.8m-.65 7.4-.1 3.4v.65l-.1.2.65.4 1.6.25h.2m1.4-5.55.15.05m-31-.85v.6l-.05 13.1h-.1l-.6.3-.05.2.1.2.55.2 1.55.25 1.6-.25.45-.2.2-.2-.1-.2h-.05l-.4-.25-.15-.05V17M7.6 5.5V1.2l-26.1-13.1-16.35 7.8m.5 5.3v1.95l.05 1.55.05.15-.45.4m42.25 1.5L7.6 5.5m-42.45-7.55V0l.15.05.4.2.05.05.05.15-.15.25v.5m45 19.3-.1-.05h-.05m-3.65.7-.1 4-.05.2q-.05.2.65.4L8.9 26h.05m2.1-1L11 21.15M7.6 1.2l.05-4.1M-38.1-25.8l-.4-.2v-.45m3.65 6.35 16.35 8.2m-11.8-10-3.65 1.65-.9.15v-4.1m0 21.3v-1.2m0-3v-13m.5 20.8-.5.2-1.55.2-1.45-.15L-38 .9l-.5-.25m3.65-.65.15.05m46.95-29.2L11-30.25l-3.85 2.5L8.9-26.5l3.35-2.65M38.65-20l-47.1-23.8m4.3 34.9L.7-6.4m1.25.65 1.25.65m35.5-14.85h-.05V-20M35.4.85v1.3m0 .4V5.6M10.5 2.2v3.4m0-8.65V2.2m-45.35-6.3v2.05m0-2.05v-3" fill="none" stroke="#000" stroke-linecap="round" stroke-linejoin="round" transform="translate(39.2 44.3)"/></g><g id="f"><path d="m-17.4-13.5 12.45 6.15 6 2.95.05 11.1L-5 3.75l-10.05-4.8-2.35-1.15v-11.3M2.65 16.25V19l-12.5 5.55v-1.5l12.5-6.8-12.5 6.8v1.5L-35 12v-1.35l12.5-6.95Q-9.9 9.95 2.65 16.25m-17.6-21.1 6.45 3.2v-5.1l-6.45-3.2v5.1m14.3.8-3.5-1.75 3.5 1.75m-19.45 11 2.15 1.1 1.1-.55L-19 6.4l-1.95-.95L-22 6l1.9.95m2.6 1.3 1.75.9 1.95 1 1.1-.65-1.95-.95-1.75-.85-1.1.55m5.2 1.45-1.15.6 2.05 1.05 3.1 1.55 1.1-.65-3.1-1.55-2-1m1.75 4.55 1.9-1.05-15.3-7.6-1.8 1-1.6.9-1.7 1-1.9 1.05-1.9 1 15.3 7.6 1.9-1.05 1.85-1 3.25-1.85m1.8.45-3.55 2-3.8 2.1 2.25 1.1 2.2 1.1 1.5.8 3.6-2 3.55-2 1.75-.95-5.9-3.05-1.6.9m7.2.3-.35-.05-.7.15-.25.4.25.4.7.15h.35l.3-.1.3-.4q0-.25-.3-.4l-.3-.15m-20.9-9.2 1.1-.55-1-.5-1.15.55 1.05.5m12.6 17.25L-35 10.65l25.15 12.4M.1 4.95-4.4 2.9.1 4.95M.05 2.1l-4.5-2 4.5 2m0-2.95-4.35-2.1L.05-.85m-5-6.5L-5 3.75l.05-11.1" fill="#fff" fill-rule="evenodd" transform="translate(35.5 22.15)"/><path d="m1.05-4.4.6.3.6.3-.05 11-1.1-.5-.05-11.1" fill="#999" fill-rule="evenodd" transform="translate(35.5 22.15)"/><path d="m-20.1 6.95 1.1-.55-1.1.55L-22 6l1.05-.55 1.95.95 2.15 1.1-1.1.55-2.15-1.1m4.35 2.2-1.75-.9 1.1-.55 1.75.85-1.1.6 1.1-.6 1.95.95-1.1.65-1.95-1m2.3 1.15 1.15-.6 2 1-1.1.65 1.1-.65 3.1 1.55-1.1.65-3.1-1.55-2.05-1.05m2.9 3.95-2.15-1.1-13.05-6.55 13.05 6.55 2.15 1.1-3.25 1.85-1.85 1-1.9 1.05-15.3-7.6 1.9-1 1.9-1.05 1.7-1 1.6-.9 1.8-1 15.3 7.6-1.9 1.05m-3.75-.2-2.9-1.45-.1-.1-10.05-5 10.05 5 .1.1 2.9 1.45 1.6-.9-1.6.9.55.3-1.7.9-13.6-6.75 13.6 6.75 1.7-.9-.55-.3m5.55.65 2.15 1.15-3.55 2q-1.05-.6-2.15-1.15 1.1.55 2.15 1.15l3.55-2-2.15-1.15 1.6-.9 5.9 3.05-1.75.95-3.55 2L-8 19l1.45.8-3.6 2-1.5-.8-2.2-1.1-2.25-1.1 3.8-2.1 3.55-2M-8 19l-2.15-1.15-3.7 2.05 3.7-2.05L-8 19l3.55-1.95L-8 19l-3.65 2L-8 19m1.4-3.15 2.15 1.2-2.15-1.2m2.15 1.2 1.45.75-1.45-.75m-11-1.8 1.65.85-1.65-.85m-5.9-10-1.1.55-1.05-.5 1.15-.55 1 .5m-9.6 4.3 15.3 7.55-15.3-7.55" fill="#ff9" fill-rule="evenodd" transform="translate(35.5 22.15)"/><path d="m-1.55 15 .3.15q.3.15.3.4l-.3.4-.3.1h-.35l-.7-.15-.25-.4.25-.4.7-.15.35.05" fill="#00f" fill-rule="evenodd" transform="translate(35.5 22.15)"/><path d="M-17.4-13.5v-1.9L1.1-6.2l-.05 1.8-6-2.95-12.45-6.15M1.1 6.7l1.1.5v1.55L-15.1.15l.05-1.2L-5 3.75 1.1 6.7M-14.95-4.85v-5.1l6.45 3.2v5.1l-6.45-3.2" fill="#33f" fill-rule="evenodd" transform="translate(35.5 22.15)"/><path d="M-15.1.15-17.4-1v-1.2l2.35 1.15-.05 1.2" fill="#0f0" fill-rule="evenodd" transform="translate(35.5 22.15)"/><path d="m1.05-4.4.05-1.8.35 1.25.5-.85-.5.85L1.1-6.2l.85.4.3.15v1.85l-.6-.3-.6-.3.4-.55.2.85-.2-.85-.4.55" fill="#f60" fill-rule="evenodd" transform="translate(35.5 22.15)"/><path d="M5.15 12.95v-20.3l3.2-1.75-3.2 1.75v20.3L.9 10.85l-1.15-.6-5.4-2.7-.05 2.35q-3.4-1.65-6.75-3.35l.05-2.35-1.05-.55L-20 .4v-20.3l3.2-1.75L8.35-9.1v20.25l-3.2 1.8m0-20.3L-20-19.9 5.15-7.35M1.1-6.2l-18.5-9.2V-1l2.3 1.15 17.3 8.6V7.2l.05-11v-1.85l-.3-.15-.85-.4M-5.65 7.55-12.4 4.2l6.75 3.35" fill="#ffc" fill-rule="evenodd" transform="translate(35.5 22.15)"/><path d="M-.25 10.25-2.5 11.5l-3.2-1.6.05-2.35 5.4 2.7m-12.2-3.7-3.25-1.6 2.25-1.3 1.05.55-.05 2.35" fill="#666" fill-rule="evenodd" transform="translate(35.5 22.15)"/><path d="m4.65 23.1-2 1.5 2-1.5L6 24.35 4 26l-1.35-1.4-1.2-1.2L3.4 22l1.25 1.1" fill="#3ff" fill-rule="evenodd" transform="translate(35.5 22.15)"/><path d="m1.45 23.4 1.2 1.2L4 26l2-1.65v2L2.65 29 .9 28.65-.6 27v-2.25l2.05-1.35M4 26l-2 1.6H.5L-.6 26l1.1 1.6H2L4 26" fill="#039" fill-rule="evenodd" transform="translate(35.5 22.15)"/><path d="m8.35-9.1-3.2 1.75v20.3l3.2-1.8V-9.1L-16.8-21.65-20-19.9 5.15-7.35M1.1-6.2l-18.5-9.2v1.9M2.25-3.8v-1.85l-.3-.15m-.85-.4.85.4m.25 13 .05-11m-.05 11v1.55L-15.1.15-17.4-1v-12.5M.9 10.85l-1.15-.6-2.25 1.25-3.2-1.6q-3.4-1.65-6.75-3.35l-3.25-1.6 2.25-1.3L-20 .4v-20.3m10.15 44.45L2.65 19v-2.75l-12.5 6.8v1.5L-35 12v-1.35l12.5-6.95Q-9.9 9.95 2.65 16.25M.9 10.85l4.25 2.1M.9 28.65-.6 27v-2.25m.35-14.5-5.4-2.7-.05 2.35m-7.75-6.25 1.05.55 6.75 3.35M-12.4 4.2l-.05 2.35M-35 10.65l25.15 12.4" fill="none" stroke="#000" stroke-linecap="round" stroke-linejoin="round" transform="translate(35.5 22.15)"/><path d="m2.65 24.6 2-1.5L3.4 22l-1.95 1.4 1.2 1.2L4 26l2-1.65-1.35-1.25 2.5-2.6v-2.65L.9 12.6v-1.75M-.6 26l1.1 1.6H2L4 26m2-1.65v2L2.65 29 .9 28.65m-1.5-3.9 2.05-1.35" fill="none" stroke="#000" stroke-linecap="round" stroke-linejoin="round" transform="translate(35.5 22.15)"/><path d="M20.55 17.3 27 20.5v-5.1l-6.45-3.2v5.1M16.5 28.55l-1.1.55m2.15 1.1 1.1-.55m-4.1-2.05-1.05.55m6.25 3.15 1.1-.6m-1.75-.85-1.1.55m5.2 1.45-1.15.6m2.05 1.05 1.1-.65m-3.5-.55 1.1-.65m-13.05-2.9L22.8 35.3l2.15 1.1 1.9-1.05-15.3-7.6-1.8 1-1.6.9 10.05 5 .1.1 2.9 1.45m3.75.2-3.25 1.85-1.85 1-1.9 1.05-15.3-7.6 1.9-1 1.9-1.05 1.7-1m15.05 9.2q1.1.55 2.15 1.15l3.55-2-2.15-1.15m-5.1 5.2 3.7-2.05 2.15 1.15 1.45.8m2.1-2.75L28.9 38M6.45 30.65l13.6 6.75 1.7-.9-.55-.3m11.3 3.75-1.45-.75m-9.35-.95-1.65-.85m13.9-.25.3.15q.3.15.3.4l-.3.4-.3.1h-.35l-.7-.15-.25-.4.25-.4.7-.15.35.05m-19.8-9.75-1.1.55m6.8 11.3L4.55 31.7" fill="none" stroke="#000" stroke-linecap="round" stroke-linejoin="round" stroke-width=".05"/><path d="m18.1 8.65 12.45 6.15 6 2.95.05-1.8m-.05 1.8.6.3.6.3m-1.15 10.5 1.1.5m-1.15-11.6.05 11.1-6.1-2.95-10.05-4.8-.05 1.2m-2.3-2.35 2.35 1.15m10.9-4.75 3.5 1.75m-19.45 11 2.15 1.1m1.1-.55-2.15-1.1-1.95-.95m-1.05.55 1.9.95m2.6 1.3 1.75.9 1.95 1m-.85-1.6-1.75-.85m2.95 2.6 2.05 1.05 3.1 1.55 1.1-.65-3.1-1.55-2-1m-.4-.2-1.95-.95m.35 5.5 1.6-.9m3.95 1.55-3.55 2-3.8 2.1 2.25 1.1 2.2 1.1 3.65-2 3.55-1.95m-2.1 2.75 3.55-2 1.75-.95-5.9-3.05-1.6.9m-2.9 6.3 1.5.8 3.6-2m-15.9-14-1.05-.5 1.15-.55 1 .5m16.35-1.5.05-11.1m.65 4.4 4.35 2.1m-4.5.95 4.5 2m-4.45.8 4.5 2.05" fill="none" stroke="#000" stroke-linecap="round" stroke-linejoin="round" stroke-width=".05"/><path d="m37.15 18.05-.2-.85-.4.55m.9-1.4-.5.85-.35-1.25" fill="none" stroke="#fff" stroke-linecap="round" stroke-linejoin="round" stroke-width=".05"/></g><radialGradient cx="0" cy="0" gradientTransform="matrix(-.0264 .0287 .0391 .036 -3.1 -26.8)" gradientUnits="userSpaceOnUse" id="c" r="819.2" spreadMethod="pad"><stop offset="0" stop-color="#9a6030"/><stop offset=".498" stop-color="#d39c78"/><stop offset=".988" stop-color="#9d6333"/></radialGradient><use height="51.65" width="44.35" xlink:href="#f" id="b"/></defs></svg>