<svg xmlns:xlink="http://www.w3.org/1999/xlink" height="33.2" width="28.05" xmlns="http://www.w3.org/2000/svg"><use height="33.2" width="28.05" xlink:href="#shape0"/><defs><linearGradient gradientTransform="matrix(.0009 0 0 .0075 -9.35 -2.25)" gradientUnits="userSpaceOnUse" id="gradient3" spreadMethod="pad" x1="-819.2" x2="819.2"><stop offset="0" stop-color="#fff"/><stop offset="1" stop-color="#939393"/></linearGradient><linearGradient gradientTransform="matrix(.0011 0 0 .0087 3.75 2.4)" gradientUnits="userSpaceOnUse" id="gradient4" spreadMethod="pad" x1="-819.2" x2="819.2"><stop offset="0" stop-color="#fff"/><stop offset="1" stop-color="#939393"/></linearGradient><linearGradient gradientTransform="matrix(.0009 0 0 .0083 12.75 -2.8)" gradientUnits="userSpaceOnUse" id="gradient5" spreadMethod="pad" x1="-819.2" x2="819.2"><stop offset="0" stop-color="#fff"/><stop offset="1" stop-color="#939393"/></linearGradient><linearGradient gradientTransform="matrix(.0009 0 0 .0075 -9.35 -.7)" gradientUnits="userSpaceOnUse" id="gradient6" spreadMethod="pad" x1="-819.2" x2="819.2"><stop offset="0" stop-color="#fff"/><stop offset="1" stop-color="#939393"/></linearGradient><linearGradient gradientTransform="matrix(.0011 0 0 .0087 -.4 -8.5)" gradientUnits="userSpaceOnUse" id="gradient7" spreadMethod="pad" x1="-819.2" x2="819.2"><stop offset="0" stop-color="#fff"/><stop offset="1" stop-color="#939393"/></linearGradient><radialGradient cx="0" cy="0" gradientTransform="translate(2.35 -13.35) scale(.0157)" gradientUnits="userSpaceOnUse" id="gradient0" r="819.2" spreadMethod="pad"><stop offset="0" stop-color="#fff"/><stop offset="1" stop-color="#bababa"/></radialGradient><radialGradient cx="0" cy="0" gradientTransform="translate(2.7 -13.75) scale(.0171)" gradientUnits="userSpaceOnUse" id="gradient1" r="819.2" spreadMethod="pad"><stop offset="0" stop-color="#fff"/><stop offset="1" stop-color="#a2a2a2"/></radialGradient><radialGradient cx="0" cy="0" gradientTransform="translate(2.55 -5.6) scale(.0187)" gradientUnits="userSpaceOnUse" id="gradient2" r="819.2" spreadMethod="pad"><stop offset="0" stop-color="#fff"/><stop offset="1" stop-color="#a2a2a2"/></radialGradient><g id="shape0"><path d="M13.5-13v.1l-.05.5.05-.6" fill="url(#gradient0)" fill-rule="evenodd" transform="translate(11.95 18.9)"/><path d="M-10.5-12.45v-1.05q.35-1.95 3.5-3.35 3.5-1.6 8.5-1.55 5-.05 8.5 1.55T13.5-13l-.05.6q-.25 1-1.15 1.8L10-9.2Q6.5-7.6 1.5-7.6T-7-9.2q-1.45-.65-2.3-1.4-.95-.85-1.2-1.85" fill="url(#gradient1)" fill-rule="evenodd" transform="translate(11.95 18.9)"/><path d="M13.5-12.9v3.35q-.2 1.25-1.45 2.3l-1.1.6-.95.45Q8.35-5.45 6.35-5l-1.75.25-.1.05-1.65.1h-.1l-1.25.05-2.45-.1Q-4.4-5-7-6.2l-1.65-.85-1.35-1.3q-.55-.75-.55-1.55l.05-2.55q.25 1 1.2 1.85.85.75 2.3 1.4 3.5 1.6 8.5 1.6T10-9.2l2.3-1.4q.9-.8 1.15-1.8l.05-.5" fill="url(#gradient2)" fill-rule="evenodd" transform="translate(11.95 18.9)"/><path d="M-10.05-1.25l.05-7.1 1.35 1.3v5.8h-1.4" fill="url(#gradient3)" fill-rule="evenodd" transform="translate(11.95 18.9)"/><path d="M2.85-4.6l1.65-.1.1-.05L4.65 1v8.55h-1.8V-4.6" fill="url(#gradient4)" fill-rule="evenodd" transform="translate(11.95 18.9)"/><path d="M13.5-9.55L13.45 2.2l-.2.55-.35.5-.55.55-.25.2v-.05l-.05-1.15V-7.25q1.25-1.05 1.45-2.3" fill="url(#gradient5)" fill-rule="evenodd" transform="translate(11.95 18.9)"/><path d="M13.45 2.2l.7 1.85q.55 2 .1 2.55-.65.7-2.3.5V4.65l.1-.55.05-.1.25-.2.55-.55.35-.5.2-.55M-10.3 4.25l.25-.6.1.35.1.2 1.2 1.25v3q-1.4.4-2.2-.3-.8-.7-.15-2.2l.7-1.7M.5-1.35Q1.15-.1 1.2.9q.05 1.25-1.05 2-1.35-.05-1.8-.95l-.2-.85q0-.9.55-2.45H.5m4.15 10.9Q6.2 12.5 4.3 13.8q-1.35-.05-1.8-.95-.5-.9.35-3.3h1.8" fill="#963" fill-rule="evenodd" transform="translate(11.95 18.9)"/><path d="M-10.05 3.65v-4.9h1.4v6.7l-1.2-1.25-.1-.2-.1-.35" fill="url(#gradient6)" fill-rule="evenodd" transform="translate(11.95 18.9)"/><path d="M14.15 4.05q1.9 1.5 1.95 3.35-.05 2.65-4.15 4.55L7.6 13.4l-3.3.4-2.25.1-1.3-.05q-5-.2-8.65-1.9-2.55-1.2-3.5-2.65-.55-.9-.55-1.9 0-1 .55-1.9l1.1-1.25-.7 1.7q-.65 1.5.15 2.2.8.7 2.2.3v-5.3l.75-.4q2.65-1.2 6.05-1.65l.2.85q.45.9 1.8.95 1.1-.75 1.05-2h1.65v8.65q-.85 2.4-.35 3.3.45.9 1.8.95 1.9-1.3.35-4.25V1l2.95.4q2.35.45 4.35 1.35l.1.05.05 1.15V4l-.05.1-.1.55V7.1q1.65.2 2.3-.5.45-.55-.1-2.55M12.05 4v-.05h.05-.05V4h.05-.05v.1V4m.05 0v-.05V4m-.05-.05V2.8v1.15m-20.7 1.5V3.6v1.85" fill="#848484" fill-opacity=".4" fill-rule="evenodd" transform="translate(11.95 18.9)"/><path d="M.5-4.55v3.2h-1.8v-3.2H.5" fill="url(#gradient7)" fill-rule="evenodd" transform="translate(11.95 18.9)"/><path d="M-10.5-12.45v-1.05q.35-1.95 3.5-3.35 3.5-1.6 8.5-1.55 5-.05 8.5 1.55T13.5-13m-.05.6l.05-.5M.5-4.55v3.2Q1.15-.1 1.2.9m-3.05.2q0-.9.55-2.45v-3.2M11.95 7.1q1.65.2 2.3-.5m-16.1-5.5l.2.85q.45.9 1.8.95 1.1-.75 1.05-2m3.45 5.75v2.9m-1.8 0v-2.9m-2.35-8h-1.8" fill="none" stroke="#000" stroke-linecap="round" stroke-linejoin="round" transform="translate(11.95 18.9)"/><path d="M13.5-13v3.45L13.45 2.2l.7 1.85m-24.45.2l.25-.6v-4.9l.05-7.1q-.55-.75-.55-1.55l.05-2.55q.25 1 1.2 1.85.85.75 2.3 1.4 3.5 1.6 8.5 1.6T10-9.2l2.3-1.4q.9-.8 1.15-1.8l.05-.6M2.85-4.6l1.65-.1.1-.05L6.35-5q2-.45 3.65-1.2l.95-.45 1.1-.6q1.25-1.05 1.45-2.3M2.85.9v-5.5h-.1l-1.25.05-2.45-.1Q-4.4-5-7-6.2l-1.65-.85v15.5q-1.4.4-2.2-.3-.8-.7-.15-2.2l.7-1.7M13.45 2.2l-.2.55-.35.5-.55.55-.25.2-.05.1-.1.55V7.1m2.3-.5q.45-.55-.1-2.55m-2.1-1.25V-7.25M12.1 4h-.05v.1m.05-.1v-.05h-.05V4m.05-.05l-.05-1.15v1.15m-7.4 5.6Q6.2 12.5 4.3 13.8q-1.35-.05-1.8-.95-.5-.9.35-3.3m0-2.9V.9m1.8 8.65h-1.8M4.65 1v5.65M4.6-4.75L4.65 1m-13.3-8.05L-10-8.35m-.05 12l.1.35.1.2 1.2 1.25V3.6" fill="none" stroke="#000" stroke-linecap="round" stroke-linejoin="round" transform="translate(11.95 18.9)"/></g></defs></svg>