<?xml version="1.0" encoding="utf-8"?>
<svg version="1.1" id="Layer_1"
xmlns="http://www.w3.org/2000/svg"
xmlns:xlink="http://www.w3.org/1999/xlink"
xmlns:author="http://www.sothink.com"
width="40px" height="60px"
xml:space="preserve">
<g id="965" transform="matrix(1, 0, 0, 1, 17.2, 60.3)">
<path style="fill:#FFFFFF;fill-opacity:0.901961" d="M-8.9,-18.9Q-11.4 -18.9 -12.65 -20.45Q-14.55 -22.8 -13.6 -25.65L-13.55 -25.8L-13.3 -31.25L-13.4 -32.25Q-13.4 -33.65 -12.4 -34.75L-12.7 -36.4Q-13.45 -37.4 -13.45 -38.6Q-13.5 -39.7 -12.9 -40.6L-13.55 -42.6L-13.65 -42.8Q-14.6 -45.65 -12.65 -47.95Q-11.4 -49.55 -8.9 -49.5L-6.6 -50.9Q-6.6 -52.2 -5.4 -53.1Q-4.2 -54.05 -2.5 -54.05Q-0.8 -54.05 0.4 -53.1Q1.6 -52.2 1.65 -50.9L4.15 -50.45L7.95 -50.55Q10.35 -49.25 10.75 -46.75L10.8 -46.1L10.8 -43.4L11.25 -38.45L11.9 -37.7Q12.9 -36.15 12.9 -34Q12.9 -31.85 11.9 -30.25L11.2 -29.5L10.85 -25L10.85 -22.3L10.75 -21.7Q10.35 -19.2 8 -17.85L4.15 -17.95L2.6 -16.5Q2.55 -15.2 1.35 -14.25Q0.15 -13.3 -1.55 -13.3Q-3.25 -13.3 -4.45 -14.25Q-5.65 -15.2 -5.65 -16.5L-8.9 -18.9" />
<path style="fill:none;stroke-width:0.5;stroke-linecap:round;stroke-linejoin:round;stroke-miterlimit:3;stroke:#999999;stroke-opacity:0.945098" d="M10.8,-43.4L10.8 -46.1L10.75 -46.75Q10.35 -49.25 7.95 -50.55L4.15 -50.45M1.65,-50.9Q1.6 -52.2 0.4 -53.1Q-0.8 -54.05 -2.5 -54.05Q-4.2 -54.05 -5.4 -53.1Q-6.6 -52.2 -6.6 -50.9M-8.9,-49.5Q-11.4 -49.55 -12.65 -47.95Q-14.6 -45.65 -13.65 -42.8L-13.55 -42.6M-12.9,-40.6L-11.75 -41.75Q-10.15 -43.1 -7.75 -43.05L-6.45 -43M11.2,-29.5L11.9 -30.25Q12.9 -31.85 12.9 -34Q12.9 -36.15 11.9 -37.7L11.25 -38.45Q10.4 -39.25 9.35 -39.25L8.1 -38.9M1.25,-45.55Q2.25 -46.55 3.8 -46.5Q5.3 -46.5 6.4 -45.5Q7.45 -44.5 7.45 -43.05L7.25 -41.9M4,-31.55Q5.15 -29.35 2.65 -29.35M6.4,-27.45L7.4 -26.1Q8.4 -24.25 7.7 -22.55Q7 -20.85 5 -20.3L1.35 -20.45M11.2,-29.5L10.15 -28.85L9.85 -28.75M3.8,-33.5Q9.05 -41.55 2.2 -38.9M4.15,-17.95L8 -17.85Q10.35 -19.2 10.75 -21.7L10.85 -22.3L10.85 -25M-5.65,-16.5Q-5.65 -15.2 -4.45 -14.25Q-3.25 -13.3 -1.55 -13.3Q0.15 -13.3 1.35 -14.25Q2.55 -15.2 2.6 -16.5M-5.25,-43.55L-5.3 -44.8Q-5.3 -45.8 -4.2 -47Q-3.15 -48.2 -2.15 -47.85L-0.8 -47.45M-5.8,-33Q-6.9 -34.05 -6.9 -35.45Q-6.95 -36.95 -5.75 -38Q-4.6 -39.05 -2.95 -39.05Q-1.5 -39.05 -0.4 -38.25M-12.9,-40.6Q-13.5 -39.7 -13.45 -38.6Q-13.45 -37.4 -12.7 -36.4M-12.4,-34.75L-11.95 -35.2M-12.4,-34.75Q-13.4 -33.65 -13.4 -32.25L-13.3 -31.25L-12.65 -30L-11.95 -29.3M-13.55,-25.8L-13.6 -25.65Q-14.55 -22.8 -12.65 -20.45Q-11.4 -18.9 -8.9 -18.9M-2.15,-29.9Q-6.5 -27.7 -5.8 -32.1M-6.3,-24.3Q-6.35 -23.4 -7.05 -22.75Q-7.8 -22.05 -8.85 -22.05L-9.35 -22.1L-9.5 -22.1L-10.65 -22.75Q-11.4 -23.45 -11.4 -24.45Q-11.4 -25.45 -10.65 -26.15L-10.1 -26.5M-1.35,-20.1Q-2.4 -19.65 -3.6 -19.55L-4.25 -19.55Q-6.25 -19.55 -5.65 -21.4" />
</g>
</svg>
