<?xml version="1.0" encoding="UTF-8" standalone="no"?>
<svg
   height="182"
   width="160"
   version="1.1"
   id="svg20"
   sodipodi:docname="back-sitting.svg"
   xml:space="preserve"
   inkscape:version="1.2.2 (b0a8486541, 2022-12-01)"
   xmlns:inkscape="http://www.inkscape.org/namespaces/inkscape"
   xmlns:sodipodi="http://sodipodi.sourceforge.net/DTD/sodipodi-0.dtd"
   xmlns="http://www.w3.org/2000/svg"
   xmlns:svg="http://www.w3.org/2000/svg"><sodipodi:namedview
     id="namedview22"
     pagecolor="#ffffff"
     bordercolor="#000000"
     borderopacity="0.25"
     inkscape:showpageshadow="2"
     inkscape:pageopacity="0.0"
     inkscape:pagecheckerboard="0"
     inkscape:deskcolor="#d1d1d1"
     showgrid="false"
     inkscape:zoom="3.4112074"
     inkscape:cx="72.261803"
     inkscape:cy="102.60297"
     inkscape:window-width="1888"
     inkscape:window-height="1044"
     inkscape:window-x="32"
     inkscape:window-y="0"
     inkscape:window-maximized="1"
     inkscape:current-layer="svg20" /><defs
     id="defs8"><filter
       id="b"
       x="0"
       width="1"
       y="0"
       height="1"
       color-interpolation-filters="sRGB"><feGaussianBlur
         id="feGaussianBlur2" /></filter><filter
       id="a"
       x="0"
       width="1"
       y="0"
       height="1"
       color-interpolation-filters="sRGB"><feGaussianBlur
         id="feGaussianBlur5" /></filter><path
       d="M1.35 0h.2l.55.1.45.35q.45.45.45 1L2.55 2.6q-.45.4-1 .4l-.8-.2-.25-.2-.45-.7v-.15L0 1.45v-.1q.05-.5.5-.9l.25-.2Q1 .05 1.3 0h.05m.45.85L1.55.8Q1.2.75 1 1q-.2.15-.2.45v.15l.15.45H1l.05.05.2.1.3.05.55-.2.15-.6-.05-.3L2.1 1 2.05.95 1.9.85h-.1"
       fill-rule="evenodd"
       id="b-1" /><g
       id="a-8"><path
         d="M.35-60h3.9l1.2.55 3.85-8.6 3.9 8.6 1.25-.55 3.15 3.05 1.1 1.1-1.1-1.1 1.15 1.1h-.05l-.35.4.1.1q2.1 2.05 2.3 4.55l.05.6q0 1.65-.8 3.1l-.25.45-1.4 1.7.1.1-.3.3-3.25.9v4.7l-3.25.7-3.15.9.65 1.6L12.5-37q1.7-.6 3-.6 1.55 0 2.15.6.8.8.8 2 0 1.1-.75 1.85-1.05 1.05-4.1 1.25l-1.25.05.35 1.5 1.5-.05-.05 2.75-1.5 1.25v5.75H8.1v1.55h6.6q.7 0 1.15.4.55.55.55 1.65 0 1.05-.55 1.6-.45.45-1.15.45H8.1v1.5h-17l-3.25-3.25v-1.7l.45-.4q.75-.6 1.35-1.55l-1.25-1-.7.95.4-10.95 1.75-12.8.4.35.75-.7-1-1.1q-1.5-1.9-1.5-4.15l.05-1q.35-2.3 2.45-4.25l-.75-.75.5-3.95.65.3 3.85-8.6 3.85 8.6L.35-60m10.5 16.4.75-1.55v-1.35h-1.55v1.45h.55l-.55 1.45h.8m3.65-2.9H13v1.45h.55L13-43.6h.75l.75-1.55v-1.35"
         fill="#fff"
         fill-rule="evenodd"
         transform="translate(21.55 71)"
         id="path477" /><path
         d="m.35-60-1.25.55-3.85-8.6-3.85 8.6-.65-.3-.55-.25 5.05-11 5.1 11m-10.1 4.2.75.75q-2.1 1.95-2.45 4.25l-.05 1q0 2.25 1.5 4.15l1 1.1-.75.7-.4-.35-.6-.7q-1.8-2.2-1.8-4.9l.05-1q.35-2.8 2.75-5m-2.55 35.35.7-.95 1.25 1q-.6.95-1.35 1.55l-.45.4q-.55.35-1.25.45h-.35q-.95 0-2.65-1.1l-1.9-.65q-.9 0-1.3.55l-.6.95-1.35-.75 1.2-1.65q.8-.8 1.95-.8 1.1 0 2.25.8 1.65.85 2.55.85.65 0 1.3-.65M8.1-13.5V-15h6.6q.7 0 1.15-.45.55-.55.55-1.6 0-1.1-.55-1.65-.45-.4-1.15-.4H8.1v-1.55h6.65q1.25 0 2.05.8.9.9.9 2.8 0 1.85-.9 2.75-.8.8-2.05.8H8.1m6.1-16.9-1.5.05-.35-1.5 1.25-.05q3.05-.2 4.1-1.25.75-.75.75-1.85 0-1.2-.8-2-.6-.6-2.15-.6-1.3 0-3 .6l-3.35 1.25-.65-1.6 3.15-.9 3.25-.7.75-.05q2.2 0 3.25 1.05Q20-36.9 20-35.1q0 1.85-1 2.85l-.4.35q-1.6 1.2-4.4 1.5m4.25-14.45-.1-.1 1.4-1.7.25-.45q.8-1.45.8-3.1l-.05-.6q-.2-2.5-2.3-4.55l-.1-.1.35-.4h.05l.3-.35q2.55 2.35 2.75 5.4l.05.6q0 1.9-.9 3.55-.7 1.25-1.9 2.4l-.6-.6m-4-15.15-1.25.55-3.9-8.6-3.85 8.6-1.2-.55L9.3-71l5.15 11m.05 13.5v1.35l-.75 1.55H13l.55-1.45H13v-1.45h1.5m-3.65 2.9h-.8l.55-1.45h-.55v-1.45h1.55v1.35l-.75 1.55"
         fill-rule="evenodd"
         transform="translate(21.55 71)"
         id="path479" /><path
         d="M4.25-60H.35m12.3 39.35v-5.75m6.05-29.45-1.1-1.1"
         fill="none"
         stroke="#000"
         stroke-linecap="round"
         stroke-linejoin="round"
         transform="translate(21.55 71)"
         id="path481" /></g></defs><path
     d="m 56.323,75.468 0.314,-0.815 -3.807,-6.035 -1.438,-4.56 1.373,-6.522 4.135,-5.647 1.446,-2.354 7.328,-15.627 1.194,-1.258 8.576,17.368 11.82,-0.173 8.065,-16.618 1.081,-1.018 8.527,18.03 2.82,1.392 1.983,1.65 2.253,4.108 0.97,3.683 -0.133,6.317 -3.978,6.408 -2.835,0.964 -3.342,2.884 7.325,7.896 2.089,6.418 -4.807,4.96 -5.472,-0.907 3.919,1.321 1.892,2.312 1.9,4.815 -0.357,5.985 -3.313,2.639 -1.677,0.216 H 61.582 l -8.487,0.512 -2.646,-0.988 -2.067,-4.224 4.465,-5.051 -0.512,-3.703 0.885,-3.95 -0.976,-2.244 -0.565,-6.19 6.837,-12.353 -2.599,-0.362 50.1,0.014"
     opacity="0.99"
     fill="#ffffff"
     id="path10" /><path
     d="m 97.044,57.119 h -1.749 l 2.64,-4.23 h 2.839 z"
     opacity="0.99"
     filter="url(#a)"
     id="path12" /><path
     d="M 103.73,51.003 106.127,49.89 95.961,28 l -9.745,20.99 -9.803,0.005 -9.705,-20.953 -9.978,21.65 2.37,1.172 7.594,-17.034 7.868,17.26 13.612,-0.212 7.78,-17.2 z m 4.031,0.09 3.162,3.64 1.79,3.047 0.873,2.638 0.172,1.79 0.047,2.78 -0.413,2.408 c 0,0 -0.59,1.647 -0.97,2.435 a 14.584,14.584 0 0 1 -1.002,1.762 c -0.675,1.016 -1.45,1.966 -2.233,2.902 -0.462,0.55 -1.452,1.593 -1.452,1.593 l -1.718,-1.327 2.2,-2.23 1.56,-2.06 1.155,-2.311 0.593,-2.09 0.214,-2.247 -0.186,-2.747 -0.778,-2.7 -1.03,-1.794 -1.372,-1.682 -2.367,-2.512 z M 56.723,76.3 l 1.793,-1.19 -2.507,-2.742 -1.874,-2.97 -0.74,-2.087 -0.338,-1.701 -0.068,-2.186 0.133,-2.572 0.51,-2.214 1.17,-2.263 1.29,-1.599 1.38,-1.689 1.137,-1.125 -1.636,-1.324 -1.402,1.533 -1.623,1.888 -1.103,1.81 -1.24,2.65 -0.717,2.395 -0.119,1.843 -0.02,2.022 0.133,1.423 0.72,2.528 0.86,1.942 1.358,2.063 c 0,0 1.015,1.38 1.558,2.04 a 53.58,53.58 0 0 0 1.344,1.524 z m 2.527,1.735 -2.087,-1.589 -1.811,1.719 -1.57,1.653 -1.17,1.534 -0.948,1.924 -0.43,1.998 -0.328,1.478 -0.16,2.156 -0.258,2.59 0.155,1.25 0.657,0.926 0.944,-0.022 -0.008,-2.384 0.452,-2.595 0.372,-1.96 0.703,-2.01 0.574,-1.58 0.995,-1.547 1.564,-1.746 z m 44.826,20.696 1.653,-1.398 2.334,2.257 1.101,1.312 0.626,1.082 0.453,1.356 0.398,1.867 0.039,1.449 -0.2,2.146 -0.468,1.405 -0.96,1.717 -1.264,1.513 -1.63,1.46 -0.557,0.477 -1.427,-1.323 1.773,-1.514 1.38,-1.606 0.86,-1.6 0.475,-1.413 0.055,-1.418 -0.086,-2.107 -0.507,-1.451 -1.335,-2.015 -1.294,-1.178 z m -53.533,-3.812 0.768,5.77 0.809,3.488 -2.33,1.536 -1.68,1.982 -0.793,1.874 -0.08,1.994 0.27,1.126 1.05,1.427 2.062,1.063 3.248,0.228 8.395,-0.054 0.386,-2.573 -6.117,0.459 -2.518,0.054 -2.827,-0.456 -1.05,-0.807 -0.534,-1.197 0.105,-1.577 0.645,-1.185 1.224,-1.373 1.453,-0.902 3.624,-1.608 -0.386,-1.95 -2.068,0.965 -0.78,-3.043 -0.283,-2.679 0.084,-2.581 z"
     opacity="0.99"
     id="path14" /><path
     d="m 102.445,76.057 3.856,3.936 2.172,2.302 2.106,2.435 1.641,2.434 0.733,1.685 0.335,2.095 -0.296,2.183 -0.857,1.732 -1.636,1.51 -1.81,0.858 -2.17,0.561 -1.976,-0.17 -2.67,-1.137 -2.935,-2.248 -1.695,-1.81 1.704,-1.774 1.44,2.105 1.326,1.294 1.72,0.934 1.936,0.467 1.903,-0.032 1.794,-0.809 1.042,-0.979 0.934,-1.623 0.233,-1.545 -0.523,-1.956 -1.094,-1.747 -2.008,-2.41 -2.464,-2.45 -1.966,-1.668 -1.594,-1.355 -0.824,-0.772 z m -15.439,24.143 -2.652,1.169 -4.506,1.975 -3.375,1.717 -1.611,1.446 -1.323,2.11 -0.412,1.677 0.175,1.803 1.093,1.72 1.629,0.884 2.425,0.398 2.369,0.222 7.056,-0.023 0.35,-2.683 -3.179,0.289 -4.438,0.21 -2.34,-0.131 -1.456,-0.418 -0.75,-0.587 -0.574,-0.903 -0.053,-1.16 0.42,-1.453 1.125,-1.256 1.3,-0.904 1.786,-0.993 1.896,-0.79 2.359,-0.949 2.014,-0.662 2.357,-0.813 z"
     opacity="0.99"
     id="path16" /><path
     d="M103.535 70.904c2.012.598 4.169.324 5.246-.469"
     stroke-width="3"
     id="gikopoipoi_eyes_closed"
     style="display:none;stroke-width:2.14607;stroke-dasharray:none"
     fill="none"
     stroke="#000"
     stroke-linecap="round"
     stroke-linejoin="round" /><circle
     cx="106.132"
     cy="60.134014"
     r="2.118"
     opacity="0.99"
     filter="url(#b)"
     id="gikopoipoi_eyes_open"
     style="display:inline" /></svg>
