<svg xmlns="http://www.w3.org/2000/svg" xmlns:xlink="http://www.w3.org/1999/xlink" height="429.05" width="600.6"><defs><use height="113.3" width="248.5" xlink:href="#a" id="r"/><use height="42.45" width="80.3" xlink:href="#b" id="s"/><use height="58.8" width="46.35" xlink:href="#c" id="t"/><use height="86.55" width="159.25" xlink:href="#d" id="u"/><use height="52.3" width="115.2" xlink:href="#e" id="v"/><use height="141.9" width="77.15" xlink:href="#f" id="w"/><use height="93.5" width="126.4" xlink:href="#g" id="x"/><use height="43.4" width="18.9" xlink:href="#h" id="y"/><use height="39.85" width="30.75" xlink:href="#i" id="z"/><use height="55.4" width="57.1" xlink:href="#j" id="E"/><use height="43.5" width="37.25" xlink:href="#k" id="F"/><use height="43.4" width="18.9" xlink:href="#l" id="G"/><g id="q"><path d="m-39.05-.3.85-.45v.05L-.55-19.6l129.5 64.9 31.65 15.85.4.2 1 .5 77.3 38.65-40.2 20.15v-.5l-.05.05H199l.05-.05.05-1.95v-.05l-.05.05.05-.05v.05h-.1l.05-.05.05-1.95h-.05L168 100.6l-.3-.15-9.5 4.75v.55l-.2 5.9 1.2.6v.05l.2.45-4.05-.05-.25-.15.05-.2q-.15-.5-.45-.6l-2.1-.45q-.2-.4-.25-.95l.05-.5.1-.3.15-.2h.85l-3.25-1.6q-4.35-.25-8.75-.15h-1l-2.9.6.25.4-.05.35q.5.6 0 1.45l-.7 1.05-.3.35q-.15.15-.15.4-.05.5-.3.6l-1.15.1-.05.15-.2.2-1.4.15-.45-.6-.05-.25-.05-.2.35-.25.4-.1-.6-.45q-.15-.1-.15-.35l.2-.3.15-.15.5-.05h.3l.35.55-.1.35-.35.3.75.25.2.15v-.95l.65-1.5q.3-.65.85-.9l-.05-.05-.1-.35h-.1q-1.4.4-2.7.95l-.4.35-.15.1-.5.2-1.15.4-.7.45-.8.35-.2-.05-.25.1-2.3 1.25.05.4v.25l2.55.45.15-.2.15-.15.4-.05.05.15q.45.95 1.45.65l-.1.15-.45.55-.5.5h-.6l-.85-.2-.4-.3.05-.25-2.4-.15-.15.1-.85.8-2.65.65q-1.45.1-2.65-.45l1-.8-1-.05h-2.2l-5-.05-6.65-.05q-2.8.4-5.7 1.4-4.55-4.45-10.9-3l-2.05.6-.75.3-7.85 2.6-4.3 1.3q-7.6 2.3-15.2 4.1l-.1.05.2.4-.2.2q-.75.25-1.45.55l-1 .45-3.15-.55-4.7.3-1.75-.05 1.75.45q.35.15.5.65l-.2.25-1.3.45.1.4-.55.45-.9.95.4.35.35.15-.75.7h-.55l-.25.65-.65-.2q-.35-.3-.55-.8v-.15l.05-.15v-.2l.15-.35.15-.15h.1l.55-.65 1.1-.95.15-.1q-.7-.25-.9-1.3l.35-.25.45-.15.05-.05-.4-.05h-.4l-6.25.15v.2l.35.3.3.55v.45l-.15.5-.3.5-.5.25-.5.1-.15.15-.35.35-1 .35-2 .65-1.65.35-.7.6-.05.05h-.25l-.5.05-.2.1-.3.35-.3.4h-.05l-.4-.05-.1.3.4.05-.05.3.1.15-.1.2-.5 1-.15.4-.55.25q-.9-.1-1.65-.5l-.5-.65.3-.25-.4-.2-.55-.4-.1-.4-.05-.1.05-.5.4-1-.15-.5-.1-.55q-1.2.65-2.25 1.4l-3 2.3-.25.75-.25.75-.25.75-.25.75v4.5l.25.75.25.75.25.75.1.25.15.5.5.7.7.8.6.7 1.35 1.6.35.7-1 1.5-.45.75-.3.75-.5 1.5-.25.75v3q2.5 7.8 10.6 10.8 6.95 2.6 14 4.6l7.15 2.1q8.1 7.8 19.2 10.15l2 .4-36.7 18.35L-.2 180.45-200.3 80.5q37.05-18.55 74.1-37.15l.2-.1L-39.05-.3l.85-.4-.85.4M199.1 116.2v-.05l-.05.05.05-.05v.05m-147.9 9.4.2-.15.45-.15v-.1l2.2.5q.3.15.45.65v.05l1-.75 1.2-.95 1.15-.45.15-.05.5-.25v-.1l.15.05.55-.2q.4.15.75.4l.4.3v-.05l.35-.2q1.55-.5 3.15-.85v-.1l1.6.3.3.15.1-.05-.1.65-1.55 1.1-3.6-.65.15.35v.45l-.1.35 3.4.6.2.15v-.1q-.1-.9.95-1.3l.45-.1-.05.25q-.15.95.6 1.5l.5.25h.1l-.95.95-1.5-.5-.05-.35q-1.9.05-2.3 1.15-.05 1.6-2.05 1.3l-4.55-.85-.05.05-.5.5-1 .5-1.5.85h-.45l-1.55-.5v-.15h-.45l-1.55-.5-.1-1.05q-.05-.7.5-1.05l.45-.25.65-.15.8.4.55.4.25.55.05.3 1.45-.4-.15-.05q-.3-.05-.45-.55.4-.25.85-.35l.55-.1v-.05l.25-.45q-2.55 1.05-2.95-.9l.1-.2.05-.05m14.95-2.2q.55-.35 1.15-.55l-.35.4-.05.15-.05-.05h-.35l-.35.05m3.75-2.7h.3l.2.25-.25-.15-.25-.1m.5 1.05.1-.05.55.25-.05-.25.4-.25.4-.15.05-.1.95.3.2.1.15-.1.2-.15h.85q.9.65-.1 1.4l-1.6 1.1-.5.5-.3.35h-1.3l-1.4-.1h-.05l-1.6.3v-.2h.15l1.65-1.05.7-.45.1-.5.15-.45.3-.5m3.9-.9-.9-.3-.4-.35q0-.25.15-.35.75-.6 1.6-1.05l.4-.2.05-.05q.8.05 1.45.45l.55.7-.25.2-.15.05-.95-.1-.05.1-.4.15-.4.25.05.25-.55.25h-.2m3.2-.75.2-.1v-.15l.15-.3.2-.15.45-.05h.2l.15-.15.1-1 .1-1 .15-.35.15-.1.5-.05h.35l.35 1 .15 1h.15l.3 1-.15 1-.5.5-1.15 1-.3.1-.2.4-1.55.4-.3-.25v-.65l.15-.3 1.8-.65.25-.2-.5-.65-1.2-.3m4.2 1.15.3-.4 1.35-.7 1.15-.5.05-.1.15-.15.5-.05h.15l.8-.15-.35-.3-.1-.35.15-.35.2-.1.45-.05h.35l.35.55-.1.35-.1.1h.85l.8.4.4.25.15.15.25.55v.45l-.1.5-.35.5-.5.5-.3.35-.35.1-2.35.6-1 .3h-1.3l-.95-.4-.55-.45-.15-.5-.05-.5.1-.45.1-.15m10.4-3.4-.2-.2q-1.9.5-2.2-1.3l.35-.25.45-.15v-.1q1.2.1 2.2.55l.45.5-1.05.95m-3.85-1.25-.05.1h-.3l-1.05.65-3.1-.7-.05-.3q.4-.25.85-.35l2.5-.65v-.15l.15-.35.15-.15h.85l.25.65-.4.05-.2.15-.15.3.1.4.45.35m-12.45 6.7.05-.1 1.45.15 2.1.45q.3.05.45.55l-.2.2-3.05-.1q.25.5-.4 1.1l-1.65 1.55-.2.25-1.6-.2q-.25-.05-.4-.3.05-.95.85-1.65.9-.7 1.95-1.05l.1-.05-.25-.4.4-.25.4-.15m-16.95 3.4h-.35l-.55.25-.2.4.1.5.55.45.8.55.8.5 1.1-.3.15-.35-.05-.5-.55-.45-.8-.55-1-.5m-15-1.45v.45l-.2.25q-1.3.7-1.85-.45l-.1-.45.35-.25.45-.2v-.05l.95.25.4.45m-1.45 2.65-.4.15-.5.5-.4.55-.1.45.4.35.65.2-.2.1-.15.35.1.35.7.45.6-.4.1-.35-.35-.55.35-.2.35-.45.05-.05h.6l.25 1-.25 1-1.35-.15v.15l-.05 1.5-.1.5-1.8 2.05-5.65 5.3-1.55 1.15-.5.5-.3.3-.1-.1-.6-.55h-.35l-.5.1-.15.1-.15.35v.15l-.15-.1-.55-.4-.1-.5-.05-2.45.3.1.7-.35.1-.5 1.2.35.7-.35q.8-1.15 2-1.95 1-.65 1.25-1.3l.05-.1.35-.45.25-1-.25-1q-1.05-.15-1.85.65l-.6.7-.35.05-.2.1-.15.35.1.35.1.1v.05l-.9.6-1.05.9-.45-.5h-.3l-.5.05-.2.1-.3.35v-2.35l.35-.5.45-.45v.3l1.2.25.5-.25v-1l.25-.55.2-.95-.05-.35h.4l.1-.15.25.4.15-.1 1.35-.65.5-.5.35-.3.35-.2.65-.15h.5q.45-.35 1.25-.5 1-.2 1.85-.75l.4-.25.15-.15.5-.05h.35l.2.55m-4.9 8.15h-.3l-.5.05-.15.1-.2.35.15.35.7.45.55-.4.1-.35-.35-.55m-.3-4.7.55-.4.1-.35-.35-.55h-.3l-.5.05-.15.1-.2.35.15.35.7.45m2.65-.1-.4-.45-.95-.25v.05l-.45.2-.35.25.1.45q.55 1.15 1.85.45l.2-.25v-.45m-13.8-1.85.45-.05h.35l.35.55-.1.4-.6.4q-.4-.15-.7-.45l-.1-.4.15-.3.2-.15m.3 16.45.05-1.3.1-.35.2-.1.5-.1-.85-.3v-1l.05-1.5.1-.35.2-.1.5-.05-.7-.45-.15-.4-.05-.5-.15-.45-.45-.55v-2l.05-2.5v-.1l-.55.15-.9-.15-.6-.2.1-.45.35-.6.2-.45q0-.5.25-.9.15-.3.6-.4l.3-.05q.75.55.7 1.5l-.25 1.3.1-.1.45-.05-.15-.3.05-.5.15-.35.15-.15h.8l.25 1-.25 1h-.15l.1 1.3q-.2 1.3.05 2.5l.3.55.2.95v.5l-.25.4-.55.45h.3l.4 1 .1 1v.5l-.25.4-.55.4h.3l.4 1.05.1.95v.5l-.25.45-.55.4-.85-.35v-1.15M23.2 134.2l.15-.1.5-.05h.35l.35 1 .15 1v.5l-.25.4-.6.4-.3-.1-.55-.2v-1l.1-1.5.1-.35m.3 3.15q.75.55.65 1.5l-.15 1.5v.5l-.5.25-1.15-.25v-1.5l.05-1.5.1-.3.2-.15.5-.05h.3m8.7 2.65h-.35l-.5.1-.15.1-.2.3.15.4.7.45.6-.4.1-.4-.35-.55m-4.45 9.7-.25 1-1.45-.2-.35-.3.1-.45.4-.55.3-.35.2-.1.5-.05h.3l.25 1m128.95-38.75-.3-.15.05.05.15.1h.1m-15.2-2.9.35.55.15.75h.15l.35.55-.1.4-.55.4-.6-.35-.6.1-.3-.25-.1-1q-.1-.8.45-1.05l.45-.1h.35m9.85 4.55-.2.1-.7-.45-.1-.35-.05.05q-1.3.7-1.8-.4l-.1.05-.55.45-.7-.5-.15-.35.2-.3q-.45-.2-.75-.75l-.1-.35v-.1l.35-.25.45-.15v-.1l.75.15h.25l.1.15.4.15q.35.2.5.7l-.2.25-.6.3.05.1q.1-.15.3-.2l.45-.2v-.05l.95.25.4.45.05.25.15-.1.45-.05h.35l.05.05-.2.05-.35.25q.1.55.35.9m-6.2-3.25h.35l.35.55-.1.4-.6.4-.7-.45-.1-.4.15-.3.2-.15.45-.05m6.7-.1-.1.35-.6.45-.7-.5-.1-.35.15-.3.2-.15.45-.05h.35l.35.55M148 114.1l.5-.05h.35l.35.55-.1.35-.6.4-.7-.45-.15-.35.2-.35.15-.1m-2.65-2 .5-.05h.3l.35.55-.05.3.05.1q.4.55-.3 1.2l-1.55 1.5-.3.35q-1.75.8-2.55-.6l-.15-.4q.9-.8 2.1-1.15h.1q-1.2-.15-1.5-1.55l.35-.25.45-.15v-.1l2.1.35.1-.1m-3.6 2.2-.4.3-.2.1-.7-.45-.1-.25-.55-.45-.15-.35.2-.3.15-.15.5-.05h.35l.35.55.05.1h.25l.35.55-.1.4m-3.6-2.95.35.55-.1.4-.55.4-.7-.45q-.15-.15-.15-.4l.2-.3.15-.15.5-.05h.3m-5.6 2.15.15-.1.45-.05h.35l.35.55-.1.4-.6.4q-.4-.15-.7-.45l-.1-.35.15-.2.05-.2m-2.7 2.55h.3l.25 1-.25 1q-3.05 1.25-3.15-1 .9-.8 2.15-.9l.7-.1m-5.95 2.1-.05-.25-.4-.4-.95-.3v.1l-.1.05-.05-.3.35-.25.45-.2v-.05l.95.25.4.45v.45l-.2.25-.4.2m13.75-4.3.2-.3.15-.15.5-.05h.35l.35.55-.1.4-.6.4-.7-.45-.15-.4m.85 2.05-.1.4-.55.4-.7-.45q-.15-.15-.15-.4l.2-.3.15-.15.5-.05h.3l.35.55m-4.65-1.35.95.25.55.4-.25.45-.45.55-.5.5-1 .5-1.1-.05-.4-.3.6-.95.95-1h.05l.6-.35m-28.8 2.8-.05-.3.4-.25.4-.2.05-.05q.85.05 1.5.45l.35.35.15.35-.25.25-.45.25.05.15-.25.25q-1.1.65-1.8.25l.45-.25.25-.25v-.45l-.4-.4-.4-.15m6.6 2.2-1 .2-.3-.2v-.35l-.1-.65v-.4l-2.5-.85-.05-.25q2.1-.9 4.45-1.4l1-.35v-.1l.95.3q.3.1.55.35v.05l1.85.3.55-.45.8-.35.3-.05.25 1-.05.55-.2.45-1 .5-.65.35-2.65-.4-1.3-.2-.75.2.05.1.15.95v.15l-.2.15q-.15.15-.15.4m-7.55.85v.45l-.4 1-1.15.2q-.8-.1-1.55-.5l-.1-1.05q-.1-.9.95-1.3l.65-.15.8.4.55.4.25.55m1.9.35.5-.05h.35l.35.55-.1.35-.6.45-.7-.5-.1-.35.15-.35.15-.1m8.35-.8 2.1.3.05-.05.2-.1.45-.05h.35l.15.6.2.4-.2.15-.2.3-.6.55-.8-.15-.4-.35.05-.3-2.95-.35-.4-.55.35-.25.4-.1 1.05.05.2-.1m4.65-2.9q.15-.2.35-.25l.45-.2.05-.05.95.25.4.45v.4l-.05.05-.2.25q-1.25.7-1.85-.45l-.1-.45m-29.15-3.85.95.3.4.4v.45l-.25.25q-1.25.75-1.85-.45l-.1-.45.4-.25.4-.15.05-.1m4.55 1.5.1-.05v-.1l.95.25.55.4v.5l-.1.45-.4.55h-.15l-.1-1-.4-1h-.45m-9.2 5.85-.05.05-.45.2-.35.25.1.4q.85 1.4 2.5.5l.25-.25-.55-.7q-.65-.4-1.45-.45m13.3-3.2h.35l.25 1-.25 1-1.25-.25-.4.25-.75-.45-.1-.05.05-.05-.05-.25.2-.35.15-.1.45-.05.1-.1.75-.6h.5" fill="#bfaf95" fill-rule="evenodd" transform="translate(200.8 20.1)"/><path d="m31.75 129.9-.4-.05.1-.3.4.05h.05l-.1.15-.05.15m17.45-2.7 1-.5.5-.5.35-.35q.4 1.95 2.95.9l-.25.45v.05l-.55.1q-.45.1-.85.35.15.5.45.55l.15.05-1.45.4-.05-.3-.25-.55-.55-.4-.8-.4-.65.15m16.45-2.1-.45.1q-1.05.4-.95 1.3v.1l-.2-.15-3.4-.6.1-.35v-.45l-.15-.35 3.6.65 1.55-1.1v.1l-.1.75" fill="#ccc" fill-rule="evenodd" transform="translate(200.8 20.1)"/><path d="m31.05 131.95.15-.4.5-1 .1-.2-.1-.15.05-.3.05-.15.1-.15.3-.4.3-.35.2-.1.5-.05h.3l.25 1-.15.85-.1.15h-.4l.05.35-.2.95-.25.55v1l-.5.25-1.2-.25v-1.5l.05-.1m16.7-4.6-.35-.15-.4-.35.9-.95.55-.45 1.35-.85.05-.05.95.25.55.4-.15.4-.05.05-.1.2-.35.35-.5.5-1 .5-.45.25-.25.1-.75-.2m84.15-13.2q-1 .3-1.45-.65l-.05-.15-.05-.3.35-.25.45-.2v-.05l.95.25.4.45.05.25-.05.2-.15.2-.05.05-.4.2m20.7-2.85 2.1.45q.3.1.45.6l-.05.2-.15.05q-2.7 1.25-3.6 0-.25-.35-.35-.9l.35-.25.2-.05.25-.1.05-.1.75.1m6.8 1.45-.2-.45v-.05l1.85.9-.2.2-.8-.1-.55-.4-.1-.1m6.35 2.75q-1.3.45-1.95-.7l-.15-.35 2.1 1.05m-99.9 8.1v-.05l.2-.15h.1l.35-.05h.35l.05.05.05-.15.35-.4.95-1.25.1-.4.2-.35.15-.1.45-.15.05-.05.7.15.25.1.25.15.3.25-.25.45-.05.1-.3.5-.15.45-.1.5-.7.45-1.65 1.05h-.15v.65l.5.5.85 1-.3.1.15.3.15.95v.5l-1.35 1-.35.35-2.3-.25-.35-.25 1.5-1.5.95-.95h-.1l-.5-.25q-.75-.55-.6-1.5l.05-.25.1-.75v-.1l.1-.65m10.95-3.65.7.15 1.2.3.5.65-.25.2-1.8.65q-1.65.2-2.1-1.3l-.05-.25.4-.25.4-.15.05-.1.95.1m13.55.25q.15-.55.45-1l.95-1.1.35-.25 1.05-.95.2-.2.2-.55.2-.95.1-.35.2-.1.35-.05h.45l.4 1 .1 1v.5l-.7.95-.8 1.05-1.15.5-.55.45-.65.55-.75-.15-.4-.35m-1.2-4-.05.1-.6.4-.25-.1-.45-.35-.1-.4.15-.3.2-.15.4-.05h.4l.35.55-.05.3m-30.3 10.5 1 .5.8.55.55.45.05.5-.15.35-1.1.3-.8-.5-.8-.55-.55-.45-.1-.5.2-.4.55-.25h.35m-15.25 2.65-.05.05-.35.45-.35.2.35.55-.1.35-.6.4-.7-.45-.1-.35.15-.35.2-.1-.65-.2-.4-.35.1-.45.4-.55.5-.5.4-.15.8-.3 1-.25.1.4-.1.5-.6 1.1m-13.4 7.2.3-.35.2-.1.5-.05h.3l.45.5 1.05-.9.9-.6V135l-.1-.1-.1-.35.15-.35.2-.1.35-.05.6-.7q.8-.8 1.85-.65l.25 1-.25 1-.35.45-.05.1q-.25.65-1.25 1.3-1.2.8-2 1.95l-.7.35-1.2-.35-.1.5-.7.35-.3-.1-.5-.25v-.7l-.5.4-.7-.45-.05-.05-.1-.35.2-.3.15-.15.5-.05h.3l.25.3.1-.55.35-.55m.85 6.15v-.15l.15-.35.15-.1.5-.1h.35l.6.55.1.1.3.35-.45.6-1.25-.1-.4-.55-.05-.25m8.8-11.45v.45l-.2.25q-1.3.7-1.85-.45l-.1-.45.35-.25.45-.2v-.05l.95.25.4.45m-2.65.1-.7-.45-.15-.35.2-.35.15-.1.5-.05h.3l.35.55-.1.35-.55.4m.3 4.7.35.55-.1.35-.55.4-.7-.45-.15-.35.2-.35.15-.1.5-.05h.3M32.2 140l.35.55-.1.4-.6.4-.7-.45-.15-.4.2-.3.15-.1.5-.1h.35m90.2-22.65.1-.05v-.1l.95.3.4.4.05.25-.05.2-.25.25q-1.25.75-1.85-.45l-.1-.45.4-.25.35-.1m-17.25 1.5q-.9.25-1.4-.7l-.05-.45.35-.25.45-.15v-.1l.55.15.4.15.4.4v.45l-.25.25-.45.25m4.35-.15.35.55-.1.35-.6.45-.7-.5-.1-.35.2-.35.15-.1.45-.05h.35m4.35-.85 1.6.35.55.35-.25.35-1.4 1.05-.2.1-1.05-.05-1.05-.2-.4-.25q0-.25.15-.4l.2-.15 1.15-.85.2-.05.45-.15.05-.1m-28.65 2.7q.8.05 1.45.45l.55.7-.25.25q-1.65.9-2.5-.5l-.1-.4.35-.25.45-.2.05-.05m5.35-1.95-.05.45-.2.2-1.1.3q-.45-.15-.75-.75l-.1-.45.35-.25.45-.15.05-.1.95.3q.3.15.4.45" fill="#aa9271" fill-rule="evenodd" transform="translate(200.8 20.1)"/><path d="m26 145.85-.35-.7-1.35-1.6-.6-.7-.7-.8-.5-.7-.15-.5-.1-.25-.25-.75-.25-.75-.25-.75v-4.5l.25-.75.25-.75.25-.75.25-.75 3-2.3q1.05-.75 2.25-1.4l.1.55.15.5-.4 1-.05.5.05.1.1.4.55.4.4.2-.3.25.5.65q.75.4 1.65.5l.55-.25-.05.1v1.2l-.45.45-.35.5v2.35l-.35.55-.1.55-.25-.3h-.3l-.5.05-.15.15-.2.3.1.35-.65.2-.3-.55q-.25-1.2-.05-2.5l-.1-1.3h.15l.25-1-.25-1h-.8l-.15.15-.15.35-.05.5.15.3-.45.05-.1.1.25-1.3q.05-.95-.7-1.5l-.3.05q-.45.1-.6.4-.25.4-.25.9l-.2.45-.35.6-.1.45.6.2.9.15.55-.15v.1l-.05 2.5v2l.45.55.15.45.05.5.15.4.7.45-.5.05-.2.1-.1.35-.05 1.5v1l.85.3-.5.1-.2.1-.1.35-.05 1.3H26m7.45-17.15.05-.05.7-.6 1.65-.35 2-.65 1-.35.35-.35.15-.15.5-.1.5-.25.3-.5.15-.5v-.45l-.3-.55-.35-.3v-.2l6.25-.15h.4l.4.05-.05.05-.45.15-.35.25q.2 1.05.9 1.3l-.15.1-1.1.95-.55.65h-.1l-.15.15-.15.35v.2l-.05.15v.15l-.7.05-.1-.4-1 .25-.8.3-.2-.55h-.35l-.5.05-.15.15-.4.25q-.85.55-1.85.75-.8.15-1.25.5h-.5l-.65.15-.35.2-.35.3-.5.5-1.35.65-.15.1-.25-.4.15-.85-.25-1h-.05m15-3.25-.1-.4 1.3-.45.2-.25q-.15-.5-.5-.65l-1.75-.45 1.75.05 4.7-.3 3.15.55 1-.45q.7-.3 1.45-.55l.2-.2-.2-.4.1-.05q7.6-1.8 15.2-4.1l4.3-1.3 7.85-2.6.25.8-.15.15-.15.35v.15l-2.5.65q-.45.1-.85.35l.05.3 3.1.7 1.05-.65h.3l.05-.1.25.1.6-.4.05-.1.55.15q.3 1.8 2.2 1.3l.2.2-.35.25-.95 1.1q-.3.45-.45 1l-.9.2-.25-.55-.15-.15-.4-.25-.8-.4H87l.1-.1.1-.35-.35-.55h-.35l-.45.05-.2.1-.15.35.1.35.35.3-.8.15h-.15l-.5.05-.15.15-.05.1-1.15.5-1.35.7-.3.4-.7-.55.15-1-.3-1h-.15l-.15-1-.35-1h-.35l-.5.05-.15.1-.15.35-.1 1-.1 1-.15.15h-.2l-.45.05-.2.15-.15.3v.15l-.2.1-.7-.15.15-.05.25-.2-.55-.7q-.65-.4-1.45-.45l-.05.05-.4.2q-.85.45-1.6 1.05-.15.1-.15.35l.4.35.9.3-.1.5h-.85l-.2.15-.15.1-.2-.1-.95-.3-.05.1-.4.15-.4.25.05.25-.55-.25-.1.05.05-.1.25-.45-.3-.25-.2-.25h-.3l-.7-.15-.05.05-.45.15-.15.1-.2.35-.1.4-.95 1.25q-.6.2-1.15.55h-.1l-.2.15v.05l-.1.05-.3-.15-1.6-.3v.1q-1.6.35-3.15.85l-.35.2v.05l-.4-.3q-.35-.25-.75-.4l-.55.2-.15-.05v.1l-.5.25-.15.05-1.15.45-1.2.95-1 .75v-.05q-.15-.5-.45-.65l-2.2-.5v.1l-.45.15-.2.15.15-.4-.55-.4-.95-.25-.05.05-1.35.85m64.7-10.8 5 .05h2.2l1 .05-1 .8q1.2.55 2.65.45l.15.55v.05l-.45.2-.35.25.05.3-.35.1-.4.25-.45-.05v-.4l-.4-.45-.95-.25-.05.05-.45.2q-.2.05-.35.25l-.65-.15.05-.55-.25-1-.3.05-.8.35-.55.45-1.85-.3v-.05q-.25-.25-.55-.35l-.95-.3v-.55m17.25-1.3-.4.05-.15.15-.15.2-2.55-.45v-.25l-.05-.4 2.3-1.25.25-.1.2.05.8-.35.7-.45 1.15-.4.5-.2.15-.1.4-.35q1.3-.55 2.7-.95h.1l.1.35.05.05q-.55.25-.85.9l-.65 1.5v.95l-.2-.15-.75-.25.35-.3.1-.35-.35-.55h-.3l-.5.05-.15.15-.2.3q0 .25.15.35l.6.45-.4.1-.35.25.05.2.05.25.45.6-.05-.05h-.35l-.45.05-.15.1-.05-.25-.4-.45-.95-.25v.05l-.45.2-.35.25.05.3m10.1-5.75h1v.45h-.35l-.45.1-.2-.55m-96.65 17.65-.4-.45-.95-.25v.05l-.45.2-.35.25.1.45q.55 1.15 1.85.45l.2-.25v-.45m-17.8 4.15-.2.15-.15.3.1.4q.3.3.7.45l.6-.4.1-.4-.35-.55h-.35l-.45.05m-2.85 4.8-.1.35-.1 1.5v1l.55.2.3.1.6-.4.25-.4v-.5l-.15-1-.35-1h-.35l-.5.05-.15.1m.3 3.15h-.3l-.5.05-.2.15-.1.3-.05 1.5v1.5l1.15.25.5-.25v-.5l.15-1.5q.1-.95-.65-1.5m90.35-19.55v.05l-.05.1-.45.15-.2.05-1.15.85v-.15l-.15-.95-.05-.1.75-.2 1.3.2m-23.3.8q-.1-.3-.4-.45l-.95-.3-.05.1-.45.15-.35.25.1.45q.3.6.75.75l1.1-.3.2-.2.05-.45" fill="#b5b5b5" fill-rule="evenodd" transform="translate(200.8 20.1)"/><path d="m76.45 182.15-2-.4q-11.1-2.35-19.2-10.15l-7.15-2.1q-7.05-2-14-4.6-8.1-3-10.6-10.8v-3l.25-.75.5-1.5.3-.75.45-.75 1-1.5h.35V147l.85.35.55-.4.25-.45v-.5l-.1-.95-.4-1.05h-.3l.55-.4.25-.4v-.5l-.1-1-.4-1h-.3l.55-.45.25-.4v-.5l-.2-.95.65-.2.05.05.7.45.5-.4v.7l.5.25.05 2.45.1.5.55.4.15.1.05.25.4.55 1.25.1.45-.6-.3-.35.3-.3.5-.5 1.55-1.15 5.65-5.3 1.8-2.05.1-.5.05-1.5v-.15l1.35.15.25-1-.25-1h-.6l.6-1.1.1-.5.7-.05q.2.5.55.8l.65.2.25-.65H47l.75-.7.75.2.25-.1q-.55.35-.5 1.05l.1 1.05 1.55.5h.45v.15l1.55.5h.45l1.5-.85 1-.5.5-.5.05-.05 4.55.85q2 .3 2.05-1.3.4-1.1 2.3-1.15l.05.35 1.5.5-1.5 1.5.35.25 2.3.25.35-.35 1.35-1v-.5l-.15-.95-.15-.3.3-.1-.85-1-.5-.5v-.45l1.6-.3H69l1.4.1h1.3l.3-.35.5-.5 1.6-1.1q1-.75.1-1.4l.1-.5h.2l.55-.25q.45 1.5 2.1 1.3l-.15.3v.65l.3.25 1.55-.4.2-.4.3-.1 1.15-1 .5-.5.7.55-.1.15-.1.45.05.5.15.5.55.45.95.4h1.3l1-.3 2.35-.6.35-.1.3-.35.5-.5.35-.5.1-.5v-.45l.9-.2.4.35.75.15.65-.55.55-.45 1.15-.5.8-1.05.7-.95v-.5h.15l.4-.55.1-.45v-.5l-.55-.4-.95-.25v.1l-.1.05-.35.05-.2.1-.1.35-.2.95-.2.55-.2.2-.45-.5q-1-.45-2.2-.55v.1l-.45.15-.35.25-.55-.15.05-.3-.35-.55h-.4l-.25-.65h-.85l-.25-.8.75-.3 2.05-.6q6.35-1.45 10.9 3 2.9-1 5.7-1.4l6.65.05v.65l-1 .35q-2.35.5-4.45 1.4l.05.25 2.5.85v.4l.1.65v.35l.3.2 1-.2.4.25 1.05.2-.4.1-.35.25.4.55 2.95.35-.05.3.4.35.8.15.6-.55.2-.3.2-.15-.2-.4-.15-.6h-.35l-.45.05-.2.1-.05.05-2.1-.3 1.4-1.05.25-.35-.55-.35-1.6-.35v-.05l2.65.4.65-.35 1-.5.2-.45.65.15.1.45q.6 1.15 1.85.45l.2-.25.05-.05.45.05.1.45q.6 1.2 1.85.45l.25-.25.05-.2.4-.2.2-.25v-.45l-.4-.45-.95-.25-.15-.55 2.65-.65.85-.8.15-.1 2.4.15-.05.25.4.3.85.2h.6l.5-.5.45-.55.1-.15.4-.2.05-.05.1.35q.3.3.7.45l.6-.4.1-.4-.35-.55.05.05 1.4-.15.2-.2.05-.15 1.15-.1q.25-.1.3-.6 0-.25.15-.4l.3-.35.7-1.05q.5-.85 0-1.45l.05-.35-.25-.4 2.9-.6.2.55q-.55.25-.45 1.05l.1 1 .3.25.6-.1.6.35.55-.4.1-.4-.35-.55H142l-.15-.75-.35-.55v-.45q4.4-.1 8.75.15l3.25 1.6h-.85l-.15.2-.1.3-.05.5q.05.55.25.95l-.75-.1-.05.1-.25.1-.05-.05h-.35l-.45.05-.15.1-.05-.25-.4-.45-.95-.25v.05l-.45.2q-.2.05-.3.2l-.05-.1.6-.3.2-.25q-.15-.5-.5-.7l-.4-.15-.1-.15h-.25l-.75-.15v.1l-.45.15-.35.25v.1l.1.35q.3.55.75.75l-.2.3.15.35.7.5.55-.45.1-.05q.5 1.1 1.8.4l.05-.05.1.35.7.45.2-.1q.9 1.25 3.6 0l.15-.05.25.15 4.05.05.1.1.55.4.8.1.2-.2 2.6 1.3.15.35q.65 1.15 1.95.7l23.3 11.7 2.05-1.05.4 1.45v2.25l-.2.75q-.8 3.05-3.15 5.15l-.3.3-.35.55q-22.35 11.8-46.3 20.6-3.85 1.85-7.85 3.35l-11.6 4.05q-9.8 8.05-20.95 10.3-1.3 2.95-4.4 4.45-9.25 4.55-19.95 2.8m-.65-58.85-.4.15-.4.25.25.4-.1.05q-1.05.35-1.95 1.05-.8.7-.85 1.65.15.25.4.3l1.6.2.2-.25 1.65-1.55q.65-.6.4-1.1l3.05.1.2-.2q-.15-.5-.45-.55l-2.1-.45-1.45-.15-.05.1m-48.05 26.4-.25-1h-.3l-.5.05-.2.1-.3.35-.4.55-.1.45.35.3 1.45.2.25-1m25.5 12.95v6L80.3 182.2l10-5.05.05-2-.05.05h-.05l.05-.05.05-1.95v-.05l-.05.05.05-.05v.05h-.1l.05-.05.05-1.95h-.05l-27.05-13.6-10 5v.05m37.1 8.55v-.05l-.05.05.05-.05v.05m66.35-60.25h-.1l-.15-.1-.05-.05.3.15m-14.95 3.35.1-.4-.35-.55h-.25l-.05-.1-.35-.55h-.35l-.5.05-.15.15-.2.3.15.35.55.45.1.25.7.45.2-.1.4-.3m3.6-2.2-.1.1-2.1-.35v.1l-.45.15-.35.25q.3 1.4 1.5 1.55h-.1q-1.2.35-2.1 1.15l.15.4q.8 1.4 2.55.6l.3-.35 1.55-1.5q.7-.65.3-1.2l-.05-.1.05-.3-.35-.55h-.3l-.5.05m2.65 2-.15.1-.2.35.15.35.7.45.6-.4.1-.35-.35-.55h-.35l-.5.05m3.85-4.85-.35-.55h-.35l-.45.05-.2.15-.15.3.1.35.7.5.6-.45.1-.35m-6.7.1-.45.05-.2.15-.15.3.1.4.7.45.6-.4.1-.4-.35-.55h-.35m-7 2h-.3l-.5.05-.15.15-.2.3q0 .25.15.4l.7.45.55-.4.1-.4-.35-.55m-8.3 4.7-.7.1q-1.25.1-2.15.9.1 2.25 3.15 1l.25-1-.25-1h-.3m8.65-.15-.35-.55h-.3l-.5.05-.15.15-.2.3q0 .25.15.4l.7.45.55-.4.1-.4m-.85-2.05.15.4.7.45.6-.4.1-.4-.35-.55h-.35l-.5.05-.15.15-.2.3m-32.5 5q.7.4 1.8-.25l.25-.25-.05-.15.45-.25.25-.25-.15-.35-.35-.35q-.65-.4-1.5-.45l-.05.05-.4.2-.4.25.05.3-.55-.15v.1l-.45.15-.35.25.05.45q.5.95 1.4.7m28.7-4.3-.6.35h-.05l-.95 1-.6.95.4.3 1.1.05 1-.5.5-.5.45-.55.25-.45-.55-.4-.95-.25m-27.85 6.2-.15.1-.15.35.1.35.7.5.6-.45.1-.35-.35-.55h-.35l-.5.05m-1.9-.35-.25-.55-.55-.4-.8-.4-.65.15q-1.05.4-.95 1.3l.1 1.05q.75.4 1.55.5l1.15-.2.4-1v-.45m5.4-1.7h-.35l-.45.05-.15.1-.2.35.1.35.7.5.6-.45.1-.35-.35-.55m-19.65-5.5-.05.1-.4.15-.4.25.1.45q.6 1.2 1.85.45l.25-.25v-.45l-.4-.4-.95-.3m8.65 4.15H98l-.75.6-.1.1-.45.05-.15.1-.2.35.05.25-.05.05.1.05.75.45.4-.25 1.25.25.25-1-.25-1h-.35" fill="#bfbfbf" fill-rule="evenodd" transform="translate(200.8 20.1)"/><path d="m159.2 112.25-1.2-.6.2-5.9 30.85 15.45h.05v-.05l9.95-4.95h.05l-.05 1.95-.05.05h.1l-.05 1.95-.5.25.45-.2h.05l.05-.05v.5l-.05 1.5-7.95 4-2.05 1.05.05-2.05-.05.05.05-2-.05 2 .05-.05-.05 2.05-23.3-11.7-2.1-1.05-2.6-1.3-1.85-.9m29.9 8.95-.05 2 .05-2m-.05 2h.05v-.05l-.05.05m-135.8 45.45v-6L80.3 176.2h.05l-.05 2 .05-2v-.05l9.95-4.95h.05l-.05 1.95-.05.05h.1l-.05 1.95-.5.25.45-.2h.05l.05-.05-.05 2-10 5.05-27.05-13.55m27.1 9.55v-.05l-.05.05h.05l-.05 2 .05-.05-.05 2.05.05-2.05-.05.05.05-2" fill="#b9b8ac" fill-rule="evenodd" transform="translate(200.8 20.1)"/><path d="m189.05 121.2.05-.05v.05h-.05m.05 2h-.05l.05-.05v.05m-108.8 55 .05-.05v.05h-.05m.05-2h-.05l.05-.05v.05" fill="#e7e6e0" fill-rule="evenodd" transform="translate(200.8 20.1)"/><path d="M158.2 105.75v-.55l9.5-4.75.3.15 31.05 15.6-9.95 4.95-.05.05-30.85-15.45m-104.95 56.9v-.05l10-5 27.05 13.6-9.95 4.95-.05.05-27.05-13.55" fill="#cac9c0" fill-rule="evenodd" transform="translate(200.8 20.1)"/><path d="m199.05 120.15-.05.05-.45.2.5-.25m-108.75 55-.05.05-.45.2.5-.25" fill="#dbdad0" fill-rule="evenodd" transform="translate(200.8 20.1)"/><path d="m-38.2-.75-.85.45.85-.4m277.5 101.2L162 61.85l-1-.5-.4-.2-31.65-15.85L-.55-19.6-38.2-.7m-88 44.05q-37.05 18.6-74.1 37.15L-.2 180.45M161 61.35l.6.3-1-.5m1.4.7-.4-.2M-39.05-.3-126 43.25" fill="none" stroke="#293726" stroke-linecap="round" stroke-linejoin="round" transform="translate(200.8 20.1)"/><path d="m-.2 180.45 39.95 20.05 36.7-18.35" fill="none" stroke="#000" stroke-linecap="round" stroke-linejoin="round" transform="translate(200.8 20.1)"/><path d="m-126 43.25-.2.1" fill="none" stroke="#3c3c3c" stroke-linecap="round" stroke-linejoin="round" transform="translate(200.8 20.1)"/><path d="m360 132.35-1.2-.6m10-11.05 31.05 15.6.05-.05v.05l-.05 1.95-.05.05h.05l.05-.05v.05l-.05 1.95-.05.05h.05l.05-.05v.5m-10 .5-.05.05L359 125.85m30.9 15.45v-.05l9.95-4.95m-10 7 .05-2m-.05 2 .05-.05v.05l-.05 2 .05-.05-.05 2.05 2.05-1.05 7.95-4 .05-1.5m-35.45-6.2-2.6-1.3m2.6 1.3 2.1 1.05 23.3 11.7m-125.8 30.4 27.05 13.6.05-.05v.05l-.05 1.95-.05.05h.05l.05-.05v.05l-.05 1.95-.05.05h.05l.05-.05-.05 2-10 5.05-27.05-13.55m27.05 9.55.05-.05v.05l-.05 2 .05-.05-.05 2.05m0-4 .05-2v-.05l9.95-4.95m-10 5-27.05-13.55m27.1 13.5-.05.05m78.9-63.95 1.85.9" fill="none" stroke="#676767" stroke-linecap="round" stroke-linejoin="round" stroke-width=".5"/><path d="m358.8 131.75.2-5.9v-.55l9.5-4.75.3.15m-114.75 68.05v-6.05l10-5" fill="none" stroke="#676767" stroke-linecap="round" stroke-linejoin="round" stroke-width=".5"/></g><g id="b"><path d="m9.9-36.95-9.35 4.7L.1-32l-5.65-2.85-4.35-2.2 9.8-4.9 10 5m-9.95 5 10 5 9.95 5-9.35 4.7-.5.25L.1-22l9.85-4.95L.1-22l9.95 5-.45.25L.1-12l9.95 5L.1-2.05.05-2-9.9-7l10-5-10-5-10-5 10-5q4.9-2.5 9.85-4.95m.6-.3L.1-32l.45-.25m29.35 5.3 9.95 5h.05l-.05.05-9.8 4.9-9.95-5 9.8-4.95m-69.8 4.9 10-5 10 5.05-10 5-10-5.05m79.75.1v.05-.05M-9.9-17l10-5-10-5 10 5-10 5" fill="#e7e6e0" fill-rule="evenodd" transform="translate(40.15 42.2)"/><path d="m.55-32.25 9.35-4.7 10 5-9.95 5 9.95-5 10 5L20.1-22l9.95 5-10 5-10 5L.1-12l9.5-4.75.45-.25.5-.25 9.35-4.7-9.95-5-10-5L.1-32l-.15.05Q-5-29.5-9.9-27l-10 5 10 5 10 5-10 5-10-5 10-5-10 5-10-5 10-5-10-5.05 10-5 10-5 4.35 2.2L.1-32l.45-.25M20.05-12l-9.95-5 .45-.25-.45.25 9.95 5M9.6-16.75l.5-.25h-.05.05l-.5.25m10.3-5.2.2-.05-.2.05m-19.95-10-5.5-2.9 5.5 2.9M-9.9-27l-10-5.05 10 5.05" fill="#dbdad0" fill-rule="evenodd" transform="translate(40.15 42.2)"/><path d="M39.85-21.9v1.9L.05 0-39.9-20.05v-2l10 5.05 10 5 10 5L.05-2H.1v-.05L10.05-7l10-5 10-5 9.8-4.9M.05 0 .1-2 .05 0" fill="#99977b" fill-rule="evenodd" transform="translate(40.15 42.2)"/><path d="m40.25 10.2-.15.05m19.95 0-10-5-10-5-9.8 4.9m10 5.05.45-.25m19.35.3 10 5 9.95 5h.05l-.05.05v1.9l-39.8 20L.25 22.15v-2l10-5 10-5 10-5M70.2 25.2l9.8-4.9v-.05m-9.8 4.95-10 5-10 5-9.95 4.95v.05l-.05 2m20.05-22-.2.05M30.25 35.2l9.95 5 .05-.05m-20-9.95 10 5m-20-10 10 5m-10-5-10-5.05" fill="none" stroke="#f4f4f2" stroke-linecap="round" stroke-linejoin="round" stroke-width=".5"/><path d="m50.05 5.25-9.35 4.7m-.6.3 10 5 9.95-5m-29.8-5.1 4.35 2.2 5.5 2.9q-4.95 2.45-9.85 4.95l10 5-10 5 10 5-10 5m39.8-19.95-9.8 4.95 9.95 5m-19.5-.25-.45.25 9.95 5m-9.5-5.25 9.35-4.7-9.95-5-9.85 4.95 9.95 5h.05l-.5.25-9.5 4.75 9.95 5m-19.95-20-10 5 10 5-10 5m0-20.05 10 5.05m-20 10 10-5-10-5.05" fill="none" stroke="#f2f2ef" stroke-linecap="round" stroke-linejoin="round" stroke-width=".5"/></g><g id="c"><path d="M1.05-67.8v6.55l-6.1 3.7V-95.9l6.1-3.7-6.1 3.7q-6.8-7.85-12.75-7.75l6.1-3.75q6 .05 12.75 7.8v31.8m-9.2 8.3v4.2l-6.15 3.7v-38.3l-3.5-3.6q-4.85-4.25-9.25-4.2l6.1-3.7 3.15.5q4.55 1.5 9.6 7.25l.05 34.15m-.05-34.15-6.1 3.75 6.1-3.75" fill="#868686" fill-rule="evenodd" transform="translate(34.35 107.9)"/><path d="m-5.05-57.55-1.9-1.2V-95q-5.75-6.6-10.85-6.5v-2.15q5.95-.1 12.75 7.75v38.35m-9.25 5.95L-27.05-58v-39.7q4.4-.05 9.25 4.2l3.5 3.6v38.3M-19.75-90q.2 0-.05-.15l-.6-.35v2.7l-.2.05-.5-.3.2.55.45.3q.7.35.7-.1V-90m0-.85q.2.1.1-.05h-.05l-.05.05M-22.25-71v.35l5 2.8v-.35l-2.25-1.25v-.45q.25.05 0-.1l-.65-.35v.55l-2.1-1.2m1.05 1.8.4.5 1.1.2.85.8.3-.1-.75-.65h.45q.2.15.1 0l-.5-.5h-.55l-.8-.65-.3.05.7.6-1-.25m-.65-1.05v1.4l1.7.95-.1.2-1.85-1v2.05l.6.35v-1.75l1.1.6-.25.55-.65-.3.25.55h.15l2.05.95.1.3.6.15-.85-1.3-.45-.15.35.6-1-.5.3-.5 1.85 1v1.3h-.1l-.6-.3.1.4.7.35.45-.05v-1.7l-2.3-1.3.15-.2 1.75 1v-1.25q.25.05 0-.15l-.55-.3v1.05l-2.9-1.6v-.95q.2.05-.05-.15l-.55-.3m-2.95-1.9.8.45v1.05l-.7-.4v.45l.7.35V-69l-.95-.4.2.6q.1.15.15 0l2.15.75-.1-.4-.8-.3v-1.15l.75.45v-.4l-.75-.45v-1.05l.8.45v-.4l-2.25-1.25v.4m3.6-1.3v-.5l1.2.65v.5l-1.2-.65m-.6.25.6.35v-.25l3 1.6v.2l.55.3v-2.1l-4.15-2.3v2.2m.6-1.1v-.45l1.2.65v.45l-1.2-.65m-1.35-3.3v-.35l-2.35-1.35v.4l.9.5v1.15l-.8-.45v.4l.8.45v1.35l-.95-.4.2.6.15.05 2.3.75-.15-.4-.9-.35v-1.25l.7.4v-.4l-.7-.4v-1.15l.8.45m-.1-4.1.45 1.15.65.3-.45-1.2-.65-.25m-1.25-.55q.25.05 0-.1l-.6-.4-.3.85.6.45.3-.8m.6-2.1-.8.15-.25-.25-.4.1 1.15 1.1-.55.05-.8-.45.1.5h.15l1.2.6v1.75l.6.3v-1.75l.9.45.15.3h.5l-.9-1.15h-.4l.35.4-1.1-.55 1.5-.1q.2.1.05-.05l-.4-.5-.95.2-.4-.45.75-.1q.2.15.1-.05l-.55-.5m1.55.6v-.55l1.35.75v.55l-1.35-.75m-.55-.9v.55l-1.35-.75v-.5l1.35.7m-1.75-3.45 1.1-.9-.6-.7q-.7.65-1.25.9l.65.75q.15.1.1-.05m1-2-1.2-1.2-.45.15 1.25 1.25.4-.2m-.85-2.2-.35.2 1.15 1.25.45-.25-1.25-1.2m2.75 2.5q.2.05.1-.05l-.8-.6q-.3.75-1.1.85l.55.75q.8-.2 1.25-.95m.95 14.5.5.1-.7-1.2-.45-.1.25.5-.85-.1v-1.05l1.1.5q.25.25.25.05l-.3-.5-1.15-.45-.5-.3v1.55l-.4-.1.35.55q.15.2.15.05l1.6.25.15.25m1.6-.3.7.4-.05.8q0 .5-.25.35l-.55-.3.05.35.75.45q.5.3.6-.4l.1-1.25-2.6-1.4v.3l.65.4q.1 1.25-1.45.65l.3.55q1.85.6 1.75-.9m-.85-4.75v.45l-.95-.5v-.5l.95.55m0 .8v.45l-.95-.5v-.5l.95.55m1.65-1.8v-1L-24.35-86v1l6.55 3.65m-1.65.2v.45l-.95-.5v-.45l.95.5m-.4-1.55v-.55l1.35.75v.55l-1.35-.75m-.25.45q.25.1.1-.05l-.6-.45-1.1.6.4.5.35-.05v2.3l.55.3v-.2l3.2 1.8v-.35l-1.65-.95v-.45l1.05.6V-79l-1.05-.6v-.45l1.05.6v-.35l-1.05-.6v-.4l1.45.8v-.35l-1.65-.9.55-.1q.2.05.05-.1l-.55-.45-.55.35-.9-.45.35-.25m2.2-4.15q.25.1.05-.1l-.6-.6q-.95.9-4.35-.65l.25.65q3.3 1.45 4.65.7m-1.4-2.55 1.35 2.05.7.1-1.5-2.1-.55-.05m-1.75 26.45-.75-.25q.4 1.1.55 2.4l.75.3-.55-2.45m.8-1.25v1.05l-1.9-1.05v.4l4.65 2.55v-.4l-2.05-1.1v-.9q.2 0-.05-.2l-.65-.35m-2.85-1.5-.65-.35v1l-1.05-.6v.4l1.05.6v1.25l-1.15-.5.15.55q.1.2.2.1l.8.3v1.15h-.15l-.55-.3.15.45.7.4.5-.05v-1.4l.9.3v-.45l-.9-.3v-1.15l.7.4v-.4l-.7-.4v-.85q.25 0 0-.15m.5 4.45v.4l5.35 2.95v-.4L-19-58.8l.8-2q.25.1 0-.1l-.85-.55q-.2 1.2-.65 2.25l-2.9-1.6m4.4-11.5v.5l-1.2-.65v-.5l1.2.65m-1.2-1v-.45l1.2.65v.45l-1.2-.65" fill="#a6a6a6" fill-rule="evenodd" transform="translate(34.35 107.9)"/><path d="m-19.75-90.85.05-.05h.05q.1.15-.1.05" fill="#404040" fill-rule="evenodd" transform="translate(34.35 107.9)"/><path d="m-6.95-58.75-1.2-.75-.05-34.15q-5.05-5.75-9.6-7.25v-.6q5.1-.1 10.85 6.5v36.25" fill="#636363" fill-rule="evenodd" transform="translate(34.35 107.9)"/><path d="M3.3-57.95v-.3l-.05-.25v-.15l-.1-.1L3-58.9l-.3-.05-.2.05h-.1l-.1.1-.15.15-.05.1v.1l-.05.4.05.25v.1l.15.15.1.1-.4.2v-.5l-.1-.4-.1-.1-.15-.15-.3-.05h-.1l-.2.05H.9l-.1.1-.15.15-.05.1-.05.1.05.25v.15l.05.15.05.1v.35l-.15-.2-.1.05v.25l.1.1.05.05.05.1-1.55.75v-.55l-.1-.25-.05-.1-.2-.15-.25-.05h-.05l-.25.05-.15.15-.15.1-.05.15v.85l.05.25.1.1-2.7 1.35v-.45l-.05-.35-.1-.15L-5-55l-.3-.1v.05l-.3.05-.15.1-.15.15-.05.1v.9l.05.35.05.05-8.5 4.25-7.55-3.8v-.35l-.05-.15-.15-.25-.05-.1-.05-.15-.2-.1-.3-.1v.05h-.1l-.05-.05-.15-.1-.3-.1-.2.05-.1.05-.1.05-.15.15-.05.1-.75-.35v-.6h-.2v.05l-.05.1-.05.15-.05.05v-.5h-.2v.25h-.05l-.05-.05-.05-.15-.05-.05v-.05l-.05-.05-.05-.1-.05-.05h-.05l-.15.45-1.35-.7.05-.1v-.1l-.05-.15-.05-.1-.1-.15-.15-.1-.3-.1-.2.05-.05.05-.15.05-.05.1-4.05-2 .1-.05.1-.05.1-.1.1-.1.1-.1v-.25l.05-.75-.1-.5-.1-.15-.15-.1-.15-.05 2.9-1.45.1.15.2.1.25.1.2-.05.15-.05.15-.15.05-.1.05-.15.05-.1v-.35l1-.5v4.8l12.75 6.4 6.15-3.7v-4.2l1.2.75 1.9 1.2 6.1-3.7v-6.55L12-62.3l-8.7 4.35m1.7-5.1-.1.05-.1.1-.15.1-.05.1-.05.4.05.5v.25l.15.1.15.15.3.1.2-.05.1-.05.1-.1.1-.1.05-.15.1-.35-.05-.5-.05-.25-.1-.15-.15-.1-.3-.1v.05H5m-37.9 3.2v.2l-.05.75.05.5-1.45-.75 1.45-.7m1.65.8.15.25v.6l.2.05v-.1l.05-.05.05-.05.05-.1v-.25l.05-.05.05-.05v-.05l.05-.1.05-.05v-.25l.05-.1v-.1l-.05-.05-.05-.05h-.05l-.05.05-.05.05v.05l-.05.05-.1-.1h-.4l-.05.1.1.3m1.4-1.45h-.1l-.05.15v.15l.05.1.05.15.05.15.05.2.1.15v.45l-.05.05v.2l-.05.05-.05.1v.1l.1.1.1-.1.05.1v.1l.2.05v-.05l.3-.45.2-.45h-.05l-.2.05v.05l-.1.15v-.2l-.05-.05v-.4l-.1-.05h-.1v-.05l-.05-.05v-.2l-.1-.15-.1-.15v-.05l-.05-.15-.05-.05m4.35 5.8v-.05l.05.05h-.05" fill-opacity=".431" fill-rule="evenodd" transform="translate(34.35 107.9)"/><path d="m-25.75-54.8.15-.45h.05l.05.05.05.1.05.05v.05l.05.05.05.15.05.05h.05V-55h.2v.5l.05-.05.05-.15.05-.1v-.05h.2v.7l-.05.05-.05.1v.05l-.05.05v.25l-.15.05-.25-.1v-.3l-.05-.05v-.2l-.05-.05-.05-.05v-.15l-.05-.05-.05-.05v-.1l-.05-.05v.2l-.05.15h-.15l-.05-.4m26.4-1.8-.05-.1-.05-.05-.1-.1v-.25l.1-.05.15.2v.15l.05.1.1.15.05.05.1.05.05.05.05.15.05.1v.05l.05-.1v-.15h.1l.2-.05.1-.05.1-.05.05-.05v.65l-.05.05v.05l-.05.1v.5l-.05.05v.15l-.05.1H1.4v-.45h-.2v-.2l-.1-.15-.05-.15-.05-.1L.95-56l-.05-.05v-.05l-.05-.1-.1-.1-.05-.15-.05-.1v-.05m-31.9-2.45-.1-.3.05-.1h.4l.1.1.05-.05v-.05l.05-.05.05-.05h.05l.05.05.05.05v.1l-.05.1v.25l-.05.05-.05.1v.05l-.05.05-.05.05v.25l-.05.1-.05.05-.05.05v.1l-.2-.05v-.6l-.15-.25m1.4-1.45.05.05.05.15v.05l.1.15.1.15v.2l.05.05v.05h.1l.1.05v.4l.05.05v.2l.1-.15v-.05l.2-.05h.05l-.2.45-.3.45v.05l-.2-.05v-.1l-.05-.1-.1.1-.1-.1v-.1l.05-.1.05-.05v-.2l.05-.05v-.45l-.1-.15-.05-.2-.05-.15-.05-.15-.05-.1v-.15l.05-.15h.1" fill="#397838" fill-rule="evenodd" transform="translate(34.35 107.9)"/><path d="M5-63.05h.2v-.05l.3.1.15.1.1.15.05.25.05.5-.1.35-.05.15-.1.1-.1.1-.1.05-.2.05-.3-.1-.15-.15-.15-.1v-.25l-.05-.5.05-.4.05-.1.15-.1.1-.1.1-.05m-2.65 5.6-.1-.1-.15-.15v-.1l-.05-.25.05-.4v-.1l.05-.1.15-.15.1-.1h.1l.2-.05.3.05.15.15.1.1v.15l.05.25v.35l-.05.15-.05.1-.1.15-.1.05-.1.05-.2.05-.3-.1h-.05m-30.4-4.85v.35l-.05.1-.05.15-.05.1-.15.15-.15.05-.2.05-.25-.1-.2-.1-.1-.15-.05-.35v-.65l.05-.25.05-.1.15-.15.15-.05.2-.05.3.1.15.1.1.15.05.25.05.4m-4.1 2.05.15.05.15.1.1.15.1.5-.05.75v.25l-.1.1-.1.1-.1.1-.1.05-.1.05h-.1l-.3-.1-.15-.1-.15-.15-.05-.5.05-.75v-.25l.05-.1.15-.15.1-.05.1-.05.2-.05.15.05m4 4.2.05-.1.15-.05.05-.05.2-.05.3.1.15.1.1.15.05.1.05.15v.1l-.05.1v.05l-.1.1-.1.1-.1.1-.1.05-.2.05-.25-.1-.2-.1-.1-.15-.05-.25v-.1l.05-.15.05-.1.05-.05m4.25 2.15.05-.1.15-.15.1-.05.1-.05.2-.05.3.1.15.1.05.05h.1v-.05l.3.1.2.1.05.15.05.1.15.25.05.15v.6l-.05.15-.05.1-.05.15-.15.1-.3.1-.3-.1-.15-.1-.15-.15-.05-.1v-.15l-.05-.1-.05-.15-.05-.1v-.05l-.3-.1-.15-.1-.1-.15-.1-.25.05-.1v-.15m18.05.55-.05-.05-.05-.35v-.9l.05-.1.15-.15.15-.1.3-.05v-.05l.3.1.15.1.1.15.05.35v.65l-.05.25-.05.1-.05.15-.15.1-.3.1-.3-.1-.15-.1-.1-.1M-2-55.3l-.1-.1-.05-.25v-.85l.05-.15.15-.1.15-.15.25-.05h.05l.25.05.2.15.05.1.1.25v.55l-.05.35-.05.1-.05.15-.2.1-.25.1-.3-.1-.15-.1-.05-.05m2.7-1.65v-.35l-.05-.1-.05-.15v-.15l-.05-.25.05-.1.05-.1.15-.15.1-.1H1l.2-.05h.1l.3.05.15.15.1.1.1.4v.6l-.05.4-.1.1-.05.1-.05.05-.1.05-.1.05-.2.05h-.1l-.2-.1-.1-.05-.05-.05-.1-.15-.05-.1v-.15" fill="#466734" fill-rule="evenodd" transform="translate(34.35 107.9)"/><path d="M-19.75-90v2.7q0 .45-.7.1l-.45-.3-.2-.55.5.3.2-.05v-2.7l.6.35q.25.15.05.15m.45 1.05.55.05 1.5 2.1-.7-.1-1.35-2.05m1.4 2.55q-1.35.75-4.65-.7l-.25-.65q3.4 1.55 4.35.65l.6.6q.2.2-.05.1m-2.2 4.15-.35.25.9.45.55-.35.55.45q.15.15-.05.1l-.55.1 1.65.9v.35l-1.45-.8v.4l1.05.6v.35l-1.05-.6v.45l1.05.6v.35l-1.05-.6v.45l1.65.95v.35l-3.2-1.8v.2l-.55-.3v-2.3l-.35.05-.4-.5 1.1-.6.6.45q.15.15-.1.05m.25-.45 1.35.75v-.55l-1.35-.75v.55m.4 1.55-.95-.5v.45l.95.5v-.45m1.65-.2L-24.35-85v-1l6.55 3.65v1m-1.65 1.8-.95-.55v.5l.95.5v-.45m0-.8-.95-.55v.5l.95.5v-.45m.85 4.75q.1 1.5-1.75.9l-.3-.55q1.55.6 1.45-.65l-.65-.4v-.3l2.6 1.4-.1 1.25q-.1.7-.6.4l-.75-.45-.05-.35.55.3q.25.15.25-.35l.05-.8-.7-.4m-1.6.3-.15-.25-1.6-.25q0 .15-.15-.05l-.35-.55.4.1v-1.55l.5.3 1.15.45.3.5q0 .2-.25-.05l-1.1-.5v1.05l.85.1-.25-.5.45.1.7 1.2-.5-.1m-.95-14.5q-.45.75-1.25.95l-.55-.75q.8-.1 1.1-.85l.8.6q.1.1-.1.05m-2.75-2.5 1.25 1.2-.45.25-1.15-1.25.35-.2m.85 2.2-.4.2-1.25-1.25.45-.15 1.2 1.2m-1 2q.05.15-.1.05l-.65-.75q.55-.25 1.25-.9l.6.7-1.1.9m1.75 3.45-1.35-.7v.5l1.35.75v-.55m.55.9 1.35.75v-.55l-1.35-.75v.55m-1.55-.6.55.5q.1.2-.1.05l-.75.1.4.45.95-.2.4.5q.15.15-.05.05l-1.5.1 1.1.55-.35-.4h.4l.9 1.15h-.5l-.15-.3-.9-.45v1.75l-.6-.3v-1.75l-1.2-.6h-.15l-.1-.5.8.45.55-.05-1.15-1.1.4-.1.25.25.8-.15m-.6 2.1-.3.8-.6-.45.3-.85.6.4q.25.15 0 .1m1.25.55.65.25.45 1.2-.65-.3-.45-1.15m.1 4.1-.8-.45v1.15l.7.4v.4l-.7-.4v1.25l.9.35.15.4-2.3-.75-.15-.05-.2-.6.95.4v-1.35l-.8-.45v-.4l.8.45v-1.15l-.9-.5v-.4l2.35 1.35v.35m1.35 3.3 1.2.65v-.45l-1.2-.65v.45m-.6 1.1v-2.2l4.15 2.3v2.1l-.55-.3v-.2l-3-1.6v.25l-.6-.35m.6-.25 1.2.65v-.5l-1.2-.65v.5m-3.6 1.3v-.4l2.25 1.25v.4l-.8-.45v1.05l.75.45v.4l-.75-.45v1.15l.8.3.1.4-2.15-.75q-.05.15-.15 0l-.2-.6.95.4v-1.25l-.7-.35v-.45l.7.4v-1.05l-.8-.45m2.95 1.9.55.3q.25.2.05.15v.95l2.9 1.6v-1.05l.55.3q.25.2 0 .15v1.25l-1.75-1-.15.2 2.3 1.3v1.7l-.45.05-.7-.35-.1-.4.6.3h.1v-1.3l-1.85-1-.3.5 1 .5-.35-.6.45.15.85 1.3-.6-.15-.1-.3-2.05-.95h-.15l-.25-.55.65.3.25-.55-1.1-.6v1.75l-.6-.35v-2.05l1.85 1 .1-.2-1.7-.95v-1.4m.65 1.05 1 .25-.7-.6.3-.05.8.65h.55l.5.5q.1.15-.1 0h-.45l.75.65-.3.1-.85-.8-1.1-.2-.4-.5m-1.05-1.8 2.1 1.2v-.55l.65.35q.25.15 0 .1v.45l2.25 1.25v.35l-5-2.8V-71m-.85 5.75q.25.15 0 .15v.85l.7.4v.4l-.7-.4v1.15l.9.3v.45l-.9-.3v1.4l-.5.05-.7-.4-.15-.45.55.3h.15v-1.15l-.8-.3q-.1.1-.2-.1l-.15-.55 1.15.5v-1.25l-1.05-.6v-.4l1.05.6v-1l.65.35m2.85 1.5.65.35q.25.2.05.2v.9l2.05 1.1v.4l-4.65-2.55v-.4l1.9 1.05v-1.05m-.8 1.25.55 2.45-.75-.3q-.15-1.3-.55-2.4l.75.25m-1.55 1.7 2.9 1.6q.45-1.05.65-2.25l.85.55q.25.2 0 .1l-.8 2 1.75.95v.4l-5.35-2.95v-.4m3.2-12.5 1.2.65v-.45l-1.2-.65v.45m1.2 1-1.2-.65v.5l1.2.65v-.5" fill="#313131" fill-rule="evenodd" transform="translate(34.35 107.9)"/><path d="M1.05-67.8v6.55l-6.1 3.7m-3.1-1.95v4.2l-6.15 3.7M1.05-67.8v-31.8l-6.1 3.7m-9.25 6 6.1-3.75.05 34.15" fill="none" stroke="#202020" stroke-linecap="round" stroke-linejoin="round" transform="translate(34.35 107.9)"/><path d="M-11.7-107.4q6 .05 12.75 7.8m-18.85-1.3-3.15-.5m12.75 7.75q-5.05-5.75-9.6-7.25" fill="none" stroke="#353535" stroke-linecap="round" stroke-linejoin="round" transform="translate(34.35 107.9)"/><path d="m-5.05-57.55-1.9-1.2-1.2-.75m-18.9 1.5v-4.8m22-33.1v38.35m-15.9-43.85-6.1 3.7q4.4-.05 9.25 4.2l3.5 3.6v38.3m-3.5-49.3v-2.75l6.1-3.75m-15.35 9.7v34.9m9.25-40.85q5.95-.1 12.75 7.75m-9.25 44.3L-27.05-58" fill="none" stroke="#3c3c3c" stroke-linecap="round" stroke-linejoin="round" transform="translate(34.35 107.9)"/></g><g id="d"><path d="M79.35-66h.05l-.05 1.95-.05.05h.1l-.05 1.95-.5.25.45-.2h.05l.05-.05-.05 2-10 5.05L29.4-75.05v-6L69.35-61h.05v-.05L79.35-66m-10 7 .05-2-.05 2h.05v-.05l-.05.05m0 4 .05-2.05-.05.05.05-2-.05 2 .05-.05-.05 2.05m-148.7 28.95L-39.4-6h.05v-.05q4.95-2.5 9.95-4.95h.05l-.05 1.95-.05.05h.1l-.05 1.95-.5.25.45-.2h.05l.05-.05-.05 2-10 5.05-39.95-20.05v-6m40 22.05v-.05l-.05.05.05-2-.05 2h.05l-.05 2 .05-.05L-39.4 0l.05-2.05-.05.05.05-2" fill="#b9b8ac" fill-rule="evenodd" transform="translate(79.6 86.3)"/><path d="m79.35-62.05-.05.05-.45.2.5-.25m-108.75 55-.05.05-.45.2.5-.25" fill="#dbdad0" fill-rule="evenodd" transform="translate(79.6 86.3)"/><path d="m29.4-81.05 10-5L79.35-66l-9.95 4.95-.05.05L29.4-81.05m-108.75 55 10-5L-29.4-11q-5 2.45-9.95 4.95l-.05.05-39.95-20.05" fill="#cac9c0" fill-rule="evenodd" transform="translate(79.6 86.3)"/><path d="M69.4-61.05v.05h-.05l.05-.05M69.35-59l.05-.05v.05h-.05M-39.4-6l.05-.05V-6h-.05m0 2 .05-.05V-4h-.05" fill="#e7e6e0" fill-rule="evenodd" transform="translate(79.6 86.3)"/><path d="M159 20.3v-.05l-.05.05-9.95 4.95v.05l-.05 2 .05-.05v.05l-.05 2 .05-.05-.05 2.05L109 11.25v-6l10-5 39.95 20.05m.05 0-.05 1.95-.05.05h.05l.05-.05v.05l-.05 1.95-.05.05h.05l.05-.05-.05 2-10 5.05m.05-6.05-.05.05L109 5.25M50.2 75.3 10.25 55.25l-10 5L40.2 80.3l.05-.05q4.95-2.5 9.95-4.95l.05-.05v.05l-.05 1.95-.05.05h.05l.05-.05v.05l-.05 1.95-.05.05h.05l.05-.05-.05 2-10 5.05L.25 66.25v-6M40.2 82.3l.05-.05v.05l-.05 2 .05-.05-.05 2.05m.05-6.05v.05l-.05 2" fill="none" stroke="#676767" stroke-linecap="round" stroke-linejoin="round" stroke-width=".5"/></g><g id="e"><path d="M9.55-25.35-.4-23q-5.45 1.15-7.4-.85l-4.55-4.25q-2.55-2.25 1.1-2.45l9.35-.7q5.75-.55 8.7.2 2.9.75 5.05 2.6t-2.3 3.1" fill="#3d3a3a" fill-rule="evenodd" transform="translate(57.6 51.8)"/><path d="m19.9-20.15 9.7.6q5.8 1 6.2 3.05.4 2.1-4.05 2.3-4.5.2-9.95 1.7-5.45 1.45-9.85.45-4.45-1-4.75-3.6-.3-2.65 4.3-3.35l8.4-1.15m13.9 16.9-.15-.25-.1-.25V-4l-.1-.2-.3-.3-.35.3-.05.2v.75l.2.25.1.25v.25l.45.45.4.3 3.9.1.35-.2 4.3-.15.35-.15 7.65-.2 1-.35q.45-.2.75-.65l.05-.5.1-.2.2-.3v-1.5L52.3-6l-.5-.15-.25.2-.2.95-.05.5-.85.45-1 .4-6.3.15-.35.15-7.75-.15.45.45.4.3 1.8.15-3.4-.15-.4-.25-.1-.25M10.15-17.5l2.55-.3.1-.1-.2-.3-2.8-.3v.05l-.2.1-.7.6-.15.25v1.25l.05 1L9-15q.1.15.25.15l5.15.35.1-.1v-.1q-2.2-1.2-4.95-.95V-17l.25-.25.35-.25M33.2-6.35l10.05-.7q6.2-.55 8.3.5l4.6 2.6q2.55 1.5-1.9 2.75Q49.75 0 44.6 0l-9.8-.7q-4.7-.7-5.1-3.05-.4-2.4 3.5-2.6" fill="#615f5f" fill-rule="evenodd" transform="translate(57.6 51.8)"/><path d="m10.15-17.5-.35.25-.25.25v1.35q2.75-.25 4.95.95v.1l-.1.1-5.15-.35q-.15 0-.25-.15l-.2-.25-.05-1v-1.25l.15-.25.7-.6.2-.1v-.05l2.8.3.2.3-.1.1-2.55.3M33.8-3.25l.1.25.4.25 3.4.15-1.8-.15-.4-.3-.45-.45 7.75.15.35-.15 6.3-.15 1-.4.85-.45.05-.5.2-.95.25-.2.5.15.25.15v1.5l-.2.3-.1.2-.05.5q-.3.45-.75.65l-1 .35-7.65.2-.35.15-4.3.15-.35.2-3.9-.1-.4-.3-.45-.45v-.25l-.1-.25-.2-.25V-4l.05-.2.35-.3.3.3.1.2v.25l.1.25.15.25M-8.5-39.8l-.2-.25h-.4l-.1.05-.05.2v.7q.25.15.55.15.15 0 .25-.15v-.2l-.05-.5m4.45.4q0 1.85-4.45 3.1l-9.95 2.35q-5.45 1.15-9.85-.5-4.45-1.7-4.8-4.25-.35-2.55 3-3.55 3.35-1.05 9.4-1.95 6.05-.9 11.35 1.05 5.3 1.9 5.3 3.75m-15.15 2.1.05-.15-.2-.3h-.15l-.25.05-.1.05-.1.15.1.2.35.2.3-.2m.7-4.5-.2-.2-.5-.15v.05l-.2.05-.2.15.05.2q.3.6.9.25l.15-.1v-.25m2.6 2.05h.1l.25-.2.1-.2v-.05h-1.3l-.1.05-.55.25-.2.15h1.7m-.1 1.25-1.25-.1.05.25q.4.7 1.25.25l.1-.15v-.25H-16m5.3-2.9h-.3l.3.25.15.25-.15-.5m-1.75.85v.05l.1.25.5.1.4-.25-1-.15m-1.45-1.75.05-.15-.15-.3h-.2l-.25.05-.05.05-.1.15.05.2.35.25.3-.25m1 3.4h-.1v.05l-.2.3-.05.2.2.2.7.05.1-.5-.1-.5-.55.2m-.35-1.1-.05-.1h-.1l-.05.25.2-.15" fill="#595757" fill-rule="evenodd" transform="translate(57.6 51.8)"/><path d="M-43.65-50.2q6.05 1.2 10.85.1 4.8-1.15 4.8.7 0 1.85-4.55 3.3l-10.2 3.45q-5.65 2-9.8-.75t-4.5-5.3q-.35-2.55 3.5-2.6 3.85-.1 9.9 1.1m-9.05 2.15h-.4l-.05.05-.1.2v.25l.05.2.15.2.75.3.2.1 1.05-.1q.15 0 .3-.15l-.15-.2-.8-.5-1-.35m7.2.4.3-.2.1-.2-.1-.2-.55-.35-.45-.2-.5-.25-1.8-.1v.05l-.25.05-.2.15.25.25 2.65.85.55.15m29.25 7.45v.3l.35.15h-1.7l.2-.15.55-.25.1-.05h.5m.25 1.7h.15v.25l-.15-.25m3.55-2.05 1 .15-.4.25-.5-.1-.1-.25v-.05m-.45 1.65-.1.05v-.05h.1m-.35-1.1-.2.15.05-.25h.1l.05.1" fill="#4f4d4d" fill-rule="evenodd" transform="translate(57.6 51.8)"/><path d="m-45.5-47.65-.55-.15-2.65-.85-.25-.25.2-.15.25-.05v-.05l1.8.1.5.25.45.2.55.35.1.2-.1.2-.3.2m-7.2-.4 1 .35.8.5.15.2q-.15.15-.3.15l-1.05.1-.2-.1-.75-.3-.15-.2-.05-.2v-.25l.1-.2.05-.05h.4m44.2 8.25.05.5v.2q-.1.15-.25.15-.3 0-.55-.15v-.7l.05-.2.1-.05h.4l.2.25m-10-2v.25l-.15.1q-.6.35-.9-.25l-.05-.2.2-.15.2-.05v-.05l.5.15.2.2m-.7 4.5-.3.2-.35-.2-.1-.2.1-.15.1-.05.25-.05h.15l.2.3-.05.15m2.95-2.9h.8v.05l-.1.2-.25.2h-.1l-.35-.15v-.3m.4 1.95-.1.15q-.85.45-1.25-.25l-.05-.25 1.25.1.15.25m5.15-3.15.15.5-.15-.25-.3-.25h.3m-3.2-.9-.3.25-.35-.25-.05-.2.1-.15.05-.05.25-.05h.2l.15.3-.05.15m.9 3.45.1-.05.55-.2.1.5-.1.5-.7-.05-.2-.2.05-.2.2-.3" fill="#676565" fill-rule="evenodd" transform="translate(57.6 51.8)"/><path d="M9.55-25.35-.4-23q-5.45 1.15-7.4-.85l-4.55-4.25q-2.55-2.25 1.1-2.45l9.35-.7q5.75-.55 8.7.2 2.9.75 5.05 2.6t-2.3 3.1m10.35 5.2 9.7.6q5.8 1 6.2 3.05.4 2.1-4.05 2.3-4.5.2-9.95 1.7-5.45 1.45-9.85.45-4.45-1-4.75-3.6-.3-2.65 4.3-3.35l8.4-1.15m13.3 13.8 10.05-.7q6.2-.55 8.3.5l4.6 2.6q2.55 1.5-1.9 2.75Q49.75 0 44.6 0l-9.8-.7q-4.7-.7-5.1-3.05-.4-2.4 3.5-2.6M-43.65-50.2q6.05 1.2 10.85.1 4.8-1.15 4.8.7 0 1.85-4.55 3.3l-10.2 3.45q-5.65 2-9.8-.75t-4.5-5.3q-.35-2.55 3.5-2.6 3.85-.1 9.9 1.1m39.6 10.8q0 1.85-4.45 3.1l-9.95 2.35q-5.45 1.15-9.85-.5-4.45-1.7-4.8-4.25-.35-2.55 3-3.55 3.35-1.05 9.4-1.95 6.05-.9 11.35 1.05 5.3 1.9 5.3 3.75" fill="none" stroke="#000" stroke-linecap="round" stroke-linejoin="round" transform="translate(57.6 51.8)"/></g><g id="f"><path d="m3.2-125.8-.2-.15-1.65-1.35v-.9H3l7.2 4q2.85 1.6 3.95 3.2l2.1 3q4.45 6.35 9.05 21.15l.15.5.05.5q0 1.35-4.35 1.35-4.6-15.45-10.6-24l-.4-.55-.7-1q-2.2-2.8-6.25-5.75M33.05-.15q-1.35-.3-1.65-1.2l-.15-10.2q-.7-20.35-3.95-44.65l-.6-4.45q.45.35 1.5.5l.05.1.1.75.6 4.45q3.25 24.3 3.95 44.65l.15 10.05" fill="#52703a" fill-rule="evenodd" transform="translate(38.55 141.4)"/><path d="M25.6-95.85q4.35 14.2 7.35 34.2l.2 1.4.65 4.55q3.25 24.3 3.95 44.65l.35 10.2v.3q-.9.55-3.4.55l-1.65-.15-.15-10.05q-.7-20.35-3.95-44.65l-.6-4.45-.1-.75-.05-.1 2.25.15 2.7-.25-2.7.25-2.25-.15q-1.05-.15-1.5-.5l-.1-.75q-2.9-19.2-6.9-33.1h1.45-1.45l-.5-1.6q-2.85-9.55-6.3-16.45-2.05-4.1-4.3-7.3l-.4-.55-.7-1q-1.65-2.1-4.3-4.4 4.05 2.95 6.25 5.75l.7 1 .4.55q6 8.55 10.6 24 4.35 0 4.35-1.35h.1m-4.25 2.7q4 13.85 6.85 33-2.85-19.15-6.85-33" fill="#466734" fill-rule="evenodd" transform="translate(38.55 141.4)"/><path d="m6.75-112.6 4.1.05v.65q-2.55 2.05-3.9 3.9l-.65.95q-1.4 2.15-3.5 6.25l3.5-10.45.45-1.35m-.2 0-.25.2q-2.9 2.4-4.8 4.8L-.2-105l-.2.4.2-.85 1.9-7.35 1.1-.05 3.5.25h.25m-5.5-.15-1.25 1.6q-1.8 2.6-3.8 7.45l-.35.95q-2.6 6.4-4.2 13.75l-.15.75h-.1l.15-.75 2.4-13.75.45-3.15v-1.65q-1.15 1.3-2.3 3.9l-.4.9-.55 1.35q-2.9 7.5-4.7 11.65.3-2.9 3.5-12.4l-4.55 2.9 2.85-3.5 1.5-2.15h-.35l-5.6 1.85-.8.3q-4.6 1.75-12 5.55l7.85-5.55.65-.45 3.25-2.35h-2l-3.5.9-7.35 1.9 7.35-2.8 7.5-2.75 2.1-.75 4.2-1.5h-4l-.2.2-.4.1-2.45.05-1.7-.05h-4.55l.35-.3 8.75-1.35 11.25-1.35-11.25 1.35-8.75 1.35-.35.3-.05.05h-.45l-4.05.15-3.45.15.3-.35L-27-111l4.05-.8-.5.6-.2.3.7-.75.15-.15-.05-.05 3-3.55 6.5-7.95 1.3-1.65.1-.15.75-1.25-2.15 1-1.8 1.2-1.95 1.5-5.85 4.65q-2 1.5-3.55 2.65l-.5.4.3-.4 3.75-3.9 5.2-4.7h.1l.15-.25-.25.25h-2.45l-2.75.25-.2.05.2-.1 2.75-1.05q1.9-.75 3.65-1.6l-.3-.15-3.35-.75-2.45-.45-.3-.05-4.05-.55-9.65-.75 9.65-.9.75-.05 3.3-.3.65-.1-.65-.35-1.1-.65-2.95-.85-7.85-2.15 7.85 1.25 4.05.7 2.75.5 6.85 1.25.75.1-3.45-2q-.15.2-.7 0l-2.15-1.2-1.3-.8-.15-.1-.8-.5-3.15-1.75.5-.1 3.6 1.3-3.6-1.3-.5.1-.1-.05-2.6-1.4-4.4-2.25.45-.15 3.95 1.2 4.35 1.5 2.45.9 5.15 2 1.7.8 1.7.85 6.5 4.15 2.7 1.85v.1l-.2.05q-3.4-1.55-6.3-2.05 2.9.5 6.3 2.05-3.35 1-8.9 5.35l-1.8 1.4-6 5.35-3.45 3.6 1.2-.25 8.25-1.3 3.55-.25 7.7.35 1.9.15 1.35.1.05.1-.15.15-1.25.15 1.25-.15M-1.1-126.7l.9.6 2.2 1.45-2.2.45q-2.6.55-4.65 1.4-1.7.65-3.2 1.65l5.95-6.05 1 .5m.9 4.3 2.4-2.15 3.5 2.15-.3.55q-3.25.5-5.35 1.45l-.25.1-6.95 4.05 6.95-6.15m-5.2 11 5.2-1.2-5.2 1.2q-.95 0-1.8.8h-.05.05q-1.05.95-1.85 2.85 2.4-1.8 3.25-3.5l.4-.15m-4.4 8.65v-3.15l.75-1.85-.75 1.85v3.65h.35l.45-.5-.45.5h-.35v-.5m1.7-.9-.9.9.9-.9m7-7.25-4.7 4.85 4.7-4.85m-24.45-18.5-.7-.7.7.7 2.6.8 2.75.35 2.25.15 4-.15-1.55 1.25-1.8 3.2.3.15 1.85-.55-1.85.55-.3-.15 1.8-3.2 1.55-1.25.6-.05q2.55-.4 4-1.3l.4.05-1.95-.2h-.05l-2.4.1-6.85.25h-5.35m6.75-5.9 5.45 2.3 8.2 3.5-8.2-3.5-5.45-2.3-1.4-.55 1.4.55m13.35 8.35-6.5 1.8 6.5-1.8m-4.8 24.8.1-.1v-.3l-.1.4m-10.45-1.05q.6.3 1 .25 2.75-.3 7.2-2.7 2-1.1 3.45-2.1-1.45 1-3.45 2.1-4.45 2.4-7.2 2.7-.4.05-1-.25m1 .25q6.3-3.55 12.45-7.65-6.15 4.1-12.45 7.65" fill="#758e3e" fill-rule="evenodd" transform="translate(38.55 141.4)"/><path d="m3.2-125.8-.2-.15-1.65-1.35v-.9H3l7.2 4q2.85 1.6 3.95 3.2l2.1 3q4.45 6.35 9.05 21.15l.15.5.15.5q4.35 14.2 7.35 34.2.8.05.8.9 0 .3-.6.5l.65 4.55q3.25 24.3 3.95 44.65l.35 10.2v.3q-.9.55-3.4.55l-1.65-.15q-1.35-.3-1.65-1.2l-.15-10.2q-.7-20.35-3.95-44.65l-.6-4.45-.1-.75q-2.9-19.2-6.9-33.1l-.25-.05q-.7-.25-.25-1.55-2.85-9.55-6.3-16.45m-5.4-8.85q-1.65-2.1-4.3-4.4m17.95 31.3q4.35 0 4.35-1.35l-.05-.5M7.5-121.4l.7 1 .4.55q2.25 3.2 4.3 7.3m8.25 18.05H19.7l-.5-1.6m7.5 35.45q.45.35 1.5.5m4.95-.1-.2-1.4m.2 1.4-2.7.25-2.25-.15" fill="none" stroke="#3c3c3c" stroke-linecap="round" stroke-linejoin="round" transform="translate(38.55 141.4)"/><path d="m12.9-112.55-6.05-.3-.1.25 4.1.05v.65q-2.55 2.05-3.9 3.9l-.65.95m0-4.2.45-1.35h-.2l-.25.2M-8.55-89l-.15.75-.1.35v-.35l.15-.75M2.4-124.7l-2-1.2-.6-.3m0 .1 2.2 1.45.4-.05 5.1 3.3M2-124.65l.2.1.2-.15m-2.6 4.4.25-.1q2.1-.95 5.35-1.45l.3-.55-3.5-2.15-2.4 2.15m6.5 9.55h.55v-.05.05l-.3.25H6.3m-6.5-11.6 2.2-.45m-29 2.2-3.05.85-.7.35.1-.2.6-.15 2.9-1.2.15-.05" fill="none" stroke="#3e4738" stroke-linecap="round" stroke-linejoin="round" transform="translate(38.55 141.4)"/><path d="M3.2-125.8q4.05 2.95 6.25 5.75l.7 1 .4.55q6 8.55 10.6 24m7.05 34.35q-2.85-19.15-6.85-33m6.85 33 .05.1.1.75.6 4.45q3.25 24.3 3.95 44.65l.15 10.05" fill="none" stroke="#373f32" stroke-linecap="round" stroke-linejoin="round" transform="translate(38.55 141.4)"/><path d="M6.3-107.05q-1.4 2.15-3.5 6.25l-.6 1.55-.35.35.95-1.9 3.5-10.45m0-1.15q-2.9 2.4-4.8 4.8L-.2-105m-.7 2.25-1.85 7.1-.05.4v-.3l.05-.1q.25-3.9 1.5-7.1m1.05-2.7 1.9-7.35-.65.05-1.25 1.6m-4.15 8.4q-2.6 6.4-4.2 13.75m-.1 0 2.4-13.75m-2.25 0-.55 1.35q-2.9 7.5-4.7 11.65l-.05.5-.2.05.25-.55q.3-2.9 3.5-12.4l-4.55 2.9-4.9 5.3-.45.65v-.25l.45-.4q1.95-2.95 4.9-5.3l2.85-3.5m-5.25 0q-4.6 1.75-12 5.55l-.95.65h-.3l1.25-.65 7.85-5.55m-1.6-1.9-7.35 1.9-1.15.5h-.35l1.5-.5 7.35-2.8m0-4.65-4.05.15-3.45.15.3-.35L-27-111l4.05-.8-.5.6-.2.3.7-.75m0-6.4q-2 1.5-3.55 2.65l-.5.4-.3.45-.2-.1.5-.35m28.7 2.2.05-.15-.45-.05-.1.1-.15.15-1.25.15m-9.6 9.85v.5h.35l.45-.5M1.15-113h.15l.25-.25.3-.35-.1.65 1.05.1 1.7-.05 1.8.05m0 .25-3.5-.25-1.1.05m-.55-.2-1.35-.1m-18.6-22.2-1.4-.55m5.15.55-5.15-2m-2.75 18-3.75 3.9-.3.4m1.05-7.8-1.05.35m16.75 20.3.1-.1v-.3l-.1.4" fill="none" stroke="#4d5645" stroke-linecap="round" stroke-linejoin="round" transform="translate(38.55 141.4)"/><path d="m-22.95-132.55-4.05-.7-7.85-1.25 7.85 2.15 2.95.85 1.1.65m0 .45-3.3.3.7.7h2.6m2.75-6.45-3.6-1.3-.5.1 3.15 1.75m.95-2-2.45-.9-4.35-1.5-3.95-1.2-.45.15 4.4 2.25 2.6 1.4.1.05q1.45.85 3.1 1.75m-1.75 6.7-2.6-.8m2.6 5.6-.2.1.2-.05m-13.7-5.4-1.4-.05.25.15 1.15-.1 9.65-.9.75-.05m-8.6-4.4-1.55-.3.35.15 1.2.15m-1.8 5.35 9.65.75 4.05.55m-4.05 5 3.85-.85-2.8.9" fill="none" stroke="#545f4b" stroke-linecap="round" stroke-linejoin="round" transform="translate(38.55 141.4)"/><path d="m-.2-105-.2.4-.5 1.85m-.35 0 .85-1.85.2-.85m0-5.7q-1.8 2.6-3.8 7.45l-.35.95m-1.9 0 .45-3.15v-.15l-2.3 2.4-.4.9m-3.45 0 1.5-2.15h-.35l-5.6 1.85-.8.3m-4.15 0 .65-.45 3.25-2.35h-2l-3.5.9m0-.9 7.5-2.75 2.1-.75 4.2-1.5h-4l-.2.2-.4.1-2.45.05-1.7-.05-4.6.05h-.45m0-1.6.1-.05 3-3.55 6.5-7.95 1.3-1.65.1-.15-1.4.4-1.8.55-1.95 1.5-5.85 4.65M-.2-126.2l-.9-.5.9.6m0 3.7-6.95 6.15 6.95-4.05m0 7.7-5.2 1.2-.4.15q-.85 1.7-3.25 3.5l-.75 1.85v3.15m.8 0 .9-.9q1.15-2.6 2.3-3.9v1.5l4.7-4.85m.9-2.2-1.9-.15-11.25 1.35-8.75 1.35-.35.3h4.55m-3.25-25.05.8.5.15.1 1.3.8 2.15 1.2q.55.2.7 0l3.45 2-.75-.1-6.85-1.25-2.75-.5m0 1.7.65.35-.65.1m0 1h2.75l6.85-.25 2.4-.1h.05l1.95.2q2.9.5 6.3 2.05l.2-.05.1-.05-.1-.05-2.7-1.85-8.2-3.5-5.45-2.3m13.65 5.8-6.5-4.15-1.7-.85-1.7-.8m1.1 7.05-4 .15-2.25-.15-2.75-.35m0 4.85 2.75-.25h2.45l.25-.25-.15.25h-.1l-5.2 4.7m0-8.55.3.05 2.45.45 3.35.75.3.15q-1.75.85-3.65 1.6l-2.75 1.05m7.8-.4-1.85.55-.3-.15 1.8-3.2 1.55-1.25.6-.4q1.35-.85 2.45-1.1l1.55.15.4.05m-5 1.3.6-.05q2.55-.4 4-1.3m-5.8 5.4 1.8-1.2 2.15-1-.75 1.25 6.5-1.8m2.8-.55.55.3.1-.1-.35-.3.35-.05.45-.15-.45.5.9.6-1-.5-5.95 6.05q1.5-1 3.2-1.65 2.05-.85 4.65-1.4m-21-11.1.85.5m-2.45 23 3.45-3.6 6-5.35 1.8-1.4q5.55-4.35 8.9-5.35m-20.15 15.7 1.2-.25 8.25-1.3 3.55-.25 7.7.35m-20.85 1.6.15-.15h-.15m15.8-4.45-1.3.85-.45.3.45-.1.25-.2q.35-.25 1.05-.85m-.9-4.9-5.3 5.35-.4.4-.8.8-.2.35.15-.25.05-.1.55-.8.65-.85q2.4-3.05 5.3-4.9m-1 13.4q-1.45 1-3.45 2.1-4.45 2.4-7.2 2.7-.4.05-1-.25m13.45-7.4h.05q.85-.8 1.8-.8m-.4.15-1.4.65q-1.05.95-1.85 2.85m1.8-2.85q-6.15 4.1-12.45 7.65" fill="none" stroke="#555e4d" stroke-linecap="round" stroke-linejoin="round" transform="translate(38.55 141.4)"/></g><g id="g"><path d="m-62.7-52.55 5.5-2.75L-29-41.15l-5.45 2.7-28.25-14.1M12.15-90.1l4.8-2.4 24.1 12.05.45.25 3.7 1.85-4.8 2.4L12.15-90.1m34.2 24.35q2.6 1.3 5.25 2.65l2.1 1.1-4.8 2.4-8.4-4.25v-.1l4.75-2.35 1.1.55m8.5 16.95 7.25 3.65.6.3-4.85 2.45-8.9-4.5v-.1l4.75-2.35q.55.3 1.15.55m-89.3 22.4 5.5-2.75.05.1q4.2 2.1 8.4 4.25l-5.45 2.7-8.5-4.25v-.05m13.95 14.2.05.1 8.9 4.45Q-14.3-6.25-17-4.9l-.2-.35-8.55-4.3 5.25-2.65" fill="#8d8d8d" fill-rule="evenodd" transform="translate(63.2 93)"/><path d="M45.25-68.5v2.2l-4.75 2.35-69.4 34.8h-.05l-5.5 2.75v-2.2l5.55-2.75v2.2-2.2l69.4-34.8v2.2-2.2l4.75-2.35m8.45 17.15v2L48.95-47v-2 2l-69.4 34.8h-.05l-5.25 2.65-.2-.05v-1.85l5.5-2.75v2-2L48.95-49l4.75-2.35" fill="#555" fill-rule="evenodd" transform="translate(63.2 93)"/><path d="m-62.7-52.55 28.25 14.1v12.1l8.5 4.25v12.5l.2.05 8.55 4.3-.05.35-.15 4.9q-21.45-10-45.3-23.05v-29.5m107.9-25.8.05-.05v.05h-.05" fill="#666" fill-rule="evenodd" transform="translate(63.2 93)"/><path d="m-34.45-38.45 5.45-2.7.05.05.05 9.75-.05-9.75-.05-.05Q5.7-56.6 40.4-75.95l.05.05.05 9.75-.05-9.75-.05-.05 4.8-2.4h.05v9.85l-4.75 2.35-69.4 34.8-5.55 2.75v-9.85M53.7-62v10.65L48.95-49v-10.55l-.05-.05.05.05V-49l-69.4 34.8v-10.55l-.05-.05 69.4-34.8 4.8-2.4m9 17.15-.2 4.9-4.75 2.35-69.4 34.85-5.2 2.6-.55.15.15-4.9h.25q2.7-1.35 5.45-2.75l.1.05-.2 4.85.2-4.85-.1-.05 65.25-32.7h.05l4.1-2.05h.1l-.2 4.8.2-4.8h-.1l4.85-2.45M-25.95-22.1l5.45-2.7.05.05v10.55l-5.5 2.75V-22.1M45.2-78.35l.05 2.75-.05-2.75" fill="#636363" fill-rule="evenodd" transform="translate(63.2 93)"/><path d="M-29-41.15-57.2-55.3l69.35-34.8L40.4-75.95Q5.7-56.6-29-41.15M51.6-63.1l2.1 1.05h.05l-.05.05-2.1-1.1m10.5 17.95.55.3h.05l-.6-.3m-91.05 16h.05v.1l-.05-.1m8.45 4.35q-4.2-2.15-8.4-4.25v-.1l69.4-34.8v.1l8.4 4.25-69.4 34.8m0 12.6h.05v.1-.1L48.95-47v.1l8.9 4.5-4.1 2.05h-.05l-65.25 32.7-8.9-4.45-.05-.1" fill="#838383" fill-rule="evenodd" transform="translate(63.2 93)"/><path d="m-57.2-55.3-5.5 2.75 28.25 14.1 5.45-2.7-28.2-14.15 69.35-34.8 4.8-2.4 24.1 12.05.45.25 3.7 1.85.05-.05v.05m0 2.75v9.3l1.1.55q2.6 1.3 5.25 2.65l2.1 1.1-4.8 2.4.05.05V-47l-69.4 34.8h-.05m74.2-49.85h.05l-.05.05v12.65q.55.25 1.15.55l7.25 3.65m.55.3h.05l-.2 4.9-4.75 2.35-69.4 34.85-5.2 2.6-.55.15q-21.45-10-45.3-23.05v-29.5m28.25 14.1v12.05l5.5-2.75h.05v-2.2l-.05-9.75-.05-.05Q5.7-56.6 40.4-75.95L12.15-90.1M40.5-66.15l-.05-9.75-.05-.05 4.8-2.4M-34.45-26.4v.05l8.5 4.25 5.45-2.7q-4.2-2.15-8.4-4.25m0-.1v.1m8.45 14.85v-10.55l-.05-.05 69.4-34.8-8.4-4.25v-.1l-69.4 34.8m2.95 17.7V-22.1m5.5 10v-2.1m-5.5 2.75v1.85l.2.05 5.25-2.65m8.95 4.55.1.05-.2 4.85M-17-4.9l-.2-.35-.05.35-.15 4.9m.4-4.9q2.7-1.35 5.45-2.75l-8.9-4.45m3.25 6.85-8.55-4.3m71-66.05-.05-2.75m.05 12.05-4.75 2.35v-2.2M48.95-47v.1l8.9 4.5 4.85-2.45-.6-.3m-4.25 2.75-4.1 2.05h-.05l-65.25 32.7m69.3-29.95.2-4.8h-.1m-8.9-4.6 4.75-2.35" fill="none" stroke="#353535" stroke-linecap="round" stroke-linejoin="round" transform="translate(63.2 93)"/></g><g id="h"><path d="m12.55-46.8-.7-.2q.35-1.9 2.55-2.9 1.75-.8 3.4-.8.55 0 .9.35l.5.65-.35 2.15-.4.35q-1.2.9-3.35.9-1.4 0-2.55-.5M2.1-42.4l-.7-.2q.35-1.9 2.55-2.9 1.75-.8 3.4-.8.55 0 .9.35l.5.65-.35 2.15-.4.35q-1.2.9-3.35.9-1.4 0-2.55-.5m0 16.8.5.2.6.15.95.15h.3v16.8L3-8.5l-.9-.3v-16.8m10.95-4.2.6.15.95.15h.3v16.8l-1.45-.2q-.5-.1-.9-.3V-30l.5.2" fill="#8c7a48" fill-rule="evenodd" transform="translate(-.9 51.2)"/><path d="M12.55-46.8q1.15.5 2.55.5 2.15 0 3.35-.9l.4-.35v16.8l-.4.35q-1.2.9-3.35.9h-.2.2q2.15 0 3.35-.9l.4-.35v13.8l.35.8q.45 1.65-.75 2.55-1.2.9-3.35.9h-.2v-16.8h-.3l-.95-.15-.6-.15-.5-.2v-16.8M2.1-42.4q1.15.5 2.55.5 2.15 0 3.35-.9l.4-.35v16.8L8-26q-1.2.9-3.35.9h-.2.2Q6.8-25.1 8-26l.4-.35v13.8l.35.8Q9.2-10.1 8-9.2q-1.2.9-3.35.9h-.2v-16.8h-.3l-.95-.15-.6-.15-.5-.2.5.2-.5-.2v-16.8m10.95 12.6-.5-.2.5.2" fill="#96834b" fill-rule="evenodd" transform="translate(-.9 51.2)"/><path d="m18.85-47.55.35-2.15-.5-.65q-.35-.35-.9-.35-1.65 0-3.4.8-2.2 1-2.55 2.9l.7.2q1.15.5 2.55.5 2.15 0 3.35-.9l.4-.35q.7-.85.35-2.15M8.4-43.15l.35-2.15-.5-.65q-.35-.35-.9-.35-1.65 0-3.4.8-2.2 1-2.55 2.9l.7.2q1.15.5 2.55.5 2.15 0 3.35-.9l.4-.35q.7-.85.35-2.15M2.1-25.6l.5.2m-.5-2.1v1.9m0-1.9v-14.9m2.35 17.3h.2Q6.8-25.1 8-26l.4-.35v-16.8m-5.2 17.9.95.15h.3m0 16.8h.2Q6.8-8.3 8-9.2q1.2-.9.75-2.55l-.35-.8v-13.8q.9-1.15 0-3m4.15-.65v-3.2m0-.05V-46.8m1.1 17.15.95.15h.5q2.15 0 3.35-.9l.4-.35v-16.8M12.55-30l.5.2m-.5.9v15.7q.4.2.9.3l1.45.2m-2.35-16.2V-30m6.3-3.75q.9 1.85 0 3v13.8l.35.8q.45 1.65-.75 2.55-1.2.9-3.35.9h-.2M2.1-24.5v15.7l.9.3 1.45.2M2.1-24.5v-1.1" fill="none" stroke="#555e4d" stroke-linecap="round" stroke-linejoin="round" transform="translate(-.9 51.2)"/><path d="m2.6-25.4-.5-.2-.1-.05q-.55-.15-.55-.9t.65-.95m.5 2.1.6.15m9.35-6.65q-.65.2-.65.95t.55.9l.1.05.5.2.6.15m-.2 16.75-1.3-.3.4-1.35M3-8.5q-.35.1-1.3-.3l.4-1.35" fill="none" stroke="#555e4d" stroke-linecap="round" stroke-linejoin="round" transform="translate(-.9 51.2)"/></g><g id="i"><path d="M7.75-23.95v20L-8.1 3.95l-.15-19.9-6.8 3.4L-.4-34.9h.05q7.55 3.75 15.05 7.45l-6.95 3.5" fill="#fc6" fill-opacity=".6" fill-rule="evenodd" transform="translate(15.55 35.4)"/><path d="m7.75-23.95 6.95-3.5Q7.2-31.15-.35-34.9H-.4l-14.65 22.35 6.8-3.4.15 19.9 15.85-7.9v-20Z" fill="none" stroke="#f60" stroke-linecap="round" stroke-linejoin="round" stroke-opacity=".6" transform="translate(15.55 35.4)"/></g><g id="j"><path d="m5.65-54.6.05-.05 2.95-.25 2.55.2 8.6 4.3 2.4 1.8.5.5.9 1.45 4.3 30.6.25 1.75-1.45.75Q13-7.1-.7-.7l-4.5-31.15-.05-.4 1.65-2.9.8-.4-.8.4-1.65 2.9-.3-1.95-2.2-1.1h-.05l-19.15-9.3.2-.2h-.2l3.45-3.05 12.45-6.25h.05v-.15H4.3l1.35-.35M8.4-11.2q.4-.45-.05-.4l-1.05.35.05 1L7.1-7.8l1.1-.15.2-2.3v-.95m5.15-2.65-.65-4.55 1.3-.65.2 1.4q.25 1.85-.85 3.8m-1.2-1.25-1.6-1.5-.8.85.6.65-2.1 1.4 2.15-4.65q.4-.15.15-.25l-.9-.25L8.5-15.9l-.85-.25 1.4-3.1q.45-.2.15-.3l-.95-.1-1.45 3.4-.4-.1-.5 1.1 2.05.65-.75 1.5-1 .55.4 1.15q.2.05.25-.3L8.8-13l.75 5.45 1.05-.55-.75-5.6 1.2-.85.3.5 1-1.05m-.4 2.1-.3-.55-.95.75.8 2.3 1-.8-.55-1.7m3.4-6.65 1.6-.85.5 3.5q-.85-.75-1.9-1l-.2-1.65m2.45-2.2-2.6 1.35-.3-2.2q.3-.45-.15-.25l-1 .5.35 2.55-2.2 1.1 1.3 9.3.85-.5-.5-3.7.9.3q.8-1.45 1-3.25.8.3 1.8 1.4l.3-1 .4 2.8-.15.25-.95.5.25.95 1.3-.7.5-.55.05-.6-1.15-8.25M9.75-30.5l-2.2 1.15.1.8 2.2-1.15.15.95-3.95 2.05.15.8 3.9-2 .25 1.9 1.15-.55-.3-1.95 3.9-2.05-.1-.8-3.9 2-.1-.9 2.15-1.15-.15-.85-2.15 1.15-.15-1q.3-.55-.1-.3l-1.05.55.2 1.35m-1-2.3.35-1.1 1.55-.8.55.65-2.45 1.25m5.9-5.85-.15-1.05-4.85 2.55.05-1 .15-.35-1.05.45-.2 1.45-4.35 2.25.15 1 4.1-2.1-.2 1.1-2.95 1.55.1.8 2.5-1.3-.4 1.15-3.4 1.75.15 1L7-30.8l-1.3 1.95-1.45 1.8.75.7.7-.85q1.65-2.1 2.65-4.3l3.7-1.95q1.6.95 4.2.95l.3-1.3-3.3-.25 2.7-1.4-.15-1-3.4 1.75-.6-.6 2.45-1.3-.1-.8-4.85 2.5.25-1.1 5.1-2.65m12.05 25.1q1.1-.7 1.2-2.5-.1 1.8-1.2 2.5m-4-34.55Q9.95-41.8-2.8-35.55l-4.95.25 4.95-.25Q9.95-41.8 22.7-48.1" fill="#757575" fill-rule="evenodd" transform="translate(28.7 55.4)"/><path d="M14.65-38.65 9.55-36l-.25 1.1 4.85-2.5.1.8-2.45 1.3.6.6 3.4-1.75.15 1-2.7 1.4 3.3.25-.3 1.3q-2.6 0-4.2-.95l-3.7 1.95q-1 2.2-2.65 4.3l-.7.85-.75-.7 1.45-1.8L7-30.8l-2.7 1.4-.15-1 3.4-1.75.4-1.15-2.5 1.3-.1-.8 2.95-1.55.2-1.1-4.1 2.1-.15-1L8.6-36.6l.2-1.45 1.05-.45-.15.35-.05 1 4.85-2.55.15 1.05m-5.9 5.85 2.45-1.25-.55-.65-1.55.8-.35 1.1m1 2.3-.2-1.35 1.05-.55q.4-.25.1.3l.15 1L13-32.25l.15.85L11-30.25l.1.9 3.9-2 .1.8-3.9 2.05.3 1.95-1.15.55-.25-1.9-3.9 2-.15-.8L10-28.75l-.15-.95-2.2 1.15-.1-.8 2.2-1.15m8.05 8.65 1.15 8.25-.05.6-.5.55-1.3.7-.25-.95.95-.5.15-.25-.4-2.8-.3 1q-1-1.1-1.8-1.4-.2 1.8-1 3.25l-.9-.3.5 3.7-.85.5-1.3-9.3 2.2-1.1-.35-2.55 1-.5q.45-.2.15.25l.3 2.2 2.6-1.35m-2.45 2.2.2 1.65q1.05.25 1.9 1l-.5-3.5-1.6.85M11.95-13l.55 1.7-1 .8-.8-2.3.95-.75.3.55m.4-2.1-1 1.05-.3-.5-1.2.85.75 5.6-1.05.55L8.8-13l-1.95 1.3q-.05.35-.25.3l-.4-1.15 1-.55.75-1.5-2.05-.65.5-1.1.4.1 1.45-3.4.95.1q.3.1-.15.3l-1.4 3.1.85.25 1.35-2.95.9.25q.25.1-.15.25L8.45-13.7l2.1-1.4-.6-.65.8-.85 1.6 1.5m1.2 1.25q1.1-1.95.85-3.8l-.2-1.4-1.3.65.65 4.55M8.4-11.2v.95l-.2 2.3-1.1.15.25-2.45-.05-1 1.05-.35q.45-.05.05.4" fill="#ae1111" fill-rule="evenodd" transform="translate(28.7 55.4)"/><path d="m-3.05-1.05-24.25-12.2h-.05l-.85-.4v-28.2q.1-1.3.9-2.35l.35-.4 19.15 9.3h.05l2.2 1.1.3 1.95.05.4-2.55-3.45 2.55 3.45L-.7-.7l-2.35-.35M-28.2-15.3q.15 1.6.85 2.05-.7-.45-.85-2.05" fill="#585858" fill-rule="evenodd" transform="translate(28.7 55.4)"/><path d="M-11-54.25H4.3l1.35-.35" fill="none" stroke="#2f2f2f" stroke-linecap="round" stroke-linejoin="round" transform="translate(28.7 55.4)"/><path d="m5.65-54.6.05-.05 2.95-.25 2.55.2 8.6 4.3 2.4 1.8.5.5.9 1.45 4.3 30.6q-.1 1.8-1.2 2.5Q13-7.1-.7-.7q-.6.5-2.35-.35l-24.25-12.2h-.05q-.7-.45-.85-2.05v-26.55q.1-1.3.9-2.35l.35-.4v-.2l3.45-3.05 12.45-6.25h.05m-15.95 9.5 19.15 9.3h.05l4.95-.25Q9.95-41.8 22.7-48.1M-5.25-32.25l1.65-2.9.8-.4m-4.95.25 2.55 3.45-.05-.4m-21.7-12.35.2-.2h-.2M-5.2-31.85-.7-.7" fill="none" stroke="#2b2b2b" stroke-linecap="round" stroke-linejoin="round" transform="translate(28.7 55.4)"/></g><g id="k"><path d="m10-32.4-.15-.1-.2-.05H9.5l-.15.1-.05.05-.1.1v1.2l-.1.1-.05.1v.1l-.05.15v.3l-.05.1v1.5l-.15 1v.1l-.05.2v.2l-.05.1-.05.1-.1.05-.05.1v.1l-.05.1v.9l.1.1.15.1.1.05.05.2.35.35.3.3.25.05.3-.05.1-.05.1-.1.05-.05.05-.1v-.65l-.05-.1-.05-.1.15-.2.05-.1v-.25l.05-.1.1-.1v-.45l.05-.1.05-.1v-1.8q.25 2.75-.35 4.75l.1.25.5 1.35-.05-.05-.15-.05-.2.05-.1.1v.35l-.05.1-.05.1v.35l-.05.1-.15.2-.05.1v.1l-.05.05-.1.15-.1.05-.05.1-.05.1-.3.3-.25.25v.4l.1.1.2.05.15-.05.1-.1.4-.45.55-.6.05-.15.15-.3.05-.2v-.25l.05-.1v-.1l.05-.1v-.25L12.5-18q.4 1.45 2.05 2.5 1.45.9 1.45 2.15 0 1.3-1.4 2.85l-1.4 1.7-.05.05L11-8.6q-.9-.25-1.9-.65-2.5-.95-5.7-2.8-4.7-2.7-6.6-5.4l-.2-.3q-1.1-1.7-1.1-3.35l.25-2.4q.6-3.9 5-11.75l.55-.1.55 2.85-.05-.05-.05-.1-.15-.1-.2-.05h-.3l-.1.05-.05.05-.1.1-.05.1v.1l-.05.1-.05.1v.15l-.1.2-.1.2-.05.1v.15l-.05.1v.1l-.05.1-.05.1-.05.1-.05.1v.15l-.15.3-.2.4-.1.15v.1l-.05.1-.1.1-.05.1v.1l-.05.05v.2l-.05.1v.2l-.05.1v.05l-.1.1v.1l-.05.1v.2l-.05.1v.25l-.1.1-.05.1-.05.1v.4l-.05.1v.45l-.05.1-.1.1-.05.05v.75l.05.3.15.2v.35l.55.5.5.45 2.7.05.1-.1.05-.1.1-.1v-.3l-.05-.05-.05-.1-.15-.1h-.05v-1.95 1.95l-.15-.05h-.1l.05-.1v-1.25L2.4-26l-.05-.05v-1.8l-.05-.2-.1-.2v-.25l.05-.95-.15-.65-.05-.1-.15-.1-.05-.1v-.15l.05-.85-.1-.6-.05-.05.1-.15v-.1l.15.95.05.15v.1l.1.6.5 4.05q4.55-1.35 5.45-4.2L8.5-36q.9 1.4 1.5 3.6m.7 3.25-.05-.1-.05-.05v-.65l.05.4.05.4m-.35-1.55-.1-.15-.05-.05-.05-.1v-.1l-.05-.1v-.2l.05-.4.2 1.1m-4.6 11.05-.1-.1L4.9-20l-1.15-.4-.45-.3-.35-.15-.05-.05-.25-.2-.25-.05-.25.1-.05.1v.2l.05.1.2.2.15.15.2.1.1.1.2.05.2.05v.05l.1.1.45.15.8.35.5.1.2.05h.25l.2-.1.05-.1.05-.1v-.05l-.05-.1M.05-13.2l.05.05v.1l.2.2.3.3.1.15.15.2.1.1.05.1.1.1v.1l.1.05.25.3.4.4.05.1.05.05.1.2.05.1.05.1.1.1.05.1.05.15.15.3.1.1v.2l.1.05.05.1.05.1.05.1.1.1.15.2.15.15.1.1.05.1.05.1.05.1.1.1v.1l.05.1v.15l.05.2.05.1.1.1v.65l.05.1v.1l.05.1v5.05l.05.1.05.1.05.05q.15.2.45.25l.4.1.15.05.1.1.25.1H6.6l.15-.05.15-.05.2-.05.4-.25.45-.35.9-.5.6-.4.05-.1.05-.05.15-.2.05-.1.1-.1.1-.1v-.1l.05-.1v-.1l.05-.05.1-.1.1-.1.2-.15.05-.05.15-.05.2.1.15.1.05.1.05.05v.3l-.05.2-.2.35-.1.2-.15.2-.25.35-.3.3-.4.35L8.5-.5l-.85.6-.3.05-.3.1-.1.05-.05.05Q5.55.6 4.35-.05l-.45-.1-.2-.05-.15-.1-.1-.1-.2-.15-.05-.1-.05-.1-.05-.1-.05-.1L3-3v-3.3l-.05-.1v-.25l-.05-.2v-.2l-.1-.1v-.1l-.05-.05v-.1l-.05-.2-.15-.4-.05-.05-.15-.2-.4-.4v-.1l-.1-.15-.2-.4-.1-.1-.1-.25-.2-.4-.15-.25-.15-.2-.4-.4L.5-11v-.05l-.15-.2-.4-.4-.05-.05-.05-.1-.15-.2-.4-.4-.1-.15-.15-.3-.05-.1-.2-.2-.35-.35-.1-.1-.05-.1-.05-.1-.5-.55-.3-.4V-15l.05-.1.1-.1.1-.05.05-.05H-2l.2.05.15.1.05.1.05.05.15.1.15.1.05.05.2.2.05.1.05.1.35.35.4.5v.1l.15.1.05.1m-4.4-2.2q0 .6 1.35 2.05l1.75 1.85q2.3 2.05 2.4 2.5l.6 2.75q.4 3.05.3 6.05.3 1 2.2 1.3l-.1.55q.3 1.05 2 2.75 0 2.1-3.05 2.1-2.15 0-2.65-.9l-.5-2.5-.2-.95q-.5-2-1.7-4.45-1.5-3.1-1.3-4.05-.2.95 1.3 4.05Q-.75.15-.25 2.15q-1 1-3 1.85h-.25v.25q0 1.3-.35 1.5l-2.05.15-2.5-.3-6.6-2.85q-5.25-2.3-5.25-6 0-1.8 1.25-3.65l2.75-3.35q4-4.9 4-11 0-3.05-1.2-7.85v-.15h.6q3.75 0 6.15 7.15 1.65 4.95 1.6 7.85l.6-1.2.15.05M6.8 1.2Q8.2 1 9.75-.35h.05l.7 3V3.9q-.8.75-1.35.75-.7 0-1.25-.75L6.8 1.2M-9.25 2.75q-4.4-.95-5.25-4 4.8-4.7 8.85-12l.55-1-.55 1q-4.05 7.3-8.85 12 .85 3.05 5.25 4m-1.35-3.5q1.75-2 3.4-2 .75 0 1 1.35l.7 2.55q1.9.4 2 2.85-.1-2.45-2-2.85l-.7-2.55q-.25-1.35-1-1.35-1.65 0-3.4 2" fill="#fff" fill-rule="evenodd" transform="translate(20.75 36.5)"/><path d="M-3.2-17.45q1.9 2.7 6.6 5.4 3.2 1.85 5.7 2.8 1 .4 1.9.65-.5.65-.5 1.15 1.15 3.05 1.15 3.9 0 1.6-1.85 3.2h-.05Q8.2 1 6.8 1.2l-.55.05-2-.15Q2.35.8 2.05-.2q.1-3-.3-6.05L1.15-9q-.1-.45-2.4-2.5L-3-13.35q-1.35-1.45-1.35-2.05l.1-.55.75-1.6.3.1M.05-13.2 0-13.3l-.15-.1v-.1l-.4-.5-.35-.35-.05-.1-.05-.1-.2-.2-.05-.05-.15-.1-.15-.1-.05-.05-.05-.1-.15-.1-.2-.05h-.25l-.05.05-.1.05-.1.1-.05.1v.25l.3.4.5.55.05.1.05.1.1.1.35.35.2.2.05.1.15.3.1.15.4.4.15.2.05.1.05.05.4.4.15.2v.05l.05.1.4.4.15.2.15.25.2.4.1.25.1.1.2.4.1.15v.1l.4.4.15.2.05.05.15.4.05.2v.1l.05.05v.1l.1.1v.2l.05.2v.25l.05.1V-3l.05 2.05.05.1.05.1.05.1.05.1.2.15.1.1.15.1.2.05.45.1q1.2.65 2.55.4L6.95.3l.1-.05.3-.1.3-.05.85-.6 1.15-.65.4-.35.3-.3.25-.35.15-.2.1-.2.2-.35.05-.2v-.3l-.05-.05-.05-.1-.15-.1-.2-.1-.15.05-.05.05-.2.15-.1.1-.1.1-.05.05v.1l-.05.1v.1l-.1.1-.1.1-.05.1-.15.2-.05.05-.05.1-.6.4-.9.5-.45.35-.4.25-.2.05-.15.05-.15.05H5.45l-.25-.1-.1-.1-.15-.05-.4-.1q-.3-.05-.45-.25l-.05-.05L4-1.4l-.05-.1v-5.05l-.05-.1v-.1l-.05-.1v-.65l-.1-.1-.05-.1-.05-.2v-.15l-.05-.1v-.1l-.1-.1-.05-.1-.05-.1-.05-.1-.1-.1-.15-.15-.15-.2-.1-.1-.05-.1-.05-.1-.05-.1-.1-.05v-.2l-.1-.1-.15-.3-.05-.15-.05-.1-.1-.1-.05-.1-.05-.1-.1-.2-.05-.05-.05-.1-.4-.4-.25-.3-.1-.05v-.1L1-12l-.05-.1-.1-.1-.15-.2-.1-.15-.3-.3-.2-.2v-.1l-.05-.05" fill="#921f1f" fill-rule="evenodd" transform="translate(20.75 36.5)"/><path d="M10.7-29.05v1.8l-.05.1-.05.1v.45l-.1.1-.05.1v.25l-.05.1-.15.2.05.1.05.1v.65l-.05.1-.05.05-.1.1-.1.05-.3.05-.25-.05-.3-.3-.35-.35-.05-.2-.1-.05-.15-.1-.1-.1v-.9l.05-.1v-.1l.05-.1.1-.05.05-.1.05-.1v-.2l.05-.2v-.1l.15-1v-1.5l.05-.1v-.3l.05-.15v-.1l.05-.1.1-.1v-1.2l.1-.1.05-.05.15-.1h.15l.2.05.15.1.15.6-.15-.6.05.1.1.35v.15l-.05.4v.2l.05.1v.1l.05.1.05.05.1.15h.05l.2 1.4-.05-1.25.05.1v1.15l.05.05.05.1v.1M2.65-24.5h.05l.15.1.05.1.05.05v.3l-.1.1-.05.1-.1.1L0-23.7l-.5-.45-.55-.5V-25l-.15-.2-.05-.3v-.75l.05-.05.1-.1.05-.1v-.45l.05-.1v-.4l.05-.1.05-.1.1-.1V-28l.05-.1v-.2l.05-.1v-.1l.1-.1v-.05l.05-.1v-.2l.05-.1v-.2l.05-.05v-.1l.05-.1.1-.1.05-.1v-.1l.1-.15.2-.4.15-.3v-.15l.05-.1.05-.1.05-.1.05-.1v-.1l.05-.1v-.15l.05-.1.1-.2.1-.2v-.15l.05-.1.05-.1v-.1l.05-.1.1-.1.05-.05.1-.05h.3l.2.05.15.1.05.1.05.05v.3l-.1.15.05.05.1.6-.05.85v.15l.05.1.15.1.05.1.15.65-.05.95v.25l.1.2.05.2v1.8l.05.05.05.1v1.25l-.05.1h.1l.15.05m8.4 2.15v.25L11-22v.1l-.05.1v.25l-.05.2-.15.3-.05.15-.55.6-.4.45-.1.1-.15.05-.2-.05-.1-.1v-.4l.25-.25.3-.3.05-.1.05-.1.1-.05.1-.15.05-.05v-.1l.05-.1.15-.2.05-.1v-.35l.05-.1.05-.1v-.35l.1-.1.2-.05.15.05.05.05.05.05.05.2v.1m-.7-8.35.25 1.4-.25-1.4m-4.6 11.05.05.1v.05l-.05.1-.05.1-.2.1h-.25l-.2-.05-.5-.1-.8-.35-.45-.15-.1-.1V-20l-.2-.05-.2-.05-.1-.1-.2-.1-.15-.15-.2-.2-.05-.1v-.2l.05-.1.25-.1.25.05.25.2.05.05.35.15.45.3 1.15.4.75.25.1.1" fill="#b00000" fill-rule="evenodd" transform="translate(20.75 36.5)"/><path d="M10-32.4q-.6-2.2-1.5-3.6l-.4 5.35q-.9 2.85-5.45 4.2v1.95m-.8-8-.55-2.85-.05-.15-.5.25q-4.4 7.85-5 11.75l-.25 2.4q0 1.65 1.1 3.35l.2.3q1.9 2.7 6.6 5.4 3.2 1.85 5.7 2.8 1 .4 1.9.65l2.15-.15.05-.05 1.4-1.7q1.4-1.55 1.4-2.85 0-1.25-1.45-2.15-1.65-1.05-2.05-2.5l-1.45-4.35m-.1-.35-.5-1.35-.1-.25q.6-2 .35-4.75m-.1-.25-.25-1.4m-.2-1.1-.15-.6m.15.6.2 1.1m.25.75.05.4.05.4M2-31.35l-.15-.95m.8 5.85-.5-4.05-.1-.6v-.1m-6.4 15.8q0 .6 1.35 2.05l1.75 1.85q2.3 2.05 2.4 2.5l.6 2.75q.4 3.05.3 6.05.3 1 2.2 1.3l2 .15.55-.05Q8.2 1 9.75-.35h.05q1.85-1.6 1.85-3.2 0-.85-1.15-3.9 0-.5.5-1.15M9.8-.35l.7 3V3.9q-.8.75-1.35.75-.7 0-1.25-.75L6.8 1.2m-7.05.95.2.95.5 2.5q.5.9 2.65.9 3.05 0 3.05-2.1-1.7-1.7-2-2.75m-17.6-30.9h-.05l.05.15q1.2 4.8 1.2 7.85 0 6.1-4 11L-19-6.9q-1.25 1.85-1.25 3.65 0 3.7 5.25 6l6.6 2.85 2.5.3 2.05-.15q.35-.2.35-1.5V4q-.1-2.45-2-2.85l-.7-2.55q-.25-1.35-1-1.35-1.65 0-3.4 2m-2.85-28.5h.6q3.75 0 6.15 7.15 1.65 4.95 1.6 7.85l.6-1.2.25-.5.75-1.6.1-.2m-1.7 3.5-.55 1q-4.05 7.3-8.85 12 .85 3.05 5.25 4m4.9-18.15.1-.55m1 9.6q-.2.95 1.3 4.05Q-.75.15-.25 2.15q-1 1-3 1.85" fill="none" stroke="#000" stroke-linecap="round" stroke-linejoin="round" transform="translate(20.75 36.5)"/></g><g id="l"><path d="m12.55-46.8-.7-.2q.35-1.9 2.55-2.9 1.75-.8 3.4-.8.55 0 .9.35l.5.65-.35 2.15-.4.35q-1.2.9-3.35.9-1.4 0-2.55-.5M2.1-42.4l-.7-.2q.35-1.9 2.55-2.9 1.75-.8 3.4-.8.55 0 .9.35l.5.65-.35 2.15-.4.35q-1.2.9-3.35.9-1.4 0-2.55-.5m0 16.8.5.2.6.15.95.15h.3v16.8L3-8.5l-.9-.3v-16.8m10.95-4.2.6.15.95.15h.3v16.8l-1.45-.2q-.5-.1-.9-.3V-30l.5.2" fill="#8c7a48" fill-rule="evenodd" transform="translate(-.9 51.2)"/><path d="M12.55-46.8q1.15.5 2.55.5 2.15 0 3.35-.9l.4-.35v16.8l-.4.35q-1.2.9-3.35.9h-.2.2q2.15 0 3.35-.9l.4-.35v13.8l.35.8q.45 1.65-.75 2.55-1.2.9-3.35.9h-.2v-16.8h-.3l-.95-.15-.6-.15-.5-.2v-16.8M2.1-42.4q1.15.5 2.55.5 2.15 0 3.35-.9l.4-.35v16.8L8-26q-1.2.9-3.35.9h-.2.2Q6.8-25.1 8-26l.4-.35v13.8l.35.8Q9.2-10.1 8-9.2q-1.2.9-3.35.9h-.2v-16.8h-.3l-.95-.15-.6-.15-.5-.2.5.2-.5-.2v-16.8m10.95 12.6-.5-.2.5.2" fill="#96834b" fill-rule="evenodd" transform="translate(-.9 51.2)"/><path d="m18.85-47.55.35-2.15-.5-.65q-.35-.35-.9-.35-1.65 0-3.4.8-2.2 1-2.55 2.9l.7.2q1.15.5 2.55.5 2.15 0 3.35-.9l.4-.35q.7-.85.35-2.15M8.4-43.15l.35-2.15-.5-.65q-.35-.35-.9-.35-1.65 0-3.4.8-2.2 1-2.55 2.9l.7.2q1.15.5 2.55.5 2.15 0 3.35-.9l.4-.35q.7-.85.35-2.15M2.1-25.6l.5.2m-.5-2.1v1.9m0-1.9v-14.9m2.35 17.3h.2Q6.8-25.1 8-26l.4-.35v-16.8m-5.2 17.9.95.15h.3m0 16.8h.2Q6.8-8.3 8-9.2q1.2-.9.75-2.55l-.35-.8v-13.8q.9-1.15 0-3m4.15-.65v-3.2m0-.05V-46.8m1.1 17.15.95.15h.5q2.15 0 3.35-.9l.4-.35v-16.8M12.55-30l.5.2m-.5.9v15.7q.4.2.9.3l1.45.2m-2.35-16.2V-30m6.3-3.75q.9 1.85 0 3v13.8l.35.8q.45 1.65-.75 2.55-1.2.9-3.35.9h-.2M2.1-24.5v15.7l.9.3 1.45.2M2.1-24.5v-1.1" fill="none" stroke="#555e4d" stroke-linecap="round" stroke-linejoin="round" transform="translate(-.9 51.2)"/><path d="m2.6-25.4-.5-.2-.1-.05q-.55-.15-.55-.9t.65-.95m.5 2.1.6.15m9.35-6.65q-.65.2-.65.95t.55.9l.1.05.5.2.6.15m-.2 16.75-1.3-.3.4-1.35M3-8.5q-.35.1-1.3-.3l.4-1.35" fill="none" stroke="#555e4d" stroke-linecap="round" stroke-linejoin="round" transform="translate(-.9 51.2)"/></g><linearGradient xlink:href="#m" id="A" gradientUnits="userSpaceOnUse" gradientTransform="matrix(.0158 0 0 .0139 .15 -4.1)" x1="-819.2" x2="819.2" spreadMethod="pad"/><linearGradient gradientTransform="matrix(.0158 0 0 .0139 .15 -4.1)" gradientUnits="userSpaceOnUse" id="m" spreadMethod="pad" x1="-819.2" x2="819.2"><stop offset="0" stop-color="#b4b3a7"/><stop offset=".173" stop-color="#cfcfc7"/><stop offset="1" stop-color="#cfcfc7"/></linearGradient><linearGradient xlink:href="#n" id="B" gradientUnits="userSpaceOnUse" gradientTransform="matrix(.0158 0 0 .0139 .15 -4.1)" x1="-819.2" x2="819.2" spreadMethod="pad"/><linearGradient gradientTransform="matrix(.0158 0 0 .0139 .15 -4.1)" gradientUnits="userSpaceOnUse" id="n" spreadMethod="pad" x1="-819.2" x2="819.2"><stop offset="0" stop-color="#b4b3a7"/><stop offset=".173" stop-color="#cfcfc7"/><stop offset="1" stop-color="#cfcfc7"/></linearGradient><linearGradient xlink:href="#o" id="C" gradientUnits="userSpaceOnUse" gradientTransform="matrix(.0158 0 0 .0139 .15 -4.1)" x1="-819.2" x2="819.2" spreadMethod="pad"/><linearGradient gradientTransform="matrix(.0158 0 0 .0139 .15 -4.1)" gradientUnits="userSpaceOnUse" id="o" spreadMethod="pad" x1="-819.2" x2="819.2"><stop offset="0" stop-color="#b4b3a7"/><stop offset=".173" stop-color="#cfcfc7"/><stop offset="1" stop-color="#cfcfc7"/></linearGradient><linearGradient xlink:href="#p" id="D" gradientUnits="userSpaceOnUse" gradientTransform="matrix(.0158 0 0 .0139 .15 -4.1)" x1="-819.2" x2="819.2" spreadMethod="pad"/><linearGradient gradientTransform="matrix(.0158 0 0 .0139 .15 -4.1)" gradientUnits="userSpaceOnUse" id="p" spreadMethod="pad" x1="-819.2" x2="819.2"><stop offset="0" stop-color="#b4b3a7"/><stop offset=".173" stop-color="#cfcfc7"/><stop offset="1" stop-color="#cfcfc7"/></linearGradient><path d="M48.05-57.35q3.5 2.35 7.7 3.35 3.45 2.3 7 4.45 3.4 2.1 7.25 2.55l.3.2 1.95 1.25q1.25.8 2.55 1.45l1.7.85.55.45 3.15 2.35q1.85 1.4 4.05 1.95 7.1 4.7 14.95 8.35l24.05 11.65q5.7 3.8 11.8 6.95l4.7 2.5q2.7 1.5 5.25 2-1.25 4.65-5.55 6.1-2.45.8-11.95.95h-1.25l-2.75-.1q-19.7-1.05-46.55-12.1L54.9-21.3Q42.95-25.85 34.5-27l-18.1-2.25Q2.3-31.25-5.5-34q-5.7-2-20.05-15.55Q-40.25-63.4-41.5-64q-15.3-7.4-35.4-13.5l-26.6-7.4 4.8-2.35Q-76.75-96.9-55-107.1q5.2-2.45 8.7-6.2 7.3 3.1 13.6 7.9Q-17.1-93.55.25-84.5l1.05.65 3.55 2.2q2.05 1.35 4.4 2.15L22-72.95l17.5 9.7 8.55 5.9" fill-opacity=".29" fill-rule="evenodd" transform="translate(103.5 113.3)" id="a"/></defs><path style="display:inline;fill:silver;fill-opacity:1;fill-rule:evenodd;stroke:#565656;stroke-width:1px;stroke-linecap:butt;stroke-linejoin:miter;stroke-opacity:1" d="m450.038 402.143 100.23-50.455-229.78-121.172-102.726 63.777L438.608 404.11Z"/><g transform="translate(200.8 146.55)"><use height="221.1" transform="translate(-200.8 -20.1)" width="440.6" xlink:href="#q"/><use height="113.3" transform="translate(-50.35 -24.45)" width="248.5" xlink:href="#r"/><use height="42.45" transform="translate(198.8 98.6)" width="80.3" xlink:href="#s"/><use height="42.45" transform="translate(238.95 118.6)" width="80.3" xlink:href="#s"/><use height="42.45" transform="translate(279.35 139.1)" width="80.3" xlink:href="#s"/><use height="58.8" transform="translate(175.95 48.5)" width="46.35" xlink:href="#t"/><use height="86.55" transform="translate(80.25 116)" width="159.25" xlink:href="#u"/><use height="86.55" transform="translate(120.3 135.8)" width="159.25" xlink:href="#u"/><use height="86.55" transform="translate(160.3 155.85)" width="159.25" xlink:href="#u"/><use height="42.45" transform="translate(319.5 159.35)" width="80.3" xlink:href="#s"/><use height="86.55" transform="translate(200.3 175.85)" width="159.25" xlink:href="#u"/><use height="42.45" transform="translate(39.5 179.3)" width="80.3" xlink:href="#s"/><use height="42.45" transform="translate(79.65 199.3)" width="80.3" xlink:href="#s"/><use height="42.45" transform="translate(120.05 219.8)" width="80.3" xlink:href="#s"/><use height="42.45" transform="translate(160.2 240.05)" width="80.3" xlink:href="#s"/><use height="52.3" transform="translate(-34.2 55.4)" width="115.2" xlink:href="#v"/><use height="141.9" transform="translate(23.2 -109.45)" width="77.15" xlink:href="#w"/><use height="141.9" transform="translate(3.05 -120.3)" width="77.15" xlink:href="#w"/><use height="141.9" transform="translate(-32.2 -133.05)" width="77.15" xlink:href="#w"/><use height="141.9" transform="translate(-5.15 -113.8)" width="77.15" xlink:href="#w"/><use height="141.9" transform="translate(7.75 -102.4)" width="77.15" xlink:href="#w"/><use height="141.9" transform="translate(41.75 -90.05)" width="77.15" xlink:href="#w"/><use height="141.9" transform="translate(-54.3 -133.05)" width="77.15" xlink:href="#w"/><use height="141.9" transform="translate(-68.4 -146.55)" width="77.15" xlink:href="#w"/><use height="141.9" transform="translate(-20.5 -124.75)" width="77.15" xlink:href="#w"/><use height="141.9" transform="translate(-44.75 -133.05)" width="77.15" xlink:href="#w"/><use height="141.9" transform="translate(-70.3 -133.05)" width="77.15" xlink:href="#w"/><use height="141.9" transform="translate(-82.85 -133.05)" width="77.15" xlink:href="#w"/><use height="141.9" transform="translate(-38.4 -120.3)" width="77.15" xlink:href="#w"/><use height="141.9" transform="translate(53.35 -85.5)" width="77.15" xlink:href="#w"/><use height="141.9" transform="translate(31.7 -85.9)" width="77.15" xlink:href="#w"/><use height="141.9" transform="translate(-29.65 -109.45)" width="77.15" xlink:href="#w"/><use height="141.9" transform="translate(14.55 -85.5)" width="77.15" xlink:href="#w"/><use height="141.9" transform="translate(69.1 -76.5)" width="77.15" xlink:href="#w"/><use height="141.9" transform="translate(97.95 -62.65)" width="77.15" xlink:href="#w"/><use height="141.9" transform="translate(47.25 -62.65)" width="77.15" xlink:href="#w"/><use height="141.9" transform="translate(-78.4 -116.5)" width="77.15" xlink:href="#w"/><use height="141.9" transform="translate(-60.95 -120.3)" width="77.15" xlink:href="#w"/><use height="141.9" transform="translate(-48.3 -109.45)" width="77.15" xlink:href="#w"/><use height="141.9" transform="translate(-95.45 -133.05)" width="77.15" xlink:href="#w"/><use height="141.9" transform="translate(-117.35 -124.75)" width="77.15" xlink:href="#w"/><use height="141.9" transform="translate(-96.65 -124.75)" width="77.15" xlink:href="#w"/><use height="93.5" transform="translate(-132.35 -22.75)" width="126.4" xlink:href="#x"/><use height="43.4" transform="translate(-110.75 38.5)" width="18.9" xlink:href="#y"/><use height="39.85" transform="translate(-67.3 -.9)" width="30.75" xlink:href="#z"/></g><path d="M454.198 250.906v.5q-.3 1.85-1.85 3.45-.8.75-1.9 1.45-2.15 1.3-4.8 1.9l-3.4.45h-1q-5.4 0-9.2-2.35l-2-1.5q-1.6-1.65-1.8-3.65v-.45q.4-2.85 3.75-4.9 3.8-2.35 9.2-2.35h.7l3.5.4q2.75.55 4.95 1.95 3.35 2.05 3.85 5.1" fill="#dbdbd5" fill-rule="evenodd"/><path d="M-12.8-15.5q.2 2 1.8 3.65l2 1.5Q-5.2-8 .2-8h1l3.4-.45q2.65-.6 4.8-1.9 1.1-.7 1.9-1.45 1.55-1.6 1.85-3.45V0Q12.8 2.85 9.4 5 7.5 6.1 5.3 6.7L2 7.25l-1.8.1-4.2-.4Q-6.8 6.35-9 5q-3.75-2.35-3.8-5.55V-15.5" fill="url(#gradient0)" fill-rule="evenodd" style="fill:url(#A)" transform="translate(441.048 266.656)"/><path d="M454.198 251.406v-.5m-25.95 0v.25m25.95.25v6.1l.05 1.1-.05.3v5l.05 2.2-.05.55q-.35 2.85-3.75 5-1.9 1.1-4.1 1.7l-3.3.55-1.8.1-4.2-.4q-2.8-.6-5-1.95-3.75-2.35-3.8-5.55v-14.95m25.95 15.5v-2.75m0-6.4v1.4" fill="none" stroke="#686657" stroke-linecap="round" stroke-linejoin="round"/><path d="M454.198 250.906q-.5-3.05-3.85-5.1-2.2-1.4-4.95-1.95l-3.5-.4h-.7q-5.4 0-9.2 2.35-3.35 2.05-3.75 4.9v.2" fill="none" stroke="#959380" stroke-linecap="round" stroke-linejoin="round"/><path d="M428.248 251.156c.134 1.334.734 2.55 1.8 3.65l2 1.5c2.534 1.567 5.6 2.35 9.2 2.35h1l3.4-.45c1.767-.4 3.367-1.033 4.8-1.9.734-.466 1.367-.95 1.9-1.45 1.034-1.066 1.65-2.216 1.85-3.45" fill="none" stroke="#cbcac2" stroke-linecap="round" stroke-linejoin="round"/><path d="M573.973 310.84v.5q-.3 1.85-1.85 3.45-.8.75-1.9 1.45-2.15 1.3-4.8 1.9l-3.4.45h-1q-5.4 0-9.2-2.35l-2-1.5q-1.6-1.65-1.8-3.65v-.45q.4-2.85 3.75-4.9 3.8-2.35 9.2-2.35h.7l3.5.4q2.75.55 4.95 1.95 3.35 2.05 3.85 5.1" fill="#dbdbd5" fill-rule="evenodd"/><path d="M-12.8-15.5q.2 2 1.8 3.65l2 1.5Q-5.2-8 .2-8h1l3.4-.45q2.65-.6 4.8-1.9 1.1-.7 1.9-1.45 1.55-1.6 1.85-3.45V0Q12.8 2.85 9.4 5 7.5 6.1 5.3 6.7L2 7.25l-1.8.1-4.2-.4Q-6.8 6.35-9 5q-3.75-2.35-3.8-5.55V-15.5" fill="url(#gradient0)" fill-rule="evenodd" style="fill:url(#B)" transform="translate(560.823 326.59)"/><path d="M573.973 311.34v-.5m-25.95 0v.25m25.95.25v6.1l.05 1.1-.05.3v5l.05 2.2-.05.55q-.35 2.85-3.75 5-1.9 1.1-4.1 1.7l-3.3.55-1.8.1-4.2-.4q-2.8-.6-5-1.95-3.75-2.35-3.8-5.55v-14.95m25.95 15.5v-2.75m0-6.4v1.4" fill="none" stroke="#686657" stroke-linecap="round" stroke-linejoin="round"/><path d="M573.973 310.84q-.5-3.05-3.85-5.1-2.2-1.4-4.95-1.95l-3.5-.4h-.7q-5.4 0-9.2 2.35-3.35 2.05-3.75 4.9v.2" fill="none" stroke="#959380" stroke-linecap="round" stroke-linejoin="round"/><path d="M548.023 311.09c.134 1.332.734 2.55 1.8 3.65l2 1.5c2.534 1.566 5.6 2.35 9.2 2.35h1l3.4-.45c1.767-.4 3.367-1.034 4.8-1.9.734-.468 1.367-.95 1.9-1.45 1.034-1.068 1.65-2.218 1.85-3.45" fill="none" stroke="#cbcac2" stroke-linecap="round" stroke-linejoin="round"/><path d="M414.09 390.718v.5q-.3 1.85-1.85 3.45-.8.75-1.9 1.45-2.15 1.3-4.8 1.9l-3.4.45h-1q-5.4 0-9.2-2.35l-2-1.5q-1.6-1.65-1.8-3.65v-.45q.4-2.85 3.75-4.9 3.8-2.35 9.2-2.35h.7l3.5.4q2.75.55 4.95 1.95 3.35 2.05 3.85 5.1" fill="#dbdbd5" fill-rule="evenodd"/><path d="M-12.8-15.5q.2 2 1.8 3.65l2 1.5Q-5.2-8 .2-8h1l3.4-.45q2.65-.6 4.8-1.9 1.1-.7 1.9-1.45 1.55-1.6 1.85-3.45V0Q12.8 2.85 9.4 5 7.5 6.1 5.3 6.7L2 7.25l-1.8.1-4.2-.4Q-6.8 6.35-9 5q-3.75-2.35-3.8-5.55V-15.5" fill="url(#gradient0)" fill-rule="evenodd" style="fill:url(#C)" transform="translate(400.94 406.468)"/><path d="M414.09 391.218v-.5m-25.95 0v.25m25.95.25v6.1l.05 1.1-.05.3v5l.05 2.2-.05.55q-.35 2.85-3.75 5-1.9 1.1-4.1 1.7l-3.3.55-1.8.1-4.2-.4q-2.8-.6-5-1.95-3.75-2.35-3.8-5.55v-14.95m25.95 15.5v-2.75m0-6.4v1.4" fill="none" stroke="#686657" stroke-linecap="round" stroke-linejoin="round"/><path d="M414.09 390.718q-.5-3.05-3.85-5.1-2.2-1.4-4.95-1.95l-3.5-.4h-.7q-5.4 0-9.2 2.35-3.35 2.05-3.75 4.9v.2" fill="none" stroke="#959380" stroke-linecap="round" stroke-linejoin="round"/><path d="M388.14 390.968c.134 1.334.734 2.55 1.8 3.65l2 1.5c2.534 1.567 5.6 2.35 9.2 2.35h1l3.4-.45c1.768-.4 3.368-1.033 4.8-1.9.734-.466 1.368-.95 1.9-1.45 1.034-1.066 1.65-2.216 1.85-3.45" fill="none" stroke="#cbcac2" stroke-linecap="round" stroke-linejoin="round"/><path d="M294.326 330.79v.5q-.3 1.85-1.85 3.45-.8.75-1.9 1.45-2.15 1.3-4.8 1.9l-3.4.45h-1q-5.4 0-9.2-2.35l-2-1.5q-1.6-1.65-1.8-3.65v-.45q.4-2.85 3.75-4.9 3.8-2.35 9.2-2.35h.7l3.5.4q2.75.55 4.95 1.95 3.35 2.05 3.85 5.1" fill="#dbdbd5" fill-rule="evenodd"/><path d="M-12.8-15.5q.2 2 1.8 3.65l2 1.5Q-5.2-8 .2-8h1l3.4-.45q2.65-.6 4.8-1.9 1.1-.7 1.9-1.45 1.55-1.6 1.85-3.45V0Q12.8 2.85 9.4 5 7.5 6.1 5.3 6.7L2 7.25l-1.8.1-4.2-.4Q-6.8 6.35-9 5q-3.75-2.35-3.8-5.55V-15.5" fill="url(#gradient0)" fill-rule="evenodd" style="fill:url(#D)" transform="translate(281.176 346.54)"/><path d="M294.326 331.29v-.5m-25.95 0v.25m25.95.25v6.1l.05 1.1-.05.3v5l.05 2.2-.05.55q-.35 2.85-3.75 5-1.9 1.1-4.1 1.7l-3.3.55-1.8.1-4.2-.4q-2.8-.6-5-1.95-3.75-2.35-3.8-5.55v-14.95m25.95 15.5v-2.75m0-6.4v1.4" fill="none" stroke="#686657" stroke-linecap="round" stroke-linejoin="round"/><path d="M294.326 330.79q-.5-3.05-3.85-5.1-2.2-1.4-4.95-1.95l-3.5-.4h-.7q-5.4 0-9.2 2.35-3.35 2.05-3.75 4.9v.2" fill="none" stroke="#959380" stroke-linecap="round" stroke-linejoin="round"/><path d="M268.376 331.04c.133 1.333.733 2.55 1.8 3.65l2 1.5c2.533 1.566 5.6 2.35 9.2 2.35h1l3.4-.45c1.766-.4 3.366-1.034 4.8-1.9a12.96 12.96 0 0 0 1.9-1.45c1.033-1.067 1.65-2.217 1.85-3.45" fill="none" stroke="#cbcac2" stroke-linecap="round" stroke-linejoin="round"/><g transform="translate(41.324 226.638)"><use height="55.4" transform="translate(-22.7 -41.4)" width="57.1" xlink:href="#E"/><use height="43.5" transform="translate(-17.1 -70.15)" width="37.25" xlink:href="#F"/><use height="43.4" transform="translate(24.7 -32.9)" width="18.9" xlink:href="#G"/></g><path style="fill:#fc6;fill-opacity:.6" d="m28.15-8.15-20 10 7.65 3.8-34.9.25v-17.4l7.45 3.45 19.95-10 19.85 9.9" transform="matrix(-1 0 0 1 481.8 370.204)"/><path style="fill:none;stroke:#f60;stroke-width:1;stroke-linecap:round;stroke-linejoin:round;stroke-miterlimit:3;stroke-opacity:.6" d="m8.3-18.05-19.95 10-7.45-3.45V5.9l34.9-.25-7.65-3.8 20-10z" transform="matrix(-1 0 0 1 481.8 370.204)"/></svg>