<svg xmlns:xlink="http://www.w3.org/1999/xlink" height="188.7" width="196.9" xmlns="http://www.w3.org/2000/svg"><g transform="translate(71.1 158.55)"><use height="188.7" transform="translate(-71.1 -158.55)" width="135.8" xlink:href="#a"/><use height="141.9" transform="translate(8.25 -154.7)" width="77.15" xlink:href="#b"/><use height="141.9" transform="translate(26.95 -158.55)" width="77.15" xlink:href="#b"/><use height="141.9" transform="translate(46.05 -150.85)" width="77.15" xlink:href="#b"/><use height="141.9" transform="translate(48.65 -126.7)" width="77.15" xlink:href="#b"/></g><defs><use height="188.7" width="135.8" xlink:href="#c" id="a"/><use height="141.9" width="77.15" xlink:href="#d" id="b"/><g id="c"><path d="M-51.95-117.05q18.9-5.3 37.65-13.15 4.35-1.8 8.65-3.75 4.7-2.1 9.35-4.35 8.6-4.2 17.2-8.9l5.95-3.35L33-154.1l8-4.9 6.7-4.25q9.6-6.25 19.2-13.15l-1.55 6.8q-8.8 6.4-17.65 12.2l-1.1.75.75 12.5.3 6.2h.05l11.25-5.6L53.1-147l.45-.25 5.85 3.45-.45.25-1.65 5.15-9.35 4.65v.6l.05.8.1 1.4 4.1 68.9q-.65 4.45-7.2 4.45l-3.25-.45-4.15-70.35 5.65-2.85v-4.5l.1-.05-2.05-.9 2.05.9-.1.05v4.5l-5.65 2.85-1.65.8-1.55.8v.2-.2l-60.85 30.2-1.85.9h-.05l.3-4.45.9-.45-.9.45-.3 4.45h.05v.05h-.05l-.05 1.05.05-1.05v-.05.05h.05l-.1 1.05v.35L-33.65-18q-.6 4.6-7.25 4.6-2.1 0-3.8-.65l5.25-76.1 6.3-3.1v-4.4 4.4l-6.3 3.1-2.05 1-.2.1-.1.05-.9-.45-.6-.3-1.55-.8v-1.25l.1-.05 11.6-5.8v-.5L-38.7-101l1-14.6 11.05-3.85-11.05 3.85-1.95.65-1.45.45-8.45 2.5-2.4-5.05m104.9 67.5.25.1h.05v.05l-.3-.15M36.3-150.2l.5-.3 1.65-1 .15-.05 2.4-1.55.75-.45.45-.3.35-.2 4.05-2.6-4.05 2.6-.35.2-.45.3-.75.45-2.4 1.55-.15.05-1.65 1-.5.3-1.6 1-1.4.85-.2.1-.1.05-8.05 4.7-6.15 3.4-5.75 3.05-1.1.55-6.5 3.3-1.75.85-4 1.9q-7 3.25-14 6.15l-12.35 4.85-.8 11.4-.1 1.2v.05l-.5 6.6.9-.4L2.8-115.55l.15-.05 2.5-17.6 6.5-3.3 1.1-.55 5.75-3.05-1.6 10.95-1 6.9 13.5-6.7 6-3 1.65-.85 5.05-2.5.2-.1.15-.1.5-.25-1.95-.95-4.3-2.2v-.05.05l-.15-.05H37l-.7-11.25m-20.1 27.95L2.95-115.6l13.25-6.65m18.9 7.45L35-116l.05-.05.05 1.25m12.85-18.35-.05-.6h.05l-.1-1.25-.05-.45-.1-1.65v-.85.85l.1 1.65.05.45.1 1.25h-.05l.05.6m-.25-3.95-.05-.85.05.85m-4.45 1.35-.5.25.5-.25m4.6.75.05 1.25-.05-1.25m-88.55 34.75v-.05h.15l-.15.05m12.65.1v-.05.05m.5-6.65.1-1.25-.1 1.25m-17.2 14.95 3.05 2.8-3.05-2.8" fill="#a90101" fill-rule="evenodd" transform="translate(67.9 188.2)"/><path d="m67.4-176.8-.5.4q-9.6 6.9-19.2 13.15L41-159l-8 4.9-6.15 3.55-5.95 3.35q-8.6 4.7-17.2 8.9-4.65 2.25-9.35 4.35-4.3 1.95-8.65 3.75-18.75 7.85-37.65 13.15l-.2.1v-3.3q18.95-5.35 37.85-13.25 4.35-1.8 8.65-3.75 4.7-2.1 9.35-4.35 8.6-4.2 17.2-8.9l5.95-3.35L33-157.4l8-4.9 6.7-4.25q9.85-6.45 19.7-13.55-9.85 7.1-19.7 13.55L41-162.3l-8 4.9-6.15 3.55-5.95 3.35q-8.6 4.7-17.2 8.9-4.65 2.25-9.35 4.35-4.3 1.95-8.65 3.75-18.9 7.9-37.85 13.25v3.3l-15.25-7.6v-3.3q26.55-7.45 53.1-20.05l8.65-4.25 2-1.05 7.35-3.9q11-5.95 22-12.8l4.1-2.6 3.2-2.05 8-5.35 11.15-7.8 15.25 7.6v3.3m-119.55 56.55-15.25-7.6 15.25 7.6" fill="#0e0e0e" fill-rule="evenodd" transform="translate(67.9 188.2)"/><path d="m-52.15-116.95.2-.1 2.4 5.05-.25.1-15.2-7.6-2.4-5.05 15.25 7.6m99.5-27.2L53.1-147l5.85 3.45-11.25 5.6h-.05l-.3-6.2m-92.2 53.6-3.25-1.65-3.05-2.8 10.1-5.05.35-.2.15-.05 1.55-.8.3.1 5.55 2.85v.5l-11.6 5.8-.1.05v1.25M37-138.9l4.3 2.2 1.95.95-.5.25-.15.1-.2.1-5.05 2.5-1.65.85-6 3-13.5 6.7 1-6.9 16.55-8.25 1.6-.8 1.5-.75.15.05m-38.9 19.25-.2 1.65 4.9 2.45.15-.05-.15.05-29.95 14.95-.9.4.5-6.6v-.05l1-.5 24.65-12.3M-51.15-95l6.3 3.2-6.3-3.2" fill="#610101" fill-rule="evenodd" transform="translate(67.9 188.2)"/><path d="m36.3-150.2.7 11.25h-.15l-1.5.75-.65-11 1.6-1m1.3 21.8 4.15 70.35-.6-.2q-.6-.25-1.15-.55l-4.05-68.8 1.65-.8m-78.3 28.1 1.05-14.65 1.95-.65-1 14.6-.3-.1-1.55.8h-.15m1.25 10.15-5.25 76.1h-.05q-.75-.3-1.45-.75l-.4-.25 5.1-74.1 2.05-1" fill="#9a0101" fill-rule="evenodd" transform="translate(67.9 188.2)"/><path d="m-47.95-16.45 4.65-73.3.6.3.9.45.1-.05.2-.1-5.1 74.1-.05-.05q-.85-.6-1.3-1.35m6.9-83.6-1.1.5 1.05-14.95 1.45-.45-1.05 14.65v.05l-.35.2m40.75-30.4 4-1.9 1.75-.85-2.5 17.6-.15.05-4.9-2.45.2-1.65 1.6-10.8" fill="#8b0101" fill-rule="evenodd" transform="translate(67.9 188.2)"/><path d="m34.7-149.2.65 11-1.6.8-.65-10.85.2-.1 1.4-.85m-.3 22.4 1.55-.8L40-58.8l-.3-.2-.45-.3-.9-.85-3.25-54.65-.05-1.25-.65-10.55v-.2" fill="#7e0101" fill-rule="evenodd" transform="translate(67.9 188.2)"/><path d="m-47.55-1.7-1.25-1.35.85-13.4q.45.75 1.3 1.35l.05.05-.95 13.35M40-58.8l.1 1.2h-1.6l-.15-2.55.9.85.45.3.3.2" fill="#333" fill-rule="evenodd" transform="translate(67.9 188.2)"/><path d="M-45.65-.65q-.75-.3-1.45-.75l-.45-.3.95-13.35.4.25q.7.45 1.45.75h.05l-.95 13.4m87.4-57.4.05.75-1.7-.3-.1-1.2q.55.3 1.15.55l.6.2" fill="#383838" fill-rule="evenodd" transform="translate(67.9 188.2)"/><path d="m52.2-62.05.75 12.5.3.15q-.45 2.5-2.8 3.55-1.05.45-2.5.65 0-1.4.35-4.55 0-3.75-3.4-6.1-1.5-1-3.1-1.45l-.05-.75 3.25.45q6.55 0 7.2-4.45m-88.4 60.6Q-38.05 0-41.8 0q-2.1 0-3.85-.65l.95-13.4q1.7.65 3.8.65 6.65 0 7.25-4.6l-.3 4.25-.65 9.1v.05q-.25 2-1.6 3.15" fill="#434343" fill-rule="evenodd" transform="translate(67.9 188.2)"/><path d="M50.45-45.85-36.2-1.45q1.35-1.15 1.6-3.15v-.05l.65-9.1 72.85-36.5.15 2.1q.5.9 1.7 1.65.8.5 1.75.85.85.3 1.8.45l1.75.1 1.9-.1q1.45-.2 2.5-.65" fill-opacity=".424" fill-rule="evenodd" transform="translate(67.9 188.2)"/><path d="M38.5-57.6h1.6l.65 11.1q-1.2-.75-1.7-1.65l-.15-2.1-.4-7.35" fill="#202020" fill-rule="evenodd" transform="translate(67.9 188.2)"/><path d="m40.1-57.6 1.7.3.7 11.65q-.95-.35-1.75-.85l-.65-11.1" fill="#2e2e2e" fill-rule="evenodd" transform="translate(67.9 188.2)"/><path d="M41.8-57.3q1.6.45 3.1 1.45 3.4 2.35 3.4 6.1-.35 3.15-.35 4.55l-1.9.1-1.75-.1q-.95-.15-1.8-.45l-.7-11.65" fill="#353535" fill-rule="evenodd" transform="translate(67.9 188.2)"/><path d="M-40.7-100.25v-.05" fill="none" stroke="#000" stroke-linecap="round" stroke-linejoin="round" transform="translate(67.9 188.2)"/><path d="m66.9-176.4.5-.4m-119.55 59.85.2-.1M66.9-176.4l-1.55 6.8q-8.8 6.4-17.65 12.2l-1.1.75.75 12.5L53.1-147l5.85 3.45-11.25 5.6v.85l.1 1.65.05.45.1 1.25h-.05l.05.6.05.8.1 1.4 4.1 68.9m6.75-81.5-1.65 5.15-9.35 4.65v.6m5.25 83.7h.05v.05m-101.2 32.95 4.65-73.3-1.55-.8-3.25-1.65-3.05-2.8 10.1-5.05m-1.1.5 1.05-14.95-8.45 2.5-.25.1-15.2-7.6-2.4-5.05m114-32.1-4.05 2.6-.35.2-.45.3-.75.45-2.4 1.55-.15.05-1.65 1-.5.3-1.6 1m2.3 10.25v.05l4.3 2.2 2.05.9-.1.05v4.5l-5.65 2.85m4.15 70.35 3.25.45q6.55 0 7.2-4.45M35.35-138.2l1.5-.75m-3.75-9.3.65 10.85 1.6-.8m-2.25-10.05.2-.1 1.4-.85m2.3 10.3-.15-.05M18.8-140.1l6.15-3.4 8.05-4.7.1-.05m1.3 21.45 1.55-.8 1.65-.8m-3.2 1.8v-.2m-17.2-2.35-1 6.9 13.5-6.7 6-3 1.65-.85 5.05-2.5.2-.1.15-.1.5-.25-1.95-.95M2.95-115.6l2.5-17.6-1.75.85-4 1.9-1.6 10.8-.2 1.65 4.9 2.45-29.95 14.95-.9.45-.3 4.45h.05l1.85-.9 60.85-30.2M2.95-115.6l13.25-6.65m2.6-17.85-5.75 3.05-1.1.55-6.5 3.3m11.75 4.05 1.6-10.95M2.95-115.6l-.15.05M35-116l.1 1.2-.05-1.25m-.65-10.55.65 10.55m-1.3-21.35-16.55 8.25m30.5-8.8h-.05l.05.85m-.05-.85-.3-6.2m.55 10.4-.05-1.25m-5.1-.5.5-.25m-1.5 77.7-.6-.2q-.6-.25-1.15-.55l-.3-.2-.45-.3-.9-.85-3.25-54.65m-74.75-.15-1.45.45m-8.45 2.5-2.4-5.05m51.65-13.4q-7 3.25-14 6.15l-12.35 4.85-.8 11.4-.1 1.25-.5 6.6.9-.4m-.4-6.25 1-.5 24.65-12.3m-35.8 4.05-1.95.65m.95 13.95-.3-.1-1.55.8m13-6.55 1-.5m-1 .5v.05m-.5 6.6v.05M-38.7-101l5.55 2.85v4.9l-6.3 3.1-2.05 1-.2.1-3.05-2.8-.1.05v1.25m.15 76.5q1.7.65 3.8.65 6.65 0 7.25-4.6l5.25-76.25v-.35l.05-1.05v-.05m1.7-23.75-11.05 3.85m9.4 19.95h-.05m.05 0 1.85-.95m-16.85 6.85.6.3.9.45.1-.05m-3.15-2.75-6.3-3.2m4.55 79.95-.05-.05q-.85-.6-1.3-1.35m3.25 2.4h-.05q-.75-.3-1.45-.75l-.4-.25m12 10.4v.05m-10.15-87.25 11.6-5.8" fill="none" stroke="#4d0000" stroke-linecap="round" stroke-linejoin="round" transform="translate(67.9 188.2)"/><path d="m52.2-62.05.75 12.5m.3.15q-.45 2.5-2.8 3.55M-36.2-1.45Q-38.05 0-41.8 0q-2.1 0-3.85-.65-.75-.3-1.45-.75l-.45-.3-1.25-1.35.85-13.4m95.9-28.75q1.45-.2 2.5-.65m-12.1-14.3.15 2.55.4 7.35.15 2.1q.5.9 1.7 1.65.8.5 1.75.85.85.3 1.8.45l1.75.1 1.9-.1M-34.6-4.6q-.25 2-1.6 3.15m2.25-12.3-.65 9.1m.65-9.1.3-4.25" fill="none" stroke="#202020" stroke-linecap="round" stroke-linejoin="round" transform="translate(67.9 188.2)"/><path d="M67.4-176.8v-3.3q-9.85 7.1-19.7 13.55L41-162.3l-8 4.9-6.15 3.55-5.95 3.35q-8.6 4.7-17.2 8.9-4.65 2.25-9.35 4.35-4.3 1.95-8.65 3.75-18.9 7.9-37.85 13.25v3.3m.2-.1q18.9-5.3 37.65-13.15 4.35-1.8 8.65-3.75 4.7-2.1 9.35-4.35 8.6-4.2 17.2-8.9l5.95-3.35L33-154.1l8-4.9 6.7-4.25q9.6-6.25 19.2-13.15m-134.3 51.85v-3.3q26.55-7.45 53.1-20.05l8.65-4.25 2-1.05 7.35-3.9q11-5.95 22-12.8l4.1-2.6 3.2-2.05 8-5.35 11.15-7.8 15.25 7.6m-134.8 55.55 15.25 7.6m-15.25-10.9 15.25 7.6" fill="none" stroke="#390000" stroke-linecap="round" stroke-linejoin="round" transform="translate(67.9 188.2)"/></g><g id="d"><path d="m3.2-125.8-.2-.15-1.65-1.35v-.9H3l7.2 4q2.85 1.6 3.95 3.2l2.1 3q4.45 6.35 9.05 21.15l.15.5.05.5q0 1.35-4.35 1.35-4.6-15.45-10.6-24l-.4-.55-.7-1q-2.2-2.8-6.25-5.75M33.05-.15q-1.35-.3-1.65-1.2l-.15-10.2q-.7-20.35-3.95-44.65l-.6-4.45q.45.35 1.5.5l.05.1.1.75.6 4.45q3.25 24.3 3.95 44.65l.15 10.05" fill="#52703a" fill-rule="evenodd" transform="translate(38.55 141.4)"/><path d="M25.6-95.85q4.35 14.2 7.35 34.2l.2 1.4.65 4.55q3.25 24.3 3.95 44.65l.35 10.2v.3q-.9.55-3.4.55l-1.65-.15-.15-10.05q-.7-20.35-3.95-44.65l-.6-4.45-.1-.75-.05-.1 2.25.15 2.7-.25-2.7.25-2.25-.15q-1.05-.15-1.5-.5l-.1-.75q-2.9-19.2-6.9-33.1h1.45-1.45l-.5-1.6q-2.85-9.55-6.3-16.45-2.05-4.1-4.3-7.3l-.4-.55-.7-1q-1.65-2.1-4.3-4.4 4.05 2.95 6.25 5.75l.7 1 .4.55q6 8.55 10.6 24 4.35 0 4.35-1.35h.1m-4.25 2.7q4 13.85 6.85 33-2.85-19.15-6.85-33" fill="#466734" fill-rule="evenodd" transform="translate(38.55 141.4)"/><path d="m6.75-112.6 4.1.05v.65q-2.55 2.05-3.9 3.9l-.65.95q-1.4 2.15-3.5 6.25l3.5-10.45.45-1.35m-.2 0-.25.2q-2.9 2.4-4.8 4.8L-.2-105l-.2.4.2-.85 1.9-7.35 1.1-.05 3.5.25h.25m-5.5-.15-1.25 1.6q-1.8 2.6-3.8 7.45l-.35.95q-2.6 6.4-4.2 13.75l-.15.75h-.1l.15-.75 2.4-13.75.45-3.15v-1.65q-1.15 1.3-2.3 3.9l-.4.9-.55 1.35q-2.9 7.5-4.7 11.65.3-2.9 3.5-12.4l-4.55 2.9 2.85-3.5 1.5-2.15h-.35l-5.6 1.85-.8.3q-4.6 1.75-12 5.55l7.85-5.55.65-.45 3.25-2.35h-2l-3.5.9-7.35 1.9 7.35-2.8 7.5-2.75 2.1-.75 4.2-1.5h-4l-.2.2-.4.1-2.45.05-1.7-.05h-4.55l.35-.3 8.75-1.35 11.25-1.35-11.25 1.35-8.75 1.35-.35.3-.05.05h-.45l-4.05.15-3.45.15.3-.35L-27-111l4.05-.8-.5.6-.2.3.7-.75.15-.15-.05-.05 3-3.55 6.5-7.95 1.3-1.65.1-.15.75-1.25-2.15 1-1.8 1.2-1.95 1.5-5.85 4.65q-2 1.5-3.55 2.65l-.5.4.3-.4 3.75-3.9 5.2-4.7h.1l.15-.25-.25.25h-2.45l-2.75.25-.2.05.2-.1 2.75-1.05q1.9-.75 3.65-1.6l-.3-.15-3.35-.75-2.45-.45-.3-.05-4.05-.55-9.65-.75 9.65-.9.75-.05 3.3-.3.65-.1-.65-.35-1.1-.65-2.95-.85-7.85-2.15 7.85 1.25 4.05.7 2.75.5 6.85 1.25.75.1-3.45-2q-.15.2-.7 0l-2.15-1.2-1.3-.8-.15-.1-.8-.5-3.15-1.75.5-.1 3.6 1.3-3.6-1.3-.5.1-.1-.05-2.6-1.4-4.4-2.25.45-.15 3.95 1.2 4.35 1.5 2.45.9 5.15 2 1.7.8 1.7.85 6.5 4.15 2.7 1.85v.1l-.2.05q-3.4-1.55-6.3-2.05 2.9.5 6.3 2.05-3.35 1-8.9 5.35l-1.8 1.4-6 5.35-3.45 3.6 1.2-.25 8.25-1.3 3.55-.25 7.7.35 1.9.15 1.35.1.05.1-.15.15-1.25.15 1.25-.15M-1.1-126.7l.9.6 2.2 1.45-2.2.45q-2.6.55-4.65 1.4-1.7.65-3.2 1.65l5.95-6.05 1 .5m.9 4.3 2.4-2.15 3.5 2.15-.3.55q-3.25.5-5.35 1.45l-.25.1-6.95 4.05 6.95-6.15m-5.2 11 5.2-1.2-5.2 1.2q-.95 0-1.8.8h-.05.05q-1.05.95-1.85 2.85 2.4-1.8 3.25-3.5l.4-.15m-4.4 8.65v-3.15l.75-1.85-.75 1.85v3.65h.35l.45-.5-.45.5h-.35v-.5m1.7-.9-.9.9.9-.9m7-7.25-4.7 4.85 4.7-4.85m-24.45-18.5-.7-.7.7.7 2.6.8 2.75.35 2.25.15 4-.15-1.55 1.25-1.8 3.2.3.15 1.85-.55-1.85.55-.3-.15 1.8-3.2 1.55-1.25.6-.05q2.55-.4 4-1.3l.4.05-1.95-.2h-.05l-2.4.1-6.85.25h-5.35m6.75-5.9 5.45 2.3 8.2 3.5-8.2-3.5-5.45-2.3-1.4-.55 1.4.55m13.35 8.35-6.5 1.8 6.5-1.8m-4.8 24.8.1-.1v-.3l-.1.4m-10.45-1.05q.6.3 1 .25 2.75-.3 7.2-2.7 2-1.1 3.45-2.1-1.45 1-3.45 2.1-4.45 2.4-7.2 2.7-.4.05-1-.25m1 .25q6.3-3.55 12.45-7.65-6.15 4.1-12.45 7.65" fill="#758e3e" fill-rule="evenodd" transform="translate(38.55 141.4)"/><path d="m3.2-125.8-.2-.15-1.65-1.35v-.9H3l7.2 4q2.85 1.6 3.95 3.2l2.1 3q4.45 6.35 9.05 21.15l.15.5.15.5q4.35 14.2 7.35 34.2.8.05.8.9 0 .3-.6.5l.65 4.55q3.25 24.3 3.95 44.65l.35 10.2v.3q-.9.55-3.4.55l-1.65-.15q-1.35-.3-1.65-1.2l-.15-10.2q-.7-20.35-3.95-44.65l-.6-4.45-.1-.75q-2.9-19.2-6.9-33.1l-.25-.05q-.7-.25-.25-1.55-2.85-9.55-6.3-16.45m-5.4-8.85q-1.65-2.1-4.3-4.4m17.95 31.3q4.35 0 4.35-1.35l-.05-.5M7.5-121.4l.7 1 .4.55q2.25 3.2 4.3 7.3m8.25 18.05H19.7l-.5-1.6m7.5 35.45q.45.35 1.5.5m4.95-.1-.2-1.4m.2 1.4-2.7.25-2.25-.15" fill="none" stroke="#3c3c3c" stroke-linecap="round" stroke-linejoin="round" transform="translate(38.55 141.4)"/><path d="m12.9-112.55-6.05-.3-.1.25 4.1.05v.65q-2.55 2.05-3.9 3.9l-.65.95m0-4.2.45-1.35h-.2l-.25.2M-8.55-89l-.15.75-.1.35v-.35l.15-.75M2.4-124.7l-2-1.2-.6-.3m0 .1 2.2 1.45.4-.05 5.1 3.3M2-124.65l.2.1.2-.15m-2.6 4.4.25-.1q2.1-.95 5.35-1.45l.3-.55-3.5-2.15-2.4 2.15m6.5 9.55h.55v-.05.05l-.3.25H6.3m-6.5-11.6 2.2-.45m-29 2.2-3.05.85-.7.35.1-.2.6-.15 2.9-1.2.15-.05" fill="none" stroke="#3e4738" stroke-linecap="round" stroke-linejoin="round" transform="translate(38.55 141.4)"/><path d="M3.2-125.8q4.05 2.95 6.25 5.75l.7 1 .4.55q6 8.55 10.6 24m7.05 34.35q-2.85-19.15-6.85-33m6.85 33 .05.1.1.75.6 4.45q3.25 24.3 3.95 44.65l.15 10.05" fill="none" stroke="#373f32" stroke-linecap="round" stroke-linejoin="round" transform="translate(38.55 141.4)"/><path d="M6.3-107.05q-1.4 2.15-3.5 6.25l-.6 1.55-.35.35.95-1.9 3.5-10.45m0-1.15q-2.9 2.4-4.8 4.8L-.2-105m-.7 2.25-1.85 7.1-.05.4v-.3l.05-.1q.25-3.9 1.5-7.1m1.05-2.7 1.9-7.35-.65.05-1.25 1.6m-4.15 8.4q-2.6 6.4-4.2 13.75m-.1 0 2.4-13.75m-2.25 0-.55 1.35q-2.9 7.5-4.7 11.65l-.05.5-.2.05.25-.55q.3-2.9 3.5-12.4l-4.55 2.9-4.9 5.3-.45.65v-.25l.45-.4q1.95-2.95 4.9-5.3l2.85-3.5m-5.25 0q-4.6 1.75-12 5.55l-.95.65h-.3l1.25-.65 7.85-5.55m-1.6-1.9-7.35 1.9-1.15.5h-.35l1.5-.5 7.35-2.8m0-4.65-4.05.15-3.45.15.3-.35L-27-111l4.05-.8-.5.6-.2.3.7-.75m0-6.4q-2 1.5-3.55 2.65l-.5.4-.3.45-.2-.1.5-.35m28.7 2.2.05-.15-.45-.05-.1.1-.15.15-1.25.15m-9.6 9.85v.5h.35l.45-.5M1.15-113h.15l.25-.25.3-.35-.1.65 1.05.1 1.7-.05 1.8.05m0 .25-3.5-.25-1.1.05m-.55-.2-1.35-.1m-18.6-22.2-1.4-.55m5.15.55-5.15-2m-2.75 18-3.75 3.9-.3.4m1.05-7.8-1.05.35m16.75 20.3.1-.1v-.3l-.1.4" fill="none" stroke="#4d5645" stroke-linecap="round" stroke-linejoin="round" transform="translate(38.55 141.4)"/><path d="m-22.95-132.55-4.05-.7-7.85-1.25 7.85 2.15 2.95.85 1.1.65m0 .45-3.3.3.7.7h2.6m2.75-6.45-3.6-1.3-.5.1 3.15 1.75m.95-2-2.45-.9-4.35-1.5-3.95-1.2-.45.15 4.4 2.25 2.6 1.4.1.05q1.45.85 3.1 1.75m-1.75 6.7-2.6-.8m2.6 5.6-.2.1.2-.05m-13.7-5.4-1.4-.05.25.15 1.15-.1 9.65-.9.75-.05m-8.6-4.4-1.55-.3.35.15 1.2.15m-1.8 5.35 9.65.75 4.05.55m-4.05 5 3.85-.85-2.8.9" fill="none" stroke="#545f4b" stroke-linecap="round" stroke-linejoin="round" transform="translate(38.55 141.4)"/><path d="m-.2-105-.2.4-.5 1.85m-.35 0 .85-1.85.2-.85m0-5.7q-1.8 2.6-3.8 7.45l-.35.95m-1.9 0 .45-3.15v-.15l-2.3 2.4-.4.9m-3.45 0 1.5-2.15h-.35l-5.6 1.85-.8.3m-4.15 0 .65-.45 3.25-2.35h-2l-3.5.9m0-.9 7.5-2.75 2.1-.75 4.2-1.5h-4l-.2.2-.4.1-2.45.05-1.7-.05-4.6.05h-.45m0-1.6.1-.05 3-3.55 6.5-7.95 1.3-1.65.1-.15-1.4.4-1.8.55-1.95 1.5-5.85 4.65M-.2-126.2l-.9-.5.9.6m0 3.7-6.95 6.15 6.95-4.05m0 7.7-5.2 1.2-.4.15q-.85 1.7-3.25 3.5l-.75 1.85v3.15m.8 0 .9-.9q1.15-2.6 2.3-3.9v1.5l4.7-4.85m.9-2.2-1.9-.15-11.25 1.35-8.75 1.35-.35.3h4.55m-3.25-25.05.8.5.15.1 1.3.8 2.15 1.2q.55.2.7 0l3.45 2-.75-.1-6.85-1.25-2.75-.5m0 1.7.65.35-.65.1m0 1h2.75l6.85-.25 2.4-.1h.05l1.95.2q2.9.5 6.3 2.05l.2-.05.1-.05-.1-.05-2.7-1.85-8.2-3.5-5.45-2.3m13.65 5.8-6.5-4.15-1.7-.85-1.7-.8m1.1 7.05-4 .15-2.25-.15-2.75-.35m0 4.85 2.75-.25h2.45l.25-.25-.15.25h-.1l-5.2 4.7m0-8.55.3.05 2.45.45 3.35.75.3.15q-1.75.85-3.65 1.6l-2.75 1.05m7.8-.4-1.85.55-.3-.15 1.8-3.2 1.55-1.25.6-.4q1.35-.85 2.45-1.1l1.55.15.4.05m-5 1.3.6-.05q2.55-.4 4-1.3m-5.8 5.4 1.8-1.2 2.15-1-.75 1.25 6.5-1.8m2.8-.55.55.3.1-.1-.35-.3.35-.05.45-.15-.45.5.9.6-1-.5-5.95 6.05q1.5-1 3.2-1.65 2.05-.85 4.65-1.4m-21-11.1.85.5m-2.45 23 3.45-3.6 6-5.35 1.8-1.4q5.55-4.35 8.9-5.35m-20.15 15.7 1.2-.25 8.25-1.3 3.55-.25 7.7.35m-20.85 1.6.15-.15h-.15m15.8-4.45-1.3.85-.45.3.45-.1.25-.2q.35-.25 1.05-.85m-.9-4.9-5.3 5.35-.4.4-.8.8-.2.35.15-.25.05-.1.55-.8.65-.85q2.4-3.05 5.3-4.9m-1 13.4q-1.45 1-3.45 2.1-4.45 2.4-7.2 2.7-.4.05-1-.25m13.45-7.4h.05q.85-.8 1.8-.8m-.4.15-1.4.65q-1.05.95-1.85 2.85m1.8-2.85q-6.15 4.1-12.45 7.65" fill="none" stroke="#555e4d" stroke-linecap="round" stroke-linejoin="round" transform="translate(38.55 141.4)"/></g></defs></svg>