<?xml version="1.0" encoding="UTF-8" standalone="no"?>
<svg
   xmlns:dc="http://purl.org/dc/elements/1.1/"
   xmlns:cc="http://creativecommons.org/ns#"
   xmlns:rdf="http://www.w3.org/1999/02/22-rdf-syntax-ns#"
   xmlns:svg="http://www.w3.org/2000/svg"
   xmlns="http://www.w3.org/2000/svg"
   xmlns:xlink="http://www.w3.org/1999/xlink"
   xmlns:sodipodi="http://sodipodi.sourceforge.net/DTD/sodipodi-0.dtd"
   xmlns:inkscape="http://www.inkscape.org/namespaces/inkscape"
   height="182"
   width="160"
   version="1.1"
   id="svg13523"
   sodipodi:docname="back-sitting.svg"
   inkscape:version="0.92.3 (2405546, 2018-03-11)">
  <metadata
     id="metadata13527">
    <rdf:RDF>
      <cc:Work
         rdf:about="">
        <dc:format>image/svg+xml</dc:format>
        <dc:type
           rdf:resource="http://purl.org/dc/dcmitype/StillImage" />
        <dc:title />
      </cc:Work>
    </rdf:RDF>
  </metadata>
  <sodipodi:namedview
     pagecolor="#ffffff"
     bordercolor="#666666"
     borderopacity="1"
     objecttolerance="10"
     gridtolerance="10"
     guidetolerance="10"
     inkscape:pageopacity="0"
     inkscape:pageshadow="2"
     inkscape:window-width="1920"
     inkscape:window-height="2123"
     id="namedview13525"
     showgrid="true"
     inkscape:pagecheckerboard="true"
     inkscape:zoom="7.3352616"
     inkscape:cx="64.581778"
     inkscape:cy="136.46504"
     inkscape:window-x="1920"
     inkscape:window-y="0"
     inkscape:window-maximized="0"
     inkscape:current-layer="svg13523">
    <inkscape:grid
       type="xygrid"
       id="grid14072" />
  </sodipodi:namedview>
  <defs
     id="defs13515">
    <path
       d="M.7-.3l1.85 2.2H1.5L.05.7-1.4 1.9h-1.05l1.9-2.2H.7"
       fill-rule="evenodd"
       transform="translate(2.45 .3)"
       id="a" />
    <use
       height="2.2"
       width="5"
       xlink:href="#a"
       id="c" />
    <g
       id="b">
      <path
         d="M-15.5-41.55q-2.65-3.1-2.5-7.1-.15-5.3 5.35-9.8Q-7.15-63.5.5-64q7.6.5 13.05 5.55 5.45 4.5 5.45 9.8 0 4-2.6 7.1h.1-.05L13.9-38.5l-.05-.1-.8.05.65 9.65h.15l.25.75.2.5.2.4-.15.45-.3.75-.2.35q-.6.55-1.1.75l-.15.1h-.5q-1.6.3-2.1-.6-1.15-.45-.95-1.9l.4-1.4v-.05l.15-.05-.45-6.45-1.35.1.45 6.3-.5 2q.25 1.65 1.3 2.4-.25.35.15.15 1.1 1.35 3.05.85l.25.05h.2l-.05.45h-.05l-.25 2.95h-.05l-.05.2h-1.9l-1.2 1.55h5.05q.7 0 1.15.4.55.55.55 1.65 0 1.05-.55 1.6-.45.45-1.15.45H7.6v1.2l-6.65-.45-.05-.1-11.55.3-1.6-.15q-1.6-1.8-1.9-3.85l-.1-1.2.05-.95.55-1.85h.1v-.55l.15-.15v-1.35h-.05l-.05-.8v-2.05l-.2-.65-.15-.45.15-.4.25-.5.25-.75h.1l.7-9.65-.85-.05-.4-.05v-.15l-2.05-2.75h.2M-13.8-22l.05.1-.05-.1m3.75-6.45l-.05-.05v.05h.05"
         fill="#fff"
         fill-rule="evenodd"
         transform="translate(18.6 64.6)"
         id="path13508" />
      <path
         d="M13.9-38.5l.8 4.5.15 1.95.05-.05v.1l.2 2.65v.35H15v.1l.6 1.1q-.05.25.15.3.3 1.6-.6 2.45l-.15.2q-.15-.05-.2.1l-.25.25-.55.5q-.65.5-1.3.55h-.2l-.25-.05q-1.95.5-3.05-.85-.4.2-.15-.15-1.05-.75-1.3-2.4l.5-2-.45-6.3 1.35-.1.45 6.45-.15.05v.05l-.4 1.4q-.2 1.45.95 1.9.5.9 2.1.6h.5l.15-.1q.5-.2 1.1-.75l.2-.35.3-.75.15-.45-.2-.4-.2-.5-.25-.75h-.15l-.65-9.65.8-.05.05.1m-1.65 18.65h2q1.25 0 2.05.8.9.9.9 2.8 0 1.85-.9 2.75-.8.8-2.05.8H7.6v-1.5h6.6q.7 0 1.15-.45.55-.55.55-1.6 0-1.1-.55-1.65-.45-.4-1.15-.4H9.15l1.2-1.55h1.9M-13.5-24.1l-.45-.4-.2-.25-.2-.1-.2-.2q-.9-.85-.55-2.45.15-.05.15-.3l.55-1.1.05-.1h-.1l-.05-.35h.05l.2-2.65v-.1l.05.05.1-1.95.85-4.6.85.05-.7 9.65h-.1l-.25.75-.25.5-.15.4.15.45.2.65v2.05"
         fill-rule="evenodd"
         transform="translate(18.6 64.6)"
         id="path13510" />
      <path
         d="M3.1 23.05q-2.65-3.1-2.5-7.1-.15-5.3 5.35-9.8Q11.45 1.1 19.1.6q7.6.5 13.05 5.55 5.45 4.5 5.45 9.8 0 4-2.6 7.1"
         fill="none"
         stroke="#000"
         stroke-linecap="round"
         stroke-linejoin="round"
         stroke-width="1.2"
         id="path13512" />
    </g>
  </defs>
  <path
     style="fill:#ffcc00;stroke:#806600;stroke-width:2.33162618;stroke-linecap:butt;stroke-linejoin:miter;stroke-miterlimit:4;stroke-dasharray:none;stroke-opacity:1"
     d="M 57.998255,29.219293 C 63.471395,-26.628196 67.995506,18.59613 67.995506,18.59613"
     id="path5268"
     inkscape:connector-curvature="0" />
  <path
     style="fill:#ffcc00;stroke:#806600;stroke-width:2.33162618;stroke-linecap:butt;stroke-linejoin:miter;stroke-miterlimit:4;stroke-dasharray:none;stroke-opacity:1"
     d="M 108.78393,29.219293 C 103.31079,-26.628196 98.78668,18.59613 98.78668,18.59613"
     id="path5268-3"
     inkscape:connector-curvature="0" />
  <g
     transform="matrix(2 0 0 2 82.641 144.2)"
     id="g13521">
    <use
       height="51.9"
       transform="translate(-18.6 -64.6)"
       width="38.2"
       xlink:href="#b"
       id="use13517" />
    <use
       height="2.2"
       transform="translate(10.35 -53.3)"
       width="5"
       xlink:href="#c"
       id="use13519" />
  </g>
  <path
     style="fill:#ffd42a;stroke:#000000;stroke-width:1px;stroke-linecap:butt;stroke-linejoin:miter;stroke-opacity:1"
     d="m 55.000095,101.99993 c 17.430438,0 34.860877,0 52.291315,0 -0.0971,1 -0.19421,2 -0.29131,3 -1.33333,0 -2.66667,0 -4,0 -0.94267,1.95648 -1.5345,4.03812 -2.11919,6.12232 -0.53012,1.61317 -0.85333,3.3169 -1.516352,4.8719 -0.456658,0.76107 -0.913317,1.52214 -1.369975,2.28321 -11.274635,0.0891 -22.55132,0.0174 -33.81946,-0.39568 -1.601202,-0.014 -3.198228,-0.0639 -4.750737,-0.49543 -0.969617,-0.25723 -2.134659,-0.16623 -2.704987,-1.17652 -2.332682,-2.62809 -2.891999,-6.31026 -2.836225,-9.7093 -0.03004,-1.56856 0.739702,-3.00294 1.116921,-4.5005 z"
     id="path12775"
     inkscape:connector-curvature="0" />
  <path
     id="path6998-0-5"
     style="opacity:1;fill:#000000;fill-opacity:1;stroke:#000000;stroke-width:0.5;stroke-linejoin:round;stroke-miterlimit:4;stroke-dasharray:none;stroke-opacity:1"
     d="m 88.629835,109.5524 c 0.194991,-0.63222 -1.367846,-3.22339 -0.67581,-1.66993 -0.626425,-1.26736 0.746807,1.62465 0.2559,2.16993 0.433395,2.01665 -2.140131,2.87492 -1.48652,4.96679 0.09392,0.8956 1.382619,3.29346 0.915716,2.09664 0.534141,0.82228 -0.352458,-0.47125 -0.505886,-1.82753 -0.463815,-2.03657 2.114134,-2.89438 1.49231,-4.97949 0.143081,0.0427 -0.193732,-0.91472 0.0043,-0.75641 z m -3,-5 c 0.194991,-0.63222 -1.367846,-3.22339 -0.67581,-1.66993 -0.626425,-1.26736 0.746807,1.62465 0.2559,2.16993 0.433395,2.01665 -2.140131,2.87492 -1.48652,4.96679 0.09392,0.8956 1.382619,3.29346 0.915716,2.09664 0.534141,0.82228 -0.352458,-0.47125 -0.505886,-1.82753 -0.463815,-2.03657 2.114134,-2.89438 1.49231,-4.97949 0.143081,0.0427 -0.193732,-0.91472 0.0043,-0.75641 z m -4,5 c 0.194991,-0.63222 -1.367846,-3.22339 -0.67581,-1.66993 -0.626425,-1.26736 0.746807,1.62465 0.2559,2.16993 0.433395,2.01665 -2.140131,2.87492 -1.48652,4.96679 0.09392,0.8956 1.382619,3.29346 0.915716,2.09664 0.534141,0.82228 -0.352458,-0.47125 -0.505886,-1.82753 -0.463815,-2.03657 2.114134,-2.89438 1.49231,-4.97949 0.143081,0.0427 -0.193732,-0.91472 0.0043,-0.75641 z m -4,-5 c 0.194991,-0.63222 -1.367846,-3.22339 -0.67581,-1.66993 -0.626425,-1.26736 0.746807,1.62465 0.2559,2.16993 0.433395,2.01665 -2.140131,2.87492 -1.48652,4.96679 0.09392,0.8956 1.382619,3.29346 0.915716,2.09664 0.534141,0.82228 -0.352458,-0.47125 -0.505886,-1.82753 -0.463815,-2.03657 2.114134,-2.89438 1.49231,-4.97949 0.143081,0.0427 -0.193732,-0.91472 0.0043,-0.75641 z m 16,0 c 0.194991,-0.63222 -1.367846,-3.22339 -0.67581,-1.66993 -0.626425,-1.26736 0.746807,1.62465 0.2559,2.16993 0.433395,2.01665 -2.140131,2.87492 -1.48652,4.96679 0.09392,0.8956 1.382619,3.29346 0.915716,2.09664 0.534141,0.82228 -0.352458,-0.47125 -0.505886,-1.82753 -0.463815,-2.03657 2.114134,-2.89438 1.49231,-4.97949 0.143081,0.0427 -0.193732,-0.91472 0.0043,-0.75641 z m 4,5 c 0.194991,-0.63222 -1.367846,-3.22339 -0.67581,-1.66993 -0.626425,-1.26736 0.746807,1.62465 0.2559,2.16993 0.433395,2.01665 -2.140131,2.87492 -1.48652,4.96679 0.09392,0.8956 1.382619,3.29346 0.915716,2.09664 0.534141,0.82228 -0.352458,-0.47125 -0.505886,-1.82753 -0.463815,-2.03657 2.114134,-2.89438 1.49231,-4.97949 0.143081,0.0427 -0.193732,-0.91472 0.0043,-0.75641 z m 3.000005,-5 c 0.19499,-0.63222 -1.367853,-3.22339 -0.675815,-1.66993 -0.626427,-1.26736 0.746815,1.62465 0.255905,2.16993 0.43339,2.01665 -2.140146,2.87492 -1.48653,4.96679 0.09392,0.8956 1.38262,3.29346 0.915716,2.09664 0.534144,0.82228 -0.352458,-0.47125 -0.505886,-1.82753 -0.46382,-2.03658 2.11415,-2.89437 1.49232,-4.97949 0.14308,0.0427 -0.19373,-0.91472 0.004,-0.75641 z m -42.000005,0 c 0.194991,-0.63222 -1.367846,-3.22339 -0.67581,-1.66993 -0.626425,-1.26736 0.746807,1.62465 0.2559,2.16993 0.433395,2.01665 -2.140131,2.87492 -1.48652,4.96679 0.09392,0.8956 1.382619,3.29346 0.915716,2.09664 0.534141,0.82228 -0.352458,-0.47125 -0.505886,-1.82753 -0.463815,-2.03657 2.114134,-2.89438 1.49231,-4.97949 0.143081,0.0427 -0.193732,-0.91472 0.0043,-0.75641 z m 5,5 c 0.194991,-0.63222 -1.367846,-3.22339 -0.67581,-1.66993 -0.626425,-1.26736 0.746807,1.62465 0.2559,2.16993 0.433395,2.01665 -2.140131,2.87492 -1.48652,4.96679 0.09392,0.8956 1.382619,3.29346 0.915716,2.09664 0.534141,0.82228 -0.352458,-0.47125 -0.505886,-1.82753 -0.463815,-2.03657 2.114134,-2.89438 1.49231,-4.97949 0.143081,0.0427 -0.193732,-0.91472 0.0043,-0.75641 z m 5,-5 c 0.194991,-0.63222 -1.367846,-3.22339 -0.67581,-1.66993 -0.626425,-1.26736 0.746807,1.62465 0.2559,2.16993 0.433395,2.01665 -2.140131,2.87492 -1.48652,4.96679 0.09392,0.8956 1.382619,3.29346 0.915716,2.09664 0.534141,0.82228 -0.352458,-0.47125 -0.505886,-1.82753 -0.463815,-2.03657 2.114134,-2.89438 1.49231,-4.97949 0.143081,0.0427 -0.193732,-0.91472 0.0043,-0.75641 z m 4,5 c 0.194991,-0.63222 -1.367846,-3.22339 -0.67581,-1.66993 -0.626425,-1.26736 0.746807,1.62465 0.2559,2.16993 0.433395,2.01665 -2.140131,2.87492 -1.48652,4.96679 0.09392,0.8956 1.382619,3.29346 0.915716,2.09664 0.534141,0.82228 -0.352458,-0.47125 -0.505886,-1.82753 -0.463815,-2.03657 2.114134,-2.89438 1.49231,-4.97949 0.143081,0.0427 -0.193732,-0.91472 0.0043,-0.75641 z" />
  <path
     id="path5357-72-19-372-8"
     style="fill:none;fill-rule:evenodd;stroke:#008000;stroke-width:0.41771439"
     d="m 98.991747,30.000346 c -0.539782,1.759212 -0.154387,-3.627902 0.589591,-0.608751 0.204148,6.726008 -3.031766,-0.595401 -0.803548,-2.520706 2.30623,-1.308932 1.70362,9.586959 -0.408112,7.054263 -2.766779,-3.227226 0.629772,-13.739099 2.249082,-6.848986 0.22574,0.844941 0.3622,1.873173 0.38157,2.92418 m -4.008583,2 c -0.539782,1.759212 -0.154387,-3.627902 0.589591,-0.608751 0.204148,6.726008 -3.031766,-0.595401 -0.803548,-2.520706 2.30623,-1.308932 1.703621,9.586959 -0.408112,7.054263 -2.766779,-3.227226 0.629772,-13.739099 2.24908,-6.848986 0.225743,0.844941 0.362204,1.873173 0.381577,2.92418 m -5.008588,3 c -0.539782,1.759212 -0.154387,-3.627902 0.589591,-0.608751 0.204148,6.726008 -3.031766,-0.595401 -0.803548,-2.520706 2.30623,-1.308932 1.703621,9.586959 -0.408112,7.054263 -2.766779,-3.227226 0.629772,-13.739099 2.24908,-6.848986 0.225743,0.844941 0.362204,1.873173 0.381577,2.92418 m -4.008588,2 c -0.539782,1.759212 -0.154387,-3.627902 0.589591,-0.608751 0.204148,6.726008 -3.031766,-0.595401 -0.803548,-2.520706 2.30623,-1.308932 1.703621,9.586959 -0.408112,7.054263 -2.766779,-3.227226 0.629772,-13.739099 2.24908,-6.848986 0.225743,0.844941 0.362204,1.873173 0.381577,2.92418 m -5.008588,4 c -0.539782,1.759212 -0.154387,-3.627902 0.589591,-0.608751 0.204148,6.726008 -3.031766,-0.595401 -0.803548,-2.520706 2.30623,-1.308932 1.703621,9.586959 -0.408112,7.054263 -2.766779,-3.227226 0.629772,-13.739099 2.24908,-6.848986 0.225743,0.844941 0.362204,1.873173 0.381577,2.92418 m 18.991415,-12 c -0.53979,1.759212 -0.15439,-3.627902 0.58959,-0.608751 0.20415,6.726008 -3.03177,-0.595401 -0.80355,-2.520706 2.30623,-1.308932 1.70362,9.586959 -0.40811,7.054263 -2.76678,-3.227226 0.62977,-13.739099 2.24908,-6.848986 0.22574,0.844941 0.3622,1.873173 0.38157,2.92418 m -4.00858,0 c -0.53979,1.759212 -0.15439,-3.627902 0.58959,-0.608751 0.20415,6.726008 -3.03177,-0.595401 -0.80355,-2.520706 2.30623,-1.308932 1.70362,9.586959 -0.40811,7.054263 -2.76678,-3.227226 0.62977,-13.739099 2.24908,-6.848986 0.22574,0.844941 0.3622,1.873173 0.38157,2.92418 m -4.00858,0 c -0.53979,1.759212 -0.15439,-3.627902 0.58959,-0.608751 0.20415,6.726008 -3.03177,-0.595401 -0.80355,-2.520706 2.30623,-1.308932 1.70362,9.586959 -0.40811,7.054263 -2.76678,-3.227226 0.62977,-13.739099 2.24908,-6.848986 0.22574,0.844941 0.3622,1.873173 0.38157,2.92418 m -4.00858,0 c -0.53979,1.759212 -0.15439,-3.627902 0.58959,-0.608751 0.20415,6.726008 -3.03177,-0.595401 -0.80355,-2.520706 2.30623,-1.308932 1.70362,9.586959 -0.40811,7.054263 -2.76678,-3.227226 0.62977,-13.739099 2.24908,-6.848986 0.22574,0.844941 0.3622,1.873173 0.38157,2.92418 M 47.991747,50.00034 c -0.539782,1.759212 -0.154387,-3.627902 0.589591,-0.608751 0.204148,6.726008 -3.031766,-0.595401 -0.803548,-2.520706 2.30623,-1.308932 1.703621,9.586959 -0.408112,7.054263 -2.766779,-3.227226 0.629772,-13.739099 2.24908,-6.848986 0.225743,0.844941 0.362204,1.873173 0.381577,2.92418 m -0.0086,0 c -0.539782,1.759212 -0.154387,-3.627902 0.589591,-0.608751 0.204148,6.726008 -3.031766,-0.595401 -0.803548,-2.520706 2.30623,-1.308932 1.703621,9.586959 -0.408112,7.054263 -2.766779,-3.227226 0.629772,-13.739099 2.24908,-6.848986 0.225743,0.844941 0.362204,1.873173 0.381577,2.92418 m 0.991412,0 c -0.539782,1.759212 -0.154387,-3.627902 0.589591,-0.608751 0.204148,6.726008 -3.031766,-0.595401 -0.803548,-2.520706 2.30623,-1.308932 1.703621,9.586959 -0.408112,7.054263 -2.766779,-3.227226 0.629772,-13.739099 2.24908,-6.848986 0.225743,0.844941 0.362204,1.873173 0.381577,2.92418 m 2.991412,0 c -0.539782,1.759212 -0.154387,-3.627902 0.589591,-0.608751 0.204148,6.726008 -3.031766,-0.595401 -0.803548,-2.520706 2.30623,-1.308932 1.703621,9.586959 -0.408112,7.054263 -2.766779,-3.227226 0.629772,-13.739099 2.24908,-6.848986 0.225743,0.844941 0.362204,1.873173 0.381577,2.92418 m -4.008588,0 c -0.539782,1.759212 -0.154387,-3.627902 0.589591,-0.608751 0.204148,6.726008 -3.031766,-0.595401 -0.803548,-2.520706 2.30623,-1.308932 1.703621,9.586959 -0.408112,7.054263 -2.766779,-3.227226 0.629772,-13.739099 2.24908,-6.848986 0.225743,0.844941 0.362204,1.873173 0.381577,2.92418 m 7.991412,0 c -0.539782,1.759212 -0.154387,-3.627902 0.589591,-0.608751 0.204148,6.726008 -3.031766,-0.595401 -0.803548,-2.520706 2.30623,-1.308932 1.703621,9.586959 -0.408112,7.054263 -2.766779,-3.227226 0.629772,-13.739099 2.24908,-6.848986 0.225743,0.844941 0.362204,1.873173 0.381577,2.92418 m -7.008588,0 c -0.539782,1.759212 -0.154387,-3.627902 0.589591,-0.608751 0.204148,6.726008 -3.031766,-0.595401 -0.803548,-2.520706 2.30623,-1.308932 1.703621,9.586959 -0.408112,7.054263 -2.766779,-3.227226 0.629772,-13.739099 2.24908,-6.848986 0.225743,0.844941 0.362204,1.873173 0.381577,2.92418 m 0.991412,0 c -0.539782,1.759212 -0.154387,-3.627902 0.589591,-0.608751 0.204148,6.726008 -3.031766,-0.595401 -0.803548,-2.520706 2.30623,-1.308932 1.703621,9.586959 -0.408112,7.054263 -2.766779,-3.227226 0.629772,-13.739099 2.24908,-6.848986 0.225743,0.844941 0.362204,1.873173 0.381577,2.92418 m 2.991412,0 c -0.539782,1.759212 -0.154387,-3.627902 0.589591,-0.608751 0.204148,6.726008 -3.031766,-0.595401 -0.803548,-2.520706 2.30623,-1.308932 1.703621,9.586959 -0.408112,7.054263 -2.766779,-3.227226 0.629772,-13.739099 2.24908,-6.848986 0.225743,0.844941 0.362204,1.873173 0.381577,2.92418 m 0.991412,0 c -0.539782,1.759212 -0.154387,-3.627902 0.589591,-0.608751 0.204148,6.726008 -3.031766,-0.595401 -0.803548,-2.520706 2.30623,-1.308932 1.703621,9.586959 -0.408112,7.054263 -2.766779,-3.227226 0.629772,-13.739099 2.24908,-6.848986 0.225743,0.844941 0.362204,1.873173 0.381577,2.92418 m 1.991412,0 c -0.539782,1.759212 -0.154387,-3.627902 0.589591,-0.608751 0.204148,6.726008 -3.031766,-0.595401 -0.803548,-2.520706 2.30623,-1.308932 1.703621,9.586959 -0.408112,7.054263 -2.766779,-3.227226 0.629772,-13.739099 2.24908,-6.848986 0.225743,0.844941 0.362204,1.873173 0.381577,2.92418 m 1.991412,0 c -0.539782,1.759212 -0.154387,-3.627902 0.589591,-0.608751 0.204148,6.726008 -3.031766,-0.595401 -0.803548,-2.520706 2.30623,-1.308932 1.703621,9.586959 -0.408112,7.054263 -2.766779,-3.227226 0.629772,-13.739099 2.24908,-6.848986 0.225743,0.844941 0.362204,1.873173 0.381577,2.92418 m -35.008588,-2 c -0.539782,1.759212 -0.154387,-3.627902 0.589591,-0.608751 0.204148,6.726008 -3.031766,-0.595401 -0.803548,-2.520706 2.30623,-1.308932 1.703621,9.586959 -0.408112,7.054263 -2.766779,-3.227226 0.629772,-13.739099 2.24908,-6.848986 0.225743,0.844941 0.362204,1.873173 0.381577,2.92418 m 0.991412,0 c -0.539782,1.759212 -0.154387,-3.627902 0.589591,-0.608751 0.204148,6.726008 -3.031766,-0.595401 -0.803548,-2.520706 2.30623,-1.308932 1.703621,9.586959 -0.408112,7.054263 -2.766779,-3.227226 0.629772,-13.739099 2.24908,-6.848986 0.225743,0.844941 0.362204,1.873173 0.381577,2.92418 m 0.991412,0 c -0.539782,1.759212 -0.154387,-3.627902 0.589591,-0.608751 0.204148,6.726008 -3.031766,-0.595401 -0.803548,-2.520706 2.30623,-1.308932 1.703621,9.586959 -0.408112,7.054263 -2.766779,-3.227226 0.629772,-13.739099 2.24908,-6.848986 0.225743,0.844941 0.362204,1.873173 0.381577,2.92418 m 2.991412,0 c -0.539782,1.759212 -0.154387,-3.627902 0.589591,-0.608751 0.204148,6.726008 -3.031766,-0.595401 -0.803548,-2.520706 2.30623,-1.308932 1.703621,9.586959 -0.408112,7.054263 -2.766779,-3.227226 0.629772,-13.739099 2.24908,-6.848986 0.225743,0.844941 0.362204,1.873173 0.381577,2.92418 m 1.991412,0 c -0.539782,1.759212 -0.154387,-3.627902 0.589591,-0.608751 0.204148,6.726008 -3.031766,-0.595401 -0.803548,-2.520706 2.30623,-1.308932 1.703621,9.586959 -0.408112,7.054263 -2.766779,-3.227226 0.629772,-13.739099 2.24908,-6.848986 0.225743,0.844941 0.362204,1.873173 0.381577,2.92418 m 1.991412,0 c -0.539782,1.759212 -0.154387,-3.627902 0.589591,-0.608751 0.204148,6.726008 -3.031766,-0.595401 -0.803548,-2.520706 2.30623,-1.308932 1.703621,9.586959 -0.408112,7.054263 -2.766779,-3.227226 0.629772,-13.739099 2.24908,-6.848986 0.225743,0.844941 0.362204,1.873173 0.381577,2.92418 m 1.991412,0 c -0.539782,1.759212 -0.154387,-3.627902 0.589591,-0.608751 0.204148,6.726008 -3.031766,-0.595401 -0.803548,-2.520706 2.30623,-1.308932 1.703621,9.586959 -0.408112,7.054263 -2.766779,-3.227226 0.629772,-13.739099 2.24908,-6.848986 0.225743,0.844941 0.362204,1.873173 0.381577,2.92418 m 1.991412,0 c -0.539782,1.759212 -0.154387,-3.627902 0.589591,-0.608751 0.204148,6.726008 -3.031766,-0.595401 -0.803548,-2.520706 2.30623,-1.308932 1.703621,9.586959 -0.408112,7.054263 -2.766779,-3.227226 0.629772,-13.739099 2.24908,-6.848986 0.225743,0.844941 0.362204,1.873173 0.381577,2.92418 m 0.991412,0 c -0.539782,1.759212 -0.154387,-3.627902 0.589591,-0.608751 0.204148,6.726008 -3.031766,-0.595401 -0.803548,-2.520706 2.30623,-1.308932 1.703621,9.586959 -0.408112,7.054263 -2.766779,-3.227226 0.629772,-13.739099 2.24908,-6.848986 0.225743,0.844941 0.362204,1.873173 0.381577,2.92418 m 2.991412,0 c -0.539782,1.759212 -0.154387,-3.627902 0.589591,-0.608751 0.204148,6.726008 -3.031766,-0.595401 -0.803548,-2.520706 2.30623,-1.308932 1.703621,9.586959 -0.408112,7.054263 -2.766779,-3.227226 0.629772,-13.739099 2.24908,-6.848986 0.225743,0.844941 0.362204,1.873173 0.381577,2.92418 m -35.008588,-3 c -0.539782,1.759212 -0.154387,-3.627902 0.589591,-0.608751 0.204148,6.726008 -3.031766,-0.595401 -0.803548,-2.520706 2.30623,-1.308932 1.703621,9.586959 -0.408112,7.054263 -2.766779,-3.227226 0.629772,-13.739099 2.24908,-6.848986 0.225743,0.844941 0.362204,1.873173 0.381577,2.92418 m -0.0086,0 c -0.539782,1.759212 -0.154387,-3.627902 0.589591,-0.608751 0.204148,6.726008 -3.031766,-0.595401 -0.803548,-2.520706 2.30623,-1.308932 1.703621,9.586959 -0.408112,7.054263 -2.766779,-3.227226 0.629772,-13.739099 2.24908,-6.848986 0.225743,0.844941 0.362204,1.873173 0.381577,2.92418 m 1.991412,0 c -0.539782,1.759212 -0.154387,-3.627902 0.589591,-0.608751 0.204148,6.726008 -3.031766,-0.595401 -0.803548,-2.520706 2.30623,-1.308932 1.703621,9.586959 -0.408112,7.054263 -2.766779,-3.227226 0.629772,-13.739099 2.24908,-6.848986 0.225743,0.844941 0.362204,1.873173 0.381577,2.92418 m -0.0086,0 c -0.539782,1.759212 -0.154387,-3.627902 0.589591,-0.608751 0.204148,6.726008 -3.031766,-0.595401 -0.803548,-2.520706 2.30623,-1.308932 1.703621,9.586959 -0.408112,7.054263 -2.766779,-3.227226 0.629772,-13.739099 2.24908,-6.848986 0.225743,0.844941 0.362204,1.873173 0.381577,2.92418 m -0.0086,0 c -0.539782,1.759212 -0.154387,-3.627902 0.589591,-0.608751 0.204148,6.726008 -3.031766,-0.595401 -0.803548,-2.520706 2.30623,-1.308932 1.703621,9.586959 -0.408112,7.054263 -2.766779,-3.227226 0.629772,-13.739099 2.24908,-6.848986 0.225743,0.844941 0.362204,1.873173 0.381577,2.92418 m 1.991412,0 c -0.539782,1.759212 -0.154387,-3.627902 0.589591,-0.608751 0.204148,6.726008 -3.031766,-0.595401 -0.803548,-2.520706 2.30623,-1.308932 1.703621,9.586959 -0.408112,7.054263 -2.766779,-3.227226 0.629772,-13.739099 2.24908,-6.848986 0.225743,0.844941 0.362204,1.873173 0.381577,2.92418 m -0.0086,0 c -0.539782,1.759212 -0.154387,-3.627902 0.589591,-0.608751 0.204148,6.726008 -3.031766,-0.595401 -0.803548,-2.520706 2.30623,-1.308932 1.703621,9.586959 -0.408112,7.054263 -2.766779,-3.227226 0.629772,-13.739099 2.24908,-6.848986 0.225743,0.844941 0.362204,1.873173 0.381577,2.92418 m -0.0086,0 c -0.539782,1.759212 -0.154387,-3.627902 0.589591,-0.608751 0.204148,6.726008 -3.031766,-0.595401 -0.803548,-2.520706 2.30623,-1.308932 1.703621,9.586959 -0.408112,7.054263 -2.766779,-3.227226 0.629772,-13.739099 2.24908,-6.848986 0.225743,0.844941 0.362204,1.873173 0.381577,2.92418 m -0.0086,0 c -0.539782,1.759212 -0.154387,-3.627902 0.589591,-0.608751 0.204148,6.726008 -3.031766,-0.595401 -0.803548,-2.520706 2.30623,-1.308932 1.703621,9.586959 -0.408112,7.054263 -2.766779,-3.227226 0.629772,-13.739099 2.24908,-6.848986 0.225743,0.844941 0.362204,1.873173 0.381577,2.92418 m 1.991412,0 c -0.539782,1.759212 -0.154387,-3.627902 0.589591,-0.608751 0.204148,6.726008 -3.031766,-0.595401 -0.803548,-2.520706 2.30623,-1.308932 1.703621,9.586959 -0.408112,7.054263 -2.766779,-3.227226 0.629772,-13.739099 2.24908,-6.848986 0.225743,0.844941 0.362204,1.873173 0.381577,2.92418 m -0.0086,0 c -0.539782,1.759212 -0.154387,-3.627902 0.589591,-0.608751 0.204148,6.726008 -3.031766,-0.595401 -0.803548,-2.520706 2.30623,-1.308932 1.703621,9.586959 -0.408112,7.054263 -2.766779,-3.227226 0.629772,-13.739099 2.24908,-6.848986 0.225743,0.844941 0.362204,1.873173 0.381577,2.92418 m 1.991412,0 c -0.539782,1.759212 -0.154387,-3.627902 0.589591,-0.608751 0.204148,6.726008 -3.031766,-0.595401 -0.803548,-2.520706 2.30623,-1.308932 1.703621,9.586959 -0.408112,7.054263 -2.766779,-3.227226 0.629772,-13.739099 2.24908,-6.848986 0.225743,0.844941 0.362204,1.873173 0.381577,2.92418 m -0.0086,0 c -0.539782,1.759212 -0.154387,-3.627902 0.589591,-0.608751 0.204148,6.726008 -3.031766,-0.595401 -0.803548,-2.520706 2.30623,-1.308932 1.703621,9.586959 -0.408112,7.054263 -2.766779,-3.227226 0.629772,-13.739099 2.24908,-6.848986 0.225743,0.844941 0.362204,1.873173 0.381577,2.92418 m -0.0086,0 c -0.539782,1.759212 -0.154387,-3.627902 0.589591,-0.608751 0.204148,6.726008 -3.031766,-0.595401 -0.803548,-2.520706 2.30623,-1.308932 1.703621,9.586959 -0.408112,7.054263 -2.766779,-3.227226 0.629772,-13.739099 2.24908,-6.848986 0.225743,0.844941 0.362204,1.873173 0.381577,2.92418 m -0.0086,0 c -0.539782,1.759212 -0.154387,-3.627902 0.589591,-0.608751 0.204148,6.726008 -3.031766,-0.595401 -0.803548,-2.520706 2.30623,-1.308932 1.703621,9.586959 -0.408112,7.054263 -2.766779,-3.227226 0.629772,-13.739099 2.24908,-6.848986 0.225743,0.844941 0.362204,1.873173 0.381577,2.92418 M 64.991747,32.000343 c -0.539782,1.759212 -0.154387,-3.627902 0.589591,-0.608751 0.204148,6.726008 -3.031766,-0.595401 -0.803548,-2.520706 2.30623,-1.308932 1.703621,9.586959 -0.408112,7.054263 -2.766779,-3.227226 0.629772,-13.739099 2.24908,-6.848986 0.225743,0.844941 0.362204,1.873173 0.381577,2.92418 m 22.991412,8.000001 c -0.539782,1.759212 -0.154387,-3.627902 0.589591,-0.608751 0.204148,6.726008 -3.031766,-0.595401 -0.803548,-2.520706 2.30623,-1.308932 1.703621,9.586959 -0.408112,7.054263 -2.766779,-3.227226 0.629772,-13.739099 2.24908,-6.848986 0.225743,0.844941 0.362204,1.873173 0.381577,2.92418 m -5.008588,0 c -0.539782,1.759212 -0.154387,-3.627902 0.589591,-0.608751 0.204148,6.726008 -3.031766,-0.595401 -0.803548,-2.520706 2.30623,-1.308932 1.703621,9.586959 -0.408112,7.054263 -2.766779,-3.227226 0.629772,-13.739099 2.24908,-6.848986 0.225743,0.844941 0.362204,1.873173 0.381577,2.92418 m -4.008588,0 c -0.539782,1.759212 -0.154387,-3.627902 0.589591,-0.608751 0.204148,6.726008 -3.031766,-0.595401 -0.803548,-2.520706 2.30623,-1.308932 1.703621,9.586959 -0.408112,7.054263 -2.766779,-3.227226 0.629772,-13.739099 2.24908,-6.848986 0.225743,0.844941 0.362204,1.873173 0.381577,2.92418 m -7.008588,0 c -0.539782,1.759212 -0.154387,-3.627902 0.589591,-0.608751 0.204148,6.726008 -3.031766,-0.595401 -0.803548,-2.520706 2.30623,-1.308932 1.703621,9.586959 -0.408112,7.054263 -2.766779,-3.227226 0.629772,-13.739099 2.24908,-6.848986 0.225743,0.844941 0.362204,1.873173 0.381577,2.92418 m -4.008588,0 c -0.539782,1.759212 -0.154387,-3.627902 0.589591,-0.608751 0.204148,6.726008 -3.031766,-0.595401 -0.803548,-2.520706 2.30623,-1.308932 1.703621,9.586959 -0.408112,7.054263 -2.766779,-3.227226 0.629772,-13.739099 2.24908,-6.848986 0.225743,0.844941 0.362204,1.873173 0.381577,2.92418 m -4.492936,0 c -0.539782,1.759212 -0.154387,-3.627902 0.589591,-0.608751 0.204148,6.726008 -3.031766,-0.595401 -0.803548,-2.520706 2.30623,-1.308932 1.703621,9.586959 -0.408112,7.054263 -2.766779,-3.227226 0.629772,-13.739099 2.24908,-6.848986 0.225743,0.844941 0.362204,1.873173 0.381577,2.92418 m -4.52424,0 c -0.539782,1.759212 -0.154387,-3.627902 0.589591,-0.608751 0.204148,6.726008 -3.031766,-0.595401 -0.803548,-2.520706 2.30623,-1.308932 1.703621,9.586959 -0.408112,7.054263 -2.766779,-3.227226 0.629772,-13.739099 2.24908,-6.848986 0.225743,0.844941 0.362204,1.873173 0.381577,2.92418 m -6.008588,0 c -0.539782,1.759212 -0.154387,-3.627902 0.589591,-0.608751 0.204148,6.726008 -3.031766,-0.595401 -0.803548,-2.520706 2.30623,-1.308932 1.703621,9.586959 -0.408112,7.054263 -2.766779,-3.227226 0.629772,-13.739099 2.24908,-6.848986 0.225743,0.844941 0.362204,1.873173 0.381577,2.92418 m -4.008588,0 c -0.539782,1.759212 -0.154387,-3.627902 0.589591,-0.608751 0.204148,6.726008 -3.031766,-0.595401 -0.803548,-2.520706 2.30623,-1.308932 1.703621,9.586959 -0.408112,7.054263 -2.766779,-3.227226 0.629772,-13.739099 2.24908,-6.848986 0.225743,0.844941 0.362204,1.873173 0.381577,2.92418 m -4.008588,0 c -0.539782,1.759212 -0.154387,-3.627902 0.589591,-0.608751 0.204148,6.726008 -3.031766,-0.595401 -0.803548,-2.520706 2.30623,-1.308932 1.703621,9.586959 -0.408112,7.054263 -2.766779,-3.227226 0.629772,-13.739099 2.24908,-6.848986 0.225743,0.844941 0.362204,1.873173 0.381577,2.92418 m -4.506707,0 c -0.539782,1.759212 -0.154387,-3.627902 0.589591,-0.608751 0.204148,6.726008 -3.031766,-0.595401 -0.803548,-2.520706 2.30623,-1.308932 1.703621,9.586959 -0.408112,7.054263 -2.766779,-3.227226 0.629772,-13.739099 2.24908,-6.848986 0.225743,0.844941 0.362204,1.873173 0.381577,2.92418 m -9.510469,2 c -0.539782,1.759212 -0.154387,-3.627902 0.589591,-0.608751 0.204148,6.726008 -3.031766,-0.595401 -0.803548,-2.520706 2.30623,-1.308932 1.703621,9.586959 -0.408112,7.054263 -2.766779,-3.227226 0.629772,-13.739099 2.24908,-6.848986 0.225743,0.844941 0.362204,1.873173 0.381577,2.92418 M 95.991747,28.000343 c -0.539782,1.759212 -0.154387,-3.627902 0.589591,-0.608751 0.204148,6.726008 -3.031766,-0.595401 -0.803548,-2.520706 2.30623,-1.308932 1.703621,9.586959 -0.408112,7.054263 -2.766779,-3.227226 0.629772,-13.739099 2.24908,-6.848986 0.225743,0.844941 0.362204,1.873173 0.381577,2.92418 m -4.008588,0 c -0.539782,1.759212 -0.154387,-3.627902 0.589591,-0.608751 0.204148,6.726008 -3.031766,-0.595401 -0.803548,-2.520706 2.30623,-1.308932 1.703621,9.586959 -0.408112,7.054263 -2.766779,-3.227226 0.629772,-13.739099 2.24908,-6.848986 0.225743,0.844941 0.362204,1.873173 0.381577,2.92418 m -4.008588,0 c -0.539782,1.759212 -0.154387,-3.627902 0.589591,-0.608751 0.204148,6.726008 -3.031766,-0.595401 -0.803548,-2.520706 2.30623,-1.308932 1.703621,9.586959 -0.408112,7.054263 -2.766779,-3.227226 0.629772,-13.739099 2.24908,-6.848986 0.225743,0.844941 0.362204,1.873173 0.381577,2.92418 m -4.008588,0 c -0.539782,1.759212 -0.154387,-3.627902 0.589591,-0.608751 0.204148,6.726008 -3.031766,-0.595401 -0.803548,-2.520706 2.30623,-1.308932 1.703621,9.586959 -0.408112,7.054263 -2.766779,-3.227226 0.629772,-13.739099 2.24908,-6.848986 0.225743,0.844941 0.362204,1.873173 0.381577,2.92418 m -4.008588,0 c -0.539782,1.759212 -0.154387,-3.627902 0.589591,-0.608751 0.204148,6.726008 -3.031766,-0.595401 -0.803548,-2.520706 2.30623,-1.308932 1.703621,9.586959 -0.408112,7.054263 -2.766779,-3.227226 0.629772,-13.739099 2.24908,-6.848986 0.225743,0.844941 0.362204,1.873173 0.381577,2.92418 m -4.008588,0 c -0.539782,1.759212 -0.154387,-3.627902 0.589591,-0.608751 0.204148,6.726008 -3.031766,-0.595401 -0.803548,-2.520706 2.30623,-1.308932 1.703621,9.586959 -0.408112,7.054263 -2.766779,-3.227226 0.629772,-13.739099 2.24908,-6.848986 0.225743,0.844941 0.362204,1.873173 0.381577,2.92418 m -4.008588,0 c -0.539782,1.759212 -0.154387,-3.627902 0.589591,-0.608751 0.204148,6.726008 -3.031766,-0.595401 -0.803548,-2.520706 2.30623,-1.308932 1.703621,9.586959 -0.408112,7.054263 -2.766779,-3.227226 0.629772,-13.739099 2.24908,-6.848986 0.225743,0.844941 0.362204,1.873173 0.381577,2.92418 m -4.008588,0 c -0.539782,1.759212 -0.154387,-3.627902 0.589591,-0.608751 0.204148,6.726008 -3.031766,-0.595401 -0.803548,-2.520706 2.30623,-1.308932 1.703621,9.586959 -0.408112,7.054263 -2.766779,-3.227226 0.629772,-13.739099 2.24908,-6.848986 0.225743,0.844941 0.362204,1.873173 0.381577,2.92418 m -4.008588,0 c -0.539782,1.759212 -0.154387,-3.627902 0.589591,-0.608751 0.204148,6.726008 -3.031766,-0.595401 -0.803548,-2.520706 2.30623,-1.308932 1.703621,9.586959 -0.408112,7.054263 -2.766779,-3.227226 0.629772,-13.739099 2.24908,-6.848986 0.225743,0.844941 0.362204,1.873173 0.381577,2.92418 m -5.008588,0 c -0.539782,1.759212 -0.154387,-3.627902 0.589591,-0.608751 0.204148,6.726008 -3.031766,-0.595401 -0.803548,-2.520706 2.30623,-1.308932 1.703621,9.586959 -0.408112,7.054263 -2.766779,-3.227226 0.629772,-13.739099 2.24908,-6.848986 0.225743,0.844941 0.362204,1.873173 0.381577,2.92418 m -5.008588,0 c -0.539782,1.759212 -0.154387,-3.627902 0.589591,-0.608751 0.204148,6.726008 -3.031766,-0.595401 -0.803548,-2.520706 2.30623,-1.308932 1.703621,9.586959 -0.408112,7.054263 -2.766779,-3.227226 0.629772,-13.739099 2.24908,-6.848986 0.225743,0.844941 0.362204,1.873173 0.381577,2.92418 m -5.008588,0 c -0.539782,1.759212 -0.154387,-3.627902 0.589591,-0.608751 0.204148,6.726008 -3.031766,-0.595401 -0.803548,-2.520706 2.30623,-1.308932 1.703621,9.586959 -0.408112,7.054263 -2.766779,-3.227226 0.629772,-13.739099 2.24908,-6.848986 0.225743,0.844941 0.362204,1.873173 0.381577,2.92418 m -4.008588,2 c -0.539782,1.759212 -0.154387,-3.627902 0.589591,-0.608751 0.204148,6.726008 -3.031766,-0.595401 -0.803548,-2.520706 2.30623,-1.308932 1.703621,9.586959 -0.408112,7.054263 -2.766779,-3.227226 0.629772,-13.739099 2.24908,-6.848986 0.225743,0.844941 0.362204,1.873173 0.381577,2.92418 m -5.008588,1 c -0.539782,1.759212 -0.154387,-3.627902 0.589591,-0.608751 0.204148,6.726008 -3.031766,-0.595401 -0.803548,-2.520706 2.30623,-1.308932 1.703621,9.586959 -0.408112,7.054263 -2.766779,-3.227226 0.629772,-13.739099 2.24908,-6.848986 0.225743,0.844941 0.362204,1.873173 0.381577,2.92418 m -4.008588,2 c -0.539782,1.759212 -0.154387,-3.627902 0.589591,-0.608751 0.204148,6.726008 -3.031766,-0.595401 -0.803548,-2.520706 2.30623,-1.308932 1.703621,9.586959 -0.408112,7.054263 -2.766779,-3.227226 0.629772,-13.739099 2.24908,-6.848986 0.225743,0.844941 0.362204,1.873173 0.381577,2.92418 m -5.008588,2.000001 c -0.539782,1.759212 -0.154387,-3.627902 0.589591,-0.608751 0.204148,6.726008 -3.031766,-0.595401 -0.803548,-2.520706 2.30623,-1.308932 1.703621,9.586959 -0.408112,7.054263 -2.766779,-3.227226 0.629772,-13.739099 2.24908,-6.848986 0.225743,0.844941 0.362204,1.873173 0.381577,2.92418 m -5.008588,2 c -0.539782,1.759212 -0.154387,-3.627902 0.589591,-0.608751 0.204148,6.726008 -3.031766,-0.595401 -0.803548,-2.520706 2.30623,-1.308932 1.703621,9.586959 -0.408112,7.054263 -2.766779,-3.227226 0.629772,-13.739099 2.24908,-6.848986 0.225743,0.844941 0.362204,1.873173 0.381577,2.92418 m 41.991415,-8.000001 c -0.53979,1.759212 -0.15439,-3.627902 0.58959,-0.608751 0.20415,6.726008 -3.031768,-0.595401 -0.80355,-2.520706 2.30623,-1.308932 1.70362,9.586959 -0.40811,7.054263 -2.766781,-3.227226 0.62977,-13.739099 2.24908,-6.848986 0.22574,0.844941 0.3622,1.873173 0.38157,2.92418 m -4.008583,0 c -0.539782,1.759212 -0.154387,-3.627902 0.589593,-0.608751 0.20415,6.726008 -3.031768,-0.595401 -0.80355,-2.520706 2.30623,-1.308932 1.70362,9.586959 -0.408112,7.054263 -2.766779,-3.227226 0.629772,-13.739099 2.249082,-6.848986 0.22574,0.844941 0.3622,1.873173 0.38157,2.92418 m -4.008583,0 c -0.539782,1.759212 -0.154387,-3.627902 0.589591,-0.608751 0.204148,6.726008 -3.031766,-0.595401 -0.803548,-2.520706 2.30623,-1.308932 1.703621,9.586959 -0.408112,7.054263 -2.766779,-3.227226 0.629772,-13.739099 2.24908,-6.848986 0.225743,0.844941 0.362204,1.873173 0.381572,2.92418 m -4.008583,0 c -0.539782,1.759212 -0.154387,-3.627902 0.589591,-0.608751 0.204148,6.726008 -3.031766,-0.595401 -0.803548,-2.520706 2.30623,-1.308932 1.703621,9.586959 -0.408112,7.054263 -2.766779,-3.227226 0.629772,-13.739099 2.24908,-6.848986 0.225743,0.844941 0.362204,1.873173 0.381577,2.92418 m -4.008588,0 c -0.539782,1.759212 -0.154387,-3.627902 0.589591,-0.608751 0.204148,6.726008 -3.031766,-0.595401 -0.803548,-2.520706 2.30623,-1.308932 1.703621,9.586959 -0.408112,7.054263 -2.766779,-3.227226 0.629772,-13.739099 2.24908,-6.848986 0.225743,0.844941 0.362204,1.873173 0.381577,2.92418 m -4.008588,0 c -0.539782,1.759212 -0.154387,-3.627902 0.589591,-0.608751 0.204148,6.726008 -3.031766,-0.595401 -0.803548,-2.520706 2.30623,-1.308932 1.703621,9.586959 -0.408112,7.054263 -2.766779,-3.227226 0.629772,-13.739099 2.24908,-6.848986 0.225743,0.844941 0.362204,1.873173 0.381577,2.92418 m -4.008588,0 c -0.539782,1.759212 -0.154387,-3.627902 0.589591,-0.608751 0.204148,6.726008 -3.031766,-0.595401 -0.803548,-2.520706 2.30623,-1.308932 1.703621,9.586959 -0.408112,7.054263 -2.766779,-3.227226 0.629772,-13.739099 2.24908,-6.848986 0.225743,0.844941 0.362204,1.873173 0.381577,2.92418 m -4.008588,0 c -0.539782,1.759212 -0.154387,-3.627902 0.589591,-0.608751 0.204148,6.726008 -3.031766,-0.595401 -0.803548,-2.520706 2.30623,-1.308932 1.703621,9.586959 -0.408112,7.054263 -2.766779,-3.227226 0.629772,-13.739099 2.24908,-6.848986 0.225743,0.844941 0.362204,1.873173 0.381577,2.92418 m -4.008588,0 c -0.539782,1.759212 -0.154387,-3.627902 0.589591,-0.608751 0.204148,6.726008 -3.031766,-0.595401 -0.803548,-2.520706 2.30623,-1.308932 1.703621,9.586959 -0.408112,7.054263 -2.766779,-3.227226 0.629772,-13.739099 2.24908,-6.848986 0.225743,0.844941 0.362204,1.873173 0.381577,2.92418 m -4.008588,0 c -0.539782,1.759212 -0.154387,-3.627902 0.589591,-0.608751 0.204148,6.726008 -3.031766,-0.595401 -0.803548,-2.520706 2.30623,-1.308932 1.703621,9.586959 -0.408112,7.054263 -2.766779,-3.227226 0.629772,-13.739099 2.24908,-6.848986 0.225743,0.844941 0.362204,1.873173 0.381577,2.92418 m -4.008588,0 c -0.539782,1.759212 -0.154387,-3.627902 0.589591,-0.608751 0.204148,6.726008 -3.031766,-0.595401 -0.803548,-2.520706 2.30623,-1.308932 1.703621,9.586959 -0.408112,7.054263 -2.766779,-3.227226 0.629772,-13.739099 2.24908,-6.848986 0.225743,0.844941 0.362204,1.873173 0.381577,2.92418 m -4.008588,0 c -0.539782,1.759212 -0.154387,-3.627902 0.589591,-0.608751 0.204148,6.726008 -3.031766,-0.595401 -0.803548,-2.520706 2.30623,-1.308932 1.703621,9.586959 -0.408112,7.054263 -2.766779,-3.227226 0.629772,-13.739099 2.24908,-6.848986 0.225743,0.844941 0.362204,1.873173 0.381577,2.92418 m -3.640798,0 c -0.539782,1.759212 -0.154387,-3.627902 0.589591,-0.608751 0.204148,6.726008 -3.031766,-0.595401 -0.803548,-2.520706 2.30623,-1.308932 1.703621,9.586959 -0.408112,7.054263 -2.766779,-3.227226 0.629772,-13.739099 2.24908,-6.848986 0.225743,0.844941 0.362204,1.873173 0.381577,2.92418 m -4.019423,0 c -0.539782,1.759212 -0.154387,-3.627902 0.589591,-0.608751 0.204148,6.726008 -3.031766,-0.595401 -0.803548,-2.520706 2.30623,-1.308932 1.703621,9.586959 -0.408112,7.054263 -2.766779,-3.227226 0.629772,-13.739099 2.24908,-6.848986 0.225743,0.844941 0.362204,1.873173 0.381577,2.92418 m -3.951259,0 c -0.539782,1.759212 -0.154387,-3.627902 0.589591,-0.608751 0.204148,6.726008 -3.031766,-0.595401 -0.803548,-2.520706 2.30623,-1.308932 1.703621,9.586959 -0.408112,7.054263 -2.766779,-3.227226 0.629772,-13.739099 2.24908,-6.848986 0.225743,0.844941 0.362204,1.873173 0.381577,2.92418 m -3.849013,0 c -0.539782,1.759212 -0.154387,-3.627902 0.589591,-0.608751 0.204148,6.726008 -3.031766,-0.595401 -0.803548,-2.520706 2.30623,-1.308932 1.703621,9.586959 -0.408112,7.054263 -2.766779,-3.227226 0.629772,-13.739099 2.24908,-6.848986 0.225743,0.844941 0.362204,1.873173 0.381577,2.92418 m -4.019423,0 c -0.539782,1.759212 -0.154387,-3.627902 0.589591,-0.608751 0.204148,6.726008 -3.031766,-0.595401 -0.803548,-2.520706 2.30623,-1.308932 1.703621,9.586959 -0.408112,7.054263 -2.766779,-3.227226 0.629772,-13.739099 2.24908,-6.848986 0.225743,0.844941 0.362204,1.873173 0.381577,2.92418 m -3.917177,0 c -0.539782,1.759212 -0.154387,-3.627902 0.589591,-0.608751 0.204148,6.726008 -3.031766,-0.595401 -0.803548,-2.520706 2.30623,-1.308932 1.703621,9.586959 -0.408112,7.054263 -2.766779,-3.227226 0.629772,-13.739099 2.24908,-6.848986 0.225743,0.844941 0.362204,1.873173 0.381577,2.92418 m 24.336977,5 c -0.539782,1.759212 -0.154387,-3.627902 0.589591,-0.608751 0.204148,6.726008 -3.031766,-0.595401 -0.803548,-2.520706 2.30623,-1.308932 1.703621,9.586959 -0.408112,7.054263 -2.766779,-3.227226 0.629772,-13.739099 2.24908,-6.848986 0.225743,0.844941 0.362204,1.873173 0.381577,2.92418 m -4.008588,0 c -0.539782,1.759212 -0.154387,-3.627902 0.589591,-0.608751 0.204148,6.726008 -3.031766,-0.595401 -0.803548,-2.520706 2.30623,-1.308932 1.703621,9.586959 -0.408112,7.054263 -2.766779,-3.227226 0.629772,-13.739099 2.24908,-6.848986 0.225743,0.844941 0.362204,1.873173 0.381577,2.92418 m -4.008588,0 c -0.539782,1.759212 -0.154387,-3.627902 0.589591,-0.608751 0.204148,6.726008 -3.031766,-0.595401 -0.803548,-2.520706 2.30623,-1.308932 1.703621,9.586959 -0.408112,7.054263 -2.766779,-3.227226 0.629772,-13.739099 2.24908,-6.848986 0.225743,0.844941 0.362204,1.873173 0.381577,2.92418 m -4.008588,0 c -0.539782,1.759212 -0.154387,-3.627902 0.589591,-0.608751 0.204148,6.726008 -3.031766,-0.595401 -0.803548,-2.520706 2.30623,-1.308932 1.703621,9.586959 -0.408112,7.054263 -2.766779,-3.227226 0.629772,-13.739099 2.24908,-6.848986 0.225743,0.844941 0.362204,1.873173 0.381577,2.92418 m -4.008588,0 c -0.539782,1.759212 -0.154387,-3.627902 0.589591,-0.608751 0.204148,6.726008 -3.031766,-0.595401 -0.803548,-2.520706 2.30623,-1.308932 1.703621,9.586959 -0.408112,7.054263 -2.766779,-3.227226 0.629772,-13.739099 2.24908,-6.848986 0.225743,0.844941 0.362204,1.873173 0.381577,2.92418 m -4.008588,0 c -0.539782,1.759212 -0.154387,-3.627902 0.589591,-0.608751 0.204148,6.726008 -3.031766,-0.595401 -0.803548,-2.520706 2.30623,-1.308932 1.703621,9.586959 -0.408112,7.054263 -2.766779,-3.227226 0.629772,-13.739099 2.24908,-6.848986 0.225743,0.844941 0.362204,1.873173 0.381577,2.92418 m -4.008588,0 c -0.539782,1.759212 -0.154387,-3.627902 0.589591,-0.608751 0.204148,6.726008 -3.031766,-0.595401 -0.803548,-2.520706 2.30623,-1.308932 1.703621,9.586959 -0.408112,7.054263 -2.766779,-3.227226 0.629772,-13.739099 2.24908,-6.848986 0.225743,0.844941 0.362204,1.873173 0.381577,2.92418 m -4.008588,0 c -0.539782,1.759212 -0.154387,-3.627902 0.589591,-0.608751 0.204148,6.726008 -3.031766,-0.595401 -0.803548,-2.520706 2.30623,-1.308932 1.703621,9.586959 -0.408112,7.054263 -2.766779,-3.227226 0.629772,-13.739099 2.24908,-6.848986 0.225743,0.844941 0.362204,1.873173 0.381577,2.92418 m -4.008588,0 c -0.539782,1.759212 -0.154387,-3.627902 0.589591,-0.608751 0.204148,6.726008 -3.031766,-0.595401 -0.803548,-2.520706 2.30623,-1.308932 1.703621,9.586959 -0.408112,7.054263 -2.766779,-3.227226 0.629772,-13.739099 2.24908,-6.848986 0.225743,0.844941 0.362204,1.873173 0.381577,2.92418 m -4.008588,0 c -0.539782,1.759212 -0.154387,-3.627902 0.589591,-0.608751 0.204148,6.726008 -3.031766,-0.595401 -0.803548,-2.520706 2.30623,-1.308932 1.703621,9.586959 -0.408112,7.054263 -2.766779,-3.227226 0.629772,-13.739099 2.24908,-6.848986 0.225743,0.844941 0.362204,1.873173 0.381577,2.92418 m -4.008588,0 c -0.539782,1.759212 -0.154387,-3.627902 0.589591,-0.608751 0.204148,6.726008 -3.031766,-0.595401 -0.803548,-2.520706 2.30623,-1.308932 1.703621,9.586959 -0.408112,7.054263 -2.766779,-3.227226 0.629772,-13.739099 2.24908,-6.848986 0.225743,0.844941 0.362204,1.873173 0.381577,2.92418 m -4.008588,0 c -0.539782,1.759212 -0.154387,-3.627902 0.589591,-0.608751 0.204148,6.726008 -3.031766,-0.595401 -0.803548,-2.520706 2.30623,-1.308932 1.703621,9.586959 -0.408112,7.054263 -2.766779,-3.227226 0.629772,-13.739099 2.24908,-6.848986 0.225743,0.844941 0.362204,1.873173 0.381577,2.92418 m -4.008588,0 c -0.539782,1.759212 -0.154387,-3.627902 0.589591,-0.608751 0.204148,6.726008 -3.031766,-0.595401 -0.803548,-2.520706 2.30623,-1.308932 1.703621,9.586959 -0.408112,7.054263 -2.766779,-3.227226 0.629772,-13.739099 2.24908,-6.848986 0.225743,0.844941 0.362204,1.873173 0.381577,2.92418 m -4.008588,0 c -0.539782,1.759212 -0.154387,-3.627902 0.589591,-0.608751 0.204148,6.726008 -3.031766,-0.595401 -0.803548,-2.520706 2.30623,-1.308932 1.703621,9.586959 -0.408112,7.054263 -2.766779,-3.227226 0.629772,-13.739099 2.24908,-6.848986 0.225743,0.844941 0.362204,1.873173 0.381577,2.92418 M 66.991747,33.55866 c -0.539782,1.759212 -0.154387,-3.627902 0.589591,-0.608751 0.204148,6.726008 -3.031766,-0.595401 -0.803548,-2.520706 2.30623,-1.308932 1.703621,9.586959 -0.408112,7.054263 -2.766779,-3.227226 0.629772,-13.739099 2.24908,-6.848986 0.225743,0.844941 0.362204,1.873173 0.381577,2.92418 m -4.008588,-0.204491 c -0.539782,1.759212 -0.154387,-3.627902 0.589591,-0.608751 0.204148,6.726008 -3.031766,-0.595401 -0.803548,-2.520706 2.30623,-1.308932 1.703621,9.586959 -0.408112,7.054263 -2.766779,-3.227226 0.629772,-13.739099 2.24908,-6.848986 0.225743,0.844941 0.362204,1.873173 0.381577,2.92418 m -4.008588,0.03408 c -0.539782,1.759212 -0.154387,-3.627902 0.589591,-0.608751 0.204148,6.726008 -3.031766,-0.595401 -0.803548,-2.520706 2.30623,-1.308932 1.703621,9.586959 -0.408112,7.054263 -2.766779,-3.227226 0.629772,-13.739099 2.24908,-6.848986 0.225743,0.844941 0.362204,1.873173 0.381577,2.92418 m -4.008588,0.06816 c -0.539782,1.759212 -0.154387,-3.627902 0.589591,-0.608751 0.204148,6.726008 -3.031766,-0.595401 -0.803548,-2.520706 2.30623,-1.308932 1.703621,9.586959 -0.408112,7.054263 -2.766779,-3.227226 0.629772,-13.739099 2.24908,-6.848986 0.225743,0.844941 0.362204,1.873173 0.381577,2.92418 m 27.991412,4.543929 c -0.539782,1.759212 -0.154387,-3.627902 0.589591,-0.608751 0.204148,6.726008 -3.031766,-0.595401 -0.803548,-2.520706 2.30623,-1.308932 1.703621,9.586959 -0.408112,7.054263 -2.766779,-3.227226 0.629772,-13.739099 2.24908,-6.848986 0.225743,0.844941 0.362204,1.873173 0.381577,2.92418 m -4.008588,0 c -0.539782,1.759212 -0.154387,-3.627902 0.589591,-0.608751 0.204148,6.726008 -3.031766,-0.595401 -0.803548,-2.520706 2.30623,-1.308932 1.703621,9.586959 -0.408112,7.054263 -2.766779,-3.227226 0.629772,-13.739099 2.24908,-6.848986 0.225743,0.844941 0.362204,1.873173 0.381577,2.92418 m -4.008588,0 c -0.539782,1.759212 -0.154387,-3.627902 0.589591,-0.608751 0.204148,6.726008 -3.031766,-0.595401 -0.803548,-2.520706 2.30623,-1.308932 1.703621,9.586959 -0.408112,7.054263 -2.766779,-3.227226 0.629772,-13.739099 2.24908,-6.848986 0.225743,0.844941 0.362204,1.873173 0.381577,2.92418 m -4.008588,0 c -0.539782,1.759212 -0.154387,-3.627902 0.589591,-0.608751 0.204148,6.726008 -3.031766,-0.595401 -0.803548,-2.520706 2.30623,-1.308932 1.703621,9.586959 -0.408112,7.054263 -2.766779,-3.227226 0.629772,-13.739099 2.24908,-6.848986 0.225743,0.844941 0.362204,1.873173 0.381577,2.92418 m -4.008588,0 c -0.539782,1.759212 -0.154387,-3.627902 0.589591,-0.608751 0.204148,6.726008 -3.031766,-0.595401 -0.803548,-2.520706 2.30623,-1.308932 1.703621,9.586959 -0.408112,7.054263 -2.766779,-3.227226 0.629772,-13.739099 2.24908,-6.848986 0.225743,0.844941 0.362204,1.873173 0.381577,2.92418 m -4.008588,0 c -0.539782,1.759212 -0.154387,-3.627902 0.589591,-0.608751 0.204148,6.726008 -3.031766,-0.595401 -0.803548,-2.520706 2.30623,-1.308932 1.703621,9.586959 -0.408112,7.054263 -2.766779,-3.227226 0.629772,-13.739099 2.24908,-6.848986 0.225743,0.844941 0.362204,1.873173 0.381577,2.92418 m -4.008588,0 c -0.539782,1.759212 -0.154387,-3.627902 0.589591,-0.608751 0.204148,6.726008 -3.031766,-0.595401 -0.803548,-2.520706 2.30623,-1.308932 1.703621,9.586959 -0.408112,7.054263 -2.766779,-3.227226 0.629772,-13.739099 2.24908,-6.848986 0.225743,0.844941 0.362204,1.873173 0.381577,2.92418 m -4.008588,0 c -0.539782,1.759212 -0.154387,-3.627902 0.589591,-0.608751 0.204148,6.726008 -3.031766,-0.595401 -0.803548,-2.520706 2.30623,-1.308932 1.703621,9.586959 -0.408112,7.054263 -2.766779,-3.227226 0.629772,-13.739099 2.24908,-6.848986 0.225743,0.844941 0.362204,1.873173 0.381577,2.92418 m -4.008588,0 c -0.539782,1.759212 -0.154387,-3.627902 0.589591,-0.608751 0.204148,6.726008 -3.031766,-0.595401 -0.803548,-2.520706 2.30623,-1.308932 1.703621,9.586959 -0.408112,7.054263 -2.766779,-3.227226 0.629772,-13.739099 2.24908,-6.848986 0.225743,0.844941 0.362204,1.873173 0.381577,2.92418 m -4.008588,0 c -0.539782,1.759212 -0.154387,-3.627902 0.589591,-0.608751 0.204148,6.726008 -3.031766,-0.595401 -0.803548,-2.520706 2.30623,-1.308932 1.703621,9.586959 -0.408112,7.054263 -2.766779,-3.227226 0.629772,-13.739099 2.24908,-6.848986 0.225743,0.844941 0.362204,1.873173 0.381577,2.92418 m -4.008588,0 c -0.539782,1.759212 -0.154387,-3.627902 0.589591,-0.608751 0.204148,6.726008 -3.031766,-0.595401 -0.803548,-2.520706 2.30623,-1.308932 1.703621,9.586959 -0.408112,7.054263 -2.766779,-3.227226 0.629772,-13.739099 2.24908,-6.848986 0.225743,0.844941 0.362204,1.873173 0.381577,2.92418 m -4.008588,0 c -0.539782,1.759212 -0.154387,-3.627902 0.589591,-0.608751 0.204148,6.726008 -3.031766,-0.595401 -0.803548,-2.520706 2.30623,-1.308932 1.703621,9.586959 -0.408112,7.054263 -2.766779,-3.227226 0.629772,-13.739099 2.24908,-6.848986 0.225743,0.844941 0.362204,1.873173 0.381577,2.92418 m -4.008588,0 c -0.539782,1.759212 -0.154387,-3.627902 0.589591,-0.608751 0.204148,6.726008 -3.031766,-0.595401 -0.803548,-2.520706 2.30623,-1.308932 1.703621,9.586959 -0.408112,7.054263 -2.766779,-3.227226 0.629772,-13.739099 2.24908,-6.848986 0.225743,0.844941 0.362204,1.873173 0.381577,2.92418 m -4.008588,0 c -0.539782,1.759212 -0.154387,-3.627902 0.589591,-0.608751 0.204148,6.726008 -3.031766,-0.595401 -0.803548,-2.520706 2.30623,-1.308932 1.703621,9.586959 -0.408112,7.054263 -2.766779,-3.227226 0.629772,-13.739099 2.24908,-6.848986 0.225743,0.844941 0.362204,1.873173 0.381577,2.92418 m -4.008588,0.397954 c -0.539782,1.759212 -0.154387,-3.627902 0.589591,-0.608751 0.204148,6.726008 -3.031766,-0.595401 -0.803548,-2.520706 2.30623,-1.308932 1.703621,9.586959 -0.408112,7.054263 -2.766779,-3.227226 0.629772,-13.739099 2.24908,-6.848986 0.225743,0.844941 0.362204,1.873173 0.381577,2.92418 m -4.008588,0.06816 c -0.539782,1.759212 -0.154387,-3.627902 0.589591,-0.608751 0.204148,6.726008 -3.031766,-0.595401 -0.803548,-2.520706 2.30623,-1.308932 1.703621,9.586959 -0.408112,7.054263 -2.766779,-3.227226 0.629772,-13.739099 2.24908,-6.848986 0.225743,0.844941 0.362204,1.873173 0.381577,2.92418 m -4.008588,-0.102246 c -0.539782,1.759212 -0.154387,-3.627902 0.589591,-0.608751 0.204148,6.726008 -3.031766,-0.595401 -0.803548,-2.520706 2.30623,-1.308932 1.703621,9.586959 -0.408112,7.054263 -2.766779,-3.227226 0.629772,-13.739099 2.24908,-6.848986 0.225743,0.844941 0.362204,1.873173 0.381577,2.92418 m -4.008588,0.136328 c -0.539782,1.759212 -0.154387,-3.627902 0.589591,-0.608751 0.204148,6.726008 -3.031766,-0.595401 -0.803548,-2.520706 2.30623,-1.308932 1.703621,9.586959 -0.408112,7.054263 -2.766779,-3.227226 0.629772,-13.739099 2.24908,-6.848986 0.225743,0.844941 0.362204,1.873173 0.381577,2.92418 m -4.008588,-0.06816 c -0.539782,1.759212 -0.154387,-3.627902 0.589591,-0.608751 0.204148,6.726008 -3.031766,-0.595401 -0.803548,-2.520706 2.30623,-1.308932 1.703621,9.586959 -0.408112,7.054263 -2.766779,-3.227226 0.629772,-13.739099 2.24908,-6.848986 0.225743,0.844941 0.362204,1.873173 0.381577,2.92418 M 113.99175,28.000343 c -0.53979,1.759212 -0.15439,-3.627902 0.58959,-0.608751 0.20415,6.726008 -3.03177,-0.595401 -0.80355,-2.520706 2.30623,-1.308932 1.70362,9.586959 -0.40811,7.054263 -2.76678,-3.227226 0.62977,-13.739099 2.24908,-6.848986 0.22574,0.844941 0.3622,1.873173 0.38157,2.92418 M 86.991747,43.000344 c -0.539782,1.759212 -0.154387,-3.627902 0.589591,-0.608751 0.204148,6.726008 -3.031766,-0.595401 -0.803548,-2.520706 2.30623,-1.308932 1.703621,9.586959 -0.408112,7.054263 -2.766779,-3.227226 0.629772,-13.739099 2.24908,-6.848986 0.225743,0.844941 0.362204,1.873173 0.381577,2.92418 m -4.008588,0 c -0.539782,1.759212 -0.154387,-3.627902 0.589591,-0.608751 0.204148,6.726008 -3.031766,-0.595401 -0.803548,-2.520706 2.30623,-1.308932 1.703621,9.586959 -0.408112,7.054263 -2.766779,-3.227226 0.629772,-13.739099 2.24908,-6.848986 0.225743,0.844941 0.362204,1.873173 0.381577,2.92418 m -4.008588,0 c -0.539782,1.759212 -0.154387,-3.627902 0.589591,-0.608751 0.204148,6.726008 -3.031766,-0.595401 -0.803548,-2.520706 2.30623,-1.308932 1.703621,9.586959 -0.408112,7.054263 -2.766779,-3.227226 0.629772,-13.739099 2.24908,-6.848986 0.225743,0.844941 0.362204,1.873173 0.381577,2.92418 m -4.008588,0 c -0.539782,1.759212 -0.154387,-3.627902 0.589591,-0.608751 0.204148,6.726008 -3.031766,-0.595401 -0.803548,-2.520706 2.30623,-1.308932 1.703621,9.586959 -0.408112,7.054263 -2.766779,-3.227226 0.629772,-13.739099 2.24908,-6.848986 0.225743,0.844941 0.362204,1.873173 0.381577,2.92418 m -4.008588,0 c -0.539782,1.759212 -0.154387,-3.627902 0.589591,-0.608751 0.204148,6.726008 -3.031766,-0.595401 -0.803548,-2.520706 2.30623,-1.308932 1.703621,9.586959 -0.408112,7.054263 -2.766779,-3.227226 0.629772,-13.739099 2.24908,-6.848986 0.225743,0.844941 0.362204,1.873173 0.381577,2.92418 m -4.008588,0 c -0.539782,1.759212 -0.154387,-3.627902 0.589591,-0.608751 0.204148,6.726008 -3.031766,-0.595401 -0.803548,-2.520706 2.30623,-1.308932 1.703621,9.586959 -0.408112,7.054263 -2.766779,-3.227226 0.629772,-13.739099 2.24908,-6.848986 0.225743,0.844941 0.362204,1.873173 0.381577,2.92418 m -4.008588,0 c -0.539782,1.759212 -0.154387,-3.627902 0.589591,-0.608751 0.204148,6.726008 -3.031766,-0.595401 -0.803548,-2.520706 2.30623,-1.308932 1.703621,9.586959 -0.408112,7.054263 -2.766779,-3.227226 0.629772,-13.739099 2.24908,-6.848986 0.225743,0.844941 0.362204,1.873173 0.381577,2.92418 m -4.008588,0 c -0.539782,1.759212 -0.154387,-3.627902 0.589591,-0.608751 0.204148,6.726008 -3.031766,-0.595401 -0.803548,-2.520706 2.30623,-1.308932 1.703621,9.586959 -0.408112,7.054263 -2.766779,-3.227226 0.629772,-13.739099 2.24908,-6.848986 0.225743,0.844941 0.362204,1.873173 0.381577,2.92418 m -4.008588,0 c -0.539782,1.759212 -0.154387,-3.627902 0.589591,-0.608751 0.204148,6.726008 -3.031766,-0.595401 -0.803548,-2.520706 2.30623,-1.308932 1.703621,9.586959 -0.408112,7.054263 -2.766779,-3.227226 0.629772,-13.739099 2.24908,-6.848986 0.225743,0.844941 0.362204,1.873173 0.381577,2.92418 m -4.008588,0 c -0.539782,1.759212 -0.154387,-3.627902 0.589591,-0.608751 0.204148,6.726008 -3.031766,-0.595401 -0.803548,-2.520706 2.30623,-1.308932 1.703621,9.586959 -0.408112,7.054263 -2.766779,-3.227226 0.629772,-13.739099 2.24908,-6.848986 0.225743,0.844941 0.362204,1.873173 0.381577,2.92418 m -4.008588,0 c -0.539782,1.759212 -0.154387,-3.627902 0.589591,-0.608751 0.204148,6.726008 -3.031766,-0.595401 -0.803548,-2.520706 2.30623,-1.308932 1.703621,9.586959 -0.408112,7.054263 -2.766779,-3.227226 0.629772,-13.739099 2.24908,-6.848986 0.225743,0.844941 0.362204,1.873173 0.381577,2.92418 m -4.008588,0 c -0.539782,1.759212 -0.154387,-3.627902 0.589591,-0.608751 0.204148,6.726008 -3.031766,-0.595401 -0.803548,-2.520706 2.30623,-1.308932 1.703621,9.586959 -0.408112,7.054263 -2.766779,-3.227226 0.629772,-13.739099 2.24908,-6.848986 0.225743,0.844941 0.362204,1.873173 0.381577,2.92418 m -4.008588,0.263194 c -0.539782,1.759212 -0.154387,-3.627902 0.589591,-0.608751 0.204148,6.726008 -3.031766,-0.595401 -0.803548,-2.520706 2.30623,-1.308932 1.703621,9.586959 -0.408112,7.054263 -2.766779,-3.227226 0.629772,-13.739099 2.24908,-6.848986 0.225743,0.844941 0.362204,1.873173 0.381577,2.92418 m -4.008588,0 c -0.539782,1.759212 -0.154387,-3.627902 0.589591,-0.608751 0.204148,6.726008 -3.031766,-0.595401 -0.803548,-2.520706 2.30623,-1.308932 1.703621,9.586959 -0.408112,7.054263 -2.766779,-3.227226 0.629772,-13.739099 2.24908,-6.848986 0.225743,0.844941 0.362204,1.873173 0.381577,2.92418 m -4.008588,0.0241 c -0.539782,1.759212 -0.154387,-3.627902 0.589591,-0.608751 0.204148,6.726008 -3.031766,-0.595401 -0.803548,-2.520706 2.30623,-1.308932 1.703621,9.586959 -0.408112,7.054263 -2.766779,-3.227226 0.629772,-13.739099 2.24908,-6.848986 0.225743,0.844941 0.362204,1.873173 0.381577,2.92418 m -4.008588,0 c -0.539782,1.759212 -0.154387,-3.627902 0.589591,-0.608751 0.204148,6.726008 -3.031766,-0.595401 -0.803548,-2.520706 2.30623,-1.308932 1.703621,9.586959 -0.408112,7.054263 -2.766779,-3.227226 0.629772,-13.739099 2.24908,-6.848986 0.225743,0.844941 0.362204,1.873173 0.381577,2.92418 m -3.591983,0.0482 c -0.539782,1.759212 -0.154387,-3.627902 0.589591,-0.608751 0.204148,6.726008 -3.031766,-0.595401 -0.803548,-2.520706 2.30623,-1.308932 1.703621,9.586959 -0.408112,7.054263 -2.766779,-3.227226 0.629772,-13.739099 2.24908,-6.848986 0.225743,0.844941 0.362204,1.873173 0.381577,2.92418 m -3.864255,0 c -0.539782,1.759212 -0.154387,-3.627902 0.589591,-0.608751 0.204148,6.726008 -3.031766,-0.595401 -0.803548,-2.520706 2.30623,-1.308932 1.703621,9.586959 -0.408112,7.054263 -2.766779,-3.227226 0.629772,-13.739099 2.24908,-6.848986 0.225743,0.844941 0.362204,1.873173 0.381577,2.92418 m -3.912454,0.144597 c -0.539782,1.759212 -0.154387,-3.627902 0.589591,-0.608751 0.204148,6.726008 -3.031766,-0.595401 -0.803548,-2.520706 2.30623,-1.308932 1.703621,9.586959 -0.408112,7.054263 -2.766779,-3.227226 0.629772,-13.739099 2.24908,-6.848986 0.225743,0.844941 0.362204,1.873173 0.381577,2.92418 m -3.960654,0.192797 c -0.539782,1.759212 -0.154387,-3.627902 0.589591,-0.608751 0.204148,6.726008 -3.031766,-0.595401 -0.803548,-2.520706 2.30623,-1.308932 1.703621,9.586959 -0.408112,7.054263 -2.766779,-3.227226 0.629772,-13.739099 2.24908,-6.848986 0.225743,0.844941 0.362204,1.873173 0.381577,2.92418 m -5.713594,-0.128559 c -0.539782,1.759212 -0.154387,-3.627902 0.589591,-0.608751 0.204148,6.726008 -3.031766,-0.595401 -0.803548,-2.520706 2.30623,-1.308932 1.703621,9.586959 -0.408112,7.054263 -2.766779,-3.227226 0.629772,-13.739099 2.24908,-6.848986 0.225743,0.844941 0.362204,1.873173 0.381577,2.92418 M 58.114607,26.895494 c -0.539782,1.759212 -0.154387,-3.627902 0.589591,-0.608751 0.204148,6.726008 -3.031766,-0.595401 -0.803548,-2.520706 2.30623,-1.308932 1.703621,9.586959 -0.408112,7.054263 -2.766779,-3.227226 0.629772,-13.739099 2.24908,-6.848986 0.225743,0.844941 0.362204,1.873173 0.381577,2.92418 m -4.053505,0.903171 c -0.539782,1.759212 -0.154387,-3.627902 0.589591,-0.608751 0.204148,6.726008 -3.031766,-0.595401 -0.803548,-2.520706 2.30623,-1.308932 1.703621,9.586959 -0.408112,7.054263 -2.766779,-3.227226 0.629772,-13.739099 2.24908,-6.848986 0.225743,0.844941 0.362204,1.873173 0.381577,2.92418 m -10.218004,10.12234 c -0.539782,1.759212 -0.154387,-3.627902 0.589591,-0.608751 0.204148,6.726008 -3.031766,-0.595401 -0.803548,-2.520706 2.30623,-1.308932 1.703621,9.586959 -0.408112,7.054263 -2.766779,-3.227226 0.629772,-13.739099 2.24908,-6.848986 0.225743,0.844941 0.362204,1.873173 0.381577,2.92418 m 1.804257,-5.759851 c -0.539782,1.759212 -0.154387,-3.627902 0.589591,-0.608751 0.204148,6.726008 -3.031766,-0.595401 -0.803548,-2.520706 2.30623,-1.308932 1.703621,9.586959 -0.408112,7.054263 -2.766779,-3.227226 0.629772,-13.739099 2.24908,-6.848986 0.225743,0.844941 0.362204,1.873173 0.381577,2.92418 m -2.821433,1.124705 c -0.539782,1.759212 -0.154387,-3.627902 0.589591,-0.608751 0.204148,6.726008 -3.031766,-0.595401 -0.803548,-2.520706 2.30623,-1.308932 1.703621,9.586959 -0.408112,7.054263 -2.766779,-3.227226 0.629772,-13.739099 2.24908,-6.848986 0.225743,0.844941 0.362204,1.873173 0.381577,2.92418 m -3.308824,2.17472 c -0.539782,1.759212 -0.154387,-3.627902 0.589591,-0.608751 0.204148,6.726008 -3.031766,-0.595401 -0.803548,-2.520706 2.30623,-1.308932 1.703621,9.586959 -0.408112,7.054263 -2.766779,-3.227226 0.629772,-13.739099 2.24908,-6.848986 0.225743,0.844941 0.362204,1.873173 0.381577,2.92418 M 93.860274,17.043052 c -0.539782,1.759212 -0.154387,-3.627902 0.589591,-0.608751 0.204148,6.726008 -3.031766,-0.595401 -0.803548,-2.520706 2.30623,-1.308932 1.703621,9.586959 -0.408112,7.054263 -2.766779,-3.227226 0.629772,-13.7390985 2.24908,-6.848986 0.225743,0.844941 0.362204,1.873173 0.381577,2.92418 m -6.008588,-0.582474 c -0.539782,1.759212 -0.154387,-3.627902 0.589591,-0.608751 0.204148,6.726008 -3.031766,-0.595401 -0.803548,-2.520706 2.30623,-1.308932 1.703621,9.586959 -0.408112,7.054263 -2.766779,-3.227226 0.629772,-13.7390985 2.24908,-6.848986 0.225743,0.844941 0.362204,1.873173 0.381577,2.92418 m -15.008588,0 c -0.539782,1.759212 -0.154387,-3.627902 0.589591,-0.608751 0.204148,6.726008 -3.031766,-0.595401 -0.803548,-2.520706 2.30623,-1.308932 1.703621,9.586959 -0.408112,7.054263 -2.766779,-3.227226 0.629772,-13.7390985 2.24908,-6.848986 0.225743,0.844941 0.362204,1.873173 0.381577,2.92418 m 12.991412,0.437876 c -0.539782,1.759212 -0.154387,-3.627902 0.589591,-0.608751 0.204148,6.726008 -3.031766,-0.595401 -0.803548,-2.520706 2.30623,-1.308932 1.703621,9.586959 -0.408112,7.054263 -2.766779,-3.227226 0.629772,-13.7390985 2.24908,-6.848986 0.225743,0.844941 0.362204,1.873173 0.381577,2.92418 m -5.347948,-0.144597 c -0.539782,1.759212 -0.154387,-3.627902 0.589591,-0.608751 0.204148,6.726008 -3.031766,-0.595401 -0.803548,-2.520706 2.30623,-1.308932 1.703621,9.586959 -0.408112,7.054263 -2.766779,-3.227226 0.629772,-13.7390985 2.24908,-6.848986 0.225743,0.844941 0.362204,1.873173 0.381577,2.92418 m -3.96065,0.0241 c -0.539782,1.759212 -0.154387,-3.627902 0.589591,-0.608751 0.204148,6.726008 -3.031766,-0.595401 -0.803548,-2.520706 2.30623,-1.308932 1.703621,9.586959 -0.408112,7.054263 -2.766779,-3.227226 0.629772,-13.7390985 2.24908,-6.848986 0.225743,0.844941 0.362204,1.873173 0.381577,2.92418 m -4.008853,-0.0241 c -0.539782,1.759212 -0.154387,-3.627902 0.589591,-0.608751 0.204148,6.726008 -3.031766,-0.595401 -0.803548,-2.520706 2.30623,-1.308932 1.703621,9.586959 -0.408112,7.054263 -2.766779,-3.227226 0.629772,-13.7390985 2.24908,-6.848986 0.225743,0.844941 0.362204,1.873173 0.381577,2.92418 m -4.008853,0 c -0.539782,1.759212 -0.154387,-3.627902 0.589591,-0.608751 0.204148,6.726008 -3.031766,-0.595401 -0.803548,-2.520706 2.30623,-1.308932 1.703621,9.586959 -0.408112,7.054263 -2.766779,-3.227226 0.629772,-13.7390985 2.24908,-6.848986 0.225743,0.844941 0.362204,1.873173 0.381577,2.92418 m -4.008853,-0.293279 c -0.539782,1.759212 -0.154387,-3.627902 0.589591,-0.608751 0.204148,6.726008 -3.031766,-0.595401 -0.803548,-2.520706 2.30623,-1.308932 1.703621,9.586959 -0.408112,7.054263 -2.766779,-3.227226 0.629772,-13.7390985 2.24908,-6.848986 0.225743,0.844941 0.362204,1.873173 0.381577,2.92418 m -3.960653,0 c -0.539782,1.759212 -0.154387,-3.627902 0.589591,-0.608751 0.204148,6.726008 -3.031766,-0.595401 -0.803548,-2.520706 2.30623,-1.308932 1.703621,9.586959 -0.408112,7.054263 -2.766779,-3.227226 0.629772,-13.7390985 2.24908,-6.848986 0.225743,0.844941 0.362204,1.873173 0.381577,2.92418 M 48.860274,41.460579 c -0.539782,1.759212 -0.154387,-3.627902 0.589591,-0.608751 0.204148,6.726008 -3.031766,-0.595401 -0.803548,-2.520706 2.30623,-1.308932 1.703621,9.586959 -0.408112,7.054263 -2.766779,-3.227226 0.629772,-13.739099 2.24908,-6.848986 0.225743,0.844941 0.362204,1.873173 0.381577,2.92418 m -0.0086,-3 c -0.539782,1.759212 -0.154387,-3.627902 0.589591,-0.608751 0.204148,6.726008 -3.031766,-0.595401 -0.803548,-2.520706 2.30623,-1.308932 1.703621,9.586959 -0.408112,7.054263 -2.766779,-3.227226 0.629772,-13.739099 2.24908,-6.848986 0.225743,0.844941 0.362204,1.873173 0.381577,2.92418 m -0.0086,-2 c -0.539782,1.759212 -0.154387,-3.627902 0.589591,-0.608751 0.204148,6.726008 -3.031766,-0.595401 -0.803548,-2.520706 2.30623,-1.308932 1.703621,9.586959 -0.408112,7.054263 -2.766779,-3.227226 0.629772,-13.739099 2.24908,-6.848986 0.225743,0.844941 0.362204,1.873173 0.381577,2.92418 m -0.0086,-2.620122 c -0.539782,1.759212 -0.154387,-3.627902 0.589591,-0.608751 0.204148,6.726008 -3.031766,-0.595401 -0.803548,-2.520706 2.30623,-1.308932 1.703621,9.586959 -0.408112,7.054263 -2.766779,-3.227226 0.629772,-13.739099 2.24908,-6.848986 0.225743,0.844941 0.362204,1.873173 0.381577,2.92418 m -0.0086,-1.379879 c -0.539782,1.759212 -0.154387,-3.627902 0.589591,-0.608751 0.204148,6.726008 -3.031766,-0.595401 -0.803548,-2.520706 2.30623,-1.308932 1.703621,9.586959 -0.408112,7.054263 -2.766779,-3.227226 0.629772,-13.739099 2.24908,-6.848986 0.225743,0.844941 0.362204,1.873173 0.381577,2.92418 m -0.0086,-2.66885 c -0.539782,1.759212 -0.154387,-3.627902 0.589591,-0.608751 0.204148,6.726008 -3.031766,-0.595401 -0.803548,-2.520706 2.30623,-1.308932 1.703621,9.586959 -0.408112,7.054263 -2.766779,-3.227226 0.629772,-13.739099 2.24908,-6.848986 0.225743,0.844941 0.362204,1.873173 0.381577,2.92418 m -0.0086,-1.33115 c -0.539782,1.759212 -0.154387,-3.627902 0.589591,-0.608751 0.204148,6.726008 -3.031766,-0.595401 -0.803548,-2.520706 2.30623,-1.308932 1.703621,9.586959 -0.408112,7.054263 -2.766779,-3.227226 0.629772,-13.739099 2.24908,-6.848986 0.225743,0.844941 0.362204,1.873173 0.381577,2.92418 m -0.0086,-1.729496 c -0.539782,1.759212 -0.154387,-3.627902 0.589591,-0.608751 0.204148,6.726008 -3.031766,-0.595401 -0.803548,-2.520706 2.30623,-1.308932 1.703621,9.586959 -0.408112,7.054263 -2.766779,-3.227226 0.629772,-13.739099 2.24908,-6.848986 0.225743,0.844941 0.362204,1.873173 0.381577,2.92418 m -0.0086,-0.988083 c -0.539782,1.759212 -0.154387,-3.627902 0.589591,-0.608751 0.204148,6.726008 -3.031766,-0.595401 -0.803548,-2.520706 2.30623,-1.308932 1.703621,9.586959 -0.408112,7.054263 -2.766779,-3.227226 0.629772,-13.739099 2.24908,-6.848986 0.225743,0.844941 0.362204,1.873173 0.381577,2.92418 m -0.0086,-1.282421 c -0.539782,1.759212 -0.154387,-3.627902 0.589591,-0.608751 0.204148,6.726008 -3.031766,-0.595401 -0.803548,-2.520706 2.30623,-1.308932 1.703621,9.586959 -0.408112,7.054263 -2.766779,-3.227226 0.629772,-13.739099 2.24908,-6.848986 0.225743,0.844941 0.362204,1.873173 0.381577,2.92418 m -0.0086,-1 c -0.539782,1.759212 -0.154387,-3.627902 0.589591,-0.608751 0.204148,6.726008 -3.031766,-0.595401 -0.803548,-2.520706 2.30623,-1.308932 1.703621,9.586959 -0.408112,7.054263 -2.766779,-3.227226 0.629772,-13.739099 2.24908,-6.848986 0.225743,0.844941 0.362204,1.873173 0.381577,2.92418 m -0.0086,-1 c -0.539782,1.759212 -0.154387,-3.627902 0.589591,-0.608751 0.204148,6.726008 -3.031766,-0.595401 -0.803548,-2.520706 2.30623,-1.308932 1.703621,9.586959 -0.408112,7.054263 -2.766779,-3.227226 0.629772,-13.739099 2.24908,-6.848986 0.225743,0.844941 0.362204,1.873173 0.381577,2.92418 m -0.0086,0 c -0.539782,1.759212 -0.154387,-3.627902 0.589591,-0.608751 0.204148,6.726008 -3.031766,-0.595401 -0.803548,-2.520706 2.30623,-1.308932 1.703621,9.586959 -0.408112,7.054263 -2.766779,-3.227226 0.629772,-13.739099 2.24908,-6.848986 0.225743,0.844941 0.362204,1.873173 0.381577,2.92418 m -0.0086,0 c -0.539782,1.759212 -0.154387,-3.627902 0.589591,-0.608751 0.204148,6.726008 -3.031766,-0.595401 -0.803548,-2.520706 2.30623,-1.308932 1.703621,9.586959 -0.408112,7.054263 -2.766779,-3.227226 0.629772,-13.739099 2.24908,-6.848986 0.225743,0.844941 0.362204,1.873173 0.381577,2.92418 m -0.0086,0 c -0.539782,1.759212 -0.154387,-3.627902 0.589591,-0.608751 0.204148,6.726008 -3.031766,-0.595401 -0.803548,-2.520706 2.30623,-1.308932 1.703621,9.586959 -0.408112,7.054263 -2.766779,-3.227226 0.629772,-13.739099 2.24908,-6.848986 0.225743,0.844941 0.362204,1.873173 0.381577,2.92418 m -0.0086,0 c -0.539782,1.759212 -0.154387,-3.627902 0.589591,-0.608751 0.204148,6.726008 -3.031766,-0.595401 -0.803548,-2.520706 2.30623,-1.308932 1.703621,9.586959 -0.408112,7.054263 -2.766779,-3.227226 0.629772,-13.739099 2.24908,-6.848986 0.225743,0.844941 0.362204,1.873173 0.381577,2.92418 m -0.0086,0 c -0.539782,1.759212 -0.154387,-3.627902 0.589591,-0.608751 0.204148,6.726008 -3.031766,-0.595401 -0.803548,-2.520706 2.30623,-1.308932 1.703621,9.586959 -0.408112,7.054263 -2.766779,-3.227226 0.629772,-13.739099 2.24908,-6.848986 0.225743,0.844941 0.362204,1.873173 0.381577,2.92418 m -0.0086,0 c -0.539782,1.759212 -0.154387,-3.627902 0.589591,-0.608751 0.204148,6.726008 -3.031766,-0.595401 -0.803548,-2.520706 2.30623,-1.308932 1.703621,9.586959 -0.408112,7.054263 -2.766779,-3.227226 0.629772,-13.739099 2.24908,-6.848986 0.225743,0.844941 0.362204,1.873173 0.381577,2.92418 m -0.0086,0 c -0.539782,1.759212 -0.154387,-3.627902 0.589591,-0.608751 0.204148,6.726008 -3.031766,-0.595401 -0.803548,-2.520706 2.30623,-1.308932 1.703621,9.586959 -0.408112,7.054263 -2.766779,-3.227226 0.629772,-13.739099 2.24908,-6.848986 0.225743,0.844941 0.362204,1.873173 0.381577,2.92418 m -0.0086,0 c -0.539782,1.759212 -0.154387,-3.627902 0.589591,-0.608751 0.204148,6.726008 -3.031766,-0.595401 -0.803548,-2.520706 2.30623,-1.308932 1.703621,9.586959 -0.408112,7.054263 -2.766779,-3.227226 0.629772,-13.739099 2.24908,-6.848986 0.225743,0.844941 0.362204,1.873173 0.381577,2.92418 m -0.0086,0 c -0.539782,1.759212 -0.154387,-3.627902 0.589591,-0.608751 0.204148,6.726008 -3.031766,-0.595401 -0.803548,-2.520706 2.30623,-1.308932 1.703621,9.586959 -0.408112,7.054263 -2.766779,-3.227226 0.629772,-13.739099 2.24908,-6.848986 0.225743,0.844941 0.362204,1.873173 0.381577,2.92418 m -0.0086,0 c -0.539782,1.759212 -0.154387,-3.627902 0.589591,-0.608751 0.204148,6.726008 -3.031766,-0.595401 -0.803548,-2.520706 2.30623,-1.308932 1.703621,9.586959 -0.408112,7.054263 -2.766779,-3.227226 0.629772,-13.739099 2.24908,-6.848986 0.225743,0.844941 0.362204,1.873173 0.381577,2.92418 m -0.0086,0 c -0.539782,1.759212 -0.154387,-3.627902 0.589591,-0.608751 0.204148,6.726008 -3.031766,-0.595401 -0.803548,-2.520706 2.30623,-1.308932 1.703621,9.586959 -0.408112,7.054263 -2.766779,-3.227226 0.629772,-13.739099 2.24908,-6.848986 0.225743,0.844941 0.362204,1.873173 0.381577,2.92418 m -0.0086,0.269974 c -0.539782,1.759212 -0.154387,-3.627902 0.589591,-0.608751 0.204148,6.726008 -3.031766,-0.595401 -0.803548,-2.520706 2.30623,-1.308932 1.703621,9.586959 -0.408112,7.054263 -2.766779,-3.227226 0.629772,-13.739099 2.24908,-6.848986 0.225743,0.844941 0.362204,1.873173 0.381577,2.92418 m -0.0086,0.409693 c -0.539782,1.759212 -0.154387,-3.627902 0.589591,-0.608751 0.204148,6.726008 -3.031766,-0.595401 -0.803548,-2.520706 2.30623,-1.308932 1.703621,9.586959 -0.408112,7.054263 -2.766779,-3.227226 0.629772,-13.739099 2.24908,-6.848986 0.225743,0.844941 0.362204,1.873173 0.381577,2.92418 m -0.0086,-0.0482 c -0.539782,1.759212 -0.154387,-3.627902 0.589591,-0.608751 0.204148,6.726008 -3.031766,-0.595401 -0.803548,-2.520706 2.306233,-1.308932 1.703623,9.586959 -0.408112,7.054263 -2.766779,-3.227226 0.629772,-13.739099 2.249085,-6.848986 0.22574,0.844941 0.3622,1.873173 0.38157,2.92418 m -0.009,0.368532 c -0.53978,1.759212 -0.15438,-3.627902 0.5896,-0.608751 0.20414,6.726008 -3.031771,-0.595401 -0.80355,-2.520706 2.30623,-1.308932 1.70362,9.586959 -0.40811,7.054263 -2.766784,-3.227226 0.62977,-13.739099 2.24908,-6.848986 0.22574,0.844941 0.3622,1.873173 0.38157,2.92418 m -0.009,0.715948 c -0.53978,1.759212 -0.15438,-3.627902 0.5896,-0.608751 0.20414,6.726008 -3.03177,-0.595401 -0.80355,-2.520706 2.30623,-1.308932 1.70362,9.586959 -0.40811,7.054263 -2.766784,-3.227226 0.62977,-13.739099 2.24908,-6.848986 0.22574,0.844941 0.3622,1.873173 0.38157,2.92418 m -0.009,0.988083 c -0.53978,1.759212 -0.15438,-3.627902 0.5896,-0.608751 0.20414,6.726008 -3.03177,-0.595401 -0.80355,-2.520706 2.30623,-1.308932 1.70362,9.586959 -0.40811,7.054263 -2.76678,-3.227226 0.62977,-13.739099 2.24908,-6.848986 0.22574,0.844941 0.3622,1.873173 0.38157,2.92418 m -0.009,0.771187 c -0.53978,1.759212 -0.15438,-3.627902 0.5896,-0.608751 0.20414,6.726008 -3.03177,-0.595401 -0.80355,-2.520706 2.30623,-1.308932 1.70362,9.586959 -0.40811,7.054263 -2.76678,-3.227226 0.62977,-13.739099 2.24908,-6.848986 0.22574,0.844941 0.3622,1.873173 0.38157,2.92418 m -0.009,0.524782 c -0.53978,1.759212 -0.15438,-3.627902 0.5896,-0.608751 0.20414,6.726008 -3.03177,-0.595401 -0.80355,-2.520706 2.30623,-1.308932 1.70362,9.586959 -0.40811,7.054263 -2.76678,-3.227226 0.62977,-13.739099 2.24908,-6.848986 0.22574,0.844941 0.3622,1.873173 0.38157,2.92418 m -5.00859,-2 c -0.53978,1.759212 -0.15438,-3.627902 0.5896,-0.608751 0.20414,6.726008 -3.03177,-0.595401 -0.80355,-2.520706 2.30623,-1.308932 1.70362,9.586959 -0.40811,7.054263 -2.76678,-3.227226 0.62977,-13.739099 2.24908,-6.848986 0.22574,0.844941 0.3622,1.873173 0.38157,2.92418 m -4.00859,-1.464931 c -0.53978,1.759212 -0.15438,-3.627902 0.5896,-0.608751 0.20414,6.726008 -3.03177,-0.595401 -0.80355,-2.520706 2.30623,-1.308932 1.70362,9.586959 -0.40811,7.054263 -2.76678,-3.227226 0.62977,-13.739099 2.24908,-6.848986 0.22574,0.844941 0.3622,1.873173 0.38157,2.92418 m -4.00859,-1.535069 c -0.53978,1.759212 -0.15438,-3.627902 0.5896,-0.608751 0.20414,6.726008 -3.031771,-0.595401 -0.80355,-2.520706 2.30623,-1.308932 1.70362,9.586959 -0.40811,7.054263 -2.766784,-3.227226 0.62977,-13.739099 2.24908,-6.848986 0.22574,0.844941 0.3622,1.873173 0.38157,2.92418 m -4.008586,-1 c -0.539782,1.759212 -0.154387,-3.627902 0.589596,-0.608751 0.20414,6.726008 -3.031771,-0.595401 -0.803553,-2.520706 2.306233,-1.308932 1.703623,9.586959 -0.408112,7.054263 -2.766779,-3.227226 0.629772,-13.739099 2.249085,-6.848986 0.22574,0.844941 0.3622,1.873173 0.38157,2.92418 m -3.756316,-1 c -0.539782,1.759212 -0.154387,-3.627902 0.589591,-0.608751 0.204148,6.726008 -3.031766,-0.595401 -0.803548,-2.520706 2.306233,-1.308932 1.703621,9.586959 -0.408112,7.054263 -2.766779,-3.227226 0.629772,-13.7390985 2.24908,-6.848986 0.225743,0.844941 0.362205,1.873173 0.381575,2.92418 m -30.260856,-2 c -0.539782,1.759212 -0.154387,-3.627902 0.589591,-0.608751 0.204148,6.726008 -3.031766,-0.595401 -0.803548,-2.520706 2.30623,-1.308932 1.703621,9.586959 -0.408112,7.054263 -2.766779,-3.227226 0.629772,-13.7390985 2.24908,-6.848986 0.225743,0.844941 0.362204,1.873173 0.381577,2.92418 m -4.008588,1.341743 c -0.539782,1.759212 -0.154387,-3.627902 0.589591,-0.608751 0.204148,6.726008 -3.031766,-0.595401 -0.803548,-2.520706 2.30623,-1.308932 1.703621,9.586959 -0.408112,7.054263 -2.766779,-3.227226 0.629772,-13.7390985 2.24908,-6.848986 0.225743,0.844941 0.362204,1.873173 0.381577,2.92418 m -4.008588,1.658257 c -0.539782,1.759212 -0.154387,-3.627902 0.589591,-0.608751 0.204148,6.726008 -3.031766,-0.595401 -0.803548,-2.520706 2.30623,-1.308932 1.703621,9.586959 -0.408112,7.054263 -2.766779,-3.227226 0.629772,-13.739099 2.24908,-6.848986 0.225743,0.844941 0.362204,1.873173 0.381577,2.92418 m -4.008588,1 c -0.539782,1.759212 -0.154387,-3.627902 0.589591,-0.608751 0.204148,6.726008 -3.031766,-0.595401 -0.803548,-2.520706 2.30623,-1.308932 1.703621,9.586959 -0.408112,7.054263 -2.766779,-3.227226 0.629772,-13.739099 2.24908,-6.848986 0.225743,0.844941 0.362204,1.873173 0.381577,2.92418 m -4.008588,1.535069 c -0.539782,1.759212 -0.154387,-3.627902 0.589591,-0.608751 0.204148,6.726008 -3.031766,-0.595401 -0.803548,-2.520706 2.30623,-1.308932 1.703621,9.586959 -0.408112,7.054263 -2.766779,-3.227226 0.629772,-13.739099 2.24908,-6.848986 0.225743,0.844941 0.362204,1.873173 0.381577,2.92418 m -4.008588,1.13268 c -0.539782,1.759212 -0.154387,-3.627902 0.589591,-0.608751 0.204148,6.726008 -3.031766,-0.595401 -0.803548,-2.520706 2.30623,-1.308932 1.703621,9.586959 -0.408112,7.054263 -2.766779,-3.227226 0.629772,-13.739099 2.24908,-6.848986 0.225743,0.844941 0.362204,1.873173 0.381577,2.92418 m -4.008588,1.879767 c -0.539782,1.759212 -0.154387,-3.627902 0.589591,-0.608751 0.204148,6.726008 -3.031766,-0.595401 -0.803548,-2.520706 2.30623,-1.308932 1.703621,9.586959 -0.408112,7.054263 -2.766779,-3.227226 0.629772,-13.739099 2.24908,-6.848986 0.225743,0.844941 0.362204,1.873173 0.381577,2.92418 m -4.008588,1.855668 c -0.539782,1.759212 -0.154387,-3.627902 0.589591,-0.608751 0.204148,6.726008 -3.031766,-0.595401 -0.803548,-2.520706 2.30623,-1.308932 1.703621,9.586959 -0.408112,7.054263 -2.766779,-3.227226 0.629772,-13.739099 2.24908,-6.848986 0.225743,0.844941 0.362204,1.873173 0.381577,2.92418 m -4.008588,2.596816 c -0.539782,1.759212 -0.154387,-3.627902 0.589591,-0.608751 0.204148,6.726008 -3.031766,-0.595401 -0.803548,-2.520706 2.30623,-1.308932 1.703621,9.586959 -0.408112,7.054263 -2.766779,-3.227226 0.629772,-13.739099 2.24908,-6.848986 0.225743,0.844941 0.362204,1.873173 0.381577,2.92418 m -4.008588,2.656891 c -0.539782,1.759212 -0.154387,-3.627902 0.589591,-0.608751 0.204148,6.726008 -3.031766,-0.595401 -0.803548,-2.520706 2.30623,-1.308932 1.703621,9.586959 -0.408112,7.054263 -2.766779,-3.227226 0.629772,-13.739099 2.24908,-6.848986 0.225743,0.844941 0.362204,1.873173 0.381577,2.92418 m -4.008588,2.843751 c -0.539782,1.759212 -0.154387,-3.627902 0.589591,-0.608751 0.204148,6.726008 -3.031766,-0.595401 -0.803548,-2.520706 2.30623,-1.308932 1.703621,9.586959 -0.408112,7.054263 -2.766779,-3.227226 0.629772,-13.739099 2.24908,-6.848986 0.225743,0.844941 0.362204,1.873173 0.381577,2.92418 m -4.008588,3.108846 c -0.539782,1.759212 -0.154387,-3.627902 0.589591,-0.608751 0.204148,6.726008 -3.031766,-0.595401 -0.803548,-2.520706 2.30623,-1.308932 1.703621,9.586959 -0.408112,7.054263 -2.766779,-3.227226 0.629772,-13.739099 2.24908,-6.848986 0.225743,0.844941 0.362204,1.873173 0.381577,2.92418 M 96.860274,18.127533 c -0.539782,1.759212 -0.154387,-3.627902 0.589591,-0.608751 0.204148,6.726008 -3.031766,-0.595401 -0.803548,-2.520706 2.30623,-1.308932 1.703621,9.586959 -0.408112,7.054263 -2.766779,-3.227226 0.629772,-13.7390985 2.24908,-6.848986 0.225743,0.844941 0.362204,1.873173 0.381577,2.92418 m -4.008588,0 c -0.539782,1.759212 -0.154387,-3.627902 0.589591,-0.608751 0.204148,6.726008 -3.031766,-0.595401 -0.803548,-2.520706 2.30623,-1.308932 1.703621,9.586959 -0.408112,7.054263 -2.766779,-3.227226 0.629772,-13.7390985 2.24908,-6.848986 0.225743,0.844941 0.362204,1.873173 0.381577,2.92418 m -4.008588,-0.0241 c -0.539782,1.759212 -0.154387,-3.627902 0.589591,-0.608751 0.204148,6.726008 -3.031766,-0.595401 -0.803548,-2.520706 2.30623,-1.308932 1.703621,9.586959 -0.408112,7.054263 -2.766779,-3.227226 0.629772,-13.7390985 2.24908,-6.848986 0.225743,0.844941 0.362204,1.873173 0.381577,2.92418 m -4.008588,0 c -0.539782,1.759212 -0.154387,-3.627902 0.589591,-0.608751 0.204148,6.726008 -3.031766,-0.595401 -0.803548,-2.520706 2.30623,-1.308932 1.703621,9.586959 -0.408112,7.054263 -2.766779,-3.227226 0.629772,-13.7390985 2.24908,-6.848986 0.225743,0.844941 0.362204,1.873173 0.381577,2.92418 m -4.008588,-0.0964 c -0.539782,1.759212 -0.154387,-3.627902 0.589591,-0.608751 0.204148,6.726008 -3.031766,-0.595401 -0.803548,-2.520706 2.30623,-1.308932 1.703621,9.586959 -0.408112,7.054263 -2.766779,-3.227226 0.629772,-13.7390985 2.24908,-6.848986 0.225743,0.844941 0.362204,1.873173 0.381577,2.92418 m -4.008588,-0.0482 c -0.539782,1.759212 -0.154387,-3.627902 0.589591,-0.608751 0.204148,6.726008 -3.031766,-0.595401 -0.803548,-2.520706 2.30623,-1.308932 1.703621,9.586959 -0.408112,7.054263 -2.766779,-3.227226 0.629772,-13.7390985 2.24908,-6.848986 0.225743,0.844941 0.362204,1.873173 0.381577,2.92418 m -4.008588,-0.0723 c -0.539782,1.759212 -0.154387,-3.627902 0.589591,-0.608751 0.204148,6.726008 -3.031766,-0.595401 -0.803548,-2.520706 2.30623,-1.308932 1.703621,9.586959 -0.408112,7.054263 -2.766779,-3.227226 0.629772,-13.7390985 2.24908,-6.848986 0.225743,0.844941 0.362204,1.873173 0.381577,2.92418 m -4.008588,0.0482 c -0.539782,1.759212 -0.154387,-3.627902 0.589591,-0.608751 0.204148,6.726008 -3.031766,-0.595401 -0.803548,-2.520706 2.30623,-1.308932 1.703621,9.586959 -0.408112,7.054263 -2.766779,-3.227226 0.629772,-13.7390985 2.24908,-6.848986 0.225743,0.844941 0.362204,1.873173 0.381577,2.92418 m -4.008588,-0.0482 c -0.539782,1.759212 -0.154387,-3.627902 0.589591,-0.608751 0.204148,6.726008 -3.031766,-0.595401 -0.803548,-2.520706 2.30623,-1.308932 1.703621,9.586959 -0.408112,7.054263 -2.766779,-3.227226 0.629772,-13.7390985 2.24908,-6.848986 0.225743,0.844941 0.362204,1.873173 0.381577,2.92418 m -4.008588,0 c -0.539782,1.759212 -0.154387,-3.627902 0.589591,-0.608751 0.204148,6.726008 -3.031766,-0.595401 -0.803548,-2.520706 2.30623,-1.308932 1.703621,9.586959 -0.408112,7.054263 -2.766779,-3.227226 0.629772,-13.7390985 2.24908,-6.848986 0.225743,0.844941 0.362204,1.873173 0.381577,2.92418 m -4.008588,0 c -0.539782,1.759212 -0.154387,-3.627902 0.589591,-0.608751 0.204148,6.726008 -3.031766,-0.595401 -0.803548,-2.520706 2.30623,-1.308932 1.703621,9.586959 -0.408112,7.054263 -2.766779,-3.227226 0.629772,-13.7390985 2.24908,-6.848986 0.225743,0.844941 0.362204,1.873173 0.381577,2.92418 m -3.747309,0 c -0.539782,1.759212 -0.154387,-3.627902 0.589591,-0.608751 0.204148,6.726008 -3.031766,-0.595401 -0.803548,-2.520706 2.30623,-1.308932 1.703621,9.586959 -0.408112,7.054263 -2.766779,-3.227226 0.629772,-13.7390985 2.24908,-6.848986 0.225743,0.844941 0.362204,1.873173 0.381577,2.92418 m -3.840156,-0.0241 c -0.539782,1.759212 -0.154387,-3.627902 0.589591,-0.608751 0.204148,6.726008 -3.031766,-0.595401 -0.803548,-2.520706 2.30623,-1.308932 1.703621,9.586959 -0.408112,7.054263 -2.766779,-3.227226 0.629772,-13.7390985 2.24908,-6.848986 0.225743,0.844941 0.362204,1.873173 0.381577,2.92418 m -3.816056,0.0723 c -0.539782,1.759212 -0.154387,-3.627902 0.589591,-0.608751 0.204148,6.726008 -3.031766,-0.595401 -0.803548,-2.520706 2.30623,-1.308932 1.703621,9.586959 -0.408112,7.054263 -2.766779,-3.227226 0.629772,-13.7390985 2.24908,-6.848986 0.225743,0.844941 0.362204,1.873173 0.381577,2.92418 m 38.369165,10.525842 c -0.53978,1.759212 -0.15438,-3.627902 0.5896,-0.608751 0.20414,6.726008 -3.03177,-0.595401 -0.80355,-2.520706 2.30623,-1.308932 1.70362,9.586959 -0.40811,7.054263 -2.76678,-3.227226 0.62977,-13.739099 2.24908,-6.848986 0.22574,0.844941 0.3622,1.873173 0.38157,2.92418 m -4.00859,-1 c -0.53978,1.759212 -0.15438,-3.627902 0.5896,-0.608751 0.20414,6.726008 -3.03177,-0.595401 -0.80355,-2.520706 2.30623,-1.308932 1.70362,9.586959 -0.40811,7.054263 -2.76678,-3.227226 0.62977,-13.739099 2.24908,-6.848986 0.22574,0.844941 0.3622,1.873173 0.38157,2.92418 m -4.00859,-1 c -0.53978,1.759212 -0.15438,-3.627902 0.5896,-0.608751 0.20414,6.726008 -3.03177,-0.595401 -0.80355,-2.520706 2.30623,-1.308932 1.70362,9.586959 -0.40811,7.054263 -2.76678,-3.227226 0.62977,-13.739099 2.24908,-6.848986 0.22574,0.844941 0.3622,1.873173 0.38157,2.92418 m -4.00859,0 c -0.53978,1.759212 -0.15438,-3.627902 0.5896,-0.608751 0.20414,6.726008 -3.03177,-0.595401 -0.80355,-2.520706 2.30623,-1.308932 1.70362,9.586959 -0.40811,7.054263 -2.76678,-3.227226 0.62977,-13.739099 2.24908,-6.848986 0.22574,0.844941 0.3622,1.873173 0.38157,2.92418 m -4.00859,-1 c -0.53978,1.759212 -0.15438,-3.627902 0.5896,-0.608751 0.20414,6.726008 -3.03177,-0.595401 -0.80355,-2.520706 2.30623,-1.308932 1.70362,9.586959 -0.40811,7.054263 -2.76678,-3.227226 0.62977,-13.739099 2.24908,-6.848986 0.22574,0.844941 0.3622,1.873173 0.38157,2.92418 m -4.00859,-1 c -0.53978,1.759212 -0.15438,-3.627902 0.5896,-0.608751 0.20414,6.726008 -3.031771,-0.595401 -0.80355,-2.520706 2.30623,-1.308932 1.70362,9.586959 -0.40811,7.054263 -2.766784,-3.227226 0.62977,-13.739099 2.24908,-6.848986 0.22574,0.844941 0.3622,1.873173 0.38157,2.92418 m -4.008586,-1 c -0.539782,1.759212 -0.154387,-3.627902 0.589596,-0.608751 0.20414,6.726008 -3.031771,-0.595401 -0.803553,-2.520706 2.306233,-1.308932 1.703623,9.586959 -0.408112,7.054263 -2.766779,-3.227226 0.629772,-13.739099 2.249085,-6.848986 0.22574,0.844941 0.3622,1.873173 0.38157,2.92418 m -4.008586,0 c -0.539782,1.759212 -0.154387,-3.627902 0.589591,-0.608751 0.204148,6.726008 -3.031766,-0.595401 -0.803548,-2.520706 2.30623,-1.308932 1.703621,9.586959 -0.408112,7.054263 -2.766779,-3.227226 0.629772,-13.739099 2.24908,-6.848986 0.225743,0.844941 0.362204,1.873173 0.381577,2.92418 m -4.008588,-1 c -0.539782,1.759212 -0.154387,-3.627902 0.589591,-0.608751 0.204148,6.726008 -3.031766,-0.595401 -0.803548,-2.520706 2.30623,-1.308932 1.703621,9.586959 -0.408112,7.054263 -2.766779,-3.227226 0.629772,-13.739099 2.24908,-6.848986 0.225743,0.844941 0.362204,1.873173 0.381577,2.92418 m -4.008588,0 c -0.539782,1.759212 -0.154387,-3.627902 0.589591,-0.608751 0.204148,6.726008 -3.031766,-0.595401 -0.803548,-2.520706 2.30623,-1.308932 1.703621,9.586959 -0.408112,7.054263 -2.766779,-3.227226 0.629772,-13.739099 2.24908,-6.848986 0.225743,0.844941 0.362204,1.873173 0.381577,2.92418 m -4.008588,0 c -0.539782,1.759212 -0.154387,-3.627902 0.589591,-0.608751 0.204148,6.726008 -3.031766,-0.595401 -0.803548,-2.520706 2.30623,-1.308932 1.703621,9.586959 -0.408112,7.054263 -2.766779,-3.227226 0.629772,-13.739099 2.24908,-6.848986 0.225743,0.844941 0.362204,1.873173 0.381577,2.92418 m -4.008588,0 c -0.539782,1.759212 -0.154387,-3.627902 0.589591,-0.608751 0.204148,6.726008 -3.031766,-0.595401 -0.803548,-2.520706 2.30623,-1.308932 1.703621,9.586959 -0.408112,7.054263 -2.766779,-3.227226 0.629772,-13.739099 2.24908,-6.848986 0.225743,0.844941 0.362204,1.873173 0.381577,2.92418 m -4.008588,0 c -0.539782,1.759212 -0.154387,-3.627902 0.589591,-0.608751 0.204148,6.726008 -3.031766,-0.595401 -0.803548,-2.520706 2.30623,-1.308932 1.703621,9.586959 -0.408112,7.054263 -2.766779,-3.227226 0.629772,-13.739099 2.24908,-6.848986 0.225743,0.844941 0.362204,1.873173 0.381577,2.92418 m -4.008588,0 c -0.539782,1.759212 -0.154387,-3.627902 0.589591,-0.608751 0.204148,6.726008 -3.031766,-0.595401 -0.803548,-2.520706 2.30623,-1.308932 1.703621,9.586959 -0.408112,7.054263 -2.766779,-3.227226 0.629772,-13.739099 2.24908,-6.848986 0.225743,0.844941 0.362204,1.873173 0.381577,2.92418 m -4.008588,0 c -0.539782,1.759212 -0.154387,-3.627902 0.589591,-0.608751 0.204148,6.726008 -3.031766,-0.595401 -0.803548,-2.520706 2.30623,-1.308932 1.703621,9.586959 -0.408112,7.054263 -2.766779,-3.227226 0.629772,-13.739099 2.24908,-6.848986 0.225743,0.844941 0.362204,1.873173 0.381577,2.92418 m -4.008588,0 c -0.539782,1.759212 -0.154387,-3.627902 0.589591,-0.608751 0.204148,6.726008 -3.031766,-0.595401 -0.803548,-2.520706 2.30623,-1.308932 1.703621,9.586959 -0.408112,7.054263 -2.766779,-3.227226 0.629772,-13.739099 2.24908,-6.848986 0.225743,0.844941 0.362204,1.873173 0.381577,2.92418 m -4.008588,0 c -0.539782,1.759212 -0.154387,-3.627902 0.589591,-0.608751 0.204148,6.726008 -3.031766,-0.595401 -0.803548,-2.520706 2.30623,-1.308932 1.703621,9.586959 -0.408112,7.054263 -2.766779,-3.227226 0.629772,-13.739099 2.24908,-6.848986 0.225743,0.844941 0.362204,1.873173 0.381577,2.92418 m -4.008588,0 c -0.539782,1.759212 -0.154387,-3.627902 0.589591,-0.608751 0.204148,6.726008 -3.031766,-0.595401 -0.803548,-2.520706 2.30623,-1.308932 1.703621,9.586959 -0.408112,7.054263 -2.766779,-3.227226 0.629772,-13.739099 2.24908,-6.848986 0.225743,0.844941 0.362204,1.873173 0.381577,2.92418 m -4.008588,0 c -0.539782,1.759212 -0.154387,-3.627902 0.589591,-0.608751 0.204148,6.726008 -3.031766,-0.595401 -0.803548,-2.520706 2.30623,-1.308932 1.703621,9.586959 -0.408112,7.054263 -2.766779,-3.227226 0.629772,-13.739099 2.24908,-6.848986 0.225743,0.844941 0.362204,1.873173 0.381577,2.92418 m -4.008588,0 c -0.539782,1.759212 -0.154387,-3.627902 0.589591,-0.608751 0.204148,6.726008 -3.031766,-0.595401 -0.803548,-2.520706 2.30623,-1.308932 1.703621,9.586959 -0.408112,7.054263 -2.766779,-3.227226 0.629772,-13.739099 2.24908,-6.848986 0.225743,0.844941 0.362204,1.873173 0.381577,2.92418 m -4.008588,0 c -0.539782,1.759212 -0.154387,-3.627902 0.589591,-0.608751 0.204148,6.726008 -3.031766,-0.595401 -0.803548,-2.520706 2.30623,-1.308932 1.703621,9.586959 -0.408112,7.054263 -2.766779,-3.227226 0.629772,-13.739099 2.24908,-6.848986 0.225743,0.844941 0.362204,1.873173 0.381577,2.92418 m -4.008588,1 c -0.539782,1.759212 -0.154387,-3.627902 0.589591,-0.608751 0.204148,6.726008 -3.031766,-0.595401 -0.803548,-2.520706 2.30623,-1.308932 1.703621,9.586959 -0.408112,7.054263 -2.766779,-3.227226 0.629772,-13.739099 2.24908,-6.848986 0.225743,0.844941 0.362204,1.873173 0.381577,2.92418 m -4.008588,1 c -0.539782,1.759212 -0.154387,-3.627902 0.589591,-0.608751 0.204148,6.726008 -3.031766,-0.595401 -0.803548,-2.520706 2.30623,-1.308932 1.703621,9.586959 -0.408112,7.054263 -2.766779,-3.227226 0.629772,-13.739099 2.24908,-6.848986 0.225743,0.844941 0.362204,1.873173 0.381577,2.92418 m -4.008588,1 c -0.539782,1.759212 -0.154387,-3.627902 0.589591,-0.608751 0.204148,6.726008 -3.031766,-0.595401 -0.803548,-2.520706 2.30623,-1.308932 1.703621,9.586959 -0.408112,7.054263 -2.766779,-3.227226 0.629772,-13.739099 2.24908,-6.848986 0.225743,0.844941 0.362204,1.873173 0.381577,2.92418 m -4.008588,1 c -0.539782,1.759212 -0.154387,-3.627902 0.589591,-0.608751 0.204148,6.726008 -3.031766,-0.595401 -0.803548,-2.520706 2.30623,-1.308932 1.703621,9.586959 -0.408112,7.054263 -2.766779,-3.227226 0.629772,-13.739099 2.24908,-6.848986 0.225743,0.844941 0.362204,1.873173 0.381577,2.92418 m -4.008588,1 c -0.539782,1.759212 -0.154387,-3.627902 0.589591,-0.608751 0.204148,6.726008 -3.031766,-0.595401 -0.803548,-2.520706 2.30623,-1.308932 1.703621,9.586959 -0.408112,7.054263 -2.766779,-3.227226 0.629772,-13.739099 2.24908,-6.848986 0.225743,0.844941 0.362204,1.873173 0.381577,2.92418 m -4.008588,2 c -0.539782,1.759212 -0.154387,-3.627902 0.589591,-0.608751 0.204148,6.726008 -3.031766,-0.595401 -0.803548,-2.520706 2.30623,-1.308932 1.703621,9.586959 -0.408112,7.054263 -2.766779,-3.227226 0.629772,-13.739099 2.24908,-6.848986 0.225743,0.844941 0.362204,1.873173 0.381577,2.92418 m -4.008588,2 c -0.539782,1.759212 -0.154387,-3.627902 0.589591,-0.608751 0.204148,6.726008 -3.031766,-0.595401 -0.803548,-2.520706 2.30623,-1.308932 1.703621,9.586959 -0.408112,7.054263 -2.766779,-3.227226 0.629772,-13.739099 2.24908,-6.848986 0.225743,0.844941 0.362204,1.873173 0.381577,2.92418 m -4.008588,2 c -0.539782,1.759212 -0.154387,-3.627902 0.589591,-0.608751 0.204148,6.726008 -3.031766,-0.595401 -0.803548,-2.520706 2.30623,-1.308932 1.703621,9.586959 -0.408112,7.054263 -2.766779,-3.227226 0.629772,-13.739099 2.24908,-6.848986 0.225743,0.844941 0.362204,1.873173 0.381577,2.92418 m -4.008588,2.000001 c -0.539782,1.759212 -0.154387,-3.627902 0.589591,-0.608751 0.204148,6.726008 -3.031766,-0.595401 -0.803548,-2.520706 2.30623,-1.308932 1.703621,9.586959 -0.408112,7.054263 -2.766779,-3.227226 0.629772,-13.739099 2.24908,-6.848986 0.225743,0.844941 0.362204,1.873173 0.381577,2.92418 m -4.008588,2 c -0.539782,1.759212 -0.154387,-3.627902 0.589591,-0.608751 0.204148,6.726008 -3.031766,-0.595401 -0.803548,-2.520706 2.30623,-1.308932 1.703621,9.586959 -0.408112,7.054263 -2.766779,-3.227226 0.629772,-13.739099 2.24908,-6.848986 0.225743,0.844941 0.362204,1.873173 0.381577,2.92418 m -4.008588,3 c -0.539782,1.759212 -0.154387,-3.627902 0.589591,-0.608751 0.204148,6.726008 -3.031766,-0.595401 -0.803548,-2.520706 2.30623,-1.308932 1.703621,9.586959 -0.408112,7.054263 -2.766779,-3.227226 0.629772,-13.739099 2.24908,-6.848986 0.225743,0.844941 0.362204,1.873173 0.381577,2.92418 m -4.008588,3 c -0.539782,1.759212 -0.154387,-3.627902 0.589591,-0.608751 0.204148,6.726008 -3.031766,-0.595401 -0.803548,-2.520706 2.30623,-1.308932 1.703621,9.586959 -0.408112,7.054263 -2.766779,-3.227226 0.629772,-13.739099 2.24908,-6.848986 0.225743,0.844941 0.362204,1.873173 0.381577,2.92418 M 112.86027,27.460578 c -0.53978,1.759212 -0.15438,-3.627902 0.5896,-0.608751 0.20414,6.726008 -3.03177,-0.595401 -0.80355,-2.520706 2.30623,-1.308932 1.70362,9.586959 -0.40811,7.054263 -2.76678,-3.227226 0.62977,-13.739099 2.24908,-6.848986 0.22574,0.844941 0.3622,1.873173 0.38157,2.92418 m -4.00859,-2 c -0.53978,1.759212 -0.15438,-3.627902 0.5896,-0.608751 0.20414,6.726008 -3.03177,-0.595401 -0.80355,-2.520706 2.30623,-1.308932 1.70362,9.586959 -0.40811,7.054263 -2.76678,-3.227226 0.62977,-13.739099 2.24908,-6.848986 0.22574,0.844941 0.3622,1.873173 0.38157,2.92418 m -4.00859,-2 c -0.53978,1.759212 -0.15438,-3.627902 0.5896,-0.608751 0.20414,6.726008 -3.03177,-0.595401 -0.80355,-2.520706 2.30623,-1.308932 1.70362,9.586959 -0.40811,7.054263 -2.76678,-3.227226 0.62977,-13.739099 2.24908,-6.848986 0.22574,0.844941 0.3622,1.873173 0.38157,2.92418 m -4.00859,-2 c -0.53978,1.759212 -0.15438,-3.627902 0.5896,-0.608751 0.20414,6.726008 -3.03177,-0.595401 -0.80355,-2.520706 2.30623,-1.308932 1.70362,9.586959 -0.40811,7.054263 -2.76678,-3.227226 0.62977,-13.739099 2.24908,-6.848986 0.22574,0.844941 0.3622,1.873173 0.38157,2.92418 m -4.00859,-1 c -0.53978,1.759212 -0.15438,-3.627902 0.5896,-0.608751 0.20414,6.726008 -3.03177,-0.595401 -0.80355,-2.520706 2.30623,-1.308932 1.70362,9.586959 -0.40811,7.054263 -2.76678,-3.227226 0.62977,-13.739099 2.24908,-6.848986 0.22574,0.844941 0.3622,1.873173 0.38157,2.92418 m -4.00859,-2 c -0.53978,1.759212 -0.15438,-3.627902 0.5896,-0.608751 0.20414,6.726008 -3.03177,-0.595401 -0.80355,-2.520706 2.30623,-1.308932 1.70362,9.586959 -0.40811,7.054263 -2.766784,-3.227226 0.62977,-13.7390985 2.24908,-6.848986 0.22574,0.844941 0.3622,1.873173 0.38157,2.92418 m -4.00859,-1 c -0.53978,1.759212 -0.15438,-3.627902 0.5896,-0.608751 0.20414,6.726008 -3.031771,-0.595401 -0.80355,-2.520706 2.30623,-1.308932 1.70362,9.586959 -0.40811,7.054263 -2.766784,-3.227226 0.62977,-13.7390985 2.24908,-6.848986 0.22574,0.844941 0.3622,1.873173 0.38157,2.92418 m -4.008586,-1 c -0.539782,1.759212 -0.154387,-3.627902 0.589591,-0.608751 0.204148,6.726008 -3.031766,-0.595401 -0.803548,-2.520706 2.306233,-1.308932 1.703623,9.586959 -0.408112,7.054263 -2.766779,-3.227226 0.629772,-13.7390985 2.249085,-6.848986 0.22574,0.844941 0.3622,1.873173 0.38157,2.92418 m -4.008586,0 c -0.539782,1.759212 -0.154387,-3.627902 0.589591,-0.608751 0.204148,6.726008 -3.031766,-0.595401 -0.803548,-2.520706 2.30623,-1.308932 1.703621,9.586959 -0.408112,7.054263 -2.766779,-3.227226 0.629772,-13.7390985 2.24908,-6.848986 0.225743,0.844941 0.362204,1.873173 0.381577,2.92418 m -4.008588,-1 c -0.539782,1.759212 -0.154387,-3.627902 0.589591,-0.608751 0.204148,6.726008 -3.031766,-0.595401 -0.803548,-2.520706 2.30623,-1.308932 1.703621,9.586959 -0.408112,7.054263 -2.766779,-3.227226 0.629772,-13.7390985 2.24908,-6.848986 0.225743,0.844941 0.362204,1.873173 0.381577,2.92418 m -4.008588,-1 c -0.539782,1.759212 -0.154387,-3.627902 0.589591,-0.608751 0.204148,6.726008 -3.031766,-0.595401 -0.803548,-2.520706 2.30623,-1.308932 1.703621,9.586959 -0.408112,7.054263 -2.766779,-3.227226 0.629772,-13.7390985 2.24908,-6.848986 0.225743,0.844941 0.362204,1.873173 0.381577,2.92418 m -4.008588,0 c -0.539782,1.759212 -0.154387,-3.627902 0.589591,-0.608751 0.204148,6.726008 -3.031766,-0.595401 -0.803548,-2.520706 2.30623,-1.308932 1.703621,9.586959 -0.408112,7.054263 -2.766779,-3.227226 0.629772,-13.7390985 2.24908,-6.848986 0.225743,0.844941 0.362204,1.873173 0.381577,2.92418 m -4.008588,-1 c -0.539782,1.759212 -0.154387,-3.6279016 0.589591,-0.608751 0.204148,6.726008 -3.031766,-0.595401 -0.803548,-2.520706 2.30623,-1.3089324 1.703621,9.586959 -0.408112,7.054263 -2.766779,-3.227226 0.629772,-13.7390985 2.24908,-6.848986 0.225743,0.844941 0.362204,1.873173 0.381577,2.92418 m -4.008588,0 c -0.539782,1.759212 -0.154387,-3.6279016 0.589591,-0.608751 0.204148,6.726008 -3.031766,-0.595401 -0.803548,-2.520706 2.30623,-1.3089324 1.703621,9.586959 -0.408112,7.054263 -2.766779,-3.227226 0.629772,-13.7390985 2.24908,-6.848986 0.225743,0.844941 0.362204,1.873173 0.381577,2.92418 m -4.008588,0 c -0.539782,1.759212 -0.154387,-3.6279016 0.589591,-0.608751 0.204148,6.726008 -3.031766,-0.595401 -0.803548,-2.520706 2.30623,-1.3089324 1.703621,9.586959 -0.408112,7.054263 -2.766779,-3.227226 0.629772,-13.7390985 2.24908,-6.848986 0.225743,0.844941 0.362204,1.873173 0.381577,2.92418 m -4.008588,0 c -0.539782,1.759212 -0.154387,-3.6279016 0.589591,-0.608751 0.204148,6.726008 -3.031766,-0.595401 -0.803548,-2.520706 2.30623,-1.3089324 1.703621,9.586959 -0.408112,7.054263 -2.766779,-3.227226 0.629772,-13.7390985 2.24908,-6.848986 0.225743,0.844941 0.362204,1.873173 0.381577,2.92418 m -4.008588,0 c -0.539782,1.759212 -0.154387,-3.6279016 0.589591,-0.608751 0.204148,6.726008 -3.031766,-0.595401 -0.803548,-2.520706 2.30623,-1.3089324 1.703621,9.586959 -0.408112,7.054263 -2.766779,-3.227226 0.629772,-13.7390985 2.24908,-6.848986 0.225743,0.844941 0.362204,1.873173 0.381577,2.92418 m -4.008588,0 c -0.539782,1.759212 -0.154387,-3.6279016 0.589591,-0.608751 0.204148,6.726008 -3.031766,-0.595401 -0.803548,-2.520706 2.30623,-1.3089324 1.703621,9.586959 -0.408112,7.054263 -2.766779,-3.227226 0.629772,-13.7390985 2.24908,-6.848986 0.225743,0.844941 0.362204,1.873173 0.381577,2.92418 m -4.008588,0 c -0.539782,1.759212 -0.154387,-3.6279016 0.589591,-0.608751 0.204148,6.726008 -3.031766,-0.595401 -0.803548,-2.520706 2.30623,-1.3089324 1.703621,9.586959 -0.408112,7.054263 -2.766779,-3.227226 0.629772,-13.7390985 2.24908,-6.848986 0.225743,0.844941 0.362204,1.873173 0.381577,2.92418 m -4.008588,1 c -0.539782,1.759212 -0.154387,-3.627902 0.589591,-0.608751 0.204148,6.726008 -3.031766,-0.595401 -0.803548,-2.520706 2.30623,-1.308932 1.703621,9.586959 -0.408112,7.054263 -2.766779,-3.227226 0.629772,-13.7390985 2.24908,-6.848986 0.225743,0.844941 0.362204,1.873173 0.381577,2.92418 m -4.008588,0 c -0.539782,1.759212 -0.154387,-3.627902 0.589591,-0.608751 0.204148,6.726008 -3.031766,-0.595401 -0.803548,-2.520706 2.30623,-1.308932 1.703621,9.586959 -0.408112,7.054263 -2.766779,-3.227226 0.629772,-13.7390985 2.24908,-6.848986 0.225743,0.844941 0.362204,1.873173 0.381577,2.92418 m -4.008588,1 c -0.539782,1.759212 -0.154387,-3.627902 0.589591,-0.608751 0.204148,6.726008 -3.031766,-0.595401 -0.803548,-2.520706 2.30623,-1.308932 1.703621,9.586959 -0.408112,7.054263 -2.766779,-3.227226 0.629772,-13.7390985 2.24908,-6.848986 0.225743,0.844941 0.362204,1.873173 0.381577,2.92418 m -4.008588,1 c -0.539782,1.759212 -0.154387,-3.627902 0.589591,-0.608751 0.204148,6.726008 -3.031766,-0.595401 -0.803548,-2.520706 2.30623,-1.308932 1.703621,9.586959 -0.408112,7.054263 -2.766779,-3.227226 0.629772,-13.7390985 2.24908,-6.848986 0.225743,0.844941 0.362204,1.873173 0.381577,2.92418 m -4.008588,1 c -0.539782,1.759212 -0.154387,-3.627902 0.589591,-0.608751 0.204148,6.726008 -3.031766,-0.595401 -0.803548,-2.520706 2.30623,-1.308932 1.703621,9.586959 -0.408112,7.054263 -2.766779,-3.227226 0.629772,-13.7390985 2.24908,-6.848986 0.225743,0.844941 0.362204,1.873173 0.381577,2.92418 m -4.008588,1 c -0.539782,1.759212 -0.154387,-3.627902 0.589591,-0.608751 0.204148,6.726008 -3.031766,-0.595401 -0.803548,-2.520706 2.30623,-1.308932 1.703621,9.586959 -0.408112,7.054263 -2.766779,-3.227226 0.629772,-13.7390985 2.24908,-6.848986 0.225743,0.844941 0.362204,1.873173 0.381577,2.92418 m -4.008588,1 c -0.539782,1.759212 -0.154387,-3.627902 0.589591,-0.608751 0.204148,6.726008 -3.031766,-0.595401 -0.803548,-2.520706 2.30623,-1.308932 1.703621,9.586959 -0.408112,7.054263 -2.766779,-3.227226 0.629772,-13.7390985 2.24908,-6.848986 0.225743,0.844941 0.362204,1.873173 0.381577,2.92418 m -4.008588,2 c -0.539782,1.759212 -0.154387,-3.627902 0.589591,-0.608751 0.204148,6.726008 -3.031766,-0.595401 -0.803548,-2.520706 2.30623,-1.308932 1.703621,9.586959 -0.408112,7.054263 -2.766779,-3.227226 0.629772,-13.739099 2.24908,-6.848986 0.225743,0.844941 0.362204,1.873173 0.381577,2.92418 m -4.008588,1 c -0.539782,1.759212 -0.154387,-3.627902 0.589591,-0.608751 0.204148,6.726008 -3.031766,-0.595401 -0.803548,-2.520706 2.30623,-1.308932 1.703621,9.586959 -0.408112,7.054263 -2.766779,-3.227226 0.629772,-13.739099 2.24908,-6.848986 0.225743,0.844941 0.362204,1.873173 0.381577,2.92418 m -4.008588,2 c -0.539782,1.759212 -0.154387,-3.627902 0.589591,-0.608751 0.204148,6.726008 -3.031766,-0.595401 -0.803548,-2.520706 2.30623,-1.308932 1.703621,9.586959 -0.408112,7.054263 -2.766779,-3.227226 0.629772,-13.739099 2.24908,-6.848986 0.225743,0.844941 0.362204,1.873173 0.381577,2.92418 m -3.868785,1.539619 c -0.539782,1.759212 -0.154387,-3.627902 0.589591,-0.608751 0.204148,6.726008 -3.031766,-0.595401 -0.803548,-2.520706 2.30623,-1.308932 1.703621,9.586959 -0.408112,7.054263 -2.766779,-3.227226 0.629772,-13.739099 2.24908,-6.848986 0.225743,0.844941 0.362204,1.873173 0.381577,2.92418 m -4.008588,2 c -0.539782,1.759212 -0.154387,-3.627902 0.589591,-0.608751 0.204148,6.726008 -3.031766,-0.595401 -0.803548,-2.520706 2.30623,-1.308932 1.703621,9.586959 -0.408112,7.054263 -2.766779,-3.227226 0.629772,-13.739099 2.24908,-6.848986 0.225743,0.844941 0.362204,1.873173 0.381577,2.92418 m -4.008588,3 c -0.539782,1.759212 -0.154387,-3.627902 0.589591,-0.608751 0.204148,6.726008 -3.031766,-0.595401 -0.803548,-2.520706 2.30623,-1.308932 1.703621,9.586959 -0.408112,7.054263 -2.766779,-3.227226 0.629772,-13.739099 2.24908,-6.848986 0.225743,0.844941 0.362204,1.873173 0.381577,2.92418 m -4.008588,3.490948 c -0.539782,1.759212 -0.154387,-3.627902 0.589591,-0.608751 0.204148,6.726008 -3.031766,-0.595401 -0.803548,-2.520706 2.30623,-1.308932 1.703621,9.586959 -0.408112,7.054263 -2.766779,-3.227226 0.629772,-13.739099 2.24908,-6.848986 0.225743,0.844941 0.362204,1.873173 0.381577,2.92418 m -4.008588,4.509053 c -0.539782,1.759212 -0.154387,-3.627902 0.589591,-0.608751 0.204148,6.726008 -3.031766,-0.595401 -0.803548,-2.520706 2.30623,-1.308932 1.703621,9.586959 -0.408112,7.054263 -2.766779,-3.227226 0.629772,-13.739099 2.24908,-6.848986 0.225743,0.844941 0.362204,1.873173 0.381577,2.92418" />
</svg>
