<?xml version="1.0" encoding="UTF-8" standalone="no"?>
<svg
   xmlns:dc="http://purl.org/dc/elements/1.1/"
   xmlns:cc="http://creativecommons.org/ns#"
   xmlns:rdf="http://www.w3.org/1999/02/22-rdf-syntax-ns#"
   xmlns:svg="http://www.w3.org/2000/svg"
   xmlns="http://www.w3.org/2000/svg"
   xmlns:xlink="http://www.w3.org/1999/xlink"
   xmlns:sodipodi="http://sodipodi.sourceforge.net/DTD/sodipodi-0.dtd"
   xmlns:inkscape="http://www.inkscape.org/namespaces/inkscape"
   height="182"
   width="160"
   version="1.1"
   id="svg8900"
   sodipodi:docname="back-standing.svg"
   inkscape:version="0.92.3 (2405546, 2018-03-11)">
  <metadata
     id="metadata8904">
    <rdf:RDF>
      <cc:Work
         rdf:about="">
        <dc:format>image/svg+xml</dc:format>
        <dc:type
           rdf:resource="http://purl.org/dc/dcmitype/StillImage" />
        <dc:title />
      </cc:Work>
    </rdf:RDF>
  </metadata>
  <sodipodi:namedview
     pagecolor="#ffffff"
     bordercolor="#666666"
     borderopacity="1"
     objecttolerance="10"
     gridtolerance="10"
     guidetolerance="10"
     inkscape:pageopacity="0"
     inkscape:pageshadow="2"
     inkscape:window-width="1920"
     inkscape:window-height="2123"
     id="namedview8902"
     showgrid="true"
     inkscape:pagecheckerboard="true"
     inkscape:zoom="7.3352613"
     inkscape:cx="86.192632"
     inkscape:cy="127.05984"
     inkscape:window-x="1920"
     inkscape:window-y="0"
     inkscape:window-maximized="0"
     inkscape:current-layer="svg8900">
    <inkscape:grid
       type="xygrid"
       id="grid9449" />
  </sodipodi:namedview>
  <defs
     id="defs8892">
    <path
       d="M.7-.3l1.85 2.2H1.5L.05.7-1.4 1.9h-1.05l1.9-2.2H.7"
       fill-rule="evenodd"
       transform="translate(2.45 .3)"
       id="a" />
    <use
       height="2.2"
       width="5"
       xlink:href="#a"
       id="c" />
    <g
       id="b">
      <path
         d="M-15.5-41.55q-2.65-3.1-2.5-7.1-.15-5.3 5.35-9.8Q-7.15-63.5.5-64q7.6.5 13.05 5.55 5.45 4.5 5.45 9.8 0 4-2.6 7.1h.1-.05L13.9-38.5l-.05-.1-.8.05.65 9.65h.15l.25.75.2.5.2.4-.15.45-.3.75-.2.35q-.6.55-1.1.75l-.15.1h-.5q-1.6.3-2.1-.6-1.15-.45-.95-1.9l.4-1.4v-.05l.15-.05-.45-6.45-1.35.1.45 6.3-.5 2q.25 1.65 1.3 2.4-.25.35.15.15 1.1 1.35 3.05.85l.25.05h.2l-.05.45h-.05l-.35 4.2-1.05 4.1-1.65 4v.05H8.4v5.2Q8.35-4.1 7.6-3.2q-.65.75-1.7.75-1 0-1.7-.75-.8-.9-.8-2.25v-5.2H2.1v-1.2h-.3V-12l-.9-1.55h-2.45l-1.55 1.7v1.2h-1.2v5.2q-.05 1.35-.8 2.25-.7.75-1.7.75t-1.75-.75q-.75-.9-.75-2.25v-5.2h-1.2L-12.1-13l.1-.1q-1.8-1.9-2.15-4.15l-.1-1.2.05-.95.55-1.85h.1v-.55l.15-.15v-1.35h-.05l-.05-.8v-2.05l-.2-.65-.15-.45.15-.4.25-.5.25-.75h.1l.7-9.65-.85-.05-.4-.05v-.15l-2.05-2.75h.2m1.75 19.65l-.05-.1.05.1m3.7-6.55l-.05-.05v.05h.05"
         fill="#fff"
         fill-rule="evenodd"
         transform="translate(18.6 64.6)"
         id="path8885" />
      <path
         d="M13.9-38.5l.8 4.5.15 1.95.05-.05v.1l.2 2.65v.35H15v.1l.6 1.1q-.05.25.15.3.3 1.6-.6 2.45l-.15.2q-.15-.05-.2.1l-.25.25-.55.5q-.65.5-1.3.55h-.2l-.25-.05q-1.95.5-3.05-.85-.4.2-.15-.15-1.05-.75-1.3-2.4l.5-2-.45-6.3 1.35-.1.45 6.45-.15.05v.05l-.4 1.4q-.2 1.45.95 1.9.5.9 2.1.6h.5l.15-.1q.5-.2 1.1-.75l.2-.35.3-.75.15-.45-.2-.4-.2-.5-.25-.75h-.15l-.65-9.65.8-.05.05.1M9.55-10.65v5.2q0 1.95-1 3.1Q7.45-1.1 5.9-1.1q-1.5 0-2.65-1.25-1.05-1.15-1-3.1v-5.2H3.4v5.2q0 1.35.8 2.25.7.75 1.7.75 1.05 0 1.7-.75.75-.9.8-2.25v-5.2h1.15m-12.7 0v5.2q0 1.95-1.05 3.1Q-5.3-1.1-6.8-1.1t-2.65-1.25q-1.05-1.15-1.05-3.1v-5.2h1.2v5.2q0 1.35.75 2.25.75.75 1.75.75t1.7-.75q.75-.9.8-2.25v-5.2h1.15M-13.5-24.1l-.45-.4-.2-.25-.2-.1-.2-.2q-.9-.85-.55-2.45.15-.05.15-.3l.55-1.1.05-.1h-.1l-.05-.35h.05l.2-2.65v-.1l.05.05.1-1.95.85-4.6.85.05-.7 9.65h-.1l-.25.75-.25.5-.15.4.15.45.2.65v2.05"
         fill-rule="evenodd"
         transform="translate(18.6 64.6)"
         id="path8887" />
      <path
         d="M3.1 23.05q-2.65-3.1-2.5-7.1-.15-5.3 5.35-9.8Q11.45 1.1 19.1.6q7.6.5 13.05 5.55 5.45 4.5 5.45 9.8 0 4-2.6 7.1"
         fill="none"
         stroke="#000"
         stroke-linecap="round"
         stroke-linejoin="round"
         stroke-width="1.2"
         id="path8889" />
    </g>
  </defs>
  <g
     transform="matrix(2 0 0 2 82.641 144.2)"
     id="g8898">
    <use
       height="63.5"
       transform="translate(-18.6 -64.6)"
       width="38.2"
       xlink:href="#b"
       id="use8894" />
    <use
       height="2.2"
       transform="translate(10.35 -53.3)"
       width="5"
       xlink:href="#c"
       id="use8896" />
  </g>
  <path
     style="fill:#ffd42a;stroke:#000000;stroke-width:1px;stroke-linecap:butt;stroke-linejoin:miter;stroke-opacity:1"
     d="m 55.262784,101.99986 c 17.333335,0 34.666671,0 52.000006,0 0.54119,7.32878 -1.33444,14.85417 -5.559,20.9 -4.813669,0.0333 -9.627337,0.0667 -14.441006,0.1 -1,-2 -2,-4 -3,-6 -1.586333,0.0333 -3.172667,0.0667 -4.759,0.1 -1.033333,1.13333 -2.066667,2.26667 -3.1,3.4 0,0.8 0,1.6 0,2.4 -4.933333,0 -9.866667,0 -14.8,0 -2.113667,-2.96667 -4.227333,-5.93333 -6.341,-8.9 -1.078717,-3.86207 -1.958115,-8.25699 0,-12 z"
     id="path6982"
     inkscape:connector-curvature="0" />
  <path
     id="path6998-17"
     style="opacity:1;fill:#000000;fill-opacity:1;stroke:#000000;stroke-width:0.5;stroke-linejoin:round;stroke-miterlimit:4;stroke-dasharray:none;stroke-opacity:1"
     d="m 99.419034,105.26548 c -0.632789,-0.1949 -3.222139,1.36754 -1.66992,0.67581 -1.267368,0.62642 1.624643,-0.7468 2.16992,-0.2559 2.083866,-0.40146 3.088006,2.35343 5.289066,1.39861 0.87275,-0.13761 3.06341,-1.37286 1.65338,-0.77908 1.25854,-0.73898 -0.89,0.6135 -2.07557,0.45716 -1.99054,-0.0315 -3.10489,-2.28177 -5.367196,-1.49606 z m -2,9 c -0.632789,-0.1949 -3.222139,1.36754 -1.66992,0.67581 -1.267368,0.62642 1.624643,-0.7468 2.16992,-0.2559 2.083866,-0.40145 3.088016,2.35343 5.289066,1.39861 0.87275,-0.13761 3.06341,-1.37286 1.65338,-0.77908 1.25854,-0.73898 -0.89,0.6135 -2.07557,0.45716 -1.99054,-0.0315 -3.104893,-2.28177 -5.367196,-1.49606 z m -3,-6 c -0.632789,-0.1949 -3.222139,1.36754 -1.66992,0.67581 -1.267368,0.62642 1.624643,-0.7468 2.16992,-0.2559 2.083866,-0.40146 3.088002,2.35343 5.289056,1.39861 0.87276,-0.1376 3.06342,-1.37286 1.65339,-0.77908 1.25854,-0.73898 -0.89001,0.61351 -2.075576,0.45716 -1.990542,-0.0315 -3.10489,-2.28177 -5.36719,-1.49606 z m -7,-4 c -0.632789,-0.1949 -3.222139,1.36754 -1.66992,0.67581 -1.267368,0.62642 1.624643,-0.7468 2.16992,-0.2559 2.083867,-0.40146 3.088004,2.35343 5.28906,1.39861 0.872759,-0.13759 3.063358,-1.37285 1.653277,-0.77908 1.25854,-0.73898 -0.889999,0.6135 -2.075567,0.45716 -1.990542,-0.0315 -3.10489,-2.28177 -5.36719,-1.49606 z m -1,8 c -0.632789,-0.1949 -3.222139,1.36754 -1.66992,0.67581 -1.267368,0.62642 1.624643,-0.7468 2.16992,-0.2559 2.083867,-0.40146 3.088004,2.35343 5.28906,1.39861 0.872759,-0.13759 3.063358,-1.37285 1.653277,-0.77908 1.25854,-0.73898 -0.889999,0.6135 -2.075567,0.45716 -1.990542,-0.0315 -3.10489,-2.28177 -5.36719,-1.49606 z m -7,-4 c -0.632789,-0.1949 -3.222139,1.36754 -1.66992,0.67581 -1.267368,0.62642 1.624643,-0.7468 2.16992,-0.2559 2.083867,-0.40146 3.088004,2.35343 5.28906,1.39861 0.872759,-0.13759 3.063358,-1.37285 1.653277,-0.77908 1.25854,-0.73898 -0.889999,0.6135 -2.075567,0.45716 -1.990542,-0.0315 -3.10489,-2.28177 -5.36719,-1.49606 z m -7,-4 c -0.632789,-0.1949 -3.222139,1.36754 -1.66992,0.67581 -1.267368,0.62642 1.624643,-0.7468 2.16992,-0.2559 2.083867,-0.40146 3.088004,2.35343 5.28906,1.39861 0.872752,-0.13761 3.063409,-1.37286 1.653377,-0.77908 1.25854,-0.73898 -0.889999,0.6135 -2.075567,0.45716 -1.990542,-0.0315 -3.10489,-2.28177 -5.36719,-1.49606 z m -14,10 c -0.632789,-0.1949 -3.222139,1.36754 -1.66992,0.67581 -1.267368,0.62642 1.624643,-0.7468 2.16992,-0.2559 2.083867,-0.40146 3.088004,2.35343 5.28906,1.39861 0.872752,-0.13761 3.063409,-1.37286 1.653377,-0.77908 1.25854,-0.73898 -0.889999,0.6135 -2.075567,0.45716 -1.990542,-0.0315 -3.10489,-2.28177 -5.36719,-1.49606 z m 11,-2 c -0.632789,-0.1949 -3.222139,1.36754 -1.66992,0.67581 -1.267368,0.62642 1.624643,-0.7468 2.16992,-0.2559 2.083867,-0.40146 3.088004,2.35343 5.28906,1.39861 0.872752,-0.13761 3.063409,-1.37286 1.653377,-0.77908 1.25854,-0.73898 -0.889999,0.6135 -2.075567,0.45716 -1.990542,-0.0315 -3.10489,-2.28177 -5.36719,-1.49606 z m -7,-4 c -0.632789,-0.1949 -3.222139,1.36754 -1.66992,0.67581 -1.267368,0.62642 1.624643,-0.7468 2.16992,-0.2559 2.083867,-0.40146 3.088004,2.35343 5.28906,1.39861 0.872752,-0.13761 3.063409,-1.37286 1.653377,-0.77908 1.25854,-0.73898 -0.889999,0.6135 -2.075567,0.45716 -1.990542,-0.0315 -3.10489,-2.28177 -5.36719,-1.49606 z m -6,-4 c -0.632789,-0.1949 -3.22214,1.36754 -1.669922,0.67581 -1.267376,0.62642 1.624648,-0.7468 2.169922,-0.2559 2.083867,-0.40146 3.088004,2.35343 5.28906,1.39861 0.872752,-0.13761 3.063409,-1.37286 1.653377,-0.77908 1.25854,-0.73898 -0.889999,0.6135 -2.075567,0.45716 -1.990542,-0.0315 -3.10489,-2.28177 -5.36719,-1.49606 z m 39,14 c -0.632789,-0.1949 -3.222139,1.36754 -1.66992,0.67581 -1.267368,0.62642 1.624643,-0.7468 2.16992,-0.2559 2.083868,-0.40145 3.088008,2.35343 5.289066,1.39861 0.87275,-0.13761 3.06341,-1.37286 1.65338,-0.77908 1.25854,-0.73898 -0.89,0.6135 -2.07557,0.45716 -1.990545,-0.0315 -3.104894,-2.28177 -5.367196,-1.49606 z m -7,1 c -0.632789,-0.1949 -3.222139,1.36754 -1.66992,0.67581 -1.267368,0.62642 1.624643,-0.7468 2.16992,-0.2559 2.083867,-0.40146 3.088004,2.35343 5.28906,1.39861 0.872759,-0.13759 3.063358,-1.37285 1.653277,-0.77908 1.25854,-0.73898 -0.889999,0.6135 -2.075567,0.45716 -1.990542,-0.0315 -3.10489,-2.28177 -5.36719,-1.49606 z m -19,-1 c -0.632789,-0.1949 -3.222139,1.36754 -1.66992,0.67581 -1.267368,0.62642 1.624643,-0.7468 2.16992,-0.2559 2.083867,-0.40146 3.088004,2.35343 5.28906,1.39861 0.872752,-0.13761 3.063409,-1.37286 1.653377,-0.77908 1.25854,-0.73898 -0.889999,0.6135 -2.075567,0.45716 -1.990542,-0.0315 -3.10489,-2.28177 -5.36719,-1.49606 z m -7,1 c -0.632789,-0.1949 -3.222139,1.36754 -1.66992,0.67581 -1.267368,0.62642 1.624643,-0.7468 2.16992,-0.2559 2.083867,-0.40146 3.088004,2.35343 5.28906,1.39861 0.872752,-0.13761 3.063409,-1.37286 1.653377,-0.77908 1.25854,-0.73898 -0.889999,0.6135 -2.075567,0.45716 -1.990542,-0.0315 -3.10489,-2.28177 -5.36719,-1.49606 z" />
  <path
     style="fill:#ffcc00;stroke:#806600;stroke-width:2.33162618;stroke-linecap:butt;stroke-linejoin:miter;stroke-miterlimit:4;stroke-dasharray:none;stroke-opacity:1"
     d="M 57.998255,29.219293 C 63.471395,-26.628196 67.995503,18.59613 67.995503,18.59613"
     id="path5268"
     inkscape:connector-curvature="0" />
  <path
     style="fill:#ffcc00;stroke:#806600;stroke-width:2.33162618;stroke-linecap:butt;stroke-linejoin:miter;stroke-miterlimit:4;stroke-dasharray:none;stroke-opacity:1"
     d="M 108.78393,29.219293 C 103.31079,-26.628196 98.786683,18.59613 98.786683,18.59613"
     id="path5268-3"
     inkscape:connector-curvature="0" />
  <path
     id="path5357-72-19-372-8"
     style="fill:none;fill-rule:evenodd;stroke:#008000;stroke-width:0.41771439"
     d="m 98.991747,30.000346 c -0.539782,1.759212 -0.154387,-3.627902 0.589591,-0.608751 0.204148,6.726008 -3.031766,-0.595401 -0.803548,-2.520706 2.30623,-1.308932 1.70362,9.586959 -0.408112,7.054263 -2.766779,-3.227226 0.629772,-13.739099 2.249082,-6.848986 0.22574,0.844941 0.3622,1.873173 0.38157,2.92418 m -4.008583,2 c -0.539782,1.759212 -0.154387,-3.627902 0.589591,-0.608751 0.204148,6.726008 -3.031766,-0.595401 -0.803548,-2.520706 2.30623,-1.308932 1.703621,9.586959 -0.408112,7.054263 -2.766779,-3.227226 0.629772,-13.739099 2.24908,-6.848986 0.225743,0.844941 0.362204,1.873173 0.381577,2.92418 m -5.008588,3 c -0.539782,1.759212 -0.154387,-3.627902 0.589591,-0.608751 0.204148,6.726008 -3.031766,-0.595401 -0.803548,-2.520706 2.30623,-1.308932 1.703621,9.586959 -0.408112,7.054263 -2.766779,-3.227226 0.629772,-13.739099 2.24908,-6.848986 0.225743,0.844941 0.362204,1.873173 0.381577,2.92418 m -4.008588,2 c -0.539782,1.759212 -0.154387,-3.627902 0.589591,-0.608751 0.204148,6.726008 -3.031766,-0.595401 -0.803548,-2.520706 2.30623,-1.308932 1.703621,9.586959 -0.408112,7.054263 -2.766779,-3.227226 0.629772,-13.739099 2.24908,-6.848986 0.225743,0.844941 0.362204,1.873173 0.381577,2.92418 m -5.008588,4 c -0.539782,1.759212 -0.154387,-3.627902 0.589591,-0.608751 0.204148,6.726008 -3.031766,-0.595401 -0.803548,-2.520706 2.30623,-1.308932 1.703621,9.586959 -0.408112,7.054263 -2.766779,-3.227226 0.629772,-13.739099 2.24908,-6.848986 0.225743,0.844941 0.362204,1.873173 0.381577,2.92418 m 18.991415,-12 c -0.53978,1.759212 -0.15439,-3.627902 0.58959,-0.608751 0.20415,6.726008 -3.03177,-0.595401 -0.80355,-2.520706 2.30623,-1.308932 1.70362,9.586959 -0.40811,7.054263 -2.76678,-3.227226 0.62977,-13.739099 2.24908,-6.848986 0.22574,0.844941 0.3622,1.873173 0.38158,2.92418 m -4.00859,0 c -0.53978,1.759212 -0.15439,-3.627902 0.58959,-0.608751 0.20415,6.726008 -3.03177,-0.595401 -0.80355,-2.520706 2.30623,-1.308932 1.70362,9.586959 -0.40811,7.054263 -2.76678,-3.227226 0.62977,-13.739099 2.24908,-6.848986 0.22574,0.844941 0.3622,1.873173 0.38158,2.92418 m -4.00859,0 c -0.53978,1.759212 -0.15439,-3.627902 0.58959,-0.608751 0.20415,6.726008 -3.03177,-0.595401 -0.80355,-2.520706 2.30623,-1.308932 1.70362,9.586959 -0.40811,7.054263 -2.76678,-3.227226 0.62977,-13.739099 2.24908,-6.848986 0.22574,0.844941 0.3622,1.873173 0.38158,2.92418 m -4.00859,0 c -0.53978,1.759212 -0.15439,-3.627902 0.58959,-0.608751 0.20415,6.726008 -3.03177,-0.595401 -0.80355,-2.520706 2.30623,-1.308932 1.70362,9.586959 -0.40811,7.054263 -2.76678,-3.227226 0.62977,-13.739099 2.24908,-6.848986 0.22574,0.844941 0.3622,1.873173 0.38158,2.92418 M 47.991747,50.00034 c -0.539782,1.759212 -0.154387,-3.627902 0.589591,-0.608751 0.204148,6.726008 -3.031766,-0.595401 -0.803548,-2.520706 2.30623,-1.308932 1.703621,9.586959 -0.408112,7.054263 -2.766779,-3.227226 0.629772,-13.739099 2.24908,-6.848986 0.225743,0.844941 0.362204,1.873173 0.381577,2.92418 m -0.0086,0 c -0.539782,1.759212 -0.154387,-3.627902 0.589591,-0.608751 0.204148,6.726008 -3.031766,-0.595401 -0.803548,-2.520706 2.30623,-1.308932 1.703621,9.586959 -0.408112,7.054263 -2.766779,-3.227226 0.629772,-13.739099 2.24908,-6.848986 0.225743,0.844941 0.362204,1.873173 0.381577,2.92418 m 0.991412,0 c -0.539782,1.759212 -0.154387,-3.627902 0.589591,-0.608751 0.204148,6.726008 -3.031766,-0.595401 -0.803548,-2.520706 2.30623,-1.308932 1.703621,9.586959 -0.408112,7.054263 -2.766779,-3.227226 0.629772,-13.739099 2.24908,-6.848986 0.225743,0.844941 0.362204,1.873173 0.381577,2.92418 m 2.991412,0 c -0.539782,1.759212 -0.154387,-3.627902 0.589591,-0.608751 0.204148,6.726008 -3.031766,-0.595401 -0.803548,-2.520706 2.30623,-1.308932 1.703621,9.586959 -0.408112,7.054263 -2.766779,-3.227226 0.629772,-13.739099 2.24908,-6.848986 0.225743,0.844941 0.362204,1.873173 0.381577,2.92418 m -4.008588,0 c -0.539782,1.759212 -0.154387,-3.627902 0.589591,-0.608751 0.204148,6.726008 -3.031766,-0.595401 -0.803548,-2.520706 2.30623,-1.308932 1.703621,9.586959 -0.408112,7.054263 -2.766779,-3.227226 0.629772,-13.739099 2.24908,-6.848986 0.225743,0.844941 0.362204,1.873173 0.381577,2.92418 m 7.991412,0 c -0.539782,1.759212 -0.154387,-3.627902 0.589591,-0.608751 0.204148,6.726008 -3.031766,-0.595401 -0.803548,-2.520706 2.30623,-1.308932 1.703621,9.586959 -0.408112,7.054263 -2.766779,-3.227226 0.629772,-13.739099 2.24908,-6.848986 0.225743,0.844941 0.362204,1.873173 0.381577,2.92418 m -7.008588,0 c -0.539782,1.759212 -0.154387,-3.627902 0.589591,-0.608751 0.204148,6.726008 -3.031766,-0.595401 -0.803548,-2.520706 2.30623,-1.308932 1.703621,9.586959 -0.408112,7.054263 -2.766779,-3.227226 0.629772,-13.739099 2.24908,-6.848986 0.225743,0.844941 0.362204,1.873173 0.381577,2.92418 m 0.991412,0 c -0.539782,1.759212 -0.154387,-3.627902 0.589591,-0.608751 0.204148,6.726008 -3.031766,-0.595401 -0.803548,-2.520706 2.30623,-1.308932 1.703621,9.586959 -0.408112,7.054263 -2.766779,-3.227226 0.629772,-13.739099 2.24908,-6.848986 0.225743,0.844941 0.362204,1.873173 0.381577,2.92418 m 2.991412,0 c -0.539782,1.759212 -0.154387,-3.627902 0.589591,-0.608751 0.204148,6.726008 -3.031766,-0.595401 -0.803548,-2.520706 2.30623,-1.308932 1.703621,9.586959 -0.408112,7.054263 -2.766779,-3.227226 0.629772,-13.739099 2.24908,-6.848986 0.225743,0.844941 0.362204,1.873173 0.381577,2.92418 m 0.991412,0 c -0.539782,1.759212 -0.154387,-3.627902 0.589591,-0.608751 0.204148,6.726008 -3.031766,-0.595401 -0.803548,-2.520706 2.30623,-1.308932 1.703621,9.586959 -0.408112,7.054263 -2.766779,-3.227226 0.629772,-13.739099 2.24908,-6.848986 0.225743,0.844941 0.362204,1.873173 0.381577,2.92418 m 1.991412,0 c -0.539782,1.759212 -0.154387,-3.627902 0.589591,-0.608751 0.204148,6.726008 -3.031766,-0.595401 -0.803548,-2.520706 2.30623,-1.308932 1.703621,9.586959 -0.408112,7.054263 -2.766779,-3.227226 0.629772,-13.739099 2.24908,-6.848986 0.225743,0.844941 0.362204,1.873173 0.381577,2.92418 m 1.991412,0 c -0.539782,1.759212 -0.154387,-3.627902 0.589591,-0.608751 0.204148,6.726008 -3.031766,-0.595401 -0.803548,-2.520706 2.30623,-1.308932 1.703621,9.586959 -0.408112,7.054263 -2.766779,-3.227226 0.629772,-13.739099 2.24908,-6.848986 0.225743,0.844941 0.362204,1.873173 0.381577,2.92418 m -35.008588,-2 c -0.539782,1.759212 -0.154387,-3.627902 0.589591,-0.608751 0.204148,6.726008 -3.031766,-0.595401 -0.803548,-2.520706 2.30623,-1.308932 1.703621,9.586959 -0.408112,7.054263 -2.766779,-3.227226 0.629772,-13.739099 2.24908,-6.848986 0.225743,0.844941 0.362204,1.873173 0.381577,2.92418 m 0.991412,0 c -0.539782,1.759212 -0.154387,-3.627902 0.589591,-0.608751 0.204148,6.726008 -3.031766,-0.595401 -0.803548,-2.520706 2.30623,-1.308932 1.703621,9.586959 -0.408112,7.054263 -2.766779,-3.227226 0.629772,-13.739099 2.24908,-6.848986 0.225743,0.844941 0.362204,1.873173 0.381577,2.92418 m 0.991412,0 c -0.539782,1.759212 -0.154387,-3.627902 0.589591,-0.608751 0.204148,6.726008 -3.031766,-0.595401 -0.803548,-2.520706 2.30623,-1.308932 1.703621,9.586959 -0.408112,7.054263 -2.766779,-3.227226 0.629772,-13.739099 2.24908,-6.848986 0.225743,0.844941 0.362204,1.873173 0.381577,2.92418 m 2.991412,0 c -0.539782,1.759212 -0.154387,-3.627902 0.589591,-0.608751 0.204148,6.726008 -3.031766,-0.595401 -0.803548,-2.520706 2.30623,-1.308932 1.703621,9.586959 -0.408112,7.054263 -2.766779,-3.227226 0.629772,-13.739099 2.24908,-6.848986 0.225743,0.844941 0.362204,1.873173 0.381577,2.92418 m 1.991412,0 c -0.539782,1.759212 -0.154387,-3.627902 0.589591,-0.608751 0.204148,6.726008 -3.031766,-0.595401 -0.803548,-2.520706 2.30623,-1.308932 1.703621,9.586959 -0.408112,7.054263 -2.766779,-3.227226 0.629772,-13.739099 2.24908,-6.848986 0.225743,0.844941 0.362204,1.873173 0.381577,2.92418 m 1.991412,0 c -0.539782,1.759212 -0.154387,-3.627902 0.589591,-0.608751 0.204148,6.726008 -3.031766,-0.595401 -0.803548,-2.520706 2.30623,-1.308932 1.703621,9.586959 -0.408112,7.054263 -2.766779,-3.227226 0.629772,-13.739099 2.24908,-6.848986 0.225743,0.844941 0.362204,1.873173 0.381577,2.92418 m 1.991412,0 c -0.539782,1.759212 -0.154387,-3.627902 0.589591,-0.608751 0.204148,6.726008 -3.031766,-0.595401 -0.803548,-2.520706 2.30623,-1.308932 1.703621,9.586959 -0.408112,7.054263 -2.766779,-3.227226 0.629772,-13.739099 2.24908,-6.848986 0.225743,0.844941 0.362204,1.873173 0.381577,2.92418 m 1.991412,0 c -0.539782,1.759212 -0.154387,-3.627902 0.589591,-0.608751 0.204148,6.726008 -3.031766,-0.595401 -0.803548,-2.520706 2.30623,-1.308932 1.703621,9.586959 -0.408112,7.054263 -2.766779,-3.227226 0.629772,-13.739099 2.24908,-6.848986 0.225743,0.844941 0.362204,1.873173 0.381577,2.92418 m 0.991412,0 c -0.539782,1.759212 -0.154387,-3.627902 0.589591,-0.608751 0.204148,6.726008 -3.031766,-0.595401 -0.803548,-2.520706 2.30623,-1.308932 1.703621,9.586959 -0.408112,7.054263 -2.766779,-3.227226 0.629772,-13.739099 2.24908,-6.848986 0.225743,0.844941 0.362204,1.873173 0.381577,2.92418 m 2.991412,0 c -0.539782,1.759212 -0.154387,-3.627902 0.589591,-0.608751 0.204148,6.726008 -3.031766,-0.595401 -0.803548,-2.520706 2.30623,-1.308932 1.703621,9.586959 -0.408112,7.054263 -2.766779,-3.227226 0.629772,-13.739099 2.24908,-6.848986 0.225743,0.844941 0.362204,1.873173 0.381577,2.92418 m -35.008588,-3 c -0.539782,1.759212 -0.154387,-3.627902 0.589591,-0.608751 0.204148,6.726008 -3.031766,-0.595401 -0.803548,-2.520706 2.30623,-1.308932 1.703621,9.586959 -0.408112,7.054263 -2.766779,-3.227226 0.629772,-13.739099 2.24908,-6.848986 0.225743,0.844941 0.362204,1.873173 0.381577,2.92418 m -0.0086,0 c -0.539782,1.759212 -0.154387,-3.627902 0.589591,-0.608751 0.204148,6.726008 -3.031766,-0.595401 -0.803548,-2.520706 2.30623,-1.308932 1.703621,9.586959 -0.408112,7.054263 -2.766779,-3.227226 0.629772,-13.739099 2.24908,-6.848986 0.225743,0.844941 0.362204,1.873173 0.381577,2.92418 m 1.991412,0 c -0.539782,1.759212 -0.154387,-3.627902 0.589591,-0.608751 0.204148,6.726008 -3.031766,-0.595401 -0.803548,-2.520706 2.30623,-1.308932 1.703621,9.586959 -0.408112,7.054263 -2.766779,-3.227226 0.629772,-13.739099 2.24908,-6.848986 0.225743,0.844941 0.362204,1.873173 0.381577,2.92418 m -0.0086,0 c -0.539782,1.759212 -0.154387,-3.627902 0.589591,-0.608751 0.204148,6.726008 -3.031766,-0.595401 -0.803548,-2.520706 2.30623,-1.308932 1.703621,9.586959 -0.408112,7.054263 -2.766779,-3.227226 0.629772,-13.739099 2.24908,-6.848986 0.225743,0.844941 0.362204,1.873173 0.381577,2.92418 m -0.0086,0 c -0.539782,1.759212 -0.154387,-3.627902 0.589591,-0.608751 0.204148,6.726008 -3.031766,-0.595401 -0.803548,-2.520706 2.30623,-1.308932 1.703621,9.586959 -0.408112,7.054263 -2.766779,-3.227226 0.629772,-13.739099 2.24908,-6.848986 0.225743,0.844941 0.362204,1.873173 0.381577,2.92418 m 1.991412,0 c -0.539782,1.759212 -0.154387,-3.627902 0.589591,-0.608751 0.204148,6.726008 -3.031766,-0.595401 -0.803548,-2.520706 2.30623,-1.308932 1.703621,9.586959 -0.408112,7.054263 -2.766779,-3.227226 0.629772,-13.739099 2.24908,-6.848986 0.225743,0.844941 0.362204,1.873173 0.381577,2.92418 m -0.0086,0 c -0.539782,1.759212 -0.154387,-3.627902 0.589591,-0.608751 0.204148,6.726008 -3.031766,-0.595401 -0.803548,-2.520706 2.30623,-1.308932 1.703621,9.586959 -0.408112,7.054263 -2.766779,-3.227226 0.629772,-13.739099 2.24908,-6.848986 0.225743,0.844941 0.362204,1.873173 0.381577,2.92418 m -0.0086,0 c -0.539782,1.759212 -0.154387,-3.627902 0.589591,-0.608751 0.204148,6.726008 -3.031766,-0.595401 -0.803548,-2.520706 2.30623,-1.308932 1.703621,9.586959 -0.408112,7.054263 -2.766779,-3.227226 0.629772,-13.739099 2.24908,-6.848986 0.225743,0.844941 0.362204,1.873173 0.381577,2.92418 m -0.0086,0 c -0.539782,1.759212 -0.154387,-3.627902 0.589591,-0.608751 0.204148,6.726008 -3.031766,-0.595401 -0.803548,-2.520706 2.30623,-1.308932 1.703621,9.586959 -0.408112,7.054263 -2.766779,-3.227226 0.629772,-13.739099 2.24908,-6.848986 0.225743,0.844941 0.362204,1.873173 0.381577,2.92418 m 1.991412,0 c -0.539782,1.759212 -0.154387,-3.627902 0.589591,-0.608751 0.204148,6.726008 -3.031766,-0.595401 -0.803548,-2.520706 2.30623,-1.308932 1.703621,9.586959 -0.408112,7.054263 -2.766779,-3.227226 0.629772,-13.739099 2.24908,-6.848986 0.225743,0.844941 0.362204,1.873173 0.381577,2.92418 m -0.0086,0 c -0.539782,1.759212 -0.154387,-3.627902 0.589591,-0.608751 0.204148,6.726008 -3.031766,-0.595401 -0.803548,-2.520706 2.30623,-1.308932 1.703621,9.586959 -0.408112,7.054263 -2.766779,-3.227226 0.629772,-13.739099 2.24908,-6.848986 0.225743,0.844941 0.362204,1.873173 0.381577,2.92418 m 1.991412,0 c -0.539782,1.759212 -0.154387,-3.627902 0.589591,-0.608751 0.204148,6.726008 -3.031766,-0.595401 -0.803548,-2.520706 2.30623,-1.308932 1.703621,9.586959 -0.408112,7.054263 -2.766779,-3.227226 0.629772,-13.739099 2.24908,-6.848986 0.225743,0.844941 0.362204,1.873173 0.381577,2.92418 m -0.0086,0 c -0.539782,1.759212 -0.154387,-3.627902 0.589591,-0.608751 0.204148,6.726008 -3.031766,-0.595401 -0.803548,-2.520706 2.30623,-1.308932 1.703621,9.586959 -0.408112,7.054263 -2.766779,-3.227226 0.629772,-13.739099 2.24908,-6.848986 0.225743,0.844941 0.362204,1.873173 0.381577,2.92418 m -0.0086,0 c -0.539782,1.759212 -0.154387,-3.627902 0.589591,-0.608751 0.204148,6.726008 -3.031766,-0.595401 -0.803548,-2.520706 2.30623,-1.308932 1.703621,9.586959 -0.408112,7.054263 -2.766779,-3.227226 0.629772,-13.739099 2.24908,-6.848986 0.225743,0.844941 0.362204,1.873173 0.381577,2.92418 m -0.0086,0 c -0.539782,1.759212 -0.154387,-3.627902 0.589591,-0.608751 0.204148,6.726008 -3.031766,-0.595401 -0.803548,-2.520706 2.30623,-1.308932 1.703621,9.586959 -0.408112,7.054263 -2.766779,-3.227226 0.629772,-13.739099 2.24908,-6.848986 0.225743,0.844941 0.362204,1.873173 0.381577,2.92418 M 64.991747,32.000343 c -0.539782,1.759212 -0.154387,-3.627902 0.589591,-0.608751 0.204148,6.726008 -3.031766,-0.595401 -0.803548,-2.520706 2.30623,-1.308932 1.703621,9.586959 -0.408112,7.054263 -2.766779,-3.227226 0.629772,-13.739099 2.24908,-6.848986 0.225743,0.844941 0.362204,1.873173 0.381577,2.92418 m 22.991412,8.000001 c -0.539782,1.759212 -0.154387,-3.627902 0.589591,-0.608751 0.204148,6.726008 -3.031766,-0.595401 -0.803548,-2.520706 2.30623,-1.308932 1.703621,9.586959 -0.408112,7.054263 -2.766779,-3.227226 0.629772,-13.739099 2.24908,-6.848986 0.225743,0.844941 0.362204,1.873173 0.381577,2.92418 m -5.008588,0 c -0.539782,1.759212 -0.154387,-3.627902 0.589591,-0.608751 0.204148,6.726008 -3.031766,-0.595401 -0.803548,-2.520706 2.30623,-1.308932 1.703621,9.586959 -0.408112,7.054263 -2.766779,-3.227226 0.629772,-13.739099 2.24908,-6.848986 0.225743,0.844941 0.362204,1.873173 0.381577,2.92418 m -4.008588,0 c -0.539782,1.759212 -0.154387,-3.627902 0.589591,-0.608751 0.204148,6.726008 -3.031766,-0.595401 -0.803548,-2.520706 2.30623,-1.308932 1.703621,9.586959 -0.408112,7.054263 -2.766779,-3.227226 0.629772,-13.739099 2.24908,-6.848986 0.225743,0.844941 0.362204,1.873173 0.381577,2.92418 m -7.008588,0 c -0.539782,1.759212 -0.154387,-3.627902 0.589591,-0.608751 0.204148,6.726008 -3.031766,-0.595401 -0.803548,-2.520706 2.30623,-1.308932 1.703621,9.586959 -0.408112,7.054263 -2.766779,-3.227226 0.629772,-13.739099 2.24908,-6.848986 0.225743,0.844941 0.362204,1.873173 0.381577,2.92418 m -4.008588,0 c -0.539782,1.759212 -0.154387,-3.627902 0.589591,-0.608751 0.204148,6.726008 -3.031766,-0.595401 -0.803548,-2.520706 2.30623,-1.308932 1.703621,9.586959 -0.408112,7.054263 -2.766779,-3.227226 0.629772,-13.739099 2.24908,-6.848986 0.225743,0.844941 0.362204,1.873173 0.381577,2.92418 m -4.492936,0 c -0.539782,1.759212 -0.154387,-3.627902 0.589591,-0.608751 0.204148,6.726008 -3.031766,-0.595401 -0.803548,-2.520706 2.30623,-1.308932 1.703621,9.586959 -0.408112,7.054263 -2.766779,-3.227226 0.629772,-13.739099 2.24908,-6.848986 0.225743,0.844941 0.362204,1.873173 0.381577,2.92418 m -4.52424,0 c -0.539782,1.759212 -0.154387,-3.627902 0.589591,-0.608751 0.204148,6.726008 -3.031766,-0.595401 -0.803548,-2.520706 2.30623,-1.308932 1.703621,9.586959 -0.408112,7.054263 -2.766779,-3.227226 0.629772,-13.739099 2.24908,-6.848986 0.225743,0.844941 0.362204,1.873173 0.381577,2.92418 m -6.008588,0 c -0.539782,1.759212 -0.154387,-3.627902 0.589591,-0.608751 0.204148,6.726008 -3.031766,-0.595401 -0.803548,-2.520706 2.30623,-1.308932 1.703621,9.586959 -0.408112,7.054263 -2.766779,-3.227226 0.629772,-13.739099 2.24908,-6.848986 0.225743,0.844941 0.362204,1.873173 0.381577,2.92418 m -4.008588,0 c -0.539782,1.759212 -0.154387,-3.627902 0.589591,-0.608751 0.204148,6.726008 -3.031766,-0.595401 -0.803548,-2.520706 2.30623,-1.308932 1.703621,9.586959 -0.408112,7.054263 -2.766779,-3.227226 0.629772,-13.739099 2.24908,-6.848986 0.225743,0.844941 0.362204,1.873173 0.381577,2.92418 m -4.008588,0 c -0.539782,1.759212 -0.154387,-3.627902 0.589591,-0.608751 0.204148,6.726008 -3.031766,-0.595401 -0.803548,-2.520706 2.30623,-1.308932 1.703621,9.586959 -0.408112,7.054263 -2.766779,-3.227226 0.629772,-13.739099 2.24908,-6.848986 0.225743,0.844941 0.362204,1.873173 0.381577,2.92418 m -4.506707,0 c -0.539782,1.759212 -0.154387,-3.627902 0.589591,-0.608751 0.204148,6.726008 -3.031766,-0.595401 -0.803548,-2.520706 2.30623,-1.308932 1.703621,9.586959 -0.408112,7.054263 -2.766779,-3.227226 0.629772,-13.739099 2.24908,-6.848986 0.225743,0.844941 0.362204,1.873173 0.381577,2.92418 m -9.510469,2 c -0.539782,1.759212 -0.154387,-3.627902 0.589591,-0.608751 0.204148,6.726008 -3.031766,-0.595401 -0.803548,-2.520706 2.30623,-1.308932 1.703621,9.586959 -0.408112,7.054263 -2.766779,-3.227226 0.629772,-13.739099 2.24908,-6.848986 0.225743,0.844941 0.362204,1.873173 0.381577,2.92418 M 95.991747,28.000343 c -0.539782,1.759212 -0.154387,-3.627902 0.589591,-0.608751 0.204148,6.726008 -3.031766,-0.595401 -0.803548,-2.520706 2.30623,-1.308932 1.703621,9.586959 -0.408112,7.054263 -2.766779,-3.227226 0.629772,-13.739099 2.24908,-6.848986 0.225743,0.844941 0.362204,1.873173 0.381577,2.92418 m -4.008588,0 c -0.539782,1.759212 -0.154387,-3.627902 0.589591,-0.608751 0.204148,6.726008 -3.031766,-0.595401 -0.803548,-2.520706 2.30623,-1.308932 1.703621,9.586959 -0.408112,7.054263 -2.766779,-3.227226 0.629772,-13.739099 2.24908,-6.848986 0.225743,0.844941 0.362204,1.873173 0.381577,2.92418 m -4.008588,0 c -0.539782,1.759212 -0.154387,-3.627902 0.589591,-0.608751 0.204148,6.726008 -3.031766,-0.595401 -0.803548,-2.520706 2.30623,-1.308932 1.703621,9.586959 -0.408112,7.054263 -2.766779,-3.227226 0.629772,-13.739099 2.24908,-6.848986 0.225743,0.844941 0.362204,1.873173 0.381577,2.92418 m -4.008588,0 c -0.539782,1.759212 -0.154387,-3.627902 0.589591,-0.608751 0.204148,6.726008 -3.031766,-0.595401 -0.803548,-2.520706 2.30623,-1.308932 1.703621,9.586959 -0.408112,7.054263 -2.766779,-3.227226 0.629772,-13.739099 2.24908,-6.848986 0.225743,0.844941 0.362204,1.873173 0.381577,2.92418 m -4.008588,0 c -0.539782,1.759212 -0.154387,-3.627902 0.589591,-0.608751 0.204148,6.726008 -3.031766,-0.595401 -0.803548,-2.520706 2.30623,-1.308932 1.703621,9.586959 -0.408112,7.054263 -2.766779,-3.227226 0.629772,-13.739099 2.24908,-6.848986 0.225743,0.844941 0.362204,1.873173 0.381577,2.92418 m -4.008588,0 c -0.539782,1.759212 -0.154387,-3.627902 0.589591,-0.608751 0.204148,6.726008 -3.031766,-0.595401 -0.803548,-2.520706 2.30623,-1.308932 1.703621,9.586959 -0.408112,7.054263 -2.766779,-3.227226 0.629772,-13.739099 2.24908,-6.848986 0.225743,0.844941 0.362204,1.873173 0.381577,2.92418 m -4.008588,0 c -0.539782,1.759212 -0.154387,-3.627902 0.589591,-0.608751 0.204148,6.726008 -3.031766,-0.595401 -0.803548,-2.520706 2.30623,-1.308932 1.703621,9.586959 -0.408112,7.054263 -2.766779,-3.227226 0.629772,-13.739099 2.24908,-6.848986 0.225743,0.844941 0.362204,1.873173 0.381577,2.92418 m -4.008588,0 c -0.539782,1.759212 -0.154387,-3.627902 0.589591,-0.608751 0.204148,6.726008 -3.031766,-0.595401 -0.803548,-2.520706 2.30623,-1.308932 1.703621,9.586959 -0.408112,7.054263 -2.766779,-3.227226 0.629772,-13.739099 2.24908,-6.848986 0.225743,0.844941 0.362204,1.873173 0.381577,2.92418 m -4.008588,0 c -0.539782,1.759212 -0.154387,-3.627902 0.589591,-0.608751 0.204148,6.726008 -3.031766,-0.595401 -0.803548,-2.520706 2.30623,-1.308932 1.703621,9.586959 -0.408112,7.054263 -2.766779,-3.227226 0.629772,-13.739099 2.24908,-6.848986 0.225743,0.844941 0.362204,1.873173 0.381577,2.92418 m -5.008588,0 c -0.539782,1.759212 -0.154387,-3.627902 0.589591,-0.608751 0.204148,6.726008 -3.031766,-0.595401 -0.803548,-2.520706 2.30623,-1.308932 1.703621,9.586959 -0.408112,7.054263 -2.766779,-3.227226 0.629772,-13.739099 2.24908,-6.848986 0.225743,0.844941 0.362204,1.873173 0.381577,2.92418 m -5.008588,0 c -0.539782,1.759212 -0.154387,-3.627902 0.589591,-0.608751 0.204148,6.726008 -3.031766,-0.595401 -0.803548,-2.520706 2.30623,-1.308932 1.703621,9.586959 -0.408112,7.054263 -2.766779,-3.227226 0.629772,-13.739099 2.24908,-6.848986 0.225743,0.844941 0.362204,1.873173 0.381577,2.92418 m -5.008588,0 c -0.539782,1.759212 -0.154387,-3.627902 0.589591,-0.608751 0.204148,6.726008 -3.031766,-0.595401 -0.803548,-2.520706 2.30623,-1.308932 1.703621,9.586959 -0.408112,7.054263 -2.766779,-3.227226 0.629772,-13.739099 2.24908,-6.848986 0.225743,0.844941 0.362204,1.873173 0.381577,2.92418 m -4.008588,2 c -0.539782,1.759212 -0.154387,-3.627902 0.589591,-0.608751 0.204148,6.726008 -3.031766,-0.595401 -0.803548,-2.520706 2.30623,-1.308932 1.703621,9.586959 -0.408112,7.054263 -2.766779,-3.227226 0.629772,-13.739099 2.24908,-6.848986 0.225743,0.844941 0.362204,1.873173 0.381577,2.92418 m -5.008588,1 c -0.539782,1.759212 -0.154387,-3.627902 0.589591,-0.608751 0.204148,6.726008 -3.031766,-0.595401 -0.803548,-2.520706 2.30623,-1.308932 1.703621,9.586959 -0.408112,7.054263 -2.766779,-3.227226 0.629772,-13.739099 2.24908,-6.848986 0.225743,0.844941 0.362204,1.873173 0.381577,2.92418 m -4.008588,2 c -0.539782,1.759212 -0.154387,-3.627902 0.589591,-0.608751 0.204148,6.726008 -3.031766,-0.595401 -0.803548,-2.520706 2.30623,-1.308932 1.703621,9.586959 -0.408112,7.054263 -2.766779,-3.227226 0.629772,-13.739099 2.24908,-6.848986 0.225743,0.844941 0.362204,1.873173 0.381577,2.92418 m -5.008588,2.000001 c -0.539782,1.759212 -0.154387,-3.627902 0.589591,-0.608751 0.204148,6.726008 -3.031766,-0.595401 -0.803548,-2.520706 2.30623,-1.308932 1.703621,9.586959 -0.408112,7.054263 -2.766779,-3.227226 0.629772,-13.739099 2.24908,-6.848986 0.225743,0.844941 0.362204,1.873173 0.381577,2.92418 m -5.008588,2 c -0.539782,1.759212 -0.154387,-3.627902 0.589591,-0.608751 0.204148,6.726008 -3.031766,-0.595401 -0.803548,-2.520706 2.30623,-1.308932 1.703621,9.586959 -0.408112,7.054263 -2.766779,-3.227226 0.629772,-13.739099 2.24908,-6.848986 0.225743,0.844941 0.362204,1.873173 0.381577,2.92418 m 41.991415,-8.000001 c -0.53978,1.759212 -0.15439,-3.627902 0.58959,-0.608751 0.20415,6.726008 -3.031765,-0.595401 -0.80355,-2.520706 2.30623,-1.308932 1.70362,9.586959 -0.40811,7.054263 -2.766778,-3.227226 0.62977,-13.739099 2.24908,-6.848986 0.22574,0.844941 0.3622,1.873173 0.38158,2.92418 m -4.008593,0 c -0.539782,1.759212 -0.154387,-3.627902 0.589593,-0.608751 0.20415,6.726008 -3.031768,-0.595401 -0.80355,-2.520706 2.30623,-1.308932 1.70362,9.586959 -0.408112,7.054263 -2.766779,-3.227226 0.629772,-13.739099 2.249082,-6.848986 0.22574,0.844941 0.3622,1.873173 0.38157,2.92418 m -4.008583,0 c -0.539782,1.759212 -0.154387,-3.627902 0.589591,-0.608751 0.204148,6.726008 -3.031766,-0.595401 -0.803548,-2.520706 2.30623,-1.308932 1.703621,9.586959 -0.408112,7.054263 -2.766779,-3.227226 0.629772,-13.739099 2.24908,-6.848986 0.225743,0.844941 0.362204,1.873173 0.381572,2.92418 m -4.008583,0 c -0.539782,1.759212 -0.154387,-3.627902 0.589591,-0.608751 0.204148,6.726008 -3.031766,-0.595401 -0.803548,-2.520706 2.30623,-1.308932 1.703621,9.586959 -0.408112,7.054263 -2.766779,-3.227226 0.629772,-13.739099 2.24908,-6.848986 0.225743,0.844941 0.362204,1.873173 0.381577,2.92418 m -4.008588,0 c -0.539782,1.759212 -0.154387,-3.627902 0.589591,-0.608751 0.204148,6.726008 -3.031766,-0.595401 -0.803548,-2.520706 2.30623,-1.308932 1.703621,9.586959 -0.408112,7.054263 -2.766779,-3.227226 0.629772,-13.739099 2.24908,-6.848986 0.225743,0.844941 0.362204,1.873173 0.381577,2.92418 m -4.008588,0 c -0.539782,1.759212 -0.154387,-3.627902 0.589591,-0.608751 0.204148,6.726008 -3.031766,-0.595401 -0.803548,-2.520706 2.30623,-1.308932 1.703621,9.586959 -0.408112,7.054263 -2.766779,-3.227226 0.629772,-13.739099 2.24908,-6.848986 0.225743,0.844941 0.362204,1.873173 0.381577,2.92418 m -4.008588,0 c -0.539782,1.759212 -0.154387,-3.627902 0.589591,-0.608751 0.204148,6.726008 -3.031766,-0.595401 -0.803548,-2.520706 2.30623,-1.308932 1.703621,9.586959 -0.408112,7.054263 -2.766779,-3.227226 0.629772,-13.739099 2.24908,-6.848986 0.225743,0.844941 0.362204,1.873173 0.381577,2.92418 m -4.008588,0 c -0.539782,1.759212 -0.154387,-3.627902 0.589591,-0.608751 0.204148,6.726008 -3.031766,-0.595401 -0.803548,-2.520706 2.30623,-1.308932 1.703621,9.586959 -0.408112,7.054263 -2.766779,-3.227226 0.629772,-13.739099 2.24908,-6.848986 0.225743,0.844941 0.362204,1.873173 0.381577,2.92418 m -4.008588,0 c -0.539782,1.759212 -0.154387,-3.627902 0.589591,-0.608751 0.204148,6.726008 -3.031766,-0.595401 -0.803548,-2.520706 2.30623,-1.308932 1.703621,9.586959 -0.408112,7.054263 -2.766779,-3.227226 0.629772,-13.739099 2.24908,-6.848986 0.225743,0.844941 0.362204,1.873173 0.381577,2.92418 m -4.008588,0 c -0.539782,1.759212 -0.154387,-3.627902 0.589591,-0.608751 0.204148,6.726008 -3.031766,-0.595401 -0.803548,-2.520706 2.30623,-1.308932 1.703621,9.586959 -0.408112,7.054263 -2.766779,-3.227226 0.629772,-13.739099 2.24908,-6.848986 0.225743,0.844941 0.362204,1.873173 0.381577,2.92418 m -4.008588,0 c -0.539782,1.759212 -0.154387,-3.627902 0.589591,-0.608751 0.204148,6.726008 -3.031766,-0.595401 -0.803548,-2.520706 2.30623,-1.308932 1.703621,9.586959 -0.408112,7.054263 -2.766779,-3.227226 0.629772,-13.739099 2.24908,-6.848986 0.225743,0.844941 0.362204,1.873173 0.381577,2.92418 m -4.008588,0 c -0.539782,1.759212 -0.154387,-3.627902 0.589591,-0.608751 0.204148,6.726008 -3.031766,-0.595401 -0.803548,-2.520706 2.30623,-1.308932 1.703621,9.586959 -0.408112,7.054263 -2.766779,-3.227226 0.629772,-13.739099 2.24908,-6.848986 0.225743,0.844941 0.362204,1.873173 0.381577,2.92418 m -3.640798,0 c -0.539782,1.759212 -0.154387,-3.627902 0.589591,-0.608751 0.204148,6.726008 -3.031766,-0.595401 -0.803548,-2.520706 2.30623,-1.308932 1.703621,9.586959 -0.408112,7.054263 -2.766779,-3.227226 0.629772,-13.739099 2.24908,-6.848986 0.225743,0.844941 0.362204,1.873173 0.381577,2.92418 m -4.019423,0 c -0.539782,1.759212 -0.154387,-3.627902 0.589591,-0.608751 0.204148,6.726008 -3.031766,-0.595401 -0.803548,-2.520706 2.30623,-1.308932 1.703621,9.586959 -0.408112,7.054263 -2.766779,-3.227226 0.629772,-13.739099 2.24908,-6.848986 0.225743,0.844941 0.362204,1.873173 0.381577,2.92418 m -3.951259,0 c -0.539782,1.759212 -0.154387,-3.627902 0.589591,-0.608751 0.204148,6.726008 -3.031766,-0.595401 -0.803548,-2.520706 2.30623,-1.308932 1.703621,9.586959 -0.408112,7.054263 -2.766779,-3.227226 0.629772,-13.739099 2.24908,-6.848986 0.225743,0.844941 0.362204,1.873173 0.381577,2.92418 m -3.849013,0 c -0.539782,1.759212 -0.154387,-3.627902 0.589591,-0.608751 0.204148,6.726008 -3.031766,-0.595401 -0.803548,-2.520706 2.30623,-1.308932 1.703621,9.586959 -0.408112,7.054263 -2.766779,-3.227226 0.629772,-13.739099 2.24908,-6.848986 0.225743,0.844941 0.362204,1.873173 0.381577,2.92418 m -4.019423,0 c -0.539782,1.759212 -0.154387,-3.627902 0.589591,-0.608751 0.204148,6.726008 -3.031766,-0.595401 -0.803548,-2.520706 2.30623,-1.308932 1.703621,9.586959 -0.408112,7.054263 -2.766779,-3.227226 0.629772,-13.739099 2.24908,-6.848986 0.225743,0.844941 0.362204,1.873173 0.381577,2.92418 m -3.917177,0 c -0.539782,1.759212 -0.154387,-3.627902 0.589591,-0.608751 0.204148,6.726008 -3.031766,-0.595401 -0.803548,-2.520706 2.30623,-1.308932 1.703621,9.586959 -0.408112,7.054263 -2.766779,-3.227226 0.629772,-13.739099 2.24908,-6.848986 0.225743,0.844941 0.362204,1.873173 0.381577,2.92418 m 24.336977,5 c -0.539782,1.759212 -0.154387,-3.627902 0.589591,-0.608751 0.204148,6.726008 -3.031766,-0.595401 -0.803548,-2.520706 2.30623,-1.308932 1.703621,9.586959 -0.408112,7.054263 -2.766779,-3.227226 0.629772,-13.739099 2.24908,-6.848986 0.225743,0.844941 0.362204,1.873173 0.381577,2.92418 m -4.008588,0 c -0.539782,1.759212 -0.154387,-3.627902 0.589591,-0.608751 0.204148,6.726008 -3.031766,-0.595401 -0.803548,-2.520706 2.30623,-1.308932 1.703621,9.586959 -0.408112,7.054263 -2.766779,-3.227226 0.629772,-13.739099 2.24908,-6.848986 0.225743,0.844941 0.362204,1.873173 0.381577,2.92418 m -4.008588,0 c -0.539782,1.759212 -0.154387,-3.627902 0.589591,-0.608751 0.204148,6.726008 -3.031766,-0.595401 -0.803548,-2.520706 2.30623,-1.308932 1.703621,9.586959 -0.408112,7.054263 -2.766779,-3.227226 0.629772,-13.739099 2.24908,-6.848986 0.225743,0.844941 0.362204,1.873173 0.381577,2.92418 m -4.008588,0 c -0.539782,1.759212 -0.154387,-3.627902 0.589591,-0.608751 0.204148,6.726008 -3.031766,-0.595401 -0.803548,-2.520706 2.30623,-1.308932 1.703621,9.586959 -0.408112,7.054263 -2.766779,-3.227226 0.629772,-13.739099 2.24908,-6.848986 0.225743,0.844941 0.362204,1.873173 0.381577,2.92418 m -4.008588,0 c -0.539782,1.759212 -0.154387,-3.627902 0.589591,-0.608751 0.204148,6.726008 -3.031766,-0.595401 -0.803548,-2.520706 2.30623,-1.308932 1.703621,9.586959 -0.408112,7.054263 -2.766779,-3.227226 0.629772,-13.739099 2.24908,-6.848986 0.225743,0.844941 0.362204,1.873173 0.381577,2.92418 m -4.008588,0 c -0.539782,1.759212 -0.154387,-3.627902 0.589591,-0.608751 0.204148,6.726008 -3.031766,-0.595401 -0.803548,-2.520706 2.30623,-1.308932 1.703621,9.586959 -0.408112,7.054263 -2.766779,-3.227226 0.629772,-13.739099 2.24908,-6.848986 0.225743,0.844941 0.362204,1.873173 0.381577,2.92418 m -4.008588,0 c -0.539782,1.759212 -0.154387,-3.627902 0.589591,-0.608751 0.204148,6.726008 -3.031766,-0.595401 -0.803548,-2.520706 2.30623,-1.308932 1.703621,9.586959 -0.408112,7.054263 -2.766779,-3.227226 0.629772,-13.739099 2.24908,-6.848986 0.225743,0.844941 0.362204,1.873173 0.381577,2.92418 m -4.008588,0 c -0.539782,1.759212 -0.154387,-3.627902 0.589591,-0.608751 0.204148,6.726008 -3.031766,-0.595401 -0.803548,-2.520706 2.30623,-1.308932 1.703621,9.586959 -0.408112,7.054263 -2.766779,-3.227226 0.629772,-13.739099 2.24908,-6.848986 0.225743,0.844941 0.362204,1.873173 0.381577,2.92418 m -4.008588,0 c -0.539782,1.759212 -0.154387,-3.627902 0.589591,-0.608751 0.204148,6.726008 -3.031766,-0.595401 -0.803548,-2.520706 2.30623,-1.308932 1.703621,9.586959 -0.408112,7.054263 -2.766779,-3.227226 0.629772,-13.739099 2.24908,-6.848986 0.225743,0.844941 0.362204,1.873173 0.381577,2.92418 m -4.008588,0 c -0.539782,1.759212 -0.154387,-3.627902 0.589591,-0.608751 0.204148,6.726008 -3.031766,-0.595401 -0.803548,-2.520706 2.30623,-1.308932 1.703621,9.586959 -0.408112,7.054263 -2.766779,-3.227226 0.629772,-13.739099 2.24908,-6.848986 0.225743,0.844941 0.362204,1.873173 0.381577,2.92418 m -4.008588,0 c -0.539782,1.759212 -0.154387,-3.627902 0.589591,-0.608751 0.204148,6.726008 -3.031766,-0.595401 -0.803548,-2.520706 2.30623,-1.308932 1.703621,9.586959 -0.408112,7.054263 -2.766779,-3.227226 0.629772,-13.739099 2.24908,-6.848986 0.225743,0.844941 0.362204,1.873173 0.381577,2.92418 m -4.008588,0 c -0.539782,1.759212 -0.154387,-3.627902 0.589591,-0.608751 0.204148,6.726008 -3.031766,-0.595401 -0.803548,-2.520706 2.30623,-1.308932 1.703621,9.586959 -0.408112,7.054263 -2.766779,-3.227226 0.629772,-13.739099 2.24908,-6.848986 0.225743,0.844941 0.362204,1.873173 0.381577,2.92418 m -4.008588,0 c -0.539782,1.759212 -0.154387,-3.627902 0.589591,-0.608751 0.204148,6.726008 -3.031766,-0.595401 -0.803548,-2.520706 2.30623,-1.308932 1.703621,9.586959 -0.408112,7.054263 -2.766779,-3.227226 0.629772,-13.739099 2.24908,-6.848986 0.225743,0.844941 0.362204,1.873173 0.381577,2.92418 m -4.008588,0 c -0.539782,1.759212 -0.154387,-3.627902 0.589591,-0.608751 0.204148,6.726008 -3.031766,-0.595401 -0.803548,-2.520706 2.30623,-1.308932 1.703621,9.586959 -0.408112,7.054263 -2.766779,-3.227226 0.629772,-13.739099 2.24908,-6.848986 0.225743,0.844941 0.362204,1.873173 0.381577,2.92418 M 66.991747,33.55866 c -0.539782,1.759212 -0.154387,-3.627902 0.589591,-0.608751 0.204148,6.726008 -3.031766,-0.595401 -0.803548,-2.520706 2.30623,-1.308932 1.703621,9.586959 -0.408112,7.054263 -2.766779,-3.227226 0.629772,-13.739099 2.24908,-6.848986 0.225743,0.844941 0.362204,1.873173 0.381577,2.92418 m -4.008588,-0.204491 c -0.539782,1.759212 -0.154387,-3.627902 0.589591,-0.608751 0.204148,6.726008 -3.031766,-0.595401 -0.803548,-2.520706 2.30623,-1.308932 1.703621,9.586959 -0.408112,7.054263 -2.766779,-3.227226 0.629772,-13.739099 2.24908,-6.848986 0.225743,0.844941 0.362204,1.873173 0.381577,2.92418 m -4.008588,0.03408 c -0.539782,1.759212 -0.154387,-3.627902 0.589591,-0.608751 0.204148,6.726008 -3.031766,-0.595401 -0.803548,-2.520706 2.30623,-1.308932 1.703621,9.586959 -0.408112,7.054263 -2.766779,-3.227226 0.629772,-13.739099 2.24908,-6.848986 0.225743,0.844941 0.362204,1.873173 0.381577,2.92418 m -4.008588,0.06816 c -0.539782,1.759212 -0.154387,-3.627902 0.589591,-0.608751 0.204148,6.726008 -3.031766,-0.595401 -0.803548,-2.520706 2.30623,-1.308932 1.703621,9.586959 -0.408112,7.054263 -2.766779,-3.227226 0.629772,-13.739099 2.24908,-6.848986 0.225743,0.844941 0.362204,1.873173 0.381577,2.92418 m 27.991412,4.543929 c -0.539782,1.759212 -0.154387,-3.627902 0.589591,-0.608751 0.204148,6.726008 -3.031766,-0.595401 -0.803548,-2.520706 2.30623,-1.308932 1.703621,9.586959 -0.408112,7.054263 -2.766779,-3.227226 0.629772,-13.739099 2.24908,-6.848986 0.225743,0.844941 0.362204,1.873173 0.381577,2.92418 m -4.008588,0 c -0.539782,1.759212 -0.154387,-3.627902 0.589591,-0.608751 0.204148,6.726008 -3.031766,-0.595401 -0.803548,-2.520706 2.30623,-1.308932 1.703621,9.586959 -0.408112,7.054263 -2.766779,-3.227226 0.629772,-13.739099 2.24908,-6.848986 0.225743,0.844941 0.362204,1.873173 0.381577,2.92418 m -4.008588,0 c -0.539782,1.759212 -0.154387,-3.627902 0.589591,-0.608751 0.204148,6.726008 -3.031766,-0.595401 -0.803548,-2.520706 2.30623,-1.308932 1.703621,9.586959 -0.408112,7.054263 -2.766779,-3.227226 0.629772,-13.739099 2.24908,-6.848986 0.225743,0.844941 0.362204,1.873173 0.381577,2.92418 m -4.008588,0 c -0.539782,1.759212 -0.154387,-3.627902 0.589591,-0.608751 0.204148,6.726008 -3.031766,-0.595401 -0.803548,-2.520706 2.30623,-1.308932 1.703621,9.586959 -0.408112,7.054263 -2.766779,-3.227226 0.629772,-13.739099 2.24908,-6.848986 0.225743,0.844941 0.362204,1.873173 0.381577,2.92418 m -4.008588,0 c -0.539782,1.759212 -0.154387,-3.627902 0.589591,-0.608751 0.204148,6.726008 -3.031766,-0.595401 -0.803548,-2.520706 2.30623,-1.308932 1.703621,9.586959 -0.408112,7.054263 -2.766779,-3.227226 0.629772,-13.739099 2.24908,-6.848986 0.225743,0.844941 0.362204,1.873173 0.381577,2.92418 m -4.008588,0 c -0.539782,1.759212 -0.154387,-3.627902 0.589591,-0.608751 0.204148,6.726008 -3.031766,-0.595401 -0.803548,-2.520706 2.30623,-1.308932 1.703621,9.586959 -0.408112,7.054263 -2.766779,-3.227226 0.629772,-13.739099 2.24908,-6.848986 0.225743,0.844941 0.362204,1.873173 0.381577,2.92418 m -4.008588,0 c -0.539782,1.759212 -0.154387,-3.627902 0.589591,-0.608751 0.204148,6.726008 -3.031766,-0.595401 -0.803548,-2.520706 2.30623,-1.308932 1.703621,9.586959 -0.408112,7.054263 -2.766779,-3.227226 0.629772,-13.739099 2.24908,-6.848986 0.225743,0.844941 0.362204,1.873173 0.381577,2.92418 m -4.008588,0 c -0.539782,1.759212 -0.154387,-3.627902 0.589591,-0.608751 0.204148,6.726008 -3.031766,-0.595401 -0.803548,-2.520706 2.30623,-1.308932 1.703621,9.586959 -0.408112,7.054263 -2.766779,-3.227226 0.629772,-13.739099 2.24908,-6.848986 0.225743,0.844941 0.362204,1.873173 0.381577,2.92418 m -4.008588,0 c -0.539782,1.759212 -0.154387,-3.627902 0.589591,-0.608751 0.204148,6.726008 -3.031766,-0.595401 -0.803548,-2.520706 2.30623,-1.308932 1.703621,9.586959 -0.408112,7.054263 -2.766779,-3.227226 0.629772,-13.739099 2.24908,-6.848986 0.225743,0.844941 0.362204,1.873173 0.381577,2.92418 m -4.008588,0 c -0.539782,1.759212 -0.154387,-3.627902 0.589591,-0.608751 0.204148,6.726008 -3.031766,-0.595401 -0.803548,-2.520706 2.30623,-1.308932 1.703621,9.586959 -0.408112,7.054263 -2.766779,-3.227226 0.629772,-13.739099 2.24908,-6.848986 0.225743,0.844941 0.362204,1.873173 0.381577,2.92418 m -4.008588,0 c -0.539782,1.759212 -0.154387,-3.627902 0.589591,-0.608751 0.204148,6.726008 -3.031766,-0.595401 -0.803548,-2.520706 2.30623,-1.308932 1.703621,9.586959 -0.408112,7.054263 -2.766779,-3.227226 0.629772,-13.739099 2.24908,-6.848986 0.225743,0.844941 0.362204,1.873173 0.381577,2.92418 m -4.008588,0 c -0.539782,1.759212 -0.154387,-3.627902 0.589591,-0.608751 0.204148,6.726008 -3.031766,-0.595401 -0.803548,-2.520706 2.30623,-1.308932 1.703621,9.586959 -0.408112,7.054263 -2.766779,-3.227226 0.629772,-13.739099 2.24908,-6.848986 0.225743,0.844941 0.362204,1.873173 0.381577,2.92418 m -4.008588,0 c -0.539782,1.759212 -0.154387,-3.627902 0.589591,-0.608751 0.204148,6.726008 -3.031766,-0.595401 -0.803548,-2.520706 2.30623,-1.308932 1.703621,9.586959 -0.408112,7.054263 -2.766779,-3.227226 0.629772,-13.739099 2.24908,-6.848986 0.225743,0.844941 0.362204,1.873173 0.381577,2.92418 m -4.008588,0 c -0.539782,1.759212 -0.154387,-3.627902 0.589591,-0.608751 0.204148,6.726008 -3.031766,-0.595401 -0.803548,-2.520706 2.30623,-1.308932 1.703621,9.586959 -0.408112,7.054263 -2.766779,-3.227226 0.629772,-13.739099 2.24908,-6.848986 0.225743,0.844941 0.362204,1.873173 0.381577,2.92418 m -4.008588,0.397954 c -0.539782,1.759212 -0.154387,-3.627902 0.589591,-0.608751 0.204148,6.726008 -3.031766,-0.595401 -0.803548,-2.520706 2.30623,-1.308932 1.703621,9.586959 -0.408112,7.054263 -2.766779,-3.227226 0.629772,-13.739099 2.24908,-6.848986 0.225743,0.844941 0.362204,1.873173 0.381577,2.92418 m -4.008588,0.06816 c -0.539782,1.759212 -0.154387,-3.627902 0.589591,-0.608751 0.204148,6.726008 -3.031766,-0.595401 -0.803548,-2.520706 2.30623,-1.308932 1.703621,9.586959 -0.408112,7.054263 -2.766779,-3.227226 0.629772,-13.739099 2.24908,-6.848986 0.225743,0.844941 0.362204,1.873173 0.381577,2.92418 m -4.008588,-0.102246 c -0.539782,1.759212 -0.154387,-3.627902 0.589591,-0.608751 0.204148,6.726008 -3.031766,-0.595401 -0.803548,-2.520706 2.30623,-1.308932 1.703621,9.586959 -0.408112,7.054263 -2.766779,-3.227226 0.629772,-13.739099 2.24908,-6.848986 0.225743,0.844941 0.362204,1.873173 0.381577,2.92418 m -4.008588,0.136328 c -0.539782,1.759212 -0.154387,-3.627902 0.589591,-0.608751 0.204148,6.726008 -3.031766,-0.595401 -0.803548,-2.520706 2.30623,-1.308932 1.703621,9.586959 -0.408112,7.054263 -2.766779,-3.227226 0.629772,-13.739099 2.24908,-6.848986 0.225743,0.844941 0.362204,1.873173 0.381577,2.92418 m -4.008588,-0.06816 c -0.539782,1.759212 -0.154387,-3.627902 0.589591,-0.608751 0.204148,6.726008 -3.031766,-0.595401 -0.803548,-2.520706 2.30623,-1.308932 1.703621,9.586959 -0.408112,7.054263 -2.766779,-3.227226 0.629772,-13.739099 2.24908,-6.848986 0.225743,0.844941 0.362204,1.873173 0.381577,2.92418 M 113.99175,28.000343 c -0.53978,1.759212 -0.15439,-3.627902 0.58959,-0.608751 0.20415,6.726008 -3.03177,-0.595401 -0.80355,-2.520706 2.30623,-1.308932 1.70362,9.586959 -0.40811,7.054263 -2.76678,-3.227226 0.62977,-13.739099 2.24908,-6.848986 0.22574,0.844941 0.3622,1.873173 0.38158,2.92418 M 86.991747,43.000344 c -0.539782,1.759212 -0.154387,-3.627902 0.589591,-0.608751 0.204148,6.726008 -3.031766,-0.595401 -0.803548,-2.520706 2.30623,-1.308932 1.703621,9.586959 -0.408112,7.054263 -2.766779,-3.227226 0.629772,-13.739099 2.24908,-6.848986 0.225743,0.844941 0.362204,1.873173 0.381577,2.92418 m -4.008588,0 c -0.539782,1.759212 -0.154387,-3.627902 0.589591,-0.608751 0.204148,6.726008 -3.031766,-0.595401 -0.803548,-2.520706 2.30623,-1.308932 1.703621,9.586959 -0.408112,7.054263 -2.766779,-3.227226 0.629772,-13.739099 2.24908,-6.848986 0.225743,0.844941 0.362204,1.873173 0.381577,2.92418 m -4.008588,0 c -0.539782,1.759212 -0.154387,-3.627902 0.589591,-0.608751 0.204148,6.726008 -3.031766,-0.595401 -0.803548,-2.520706 2.30623,-1.308932 1.703621,9.586959 -0.408112,7.054263 -2.766779,-3.227226 0.629772,-13.739099 2.24908,-6.848986 0.225743,0.844941 0.362204,1.873173 0.381577,2.92418 m -4.008588,0 c -0.539782,1.759212 -0.154387,-3.627902 0.589591,-0.608751 0.204148,6.726008 -3.031766,-0.595401 -0.803548,-2.520706 2.30623,-1.308932 1.703621,9.586959 -0.408112,7.054263 -2.766779,-3.227226 0.629772,-13.739099 2.24908,-6.848986 0.225743,0.844941 0.362204,1.873173 0.381577,2.92418 m -4.008588,0 c -0.539782,1.759212 -0.154387,-3.627902 0.589591,-0.608751 0.204148,6.726008 -3.031766,-0.595401 -0.803548,-2.520706 2.30623,-1.308932 1.703621,9.586959 -0.408112,7.054263 -2.766779,-3.227226 0.629772,-13.739099 2.24908,-6.848986 0.225743,0.844941 0.362204,1.873173 0.381577,2.92418 m -4.008588,0 c -0.539782,1.759212 -0.154387,-3.627902 0.589591,-0.608751 0.204148,6.726008 -3.031766,-0.595401 -0.803548,-2.520706 2.30623,-1.308932 1.703621,9.586959 -0.408112,7.054263 -2.766779,-3.227226 0.629772,-13.739099 2.24908,-6.848986 0.225743,0.844941 0.362204,1.873173 0.381577,2.92418 m -4.008588,0 c -0.539782,1.759212 -0.154387,-3.627902 0.589591,-0.608751 0.204148,6.726008 -3.031766,-0.595401 -0.803548,-2.520706 2.30623,-1.308932 1.703621,9.586959 -0.408112,7.054263 -2.766779,-3.227226 0.629772,-13.739099 2.24908,-6.848986 0.225743,0.844941 0.362204,1.873173 0.381577,2.92418 m -4.008588,0 c -0.539782,1.759212 -0.154387,-3.627902 0.589591,-0.608751 0.204148,6.726008 -3.031766,-0.595401 -0.803548,-2.520706 2.30623,-1.308932 1.703621,9.586959 -0.408112,7.054263 -2.766779,-3.227226 0.629772,-13.739099 2.24908,-6.848986 0.225743,0.844941 0.362204,1.873173 0.381577,2.92418 m -4.008588,0 c -0.539782,1.759212 -0.154387,-3.627902 0.589591,-0.608751 0.204148,6.726008 -3.031766,-0.595401 -0.803548,-2.520706 2.30623,-1.308932 1.703621,9.586959 -0.408112,7.054263 -2.766779,-3.227226 0.629772,-13.739099 2.24908,-6.848986 0.225743,0.844941 0.362204,1.873173 0.381577,2.92418 m -4.008588,0 c -0.539782,1.759212 -0.154387,-3.627902 0.589591,-0.608751 0.204148,6.726008 -3.031766,-0.595401 -0.803548,-2.520706 2.30623,-1.308932 1.703621,9.586959 -0.408112,7.054263 -2.766779,-3.227226 0.629772,-13.739099 2.24908,-6.848986 0.225743,0.844941 0.362204,1.873173 0.381577,2.92418 m -4.008588,0 c -0.539782,1.759212 -0.154387,-3.627902 0.589591,-0.608751 0.204148,6.726008 -3.031766,-0.595401 -0.803548,-2.520706 2.30623,-1.308932 1.703621,9.586959 -0.408112,7.054263 -2.766779,-3.227226 0.629772,-13.739099 2.24908,-6.848986 0.225743,0.844941 0.362204,1.873173 0.381577,2.92418 m -4.008588,0 c -0.539782,1.759212 -0.154387,-3.627902 0.589591,-0.608751 0.204148,6.726008 -3.031766,-0.595401 -0.803548,-2.520706 2.30623,-1.308932 1.703621,9.586959 -0.408112,7.054263 -2.766779,-3.227226 0.629772,-13.739099 2.24908,-6.848986 0.225743,0.844941 0.362204,1.873173 0.381577,2.92418 m -4.008588,0.263194 c -0.539782,1.759212 -0.154387,-3.627902 0.589591,-0.608751 0.204148,6.726008 -3.031766,-0.595401 -0.803548,-2.520706 2.30623,-1.308932 1.703621,9.586959 -0.408112,7.054263 -2.766779,-3.227226 0.629772,-13.739099 2.24908,-6.848986 0.225743,0.844941 0.362204,1.873173 0.381577,2.92418 m -4.008588,0 c -0.539782,1.759212 -0.154387,-3.627902 0.589591,-0.608751 0.204148,6.726008 -3.031766,-0.595401 -0.803548,-2.520706 2.30623,-1.308932 1.703621,9.586959 -0.408112,7.054263 -2.766779,-3.227226 0.629772,-13.739099 2.24908,-6.848986 0.225743,0.844941 0.362204,1.873173 0.381577,2.92418 m -4.008588,0.0241 c -0.539782,1.759212 -0.154387,-3.627902 0.589591,-0.608751 0.204148,6.726008 -3.031766,-0.595401 -0.803548,-2.520706 2.30623,-1.308932 1.703621,9.586959 -0.408112,7.054263 -2.766779,-3.227226 0.629772,-13.739099 2.24908,-6.848986 0.225743,0.844941 0.362204,1.873173 0.381577,2.92418 m -4.008588,0 c -0.539782,1.759212 -0.154387,-3.627902 0.589591,-0.608751 0.204148,6.726008 -3.031766,-0.595401 -0.803548,-2.520706 2.30623,-1.308932 1.703621,9.586959 -0.408112,7.054263 -2.766779,-3.227226 0.629772,-13.739099 2.24908,-6.848986 0.225743,0.844941 0.362204,1.873173 0.381577,2.92418 m -3.591983,0.0482 c -0.539782,1.759212 -0.154387,-3.627902 0.589591,-0.608751 0.204148,6.726008 -3.031766,-0.595401 -0.803548,-2.520706 2.30623,-1.308932 1.703621,9.586959 -0.408112,7.054263 -2.766779,-3.227226 0.629772,-13.739099 2.24908,-6.848986 0.225743,0.844941 0.362204,1.873173 0.381577,2.92418 m -3.864255,0 c -0.539782,1.759212 -0.154387,-3.627902 0.589591,-0.608751 0.204148,6.726008 -3.031766,-0.595401 -0.803548,-2.520706 2.30623,-1.308932 1.703621,9.586959 -0.408112,7.054263 -2.766779,-3.227226 0.629772,-13.739099 2.24908,-6.848986 0.225743,0.844941 0.362204,1.873173 0.381577,2.92418 m -3.912454,0.144597 c -0.539782,1.759212 -0.154387,-3.627902 0.589591,-0.608751 0.204148,6.726008 -3.031766,-0.595401 -0.803548,-2.520706 2.30623,-1.308932 1.703621,9.586959 -0.408112,7.054263 -2.766779,-3.227226 0.629772,-13.739099 2.24908,-6.848986 0.225743,0.844941 0.362204,1.873173 0.381577,2.92418 m -3.960654,0.192797 c -0.539782,1.759212 -0.154387,-3.627902 0.589591,-0.608751 0.204148,6.726008 -3.031766,-0.595401 -0.803548,-2.520706 2.30623,-1.308932 1.703621,9.586959 -0.408112,7.054263 -2.766779,-3.227226 0.629772,-13.739099 2.24908,-6.848986 0.225743,0.844941 0.362204,1.873173 0.381577,2.92418 m -5.713594,-0.128559 c -0.539782,1.759212 -0.154387,-3.627902 0.589591,-0.608751 0.204148,6.726008 -3.031766,-0.595401 -0.803548,-2.520706 2.30623,-1.308932 1.703621,9.586959 -0.408112,7.054263 -2.766779,-3.227226 0.629772,-13.739099 2.24908,-6.848986 0.225743,0.844941 0.362204,1.873173 0.381577,2.92418 M 58.114607,26.895494 c -0.539782,1.759212 -0.154387,-3.627902 0.589591,-0.608751 0.204148,6.726008 -3.031766,-0.595401 -0.803548,-2.520706 2.30623,-1.308932 1.703621,9.586959 -0.408112,7.054263 -2.766779,-3.227226 0.629772,-13.739099 2.24908,-6.848986 0.225743,0.844941 0.362204,1.873173 0.381577,2.92418 m -4.053505,0.903171 c -0.539782,1.759212 -0.154387,-3.627902 0.589591,-0.608751 0.204148,6.726008 -3.031766,-0.595401 -0.803548,-2.520706 2.30623,-1.308932 1.703621,9.586959 -0.408112,7.054263 -2.766779,-3.227226 0.629772,-13.739099 2.24908,-6.848986 0.225743,0.844941 0.362204,1.873173 0.381577,2.92418 m -10.218004,10.12234 c -0.539782,1.759212 -0.154387,-3.627902 0.589591,-0.608751 0.204148,6.726008 -3.031766,-0.595401 -0.803548,-2.520706 2.30623,-1.308932 1.703621,9.586959 -0.408112,7.054263 -2.766779,-3.227226 0.629772,-13.739099 2.24908,-6.848986 0.225743,0.844941 0.362204,1.873173 0.381577,2.92418 m 1.804257,-5.759851 c -0.539782,1.759212 -0.154387,-3.627902 0.589591,-0.608751 0.204148,6.726008 -3.031766,-0.595401 -0.803548,-2.520706 2.30623,-1.308932 1.703621,9.586959 -0.408112,7.054263 -2.766779,-3.227226 0.629772,-13.739099 2.24908,-6.848986 0.225743,0.844941 0.362204,1.873173 0.381577,2.92418 m -2.821433,1.124705 c -0.539782,1.759212 -0.154387,-3.627902 0.589591,-0.608751 0.204148,6.726008 -3.031766,-0.595401 -0.803548,-2.520706 2.30623,-1.308932 1.703621,9.586959 -0.408112,7.054263 -2.766779,-3.227226 0.629772,-13.739099 2.24908,-6.848986 0.225743,0.844941 0.362204,1.873173 0.381577,2.92418 m -3.308824,2.17472 c -0.539782,1.759212 -0.154387,-3.627902 0.589591,-0.608751 0.204148,6.726008 -3.031766,-0.595401 -0.803548,-2.520706 2.30623,-1.308932 1.703621,9.586959 -0.408112,7.054263 -2.766779,-3.227226 0.629772,-13.739099 2.24908,-6.848986 0.225743,0.844941 0.362204,1.873173 0.381577,2.92418 M 93.860274,17.043052 c -0.539782,1.759212 -0.154387,-3.627902 0.589591,-0.608751 0.204148,6.726008 -3.031766,-0.595401 -0.803548,-2.520706 2.30623,-1.308932 1.703621,9.586959 -0.408112,7.054263 -2.766779,-3.227226 0.629772,-13.7390985 2.24908,-6.848986 0.225743,0.844941 0.362204,1.873173 0.381577,2.92418 m -6.008588,-0.582474 c -0.539782,1.759212 -0.154387,-3.627902 0.589591,-0.608751 0.204148,6.726008 -3.031766,-0.595401 -0.803548,-2.520706 2.30623,-1.308932 1.703621,9.586959 -0.408112,7.054263 -2.766779,-3.227226 0.629772,-13.7390985 2.24908,-6.848986 0.225743,0.844941 0.362204,1.873173 0.381577,2.92418 m -15.008588,0 c -0.539782,1.759212 -0.154387,-3.627902 0.589591,-0.608751 0.204148,6.726008 -3.031766,-0.595401 -0.803548,-2.520706 2.30623,-1.308932 1.703621,9.586959 -0.408112,7.054263 -2.766779,-3.227226 0.629772,-13.7390985 2.24908,-6.848986 0.225743,0.844941 0.362204,1.873173 0.381577,2.92418 m 12.991412,0.437876 c -0.539782,1.759212 -0.154387,-3.627902 0.589591,-0.608751 0.204148,6.726008 -3.031766,-0.595401 -0.803548,-2.520706 2.30623,-1.308932 1.703621,9.586959 -0.408112,7.054263 -2.766779,-3.227226 0.629772,-13.7390985 2.24908,-6.848986 0.225743,0.844941 0.362204,1.873173 0.381577,2.92418 m -5.347948,-0.144597 c -0.539782,1.759212 -0.154387,-3.627902 0.589591,-0.608751 0.204148,6.726008 -3.031766,-0.595401 -0.803548,-2.520706 2.30623,-1.308932 1.703621,9.586959 -0.408112,7.054263 -2.766779,-3.227226 0.629772,-13.7390985 2.24908,-6.848986 0.225743,0.844941 0.362204,1.873173 0.381577,2.92418 m -3.96065,0.0241 c -0.539782,1.759212 -0.154387,-3.627902 0.589591,-0.608751 0.204148,6.726008 -3.031766,-0.595401 -0.803548,-2.520706 2.30623,-1.308932 1.703621,9.586959 -0.408112,7.054263 -2.766779,-3.227226 0.629772,-13.7390985 2.24908,-6.848986 0.225743,0.844941 0.362204,1.873173 0.381577,2.92418 m -4.008853,-0.0241 c -0.539782,1.759212 -0.154387,-3.627902 0.589591,-0.608751 0.204148,6.726008 -3.031766,-0.595401 -0.803548,-2.520706 2.30623,-1.308932 1.703621,9.586959 -0.408112,7.054263 -2.766779,-3.227226 0.629772,-13.7390985 2.24908,-6.848986 0.225743,0.844941 0.362204,1.873173 0.381577,2.92418 m -4.008853,0 c -0.539782,1.759212 -0.154387,-3.627902 0.589591,-0.608751 0.204148,6.726008 -3.031766,-0.595401 -0.803548,-2.520706 2.30623,-1.308932 1.703621,9.586959 -0.408112,7.054263 -2.766779,-3.227226 0.629772,-13.7390985 2.24908,-6.848986 0.225743,0.844941 0.362204,1.873173 0.381577,2.92418 m -4.008853,-0.293279 c -0.539782,1.759212 -0.154387,-3.627902 0.589591,-0.608751 0.204148,6.726008 -3.031766,-0.595401 -0.803548,-2.520706 2.30623,-1.308932 1.703621,9.586959 -0.408112,7.054263 -2.766779,-3.227226 0.629772,-13.7390985 2.24908,-6.848986 0.225743,0.844941 0.362204,1.873173 0.381577,2.92418 m -3.960653,0 c -0.539782,1.759212 -0.154387,-3.627902 0.589591,-0.608751 0.204148,6.726008 -3.031766,-0.595401 -0.803548,-2.520706 2.30623,-1.308932 1.703621,9.586959 -0.408112,7.054263 -2.766779,-3.227226 0.629772,-13.7390985 2.24908,-6.848986 0.225743,0.844941 0.362204,1.873173 0.381577,2.92418 M 48.860274,41.460579 c -0.539782,1.759212 -0.154387,-3.627902 0.589591,-0.608751 0.204148,6.726008 -3.031766,-0.595401 -0.803548,-2.520706 2.30623,-1.308932 1.703621,9.586959 -0.408112,7.054263 -2.766779,-3.227226 0.629772,-13.739099 2.24908,-6.848986 0.225743,0.844941 0.362204,1.873173 0.381577,2.92418 m -0.0086,-3 c -0.539782,1.759212 -0.154387,-3.627902 0.589591,-0.608751 0.204148,6.726008 -3.031766,-0.595401 -0.803548,-2.520706 2.30623,-1.308932 1.703621,9.586959 -0.408112,7.054263 -2.766779,-3.227226 0.629772,-13.739099 2.24908,-6.848986 0.225743,0.844941 0.362204,1.873173 0.381577,2.92418 m -0.0086,-2 c -0.539782,1.759212 -0.154387,-3.627902 0.589591,-0.608751 0.204148,6.726008 -3.031766,-0.595401 -0.803548,-2.520706 2.30623,-1.308932 1.703621,9.586959 -0.408112,7.054263 -2.766779,-3.227226 0.629772,-13.739099 2.24908,-6.848986 0.225743,0.844941 0.362204,1.873173 0.381577,2.92418 m -0.0086,-2.620122 c -0.539782,1.759212 -0.154387,-3.627902 0.589591,-0.608751 0.204148,6.726008 -3.031766,-0.595401 -0.803548,-2.520706 2.30623,-1.308932 1.703621,9.586959 -0.408112,7.054263 -2.766779,-3.227226 0.629772,-13.739099 2.24908,-6.848986 0.225743,0.844941 0.362204,1.873173 0.381577,2.92418 m -0.0086,-1.379879 c -0.539782,1.759212 -0.154387,-3.627902 0.589591,-0.608751 0.204148,6.726008 -3.031766,-0.595401 -0.803548,-2.520706 2.30623,-1.308932 1.703621,9.586959 -0.408112,7.054263 -2.766779,-3.227226 0.629772,-13.739099 2.24908,-6.848986 0.225743,0.844941 0.362204,1.873173 0.381577,2.92418 m -0.0086,-2.66885 c -0.539782,1.759212 -0.154387,-3.627902 0.589591,-0.608751 0.204148,6.726008 -3.031766,-0.595401 -0.803548,-2.520706 2.30623,-1.308932 1.703621,9.586959 -0.408112,7.054263 -2.766779,-3.227226 0.629772,-13.739099 2.24908,-6.848986 0.225743,0.844941 0.362204,1.873173 0.381577,2.92418 m -0.0086,-1.33115 c -0.539782,1.759212 -0.154387,-3.627902 0.589591,-0.608751 0.204148,6.726008 -3.031766,-0.595401 -0.803548,-2.520706 2.30623,-1.308932 1.703621,9.586959 -0.408112,7.054263 -2.766779,-3.227226 0.629772,-13.739099 2.24908,-6.848986 0.225743,0.844941 0.362204,1.873173 0.381577,2.92418 m -0.0086,-1.729496 c -0.539782,1.759212 -0.154387,-3.627902 0.589591,-0.608751 0.204148,6.726008 -3.031766,-0.595401 -0.803548,-2.520706 2.30623,-1.308932 1.703621,9.586959 -0.408112,7.054263 -2.766779,-3.227226 0.629772,-13.739099 2.24908,-6.848986 0.225743,0.844941 0.362204,1.873173 0.381577,2.92418 m -0.0086,-0.988083 c -0.539782,1.759212 -0.154387,-3.627902 0.589591,-0.608751 0.204148,6.726008 -3.031766,-0.595401 -0.803548,-2.520706 2.30623,-1.308932 1.703621,9.586959 -0.408112,7.054263 -2.766779,-3.227226 0.629772,-13.739099 2.24908,-6.848986 0.225743,0.844941 0.362204,1.873173 0.381577,2.92418 m -0.0086,-1.282421 c -0.539782,1.759212 -0.154387,-3.627902 0.589591,-0.608751 0.204148,6.726008 -3.031766,-0.595401 -0.803548,-2.520706 2.30623,-1.308932 1.703621,9.586959 -0.408112,7.054263 -2.766779,-3.227226 0.629772,-13.739099 2.24908,-6.848986 0.225743,0.844941 0.362204,1.873173 0.381577,2.92418 m -0.0086,-1 c -0.539782,1.759212 -0.154387,-3.627902 0.589591,-0.608751 0.204148,6.726008 -3.031766,-0.595401 -0.803548,-2.520706 2.30623,-1.308932 1.703621,9.586959 -0.408112,7.054263 -2.766779,-3.227226 0.629772,-13.739099 2.24908,-6.848986 0.225743,0.844941 0.362204,1.873173 0.381577,2.92418 m -0.0086,-1 c -0.539782,1.759212 -0.154387,-3.627902 0.589591,-0.608751 0.204148,6.726008 -3.031766,-0.595401 -0.803548,-2.520706 2.30623,-1.308932 1.703621,9.586959 -0.408112,7.054263 -2.766779,-3.227226 0.629772,-13.739099 2.24908,-6.848986 0.225743,0.844941 0.362204,1.873173 0.381577,2.92418 m -0.0086,0 c -0.539782,1.759212 -0.154387,-3.627902 0.589591,-0.608751 0.204148,6.726008 -3.031766,-0.595401 -0.803548,-2.520706 2.30623,-1.308932 1.703621,9.586959 -0.408112,7.054263 -2.766779,-3.227226 0.629772,-13.739099 2.24908,-6.848986 0.225743,0.844941 0.362204,1.873173 0.381577,2.92418 m -0.0086,0 c -0.539782,1.759212 -0.154387,-3.627902 0.589591,-0.608751 0.204148,6.726008 -3.031766,-0.595401 -0.803548,-2.520706 2.30623,-1.308932 1.703621,9.586959 -0.408112,7.054263 -2.766779,-3.227226 0.629772,-13.739099 2.24908,-6.848986 0.225743,0.844941 0.362204,1.873173 0.381577,2.92418 m -0.0086,0 c -0.539782,1.759212 -0.154387,-3.627902 0.589591,-0.608751 0.204148,6.726008 -3.031766,-0.595401 -0.803548,-2.520706 2.30623,-1.308932 1.703621,9.586959 -0.408112,7.054263 -2.766779,-3.227226 0.629772,-13.739099 2.24908,-6.848986 0.225743,0.844941 0.362204,1.873173 0.381577,2.92418 m -0.0086,0 c -0.539782,1.759212 -0.154387,-3.627902 0.589591,-0.608751 0.204148,6.726008 -3.031766,-0.595401 -0.803548,-2.520706 2.30623,-1.308932 1.703621,9.586959 -0.408112,7.054263 -2.766779,-3.227226 0.629772,-13.739099 2.24908,-6.848986 0.225743,0.844941 0.362204,1.873173 0.381577,2.92418 m -0.0086,0 c -0.539782,1.759212 -0.154387,-3.627902 0.589591,-0.608751 0.204148,6.726008 -3.031766,-0.595401 -0.803548,-2.520706 2.30623,-1.308932 1.703621,9.586959 -0.408112,7.054263 -2.766779,-3.227226 0.629772,-13.739099 2.24908,-6.848986 0.225743,0.844941 0.362204,1.873173 0.381577,2.92418 m -0.0086,0 c -0.539782,1.759212 -0.154387,-3.627902 0.589591,-0.608751 0.204148,6.726008 -3.031766,-0.595401 -0.803548,-2.520706 2.30623,-1.308932 1.703621,9.586959 -0.408112,7.054263 -2.766779,-3.227226 0.629772,-13.739099 2.24908,-6.848986 0.225743,0.844941 0.362204,1.873173 0.381577,2.92418 m -0.0086,0 c -0.539782,1.759212 -0.154387,-3.627902 0.589591,-0.608751 0.204148,6.726008 -3.031766,-0.595401 -0.803548,-2.520706 2.30623,-1.308932 1.703621,9.586959 -0.408112,7.054263 -2.766779,-3.227226 0.629772,-13.739099 2.24908,-6.848986 0.225743,0.844941 0.362204,1.873173 0.381577,2.92418 m -0.0086,0 c -0.539782,1.759212 -0.154387,-3.627902 0.589591,-0.608751 0.204148,6.726008 -3.031766,-0.595401 -0.803548,-2.520706 2.30623,-1.308932 1.703621,9.586959 -0.408112,7.054263 -2.766779,-3.227226 0.629772,-13.739099 2.24908,-6.848986 0.225743,0.844941 0.362204,1.873173 0.381577,2.92418 m -0.0086,0 c -0.539782,1.759212 -0.154387,-3.627902 0.589591,-0.608751 0.204148,6.726008 -3.031766,-0.595401 -0.803548,-2.520706 2.30623,-1.308932 1.703621,9.586959 -0.408112,7.054263 -2.766779,-3.227226 0.629772,-13.739099 2.24908,-6.848986 0.225743,0.844941 0.362204,1.873173 0.381577,2.92418 m -0.0086,0 c -0.539782,1.759212 -0.154387,-3.627902 0.589591,-0.608751 0.204148,6.726008 -3.031766,-0.595401 -0.803548,-2.520706 2.30623,-1.308932 1.703621,9.586959 -0.408112,7.054263 -2.766779,-3.227226 0.629772,-13.739099 2.24908,-6.848986 0.225743,0.844941 0.362204,1.873173 0.381577,2.92418 m -0.0086,0 c -0.539782,1.759212 -0.154387,-3.627902 0.589591,-0.608751 0.204148,6.726008 -3.031766,-0.595401 -0.803548,-2.520706 2.30623,-1.308932 1.703621,9.586959 -0.408112,7.054263 -2.766779,-3.227226 0.629772,-13.739099 2.24908,-6.848986 0.225743,0.844941 0.362204,1.873173 0.381577,2.92418 m -0.0086,0.269974 c -0.539782,1.759212 -0.154387,-3.627902 0.589591,-0.608751 0.204148,6.726008 -3.031766,-0.595401 -0.803548,-2.520706 2.30623,-1.308932 1.703621,9.586959 -0.408112,7.054263 -2.766779,-3.227226 0.629772,-13.739099 2.24908,-6.848986 0.225743,0.844941 0.362204,1.873173 0.381577,2.92418 m -0.0086,0.409693 c -0.539782,1.759212 -0.154387,-3.627902 0.589591,-0.608751 0.204148,6.726008 -3.031766,-0.595401 -0.803548,-2.520706 2.30623,-1.308932 1.703621,9.586959 -0.408112,7.054263 -2.766779,-3.227226 0.629772,-13.739099 2.24908,-6.848986 0.225743,0.844941 0.362204,1.873173 0.381577,2.92418 m -0.0086,-0.0482 c -0.539782,1.759212 -0.154387,-3.627902 0.589591,-0.608751 0.204148,6.726008 -3.031766,-0.595401 -0.803548,-2.520706 2.306233,-1.308932 1.703623,9.586959 -0.408112,7.054263 -2.766779,-3.227226 0.629772,-13.739099 2.249085,-6.848986 0.22574,0.844941 0.3622,1.873173 0.38157,2.92418 m -0.009,0.368532 c -0.53978,1.759212 -0.15439,-3.627902 0.58959,-0.608751 0.20415,6.726008 -3.031765,-0.595401 -0.80355,-2.520706 2.30623,-1.308932 1.70362,9.586959 -0.40811,7.054263 -2.766778,-3.227226 0.62977,-13.739099 2.24908,-6.848986 0.22574,0.844941 0.3622,1.873173 0.38158,2.92418 m -0.009,0.715948 c -0.53978,1.759212 -0.15439,-3.627902 0.58959,-0.608751 0.20415,6.726008 -3.03177,-0.595401 -0.80355,-2.520706 2.30623,-1.308932 1.70362,9.586959 -0.40811,7.054263 -2.766778,-3.227226 0.62977,-13.739099 2.24908,-6.848986 0.22574,0.844941 0.3622,1.873173 0.38158,2.92418 m -0.009,0.988083 c -0.53978,1.759212 -0.15439,-3.627902 0.58959,-0.608751 0.20415,6.726008 -3.03177,-0.595401 -0.80355,-2.520706 2.30623,-1.308932 1.70362,9.586959 -0.40811,7.054263 -2.76678,-3.227226 0.62977,-13.739099 2.24908,-6.848986 0.22574,0.844941 0.3622,1.873173 0.38158,2.92418 m -0.009,0.771187 c -0.53978,1.759212 -0.15439,-3.627902 0.58959,-0.608751 0.20415,6.726008 -3.03177,-0.595401 -0.80355,-2.520706 2.30623,-1.308932 1.70362,9.586959 -0.40811,7.054263 -2.76678,-3.227226 0.62977,-13.739099 2.24908,-6.848986 0.22574,0.844941 0.3622,1.873173 0.38158,2.92418 m -0.009,0.524782 c -0.53978,1.759212 -0.15439,-3.627902 0.58959,-0.608751 0.20415,6.726008 -3.03177,-0.595401 -0.80355,-2.520706 2.30623,-1.308932 1.70362,9.586959 -0.40811,7.054263 -2.76678,-3.227226 0.62977,-13.739099 2.24908,-6.848986 0.22574,0.844941 0.3622,1.873173 0.38158,2.92418 m -5.00859,-2 c -0.53978,1.759212 -0.15439,-3.627902 0.58959,-0.608751 0.20415,6.726008 -3.03177,-0.595401 -0.80355,-2.520706 2.30623,-1.308932 1.70362,9.586959 -0.40811,7.054263 -2.76678,-3.227226 0.62977,-13.739099 2.24908,-6.848986 0.22574,0.844941 0.3622,1.873173 0.38158,2.92418 m -4.00859,-1.464931 c -0.53978,1.759212 -0.15439,-3.627902 0.58959,-0.608751 0.20415,6.726008 -3.03177,-0.595401 -0.80355,-2.520706 2.30623,-1.308932 1.70362,9.586959 -0.40811,7.054263 -2.76678,-3.227226 0.62977,-13.739099 2.24908,-6.848986 0.22574,0.844941 0.3622,1.873173 0.38158,2.92418 m -4.00859,-1.535069 c -0.53978,1.759212 -0.15439,-3.627902 0.58959,-0.608751 0.20415,6.726008 -3.031765,-0.595401 -0.80355,-2.520706 2.30623,-1.308932 1.70362,9.586959 -0.40811,7.054263 -2.766778,-3.227226 0.62977,-13.739099 2.24908,-6.848986 0.22574,0.844941 0.3622,1.873173 0.38158,2.92418 m -4.008586,-1 c -0.539782,1.759212 -0.154387,-3.627902 0.589596,-0.608751 0.20414,6.726008 -3.031771,-0.595401 -0.803553,-2.520706 2.306233,-1.308932 1.703623,9.586959 -0.408112,7.054263 -2.766779,-3.227226 0.629772,-13.739099 2.249085,-6.848986 0.22574,0.844941 0.3622,1.873173 0.38157,2.92418 m -3.756316,-1 c -0.539782,1.759212 -0.154387,-3.627902 0.589591,-0.608751 0.204148,6.726008 -3.031766,-0.595401 -0.803548,-2.520706 2.306233,-1.308932 1.703621,9.586959 -0.408112,7.054263 -2.766779,-3.227226 0.629772,-13.7390985 2.24908,-6.848986 0.225743,0.844941 0.362205,1.873173 0.381575,2.92418 m -30.260856,-2 c -0.539782,1.759212 -0.154387,-3.627902 0.589591,-0.608751 0.204148,6.726008 -3.031766,-0.595401 -0.803548,-2.520706 2.30623,-1.308932 1.703621,9.586959 -0.408112,7.054263 -2.766779,-3.227226 0.629772,-13.7390985 2.24908,-6.848986 0.225743,0.844941 0.362204,1.873173 0.381577,2.92418 m -4.008588,1.341743 c -0.539782,1.759212 -0.154387,-3.627902 0.589591,-0.608751 0.204148,6.726008 -3.031766,-0.595401 -0.803548,-2.520706 2.30623,-1.308932 1.703621,9.586959 -0.408112,7.054263 -2.766779,-3.227226 0.629772,-13.7390985 2.24908,-6.848986 0.225743,0.844941 0.362204,1.873173 0.381577,2.92418 m -4.008588,1.658257 c -0.539782,1.759212 -0.154387,-3.627902 0.589591,-0.608751 0.204148,6.726008 -3.031766,-0.595401 -0.803548,-2.520706 2.30623,-1.308932 1.703621,9.586959 -0.408112,7.054263 -2.766779,-3.227226 0.629772,-13.739099 2.24908,-6.848986 0.225743,0.844941 0.362204,1.873173 0.381577,2.92418 m -4.008588,1 c -0.539782,1.759212 -0.154387,-3.627902 0.589591,-0.608751 0.204148,6.726008 -3.031766,-0.595401 -0.803548,-2.520706 2.30623,-1.308932 1.703621,9.586959 -0.408112,7.054263 -2.766779,-3.227226 0.629772,-13.739099 2.24908,-6.848986 0.225743,0.844941 0.362204,1.873173 0.381577,2.92418 m -4.008588,1.535069 c -0.539782,1.759212 -0.154387,-3.627902 0.589591,-0.608751 0.204148,6.726008 -3.031766,-0.595401 -0.803548,-2.520706 2.30623,-1.308932 1.703621,9.586959 -0.408112,7.054263 -2.766779,-3.227226 0.629772,-13.739099 2.24908,-6.848986 0.225743,0.844941 0.362204,1.873173 0.381577,2.92418 m -4.008588,1.13268 c -0.539782,1.759212 -0.154387,-3.627902 0.589591,-0.608751 0.204148,6.726008 -3.031766,-0.595401 -0.803548,-2.520706 2.30623,-1.308932 1.703621,9.586959 -0.408112,7.054263 -2.766779,-3.227226 0.629772,-13.739099 2.24908,-6.848986 0.225743,0.844941 0.362204,1.873173 0.381577,2.92418 m -4.008588,1.879767 c -0.539782,1.759212 -0.154387,-3.627902 0.589591,-0.608751 0.204148,6.726008 -3.031766,-0.595401 -0.803548,-2.520706 2.30623,-1.308932 1.703621,9.586959 -0.408112,7.054263 -2.766779,-3.227226 0.629772,-13.739099 2.24908,-6.848986 0.225743,0.844941 0.362204,1.873173 0.381577,2.92418 m -4.008588,1.855668 c -0.539782,1.759212 -0.154387,-3.627902 0.589591,-0.608751 0.204148,6.726008 -3.031766,-0.595401 -0.803548,-2.520706 2.30623,-1.308932 1.703621,9.586959 -0.408112,7.054263 -2.766779,-3.227226 0.629772,-13.739099 2.24908,-6.848986 0.225743,0.844941 0.362204,1.873173 0.381577,2.92418 m -4.008588,2.596816 c -0.539782,1.759212 -0.154387,-3.627902 0.589591,-0.608751 0.204148,6.726008 -3.031766,-0.595401 -0.803548,-2.520706 2.30623,-1.308932 1.703621,9.586959 -0.408112,7.054263 -2.766779,-3.227226 0.629772,-13.739099 2.24908,-6.848986 0.225743,0.844941 0.362204,1.873173 0.381577,2.92418 m -4.008588,2.656891 c -0.539782,1.759212 -0.154387,-3.627902 0.589591,-0.608751 0.204148,6.726008 -3.031766,-0.595401 -0.803548,-2.520706 2.30623,-1.308932 1.703621,9.586959 -0.408112,7.054263 -2.766779,-3.227226 0.629772,-13.739099 2.24908,-6.848986 0.225743,0.844941 0.362204,1.873173 0.381577,2.92418 m -4.008588,2.843751 c -0.539782,1.759212 -0.154387,-3.627902 0.589591,-0.608751 0.204148,6.726008 -3.031766,-0.595401 -0.803548,-2.520706 2.30623,-1.308932 1.703621,9.586959 -0.408112,7.054263 -2.766779,-3.227226 0.629772,-13.739099 2.24908,-6.848986 0.225743,0.844941 0.362204,1.873173 0.381577,2.92418 m -4.008588,3.108846 c -0.539782,1.759212 -0.154387,-3.627902 0.589591,-0.608751 0.204148,6.726008 -3.031766,-0.595401 -0.803548,-2.520706 2.30623,-1.308932 1.703621,9.586959 -0.408112,7.054263 -2.766779,-3.227226 0.629772,-13.739099 2.24908,-6.848986 0.225743,0.844941 0.362204,1.873173 0.381577,2.92418 M 96.860274,18.127533 c -0.539782,1.759212 -0.154387,-3.627902 0.589591,-0.608751 0.204148,6.726008 -3.031766,-0.595401 -0.803548,-2.520706 2.30623,-1.308932 1.703621,9.586959 -0.408112,7.054263 -2.766779,-3.227226 0.629772,-13.7390985 2.24908,-6.848986 0.225743,0.844941 0.362204,1.873173 0.381577,2.92418 m -4.008588,0 c -0.539782,1.759212 -0.154387,-3.627902 0.589591,-0.608751 0.204148,6.726008 -3.031766,-0.595401 -0.803548,-2.520706 2.30623,-1.308932 1.703621,9.586959 -0.408112,7.054263 -2.766779,-3.227226 0.629772,-13.7390985 2.24908,-6.848986 0.225743,0.844941 0.362204,1.873173 0.381577,2.92418 m -4.008588,-0.0241 c -0.539782,1.759212 -0.154387,-3.627902 0.589591,-0.608751 0.204148,6.726008 -3.031766,-0.595401 -0.803548,-2.520706 2.30623,-1.308932 1.703621,9.586959 -0.408112,7.054263 -2.766779,-3.227226 0.629772,-13.7390985 2.24908,-6.848986 0.225743,0.844941 0.362204,1.873173 0.381577,2.92418 m -4.008588,0 c -0.539782,1.759212 -0.154387,-3.627902 0.589591,-0.608751 0.204148,6.726008 -3.031766,-0.595401 -0.803548,-2.520706 2.30623,-1.308932 1.703621,9.586959 -0.408112,7.054263 -2.766779,-3.227226 0.629772,-13.7390985 2.24908,-6.848986 0.225743,0.844941 0.362204,1.873173 0.381577,2.92418 m -4.008588,-0.0964 c -0.539782,1.759212 -0.154387,-3.627902 0.589591,-0.608751 0.204148,6.726008 -3.031766,-0.595401 -0.803548,-2.520706 2.30623,-1.308932 1.703621,9.586959 -0.408112,7.054263 -2.766779,-3.227226 0.629772,-13.7390985 2.24908,-6.848986 0.225743,0.844941 0.362204,1.873173 0.381577,2.92418 m -4.008588,-0.0482 c -0.539782,1.759212 -0.154387,-3.627902 0.589591,-0.608751 0.204148,6.726008 -3.031766,-0.595401 -0.803548,-2.520706 2.30623,-1.308932 1.703621,9.586959 -0.408112,7.054263 -2.766779,-3.227226 0.629772,-13.7390985 2.24908,-6.848986 0.225743,0.844941 0.362204,1.873173 0.381577,2.92418 m -4.008588,-0.0723 c -0.539782,1.759212 -0.154387,-3.627902 0.589591,-0.608751 0.204148,6.726008 -3.031766,-0.595401 -0.803548,-2.520706 2.30623,-1.308932 1.703621,9.586959 -0.408112,7.054263 -2.766779,-3.227226 0.629772,-13.7390985 2.24908,-6.848986 0.225743,0.844941 0.362204,1.873173 0.381577,2.92418 m -4.008588,0.0482 c -0.539782,1.759212 -0.154387,-3.627902 0.589591,-0.608751 0.204148,6.726008 -3.031766,-0.595401 -0.803548,-2.520706 2.30623,-1.308932 1.703621,9.586959 -0.408112,7.054263 -2.766779,-3.227226 0.629772,-13.7390985 2.24908,-6.848986 0.225743,0.844941 0.362204,1.873173 0.381577,2.92418 m -4.008588,-0.0482 c -0.539782,1.759212 -0.154387,-3.627902 0.589591,-0.608751 0.204148,6.726008 -3.031766,-0.595401 -0.803548,-2.520706 2.30623,-1.308932 1.703621,9.586959 -0.408112,7.054263 -2.766779,-3.227226 0.629772,-13.7390985 2.24908,-6.848986 0.225743,0.844941 0.362204,1.873173 0.381577,2.92418 m -4.008588,0 c -0.539782,1.759212 -0.154387,-3.627902 0.589591,-0.608751 0.204148,6.726008 -3.031766,-0.595401 -0.803548,-2.520706 2.30623,-1.308932 1.703621,9.586959 -0.408112,7.054263 -2.766779,-3.227226 0.629772,-13.7390985 2.24908,-6.848986 0.225743,0.844941 0.362204,1.873173 0.381577,2.92418 m -4.008588,0 c -0.539782,1.759212 -0.154387,-3.627902 0.589591,-0.608751 0.204148,6.726008 -3.031766,-0.595401 -0.803548,-2.520706 2.30623,-1.308932 1.703621,9.586959 -0.408112,7.054263 -2.766779,-3.227226 0.629772,-13.7390985 2.24908,-6.848986 0.225743,0.844941 0.362204,1.873173 0.381577,2.92418 m -3.747309,0 c -0.539782,1.759212 -0.154387,-3.627902 0.589591,-0.608751 0.204148,6.726008 -3.031766,-0.595401 -0.803548,-2.520706 2.30623,-1.308932 1.703621,9.586959 -0.408112,7.054263 -2.766779,-3.227226 0.629772,-13.7390985 2.24908,-6.848986 0.225743,0.844941 0.362204,1.873173 0.381577,2.92418 m -3.840156,-0.0241 c -0.539782,1.759212 -0.154387,-3.627902 0.589591,-0.608751 0.204148,6.726008 -3.031766,-0.595401 -0.803548,-2.520706 2.30623,-1.308932 1.703621,9.586959 -0.408112,7.054263 -2.766779,-3.227226 0.629772,-13.7390985 2.24908,-6.848986 0.225743,0.844941 0.362204,1.873173 0.381577,2.92418 m -3.816056,0.0723 c -0.539782,1.759212 -0.154387,-3.627902 0.589591,-0.608751 0.204148,6.726008 -3.031766,-0.595401 -0.803548,-2.520706 2.30623,-1.308932 1.703621,9.586959 -0.408112,7.054263 -2.766779,-3.227226 0.629772,-13.7390985 2.24908,-6.848986 0.225743,0.844941 0.362204,1.873173 0.381577,2.92418 m 38.369165,10.525842 c -0.53978,1.759212 -0.15439,-3.627902 0.58959,-0.608751 0.20415,6.726008 -3.03177,-0.595401 -0.80355,-2.520706 2.30623,-1.308932 1.70362,9.586959 -0.40811,7.054263 -2.76678,-3.227226 0.62977,-13.739099 2.24908,-6.848986 0.22574,0.844941 0.3622,1.873173 0.38158,2.92418 m -4.00859,-1 c -0.53978,1.759212 -0.15439,-3.627902 0.58959,-0.608751 0.20415,6.726008 -3.03177,-0.595401 -0.80355,-2.520706 2.30623,-1.308932 1.70362,9.586959 -0.40811,7.054263 -2.76678,-3.227226 0.62977,-13.739099 2.24908,-6.848986 0.22574,0.844941 0.3622,1.873173 0.38158,2.92418 m -4.00859,-1 c -0.53978,1.759212 -0.15439,-3.627902 0.58959,-0.608751 0.20415,6.726008 -3.03177,-0.595401 -0.80355,-2.520706 2.30623,-1.308932 1.70362,9.586959 -0.40811,7.054263 -2.76678,-3.227226 0.62977,-13.739099 2.24908,-6.848986 0.22574,0.844941 0.3622,1.873173 0.38158,2.92418 m -4.00859,0 c -0.53978,1.759212 -0.15439,-3.627902 0.58959,-0.608751 0.20415,6.726008 -3.03177,-0.595401 -0.80355,-2.520706 2.30623,-1.308932 1.70362,9.586959 -0.40811,7.054263 -2.76678,-3.227226 0.62977,-13.739099 2.24908,-6.848986 0.22574,0.844941 0.3622,1.873173 0.38158,2.92418 m -4.00859,-1 c -0.53978,1.759212 -0.15439,-3.627902 0.58959,-0.608751 0.20415,6.726008 -3.03177,-0.595401 -0.80355,-2.520706 2.30623,-1.308932 1.70362,9.586959 -0.40811,7.054263 -2.76678,-3.227226 0.62977,-13.739099 2.24908,-6.848986 0.22574,0.844941 0.3622,1.873173 0.38158,2.92418 m -4.00859,-1 c -0.53978,1.759212 -0.15439,-3.627902 0.58959,-0.608751 0.20415,6.726008 -3.031765,-0.595401 -0.80355,-2.520706 2.30623,-1.308932 1.70362,9.586959 -0.40811,7.054263 -2.766778,-3.227226 0.62977,-13.739099 2.24908,-6.848986 0.22574,0.844941 0.3622,1.873173 0.38158,2.92418 m -4.008586,-1 c -0.539782,1.759212 -0.154387,-3.627902 0.589596,-0.608751 0.20414,6.726008 -3.031771,-0.595401 -0.803553,-2.520706 2.306233,-1.308932 1.703623,9.586959 -0.408112,7.054263 -2.766779,-3.227226 0.629772,-13.739099 2.249085,-6.848986 0.22574,0.844941 0.3622,1.873173 0.38157,2.92418 m -4.008586,0 c -0.539782,1.759212 -0.154387,-3.627902 0.589591,-0.608751 0.204148,6.726008 -3.031766,-0.595401 -0.803548,-2.520706 2.30623,-1.308932 1.703621,9.586959 -0.408112,7.054263 -2.766779,-3.227226 0.629772,-13.739099 2.24908,-6.848986 0.225743,0.844941 0.362204,1.873173 0.381577,2.92418 m -4.008588,-1 c -0.539782,1.759212 -0.154387,-3.627902 0.589591,-0.608751 0.204148,6.726008 -3.031766,-0.595401 -0.803548,-2.520706 2.30623,-1.308932 1.703621,9.586959 -0.408112,7.054263 -2.766779,-3.227226 0.629772,-13.739099 2.24908,-6.848986 0.225743,0.844941 0.362204,1.873173 0.381577,2.92418 m -4.008588,0 c -0.539782,1.759212 -0.154387,-3.627902 0.589591,-0.608751 0.204148,6.726008 -3.031766,-0.595401 -0.803548,-2.520706 2.30623,-1.308932 1.703621,9.586959 -0.408112,7.054263 -2.766779,-3.227226 0.629772,-13.739099 2.24908,-6.848986 0.225743,0.844941 0.362204,1.873173 0.381577,2.92418 m -4.008588,0 c -0.539782,1.759212 -0.154387,-3.627902 0.589591,-0.608751 0.204148,6.726008 -3.031766,-0.595401 -0.803548,-2.520706 2.30623,-1.308932 1.703621,9.586959 -0.408112,7.054263 -2.766779,-3.227226 0.629772,-13.739099 2.24908,-6.848986 0.225743,0.844941 0.362204,1.873173 0.381577,2.92418 m -4.008588,0 c -0.539782,1.759212 -0.154387,-3.627902 0.589591,-0.608751 0.204148,6.726008 -3.031766,-0.595401 -0.803548,-2.520706 2.30623,-1.308932 1.703621,9.586959 -0.408112,7.054263 -2.766779,-3.227226 0.629772,-13.739099 2.24908,-6.848986 0.225743,0.844941 0.362204,1.873173 0.381577,2.92418 m -4.008588,0 c -0.539782,1.759212 -0.154387,-3.627902 0.589591,-0.608751 0.204148,6.726008 -3.031766,-0.595401 -0.803548,-2.520706 2.30623,-1.308932 1.703621,9.586959 -0.408112,7.054263 -2.766779,-3.227226 0.629772,-13.739099 2.24908,-6.848986 0.225743,0.844941 0.362204,1.873173 0.381577,2.92418 m -4.008588,0 c -0.539782,1.759212 -0.154387,-3.627902 0.589591,-0.608751 0.204148,6.726008 -3.031766,-0.595401 -0.803548,-2.520706 2.30623,-1.308932 1.703621,9.586959 -0.408112,7.054263 -2.766779,-3.227226 0.629772,-13.739099 2.24908,-6.848986 0.225743,0.844941 0.362204,1.873173 0.381577,2.92418 m -4.008588,0 c -0.539782,1.759212 -0.154387,-3.627902 0.589591,-0.608751 0.204148,6.726008 -3.031766,-0.595401 -0.803548,-2.520706 2.30623,-1.308932 1.703621,9.586959 -0.408112,7.054263 -2.766779,-3.227226 0.629772,-13.739099 2.24908,-6.848986 0.225743,0.844941 0.362204,1.873173 0.381577,2.92418 m -4.008588,0 c -0.539782,1.759212 -0.154387,-3.627902 0.589591,-0.608751 0.204148,6.726008 -3.031766,-0.595401 -0.803548,-2.520706 2.30623,-1.308932 1.703621,9.586959 -0.408112,7.054263 -2.766779,-3.227226 0.629772,-13.739099 2.24908,-6.848986 0.225743,0.844941 0.362204,1.873173 0.381577,2.92418 m -4.008588,0 c -0.539782,1.759212 -0.154387,-3.627902 0.589591,-0.608751 0.204148,6.726008 -3.031766,-0.595401 -0.803548,-2.520706 2.30623,-1.308932 1.703621,9.586959 -0.408112,7.054263 -2.766779,-3.227226 0.629772,-13.739099 2.24908,-6.848986 0.225743,0.844941 0.362204,1.873173 0.381577,2.92418 m -4.008588,0 c -0.539782,1.759212 -0.154387,-3.627902 0.589591,-0.608751 0.204148,6.726008 -3.031766,-0.595401 -0.803548,-2.520706 2.30623,-1.308932 1.703621,9.586959 -0.408112,7.054263 -2.766779,-3.227226 0.629772,-13.739099 2.24908,-6.848986 0.225743,0.844941 0.362204,1.873173 0.381577,2.92418 m -4.008588,0 c -0.539782,1.759212 -0.154387,-3.627902 0.589591,-0.608751 0.204148,6.726008 -3.031766,-0.595401 -0.803548,-2.520706 2.30623,-1.308932 1.703621,9.586959 -0.408112,7.054263 -2.766779,-3.227226 0.629772,-13.739099 2.24908,-6.848986 0.225743,0.844941 0.362204,1.873173 0.381577,2.92418 m -4.008588,0 c -0.539782,1.759212 -0.154387,-3.627902 0.589591,-0.608751 0.204148,6.726008 -3.031766,-0.595401 -0.803548,-2.520706 2.30623,-1.308932 1.703621,9.586959 -0.408112,7.054263 -2.766779,-3.227226 0.629772,-13.739099 2.24908,-6.848986 0.225743,0.844941 0.362204,1.873173 0.381577,2.92418 m -4.008588,0 c -0.539782,1.759212 -0.154387,-3.627902 0.589591,-0.608751 0.204148,6.726008 -3.031766,-0.595401 -0.803548,-2.520706 2.30623,-1.308932 1.703621,9.586959 -0.408112,7.054263 -2.766779,-3.227226 0.629772,-13.739099 2.24908,-6.848986 0.225743,0.844941 0.362204,1.873173 0.381577,2.92418 m -4.008588,1 c -0.539782,1.759212 -0.154387,-3.627902 0.589591,-0.608751 0.204148,6.726008 -3.031766,-0.595401 -0.803548,-2.520706 2.30623,-1.308932 1.703621,9.586959 -0.408112,7.054263 -2.766779,-3.227226 0.629772,-13.739099 2.24908,-6.848986 0.225743,0.844941 0.362204,1.873173 0.381577,2.92418 m -4.008588,1 c -0.539782,1.759212 -0.154387,-3.627902 0.589591,-0.608751 0.204148,6.726008 -3.031766,-0.595401 -0.803548,-2.520706 2.30623,-1.308932 1.703621,9.586959 -0.408112,7.054263 -2.766779,-3.227226 0.629772,-13.739099 2.24908,-6.848986 0.225743,0.844941 0.362204,1.873173 0.381577,2.92418 m -4.008588,1 c -0.539782,1.759212 -0.154387,-3.627902 0.589591,-0.608751 0.204148,6.726008 -3.031766,-0.595401 -0.803548,-2.520706 2.30623,-1.308932 1.703621,9.586959 -0.408112,7.054263 -2.766779,-3.227226 0.629772,-13.739099 2.24908,-6.848986 0.225743,0.844941 0.362204,1.873173 0.381577,2.92418 m -4.008588,1 c -0.539782,1.759212 -0.154387,-3.627902 0.589591,-0.608751 0.204148,6.726008 -3.031766,-0.595401 -0.803548,-2.520706 2.30623,-1.308932 1.703621,9.586959 -0.408112,7.054263 -2.766779,-3.227226 0.629772,-13.739099 2.24908,-6.848986 0.225743,0.844941 0.362204,1.873173 0.381577,2.92418 m -4.008588,1 c -0.539782,1.759212 -0.154387,-3.627902 0.589591,-0.608751 0.204148,6.726008 -3.031766,-0.595401 -0.803548,-2.520706 2.30623,-1.308932 1.703621,9.586959 -0.408112,7.054263 -2.766779,-3.227226 0.629772,-13.739099 2.24908,-6.848986 0.225743,0.844941 0.362204,1.873173 0.381577,2.92418 m -4.008588,2 c -0.539782,1.759212 -0.154387,-3.627902 0.589591,-0.608751 0.204148,6.726008 -3.031766,-0.595401 -0.803548,-2.520706 2.30623,-1.308932 1.703621,9.586959 -0.408112,7.054263 -2.766779,-3.227226 0.629772,-13.739099 2.24908,-6.848986 0.225743,0.844941 0.362204,1.873173 0.381577,2.92418 m -4.008588,2 c -0.539782,1.759212 -0.154387,-3.627902 0.589591,-0.608751 0.204148,6.726008 -3.031766,-0.595401 -0.803548,-2.520706 2.30623,-1.308932 1.703621,9.586959 -0.408112,7.054263 -2.766779,-3.227226 0.629772,-13.739099 2.24908,-6.848986 0.225743,0.844941 0.362204,1.873173 0.381577,2.92418 m -4.008588,2 c -0.539782,1.759212 -0.154387,-3.627902 0.589591,-0.608751 0.204148,6.726008 -3.031766,-0.595401 -0.803548,-2.520706 2.30623,-1.308932 1.703621,9.586959 -0.408112,7.054263 -2.766779,-3.227226 0.629772,-13.739099 2.24908,-6.848986 0.225743,0.844941 0.362204,1.873173 0.381577,2.92418 m -4.008588,2.000001 c -0.539782,1.759212 -0.154387,-3.627902 0.589591,-0.608751 0.204148,6.726008 -3.031766,-0.595401 -0.803548,-2.520706 2.30623,-1.308932 1.703621,9.586959 -0.408112,7.054263 -2.766779,-3.227226 0.629772,-13.739099 2.24908,-6.848986 0.225743,0.844941 0.362204,1.873173 0.381577,2.92418 m -4.008588,2 c -0.539782,1.759212 -0.154387,-3.627902 0.589591,-0.608751 0.204148,6.726008 -3.031766,-0.595401 -0.803548,-2.520706 2.30623,-1.308932 1.703621,9.586959 -0.408112,7.054263 -2.766779,-3.227226 0.629772,-13.739099 2.24908,-6.848986 0.225743,0.844941 0.362204,1.873173 0.381577,2.92418 m -4.008588,3 c -0.539782,1.759212 -0.154387,-3.627902 0.589591,-0.608751 0.204148,6.726008 -3.031766,-0.595401 -0.803548,-2.520706 2.30623,-1.308932 1.703621,9.586959 -0.408112,7.054263 -2.766779,-3.227226 0.629772,-13.739099 2.24908,-6.848986 0.225743,0.844941 0.362204,1.873173 0.381577,2.92418 m -4.008588,3 c -0.539782,1.759212 -0.154387,-3.627902 0.589591,-0.608751 0.204148,6.726008 -3.031766,-0.595401 -0.803548,-2.520706 2.30623,-1.308932 1.703621,9.586959 -0.408112,7.054263 -2.766779,-3.227226 0.629772,-13.739099 2.24908,-6.848986 0.225743,0.844941 0.362204,1.873173 0.381577,2.92418 M 112.86027,27.460578 c -0.53978,1.759212 -0.15439,-3.627902 0.58959,-0.608751 0.20415,6.726008 -3.03177,-0.595401 -0.80355,-2.520706 2.30623,-1.308932 1.70362,9.586959 -0.40811,7.054263 -2.76678,-3.227226 0.62977,-13.739099 2.24908,-6.848986 0.22574,0.844941 0.3622,1.873173 0.38158,2.92418 m -4.00859,-2 c -0.53978,1.759212 -0.15439,-3.627902 0.58959,-0.608751 0.20415,6.726008 -3.03177,-0.595401 -0.80355,-2.520706 2.30623,-1.308932 1.70362,9.586959 -0.40811,7.054263 -2.76678,-3.227226 0.62977,-13.739099 2.24908,-6.848986 0.22574,0.844941 0.3622,1.873173 0.38158,2.92418 m -4.00859,-2 c -0.53978,1.759212 -0.15439,-3.627902 0.58959,-0.608751 0.20415,6.726008 -3.03177,-0.595401 -0.80355,-2.520706 2.30623,-1.308932 1.70362,9.586959 -0.40811,7.054263 -2.76678,-3.227226 0.62977,-13.739099 2.24908,-6.848986 0.22574,0.844941 0.3622,1.873173 0.38158,2.92418 m -4.00859,-2 c -0.53978,1.759212 -0.15439,-3.627902 0.58959,-0.608751 0.20415,6.726008 -3.03177,-0.595401 -0.80355,-2.520706 2.30623,-1.308932 1.70362,9.586959 -0.40811,7.054263 -2.76678,-3.227226 0.62977,-13.739099 2.24908,-6.848986 0.22574,0.844941 0.3622,1.873173 0.38158,2.92418 m -4.00859,-1 c -0.53978,1.759212 -0.15439,-3.627902 0.58959,-0.608751 0.20415,6.726008 -3.03177,-0.595401 -0.80355,-2.520706 2.30623,-1.308932 1.70362,9.586959 -0.40811,7.054263 -2.76678,-3.227226 0.62977,-13.739099 2.24908,-6.848986 0.22574,0.844941 0.3622,1.873173 0.38158,2.92418 m -4.00859,-2 c -0.53978,1.759212 -0.15439,-3.627902 0.58959,-0.608751 0.20415,6.726008 -3.03177,-0.595401 -0.80355,-2.520706 2.30623,-1.308932 1.70362,9.586959 -0.40811,7.054263 -2.766778,-3.227226 0.62977,-13.7390985 2.24908,-6.848986 0.22574,0.844941 0.3622,1.873173 0.38158,2.92418 m -4.00859,-1 c -0.53978,1.759212 -0.15439,-3.627902 0.58959,-0.608751 0.20415,6.726008 -3.031765,-0.595401 -0.80355,-2.520706 2.30623,-1.308932 1.70362,9.586959 -0.40811,7.054263 -2.766778,-3.227226 0.62977,-13.7390985 2.24908,-6.848986 0.22574,0.844941 0.3622,1.873173 0.38158,2.92418 m -4.008586,-1 c -0.539782,1.759212 -0.154387,-3.627902 0.589591,-0.608751 0.204148,6.726008 -3.031766,-0.595401 -0.803548,-2.520706 2.306233,-1.308932 1.703623,9.586959 -0.408112,7.054263 -2.766779,-3.227226 0.629772,-13.7390985 2.249085,-6.848986 0.22574,0.844941 0.3622,1.873173 0.38157,2.92418 m -4.008586,0 c -0.539782,1.759212 -0.154387,-3.627902 0.589591,-0.608751 0.204148,6.726008 -3.031766,-0.595401 -0.803548,-2.520706 2.30623,-1.308932 1.703621,9.586959 -0.408112,7.054263 -2.766779,-3.227226 0.629772,-13.7390985 2.24908,-6.848986 0.225743,0.844941 0.362204,1.873173 0.381577,2.92418 m -4.008588,-1 c -0.539782,1.759212 -0.154387,-3.627902 0.589591,-0.608751 0.204148,6.726008 -3.031766,-0.595401 -0.803548,-2.520706 2.30623,-1.308932 1.703621,9.586959 -0.408112,7.054263 -2.766779,-3.227226 0.629772,-13.7390985 2.24908,-6.848986 0.225743,0.844941 0.362204,1.873173 0.381577,2.92418 m -4.008588,-1 c -0.539782,1.759212 -0.154387,-3.627902 0.589591,-0.608751 0.204148,6.726008 -3.031766,-0.595401 -0.803548,-2.520706 2.30623,-1.308932 1.703621,9.586959 -0.408112,7.054263 -2.766779,-3.227226 0.629772,-13.7390985 2.24908,-6.848986 0.225743,0.844941 0.362204,1.873173 0.381577,2.92418 m -4.008588,0 c -0.539782,1.759212 -0.154387,-3.627902 0.589591,-0.608751 0.204148,6.726008 -3.031766,-0.595401 -0.803548,-2.520706 2.30623,-1.308932 1.703621,9.586959 -0.408112,7.054263 -2.766779,-3.227226 0.629772,-13.7390985 2.24908,-6.848986 0.225743,0.844941 0.362204,1.873173 0.381577,2.92418 m -4.008588,-1 c -0.539782,1.759212 -0.154387,-3.6279016 0.589591,-0.608751 0.204148,6.726008 -3.031766,-0.595401 -0.803548,-2.520706 2.30623,-1.3089324 1.703621,9.586959 -0.408112,7.054263 -2.766779,-3.227226 0.629772,-13.7390985 2.24908,-6.848986 0.225743,0.844941 0.362204,1.873173 0.381577,2.92418 m -4.008588,0 c -0.539782,1.759212 -0.154387,-3.6279016 0.589591,-0.608751 0.204148,6.726008 -3.031766,-0.595401 -0.803548,-2.520706 2.30623,-1.3089324 1.703621,9.586959 -0.408112,7.054263 -2.766779,-3.227226 0.629772,-13.7390985 2.24908,-6.848986 0.225743,0.844941 0.362204,1.873173 0.381577,2.92418 m -4.008588,0 c -0.539782,1.759212 -0.154387,-3.6279016 0.589591,-0.608751 0.204148,6.726008 -3.031766,-0.595401 -0.803548,-2.520706 2.30623,-1.3089324 1.703621,9.586959 -0.408112,7.054263 -2.766779,-3.227226 0.629772,-13.7390985 2.24908,-6.848986 0.225743,0.844941 0.362204,1.873173 0.381577,2.92418 m -4.008588,0 c -0.539782,1.759212 -0.154387,-3.6279016 0.589591,-0.608751 0.204148,6.726008 -3.031766,-0.595401 -0.803548,-2.520706 2.30623,-1.3089324 1.703621,9.586959 -0.408112,7.054263 -2.766779,-3.227226 0.629772,-13.7390985 2.24908,-6.848986 0.225743,0.844941 0.362204,1.873173 0.381577,2.92418 m -4.008588,0 c -0.539782,1.759212 -0.154387,-3.6279016 0.589591,-0.608751 0.204148,6.726008 -3.031766,-0.595401 -0.803548,-2.520706 2.30623,-1.3089324 1.703621,9.586959 -0.408112,7.054263 -2.766779,-3.227226 0.629772,-13.7390985 2.24908,-6.848986 0.225743,0.844941 0.362204,1.873173 0.381577,2.92418 m -4.008588,0 c -0.539782,1.759212 -0.154387,-3.6279016 0.589591,-0.608751 0.204148,6.726008 -3.031766,-0.595401 -0.803548,-2.520706 2.30623,-1.3089324 1.703621,9.586959 -0.408112,7.054263 -2.766779,-3.227226 0.629772,-13.7390985 2.24908,-6.848986 0.225743,0.844941 0.362204,1.873173 0.381577,2.92418 m -4.008588,0 c -0.539782,1.759212 -0.154387,-3.6279016 0.589591,-0.608751 0.204148,6.726008 -3.031766,-0.595401 -0.803548,-2.520706 2.30623,-1.3089324 1.703621,9.586959 -0.408112,7.054263 -2.766779,-3.227226 0.629772,-13.7390985 2.24908,-6.848986 0.225743,0.844941 0.362204,1.873173 0.381577,2.92418 m -4.008588,1 c -0.539782,1.759212 -0.154387,-3.627902 0.589591,-0.608751 0.204148,6.726008 -3.031766,-0.595401 -0.803548,-2.520706 2.30623,-1.308932 1.703621,9.586959 -0.408112,7.054263 -2.766779,-3.227226 0.629772,-13.7390985 2.24908,-6.848986 0.225743,0.844941 0.362204,1.873173 0.381577,2.92418 m -4.008588,0 c -0.539782,1.759212 -0.154387,-3.627902 0.589591,-0.608751 0.204148,6.726008 -3.031766,-0.595401 -0.803548,-2.520706 2.30623,-1.308932 1.703621,9.586959 -0.408112,7.054263 -2.766779,-3.227226 0.629772,-13.7390985 2.24908,-6.848986 0.225743,0.844941 0.362204,1.873173 0.381577,2.92418 m -4.008588,1 c -0.539782,1.759212 -0.154387,-3.627902 0.589591,-0.608751 0.204148,6.726008 -3.031766,-0.595401 -0.803548,-2.520706 2.30623,-1.308932 1.703621,9.586959 -0.408112,7.054263 -2.766779,-3.227226 0.629772,-13.7390985 2.24908,-6.848986 0.225743,0.844941 0.362204,1.873173 0.381577,2.92418 m -4.008588,1 c -0.539782,1.759212 -0.154387,-3.627902 0.589591,-0.608751 0.204148,6.726008 -3.031766,-0.595401 -0.803548,-2.520706 2.30623,-1.308932 1.703621,9.586959 -0.408112,7.054263 -2.766779,-3.227226 0.629772,-13.7390985 2.24908,-6.848986 0.225743,0.844941 0.362204,1.873173 0.381577,2.92418 m -4.008588,1 c -0.539782,1.759212 -0.154387,-3.627902 0.589591,-0.608751 0.204148,6.726008 -3.031766,-0.595401 -0.803548,-2.520706 2.30623,-1.308932 1.703621,9.586959 -0.408112,7.054263 -2.766779,-3.227226 0.629772,-13.7390985 2.24908,-6.848986 0.225743,0.844941 0.362204,1.873173 0.381577,2.92418 m -4.008588,1 c -0.539782,1.759212 -0.154387,-3.627902 0.589591,-0.608751 0.204148,6.726008 -3.031766,-0.595401 -0.803548,-2.520706 2.30623,-1.308932 1.703621,9.586959 -0.408112,7.054263 -2.766779,-3.227226 0.629772,-13.7390985 2.24908,-6.848986 0.225743,0.844941 0.362204,1.873173 0.381577,2.92418 m -4.008588,1 c -0.539782,1.759212 -0.154387,-3.627902 0.589591,-0.608751 0.204148,6.726008 -3.031766,-0.595401 -0.803548,-2.520706 2.30623,-1.308932 1.703621,9.586959 -0.408112,7.054263 -2.766779,-3.227226 0.629772,-13.7390985 2.24908,-6.848986 0.225743,0.844941 0.362204,1.873173 0.381577,2.92418 m -4.008588,2 c -0.539782,1.759212 -0.154387,-3.627902 0.589591,-0.608751 0.204148,6.726008 -3.031766,-0.595401 -0.803548,-2.520706 2.30623,-1.308932 1.703621,9.586959 -0.408112,7.054263 -2.766779,-3.227226 0.629772,-13.739099 2.24908,-6.848986 0.225743,0.844941 0.362204,1.873173 0.381577,2.92418 m -4.008588,1 c -0.539782,1.759212 -0.154387,-3.627902 0.589591,-0.608751 0.204148,6.726008 -3.031766,-0.595401 -0.803548,-2.520706 2.30623,-1.308932 1.703621,9.586959 -0.408112,7.054263 -2.766779,-3.227226 0.629772,-13.739099 2.24908,-6.848986 0.225743,0.844941 0.362204,1.873173 0.381577,2.92418 m -4.008588,2 c -0.539782,1.759212 -0.154387,-3.627902 0.589591,-0.608751 0.204148,6.726008 -3.031766,-0.595401 -0.803548,-2.520706 2.30623,-1.308932 1.703621,9.586959 -0.408112,7.054263 -2.766779,-3.227226 0.629772,-13.739099 2.24908,-6.848986 0.225743,0.844941 0.362204,1.873173 0.381577,2.92418 m -3.868785,1.539619 c -0.539782,1.759212 -0.154387,-3.627902 0.589591,-0.608751 0.204148,6.726008 -3.031766,-0.595401 -0.803548,-2.520706 2.30623,-1.308932 1.703621,9.586959 -0.408112,7.054263 -2.766779,-3.227226 0.629772,-13.739099 2.24908,-6.848986 0.225743,0.844941 0.362204,1.873173 0.381577,2.92418 m -4.008588,2 c -0.539782,1.759212 -0.154387,-3.627902 0.589591,-0.608751 0.204148,6.726008 -3.031766,-0.595401 -0.803548,-2.520706 2.30623,-1.308932 1.703621,9.586959 -0.408112,7.054263 -2.766779,-3.227226 0.629772,-13.739099 2.24908,-6.848986 0.225743,0.844941 0.362204,1.873173 0.381577,2.92418 m -4.008588,3 c -0.539782,1.759212 -0.154387,-3.627902 0.589591,-0.608751 0.204148,6.726008 -3.031766,-0.595401 -0.803548,-2.520706 2.30623,-1.308932 1.703621,9.586959 -0.408112,7.054263 -2.766779,-3.227226 0.629772,-13.739099 2.24908,-6.848986 0.225743,0.844941 0.362204,1.873173 0.381577,2.92418 m -4.008588,3.490948 c -0.539782,1.759212 -0.154387,-3.627902 0.589591,-0.608751 0.204148,6.726008 -3.031766,-0.595401 -0.803548,-2.520706 2.30623,-1.308932 1.703621,9.586959 -0.408112,7.054263 -2.766779,-3.227226 0.629772,-13.739099 2.24908,-6.848986 0.225743,0.844941 0.362204,1.873173 0.381577,2.92418 m -4.008588,4.509053 c -0.539782,1.759212 -0.154387,-3.627902 0.589591,-0.608751 0.204148,6.726008 -3.031766,-0.595401 -0.803548,-2.520706 2.30623,-1.308932 1.703621,9.586959 -0.408112,7.054263 -2.766779,-3.227226 0.629772,-13.739099 2.24908,-6.848986 0.225743,0.844941 0.362204,1.873173 0.381577,2.92418" />
</svg>
