<?xml version="1.0" encoding="UTF-8" standalone="no"?>
<svg
   xmlns:dc="http://purl.org/dc/elements/1.1/"
   xmlns:cc="http://creativecommons.org/ns#"
   xmlns:rdf="http://www.w3.org/1999/02/22-rdf-syntax-ns#"
   xmlns:svg="http://www.w3.org/2000/svg"
   xmlns="http://www.w3.org/2000/svg"
   xmlns:xlink="http://www.w3.org/1999/xlink"
   xmlns:sodipodi="http://sodipodi.sourceforge.net/DTD/sodipodi-0.dtd"
   xmlns:inkscape="http://www.inkscape.org/namespaces/inkscape"
   height="182"
   width="160"
   version="1.1"
   id="svg17598"
   sodipodi:docname="front-walking-1.svg"
   inkscape:version="0.92.3 (2405546, 2018-03-11)">
  <metadata
     id="metadata17602">
    <rdf:RDF>
      <cc:Work
         rdf:about="">
        <dc:format>image/svg+xml</dc:format>
        <dc:type
           rdf:resource="http://purl.org/dc/dcmitype/StillImage" />
        <dc:title />
      </cc:Work>
    </rdf:RDF>
  </metadata>
  <sodipodi:namedview
     pagecolor="#ffffff"
     bordercolor="#666666"
     borderopacity="1"
     objecttolerance="10"
     gridtolerance="10"
     guidetolerance="10"
     inkscape:pageopacity="0"
     inkscape:pageshadow="2"
     inkscape:window-width="1903"
     inkscape:window-height="2096"
     id="namedview17600"
     showgrid="true"
     inkscape:pagecheckerboard="true"
     inkscape:zoom="10.373626"
     inkscape:cx="101.03205"
     inkscape:cy="112.95052"
     inkscape:window-x="1089"
     inkscape:window-y="162"
     inkscape:window-maximized="0"
     inkscape:current-layer="svg17598">
    <inkscape:grid
       type="xygrid"
       id="grid18147" />
  </sodipodi:namedview>
  <defs
     id="defs17588">
    <path
       d="M.7-.3l1.85 2.2H1.5L.05.7-1.4 1.9h-1.05l1.9-2.2H.7"
       fill-rule="evenodd"
       transform="translate(2.45 .3)"
       id="a" />
    <use
       height="2.2"
       width="5"
       xlink:href="#a"
       id="c" />
    <g
       id="b">
      <path
         d="M-15.5-41.55q-2.65-3.1-2.5-7.1v-.75q.25-4.9 5.35-9.05Q-7.15-63.5.5-64q7.6.5 13.05 5.55Q18.6-54.3 19-49.4v.75q0 4-2.6 7.1h.1-.05l-1.1 1.3v.15l-1 .9 6.55 2.35.05-.1.8.1H22.7l.4.3.55.55.25.35.25 1.5-.2.45q-.35 1.55-1.4 1.65l-2.1.1-1.15-.9v-.05h-.05l.05-.15-4.95-1.8v-.05l-1.3-.5.05.55-.3.9.35.1v.05l-.15-.05-.25 8.85h-.05l-.05 1.5h.05v.1l-.05.4h-.05l-.05.5h.05l-.15 1.3-.05.95-.05.35h-1.8l-.75 1.55h5.4l1.15.4q.55.55.55 1.65 0 1.05-.55 1.6-.45.45-1.15.45H8.6v1.4l-7.7-.7h-2.45l-1.55 1.7v1.2h-1.2v5.2q-.05 1.35-.8 2.25-.7.75-1.7.75t-1.75-.75q-.75-.9-.75-2.25v-5.2h-1.2L-12.1-13l.1-.1q-1.8-1.9-2.15-4.15l-.1-1.2V-19l.05-.4.2-.85.35-1h.1v-.55l.15-.15v-1.35l.15-2.4v-.05l.5-7.75h-.05l-1.45-.45-.45-1.3-6.1 2.2.05.15h-.05v.05l-1.1.9-2.1-.1q-1.1-.1-1.45-1.65l-.15-.45.25-1.5.2-.35.6-.55.35-.3h1l.75-.1.05.1 9.05-3.25-.25-.8-1.35.35-.75-1h.2m1.75 19.65l-.05-.1.05.1m3.65-6.55h.05l-.05-.05v.05"
         fill="#fff"
         fill-rule="evenodd"
         transform="translate(27.05 64.6)"
         id="path17579" />
      <path
         d="M15.35-40.1l3.15.95v-.05l2.55.95v-.05l.3.2v.1h.1l1.25-.1q.2.15.3 0 1.55.35 2 1.5l.15.25v.25l.15.3.2.7q.2.9-.15 1.6l-.1.2q-.35 1.9-2 2.4.05.45-.2.1l-2.7.2q-.65-.35-1.65-1.25l-4.15-1.5v.1l-1.4-.55v-.05l-.35-.1.3-.9-.05-.55 1.3.5v.05l4.95 1.8-.05.15h.05v.05l1.15.9 2.1-.1q1.05-.1 1.4-1.65l.2-.45-.25-1.5-.25-.35-.55-.55-.4-.3H21.75l-.8-.1-.05.1-6.55-2.35 1-.9m-3 20.2h2.9q1.25 0 2.05.8.9.9.9 2.8 0 1.85-.9 2.75-.8.8-2.05.8H8.6v-1.5h6.6q.7 0 1.15-.45.55-.55.55-1.6 0-1.1-.55-1.65l-1.15-.4H9.8l.75-1.55h1.8m-15.5 9.25v5.2q0 1.95-1.05 3.1Q-5.3-1.1-6.8-1.1t-2.65-1.25q-1.05-1.15-1.05-3.1v-5.2h1.2v5.2q0 1.35.75 2.25.75.75 1.75.75t1.7-.75q.75-.9.8-2.25v-5.2h1.15m-11.1-23.3l-5.95 2.1-1.6 1.25q-1.6.45-2.7-.2-.3.35-.2-.1-1.7-.5-2-2.4l-.15-.2q-.35-.7-.15-1.6l.25-.7.15-.3v-.25l.1-.25q.45-1.15 2.05-1.5.05.15.3 0l1.2.1h.15l-.05-.1.3-.2.05.05 2.55-.95v.05l1.8-.65 3.2-.75 1.35-.35.25.8-9.05 3.25-.05-.1-.75.1h-1l-.35.3-.6.55-.2.35-.25 1.5.15.45q.35 1.55 1.45 1.65l2.1.1 1.1-.9v-.05h.05l-.05-.15 6.1-2.2.45 1.3"
         fill-rule="evenodd"
         transform="translate(27.05 64.6)"
         id="path17581" />
      <path
         d="M11.55 23.05q-2.65-3.1-2.5-7.1v-.75q.25-4.9 5.35-9.05Q19.9 1.1 27.55.6q7.6.5 13.05 5.55 5.05 4.15 5.45 9.05v.75q0 4-2.6 7.1"
         fill="none"
         stroke="#000"
         stroke-linecap="round"
         stroke-linejoin="round"
         stroke-width="1.2"
         id="path17583" />
      <path
         d="M5.4-44.05q.15.45.45.75l.7.25.95-.6q.4-.65.4-1.65 0-1.35-.9-3.25h1.05q.9 1.6.9 3.15 0 1.55-.65 2.4-.6.8-1.6.8-1.35 0-1.9-1.4-.6 1.4-1.9 1.4-1.05 0-1.65-.85Q.6-43.9.6-45.4q0-1.55.95-3.15h1q-.85 1.9-.85 3.25 0 1 .35 1.65.4.6.95.6.4 0 .7-.3l.45-.7.1-1.15V-47H5.3v1.8l.1 1.15"
         fill-rule="evenodd"
         transform="translate(27.05 64.6)"
         id="path17585" />
    </g>
  </defs>
  <path
     style="fill:#ffcc00;stroke:#806600;stroke-width:2.33162618;stroke-linecap:butt;stroke-linejoin:miter;stroke-miterlimit:4;stroke-dasharray:none;stroke-opacity:1"
     d="M 57.998255,29.219293 C 63.471395,-26.628196 67.995506,18.59613 67.995506,18.59613"
     id="path5268"
     inkscape:connector-curvature="0" />
  <path
     style="fill:#ffcc00;stroke:#806600;stroke-width:2.33162618;stroke-linecap:butt;stroke-linejoin:miter;stroke-miterlimit:4;stroke-dasharray:none;stroke-opacity:1"
     d="M 108.78393,29.219293 C 103.31079,-26.628196 98.786677,18.59613 98.786677,18.59613"
     id="path5268-3"
     inkscape:connector-curvature="0" />
  <g
     transform="matrix(2 0 0 2 82.341 144.2)"
     id="g17596">
    <use
       height="63.5"
       transform="translate(-27.05 -64.6)"
       width="52.6"
       xlink:href="#b"
       id="use17590"
       style="fill:#000000;fill-opacity:1" />
    <use
       height="2.2"
       transform="translate(10.35 -53.3)"
       width="5"
       xlink:href="#c"
       id="use17592" />
    <use
       height="2.2"
       transform="translate(-5.9 -53.3)"
       width="5"
       xlink:href="#c"
       id="use17594" />
  </g>
  <path
     id="path5357-574"
     style="fill:none;fill-rule:evenodd;stroke:#008000;stroke-width:0.41771439"
     d="m 58.114277,26.895256 c -0.539782,1.759212 -0.154387,-3.627902 0.589591,-0.608751 0.08705,7.163971 -3.127958,-1.534321 -0.589591,-2.634384 2.395893,-0.09071 1.033785,10.516294 -0.898752,6.795812 -2.510935,-4.701618 1.589126,-13.266658 2.718578,-5.58916 l 0.12987,0.982733 0.05889,1.05375 m -4.053503,0.903171 c -0.539782,1.759212 -0.154387,-3.627902 0.589591,-0.608751 0.08705,7.163971 -3.127958,-1.534321 -0.589591,-2.634384 2.395893,-0.09071 1.033785,10.516294 -0.898752,6.795812 -2.510935,-4.701618 1.589126,-13.266658 2.718578,-5.58916 l 0.12987,0.982733 0.05889,1.05375 M 47.859944,37.920766 c -0.539782,1.759212 -0.154387,-3.627902 0.589591,-0.608751 0.08705,7.163971 -3.127958,-1.534321 -0.589591,-2.634384 2.395893,-0.09071 1.033785,10.516294 -0.898752,6.795812 -2.510935,-4.701618 1.589126,-13.266658 2.718578,-5.58916 l 0.12987,0.982733 0.05889,1.05375 m 1.804259,-5.75985 c -0.539782,1.759212 -0.154387,-3.627902 0.589591,-0.608751 0.08705,7.163971 -3.127958,-1.534321 -0.589591,-2.634384 2.395893,-0.09071 1.033785,10.516294 -0.898752,6.795812 -2.510935,-4.701618 1.589126,-13.266658 2.718578,-5.58916 l 0.12987,0.982733 0.05889,1.05375 m -2.821431,1.124705 c -0.539782,1.759212 -0.154387,-3.627902 0.589591,-0.608751 0.08705,7.163971 -3.127958,-1.534321 -0.589591,-2.634384 2.395893,-0.09071 1.033785,10.516294 -0.898752,6.795812 -2.510935,-4.701618 1.589126,-13.266658 2.718578,-5.58916 l 0.12987,0.982733 0.05889,1.05375 m -3.308822,2.174719 c -0.539782,1.759212 -0.154387,-3.627902 0.589591,-0.608751 0.08705,7.163971 -3.127958,-1.534321 -0.589591,-2.634384 2.395893,-0.09071 1.033785,10.516294 -0.898752,6.795812 -2.510935,-4.701618 1.589126,-13.266658 2.718578,-5.58916 l 0.12987,0.982733 0.05889,1.05375 m 42.29165,-18.417526 c -0.539782,1.759212 -0.154387,-3.627902 0.589591,-0.608751 0.08705,7.163971 -3.127958,-1.534321 -0.589591,-2.634384 2.395893,-0.09071 1.033785,10.516294 -0.898752,6.795812 -2.510935,-4.701618 1.589126,-13.266658 2.718578,-5.58916 l 0.12987,0.982733 0.05889,1.05375 m -6.008586,-0.582473 c -0.539782,1.759212 -0.154387,-3.627902 0.589591,-0.608751 0.08705,7.163971 -3.127958,-1.534321 -0.589591,-2.634384 2.395893,-0.09071 1.033785,10.516294 -0.898752,6.795812 C 86.450257,15.3114 90.550318,6.74636 91.67977,14.423858 l 0.12987,0.982733 0.05889,1.05375 m -15.008586,0 c -0.539782,1.759212 -0.154387,-3.627902 0.589591,-0.608751 0.08705,7.163971 -3.127958,-1.534321 -0.589591,-2.634384 2.395893,-0.09071 1.033785,10.516294 -0.898752,6.795812 C 73.450257,15.3114 77.550318,6.74636 78.67977,14.423858 l 0.12987,0.982733 0.05889,1.05375 m 12.991414,0.437875 c -0.539782,1.759212 -0.154387,-3.627902 0.589591,-0.608751 0.08705,7.163971 -3.127958,-1.534321 -0.589591,-2.634384 2.395893,-0.09071 1.033785,10.516294 -0.898752,6.795812 -2.510935,-4.701618 1.589126,-13.266658 2.718578,-5.58916 l 0.12987,0.982733 0.05889,1.05375 m -5.347943,-0.144597 c -0.539782,1.759212 -0.154387,-3.627902 0.589591,-0.608751 0.08705,7.163971 -3.127958,-1.534321 -0.589591,-2.634384 2.395893,-0.09071 1.033785,10.516294 -0.898752,6.795812 -2.510935,-4.701618 1.589126,-13.266658 2.718578,-5.58916 l 0.12987,0.982733 0.05889,1.05375 m -3.960651,0.0241 c -0.539782,1.759212 -0.154387,-3.627902 0.589591,-0.608751 0.08705,7.163971 -3.127958,-1.534321 -0.589591,-2.634384 2.395893,-0.09071 1.033785,10.516294 -0.898752,6.795812 -2.510935,-4.701618 1.589126,-13.266658 2.718578,-5.58916 l 0.12987,0.982733 0.05889,1.05375 m -4.008851,-0.0241 c -0.539782,1.759212 -0.154387,-3.627902 0.589591,-0.608751 0.08705,7.163971 -3.127958,-1.534321 -0.589591,-2.634384 2.395893,-0.09071 1.033785,10.516294 -0.898752,6.795812 -2.510935,-4.701618 1.589126,-13.266658 2.718578,-5.58916 l 0.12987,0.982733 0.05889,1.05375 m -4.008851,0 c -0.539782,1.759212 -0.154387,-3.627902 0.589591,-0.608751 0.08705,7.163971 -3.127958,-1.534321 -0.589591,-2.634384 2.395893,-0.09071 1.033785,10.516294 -0.898752,6.795812 -2.510935,-4.701618 1.589126,-13.266658 2.718578,-5.58916 l 0.12987,0.982733 0.05889,1.05375 m -4.008851,-0.293278 c -0.539782,1.759212 -0.154387,-3.627902 0.589591,-0.608751 0.08705,7.163971 -3.127958,-1.534321 -0.589591,-2.634384 2.395893,-0.09071 1.033785,10.516294 -0.898752,6.795812 C 77.15804,15.3114 81.258101,6.74636 82.387553,14.423858 l 0.12987,0.982733 0.05889,1.05375 m -3.960651,0 c -0.539782,1.759212 -0.154387,-3.627902 0.589591,-0.608751 0.08705,7.163971 -3.127958,-1.534321 -0.589591,-2.634384 2.395893,-0.09071 1.033785,10.516294 -0.898752,6.795812 -2.510935,-4.701618 1.589126,-13.266658 2.718578,-5.58916 l 0.12987,0.982733 0.05889,1.05375 M 48.859944,41.46034 c -0.539782,1.759212 -0.154387,-3.627902 0.589591,-0.608751 0.08705,7.163971 -3.127958,-1.534321 -0.589591,-2.634384 2.395893,-0.09071 1.033785,10.516294 -0.898752,6.795812 -2.510935,-4.701618 1.589126,-13.266658 2.718578,-5.58916 l 0.12987,0.982733 0.05889,1.05375 m -0.0086,-3 c -0.539782,1.759212 -0.154387,-3.627902 0.589591,-0.608751 0.08705,7.163971 -3.127958,-1.534321 -0.589591,-2.634384 2.395893,-0.09071 1.033785,10.516294 -0.898752,6.795812 -2.510935,-4.701618 1.589126,-13.266658 2.718578,-5.58916 l 0.12987,0.982733 0.05889,1.05375 m -0.0086,-2 c -0.539782,1.759212 -0.154387,-3.627902 0.589591,-0.608751 0.08705,7.163971 -3.127958,-1.534321 -0.589591,-2.634384 2.395893,-0.09071 1.033785,10.516294 -0.898752,6.795812 -2.510935,-4.701618 1.589126,-13.266658 2.718578,-5.58916 l 0.12987,0.982733 0.05889,1.05375 m -0.0086,-2.620121 c -0.539782,1.759212 -0.154387,-3.627902 0.589591,-0.608751 0.08705,7.163971 -3.127958,-1.534321 -0.589591,-2.634384 2.395893,-0.09071 1.033785,10.516294 -0.898752,6.795812 -2.510935,-4.701618 1.589126,-13.266658 2.718578,-5.58916 l 0.12987,0.982733 0.05889,1.05375 m -0.0086,-1.379879 c -0.539782,1.759212 -0.154387,-3.627902 0.589591,-0.608751 0.08705,7.163971 -3.127958,-1.534321 -0.589591,-2.634384 2.395893,-0.09071 1.033785,10.516294 -0.898752,6.795812 -2.510935,-4.701618 1.589126,-13.266658 2.718578,-5.58916 l 0.12987,0.982733 0.05889,1.05375 m -0.0086,-2.66885 c -0.539782,1.759212 -0.154387,-3.627902 0.589591,-0.608751 0.08705,7.163971 -3.127958,-1.534321 -0.589591,-2.634384 2.395893,-0.09071 1.033785,10.516294 -0.898752,6.795812 -2.510935,-4.701618 1.589126,-13.266658 2.718578,-5.58916 l 0.12987,0.982733 0.05889,1.05375 m -0.0086,-1.33115 c -0.539782,1.759212 -0.154387,-3.627902 0.589591,-0.608751 0.08705,7.163971 -3.127958,-1.534321 -0.589591,-2.634384 2.395893,-0.09071 1.033785,10.516294 -0.898752,6.795812 -2.510935,-4.701618 1.589126,-13.266658 2.718578,-5.58916 l 0.12987,0.982733 0.05889,1.05375 m -0.0086,-1.729496 c -0.539782,1.759212 -0.154387,-3.627902 0.589591,-0.608751 0.08705,7.163971 -3.127958,-1.534321 -0.589591,-2.634384 2.395893,-0.09071 1.033785,10.516294 -0.898752,6.795812 -2.510935,-4.701618 1.589126,-13.266658 2.718578,-5.58916 l 0.12987,0.982733 0.05889,1.05375 m -0.0086,-0.988083 c -0.539782,1.759212 -0.154387,-3.627902 0.589591,-0.608751 0.08705,7.163971 -3.127958,-1.534321 -0.589591,-2.634384 2.395893,-0.09071 1.033785,10.516294 -0.898752,6.795812 -2.510935,-4.701618 1.589126,-13.266658 2.718578,-5.58916 l 0.12987,0.982733 0.05889,1.05375 m -0.0086,-1.282421 c -0.539782,1.759212 -0.154387,-3.627902 0.589591,-0.608751 0.08705,7.163971 -3.127958,-1.534321 -0.589591,-2.634384 2.395893,-0.09071 1.033785,10.516294 -0.898752,6.795812 -2.510935,-4.701618 1.589126,-13.266658 2.718578,-5.58916 l 0.12987,0.982733 0.05889,1.05375 m -0.0086,-1 c -0.539782,1.759212 -0.154387,-3.627902 0.589591,-0.608751 0.08705,7.163971 -3.127958,-1.534321 -0.589591,-2.634384 2.395893,-0.09071 1.033785,10.516294 -0.898752,6.795812 -2.510935,-4.701618 1.589126,-13.266658 2.718578,-5.58916 l 0.12987,0.982733 0.05889,1.05375 m -0.0086,-1 c -0.539782,1.759212 -0.154387,-3.627902 0.589591,-0.608751 0.08705,7.163971 -3.127958,-1.534321 -0.589591,-2.634384 2.395893,-0.09071 1.033785,10.516294 -0.898752,6.795812 -2.510935,-4.701618 1.589126,-13.266658 2.718578,-5.58916 l 0.12987,0.982733 0.05889,1.05375 m -0.0086,0 c -0.539782,1.759212 -0.154387,-3.627902 0.589591,-0.608751 0.08705,7.163971 -3.127958,-1.534321 -0.589591,-2.634384 2.395893,-0.09071 1.033785,10.516294 -0.898752,6.795812 -2.510935,-4.701618 1.589126,-13.266658 2.718578,-5.58916 l 0.12987,0.982733 0.05889,1.05375 m -0.0086,0 c -0.539782,1.759212 -0.154387,-3.627902 0.589591,-0.608751 0.08705,7.163971 -3.127958,-1.534321 -0.589591,-2.634384 2.395893,-0.09071 1.033785,10.516294 -0.898752,6.795812 -2.510935,-4.701618 1.589126,-13.266658 2.718578,-5.58916 l 0.12987,0.982733 0.05889,1.05375 m -0.0086,0 c -0.539782,1.759212 -0.154387,-3.627902 0.589591,-0.608751 0.08705,7.163971 -3.127958,-1.534321 -0.589591,-2.634384 2.395893,-0.09071 1.033785,10.516294 -0.898752,6.795812 -2.510935,-4.701618 1.589126,-13.266658 2.718578,-5.58916 l 0.12987,0.982733 0.05889,1.05375 m -0.0086,0 c -0.539782,1.759212 -0.154387,-3.627902 0.589591,-0.608751 0.08705,7.163971 -3.127958,-1.534321 -0.589591,-2.634384 2.395893,-0.09071 1.033785,10.516294 -0.898752,6.795812 -2.510935,-4.701618 1.589126,-13.266658 2.718578,-5.58916 l 0.12987,0.982733 0.05889,1.05375 m -0.0086,0 c -0.539782,1.759212 -0.154387,-3.627902 0.589591,-0.608751 0.08705,7.163971 -3.127958,-1.534321 -0.589591,-2.634384 2.395893,-0.09071 1.033785,10.516294 -0.898752,6.795812 -2.510935,-4.701618 1.589126,-13.266658 2.718578,-5.58916 l 0.12987,0.982733 0.05889,1.05375 m -0.0086,0 c -0.539782,1.759212 -0.154387,-3.627902 0.589591,-0.608751 0.08705,7.163971 -3.127958,-1.534321 -0.589591,-2.634384 2.395893,-0.09071 1.033785,10.516294 -0.898752,6.795812 -2.510935,-4.701618 1.589126,-13.266658 2.718578,-5.58916 l 0.12987,0.982733 0.05889,1.05375 m -0.0086,0 c -0.539782,1.759212 -0.154387,-3.627902 0.589591,-0.608751 0.08705,7.163971 -3.127958,-1.534321 -0.589591,-2.634384 2.395893,-0.09071 1.033785,10.516294 -0.898752,6.795812 -2.510935,-4.701618 1.589126,-13.266658 2.718578,-5.58916 l 0.12987,0.982733 0.05889,1.05375 m -0.0086,0 c -0.539782,1.759212 -0.154387,-3.627902 0.589591,-0.608751 0.08705,7.163971 -3.127958,-1.534321 -0.589591,-2.634384 2.395893,-0.09071 1.033785,10.516294 -0.898752,6.795812 -2.510935,-4.701618 1.589126,-13.266658 2.718578,-5.58916 l 0.12987,0.982733 0.05889,1.05375 m -0.0086,0 c -0.539782,1.759212 -0.154387,-3.627902 0.589591,-0.608751 0.08705,7.163971 -3.127958,-1.534321 -0.589591,-2.634384 2.395893,-0.09071 1.033785,10.516294 -0.898752,6.795812 -2.510935,-4.701618 1.589126,-13.266658 2.718578,-5.58916 l 0.12987,0.982733 0.05889,1.05375 m -0.0086,0 c -0.539782,1.759212 -0.154387,-3.627902 0.589591,-0.608751 0.08705,7.163971 -3.127958,-1.534321 -0.589591,-2.634384 2.395893,-0.09071 1.033785,10.516294 -0.898752,6.795812 -2.510935,-4.701618 1.589126,-13.266658 2.718578,-5.58916 l 0.12987,0.982733 0.05889,1.05375 m -0.0086,0 c -0.539782,1.759212 -0.154387,-3.627902 0.589591,-0.608751 0.08705,7.163971 -3.127958,-1.534321 -0.589591,-2.634384 2.395893,-0.09071 1.033785,10.516294 -0.898752,6.795812 -2.510935,-4.701618 1.589126,-13.266658 2.718578,-5.58916 l 0.12987,0.982733 0.05889,1.05375 m -0.0086,0.269974 c -0.539782,1.759212 -0.154387,-3.627902 0.589591,-0.608751 0.08705,7.163971 -3.127958,-1.534321 -0.589591,-2.634384 2.395893,-0.09071 1.033785,10.516294 -0.898752,6.795812 -2.510935,-4.701618 1.589126,-13.266658 2.718578,-5.58916 l 0.12987,0.982733 0.05889,1.05375 m -0.0086,0.409693 c -0.539782,1.759212 -0.154387,-3.627902 0.589591,-0.608751 0.08705,7.163971 -3.127958,-1.534321 -0.589591,-2.634384 2.395893,-0.09071 1.033785,10.516294 -0.898752,6.795812 -2.510935,-4.701618 1.589126,-13.266658 2.718578,-5.58916 l 0.12987,0.982733 0.05889,1.05375 m -0.0086,-0.0482 c -0.539782,1.759212 -0.154387,-3.627902 0.589591,-0.608751 0.08705,7.163971 -3.127958,-1.534321 -0.589591,-2.634384 2.395896,-0.09071 1.033785,10.516294 -0.898752,6.795812 -2.510935,-4.701618 1.589126,-13.266658 2.718578,-5.58916 l 0.12987,0.982733 0.0589,1.05375 m -0.009,0.368532 c -0.53978,1.759212 -0.15438,-3.627902 0.5896,-0.608751 0.087,7.163971 -3.127963,-1.534321 -0.5896,-2.634384 2.3959,-0.09071 1.03379,10.516294 -0.898748,6.795812 -2.510935,-4.701618 1.589128,-13.266658 2.718578,-5.58916 l 0.12987,0.982733 0.0589,1.05375 m -0.009,0.715948 c -0.53978,1.759212 -0.15438,-3.627902 0.5896,-0.608751 0.087,7.163971 -3.12796,-1.534321 -0.5896,-2.634384 2.3959,-0.09071 1.03379,10.516294 -0.89875,6.795812 -2.510933,-4.701618 1.58913,-13.266658 2.71858,-5.58916 l 0.12987,0.982733 0.0589,1.05375 m -0.009,0.988083 c -0.53978,1.759212 -0.15438,-3.627902 0.5896,-0.608751 0.087,7.163971 -3.12796,-1.534321 -0.5896,-2.634384 2.3959,-0.09071 1.03379,10.516294 -0.89875,6.795812 -2.51093,-4.701618 1.58913,-13.266658 2.71858,-5.58916 l 0.12987,0.982733 0.0589,1.05375 m -0.009,0.771187 c -0.53978,1.759212 -0.15438,-3.627902 0.5896,-0.608751 0.087,7.163971 -3.12796,-1.534321 -0.5896,-2.634384 2.3959,-0.09071 1.03379,10.516294 -0.89875,6.795812 -2.51093,-4.701618 1.58913,-13.266658 2.71858,-5.58916 l 0.12987,0.982733 0.0589,1.05375 m -0.009,0.524782 c -0.53978,1.759212 -0.15438,-3.627902 0.5896,-0.608751 0.087,7.163971 -3.12796,-1.534321 -0.5896,-2.634384 2.3959,-0.09071 1.03379,10.516294 -0.89875,6.795812 -2.51093,-4.701618 1.58913,-13.266658 2.71858,-5.58916 l 0.12987,0.982733 0.0589,1.05375 m 5.39066,5.379614 c -0.53978,1.759212 -0.15438,-3.627902 0.5896,-0.608751 0.087,7.163971 -3.12796,-1.534321 -0.5896,-2.634384 2.3959,-0.09071 1.03379,10.516294 -0.89875,6.795812 -2.51093,-4.701618 1.58913,-13.266658 2.71858,-5.58916 l 0.12987,0.982733 0.0589,1.05375 m -0.40786,3.012447 c -0.53978,1.759212 -0.15438,-3.627902 0.5896,-0.608751 0.087,7.163971 -3.12796,-1.534321 -0.5896,-2.634384 2.3959,-0.09071 1.03379,10.516294 -0.89875,6.795812 -2.51093,-4.701618 1.58913,-13.266658 2.71858,-5.58916 l 0.12987,0.982733 0.0589,1.05375 M 105.85994,24.46034 c -0.53978,1.759212 -0.15438,-3.627902 0.5896,-0.608751 0.087,7.163971 -3.12796,-1.534321 -0.5896,-2.634384 2.3959,-0.09071 1.03379,10.516294 -0.89875,6.795812 -2.51093,-4.701618 1.58913,-13.266658 2.71858,-5.58916 l 0.12987,0.982733 0.0589,1.05375 m -4.0086,-1.464931 c -0.53978,1.759212 -0.15438,-3.627902 0.5896,-0.608751 0.087,7.163971 -3.12796,-1.534321 -0.5896,-2.634384 2.3959,-0.09071 1.03379,10.516294 -0.89875,6.795812 -2.51093,-4.701618 1.58913,-13.266658 2.71858,-5.58916 l 0.12987,0.982733 0.0589,1.05375 m -4.0086,-1.535069 c -0.53978,1.759212 -0.15438,-3.627902 0.5896,-0.608751 0.087,7.163971 -3.127963,-1.534321 -0.5896,-2.634384 2.3959,-0.09071 1.03379,10.516294 -0.89875,6.795812 -2.510933,-4.701618 1.58913,-13.266658 2.71858,-5.58916 l 0.12987,0.982733 0.0589,1.05375 m -4.008596,-1 c -0.539782,1.759212 -0.154387,-3.627902 0.589596,-0.608751 0.087,7.163971 -3.127963,-1.534321 -0.589596,-2.634384 2.395896,-0.09071 1.033786,10.516294 -0.898752,6.795812 -2.510935,-4.701618 1.589128,-13.266658 2.718578,-5.58916 l 0.12987,0.982733 0.0589,1.05375 m -3.756321,-1 c -0.539782,1.759212 -0.154387,-3.627902 0.589591,-0.608751 0.08705,7.163971 -3.127958,-1.534321 -0.589591,-2.634384 2.395891,-0.09071 1.033785,10.516294 -0.898752,6.795812 -2.510935,-4.701618 1.589126,-13.266658 2.718578,-5.58916 l 0.129865,0.982733 0.0589,1.05375 m -30.260866,-2 c -0.539782,1.759212 -0.154387,-3.627902 0.589591,-0.608751 0.08705,7.163971 -3.127958,-1.534321 -0.589591,-2.634384 2.395893,-0.09071 1.033785,10.516294 -0.898752,6.795812 -2.510935,-4.701618 1.589126,-13.266658 2.718578,-5.58916 l 0.12987,0.982733 0.05889,1.05375 m -4.008586,1.341743 c -0.539782,1.759212 -0.154387,-3.627902 0.589591,-0.608751 0.08705,7.163971 -3.127958,-1.534321 -0.589591,-2.634384 2.395893,-0.09071 1.033785,10.516294 -0.898752,6.795812 -2.510935,-4.701618 1.589126,-13.266658 2.718578,-5.58916 l 0.12987,0.982733 0.05889,1.05375 m -4.008586,1.658257 c -0.539782,1.759212 -0.154387,-3.627902 0.589591,-0.608751 0.08705,7.163971 -3.127958,-1.534321 -0.589591,-2.634384 2.395893,-0.09071 1.033785,10.516294 -0.898752,6.795812 -2.510935,-4.701618 1.589126,-13.266658 2.718578,-5.58916 l 0.12987,0.982733 0.05889,1.05375 m -4.008586,1 c -0.539782,1.759212 -0.154387,-3.627902 0.589591,-0.608751 0.08705,7.163971 -3.127958,-1.534321 -0.589591,-2.634384 2.395893,-0.09071 1.033785,10.516294 -0.898752,6.795812 -2.510935,-4.701618 1.589126,-13.266658 2.718578,-5.58916 l 0.12987,0.982733 0.05889,1.05375 m -4.008586,1.535069 c -0.539782,1.759212 -0.154387,-3.627902 0.589591,-0.608751 0.08705,7.163971 -3.127958,-1.534321 -0.589591,-2.634384 2.395893,-0.09071 1.033785,10.516294 -0.898752,6.795812 -2.510935,-4.701618 1.589126,-13.266658 2.718578,-5.58916 l 0.12987,0.982733 0.05889,1.05375 m -4.008586,1.13268 c -0.539782,1.759212 -0.154387,-3.627902 0.589591,-0.608751 0.08705,7.163971 -3.127958,-1.534321 -0.589591,-2.634384 2.395893,-0.09071 1.033785,10.516294 -0.898752,6.795812 -2.510935,-4.701618 1.589126,-13.266658 2.718578,-5.58916 l 0.12987,0.982733 0.05889,1.05375 m -4.008586,1.879767 c -0.539782,1.759212 -0.154387,-3.627902 0.589591,-0.608751 0.08705,7.163971 -3.127958,-1.534321 -0.589591,-2.634384 2.395893,-0.09071 1.033785,10.516294 -0.898752,6.795812 -2.510935,-4.701618 1.589126,-13.266658 2.718578,-5.58916 l 0.12987,0.982733 0.05889,1.05375 m -4.008586,1.855668 c -0.539782,1.759212 -0.154387,-3.627902 0.589591,-0.608751 0.08705,7.163971 -3.127958,-1.534321 -0.589591,-2.634384 2.395893,-0.09071 1.033785,10.516294 -0.898752,6.795812 -2.510935,-4.701618 1.589126,-13.266658 2.718578,-5.58916 l 0.12987,0.982733 0.05889,1.05375 m -4.008586,2.596816 c -0.539782,1.759212 -0.154387,-3.627902 0.589591,-0.608751 0.08705,7.163971 -3.127958,-1.534321 -0.589591,-2.634384 2.395893,-0.09071 1.033785,10.516294 -0.898752,6.795812 -2.510935,-4.701618 1.589126,-13.266658 2.718578,-5.58916 l 0.12987,0.982733 0.05889,1.05375 m -4.008586,2.656891 c -0.539782,1.759212 -0.154387,-3.627902 0.589591,-0.608751 0.08705,7.163971 -3.127958,-1.534321 -0.589591,-2.634384 2.395893,-0.09071 1.033785,10.516294 -0.898752,6.795812 -2.510935,-4.701618 1.589126,-13.266658 2.718578,-5.58916 l 0.12987,0.982733 0.05889,1.05375 m -4.008586,2.84375 c -0.539782,1.759212 -0.154387,-3.627902 0.589591,-0.608751 0.08705,7.163971 -3.127958,-1.534321 -0.589591,-2.634384 2.395893,-0.09071 1.033785,10.516294 -0.898752,6.795812 C 46.450257,34.81204 50.550318,26.247 51.67977,33.924498 l 0.12987,0.982733 0.05889,1.05375 m -4.008586,3.108846 c -0.539782,1.759212 -0.154387,-3.627902 0.589591,-0.608751 0.08705,7.163971 -3.127958,-1.534321 -0.589591,-2.634384 2.395893,-0.09071 1.033785,10.516294 -0.898752,6.795812 -2.510935,-4.701618 1.589126,-13.266658 2.718578,-5.58916 l 0.12987,0.982733 0.05889,1.05375 m -3.76814,4.390513 c -0.539782,1.759212 -0.154387,-3.627902 0.589591,-0.608751 0.08705,7.163971 -3.127958,-1.534321 -0.589591,-2.634384 2.395893,-0.09071 1.033785,10.516294 -0.898752,6.795812 -2.510935,-4.701618 1.589126,-13.266658 2.718578,-5.58916 l 0.12987,0.982733 0.05889,1.05375 M 96.859944,18.127295 c -0.539782,1.759212 -0.154387,-3.627902 0.589591,-0.608751 0.08705,7.163971 -3.127958,-1.534321 -0.589591,-2.634384 2.395893,-0.09071 1.033785,10.516294 -0.898752,6.795812 -2.510935,-4.701618 1.589126,-13.266658 2.718578,-5.58916 l 0.12987,0.982733 0.05889,1.05375 m -4.008586,0 c -0.539782,1.759212 -0.154387,-3.627902 0.589591,-0.608751 0.08705,7.163971 -3.127958,-1.534321 -0.589591,-2.634384 2.395893,-0.09071 1.033785,10.516294 -0.898752,6.795812 -2.510935,-4.701618 1.589126,-13.266658 2.718578,-5.58916 l 0.12987,0.982733 0.05889,1.05375 m -4.008586,-0.0241 c -0.539782,1.759212 -0.154387,-3.627902 0.589591,-0.608751 0.08705,7.163971 -3.127958,-1.534321 -0.589591,-2.634384 2.395893,-0.09071 1.033785,10.516294 -0.898752,6.795812 -2.510935,-4.701618 1.589126,-13.266658 2.718578,-5.58916 l 0.12987,0.982733 0.05889,1.05375 m -4.008586,0 c -0.539782,1.759212 -0.154387,-3.627902 0.589591,-0.608751 0.08705,7.163971 -3.127958,-1.534321 -0.589591,-2.634384 2.395893,-0.09071 1.033785,10.516294 -0.898752,6.795812 -2.510935,-4.701618 1.589126,-13.266658 2.718578,-5.58916 l 0.12987,0.982733 0.05889,1.05375 m -4.008586,-0.0964 c -0.539782,1.759212 -0.154387,-3.627902 0.589591,-0.608751 0.08705,7.163971 -3.127958,-1.534321 -0.589591,-2.634384 2.395893,-0.09071 1.033785,10.516294 -0.898752,6.795812 -2.510935,-4.701618 1.589126,-13.266658 2.718578,-5.58916 l 0.12987,0.982733 0.05889,1.05375 m -4.008586,-0.0482 c -0.539782,1.759212 -0.154387,-3.627902 0.589591,-0.608751 0.08705,7.163971 -3.127958,-1.534321 -0.589591,-2.634384 2.395893,-0.09071 1.033785,10.516294 -0.898752,6.795812 -2.510935,-4.701618 1.589126,-13.266658 2.718578,-5.58916 l 0.12987,0.982733 0.05889,1.05375 m -4.008586,-0.0723 c -0.539782,1.759212 -0.154387,-3.627902 0.589591,-0.608751 0.08705,7.163971 -3.127958,-1.534321 -0.589591,-2.634384 2.395893,-0.09071 1.033785,10.516294 -0.898752,6.795812 -2.510935,-4.701618 1.589126,-13.266658 2.718578,-5.58916 l 0.12987,0.982733 0.05889,1.05375 m -4.008586,0.0482 c -0.539782,1.759212 -0.154387,-3.627902 0.589591,-0.608751 0.08705,7.163971 -3.127958,-1.534321 -0.589591,-2.634384 2.395893,-0.09071 1.033785,10.516294 -0.898752,6.795812 -2.510935,-4.701618 1.589126,-13.266658 2.718578,-5.58916 l 0.12987,0.982733 0.05889,1.05375 m -4.008586,-0.0482 c -0.539782,1.759212 -0.154387,-3.627902 0.589591,-0.608751 0.08705,7.163971 -3.127958,-1.534321 -0.589591,-2.634384 2.395893,-0.09071 1.033785,10.516294 -0.898752,6.795812 -2.510935,-4.701618 1.589126,-13.266658 2.718578,-5.58916 l 0.12987,0.982733 0.05889,1.05375 m -4.008586,0 c -0.539782,1.759212 -0.154387,-3.627902 0.589591,-0.608751 0.08705,7.163971 -3.127958,-1.534321 -0.589591,-2.634384 2.395893,-0.09071 1.033785,10.516294 -0.898752,6.795812 -2.510935,-4.701618 1.589126,-13.266658 2.718578,-5.58916 l 0.12987,0.982733 0.05889,1.05375 m -4.008586,0 c -0.539782,1.759212 -0.154387,-3.627902 0.589591,-0.608751 0.08705,7.163971 -3.127958,-1.534321 -0.589591,-2.634384 2.395893,-0.09071 1.033785,10.516294 -0.898752,6.795812 -2.510935,-4.701618 1.589126,-13.266658 2.718578,-5.58916 l 0.12987,0.982733 0.05889,1.05375 m -3.747307,0 c -0.539782,1.759212 -0.154387,-3.627902 0.589591,-0.608751 0.08705,7.163971 -3.127958,-1.534321 -0.589591,-2.634384 2.395893,-0.09071 1.033785,10.516294 -0.898752,6.795812 -2.510935,-4.701618 1.589126,-13.266658 2.718578,-5.58916 l 0.12987,0.982733 0.05889,1.05375 m -3.840154,-0.0241 c -0.539782,1.759212 -0.154387,-3.627902 0.589591,-0.608751 0.08705,7.163971 -3.127958,-1.534321 -0.589591,-2.634384 2.395893,-0.09071 1.033785,10.516294 -0.898752,6.795812 -2.510935,-4.701618 1.589126,-13.266658 2.718578,-5.58916 l 0.12987,0.982733 0.05889,1.05375 m -3.816054,0.0723 c -0.539782,1.759212 -0.154387,-3.627902 0.589591,-0.608751 0.08705,7.163971 -3.127958,-1.534321 -0.589591,-2.634384 2.395893,-0.09071 1.033785,10.516294 -0.898752,6.795812 -2.510935,-4.701618 1.589126,-13.266658 2.718578,-5.58916 l 0.12987,0.982733 0.05889,1.05375 M 115.85994,30.46034 c -0.53978,1.759212 -0.15438,-3.627902 0.5896,-0.608751 0.087,7.163971 -3.12796,-1.534321 -0.5896,-2.634384 2.3959,-0.09071 1.03379,10.516294 -0.89875,6.795812 -2.51093,-4.701618 1.58913,-13.266658 2.71858,-5.58916 l 0.12987,0.982733 0.0589,1.05375 m -4.0086,-1 c -0.53978,1.759212 -0.15438,-3.627902 0.5896,-0.608751 0.087,7.163971 -3.12796,-1.534321 -0.5896,-2.634384 2.3959,-0.09071 1.03379,10.516294 -0.89875,6.795812 -2.51093,-4.701618 1.58913,-13.266658 2.71858,-5.58916 l 0.12987,0.982733 0.0589,1.05375 m -4.0086,-1 c -0.53978,1.759212 -0.15438,-3.627902 0.5896,-0.608751 0.087,7.163971 -3.12796,-1.534321 -0.5896,-2.634384 2.3959,-0.09071 1.03379,10.516294 -0.89875,6.795812 -2.51093,-4.701618 1.58913,-13.266658 2.71858,-5.58916 l 0.12987,0.982733 0.0589,1.05375 m -4.0086,-1 c -0.53978,1.759212 -0.15438,-3.627902 0.5896,-0.608751 0.087,7.163971 -3.12796,-1.534321 -0.5896,-2.634384 2.3959,-0.09071 1.03379,10.516294 -0.89875,6.795812 -2.51093,-4.701618 1.58913,-13.266658 2.71858,-5.58916 l 0.12987,0.982733 0.0589,1.05375 m -4.0086,-1 c -0.53978,1.759212 -0.15438,-3.627902 0.5896,-0.608751 0.087,7.163971 -3.12796,-1.534321 -0.5896,-2.634384 2.3959,-0.09071 1.03379,10.516294 -0.89875,6.795812 -2.51093,-4.701618 1.58913,-13.266658 2.71858,-5.58916 l 0.12987,0.982733 0.0589,1.05375 m -4.0086,0 c -0.53978,1.759212 -0.15438,-3.627902 0.5896,-0.608751 0.087,7.163971 -3.12796,-1.534321 -0.5896,-2.634384 2.3959,-0.09071 1.03379,10.516294 -0.89875,6.795812 -2.51093,-4.701618 1.58913,-13.266658 2.71858,-5.58916 l 0.12987,0.982733 0.0589,1.05375 m -4.0086,-1 c -0.53978,1.759212 -0.15438,-3.627902 0.5896,-0.608751 0.087,7.163971 -3.12796,-1.534321 -0.5896,-2.634384 2.3959,-0.09071 1.03379,10.516294 -0.89875,6.795812 -2.51093,-4.701618 1.58913,-13.266658 2.71858,-5.58916 l 0.12987,0.982733 0.0589,1.05375 m -4.0086,-1 c -0.53978,1.759212 -0.15438,-3.627902 0.5896,-0.608751 0.087,7.163971 -3.127963,-1.534321 -0.5896,-2.634384 2.3959,-0.09071 1.03379,10.516294 -0.89875,6.795812 -2.510933,-4.701618 1.58913,-13.266658 2.71858,-5.58916 l 0.12987,0.982733 0.0589,1.05375 m -4.008596,-1 c -0.539782,1.759212 -0.154387,-3.627902 0.589596,-0.608751 0.087,7.163971 -3.127963,-1.534321 -0.589596,-2.634384 2.395896,-0.09071 1.033786,10.516294 -0.898752,6.795812 -2.510935,-4.701618 1.589128,-13.266658 2.718578,-5.58916 l 0.12987,0.982733 0.0589,1.05375 m -4.008596,0 c -0.539782,1.759212 -0.154387,-3.627902 0.589591,-0.608751 0.08705,7.163971 -3.127958,-1.534321 -0.589591,-2.634384 2.395896,-0.09071 1.033785,10.516294 -0.898752,6.795812 -2.510935,-4.701618 1.589126,-13.266658 2.718578,-5.58916 l 0.12987,0.982733 0.05889,1.05375 m -4.008586,-1 c -0.539782,1.759212 -0.154387,-3.627902 0.589591,-0.608751 0.08705,7.163971 -3.127958,-1.534321 -0.589591,-2.634384 2.395893,-0.09071 1.033785,10.516294 -0.898752,6.795812 -2.510935,-4.701618 1.589126,-13.266658 2.718578,-5.58916 l 0.12987,0.982733 0.05889,1.05375 m -4.008586,0 c -0.539782,1.759212 -0.154387,-3.627902 0.589591,-0.608751 0.08705,7.163971 -3.127958,-1.534321 -0.589591,-2.634384 2.395893,-0.09071 1.033785,10.516294 -0.898752,6.795812 -2.510935,-4.701618 1.589126,-13.266658 2.718578,-5.58916 l 0.12987,0.982733 0.05889,1.05375 m -4.008586,0 c -0.539782,1.759212 -0.154387,-3.627902 0.589591,-0.608751 0.08705,7.163971 -3.127958,-1.534321 -0.589591,-2.634384 2.395893,-0.09071 1.033785,10.516294 -0.898752,6.795812 -2.510935,-4.701618 1.589126,-13.266658 2.718578,-5.58916 l 0.12987,0.982733 0.05889,1.05375 m -4.008586,0 c -0.539782,1.759212 -0.154387,-3.627902 0.589591,-0.608751 0.08705,7.163971 -3.127958,-1.534321 -0.589591,-2.634384 2.395893,-0.09071 1.033785,10.516294 -0.898752,6.795812 -2.510935,-4.701618 1.589126,-13.266658 2.718578,-5.58916 l 0.12987,0.982733 0.05889,1.05375 m -4.008586,0 c -0.539782,1.759212 -0.154387,-3.627902 0.589591,-0.608751 0.08705,7.163971 -3.127958,-1.534321 -0.589591,-2.634384 2.395893,-0.09071 1.033785,10.516294 -0.898752,6.795812 -2.510935,-4.701618 1.589126,-13.266658 2.718578,-5.58916 l 0.12987,0.982733 0.05889,1.05375 m -4.008586,0 c -0.539782,1.759212 -0.154387,-3.627902 0.589591,-0.608751 0.08705,7.163971 -3.127958,-1.534321 -0.589591,-2.634384 2.395893,-0.09071 1.033785,10.516294 -0.898752,6.795812 -2.510935,-4.701618 1.589126,-13.266658 2.718578,-5.58916 l 0.12987,0.982733 0.05889,1.05375 m -4.008586,0 c -0.539782,1.759212 -0.154387,-3.627902 0.589591,-0.608751 0.08705,7.163971 -3.127958,-1.534321 -0.589591,-2.634384 2.395893,-0.09071 1.033785,10.516294 -0.898752,6.795812 -2.510935,-4.701618 1.589126,-13.266658 2.718578,-5.58916 l 0.12987,0.982733 0.05889,1.05375 m -4.008586,0 c -0.539782,1.759212 -0.154387,-3.627902 0.589591,-0.608751 0.08705,7.163971 -3.127958,-1.534321 -0.589591,-2.634384 2.395893,-0.09071 1.033785,10.516294 -0.898752,6.795812 -2.510935,-4.701618 1.589126,-13.266658 2.718578,-5.58916 l 0.12987,0.982733 0.05889,1.05375 m -4.008586,0 c -0.539782,1.759212 -0.154387,-3.627902 0.589591,-0.608751 0.08705,7.163971 -3.127958,-1.534321 -0.589591,-2.634384 2.395893,-0.09071 1.033785,10.516294 -0.898752,6.795812 -2.510935,-4.701618 1.589126,-13.266658 2.718578,-5.58916 l 0.12987,0.982733 0.05889,1.05375 m -4.008586,0 c -0.539782,1.759212 -0.154387,-3.627902 0.589591,-0.608751 0.08705,7.163971 -3.127958,-1.534321 -0.589591,-2.634384 2.395893,-0.09071 1.033785,10.516294 -0.898752,6.795812 -2.510935,-4.701618 1.589126,-13.266658 2.718578,-5.58916 l 0.12987,0.982733 0.05889,1.05375 m -4.008586,0 c -0.539782,1.759212 -0.154387,-3.627902 0.589591,-0.608751 0.08705,7.163971 -3.127958,-1.534321 -0.589591,-2.634384 2.395893,-0.09071 1.033785,10.516294 -0.898752,6.795812 -2.510935,-4.701618 1.589126,-13.266658 2.718578,-5.58916 l 0.12987,0.982733 0.05889,1.05375 m -4.008586,0 c -0.539782,1.759212 -0.154387,-3.627902 0.589591,-0.608751 0.08705,7.163971 -3.127958,-1.534321 -0.589591,-2.634384 2.395893,-0.09071 1.033785,10.516294 -0.898752,6.795812 -2.510935,-4.701618 1.589126,-13.266658 2.718578,-5.58916 l 0.12987,0.982733 0.05889,1.05375 m -4.008586,0 c -0.539782,1.759212 -0.154387,-3.627902 0.589591,-0.608751 0.08705,7.163971 -3.127958,-1.534321 -0.589591,-2.634384 2.395893,-0.09071 1.033785,10.516294 -0.898752,6.795812 -2.510935,-4.701618 1.589126,-13.266658 2.718578,-5.58916 l 0.12987,0.982733 0.05889,1.05375 m -4.008586,1 c -0.539782,1.759212 -0.154387,-3.627902 0.589591,-0.608751 0.08705,7.163971 -3.127958,-1.534321 -0.589591,-2.634384 2.395893,-0.09071 1.033785,10.516294 -0.898752,6.795812 -2.510935,-4.701618 1.589126,-13.266658 2.718578,-5.58916 l 0.12987,0.982733 0.05889,1.05375 m -4.008586,1 c -0.539782,1.759212 -0.154387,-3.627902 0.589591,-0.608751 0.08705,7.163971 -3.127958,-1.534321 -0.589591,-2.634384 2.395893,-0.09071 1.033785,10.516294 -0.898752,6.795812 -2.510935,-4.701618 1.589126,-13.266658 2.718578,-5.58916 l 0.12987,0.982733 0.05889,1.05375 m -4.008586,1 c -0.539782,1.759212 -0.154387,-3.627902 0.589591,-0.608751 0.08705,7.163971 -3.127958,-1.534321 -0.589591,-2.634384 2.395893,-0.09071 1.033785,10.516294 -0.898752,6.795812 -2.510935,-4.701618 1.589126,-13.266658 2.718578,-5.58916 l 0.12987,0.982733 0.05889,1.05375 m -4.008586,1 c -0.539782,1.759212 -0.154387,-3.627902 0.589591,-0.608751 0.08705,7.163971 -3.127958,-1.534321 -0.589591,-2.634384 2.395893,-0.09071 1.033785,10.516294 -0.898752,6.795812 -2.510935,-4.701618 1.589126,-13.266658 2.718578,-5.58916 l 0.12987,0.982733 0.05889,1.05375 m -4.008586,1 c -0.539782,1.759212 -0.154387,-3.627902 0.589591,-0.608751 0.08705,7.163971 -3.127958,-1.534321 -0.589591,-2.634384 2.395893,-0.09071 1.033785,10.516294 -0.898752,6.795812 -2.510935,-4.701618 1.589126,-13.266658 2.718578,-5.58916 l 0.12987,0.982733 0.05889,1.05375 m -4.008586,2 c -0.539782,1.759212 -0.154387,-3.627902 0.589591,-0.608751 0.08705,7.163971 -3.127958,-1.534321 -0.589591,-2.634384 2.395893,-0.09071 1.033785,10.516294 -0.898752,6.795812 -2.510935,-4.701618 1.589126,-13.266658 2.718578,-5.58916 l 0.12987,0.982733 0.05889,1.05375 m -4.008586,2 c -0.539782,1.759212 -0.154387,-3.627902 0.589591,-0.608751 0.08705,7.163971 -3.127958,-1.534321 -0.589591,-2.634384 2.395893,-0.09071 1.033785,10.516294 -0.898752,6.795812 -2.510935,-4.701618 1.589126,-13.266658 2.718578,-5.58916 l 0.12987,0.982733 0.05889,1.05375 m -4.008586,2 c -0.539782,1.759212 -0.154387,-3.627902 0.589591,-0.608751 0.08705,7.163971 -3.127958,-1.534321 -0.589591,-2.634384 2.395893,-0.09071 1.033785,10.516294 -0.898752,6.795812 -2.510935,-4.701618 1.589126,-13.266658 2.718578,-5.58916 l 0.12987,0.982733 0.05889,1.05375 m -4.008586,2 c -0.539782,1.759212 -0.154387,-3.627902 0.589591,-0.608751 0.08705,7.163971 -3.127958,-1.534321 -0.589591,-2.634384 2.395893,-0.09071 1.033785,10.516294 -0.898752,6.795812 -2.510935,-4.701618 1.589126,-13.266658 2.718578,-5.58916 l 0.12987,0.982733 0.05889,1.05375 m -4.008586,2 c -0.539782,1.759212 -0.154387,-3.627902 0.589591,-0.608751 0.08705,7.163971 -3.127958,-1.534321 -0.589591,-2.634384 2.395893,-0.09071 1.033785,10.516294 -0.898752,6.795812 -2.510935,-4.701618 1.589126,-13.266658 2.718578,-5.58916 l 0.12987,0.982733 0.05889,1.05375 m -4.008586,3 c -0.539782,1.759212 -0.154387,-3.627902 0.589591,-0.608751 0.08705,7.163971 -3.127958,-1.534321 -0.589591,-2.634384 2.395893,-0.09071 1.033785,10.516294 -0.898752,6.795812 -2.510935,-4.701618 1.589126,-13.266658 2.718578,-5.58916 l 0.12987,0.982733 0.05889,1.05375 m -4.008586,3 c -0.539782,1.759212 -0.154387,-3.627902 0.589591,-0.608751 0.08705,7.163971 -3.127958,-1.534321 -0.589591,-2.634384 2.395893,-0.09071 1.033785,10.516294 -0.898752,6.795812 -2.510935,-4.701618 1.589126,-13.266658 2.718578,-5.58916 l 0.12987,0.982733 0.05889,1.05375 m 68.99141,-8 c -0.53978,1.759212 -0.15438,-3.627902 0.5896,-0.608751 0.087,7.163971 -3.12796,-1.534321 -0.5896,-2.634384 2.3959,-0.09071 1.03379,10.516294 -0.89875,6.795812 -2.51093,-4.701618 1.58913,-13.266658 2.71858,-5.58916 l 0.12987,0.982733 0.0589,1.05375 m -4.0086,-3 c -0.53978,1.759212 -0.15438,-3.627902 0.5896,-0.608751 0.087,7.163971 -3.12796,-1.534321 -0.5896,-2.634384 2.3959,-0.09071 1.03379,10.516294 -0.89875,6.795812 -2.51093,-4.701618 1.58913,-13.266658 2.71858,-5.58916 l 0.12987,0.982733 0.0589,1.05375 m -4.0086,-3 c -0.53978,1.759212 -0.15438,-3.627902 0.5896,-0.608751 0.087,7.163971 -3.12796,-1.534321 -0.5896,-2.634384 2.3959,-0.09071 1.03379,10.516294 -0.89875,6.795812 -2.51093,-4.701618 1.58913,-13.266658 2.71858,-5.58916 l 0.12987,0.982733 0.0589,1.05375 m -4.0086,-2 c -0.53978,1.759212 -0.15438,-3.627902 0.5896,-0.608751 0.087,7.163971 -3.12796,-1.534321 -0.5896,-2.634384 2.3959,-0.09071 1.03379,10.516294 -0.89875,6.795812 -2.51093,-4.701618 1.58913,-13.266658 2.71858,-5.58916 l 0.12987,0.982733 0.0589,1.05375 m -4.0086,-2 c -0.53978,1.759212 -0.15438,-3.627902 0.5896,-0.608751 0.087,7.163971 -3.12796,-1.534321 -0.5896,-2.634384 2.3959,-0.09071 1.03379,10.516294 -0.89875,6.795812 -2.51093,-4.701618 1.58913,-13.266658 2.71858,-5.58916 l 0.12987,0.982733 0.0589,1.05375 m -4.0086,-2 c -0.53978,1.759212 -0.15438,-3.627902 0.5896,-0.608751 0.087,7.163971 -3.12796,-1.534321 -0.5896,-2.634384 2.3959,-0.09071 1.03379,10.516294 -0.89875,6.795812 -2.51093,-4.701618 1.58913,-13.266658 2.71858,-5.58916 l 0.12987,0.982733 0.0589,1.05375 m -4.0086,-2 c -0.53978,1.759212 -0.15438,-3.627902 0.5896,-0.608751 0.087,7.163971 -3.12796,-1.534321 -0.5896,-2.634384 2.3959,-0.09071 1.03379,10.516294 -0.89875,6.795812 -2.51093,-4.701618 1.58913,-13.266658 2.71858,-5.58916 l 0.12987,0.982733 0.0589,1.05375 m -4.0086,-1 c -0.53978,1.759212 -0.15438,-3.627902 0.5896,-0.608751 0.087,7.163971 -3.12796,-1.534321 -0.5896,-2.634384 2.3959,-0.09071 1.03379,10.516294 -0.89875,6.795812 -2.51093,-4.701618 1.58913,-13.266658 2.71858,-5.58916 l 0.12987,0.982733 0.0589,1.05375 m -4.0086,-2 c -0.53978,1.759212 -0.15438,-3.627902 0.5896,-0.608751 0.087,7.163971 -3.12796,-1.534321 -0.5896,-2.634384 2.3959,-0.09071 1.03379,10.516294 -0.89875,6.795812 -2.510933,-4.701618 1.58913,-13.266658 2.71858,-5.58916 l 0.12987,0.982733 0.0589,1.05375 m -4.0086,-1 c -0.53978,1.759212 -0.15438,-3.627902 0.5896,-0.608751 0.087,7.163971 -3.127963,-1.534321 -0.5896,-2.634384 2.3959,-0.09071 1.03379,10.516294 -0.898748,6.795812 -2.510935,-4.701618 1.589128,-13.266658 2.718578,-5.58916 l 0.12987,0.982733 0.0589,1.05375 m -4.008596,-0.999999 c -0.539782,1.759212 -0.154387,-3.627902 0.589591,-0.608751 0.08705,7.163971 -3.127958,-1.534321 -0.589591,-2.634384 2.395896,-0.09071 1.033785,10.516294 -0.898752,6.795812 -2.510935,-4.701618 1.589126,-13.266658 2.718578,-5.58916 l 0.12987,0.982733 0.0589,1.05375 m -4.008596,0 c -0.539782,1.759212 -0.154387,-3.627902 0.589591,-0.608751 0.08705,7.163971 -3.127958,-1.534321 -0.589591,-2.634384 2.395893,-0.09071 1.033785,10.516294 -0.898752,6.795812 C 93.450257,15.3114 97.550318,6.74636 98.67977,14.423858 l 0.12987,0.982733 0.05889,1.05375 m -4.008586,-1 c -0.539782,1.759212 -0.154387,-3.627902 0.589591,-0.608751 0.08705,7.163971 -3.127958,-1.534321 -0.589591,-2.634384 2.395893,-0.09071 1.033785,10.516294 -0.898752,6.795812 C 91.450257,14.3114 95.550318,5.74636 96.67977,13.423858 l 0.12987,0.982733 0.05889,1.05375 m -4.008586,-1 c -0.539782,1.759212 -0.154387,-3.627902 0.589591,-0.608751 0.08705,7.163971 -3.127958,-1.534321 -0.589591,-2.634384 2.395893,-0.09071 1.033785,10.516294 -0.898752,6.795812 C 89.450257,13.3114 93.550318,4.74636 94.67977,12.423858 l 0.12987,0.982733 0.05889,1.05375 m -4.008586,0 c -0.539782,1.759212 -0.154387,-3.627902 0.589591,-0.608751 0.08705,7.163971 -3.127958,-1.534321 -0.589591,-2.634384 2.395893,-0.09071 1.033785,10.516294 -0.898752,6.795812 C 87.450257,13.3114 91.550318,4.74636 92.67977,12.423858 l 0.12987,0.982733 0.05889,1.05375 m -4.008586,-1 c -0.539782,1.759212 -0.154387,-3.6279016 0.589591,-0.608751 0.08705,7.163971 -3.127958,-1.534321 -0.589591,-2.634384 2.395893,-0.09071 1.033785,10.516294 -0.898752,6.795812 C 85.450257,12.3114 89.550318,3.74636 90.67977,11.423858 l 0.12987,0.982733 0.05889,1.05375 m -4.008586,0 c -0.539782,1.759212 -0.154387,-3.6279016 0.589591,-0.608751 0.08705,7.163971 -3.127958,-1.534321 -0.589591,-2.634384 2.395893,-0.09071 1.033785,10.516294 -0.898752,6.795812 C 83.450257,12.3114 87.550318,3.74636 88.67977,11.423858 l 0.12987,0.982733 0.05889,1.05375 m -4.008586,0 c -0.539782,1.759212 -0.154387,-3.6279016 0.589591,-0.608751 0.08705,7.163971 -3.127958,-1.534321 -0.589591,-2.634384 2.395893,-0.09071 1.033785,10.516294 -0.898752,6.795812 C 81.450257,12.3114 85.550318,3.74636 86.67977,11.423858 l 0.12987,0.982733 0.05889,1.05375 m -4.008586,0 c -0.539782,1.759212 -0.154387,-3.6279016 0.589591,-0.608751 0.08705,7.163971 -3.127958,-1.534321 -0.589591,-2.634384 2.395893,-0.09071 1.033785,10.516294 -0.898752,6.795812 C 79.450257,12.3114 83.550318,3.74636 84.67977,11.423858 l 0.12987,0.982733 0.05889,1.05375 m -4.008586,0 c -0.539782,1.759212 -0.154387,-3.6279016 0.589591,-0.608751 0.08705,7.163971 -3.127958,-1.534321 -0.589591,-2.634384 2.395893,-0.09071 1.033785,10.516294 -0.898752,6.795812 C 77.450257,12.3114 81.550318,3.74636 82.67977,11.423858 l 0.12987,0.982733 0.05889,1.05375 m -4.008586,0 c -0.539782,1.759212 -0.154387,-3.6279016 0.589591,-0.608751 0.08705,7.163971 -3.127958,-1.534321 -0.589591,-2.634384 2.395893,-0.09071 1.033785,10.516294 -0.898752,6.795812 C 75.450257,12.3114 79.550318,3.74636 80.67977,11.423858 l 0.12987,0.982733 0.05889,1.05375 m -4.008586,0 c -0.539782,1.759212 -0.154387,-3.6279016 0.589591,-0.608751 0.08705,7.163971 -3.127958,-1.534321 -0.589591,-2.634384 2.395893,-0.09071 1.033785,10.516294 -0.898752,6.795812 C 73.450257,12.3114 77.550318,3.74636 78.67977,11.423858 l 0.12987,0.982733 0.05889,1.05375 m -4.008586,1 c -0.539782,1.759212 -0.154387,-3.627902 0.589591,-0.608751 0.08705,7.163971 -3.127958,-1.534321 -0.589591,-2.634384 2.395893,-0.09071 1.033785,10.516294 -0.898752,6.795812 C 71.450257,13.3114 75.550318,4.74636 76.67977,12.423858 l 0.12987,0.982733 0.05889,1.05375 m -4.008586,0 c -0.539782,1.759212 -0.154387,-3.627902 0.589591,-0.608751 0.08705,7.163971 -3.127958,-1.534321 -0.589591,-2.634384 2.395893,-0.09071 1.033785,10.516294 -0.898752,6.795812 C 69.450257,13.3114 73.550318,4.74636 74.67977,12.423858 l 0.12987,0.982733 0.05889,1.05375 m -4.008586,1 c -0.539782,1.759212 -0.154387,-3.627902 0.589591,-0.608751 0.08705,7.163971 -3.127958,-1.534321 -0.589591,-2.634384 2.395893,-0.09071 1.033785,10.516294 -0.898752,6.795812 C 67.450257,14.3114 71.550318,5.74636 72.67977,13.423858 l 0.12987,0.982733 0.05889,1.05375 m -4.008586,1 c -0.539782,1.759212 -0.154387,-3.627902 0.589591,-0.608751 0.08705,7.163971 -3.127958,-1.534321 -0.589591,-2.634384 2.395893,-0.09071 1.033785,10.516294 -0.898752,6.795812 C 65.450257,15.3114 69.550318,6.74636 70.67977,14.423858 l 0.12987,0.982733 0.05889,1.05375 m -4.008586,0.999999 c -0.539782,1.759212 -0.154387,-3.627902 0.589591,-0.608751 0.08705,7.163971 -3.127958,-1.534321 -0.589591,-2.634384 2.395893,-0.09071 1.033785,10.516294 -0.898752,6.795812 -2.510935,-4.701618 1.589126,-13.266658 2.718578,-5.58916 l 0.12987,0.982733 0.05889,1.05375 m -4.008586,1 c -0.539782,1.759212 -0.154387,-3.627902 0.589591,-0.608751 0.08705,7.163971 -3.127958,-1.534321 -0.589591,-2.634384 2.395893,-0.09071 1.033785,10.516294 -0.898752,6.795812 -2.510935,-4.701618 1.589126,-13.266658 2.718578,-5.58916 l 0.12987,0.982733 0.05889,1.05375 m -4.008586,1 c -0.539782,1.759212 -0.154387,-3.627902 0.589591,-0.608751 0.08705,7.163971 -3.127958,-1.534321 -0.589591,-2.634384 2.395893,-0.09071 1.033785,10.516294 -0.898752,6.795812 -2.510935,-4.701618 1.589126,-13.266658 2.718578,-5.58916 l 0.12987,0.982733 0.05889,1.05375 m -4.008586,2 c -0.539782,1.759212 -0.154387,-3.627902 0.589591,-0.608751 0.08705,7.163971 -3.127958,-1.534321 -0.589591,-2.634384 2.395893,-0.09071 1.033785,10.516294 -0.898752,6.795812 -2.510935,-4.701618 1.589126,-13.266658 2.718578,-5.58916 l 0.12987,0.982733 0.05889,1.05375 m -4.008586,1 c -0.539782,1.759212 -0.154387,-3.627902 0.589591,-0.608751 0.08705,7.163971 -3.127958,-1.534321 -0.589591,-2.634384 2.395893,-0.09071 1.033785,10.516294 -0.898752,6.795812 -2.510935,-4.701618 1.589126,-13.266658 2.718578,-5.58916 l 0.12987,0.982733 0.05889,1.05375 m -4.008586,2 c -0.539782,1.759212 -0.154387,-3.627902 0.589591,-0.608751 0.08705,7.163971 -3.127958,-1.534321 -0.589591,-2.634384 2.395893,-0.09071 1.033785,10.516294 -0.898752,6.795812 -2.510935,-4.701618 1.589126,-13.266658 2.718578,-5.58916 l 0.12987,0.982733 0.05889,1.05375 m -3.868783,1.539619 c -0.539782,1.759212 -0.154387,-3.627902 0.589591,-0.608751 0.08705,7.163971 -3.127958,-1.534321 -0.589591,-2.634384 2.395893,-0.09071 1.033785,10.516294 -0.898752,6.795812 -2.510935,-4.701618 1.589126,-13.266658 2.718578,-5.58916 l 0.12987,0.982733 0.05889,1.05375 m -4.008586,2 c -0.539782,1.759212 -0.154387,-3.627902 0.589591,-0.608751 0.08705,7.163971 -3.127958,-1.534321 -0.589591,-2.634384 2.395893,-0.09071 1.033785,10.516294 -0.898752,6.795812 -2.510935,-4.701618 1.589126,-13.266658 2.718578,-5.58916 l 0.12987,0.982733 0.05889,1.05375 m -4.008586,3 c -0.539782,1.759212 -0.154387,-3.627902 0.589591,-0.608751 0.08705,7.163971 -3.127958,-1.534321 -0.589591,-2.634384 2.395893,-0.09071 1.033785,10.516294 -0.898752,6.795812 -2.510935,-4.701618 1.589126,-13.266658 2.718578,-5.58916 l 0.12987,0.982733 0.05889,1.05375 m -4.008586,3.490948 c -0.539782,1.759212 -0.154387,-3.627902 0.589591,-0.608751 0.08705,7.163971 -3.127958,-1.534321 -0.589591,-2.634384 2.395893,-0.09071 1.033785,10.516294 -0.898752,6.795812 -2.510935,-4.701618 1.589126,-13.266658 2.718578,-5.58916 l 0.12987,0.982733 0.05889,1.05375 m -4.008586,4.509052 c -0.539782,1.759212 -0.154387,-3.627902 0.589591,-0.608751 0.08705,7.163971 -3.127958,-1.534321 -0.589591,-2.634384 2.395893,-0.09071 1.033785,10.516294 -0.898752,6.795812 -2.510935,-4.701618 1.589126,-13.266658 2.718578,-5.58916 l 0.12987,0.982733 0.05889,1.05375 m -4.008586,4 c -0.539782,1.759212 -0.154387,-3.627902 0.589591,-0.608751 0.08705,7.163971 -3.127958,-1.534321 -0.589591,-2.634384 2.395893,-0.09071 1.033785,10.516294 -0.898752,6.795812 -2.510935,-4.701618 1.589126,-13.266658 2.718578,-5.58916 l 0.12987,0.982733 0.05889,1.05375" />
  <path
     style="fill:#ffd42a;stroke:#000000;stroke-width:1px;stroke-linecap:butt;stroke-linejoin:miter;stroke-opacity:1"
     d="m 55,102 c 17.333333,0 34.666667,0 52,0 0,1 0,2 0,3 -1,0 -2,0 -3,0 -0.86655,1.37753 -1.8301,2.71774 -2.13795,4.35613 -0.81405,2.92892 -1.986991,5.78374 -2.272851,8.83058 C 94.197344,117.80555 88.809939,117.30732 83.415277,117 81.943518,117 80.471759,117 79,117 c -0.930931,1.21462 -2.048369,2.35834 -2.863868,3.61684 -0.03171,0.76106 -0.06342,1.52211 -0.09513,2.28316 -4.9,0 -9.8,0 -14.7,0 -2.56578,-3.99619 -5.833116,-7.67759 -7.114179,-12.34662 -0.722034,-2.49118 -0.550815,-5.16583 0.438839,-7.55036 C 54.777107,102.66868 54.888553,102.33434 55,102 Z"
     id="path18634"
     inkscape:connector-curvature="0" />
  <path
     id="path6998-82-2-4"
     style="opacity:1;fill:#000000;fill-opacity:1;stroke:#000000;stroke-width:0.5;stroke-linejoin:round;stroke-miterlimit:4;stroke-dasharray:none;stroke-opacity:1"
     d="m 88.940374,107.41716 c 0.485181,-0.45054 0.426785,-3.4743 0.24969,-1.78411 0.09116,-1.41077 -0.165595,1.7804 -0.86337,2.00717 -0.694263,2.0054 -3.582151,1.49759 -3.85575,3.88118 -0.316993,0.8243 -0.342829,3.33871 -0.151975,1.82212 0.01029,1.45737 -0.08648,-1.07699 0.641725,-2.02694 1.022576,-1.70813 3.528501,-1.54826 3.97922,-3.90025 z m 13.999996,-3 c 0.48518,-0.45054 0.42679,-3.4743 0.24969,-1.78411 0.0912,-1.41077 -0.1656,1.7804 -0.86337,2.00717 -0.69426,2.00539 -3.582147,1.49759 -3.855746,3.88118 -0.316993,0.8243 -0.342829,3.33871 -0.151975,1.82212 0.01029,1.45737 -0.08648,-1.07699 0.641725,-2.02694 1.022574,-1.70813 3.528496,-1.54826 3.979216,-3.90025 z m -5.999996,6 c 0.485181,-0.45054 0.426785,-3.4743 0.24969,-1.78411 0.09116,-1.41077 -0.165595,1.7804 -0.86337,2.00717 -0.694263,2.0054 -3.582151,1.49759 -3.85575,3.88118 -0.316993,0.8243 -0.342829,3.33871 -0.151975,1.82212 0.01029,1.45737 -0.08648,-1.07699 0.641725,-2.02694 1.022576,-1.70813 3.528501,-1.54826 3.97922,-3.90025 z m 1,-6 c 0.485181,-0.45054 0.426785,-3.4743 0.24969,-1.78411 0.09116,-1.41077 -0.165595,1.7804 -0.86337,2.00717 -0.694263,2.0054 -3.582151,1.49759 -3.85575,3.88118 -0.316993,0.8243 -0.342829,3.33871 -0.151975,1.82212 0.01029,1.45737 -0.08648,-1.07699 0.641725,-2.02694 1.022576,-1.70813 3.528501,-1.54826 3.97922,-3.90025 z m -6,6 c 0.485181,-0.45054 0.426785,-3.4743 0.24969,-1.78411 0.09116,-1.41077 -0.165595,1.7804 -0.86337,2.00717 -0.694263,2.0054 -3.582151,1.49759 -3.85575,3.88118 -0.316993,0.8243 -0.342829,3.33871 -0.151975,1.82212 0.01029,1.45737 -0.08648,-1.07699 0.641725,-2.02694 1.022576,-1.70813 3.528501,-1.54826 3.97922,-3.90025 z m -12.521703,-2.15153 c -0.632761,-0.19491 -3.222198,1.36755 -1.66992,0.67581 -1.267368,0.62642 1.624643,-0.7468 2.16992,-0.2559 2.083867,-0.40146 3.088004,2.35343 5.28906,1.39861 0.872435,-0.13749 3.06275,-1.37249 1.653958,-0.77936 1.256715,-0.73824 -0.889469,0.61332 -2.076248,0.45744 -1.990542,-0.0315 -3.10489,-2.28177 -5.36719,-1.49606 z m -7,-4 c -0.632761,-0.19491 -3.222198,1.36755 -1.66992,0.67581 -1.267368,0.62642 1.624643,-0.7468 2.16992,-0.2559 2.083867,-0.40146 3.088004,2.35343 5.28906,1.39861 0.872428,-0.13751 3.062801,-1.37249 1.654058,-0.77936 1.256715,-0.73824 -0.889469,0.61332 -2.076248,0.45744 -1.990542,-0.0315 -3.10489,-2.28177 -5.36719,-1.49606 z m -14,10 c -0.632761,-0.19491 -3.222198,1.36755 -1.66992,0.67581 -1.267368,0.62642 1.624643,-0.7468 2.16992,-0.2559 2.083867,-0.40146 3.088004,2.35343 5.28906,1.39861 0.872428,-0.13751 3.062801,-1.37249 1.654058,-0.77936 1.256715,-0.73824 -0.889469,0.61332 -2.076248,0.45744 -1.990542,-0.0315 -3.10489,-2.28177 -5.36719,-1.49606 z m 11,-2 c -0.632761,-0.19491 -3.222198,1.36755 -1.66992,0.67581 -1.267368,0.62642 1.624643,-0.7468 2.16992,-0.2559 2.083867,-0.40146 3.088004,2.35343 5.28906,1.39861 0.872428,-0.13751 3.062801,-1.37249 1.654058,-0.77936 1.256715,-0.73824 -0.889469,0.61332 -2.076248,0.45744 -1.990542,-0.0315 -3.10489,-2.28177 -5.36719,-1.49606 z m -7,-4 c -0.632761,-0.19491 -3.222198,1.36755 -1.66992,0.67581 -1.267368,0.62642 1.624643,-0.7468 2.16992,-0.2559 2.083867,-0.40146 3.088004,2.35343 5.28906,1.39861 0.872428,-0.13751 3.062801,-1.37249 1.654058,-0.77936 1.256715,-0.73824 -0.889469,0.61332 -2.076248,0.45744 -1.990542,-0.0315 -3.10489,-2.28177 -5.36719,-1.49606 z m -6,-4 c -0.63276,-0.19491 -3.222199,1.36755 -1.669922,0.67581 -1.267376,0.62642 1.624648,-0.7468 2.169922,-0.2559 2.083867,-0.40146 3.088004,2.35343 5.28906,1.39861 0.872428,-0.13751 3.062801,-1.37249 1.654058,-0.77936 1.256715,-0.73824 -0.889469,0.61332 -2.076248,0.45744 -1.990542,-0.0315 -3.10489,-2.28177 -5.36719,-1.49606 z m 13,14 c -0.632761,-0.19491 -3.222198,1.36755 -1.66992,0.67581 -1.267368,0.62642 1.624643,-0.7468 2.16992,-0.2559 2.083867,-0.40146 3.088004,2.35343 5.28906,1.39861 0.872428,-0.13751 3.062801,-1.37249 1.654058,-0.77936 1.256715,-0.73824 -0.889469,0.61332 -2.076248,0.45744 -1.990542,-0.0315 -3.10489,-2.28177 -5.36719,-1.49606 z m -7,1 c -0.632761,-0.19491 -3.222198,1.36755 -1.66992,0.67581 -1.267368,0.62642 1.624643,-0.7468 2.16992,-0.2559 2.083867,-0.40146 3.088004,2.35343 5.28906,1.39861 0.872428,-0.13751 3.062801,-1.37249 1.654058,-0.77936 1.256715,-0.73824 -0.889469,0.61332 -2.076248,0.45744 -1.990542,-0.0315 -3.10489,-2.28177 -5.36719,-1.49606 z" />
</svg>
