<?xml version="1.0" encoding="UTF-8" standalone="no"?>
<svg
   xmlns:dc="http://purl.org/dc/elements/1.1/"
   xmlns:cc="http://creativecommons.org/ns#"
   xmlns:rdf="http://www.w3.org/1999/02/22-rdf-syntax-ns#"
   xmlns:svg="http://www.w3.org/2000/svg"
   xmlns="http://www.w3.org/2000/svg"
   xmlns:xlink="http://www.w3.org/1999/xlink"
   xmlns:sodipodi="http://sodipodi.sourceforge.net/DTD/sodipodi-0.dtd"
   xmlns:inkscape="http://www.inkscape.org/namespaces/inkscape"
   height="182"
   width="160"
   version="1.1"
   id="svg11617"
   sodipodi:docname="front-sitting.svg"
   inkscape:version="0.92.3 (2405546, 2018-03-11)">
  <metadata
     id="metadata11621">
    <rdf:RDF>
      <cc:Work
         rdf:about="">
        <dc:format>image/svg+xml</dc:format>
        <dc:type
           rdf:resource="http://purl.org/dc/dcmitype/StillImage" />
        <dc:title />
      </cc:Work>
    </rdf:RDF>
  </metadata>
  <sodipodi:namedview
     pagecolor="#ffffff"
     bordercolor="#666666"
     borderopacity="1"
     objecttolerance="10"
     gridtolerance="10"
     guidetolerance="10"
     inkscape:pageopacity="0"
     inkscape:pageshadow="2"
     inkscape:window-width="1903"
     inkscape:window-height="2096"
     id="namedview11619"
     showgrid="true"
     inkscape:pagecheckerboard="true"
     inkscape:zoom="7.3352615"
     inkscape:cx="94.057966"
     inkscape:cy="124.79597"
     inkscape:window-x="1296"
     inkscape:window-y="27"
     inkscape:window-maximized="0"
     inkscape:current-layer="svg11617">
    <inkscape:grid
       type="xygrid"
       id="grid12166" />
  </sodipodi:namedview>
  <defs
     id="defs11607">
    <path
       d="M.7-.3l1.85 2.2H1.5L.05.7-1.4 1.9h-1.05l1.9-2.2H.7"
       fill-rule="evenodd"
       transform="translate(2.45 .3)"
       id="a" />
    <use
       height="2.2"
       width="5"
       xlink:href="#a"
       id="c" />
    <g
       id="b">
      <path
         d="M-15.5-41.55q-2.65-3.1-2.5-7.1-.15-5.3 5.35-9.8Q-7.15-63.5.5-64q7.6.5 13.05 5.55 5.45 4.5 5.45 9.8 0 4-2.6 7.1h.1-.05l-2.6 3.1v.8l-.2-.95-.8.05.65 9.65h.15l.25.75.2.5.2.4-.15.45-.3.75-.2.35-.9.7h-.05l-.05 1.5h.05l-.05.5h-.05l-.05.45h.05l-.25 2.65h-1.8l-.75 1.55h5.4l1.15.4q.55.55.55 1.65 0 1.05-.55 1.6-.45.45-1.15.45H8.6v1.45l-4.5-.25.65-.5q.9-.9.9-2.75 0-1.9-.9-2.8-.8-.8-2.05-.8h-6.6v1.55h6.55q.7 0 1.15.4.55.55.55 1.65 0 1.05-.55 1.6-.45.45-1.15.45H-3.9v1.4l-6.55-.35-1.95-.4q-1.45-1.7-1.75-3.65l-.1-1.2.05-.95.55-1.85h.1v-.55l.15-.15V-24q.75.6 1.55.55l.25-.05q1.9.5 3-.85.4.2.2-.15 1-.75 1.25-2.4-.05-.7-.45-2l.45-6.3-1.35-.1-.5 6.45.15.05v.05h.05l.4 1.4q.15 1.45-.95 1.9-.55.9-2.1.6h-.5q-.6-.2-1.3-.85l-.2-.35v-2.1l.25-.75h.1l.7-9.65-.85-.05-.4-.05v-.15l-2.05-2.75h.2M-13.8-22l.05.1-.05-.1m3.75-6.45l-.05-.05v.05h.05"
         fill="#fff"
         fill-rule="evenodd"
         transform="translate(18.6 64.6)"
         id="path11598" />
      <path
         d="M13.85-37.65L14.5-34l.15 1.95.05-.05v.1l.2 2.65v.35h-.1v.1q.25.7.6 1.1-.05.25.15.3.3 1.6-.6 2.45l-.15.2q-.15-.05-.2.1l-.25.25-.55.5q-.55.4-1.1.5h-.05l.05-1.5h.05l.9-.7.2-.35.3-.75.15-.45-.2-.4-.2-.5-.25-.75h-.15l-.65-9.65.8-.05.2.95m-1.5 17.75h2.9q1.25 0 2.05.8.9.9.9 2.8 0 1.85-.9 2.75-.8.8-2.05.8H8.6v-1.5h6.6q.7 0 1.15-.45.55-.55.55-1.6 0-1.1-.55-1.65l-1.15-.4H9.8l.75-1.55h1.8M4.1-13.05l-1.3.3h-6.7v-1.5h6.55q.7 0 1.15-.45.55-.55.55-1.6 0-1.1-.55-1.65-.45-.4-1.15-.4H-3.9v-1.55h6.6q1.25 0 2.05.8.9.9.9 2.8 0 1.85-.9 2.75l-.65.5M-13.4-24l-.55-.5-.2-.25-.2-.1-.2-.2q-.9-.85-.55-2.45.15-.05.15-.3l.55-1.1.05-.1h-.1l-.05-.35h.05l.2-2.65v-.1l.05.05.1-1.95.85-4.6.85.05-.7 9.65h-.1l-.25.75-.25.5-.15.4.15.45.25.75.2.35q.7.65 1.3.85h.5q1.55.3 2.1-.6 1.1-.45.95-1.9l-.4-1.4h-.05v-.05l-.15-.05.5-6.45 1.35.1-.45 6.3q.4 1.3.45 2-.25 1.65-1.25 2.4.2.35-.2.15-1.1 1.35-3 .85l-.25.05q-.8.05-1.55-.55"
         fill-rule="evenodd"
         transform="translate(18.6 64.6)"
         id="path11600" />
      <path
         d="M3.1 23.05q-2.65-3.1-2.5-7.1-.15-5.3 5.35-9.8Q11.45 1.1 19.1.6q7.6.5 13.05 5.55 5.45 4.5 5.45 9.8 0 4-2.6 7.1"
         fill="none"
         stroke="#000"
         stroke-linecap="round"
         stroke-linejoin="round"
         stroke-width="1.2"
         id="path11602" />
      <path
         d="M5.4-44.05q.15.45.45.75l.7.25.95-.6q.4-.65.4-1.65 0-1.35-.9-3.25h1.05q.9 1.6.9 3.15 0 1.55-.65 2.4-.6.8-1.6.8-1.35 0-1.9-1.4-.6 1.4-1.9 1.4-1.05 0-1.65-.85Q.6-43.9.6-45.4q0-1.55.95-3.15h1q-.85 1.9-.85 3.25 0 1 .35 1.65.4.6.95.6.4 0 .7-.3l.45-.7.1-1.15V-47H5.3v1.8l.1 1.15"
         fill-rule="evenodd"
         transform="translate(18.6 64.6)"
         id="path11604" />
    </g>
  </defs>
  <path
     style="fill:#ffcc00;stroke:#806600;stroke-width:2.33162618;stroke-linecap:butt;stroke-linejoin:miter;stroke-miterlimit:4;stroke-dasharray:none;stroke-opacity:1"
     d="m 57.998255,29.219293 c 5.47314,-55.84749 9.997251,-10.623163 9.997251,-10.623163"
     id="path5268"
     inkscape:connector-curvature="0" />
  <path
     style="fill:#ffcc00;stroke:#806600;stroke-width:2.33162618;stroke-linecap:butt;stroke-linejoin:miter;stroke-miterlimit:4;stroke-dasharray:none;stroke-opacity:1"
     d="M 108.78393,29.219293 C 103.31079,-26.628197 98.786677,18.59613 98.786677,18.59613"
     id="path5268-3"
     inkscape:connector-curvature="0" />
  <g
     transform="matrix(2 0 0 2 82.341 144.2)"
     id="g11615">
    <use
       height="51.85"
       transform="translate(-18.6 -64.6)"
       width="38.2"
       xlink:href="#b"
       id="use11609" />
    <use
       height="2.2"
       transform="translate(10.35 -53.3)"
       width="5"
       xlink:href="#c"
       id="use11611" />
    <use
       height="2.2"
       transform="translate(-5.9 -53.3)"
       width="5"
       xlink:href="#c"
       id="use11613" />
  </g>
  <path
     id="path5357-574"
     style="fill:none;fill-rule:evenodd;stroke:#008000;stroke-width:0.41771439"
     d="m 58.114277,26.895148 c -0.539782,1.759212 -0.154387,-3.627902 0.589591,-0.608751 0.08705,7.163971 -3.127958,-1.534321 -0.589591,-2.634384 2.395893,-0.09071 1.033785,10.516294 -0.898752,6.795812 -2.510935,-4.701618 1.589126,-13.266658 2.718578,-5.58916 l 0.12987,0.982733 0.05889,1.05375 m -4.053503,0.903171 c -0.539782,1.759212 -0.154387,-3.627902 0.589591,-0.608751 0.08705,7.163971 -3.127958,-1.534321 -0.589591,-2.634384 2.395893,-0.09071 1.033785,10.516294 -0.898752,6.795812 -2.510935,-4.701618 1.589126,-13.266658 2.718578,-5.58916 l 0.12987,0.982733 0.05889,1.05375 M 47.859944,37.920658 c -0.539782,1.759212 -0.154387,-3.627902 0.589591,-0.608751 0.08705,7.163971 -3.127958,-1.534321 -0.589591,-2.634384 2.395893,-0.09071 1.033785,10.516294 -0.898752,6.795812 -2.510935,-4.701618 1.589126,-13.266658 2.718578,-5.58916 l 0.12987,0.982733 0.05889,1.05375 m 1.804259,-5.75985 c -0.539782,1.759212 -0.154387,-3.627902 0.589591,-0.608751 0.08705,7.163971 -3.127958,-1.534321 -0.589591,-2.634384 2.395893,-0.09071 1.033785,10.516294 -0.898752,6.795812 -2.510935,-4.701618 1.589126,-13.266658 2.718578,-5.58916 l 0.12987,0.982733 0.05889,1.05375 m -2.821431,1.124705 c -0.539782,1.759212 -0.154387,-3.627902 0.589591,-0.608751 0.08705,7.163971 -3.127958,-1.534321 -0.589591,-2.634384 2.395893,-0.09071 1.033785,10.516294 -0.898752,6.795812 -2.510935,-4.701618 1.589126,-13.266658 2.718578,-5.58916 l 0.12987,0.982733 0.05889,1.05375 m -3.308822,2.174719 c -0.539782,1.759212 -0.154387,-3.627902 0.589591,-0.608751 0.08705,7.163971 -3.127958,-1.534321 -0.589591,-2.634384 2.395893,-0.09071 1.033785,10.516294 -0.898752,6.795812 -2.510935,-4.701618 1.589126,-13.266658 2.718578,-5.58916 l 0.12987,0.982733 0.05889,1.05375 m 42.29165,-18.417526 c -0.539782,1.759212 -0.154387,-3.627902 0.589591,-0.608751 0.08705,7.163971 -3.127958,-1.534321 -0.589591,-2.634384 2.395893,-0.09071 1.033785,10.516294 -0.898752,6.795812 -2.510935,-4.701618 1.589126,-13.266658 2.718578,-5.58916 l 0.12987,0.982733 0.05889,1.05375 m -6.008586,-0.582473 c -0.539782,1.759212 -0.154387,-3.627902 0.589591,-0.608751 0.08705,7.163971 -3.127958,-1.534321 -0.589591,-2.634384 2.395893,-0.09071 1.033785,10.516294 -0.898752,6.795812 -2.510935,-4.701618 1.589126,-13.266658 2.718578,-5.58916 l 0.12987,0.982733 0.05889,1.05375 m -15.008586,0 c -0.539782,1.759212 -0.154387,-3.627902 0.589591,-0.608751 0.08705,7.163971 -3.127958,-1.534321 -0.589591,-2.634384 2.395893,-0.09071 1.033785,10.516294 -0.898752,6.795812 -2.510935,-4.701618 1.589126,-13.266658 2.718578,-5.58916 l 0.12987,0.982733 0.05889,1.05375 m 12.991414,0.437875 c -0.539782,1.759212 -0.154387,-3.627902 0.589591,-0.608751 0.08705,7.163971 -3.127958,-1.534321 -0.589591,-2.634384 2.395893,-0.09071 1.033785,10.516294 -0.898752,6.795812 -2.510935,-4.701618 1.589126,-13.266658 2.718578,-5.58916 l 0.12987,0.982733 0.05889,1.05375 m -5.347943,-0.144597 c -0.539782,1.759212 -0.154387,-3.627902 0.589591,-0.608751 0.08705,7.163971 -3.127958,-1.534321 -0.589591,-2.634384 2.395893,-0.09071 1.033785,10.516294 -0.898752,6.795812 C 85.1109,15.60457 89.210961,7.03953 90.340413,14.717028 l 0.12987,0.982733 0.05889,1.05375 m -3.960651,0.0241 c -0.539782,1.759212 -0.154387,-3.627902 0.589591,-0.608751 0.08705,7.163971 -3.127958,-1.534321 -0.589591,-2.634384 2.395893,-0.09071 1.033785,10.516294 -0.898752,6.795812 -2.510935,-4.701618 1.589126,-13.266658 2.718578,-5.58916 l 0.12987,0.982733 0.05889,1.05375 m -4.008851,-0.0241 c -0.539782,1.759212 -0.154387,-3.627902 0.589591,-0.608751 0.08705,7.163971 -3.127958,-1.534321 -0.589591,-2.634384 2.395893,-0.09071 1.033785,10.516294 -0.898752,6.795812 -2.510935,-4.701618 1.589126,-13.266658 2.718578,-5.58916 l 0.12987,0.982733 0.05889,1.05375 m -4.008851,0 c -0.539782,1.759212 -0.154387,-3.627902 0.589591,-0.608751 0.08705,7.163971 -3.127958,-1.534321 -0.589591,-2.634384 2.395893,-0.09071 1.033785,10.516294 -0.898752,6.795812 -2.510935,-4.701618 1.589126,-13.266658 2.718578,-5.58916 l 0.12987,0.982733 0.05889,1.05375 m -4.008851,-0.293278 c -0.539782,1.759212 -0.154387,-3.627902 0.589591,-0.608751 0.08705,7.163971 -3.127958,-1.534321 -0.589591,-2.634384 2.395893,-0.09071 1.033785,10.516294 -0.898752,6.795812 -2.510935,-4.701618 1.589126,-13.266658 2.718578,-5.58916 l 0.12987,0.982733 0.05889,1.05375 m -3.960651,0 c -0.539782,1.759212 -0.154387,-3.627902 0.589591,-0.608751 0.08705,7.163971 -3.127958,-1.534321 -0.589591,-2.634384 2.395893,-0.09071 1.033785,10.516294 -0.898752,6.795812 -2.510935,-4.701618 1.589126,-13.266658 2.718578,-5.58916 l 0.12987,0.982733 0.05889,1.05375 M 48.859944,41.460232 c -0.539782,1.759212 -0.154387,-3.627902 0.589591,-0.608751 0.08705,7.163971 -3.127958,-1.534321 -0.589591,-2.634384 2.395893,-0.09071 1.033785,10.516294 -0.898752,6.795812 -2.510935,-4.701618 1.589126,-13.266658 2.718578,-5.58916 l 0.12987,0.982733 0.05889,1.05375 m -0.0086,-3 c -0.539782,1.759212 -0.154387,-3.627902 0.589591,-0.608751 0.08705,7.163971 -3.127958,-1.534321 -0.589591,-2.634384 2.395893,-0.09071 1.033785,10.516294 -0.898752,6.795812 -2.510935,-4.701618 1.589126,-13.266658 2.718578,-5.58916 l 0.12987,0.982733 0.05889,1.05375 m -0.0086,-2 c -0.539782,1.759212 -0.154387,-3.627902 0.589591,-0.608751 0.08705,7.163971 -3.127958,-1.534321 -0.589591,-2.634384 2.395893,-0.09071 1.033785,10.516294 -0.898752,6.795812 -2.510935,-4.701618 1.589126,-13.266658 2.718578,-5.58916 l 0.12987,0.982733 0.05889,1.05375 m -0.0086,-2.620121 c -0.539782,1.759212 -0.154387,-3.627902 0.589591,-0.608751 0.08705,7.163971 -3.127958,-1.534321 -0.589591,-2.634384 2.395893,-0.09071 1.033785,10.516294 -0.898752,6.795812 -2.510935,-4.701618 1.589126,-13.266658 2.718578,-5.58916 l 0.12987,0.982733 0.05889,1.05375 m -0.0086,-1.379879 c -0.539782,1.759212 -0.154387,-3.627902 0.589591,-0.608751 0.08705,7.163971 -3.127958,-1.534321 -0.589591,-2.634384 2.395893,-0.09071 1.033785,10.516294 -0.898752,6.795812 -2.510935,-4.701618 1.589126,-13.266658 2.718578,-5.58916 l 0.12987,0.982733 0.05889,1.05375 m -0.0086,-2.66885 c -0.539782,1.759212 -0.154387,-3.627902 0.589591,-0.608751 0.08705,7.163971 -3.127958,-1.534321 -0.589591,-2.634384 2.395893,-0.09071 1.033785,10.516294 -0.898752,6.795812 -2.510935,-4.701618 1.589126,-13.266658 2.718578,-5.58916 l 0.12987,0.982733 0.05889,1.05375 m -0.0086,-1.33115 c -0.539782,1.759212 -0.154387,-3.627902 0.589591,-0.608751 0.08705,7.163971 -3.127958,-1.534321 -0.589591,-2.634384 2.395893,-0.09071 1.033785,10.516294 -0.898752,6.795812 -2.510935,-4.701618 1.589126,-13.266658 2.718578,-5.58916 l 0.12987,0.982733 0.05889,1.05375 m -0.0086,-1.729496 c -0.539782,1.759212 -0.154387,-3.627902 0.589591,-0.608751 0.08705,7.163971 -3.127958,-1.534321 -0.589591,-2.634384 2.395893,-0.09071 1.033785,10.516294 -0.898752,6.795812 -2.510935,-4.701618 1.589126,-13.266658 2.718578,-5.58916 l 0.12987,0.982733 0.05889,1.05375 m -0.0086,-0.988083 c -0.539782,1.759212 -0.154387,-3.627902 0.589591,-0.608751 0.08705,7.163971 -3.127958,-1.534321 -0.589591,-2.634384 2.395893,-0.09071 1.033785,10.516294 -0.898752,6.795812 -2.510935,-4.701618 1.589126,-13.266658 2.718578,-5.58916 l 0.12987,0.982733 0.05889,1.05375 m -0.0086,-1.282421 c -0.539782,1.759212 -0.154387,-3.627902 0.589591,-0.608751 0.08705,7.163971 -3.127958,-1.534321 -0.589591,-2.634384 2.395893,-0.09071 1.033785,10.516294 -0.898752,6.795812 -2.510935,-4.701618 1.589126,-13.266658 2.718578,-5.58916 l 0.12987,0.982733 0.05889,1.05375 m -0.0086,-1 c -0.539782,1.759212 -0.154387,-3.627902 0.589591,-0.608751 0.08705,7.163971 -3.127958,-1.534321 -0.589591,-2.634384 2.395893,-0.09071 1.033785,10.516294 -0.898752,6.795812 -2.510935,-4.701618 1.589126,-13.266658 2.718578,-5.58916 l 0.12987,0.982733 0.05889,1.05375 m -0.0086,-1 c -0.539782,1.759212 -0.154387,-3.627902 0.589591,-0.608751 0.08705,7.163971 -3.127958,-1.534321 -0.589591,-2.634384 2.395893,-0.09071 1.033785,10.516294 -0.898752,6.795812 -2.510935,-4.701618 1.589126,-13.266658 2.718578,-5.58916 l 0.12987,0.982733 0.05889,1.05375 m -0.0086,0 c -0.539782,1.759212 -0.154387,-3.627902 0.589591,-0.608751 0.08705,7.163971 -3.127958,-1.534321 -0.589591,-2.634384 2.395893,-0.09071 1.033785,10.516294 -0.898752,6.795812 -2.510935,-4.701618 1.589126,-13.266658 2.718578,-5.58916 l 0.12987,0.982733 0.05889,1.05375 m -0.0086,0 c -0.539782,1.759212 -0.154387,-3.627902 0.589591,-0.608751 0.08705,7.163971 -3.127958,-1.534321 -0.589591,-2.634384 2.395893,-0.09071 1.033785,10.516294 -0.898752,6.795812 -2.510935,-4.701618 1.589126,-13.266658 2.718578,-5.58916 l 0.12987,0.982733 0.05889,1.05375 m -0.0086,0 c -0.539782,1.759212 -0.154387,-3.627902 0.589591,-0.608751 0.08705,7.163971 -3.127958,-1.534321 -0.589591,-2.634384 2.395893,-0.09071 1.033785,10.516294 -0.898752,6.795812 -2.510935,-4.701618 1.589126,-13.266658 2.718578,-5.58916 l 0.12987,0.982733 0.05889,1.05375 m -0.0086,0 c -0.539782,1.759212 -0.154387,-3.627902 0.589591,-0.608751 0.08705,7.163971 -3.127958,-1.534321 -0.589591,-2.634384 2.395893,-0.09071 1.033785,10.516294 -0.898752,6.795812 -2.510935,-4.701618 1.589126,-13.266658 2.718578,-5.58916 l 0.12987,0.982733 0.05889,1.05375 m -0.0086,0 c -0.539782,1.759212 -0.154387,-3.627902 0.589591,-0.608751 0.08705,7.163971 -3.127958,-1.534321 -0.589591,-2.634384 2.395893,-0.09071 1.033785,10.516294 -0.898752,6.795812 -2.510935,-4.701618 1.589126,-13.266658 2.718578,-5.58916 l 0.12987,0.982733 0.05889,1.05375 m -0.0086,0 c -0.539782,1.759212 -0.154387,-3.627902 0.589591,-0.608751 0.08705,7.163971 -3.127958,-1.534321 -0.589591,-2.634384 2.395893,-0.09071 1.033785,10.516294 -0.898752,6.795812 -2.510935,-4.701618 1.589126,-13.266658 2.718578,-5.58916 l 0.12987,0.982733 0.05889,1.05375 m -0.0086,0 c -0.539782,1.759212 -0.154387,-3.627902 0.589591,-0.608751 0.08705,7.163971 -3.127958,-1.534321 -0.589591,-2.634384 2.395893,-0.09071 1.033785,10.516294 -0.898752,6.795812 -2.510935,-4.701618 1.589126,-13.266658 2.718578,-5.58916 l 0.12987,0.982733 0.05889,1.05375 m -0.0086,0 c -0.539782,1.759212 -0.154387,-3.627902 0.589591,-0.608751 0.08705,7.163971 -3.127958,-1.534321 -0.589591,-2.634384 2.395893,-0.09071 1.033785,10.516294 -0.898752,6.795812 -2.510935,-4.701618 1.589126,-13.266658 2.718578,-5.58916 l 0.12987,0.982733 0.05889,1.05375 m -0.0086,0 c -0.539782,1.759212 -0.154387,-3.627902 0.589591,-0.608751 0.08705,7.163971 -3.127958,-1.534321 -0.589591,-2.634384 2.395893,-0.09071 1.033785,10.516294 -0.898752,6.795812 -2.510935,-4.701618 1.589126,-13.266658 2.718578,-5.58916 l 0.12987,0.982733 0.05889,1.05375 m -0.0086,0 c -0.539782,1.759212 -0.154387,-3.627902 0.589591,-0.608751 0.08705,7.163971 -3.127958,-1.534321 -0.589591,-2.634384 2.395893,-0.09071 1.033785,10.516294 -0.898752,6.795812 -2.510935,-4.701618 1.589126,-13.266658 2.718578,-5.58916 l 0.12987,0.982733 0.05889,1.05375 m -0.0086,0 c -0.539782,1.759212 -0.154387,-3.627902 0.589591,-0.608751 0.08705,7.163971 -3.127958,-1.534321 -0.589591,-2.634384 2.395893,-0.09071 1.033785,10.516294 -0.898752,6.795812 -2.510935,-4.701618 1.589126,-13.266658 2.718578,-5.58916 l 0.12987,0.982733 0.05889,1.05375 m -0.0086,0.269974 c -0.539782,1.759212 -0.154387,-3.627902 0.589591,-0.608751 0.08705,7.163971 -3.127958,-1.534321 -0.589591,-2.634384 2.395893,-0.09071 1.033785,10.516294 -0.898752,6.795812 -2.510935,-4.701618 1.589126,-13.266658 2.718578,-5.58916 l 0.12987,0.982733 0.05889,1.05375 m -0.0086,0.409693 c -0.539782,1.759212 -0.154387,-3.627902 0.589591,-0.608751 0.08705,7.163971 -3.127958,-1.534321 -0.589591,-2.634384 2.395893,-0.09071 1.033785,10.516294 -0.898752,6.795812 -2.510935,-4.701618 1.589126,-13.266658 2.718578,-5.58916 l 0.12987,0.982733 0.05889,1.05375 m -0.0086,-0.0482 c -0.539782,1.759212 -0.154387,-3.627902 0.589591,-0.608751 0.08705,7.163971 -3.127958,-1.534321 -0.589591,-2.634384 2.395896,-0.09071 1.033785,10.516294 -0.898752,6.795812 -2.510935,-4.701618 1.589126,-13.266658 2.718578,-5.58916 l 0.12987,0.982733 0.0589,1.05375 m -0.009,0.368532 c -0.53978,1.759212 -0.15438,-3.627902 0.5896,-0.608751 0.087,7.163971 -3.127963,-1.534321 -0.5896,-2.634384 2.3959,-0.09071 1.03379,10.516294 -0.898748,6.795812 -2.510935,-4.701618 1.589128,-13.266658 2.718578,-5.58916 l 0.12987,0.982733 0.0589,1.05375 m -0.009,0.715948 c -0.53978,1.759212 -0.15438,-3.627902 0.5896,-0.608751 0.087,7.163971 -3.12796,-1.534321 -0.5896,-2.634384 2.3959,-0.09071 1.03379,10.516294 -0.89875,6.795812 -2.510933,-4.701618 1.58913,-13.266658 2.71858,-5.58916 l 0.12987,0.982733 0.0589,1.05375 m -0.009,0.988083 c -0.53978,1.759212 -0.15438,-3.627902 0.5896,-0.608751 0.087,7.163971 -3.12796,-1.534321 -0.5896,-2.634384 2.3959,-0.09071 1.03379,10.516294 -0.89875,6.795812 -2.51093,-4.701618 1.58913,-13.266658 2.71858,-5.58916 l 0.12987,0.982733 0.0589,1.05375 m -0.009,0.771187 c -0.53978,1.759212 -0.15438,-3.627902 0.5896,-0.608751 0.087,7.163971 -3.12796,-1.534321 -0.5896,-2.634384 2.3959,-0.09071 1.03379,10.516294 -0.89875,6.795812 -2.51093,-4.701618 1.58913,-13.266658 2.71858,-5.58916 l 0.12987,0.982733 0.0589,1.05375 m -0.009,0.524782 c -0.53978,1.759212 -0.15438,-3.627902 0.5896,-0.608751 0.087,7.163971 -3.12796,-1.534321 -0.5896,-2.634384 2.3959,-0.09071 1.03379,10.516294 -0.89875,6.795812 -2.51093,-4.701618 1.58913,-13.266658 2.71858,-5.58916 l 0.12987,0.982733 0.0589,1.05375 m 5.39066,5.379614 c -0.53978,1.759212 -0.15438,-3.627902 0.5896,-0.608751 0.087,7.163971 -3.12796,-1.534321 -0.5896,-2.634384 2.3959,-0.09071 1.03379,10.516294 -0.89875,6.795812 -2.51093,-4.701618 1.58913,-13.266658 2.71858,-5.58916 l 0.12987,0.982733 0.0589,1.05375 m -0.40786,3.012447 c -0.53978,1.759212 -0.15438,-3.627902 0.5896,-0.608751 0.087,7.163971 -3.12796,-1.534321 -0.5896,-2.634384 2.3959,-0.09071 1.03379,10.516294 -0.89875,6.795812 -2.51093,-4.701618 1.58913,-13.266658 2.71858,-5.58916 l 0.12987,0.982733 0.0589,1.05375 m -14.0086,-10.392061 c -0.53978,1.759212 -0.15438,-3.627902 0.5896,-0.608751 0.087,7.163971 -3.12796,-1.534321 -0.5896,-2.634384 2.3959,-0.09071 1.03379,10.516294 -0.89875,6.795812 -2.51093,-4.701618 1.58913,-13.266658 2.71858,-5.58916 l 0.12987,0.982733 0.0589,1.05375 m -4.0086,-1.464931 c -0.53978,1.759212 -0.15438,-3.627902 0.5896,-0.608751 0.087,7.163971 -3.12796,-1.534321 -0.5896,-2.634384 2.3959,-0.09071 1.03379,10.516294 -0.89875,6.795812 -2.51093,-4.701618 1.58913,-13.266658 2.71858,-5.58916 l 0.12987,0.982733 0.0589,1.05375 m -4.0086,-1.535069 c -0.53978,1.759212 -0.15438,-3.627902 0.5896,-0.608751 0.087,7.163971 -3.127963,-1.534321 -0.5896,-2.634384 2.3959,-0.09071 1.03379,10.516294 -0.89875,6.795812 -2.510933,-4.701618 1.58913,-13.266658 2.71858,-5.58916 l 0.12987,0.982733 0.0589,1.05375 m -4.008596,-1 c -0.539782,1.759212 -0.154387,-3.627902 0.589596,-0.608751 0.087,7.163971 -3.127963,-1.534321 -0.589596,-2.634384 2.395896,-0.09071 1.033786,10.516294 -0.898752,6.795812 -2.510935,-4.701618 1.589128,-13.266658 2.718578,-5.58916 l 0.12987,0.982733 0.0589,1.05375 m -3.756321,-1 c -0.539782,1.759212 -0.154387,-3.627902 0.589591,-0.608751 0.08705,7.163971 -3.127958,-1.534321 -0.589591,-2.634384 2.395891,-0.09071 1.033785,10.516294 -0.898752,6.795812 -2.510935,-4.701618 1.589126,-13.266658 2.718578,-5.58916 l 0.129865,0.982733 0.0589,1.05375 m -30.260866,-2 c -0.539782,1.759212 -0.154387,-3.627902 0.589591,-0.608751 0.08705,7.163971 -3.127958,-1.534321 -0.589591,-2.634384 2.395893,-0.09071 1.033785,10.516294 -0.898752,6.795812 -2.510935,-4.701618 1.589126,-13.266658 2.718578,-5.58916 l 0.12987,0.982733 0.05889,1.05375 m -4.008586,1.341743 c -0.539782,1.759212 -0.154387,-3.627902 0.589591,-0.608751 0.08705,7.163971 -3.127958,-1.534321 -0.589591,-2.634384 2.395893,-0.09071 1.033785,10.516294 -0.898752,6.795812 -2.510935,-4.701618 1.589126,-13.266658 2.718578,-5.58916 l 0.12987,0.982733 0.05889,1.05375 m -4.008586,1.658257 c -0.539782,1.759212 -0.154387,-3.627902 0.589591,-0.608751 0.08705,7.163971 -3.127958,-1.534321 -0.589591,-2.634384 2.395893,-0.09071 1.033785,10.516294 -0.898752,6.795812 -2.510935,-4.701618 1.589126,-13.266658 2.718578,-5.58916 l 0.12987,0.982733 0.05889,1.05375 m -4.008586,1 c -0.539782,1.759212 -0.154387,-3.627902 0.589591,-0.608751 0.08705,7.163971 -3.127958,-1.534321 -0.589591,-2.634384 2.395893,-0.09071 1.033785,10.516294 -0.898752,6.795812 -2.510935,-4.701618 1.589126,-13.266658 2.718578,-5.58916 l 0.12987,0.982733 0.05889,1.05375 m -4.008586,1.535069 c -0.539782,1.759212 -0.154387,-3.627902 0.589591,-0.608751 0.08705,7.163971 -3.127958,-1.534321 -0.589591,-2.634384 2.395893,-0.09071 1.033785,10.516294 -0.898752,6.795812 -2.510935,-4.701618 1.589126,-13.266658 2.718578,-5.58916 l 0.12987,0.982733 0.05889,1.05375 m -4.008586,1.13268 c -0.539782,1.759212 -0.154387,-3.627902 0.589591,-0.608751 0.08705,7.163971 -3.127958,-1.534321 -0.589591,-2.634384 2.395893,-0.09071 1.033785,10.516294 -0.898752,6.795812 C 56.450257,22.97904 60.550318,14.414 61.67977,22.091498 l 0.12987,0.982733 0.05889,1.05375 m -4.008586,1.879767 c -0.539782,1.759212 -0.154387,-3.627902 0.589591,-0.608751 0.08705,7.163971 -3.127958,-1.534321 -0.589591,-2.634384 2.395893,-0.09071 1.033785,10.516294 -0.898752,6.795812 -2.510935,-4.701618 1.589126,-13.266658 2.718578,-5.58916 l 0.12987,0.982733 0.05889,1.05375 m -4.008586,1.855668 c -0.539782,1.759212 -0.154387,-3.627902 0.589591,-0.608751 0.08705,7.163971 -3.127958,-1.534321 -0.589591,-2.634384 2.395893,-0.09071 1.033785,10.516294 -0.898752,6.795812 -2.510935,-4.701618 1.589126,-13.266658 2.718578,-5.58916 l 0.12987,0.982733 0.05889,1.05375 m -4.008586,2.596816 c -0.539782,1.759212 -0.154387,-3.627902 0.589591,-0.608751 0.08705,7.163971 -3.127958,-1.534321 -0.589591,-2.634384 2.395893,-0.09071 1.033785,10.516294 -0.898752,6.795812 -2.510935,-4.701618 1.589126,-13.266658 2.718578,-5.58916 l 0.12987,0.982733 0.05889,1.05375 m -4.008586,2.656891 c -0.539782,1.759212 -0.154387,-3.627902 0.589591,-0.608751 0.08705,7.163971 -3.127958,-1.534321 -0.589591,-2.634384 2.395893,-0.09071 1.033785,10.516294 -0.898752,6.795812 -2.510935,-4.701618 1.589126,-13.266658 2.718578,-5.58916 l 0.12987,0.982733 0.05889,1.05375 m -4.008586,2.84375 c -0.539782,1.759212 -0.154387,-3.627902 0.589591,-0.608751 0.08705,7.163971 -3.127958,-1.534321 -0.589591,-2.634384 2.395893,-0.09071 1.033785,10.516294 -0.898752,6.795812 -2.510935,-4.701618 1.589126,-13.266658 2.718578,-5.58916 l 0.12987,0.982733 0.05889,1.05375 m -4.008586,3.108846 c -0.539782,1.759212 -0.154387,-3.627902 0.589591,-0.608751 0.08705,7.163971 -3.127958,-1.534321 -0.589591,-2.634384 2.395893,-0.09071 1.033785,10.516294 -0.898752,6.795812 -2.510935,-4.701618 1.589126,-13.266658 2.718578,-5.58916 l 0.12987,0.982733 0.05889,1.05375 m -3.76814,4.390513 c -0.539782,1.759212 -0.154387,-3.627902 0.589591,-0.608751 0.08705,7.163971 -3.127958,-1.534321 -0.589591,-2.634384 2.395893,-0.09071 1.033785,10.516294 -0.898752,6.795812 -2.510935,-4.701618 1.589126,-13.266658 2.718578,-5.58916 l 0.12987,0.982733 0.05889,1.05375 M 96.859944,18.127187 c -0.539782,1.759212 -0.154387,-3.627902 0.589591,-0.608751 0.08705,7.163971 -3.127958,-1.534321 -0.589591,-2.634384 2.395893,-0.09071 1.033785,10.516294 -0.898752,6.795812 -2.510935,-4.701618 1.589126,-13.266658 2.718578,-5.58916 l 0.12987,0.982733 0.05889,1.05375 m -4.008586,0 c -0.539782,1.759212 -0.154387,-3.627902 0.589591,-0.608751 0.08705,7.163971 -3.127958,-1.534321 -0.589591,-2.634384 2.395893,-0.09071 1.033785,10.516294 -0.898752,6.795812 -2.510935,-4.701618 1.589126,-13.266658 2.718578,-5.58916 l 0.12987,0.982733 0.05889,1.05375 m -4.008586,-0.0241 c -0.539782,1.759212 -0.154387,-3.627902 0.589591,-0.608751 0.08705,7.163971 -3.127958,-1.534321 -0.589591,-2.634384 2.395893,-0.09071 1.033785,10.516294 -0.898752,6.795812 -2.510935,-4.701618 1.589126,-13.266658 2.718578,-5.58916 l 0.12987,0.982733 0.05889,1.05375 m -4.008586,0 c -0.539782,1.759212 -0.154387,-3.627902 0.589591,-0.608751 0.08705,7.163971 -3.127958,-1.534321 -0.589591,-2.634384 2.395893,-0.09071 1.033785,10.516294 -0.898752,6.795812 -2.510935,-4.701618 1.589126,-13.266658 2.718578,-5.58916 l 0.12987,0.982733 0.05889,1.05375 m -4.008586,-0.0964 c -0.539782,1.759212 -0.154387,-3.627902 0.589591,-0.608751 0.08705,7.163971 -3.127958,-1.534321 -0.589591,-2.634384 2.395893,-0.09071 1.033785,10.516294 -0.898752,6.795812 -2.510935,-4.701618 1.589126,-13.266658 2.718578,-5.58916 l 0.12987,0.982733 0.05889,1.05375 m -4.008586,-0.0482 c -0.539782,1.759212 -0.154387,-3.627902 0.589591,-0.608751 0.08705,7.163971 -3.127958,-1.534321 -0.589591,-2.634384 2.395893,-0.09071 1.033785,10.516294 -0.898752,6.795812 -2.510935,-4.701618 1.589126,-13.266658 2.718578,-5.58916 l 0.12987,0.982733 0.05889,1.05375 m -4.008586,-0.0723 c -0.539782,1.759212 -0.154387,-3.627902 0.589591,-0.608751 0.08705,7.163971 -3.127958,-1.534321 -0.589591,-2.634384 2.395893,-0.09071 1.033785,10.516294 -0.898752,6.795812 -2.510935,-4.701618 1.589126,-13.266658 2.718578,-5.58916 l 0.12987,0.982733 0.05889,1.05375 m -4.008586,0.0482 c -0.539782,1.759212 -0.154387,-3.627902 0.589591,-0.608751 0.08705,7.163971 -3.127958,-1.534321 -0.589591,-2.634384 2.395893,-0.09071 1.033785,10.516294 -0.898752,6.795812 -2.510935,-4.701618 1.589126,-13.266658 2.718578,-5.58916 l 0.12987,0.982733 0.05889,1.05375 m -4.008586,-0.0482 c -0.539782,1.759212 -0.154387,-3.627902 0.589591,-0.608751 0.08705,7.163971 -3.127958,-1.534321 -0.589591,-2.634384 2.395893,-0.09071 1.033785,10.516294 -0.898752,6.795812 -2.510935,-4.701618 1.589126,-13.266658 2.718578,-5.58916 l 0.12987,0.982733 0.05889,1.05375 m -4.008586,0 c -0.539782,1.759212 -0.154387,-3.627902 0.589591,-0.608751 0.08705,7.163971 -3.127958,-1.534321 -0.589591,-2.634384 2.395893,-0.09071 1.033785,10.516294 -0.898752,6.795812 -2.510935,-4.701618 1.589126,-13.266658 2.718578,-5.58916 l 0.12987,0.982733 0.05889,1.05375 m -4.008586,0 c -0.539782,1.759212 -0.154387,-3.627902 0.589591,-0.608751 0.08705,7.163971 -3.127958,-1.534321 -0.589591,-2.634384 2.395893,-0.09071 1.033785,10.516294 -0.898752,6.795812 -2.510935,-4.701618 1.589126,-13.266658 2.718578,-5.58916 l 0.12987,0.982733 0.05889,1.05375 m -3.747307,0 c -0.539782,1.759212 -0.154387,-3.627902 0.589591,-0.608751 0.08705,7.163971 -3.127958,-1.534321 -0.589591,-2.634384 2.395893,-0.09071 1.033785,10.516294 -0.898752,6.795812 -2.510935,-4.701618 1.589126,-13.266658 2.718578,-5.58916 l 0.12987,0.982733 0.05889,1.05375 m -3.840154,-0.0241 c -0.539782,1.759212 -0.154387,-3.627902 0.589591,-0.608751 0.08705,7.163971 -3.127958,-1.534321 -0.589591,-2.634384 2.395893,-0.09071 1.033785,10.516294 -0.898752,6.795812 -2.510935,-4.701618 1.589126,-13.266658 2.718578,-5.58916 l 0.12987,0.982733 0.05889,1.05375 m -3.816054,0.0723 c -0.539782,1.759212 -0.154387,-3.627902 0.589591,-0.608751 0.08705,7.163971 -3.127958,-1.534321 -0.589591,-2.634384 2.395893,-0.09071 1.033785,10.516294 -0.898752,6.795812 -2.510935,-4.701618 1.589126,-13.266658 2.718578,-5.58916 l 0.12987,0.982733 0.05889,1.05375 m 42.369167,12.525842 c -0.53978,1.759212 -0.15438,-3.627902 0.5896,-0.608751 0.087,7.163971 -3.12796,-1.534321 -0.5896,-2.634384 2.3959,-0.09071 1.03379,10.516294 -0.89875,6.795812 -2.51093,-4.701618 1.58913,-13.266658 2.71858,-5.58916 l 0.12987,0.982733 0.0589,1.05375 m -4.0086,-1 c -0.53978,1.759212 -0.15438,-3.627902 0.5896,-0.608751 0.087,7.163971 -3.12796,-1.534321 -0.5896,-2.634384 2.3959,-0.09071 1.03379,10.516294 -0.89875,6.795812 -2.51093,-4.701618 1.58913,-13.266658 2.71858,-5.58916 l 0.12987,0.982733 0.0589,1.05375 m -4.0086,-1 c -0.53978,1.759212 -0.15438,-3.627902 0.5896,-0.608751 0.087,7.163971 -3.12796,-1.534321 -0.5896,-2.634384 2.3959,-0.09071 1.03379,10.516294 -0.89875,6.795812 -2.51093,-4.701618 1.58913,-13.266658 2.71858,-5.58916 l 0.12987,0.982733 0.0589,1.05375 m -4.0086,-1 c -0.53978,1.759212 -0.15438,-3.627902 0.5896,-0.608751 0.087,7.163971 -3.12796,-1.534321 -0.5896,-2.634384 2.3959,-0.09071 1.03379,10.516294 -0.89875,6.795812 -2.51093,-4.701618 1.58913,-13.266658 2.71858,-5.58916 l 0.12987,0.982733 0.0589,1.05375 m -4.0086,-1 c -0.53978,1.759212 -0.15438,-3.627902 0.5896,-0.608751 0.087,7.163971 -3.12796,-1.534321 -0.5896,-2.634384 2.3959,-0.09071 1.03379,10.516294 -0.89875,6.795812 -2.51093,-4.701618 1.58913,-13.266658 2.71858,-5.58916 l 0.12987,0.982733 0.0589,1.05375 m -4.0086,0 c -0.53978,1.759212 -0.15438,-3.627902 0.5896,-0.608751 0.087,7.163971 -3.12796,-1.534321 -0.5896,-2.634384 2.3959,-0.09071 1.03379,10.516294 -0.89875,6.795812 -2.51093,-4.701618 1.58913,-13.266658 2.71858,-5.58916 l 0.12987,0.982733 0.0589,1.05375 m -4.0086,-1 c -0.53978,1.759212 -0.15438,-3.627902 0.5896,-0.608751 0.087,7.163971 -3.12796,-1.534321 -0.5896,-2.634384 2.3959,-0.09071 1.03379,10.516294 -0.89875,6.795812 -2.51093,-4.701618 1.58913,-13.266658 2.71858,-5.58916 l 0.12987,0.982733 0.0589,1.05375 m -4.0086,-1 c -0.53978,1.759212 -0.15438,-3.627902 0.5896,-0.608751 0.087,7.163971 -3.127963,-1.534321 -0.5896,-2.634384 2.3959,-0.09071 1.03379,10.516294 -0.89875,6.795812 -2.510933,-4.701618 1.58913,-13.266658 2.71858,-5.58916 l 0.12987,0.982733 0.0589,1.05375 m -4.008596,-1 c -0.539782,1.759212 -0.154387,-3.627902 0.589596,-0.608751 0.087,7.163971 -3.127963,-1.534321 -0.589596,-2.634384 2.395896,-0.09071 1.033786,10.516294 -0.898752,6.795812 -2.510935,-4.701618 1.589128,-13.266658 2.718578,-5.58916 l 0.12987,0.982733 0.0589,1.05375 m -4.008596,0 c -0.539782,1.759212 -0.154387,-3.627902 0.589591,-0.608751 0.08705,7.163971 -3.127958,-1.534321 -0.589591,-2.634384 2.395896,-0.09071 1.033785,10.516294 -0.898752,6.795812 -2.510935,-4.701618 1.589126,-13.266658 2.718578,-5.58916 l 0.12987,0.982733 0.05889,1.05375 m -4.008586,-1 c -0.539782,1.759212 -0.154387,-3.627902 0.589591,-0.608751 0.08705,7.163971 -3.127958,-1.534321 -0.589591,-2.634384 2.395893,-0.09071 1.033785,10.516294 -0.898752,6.795812 -2.510935,-4.701618 1.589126,-13.266658 2.718578,-5.58916 l 0.12987,0.982733 0.05889,1.05375 m -4.008586,0 c -0.539782,1.759212 -0.154387,-3.627902 0.589591,-0.608751 0.08705,7.163971 -3.127958,-1.534321 -0.589591,-2.634384 2.395893,-0.09071 1.033785,10.516294 -0.898752,6.795812 -2.510935,-4.701618 1.589126,-13.266658 2.718578,-5.58916 l 0.12987,0.982733 0.05889,1.05375 m -4.008586,0 c -0.539782,1.759212 -0.154387,-3.627902 0.589591,-0.608751 0.08705,7.163971 -3.127958,-1.534321 -0.589591,-2.634384 2.395893,-0.09071 1.033785,10.516294 -0.898752,6.795812 -2.510935,-4.701618 1.589126,-13.266658 2.718578,-5.58916 l 0.12987,0.982733 0.05889,1.05375 m -4.008586,0 c -0.539782,1.759212 -0.154387,-3.627902 0.589591,-0.608751 0.08705,7.163971 -3.127958,-1.534321 -0.589591,-2.634384 2.395893,-0.09071 1.033785,10.516294 -0.898752,6.795812 -2.510935,-4.701618 1.589126,-13.266658 2.718578,-5.58916 l 0.12987,0.982733 0.05889,1.05375 m -4.008586,0 c -0.539782,1.759212 -0.154387,-3.627902 0.589591,-0.608751 0.08705,7.163971 -3.127958,-1.534321 -0.589591,-2.634384 2.395893,-0.09071 1.033785,10.516294 -0.898752,6.795812 -2.510935,-4.701618 1.589126,-13.266658 2.718578,-5.58916 l 0.12987,0.982733 0.05889,1.05375 m -4.008586,0 c -0.539782,1.759212 -0.154387,-3.627902 0.589591,-0.608751 0.08705,7.163971 -3.127958,-1.534321 -0.589591,-2.634384 2.395893,-0.09071 1.033785,10.516294 -0.898752,6.795812 -2.510935,-4.701618 1.589126,-13.266658 2.718578,-5.58916 l 0.12987,0.982733 0.05889,1.05375 m -4.008586,0 c -0.539782,1.759212 -0.154387,-3.627902 0.589591,-0.608751 0.08705,7.163971 -3.127958,-1.534321 -0.589591,-2.634384 2.395893,-0.09071 1.033785,10.516294 -0.898752,6.795812 -2.510935,-4.701618 1.589126,-13.266658 2.718578,-5.58916 l 0.12987,0.982733 0.05889,1.05375 m -4.008586,0 c -0.539782,1.759212 -0.154387,-3.627902 0.589591,-0.608751 0.08705,7.163971 -3.127958,-1.534321 -0.589591,-2.634384 2.395893,-0.09071 1.033785,10.516294 -0.898752,6.795812 -2.510935,-4.701618 1.589126,-13.266658 2.718578,-5.58916 l 0.12987,0.982733 0.05889,1.05375 m -4.008586,0 c -0.539782,1.759212 -0.154387,-3.627902 0.589591,-0.608751 0.08705,7.163971 -3.127958,-1.534321 -0.589591,-2.634384 2.395893,-0.09071 1.033785,10.516294 -0.898752,6.795812 -2.510935,-4.701618 1.589126,-13.266658 2.718578,-5.58916 l 0.12987,0.982733 0.05889,1.05375 m -4.008586,0 c -0.539782,1.759212 -0.154387,-3.627902 0.589591,-0.608751 0.08705,7.163971 -3.127958,-1.534321 -0.589591,-2.634384 2.395893,-0.09071 1.033785,10.516294 -0.898752,6.795812 -2.510935,-4.701618 1.589126,-13.266658 2.718578,-5.58916 l 0.12987,0.982733 0.05889,1.05375 m -4.008586,0 c -0.539782,1.759212 -0.154387,-3.627902 0.589591,-0.608751 0.08705,7.163971 -3.127958,-1.534321 -0.589591,-2.634384 2.395893,-0.09071 1.033785,10.516294 -0.898752,6.795812 -2.510935,-4.701618 1.589126,-13.266658 2.718578,-5.58916 l 0.12987,0.982733 0.05889,1.05375 m -4.008586,0 c -0.539782,1.759212 -0.154387,-3.627902 0.589591,-0.608751 0.08705,7.163971 -3.127958,-1.534321 -0.589591,-2.634384 2.395893,-0.09071 1.033785,10.516294 -0.898752,6.795812 -2.510935,-4.701618 1.589126,-13.266658 2.718578,-5.58916 l 0.12987,0.982733 0.05889,1.05375 m -4.008586,0 c -0.539782,1.759212 -0.154387,-3.627902 0.589591,-0.608751 0.08705,7.163971 -3.127958,-1.534321 -0.589591,-2.634384 2.395893,-0.09071 1.033785,10.516294 -0.898752,6.795812 -2.510935,-4.701618 1.589126,-13.266658 2.718578,-5.58916 l 0.12987,0.982733 0.05889,1.05375 m -4.008586,1 c -0.539782,1.759212 -0.154387,-3.627902 0.589591,-0.608751 0.08705,7.163971 -3.127958,-1.534321 -0.589591,-2.634384 2.395893,-0.09071 1.033785,10.516294 -0.898752,6.795812 -2.510935,-4.701618 1.589126,-13.266658 2.718578,-5.58916 l 0.12987,0.982733 0.05889,1.05375 m -4.008586,1 c -0.539782,1.759212 -0.154387,-3.627902 0.589591,-0.608751 0.08705,7.163971 -3.127958,-1.534321 -0.589591,-2.634384 2.395893,-0.09071 1.033785,10.516294 -0.898752,6.795812 -2.510935,-4.701618 1.589126,-13.266658 2.718578,-5.58916 l 0.12987,0.982733 0.05889,1.05375 m -4.008586,1 c -0.539782,1.759212 -0.154387,-3.627902 0.589591,-0.608751 0.08705,7.163971 -3.127958,-1.534321 -0.589591,-2.634384 2.395893,-0.09071 1.033785,10.516294 -0.898752,6.795812 -2.510935,-4.701618 1.589126,-13.266658 2.718578,-5.58916 l 0.12987,0.982733 0.05889,1.05375 m -4.008586,1 c -0.539782,1.759212 -0.154387,-3.627902 0.589591,-0.608751 0.08705,7.163971 -3.127958,-1.534321 -0.589591,-2.634384 2.395893,-0.09071 1.033785,10.516294 -0.898752,6.795812 -2.510935,-4.701618 1.589126,-13.266658 2.718578,-5.58916 l 0.12987,0.982733 0.05889,1.05375 m -4.008586,1 c -0.539782,1.759212 -0.154387,-3.627902 0.589591,-0.608751 0.08705,7.163971 -3.127958,-1.534321 -0.589591,-2.634384 2.395893,-0.09071 1.033785,10.516294 -0.898752,6.795812 -2.510935,-4.701618 1.589126,-13.266658 2.718578,-5.58916 l 0.12987,0.982733 0.05889,1.05375 m -4.008586,2 c -0.539782,1.759212 -0.154387,-3.627902 0.589591,-0.608751 0.08705,7.163971 -3.127958,-1.534321 -0.589591,-2.634384 2.395893,-0.09071 1.033785,10.516294 -0.898752,6.795812 -2.510935,-4.701618 1.589126,-13.266658 2.718578,-5.58916 l 0.12987,0.982733 0.05889,1.05375 m -4.008586,2 c -0.539782,1.759212 -0.154387,-3.627902 0.589591,-0.608751 0.08705,7.163971 -3.127958,-1.534321 -0.589591,-2.634384 2.395893,-0.09071 1.033785,10.516294 -0.898752,6.795812 -2.510935,-4.701618 1.589126,-13.266658 2.718578,-5.58916 l 0.12987,0.982733 0.05889,1.05375 m -4.008586,2 c -0.539782,1.759212 -0.154387,-3.627902 0.589591,-0.608751 0.08705,7.163971 -3.127958,-1.534321 -0.589591,-2.634384 2.395893,-0.09071 1.033785,10.516294 -0.898752,6.795812 -2.510935,-4.701618 1.589126,-13.266658 2.718578,-5.58916 l 0.12987,0.982733 0.05889,1.05375 m -4.008586,2 c -0.539782,1.759212 -0.154387,-3.627902 0.589591,-0.608751 0.08705,7.163971 -3.127958,-1.534321 -0.589591,-2.634384 2.395893,-0.09071 1.033785,10.516294 -0.898752,6.795812 -2.510935,-4.701618 1.589126,-13.266658 2.718578,-5.58916 l 0.12987,0.982733 0.05889,1.05375 m -4.008586,2 c -0.539782,1.759212 -0.154387,-3.627902 0.589591,-0.608751 0.08705,7.163971 -3.127958,-1.534321 -0.589591,-2.634384 2.395893,-0.09071 1.033785,10.516294 -0.898752,6.795812 -2.510935,-4.701618 1.589126,-13.266658 2.718578,-5.58916 l 0.12987,0.982733 0.05889,1.05375 m -4.008586,3 c -0.539782,1.759212 -0.154387,-3.627902 0.589591,-0.608751 0.08705,7.163971 -3.127958,-1.534321 -0.589591,-2.634384 2.395893,-0.09071 1.033785,10.516294 -0.898752,6.795812 -2.510935,-4.701618 1.589126,-13.266658 2.718578,-5.58916 l 0.12987,0.982733 0.05889,1.05375 m -4.008586,3 c -0.539782,1.759212 -0.154387,-3.627902 0.589591,-0.608751 0.08705,7.163971 -3.127958,-1.534321 -0.589591,-2.634384 2.395893,-0.09071 1.033785,10.516294 -0.898752,6.795812 -2.510935,-4.701618 1.589126,-13.266658 2.718578,-5.58916 l 0.12987,0.982733 0.05889,1.05375 m 68.99141,-8 c -0.53978,1.759212 -0.15438,-3.627902 0.5896,-0.608751 0.087,7.163971 -3.12796,-1.534321 -0.5896,-2.634384 2.3959,-0.09071 1.03379,10.516294 -0.89875,6.795812 -2.51093,-4.701618 1.58913,-13.266658 2.71858,-5.58916 l 0.12987,0.982733 0.0589,1.05375 m -4.0086,-3 c -0.53978,1.759212 -0.15438,-3.627902 0.5896,-0.608751 0.087,7.163971 -3.12796,-1.534321 -0.5896,-2.634384 2.3959,-0.09071 1.03379,10.516294 -0.89875,6.795812 -2.51093,-4.701618 1.58913,-13.266658 2.71858,-5.58916 l 0.12987,0.982733 0.0589,1.05375 m -4.0086,-3 c -0.53978,1.759212 -0.15438,-3.627902 0.5896,-0.608751 0.087,7.163971 -3.12796,-1.534321 -0.5896,-2.634384 2.3959,-0.09071 1.03379,10.516294 -0.89875,6.795812 -2.51093,-4.701618 1.58913,-13.266658 2.71858,-5.58916 l 0.12987,0.982733 0.0589,1.05375 m -4.0086,-2 c -0.53978,1.759212 -0.15438,-3.627902 0.5896,-0.608751 0.087,7.163971 -3.12796,-1.534321 -0.5896,-2.634384 2.3959,-0.09071 1.03379,10.516294 -0.89875,6.795812 -2.51093,-4.701618 1.58913,-13.266658 2.71858,-5.58916 l 0.12987,0.982733 0.0589,1.05375 m -4.0086,-2 c -0.53978,1.759212 -0.15438,-3.627902 0.5896,-0.608751 0.087,7.163971 -3.12796,-1.534321 -0.5896,-2.634384 2.3959,-0.09071 1.03379,10.516294 -0.89875,6.795812 -2.51093,-4.701618 1.58913,-13.266658 2.71858,-5.58916 l 0.12987,0.982733 0.0589,1.05375 m -4.0086,-2 c -0.53978,1.759212 -0.15438,-3.627902 0.5896,-0.608751 0.087,7.163971 -3.12796,-1.534321 -0.5896,-2.634384 2.3959,-0.09071 1.03379,10.516294 -0.89875,6.795812 -2.51093,-4.701618 1.58913,-13.266658 2.71858,-5.58916 l 0.12987,0.982733 0.0589,1.05375 m -4.0086,-2 c -0.53978,1.759212 -0.15438,-3.627902 0.5896,-0.608751 0.087,7.163971 -3.12796,-1.534321 -0.5896,-2.634384 2.3959,-0.09071 1.03379,10.516294 -0.89875,6.795812 -2.51093,-4.701618 1.58913,-13.266658 2.71858,-5.58916 l 0.12987,0.982733 0.0589,1.05375 m -4.0086,-1 c -0.53978,1.759212 -0.15438,-3.627902 0.5896,-0.608751 0.087,7.163971 -3.12796,-1.534321 -0.5896,-2.634384 2.3959,-0.09071 1.03379,10.516294 -0.89875,6.795812 -2.51093,-4.701618 1.58913,-13.266658 2.71858,-5.58916 l 0.12987,0.982733 0.0589,1.05375 m -4.0086,-2 c -0.53978,1.759212 -0.15438,-3.627902 0.5896,-0.608751 0.087,7.163971 -3.12796,-1.534321 -0.5896,-2.634384 2.3959,-0.09071 1.03379,10.516294 -0.89875,6.795812 -2.510933,-4.701618 1.58913,-13.266658 2.71858,-5.58916 l 0.12987,0.982733 0.0589,1.05375 m -4.0086,-1 c -0.53978,1.759212 -0.15438,-3.627902 0.5896,-0.608751 0.087,7.163971 -3.127963,-1.534321 -0.5896,-2.634384 2.3959,-0.09071 1.03379,10.516294 -0.898748,6.795812 -2.510935,-4.701618 1.589128,-13.266658 2.718578,-5.58916 l 0.12987,0.982733 0.0589,1.05375 m -4.008596,-0.999999 c -0.539782,1.759212 -0.154387,-3.627902 0.589591,-0.608751 0.08705,7.163971 -3.127958,-1.534321 -0.589591,-2.634384 2.395896,-0.09071 1.033785,10.516294 -0.898752,6.795812 -2.510935,-4.701618 1.589126,-13.266658 2.718578,-5.58916 l 0.12987,0.982733 0.0589,1.05375 m -4.008596,0 c -0.539782,1.759212 -0.154387,-3.627902 0.589591,-0.608751 0.08705,7.163971 -3.127958,-1.534321 -0.589591,-2.634384 2.395893,-0.09071 1.033785,10.516294 -0.898752,6.795812 -2.510935,-4.701618 1.589126,-13.266658 2.718578,-5.58916 l 0.12987,0.982733 0.05889,1.05375 m -4.008586,-1 c -0.539782,1.759212 -0.154387,-3.627902 0.589591,-0.608751 0.08705,7.163971 -3.127958,-1.534321 -0.589591,-2.634384 2.395893,-0.09071 1.033785,10.516294 -0.898752,6.795812 -2.510935,-4.701618 1.589126,-13.266658 2.718578,-5.58916 l 0.12987,0.982733 0.05889,1.05375 m -4.008586,-1 c -0.539782,1.759212 -0.154387,-3.627902 0.589591,-0.608751 0.08705,7.163971 -3.127958,-1.534321 -0.589591,-2.634384 2.395893,-0.09071 1.033785,10.516294 -0.898752,6.795812 -2.510935,-4.701618 1.589126,-13.266658 2.718578,-5.58916 l 0.12987,0.982733 0.05889,1.05375 m -4.008586,0 c -0.539782,1.759212 -0.154387,-3.627902 0.589591,-0.608751 0.08705,7.163971 -3.127958,-1.534321 -0.589591,-2.634384 2.395893,-0.09071 1.033785,10.516294 -0.898752,6.795812 -2.510935,-4.701618 1.589126,-13.266658 2.718578,-5.58916 l 0.12987,0.982733 0.05889,1.05375 m -4.008586,-1 c -0.539782,1.759212 -0.154387,-3.6279016 0.589591,-0.608751 0.08705,7.163971 -3.127958,-1.534321 -0.589591,-2.634384 2.395893,-0.09071 1.033785,10.516294 -0.898752,6.795812 -2.510935,-4.701618 1.589126,-13.266658 2.718578,-5.58916 l 0.12987,0.982733 0.05889,1.05375 m -4.008586,0 c -0.539782,1.759212 -0.154387,-3.6279016 0.589591,-0.608751 0.08705,7.163971 -3.127958,-1.534321 -0.589591,-2.634384 2.395893,-0.09071 1.033785,10.516294 -0.898752,6.795812 -2.510935,-4.701618 1.589126,-13.266658 2.718578,-5.58916 l 0.12987,0.982733 0.05889,1.05375 m -4.008586,0 c -0.539782,1.759212 -0.154387,-3.6279016 0.589591,-0.608751 0.08705,7.163971 -3.127958,-1.534321 -0.589591,-2.634384 2.395893,-0.09071 1.033785,10.516294 -0.898752,6.795812 -2.510935,-4.701618 1.589126,-13.266658 2.718578,-5.58916 l 0.12987,0.982733 0.05889,1.05375 m -4.008586,0 c -0.539782,1.759212 -0.154387,-3.6279016 0.589591,-0.608751 0.08705,7.163971 -3.127958,-1.534321 -0.589591,-2.634384 2.395893,-0.09071 1.033785,10.516294 -0.898752,6.795812 -2.510935,-4.701618 1.589126,-13.266658 2.718578,-5.58916 l 0.12987,0.982733 0.05889,1.05375 m -4.008586,0 c -0.539782,1.759212 -0.154387,-3.6279016 0.589591,-0.608751 0.08705,7.163971 -3.127958,-1.534321 -0.589591,-2.634384 2.395893,-0.09071 1.033785,10.516294 -0.898752,6.795812 -2.510935,-4.701618 1.589126,-13.266658 2.718578,-5.58916 l 0.12987,0.982733 0.05889,1.05375 m -4.008586,0 c -0.539782,1.759212 -0.154387,-3.6279016 0.589591,-0.608751 0.08705,7.163971 -3.127958,-1.534321 -0.589591,-2.634384 2.395893,-0.09071 1.033785,10.516294 -0.898752,6.795812 -2.510935,-4.701618 1.589126,-13.266658 2.718578,-5.58916 l 0.12987,0.982733 0.05889,1.05375 m -4.008586,0 c -0.539782,1.759212 -0.154387,-3.6279016 0.589591,-0.608751 0.08705,7.163971 -3.127958,-1.534321 -0.589591,-2.634384 2.395893,-0.09071 1.033785,10.516294 -0.898752,6.795812 -2.510935,-4.701618 1.589126,-13.266658 2.718578,-5.58916 l 0.12987,0.982733 0.05889,1.05375 m -4.008586,1 c -0.539782,1.759212 -0.154387,-3.627902 0.589591,-0.608751 0.08705,7.163971 -3.127958,-1.534321 -0.589591,-2.634384 2.395893,-0.09071 1.033785,10.516294 -0.898752,6.795812 -2.510935,-4.701618 1.589126,-13.266658 2.718578,-5.58916 l 0.12987,0.982733 0.05889,1.05375 m -4.008586,0 c -0.539782,1.759212 -0.154387,-3.627902 0.589591,-0.608751 0.08705,7.163971 -3.127958,-1.534321 -0.589591,-2.634384 2.395893,-0.09071 1.033785,10.516294 -0.898752,6.795812 -2.510935,-4.701618 1.589126,-13.266658 2.718578,-5.58916 l 0.12987,0.982733 0.05889,1.05375 m -4.008586,1 c -0.539782,1.759212 -0.154387,-3.627902 0.589591,-0.608751 0.08705,7.163971 -3.127958,-1.534321 -0.589591,-2.634384 2.395893,-0.09071 1.033785,10.516294 -0.898752,6.795812 -2.510935,-4.701618 1.589126,-13.266658 2.718578,-5.58916 l 0.12987,0.982733 0.05889,1.05375 m -4.008586,1 c -0.539782,1.759212 -0.154387,-3.627902 0.589591,-0.608751 0.08705,7.163971 -3.127958,-1.534321 -0.589591,-2.634384 2.395893,-0.09071 1.033785,10.516294 -0.898752,6.795812 -2.510935,-4.701618 1.589126,-13.266658 2.718578,-5.58916 l 0.12987,0.982733 0.05889,1.05375 m -4.008586,0.999999 c -0.539782,1.759212 -0.154387,-3.627902 0.589591,-0.608751 0.08705,7.163971 -3.127958,-1.534321 -0.589591,-2.634384 2.395893,-0.09071 1.033785,10.516294 -0.898752,6.795812 -2.510935,-4.701618 1.589126,-13.266658 2.718578,-5.58916 l 0.12987,0.982733 0.05889,1.05375 m -4.008586,1 c -0.539782,1.759212 -0.154387,-3.627902 0.589591,-0.608751 0.08705,7.163971 -3.127958,-1.534321 -0.589591,-2.634384 2.395893,-0.09071 1.033785,10.516294 -0.898752,6.795812 -2.510935,-4.701618 1.589126,-13.266658 2.718578,-5.58916 l 0.12987,0.982733 0.05889,1.05375 m -4.008586,1 c -0.539782,1.759212 -0.154387,-3.627902 0.589591,-0.608751 0.08705,7.163971 -3.127958,-1.534321 -0.589591,-2.634384 2.395893,-0.09071 1.033785,10.516294 -0.898752,6.795812 -2.510935,-4.701618 1.589126,-13.266658 2.718578,-5.58916 l 0.12987,0.982733 0.05889,1.05375 m -4.008586,2 c -0.539782,1.759212 -0.154387,-3.627902 0.589591,-0.608751 0.08705,7.163971 -3.127958,-1.534321 -0.589591,-2.634384 2.395893,-0.09071 1.033785,10.516294 -0.898752,6.795812 -2.510935,-4.701618 1.589126,-13.266658 2.718578,-5.58916 l 0.12987,0.982733 0.05889,1.05375 m -4.008586,1 c -0.539782,1.759212 -0.154387,-3.627902 0.589591,-0.608751 0.08705,7.163971 -3.127958,-1.534321 -0.589591,-2.634384 2.395893,-0.09071 1.033785,10.516294 -0.898752,6.795812 -2.510935,-4.701618 1.589126,-13.266658 2.718578,-5.58916 l 0.12987,0.982733 0.05889,1.05375 m -4.008586,2 c -0.539782,1.759212 -0.154387,-3.627902 0.589591,-0.608751 0.08705,7.163971 -3.127958,-1.534321 -0.589591,-2.634384 2.395893,-0.09071 1.033785,10.516294 -0.898752,6.795812 -2.510935,-4.701618 1.589126,-13.266658 2.718578,-5.58916 l 0.12987,0.982733 0.05889,1.05375 m -3.868783,1.539619 c -0.539782,1.759212 -0.154387,-3.627902 0.589591,-0.608751 0.08705,7.163971 -3.127958,-1.534321 -0.589591,-2.634384 2.395893,-0.09071 1.033785,10.516294 -0.898752,6.795812 -2.510935,-4.701618 1.589126,-13.266658 2.718578,-5.58916 l 0.12987,0.982733 0.05889,1.05375 m -4.008586,2 c -0.539782,1.759212 -0.154387,-3.627902 0.589591,-0.608751 0.08705,7.163971 -3.127958,-1.534321 -0.589591,-2.634384 2.395893,-0.09071 1.033785,10.516294 -0.898752,6.795812 -2.510935,-4.701618 1.589126,-13.266658 2.718578,-5.58916 l 0.12987,0.982733 0.05889,1.05375 m -4.008586,3 c -0.539782,1.759212 -0.154387,-3.627902 0.589591,-0.608751 0.08705,7.163971 -3.127958,-1.534321 -0.589591,-2.634384 2.395893,-0.09071 1.033785,10.516294 -0.898752,6.795812 -2.510935,-4.701618 1.589126,-13.266658 2.718578,-5.58916 l 0.12987,0.982733 0.05889,1.05375 m -4.008586,3.490948 c -0.539782,1.759212 -0.154387,-3.627902 0.589591,-0.608751 0.08705,7.163971 -3.127958,-1.534321 -0.589591,-2.634384 2.395893,-0.09071 1.033785,10.516294 -0.898752,6.795812 -2.510935,-4.701618 1.589126,-13.266658 2.718578,-5.58916 l 0.12987,0.982733 0.05889,1.05375 m -4.008586,4.509052 c -0.539782,1.759212 -0.154387,-3.627902 0.589591,-0.608751 0.08705,7.163971 -3.127958,-1.534321 -0.589591,-2.634384 2.395893,-0.09071 1.033785,10.516294 -0.898752,6.795812 -2.510935,-4.701618 1.589126,-13.266658 2.718578,-5.58916 l 0.12987,0.982733 0.05889,1.05375 m -4.008586,4 c -0.539782,1.759212 -0.154387,-3.627902 0.589591,-0.608751 0.08705,7.163971 -3.127958,-1.534321 -0.589591,-2.634384 2.395893,-0.09071 1.033785,10.516294 -0.898752,6.795812 -2.510935,-4.701618 1.589126,-13.266658 2.718578,-5.58916 l 0.12987,0.982733 0.05889,1.05375" />
  <path
     style="fill:#ffd42a;stroke:#000000;stroke-width:1px;stroke-linecap:butt;stroke-linejoin:miter;stroke-opacity:1"
     d="m 55,102 c 17.430437,0 34.860873,0 52.29131,0 -0.0971,1 -0.19421,2 -0.29131,3 -1.33333,0 -2.66667,0 -4,0 -0.94228,1.95587 -1.53418,4.03674 -2.1186,6.12029 -0.42164,1.60572 -1.029871,3.18734 -1.33406,4.80824 0.02061,0.7428 0.04121,1.4856 0.06182,2.2284 -3.11912,-0.17964 -6.238239,-0.35928 -9.357359,-0.53892 2.456669,-1.56482 3.009073,-4.86292 2.749717,-7.56484 -0.171079,-2.48622 -2.007023,-5.05434 -4.691789,-5.04539 C 83.873347,104.98973 79.436545,105.00511 75,105 c -0.01577,4.27687 -0.184803,8.55444 -0.399547,12.8256 0.0273,0.76862 -1.210972,0.15196 -1.736052,0.31596 -3.880945,-0.14209 -7.774006,-0.18028 -11.647354,-0.3875 C 59.991698,117.50271 58.766349,117.25135 57.541,117 54.582803,114.50245 53.863169,110.41062 53.87104,106.72925 53.806888,105.06951 54.588541,103.5754 55,102 Z"
     id="path12775"
     inkscape:connector-curvature="0" />
  <path
     id="path6998-9-4"
     style="opacity:1;fill:#000000;fill-opacity:1;stroke:#000000;stroke-width:0.5;stroke-linejoin:round;stroke-miterlimit:4;stroke-dasharray:none;stroke-opacity:1"
     d="m 93.62974,104.55247 c 0.194992,-0.63221 -1.367853,-3.22342 -0.67581,-1.66993 -0.626425,-1.26736 0.746807,1.62465 0.2559,2.16993 0.433395,2.01665 -2.140131,2.87492 -1.48652,4.96679 0.09392,0.89554 1.382392,3.29305 0.915835,2.09694 0.533822,0.8215 -0.352373,-0.47106 -0.506005,-1.82783 -0.463815,-2.03657 2.114134,-2.89438 1.49231,-4.97949 0.143081,0.0427 -0.193732,-0.91472 0.0043,-0.75641 z m 4,5 c 0.194992,-0.63221 -1.367853,-3.22342 -0.67581,-1.66993 -0.626425,-1.26736 0.746807,1.62465 0.2559,2.16993 0.433395,2.01665 -2.140131,2.87492 -1.48652,4.96679 0.09392,0.89554 1.382392,3.29305 0.915835,2.09694 0.533822,0.8215 -0.352373,-0.47106 -0.506005,-1.82783 -0.463815,-2.03657 2.114134,-2.89438 1.49231,-4.97949 0.143081,0.0427 -0.193732,-0.91472 0.0043,-0.75641 z m 3,-5 c 0.19499,-0.63221 -1.367853,-3.22342 -0.67581,-1.66993 -0.626425,-1.26736 0.74681,1.62465 0.2559,2.16993 0.4334,2.01665 -2.140131,2.87492 -1.48652,4.96679 0.09392,0.89554 1.38239,3.29305 0.915835,2.09694 0.533825,0.8215 -0.352373,-0.47106 -0.506005,-1.82783 -0.463815,-2.03657 2.11413,-2.89438 1.49231,-4.97949 0.14308,0.0427 -0.19373,-0.91472 0.004,-0.75641 z m -42,0 c 0.194992,-0.63221 -1.367853,-3.22342 -0.67581,-1.66993 -0.626425,-1.26736 0.746807,1.62465 0.2559,2.16993 0.433395,2.01665 -2.140131,2.87492 -1.48652,4.96679 0.09392,0.89554 1.382392,3.29305 0.915835,2.09694 0.533822,0.8215 -0.352373,-0.47106 -0.506005,-1.82783 -0.463815,-2.03657 2.114134,-2.89438 1.49231,-4.97949 0.143081,0.0427 -0.193732,-0.91472 0.0043,-0.75641 z m 5,5 c 0.194992,-0.63221 -1.367853,-3.22342 -0.67581,-1.66993 -0.626425,-1.26736 0.746807,1.62465 0.2559,2.16993 0.433395,2.01665 -2.140131,2.87492 -1.48652,4.96679 0.09392,0.89554 1.382392,3.29305 0.915835,2.09694 0.533822,0.8215 -0.352373,-0.47106 -0.506005,-1.82783 -0.463815,-2.03657 2.114134,-2.89438 1.49231,-4.97949 0.143081,0.0427 -0.193732,-0.91472 0.0043,-0.75641 z m 5,-5 c 0.194992,-0.63221 -1.367853,-3.22342 -0.67581,-1.66993 -0.626425,-1.26736 0.746807,1.62465 0.2559,2.16993 0.433395,2.01665 -2.140131,2.87492 -1.48652,4.96679 0.09392,0.89554 1.382392,3.29305 0.915835,2.09694 0.533822,0.8215 -0.352373,-0.47106 -0.506005,-1.82783 -0.463815,-2.03657 2.114134,-2.89438 1.49231,-4.97949 0.143081,0.0427 -0.193732,-0.91472 0.0043,-0.75641 z m 4,5 c 0.194992,-0.63221 -1.367853,-3.22342 -0.67581,-1.66993 -0.626425,-1.26736 0.746807,1.62465 0.2559,2.16993 0.433395,2.01665 -2.140131,2.87492 -1.48652,4.96679 0.09392,0.89554 1.382392,3.29305 0.915835,2.09694 0.533822,0.8215 -0.352373,-0.47106 -0.506005,-1.82783 -0.463815,-2.03657 2.114134,-2.89438 1.49231,-4.97949 0.143081,0.0427 -0.193732,-0.91472 0.0043,-0.75641 z" />
</svg>
