<svg xmlns="http://www.w3.org/2000/svg" xmlns:xlink="http://www.w3.org/1999/xlink" height="182" width="160"><defs><path d="m.7-.3 1.85 2.2H1.5L.05.7-1.4 1.9h-1.05l1.9-2.2H.7" fill-rule="evenodd" transform="translate(2.45 .3)" id="a"/><use height="2.2" width="5" xlink:href="#a" id="c"/><g id="b"><path d="M-15.5-41.55q-2.65-3.1-2.5-7.1v-.75q.25-4.9 5.35-9.05Q-7.15-63.5.5-64q7.6.5 13.05 5.55Q18.6-54.3 19-49.4v.75q0 4-2.6 7.1h.1-.05l-1.1 1.3v.15l-1 .9 6.55 2.35.05-.1.8.1h.95l.4.3.55.55.25.35.25 1.5-.2.45q-.35 1.55-1.4 1.65l-2.1.1-1.15-.9v-.05h-.05l.05-.15-4.95-1.8v-.05l-1.3-.5.05.55-.3.9.35.1v.05l-.15-.05-.25 8.85h-.05l-.05 1.5h.05v.1l-.05.4h-.05l-.05.5h.05l-.15 1.3-.05.95-.05.35h-1.8l-.75 1.55h5.4l1.15.4q.55.55.55 1.65 0 1.05-.55 1.6-.45.45-1.15.45H8.6v1.4l-7.7-.7h-2.45l-1.55 1.7v1.2h-1.2v5.2q-.05 1.35-.8 2.25-.7.75-1.7.75t-1.75-.75q-.75-.9-.75-2.25v-5.2h-1.2L-12.1-13l.1-.1q-1.8-1.9-2.15-4.15l-.1-1.2V-19l.05-.4.2-.85.35-1h.1v-.55l.15-.15v-1.35l.15-2.4v-.05l.5-7.75h-.05l-1.45-.45-.45-1.3-6.1 2.2.05.15h-.05v.05l-1.1.9-2.1-.1q-1.1-.1-1.45-1.65l-.15-.45.25-1.5.2-.35.6-.55.35-.3h1l.75-.1.05.1 9.05-3.25-.25-.8-1.35.35-.75-1h.2m1.75 19.65-.05-.1.05.1m3.65-6.55h.05l-.05-.05v.05" fill="#fff" fill-rule="evenodd" transform="translate(27.05 64.6)"/><path d="m15.35-40.1 3.15.95v-.05l2.55.95v-.05l.3.2v.1h.1l1.25-.1q.2.15.3 0 1.55.35 2 1.5l.15.25v.25l.15.3.2.7q.2.9-.15 1.6l-.1.2q-.35 1.9-2 2.4.05.45-.2.1l-2.7.2q-.65-.35-1.65-1.25l-4.15-1.5v.1l-1.4-.55v-.05l-.35-.1.3-.9-.05-.55 1.3.5v.05l4.95 1.8-.05.15h.05v.05l1.15.9 2.1-.1q1.05-.1 1.4-1.65l.2-.45-.25-1.5-.25-.35-.55-.55-.4-.3h-.95l-.8-.1-.05.1-6.55-2.35 1-.9m-3 20.2h2.9q1.25 0 2.05.8.9.9.9 2.8 0 1.85-.9 2.75-.8.8-2.05.8H8.6v-1.5h6.6q.7 0 1.15-.45.55-.55.55-1.6 0-1.1-.55-1.65l-1.15-.4H9.8l.75-1.55h1.8m-15.5 9.25v5.2q0 1.95-1.05 3.1Q-5.3-1.1-6.8-1.1t-2.65-1.25q-1.05-1.15-1.05-3.1v-5.2h1.2v5.2q0 1.35.75 2.25.75.75 1.75.75t1.7-.75q.75-.9.8-2.25v-5.2h1.15m-11.1-23.3-5.95 2.1-1.6 1.25q-1.6.45-2.7-.2-.3.35-.2-.1-1.7-.5-2-2.4l-.15-.2q-.35-.7-.15-1.6l.25-.7.15-.3v-.25l.1-.25q.45-1.15 2.05-1.5.05.15.3 0l1.2.1h.15l-.05-.1.3-.2.05.05 2.55-.95v.05l1.8-.65 3.2-.75 1.35-.35.25.8-9.05 3.25-.05-.1-.75.1h-1l-.35.3-.6.55-.2.35-.25 1.5.15.45q.35 1.55 1.45 1.65l2.1.1 1.1-.9v-.05h.05l-.05-.15 6.1-2.2.45 1.3" fill-rule="evenodd" transform="translate(27.05 64.6)"/><path d="M11.55 23.05q-2.65-3.1-2.5-7.1v-.75q.25-4.9 5.35-9.05Q19.9 1.1 27.55.6q7.6.5 13.05 5.55 5.05 4.15 5.45 9.05v.75q0 4-2.6 7.1" fill="none" stroke="#000" stroke-linecap="round" stroke-linejoin="round" stroke-width="1.2"/><path d="M5.4-44.05q.15.45.45.75l.7.25.95-.6q.4-.65.4-1.65 0-1.35-.9-3.25h1.05q.9 1.6.9 3.15 0 1.55-.65 2.4-.6.8-1.6.8-1.35 0-1.9-1.4-.6 1.4-1.9 1.4-1.05 0-1.65-.85Q.6-43.9.6-45.4q0-1.55.95-3.15h1q-.85 1.9-.85 3.25 0 1 .35 1.65.4.6.95.6.4 0 .7-.3l.45-.7.1-1.15V-47H5.3v1.8l.1 1.15" fill-rule="evenodd" transform="translate(27.05 64.6)"/></g></defs><path d="M57.998 29.22c5.473-55.848 9.998-10.624 9.998-10.624m40.788 10.624c-5.473-55.848-9.997-10.624-9.997-10.624" fill="#fc0" stroke="#806600" stroke-width="2.332"/><g transform="matrix(2 0 0 2 82.341 144.2)"><use height="63.5" transform="translate(-27.05 -64.6)" width="52.6" xlink:href="#b"/><use height="2.2" transform="translate(10.35 -53.3)" width="5" xlink:href="#c"/><use height="2.2" transform="translate(-5.9 -53.3)" width="5" xlink:href="#c"/></g><path d="M58.114 26.895c-.54 1.76-.154-3.628.59-.608.087 7.163-3.128-1.535-.59-2.635 2.396-.09 1.034 10.516-.898 6.796-2.511-4.702 1.589-13.267 2.718-5.59l.13.984.059 1.053m-4.054.903c-.54 1.76-.154-3.627.59-.608.087 7.164-3.128-1.535-.59-2.635 2.396-.09 1.034 10.517-.898 6.796-2.511-4.702 1.589-13.267 2.718-5.59l.13.984.059 1.053M47.86 37.921c-.54 1.759-.154-3.628.59-.609.087 7.164-3.128-1.534-.59-2.634 2.396-.091 1.034 10.516-.899 6.795-2.51-4.701 1.59-13.266 2.719-5.589l.13.983.059 1.054m1.804-5.76c-.54 1.76-.155-3.628.59-.609.086 7.164-3.129-1.534-.59-2.634 2.396-.09 1.034 10.516-.899 6.796-2.51-4.702 1.59-13.267 2.719-5.59l.13.983.058 1.054m-2.821 1.125c-.54 1.759-.154-3.628.59-.61.087 7.165-3.128-1.533-.59-2.634 2.396-.09 1.034 10.517-.899 6.796-2.51-4.701 1.59-13.266 2.719-5.589l.13.983.059 1.054m-3.31 2.174c-.54 1.76-.154-3.628.59-.608.087 7.164-3.128-1.535-.59-2.635 2.397-.09 1.034 10.516-.898 6.796-2.511-4.702 1.59-13.267 2.719-5.59l.13.984.058 1.053M93.86 17.043c-.54 1.759-.154-3.628.59-.609.087 7.164-3.128-1.534-.59-2.634 2.396-.091 1.034 10.516-.899 6.795-2.51-4.701 1.59-13.266 2.719-5.589l.13.983.059 1.054m-6.01-.583c-.539 1.76-.153-3.628.59-.608.088 7.164-3.127-1.535-.59-2.635 2.397-.09 1.035 10.517-.898 6.796-2.51-4.702 1.59-13.267 2.719-5.59l.13.984.059 1.053m-15.01 0c-.539 1.76-.153-3.628.59-.608.088 7.164-3.127-1.535-.59-2.635 2.397-.09 1.035 10.517-.898 6.796-2.51-4.702 1.59-13.267 2.719-5.59l.13.984.059 1.053m12.99.438c-.539 1.76-.153-3.628.59-.609.088 7.164-3.127-1.534-.59-2.634 2.397-.09 1.035 10.516-.898 6.796-2.51-4.702 1.59-13.267 2.719-5.59l.13.983.059 1.054m-5.348-.144c-.54 1.759-.155-3.628.59-.61.086 7.165-3.129-1.533-.59-2.634 2.395-.09 1.033 10.517-.9 6.796-2.51-4.701 1.59-13.266 2.72-5.589l.13.983.058 1.054m-3.96.024c-.54 1.759-.155-3.628.59-.609.086 7.164-3.129-1.534-.59-2.634 2.395-.091 1.033 10.516-.9 6.795-2.51-4.701 1.59-13.266 2.72-5.589l.13.983.058 1.054m-4.009-.024c-.54 1.759-.154-3.628.59-.61.087 7.165-3.128-1.533-.59-2.634 2.396-.09 1.034 10.517-.898 6.796-2.511-4.701 1.589-13.266 2.718-5.589l.13.983.059 1.054m-4.009 0c-.54 1.759-.154-3.628.59-.61.087 7.165-3.128-1.533-.59-2.634 2.396-.09 1.034 10.517-.899 6.796-2.51-4.701 1.59-13.266 2.719-5.589l.13.983.059 1.054m-4.01-.294c-.54 1.76-.154-3.628.59-.608.087 7.164-3.128-1.535-.59-2.635 2.397-.09 1.035 10.516-.898 6.796-2.511-4.702 1.59-13.267 2.719-5.59l.13.984.058 1.053m-3.96 0c-.54 1.76-.155-3.628.59-.608.086 7.164-3.129-1.535-.59-2.635 2.396-.09 1.033 10.517-.9 6.796-2.51-4.702 1.59-13.267 2.72-5.59l.13.984.058 1.053m-31.764 25c-.54 1.76-.154-3.628.59-.608.087 7.164-3.128-1.535-.59-2.635 2.396-.09 1.034 10.516-.899 6.796-2.51-4.702 1.59-13.267 2.719-5.59l.13.984.059 1.053m-.01-3c-.539 1.76-.153-3.628.59-.608.088 7.164-3.127-1.535-.59-2.635 2.397-.09 1.035 10.516-.898 6.796-2.51-4.702 1.59-13.267 2.719-5.59l.13.984.059 1.053m-.01-2c-.539 1.76-.153-3.628.59-.608.088 7.164-3.127-1.535-.59-2.635 2.397-.09 1.035 10.516-.898 6.796-2.51-4.702 1.59-13.267 2.719-5.59l.13.984.059 1.053m-.01-2.62c-.539 1.76-.153-3.628.59-.609.088 7.164-3.127-1.534-.59-2.634 2.397-.09 1.035 10.516-.898 6.796-2.51-4.702 1.59-13.267 2.719-5.59l.13.983.058 1.054m-.008-1.38c-.54 1.76-.154-3.628.59-.608.087 7.164-3.128-1.535-.59-2.635 2.396-.09 1.034 10.516-.899 6.796-2.51-4.702 1.59-13.267 2.719-5.59l.13.984.058 1.053m-.008-2.669c-.54 1.76-.155-3.627.59-.608.087 7.164-3.128-1.535-.59-2.635 2.396-.09 1.034 10.517-.899 6.796-2.51-4.701 1.59-13.266 2.719-5.589l.13.983.058 1.053m-.008-1.33c-.54 1.759-.155-3.629.59-.61.087 7.165-3.129-1.534-.59-2.634 2.396-.09 1.034 10.516-.899 6.796-2.51-4.702 1.59-13.267 2.719-5.59l.13.984.058 1.053m-.008-1.73c-.54 1.76-.155-3.627.59-.608.086 7.164-3.129-1.534-.59-2.634 2.396-.091 1.034 10.516-.899 6.796-2.51-4.702 1.59-13.267 2.719-5.59l.13.983.058 1.054m-.008-.988c-.54 1.759-.155-3.628.59-.609.086 7.164-3.129-1.534-.59-2.634 2.396-.091 1.034 10.516-.899 6.795-2.51-4.701 1.59-13.266 2.719-5.589l.13.983.058 1.054m-.008-1.283c-.54 1.76-.155-3.628.59-.608.086 7.164-3.129-1.535-.59-2.635 2.396-.09 1.034 10.516-.899 6.796-2.51-4.702 1.59-13.267 2.719-5.59l.13.984.058 1.053m-.008-1c-.54 1.76-.155-3.628.59-.608.086 7.164-3.129-1.535-.59-2.635 2.396-.09 1.034 10.516-.899 6.796-2.51-4.702 1.59-13.267 2.719-5.59l.13.984.058 1.053m-.008-1c-.54 1.76-.155-3.628.59-.608.086 7.164-3.129-1.535-.59-2.635 2.396-.09 1.034 10.516-.899 6.796-2.51-4.702 1.59-13.267 2.719-5.59l.13.984.058 1.053m-.008 0c-.54 1.76-.155-3.628.59-.608.086 7.164-3.129-1.535-.59-2.635 2.396-.09 1.034 10.516-.899 6.796-2.51-4.702 1.59-13.267 2.719-5.59l.13.984.058 1.053m-.008 0c-.54 1.76-.155-3.628.59-.608.086 7.164-3.129-1.535-.59-2.635 2.396-.09 1.034 10.516-.899 6.796-2.51-4.702 1.59-13.267 2.719-5.59l.13.984.058 1.053m-.008 0c-.54 1.76-.155-3.628.59-.608.086 7.164-3.129-1.535-.59-2.635 2.396-.09 1.034 10.516-.899 6.796-2.51-4.702 1.59-13.267 2.719-5.59l.13.984.058 1.053m-.008 0c-.54 1.76-.155-3.628.59-.608.086 7.164-3.129-1.535-.59-2.635 2.396-.09 1.034 10.516-.899 6.796-2.511-4.702 1.59-13.267 2.719-5.59l.13.984.058 1.053m-.008 0c-.54 1.76-.155-3.628.59-.608.086 7.164-3.129-1.535-.59-2.635 2.396-.09 1.034 10.516-.899 6.796-2.511-4.702 1.59-13.267 2.719-5.59l.13.984.058 1.053m-.008 0c-.54 1.76-.155-3.628.59-.608.086 7.164-3.129-1.535-.59-2.635 2.396-.09 1.033 10.516-.899 6.796-2.511-4.702 1.59-13.267 2.719-5.59l.13.984.058 1.053m-.008 0c-.54 1.76-.155-3.628.59-.608.086 7.164-3.129-1.535-.59-2.635 2.396-.09 1.033 10.516-.9 6.796-2.51-4.702 1.59-13.267 2.72-5.59l.13.984.058 1.053m-.008 0c-.54 1.76-.155-3.628.59-.608.086 7.164-3.129-1.535-.59-2.635 2.396-.09 1.033 10.516-.9 6.796-2.51-4.702 1.59-13.267 2.72-5.59l.13.984.058 1.053m-.008 0c-.54 1.76-.155-3.628.59-.608.086 7.164-3.129-1.535-.59-2.635 2.396-.09 1.033 10.516-.9 6.796-2.51-4.702 1.59-13.267 2.72-5.59l.13.984.058 1.053m-.008 0c-.54 1.76-.155-3.628.59-.608.086 7.164-3.129-1.535-.59-2.635 2.396-.09 1.033 10.516-.9 6.796-2.51-4.702 1.59-13.267 2.72-5.59l.13.984.058 1.053m-.008 0c-.54 1.76-.155-3.628.59-.608.086 7.164-3.129-1.535-.59-2.635 2.396-.09 1.033 10.516-.9 6.796-2.51-4.702 1.59-13.267 2.72-5.59l.13.984.058 1.053m-.008.27c-.54 1.76-.155-3.628.59-.608.086 7.164-3.129-1.535-.59-2.635 2.396-.09 1.033 10.516-.9 6.796-2.51-4.702 1.59-13.267 2.72-5.59l.13.984.058 1.053m-.008.41c-.54 1.76-.155-3.628.59-.609.086 7.164-3.129-1.534-.59-2.634 2.396-.09 1.033 10.516-.9 6.796-2.51-4.702 1.59-13.267 2.72-5.59l.13.983.058 1.054m-.008-.048c-.54 1.759-.155-3.628.59-.609.086 7.164-3.129-1.534-.59-2.634 2.395-.091 1.033 10.516-.9 6.795-2.51-4.701 1.59-13.266 2.72-5.589l.13.983.058 1.054m-.009.368c-.54 1.76-.154-3.628.59-.608.087 7.164-3.128-1.535-.59-2.635 2.396-.09 1.034 10.516-.899 6.796-2.51-4.702 1.59-13.267 2.719-5.59l.13.984.059 1.053m-.01.716c-.539 1.76-.154-3.628.59-.608.087 7.164-3.128-1.535-.59-2.635 2.397-.09 1.035 10.516-.898 6.796-2.51-4.702 1.59-13.267 2.719-5.59l.13.984.058 1.053m-.009.988c-.54 1.76-.154-3.628.59-.608.087 7.164-3.128-1.535-.59-2.635 2.396-.09 1.034 10.517-.898 6.796-2.511-4.702 1.589-13.267 2.718-5.59l.13.984.059 1.053m-.009.772c-.54 1.759-.154-3.628.59-.61.087 7.165-3.128-1.534-.59-2.634 2.396-.09 1.034 10.517-.899 6.796-2.51-4.701 1.59-13.266 2.719-5.589l.13.983.059 1.054m-.01.524c-.54 1.76-.154-3.628.59-.608.087 7.164-3.128-1.535-.59-2.635 2.396-.09 1.034 10.516-.898 6.796-2.511-4.702 1.589-13.267 2.718-5.59l.13.984.06 1.053m5.39 5.38c-.54 1.76-.155-3.628.59-.609.086 7.164-3.129-1.534-.59-2.634 2.396-.09 1.034 10.516-.899 6.796-2.51-4.702 1.59-13.267 2.719-5.59l.13.983.058 1.054m-.407 3.012c-.54 1.76-.155-3.628.59-.608.086 7.164-3.129-1.535-.59-2.635 2.395-.09 1.033 10.517-.9 6.796-2.51-4.702 1.59-13.267 2.72-5.59l.13.984.058 1.053M105.86 24.46c-.54 1.76-.154-3.628.59-.608.087 7.164-3.128-1.535-.59-2.635 2.396-.09 1.034 10.516-.899 6.796-2.51-4.702 1.59-13.267 2.719-5.59l.13.984.059 1.053m-4.01-1.465c-.539 1.76-.153-3.627.59-.608.088 7.164-3.127-1.535-.59-2.635 2.397-.09 1.035 10.517-.898 6.796-2.51-4.702 1.59-13.267 2.719-5.59l.13.984.059 1.053m-4.01-1.535c-.539 1.76-.153-3.628.59-.608.088 7.164-3.127-1.535-.59-2.635 2.397-.09 1.035 10.516-.898 6.796-2.51-4.702 1.59-13.267 2.719-5.59l.13.984.059 1.053m-4.01-1c-.539 1.76-.153-3.628.59-.608.088 7.164-3.127-1.535-.59-2.635 2.397-.09 1.035 10.516-.898 6.796-2.51-4.702 1.59-13.267 2.719-5.59l.13.984.059 1.053m-3.757-1c-.54 1.76-.154-3.628.59-.608.087 7.164-3.128-1.535-.59-2.635 2.396-.09 1.034 10.516-.899 6.796-2.51-4.702 1.59-13.267 2.719-5.59l.13.984.059 1.053m-30.261-2c-.54 1.76-.154-3.628.59-.608.087 7.164-3.128-1.535-.59-2.635 2.396-.09 1.034 10.516-.899 6.796-2.51-4.702 1.59-13.267 2.719-5.59l.13.984.059 1.053m-4.01 1.342c-.539 1.76-.153-3.628.59-.609.088 7.164-3.127-1.534-.59-2.634 2.397-.09 1.035 10.516-.898 6.796-2.51-4.702 1.59-13.267 2.719-5.59l.13.983.059 1.054m-4.01 1.658c-.539 1.76-.153-3.628.59-.608.088 7.164-3.127-1.535-.59-2.635 2.397-.09 1.035 10.516-.898 6.796-2.51-4.702 1.59-13.267 2.719-5.59l.13.984.059 1.053m-4.01 1c-.539 1.76-.153-3.628.59-.608.088 7.164-3.127-1.535-.59-2.635 2.397-.09 1.035 10.516-.898 6.796-2.51-4.702 1.59-13.267 2.719-5.59l.13.984.059 1.053m-4.01 1.535c-.539 1.76-.153-3.627.59-.608.088 7.164-3.127-1.535-.59-2.635 2.397-.09 1.035 10.517-.898 6.796-2.51-4.702 1.59-13.267 2.719-5.59l.13.984.059 1.053m-4.01 1.133c-.539 1.76-.153-3.628.59-.609.088 7.164-3.127-1.534-.59-2.634 2.397-.09 1.035 10.516-.898 6.796-2.51-4.702 1.59-13.267 2.719-5.59l.13.983.059 1.054m-4.01 1.88c-.539 1.76-.153-3.628.59-.609.088 7.164-3.127-1.534-.59-2.634 2.397-.091 1.035 10.516-.898 6.796-2.51-4.702 1.59-13.267 2.719-5.59l.13.983.059 1.054m-4.01 1.856c-.539 1.759-.153-3.628.59-.61.088 7.165-3.127-1.534-.59-2.634 2.397-.09 1.035 10.517-.898 6.796-2.51-4.701 1.59-13.266 2.719-5.589l.13.983.059 1.054m-4.01 2.596c-.539 1.76-.153-3.628.59-.608.088 7.164-3.127-1.535-.59-2.635 2.397-.09 1.035 10.516-.898 6.796-2.51-4.702 1.59-13.267 2.719-5.59l.13.984.059 1.053m-4.01 2.657c-.539 1.76-.153-3.628.59-.609.088 7.164-3.127-1.534-.59-2.634 2.397-.09 1.035 10.516-.898 6.796-2.51-4.702 1.59-13.267 2.719-5.59l.13.983.059 1.054m-4.01 2.844c-.539 1.76-.153-3.628.59-.609.088 7.164-3.127-1.534-.59-2.634 2.397-.09 1.035 10.516-.898 6.796-2.51-4.702 1.59-13.267 2.719-5.59l.13.983.059 1.054m-4.01 3.109c-.539 1.759-.153-3.628.59-.609.088 7.164-3.127-1.534-.59-2.634 2.397-.091 1.035 10.516-.898 6.796-2.51-4.702 1.59-13.267 2.719-5.59l.13.983.059 1.054M46.1 43.46c-.54 1.76-.154-3.628.59-.608.087 7.164-3.128-1.535-.59-2.635 2.396-.09 1.034 10.516-.898 6.796-2.511-4.702 1.589-13.267 2.718-5.59l.13.984.059 1.053m48.75-25.333c-.539 1.76-.153-3.628.59-.608.088 7.164-3.127-1.535-.59-2.635 2.397-.09 1.035 10.516-.898 6.796-2.51-4.702 1.59-13.267 2.719-5.59l.13.984.059 1.053m-4.01 0c-.539 1.76-.153-3.628.59-.608.088 7.164-3.127-1.535-.59-2.635 2.397-.09 1.035 10.516-.898 6.796-2.51-4.702 1.59-13.267 2.719-5.59l.13.984.059 1.053m-4.01-.024c-.539 1.76-.153-3.628.59-.609.088 7.164-3.127-1.534-.59-2.634 2.397-.09 1.035 10.516-.898 6.796-2.51-4.702 1.59-13.267 2.719-5.59l.13.983.059 1.054m-4.01 0c-.539 1.76-.153-3.628.59-.609.088 7.164-3.127-1.534-.59-2.634 2.397-.09 1.035 10.516-.898 6.796-2.51-4.702 1.59-13.267 2.719-5.59l.13.983.059 1.054m-4.01-.096c-.539 1.759-.153-3.628.59-.609.088 7.164-3.127-1.534-.59-2.634 2.397-.091 1.035 10.516-.898 6.795-2.51-4.701 1.59-13.266 2.719-5.589l.13.983.059 1.054m-4.01-.048c-.539 1.759-.153-3.628.59-.61.088 7.165-3.127-1.533-.59-2.634 2.397-.09 1.035 10.517-.898 6.796-2.51-4.701 1.59-13.266 2.719-5.589l.13.983.059 1.054m-4.01-.073c-.539 1.76-.153-3.628.59-.608.088 7.164-3.127-1.535-.59-2.635 2.397-.09 1.035 10.516-.898 6.796-2.51-4.702 1.59-13.267 2.719-5.59l.13.984.059 1.053m-4.01.048c-.539 1.76-.153-3.627.59-.608.088 7.164-3.127-1.535-.59-2.635 2.397-.09 1.035 10.517-.898 6.796-2.51-4.701 1.59-13.266 2.719-5.589l.13.983.059 1.053m-4.01-.048c-.539 1.76-.153-3.628.59-.608.088 7.164-3.127-1.535-.59-2.635 2.397-.09 1.035 10.516-.898 6.796-2.51-4.702 1.59-13.267 2.719-5.59l.13.984.059 1.053m-4.01 0c-.539 1.76-.153-3.628.59-.608.088 7.164-3.127-1.535-.59-2.635 2.397-.09 1.035 10.516-.898 6.796-2.51-4.702 1.59-13.267 2.719-5.59l.13.984.059 1.053m-4.01 0c-.539 1.76-.153-3.628.59-.608.088 7.164-3.127-1.535-.59-2.635 2.397-.09 1.035 10.516-.898 6.796-2.51-4.702 1.59-13.267 2.719-5.59l.13.984.059 1.053m-3.748 0c-.54 1.76-.154-3.628.59-.608.087 7.164-3.128-1.535-.59-2.635 2.396-.09 1.034 10.516-.899 6.796-2.51-4.702 1.59-13.267 2.719-5.59l.13.984.059 1.053m-3.84-.024c-.54 1.76-.155-3.628.59-.609.086 7.164-3.129-1.534-.59-2.634 2.396-.09 1.033 10.516-.9 6.796-2.51-4.702 1.59-13.267 2.72-5.59l.13.983.058 1.054m-3.816.072c-.54 1.76-.154-3.627.59-.608.087 7.164-3.128-1.535-.59-2.635 2.396-.09 1.034 10.517-.899 6.796-2.51-4.701 1.59-13.266 2.719-5.589l.13.983.059 1.053M115.86 30.46c-.54 1.76-.154-3.628.59-.608.087 7.164-3.128-1.535-.59-2.635 2.396-.09 1.034 10.516-.899 6.796-2.51-4.702 1.59-13.267 2.719-5.59l.13.984.059 1.053m-4.01-1c-.539 1.76-.153-3.628.59-.608.088 7.164-3.127-1.535-.59-2.635 2.397-.09 1.035 10.516-.898 6.796-2.51-4.702 1.59-13.267 2.719-5.59l.13.984.059 1.053m-4.01-1c-.539 1.76-.153-3.628.59-.608.088 7.164-3.127-1.535-.59-2.635 2.397-.09 1.035 10.516-.898 6.796-2.51-4.702 1.59-13.267 2.719-5.59l.13.984.059 1.053m-4.01-1c-.539 1.76-.153-3.628.59-.608.088 7.164-3.127-1.535-.59-2.635 2.397-.09 1.035 10.516-.898 6.796-2.51-4.702 1.59-13.267 2.719-5.59l.13.984.059 1.053m-4.01-1c-.539 1.76-.153-3.628.59-.608.088 7.164-3.127-1.535-.59-2.635 2.397-.09 1.035 10.516-.898 6.796-2.51-4.702 1.59-13.267 2.719-5.59l.13.984.059 1.053m-4.01 0c-.539 1.76-.153-3.628.59-.608.088 7.164-3.127-1.535-.59-2.635 2.397-.09 1.035 10.516-.898 6.796-2.51-4.702 1.59-13.267 2.719-5.59l.13.984.059 1.053m-4.01-1c-.539 1.76-.153-3.628.59-.608.088 7.164-3.127-1.535-.59-2.635 2.397-.09 1.035 10.516-.898 6.796-2.51-4.702 1.59-13.267 2.719-5.59l.13.984.059 1.053m-4.01-1c-.539 1.76-.153-3.628.59-.608.088 7.164-3.127-1.535-.59-2.635 2.397-.09 1.035 10.516-.898 6.796-2.51-4.702 1.59-13.267 2.719-5.59l.13.984.059 1.053m-4.01-1c-.539 1.76-.153-3.628.59-.608.088 7.164-3.127-1.535-.59-2.635 2.397-.09 1.035 10.516-.898 6.796-2.51-4.702 1.59-13.267 2.719-5.59l.13.984.059 1.053m-4.01 0c-.539 1.76-.153-3.628.59-.608.088 7.164-3.127-1.535-.59-2.635 2.397-.09 1.035 10.516-.898 6.796-2.51-4.702 1.59-13.267 2.719-5.59l.13.984.059 1.053m-4.01-1c-.539 1.76-.153-3.628.59-.608.088 7.164-3.127-1.535-.59-2.635 2.397-.09 1.035 10.516-.898 6.796-2.51-4.702 1.59-13.267 2.719-5.59l.13.984.059 1.053m-4.01 0c-.539 1.76-.153-3.628.59-.608.088 7.164-3.127-1.535-.59-2.635 2.397-.09 1.035 10.516-.898 6.796-2.51-4.702 1.59-13.267 2.719-5.59l.13.984.059 1.053m-4.01 0c-.539 1.76-.153-3.628.59-.608.088 7.164-3.127-1.535-.59-2.635 2.397-.09 1.035 10.516-.898 6.796-2.51-4.702 1.59-13.267 2.719-5.59l.13.984.059 1.053m-4.01 0c-.539 1.76-.153-3.628.59-.608.088 7.164-3.127-1.535-.59-2.635 2.397-.09 1.035 10.516-.898 6.796-2.51-4.702 1.59-13.267 2.719-5.59l.13.984.059 1.053m-4.01 0c-.539 1.76-.153-3.628.59-.608.088 7.164-3.127-1.535-.59-2.635 2.397-.09 1.035 10.516-.898 6.796-2.51-4.702 1.59-13.267 2.719-5.59l.13.984.059 1.053m-4.01 0c-.539 1.76-.153-3.628.59-.608.088 7.164-3.127-1.535-.59-2.635 2.397-.09 1.035 10.516-.898 6.796-2.51-4.702 1.59-13.267 2.719-5.59l.13.984.059 1.053m-4.01 0c-.539 1.76-.153-3.628.59-.608.088 7.164-3.127-1.535-.59-2.635 2.397-.09 1.035 10.516-.898 6.796-2.51-4.702 1.59-13.267 2.719-5.59l.13.984.059 1.053m-4.01 0c-.539 1.76-.153-3.628.59-.608.088 7.164-3.127-1.535-.59-2.635 2.397-.09 1.035 10.516-.898 6.796-2.51-4.702 1.59-13.267 2.719-5.59l.13.984.059 1.053m-4.01 0c-.539 1.76-.153-3.628.59-.608.088 7.164-3.127-1.535-.59-2.635 2.397-.09 1.035 10.516-.898 6.796-2.51-4.702 1.59-13.267 2.719-5.59l.13.984.059 1.053m-4.01 0c-.539 1.76-.153-3.628.59-.608.088 7.164-3.127-1.535-.59-2.635 2.397-.09 1.035 10.516-.898 6.796-2.51-4.702 1.59-13.267 2.719-5.59l.13.984.059 1.053m-4.01 0c-.539 1.76-.153-3.628.59-.608.088 7.164-3.127-1.535-.59-2.635 2.397-.09 1.035 10.516-.898 6.796-2.51-4.702 1.59-13.267 2.719-5.59l.13.984.059 1.053m-4.01 0c-.539 1.76-.153-3.628.59-.608.088 7.164-3.127-1.535-.59-2.635 2.397-.09 1.035 10.516-.898 6.796-2.51-4.702 1.59-13.267 2.719-5.59l.13.984.059 1.053m-4.01 0c-.539 1.76-.153-3.628.59-.608.088 7.164-3.127-1.535-.59-2.635 2.397-.09 1.035 10.516-.898 6.796-2.51-4.702 1.59-13.267 2.719-5.59l.13.984.059 1.053m-4.01 1c-.539 1.76-.153-3.628.59-.608.088 7.164-3.127-1.535-.59-2.635 2.397-.09 1.035 10.516-.898 6.796-2.51-4.702 1.59-13.267 2.719-5.59l.13.984.059 1.053m-4.01 1c-.539 1.76-.153-3.628.59-.608.088 7.164-3.127-1.535-.59-2.635 2.397-.09 1.035 10.516-.898 6.796-2.51-4.702 1.59-13.267 2.719-5.59l.13.984.059 1.053m-4.01 1c-.539 1.76-.153-3.628.59-.608.088 7.164-3.127-1.535-.59-2.635 2.397-.09 1.035 10.516-.898 6.796-2.51-4.702 1.59-13.267 2.719-5.59l.13.984.059 1.053m-4.01 1c-.539 1.76-.153-3.628.59-.608.088 7.164-3.127-1.535-.59-2.635 2.397-.09 1.035 10.516-.898 6.796-2.51-4.702 1.59-13.267 2.719-5.59l.13.984.059 1.053m-4.01 1c-.539 1.76-.153-3.628.59-.608.088 7.164-3.127-1.535-.59-2.635 2.397-.09 1.035 10.516-.898 6.796-2.51-4.702 1.59-13.267 2.719-5.59l.13.984.059 1.053m-4.01 2c-.539 1.76-.153-3.628.59-.608.088 7.164-3.127-1.535-.59-2.635 2.397-.09 1.035 10.516-.898 6.796-2.51-4.702 1.59-13.267 2.719-5.59l.13.984.059 1.053m-4.01 2c-.539 1.76-.153-3.628.59-.608.088 7.164-3.127-1.535-.59-2.635 2.397-.09 1.035 10.516-.898 6.796-2.51-4.702 1.59-13.267 2.719-5.59l.13.984.059 1.053m-4.01 2c-.539 1.76-.153-3.628.59-.608.088 7.164-3.127-1.535-.59-2.635 2.397-.09 1.035 10.516-.898 6.796-2.51-4.702 1.59-13.267 2.719-5.59l.13.984.059 1.053m-4.01 2c-.539 1.76-.153-3.628.59-.608.088 7.164-3.127-1.535-.59-2.635 2.397-.09 1.035 10.516-.898 6.796-2.51-4.702 1.59-13.267 2.719-5.59l.13.984.059 1.053m-4.01 2c-.539 1.76-.153-3.628.59-.608.088 7.164-3.127-1.535-.59-2.635 2.397-.09 1.035 10.516-.898 6.796-2.51-4.702 1.59-13.267 2.719-5.59l.13.984.059 1.053m-4.01 3c-.539 1.76-.153-3.628.59-.608.088 7.164-3.127-1.535-.59-2.635 2.397-.09 1.035 10.516-.898 6.796-2.51-4.702 1.59-13.267 2.719-5.59l.13.984.059 1.053m-4.01 3c-.539 1.76-.153-3.628.59-.608.088 7.164-3.127-1.535-.59-2.635 2.397-.09 1.035 10.516-.898 6.796-2.51-4.702 1.59-13.267 2.719-5.59l.13.984.059 1.053m68.99-8c-.539 1.76-.153-3.628.59-.608.088 7.164-3.127-1.535-.59-2.635 2.397-.09 1.035 10.516-.898 6.796-2.51-4.702 1.59-13.267 2.719-5.59l.13.984.059 1.053m-4.01-3c-.539 1.76-.153-3.628.59-.608.088 7.164-3.127-1.535-.59-2.635 2.397-.09 1.035 10.516-.898 6.796-2.51-4.702 1.59-13.267 2.719-5.59l.13.984.059 1.053m-4.01-3c-.539 1.76-.153-3.628.59-.608.088 7.164-3.127-1.535-.59-2.635 2.397-.09 1.035 10.516-.898 6.796-2.51-4.702 1.59-13.267 2.719-5.59l.13.984.059 1.053m-4.01-2c-.539 1.76-.153-3.628.59-.608.088 7.164-3.127-1.535-.59-2.635 2.397-.09 1.035 10.516-.898 6.796-2.51-4.702 1.59-13.267 2.719-5.59l.13.984.059 1.053m-4.01-2c-.539 1.76-.153-3.628.59-.608.088 7.164-3.127-1.535-.59-2.635 2.397-.09 1.035 10.516-.898 6.796-2.51-4.702 1.59-13.267 2.719-5.59l.13.984.059 1.053m-4.01-2c-.539 1.76-.153-3.628.59-.608.088 7.164-3.127-1.535-.59-2.635 2.397-.09 1.035 10.516-.898 6.796-2.51-4.702 1.59-13.267 2.719-5.59l.13.984.059 1.053m-4.01-2c-.539 1.76-.153-3.628.59-.608.088 7.164-3.127-1.535-.59-2.635 2.397-.09 1.035 10.516-.898 6.796-2.51-4.702 1.59-13.267 2.719-5.59l.13.984.059 1.053m-4.01-1c-.539 1.76-.153-3.628.59-.608.088 7.164-3.127-1.535-.59-2.635 2.397-.09 1.035 10.516-.898 6.796-2.51-4.702 1.59-13.267 2.719-5.59l.13.984.059 1.053m-4.01-2c-.539 1.76-.153-3.628.59-.608.088 7.164-3.127-1.535-.59-2.635 2.397-.09 1.035 10.516-.898 6.796-2.51-4.702 1.59-13.267 2.719-5.59l.13.984.059 1.053m-4.01-1c-.539 1.76-.153-3.628.59-.608.088 7.164-3.127-1.535-.59-2.635 2.397-.09 1.035 10.516-.898 6.796-2.51-4.702 1.59-13.267 2.719-5.59l.13.984.059 1.053m-4.01-1c-.539 1.76-.153-3.628.59-.608.088 7.164-3.127-1.535-.59-2.635 2.397-.09 1.035 10.517-.898 6.796-2.51-4.702 1.59-13.267 2.719-5.59l.13.984.059 1.053m-4.01 0c-.539 1.76-.153-3.628.59-.608.088 7.164-3.127-1.535-.59-2.635 2.397-.09 1.035 10.517-.898 6.796-2.51-4.702 1.59-13.267 2.719-5.59l.13.984.059 1.053m-4.01-1c-.539 1.76-.153-3.628.59-.608.088 7.164-3.127-1.535-.59-2.635 2.397-.09 1.035 10.517-.898 6.796-2.51-4.702 1.59-13.267 2.719-5.59l.13.984.059 1.053m-4.01-1c-.539 1.76-.153-3.628.59-.608.088 7.164-3.127-1.535-.59-2.635 2.397-.09 1.035 10.517-.898 6.796-2.51-4.702 1.59-13.267 2.719-5.59l.13.984.059 1.053m-4.01 0c-.539 1.76-.153-3.628.59-.608.088 7.164-3.127-1.535-.59-2.635 2.397-.09 1.035 10.517-.898 6.796-2.51-4.702 1.59-13.267 2.719-5.59l.13.984.059 1.053m-4.01-1c-.539 1.76-.153-3.628.59-.608.088 7.164-3.127-1.535-.59-2.635 2.397-.09 1.035 10.517-.898 6.796-2.51-4.702 1.59-13.267 2.719-5.59l.13.984.059 1.053m-4.01 0c-.539 1.76-.153-3.628.59-.608.088 7.164-3.127-1.535-.59-2.635 2.397-.09 1.035 10.517-.898 6.796-2.51-4.702 1.59-13.267 2.719-5.59l.13.984.059 1.053m-4.01 0c-.539 1.76-.153-3.628.59-.608.088 7.164-3.127-1.535-.59-2.635 2.397-.09 1.035 10.517-.898 6.796-2.51-4.702 1.59-13.267 2.719-5.59l.13.984.059 1.053m-4.01 0c-.539 1.76-.153-3.628.59-.608.088 7.164-3.127-1.535-.59-2.635 2.397-.09 1.035 10.517-.898 6.796-2.51-4.702 1.59-13.267 2.719-5.59l.13.984.059 1.053m-4.01 0c-.539 1.76-.153-3.628.59-.608.088 7.164-3.127-1.535-.59-2.635 2.397-.09 1.035 10.517-.898 6.796-2.51-4.702 1.59-13.267 2.719-5.59l.13.984.059 1.053m-4.01 0c-.539 1.76-.153-3.628.59-.608.088 7.164-3.127-1.535-.59-2.635 2.397-.09 1.035 10.517-.898 6.796-2.51-4.702 1.59-13.267 2.719-5.59l.13.984.059 1.053m-4.01 0c-.539 1.76-.153-3.628.59-.608.088 7.164-3.127-1.535-.59-2.635 2.397-.09 1.035 10.517-.898 6.796-2.51-4.702 1.59-13.267 2.719-5.59l.13.984.059 1.053m-4.01 1c-.539 1.76-.153-3.628.59-.608.088 7.164-3.127-1.535-.59-2.635 2.397-.09 1.035 10.517-.898 6.796-2.51-4.702 1.59-13.267 2.719-5.59l.13.984.059 1.053m-4.01 0c-.539 1.76-.153-3.628.59-.608.088 7.164-3.127-1.535-.59-2.635 2.397-.09 1.035 10.517-.898 6.796-2.51-4.702 1.59-13.267 2.719-5.59l.13.984.059 1.053m-4.01 1c-.539 1.76-.153-3.628.59-.608.088 7.164-3.127-1.535-.59-2.635 2.397-.09 1.035 10.517-.898 6.796-2.51-4.702 1.59-13.267 2.719-5.59l.13.984.059 1.053m-4.01 1c-.539 1.76-.153-3.628.59-.608.088 7.164-3.127-1.535-.59-2.635 2.397-.09 1.035 10.517-.898 6.796-2.51-4.702 1.59-13.267 2.719-5.59l.13.984.059 1.053m-4.01 1c-.539 1.76-.153-3.628.59-.608.088 7.164-3.127-1.535-.59-2.635 2.397-.09 1.035 10.516-.898 6.796-2.51-4.702 1.59-13.267 2.719-5.59l.13.984.059 1.053m-4.01 1c-.539 1.76-.153-3.628.59-.608.088 7.164-3.127-1.535-.59-2.635 2.397-.09 1.035 10.516-.898 6.796-2.51-4.702 1.59-13.267 2.719-5.59l.13.984.059 1.053m-4.01 1c-.539 1.76-.153-3.628.59-.608.088 7.164-3.127-1.535-.59-2.635 2.397-.09 1.035 10.516-.898 6.796-2.51-4.702 1.59-13.267 2.719-5.59l.13.984.059 1.053m-4.01 2c-.539 1.76-.153-3.628.59-.608.088 7.164-3.127-1.535-.59-2.635 2.397-.09 1.035 10.516-.898 6.796-2.51-4.702 1.59-13.267 2.719-5.59l.13.984.059 1.053m-4.01 1c-.539 1.76-.153-3.628.59-.608.088 7.164-3.127-1.535-.59-2.635 2.397-.09 1.035 10.516-.898 6.796-2.51-4.702 1.59-13.267 2.719-5.59l.13.984.059 1.053m-4.01 2c-.539 1.76-.153-3.628.59-.608.088 7.164-3.127-1.535-.59-2.635 2.397-.09 1.035 10.516-.898 6.796-2.51-4.702 1.59-13.267 2.719-5.59l.13.984.059 1.053M54.999 26c-.539 1.76-.154-3.628.59-.609.087 7.164-3.128-1.534-.59-2.634 2.397-.09 1.035 10.516-.898 6.796-2.51-4.702 1.59-13.267 2.719-5.59l.13.983.058 1.054M53 28c-.54 1.76-.155-3.628.59-.609.086 7.164-3.129-1.534-.59-2.634 2.396-.09 1.034 10.516-.899 6.796-2.51-4.702 1.59-13.267 2.719-5.59l.13.983.058 1.054M51 31c-.54 1.76-.155-3.628.59-.609.086 7.164-3.129-1.534-.59-2.634 2.396-.09 1.034 10.516-.899 6.796-2.51-4.702 1.59-13.267 2.719-5.59l.13.983.058 1.054M49 34.49c-.54 1.76-.155-3.627.59-.608.086 7.164-3.129-1.534-.59-2.634 2.396-.09 1.034 10.516-.899 6.796-2.51-4.702 1.59-13.267 2.719-5.59l.13.983.058 1.054M47 39c-.54 1.76-.155-3.628.59-.609.086 7.164-3.129-1.534-.59-2.634 2.396-.09 1.034 10.516-.899 6.796-2.51-4.702 1.59-13.267 2.719-5.59l.13.983.058 1.054M45 43c-.54 1.76-.155-3.628.59-.609.086 7.164-3.129-1.534-.59-2.634 2.396-.09 1.034 10.516-.899 6.796-2.51-4.702 1.59-13.267 2.719-5.59l.13.983.058 1.054" fill="none" stroke="green" stroke-width=".418"/><path d="M55 102h52v3h-3c-.867 1.378-1.83 2.718-2.138 4.356-.814 2.93-1.987 5.784-2.273 8.83-5.392-.38-10.78-.879-16.174-1.186H79c-.93 1.215-2.048 2.358-2.864 3.617l-.095 2.283h-14.7c-2.566-3.996-5.833-7.678-7.114-12.347a11.44 11.44 0 0 1 .439-7.55L55 102z" fill="#ffd42a" stroke="#000"/><path d="M88.94 107.417c.486-.45.427-3.474.25-1.784.091-1.41-.166 1.78-.863 2.007-.695 2.006-3.582 1.498-3.856 3.881-.317.825-.343 3.34-.152 1.823.01 1.457-.087-1.077.642-2.027 1.022-1.709 3.528-1.549 3.979-3.9zm14-3c.486-.45.427-3.474.25-1.784.091-1.41-.166 1.78-.863 2.007-.695 2.006-3.582 1.498-3.856 3.881-.317.825-.343 3.34-.152 1.823.01 1.457-.087-1.077.642-2.027 1.022-1.709 3.528-1.549 3.979-3.9zm-6 6c.486-.45.427-3.474.25-1.784.091-1.41-.166 1.78-.863 2.007-.695 2.006-3.582 1.498-3.856 3.881-.317.825-.343 3.34-.152 1.823.01 1.457-.087-1.077.642-2.027 1.022-1.709 3.528-1.549 3.979-3.9zm1-6c.486-.45.427-3.474.25-1.784.091-1.41-.166 1.78-.863 2.007-.695 2.006-3.582 1.498-3.856 3.881-.317.825-.343 3.34-.152 1.823.01 1.457-.087-1.077.642-2.027 1.022-1.709 3.528-1.549 3.979-3.9zm-6 6c.486-.45.427-3.474.25-1.784.091-1.41-.166 1.78-.863 2.007-.695 2.006-3.582 1.498-3.856 3.881-.317.825-.343 3.34-.152 1.823.01 1.457-.087-1.077.642-2.027 1.022-1.709 3.528-1.549 3.979-3.9zm-12.521-2.151c-.633-.195-3.223 1.367-1.67.675-1.268.627 1.624-.746 2.17-.255 2.084-.402 3.088 2.353 5.289 1.398.872-.137 3.062-1.372 1.654-.78 1.256-.737-.89.614-2.077.458-1.99-.031-3.104-2.282-5.367-1.496zm-7-4c-.633-.195-3.223 1.367-1.67.675-1.268.627 1.624-.746 2.17-.255 2.084-.402 3.088 2.353 5.289 1.398.872-.137 3.063-1.372 1.654-.78 1.257-.737-.89.614-2.076.458-1.991-.031-3.105-2.282-5.368-1.496zm-14 10c-.633-.195-3.223 1.367-1.67.675-1.268.627 1.624-.746 2.17-.255 2.084-.402 3.088 2.353 5.289 1.398.872-.137 3.063-1.372 1.654-.78 1.257-.737-.89.614-2.076.458-1.991-.031-3.105-2.282-5.368-1.496zm11-2c-.633-.195-3.223 1.367-1.67.675-1.268.627 1.624-.746 2.17-.255 2.084-.402 3.088 2.353 5.289 1.398.872-.137 3.063-1.372 1.654-.78 1.257-.737-.89.614-2.076.458-1.991-.031-3.105-2.282-5.368-1.496zm-7-4c-.633-.195-3.223 1.367-1.67.675-1.268.627 1.624-.746 2.17-.255 2.084-.402 3.088 2.353 5.289 1.398.872-.137 3.063-1.372 1.654-.78 1.257-.737-.89.614-2.076.458-1.991-.031-3.105-2.282-5.368-1.496zm-6-4c-.633-.195-3.223 1.367-1.67.675-1.268.627 1.624-.746 2.17-.255 2.084-.402 3.088 2.353 5.289 1.398.872-.137 3.063-1.372 1.654-.78 1.257-.737-.89.614-2.076.458-1.991-.031-3.105-2.282-5.368-1.496zm13 14c-.633-.195-3.223 1.367-1.67.675-1.268.627 1.624-.746 2.17-.255 2.084-.402 3.088 2.353 5.289 1.398.872-.137 3.063-1.372 1.654-.78 1.257-.737-.89.614-2.076.458-1.991-.031-3.105-2.282-5.368-1.496zm-7 1c-.633-.195-3.223 1.367-1.67.675-1.268.627 1.624-.746 2.17-.255 2.084-.402 3.088 2.353 5.289 1.398.872-.137 3.063-1.372 1.654-.78 1.257-.737-.89.614-2.076.458-1.991-.031-3.105-2.282-5.368-1.496z" stroke="#000" stroke-width=".5" stroke-linejoin="round"/></svg>