<svg xmlns="http://www.w3.org/2000/svg" xmlns:xlink="http://www.w3.org/1999/xlink" height="182" width="160"><defs><path d="m.7-.3 1.85 2.2H1.5L.05.7-1.4 1.9h-1.05l1.9-2.2H.7" fill-rule="evenodd" transform="translate(2.45 .3)" id="a"/><use height="2.2" width="5" xlink:href="#a" id="c"/><g id="b"><path d="M-15.5-41.55q-2.65-3.1-2.5-7.1-.15-5.3 5.35-9.8Q-7.15-63.5.5-64q7.6.5 13.05 5.55 5.45 4.5 5.45 9.8 0 4-2.6 7.1h.1-.05l-2.6 3.1v.8l-.2-.95-.8.05.65 9.65h.15l.25.75.2.5.2.4-.15.45-.3.75-.2.35-.9.7h-.05l-.05 1.5h.05l-.05.5h-.05l-.35 4.2-1.05 4.1-1.65 4v.05H8.4v5.2Q8.35-4.1 7.6-3.2q-.65.75-1.7.75-1 0-1.7-.75-.8-.9-.8-2.25v-5.2H2.1v-1.2h-.3V-12l-.9-1.55h-2.45l-1.55 1.7v1.2h-1.2v5.2q-.05 1.35-.8 2.25-.7.75-1.7.75t-1.75-.75q-.75-.9-.75-2.25v-5.2h-1.2L-12.1-13l.1-.1q-1.8-1.9-2.15-4.15l-.1-1.2.05-.95.55-1.85h.1v-.55l.15-.15V-24q.75.6 1.55.55l.25-.05q1.9.5 3-.85.4.2.2-.15 1-.75 1.25-2.4-.05-.7-.45-2l.45-6.3-1.35-.1-.5 6.45.15.05v.05h.05l.4 1.4q.15 1.45-.95 1.9-.55.9-2.1.6h-.5q-.6-.2-1.3-.85l-.2-.35-.25-.75-.15-.45.15-.4.25-.5.25-.75h.1l.7-9.65-.85-.05-.4-.05v-.15l-2.05-2.75h.2m1.75 19.65-.05-.1.05.1m3.65-6.55h.05l-.05-.05v.05" fill="#fff" fill-rule="evenodd" transform="translate(18.6 64.6)"/><path d="m13.85-37.65.8 5.6.05-.05v.1l.2 2.65v.35h-.1v.1q.25.7.6 1.1-.05.25.15.3.3 1.6-.6 2.45l-.15.2q-.15-.05-.2.1l-.25.25-.55.5q-.55.4-1.1.5h-.05l.05-1.5h.05l.9-.7.2-.35.3-.75.15-.45-.2-.4-.2-.5-.25-.75h-.15l-.65-9.65.8-.05.2.95m-4.3 27v5.2q0 1.95-1 3.1Q7.45-1.1 5.9-1.1q-1.5 0-2.65-1.25-1.05-1.15-1-3.1v-5.2H3.4v5.2q0 1.35.8 2.25.7.75 1.7.75 1.05 0 1.7-.75.75-.9.8-2.25v-5.2h1.15m-12.7 0v5.2q0 1.95-1.05 3.1Q-5.3-1.1-6.8-1.1t-2.65-1.25q-1.05-1.15-1.05-3.1v-5.2h1.2v5.2q0 1.35.75 2.25.75.75 1.75.75t1.7-.75q.75-.9.8-2.25v-5.2h1.15M-13.4-24l-.55-.5-.2-.25-.2-.1-.2-.2q-.9-.85-.55-2.45.15-.05.15-.3l.55-1.1.05-.1h-.1l-.05-.35h.05l.2-2.65v-.1l.05.05.95-6.55.85.05-.7 9.65h-.1l-.25.75-.25.5-.15.4.15.45.25.75.2.35q.7.65 1.3.85h.5q1.55.3 2.1-.6 1.1-.45.95-1.9l-.4-1.4h-.05v-.05l-.15-.05.5-6.45 1.35.1-.45 6.3q.4 1.3.45 2-.25 1.65-1.25 2.4.2.35-.2.15-1.1 1.35-3 .85l-.25.05q-.8.05-1.55-.55" fill-rule="evenodd" transform="translate(18.6 64.6)"/><path d="M3.1 23.05q-2.65-3.1-2.5-7.1-.15-5.3 5.35-9.8Q11.45 1.1 19.1.6q7.6.5 13.05 5.55 5.45 4.5 5.45 9.8 0 4-2.6 7.1" fill="none" stroke="#000" stroke-linecap="round" stroke-linejoin="round" stroke-width="1.2"/><path d="M5.4-44.05q.15.45.45.75l.7.25.95-.6q.4-.65.4-1.65 0-1.35-.9-3.25h1.05q.9 1.6.9 3.15 0 1.55-.65 2.4-.6.8-1.6.8-1.35 0-1.9-1.4-.6 1.4-1.9 1.4-1.05 0-1.65-.85Q.6-43.9.6-45.4q0-1.55.95-3.15h1q-.85 1.9-.85 3.25 0 1 .35 1.65.4.6.95.6.4 0 .7-.3l.45-.7.1-1.15V-47H5.3v1.8l.1 1.15" fill-rule="evenodd" transform="translate(18.6 64.6)"/></g></defs><path d="M57.998 29.22c5.473-55.848 9.997-10.624 9.997-10.624m40.789 10.624c-5.473-55.848-9.997-10.624-9.997-10.624" fill="#fc0" stroke="#806600" stroke-width="2.332"/><g transform="matrix(2 0 0 2 82.341 144.2)"><use height="63.5" transform="translate(-18.6 -64.6)" width="38.2" xlink:href="#b"/><use height="2.2" transform="translate(10.35 -53.3)" width="5" xlink:href="#c"/><use height="2.2" transform="translate(-5.9 -53.3)" width="5" xlink:href="#c"/></g><path d="M58.115 26.895c-.54 1.76-.155-3.628.59-.608.086 7.164-3.129-1.535-.59-2.635 2.395-.09 1.033 10.516-.9 6.796-2.51-4.702 1.59-13.267 2.72-5.59l.13.984.058 1.053m-4.053.903c-.54 1.76-.155-3.627.59-.608.086 7.164-3.129-1.535-.59-2.635 2.396-.09 1.033 10.517-.9 6.796-2.51-4.701 1.59-13.267 2.72-5.589l.13.983.058 1.053M47.86 37.921c-.54 1.759-.154-3.628.59-.609.087 7.164-3.128-1.534-.59-2.634 2.396-.091 1.034 10.516-.899 6.795-2.51-4.701 1.59-13.266 2.719-5.589l.13.983.059 1.054m1.804-5.76c-.54 1.76-.154-3.628.59-.609.087 7.164-3.128-1.534-.59-2.634 2.396-.09 1.034 10.516-.899 6.796-2.51-4.702 1.59-13.267 2.719-5.59l.13.983.059 1.054m-2.822 1.125c-.54 1.759-.154-3.628.59-.61.087 7.165-3.128-1.533-.59-2.633 2.396-.091 1.034 10.516-.899 6.795-2.51-4.701 1.59-13.266 2.719-5.589l.13.983.059 1.054M49.56 35.46c-.54 1.76-.154-3.628.59-.608.087 7.164-3.128-1.535-.59-2.635 2.396-.09 1.034 10.517-.899 6.796-2.51-4.702 1.59-13.267 2.719-5.59l.13.984.059 1.053M93.86 17.043c-.54 1.76-.154-3.628.59-.609.087 7.164-3.128-1.534-.59-2.634 2.396-.091 1.034 10.516-.899 6.796-2.51-4.702 1.59-13.267 2.719-5.59l.13.983.059 1.054m-6.009-.583c-.54 1.76-.154-3.628.59-.608.087 7.164-3.128-1.535-.59-2.635 2.396-.09 1.034 10.517-.899 6.796-2.51-4.702 1.59-13.267 2.719-5.59l.13.984.059 1.053m-15.009 0c-.54 1.76-.154-3.628.59-.608.087 7.164-3.128-1.535-.59-2.635 2.396-.09 1.034 10.517-.899 6.796-2.51-4.702 1.59-13.267 2.719-5.59l.13.984.059 1.053m12.991.438c-.54 1.76-.154-3.628.59-.608.087 7.163-3.128-1.535-.59-2.635 2.396-.09 1.034 10.516-.899 6.796-2.51-4.702 1.59-13.267 2.719-5.59l.13.984.059 1.053m-5.348-.144c-.54 1.759-.155-3.628.59-.61.086 7.165-3.129-1.533-.59-2.633 2.396-.091 1.034 10.516-.899 6.795-2.51-4.701 1.59-13.266 2.719-5.589l.13.983.058 1.054m-3.96.024c-.54 1.759-.155-3.628.59-.609.086 7.164-3.129-1.534-.59-2.634 2.396-.091 1.034 10.516-.899 6.795-2.51-4.701 1.59-13.266 2.719-5.589l.13.983.058 1.054m-4.008-.024c-.54 1.759-.155-3.628.59-.61.086 7.165-3.129-1.533-.59-2.633 2.395-.091 1.033 10.516-.9 6.795-2.51-4.701 1.59-13.266 2.72-5.589l.13.983.058 1.054m-4.009 0c-.54 1.759-.154-3.628.59-.61.087 7.165-3.128-1.533-.59-2.633 2.396-.091 1.034 10.516-.899 6.795-2.51-4.701 1.59-13.266 2.72-5.589l.129.983.059 1.054m-4.009-.294c-.54 1.76-.154-3.628.59-.608.087 7.164-3.128-1.535-.59-2.635 2.396-.09 1.034 10.517-.899 6.796-2.51-4.702 1.59-13.267 2.719-5.59l.13.984.059 1.053m-3.961 0c-.54 1.76-.154-3.628.59-.608.087 7.164-3.128-1.535-.59-2.635 2.396-.09 1.034 10.517-.899 6.796-2.51-4.702 1.59-13.267 2.719-5.59l.13.984.059 1.053m-31.765 25c-.54 1.76-.154-3.628.59-.608.087 7.164-3.128-1.535-.59-2.635 2.396-.09 1.034 10.517-.899 6.796-2.51-4.702 1.59-13.267 2.719-5.59l.13.984.059 1.053m-.009-3c-.54 1.76-.154-3.628.59-.608.087 7.164-3.128-1.535-.59-2.635 2.396-.09 1.034 10.517-.899 6.796-2.51-4.702 1.59-13.267 2.719-5.59l.13.984.059 1.053m-.009-2c-.54 1.76-.154-3.628.59-.608.087 7.164-3.128-1.535-.59-2.635 2.396-.09 1.034 10.517-.899 6.796-2.51-4.702 1.59-13.267 2.719-5.59l.13.984.059 1.053m-.009-2.62c-.54 1.76-.154-3.628.59-.608.087 7.163-3.128-1.535-.59-2.635 2.396-.09 1.034 10.516-.899 6.796-2.51-4.702 1.59-13.267 2.719-5.59l.13.984.059 1.053m-.009-1.38c-.54 1.76-.154-3.628.59-.608.087 7.164-3.128-1.535-.59-2.635 2.396-.09 1.034 10.517-.899 6.796-2.51-4.702 1.59-13.267 2.719-5.59l.13.984.059 1.053m-.009-2.668c-.54 1.759-.154-3.628.59-.61.087 7.165-3.128-1.534-.59-2.634 2.396-.09 1.034 10.517-.899 6.796-2.51-4.701 1.59-13.266 2.719-5.589l.13.983.059 1.054m-.009-1.332c-.54 1.76-.154-3.628.59-.608.087 7.164-3.128-1.535-.59-2.635 2.396-.09 1.034 10.517-.899 6.796-2.51-4.702 1.59-13.267 2.719-5.59l.13.984.059 1.053m-.009-1.73c-.54 1.76-.154-3.627.59-.608.087 7.164-3.128-1.534-.59-2.634 2.396-.091 1.034 10.516-.899 6.796-2.51-4.702 1.59-13.267 2.719-5.59l.13.983.059 1.054m-.009-.988c-.54 1.759-.154-3.628.59-.609.087 7.164-3.128-1.534-.59-2.634 2.396-.091 1.034 10.516-.899 6.795-2.51-4.701 1.59-13.266 2.719-5.589l.13.983.059 1.054m-.009-1.283c-.54 1.76-.154-3.628.59-.608.087 7.164-3.128-1.535-.59-2.635 2.396-.09 1.034 10.517-.899 6.796-2.51-4.702 1.59-13.267 2.719-5.59l.13.984.059 1.053m-.009-1c-.54 1.76-.154-3.628.59-.608.087 7.164-3.128-1.535-.59-2.635 2.396-.09 1.034 10.517-.899 6.796-2.51-4.702 1.59-13.267 2.719-5.59l.13.984.059 1.053m-.009-1c-.54 1.76-.154-3.628.59-.608.087 7.164-3.128-1.535-.59-2.635 2.396-.09 1.034 10.517-.899 6.796-2.51-4.702 1.59-13.267 2.719-5.59l.13.984.059 1.053m-.009 0c-.54 1.76-.154-3.628.59-.608.087 7.164-3.128-1.535-.59-2.635 2.396-.09 1.034 10.517-.899 6.796-2.51-4.702 1.59-13.267 2.719-5.59l.13.984.059 1.053m-.009 0c-.54 1.76-.154-3.628.59-.608.087 7.164-3.128-1.535-.59-2.635 2.396-.09 1.034 10.517-.899 6.796-2.51-4.702 1.59-13.267 2.719-5.59l.13.984.059 1.053m-.009 0c-.54 1.76-.154-3.628.59-.608.087 7.164-3.128-1.535-.59-2.635 2.396-.09 1.034 10.517-.899 6.796-2.51-4.702 1.59-13.267 2.719-5.59l.13.984.059 1.053m-.009 0c-.54 1.76-.154-3.628.59-.608.087 7.164-3.128-1.535-.59-2.635 2.396-.09 1.034 10.517-.899 6.796-2.51-4.702 1.59-13.267 2.719-5.59l.13.984.059 1.053m-.009 0c-.54 1.76-.154-3.628.59-.608.087 7.164-3.128-1.535-.59-2.635 2.396-.09 1.034 10.517-.899 6.796-2.51-4.702 1.59-13.267 2.719-5.59l.13.984.059 1.053m-.009 0c-.54 1.76-.154-3.628.59-.608.087 7.164-3.128-1.535-.59-2.635 2.396-.09 1.034 10.517-.899 6.796-2.51-4.702 1.59-13.267 2.719-5.59l.13.984.059 1.053m-.01 0c-.539 1.76-.153-3.628.59-.608.088 7.164-3.127-1.535-.59-2.635 2.397-.09 1.035 10.517-.898 6.796-2.51-4.702 1.59-13.267 2.719-5.59l.13.984.059 1.053m-.01 0c-.539 1.76-.153-3.628.59-.608.088 7.164-3.127-1.535-.59-2.635 2.397-.09 1.035 10.517-.898 6.796-2.51-4.702 1.59-13.267 2.719-5.59l.13.984.059 1.053m-.01 0c-.539 1.76-.153-3.628.59-.608.088 7.164-3.127-1.535-.59-2.635 2.397-.09 1.035 10.517-.898 6.796-2.51-4.702 1.59-13.267 2.719-5.59l.13.984.059 1.053m-.01 0c-.539 1.76-.153-3.628.59-.608.088 7.164-3.127-1.535-.59-2.635 2.397-.09 1.035 10.517-.898 6.796-2.51-4.702 1.59-13.267 2.719-5.59l.13.984.058 1.053m-.008 0c-.54 1.76-.154-3.628.59-.608.087 7.164-3.128-1.535-.59-2.635 2.396-.09 1.034 10.517-.899 6.796-2.51-4.702 1.59-13.267 2.719-5.59l.13.984.058 1.053m-.008.27c-.54 1.76-.155-3.628.59-.608.087 7.164-3.128-1.535-.59-2.635 2.396-.09 1.034 10.517-.899 6.796-2.51-4.702 1.59-13.267 2.719-5.59l.13.984.058 1.053m-.008.41c-.54 1.76-.155-3.628.59-.609.087 7.164-3.129-1.534-.59-2.634 2.396-.09 1.034 10.516-.899 6.796-2.51-4.702 1.59-13.267 2.719-5.59l.13.983.058 1.054m-.008-.048c-.54 1.76-.155-3.628.59-.609.086 7.164-3.129-1.534-.59-2.634 2.396-.091 1.034 10.516-.899 6.796-2.51-4.702 1.59-13.267 2.719-5.59l.13.983.058 1.054m-.009.368c-.54 1.76-.154-3.628.59-.608.087 7.164-3.128-1.535-.59-2.635 2.396-.09 1.034 10.517-.898 6.796-2.511-4.702 1.589-13.267 2.718-5.59l.13.984.059 1.053m-.009.716c-.54 1.76-.154-3.628.59-.608.087 7.164-3.128-1.535-.59-2.635 2.396-.09 1.034 10.516-.899 6.796-2.51-4.702 1.59-13.267 2.719-5.59l.13.984.059 1.053m-.01.988c-.54 1.76-.154-3.627.59-.608.087 7.164-3.128-1.535-.59-2.635 2.397-.09 1.034 10.517-.898 6.796-2.511-4.702 1.589-13.267 2.718-5.59l.13.984.06 1.053m-.01.772c-.54 1.759-.154-3.628.59-.61.087 7.165-3.128-1.533-.59-2.634 2.396-.09 1.034 10.517-.899 6.796-2.51-4.701 1.59-13.266 2.719-5.589l.13.983.059 1.054m-.01.524c-.539 1.76-.154-3.628.59-.608.087 7.164-3.128-1.535-.59-2.635 2.397-.09 1.035 10.517-.898 6.796-2.51-4.702 1.59-13.267 2.719-5.59l.13.984.058 1.053m5.391 5.38c-.54 1.76-.154-3.628.59-.609.087 7.164-3.128-1.534-.59-2.634 2.396-.09 1.034 10.516-.899 6.796-2.51-4.702 1.59-13.267 2.719-5.59l.13.983.059 1.054m-.408 3.012c-.54 1.76-.155-3.627.59-.608.086 7.164-3.129-1.535-.59-2.635 2.396-.09 1.034 10.517-.899 6.796-2.51-4.702 1.59-13.267 2.719-5.589l.13.983.058 1.053M105.86 24.46c-.54 1.76-.154-3.628.59-.608.087 7.164-3.128-1.535-.59-2.635 2.396-.09 1.034 10.517-.899 6.796-2.51-4.702 1.59-13.267 2.719-5.59l.13.984.059 1.053m-4.009-1.465c-.54 1.76-.154-3.627.59-.608.087 7.164-3.128-1.535-.59-2.635 2.396-.09 1.034 10.517-.899 6.796-2.51-4.701 1.59-13.267 2.719-5.589l.13.983.059 1.053m-4.009-1.535c-.54 1.76-.154-3.628.59-.608.087 7.164-3.128-1.535-.59-2.635 2.396-.09 1.034 10.517-.899 6.796-2.51-4.702 1.59-13.267 2.719-5.59l.13.984.059 1.053m-4.009-1c-.54 1.76-.154-3.628.59-.608.087 7.164-3.128-1.535-.59-2.635 2.396-.09 1.034 10.517-.899 6.796-2.51-4.702 1.59-13.267 2.719-5.59l.13.984.059 1.053m-3.757-1c-.54 1.76-.154-3.628.59-.608.087 7.164-3.128-1.535-.59-2.635 2.396-.09 1.034 10.517-.898 6.796-2.511-4.702 1.589-13.267 2.718-5.59l.13.984.06 1.053m-30.262-2c-.54 1.76-.154-3.628.59-.608.087 7.164-3.128-1.535-.59-2.635 2.396-.09 1.034 10.517-.899 6.796-2.51-4.702 1.59-13.267 2.719-5.59l.13.984.059 1.053m-4.009 1.342c-.54 1.76-.154-3.628.59-.609.087 7.164-3.128-1.534-.59-2.634 2.396-.09 1.034 10.516-.899 6.796-2.51-4.702 1.59-13.267 2.719-5.59l.13.983.059 1.054M65.86 20.46c-.54 1.76-.154-3.628.59-.608.087 7.164-3.128-1.535-.59-2.635 2.396-.09 1.034 10.517-.899 6.796-2.51-4.702 1.59-13.267 2.719-5.59l.13.984.059 1.053m-4.009 1c-.54 1.76-.154-3.628.59-.608.087 7.164-3.128-1.535-.59-2.635 2.396-.09 1.034 10.517-.899 6.796-2.51-4.702 1.59-13.267 2.719-5.59l.13.984.059 1.053m-4.009 1.535c-.54 1.76-.154-3.627.59-.608.087 7.164-3.128-1.535-.59-2.635 2.396-.09 1.034 10.517-.899 6.796-2.51-4.701 1.59-13.267 2.719-5.589l.13.983.059 1.053m-4.009 1.133c-.54 1.76-.154-3.628.59-.609.087 7.164-3.128-1.534-.59-2.634 2.396-.09 1.034 10.516-.899 6.796-2.51-4.702 1.59-13.267 2.719-5.59l.13.983.059 1.054m-4.009 1.88c-.54 1.76-.154-3.628.59-.609.087 7.164-3.128-1.534-.59-2.634 2.396-.091 1.034 10.516-.899 6.796-2.51-4.702 1.59-13.267 2.719-5.59l.13.983.059 1.054m-4.009 1.856c-.54 1.759-.154-3.628.59-.61.087 7.165-3.128-1.534-.59-2.634 2.396-.09 1.034 10.517-.899 6.796-2.51-4.701 1.59-13.266 2.719-5.589l.13.983.059 1.054M53.86 30.46c-.54 1.76-.154-3.628.59-.608.087 7.164-3.128-1.535-.59-2.635 2.396-.09 1.034 10.517-.899 6.796-2.51-4.702 1.59-13.267 2.719-5.59l.13.984.059 1.053m-4.009 2.657c-.54 1.76-.154-3.628.59-.608.087 7.163-3.128-1.535-.59-2.635 2.396-.09 1.034 10.516-.899 6.796-2.51-4.702 1.59-13.267 2.719-5.59l.13.984.059 1.053m-4.009 2.844c-.54 1.76-.154-3.628.59-.609.087 7.164-3.128-1.534-.59-2.634 2.396-.09 1.034 10.516-.899 6.796-2.51-4.702 1.59-13.267 2.719-5.59l.13.983.059 1.054M47.86 39.07c-.54 1.76-.154-3.628.59-.609.087 7.164-3.128-1.534-.59-2.634 2.396-.091 1.034 10.516-.899 6.796-2.51-4.702 1.59-13.267 2.719-5.59l.13.983.059 1.054M46.1 43.46c-.54 1.76-.155-3.628.59-.608.086 7.164-3.129-1.535-.59-2.635 2.396-.09 1.033 10.517-.9 6.796-2.51-4.702 1.59-13.267 2.72-5.59l.13.984.058 1.053M96.86 18.127c-.54 1.76-.154-3.628.59-.608.087 7.164-3.128-1.535-.59-2.635 2.396-.09 1.034 10.516-.899 6.796-2.51-4.702 1.59-13.267 2.719-5.59l.13.984.059 1.053m-4.009 0c-.54 1.76-.154-3.628.59-.608.087 7.164-3.128-1.535-.59-2.635 2.396-.09 1.034 10.516-.899 6.796-2.51-4.702 1.59-13.267 2.719-5.59l.13.984.059 1.053m-4.009-.024c-.54 1.76-.154-3.628.59-.609.087 7.164-3.128-1.534-.59-2.634 2.396-.09 1.034 10.516-.899 6.796-2.51-4.702 1.59-13.267 2.719-5.59l.13.983.059 1.054m-4.009 0c-.54 1.76-.154-3.628.59-.609.087 7.164-3.128-1.534-.59-2.634 2.396-.09 1.034 10.516-.899 6.796-2.51-4.702 1.59-13.267 2.719-5.59l.13.983.059 1.054m-4.009-.096c-.54 1.759-.154-3.628.59-.609.087 7.164-3.128-1.534-.59-2.634 2.396-.091 1.034 10.516-.899 6.796-2.51-4.702 1.59-13.267 2.719-5.59l.13.983.059 1.054m-4.009-.048c-.54 1.759-.154-3.628.59-.61.087 7.165-3.128-1.533-.59-2.634 2.396-.09 1.034 10.517-.899 6.796-2.51-4.701 1.59-13.266 2.719-5.589l.13.983.059 1.054m-4.009-.073c-.54 1.76-.154-3.628.59-.608.087 7.164-3.128-1.535-.59-2.635 2.396-.09 1.034 10.516-.899 6.796-2.51-4.702 1.59-13.267 2.719-5.59l.13.984.059 1.053m-4.009.049c-.54 1.759-.154-3.628.59-.61.087 7.165-3.128-1.534-.59-2.634 2.396-.09 1.034 10.517-.899 6.796-2.51-4.701 1.59-13.266 2.719-5.589l.13.983.059 1.054m-4.009-.049c-.54 1.76-.154-3.628.59-.608.087 7.164-3.128-1.535-.59-2.635 2.396-.09 1.034 10.516-.899 6.796-2.51-4.702 1.59-13.267 2.719-5.59l.13.984.059 1.053m-4.009 0c-.54 1.76-.154-3.628.59-.608.087 7.164-3.128-1.535-.59-2.635 2.396-.09 1.034 10.516-.899 6.796-2.51-4.702 1.59-13.267 2.719-5.59l.13.984.059 1.053m-4.009 0c-.54 1.76-.154-3.628.59-.608.087 7.164-3.128-1.535-.59-2.635 2.396-.09 1.034 10.516-.899 6.796-2.51-4.702 1.59-13.267 2.719-5.59l.13.984.059 1.053m-3.748 0c-.54 1.76-.154-3.628.59-.608.087 7.164-3.128-1.535-.59-2.635 2.396-.09 1.034 10.516-.898 6.796-2.511-4.702 1.589-13.267 2.718-5.59l.13.984.06 1.053m-3.841-.024c-.54 1.76-.154-3.628.59-.609.087 7.164-3.128-1.534-.59-2.634 2.396-.09 1.034 10.516-.899 6.796-2.51-4.702 1.59-13.267 2.719-5.59l.13.983.058 1.054m-3.816.073c-.54 1.759-.154-3.628.59-.61.087 7.165-3.128-1.534-.59-2.634 2.396-.09 1.034 10.517-.898 6.796-2.511-4.701 1.589-13.266 2.718-5.589l.13.983.059 1.054m42.37 12.525c-.54 1.76-.155-3.628.589-.608.087 7.164-3.128-1.535-.59-2.635 2.396-.09 1.034 10.517-.899 6.796-2.51-4.702 1.59-13.267 2.719-5.59l.13.984.059 1.053m-4.009-1c-.54 1.76-.154-3.628.59-.608.087 7.164-3.128-1.535-.59-2.635 2.396-.09 1.034 10.517-.899 6.796-2.51-4.702 1.59-13.267 2.719-5.59l.13.984.059 1.053m-4.009-1c-.54 1.76-.154-3.628.59-.608.087 7.164-3.128-1.535-.59-2.635 2.396-.09 1.034 10.517-.899 6.796-2.51-4.702 1.59-13.267 2.719-5.59l.13.984.059 1.053m-4.009-1c-.54 1.76-.154-3.628.59-.608.087 7.164-3.128-1.535-.59-2.635 2.396-.09 1.034 10.517-.899 6.796-2.51-4.702 1.59-13.267 2.719-5.59l.13.984.059 1.053m-4.009-1c-.54 1.76-.154-3.628.59-.608.087 7.164-3.128-1.535-.59-2.635 2.396-.09 1.034 10.517-.899 6.796-2.51-4.702 1.59-13.267 2.719-5.59l.13.984.059 1.053m-4.009 0c-.54 1.76-.154-3.628.59-.608.087 7.164-3.128-1.535-.59-2.635 2.396-.09 1.034 10.517-.899 6.796-2.51-4.702 1.59-13.267 2.719-5.59l.13.984.059 1.053m-4.009-1c-.54 1.76-.154-3.628.59-.608.087 7.164-3.128-1.535-.59-2.635 2.396-.09 1.034 10.517-.899 6.796-2.51-4.702 1.59-13.267 2.719-5.59l.13.984.059 1.053m-4.009-1c-.54 1.76-.154-3.628.59-.608.087 7.164-3.128-1.535-.59-2.635 2.396-.09 1.034 10.517-.899 6.796-2.51-4.702 1.59-13.267 2.719-5.59l.13.984.059 1.053m-4.009-1c-.54 1.76-.154-3.628.59-.608.087 7.164-3.128-1.535-.59-2.635 2.396-.09 1.034 10.517-.899 6.796-2.51-4.702 1.59-13.267 2.719-5.59l.13.984.059 1.053m-4.009 0c-.54 1.76-.154-3.628.59-.608.087 7.164-3.128-1.535-.59-2.635 2.396-.09 1.034 10.517-.899 6.796-2.51-4.702 1.59-13.267 2.719-5.59l.13.984.059 1.053m-4.009-1c-.54 1.76-.154-3.628.59-.608.087 7.164-3.128-1.535-.59-2.635 2.396-.09 1.034 10.517-.899 6.796-2.51-4.702 1.59-13.267 2.719-5.59l.13.984.059 1.053m-4.009 0c-.54 1.76-.154-3.628.59-.608.087 7.164-3.128-1.535-.59-2.635 2.396-.09 1.034 10.517-.899 6.796-2.51-4.702 1.59-13.267 2.719-5.59l.13.984.059 1.053m-4.009 0c-.54 1.76-.154-3.628.59-.608.087 7.164-3.128-1.535-.59-2.635 2.396-.09 1.034 10.517-.899 6.796-2.51-4.702 1.59-13.267 2.719-5.59l.13.984.059 1.053m-4.009 0c-.54 1.76-.154-3.628.59-.608.087 7.164-3.128-1.535-.59-2.635 2.396-.09 1.034 10.517-.899 6.796-2.51-4.702 1.59-13.267 2.719-5.59l.13.984.059 1.053m-4.009 0c-.54 1.76-.154-3.628.59-.608.087 7.164-3.128-1.535-.59-2.635 2.396-.09 1.034 10.517-.899 6.796-2.51-4.702 1.59-13.267 2.719-5.59l.13.984.059 1.053m-4.009 0c-.54 1.76-.154-3.628.59-.608.087 7.164-3.128-1.535-.59-2.635 2.396-.09 1.034 10.517-.899 6.796-2.51-4.702 1.59-13.267 2.719-5.59l.13.984.059 1.053m-4.009 0c-.54 1.76-.154-3.628.59-.608.087 7.164-3.128-1.535-.59-2.635 2.396-.09 1.034 10.517-.899 6.796-2.51-4.702 1.59-13.267 2.719-5.59l.13.984.059 1.053m-4.009 0c-.54 1.76-.154-3.628.59-.608.087 7.164-3.128-1.535-.59-2.635 2.396-.09 1.034 10.517-.899 6.796-2.51-4.702 1.59-13.267 2.719-5.59l.13.984.059 1.053m-4.009 0c-.54 1.76-.154-3.628.59-.608.087 7.164-3.128-1.535-.59-2.635 2.396-.09 1.034 10.517-.899 6.796-2.51-4.702 1.59-13.267 2.719-5.59l.13.984.059 1.053m-4.009 0c-.54 1.76-.154-3.628.59-.608.087 7.164-3.128-1.535-.59-2.635 2.396-.09 1.034 10.517-.899 6.796-2.51-4.702 1.59-13.267 2.719-5.59l.13.984.059 1.053m-4.009 0c-.54 1.76-.154-3.628.59-.608.087 7.164-3.128-1.535-.59-2.635 2.396-.09 1.034 10.517-.899 6.796-2.51-4.702 1.59-13.267 2.719-5.59l.13.984.059 1.053m-4.009 0c-.54 1.76-.154-3.628.59-.608.087 7.164-3.128-1.535-.59-2.635 2.396-.09 1.034 10.517-.899 6.796-2.51-4.702 1.59-13.267 2.719-5.59l.13.984.059 1.053m-4.009 0c-.54 1.76-.154-3.628.59-.608.087 7.164-3.128-1.535-.59-2.635 2.396-.09 1.034 10.517-.899 6.796-2.51-4.702 1.59-13.267 2.719-5.59l.13.984.059 1.053m-4.009 1c-.54 1.76-.154-3.628.59-.608.087 7.164-3.128-1.535-.59-2.635 2.396-.09 1.034 10.517-.899 6.796-2.51-4.702 1.59-13.267 2.719-5.59l.13.984.059 1.053m-4.009 1c-.54 1.76-.154-3.628.59-.608.087 7.164-3.128-1.535-.59-2.635 2.396-.09 1.034 10.517-.899 6.796-2.51-4.702 1.59-13.267 2.719-5.59l.13.984.059 1.053m-4.009 1c-.54 1.76-.154-3.628.59-.608.087 7.164-3.128-1.535-.59-2.635 2.396-.09 1.034 10.517-.899 6.796-2.51-4.702 1.59-13.267 2.719-5.59l.13.984.059 1.053m-4.009 1c-.54 1.76-.154-3.628.59-.608.087 7.164-3.128-1.535-.59-2.635 2.396-.09 1.034 10.517-.899 6.796-2.51-4.702 1.59-13.267 2.719-5.59l.13.984.059 1.053m-4.009 1c-.54 1.76-.154-3.628.59-.608.087 7.164-3.128-1.535-.59-2.635 2.396-.09 1.034 10.517-.899 6.796-2.51-4.702 1.59-13.267 2.719-5.59l.13.984.059 1.053m-4.009 2c-.54 1.76-.154-3.628.59-.608.087 7.164-3.128-1.535-.59-2.635 2.396-.09 1.034 10.517-.899 6.796-2.51-4.702 1.59-13.267 2.719-5.59l.13.984.059 1.053m-4.009 2c-.54 1.76-.154-3.628.59-.608.087 7.164-3.128-1.535-.59-2.635 2.396-.09 1.034 10.517-.899 6.796-2.51-4.702 1.59-13.267 2.719-5.59l.13.984.059 1.053m-4.009 2c-.54 1.76-.154-3.628.59-.608.087 7.164-3.128-1.535-.59-2.635 2.396-.09 1.034 10.517-.899 6.796-2.51-4.702 1.59-13.267 2.719-5.59l.13.984.059 1.053m-4.009 2c-.54 1.76-.154-3.628.59-.608.087 7.164-3.128-1.535-.59-2.635 2.396-.09 1.034 10.517-.899 6.796-2.51-4.702 1.59-13.267 2.719-5.59l.13.984.059 1.053m-4.009 2c-.54 1.76-.154-3.628.59-.608.087 7.164-3.128-1.535-.59-2.635 2.396-.09 1.034 10.517-.899 6.796-2.51-4.702 1.59-13.267 2.719-5.59l.13.984.059 1.053m-4.009 3c-.54 1.76-.154-3.628.59-.608.087 7.164-3.128-1.535-.59-2.635 2.396-.09 1.034 10.517-.899 6.796-2.51-4.702 1.59-13.267 2.719-5.59l.13.984.059 1.053m-4.009 3c-.54 1.76-.154-3.628.59-.608.087 7.164-3.128-1.535-.59-2.635 2.396-.09 1.034 10.517-.899 6.796-2.51-4.702 1.59-13.267 2.719-5.59l.13.984.059 1.053m68.991-8c-.54 1.76-.154-3.628.59-.608.087 7.164-3.128-1.535-.59-2.635 2.396-.09 1.034 10.517-.899 6.796-2.51-4.702 1.59-13.267 2.719-5.59l.13.984.059 1.053m-4.009-3c-.54 1.76-.154-3.628.59-.608.087 7.164-3.128-1.535-.59-2.635 2.396-.09 1.034 10.517-.899 6.796-2.51-4.702 1.59-13.267 2.719-5.59l.13.984.059 1.053m-4.009-3c-.54 1.76-.154-3.628.59-.608.087 7.164-3.128-1.535-.59-2.635 2.396-.09 1.034 10.517-.899 6.796-2.51-4.702 1.59-13.267 2.719-5.59l.13.984.059 1.053m-4.009-2c-.54 1.76-.154-3.628.59-.608.087 7.164-3.128-1.535-.59-2.635 2.396-.09 1.034 10.517-.899 6.796-2.51-4.702 1.59-13.267 2.719-5.59l.13.984.059 1.053m-4.009-2c-.54 1.76-.154-3.628.59-.608.087 7.164-3.128-1.535-.59-2.635 2.396-.09 1.034 10.517-.899 6.796-2.51-4.702 1.59-13.267 2.719-5.59l.13.984.059 1.053m-4.009-2c-.54 1.76-.154-3.628.59-.608.087 7.164-3.128-1.535-.59-2.635 2.396-.09 1.034 10.517-.899 6.796-2.51-4.702 1.59-13.267 2.719-5.59l.13.984.059 1.053m-4.009-2c-.54 1.76-.154-3.628.59-.608.087 7.164-3.128-1.535-.59-2.635 2.396-.09 1.034 10.517-.899 6.796-2.51-4.702 1.59-13.267 2.719-5.59l.13.984.059 1.053m-4.009-1c-.54 1.76-.154-3.628.59-.608.087 7.164-3.128-1.535-.59-2.635 2.396-.09 1.034 10.517-.899 6.796-2.51-4.702 1.59-13.267 2.719-5.59l.13.984.059 1.053m-4.009-2c-.54 1.76-.154-3.628.59-.608.087 7.164-3.128-1.535-.59-2.635 2.396-.09 1.034 10.517-.899 6.796-2.51-4.702 1.59-13.267 2.719-5.59l.13.984.059 1.053m-4.009-1c-.54 1.76-.154-3.628.59-.608.087 7.164-3.128-1.535-.59-2.635 2.396-.09 1.034 10.517-.899 6.796-2.51-4.702 1.59-13.267 2.719-5.59l.13.984.059 1.053m-4.009-1c-.54 1.76-.154-3.628.59-.608.087 7.164-3.128-1.535-.59-2.635 2.396-.09 1.034 10.517-.899 6.796-2.51-4.702 1.59-13.267 2.719-5.59l.13.984.059 1.053m-4.009 0c-.54 1.76-.154-3.628.59-.608.087 7.164-3.128-1.535-.59-2.635 2.396-.09 1.034 10.517-.899 6.796-2.51-4.702 1.59-13.267 2.719-5.59l.13.984.059 1.053m-4.009-1c-.54 1.76-.154-3.628.59-.608.087 7.164-3.128-1.535-.59-2.635 2.396-.09 1.034 10.517-.899 6.796-2.51-4.702 1.59-13.267 2.719-5.59l.13.984.059 1.053m-4.009-1c-.54 1.76-.154-3.628.59-.608.087 7.164-3.128-1.535-.59-2.635 2.396-.09 1.034 10.517-.899 6.796-2.51-4.702 1.59-13.267 2.719-5.59l.13.984.059 1.053m-4.009 0c-.54 1.76-.154-3.628.59-.608.087 7.164-3.128-1.535-.59-2.635 2.396-.09 1.034 10.517-.899 6.796-2.51-4.702 1.59-13.267 2.719-5.59l.13.984.059 1.053m-4.009-1c-.54 1.76-.154-3.628.59-.608.087 7.164-3.128-1.535-.59-2.635 2.396-.09 1.034 10.517-.899 6.796-2.51-4.702 1.59-13.267 2.719-5.59l.13.984.059 1.053m-4.009 0c-.54 1.76-.154-3.628.59-.608.087 7.164-3.128-1.535-.59-2.635 2.396-.09 1.034 10.517-.899 6.796-2.51-4.702 1.59-13.267 2.719-5.59l.13.984.059 1.053m-4.009 0c-.54 1.76-.154-3.628.59-.608.087 7.164-3.128-1.535-.59-2.635 2.396-.09 1.034 10.517-.899 6.796-2.51-4.702 1.59-13.267 2.719-5.59l.13.984.059 1.053m-4.009 0c-.54 1.76-.154-3.628.59-.608.087 7.164-3.128-1.535-.59-2.635 2.396-.09 1.034 10.517-.899 6.796-2.51-4.702 1.59-13.267 2.719-5.59l.13.984.059 1.053m-4.009 0c-.54 1.76-.154-3.628.59-.608.087 7.164-3.128-1.535-.59-2.635 2.396-.09 1.034 10.517-.899 6.796-2.51-4.702 1.59-13.267 2.719-5.59l.13.984.059 1.053m-4.009 0c-.54 1.76-.154-3.628.59-.608.087 7.164-3.128-1.535-.59-2.635 2.396-.09 1.034 10.517-.899 6.796-2.51-4.702 1.59-13.267 2.719-5.59l.13.984.059 1.053m-4.009 0c-.54 1.76-.154-3.628.59-.608.087 7.164-3.128-1.535-.59-2.635 2.396-.09 1.034 10.517-.899 6.796-2.51-4.702 1.59-13.267 2.719-5.59l.13.984.059 1.053m-4.009 1c-.54 1.76-.154-3.628.59-.608.087 7.164-3.128-1.535-.59-2.635 2.396-.09 1.034 10.517-.899 6.796-2.51-4.702 1.59-13.267 2.719-5.59l.13.984.059 1.053m-4.009 0c-.54 1.76-.154-3.628.59-.608.087 7.164-3.128-1.535-.59-2.635 2.396-.09 1.034 10.517-.899 6.796-2.51-4.702 1.59-13.267 2.719-5.59l.13.984.059 1.053m-4.009 1c-.54 1.76-.154-3.628.59-.608.087 7.164-3.128-1.535-.59-2.635 2.396-.09 1.034 10.517-.899 6.796-2.51-4.702 1.59-13.267 2.719-5.59l.13.984.059 1.053m-4.009 1c-.54 1.76-.154-3.628.59-.608.087 7.164-3.128-1.535-.59-2.635 2.396-.09 1.034 10.517-.899 6.796-2.51-4.702 1.59-13.267 2.719-5.59l.13.984.059 1.053m-4.009 1c-.54 1.76-.154-3.628.59-.608.087 7.164-3.128-1.535-.59-2.635 2.396-.09 1.034 10.517-.899 6.796-2.51-4.702 1.59-13.267 2.719-5.59l.13.984.059 1.053m-4.009 1c-.54 1.76-.154-3.628.59-.608.087 7.164-3.128-1.535-.59-2.635 2.396-.09 1.034 10.517-.899 6.796-2.51-4.702 1.59-13.267 2.719-5.59l.13.984.059 1.053m-4.009 1c-.54 1.76-.154-3.628.59-.608.087 7.164-3.128-1.535-.59-2.635 2.396-.09 1.034 10.517-.899 6.796-2.51-4.702 1.59-13.267 2.719-5.59l.13.984.059 1.053m-4.009 2c-.54 1.76-.154-3.628.59-.608.087 7.164-3.128-1.535-.59-2.635 2.396-.09 1.034 10.517-.899 6.796-2.51-4.702 1.59-13.267 2.719-5.59l.13.984.059 1.053m-4.009 1c-.54 1.76-.154-3.628.59-.608.087 7.164-3.128-1.535-.59-2.635 2.396-.09 1.034 10.517-.899 6.796-2.51-4.702 1.59-13.267 2.719-5.59l.13.984.059 1.053m-4.009 2c-.54 1.76-.154-3.628.59-.608.087 7.164-3.128-1.535-.59-2.635 2.396-.09 1.034 10.517-.899 6.796-2.51-4.702 1.59-13.267 2.719-5.59l.13.984.059 1.053M55 26c-.54 1.76-.154-3.628.59-.609.087 7.164-3.128-1.534-.59-2.634 2.396-.09 1.034 10.516-.899 6.796-2.51-4.702 1.59-13.267 2.719-5.59l.13.983.059 1.054M53 28c-.54 1.76-.154-3.628.59-.609.087 7.164-3.128-1.534-.59-2.634 2.396-.09 1.034 10.516-.899 6.796-2.51-4.702 1.59-13.267 2.719-5.59l.13.983.059 1.054M51 31c-.54 1.76-.154-3.628.59-.609.087 7.164-3.128-1.534-.59-2.634 2.396-.09 1.034 10.516-.899 6.796-2.51-4.702 1.59-13.267 2.719-5.59l.13.983.059 1.054M49 34.49c-.54 1.76-.154-3.627.59-.608.087 7.164-3.128-1.534-.59-2.634 2.396-.09 1.034 10.516-.899 6.796-2.51-4.702 1.59-13.267 2.719-5.59l.13.983.059 1.054M47 39c-.54 1.76-.154-3.628.59-.609.087 7.164-3.128-1.534-.59-2.634 2.396-.09 1.034 10.516-.899 6.796-2.51-4.702 1.59-13.267 2.719-5.59l.13.983.059 1.054M45 43c-.54 1.76-.154-3.628.59-.609.087 7.164-3.128-1.534-.59-2.634 2.396-.09 1.034 10.516-.899 6.796-2.51-4.702 1.59-13.267 2.719-5.59l.13.983.059 1.054" fill="none" stroke="green" stroke-width=".418"/><path d="M55 102h52c.541 7.329-1.334 14.854-5.559 20.9L87 123l-3-6-4.759.1-3.1 3.4v2.4h-14.8L55 114c-1.079-3.862-1.958-8.257 0-12z" fill="#ffd42a" stroke="#000"/><path d="M62.156 119.266c-.633-.195-3.222 1.367-1.67.675-1.267.627 1.625-.746 2.17-.255 2.084-.402 3.088 2.353 5.29 1.398.872-.137 3.063-1.373 1.652-.779 1.26-.739-.89.614-2.075.457-1.99-.031-3.104-2.282-5.367-1.496zm7-1c-.633-.195-3.222 1.367-1.67.675-1.267.627 1.625-.746 2.17-.255 2.084-.402 3.088 2.353 5.29 1.398.872-.137 3.063-1.373 1.652-.779 1.26-.739-.89.614-2.075.457-1.99-.031-3.104-2.282-5.367-1.496zm19 1c-.633-.195-3.222 1.367-1.67.675-1.267.627 1.625-.746 2.17-.255 2.084-.402 3.088 2.353 5.29 1.398.872-.137 3.063-1.373 1.652-.779 1.26-.739-.89.614-2.075.457-1.99-.031-3.104-2.282-5.367-1.496zm7-1c-.633-.195-3.222 1.367-1.67.675-1.267.627 1.625-.746 2.17-.255 2.084-.402 3.088 2.353 5.29 1.398.872-.137 3.063-1.373 1.653-.779 1.258-.739-.89.614-2.076.457-1.99-.031-3.105-2.282-5.367-1.496zm-39-14c-.633-.195-3.222 1.367-1.67.675-1.267.627 1.625-.746 2.17-.255 2.084-.402 3.088 2.353 5.29 1.398.872-.137 3.063-1.373 1.652-.779 1.26-.739-.89.614-2.075.457-1.99-.031-3.104-2.282-5.367-1.496zm6 4c-.633-.195-3.222 1.367-1.67.675-1.267.627 1.625-.746 2.17-.255 2.084-.402 3.088 2.353 5.29 1.398.872-.137 3.063-1.373 1.652-.779 1.26-.739-.89.614-2.075.457-1.99-.031-3.104-2.282-5.367-1.496zm7 4c-.633-.195-3.222 1.367-1.67.675-1.267.627 1.625-.746 2.17-.255 2.084-.402 3.088 2.353 5.29 1.398.872-.137 3.063-1.373 1.652-.779 1.26-.739-.89.614-2.075.457-1.99-.031-3.104-2.282-5.367-1.496zm-11 2c-.633-.195-3.222 1.367-1.67.675-1.267.627 1.625-.746 2.17-.255 2.084-.402 3.088 2.353 5.29 1.398.872-.137 3.063-1.373 1.652-.779 1.26-.739-.89.614-2.075.457-1.99-.031-3.104-2.282-5.367-1.496zm14-10c-.633-.195-3.222 1.367-1.67.675-1.267.627 1.625-.746 2.17-.255 2.084-.402 3.088 2.353 5.29 1.398.872-.137 3.063-1.373 1.652-.779 1.26-.739-.89.614-2.075.457-1.99-.031-3.104-2.282-5.367-1.496zm7 4c-.633-.195-3.222 1.367-1.67.675-1.267.627 1.625-.746 2.17-.255 2.084-.402 3.088 2.353 5.29 1.398.872-.137 3.063-1.373 1.652-.779 1.26-.739-.89.614-2.075.457-1.99-.031-3.104-2.282-5.367-1.496zm7 4c-.633-.195-3.222 1.367-1.67.675-1.267.627 1.625-.746 2.17-.255 2.084-.402 3.088 2.353 5.29 1.398.872-.137 3.063-1.373 1.652-.779 1.26-.739-.89.614-2.075.457-1.99-.031-3.104-2.282-5.367-1.496zm1-8c-.633-.195-3.222 1.367-1.67.675-1.267.627 1.625-.746 2.17-.255 2.084-.402 3.088 2.353 5.29 1.398.872-.137 3.063-1.373 1.652-.779 1.26-.739-.89.614-2.075.457-1.99-.031-3.104-2.282-5.367-1.496zm7 4c-.633-.195-3.222 1.367-1.67.675-1.267.627 1.625-.746 2.17-.255 2.084-.402 3.088 2.353 5.29 1.398.872-.137 3.063-1.373 1.653-.779 1.258-.739-.89.614-2.076.457-1.99-.031-3.105-2.282-5.367-1.496zm3 6c-.633-.195-3.222 1.367-1.67.675-1.267.627 1.625-.746 2.17-.255 2.084-.402 3.088 2.353 5.29 1.398.872-.137 3.063-1.373 1.653-.779 1.258-.739-.89.614-2.076.457-1.99-.031-3.105-2.282-5.367-1.496zm2-9c-.633-.195-3.222 1.367-1.67.675-1.267.627 1.625-.746 2.17-.255 2.084-.402 3.088 2.353 5.29 1.398.872-.137 3.063-1.373 1.653-.779 1.258-.739-.89.614-2.076.457-1.99-.031-3.105-2.282-5.367-1.496z" stroke="#000" stroke-width=".5" stroke-linejoin="round"/></svg>