<svg xmlns:xlink="http://www.w3.org/1999/xlink" height="76.85" width="60.9" xmlns="http://www.w3.org/2000/svg"><g transform="translate(31.1 71.1)"><use height="76.85" transform="translate(-31.1 -71.1)" width="60.9" xlink:href="#shape0"/><use height="28.65" transform="translate(2.9 -57.95)" width="14.4" xlink:href="#shape1"/><use height="133.35" transform="matrix(.1224 0 0 .1235 3.097 -45.933)" width="102.2" xlink:href="#shape2"/></g><defs><linearGradient gradientTransform="matrix(.2006 .0141 -.0038 .0546 -81.5 401.45)" gradientUnits="userSpaceOnUse" id="gradient0" spreadMethod="pad" x1="-819.2" x2="819.2"><stop offset=".082" stop-color="#804000"/><stop offset=".486" stop-color="#8a6248"/><stop offset=".937" stop-color="#9f3502" stop-opacity=".78"/></linearGradient><linearGradient gradientTransform="matrix(.1507 0 0 .0547 -24.55 248.25)" gradientUnits="userSpaceOnUse" id="gradient1" spreadMethod="pad" x1="-819.2" x2="819.2"><stop offset=".082" stop-color="#804000"/><stop offset=".486" stop-color="#8a6248"/><stop offset=".937" stop-color="#9f3502" stop-opacity=".78"/></linearGradient><linearGradient gradientTransform="matrix(.3487 0 0 .0547 -119.5 192.75)" gradientUnits="userSpaceOnUse" id="gradient2" spreadMethod="pad" x1="-819.2" x2="819.2"><stop offset=".082" stop-color="#804000"/><stop offset=".486" stop-color="#8a6248"/><stop offset=".937" stop-color="#9f3502" stop-opacity=".78"/></linearGradient><linearGradient gradientTransform="scale(.0624 .0814)" gradientUnits="userSpaceOnUse" id="gradient3" spreadMethod="pad" x1="-819.2" x2="819.2"><stop offset="0" stop-color="#fff"/><stop offset="1" stop-color="#607814"/></linearGradient><g id="shape0"><path d="M-30.6-36.6v-1.1h.2l.05-.15.05-.05v-.05h.05V-38l.05-.1v-.1l.1-.15.05-.1.45-.65h.25l.05-.05.1-.05h.05l.05-.15h.25l.25-.5.15-.1h.1l.1-.05.05-.1h.25l.5-.75.3-.2.55-.3.2-.15.05-.1.15-.1h.1l.15-.15.35-.35 1.9-.25.35-.4.4-.1.1-.15.15-.1.1-.15.4-.25.1-.1.15-.15.1-.1h.4v-.15l.1-.05.4-.3.5-.15 1.25-1.25 1.1-.35.65-.4.35-.5.75-.1.9-.5.5-.9.85-.5h.8l1.45-1.25.1.05.4 1.15h.05v-.9L29-29.6l.05.05v.1L5.2-18l-.05-.05-35.7-18.5-.05-.05" fill="url(#gradient0)" fill-rule="evenodd" transform="translate(31.1 71.1)"/><path d="M-11.85-50.35l.05-.1.05.15-.1-.05m.55.3V-70.6l40.45 20.5-.05 5.6-.05 14.75-.05.15-40.3-20.45m40.4 5.55L-11.3-65l40.4 20.5" fill="url(#gradient1)" fill-rule="evenodd" transform="translate(31.1 71.1)"/><path d="M28.95-25.15v.05l.35 30.35-40.6-20.9v-6.95l-16-8.25-.75.4h-2l-.05-1.25h-.45l.1-.8.35.2-.05-1.1-.55-.05.1-3.15.05.05 35.7 18.5v.05h.05l23.85-11.45-.1 4.3L5.15-14.1l-16.45-8.5 16.45 8.5 23.8-11.05M5.15-14.1V-18v3.9M-27.3-30.85l-2.8-1.45 2.8 1.45" fill="url(#gradient2)" fill-rule="evenodd" transform="translate(31.1 71.1)"/><path d="M28.95-25.1l.35 30.35-40.6-20.9m0-6.95l-16-8.25m-3.15-1.65l.35.2 2.8 1.45m16-39.75l40.45 20.5-.05 5.6-.05 14.75m0 .3l-.1 4.3L5.15-14.1l-16.45-8.5M5.15-18v3.9m0-3.95l-35.7-18.5-.05-.05M5.2-18l23.85-11.45m-40.9-20.9l.1.05M29-29.6l-40.3-20.45m0-14.95l40.4 20.5" fill="none" stroke="#333" stroke-linecap="round" stroke-linejoin="round" transform="translate(31.1 71.1)"/></g><g id="shape1"><path d="M8.2-16.5v-.05.05" fill="#ff9" fill-rule="evenodd" transform="translate(6.05 21)"/><path d="M8.2-16.5L6.65-9v.05L4.4 2.3l-.85.25L7.2-15.8 3.55 2.55l-.6.25.1-.65 2.1-10.4.3-1.4 1.05-5.5v-.05l.7-.6 1-.7" fill="#ffe0c8" fill-rule="evenodd" transform="translate(6.05 21)"/><path d="M4.85-9.75l1.1-5.7.1-.05 1.5-1.1.65.1-1 .7-.7.6v.05l-1.05 5.5-.3 1.4-2.1 10.4-.1.65-.35-.55 1.95-10.4.3-1.6m1.2-5.75l.45.35-.45-.35" fill="#fec698" fill-rule="evenodd" transform="translate(6.05 21)"/><path d="M6.65-9h.1v.05h-.1V-9m-12.45.25v-.05l.05.05h-.05" fill="#f0f" fill-rule="evenodd" transform="translate(6.05 21)"/><path d="M-5.8-8.8l-.1-.2q0-.45 1.85-.8l4.4-.3 4.45.3.05.05-.3 1.6-4.2.3-4.15-.3-.2-.1-.05.05-1.65-.5-.05-.05-.05-.05" fill="#ffc" fill-rule="evenodd" transform="translate(6.05 21)"/><path d="M14.25 4.5v-.05.05L12.7 12h.1v.05L11.7 26.6q-5.5 3.85-10.65-.15l-.8-14.2v-.05l-.1-.2q0-.45 1.85-.8l4.4-.3 4.45.3.05.05 1.1-5.7m.1-.05l1.5-1.1.65.1-1 .7L9.6 23.55l.85-.25 2.25-11.25V12m.55-6.8l-.7.6v.05l-1.05 5.5-.3 1.4-2.1 10.4-.1.65.6-.25m2.95-17.7l-.45-.35m-1.2 5.75l-.3 1.6-1.95 10.4.35.55M.3 12.25l.05.05 1.65.5.05-.05.2.1 4.15.3 4.2-.3M.25 12.2l.05.05" fill="none" stroke="#333" stroke-linecap="round" stroke-linejoin="round" stroke-width=".3"/><path d="M-4.05-8.2l.25.05" fill="none" stroke="#333" stroke-linecap="round" stroke-linejoin="round" transform="translate(6.05 21)"/><path d="M-4.5-13.5l1.3-1.35.6-.1-.75.95-.6.7v.05L-3.9 4.4v.65l-.45-.4-.2-18.05.05-.1.55.25-.55-.25" fill="#fec698" fill-rule="evenodd" transform="translate(6.05 21)"/><path d="M-2.6-14.95V4.3l-.75.45-.55.3V4.4l-.05-17.65v-.05l.6-.7.75-.95m-.75.95V4.75-14" fill="#ffe0c8" fill-rule="evenodd" transform="translate(6.05 21)"/><path d="M1.55 7.5l1.3-1.35.6-.1V25.3l-.75.45-.55.3-.45-.4L1.5 7.6m.05-.1l.55.25V7.7l.6-.7.75-.95M2.1 7.75l.05 17.65v.65m.55-.3V7" fill="none" stroke="#333" stroke-linecap="round" stroke-linejoin="round" stroke-width=".3"/><path d="M.5-1.3l.15-.6 2.7-17.45v-.1l.7-.55.9-.8-3 19-.8.3-.65.2m.65-.2L4.05-20 1.15-1.5" fill="#ffe0c8" fill-rule="evenodd" transform="translate(6.05 21)"/><path d="M2.85-19.7l.5.35-.5-.35 1.5-1.15.6.05-.9.8-.7.55v.1L.65-1.9l-.15.6-.35-.5 2.6-17.8.1-.1" fill="#fec698" fill-rule="evenodd" transform="translate(6.05 21)"/><path d="M9.4 1.65l-.5-.35m-.1.1L6.2 19.2l.35.5.15-.6L9.4 1.65v-.1l.7-.55.9-.8-.6-.05L8.9 1.3M11 .2l-3 19-.8.3-.65.2M10.1 1L7.2 19.5" fill="none" stroke="#333" stroke-linecap="round" stroke-linejoin="round" stroke-width=".3"/></g><path d="M50.3-66.65l.8.05-8.85 117.85q-44.7 31.4-86.95-1L-51.1-64.7l.35-.05.45.35q3.25 2.25 13.35 4l2.05.35q14.35 2.3 34.1 2.3 21.15 0 36.1-2.65 14.85-2.6 15-6.25" fill="url(#gradient3)" fill-rule="evenodd" transform="translate(51.1 66.65)" id="shape2"/></defs></svg>