<svg height="42.4" width="39.55" xmlns:xlink="http://www.w3.org/1999/xlink" xmlns="http://www.w3.org/2000/svg"><defs><linearGradient gradientTransform="matrix(.0104 0 0 .003 .1 -29.3)" gradientUnits="userSpaceOnUse" id="e" spreadMethod="pad" x1="-819.2" x2="819.2"><stop offset="0" stop-color="#9a4501"/><stop offset=".831" stop-color="#804000"/><stop offset="1" stop-color="#390000"/></linearGradient><linearGradient gradientTransform="matrix(.0024 0 0 .068 6.6 24.6)" gradientUnits="userSpaceOnUse" id="f" spreadMethod="pad" x1="-819.2" x2="819.2"><stop offset="0" stop-color="#9a4501"/><stop offset=".831" stop-color="#804000"/><stop offset="1" stop-color="#390000"/></linearGradient><linearGradient gradientTransform="matrix(.0079 0 0 .0656 -1.9 26.95)" gradientUnits="userSpaceOnUse" id="g" spreadMethod="pad" x1="-819.2" x2="819.2"><stop offset="0" stop-color="#9a4501"/><stop offset=".831" stop-color="#804000"/><stop offset="1" stop-color="#390000"/></linearGradient><linearGradient gradientTransform="matrix(.0153 0 0 .0046 .8 -12.1)" gradientUnits="userSpaceOnUse" id="c" spreadMethod="pad" x1="-819.2" x2="819.2"><stop offset="0" stop-color="#9a4501"/><stop offset=".831" stop-color="#804000"/><stop offset="1" stop-color="#390000"/></linearGradient><linearGradient gradientTransform="matrix(.0152 0 0 .0033 .8 -9.15)" gradientUnits="userSpaceOnUse" id="d" spreadMethod="pad" x1="-819.2" x2="819.2"><stop offset="0" stop-color="#9a4501"/><stop offset=".831" stop-color="#804000"/><stop offset="1" stop-color="#390000"/></linearGradient><linearGradient gradientTransform="matrix(.01 0 0 .0236 -534.75 -44.4)" gradientUnits="userSpaceOnUse" id="a" spreadMethod="pad" x1="-819.2" x2="819.2"><stop offset=".145" stop-color="#999"/><stop offset=".741" stop-color="#fff"/></linearGradient><linearGradient gradientTransform="matrix(.01 0 0 .0236 -534.75 -44.4)" gradientUnits="userSpaceOnUse" id="b" spreadMethod="pad" x1="-819.2" x2="819.2"><stop offset=".306" stop-color="#804000"/><stop offset="1" stop-color="#fff"/></linearGradient><linearGradient xlink:href="#a" id="s" gradientUnits="userSpaceOnUse" gradientTransform="matrix(.01 0 0 .0236 -534.75 -44.4)" x1="-819.2" x2="819.2" spreadMethod="pad"/><linearGradient xlink:href="#b" id="t" gradientUnits="userSpaceOnUse" gradientTransform="matrix(.01 0 0 .0236 -534.75 -44.4)" x1="-819.2" x2="819.2" spreadMethod="pad"/><linearGradient xlink:href="#c" id="q" gradientUnits="userSpaceOnUse" gradientTransform="matrix(.0153 0 0 .0046 .8 -12.1)" x1="-819.2" x2="819.2" spreadMethod="pad"/><linearGradient xlink:href="#d" id="r" gradientUnits="userSpaceOnUse" gradientTransform="matrix(.0152 0 0 .0033 .8 -9.15)" x1="-819.2" x2="819.2" spreadMethod="pad"/><linearGradient xlink:href="#e" id="h" gradientUnits="userSpaceOnUse" gradientTransform="matrix(.0104 0 0 .003 .1 -29.3)" x1="-819.2" x2="819.2" spreadMethod="pad"/><linearGradient xlink:href="#f" id="i" gradientUnits="userSpaceOnUse" gradientTransform="matrix(.0024 0 0 .068 6.6 24.6)" x1="-819.2" x2="819.2" spreadMethod="pad"/><linearGradient xlink:href="#g" id="j" gradientUnits="userSpaceOnUse" gradientTransform="matrix(.0079 0 0 .0656 -1.9 26.95)" x1="-819.2" x2="819.2" spreadMethod="pad"/><linearGradient xlink:href="#e" id="k" gradientUnits="userSpaceOnUse" gradientTransform="matrix(.0104 0 0 .003 .1 -29.3)" x1="-819.2" x2="819.2" spreadMethod="pad"/><linearGradient xlink:href="#f" id="l" gradientUnits="userSpaceOnUse" gradientTransform="matrix(.0024 0 0 .068 6.6 24.6)" x1="-819.2" x2="819.2" spreadMethod="pad"/><linearGradient xlink:href="#g" id="m" gradientUnits="userSpaceOnUse" gradientTransform="matrix(.0079 0 0 .0656 -1.9 26.95)" x1="-819.2" x2="819.2" spreadMethod="pad"/><linearGradient xlink:href="#e" id="n" gradientUnits="userSpaceOnUse" gradientTransform="matrix(.0104 0 0 .003 .1 -29.3)" x1="-819.2" x2="819.2" spreadMethod="pad"/><linearGradient xlink:href="#f" id="o" gradientUnits="userSpaceOnUse" gradientTransform="matrix(.0024 0 0 .068 6.6 24.6)" x1="-819.2" x2="819.2" spreadMethod="pad"/><linearGradient xlink:href="#g" id="p" gradientUnits="userSpaceOnUse" gradientTransform="matrix(.0079 0 0 .0656 -1.9 26.95)" x1="-819.2" x2="819.2" spreadMethod="pad"/></defs><path d="M38.25 36.5q0 2.4-3.25 4.15-3.3 1.7-7.95 1.75-4.65-.05-7.9-1.75-3.3-1.75-3.3-4.15 0-2.45 3.3-4.2 3.25-1.7 7.9-1.7T35 32.3q3.25 1.75 3.25 4.2" fill-opacity=".2" fill-rule="evenodd"/><path d="M8.45-30.9 4.6-27v.2h-13l-.25-.1 7.5-4.6 9.6.6" fill="url(#e)" fill-rule="evenodd" transform="matrix(.1761 0 0 .1393 20.9 24.698)" style="fill:url(#h)"/><path d="m8.45-30.9.15-.2-.25 105.8-3.25 5.6h-.5V-27l3.85-3.9" fill="url(#f)" fill-rule="evenodd" transform="matrix(.1761 0 0 .1393 20.9 24.698)" style="fill:url(#i)"/><path d="M4.6-26.8V80.75H4l-12.4-5.6V-26.8h13" fill="url(#g)" fill-rule="evenodd" transform="matrix(.1761 0 0 .1393 20.9 24.698)" style="fill:url(#j)"/><path d="m14.75 112.8 3.25-5.6.25-105.8-.15.2-3.85 3.9m0 .2v107.55h-.6m-12.4-5.6V5.7h13M1 5.6 8.5 1l9.6.6m-4.45 111.65-12.4-5.6" fill="none" stroke="#333" stroke-linecap="round" stroke-linejoin="round" stroke-width="2" transform="matrix(.1761 0 0 .1393 19.2 20.171)"/><path d="M8.45-30.9 4.6-27v.2h-13l-.25-.1 7.5-4.6 9.6.6" fill="url(#e)" fill-rule="evenodd" transform="matrix(.1761 0 0 .1918 26.4 24.95)" style="fill:url(#k)"/><path d="m8.45-30.9.15-.2-.25 105.8-3.25 5.6h-.5V-27l3.85-3.9" fill="url(#f)" fill-rule="evenodd" transform="matrix(.1761 0 0 .1918 26.4 24.95)" style="fill:url(#l)"/><path d="M4.6-26.8V80.75H4l-12.4-5.6V-26.8h13" fill="url(#g)" fill-rule="evenodd" transform="matrix(.1761 0 0 .1918 26.4 24.95)" style="fill:url(#m)"/><path d="m14.75 112.8 3.25-5.6.25-105.8-.15.2-3.85 3.9m0 .2v107.55h-.6m-12.4-5.6V5.7h13M1 5.6 8.5 1l9.6.6m-4.45 111.65-12.4-5.6" fill="none" stroke="#333" stroke-linecap="round" stroke-linejoin="round" stroke-width="2" transform="matrix(.1761 0 0 .1918 24.7 18.717)"/><path d="M8.45-30.9 4.6-27v.2h-13l-.25-.1 7.5-4.6 9.6.6" fill="url(#e)" fill-rule="evenodd" transform="matrix(.1761 0 0 .1393 32.75 24.848)" style="fill:url(#n)"/><path d="m8.45-30.9.15-.2-.25 105.8-3.25 5.6h-.5V-27l3.85-3.9" fill="url(#f)" fill-rule="evenodd" transform="matrix(.1761 0 0 .1393 32.75 24.848)" style="fill:url(#o)"/><path d="M4.6-26.8V80.75H4l-12.4-5.6V-26.8h13" fill="url(#g)" fill-rule="evenodd" transform="matrix(.1761 0 0 .1393 32.75 24.848)" style="fill:url(#p)"/><path d="m14.75 112.8 3.25-5.6.25-105.8-.15.2-3.85 3.9m0 .2v107.55h-.6m-12.4-5.6V5.7h13M1 5.6 8.5 1l9.6.6m-4.45 111.65-12.4-5.6" fill="none" stroke="#333" stroke-linecap="round" stroke-linejoin="round" stroke-width="2" transform="matrix(.1761 0 0 .1393 31.05 20.321)"/><path d="M13.25-11.6q-.5 1.25-3.6 2.15Q6-8.35.8-8.35q-5.15 0-8.8-1.1-3.1-.95-3.6-2.2l-.1-.45q0-1.55 3.7-2.65 3.65-1.15 8.8-1.1 5.2-.05 8.85 1.1 3.65 1.1 3.65 2.65l-.05.5" fill="url(#c)" fill-rule="evenodd" transform="translate(26 32.3)" style="fill:url(#q)"/><path d="M-11.6-11.65q.5 1.25 3.6 2.2 3.65 1.1 8.8 1.1 5.2 0 8.85-1.1 3.1-.9 3.6-2.15l.05.05-1.15 2.7Q-1.3-3.8-10.95-9.5v.05l-.75-2.4.1.2" fill="url(#d)" fill-rule="evenodd" transform="translate(26 32.3)" style="fill:url(#r)"/><path d="M39.25 20.7q-.5 1.25-3.6 2.15-3.65 1.1-8.85 1.1-5.15 0-8.8-1.1-3.1-.95-3.6-2.2m-.1-.2.75 2.4m0-.05q9.65 5.7 23.1.65l1.15-2.7m-.05-.05.05-.5q0-1.55-3.65-2.65-3.65-1.15-8.85-1.1-5.15-.05-8.8 1.1-3.7 1.1-3.7 2.65l.1.45" fill="none" stroke="#000" stroke-linecap="round" stroke-linejoin="round" stroke-width=".5"/><path d="M5.8 40.45q-2.35 0-4-1.2t-1.65-2.9q0-1.7 1.65-2.9 1.65-1.25 4-1.25t4 1.25q1.65 1.2 1.65 2.9t-1.65 2.9q-1.65 1.2-4 1.2" fill="#666" fill-opacity=".671" fill-rule="evenodd"/><path d="M5.8 40.45q-2.35 0-4-1.2t-1.65-2.9q0-1.7 1.65-2.9 1.65-1.25 4-1.25t4 1.25q1.65 1.2 1.65 2.9t-1.65 2.9q-1.65 1.2-4 1.2z" fill="none" stroke="#c1c1c1" stroke-linecap="round" stroke-linejoin="round" stroke-opacity=".341" stroke-width=".3"/><path d="M-535.1-63.65h.55l.1.5-.65.05v-.55.55l.65-.05-.1-.5h.5l.05.4.05.65q-1.5.3-3 0v-1.05h1.85m1.1.4-.45.1.45-.1m-1.1.15-.7.05-.55-.05v-.55.55l.55.05v-.6.6l.7-.05m-1.85-.1.6.1-.6-.1" fill="url(#a)" fill-rule="evenodd" transform="translate(540.45 63.8)" style="fill:url(#s)"/><path d="m-533.95-62.6.5 6.05.7 2.15q-2.45-1.75-4.85.15l.65-2.5v-5.85q1.5.3 3 0m2.8 13.05.9 2.55.05 3.2q-4.3 2.4-9.4 0l-.05-2.8.75-2.7q3.85-2.9 7.75-.25m1.25 16.3-.05 6.3q-4.75 3.85-9.5-.1h-.05l-.05-6.15q4.8 3.55 9.65-.05" fill="url(#b)" fill-rule="evenodd" transform="translate(540.45 63.8)" style="fill:url(#t)"/><path d="m7.7 9.4 1.6 4.85q-3.9-2.65-7.75.25l1.3-4.95q2.4-1.9 4.85-.15M10.25 20l.3 10.55Q5.7 34.15.9 30.6L.85 20q5.1 2.4 9.4 0" fill="#fff" fill-rule="evenodd"/><path d="M5.9.15h-.55V.7L6 .65l-.1-.5h.5l.05.4.05.65.5 6.05.7 2.15 1.6 4.85.9 2.55.05 3.2.3 10.55-.05 6.3q-4.75 3.85-9.5-.1H.95L.9 30.6.85 20 .8 17.2l.75-2.7 1.3-4.95.65-2.5V.15h1.85M4.1.15V.7l.55.05v-.6m0 .6.7-.05M6 .65l.45-.1M3.5 1.2q1.5.3 3 0m1.2 8.2q-2.45-1.75-4.85.15M4.1.7 3.5.6M10.25 20q-4.3 2.4-9.4 0M.9 30.6q4.8 3.55 9.65-.05M9.3 14.25q-3.9-2.65-7.75.25" fill="none" stroke="#333" stroke-linecap="round" stroke-linejoin="round" stroke-width=".3"/><path d="M7.995 21.707q-.148 0-.222.046.164.248.36.289.246-.063.097-.239-.11-.108-.235-.096m-.932.002-.095.067q.026.085.051.16.037.071.063.219l.024.175-.103.022q-.146.033-.356.07-.107-.013-.016.082.106.07.17.109.064.044.152.031l.195-.036q.022.154.046.301l-.314.068q-.308.063-.478.119.218.136.324.188.086.013.221-.025.138-.05.29-.085.045.219.095.54.066.385.181.441.085.028.151-.03.061-.06.061-.196-.088-.41-.164-.813.084-.017.233-.017l.194-.012q.228-.015.215-.142 0-.114-.274-.142h-.165q-.058.014-.108.039l-.136.01-.047-.286.311-.044.145-.04q.098-.034.069-.14-.101-.142-.41-.128-.031.03-.06.049-.07.012-.085.023-.007-.065-.007-.14 0-.134.012-.208 0-.103-.098-.172-.116-.071-.287-.057m1.214-.234q-.125-.014-.215.032.058.081.096.131.132.091.254.157.112 0 .162-.048.032-.047.032-.094 0-.151-.33-.178m-.488 3.269q-.065.043-.103.064-.194-.026-.363-.013l-.896.027q.033.088.1.128.262.165.365.165.176-.036.523-.049l.295.011q-.011.15-.037.41-.026.254-.09.403-.588.013-1.105.096.06.094.197.188.113.099.268.099.225-.061.47-.05.26 0 .41.05.115 0 .179-.108.077-.465.188-.984.037-.061.053-.135-.045-.12-.454-.301m.178 3.762q.051.062.07.066-.093.008-.173.003.043-.006.103-.069m-.514-.309h-.05q-.12 0-.12.095 0 .028-.072.156-.078.142-.091.374.038.325.316.505.27.177.747.177.372 0 .542-.077.17-.083.17-.276-.025-.183-.094-.263-.09-.138-.45-.42.042.12.07.173.094.222.094.306.013.055-.008.116-.03.04-.098.073-.123.036-.173.047-.08.012-.204.012-.633 0-.622-.394.026-.178.058-.22.037-.048.15-.16.07-.067-.015-.164-.06-.06-.15-.06m.491-.097q-.085 0-.128.027-.055.019-.055.11.061 0 .076.006l.013.001-.07.076-.274.268q-.048.047-.048.138.015.07.068.146.035.078.187.028.286-.102.387-.147-.01.02-.138.078-.024.05.062.094.167.025.222.025.112 0 .173-.045.05-.047.05-.102-.084-.228-.374-.344l-.055-.017.2-.113q.065-.06.017-.122-.082-.08-.135-.093-.077-.014-.178-.014m-.335-.689.135-.025q.004.025.004.08 0 .093-.038.218-.035.102-.093.203l-.02.015-.148-.02q0-.067.019-.132.135-.036.163-.092.032-.044-.003-.091-.085-.084-.149-.084-.005-.018.003-.06.039 0 .127-.012m-.212-.665q-.248.013-.293.058-.036.044.016.11-.092.122-.299.229-.192.088-.245.14-.074.042-.074.14l.026.173q.013.175.104.364.135.237.324.248-.08.062-.358.333-.038.049-.35.355-.096.094-.24.131-.02.047-.006.126.025.105.077.138.08.028.122.01.08-.05.157-.126l.256-.264.22-.216q.151-.134.254-.248.1-.108.359-.297.027.01.06.043.06.067.137.053.183-.038.318-.25.115-.415.141-.586-.087-.116-.303-.196-.129-.038-.233-.038-.104 0-.475.063l-.088.012q-.086.05.024.135l.084.01q.008.037.008.083 0 .066-.004.07-.085.022-.218.046l-.216-.243q.035-.002.224-.04.193-.037.332-.087.14-.049.411-.189.09-.069.039-.136-.102-.113-.145-.127-.058-.027-.146-.027m-.44 1.155-.01-.145q-.018 0 .03.022.064.04.13.04 0 .05-.01.1-.06.01-.126.01l-.013-.027M3.39 25.017q-.019-.055-.081-.077-.098.119-.098.252 0 .251.23.396.257.165.909.19l.31-.013q.152-.045.124-.188-.07-.152-.304-.206-.113 0-.3.011-.405 0-.543-.033-.215-.047-.247-.183v-.15m.223-1.118q-.059-.046-.174-.102.118.273.264.39.108.065.303.09l.275.038q.075.026.075.036-.018.042-.515.209.09.037.153.037.065.013.261 0l.213-.012q.19-.014.206-.164.012-.14-.202-.31-.145-.116-.418-.141l-.189-.013q-.147-.013-.252-.058m.682 2.412q-.316.087-.534.11-.154-.023-.322-.099.012.104.04.171.125.176.381.176.093 0 .219-.038.078-.025.182-.062l.058-.035q-.194.328-.879.827-.069.035-.168.049l-.085.168q0 .076.078.224.34-.118.86-.328.144-.055.249-.055.211.013.314.133.11.137.083.186-.024.246-.925.693l-.132.07q.08.038.158.024.681-.147.965-.36.24-.184.24-.376-.015-.244-.23-.403-.143-.114-.351-.127-.12-.013-.259-.013-.235.026-.343.05.318-.219.515-.412.212-.234.226-.315.013-.093-.178-.209-.06-.061-.162-.049m-.414 2.767q-.086-.061-.128-.03 0 .058.038.135.012.046.05.386 0 .289-.024.418-.04.127-.051.497-.064.458.168.725.143.227.722.49.093.015.093-.048-.082-.147-.353-.45-.23-.272-.279-.444-.048-.173-.035-.361.024-.207.051-.488 0-.18-.027-.424-.039-.279-.225-.406" fill-rule="evenodd" fill="#666"/><g fill="#333" fill-rule="evenodd"><path d="m1.595.033.024-.073q0-.172-.144-.098Q.892.442.639.972.385 1.499.385 2.26q0 .9.45 1.546.41.588.699.713.046-.088-.017-.223Q.772 3.074.79 2.336q-.02-.7.189-1.21.171-.419.615-1.093M2.985.626q0-.21-.15-.36-.13-.13-.362-.13-.194 0-.324.13-.11.108-.11.34 0 .197.147.344.13.13.382.13.196 0 .324-.13.093-.093.093-.324M2.657.72q-.103.07-.223.07-.037-.001-.079-.043-.044-.044-.044-.12 0-.095.061-.156.064-.064.157-.064.162 0 .162.181 0 .11-.034.132M6.159 1.501q-.466 0-.777.372-.21.25-.306.672-.12.563-.311 1.649 0 .166.176.298.15.103.252-.004.047-.047.074-.098.056-.424.117-.831.214.287.6.287.45 0 .765-.424.267-.24.267-.816 0-.554-.223-.818Q6.548 1.5 6.16 1.5m.039.385q.127 0 .223.127.093.13.093.497 0 .498-.201.718-.157.174-.404.174-.189 0-.321-.135-.088-.122-.088-.355 0-.482.262-.801.19-.225.436-.225M9.435.626q0-.21-.15-.36-.13-.13-.362-.13-.194 0-.324.13-.11.108-.11.34 0 .197.147.344.13.13.382.13.196 0 .324-.13.093-.093.093-.324M9.107.72q-.103.07-.223.07-.037-.001-.079-.043-.044-.044-.044-.12 0-.095.061-.156.064-.064.157-.064.162 0 .162.181 0 .11-.034.132M10.845.254q-.177-.216-.395-.387-.08-.059-.196-.015.826 1.213.806 2.288-.036.571-.171 1.049-.152.453-.674 1.289.08.078.176.032.608-.588.848-1.189.25-.55.25-1.195 0-.488-.176-1.015-.177-.526-.468-.857" style="stroke-width:.0049" transform="matrix(.4113 0 0 .4023 2.733 10.25)"/></g></svg>