<svg xmlns:xlink="http://www.w3.org/1999/xlink" height="55.45" width="50.3" xmlns="http://www.w3.org/2000/svg"><use height="55.45" width="50.3" xlink:href="#a"/><defs><linearGradient gradientTransform="matrix(.0107 0 0 .0054 -4 -30.15)" gradientUnits="userSpaceOnUse" id="b" spreadMethod="pad" x1="-819.2" x2="819.2"><stop offset="0" stop-color="#e6e6e6"/><stop offset="1" stop-color="#a6a6a6"/></linearGradient><linearGradient gradientTransform="matrix(.0031 0 0 .0023 .25 -35.25)" gradientUnits="userSpaceOnUse" id="c" spreadMethod="pad" x1="-819.2" x2="819.2"><stop offset="0" stop-color="#e6e6e6"/><stop offset="1" stop-color="#a6a6a6"/></linearGradient><linearGradient gradientTransform="matrix(.0304 0 0 .0152 -1.15 -28.65)" gradientUnits="userSpaceOnUse" id="d" spreadMethod="pad" x1="-819.2" x2="819.2"><stop offset="0" stop-color="#e6e6e6"/><stop offset="1" stop-color="#a6a6a6"/></linearGradient><linearGradient gradientTransform="matrix(.0109 0 0 .0054 1.85 -27.15)" gradientUnits="userSpaceOnUse" id="e" spreadMethod="pad" x1="-819.2" x2="819.2"><stop offset="0" stop-color="#e6e6e6"/><stop offset="1" stop-color="#a6a6a6"/></linearGradient><linearGradient gradientTransform="matrix(.0024 0 0 .002 6.75 -32)" gradientUnits="userSpaceOnUse" id="f" spreadMethod="pad" x1="-819.2" x2="819.2"><stop offset="0" stop-color="#e6e6e6"/><stop offset="1" stop-color="#a6a6a6"/></linearGradient><linearGradient gradientTransform="matrix(.0096 0 0 .0056 -3.15 -29.05)" gradientUnits="userSpaceOnUse" id="g" spreadMethod="pad" x1="-819.2" x2="819.2"><stop offset="0" stop-color="#e6e6e6"/><stop offset="1" stop-color="#a6a6a6"/></linearGradient><linearGradient gradientTransform="matrix(.0031 0 0 .0023 13.25 -28.75)" gradientUnits="userSpaceOnUse" id="h" spreadMethod="pad" x1="-819.2" x2="819.2"><stop offset="0" stop-color="#e6e6e6"/><stop offset="1" stop-color="#a6a6a6"/></linearGradient><linearGradient gradientTransform="matrix(.0096 0 0 .0056 2.85 -26)" gradientUnits="userSpaceOnUse" id="i" spreadMethod="pad" x1="-819.2" x2="819.2"><stop offset="0" stop-color="#e6e6e6"/><stop offset="1" stop-color="#a6a6a6"/></linearGradient><linearGradient gradientTransform="matrix(.0146 0 0 .0119 11.8 -18.4)" gradientUnits="userSpaceOnUse" id="j" spreadMethod="pad" x1="-819.2" x2="819.2"><stop offset="0" stop-color="#e6e6e6"/><stop offset="1" stop-color="#a6a6a6"/></linearGradient><linearGradient gradientTransform="matrix(.0096 0 0 .0056 -10.15 -32.55)" gradientUnits="userSpaceOnUse" id="k" spreadMethod="pad" x1="-819.2" x2="819.2"><stop offset="0" stop-color="#e6e6e6"/><stop offset="1" stop-color="#a6a6a6"/></linearGradient><linearGradient gradientTransform="matrix(.0158 0 0 .0125 -13.1 -18.95)" gradientUnits="userSpaceOnUse" id="n" spreadMethod="pad" x1="-819.2" x2="819.2"><stop offset="0" stop-color="#e6e6e6"/><stop offset="1" stop-color="#a6a6a6"/></linearGradient><radialGradient cx="0" cy="0" gradientTransform="translate(4 -34.35) scale(.0242)" gradientUnits="userSpaceOnUse" id="l" r="819.2" spreadMethod="pad"><stop offset="0" stop-color="#e6e6e6"/><stop offset="1" stop-color="#a6a6a6"/></radialGradient><radialGradient cx="0" cy="0" gradientTransform="translate(12 -23.85) scale(.0495)" gradientUnits="userSpaceOnUse" id="m" r="819.2" spreadMethod="pad"><stop offset="0" stop-color="#e6e6e6"/><stop offset="1" stop-color="#a6a6a6"/></radialGradient><g id="a"><path d="M23.75-20.6V1.9L-.1 13.85v-22.5L23.75-20.6" fill="#666" fill-rule="evenodd" transform="translate(26.3 41.35)"/><path d="M-.1 13.85-26.05.8v-22.5L-.25-8.75l.15.1v22.5" fill="#585858" fill-rule="evenodd" transform="translate(26.3 41.35)"/><path d="m.25-33.35-3.35 1.7-.65.3-9 4.8-2.8-1.4 13.3-6.65 2.5 1.25m4.5 2.25 1.5.75-13.3 6.65-1.5-.75 13.3-6.65m6 3 2.5 1.25-13.3 6.7-2.5-1.25 13.3-6.7M-.1-21.15h.05l-.35-.2.3.2" fill="#999" fill-rule="evenodd" transform="translate(26.3 41.35)"/><path d="m.25-33.35 2.5-1.25 2 1-15.8 7.9-1.7-.85 9-4.8h.65v-.3l3.35-1.7" fill="url(#b)" fill-rule="evenodd" transform="translate(26.3 41.35)"/><path d="m2.75-34.6-2.5 1.25-2.5-1.25v-2.5l5 2.5" fill="url(#c)" fill-rule="evenodd" transform="translate(26.3 41.35)"/><path d="m-12.75-26.55 1.7.85 2.5 1.25 1.5.75 2 1 2.5 1.3 2.5 1.25 13.3-6.7 2.5-1.25-5-2.5-2-1-4-2-2-1-5-2.5-15.8 7.9 2.5 1.25 2.8 1.4m-13.3-2.65 23.8-11.9 26 13L-.1-16.15l-.15-.1-25.8-12.95" fill="url(#d)" fill-rule="evenodd" transform="translate(26.3 41.35)"/><path d="m6.25-30.35 2.5-1.25 2 1-15.8 7.9-2-1 13.3-6.65" fill="url(#e)" fill-rule="evenodd" transform="translate(26.3 41.35)"/><path d="m6.25-30.35-1.5-.75v-2.5l4 2-2.5 1.25" fill="url(#f)" fill-rule="evenodd" transform="translate(26.3 41.35)"/><path d="m-11.05-25.7 15.8-7.9v2.5l-13.3 6.65-2.5-1.25" fill="url(#g)" fill-rule="evenodd" transform="translate(26.3 41.35)"/><path d="m10.75-30.6 5 2.5-2.5 1.25-2.5-1.25v-2.5" fill="url(#h)" fill-rule="evenodd" transform="translate(26.3 41.35)"/><path d="M10.75-30.6v2.5l-13.3 6.7-2.5-1.3 15.8-7.9" fill="url(#i)" fill-rule="evenodd" transform="translate(26.3 41.35)"/><path d="M23.75-28.1v7.5L-.1-8.65v-7.5L23.75-28.1" fill="url(#j)" fill-rule="evenodd" transform="translate(26.3 41.35)"/><path d="M-2.25-37.1v2.5l-13.3 6.65-2.5-1.25 15.8-7.9" fill="url(#k)" fill-rule="evenodd" transform="translate(26.3 41.35)"/><path d="M-3.1-31.65v.3h-.65l.65-.3" fill="url(#l)" fill-rule="evenodd" transform="translate(26.3 41.35)"/><path d="m-.1-21.15-.3-.2.35.2H-.1" fill="url(#m)" fill-rule="evenodd" transform="translate(26.3 41.35)"/><path d="M-26.05-21.7v-7.5l25.8 12.95.15.1v7.5l-.15-.1-25.8-12.95" fill="url(#n)" fill-rule="evenodd" transform="translate(26.3 41.35)"/><path d="M29.05 6.75 26.55 8 23.2 9.7l-.65.3-9 4.8 1.7.85 15.8-7.9-2-1-5-2.5v2.5L26.55 8m4.5 2.25 1.5.75 2.5-1.25-4-2v2.5l-13.3 6.65 1.5.75L32.55 11m7 3.5 2.5-1.25-5-2.5v2.5l2.5 1.25-13.3 6.7-2.5-1.25-2.5-1.3-2-1m15.8-7.9 2 1-15.8 7.9m28.8-5.4v30L26.2 55.2.25 42.15V36.4m0-24.25L24.05.25l26 13L26.2 25.2v7.5l23.85-11.95m-26-16.5-15.8 7.9 2.5 1.25 13.3-6.65m-13.3 6.65 2.8 1.4M.25 12.15l25.8 12.95.15.1m0 7.5v22.5M.25 19.65l25.8 12.95.15.1m-8.45-15.8-2.5-1.25m21.8-2.4-13.3 6.7M.25 36.4V12.15" fill="none" stroke="#333" stroke-linecap="round" stroke-linejoin="round" stroke-width=".5"/></g></defs></svg>