<svg height="182" width="160" xmlns:xlink="http://www.w3.org/1999/xlink" xmlns="http://www.w3.org/2000/svg">
    <g transform="matrix(0.648531,-0.421054,0.516307,0.81383,54.1112,35.7809)">
        <path
            d="M75.007,0.737C81.905,0.737 89.262,7.197 90.605,14.551C92.008,22.233 83.974,29.717 74.143,29.287C67.25,28.986 61.643,23.218 61.643,15.742C61.643,8.266 68.108,0.737 75.007,0.737Z"
            style="fill:rgb(147,215,24);stroke:black;stroke-width:2.3px;" />
    </g>
    <g transform="matrix(1.01322,0,0,1.02499,-1.27394,-0.789202)">
        <path d="M101.172,19.594C125.099,36.688 127.623,31.122 118.715,16.652"
            style="fill:none;stroke:black;stroke-width:1.96px;" />
    </g>
    <g transform="matrix(0.549702,-0.35689,0.547259,0.862618,59.6703,30.1893)">
        <ellipse cx="74.143" cy="15.742" rx="12.499" ry="13.545"
            style="fill:rgb(183,208,95);stroke:black;stroke-width:2.34px;" />
    </g>
    <g transform="matrix(0.519818,-0.337488,0.547259,0.862618,59.082,30.6009)">
        <ellipse cx="74.143" cy="15.742" rx="12.499" ry="13.545"
            style="fill:rgb(183,208,95);stroke:black;stroke-width:2.38px;" />
    </g>
    <g transform="matrix(0.193736,-0.125781,0.252929,0.39868,87.0396,22.483)">
        <ellipse cx="74.143" cy="15.742" rx="12.499" ry="13.545"
            style="fill:rgb(83,83,83);stroke:black;stroke-width:5.4px;" />
    </g>
    <g transform="matrix(2,0,0,2,79.741,142)">
        <path
            d="M4.1,-60L5.3,-59.45L9.15,-68.05L13.05,-59.45L14.3,-60L17.45,-56.95L18.55,-55.85L18.2,-55.45L18.3,-55.35C19.7,-53.983 20.467,-52.467 20.6,-50.8L20.65,-50.2C20.65,-49.1 20.383,-48.067 19.85,-47.1L19.6,-46.65L18.2,-44.95L18.3,-44.85L18,-44.55L14.75,-43.65L14.75,-38.95L11.5,-38.25L8.35,-37.35L9,-35.75L12.35,-37L15.35,-37.6C16.383,-37.6 17.1,-37.4 17.5,-37C18.033,-36.467 18.3,-35.8 18.3,-35C18.3,-34.267 18.05,-33.65 17.55,-33.15C16.85,-32.45 15.483,-32.033 13.45,-31.9L12.2,-31.85L12.55,-30.35L14.05,-30.4L14,-27.65L12.5,-26.4L12.5,-17.65L7.95,-17.65L7.95,-16.1L14.55,-16.1C15.017,-16.1 15.4,-15.967 15.7,-15.7C16.067,-15.333 16.25,-14.783 16.25,-14.05C16.25,-13.35 16.067,-12.817 15.7,-12.45C15.4,-12.15 15.017,-12 14.55,-12L7.95,-12L7.95,-11.05L-1.8,-11.05L-3.35,-9.55L-3.35,-3C-3.35,-2.533 -3.5,-2.15 -3.8,-1.85C-4.167,-1.483 -4.7,-1.3 -5.4,-1.3C-6.133,-1.3 -6.683,-1.483 -7.05,-1.85C-7.317,-2.15 -7.45,-2.533 -7.45,-3L-7.45,-9.55L-9,-9.55L-10.7,-10.65L-12.45,-14.55L-12.45,-16.95L-12.3,-16.95L-12.3,-18.45L-11.85,-18.85L-11.65,-19L-10.5,-20.4L-11.75,-21.4L-12.45,-20.45L-12.05,-31.4L-10.3,-44.2L-9.9,-43.85L-9.15,-44.55L-10.15,-45.65C-11.117,-46.883 -11.617,-48.217 -11.65,-49.65L-11.65,-49.9L-11.6,-50.8C-11.367,-52.333 -10.55,-53.75 -9.15,-55.05L-9.9,-55.8L-9.4,-59.75L-8.75,-59.45L-4.9,-68.05L-1.05,-59.45L0.2,-60L4.1,-60M5.3,-37.95C4.6,-38.65 3.517,-39 2.05,-39L-1.95,-38.25L-5.05,-37.35L-4.4,-35.75L-1.1,-37C0.033,-37.4 1.033,-37.6 1.9,-37.6C2.933,-37.6 3.65,-37.4 4.05,-37C4.583,-36.467 4.85,-35.8 4.85,-35C4.85,-34.267 4.6,-33.65 4.1,-33.15C3.4,-32.45 2.05,-32.033 0.05,-31.9L-1.25,-31.85L-0.9,-30.35C1.733,-30.383 3.7,-30.9 5,-31.9L5.4,-32.25C6.067,-32.917 6.4,-33.867 6.4,-35.1C6.4,-36.3 6.033,-37.25 5.3,-37.95"
            style="fill:white;" />
        <path
            d="M14.3,-60L13.05,-59.45L9.15,-68.05L5.3,-59.45L4.1,-60L9.15,-71L14.3,-60M0.2,-60L-1.05,-59.45L-4.9,-68.05L-8.75,-59.45L-9.4,-59.75L-9.95,-60L-4.9,-71L0.2,-60M-9.9,-55.8L-9.15,-55.05C-10.55,-53.75 -11.367,-52.333 -11.6,-50.8L-11.65,-49.9L-11.65,-49.65C-11.617,-48.217 -11.117,-46.883 -10.15,-45.65L-9.15,-44.55L-9.9,-43.85L-10.3,-44.2L-10.9,-44.9L-11.65,-45.95C-12.378,-47.099 -12.744,-48.441 -12.7,-49.8L-12.65,-50.8C-12.517,-51.8 -12.183,-52.75 -11.65,-53.65L-9.9,-55.8M-12.45,-20.45L-11.75,-21.4L-10.5,-20.4L-11.65,-19L-11.85,-18.85L-12.3,-18.45C-12.767,-18.15 -13.3,-18 -13.9,-18C-14.533,-18 -15.417,-18.367 -16.55,-19.1C-17.35,-19.533 -17.983,-19.75 -18.45,-19.75C-19.05,-19.75 -19.483,-19.567 -19.75,-19.2L-19.9,-19L-20.35,-18.25L-21.7,-19C-21.432,-19.635 -21.022,-20.2 -20.5,-20.65L-19.9,-21.1L-18.55,-21.45C-17.817,-21.45 -17.067,-21.183 -16.3,-20.65C-15.2,-20.083 -14.35,-19.8 -13.75,-19.8C-13.35,-19.8 -12.917,-20.017 -12.45,-20.45M-9,-9.55L-7.45,-9.55L-7.45,-3C-7.45,-2.533 -7.317,-2.15 -7.05,-1.85C-6.683,-1.483 -6.133,-1.3 -5.4,-1.3C-4.7,-1.3 -4.167,-1.483 -3.8,-1.85C-3.5,-2.15 -3.35,-2.533 -3.35,-3L-3.35,-9.55L-1.85,-9.55L-1.85,-2.95C-1.85,-2.117 -2.117,-1.433 -2.65,-0.9C-3.25,-0.3 -4.167,-0 -5.4,-0C-6.667,-0 -7.6,-0.3 -8.2,-0.9C-8.733,-1.433 -9,-2.117 -9,-2.95L-9,-9.55M7.95,-11.05L7.95,-12L14.55,-12C15.017,-12 15.4,-12.15 15.7,-12.45C16.067,-12.817 16.25,-13.35 16.25,-14.05C16.25,-14.783 16.067,-15.333 15.7,-15.7C15.4,-15.967 15.017,-16.1 14.55,-16.1L7.95,-16.1L7.95,-17.65L14.6,-17.65C15.433,-17.65 16.117,-17.383 16.65,-16.85C17.25,-16.25 17.55,-15.317 17.55,-14.05C17.55,-12.817 17.25,-11.9 16.65,-11.3L16.35,-11.05C15.85,-10.683 15.267,-10.5 14.6,-10.5L7.95,-10.5L7.95,-11.05M14.05,-30.4L12.55,-30.35L12.2,-31.85L13.45,-31.9C15.483,-32.033 16.85,-32.45 17.55,-33.15C18.05,-33.65 18.3,-34.267 18.3,-35C18.3,-35.8 18.033,-36.467 17.5,-37C17.1,-37.4 16.383,-37.6 15.35,-37.6L12.35,-37L9,-35.75L8.35,-37.35L11.5,-38.25L14.75,-38.95L15.5,-39C16.967,-39 18.05,-38.65 18.75,-37.95C19.483,-37.25 19.85,-36.3 19.85,-35.1C19.85,-33.867 19.517,-32.917 18.85,-32.25L18.45,-31.9C17.383,-31.1 15.917,-30.6 14.05,-30.4M18.3,-44.85L18.2,-44.95L19.6,-46.65L19.85,-47.1C20.383,-48.067 20.65,-49.1 20.65,-50.2L20.6,-50.8C20.467,-52.467 19.7,-53.983 18.3,-55.35L18.2,-55.45L18.55,-55.85L18.6,-55.85L18.9,-56.2C20.6,-54.633 21.517,-52.833 21.65,-50.8L21.7,-50.2C21.7,-48.933 21.4,-47.75 20.8,-46.65C20.333,-45.817 19.7,-45.017 18.9,-44.25L18.3,-44.85M5.3,-37.95C6.033,-37.25 6.4,-36.3 6.4,-35.1C6.4,-33.867 6.067,-32.917 5.4,-32.25L5,-31.9C3.7,-30.9 1.733,-30.383 -0.9,-30.35L-1.25,-31.85L0.05,-31.9C2.05,-32.033 3.4,-32.45 4.1,-33.15C4.6,-33.65 4.85,-34.267 4.85,-35C4.85,-35.8 4.583,-36.467 4.05,-37C3.65,-37.4 2.933,-37.6 1.9,-37.6C1.033,-37.6 0.033,-37.4 -1.1,-37L-4.4,-35.75L-5.05,-37.35L-1.95,-38.25L2.05,-39C3.517,-39 4.6,-38.65 5.3,-37.95"
            style="fill:rgb(51,51,51);" />
        <path d="M18.55,-55.85L17.45,-56.95L18.6,-55.85L18.55,-55.85" style="fill:rgb(255,0,0);" />
        <path d="M4.1,-60L0.2,-60M12.5,-20.35L12.5,-26.4M18.55,-55.85L17.45,-56.95"
            style="fill:none;fill-rule:nonzero;stroke:rgb(51,51,51);stroke-width:1px;stroke-miterlimit:4;" />
        <g id="d" transform="matrix(1.0012,0,0,1,2.40074,-48.4)">
            <path id="b" d="M10.25,-2.6L0.75,-2.6L-0.35,-3.6"
                style="fill:none;fill-rule:nonzero;stroke:rgb(51,51,51);stroke-width:1px;stroke-miterlimit:4;" />
            <g id="a" transform="matrix(1,0,0,1,-8.95,-0.6)">
                <path d="M2,-1.7L0,0.3L1.85,2.1M0,0.3L0,0.25L0,2.75M0,0.3L-1.85,2.1M-2,-1.7L0,0.25L0,-2.7"
                    style="fill:none;fill-rule:nonzero;stroke:rgb(254,165,192);stroke-width:1px;stroke-miterlimit:4;" />
            </g>
        </g>
    </g>
    <g transform="matrix(0.815332,0.215996,-0.259297,0.978785,5.85127,-11.8264)">
        <ellipse cx="74.143" cy="15.742" rx="12.499" ry="13.545"
            style="fill:rgb(183,208,95);stroke:black;stroke-width:2.15px;" />
    </g>
    <g transform="matrix(0.815332,0.215996,-0.256084,0.966655,1.20341,-12.5736)">
        <path
            d="M74.143,2.197C81.041,2.197 86.642,8.266 86.642,15.742C86.642,23.218 81.041,29.287 74.143,29.287C67.244,29.287 60.102,23.298 60.102,15.822C60.102,8.346 67.244,2.197 74.143,2.197Z"
            style="fill:rgb(147,215,24);stroke:black;stroke-width:2.16px;" />
    </g>
    <g transform="matrix(0.380536,0.100811,-0.119521,0.451162,26.7701,2.61145)">
        <ellipse cx="74.143" cy="15.742" rx="12.499" ry="13.545"
            style="fill:rgb(176,234,70);stroke:rgb(155,225,25);stroke-width:4.63px;" />
    </g>
    <path d="M48.428,28.261C49.653,37.13 54.777,35.258 61.256,30.398C64.169,28.213 65.391,24.324 65.957,20.762"
        style="fill:none;stroke:black;stroke-width:2px;" />
    <path d="M52.854,35.542C63.794,73.312 124.109,76.448 122.078,30.783"
        style="fill:none;stroke:black;stroke-width:2px;" />
    <path
        d="M92.977,64.591C98.51,62.898 101.075,63.185 109.547,55.616L116.634,53.132C111.365,60.857 103.359,64.025 92.977,64.591Z"
        style="fill:rgb(147,141,203);stroke:black;stroke-width:2px;" />
    <path
        d="M120.848,48.065C122.549,44.164 124.962,37.93 125.604,32.279L119.849,32.406C121.51,37.549 121.638,41.903 120.504,45.626L120.848,48.065Z"
        style="fill:rgb(147,141,203);stroke:black;stroke-width:2px;" />
    <path
        d="M58.341,38.045L49.668,36.754C57.85,56.362 72.67,64.721 91.185,64.893C76.284,63.576 64.631,55.108 58.341,38.045Z"
        style="fill:rgb(175,195,13);stroke:black;stroke-width:2px;" />
    <path
        d="M1.357 0h.2l.554.1.452.35q.452.45.452 1L2.563 2.6Q2.11 3 1.558 3l-.804-.2-.252-.2-.452-.7v-.15L0 1.45v-.1q.05-.5.502-.9l.252-.2q.251-.2.552-.25h.05m.453.85L1.558.8q-.352-.05-.553.2-.201.15-.201.45v.15l.15.45h.051l.05.05.201.1.302.05.552-.2.151-.6-.05-.3-.1-.15-.05-.05-.151-.1h-.101M18.257 0h.2l.553.1.453.35q.452.45.452 1l-.452 1.15q-.453.4-1.005.4l-.804-.2-.252-.2-.452-.7v-.15l-.05-.3v-.1q.05-.5.502-.9l.252-.2q.251-.2.552-.25h.05m.453.85L18.458.8q-.352-.05-.553.2-.201.15-.201.45v.15l.15.45h.051l.05.05.201.1.302.05.553-.2.15-.6-.05-.3-.1-.15-.05-.05-.151-.1h-.101"
        style="stroke-width:1.0025" transform="matrix(2.0024 0 0 2 73.743 27)" id="gikopoipoi_eyes_open"
        fill-rule="evenodd" />
    <g id="gikopoipoi_eyes_closed" style="display:none" fill="none" stroke="#000" stroke-linecap="round"
        stroke-linejoin="round">
        <path d="M107.46 30.1h6.3" stroke-width="3" />
        <path d="M-.05 1.55H3.1" stroke-width="1.5" style="display:inline" transform="matrix(2 0 0 2 73.719 27)" />
    </g>
</svg>