<svg height="182" width="160" xmlns:xlink="http://www.w3.org/1999/xlink" xmlns="http://www.w3.org/2000/svg">
    <g transform="matrix(0.648531,-0.421054,0.516307,0.81383,54.1112,35.7809)">
        <path d="M75.007,0.737C81.905,0.737 89.262,7.197 90.605,14.551C92.008,22.233 83.974,29.717 74.143,29.287C67.25,28.986 61.643,23.218 61.643,15.742C61.643,8.266 68.108,0.737 75.007,0.737Z" style="fill:rgb(147,215,24);stroke:black;stroke-width:2.3px;"/>
    </g>
    <g transform="matrix(1.01322,0,0,1.02499,-1.27394,-0.789202)">
        <path d="M101.172,19.594C125.099,36.688 127.623,31.122 118.715,16.652" style="fill:none;stroke:black;stroke-width:1.96px;"/>
    </g>
    <g transform="matrix(0.549702,-0.35689,0.547259,0.862618,59.6703,30.1893)">
        <ellipse cx="74.143" cy="15.742" rx="12.499" ry="13.545" style="fill:rgb(183,208,95);stroke:black;stroke-width:2.34px;"/>
    </g>
    <g transform="matrix(0.519818,-0.337488,0.547259,0.862618,59.082,30.6009)">
        <ellipse cx="74.143" cy="15.742" rx="12.499" ry="13.545" style="fill:rgb(183,208,95);stroke:black;stroke-width:2.38px;"/>
    </g>
    <g transform="matrix(0.193736,-0.125781,0.252929,0.39868,87.0396,22.483)">
        <ellipse cx="74.143" cy="15.742" rx="12.499" ry="13.545" style="fill:rgb(83,83,83);stroke:black;stroke-width:5.4px;"/>
    </g>
    <g transform="matrix(2,0,0,2,79.541,142)">
        <g id="d" transform="matrix(1,0,0,1,-21.6,-71)">
            <g transform="matrix(1,0,0,1,21.6,71)">
                <path d="M4.2,-60L5.4,-59.45L9.25,-68.05L13.15,-59.45L14.4,-60L17.55,-56.95L18.65,-55.85L18.3,-55.45L18.4,-55.35C19.8,-53.983 20.567,-52.467 20.7,-50.8L20.75,-50.2C20.75,-49.1 20.483,-48.067 19.95,-47.1L19.7,-46.65L18.3,-44.95L18.4,-44.85L18.1,-44.55L14.85,-43.65L14.85,-38.95L13.6,-38.75L11.6,-38.25L8.45,-37.35L9.1,-35.75L12.45,-37C13.583,-37.4 14.583,-37.6 15.45,-37.6C16.483,-37.6 17.2,-37.4 17.6,-37C18.133,-36.467 18.4,-35.8 18.4,-35C18.4,-34.267 18.15,-33.65 17.65,-33.15C16.95,-32.45 15.583,-32.033 13.55,-31.9L12.3,-31.85L12.65,-30.35L14.15,-30.4L14.1,-27.65L12.6,-26.4L12.6,-20.65L8.05,-20.65L8.05,-19.1L14.65,-19.1C15.117,-19.1 15.5,-18.967 15.8,-18.7C16.167,-18.333 16.35,-17.783 16.35,-17.05C16.35,-16.35 16.167,-15.817 15.8,-15.45C15.5,-15.15 15.117,-15 14.65,-15L8.05,-15L8.05,-13.5L2.25,-13.5C3.05,-13.5 3.7,-13.767 4.2,-14.3C4.8,-14.9 5.1,-15.817 5.1,-17.05C5.1,-18.317 4.8,-19.25 4.2,-19.85C3.667,-20.383 2.983,-20.65 2.15,-20.65L-4.45,-20.65L-4.45,-19.1L2.1,-19.1C2.567,-19.1 2.95,-18.967 3.25,-18.7C3.617,-18.333 3.8,-17.783 3.8,-17.05C3.8,-16.35 3.617,-15.817 3.25,-15.45C2.95,-15.15 2.567,-15 2.1,-15L-4.45,-15L-4.45,-13.5L-8.95,-13.5L-12.2,-16.75L-12.2,-18.45L-11.75,-18.85C-11.25,-19.25 -10.8,-19.767 -10.4,-20.4L-11.65,-21.4L-12.35,-20.45L-11.95,-31.4L-10.2,-44.2L-9.8,-43.85L-9.05,-44.55L-10.05,-45.65C-11.05,-46.917 -11.55,-48.3 -11.55,-49.8L-11.5,-50.8C-11.267,-52.333 -10.45,-53.75 -9.05,-55.05L-9.8,-55.8L-9.3,-59.75L-8.65,-59.45L-4.8,-68.05L-0.95,-59.45L0.3,-60L4.2,-60M5.4,-37.95L4.05,-38.75L2.15,-39L0.15,-38.75L-1.85,-38.25L-4.95,-37.35L-4.3,-35.75L-1,-37C0.133,-37.4 1.133,-37.6 2,-37.6C3.033,-37.6 3.75,-37.4 4.15,-37C4.683,-36.467 4.95,-35.8 4.95,-35C4.95,-34.267 4.7,-33.65 4.2,-33.15C3.5,-32.45 2.15,-32.033 0.15,-31.9L-1.15,-31.85L-0.8,-30.35C1.833,-30.383 3.8,-30.9 5.1,-31.9L5.5,-32.25C6.167,-32.917 6.5,-33.867 6.5,-35.1C6.5,-36.3 6.133,-37.25 5.4,-37.95" style="fill:white;"/>
            </g>
            <g transform="matrix(1,0,0,1,21.6,71)">
                <path d="M14.4,-60L13.15,-59.45L9.25,-68.05L5.4,-59.45L4.2,-60L9.25,-71L14.4,-60M0.3,-60L-0.95,-59.45L-4.8,-68.05L-8.65,-59.45L-9.3,-59.75L-9.85,-60L-4.8,-71L0.3,-60M-9.8,-55.8L-9.05,-55.05C-10.45,-53.75 -11.267,-52.333 -11.5,-50.8L-11.55,-49.8C-11.55,-48.3 -11.05,-46.917 -10.05,-45.65L-9.05,-44.55L-9.8,-43.85L-10.2,-44.2L-10.8,-44.9C-12,-46.367 -12.6,-48 -12.6,-49.8L-12.55,-50.8C-12.317,-52.667 -11.4,-54.333 -9.8,-55.8M-12.35,-20.45L-11.65,-21.4L-10.4,-20.4C-10.8,-19.767 -11.25,-19.25 -11.75,-18.85L-12.2,-18.45C-12.567,-18.217 -12.983,-18.067 -13.45,-18L-13.8,-18C-14.433,-18 -15.317,-18.367 -16.45,-19.1C-17.25,-19.533 -17.883,-19.75 -18.35,-19.75C-18.95,-19.75 -19.383,-19.567 -19.65,-19.2L-20.25,-18.25L-21.6,-19C-21.333,-19.633 -20.933,-20.183 -20.4,-20.65C-19.867,-21.183 -19.217,-21.45 -18.45,-21.45C-17.717,-21.45 -16.967,-21.183 -16.2,-20.65C-15.1,-20.083 -14.25,-19.8 -13.65,-19.8C-13.217,-19.8 -12.783,-20.017 -12.35,-20.45M-4.45,-13.5L-4.45,-15L2.1,-15C2.567,-15 2.95,-15.15 3.25,-15.45C3.617,-15.817 3.8,-16.35 3.8,-17.05C3.8,-17.783 3.617,-18.333 3.25,-18.7C2.95,-18.967 2.567,-19.1 2.1,-19.1L-4.45,-19.1L-4.45,-20.65L2.15,-20.65C2.983,-20.65 3.667,-20.383 4.2,-19.85C4.8,-19.25 5.1,-18.317 5.1,-17.05C5.1,-15.817 4.8,-14.9 4.2,-14.3C3.7,-13.767 3.05,-13.5 2.25,-13.5L-4.45,-13.5M8.05,-13.5L8.05,-15L14.65,-15C15.117,-15 15.5,-15.15 15.8,-15.45C16.167,-15.817 16.35,-16.35 16.35,-17.05C16.35,-17.783 16.167,-18.333 15.8,-18.7C15.5,-18.967 15.117,-19.1 14.65,-19.1L8.05,-19.1L8.05,-20.65L14.7,-20.65C15.533,-20.65 16.217,-20.383 16.75,-19.85C17.35,-19.25 17.65,-18.317 17.65,-17.05C17.65,-15.817 17.35,-14.9 16.75,-14.3C16.217,-13.767 15.533,-13.5 14.7,-13.5L8.05,-13.5M14.15,-30.4L12.65,-30.35L12.3,-31.85L13.55,-31.9C15.583,-32.033 16.95,-32.45 17.65,-33.15C18.15,-33.65 18.4,-34.267 18.4,-35C18.4,-35.8 18.133,-36.467 17.6,-37C17.2,-37.4 16.483,-37.6 15.45,-37.6C14.583,-37.6 13.583,-37.4 12.45,-37L9.1,-35.75L8.45,-37.35L11.6,-38.25L13.6,-38.75L14.85,-38.95L15.6,-39L17.45,-38.75C18.017,-38.583 18.483,-38.317 18.85,-37.95C19.583,-37.25 19.95,-36.3 19.95,-35.1C19.95,-33.867 19.617,-32.917 18.95,-32.25L18.55,-31.9C17.483,-31.1 16.017,-30.6 14.15,-30.4M18.4,-44.85L18.3,-44.95L19.7,-46.65L19.95,-47.1C20.483,-48.067 20.75,-49.1 20.75,-50.2L20.7,-50.8C20.567,-52.467 19.8,-53.983 18.4,-55.35L18.3,-55.45L18.65,-55.85L18.7,-55.85L19,-56.2C20.7,-54.633 21.617,-52.833 21.75,-50.8L21.8,-50.2C21.8,-48.933 21.5,-47.75 20.9,-46.65C20.433,-45.817 19.8,-45.017 19,-44.25L18.4,-44.85M5.4,-37.95C6.133,-37.25 6.5,-36.3 6.5,-35.1C6.5,-33.867 6.167,-32.917 5.5,-32.25L5.1,-31.9C3.8,-30.9 1.833,-30.383 -0.8,-30.35L-1.15,-31.85L0.15,-31.9C2.15,-32.033 3.5,-32.45 4.2,-33.15C4.7,-33.65 4.95,-34.267 4.95,-35C4.95,-35.8 4.683,-36.467 4.15,-37C3.75,-37.4 3.033,-37.6 2,-37.6C1.133,-37.6 0.133,-37.4 -1,-37L-4.3,-35.75L-4.95,-37.35L-1.85,-38.25L0.15,-38.75L2.15,-39L4.05,-38.75L5.4,-37.95" style="fill:rgb(51,51,51);"/>
            </g>
            <g transform="matrix(1,0,0,1,21.6,71)">
                <path d="M18.65,-55.85L17.55,-56.95L18.7,-55.85L18.65,-55.85" style="fill:rgb(255,0,0);"/>
            </g>
            <g transform="matrix(1,0,0,1,21.6,71)">
                <path d="M4.2,-60L0.3,-60M12.6,-20.65L12.6,-26.4M18.65,-55.85L17.55,-56.95" style="fill:none;fill-rule:nonzero;stroke:rgb(51,51,51);stroke-width:1px;stroke-miterlimit:4;"/>
            </g>
        </g>
        <g id="e" transform="matrix(1.0012,0,0,1,2.70074,-48.3)">
            <path id="a" d="M10.25,-2.6L0.75,-2.6L-0.35,-3.6" style="fill:none;fill-rule:nonzero;stroke:rgb(51,51,51);stroke-width:1px;stroke-miterlimit:4;"/>
            <g id="c" transform="matrix(1,0,0,1,-8.95,-0.6)">
                <path d="M2,-1.7L0,0.3L1.85,2.1M0,0.3L0,0.25L0,2.75M0,0.3L-1.85,2.1M-2,-1.7L0,0.25L0,-2.7" style="fill:none;fill-rule:nonzero;stroke:rgb(254,165,192);stroke-width:1px;stroke-miterlimit:4;"/>
            </g>
        </g>
    </g>
    <g transform="matrix(0.815332,0.215996,-0.259297,0.978785,5.85127,-11.8264)">
        <ellipse cx="74.143" cy="15.742" rx="12.499" ry="13.545" style="fill:rgb(183,208,95);stroke:black;stroke-width:2.15px;"/>
    </g>
    <g transform="matrix(0.815332,0.215996,-0.256084,0.966655,1.20341,-12.5736)">
        <path d="M74.143,2.197C81.041,2.197 86.642,8.266 86.642,15.742C86.642,23.218 81.041,29.287 74.143,29.287C67.244,29.287 60.102,23.298 60.102,15.822C60.102,8.346 67.244,2.197 74.143,2.197Z" style="fill:rgb(147,215,24);stroke:black;stroke-width:2.16px;"/>
    </g>
    <g transform="matrix(0.380536,0.100811,-0.119521,0.451162,26.7701,2.61145)">
        <ellipse cx="74.143" cy="15.742" rx="12.499" ry="13.545" style="fill:rgb(176,234,70);stroke:rgb(155,225,25);stroke-width:4.63px;"/>
    </g>
    <path d="M48.428,28.261C49.653,37.13 54.777,35.258 61.256,30.398C64.169,28.213 65.391,24.324 65.957,20.762" style="fill:none;stroke:black;stroke-width:2px;"/>
    <path d="M52.854,35.542C63.794,73.312 124.109,76.448 122.078,30.783" style="fill:none;stroke:black;stroke-width:2px;"/>
    <path d="M92.977,64.591C98.51,62.898 101.075,63.185 109.547,55.616L116.634,53.132C111.365,60.857 103.359,64.025 92.977,64.591Z" style="fill:rgb(147,141,203);stroke:black;stroke-width:2px;"/>
    <path d="M120.848,48.065C122.549,44.164 124.962,37.93 125.604,32.279L119.849,32.406C121.51,37.549 121.638,41.903 120.504,45.626L120.848,48.065Z" style="fill:rgb(147,141,203);stroke:black;stroke-width:2px;"/>
    <path d="M58.341,38.045L49.668,36.754C57.85,56.362 72.67,64.721 91.185,64.893C76.284,63.576 64.631,55.108 58.341,38.045Z" style="fill:rgb(175,195,13);stroke:black;stroke-width:2px;"/>
    <path d="M1.357 0h.2l.554.1.452.35q.452.45.452 1L2.563 2.6Q2.11 3 1.558 3l-.804-.2-.252-.2-.452-.7v-.15L0 1.45v-.1q.05-.5.502-.9l.252-.2q.251-.2.552-.25h.05m.453.85L1.558.8q-.352-.05-.553.2-.201.15-.201.45v.15l.15.45h.051l.05.05.201.1.302.05.552-.2.151-.6-.05-.3-.1-.15-.05-.05-.151-.1h-.101M18.257 0h.2l.553.1.453.35q.452.45.452 1l-.452 1.15q-.453.4-1.005.4l-.804-.2-.252-.2-.452-.7v-.15l-.05-.3v-.1q.05-.5.502-.9l.252-.2q.251-.2.552-.25h.05m.453.85L18.458.8q-.352-.05-.553.2-.201.15-.201.45v.15l.15.45h.051l.05.05.201.1.302.05.553-.2.15-.6-.05-.3-.1-.15-.05-.05-.151-.1h-.101" style="stroke-width:1.0025" transform="matrix(2.0024 0 0 2 73.743 27)" id="gikopoipoi_eyes_open" fill-rule="evenodd"/><g id="gikopoipoi_eyes_closed" style="display:none" fill="none" stroke="#000" stroke-linecap="round" stroke-linejoin="round"><path d="M107.46 30.1h6.3" stroke-width="3"/><path d="M-.05 1.55H3.1" stroke-width="1.5" style="display:inline" transform="matrix(2 0 0 2 73.719 27)"/></g></svg>