<svg xmlns="http://www.w3.org/2000/svg" xmlns:xlink="http://www.w3.org/1999/xlink" height="463" width="920.8"><defs><g id="i"><path d="M10.35-5.1H-10.5v.05l-9.6-4.8 9.6 4.8V5.6h20.85V-5.1l9.55-4.75-9.55 4.75M-20.1-9.85l20-10 20 10 20 10-.05.05-19.95 9.95L.6 19.8l-.55.3L-39.9.05l19.8-9.9M10.35 5.4l9.55 4.75-9.55-4.75m-22.3.7.05-.05 1.4-.7-1.4.7h-.05v.05l-7.45 3.7 7.45-3.7" fill="#f4f4f1" fill-rule="evenodd" transform="translate(40.4 20.35)"/><path d="M39.85.2v1.95L.6 21.8l-.55.3L-39.9 2.05v-2L.05 20.1H.1v-.05l.5-.25 19.3-9.65L39.85.2M.05 22.1l.05-2-.05 2" fill="#666" fill-rule="evenodd" transform="translate(40.4 20.35)"/><path d="M-10.5-5.05v-.05h20.85V5.6H-10.5V-5.05" fill="#a8a790" fill-rule="evenodd" transform="translate(40.4 20.35)"/><path d="m10.35-5.1 9.55-4.75-20-10-20 10 9.6 4.8m30.4-4.8 20 10-.05.05m0 1.95L.6 21.8m-.55.3L-39.9 2.05m0-2 19.8-9.9m40 20L10.35 5.4M.6 19.8l-.55.3L-39.9.05M.6 19.8l19.3-9.65L39.85.2M-11.9 6.05l-.05.05-7.45 3.7m7.5-3.75 1.4-.7" fill="none" stroke="#9e9d83" stroke-linecap="round" stroke-linejoin="round" transform="translate(40.4 20.35)"/><path d="M80.25 20.55v1.9M.5 22.4v-2m39.95 20.05.05-.05.5-.25m-.5.25v.05l-.05 2" fill="none" stroke="#9e9d83" stroke-linecap="round" stroke-linejoin="round" stroke-width=".5"/></g><g id="j"><path d="m-40.05-4.1 10-5L9.9 10.95q-5 2.45-9.95 4.95l-.05.05L-40.05-4.1" fill="#cac9c0" fill-rule="evenodd" transform="translate(40.3 9.35)"/><path d="M-40.05-4.1-.1 15.95h.05v-.05q4.95-2.5 9.95-4.95h.05L9.9 12.9l-.05.05h.1L9.9 14.9l-.5.25.45-.2h.05l.05-.05-.05 2-10 5.05L-40.05 1.9v-6M-.1 17.95h.05v-.05l-.05.05.05-2-.05 2m0 4 .05-2.05-.05.05.05-2-.05 2 .05-.05-.05 2.05" fill="#b9b8ac" fill-rule="evenodd" transform="translate(40.3 9.35)"/><path d="m-.1 15.95.05-.05v.05H-.1m.05 2H-.1l.05-.05v.05" fill="#e7e6e0" fill-rule="evenodd" transform="translate(40.3 9.35)"/><path d="m9.9 14.9-.05.05-.45.2.5-.25" fill="#dbdad0" fill-rule="evenodd" transform="translate(40.3 9.35)"/><path d="M50.2 20.3 10.25.25l-10 5L40.2 25.3l.05-.05q4.95-2.5 9.95-4.95l.05-.05v.05l-.05 1.95-.05.05h.05l.05-.05v.05l-.05 1.95-.05.05h.05l.05-.05-.05 2-10 5.05L.25 11.25v-6m40 20.05v-.05m-.05 2.05.05-2m-.05 2 .05-.05v.05l-.05 2 .05-.05-.05 2.05" fill="none" stroke="#676767" stroke-linecap="round" stroke-linejoin="round" stroke-width=".5"/></g><g id="k"><path d="M49.95 20.05H50L49.95 22l-.05.05h.1L49.95 24l-.05.05h.05L50 24l-.05 2-10 5.05L0 11V5l39.95 20.05L40 25l9.95-4.95M40 25l-.05 2.05L40 27l-.05 2.05L40 29l-.05 2.05L40 29l-.05.05L40 27l-.05.05L40 25" fill="#e8e8e1" fill-rule="evenodd" transform="translate(.25 .25)"/><path d="m0 5 10-5 39.95 20.05L40 25l-.05.05L0 5" fill="#f4f4f1" fill-rule="evenodd" transform="translate(.25 .25)"/><path d="M50.25 20.3v-.05l-.05.05L10.25.25l-10 5L40.2 25.3l.05-.05 9.95-4.95m.05 0-.05 1.95-.05.05h.05l.05-.05v.05l-.05 1.95-.05.05h.05l.05-.05-.05 2-10 5.05L.25 11.25v-6M40.2 31.3l.05-2.05-.05.05.05-2.05-.05.05.05-2.05" fill="none" stroke="#9e9d83" stroke-linecap="round" stroke-linejoin="round" stroke-width=".5"/></g><g id="r"><path d="m82.95 245.3 1.2 4.1-.95.9q-1.35.95-3.25.95t-3.25-.95l-.9-.9 1.15-4.1h6" fill="url(#a)" fill-rule="evenodd" transform="translate(21.1 -192)"/><path d="m76.95 245.3-1.15 4.1.9.9q1.35.95 3.25.95t3.25-.95l.95-.9-1.2-4.1" fill="none" stroke="#cdcdc0" stroke-linecap="round" stroke-linejoin="round" transform="translate(21.1 -192)"/><path d="m113.1 252.5-.2-.2q-.1-.3.3-.75l.25-.25q.35-.5.75-.55h.35l.2.2-.3.7-.25.3-.75.55h-.35m-.75-2.55-.45-.05-.15-.05-.1.15.5.15-1.45 1.75.4.1 1.85-2.2-.2-.05-.4.2m2.4.55-.7-.05-1 .7-.25.25q-.45.55-.35.95l.45.4.7.05 1-.7.2-.25.4-.95-.45-.4m.35-1.7q1.4.55 1.8 1.65.35 1.15-.5 2.2-.85 1-2.45 1.35l-3.05-.15q-1.45-.55-1.8-1.7-.4-1.1.5-2.15.85-1.05 2.45-1.4l3.05.2" fill="#633" fill-rule="evenodd" transform="translate(21.1 -192)"/><path d="m114.75 250.5.45.4-.4.95-.2.25-1 .7-.7-.05-.45-.4q-.1-.4.35-.95l.25-.25 1-.7.7.05m-2.4-.55.4-.2.2.05-1.85 2.2-.4-.1 1.45-1.75-.5-.15.1-.15.15.05.45.05m.75 2.55h.35l.75-.55.25-.3.3-.7-.2-.2h-.35q-.4.05-.75.55l-.25.25q-.4.45-.3.75l.2.2" fill="#ddbcbc" fill-rule="evenodd" transform="translate(21.1 -192)"/><path d="m66.6 253.1-.3-.15q-.6-.4-1.1-.3-.4-.05-.65.2-.25.2-.2.45 0 .35.6.7l.3.15 1.1.35.6-.25.25-.45-.6-.7m-.6.05.3.15.5.55-.1.25-.35.1-.85-.25-.3-.2-.45-.5q-.05-.15.05-.25l.35-.1q.35-.05.85.25m1.55-1.25.3.2.5.5-.1.25-.35.1-.85-.25-.25-.15-.5-.55.1-.25q.1-.1.3-.1.35-.05.85.25m.6-.05-.3-.15q-.6-.4-1.1-.3-.4-.05-.65.2-.25.2-.2.45 0 .35.6.7l.3.2 1.1.3.6-.25.25-.4-.6-.75m2.55 1.25q.1 1.45-1.3 2.6-1.4 1.1-3.5 1.25-2.05.15-3.5-.7-1.5-.9-1.6-2.3-.05-1.45 1.35-2.55 1.4-1.15 3.45-1.3 2.1-.2 3.6.7 1.45.85 1.5 2.3m-7.2 1.4 1.8 1.05.3-.25-2.4-1.4-.15.15.15.25-.15.3-.1.05.15.1.4-.25" fill="#999" fill-rule="evenodd" transform="translate(21.1 -192)"/><path d="m68.15 251.85.6.75-.25.4-.6.25-1.1-.3-.3-.2q-.6-.35-.6-.7-.05-.25.2-.45.25-.25.65-.2.5-.1 1.1.3l.3.15m-.6.05q-.5-.3-.85-.25-.2 0-.3.1l-.1.25.5.55.25.15.85.25.35-.1.1-.25-.5-.5-.3-.2M66 253.15q-.5-.3-.85-.25l-.35.1q-.1.1-.05.25l.45.5.3.2.85.25.35-.1.1-.25-.5-.55-.3-.15m.6-.05.6.7-.25.45-.6.25-1.1-.35-.3-.15q-.6-.35-.6-.7-.05-.25.2-.45.25-.25.65-.2.5-.1 1.1.3l.3.15m-3.1 1.4-.4.25-.15-.1.1-.05.15-.3-.15-.25.15-.15 2.4 1.4-.3.25-1.8-1.05" fill="#ccc" fill-rule="evenodd" transform="translate(21.1 -192)"/><path d="M115.1 248.8q1.4.55 1.8 1.65.35 1.15-.5 2.2-.85 1-2.45 1.35l-3.05-.15q-1.45-.55-1.8-1.7-.4-1.1.5-2.15.85-1.05 2.45-1.4l3.05.2" fill="none" stroke="#8c4646" stroke-linecap="round" stroke-linejoin="round" transform="translate(21.1 -192)"/><path d="M70.7 253.1q.1 1.45-1.3 2.6-1.4 1.1-3.5 1.25-2.05.15-3.5-.7-1.5-.9-1.6-2.3-.05-1.45 1.35-2.55 1.4-1.15 3.45-1.3 2.1-.2 3.6.7 1.45.85 1.5 2.3" fill="none" stroke="#ccc" stroke-linecap="round" stroke-linejoin="round" transform="translate(21.1 -192)"/><path d="m151.85 255.2-1 .5 2.85 1.4-.25.1 86.05 43.05-101.05 50.5L36.5 299.8l28.45-14.25-86.05-43L79.95 192l97.65 48.85-26.75 13.35.5.25-.5.25 1 .5" fill="#0cc" fill-opacity=".4" fill-rule="evenodd" transform="translate(21.1 -192)"/></g><g id="l"><path d="m13.8-9.9 1.05 1.45-.35-.25-.65-.55h-.05v-.65m3.6 11.55-.5 3.45-.35-.3-.05.05V2.3h.05l.85-.65M-8.8 16l-2.3-1.65.1-.1h.05L-8.8 16m-8.25-10.75q-.45-1.85-.55-3.8l1.05.8v2.6l-.5.4m1.85-13.4 1.45-2.05v.9l-1.45 1.15m20.7 13h.05L8.25 7v.25L5.4 5.05 5 5.5 2.85 7v-.05l2.65-2.1m2.75 4.2v.45l-2.7 2.15h-.1L5 11.3l3.25-2.25M-5.9 5.15l.4-.3h.05L-2.75 7v.3q-1.6-.55-2.85-1.8l-.3-.35m-1.35 5.15 2.05 1.15-.25.2h-.1l-1.7-1.35" fill="#dbd5d5" fill-rule="evenodd" transform="translate(21.1 20.25)"/><path d="m-5.5-15.95-.05.05q-2.55.8-4.75 2.45h-.05l-2.1 1.85-1.25 1.35 1.25-1.35 2.1-1.85h.05q2.2-1.65 4.75-2.45v1.95l-2.65 2.1h.05l2.65-2.1h.05l2.7 2.15v2.5l-2.7 2.15h-.1L-7.5-8.7l1.95 1.55v2.6l-2.65 2.1h-.05l-2.7-2.15H-11v-2.5h.05l2.7-2.15h.05v-2.6h-.05v2.55l-2.7 2.15h-.1L-13-8.7l1.95 1.55v2.6l-2.65 2.1h.05l2.65-2.1h.05l2.7 2.15V.1l-2.7 2.15h-.1L-13 .7l1.95 1.55v2.6l-2.65 2.1h-.05l-2.7-2.15h-.05V2.3h.05l2.7-2.15h.05v-2.6h-.05l-2.7-2.15h-.05v-.9l-.05.1-.35 1.15q-.7 2.35-.7 5v.7-.7q0-2.65.7-5l.35-.3h.1l2.7 2.15V.1l-2.7 2.15h-.1l-1.05-.8q.1 1.95.55 3.8.7 2.7 2.3 5.05-1.6-2.35-2.3-5.05l.5-.4h.1l2.7 2.15v2.5l-1 .8v.05l2.3 2.75 1.3 1.25-1.3-1.25-2.3-2.75 1-.8h.05v-2.6h.05l2.65-2.1h.05L-8.4 6.9l.05-.05-2.6-2.05H-11V2.3h.05l2.7-2.15h.05l.7.55-.65-.55h-.05v-2.6h.05l2.65-2.1h.05l1.9 1.5-1.9-1.55h-.05v-2.5h.05l2.7-2.15h.05v-2.6h-.05L-5.45-14h-.05v-1.95l3.25-.65-3.25.65m7.75-.65h-4.5v2.4h2.2v.25l-2.65 2.1h.05L0-13.95h.05l2.7 2.15v2.5L.05-7.15h-.1L-2-8.7l1.95 1.55v2.6l-.05.05q-2 0-3.45 1.45L-3.6-3Q-5.05-1.55-5.05.5l.15 1.3-.55.45h-.1L-7.5.7l1.95 1.55v2.6l-.35.3.3.35q1.25 1.25 2.85 1.8h.05v-.35h.05l1.85-1.5.75.05.8-.05 2 1.55v.05q-1.4.6-3.05.65l-2.4-.4 2.4.4q1.65-.05 3.05-.65h.05L2.85 7 5 5.5l.4-.45 2.85 2.2.05.05v-.35h-.05L5.55 4.8H5.5V2.3h.05L8.25.15h.05v-2.6h-.05L5.55-4.6H5.5v-2.5h.05l2.7-2.15h.05l.7.55 1.95 1.55L9-8.7l-.65-.55H8.3v-2.6h-.05L5.55-14H5.5v-1.85l-.05-.05-3.2-.7 3.2.7v1.95l-2.65 2.1h.05l2.65-2.1h.05l2.7 2.15v2.5l-2.7 2.15h-.1L3.5-8.7l1.95 1.55v2.6l-.55.45.6-.45h.05l2.7 2.15V.1l-2.7 2.15h-.1l-.65-.5.65.5v2.6L2.8 6.95h-.05l-1.9-1.5q1.5-.25 2.65-1.4 1-1 1.3-2.3L4.95.5q0-2.05-1.45-3.5Q2.1-4.4.15-4.5l-.1-.1H0v-2.5h.05l2.7-2.15h.05l.7.55-.65-.55H2.8v-2.6h-.05L.05-14H0v-.2h2.25v-2.4m8 3.2q-2.2-1.65-4.75-2.45 2.55.8 4.75 2.45L8.3-11.85h.05l1.95-1.55h-.05m3.5 3.45L12.3-11.6l-2-1.8 2 1.8 1.45 1.65v.65l-2.7 2.15h-.1v2.6L8.3-2.45h.05L11-4.55h.05l2.7 2.15V.1l-2.7 2.15h-.1v2.6L8.3 6.95h.05L11 4.85h.05L13.75 7v2.5l-2.7 2.15h-.1v2.6L9.5 15.4l-1.4.85-2.55-2.05H5.5v-2.5h.05l2.7-2.15h.05l.7.55 1.95 1.55L9 10.1l-.65-.55H8.3V9l.25-.25.7-.75-.95-.7.95.7-.7.75L8.3 9l-.05.05L5 11.3l.45.35v2.6l-2.65 2.1h-.05L.05 14.2H0v-1.8h-.05v1.85l-2.65 2.1h.05L0 14.25h.05l2.7 2.15v.15H7.5 2.8v-.2h.05l2.65-2.1h.05l2.5 2.05.2.1.05-.05h.05L9.7 15.3l1.35-1.05 1.25-1.15 2.35-2.9q1.55-2.35 2.25-5.05-.7 2.7-2.25 5.05l-2.35 2.9-1.25 1.15v-.05H11v-2.5h.05l2.7-2.15h.05l.7.55-.65-.55h-.05v-2.6h.05l2.65-2.1h.05l.35.3V5.1l.5-3.45v-.9q0-2.75-.7-5.2.7 2.45.7 5.2v.85l-.85.65h-.1L14.5.7l1.95 1.55v2.6l-2.65 2.1h-.05l-2.7-2.15H11V2.3h.05l2.7-2.15h.05l.7.55-.65-.55h-.05v-2.6h.05l2.65-2.1h.05l.15.1-.05-.05-.15-.45-.05-.15q-.6-1.75-1.6-3.35 1 1.6 1.6 3.35v.55l-2.65 2.1h-.05l-2.7-2.15H11v-2.5h.05l2.7-2.15h.05l.7.55.35.25L13.8-9.9l-.05-.05M7.5 16.55l.55-.25-.55.25m-10.2 0h5.45-5.45v-.2h-.05l-2.7-2.15h-.05v-2.5h.05l.3-.25h-.05l-2.05-1.15-.25-.2-.65-.55h-.1V9.5l-.85-.75-.7-.75 1.4-1.1L-9.8 8l.7.75.85.75-2.7 2.15h-.1L-13 10.1l1.95 1.55v2.6l-.1.1h.05L-8.8 16l.55.4.05-.05h.05l.45.2h4.95-4.95l-.45-.2 2.65-2.1h.05l2.7 2.15v.15h.05M-15.3-8l-1.2 2.5 1.2-2.5 1.55-1.25h.05l.7.55-.65-.55h-.05v-1l-.05.05-1.45 2.05-.1.15m7.8-.7-.65-.55h-.05l.7.55M8 19.15l-2.65.95-.8.2-4.1.5h-.8l-4.1-.45-3.3-1.05-.55-.25h-.05q-2.3-1.1-4.35-2.8l-.4-.35-1.05-1-.85-.9-1.5-1.85-.05-.05-.2-.3-.4-.6q-1.25-2.05-1.95-4.3-.95-2.9-.9-6.1V.7l.25-3.45q.5-2.95 1.85-5.5 1.15-2.35 3.05-4.4l.05-.05.65-.65q1.45-1.5 3.1-2.6L-11-16q1.75-1.2 3.7-1.9 3.35-1.35 7.3-1.3 3.9-.05 7.25 1.3 1.95.75 3.7 1.95H11l3.1 2.6.7.75 1.65 2.05L17.9-8.2v.05l.35.65 1.25 3.65.2 1.1.2 1.75.1 1.7v.1q-.05 3.2-.9 6.05v.05q-.75 2.3-2.05 4.35l-.05.1-.3.45-.2.25-.05.1-2.35 2.75-.25.25-.75.7v.05l-1.2.95-2.65 1.7-.85.45-.05-.05-.35.2m-18.35-32.6 2.1 1.65-2.1-1.65M-13 .7l-.65-.55h-.05l.7.55m11-9.4-.65-.55h-.05l.7.55M-2.7-1l.55-.7q.85-.9 2.1-.85Q1.2-2.6 2.1-1.7l.65 1.05.05.1.15.7v.3q0 1.2-.85 2.1-.9.85-2.1.9h-.05q-1.25 0-2.1-.9-.9-.9-.9-2.1v-.1l.3-1.25.05-.1m2.6.5-.05.15Q-.3.6-.6 1l-.5.4h-.05l-.35-.2-.1-.2-.05-.3.25-.95.7-.8.05-.15-.05-.2-.15-.05-.15.05-.85.95-.25 1.1.25.9.65.35q.2 0 .5-.2l.5-.5.35.5.35.2h.25q.5-.05.85-.5l.3-.55v-.1l.05-.3-.15-.9-.5-.9-.2-.1-.15.05-.1.15.05.15.45.8.15.7-.25.7-.5.3q-.4.05-.55-.35Q.05.65.3-.2L.25-.4.1-.5h-.2m5-3.6L3.5-3l1.4-1.1m9.75 14.3-.15-.1.15.1M8.3.15 9 .7 8.35.15H8.3M2.85 7.7h-.1l-.2.05.65 2.1.25.9-.05.1-.3.05.15.3.35-.1q.25-.05.15-.3l-.5-1.75q.8 1 1.85 1.3l.1-.4q-.85-.2-1.5-.85l.6-.9.1-.1-.4-.15-.5.95-.5-.7-.15-.45V7.7m-.2 1.2-.05-.2-.3-.05-.05.15-.85.25.1.3.85-.25v.7l-.05.1q-.1.7-.55 1.15l.25.25q.65-.7.7-1.7v-.05l-.05-.65M5 11.3q-2.3 1.05-5 1.1 2.7-.05 5-1.1M9 .7l1.95 1.55L9 .7M-4.9 1.85q.35 1.25 1.3 2.2 1.2 1.2 2.8 1.4l-1.9 1.5h-.05l-2.7-2.15h-.05V2.3h.05l.55-.45m-1 3.3-.1-.1-2.35 1.8L-6 5.05l.1.1m5.85 7.25h-.2q-2.65 0-4.9-.95 2.25.95 4.9.95h.2M-8.2 9.55l.95.75 1.7 1.35v2.6l-2.65 2.1-.25-.15-2.5-2H-11v-2.5h.05l2.7-2.15h.05m2.1.25.15.4.1-.1 1.1-.7-.2-.3-1.15.7m4.05-1.15.1-.25-1.85-.8-.1.25.5.2-.3.55-.65-.3-.15.3.6.3-.6.85.25.15.2-.25.7.3.1.05.15.05-.5.7-.15.05-.4-.2-.15.3.5.2.35.05.85-1.25-.4-.15h-.05l-.8-.35.25-.4 1.4.65.15-.3-1.4-.65.35-.5 1.05.45M-4.7 8.5l-.35-.55-.3.2.35.6.3-.25m.2-1.3-.35.2.35.55.3-.15-.3-.6m-8.5 2.9-.65-.55h-.05l.7.55" fill="#826968" fill-rule="evenodd" transform="translate(21.1 20.25)"/><path d="M-3.55-3.05Q-2.1-4.5-.1-4.5h.25Q2.1-4.4 3.5-3 4.95-1.55 4.95.5L4.8 1.75q-.3 1.3-1.3 2.3Q2.35 5.2.85 5.45h-.1l-.8.05-.75-.05q-1.6-.2-2.8-1.4-.95-.95-1.3-2.2V1.8L-5.05.5q0-2.05 1.45-3.5l.05-.05M-2.7-1l-.05.1-.3 1.25v.1q0 1.2.9 2.1.85.9 2.1.9H0q1.2-.05 2.1-.9.85-.9.85-2.1v-.3l-.15-.7-.05-.1L2.1-1.7q-.9-.9-2.15-.85-1.25-.05-2.1.85l-.55.7m2.6.5h.2l.15.1.05.2Q.05.65.2 1.05t.55.35l.5-.3.25-.7-.15-.7-.45-.8-.05-.15.1-.15.15-.05.2.1.5.9.15.9-.05.3v.1l-.3.55q-.35.45-.85.5H.5l-.35-.2-.35-.5-.5.5q-.3.2-.5.2l-.65-.35-.25-.9.25-1.1.85-.95.15-.05.15.05.05.2-.05.15-.7.8-.25.95.05.3.1.2.35.2h.05l.5-.4q.3-.4.45-1.35L-.1-.5m2.95 8.2v.05L3 8.2l.5.7.5-.95.4.15-.1.1-.6.9q.65.65 1.5.85l-.1.4q-1.05-.3-1.85-1.3l.5 1.75q.1.25-.15.3l-.35.1-.15-.3.3-.05.05-.1-.25-.9-.65-2.1.2-.05h.1m-.2 1.2.05.65v.05q-.05 1-.7 1.7l-.25-.25q.45-.45.55-1.15l.05-.1v-.7l-.85.25-.1-.3.85-.25.05-.15.3.05.05.2m-8.75.9 1.15-.7.2.3-1.1.7-.1.1-.15-.4m4.05-1.15L-3.1 8.2l-.35.5 1.4.65-.15.3L-3.6 9l-.25.4.8.35H-3l.4.15-.85 1.25-.35-.05-.5-.2.15-.3.4.2.15-.05.5-.7-.15-.05-.1-.05-.7-.3-.2.25-.25-.15.6-.85-.6-.3.15-.3.65.3.3-.55-.5-.2.1-.25 1.85.8-.1.25M-4.5 7.2l.3.6-.3.15-.35-.55.35-.2m-.2 1.3-.3.25-.35-.6.3-.2.35.55" fill="#614f4e" fill-rule="evenodd" transform="translate(21.1 20.25)"/><path d="M-2.25-16.6h4.5v2.4h-4.5v-2.4" fill="#6c5857" fill-rule="evenodd" transform="translate(21.1 20.25)"/><path d="m-8.25-18.7.8-.3q3.4-1.3 7.35-1.25 4.15-.05 7.7 1.4l.6.2.25.1 1 .5 2 1.2q1.75 1.15 3.3 2.75l.85.85.85 1.05 1.9 2.8.3.55.05.05.5 1.05.1.25 1.15 3.65.1.45.3 2.4.05 1.75v.65l-.55 4.25-.1.55v.05l-.1.3-.85 2.4-.05.1-.15.45-.15.25-.05.1q-1 1.95-2.4 3.8l-1.3 1.5-.45.45-.1.1-.1.1-.65.6-.1.1-.05.05L11.9 18l-.8.55-1.9 1.1-3.5 1.3-.25.1h-.1l-5.45.7-4.3-.4-1.05-.25-1.2-.35q-1.35-.4-2.55-1l-3.5-2.15-1-.85-.05-.05-1.2-1.1-.45-.5-.2-.2-.7-.85-.05-.05-.15-.15-.05-.05q-1.3-1.55-2.2-3.3l-.45-.95-.05-.05-.25-.65-.95-2.8q-.55-2.15-.6-4.5l-.05-.8q0-2.25.4-4.25.55-2.9 1.9-5.45 1.1-2.1 2.8-4l.3-.35.05-.05.7-.75q1.6-1.65 3.4-2.8l2.4-1.4.85-.35.05-.05M8.4 19l.85-.45 2.65-1.7 1.2-.95v-.05l.75-.7.25-.25 2.35-2.75.05-.1.2-.25.3-.45.05-.1q1.3-2.05 2.05-4.35v-.05Q19.95 4 20 .8V.7L19.9-1l-.2-1.75-.2-1.1-1.25-3.65-.35-.65v-.05l-1.45-2.35-1.65-2.05-.7-.75-3.1-2.6h-.05q-1.75-1.2-3.7-1.95Q3.9-19.25 0-19.2q-3.95-.05-7.3 1.3-1.95.7-3.7 1.9l-.05.05q-1.65 1.1-3.1 2.6l-.65.65-.05.05q-1.9 2.05-3.05 4.4-1.35 2.55-1.85 5.5L-20 .7v.1q-.05 3.2.9 6.1.7 2.25 1.95 4.3l.4.6.2.3.05.05L-15 14l.85.9 1.05 1 .4.35q2.05 1.7 4.35 2.8h.05l.55.25 3.3 1.05 4.1.45h.8l4.1-.5.8-.2L8 19.15l.4-.15" fill="#504241" fill-rule="evenodd" transform="translate(21.1 20.25)"/><path d="m-5.55-15.9.05-.05 3.25-.65h4.5l3.2.7.05.05q2.55.8 4.75 2.45h.05l2 1.8 1.45 1.65.05.05 1.05 1.45q1 1.6 1.6 3.35l.05.15.15.45.05.05q.7 2.45.7 5.2v.9l-.5 3.45v.05q-.7 2.7-2.25 5.05l-2.35 2.9-1.25 1.15L9.7 15.3l-1.35 1.05H8.3l-.05.05-.2-.1-.55.25m-15.65-.2h-.05l-.05.05-.55-.4-2.3-1.65h-.05l-1.3-1.25-2.3-2.75v-.05q-1.6-2.35-2.3-5.05-.45-1.85-.55-3.8v-.7q0-2.65.7-5l.35-1.15.05-.1 1.2-2.5.1-.15 1.45-2.05.05-.05 1.25-1.35 2.1-1.85h.05q2.2-1.65 4.75-2.45v1.95h.05v-2m0 2 .05-.05m2.7 4.7v-2.5l-2.7-2.15h-.05l-2.65 2.1h-.05v2.6h.05l.65.55 1.95 1.55h.1l2.7-2.15v.05h.05v-2.6l-.05.05v-.05L-5.45-14m5.4-.2h-2.2v-2.4m2.2 2.4v.25H0v-.25h-.05m-13.7 4.9v.05-.95m0 .95h.05v-1m.7 1.55-.7-.55h-.05L-15.3-8m1.6-1.25h.05l.65.55 1.95 1.55h.1l2.7-2.15v-2.5l-2.1-1.65m-.7 6.3.05.05v-.05m.05.05H-11v2.5m.05 0 2.7 2.15h.05l2.65-2.1v-2.6l.05.05v-.05m-11 2.6h.05l2.7 2.15v-.05l-2.7-2.15-.05.05h-.05l-.35.3m.4-.3h-.05v-.85m.05.8v.05m0-.95v.9m5.55 0-.05.05h.05l2.7 2.15v-.05m-2.8-2.1h.05v-.05m0 .05-2.65 2.1h-.05v2.6h.05l.65.55 1.95 1.55h.1L-8.25.1v-2.5m-5.45-.05h-.05m0 .05.05-.05 2.65-2.1v-2.6m-2.7 4.75V.15h.05l.7.55m-2.2-8.85 1.45-1.15m11.05-2.55h-.05m.05 0h.05L0-13.95.05-14m-2.8 4.75h.1l.65.55 1.95 1.55h.1l2.7-2.15v-2.5l-2.7-2.15H0M-2.75-9.3v.05m.05 0 .7.55m-6.25-3.1.05-.05h-.05v.05m0 2.55h.05-.05l-2.7 2.15m5.45 0h.05l2.7-2.15M-5.5-7.1v2.5m.05 0 1.9 1.55Q-2.1-4.5-.1-4.5l.05-.05v-2.6L0-7.1v-.05m-8.2-2.1.7.55m-.75-.6v.05-.05m2.75 4.75h.05l1.9 1.5m-1.95-1.5-2.65 2.1h-.05v2.6h.05l.65.55 1.95 1.55h.1l.55-.45-.15-1.3q0-2.05 1.45-3.5l.05-.05m-2-1.5h.05v-.05m0 .05.05-.05M-8.2-2.45l-.05.05M-.1-4.5l.1-.05h-.05m-.05.05h.2l-.05-.05H0V-7.1h.05l2.7-2.15v-.05M-2.7-1l.55-.7q.85-.9 2.1-.85Q1.2-2.6 2.1-1.7l.65 1.05.05.1.15.7v.3q0 1.2-.85 2.1-.9.85-2.1.9h-.05q-1.25 0-2.1-.9-.9-.9-.9-2.1v-.1l.3-1.25.05-.1m2.65-12.95-2.65 2.1m-5.5 0 2.65-2.1m7.8-2.65v2.4H0m5.5.2v.05l.05-.05 2.7 2.15h.05l1.95-1.55m-4.75-.55h-.05l-2.65 2.1h.05l2.65-2.1h.05l2.7 2.15v-.05m-2.8-2.1v-1.95m.05.05V-14m2.75 2.2.05-.05h.05l1.95-1.55M8.25-9.3v.05-2.55m-2.7 4.7H5.5v2.5m.05 0 2.7 2.15h.05l2.65-2.1v-2.6L9-8.7l-.7-.55h-.05L5.55-7.1m-.1-.05.05.05v-.05h-.05L3.5-8.7l-.7-.55h-.05v-.05m5.5 0-2.7 2.15H5.5m2.75-2.1h.05v-2.6m0 2.6h.05L9-8.7m-6.25-3.1v-.05L.05-14m2.7 2.2.05-.05h-.05M3.5-8.7l-.65-.55h-.1m.05-2.6v2.6M0-4.55l.05-.05.1.1Q2.1-4.4 3.5-3l1.4-1.1.55-.45v-2.6M.1-4.5h.05m5.35-.05-.6.45m.55-.45h.05v-.05m.05 0-.05.05h.05l2.7 2.15v-.05m0 .05.05-.05h.05L11-4.55h-.05M8.25-2.4V.15h.05v-2.6m5.45-6.85v-.65M11-7.1l-.05-.05h.1l2.7-2.15v.05-.05M11-7.15v.05h.05l2.7-2.15h.05v-.65m.7 1.2.35.25m-1.05-.8h.05l.65.55-.7-.55h-.05m0 6.85-2.7-2.15H11V-7.1m0 2.55.05-.05m2.7 2.2v-.05l-2.7-2.15m2.7 2.15h.05l2.65-2.1v-.55M13.8-2.45l-.05.05V.15h.1l.65.55 1.95 1.55h.1l.85-.65m-.7-6.05-.15-.1h-.05l-2.65 2.1h-.05v2.6h-.05l-2.7 2.15m5.6-6.8-.1-.1-.05.05v-.4m-.05.4h.05m.9 6.2-.85.65h-.05v2.55l.05-.05.35.3m-.45-2.85.05.05v-.05m-.05 2.6h.1l.35.3m-.4-.3-2.65 2.1h-.05v2.6h.05l.65.55.15.1m-3.6-5.4 2.7 2.15h.05l2.65-2.1v-2.6M14.5.7l-.7-.55M11 2.3v2.5m.05 0-.05.05h.05L13.75 7v-.05m0-6.85v.05m0-.05-2.7 2.15H11v.05h.05M11 2.25h-.05l.05.05m0 2.55h-.05L8.3 6.95h.05L11 4.85V4.8m-.05-2.55v2.6M13.75 7l.05-.05M11 11.7l-.05-.05v2.6H11v-2.6h-.05L9 10.1l-.7-.55h-.05l-2.7 2.15H5.5v2.5m5.55-2.5H11m-5.45 2.5 2.55 2.05 1.4-.85 1.45-1.15m.05-2.6h.05l2.7-2.15V7m0 2.55h.05-.05l-2.7 2.15m2.7-2.2v.05-.05m.75.6-.7-.55M8.3.15 9 .7 8.35.15h-.1L5.55 2.3m-.05 0v2.55l.05-.05 2.7 2.15h.05v.35l.95.7-.7.75L8.3 9v.55h.05l.65.55M8.25.1v.05m0-.05-2.7 2.15H5.5v.05h.05m-.1-.05.05.05m0-.05h-.05l-.65-.5q-.3 1.3-1.3 2.3Q2.35 5.2.85 5.45l1.9 1.5h.05l2.65-2.1v-2.6m.05 2.6h-.05m.05 0h.05L8.25 7v-.05M4.8 1.75 4.95.5q0-2.05-1.45-3.5M.75 5.45h.1m1.95 1.5h.05l2.65-2.1m-2.75 2.2V7l-2-1.55-.8.05-.75-.05-1.85 1.5h-.05v.35l2.4.4q1.65-.05 3.05-.65m.1-.05-.05.05h-.05m0-.1V7l.05-.05v.1M2.85 7 5 5.5l.4-.45 2.85 2.2V7m.05.3-.05-.05m.05-.3L8.25 7m0 2.05L8.3 9m-2.85 2.65h.1l2.7-2.15v-.45L5 11.3l.45.35.05.05v-.05m2.75-2.1V9.5v.05h.05m1.4 5.75-.2.1-1.2.95h-.05v.05M5.5 14.25h.05l2.5 2.05.05-.05.15.1m-2.7-2.15-.05.05-2.65 2.1H2.8v.2m2.65-2.3h.05v-.05m-5.55.05H0V12.4h-.05v1.85l-2.65 2.1h.05L0 14.25l.05-.05m2.7 2.2-2.7-2.15H0m2.75 2.15v-.05L.05 14.2m2.7 2.2v.15m.05-.2-.05.05m0-.05h.05l2.65-2.1v-2.6m5.6 2.6H11L9.7 15.3m1.35-1.1-.05.05m.05 0v-.05m-.1-11.95L9 .7M0 12.4q2.7-.05 5-1.1m-9.9-9.5v.05q.35 1.25 1.3 2.2 1.2 1.2 2.8 1.4M-5.45 2.3h-.05v2.55l.05-.05 2.7 2.15h.05l1.9-1.5m-4.75-3.2.05.05v-.05M-7.5.7l-.7-.55h-.05l-2.7 2.15H-11v2.5m.05 0 2.6 2.05L-6 5.05l.1.1.35-.3v-2.6m-2.7-2.1V.1v.05h.05m2.7 4.7h-.05M-2.75 7l-2.7-2.15h-.05l-.4.3.3.35q1.25 1.25 2.85 1.8v-.35m-5.6-.1-.05.05L-9.8 8l.7.75.85.75v.05h.1l.65.55.25.2 2.05 1.15h.05q2.25.95 4.9.95h.2m-7.45-2.3-.7-.55.95.75 1.7 1.35h.1l.25-.2m-3-1.9h-.05.05m2.65 2.1.05.05v-.05m0 .05h.05l.3-.25m-.35.25v2.5m.05 0 2.7 2.15h.05l-.05.05v.15m.05-9.25h-.05m0-.3.05-.05m-2.2-5.1-.55.45m-5.6-.05.05.05v-.05m-2.75-2.1h.05m-.05-.05v.05m0-.05-2.7 2.15h-.05v.05h.05l2.7-2.15m2.7 4.7h.05V4.8m2.6 2.1-2.55-2.05H-11l-2.65 2.1h-.05v2.6h.05l.65.55 1.95 1.55h.1l2.7-2.15M-11 4.85l.05-.05m-5.5 0 2.7 2.15h.05l2.65-2.1v-2.6m-5.45.05v2.5m.05 0-.05.05h.05l2.7 2.15v-.05m-2.75-4.7h-.05l.05.05m-.05-.05-1.05-.8m1.05 3.4h.05V4.8m-.55.45.5-.4v-2.6m0 2.6h.05M-13.75 7l.05-.05m-.05 2.55v.05h.05l.7.55m-.75-.55h.05m-.05 0V9.5l-1 .8m1-.8V7m-1 3.35 1-.8m2.7 2.1.05.05v-.05m.05.05H-11v2.5m.05 0 2.5 2 .25.15 2.65-2.1v-2.6m-5.5 2.6h.05v-.05m.05 0-.05.05h.05L-8.8 16l.35.2.2.15h.05m-2.8-2.1-.1.1m.05-.1-.1.1m8.4 2v.05l-2.7-2.15h-.05l-2.65 2.1m5.45.2v-.2m-2.75-2.15-.05.05v-.05m-.05.05h.05m-2.75 2.1v.05m0-6.85-2.7 2.15m-.1-.05v2.6" fill="none" stroke="#504241" stroke-linecap="round" stroke-linejoin="round" transform="translate(21.1 20.25)"/><path d="M7.5 16.55H-7.7l-.45-.2" fill="none" stroke="#504241" stroke-linecap="round" stroke-linejoin="round" transform="translate(21.1 20.25)"/></g><g id="u"><path d="m83.1 241.35-.75 2.85.45 1.3-2.95.45-2.9-.5.4-1.25-.7-2.85q1.35.6 3.2.6l3.25-.6" fill="url(#b)" fill-rule="evenodd" transform="translate(-76.15 -240.85)"/><path d="m82.8 245.5-.45-1.3.75-2.85m-6.45 0 .7 2.85-.4 1.25" fill="none" stroke="#a3a28b" stroke-linecap="round" stroke-linejoin="round" transform="translate(-76.15 -240.85)"/><path d="m83.1 241.35-3.25.6q-1.85 0-3.2-.6" fill="none" stroke="#e0e0d8" stroke-linecap="round" stroke-linejoin="round" transform="translate(-76.15 -240.85)"/></g><g id="C"><path d="m22.5 2.9 1.4.8L3.05 15.55q-14.85-5.8-26-12.35l.2-.1 1.5.05.15-.85 11.35-5.7L.1.6v12.85l2.05.05V.45l.7-.35L4-.5l.35-.15L4-.5l.35-.15L6.6-1.8l4-2.05 9.85 5.6.4 1.35q1.2.9 1.65-.2" fill="#666" fill-opacity=".431" fill-rule="evenodd" transform="translate(23.35 25.05)"/><path d="m2.15-24.05 1.35.9L17.95-11.8l.4.4 1 1.05-18.3 9.4-21.1-9q-2.2-.55-2.65-2.05v-.35l.15-1.05.75-1.05.35-.2.3-.15 17.3-8.6q2.1-1.15 3.85-1.1h.1q1 0 1.95.4l.1.05M7.65-7.3q6.05-3.8-.3-8.25l-7.7-5.85-16.35 8.5 8.85 5.05q2.05.95 4 1.5Q1.75-4.7 6-6.45l1.65-.85m11.65-1h.05-.05" fill="#930" fill-rule="evenodd" transform="translate(23.35 25.05)"/><path d="M17.95-11.8H18l.35.4-.4-.4m1.4 1.45v2.05h-.1l-1.5.8-7.15 3.65-4 2.05L4.35-.65 4-.5 2.85.1l-.7.35-1.1.55V.95 1 .95 1L.1.6l-9.85-4-9.95-4.05-1.7-.7-.85-1.95-.3-1.05-.15-.85q.45 1.5 2.65 2.05l21.1 9 18.3-9.4m-41.15-4.1q.3-.2.65-.35l-.3.15-.35.2M2.85.1l-1.8.85L2.85.1m-1.8.85v-1.9 1.9" fill="#631e01" fill-rule="evenodd" transform="translate(23.35 25.05)"/><path d="m19.35-8.3 3.3 10.75-.15.45q-.45 1.1-1.65.2l-.4-1.35-2.7-9.25 1.5-.8h.1m-42.1 11.4-.1-.7 1.45-10.55 1.7.7-1.4 9.75-.15.85-1.5-.05M2.15.45V13.5L.1 13.45V.6l.95.4 1.1-.55" fill="#200a00" fill-rule="evenodd" transform="translate(23.35 25.05)"/><path d="M7.65-7.3 6-6.45q-4.25 1.75-9.85.1-1.95-.55-4-1.5l-8.85-5.05 16.35-8.5 7.7 5.85q6.35 4.45.3 8.25" fill="url(#c)" fill-rule="evenodd" transform="translate(23.35 25.05)"/><path d="M.1-24.5q1.05-.2 2.05.45l1.35.9L17.95-11.8H18M-22.85 2.4l1.45-10.55-.85-1.95-.3-1.05-.15-.85v-.35l.15-1.05.75-1.05m.65-.35 17.3-8.6q2.1-1.15 3.85-1.1m2.05.4.1.05M4-.5l.35-.15L6.6-1.8M4-.5 2.85.1m-.7.35V13.5L.1 13.45V.6l-9.85-4M1.05 1 .1.6m.95.35L2.85.1m-24-14.9-.3.15-.35.2m2.1 7 9.95 4.05M-21.4-8.15l1.7.7m-3-4.55q.45 1.5 2.65 2.05l21.1 9m17.3-10.45 1 1.05v2.05l3.3 10.75-.15.45q-.45 1.1-1.65.2l-.4-1.35-2.7-9.25 1.5-.8m-42 11.4-.1-.7m1.75-.1-.15.85-1.5-.05M6.6-1.8l4-2.05 7.15-3.65m.6-3.9-.4-.4M1.05-.95l18.3-9.4M1.05 1V.95 1m0-1.95v1.9m-20.75-8.4-1.4 9.75" fill="none" stroke="#000" stroke-linecap="round" stroke-linejoin="round" transform="translate(23.35 25.05)"/></g><g id="D"><path d="m-1.15-1.2 9.9-4L20.1.5l.1.85 1.5-.05.2.1Q10.75 7.95-4.05 13.75L-24.95 1.9l1.4-.8q.45 1.1 1.7.2l.4-1.35 9.85-5.6 3.95 2.05 2.25 1.15.35.15 1.2.6.7.35V11.7l2-.05V-1.2m-3.9-1.1-.35-.15.35.15" fill="#666" fill-opacity=".431" fill-rule="evenodd" transform="translate(24.95 26.85)"/><path d="M21.65-13.8q-.45 1.5-2.6 2.05l-21.15 9-18.25-9.4.95-1.05.4-.4 14.45-11.35 1.35-.9.15-.05 1.95-.4h.05q1.75-.05 3.85 1.1l17.35 8.6.25.15.4.2.75 1.05.15 1.05-.05.35M6.85-9.65l8.85-5.05-16.35-8.5-7.75 5.85q-6.35 4.45-.3 8.25.8.5 1.7.85 4.2 1.75 9.85.1 1.9-.55 4-1.5m-27.15-.45h-.05.05" fill="#930" fill-rule="evenodd" transform="translate(24.95 26.85)"/><path d="M6.85-9.65q-2.1.95-4 1.5Q-2.8-6.5-7-8.25q-.9-.35-1.7-.85-6.05-3.8.3-8.25l7.75-5.85 16.35 8.5-8.85 5.05" fill="url(#d)" fill-rule="evenodd" transform="translate(24.95 26.85)"/><path d="M18.7-9.25 8.75-5.2l-9.9 4-.9.4-.05-.05v-1.9 1.9l.05.05h-.05v-.05.05l-1.05-.55-.7-.35-1.2-.6-.35-.15-2.25-1.15-3.95-2.05-7.2-3.65-1.5-.8h-.05v-2.05l18.25 9.4 21.15-9q2.15-.55 2.6-2.05l-.15.85-.3 1.05-.8 1.95-1.7.7m2.1-7-.4-.2-.25-.15.65.35M-19-13.6l-.4.4.4-.4M-2.1-.85l-1.75-.85 1.75.85" fill="#631e01" fill-rule="evenodd" transform="translate(24.95 26.85)"/><path d="m18.7-9.25 1.7-.7L21.8.6l-.1.7-1.5.05-.1-.85-1.4-9.75M-2.05-.8l.9-.4v12.85l-2 .05V-1.35l1.05.55h.05m-21.5 1.9-.1-.45 3.3-10.75h.05l1.5.8-2.65 9.25-.4 1.35q-1.25.9-1.7-.2" fill="#200a00" fill-rule="evenodd" transform="translate(24.95 26.85)"/><path d="m8.75-5.2 9.95-4.05 1.7-.7.8-1.95.3-1.05.15-.85q-.45 1.5-2.6 2.05l-21.15 9m.05 1.95.9-.4 9.9-4M20.8-16.25l.75 1.05.15 1.05-.05.35m-1.5-2.8.25.15.4.2m-.65-.35L2.8-25.2q-2.1-1.15-3.85-1.1m-2 .4-.15.05-1.35.9L-19-13.6m39.4 3.65L21.8.6m-25-26.45q1-.65 2.1-.45M-7.65-3.6l2.25 1.15.35.15 1.2.6 1.75.85m0 .05h.05m-1.1-.55V11.7l2-.05V-1.2" fill="none" stroke="#000" stroke-linecap="round" stroke-linejoin="round" transform="translate(24.95 26.85)"/><path d="M-2.1-2.75v1.9l.05.05M20.1.5l-1.4-9.75M-19-13.6l-.4.4-.95 1.05 18.25 9.4M21.8.6l-.1.7-1.5.05-.1-.85m-43.65.6-.1-.45 3.3-10.75v-2.05m.05 2.05 1.5.8 7.2 3.65 3.95 2.05M-2.1-.85v.05m-16.7-8.5-2.65 9.25m-2.1 1.15q.45 1.1 1.7.2l.4-1.35" fill="none" stroke="#000" stroke-linecap="round" stroke-linejoin="round" transform="translate(24.95 26.85)"/></g><g id="w"><path d="M-9.15-5.45.7-.55Q2.65.5 4.3.5v8.6l.55.3-1.4 1q-.95.55-2.1.6l-1.5-.15L-21.25.8q.1-1.4.85-2.05l3.3-1.2-.35 1.8q.95 1.1 2.1 0l.65-2.7 5.55-2.1M6.2.1l1.35-.9 7.4-5.8 7.45 2.45.25 1.25L6.2 8.5V.1" fill="#656565" fill-opacity=".722" fill-rule="evenodd" transform="translate(21.25 23.75)"/><path d="M11.45-10.35 5.75-5.9l-15.85-7.85 8.75-4.1 3.75-1.9q2.75-1.3 6.3.45l2.45 1.45q4.45 3.45.3 7.5" fill="url(#e)" fill-rule="evenodd" transform="translate(21.25 23.75)"/><path d="M11.45-10.35q4.15-4.05-.3-7.5L8.7-19.3q-3.55-1.75-6.3-.45l-3.75 1.9-8.75 4.1L5.75-5.9l5.7-4.45M22.3-14.6 7.6-3.4l-.65.35-6.3-.15-16.25-7.6q-.9-.95-.75-2.15l.75-1.8 20.9-8.5 16.95 8.65h.05" fill="#930" fill-rule="evenodd" transform="translate(21.25 23.75)"/><path d="M-16.35-12.95q-.15 1.2.75 2.15L.65-3.2l6.3.15.65-.35 14.7-11.2v1.95l-1.3 1.3-6.05 4.75-7.4 5.8L6.2.1 4.3.5Q2.65.5.7-.55l-9.85-4.9-4.55-2.25-2.25-1.15q-.9-.7-.85-2l.45-2.1" fill="#631e01" fill-rule="evenodd" transform="translate(21.25 23.75)"/><path d="m-15.95-8.85 2.25 1.15-.05.3-.95 4.05-.65 2.7q-1.15 1.1-2.1 0l.35-1.8 1.05-6.1.1-.3M4.3.5 6.2.1v9q-.65.55-1.35.3l-.55-.3V.5M21-11.35l1.3-1.3 2.15 8.95q-.4.95-1.8.95v-.15l-.25-1.25-1.4-7.2" fill="#200a00" fill-rule="evenodd" transform="translate(21.25 23.75)"/><path d="M22.3-14.6 7.6-3.4l-.65.35-6.3-.15-16.25-7.6q-.9-.95-.75-2.15l-.45 2.1q-.05 1.3.85 2l2.25 1.15 4.55 2.25L.7-.55Q2.65.5 4.3.5L6.2.1l1.35-.9 7.4-5.8L21-11.35l1.3-1.3m0-1.95h-.05L5.3-23.25l-20.9 8.5-.75 1.8m39 10.05-.25-1.25m2.05.45q-.4.95-1.8.95v-.15M6.2 8.5v.6q-.65.55-1.35.3l-.55-.3V4.55m-21.4-7 1.05-6.1M21-11.35l1.4 7.2M4.3 4.3V.5M6.2.1v8.4M-17.1-2.45l-.35 1.8q.95 1.1 2.1 0l.65-2.7.95-4.05m36.05-5.25v-1.95m0 1.95 2.15 8.95" fill="none" stroke="#000" stroke-linecap="round" stroke-linejoin="round" transform="translate(21.25 23.75)"/></g><g id="v"><path d="m20.35-2.5 3.3 1.25q.7.65.85 2.05L3.35 10.85 1.9 11q-1.2-.05-2.15-.6l-1.4-1 .55-.3V.5Q.55.5 2.5-.55l9.9-4.9 5.5 2.05.65 2.75q1.15 1.1 2.1 0l-.3-1.85m-23.3 11L-19.4-2.9l.25-1.25 7.4-2.45 7.4 5.8q.65.6 1.4.9v8.4" fill="#656565" fill-opacity=".722" fill-rule="evenodd" transform="translate(21.7 23.75)"/><path d="m-19-14.6 16.95-8.65 20.85 8.5.8 1.8q.1 1.2-.8 2.15L2.6-3.2l-6.35.15-.65-.35-14.65-11.2h.05m23.6-3.25-3.8-1.9q-2.75-1.3-6.3.45l-2.45 1.45q-4.45 3.45-.25 7.5l5.65 4.45 15.85-7.85-8.7-4.1" fill="#930" fill-rule="evenodd" transform="translate(21.7 23.75)"/><path d="m4.6-17.85 8.7 4.1L-2.55-5.9l-5.65-4.45q-4.2-4.05.25-7.5l2.45-1.45q3.55-1.75 6.3-.45l3.8 1.9" fill="url(#f)" fill-rule="evenodd" transform="translate(21.7 23.75)"/><path d="m19.6-12.95.45 2.1q0 1.3-.85 2L16.9-7.7l-4.5 2.25-9.9 4.9Q.55.5-1.1.5L-2.95.1q-.75-.3-1.4-.9l-7.4-5.8-6.05-4.75-1.25-1.3v-1.95L-4.4-3.4l.65.35L2.6-3.2l16.2-7.6q.9-.95.8-2.15" fill="#631e01" fill-rule="evenodd" transform="translate(21.7 23.75)"/><path d="m19.2-8.85.05.3 1.1 6.05.3 1.85q-.95 1.1-2.1 0L17.9-3.4l-.95-4-.05-.3 2.3-1.15M-1.65 9.4q-.7.25-1.3-.3v-9l1.85.4v8.6l-.55.3M-19.4-2.9l-.05.15q-1.35 0-1.75-.95l2.15-8.95 1.25 1.3-1.35 7.2-.25 1.25" fill="#200a00" fill-rule="evenodd" transform="translate(21.7 23.75)"/><path d="m-19-14.6 16.95-8.65 20.85 8.5.8 1.8.45 2.1q0 1.3-.85 2m.05.3 1.1 6.05.3 1.85q-.95 1.1-2.1 0L17.9-3.4l-.95-4M-1.65 9.4q-.7.25-1.3-.3v-9l1.85.4v3.8m-18.3-7.2-.05.15q-1.35 0-1.75-.95m2.15-10.9h.05m31.4 9.15L2.5-.55Q.55.5-1.1.5m0 4.05V9.1l-.55.3M16.9-7.7l2.3-1.15M16.9-7.7l-4.5 2.25m7.2-7.5q.1 1.2-.8 2.15L2.6-3.2l-6.35.15-.65-.35-14.65-11.2m1.25 3.25 6.05 4.75 7.4 5.8q.65.6 1.4.9m-16.2-4.25-.25 1.25m.25-1.25 1.35-7.2-1.25-1.3M-21.2-3.7l2.15-8.95v-1.95" fill="none" stroke="#000" stroke-linecap="round" stroke-linejoin="round" transform="translate(21.7 23.75)"/></g><g id="x"><path d="m-122.5 40.35 107.8-59.5Q7.35-8.6 29.35 1.9L-83.7 58.15l-38.8-17.8" fill="#101010" fill-opacity=".561" fill-rule="evenodd" transform="translate(122.5 27)"/><path d="M.55-26.95.6-27l23.7 10.95q1 .85.7 1.7v.05l-.55.75L.1-1.15H.05l-.85.5-.9.45q-.55.05-.45.2L-26.6 12.3h-.05l-1.9.95v.05l-.1.05-.3.1h-.15l-3.05 1.6-21.3 10.8h-.05l-1.95 1h-.05l-21.7 10.9-.3.15-.85.45-1.25.4h-1.2l-.7-.1-23.3-10.85-1.95-.9 26.1-13.1.9-.45L.15-26.8l.4-.15" fill="url(#g)" fill-rule="evenodd" transform="translate(122.5 27)"/><path d="m-104.8 27.8 23.3 10.85.3.1v3.2q-8.25-6.1-17.35-9.35-3.1-1.05-6.25-1.8v-3m26.45 10.55.85-.45.3-.15 21.7-10.9h.05l1.95-1h.05l21.3-10.8 3.05-1.6h.15l.3-.1.1-.05v-.05l1.9-.95h.05L-2.15 0q-.1-.15.45-.2l.9-.45.9-.5 24.35-12.4.5.05v2.35l-2.1.6Q11.5-6.9-.75 1.65l-1-.75v1.4l-.1.05-.9.25-.45.15-.1.05q-7.3 2.25-14.3 6.6l-9.7 5.8-1.25-.9v1.55q-5.05 1.4-10.25 3.75-7.55 3.45-15.6 8.9l-1.05-.75v1.45Q-67.7 32.6-79.1 41.9v-3.15l.75-.4m49.7-25 .1.95-.1-.95m-3.5 1.7 3.2-1.6-3.2 1.6m5.55-2.75-1.95 1 1.95-1m-28.85 14.55v.9-.9M-1.7-.2-1.75.9l.05-1.1" fill="#2b2b2b" fill-rule="evenodd" transform="translate(122.5 27)"/><path d="m24.45-13.55.55-.75-.05.8-.5-.05" fill="#3a3a3a" fill-rule="evenodd" transform="translate(122.5 27)"/><path d="m-106.75 26.9 1.95.9v10.8q-1.05.9-1.95 0V26.9m25.95 11.85h1.2l.5-.05v11.9q-1.1 1.05-2.1 0V38.75h.4m105.75-49.9v11.1q-1.1 1.05-2.1 0v-10.5l2.1-.6" fill-rule="evenodd" transform="translate(122.5 27)"/><path d="m-106.75 28.05-.05-.2v-.4h.05v.6M.3 2.3v.05L.2 2.3h.1m-26.7 13.5-.1-.05h.1v.05m-26.85 13.55-.1-.05h.1v.05" fill="#240000" fill-rule="evenodd" transform="translate(122.5 27)"/><path d="m-79.75 13.35-.9.45.85-.45h.05" fill="#ff2020" fill-rule="evenodd" transform="translate(122.5 27)"/><path d="m-81.5 38.65.7.1h-.4l-.3-.1m1.9.1 1.25-.4-.75.4v-.05l-.5.05" fill="#780101" fill-rule="evenodd" transform="translate(122.5 27)"/><path d="M147.5 12.7v-.05q.3-.85-.7-1.7L123.1 0l-.05.05m-.4.15-79.9 40.15-.9.45-26.1 13.1 1.95.9L41 65.65l.7.1h1.2l1.25-.4.85-.45m.3-.15L67 53.85h.05l1.95-1m.05 0 21.3-10.8m3.2-1.6.3-.1.1-.05 1.95-1L120.35 27q-.1-.15.45-.2l.9-.45m.9-.5 24.35-12.4.55-.75-.05.8v5.1m0 .35v8q-1.1 1.05-2.1 0v-10.5q-11.35 3.65-23.6 12.2l-1 .65-.1.05-.9.25-.45.15-.1.05q-7.3 2.25-14.3 6.6l-9.7 5.8-1.25.65q-5.05 1.4-10.25 3.75-7.55 3.45-15.6 8.9l-1.05.7Q54.8 59.6 43.4 68.9v8.7q-1.1 1.05-2.1 0v-8.65q-8.25-6.1-17.35-9.35-3.1-1.05-6.25-1.8v2.05m0 .1v5.65q-1.05.9-1.95 0V53.9m-.05.55h.05M122.65.2l.45-.2m24.35 15.85-2.1.6m-23.6 12.2-1-.75v1.4m-26.8 12-.1-.95m1.35 1.85-1.25-.9v1.55m-.4-2.4-3.2 1.6M42.9 65.75l.5-.05v3.2m23.65-14.15v-.9m1.05 1.65-1.05-.75v1.45M17.7 54.8v3m23.6 11.15v-3.2h.4m79.05-37.85.05-1.1m1.8-.95-.9.5" fill="none" stroke="#000" stroke-linecap="round" stroke-linejoin="round" stroke-width=".05"/></g><g id="m"><path d="M43.85 11.05q-.2.95-.75 1.7t-.8 1.6q-.3.85-1.05 1.35l-.25.9-.7.45q-.25 1.1-1.6 1.2l-.75.2-.7.3q-.45 1.3-2 1.7l-1.2.35-1 .25q-1.75 1.55-4 1.9L28 23.6l-.35.05q-.7.7-1.1.2l-1.25-.05-.45-.05q-3.2.15-5.4-1.65-.3-.25-.1-.65.5-1.2 1.9-1.2l6.5-.6 6.35-3.3.95-.8q1.75-2.1 3.65-3.9l.05-.5Q38 8.05 40 5.9l.45-.25q3.15.45 3.15 3.65.4.75.25 1.75m6.7-.85q2.25 1.05 2.2 2.75l.65.4.75.85q.4.85-.4 1.45-.65.45-1.4.7-1.85.7-3.1 2.15-1.85 2.1-4.45 3.25l-.6.3-4.45 2.65-1.75 1q-1.15.35-2.15 1.1-.65.5-1.4.65-.7.8-2.45.55l-2.15-.6q-.6-.3-.6-.95-1.25-2.05 1.35-2.3l3-.75.8-.5q2.15-1.8 4.65-3.05l.6-.35q3.7-2.3 6.9-5.05l.4-.6q.7-2.15 1.65-4.05.2-.35.6-.4.85 0 1.25.7l.1.1M44 20.3l.7-.3.45-.3q-.65.15-1.15.6m3.8 3.25q-.5.3-.65-.25-.1-.5.3-.85 2.6-2.25 5.65-3.9 1.05-.55 1.65-1.6l1-1.2q.7-.65 1.5-1 1.2.1 1.1 1.4-.1.8-.9.6l-1.4 1.55-.6.6-6.3 3.85-1.35.8M33.35 8.8Q33 8 33.8 7.7l.1-.05q1.05.6.8 1.95v.35q-.1 2.55-2.3 4.1l-6.25 4q-1.95 1.15-4.2.65-3.35.55-5.05-1.85-.2-.25-.1-.6.25-.95 1.2-1 2 1.25 4.5 1.25l.6.45.1.55q1.8 0 3.35-1.2.4-.3.9-.55 3.55-1.55 5.65-4.6l.3-.7.05-.3-.15-1.05.05-.3" fill="#fff" fill-opacity=".051" fill-rule="evenodd" transform="translate(-16.75 -5.65)"/><path d="m50.35 21.25 3.3-2 2.65-2.4L57.95 15q.1-.15.3-.2.6 0 .9.5l.05.05q1.3-.3 1.25.9l-.3.65q-1.05 1-2.45 1.4-1.35 1.35-3.1 2.1l-.4-.1q-1.95 1.5-4.15 2.45l-.2-.05q-.55-.9.5-1.45m8-5 .85-.9-.85.9" fill="#a5a7a5" fill-opacity=".153" fill-rule="evenodd" transform="translate(-16.75 -5.65)"/><path d="M43.45 8.6v.65m-15.5 13.4 6.4-2.65" fill="none" stroke="#fafafa" stroke-linecap="round" stroke-linejoin="round" stroke-opacity=".8" transform="translate(-16.75 -5.65)"/><path d="M54.15 14.2q-7.9 6.85-11.7 9.35-3.85 2.5-8.75 4.8M44.05 9.6q-.65 6.2-4.9 9.05-4.2 2.85-11.7 5.4m6.95-12q.65-1.4.65-2.95m-.65 2.95q-1 2.15-3.6 3.9-4.2 2.85-10.2 2.85" fill="none" stroke="#c4c4c4" stroke-linecap="round" stroke-linejoin="round" stroke-opacity=".153" transform="translate(-16.75 -5.65)"/><path d="m46.8 10.95.35-1.45M41.05 8l2.4.6m15.75 6.75-.85.9M55.3 15.2l.45.55m-5.45-3 .7-1.25m-8.45.4-1.3 3.25m11-1.1q-1.75 2.5-4.4 3.75M34.4 10.45v1.6M26.05 22.6h-.65m11.4-3.95 1.95-1.05m-11.8-.8 3.95-1.75M33.6 27h-.55m4.1-1.95 5.4-2.85" fill="none" stroke="#d8d8d8" stroke-linecap="round" stroke-linejoin="round" stroke-opacity=".153" transform="translate(-16.75 -5.65)"/></g><linearGradient gradientTransform="matrix(.0051 0 0 .0074 79.95 245.2)" gradientUnits="userSpaceOnUse" id="a" spreadMethod="pad" x1="-819.2" x2="819.2"><stop offset="0" stop-color="#deddd6"/><stop offset=".498" stop-color="#f4f4f1"/><stop offset="1" stop-color="#bdbbac"/></linearGradient><linearGradient gradientTransform="matrix(.0061 0 0 .0074 79.85 247.4)" gradientUnits="userSpaceOnUse" id="b" spreadMethod="pad" x1="-819.2" x2="819.2"><stop offset="0" stop-color="#deddd6"/><stop offset=".498" stop-color="#f4f4f1"/><stop offset="1" stop-color="#bdbbac"/></linearGradient><linearGradient gradientTransform="matrix(-.0032 -.0055 -.0122 .0071 -1.85 -10.4)" gradientUnits="userSpaceOnUse" id="c" spreadMethod="pad" x1="-819.2" x2="819.2"><stop offset=".247" stop-color="#472e23"/><stop offset="1" stop-color="#930"/></linearGradient><linearGradient gradientTransform="matrix(.0032 -.0055 .0122 .0071 .8 -12.2)" gradientUnits="userSpaceOnUse" id="d" spreadMethod="pad" x1="-819.2" x2="819.2"><stop offset=".247" stop-color="#472e23"/><stop offset="1" stop-color="#930"/></linearGradient><linearGradient gradientTransform="matrix(-.0023 .004 .011 .0063 2.45 -14.8)" gradientUnits="userSpaceOnUse" id="e" spreadMethod="pad" x1="-819.2" x2="819.2"><stop offset=".247" stop-color="#472e23"/><stop offset="1" stop-color="#930"/></linearGradient><linearGradient gradientTransform="matrix(.0023 .004 -.011 .0063 .75 -14.8)" gradientUnits="userSpaceOnUse" id="f" spreadMethod="pad" x1="-819.2" x2="819.2"><stop offset=".247" stop-color="#472e23"/><stop offset="1" stop-color="#930"/></linearGradient><linearGradient gradientTransform="matrix(.0816 -.0208 .0066 .0259 -40.8 6.2)" gradientUnits="userSpaceOnUse" id="g" spreadMethod="pad" x1="-819.2" x2="819.2"><stop offset="0" stop-color="#fe3668"/><stop offset="1" stop-color="#929292"/></linearGradient><linearGradient xlink:href="#h" id="y" gradientUnits="userSpaceOnUse" gradientTransform="matrix(.0249 .0144 -.0101 .0175 11.95 7.15)" x1="-819.2" x2="819.2" spreadMethod="pad"/><linearGradient gradientTransform="matrix(.0249 .0144 -.0101 .0175 11.95 7.15)" gradientUnits="userSpaceOnUse" id="h" spreadMethod="pad" x1="-819.2" x2="819.2"><stop offset="0" stop-color="#1c1a13" stop-opacity=".451"/><stop offset="1" stop-color="#e2e0d6" stop-opacity=".361"/></linearGradient><linearGradient xlink:href="#h" id="z" gradientUnits="userSpaceOnUse" gradientTransform="matrix(.0249 .0144 -.0101 .0175 11.95 7.15)" x1="-819.2" x2="819.2" spreadMethod="pad"/><linearGradient xlink:href="#h" id="A" gradientUnits="userSpaceOnUse" gradientTransform="matrix(.0249 .0144 -.0101 .0175 11.95 7.15)" x1="-819.2" x2="819.2" spreadMethod="pad"/><use height="42.95" width="80.8" xlink:href="#i" id="o"/><use height="31.55" width="50.5" xlink:href="#j" id="p"/><use height="31.55" width="50.5" xlink:href="#k" id="q"/><use height="42" width="42" xlink:href="#l" id="t"/><use height="23.2" transform="translate(3.15 2.75)" width="43.7" xlink:href="#m" id="B"/><path d="m72.85 383.2-.1-.05-39.9 20.05-5.05-2.55-34.95 17.55-.1-.05-39.9 20.05-39.95-20.05-.05.05-39.95-20.05-.05.05-39.95-20.05 1.85-.9-34.6-17.35-.05.05-39.95-20.05 119.8-59.9 5 2.5 75-37.5 2 1 118-59 120 60-1.85.95 74.6 37.3-39.85 19.95-.1-.05-39.9 20.05-.1-.05-39.9 20.05-2-1-38 19-.1-.05-39.9 20.05" fill="#c8f4ff" fill-rule="evenodd" transform="translate(239.85 -187)" id="n"/><path d="m75.8 291-206.05 103.05-66.3-33.15L9.5 257.85 75.8 291" fill="#0cc" fill-opacity=".4" fill-rule="evenodd" transform="translate(196.55 -257.85)" id="s"/></defs><g transform="translate(479.5 21.4)"><use height="251.2" transform="translate(-239.85 187)" width="512.55" xlink:href="#n"/><use height="42.95" transform="matrix(1 0 0 1.0012 -39.5 -21.424)" width="80.8" xlink:href="#o"/><use height="42.95" transform="matrix(1 0 0 1.0012 .5 -1.424)" width="80.8" xlink:href="#o"/><use height="42.95" transform="matrix(1 0 0 1.0012 40.5 18.576)" width="80.8" xlink:href="#o"/><use height="42.95" transform="matrix(1 0 0 1.0012 80.5 38.576)" width="80.8" xlink:href="#o"/><use height="42.95" transform="matrix(1 0 0 1.0012 120.5 58.576)" width="80.8" xlink:href="#o"/><use height="42.95" transform="matrix(1 0 0 1.0012 160.5 78.576)" width="80.8" xlink:href="#o"/><use height="42.95" transform="matrix(1 0 0 1.0012 200.5 98.576)" width="80.8" xlink:href="#o"/><use height="42.95" transform="matrix(1 0 0 1.0012 240.5 118.576)" width="80.8" xlink:href="#o"/><use height="42.95" transform="matrix(1 0 0 1.0012 280.5 138.576)" width="80.8" xlink:href="#o"/><use height="42.95" transform="matrix(1 0 0 1.0012 320.5 158.576)" width="80.8" xlink:href="#o"/><use height="42.95" transform="matrix(1 0 0 1.0012 360.5 178.576)" width="80.8" xlink:href="#o"/><use height="42.95" transform="matrix(1 0 0 1.0012 -79.5 -1.424)" width="80.8" xlink:href="#o"/><use height="42.95" transform="matrix(1 0 0 1.0012 -39.5 18.576)" width="80.8" xlink:href="#o"/><use height="42.95" transform="matrix(1 0 0 1.0012 .5 38.576)" width="80.8" xlink:href="#o"/><use height="42.95" transform="matrix(1 0 0 1.0012 40.5 58.576)" width="80.8" xlink:href="#o"/><use height="42.95" transform="matrix(1 0 0 1.0012 80.5 78.576)" width="80.8" xlink:href="#o"/><use height="42.95" transform="matrix(1 0 0 1.0012 120.5 98.576)" width="80.8" xlink:href="#o"/><use height="42.95" transform="matrix(1 0 0 1.0012 160.5 118.576)" width="80.8" xlink:href="#o"/><use height="42.95" transform="matrix(1 0 0 1.0012 200.5 138.576)" width="80.8" xlink:href="#o"/><use height="42.95" transform="matrix(1 0 0 1.0012 240.5 158.576)" width="80.8" xlink:href="#o"/><use height="42.95" transform="matrix(1 0 0 1.0012 280.5 178.576)" width="80.8" xlink:href="#o"/><use height="42.95" transform="matrix(1 0 0 1.0012 320.5 198.576)" width="80.8" xlink:href="#o"/><use height="31.55" transform="translate(-90.25 14.2)" width="50.5" xlink:href="#p"/><use height="31.55" transform="translate(-50.25 34.2)" width="50.5" xlink:href="#p"/><use height="31.55" transform="translate(-10.25 54.2)" width="50.5" xlink:href="#p"/><use height="31.55" transform="matrix(-1 0 0 1 40.25 69.2)" width="50.5" xlink:href="#p"/><use height="31.55" transform="matrix(-1 0 0 1 30.25 74.2)" width="50.5" xlink:href="#p"/><use height="31.55" transform="matrix(-1 0 0 1 -9.75 94.2)" width="50.5" xlink:href="#p"/><use height="31.55" transform="matrix(-1 0 0 1 -49.05 114.15)" width="50.5" xlink:href="#p"/><use height="42.95" transform="matrix(1 0 0 1.0012 .5 78.576)" width="80.8" xlink:href="#o"/><use height="42.95" transform="matrix(1 0 0 1.0012 40.5 98.576)" width="80.8" xlink:href="#o"/><use height="42.95" transform="matrix(1 0 0 1.0012 80.5 118.576)" width="80.8" xlink:href="#o"/><use height="42.95" transform="matrix(1 0 0 1.0012 120.5 138.576)" width="80.8" xlink:href="#o"/><use height="42.95" transform="matrix(1 0 0 1.0012 160.5 158.576)" width="80.8" xlink:href="#o"/><use height="42.95" transform="matrix(1 0 0 1.0012 200.5 178.576)" width="80.8" xlink:href="#o"/><use height="42.95" transform="matrix(1 0 0 1.0012 240.5 198.576)" width="80.8" xlink:href="#o"/><use height="42.95" transform="matrix(1 0 0 1.0012 280.5 218.576)" width="80.8" xlink:href="#o"/><use height="42.95" transform="matrix(1 0 0 1.0012 -39.5 98.576)" width="80.8" xlink:href="#o"/><use height="42.95" transform="matrix(1 0 0 1.0012 .5 118.576)" width="80.8" xlink:href="#o"/><use height="42.95" transform="matrix(1 0 0 1.0012 40.5 138.576)" width="80.8" xlink:href="#o"/><use height="42.95" transform="matrix(1 0 0 1.0012 80.5 158.576)" width="80.8" xlink:href="#o"/><use height="42.95" transform="matrix(1 0 0 1.0012 120.5 178.576)" width="80.8" xlink:href="#o"/><use height="42.95" transform="matrix(1 0 0 1.0012 160.5 198.576)" width="80.8" xlink:href="#o"/><use height="42.95" transform="matrix(1 0 0 1.0012 200.5 218.576)" width="80.8" xlink:href="#o"/><use height="42.95" transform="matrix(1 0 0 1.0012 240.5 238.576)" width="80.8" xlink:href="#o"/><use height="31.55" transform="translate(-198.75 69.2)" width="50.5" xlink:href="#p"/><use height="31.55" transform="translate(-158.75 89.2)" width="50.5" xlink:href="#p"/><use height="31.55" transform="translate(-118.75 109.2)" width="50.5" xlink:href="#p"/><use height="42.95" transform="matrix(1 0 0 1.0012 -79.5 118.576)" width="80.8" xlink:href="#o"/><use height="42.95" transform="matrix(1 0 0 1.0012 -39.5 138.576)" width="80.8" xlink:href="#o"/><use height="42.95" transform="matrix(1 0 0 1.0012 .5 158.576)" width="80.8" xlink:href="#o"/><use height="42.95" transform="matrix(1 0 0 1.0012 -239.5 78.576)" width="80.8" xlink:href="#o"/><use height="42.95" transform="matrix(1 0 0 1.0012 -199.5 98.576)" width="80.8" xlink:href="#o"/><use height="42.95" transform="matrix(1 0 0 1.0012 -159.5 118.576)" width="80.8" xlink:href="#o"/><use height="42.95" transform="matrix(1 0 0 1.0012 -119.5 138.576)" width="80.8" xlink:href="#o"/><use height="42.95" transform="matrix(1 0 0 1.0012 -79.5 158.576)" width="80.8" xlink:href="#o"/><use height="42.95" transform="matrix(1 0 0 1.0012 -39.5 178.576)" width="80.8" xlink:href="#o"/><use height="42.95" transform="matrix(1 0 0 1.0012 -279.5 98.576)" width="80.8" xlink:href="#o"/><use height="42.95" transform="matrix(1 0 0 1.0012 -239.5 118.576)" width="80.8" xlink:href="#o"/><use height="42.95" transform="matrix(1 0 0 1.0012 -199.5 138.576)" width="80.8" xlink:href="#o"/><use height="42.95" transform="matrix(1 0 0 1.0012 -159.5 158.576)" width="80.8" xlink:href="#o"/><use height="42.95" transform="matrix(1 0 0 1.0012 -119.5 178.576)" width="80.8" xlink:href="#o"/><use height="42.95" transform="matrix(1 0 0 1.0012 -79.5 198.576)" width="80.8" xlink:href="#o"/><use height="31.55" transform="translate(70.45 178.75)" width="50.5" xlink:href="#q"/><use height="31.55" transform="translate(110.45 198.75)" width="50.5" xlink:href="#q"/><use height="31.55" transform="translate(150.45 218.75)" width="50.5" xlink:href="#q"/><use height="31.55" transform="matrix(-1 0 0 1 82 183.25)" width="50.5" xlink:href="#q"/><use height="31.55" transform="matrix(-1 0 0 1 52.5 198)" width="50.5" xlink:href="#q"/><use height="31.55" transform="matrix(-1 0 0 1 12.5 218)" width="50.5" xlink:href="#q"/><use height="31.55" transform="matrix(-1 0 0 1 201.35 233.35)" width="50.5" xlink:href="#q"/><use height="42.95" transform="matrix(1 0 0 1.0012 160.5 238.576)" width="80.8" xlink:href="#o"/><use height="42.95" transform="matrix(1 0 0 1.0012 200.5 258.576)" width="80.8" xlink:href="#o"/><use height="31.55" transform="translate(150.8 248.35)" width="50.5" xlink:href="#q"/><use height="31.55" transform="translate(160.8 253.35)" width="50.5" xlink:href="#q"/><use height="31.55" transform="translate(200.5 273.25)" width="50.5" xlink:href="#q"/><use height="158.75" transform="translate(-21.1 192)" width="260.6" xlink:href="#r"/><use height="31.55" transform="translate(-39.25 233.75)" width="50.5" xlink:href="#q"/><use height="31.55" transform="translate(105.8 270.85)" width="50.5" xlink:href="#q"/><use height="31.55" transform="translate(115.8 275.85)" width="50.5" xlink:href="#q"/><use height="31.55" transform="translate(155.5 295.75)" width="50.5" xlink:href="#q"/><use height="31.55" transform="matrix(-1 0 0 1 116.35 275.85)" width="50.5" xlink:href="#q"/><use height="42.95" transform="matrix(1 0 0 1.0012 -319.5 118.576)" width="80.8" xlink:href="#o"/><use height="42.95" transform="matrix(1 0 0 1.0012 -279.5 138.576)" width="80.8" xlink:href="#o"/><use height="42.95" transform="matrix(1 0 0 1.0012 -239.5 158.576)" width="80.8" xlink:href="#o"/><use height="42.95" transform="matrix(1 0 0 1.0012 -199.5 178.576)" width="80.8" xlink:href="#o"/><use height="42.95" transform="matrix(1 0 0 1.0012 -159.5 198.576)" width="80.8" xlink:href="#o"/><use height="42.95" transform="matrix(1 0 0 1.0012 -119.5 218.576)" width="80.8" xlink:href="#o"/><use height="42.95" transform="matrix(1 0 0 1.0012 -79.5 238.576)" width="80.8" xlink:href="#o"/><use height="42.95" transform="matrix(1 0 0 1.0012 -359.5 138.576)" width="80.8" xlink:href="#o"/><use height="42.95" transform="matrix(1 0 0 1.0012 -319.5 158.576)" width="80.8" xlink:href="#o"/><use height="42.95" transform="matrix(1 0 0 1.0012 -279.5 178.576)" width="80.8" xlink:href="#o"/><use height="42.95" transform="matrix(1 0 0 1.0012 -239.5 198.576)" width="80.8" xlink:href="#o"/><use height="42.95" transform="matrix(1 0 0 1.0012 -199.5 218.576)" width="80.8" xlink:href="#o"/><use height="42.95" transform="matrix(1 0 0 1.0012 -159.5 238.576)" width="80.8" xlink:href="#o"/><use height="42.95" transform="matrix(1 0 0 1.0012 -119.5 258.576)" width="80.8" xlink:href="#o"/><use height="42.95" transform="matrix(1 0 0 1.0012 -399.5 158.576)" width="80.8" xlink:href="#o"/><use height="42.95" transform="matrix(1 0 0 1.0012 -359.5 178.576)" width="80.8" xlink:href="#o"/><use height="42.95" transform="matrix(1 0 0 1.0012 -319.5 198.576)" width="80.8" xlink:href="#o"/><use height="42.95" transform="matrix(1 0 0 1.0012 -279.5 218.576)" width="80.8" xlink:href="#o"/><use height="42.95" transform="matrix(1 0 0 1.0012 -239.5 238.576)" width="80.8" xlink:href="#o"/><use height="42.95" transform="matrix(1 0 0 1.0012 -199.5 258.576)" width="80.8" xlink:href="#o"/><use height="42.95" transform="matrix(1 0 0 1.0012 -159.5 278.576)" width="80.8" xlink:href="#o"/><use height="42.95" transform="matrix(1 0 0 1.0012 -439.5 178.576)" width="80.8" xlink:href="#o"/><use height="42.95" transform="matrix(1 0 0 1.0012 -399.5 198.576)" width="80.8" xlink:href="#o"/><use height="42.95" transform="matrix(1 0 0 1.0012 -359.5 218.576)" width="80.8" xlink:href="#o"/><use height="42.95" transform="matrix(1 0 0 1.0012 -319.5 238.576)" width="80.8" xlink:href="#o"/><use height="42.95" transform="matrix(1 0 0 1.0012 -279.5 258.576)" width="80.8" xlink:href="#o"/><use height="42.95" transform="matrix(1 0 0 1.0012 -239.5 278.576)" width="80.8" xlink:href="#o"/><use height="42.95" transform="matrix(1 0 0 1.0012 -199.5 298.576)" width="80.8" xlink:href="#o"/><use height="42.95" transform="matrix(1 0 0 1.0012 -479.5 198.576)" width="80.8" xlink:href="#o"/><use height="42.95" transform="matrix(1 0 0 1.0012 -439.5 218.576)" width="80.8" xlink:href="#o"/><use height="42.95" transform="matrix(1 0 0 1.0012 -399.5 238.576)" width="80.8" xlink:href="#o"/><use height="42.95" transform="matrix(1 0 0 1.0012 -359.5 258.576)" width="80.8" xlink:href="#o"/><use height="42.95" transform="matrix(1 0 0 1.0012 -319.5 278.576)" width="80.8" xlink:href="#o"/><use height="42.95" transform="matrix(1 0 0 1.0012 -279.5 298.576)" width="80.8" xlink:href="#o"/><use height="42.95" transform="matrix(1 0 0 1.0012 -239.5 318.576)" width="80.8" xlink:href="#o"/><use height="31.55" transform="matrix(-1 0 0 1 1.5 253.55)" width="50.5" xlink:href="#q"/><use height="31.55" transform="matrix(-1 0 0 1 -38.5 273.3)" width="50.5" xlink:href="#q"/><use height="31.55" transform="matrix(-1 0 0 1 -78.5 293.3)" width="50.5" xlink:href="#q"/><use height="31.55" transform="matrix(-1 0 0 1 -119 313.55)" width="50.5" xlink:href="#q"/><use height="31.55" transform="matrix(-1 0 0 1 -158.5 333.3)" width="50.5" xlink:href="#q"/><use height="136.2" transform="translate(-196.55 257.85)" width="272.35" xlink:href="#s"/><use height="31.55" transform="translate(40.75 273.75)" width="50.5" xlink:href="#q"/><use height="42.95" transform="matrix(1 0 0 1.0012 80.5 278.576)" width="80.8" xlink:href="#o"/><use height="42.95" transform="matrix(1 0 0 1.0012 120.5 298.576)" width="80.8" xlink:href="#o"/><use height="31.55" transform="matrix(-1 0 0 1 51.5 278.55)" width="50.5" xlink:href="#q"/><use height="31.55" transform="matrix(-1 0 0 1 11.5 298.3)" width="50.5" xlink:href="#q"/><use height="31.55" transform="matrix(-1 0 0 1 -28.5 318.3)" width="50.5" xlink:href="#q"/><use height="31.55" transform="matrix(-1 0 0 1 -69 338.55)" width="50.5" xlink:href="#q"/><use height="31.55" transform="matrix(-1 0 0 1 -108.5 358.3)" width="50.5" xlink:href="#q"/><use height="42.95" transform="matrix(1 0 0 1.0012 10.5 283.576)" width="80.8" xlink:href="#o"/><use height="42.95" transform="matrix(1 0 0 1.0012 40.5 298.576)" width="80.8" xlink:href="#o"/><use height="42.95" transform="matrix(1 0 0 1.0012 80.5 318.576)" width="80.8" xlink:href="#o"/><use height="42.95" transform="matrix(1 0 0 1.0012 -29.5 303.576)" width="80.8" xlink:href="#o"/><use height="42.95" transform="matrix(1 0 0 1.0012 .5 318.576)" width="80.8" xlink:href="#o"/><use height="42.95" transform="matrix(1 0 0 1.0012 40.5 338.576)" width="80.8" xlink:href="#o"/><use height="42.95" transform="matrix(1 0 0 1.0012 -69.5 323.576)" width="80.8" xlink:href="#o"/><use height="42.95" transform="matrix(1 0 0 1.0012 -39.5 338.576)" width="80.8" xlink:href="#o"/><use height="42.95" transform="matrix(1 0 0 1.0012 .5 358.576)" width="80.8" xlink:href="#o"/><use height="42.95" transform="matrix(1 0 0 1.0012 -109.5 343.576)" width="80.8" xlink:href="#o"/><use height="42.95" transform="matrix(1 0 0 1.0012 -79.5 358.576)" width="80.8" xlink:href="#o"/><use height="42.95" transform="matrix(1 0 0 1.0012 -39.5 378.576)" width="80.8" xlink:href="#o"/><use height="42.95" transform="matrix(1 0 0 1.0012 -149.5 363.576)" width="80.8" xlink:href="#o"/><use height="42.95" transform="matrix(1 0 0 1.0012 -119.5 378.576)" width="80.8" xlink:href="#o"/><use height="42.95" transform="matrix(1 0 0 1.0012 -79.5 398.576)" width="80.8" xlink:href="#o"/><use height="42" transform="matrix(.7925 -.6046 .9319 .5429 -160.193 178.765)" width="42" xlink:href="#t"/><use height="5.15" transform="translate(76.15 240.85)" width="7.45" xlink:href="#u"/></g><path d="m268.086 285.775 19.95 10 19.85-9.9-20-10 7.6-3.8-34.85-.25v17.4l7.45-3.45" fill="#fc6" fill-opacity=".6"/><path d="M260.636 289.225v-17.4l34.85.25-7.6 3.8 20 10-19.85 9.9-19.95-10z" fill="none" stroke="#f60" stroke-linecap="round" stroke-linejoin="round" stroke-miterlimit="3" stroke-opacity=".6"/><path d="m810.125 185.75-19.95 10-19.85-9.9 20-10-7.6-3.8 34.85-.25v17.4l-7.45-3.45" fill="#fc6" fill-opacity=".6"/><path d="M817.576 189.2v-17.4l-34.85.25 7.6 3.8-20 10 19.85 9.9 19.95-10z" fill="none" stroke="#f60" stroke-linecap="round" stroke-linejoin="round" stroke-miterlimit="3" stroke-opacity=".6"/><path d="m812.113 236.657 20 10-7.65 3.8 34.9.25v-17.4l-7.45 3.45-19.95-10-19.85 9.9" fill="#fc6" fill-opacity=".6"/><path d="m831.963 226.757 19.95 10 7.45-3.45v17.4l-34.9-.25 7.65-3.8-20-10z" fill="none" stroke="#f60" stroke-linecap="round" stroke-linejoin="round" stroke-miterlimit="3" stroke-opacity=".6"/><path d="m652.323 316.409 20 10-7.65 3.8 34.9.25v-17.4l-7.45 3.45-19.95-10-19.85 9.9" fill="#fc6" fill-opacity=".6"/><path d="m672.173 306.509 19.95 10 7.45-3.45v17.4l-34.9-.25 7.65-3.8-20-10z" fill="none" stroke="#f60" stroke-linecap="round" stroke-linejoin="round" stroke-miterlimit="3" stroke-opacity=".6"/><path d="m452.103 416.683 20 10-7.65 3.8 34.9.25v-17.4l-7.45 3.45-19.95-10-19.85 9.9" fill="#fc6" fill-opacity=".6"/><path d="m471.953 406.783 19.95 10 7.45-3.45v17.4l-34.9-.25 7.65-3.8-20-10z" fill="none" stroke="#f60" stroke-linecap="round" stroke-linejoin="round" stroke-miterlimit="3" stroke-opacity=".6"/><path d="m347.745 85.803 19.95 10 19.85-9.9-20-10 7.6-3.8-34.85-.25v17.4l7.45-3.45" fill="#fc6" fill-opacity=".6"/><path d="M340.295 89.253v-17.4l34.85.25-7.6 3.8 20 10-19.85 9.9-19.95-10z" fill="none" stroke="#f60" stroke-linecap="round" stroke-linejoin="round" stroke-miterlimit="3" stroke-opacity=".6"/><use height="34.75" width="46.2" xlink:href="#v" transform="translate(578 137)"/><use height="34.75" width="46.2" xlink:href="#w" transform="translate(658 137)"/><use height="34.75" width="46.2" xlink:href="#w" transform="translate(378 237)"/><use height="34.75" width="46.2" xlink:href="#w" transform="translate(578 57)"/><use height="34.75" width="46.2" xlink:href="#w" transform="translate(538 37)"/><use height="34.75" width="46.2" xlink:href="#w" transform="translate(498 17)"/><use height="85.15" width="151.85" xlink:href="#x" transform="translate(517 314.025)"/><use height="85.15" width="151.85" xlink:href="#x" transform="translate(677 234.025)"/><path d="M19.35-7.65q6.7 4 6.7 9.75 0 5.7-6.7 9.75T3.2 15.9q-9.5 0-16.15-4.05-6.75-4.05-6.7-9.75-.05-5.75 6.7-9.75Q-6.3-11.7 3.2-11.7q9.45 0 16.15 4.05" fill="url(#y)" fill-rule="evenodd" transform="translate(439.95 361.05)"/><path d="M19.35-7.65q6.7 4 6.7 9.75 0 5.7-6.7 9.75T3.2 15.9q-9.5 0-16.15-4.05-6.75-4.05-6.7-9.75-.05-5.75 6.7-9.75Q-6.3-11.7 3.2-11.7q9.45 0 16.15 4.05" fill="url(#z)" fill-rule="evenodd" transform="translate(358.95 281.05)"/><path d="M19.35-7.65q6.7 4 6.7 9.75 0 5.7-6.7 9.75T3.2 15.9q-9.5 0-16.15-4.05-6.75-4.05-6.7-9.75-.05-5.75 6.7-9.75Q-6.3-11.7 3.2-11.7q9.45 0 16.15 4.05" fill="url(#A)" fill-rule="evenodd" transform="translate(639.95 181.05)"/><g transform="translate(556.857 262.808)"><use height="26.9" transform="matrix(.769 -.1053 .3709 .7326 11.934 .393)" width="46.85" xlink:href="#B"/><use height="26.9" transform="matrix(-.7765 0 0 .7765 -6.16 -2.148)" width="46.85" xlink:href="#B"/><use height="26.9" transform="matrix(.8782 .269 -.5896 .5006 -3.266 1.81)" width="46.85" xlink:href="#B"/><use height="26.9" transform="matrix(-.5714 .0475 .5936 -.74 -12.65 -.95)" width="46.85" xlink:href="#B"/><use height="26.9" transform="matrix(.6461 -.0128 -.8385 -.9142 17.756 2.575)" width="46.85" xlink:href="#B"/></g><use height="40.6" width="47.25" xlink:href="#C" transform="translate(656 175.995)"/><use height="40.6" width="47.25" xlink:href="#D" transform="translate(575 173.995)"/><use height="40.6" width="47.25" xlink:href="#C" transform="translate(376 275.995)"/><use height="40.6" width="47.25" xlink:href="#D" transform="translate(294 273.995)"/><use height="40.6" width="47.25" xlink:href="#D" transform="translate(374 353.995)"/><use height="34.75" width="46.2" xlink:href="#w" transform="translate(458 317)"/></svg>