<svg xmlns:xlink="http://www.w3.org/1999/xlink" height="40.5" width="28.3" xmlns="http://www.w3.org/2000/svg"><use height="40.5" width="28.3" xlink:href="#shape0"/><defs><g id="shape0"><path d="M-39.15-21.3l-3.8-18.1q-.9-9.15 4.15-14.6l.45-.5q.6-.6 4.2-1.8l13-4.5q8.05-.4 4 12.1-3.95 12.2-3.55 18l-.1.05-18.35 9.35m5.65-12.45l.95 2.2 3.5-20.15-1.2.2q-6.35 1.35-5.25 10.35.25 2.35 1.05 5.25l.95 2.15m11.85-16.05q.5-1.85.25-3.1v-.15l-.25-.5-.05-.05q-.7-.55-1.45-.45-.6.05-1.25.5l-.6.5-.6.6-2.8 16.75v.05l-.3 2.2.15.05 2.75-5.05.2-.45v-.05l.95-2.15v-.05q1.25-3 2.3-6.35l.7-2.3m-7.25 17.1l.35-.7-.35.7" fill="#631e01" fill-rule="evenodd" transform="translate(43.6 61.3)"/><path d="M-30.25-51.5l1.2-.2-3.5 20.15-.95-2.2 3.25-17.75m7.1-2.55q.75-.1 1.45.45l.05.05.25.5v.15q.25 1.25-.25 3.1l-.7 2.3q-1.15 3.4-2.4 6.35l-.95 2.2-3 5.5.3-2.2v-.05q1.35-2.85 2.4-5.45 2.5-6.5 2.8-11.9v-.5l.05-.5" fill="#4a1600" fill-rule="evenodd" transform="translate(43.6 61.3)"/><path d="M-20.8-30.65l.1-.05q-.4-5.8 3.55-18 4.05-12.5-4-12.1l-13 4.5q-3.6 1.2-4.2 1.8l-.45.5q-5.05 5.45-4.15 14.6l3.8 18.1m8.9-30.2l-3.25 17.75m10.35-20.3q.75-.1 1.45.45l.05.05.25.5v.15q.25 1.25-.25 3.1m-1.5-4.25q-.6.05-1.25.5l-.6.5-.6.6m-2.8 16.75q1.35-2.85 2.4-5.45 2.5-6.5 2.8-11.9v-.5l.05-.5m-5.25 18.4v-.05" fill="none" stroke="#000" stroke-linecap="round" stroke-linejoin="round" transform="translate(43.6 61.3)"/><path d="M-33.5-33.75l.95 2.2 3.5-20.15-1.2.2m-3.25 17.75l-.95-2.15q-.8-2.9-1.05-5.25-1.1-9 5.25-10.35m8.6 1.7l-.7 2.3q-1.05 3.35-2.3 6.35v.05l-.95 2.15v.05l-.2.45-2.75 5.05-.35.7m3.3-19.75l-2.8 16.75m-.3 2.25l.3-2.2" fill="none" stroke="#000" stroke-linecap="round" stroke-linejoin="round" transform="translate(43.6 61.3)"/></g></defs></svg>