<svg xmlns:xlink="http://www.w3.org/1999/xlink" height="40.6" width="47.25" xmlns="http://www.w3.org/2000/svg"><use height="40.6" width="47.25" xlink:href="#a"/><defs><linearGradient gradientTransform="matrix(-.0032 -.0055 -.0122 .0071 -1.85 -10.4)" gradientUnits="userSpaceOnUse" id="b" spreadMethod="pad" x1="-819.2" x2="819.2"><stop offset=".247" stop-color="#472e23"/><stop offset="1" stop-color="#930"/></linearGradient><g id="a"><path d="m22.5 2.9 1.4.8L3.05 15.55q-14.85-5.8-26-12.35l.2-.1 1.5.05.15-.85 11.35-5.7L.1.6v12.85l2.05.05V.45l.7-.35L4-.5l.35-.15L4-.5l.35-.15L6.6-1.8l4-2.05 9.85 5.6.4 1.35q1.2.9 1.65-.2" fill="#666" fill-opacity=".431" fill-rule="evenodd" transform="translate(23.35 25.05)"/><path d="m2.15-24.05 1.35.9L17.95-11.8l.4.4 1 1.05-18.3 9.4-21.1-9q-2.2-.55-2.65-2.05v-.35l.15-1.05.75-1.05.35-.2.3-.15 17.3-8.6q2.1-1.15 3.85-1.1h.1q1 0 1.95.4l.1.05M7.65-7.3q6.05-3.8-.3-8.25l-7.7-5.85-16.35 8.5 8.85 5.05q2.05.95 4 1.5Q1.75-4.7 6-6.45l1.65-.85m11.65-1h.05-.05" fill="#930" fill-rule="evenodd" transform="translate(23.35 25.05)"/><path d="M17.95-11.8H18l.35.4-.4-.4m1.4 1.45v2.05h-.1l-1.5.8-7.15 3.65-4 2.05L4.35-.65 4-.5 2.85.1l-.7.35-1.1.55V.95 1 .95 1L.1.6l-9.85-4-9.95-4.05-1.7-.7-.85-1.95-.3-1.05-.15-.85q.45 1.5 2.65 2.05l21.1 9 18.3-9.4m-41.15-4.1q.3-.2.65-.35l-.3.15-.35.2M2.85.1l-1.8.85L2.85.1m-1.8.85v-1.9 1.9" fill="#631e01" fill-rule="evenodd" transform="translate(23.35 25.05)"/><path d="m19.35-8.3 3.3 10.75-.15.45q-.45 1.1-1.65.2l-.4-1.35-2.7-9.25 1.5-.8h.1m-42.1 11.4-.1-.7 1.45-10.55 1.7.7-1.4 9.75-.15.85-1.5-.05M2.15.45V13.5L.1 13.45V.6l.95.4 1.1-.55" fill="#200a00" fill-rule="evenodd" transform="translate(23.35 25.05)"/><path d="M7.65-7.3 6-6.45q-4.25 1.75-9.85.1-1.95-.55-4-1.5l-8.85-5.05 16.35-8.5 7.7 5.85q6.35 4.45.3 8.25" fill="url(#b)" fill-rule="evenodd" transform="translate(23.35 25.05)"/><path d="M.1-24.5q1.05-.2 2.05.45l1.35.9L17.95-11.8H18M-22.85 2.4l1.45-10.55-.85-1.95-.3-1.05-.15-.85v-.35l.15-1.05.75-1.05m.65-.35 17.3-8.6q2.1-1.15 3.85-1.1m2.05.4.1.05M4-.5l.35-.15L6.6-1.8M4-.5 2.85.1m-.7.35V13.5L.1 13.45V.6l-9.85-4M1.05 1 .1.6m.95.35L2.85.1m-24-14.9-.3.15-.35.2m2.1 7 9.95 4.05M-21.4-8.15l1.7.7m-3-4.55q.45 1.5 2.65 2.05l21.1 9m17.3-10.45 1 1.05v2.05l3.3 10.75-.15.45q-.45 1.1-1.65.2l-.4-1.35-2.7-9.25 1.5-.8m-42 11.4-.1-.7m1.75-.1-.15.85-1.5-.05M6.6-1.8l4-2.05 7.15-3.65m.6-3.9-.4-.4M1.05-.95l18.3-9.4M1.05 1V.95 1m0-1.95v1.9m-20.75-8.4-1.4 9.75" fill="none" stroke="#000" stroke-linecap="round" stroke-linejoin="round" transform="translate(23.35 25.05)"/></g></defs></svg>