<svg xmlns="http://www.w3.org/2000/svg" xmlns:xlink="http://www.w3.org/1999/xlink" height="43" width="95"><g transform="translate(42.54 21.406)"><use height="26.9" transform="matrix(.769 -.1053 .3709 .7326 11.934 .393)" width="46.85" xlink:href="#sprite0"/><use height="26.9" transform="matrix(-.7765 0 0 .7765 -6.16 -2.148)" width="46.85" xlink:href="#sprite0"/><use height="26.9" transform="matrix(.8782 .269 -.5896 .5006 -3.266 1.81)" width="46.85" xlink:href="#sprite0"/><use height="26.9" transform="matrix(-.5714 .0475 .5936 -.74 -12.65 -.95)" width="46.85" xlink:href="#sprite0"/><use height="26.9" transform="matrix(.6461 -.0128 -.8385 -.9142 17.756 2.575)" width="46.85" xlink:href="#sprite0"/></g><defs id="defs157"><linearGradient gradientTransform="matrix(.0124 0 0 .0121 3.2 -60.05)" gradientUnits="userSpaceOnUse" id="gradient0" spreadMethod="pad" x1="-819.2" x2="819.2"><stop offset="0" stop-color="#fff" stop-opacity=".8" id="stop58"/><stop offset=".243" stop-color="#c2c2c2" stop-opacity=".302" id="stop60"/><stop offset=".498" stop-color="#fff" stop-opacity=".502" id="stop62"/><stop offset=".745" stop-color="#fff" stop-opacity=".2" id="stop64"/><stop offset="1" stop-color="#fff" stop-opacity=".8" id="stop66"/></linearGradient><linearGradient gradientTransform="matrix(-.0001 .0185 -.0191 -.0001 -.75 -28)" gradientUnits="userSpaceOnUse" id="gradient1" spreadMethod="pad" x1="-819.2" x2="819.2"><stop offset="0" stop-color="#fff" stop-opacity=".8" id="stop69"/><stop offset=".243" stop-color="#c2c2c2" stop-opacity=".302" id="stop71"/><stop offset=".498" stop-color="#fff" stop-opacity=".502" id="stop73"/><stop offset=".745" stop-color="#fff" stop-opacity=".2" id="stop75"/><stop offset="1" stop-color="#fff" stop-opacity=".8" id="stop77"/></linearGradient><linearGradient gradientTransform="matrix(0 .0123 -.0127 0 -1.65 -39.45)" gradientUnits="userSpaceOnUse" id="gradient2" spreadMethod="pad" x1="-819.2" x2="819.2"><stop offset="0" stop-color="#fff" stop-opacity=".8" id="stop80"/><stop offset=".243" stop-color="#c2c2c2" stop-opacity=".302" id="stop82"/><stop offset=".498" stop-color="#fff" stop-opacity=".502" id="stop84"/><stop offset=".745" stop-color="#fff" stop-opacity=".2" id="stop86"/><stop offset="1" stop-color="#fff" stop-opacity=".8" id="stop88"/></linearGradient><linearGradient gradientTransform="matrix(.0001 .0176 -.0197 .0001 -.6 -36)" gradientUnits="userSpaceOnUse" id="gradient3" spreadMethod="pad" x1="-819.2" x2="819.2"><stop offset="0" stop-color="#fff" stop-opacity=".8" id="stop91"/><stop offset=".243" stop-color="#c2c2c2" stop-opacity=".302" id="stop93"/><stop offset=".498" stop-color="#fff" stop-opacity=".502" id="stop95"/><stop offset=".745" stop-color="#fff" stop-opacity=".2" id="stop97"/><stop offset="1" stop-color="#fff" stop-opacity=".8" id="stop99"/></linearGradient><linearGradient gradientTransform="matrix(.0006 .0174 -.0197 .0007 .05 -33.75)" gradientUnits="userSpaceOnUse" id="gradient4" spreadMethod="pad" x1="-819.2" x2="819.2"><stop offset="0" stop-color="#fff" stop-opacity=".8" id="stop102"/><stop offset=".243" stop-color="#c2c2c2" stop-opacity=".302" id="stop104"/><stop offset=".498" stop-color="#fff" stop-opacity=".502" id="stop106"/><stop offset=".745" stop-color="#fff" stop-opacity=".2" id="stop108"/><stop offset="1" stop-color="#fff" stop-opacity=".8" id="stop110"/></linearGradient><linearGradient gradientTransform="matrix(-.0002 .0013 -.0041 -.0006 -17.6 -40.65)" gradientUnits="userSpaceOnUse" id="gradient5" spreadMethod="pad" x1="-819.2" x2="819.2"><stop offset="0" stop-color="#fff" stop-opacity=".702" id="stop113"/><stop offset="1" stop-color="#fff" stop-opacity=".502" id="stop115"/></linearGradient><linearGradient gradientTransform="matrix(.0147 -.0037 .0011 .0044 10.35 -41.15)" gradientUnits="userSpaceOnUse" id="gradient6" spreadMethod="pad" x1="-819.2" x2="819.2"><stop offset="0" stop-color="#fff" stop-opacity=".902" id="stop118"/><stop offset=".125" stop-color="#fff" stop-opacity=".502" id="stop120"/><stop offset=".243" stop-color="#fff" stop-opacity=".902" id="stop122"/><stop offset=".38" stop-color="#fff" stop-opacity=".502" id="stop124"/><stop offset=".478" stop-color="#fff" stop-opacity=".902" id="stop126"/><stop offset=".631" stop-color="#fff" stop-opacity=".502" id="stop128"/><stop offset=".757" stop-color="#fff" stop-opacity=".902" id="stop130"/><stop offset="1" stop-color="#fff" stop-opacity=".502" id="stop132"/></linearGradient><linearGradient gradientTransform="matrix(0 -.0006 -.0009 .0002 .95 -46.1)" gradientUnits="userSpaceOnUse" id="gradient7" spreadMethod="pad" x1="-819.2" x2="819.2"><stop offset="0" stop-color="#fff" stop-opacity=".702" id="stop135"/><stop offset="1" stop-color="#fff" stop-opacity=".502" id="stop137"/></linearGradient><linearGradient gradientTransform="matrix(.0027 .0014 .0002 -.0016 -1.2 -45.6)" gradientUnits="userSpaceOnUse" id="gradient8" spreadMethod="pad" x1="-819.2" x2="819.2"><stop offset="0" stop-color="#fff" stop-opacity=".902" id="stop140"/><stop offset=".125" stop-color="#fff" stop-opacity=".502" id="stop142"/><stop offset=".243" stop-color="#fff" stop-opacity=".902" id="stop144"/><stop offset=".38" stop-color="#fff" stop-opacity=".502" id="stop146"/><stop offset=".478" stop-color="#fff" stop-opacity=".902" id="stop148"/><stop offset=".631" stop-color="#fff" stop-opacity=".502" id="stop150"/><stop offset=".757" stop-color="#fff" stop-opacity=".902" id="stop152"/><stop offset="1" stop-color="#fff" stop-opacity=".502" id="stop154"/></linearGradient><g id="sprite0" transform="translate(-13.6 -2.9)"><use height="23.2" transform="translate(16.75 5.65)" width="43.7" xlink:href="#shape0" id="use16" x="0" y="0"/></g><g id="shape0" transform="translate(-16.75 -5.65)"><path d="M43.85 11.05q-.2.95-.75 1.7t-.8 1.6q-.3.85-1.05 1.35l-.25.9-.7.45q-.25 1.1-1.6 1.2l-.75.2-.7.3q-.45 1.3-2 1.7l-1.2.35-1 .25q-1.75 1.55-4 1.9L28 23.6l-.35.05q-.7.7-1.1.2l-1.25-.05-.45-.05q-3.2.15-5.4-1.65-.3-.25-.1-.65.5-1.2 1.9-1.2l6.5-.6 6.35-3.3.95-.8q1.75-2.1 3.65-3.9l.05-.5Q38 8.05 40 5.9l.45-.25q3.15.45 3.15 3.65.4.75.25 1.75m6.7-.85q2.25 1.05 2.2 2.75l.65.4.75.85q.4.85-.4 1.45-.65.45-1.4.7-1.85.7-3.1 2.15-1.85 2.1-4.45 3.25l-.6.3-4.45 2.65-1.75 1q-1.15.35-2.15 1.1-.65.5-1.4.65-.7.8-2.45.55l-2.15-.6q-.6-.3-.6-.95-1.25-2.05 1.35-2.3l3-.75.8-.5q2.15-1.8 4.65-3.05l.6-.35q3.7-2.3 6.9-5.05l.4-.6q.7-2.15 1.65-4.05.2-.35.6-.4.85 0 1.25.7l.1.1M44 20.3l.7-.3.45-.3q-.65.15-1.15.6m3.8 3.25q-.5.3-.65-.25-.1-.5.3-.85 2.6-2.25 5.65-3.9 1.05-.55 1.65-1.6l1-1.2q.7-.65 1.5-1 1.2.1 1.1 1.4-.1.8-.9.6l-1.4 1.55-.6.6-6.3 3.85-1.35.8M33.35 8.8Q33 8 33.8 7.7l.1-.05q1.05.6.8 1.95v.35q-.1 2.55-2.3 4.1l-6.25 4q-1.95 1.15-4.2.65-3.35.55-5.05-1.85-.2-.25-.1-.6.25-.95 1.2-1 2 1.25 4.5 1.25l.6.45.1.55q1.8 0 3.35-1.2.4-.3.9-.55 3.55-1.55 5.65-4.6l.3-.7.05-.3-.15-1.05.05-.3" fill="#fff" fill-opacity=".051" fill-rule="evenodd" stroke="none" id="path19"/><path d="M50.35 21.25l3.3-2 2.65-2.4L57.95 15q.1-.15.3-.2.6 0 .9.5l.05.05q1.3-.3 1.25.9l-.3.65q-1.05 1-2.45 1.4-1.35 1.35-3.1 2.1l-.4-.1q-1.95 1.5-4.15 2.45l-.2-.05q-.55-.9.5-1.45m8-5l.85-.9-.85.9" fill="#a5a7a5" fill-opacity=".153" fill-rule="evenodd" stroke="none" id="path21"/><path d="M43.45 8.6v.65m-15.5 13.4l6.4-2.65" fill="none" stroke="#fafafa" stroke-linecap="round" stroke-linejoin="round" stroke-opacity=".8" stroke-width="1" id="path23"/><path d="M54.15 14.2q-7.9 6.85-11.7 9.35-3.85 2.5-8.75 4.8M44.05 9.6q-.65 6.2-4.9 9.05-4.2 2.85-11.7 5.4" fill="none" stroke="#c4c4c4" stroke-linecap="round" stroke-linejoin="round" stroke-opacity=".153" stroke-width="1" id="path25"/><path d="M34.4 12.05q.65-1.4.65-2.95m-.65 2.95q-1 2.15-3.6 3.9-4.2 2.85-10.2 2.85" fill="none" stroke="#c4c4c4" stroke-linecap="round" stroke-linejoin="round" stroke-opacity=".153" stroke-width="1" id="path27"/><path d="M46.8 10.95l.35-1.45M41.05 8l2.4.6m15.75 6.75l-.85.9M55.3 15.2l.45.55m-5.45-3l.7-1.25m-8.45.4l-1.3 3.25m11-1.1q-1.75 2.5-4.4 3.75M34.4 10.45v1.6M26.05 22.6h-.65m11.4-3.95l1.95-1.05m-11.8-.8l3.95-1.75M33.6 27h-.55m4.1-1.95l5.4-2.85" fill="none" stroke="#d8d8d8" stroke-linecap="round" stroke-linejoin="round" stroke-opacity=".153" stroke-width="1" id="path29"/></g><g id="sprite1" transform="translate(29.2 51.5)"><use height="44.25" transform="translate(-29.2 -51.5)" width="56.2" xlink:href="#shape1" id="use32" x="0" y="0"/></g><g id="shape1" transform="translate(29.2 51.5)"><path d="M-1.75-51.4l-.15-.1h1v.1h-.85" fill="url(#gradient0)" fill-rule="evenodd" stroke="none" id="path35"/><path d="M18.5-35.5L2.1-8.25q-1.4.5-3.1.5-1.85 0-3.2-.6L-20.85-35.7q1.5-.85 4.1-1.6 6.4-1.75 15.4-1.75T14-37.3q2.9.8 4.5 1.8" fill="url(#gradient1)" fill-rule="evenodd" stroke="none" id="path37"/><path d="M-20.85-35.7L-4.2-8.35q1.35.6 3.2.6 1.7 0 3.1-.5L18.5-35.5" fill="none" stroke="#fff" stroke-linecap="round" stroke-linejoin="round" stroke-opacity=".502" stroke-width="1" id="path39"/><path d="M-14.3-49.35q.3.15.25-.05l3-.2 1.9-.05 6 .2 7.05.1 3.05-.3 1.2.05H9.2l.6.1q4.95.9 9.1 2.2.4.7.8.25.25 1.2 1.25 1.65l2.3 3.2q1.75 2.65 3.25 8.35v.15q-.3.5 0 .25-.55 5.65-3.8 9.4-1.15-1.75-3.25-2.95l-2.4-.3q-3.15.1-5.7 3L6.1-26.6q-6.1-1.95-8.05-.45L-5.1-24.5q-.2.5-.6.65l-.75-.1-4.35-.45-9.45-.15h-.25l-1 2.05q0 .2-.65-.2-2.85-1.8-6.25-8.55.2.15-.15-.3v-.2q-.55-5.7.7-7.95l1.05-1.85.2-.6 1.2-2q2.15-2.8 4.5-4.15.2.05.45-.25l6.15-.8" fill="url(#gradient2)" fill-rule="evenodd" stroke="none" id="path41"/><path d="M-20.45-48.55q2.45-.75 5.1-.9h.55l.5.1-6.15.8" fill="url(#gradient3)" fill-rule="evenodd" stroke="none" id="path43"/><path d="M-27.85-39.7l.35-.65.7-1.2-1.05 1.85" fill="url(#gradient4)" fill-rule="evenodd" stroke="none" id="path45"/><path d="M-14.3-49.35q.3.15.25-.05l3-.2 1.9-.05 6 .2 7.05.1 3.05-.3 1.2.05H9.2l.6.1q4.95.9 9.1 2.2.4.7.8.25.25 1.2 1.25 1.65l2.3 3.2q1.75 2.65 3.25 8.35v.15q-.3.5 0 .25-.55 5.65-3.8 9.4l-.05.1-.05-.05h-.05l-.05-.05q.35 1.2-.15-.05l.15.05m.2 0Q21.55-25.8 19.45-27l-2.4-.3q-3.15.1-5.7 3L6.1-26.6q-6.1-1.95-8.05-.45L-5.1-24.5q-.2.5-.6.65l-.75-.1-4.35-.45-9.45-.15h-.25l-1 2.05q0 .2-.65-.2-2.85-1.8-6.25-8.55.2.15-.15-.3v-.2q-.55-5.7.7-7.95l.35-.65.7-1.2.2-.6 1.2-2q2.15-2.8 4.5-4.15.2.05.45-.25 2.45-.75 5.1-.9h.55l.5.1-6.15.8m-6.35 7l-1.05 1.85" fill="none" stroke="#fff" stroke-linecap="round" stroke-linejoin="round" stroke-opacity=".502" stroke-width="1" id="path47"/><path d="M-16.7-43.4q0 1 1.45 2l.25.2q.65-.75 2.35-1.1l2.75-.2-.8.15q-.95.2-1.45.55l-.6.6-.15.45v.3q-.05 1.1 1.85 2.5l-.3-.2-.7-.05-1.45-.25-1.45-.3-2.9.85.05-.25.55-1-1.65.2-1.5.5-.85.55-.55-1.15v-.6l.2-.5-2.6.2-1 .35.6-1.2q1.55-2.2 3.55-2.65l1.4-.2q-.2 1.1 1.4 2.25l.25.2-.05-.8q.15-.9 1.25-1.45l.1.05" fill="url(#gradient5)" fill-rule="evenodd" stroke="none" id="path49"/><path d="M21.1-38.85l-1-.35-2.6-.2.15.5.05.6-.6 1.15-.8-.55-1.5-.5-1.65-.2.55 1v.25L10.8-38l-1.4.3-1.5.25-.65.05-.3.2.3-.2.3-.3-.75-.5-1.5-.5-1.65-.2.55 1v.25l-2.9-.85-1.4.3-1.5.25-.65.05-.3.2.25-.2.05-.05Q-.7-39.2-.7-40.2l-.05-.3-.15-.45-.55-.6-1.45-.55-.85-.15h.9l1.85.2q1.7.35 2.4 1.1l.25-.2q1.4-1 1.4-2l.1-.05q1.1.55 1.25 1.45v.6l-.05.2.25-.2q1.6-1.15 1.45-2.25l.25.05-.25-.05-.55-.1 2.75.2q1.7.35 2.4 1.1l.25-.2q1.4-1 1.4-2l.1-.05q1.1.55 1.25 1.45v.6l-.05.2.25-.2q1.6-1.15 1.45-2.25l1.4.2q1.95.45 3.5 2.65l.65 1.2-1-.35h-.1l.7.9.65 1.2m-8.55-3.9v.1l.1-.05-.1-.05" fill="url(#gradient6)" fill-rule="evenodd" stroke="none" id="path51"/><path d="M.05-47.05l.1-.35.15.25.35.25.35.1-.1-.4-.05-.2.65.45.35-.1.3-.1.15-.05-.4 1v.1l.05.25.15.25q.1.2.35.3l.15.05-.6-.15-.5-.45-.1.1-.3.85h-.05l-.25-.6v-.35H.75v.1l-.2.15H.5l.2-.3.05-.55-.15.2-.45.05v-.4l-.1-.45" fill="url(#gradient7)" fill-rule="evenodd" stroke="none" id="path53"/><path d="M.05-47.05l.1.45v.4l.45-.05.15-.2-.05.55-.2.3h.05l.2-.15-.1.45-.2.4v.1l-.5.5H-.3q.05-.4-.25-.75l-.05-.1v.25l-.2.6-.05-.05-.2-.7-.1-.1-.4.45-.55.1.15-.1-.25-.9h-.05v.3q-.05.35-.25.5l-.25-.8h-.05l-.5.35-.3.1h-.15l.15-.1.25-.15.1-.2v-.3l-.25-.8-.05-.1h.05l.15.1.25.1.25.05.55-.35v.1l-.15.35h.3l.3-.15.15-.2-.05-.15.15.05.25.1.25.1.55-.35v.1l-.15.4.3-.05.3-.2.15-.15v-.1" fill="url(#gradient8)" fill-rule="evenodd" stroke="none" id="path55"/></g></defs></svg>