<svg xmlns:xlink="http://www.w3.org/1999/xlink" height="209.2" width="204.95" xmlns="http://www.w3.org/2000/svg"><g transform="translate(1.2 228.55)"><use height="209.2" transform="translate(-1.2 -228.55)" width="204.95" xlink:href="#shape0"/><use height="14.9" transform="matrix(.4977 -.2448 -.0072 .4581 110.482 -132.501)" width="67.2" xlink:href="#text0"/></g><defs><path d="M16-460L152-4h76l104-364L436-4h76l136-456h-84l-92 336-96-336h-88l-96 336-92-336H16" fill-rule="evenodd" id="font_MS_UI_Gothic_w0"/><path d="M256-400q52 0 80 28 32 32 32 72H140q8-40 36-68 32-32 80-32M48-236q0 108 64 172Q172-4 268-4q92 0 144-52 36-36 52-108h-88q0 36-28 64-24 24-80 24t-92-36q-40-40-40-124h324q0-116-56-172-60-60-144-60-88 0-144 56-68 68-68 176" fill-rule="evenodd" id="font_MS_UI_Gothic_e0"/><path d="M68-696v684h80v-684H68" fill-rule="evenodd" id="font_MS_UI_Gothic_l0"/><path d="M48-232q0 104 72 176Q176 0 260 0q100 0 152-52t56-136h-88q0 52-32 84t-88 32q-48 0-80-32-44-44-44-124 0-84 48-132 32-32 80-32t72 24q28 28 32 60h88q-8-64-52-108-48-48-144-48-88 0-148 60-64 64-64 172" fill-rule="evenodd" id="font_MS_UI_Gothic_c0"/><path d="M260-396q48 0 80 32 48 48 48 128t-44 124q-36 36-84 36t-84-36q-44-44-44-124t48-128q32-32 80-32M44-236q0 104 68 172Q172-4 260-4t148-60q68-68 68-172t-68-172q-60-60-148-60t-148 60q-68 68-68 172" fill-rule="evenodd" id="font_MS_UI_Gothic_o0"/><path d="M140-12v-280q0-32 36-68 32-32 76-32 40 0 60 20 24 24 24 48v312h80v-284q0-28 32-60 36-36 92-36 32 0 56 24 16 16 16 40v316h80v-332q0-48-40-88-36-36-100-36-92 0-144 84-12-24-32-44-40-40-116-40-68 0-120 76v-68H60v448h80" fill-rule="evenodd" id="font_MS_UI_Gothic_m0"/><g id="shape0"><path d="M15.1-123.15L28.55-95.9l.3.6.05.1v12.85l94.45-45.75.75-.4 26.45 34.15-151.05 75 .35-134.15 15.25 30.35m13.4 40.8V-95.2l.05-.7-.05.7v12.85" fill-opacity=".2" fill-rule="evenodd" transform="translate(1.2 228.55)"/><path d="M28.9-95.2l174.35-84.9v13.25l-79.1 38.35h-.05l-.75.4L28.9-82.35V-95.2" fill="#400f15" fill-rule="evenodd" transform="translate(1.2 228.55)"/><path d="M160.75-227.85l42.3 47.2.2.2L28.9-95.55l-15-30.15-11.85-24.25-.3-.7-.35-.6-.25-.5-1.65-3.45 161.25-72.65" fill="#51131c" fill-rule="evenodd" transform="translate(1.2 228.55)"/><path d="M-.7-155.4l161.3-72.65.15.2 42.3 47.2M13.9-125.7l1.2 2.55L28.55-95.9l.3.6m.05.1l174.35-84.9v13.25l-79.1 38.35m-.8.4L28.9-82.35V-95.2M1.4-151.25l.65 1.3-.3-.7m-.35-.6l-.25-.5-1.65-3.45m2.55 5.25L13.9-125.7m14.65 29.8l-.05.7v12.85" fill="none" stroke="#000" stroke-linecap="round" stroke-linejoin="round" transform="translate(1.2 228.55)"/></g><g transform="translate(-.3 -2.45)" fill="#ffc" id="text0"><use height="14.9" transform="translate(0 16) scale(.0186)" width="67.2" xlink:href="#font_MS_UI_Gothic_w0"/><use height="14.9" transform="translate(12.3 16) scale(.0186)" width="67.2" xlink:href="#font_MS_UI_Gothic_e0"/><use height="14.9" transform="translate(21.8 16) scale(.0186)" width="67.2" xlink:href="#font_MS_UI_Gothic_l0"/><use height="14.9" transform="translate(25.8 16) scale(.0186)" width="67.2" xlink:href="#font_MS_UI_Gothic_c0"/><use height="14.9" transform="translate(35.3 16) scale(.0186)" width="67.2" xlink:href="#font_MS_UI_Gothic_o0"/><use height="14.9" transform="translate(44.95 16) scale(.0186)" width="67.2" xlink:href="#font_MS_UI_Gothic_m0"/><use height="14.9" transform="translate(58.9 16) scale(.0186)" width="67.2" xlink:href="#font_MS_UI_Gothic_e0"/></g></defs></svg>