<?xml version="1.0" standalone="no"?>
<!DOCTYPE svg PUBLIC "-//W3C//DTD SVG 20010904//EN"
 "http://www.w3.org/TR/2001/REC-SVG-20010904/DTD/svg10.dtd">
<svg version="1.0" xmlns="http://www.w3.org/2000/svg"
 width="700.000000pt" height="700.000000pt" viewBox="0 0 700.000000 700.000000"
 preserveAspectRatio="xMidYMid meet">
<metadata>
Created by potrace 1.14, written by Peter Selinger 2001-2017
</metadata>
<g transform="translate(0.000000,700.000000) scale(0.100000,-0.100000)"
fill="#000000" stroke="none">
<path d="M4452 6480 c-6 -14 -229 -495 -496 -1070 l-485 -1045 -444 -3 -444
-2 -493 1065 c-272 586 -497 1065 -500 1065 -4 0 -236 -501 -518 -1112 l-511
-1113 121 -57 c66 -32 121 -58 123 -58 1 0 177 391 391 870 214 478 391 870
394 869 3 0 177 -386 388 -857 211 -472 387 -863 391 -870 6 -10 28 -4 89 22
63 27 82 32 86 21 3 -8 19 -21 36 -30 26 -14 84 -15 461 -13 l431 3 22 26 23
27 73 -34 c41 -19 77 -31 81 -27 4 5 181 393 394 863 213 470 390 858 394 863
4 4 182 -383 395 -860 214 -478 390 -870 392 -872 3 -4 235 98 247 108 4 4
-216 488 -489 1077 -273 588 -506 1092 -519 1119 -22 49 -23 49 -33 25z"/>
<path d="M2164 3721 c-70 -41 -141 -113 -166 -168 -17 -39 -20 -59 -14 -120 5
-67 10 -80 56 -148 28 -41 61 -81 73 -89 12 -8 60 -24 107 -36 100 -26 157
-18 232 29 42 27 48 37 91 145 26 64 47 131 47 149 0 34 -37 119 -67 152 -43
48 -112 95 -153 104 -84 20 -150 14 -206 -18z m226 -159 c14 -11 31 -36 38
-58 11 -33 11 -49 -3 -104 l-16 -66 -56 -19 c-97 -33 -162 -13 -195 62 -31 71
-21 127 32 176 l42 40 66 -7 c41 -3 76 -13 92 -24z"/>
<path d="M5625 3730 c-67 -37 -139 -105 -169 -160 -27 -49 -28 -58 -23 -132 5
-71 9 -85 46 -141 62 -96 83 -111 188 -137 81 -19 99 -21 142 -10 27 6 69 24
93 39 40 25 47 37 91 147 26 66 47 129 47 140 0 56 -35 120 -97 182 -76 74
-92 82 -198 88 -69 5 -85 3 -120 -16z m165 -149 c82 -16 110 -80 81 -185 -16
-59 -18 -61 -66 -80 -59 -22 -96 -22 -147 0 -30 13 -40 26 -53 62 -8 25 -15
63 -15 85 0 33 7 46 44 83 47 48 66 52 156 35z"/>
<path d="M6078 3711 c-27 -24 -33 -36 -33 -70 0 -39 6 -47 123 -164 67 -67
122 -129 122 -137 0 -9 25 -40 56 -70 203 -200 350 -458 410 -720 20 -86 24
-133 24 -261 0 -183 -16 -289 -66 -439 -59 -175 -120 -280 -281 -475 -79 -95
-142 -177 -142 -182 1 -4 32 -37 70 -72 l69 -65 61 60 c252 247 426 563 485
879 29 154 27 445 -4 584 -58 257 -169 485 -337 691 -29 36 -142 156 -252 268
-188 193 -200 203 -235 202 -27 0 -47 -8 -70 -29z"/>
<path d="M3447 2958 l-4 -513 -46 -241 -46 -241 -102 -212 -102 -211 -99 0
-98 0 0 -335 0 -335 140 0 140 0 0 200 0 200 728 -2 727 -3 3 -192 2 -193 130
0 130 0 0 330 0 330 -115 0 -115 0 0 965 0 965 -634 0 -635 0 -4 -512z m993
-593 l0 -825 -490 0 c-269 0 -490 3 -490 6 0 3 21 43 46 88 42 73 56 117 142
446 l95 365 4 373 5 372 344 0 344 0 0 -825z"/>
<path d="M469 3303 c-215 -223 -354 -465 -425 -741 -36 -137 -52 -391 -36
-550 36 -353 187 -657 479 -961 l81 -85 74 69 c40 38 74 72 76 77 2 4 -47 62
-108 129 -178 194 -287 376 -344 570 -40 139 -49 232 -43 433 4 152 9 196 30
271 67 240 187 442 381 643 l90 93 -74 74 c-41 41 -77 75 -81 75 -3 0 -48 -44
-100 -97z"/>
<path d="M940 1360 l0 -150 50 0 c28 0 50 -3 50 -7 0 -5 -20 -60 -44 -123 -68
-180 -70 -160 21 -159 l78 0 78 162 77 162 0 133 0 132 -155 0 -155 0 0 -150z"/>
<path d="M1530 1360 l0 -150 50 0 c28 0 50 -4 50 -9 0 -5 -22 -68 -50 -141
-27 -73 -50 -134 -50 -136 0 -2 35 -4 78 -4 l77 0 78 163 77 162 0 133 0 132
-155 0 -155 0 0 -150z"/>
</g>
</svg>
