<svg xmlns:xlink="http://www.w3.org/1999/xlink" height="57.25" width="47.45" xmlns="http://www.w3.org/2000/svg"><use height="57.25" width="47.45" xlink:href="#shape0"/><defs><g id="shape0"><path d="M62.3-60.5q1.05-.9.7 2.4-.3 3.15-2.75 5.45l-4.1 32.85m-36.8-33.35q-2.75-2.7-2.7-5.95.05-3.3 2.55-5.2 2.5-1.95 3.45-1.9" fill="none" stroke="#737373" stroke-linecap="round" stroke-linejoin="round" transform="translate(-16.15 68.3)"/><path d="M56.15-19.8q-.85 4.95-5.7 6.5-4.85 1.5-6.9 1.6l-3.7.15-5.4-.4q-3.8-.55-6.25-2.1-2.5-1.55-3.7-2.85-1.2-1.35-1.1-1.8l.05-.5-4.1-33.95" fill="none" stroke="#737373" stroke-linecap="round" stroke-linejoin="round" transform="translate(-16.15 68.3)"/><path d="M59.65-53.6l-.4 3.25-.1.7-.5 3.6-.45 3.75-1.95 15.1-.05.35-1.4-2.75 2.2-5.35.1-.15q-1.55-1.95-2.5-4.05.95 2.1 2.5 4.05l-.1.15-2.2 5.35 1.4 2.75-.7 5.8-.45 1-.15.2-.1.2q-.85 1.25-2.45 2.3l-1.05.6-.2.15-1.75.75-1.05.4-1.05.3-3.1.6-.35.05-1.1.1-2.5.1h-1.55l-.9-.05-1.1-.1L35-14.7l-1.5-.3-.9-.2-1.95-.65-1-.4-.7-.35-1.1-.6-.95-.65-.3-.25-.85-.9-.85-1.15q-.3-.55-.75.7l-1.6-14.65v-.2l-.45-3.6-.45-4.05-1-9.2L20.4-53l-.05-.6q.7.6 1.6 1.15l2.15 1.2 1.2.55.65 1.65-1.4 2.45-1.1 1.85-1.55-3.75-.95-1.95-.05-.15 1.05-1.85-1.05 1.85.05.15.95 1.95 1.55 3.75 1.1-1.85 1.4-2.45-.65-1.65 1.4.55q1.6.6 3.35 1.05l1.45.3 3.05.5 1.8.15 2.7.15H40l1.75-.05 1.7-.1h.35l2.4-.25 2.2-.35 2.55-.6 2.25-.75 2.5-1.05.2-.1 1.95-1.05 1.8-1.3m-.4 3.25l-1.4-1.95 1.4 1.95M20.9-50.6l-.2-.45.2.45m-.2-.45l.15 1.5-.15-1.5-.05-.1.05.1-.3-1.95.3 1.95m20.8 3.7l-1.2 2L39.05-48l1.25 2.65 1.2-2m-6.05 1.15q.6-.65.9-1.95-.3 1.3-.9 1.95l1.6 2.95 1.1 2.2 1.25-2.1.9-2.2-.9 2.2-1.25 2.1-1.1-2.2-1.6-2.95-1.4 2.65-.85 1.15-.65-1.4-1.85-3.8 1.85 3.8.65 1.4.85-1.15 1.4-2.65-.9-2.1.9 2.1m9.65.75l-1.05 2.1-1.2 2.3-1.35-2.15-1.2-2.15 1.2 2.15 1.35 2.15 1.2-2.3 1.05-2.1-1.65-2.7 1.65 2.7 1.1 1.85 1.35 2-1.35-2-1.1-1.85 1.1-2.95-1.1 2.95M30.7-47.6q.65-.45.8-1.2-.15.75-.8 1.2l-1.65 2.9-.7 1.05.7-1.05 1.65-2.9-.65-1.5.65 1.5m2.85 14.65l-2.7-5.45 1.45-2.45-1.45 2.45 2.7 5.45 2.25-4.15-2.25 4.15q-1.35 2.2-2.45 4.8L28.3-34l2.55-4.4L28.3-34l2.8 5.85q1.1-2.6 2.45-4.8l2.55 5 2.2-4.4-2.2 4.4-2.55-5m.5-7.6l1.75 3.45-1.75-3.45-1.75-.3-2.95-.75 2.95.75 1.75.3 3.75.35-3.75-.35-.85-1.85-.9 1.55.9-1.55.85 1.85m-3.2 2.15l-1.5-3.2 1.5 3.2m6.95-1.8q-.9 1.7-2 3.1l2.5 4.75-2.5-4.75q1.1-1.4 2-3.1h.85-.85l.35-.85.5.85 1.35.05 1.65-.05-1.65.05-1.35-.05-.5-.85-.35.85m4.55 0h-.7.7l.5-.85.4.8-.4-.8-.5.85q-1.15 1.8-1.85 3.6.85 2.3 2.3 4.25-1.45-1.95-2.3-4.25.7-1.8 1.85-3.6l.9-.05 3.8-.5-3.8.5-.9.05m5.2-1.4l-.5.85.5-.85.3.7-.3-.7 1.15-2.5 1.25-2.55-1.25 2.55-1.15 2.5M26.7-50.15q-.2.6-.75 1.1l1.8 3.9.6 1.5-.75 1.45.75-1.45-.6-1.5-1.8-3.9q.55-.5.75-1.1m2.65 8.55l-1-2.05 1 2.05-1.75-.6 1.75.6m1.75 13.45l-2.3 4.8q-1.5-2.95-2.75-6.3L28.3-34l-2.45-5.4 1.75-2.8-1.75 2.8L28.3-34l-2.25 4.35q1.25 3.35 2.75 6.3l2.3-4.8 2.5 5.5-2.5-5.5m5 .2q-1.05 2.75-2.5 5.3 1.45-2.55 2.5-5.3l2.55 5-2.55-5m4.45.05q-.55 2.75-1.9 4.95 1.35-2.2 1.9-4.95-.8-2.25-2.25-4.45 1.45 2.2 2.25 4.45l2.8 5-2.8-5 2.25-4.45-2.25 4.45m-.05-8.7q-.9 2.3-2.2 4.25 1.3-1.95 2.2-4.25l-1.85-3.6 1.85 3.6m-17.25-7.8l-1.9-1.65 1.9 1.65.2-.35.35.7-.55-.35.55.35-.35-.7-.2.35-1.5 2.35 1.5-2.35m4.35 2.2l-2.05-.9-1.75-.95 1.75.95 2.05.9m11.05 19.25l-2.5 5.6-2.55-5.3-2.25 5.05q-1.05-2.95-2.55-5.75l-2.1 5-2.65-6.1-.15-.35.1-.15 2.05-4.7-2.55-5.6 2.35-4.15-2.05-4.65 2.05 4.65-2.35 4.15 2.55 5.6-2.05 4.7-.1.15.15.35 2.65 6.1 2.1-5q1.5 2.8 2.55 5.75l2.25-5.05 2.55 5.3 2.5-5.6q1.5 2.55 2.4 5.3-.9-2.75-2.4-5.3m4.7.05l-2.3 5.25 2.3-5.25 2.4 4.8-2.4-4.8 2.15-5.05-2.7-4.4q1.05-2.25 2.45-4.65 1 2.1 2.45 4.05-1.45-1.95-2.45-4.05-1.4 2.4-2.45 4.65l2.7 4.4 2.2-5 2.2-4.7 2.4 3.8q.95-2.65 2.3-5.3-1.15-1.6-1.95-3.15.8 1.55 1.95 3.15L57-44.4l1.2 2.1-1.2-2.1-2.4 5.25q-1.35 2.65-2.3 5.3l-2.4-3.8-2.2 4.7-2.2 5-2.15 5.05m1.9-14.1q-1.15-1.6-2-3.25.85 1.65 2 3.25l1.8-3.75-1.8 3.75m2.6-3.9l-.8.15.8-.15q.85 1.75 2.05 3.25.8-2.15 2-4.35l.75-.3-.3-.55 1.15-2.8 1.15-2.45.9 1.45 1.35 2.1.15-.1-.05.25-.1-.15.1.15.05-.25-.15.1-1.35-2.1-.9-1.45-1.15 2.45-1.15 2.8.3.55-.75.3.45-.85-.45.85q-1.2 2.2-2 4.35-1.2-1.5-2.05-3.25L51.9-42l-4.05 1.1m.55-7.85l1.55 2.1-1.55-2.1M22.55-34.3l-.35-3.4 1.3 2.45-.95 1.15.95-1.15-1.3-2.45.35 3.4m-1.7-15.25l.5 3.5.4 4 .45 4.35-.1-.2.1.2-.45-4.35-.1.1.1-.1-.4-4-.5-3.5m10.5 31.95l-.7 1.75.7-1.75 1.25 2.4-1.25-2.4m4.8.25l1.6 3-1.6-3Q35.75-16 35-14.7q.75-1.3 1.15-2.65m-9.55-.75l.1-.25-.1.25m.1-.25l.2.5-.2-.5m31.95-27.7l-1.6 1.4 1.6-1.4m.5-3.6l-.1.25q-1.15 2.4-2 4.75.85-2.35 2-4.75l.1-.25m-2.25 5.1l-2.45 1.45-1.8.8 1.8-.8 2.45-1.45m-6.95-2.1L51-44.7l1.35 1.85L51-44.7l-1.05-1.95 1-2.7-1 2.7m2.85 22.5l2-5.45-2.5-4.25-2.2 4.95-2.4-4.05 2.4 4.05 2.2-4.95 2.5 4.25-2 5.45 2.1 4.3-2.1-4.3q-1.35-2.1-2.7-4.75l-2.25 5.45q-1.3-2.05-2.35-4.5 1.05 2.45 2.35 4.5l2.25-5.45q1.35 2.65 2.7 4.75l-2.3 5.75.8 1.65-.8-1.65 2.3-5.75M42.7-14.4l-1.65-3.25 1.65 3.25m4.55-.75l-1.5-2.95 1.5 2.95m3.25-3.25l-1.15 2.55 1.15-2.55-2.65-5.05 2.65 5.05m-4.75.3l2.1-5.35-2.1 5.35-1.6 3.55 1.6-3.55m-4.7.45l-1.4 3.35 1.4-3.35M53.2-50.1l1.45 2 1.05-3.05-1.05 3.05-1.45-2" fill="#a9a9a9" fill-rule="evenodd" transform="translate(-16.15 68.3)"/><path d="M60.45-59.5l-.1-1h1.95l.2 1.5v.05l-.1.95q-.4 2.4-2.75 4.4l-1.8 1.3-1.95 1.05-.2.1-2.5 1.05-2.25.75-2.55.6-2.2.35-2.4.25h-.35l-1.7.1-3.65-2.5q-5.25-.2-9.45-1.45-1.65-.5-3.1-1.15l-1.8-.9q-4.2-2.35-4.2-5.45 0-1.1.5-2.05l.2-.4 1.75-3.7.8-2.05.05-.1 3.05 3 4.4 1.25 5.3-1.55-2 3.7 2 2.45 4.85-1.4-5.85 5.8 5 4.05h.4l1.25-.05q7.65-.15 13.2-2.6l3.65-2.1q2.35-1.95 2.35-4.25M18.9-63q1.1-1.45 3.1-2.65l-1.75 3.7-.2.4L18.9-63M46-52.75L44.45-54l2.75-1.15-1.2 2.4m-15.85-4v-2l-1.8-.15 1.8 2.15m7.95 6.2l1.5.05-1.5-.05" fill="#d2d2d2" fill-rule="evenodd" transform="translate(-16.15 68.3)"/><path d="M35.6-65.1l5.25 2.3 3.85-3.4 4.9 3.15h4.85l3.4 3.4 2.6.15q0 2.3-2.35 4.25l-3.65 2.1q-5.55 2.45-13.2 2.6L40-50.5h-.4l-5-4.05 5.85-5.8-4.85 1.4-2-2.45 2-3.7M46-52.75l1.2-2.4L44.45-54 46-52.75" fill="#939393" fill-rule="evenodd" transform="translate(-16.15 68.3)"/><path d="M55.3-19.6l-.05.4v.05l-.75 1.7q-.85 1.15-2.4 2.1l-1.25.7q-1.3.6-2.75 1.05l-4.4.9-3.7.2h-1.35l-5.05-.65q-2-.45-3.75-1.2l-.7-.3q-.55-.3-1-.55l-2.1-1.65q-1.1-1.15-1.9-2.6.45-1.25.75-.7l.85 1.15.85.9.3.25.95.65 1.1.6.7.35 1 .4 1.95.65.9.2 1.5.3 1.65.25 1.1.1.9.05h1.55l2.5-.1 1.1-.1.35-.05 3.1-.6 1.05-.3 1.05-.4 1.75-.75.2-.15 1.05-.6q1.6-1.05 2.45-2.3l.25.05h.25m-34.95-34l-1.3-1.35q-1.2-1.5-1.45-3.15l-.1-.9q0-2.15 1.4-4l1.15 1.45q-.5.95-.5 2.05 0 3.1 4.2 5.45l1.8.9q1.45.65 3.1 1.15 4.2 1.25 9.45 1.45l3.65 2.5L40-48h-.95l-2.7-.15-1.8-.15-3.05-.5-1.45-.3q-1.75-.45-3.35-1.05l-1.4-.55-1.2-.55-2.15-1.2q-.9-.55-1.6-1.15" fill="#fff" fill-rule="evenodd" transform="translate(-16.15 68.3)"/><path d="M59.25-50.35l.15.2-.25.5m-1.3-2.65l1.4 1.95m-14.15 4.9l-1.65-2.7m3.6 7.4l.5-.85m-2.45-3.85l1.1-2.95M45.25-37l1.8-3.75m.8-.15l-.3-.7m2.4-5.05l-1.55-2.1m8.65 4.1q.85-2.35 2-4.75l.1-.25m-2.25 5.1l.1.15.05-.25m-.15.1l-1.35-2.1-.9-1.45-1.15 2.45-1.15 2.8.3.55q.8 1.55 1.95 3.15L57-44.4l1.2 2.1m-6.3.3l.45-.85m-2.4-3.8l1-2.7m-3.1 8.45q.85 1.75 2.05 3.25.8-2.15 2-4.35m2.7 2.85q.95 2.1 2.5 4.05l-.1.15-2.2 5.35 1.4 2.75m-3.4 2.7l2.1 4.3m.15.25l-.15-.25m.8-31.3l-1.05 3.05-1.45-2" fill="none" stroke="#b0b0b0" stroke-linecap="round" stroke-linejoin="round" transform="translate(-16.15 68.3)"/><path d="M55.55-21.4l-.05.35m-.25 1.9l-.75 1.7q-.85 1.15-2.4 2.1l-1.25.7q-1.3.6-2.75 1.05l-4.4.9-3.7.2h-1.35l-5.05-.65q-2-.45-3.75-1.2l-.7-.3q-.55-.3-1-.55l-2.1-1.65q-1.1-1.15-1.9-2.6M39.05-48l1.25 2.65 1.2-2m-5.15-.8q-.3 1.3-.9 1.95l-.9-2.1m5.75 2.95l1.2 2.15 1.35 2.15 1.2-2.3 1.05-2.1M31.5-48.8q-.15.75-.8 1.2m1.6 6.75l-1.45 2.45 2.7 5.45m2.25-4.15l-1.75-3.45-.85-1.85-.9 1.55m-2.95-.75l1.5 3.2m7.45 6.05l-2.5-4.75q1.1-1.4 2-3.1l.35-.85.5.85m3.7 0l.5-.85.4.8q.85 1.65 2 3.25-1.4 2.4-2.45 4.65l2.7 4.4 2.2-5 2.2-4.7 2.4 3.8q.95-2.65 2.3-5.3m-7.05-2.45l-1.35-2-1.1-1.85m-16.75 1.8l1 2.05m1.75 13.45l2.5 5.5m2.5-5.3l2.55 5q1.5 2.55 2.4 5.3m-.5-10.25q-.8-2.25-2.25-4.45m2.2-4.25l-1.85-3.6m4.7 17.3l-2.8-5m2.25-4.45q-1.45-1.95-2.3-4.25.7-1.8 1.85-3.6m5.2-1.4l1.15-2.5 1.25-2.55m4.85 27q-.85 1.25-2.45 2.3l-1.05.6-.2.15-1.75.75-1.05.4-1.05.3-3.1.6-.35.05-1.1.1-2.5.1h-1.55l-.9-.05-1.1-.1L35-14.7l-1.5-.3-.9-.2-1.95-.65-1-.4-.7-.35-1.1-.6-.95-.65-.3-.25-.85-.9-.85-1.15q-.3-.55-.75.7m7.2 1.85l1.25 2.4m5.15.85l-1.6-3m-9.25-.5l-.2-.5m25.65-24.5L51-44.7l-1.05-1.95m-2.25 13.7Q46.25-34.9 45.25-37m2.45 4.05l2.4 4.05 2.2-4.95 2.5 4.25-2 5.45-2.3 5.75.8 1.65m3.6-3.1l.15-.2.45-1m-.6 1.2l-.1.2m-9.05 1.55l1.5 2.95m3.25-3.25l-2.65-5.05 2.25-5.45q1.35 2.65 2.7 4.75m-7.05 6.05l-2.4-4.8m2.15-5.05q1.05 2.45 2.35 4.5m-3.7 8.9l1.6-3.55" fill="none" stroke="#d2d2d2" stroke-linecap="round" stroke-linejoin="round" transform="translate(-16.15 68.3)"/><path d="M24.15-19.45l-1.6-14.65v-.2m-.6-18.15L20.9-50.6l.05.15.95 1.95 1.55 3.75 1.1-1.85 1.4-2.45-.65-1.65m-4.6-.35l.2.45m-.2-.45l-.05-.1m14.8 4.95l1.6 2.95 1.1 2.2 1.25-2.1.9-2.2m-9.6-2.25l1.85 3.8.65 1.4.85-1.15 1.4-2.65m-1.9 13.25l2.25-4.15m-4.95-1.3L28.3-34l2.8 5.85q1.1-2.6 2.45-4.8l2.55 5 2.2-4.4q1.3-1.95 2.2-4.25m-12.9-5.6l.75-1.45-.6-1.5-1.8-3.9q.55-.5.75-1.1m4 2.55l-1.65 2.9-.7 1.05m-.75 1.45l-1.75 2.8L28.3-34l-2.25 4.35q1.25 3.35 2.75 6.3l2.3-4.8m2.5 5.5q1.45-2.55 2.5-5.3m2.55 5q1.35-2.2 1.9-4.95l2.25-4.45M23.25-44.4l.2-.35.35.7 2.05 4.65-2.35 4.15 2.55 5.6-2.05 4.7-.1.15.15.35 2.65 6.1 2.1-5q1.5 2.8 2.55 5.75l2.25-5.05 2.55 5.3 2.5-5.6m2.4 5.3l2.3-5.25 2.15-5.05M22.1-37.9l.1.2-.45-4.35-.1.1m.1-.1l-.4-4-.5-3.5m2.4 5.15l-1.5 2.35m1.75 6.8l-.95 1.15m7.5-15l.65 1.5m-7.2 12.35l-1.3-2.45.35 3.4m8.1 18.45l.7-1.75m4.8.25Q35.75-16 35-14.7m-8.3-3.65l-.1.25m14.45.45l1.65 3.25m6.65-1.45l1.15-2.55m-2.65-5.05l-2.1 5.35m-6.1 3.8l1.4-3.35" fill="none" stroke="#fff" stroke-linecap="round" stroke-linejoin="round" transform="translate(-16.15 68.3)"/><path d="M35.6-65.1l5.25 2.3 3.85-3.4 4.9 3.15h4.85l3.4 3.4 2.6.15m1.85-1l.2 1.5v.05m-.1.95q-.4 2.4-2.75 4.4M18.9-63q1.1-1.45 3.1-2.65m.8-2.05l.05-.1m18.9 19.75l1.7-.1h.35l2.4-.25 2.2-.35 2.55-.6 2.25-.75 2.5-1.05.2-.1 1.95-1.05 1.8-1.3M38.1-50.55q-5.25-.2-9.45-1.45-1.65-.5-3.1-1.15l-1.8-.9q-4.2-2.35-4.2-5.45 0-1.1.5-2.05m42.45 2.6l-.1.95M22-65.65l.8-2.05m.05-.1l3.05 3 4.4 1.25 5.3-1.55-2 3.7 2 2.45 4.85-1.4-5.85 5.8 5 4.05M20.05-61.55l.2-.4 1.75-3.7m8.15 8.9v-2l-1.8-.15 1.8 2.15m3.9 16.2l-1.75-.3-2.95-.75-1.75-.6m10.2 2l-3.75-.35m4.6.35l1.35.05 1.65-.05m-3 0h-.85m-16.45-5.85l1.9 1.65.55.35 1.75.95 2.05.9" fill="none" stroke="#a9a9a9" stroke-linecap="round" stroke-linejoin="round" transform="translate(-16.15 68.3)"/><path d="M60.45-59.5l-.1-1m-.7 6.9l-.4 3.25-.1.7-.5 3.6-.45 3.75-1.95 15.1-.7 5.8M39.6-50.5h.4l1.25-.05q7.65-.15 13.2-2.6l3.65-2.1q2.35-1.95 2.35-4.25m-20.85 9l-1.5-.05m3.55 10.35h.7l.9-.05 3.8-.5.8-.15m9.2-3.75l1.6-1.4m-1.75 1.5l.15-.1m-4.4 2.35l1.8-.8 2.45-1.45m-5 2.55l.75-.3m-.75.3l-4.05 1.1" fill="none" stroke="#898989" stroke-linecap="round" stroke-linejoin="round" transform="translate(-16.15 68.3)"/><path d="M20.4-53l-.05-.6-1.3-1.35q-1.2-1.5-1.45-3.15l-.1-.9q0-2.15 1.4-4m6.4 12.3l-1.2-.55-2.15-1.2q-.9-.55-1.6-1.15m.5 4.05l-.15-1.5-.3-1.95m6.3 2.85l-1.4-.55m16.45 2.65L40-48h-.95M26.7-50.15q1.6.6 3.35 1.05l1.45.3 3.05.5 1.8.15 2.7.15" fill="none" stroke="#ccc" stroke-linecap="round" stroke-linejoin="round" transform="translate(-16.15 68.3)"/><path d="M55.5-21.05l-.15 1.15-.05.3-.05.4v.05" fill="none" stroke="#666" stroke-linecap="round" stroke-linejoin="round" transform="translate(-16.15 68.3)"/><path d="M60.25-52.65q-4.9 2.85-9.75 4.1-4.9 1.2-11.05 1.05-6.2-.15-10.9-1.45-4.7-1.35-9.2-4.2" fill="none" stroke="#737373" stroke-linecap="round" stroke-linejoin="round" transform="translate(-16.15 68.3)"/></g></defs></svg>