<svg xmlns="http://www.w3.org/2000/svg" height="182" width="160" xml:space="preserve" style="fill-rule:evenodd;clip-rule:evenodd;stroke-linejoin:round;stroke-miterlimit:1.5">
    <path d="M56.323,85.554L56.637,84.739L52.83,78.704L51.392,74.144L52.765,67.622L56.9,61.975L58.346,59.621L65.674,43.994L66.868,42.736L75.444,60.104L87.264,59.931L95.329,43.313L96.41,42.295L104.937,60.325L107.757,61.717L109.74,63.367L111.993,67.475L112.963,71.158L112.83,77.475L108.852,83.883L106.017,84.847L102.675,87.731L110,95.627L112.089,102.045L107.282,107.005L101.81,106.098L105.729,107.419L107.621,109.731L109.521,114.546L109.164,120.531L105.851,123.17L104.174,123.386L61.582,123.386L53.095,123.898L50.449,122.91L48.382,118.686L52.847,113.635L52.335,109.932L53.22,105.982L52.244,103.738L51.679,97.548L58.516,85.195L55.917,84.833L106.017,84.847" style="fill:white;fill-opacity:0.99;fill-rule:nonzero;"/>
    <path d="M97.044,67.205L95.295,67.205L97.935,62.975L100.774,62.975L97.044,67.205Z" style="fill-opacity:0.99;fill-rule:nonzero;"/>
    <path d="M103.73,61.089L106.127,59.976L95.961,38.086L86.216,59.076L76.413,59.081L66.708,38.128L56.73,59.778L59.1,60.95L66.694,43.916L74.562,61.176L88.174,60.964L95.954,43.764L103.73,61.089ZM107.761,61.179L110.923,64.819L112.713,67.866L113.586,70.504L113.758,72.294L113.805,75.074L113.392,77.482C113.392,77.482 112.802,79.129 112.422,79.917C112.129,80.527 111.794,81.116 111.42,81.679C110.745,82.695 109.97,83.645 109.187,84.581C108.725,85.131 107.735,86.174 107.735,86.174L106.017,84.847L108.217,82.617L109.777,80.557L110.932,78.246L111.525,76.156L111.739,73.909L111.553,71.162L110.775,68.462L109.745,66.668L108.373,64.986L106.006,62.474L107.761,61.179ZM56.723,86.386L58.516,85.196L56.009,82.454L54.135,79.484L53.395,77.397L53.057,75.696L52.989,73.51L53.122,70.938L53.632,68.724L54.802,66.461L56.092,64.862L57.472,63.173L58.609,62.048L56.973,60.724L55.571,62.257L53.948,64.145L52.845,65.955L51.605,68.605L50.888,71L50.769,72.843L50.749,74.865L50.882,76.288L51.602,78.816L52.462,80.758L53.82,82.821C53.82,82.821 54.835,84.201 55.378,84.861C55.816,85.377 56.264,85.886 56.722,86.385L56.723,86.386ZM59.25,88.121L57.163,86.532L55.352,88.251L53.782,89.904L52.612,91.438L51.664,93.362L51.234,95.36L50.906,96.838L50.746,98.994L50.488,101.584L50.643,102.834L51.3,103.76L52.244,103.738L52.236,101.354L52.688,98.759L53.06,96.799L53.763,94.789L54.337,93.209L55.332,91.662L56.896,89.916L59.25,88.121ZM104.076,108.817L105.729,107.419L108.063,109.676L109.164,110.988L109.79,112.07L110.243,113.426L110.641,115.293L110.68,116.742L110.48,118.888L110.012,120.293L109.052,122.01L107.788,123.523L106.158,124.983L105.601,125.46L104.174,124.137L105.947,122.623L107.327,121.017L108.187,119.417L108.662,118.004L108.717,116.586L108.631,114.479L108.124,113.028L106.789,111.013L105.495,109.835L104.076,108.817ZM50.543,105.005L51.311,110.775L52.12,114.263L49.79,115.799L48.11,117.781L47.317,119.655L47.237,121.649L47.507,122.775L48.557,124.202L50.619,125.265L53.867,125.493L62.262,125.439L62.648,122.866L56.531,123.325L54.013,123.379L51.186,122.923L50.136,122.116L49.602,120.919L49.707,119.342L50.352,118.157L51.576,116.784L53.029,115.882L56.653,114.274L56.267,112.324L54.199,113.289L53.419,110.246L53.136,107.567L53.22,104.986L50.543,105.005Z" style="fill-opacity:0.99;fill-rule:nonzero;"/>
    <path d="M102.445,86.143L106.301,90.079L108.473,92.381L110.579,94.816L112.22,97.25L112.953,98.935L113.288,101.03L112.992,103.213L112.135,104.945L110.499,106.455L108.689,107.313L106.519,107.874L104.543,107.704L101.873,106.567L98.938,104.319L97.243,102.509L98.947,100.735L100.387,102.84L101.713,104.134L103.433,105.068L105.369,105.535L107.272,105.503L109.066,104.694L110.108,103.715L111.042,102.092L111.275,100.547L110.752,98.591L109.658,96.844L107.65,94.434L105.186,91.984L103.22,90.316L101.626,88.961L100.802,88.189L102.445,86.143ZM87.006,110.286L84.354,111.455L79.848,113.43L76.473,115.147L74.862,116.593L73.539,118.703L73.127,120.38L73.302,122.183L74.395,123.903L76.024,124.787L78.449,125.185L80.818,125.407L87.874,125.384L88.224,122.701L85.045,122.99L80.607,123.2L78.267,123.069L76.811,122.651L76.061,122.064L75.487,121.161L75.434,120.001L75.854,118.548L76.979,117.292L78.279,116.388L80.065,115.395L81.961,114.605L84.32,113.656L86.334,112.994L88.691,112.181L87.006,110.286Z" style="fill-opacity:0.99;fill-rule:nonzero;"/>
    <g transform="matrix(-0.972457,0.233084,0.233084,0.972457,134.665,-19.5461)">
        <path d="M44.558,92.57L50.701,105.786" style="fill:none;stroke:rgb(132,132,132);stroke-width:2px;"/>
    </g>
    <path d="M103.535 70.904c2.012.598 4.169.324 5.246-.469" stroke-width="3" id="gikopoipoi_eyes_closed" style="display:none;stroke-width:2.14607;stroke-dasharray:none" fill="none" stroke="#000" stroke-linecap="round" stroke-linejoin="round"/><circle cx="106.132" cy="70.22" r="2.118" opacity=".99" filter="url(#b)" id="gikopoipoi_eyes_open" style="display:inline"/></svg>