<svg xmlns="http://www.w3.org/2000/svg" height="182" width="160" xml:space="preserve" style="fill-rule:evenodd;clip-rule:evenodd;stroke-linejoin:round;stroke-miterlimit:1.5">
    <path d="M58.358,66.022L56.912,68.376L52.778,74.023L51.405,80.545L52.842,85.105L56.179,91.26L56.335,91.954L55.79,93.454L54.595,96.728L52.869,101.98L54.673,106.786L57.579,108.248L58.428,114.388L58.758,118.988L59.299,120.599L59.928,122.066L60.388,122.882L59.447,124.843L67.185,132.212L69.85,133.589L73.153,133.757L76.283,131.953L77.841,128.495L77.247,125.111L75.017,122.443L76.414,121.508L88.077,121.485L93.395,122.9L92.4,124L92.666,132.853L92.956,136.254L94.68,139.546L98.214,140.25L101.064,139.874L103.845,136.827L104.905,131.037L104.508,123.767L103.325,122.937L104.858,112.071L108.323,113.467L113.16,112.804L115.21,110.004L115.693,106.226L113.97,101.921L111.522,99.429L106.196,93.684L106.03,91.248L108.865,90.283L112.842,83.875L112.975,77.558L112.006,73.875L109.752,69.768L107.769,68.118L104.949,66.726L96.423,48.696L95.342,49.714L87.276,66.331L75.456,66.505L66.881,49.137L65.686,50.394L58.358,66.022Z" style="fill:white;fill-rule:nonzero;"/>
    <path d="M97.05,73.561L95.3,73.561L97.94,69.331L100.78,69.331L97.05,73.561ZM103.742,67.49L106.14,66.376L95.973,44.486L86.229,65.477L76.426,65.482L66.721,44.529L56.742,66.179L59.112,67.35L66.707,50.316L74.575,67.576L88.186,67.364L95.966,50.165L103.742,67.49ZM107.774,67.58L110.936,71.22L112.726,74.266L113.598,76.904L113.77,78.695L113.818,81.475L113.405,83.883C113.405,83.883 112.814,85.53 112.435,86.317C112.143,86.926 111.807,87.517 111.433,88.079C110.757,89.096 109.983,90.046 109.199,90.981C108.738,91.531 107.747,92.574 107.747,92.574L106.03,91.248L108.229,89.018L109.789,86.957L110.945,84.646L111.538,82.556L111.752,80.309L111.565,77.562L110.787,74.862L109.757,73.068L108.386,71.387L106.018,68.875L107.774,67.58ZM56.736,92.787L58.528,91.595L56.022,88.855L54.147,85.885L53.407,83.797L53.07,82.096L53,79.91L53.134,77.339L53.643,75.125L54.813,72.862L56.103,71.262L57.483,69.574L58.62,68.449L56.984,67.125L55.582,68.657L53.96,70.545L52.856,72.355L51.616,75.005L50.9,77.4L50.782,79.244L50.762,81.264L50.894,82.688L51.614,85.217L52.474,87.159L53.832,89.221C53.832,89.221 54.847,90.601 55.39,91.261C55.82,91.785 56.735,92.786 56.735,92.786L56.736,92.787ZM104.481,95.01L106.151,92.934L110.791,97.619L113.789,100.948L115.383,103.24L116.708,105.689L117.048,107.623L116.892,109.576L116.159,111.089L115.146,112.492L113.538,113.616L112.18,114.224L110.043,114.657L108.408,114.599L106.518,113.977L104.708,112.775L102.419,110.877L100.944,109.32L102.712,107.529L104.258,109.639L105.741,111.041L107.49,112.007L108.86,112.364L110.404,112.344L111.852,111.954L113.126,111.194L113.948,110.352L114.781,108.925L115.029,107.805L114.763,106.174L114.152,104.802L112.948,102.975L111.669,101.525L110.239,100.015L108.194,98.219L105.854,96.24L104.481,95.01ZM103.325,122.938L103.325,134.058L102.904,135.862L102.045,137.428L101.095,138.354L99.813,139.06L98.716,139.215L97.264,139.152L95.804,138.605L94.664,137.617L94.01,136.253L93.482,134.486L93.395,133.121L93.395,122.9L91.005,122.9L91.005,134.023L91.185,135.709L91.791,137.44L92.648,138.985L93.742,140.11L94.896,141.064L96.346,141.627L98.096,141.919L99.604,141.843L100.85,141.406L102.112,140.703L103.748,139.283L104.811,137.581L105.42,135.695L105.685,133.699L105.685,122.935L103.325,122.938ZM73.6,122.129L74.985,123.513L76.098,125.209L76.735,127.134L76.715,128.92L76.077,130.24L74.374,131.91L73.1,132.349L71.465,132.332L69.688,131.676L68.37,130.921L60.315,122.867L58.613,124.57L66.405,132.362L67.738,133.368L68.958,134.038L70.535,134.664L71.935,134.784L73.547,134.737L74.682,134.35L76.05,133.844L77.256,132.898L78.186,131.628L78.902,130.203L79.242,127.966L79.053,126.079L78.194,124.006L76.921,122.048L76.366,121.493L73.6,122.129Z" style="fill-rule:nonzero;"/>
    <g transform="matrix(-1,0,0,1,169.253,-6.46117)">
        <path d="M46.224,99.743L54.54,110.136" style="fill:none;stroke:rgb(132,132,132);stroke-width:2px;"/>
    </g>
    <circle cx="106.129" cy="76.682" r="2.118" opacity=".99" filter="url(#a)" id="gikopoipoi_eyes_open" style="display:inline"/><path d="M103.532 77.366c2.012.598 4.169.324 5.246-.469" stroke-width="3" id="gikopoipoi_eyes_closed" style="display:none;stroke-width:2.14607;stroke-dasharray:none" fill="none" stroke="#000" stroke-linecap="round" stroke-linejoin="round"/></svg>