<svg xmlns="http://www.w3.org/2000/svg" xmlns:xlink="http://www.w3.org/1999/xlink" height="100" width="49"><use height="100.3" transform="matrix(.605 0 0 .6044 0 38.952)" width="80.5" xlink:href="#sprite0"/><use height="117.15" transform="matrix(.5 0 0 .4995 3.851 -.013)" width="74.5" xlink:href="#sprite1"/><defs id="defs303"><linearGradient gradientTransform="matrix(-.0222 -.0016 .0017 -.0242 1.1 -29.8)" gradientUnits="userSpaceOnUse" id="gradient0" spreadMethod="pad" x1="-819.2" x2="819.2"><stop offset=".322" stop-color="#3b2611" id="stop60"/><stop offset="1" stop-color="#763e33" id="stop62"/></linearGradient><linearGradient gradientTransform="matrix(.0557 .0074 -.0028 .0211 15.35 34.35)" gradientUnits="userSpaceOnUse" id="gradient1" spreadMethod="pad" x1="-819.2" x2="819.2"><stop offset="0" stop-color="#262626" stop-opacity=".561" id="stop65"/><stop offset="1" stop-color="#fff" stop-opacity="0" id="stop67"/></linearGradient><linearGradient gradientTransform="matrix(.0742 .0098 -.0037 .0282 63 103.9)" gradientUnits="userSpaceOnUse" id="gradient2" spreadMethod="pad" x1="-819.2" x2="819.2"><stop offset="0" stop-color="#262626" stop-opacity=".561" id="stop164"/><stop offset="1" stop-color="#fff" stop-opacity="0" id="stop166"/></linearGradient><linearGradient gradientTransform="matrix(0 -.0357 .0234 -.0118 51.05 63.75)" gradientUnits="userSpaceOnUse" id="gradient3" spreadMethod="pad" x1="-819.2" x2="819.2"><stop offset="0" stop-color="#564432" id="stop169"/><stop offset="1" stop-color="#943a35" id="stop171"/></linearGradient><linearGradient gradientTransform="matrix(0 -.0635 .009 0 22.6 43.3)" gradientUnits="userSpaceOnUse" id="gradient4" spreadMethod="pad" x1="-819.2" x2="819.2"><stop offset="0" stop-color="#97672d" id="stop174"/><stop offset="1" stop-color="#342210" id="stop176"/></linearGradient><linearGradient gradientTransform="matrix(0 -.0113 .0104 -.0052 51.05 84.6)" gradientUnits="userSpaceOnUse" id="gradient5" spreadMethod="pad" x1="-819.2" x2="819.2"><stop offset="0" stop-color="#564432" id="stop179"/><stop offset="1" stop-color="#fff" id="stop181"/></linearGradient><linearGradient gradientTransform="matrix(.0035 .0061 -.0082 .0047 51.7 88.85)" gradientUnits="userSpaceOnUse" id="gradient6" spreadMethod="pad" x1="-819.2" x2="819.2"><stop offset="0" stop-color="#fff7d5" id="stop184"/><stop offset=".255" stop-color="#ffcd12" id="stop186"/><stop offset=".784" stop-color="#ac872d" id="stop188"/></linearGradient><linearGradient gradientTransform="matrix(-.0034 0 0 -.0034 55.7 36.1)" gradientUnits="userSpaceOnUse" id="gradient10" spreadMethod="pad" x1="-819.2" x2="819.2"><stop offset="0" stop-color="#fff7d5" id="stop206"/><stop offset=".255" stop-color="#ffcd12" id="stop208"/><stop offset=".784" stop-color="#ac872d" id="stop210"/></linearGradient><linearGradient gradientTransform="matrix(-.001 .0017 -.0312 -.0181 28.9 19.75)" gradientUnits="userSpaceOnUse" id="gradient11" spreadMethod="pad" x1="-819.2" x2="819.2"><stop offset="0" stop-color="#fff7d5" id="stop213"/><stop offset=".255" stop-color="#ffcd12" id="stop215"/><stop offset=".784" stop-color="#806322" id="stop217"/></linearGradient><linearGradient gradientTransform="matrix(-.0021 .0036 -.002 -.0012 4.4 4.25)" gradientUnits="userSpaceOnUse" id="gradient12" spreadMethod="pad" x1="-819.2" x2="819.2"><stop offset="0" stop-color="#fff7d5" id="stop220"/><stop offset=".255" stop-color="#ffcd12" id="stop222"/><stop offset=".784" stop-color="#806322" id="stop224"/></linearGradient><g id="sprite0" transform="translate(40.25 50.15)"><use height="100.3" transform="translate(-40.25 -50.15)" width="80.5" xlink:href="#shape0" id="use8" x="0" y="0"/></g><g id="shape0" transform="translate(40.25 50.15)"><path d="M40-29.9v3.65l-4 2-3.2 1.6-3.2 1.6-2.7 1.35-.15.1L3.2-7.85 0-6.25V-9.9l40-20M29.6-8.4l-1.5.75-1.55.8L3.4 4.7l-.2-.1V1.25L22.3-8.3l3.15-1.55 3.1-1.55 1.05-.55v.05l3.2-1.6v3.45L29.6-8.4m0-3.5l-1.05.5 1.05-.5" fill="#763e33" fill-rule="evenodd" stroke="none" id="path11"/><path d="M36-24.25V31.9l-3.2 1.6v-56.15l3.2-1.6M3.2 4.8v43.5L0 49.9V-6.25l3.2-1.6V4.8M-29.55-8.15V31.9l-3.2 1.6V-9.75l3.2 1.6m0-12.85v6.05l-3.15 1.6 3.15-1.6v3.15l-3.15-1.55h-.05v-9.25l3.2 1.6" fill="#422b20" fill-rule="evenodd" stroke="none" id="path13"/><path d="M32.8 33.5l-3.25-1.6.05-40.3 3.2-1.65V33.5M0 49.9l-3.25-1.6.05-43.5V1.25 4.6l-.2.1-2.35-1.15-.55-.25-1.55-.8h-.05l-.1.05-4.6-2.3h-.05l-2.7-1.4-.95-.45-11.1-5.5-2.15-1.05-3.2-1.6V33.5l-.6-.3-.35-.15-2.3-1.15v-56.1l3.25 1.6-3.25-1.6v-.05l-.65-.3-3.35-1.7v-3.65l40 20v59.8m29.6-70.95l3.2-1.6v9.15l-3.2-1.55v-6m0 9.1l3.15-1.55h.05l-3.2 1.6v-.05m-58.5-8.7l-.65-.35-3.2-1.6v9.25h.05l3.15 1.55v.05l2.65 1.3 2.05 1 2 .95.45.2 19.2 9.55v-9.1L-25.15-18.8l-1.75-.9-2-.95M0-6.25l-3.2-1.6L0-6.25m-32.75-3.5v-3.6 3.6m17.4 8.6l7.5 3.65-7.5-3.65" fill="#1d120e" fill-rule="evenodd" stroke="none" id="path15"/><path d="M3.2-7.85L26.75-19.6l.15.1 2.7 1.3v3.15l3.2 1.55h-.05l-3.15 1.55-1.05.55-3.1 1.55L22.3-8.3 3.2 1.25v-9.1" fill="#472d27" fill-rule="evenodd" stroke="none" id="path17"/><path d="M26.75-19.6l.15-.1v.2l-.15-.1m-56.3 1.3l2.65-1.35v-.05l1.75.9L-3.2-7.85v9.1L-22.4-8.3l-.45-.2-4.05-2.1v.1l-2.65-1.3 2.65 1.3v.05l-2.65-1.3v-6.55m2.65-1.35l1.75.85-1.75-.85" fill="#3d2821" fill-rule="evenodd" stroke="none" id="path19"/><path d="M-40-29.9l40-20 40 20-40 20-40-20m40 18l36-18-36-18-36 18 36 18-36-18 36-18 36 18-36 18" fill="url(#gradient0)" fill-rule="evenodd" stroke="none" id="path21"/><path d="M-26.9-19.65l-2-1 2 .95v.05" fill="#5f2f29" fill-rule="evenodd" stroke="none" id="path23"/><path d="M40-29.9v3.65m-10.4 14.3l3.15-1.55h.05M3.2 1.25L22.3-8.3l3.15-1.55 3.1-1.55 1.05-.55m0 .05l3.2-1.6m-4.25 2.1l1.05-.5" fill="none" stroke="#996255" stroke-linecap="round" stroke-linejoin="round" stroke-width=".5" id="path25"/><path d="M40-26.25l-4 2M29.6-8.4l-1.5.75-1.55.8M3.4 4.7l-.2.1m-6.4 0l-.2-.1-2.35-1.15-.55-.25-1.55-.8-7.5-3.65-.95-.45-11.1-5.5-2.15-1.05m-3.8 41.35l-.35-.15M-36-24.2l-.65-.35-3.35-1.7m0-3.65l40-20 40 20M0-6.25l3.2-1.6L26.75-19.6l.15-.1 2.7-1.35 3.2-1.6 3.2-1.6M29.6-8.4l3.2-1.65M3.4 4.7l-.2-.1m-32.1-25.25l-.65-.35-3.2-1.6-3.25-1.6m9.1 4.55l-2-1 2 .95 1.75.9L-3.2-7.85 0-6.25M-25.15-18.8l-1.75-.85m-9.1-4.6l-.65-.3m3.9 14.8l3.2 1.6M-3.2 4.6l-.2.1" fill="none" stroke="#000" stroke-linecap="round" stroke-linejoin="round" stroke-width=".5" id="path27"/><path d="M0-9.9v3.65" fill="none" stroke="#6d5656" stroke-linecap="round" stroke-linejoin="round" stroke-width=".5" id="path29"/><path d="M-29.55-8.15V31.9M-40-26.25v-3.65m72.8 16.4l-3.2-1.55v-3.15l-2.7-1.3-.15-.1m6.05-3.05V33.5m-3.2-51.7v-2.85m0 9.1v.05M3.2 4.6v.2M-29.55-21v2.7l2.65-1.35m-2.65 4.7v-3.35M-36-24.2v-.05m3.25 1.65v9.25h.05l3.15-1.6m-3.2 1.6V33.5M-3.2 4.6v.2" fill="none" stroke="#652c2c" stroke-linecap="round" stroke-linejoin="round" stroke-width=".5" id="path31"/><path d="M40-29.9L0-9.9" fill="none" stroke="#bc9287" stroke-linecap="round" stroke-linejoin="round" stroke-width=".5" id="path33"/><path d="M0-11.9l-36-18 36-18 36 18-36 18" fill="none" stroke="#c96503" stroke-linecap="round" stroke-linejoin="round" stroke-opacity=".914" stroke-width="1.25" id="path35"/><path d="M36 31.9l-3.2 1.6-3.25-1.6M3.2 4.8v43.5m-6.45 0l.05-43.5m6.4-.2V-7.85m-26.05-.65l.45.2m19.2 9.55v-9.1m-23.7-2.6l-2.65-1.3m2.65 1.25l2.05 1.05M-3.2 1.25V4.6" fill="none" stroke="#434051" stroke-linecap="round" stroke-linejoin="round" stroke-width=".5" id="path37"/><path d="M3.2 48.3L0 49.9l-3.25-1.6m-26.3-16.4l-3.2 1.6-.6-.3m-.35-.15L-36 31.9" fill="none" stroke="#3a3759" stroke-linecap="round" stroke-linejoin="round" stroke-width=".5" id="path39"/><path d="M0-6.25V49.9" fill="none" stroke="#672110" stroke-linecap="round" stroke-linejoin="round" stroke-width=".5" id="path41"/><path d="M26.55-6.85L3.4 4.7" fill="none" stroke="#262626" stroke-linecap="round" stroke-linejoin="round" stroke-width=".5" id="path43"/><path d="M29.55 31.9l.05-40.3" fill="none" stroke="#44355b" stroke-linecap="round" stroke-linejoin="round" stroke-width=".5" id="path45"/><path d="M36-24.25V31.9" fill="none" stroke="#b59292" stroke-linecap="round" stroke-linejoin="round" stroke-width=".5" id="path47"/><path d="M-26.9-19.65v-.05" fill="none" stroke="#291212" stroke-linecap="round" stroke-linejoin="round" stroke-width=".5" id="path49"/><path d="M-29.55-11.8l2.65 1.3m4.5 2.2l19.2 9.55M-22.85-8.5l-2-.95-2.05-1m-2.65-1.3v-.05l-3.15-1.55" fill="none" stroke="#5c3434" stroke-linecap="round" stroke-linejoin="round" stroke-width=".5" id="path51"/><path d="M-36 31.9v-56.1" fill="none" stroke="#40345c" stroke-linecap="round" stroke-linejoin="round" stroke-width=".5" id="path53"/><path d="M0-9.9l-40-20" fill="none" stroke="#393454" stroke-linecap="round" stroke-linejoin="round" stroke-width=".5" id="path55"/><path d="M-3 14.4L32.2 32-3 49.6-38.2 32-3 14.4" fill="url(#gradient1)" fill-rule="evenodd" stroke="none" id="path57"/></g><g id="sprite1" transform="translate(.3 .05)"><use height="117.15" transform="translate(-.3 -.05)" width="74.5" xlink:href="#shape1" id="use70" x="0" y="0"/></g><g id="shape1" transform="translate(.3 .05)"><path d="M50.95 83.55l23.25 11.6q-21.9 11-43.85 21.95L7.1 105.45l2.3-1.15 31.2-15.6 7.5-3.75 2.85-1.4" fill="url(#gradient2)" fill-rule="evenodd" stroke="none" id="path73"/><path d="M38.9 69.15q1-2.9 3.85-3.75l.2.05q.15 9.6-.2 19.2-.05 1.15-.95 2.35-1.05 1.3-2.75 1.25l-.15-19.1M57.25 56.8l-.35 17.95q-.05 1.4-1.45 1.85-5.4 1.35-9.85 4.8-.35-.5-.35-1-.3-7 .15-14 .2-2.8 1.45-5.1 3.05-5.65 9.55-6.35l.85 1.85m2.05 9.9q.3-4.8 1.3-9.4.55-2.65 2.55-.6l-.25 19.65q-1.7 1.7-3.65.45-.25-5.1.05-10.1" fill="#857a50" fill-rule="evenodd" stroke="none" id="path75"/><path d="M66.45 96.25q0 .7-.95 1.2-1 .5-2.4.5-.6-.4-.6-1.35v-.2q.3-2.2 2.25-3.5l.25-.1.25-.1.95.1q1.7 1.6.25 3.45M55 102.05q0 .7-.95 1.2-1 .5-2.4.5l-.6-1.55q.05-.95.7-1.95.6-1.05 1.45-1.5l1.4-.25.3.15.35.5q.75 1.35-.25 2.9m-11.65 5.85q0 .7-.95 1.2l-2.4.5q-.5-.4-.6-1.15v-.4q0-1.5.75-2.55.7-1.05 1.75-1.05l.15-.05.6.05.85.55q-1.5.3-2.35 1.05-.9.75-.9 1.8 0-1.05.9-1.8.85-.75 2.35-1.05 1.05 1-.15 2.9m8.6-5.95q0-1.1.85-1.85t2.45-.95q-1.6.2-2.45.95-.85.75-.85 1.85m11.3-5.85q0-1.1.85-1.85.8-.8 1.95-.8-1.15 0-1.95.8-.85.75-.85 1.85" fill="#b38d2e" fill-rule="evenodd" stroke="none" id="path77"/><path d="M30.3 111.95l-.6-.3.3-.15.3.45M15.6 59.2l.7-1.35 1.5-1.05 12.6 6.05-2.2 2.4-12.6-6.05" fill="#97672d" fill-rule="evenodd" stroke="none" id="path79"/><path d="M33.6 112.8l-1.5-.7-1.7-49.25-12.6-6.05-1.5 1.05.1-4.15 15.8 7.65q-.45 1.1-.3 2.2l1.7 49.25" fill="#6b4033" fill-rule="evenodd" stroke="none" id="path81"/><path d="M51.3 33.7l2 1.2-.4 2.9q2.85 2 5.7.2v-1.6l10.15 5.1-.05.15q-9.5.3-17.95 4.8-9.25 4.95-16.8 12.25-1.2 1.2-1.75 2.65L16.4 53.7q.5-1.4 1.95-2.8 14.4-13.9 28.7-16.65l4.25-.55" fill="#a76150" fill-rule="evenodd" stroke="none" id="path83"/><path d="M70.2 43.15q.65 0 .95.65l.25 1.65-1.85 44.75q-.1 1.7-.95 3l1.6-48.95v-1.1M32.1 112.1l-1.75-.15h-.05l-.3-.45-.35-1.35-1.8-42.85q0-1.2.35-2.05l2.2-2.4 1.7 49.25" fill="#7c5025" fill-rule="evenodd" stroke="none" id="path85"/><path d="M50.15 93.35l-1.9-5.9 2.3 5.65-.4.25" fill="#000" fill-rule="evenodd" stroke="none" id="path87"/><path d="M69.3 41.75v.05h.05l.85 1.35v1.1L68.6 93.2l-.1 2q-1 .55-2.05 1.05 1.45-1.85-.25-3.45l-.95-.1-.25.1q-.5-2.95-2.95-.75-2.1 1.85-1.15 4.15l1.6.2v.2q0 .95.6 1.35l-8.1 4.1q1-1.55.25-2.9l-.35-.5-.3-.15-1.4.25-.3-1.35-.65-.4q-4.3 1.05-3.1 5.1l1 .4.9-.3.6 1.55-8.3 4.15q1.2-1.9.15-2.9l-.85-.55-.6-.05-.15.05v-.15l-.3-1.2q-2.8-1.1-4.05 2.45-.8 2.35 1.4 2.65l.45.25q.1.75.6 1.15l-6.4 3.2-1.7-49.25q-.15-1.1.3-2.2.55-1.45 1.75-2.65 7.55-7.3 16.8-12.25 8.45-4.5 17.95-4.8l.6.1m-30.4 27.4l.15 19.1q1.7.05 2.75-1.25.9-1.2.95-2.35.35-9.6.2-19.2l-.2-.05q-2.85.85-3.85 3.75M57.25 56.8l-.85-1.85q-6.5.7-9.55 6.35-1.25 2.3-1.45 5.1-.45 7-.15 14 0 .5.35 1 4.45-3.45 9.85-4.8 1.4-.45 1.45-1.85l.35-17.95m2.05 9.9q-.3 5-.05 10.1 1.95 1.25 3.65-.45l.25-19.65q-2-2.05-2.55.6-1 4.6-1.3 9.4m-9.5 30.15q.85-.05-.15-.85l.15.85m-3.4-.55q7.1-1.4 9.8-7.5 1.95-4.45 3.15-9.25-6.55-1.4-11.85 3.4-3.05 2.75-4.75 6.25l3.65 7.1m5.2-.45l-.8-.45-.1 1.15.4-.2-.15-.8.7.6.05-1.15-.1.85m.85-.65l.05-.2q-.95-.45-.55.95l.7-.45-.55.25v-.45l.35-.1m12.85-6l.7-.45-.55.25v-.45q.8-.6-.05-.15l-.05-.2-.05 1m-.9.5l.25-.7-.2.35-.4-.3.35.65m-2.75.8l-.2-.35h-.35l-.35.35q-.15.3-.15.55l.15.35.35-.05.35-.3.2-.55m3.6 2.2q.05-2.7-2.4-1.55-1.05.55-1.85 1.5-1.4 1.8-.35 3.7.8.8 1.85.25-1.05.55-1.85-.25-1.05-1.9.35-3.7.8-.95 1.85-1.5 2.45-1.15 2.4 1.55m-1.1-2.95l-.35-.9-.05 1.1.4-.2m-22 10.4l.1.6.2-1.15-.3.55m-.65 1.05l-.1-.7-.3.9.4-.2m-1-.1l.35-.6-.6.25.3.95.4-1-.45.4m.9-.6l.35.65.05-.35-.4-.3m-2 7.55v.4l-.45-.25.4-.1.05-.05m2.65-3.65l-.15-.1.15.1m-4.3-2.2l.2.4-.35.2.15-.6m.2.8l.4-.2-.5-.9-.55 1.45.25-.5.4-.2v.35m.85-.4l-.35-.9-.05 1.1.4-.2m.25-.05l.25-.7-.2.35-.4-.3.35.65" fill="url(#gradient3)" fill-rule="evenodd" stroke="none" id="path89"/><path d="M29.7 111.65l-12.3-6.2-.35-1.35-1.8-42.85q0-1.2.35-2.05l12.6 6.05q-.35.85-.35 2.05l1.8 42.85.35 1.35-.3.15" fill="url(#gradient4)" fill-rule="evenodd" stroke="none" id="path91"/><path d="M50.55 93.1q5.05-1.85 6.4-7.3l1.1-3.5-.2-.85Q52 81.1 47.8 85q-2.7 2.5-2.6 6.15.1 2.25 1.95 3.5l3-1.3.4-.25m-4.15 3.2l-3.65-7.1q1.7-3.5 4.75-6.25 5.3-4.8 11.85-3.4-1.2 4.8-3.15 9.25-2.7 6.1-9.8 7.5" fill="url(#gradient5)" fill-rule="evenodd" stroke="none" id="path93"/><path d="M50.15 93.35l-3 1.3q-1.85-1.25-1.95-3.5-.1-3.65 2.6-6.15 4.2-3.9 10.05-3.55l.2.85-1.1 3.5q-1.35 5.45-6.4 7.3l-2.3-5.65 1.9 5.9" fill="url(#gradient6)" fill-rule="evenodd" stroke="none" id="path95"/><path d="M51.05 102.2l-.9.3-1-.4q-1.2-4.05 3.1-5.1l.65.4.3 1.35q-.85.45-1.45 1.5-.65 1-.7 1.95" fill="url(#gradient7)" fill-rule="evenodd" stroke="none" id="path97"/><path d="M65 92.8l-.25.1q-1.95 1.3-2.25 3.5l-1.6-.2q-.95-2.3 1.15-4.15 2.45-2.2 2.95.75" fill="url(#gradient8)" fill-rule="evenodd" stroke="none" id="path99"/><path d="M41.9 104.45q-1.05 0-1.75 1.05-.75 1.05-.75 2.55l-.05.05-.4.1q-2.2-.3-1.4-2.65 1.25-3.55 4.05-2.45l.3 1.2v.15" fill="url(#gradient9)" fill-rule="evenodd" stroke="none" id="path101"/><path d="M53.3 34.9l1-1.65.15.1.25.3 2.2.45q.9.45.9 1.1l.6-.3.2 1.5V38q-2.85 1.8-5.7-.2l.4-2.9" fill="url(#gradient10)" fill-rule="evenodd" stroke="none" id="path103"/><path d="M55.05 32.8l-.4.2-.35.25-1 1.65-2-1.2-1.95-1.15q1.25-.4 1.35-2.3-.1 1.9-1.35 2.3l-1.6-.9q1.35-.4 1.25-2.45.1 2.05-1.25 2.45L5.95 6.8 7.4 4.55 49 29.2l1.7 1.05 4.35 2.55" fill="url(#gradient11)" fill-rule="evenodd" stroke="none" id="path105"/><path d="M54.3 33.25l.35-.25.4-.2q1.4 0 2.4.65.95.6.95 1.45l-.6.3q0-.65-.9-1.1l-2.2-.45-.25-.3-.15-.1m.35-.25l-.2.35.2-.35" fill="#f6c514" fill-rule="evenodd" stroke="none" id="path107"/><path d="M7.4 4.55L5.95 6.8l-1.6 1.35-3.3-1.9q2.6-1.95 3.4-5.9l3.3 1.95q0 1.2-.35 2.25" fill="url(#gradient12)" fill-rule="evenodd" stroke="none" id="path109"/><path d="M1.05 6.25Q-.65 5 .25 2.85q1.3-3.2 4.2-2.5-.8 3.95-3.4 5.9" fill="#4b3d01" fill-rule="evenodd" stroke="none" id="path111"/><path d="M49.8 96.85l-.15-.85q1 .8.15.85m2.65-1.65l-.35.1v.45l.55-.25-.7.45q-.4-1.4.55-.95l-.05.2m-.85.65l.1-.85-.05 1.15-.7-.6.15.8-.4.2.1-1.15.8.45m10.05-5.35l-.2.55-.35.3-.35.05-.15-.35q0-.25.15-.55l.35-.35h.35l.2.35m2.75-.8l-.35-.65.4.3.2-.35-.25.7m.9-.5l.05-1 .05.2q.85-.45.05.15V89l.55-.25-.7.45m-1.15.55l-.4.2.05-1.1.35.9M41.4 100.5l.4.3-.05.35-.35-.65.1.7-.4.2.3-.9m-.9.6l.45-.4-.4 1-.3-.95.6-.25-.35.6m1.65-.95l.3-.55-.2 1.15-.1-.6m-3.1 2.4l-.35-.65.4.3.2-.35-.25.7m-.25.05l-.4.2.05-1.1.35.9m-.85.4v-.35l-.4.2-.25.5.55-1.45.5.9-.4.2m-.2-.8l-.15.6.35-.2-.2-.4" fill="#fff" fill-rule="evenodd" stroke="none" id="path113"/><path d="M49.35 32.55l1.95 1.15 2 1.2m15.45 6.6l.55.25v.05h.05m-.85 53.4q-1 .55-2.05 1.05 0 .7-.95 1.2-1 .5-2.4.5l-8.1 4.1q0 .7-.95 1.2-1 .5-2.4.5l-8.3 4.15q0 .7-.95 1.2l-2.4.5-6.4 3.2-1.5-.7m-1.75-.15h-.05l-.6-.3m18.05-80l1.6.9m19.35 9.1l.6.1M7.4 4.55L5.95 6.8l41.8 24.85M5.95 6.8l-1.6 1.35-3.3-1.9Q-.65 5 .25 2.85q1.3-3.2 4.2-2.5m3.3 1.95q0 1.2-.35 2.25m-6.35 1.7q2.6-1.95 3.4-5.9m34.45 68.8q1-2.9 3.85-3.75l.2.05q.15 9.6-.2 19.2-.05 1.15-.95 2.35-1.05 1.3-2.75 1.25l-.15-19.1M57.25 56.8l-.35 17.95q-.05 1.4-1.45 1.85-5.4 1.35-9.85 4.8-.35-.5-.35-1-.3-7 .15-14 .2-2.8 1.45-5.1 3.05-5.65 9.55-6.35l.85 1.85m2.05 9.9q-.3 5-.05 10.1 1.95 1.25 3.65-.45l.25-19.65q-2-2.05-2.55.6-1 4.6-1.3 9.4m-8.75 26.4q5.05-1.85 6.4-7.3l1.1-3.5-.2-.85Q52 81.1 47.8 85q-2.7 2.5-2.6 6.15.1 2.25 1.95 3.5l3-1.3-1.9-5.9 2.3 5.65-.4.25M46.4 96.3q7.1-1.4 9.8-7.5 1.95-4.45 3.15-9.25-6.55-1.4-11.85 3.4-3.05 2.75-4.75 6.25l3.65 7.1m6.8 2.45l-.3-1.35-.65-.4q-4.3 1.05-3.1 5.1l1 .4.9-.3q.05-.95.7-1.95.6-1.05 1.45-1.5l1.4-.25.3.15.35.5q.75 1.35-.25 2.9m10.25-9.35l.95.1q1.7 1.6.25 3.45m-1.2-3.55l-.25.1-.25.1q-1.95 1.3-2.25 3.5v.2q0 .95.6 1.35M65 92.8q-.5-2.95-2.95-.75-2.1 1.85-1.15 4.15l1.6.2m-11.45 5.8l.6 1.55M43.5 105l-.85-.55-.6-.05-.15.05q-1.05 0-1.75 1.05-.75 1.05-.75 2.55v.4q.1.75.6 1.15m-1.05-1.4q-2.2-.3-1.4-2.65 1.25-3.55 4.05-2.45l.3 1.2.15.1m1.3 3.5q1.2-1.9.15-2.9m-4.55 3.2l.45.25m-.05-.35l-.4.1" fill="none" stroke="#000" stroke-linecap="round" stroke-linejoin="round" stroke-width=".5" id="path115"/><path d="M69.35 41.8l.85 1.35" fill="none" stroke="#ff8c00" stroke-linecap="round" stroke-linejoin="round" stroke-width=".5" id="path117"/><path d="M32.2 61.35q.55-1.45 1.75-2.65 7.55-7.3 16.8-12.25 8.45-4.5 17.95-4.8" fill="none" stroke="#ff8c00" stroke-linecap="round" stroke-linejoin="round" stroke-width="1" id="path119"/><path d="M32.2 61.35q-.45 1.1-.3 2.2l1.7 49.25" fill="none" stroke="#a76150" stroke-linecap="round" stroke-linejoin="round" stroke-width=".5" id="path121"/><path d="M16.4 53.7l15.8 7.65" fill="none" stroke="#7b3d33" stroke-linecap="round" stroke-linejoin="round" stroke-width=".5" id="path123"/><path d="M70.2 43.15q.65 0 .95.65l.25 1.65-1.85 44.75q-.1 1.7-.95 3" fill="none" stroke="#4f3317" stroke-linecap="round" stroke-linejoin="round" stroke-width=".5" id="path125"/><path d="M30.4 62.85l1.7 49.25" fill="none" stroke="#271a0c" stroke-linecap="round" stroke-linejoin="round" stroke-width=".5" id="path127"/><path d="M32.1 112.1l-1.75-.15m-2.15-46.7q-.35.85-.35 2.05l1.8 42.85.35 1.35.3.45m-2.1-46.7l2.2-2.4" fill="none" stroke="#ca8c4f" stroke-linecap="round" stroke-linejoin="round" stroke-width=".5" id="path129"/><path d="M30.4 62.85L17.8 56.8" fill="none" stroke="#342210" stroke-linecap="round" stroke-linejoin="round" stroke-width=".5" id="path131"/><path d="M29.7 111.65l-12.3-6.2" fill="none" stroke="#2e1d0e" stroke-linecap="round" stroke-linejoin="round" stroke-width=".5" id="path133"/><path d="M58.6 36.4l10.15 5.1M16.3 57.85l.1-4.15q.5-1.4 1.95-2.8 14.4-13.9 28.7-16.65l4.25-.55" fill="none" stroke="#361816" stroke-linecap="round" stroke-linejoin="round" stroke-width=".5" id="path135"/><path d="M68.6 93.2l-.1 2m1.7-52.05v1.1L68.6 93.2" fill="none" stroke="#402321" stroke-linecap="round" stroke-linejoin="round" stroke-width=".5" id="path137"/><path d="M15.6 59.2l12.6 6.05" fill="none" stroke="#d8aa7c" stroke-linecap="round" stroke-linejoin="round" stroke-width=".5" id="path139"/><path d="M17.4 105.45l-.35-1.35-1.8-42.85q0-1.2.35-2.05l.7-1.35m1.5-1.05l-1.5 1.05" fill="none" stroke="#5d4642" stroke-linecap="round" stroke-linejoin="round" stroke-width=".5" id="path141"/><path d="M62.5 96.6q-1.05.55-1.85-.25-1.05-1.9.35-3.7.8-.95 1.85-1.5 2.45-1.15 2.4 1.55" fill="none" stroke="#fff" stroke-linecap="round" stroke-linejoin="round" stroke-width=".5" id="path143"/><path d="M66.05 93.45q-1.15 0-1.95.8-.85.75-.85 1.85m-8 3.05q-1.6.2-2.45.95-.85.75-.85 1.85M43.5 105q-1.5.3-2.35 1.05-.9.75-.9 1.8" fill="none" stroke="#dfc486" stroke-linecap="round" stroke-linejoin="round" stroke-width=".5" id="path145"/><path d="M54.3 33.25l.35-.25.4-.2q1.4 0 2.4.65.95.6.95 1.45l.2 1.5V38q-2.85 1.8-5.7-.2l.4-2.9 1-1.65" fill="none" stroke="#523903" stroke-linecap="round" stroke-linejoin="round" stroke-width=".5" id="path147"/><path d="M54.45 33.35l.2-.35" fill="none" stroke="#000" stroke-linecap="round" stroke-linejoin="round" stroke-width=".5" id="path149"/><path d="M57.8 35.2q0-.65-.9-1.1l-2.2-.45" fill="none" stroke="#fef7e7" stroke-linecap="round" stroke-linejoin="round" stroke-width=".5" id="path151"/><path d="M55.05 32.8l-4.35-2.55M7.4 4.55L49 29.2l1.7 1.05" fill="none" stroke="#6f6f6f" stroke-linecap="round" stroke-linejoin="round" stroke-width=".5" id="path153"/><path d="M50.7 30.25q-.1 1.9-1.35 2.3M49 29.2q.1 2.05-1.25 2.45M4.45.35l3.3 1.95" fill="none" stroke="#aeaeae" stroke-linecap="round" stroke-linejoin="round" stroke-width=".5" id="path155"/><path d="M40.3 67.9l.5-1.05.3.35q1.1 1.45.6-.6l-.25-.3 1.05-.4.2 2.2-.2.85-.65.1q-.65.4-.15 1 .4.45.8.4v3.15q-.5.35-.1.7l.1.1v6l-.05 4.2-.45 1-2.6 2.15V83.9l.5-.15q.65-.35.3-.9-.4-.45-.8-.15v-.85q2.55-.75.3-1.25l-.3.05v-6.6q3.65.45.35-1.75l-.35-.2v-2.25l.9-1.95m-.25 8.95h1.2v-2.1h-1.2v2.1m22.6-17.75v5.85l-.85.15q-.4.1-.4.25l.4.3.85.1v1.1L59.6 65.6v-1.45l2.25-3.95-2.25 2.3.05-2.75.95-3.05 2-.05.05.5v.8l-.05-.25q-2.5-.15.05 1.4m0 8.9v2l-3.05.9v-2.65q.55-.4.05-.8l-.05-.05v-.15l3.05.75m0 3.45v.6q-.6-.05-1.05.25-.45.25-.45.6t.45.65l1.05.25-.5 1.65-.1-.15q-2.15-.45-.55 1.1-1.3 1.35-1.9-1.3l1.4-.25.55-.6q0-.35-.55-.6l-1.4-.25v-.65l3.05-1.3M54.3 57.2l-.85-.1q-.65.35-.35.9.25.55.95.25l.3-.15q.3-.3.05-.75l-.1-.15m-2.6-.65l.15-.05.95.5q.8.15 1.5-.8l.3-.7 1.3-.2.25.95.5.4v1.1q-2.55-.25-.05.4l.05-.05v1.75l-.5.2q-.6.45-.3 1 .3.45.8.25v1.2q-2.1.15-.2 1.35l.2-.05v.65l-.65.1q-.7.35-.25 1.05.45.6.9.25v1.45l.2 2.4-4.05-1.75L55.3 70l1.85 1.25v1.05l-2.95 4.2q-1.5-2.1-2.1-.05l.05.25-1.25.4q-1.15-2.35-.8.3l.25.05-4.4 2.3-.05-.25-.45-2.15.3-.1q.55-.2.25-.7-.2-.4-.55-.3v-3.4q3.9-.05.3-.75-.15-.1-.3.1v-1.9l.7-.2.3-.5-.3-.5-.7-.2v-5.85l3.95-1.35-1.35-2.9 2.45-1.6 1.2-.65m3.25 2.3q-.3-.6-.9-.15-.65.5-.3.95l.95.1q.6-.35.25-.9M54.1 61q-.6.4-.2 1.05.4.65 1.05.3.65-.3.2-1.05-.4-.75-1.05-.3m-7.5-1q.3.5-.25.4l-.1.05.35-.45m-.9 1.5l.05.05h-.05v-.05m.3 3.45q-.5.25-.15.75l.05.1q.4.45 1 .2.65-.3.25-.85-.45-.6-1.05-.3l-.1.1m.95-.85q.35.55.8.3.5-.25.15-.75-.3-.5-.8-.3-.45.25-.15.75m1.8 3l6.4-1.55-5.5-1.9-.9 3.45m-8.15 3.3q-.6.35-.35 1.15.3.85.95.4.65-.45.35-1.15-.35-.7-.95-.4m8.7-2.15l-3.35-1.85 1.1 4h2.25v-2.15m-.15 2.45q-.7.6-.25 1.1.4.55 1.15.2.75-.4.25-1.15-.5-.75-1.15-.15m.85-1q.35.65 1.05.35.65-.35.4-1.15-.3-.85-1.05-.35T50 69.7m4.45-5.2q.45-.2.1-.65-.4-.45-.8-.2t-.1.65q.3.4.8.2m.85 5.5l-.05-.05h.05V70m-3.1 1.15q.3.6 1.05.35.7-.25.15-.95-.55-.7-1.05-.4-.5.35-.15 1m1.55.75l-3.2-.25q1.4 5.05 3.3.35l-.1-.1m.95 1.3q.5.6 1.2.3.75-.3.15-1-.55-.7-1.2-.35-.6.4-.15 1.05m-4.55-10.6h2.65v-1.25h-2.65v1.25m4.05 12.65q.45-.15.2-.55-.2-.35-.6-.15-.4.2-.2.55.15.35.6.15m-7.2-.6l2.45 1.55q-.15-5.5-2.7-1.7l.25.15m.85 1.6q-.55-.6-1.1-.1-.5.5-.1 1l1.05.1q.65-.45.15-1" fill="#857a50" fill-rule="evenodd" stroke="none" id="path157"/><path d="M38.4 71.15v-1.5l1 .2v1.2l-1 .1m2.4-4.3q.05-.3.35-.5l.3-.05.25.3-.6.6-.3-.35m2.25 4.5l.1.85-.65.2v-1.2l.55.15m.25 2.55l.05.2-.85.3-.1-.1q-.4-.35.1-.7l.8.3m.2 1.75v.8l-1 .3v-1.4l1 .3m0 8.65l-.95 2.3-.55-1 .45-1 1.05-.3m-1.6 3.1l-.4.35h-.15q-.3-1.65.55-.35m-3.5-14.15v-.55q0-.25.3-.4l.7-.2.35.2q3.3 2.2-.35 1.75l-.7-.25-.3-.55m1 7.4l.3-.05q2.25.5-.3 1.25v-1.2m0 2.05q.4-.3.8.15.35.55-.3.9l-.5.15v-1.2m3.1-2.3v-2.45l.45.4q1.2 1.45-.45 2.05m0-9.95q-.4.05-.8-.4-.5-.6.15-1l.65-.1v1.5m-2.45 6.4v-2.1h1.2v2.1h-1.2m22.6-18.9l.3.35q.35.65-.3.8-2.55-1.55-.05-1.4l.05.25m-.05-1.3l.1-.15q1.3.45-.05.65l-.05-.5m.05 8.3v.8l-.85-.1-.4-.3q0-.15.4-.25l.85-.15m0 1.9l.3.3q.35.65-.3.85l-3.05-.75V65.6l3.05 1.25m0 3.15l.3.3q.45.65-.3 1.15l-3.05 1.3V70.9l3.05-.9m0 2.05l.25.1q.9.9-.25 1.65l-1.05-.25q-.45-.3-.45-.65 0-.35.45-.6.45-.3 1.05-.25m-.5 3.4q.3.5-.2.8l-.35.15v-.15l-.1.15q-1.6-1.55.55-1.1l.1.15M58.6 68.3v-2.45l1 1.55.05.05q.5.4-.05.8l-1 .05m0-4.6l.1-.8.9-.4 2.25-2.3-2.25 3.95-1-.45m-4.3-6.5l.1.15q.25.45-.05.75l-.3.15q-.7.3-.95-.25-.3-.55.35-.9l.85.1m-2.6-.65l-1.2.65-.05-.1q-.1-1.75 1.25-.55m-3.65 2.25l1.35 2.9-3.95 1.35.25-1.5h.05l-.05-.05q-.15-.5.4-.95l.15-.1.1-.05q.55.1.25-.4l1.45-1.2m-2.6 10.1l.7.2.3.5-.3.5-.7.2-.2-.1q-.85-.85.2-1.3m0 3.3q.15-.2.3-.1 3.6.7-.3.75v-.65m0 4.05q.35-.1.55.3.3.5-.25.7l-.3.1-.3-.2.05-.75.25-.15m.45 3.25l.05.25q-.4.4-.25-.1l.2-.15m4.45-2.05l-.25-.05q-.35-2.65.8-.3l-.55.35m1.8-.75l-.05-.25q.6-2.05 2.1.05l-2.05.2m5-5.45L55.3 70l-2.5-2.05 4.05 1.75.55.05q.45.05.7.3l.2.55-.4.5-.75.15m-.5-3.95v-1l.75.2.25.3-.25.35-.75.15m0-1.45q-.45.35-.9-.25-.45-.7.25-1.05l.65-.1v1.4m0-2.05l-.2.05q-1.9-1.2.2-1.35v1.3m0-2.5q-.5.2-.8-.25-.3-.55.3-1l.5-.2.4.25q.8.65-.4 1.2m0-3.2l-.05.05q-2.5-.65.05-.4v.35m0-1.45l-.5-.4-.25-.95 1.6.55-.85.8M54.6 55.5l-.3.7-1.5.8-.95-.5 2.75-1m-.5 5.5q.65-.45 1.05.3.45.75-.2 1.05-.65.35-1.05-.3-.4-.65.2-1.05m.85-2.15q.35.55-.25.9l-.95-.1q-.35-.45.3-.95.6-.45.9.15M46.3 61.3l-.05.25.1.15q.3.4.7.2.4-.25.15-.6-.2-.4-.7-.2l-.2.2m2.45 5.8l.9-3.45 5.5 1.9-6.4 1.55m-1.8-3q-.3-.5.15-.75.5-.2.8.3.35.5-.15.75-.45.25-.8-.3m-.95.85l.1-.1q.6-.3 1.05.3.4.55-.25.85-.6.25-1-.2l-.05-.1q-.35-.5.15-.75m-5.4 5.45q.6-.3.95.4.3.7-.35 1.15-.65.45-.95-.4-.25-.8.35-1.15m9.4-.7q-.35-.65.4-1.15.75-.5 1.05.35.25.8-.4 1.15-.7.3-1.05-.35m-.85 1q.65-.6 1.15.15.5.75-.25 1.15-.75.35-1.15-.2-.45-.5.25-1.1m.15-2.45v2.15h-2.25l-1.1-4 3.35 1.85m5.4 4.95q-.45-.65.15-1.05.65-.35 1.2.35.6.7-.15 1-.7.3-1.2-.3m-.95-1.3l.1.1q-1.9 4.7-3.3-.35l3.2.25m-1.55-.75q-.35-.65.15-1 .5-.3 1.05.4t-.15.95q-.75.25-1.05-.35M55.3 70v-.05h-.05l.05.05m-.85-5.5q-.5.2-.8-.2-.3-.4.1-.65t.8.2q.35.45-.1.65m-4.3-1.9v-1.25h2.65v1.25h-2.65m4.05 12.65q-.45.2-.6-.15-.2-.35.2-.55.4-.2.6.15.25.4-.2.55m-6.35 1q.5.55-.15 1l-1.05-.1q-.4-.5.1-1 .55-.5 1.1.1m-.85-1.6l-.25-.15q2.55-3.8 2.7 1.7L47 74.65m2.45 4.8l-.15-.3q-.05-1.3.85-.35l-.7.65M59.6 73.4l1.4.25q.55.25.55.6l-.55.6-1.4.25v-1.7" fill="#000" fill-opacity=".333" fill-rule="evenodd" stroke="none" id="path159"/><path d="M38.4 69.65l1.9-1.75-.9 1.95-1-.2m4.3-1.55l.35 3.25-.55-.15v-2.25l.2-.85m.45 4.1l.15 1.7-.8-.3v-1.2l.65-.2m.2 1.9l.15 1.55-1-.3v-.95l.85-.3m.15 2.35v7.85l-1.05.3.05-4.2q1.65-.6.45-2.05l-.45-.4v-1.2l1-.3m-.95 10.15l-.65.8q-.85-1.3-.55.35h.15l-2.15-.05q-.95-7.25-.95-14.45l.3.55.7.25v13.7L42 85.6l.55 1M38.4 72.7v-1.55l1-.1v1.05l-.7.2q-.3.15-.3.4m24.25-13.6q.65-.15.3-.8l-.3-.35v-.8q1.35-.2.05-.65l-.1.15-2 .05.45-1.4 2.4.8-.8 8.55V59.1M61.6 76.4l-.15 1.4-2.65-.8-.2-8.7 1-.05v6.85q.6 2.65 1.9 1.3l.1-.15v.15m-3-10.55V63.7l1 .45v3.25l-1-1.55m.1-2.95l.95-3.15-.05 2.75-.9.4m-13.25 9.05v4.3l-.25.15.25-4.45m0 5.4l.45 2.15-.2.15q-.15.5.25.1l4.4-2.3.55-.35 1.25-.4 2.05-.2 2.95-4.2q0 2.7-2.05 4.6-2.05 1.9-4.95 1.9-.9-.95-.85.35l.15.3-4.1 2.1-.2-4.4.3.2m11.4-7.65l-.2-2.4.75-.15v2.6l-.55-.05m-.2-3.4v-5q1.2-.55.4-1.2l-.4-.25v-3.2l.85-.8-.1 10.65-.75-.2M54.3 56.2q-.7.95-1.5.8l1.5-.8m-8 5.1l.2-.2q.5-.2.7.2.25.35-.15.6-.4.2-.7-.2l-.1-.15.05-.25m-4.6 5.3q.5 2.05-.6.6l.6-.6m12.15 16.85l-.2 1.1-.5.45q-.3 0-.5-.45l-.2-1.1.2-1.1q.2-.45.5-.45l.5.45.2 1.1m-2.75-.75l.35.45.15 1.05-.15 1.05-.35.45-.35-.45q-.15-.45-.15-1.05 0-.6.15-1.05.15-.45.35-.45m4.6 1.8l-.1-.15q2.8-4.15.1.15m-8.45 1.55l.6.35.25.75-.25.8q-.25.3-.6.3t-.6-.3l-.25-.8q0-.45.25-.75.25-.35.6-.35m2.35.4l-.5.4q-.3 0-.5-.4l-.2-.95.2-.95q.2-.4.5-.4t.5.4l.2.95-.2.95m-3.55 3l-.2.75q-.25.3-.6.3t-.55-.3q-.25-.3-.25-.75t.25-.75q.2-.3.55-.3.35 0 .6.3l.2.75" fill="#000" fill-rule="evenodd" stroke="none" id="path161"/></g><radialGradient cx="0" cy="0" gradientTransform="matrix(.0041 .0023 -.0036 .0063 51.45 100.1)" gradientUnits="userSpaceOnUse" id="gradient7" r="819.2" spreadMethod="pad"><stop offset=".255" stop-color="#342210" id="stop191"/><stop offset=".325" stop-color="#ac872d" id="stop193"/></radialGradient><radialGradient cx="0" cy="0" gradientTransform="matrix(.0036 .0021 -.0033 .0058 63 94.1)" gradientUnits="userSpaceOnUse" id="gradient8" r="819.2" spreadMethod="pad"><stop offset=".255" stop-color="#342210" id="stop196"/><stop offset=".325" stop-color="#ac872d" id="stop198"/></radialGradient><radialGradient cx="0" cy="0" gradientTransform="matrix(.0038 .0022 -.0033 .0056 40 105.65)" gradientUnits="userSpaceOnUse" id="gradient9" r="819.2" spreadMethod="pad"><stop offset=".255" stop-color="#342210" id="stop201"/><stop offset=".325" stop-color="#ac872d" id="stop203"/></radialGradient></defs></svg>