<svg xmlns:xlink="http://www.w3.org/1999/xlink" height="88.5" width="125.8" xmlns="http://www.w3.org/2000/svg"><use height="88.5" width="125.8" xlink:href="#shape0"/><defs><radialGradient cx="0" cy="0" gradientTransform="translate(.15 19.95) scale(.0842)" gradientUnits="userSpaceOnUse" id="gradient1" r="819.2" spreadMethod="pad"><stop offset="0" stop-color="#9c9ca9"/><stop offset="1" stop-color="#6d6d7c"/></radialGradient><radialGradient cx="0" cy="0" gradientTransform="translate(-39.75 11.3) scale(.1278)" gradientUnits="userSpaceOnUse" id="gradient3" r="819.2" spreadMethod="pad"><stop offset="0" stop-color="#9c9ca9"/><stop offset="1" stop-color="#6d6d7c"/></radialGradient><linearGradient gradientTransform="matrix(0 .0189 -.0685 0 0 -15.45)" gradientUnits="userSpaceOnUse" id="gradient0" spreadMethod="pad" x1="-819.2" x2="819.2"><stop offset="0" stop-color="#393946"/><stop offset="1" stop-color="#4d4d5e"/></linearGradient><linearGradient gradientTransform="matrix(.0762 0 0 .0296 0 -2.05)" gradientUnits="userSpaceOnUse" id="gradient2" spreadMethod="pad" x1="-819.2" x2="819.2"><stop offset="0" stop-color="#9c9ca9"/><stop offset="1" stop-color="#6d6d7c"/></linearGradient><g id="shape0"><path d="M-57.5 1.95q4.5 5.9 13.8 10.75 18.15 9.5 43.7 9.5 25.5 0 43.65-9.5 9.3-4.85 13.85-10.75Q60-.85 61.25-3.9 57 12.3 48.85 25.25l-.2.35q-3 6.4-13.4 11.35Q20.65 44 0 44q-20.7 0-35.3-7.05-7.25-3.45-10.9-7.6-1.6-1.9-2.45-3.85-8.4-13.1-12.65-29.6 1.2 3.15 3.8 6.05" fill="#565669" fill-rule="evenodd" transform="translate(62.9 44)"/><path d="M-45.2-32.55l.25-.2 5.2-2.85q16.5-7.9 39.75-7.9 23.2 0 39.7 7.9 3.75 1.85 6.75 3.85l3.7 2.95 2.35 2.55q3.65 4.5 3.65 9.75v6.1q-.3-10.9-16.45-18.7Q23.2-37 0-37q-23.25 0-39.75 7.9-15.7 7.6-16.35 18.15h-.05v-5.55q0-5.25 3.65-9.8 2.7-3.35 7.3-6.25" fill="#626273" fill-rule="evenodd" transform="translate(62.9 44)"/><path d="M-56.1-10.95q.65-10.55 16.35-18.15Q-23.25-37 0-37q23.2 0 39.7 7.9 16.15 7.8 16.45 18.7v.75l-.1 1.35-.2 1.35L39.7 9.1Q23.2 17 0 17q-23.25 0-39.75-7.9l-15.4-13.8-.3-.8-.35-1.35V-7l-.05-.05-.25-1.75v-.1l-.05-.85v-.45l.05-.75" fill="url(#gradient0)" fill-rule="evenodd" transform="translate(62.9 44)"/><path d="M-52.5-26.3q-3.65 4.55-3.65 9.8v5.55h.05l-.05.75v.45l.05.85-.05.55v.45l.1.45.2.4.05.05v.15l.35 1.35.3.8q3 7.85 15.4 13.8Q-23.25 17 0 17q23.2 0 39.7-7.9Q54.9 1.8 56.1-8.25l-.05-.05.1-1.35v-6.85q0-5.25-3.65-9.75 3.5 2.5 5.75 5.25l1.55 2.15q2.6 4.15 2.6 8.85 0 3.15-1.15 6.1Q60-.85 57.5 1.95q-4.55 5.9-13.85 10.75Q25.5 22.2 0 22.2q-25.55 0-43.7-9.5Q-53 7.85-57.5 1.95q-2.6-2.9-3.8-6.05-.8-2.1-1-4.3l-.1-1.6q0-3.25 1.25-6.25 2.3-5.45 8.65-10.05" fill="url(#gradient1)" fill-rule="evenodd" transform="translate(62.9 44)"/><path d="M56.05-8.3l.05.05Q54.9 1.8 39.7 9.1L55.85-6.95l.2-1.35m-95.8 17.4q-12.4-5.95-15.4-13.8l15.4 13.8m-16.4-17.45l.05-.55v.1l-.05.45" fill="url(#gradient2)" fill-rule="evenodd" transform="translate(62.9 44)"/><path d="M-55.85-7.05l-.2-.4-.1-.45v-.45l.05-.45.25 1.75" fill="url(#gradient3)" fill-rule="evenodd" transform="translate(62.9 44)"/><path d="M-45.2-32.55q-4.6 2.9-7.3 6.25-3.65 4.55-3.65 9.8m.05 5.55q.65-10.55 16.35-18.15Q-23.25-37 0-37q23.2 0 39.7 7.9 16.15 7.8 16.45 18.7M39.7 9.1Q23.2 17 0 17q-23.25 0-39.75-7.9m79.45 0L55.85-6.95l.2-1.35.1-1.35v-.75m5.1 6.5Q62.4-6.85 62.4-10q0-4.7-2.6-8.85m-2.3 20.8Q60-.85 61.25-3.9 57 12.3 48.85 25.25l-.2.35q-3 6.4-13.4 11.35Q20.65 44 0 44q-20.7 0-35.3-7.05-7.25-3.45-10.9-7.6-1.6-1.9-2.45-3.85-8.4-13.1-12.65-29.6-.8-2.1-1-4.3l-.1-1.6q0-3.25 1.25-6.25m5.05 7.45l.25 1.75M-61.3-4.1q1.2 3.15 3.8 6.05" fill="none" stroke="#545c55" stroke-linecap="round" stroke-linejoin="round" transform="translate(62.9 44)"/><path d="M52.5-26.25l-2.35-2.55-3.7-2.95q-3-2-6.75-3.85Q23.2-43.5 0-43.5q-23.25 0-39.75 7.9l-5.2 2.85-.25.2M-56.15-16.5v5.55m112.3.55v-6.1q0-5.25-3.65-9.75M58.25-21q-5.45-7.2-11.8-10.75m13.35 12.9L58.25-21m-119.4 4.75q4.05-10.35 15.95-16.3z" fill="none" stroke="#777a8e" stroke-linecap="round" stroke-linejoin="round" transform="translate(62.9 44)"/><path d="M15.75-19.7l2.1.35.75.15 5.3 1.35Q30.2-16 35.7-13.1q5.6 3 9 6.4l.05.05.2.15 1.6 1.8.45.55.4.6.45.65.1.2L49-.9l.05.1.8 2.25L43.7 4.4l-7.3 3.5-7.3 3.5-7.25 3.5-7.3 3.5-7.25 3.5L0 25.35l-49.85-23.9L-49-.8l.05-.1.8-1.45.2-.35.1-.2 1-1.35.3-.45 1.1-1.3.2-.2L-44-7.35l.4-.4 1.85-1.5 1.4-1.05.5-.3 1.6-1 .25-.2 2.2-1.25v-.05l1.7-.85 1-.45 1.75-.8.2-.05 2.45-1.05 1.95-.7 1.7-.5 1.6-.5.5-.15 1.6-.4 1-.25 2.25-.5 2.7-.45 1.15-.2 1.75-.2 1-.15 1-.15 2.9-.25 4.45-.25h.25L0-21h.25l1.45.05 3.45.1 6.15.5 1.7.25 2.75.4m29 13.05L18.6-19.2 44.75-6.65m2.55 4.9L43.7-.1.25-21 43.7-.1l3.6-1.65M36.4 7.9V5.15l7.3-3.5V4.4 1.65l-7.3 3.5V7.9m11-11.45L13-20.1 47.4-3.55m-7.35 5.3L36.4 3.4l-48.9-23.55L36.4 3.4l3.65-1.65m-14.5 7L21.9 10.4l3.65-1.65m-3.7 6.15v-2.8l7.25-3.45v2.75-2.75l-7.25 3.45v2.8m10.9-9.65L29.1 6.9l-52.05-25.05L29.1 6.9l3.65-1.65m-48.15-25l51.8 24.9-7.3 3.5-54.15-26.15L29.1 8.65l7.3-3.5-51.8-24.9m33.65 32L14.6 13.9l-52.85-25.5L14.6 13.9l3.65-1.65m-14.55 7L.05 20.9l-48.2-23.25L.05 20.9l3.65-1.65M0 25.35V22.6l7.3-3.5 7.25-3.5v2.8-2.8L7.3 19.1v2.8-2.8L0 22.6v2.75m10.95-9.6l-3.6 1.65L-44-7.35 7.35 17.4l3.6-1.65M-48.95-.9L0 22.6-48.95-.9m15.85-13.5l54.95 26.5-7.3 3.5-54.4-26.2 54.4 26.2 7.3-3.5-54.95-26.5M7.3 19.1L-45.25-6.2 7.3 19.1M-3.15-20.95L43.7 1.65Q46.35.4 49-.9 46.35.4 43.7 1.65l-46.85-22.6M21.9 10.4l-53.05-25.65L21.9 10.4" fill="#5b5755" fill-rule="evenodd" transform="translate(62.9 44)"/><path d="M15.75-19.7l2.1.35.75.15 5.3 1.35Q30.2-16 35.7-13.1q5.6 3 9 6.4l.05.05.2.15 1.6 1.8.45.55.4.6.45.65.1.2L49-.9l.05.1.8 2.25L43.7 4.4l-7.3 3.5-7.3 3.5-7.25 3.5-7.3 3.5-7.25 3.5L0 25.35l-49.85-23.9L-49-.8l.05-.1.8-1.45.2-.35.1-.2 1-1.35.3-.45 1.1-1.3.2-.2L-44-7.35l.4-.4 1.85-1.5 1.4-1.05.5-.3 1.6-1 .25-.2 2.2-1.25v-.05l1.7-.85 1-.45 1.75-.8.2-.05 2.45-1.05 1.95-.7 1.7-.5 1.6-.5.5-.15 1.6-.4 1-.25 2.25-.5 2.7-.45 1.15-.2 1.75-.2 1-.15 1-.15 2.9-.25 4.45-.25h.25L0-21h.25l1.45.05 3.45.1 6.15.5 1.7.25 2.75.4M13-20.1L47.4-3.55M43.7 4.4V1.65l-7.3 3.5V7.9m-7.3 3.5V8.65l-7.25 3.45v2.8m.05-4.5l3.65-1.65m-50.6-26.25L29.1 8.65l7.3-3.5-51.8-24.9M14.55 18.4v-2.8L7.3 19.1v2.8m0-2.8L0 22.6v2.75M21.85 12.1l-7.3 3.5-54.4-26.2M49-.9Q46.35.4 43.7 1.65l-46.85-22.6M-45.25-6.2L7.3 19.1m14.55-7L-33.1-14.4M0 22.6L-48.95-.9" fill="none" stroke="#454241" stroke-linecap="round" stroke-linejoin="round" transform="translate(62.9 44)"/><path d="M.25-21L43.7-.1l3.6-1.65M18.6-19.2L44.75-6.65m-57.25-13.5L36.4 3.4l3.65-1.65m-63-19.9L29.1 6.9l3.65-1.65m-80.9-7.6L.05 20.9l3.65-1.65M-38.25-11.6L14.6 13.9l3.65-1.65M-44-7.35L7.35 17.4l3.6-1.65m-42.1-31L21.9 10.4" fill="none" stroke="#656161" stroke-linecap="round" stroke-linejoin="round" transform="translate(62.9 44)"/><path d="M39.7-35.6q16.45 7.95 16.45 19.1 0 11.2-16.45 19.1Q23.2 10.5 0 10.5q-23.25 0-39.75-7.9-16.4-7.9-16.4-19.1 0-11.15 16.4-19.1 16.5-7.9 39.75-7.9 23.2 0 39.7 7.9z" fill="none" stroke="#9292a5" stroke-linecap="round" stroke-linejoin="round" transform="translate(62.9 44)"/><path d="M25.65-10.8q.55 5.95-3.8 10.05l-.4.35v18.85Q11.6 20.5 0 20.5q-11.55 0-21.4-2V-.4q-4.75-4.2-4.2-10.4-7.2 3.1-14.4 3.2-7.1-.1-14.35-3.2v.05Q-51.8-19.2-38.9-25.6q16.15-7.9 38.9-7.9 22.7 0 38.85 7.9 13 6.4 15.55 14.85Q47.2-7.7 40-7.6q-7.1-.1-14.35-3.2M0-27.6q-7.1-.1-14.35-3.2H-20V0h40v-30.8h-5.6Q7.2-27.7 0-27.6" fill="#0cc" fill-opacity=".341" fill-rule="evenodd" transform="translate(62.9 44)"/></g></defs></svg>