<svg height="552.537" width="942.492" xml:space="preserve" xmlns:xlink="http://www.w3.org/1999/xlink" xmlns="http://www.w3.org/2000/svg"><defs><g id="O"><path d="M11-148.75v-44.75 44.75h-22.5v-44.75 44.75h-2.35l-19.4-44.75H33l-8.6 44.75H11" fill="#d34367" fill-rule="evenodd" transform="translate(471.15 193.75)"/><path d="M482.15.25V45h13.4l8.6-44.75h-44.5V45h22.5M459.65.25H437.9L457.3 45h2.35" fill="none" stroke="#a82647" stroke-linecap="round" stroke-linejoin="round" stroke-width=".5"/><path d="m-30.55-103.4 12.4-6.2 7.6-3.8 10.9-5.5v100.95l-.5.25-59.45 29.3-.05.05-135.3 66.65-102.65 51.2-30.15 14.95-4.75 2.25-.05.05-19.95 9.8-.05.05-3.85 1.9h-.05l-.05.05h-.05l-3.85 1.95h-.1V61.85l3.35-1.7 4.25-2.15 1.35-.7 1.1-.55 20-10 20-10.05 19.95-10 20-10 19.4-9.75.15-.05.45-.25 7.55-3.75 1-.5 11.45-5.75 20-10 15.55-7.8v.1l4.45-2.25 20-10 20-10 20-10.05 20-10 19.95-10 20-10 10.9-5.5h.05l9.05-4.55 17.4-8.7h.05l2.55-1.3" fill="#d5f0ce" fill-rule="evenodd" transform="translate(471.15 193.75)"/><path d="M9.45-123.4.4-118.9H.35l-10.9 5.5-7.6 3.8-12.4 6.2-50.15-66.05 50.15 66.05-2.55 1.3h-.05l-17.4 8.7-9.05 4.55h-.05l-10.9 5.5-20 10-19.95 10-20 10-20 10.05-20 10-20 10-4.45 2.25v-.1l-15.55 7.8-20 10-50.15-66 50.15 66-11.45 5.75-1 .5-7.55 3.75-.45.25-.15.05-19.4 9.75-20 10-19.95 10-20 10.05-20 10-1.1.55-1.35.7-4.25 2.15-2.05.95-2.2 1.15-.55.3-.1.05-.3.15-.05.05h-.05l-.05.05-.05.05h-.05v.05h-.1l-.2.1-.3.15-1.4.65-1.8.95h-.05l-.05.05-.7.35-3.25 1.55L-420.6.8l19.9-9.95.1-.1 19.8-9.9.2-.05v-.05l19.7-9.85.3-.1v-.05l19.6-9.85.4-.2 19.5-9.75.45-.25 19.45-9.75.55-.25 19.3-9.65.7-.4L-261.4-79q.4-.15.75-.35l19.1-9.55.9-.45 18.95-9.5q.55-.25 1.05-.55l18.85-9.45 1.1-.55 18.8-9.4 1.2-.6 18.8-9.4 1.2-.6 18.75-9.4 1.25-.6 18.65-9.35 1.35-.7 18.65-9.3 1.35-.7 18.45-9.25 1.55-.75 18.4-9.25q9.95-4.95 19.85-9.95l9.3-4.65 50.3 64.35v1.65l-7.7 3.9-50.05-65.8 50.05 65.8m-70.05-55.8 50.05 65.8-50.05-65.8m-200.05 99.85 50.15 66-50.15-66m20-10 50.15 66.05-50.15-66.05m20-10.05 50.15 66.1-50.15-66.1m79.95-40 50.15 66.05-50.15-66.05m-20 10 50.2 66.05-50.2-66.05m-20 10 50.2 66.05-50.2-66.05m80-40.05 50.15 66.05-50.15-66.05m-20 10 50.15 66.1-50.15-66.1m-80 40.05 50.2 66.1-50.2-66.1m-159.9 80.2 50.15 65.9-50.15-65.9m-20 10 50.15 65.95-50.15-65.95m-20 9.95 50.15 66-50.15-66m79.95-40.05 50.15 66-50.15-66m-19.95 10 50.1 66-50.1-66m39.95-20 50.15 65.95-50.15-65.95" fill="#d34367" fill-rule="evenodd" transform="translate(471.15 193.75)"/><path d="m-33.15-193.3-9.3 4.65q-9.9 5-19.85 9.95l-18.4 9.25-1.55.75-18.45 9.25-1.35.7-18.65 9.3-1.35.7-18.65 9.35-1.25.6-18.75 9.4-1.2.6-18.8 9.4-1.2.6-18.8 9.4-1.1.55-18.85 9.45q-.5.3-1.05.55l-18.95 9.5-.9.45-19.1 9.55q-.35.2-.75.35l-19.25 9.65-.7.4-19.3 9.65-.55.25-19.45 9.75-.45.25-19.5 9.75-.4.2-19.6 9.85v.05l-.3.1.3-.15-.3.15-19.7 9.85v.05l-.2.05.2-.1-.2.1-19.8 9.9-.1.1L-420.6.8l50.15 65.95 3.25-1.55-3.2 1.65h-.05l-81.35-40.8-18-9.05-1.1-.55.3-.1 19.85-10.2 17.5-9 18.5-9.5 18.8-9.65 18.5-9.5 37.3-19.2 18.8-9.65 18.55-9.5 18.6-9.55 18.5-9.55 18.75-9.65 18.5-9.5 18.75-9.6 18.55-9.55 18.7-9.6 18.55-9.55 18.7-9.6 18.5-9.5 27.5-14.15 56.05-13.65m-27 205.6-182.8 90.1v.15l-4 1.95v.05l-4 1.95v.05l-44.05 21.7-2.6 1.25 102.65-51.2 135.3-66.65v.4l-.5.25M-332.5 146.85v1.2l-.05-1.2v-.1l.05-.05v.15h-.05.05m-20 9.9v1.3l-.05-1.25v-.2l.05-.05v.2l-.05.05.05-.05m-4 2v1.3l-.05-1.3h.05-.05v-.2h.05v.2m-4 1.95v1.35l-.05-1.3v-.25h.05v.2l-.05.05.05-.05M-433.25-2.85l52.45-16.3-52.45 16.3m37.3-19.15L-341-39.1-395.95-22m-18.8 9.65 53.85-16.75-53.85 16.75m37.3-19.15 56.35-17.55-56.35 17.55m130.5-67.1 65.05-20.2-65.05 20.2m18.5-9.5 66.55-20.7-66.55 20.7m-37.25 19.15 63.9-19.9-63.9 19.9m-55.65 28.6L-261.4-79l-59.95 18.65m18.55-9.5 61.25-19.05-61.25 19.05m-37.35 19.15 58.8-18.25-58.8 18.25m-16.65 8.95 55.6-17.3-55.6 17.3m72.6-37.65 62.5-19.45-62.5 19.45m-72.95 139.55-3.35 1.7v1.25l-.05-1.25h-.05l-.8.45.8-.45h.05l-.85.45-.55.25.55-.3 2.2-1.15 2.05-.95M-153.9-146.4l71.65-22.3-71.65 22.3m-18.55 9.55 70.4-21.9-70.4 21.9m-37.25 19.15 67.75-21.1-67.75 21.1m18.55-9.55 69.1-21.5-69.1 21.5m74.45-38.25 74.25-23.15-74.25 23.15m54.4-13.2-72.9 22.7 72.9-22.7M-51 57.95v-.05l1 .55-1-.5m-60 39.95 1 .55-1-.5v-.05m-359.6-81.55 50-15.55-50 15.55m107.9 46.6h.1-.1m.1-.05h.05-.05m2.05-1.05h.05l1.3-.75-1.3.75h-.05m-90.2-55.7 50.05-15.3-50.05 15.3" fill="#cc2f56" fill-rule="evenodd" transform="translate(471.15 193.75)"/><path d="m-360.55 160.5-91.25-45.75v-88.7l81.35 40.8h.05l3.2-1.65.7-.35.05-.05h.05l1.8-.95 1.4-.65.3-.15.2-.1h.1v-.05h.05l.05-.05.05-.05h.05l.05-.05.3-.15.1-.05.55-.25.85-.45.05 1.25v97.4h-.05" fill="#b9e8ae" fill-rule="evenodd" transform="translate(471.15 193.75)"/><path d="M471.5 74.85h.05l-.05 1.35v98.3l.05 1.3-.55.25-59.45 29.3v.45l-.55.25M176.15 322l-2.6 1.25-30.15 14.95-4.75 2.4m-.05 0-19.95 9.9m-.05.05-3.95 1.95h-.05l-3.95 1.95-.05.05m0-.25L19.35 308.5v-88.7m-18-9.05-1.1-.55.3-.1m228.65-13.95-1 .5m-108.6 54.4-1.35.7m-7.6 3.85v98.65h-.05m4-1.95h.05l.05-.05m3.9-1.9.05-.05m19.95-9.8.05-.05M438 91.65h.05M411.5 104.9h.05m0 100.45-.05.05-135.3 66.65-102.65 51.2m-68.9-64.65.05-.05h.05m3.7-1.85h.1v-.05h.05l.05-.05.05-.05h.05l.05-.05m.95-.5 2.2-1.15-1.3.75h-.05m-9.9 5h.05m9-4.55.8-.45h.05m-.85.45-.55.25m-.75.4h.05m30.1 83.9h.05m-20.05 9.95.05-.05" fill="none" stroke="#666" stroke-linecap="round" stroke-linejoin="round" stroke-width=".5"/><path d="m471.55 74.85 9.05-4.5-50.05-65.8m50.05 65.8 7.7-3.9V64.8L438 .45l-9.3 4.65q-9.9 5-19.85 9.95l-18.4 9.25 50.15 66.05 12.4-6.2 7.6-3.8-50.05-65.8M19.35 219.8l-18-9.05m-.8-.65 19.85-10.2 17.5-9 18.5-9.5 18.8-9.65 18.5-9.5 37.3-19.2 18.8-9.65 18.55-9.5 18.6-9.55 18.5-9.55 18.75-9.65 18.5-9.5 18.75-9.6L280 66.5l18.7-9.6 18.55-9.55 18.7-9.6 18.5-9.5 27.5-14.15L438 .45M70.45 184.6l.1-.1 19.8-9.9-52.45 16.3m52.45-16.3.2-.05v-.05l-.2.1m20.2-10.1 19.6-9.85-54.95 17.1m35.05-7.1.3-.1v-.05l-.3.15-19.7 9.85m39.6-19.85.4-.2 19.5-9.75-56.35 17.55m16.55 2.4L56.4 181.4m212.95-96.5 1.1-.55 18.8-9.4-65.05 20.2m65.05-20.2 1.2-.6 18.8-9.4-66.55 20.7m6.75 9.25q.55-.25 1.05-.55l18.85-9.45-63.9 19.9m-15.65 20 .7-.4 19.25-9.65-59.95 18.65m59.95-18.65q.4-.15.75-.35l19.1-9.55-61.25 19.05m1.6 10.8.55-.25 19.3-9.65-58.8 18.25m19.05 1.65.45-.25 19.45-9.75-55.6 17.3m115.25-47.15.9-.45 18.95-9.5-62.5 19.45m53.7 76.05 20-10-50.15-66m65.7 58.3 4.45-2.25-50.15-66.05m50.15 66.05 20-10-50.15-66.1m10.15 86.05 15.55-7.8m-85.7-48.2 50.15 66-11.45 5.75m-1 .5-7.55 3.75-.45.25m-.15.05-19.4 9.75-20 10-19.95 10-20 10.05-20 10-1.1.55m-1.35.7L114 253.9l-3.35 1.7m327.4-163.95 2.55-1.3M369.1 35l1.35-.7 18.45-9.25-71.65 22.3M349.1 45l1.35-.7L369.1 35l-70.4 21.9m10.55 8.05 1.2-.6 18.75-9.4-67.75 21.1m67.75-21.1 1.25-.6L349.1 45 280 66.5m80.65 63.9 19.95-10-50.15-66.05m10.2 86.05 20-10-50.2-66.05m10.2 86.1 20-10.05-50.2-66.05M400.6 110.4l10.9-5.5m.05 0 9.05-4.55-50.15-66.05M428.7 5.1l-74.25 23.15m26.15 92.15 20-10-50.15-66.1m40-20-1.55.75m-52.95 12.7 72.9-22.7m11.75 85.3 17.4-8.7m-137.35 68.8 20-10-50.2-66.1m-166.5 174.6-3.25 1.55-50.15-65.95-50 15.55m103.4 48.85.7-.35m.1-.05 1.8-.95 1.4-.65.3-.15.2-.1m.35-.2.3-.15.1-.05.55-.3m2.2-1.15 2.05-.95m-3.4 1.7-.85.45m-90.4-36.25 81.35 40.8m119.95-60.2-50.15-65.95m10.15 86-50.1-66m70.1 56-50.15-66M120.7 250.5l-50.15-66m70.15 56-50.15-65.95m70.15 55.9-50.15-65.9m-60 30 19.9-9.95-50.05 15.3M460.6 80.35l10.9-5.5z" fill="none" stroke="#a82647" stroke-linecap="round" stroke-linejoin="round" stroke-width=".5"/><path d="M-105.1-23.45v2l15.95-8 .6-.3q.2-.05.4-.2l1.3-.65v-14.65l-1.7.85-.6.3-1.05.5-1.15.55-1.85.95-5.75 2.85-6.2 3.1.05 6.25v6.45M-85.15-29l.1 14.7 15.95-8 .55-.3q.2-.05.45-.2l1.25-.65V-38.1l-1.7.85-.55.3-1.1.5-1.15.55-13.8 6.9m0-17.2.1 14.75 15.95-8 .55-.3q.2-.05.45-.2l1.25-.65v-14.65l-1.7.85-.55.3-1.1.5-1.15.55-13.8 6.85m-4 19.25-1.05.5-1.15.55-13.8 6.9.05 14.7 15.95-8 .6-.3q.2-.05.4-.2l1.3-.65V-28.1l-1.7.85-.6.3m62.8-43.2v-5.55l-1.75.85-.55.3-1.05.5-1.15.55-13.8 6.85.05 14.75 13.9-6.95 2.05-1.05.55-.3.45-.2 1.3-.65v-9.1m0 18.95v-7.35l-1.75.85-.55.3-1.05.5-1.15.55-13.8 6.9.05 14.7 12.1-6 3.85-2 .55-.3.45-.2 1.3-.65v-7.3m-40.1 29.75L-20.8-44.3v-37.2l-45.65 22.9v-.1l-45.7 22.9V1.35l45.6-22.85-45.6 22.85V-35.8l45.7-22.9v.1l45.65-22.9v37.2l-45.65 22.85v-.05h-.1l.1.05m-.1 4.6-57.05 28.6v-46.5l57.15-28.6v.1l57.05-28.6v46.45l-57.05 28.6v-.05h-.1m1.95-9.1v1.2l15.95-8 .55-.3q.2-.05.45-.2.65-.3 1.25-.65v-14.65l-1.7.85-.55.3-1.1.5-1.15.55-2.05 1.1-6.25 3.05-.25.15-5.25 2.6.1 7.85v5.65m16.5-38.9-.55.3-1.1.5-1.15.55-13.8 6.9.1 14.7 15.95-8 .55-.3q.2-.05.45-.2.65-.3 1.25-.65V-65.7l-1.7.85" fill="#e2e0d6" fill-rule="evenodd" transform="translate(471.15 193.75)"/><path d="m-93.2-42.1 1.85-.95 1.15-.55 1.05-.5.6-.3 1.7-.85v14.65l-1.3.65q-.2.15-.4.2l-.6.3-15.95 8v-2l11.9-18.65m-11.9 12.2-.05-6.25 6.2-3.1-6.15 9.35m15.95 2.95.6-.3 1.7-.85v14.65l-1.3.65q-.2.15-.4.2l-.6.3-15.95 8-.05-14.7 13.8-6.9 1.15-.55 1.05-.5m4-19.25 13.8-6.85 1.15-.55 1.1-.5.55-.3 1.7-.85v14.65l-1.25.65q-.25.15-.45.2l-.55.3-15.95 8-.1-14.75m0 17.2 13.8-6.9 1.15-.55 1.1-.5.55-.3 1.7-.85v14.65l-1.25.65q-.25.15-.45.2l-.55.3-15.95 8-.1-14.7m54.45-29.85-13.9 6.95-.05-14.75 13.8-6.85 1.15-.55 1.05-.5.55-.3 1.75-.85v5.55l-4.35 11.3m-1.8 18.1-12.1 6-.05-14.7 13.8-6.9 1.15-.55 1.05-.5.55-.3 1.75-.85v7.35l-6.15 10.45m-15.6-24.1 1.7-.85v14.65q-.6.35-1.25.65-.25.15-.45.2l-.55.3-15.95 8-.1-14.7 13.8-6.9 1.15-.55 1.1-.5.55-.3m-4.85 19.6 2.05-1.1 1.15-.55 1.1-.5.55-.3 1.7-.85v14.65q-.6.35-1.25.65-.25.15-.45.2l-.55.3-15.95 8v-1.2l11.65-19.3M-64.6-31.6l-.1-7.85 5.25-2.6-5.15 10.45" fill="#fff" fill-rule="evenodd" transform="translate(471.15 193.75)"/><path d="M-105.1-23.45v-6.45l6.15-9.35 5.75-2.85-11.9 18.65m78.75-46.7v9.1l-1.3.65-.45.2-.55.3-2.05 1.05 4.35-11.3m0 18.95v7.3l-1.3.65-.45.2-.55.3-3.85 2 6.15-10.45M-64.6-25.95v-5.65l5.15-10.45.25-.15 6.25-3.05-11.65 19.3" fill="#b0ffff" fill-rule="evenodd" transform="translate(471.15 193.75)"/><path d="m-66.45-21.45-.1-.05h.1v.05m0 4.65-.1-.05h.1v.05" fill="#d1ccc5" fill-rule="evenodd" transform="translate(471.15 193.75)"/><path d="m377.95 151.65 1.85-.95 1.15-.55 1.05-.5.6-.3 1.7-.85v14.65l-1.3.65q-.2.15-.4.2l-.6.3-15.95 8v-8.45l-.05-6.25 6.2-3.1 5.75-2.85M382 166.8l.6-.3 1.7-.85v14.65l-1.3.65q-.2.15-.4.2l-.6.3-15.95 8-.05-14.7 13.8-6.9 1.15-.55 1.05-.5m4-19.25 13.8-6.85 1.15-.55 1.1-.5.55-.3 1.7-.85v14.65l-1.25.65q-.25.15-.45.2l-.55.3-15.95 8-.1-14.75m0 17.2 13.8-6.9 1.15-.55 1.1-.5.55-.3 1.7-.85v14.65l-1.25.65q-.25.15-.45.2l-.55.3-15.95 8-.1-14.7m54.45-29.85-13.9 6.95-.05-14.75 13.8-6.85 1.15-.55 1.05-.5.55-.3 1.75-.85v14.65l-1.3.65-.45.2-.55.3-2.05 1.05m-1.8 18.1-12.1 6-.05-14.7 13.8-6.9 1.15-.55 1.05-.5.55-.3 1.75-.85v14.65l-1.3.65-.45.2-.55.3-3.85 2m-34.05 19.25L359 195.1v-37.15l45.7-22.9v.1l45.65-22.9v37.2L404.7 172.3l-.1-.05h.1v.05m-.1 4.6-57.05 28.6V159l57.15-28.6v.1l57.05-28.6v46.45l-57.05 28.6-.1-.05h.1v.05m18.35-48.05 1.7-.85v14.65q-.6.35-1.25.65-.25.15-.45.2l-.55.3-15.95 8-.1-14.7 13.8-6.9 1.15-.55 1.1-.5.55-.3m-4.85 19.6 2.05-1.1 1.15-.55 1.1-.5.55-.3 1.7-.85v14.65q-.6.35-1.25.65-.25.15-.45.2l-.55.3-15.95 8v-6.85l-.1-7.85 5.25-2.6.25-.15 6.25-3.05" fill="none" stroke="#999" stroke-linecap="round" stroke-linejoin="round" stroke-width=".5"/></g><g id="B"><path d="m12.85-17.3-.4.2-.75.35-.8.4-9.65 4.8.05 10.3 11.15-5.6.4-.2.3-.15.9-.45V-17.9l-1.2.6M9.45-3.6 5.1-1.45l-.2.1L1.25.45l.05 5.5v4.8l11.15-5.6.4-.2.3-.15.9-.45V-5.9l-1.2.6-.4.2-.75.35-.8.4-1.45.75M28.05-21v-3.9l-1.2.6-.4.2-.75.35-.8.4-9.65 4.8.05 10.3L25-13.1l1.45-.75.4-.2.3-.15.9-.45V-21m0 13.25v-5.15l-1.2.6-.4.2-.75.35-.8.4-9.65 4.8.05 10.3 8.45-4.2 2.7-1.4.4-.2.3-.15.9-.45v-5.1m-28.1 24-35.7 17.9V1.65L0-16.25v.05l35.7-17.9v32.5L0 16.3v-.05h-.05m.05-3.2 31.95-16v-26L0-12.95V-13L-31.95 3v26l31.9-16-31.9 16V3L0-13v.05l31.95-16v26L0 13.05V13h-.05l.05.05m-27-1.4v1.4l11.15-5.6.4-.2.3-.15.9-.45V-3.6l-1.2.6-.4.2-.75.35-.8.4-1.3.65-4 2-4.35 2.15.05 4.4v4.5m10.4-2.1-.8.4-9.65 4.8.05 10.3 11.15-5.6.4-.2.3-.15.9-.45V8.4l-1.2.6-.4.2-.75.35m14-7-.8.4-9.65 4.8.05 10.3 11.15-5.6.4-.2.3-.15.9-.45V1.4l-1.2.6-.4.2-.75.35m2.35-2.9V-10.6l-1.2.6-.4.2-.75.35-.8.4-9.65 4.8.05 10.3L-1.85.45l.4-.2.3-.15.9-.45" fill="#e2e0d6" fill-rule="evenodd" transform="translate(36 34.35)"/><path d="m12.85-17.3 1.2-.6v10.25l-.9.45-.3.15-.4.2L1.3-1.25l-.05-10.3 9.65-4.8.8-.4.75-.35.4-.2M9.45-3.6l1.45-.75.8-.4.75-.35.4-.2 1.2-.6V4.35l-.9.45-.3.15-.4.2-11.15 5.6V9.9L9.45-3.6M1.3 5.95 1.25.45l3.65-1.8-3.6 7.3M25-13.1l-9.7 4.85-.05-10.3 9.65-4.8.8-.4.75-.35.4-.2 1.2-.6v3.9L25-13.1M23.75-.45l-8.45 4.2-.05-10.3 9.65-4.8.8-.4.75-.35.4-.2 1.2-.6v5.15l-4.3 7.3M-18.7-1.4l1.3-.65.8-.4.75-.35.4-.2 1.2-.6V6.65l-.9.45-.3.15-.4.2-11.15 5.6v-1.4l8.3-13.05M-27 7.15l-.05-4.4L-22.7.6-27 7.15M-.25-.35l-.9.45-.3.15-.4.2L-13 6.05l-.05-10.3 9.65-4.8.8-.4.75-.35.4-.2 1.2-.6V-.35m-2.35 2.9.75-.35.4-.2 1.2-.6v10.25l-.9.45-.3.15-.4.2-11.15 5.6-.05-10.3 9.65-4.8.8-.4m-14 7 .75-.35.4-.2 1.2-.6v10.25l-.9.45-.3.15-.4.2-11.15 5.6-.05-10.3 9.65-4.8.8-.4" fill="#fff" fill-rule="evenodd" transform="translate(36 34.35)"/><path d="m4.9-1.35.2-.1L9.45-3.6 1.3 9.9V5.95l3.6-7.3M28.05-21v6.35l-.9.45-.3.15-.4.2-1.45.75 3.05-7.9m0 13.25v5.1l-.9.45-.3.15-.4.2-2.7 1.4 4.3-7.3M-27 11.65v-4.5L-22.7.6l4-2-8.3 13.05" fill="#b0ffff" fill-rule="evenodd" transform="translate(36 34.35)"/><path d="m0 16.3-.05-.05H0v.05m0-3.25L-.05 13H0v.05" fill="#d1ccc5" fill-rule="evenodd" transform="translate(36 34.35)"/><path d="m48.85 17.05 1.2-.6V26.7l-.9.45-.3.15-.4.2-11.15 5.6-.05-10.3L46.9 18l.8-.4.75-.35.4-.2M40.9 33l.2-.1 4.35-2.15L46.9 30l.8-.4.75-.35.4-.2 1.2-.6V38.7l-.9.45-.3.15-.4.2-11.15 5.6v-4.8l-.05-5.5L40.9 33M61 21.25l-9.7 4.85-.05-10.3L60.9 11l.8-.4.75-.35.4-.2 1.2-.6V19.7l-.9.45-.3.15-.4.2-1.45.75M59.75 33.9l-8.45 4.2-.05-10.3L60.9 23l.8-.4.75-.35.4-.2 1.2-.6V31.7l-.9.45-.3.15-.4.2-2.7 1.4m-23.8 16.7L.25 68.5V36L36 18.1v.05L71.7.25v32.5L36 50.65l-.05-.05H36v.05m-.05-3.3-31.9 16v-26l31.95-16v.05l31.95-16v26L36 47.4l-.05-.05H36v.05M17.3 32.95l1.3-.65.8-.4.75-.35.4-.2 1.2-.6V41l-.9.45-.3.15-.4.2L9 47.4v-5.9l-.05-4.4 4.35-2.15 4-2M35.75 34l-.9.45-.3.15-.4.2L23 40.4l-.05-10.3 9.65-4.8.8-.4.75-.35.4-.2 1.2-.6V34m-2.35 2.9.75-.35.4-.2 1.2-.6V46l-.9.45-.3.15-.4.2L23 52.4l-.05-10.3 9.65-4.8.8-.4m-14 7 .75-.35.4-.2 1.2-.6V53l-.9.45-.3.15-.4.2L9 59.4l-.05-10.3 9.65-4.8.8-.4" fill="none" stroke="#999" stroke-linecap="round" stroke-linejoin="round" stroke-width=".5"/></g><g id="C"><path d="m-20.75-22.55-3.7 2.5v-4.35l3.7 1.85m-3.7 10.75 10.25-7.45-.1-.15 7.1 3.6v.05l-17.25 12.4v-8.45" fill="#b0ffff" fill-rule="evenodd" transform="translate(28.8 30.8)"/><path d="m23.8-.4.05.15h.05V24.5L-1.95 11.55V-13.1v24.65L-24.45.2v-3.55l17.25-12.4v-.05l1.25.65 3.85 2.05-.05-.15.2.15v-.05L23.8-.4m-48.25-19.65 3.7-2.5 6.45 3.15.1.15-10.25 7.45v-8.25" fill="#fff" fill-rule="evenodd" transform="translate(28.8 30.8)"/><path d="M23.9-.25h-.05L23.8-.4l.1.15-.1-.15-25.75-12.75-.2-.1-3.8-1.9 3.8 1.9.05.15-3.85-2.05-1.25-.65-7.1-3.6-6.45-3.15-3.7-1.85V.2l22.5 11.35L23.9 24.5V-.25m-12.45-10.3 17.4 8.75.05 32.5-17.45-8.75h-.05l-39.95-20v-32.5l39.95 20h.05M25.8 27.6V-1.65L-25.9-27.5V1.75L25.8 27.6-25.9 1.75V-27.5L25.8-1.65V27.6" fill="#d1ccc5" fill-rule="evenodd" transform="translate(28.8 30.8)"/><path d="m52.7 30.55-.1-.15-25.75-12.75v24.7L52.7 55.3V30.55m-12.45-10.3L57.65 29l.05 32.5-17.45-8.75h-.05l-39.95-20V.25l39.95 20h.05M54.6 58.4 2.9 32.55V3.3l51.7 25.85V58.4M8.05 8.25 4.35 6.4V19m10.15-7.6L8.05 8.25m-3.7 19.2V19m22.3-1.45.2.1m-4-2 3.8 1.9m-3.8-1.9L21.6 15M4.35 27.45V31l22.5 11.35M14.5 11.4l7.1 3.6" fill="none" stroke="#999" stroke-linecap="round" stroke-linejoin="round" stroke-width=".5"/></g><g id="W" transform="translate(32.45 88.2)"><use height="109.6" transform="translate(-32.45 -88.2)" width="88.2" xlink:href="#a"/><use height="2.55" transform="translate(3.2 -79.95)" width="3.1" xlink:href="#b"/><use height="2.55" transform="translate(9.95 -79.05)" width="3.1" xlink:href="#b"/><use height="2.55" transform="translate(11.7 -82.95)" width="3.1" xlink:href="#b"/></g><g id="a"><path d="m-7.65 12.25.55 2.65-12.5 6.25-12.6-6.3.6-2.6 12 6 11.95-6m-11.95 8.9v-2.9 2.9" fill="#999" fill-rule="evenodd" transform="translate(32.45 88.2)"/><path d="m-31.6 12.25 11.95-6 12 6-11.95 6-12-6" fill="#ccc" fill-rule="evenodd" transform="translate(32.45 88.2)"/><path d="m24.8 100.45.55 2.65-12.5 6.25-12.6-6.3.6-2.6 11.95-6 12 6-11.95 6v2.9m-12-8.9 12 6" fill="none" stroke="#999" stroke-linecap="round" stroke-linejoin="round" stroke-width=".5"/><path d="m54.95-17.1.55 2.65L43-8.2l-12.6-6.3.6-2.6 12 6 11.95-6M43-8.2v-2.9 2.9" fill="#999" fill-rule="evenodd" transform="translate(32.45 88.2)"/><path d="m31-17.1 11.95-6 12 6-11.95 6-12-6" fill="#ccc" fill-rule="evenodd" transform="translate(32.45 88.2)"/><path d="m87.4 71.1.55 2.65L75.45 80l-12.6-6.3.6-2.6 11.95-6 12 6-11.95 6V80m-12-8.9 12 6" fill="none" stroke="#999" stroke-linecap="round" stroke-linejoin="round" stroke-width=".5"/><path d="m19.15-82.35.35.2v5.4l-2.25-1.15q.05-1.25.7-2.5l1.2-1.95m-1.5 8.05L46.2-18.05Q46.05-16 41-16.9l-6.55-12.85-1.9-3.75-1.55-3-6.6-13-.4-.7-.4-.8-5.9-11.55-5.2-10.2q2.55-2.05 5.15-1.55m-16.15.35q2.6.05 4.95 1.85L-16.9 12.85q-2.55.75-5.1-.1l23.5-86.7" fill="#6cf" fill-rule="evenodd" transform="translate(32.45 88.2)"/><path d="m18.05-83.4-.3.35q-1.9 2.15-2.1 4.3v.55l.05.75-6.45-3.05-1.2-.55 1.2.55 6.45 3.05-.05-.75v-.55q.2-2.15 2.1-4.3l.3-.35q1.5-.55 1.4.75l-.3.3-1.2 1.95q-.65 1.25-.7 2.5-.05.55.05 1.15v.05q.75.55 1.4 2.75l-1.05-.35q-2.6-.5-5.15 1.55l-.6.5q-2.2-.7-.95-1.85l-2.2-4.3-1.15 4.2-.45-.35Q4.7-76.6 2.25-76.6l-1.1.05 1.1-.05q2.45 0 4.9 2.05l.45.35q.5 1.25-.7 2.5l-.45-.4Q4.1-73.9 1.5-73.95l-1.1.1q-.4-1.35.75-2.7l2.45-8.9q.9-1.4 2.35-2 1.45-.65 3.45-.45l8.65 4.5m-8.8 2.9-.5 2.1.5-2.1m1.7 6.4.6-.5q2.2-1.55 4.95-2l.8-.1-.8.1q-2.75.45-4.95 2l-.6.5m4.75-3.35q.05.3.25.5l.45.25h.9-.9l-.45-.25q-.2-.2-.25-.5" fill="#ff0" fill-rule="evenodd" transform="translate(32.45 88.2)"/><path d="M17.3-76.75v.05-.05" fill="#06f" fill-rule="evenodd" transform="translate(32.45 88.2)"/><path d="m40.5 7.15 1.2.55 6.45 3.05-.05-.75v-.55q.2-2.15 2.1-4.3l.3-.35L41.85.3q-2-.2-3.45.45-1.45.6-2.35 2l-2.45 8.9 1.1-.05q2.45 0 4.9 2.05l.45.35 1.15-4.2.5-2.1m8.8-2.9q1.5-.55 1.4.75l-.3.3.35.2m0 5.4L49.7 10.3q-.05.55.05 1.15v.05q.75.55 1.4 2.75l-1.05-.35 28.55 56.25q-.15 2.05-5.2 1.15L66.9 58.45 65 54.7l-1.55-3-6.6-13-.4-.7-.4-.8-5.9-11.55-5.2-10.2-.6.5q-2.2-.7-.95-1.85l-2.2-4.3m10.4-3.95L50.4 7.8q-.65 1.25-.7 2.5m.05 1.2-.8.1q-2.75.45-4.95 2l-.6.5m6.35-2.65v.05h-.9l-.45-.25q-.2-.2-.25-.5m1.6.7v.05M38.9 16.1q-2.35-1.8-4.95-1.85l-23.5 86.7q2.55.85 5.1.1L38.9 16.1l.45.4q1.2-1.25.7-2.5m-6.1.25-1.1.1q-.4-1.35.75-2.7m11.35 3.8q2.55-2.05 5.15-1.55" fill="none" stroke="#999" stroke-linecap="round" stroke-linejoin="round" stroke-width=".5"/></g><g id="D"><path d="M.4 1 .8-.25 0-.85l.25-.2 1.05.8L.9 1H.4M.8-.25h.5-.5" fill="#d6d001" fill-rule="evenodd" transform="translate(1.55 1.3)"/><path d="m0-.85.8.6L.4 1H-.9l-.4-1.25 1.05-.8.25.2" fill="#ff0" fill-rule="evenodd" transform="translate(1.55 1.3)"/><path d="m1.95 2.3.4-1.25-.8-.6-.25-.2-1.05.8.4 1.25h1.8l.4-1.25h-.5M1.8.25l1.05.8m-1.3-.6.25-.2h-.5" fill="none" stroke="#999" stroke-linecap="round" stroke-linejoin="round" stroke-width=".5"/></g><g id="S"><path d="m22.55-198.7-19.9-9.95 74.3 23.15-74.3-23.15-9.3-4.65 56.05 13.65 27.55 14.15 18.5 9.5-72.9-22.7 72.9 22.7 18.7 9.6 18.5 9.55 18.75 9.6 18.5 9.55 18.75 9.6-66.5-20.7 66.5 20.7 18.5 9.5 18.75 9.65-63.9-19.9 63.9 19.9 18.55 9.55 18.6 9.55 18.5 9.5 18.8 9.65 37.3 19.2 18.5 9.5L375-32.35l18.45 9.5 17.5 9 19.9 10.2.25.1h.05L430-3l-17.95 9.05-81.35 40.8h-.1l-3.15-1.65 3.2 1.55L380.8-19.2q-9.9-4.95-19.85-9.95l-.15-.1-19.8-9.9-.2-.05.05-.05-19.7-9.85-.35-.1.05-.05-19.65-9.85-.35-.2-19.5-9.75-.5-.25-19.45-9.75-.55-.25-19.25-9.65-.75-.4L221.6-99l-.7-.35-19.1-9.55-.9-.45-19-9.5-1-.55-18.9-9.45-1.1-.55-18.8-9.4-1.2-.6-18.75-9.4-1.25-.6-18.7-9.4-1.25-.6-18.7-9.35-1.35-.7-18.65-9.3-1.35-.7-18.45-9.25-1.5-.75-18.4-9.25m79.65 39.9 67.7 21.1-67.7-21.1m39.9 20 65.05 20.2-65.05-20.2m9.3-8.45-69.15-21.5 69.15 21.5m-18.75-9.6-70.4-21.9 70.4 21.9M20.4-7.7l-.55-.25v-.4l135.3 66.65 103.55 51.6-3.5-1.65-44.05-21.7v-.05l-4-1.95v-.05l-4-1.95v-.15L20.4-7.7m93.75-158.7-71.7-22.3 71.7 22.3m202.9 104.65-55.65-17.3 55.65 17.3m3.8 12.5.3.15-.3-.15m-.1 189.75v.25l-.05 1.3v-1.35l.05.05-.05-.05v-.2h.05m-4-1.75-.05 1.3v-1.3h.05-.05v-.2h.05v.2m-4-1.95-.05 1.25v-1.3l.05.05-.05-.05v-.2l.05.05v.2m-20-9.95-.05 1.2v-1.35l.05.05v.1h-.05.05m-11.2-207.2L221.6-99l59.95 18.65M201.8-108.9l61.25 19.05-61.25-19.05m-19.9-9.95 62.55 19.45-62.55-19.45M300.35-70.7 241.6-88.95l58.75 18.25M375-32.35 321.15-49.1 375-32.35m35.95 18.5-50-15.3 50 15.3M341-39.15l52.45 16.3L341-39.15l-.15-.1.15.1M356.15-42 301.2-59.1 356.15-42m-74.8-27.05 56.3 17.55-56.3-17.55m149.5 65.4L380.8-19.2l50.05 15.55M317.4 40.15l2 .95 2.25 1.15.95.5-.95-.45-.85-.45h-.1l-1.3-.75 1.3.75h.1l.85.45-.9-.45-.05 1.25v-1.25l-3.3-1.7m5.3 2.65.05.05.1.05h-.05l-.05-.05h-.05v-.05M71.25 77.9v.05l-1.05.5 1.05-.55m-60-39.95-1.05.5 1.05-.55v.05" fill="#cc2f56" fill-rule="evenodd" transform="translate(57.15 213.55)"/><path d="m2.65-208.65 19.9 9.95 18.4 9.25 1.5.75 18.45 9.25-50.1 66.05 50.1-66.05 1.35.7 18.65 9.3 1.35.7 18.7 9.35 1.25.6 18.7 9.4-50.15 66.05 50.15-66.05 1.25.6 18.75 9.4 1.2.6 18.8 9.4-50.15 66.1 50.15-66.1 1.1.55 18.9 9.45 1 .55 19 9.5.9.45 19.1 9.55-50.15 66 50.15-66 .7.35 19.25 9.65.75.4 19.25 9.65-50.1 65.95 50.1-65.95.55.25 19.45 9.75-50.15 66 50.15-66 .5.25 19.5 9.75.35.2 19.65 9.85-.05.05-50.1 65.9 50.1-65.9.35.1 19.7 9.85-.05.05.2.05 19.8 9.9.15.1q9.95 5 19.85 9.95l-50.15 65.95-3.2-1.55-.75-.35v-.05h-.05l-1.85-.95-1.35-.65-.35-.15-.2-.1-.05-.05-.1-.05-.05-.05h-.05l-.05-.05-.95-.5-2.25-1.15-2-.95-4.25-2.15-1.35-.7-1.15-.55-19.95-10-20-10.05-20-10 50.15-66-50.15 66-20-10-19.4-9.75-.15-.05-.4-.25-7.6-3.75-1-.5-11.4-5.75-20-10-15.6-7.8v.1l-4.45-2.25 50.2-66.05-50.2 66.05-20-10-19.95-10-20-10.05 50.15-66.05-50.15 66.05-20-10-20-10 50.2-66.05-50.2 66.05-20-10 50.15-66.1-50.15 66.1L10.8-113.4l-17.45-8.7-2.55-1.3 50.15-66.05L-9.2-123.4l-12.4-6.2-7.6-3.8-10.95-5.5-9.05-4.5-7.7-3.9v-1.65l50.25-64.35 9.3 4.65M.8-209.2l-50 65.8 50-65.8M130.7-53.3l50.2-66.1-50.2 66.1m60.05 29.95 50.1-66-50.1 66M340.8-39.2l-50.1 65.95 50.1-65.95m-30.15 75.95 50.15-66-50.15 66M-29.2-133.4l50-65.8-50 65.8" fill="#d34367" fill-rule="evenodd" transform="translate(57.15 213.55)"/><path d="m50.75-93.35 20 10 20 10 20 10.05 19.95 10 20 10 4.45 2.25v-.1l15.6 7.8 20 10 11.4 5.75 1 .5 7.6 3.75.4.25.15.05 19.4 9.75 20 10 20 10 20 10.05 19.95 10 1.15.55 1.35.7 4.25 2.15 3.3 1.7v98.65h-.05l-3.9-1.95h-.05l-.05-.05-3.9-1.9-.05-.05-19.95-9.8-.05-.05-4.7-2.25-29.3-14.55-103.55-51.6L19.85-8.35v-.05l-60-29.55V-138.9l10.95 5.5 7.6 3.8 12.4 6.2 2.55 1.3 17.45 8.7 19.95 10.05 20 10" fill="#c8ecbf" fill-rule="evenodd" transform="translate(57.15 213.55)"/><path d="M412.05 6.05v88.7l-91.3 45.75h-.05V43.1l.05-1.25.9.45.95.45.05.05h.05v.05h.05l.05.05h.05l.05.05.2.1.35.15 1.35.65 1.85.95h.05v.05l.75.35 3.15 1.65h.1l81.35-40.8" fill="#b9e8ae" fill-rule="evenodd" transform="translate(57.15 213.55)"/><path d="m59.8 4.9 19.9 9.95 72.9 22.7-18.5-9.5L59.8 4.9 50.5.25.25 64.6v1.65l7.7 3.9 50-65.8m120.1 59.8-18.7-9.4-1.25-.6-50.2 66.05 20 10 50.15-66.05 1.25.6 66.5 20.7-18.75-9.6-67.7-21.1m-1.25-.6-18.7-9.35-1.35-.7-50.15 66.1 20 10m63.4-73.05-18.7-9.6m65.45 46.6-18.8-9.4-1.2-.6-50.15 66.05 20 10.05 50.15-66.1 1.1.55 63.9 19.9-18.75-9.65-65.05-20.2m-27.95-27.6 18.5 9.55 18.75 9.6 18.5 9.55M139.4 44.8l69.15 21.5m-10.5 7.85-18.75-9.4M118.05 34.1 99.6 24.85l-1.5-.75-50.15 66.05 2.55 1.3 17.45 8.7 50.1-66.05 1.35.7 70.4 21.9m-51.75-12.6-18.65-9.3m-51.45 65.35L87.9 110.2M17 74.65l-9.05-4.5m199.9 100.1 4.45 2.25m0-.1 15.6 7.8 50.15-66-19.1-9.55-.9-.45-50.2 66.05-20-10-19.95-10m-40-20.05 20 10M99.6 24.85l71.7 22.3m66.75 47-18.9-9.45m38.9 19.5-19-9.5-1-.55-50.2 66.1m57.95-74.8 18.5 9.5m53.7 39.3-19.25-9.65-.75-.4-50.1 66 11.4 5.75m1 .5 7.6 3.75 50.1-65.95.55.25 55.65 17.3M298 124.2l-19.25-9.65-.7-.35m-50.15 66 20 10m20 10 .4.25m.15.05 19.4 9.75 50.15-66-19.45-9.75m59.4 29.85.05-.05-19.65-9.85-.35-.2-50.15 66 20 10 50.1-65.9.35.1-.3-.15m-94.95-59.7 18.55 9.55 18.6 9.55 18.5 9.5 18.8 9.65 37.3 19.2 18.5 9.5 18.85 9.65 18.45 9.5 17.5 9 19.9 10.2m-.85.65-17.95 9.05M358 154.25l-19.5-9.75-.5-.25m-39.25-19.65 58.75 18.25m-55.9-28.7L239.05 94.7m81.15 29-61.25-19.05m19.8 9.9 59.95 18.65M50.5.25l56.05 13.65 27.55 14.15m-54.4-13.2 18.4 9.25m299.85 150.25.05-.05-19.7-9.85 53.85 16.75m-34-6.8 19.8 9.9.15.1 50 15.3m-70.15-25.35.2.05-.15-.1m52.6 16.4-52.45-16.3m-13.55 84.35 3.2 1.55 50.15-65.95q-9.9-4.95-19.85-9.95m19.85 9.95L488 209.9m-93.2-47.85-56.3-17.55m19.85 9.95 54.95 17.1m-33.25 84.95.2.1.35.15 1.35.65 1.85.95m.05.05.75.35m3.25 1.65 81.35-40.8m-98.9 31.95 4.25 2.15 2 .95m2.25 1.15.95.5m-1.85-.9.9.45m-.95-.45-3.3-1.7m-6.75-3.4 1.15.55m-1.15-.55-19.95-10-20-10.05m90.1-45.95-50.15 66m-19.95-10 50.1-65.95m-110.1 35.9 20 10M47.95 90.15l-12.4-6.2-7.6-3.8L17 74.65m60.95-60.3-50 65.8" fill="none" stroke="#a82647" stroke-linecap="round" stroke-linejoin="round" stroke-width=".5"/><path d="m77.55 205.85-.55-.25v-.45L17 175.6V74.65m242.3 121.3 1 .5M488 209.9l.25.1h.05l-1.15.55m-17.95 9.05v88.7l-91.3 45.75m-.05.2-3.95-1.95m-.05 0-3.95-1.95m-.05-.05-19.95-9.9m-.05 0-4.7-2.4-29.3-14.55-3.5-1.65m71.45-63.45h.05v.05m3.9 2h.1m-18.9-9.55 1.35.7m6.25 3.1 2.25 1.15m.95.5.05.05h.05l.05.05.1.05.05.05m-3.5-1.85 1.3.75h.1l.85.45.95.45m-1.9-.9v1.25M349.9 340.3l-.05-.05m0 .15h.05m19.95 9.7.05.05m3.9 1.9.05.05h.05m3.95 1.95v-97.4m-8 93.65.05.05m7.95 3.9.05.05m-.05-.25h.05m-4.05-1.75h.05m-58.05-28.85-103.55-51.6L77 205.2" fill="none" stroke="#666" stroke-linecap="round" stroke-linejoin="round" stroke-width=".5"/><path d="M65.3-43.45v2l-15.95-8-.6-.3q-.2-.05-.4-.2l-1.3-.65v-14.65l1.7.85.6.3 1.05.5 1.15.55 1.85.95 11.9 18.65m-6.15-15.8 6.2 3.1-.05 6.25-6.15-9.35m-13.8-6.95-.1 14.75-15.95-8-.55-.3q-.2-.05-.45-.2l-1.25-.65v-14.65l1.7.85.55.3 1.1.5 1.15.55 13.8 6.85M8.3-84.85l.55.3 1.1.5 1.15.55 13.8 6.9-.1 14.7-15.95-8-.55-.3-.45-.2-1.25-.65V-85.7l1.7.85m11.35 22.8 5.25 2.6-.1 7.85-5.15-10.45m5.15 16.1v1.2l-15.95-8-.55-.3-.45-.2-1.25-.65v-14.65l1.7.85.55.3 1.1.5 1.15.55 2.05 1.1 11.65 19.3M-13.45-71.2v-7.35l1.75.85.55.3 1.05.5 1.15.55 13.8 6.9-.05 14.7-12.1-6-6.15-10.45m40.5 13.1 1.7.85.55.3 1.1.5 1.15.55 13.8 6.9-.1 14.7-15.95-8-.55-.3q-.2-.05-.45-.2l-1.25-.65V-58.1m-40.5-32.05v-5.55l1.75.85q.35.05.55.3l1.05.5 1.15.55 13.8 6.85L4.8-71.9l-13.9-6.95-4.35-11.3m60.5 42.05 1.7.85.6.3 1.05.5 1.15.55 13.8 6.9-.05 14.7-15.95-8-.6-.3q-.2-.05-.4-.2l-1.3-.65V-48.1" fill="#fff" fill-rule="evenodd" transform="translate(57.15 213.55)"/><path d="m53.4-62.1-1.85-.95-1.15-.55-1.05-.5-.6-.3-1.7-.85v14.65l1.3.65q.2.15.4.2l.6.3 15.95 8v-8.45l.05-6.25-6.2-3.1-5.75-2.85m-8.05-4.1-13.8-6.85-1.15-.55-1.1-.5-.55-.3-1.7-.85v14.65l1.25.65q.25.15.45.2l.55.3 15.95 8 .1-14.75m-18.7 29.4L-30.4-65.4v-46.45l57.05 28.6v-.1l57.15 28.6v46.5l-57.05-28.6h-.1v.05m0-4.65L-19-64.3v-37.2l45.65 22.9v-.1l45.7 22.9v37.15L26.75-41.5l45.6 22.85V-55.8l-45.7-22.9v.1L-19-101.5v37.2l45.65 22.85.1-.05h-.1v.05M8.3-84.85l-1.7-.85v14.65l1.25.65.45.2.55.3 15.95 8 .1-14.7-13.8-6.9-1.15-.55-1.1-.5-.55-.3m11.35 22.8-.25-.15-6.25-3.05-2.05-1.1-1.15-.55-1.1-.5-.55-.3-1.7-.85v14.65l1.25.65.45.2.55.3 15.95 8v-6.85l.1-7.85-5.25-2.6m-26.95 1.3 12.1 6 .05-14.7-13.8-6.9-1.15-.55-1.05-.5-.55-.3-1.75-.85v14.65l1.3.65.45.2.55.3 3.85 2m34.35 2.65v14.65l1.25.65q.25.15.45.2l.55.3 15.95 8 .1-14.7-13.8-6.9-1.15-.55-1.1-.5-.55-.3-1.7-.85M-9.1-78.85 4.8-71.9l.05-14.75-13.8-6.85-1.15-.55-1.05-.5q-.2-.25-.55-.3l-1.75-.85v14.65l1.3.65.45.2.55.3 2.05 1.05M47.05-48.1v14.65l1.3.65q.2.15.4.2l.6.3 15.95 8 .05-14.7-13.8-6.9-1.15-.55-1.05-.5-.6-.3-1.7-.85" fill="#e2e0d6" fill-rule="evenodd" transform="translate(57.15 213.55)"/><path d="M65.3-43.45 53.4-62.1l5.75 2.85 6.15 9.35v6.45m-52.15-21.8 6.25 3.05.25.15L24.8-51.6v5.65l-11.65-19.3m-26.6-5.95 6.15 10.45-3.85-2-.55-.3-.45-.2-1.3-.65v-7.3m0-18.95 4.35 11.3-2.05-1.05-.55-.3-.45-.2-1.3-.65v-9.1" fill="#b0ffff" fill-rule="evenodd" transform="translate(57.15 213.55)"/><path d="M26.65-36.8v-.05h.1l-.1.05m0-4.65v-.05h.1l-.1.05" fill="#d1ccc5" fill-rule="evenodd" transform="translate(57.15 213.55)"/><path d="m110.55 151.45-1.85-.95-1.15-.55-1.05-.5-.6-.3-1.7-.85v14.65l1.3.65q.2.15.4.2l.6.3 15.95 8v-2m-11.9-18.65 5.75 2.85 6.2 3.1-.05 6.25v6.45m-19.95-22.75-13.8-6.85-1.15-.55-1.1-.5-.55-.3-1.7-.85v14.65l1.25.65q.25.15.45.2l.55.3 15.95 8 .1-14.75M83.9 176.7l57.05 28.6v-46.5L83.8 130.2v.1l-57.05-28.6v46.45l57.05 28.6v-.05h.1l-.1.05m.1-4.7 45.6 22.85v-37.15l-45.7-22.9v.1l-45.65-22.9v37.2L83.8 172.1v-.05h.1l-.1.05m-18.35-43.4-1.7-.85v14.65l1.25.65.45.2.55.3 15.95 8 .1-14.7-13.8-6.9-1.15-.55-1.1-.5-.55-.3m4.85 19.6 6.25 3.05.25.15 5.25 2.6-.1 7.85v6.85l-15.95-8-.55-.3-.45-.2-1.25-.65V145l1.7.85.55.3 1.1.5 1.15.55 2.05 1.1m-20.45 4.5 12.1 6 .05-14.7-13.8-6.9-1.15-.55-1.05-.5-.55-.3-1.75-.85v7.35m6.15 10.45-3.85-2-.55-.3-.45-.2-1.3-.65v-7.3m40.5 13.1v14.65l1.25.65q.25.15.45.2l.55.3 15.95 8 .1-14.7-13.8-6.9-1.15-.55-1.1-.5-.55-.3-1.7-.85M48.05 134.7l13.9 6.95.05-14.75-13.8-6.85-1.15-.55L46 119q-.2-.25-.55-.3l-1.75-.85v5.55m4.35 11.3L46 133.65l-.55-.3-.45-.2-1.3-.65v-9.1m60.5 42.05v14.65l1.3.65q.2.15.4.2l.6.3 15.95 8 .05-14.7-13.8-6.9-1.15-.55-1.05-.5-.6-.3-1.7-.85" fill="none" stroke="#999" stroke-linecap="round" stroke-linejoin="round" stroke-width=".5"/></g><g id="E"><path d="m12.85-17.3-.4.2-.75.35-.8.4-9.65 4.8.05 10.3 11.15-5.6.4-.2.3-.15.9-.45V-17.9l-1.2.6M9.45-3.6 5.1-1.45l-.2.1L1.25.45l.05 5.5v4.8l11.15-5.6.4-.2.3-.15.9-.45V-5.9l-1.2.6-.4.2-.75.35-.8.4-1.45.75M28.05-21v-3.9l-1.2.6-.4.2-.75.35-.8.4-9.65 4.8.05 10.3L25-13.1l1.45-.75.4-.2.3-.15.9-.45V-21m0 13.25v-5.15l-1.2.6-.4.2-.75.35-.8.4-9.65 4.8.05 10.3 8.45-4.2 2.7-1.4.4-.2.3-.15.9-.45v-5.1m-28.1 24-35.7 17.9V1.65L0-16.25v.05l35.7-17.9v32.5L0 16.3v-.05h-.05m.05-3.2 31.95-16v-26L0-12.95V-13L-31.95 3v26l31.9-16-31.9 16V3L0-13v.05l31.95-16v26L0 13.05V13h-.05l.05.05m-27-1.4v1.4l11.15-5.6.4-.2.3-.15.9-.45V-3.6l-1.2.6-.4.2-.75.35-.8.4-1.3.65-4 2-4.35 2.15.05 4.4v4.5m10.4-2.1-.8.4-9.65 4.8.05 10.3 11.15-5.6.4-.2.3-.15.9-.45V8.4l-1.2.6-.4.2-.75.35m14-7-.8.4-9.65 4.8.05 10.3 11.15-5.6.4-.2.3-.15.9-.45V1.4l-1.2.6-.4.2-.75.35m2.35-2.9V-10.6l-1.2.6-.4.2-.75.35-.8.4-9.65 4.8.05 10.3L-1.85.45l.4-.2.3-.15.9-.45" fill="#e2e0d6" fill-rule="evenodd" transform="translate(36 34.35)"/><path d="m12.85-17.3 1.2-.6v10.25l-.9.45-.3.15-.4.2L1.3-1.25l-.05-10.3 9.65-4.8.8-.4.75-.35.4-.2M9.45-3.6l1.45-.75.8-.4.75-.35.4-.2 1.2-.6V4.35l-.9.45-.3.15-.4.2-11.15 5.6V9.9L9.45-3.6M1.3 5.95 1.25.45l3.65-1.8-3.6 7.3M25-13.1l-9.7 4.85-.05-10.3 9.65-4.8.8-.4.75-.35.4-.2 1.2-.6v3.9L25-13.1M23.75-.45l-8.45 4.2-.05-10.3 9.65-4.8.8-.4.75-.35.4-.2 1.2-.6v5.15l-4.3 7.3M-18.7-1.4l1.3-.65.8-.4.75-.35.4-.2 1.2-.6V6.65l-.9.45-.3.15-.4.2-11.15 5.6v-1.4l8.3-13.05M-27 7.15l-.05-4.4L-22.7.6-27 7.15M-.25-.35l-.9.45-.3.15-.4.2L-13 6.05l-.05-10.3 9.65-4.8.8-.4.75-.35.4-.2 1.2-.6V-.35m-2.35 2.9.75-.35.4-.2 1.2-.6v10.25l-.9.45-.3.15-.4.2-11.15 5.6-.05-10.3 9.65-4.8.8-.4m-14 7 .75-.35.4-.2 1.2-.6v10.25l-.9.45-.3.15-.4.2-11.15 5.6-.05-10.3 9.65-4.8.8-.4" fill="#fff" fill-rule="evenodd" transform="translate(36 34.35)"/><path d="m4.9-1.35.2-.1L9.45-3.6 1.3 9.9V5.95l3.6-7.3M28.05-21v6.35l-.9.45-.3.15-.4.2-1.45.75 3.05-7.9m0 13.25v5.1l-.9.45-.3.15-.4.2-2.7 1.4 4.3-7.3M-27 11.65v-4.5L-22.7.6l4-2-8.3 13.05" fill="#b0ffff" fill-rule="evenodd" transform="translate(36 34.35)"/><path d="m0 16.3-.05-.05H0v.05m0-3.25L-.05 13H0v.05" fill="#d1ccc5" fill-rule="evenodd" transform="translate(36 34.35)"/><path d="m48.85 17.05 1.2-.6V26.7l-.9.45-.3.15-.4.2-11.15 5.6-.05-10.3L46.9 18l.8-.4.75-.35.4-.2M40.9 33l.2-.1 4.35-2.15L46.9 30l.8-.4.75-.35.4-.2 1.2-.6V38.7l-.9.45-.3.15-.4.2-11.15 5.6v-4.8l-.05-5.5L40.9 33M61 21.25l-9.7 4.85-.05-10.3L60.9 11l.8-.4.75-.35.4-.2 1.2-.6V19.7l-.9.45-.3.15-.4.2-1.45.75M59.75 33.9l-8.45 4.2-.05-10.3L60.9 23l.8-.4.75-.35.4-.2 1.2-.6V31.7l-.9.45-.3.15-.4.2-2.7 1.4m-23.8 16.7L.25 68.5V36L36 18.1v.05L71.7.25v32.5L36 50.65l-.05-.05H36v.05m-.05-3.3-31.9 16v-26l31.95-16v.05l31.95-16v26L36 47.4l-.05-.05H36v.05M17.3 32.95l1.3-.65.8-.4.75-.35.4-.2 1.2-.6V41l-.9.45-.3.15-.4.2L9 47.4v-5.9l-.05-4.4 4.35-2.15 4-2M35.75 34l-.9.45-.3.15-.4.2L23 40.4l-.05-10.3 9.65-4.8.8-.4.75-.35.4-.2 1.2-.6V34m-2.35 2.9.75-.35.4-.2 1.2-.6V46l-.9.45-.3.15-.4.2L23 52.4l-.05-10.3 9.65-4.8.8-.4m-14 7 .75-.35.4-.2 1.2-.6V53l-.9.45-.3.15-.4.2L9 59.4l-.05-10.3 9.65-4.8.8-.4" fill="none" stroke="#999" stroke-linecap="round" stroke-linejoin="round" stroke-width=".5"/></g><g id="F"><path d="m-20.75-22.55-3.7 2.5v-4.35l3.7 1.85m-3.7 10.75 10.25-7.45-.1-.15 7.1 3.6v.05l-17.25 12.4v-8.45" fill="#b0ffff" fill-rule="evenodd" transform="translate(28.8 30.8)"/><path d="m23.8-.4.05.15h.05V24.5L-1.95 11.55V-13.1v24.65L-24.45.2v-3.55l17.25-12.4v-.05l1.25.65 3.85 2.05-.05-.15.2.15v-.05L23.8-.4m-48.25-19.65 3.7-2.5 6.45 3.15.1.15-10.25 7.45v-8.25" fill="#fff" fill-rule="evenodd" transform="translate(28.8 30.8)"/><path d="M23.9-.25h-.05L23.8-.4l.1.15-.1-.15-25.75-12.75-.2-.1-3.8-1.9 3.8 1.9.05.15-3.85-2.05-1.25-.65-7.1-3.6-6.45-3.15-3.7-1.85V.2l22.5 11.35L23.9 24.5V-.25m-12.45-10.3 17.4 8.75.05 32.5-17.45-8.75h-.05l-39.95-20v-32.5l39.95 20h.05M25.8 27.6V-1.65L-25.9-27.5V1.75L25.8 27.6-25.9 1.75V-27.5L25.8-1.65V27.6" fill="#d1ccc5" fill-rule="evenodd" transform="translate(28.8 30.8)"/><path d="m52.7 30.55-.1-.15-25.75-12.75v24.7L52.7 55.3V30.55m-12.45-10.3L57.65 29l.05 32.5-17.45-8.75h-.05l-39.95-20V.25l39.95 20h.05M54.6 58.4 2.9 32.55V3.3l51.7 25.85V58.4M8.05 8.25 4.35 6.4V19m10.15-7.6L8.05 8.25m-3.7 19.2V19m22.3-1.45.2.1m-4-2 3.8 1.9m-3.8-1.9L21.6 15M4.35 27.45V31l22.5 11.35M14.5 11.4l7.1 3.6" fill="none" stroke="#999" stroke-linecap="round" stroke-linejoin="round" stroke-width=".5"/></g><g id="V" transform="translate(16.75 45.3)"><use height="52.2" transform="translate(-16.75 -27)" width="33.8" xlink:href="#c"/><use height="7.5" transform="matrix(.5 0 0 .5 -6.925 -.325)" width="29.6" xlink:href="#d"/><use height="56.25" transform="matrix(.25 0 0 .25 -1.05 -17.8)" width="5.65" xlink:href="#e"/><use height="33.75" transform="matrix(.25 0 0 .25 -1.05 -12.188)" width="5.6" xlink:href="#f"/><use height="166.5" transform="matrix(.25 0 0 .25 -15.175 -45.313)" width="122" xlink:href="#g"/><use height="1.3" transform="translate(-1 -4.4)" width="1.3" xlink:href="#h"/><use height="18" transform="matrix(.25 0 0 .25 -3 -18.35)" width="21.9" xlink:href="#text1"/><use height="18" transform="matrix(.25 0 0 .25 9.6 -5.45)" width="21.9" xlink:href="#text2"/><use height="18" transform="matrix(.25 0 0 .25 -15.65 -5.45)" width="21.9" xlink:href="#text3"/><use height="18" transform="matrix(.25 0 0 .25 -3 6.9)" width="21.9" xlink:href="#text4"/></g><g id="c"><path d="M1.65 12.75V13h-4v-.4l2.5.2 1.5-.05" fill="url(#i)" fill-rule="evenodd" transform="translate(16.75 27)"/><path d="M-2.35 12.6q-5.3-.75-9.25-4.7-4.9-4.9-4.9-11.75 0-5.55 3.15-9.8l-.1-1.95v-.2q.1-5.45 3.7-10.95l6.6 6.55 3.3-.3q3.55 0 6.55 1.3l5.8-6.8q3.75 7.25 2.5 14.55 1.8 3.4 1.8 7.6Q16.8 3 11.9 7.9q-4.35 4.35-10.25 4.85l-1.5.05-2.5-.2" fill="url(#j)" fill-rule="evenodd" transform="translate(16.75 27)"/><path d="M1.65 16q1.8.25 3.7 1v7.95q-5.1-1.95-11.1 0V17q1.65-.75 3.4-1.05 1.9-.3 4 .05" fill="url(#k)" fill-rule="evenodd" transform="translate(16.75 27)"/><path d="M1.65 13v3q-2.1-.35-4-.05V13h4" fill="url(#l)" fill-rule="evenodd" transform="translate(16.75 27)"/><path d="M18.4 39.75v3.2m0 .05q1.8.25 3.7 1v7.95Q17 50 11 51.95V44q1.65-.75 3.4-1.05V39.6m0 3.35q1.9-.3 4 .05" fill="none" stroke="#999" stroke-linecap="round" stroke-linejoin="round" stroke-width=".5"/><path d="M14.4 39.6q-5.3-.75-9.25-4.7Q.25 30 .25 23.15q0-5.55 3.15-9.8l-.1-1.95v-.2Q3.4 5.75 7 .25l6.6 6.55 3.3-.3q3.55 0 6.55 1.3l5.8-6.8q3.75 7.25 2.5 14.55 1.8 3.4 1.8 7.6 0 6.85-4.9 11.75-4.35 4.35-10.25 4.85m-4-.15 2.5.2 1.5-.05z" fill="none" stroke="#999" stroke-linecap="round" stroke-linejoin="round" stroke-width=".5"/></g><g transform="translate(-1.35 -.35)" id="d"><use height="7.5" transform="translate(0 7) scale(.0078)" width="29.6" xlink:href="#m"/><use height="7.5" transform="translate(8.05 7) scale(.0078)" width="29.6" xlink:href="#n"/><use height="7.5" transform="translate(16.1 7) scale(.0078)" width="29.6" xlink:href="#o"/><use height="7.5" transform="translate(24.15 7) scale(.0078)" width="29.6" xlink:href="#p"/></g><g id="I"><path d="M0-30 2.5 0h-5L0-30" fill="#fffff8" fill-rule="evenodd" transform="translate(2.5 30)"/><path d="M2.5 0 0 30h5z" fill="none" stroke="#000" stroke-linecap="round" stroke-linejoin="round" stroke-width=".05"/></g><g id="g" transform="translate(59.3 166.25)"><use height="109.2" transform="translate(-.25 -108.95)" width=".5" xlink:href="#q"/><use height="16.1" transform="matrix(-2.5462 -1.47 2.2012 -3.8124 27.26 -54.9)" width="34" xlink:href="#r"/></g><g id="J"><path d="m3.6-10.85.65.6 1.1 1.3L7-9.45l7.05-2.15.15.5 8.5-2.45h.05l.75.35.1.1.1-.1q2-1.4 3.25-3.75l2 1.65 1.95 1.55q-1.95 3.7-5.9 5.65l-.75-.45-4.6 1.25-.1-.25-.35-.3-.5.1-.3.35v.4l-2.2.6-.95-.35.1.4-6.7 1.75-1.2 1.45.05.8.35.5L-2.1-4.1l5.7-6.75m14.35.7.45-.1.3-.4-.05-.5-.35-.3-.5.1-.3.35q-.1.25.05.55l.4.3m6.5-.6q2.6-1.2 4.5-4.55-1.9 3.35-4.5 4.55m-9.2 4L14.2-11.1l1.05 4.35" fill="#fcb6c4" fill-rule="evenodd" transform="translate(2.6 17.45)"/><path d="m19.65-7.3-.05.25-.3.4-.45.1-.4-.3L18.4-7v-.4l.3-.35.5-.1.35.3.1.25m-1.7-2.85-.4-.3q-.15-.3-.05-.55l.3-.35.5-.1.35.3.05.5-.3.4-.45.1" fill-rule="evenodd" transform="translate(2.6 17.45)"/><path d="m7-9.45 7.05-2.15.15.5 1.05 4.35.1.4-6.7 1.75m14.85-8.6.1.1.1-.1q2-1.4 3.25-3.75m3.95 3.2q-1.95 3.7-5.9 5.65M7.85-1.85-2.1-4.1l5.7-6.75m25.35-4.45q-1.9 3.35-4.5 4.55" fill="none" stroke="#000" stroke-linecap="round" stroke-linejoin="round" transform="translate(2.6 17.45)"/></g><g id="h"><path d="m.3-3.75-.2.45q-.2.2-.45.2l-.45-.2-.2-.45.2-.45.45-.2.45.2.2.45" fill-rule="evenodd" transform="translate(1 4.4)"/><path d="m1.3.65-.2.45q-.2.2-.45.2L.2 1.1 0 .65.2.2.65 0l.45.2z" fill="none" stroke="#000" stroke-linecap="round" stroke-linejoin="round" stroke-width=".05"/></g><g id="K"><path d="M-11.95-1.45 0-7.45l12 6-11.95 6-12-6" fill="#ccc" fill-rule="evenodd" transform="translate(12.8 7.7)"/><path d="m12-1.45.55 2.65L.05 7.45l-12.6-6.3.6-2.6 12 6 11.95-6m-11.95 6v2.9-2.9" fill="#999" fill-rule="evenodd" transform="translate(12.8 7.7)"/><path d="m.85 6.25 11.95-6 12 6 .55 2.65-12.5 6.25-12.6-6.3.6-2.6 12 6 11.95-6m-11.95 8.9v-2.9" fill="none" stroke="#999" stroke-linecap="round" stroke-linejoin="round" stroke-width=".5"/></g><g id="L"><path d="M3.75 5.3v.45l-.15.3-.3.1-.35-.1-.1-.3v-.3Q-.4 3.8-3.7 2.1v.1l-.15.3-.3.1-.35-.1-.1-.3q1.15-3.95 0-7.95l.1-.3.35-.1.3.1.15.3v.05l6.55 3.5.1-.3.35-.1.3.1.15.3v.9l.3.7q.95 2.95-.3 5.9" fill="#d6d001" fill-rule="evenodd" transform="translate(4.85 6.4)"/><path d="M3.75 5.3Q5 2.35 4.05-.6q.85 2.4.35 4.25L3.75 5.3" fill="#ff0" fill-rule="evenodd" transform="translate(4.85 6.4)"/><path d="m8.9 5.8-.3-.7v-.9l-.15-.3-.3-.1-.35.1-.1.3L1.15.7V.65L1 .35.7.25l-.35.1-.1.3q1.15 4 0 7.95l.1.3.35.1.3-.1.15-.3v-.1q3.3 1.7 6.55 3.35v.3l.1.3.35.1.3-.1.15-.3v-.45q1.25-2.95.3-5.9z" fill="none" stroke="#999" stroke-linecap="round" stroke-linejoin="round" stroke-width=".5"/></g><g id="Y"><path d="M4.7-88.75q-.9-1.65-1.8-2.55l.7.35 1.1 2.2" fill="#ff0" fill-rule="evenodd" transform="translate(115.15 152.8)"/><path d="M-8.65-97.3q-2.4 1.65-2.45 4.15l-103.8-54v-5.4L-8.65-97.3m3.35 18.45q2.65.1 4.95 1.8l-21.55 80h-5.6l22.2-81.8m9.8 1.3q.75-.9 1.85-1.4 1.3-.6 3.05-.6l28.2 54.5H31L4.5-77.55" fill="#6cf" fill-rule="evenodd" transform="translate(115.15 152.8)"/><path d="M119.85 64.05q-.9-1.65-1.8-2.55-1.05-1.1-2.05-1.1l-2.6-1.35h-.05l-6.85-3.55L.25.25m103.8 59.4 8.5 4.4-2.7 9.9-22.2 81.8m27.15-80 1.6-5.9.2-.65.15.35.25.5 2.65 5.2 26.5 52.5m-21.6-54.5-2.05-4-2.65-5.2m-3.45 5.8.6.2-.15-.3-.2-.4.1.2.1.2m35.9 58-28.2-54.5M.25 5.65l103.8 54m-10.8 96.1 21.55-80" fill="none" stroke="#999" stroke-linecap="round" stroke-linejoin="round" stroke-width=".5"/><path d="M11.25-77.9q1.25 0 .85 1.7-2.3.05-3.95.8-1.45.6-2.4 1.8-1.65-.75-.75-1.5l-3.25-6.35-1.9 6.9q.95.8-.4 1.6Q-3.6-75.15-7-75.3q-1.3-.8.4-1.55l3.1-11.3v-.05l-10-5.15q-2 .8-1.45-2.25.5-3.05 2.4-4.05 1.85-1.1 2.1.85l8 4.15h.05L.95-92.9q3.2 1.35 4.65 4l3.8 7.5h.05l1.8 3.5q-3.6.3-6.25 2.8 2.65-2.5 6.25-2.8M-6.6-76.85q3.5-.05 6.45 2.3-2.95-2.35-6.45-2.3m-3.85-21.95q-3.2 1.45-3.05 5.45-.15-4 3.05-5.45" fill="#ff0" fill-rule="evenodd" transform="translate(115.15 152.8)"/><path d="M126.4 74.9q1.25 0 .85 1.7-2.3.05-3.95.8-1.45.6-2.4 1.8-1.65-.75-.75-1.5l-3.25-6.35-1.9 6.9q.95.8-.4 1.6-3.05-2.2-6.45-2.35-1.3-.8.4-1.55l3.1-11.3v-.05l-10-5.15q-2 .8-1.45-2.25.5-3.05 2.4-4.05 1.85-1.1 2.1.85l8 4.15h.05l3.35 1.75q3.2 1.35 4.65 4l3.8 7.5h.05l1.8 3.5q-3.6.3-6.25 2.8m-18.5-18.25q-.15-4 3.05-5.45M115 78.25q-2.95-2.35-6.45-2.3" fill="none" stroke="#999" stroke-linecap="round" stroke-linejoin="round" stroke-width=".5"/></g><g id="M"><path d="M.4 1 .8-.25 0-.85l.25-.2 1.05.8L.9 1H.4M.8-.25h.5-.5" fill="#d6d001" fill-rule="evenodd" transform="translate(1.55 1.3)"/><path d="m0-.85.8.6L.4 1H-.9l-.4-1.25 1.05-.8.25.2" fill="#ff0" fill-rule="evenodd" transform="translate(1.55 1.3)"/><path d="m1.95 2.3.4-1.25-.8-.6-.25-.2-1.05.8.4 1.25h1.8l.4-1.25h-.5M1.8.25l1.05.8m-1.3-.6.25-.2h-.5" fill="none" stroke="#999" stroke-linecap="round" stroke-linejoin="round" stroke-width=".5"/></g><g id="N"><path d="m3.05-11.65.15-.4.15-.4.4-.15.4.15.15.4-.4.85q-.45 1-.6 2.05-.4 2.6 1 5.25l-.1.35.1.2-.2-.1-.35.1q-.25 0-.4-.15l-.15-.35v-.05q-1.6-3.9-.15-7.75Q1.6-7.8 3.2-3.9l-1.6-.8-.1.1q-1.35 1.3.1 2.65L-.1-2.8q-1.3-1.25-.25-2.5l.3-.25.75.4.2.1.7.35-.7-.35-.2-.1-.75-.4-1.45-.75q-.45.65-.5 1.3l.2 1 .2.4-.35-.15-.55-.3-.3-.15q-1.6-.8-.45-2.15-.25 0-.4-.15l-.15-.4q-1.65-4.05 0-8.15l.15-.4.4-.15.4.15.15.4-.1.25q2.9 1.55 5.85 3.15M-1.5-6.3l-1.2-.6q-2.1-3.95-.1-7.9-2 3.95.1 7.9l1.2.6" fill="#ff0" fill-rule="evenodd" transform="translate(4.9 15.85)"/><path d="M3.2-3.9v.05l-.35.35-.5.7.1 1 .6.55q.1.05.25.15-.15-.1-.25-.15l-.6-.3-.85-.4Q.15-3.3 1.5-4.6l.1-.1 1.6.8M-.05-5.55l-.3.25Q-1.4-4.05-.1-2.8l-1.5-.8-.2-.4-.2-1q.05-.65.5-1.3l1.45.75" fill="#e0da01" fill-rule="evenodd" transform="translate(4.9 15.85)"/><path d="m3.2-3.85.15.35q.15.15.4.15l.35-.1.2.1Q5.7-1.9 3.35-1.1H3.3q-.15-.1-.25-.15l-.6-.55-.1-1 .5-.7.35-.35" fill="#d6d001" fill-rule="evenodd" transform="translate(4.9 15.85)"/><path d="M3.05-1.25v.1L2.6.55 2.55.7 2.5.8l-.3.55-.05.05q-.9 1.25-2.1 1.25-1.25 0-2.1-1.3l-.2-.3.6-.35Q-1 1.75 0 1.75q1 0 1.75-1.05L1.9.5 2 .25l.25-.65.15-.85.05-.3.6.3" fill="url(#s)" fill-rule="evenodd" transform="translate(4.9 15.85)"/><path d="m2.6.55.2 1.6v.1l-.6-.05-.05-.8.05-.05.3-.55.05-.1.05-.15M-3.2 2.3v-.15L-3.05.8l.3-.95-.2-1.55v-.15l.15-1.35.3-.85.55.3-.25.6-.15 1.35.05.85q.85-1.3 2.1-1.25 1.25-.05 2.15 1.3l.3.5L2 .25 1.9.5l-.4-.75Q.75-1.3-.25-1.3T-1.9-.25l-.15.2.4.75-.6.35-.15-.3-.05.1-.15 1.35-.6.1" fill="#666" fill-rule="evenodd" transform="translate(4.9 15.85)"/><path d="M2.8 2.25v.6L2.3 4.7l-.1.2-.25.45q-.45.65-1 .95l-.15.1-1 .25-1.05-.3-1.05-1q-.9-1.3-.9-3.05l.6-.1q-.05 1.45.7 2.5.65 1.05 1.65 1.05l1.2-.45.4-.4.15-.2.25-.45.4-1.5.05-.55.6.05" fill="url(#t)" fill-rule="evenodd" transform="translate(4.9 15.85)"/><path d="m9.2 12.5-.1-.2.1-.35Q7.8 9.3 8.2 6.7q.15-1.05.6-2.05l.4-.85-.15-.4-.4-.15-.4.15-.15.4-.15.4q-1.45 3.85.15 7.75V12l.15.35q.15.15.4.15l.35-.1.2.1q1.4 1.45-.95 2.25H8.2q-.15-.1-.25-.15l-.6-.55-.1-1 .5-.7.35-.35m-5.7-.2-.3-.15q-1.6-.8-.45-2.15-.25 0-.4-.15l-.15-.4Q-.55 4.9 1.1.8l.15-.4.4-.15.4.15.15.4-.1.25Q5 2.6 7.95 4.2m.25 10.55q-.15-.1-.25-.15M6.5 11.15l-.7-.35-.2-.1-.75-.4m-.05 2.75 1.7.85.85.4.6.3m-5-2.5-.55-.3m4.1-.65 1.6.8m-6-10.9q-2 3.95.1 7.9l1.2.6 1.45.75M3.3 12.25l1.5.8m-1.5-.8-.35-.15" fill="none" stroke="#999" stroke-linecap="round" stroke-linejoin="round" stroke-width=".5"/><path d="M7.95 14.6v.1l-.45 1.7.2 1.6v.7l-.5 1.85-.1.2-.25.45q-.45.65-1 .95l-.15.1-1 .25-1.05-.3-1.05-1q-.9-1.3-.9-3.05V18l.15-1.35.3-.95-.2-1.55V14l.15-1.35.3-.85m4.75 3.65.15-.85.05-.3m-.2 1.15-.3-.5q-.9-1.35-2.15-1.3-1.25-.05-2.1 1.25l-.05-.85.15-1.35.25-.6m3.85 4.25.1-.25.25-.65m.35.95-.05.15-.05.1-.3.55-.05.05.05.8-.05.55-.4 1.5-.25.45-.15.2-.4.4-1.2.45q-1 0-1.65-1.05-.75-1.05-.7-2.5l.15-1.35.05-.1.15.3.2.3q.85 1.3 2.1 1.3 1.2 0 2.1-1.25m-3.8-.7Q3.9 17.6 4.9 17.6q1 0 1.75-1.05l.15-.2-.4-.75q-.75-1.05-1.75-1.05T3 15.6l-.15.2.4.75" fill="none" stroke="#666" stroke-linecap="round" stroke-linejoin="round" stroke-width=".5"/></g><g id="aa"><path d="m19.15-6.85 3.8 1.9L9.6 1.7l-31.95-16 5.85-2.9L11.65-3.1l7.5-3.75" fill-opacity=".2" fill-rule="evenodd" transform="translate(22.35 80.95)"/><path d="m19.15-6.85-7.5 3.75-28.15-14.1-3.8-1.9v-3l31.95 16L25-12.75v3l-5.85 2.9m-7.5 3.75v-3 3" fill="url(#u)" fill-rule="evenodd" transform="translate(22.35 80.95)"/><path d="m-20.3-22.1 5-2.5v1l.9.1-.9-.1.9-.5v.6l1.4-.75v-1.5l.75-.4.7.15h.05v-.5l.05-.05v.55l.3-.05v.3l.9-.45v.55l1.25-.6v-1.5l2-1 32 16L11.65-6.1l-31.95-16m9.15-3.65.9.1-.9-.1" fill="#a65300" fill-rule="evenodd" transform="translate(22.35 80.95)"/><path d="m-12.3-80.65.95.15 1.1-.2v9.4l-1.15-.2-.9.15v-9.3" fill="url(#v)" fill-rule="evenodd" transform="translate(22.35 80.95)"/><path d="M-11.6-34.85h-.8V-58.1q.45.3 1.05.3l1-.25v23.2h-1.25m-2.5-30.3-.25-1.75v-.15l.15-1.35.5-1.35.05-.05.2-.3 1.05-1.05.8-.25h.25l1 .25 1.15 1.05.2.35q.65 1.15.65 2.7v.05h-.6q0-1.45-.7-2.45l-.7-.7q-.5-.35-1.05-.35l-1 .35-.65.7-.55 1.1-.15 1.35q-.05.9.25 1.7l.05-.05.5-.65.55-.4.8-.25h.25l1 .25 1.15 1.05.25.4.15.35.2.6q.25.75.25 1.7v.05h-.6q0-.9-.25-1.6l-.2-.45-.2-.3-.05-.1-.7-.7q-.5-.35-1.05-.35l-1 .35-.55.55-.55-.45-.6.15" fill="url(#w)" fill-rule="evenodd" transform="translate(22.35 80.95)"/><path d="m-12.4-58.1-.5-.35-.55-.65-.2-.3v-.05q-.7-1.2-.7-2.7v-.15l.15-1.35.1-.4.2-.55-.2-.55.6-.15.55.45-.1.15-.1.1.1.1q.65 1.05 1.65 1.05l-.25.85q-1.05-.15-1.8-1.25l-.05-.05v.05l-.1.25-.15 1.35q-.05 1.45.7 2.5l.65.7q.45.35 1 .35t1.05-.35l.7-.7.2-.35.05-.1q.35-.7.4-1.5l.05-.55h.6v.65q-.1 1-.5 1.85l-.35.65q-.55.7-1.15 1.05l-1 .25q-.6 0-1.05-.3m4.05-8.9v.65q-.1.8-.35 1.5l-.1.25-.15-.35-.25-.4.2-1.1.05-.55h.6" fill="#ccc" fill-rule="evenodd" transform="translate(22.35 80.95)"/><path d="M-11.4-63.45q1 0 1.75-1.05l.05-.1.2.3.2.45q-.9 1.3-2.15 1.3l-.3-.05.25-.85" fill="url(#x)" fill-rule="evenodd" transform="translate(22.35 80.95)"/><path d="M-15.3-24.6v-3.35l.9-1.05.55-.45q1.55-1.1 3.95-.95v.1h-.1q-2.3.15-3.65 1.55l-.5.55-.25.35v3.75l-.9.5v-1m.75-5.75v-.15l.15-1.35q.2-.95.75-1.7.85-1.3 2.05-1.3h.1v.9h-.1q-1 0-1.65 1.05l-.55 1.1-.15 1.35-.6.1m3.2-4.5q1.15.05 2 1.3.85 1.25.85 3.05v.1l-.6-.05q0-1.45-.7-2.45-.7-1-1.65-1.05v-.9h.1m.05 6.35 1.05.15v2.15l-.9.45v-2.7l-.15-.05" fill="#666" fill-rule="evenodd" transform="translate(22.35 80.95)"/><path d="m-14.4-29-.15-1.35.6-.1.1 1-.55.45m1.4 2.45v-.4l.25-.4q.5.45 1.15.45h.1v.9h-.05l-.7-.15-.75-.4" fill="url(#y)" fill-rule="evenodd" transform="translate(22.35 80.95)"/><path d="M-8.5-30.4v.6q-.1 1-.5 1.8v-2.3h-.1v-.15l.6.05m-2.65 3.45v.9l-.3.05v-.9l.3-.05" fill="url(#z)" fill-rule="evenodd" transform="translate(22.35 80.95)"/><path d="M-9-28v1.75l-1.25.6v-2.7l-1.05-.15q-.85.1-1.45 1.15l-.25.4v2.7l-1.4.75v-4.35l.25-.35.5-.55q1.35-1.4 3.65-1.55h1v2.3" fill="url(#A)" fill-rule="evenodd" transform="translate(22.35 80.95)"/><path d="M41.5 74.1 34 77.85 5.85 63.75l-3.8-1.9v-3l5-2.5m6.3-3.15 2-1 32 16v3l-5.85 2.9m-7.5.75v3m13.35-9.65L34 74.85l-31.95-16m8.85-4.45-.05.05m-.75.35-.75.4m-1.4 2.25-.9-.1m5.05-2.05-.9-.1" fill="none" stroke="#999" stroke-linecap="round" stroke-linejoin="round" stroke-width=".5"/><path d="M7.05 56.35V53l.9-1.05-.15-1.35v-.15l.15-1.35q.2-.95.75-1.7.85-1.3 2.05-1.3h-.8V22.85l-.5-.35-.55-.65-.2-.3v-.05Q8 20.3 8 18.8v-.15l.15-1.35.1-.4.2-.55-.2-.55L8 14.05v-.15l.15-1.35.5-1.35.05-.05.2-.3L9.95 9.8l.8-.25H11l1 .25 1.15 1.05.2.35q.65 1.15.65 2.7v.7q-.1.8-.35 1.5l-.1.25.2.6q.25.75.25 1.7v.7q-.1 1-.5 1.85l-.35.65q-.55.7-1.15 1.05v23.2h-1q1.15.05 2 1.3.85 1.25.85 3.05v.7q-.1 1-.5 1.8v.25M10.05.3v9.3m2.05.05V.25m1.3 13.7-.05.55-.2 1.1.25.4.15.35m-.8 0-.05-.1-.7-.7q-.5-.35-1.05-.35l-1 .35-.55.55-.1.15-.1.1.1.1q.65 1.05 1.65 1.05 1 0 1.75-1.05l.05-.1.2.3.2.45q.25.7.25 1.6l-.05.55q-.05.8-.4 1.5l-.05.1-.2.35-.7.7q-.5.35-1.05.35t-1-.35l-.65-.7q-.75-1.05-.7-2.5l.15-1.35.1-.25v-.05l.05.05q.75 1.1 1.8 1.25l.3.05q1.25 0 2.15-1.3m.25-3.15q0-1.45-.7-2.45l-.7-.7q-.5-.35-1.05-.35l-1 .35-.65.7-.55 1.1-.15 1.35q-.05.9.25 1.7l.05-.05.5-.65.55-.4.8-.25H11l1 .25 1.15 1.05m-3.2 7.25q.45.3 1.05.3l1-.25m-1.1 23.2h.1m-.15 0h.05m0 .9q.95.05 1.65 1.05t.7 2.45m-2.4-3.5h-.1q-1 0-1.65 1.05l-.55 1.1-.15 1.35.1 1q1.55-1.1 3.95-.95v.1h.8v-.15m-2.5-4.4h.05m1.3 8.65V52.6l-1.05-.15.15.05v2.7l.9-.45v.55l1.25-.6v-1.5m-5.4 3.65V53.1l.25-.35.5-.55q1.35-1.4 3.65-1.55h.1m-4.5 1.3.55-.45m.85 3.7V54l.25-.4q.6-1.05 1.45-1.15m-.2 2.5h-.05l-.7-.15m-.75.4v1.5l-1.4.75m-.9-.1v-1m3.8-2.3h-.1q-.65 0-1.15-.45m1.3 1.35.3-.05m0-.9-.3.05m-1.55.35.75.4m3.15-4.15h.1v2.3m-6.3 4.4.9-.5v.6" fill="none" stroke="#666" stroke-linecap="round" stroke-linejoin="round" stroke-width=".5"/></g><use height="68.75" width="71.95" xlink:href="#B" id="P"/><use height="61.75" width="57.95" xlink:href="#C" id="Q"/><use height="2.55" width="3.1" xlink:href="#D" id="b"/><use height="68.75" width="71.95" xlink:href="#E" id="T"/><use height="61.75" width="57.95" xlink:href="#F" id="U"/><use height="56.25" width="5.65" xlink:href="#G" id="e"/><use height="30" transform="translate(-.013) scale(1.125)" width="5" xlink:href="#H" id="f"/><use height="30" width="5" xlink:href="#I" id="H"/><use height="16.1" width="34" xlink:href="#J" id="r"/><use height="15.4" width="25.6" xlink:href="#K" id="X"/><use height="12.8" width="9.55" xlink:href="#L" id="R"/><use height="2.55" width="3.1" xlink:href="#M" id="Z"/><use height="22.75" width="9.95" xlink:href="#N" id="ab"/><radialGradient cx="0" cy="0" gradientTransform="translate(3.05 -1.75) scale(.0076)" gradientUnits="userSpaceOnUse" id="s" r="819.2" spreadMethod="pad"><stop offset="0"/><stop offset="1" stop-color="#fff"/></radialGradient><radialGradient cx="0" cy="0" gradientTransform="translate(2.8 2.25) scale(.0076)" gradientUnits="userSpaceOnUse" id="t" r="819.2" spreadMethod="pad"><stop offset="0"/><stop offset="1" stop-color="#fff"/></radialGradient><radialGradient cx="0" cy="0" gradientTransform="matrix(.1355 0 0 .3085 -5.9 -26.5)" gradientUnits="userSpaceOnUse" id="u" r="819.2" spreadMethod="pad"><stop offset="0" stop-color="#9c4e4e"/><stop offset=".6" stop-color="#603724"/><stop offset="1" stop-color="#848400"/></radialGradient><radialGradient cx="0" cy="0" gradientTransform="translate(-8.35 -66.95) scale(.0076)" gradientUnits="userSpaceOnUse" id="x" r="819.2" spreadMethod="pad"><stop offset="0"/><stop offset="1" stop-color="#fff"/></radialGradient><radialGradient cx="0" cy="0" gradientTransform="translate(-8.55 -30.4) scale(.0076)" gradientUnits="userSpaceOnUse" id="y" r="819.2" spreadMethod="pad"><stop offset="0"/><stop offset="1" stop-color="#fff"/></radialGradient><radialGradient cx="0" cy="0" gradientTransform="translate(-8.5 -30.4) scale(.0076)" gradientUnits="userSpaceOnUse" id="z" r="819.2" spreadMethod="pad"><stop offset="0"/><stop offset="1" stop-color="#fff"/></radialGradient><radialGradient cx="0" cy="0" gradientTransform="translate(-11.65 -27.1) scale(.0063)" gradientUnits="userSpaceOnUse" id="A" r="819.2" spreadMethod="pad"><stop offset="0"/><stop offset="1" stop-color="#fff"/></radialGradient><linearGradient gradientTransform="matrix(.019 .019 -.0115 .0115 -3.2 42.35)" gradientUnits="userSpaceOnUse" id="i" spreadMethod="pad" x1="-819.2" x2="819.2"><stop offset="0" stop-color="#fffff8"/><stop offset="1" stop-color="#999"/></linearGradient><linearGradient gradientTransform="matrix(.0144 .0144 -.0144 .0144 .15 -3.85)" gradientUnits="userSpaceOnUse" id="j" spreadMethod="pad" x1="-819.2" x2="819.2"><stop offset="0" stop-color="#fffff8"/><stop offset="1" stop-color="#999"/></linearGradient><linearGradient gradientTransform="matrix(.0068 0 0 .0048 -.2 20.95)" gradientUnits="userSpaceOnUse" id="k" spreadMethod="pad" x1="-819.2" x2="819.2"><stop offset="0" stop-color="#fffff8"/><stop offset="1" stop-color="#999"/></linearGradient><linearGradient gradientTransform="matrix(.019 .019 -.0115 .0115 -3.2 31.4)" gradientUnits="userSpaceOnUse" id="l" spreadMethod="pad" x1="-819.2" x2="819.2"><stop offset="0" stop-color="#fffff8"/><stop offset="1" stop-color="#999"/></linearGradient><linearGradient gradientTransform="matrix(.0013 0 0 .0313 -11.3 -88.75)" gradientUnits="userSpaceOnUse" id="v" spreadMethod="pad" x1="-819.2" x2="819.2"><stop offset="0"/><stop offset="1" stop-color="#fff"/></linearGradient><linearGradient gradientTransform="matrix(.0013 0 0 .0313 -11.4 -60.6)" gradientUnits="userSpaceOnUse" id="w" spreadMethod="pad" x1="-819.2" x2="819.2"><stop offset="0"/><stop offset="1" stop-color="#fff"/></linearGradient><path d="M277.5-617q-105 104.5-105 262 0 173 97 270Q351-4 520-4q145.5 0 231-85l-5-5 21 90h81v-365H514v106h223.5q-11 48-56 93-60 60-165.5 60t-161.5-56Q295-225.5 295-355q0-121.5 63.5-185 64-64 173-64 120 0 190.5 114h122q-20.5-82-73.5-135-85.5-85-239-85-161 0-254 93" fill-rule="evenodd" id="m"/><path d="M404-702.5V-596h55v478h-55v106h220.5v-106h-55v-478h55v-106.5H404" fill-rule="evenodd" id="n"/><path d="M219.5-702.5V-12h111v-229l141-123.5L746-12h149L554-428.5l302-274H704.5L334.5-373v-329.5h-115" fill-rule="evenodd" id="o"/><path d="M516-710q-157 0-258.5 101Q157-508.5 157-359t100.5 250.5Q358.5-8 516-8q153.5 0 254.5-100.5 101-101.5 101-250.5t-101-250Q669.5-710 516-710m165.5 174Q745-472.5 745-359t-63.5 177.5Q613.5-114 516-114q-101.5 0-169-67.5-63.5-64-63.5-177.5T347-536q67.5-68 169-68 97.5 0 165.5 68" fill-rule="evenodd" id="p"/><path d="M0-56.2 2.85.05H-2.8L0-56.2" fill-rule="evenodd" transform="translate(2.8 56.2)" id="G"/><path d="M.25 108.95V.25" fill="none" stroke="#fff" stroke-linecap="round" stroke-linejoin="round" stroke-opacity="0" stroke-width=".5" id="q"/></defs><path d="m471.238 189.893-359.863 179.89L471.068 549.55l359.863-179.89z" fill="#faf092" fill-rule="evenodd" stroke="#a0a0a0" stroke-linejoin="round"/><path d="m379.39 461.42-20 10 7.65 3.8-34.9.25v-17.4l7.45 3.45 19.95-10 19.85 9.9" fill="#fc6" fill-opacity=".6"/><path d="m359.54 451.52-19.95 10-7.45-3.45v17.4l34.9-.25-7.65-3.8 20-10z" fill="none" stroke="#f60" stroke-linecap="round" stroke-linejoin="round" stroke-miterlimit="3" stroke-opacity=".6"/><path d="m641.95 294.585-19.95 10-19.85-9.9 20-10-7.6-3.8 34.85-.25v17.4l-7.45-3.45" fill="#fc6" fill-opacity=".6"/><path d="M649.4 298.035v-17.4l-34.85.25 7.6 3.8-20 10 19.85 9.9 19.95-10z" fill="none" stroke="#f60" stroke-linecap="round" stroke-linejoin="round" stroke-miterlimit="3" stroke-opacity=".6"/><path d="m342.395 275.27 19.95 10 19.85-9.9-20-10 7.6-3.8-34.85-.25v17.4l7.45-3.45" fill="#fc6" fill-opacity=".6"/><path d="M334.945 278.72v-17.4l34.85.25-7.6 3.8 20 10-19.85 9.9-19.95-10z" fill="none" stroke="#f60" stroke-linecap="round" stroke-linejoin="round" stroke-miterlimit="3" stroke-opacity=".6"/><use height="355.8" transform="translate(0 15.793)" width="504.4" xlink:href="#O"/><use height="68.75" transform="matrix(1.43 0 0 1.43 235.67 178.973)" width="71.95" xlink:href="#P"/><use height="61.75" transform="translate(29.457 263.392) scale(1.1039)" width="57.95" xlink:href="#Q"/><use height="68.75" transform="matrix(1.43 0 0 1.43 123.67 234.973)" width="71.95" xlink:href="#P"/><use height="12.8" transform="translate(456.28 146.25)" width="9.55" xlink:href="#R"/><g transform="translate(511.092 229.543)"><use height="355.6" transform="translate(-57.15 -213.55)" width="488.55" xlink:href="#S"/><use height="68.75" transform="matrix(-1.43 0 0 1.43 195.68 -50.57)" width="71.95" xlink:href="#T"/><use height="61.75" transform="matrix(-1.1039 0 0 1.1039 401.893 33.849)" width="57.95" xlink:href="#U"/><use height="68.75" transform="matrix(-1.43 0 0 1.43 307.68 5.43)" width="71.95" xlink:href="#T"/><use height="70.5" transform="matrix(1.1 0 0 1.1 -59.025 -238.629)" width="33.8" xlink:href="#V"/></g><use height="12.8" transform="translate(524.532 180.245)" width="9.55" xlink:href="#R"/><use height="12.8" transform="translate(484.548 160.951)" width="9.55" xlink:href="#R"/><use height="12.8" transform="translate(495.583 165.89)" width="9.55" xlink:href="#R"/><g transform="translate(111.032 -20.59)"><use height="109.6" transform="translate(277.287 153.395)" width="88.2" xlink:href="#W"/><g transform="translate(162.144 .74)"><use height="15.4" transform="translate(243.976 310.968)" width="25.6" xlink:href="#X"/><use height="15.4" transform="translate(304.576 281.568)" width="25.6" xlink:href="#X"/><use height="156" transform="translate(166.776 158.418)" width="153" xlink:href="#Y"/><path d="m260.026 314.118-1.05 3.75q-2.4.65-4.45-.05l-1-.45.9-3.25h5.6" fill="#6cf" fill-rule="evenodd"/><path d="m260.026 314.118-1.05 3.75q-2.4.65-4.45-.05l-1-.45.9-3.25" fill="none" stroke="#999" stroke-linecap="round" stroke-linejoin="round" stroke-width=".5"/><path d="m319.526 286.118 1 1.95-.55.35q-1.55.65-5.85.1l-1.2-2.4h6.6" fill="#6cf" fill-rule="evenodd"/><path d="m312.926 286.118 1.2 2.4q4.3.55 5.85-.1l.55-.35-1-1.95" fill="none" stroke="#999" stroke-linecap="round" stroke-linejoin="round" stroke-width=".5"/><use height="2.55" transform="translate(269.122 214.57)" width="3.1" xlink:href="#Z"/><use height="2.55" transform="translate(277.222 231.32)" width="3.1" xlink:href="#Z"/><use height="2.55" transform="rotate(-60 345.17 -133.01)" width="3.1" xlink:href="#Z"/></g></g><use height="82.65" width="47.6" xlink:href="#aa" transform="translate(448.715 168.517)"/><use height="82.65" width="47.6" xlink:href="#aa" transform="translate(488.406 187.27)"/><use height="22.75" transform="translate(455.08 146.35)" width="9.95" xlink:href="#ab"/><use height="22.75" transform="translate(483.398 161.051)" width="9.95" xlink:href="#ab"/><use height="22.75" transform="translate(494.633 166.14)" width="9.95" xlink:href="#ab"/><use height="22.75" transform="translate(523.554 180.458)" width="9.95" xlink:href="#ab"/><path d="m506.225 440.216 79.702 39.606 124.596-63.953-78.225-39.573z" fill="#804000" fill-rule="evenodd"/><path d="M199.94 370.695h-.15.15l.2.1v-.15l-.05.05h-.15m40.8 20.15.2.1v-.15l-.1.05h-.25l.05.05.1-.05m40.7-20.2.1-.05 40.8 20.25-40.7 20.15h-.25l.15.05-40.7 20.15-40.65-20.2-.15.05-40.65-20.2-.1.05q-20.4-10.1-40.75-20.25l40.6-20.1.2.1v-.2l40.6-20.15 40.7 20.2.1-.05 40.7 20.2" fill-opacity=".2" fill-rule="evenodd"/></svg>