<svg xmlns="http://www.w3.org/2000/svg" height="48.05" width="89.4"><path d="M40.2 47.8L.25 27.75V.25L40.2 20.3 80.05.35l9.1 12.55-9.1 4.7v10.25L40.2 47.8V20.3l7.95 13.75 31.9-16.45-31.9 16.45L40.2 20.3v27.5m-4.35-6.65q.85-.5 1.8-2.35l-.8-.65q-.9 1.85-1.65 2.25l-.75.1-.35-.5.15-1.3q.1-.75-.1-1.05-.15-.35-.6-.45-.45-.15-1 0l2.4-2.25q.35.05.2-.4l-.75-.6q-3 3.45-4.95 5.25l.8.7 1.1-1.3q.9-.85 1.65-.65.35.1.35.4l-.15 1.55q-.15 1.2.95 1.45l1.7-.2m-6.95-9.1l-.75.35q.8 1.45.85 3.8l.95-.1q.05-2.2-1.05-4.05m-5.65-.6l-.15.95 1.45.2q-1.3 2.1-2.75 3.4l.85.55q1.45-1.55 2.8-3.75l.8.1.3.2q.15.2-.1 1.1-.4 1.65-.85 1.9l-.3.05-.65-.8-.7.6q.45.95 1.15 1.15l.9-.15q.75-.45 1.3-2.4.35-1.45.1-1.95l-.75-.45-.75-.15.75-1.25q.5-.05.1-.45l-.7-.45q-.5 1.1-1.1 2l-1.7-.4m-2.4-10.05l-.85.55-.4-.9 1.25.35m-7.6 8.75q-.15.65.05 1.05l.7.5 1.1-.15q.4-.25 1.75-1.9l2.1 1.2q-.7 1.2-2 1.95l.65.7q1.3-.85 2-2.2l1.1.95.6-.65-1.25-1.05.5-1.7q.35-.2 0-.45l-.7-.35-.6 2-1.95-1.1 1.4-1.6q.4-.05.15-.45l-.5-.6-.45.05-2.25-.2.05.95h1.95l-1.15 1.6-2.2.2q-.85.5-1.05 1.25m1.05.65q-.2 0-.2-.15l-.05-.25.75-.85 1.25-.15-1.2 1.2q-.3.3-.55.2M9.4 17.45l-1.25.3-1-.9 2.25.6M6.5 14.5q.35.05.25-.4l-.65-.45-1.3 1.1.6.7q.7-.5 1.1-.95m6.05-2.1l-.3-.7-6.4-1.2v.85l3.45.75-.9.05.35 1-1.65-.4.7-.05-.4-.95-1 .05.35.85-1.85-.5L4.4 14l.95.25.25-1.1 3.15.85-.6.05.3 1.1.95-.15-.3-.9 2.85.75-.2.75-.5-.8-.8.25.8 1.65.9-.25-.25-.55.75.2.5-1.75-2-.55.65-.45q.55-.1.1-.45l-.5-.4.8.15q.55.25.35-.25m10.5 4.85q.35.05.2-.25l-.75-.55-.85 1.1.7.55.7-.85m-6.5-.45l.45.1-1.1 2.7-.45-.4 1.1-2.4m2.1-2l-.05.85 2.35.55-.7.15.3 1.25.9-.2-.3-1.15 1.85.25.4-.05-.2-.8-4.55-.85m.9 1.1l-.85.15.25 1.15-.6-.15-.25.9 1.15.35-.15.4-1.5-.4-.25.85 1.35.4q-.95 1.85-3 2.5l.35.9q1.8-.5 2.8-2l.4 1.35-1.9.25.1.85q1.35.05 2.25-.4l1.75 1.5.6-.75-1.6-1.15q.75-.35 1.35-.95.35.05.2-.35l-.6-.7-.1.05-1.9-.5.2-.4 3.35.9.25-.85-3.2-.85.15-.45 2.6.7.25-.9-3.95-1.05.8-.15q0-.6-.3-1.2m-2.15-1.3q.25.05.15-.3l-.9-.35-.65 1.8-.85-.25-.25.85.75.2-1.7 3.25.7.45.35-.4.4.45q-.55.7-1.9 1.05l.25.95Q15.05 22 16 21l.45.65.7-.6-.6-.85q.8-1.35 1.4-3.3l.2-.15-.45-.65-.15.05-.65-.15.5-1.4M3.6 17.45l-.05 1 4.3.15q1.05 1.05 3.45 1.85l.65-.9q-2-.55-3.1-1.2.85-.2 1.75-.75l.35-.1-.55-.75-.25.05-2.5-.65.3-.2 1.5.4q.65.2.85-.35l.25-.7-.75-.35-.2.55h-.05l-1.75-.45-.1-.2.15-.65q.4-.25-.05-.4l-.7-.15L6.75 15q-.15.55.35.7-1.05.65-2.9.6l.1.85 2.15-.3.85 1.1-3.7-.5" fill="#feb67a" fill-rule="evenodd"/><path d="M3.6 17.45l3.7.5-.85-1.1-2.15.3-.1-.85q1.85.05 2.9-.6-.5-.15-.35-.7l.35-1.35.7.15q.45.15.05.4l-.15.65.1.2 1.75.45h.05l.2-.55.75.35-.25.7q-.2.55-.85.35l-1.5-.4-.3.2 2.5.65.25-.05.55.75-.35.1q-.9.55-1.75.75 1.1.65 3.1 1.2l-.65.9q-2.4-.8-3.45-1.85l-4.3-.15.05-1m13.8-2.85l-.5 1.4.65.15.15-.05.45.65-.2.15q-.6 1.95-1.4 3.3l.6.85-.7.6L16 21q-.95 1-2.25 1.3l-.25-.95q1.35-.35 1.9-1.05l-.4-.45-.35.4-.7-.45 1.7-3.25-.75-.2.25-.85.85.25.65-1.8.9.35q.1.35-.15.3m2.15 1.3q.3.6.3 1.2l-.8.15L23 18.3l-.25.9-2.6-.7-.15.45 3.2.85-.25.85-3.35-.9-.2.4 1.9.5.1-.05.6.7q.15.4-.2.35-.6.6-1.35.95l1.6 1.15-.6.75L19.7 23q-.9.45-2.25.4l-.1-.85 1.9-.25-.4-1.35q-1 1.5-2.8 2l-.35-.9q2.05-.65 3-2.5l-1.35-.4.25-.85 1.5.4.15-.4-1.15-.35.25-.9.6.15-.25-1.15.85-.15m-.9-1.1l4.55.85.2.8-.4.05-1.85-.25.3 1.15-.9.2-.3-1.25.7-.15-2.35-.55.05-.85m-2.1 2l-1.1 2.4.45.4 1.1-2.7-.45-.1m6.5.45l-.7.85-.7-.55.85-1.1.75.55q.15.3-.2.25m-10.5-4.85q.2.5-.35.25l-.8-.15.5.4q.45.35-.1.45l-.65.45 2 .55-.5 1.75-.75-.2.25.55-.9.25-.8-1.65.8-.25.5.8.2-.75-2.85-.75.3.9-.95.15-.3-1.1.6-.05-3.15-.85-.25 1.1L4.4 14l.5-1.85 1.85.5-.35-.85 1-.05.4.95-.7.05 1.65.4-.35-1 .9-.05-3.45-.75v-.85l6.4 1.2.3.7M6.5 14.5q-.4.45-1.1.95l-.6-.7 1.3-1.1.65.45q.1.45-.25.4m2.9 2.95l-2.25-.6 1 .9 1.25-.3m4.9 13.35q.25.1.55-.2l1.2-1.2-1.25.15-.75.85.05.25q0 .15.2.15m-1.05-.65q.2-.75 1.05-1.25l2.2-.2 1.15-1.6H15.7l-.05-.95 2.25.2.45-.05.5.6q.25.4-.15.45l-1.4 1.6 1.95 1.1.6-2 .7.35q.35.25 0 .45l-.5 1.7 1.25 1.05-.6.65-1.1-.95q-.7 1.35-2 2.2l-.65-.7q1.3-.75 2-1.95l-2.1-1.2q-1.35 1.65-1.75 1.9l-1.1.15-.7-.5q-.2-.4-.05-1.05m7.6-8.75l-1.25-.35.4.9.85-.55m2.4 10.05l1.7.4q.6-.9 1.1-2l.7.45q.4.4-.1.45L25.9 32l.75.15.75.45q.25.5-.1 1.95-.55 1.95-1.3 2.4l-.9.15q-.7-.2-1.15-1.15l.7-.6.65.8.3-.05q.45-.25.85-1.9.25-.9.1-1.1l-.3-.2-.8-.1q-1.35 2.2-2.8 3.75L21.8 36q1.45-1.3 2.75-3.4l-1.45-.2.15-.95m5.65.6q1.1 1.85 1.05 4.05l-.95.1q-.05-2.35-.85-3.8l.75-.35m6.95 9.1l-1.7.2q-1.1-.25-.95-1.45l.15-1.55q0-.3-.35-.4-.75-.2-1.65.65l-1.1 1.3-.8-.7q1.95-1.8 4.95-5.25l.75.6q.15.45-.2.4l-2.4 2.25q.55-.15 1 0 .45.1.6.45.2.3.1 1.05L34.1 40l.35.5.75-.1q.75-.4 1.65-2.25l.8.65q-.95 1.85-1.8 2.35" fill="#333" fill-rule="evenodd"/><path d="M40.2 47.8L.25 27.75V.25L40.2 20.3 80.05.35l9.1 12.55-9.1 4.7v10.25L40.2 47.8m39.85-30.2l-31.9 16.45L40.2 20.3v27.5" fill="none" stroke="#999" stroke-linecap="round" stroke-linejoin="round" stroke-width=".5"/></svg>