<svg xmlns="http://www.w3.org/2000/svg" xmlns:xlink="http://www.w3.org/1999/xlink" height="64.85" width="67"><path d="M62.2 45.5V45l.45.2h.05l1.55.2 1.45-.15.1-.05.55-.25.05 2.15v.55l.05 1.35.05.15-.65.45-1.55.2-1.6-.2-.15-.05-.5-.4.1-.15v-1.95l.05-1.55M30.65 64.35l-1.55-.25-.65-.4.05-.2v-.15l.05-3.85.5.2 1.55.25 1.6-.25.5-.2.1 4 .1.2-.65.4-1.6.25M2.6 51.45l-1.4-.25q-.65-.2-.65-.4l.1-.2.05-4 .45.2 1.6.2 1.55-.2.55-.25.05 3.4.05.65.05.2-.65.4-1.55.25h-.2" fill="#614b49" fill-rule="evenodd"/><path d="M4.2 29.3v-5.4l25 11.45-.15 5.05v.15l-3-1.4L14 33.65l-2.95-1.35-6.1-2.8-.75-.2" fill="#dad1cb" fill-rule="evenodd"/><path d="M62.7 25.1l-12.65 6.35L46.9 33h.05l-.45.25-.75.4h-.05l-.85.45-1.2.6-.05-.05-2.35 1.2-2.15 1.05-1.8.9v-.05L33 39.9l-1 .3-.05-4.8 8.5-4.25v.05l17.7-8.8 4.55-2.3v4.1l-.9-.15q-1.85-.85-3.65-1.65 1.8.8 3.65 1.65l.9.15v.9m-16.2 8.15l.4-.25-.4.25m-7.4 3.65l-1.8.85 1.8-.85" fill="#a38c7e" fill-rule="evenodd"/><path d="M18.75-16.85l7 3.2v3l-10.1-4.65h-.05l3.15-1.55" fill="url(#linearGradient1169)" fill-rule="evenodd" transform="translate(31.3 48.3)"/><path d="M-20.25-16l2.95 1.35-9.8 5v-2.75l6.85-3.6" fill="url(#linearGradient1171)" fill-rule="evenodd" transform="translate(31.3 48.3)"/><path d="M66.4 47.45l.2.1-.2.1v-.2m-37.5 11.4l.15-.05-.15.05" fill="#666" fill-opacity=".502" fill-rule="evenodd"/><path d="M-24.1-33.55h-.05L5-48.3l29.85 13.8.05.05h-.05v.45L5-47.8l-24.3 12.3-.5.25h-.95l-3.35 1.7" fill="url(#radialGradient1173)" fill-rule="evenodd" transform="translate(31.3 48.3)"/><path d="M-19.8-35.25l.5-.25L5-47.8 34.85-34l.15 3.55.05.45-.4.2-.45.2-2.8 1.4-4.55 2.3-17.7 8.8v-.05L.65-12.9l-1.25.65v-4l-29.7-13.6 9.85-5.05.65-.35m54.8 4.8l-.35.65.35-.65m-54.3-5.05l-1.15.6 1.15-.6m19.2 19L34.85-34-.1-16.5" fill="url(#radialGradient1175)" fill-rule="evenodd" transform="translate(31.3 48.3)"/><path d="M-30-25.75l-.6-.25.15-3.9.15.05 29.7 13.6v4l-1.5-.7-25-11.45-2.9-1.35" fill="url(#radialGradient1177)" fill-rule="evenodd" transform="translate(31.3 48.3)"/><path d="M-24.1-33.55l3.35-1.7h.95l-.65.35-9.85 5.05-.15-.05.05-.55.1.05 6.2-3.15" fill="url(#radialGradient1179)" fill-rule="evenodd" transform="translate(31.3 48.3)"/><path d="M-30.1-9.35l.1-16.4 2.9 1.35v15.05h-3" fill="url(#linearGradient1181)" fill-rule="evenodd" transform="translate(31.3 48.3)"/><path d="M-30.6-1.7l-.2-.25.1-.15.05-.05.4-.2.15-.05v-6.7h3v1.7l9.7 4.45 15.15 7v3l-18.3-8.4-6.55-3v1.9l.05.05h.05l.6.3.05.15-.1.2-.55.25-1.55.2-1.6-.2-.45-.2" fill="url(#linearGradient1183)" fill-rule="evenodd" transform="translate(31.3 48.3)"/><path d="M-30.1-9.1v-.25h3v.25h-3" fill="url(#linearGradient1185)" fill-rule="evenodd" transform="translate(31.3 48.3)"/><path d="M.65-12.9L.7-8.1v.2h-2.95l.15-5.05 1.5.7 1.25-.65" fill="url(#linearGradient1187)" fill-rule="evenodd" transform="translate(31.3 48.3)"/><path d="M.7-7.9v2.55h-2.95V-7.9H.7" fill="url(#linearGradient1189)" fill-rule="evenodd" transform="translate(31.3 48.3)"/><path d="M34.2-28.5l.05 9.75H31.4v-9.45l2.8-1.4v1.1" fill="url(#linearGradient1191)" fill-rule="evenodd" transform="translate(31.3 48.3)"/><path d="M31.4-4v-.5h3v1.45l-1.45.15-1.55-.2V-4m3.7 2.8l.05.15-.05.15v-.3m-4.25-.05v.4l-.15-.2.1-.15.05-.05" fill="url(#linearGradient1193)" fill-rule="evenodd" transform="translate(31.3 48.3)"/><path d="M.7-5.35L.75 10.5H.9l.55.3.1.2-.15.2-.5.2-1.6.25-1.55-.25-.5-.2-.15-.2.05-.2h.05l.4-.25.15-.05V-5.35H.7" fill="url(#linearGradient1195)" fill-rule="evenodd" transform="translate(31.3 48.3)"/><path d="M41.25 35.85l15.8 7.3v.65h1.5l3.65 1.7-.05 1.55-.05.05-.1.15.15.2V49l-.1.15.5.4-31.1 15.15-.8-.35 1.6-.25.65-.4-.1-.2-.1-4 .15-.2-.1-.2-.55-.3h-.15L32 42.95V40.2l1-.3 4.3-2.15v.05l1.8-.9 2.15-1.05M28.5 63.35L2.6 51.45h.2l1.55-.25.65-.4-.05-.2-.05-.65 5.85-3 18.3 8.4v3.45l-.15.05-.4.25h-.05l-.05.2.15.2-.05 3.85m-2.45-24.2l3 1.4v11.8l-15.15-7 12.15-6.2" fill="#848484" fill-opacity=".4" fill-rule="evenodd"/><path d="M12 12.8L36.3.5l29.85 13.8.15 3.55.05.45-.4.2-.45.2v1.1l.05 9.75m-2.85 0V25.1l-12.65 6.35 7 3.2m0 3L46.95 33l-.45.25-.75.4-.9.45-1.2.6-.05-.05-2.35 1.2M62.2 45.5V45l-.2-.25.1-.15.05-.05.4-.2.1-.05h.05v-.5m3 0v.45l.05.05h.05l.6.3.05.15-.1.2.05 2.15m0 .3v.05m0 .2l.05 1.35.05.15-.65.45-1.55.2-1.6-.2-.15-.05m-31.9 14.8l-1.55-.25-.65-.4.05-.2v-.15M2.6 51.45l-1.4-.25q-.65-.2-.65-.4l.1-.2.05-4-.2-.25.1-.15.05-.05.4-.2.1-.05h.05v-6.95l.1-16.4-.6-.25.15-3.9m65.1.1l.35-.65m-3.6 2.25l2.8-1.4m-2.8 1.4l-4.55 2.3q1.8.8 3.65 1.65l.9.15v-4.1m-17.85 14l.85-.45h.05m1.2-.65h-.05l-.4.25m.4-.25l3.15-1.55m-9.6-.3l-8.5 4.25.05 4.8 1-.3 4.3-2.15 1.8-.85 2.15-1.05M32 40.2v2.75l.05 15.85h.15l.55.3.1.2-.15.2.1 4 .1.2-.65.4-1.6.25M37.3 37.8l1.8-.9m23.6-11.8v-.9m3 21.05l.1-.05.55-.25m-3.8-.6l.15-.05m0 .9l1.55.2 1.45-.15m-3-.05h-.05l-.45-.2m-.05 2.05V49l-.1.15.5.4m-.4-2.5l.05-1.55m4.2 2.15v-.2m0-.05v-.3m-8.25-24.7l-17.7 8.8M32.7 59.5l-.5.2-1.6.25-1.55-.25-.5-.2-.05 3.85M1 18.45l9.85-5.05 1.15-.6M1 18.45l-.15-.05M4.2 29.3v-5.4l-2.9-1.35m2.9 6.75l.75.2 6.1 2.8L14 33.65l12.05 5.5 3 1.4v-.15l.15-5.05-25-11.45m0 12v-6.6m6.85 3L4.2 35.9v2.75l9.8-5m-9.8 5.3v-.3m0 2.05v-.55m0-.25v-.7m0-.05v.05M.7 46.6l.45.2 1.6.2 1.55-.2.55-.25.1-.2-.05-.15-.6-.3h-.05l-.05-.05v-1.9l6.55 3 18.3 8.4v-3l-15.15-7-9.7-4.45m-3 5l-.15.05m28-5.4v11.8m1.65-16.3v-4L1 18.45m28.2 16.9l1.5.7 1.25-.65m-3.4 24.1l-.15-.2.05-.2h.05l.4-.25.15-.05v-3.45m-.15 3.5l.15-.05M2.6 51.45h.2l1.55-.25.65-.4-.05-.2-.05-.65-.05-3.4m61.3-32.25L31.2 31.8" fill="none" stroke="#000" stroke-linecap="round" stroke-linejoin="round"/><path d="M31.4-16.15v-2.6h2.85l.05 2.6h-2.9" fill="url(#linearGradient1197)" fill-rule="evenodd" transform="translate(31.3 48.3)"/><path d="M34.3-15.2l.1 10.7h-3v-10.7h2.9" fill="url(#linearGradient1199)" fill-rule="evenodd" transform="translate(31.3 48.3)"/><path d="M34.3-16.15v.95h-2.9v-.95h2.9" fill="url(#linearGradient1201)" fill-rule="evenodd" transform="translate(31.3 48.3)"/><path d="M57.05 43.15l1.5.65h-1.5v-.65" fill="#848484" fill-opacity=".4" fill-rule="evenodd"/><path d="M31.4-8.1l-5.65-2.55v-3l5.65 2.55v3" fill="url(#linearGradient1203)" fill-rule="evenodd" transform="translate(31.3 48.3)"/><path d="M65.55 29.55l.05 2.6v.95l.1 10.7m-3 0v-3.6l-5.65-2.55m0-3l5.65 2.55v-7.65" fill="none" stroke="#000" stroke-linecap="round" stroke-linejoin="round"/><defs id="defs185"><linearGradient gradientTransform="matrix(.0005 -.0012 .0064 .0029 21.25 -14.3)" gradientUnits="userSpaceOnUse" id="gradient0" spreadMethod="pad" x1="-819.2" x2="819.2"><stop offset="0" stop-color="#bfb1a2" id="stop59"/><stop offset=".498" stop-color="#e4e1de" id="stop61"/><stop offset=".988" stop-color="#c7bbad" id="stop63"/></linearGradient><linearGradient gradientTransform="matrix(.0007 .0012 -.0034 .0019 -22.2 -12.75)" gradientUnits="userSpaceOnUse" id="gradient1" spreadMethod="pad" x1="-819.2" x2="819.2"><stop offset="0" stop-color="#bfb1a2" id="stop66"/><stop offset=".498" stop-color="#e4e1de" id="stop68"/><stop offset=".988" stop-color="#c7bbad" id="stop70"/></linearGradient><linearGradient gradientTransform="matrix(.0011 0 0 .0247 -28.75 -7.25)" gradientUnits="userSpaceOnUse" id="gradient6" spreadMethod="pad" x1="-819.2" x2="819.2"><stop offset="0" stop-color="#bfb1a2" id="stop101"/><stop offset=".498" stop-color="#e4e1de" id="stop103"/><stop offset=".988" stop-color="#c7bbad" id="stop105"/></linearGradient><linearGradient gradientTransform="matrix(.0011 0 0 .0247 -28.75 -15)" gradientUnits="userSpaceOnUse" id="gradient7" spreadMethod="pad" x1="-819.2" x2="819.2"><stop offset="0" stop-color="#bfb1a2" id="stop108"/><stop offset=".498" stop-color="#e4e1de" id="stop110"/><stop offset=".988" stop-color="#c7bbad" id="stop112"/></linearGradient><linearGradient gradientTransform="matrix(.0011 0 0 .0247 -28.75 -8.45)" gradientUnits="userSpaceOnUse" id="gradient8" spreadMethod="pad" x1="-819.2" x2="819.2"><stop offset="0" stop-color="#bfb1a2" id="stop115"/><stop offset=".498" stop-color="#e4e1de" id="stop117"/><stop offset=".988" stop-color="#c7bbad" id="stop119"/></linearGradient><linearGradient gradientTransform="matrix(.0016 0 0 .0197 -.7 3.2)" gradientUnits="userSpaceOnUse" id="gradient9" spreadMethod="pad" x1="-819.2" x2="819.2"><stop offset="0" stop-color="#bfb1a2" id="stop122"/><stop offset=".498" stop-color="#e4e1de" id="stop124"/><stop offset=".988" stop-color="#c7bbad" id="stop126"/></linearGradient><linearGradient gradientTransform="matrix(.0016 0 0 .0197 -.7 -3.3)" gradientUnits="userSpaceOnUse" id="gradient10" spreadMethod="pad" x1="-819.2" x2="819.2"><stop offset="0" stop-color="#bfb1a2" id="stop129"/><stop offset=".498" stop-color="#e4e1de" id="stop131"/><stop offset=".988" stop-color="#c7bbad" id="stop133"/></linearGradient><linearGradient gradientTransform="matrix(.001 0 0 .0198 32.95 -13.35)" gradientUnits="userSpaceOnUse" id="gradient11" spreadMethod="pad" x1="-819.2" x2="819.2"><stop offset="0" stop-color="#bfb1a2" id="stop136"/><stop offset=".498" stop-color="#e4e1de" id="stop138"/><stop offset=".988" stop-color="#c7bbad" id="stop140"/></linearGradient><linearGradient gradientTransform="matrix(.001 0 0 .0198 32.95 -16.6)" gradientUnits="userSpaceOnUse" id="gradient12" spreadMethod="pad" x1="-819.2" x2="819.2"><stop offset="0" stop-color="#bfb1a2" id="stop143"/><stop offset=".498" stop-color="#e4e1de" id="stop145"/><stop offset=".988" stop-color="#c7bbad" id="stop147"/></linearGradient><linearGradient gradientTransform="matrix(.0016 0 0 .0197 -.7 -4.5)" gradientUnits="userSpaceOnUse" id="gradient13" spreadMethod="pad" x1="-819.2" x2="819.2"><stop offset="0" stop-color="#bfb1a2" id="stop150"/><stop offset=".498" stop-color="#e4e1de" id="stop152"/><stop offset=".988" stop-color="#c7bbad" id="stop154"/></linearGradient><linearGradient gradientTransform="matrix(.001 0 0 .0198 32.95 -13.35)" gradientUnits="userSpaceOnUse" id="gradient14" spreadMethod="pad" x1="-819.2" x2="819.2"><stop offset="0" stop-color="#bfb1a2" id="stop157"/><stop offset=".498" stop-color="#e4e1de" id="stop159"/><stop offset=".988" stop-color="#c7bbad" id="stop161"/></linearGradient><linearGradient gradientTransform="matrix(.001 0 0 .0198 32.95 -16.6)" gradientUnits="userSpaceOnUse" id="gradient15" spreadMethod="pad" x1="-819.2" x2="819.2"><stop offset="0" stop-color="#bfb1a2" id="stop164"/><stop offset=".498" stop-color="#e4e1de" id="stop166"/><stop offset=".988" stop-color="#c7bbad" id="stop168"/></linearGradient><linearGradient gradientTransform="matrix(.001 0 0 .0198 32.95 -15.4)" gradientUnits="userSpaceOnUse" id="gradient16" spreadMethod="pad" x1="-819.2" x2="819.2"><stop offset="0" stop-color="#bfb1a2" id="stop171"/><stop offset=".498" stop-color="#e4e1de" id="stop173"/><stop offset=".988" stop-color="#c7bbad" id="stop175"/></linearGradient><linearGradient gradientTransform="matrix(.0005 -.0012 .0064 .0029 21.25 -14.3)" gradientUnits="userSpaceOnUse" id="gradient17" spreadMethod="pad" x1="-819.2" x2="819.2"><stop offset="0" stop-color="#bfb1a2" id="stop178"/><stop offset=".498" stop-color="#e4e1de" id="stop180"/><stop offset=".988" stop-color="#c7bbad" id="stop182"/></linearGradient><linearGradient xlink:href="#gradient0" id="linearGradient1169" gradientUnits="userSpaceOnUse" gradientTransform="matrix(.0005 -.0012 .0064 .0029 21.25 -14.3)" x1="-819.2" x2="819.2" spreadMethod="pad"/><linearGradient xlink:href="#gradient1" id="linearGradient1171" gradientUnits="userSpaceOnUse" gradientTransform="matrix(.0007 .0012 -.0034 .0019 -22.2 -12.75)" x1="-819.2" x2="819.2" spreadMethod="pad"/><linearGradient xlink:href="#gradient6" id="linearGradient1181" gradientUnits="userSpaceOnUse" gradientTransform="matrix(.0011 0 0 .0247 -28.75 -7.25)" x1="-819.2" x2="819.2" spreadMethod="pad"/><linearGradient xlink:href="#gradient7" id="linearGradient1183" gradientUnits="userSpaceOnUse" gradientTransform="matrix(.0011 0 0 .0247 -28.75 -15)" x1="-819.2" x2="819.2" spreadMethod="pad"/><linearGradient xlink:href="#gradient8" id="linearGradient1185" gradientUnits="userSpaceOnUse" gradientTransform="matrix(.0011 0 0 .0247 -28.75 -8.45)" x1="-819.2" x2="819.2" spreadMethod="pad"/><linearGradient xlink:href="#gradient9" id="linearGradient1187" gradientUnits="userSpaceOnUse" gradientTransform="matrix(.0016 0 0 .0197 -.7 3.2)" x1="-819.2" x2="819.2" spreadMethod="pad"/><linearGradient xlink:href="#gradient10" id="linearGradient1189" gradientUnits="userSpaceOnUse" gradientTransform="matrix(.0016 0 0 .0197 -.7 -3.3)" x1="-819.2" x2="819.2" spreadMethod="pad"/><linearGradient xlink:href="#gradient11" id="linearGradient1191" gradientUnits="userSpaceOnUse" gradientTransform="matrix(.001 0 0 .0198 32.95 -13.35)" x1="-819.2" x2="819.2" spreadMethod="pad"/><linearGradient xlink:href="#gradient12" id="linearGradient1193" gradientUnits="userSpaceOnUse" gradientTransform="matrix(.001 0 0 .0198 32.95 -16.6)" x1="-819.2" x2="819.2" spreadMethod="pad"/><linearGradient xlink:href="#gradient13" id="linearGradient1195" gradientUnits="userSpaceOnUse" gradientTransform="matrix(.0016 0 0 .0197 -.7 -4.5)" x1="-819.2" x2="819.2" spreadMethod="pad"/><linearGradient xlink:href="#gradient14" id="linearGradient1197" gradientUnits="userSpaceOnUse" gradientTransform="matrix(.001 0 0 .0198 32.95 -13.35)" x1="-819.2" x2="819.2" spreadMethod="pad"/><linearGradient xlink:href="#gradient15" id="linearGradient1199" gradientUnits="userSpaceOnUse" gradientTransform="matrix(.001 0 0 .0198 32.95 -16.6)" x1="-819.2" x2="819.2" spreadMethod="pad"/><linearGradient xlink:href="#gradient16" id="linearGradient1201" gradientUnits="userSpaceOnUse" gradientTransform="matrix(.001 0 0 .0198 32.95 -15.4)" x1="-819.2" x2="819.2" spreadMethod="pad"/><linearGradient xlink:href="#gradient17" id="linearGradient1203" gradientUnits="userSpaceOnUse" gradientTransform="matrix(.0005 -.0012 .0064 .0029 21.25 -14.3)" x1="-819.2" x2="819.2" spreadMethod="pad"/><radialGradient cx="0" cy="0" gradientTransform="matrix(-.0195 .0422 -.039 -.018 -2.1 -30.45)" gradientUnits="userSpaceOnUse" id="gradient2" r="819.2" spreadMethod="pad"><stop offset="0" stop-color="#9a6030" id="stop73"/><stop offset=".498" stop-color="#d39c78" id="stop75"/><stop offset=".988" stop-color="#9d6333" id="stop77"/></radialGradient><radialGradient cx="0" cy="0" gradientTransform="matrix(.0264 .0287 -.0391 .036 -.4 -30.8)" gradientUnits="userSpaceOnUse" id="gradient3" r="819.2" spreadMethod="pad"><stop offset="0" stop-color="#9a6030" id="stop80"/><stop offset=".498" stop-color="#d39c78" id="stop82"/><stop offset=".988" stop-color="#9d6333" id="stop84"/></radialGradient><radialGradient cx="0" cy="0" gradientTransform="matrix(.0105 .0311 -.0244 .0082 -11.65 -20.2)" gradientUnits="userSpaceOnUse" id="gradient4" r="819.2" spreadMethod="pad"><stop offset="0" stop-color="#9a6030" id="stop87"/><stop offset=".498" stop-color="#d39c78" id="stop89"/><stop offset=".988" stop-color="#9d6333" id="stop91"/></radialGradient><radialGradient cx="0" cy="0" gradientTransform="matrix(-.0195 .0422 -.039 -.018 1.3 -32.15)" gradientUnits="userSpaceOnUse" id="gradient5" r="819.2" spreadMethod="pad"><stop offset="0" stop-color="#9a6030" id="stop94"/><stop offset=".498" stop-color="#d39c78" id="stop96"/><stop offset=".988" stop-color="#9d6333" id="stop98"/></radialGradient><radialGradient xlink:href="#gradient2" id="radialGradient1173" gradientUnits="userSpaceOnUse" gradientTransform="matrix(-.0195 .0422 -.039 -.018 -2.1 -30.45)" cx="0" cy="0" r="819.2" spreadMethod="pad"/><radialGradient xlink:href="#gradient3" id="radialGradient1175" gradientUnits="userSpaceOnUse" gradientTransform="matrix(.0264 .0287 -.0391 .036 -.4 -30.8)" cx="0" cy="0" r="819.2" spreadMethod="pad"/><radialGradient xlink:href="#gradient4" id="radialGradient1177" gradientUnits="userSpaceOnUse" gradientTransform="matrix(.0105 .0311 -.0244 .0082 -11.65 -20.2)" cx="0" cy="0" r="819.2" spreadMethod="pad"/><radialGradient xlink:href="#gradient5" id="radialGradient1179" gradientUnits="userSpaceOnUse" gradientTransform="matrix(-.0195 .0422 -.039 -.018 1.3 -32.15)" cx="0" cy="0" r="819.2" spreadMethod="pad"/></defs></svg>