<svg xmlns="http://www.w3.org/2000/svg" height="182" width="160"><g style="clip-rule:evenodd;fill-rule:evenodd;stroke-linecap:round;stroke-linejoin:round;stroke-miterlimit:1.5"><path d="m84.341 138.578 9.119-22.803 22.244 23.283" style="fill:none;stroke:#000;stroke-width:2px" transform="translate(9.299 -.408)"/><path d="m66.9 139.38 12.4-26.005 18.73 26.341" style="fill:none;stroke:#000;stroke-width:2px" transform="translate(9.299 -.408)"/><path d="M57.045 94.382s-16.693-6.756-10.997-26.02c2.971-10.046 11.121-14.207 16.871-16.193 5.276-1.823 10.214-2.66 10.214-2.66s13.67-2.907 19.686.101c4.13 2.064 6.908 2.296 10.958 5.043 1.194.809 1.727 1.697 3.183 3.19.799.82 2.544 1.822 3.271 3.095 2.953 5.167 4.512 6.753 4.961 7.696.477 1.003-1.132 1.257 1.635 3.604 0 0 4.154 14.144-1.926 18.688 0 0-8.192 13.376-30.912 12.032l.192 2.88s8.704 24.512 6.272 29.248c0 0-4.16 8.96-25.856 5.504 0 0-10.88-4.288-9.152-20.224l3.2-25.088z" style="fill:#fff;stroke:#fff;stroke-width:.21px;stroke-linecap:square" transform="translate(9.299 -.408)"/><path d="M84.629 102.638s20.8 2.304 31.04-12.928" style="fill:none;stroke:#000;stroke-width:2.5px;stroke-linecap:square" transform="translate(9.299 -.408)"/><path d="M58.82 94.303s-5.36 25.312-2.32 37.232" style="fill:none;stroke:#000;stroke-width:2.52px;stroke-linecap:butt" transform="translate(9.299 -.408)"/><path d="m84.391 102.911-11.882 40.554" style="fill:none;stroke:#000;stroke-width:2px" transform="translate(9.299 -.408)"/><path d="M46.178 74.886c-1.75-12.75 11.76-20.72 11.76-20.72s30.563-15.859 50.227 3.563c3.559 3.515 6.761 8.187 9.36 14.317" style="fill:none;stroke:#000;stroke-width:2.5px;stroke-linecap:square" transform="translate(8.784 -.257)"/><path d="m59.077 95.792-16.888 46.555" style="fill:none;stroke:#000;stroke-width:2px" transform="translate(8.784 -.257)"/></g></svg>