<?xml version="1.0" encoding="UTF-8" standalone="no"?>
<svg
   xmlns:dc="http://purl.org/dc/elements/1.1/"
   xmlns:cc="http://creativecommons.org/ns#"
   xmlns:rdf="http://www.w3.org/1999/02/22-rdf-syntax-ns#"
   xmlns:svg="http://www.w3.org/2000/svg"
   xmlns="http://www.w3.org/2000/svg"
   xmlns:xlink="http://www.w3.org/1999/xlink"
   xmlns:sodipodi="http://sodipodi.sourceforge.net/DTD/sodipodi-0.dtd"
   xmlns:inkscape="http://www.inkscape.org/namespaces/inkscape"
   height="182"
   width="160"
   version="1.1"
   id="svg132"
   sodipodi:docname="back-standing.svg"
   inkscape:version="1.0.1 (3bc2e813f5, 2020-09-07)">
  <metadata
     id="metadata136">
    <rdf:RDF>
      <cc:Work
         rdf:about="">
        <dc:format>image/svg+xml</dc:format>
        <dc:type
           rdf:resource="http://purl.org/dc/dcmitype/StillImage" />
      </cc:Work>
    </rdf:RDF>
  </metadata>
  <sodipodi:namedview
     pagecolor="#ffffff"
     bordercolor="#666666"
     borderopacity="1"
     objecttolerance="10"
     gridtolerance="10"
     guidetolerance="10"
     inkscape:pageopacity="0"
     inkscape:pageshadow="2"
     inkscape:window-width="1920"
     inkscape:window-height="1057"
     id="namedview134"
     showgrid="false"
     inkscape:zoom="4"
     inkscape:cx="80"
     inkscape:cy="91"
     inkscape:window-x="-8"
     inkscape:window-y="-8"
     inkscape:window-maximized="1"
     inkscape:current-layer="svg132" />
  <defs
     id="defs124">
    <path
       d="M1.35 0h.2l.55.1.45.35q.45.45.45 1L2.55 2.6q-.45.4-1 .4l-.8-.2-.25-.2-.45-.7v-.15L0 1.45v-.1q.05-.5.5-.9l.25-.2Q1 .05 1.3 0h.05m.45.85L1.55.8Q1.2.75 1 1q-.2.15-.2.45v.15l.15.45H1l.05.05.2.1.3.05.55-.2.15-.6-.05-.3L2.1 1 2.05.95 1.9.85h-.1"
       fill-rule="evenodd"
       id="a" />
    <use
       height="3"
       transform="translate(.8)"
       width="3"
       xlink:href="#a"
       id="c" />
    <g
       id="b">
      <path
         d="M.25-60h3.9l1.2.55 3.85-8.6 3.85 8.6L14.3-60l3.15 3.05 1.15 1.1-.4.4.1.1q2.1 2.05 2.35 4.55v.6q0 1.65-.8 3.1l-.25.45-1.4 1.7.1.1-.3.3-3.25.9v4.7l-3.25.7-3.1.9.65 1.6 3.3-1.25 3-.6q1.55 0 2.15.6.8.8.8 2 0 1.1-.75 1.85-1.05 1.05-4.05 1.25l-1.3.05.35 1.5 1.5-.05-.05 2.75-1.5 1.25v12.25l-.85 4.6h-1.5V-3q0 .7-.45 1.15-.55.55-1.6.55-1.1 0-1.65-.55-.4-.45-.4-1.15v-6.55H4.5l-2.35-3.5H.4l-3.55 3.5V-3q0 .7-.45 1.15-.55.55-1.6.55-1.1 0-1.65-.55-.4-.45-.4-1.15v-6.55H-8.8l-1.7-1.1-1.75-3.9v-3.9l.45-.4q.75-.6 1.35-1.55l-1.25-1q-.4.65-.7.95l.4-10.95 1.75-12.8.4.35.75-.7-1-1.1q-1.5-1.9-1.5-4.15l.1-1q.35-2.3 2.4-4.25l-.75-.75.5-3.95.65.3 3.85-8.6 3.85 8.6L.25-60m17.2 3.05l1.15 1.1-1.15-1.1M13.1-43.6l.75-1.55v-1.35h-1.5v1.45h.55l-.55 1.45h.75m-2.9 0l.75-1.55v-1.35h-1.5v1.45H10l-.55 1.45h.75"
         fill="#fff"
         fill-rule="evenodd"
         transform="translate(21.65 71)"
         id="path117" />
      <path
         d="M.25-60l-1.25.55-3.85-8.6-3.85 8.6-.65-.3-.55-.25 5.05-11 5.1 11m-10.1 4.2l.75.75q-2.05 1.95-2.4 4.25l-.1 1q0 2.25 1.5 4.15l1 1.1-.75.7-.4-.35-.6-.7q-1.8-2.2-1.8-4.9l.1-1q.3-2.8 2.7-5m-2.55 35.35q.3-.3.7-.95l1.25 1q-.6.95-1.35 1.55l-.45.4q-.7.45-1.6.45-.95 0-2.65-1.1-1.15-.65-1.9-.65-.85 0-1.3.55l-.6.95-1.35-.75 1.2-1.65q.85-.8 1.95-.8t2.25.8q1.65.85 2.55.85.65 0 1.3-.65m3.6 10.9h1.55V-3q0 .7.4 1.15.55.55 1.65.55 1.05 0 1.6-.55.45-.45.45-1.15v-6.55h1.5v6.6q0 1.25-.8 2.05-.9.9-2.75.9Q-7.1 0-8-.9q-.8-.8-.8-2.05v-6.6m13.3 0h1.55V-3q0 .7.4 1.15.55.55 1.65.55 1.05 0 1.6-.55.45-.45.45-1.15v-6.55h1.5v6.6q0 1.25-.8 2.05-.9.9-2.75.9-1.9 0-2.8-.9-.8-.8-.8-2.05v-6.6m9.55-20.85l-1.5.05-.35-1.5 1.3-.05q3-.2 4.05-1.25.75-.75.75-1.85 0-1.2-.8-2-.6-.6-2.15-.6l-3 .6-3.3 1.25-.65-1.6 3.1-.9 3.25-.7.75-.05q2.2 0 3.25 1.05 1.1 1.05 1.1 2.85 0 1.85-1 2.85l-.4.35q-1.55 1.2-4.4 1.5m4.25-14.45l-.1-.1 1.4-1.7.25-.45q.8-1.45.8-3.1v-.6q-.25-2.5-2.35-4.55l-.1-.1.4-.4.3-.35q2.55 2.35 2.8 5.4v.6q0 1.9-.9 3.55-.7 1.25-1.9 2.4l-.6-.6M14.3-60l-1.25.55-3.85-8.6-3.85 8.6-1.2-.55L9.2-71l5.1 11m-4.1 16.4h-.75l.55-1.45h-.55v-1.45h1.5v1.35l-.75 1.55m2.9 0h-.75l.55-1.45h-.55v-1.45h1.5v1.35l-.75 1.55"
         fill-rule="evenodd"
         transform="translate(21.65 71)"
         id="path119" />
      <path
         d="M4.15-60H.25M12.5-14.15V-26.4m6.1-29.45l-1.15-1.1"
         fill="none"
         stroke="#000"
         stroke-linecap="round"
         stroke-linejoin="round"
         transform="translate(21.65 71)"
         id="path121" />
    </g>
    <style
       id="style138">.cls-1{fill:#fff;}.cls-1,.cls-2{fill-rule:evenodd;}.cls-3{fill:none;stroke:#000;stroke-linecap:square;stroke-linejoin:round;stroke-width:2.67px;}</style>
  </defs>
  <g
     id="g166"
     transform="matrix(1.0105947,0,0,1.0105947,42.080894,0.04)">
    <path
       class="cls-1"
       d="m 70.31,5.13 -9.08,27.45 -7.62,8.57 14.64,15.68 c 0,0 -12.88,22.41 -0.91,56.25 a 29,29 0 0 0 5.89,8 v 13 c 0,0 -0.2,7.16 6,7.05 h 8.39 c 0,0 8.53,-1 8.53,-10.7 H 85.18 v -9.31 a 51.32,51.32 0 0 0 18,0 v 15.8 c 0,0 0.5,4.79 10,4.21 0,0 12.78,0.79 13.15,-10.7 h -10.8 v -9.31 c 0,0 3.5,-5 4.6,-8.69 1.1,-3.69 12.33,-23.43 -1.3,-55.6 l 14.3,-15.68 -9.71,-11.15 -9,-24.83 -8,21.23 H 79.18 Z"
       transform="translate(-51.67,-0.76)"
       id="path142" />
    <path
       class="cls-2"
       d="m 70.32,9 -6,16.9 L 61.85,24.76 69,4.48 70.32,0.76 c 0,0 1,3.11 1.17,3.67 l 7.82,20.23 -2.44,1.23 z"
       transform="translate(-51.67,-0.76)"
       id="path144" />
    <path
       class="cls-2"
       d="m 114.36,9 -6,16.9 -2.47,-1.14 7.14,-20.25 c 0.21,-0.57 1.3,-3.72 1.3,-3.72 0,0 0.94,3.11 1.16,3.67 l 7.82,20.23 -2.43,1.23 z"
       transform="translate(-51.67,-0.76)"
       id="path146" />
    <path
       class="cls-2"
       d="M 55.59,41.39 63,49 61.22,51.27 52.75,42.58 c -0.27,-0.29 -1.07,-1.1 -1.07,-1.1 l 1,-1.13 8.46,-9.35 1.86,2.19 -7.4,8.2 z"
       transform="translate(-51.67,-0.76)"
       id="path148" />
    <path
       class="cls-2"
       d="m 131.2,41.39 -7.4,7.61 1.78,2.27 8.47,-8.69 c 0.27,-0.29 1.08,-1.1 1.08,-1.1 l -1,-1.13 -8.48,-9.35 -1.85,2.19 z"
       transform="translate(-51.67,-0.76)"
       id="path150" />
    <path
       class="cls-3"
       d="M 103.6,26.92 H 83.29 m 36.46,32.67 c 0,0 12.11,25.78 0,53.4 m -52.7,-53.4 c 0,0 -12.12,25.78 0,53.4 m 6.09,8.83 V 133 c 0,0 -0.24,7.94 5.52,8 h 6.57 c 0,0 10.85,0.57 10.91,-10.74 H 85.23 v -8.44 m 18.15,0 V 133 c 0,0 -0.24,7.94 5.52,8 h 6.57 c 0,0 10.85,0.57 10.91,-10.74 h -10.91 v -8.44"
       transform="translate(-51.67,-0.76)"
       id="path152" />
  </g>
</svg>
