<svg id="Layer_1" data-name="Layer 1" xmlns="http://www.w3.org/2000/svg" viewBox="0 0 467.57 764.01"><defs><style>.cls-1{fill:#fff;}.cls-1,.cls-2{fill-rule:evenodd;}.cls-3,.cls-4{fill:none;stroke:#000;stroke-linecap:square;stroke-linejoin:round;}.cls-3{stroke-width:14.39px;}.cls-4{stroke-width:14.4px;}</style></defs><path class="cls-1" d="M100.61,23.58l-49,148.16L10.47,218l79,84.6S20,423.54,84.58,606.13c0,0,11.53,24.48,31.78,43v69.91s-1.06,38.68,32.12,38.06h45.28s46-5.63,46-57.76H180.86V649.15s73.72.84,97.1,0H448.24s24.11-56.2,11.52-73.64c-1.77-2.46-2.31-18.37-11.52-29.49-9.87-11.93-28.61-18.93-35.66-15.94-11.51,4.89-7.44,61.83-6.48,58.64.83-2.81-33.78,6.19-31.3,0,15.1-37.64,50.78-136.88-12.35-286.15L439.62,218,387.2,157.6l-48.47-134-43,114.61H148.48L100.61,23.58Z"/><path class="cls-2" d="M100.67,44.3,68.49,135.51l-13.34-6.16L93.7,20.08c1.08-3.06,7-20.08,7-20.08s5.11,16.81,6.28,19.83L149.17,129,136,135.66,100.67,44.3Z"/><path class="cls-2" d="M338.3,44.3l-32.18,91.21-13.35-6.16L331.32,20.08C332.4,17,338.3,0,338.3,0s5.1,16.81,6.28,19.83L386.8,129l-13.16,6.67L338.3,44.3Z"/><path class="cls-2" d="M21.17,219.27l39.94,41-9.62,12.26L5.81,225.62,0,219.72s4.17-4.55,5.61-6.14l45.5-50.38,10,11.83L21.17,219.27Z"/><path class="cls-2" d="M429.2,219.27l-39.94,41,9.62,12.26,45.68-46.92,5.81-5.9s-4.17-4.55-5.61-6.14l-45.5-50.38-10,11.83,39.95,44.24Z"/><path class="cls-3" d="M280.24,141.19H170.66m196.71,176.3s58.94,125.4,8.94,265.66M83,317.49S17.61,456.6,83,605.66"/><path class="cls-1" d="M347.9,338.22s-31.09,66.19-47.58,108.6A43.28,43.28,0,1,1,247,417.32c8.64-12.27,47.87-70.13,64.3-98.74"/><path class="cls-4" d="M348,345.52s-31.23,58.89-47.72,101.3A43.28,43.28,0,1,1,247,417.32c8.64-12.27,44.87-64.08,61.3-92.69"/><path class="cls-3" d="M115.9,653.27v60.57s-1.3,42.86,29.78,42.94,35.45,0,35.45,0,58.56,3.11,58.84-57.92H181.13V653.27"/><path class="cls-2" d="M395.21,580.84V529.19a7.2,7.2,0,0,1,7.23-7.2c20.51.1,34.49,6.28,44.1,14.59,21.26,18.39,21.08,48.13,21,51.52,0,1.11.07,7.66,0,35.4,0,15.72-8.64,25-19.06,30.3-13.93,7.14-31.3,6.66-31.3,6.66H349.63V646.07h68a62.19,62.19,0,0,0,19-2.88c8.09-2.69,16.55-8,16.58-19.73.08-31,0-35.3,0-35.3,0-.17,0-.34,0-.52,0,0,1.44-25.08-16-40.18-6.36-5.5-15.25-9.55-27.52-10.73V588a7.2,7.2,0,0,1-7.2,7.19H364.34l5.18-14.39Z"/></svg>