<?xml version="1.0" encoding="UTF-8" standalone="no"?>
<svg
   xmlns:dc="http://purl.org/dc/elements/1.1/"
   xmlns:cc="http://creativecommons.org/ns#"
   xmlns:rdf="http://www.w3.org/1999/02/22-rdf-syntax-ns#"
   xmlns:svg="http://www.w3.org/2000/svg"
   xmlns="http://www.w3.org/2000/svg"
   xmlns:xlink="http://www.w3.org/1999/xlink"
   xmlns:sodipodi="http://sodipodi.sourceforge.net/DTD/sodipodi-0.dtd"
   xmlns:inkscape="http://www.inkscape.org/namespaces/inkscape"
   height="182"
   width="160"
   version="1.1"
   id="svg1707"
   sodipodi:docname="back-walking-1.svg"
   inkscape:version="1.0.1 (3bc2e813f5, 2020-09-07)">
  <metadata
     id="metadata1711">
    <rdf:RDF>
      <cc:Work
         rdf:about="">
        <dc:format>image/svg+xml</dc:format>
        <dc:type
           rdf:resource="http://purl.org/dc/dcmitype/StillImage" />
      </cc:Work>
    </rdf:RDF>
  </metadata>
  <sodipodi:namedview
     pagecolor="#ffffff"
     bordercolor="#666666"
     borderopacity="1"
     objecttolerance="10"
     gridtolerance="10"
     guidetolerance="10"
     inkscape:pageopacity="0"
     inkscape:pageshadow="2"
     inkscape:window-width="1920"
     inkscape:window-height="1057"
     id="namedview1709"
     showgrid="false"
     inkscape:zoom="16"
     inkscape:cx="84.953864"
     inkscape:cy="18.641897"
     inkscape:window-x="-8"
     inkscape:window-y="-8"
     inkscape:window-maximized="1"
     inkscape:current-layer="svg1707" />
  <defs
     id="defs1699">
    <path
       d="M1.35 0h.2l.55.1.45.35q.45.45.45 1L2.55 2.6q-.45.4-1 .4l-.8-.2-.25-.2-.45-.7v-.15L0 1.45v-.1q.05-.5.5-.9l.25-.2Q1 .05 1.3 0h.05m.45.85L1.55.8Q1.2.75 1 1q-.2.15-.2.45v.15l.15.45H1l.05.05.2.1.3.05.55-.2.15-.6-.05-.3L2.1 1 2.05.95 1.9.85h-.1"
       fill-rule="evenodd"
       id="a" />
    <use
       height="3"
       transform="translate(.8)"
       width="3"
       xlink:href="#a"
       id="c" />
    <g
       id="b">
      <path
         d="M.35-60h3.9l1.2.55 3.85-8.6 3.9 8.6 1.25-.55 3.15 3.05 1.1 1.1-1.1-1.1 1.15 1.1h-.05l-.35.4.1.1q2.1 2.05 2.3 4.55l.05.6q0 1.65-.8 3.1l-.25.45-1.4 1.7.1.1-.3.3-3.25.9v4.7l-3.25.7-3.15.9.65 1.6L12.5-37q1.7-.6 3-.6 1.55 0 2.15.6.8.8.8 2 0 1.1-.75 1.85-1.05 1.05-4.1 1.25l-1.25.05.35 1.5 1.5-.05-.05 2.75-1.5 1.25v6.75H8.1v1.55h6.6q.7 0 1.15.4.55.55.55 1.65 0 1.05-.55 1.6-.45.45-1.15.45H8.1v.95H.5l-3.55 3.5V-3q0 .7-.45 1.15-.55.55-1.6.55-1.1 0-1.65-.55-.4-.45-.4-1.15v-6.55H-8.7l-1.7-1.1-1.75-3.9v-3.9l.45-.4q.75-.6 1.35-1.55l-1.25-1-.7.95.4-10.95 1.75-12.8.4.35.75-.7-1-1.1q-1.5-1.9-1.5-4.15l.05-1q.35-2.3 2.45-4.25l-.75-.75.5-3.95.65.3 3.85-8.6 3.85 8.6L.35-60m12.9 16.4l.75-1.55v-1.35h-1.5v1.45h.55l-.55 1.45h.75m-2.95 0l.8-1.55v-1.35H9.55v1.45h.55l-.55 1.45h.75"
         fill="#fff"
         fill-rule="evenodd"
         transform="translate(21.55 71)"
         id="path1692" />
      <path
         d="M.35-60l-1.25.55-3.85-8.6-3.85 8.6-.65-.3-.55-.25 5.05-11 5.1 11m-10.1 4.2l.75.75q-2.1 1.95-2.45 4.25l-.05 1q0 2.25 1.5 4.15l1 1.1-.75.7-.4-.35-.6-.7q-1.8-2.2-1.8-4.9l.05-1q.35-2.8 2.75-5m-2.55 35.35l.7-.95 1.25 1q-.6.95-1.35 1.55l-.45.4q-.7.45-1.6.45-.95 0-2.65-1.1l-1.9-.65q-.9 0-1.3.55l-.6.95-1.35-.75 1.2-1.65q.8-.8 1.95-.8 1.1 0 2.25.8 1.65.85 2.55.85.65 0 1.3-.65m3.6 10.9h1.55V-3q0 .7.4 1.15.55.55 1.65.55 1.05 0 1.6-.55.45-.45.45-1.15v-6.55h1.5v6.6q0 1.25-.8 2.05-.9.9-2.75.9Q-7 0-7.9-.9q-.8-.8-.8-2.05v-6.6m16.8-3.5V-14h6.6q.7 0 1.15-.45.55-.55.55-1.6 0-1.1-.55-1.65-.45-.4-1.15-.4H8.1v-1.55h6.65q1.25 0 2.05.8.9.9.9 2.8 0 1.85-.9 2.75l-.3.25q-.75.55-1.75.55H8.1v-.55m6.1-17.35l-1.5.05-.35-1.5 1.25-.05q3.05-.2 4.1-1.25.75-.75.75-1.85 0-1.2-.8-2-.6-.6-2.15-.6-1.3 0-3 .6l-3.35 1.25-.65-1.6 3.15-.9 3.25-.7.75-.05q2.2 0 3.25 1.05Q20-36.9 20-35.1q0 1.85-1 2.85l-.4.35q-1.6 1.2-4.4 1.5m4.25-14.45l-.1-.1 1.4-1.7.25-.45q.8-1.45.8-3.1l-.05-.6q-.2-2.5-2.3-4.55l-.1-.1.35-.4h.05l.3-.35q2.55 2.35 2.75 5.4l.05.6q0 1.9-.9 3.55-.7 1.25-1.9 2.4l-.6-.6m-4-15.15l-1.25.55-3.9-8.6-3.85 8.6-1.2-.55L9.3-71l5.15 11M10.3-43.6h-.75l.55-1.45h-.55v-1.45h1.55v1.35l-.8 1.55m2.95 0h-.75l.55-1.45h-.55v-1.45H14v1.35l-.75 1.55"
         fill-rule="evenodd"
         transform="translate(21.55 71)"
         id="path1694" />
      <path
         d="M4.25-60H.35m12.3 40.35v-6.75m6.05-29.45l-1.1-1.1"
         fill="none"
         stroke="#000"
         stroke-linecap="round"
         stroke-linejoin="round"
         transform="translate(21.55 71)"
         id="path1696" />
    </g>
    <style
       id="style1713">.cls-1{fill:#fff;}.cls-1,.cls-2{fill-rule:evenodd;}.cls-3,.cls-4{fill:none;stroke:#000;stroke-linecap:square;stroke-linejoin:round;}.cls-3{stroke-width:2.69px;}.cls-4{stroke-width:2.69px;}</style>
  </defs>
  <g
     id="g1753"
     transform="translate(41.7535,0.045)">
    <path
       class="cls-1"
       d="m 58.35,6.07 -9.16,27.7 -7.69,8.64 14.77,15.81 c 0,0 -13,22.61 -0.91,56.74 a 29,29 0 0 0 5.94,8 v 13.07 c 0,0 -0.2,7.23 6,7.11 h 8.46 c 0,0 8.6,-1.05 8.6,-10.79 h -11 V 123 c 0,0 13.78,0.16 18.15,0 h 31.83 c 0,0 4.51,-10.5 2.15,-13.76 -0.33,-0.46 -0.43,-3.44 -2.15,-5.51 -1.85,-2.23 -5.35,-3.54 -6.66,-3 -2.16,0.91 -1.4,11.55 -1.22,11 0.18,-0.55 -6.31,1.15 -5.85,0 2.83,-7 9.49,-25.59 -2.31,-53.49 l 14.43,-15.81 -9.8,-11.29 -9.06,-25 -8,21.42 H 67.3 Z"
       transform="translate(-39.55,-1.67)"
       id="path1717" />
    <path
       class="cls-2"
       d="m 58.36,9.94 -6,17 -2.5,-1.15 7.2,-20.37 1.3,-3.75 c 0,0 1,3.14 1.18,3.7 L 67.43,25.78 65,27 Z"
       transform="translate(-39.55,-1.67)"
       id="path1719" />
    <path
       class="cls-2"
       d="m 102.78,9.94 -6,17 -2.49,-1.15 7.21,-20.42 1.3,-3.75 c 0,0 1,3.14 1.17,3.7 l 7.9,20.41 -2.49,1.27 -6.6,-17.08 z"
       transform="translate(-39.55,-1.67)"
       id="path1721" />
    <path
       class="cls-2"
       d="m 43.5,42.65 7.5,7.67 -1.8,2.29 -8.54,-8.77 -1.08,-1.11 1,-1.14 8.51,-9.42 1.91,2.21 z"
       transform="translate(-39.55,-1.67)"
       id="path1723" />
    <path
       class="cls-2"
       d="m 119.77,42.65 -7.46,7.67 1.79,2.29 8.54,-8.77 1.09,-1.11 -1,-1.14 -8.51,-9.42 -1.87,2.21 7.47,8.27 z"
       transform="translate(-39.55,-1.67)"
       id="path1725" />
    <path
       class="cls-3"
       d="M 91.93,28.06 H 71.45 m 36.76,33 c 0,0 11,23.44 1.68,49.66 M 55.06,61 c 0,0 -12.22,26 0,53.86"
       transform="translate(-39.55,-1.67)"
       id="path1727" />
    <path
       class="cls-1"
       d="m 104.57,64.88 c 0,0 -5.81,12.38 -8.89,20.3 a 8.09,8.09 0 1 1 -10,-5.51 c 1.61,-2.29 9,-13.11 12,-18.46"
       transform="translate(-39.55,-1.67)"
       id="path1729" />
    <path
       class="cls-4"
       d="m 104.6,66.25 c 0,0 -5.84,11 -8.92,18.93 a 8.09,8.09 0 1 1 -10,-5.51 c 1.61,-2.29 8.39,-12 11.46,-17.33"
       transform="translate(-39.55,-1.67)"
       id="path1731" />
    <path
       class="cls-3"
       d="m 61.21,123.77 v 11.32 c 0,0 -0.24,8 5.57,8 5.81,0 6.62,0 6.62,0 0,0 10.95,0.58 11,-10.83 h -11 v -8.52"
       transform="translate(-39.55,-1.67)"
       id="path1733" />
    <path
       class="cls-2"
       d="m 113.42,110.23 v -9.65 a 1.35,1.35 0 0 1 1.35,-1.35 12.21,12.21 0 0 1 8.23,2.77 c 4,3.44 3.94,9 3.93,9.63 0,0.21 0,1.43 0,6.62 a 6.06,6.06 0 0 1 -3.57,5.66 13.79,13.79 0 0 1 -5.85,1.25 H 104.9 v -2.69 h 12.7 a 11.67,11.67 0 0 0 3.55,-0.54 c 1.51,-0.5 3.09,-1.5 3.1,-3.69 0,-5.78 0,-6.6 0,-6.6 a 0.27,0.27 0 0 1 0,-0.09 c 0,0 0.27,-4.69 -3,-7.51 a 8.93,8.93 0 0 0 -5.14,-2 v 9.59 a 1.34,1.34 0 0 1 -1.35,1.34 h -7.11 l 1,-2.69 z"
       transform="translate(-39.55,-1.67)"
       id="path1735" />
  </g>
</svg>
