<?xml version="1.0" encoding="UTF-8" standalone="no"?>
<svg
   xmlns:dc="http://purl.org/dc/elements/1.1/"
   xmlns:cc="http://creativecommons.org/ns#"
   xmlns:rdf="http://www.w3.org/1999/02/22-rdf-syntax-ns#"
   xmlns:svg="http://www.w3.org/2000/svg"
   xmlns="http://www.w3.org/2000/svg"
   xmlns:xlink="http://www.w3.org/1999/xlink"
   xmlns:sodipodi="http://sodipodi.sourceforge.net/DTD/sodipodi-0.dtd"
   xmlns:inkscape="http://www.inkscape.org/namespaces/inkscape"
   height="182"
   width="160"
   version="1.1"
   id="svg432"
   sodipodi:docname="front-walking-2.svg"
   inkscape:version="1.0.1 (3bc2e813f5, 2020-09-07)">
  <metadata
     id="metadata436">
    <rdf:RDF>
      <cc:Work
         rdf:about="">
        <dc:format>image/svg+xml</dc:format>
        <dc:type
           rdf:resource="http://purl.org/dc/dcmitype/StillImage" />
      </cc:Work>
    </rdf:RDF>
  </metadata>
  <sodipodi:namedview
     pagecolor="#ffffff"
     bordercolor="#666666"
     borderopacity="1"
     objecttolerance="10"
     gridtolerance="10"
     guidetolerance="10"
     inkscape:pageopacity="0"
     inkscape:pageshadow="2"
     inkscape:window-width="1920"
     inkscape:window-height="1057"
     id="namedview434"
     showgrid="false"
     inkscape:zoom="4.8901099"
     inkscape:cx="83.067416"
     inkscape:cy="74.640449"
     inkscape:window-x="-8"
     inkscape:window-y="-8"
     inkscape:window-maximized="1"
     inkscape:current-layer="svg432" />
  <defs
     id="defs424">
    <g
       id="c">
      <path
         d="M10.75-56.05v-.05H4.5v3.9l-.05 1.1L4-48.65l-1.05 2H2v3.3h1.35v-1.95h7.2v1.95h1.4v-3.3h-1.2v-9.4M.4-60h3.9l1.2.55 3.85-8.6 3.9 8.6L14.5-60l3.15 3.05 1.15 1.1h-.05l-.35.4.1.1q2.1 2.05 2.3 4.55l.05.6q0 1.65-.8 3.1l-.25.45-1.4 1.7.1.1-.3.3-3.25.9v4.7l-3.25.7-3.15.9.65 1.6L12.55-37l3-.6q1.55 0 2.15.6.8.8.8 2 0 1.1-.75 1.85-1.05 1.05-4.1 1.25l-1.25.05.35 1.5 1.5-.05-.05 2.75-1.5 1.25v12.25l-.85 4.6H10.3V-3q0 .7-.45 1.15-.55.55-1.6.55-1.1 0-1.65-.55Q6.2-2.3 6.2-3v-6.55H4.65l-.9-1.3q.5-.9.5-2.25v-.25q-.05-1.7-.9-2.55-.8-.8-2.05-.8h-6.6v1.55h6.55q.7 0 1.15.4.5.5.55 1.55l-.15.9h.05l-.05.25-.4.55q-.45.45-1.15.45H-5.3v1.5l-1.8.05v-.05h-1.55l-1.7-1.1-1.75-3.9v-3.9l.45-.4.2-.15 1.15-1.4-1.25-1-.7.95.4-10.95 1.75-12.8.4.35.75-.7-1-1.1q-1.45-1.85-1.5-4v-.25l.05-.9q.35-2.3 2.45-4.25l-.75-.75.5-3.95.65.3 3.85-8.6 3.85 8.6L.4-60m5.45 8.85v-3.6h3.5v8.15H4.4l.05-.05.5-.9.9-3.55v-.05m12.9-4.7l-1.1-1.1 1.1 1.1M5.5-37.95Q4.45-39 2.25-39l-4 .75-3.1.9.65 1.6L-.9-37l3-.6q1.55 0 2.15.6.8.8.8 2 0 1.1-.75 1.85Q3.25-32.1.25-31.9l-1.3.05.35 1.5q3.95-.05 5.9-1.55l.4-.35q1-1 1-2.85 0-1.8-1.1-2.85M-7.15-43.6l.75-1.55v-1.35h-1.5v1.45h.55l-.55 1.45h.75m3.65-1.55v-1.35H-5v1.45h.55L-5-43.6h.75l.75-1.55"
         fill="#fff"
         fill-rule="evenodd"
         transform="translate(21.5 71)"
         id="path410" />
      <path
         d="M10.75-56.05v9.45h1.2v3.25h-1.4v-1.95h-7.2v1.95H2v-3.25h.95L4-48.65l.45-2.45.05-1.1v-3.85h6.25M4.3-60l5.05-11 5.15 11-1.25.55-3.9-8.6-3.85 8.6L4.3-60m14.5 4.15l.3-.35q2.55 2.35 2.75 5.4l.05.6q0 1.9-.9 3.55-.7 1.25-1.9 2.4l-.6-.6-.1-.1 1.4-1.7.25-.45q.8-1.45.8-3.1l-.05-.6q-.2-2.5-2.3-4.55l-.1-.1.35-.4h.05m-3.85 16.9l.75-.05q2.2 0 3.25 1.05 1.1 1.05 1.1 2.85 0 1.85-1 2.85l-.4.35q-1.6 1.2-4.4 1.5l-1.5.05-.35-1.5 1.25-.05q3.05-.2 4.1-1.25.75-.75.75-1.85 0-1.2-.8-2-.6-.6-2.15-.6l-3 .6-3.35 1.25-.65-1.6 3.15-.9 3.25-.7m-3.1 29.4v6.6q0 1.25-.8 2.05-.95.9-2.8.9-1.9 0-2.8-.9-.8-.8-.8-2.05v-6.6H6.2V-3q0 .7.4 1.15.55.55 1.65.55 1.05 0 1.6-.55.45-.45.45-1.15v-6.55h1.55m-8.1-1.3l-.05.1-.35.4q-.75.8-1.95.8h-6.7v-1.5h6.55q.7 0 1.15-.45l.4-.55.05-.25.1-.8v-.1q-.05-1.05-.55-1.55-.45-.4-1.15-.4H-5.3v-1.55h6.6q1.25 0 2.05.8.85.85.9 2.55v.25q0 1.35-.5 2.25m-15.85-7.6q-.7.45-1.6.45-.95 0-2.65-1.1-1.2-.65-1.9-.65-.9 0-1.3.55l-.15.2-.45.75-1.35-.75q.4-.95 1.2-1.65l.6-.45 1.35-.35q1.1 0 2.25.8 1.65.85 2.55.85.6 0 1.3-.65l.7-.95 1.25 1-1.15 1.4-.2.15-.45.4m2-25.75l-.6-.7-.75-1.05q-1.1-1.75-1.05-3.85l.05-1q.2-1.5 1-2.85l1.75-2.15.75.75q-2.1 1.95-2.45 4.25l-.05.9v.25q.05 2.15 1.5 4l1 1.1-.75.7-.4-.35m.9-15.55l-.55-.25 5.05-11L.4-60l-1.25.55-3.85-8.6-3.85 8.6-.65-.3m15.05 8.6v.05l-.9 3.55-.5.9-.05.05h4.95v-8.15h-3.5v3.6m-.35 13.2q1.1 1.05 1.1 2.85 0 1.85-1 2.85l-.4.35q-1.95 1.5-5.9 1.55l-.35-1.5 1.3-.05q3-.2 4.05-1.25.75-.75.75-1.85 0-1.2-.8-2-.6-.6-2.15-.6l-3 .6-3.3 1.25-.65-1.6 3.1-.9 4-.75q2.2 0 3.25 1.05m-9-7.2l-.75 1.55H-5l.55-1.45H-5v-1.45h1.5v1.35m-3.65 1.55h-.75l.55-1.45h-.55v-1.45h1.5v1.35l-.75 1.55"
         fill-rule="evenodd"
         transform="translate(21.5 71)"
         id="path412" />
      <path
         d="M.4-60h3.9m8.4 33.6v12.25m4.95-42.8l1.1 1.1"
         fill="none"
         stroke="#000"
         stroke-linecap="round"
         stroke-linejoin="round"
         transform="translate(21.5 71)"
         id="path414" />
    </g>
    <g
       id="d"
       transform="translate(.8)">
      <use
         height="3"
         transform="matrix(1.005 0 0 1 -.804 0)"
         width="4.65"
         xlink:href="#a"
         id="use417" />
      <use
         height="3"
         transform="matrix(1.005 0 0 1 16.096 0)"
         width="4.65"
         xlink:href="#a"
         id="use419" />
    </g>
    <path
       d="M1.35 0h.2l.55.1.45.35q.45.45.45 1L2.55 2.6q-.45.4-1 .4l-.8-.2-.25-.2-.45-.7v-.15L0 1.45v-.1q.05-.5.5-.9l.25-.2Q1 .05 1.3 0h.05m.45.85L1.55.8Q1.2.75 1 1q-.2.15-.2.45v.15l.15.45H1l.05.05.2.1.3.05.55-.2.15-.6-.05-.3L2.1 1 2.05.95 1.9.85h-.1"
       fill-rule="evenodd"
       id="b" />
    <use
       height="3"
       transform="translate(.8)"
       width="3"
       xlink:href="#b"
       id="a" />
    <style
       id="style438">.cls-1{fill:#fff;}.cls-1,.cls-3{fill-rule:evenodd;}.cls-2,.cls-4{fill:none;stroke:#000;stroke-linecap:square;stroke-linejoin:round;}.cls-2{stroke-width:2.68px;}.cls-4{stroke-width:2.68px;}</style>
  </defs>
  <g
     id="g484"
     transform="translate(26.240488,0.0413735)">
    <path
       class="cls-1"
       d="m 104.77,60.05 c 0,0 9.51,9.55 16,15 a 8,8 0 1 1 -8.35,7.65 c -1.66,-2.24 -9.63,-12.26 -13.7,-16.84"
       transform="translate(-19.68,0.04)"
       id="path442" />
    <path
       class="cls-2"
       d="m 102.71,59.09 c 0,0 11.57,10.51 18.07,15.91 a 8,8 0 1 1 -8.35,7.65 C 110.77,80.41 103.78,70.96 99.71,66.37"
       transform="translate(-19.68,0.04)"
       id="path444" />
    <path
       class="cls-1"
       d="m 52.37,4.34 -9.11,27.55 -7.65,8.59 14.09,15.89 c 0,0 -12.32,22.34 -0.31,56.29 a 29,29 0 0 0 5.91,8 h 30 v 15.85 c 0,0 0.5,4.8 10.06,4.22 0,0 12.83,0.79 13.2,-10.74 h -10.8 v -9.33 c 0,0 3.51,-5 4.61,-8.73 1.1,-3.73 12.35,-23.39 -1.32,-55.72 l 14.35,-15.73 -9.75,-11.22 -9,-24.92 -8,21.31 H 61.27 Z"
       transform="translate(-19.68,0.04)"
       id="path446" />
    <path
       class="cls-3"
       d="m 52.38,8.19 -6,17 L 43.91,24 51.08,3.69 52.38,0 c 0,0 0.95,3.12 1.17,3.68 l 7.85,20.3 -2.4,1.2 -6.57,-17 z"
       transform="translate(-19.68,0.04)"
       id="path448" />
    <path
       class="cls-3"
       d="m 96.56,8.19 -6,17 L 88.1,24 95.26,3.69 c 0.21,-0.57 1.3,-3.73 1.3,-3.73 0,0 1,3.12 1.17,3.68 l 7.85,20.3 -2.45,1.24 -6.57,-17 z"
       transform="translate(-19.68,0.04)"
       id="path450" />
    <path
       class="cls-3"
       d="m 37.6,40.73 7.4,7.62 -1.79,2.28 -8.49,-8.72 -1.08,-1.1 1,-1.14 8.46,-9.37 1.9,2.2 z"
       transform="translate(-19.68,0.04)"
       id="path452" />
    <path
       class="cls-3"
       d="m 113.46,40.73 -7.46,7.62 1.78,2.28 8.5,-8.72 1.08,-1.1 -1,-1.14 -8.46,-9.37 -1.9,2.2 7.43,8.23 z"
       transform="translate(-19.68,0.04)"
       id="path454" />
    <path
       class="cls-4"
       d="m 50.85,34 5.69,5.63 v 3.72 M 85.77,26.21 H 65.39 m 0,3.21 h 2.76 l 1.55,1.9 m 34.3,-1.9 h -2.82 l -1.59,1.9"
       transform="translate(-19.68,0.04)"
       id="path456" />
    <path
       class="cls-3"
       d="m 90.12,33.5 v -5.06 h 2.67 v 5.45 a 1.7,1.7 0 0 1 -0.16,0.74 l -6.75,14.11 c -0.24,0.5 -1.12,2.45 -1.12,2.45 0,0 -1,-2 -1.25,-2.49 L 77.32,34.58 a 1.77,1.77 0 0 1 -0.14,-0.69 v -5.45 h 2.67 v 5.09 l 4.91,11.18 z"
       transform="translate(-19.68,0.04)"
       id="path458" />
    <path
       class="cls-4"
       d="M 89.85,35.91 H 79.9 M 102,59 c 0,0 12.15,25.86 0,53.58 M 48.34,60.78 c -2.45,6.31 -9.51,28.39 0.75,51.79 m 6.12,8.85 h 11.26 c 0,0 8,0.24 8,-5.54 0,-5.78 0,-6.59 0,-6.59 0,0 0.53,-10.89 -10.79,-10.94 v 10.94 h -8.47 m 30.34,12.13 v 11.26 c 0,0 -0.24,8 5.54,8 5.78,0 6.59,0 6.59,0 0,0 10.89,0.58 10.94,-10.77 H 97.68 v -8.48"
       transform="translate(-19.68,0.04)"
       id="path460" />
    <path
       class="cls-1"
       d="m 55.12,61.78 c 0,0 -11.96,8.74 -18.12,14.54 A 8,8 0 1 1 30.41,67.1 c 2.43,-1.37 14.66,-8.52 19.71,-12"
       transform="translate(-19.68,0.04)"
       id="path462" />
    <path
       class="cls-2"
       d="m 53.11,63.13 c 0,0 -9.95,7.39 -16.11,13.19 A 8,8 0 1 1 30.41,67.1 c 2.43,-1.37 12.65,-7.17 17.7,-10.66"
       transform="translate(-19.68,0.04)"
       id="path464" />
  </g>
</svg>
