<?xml version="1.0" encoding="UTF-8" standalone="no"?>
<svg
   xmlns:dc="http://purl.org/dc/elements/1.1/"
   xmlns:cc="http://creativecommons.org/ns#"
   xmlns:rdf="http://www.w3.org/1999/02/22-rdf-syntax-ns#"
   xmlns:svg="http://www.w3.org/2000/svg"
   xmlns="http://www.w3.org/2000/svg"
   xmlns:xlink="http://www.w3.org/1999/xlink"
   xmlns:sodipodi="http://sodipodi.sourceforge.net/DTD/sodipodi-0.dtd"
   xmlns:inkscape="http://www.inkscape.org/namespaces/inkscape"
   height="182"
   width="160"
   version="1.1"
   id="svg141"
   sodipodi:docname="front-standing.svg"
   inkscape:version="1.0.1 (3bc2e813f5, 2020-09-07)">
  <metadata
     id="metadata145">
    <rdf:RDF>
      <cc:Work
         rdf:about="">
        <dc:format>image/svg+xml</dc:format>
        <dc:type
           rdf:resource="http://purl.org/dc/dcmitype/StillImage" />
      </cc:Work>
    </rdf:RDF>
  </metadata>
  <sodipodi:namedview
     pagecolor="#ffffff"
     bordercolor="#666666"
     borderopacity="1"
     objecttolerance="10"
     gridtolerance="10"
     guidetolerance="10"
     inkscape:pageopacity="0"
     inkscape:pageshadow="2"
     inkscape:window-width="958"
     inkscape:window-height="1048"
     id="namedview143"
     showgrid="false"
     inkscape:zoom="3.4578299"
     inkscape:cx="74.173086"
     inkscape:cy="109.46555"
     inkscape:window-x="-7"
     inkscape:window-y="0"
     inkscape:window-maximized="0"
     inkscape:current-layer="svg141" />
  <defs
     id="defs133">
    <g
       id="c">
      <path
         d="M.4-60h3.9l1.2.55 3.9-8.6 3.85 8.6L14.5-60l3.15 3.05 1.15 1.05-.05.05-.4.4.1.1q2.1 2.05 2.35 4.55v.6q0 1.65-.8 3.1l-.25.45-1.4 1.7.15.15-.3.25-3.25.9v4.7l-3.25.7-3.1.9.65 1.6 3.3-1.25 3-.6q1.55 0 2.15.6.8.8.8 2 0 1.1-.75 1.85-1.05 1.05-4.1 1.25l-1.25.05.35 1.5 1.5-.05-.05 2.75-1.5 1.25v12.25l-.85 4.6h-1.5V-3q0 .7-.45 1.15-.55.55-1.6.55-1.15 0-1.65-.55Q6.2-2.3 6.25-3v-6.55h-1.6l-2.35-3.5H.55L-3-9.55V-3q0 .7-.45 1.15-.55.55-1.6.55-1.1 0-1.65-.55-.45-.45-.4-1.15v-6.55h-1.55l-1.7-1.1-1.75-3.9v-3.9l.45-.4q.75-.6 1.35-1.55l-1.25-1-.7.95.4-10.95 1.75-12.8.4.35.75-.7-1-1.1q-1.55-1.9-1.5-4.15l.05-1q.35-2.3 2.45-4.25l-.75-.75.5-3.95.65.3 3.85-8.6 3.85 8.6L.4-60m10.1 14.7v1.9h1.3v-3.25h-1.15v-9.45h-6.2v3.85l-.05 1.1-.45 2.45-1 2.05H2v3.3h1.35v-1.95h7.15m-6.05-1.35l.5-.9.9-3.55v-.05l.05-.35v-3.25h3.4v8.1H4.45m14.3-9.2l-1.1-1.1 1.1 1.1M5.5-37.95Q4.45-39 2.25-39l-4 .75-3.1.9.65 1.6L-.9-37l3-.6q1.55 0 2.15.6.8.8.8 2 0 1.1-.75 1.85Q3.25-32.1.25-31.9l-1.3.05.35 1.5q3.95-.05 5.9-1.55l.45-.35q1-1 1-2.85-.05-1.8-1.15-2.85M-7.15-43.6l.75-1.55v-1.35h-1.5v1.45h.55l-.55 1.45h.75M-5-45.05h.55L-5-43.6h.75l.75-1.55v-1.35H-5v1.45"
         fill="#fff"
         fill-rule="evenodd"
         transform="translate(21.55 71)"
         id="path119" />
      <path
         d="M4.3-60l5.1-11 5.1 11-1.25.55-3.85-8.6-3.9 8.6L4.3-60m14.5 4.1l.25-.3q2.55 2.35 2.8 5.4v.6q0 1.9-.9 3.55-.7 1.25-1.9 2.4l-.55-.55-.15-.15 1.4-1.7.25-.45q.8-1.45.8-3.1v-.6q-.25-2.5-2.35-4.55l-.1-.1.4-.4.05-.05m-3.85 16.95l.75-.05q2.2 0 3.25 1.05 1.1 1.05 1.1 2.85 0 1.85-1 2.85l-.4.35q-1.55 1.2-4.4 1.5l-1.5.05-.35-1.5 1.25-.05q3.05-.2 4.1-1.25.75-.75.75-1.85 0-1.2-.8-2-.6-.6-2.15-.6l-3 .6-3.3 1.25-.65-1.6 3.1-.9 3.25-.7m-3.1 29.4v6.6q0 1.25-.8 2.05-.9.9-2.75.9-1.95 0-2.85-.9-.8-.8-.8-2.05v-6.6h1.6V-3q-.05.7.4 1.15.5.55 1.65.55 1.05 0 1.6-.55.45-.45.45-1.15v-6.55h1.5M-3-9.55h1.5v6.6q0 1.25-.8 2.05-.9.9-2.75.9-1.9 0-2.8-.9-.85-.8-.8-2.05v-6.6h1.55V-3q-.05.7.4 1.15.55.55 1.65.55 1.05 0 1.6-.55Q-3-2.3-3-3v-6.55m-9.1-8.9q-.7.45-1.6.45-1 0-2.7-1.1l-1.9-.65q-.85 0-1.3.55l-.6.95-1.35-.75 1.2-1.65q.85-.8 1.95-.8t2.3.8q1.65.85 2.55.85.6 0 1.3-.65l.7-.95 1.25 1q-.6.95-1.35 1.55l-.45.4m2-25.75l-.6-.7q-1.85-2.2-1.8-4.9l.05-1q.35-2.8 2.75-5l.75.75q-2.1 1.95-2.45 4.25l-.05 1q-.05 2.25 1.5 4.15l1 1.1-.75.7-.4-.35m.9-15.55l-.55-.25 5.05-11L.4-60l-1.25.55-3.85-8.6-3.85 8.6-.65-.3M2-43.4v-3.25h.95l1-2.05.45-2.45.05-1.1v-3.85h6.2v9.45h1.15v3.25h-1.3v-1.95H3.35v1.95H2m7.3-11.35v-.05H5.85v3.25l-.05.35v.05l-.9 3.55-.5.9-.05.05H9.3v-8.1m-3.8 16.8q1.1 1.05 1.15 2.85 0 1.85-1 2.85l-.45.35q-1.95 1.5-5.9 1.55l-.35-1.5 1.3-.05q3-.2 4.05-1.25.75-.75.75-1.85 0-1.2-.8-2-.6-.6-2.15-.6l-3 .6-3.3 1.25-.65-1.6 3.1-.9 4-.75q2.2 0 3.25 1.05M-5-45.05v-1.45h1.5v1.35l-.75 1.55H-5l.55-1.45H-5m-2.15 1.45h-.75l.55-1.45h-.55v-1.45h1.5v1.35l-.75 1.55"
         fill-rule="evenodd"
         transform="translate(21.55 71)"
         id="path121" />
      <path
         d="M.4-60h3.9m8.4 33.6v9.45m0 0v2.8m4.95-42.8l1.1 1.1"
         fill="none"
         stroke="#000"
         stroke-linecap="round"
         stroke-linejoin="round"
         transform="translate(21.55 71)"
         id="path123" />
    </g>
    <g
       id="d"
       transform="translate(.8)">
      <use
         height="3"
         transform="matrix(1.005 0 0 1 -.804 0)"
         width="4.65"
         xlink:href="#a"
         id="use126" />
      <use
         height="3"
         transform="matrix(1.005 0 0 1 16.096 0)"
         width="4.65"
         xlink:href="#a"
         id="use128" />
    </g>
    <path
       d="M1.35 0h.2l.55.1.45.35q.45.45.45 1L2.55 2.6q-.45.4-1 .4l-.8-.2-.25-.2-.45-.7v-.15L0 1.45v-.1q.05-.5.5-.9l.25-.2Q1 .05 1.3 0h.05m.45.85L1.55.8Q1.2.75 1 1q-.2.15-.2.45v.15l.15.45H1l.05.05.2.1.3.05.55-.2.15-.6-.05-.3L2.1 1 2.05.95 1.9.85h-.1"
       fill-rule="evenodd"
       id="b" />
    <use
       height="3"
       transform="translate(.8)"
       width="3"
       xlink:href="#b"
       id="a" />
    <style
       id="style10">.cls-1{fill:#fff;}.cls-1,.cls-2{fill-rule:evenodd;}.cls-3{fill:none;stroke:#000;stroke-linecap:square;stroke-linejoin:round;stroke-width:2.68px;}</style>
  </defs>
  <g
     id="g279"
     transform="translate(40.381,0.39)">
    <path
       class="cls-1"
       d="M 59.24,4.39 50.11,32 42.44,40.61 57.16,56.37 c 0,0 -12.94,22.54 -0.91,56.56 a 29.14,29.14 0 0 0 5.92,8 v 13 c 0,0 -0.2,7.2 6,7.09 h 8.43 c 0,0 8.57,-1.05 8.57,-10.76 h -11 v -9.36 c 1.22,0 6.93,0.07 18.09,0 v 15.88 c 0,0 0.5,4.82 10.07,4.24 0,0 12.86,0.79 13.23,-10.76 h -10.84 v -9.36 c 0,0 3.52,-5 4.62,-8.74 1.1,-3.74 12.38,-23.4 -1.34,-55.79 l 14.4,-15.76 -9.77,-11.25 -9,-25 -8,21.36 H 68.16 Z"
       id="path14"
       transform="translate(-40.49)" />
    <path
       class="cls-2"
       d="m 18.76,8.25 -6,17 L 10.28,24.1 17.51,3.74 18.76,0 c 0,0 1,3.13 1.17,3.7 l 7.86,20.3 -2.45,1.24 -6.58,-17 z"
       id="path16" />
    <path
       class="cls-2"
       d="m 103.52,8.25 -6,17 L 95,24.1 102.18,3.74 103.52,0 c 0,0 1,3.13 1.17,3.7 l 7.86,20.3 -2.45,1.24 -6.58,-17 z"
       transform="translate(-40.49)"
       id="path18" />
    <path
       class="cls-2"
       d="m 44.44,40.85 7.44,7.64 -1.79,2.29 -8.51,-8.78 -1.09,-1.1 1,-1.15 8.51,-9.34 1.86,2.2 -7.44,8.24 z"
       transform="translate(-40.49)"
       id="path20" />
    <path
       class="cls-2"
       d="m 120.46,40.85 -7.46,7.64 1.8,2.29 8.52,-8.78 c 0.27,-0.29 1.08,-1.1 1.08,-1.1 l -1.05,-1.15 -8.47,-9.38 -1.88,2.24 7.45,8.24 z"
       transform="translate(-40.49)"
       id="path22" />
    <path
       class="cls-3"
       d="m 57.72,34.11 5.7,5.65 v 3.72 M 92.7,26.3 H 72.29 m 0,3.22 h 2.76 l 1.56,1.91 M 111,29.52 h -2.82 l -1.6,1.91"
       transform="translate(-40.49)"
       id="path24" />
    <path
       class="cls-2"
       d="m 97.06,33.61 v -5.07 h 2.68 V 34 a 1.67,1.67 0 0 1 -0.16,0.74 l -6.76,14.15 c -0.24,0.5 -1.13,2.45 -1.13,2.45 0,0 -1,-2 -1.25,-2.5 L 84.24,34.69 A 1.77,1.77 0 0 1 84.1,34 v -5.46 h 2.68 v 5.1 l 4.91,11.21 z"
       transform="translate(-40.49)"
       id="path26" />
    <path
       class="cls-3"
       d="m 96.8,36 h -10 m 22.12,23.12 c 0,0 12.18,25.92 0,53.69 M 56,59.15 c 0,0 -12.18,25.92 0,53.69 M 81.58,67.72 c 0,0 9.07,-7.47 14.81,0 0,0 -9.38,9.2 -14.81,12.27 C 76.15,83.06 64,83.81 67.46,72.58 m 19.29,4.53 c 0,0 7.91,9.22 15.82,0 0,0 2.09,-2.62 1.83,-4.89 M 81.86,67.44 c 0,0 -10.8,-7.71 -11.28,1.93 0,0 3,4.15 8.54,0.6 z M 62.09,121.71 V 133 c 0,0 -0.25,8 5.54,8 5.79,0 6.61,0 6.61,0 0,0 10.91,0.58 11,-10.79 h -11 v -8.49 m 18.25,0 V 133 c 0,0 -0.24,8 5.55,8 5.79,0 6.6,0 6.6,0 0,0 10.91,0.58 11,-10.79 h -11 v -8.49"
       transform="translate(-40.49)"
       id="path28" />
  </g>
</svg>
