<?xml version="1.0" encoding="UTF-8" standalone="no"?>
<svg
   xmlns:dc="http://purl.org/dc/elements/1.1/"
   xmlns:cc="http://creativecommons.org/ns#"
   xmlns:rdf="http://www.w3.org/1999/02/22-rdf-syntax-ns#"
   xmlns:svg="http://www.w3.org/2000/svg"
   xmlns="http://www.w3.org/2000/svg"
   xmlns:xlink="http://www.w3.org/1999/xlink"
   xmlns:sodipodi="http://sodipodi.sourceforge.net/DTD/sodipodi-0.dtd"
   xmlns:inkscape="http://www.inkscape.org/namespaces/inkscape"
   height="182"
   width="160"
   version="1.1"
   id="svg1893"
   sodipodi:docname="front-sitting.svg"
   inkscape:version="1.0.1 (3bc2e813f5, 2020-09-07)">
  <metadata
     id="metadata1897">
    <rdf:RDF>
      <cc:Work
         rdf:about="">
        <dc:format>image/svg+xml</dc:format>
        <dc:type
           rdf:resource="http://purl.org/dc/dcmitype/StillImage" />
      </cc:Work>
    </rdf:RDF>
  </metadata>
  <sodipodi:namedview
     pagecolor="#ffffff"
     bordercolor="#666666"
     borderopacity="1"
     objecttolerance="10"
     gridtolerance="10"
     guidetolerance="10"
     inkscape:pageopacity="0"
     inkscape:pageshadow="2"
     inkscape:window-width="1920"
     inkscape:window-height="1057"
     id="namedview1895"
     showgrid="false"
     inkscape:zoom="4"
     inkscape:cx="79.973025"
     inkscape:cy="90.966405"
     inkscape:window-x="-8"
     inkscape:window-y="-8"
     inkscape:window-maximized="1"
     inkscape:current-layer="svg1893" />
  <defs
     id="defs1885">
    <g
       id="c">
      <path
         d="M4.25-60l1.2.55 3.85-8.6 3.9 8.6 1.25-.55 3.15 3.05 1.1 1.1-1.1-1.1 1.15 1.1h-.05l-.35.4.1.1q2.1 2.05 2.3 4.55l.05.6q0 1.65-.8 3.1l-.25.45-1.4 1.7.1.1-.3.3-3.25.9v4.7l-1.25.2-2 .5-3.15.9.65 1.6L12.5-37q1.7-.6 3-.6 1.55 0 2.15.6.8.8.8 2 0 1.1-.75 1.85-1.05 1.05-4.1 1.25l-1.25.05.35 1.5 1.5-.05-.05 2.75-1.5 1.25v5.75H8.1v1.55h6.6q.7 0 1.15.4.55.55.55 1.65 0 1.05-.55 1.6-.45.45-1.15.45H8.1v1.5H2.3q1.2 0 1.95-.8.9-.9.9-2.75 0-1.9-.9-2.8-.8-.8-2.05-.8h-6.6v1.55h6.55q.7 0 1.15.4.55.55.55 1.65 0 1.05-.55 1.6-.45.45-1.15.45H-4.4v1.5h-4.5l-3.25-3.25v-1.7l.45-.4q.75-.6 1.35-1.55l-1.25-1-.7.95.4-10.95 1.75-12.8.4.35.75-.7-1-1.1q-1.5-1.9-1.5-4.15l.05-1q.35-2.3 2.45-4.25l-.75-.75.5-3.95.65.3 3.85-8.6 3.85 8.6L.35-60h3.9m2 9.2v-3.65h3.5v8.15H4.8Q6-48 6.25-50.8M4.9-51.9l-.05 1.1q-.2 2.7-1.5 4.5H2.4v3.25h1.35V-45H11v1.95h1.35v-3.25h-1.2v-9.45H4.9v3.85m.55 13.95l-1.35-.8L2.2-39l-2 .25-2 .5-3.1.9.65 1.6L-.95-37l3-.6q1.55 0 2.15.6.8.8.8 2 0 1.1-.75 1.85Q3.2-32.1.2-31.9l-1.3.05.35 1.5q3.95-.05 5.9-1.55l.4-.35q1-1 1-2.85 0-1.8-1.1-2.85M-7.2-43.6l.75-1.55v-1.35h-1.5v1.45h.55l-.55 1.45h.75m2.15 0h.75l.75-1.55v-1.35h-1.5v1.45h.55l-.55 1.45"
         fill="#fff"
         fill-rule="evenodd"
         transform="translate(21.55 71)"
         id="path1871" />
      <path
         d="M14.45-60l-1.25.55-3.9-8.6-3.85 8.6-1.2-.55L9.3-71l5.15 11M.35-60l-1.25.55-3.85-8.6-3.85 8.6-.65-.3-.55-.25 5.05-11 5.1 11m-10.1 4.2l.75.75q-2.1 1.95-2.45 4.25l-.05 1q0 2.25 1.5 4.15l1 1.1-.75.7-.4-.35-.6-.7q-1.8-2.2-1.8-4.9l.05-1q.35-2.8 2.75-5m-2.55 35.35l.7-.95 1.25 1q-.6.95-1.35 1.55l-.45.4q-.55.35-1.25.45h-.35q-.95 0-2.65-1.1l-1.9-.65q-.9 0-1.3.55l-.6.95-1.35-.75 1.2-1.65q.8-.8 1.95-.8 1.1 0 2.25.8 1.65.85 2.55.85.65 0 1.3-.65m7.9 6.95V-15h6.55q.7 0 1.15-.45.55-.55.55-1.6 0-1.1-.55-1.65-.45-.4-1.15-.4H-4.4v-1.55h6.6q1.25 0 2.05.8.9.9.9 2.8 0 1.85-.9 2.75-.75.8-1.95.8h-6.7m12.5 0V-15h6.6q.7 0 1.15-.45.55-.55.55-1.6 0-1.1-.55-1.65-.45-.4-1.15-.4H8.1v-1.55h6.65q1.25 0 2.05.8.9.9.9 2.8 0 1.85-.9 2.75-.8.8-2.05.8H8.1m6.1-16.9l-1.5.05-.35-1.5 1.25-.05q3.05-.2 4.1-1.25.75-.75.75-1.85 0-1.2-.8-2-.6-.6-2.15-.6-1.3 0-3 .6l-3.35 1.25-.65-1.6 3.15-.9 2-.5 1.25-.2.75-.05 1.85.25q.85.25 1.4.8Q20-36.9 20-35.1q0 1.85-1 2.85l-.4.35q-1.6 1.2-4.4 1.5m4.25-14.45l-.1-.1 1.4-1.7.25-.45q.8-1.45.8-3.1l-.05-.6q-.2-2.5-2.3-4.55l-.1-.1.35-.4h.05l.3-.35q2.55 2.35 2.75 5.4l.05.6q0 1.9-.9 3.55-.7 1.25-1.9 2.4l-.6-.6M4.9-51.9v-3.85h6.25v9.45h1.2v3.25H11V-45H3.75v1.95H2.4v-3.25h.95q1.3-1.8 1.5-4.5l.05-1.1m1.35 1.1Q6-48 4.8-46.3h4.95v-8.15h-3.5v3.65m-.8 12.85q1.1 1.05 1.1 2.85 0 1.85-1 2.85l-.4.35q-1.95 1.5-5.9 1.55l-.35-1.5 1.3-.05q3-.2 4.05-1.25Q5-33.9 5-35q0-1.2-.8-2-.6-.6-2.15-.6l-3 .6-3.3 1.25-.65-1.6 3.1-.9 2-.5 2-.25 1.9.25 1.35.8m-10.5-5.65l.55-1.45h-.55v-1.45h1.5v1.35l-.75 1.55h-.75m-2.15 0h-.75l.55-1.45h-.55v-1.45h1.5v1.35l-.75 1.55"
         fill-rule="evenodd"
         transform="translate(21.55 71)"
         id="path1873" />
      <path
         d="M12.65-20.65v-5.75m6.05-29.45l-1.1-1.1M4.25-60H.35"
         fill="none"
         stroke="#000"
         stroke-linecap="round"
         stroke-linejoin="round"
         transform="translate(21.55 71)"
         id="path1875" />
    </g>
    <g
       id="d"
       transform="translate(.8)">
      <use
         height="3"
         transform="matrix(1.005 0 0 1 -.804 0)"
         width="4.65"
         xlink:href="#a"
         id="use1878" />
      <use
         height="3"
         transform="matrix(1.005 0 0 1 16.096 0)"
         width="4.65"
         xlink:href="#a"
         id="use1880" />
    </g>
    <path
       d="M1.35 0h.2l.55.1.45.35q.45.45.45 1L2.55 2.6q-.45.4-1 .4l-.8-.2-.25-.2-.45-.7v-.15L0 1.45v-.1q.05-.5.5-.9l.25-.2Q1 .05 1.3 0h.05m.45.85L1.55.8Q1.2.75 1 1q-.2.15-.2.45v.15l.15.45H1l.05.05.2.1.3.05.55-.2.15-.6-.05-.3L2.1 1 2.05.95 1.9.85h-.1"
       fill-rule="evenodd"
       id="b" />
    <use
       height="3"
       transform="translate(.8)"
       width="3"
       xlink:href="#b"
       id="a" />
    <style
       id="style1899">.cls-1{fill:#fff;}.cls-1,.cls-2{fill-rule:evenodd;}.cls-3{fill:none;stroke:#000;stroke-linecap:square;stroke-linejoin:round;stroke-width:2.54px;}</style>
  </defs>
  <g
     id="g1939"
     transform="matrix(1.0687391,0,0,1.0687391,41.399938,0.22)">
    <path
       class="cls-1"
       d="M 53.52,3.94 44.88,30 37.63,38.15 51.55,53.1 c 0,0 -12.24,21.31 -0.86,53.49 a 27.56,27.56 0 0 0 5.6,7.58 h 11.37 c 0,0 7.91,-0.16 17.11,0 h 28.48 c 0,0 5.81,-0.06 4.78,-9 0,-0.09 0.23,-5.17 -1.89,-8.37 -2.26,-3.41 -6.9,-4.89 -7.15,-3.13 -1.19,8.51 -3.33,9.75 -5,10.06 -1.36,0.26 -2.39,0.25 -2.29,0 2.6,-6.42 9.21,-24 -2.07,-50.68 L 113.23,38.14 104,27.55 95.47,3.94 87.89,24.13 H 62 Z"
       transform="translate(-35.79,0.22)"
       id="path1903" />
    <path
       class="cls-2"
       d="M 53.53,7.59 47.86,23.66 45.5,22.57 52.3,3.32 53.53,-0.22 c 0,0 0.9,3 1.1,3.5 l 7.44,19.23 -2.32,1.17 z"
       transform="translate(-35.79,0.22)"
       id="path1905" />
    <path
       class="cls-2"
       d="M 95.4,7.59 89.73,23.66 87.38,22.57 94.17,3.32 95.4,-0.22 c 0,0 0.9,3 1.1,3.5 l 7.44,19.23 -2.31,1.17 z"
       transform="translate(-35.79,0.22)"
       id="path1907" />
    <path
       class="cls-2"
       d="m 39.52,38.42 7,7.22 -1.7,2.16 -8,-8.26 -1,-1 1,-1.08 8,-8.88 1.77,2.08 -7,7.8 z"
       transform="translate(-35.79,0.22)"
       id="path1909" />
    <path
       class="cls-2"
       d="m 111.42,38.42 -7,7.22 1.69,2.16 8.05,-8.26 1,-1 -1,-1.08 -8,-8.88 -1.76,2.08 7,7.8 z"
       transform="translate(-35.79,0.22)"
       id="path1911" />
    <path
       class="cls-3"
       d="m 52.08,32 5.39,5.34 v 3.53 M 85.17,24.62 H 65.86 m 0,3 h 2.61 l 1.47,1.8 m 32.5,-1.8 h -2.67 l -1.5,1.8"
       transform="translate(-35.79,0.22)"
       id="path1913" />
    <path
       class="cls-2"
       d="m 89.29,31.57 v -4.79 h 2.54 v 5.16 a 1.67,1.67 0 0 1 -0.16,0.7 L 85.28,46 c -0.23,0.47 -1.07,2.32 -1.07,2.32 0,0 -0.97,-1.87 -1.21,-2.32 L 77.16,32.59 a 1.57,1.57 0 0 1 -0.13,-0.65 v -5.16 h 2.53 v 4.82 l 4.65,10.6 z"
       transform="translate(-35.79,0.22)"
       id="path1915" />
    <line
       class="cls-3"
       x1="53.25"
       y1="34.07"
       x2="43.82"
       y2="34.07"
       id="line1917" />
    <path
       class="cls-2"
       d="m 99.37,56.26 c 0,0 10.37,22.08 1.27,46.58 l -0.69,1.82 h 2.71 l 0.36,-0.94 c 9.48,-25.53 -1.35,-48.53 -1.35,-48.53 l -0.54,-1.19 -2.3,1.08 0.54,1.14 z"
       transform="translate(-35.79,0.22)"
       id="path1919" />
    <path
       class="cls-3"
       d="m 50.41,55.73 c 0,0 -11.52,24.51 0,50.77 M 74.65,63.83 c 0,0 8.58,-7.06 14,0 0,0 -8.86,8.7 -14,11.61 -5.14,2.91 -16.64,3.61 -13.36,-7 m 18.25,4.28 c 0,0 7.48,8.72 15,0 0,0 2,-2.47 1.73,-4.62 M 74.91,63.56 c 0,0 -10.22,-7.29 -10.67,1.83 0,0 2.84,3.93 8.08,0.57 z M 71,114.89 h 10.64 c 0,0 7.55,0.23 7.56,-5.25 0.01,-5.48 0,-6.24 0,-6.24 0,0 0.55,-10.32 -10.2,-10.4 v 10.4 h -8 m 28.92,11.48 h 10.67 c 0,0 7.55,0.23 7.56,-5.24 0.01,-5.47 0,-6.25 0,-6.25 0,0 0.55,-10.32 -10.2,-10.37 v 10.37 h -5.67"
       transform="translate(-35.79,0.22)"
       id="path1921" />
  </g>
</svg>
