<svg xmlns="http://www.w3.org/2000/svg" width="91.2" height="62.7"><path d="m58.35 35.85.6-1.35q.6-.6 1.35-.6l1.35.6.45.6.15.75-.6 1.5-1.35.6q-.75 0-1.35-.6l-.15-.3-.45-1.2m-5.4-9.75.6-1.35q.6-.6 1.35-.6l1.35.6.6 1.35-.6 1.5-1.35.6q-.75 0-1.35-.6l-.6-1.5"/><path d="m58.8 37.05-6 3.45-3-.3.6 1.05-18.15 10.2-2.25 5.1.75 2.25 1.5 1.35L1.5 61.2l11.4-24 2.4 1.35 4.05 3 4.5-2.85L42.6 27l.75 1.35 22.8-13.8 2.55.6h.3l.3-.3Q74.1 9.3 75.9 1.5l6.9 3.15 6.9 3q-2.7 12.3-12.6 21l-2.55-.75-12.45 7.2-.45-.6-1.35-.6q-.75 0-1.35.6l-.6 1.35.45 1.2m-5.25-9.45q.6.6 1.35.6l1.35-.6.6-1.5-.6-1.35-1.35-.6q-.75 0-1.35.6l-.6 1.35.6 1.5" fill="#fcb6c4"/><path d="M89.7 7.65q-2.7 12.3-12.6 21M49.8 40.2l.6 1.05-18.15 10.2m0 8.7L1.5 61.2l11.4-24m10.95 1.5L42.6 27l.75 1.35m25.35-13.2h.3l.3-.3Q74.1 9.3 75.9 1.5m6.9 3.15Q80.1 15.9 73.35 21.3M49.8 40.2l-6.45-11.85" fill="none" stroke="#000" stroke-linecap="round" stroke-linejoin="round" stroke-miterlimit="3" stroke-width="3"/></svg>