<svg xmlns="http://www.w3.org/2000/svg" xmlns:xlink="http://www.w3.org/1999/xlink" height="182" width="160"><defs><radialGradient xlink:href="#a" id="i" gradientUnits="userSpaceOnUse" gradientTransform="matrix(.45937 .09506 -.78556 3.79615 116.18 -311.466)" cx="62.944" cy="108.571" fx="62.944" fy="108.571" r="6.158"/><radialGradient xlink:href="#a" id="j" gradientUnits="userSpaceOnUse" gradientTransform="matrix(.87721 .03139 -.24334 6.80142 38.344 -656.868)" cx="92.219" cy="113.066" fx="92.219" fy="113.066" r="2.675"/><radialGradient xlink:href="#a" id="k" gradientUnits="userSpaceOnUse" gradientTransform="matrix(.40955 .10365 -1.15032 4.54502 152.292 -378.137)" cx="53.295" cy="105.409" fx="53.295" fy="105.409" r="7.07"/><radialGradient xlink:href="#a" id="l" cx="74.403" cy="113.906" fx="74.403" fy="113.906" r="5.141" gradientTransform="matrix(1.40797 .13375 -1.09151 6.85094 94.999 -671.889)" gradientUnits="userSpaceOnUse"/><radialGradient xlink:href="#a" id="m" cx="105.169" cy="114.304" fx="105.169" fy="114.304" r="1.502" gradientTransform="matrix(1.62675 -.06805 .48742 11.6513 -121.629 -1206.788)" gradientUnits="userSpaceOnUse"/><linearGradient id="b"><stop offset="0" stop-color="#343f53"/><stop offset=".129" stop-color="#3a4357"/><stop offset=".424" stop-color="#3a4357"/><stop offset=".516" stop-color="#4b5369"/><stop offset="1" stop-color="#585f77"/></linearGradient><linearGradient id="a"><stop offset="0" stop-color="#1e1f26"/><stop offset="1" stop-color="#1e1f26" stop-opacity=".53"/></linearGradient><linearGradient xlink:href="#b" id="h" gradientUnits="userSpaceOnUse" gradientTransform="matrix(.99156 0 0 .99382 1.949 1.3)" x1="79.488" y1="89.278" x2="109.705" y2="87.777" spreadMethod="pad"/><path d="M1.35 0h.2l.55.1.45.35q.45.45.45 1L2.55 2.6q-.45.4-1 .4l-.8-.2-.25-.2-.45-.7v-.15L0 1.45v-.1q.05-.5.5-.9l.25-.2Q1 .05 1.3 0h.05m.45.85L1.55.8Q1.2.75 1 1q-.2.15-.2.45v.15l.15.45H1l.05.05.2.1.3.05.55-.2.15-.6-.05-.3L2.1 1 2.05.95 1.9.85h-.1" fill-rule="evenodd" id="c"/><path d="M2-1.7l-2 2 1.85 1.8M0 .3V.25v2.5M0 .3l-1.85 1.8M-2-1.7L0 .25V-2.7" fill="none" stroke="#fea5c0" stroke-linecap="round" stroke-linejoin="round" transform="translate(2.5 3.2)" id="d"/><use height="3" width="3" xlink:href="#c" id="f" transform="translate(.8)"/><use height="6.45" width="5" xlink:href="#d" id="g"/><g id="e"><path d="M4.25-60l1.2.55 3.85-8.6 3.85 8.6L14.4-60l3.15 3.05 1.15 1.1-.4.4.1.1q2.1 2.05 2.35 4.55v.6q0 1.65-.8 3.1l-.25.45-1.4 1.7.1.1-.3.3-3.25.9v4.7l-3.25.7-3.1.9.65 1.6 3.3-1.25q1.7-.6 3-.6 1.55 0 2.15.6.8.8.8 2 0 1.1-.75 1.85-1.05 1.05-4.05 1.25l-1.3.05.35 1.5 1.5-.05-.05 2.75-1.5 1.25v5.75H8.1v1.55h6.55q.7 0 1.15.4.55.55.55 1.65 0 1.05-.55 1.6-.45.45-1.15.45H8.1v1.5h-17l-3.25-3.25v-1.7l.45-.4q.75-.6 1.35-1.55l-1.25-1-.7.95.4-10.95 1.75-12.8.4.35.75-.7-1-1.1q-1.5-1.9-1.5-4.15l.1-1q.35-2.3 2.4-4.25l-.75-.75.5-3.95.65.3 3.85-8.6 3.85 8.6L.35-60h3.9" fill="#fff" fill-rule="evenodd" transform="translate(21.6 71)"/><path d="M14.4-60l-1.25.55-3.85-8.6-3.85 8.6-1.2-.55L9.3-71l5.1 11M.35-60l-1.25.55-3.85-8.6-3.85 8.6-.65-.3-.55-.25 5.05-11 5.1 11m-10.1 4.2l.75.75q-2.05 1.95-2.4 4.25l-.1 1q0 2.25 1.5 4.15l1 1.1-.75.7-.4-.35-.6-.7q-1.8-2.2-1.8-4.9l.1-1q.3-2.8 2.7-5m-2.55 35.35l.7-.95 1.25 1q-.6.95-1.35 1.55l-.45.4-1.2.45h-.4q-.95 0-2.65-1.1l-1.9-.65q-.85 0-1.3.55l-.6.95-1.4-.75 1.25-1.65q.85-.8 1.95-.8t2.25.8q1.65.85 2.55.85.65 0 1.3-.65M8.1-13.5V-15h6.55q.7 0 1.15-.45.55-.55.55-1.6 0-1.1-.55-1.65-.45-.4-1.15-.4H8.1v-1.55h6.6q1.25 0 2.05.8.9.9.9 2.8 0 1.85-.9 2.75-.8.8-2.05.8H8.1m6.05-16.9l-1.5.05-.35-1.5 1.3-.05q3-.2 4.05-1.25.75-.75.75-1.85 0-1.2-.8-2-.6-.6-2.15-.6-1.3 0-3 .6l-3.3 1.25-.65-1.6 3.1-.9 3.25-.7.75-.05q2.2 0 3.25 1.05 1.1 1.05 1.1 2.85 0 1.85-1 2.85l-.4.35q-1.55 1.2-4.4 1.5m4.25-14.45l-.1-.1 1.4-1.7.25-.45q.8-1.45.8-3.1v-.6q-.25-2.5-2.35-4.55l-.1-.1.4-.4.3-.35q2.55 2.35 2.85 5.4v.6q0 1.9-.95 3.55-.7 1.25-1.9 2.4l-.6-.6" fill="#333" fill-rule="evenodd" transform="translate(21.6 71)"/><path d="M4.25-60H.35M12.6-20.65v-5.75m6.1-29.45l-1.15-1.1" fill="none" stroke="#333" stroke-linecap="round" stroke-linejoin="round" transform="translate(21.6 71)"/></g></defs><g transform="matrix(2 0 0 2 79.441 142)"><use height="57.5" transform="translate(-21.6 -71)" width="43.45" xlink:href="#e"/><use height="3" transform="matrix(1.0012 0 0 1 13.45 -56.7)" width="4.65" xlink:href="#f"/><use height="6.45" transform="matrix(1.0012 0 0 1 8.597 -51.25)" width="5" xlink:href="#g"/></g><path d="M59.363 54.197c-1.276.166-1.662 5.024-2.039 6.373-.377 1.35-.559 2.254-.834 4.075-.746 6.51-1.075 11.672-2.004 25.558 0 0-2.583 3.098-4.011 13.59 0 0-1.062 3.554-1.92 6.042 0 0 .155 3.025 9.22 3.651 2.546.734.467 1.264 12.866 1.514 2.731.079 1.188.112 3.988.059 3.305.891 2.58 1.009 10.682.861 0 0 1.443.01 3.505-.043 2.344-.056 3.637-.512 4.108-.76.38.22 2.483.712 5.402.435 4.517-.12 5.798-.167 8.983-.888 2.198.282 1.6.062 3.997-.07 1.623-.34 3.207-.618 4.721-1.81-.803-3.061-.817-3.585-1.745-6.658-.721-1.418-1.036-2.666-1.267-3.69-.6-2.107-1.371-4.72-2.035-7.253a354.41 354.41 0 00-.207-10.322l-1.046-4.263c-1.456-2.177-.468-2.555-1.551-6.112-1.163-3.818.06-6.6.06-6.6.79-2.391 2.448-4.042 2.448-4.042 1.115-1.212.966-1.895.806-4.547-.21-3.948-1.234-4.066-1.59-4.174a.6.6 0 00-.234.035c-.126.02-.263.052-.408.111-.978.193-2.788.671-3.713 1.983-.966.448-2.11.898-3.543 1.277-4.348.97-11.226 1.56-14.775 2.135-4.781-.258-7.862-.402-12.22-1.045-2.197-.324-8.1-1.92-12.24-3.348-1.637-.564-3.032-2.122-3.404-2.074z" fill="url(#h)" fill-rule="evenodd" stroke="#1e1f26" stroke-width="1.092" stroke-linejoin="round"/><path style="line-height:normal;font-variant-ligatures:normal;font-variant-position:normal;font-variant-caps:normal;font-variant-numeric:normal;font-variant-alternates:normal;font-variant-east-asian:normal;font-feature-settings:normal;font-variation-settings:normal;text-indent:0;text-align:start;text-decoration-line:none;text-decoration-style:solid;text-decoration-color:#000;text-transform:none;text-orientation:mixed;white-space:normal;shape-padding:0;shape-margin:0;inline-size:0;isolation:auto;mix-blend-mode:normal;solid-color:#000;solid-opacity:1" d="M61.283 91.787s-.66 2.065-1.747 6.094c-.527 1.952-.729 4.405-1.716 6.964-1.624 3.81-2.486 6.313-2.941 7.868-.456 1.557-.51 2.204-.51 2.204a.397.397 0 00.331.422l5.247.868a.397.397 0 00.458-.443s-.05-.359.038-1.137c.087-.777.316-1.942.89-3.47a34.182 34.182 0 001.527-5.211v-.002c.695-3.108.683-5.635.86-7.514.334-3.545.423-5.177.423-5.177l-.397-.022-1.738-1.103.031-.1-.378-.12z" color="#000" font-weight="400" font-family="sans-serif" overflow="visible" fill="url(#i)" fill-rule="evenodd" transform="matrix(1.04999 0 0 .88118 .588 12.041)"/><path style="line-height:normal;font-variant-ligatures:normal;font-variant-position:normal;font-variant-caps:normal;font-variant-numeric:normal;font-variant-alternates:normal;font-variant-east-asian:normal;font-feature-settings:normal;font-variation-settings:normal;text-indent:0;text-align:start;text-decoration-line:none;text-decoration-style:solid;text-decoration-color:#000;text-transform:none;text-orientation:mixed;white-space:normal;shape-padding:0;shape-margin:0;inline-size:0;isolation:auto;mix-blend-mode:normal;solid-color:#000;solid-opacity:1" d="M92.053 99.838a.367.367 0 00-.347.385s.324 5.047-1.073 12.147c-.386 1.96-.267 2.388-.868 4.019a.367.367 0 00.36.493l3.192-.142a.367.367 0 00.346-.427c-.518-3.072-1.208-6.08-1.105-8.534.145-3.479-.12-7.603-.12-7.603a.367.367 0 00-.385-.338z" color="#000" font-weight="400" font-family="sans-serif" overflow="visible" fill="url(#j)" fill-rule="evenodd" transform="matrix(.95187 0 0 .95403 5.589 4.278)"/><path style="line-height:normal;font-variant-ligatures:normal;font-variant-position:normal;font-variant-caps:normal;font-variant-numeric:normal;font-variant-alternates:normal;font-variant-east-asian:normal;font-feature-settings:normal;font-variation-settings:normal;text-indent:0;text-align:start;text-decoration-line:none;text-decoration-style:solid;text-decoration-color:#000;text-transform:none;text-orientation:mixed;white-space:normal;shape-padding:0;shape-margin:0;inline-size:0;isolation:auto;mix-blend-mode:normal;solid-color:#000;solid-opacity:1" d="M54.443 89.4a7.745 7.745 0 00-.87.034.5.5 0 00-.425.668s.55 1.52.495 3.546c-.045 1.612-.604 3.46-1.385 6.538-.65 2.561-1.63 6.223-3.201 9.658-1.028 2.247-2.568 4.633-4.29 7.262a.5.5 0 00.192.72l6.435 3.253a.5.5 0 00.694-.27c1.081-2.86 1.293-6.63 1.992-8.797 4.684-14.524 5.016-20.078 5.016-20.078a.5.5 0 00-.157-.393c-1.34-1.261-2.57-2.102-4.496-2.14z" color="#000" font-weight="400" font-family="sans-serif" overflow="visible" fill="url(#k)" fill-rule="evenodd" transform="matrix(.84441 0 0 .70812 11.022 27.168)"/><path d="M55.054 90.597s2.844.46 5.008 2.085c1.845-.038 3.21.425 4.304.608 2.29.383 2.239 1.01 4.477 1.692 1.588-.192 3.535.101 5.283.208 2.479.15 5.957.722 6.456.82.395.044 4.127-.31 5.975-.04 3.061.443 4.212.614 5.47.827.738.012 2.55-.59 7.253-1.317 2.85-.442 7.243-.528 11.109-.918" fill="none" stroke="#1e1f26" stroke-width="1.985" stroke-linecap="round" stroke-linejoin="round"/><path style="line-height:normal;font-variant-ligatures:normal;font-variant-position:normal;font-variant-caps:normal;font-variant-numeric:normal;font-variant-alternates:normal;font-variant-east-asian:normal;font-feature-settings:normal;font-variation-settings:normal;text-indent:0;text-align:start;text-decoration-line:none;text-decoration-style:solid;text-decoration-color:#000;text-transform:none;text-orientation:mixed;white-space:normal;shape-padding:0;shape-margin:0;inline-size:0;isolation:auto;mix-blend-mode:normal;solid-color:#000;solid-opacity:1" d="M78.409 96.6a.65.79 87.712 00-.72.568s-2.815 16.531-11.095 26.236a.65.79 87.712 00.655 1.016l9.658-.236a.65.79 87.712 00.723-.42c2.047-4.277 1.234-6.634 1.687-10.002 1.356-10.096-.066-16.64-.066-16.64a.65.79 87.712 00-.842-.522z" color="#000" font-weight="400" font-family="sans-serif" overflow="visible" fill="url(#l)" fill-rule="evenodd" transform="matrix(.54606 0 0 .585 34.08 42.456)"/><path style="font-variation-settings:normal" d="M103.453 58.615s-6.857.927-7.898 17.12c-29.862-8.001-43.188-5.352-43.188-5.352s3.027-15.005 7.885-15.82c0 0 8.406 9.508 43.2 4.052z" fill="#354054" stroke="#1e1f26" stroke-width="1.9"/><path style="line-height:normal;font-variant-ligatures:normal;font-variant-position:normal;font-variant-caps:normal;font-variant-numeric:normal;font-variant-alternates:normal;font-variant-east-asian:normal;font-feature-settings:normal;font-variation-settings:normal;text-indent:0;text-align:start;text-decoration-line:none;text-decoration-style:solid;text-decoration-color:#000;text-transform:none;text-orientation:mixed;white-space:normal;shape-padding:0;shape-margin:0;inline-size:0;isolation:auto;mix-blend-mode:normal;solid-color:#000;solid-opacity:1" d="M104.6 105.158a.5.5 0 00-.502.432s-.513 3.75-.4 10.014c.048 2.707.31 3.942.204 6.477a.5.5 0 00.537.52l1.887-.143a.5.5 0 00.46-.55 57.178 57.178 0 00-.727-5.047c-.18-.943-.319-1.707-.399-3.416-.219-4.673-.536-4.804-.566-7.793a.5.5 0 00-.494-.494z" color="#000" font-weight="400" font-family="sans-serif" overflow="visible" fill="url(#m)" fill-rule="evenodd" transform="matrix(.66956 0 0 .67108 35.834 32.658)"/></svg>