<svg xmlns="http://www.w3.org/2000/svg" xmlns:xlink="http://www.w3.org/1999/xlink" height="182" width="160"><defs><radialGradient xlink:href="#a" id="i" gradientUnits="userSpaceOnUse" gradientTransform="matrix(.57874 .11976 -.98969 4.78255 133.52 -415.59)" cx="62.944" cy="108.571" fx="62.944" fy="108.571" r="6.158"/><radialGradient xlink:href="#a" id="j" cx="74.403" cy="113.906" fx="74.403" fy="113.906" r="5.141" gradientTransform="matrix(.97152 .18166 -1.07273 5.73699 123.37 -548.021)" gradientUnits="userSpaceOnUse"/><radialGradient xlink:href="#a" id="k" cx="92.219" cy="113.066" fx="92.219" fy="113.066" r="2.675" gradientTransform="matrix(1.19552 .04277 -.33164 9.26942 18.98 -931.45)" gradientUnits="userSpaceOnUse"/><radialGradient xlink:href="#a" id="l" gradientUnits="userSpaceOnUse" gradientTransform="matrix(.40955 .10365 -1.15032 4.54502 152.292 -378.137)" cx="53.295" cy="105.409" fx="53.295" fy="105.409" r="7.07"/><radialGradient xlink:href="#a" id="m" cx="105.169" cy="114.304" fx="105.169" fy="114.304" r="1.502" gradientTransform="matrix(1.62675 -.06805 .48742 11.6513 -121.629 -1206.788)" gradientUnits="userSpaceOnUse"/><linearGradient xlink:href="#b" id="h" gradientUnits="userSpaceOnUse" gradientTransform="translate(1.176 .398)" x1="79.488" y1="89.278" x2="109.705" y2="87.777" spreadMethod="pad"/><linearGradient id="b"><stop offset="0" stop-color="#343f53"/><stop offset=".129" stop-color="#3a4357"/><stop offset=".424" stop-color="#3a4357"/><stop offset=".516" stop-color="#4b5369"/><stop offset="1" stop-color="#585f77"/></linearGradient><linearGradient id="a"><stop offset="0" stop-color="#1e1f26"/><stop offset="1" stop-color="#1e1f26" stop-opacity=".53"/></linearGradient><path d="M1.35 0h.2l.55.1.45.35q.45.45.45 1L2.55 2.6q-.45.4-1 .4l-.8-.2-.25-.2-.45-.7v-.15L0 1.45v-.1q.05-.5.5-.9l.25-.2Q1 .05 1.3 0h.05m.45.85L1.55.8Q1.2.75 1 1q-.2.15-.2.45v.15l.15.45H1l.05.05.2.1.3.05.55-.2.15-.6-.05-.3L2.1 1 2.05.95 1.9.85h-.1" fill-rule="evenodd" id="c"/><path d="M2-1.7l-2 2 1.85 1.8M0 .3V.25v2.5M0 .3l-1.85 1.8M-2-1.7L0 .25V-2.7" fill="none" stroke="#fea5c0" stroke-linecap="round" stroke-linejoin="round" transform="translate(2.5 3.2)" id="d"/><use height="3" width="3" xlink:href="#c" id="f" transform="translate(.8)"/><use height="6.45" width="5" xlink:href="#d" id="g"/><g id="e"><path d="M4.25-60L9.3-71l5.1 11-1.25.55-3.85-8.6-3.85 8.6-1.2-.55m14.45 4.15l.3-.35q2.55 2.35 2.85 5.4v.6q0 1.9-.95 3.55-.7 1.25-1.9 2.4l-.6-.6-.1-.1 1.4-1.7.25-.45q.8-1.45.8-3.1v-.6q-.25-2.5-2.35-4.55l-.1-.1.4-.4m-3.85 16.9l.75-.05q2.2 0 3.25 1.05 1.1 1.05 1.1 2.85 0 1.85-1 2.85l-.4.35q-1.55 1.2-4.4 1.5l-1.5.05-.35-1.5 1.3-.05q3-.2 4.05-1.25.75-.75.75-1.85 0-1.2-.8-2-.6-.6-2.15-.6-1.3 0-3 .6l-3.3 1.25-.65-1.6 3.1-.9 3.25-.7m-3.1 29.4v6.6q0 1.25-.8 2.05-.9.9-2.75.9-1.9 0-2.8-.9-.8-.8-.8-2.05v-6.6h1.55V-3q0 .7.4 1.15.55.55 1.65.55 1.05 0 1.6-.55.45-.45.45-1.15v-6.55h1.5m-14.8 0h1.5v6.6q0 1.25-.8 2.05-.9.9-2.75.9Q-7 0-7.9-.9q-.8-.8-.8-2.05v-6.6h1.55V-3q0 .7.4 1.15.55.55 1.65.55 1.05 0 1.6-.55.45-.45.45-1.15v-6.55m-9.1-8.9q-.7.45-1.6.45-.95 0-2.65-1.1l-1.9-.65q-.85 0-1.3.55l-.6.95-1.4-.75 1.25-1.65q.85-.8 1.95-.8t2.25.8q1.65.85 2.55.85.65 0 1.3-.65l.7-.95 1.25 1q-.6.95-1.35 1.55l-.45.4m2-25.75l-.6-.7q-1.8-2.2-1.8-4.9l.1-1q.3-2.8 2.7-5l.75.75q-2.05 1.95-2.4 4.25l-.1 1q0 2.25 1.5 4.15l1 1.1-.75.7-.4-.35m.9-15.55L-9.8-60l5.05-11 5.1 11-1.25.55-3.85-8.6-3.85 8.6-.65-.3" fill="#333" fill-rule="evenodd" transform="translate(21.6 71)"/><path d="M.35-60h3.9l1.2.55 3.85-8.6 3.85 8.6L14.4-60l3.15 3.05 1.15 1.1-.4.4.1.1q2.1 2.05 2.35 4.55v.6q0 1.65-.8 3.1l-.25.45-1.4 1.7.1.1-.3.3-3.25.9v4.7l-3.25.7-3.1.9.65 1.6 3.3-1.25q1.7-.6 3-.6 1.55 0 2.15.6.8.8.8 2 0 1.1-.75 1.85-1.05 1.05-4.05 1.25l-1.3.05.35 1.5 1.5-.05-.05 2.75-1.5 1.25v12.25l-.85 4.6h-1.5V-3q0 .7-.45 1.15-.55.55-1.6.55-1.1 0-1.65-.55-.4-.45-.4-1.15v-6.55H4.6l-2.35-3.5H.5l-3.55 3.5V-3q0 .7-.45 1.15-.55.55-1.6.55-1.1 0-1.65-.55-.4-.45-.4-1.15v-6.55H-8.7l-1.7-1.1-1.75-3.9v-3.9l.45-.4q.75-.6 1.35-1.55l-1.25-1-.7.95.4-10.95 1.75-12.8.4.35.75-.7-1-1.1q-1.5-1.9-1.5-4.15l.1-1q.35-2.3 2.4-4.25l-.75-.75.5-3.95.65.3 3.85-8.6 3.85 8.6L.35-60" fill="#fff" fill-rule="evenodd" transform="translate(21.6 71)"/><path d="M.35-60h3.9m13.3 3.05l1.15 1.1M12.6-26.4v12.25" fill="none" stroke="#333" stroke-linecap="round" stroke-linejoin="round" transform="translate(21.6 71)"/></g></defs><g transform="matrix(2 0 0 2 79.441 142)"><use height="71" transform="translate(-21.6 -71)" width="43.45" xlink:href="#e"/><use height="3" transform="matrix(1.0012 0 0 1 13.45 -56.7)" width="4.65" xlink:href="#f"/><use height="6.45" transform="matrix(1.0012 0 0 1 9.847 -51.7)" width="5" xlink:href="#g"/></g><path d="M108.307 74.04c1.092 3.578.095 3.958 1.563 6.149l1.058 4.29s.179 4.698.209 10.387c.669 2.548 1.438 5.661 1.583 7.577 0 0 2.59 14.347 3.682 17.947 0 0-4.771 1.713-10.075 2.53-11.73 1.11-26.246.955-26.246.955-20.296.132-23.104-2.03-23.104-2.03-7.762-2.05-10.403-4.5-10.403-4.5 2.425-7.644 3.072-11.388 3.072-11.388 1.44-10.557 4.515-16.103 4.515-16.103.936-13.972 1.27-19.166 2.022-25.717.277-1.831.46-2.74.84-4.099.38-1.358.769-6.247 2.056-6.414.375-.048 1.783 1.52 3.434 2.087 4.174 1.437 10.127 3.043 12.344 3.37 4.394.647 7.501.792 12.323 1.052 3.58-.58 10.516-1.173 14.9-2.15 5.002-1.32 6.82-3.514 7.966-3.427.358.109 1.392.228 1.603 4.2.161 2.668.313 3.357-.812 4.575 0 0-1.673 1.662-2.469 4.069 0 0-1.234 2.798-.061 6.64z" fill="url(#h)" fill-rule="evenodd" stroke="#1e1f26" stroke-width="1.1" transform="matrix(.99156 0 0 .99382 .782 .904)"/><path d="M54.734 90.251s2.868.463 5.05 2.098c1.86-.038 3.238.427 4.341.611 2.309.386 2.258 1.018 4.514 1.703 1.602-.193 3.566.102 5.328.21 2.5.15 6.009.726 6.512.824.398.045 4.162-.31 6.026-.04 3.087.447 4.248.618 5.515.833.746.012 2.574-.594 7.315-1.326 2.876-.444 7.305-.531 11.204-.924" fill="none" stroke="#1e1f26" stroke-width="2" stroke-linecap="round" stroke-linejoin="round" transform="matrix(.99156 0 0 .99382 .782 .904)"/><path style="line-height:normal;font-variant-ligatures:normal;font-variant-position:normal;font-variant-caps:normal;font-variant-numeric:normal;font-variant-alternates:normal;font-variant-east-asian:normal;font-feature-settings:normal;font-variation-settings:normal;text-indent:0;text-align:start;text-decoration-line:none;text-decoration-style:solid;text-decoration-color:#000;text-transform:none;text-orientation:mixed;white-space:normal;shape-padding:0;shape-margin:0;inline-size:0;isolation:auto;mix-blend-mode:normal;solid-color:#000;solid-opacity:1" d="M64.36 92.445s-.832 2.602-2.202 7.678c-.663 2.458-.918 5.55-2.162 8.773-2.045 4.8-3.132 7.954-3.705 9.913-.574 1.961-.643 2.777-.643 2.777a.5.5 0 00.418.531l6.61 1.094a.5.5 0 00.578-.559s-.063-.452.047-1.431c.11-.98.398-2.448 1.12-4.371.797-2.12 1.436-4.206 1.925-6.567v-.002c.875-3.916.86-7.098 1.084-9.467.42-4.465.533-6.521.533-6.521l-.5-.027-2.19-1.391.04-.125-.477-.152z" color="#000" font-weight="400" font-family="sans-serif" overflow="visible" fill="url(#i)" fill-rule="evenodd" transform="matrix(.99156 0 0 .99382 1.949 1.3)"/><path style="line-height:normal;font-variant-ligatures:normal;font-variant-position:normal;font-variant-caps:normal;font-variant-numeric:normal;font-variant-alternates:normal;font-variant-east-asian:normal;font-feature-settings:normal;font-variation-settings:normal;text-indent:0;text-align:start;text-decoration-line:none;text-decoration-style:solid;text-decoration-color:#000;text-transform:none;text-orientation:mixed;white-space:normal;shape-padding:0;shape-margin:0;inline-size:0;isolation:auto;mix-blend-mode:normal;solid-color:#000;solid-opacity:1" d="M76.537 100.67a.55.55 0 00-.525.445s-2.715 13.834-8.91 21.633a.55.55 0 00.408.89l6.717.272a.55.55 0 00.521-.32c1.618-3.514 1.162-5.547 1.63-8.371 1.406-8.467.72-14.067.72-14.067a.55.55 0 00-.56-.482z" color="#000" font-weight="400" font-family="sans-serif" overflow="visible" fill="url(#j)" fill-rule="evenodd" transform="matrix(.99156 0 0 .99382 1.949 1.3)"/><path style="line-height:normal;font-variant-ligatures:normal;font-variant-position:normal;font-variant-caps:normal;font-variant-numeric:normal;font-variant-alternates:normal;font-variant-east-asian:normal;font-feature-settings:normal;font-variation-settings:normal;text-indent:0;text-align:start;text-decoration-line:none;text-decoration-style:solid;text-decoration-color:#000;text-transform:none;text-orientation:mixed;white-space:normal;shape-padding:0;shape-margin:0;inline-size:0;isolation:auto;mix-blend-mode:normal;solid-color:#000;solid-opacity:1" d="M92.18 99.838a.5.5 0 00-.473.525s.44 6.879-1.463 16.555c-.525 2.672-.364 3.254-1.183 5.477a.5.5 0 00.492.671l4.35-.193a.5.5 0 00.47-.582c-.705-4.186-1.646-8.287-1.506-11.63.198-4.741-.162-10.362-.162-10.362a.5.5 0 00-.525-.461z" color="#000" font-weight="400" font-family="sans-serif" overflow="visible" fill="url(#k)" fill-rule="evenodd" transform="matrix(.99156 0 0 .99382 1.949 1.3)"/><path style="line-height:normal;font-variant-ligatures:normal;font-variant-position:normal;font-variant-caps:normal;font-variant-numeric:normal;font-variant-alternates:normal;font-variant-east-asian:normal;font-feature-settings:normal;font-variation-settings:normal;text-indent:0;text-align:start;text-decoration-line:none;text-decoration-style:solid;text-decoration-color:#000;text-transform:none;text-orientation:mixed;white-space:normal;shape-padding:0;shape-margin:0;inline-size:0;isolation:auto;mix-blend-mode:normal;solid-color:#000;solid-opacity:1" d="M54.443 89.4a7.745 7.745 0 00-.87.034.5.5 0 00-.425.668s.55 1.52.495 3.546c-.045 1.612-.604 3.46-1.385 6.538-.65 2.561-1.63 6.223-3.201 9.658-1.028 2.247-2.298 4.081-4.02 6.71a.5.5 0 00.192.72l6.435 3.253a.5.5 0 00.693-.27c1.082-2.86 1.024-6.078 1.723-8.245 4.684-14.524 5.016-20.078 5.016-20.078a.5.5 0 00-.157-.393c-1.34-1.261-2.57-2.102-4.496-2.14z" color="#000" font-weight="400" font-family="sans-serif" overflow="visible" fill="url(#l)" fill-rule="evenodd" transform="matrix(.99156 0 0 .99382 1.949 1.3)"/><path style="line-height:normal;font-variant-ligatures:normal;font-variant-position:normal;font-variant-caps:normal;font-variant-numeric:normal;font-variant-alternates:normal;font-variant-east-asian:normal;font-feature-settings:normal;font-variation-settings:normal;text-indent:0;text-align:start;text-decoration-line:none;text-decoration-style:solid;text-decoration-color:#000;text-transform:none;text-orientation:mixed;white-space:normal;shape-padding:0;shape-margin:0;inline-size:0;isolation:auto;mix-blend-mode:normal;solid-color:#000;solid-opacity:1" d="M104.6 105.158a.5.5 0 00-.502.432s-.513 3.75-.4 10.014c.048 2.707.31 3.942.204 6.477a.5.5 0 00.537.52l1.887-.143a.5.5 0 00.46-.55 57.178 57.178 0 00-.727-5.047c-.18-.943-.319-1.707-.399-3.416-.219-4.673-.536-4.804-.566-7.793a.5.5 0 00-.494-.494z" color="#000" font-weight="400" font-family="sans-serif" overflow="visible" fill="url(#m)" fill-rule="evenodd" transform="matrix(.99156 0 0 .99382 1.949 1.3)"/><path style="font-variation-settings:normal" d="M103.544 58.07s-6.915.933-7.965 17.227c-30.116-8.052-43.556-5.386-43.556-5.386s3.053-15.099 7.953-15.92c0 0 8.477 9.569 43.568 4.079z" fill="#354054" stroke="#1e1f26" stroke-width="1.914" transform="matrix(.99156 0 0 .99382 .782 .904)"/></svg>