<svg height="182" width="160" xmlns:xlink="http://www.w3.org/1999/xlink" xmlns="http://www.w3.org/2000/svg"><defs><radialGradient xlink:href="#a" id="j" gradientUnits="userSpaceOnUse" gradientTransform="matrix(.8764 -.00306 .00583 1.9117 12.23 -76.625)" cx="96.975" cy="82.812" fx="96.975" fy="82.812" r="7.643"/><radialGradient xlink:href="#b" id="k" gradientUnits="userSpaceOnUse" gradientTransform="matrix(.57874 .11976 -.98969 4.78255 133.52 -415.59)" cx="62.944" cy="108.571" fx="62.944" fy="108.571" r="6.158"/><radialGradient xlink:href="#b" id="l" cx="74.403" cy="113.906" fx="74.403" fy="113.906" r="5.141" gradientTransform="matrix(.97152 .18166 -1.07273 5.73699 123.37 -548.021)" gradientUnits="userSpaceOnUse"/><radialGradient xlink:href="#b" id="m" cx="92.219" cy="113.066" fx="92.219" fy="113.066" r="2.675" gradientTransform="matrix(1.19552 .04277 -.33164 9.26942 18.98 -931.45)" gradientUnits="userSpaceOnUse"/><radialGradient xlink:href="#b" id="n" gradientUnits="userSpaceOnUse" gradientTransform="matrix(.40955 .10365 -1.15032 4.54502 152.292 -378.137)" cx="53.295" cy="105.409" fx="53.295" fy="105.409" r="7.07"/><radialGradient xlink:href="#b" id="o" cx="105.169" cy="114.304" fx="105.169" fy="114.304" r="1.502" gradientTransform="matrix(1.62675 -.06805 .48742 11.6513 -121.629 -1206.788)" gradientUnits="userSpaceOnUse"/><linearGradient xlink:href="#c" id="i" gradientUnits="userSpaceOnUse" gradientTransform="translate(1.176 .398)" x1="79.488" y1="89.278" x2="109.705" y2="87.777" spreadMethod="pad"/><linearGradient id="c"><stop offset="0" stop-color="#343f53"/><stop offset=".129" stop-color="#3a4357"/><stop offset=".424" stop-color="#3a4357"/><stop offset=".516" stop-color="#4b5369"/><stop offset="1" stop-color="#585f77"/></linearGradient><linearGradient id="a"><stop offset="0" stop-color="#647cad"/><stop offset=".658" stop-color="#657cad"/><stop offset="1" stop-color="#415379"/></linearGradient><linearGradient id="b"><stop offset="0" stop-color="#1e1f26"/><stop offset="1" stop-color="#1e1f26" stop-opacity=".53"/></linearGradient><path d="M10.25-2.6H.75l-1.1-1" fill="none" stroke="#333" stroke-linecap="round" stroke-linejoin="round" transform="translate(.85 4.1)" id="d"/><path d="m2-1.7-2 2 1.85 1.8M0 .3V.25v2.5M0 .3l-1.85 1.8M-2-1.7 0 .25V-2.7" fill="none" stroke="#fea5c0" stroke-linecap="round" stroke-linejoin="round" transform="translate(2.5 3.2)" id="f"/><g id="g"><path d="M.25-60h3.9l1.2.55 3.9-8.6 3.85 8.6 1.25-.55 3.15 3.05 1.1 1.1-.4.4.1.1q2.1 2.05 2.35 4.55v.6q0 1.65-.8 3.1l-.25.45-1.4 1.7.15.15-.3.25-3.25.9v4.7l-3.25.7-3.1.9.65 1.6L12.4-37q1.7-.6 3-.6 1.55 0 2.15.6.8.8.8 2 0 1.1-.75 1.85-1.05 1.05-4.1 1.25l-1.25.05.35 1.5 1.5-.05-.05 2.75-1.5 1.25v12.25l-.85 4.6h-1.5V-3q0 .7-.45 1.15-.55.55-1.6.55Q7-1.3 6.5-1.85 6.05-2.3 6.1-3v-6.55H4.5l-2.35-3.5H.4l-3.55 3.5V-3q0 .7-.45 1.15-.55.55-1.6.55-1.1 0-1.65-.55-.45-.45-.4-1.15v-6.55H-8.8l-1.7-1.1-1.75-3.9v-3.9l.45-.4q.75-.6 1.35-1.55l-1.25-1-.7.95.4-10.95 1.75-12.8.4.35.75-.7-1-1.1q-1.55-1.9-1.5-4.15l.05-1q.35-2.3 2.45-4.25l-.75-.75.5-3.95.65.3 3.85-8.6 3.85 8.6L.25-60m5.1 22.05Q4.3-39 2.1-39q-1.35 0-4 .75l-3.1.9.65 1.6 3.3-1.25q1.7-.6 3-.6 1.55 0 2.15.6.8.8.8 2 0 1.1-.75 1.85Q3.1-32.1.1-31.9l-1.3.05.35 1.5q3.95-.05 5.9-1.55l.45-.35q1-1 1-2.85-.05-1.8-1.15-2.85" fill="#fff" fill-rule="evenodd" transform="translate(21.7 71)"/><path d="m4.15-60 5.1-11 5.1 11-1.25.55-3.85-8.6-3.9 8.6-1.2-.55m14.5 4.1.25-.3q2.55 2.35 2.8 5.4v.6q0 1.9-.9 3.55-.7 1.25-1.9 2.4l-.55-.55-.15-.15 1.4-1.7.25-.45q.8-1.45.8-3.1v-.6q-.25-2.5-2.35-4.55l-.1-.1.4-.4.05-.05M14.8-38.95l.75-.05q2.2 0 3.25 1.05 1.1 1.05 1.1 2.85 0 1.85-1 2.85l-.4.35q-1.55 1.2-4.4 1.5l-1.5.05-.35-1.5 1.25-.05q3.05-.2 4.1-1.25.75-.75.75-1.85 0-1.2-.8-2-.6-.6-2.15-.6-1.3 0-3 .6l-3.3 1.25-.65-1.6 3.1-.9 3.25-.7m-3.1 29.4v6.6q0 1.25-.8 2.05-.9.9-2.75.9Q6.2 0 5.3-.9q-.8-.8-.8-2.05v-6.6h1.6V-3q-.05.7.4 1.15.5.55 1.65.55 1.05 0 1.6-.55.45-.45.45-1.15v-6.55h1.5m-14.85 0h1.5v6.6q0 1.25-.8 2.05-.9.9-2.75.9Q-7.1 0-8-.9q-.85-.8-.8-2.05v-6.6h1.55V-3q-.05.7.4 1.15.55.55 1.65.55 1.05 0 1.6-.55.45-.45.45-1.15v-6.55m-9.1-8.9q-.7.45-1.6.45-1 0-2.7-1.1-1.15-.65-1.9-.65-.85 0-1.3.55l-.6.95-1.35-.75 1.2-1.65q.85-.8 1.95-.8t2.3.8q1.65.85 2.55.85.6 0 1.3-.65l.7-.95 1.25 1q-.6.95-1.35 1.55l-.45.4m2-25.75-.6-.7q-1.85-2.2-1.8-4.9l.05-1q.35-2.8 2.75-5l.75.75q-2.1 1.95-2.45 4.25l-.05 1q-.05 2.25 1.5 4.15l1 1.1-.75.7-.4-.35m.9-15.55L-9.9-60l5.05-11 5.1 11-1.25.55-3.85-8.6-3.85 8.6-.65-.3m14.7 21.8q1.1 1.05 1.15 2.85 0 1.85-1 2.85l-.45.35q-1.95 1.5-5.9 1.55l-.35-1.5 1.3-.05q3-.2 4.05-1.25.75-.75.75-1.85 0-1.2-.8-2-.6-.6-2.15-.6-1.3 0-3 .6l-3.3 1.25-.65-1.6 3.1-.9Q.75-39 2.1-39q2.2 0 3.25 1.05" fill="#333" fill-rule="evenodd" transform="translate(21.7 71)"/><path d="m17.5-56.95 1.15 1.05-.05.05-1.1-1.1" fill="red" fill-rule="evenodd" transform="translate(21.7 71)"/><path d="M.25-60h3.9m8.4 33.6v12.25m6.05-41.7-1.1-1.1" fill="none" stroke="#333" stroke-linecap="round" stroke-linejoin="round" transform="translate(21.7 71)"/></g><g id="h" transform="translate(11.45 4.1)"><use height="2" transform="translate(-.85 -4.1)" width="11.6" xlink:href="#d"/><use height="6.45" transform="translate(-11.45 -3.8)" width="5" xlink:href="#e"/></g><use height="6.45" width="5" xlink:href="#f" id="e"/></defs><g transform="matrix(2 0 0 2 79.641 142)"><use height="71" transform="translate(-21.7 -71)" width="43.4" xlink:href="#g"/><use height="6.75" transform="translate(-8.85 -52.5)" width="22.2" xlink:href="#h"/></g><path d="M108.307 74.04c1.092 3.578.095 3.958 1.563 6.149l1.058 4.29s.179 4.698.209 10.387c.669 2.548 1.438 5.661 1.583 7.577 0 0 2.59 14.347 3.682 17.947 0 0-4.771 1.713-10.075 2.53-11.73 1.11-26.246.955-26.246.955-20.296.132-23.104-2.03-23.104-2.03-7.762-2.05-10.403-4.5-10.403-4.5 2.425-7.644 3.072-11.388 3.072-11.388 1.44-10.557 4.515-16.103 4.515-16.103.936-13.972 1.27-19.166 2.022-25.717.277-1.831.46-2.74.84-4.099.38-1.358.769-6.247 2.056-6.414.375-.048 1.707.485 3.434.747 4.558.69 12.237 1.508 14.422 2.007 4.008.914 4.166 1.023 9.255 2.99 0 0 5.16 2.15 6.552 3.747l10.864-.11s1.627-2.062 3.16-3.844c.862-1.117 2.135-4.692 3.28-4.605.358.109 1.392.228 1.603 4.2.161 2.668.313 3.357-.812 4.575 0 0-1.673 1.662-2.469 4.069 0 0-1.234 2.798-.061 6.64z" fill="url(#i)" fill-rule="evenodd" stroke="#1e1f26" stroke-width="1.1" transform="matrix(.99156 0 0 .99382 .782 .904)"/><path d="M54.734 90.251s2.868.463 5.05 2.098c1.86-.038 3.238.427 4.341.611 2.309.386 2.258 1.018 4.514 1.703 1.602-.193 3.566.102 5.328.21 2.5.15 6.009.726 6.512.824.398.045 4.162-.31 6.026-.04 3.087.447 4.248.618 5.515.833.746.012 2.574-.594 7.315-1.326 2.876-.444 7.305-.531 11.204-.924" fill="none" stroke="#1e1f26" stroke-width="2" stroke-linecap="round" stroke-linejoin="round" transform="matrix(.99156 0 0 .99382 .782 .904)"/><path style="line-height:normal;font-variant-ligatures:normal;font-variant-position:normal;font-variant-caps:normal;font-variant-numeric:normal;font-variant-alternates:normal;font-variant-east-asian:normal;font-feature-settings:normal;font-variation-settings:normal;text-indent:0;text-align:start;text-decoration-line:none;text-decoration-style:solid;text-decoration-color:#000;text-transform:none;text-orientation:mixed;white-space:normal;shape-padding:0;shape-margin:0;inline-size:0;isolation:auto;mix-blend-mode:normal;solid-color:#000;solid-opacity:1" d="M94.678 67.6c-.248.285-.92 1.412-1.101 1.81l-2.32 7.89s-2.091 4.336 1.963 9.964c.662.918 2.58 3.813-.31 11.332 8.798-6.886 11.835-14.383 11.702-15.426-.678-5.33-4.643-6.315-2.254-13.122.095-.27-.26-1.496-.26-1.77" color="#000" font-weight="400" font-family="sans-serif" overflow="visible" fill="url(#j)" fill-rule="evenodd" transform="matrix(.99156 0 0 .99382 .782 .904)"/><path style="line-height:normal;font-variant-ligatures:normal;font-variant-position:normal;font-variant-caps:normal;font-variant-numeric:normal;font-variant-alternates:normal;font-variant-east-asian:normal;font-feature-settings:normal;font-variation-settings:normal;text-indent:0;text-align:start;text-decoration-line:none;text-decoration-style:solid;text-decoration-color:#000;text-transform:none;text-orientation:mixed;white-space:normal;shape-padding:0;shape-margin:0;inline-size:0;isolation:auto;mix-blend-mode:normal;solid-color:#000;solid-opacity:1" d="M94.435 68.24c-.381.427-.954 1.396-1.185 1.886a.5.5 0 0 0-.026.068l-2.364 7.73.03-.077s-.579 1.18-.612 3.036c-.032 1.856.47 4.43 2.515 7.296.313.438.876 1.26 1.05 2.906.174 1.647-.067 4.117-1.509 7.743-.188.466.34.891.732.59 4.436-3.378 7.436-6.926 9.316-9.77.94-1.42 1.6-2.664 2.022-3.633.21-.484.363-.899.46-1.24.098-.341.16-.58.125-.87-.329-2.743-1.52-4.394-2.246-6.065-.727-1.672-1.088-3.37.092-6.614.1-.273.052-.402.03-.582a7.463 7.463 0 0 0-.094-.56c-.038-.19-.079-.375-.107-.523-.03-.148-.027-.435-.027-.392l-.978.138c0 .178.029.287.06.45.032.162.072.345.108.524.035.18.067.356.082.485.016.13-.026.251.025.111-1.246 3.424-.858 5.56-.072 7.368.786 1.809 1.871 3.281 2.17 5.783-.003-.033-.01.183-.091.465a9.412 9.412 0 0 1-.416 1.115c-.394.905-1.029 2.105-1.94 3.482-1.616 2.445-4.28 5.454-7.857 8.412.892-2.765 1.233-5.001 1.072-6.526-.196-1.851-.895-2.917-1.23-3.387-1.928-2.701-2.358-5.03-2.329-6.688.03-1.658.506-2.6.506-2.6a.507.507 0 0 0 .03-.077l2.351-7.68c.148-.305 1.05-1.684 1.163-1.81z" color="#000" font-weight="400" font-family="sans-serif" overflow="visible" fill="#1e1f26" fill-rule="evenodd"/><path d="M56.876 60.257c3.1 2.472 9.2 2.804 14.098 2.686 0 0 6.417.002 9.345.212 8.189.586 14.619 5.169 14.619 5.169" fill="none" stroke="#1e1f26" stroke-width="1.7" transform="matrix(.99156 0 0 .99382 .782 .904)"/><g color="#000" font-weight="400" font-family="sans-serif" fill-rule="evenodd"><path style="line-height:normal;font-variant-ligatures:normal;font-variant-position:normal;font-variant-caps:normal;font-variant-numeric:normal;font-variant-alternates:normal;font-variant-east-asian:normal;font-feature-settings:normal;font-variation-settings:normal;text-indent:0;text-align:start;text-decoration-line:none;text-decoration-style:solid;text-decoration-color:#000;text-transform:none;text-orientation:mixed;white-space:normal;shape-padding:0;shape-margin:0;inline-size:0;isolation:auto;mix-blend-mode:normal;solid-color:#000;solid-opacity:1" d="M102.538 68.592c.18-.836.289-.395.467-1.346.372-1.982.509-3.726.509-3.726l-10.796.186c.778.99 1.417 4.029 2.185 4.336 0 0 .91.85 3.545 1.203 2.636.354 4.09-.653 4.09-.653z" overflow="visible" fill="#4d556d"/><path style="line-height:normal;font-variant-ligatures:normal;font-variant-position:normal;font-variant-caps:normal;font-variant-numeric:normal;font-variant-alternates:normal;font-variant-east-asian:normal;font-feature-settings:normal;font-variation-settings:normal;text-indent:0;text-align:start;text-decoration-line:none;text-decoration-style:solid;text-decoration-color:#000;text-transform:none;text-orientation:mixed;white-space:normal;shape-padding:0;shape-margin:0;inline-size:0;isolation:auto;mix-blend-mode:normal;solid-color:#000;solid-opacity:1" d="M103.175 63.063c-3.72-.126-6.847-.57-10.972-.223.507.85.456.889.828 1.272 3.52-.293 6.29-.116 9.582-.05.42-.128.157-.196.562-1z" overflow="visible" fill="#1e1f26"/></g><path d="M103.2 67.401c-1.07.801-3.086 1.622-5.049 1.243-1.363-.263-2.508-.863-3.869-1.309" fill="none" stroke="#1e1f26" stroke-width="1.1" transform="matrix(.99156 0 0 .99382 .782 .904)"/><path style="line-height:normal;font-variant-ligatures:normal;font-variant-position:normal;font-variant-caps:normal;font-variant-numeric:normal;font-variant-alternates:normal;font-variant-east-asian:normal;font-feature-settings:normal;font-variation-settings:normal;text-indent:0;text-align:start;text-decoration-line:none;text-decoration-style:solid;text-decoration-color:#000;text-transform:none;text-orientation:mixed;white-space:normal;shape-padding:0;shape-margin:0;inline-size:0;isolation:auto;mix-blend-mode:normal;solid-color:#000;solid-opacity:1" d="M110.981 62.607s-1.76 1.128-2.943 1.838c-1.183.71-2.687 1.826-3.431 2.485-.43.38-.666.51-1.144.673-.56.191-.772.518-1.26.76l-.332 1.076c.905-.175 2.073-.468 2.652-.767.648-.336 1.283-.713 1.346-.769.357-.316 1.62-1.401 2.82-1.586 1.326-.204 1.788-1.942 1.788-1.942z" color="#000" font-weight="400" font-family="sans-serif" overflow="visible" fill="#1e1f26" fill-rule="evenodd"/><path style="line-height:normal;font-variant-ligatures:normal;font-variant-position:normal;font-variant-caps:normal;font-variant-numeric:normal;font-variant-alternates:normal;font-variant-east-asian:normal;font-feature-settings:normal;font-variation-settings:normal;text-indent:0;text-align:start;text-decoration-line:none;text-decoration-style:solid;text-decoration-color:#000;text-transform:none;text-orientation:mixed;white-space:normal;shape-padding:0;shape-margin:0;inline-size:0;isolation:auto;mix-blend-mode:normal;solid-color:#000;solid-opacity:1" d="M64.36 92.445s-.832 2.602-2.202 7.678c-.663 2.458-.918 5.55-2.162 8.773-2.045 4.8-3.132 7.954-3.705 9.913-.574 1.961-.643 2.777-.643 2.777a.5.5 0 0 0 .418.531l6.61 1.094a.5.5 0 0 0 .578-.559s-.063-.452.047-1.431c.11-.98.398-2.448 1.12-4.371.797-2.12 1.436-4.206 1.925-6.567v-.002c.875-3.916.86-7.098 1.084-9.467.42-4.465.533-6.521.533-6.521l-.5-.027-2.19-1.391.04-.125-.477-.152z" color="#000" font-weight="400" font-family="sans-serif" overflow="visible" fill="url(#k)" fill-rule="evenodd" transform="matrix(.99156 0 0 .99382 1.949 1.3)"/><path style="line-height:normal;font-variant-ligatures:normal;font-variant-position:normal;font-variant-caps:normal;font-variant-numeric:normal;font-variant-alternates:normal;font-variant-east-asian:normal;font-feature-settings:normal;font-variation-settings:normal;text-indent:0;text-align:start;text-decoration-line:none;text-decoration-style:solid;text-decoration-color:#000;text-transform:none;text-orientation:mixed;white-space:normal;shape-padding:0;shape-margin:0;inline-size:0;isolation:auto;mix-blend-mode:normal;solid-color:#000;solid-opacity:1" d="M76.537 100.67a.55.55 0 0 0-.525.445s-2.715 13.834-8.91 21.633a.55.55 0 0 0 .408.89l6.717.272a.55.55 0 0 0 .521-.32c1.618-3.514 1.162-5.547 1.63-8.371 1.406-8.467.72-14.067.72-14.067a.55.55 0 0 0-.56-.482z" color="#000" font-weight="400" font-family="sans-serif" overflow="visible" fill="url(#l)" fill-rule="evenodd" transform="matrix(.99156 0 0 .99382 1.949 1.3)"/><path style="line-height:normal;font-variant-ligatures:normal;font-variant-position:normal;font-variant-caps:normal;font-variant-numeric:normal;font-variant-alternates:normal;font-variant-east-asian:normal;font-feature-settings:normal;font-variation-settings:normal;text-indent:0;text-align:start;text-decoration-line:none;text-decoration-style:solid;text-decoration-color:#000;text-transform:none;text-orientation:mixed;white-space:normal;shape-padding:0;shape-margin:0;inline-size:0;isolation:auto;mix-blend-mode:normal;solid-color:#000;solid-opacity:1" d="M92.18 99.838a.5.5 0 0 0-.473.525s.44 6.879-1.463 16.555c-.525 2.672-.364 3.254-1.183 5.477a.5.5 0 0 0 .492.671l4.35-.193a.5.5 0 0 0 .47-.582c-.705-4.186-1.646-8.287-1.506-11.63.198-4.741-.162-10.362-.162-10.362a.5.5 0 0 0-.525-.461z" color="#000" font-weight="400" font-family="sans-serif" overflow="visible" fill="url(#m)" fill-rule="evenodd" transform="matrix(.99156 0 0 .99382 1.949 1.3)"/><path style="line-height:normal;font-variant-ligatures:normal;font-variant-position:normal;font-variant-caps:normal;font-variant-numeric:normal;font-variant-alternates:normal;font-variant-east-asian:normal;font-feature-settings:normal;font-variation-settings:normal;text-indent:0;text-align:start;text-decoration-line:none;text-decoration-style:solid;text-decoration-color:#000;text-transform:none;text-orientation:mixed;white-space:normal;shape-padding:0;shape-margin:0;inline-size:0;isolation:auto;mix-blend-mode:normal;solid-color:#000;solid-opacity:1" d="M54.443 89.4a7.745 7.745 0 0 0-.87.034.5.5 0 0 0-.425.668s.55 1.52.495 3.546c-.045 1.612-.604 3.46-1.385 6.538-.65 2.561-1.63 6.223-3.201 9.658-1.028 2.247-2.298 4.081-4.02 6.71a.5.5 0 0 0 .192.72l6.435 3.253a.5.5 0 0 0 .693-.27c1.082-2.86 1.024-6.078 1.723-8.245 4.684-14.524 5.016-20.078 5.016-20.078a.5.5 0 0 0-.157-.393c-1.34-1.261-2.57-2.102-4.496-2.14z" color="#000" font-weight="400" font-family="sans-serif" overflow="visible" fill="url(#n)" fill-rule="evenodd" transform="matrix(.99156 0 0 .99382 1.949 1.3)"/><path style="line-height:normal;font-variant-ligatures:normal;font-variant-position:normal;font-variant-caps:normal;font-variant-numeric:normal;font-variant-alternates:normal;font-variant-east-asian:normal;font-feature-settings:normal;font-variation-settings:normal;text-indent:0;text-align:start;text-decoration-line:none;text-decoration-style:solid;text-decoration-color:#000;text-transform:none;text-orientation:mixed;white-space:normal;shape-padding:0;shape-margin:0;inline-size:0;isolation:auto;mix-blend-mode:normal;solid-color:#000;solid-opacity:1" d="M104.6 105.158a.5.5 0 0 0-.502.432s-.513 3.75-.4 10.014c.048 2.707.31 3.942.204 6.477a.5.5 0 0 0 .537.52l1.887-.143a.5.5 0 0 0 .46-.55 57.178 57.178 0 0 0-.727-5.047c-.18-.943-.319-1.707-.399-3.416-.219-4.673-.536-4.804-.566-7.793a.5.5 0 0 0-.494-.494z" color="#000" font-weight="400" font-family="sans-serif" overflow="visible" fill="url(#o)" fill-rule="evenodd" transform="matrix(.99156 0 0 .99382 1.949 1.3)"/><path style="line-height:normal;font-variant-ligatures:normal;font-variant-position:normal;font-variant-caps:normal;font-variant-numeric:normal;font-variant-alternates:normal;font-variant-east-asian:normal;font-feature-settings:normal;font-variation-settings:normal;text-indent:0;text-align:start;text-decoration-line:none;text-decoration-style:solid;text-decoration-color:#000;text-transform:none;text-orientation:mixed;white-space:normal;shape-padding:0;shape-margin:0;inline-size:0;isolation:auto;mix-blend-mode:normal;solid-color:#000;solid-opacity:1" d="M102.304 64.026c-.036.406.09 1.447-.222 3.111a3.96 3.96 0 0 1-.36 1.058c-.372.733-.39.76-.493 1.235l.988-.085c.078-.36.539-.413.68-.711.14-.299.796-.774.894-1.303.37-2.002.18-2.885.106-3.984-.233-.324-.74-.324-1.031-.32m-10.544-.314a.497.497 0 0 0-.386.805c.127.51.448 1.873 1.09 2.853.32.49.787 1.312.993 1.708.145.298 2.179.89 2.496 1.108-.36-.79-.452-.896-.786-2.09-.519-1.116-1.253-2.21-1.602-3.212" color="#000" font-weight="400" font-family="sans-serif" overflow="visible" fill="#1e1f26" fill-rule="evenodd"/><path d="M77.408 78.941c-6.273-4.02-4.408-9.938-1.93-11.155 0 0 9.306-5.054 13.228.148 0 0 3.499 3.415.988 7.545 0 0-3.099 4.121-12.286 3.462z" fill="#fff" fill-rule="evenodd" stroke="#000"/><path d="M90.341 66.1c1.467 1.4 2.233 3.3 2.3 5.7 0 2.467-.667 4.367-2 5.7l-.9.7c-2.6 2-6.533 3.033-11.8 3.1l-.7-3 2.6-.1c4-.267 6.7-1.1 8.1-2.5 1-1 1.5-2.233 1.5-3.7 0-1.6-.533-2.933-1.6-4-.8-.8-2.233-1.2-4.3-1.2-1.733 0-3.733.4-6 1.2l-3.78 1.699-.992-2.627s1.671-1.013 3.072-1.572c1.401-.559 6.2-1.5 8-1.5 2.933 0 5.1.7 6.5 2.1" fill="#333"/><path d="M1.357 0h.2l.554.1.452.35q.452.45.452 1L2.563 2.6Q2.11 3 1.558 3l-.804-.2-.252-.2-.452-.7v-.15L0 1.45v-.1q.05-.5.502-.9l.252-.2q.251-.2.552-.25h.05m.453.85L1.558.8q-.352-.05-.553.2-.201.15-.201.45v.15l.15.45h.051l.05.05.201.1.302.05.552-.2.151-.6-.05-.3-.1-.15-.05-.05-.151-.1h-.101M18.257 0h.2l.553.1.453.35q.452.45.452 1l-.452 1.15q-.453.4-1.005.4l-.804-.2-.252-.2-.452-.7v-.15l-.05-.3v-.1q.05-.5.502-.9l.252-.2q.251-.2.552-.25h.05m.453.85L18.458.8q-.352-.05-.553.2-.201.15-.201.45v.15l.15.45h.051l.05.05.201.1.302.05.553-.2.15-.6-.05-.3-.1-.15-.05-.05-.151-.1h-.101" style="stroke-width:1.0025" transform="matrix(2.0024 0 0 2 73.743 27)" id="gikopoipoi_eyes_open" fill-rule="evenodd"/><g id="gikopoipoi_eyes_closed" style="display:none" fill="none" stroke="#000" stroke-linecap="round" stroke-linejoin="round"><path d="M107.46 30.1h6.3" stroke-width="3"/><path d="M-.05 1.55H3.1" stroke-width="1.5" style="display:inline" transform="matrix(2 0 0 2 73.719 27)"/></g></svg>