<svg height="182" width="160" xmlns:xlink="http://www.w3.org/1999/xlink" xmlns="http://www.w3.org/2000/svg"><defs><radialGradient xlink:href="#a" id="i" gradientUnits="userSpaceOnUse" gradientTransform="matrix(.8764 -.00306 .00583 1.9117 12.267 -76.85)" cx="96.975" cy="82.812" fx="96.975" fy="82.812" r="7.643"/><radialGradient xlink:href="#b" id="j" gradientUnits="userSpaceOnUse" gradientTransform="matrix(.57874 .11976 -.98969 4.78255 133.52 -415.59)" cx="62.944" cy="108.571" fx="62.944" fy="108.571" r="6.158"/><radialGradient xlink:href="#b" id="k" cx="92.219" cy="113.066" fx="92.219" fy="113.066" r="2.675" gradientTransform="matrix(1.19552 .04277 -.33164 9.26942 18.98 -931.45)" gradientUnits="userSpaceOnUse"/><radialGradient xlink:href="#b" id="l" gradientUnits="userSpaceOnUse" gradientTransform="matrix(.40955 .10365 -1.15032 4.54502 152.292 -378.137)" cx="53.295" cy="105.409" fx="53.295" fy="105.409" r="7.07"/><radialGradient xlink:href="#b" id="m" cx="105.169" cy="114.304" fx="105.169" fy="114.304" r="1.502" gradientTransform="matrix(1.62675 -.06805 .48742 11.6513 -121.629 -1206.788)" gradientUnits="userSpaceOnUse"/><linearGradient id="c"><stop offset="0" stop-color="#343f53"/><stop offset=".129" stop-color="#3a4357"/><stop offset=".424" stop-color="#3a4357"/><stop offset=".516" stop-color="#4b5369"/><stop offset="1" stop-color="#585f77"/></linearGradient><linearGradient id="a"><stop offset="0" stop-color="#647cad"/><stop offset=".658" stop-color="#657cad"/><stop offset="1" stop-color="#415379"/></linearGradient><linearGradient id="b"><stop offset="0" stop-color="#1e1f26"/><stop offset="1" stop-color="#1e1f26" stop-opacity=".53"/></linearGradient><linearGradient xlink:href="#c" id="h" gradientUnits="userSpaceOnUse" gradientTransform="translate(1.213 .174)" x1="79.488" y1="89.278" x2="109.705" y2="87.777" spreadMethod="pad"/><path d="M10.25-2.6H.75l-1.1-1" fill="none" stroke="#333" stroke-linecap="round" stroke-linejoin="round" transform="translate(.85 4.1)" id="e"/><path d="m2-1.7-2 2 1.85 1.8M0 .3V.25v2.5M0 .3l-1.85 1.8M-2-1.7 0 .25V-2.7" fill="none" stroke="#fea5c0" stroke-linecap="round" stroke-linejoin="round" transform="translate(2.5 3.2)" id="d"/><use height="6.45" width="5" xlink:href="#d" id="f"/><g id="g" transform="translate(11.45 4.1)"><use height="2" transform="translate(-.85 -4.1)" width="11.6" xlink:href="#e"/><use height="6.45" transform="translate(-11.45 -3.8)" width="5" xlink:href="#f"/></g></defs><g transform="matrix(2 0 0 2 79.741 142)"><path d="m4.1-60 1.2.55 3.85-8.6 3.9 8.6L14.3-60l3.15 3.05 1.1 1.1-.35.4.1.1c1.4 1.367 2.167 2.883 2.3 4.55l.05.6c0 1.1-.267 2.133-.8 3.1l-.25.45-1.4 1.7.1.1-.3.3-3.25.9v4.7l-3.25.7-3.15.9.65 1.6L12.35-37l3-.6c1.033 0 1.75.2 2.15.6.533.533.8 1.2.8 2 0 .733-.25 1.35-.75 1.85-.7.7-2.067 1.117-4.1 1.25l-1.25.05.35 1.5 1.5-.05-.05 2.75-1.5 1.25v12.25l-.85 4.6H10.1V-3c0 .467-.15.85-.45 1.15-.367.367-.9.55-1.6.55-.733 0-1.283-.183-1.65-.55C6.133-2.15 6-2.533 6-3v-6.55H4.45l-.9-1.3c.333-.6.5-1.35.5-2.25v-.25c-.033-1.133-.333-1.983-.9-2.55-.533-.533-1.217-.8-2.05-.8h-6.6v1.55h6.55c.467 0 .85.133 1.15.4.333.333.517.85.55 1.55l-.15.9h.05l-.05.25-.4.55c-.3.3-.683.45-1.15.45H-5.5v1.5l-1.8.05v-.05h-1.55l-1.7-1.1-1.75-3.9v-3.9l.45-.4.2-.15 1.15-1.4-1.25-1-.7.95.4-10.95 1.75-12.8.4.35.75-.7-1-1.1c-.967-1.233-1.467-2.567-1.5-4v-.25l.05-.9c.233-1.533 1.05-2.95 2.45-4.25l-.75-.75.5-3.95.65.3 3.85-8.6 3.85 8.6L.2-60h3.9m1.2 22.05C4.6-38.65 3.517-39 2.05-39l-4 .75-3.1.9.65 1.6L-1.1-37c1.133-.4 2.133-.6 3-.6 1.033 0 1.75.2 2.15.6.533.533.8 1.2.8 2 0 .733-.25 1.35-.75 1.85-.7.7-2.05 1.117-4.05 1.25l-1.3.05.35 1.5c2.633-.033 4.6-.55 5.9-1.55l.4-.35c.667-.667 1-1.617 1-2.85 0-1.2-.367-2.15-1.1-2.85" fill="#fff" fill-rule="evenodd"/><path d="m14.3-60-1.25.55-3.9-8.6-3.85 8.6L4.1-60l5.05-11 5.15 11M.2-60l-1.25.55-3.85-8.6-3.85 8.6-.65-.3-.55-.25 5.05-11L.2-60m-10.1 4.2.75.75c-1.4 1.3-2.217 2.717-2.45 4.25l-.05.9v.25c.033 1.433.533 2.767 1.5 4l1 1.1-.75.7-.4-.35-.6-.7-.75-1.05a6.777 6.777 0 0 1-1.05-3.85l.05-1c.133-1 .467-1.95 1-2.85l1.75-2.15m-2.55 35.35.7-.95 1.25 1-1.15 1.4-.2.15-.45.4c-.467.3-1 .45-1.6.45-.633 0-1.517-.367-2.65-1.1-.8-.433-1.433-.65-1.9-.65-.6 0-1.033.183-1.3.55l-.15.2-.45.75-1.35-.75a4.482 4.482 0 0 1 1.2-1.65l.6-.45 1.35-.35c.733 0 1.483.267 2.25.8 1.1.567 1.95.85 2.55.85.4 0 .833-.217 1.3-.65m6.95 10.9v-1.5h6.55c.467 0 .85-.15 1.15-.45l.4-.55.05-.25.1-.8v-.1c-.033-.7-.217-1.217-.55-1.55-.3-.267-.683-.4-1.15-.4H-5.5v-1.55h6.6c.833 0 1.517.267 2.05.8.567.567.867 1.417.9 2.55v.25c0 .9-.167 1.65-.5 2.25l-.05.1-.35.4c-.5.533-1.15.8-1.95.8h-6.7m9.95 0H6V-3c0 .467.133.85.4 1.15.367.367.917.55 1.65.55.7 0 1.233-.183 1.6-.55.3-.3.45-.683.45-1.15v-6.55h1.55v6.6c0 .833-.267 1.517-.8 2.05-.633.6-1.567.9-2.8.9-1.267 0-2.2-.3-2.8-.9-.533-.533-.8-1.217-.8-2.05v-6.6m9.6-20.85-1.5.05-.35-1.5 1.25-.05c2.033-.133 3.4-.55 4.1-1.25.5-.5.75-1.117.75-1.85 0-.8-.267-1.467-.8-2-.4-.4-1.117-.6-2.15-.6l-3 .6L9-35.75l-.65-1.6 3.15-.9 3.25-.7.75-.05c1.467 0 2.55.35 3.25 1.05.733.7 1.1 1.65 1.1 2.85 0 1.233-.333 2.183-1 2.85l-.4.35c-1.067.8-2.533 1.3-4.4 1.5m4.25-14.45-.1-.1 1.4-1.7.25-.45c.533-.967.8-2 .8-3.1l-.05-.6c-.133-1.667-.9-3.183-2.3-4.55l-.1-.1.35-.4h.05l.3-.35c1.7 1.567 2.617 3.367 2.75 5.4l.05.6c0 1.267-.3 2.45-.9 3.55-.467.833-1.1 1.633-1.9 2.4l-.6-.6m-13 6.9c.733.7 1.1 1.65 1.1 2.85 0 1.233-.333 2.183-1 2.85l-.4.35c-1.3 1-3.267 1.517-5.9 1.55l-.35-1.5 1.3-.05c2-.133 3.35-.55 4.05-1.25.5-.5.75-1.117.75-1.85 0-.8-.267-1.467-.8-2-.4-.4-1.117-.6-2.15-.6-.867 0-1.867.2-3 .6l-3.3 1.25-.65-1.6 3.1-.9 4-.75c1.467 0 2.55.35 3.25 1.05" fill="#333" fill-rule="evenodd"/><path d="m18.55-55.85-1.1-1.1 1.15 1.1h-.05" fill="red" fill-rule="evenodd"/><path d="M4.1-60H.2m12.3 45.85V-26.4m6.05-29.45-1.1-1.1" fill="none" stroke="#333" stroke-linecap="round" stroke-linejoin="round"/><use height="6.75" transform="matrix(1.0012 0 0 1 -9.063 -52.5)" width="22.2" xlink:href="#g"/></g><path d="M108.343 73.815c1.092 3.579.096 3.958 1.564 6.149l1.057 4.291s.18 4.697.21 10.386c.668 2.548 1.437 5.661 1.582 7.578 0 0 2.591 14.347 3.682 17.946 0 0-4.77 1.713-10.075 2.531-7.488.709-16.458.901-21.26.948-.421.004-1.718-.587-2.116-1.21-1.306-2.261-4.377-10.949-5.396-12.652-1.118-1.753-3.426-2.359-4.802-1.855-2.993.74-3.552 15.64-5.216 15.633-3.012-.013-10.56-1.94-10.56-1.94-7.761-2.05-10.403-4.5-10.403-4.5 2.426-7.644 3.072-11.388 3.072-11.388 1.44-10.557 4.515-16.102 4.515-16.102.937-13.973 1.27-19.167 2.022-25.718.278-1.831.46-2.74.84-4.099.38-1.358.77-6.247 2.057-6.414.375-.048 1.707.485 3.434.747 4.558.691 12.237 1.508 14.421 2.007 4.009.914 4.166 1.023 9.255 2.99 0 0 5.16 2.15 6.553 3.747l10.863-.11s1.628-2.062 3.161-3.844c.862-1.117 2.134-4.692 3.28-4.604.358.108 1.391.227 1.602 4.2.162 2.668.313 3.356-.811 4.574 0 0-1.673 1.662-2.47 4.069 0 0-1.233 2.798-.06 6.64z" transform="matrix(.99156 0 0 .99382 .746 1.128)" fill="url(#h)" fill-rule="evenodd" stroke="#1e1f26" stroke-width="1.1"/><path d="M54.77 90.026s2.868.463 5.05 2.098c1.861-.038 3.238.427 4.342.611 2.308.386 2.257 1.018 4.514 1.704 1.602-.194 3.566.101 5.328.208 2.5.152 6.008.727 6.511.825.399.045 4.163-.31 6.026-.04 3.087.447 4.248.618 5.516.833.745.012 2.573-.594 7.315-1.326 2.875-.444 7.305-.53 11.204-.924" transform="matrix(.99156 0 0 .99382 .746 1.128)" fill="none" stroke="#1e1f26" stroke-width="2" stroke-linecap="round" stroke-linejoin="round"/><path style="line-height:normal;font-variant-ligatures:normal;font-variant-position:normal;font-variant-caps:normal;font-variant-numeric:normal;font-variant-alternates:normal;font-variant-east-asian:normal;font-feature-settings:normal;font-variation-settings:normal;text-indent:0;text-align:start;text-decoration-line:none;text-decoration-style:solid;text-decoration-color:#000;text-transform:none;text-orientation:mixed;white-space:normal;shape-padding:0;shape-margin:0;inline-size:0;isolation:auto;mix-blend-mode:normal;solid-color:#000;solid-opacity:1" d="M94.714 67.375c-.247.285-.92 1.412-1.1 1.81l-2.32 7.89s-2.091 4.336 1.963 9.964c.661.918 2.58 3.813-.31 11.332 8.798-6.886 11.834-14.383 11.702-15.426-.679-5.33-4.644-6.315-2.254-13.122.095-.27-.26-1.496-.26-1.77" transform="matrix(.99156 0 0 .99382 .746 1.128)" color="#000" font-weight="400" font-family="sans-serif" overflow="visible" fill="url(#i)" fill-rule="evenodd"/><path style="line-height:normal;font-variant-ligatures:normal;font-variant-position:normal;font-variant-caps:normal;font-variant-numeric:normal;font-variant-alternates:normal;font-variant-east-asian:normal;font-feature-settings:normal;font-variation-settings:normal;text-indent:0;text-align:start;text-decoration-line:none;text-decoration-style:solid;text-decoration-color:#000;text-transform:none;text-orientation:mixed;white-space:normal;shape-padding:0;shape-margin:0;inline-size:0;isolation:auto;mix-blend-mode:normal;solid-color:#000;solid-opacity:1" d="M94.435 68.24c-.381.427-.954 1.396-1.185 1.886a.5.5 0 0 0-.026.068l-2.364 7.73.03-.077s-.579 1.18-.612 3.036c-.032 1.856.47 4.43 2.515 7.296.313.438.876 1.26 1.05 2.906.174 1.647-.067 4.117-1.509 7.743-.188.466.34.891.732.59 4.436-3.378 7.436-6.926 9.316-9.77.94-1.42 1.6-2.664 2.022-3.633.21-.484.363-.899.46-1.24.098-.341.16-.58.125-.87-.329-2.743-1.52-4.394-2.246-6.065-.727-1.672-1.088-3.37.092-6.614.1-.273.052-.402.03-.582a7.463 7.463 0 0 0-.094-.56c-.038-.19-.079-.375-.107-.523-.03-.148-.027-.435-.027-.392l-.978.138c0 .178.029.287.06.45.032.162.072.345.108.524.035.18.067.356.082.485.016.13-.026.251.025.111-1.246 3.424-.858 5.56-.072 7.368.786 1.809 1.871 3.281 2.17 5.783-.003-.033-.01.183-.091.465a9.412 9.412 0 0 1-.416 1.115c-.394.905-1.029 2.105-1.94 3.482-1.616 2.445-4.28 5.454-7.857 8.412.892-2.765 1.233-5.001 1.072-6.526-.196-1.851-.895-2.917-1.23-3.387-1.928-2.701-2.358-5.03-2.329-6.688.03-1.658.506-2.6.506-2.6a.507.507 0 0 0 .03-.077l2.351-7.68c.148-.305 1.05-1.684 1.163-1.81z" color="#000" font-weight="400" font-family="sans-serif" overflow="visible" fill="#1e1f26" fill-rule="evenodd"/><path d="M56.912 60.032c3.1 2.472 9.2 2.804 14.099 2.686 0 0 6.416.002 9.345.212 8.189.586 14.619 5.169 14.619 5.169" transform="matrix(.99156 0 0 .99382 .746 1.128)" fill="none" stroke="#1e1f26" stroke-width="1.7"/><g color="#000" font-weight="400" font-family="sans-serif" fill-rule="evenodd"><path style="line-height:normal;font-variant-ligatures:normal;font-variant-position:normal;font-variant-caps:normal;font-variant-numeric:normal;font-variant-alternates:normal;font-variant-east-asian:normal;font-feature-settings:normal;font-variation-settings:normal;text-indent:0;text-align:start;text-decoration-line:none;text-decoration-style:solid;text-decoration-color:#000;text-transform:none;text-orientation:mixed;white-space:normal;shape-padding:0;shape-margin:0;inline-size:0;isolation:auto;mix-blend-mode:normal;solid-color:#000;solid-opacity:1" d="M102.538 68.592c.18-.836.289-.395.467-1.346.372-1.982.509-3.726.509-3.726l-10.796.186c.778.99 1.417 4.029 2.185 4.336 0 0 .91.85 3.545 1.203 2.636.354 4.09-.653 4.09-.653z" overflow="visible" fill="#4d556d"/><path style="line-height:normal;font-variant-ligatures:normal;font-variant-position:normal;font-variant-caps:normal;font-variant-numeric:normal;font-variant-alternates:normal;font-variant-east-asian:normal;font-feature-settings:normal;font-variation-settings:normal;text-indent:0;text-align:start;text-decoration-line:none;text-decoration-style:solid;text-decoration-color:#000;text-transform:none;text-orientation:mixed;white-space:normal;shape-padding:0;shape-margin:0;inline-size:0;isolation:auto;mix-blend-mode:normal;solid-color:#000;solid-opacity:1" d="M103.175 63.063c-3.72-.126-6.847-.57-10.972-.223.507.85.456.889.828 1.272 3.52-.293 6.29-.116 9.582-.05.42-.128.157-.196.562-1z" overflow="visible" fill="#1e1f26"/></g><path d="M103.236 67.176c-1.07.801-3.085 1.622-5.048 1.243-1.363-.263-2.508-.863-3.87-1.309" transform="matrix(.99156 0 0 .99382 .746 1.128)" fill="none" stroke="#1e1f26" stroke-width="1.1"/><path style="line-height:normal;font-variant-ligatures:normal;font-variant-position:normal;font-variant-caps:normal;font-variant-numeric:normal;font-variant-alternates:normal;font-variant-east-asian:normal;font-feature-settings:normal;font-variation-settings:normal;text-indent:0;text-align:start;text-decoration-line:none;text-decoration-style:solid;text-decoration-color:#000;text-transform:none;text-orientation:mixed;white-space:normal;shape-padding:0;shape-margin:0;inline-size:0;isolation:auto;mix-blend-mode:normal;solid-color:#000;solid-opacity:1" d="M110.981 62.607s-1.76 1.128-2.943 1.838c-1.183.71-2.687 1.826-3.431 2.485-.43.38-.666.51-1.144.673-.56.191-.772.518-1.26.76l-.332 1.076c.905-.175 2.073-.468 2.652-.767.648-.336 1.283-.713 1.346-.769.357-.316 1.62-1.401 2.82-1.586 1.326-.204 1.788-1.942 1.788-1.942z" color="#000" font-weight="400" font-family="sans-serif" overflow="visible" fill="#1e1f26" fill-rule="evenodd"/><path style="line-height:normal;font-variant-ligatures:normal;font-variant-position:normal;font-variant-caps:normal;font-variant-numeric:normal;font-variant-alternates:normal;font-variant-east-asian:normal;font-feature-settings:normal;font-variation-settings:normal;text-indent:0;text-align:start;text-decoration-line:none;text-decoration-style:solid;text-decoration-color:#000;text-transform:none;text-orientation:mixed;white-space:normal;shape-padding:0;shape-margin:0;inline-size:0;isolation:auto;mix-blend-mode:normal;solid-color:#000;solid-opacity:1" d="M64.36 92.445s-.832 2.602-2.202 7.678c-.663 2.458-.918 5.55-2.162 8.773-2.045 4.8-3.132 7.954-3.705 9.913-.574 1.961-.643 2.777-.643 2.777a.5.5 0 0 0 .418.531l6.61 1.094a.5.5 0 0 0 .578-.559s-.063-.452.047-1.431c.11-.98.398-2.448 1.12-4.371.797-2.12 1.436-4.206 1.925-6.567v-.002c.875-3.916.86-7.098 1.084-9.467.42-4.465.533-6.521.533-6.521l-.5-.027-2.19-1.391.04-.125-.477-.152z" color="#000" font-weight="400" font-family="sans-serif" overflow="visible" fill="url(#j)" fill-rule="evenodd" transform="matrix(.99156 0 0 .99382 1.949 1.3)"/><path style="line-height:normal;font-variant-ligatures:normal;font-variant-position:normal;font-variant-caps:normal;font-variant-numeric:normal;font-variant-alternates:normal;font-variant-east-asian:normal;font-feature-settings:normal;font-variation-settings:normal;text-indent:0;text-align:start;text-decoration-line:none;text-decoration-style:solid;text-decoration-color:#000;text-transform:none;text-orientation:mixed;white-space:normal;shape-padding:0;shape-margin:0;inline-size:0;isolation:auto;mix-blend-mode:normal;solid-color:#000;solid-opacity:1" d="M92.18 99.838a.5.5 0 0 0-.473.525s.44 6.879-1.463 16.555c-.525 2.672-.364 3.254-1.183 5.477a.5.5 0 0 0 .492.671l4.35-.193a.5.5 0 0 0 .47-.582c-.705-4.186-1.646-8.287-1.506-11.63.198-4.741-.162-10.362-.162-10.362a.5.5 0 0 0-.525-.461z" color="#000" font-weight="400" font-family="sans-serif" overflow="visible" fill="url(#k)" fill-rule="evenodd" transform="matrix(.99156 0 0 .99382 1.949 1.3)"/><path style="line-height:normal;font-variant-ligatures:normal;font-variant-position:normal;font-variant-caps:normal;font-variant-numeric:normal;font-variant-alternates:normal;font-variant-east-asian:normal;font-feature-settings:normal;font-variation-settings:normal;text-indent:0;text-align:start;text-decoration-line:none;text-decoration-style:solid;text-decoration-color:#000;text-transform:none;text-orientation:mixed;white-space:normal;shape-padding:0;shape-margin:0;inline-size:0;isolation:auto;mix-blend-mode:normal;solid-color:#000;solid-opacity:1" d="M54.443 89.4a7.745 7.745 0 0 0-.87.034.5.5 0 0 0-.425.668s.55 1.52.495 3.546c-.045 1.612-.604 3.46-1.385 6.538-.65 2.561-1.63 6.223-3.201 9.658-1.028 2.247-2.298 4.081-4.02 6.71a.5.5 0 0 0 .192.72l6.435 3.253a.5.5 0 0 0 .693-.27c1.082-2.86 1.024-6.078 1.723-8.245 4.684-14.524 5.016-20.078 5.016-20.078a.5.5 0 0 0-.157-.393c-1.34-1.261-2.57-2.102-4.496-2.14z" color="#000" font-weight="400" font-family="sans-serif" overflow="visible" fill="url(#l)" fill-rule="evenodd" transform="matrix(.99156 0 0 .99382 1.949 1.3)"/><path style="line-height:normal;font-variant-ligatures:normal;font-variant-position:normal;font-variant-caps:normal;font-variant-numeric:normal;font-variant-alternates:normal;font-variant-east-asian:normal;font-feature-settings:normal;font-variation-settings:normal;text-indent:0;text-align:start;text-decoration-line:none;text-decoration-style:solid;text-decoration-color:#000;text-transform:none;text-orientation:mixed;white-space:normal;shape-padding:0;shape-margin:0;inline-size:0;isolation:auto;mix-blend-mode:normal;solid-color:#000;solid-opacity:1" d="M104.6 105.158a.5.5 0 0 0-.502.432s-.513 3.75-.4 10.014c.048 2.707.31 3.942.204 6.477a.5.5 0 0 0 .537.52l1.887-.143a.5.5 0 0 0 .46-.55 57.178 57.178 0 0 0-.727-5.047c-.18-.943-.319-1.707-.399-3.416-.219-4.673-.536-4.804-.566-7.793a.5.5 0 0 0-.494-.494z" color="#000" font-weight="400" font-family="sans-serif" overflow="visible" fill="url(#m)" fill-rule="evenodd" transform="matrix(.99156 0 0 .99382 1.949 1.3)"/><path style="line-height:normal;font-variant-ligatures:normal;font-variant-position:normal;font-variant-caps:normal;font-variant-numeric:normal;font-variant-alternates:normal;font-variant-east-asian:normal;font-feature-settings:normal;font-variation-settings:normal;text-indent:0;text-align:start;text-decoration-line:none;text-decoration-style:solid;text-decoration-color:#000;text-transform:none;text-orientation:mixed;white-space:normal;shape-padding:0;shape-margin:0;inline-size:0;isolation:auto;mix-blend-mode:normal;solid-color:#000;solid-opacity:1" d="M102.304 64.026c-.036.406.09 1.447-.222 3.111a3.96 3.96 0 0 1-.36 1.058c-.372.733-.39.76-.493 1.235l.988-.085c.078-.36.539-.413.68-.711.14-.299.796-.774.894-1.303.37-2.002.18-2.885.106-3.984-.233-.324-.74-.324-1.031-.32m-10.544-.314a.497.497 0 0 0-.386.805c.127.51.448 1.873 1.09 2.853.32.49.787 1.312.993 1.708.145.298 2.179.89 2.496 1.108-.36-.79-.452-.896-.786-2.09-.519-1.116-1.253-2.21-1.602-3.212" color="#000" font-weight="400" font-family="sans-serif" overflow="visible" fill="#1e1f26" fill-rule="evenodd"/><path d="M77.408 78.941c-6.273-4.02-4.408-9.938-1.93-11.155 0 0 9.306-5.054 13.228.148 0 0 3.499 3.415.988 7.545 0 0-3.099 4.121-12.286 3.462z" fill="#fff" fill-rule="evenodd" stroke="#000"/><path d="M90.341 66.1c1.467 1.4 2.233 3.3 2.3 5.7 0 2.467-.667 4.367-2 5.7l-.9.7c-2.6 2-6.533 3.033-11.8 3.1l-.7-3 2.6-.1c4-.267 6.7-1.1 8.1-2.5 1-1 1.5-2.233 1.5-3.7 0-1.6-.533-2.933-1.6-4-.8-.8-2.233-1.2-4.3-1.2-1.733 0-3.733.4-6 1.2l-3.78 1.699-.992-2.627s1.671-1.013 3.072-1.572c1.401-.559 6.2-1.5 8-1.5 2.933 0 5.1.7 6.5 2.1" fill="#333"/><path d="m71.521 121.15 12.185.056 3.085-3.988-.75-5.858-13.22-1.039z" fill="#fff" fill-rule="evenodd"/><path d="M69.024 122.9c.387-1.355.57-2.001.79-3.052l12.025.053c.933.004 1.7-.3 2.3-.9.733-.734 1.1-1.8 1.1-3.2 0-1.467-.367-2.567-1.1-3.3-.6-.534-1.367-.8-2.3-.8H71.673c.286-1.24 1.016-2.76 1.379-2.988l8.887-.112c1.666-.021 3.033.533 4.1 1.6 1.2 1.2 1.8 3.066 1.8 5.6 0 2.466-.6 4.3-1.8 5.5-1 1.066-2.3 1.611-3.9 1.6" fill="#333"/><path d="M1.357 0h.2l.554.1.452.35q.452.45.452 1L2.563 2.6Q2.11 3 1.558 3l-.804-.2-.252-.2-.452-.7v-.15L0 1.45v-.1q.05-.5.502-.9l.252-.2q.251-.2.552-.25h.05m.453.85L1.558.8q-.352-.05-.553.2-.201.15-.201.45v.15l.15.45h.051l.05.05.201.1.302.05.552-.2.151-.6-.05-.3-.1-.15-.05-.05-.151-.1h-.101M18.257 0h.2l.553.1.453.35q.452.45.452 1l-.452 1.15q-.453.4-1.005.4l-.804-.2-.252-.2-.452-.7v-.15l-.05-.3v-.1q.05-.5.502-.9l.252-.2q.251-.2.552-.25h.05m.453.85L18.458.8q-.352-.05-.553.2-.201.15-.201.45v.15l.15.45h.051l.05.05.201.1.302.05.553-.2.15-.6-.05-.3-.1-.15-.05-.05-.151-.1h-.101" style="stroke-width:1.0025" transform="matrix(2.0024 0 0 2 73.743 27)" id="gikopoipoi_eyes_open" fill-rule="evenodd"/><g id="gikopoipoi_eyes_closed" style="display:none" fill="none" stroke="#000" stroke-linecap="round" stroke-linejoin="round"><path d="M107.46 30.1h6.3" stroke-width="3"/><path d="M-.05 1.55H3.1" stroke-width="1.5" style="display:inline" transform="matrix(2 0 0 2 73.719 27)"/></g></svg>