<?xml version="1.0" encoding="UTF-8" standalone="no"?>
<!DOCTYPE svg PUBLIC "-//W3C//DTD SVG 1.1//EN" "http://www.w3.org/Graphics/SVG/1.1/DTD/svg11.dtd">
<svg width="160px" height="182px" version="1.1" xmlns="http://www.w3.org/2000/svg" xmlns:xlink="http://www.w3.org/1999/xlink" xml:space="preserve" xmlns:serif="http://www.serif.com/" style="fill-rule:evenodd;clip-rule:evenodd;stroke-linecap:round;stroke-linejoin:round;stroke-miterlimit:1.5;">
    <g transform="matrix(-1.43518,0,0,-1.43518,2332.89,813.209)">
        <g transform="matrix(0.698409,0,0,0.698409,494.442,156.333)">
            <circle cx="1505.03" cy="474.652" r="16.705" style="fill:rgb(176,93,2);stroke:black;stroke-width:1px;"/>
        </g>
        <path d="M1536.52,481.049C1534.87,485.296 1545.02,495.015 1556.46,492.015" style="fill:none;stroke:rgb(148,77,0);stroke-width:0.7px;"/>
        <path d="M1549.1,476.555C1554.96,486.653 1550.71,504.559 1540.24,498.214C1536.08,496.999 1532.07,487.834 1534.34,486.215C1535.69,494.918 1546.81,501.897 1548.82,489.461C1549.7,484.064 1535.01,479.896 1542.13,476.509C1544.51,475.586 1546.82,475.769 1549.1,476.555Z" style="fill:none;stroke:rgb(148,77,0);stroke-width:0.7px;"/>
        <path d="M1552.73,496.807C1553.06,491.785 1553.3,490.92 1556.46,485.641" style="fill:none;stroke:rgb(148,77,0);stroke-width:0.7px;"/>
    </g>
    <g transform="matrix(-1.43518,0,0,1.43518,2327.89,-605.332)">
        <g opacity="0.3">
            <g transform="matrix(0.698409,0,0,0.698409,494.442,156.333)">
                <circle cx="1505.03" cy="474.652" r="16.705" style="fill:rgb(176,93,2);stroke:black;stroke-width:1px;"/>
            </g>
            <path d="M1536.52,481.049C1534.87,485.296 1545.02,495.015 1556.46,492.015" style="fill:none;stroke:rgb(148,77,0);stroke-width:0.7px;"/>
            <path d="M1549.1,476.555C1554.96,486.653 1550.71,504.559 1540.24,498.214C1536.08,496.999 1532.07,487.834 1534.34,486.215C1535.69,494.918 1546.81,501.897 1548.82,489.461C1549.7,484.064 1535.01,479.896 1542.13,476.509C1544.51,475.586 1546.82,475.769 1549.1,476.555Z" style="fill:none;stroke:rgb(148,77,0);stroke-width:0.7px;"/>
            <path d="M1552.73,496.807C1553.06,491.785 1553.3,490.92 1556.46,485.641" style="fill:none;stroke:rgb(148,77,0);stroke-width:0.7px;"/>
        </g>
    </g>
    <g id="a" transform="matrix(2,0,0,2,36.341,0)">
        <g transform="matrix(1,0,0,1,21.55,71)">
            <path d="M0.35,-60L4.25,-60L5.45,-59.45L9.3,-68.05L13.2,-59.45L14.45,-60L17.6,-56.95L18.7,-55.85L17.6,-56.95L18.75,-55.85L18.7,-55.85L18.35,-55.45L18.45,-55.35C19.85,-53.983 20.617,-52.467 20.75,-50.8L20.8,-50.2C20.8,-49.1 20.533,-48.067 20,-47.1L19.75,-46.65L18.35,-44.95L18.45,-44.85L18.15,-44.55L14.9,-43.65L14.15,-27.65L12.65,-26.4L12.65,-19.65L8.1,-19.65L8.1,-18.1L14.7,-18.1C15.167,-18.1 15.55,-17.967 15.85,-17.7C16.217,-17.333 16.4,-16.783 16.4,-16.05C16.4,-15.35 16.217,-14.817 15.85,-14.45C15.55,-14.15 15.167,-14 14.7,-14L8.1,-14L8.1,-13.05L0.5,-13.05L-3.05,-9.55L-3.05,-3C-3.05,-2.533 -3.2,-2.15 -3.5,-1.85C-3.867,-1.483 -4.4,-1.3 -5.1,-1.3C-5.833,-1.3 -6.383,-1.483 -6.75,-1.85C-7.017,-2.15 -7.15,-2.533 -7.15,-3L-7.15,-9.55L-8.7,-9.55L-10.4,-10.65L-12.15,-14.55L-12.15,-18.45L-11.7,-18.85C-11.2,-19.25 -10.75,-19.767 -10.35,-20.4L-11.6,-21.4L-12.3,-20.45L-11.9,-31.4L-10.15,-44.2L-9.75,-43.85L-9,-44.55L-10,-45.65C-11,-46.917 -11.5,-48.3 -11.5,-49.8L-11.45,-50.8C-11.217,-52.333 -10.4,-53.75 -9,-55.05L-9.75,-55.8L-9.25,-59.75L-8.6,-59.45L-4.75,-68.05L-0.9,-59.45L0.35,-60M13.25,-43.6L14,-45.15L14,-46.5L12.5,-46.5L12.5,-45.05L13.05,-45.05L12.5,-43.6L13.25,-43.6M10.3,-43.6L11.1,-45.15L11.1,-46.5L9.55,-46.5L9.55,-45.05L10.1,-45.05L9.55,-43.6L10.3,-43.6" style="fill:white;"/>
        </g>
        <g transform="matrix(1,0,0,1,21.55,71)">
            <path d="M0.35,-60L-0.9,-59.45L-4.75,-68.05L-8.6,-59.45L-9.25,-59.75L-9.8,-60L-4.75,-71L0.35,-60M-9.75,-55.8L-9,-55.05C-10.4,-53.75 -11.217,-52.333 -11.45,-50.8L-11.5,-49.8C-11.5,-48.3 -11,-46.917 -10,-45.65L-9,-44.55L-9.75,-43.85L-10.15,-44.2L-10.75,-44.9C-11.95,-46.367 -12.55,-48 -12.55,-49.8L-12.5,-50.8C-12.267,-52.667 -11.35,-54.333 -9.75,-55.8M-12.3,-20.45L-11.6,-21.4L-10.35,-20.4C-10.75,-19.767 -11.2,-19.25 -11.7,-18.85L-12.15,-18.45C-12.617,-18.15 -13.15,-18 -13.75,-18C-14.383,-18 -15.267,-18.367 -16.4,-19.1L-18.3,-19.75C-18.9,-19.75 -19.333,-19.567 -19.6,-19.2L-20.2,-18.25L-21.55,-19L-20.35,-20.65C-19.817,-21.183 -19.167,-21.45 -18.4,-21.45C-17.667,-21.45 -16.917,-21.183 -16.15,-20.65C-15.05,-20.083 -14.2,-19.8 -13.6,-19.8C-13.167,-19.8 -12.733,-20.017 -12.3,-20.45M-8.7,-9.55L-7.15,-9.55L-7.15,-3C-7.15,-2.533 -7.017,-2.15 -6.75,-1.85C-6.383,-1.483 -5.833,-1.3 -5.1,-1.3C-4.4,-1.3 -3.867,-1.483 -3.5,-1.85C-3.2,-2.15 -3.05,-2.533 -3.05,-3L-3.05,-9.55L-1.55,-9.55L-1.55,-2.95C-1.55,-2.117 -1.817,-1.433 -2.35,-0.9C-2.95,-0.3 -3.867,-0 -5.1,-0C-6.367,-0 -7.3,-0.3 -7.9,-0.9C-8.433,-1.433 -8.7,-2.117 -8.7,-2.95L-8.7,-9.55M8.1,-13.05L8.1,-14L14.7,-14C15.167,-14 15.55,-14.15 15.85,-14.45C16.217,-14.817 16.4,-15.35 16.4,-16.05C16.4,-16.783 16.217,-17.333 15.85,-17.7C15.55,-17.967 15.167,-18.1 14.7,-18.1L8.1,-18.1L8.1,-19.65L14.75,-19.65C15.583,-19.65 16.267,-19.383 16.8,-18.85C17.4,-18.25 17.7,-17.317 17.7,-16.05C17.7,-14.817 17.4,-13.9 16.8,-13.3L16.5,-13.05C16,-12.683 15.417,-12.5 14.75,-12.5L8.1,-12.5L8.1,-13.05M18.45,-44.85L18.35,-44.95L19.75,-46.65L20,-47.1C20.533,-48.067 20.8,-49.1 20.8,-50.2L20.75,-50.8C20.617,-52.467 19.85,-53.983 18.45,-55.35L18.35,-55.45L18.7,-55.85L18.75,-55.85L19.05,-56.2C20.75,-54.633 21.667,-52.833 21.8,-50.8L21.85,-50.2C21.85,-48.933 21.55,-47.75 20.95,-46.65C20.483,-45.817 19.85,-45.017 19.05,-44.25L18.45,-44.85M14.45,-60L13.2,-59.45L9.3,-68.05L5.45,-59.45L4.25,-60L9.3,-71L14.45,-60M10.3,-43.6L9.55,-43.6L10.1,-45.05L9.55,-45.05L9.55,-46.5L11.1,-46.5L11.1,-45.15L10.3,-43.6M13.25,-43.6L12.5,-43.6L13.05,-45.05L12.5,-45.05L12.5,-46.5L14,-46.5L14,-45.15L13.25,-43.6"/>
        </g>
        <g transform="matrix(1,0,0,1,21.55,71)">
            <path d="M4.25,-60L0.35,-60M12.65,-19.65L12.65,-26.4M18.7,-55.85L17.6,-56.95" style="fill:none;fill-rule:nonzero;stroke:black;stroke-width:1px;stroke-miterlimit:4;"/>
        </g>
    </g>
    <g transform="matrix(-0.998142,-0.060926,-0.060926,0.998142,167.899,5.11946)">
        <path d="M55.216,60.31L58.556,54.373L62.435,55.225C75.428,68.291 97.888,67.259 104.441,55.646C104.441,55.646 106.505,59.416 106.908,62.51C108.202,72.454 109.053,92.023 108.343,95.348L54.277,94.615C53.588,81.867 51.993,73.058 55.216,60.31ZM61.46,61.325C57.759,60.778 56.477,62.658 54.688,68.137C52.633,74.432 55.585,84.897 60.471,84.897C65.358,84.897 68.487,80.879 69.006,74.278C69.445,68.688 67.024,62.146 61.46,61.325Z" style="fill:rgb(199,199,199);stroke:black;stroke-width:2px;stroke-linecap:butt;"/>
    </g>
    <g transform="matrix(1,0,0,1,-17.9012,2.5686)">
        <path d="M91.702,66.897L95.068,66.994L96.16,69.187L95.769,75.424L92.779,77.431L95.55,79.415L95.247,86.681L93.095,88.524L90.111,88.328L88.867,86.152L89.515,79.212L92.779,77.431L89.943,74.922L90.103,68.735L91.702,66.897Z" style="fill:none;stroke:rgb(255,219,105);stroke-width:2.5px;stroke-linecap:butt;"/>
    </g>
    <g transform="matrix(0.774006,0.633178,-0.633178,0.774006,92.3021,-32.6714)">
        <path d="M70.252,68.803C74.776,66.635 79.3,65.489 83.824,65.277C87.664,65.68 89.155,66.683 90.142,68.417C91.304,70.458 91.446,73.471 89.168,77.117C85.773,78.675 81.98,79.436 77.747,79.317" style="fill:white;stroke:black;stroke-width:3px;stroke-linecap:butt;"/>
    </g>
    <g id="gikopoipoi_eyes_closed" style="display:none" transform="matrix(1,0,0,1,0.338,1.6)">
        <path d="M107.46,30.1L113.76,30.1" style="fill:none;fill-rule:nonzero;stroke:black;stroke-width:3px;stroke-miterlimit:4;"/>
    </g>
    <g id="gikopoipoi_eyes_open" transform="matrix(2.0124,0,0,2,107.922,28.6)">
        <path d="M1.35,0L1.55,0L2.1,0.1L2.55,0.45C2.85,0.75 3,1.083 3,1.45L2.55,2.6C2.25,2.867 1.917,3 1.55,3L0.75,2.8L0.5,2.6L0.05,1.9L0.05,1.75L0,1.45L0,1.35C0.033,1.017 0.2,0.717 0.5,0.45L0.75,0.25C0.917,0.117 1.1,0.033 1.3,0L1.35,0M1.8,0.85L1.55,0.8C1.317,0.767 1.133,0.833 1,1C0.867,1.1 0.8,1.25 0.8,1.45L0.8,1.6L0.95,2.05L1,2.05L1.05,2.1L1.25,2.2L1.55,2.25L2.1,2.05L2.25,1.45L2.2,1.15L2.1,1L2.05,0.95L1.9,0.85L1.8,0.85"/>
    </g>
</svg>
