<svg height="182" width="160" xmlns:xlink="http://www.w3.org/1999/xlink" xmlns="http://www.w3.org/2000/svg"><defs><path d="M1.35 0h.2l.55.1.45.35q.45.45.45 1L2.55 2.6q-.45.4-1 .4l-.8-.2-.25-.2-.45-.7v-.15L0 1.45v-.1q.05-.5.5-.9l.25-.2Q1 .05 1.3 0h.05m.45.85L1.55.8Q1.2.75 1 1q-.2.15-.2.45v.15l.15.45H1l.05.05.2.1.3.05.55-.2.15-.6-.05-.3L2.1 1 2.05.95 1.9.85h-.1" fill-rule="evenodd" id="a"/></defs><circle cx="1505.03" cy="474.652" r="16.705" style="fill:#b05d02;stroke:#000;stroke-width:1px" transform="matrix(-1.00234 0 0 1.00234 1608.187 -405.963)"/><path d="M1536.52 481.049c-1.65 4.247 8.5 13.966 19.94 10.966" style="fill:none;stroke:#000;stroke-width:.7px" transform="matrix(-1.43518 0 0 1.43518 2317.8 -630.329)"/><path d="M1549.1 476.555c5.86 10.098 1.61 28.004-8.86 21.659-4.16-1.215-8.17-10.38-5.9-11.999 1.35 8.703 12.47 15.682 14.48 3.246.88-5.397-13.81-9.565-6.69-12.952 2.38-.923 4.69-.74 6.97.046Z" style="fill:none;stroke:#000;stroke-width:.7px" transform="matrix(-1.43518 0 0 1.43518 2317.8 -630.329)"/><path d="M1552.73 496.807c.33-5.022.57-5.887 3.73-11.166" style="fill:none;stroke:#000;stroke-width:.7px" transform="matrix(-1.43518 0 0 1.43518 2317.8 -630.329)"/><path d="M.25-60h3.9l1.2.55 3.85-8.6 3.85 8.6L14.3-60l3.15 3.05 1.15 1.1-.4.4.1.1c1.4 1.367 2.183 2.883 2.35 4.55v.6c0 1.1-.267 2.133-.8 3.1l-.25.45-1.4 1.7.1.1-.3.3-3.25.9v4.7l.6 1.35c1.033 0 1.75.2 2.15.6.533.533.8 1.2.8 2 0 .733-.25 1.35-.75 1.85-.7.7-2.05 1.117-4.05 1.25l.55 1.5-.05 2.75-1.5 1.25v12.25l-.85 4.6h-1.5V-3c0 .467-.15.85-.45 1.15-.367.367-.9.55-1.6.55-.733 0-1.283-.183-1.65-.55-.267-.3-.4-.683-.4-1.15v-6.55H4.5l-2.35-3.5H.4l-3.55 3.5V-3c0 .467-.15.85-.45 1.15-.367.367-.9.55-1.6.55-.733 0-1.283-.183-1.65-.55-.267-.3-.4-.683-.4-1.15v-6.55H-8.8l-1.7-1.1-1.75-3.9v-3.9l.45-.4c.5-.4.95-.917 1.35-1.55l-1.25-1c-.267.433-.5.75-.7.95l.4-10.95 1.75-12.8.4.35.75-.7-1-1.1c-1-1.267-1.5-2.65-1.5-4.15l.1-1c.233-1.533 1.033-2.95 2.4-4.25l-.75-.75.5-3.95.65.3 3.85-8.6 3.85 8.6L.25-60m17.2 3.05 1.15 1.1-1.15-1.1M13.1-43.6l.75-1.55v-1.35h-1.5v1.45h.55l-.55 1.45h.75m-2.9 0 .75-1.55v-1.35h-1.5v1.45H10l-.55 1.45h.75" style="fill:#fff" transform="matrix(2 0 0 2 79.641 142)"/><path d="m80.141 22-2.5 1.1-7.7-17.2-7.7 17.2-1.3-.6-1.1-.5 10.1-22 10.2 22m-20.2 8.4 1.5 1.5c-2.734 2.6-4.334 5.434-4.8 8.5l-.2 2c0 3 1 5.766 3 8.3l2 2.2-1.5 1.4-.8-.7-1.2-1.4c-2.4-2.934-3.6-6.2-3.6-9.8l.2-2c.4-3.734 2.2-7.066 5.4-10m-5.1 70.7c.4-.4.866-1.034 1.4-1.9l2.5 2c-.8 1.266-1.7 2.3-2.7 3.1l-.9.8c-.934.6-2 .9-3.2.9-1.266 0-3.034-.734-5.3-2.2-1.534-.866-2.8-1.3-3.8-1.3-1.134 0-2 .366-2.6 1.1l-1.2 1.9-2.7-1.5 2.4-3.3c1.134-1.066 2.434-1.6 3.9-1.6 1.466 0 2.966.534 4.5 1.6 2.2 1.134 3.9 1.7 5.1 1.7.866 0 1.734-.434 2.6-1.3m7.2 21.8h3.1V136c0 .934.266 1.7.8 2.3.734.734 1.834 1.1 3.3 1.1 1.4 0 2.466-.366 3.2-1.1.6-.6.9-1.366.9-2.3v-13.1h3v13.2c0 1.666-.534 3.034-1.6 4.1-1.2 1.2-3.034 1.8-5.5 1.8-2.534 0-4.4-.6-5.6-1.8-1.066-1.066-1.6-2.434-1.6-4.1v-13.2m26.6 0h3.1V136c0 .934.266 1.7.8 2.3.734.734 1.834 1.1 3.3 1.1 1.4 0 2.466-.366 3.2-1.1.6-.6.9-1.366.9-2.3v-13.1h3v13.2c0 1.666-.534 3.034-1.6 4.1-1.2 1.2-3.034 1.8-5.5 1.8-2.534 0-4.4-.6-5.6-1.8-1.066-1.066-1.6-2.434-1.6-4.1v-13.2m27.6-70.6-.2-.2 2.8-3.4.5-.9c1.066-1.934 1.6-4 1.6-6.2v-1.2c-.334-3.334-1.9-6.366-4.7-9.1l-.2-.2.8-.8.6-.7c3.4 3.134 5.266 6.734 5.6 10.8v1.2c0 2.534-.6 4.9-1.8 7.1-.934 1.666-2.2 3.266-3.8 4.8l-1.2-1.2m-8-30.3-2.5 1.1-7.7-17.2-7.7 17.2-2.4-1.1 10.1-22 10.2 22m-8.2 32.8h-1.5l1.1-2.9h-1.1V49h3v2.7l-1.5 3.1m5.8 0h-1.5l1.1-2.9h-1.1V49h3v2.7l-1.5 3.1"/><path d="M4.15-60H.25M12.5-14.15V-26.4m6.1-29.45-1.15-1.1" style="fill:none;fill-rule:nonzero;stroke:#000;stroke-width:1px;stroke-miterlimit:4" transform="matrix(2 0 0 2 79.641 142)"/><path d="m55.216 60.31 3.34-5.937 3.879.852c12.993 13.066 35.453 12.034 42.006.421 0 0 2.064 3.77 2.467 6.864 1.294 9.944 2.145 29.513 1.435 32.838l-54.066-.733c-.689-12.748-2.284-21.557.939-34.305Zm6.244 1.015c-3.701-.547-4.983 1.333-6.772 6.812-2.055 6.295.897 16.76 5.783 16.76 4.887 0 8.016-4.018 8.535-10.619.439-5.59-1.982-12.132-7.546-12.953Z" style="fill:#c7c7c7;stroke:#000;stroke-width:2px;stroke-linecap:butt" transform="scale(-1 1) rotate(-3.493 0 2755.786)"/><path d="m91.702 66.897 3.366.097 1.092 2.193-.391 6.237-2.99 2.007 2.771 1.984-.303 7.266-2.152 1.843-2.984-.196-1.244-2.176.648-6.94 3.264-1.781-2.836-2.509.16-6.187 1.599-1.838Z" style="fill:none;stroke:#ffdb69;stroke-width:2.5px;stroke-linecap:butt" transform="translate(-17.901 2.569)"/><path d="M70.252 68.803c4.524-2.168 9.048-3.314 13.572-3.526 3.84.403 5.331 1.406 6.318 3.14 1.162 2.041 1.304 5.054-.974 8.7-3.395 1.558-7.188 2.319-11.421 2.2" style="fill:#fff;stroke:#000;stroke-width:3px;stroke-linecap:butt" transform="translate(27.885 -.172)"/><path d="M107.46 30.1h6.3" stroke-width="3" transform="translate(.338 1.6)" id="gikopoipoi_eyes_closed" style="display:none" fill="none" stroke="#000" stroke-linecap="round" stroke-linejoin="round"/><use height="3" transform="matrix(2.0124 0 0 2 107.922 28.6)" width="4.65" xlink:href="#a" id="gikopoipoi_eyes_open" style="display:inline"/></svg>