<svg width="160" height="182" xmlns="http://www.w3.org/2000/svg" xml:space="preserve" style="fill-rule:evenodd;clip-rule:evenodd;stroke-linecap:round;stroke-linejoin:round"><path d="M10.75-56.05v-.05H4.5v3.9l-.05 1.1L4-48.65l-1.05 2H2v3.3h1.35v-1.95h7.2v1.95h1.4v-3.3h-1.2v-9.4M.4-60h3.9l1.2.55 3.85-8.6 3.9 8.6L14.5-60l3.15 3.05 1.15 1.1h-.05l-.35.4.1.1c1.4 1.367 2.167 2.883 2.3 4.55l.05.6c0 1.1-.267 2.133-.8 3.1l-.25.45-1.4 1.7.1.1-.3.3-3.25.9v4.7l-3.25.7-3.15.9.65 1.6L12.55-37l3-.6c1.033 0 1.75.2 2.15.6.533.533.8 1.2.8 2 0 .733-.25 1.35-.75 1.85-.7.7-2.067 1.117-4.1 1.25l-1.25.05.35 1.5 1.5-.05-.05 2.75-1.5 1.25v12.25l-.85 4.6H10.3V-3c0 .467-.15.85-.45 1.15-.367.367-.9.55-1.6.55-.733 0-1.283-.183-1.65-.55-.267-.3-.4-.683-.4-1.15v-6.55H4.65l-.9-1.3c.333-.6.5-1.35.5-2.25v-.25c-.033-1.133-.333-1.983-.9-2.55-.533-.533-1.217-.8-2.05-.8h-6.6v1.55h6.55c.467 0 .85.133 1.15.4.333.333.517.85.55 1.55l-.15.9h.05l-.05.25-.4.55c-.3.3-.683.45-1.15.45H-5.3v1.5l-1.8.05v-.05h-1.55l-1.7-1.1-1.75-3.9v-3.9l.45-.4.2-.15 1.15-1.4-1.25-1-.7.95.4-10.95 1.75-12.8.4.35.75-.7-1-1.1c-.967-1.233-1.467-2.567-1.5-4v-.25l.05-.9c.233-1.533 1.05-2.95 2.45-4.25l-.75-.75.5-3.95.65.3 3.85-8.6 3.85 8.6L.4-60m5.45 8.85v-3.6h3.5v8.15H4.4l.05-.05.5-.9.9-3.55v-.05m12.9-4.7-1.1-1.1 1.1 1.1M-7.15-43.6l.75-1.55v-1.35h-1.5v1.45h.55l-.55 1.45h.75m3.65-1.55v-1.35H-5v1.45h.55L-5-43.6h.75l.75-1.55" style="fill:#fff" transform="matrix(2 0 0 2 79.341 142)"/><path d="M100.841 29.9v18.9h2.4v6.5h-2.8v-3.9h-14.4v3.9h-2.7v-6.5h1.9l2.1-4.1.9-4.9.1-2.2v-7.7h12.5m-12.9-7.9 10.1-22 10.3 22-2.5 1.1-7.8-17.2-7.7 17.2-2.4-1.1m29 8.3.6-.7c3.4 3.134 5.234 6.734 5.5 10.8l.1 1.2c0 2.534-.6 4.9-1.8 7.1-.934 1.666-2.2 3.266-3.8 4.8l-1.4-1.4 2.8-3.4.5-.9c1.066-1.934 1.6-4 1.6-6.2l-.1-1.2c-.266-3.334-1.8-6.366-4.6-9.1l-.2-.2.7-.8h.1m-7.7 33.8 1.5-.1c2.934 0 5.1.7 6.5 2.1 1.466 1.4 2.2 3.3 2.2 5.7 0 2.466-.666 4.366-2 5.7l-.8.7c-2.134 1.6-5.066 2.6-8.8 3l-3 .1-.7-3 2.5-.1c4.066-.266 6.8-1.1 8.2-2.5 1-1 1.5-2.234 1.5-3.7 0-1.6-.534-2.934-1.6-4-.8-.8-2.234-1.2-4.3-1.2l-6 1.2-6.7 2.5-1.3-3.2 6.3-1.8 6.5-1.4m-6.2 58.8v13.2c0 1.666-.534 3.034-1.6 4.1-1.266 1.2-3.134 1.8-5.6 1.8-2.534 0-4.4-.6-5.6-1.8-1.066-1.066-1.6-2.434-1.6-4.1v-13.2h3.1V136c0 .934.266 1.7.8 2.3.734.734 1.834 1.1 3.3 1.1 1.4 0 2.466-.366 3.2-1.1.6-.6.9-1.366.9-2.3v-13.1h3.1m-16.2-2.6-.1.2-.7.8c-1 1.066-2.3 1.6-3.9 1.6h-13.4v-3h13.1c.934 0 1.7-.3 2.3-.9l.8-1.1.1-.5.2-1.6v-.2c-.066-1.4-.434-2.434-1.1-3.1-.6-.534-1.366-.8-2.3-.8h-13.1v-3.1h13.2c1.666 0 3.034.534 4.1 1.6 1.134 1.134 1.734 2.834 1.8 5.1v.5c0 1.8-.334 3.3-1 4.5m-31.7-15.2c-.934.6-2 .9-3.2.9-1.266 0-3.034-.734-5.3-2.2-1.6-.866-2.866-1.3-3.8-1.3-1.2 0-2.066.366-2.6 1.1l-.3.4-.9 1.5-2.7-1.5a8.99 8.99 0 0 1 2.4-3.3l1.2-.9 2.7-.7c1.466 0 2.966.534 4.5 1.6 2.2 1.134 3.9 1.7 5.1 1.7.8 0 1.666-.434 2.6-1.3l1.4-1.9 2.5 2-2.3 2.8-.4.3-.9.8m4-51.5-1.2-1.4-1.5-2.1c-1.466-2.334-2.166-4.9-2.1-7.7l.1-2c.266-2 .934-3.9 2-5.7l3.5-4.3 1.5 1.5c-2.8 2.6-4.434 5.434-4.9 8.5l-.1 1.8v.5c.066 2.866 1.066 5.534 3 8l2 2.2-1.5 1.4-.8-.7m1.8-31.1-1.1-.5 10.1-22 10.2 22-2.5 1.1-7.7-17.2-7.7 17.2-1.3-.6m30.1 17.2v.1l-1.8 7.1-1 1.8-.1.1h9.9V32.5h-7v7.2m-18.7 12-1.5 3.1h-1.5l1.1-2.9h-1.1V49h3v2.7m-7.3 3.1h-1.5l1.1-2.9h-1.1V49h3v2.7l-1.5 3.1"/><path d="M.4-60h3.9m8.4 33.6v12.25m4.95-42.8 1.1 1.1" style="fill:none;fill-rule:nonzero;stroke:#000;stroke-width:1px" transform="matrix(2 0 0 2 79.341 142)"/><path d="m57.264 65.446 12.391-9.819 9.154.309c12.992 13.066 17.822 12.11 24.374.498l5.074.975 1.195 8.333c-.402-.566-1.951.163-2.184-.338-2.55-5.487-4.887-5.474-7.192 2.271-1.51 6.646-.594 16.109 4.522 16.906 1.536-.695 2.388-2.414 2.697-4.949.086 1.365 1.794-.528 1.896.766.331 4.24-.916 11.336-.848 14.95l-54.066-.733c-.689-12.748-.236-16.421 2.987-29.169Zm19.174-5.408c-4.887 0-8.854 5.376-8.854 11.997 0 6.622 3.967 11.997 8.854 11.997 4.886 0 8.853-5.375 8.853-11.997 0-6.621-3.967-11.997-8.853-11.997Z" style="fill:#c7c7c7;stroke:#000;stroke-width:2px;stroke-linecap:butt;stroke-miterlimit:1.5"/><path d="m91.702 66.897 3.334.161 1.189 2.903-.456 6.108-2.619 1.362 2.175 2.339-.143 7.072-2.087 1.682-2.984-.196-1.244-2.563.196-6.133 3.716-2.201-2.61-2.283-.163-6.413 1.696-1.838Z" style="fill:none;stroke:#ffdb69;stroke-width:2.5px;stroke-linecap:butt;stroke-miterlimit:1.5" transform="translate(-.909 3.635)"/><circle cx="1505.03" cy="474.652" r="16.705" style="fill:#b05d02;stroke:#000;stroke-width:1px;stroke-miterlimit:1.5" transform="rotate(180 801.644 284.73) scale(1.00234)"/><path d="M1536.52 481.049c-1.65 4.247 8.5 13.966 19.94 10.966" style="fill:none;stroke:#944d00;stroke-width:.7px;stroke-miterlimit:1.5" transform="rotate(180 1156.45 396.913) scale(1.43518)"/><path d="M1549.1 476.555c5.86 10.098 1.61 28.004-8.86 21.659-4.16-1.215-8.17-10.38-5.9-11.999 1.35 8.703 12.47 15.682 14.48 3.246.88-5.397-13.81-9.565-6.69-12.952 2.38-.923 4.69-.74 6.97.046Z" style="fill:none;stroke:#944d00;stroke-width:.7px;stroke-miterlimit:1.5" transform="rotate(180 1156.45 396.913) scale(1.43518)"/><path d="M1552.73 496.807c.33-5.022.57-5.887 3.73-11.166" style="fill:none;stroke:#944d00;stroke-width:.7px;stroke-miterlimit:1.5" transform="rotate(180 1156.45 396.913) scale(1.43518)"/><g opacity=".3"><circle cx="1505.03" cy="474.652" r="16.705" style="fill:#b05d02;stroke:#000;stroke-width:1px;stroke-miterlimit:1.5" transform="matrix(-1.00234 0 0 1.00234 1598.717 -370.085)"/><path d="M1536.52 481.049c-1.65 4.247 8.5 13.966 19.94 10.966" style="fill:none;stroke:#944d00;stroke-width:.7px;stroke-miterlimit:1.5" transform="matrix(-1.43518 0 0 1.43518 2308.33 -594.451)"/><path d="M1549.1 476.555c5.86 10.098 1.61 28.004-8.86 21.659-4.16-1.215-8.17-10.38-5.9-11.999 1.35 8.703 12.47 15.682 14.48 3.246.88-5.397-13.81-9.565-6.69-12.952 2.38-.923 4.69-.74 6.97.046Z" style="fill:none;stroke:#944d00;stroke-width:.7px;stroke-miterlimit:1.5" transform="matrix(-1.43518 0 0 1.43518 2308.33 -594.451)"/><path d="M1552.73 496.807c.33-5.022.57-5.887 3.73-11.166" style="fill:none;stroke:#944d00;stroke-width:.7px;stroke-miterlimit:1.5" transform="matrix(-1.43518 0 0 1.43518 2308.33 -594.451)"/></g><path d="M70.252 68.803c4.524-2.168 9.048-3.314 13.572-3.526 3.84.403 5.331 1.406 6.318 3.14 1.162 2.041 1.304 5.054-.974 8.7-3.395 1.558-7.188 2.319-11.421 2.2" style="fill:#fff;stroke:#000;stroke-width:3px;stroke-linecap:butt;stroke-miterlimit:1.5" transform="rotate(8.229 80.608 72.303)"/><g id="gikopoipoi_eyes_open"><path d="M1.35 0h.2l.55.1.45.35c.3.3.45.633.45 1L2.55 2.6c-.3.267-.633.4-1 .4l-.8-.2-.25-.2-.45-.7v-.15L0 1.45v-.1c.033-.333.2-.633.5-.9l.25-.2C.917.117 1.1.033 1.3 0h.05m.45.85L1.55.8C1.317.767 1.133.833 1 1c-.133.1-.2.25-.2.45v.15l.15.45H1l.05.05.2.1.3.05.55-.2.15-.6-.05-.3L2.1 1 2.05.95 1.9.85h-.1" transform="matrix(2.0124 0 0 2 72.133 27)"/><path d="M1.35 0h.2l.55.1.45.35c.3.3.45.633.45 1L2.55 2.6c-.3.267-.633.4-1 .4l-.8-.2-.25-.2-.45-.7v-.15L0 1.45v-.1c.033-.333.2-.633.5-.9l.25-.2C.917.117 1.1.033 1.3 0h.05m.45.85L1.55.8C1.317.767 1.133.833 1 1c-.133.1-.2.25-.2.45v.15l.15.45H1l.05.05.2.1.3.05.55-.2.15-.6-.05-.3L2.1 1 2.05.95 1.9.85h-.1" transform="matrix(2.0124 0 0 2 105.974 27)"/></g><g id="gikopoipoi_eyes_closed" style="display:none"><path d="M107.46 30.1h6.3" style="fill:none;fill-rule:nonzero;stroke:#000;stroke-width:3px"/><path d="M-.05 1.55H3.1" style="fill:none;fill-rule:nonzero;stroke:#000;stroke-width:1.5px" transform="matrix(2 0 0 2 73.719 27)"/></g></svg>