<svg xmlns:xlink="http://www.w3.org/1999/xlink" height="203" width="1114.4" xmlns="http://www.w3.org/2000/svg"><use height="52.8" transform="matrix(1.6007 -.036 .0343 1.5239 61.223 39.055)" width="576.6" xlink:href="#a"/><defs><path d="m66.8-8.05-15.65 1.2Q34.8-4.7 25.1-4.9l-7.2-.05-4.1-.1-11.65.85L-12-2.3-35.6-.55l-2.3.25h-.1l-1.35.25-3 .65-14.2-1-3.55.85Q-65.4 1.7-70.25 3.1l-5.9-.3q1.4-1.35 4.95-2.8l3.7-1.35 5.55-.5 5.4-.45 5.25.05 10.85 1.6 1.1-.35 4.8-.75 20.2-1.85 9.15-1.05L7.25-6.1l9-1.3 1.65.3 12.95.95L53.7-7.3l18.05-2 12.6-1.05 2.55-.2h.2l4.1-.2 6.3.3-1.65.1-8.75.6L71.75-8.5l-4.95.45m118.8-12.3 12.45-1.45 9-1.25 14.6 1.2L244.5-23l30.65-3 2.55-.2h.05l4.25-.2 6.3.3-1.65.1-29.05 2.3-15.65 1.2q-16.35 2.15-26.05 1.95l-11.3-.15-11.65.85L178.8-18l-23.6 1.75-2.3.25-.05.05-4.4.85-14.2-.95-3.55.8-10.15 2.65-5.9-.25q1.4-1.35 4.95-2.8l3.7-1.35 5.55-.5 5.4-.45 5.25.05 10.85 1.55q2.1-.75 5.9-1.1l20.2-1.85 9.15-1.05m-369.75 34.9 18.65-.55 11.9-.4 23.5-2 7.05.25q5.9-2.75 10.05-5.45h.05q3.05-1 5.7-1.45l6.25-.65 6.65-.55Q-88.5 5-85.1 6.4q1.55.65 2.6 1.3l-6.6 1.95L-105.95 8-120 13.4l-5.3-.25h-.1l-2.5.15-26 3.85q-9.4-.65-20.5-.2l-16.65 1.1Q-196 19.2-202.6 21.1q-10.8 2.05-32.1 1.6l-19 2.05-34.6 1.65 6.3-1.1 4.6-.4.05.05 39.25-2.55q18.05-1.2 26.55-3.95 8.4-2.15 16.25-4.5l11.15.6" fill="#fff" fill-opacity=".451" fill-rule="evenodd" transform="translate(288.3 26.4)" id="a"/></defs></svg>