<svg xmlns="http://www.w3.org/2000/svg" height="182" width="160"><g clip-rule="evenodd" fill-rule="evenodd" stroke-linecap="round" stroke-linejoin="round"><path d="M80.141 22h7.8l2.4 1.1 7.7-17.2 7.8 17.2 2.5-1.1 6.3 6.1 2.2 2.2-2.2-2.2 2.3 2.2h-.1l-.7.8.2.2c2.8 2.734 4.334 5.766 4.6 9.1l.1 1.2c0 2.2-.534 4.266-1.6 6.2l-.5.9-2.8 3.4.2.2-.6.6-6.5 1.8v9.4l-6.5 1.4-6.3 1.8 1.3 3.2 6.7-2.5c2.266-.8 4.266-1.2 6-1.2 2.066 0 3.5.4 4.3 1.2 1.066 1.066 1.6 2.4 1.6 4 0 1.466-.5 2.7-1.5 3.7-1.4 1.4-4.134 2.234-8.2 2.5l-2.5.1.7 3 3-.1-.1 5.5-3 2.5v11.5h-9.1v3.1h13.2c.934 0 1.7.266 2.3.8.734.734 1.1 1.834 1.1 3.3 0 1.4-.366 2.466-1.1 3.2-.6.6-1.366.9-2.3.9h-13.2v3h-34l-6.5-6.5v-3.4l.9-.8c1-.8 1.9-1.834 2.7-3.1l-2.5-2-1.4 1.9.8-21.9 3.5-25.6.8.7 1.5-1.4-2-2.2c-2-2.534-3-5.3-3-8.3l.1-2c.466-3.066 2.1-5.9 4.9-8.5l-1.5-1.5 1-7.9 1.3.6 7.7-17.2 7.7 17.2 2.5-1.1m21 32.8 1.5-3.1V49h-3.1v2.9h1.1l-1.1 2.9h1.6m7.3-5.8h-3v2.9h1.1l-1.1 2.9h1.5l1.5-3.1V49" fill="#fff"/><path d="m80.141 22-2.5 1.1-7.7-17.2-7.7 17.2-1.3-.6-1.1-.5 10.1-22 10.2 22m-20.2 8.4 1.5 1.5c-2.8 2.6-4.434 5.434-4.9 8.5l-.1 2c0 3 1 5.766 3 8.3l2 2.2-1.5 1.4-.8-.7-1.2-1.4c-2.4-2.934-3.6-6.2-3.6-9.8l.1-2c.466-3.734 2.3-7.066 5.5-10m-5.1 70.7 1.4-1.9 2.5 2c-.8 1.266-1.7 2.3-2.7 3.1l-.9.8c-.734.466-1.566.766-2.5.9h-.7c-1.266 0-3.034-.734-5.3-2.2l-3.8-1.3c-1.2 0-2.066.366-2.6 1.1l-1.2 1.9-2.7-1.5 2.4-3.3c1.066-1.066 2.366-1.6 3.9-1.6 1.466 0 2.966.534 4.5 1.6 2.2 1.134 3.9 1.7 5.1 1.7.866 0 1.734-.434 2.6-1.3m40.8 13.9v-3h13.2c.934 0 1.7-.3 2.3-.9.734-.734 1.1-1.8 1.1-3.2 0-1.466-.366-2.566-1.1-3.3-.6-.534-1.366-.8-2.3-.8h-13.2v-3.1h13.3c1.666 0 3.034.534 4.1 1.6 1.2 1.2 1.8 3.066 1.8 5.6 0 2.466-.6 4.3-1.8 5.5-1.066 1.066-2.434 1.6-4.1 1.6h-13.3m12.2-33.8-3 .1-.7-3 2.5-.1c4.066-.266 6.8-1.1 8.2-2.5 1-1 1.5-2.234 1.5-3.7 0-1.6-.534-2.934-1.6-4-.8-.8-2.234-1.2-4.3-1.2-1.734 0-3.734.4-6 1.2l-6.7 2.5-1.3-3.2 6.3-1.8 6.5-1.4 1.5-.1c2.934 0 5.1.7 6.5 2.1 1.466 1.4 2.2 3.3 2.2 5.7 0 2.466-.666 4.366-2 5.7l-.8.7c-2.134 1.6-5.066 2.6-8.8 3m8.5-28.9-.2-.2 2.8-3.4.5-.9c1.066-1.934 1.6-4 1.6-6.2l-.1-1.2c-.266-3.334-1.8-6.366-4.6-9.1l-.2-.2.7-.8h.1l.6-.7c3.4 3.134 5.234 6.734 5.5 10.8l.1 1.2c0 2.534-.6 4.9-1.8 7.1-.934 1.666-2.2 3.266-3.8 4.8l-1.2-1.2m-8-30.3-2.5 1.1-7.8-17.2-7.7 17.2-2.4-1.1 10.1-22 10.3 22m.1 27v2.7l-1.5 3.1h-1.5l1.1-2.9h-1.1V49h3m-7.3 5.8h-1.6l1.1-2.9h-1.1V49h3.1v2.7l-1.5 3.1"/><path d="M87.941 22h-7.8m24.6 78.7V89.2m12.1-58.9-2.2-2.2" fill="none" stroke="#000" stroke-width="2"/><path d="M109.044 28.6h.4l1.102.2.901.7c.6.6.901 1.266.901 2l-.9 2.3c-.602.534-1.268.8-2.003.8l-1.602-.4-.5-.4-.902-1.4v-.3l-.1-.6v-.2c.066-.666.4-1.266 1.001-1.8l.5-.4a2.374 2.374 0 0 1 1.102-.5h.1m.901 1.7-.5-.1c-.467-.066-.835.066-1.102.4-.266.2-.4.5-.4.9v.3l.3.9h.1l.1.1.401.2.6.1 1.102-.4.3-1.2-.1-.6-.2-.3-.1-.1-.3-.2h-.2"/><path d="m59.105 55.401 27 .888h16.889l14.889-.222.444 3.111-1.111 2.778.556 6.333s.018-.318-1.483-1.917c-.542-.577-2.037-1.36-2.517-1.638-1.537-.889-5.556-.445-5.556-.445l-6 1.334.222 1.333.556 3.667-2.889 3.222-2.333 25.222-2.556.334-1.889 1.333-2.333 9.555-4.778-.666-4.111-.111-3.444-1.556-1.223-3.555s4-10.223 5.778-32.445l-.222-2.444-10.444.666-9.445-.777-4.667-1.667-.333-2.889 2-4.222-1.778-2.222z" fill="#c90000"/><path d="M97.994 99.067s1.667-5.889 1.444-27.111" fill="none" stroke="#000" stroke-width="2.1" stroke-linecap="square" stroke-miterlimit="1.5"/><path d="m91.753 95.59.011-.023c.021-.044.058-.08.043-.088-.196-.098-.166-.021-.054.111-.08.163-.239.466-.406.86a9.773 9.773 0 0 0-.38 1.006c-.063.209-.103.423-.143.628-.157.82-.234 1.497-.234 1.497a.538.538 0 0 0 1.03.306s.305-.609.621-1.381c.08-.194.163-.396.224-.605.106-.359.174-.726.232-1.05.069-.39.103-.712.125-.9.134-.074.198-.144.019-.164-.016-.002-.005.048-.011.097l-.008.067c-.183.101-.495.209-.495.209.6-.668.438-.968.153-1.052a.537.537 0 0 0-.668.362l.515.69s-.394-.357-.574-.57z"/><path d="M93.216 100.845s-.222 3.444-2.555 9.333" fill="none" stroke="#000" stroke-width="2.1" stroke-linecap="square" stroke-miterlimit="1.5"/><path d="m88.109 95.26.004-.005c.029-.041.071-.071.058-.08-.185-.134-.162-.06-.062.085-.102.145-.316.428-.554.805-.177.281-.376.6-.542.939a6.481 6.481 0 0 0-.245.601c-.291.789-.48 1.45-.48 1.45a.538.538 0 0 0 .967.469s.402-.556.843-1.273c.11-.18.225-.366.321-.565.164-.34.292-.693.403-1.006.133-.374.219-.687.272-.871.132-.055.206-.117.047-.163-.016-.005-.013.047-.028.095l-.019.068c-.169.07-.433.129-.433.129.612-.569.501-.891.234-1.021a.538.538 0 0 0-.718.249l.484.772s-.384-.437-.552-.678z"/><path d="m86.216 72.208-2.889-2.778s-1 20.807-6.333 35.444" fill="none" stroke="#000" stroke-width="2.1" stroke-linecap="square" stroke-miterlimit="1.5"/><path d="M87.005 106.241c.031-.041.076-.072.062-.082-.182-.139-.161-.065-.062.082-.109.147-.343.44-.606.831-.194.288-.411.615-.596.964-.108.203-.195.416-.279.62-.335.812-.561 1.494-.561 1.494a.538.538 0 0 0 .951.501s.435-.571.917-1.305c.121-.185.247-.377.354-.581.183-.349.331-.714.459-1.036.156-.389.26-.715.323-.904.132-.051.208-.112.054-.163-.016-.005-.016.049-.033.098l-.021.065a3.2 3.2 0 0 1-.417.113c.613-.549.513-.874.25-1.013a.538.538 0 0 0-.726.225l.476.788s-.38-.451-.545-.697z"/><path d="M116.511 56.319s-33.373.222-57.556-1.111c0 0-2.517 2.111.817 5.111 0 0-3.667 6.222-.667 8 0 0 4.333 2 24.667 1.444 0 0-6.778-6 .333-11.889 0 0 8.333-2.555 14.222 3.778 0 0 8.667 7.445 2 12.222 0 0-.777-8.777-13.889-7.444 0 0 1.667 19.889-1.888 30.444" fill="none" stroke="#000" stroke-width="2.1" stroke-linecap="square" stroke-miterlimit="1.5"/><path d="M83.256 106.065c.033-.033.072-.055.061-.066-.17-.161-.152-.088-.061.066l-.008.008c-.121.131-.378.39-.673.743-.217.259-.461.554-.676.873a6.57 6.57 0 0 0-.331.574 23.587 23.587 0 0 0-.688 1.395.538.538 0 0 0 .894.596s.482-.508 1.024-1.171c.136-.167.278-.34.402-.527.212-.32.391-.659.546-.959.188-.362.32-.667.399-.845.128-.039.208-.092.069-.154-.015-.007-.02.046-.041.091l-.028.063c-.152.047-.373.075-.373.075.611-.486.545-.82.298-.985a.538.538 0 0 0-.745.149l.447.836s-.362-.499-.516-.762z"/><path d="M117.216 69.067s1.889 0 .111-7.555c0 0 1.778-3.223.111-5.223" fill="none" stroke="#000" stroke-width="2.1" stroke-miterlimit="1.5"/><path d="M79.703 105.393c.031-.031.069-.051.059-.061-.168-.164-.149-.093-.059.061l-.005.005c-.112.118-.35.349-.623.668-.2.233-.425.499-.62.79-.114.169-.208.35-.298.523-.362.693-.61 1.279-.61 1.279a.537.537 0 1 0 .894.596s.445-.454.946-1.055c.125-.15.256-.306.368-.476a8.58 8.58 0 0 0 .491-.876c.165-.325.278-.6.348-.765.127-.04.205-.092.065-.152-.014-.006-.017.042-.036.084l-.029.068a2.633 2.633 0 0 1-.378.078c.612-.486.545-.82.298-.984a.537.537 0 0 0-.745.149l.447.835s-.36-.504-.513-.767zm15.156-8.826.017-.046c.013-.037.039-.068.027-.072-.198-.073-.162.001-.044.118-.051.141-.143.378-.23.685-.07.249-.147.531-.187.823-.024.17-.024.341-.025.506-.004.661.044 1.193.044 1.193a.539.539 0 0 0 1.066.142s.185-.501.355-1.14c.042-.159.087-.324.109-.494.037-.292.037-.585.034-.844-.003-.305-.028-.55-.041-.701.129-.091.179-.163-.012-.146-.013.001.003.038.006.077l.006.069c-.188.135-.546.312-.546.312.572-.76.365-1.031.071-1.07a.537.537 0 0 0-.603.462l.532.608s-.392-.296-.579-.482z"/></g></svg>