<?xml version="1.0" encoding="UTF-8" standalone="no"?>
<svg
   xmlns:serif="http://www.serif.com/"
   xmlns:dc="http://purl.org/dc/elements/1.1/"
   xmlns:cc="http://creativecommons.org/ns#"
   xmlns:rdf="http://www.w3.org/1999/02/22-rdf-syntax-ns#"
   xmlns:svg="http://www.w3.org/2000/svg"
   xmlns="http://www.w3.org/2000/svg"
   xmlns:xlink="http://www.w3.org/1999/xlink"
   xmlns:sodipodi="http://sodipodi.sourceforge.net/DTD/sodipodi-0.dtd"
   xmlns:inkscape="http://www.inkscape.org/namespaces/inkscape"
   height="182"
   width="160"
   version="1.1"
   id="svg1406"
   sodipodi:docname="front-walking-2.svg"
   inkscape:version="1.0.2-2 (e86c870879, 2021-01-15)">
  <metadata
     id="metadata1410">
    <rdf:RDF>
      <cc:Work
         rdf:about="">
        <dc:format>image/svg+xml</dc:format>
        <dc:type
           rdf:resource="http://purl.org/dc/dcmitype/StillImage" />
        <dc:title></dc:title>
      </cc:Work>
    </rdf:RDF>
  </metadata>
  <sodipodi:namedview
     pagecolor="#ffffff"
     bordercolor="#666666"
     borderopacity="1"
     objecttolerance="10"
     gridtolerance="10"
     guidetolerance="10"
     inkscape:pageopacity="0"
     inkscape:pageshadow="2"
     inkscape:window-width="1283"
     inkscape:window-height="849"
     id="namedview1408"
     showgrid="false"
     inkscape:zoom="4.6703297"
     inkscape:cx="80"
     inkscape:cy="91"
     inkscape:window-x="0"
     inkscape:window-y="0"
     inkscape:window-maximized="0"
     inkscape:current-layer="svg1406" />
  <defs
     id="defs1398">
    <g
       id="c">
      <path
         d="M10.75-56.05v-.05H4.5v3.9l-.05 1.1L4-48.65l-1.05 2H2v3.3h1.35v-1.95h7.2v1.95h1.4v-3.3h-1.2v-9.4M.4-60h3.9l1.2.55 3.85-8.6 3.9 8.6L14.5-60l3.15 3.05 1.15 1.1h-.05l-.35.4.1.1q2.1 2.05 2.3 4.55l.05.6q0 1.65-.8 3.1l-.25.45-1.4 1.7.1.1-.3.3-3.25.9v4.7l-3.25.7-3.15.9.65 1.6L12.55-37l3-.6q1.55 0 2.15.6.8.8.8 2 0 1.1-.75 1.85-1.05 1.05-4.1 1.25l-1.25.05.35 1.5 1.5-.05-.05 2.75-1.5 1.25v12.25l-.85 4.6H10.3V-3q0 .7-.45 1.15-.55.55-1.6.55-1.1 0-1.65-.55Q6.2-2.3 6.2-3v-6.55H4.65l-.9-1.3q.5-.9.5-2.25v-.25q-.05-1.7-.9-2.55-.8-.8-2.05-.8h-6.6v1.55h6.55q.7 0 1.15.4.5.5.55 1.55l-.15.9h.05l-.05.25-.4.55q-.45.45-1.15.45H-5.3v1.5l-1.8.05v-.05h-1.55l-1.7-1.1-1.75-3.9v-3.9l.45-.4.2-.15 1.15-1.4-1.25-1-.7.95.4-10.95 1.75-12.8.4.35.75-.7-1-1.1q-1.45-1.85-1.5-4v-.25l.05-.9q.35-2.3 2.45-4.25l-.75-.75.5-3.95.65.3 3.85-8.6 3.85 8.6L.4-60m5.45 8.85v-3.6h3.5v8.15H4.4l.05-.05.5-.9.9-3.55v-.05m12.9-4.7l-1.1-1.1 1.1 1.1M5.5-37.95Q4.45-39 2.25-39l-4 .75-3.1.9.65 1.6L-.9-37l3-.6q1.55 0 2.15.6.8.8.8 2 0 1.1-.75 1.85Q3.25-32.1.25-31.9l-1.3.05.35 1.5q3.95-.05 5.9-1.55l.4-.35q1-1 1-2.85 0-1.8-1.1-2.85M-7.15-43.6l.75-1.55v-1.35h-1.5v1.45h.55l-.55 1.45h.75m3.65-1.55v-1.35H-5v1.45h.55L-5-43.6h.75l.75-1.55"
         fill="#fff"
         fill-rule="evenodd"
         transform="translate(21.5 71)"
         id="path1384" />
      <path
         d="M10.75-56.05v9.45h1.2v3.25h-1.4v-1.95h-7.2v1.95H2v-3.25h.95L4-48.65l.45-2.45.05-1.1v-3.85h6.25M4.3-60l5.05-11 5.15 11-1.25.55-3.9-8.6-3.85 8.6L4.3-60m14.5 4.15l.3-.35q2.55 2.35 2.75 5.4l.05.6q0 1.9-.9 3.55-.7 1.25-1.9 2.4l-.6-.6-.1-.1 1.4-1.7.25-.45q.8-1.45.8-3.1l-.05-.6q-.2-2.5-2.3-4.55l-.1-.1.35-.4h.05m-3.85 16.9l.75-.05q2.2 0 3.25 1.05 1.1 1.05 1.1 2.85 0 1.85-1 2.85l-.4.35q-1.6 1.2-4.4 1.5l-1.5.05-.35-1.5 1.25-.05q3.05-.2 4.1-1.25.75-.75.75-1.85 0-1.2-.8-2-.6-.6-2.15-.6l-3 .6-3.35 1.25-.65-1.6 3.15-.9 3.25-.7m-3.1 29.4v6.6q0 1.25-.8 2.05-.95.9-2.8.9-1.9 0-2.8-.9-.8-.8-.8-2.05v-6.6H6.2V-3q0 .7.4 1.15.55.55 1.65.55 1.05 0 1.6-.55.45-.45.45-1.15v-6.55h1.55m-8.1-1.3l-.05.1-.35.4q-.75.8-1.95.8h-6.7v-1.5h6.55q.7 0 1.15-.45l.4-.55.05-.25.1-.8v-.1q-.05-1.05-.55-1.55-.45-.4-1.15-.4H-5.3v-1.55h6.6q1.25 0 2.05.8.85.85.9 2.55v.25q0 1.35-.5 2.25m-15.85-7.6q-.7.45-1.6.45-.95 0-2.65-1.1-1.2-.65-1.9-.65-.9 0-1.3.55l-.15.2-.45.75-1.35-.75q.4-.95 1.2-1.65l.6-.45 1.35-.35q1.1 0 2.25.8 1.65.85 2.55.85.6 0 1.3-.65l.7-.95 1.25 1-1.15 1.4-.2.15-.45.4m2-25.75l-.6-.7-.75-1.05q-1.1-1.75-1.05-3.85l.05-1q.2-1.5 1-2.85l1.75-2.15.75.75q-2.1 1.95-2.45 4.25l-.05.9v.25q.05 2.15 1.5 4l1 1.1-.75.7-.4-.35m.9-15.55l-.55-.25 5.05-11L.4-60l-1.25.55-3.85-8.6-3.85 8.6-.65-.3m15.05 8.6v.05l-.9 3.55-.5.9-.05.05h4.95v-8.15h-3.5v3.6m-.35 13.2q1.1 1.05 1.1 2.85 0 1.85-1 2.85l-.4.35q-1.95 1.5-5.9 1.55l-.35-1.5 1.3-.05q3-.2 4.05-1.25.75-.75.75-1.85 0-1.2-.8-2-.6-.6-2.15-.6l-3 .6-3.3 1.25-.65-1.6 3.1-.9 4-.75q2.2 0 3.25 1.05m-9-7.2l-.75 1.55H-5l.55-1.45H-5v-1.45h1.5v1.35m-3.65 1.55h-.75l.55-1.45h-.55v-1.45h1.5v1.35l-.75 1.55"
         fill-rule="evenodd"
         transform="translate(21.5 71)"
         id="path1386" />
      <path
         d="M.4-60h3.9m8.4 33.6v12.25m4.95-42.8l1.1 1.1"
         fill="none"
         stroke="#000"
         stroke-linecap="round"
         stroke-linejoin="round"
         transform="translate(21.5 71)"
         id="path1388" />
    </g>
    <g
       id="d"
       transform="translate(.8)">
      <use
         height="3"
         transform="matrix(1.005 0 0 1 -.804 0)"
         width="4.65"
         xlink:href="#a"
         id="use1391" />
      <use
         height="3"
         transform="matrix(1.005 0 0 1 16.096 0)"
         width="4.65"
         xlink:href="#a"
         id="use1393" />
    </g>
    <path
       d="M1.35 0h.2l.55.1.45.35q.45.45.45 1L2.55 2.6q-.45.4-1 .4l-.8-.2-.25-.2-.45-.7v-.15L0 1.45v-.1q.05-.5.5-.9l.25-.2Q1 .05 1.3 0h.05m.45.85L1.55.8Q1.2.75 1 1q-.2.15-.2.45v.15l.15.45H1l.05.05.2.1.3.05.55-.2.15-.6-.05-.3L2.1 1 2.05.95 1.9.85h-.1"
       fill-rule="evenodd"
       id="b" />
    <use
       height="3"
       transform="translate(.8)"
       width="3"
       xlink:href="#b"
       id="a" />
  </defs>
  <g
     style="clip-rule:evenodd;fill-rule:evenodd;stroke-linecap:round;stroke-linejoin:round"
     id="g1509">
    <g
       transform="matrix(2,0,0,2,79.341,142)"
       id="g1468">
        <g
   id="c-0"
   transform="translate(-21.5,-71)">
            <g
   transform="translate(21.5,71)"
   id="g1414">
                <path
   d="M 10.75,-56.05 V -56.1 H 4.5 v 3.9 l -0.05,1.1 -0.45,2.45 -1.05,2 H 2 v 3.3 h 1.35 v -1.95 h 7.2 v 1.95 h 1.4 v -3.3 h -1.2 v -9.4 M 0.4,-60 h 3.9 l 1.2,0.55 3.85,-8.6 3.9,8.6 1.25,-0.55 3.15,3.05 1.15,1.1 h -0.05 l -0.35,0.4 0.1,0.1 c 1.4,1.367 2.167,2.883 2.3,4.55 l 0.05,0.6 c 0,1.1 -0.267,2.133 -0.8,3.1 l -0.25,0.45 -1.4,1.7 0.1,0.1 -0.3,0.3 -3.25,0.9 v 4.7 l -3.25,0.7 -3.15,0.9 0.65,1.6 3.35,-1.25 3,-0.6 c 1.033,0 1.75,0.2 2.15,0.6 0.533,0.533 0.8,1.2 0.8,2 0,0.733 -0.25,1.35 -0.75,1.85 -0.7,0.7 -2.067,1.117 -4.1,1.25 l -1.25,0.05 0.35,1.5 1.5,-0.05 -0.05,2.75 -1.5,1.25 v 12.25 l -0.85,4.6 H 10.3 V -3 c 0,0.467 -0.15,0.85 -0.45,1.15 C 9.483,-1.483 8.95,-1.3 8.25,-1.3 7.517,-1.3 6.967,-1.483 6.6,-1.85 6.333,-2.15 6.2,-2.533 6.2,-3 V -9.55 H 4.65 l -0.9,-1.3 c 0.333,-0.6 0.5,-1.35 0.5,-2.25 v -0.25 C 4.217,-14.483 3.917,-15.333 3.35,-15.9 2.817,-16.433 2.133,-16.7 1.3,-16.7 h -6.6 v 1.55 h 6.55 c 0.467,0 0.85,0.133 1.15,0.4 0.333,0.333 0.517,0.85 0.55,1.55 l -0.15,0.9 h 0.05 l -0.05,0.25 -0.4,0.55 c -0.3,0.3 -0.683,0.45 -1.15,0.45 H -5.3 v 1.5 l -1.8,0.05 v -0.05 h -1.55 l -1.7,-1.1 -1.75,-3.9 v -3.9 l 0.45,-0.4 0.2,-0.15 1.15,-1.4 -1.25,-1 -0.7,0.95 0.4,-10.95 1.75,-12.8 0.4,0.35 0.75,-0.7 -1,-1.1 c -0.967,-1.233 -1.467,-2.567 -1.5,-4 v -0.25 l 0.05,-0.9 c 0.233,-1.533 1.05,-2.95 2.45,-4.25 l -0.75,-0.75 0.5,-3.95 0.65,0.3 3.85,-8.6 3.85,8.6 L 0.4,-60 m 5.45,8.85 v -3.6 h 3.5 v 8.15 H 4.4 l 0.05,-0.05 0.5,-0.9 0.9,-3.55 v -0.05 m 12.9,-4.7 -1.1,-1.1 1.1,1.1 M 5.5,-37.95 C 4.8,-38.65 3.717,-39 2.25,-39 l -4,0.75 -3.1,0.9 0.65,1.6 3.3,-1.25 3,-0.6 c 1.033,0 1.75,0.2 2.15,0.6 0.533,0.533 0.8,1.2 0.8,2 0,0.733 -0.25,1.35 -0.75,1.85 -0.7,0.7 -2.05,1.117 -4.05,1.25 l -1.3,0.05 0.35,1.5 c 2.633,-0.033 4.6,-0.55 5.9,-1.55 l 0.4,-0.35 c 0.667,-0.667 1,-1.617 1,-2.85 0,-1.2 -0.367,-2.15 -1.1,-2.85 m -12.65,-5.65 0.75,-1.55 v -1.35 h -1.5 v 1.45 h 0.55 l -0.55,1.45 h 0.75 m 3.65,-1.55 V -46.5 H -5 v 1.45 h 0.55 L -5,-43.6 h 0.75 l 0.75,-1.55"
   style="fill:#ffffff"
   id="path1412" />

            </g>

            <g
   transform="translate(21.5,71)"
   id="g1418">
                <path
   d="m 10.75,-56.05 v 9.45 h 1.2 v 3.25 h -1.4 v -1.95 h -7.2 v 1.95 H 2 V -46.6 H 2.95 L 4,-48.65 4.45,-51.1 4.5,-52.2 v -3.85 h 6.25 M 4.3,-60 l 5.05,-11 5.15,11 -1.25,0.55 -3.9,-8.6 -3.85,8.6 L 4.3,-60 m 14.5,4.15 0.3,-0.35 c 1.7,1.567 2.617,3.367 2.75,5.4 l 0.05,0.6 c 0,1.267 -0.3,2.45 -0.9,3.55 -0.467,0.833 -1.1,1.633 -1.9,2.4 l -0.7,-0.7 1.4,-1.7 0.25,-0.45 c 0.533,-0.967 0.8,-2 0.8,-3.1 l -0.05,-0.6 c -0.133,-1.667 -0.9,-3.183 -2.3,-4.55 l -0.1,-0.1 0.35,-0.4 h 0.05 m -3.85,16.9 0.75,-0.05 c 1.467,0 2.55,0.35 3.25,1.05 0.733,0.7 1.1,1.65 1.1,2.85 0,1.233 -0.333,2.183 -1,2.85 l -0.4,0.35 c -1.067,0.8 -2.533,1.3 -4.4,1.5 l -1.5,0.05 -0.35,-1.5 1.25,-0.05 c 2.033,-0.133 3.4,-0.55 4.1,-1.25 0.5,-0.5 0.75,-1.117 0.75,-1.85 0,-0.8 -0.267,-1.467 -0.8,-2 -0.4,-0.4 -1.117,-0.6 -2.15,-0.6 l -3,0.6 -3.35,1.25 -0.65,-1.6 3.15,-0.9 3.25,-0.7 m -3.1,29.4 v 6.6 c 0,0.833 -0.267,1.517 -0.8,2.05 C 10.417,-0.3 9.483,0 8.25,0 6.983,0 6.05,-0.3 5.45,-0.9 4.917,-1.433 4.65,-2.117 4.65,-2.95 v -6.6 H 6.2 V -3 c 0,0.467 0.133,0.85 0.4,1.15 0.367,0.367 0.917,0.55 1.65,0.55 0.7,0 1.233,-0.183 1.6,-0.55 0.3,-0.3 0.45,-0.683 0.45,-1.15 v -6.55 h 1.55 m -8.1,-1.3 -0.05,0.1 -0.35,0.4 c -0.5,0.533 -1.15,0.8 -1.95,0.8 h -6.7 v -1.5 h 6.55 c 0.467,0 0.85,-0.15 1.15,-0.45 l 0.4,-0.55 0.05,-0.25 0.1,-0.8 v -0.1 c -0.033,-0.7 -0.217,-1.217 -0.55,-1.55 -0.3,-0.267 -0.683,-0.4 -1.15,-0.4 H -5.3 v -1.55 h 6.6 c 0.833,0 1.517,0.267 2.05,0.8 0.567,0.567 0.867,1.417 0.9,2.55 v 0.25 c 0,0.9 -0.167,1.65 -0.5,2.25 m -15.85,-7.6 c -0.467,0.3 -1,0.45 -1.6,0.45 -0.633,0 -1.517,-0.367 -2.65,-1.1 -0.8,-0.433 -1.433,-0.65 -1.9,-0.65 -0.6,0 -1.033,0.183 -1.3,0.55 l -0.15,0.2 -0.45,0.75 -1.35,-0.75 c 0.267,-0.633 0.667,-1.183 1.2,-1.65 l 0.6,-0.45 1.35,-0.35 c 0.733,0 1.483,0.267 2.25,0.8 1.1,0.567 1.95,0.85 2.55,0.85 0.4,0 0.833,-0.217 1.3,-0.65 l 0.7,-0.95 1.25,1 -1.15,1.4 -0.2,0.15 -0.45,0.4 m 2,-25.75 -0.6,-0.7 -0.75,-1.05 c -0.733,-1.167 -1.083,-2.45 -1.05,-3.85 l 0.05,-1 c 0.133,-1 0.467,-1.95 1,-2.85 l 1.75,-2.15 0.75,0.75 c -1.4,1.3 -2.217,2.717 -2.45,4.25 l -0.05,0.9 v 0.25 c 0.033,1.433 0.533,2.767 1.5,4 l 1,1.1 -0.75,0.7 -0.4,-0.35 m 0.9,-15.55 -0.55,-0.25 5.05,-11 5.1,11 -1.25,0.55 -3.85,-8.6 -3.85,8.6 -0.65,-0.3 m 15.05,8.6 v 0.05 l -0.9,3.55 -0.5,0.9 -0.05,0.05 h 4.95 v -8.15 h -3.5 v 3.6 m -0.35,13.2 c 0.733,0.7 1.1,1.65 1.1,2.85 0,1.233 -0.333,2.183 -1,2.85 l -0.4,0.35 c -1.3,1 -3.267,1.517 -5.9,1.55 l -0.35,-1.5 1.3,-0.05 c 2,-0.133 3.35,-0.55 4.05,-1.25 0.5,-0.5 0.75,-1.117 0.75,-1.85 0,-0.8 -0.267,-1.467 -0.8,-2 -0.4,-0.4 -1.117,-0.6 -2.15,-0.6 l -3,0.6 -3.871,1.179 0.921,-1.6 2.1,-0.829 4,-0.75 c 1.467,0 2.55,0.35 3.25,1.05 m -9,-7.2 -0.75,1.55 H -5 l 0.55,-1.45 H -5 v -1.45 h 1.5 v 1.35 m -3.65,1.55 H -7.9 l 0.55,-1.45 H -7.9 v -1.45 h 1.5 v 1.35 l -0.75,1.55"
   id="path1416" />

            </g>

            <g
   transform="translate(21.5,71)"
   id="g1422">
                <path
   d="m 0.4,-60 h 3.9 m 8.4,33.6 v 12.25 m 4.95,-42.8 1.1,1.1"
   style="fill:none;fill-rule:nonzero;stroke:#000000;stroke-width:1px"
   id="path1420" />

            </g>

        </g>

        <g
   id="d-9"
   transform="translate(-3,-57.5)">
            <g
   id="b-0"
   transform="matrix(1.005,0,0,1,-0.804,0)">
                <path
   d="m 1.35,0 h 0.2 L 2.1,0.1 2.55,0.45 C 2.85,0.75 3,1.083 3,1.45 L 2.55,2.6 C 2.25,2.867 1.917,3 1.55,3 L 0.75,2.8 0.5,2.6 0.05,1.9 V 1.75 L 0,1.45 V 1.35 C 0.033,1.017 0.2,0.717 0.5,0.45 L 0.75,0.25 C 0.917,0.117 1.1,0.033 1.3,0 H 1.35 M 1.8,0.85 1.55,0.8 C 1.317,0.767 1.133,0.833 1,1 0.867,1.1 0.8,1.25 0.8,1.45 V 1.6 L 0.95,2.05 H 1 L 1.05,2.1 1.25,2.2 1.55,2.25 2.1,2.05 2.25,1.45 2.2,1.15 2.1,1 2.05,0.95 1.9,0.85 H 1.8"
   id="path1425" />

            </g>

            <g
   id="b1"
   serif:id="b"
   transform="matrix(1.005,0,0,1,16.096,0)">
                <path
   d="m 1.35,0 h 0.2 L 2.1,0.1 2.55,0.45 C 2.85,0.75 3,1.083 3,1.45 L 2.55,2.6 C 2.25,2.867 1.917,3 1.55,3 L 0.75,2.8 0.5,2.6 0.05,1.9 V 1.75 L 0,1.45 V 1.35 C 0.033,1.017 0.2,0.717 0.5,0.45 L 0.75,0.25 C 0.917,0.117 1.1,0.033 1.3,0 H 1.35 M 1.8,0.85 1.55,0.8 C 1.317,0.767 1.133,0.833 1,1 0.867,1.1 0.8,1.25 0.8,1.45 V 1.6 L 0.95,2.05 H 1 L 1.05,2.1 1.25,2.2 1.55,2.25 2.1,2.05 2.25,1.45 2.2,1.15 2.1,1 2.05,0.95 1.9,0.85 H 1.8"
   id="path1428" />

            </g>

        </g>

        <g
   transform="matrix(0.5,0,0,0.5,-39.6705,-71)"
   id="g1434">
            <path
   d="m 68.044,56.236 46.857,-1.714 2.572,0.571 0.571,2.286 -0.428,2.143 -0.572,1.143 0.715,3 0.142,3.143 -1.285,1.143 -4.286,-3 -5,0.714 -8,2.571 -2,1.143 -6.857,0.429 -2.429,-3.429 -4.714,-0.571 -7.286,1.143 -4.857,2.428 -5.714,2 -5.714,-0.571 -8.572,2.857 -6.571,2.857 -5,2.714 -7,0.429 -7.286,-1.429 -6.143,-3.571 1.429,-4.429 3.143,-2 1.142,-3.285 2.858,-1.429 2.857,-2.857 2.285,-1.857 9.715,-2 3.143,-2 4.285,1.428 3.715,-1.857 4.714,-0.428 4.714,0.571 z"
   style="fill:#c90000"
   id="path1432" />

        </g>

        <g
   transform="matrix(0.5,0,0,0.5,-39.6705,-71)"
   id="g1438">
            <path
   d="m 71.693,68.735 c 0,0 -4.518,3.875 -11.768,2.25"
   style="fill:none;stroke:#000000;stroke-width:2.1px;stroke-miterlimit:1.5"
   id="path1436" />

        </g>

        <g
   transform="matrix(0.5,0,0,0.5,-39.6705,-71)"
   id="g1442">
            <path
   d="m 50.044,56.093 c 0,0 -0.857,-2.285 -5.857,-0.571 0,0 -5.714,3.714 -11.286,2.857"
   style="fill:none;stroke:#000000;stroke-width:2.1px;stroke-linecap:butt;stroke-miterlimit:1.5"
   id="path1440" />

        </g>

        <g
   transform="matrix(0.5,0,0,0.5,-39.6705,-71)"
   id="g1446">
            <path
   d="m 49.473,58.093 c 0,0 -9.572,6.715 -13.143,6.715 0,0 -6.429,1.428 -9.143,-2.286"
   style="fill:none;stroke:#000000;stroke-width:2.1px;stroke-linecap:butt;stroke-miterlimit:1.5"
   id="path1444" />

        </g>

        <g
   transform="matrix(0.5,0,0,0.5,-39.6705,-71)"
   id="g1450">
            <path
   d="m 66.782,56.074 c 0,0 37.625,0 48.875,-1.75 0,0 2.5,0.5 2.625,2.25 0.125,1.75 0.375,1.5 -1.5,3.75 0,0 2.25,2.875 1.25,6.5 l -2.25,0.75 c 0,0 -0.447,-1.704 -3.083,-2.264 -1.545,-0.328 -6.292,0.889 -6.292,0.889 l -8.625,3.25 -6.75,0.125 c 0,0 -2.367,-2.456 -3.228,-3.087 -0.91,-0.667 -5.551,-0.594 -5.551,-0.594 l -6.721,1.931 -4.125,1.25 c 0,0 2.125,-4 0,-8 0,0 -0.375,-2 -4.625,-5 -4.25,-3 -12.625,-1.875 -12.625,-1.875 0,0 -2.75,0.25 -4.5,2.875 l -0.821,2.089 c 0,0 2.446,-0.339 4.321,0.161 1.875,0.5 11.25,2.625 10.625,8 0,0 -1.428,3.429 -7.803,4.304 0,0 -5.947,0.928 -14.465,5.91 0,0 -8.755,3.698 -15.613,0.984 0,0 -6,-1.571 -7.857,-6.571"
   style="fill:none;stroke:#000000;stroke-width:2.1px;stroke-miterlimit:1.5"
   id="path1448" />

        </g>

        <g
   transform="matrix(0.5,0,0,0.5,-39.6705,-71)"
   id="g1454">
            <path
   d="m 29.862,58.736 c 0.019,-0.043 0.04,-0.075 0.025,-0.081 -0.161,-0.067 -0.126,-0.011 -0.025,0.081 l -0.011,0.026 c -0.068,0.194 -0.179,0.566 -0.2,1.067 -0.01,0.271 0.028,0.561 0.133,0.836 0.082,0.216 0.204,0.419 0.369,0.583 0.398,0.4 0.843,0.711 1.49,0.698 0.234,0.063 0.475,-0.075 0.539,-0.308 0.064,-0.234 -0.074,-0.476 -0.308,-0.539 -0.157,-0.103 -0.196,-0.262 -0.289,-0.399 -0.106,-0.155 -0.09,-0.344 -0.153,-0.518 -0.047,-0.127 -0.098,-0.251 -0.151,-0.371 -0.274,-0.616 -0.513,-1.12 -0.513,-1.12 0.014,-0.242 -0.17,-0.45 -0.412,-0.464 -0.242,-0.015 -0.45,0.17 -0.464,0.412 l 0.438,0.465 c 0,0 -0.313,-0.227 -0.468,-0.368 z"
   id="path1452" />

        </g>

        <g
   transform="matrix(0.5,0,0,0.5,-39.6705,-71)"
   id="g1458">
            <path
   d="m 24.764,64.049 v -0.003 c 0.001,-0.05 0.021,-0.094 0.004,-0.095 -0.146,-0.007 -0.105,0.04 -0.004,0.098 -0.005,0.176 -0.04,0.499 -0.006,0.934 0.017,0.212 0.038,0.438 0.109,0.657 0.073,0.22 0.192,0.412 0.302,0.596 0.224,0.373 0.432,0.624 0.535,0.764 0.252,0.342 0.483,0.39 0.483,0.39 -0.345,-0.075 -0.098,0.052 0.133,-0.021 0.231,-0.074 0.359,-0.321 0.285,-0.551 l -0.003,0.005 c 0.005,-0.035 0.007,-0.072 0.008,-0.111 0.003,-0.174 0.028,-0.499 -0.005,-0.933 -0.016,-0.213 -0.03,-0.439 -0.098,-0.661 -0.068,-0.22 -0.182,-0.416 -0.291,-0.599 -0.224,-0.377 -0.44,-0.621 -0.545,-0.761 -0.141,-0.188 -0.262,-0.067 -0.348,0.102 0.116,-0.457 -0.082,-0.53 -0.269,-0.471 -0.231,0.074 -0.359,0.321 -0.285,0.552 l 0.418,0.306 c 0,0 -0.276,-0.112 -0.423,-0.198 z"
   id="path1456" />

        </g>

        <g
   transform="matrix(0.5,0,0,0.5,-39.6705,-71)"
   id="g1462">
            <path
   d="m 19.649,68.426 c 0,0 0.04,0.52 0.22,1.213 0.064,0.246 0.136,0.508 0.257,0.755 0.121,0.248 0.286,0.464 0.439,0.668 0.428,0.57 0.798,0.936 0.798,0.936 0.105,0.218 0.367,0.31 0.586,0.205 0.218,-0.104 0.31,-0.367 0.205,-0.585 0,0 -0.054,-0.518 -0.231,-1.208 C 21.86,70.163 21.794,69.899 21.677,69.65 21.56,69.401 21.4,69.18 21.248,68.977 20.82,68.403 20.44,68.046 20.44,68.046 c -0.105,-0.218 -0.367,-0.31 -0.586,-0.205 -0.218,0.104 -0.31,0.367 -0.205,0.585 z"
   id="path1460" />

        </g>

        <g
   transform="matrix(0.5,0,0,0.5,-39.6705,-71)"
   id="g1466">
            <path
   d="m 22.5,66.27 c 0,0 0.02,0.513 0.173,1.203 0.054,0.245 0.116,0.506 0.227,0.753 0.111,0.248 0.267,0.465 0.412,0.671 0.405,0.574 0.759,0.945 0.759,0.945 0.098,0.221 0.357,0.322 0.579,0.225 0.221,-0.098 0.322,-0.357 0.225,-0.579 0,0 -0.034,-0.511 -0.184,-1.198 -0.054,-0.246 -0.109,-0.508 -0.217,-0.757 -0.107,-0.249 -0.257,-0.471 -0.401,-0.676 -0.405,-0.579 -0.77,-0.94 -0.77,-0.94 -0.097,-0.222 -0.357,-0.323 -0.578,-0.225 -0.222,0.097 -0.323,0.356 -0.225,0.578 z"
   id="path1464" />

        </g>

    </g>
  </g>
</svg>
