<svg xmlns="http://www.w3.org/2000/svg" xmlns:xlink="http://www.w3.org/1999/xlink" height="184" width="160"><defs><g id="l" transform="translate(.5)"><use height="35.8" transform="translate(6.35)" width="34.35" xlink:href="#a"/><use height="31.7" transform="translate(-.5 23.7)" width="47.3" xlink:href="#b"/></g><g id="a"><use height="35.8" width="34.35" xlink:href="#c"/><use height="6.45" transform="translate(5.35 16.65)" width="5" xlink:href="#d"/><use height="5.95" transform="translate(18.25 17.2)" width="7.3" xlink:href="#e"/><use height="3.1" transform="translate(14.1 12.45)" width="15.65" xlink:href="#f"/></g><g id="c"><path d="M27.2 9.3l.05.1-1.05.5-3.3-7.35-3.3 7.35-.85-.4-.2-.1L22.9 0l4.3 9.3m-15.3.2l.05.1-.05.05-1 .45-3.3-7.35v.1L4.3 10.1l-1.05-.5L7.6.2l4.3 9.3" fill-rule="evenodd"/><path d="M18.75 9.5l.85.4 3.3-7.35 3.3 7.35 1.05-.5-.05-.1 2.9 2.8 1.15 1.1-.4.4.1.1q2.1 2.05 2.35 4.55v.6q0 1.65-.8 3.1l-.25.45-1.4 1.7.1.1-.3.3-3.25.9v3.4h-4.95l-7.2 7-7.85-7h-.15l-1.9-3.1-2.2-.8.4-.4-1-1.1-.55-.8q-.9-1.5-.95-3.2v-.15l.1-1q.35-2.3 2.4-4.25l-.75-.75 1.5-3.15 3.3-7.25 3.25 7.3 1.05-.5.05-.05-.05-.1.6-.25V9.1l.05.1q.2-.05.35-.15h4.7l1.15.55v-.1m11.35 2.6l1.15 1.1-1.15-1.1M18.55 9.8h.05l.05-.05h-.2l.1.05m-15.2-.45l-.05.15v-.15h.05" fill="#fff" fill-rule="evenodd"/><path d="M2.8 13.25l.75.75q-2.05 1.95-2.4 4.25l-.1 1v.15q.05 1.7.95 3.2l.55.8 1 1.1-.4.4-.35.3-.4-.35-.25-.3-.35-.4Q.05 22.05 0 19.4v-.15l.1-1q.3-2.8 2.7-5M30.95 24.2l-.1-.1 1.4-1.7.25-.45q.8-1.45.8-3.1v-.6q-.25-2.5-2.35-4.55l-.1-.1.4-.4.3-.35q2.55 2.35 2.8 5.4v.6q0 1.9-.9 3.55l-1.9 2.4-.6-.6" fill="#333" fill-rule="evenodd"/><path d="M31.25 13.2l-1.15-1.1" fill="none" stroke="#333" stroke-linecap="round" stroke-linejoin="round"/></g><g id="f" transform="translate(.8 -.15)"><use height="3.1" transform="matrix(1.005 0 0 1 -.804 .15)" width="4.65" xlink:href="#g"/><use height="3.1" transform="matrix(1.005 0 0 1 10.196 .15)" width="4.65" xlink:href="#g"/></g><g id="k"><path d="M40.95 10.35l5.35 14L44.5 26l-.75-1.3q-1.05.95-2.4 1.7l.45 1.35-2.25 1.1-.15-.35-.2-1.1-2.85.8.2 1.35.1.35-.4.1-.3.05-.6.1-.45-1.6v-.05l-.1-.35-.1-.45-.1-.35v-.15l-.05-.1-.05-.15v-.1l-.2-.75-.35-1.45-.65-2.95-.05.05.05-.1v-.05l.05-.05v-.9l-.05-.1v-.1l-.05-.05h-.05l-.1-.1h-.05l-.35-.05.1-.2V20l.15-.3v-.15l.1-.5-.05-.3v-.1.1l-.5-.55-.05-.45v-.15l-.05-.1v-.2l-.05-.1v-.6l.15-.2.25-.3.05-.1v-.6l-.1-.1V15v.25l-.1-.1-.15-.1.05.15-4.65.6h-1.5l-7.6-.6v-1.7q-.05-1.8 4.65-4.25-4.7 2.45-4.65 4.25v1.7l-.25-.05.05.05.2.25.1.25h-.1v.15l-.05.05v.05l-.05.05-.2.35-.1.65.2.9.15 2.1.85 11v.5h-.5l-.3-.05h-.3l-.2-.05-3.55-.05-.65-.25 1.75.1h.1q-.05-.85-.6-1.65h-.05l-.95-.05-1.8-.2-.55 1.05-.65-.05-.1.35-.65-.15-1.65-.6.7-1.4q-1.05-.45-1.85-1.1-.75.75-1 1.3l-1.25-.95.15-.25-.1-.05-.85-.65 1.2-.9-1.55-1.3-.3-.25-1.15.95-.5-.5-.3-.25-.05-.05-.8-.85.15-.25.9-.75-1.45-1.9-.25-.1q2.2-5.7 5.1-11.1l2.35.35h.05l4.1.7h.3L7.45 6.4l.2-.35 1.4-2.3 1.25-1.9v-.1.1h.55l2.4 1.5 3.6 1.85q5 2.95 6.55 4.05V9.2q5-3 7.45-4.2l6.2-3.45v.25l.25.1.35.1v.05l2.15 5.4-1.5.7q-.1 0-.15.1L38 8.3q-1.2.6-3 1.55 0 .9 4.3.95 1.4 0 1.65-.45m-3.9-8.55l.05.05-.05-.05M32.8 16.45v-.05l-.05-.3.05.3v.05l.2 2.2v-1.5l-.2-.7m.4 3.95l-.15-1.35.15 1.35m.1 1.3v-.05.05M10.95 4.4l.25-.55-.25.5v.05M7.9 10.7h-.05.05m.15-.45v.15-.15M17.9 8.5l.55 7.85-.55-7.85M19.55 31l-.55.05-2.05.15H15.9h1.05l2.05-.15.55-.05" fill="#fff" fill-rule="evenodd" transform="translate(.5)"/><path d="M44.5 26l-2 1.4-.2.1-.2.1-.3.15-.45-1.35q1.35-.75 2.4-1.7l.75 1.3m-4.95 2.85l-.55.25-.25.1h-.05l-2.05.7-.1-.35-.2-1.35 2.85-.8.2 1.1.15.35M8.9 29.9h-.05l-.5-.2-.45-.3-1.05-.6-.1-.1q.25-.55 1-1.3.8.65 1.85 1.1l-.7 1.4m-7.65-6.25L0 22.25v-.05l.4-1.1.2-.45.25.1 1.45 1.9-.9.75-.15.25M2.9 25.3l1.15-.95.3.25 1.55 1.3-1.2.9-1.8-1.5m9.05 5.05l.55-1.05 1.8.2.95.05h.05q.55.8.6 1.65h-.1l-1.75-.1-.45-.15-.4-.1-.7-.15v-.05l-.05-.05v-.05h-.05v-.05l-.1-.05-.25-.1h-.1" fill="#a70303" fill-rule="evenodd" transform="translate(.5)"/><path d="M10.85 1.85h.2l-.15-.1-.2-.1-.3-.1-.1-.05q8.5 2.25 13.15 6.3 2-1.95 5.6-3.75 6.8-3.4 7.8-3.4l.2.65v.25L30.85 5Q28.4 6.2 23.4 9.2v.05q-1.55-1.1-6.55-4.05l-3.6-1.85-2.4-1.5m12.2 6.35l.4-.4-.4.4m9.9 22.8h-.05v-.1l.05.1" fill="#d70404" fill-rule="evenodd" transform="translate(.5)"/><path d="M37.3 1.9l.15-.05.1.05.1.1-.35-.1m-4.6 13.35V15v.3-.05m.1 1.2l.2.7v1.5l-.2-2.2M10.95 4.4v-.05l.25-.5-.25.55m-2.9 5.85v.15-.15" fill="#6a6a6a" fill-rule="evenodd" transform="translate(.5)"/><path d="M32.8 20.05l-6.15.6-5.85-.25-1.65-.3-.05-.4-.05-.65q-.2-.4-.05-.65l-.2-.15-.35-1.9.2-.35.05-.05v-.05l.05-.05v-.15h.1l-.1-.25-.2-.25-.05-.05.25.05 7.6.6h1.5l4.65-.6-.05-.15.15.1.1.1.05.85-.25.3-.15.2v.6l.05.1v.2l.05.1v.15l.05.45.5.55.05.3-.1.5v.15l-.15.3v.05M5.7 9.55l.9-1.65.1-.1v-.05l.05-.05.05-.1v-.25h.05l.05-.1V7.2l.1-.05.45-.75 5.05 4.2h-.3l-4.1-.7h-.05L5.7 9.55m34.1-2.1l.2.45.15.25v.1l.05.1.75 2q-.25.45-1.65.45-4.3-.05-4.3-.95 1.8-.95 3-1.55l.15-.05q.05-.1.15-.1l1.5-.7m-19 12.95q1.1-2.6 2.85-3.2l4.2-1.4-4.2 1.4q-1.75.6-2.85 3.2" fill="#e11e1e" fill-rule="evenodd" transform="translate(.5)"/><path d="M32.7 15.3l.1.1v.6l-.05.1-.05-.85v.05m-14.15 2.6l-.2-.9.1-.65.1 1.55" fill="#df0202" fill-rule="evenodd" transform="translate(.5)"/><path d="M33.25 21.75v-.9l-.05-.45h.05l.05.05v.1l.05.1v.9l-.05.05v.05l-.05-.1.05.1-.05.1" fill="#333" fill-rule="evenodd" transform="translate(.5)"/><path d="M7.75.1l-.1-.1h.15l-.05.1" fill-rule="evenodd" transform="translate(.5)"/><path d="M19.15 20.1l-.45-.1-.15-2.1-.1-1.55.35 1.9.2.15q-.15.25.05.65l.05.65.05.4" fill="#b40303" fill-rule="evenodd" transform="translate(.5)"/><path d="M40.95 10.35l5.35 14L44.5 26l-2 1.4-.2.1-.2.1-.3.15-2.25 1.1-.55.25-.25.1h-.05l-2.05.7-.4.1-.3.05-.6.1-.45-1.6v-.05l-.1-.35-.1-.45-.1-.35v-.15l-.05-.1-.05-.15v-.1l-.2-.75-.35-1.45-.65-2.95m-.05.05v-.9l-.05-.45m-.4-.35l-6.15.6-5.85-.25-1.65-.3-.45-.1.85 11m-5.5.1l-.5-.05-2.35-.4-.65-.15-1.65-.6h-.05l-.5-.2-.45-.3-1.05-.6-.1-.1-1.25-.95-2.6-2.45-.5-.5-.3-.25m-.05-.05l-.8-.85L0 22.25m0-.05l.4-1.1.2-.45q2.2-5.7 5.1-11.1M7.45 6.4l.2-.35 1.4-2.3 1.25-1.9m0-.1v.1m27.35.2l2.15 5.4m1.15 2.9q-.25.45-1.65.45-4.3-.05-4.3-.95 1.8-.95 3-1.55l.15-.05q.05-.1.15-.1l1.5-.7m-2.75-5.9L30.85 5Q28.4 6.2 23.4 9.2v.05q-4.7 2.45-4.65 4.25v1.7l7.6.6h1.5l4.65-.6m.2.05V15m.05 1.1l.05.3v.05l.2 2.2v.1l.05.3.15 1.35m-5.35-4.6l-4.2 1.4q-1.75.6-2.85 3.2m11.9-5.15l.05.85M23.4 9.25q-1.55-1.1-6.55-4.05l-3.6-1.85-2.4-1.5M7.45 6.4l5.05 4.2h-.3l-4.1-.7h-.05L5.7 9.55m12.8 5.6l.25.05m-.3 1.15L17.9 8.5m.55 7.85l.1 1.55.15 2.1m-4.65 11.1l1.75.1h1.15l2.05-.15.55-.05" fill="none" stroke="#2e2e2e" stroke-linecap="round" stroke-linejoin="round" transform="translate(.5)"/><path d="M10.8 1.5q8.5 2.25 13.15 6.3 2-1.95 5.6-3.75 6.8-3.4 7.8-3.4l.2.65m-13.6 6.5l-.4.4" fill="none" stroke="#8b0101" stroke-linecap="round" stroke-linejoin="round" stroke-width=".5"/><path d="M33.3 21.65v.05m0-.05l-.05-.1" fill="none" stroke="#000" stroke-linecap="round" stroke-linejoin="round" transform="translate(.5)"/></g><g id="m"><path d="M11.45-26.3h.05l.05.05v.1l.05.1v.9l-.05.05v.05l-.05.1v-.9l-.05-.45m.1 1.25l-.05-.1.05.1" fill="#333" fill-rule="evenodd" transform="translate(16.95 27.45)"/><path d="M11.55-25.05v.05l-.05.05.05-.1M-7.7-15.6l1.75.1h1.15l2.05-.15.55-.05v.5h-.5l-.3-.05h-.3l-.2-.05-3.55-.05-.65-.25m18.75-11.05v-.05l.15-.3v-.15l.1-.3.15 1.15-.1-.1h-.05l-.35-.05.1-.2m2.05 21.9l.45-.5 1 1.05q.5.45.55 1.1 0 .75-.8 1.55h-.05v.05l-.6.45-.85.25q-.55-.05-1-.4.3-1.8.55-2.45l.75-1.1" fill="#fff" fill-rule="evenodd" transform="translate(16.95 27.45)"/><path d="M11.55-25l.65 2.95.35 1.45.2.75v.1l.05.15.05.1v.15l.1.35.1.45.1.35v.05l.45 1.6.95 3.3 1.35 4.5.15.6 1.2 4.85-.1.2v-.25q0-1.7-1.8-2.9l-.55.1-.15-.15-.3.25-.8.8-.15-.1v-.35l.25.2v-.45L13.3-7.1v-.15l-.05-.45.1.1-2.15-11.85-.05 3.65-.05 5.7h-.05v8.2l.6.6.15.1q-.3.9-.85 1.3l-.15-.15-1.6.3-1.5.2-.05-1.1-.2-2.75-.05-.05v-1.1q-.15-.9-.15-1.9H7.2L7-8.95l-.35.1-.55-6.1-.1 9.3h-.05v1.15l.05.05-.15 3.8L5.8.6l-.85.05h-.3L2.9.7 2.8-.65 1.9-17.3l-.45 4.1L.5-.65.45.7h-1.9L-3 .65v-1.3l.35-11.75-.3.05q.05-2.3-.05-2.85v-.05l.3.05h.5v-.5l.1-1.3v-.15l.05-.25v-.05l.05-.1v-.05l.05-.05v-.2l.1-.25v-.65l-.1-.1-.25-1.2-.05-1.6V-22l-.15-.7-.15-.55.2-.55-.05-.1v-.35l.05-.1v-.05l-.05-.1v-.15l.05-.15q-.25 0-.35-.15l-.05-.15v-.35l.05-.05.1-.2v-.1l.05-.15V-26h.05v-.2l.1-.05-.2-.35 1.65.3 5.85.25 6.15-.6-.1.2.35.05h.05l.1.1.05.45v.9l.05-.05m-22.75 8.8l.65.15 2.35.4.5.05.65.25 3.55.05.2.05-.25.65Q-4.05-7.8-5.7-.65l-.15.65Q-6.95-.2-8-.65l-1.95-1.2q-2.45-1.9-2.45-3.35-.05-1.1 1.1-9.75l.05-.5v-.45l.05-.3" fill="#e11e1e" fill-rule="evenodd" transform="translate(16.95 27.45)"/><path d="M7.7.45L7.35.5l-.1-1.15L7-3.8l.1.05L7-5.4v-.55l-.15-.1-.2-2.8.35-.1.2 2.5h.05q0 1 .15 1.9v1.1l.05.05.2 2.75.05 1.1M2.9.7h-.65l-.1-1.35-.7-12.55.45-4.1.9 16.65L2.9.7M-3 .65L-3.75.6l.1-1.25q.6-8.1.7-11.7l.3-.05L-3-.65v1.3M11.15-15.8l.05-3.65L13.35-7.6l-.1-.1.05.45v.15l.35 1.15v.45l-.25-.2v.35l.15.1-.45.5-.2-1.1h.05l-.05-.05v-.25q-.35-1.25-.4-1.95v-.4l-1.35-7.3" fill="#7d0202" fill-rule="evenodd" transform="translate(16.95 27.45)"/><path d="M7.35.5L5.8.6l.05-1.25.15-3.8-.05-.05v-1.15H6l.1-9.3.55 6.1.2 2.8.15.1v2.15l.25 3.15.1 1.15m-5.1.2H.45L.5-.65l.95-12.55.7 12.55.1 1.35m-6-.1L-5.9.5-7 .4-8.1.3h-.3l-.35-.1-4.9-.85-2.55-.95-.25-.1.8-4.45v-.05l.05-.1 2.2-10.7.5.2h.05l1.65.6-.05.3v.45l-.05.5q-1.15 8.65-1.1 9.75 0 1.45 2.45 3.35L-8-.65q1.05.45 2.15.65l.15-.65Q-4.05-7.8-3.55-14.6l.25-.65h.3v.05q.1.55.05 2.85-.1 3.6-.7 11.7L-3.75.6m14.9-16.4l1.35 7.3v.4q.05.7.4 1.95v.3l.2 1.1-.75 1.1Q12.1-3 11.8-1.2l-.15-.1-.6-.6v-8.2h.05l.05-5.7M6.3-4.65v.15l.1.05-.1-.2m6.1-3.85h.05l-.1-.1.05.1" fill="#d70404" fill-rule="evenodd" transform="translate(16.95 27.45)"/><path d="M12.9-5.9l.05.05h-.05v-.05M7-5.4l.1 1.65L7-3.8v-1.6m-.7.75l.1.2-.1-.05v-.15m6.1-3.85l-.05-.1.1.1h-.05m1.85 7v-.05h.05l-.05.05" fill="#fc1f1f" fill-rule="evenodd" transform="translate(16.95 27.45)"/><path d="M14.8-6.15l.9.9q.85.85.85 2 0 .7-.4 1.4l-.9 1.2Q13.9.65 12.65.65h-.4q-.7-.1-1.3-.55.55-.4.85-1.3.45.35 1 .4l.85-.25.6-.45.05-.05q.8-.8.8-1.55-.05-.65-.55-1.1l-1-1.05.8-.8.3-.25.15.15" fill-rule="evenodd" transform="translate(16.95 27.45)"/><path d="M-2.2-15.7l-.85-11 .45.1.2.35-.1.05v.2h-.05v.05l-.05.15v.1l-.1.2-.05.05v.35l.05.15q.1.15.35.15l-.05.15v.15l.05.1v.05l-.05.1v.35l.05.1-.2.55.15.55.15.7v.35l.05 1.6.25 1.2.1.1v.65l-.1.25v.2l-.05.05v.05l-.05.1v.05l-.05.25v.15l-.1 1.3" fill="#b40303" fill-rule="evenodd" transform="translate(16.95 27.45)"/><path d="M11.55-25.05v.05m-.05-.15l.05.1" fill="none" stroke="#000" stroke-linecap="round" stroke-linejoin="round" transform="translate(16.95 27.45)"/><path d="M11.55-25l.65 2.95.35 1.45.2.75v.1l.05.15.05.1v.15l.1.35.1.45.1.35v.05l.45 1.6.95 3.3 1.35 4.5.15.6 1.2 4.85-.1.2v-.25q0-1.7-1.8-2.9l-.55.1M10.95.1L9.2.25l-1.5.2-.35.05L5.8.6l-.85.05h-.3L2.9.7h-4.35L-3 .65-3.75.6-5.9.5-7 .4-8.1.3h-.3l-.35-.1-4.9-.85-2.55-.95-.25-.1.8-4.45v-.05l.05-.1 2.2-10.7.5.2h.05l1.65.6.65.15 2.35.4.5.05 1.75.1h1.15l2.05-.15.55-.05-.85-11 .45.1 1.65.3 5.85.25 6.15-.6m.45 1.7v-.9l-.05-.45M13.1-4.75l.45-.5.8-.8.3-.25M11.8-1.2q-.3.9-.85 1.3m-.15-.15l-1.6.3m3.9-5l-.75 1.1Q12.1-3 11.8-1.2" fill="none" stroke="#2e2e2e" stroke-linecap="round" stroke-linejoin="round" transform="translate(16.95 27.45)"/></g><use height="6.45" width="5" xlink:href="#h" id="d"/><use height="6.45" width="5" xlink:href="#i" id="h"/><use height="3.1" transform="translate(1.1)" width="1.85" xlink:href="#j" id="g"/><use height="31.7" width="47.3" xlink:href="#k" id="b"/><path d="M2-1.7l-2 2 1.85 1.8M0 .3V.25v2.5M0 .3l-1.85 1.8M-2-1.7L0 .25V-2.7" fill="none" stroke="#fea5c0" stroke-linecap="round" stroke-linejoin="round" transform="translate(2.5 3.2)" id="i"/><path d="M25.05 17.2q.5 1.25.5 2.5 0 1.95-.95 2.85-.55.6-1.5.6-.8 0-1.25-.45l-.35-.55-.3.45q-.5.55-1.3.55-.75 0-1.15-.5-.5-.5-.5-1.6 0-1.9 1.65-3.85l.85.45q-1.6 1.85-1.6 3.4 0 .75.25 1l.5.2q.5 0 .8-.35l.55-.7v-1l.35-1.15q.3-.6.65-.6.45 0 .45.95l-.25 1.25-.35.75.3.55.7.25q.45 0 .75-.35.65-.6.65-2.15 0-1.2-.35-2.25l.9-.25" fill-rule="evenodd" transform="translate(-18.25 -17.2)" id="e"/><path d="M1.45.15h.7l-.9 1.4H2v1.7H.3v-1.6L1.45.15" fill-rule="evenodd" transform="translate(-.3 -.15)" id="j"/></defs><path d="M56.422 107.78l-5.332 30.469 17.072 2.763 16.135 1.044 11.231-.205 10.615-2.198 7.133-3.164 1.375-2.286-10.876-40.87-.511-5.357-29.284-.184 1.682 21.414-8.876.593z" fill="#e11e1e" fill-rule="evenodd"/><g transform="matrix(2 0 0 2 79.824 140.97)"><use height="55.4" transform="translate(-22.1 -70.5)" width="47.3" xlink:href="#l"/><use height="28.65" transform="translate(-16.95 -27.45)" width="34.7" xlink:href="#m"/></g></svg>