<svg height="184" width="160" xmlns="http://www.w3.org/2000/svg"><path d="m56.422 107.78-5.332 30.469 17.072 2.763 16.135 1.044 11.231-.205 10.615-2.198 7.133-3.164 1.375-2.286-10.876-40.87-.511-5.357-29.284-.184 1.682 21.414-8.876.593z" fill="#e11e1e" fill-rule="evenodd"/><path d="m74.436 88.286 3.3.6 11.7.5 6.5-.2 5.8-1-.2.4.7.1h.1l.2.2.1.9v1.8l.1-.1.5 2.5.8 3.4.7 2.9.4 1.5v.2l.1.3.1.2v.3l.2.7.2.9.2.7v.1l.9 3.2 1.9 6.6 2.7 9 2.7 10.9q-1.2 2.3-2.8 3.3l-2.2.8-.8.4-6.3-36.8-.1 7.3-.2 31.4-6.7 1.1-.1-2.3-1.3-16.5-.7.2-1.1-12.2-.5 28.5-.1 2.6h-2.3l-2.3.1h-1.2l1.7-1.4 1.8-2.4q.8-1.5.8-2.9 0-2.2-1.7-4l-2.1-2 .2-.1.3-.2-2.5-13.5-1-5.3-.7-3.7.2 8.2v.5q.2 6.6-.4 16.1l.2-.2-1.2 2.4q-1.3 3.1-2.3 8.4l-.2.1h-1.8l-3.1-.1v-2.6l.7-23.4-.6.1q.1-4.6-.1-5.7v-.1l.6.1h1v-1l.2-2.6v-.3l.1-.5v-.1l.1-.2v-.1l.1-.1v-.4l.2-.5v-1.3l-.2-.2-.5-2.4-.1-3.2v-.7l-.3-1.4-.3-1.1.4-1.1-.1-.2v-.7l.1-.2v-.1l-.1-.2v-.3l.1-.3-.7-.3-.1-.3v-.7l.1-.1.2-.4v-.2l.1-.3v-.1h.1v-.4l.2-.1-.4-.7m-17.2 20.8 1.3.3 4.7.8 1 .1 1.3.5 7.1.1.4.1-.5 1.3q-1 13.6-4.3 27.8l-.3 1.3q-2.2-.3-4.3-1.3l-3.9-2.4q-4.9-3.7-4.9-6.6-.1-2.2 2.2-19.5l.1-1v-.9l.1-.6" fill="#e11e1e" fill-rule="evenodd"/><path d="M102.536 88.886h.1l.1.1v.2l.1.2v1.8l-.1.1v.1l-.1-.2.1.2-.1.2v-1.8l-.1-.9" fill="#333" fill-rule="evenodd"/><path d="M102.736 91.386v.1l-.1.1.1-.2m-38.5 18.9 3.5.2h2.3l4.1-.3 1.1-.1v1h-1l-.6-.1h-.6l-.4-.1-7.1-.1-1.3-.5m21.1 20.3-.3.3-.9 1.7 1.6 1.6 1.1 2.2q0 1.6-1.6 3.1l-.1.1-1.2.9v.1l-1.7.4-1.6-.4-.4-.3q-.5 1.6-1.5 2.4 1-5.3 2.3-8.4l1.2-2.4q1.4-1.7 2.1-1.7l.9.2.1.2" fill="#fff" fill-rule="evenodd"/><path d="m108.336 139.386-1.4.5-5-30 .1-7.3 6.3 36.8m-13.3 3h-.7l-.2-2.3-1.2-16.3.7-.2 1.3 16.5.1 2.3m-21.4.3h-1.5l.2-2.6q1.2-16.1 1.4-23.3l.6-.1-.7 23.4v2.6m8.8-27.2-.2-8.2.7 3.7 1 5.3 2.5 13.5-.3.2-.2.1v.1l-.6.3v.1l-.1-.2-.1-.7-.6-3.3-2-10.7-.1-.2m2.9 15-.1-.1.1.1m-.2 9.1.1-.1v.1h-.1" fill="#7d0202" fill-rule="evenodd"/><path d="m106.936 139.886-.8.2-4.4 1.2.2-31.4 5 30m-12.6 2.5-3.1.3.1-2.6.5-28.5 1.1 12.2 1.2 16.3.2 2.3m-22.2.3-4.3-.3-2.2-.1-2.2-.2-.6-.1-.7-.1-9.8-1.8q-3.1-.8-5.1-1.9l-.5-.2 1.6-8.8v-.1l.1-.2 4.4-21.4 1 .4h.1q1.5.7 3.3 1.2l-.1.6v.9l-.1 1q-2.3 17.3-2.2 19.5 0 2.9 4.9 6.6l3.9 2.4q2.1 1 4.3 1.3l.3-1.3q3.3-14.2 4.3-27.8l.5-1.3h.6v.1q.2 1.1.1 5.7-.2 7.2-1.4 23.3l-.2 2.6m10.3-27.2.1.2 2 10.7.6 3.3.1.7-.9-.2q-.7 0-2.1 1.7l.9-1.1-1.1 1.3q.6-9.5.4-16.1v-.5" fill="#d70404" fill-rule="evenodd"/><path d="m86.636 142.786-4.7 1.2h-.8l-2.2-.9-.2-.2-.1-.1h-.1l.2-.1v.2-.2q1-.8 1.5-2.4l.4.3 1.6.4 1.7-.4v-.1l1.2-.9h.1v-.1q1.6-1.5 1.6-3.1l-1.1-2.2-1.6-1.6.9-1.7.3-.3h.1l.5-.4v-.1l2.1 2q1.7 1.8 1.7 4 0 1.4-.8 2.9l-1.8 2.4-1.7 1.4h1.2" fill-rule="evenodd"/><path d="m85.336 130.486.6-.3-.5.4h-.1v-.1l.1.1-.1-.1m-2.2.3-.9 1.1-.2.2 1.1-1.3" fill="#fc1f1f" fill-rule="evenodd"/><path d="m75.236 110.086-1.7-22 .9.2.4.7-.2.1v.4h-.1v.1l-.1.3v.2l-.2.4-.1.1v.7l.1.3.7.3-.1.3v.3l.1.2v.1l-.1.2v.7l.1.2-.4 1.1.3 1.1.3 1.4v.7l.1 3.2.5 2.4.2.2v1.3l-.2.5v.4l-.1.1v.1l-.1.2v.1l-.1.5v.3l-.2 2.6" fill="#b40303" fill-rule="evenodd"/><path d="m74.436 88.286 3.3.6 11.7.5 6.5-.2 5.8-1m1 3.3.5 2.5.8 3.4.7 2.9.4 1.5v.2l.1.3.1.2v.3l.2.7.2.9.2.7v.1l.9 3.2 1.9 6.6 2.7 9 2.7 10.9q-1.2 2.3-2.8 3.3l-2.2.8-.8.4-1.4.5-.8.2-4.4 1.2-6.7 1.1h-.7l-3.1.3h-2.3l-2.3.1m-8 0h-1.9l-3.1-.1h-1.5l-4.3-.3-2.2-.1-2.2-.2-.6-.1-.7-.1-9.8-1.8q-3.1-.8-5.1-1.9l-.5-.2 1.6-8.8v-.1l.1-.2 4.4-21.4 1 .4h.1q1.5.7 3.3 1.2l1.3.3 4.7.8 1 .1 3.5.2h2.3l4.1-.3 1.1-.1-1.7-22 .9.2m28.2 2.9v.4m-.1-2.7.1.9v1.4m-17.2 51.6h1.2m-1.4-12.4.1.1m.1.1-.1-.1m-.1-.1-.9-.2q-.7 0-2.1 1.7l-1.2 2.4q-1.3 3.1-2.3 8.4m3.5-10.8.9-1.1m-1.1 1.3.2-.2m-3.5 11v-.2" fill="none" stroke="#2e2e2e" stroke-linecap="round" stroke-linejoin="round" stroke-width="2"/><path d="M102.736 91.386v.1m0-.1-.1-.2" fill="none" stroke="#000" stroke-linecap="round" stroke-linejoin="round" stroke-width="2"/><path d="m103.736 18.586.1.2-2.1 1-6.6-14.7-6.6 14.7-1.7-.8-.4-.2 8.7-18.8 8.6 18.6m-30.6.4.1.2-.1.1-2 .9-6.6-14.7v.2l-6.6 14.5-2.1-1 8.7-18.8 8.6 18.6" fill-rule="evenodd"/><path d="m86.836 18.986 1.7.8 6.6-14.7 6.6 14.7 2.1-1-.1-.2 5.8 5.6 2.3 2.2-.8.8.2.2q4.2 4.1 4.7 9.1v1.2q0 3.3-1.6 6.2l-.5.9-2.8 3.4.2.2-.6.6-6.5 1.8v6.8h-9.9l-14.4 14-15.7-14h-.3l-3.8-6.2-4.4-1.6.8-.8-2-2.2-1.1-1.6q-1.8-3-1.9-6.4v-.3l.2-2q.7-4.6 4.8-8.5l-1.5-1.5 3-6.3 6.6-14.5 6.5 14.6 2.1-1 .1-.1-.1-.2 1.2-.5v-.3l.1.2q.4-.1.7-.3h9.4l2.3 1.1v-.2m22.7 5.2 2.3 2.2-2.3-2.2m-23.1-4.6h.1l.1-.1h-.4l.2.1m-30.4-.9-.1.3v-.3h.1" fill="#fff" fill-rule="evenodd"/><path d="m54.936 26.486 1.5 1.5q-4.1 3.9-4.8 8.5l-.2 2v.3q.1 3.4 1.9 6.4l1.1 1.6 2 2.2-.8.8-.7.6-.8-.7-.5-.6-.7-.8q-3.5-4.2-3.6-9.5v-.3l.2-2q.6-5.6 5.4-10m56.3 21.9-.2-.2 2.8-3.4.5-.9q1.6-2.9 1.6-6.2v-1.2q-.5-5-4.7-9.1l-.2-.2.8-.8.6-.7q5.1 4.7 5.6 10.8v1.2q0 3.8-1.8 7.1l-3.8 4.8-1.2-1.2" fill="#333" fill-rule="evenodd"/><path d="m111.836 26.386-2.3-2.2" fill="none" stroke="#333" stroke-linecap="round" stroke-linejoin="round" stroke-width="2"/><path d="m69.036 36.286-4 4 3.7 3.6m-3.7-3.6v-.1 5m0-4.9-3.7 3.6m-.3-7.6 4 3.9v-5.9" fill="none" stroke="#fea5c0" stroke-linecap="round" stroke-linejoin="round" stroke-width="2"/><path d="M99.436 34.386q1 2.5 1 5 0 3.9-1.9 5.7-1.1 1.2-3 1.2-1.6 0-2.5-.9l-.7-1.1-.6.9q-1 1.1-2.6 1.1-1.5 0-2.3-1-1-1-1-3.2 0-3.8 3.3-7.7l1.7.9q-3.2 3.7-3.2 6.8 0 1.5.5 2l1 .4q1 0 1.6-.7l1.1-1.4v-2l.7-2.3q.6-1.2 1.3-1.2.9 0 .9 1.9l-.5 2.5-.7 1.5.6 1.1 1.4.5q.9 0 1.5-.7 1.3-1.2 1.3-4.3 0-2.4-.7-4.5l1.8-.5" fill-rule="evenodd"/><path d="m118.536 68.086 10.7 28-3.6 3.3-1.5-2.6q-2.1 1.9-4.8 3.4l.9 2.7-4.5 2.2-.3-.7-.4-2.2-5.7 1.6.4 2.7.2.7-.8.2-.6.1-1.2.2-.9-3.2v-.1l-.2-.7-.2-.9-.2-.7v-.3l-.1-.2-.1-.3v-.2l-.4-1.5-.7-2.9-1.3-5.9-.1.1.1-.2v-.1l.1-.1v-1.8l-.1-.2v-.2l-.1-.1h-.1l-.2-.2h-.1l-.7-.1.2-.4v-.1l.3-.6v-.3l.2-1-.1-.6v-.2.2l-1-1.1-.1-.9v-.3l-.1-.2v-.4l-.1-.2v-1.2l.3-.4.5-.6.1-.2v-1.2l-.2-.2v-.6.5l-.2-.2-.3-.2.1.3-9.3 1.2h-3l-15.2-1.2v-3.4q-.1-3.6 9.3-8.5-9.4 4.9-9.3 8.5v3.4l-.5-.1.1.1.4.5.2.5h-.2v.3l-.1.1v.1l-.1.1-.4.7-.2 1.3.4 1.8.3 4.2 1.7 22v1h-1l-.6-.1h-.6l-.4-.1-7.1-.1-1.3-.5 3.5.2h.2q-.1-1.7-1.2-3.3h-.1l-1.9-.1-3.6-.4-1.1 2.1-1.3-.1-.2.7-1.3-.3-3.3-1.2 1.4-2.8q-2.1-.9-3.7-2.2-1.5 1.5-2 2.6l-2.5-1.9.3-.5-.2-.1-1.7-1.3 2.4-1.8-3.1-2.6-.6-.5-2.3 1.9-1-1-.6-.5-.1-.1-1.6-1.7.3-.5 1.8-1.5-2.9-3.8-.5-.2q4.4-11.4 10.2-22.2l4.7.7h.1l8.2 1.4h.6l-10.1-8.4.4-.7 2.8-4.6 2.5-3.8v-.2.2h1.1l4.8 3 7.2 3.7q10 5.9 13.1 8.1v-.1q10-6 14.9-8.4l12.4-6.9v.5l.5.2.7.2v.1l4.3 10.8-3 1.4q-.2 0-.3.2l-.3.1q-2.4 1.2-6 3.1 0 1.8 8.6 1.9 2.8 0 3.3-.9m-7.8-17.1.1.1-.1-.1m-8.5 29.3v-.1l-.1-.6.1.6v.1l.4 4.4v-3l-.4-1.4m.8 7.9-.3-2.7.3 2.7m.2 2.6v-.1.1m-44.7-34.6.5-1.1-.5 1v.1m-6.1 12.6h-.1.1m.3-.9v.3-.3m19.7-3.5 1.1 15.7-1.1-15.7m3.3 45-1.1.1-4.1.3h-2.1 2.1l4.1-.3 1.1-.1" fill="#fff" fill-rule="evenodd"/><path d="m125.636 99.386-4 2.8-.4.2-.4.2-.6.3-.9-2.7q2.7-1.5 4.8-3.4l1.5 2.6m-9.9 5.7-1.1.5-.5.2h-.1l-4.1 1.4-.2-.7-.4-2.7 5.7-1.6.4 2.2.3.7m-61.3 2.1h-.1l-1-.4-.9-.6-2.1-1.2-.2-.2q.5-1.1 2-2.6 1.6 1.3 3.7 2.2l-1.4 2.8m-15.3-12.5-2.5-2.8v-.1l.8-2.2.4-.9.5.2 2.9 3.8-1.8 1.5-.3.5m3.3 3.3 2.3-1.9.6.5 3.1 2.6-2.4 1.8-3.6-3m18.1 10.1 1.1-2.1 3.6.4 1.9.1h.1q1.1 1.6 1.2 3.3h-.2l-3.5-.2-.9-.3-.8-.2-1.4-.3v-.1l-.1-.1v-.1h-.1v-.1l-.2-.1-.5-.2h-.2" fill="#a70303" fill-rule="evenodd"/><path d="M58.336 51.086h.4l-.3-.2-.4-.2-.6-.2-.2-.1q17 4.5 26.3 12.6 4-3.9 11.2-7.5 13.6-6.8 15.6-6.8l.4 1.3v.5l-12.4 6.9q-4.9 2.4-14.9 8.4v.1q-3.1-2.2-13.1-8.1l-7.2-3.7-4.8-3m24.4 12.7.8-.8-.8.8m19.8 45.6h-.1v-.2l.1.2" fill="#d70404" fill-rule="evenodd"/><path d="m111.236 51.186.3-.1.2.1.2.2-.7-.2m-9.2 26.7v-.5.6-.1m.2 2.4.4 1.4v3l-.4-4.4m-43.7-24.1v-.1l.5-1-.5 1.1m-5.8 11.7v.3-.3" fill="#6a6a6a" fill-rule="evenodd"/><path d="m102.236 87.486-12.3 1.2-11.7-.5-3.3-.6-.1-.8-.1-1.3q-.4-.8-.1-1.3l-.4-.3-.7-3.8.4-.7.1-.1v-.1l.1-.1v-.3h.2l-.2-.5-.4-.5-.1-.1.5.1 15.2 1.2h3l9.3-1.2-.1-.3.3.2.2.2.1 1.7-.5.6-.3.4v1.2l.1.2v.4l.1.2v.3l.1.9 1 1.1.1.6-.2 1v.3l-.3.6v.1m-54.2-21 1.8-3.3.2-.2v-.1l.1-.1.1-.2v-.5h.1l.1-.2v-.1l.2-.1.9-1.5 10.1 8.4h-.6l-8.2-1.4h-.1l-4.7-.7m68.2-4.2.4.9.3.5v.2l.1.2 1.5 4q-.5.9-3.3.9-8.6-.1-8.6-1.9 3.6-1.9 6-3.1l.3-.1q.1-.2.3-.2l3-1.4m-38 25.9q2.2-5.2 5.7-6.4l8.4-2.8-8.4 2.8q-3.5 1.2-5.7 6.4" fill="#e11e1e" fill-rule="evenodd"/><path d="m102.036 77.986.2.2v1.2l-.1.2-.1-1.7v.1m-28.3 5.2-.4-1.8.2-1.3.2 3.1" fill="#df0202" fill-rule="evenodd"/><path d="M103.136 90.886v-1.8l-.1-.9h.1l.1.1v.2l.1.2v1.8l-.1.1v.1l-.1-.2.1.2-.1.2" fill="#333" fill-rule="evenodd"/><path d="m52.136 47.586-.2-.2h.3l-.1.2" fill-rule="evenodd"/><path d="m74.936 87.586-.9-.2-.3-4.2-.2-3.1.7 3.8.4.3q-.3.5.1 1.3l.1 1.3.1.8" fill="#b40303" fill-rule="evenodd"/><path d="m118.536 68.086 10.7 28-3.6 3.3-4 2.8-.4.2-.4.2-.6.3-4.5 2.2-1.1.5-.5.2h-.1l-4.1 1.4-.8.2-.6.1-1.2.2-.9-3.2v-.1l-.2-.7-.2-.9-.2-.7v-.3l-.1-.2-.1-.3v-.2l-.4-1.5-.7-2.9-1.3-5.9m-.1.1v-1.8l-.1-.9m-.8-.7-12.3 1.2-11.7-.5-3.3-.6-.9-.2 1.7 22m-11 .2-1-.1-4.7-.8-1.3-.3-3.3-1.2h-.1l-1-.4-.9-.6-2.1-1.2-.2-.2-2.5-1.9-5.2-4.9-1-1-.6-.5m-.1-.1-1.6-1.7-2.5-2.8m0-.1.8-2.2.4-.9q4.4-11.4 10.2-22.2m3.5-6.3.4-.7 2.8-4.6 2.5-3.8m0-.2v.2m54.7.4 4.3 10.8m2.3 5.8q-.5.9-3.3.9-8.6-.1-8.6-1.9 3.6-1.9 6-3.1l.3-.1q.1-.2.3-.2l3-1.4m-5.5-11.8-12.4 6.9q-4.9 2.4-14.9 8.4v.1q-9.4 4.9-9.3 8.5v3.4l15.2 1.2h3l9.3-1.2m.4.1v-.5m.1 2.2.1.6v.1l.4 4.4v.2l.1.6.3 2.7m-10.7-9.2-8.4 2.8q-3.5 1.2-5.7 6.4m23.8-10.3.1 1.7m-18.7-13.7q-3.1-2.2-13.1-8.1l-7.2-3.7-4.8-3m-6.8 9.1 10.1 8.4h-.6l-8.2-1.4h-.1l-4.7-.7m25.6 11.2.5.1m-.6 2.3-1.1-15.7m1.1 15.7.2 3.1.3 4.2m-9.3 22.2 3.5.2h2.3l4.1-.3 1.1-.1" fill="none" stroke="#2e2e2e" stroke-linecap="round" stroke-linejoin="round" stroke-width="2"/><path d="M57.236 50.386q17 4.5 26.3 12.6 4-3.9 11.2-7.5 13.6-6.8 15.6-6.8l.4 1.3m-27.2 13-.8.8" fill="none" stroke="#8b0101" stroke-linecap="round" stroke-linejoin="round"/><path d="M103.236 90.686v.1m0-.1-.1-.2" fill="none" stroke="#000" stroke-linecap="round" stroke-linejoin="round" stroke-width="2"/><path d="M104.058 24.896h1.4l-1.8 2.8h1.5v3.4h-3.4v-3.2l2.3-3m-22 0h1.4l-1.8 2.8h1.5v3.4h-3.4v-3.2l2.3-3" style="stroke-width:2" id="gikopoipoi_eyes_open" fill-rule="evenodd"/><path d="M101.058 27.696h6.3m-28.3 0h6.3" id="gikopoipoi_eyes_closed" style="display:none" fill="none" stroke="#000" stroke-linecap="round" stroke-linejoin="round" stroke-width="3"/></svg>