<svg height="184" width="160" xmlns:xlink="http://www.w3.org/1999/xlink" xmlns="http://www.w3.org/2000/svg"><defs><g id="a"><path d="m11.1-26.6-.1.2.35.05h.05l.1.1.05.45v.9l.05-.05v-.1l.05-.05v-.15h.05q.35 2.05 1.45 4.05l.2.4 1 1.45q.25.9-.3 1.55H14v.05l-.1.1-.1.25q-.65 1.4-.9 3.7l-.1 1.25-1.75-.2H6.4l.5-.4q.9-.9.9-2.75v-.15l.55.65h.15V-17l-.25-.4h.05l-2.7-3.8-.85-.9.55.9 2.35 3.25-.1.45-.3-.7-.35-.4q-.75-.75-1.95-.8h-1.7l-1.6 1.5-.05.05Q.4-16.3.2-14.75v1.45q-.05.75-.75.8l-1.2.05v-.2h-8.3l-1.25-.6-.15-.1.2-1.55.05-.5v-.45l.05-.3.65.15 2.35.4.5.05 1.75.1h1.15l2.05-.15.45-.05h.1v-.1l.05-.5.05-.7v-.15l.05-.25v-.05l.05-.1v-.05l.05-.05v-.2l.1-.25v-.65l-.1-.1-.25-1.2-.05-1.2v-.75l-.15-.7-.15-.55.2-.55-.05-.1v-.35l.05-.1v-.05l-.05-.1v-.15l.05-.15-.35-.15-.05-.15v-.35l.05-.05.1-.2v-.1l.05-.15v-.05h.05v-.2l.1-.05-.2-.35 1.65.3 5.85.25 6.15-.6m.55 12.9-.05.05.05.3v-.35" fill="#e11e1e" fill-rule="evenodd" transform="translate(13.95 27.15)"/><path d="M11.65-25.25v.15l-.05.05v.05l-.05.1v-.9l-.05-.45h.05l.05.05v.1l.05.1v.75" fill="#333" fill-rule="evenodd" transform="translate(13.95 27.15)"/><path d="M-2.15-15.75v.1h-.1l.1-.4v.3m2.35 2v-1q.2-1.55 1.4-3.1h3.2q.7 0 1.15.4.55.55.55 1.65l-.3 1.35-.05.05-.2.2q-.45.45-1.15.45H.2m12.7.05q.25-2.3.9-3.7l.1-.25.1-.1v-.05h.05l-.05.05.05-.05h3.55l.15.05v.05l.05-.1h.4q.7 0 1.15.4.55.55.55 1.65 0 1.05-.55 1.6-.45.45-1.15.45h-5.3m-1.2-11.55h-.05v-.3l.05.15v.15m-.1.25v.05l-.05.05.05-.1" fill="#fff" fill-rule="evenodd" transform="translate(13.95 27.15)"/><path d="m-1.75-12.45 1.2-.05q.7-.05.75-.8v-.45h4.6q.7 0 1.15-.45l.2-.2.05-.05.3-1.35q0-1.1-.55-1.65-.45-.4-1.15-.4H1.6l.05-.05 1.6-1.5h1.7q1.2.05 1.95.8l.35.4.3.7.25 1.55v.15q0 1.85-.9 2.75l-.5.4q-.65.4-1.45.4h-6.7v-.2m12.8-.2 1.75.2.1-1.25h5.3q.7 0 1.15-.45.55-.55.55-1.6 0-1.1-.55-1.65-.45-.4-1.15-.4h-4.15q.55-.65.3-1.55h3.9q1 0 1.75.55l.3.25q.9.9.9 2.8 0 1.85-.9 2.75-.6.6-1.45.75l-.5.05-6.7-.2-.6-.25" fill-rule="evenodd" transform="translate(13.95 27.15)"/><path d="M11.65-13.7v.35l-.05-.3.05-.05" fill="#7d0202" fill-rule="evenodd" transform="translate(13.95 27.15)"/><path d="M17.6-17.8h.2l-.05.05-.15-.05" fill="#a70303" fill-rule="evenodd" transform="translate(13.95 27.15)"/><path d="m7.55-17.5.1-.45L5.3-21.2l-.55-.9.85.9 2.7 3.8h-.05l.25.4v1.7h-.15l-.55-.65-.25-1.55" fill="#ae1717" fill-rule="evenodd" transform="translate(13.95 27.15)"/><path d="m-2.55-26.55.2.35-.1.05v.2h-.05v.05l-.05.15v.1l-.1.2-.05.05v.35l.05.15.35.15-.05.15v.15l.05.1v.05l-.05.1v.35l.05.1-.2.55.15.55.15.7v.75l.05 1.2.25 1.2.1.1v.65l-.1.25v.2l-.05.05v.05l-.05.1v.05l-.05.25v.15l-.05.7-.05.5v-.3L-3-26.65l.45.1m.45 10.3-.05.2.05-.2" fill="#b40303" fill-rule="evenodd" transform="translate(13.95 27.15)"/><path d="m-11.15-16.15-.05.3v.45l-.05.5-.2 1.55q-1.85-1.25-2-3.05l.1-.55.5.2h.05l1.65.6" fill="#d70404" fill-rule="evenodd" transform="translate(13.95 27.15)"/><path d="m11.1-26.6-6.15.6-5.85-.25-1.65-.3-.45-.1.85 10.6.05-.2m-.05.5v.1h-.1l-.45.05-2.05.15H-5.9l-1.75-.1-.5-.05-2.35-.4-.65-.15-1.65-.6h-.05l-.5-.2-.1.55q.15 1.8 2 3.05l.15.1 1.25.6h7.6m.7.2 1.2-.05q.7-.05.75-.8v-1.45q.2-1.55 1.4-3.1l.05-.05 1.6-1.5m3.15 6.75h4.65l1.75.2.1-1.25q.25-2.3.9-3.7l.1-.25.1-.1v-.05m.05 0q.55-.65.3-1.55l-1-1.45-.2-.4q-1.1-2-1.45-4.05m-.15-.55-.05-.45m.15.65v.05l.05.15v.15m2.3 7.5.05-.05m-15.8 5.35-1.4-.2m.9-3 .1-.4v.3" fill="none" stroke="#2e2e2e" stroke-linecap="round" stroke-linejoin="round" transform="translate(13.95 27.15)"/></g></defs><path d="m56.422 107.78 2.79 2.172 8.65 3.6 16.135 1.043 11.232-.205 10.615-2.198-2.152-3.372-1.852-2.81 1.935-12.678-.511-5.356-29.284-.184 1.682 21.414-8.876.593z" fill="#e11e1e" fill-rule="evenodd"/><use height="15.2" transform="matrix(2 0 0 2 51.944 86.696)" width="35.15" xlink:href="#a"/><path d="m103.744 18.596.1.2-2.1 1-6.6-14.7-6.6 14.7-1.7-.8-.4-.2 8.7-18.8 8.6 18.6m-30.6.4.1.2-.1.1-2 .9-6.6-14.7v.2l-6.6 14.5-2.1-1 8.7-18.8 8.6 18.6" fill-rule="evenodd"/><path d="m86.844 18.996 1.7.8 6.6-14.7 6.6 14.7 2.1-1-.1-.2 5.8 5.6 2.3 2.2-.8.8.2.2q4.2 4.1 4.7 9.1v1.2q0 3.3-1.6 6.2l-.5.9-2.8 3.4.2.2-.6.6-6.5 1.8v6.8h-9.9l-14.4 14-15.7-14h-.3l-3.8-6.2-4.4-1.6.8-.8-2-2.2-1.1-1.6q-1.8-3-1.9-6.4v-.3l.2-2q.7-4.6 4.8-8.5l-1.5-1.5 3-6.3 6.6-14.5 6.5 14.6 2.1-1 .1-.1-.1-.2 1.2-.5v-.3l.1.2q.4-.1.7-.3h9.4l2.3 1.1v-.2m22.7 5.2 2.3 2.2-2.3-2.2m-23.1-4.6h.1l.1-.1h-.4l.2.1m-30.4-.9-.1.3v-.3h.1" fill="#fff" fill-rule="evenodd"/><path d="m54.944 26.496 1.5 1.5q-4.1 3.9-4.8 8.5l-.2 2v.3q.1 3.4 1.9 6.4l1.1 1.6 2 2.2-.8.8-.7.6-.8-.7-.5-.6-.7-.8q-3.5-4.2-3.6-9.5v-.3l.2-2q.6-5.6 5.4-10m56.3 21.9-.2-.2 2.8-3.4.5-.9q1.6-2.9 1.6-6.2v-1.2q-.5-5-4.7-9.1l-.2-.2.8-.8.6-.7q5.1 4.7 5.6 10.8v1.2q0 3.8-1.8 7.1l-3.8 4.8-1.2-1.2" fill="#333" fill-rule="evenodd"/><path d="m111.844 26.396-2.3-2.2" fill="none" stroke="#333" stroke-linecap="round" stroke-linejoin="round" stroke-width="2"/><path d="m69.044 36.296-4 4 3.7 3.6m-3.7-3.6v-.1 5m0-4.9-3.7 3.6m-.3-7.6 4 3.9v-5.9" fill="none" stroke="#fea5c0" stroke-linecap="round" stroke-linejoin="round" stroke-width="2"/><path d="M99.444 34.396q1 2.5 1 5 0 3.9-1.9 5.7-1.1 1.2-3 1.2-1.6 0-2.5-.9l-.7-1.1-.6.9q-1 1.1-2.6 1.1-1.5 0-2.3-1-1-1-1-3.2 0-3.8 3.3-7.7l1.7.9q-3.2 3.7-3.2 6.8 0 1.5.5 2l1 .4q1 0 1.6-.7l1.1-1.4v-2l.7-2.3q.6-1.2 1.3-1.2.9 0 .9 1.9l-.5 2.5-.7 1.5.6 1.1 1.4.5q.9 0 1.5-.7 1.3-1.2 1.3-4.3 0-2.4-.7-4.5l1.8-.5" fill-rule="evenodd"/><path d="m118.544 68.096 10.7 28-3.6 3.3-1.5-2.6q-2.1 1.9-4.8 3.4l.9 2.7-4.5 2.2-.3-.7-.4-2.2-5.7 1.6.4 2.7.2.7-.8.2-.6.1-1.2.2-.9-3.2v-.1l-.2-.7-.2-.9-.2-.7v-.3l-.1-.2-.1-.3v-.2l-.4-1.5-.7-2.9-1.3-5.9-.1.1.1-.2v-.1l.1-.1v-1.8l-.1-.2v-.2l-.1-.1h-.1l-.2-.2h-.1l-.7-.1.2-.4v-.1l.3-.6v-.3l.2-1-.1-.6v-.2.2l-1-1.1-.1-.9v-.3l-.1-.2v-.4l-.1-.2v-1.2l.3-.4.5-.6.1-.2v-1.2l-.2-.2v-.6.5l-.2-.2-.3-.2.1.3-9.3 1.2h-3l-15.2-1.2v-3.4q-.1-3.6 9.3-8.5-9.4 4.9-9.3 8.5v3.4l-.5-.1.1.1.4.5.2.5h-.2v.3l-.1.1v.1l-.1.1-.4.7-.2 1.3.4 1.8.3 4.2 1.7 22v1h-1l-.6-.1h-.6l-.4-.1-7.1-.1-1.3-.5 3.5.2h.2q-.1-1.7-1.2-3.3h-.1l-1.9-.1-3.6-.4-1.1 2.1-1.3-.1-.2.7-1.3-.3-3.3-1.2 1.4-2.8q-2.1-.9-3.7-2.2-1.5 1.5-2 2.6l-2.5-1.9.3-.5-.2-.1-1.7-1.3 2.4-1.8-3.1-2.6-.6-.5-2.3 1.9-1-1-.6-.5-.1-.1-1.6-1.7.3-.5 1.8-1.5-2.9-3.8-.5-.2q4.4-11.4 10.2-22.2l4.7.7h.1l8.2 1.4h.6l-10.1-8.4.4-.7 2.8-4.6 2.5-3.8v-.2.2h1.1l4.8 3 7.2 3.7q10 5.9 13.1 8.1v-.1q10-6 14.9-8.4l12.4-6.9v.5l.5.2.7.2v.1l4.3 10.8-3 1.4q-.2 0-.3.2l-.3.1q-2.4 1.2-6 3.1 0 1.8 8.6 1.9 2.8 0 3.3-.9m-7.8-17.1.1.1-.1-.1m-8.5 29.3v-.1l-.1-.6.1.6v.1l.4 4.4v-3l-.4-1.4m.8 7.9-.3-2.7.3 2.7m.2 2.6v-.1.1m-44.7-34.6.5-1.1-.5 1v.1m-6.1 12.6h-.1.1m.3-.9v.3-.3m19.7-3.5 1.1 15.7-1.1-15.7m3.3 45-1.1.1-4.1.3h-2.1 2.1l4.1-.3 1.1-.1" fill="#fff" fill-rule="evenodd"/><path d="m125.644 99.396-4 2.8-.4.2-.4.2-.6.3-.9-2.7q2.7-1.5 4.8-3.4l1.5 2.6m-9.9 5.7-1.1.5-.5.2h-.1l-4.1 1.4-.2-.7-.4-2.7 5.7-1.6.4 2.2.3.7m-61.3 2.1h-.1l-1-.4-.9-.6-2.1-1.2-.2-.2q.5-1.1 2-2.6 1.6 1.3 3.7 2.2l-1.4 2.8m-15.3-12.5-2.5-2.8v-.1l.8-2.2.4-.9.5.2 2.9 3.8-1.8 1.5-.3.5m3.3 3.3 2.3-1.9.6.5 3.1 2.6-2.4 1.8-3.6-3m18.1 10.1 1.1-2.1 3.6.4 1.9.1h.1q1.1 1.6 1.2 3.3h-.2l-3.5-.2-.9-.3-.8-.2-1.4-.3v-.1l-.1-.1v-.1h-.1v-.1l-.2-.1-.5-.2h-.2" fill="#a70303" fill-rule="evenodd"/><path d="M58.344 51.096h.4l-.3-.2-.4-.2-.6-.2-.2-.1q17 4.5 26.3 12.6 4-3.9 11.2-7.5 13.6-6.8 15.6-6.8l.4 1.3v.5l-12.4 6.9q-4.9 2.4-14.9 8.4v.1q-3.1-2.2-13.1-8.1l-7.2-3.7-4.8-3m24.4 12.7.8-.8-.8.8m19.8 45.6h-.1v-.2l.1.2" fill="#d70404" fill-rule="evenodd"/><path d="m111.244 51.196.3-.1.2.1.2.2-.7-.2m-9.2 26.7v-.5.6-.1m.2 2.4.4 1.4v3l-.4-4.4m-43.7-24.1v-.1l.5-1-.5 1.1m-5.8 11.7v.3-.3" fill="#6a6a6a" fill-rule="evenodd"/><path d="m102.244 87.496-12.3 1.2-11.7-.5-3.3-.6-.1-.8-.1-1.3q-.4-.8-.1-1.3l-.4-.3-.7-3.8.4-.7.1-.1v-.1l.1-.1v-.3h.2l-.2-.5-.4-.5-.1-.1.5.1 15.2 1.2h3l9.3-1.2-.1-.3.3.2.2.2.1 1.7-.5.6-.3.4v1.2l.1.2v.4l.1.2v.3l.1.9 1 1.1.1.6-.2 1v.3l-.3.6v.1m-54.2-21 1.8-3.3.2-.2v-.1l.1-.1.1-.2v-.5h.1l.1-.2v-.1l.2-.1.9-1.5 10.1 8.4h-.6l-8.2-1.4h-.1l-4.7-.7m68.2-4.2.4.9.3.5v.2l.1.2 1.5 4q-.5.9-3.3.9-8.6-.1-8.6-1.9 3.6-1.9 6-3.1l.3-.1q.1-.2.3-.2l3-1.4m-38 25.9q2.2-5.2 5.7-6.4l8.4-2.8-8.4 2.8q-3.5 1.2-5.7 6.4" fill="#e11e1e" fill-rule="evenodd"/><path d="m102.044 77.996.2.2v1.2l-.1.2-.1-1.7v.1m-28.3 5.2-.4-1.8.2-1.3.2 3.1" fill="#df0202" fill-rule="evenodd"/><path d="M103.144 90.896v-1.8l-.1-.9h.1l.1.1v.2l.1.2v1.8l-.1.1v.1l-.1-.2.1.2-.1.2" fill="#333" fill-rule="evenodd"/><path d="m52.144 47.596-.2-.2h.3l-.1.2" fill-rule="evenodd"/><path d="m74.944 87.596-.9-.2-.3-4.2-.2-3.1.7 3.8.4.3q-.3.5.1 1.3l.1 1.3.1.8" fill="#b40303" fill-rule="evenodd"/><path d="m118.544 68.096 10.7 28-3.6 3.3-4 2.8-.4.2-.4.2-.6.3-4.5 2.2-1.1.5-.5.2h-.1l-4.1 1.4-.8.2-.6.1-1.2.2-.9-3.2v-.1l-.2-.7-.2-.9-.2-.7v-.3l-.1-.2-.1-.3v-.2l-.4-1.5-.7-2.9-1.3-5.9m-.1.1v-1.8l-.1-.9m-.8-.7-12.3 1.2-11.7-.5-3.3-.6-.9-.2 1.7 22m-11 .2-1-.1-4.7-.8-1.3-.3-3.3-1.2h-.1l-1-.4-.9-.6-2.1-1.2-.2-.2-2.5-1.9-5.2-4.9-1-1-.6-.5m-.1-.1-1.6-1.7-2.5-2.8m0-.1.8-2.2.4-.9q4.4-11.4 10.2-22.2m3.5-6.3.4-.7 2.8-4.6 2.5-3.8m0-.2v.2m54.7.4 4.3 10.8m2.3 5.8q-.5.9-3.3.9-8.6-.1-8.6-1.9 3.6-1.9 6-3.1l.3-.1q.1-.2.3-.2l3-1.4m-5.5-11.8-12.4 6.9q-4.9 2.4-14.9 8.4v.1q-9.4 4.9-9.3 8.5v3.4l15.2 1.2h3l9.3-1.2m.4.1v-.5m.1 2.2.1.6v.1l.4 4.4v.2l.1.6.3 2.7m-10.7-9.2-8.4 2.8q-3.5 1.2-5.7 6.4m23.8-10.3.1 1.7m-18.7-13.7q-3.1-2.2-13.1-8.1l-7.2-3.7-4.8-3m-6.8 9.1 10.1 8.4h-.6l-8.2-1.4h-.1l-4.7-.7m25.6 11.2.5.1m-.6 2.3-1.1-15.7m1.1 15.7.2 3.1.3 4.2m-9.3 22.2 3.5.2h2.3l4.1-.3 1.1-.1" fill="none" stroke="#2e2e2e" stroke-linecap="round" stroke-linejoin="round" stroke-width="2"/><path d="M57.244 50.396q17 4.5 26.3 12.6 4-3.9 11.2-7.5 13.6-6.8 15.6-6.8l.4 1.3m-27.2 13-.8.8" fill="none" stroke="#8b0101" stroke-linecap="round" stroke-linejoin="round"/><path d="M103.244 90.696v.1m0-.1-.1-.2" fill="none" stroke="#000" stroke-linecap="round" stroke-linejoin="round" stroke-width="2"/><path d="M101.058 27.696h6.3m-28.3 0h6.3" id="gikopoipoi_eyes_closed" style="display:none" fill="none" stroke="#000" stroke-linecap="round" stroke-linejoin="round" stroke-width="3"/><path d="M104.058 24.896h1.4l-1.8 2.8h1.5v3.4h-3.4v-3.2l2.3-3m-22 0h1.4l-1.8 2.8h1.5v3.4h-3.4v-3.2l2.3-3" style="stroke-width:2" id="gikopoipoi_eyes_open" fill-rule="evenodd"/></svg>