<svg xmlns="http://www.w3.org/2000/svg" xmlns:xlink="http://www.w3.org/1999/xlink" height="195" width="160"><defs><g id="l"><path d="M.25-60h3.9l1.2.55 3.9-8.6 3.85 8.6 1.25-.55 3.15 3.05 1.1 1.1-.4.4.1.1q2.1 2.05 2.35 4.55v.6q0 1.65-.8 3.1l-.25.45-1.4 1.7.15.15-.3.25-3.25.9v4.7l-3.25.7-3.1.9.65 1.6L12.4-37q1.7-.6 3-.6 1.55 0 2.15.6.8.8.8 2 0 1.1-.75 1.85-1.05 1.05-4.1 1.25l-1.25.05.35 1.5 1.5-.05-.05 2.75-1.5 1.25v12.25l-.85 4.6h-1.5V-3q0 .7-.45 1.15-.55.55-1.6.55Q7-1.3 6.5-1.85 6.05-2.3 6.1-3v-6.55H4.5l-2.35-3.5H.4l-3.55 3.5V-3q0 .7-.45 1.15-.55.55-1.6.55-1.1 0-1.65-.55-.45-.45-.4-1.15v-6.55H-8.8l-1.7-1.1-1.75-3.9v-3.9l.45-.4q.75-.6 1.35-1.55l-1.25-1-.7.95.4-10.95 1.75-12.8.4.35.75-.7-1-1.1q-1.55-1.9-1.5-4.15l.05-1q.35-2.3 2.45-4.25l-.75-.75.5-3.95.65.3 3.85-8.6 3.85 8.6L.25-60m5.1 22.05Q4.3-39 2.1-39q-1.35 0-4 .75l-3.1.9.65 1.6 3.3-1.25q1.7-.6 3-.6 1.55 0 2.15.6.8.8.8 2 0 1.1-.75 1.85Q3.1-32.1.1-31.9l-1.3.05.35 1.5q3.95-.05 5.9-1.55l.45-.35q1-1 1-2.85-.05-1.8-1.15-2.85" fill="#fff" fill-rule="evenodd" transform="translate(21.7 71)"/><path d="M4.15-60l5.1-11 5.1 11-1.25.55-3.85-8.6-3.9 8.6-1.2-.55m14.5 4.1l.25-.3q2.55 2.35 2.8 5.4v.6q0 1.9-.9 3.55-.7 1.25-1.9 2.4l-.55-.55-.15-.15 1.4-1.7.25-.45q.8-1.45.8-3.1v-.6q-.25-2.5-2.35-4.55l-.1-.1.4-.4.05-.05M14.8-38.95l.75-.05q2.2 0 3.25 1.05 1.1 1.05 1.1 2.85 0 1.85-1 2.85l-.4.35q-1.55 1.2-4.4 1.5l-1.5.05-.35-1.5 1.25-.05q3.05-.2 4.1-1.25.75-.75.75-1.85 0-1.2-.8-2-.6-.6-2.15-.6-1.3 0-3 .6l-3.3 1.25-.65-1.6 3.1-.9 3.25-.7m-3.1 29.4v6.6q0 1.25-.8 2.05-.9.9-2.75.9Q6.2 0 5.3-.9q-.8-.8-.8-2.05v-6.6h1.6V-3q-.05.7.4 1.15.5.55 1.65.55 1.05 0 1.6-.55.45-.45.45-1.15v-6.55h1.5m-14.85 0h1.5v6.6q0 1.25-.8 2.05-.9.9-2.75.9Q-7.1 0-8-.9q-.85-.8-.8-2.05v-6.6h1.55V-3q-.05.7.4 1.15.55.55 1.65.55 1.05 0 1.6-.55.45-.45.45-1.15v-6.55m-9.1-8.9q-.7.45-1.6.45-1 0-2.7-1.1-1.15-.65-1.9-.65-.85 0-1.3.55l-.6.95-1.35-.75 1.2-1.65q.85-.8 1.95-.8t2.3.8q1.65.85 2.55.85.6 0 1.3-.65l.7-.95 1.25 1q-.6.95-1.35 1.55l-.45.4m2-25.75l-.6-.7q-1.85-2.2-1.8-4.9l.05-1q.35-2.8 2.75-5l.75.75q-2.1 1.95-2.45 4.25l-.05 1q-.05 2.25 1.5 4.15l1 1.1-.75.7-.4-.35m.9-15.55L-9.9-60l5.05-11 5.1 11-1.25.55-3.85-8.6-3.85 8.6-.65-.3m14.7 21.8q1.1 1.05 1.15 2.85 0 1.85-1 2.85l-.45.35q-1.95 1.5-5.9 1.55l-.35-1.5 1.3-.05q3-.2 4.05-1.25.75-.75.75-1.85 0-1.2-.8-2-.6-.6-2.15-.6-1.3 0-3 .6l-3.3 1.25-.65-1.6 3.1-.9Q.75-39 2.1-39q2.2 0 3.25 1.05" fill="#333" fill-rule="evenodd" transform="translate(21.7 71)"/><path d="M17.5-56.95l1.15 1.05-.05.05-1.1-1.1" fill="red" fill-rule="evenodd" transform="translate(21.7 71)"/><path d="M.25-60h3.9m8.4 33.6v12.25m6.05-41.7l-1.1-1.1" fill="none" stroke="#333" stroke-linecap="round" stroke-linejoin="round" transform="translate(21.7 71)"/></g><g id="m" transform="translate(.8)"><use height="3" transform="matrix(1.005 0 0 1 -.804 0)" width="4.65" xlink:href="#a"/><use height="3" transform="matrix(1.005 0 0 1 16.096 0)" width="4.65" xlink:href="#a"/></g><g id="n" transform="translate(11.45 4.1)"><use height="2" transform="translate(-.85 -4.1)" width="11.6" xlink:href="#c"/><use height="6.45" transform="translate(-11.45 -3.8)" width="5" xlink:href="#d"/></g><g id="o" transform="translate(123.2 9.5)"><use height="14.9" transform="translate(-103.9 -6.95)" width="15.5" xlink:href="#f"/><use height="21.8" transform="translate(-123.2 -9.5)" width="31.45" xlink:href="#g"/></g><g id="h" fill-rule="evenodd"><path d="M4.9-4.95Q7-2.9 7 0q0 2.9-2.1 4.9Q2.9 7 0 7q-2.9 0-4.95-2.1Q-7 2.9-7 0q0-2.9 2.05-4.95Q-2.9-7 0-7q2.9 0 4.9 2.05" fill="url(#i)" transform="translate(7.75 7.55)"/><path d="M.45-7.5q.5-.2.8.3.3.5-.15.75L.5-6.5H.4q-.45.3-.75-.25-.3-.6.15-.75l.5.05.15-.05m1.35.15q.5-.25.85.35.3.6-.15.9-.4.3-.8-.35-.35-.65.1-.9m1.55.85q.45-.35.8.2.4.5-.15.8-.55.3-.8-.2-.3-.5.15-.8m3.9 3.3q.25.5-.2.7-.45.3-.75-.25-.3-.6.15-.75.45-.15.8.3M5.1-4.3q-.3-.55.2-.85.45-.35.85.25.35.5-.2.85-.6.35-.85-.25M6.5-.85q-.35-.6.1-.85.45-.3.75.3.35.55-.05.9-.45.25-.8-.35M6.25 1.5Q5.9.85 6.5.4q.55-.4 1.05.3.5.65-.25 1.05-.7.4-1.05-.25m.65.8q.2.35-.15.55-.3.2-.45-.15-.2-.3.1-.5l.5.1M5.3 3.7q.55-.2.8.3.35.5-.15.75-.45.3-.8-.3-.3-.6.15-.75M1.55 7.25q-.55.3-.85-.2-.2-.55.2-.85.5-.3.85.2t-.2.85m1.9-.35q-.65.4-.95-.2-.35-.6.2-1 .5-.35.95.25.45.65-.2.95m.65-1.25q-.2-.35.05-.55.3-.15.5.2t-.1.55q-.25.15-.45-.2m-5.9-12.1q-.3.2-.5-.1l.15-.55.45.15q.25.3-.1.5m-1.65.75q-.5.3-.8-.2-.25-.45.15-.8.45-.25.8.2.4.5-.15.8m-.65.4q.35.6-.15.95-.45.35-.8-.35-.4-.65.1-.95.45-.25.85.35m-1.4 1.6q-.3.2-.5-.2-.15-.4.1-.45.35-.1.5.2.2.25-.1.45m-.65 1.15q.45.65-.25 1-.7.4-1-.25-.3-.65.25-1t1 .25M-6.5-.9q.45.6-.2.95-.6.35-.95-.2-.3-.6.2-1 .55-.35.95.25m-.8 2.6q-.35-.65.1-.95.5-.25.85.35.3.6-.15.95-.4.25-.8-.35m2.45 2.45q.35.55-.2.85-.55.3-.85-.2-.2-.55.2-.85.5-.3.85.2m-.7-.45q-.6.35-.95-.4-.4-.75.2-.95.6-.2.95.4.4.55-.2.95m1.05 1.35q.6-.45 1.1.25.5.7-.2 1.15-.75.4-1.1-.3-.4-.65.2-1.1M-.4 7.3q-.3.15-.45-.2-.2-.35.1-.4.25-.15.45.15.2.25-.1.45m-2 0q-.45.25-.75-.3-.35-.6.05-.85.45-.25.8.3.3.55-.1.85" fill="#fff" transform="translate(7.75 7.55)"/></g><g id="g"><path d="M-92.95 7.75q.95 1.6-.55 4.05-14.6-4-29.2-4.25l.5-4h.05-.05.05l29.2 4.2" fill="url(#j)" fill-rule="evenodd" transform="translate(123.2 9.5)"/><path d="M-122.15 3.55Q-114.6-5.5-100.5-9q7.3 3 8.05 9.6.75 6.55-1.5 2.05-2.3-4.55-2-2.85l3 7.95-29.2-4.2" fill="url(#k)" fill-rule="evenodd" transform="translate(123.2 9.5)"/><path d="M-92.95 7.75q.95 1.6-.55 4.05-14.6-4-29.2-4.25l.5-4h.05l29.2 4.2M-122.2 3.55h.05" fill="none" stroke="#fff" stroke-linecap="round" stroke-linejoin="round" transform="translate(123.2 9.5)"/><path d="M-122.15 3.55Q-114.6-5.5-100.5-9q7.3 3 8.05 9.6.75 6.55-1.5 2.05-2.3-4.55-2-2.85l3 7.95z" fill="none" stroke="red" stroke-linecap="round" stroke-linejoin="round" transform="translate(123.2 9.5)"/></g><path d="M1.35 0h.2l.55.1.45.35q.45.45.45 1L2.55 2.6q-.45.4-1 .4l-.8-.2-.25-.2-.45-.7v-.15L0 1.45v-.1q.05-.5.5-.9l.25-.2Q1 .05 1.3 0h.05m.45.85L1.55.8Q1.2.75 1 1q-.2.15-.2.45v.15l.15.45H1l.05.05.2.1.3.05.55-.2.15-.6-.05-.3L2.1 1 2.05.95 1.9.85h-.1" fill-rule="evenodd" id="b"/><path d="M10.25-2.6H.75l-1.1-1" fill="none" stroke="#333" stroke-linecap="round" stroke-linejoin="round" transform="translate(.85 4.1)" id="c"/><path d="M2-1.7l-2 2 1.85 1.8M0 .3V.25v2.5M0 .3l-1.85 1.8M-2-1.7L0 .25V-2.7" fill="none" stroke="#fea5c0" stroke-linecap="round" stroke-linejoin="round" transform="translate(2.5 3.2)" id="e"/><use height="3" transform="translate(.8)" width="3" xlink:href="#b" id="a"/><use height="6.45" width="5" xlink:href="#e" id="d"/><use height="14.9" width="15.5" xlink:href="#h" id="f"/><linearGradient gradientTransform="matrix(-.0157 -.0091 .0025 -.0044 -107.85 7.65)" gradientUnits="userSpaceOnUse" id="j" spreadMethod="pad" x1="-819.2" x2="819.2"><stop offset=".204" stop-color="#ccc"/><stop offset=".804" stop-color="#e7e7e7"/><stop offset="1" stop-color="#fff"/></linearGradient><linearGradient gradientTransform="matrix(.0283 0 0 .0102 -104.45 -.65)" gradientUnits="userSpaceOnUse" id="k" spreadMethod="pad" x1="-819.2" x2="819.2"><stop offset=".004" stop-color="#fff"/><stop offset=".18" stop-color="#d10101"/><stop offset=".557" stop-color="#fe3636"/><stop offset=".906" stop-color="#fff"/></linearGradient><radialGradient cx="0" cy="0" gradientTransform="translate(2.6 -.2) scale(.0086)" gradientUnits="userSpaceOnUse" id="i" r="819.2" spreadMethod="pad"><stop offset=".204" stop-color="#ccc"/><stop offset=".757" stop-color="#e7e7e7"/><stop offset="1" stop-color="#fff"/></radialGradient></defs><g transform="matrix(2 0 0 2 79.541 155)"><use height="71" transform="translate(-21.7 -71)" width="43.4" xlink:href="#l"/><use height="3" transform="matrix(1.0012 0 0 1 -3.75 -57.5)" width="21.55" xlink:href="#m"/><use height="6.75" transform="translate(-8.85 -52.5)" width="22.2" xlink:href="#n"/><use height="21.8" transform="matrix(-.9997 0 0 1 18.259 -76.5)" width="34.8" xlink:href="#o"/></g></svg>