<?xml version="1.0" encoding="UTF-8" standalone="no"?>
<svg
   viewBox="0 0 512 512"
   version="1.1"
   id="svg4"
   sodipodi:docname="hand-paper-dark.svg"
   inkscape:version="1.2.2 (1:1.2.2+202212051552+b0a8486541)"
   xmlns:inkscape="http://www.inkscape.org/namespaces/inkscape"
   xmlns:sodipodi="http://sodipodi.sourceforge.net/DTD/sodipodi-0.dtd"
   xmlns="http://www.w3.org/2000/svg"
   xmlns:svg="http://www.w3.org/2000/svg">
  <defs
     id="defs8" />
  <sodipodi:namedview
     id="namedview6"
     pagecolor="#ffffff"
     bordercolor="#666666"
     borderopacity="1.0"
     inkscape:showpageshadow="2"
     inkscape:pageopacity="0.0"
     inkscape:pagecheckerboard="0"
     inkscape:deskcolor="#d1d1d1"
     showgrid="false"
     inkscape:zoom="1.0546875"
     inkscape:cx="224.71111"
     inkscape:cy="256"
     inkscape:window-width="1366"
     inkscape:window-height="719"
     inkscape:window-x="0"
     inkscape:window-y="25"
     inkscape:window-maximized="1"
     inkscape:current-layer="svg4" />
  <!--! Font Awesome Pro 6.4.0 by @fontawesome - https://fontawesome.com License - https://fontawesome.com/license (Commercial License) Copyright 2023 Fonticons, Inc. -->
  <path
     d="M256 0c-25.3 0-47.2 14.7-57.6 36c-7-2.6-14.5-4-22.4-4c-35.3 0-64 28.7-64 64V261.5l-2.7-2.7c-25-25-65.5-25-90.5 0s-25 65.5 0 90.5L106.5 437c48 48 113.1 75 181 75H296h8c1.5 0 3-.1 4.5-.4c91.7-6.2 165-79.4 171.1-171.1c.3-1.5 .4-3 .4-4.5V160c0-35.3-28.7-64-64-64c-5.5 0-10.9 .7-16 2V96c0-35.3-28.7-64-64-64c-7.9 0-15.4 1.4-22.4 4C303.2 14.7 281.3 0 256 0zM240 96.1c0 0 0-.1 0-.1V64c0-8.8 7.2-16 16-16s16 7.2 16 16V95.9c0 0 0 .1 0 .1V232c0 13.3 10.7 24 24 24s24-10.7 24-24V96c0 0 0 0 0-.1c0-8.8 7.2-16 16-16s16 7.2 16 16v55.9c0 0 0 .1 0 .1v80c0 13.3 10.7 24 24 24s24-10.7 24-24V160.1c0 0 0-.1 0-.1c0-8.8 7.2-16 16-16s16 7.2 16 16V332.9c-.1 .6-.1 1.3-.2 1.9c-3.4 69.7-59.3 125.6-129 129c-.6 0-1.3 .1-1.9 .2H296h-8.5c-55.2 0-108.1-21.9-147.1-60.9L52.7 315.3c-6.2-6.2-6.2-16.4 0-22.6s16.4-6.2 22.6 0L119 336.4c6.9 6.9 17.2 8.9 26.2 5.2s14.8-12.5 14.8-22.2V96c0-8.8 7.2-16 16-16c8.8 0 16 7.1 16 15.9V232c0 13.3 10.7 24 24 24s24-10.7 24-24V96.1z"
     id="path2"
     style="fill:#ffffff" />
</svg>
