<svg xmlns="http://www.w3.org/2000/svg" xmlns:xlink="http://www.w3.org/1999/xlink" height="110.3" width="185.4"><defs><radialGradient cx="0" cy="0" gradientTransform="matrix(.1345 .0777 -.1191 .2064 117.95 -57.1)" gradientUnits="userSpaceOnUse" id="a" r="819.2" spreadMethod="pad"><stop offset="0" stop-color="#723e25"/><stop offset=".192" stop-color="#5d3822"/><stop offset=".475" stop-color="#42291a"/><stop offset="1" stop-color="#542e1d"/></radialGradient><g id="b"><path d="M-33.1-13.5l.05-.05 9.8-4.8q-4.3 2.65-4.85 6.25l-.15.35-4.85 2.4v-4.15m-.1 4.2l.1-.05v.05h-.1m.15 4.05v-.1l4.95-2.4v4.4L-33-.9l-.05-4.35M41 23.5l.05-.05 9.8-4.8Q46.55 21.3 46 24.9l-.15.35-4.85 2.4V23.5m-.1 4.2l.1-.05v.05h-.1m5.1 1.55v4.4l-4.9 2.45-.05-4.35v-.1l4.95-2.4" fill="#311a0f" fill-rule="evenodd" transform="translate(40.6 73.6)"/><path d="M-38.05-16.35l4.95 2.85v4.15l-.1.05-4.5-2.2-.2-.3-.2-.3q-.6-3.6.05-4.25m4.85 11.1h.15L-33-.9l-.2.1-4.9-2.45v-4.4l4.9 2.4m66.25 24.7L41 23.5v4.15l-.1.05-4.5-2.2-.2-.3-.2-.3q-.6-3.6-2.95-5.45M41.1 36.1l-.2.1-4.9-2.45v-4.4l4.9 2.4h.15l.05 4.35" fill="#61392c" fill-rule="evenodd" transform="translate(40.6 73.6)"/><path d="M-37.7-11.5l4.5 2.2.1.2.05 3.75-.15.1-4.9-2.4v-.45q1.5-1.45.4-3.4m74.1 37l4.5 2.2.1.2.05 3.75-.15.1-4.9-2.4v-.45q1.5-1.45.4-3.4" fill="#462920" fill-rule="evenodd" transform="translate(40.6 73.6)"/><path d="M-33.1-9.1v-.25l4.85-2.4q-.95 2.05.15 3.65v.35l-4.95 2.4-.05-3.75m78.95 34.35q-.95 2.05.15 3.65v.35l-4.95 2.4L41 27.9v-.25l4.85-2.4" fill-rule="evenodd" transform="translate(40.6 73.6)"/><path d="M-33.1-9.1l-.1-.2h.1v.2m74.1 37l-.1-.2h.1v.2" fill="#5c3636" fill-rule="evenodd" transform="translate(40.6 73.6)"/><path d="M-33.05-13.55l-.05.05.05-.6v.55m74.1 37l-.05.05.05-.6v.55" fill="#864d4d" fill-rule="evenodd" transform="translate(40.6 73.6)"/><path d="M-33.1-13.5l.05-.05m0-.55l-.05.6m-4.95-2.85q-.65.65-.05 4.25l.2.3.2.3m4.5 2.2l.1-.05v-4.15m0 4.4v-.25m-5 1.25q1.5-1.45.4-3.4m4.65 6.15l-.15.1M-33-.9l-.2.1-4.9-2.45v-4.4m10-.1v4.4L-33-.9m4.75-10.85q-.95 2.05.15 3.65M41 23.5l.05-.05m0-.55l-.05.6m-7.95-4.05Q35.4 21.3 36 24.9l.2.3.2.3m4.5 2.2l.1-.05V23.5m9.85-4.85Q46.55 21.3 46 24.9l-.15.35q-.95 2.05.15 3.65m0 .35v4.4l-4.9 2.45-.2.1-4.9-2.45v-4.4m0-.45q1.5-1.45.4-3.4m4.6 2.2v-.05m0 .05v.2m.05 3.75l-.15.1" fill="none" stroke="#000" stroke-linecap="round" stroke-linejoin="round" transform="translate(40.6 73.6)"/><path d="M-28.25-11.75l.15-.35q.55-3.6 4.85-6.25M-38.1-7.65v-.45m5.05 2.85v-.1M-33-.9l-.05-4.35m4.95-2.85v.35M46 28.9v.35m-10 .1v-.45m5.05 2.85l.05 4.35m-.05-4.35v-.1" fill="none" stroke="#442e09" stroke-linecap="round" stroke-linejoin="round" transform="translate(40.6 73.6)"/><path d="M144.05-32.55l.2.55.05 4.3L41.05 23.95v-.55L41 19l103.05-51.55" fill="#2e1b1b" fill-rule="evenodd" transform="translate(40.6 73.6)"/><path d="M41.05 24.4v.55L41 25l.05-.6" fill="#864d4d" fill-rule="evenodd" transform="translate(40.6 73.6)"/><path d="M41 29.2h-.15l.15-.05v.05" fill="#311a0f" fill-rule="evenodd" transform="translate(40.6 73.6)"/><path d="M40.85 29.2H41v.2l-.15-.2" fill="#5c3636" fill-rule="evenodd" transform="translate(40.6 73.6)"/><path d="M41 19l.05 4.4v.55L41 24l-80-40.1q-2.2-2.3 0-5L41 19m.05 4.4L41 24l.05-.6" fill="#61392c" fill-rule="evenodd" transform="translate(40.6 73.6)"/><path d="M64.85-73.1l77.4 38.35.05.2.7.55.2.3.35.4.5.75L41 19l-80-40.1 103.85-52" fill="url(#a)" fill-rule="evenodd" transform="translate(40.6 73.6)"/><path d="M144.3-27.7L41.05 23.95 41 24l-80-40.1q-2.2-2.3 0-5l103.85-52m79.2 40.55L41 19m0 5l.05-.6M-39-21.1L41 19" fill="none" stroke="#000" stroke-linecap="round" stroke-linejoin="round" transform="translate(40.6 73.6)"/><path d="M41.05 23.95v.45M41 19l.05 4.4v.55" fill="none" stroke="#442e09" stroke-linecap="round" stroke-linejoin="round" transform="translate(40.6 73.6)"/><path d="M-21.3-13.45L41.1 17.9q31.65-15.85 63.25-31.75" fill="none" stroke="#5a3621" stroke-linecap="round" stroke-linejoin="round" transform="translate(40.6 73.6)"/></g></defs><use height="110.3" width="185.4" xlink:href="#b"/></svg>