<svg xmlns:xlink="http://www.w3.org/1999/xlink" height="77" width="101.5" xmlns="http://www.w3.org/2000/svg"><g transform="translate(50.1 74.3)"><use height="77" transform="translate(-50.1 -74.3)" width="101.5" xlink:href="#shape0"/><use height="22.35" transform="translate(3.15 -49.65)" width="30.4" xlink:href="#sprite0"/></g><defs><linearGradient gradientTransform="matrix(.0613 0 0 .0209 .65 -26.75)" gradientUnits="userSpaceOnUse" id="gradient0" spreadMethod="pad" x1="-819.2" x2="819.2"><stop offset="0" stop-color="#691d01"/><stop offset=".463" stop-color="#930"/><stop offset="1" stop-color="#782101"/></linearGradient><linearGradient gradientTransform="matrix(.0036 0 0 .0073 .4 -3.75)" gradientUnits="userSpaceOnUse" id="gradient1" spreadMethod="pad" x1="-819.2" x2="819.2"><stop offset="0" stop-color="#691d01"/><stop offset=".463" stop-color="#930"/><stop offset="1" stop-color="#782101"/></linearGradient><linearGradient gradientTransform="matrix(.0036 0 0 .0085 47.8 -30.55)" gradientUnits="userSpaceOnUse" id="gradient2" spreadMethod="pad" x1="-819.2" x2="819.2"><stop offset="0" stop-color="#691d01"/><stop offset=".463" stop-color="#930"/><stop offset="1" stop-color="#782101"/></linearGradient><linearGradient gradientTransform="matrix(.0036 0 0 .0081 -46.65 -29.15)" gradientUnits="userSpaceOnUse" id="gradient3" spreadMethod="pad" x1="-819.2" x2="819.2"><stop offset="0" stop-color="#691d01"/><stop offset=".463" stop-color="#930"/><stop offset="1" stop-color="#782101"/></linearGradient><g id="shape0"><path d="M-49.55-28.7l-.2-1.65-.05-1.4.25-3.2v6.25" fill="#999" fill-rule="evenodd" transform="translate(50.1 74.3)"/><path d="M-49.55-41.9q.15 2.1.7 4.05Q-46.75-30.1-38.3-24l3.45 2.3q14.7 8.95 35.5 8.95l3.5-.05q9.5-.35 17.7-2.7l1.8-.55 2.25-.75q3.55-1.3 6.8-2.95l3.5-1.95q4.9-3 8.2-6.4 4.05-4.25 5.6-9.05.7-2.35.85-4.8l.05 3.35-.1 1-.05.1-1.2 5.3q-1.35 3.75-4.7 7.3v.05l-.45.45q-3.95 4-10.45 7.7l-1.25.65-1.1.55-.2.1q-2.6 1.25-5.5 2.2l-2.25.7-1.85.5q-7.85 2-17.65 2.3l-.75.05H.5l-3.05-.05Q-12.2-9.95-20.2-12q-5.3-1.3-9.85-3.4l-3.95-2q-2.3-1.3-4.3-2.7-3.1-2.2-5.35-4.6-4.75-5.05-5.75-10.95l-.05-.1-.1-.7v-5.45" fill="url(#gradient0)" fill-rule="evenodd" transform="translate(50.1 74.3)"/><path d="M3.4-1.3V.85Q2.15 2 .75 2.2-.7 2.4-2.55 1V-9.7l3.05.05h2.9v8.35" fill="url(#gradient1)" fill-rule="evenodd" transform="translate(50.1 74.3)"/><path d="M50.75-37.5l.05 12.55-1.65 1.1-1 .25q-1.45.15-3.3-1.2v-.1q3.35-3.55 4.7-7.3l1.2-5.3" fill="url(#gradient2)" fill-rule="evenodd" transform="translate(50.1 74.3)"/><path d="M-47.7-22.7q-.9-.3-1.9-1.05l.05-4.95v-7.05h.1l.05.1q1 5.9 5.75 10.95v.8q-1.25 1.15-2.65 1.35l-1.4-.15" fill="url(#gradient3)" fill-rule="evenodd" transform="translate(50.1 74.3)"/><path d="M49.15-23.85Q45.9-16.2 36-10.2 22.3-1.9 3.4-1.3v-8.35l.75-.05q9.8-.3 17.65-2.3l1.85-.5 2.25-.7q2.9-.95 5.5-2.2l.2-.1 1.1-.55 1.25-.65q6.5-3.7 10.45-7.7l.45-.45v-.05.1q1.85 1.35 3.3 1.2l1-.25M-2.55-1.3q-18.85-.6-32.5-8.9-9.2-5.55-12.65-12.5l1.4.15q1.4-.2 2.65-1.35v-.8q2.25 2.4 5.35 4.6 2 1.4 4.3 2.7l3.95 2q4.55 2.1 9.85 3.4 8 2.05 17.65 2.3v8.4" fill-opacity=".2" fill-rule="evenodd" transform="translate(50.1 74.3)"/><path d="M-49.55-41.9l-.05-1.35q0-12.7 14.75-21.65 12.35-7.5 29.05-8.65l6.45-.25 3.5.1q11.9.4 21.75 3.95 3.3 1.15 6.4 2.7l.4.25q1.8.85 3.5 1.9 4.9 3 8.2 6.45 5.65 5.85 6.4 12.95l.1 2.25-.05 1.3q-.15 2.45-.85 4.8-1.55 4.8-5.6 9.05-3.3 3.4-8.2 6.4l-3.5 1.95q-3.25 1.65-6.8 2.95l-2.25.75-1.8.55q-8.2 2.35-17.7 2.7l-3.5.05q-20.8 0-35.5-8.95L-38.3-24q-8.45-6.1-10.55-13.85-.55-1.95-.7-4.05" fill="url(#gradient4)" fill-rule="evenodd" transform="translate(50.1 74.3)"/><path d="M50.85-41.95l.05-1.3-.1-2.25q-.75-7.1-6.4-12.95-3.3-3.45-8.2-6.45-1.7-1.05-3.5-1.9l-.4-.25q-3.1-1.55-6.4-2.7-9.85-3.55-21.75-3.95l-3.5-.1-6.45.25q-16.7 1.15-29.05 8.65-14.75 8.95-14.75 21.65l.05 1.35q.15 2.1.7 4.05Q-46.75-30.1-38.3-24l3.45 2.3q14.7 8.95 35.5 8.95l3.5-.05q9.5-.35 17.7-2.7l1.8-.55 2.25-.75q3.55-1.3 6.8-2.95l3.5-1.95q4.9-3 8.2-6.4 4.05-4.25 5.6-9.05.7-2.35.85-4.8l.05 3.35-.1 1-.05.1.05 12.55-1.65 1.1M3.4-1.3V.85Q2.15 2 .75 2.2-.7 2.4-2.55 1v-2.3M-47.7-22.7q-.9-.3-1.9-1.05l.05-4.95m0-6.25v-6.95M3.4-1.3v-8.35H.5l-3.05-.05v8.4M3.4-9.65l.75-.05q9.8-.3 17.65-2.3l1.85-.5 2.25-.7q2.9-.95 5.5-2.2l.2-.1 1.1-.55 1.25-.65q6.5-3.7 10.45-7.7l.45-.45v-.05q3.35-3.55 4.7-7.3l1.2-5.3m-5.9 12.6v.1q1.85 1.35 3.3 1.2l1-.25m-92.8-.85q-4.75-5.05-5.75-10.95l-.05-.1m-.1-.7l.1.7m-.1.8v6.25m1.85 6l1.4.15q1.4-.2 2.65-1.35v-.8q2.25 2.4 5.35 4.6 2 1.4 4.3 2.7l3.95 2q4.55 2.1 9.85 3.4 8 2.05 17.65 2.3" fill="none" stroke="#390000" stroke-linecap="round" stroke-linejoin="round" transform="translate(50.1 74.3)"/></g><g id="shape1"><path d="M-.25-10.3l-.15-.4.2-.45.45-.2.45.2.15.2.05.25-.2.5q-.15.2-.45.2l-.45-.2-.05-.1M-2-14.4l.45-.2q.3 0 .45.2l.2.45-.2.5q-.15.2-.45.2l-.45-.2-.2-.5.2-.45" fill-rule="evenodd" transform="translate(19.85 22.65)"/><path d="M7.75-21.1l2.3 1q-.45 2.05-1.5 3.8t-2.7 3.2L5-13.35l-4.15 2.4-.15-.2-.45-.2-.45.2-.2.45.15.4-2 1.15-1-.1-2.15-3.95 2.15 3.95.2.35-6.05 3.4-.75 1.7.25.75.5.45-7.95.3-2.3.05 3.8-8 .7.4.1.05 1.35 1 1.5-.95 6.25-3.9.25.45 7.6-4.6.85.2h.1l.1-.1 1.1-1.5 1.1-2.95 2.3 1.05-.85 2.5q-.9 1.9-2.3 3.05Q6-16.7 6.9-18.6l.85-2.5M-2-14.4l-.2.45.2.5.45.2q.3 0 .45-.2l.2-.5-.2-.45q-.15-.2-.45-.2l-.45.2" fill="#fcb6c4" fill-rule="evenodd" transform="translate(19.85 22.65)"/><path d="M4.35-19.2l-1.1 1.5-.1.1h-.1l-.85-.2-7.6 4.6-.25-.45-6.25 3.9-1.5.95-1.35-1-.1-.05q2.9-3.3 7.65-5.95 5.3-3 9.8-3.35l1.75-.05m-7.6 9.95l1 .1 2-1.15.05.1.45.2q.3 0 .45-.2l.2-.5-.05-.25L5-13.35l.85.25q1.65-1.45 2.7-3.2.25 2.15-2.15 5.9-2.45 3.75-7.95 6.5t-9.8 3.05q-4.35.25-5.7-1.45l7.95-.3-.5-.45-.25-.75.75-1.7 6.05-3.4-.2-.35" fill="#fff" fill-rule="evenodd" transform="translate(19.85 22.65)"/><path d="M7.75-21.1l-.85 2.5q-.9 1.9-2.3 3.05m.85-6.6l-1.1 2.95-1.1 1.5-.1.1h-.1m-8.45 4.4l2.15 3.95m9.1-3.85q1.65-1.45 2.7-3.2 1.05-1.75 1.5-3.8m-5.7.9l-1.75.05q-4.5.35-9.8 3.35-4.75 2.65-7.65 5.95m2.95.1l6.25-3.9.25.45M-17.05-2.3q1.35 1.7 5.7 1.45 4.3-.3 9.8-3.05 5.5-2.75 7.95-6.5 2.4-3.75 2.15-5.9m-24.1 6.05l-3.8 8 2.3-.05 7.95-.3m0-2.9l6.05-3.4-.2-.35" fill="none" stroke="#000" stroke-linecap="round" stroke-linejoin="round" transform="translate(19.85 22.65)"/></g><radialGradient cx="0" cy="0" gradientTransform="translate(-11.75 -52.75) scale(.0782)" gradientUnits="userSpaceOnUse" id="gradient4" r="819.2" spreadMethod="pad"><stop offset="0" stop-color="#a54201"/><stop offset=".204" stop-color="#98420a"/><stop offset=".463" stop-color="#963100"/><stop offset="1" stop-color="#611b01"/></radialGradient><use height="22.35" width="30.4" xlink:href="#shape1" id="sprite0"/></defs></svg>