<svg xmlns="http://www.w3.org/2000/svg" height="182" width="160"><g style="clip-rule:evenodd;fill-rule:evenodd;stroke-linecap:round;stroke-linejoin:round;stroke-miterlimit:1.5"><path d="M84.826 78.591s-7.106-5.409-19.94-4.773c0 0-22.027 9.414-11.772 43.061 1.437 4.714 12.156 5.046 13.831 5.22 12.063 1.256 22.615-2.995 27.176-4.798 0 0 10.649.446 12.486-.54.311-.167.539-7.058.846-7.239 6.747-3.977 12.333-11.517 1.167-25.788 0 0-4.48-2.204-8.752-2.023-5.211.221-10.163 1.334-10.163 1.334z" style="fill:#fff" transform="translate(7.949 -3.189)"/><path d="M57.674 92.167s-3.288 17.394 5.091 19.303c0 0 8.697.848 5.621-20.046" style="fill:none;stroke:#000;stroke-width:2.5px" transform="translate(21.949 -3.189)"/><circle cx="73.955" cy="87.235" r="1.962" style="stroke:#000;stroke-width:1.66px" transform="translate(32.596 11.791) scale(.82432)"/><path d="M54.386 84.212s4.455-11.136 16.546-11.773c0 0 8.166 0 15.485 7.319" style="fill:none;stroke:#000;stroke-width:2.5px" transform="translate(7.949 -3.189)"/><path d="M85.417 81.758s6.786 4.913 6.402 16.881" style="fill:none;stroke:#000;stroke-width:2.5px" transform="translate(8.949 -5.189)"/><ellipse cx="106.187" cy="86.063" rx="1.952" ry="1.824" style="stroke:#000;stroke-width:2.5px" transform="translate(9.949 -4.189)"/><path d="m67.115 128.783 1.28 12.16s9.536 1.6 12.928-1.152c0 0 2.752-1.152 3.968-4.992 1.216-3.84-4.224-3.072-4.224-3.072" style="fill:none;stroke:#000;stroke-width:2.5px" transform="rotate(-86.71 76.518 102.713)"/></g></svg>