<?xml version="1.0" encoding="UTF-8" standalone="no"?>
<svg
   xmlns:dc="http://purl.org/dc/elements/1.1/"
   xmlns:cc="http://creativecommons.org/ns#"
   xmlns:rdf="http://www.w3.org/1999/02/22-rdf-syntax-ns#"
   xmlns:svg="http://www.w3.org/2000/svg"
   xmlns="http://www.w3.org/2000/svg"
   xmlns:xlink="http://www.w3.org/1999/xlink"
   xmlns:sodipodi="http://sodipodi.sourceforge.net/DTD/sodipodi-0.dtd"
   xmlns:inkscape="http://www.inkscape.org/namespaces/inkscape"
   height="182"
   width="160"
   version="1.1"
   id="svg2513"
   sodipodi:docname="front-sitting.svg"
   inkscape:version="1.0.2-2 (e86c870879, 2021-01-15)">
  <metadata
     id="metadata2517">
    <rdf:RDF>
      <cc:Work
         rdf:about="">
        <dc:format>image/svg+xml</dc:format>
        <dc:type
           rdf:resource="http://purl.org/dc/dcmitype/StillImage" />
        <dc:title></dc:title>
      </cc:Work>
    </rdf:RDF>
  </metadata>
  <sodipodi:namedview
     pagecolor="#ffffff"
     bordercolor="#666666"
     borderopacity="1"
     objecttolerance="10"
     gridtolerance="10"
     guidetolerance="10"
     inkscape:pageopacity="0"
     inkscape:pageshadow="2"
     inkscape:window-width="1841"
     inkscape:window-height="1279"
     id="namedview2515"
     showgrid="false"
     inkscape:zoom="5.6373626"
     inkscape:cx="80"
     inkscape:cy="91"
     inkscape:window-x="0"
     inkscape:window-y="0"
     inkscape:window-maximized="0"
     inkscape:current-layer="svg2513" />
  <defs
     id="defs2505">
    <g
       id="c">
      <path
         d="M4.25-60l1.2.55 3.85-8.6 3.9 8.6 1.25-.55 3.15 3.05 1.1 1.1-1.1-1.1 1.15 1.1h-.05l-.35.4.1.1q2.1 2.05 2.3 4.55l.05.6q0 1.65-.8 3.1l-.25.45-1.4 1.7.1.1-.3.3-3.25.9v4.7l-1.25.2-2 .5-3.15.9.65 1.6L12.5-37q1.7-.6 3-.6 1.55 0 2.15.6.8.8.8 2 0 1.1-.75 1.85-1.05 1.05-4.1 1.25l-1.25.05.35 1.5 1.5-.05-.05 2.75-1.5 1.25v5.75H8.1v1.55h6.6q.7 0 1.15.4.55.55.55 1.65 0 1.05-.55 1.6-.45.45-1.15.45H8.1v1.5H2.3q1.2 0 1.95-.8.9-.9.9-2.75 0-1.9-.9-2.8-.8-.8-2.05-.8h-6.6v1.55h6.55q.7 0 1.15.4.55.55.55 1.65 0 1.05-.55 1.6-.45.45-1.15.45H-4.4v1.5h-4.5l-3.25-3.25v-1.7l.45-.4q.75-.6 1.35-1.55l-1.25-1-.7.95.4-10.95 1.75-12.8.4.35.75-.7-1-1.1q-1.5-1.9-1.5-4.15l.05-1q.35-2.3 2.45-4.25l-.75-.75.5-3.95.65.3 3.85-8.6 3.85 8.6L.35-60h3.9m2 9.2v-3.65h3.5v8.15H4.8Q6-48 6.25-50.8M4.9-51.9l-.05 1.1q-.2 2.7-1.5 4.5H2.4v3.25h1.35V-45H11v1.95h1.35v-3.25h-1.2v-9.45H4.9v3.85m.55 13.95l-1.35-.8L2.2-39l-2 .25-2 .5-3.1.9.65 1.6L-.95-37l3-.6q1.55 0 2.15.6.8.8.8 2 0 1.1-.75 1.85Q3.2-32.1.2-31.9l-1.3.05.35 1.5q3.95-.05 5.9-1.55l.4-.35q1-1 1-2.85 0-1.8-1.1-2.85M-7.2-43.6l.75-1.55v-1.35h-1.5v1.45h.55l-.55 1.45h.75m2.15 0h.75l.75-1.55v-1.35h-1.5v1.45h.55l-.55 1.45"
         fill="#fff"
         fill-rule="evenodd"
         transform="translate(21.55 71)"
         id="path2491" />
      <path
         d="M14.45-60l-1.25.55-3.9-8.6-3.85 8.6-1.2-.55L9.3-71l5.15 11M.35-60l-1.25.55-3.85-8.6-3.85 8.6-.65-.3-.55-.25 5.05-11 5.1 11m-10.1 4.2l.75.75q-2.1 1.95-2.45 4.25l-.05 1q0 2.25 1.5 4.15l1 1.1-.75.7-.4-.35-.6-.7q-1.8-2.2-1.8-4.9l.05-1q.35-2.8 2.75-5m-2.55 35.35l.7-.95 1.25 1q-.6.95-1.35 1.55l-.45.4q-.55.35-1.25.45h-.35q-.95 0-2.65-1.1l-1.9-.65q-.9 0-1.3.55l-.6.95-1.35-.75 1.2-1.65q.8-.8 1.95-.8 1.1 0 2.25.8 1.65.85 2.55.85.65 0 1.3-.65m7.9 6.95V-15h6.55q.7 0 1.15-.45.55-.55.55-1.6 0-1.1-.55-1.65-.45-.4-1.15-.4H-4.4v-1.55h6.6q1.25 0 2.05.8.9.9.9 2.8 0 1.85-.9 2.75-.75.8-1.95.8h-6.7m12.5 0V-15h6.6q.7 0 1.15-.45.55-.55.55-1.6 0-1.1-.55-1.65-.45-.4-1.15-.4H8.1v-1.55h6.65q1.25 0 2.05.8.9.9.9 2.8 0 1.85-.9 2.75-.8.8-2.05.8H8.1m6.1-16.9l-1.5.05-.35-1.5 1.25-.05q3.05-.2 4.1-1.25.75-.75.75-1.85 0-1.2-.8-2-.6-.6-2.15-.6-1.3 0-3 .6l-3.35 1.25-.65-1.6 3.15-.9 2-.5 1.25-.2.75-.05 1.85.25q.85.25 1.4.8Q20-36.9 20-35.1q0 1.85-1 2.85l-.4.35q-1.6 1.2-4.4 1.5m4.25-14.45l-.1-.1 1.4-1.7.25-.45q.8-1.45.8-3.1l-.05-.6q-.2-2.5-2.3-4.55l-.1-.1.35-.4h.05l.3-.35q2.55 2.35 2.75 5.4l.05.6q0 1.9-.9 3.55-.7 1.25-1.9 2.4l-.6-.6M4.9-51.9v-3.85h6.25v9.45h1.2v3.25H11V-45H3.75v1.95H2.4v-3.25h.95q1.3-1.8 1.5-4.5l.05-1.1m1.35 1.1Q6-48 4.8-46.3h4.95v-8.15h-3.5v3.65m-.8 12.85q1.1 1.05 1.1 2.85 0 1.85-1 2.85l-.4.35q-1.95 1.5-5.9 1.55l-.35-1.5 1.3-.05q3-.2 4.05-1.25Q5-33.9 5-35q0-1.2-.8-2-.6-.6-2.15-.6l-3 .6-3.3 1.25-.65-1.6 3.1-.9 2-.5 2-.25 1.9.25 1.35.8m-10.5-5.65l.55-1.45h-.55v-1.45h1.5v1.35l-.75 1.55h-.75m-2.15 0h-.75l.55-1.45h-.55v-1.45h1.5v1.35l-.75 1.55"
         fill-rule="evenodd"
         transform="translate(21.55 71)"
         id="path2493" />
      <path
         d="M12.65-20.65v-5.75m6.05-29.45l-1.1-1.1M4.25-60H.35"
         fill="none"
         stroke="#000"
         stroke-linecap="round"
         stroke-linejoin="round"
         transform="translate(21.55 71)"
         id="path2495" />
    </g>
    <g
       id="d"
       transform="translate(.8)">
      <use
         height="3"
         transform="matrix(1.005 0 0 1 -.804 0)"
         width="4.65"
         xlink:href="#a"
         id="use2498" />
      <use
         height="3"
         transform="matrix(1.005 0 0 1 16.096 0)"
         width="4.65"
         xlink:href="#a"
         id="use2500" />
    </g>
    <path
       d="M1.35 0h.2l.55.1.45.35q.45.45.45 1L2.55 2.6q-.45.4-1 .4l-.8-.2-.25-.2-.45-.7v-.15L0 1.45v-.1q.05-.5.5-.9l.25-.2Q1 .05 1.3 0h.05m.45.85L1.55.8Q1.2.75 1 1q-.2.15-.2.45v.15l.15.45H1l.05.05.2.1.3.05.55-.2.15-.6-.05-.3L2.1 1 2.05.95 1.9.85h-.1"
       fill-rule="evenodd"
       id="b" />
    <use
       height="3"
       transform="translate(.8)"
       width="3"
       xlink:href="#b"
       id="a" />
  </defs>
  <g
     style="clip-rule:evenodd;fill-rule:evenodd;stroke-linecap:round;stroke-linejoin:round;stroke-miterlimit:1.5"
     id="g3124"
     transform="translate(3.4430341,-7.061339)">
    <path
       d="m 84.826,78.591 c 0,0 -7.106,-5.409 -19.94,-4.773 0,0 -23.366,11.945 -11.772,43.061 0.719,1.929 4.748,4.683 7.573,4.14 10.79,-2.074 6.434,0.797 15.621,0.235 0,0 2.684,0.185 7.245,-1.618 0,0 25.773,1.591 29.379,-3.606 0,0 3.394,-6.363 4.136,-11.56 0,0 -2.333,-9.758 -6.576,-11.879 L 89.705,83.045 Z"
       style="fill:#ffffff"
       id="path3080" />
    <ellipse
       cx="111.182"
       cy="103.515"
       rx="3.553"
       ry="2.8640001"
       style="stroke:#000000;stroke-width:1.37px"
       id="ellipse3082" />
    <g
       transform="rotate(-78.359922,63.839679,112.31282)"
       id="g3086">
        <path
   d="m 55.724,107.101 c -2.112,14.441 5.981,22.611 4.602,31.096 0,0 11.454,2.651 18.454,-1.379 0,0 2.44,-3.712 -6.575,-8.485"
   style="fill:none;stroke:#000000;stroke-width:2.5px"
   id="path3084" />

    </g>
    <path
       d="m 57.674,92.167 c 0,0 -3.288,17.394 5.091,19.303 0,0 8.697,0.848 5.621,-20.046"
       style="fill:none;stroke:#000000;stroke-width:2.5px"
       id="path3088" />
    <path
       d="m 110.917,106.379 c 0,0 0,9.545 3.606,3.5"
       style="fill:none;stroke:#000000;stroke-width:1.37px"
       id="path3090" />
    <path
       d="m 111.129,106.485 c 0,0 -0.106,6.257 -2.864,5.727 0,0 -3.818,0.636 -4.879,-2.651"
       style="fill:none;stroke:#000000;stroke-width:1.37px"
       id="path3092" />
    <g
       transform="matrix(0.824324,0,0,0.824324,13.6473,14.9804)"
       id="g3096">
        <circle
   cx="73.955002"
   cy="87.235001"
   r="1.962"
   style="stroke:#000000;stroke-width:1.66px"
   id="circle3094" />

    </g>
    <g
       transform="matrix(0.824324,0,0,0.824324,27.6473,12.9804)"
       id="g3100">
        <circle
   cx="73.955002"
   cy="87.235001"
   r="1.962"
   style="stroke:#000000;stroke-width:1.66px"
   id="circle3098" />

    </g>
    <path
       d="m 54.386,84.212 c 0,0 4.455,-11.136 16.546,-11.773 0,0 8.166,0 15.485,7.319"
       style="fill:none;stroke:#000000;stroke-width:2.5px"
       id="path3102" />
  </g>
</svg>
