<svg xmlns="http://www.w3.org/2000/svg" height="182" width="160"><g style="clip-rule:evenodd;fill-rule:evenodd;stroke-linecap:round;stroke-linejoin:round;stroke-miterlimit:1.5" transform="translate(3.443 -7.061)"><path d="M84.826 78.591s-7.106-5.409-19.94-4.773c0 0-23.366 11.945-11.772 43.061.719 1.929 4.748 4.683 7.573 4.14 10.79-2.074 6.434.797 15.621.235 0 0 2.684.185 7.245-1.618 0 0 25.773 1.591 29.379-3.606 0 0 3.394-6.363 4.136-11.56 0 0-2.333-9.758-6.576-11.879l-20.787-9.546Z" style="fill:#fff"/><ellipse cx="111.182" cy="103.515" rx="3.553" ry="2.864" style="stroke:#000;stroke-width:1.37px"/><path d="M55.724 107.101c-2.112 14.441 5.981 22.611 4.602 31.096 0 0 11.454 2.651 18.454-1.379 0 0 2.44-3.712-6.575-8.485" style="fill:none;stroke:#000;stroke-width:2.5px" transform="rotate(-78.36 63.84 112.313)"/><path d="M57.674 92.167s-3.288 17.394 5.091 19.303c0 0 8.697.848 5.621-20.046" style="fill:none;stroke:#000;stroke-width:2.5px"/><path d="M110.917 106.379s0 9.545 3.606 3.5" style="fill:none;stroke:#000;stroke-width:1.37px"/><path d="M111.129 106.485s-.106 6.257-2.864 5.727c0 0-3.818.636-4.879-2.651" style="fill:none;stroke:#000;stroke-width:1.37px"/><circle cx="73.955" cy="87.235" r="1.962" style="stroke:#000;stroke-width:1.66px" transform="translate(13.647 14.98) scale(.82432)"/><circle cx="73.955" cy="87.235" r="1.962" style="stroke:#000;stroke-width:1.66px" transform="translate(27.647 12.98) scale(.82432)"/><path d="M54.386 84.212s4.455-11.136 16.546-11.773c0 0 8.166 0 15.485 7.319" style="fill:none;stroke:#000;stroke-width:2.5px"/></g></svg>