<?xml version="1.0" encoding="UTF-8" standalone="no"?>
<!DOCTYPE svg PUBLIC "-//W3C//DTD SVG 1.1//EN" "http://www.w3.org/Graphics/SVG/1.1/DTD/svg11.dtd">
<svg width="100%" height="100%" viewBox="0 0 160 182" version="1.1" xmlns="http://www.w3.org/2000/svg" xmlns:xlink="http://www.w3.org/1999/xlink" xml:space="preserve" xmlns:serif="http://www.serif.com/" style="fill-rule:evenodd;clip-rule:evenodd;stroke-linecap:round;stroke-linejoin:round;stroke-miterlimit:1.5;">
    <g id="g3787" transform="matrix(1,0,0,1,8.61847,1.267)">
        <path id="path3743" d="M84.826,78.591C84.826,78.591 77.72,73.182 64.886,73.818C64.886,73.818 44.523,82.409 53.114,116.879L54.642,126.768L58.212,137.725L68.556,137.833C68.556,137.833 70.395,134.689 67.903,133.608C65.077,132.38 63.416,128.47 64.768,124.42L75.551,124.406L78.287,136.862C78.287,136.862 89.256,138.186 90.423,134.898C90.423,134.898 89.976,135.153 88.575,133.009C87.554,131.447 84.872,131.886 84.979,126.786C84.979,126.786 85.136,125.407 85.089,121.172C85.089,121.172 109.326,121.227 112.932,116.03C112.932,116.03 116.326,109.667 117.068,104.47C117.068,104.47 114.735,94.712 110.492,92.591L89.705,83.045L84.826,78.591Z" style="fill:white;"/>
        <ellipse id="ellipse3745" cx="111.182" cy="103.515" rx="3.553" ry="2.864" style="stroke:black;stroke-width:1.37px;"/>
        <g>
            <g transform="matrix(1,0,0,1,-29.6185,-1.267)">
                <path d="M85.712,124.937C85.712,124.937 85.328,136.457 88.912,137.545C95.479,139.539 98.96,135.945 98.96,135.945C98.96,135.945 99.28,133.321 93.648,132.361L93.904,124.937" style="fill:none;stroke:black;stroke-width:2.5px;"/>
            </g>
            <g transform="matrix(1,0,0,1,-8.61847,-1.267)">
                <path d="M85.712,124.937C85.712,124.937 85.328,136.457 88.912,137.545C95.479,139.539 98.96,135.945 98.96,135.945C98.96,135.945 99.28,133.321 93.648,132.361L93.904,124.937" style="fill:none;stroke:black;stroke-width:2.5px;"/>
            </g>
        </g>
        <path id="path3751" d="M57.674,92.167C57.674,92.167 54.386,109.561 62.765,111.47C62.765,111.47 71.462,112.318 68.386,91.424" style="fill:none;stroke:black;stroke-width:2.5px;"/>
        <path id="path3753" d="M110.917,106.379C110.917,106.379 110.917,115.924 114.523,109.879" style="fill:none;stroke:black;stroke-width:1.37px;"/>
        <path id="path3755" d="M111.129,106.485C111.129,106.485 111.023,112.742 108.265,112.212C108.265,112.212 104.447,112.848 103.386,109.561" style="fill:none;stroke:black;stroke-width:1.37px;"/>
        <g id="g3759" transform="matrix(0.824324,0,0,0.824324,13.6473,14.9804)">
            <circle id="circle3757" cx="73.955" cy="87.235" r="1.962" style="stroke:black;stroke-width:1.66px;"/>
        </g>
        <g id="g3763" transform="matrix(0.824324,0,0,0.824324,27.6473,12.9804)">
            <circle id="circle3761" cx="73.955" cy="87.235" r="1.962" style="stroke:black;stroke-width:1.66px;"/>
        </g>
        <path id="path3765" d="M54.386,84.212C54.386,84.212 58.841,73.076 70.932,72.439C70.932,72.439 79.098,72.439 86.417,79.758" style="fill:none;stroke:black;stroke-width:2.5px;"/>
    </g>
</svg>
