<?xml version="1.0" encoding="UTF-8" standalone="no"?>
<svg
   xmlns:serif="http://www.serif.com/"
   xmlns:dc="http://purl.org/dc/elements/1.1/"
   xmlns:cc="http://creativecommons.org/ns#"
   xmlns:rdf="http://www.w3.org/1999/02/22-rdf-syntax-ns#"
   xmlns:svg="http://www.w3.org/2000/svg"
   xmlns="http://www.w3.org/2000/svg"
   xmlns:xlink="http://www.w3.org/1999/xlink"
   xmlns:sodipodi="http://sodipodi.sourceforge.net/DTD/sodipodi-0.dtd"
   xmlns:inkscape="http://www.inkscape.org/namespaces/inkscape"
   height="182"
   width="160"
   version="1.1"
   id="svg1193"
   sodipodi:docname="front-standing.svg"
   inkscape:version="1.0.2-2 (e86c870879, 2021-01-15)">
  <metadata
     id="metadata1197">
    <rdf:RDF>
      <cc:Work
         rdf:about="">
        <dc:format>image/svg+xml</dc:format>
        <dc:type
           rdf:resource="http://purl.org/dc/dcmitype/StillImage" />
        <dc:title></dc:title>
      </cc:Work>
    </rdf:RDF>
  </metadata>
  <sodipodi:namedview
     pagecolor="#ffffff"
     bordercolor="#666666"
     borderopacity="1"
     objecttolerance="10"
     gridtolerance="10"
     guidetolerance="10"
     inkscape:pageopacity="0"
     inkscape:pageshadow="2"
     inkscape:window-width="2327"
     inkscape:window-height="1307"
     id="namedview1195"
     showgrid="false"
     inkscape:zoom="22.153846"
     inkscape:cx="108.97969"
     inkscape:cy="105.54094"
     inkscape:window-x="0"
     inkscape:window-y="0"
     inkscape:window-maximized="0"
     inkscape:current-layer="svg1193"
     inkscape:document-rotation="0" />
  <defs
     id="defs1185">
    <g
       id="c">
      <path
         d="M.4-60h3.9l1.2.55 3.9-8.6 3.85 8.6L14.5-60l3.15 3.05 1.15 1.05-.05.05-.4.4.1.1q2.1 2.05 2.35 4.55v.6q0 1.65-.8 3.1l-.25.45-1.4 1.7.15.15-.3.25-3.25.9v4.7l-3.25.7-3.1.9.65 1.6 3.3-1.25 3-.6q1.55 0 2.15.6.8.8.8 2 0 1.1-.75 1.85-1.05 1.05-4.1 1.25l-1.25.05.35 1.5 1.5-.05-.05 2.75-1.5 1.25v12.25l-.85 4.6h-1.5V-3q0 .7-.45 1.15-.55.55-1.6.55-1.15 0-1.65-.55Q6.2-2.3 6.25-3v-6.55h-1.6l-2.35-3.5H.55L-3-9.55V-3q0 .7-.45 1.15-.55.55-1.6.55-1.1 0-1.65-.55-.45-.45-.4-1.15v-6.55h-1.55l-1.7-1.1-1.75-3.9v-3.9l.45-.4q.75-.6 1.35-1.55l-1.25-1-.7.95.4-10.95 1.75-12.8.4.35.75-.7-1-1.1q-1.55-1.9-1.5-4.15l.05-1q.35-2.3 2.45-4.25l-.75-.75.5-3.95.65.3 3.85-8.6 3.85 8.6L.4-60m10.1 14.7v1.9h1.3v-3.25h-1.15v-9.45h-6.2v3.85l-.05 1.1-.45 2.45-1 2.05H2v3.3h1.35v-1.95h7.15m-6.05-1.35l.5-.9.9-3.55v-.05l.05-.35v-3.25h3.4v8.1H4.45m14.3-9.2l-1.1-1.1 1.1 1.1M5.5-37.95Q4.45-39 2.25-39l-4 .75-3.1.9.65 1.6L-.9-37l3-.6q1.55 0 2.15.6.8.8.8 2 0 1.1-.75 1.85Q3.25-32.1.25-31.9l-1.3.05.35 1.5q3.95-.05 5.9-1.55l.45-.35q1-1 1-2.85-.05-1.8-1.15-2.85M-7.15-43.6l.75-1.55v-1.35h-1.5v1.45h.55l-.55 1.45h.75M-5-45.05h.55L-5-43.6h.75l.75-1.55v-1.35H-5v1.45"
         fill="#fff"
         fill-rule="evenodd"
         transform="translate(21.55 71)"
         id="path1171" />
      <path
         d="M4.3-60l5.1-11 5.1 11-1.25.55-3.85-8.6-3.9 8.6L4.3-60m14.5 4.1l.25-.3q2.55 2.35 2.8 5.4v.6q0 1.9-.9 3.55-.7 1.25-1.9 2.4l-.55-.55-.15-.15 1.4-1.7.25-.45q.8-1.45.8-3.1v-.6q-.25-2.5-2.35-4.55l-.1-.1.4-.4.05-.05m-3.85 16.95l.75-.05q2.2 0 3.25 1.05 1.1 1.05 1.1 2.85 0 1.85-1 2.85l-.4.35q-1.55 1.2-4.4 1.5l-1.5.05-.35-1.5 1.25-.05q3.05-.2 4.1-1.25.75-.75.75-1.85 0-1.2-.8-2-.6-.6-2.15-.6l-3 .6-3.3 1.25-.65-1.6 3.1-.9 3.25-.7m-3.1 29.4v6.6q0 1.25-.8 2.05-.9.9-2.75.9-1.95 0-2.85-.9-.8-.8-.8-2.05v-6.6h1.6V-3q-.05.7.4 1.15.5.55 1.65.55 1.05 0 1.6-.55.45-.45.45-1.15v-6.55h1.5M-3-9.55h1.5v6.6q0 1.25-.8 2.05-.9.9-2.75.9-1.9 0-2.8-.9-.85-.8-.8-2.05v-6.6h1.55V-3q-.05.7.4 1.15.55.55 1.65.55 1.05 0 1.6-.55Q-3-2.3-3-3v-6.55m-9.1-8.9q-.7.45-1.6.45-1 0-2.7-1.1l-1.9-.65q-.85 0-1.3.55l-.6.95-1.35-.75 1.2-1.65q.85-.8 1.95-.8t2.3.8q1.65.85 2.55.85.6 0 1.3-.65l.7-.95 1.25 1q-.6.95-1.35 1.55l-.45.4m2-25.75l-.6-.7q-1.85-2.2-1.8-4.9l.05-1q.35-2.8 2.75-5l.75.75q-2.1 1.95-2.45 4.25l-.05 1q-.05 2.25 1.5 4.15l1 1.1-.75.7-.4-.35m.9-15.55l-.55-.25 5.05-11L.4-60l-1.25.55-3.85-8.6-3.85 8.6-.65-.3M2-43.4v-3.25h.95l1-2.05.45-2.45.05-1.1v-3.85h6.2v9.45h1.15v3.25h-1.3v-1.95H3.35v1.95H2m7.3-11.35v-.05H5.85v3.25l-.05.35v.05l-.9 3.55-.5.9-.05.05H9.3v-8.1m-3.8 16.8q1.1 1.05 1.15 2.85 0 1.85-1 2.85l-.45.35q-1.95 1.5-5.9 1.55l-.35-1.5 1.3-.05q3-.2 4.05-1.25.75-.75.75-1.85 0-1.2-.8-2-.6-.6-2.15-.6l-3 .6-3.3 1.25-.65-1.6 3.1-.9 4-.75q2.2 0 3.25 1.05M-5-45.05v-1.45h1.5v1.35l-.75 1.55H-5l.55-1.45H-5m-2.15 1.45h-.75l.55-1.45h-.55v-1.45h1.5v1.35l-.75 1.55"
         fill-rule="evenodd"
         transform="translate(21.55 71)"
         id="path1173" />
      <path
         d="M.4-60h3.9m8.4 33.6v9.45m0 0v2.8m4.95-42.8l1.1 1.1"
         fill="none"
         stroke="#000"
         stroke-linecap="round"
         stroke-linejoin="round"
         transform="translate(21.55 71)"
         id="path1175" />
    </g>
    <g
       id="d"
       transform="translate(.8)">
      <use
         height="3"
         transform="matrix(1.005 0 0 1 -.804 0)"
         width="4.65"
         xlink:href="#a"
         id="use1178" />
      <use
         height="3"
         transform="matrix(1.005 0 0 1 16.096 0)"
         width="4.65"
         xlink:href="#a"
         id="use1180" />
    </g>
    <path
       d="M1.35 0h.2l.55.1.45.35q.45.45.45 1L2.55 2.6q-.45.4-1 .4l-.8-.2-.25-.2-.45-.7v-.15L0 1.45v-.1q.05-.5.5-.9l.25-.2Q1 .05 1.3 0h.05m.45.85L1.55.8Q1.2.75 1 1q-.2.15-.2.45v.15l.15.45H1l.05.05.2.1.3.05.55-.2.15-.6-.05-.3L2.1 1 2.05.95 1.9.85h-.1"
       fill-rule="evenodd"
       id="b" />
    <use
       height="3"
       transform="translate(.8)"
       width="3"
       xlink:href="#b"
       id="a" />
  </defs>
  <g
     style="clip-rule:evenodd;fill-rule:evenodd;stroke-linecap:square;stroke-linejoin:round;stroke-miterlimit:1.5"
     id="g1279"
     transform="translate(9.558,-0.046)">
    <path
       id="body-fill"
       serif:id="body fill"
       d="m 57.045,94.382 c 0,0 -15.684,-7.452 -9.988,-26.716 2.544,-8.603 8.892,-12.622 13.478,-14.878 5.684,-2.795 10.366,-2.77 10.366,-2.77 0,0 15.584,-4.212 21.6,-1.204 6.016,3.008 9.152,1.6 18.048,11.328 8.896,9.728 3.008,7.168 7.232,12.096 0,0 3.2,14.144 -2.88,18.688 0,0 -8.192,13.376 -30.912,12.032 l 0.192,2.88 c 0,0 8.704,24.512 6.272,29.248 0,0 -4.16,8.96 -25.856,5.504 0,0 -10.88,-4.288 -9.152,-20.224 l 3.2,-25.088 z"
       style="fill:#ffffff;stroke:#ffffff;stroke-width:0.21px" />
    <g
       id="Mouth">
      <path
         d="m 89.78,69.855 -11.2,15.52"
         style="fill:none;stroke:#000000;stroke-width:2px"
         id="path1200" />
      <path
         d="M 92.58,87.775 90.307,70.758"
         style="fill:none;stroke:#000000;stroke-width:2px"
         id="path1202" />
      <path
         d="m 83.38,78.815 8.24,2.32"
         style="fill:none;stroke:#000000;stroke-width:2px;stroke-linecap:round"
         id="path1204" />
    </g>
    <g
       transform="matrix(2,0,0,2,82.341,144.2)"
       id="g1227">
      <g
         transform="matrix(0.5,0,0,0.5,-41.1705,-72.1)"
         id="g1209">
        <path
           d="m 84.629,102.638 c 0,0 20.8,2.304 31.04,-12.928"
           style="fill:none;stroke:#000000;stroke-width:2.5px"
           id="path1207" />
      </g>
      <g
         transform="matrix(0.5,0,0,0.5,-41.1705,-72.1)"
         id="g1213">
        <path
           d="m 46.178,74.886 c -1.75,-12.75 11.76,-20.72 11.76,-20.72 0,0 42.627,-22.12 59.587,17.88"
           style="fill:none;stroke:#000000;stroke-width:2.5px"
           id="path1211" />
      </g>
      <g
         transform="matrix(0.5,0,0,0.5,-41.1705,-72.1)"
         id="g1217">
        <path
           d="m 79.06,57.455 -5.2,4.4"
           style="fill:none;stroke:#000000;stroke-width:2px"
           id="path1215" />
      </g>
      <g
         transform="matrix(0.5,0,0,0.5,-41.1705,-72.1)"
         id="g1221">
        <path
           d="m 101.22,62.575 0.16,6.64"
           style="fill:none;stroke:#000000;stroke-width:2px"
           id="path1219" />
      </g>
      <g
         transform="matrix(0.5,0,0,0.5,-41.1705,-72.1)"
         id="g1225">
        <path
           d="m 84.2,102.595 11.083,8.751 c 0,0 7.136,2.61 13.616,-10.27"
           style="fill:none;stroke:#000000;stroke-width:2px;stroke-linecap:butt"
           id="path1223" />
      </g>
    </g>
    <g
       id="cigarette"
       transform="matrix(1.83526,0.862047,-0.419791,0.893718,66.3765,105.97)">
      <g
         transform="matrix(0.5,0,0,0.5,-41.1705,-72.1)"
         id="g1231" />
      <g
         transform="matrix(0.5,0,0,0.5,-41.1705,-72.1)"
         id="g1235" />
    </g>
    <path
       d="m 58.82,94.303 c 0,0 -5.36,25.312 -2.32,37.232"
       style="fill:none;stroke:#000000;stroke-width:2.52px;stroke-linecap:butt"
       id="path1238" />
    <path
       d="M 58.141,95.487 43.13,138.904"
       style="fill:none;stroke:#000000;stroke-width:2px"
       id="path1240" />
    <path
       d="m 66.9,140.335 12.4,-26.96 20.48,30"
       style="fill:none;stroke:#000000;stroke-width:2px;stroke-linecap:round"
       id="path1242" />
    <path
       d="m 84.5,139.215 8.96,-23.44 23.04,23.76"
       style="fill:none;stroke:#000000;stroke-width:2px;stroke-linecap:round"
       id="path1244" />
  </g>
  <path
     d="m 121.30097,100.84558 11.50811,8.46141 c -1.63475,3.83756 -1.35831,3.24368 -5.44447,0.49738 -5.3212,-3.57007 -9.7453,-7.45769 -9.7453,-7.45769"
     style="clip-rule:evenodd;fill:#ffffff;fill-rule:evenodd;stroke:#000000;stroke-width:0.811998;stroke-linecap:round;stroke-linejoin:round;stroke-miterlimit:1.5;stroke-dasharray:none;stroke-opacity:1"
     id="path929"
     sodipodi:nodetypes="cccc" />
  <path
     d="m 118.74336,103.14281 c 0,0 -4.02251,-2.50141 -4.91851,-4.089393 -0.3822,-0.67729 0.41767,-1.86583 1.67219,-2.16975 0,0 0.97462,0.10749 5.81966,3.902483 z"
     style="clip-rule:evenodd;fill:#ffae00;fill-rule:evenodd;stroke:#000000;stroke-width:0.811998;stroke-linecap:round;stroke-linejoin:round;stroke-miterlimit:1.5;stroke-dasharray:none;stroke-opacity:1"
     id="path933"
     sodipodi:nodetypes="csccc" />
</svg>
