<?xml version="1.0" encoding="UTF-8" standalone="no"?>
<svg
   xmlns:dc="http://purl.org/dc/elements/1.1/"
   xmlns:cc="http://creativecommons.org/ns#"
   xmlns:rdf="http://www.w3.org/1999/02/22-rdf-syntax-ns#"
   xmlns:svg="http://www.w3.org/2000/svg"
   xmlns="http://www.w3.org/2000/svg"
   xmlns:xlink="http://www.w3.org/1999/xlink"
   xmlns:sodipodi="http://sodipodi.sourceforge.net/DTD/sodipodi-0.dtd"
   xmlns:inkscape="http://www.inkscape.org/namespaces/inkscape"
   height="741.525"
   width="1281.525"
   version="1.1"
   id="svg238"
   sodipodi:docname="background.svg"
   inkscape:version="1.0.1 (3bc2e813f5, 2020-09-07, custom)">
  <metadata
     id="metadata242">
    <rdf:RDF>
      <cc:Work
         rdf:about="">
        <dc:format>image/svg+xml</dc:format>
        <dc:type
           rdf:resource="http://purl.org/dc/dcmitype/StillImage" />
        <dc:title></dc:title>
      </cc:Work>
    </rdf:RDF>
  </metadata>
  <sodipodi:namedview
     pagecolor="#ffffff"
     bordercolor="#666666"
     borderopacity="1"
     objecttolerance="10"
     gridtolerance="10"
     guidetolerance="10"
     inkscape:pageopacity="0"
     inkscape:pageshadow="2"
     inkscape:window-width="820"
     inkscape:window-height="1058"
     id="namedview240"
     showgrid="false"
     inkscape:zoom="1.3849421"
     inkscape:cx="733.05267"
     inkscape:cy="286.98642"
     inkscape:window-x="0"
     inkscape:window-y="20"
     inkscape:window-maximized="0"
     inkscape:current-layer="svg238"
     inkscape:document-rotation="0" />
  <path
     d="M641.025 101.025l-40 20-40 20-200 100 40 20-80 40-40-20-280 140 280 140 40-20 80 40-40 20 280 140 280-140-40-20 80-40 40 20 280-140-280-140-40 20-80-40 40-20-95.05-47.5z"
     fill="#bcbcbc"
     fill-rule="evenodd"
     id="path2" />
  <path
     d="M361.025 241.025l200-100 40-20 40-20 184.95 92.5"
     fill="none"
     stroke="#000"
     stroke-linecap="round"
     stroke-linejoin="round"
     stroke-width=".05"
     id="path4" />
  <path
     d="M641.025 101.025l280 140-40 20 80 40 40-20 280 140-280 140-40-20-80 40 40 20-280 140-280-140 40-20-80-40-40 20-280-140 280-140 40 20 80-40-40-20"
     fill="none"
     stroke="#000"
     stroke-linecap="round"
     stroke-linejoin="round"
     id="path6" />
  <use
     height="106.5"
     transform="translate(400.475 94.525)"
     width="160.5"
     xlink:href="#shape1"
     id="use8" />
  <use
     height="39.25"
     transform="translate(407.875 152.525)"
     width="12.4"
     xlink:href="#shape2"
     id="use10" />
  <use
     height="39.25"
     transform="translate(423.375 144.975)"
     width="12.4"
     xlink:href="#shape2"
     id="use12" />
  <use
     height="39.25"
     transform="translate(447.725 132.475)"
     width="12.4"
     xlink:href="#shape2"
     id="use14" />
  <use
     height="108.25"
     transform="translate(400.475 61.025)"
     width="160.5"
     xlink:href="#shape3"
     id="use16" />
  <use
     height="26.85"
     transform="translate(410.575 131.225)"
     width="10.5"
     xlink:href="#shape4"
     id="use18" />
  <use
     height="26.85"
     transform="translate(434.325 119.975)"
     width="10.5"
     xlink:href="#shape5"
     id="use20" />
  <use
     height="26.85"
     transform="translate(484.225 94.225)"
     width="10.5"
     xlink:href="#shape4"
     id="use22" />
  <use
     height="12.25"
     transform="translate(511.125 84.325)"
     width="7.7"
     xlink:href="#shape6"
     id="use24" />
  <use
     height="12.25"
     transform="translate(520.875 90.025)"
     width="7.7"
     xlink:href="#shape6"
     id="use26" />
  <use
     height="12.25"
     transform="translate(530.375 84.125)"
     width="7.7"
     xlink:href="#shape6"
     id="use28" />
  <use
     height="12.25"
     transform="translate(520.725 76.875)"
     width="7.7"
     xlink:href="#shape6"
     id="use30" />
  <use
     height="241"
     transform="translate(359.975 .525)"
     width="281"
     xlink:href="#shape7"
     id="use32" />
  <use
     height="101"
     transform="translate(600.525 20.525)"
     width="41"
     xlink:href="#shape8"
     id="use34" />
  <use
     height="26"
     transform="translate(621.025 111.775)"
     width="51"
     xlink:href="#sprite1"
     id="use36" />
  <use
     height="482.7"
     transform="translate(109.975 183.875)"
     width="1062.55"
     xlink:href="#sprite2"
     id="use38" />
  <use
     height="240"
     transform="translate(641.025 1.025)"
     width="280"
     xlink:href="#shape11"
     id="use40" />
  <use
     height="240"
     transform="translate(1001.025 181.025)"
     width="280"
     xlink:href="#shape11"
     id="use42" />
  <use
     height="240"
     transform="translate(1.025 181.025)"
     width="280"
     xlink:href="#shape12"
     id="use44" />
  <defs
     id="defs29202">
    <linearGradient
       gradientTransform="matrix(.013 0 0 .0162 27.6 -53.25)"
       gradientUnits="userSpaceOnUse"
       id="gradient0"
       spreadMethod="pad"
       x1="-819.2"
       x2="819.2">
      <stop
         offset="0"
         stop-color="#484848"
         id="stop28492" />
      <stop
         offset="1"
         stop-color="#aaa"
         id="stop28494" />
    </linearGradient>
    <linearGradient
       gradientTransform="matrix(.0056 .0097 -.0943 .0546 -46.35 -11)"
       gradientUnits="userSpaceOnUse"
       id="gradient1"
       spreadMethod="pad"
       x1="-819.2"
       x2="819.2">
      <stop
         offset="0"
         stop-color="#6c6c6c"
         id="stop28497" />
      <stop
         offset="1"
         stop-color="#c8c8c8"
         id="stop28499" />
    </linearGradient>
    <linearGradient
       gradientTransform="matrix(.0058 0 0 .01 0 -5.3)"
       gradientUnits="userSpaceOnUse"
       id="gradient2"
       spreadMethod="pad"
       x1="-819.2"
       x2="819.2">
      <stop
         offset="0"
         stop-color="#8d8572"
         id="stop28513" />
      <stop
         offset=".51"
         stop-color="#9f978a"
         stop-opacity=".502"
         id="stop28515" />
      <stop
         offset="1"
         stop-color="#8d8572"
         id="stop28517" />
    </linearGradient>
    <linearGradient
       gradientTransform="matrix(.0058 0 0 .0029 0 -13.85)"
       gradientUnits="userSpaceOnUse"
       id="gradient3"
       spreadMethod="pad"
       x1="-819.2"
       x2="819.2">
      <stop
         offset="0"
         stop-color="#8d8572"
         id="stop28520" />
      <stop
         offset=".51"
         stop-color="#7b7264"
         stop-opacity=".502"
         id="stop28522" />
      <stop
         offset="1"
         stop-color="#8d8572"
         id="stop28524" />
    </linearGradient>
    <linearGradient
       gradientTransform="matrix(.0055 .0096 -.0945 .0543 -46.65 -43.4)"
       gradientUnits="userSpaceOnUse"
       id="gradient4"
       spreadMethod="pad"
       x1="-819.2"
       x2="819.2">
      <stop
         offset="0"
         stop-color="#6c6c6c"
         id="stop28544" />
      <stop
         offset="1"
         stop-color="#c8c8c8"
         id="stop28546" />
    </linearGradient>
    <linearGradient
       gradientTransform="matrix(.0139 0 0 .0172 26.85 -85.9)"
       gradientUnits="userSpaceOnUse"
       id="gradient5"
       spreadMethod="pad"
       x1="-819.2"
       x2="819.2">
      <stop
         offset="0"
         stop-color="#484848"
         id="stop28549" />
      <stop
         offset="1"
         stop-color="#aaa"
         id="stop28551" />
    </linearGradient>
    <linearGradient
       gradientTransform="matrix(.0045 0 0 .008 .05 -4.15)"
       gradientUnits="userSpaceOnUse"
       id="gradient6"
       spreadMethod="pad"
       x1="-819.2"
       x2="819.2">
      <stop
         offset="0"
         stop-color="red"
         id="stop28567" />
      <stop
         offset=".51"
         stop-color="#fe9292"
         stop-opacity=".502"
         id="stop28569" />
      <stop
         offset="1"
         stop-color="red"
         id="stop28571" />
    </linearGradient>
    <linearGradient
       gradientTransform="matrix(.0042 0 0 .0022 -.05 -10.7)"
       gradientUnits="userSpaceOnUse"
       id="gradient7"
       spreadMethod="pad"
       x1="-819.2"
       x2="819.2">
      <stop
         offset="0"
         stop-color="red"
         id="stop28574" />
      <stop
         offset=".51"
         stop-color="#fe4949"
         stop-opacity=".502"
         id="stop28576" />
      <stop
         offset="1"
         stop-color="red"
         id="stop28578" />
    </linearGradient>
    <linearGradient
       gradientTransform="matrix(.0046 0 0 .0022 -.05 -10.7)"
       gradientUnits="userSpaceOnUse"
       id="gradient8"
       spreadMethod="pad"
       x1="-819.2"
       x2="819.2">
      <stop
         offset="0"
         stop-color="#00f"
         id="stop28594" />
      <stop
         offset=".51"
         stop-color="#5656fe"
         stop-opacity=".502"
         id="stop28596" />
      <stop
         offset="1"
         stop-color="#00f"
         id="stop28598" />
    </linearGradient>
    <linearGradient
       gradientTransform="matrix(.0044 0 0 .008 .25 -4.15)"
       gradientUnits="userSpaceOnUse"
       id="gradient9"
       spreadMethod="pad"
       x1="-819.2"
       x2="819.2">
      <stop
         offset="0"
         stop-color="#00f"
         id="stop28601" />
      <stop
         offset=".51"
         stop-color="#9e9ffe"
         stop-opacity=".502"
         id="stop28603" />
      <stop
         offset="1"
         stop-color="#00f"
         id="stop28605" />
    </linearGradient>
    <linearGradient
       gradientTransform="matrix(.0028 0 0 .0048 -.2 -4.05)"
       gradientUnits="userSpaceOnUse"
       id="gradient10"
       spreadMethod="pad"
       x1="-819.2"
       x2="819.2">
      <stop
         offset="0"
         stop-color="#fff"
         stop-opacity=".502"
         id="stop28617" />
      <stop
         offset="1"
         stop-color="#fff"
         stop-opacity=".102"
         id="stop28619" />
    </linearGradient>
    <linearGradient
       gradientTransform="matrix(.0027 0 0 .002 -.2 -.1)"
       gradientUnits="userSpaceOnUse"
       id="gradient11"
       spreadMethod="pad"
       x1="-819.2"
       x2="819.2">
      <stop
         offset="0"
         stop-color="#fff"
         stop-opacity=".502"
         id="stop28622" />
      <stop
         offset="1"
         stop-color="#fff"
         stop-opacity=".102"
         id="stop28624" />
    </linearGradient>
    <linearGradient
       gradientTransform="matrix(.0028 0 0 .002 -.2 -8)"
       gradientUnits="userSpaceOnUse"
       id="gradient12"
       spreadMethod="pad"
       x1="-819.2"
       x2="819.2">
      <stop
         offset="0"
         stop-color="#fff"
         stop-opacity=".502"
         id="stop28627" />
      <stop
         offset="1"
         stop-color="#fff"
         stop-opacity=".102"
         id="stop28629" />
    </linearGradient>
    <linearGradient
       gradientTransform="matrix(.1682 0 0 .1465 -19.75 -40)"
       gradientUnits="userSpaceOnUse"
       id="gradient13"
       spreadMethod="pad"
       x1="-819.2"
       x2="819.2">
      <stop
         offset="0"
         stop-color="#9a9a9a"
         id="stop28639" />
      <stop
         offset=".235"
         stop-color="#aaa"
         id="stop28641" />
      <stop
         offset=".502"
         stop-color="#9a9a9a"
         id="stop28643" />
      <stop
         offset=".769"
         stop-color="#aaa"
         id="stop28645" />
      <stop
         offset=".984"
         stop-color="#9a9a9a"
         id="stop28647" />
    </linearGradient>
    <linearGradient
       gradientTransform="matrix(.0223 0 0 .0463 19.75 -62.1)"
       gradientUnits="userSpaceOnUse"
       id="gradient14"
       spreadMethod="pad"
       x1="-819.2"
       x2="819.2">
      <stop
         offset="0"
         stop-color="#1e1e1e"
         id="stop28675" />
      <stop
         offset="1"
         stop-color="#aaa"
         id="stop28677" />
    </linearGradient>
    <g
       id="shape1"
       transform="translate(120 66.5)">
      <path
         d="M13.5-53.25L40-66.5V-40L13.5-53.25"
         fill="url(#gradient0)"
         fill-rule="evenodd"
         stroke="none"
         id="path28485" />
      <path
         d="M40-40l-160 80V13.5L13.5-53.25 40-40"
         fill="url(#gradient1)"
         fill-rule="evenodd"
         stroke="none"
         id="path28487" />
      <path
         d="M13.5-53.25L40-40"
         fill="none"
         stroke="#000"
         stroke-linecap="round"
         stroke-linejoin="round"
         stroke-width="1"
         id="path28489" />
    </g>
    <g
       id="shape2"
       transform="translate(6.15 35.85)">
      <path
         d="M-5.65-13.5q.25.7 1.6 1.3 1.7.7 4.1.7 2.4 0 4.05-.7 1.35-.55 1.65-1.25V.05q-.05 1.2-1.7 2-1.65.85-4 .85t-4-.85q-1.7-.8-1.7-2V-13.5"
         fill="url(#gradient2)"
         fill-rule="evenodd"
         stroke="none"
         id="path28502" />
      <path
         d="M-5.65-14.15q.25-.75 1.6-1.35 1.7-.7 4.1-.7 2.4 0 4.05.7 1.35.55 1.65 1.3v.75-.75l.05.35-.05.4q-.3.7-1.65 1.25-1.65.7-4.05.7t-4.1-.7q-1.35-.6-1.6-1.3v-.65.65l-.05-.35.05-.3"
         fill="url(#gradient3)"
         fill-rule="evenodd"
         stroke="none"
         id="path28504" />
      <path
         d="M2.05-34.25q-.1.4-.6.65-.6.3-1.45.3-.9 0-1.45-.3l-.6-.6m-3.6 19.1v.95m11.4-.05v-.9m-3.7-19.15v-.1l-.6-.7-1.45-.3-1.45.3-.6.7v.15m7.8 20v.75m-11.4-.05V0m0 .05q0 1.2 1.7 2 1.65.85 4 .85t4-.85q1.65-.8 1.7-2m0-.05v-13.45m-7.8-7.45v-.3m-3.6 7.7v-.65"
         fill="none"
         stroke="#000"
         stroke-linecap="round"
         stroke-linejoin="round"
         stroke-width="1"
         id="path28506" />
      <path
         d="M-2.05-34.2v13.3q-3.85 1.5-3.6 5.8m11.4 0q.05-4.25-3.7-5.95v-13.2"
         fill="none"
         stroke="#000"
         stroke-linecap="round"
         stroke-linejoin="round"
         stroke-width="1"
         id="path28508" />
      <path
         d="M5.75-13.45l.05-.4-.05-.35m-11.4.05l-.05.3.05.35"
         fill="none"
         stroke="#000"
         stroke-linecap="round"
         stroke-linejoin="round"
         stroke-width=".05"
         id="path28510" />
    </g>
    <g
       id="shape3"
       transform="translate(120 100)">
      <path
         d="M13.1-47.55q2-2.1 3.15-4.95l1.2.45q.4.15-.1.5l-.05.05q-1.1 2.35-2.6 4.15-1.15 1.3-2.5 2.3l-.9-.95q1-.7 1.8-1.55m5.2-2.25l1.1.4q.35.15.15.35h-.2L17.6-45.9q-1.4 1.85-3.35 3.3l-.8-.9q1.85-1.5 3.15-3.15 1.1-1.55 1.7-3.15m2.15 2.3l.05-.15 1.25.4q.65.25.05.4-.7 2.5-2.95 4.75-1.4 1.55-3.55 3l-.9-1q2.8-2 4.35-3.95 1.3-1.7 1.7-3.45m-28.8 17.65l-4.8-.05 6.1-9.6.95.6-5.2 8 9.5.1-.05 1.05-6.5-.1M8.6-43.35l.55 1.05-1.1.55-.55-1.05 1.1-.55m2.65 4.95l.3.55-1.1.55-.3-.55-.3-.55 1.1-.55.3.55m-4 2.15l.15.25-1.15.6-.3-.5-6.65 3.55-.55-1.05 6.65-3.55-2.25-4.25-6.65 3.55-.55-1.05 7.8-4.15.35.7 3.15 5.9"
         fill="#000"
         fill-rule="evenodd"
         stroke="none"
         id="path28527" />
      <path
         d="M17.35-51.55l.95 1.75q-.6 1.6-1.7 3.15-1.3 1.65-3.15 3.15l.8.9q1.95-1.45 3.35-3.3l1.75-3.15h.2l.9 1.55q-.4 1.75-1.7 3.45-1.55 1.95-4.35 3.95l-3.15 1.7-.3-.55-1.1.55.3.55-2.9 1.6-3.15-5.9L11.3-46l.9.95q1.35-1 2.5-2.3 1.5-1.8 2.6-4.15l.05-.05M-6.1-38.9v.05l1.1 2 1.5-.8 6.65-3.55 2.25 4.25-6.65 3.55-1.5.8.95 1.8-9.5-.1 5.2-8m14.7-4.45l-1.1.55.55 1.05 1.1-.55-.55-1.05"
         fill="#ffb6c1"
         fill-rule="evenodd"
         stroke="none"
         id="path28529" />
      <path
         d="M18.85-42.1q-.25 1.9-1.85 4.15l-.4.55q-2.85 3.8-8.1 6.6t-9.95 3.05l-.75.05q-2.4.05-3.95-.55-1.45-.55-2.2-1.6l6.5.1.05-1.05-.95-1.8 1.5-.8.55 1.05 6.65-3.55.3.5L7.4-36l-.15-.25 2.9-1.6.3.55 1.1-.55-.3-.55 3.15-1.7.9 1q2.15-1.45 3.55-3M-6.1-38.85q2.75-3.2 7.3-5.6 5.65-3.05 10.65-3.15l1.25.05q-.8.85-1.8 1.55l-7.2 3.85-.35-.7-7.8 4.15.55 1.05-1.5.8-1.1-2"
         fill="#fff"
         fill-rule="evenodd"
         stroke="none"
         id="path28531" />
      <path
         d="M19.4-49.4q.35.15.15.35"
         fill="none"
         stroke="#00f"
         stroke-linecap="round"
         stroke-linejoin="round"
         stroke-width=".05"
         id="path28533" />
      <path
         d="M18.85-42.1q-.25 1.9-1.85 4.15l-.4.55q-2.85 3.8-8.1 6.6t-9.95 3.05l-.75.05q-2.4.05-3.95-.55-1.45-.55-2.2-1.6m2.25-9q2.75-3.2 7.3-5.6 5.65-3.05 10.65-3.15l1.25.05"
         fill="none"
         stroke="#000"
         stroke-linecap="round"
         stroke-linejoin="round"
         stroke-width="1"
         id="path28535" />
      <path
         d="M12.6-85.45L40-71.75l-160 80V-20L12.25-86.1l.35.65"
         fill="url(#gradient4)"
         fill-rule="evenodd"
         stroke="none"
         id="path28537" />
      <path
         d="M40-71.75l-27.4-13.7-.35-.65L40-100v28.25"
         fill="url(#gradient5)"
         fill-rule="evenodd"
         stroke="none"
         id="path28539" />
      <path
         d="M40-71.75l-27.4-13.7"
         fill="none"
         stroke="#000"
         stroke-linecap="round"
         stroke-linejoin="round"
         stroke-width="1"
         id="path28541" />
    </g>
    <g
       id="shape4"
       transform="translate(5.15 23.95)">
      <path
         d="M-2.55-16.15v.15-.15"
         fill="#fff"
         fill-rule="evenodd"
         stroke="none"
         id="path28554" />
      <path
         d="M-4.65-10.7q0 .75 1.4 1.25 1.4.55 3.35.55 1.95 0 3.35-.55 1.2-.45 1.4-1.05V0q-.05 1-1.4 1.7-1.4.7-3.35.7-2 0-3.35-.7-1.4-.7-1.4-1.7v-10.7"
         fill="url(#gradient6)"
         fill-rule="evenodd"
         stroke="none"
         id="path28556" />
      <path
         d="M-4.65-10.7q0-.75 1.4-1.3l3.35-.5 3.35.5q1.2.5 1.4 1.1v.4q-.2.6-1.4 1.05-1.4.55-3.35.55-1.95 0-3.35-.55-1.4-.5-1.4-1.25"
         fill="url(#gradient7)"
         fill-rule="evenodd"
         stroke="none"
         id="path28558" />
      <path
         d="M2.75-22.05q-.1.5-.8.85-.75.4-1.85.4l-1.9-.4q-.65-.35-.75-.8m-2.1 9.55v1.75m7.4-11.35v-.1q0-.55-.8-.9-.75-.4-1.85-.4l-1.9.4q-.8.35-.75.9v.15m7.4 22q-.05 1-1.4 1.7-1.4.7-3.35.7-2 0-3.35-.7-1.4-.7-1.4-1.7v-10.7m2.1-5.3v-.15"
         fill="none"
         stroke="#000"
         stroke-linecap="round"
         stroke-linejoin="round"
         stroke-width="1"
         id="path28560" />
      <path
         d="M-2.55-22v5.85m0 .15q-1.95 1.1-2.1 3.55m9.5 1.55v-1.7q.05-2.5-2.1-3.3v-6.15m2.1 11.55V0"
         fill="none"
         stroke="#000"
         stroke-linecap="round"
         stroke-linejoin="round"
         stroke-width="1"
         id="path28562" />
      <path
         d="M4.85-10.9v.4"
         fill="none"
         stroke="#000"
         stroke-linecap="round"
         stroke-linejoin="round"
         stroke-width=".05"
         id="path28564" />
    </g>
    <g
       id="shape5"
       transform="translate(5.15 23.95)">
      <path
         d="M-2.55-16v-.15.15"
         fill="#fff"
         fill-rule="evenodd"
         stroke="none"
         id="path28581" />
      <path
         d="M4.85-10.9v.4q-.2.6-1.4 1.05-1.4.55-3.35.55-1.95 0-3.35-.55-1.4-.5-1.4-1.25t1.4-1.3l3.35-.5 3.35.5q1.2.5 1.4 1.1"
         fill="url(#gradient8)"
         fill-rule="evenodd"
         stroke="none"
         id="path28583" />
      <path
         d="M4.85-10.5V0q-.05 1-1.4 1.7-1.4.7-3.35.7-2 0-3.35-.7-1.4-.7-1.4-1.7v-10.7q0 .75 1.4 1.25 1.4.55 3.35.55 1.95 0 3.35-.55 1.2-.45 1.4-1.05"
         fill="url(#gradient9)"
         fill-rule="evenodd"
         stroke="none"
         id="path28585" />
      <path
         d="M-2.55-22v-.15q-.05-.55.75-.9l1.9-.4q1.1 0 1.85.4.8.35.8.9v.1M4.85 0q-.05 1-1.4 1.7-1.4.7-3.35.7-2 0-3.35-.7-1.4-.7-1.4-1.7v-12.45m2.1-3.55v-.15m0-5.85q.1.45.75.8l1.9.4q1.1 0 1.85-.4.7-.35.8-.85"
         fill="none"
         stroke="#000"
         stroke-linecap="round"
         stroke-linejoin="round"
         stroke-width="1"
         id="path28587" />
      <path
         d="M2.75-22.05v6.15q2.15.8 2.1 3.3v1.7m0 .4V0m-9.5-12.45q.15-2.45 2.1-3.55m0-.15V-22"
         fill="none"
         stroke="#000"
         stroke-linecap="round"
         stroke-linejoin="round"
         stroke-width="1"
         id="path28589" />
      <path
         d="M4.85-10.9v.4"
         fill="none"
         stroke="#000"
         stroke-linecap="round"
         stroke-linejoin="round"
         stroke-width=".05"
         id="path28591" />
    </g>
    <g
       id="shape6"
       transform="translate(3.85 10.15)">
      <path
         d="M3.35-7.95V-.1q-.05-.7-1-1.15-1-.5-2.35-.5-1.4 0-2.35.5-1 .45-1 1.15v-7.75q.1.6 1 1.05.95.45 2.35.5 1.35-.05 2.35-.5.95-.5 1-1.15"
         fill="url(#gradient10)"
         fill-rule="evenodd"
         stroke="none"
         id="path28608" />
      <path
         d="M3.35-.1q0 .7-1 1.2-1 .45-2.35.5-1.4-.05-2.35-.5-1-.5-1-1.2t1-1.15q.95-.5 2.35-.5 1.35 0 2.35.5.95.45 1 1.15"
         fill="url(#gradient11)"
         fill-rule="evenodd"
         stroke="none"
         id="path28610" />
      <path
         d="M-3.35-7.85V-8q0-.7 1-1.15.95-.5 2.35-.5 1.35 0 2.35.5 1 .45 1 1.15v.05q-.05.65-1 1.15-1 .45-2.35.5-1.4-.05-2.35-.5-.9-.45-1-1.05"
         fill="url(#gradient12)"
         fill-rule="evenodd"
         stroke="none"
         id="path28612" />
      <path
         d="M-3.35-7.85V-8q0-.7 1-1.15.95-.5 2.35-.5 1.35 0 2.35.5 1 .45 1 1.15v7.9q0 .7-1 1.2-1 .45-2.35.5-1.4-.05-2.35-.5-1-.5-1-1.2v-7.75q.1.6 1 1.05.95.45 2.35.5 1.35-.05 2.35-.5.95-.5 1-1.15M-3.35-.1q0-.7 1-1.15.95-.5 2.35-.5 1.35 0 2.35.5.95.45 1 1.15"
         fill="none"
         stroke="#000"
         stroke-linecap="round"
         stroke-linejoin="round"
         stroke-width="1"
         id="path28614" />
    </g>
    <g
       id="shape7"
       transform="translate(160.5 160.5)">
      <path
         d="M40-40v-26.5l-160 80V40L40-40M-120 8.25l160-80V-100l-160 80V8.25M120-160v100L-160 80V-20l280-140"
         fill="url(#gradient13)"
         fill-rule="evenodd"
         stroke="none"
         id="path28632" />
      <path
         d="M-120 40V13.5l160-80V-40m0-60v28.25l-160 80M-160 80L120-60"
         fill="none"
         stroke="#000"
         stroke-linecap="round"
         stroke-linejoin="round"
         stroke-width="1"
         id="path28634" />
      <path
         d="M40-40l-160 80m0-31.75V-20l160-80m80-60L-160-20"
         fill="none"
         stroke="#000"
         stroke-linecap="round"
         stroke-linejoin="round"
         stroke-width="1"
         id="path28636" />
    </g>
    <g
       id="shape8"
       transform="translate(.5 100.5)">
      <path
         d="M0-4.15V-14.6l29.55-14.75L40-24.15l-40 20"
         fill="#bfbfbf"
         fill-rule="evenodd"
         stroke="none"
         id="path28650" />
      <path
         d="M0-18.8v-10.05l19.55-9.75 10 5L0-18.8"
         fill="#acacac"
         fill-rule="evenodd"
         stroke="none"
         id="path28652" />
      <path
         d="M0-32.95v-9.85l9.85-4.95 9.8 4.95L0-32.95"
         fill="#9a9a9a"
         fill-rule="evenodd"
         stroke="none"
         id="path28654" />
      <path
         d="M0-47v-9.9l9.85 4.95L0-47"
         fill="#828282"
         fill-rule="evenodd"
         stroke="none"
         id="path28656" />
      <path
         d="M40-24.15V-20L0 0v-4.15l40-20"
         fill="#a0a0a0"
         fill-rule="evenodd"
         stroke="none"
         id="path28658" />
      <path
         d="M0-14.6v-4.2l29.55-14.8v4.25L0-14.6"
         fill="#8e8e8e"
         fill-rule="evenodd"
         stroke="none"
         id="path28660" />
      <path
         d="M0-28.85v-4.1l19.65-9.85-.1 4.2L0-28.85m6.35-3.7H6.3h.05"
         fill="#797979"
         fill-rule="evenodd"
         stroke="none"
         id="path28662" />
      <path
         d="M0-42.8V-47l9.85-4.95v4.2L0-42.8"
         fill="#6a6a6a"
         fill-rule="evenodd"
         stroke="none"
         id="path28664" />
      <path
         d="M0-56.9V-80l40-20v75.85l-10.45-5.2v-4.25l-10-5 .1-4.2-9.8-4.95v-4.2L0-56.9"
         fill="url(#gradient14)"
         fill-rule="evenodd"
         stroke="none"
         id="path28666" />
      <path
         d="M0-56.9l9.85 4.95m0 4.2l9.8 4.95L0-32.95m19.55-5.65l10 5L0-18.8m29.55-10.55L40-24.15M9.85-47.75L0-42.8m6.35 10.25H6.3m13.25-6.05L0-28.85m29.55-.5L0-14.6M0-47l9.85-4.95"
         fill="none"
         stroke="#000"
         stroke-linecap="round"
         stroke-linejoin="round"
         stroke-width=".05"
         id="path28668" />
      <path
         d="M9.85-51.95v4.2m9.8 4.95l-.1 4.2m10 5v4.25M40-24.15l-40 20m6.3-28.4h.05"
         fill="none"
         stroke="#000"
         stroke-linecap="round"
         stroke-linejoin="round"
         stroke-width=".05"
         id="path28670" />
      <path
         d="M0-56.9V-80l40-20v80L0 0v-47z"
         fill="none"
         stroke="#000"
         stroke-linecap="round"
         stroke-linejoin="round"
         stroke-width="1"
         id="path28672" />
    </g>
    <g
       id="sprite1"
       transform="translate(20 9.25)">
      <use
         height="26"
         transform="translate(-20 -9.25)"
         width="51"
         xlink:href="#shape9"
         id="use28680"
         x="0"
         y="0" />
    </g>
    <g
       id="shape9"
       transform="translate(20 9.25)">
      <path
         d="M20.5-8.75l-10 5 20 10-20 10-20-10-10 5v-20h40"
         fill="#ff0"
         fill-rule="evenodd"
         stroke="none"
         id="path28683" />
      <path
         d="M20.5-8.75h-40v20l10-5 20 10 20-10-20-10z"
         fill="none"
         stroke="red"
         stroke-linecap="round"
         stroke-linejoin="round"
         stroke-width="1"
         id="path28685" />
    </g>
    <g
       id="sprite2"
       transform="translate(531.05 -62.85)">
      <use
         height="22.7"
         transform="translate(-51.05 82.85)"
         width="22.55"
         xlink:href="#shape10"
         id="use28688"
         x="0"
         y="0" />
      <use
         height="22.7"
         transform="translate(-131.05 122.85)"
         width="22.55"
         xlink:href="#shape10"
         id="use28690"
         x="0"
         y="0" />
      <use
         height="22.7"
         transform="translate(-51.05 162.85)"
         width="22.55"
         xlink:href="#shape10"
         id="use28692"
         x="0"
         y="0" />
      <use
         height="22.7"
         transform="translate(28.95 202.85)"
         width="22.55"
         xlink:href="#shape10"
         id="use28694"
         x="0"
         y="0" />
      <use
         height="22.7"
         transform="translate(68.95 182.85)"
         width="22.55"
         xlink:href="#shape10"
         id="use28696"
         x="0"
         y="0" />
      <use
         height="22.7"
         transform="translate(68.95 102.85)"
         width="22.55"
         xlink:href="#shape10"
         id="use28698"
         x="0"
         y="0" />
      <use
         height="22.7"
         transform="translate(108.95 82.85)"
         width="22.55"
         xlink:href="#shape10"
         id="use28700"
         x="0"
         y="0" />
      <use
         height="22.7"
         transform="translate(148.95 142.85)"
         width="22.55"
         xlink:href="#shape10"
         id="use28702"
         x="0"
         y="0" />
      <use
         height="22.7"
         transform="translate(188.95 122.85)"
         width="22.55"
         xlink:href="#shape10"
         id="use28704"
         x="0"
         y="0" />
      <use
         height="22.7"
         transform="translate(-10.7 62.85)"
         width="22.55"
         xlink:href="#shape10"
         id="use28706"
         x="0"
         y="0" />
      <use
         height="22.7"
         transform="translate(-91.05 102.85)"
         width="22.55"
         xlink:href="#shape10"
         id="use28708"
         x="0"
         y="0" />
      <use
         height="22.7"
         transform="translate(-171.05 222.85)"
         width="22.55"
         xlink:href="#shape10"
         id="use28710"
         x="0"
         y="0" />
      <use
         height="22.7"
         transform="translate(-11.05 142.85)"
         width="22.55"
         xlink:href="#shape10"
         id="use28712"
         x="0"
         y="0" />
      <use
         height="22.7"
         transform="translate(-211.05 202.85)"
         width="22.55"
         xlink:href="#shape10"
         id="use28714"
         x="0"
         y="0" />
      <use
         height="22.7"
         transform="translate(-291.05 162.85)"
         width="22.55"
         xlink:href="#shape10"
         id="use28716"
         x="0"
         y="0" />
      <use
         height="22.7"
         transform="translate(-211.05 282.85)"
         width="22.55"
         xlink:href="#shape10"
         id="use28718"
         x="0"
         y="0" />
      <use
         height="22.7"
         transform="translate(-251.05 262.85)"
         width="22.55"
         xlink:href="#shape10"
         id="use28720"
         x="0"
         y="0" />
      <use
         height="22.7"
         transform="translate(-291.05 322.85)"
         width="22.55"
         xlink:href="#shape10"
         id="use28722"
         x="0"
         y="0" />
      <use
         height="22.7"
         transform="translate(-131.05 242.85)"
         width="22.55"
         xlink:href="#shape10"
         id="use28724"
         x="0"
         y="0" />
      <use
         height="22.7"
         transform="translate(-371.05 202.85)"
         width="22.55"
         xlink:href="#shape10"
         id="use28726"
         x="0"
         y="0" />
      <use
         height="22.7"
         transform="translate(-171.05 422.85)"
         width="22.55"
         xlink:href="#shape10"
         id="use28728"
         x="0"
         y="0" />
      <use
         height="22.7"
         transform="translate(-371.05 282.85)"
         width="22.55"
         xlink:href="#shape10"
         id="use28730"
         x="0"
         y="0" />
      <use
         height="22.7"
         transform="translate(-371.05 362.85)"
         width="22.55"
         xlink:href="#shape10"
         id="use28732"
         x="0"
         y="0" />
      <use
         height="22.7"
         transform="translate(-291.05 242.85)"
         width="22.55"
         xlink:href="#shape10"
         id="use28734"
         x="0"
         y="0" />
      <use
         height="22.7"
         transform="translate(-451.05 242.85)"
         width="22.55"
         xlink:href="#shape10"
         id="use28736"
         x="0"
         y="0" />
      <use
         height="22.7"
         transform="translate(-491.05 302.85)"
         width="22.55"
         xlink:href="#shape10"
         id="use28738"
         x="0"
         y="0" />
      <use
         height="22.7"
         transform="translate(-451.05 322.85)"
         width="22.55"
         xlink:href="#shape10"
         id="use28740"
         x="0"
         y="0" />
      <use
         height="22.7"
         transform="translate(-51.05 522.85)"
         width="22.55"
         xlink:href="#shape10"
         id="use28742"
         x="0"
         y="0" />
      <use
         height="22.7"
         transform="translate(108.95 402.85)"
         width="22.55"
         xlink:href="#shape10"
         id="use28744"
         x="0"
         y="0" />
      <use
         height="22.7"
         transform="translate(-131.05 482.85)"
         width="22.55"
         xlink:href="#shape10"
         id="use28746"
         x="0"
         y="0" />
      <use
         height="22.7"
         transform="translate(148.95 422.85)"
         width="22.55"
         xlink:href="#shape10"
         id="use28748"
         x="0"
         y="0" />
      <use
         height="22.7"
         transform="translate(-91.05 382.85)"
         width="22.55"
         xlink:href="#shape10"
         id="use28750"
         x="0"
         y="0" />
      <use
         height="22.7"
         transform="translate(-51.05 362.85)"
         width="22.55"
         xlink:href="#shape10"
         id="use28752"
         x="0"
         y="0" />
      <use
         height="22.7"
         transform="translate(28.95 362.85)"
         width="22.55"
         xlink:href="#shape10"
         id="use28754"
         x="0"
         y="0" />
      <use
         height="22.7"
         transform="translate(-411.05 262.85)"
         width="22.55"
         xlink:href="#shape10"
         id="use28756"
         x="0"
         y="0" />
      <use
         height="22.7"
         transform="translate(28.95 522.85)"
         width="22.55"
         xlink:href="#shape10"
         id="use28758"
         x="0"
         y="0" />
      <use
         height="22.7"
         transform="translate(-531.05 282.85)"
         width="22.55"
         xlink:href="#shape10"
         id="use28760"
         x="0"
         y="0" />
      <use
         height="22.7"
         transform="translate(68.95 382.85)"
         width="22.55"
         xlink:href="#shape10"
         id="use28762"
         x="0"
         y="0" />
      <use
         height="22.7"
         transform="translate(-171.05 462.85)"
         width="22.55"
         xlink:href="#shape10"
         id="use28764"
         x="0"
         y="0" />
      <use
         height="22.7"
         transform="translate(-91.05 502.85)"
         width="22.55"
         xlink:href="#shape10"
         id="use28766"
         x="0"
         y="0" />
      <use
         height="22.7"
         transform="translate(-131.05 402.85)"
         width="22.55"
         xlink:href="#shape10"
         id="use28768"
         x="0"
         y="0" />
      <use
         height="22.7"
         transform="translate(68.95 502.85)"
         width="22.55"
         xlink:href="#shape10"
         id="use28770"
         x="0"
         y="0" />
      <use
         height="22.7"
         transform="translate(108.95 482.85)"
         width="22.55"
         xlink:href="#shape10"
         id="use28772"
         x="0"
         y="0" />
      <use
         height="22.7"
         transform="translate(148.95 462.85)"
         width="22.55"
         xlink:href="#shape10"
         id="use28774"
         x="0"
         y="0" />
      <use
         height="22.7"
         transform="translate(348.95 202.85)"
         width="22.55"
         xlink:href="#shape10"
         id="use28776"
         x="0"
         y="0" />
      <use
         height="22.7"
         transform="translate(428.95 242.85)"
         width="22.55"
         xlink:href="#shape10"
         id="use28778"
         x="0"
         y="0" />
      <use
         height="22.7"
         transform="translate(508.95 282.85)"
         width="22.55"
         xlink:href="#shape10"
         id="use28780"
         x="0"
         y="0" />
      <use
         height="22.7"
         transform="translate(268.95 242.85)"
         width="22.55"
         xlink:href="#shape10"
         id="use28782"
         x="0"
         y="0" />
      <use
         height="22.7"
         transform="translate(428.95 322.85)"
         width="22.55"
         xlink:href="#shape10"
         id="use28784"
         x="0"
         y="0" />
      <use
         height="22.7"
         transform="translate(348.95 282.85)"
         width="22.55"
         xlink:href="#shape10"
         id="use28786"
         x="0"
         y="0" />
      <use
         height="22.7"
         transform="translate(188.95 282.85)"
         width="22.55"
         xlink:href="#shape10"
         id="use28788"
         x="0"
         y="0" />
      <use
         height="22.7"
         transform="translate(228.95 302.85)"
         width="22.55"
         xlink:href="#shape10"
         id="use28790"
         x="0"
         y="0" />
      <use
         height="22.7"
         transform="translate(308.95 342.85)"
         width="22.55"
         xlink:href="#shape10"
         id="use28792"
         x="0"
         y="0" />
      <use
         height="22.7"
         transform="translate(348.95 362.85)"
         width="22.55"
         xlink:href="#shape10"
         id="use28794"
         x="0"
         y="0" />
      <use
         height="22.7"
         transform="translate(108.95 322.85)"
         width="22.55"
         xlink:href="#shape10"
         id="use28796"
         x="0"
         y="0" />
      <use
         height="22.7"
         transform="translate(148.95 342.85)"
         width="22.55"
         xlink:href="#shape10"
         id="use28798"
         x="0"
         y="0" />
      <use
         height="22.7"
         transform="translate(228.95 382.85)"
         width="22.55"
         xlink:href="#shape10"
         id="use28800"
         x="0"
         y="0" />
      <use
         height="22.7"
         transform="translate(268.95 402.85)"
         width="22.55"
         xlink:href="#shape10"
         id="use28802"
         x="0"
         y="0" />
    </g>
    <g
       id="shape10"
       transform="translate(11.05 17.15)">
      <path
         d="M5-2.85L7.75-2q3.15 1.25 3.2 3.1v.1q-.1 1.45-2.1 2.55l-1.1.5Q5.65 5.1 3 5.4l-2.85.15-2.65-.1q-2.8-.3-4.95-1.2l-1.05-.5q-1.9-1-2.1-2.3V1.1q0-1.85 3.15-3.1l2.85-.85.55.1 1.6.2.5.05.45.05v.6q-1.75.15-3.05.75l-.4.15Q-6.5-.2-6.5.8v.25q.1.8 1.3 1.4l.65.35 3.1.7 1.65.1 1.75-.1 2.95-.7.7-.35Q6.85 1.75 6.9.9V.8q-.05-1-1.6-1.75l-.4-.15-3.15-.75v-.6l.65-.05.6-.05 1.45-.2.55-.1"
         fill="#000"
         fill-opacity=".502"
         fill-rule="evenodd"
         stroke="none"
         id="path28805" />
      <path
         d="M-10.55-11.9v-.35q0-1.85 3.15-3.1 3.15-1.3 7.6-1.3 4.45 0 7.6 1.3 3.15 1.25 3.2 3.1v.1q-.1 1.45-2.1 2.55l-1.1.5q-2.1.85-4.75 1.15L.2-7.8l-2.65-.1q-2.8-.3-4.95-1.2l-1.05-.5q-1.9-1-2.1-2.3"
         fill="url(#gradient15)"
         fill-rule="evenodd"
         stroke="none"
         id="path28807" />
      <path
         d="M-10.55-11.9q.2 1.3 2.1 2.3l1.05.5q2.15.9 4.95 1.2l2.65.1 2.85-.15Q5.7-8.25 7.8-9.1l1.1-.5q2-1.1 2.1-2.55v5.3q-.05 1.7-2.75 2.95l-.45.2-2.15.7-.65.15-.55.1-1.45.2-.6.05-.65.05L.2-2.4l-1.7-.05-.45-.05-.5-.05-1.6-.2-.55-.1-.7-.2-2.1-.65-.45-.2q-2.7-1.25-2.7-2.95v-5.05"
         fill="url(#gradient16)"
         fill-rule="evenodd"
         stroke="none"
         id="path28809" />
      <path
         d="M1.75-2.45v.6l3.15.75.4.15Q6.85-.2 6.9.8v.1q-.05.85-1.3 1.55l-.7.35-2.95.7-1.75.1-1.65-.1-3.1-.7-.65-.35q-1.2-.6-1.3-1.4V.8q0-1 1.55-1.75l.4-.15q1.3-.6 3.05-.75v-.6l1.7.05 1.55-.05m0 .6V.8l-.3.35-.2.1-.7.15-.45.05h-.4l-.8-.2-.15-.1-.3-.35V.75l.05-.2v-2.4 2.4l-.05.2V.8l.3.35.15.1.8.2h.4l.45-.05.7-.15.2-.1.3-.35v-2.65"
         fill="#cdcdcd"
         fill-rule="evenodd"
         stroke="none"
         id="path28811" />
      <path
         d="M11-12.15v-.1q-.05-1.85-3.2-3.1-3.15-1.3-7.6-1.3-4.45 0-7.6 1.3-3.15 1.25-3.15 3.1v.35q.2 1.3 2.1 2.3l1.05.5q2.15.9 4.95 1.2l2.65.1 2.85-.15Q5.7-8.25 7.8-9.1l1.1-.5q2-1.1 2.1-2.55v5.3q-.05 1.7-2.75 2.95l-.45.2-2.15.7-.65.15-.55.1-1.45.2-.6.05-.65.05v.6l3.15.75.4.15Q6.85-.2 6.9.8M-4.6-2.85l-.7-.2-2.1-.65-.45-.2q-2.7-1.25-2.7-2.95v-5.05M6.9.9q-.05.85-1.3 1.55l-.7.35-2.95.7-1.75.1-1.65-.1-3.1-.7-.65-.35q-1.2-.6-1.3-1.4v-.2m0-.05q0-1 1.55-1.75l.4-.15q1.3-.6 3.05-.75v-.6l-.45-.05-.5-.05-1.6-.2-.55-.1m6.35.4L.2-2.4l-1.7-.05m0 .6v2.4l-.05.2V.8l.3.35.15.1.8.2h.4l.45-.05.7-.15.2-.1.3-.35v-2.65"
         fill="none"
         stroke="#000"
         stroke-linecap="round"
         stroke-linejoin="round"
         stroke-width="1"
         id="path28813" />
    </g>
    <g
       id="shape11"
       transform="translate(160 180)">
      <path
         d="M-160-80v-100L120-40V60L-160-80"
         fill="#d4d4d4"
         fill-rule="evenodd"
         stroke="none"
         id="path28826" />
      <path
         d="M-160-80L120 60V-40l-280-140z"
         fill="none"
         stroke="#000"
         stroke-linecap="round"
         stroke-linejoin="round"
         stroke-width=".05"
         id="path28828" />
    </g>
    <g
       id="shape12"
       transform="translate(160 160)">
      <path
         d="M120-60L-160 80V-20l280-140v100"
         fill="#aaa"
         fill-rule="evenodd"
         stroke="none"
         id="path28831" />
      <path
         d="M120-60L-160 80V-20l280-140z"
         fill="none"
         stroke="#000"
         stroke-linecap="round"
         stroke-linejoin="round"
         stroke-width=".05"
         id="path28833" />
    </g>
    <radialGradient
       cx="0"
       cy="0"
       gradientTransform="translate(.2 -12.35) scale(.0132)"
       gradientUnits="userSpaceOnUse"
       id="gradient15"
       r="819.2"
       spreadMethod="pad">
      <stop
         offset="0"
         stop-color="red"
         id="stop28816" />
      <stop
         offset="1"
         stop-color="#7d0000"
         id="stop28818" />
    </radialGradient>
    <radialGradient
       cx="0"
       cy="0"
       gradientTransform="translate(.2 -5.25) scale(.0156)"
       gradientUnits="userSpaceOnUse"
       id="gradient16"
       r="819.2"
       spreadMethod="pad">
      <stop
         offset="0"
         stop-color="red"
         id="stop28821" />
      <stop
         offset="1"
         stop-color="#7d0000"
         id="stop28823" />
    </radialGradient>
  </defs>
</svg>
