<svg xmlns="http://www.w3.org/2000/svg" xmlns:xlink="http://www.w3.org/1999/xlink" height="161" width="121"><use height="160" transform="translate(.55 .55)" width="120" xlink:href="#sprite11"/><defs id="defs29202"><g id="sprite11" transform="translate(40 120)"><use height="160" transform="translate(-40 -120)" width="120" xlink:href="#shape22" id="use29190" x="0" y="0"/></g><g id="shape22" transform="translate(40 120)"><path d="M80-100V0L0 40V-60l40-20 40-20" fill="#aaa" fill-rule="evenodd" stroke="none" id="path29193"/><path d="M40-80v-40l40 20-40 20M0 40l-40-20V-80L0-60V40" fill="#d4d4d4" fill-rule="evenodd" stroke="none" id="path29195"/><path d="M0-60V40" fill="none" stroke="#000" stroke-linecap="round" stroke-linejoin="round" stroke-width=".05" id="path29197"/><path d="M40-80v-40l40 20V0L0 40l-40-20V-80L0-60l40-20 40-20" fill="none" stroke="#000" stroke-linecap="round" stroke-linejoin="round" stroke-width=".05" id="path29199"/></g></defs></svg>