<svg xmlns:xlink="http://www.w3.org/1999/xlink" height="129.5" width="61.75" xmlns="http://www.w3.org/2000/svg"><use height="129.5" width="61.75" xlink:href="#shape0"/><defs><radialGradient cx="0" cy="0" gradientTransform="translate(1.7 -67.25) scale(.0295)" gradientUnits="userSpaceOnUse" id="gradient0" r="819.2" spreadMethod="pad"><stop offset="0" stop-color="#f8f9b7"/><stop offset="1" stop-color="#b8b8b8"/></radialGradient><radialGradient cx="0" cy="0" gradientTransform="translate(-5 -104.75) scale(.1301)" gradientUnits="userSpaceOnUse" id="gradient1" r="819.2" spreadMethod="pad"><stop offset="0" stop-color="#fff7cc"/><stop offset=".722" stop-color="#fffcef" stop-opacity=".102"/><stop offset="1" stop-color="#fff" stop-opacity=".012"/></radialGradient><radialGradient cx="0" cy="0" gradientTransform="translate(-5.5 -125.15) scale(.0096)" gradientUnits="userSpaceOnUse" id="gradient5" r="819.2" spreadMethod="pad"><stop offset="0" stop-color="#535353"/><stop offset="1"/></radialGradient><linearGradient gradientTransform="matrix(.0065 -.0018 .0019 .0066 -4.95 -112.05)" gradientUnits="userSpaceOnUse" id="gradient2" spreadMethod="pad" x1="-819.2" x2="819.2"><stop offset="0" stop-color="#898989"/><stop offset="1" stop-color="#0c0c0c"/></linearGradient><linearGradient gradientTransform="matrix(.004 -.0011 .0004 .0013 -6.5 -117.4)" gradientUnits="userSpaceOnUse" id="gradient3" spreadMethod="pad" x1="-819.2" x2="819.2"><stop offset="0" stop-color="#898989"/><stop offset="1" stop-color="#0c0c0c"/></linearGradient><linearGradient gradientTransform="matrix(.0002 .0025 -.0033 -.0002 -8.55 -111.55)" gradientUnits="userSpaceOnUse" id="gradient4" spreadMethod="pad" x1="-819.2" x2="819.2"><stop offset="0" stop-color="#b80c0c"/><stop offset="1" stop-color="#f8f1bc"/></linearGradient><g id="shape0"><path d="M-16.1-48.8l.1.05-.1-.05" fill="url(#gradient0)" fill-rule="evenodd" transform="translate(25.9 127.85)"/><path d="M31.7-11.7Q14.9 3.4-6.6 1.4-17.15.55-25.9-4.25L-9.25-109.3q5.3-1.4 10.35-1.4l34.75 94.9-4.15 4.1" fill="url(#gradient1)" fill-rule="evenodd" transform="translate(25.9 127.85)"/><path d="M1.5-109.75l-.1-.15.05.05.05.1-.05-.1.1.05-.05.05" fill="#e3cfa8" fill-rule="evenodd" transform="translate(25.9 127.85)"/><path d="M1.45-109.85l-.05-.05.1.15q.15.75-1.2 1.6l-.25.2-.9.5-.9.3-1.2.5-.4.05-.15.1-3.9.55q-1.15-.05-1.6-.5l-.2-.4-.1-1.55-.4-6.5-.05-1.6q.1.35 1.15.45l2.35-.35.45-.2q1.05-.35 1.8-.8.9-.55.8-1l4.65 8.55" fill="url(#gradient2)" fill-rule="evenodd" transform="translate(25.9 127.85)"/><path d="M-3.2-118.4q.1.45-.8 1-.75.45-1.8.8l-.45.2-2.35.35q-1.05-.1-1.15-.45v-.2l.75-.75q.9-.65 2.25-1l.4-.15 1.95-.15q.8-.05 1.1.25l.1.1" fill="url(#gradient3)" fill-rule="evenodd" transform="translate(25.9 127.85)"/><path d="M-9.7-114.9l.4 6.5-.05.05-.4-6.65.05.1" fill="url(#gradient4)" fill-rule="evenodd" transform="translate(25.9 127.85)"/><path d="M27.35 18L22.7 9.45l-.1-.1q-.3-.3-1.1-.25l-1.95.15-.4.15q-1.35.35-2.25 1l-.75.75v.2l.05 1.6.4 6.5.1 1.55.2.4q.45.45 1.6.5l3.9-.55.15-.1.4-.05 1.2-.5.9-.3.9-.5.25-.2q1.35-.85 1.2-1.6l-.05-.1" fill="none" stroke="#000" stroke-linecap="round" stroke-linejoin="round" stroke-width=".5"/><path d="M22.7 9.45q.1.45-.8 1-.75.45-1.8.8l-.45.2-2.35.35q-1.05-.1-1.15-.45" fill="none" stroke="#000" stroke-linecap="round" stroke-linejoin="round" stroke-opacity=".102" stroke-width=".5"/><path d="M-1.6-127.6l.7.95-6.65 3.55 1.55 5.35-1.25.35-1.75-6.3 7.4-3.9" fill="url(#gradient5)" fill-rule="evenodd" transform="translate(25.9 127.85)"/><path d="M24.3.25l-7.4 3.9 1.75 6.3 1.25-.35-1.55-5.35L25 1.2l-.7-.95z" fill="none" stroke="#2f0202" stroke-linecap="round" stroke-linejoin="round" stroke-width=".5"/></g></defs></svg>