<svg xmlns:xlink="http://www.w3.org/1999/xlink" height="162.1" width="120.45" xmlns="http://www.w3.org/2000/svg"><use height="162.1" width="120.45" xlink:href="#a"/><defs><g id="a"><path d="M7.2-121.3q.25-.3.65-.4l1.25.15 37.05 19.45.55.45-.15.15-.4.5-2.55 1.2 2.55-1.2.4-.5.15-.15.95-.3h.05q.65-.05 1.15.35l.45.8.1.2q.3.65.1 1.35l-.2.4-.1 30.95-.45.95-.2.15.3.2.45.8.1.2q.3.65.1 1.35l-.2.4-.1 30.95-.45.95-.2.15.3.2.45.8.1.2q.3.65.1 1.35l-.2.4-.1 30.95-.45.95-1.15.45h-.05q-.65 0-1.1-.4-.5-.35-.5-.85l.1-29.35-35.5 16.6-.1 30.7-.45.95-.4.25-1 .35h-.05q-.65 0-1.1-.4-.5-.35-.5-.85l.1-29.35-35.3 16.5-.2.05-.1 30.75q0 .5-.45.95-.5.4-1.15.45h-.05q-.65 0-1.1-.4-.5-.35-.5-.85l.1-30.8-.4-.15-34.9-18.3-.1 29.6q0 .5-.45.95-.5.4-1.15.45h-.05q-.65 0-1.1-.4-.5-.35-.5-.85l.1-32.8.1-.45.1-.55.15-.4q-.45-.3-.45-.8l.1-32.8.1-.45.1-.55.15-.4q-.45-.3-.45-.8l.1-32.8.1-.45.1-.55q.2-.7.85-1l37.45-17.5h.2q.25-.3.65-.4l.2-.05.25-.15L7-121.3h.2l-.25.4-.05.05q-.3.6-.05 1.25l.4.6.5.4 2.75 1.45-2.75-1.45-.5-.4-.4-.6q-.25-.65.05-1.25l.05-.05.25-.4m36.4 21.5-33.1-17.35-.1 30q0 .5-.45.95l-.1.05L12-85l31.6-14.8m0 35 2.55-1.2 1-.45.15-.05h.3l.5-.1.45-.2-.45.2.3.1.9.7-.9-.7-.3-.1-.5.1h-.3l-.15.05-1 .45-2.55 1.2-31.4-16.45L15.9-83l-3.7 1.75-1.65.75v-.25l-.25.3-.45.25L7.3-79l-.1 29.35q0 .45.4.75l-.2-.1-.4-.2-.05-.15v-1.95 1.95l.05.15.4.2.2.1q-.4-.3-.4-.75L7.3-79l-.25.15.25-.15 2.55-1.2.45-.25.25-.3v.25l-.1 29.65L12-50l31.6-14.8m5.7-34.05-.7.55-2.55 1.2 2.55-1.2.7-.55M46.15-101l1-.45 1.25-.05.9.7-.9-.7-1.25.05-1 .45m-38.9-18v1.45-1.45m3.3 73.5v-.25l.2-.4q.2-.7-.1-1.35l-.1-.2-.45-.8-.3-.2.2-.15.3-.4L12-50l-1.7.75-.3.4-.2.15.3.2.45.8.1.2q.3.65.1 1.35l-.2.4v.25l-.1 30.7-.15.55L43.6-29.8 12.2-46.25l-1.65.75M15.9-48l-3.7 1.75L15.9-48l30.25 15.9.2.1q-.4-.3-.4-.75l.1-29.35L15.9-48m30.45-19 .1.1.15.15-.15-.15-.1-.1q-.4-.3-.4-.75l.1-29.35L15.9-83l30.25 15.9.2.1m2.95 3.15-.7.55-2.55 1.2 2.55-1.2.7-.55m-2.7-2.9.1.1.05-.05-.15-.05m-.45.75.4-.5.15-.15-.15.15-.4.5M7.35-86.45l.3.3q.45.4 1.1.4h.05q.6-.05 1.05-.4-.45.35-1.05.4h-.05q-.65 0-1.1-.4l-.3-.3-.2-.55.1-30.55-33.7 15.8L4.9-85.3l2.1-1h.2l.15-.15m.55 2.9h.05l.95-.3h.05l.45.05.7.3.45.8-.65-.6-.25-.1-1.25.05-1 .45.4-.5.1-.1v-.05.05l-.1.1-.4.5 1-.45 1.25-.05.25.1.65.6-.45-.8-.7-.3-.45-.05H8.9l-.95.3H7.9M46.75-66.7l.55.2-.55-.2M7.95-83.55 7.4-84l-.3-.15-.25-.45q-.25-.65.05-1.25l.05-.05.25-.4-.25.4-.05.05q-.3.6-.05 1.25l.25.45.3.15.55.45m-36.2-15.2v-.3L4.85-81.7l-.3.15-3.6-1.9 3.6 1.9.3-.15-33.1-17.35v.3l-.1 29 29.3-13.7-29.2-15.3M7.1-84.15 4.9-85.3l2.2 1.15m-2.55 2.6-31.3 14.6-2.1-1.1.05-.05q.45-.45.45-.95v-.7.7q0 .5-.45.95l-.05.05 2.1 1.1 31.3-14.6M4.9-50.3l2.05-1 .1-27.55-29.9 13.95L4.9-50.3 7-49.2l-2.1-1.1m-.05-31.4 2.55-1.2-2.55 1.2m5.7.95.2-.4q.2-.7-.1-1.35l-.1-.2.1.2q.3.65.1 1.35l-.2.4M12-85l-2.6 1.2L12-85M6.95-50.95l-.05.1q-.3.6-.05 1.25l.1.25-.1-.25q-.25-.65.05-1.25l.05-.1m3.35 1.7.15-.55v-1.05 1.05l-.15.55M-26.85-63l.3-.15L4.85-46.7l-.3.15-3.6-1.9 3.6 1.9.3-.15-31.4-16.45-.3.15-1.4.65-.1 27.6 29.3-13.7L-26.85-63m35.4 14.6-.15.05-1 .45.4-.5.15-.15-.1-.1-.15-.15-.1-.1.1.1.15.15.15.05.55.2h.3l.55-.1-.55.1h-.3L8-48.6l-.15-.05.1.1.05-.05-.05.05-.15.15-.4.5 1-.45.15-.05m2 .7-.65-.6-.25-.1-.2-.1H9.4l.4-.2-.4.2h.05l.2.1.25.1.65.6m0 1.95-.25.3-.45.25L7.3-44l-.25.15.25-.15 2.55-1.2.45-.25.25-.3m-5.7-.95 2.55-1.2-2.55 1.2m-.3.15-31.3 14.6-1.8-.9v-.55l.2-.65v-.7.7l-.2.65v.55l1.8.9 31.3-14.6m0 35 .3-.15 2.55-1.2 1-.45.15-.05h.3l.55-.1h.05l.2.1.25.1.65.6.1.2q.3.65.1 1.35l-.2.4-.25.3-.45.25L7.3-9l-.25.15L7.3-9l2.55-1.2.45-.25.25-.3.2-.4q.2-.7-.1-1.35l-.1-.2-.65-.6-.25-.1-.2-.1H9.4l-.55.1h-.3l-.15.05-1 .45-2.55 1.2-.3.15L-26.85-28l-1.4.65-.1 28.2v.1l-.2.65v1.85l-.1.5 33.2-15.5m-33 19.25v-2q-.05-.55-.45-.95l-.3-.2.2-.15.35-.45-.35.45-.2.15.3.2q.4.4.45.95v2M7-14.2l-.05-.3.1-29.35-29.9 13.95-3.7 1.75-.3.15.3-.15 3.7-1.75L7-14.2l.4.2.2.1q-.4-.3-.4-.75L7.3-44l-.1 29.35q0 .45.4.75l-.2-.1-.4-.2m3.55 3.45v.25-.25M9.4-13.5l.4-.2.2-.15.3-.4-.3.4-.2.15.3.2.45.8-.45-.8-.3-.2-.4.2M8-13.6l.55.2-.55-.2-.05.05-.1-.1.1.1.05-.05-.15-.05-.15-.15-.1-.1.1.1.15.15.15.05m-.05.05-.15.15-.4.5.4-.5.15-.15m38.8-18.15-.15-.05.1.1.05-.05.55.2h.3l.5-.1.45-.2-.45.2-.5.1h-.3l-.55-.2M-31.7-62.2v-2.15q.05-.45.5-.8l.3-.25h.05l.75-.2h.05l.4.05.75.3q.4.4.45.95v2l-.1 28.9.1-28.9v-2q-.05-.55-.45-.95l-.75-.3-.4-.05h-.05l-.75.2h-.05l-.3.25q-.45.35-.5.8v2.15l-.4-.15-1.8-.95-31.6 14.75 31.35 16.45 2.35-1.1.1-29m2.85-5.85q-.5.35-1.1.4H-30q-.65 0-1.1-.4l-.3-.3.3.3q.45.4 1.1.4h.05q.6-.05 1.1-.4m2.4-33.7-3.2-1.7-1.05-.2 1.05.2 3.2 1.7m-1.8 2.7L-31-100.5l-.1-.05-.4-.35-.4-.6q-.25-.65.05-1.25l.05-.05.25-.4-.25.4-.05.05q-.3.6-.05 1.25l.4.6.4.35.1.05 2.75 1.45M9.6 21.4l-.75.2H8.8q-.65 0-1.1-.4-.5-.35-.5-.85L7.3-9l-.1 29.35q0 .5.5.85.45.4 1.1.4h.05l.75-.2M46.15-31l-2.55 1.2 2.55-1.2.4-.5.15-.15-.15.15-.4.5 1-.45.15-.05-.15.05-1 .45m-.1 3.9 2.55-1.2.7-.55-.7.55-2.55 1.2m3.25-3.7-.9-.7-.3-.1.3.1.9.7m-2.7-.95-.15-.15-.1-.1.1.1.15.15m-73.35-35.2-2.9 1.4 2.9-1.4m-1.7 4.65.2-.05-.2.05m-.1 29.45v1.3l-.1.5-.35.45-.2.15-.95.3h-.05l-.8-.2-.3-.2-.15-.15-.35-.55v-1.95 1.95l.35.55.15.15.3.2.8.2h.05l.95-.3.2-.15.35-.45.1-.5v-1.3m2-30.3 3.7-1.75-3.7 1.75m-5-5.05.15-.15-.2-.55v-.1l.1-30.45-34 15.9-1.65-.85-.65-.35-1.25-.15q-.65.2-.95.8v.05q-.3.6-.05 1.25.25.7.9 1l2.15 1.15-2.15-1.15q-.65-.3-.9-1-.25-.65.05-1.25v-.05q.3-.6.95-.8l1.25.15.65.35-.3-.35q-.5-.4-1.15-.35h-.05l-1.1.45-.4.5.4-.5 1.1-.45h.05q.65-.05 1.15.35l.3.35 1.65.85 31.35 16.45 2.4-1.1h.2l-.25.4-.05.05q-.3.6-.05 1.25l.4.6.4.35.1.05.15.1-.15-.1-.1-.05-.4-.35-.4-.6q-.25-.65.05-1.25l.05-.05.25-.4m.65 2.8-3.25-1.7 3.25 1.7m-6.95.05 3.95 2.05-3.95-2.05L-67-80.65l-.1 29 29.25-13.7m-27.65 16.8-1.65-.85-.3-.35-.3-.2.2-.15q.45-.45.45-.95v-.6.6q0 .5-.45.95l-.2.15.3.2.3.35 1.65.85m-1.65-.85-.65-.35-.2-.05-.7.15h-.05l-.6-.1-.2-.1-.2.2-.4.5.4-.5.2-.2-.3-.2-.05-.05.05.05.3.2.2.1.6.1h.05l.7-.15.25-.15-.25.15.2.05.65.35m.05 32.75v.6q0 .5-.45.95l-.2.15-.25.15-.7.15h-.05l-.6-.1-.2-.1-.3-.2-.05-.05.05.05.3.2.2.1.6.1h.05l.7-.15.25-.15.2-.15q.45-.45.45-.95v-.6l29.25-13.7L-67-45.65l-.1 29m-2.25-33.1-.65.65v.05q-.3.6-.05 1.25.25.7.9 1l2.15 1.15-2.15-1.15q-.65-.3-.9-1-.25-.65.05-1.25v-.05l.65-.65M-33.9-28.3l-3.95-2.05 3.95 2.05-31.6 14.75-1.65-.85-.3-.35-.3-.2.3.2.3.35 1.65.85 34.05 17.9-.35-.75.1-30.8-.4-.15-1.8-.95m-35.65 13.45-.2.2-.4.5.4-.5.2-.2m2.55 4.2-2.15-1.15q-.65-.3-.9-1-.25-.65.05-1.25v-.05l.65-.65-.65.65v.05q-.3.6-.05 1.25.25.7.9 1l2.15 1.15m36-19.7-.2.2q-.45.35-.5.8v2.15-2.15q.05-.45.5-.8l.2-.2m4.25-1.6-1.9.9 1.9-.9m-4.7 1.25-2.7-1.4 2.7 1.4m-.35-2.15-.05.1q-.3.6-.05 1.25l.1.25-.1-.25q-.25-.65.05-1.25l.05-.1M-68-14.8l.2.05.65.35-.65-.35-.2-.05m39.55-12.5.2-.05-.2.05-.1 28.9.1-28.9v-2q-.05-.55-.45-.95l-.3-.2.3.2q.4.4.45.95v2m-.75 31.85-.95.3h-.05l-.8-.2-.3-.2-.15-.1.15.1.3.2.8.2h.05l.95-.3m-1.8.1-.2.2q-.5.4-.5.95v2-2q0-.55.5-.95l.2-.2M4.85-11.7l-31.4-16.45L4.85-11.7" fill="#999" fill-rule="evenodd" transform="translate(70.6 122)"/><path d="m117.3 20.35-.55-.45L79.7.45 78.45.3q-.4.1-.65.4l-.25.4-.05.05q-.3.6-.05 1.25l.4.6.5.4 2.75 1.45 33.1 17.35 2.55-1.2.4-.5.15-.15.95-.3h.05q.65-.05 1.15.35l.45.8.1.2q.3.65.1 1.35l-.2.4-.1 30.95-.45.95-.2.15.3.2.45.8.1.2q.3.65.1 1.35l-.2.4-.1 30.95-.45.95-.2.15.3.2.45.8.1.2q.3.65.1 1.35l-.2.4-.1 30.95-.45.95-1.15.45h-.05q-.65 0-1.1-.4-.5-.35-.5-.85l.1-29.35-35.5 16.6-.1 30.7-.45.95-.4.25-1 .35h-.05q-.65 0-1.1-.4-.5-.35-.5-.85l.1-29.35-35.3 16.5-.2.05-.1 30.75q0 .5-.45.95-.5.4-1.15.45h-.05q-.65 0-1.1-.4-.5-.35-.5-.85l.1-30.8-.4-.15-34.9-18.3-.1 29.6q0 .5-.45.95-.5.4-1.15.45h-.05q-.65 0-1.1-.4-.5-.35-.5-.85l.1-32.8.1-.45.1-.55.15-.4q-.45-.3-.45-.8l.1-32.8.1-.45.1-.55.15-.4q-.45-.3-.45-.8l.1-32.8.1-.45.1-.55q.2-.7.85-1l37.45-17.5m.2 0q.25-.3.65-.4l.2-.05.25-.15L77.6.7m.25 3.75V3m42.05 18.2-.9-.7-1.25.05-1 .45m-.1 3.9 2.55-1.2.7-.55m-.75 32.05-.45.2.3.1.9.7m-1.2-.8-.5.1h-.3l-.15.05-1 .45-2.55 1.2L82.6 72l-1.7.75-.3.4-.2.15.3.2.45.8.1.2q.3.65.1 1.35l-.2.4v.25l1.65-.75L86.5 74l30.15-14.1 2.55-1.2.7-.55m-2.7-2.9-.15-.15-.1-.1-.2-.1L86.5 39l-3.7 1.75 31.4 16.45m3-1.95.1.1.05-.05-.15-.05m.1.1-.15.15-.4.5m.2-1q-.4-.3-.4-.75l.1-29.35L86.5 39m31.4 16.5-.55-.2M78.5 38.45v.05l-.1.1-.4.5 1-.45 1.25-.05.25.1.65.6-.45-.8-.7-.3-.45-.05h-.05l-.95.3h-.05m1.95-2.6q-.45.35-1.05.4h-.05q-.65 0-1.1-.4l-.3-.3-.15.15-.25.4-.05.05q-.3.6-.05 1.25l.25.45.3.15.55.45m2.55-33.6-.1 30q0 .5-.45.95l-.1.05L82.6 37l31.6-14.8M77.6 35.7l-2.1 1 2.2 1.15m-6.15.7 3.6 1.9.3-.15-33.1-17.35v.3l29.2 15.3-29.3 13.7v.7q0 .5-.45.95l-.05.05 2.1 1.1 31.3-14.6m2.4 30.25v1.95l.05.15.4.2.2.1q-.4-.3-.4-.75L77.9 43l-.25.15-.1 27.55-2.05 1 2.1 1.1m3.55-31.3v-.25l-.25.3-.45.25L77.9 43m.1-3.9-2.55 1.2m5.7 1.2 1.65-.75m-1.65-1.45.1.2q.3.65.1 1.35l-.2.4m-3.2-5.7-.2-.55.1-30.55-33.7 15.8L75.5 36.7m4.5 1.5 2.6-1.2m0 35-1.55-.85v1.05l-.15.55m-3.35-.1-.1-.25q-.25-.65.05-1.25l.05-.1m3.5.1.1-29.65m-3.5 36.65.25-.15 2.55-1.2.45-.25.25-.3m-.75-2.95-.4.2h.05l.2.1.25.1.65.6m-2.95-1.2.1.1.15.15.15.05.55.2h.3l.55-.1m-1.55-.15.1.1.05-.05m-.05.05-.15.15-.4.5 1-.45.15-.05m-7.6-.05 3.6 1.9.3-.15-31.4-16.45-.3.15 27.8 14.55-29.3 13.7v.7l-.2.65v.55l1.8.9 31.3-14.6M78 74.1l-2.55 1.2m5.7 1.2-.1 30.7-.15.55 33.3-15.55-31.4-16.45m-5.15 37.4.25-.15 2.55-1.2.45-.25.25-.3.2-.4q.2-.7-.1-1.35l-.1-.2-.65-.6-.25-.1-.2-.1H80l-.55.1h-.3l-.15.05-1 .45-2.55 1.2-.3.15-33.2 15.5-.35.45-.2.15.3.2q.4.4.45.95v2m35.5-51.55-.1 29.35.05.3.4.2.2.1q-.4-.3-.4-.75L77.9 78m.55 30.35.1.1.05-.05-.15-.05-.15-.15-.1-.1m-.2 1 .4-.5.15-.15m.6.15-.55-.2m2.3-.65-.3.4-.2.15.3.2.45.8m-.75-1-.4.2m1.15 3v-.25M86.5 74l30.25 15.9.2.1q-.4-.3-.4-.75l.1-29.35m.7 30.4-.15-.05.1.1.05-.05.55.2h.3l.5-.1.45-.2m-2.2-.2.1.1.15.15m.1.1-.15.15-.4.5 1-.45.15-.05m.8-.1.3.1.9.7m0 1.95-.7.55-2.55 1.2m-2.45-2.7 2.55-1.2M77.9 113l-.1 29.35q0 .5.5.85.45.4 1.1.4h.05l.75-.2M39.05 18.8l-.25.4-.05.05q-.3.6-.05 1.25l.4.6.4.35.1.05 2.75 1.45m-2.45-4.6 1.05.2 3.2 1.7m-4.95 33.4.3.3q.45.4 1.1.4h.05q.6-.05 1.1-.4m.3 34.65.1-28.9v-2q-.05-.55-.45-.95l-.75-.3-.4-.05h-.05l-.75.2h-.05l-.3.25q-.45.35-.5.8v2.15l-.1 29v1.95l.35.55.15.15.3.2.8.2h.05l.95-.3.2-.15.35-.45.1-.5v-1.3m.3-29.5-.2.05m-1.2-3.25 2.9-1.4m-.1 3.95-1.4.65-.1 27.6m5.5-30.15-3.7 1.75m-4.85-5.2-.15.15-.25.4-.05.05q-.3.6-.05 1.25l.4.6.4.35.1.05.15.1M5.1 38.45l34-15.9L39 53v.1l.2.55m-.35.15-2.4 1.1 3.25 1.7m-.8 3.2-.4-.15-1.8-.95L5.1 73.45 36.45 89.9l2.35-1.1m-2.1-30.1-3.95-2.05L3.5 70.35v.6q0 .5-.45.95l-.2.15.3.2.3.35 1.65.85m37.15-21.2.1-29M3.6 41.35 1.45 40.2q-.65-.3-.9-1-.25-.65.05-1.25v-.05q.3-.6.95-.8l1.25.15.65.35-.3-.35q-.5-.4-1.15-.35h-.05l-1.1.45-.4.5m3-.25 1.65.85L36.45 54.9m-36 17.95.4-.5.2-.2-.3-.2-.05-.05m.35.25.2.1.6.1h.05l.7-.15.25-.15m-.25.15.2.05.65.35m29.3-15.95L3.6 41.35l-.1 29m.1 6L1.45 75.2q-.65-.3-.9-1-.25-.65.05-1.25v-.05l.65-.65M.7 106.9l.05.05.3.2.2.1.6.1h.05l.7-.15.25-.15.2-.15q.45-.45.45-.95v-.6l.1-29 29.15 15.3 3.95 2.05 1.8.95.4.15v-2.15q.05-.45.5-.8l.2-.2m-38.35 15.6-.65.65v.05q-.3.6-.05 1.25.25.7.9 1l2.15 1.15m-3.15-3.5.4-.5.2-.2m1.8-.1.3.2.3.35 1.65.85L36.7 93.7M3.45 107.6l-.65-.35-.2-.05m36.2-16.45-.1-.25q-.25-.65.05-1.25l.05-.1m-2.35.75 2.7 1.4m2.8-.35 1.9-.9m-.1 3.95.3-.15 3.7-1.75 29.9-13.95m-35.6 45.45.1-28.9v-2q-.05-.55-.45-.95l-.3-.2m.95 3.1-.2.05m33 15.75L43.75 94l-1.4.65-.1 28.2v.1l-.2.65v1.85l-.1.5m-9.2-34.3L3.5 105.35m35.65 21 .15.1.3.2.8.2h.05l.95-.3M38.9 94.8l-.1 30.8.35.75-34.05-17.9m33.8 21.35v-2q0-.55.5-.95l.2-.2m38-18.85L47.75 92.1m-3.7 1.75 31.4 16.45m2.2-67.15L47.75 57.1 75.5 71.7" fill="none" stroke="#666" stroke-linecap="round" stroke-linejoin="round" stroke-width=".5"/></g></defs></svg>