<svg xmlns:xlink="http://www.w3.org/1999/xlink" height="85.3" width="73.85" xmlns="http://www.w3.org/2000/svg"><use height="85.3" width="73.85" xlink:href="#a"/><defs><radialGradient cx="0" cy="0" gradientTransform="matrix(.1629 .0238 -.0207 .1422 23.35 -21.95)" gradientUnits="userSpaceOnUse" id="b" r="819.2" spreadMethod="pad"><stop offset="0" stop-color="#f0f"/><stop offset=".855" stop-color="#666"/><stop offset="1" stop-color="#fff"/></radialGradient><radialGradient cx="0" cy="0" gradientTransform="rotate(134.952 15.527 .286) scale(.0845)" gradientUnits="userSpaceOnUse" id="c" r="819.2" spreadMethod="pad"><stop offset="0" stop-color="#f0f"/><stop offset=".855" stop-color="#666"/><stop offset="1" stop-color="#fff"/></radialGradient><radialGradient cx="0" cy="0" gradientTransform="matrix(.0332 .0577 -.0577 .0332 .75 -3.15)" gradientUnits="userSpaceOnUse" id="d" r="819.2" spreadMethod="pad"><stop offset="0" stop-color="#f0f"/><stop offset="1" stop-color="#666"/></radialGradient><radialGradient cx="0" cy="0" gradientTransform="matrix(.0562 .012 -.012 .0562 -14.15 8.3)" gradientUnits="userSpaceOnUse" id="e" r="819.2" spreadMethod="pad"><stop offset="0" stop-color="#f0f"/><stop offset=".855" stop-color="#666"/><stop offset="1" stop-color="#fff"/></radialGradient><radialGradient cx="0" cy="0" gradientTransform="rotate(19.218 -7.522 -69.417) scale(.0323)" gradientUnits="userSpaceOnUse" id="f" r="819.2" spreadMethod="pad"><stop offset="0" stop-color="#f0f"/><stop offset=".855" stop-color="#666"/><stop offset="1" stop-color="#fff"/></radialGradient><g id="a"><path d="M22.95 23.5q-9.9 3.25-23.85 3.25-14 0-23.9-3.25-9.9-3.25-9.9-7.85 0-4.65 9.9-7.9T-.9 4.5q13.95 0 23.85 3.25 9.9 3.25 9.9 7.9 0 4.6-9.9 7.85" fill-opacity=".2" fill-rule="evenodd" transform="translate(34.7 25)"/><path d="M-27.6-2.8q.8-3 3.05-6.2 3.55-5 9.4-8.65 3.5-2.2 7.9-3.95 11.55-4.55 22.2-3 10.65 1.55 14.15 8.25l.05.05q1.3 2.5 1.35 5.2-1.3-.2-2.4 0-1.7.4-2 1.55l-3.5 12.9-4.55 3.5Q15.25 8.6 12 10.1l1.05-3.85q.3-1.2-.95-2.55-1.2-1.25-3.2-1.9l-3.75-.35q-1.7.4-2 1.55L1.2 10.25H-.45l-1.3 1.1q-1.2 1.25-.9 2.45l.15.45-4.35.25q-2.95.3-5.75-.05l-.85-.15q-3.45-.6-5.85-2l-1.7-.8-2.05 7.55-.95-3.5q-.15-.5-.55-.85-.55-.45-1.5-.6l-3.7.25q-2.05.65-3.25 2l-.1.1 3.6-13.2q.3 1.85 1.55 3.45 1.9 2.35 4.6 3.6l.6.25 1.5.1 15.65 1.7.05-.3 3.4-2.6Q-.55 8.2 0 6.35.95 3.2-.85.45l.35-3.3-2.25-12.05-6.7 8.8q-1.45-1.3-3.3-1.15l-1.15.15-.2-.45-3.15-8-4.25 7.8-.85 1.55q-3.25.95-5.25 3.4" fill="url(#b)" fill-rule="evenodd" transform="translate(34.7 25)"/><path d="m30.5-11.1 1.35.35q2 .65 3.2 1.9Q36.3-7.5 36-6.3l-5.05 18.5q-.35 1.15-2.05 1.5l-3.7-.3q-2.05-.65-3.25-1.95-1.2-1.3-.9-2.5l1.55-5.6 3.5-12.9q.3-1.15 2-1.55 1.1-.2 2.4 0" fill="url(#c)" fill-rule="evenodd" transform="translate(34.7 25)"/><path d="m12 10.1-2.45 8.95-2.3-8.5-.1-.3H1.2L3.15 3q.3-1.15 2-1.55l3.75.35q2 .65 3.2 1.9 1.25 1.35.95 2.55L12 10.1m-13.2 8.95.65 2.45-1.25-.25.6-2.2" fill="url(#d)" fill-rule="evenodd" transform="translate(34.7 25)"/><path d="m9.55 19.05 1.7 6.2q3.25 1.45 6.05 3.25 2.45 1.6 4.55 3.45l-1.55-5.6q-.3-1.2.9-2.45 1.2-1.35 3.25-2l3.7-.25q1.7.3 2.05 1.45l5.05 18.55q.3 1.15-.95 2.5-1.2 1.25-3.2 1.95l-1.35.3q-.05 2.7-1.35 5.2l-.05.1q-3.5 6.65-14.15 8.2-10.65 1.55-22.2-3-4.4-1.75-7.9-3.95l-2.5-1.65q-4.15-3.1-6.9-7-2.25-3.2-3.05-6.15l-.25-.3-1.25-2-.5-1.7.1-2.1-3.65-13.25q-.3-1.15.8-2.35l.1-.1q1.2-1.35 3.25-2l3.7-.25q.95.15 1.5.6.4.35.55.85l.95 3.5 1.3 4.8 1.7-.85q2.4-1.4 5.85-2l.85-.1q2.8-.4 5.75-.1l1.45.05 4.35.4 1.25.25-.65-2.45-1.3-4.8-.15-.45q-.3-1.2.9-2.45l1.3-1.1h7.6l.1.3 2.3 8.5" fill-opacity=".2" fill-rule="evenodd" transform="translate(34.7 25)"/><path d="m-29.5 3.25-.1-2.1.5-1.7 1.25-1.95.25-.3q2-2.45 5.25-3.4l.85-1.55 4.25-7.8 3.15 8 .2.45 1.15-.15q1.85-.15 3.3 1.15l6.7-8.8L-.5-2.85-.85.45Q.95 3.2 0 6.35q-.55 1.85-2.15 3.1l-3.4 2.6-.05.3-15.65-1.7-1.5-.1-.6-.25q-2.7-1.25-4.6-3.6-1.25-1.6-1.55-3.45m9.55-4.85 5 .55-.4 2.35q-.55 3.65 1.2 7-1.75-3.35-1.2-7l.4-2.35-5-.55-.05 9.5 5.8.65-5.8-.65.05-9.5m9.1-.3q-.45.45-.45 1.1 0 .65.45 1.1.45.45 1.05.45.6 0 1.05-.45.45-.45.45-1.1 0-.65-.45-1.1-.45-.45-1.05-.45-.6 0-1.05.45.45-.45 1.05-.45.6 0 1.05.45.45.45.45 1.1 0 .65-.45 1.1-.45.45-1.05.45-.6 0-1.05-.45-.45-.45-.45-1.1 0-.65.45-1.1M-22.15-4q-.45-.45-1.05-.45-.6 0-1.05.45l-.45 1.1.45 1.1q.45.45 1.05.45.6 0 1.05-.45.45-.45.45-1.1 0-.65-.45-1.1.45.45.45 1.1 0 .65-.45 1.1-.45.45-1.05.45-.6 0-1.05-.45l-.45-1.1.45-1.1q.45-.45 1.05-.45.6 0 1.05.45m8 12.55V8.3l-.05.25v.05h.05v-.05l2.15.25-2.15-.25m2.15 1.6V8.8v1.35m4.85-.9v-3.5 3.5M-5 8.9v-2 2m-17.55.05.1-1.35-.1 1.35m.1-1.35 2.45.3-2.45-.3" fill="url(#e)" fill-rule="evenodd" transform="translate(34.7 25)"/><path d="m-14.2 8.55.05-.25v.3h-.05v-.05h.05-.05" fill="url(#f)" fill-rule="evenodd" transform="translate(34.7 25)"/><path d="M60.85 4q3.8-4.4 6.25.1l.25.2q3.45 3.5 5.5-.3" fill="none" stroke="#666" stroke-linecap="round" stroke-linejoin="round" stroke-width="2"/><path d="m13.2 17.25 4.25-7.8 3.15 8m4.65 1.45 6.7-8.8 2.25 12.05M12.55 21q.45.45.45 1.1 0 .65-.45 1.1-.45.45-1.05.45-.6 0-1.05-.45L10 22.1l.45-1.1q.45-.45 1.05-.45.6 0 1.05.45m11.3 2.1q.45-.45 1.05-.45.6 0 1.05.45.45.45.45 1.1 0 .65-.45 1.1-.45.45-1.05.45-.6 0-1.05-.45-.45-.45-.45-1.1 0-.65.45-1.1m-3.3 10.2q-1.75-3.35-1.2-7l.4-2.35-5-.55m7.95 10.4v1.35m7-3.25v2m-17.45-1.3-.1 1.35m2.6-10.55-.05 9.5 5.8.65m.05 0 2.15.25m4.85-3.05v3.5m-7-.7h-.05m-5.8-.65-2.45-.3" fill="none" stroke="#666" stroke-linecap="round" stroke-linejoin="round" stroke-width="1.5"/></g></defs></svg>