<svg xmlns="http://www.w3.org/2000/svg" xmlns:xlink="http://www.w3.org/1999/xlink" height="85.838" width="72.71"><path d="M23.06 46.444q2.8-.4 5.75-.1l7.05.7v-.05l-2.1-7.65q-.3-1.2.9-2.45 1.2-1.35 3.25-2l3.7-.25q1.7.3 2.05 1.45l4 14.7q1.35.55 2.6 1.25l3.85 2.25 3.95 3.05.2.15-1.55-5.6q-.3-1.2.9-2.45 1.2-1.35 3.25-2l3.7-.25q1.7.3 2.05 1.45l5.05 18.55.05.55q-.05.9-1 1.95-1.2 1.25-3.2 1.95l-1.35.3q-.05 2.7-1.35 5.2-3.5 6.75-14.2 8.3-10.65 1.55-22.2-3-11.6-4.55-17.3-12.6-2.1-2.95-2.95-5.7-1.95-1.9-2.2-4.45l.15-2.25-3.6-13.1q-.3-1.2.9-2.45 1.2-1.35 3.25-2l3.7-.25q1.7.3 2.05 1.45l2.25 8.3 1.7-.85q2.4-1.4 5.85-2l.85-.1m3.6 3.35-.05-.2-.1-.45.15.65m-5.6 2.6v-.05l-2.35.3 2.35-.25m-6.65-2.2.2.4v-.05l-.2-.35" fill-opacity=".2" fill-rule="evenodd"/><path d="m12.21 36.494 1.7.8q2.4 1.4 5.85 2l.85.15q2.8.35 5.75.05l7.05-.65-2.1 7.65q-.3 1.2.9 2.5t3.25 1.95l3.7.3q1.7-.35 2.05-1.5l4-14.65 2.6-1.25 1.45-.8 5 .9q-.3 1.2.9 2.5t3.25 1.95l3.7.3q1.6-.3 2-1.3 3.65 2.05 3.65 4.55 0 4.1-9.85 7-9.85 2.95-23.75 2.95-13.95 0-23.8-2.95-6.4-1.9-8.6-4.25 1 .8 2.45 1.25l3.7.3q1.7-.35 2.05-1.5l2.25-8.25m-1.35 10-.15-.1.05.05.1.05" fill-opacity=".2" fill-rule="evenodd"/><path d="m21.7 5.45 3.5-12.9q.3-1.15 2-1.55 1.1-.2 2.4 0l1.35.35q2 .65 3.2 1.9.95 1.05 1 2l-.05.55-5.05 18.5-.05.2q-.4 1-2 1.3l-3.7-.3q-2.05-.65-3.25-1.95-1.2-1.3-.9-2.5L21.7 5.5v-.05" fill="url(#a)" fill-rule="evenodd" transform="translate(34.11 22.894)"/><path d="M29.6-9q-1.3-.2-2.4 0-1.7.4-2 1.55l-3.5 12.9-.2.2-3.95 3-2.4 1.5-1.45.8-2.6 1.25 1.05-3.85q.3-1.2-.95-2.55Q10 4.55 8 3.9l-3.75-.35q-1.7.4-2 1.55L-.7 15.95l-7.05.65q-2.95.3-5.75-.05l-.85-.15q-3.45-.6-5.85-2l-1.7-.8.2-.8 11.65 1.25 3.55.4h.05v-.3l3.5-2.3v-.2Q-.9 9.7-.65 7.15q.25-2.45-1.1-4.6l.35-3.3-.1-.45-2.15-11.6-6.7 8.8-.05-.05q-2.25-1.7-4.75-.85l-.1-.3-.1-.35-2.8-7.9-4.25 7.85-.85 1.5-.15.05-.1.05-2 .85-.15.1h-.05l-.15.1-1.4.85-1.15.95q.85-2.8 2.95-5.75 5.7-8.05 17.3-12.6 11.55-4.55 22.2-3 10.7 1.55 14.2 8.3 1.3 2.5 1.35 5.2" fill="url(#b)" fill-rule="evenodd" transform="translate(34.11 22.894)"/><path d="M-.7 15.95 2.25 5.1q.3-1.15 2-1.55L8 3.9q2 .65 3.2 1.9 1.25 1.35.95 2.55L11.1 12.2l-4 14.65q-.35 1.15-2.05 1.5l-3.7-.3Q-.7 27.4-1.9 26.1q-1.2-1.3-.9-2.5l2.1-7.65" fill="url(#c)" fill-rule="evenodd" transform="translate(34.11 22.894)"/><path d="m-21.7 12.8-.2.8-2.25 8.25q-.35 1.15-2.05 1.5l-3.7-.3q-1.45-.45-2.45-1.25l-.8-.7q-1.2-1.3-.9-2.5l3.6-13.05.15.55q.45 1.5 1.4 2.75l1.9 1.9 3.35 1.9 1.5.1.2.05h.25" fill="url(#d)" fill-rule="evenodd" transform="translate(34.11 22.894)"/><path d="m-28.4-1.15 1.15-.95 1.4-.85.15-.1h.05l.15-.1 2-.85.1-.05.15-.05.85-1.5 4.25-7.85 2.8 7.9.1.35.1.3q2.5-.85 4.75.85l.05.05 6.7-8.8L-1.5-1.2l.1.45-.35 3.3Q-.4 4.7-.65 7.15q-.25 2.55-2.3 4.5v.2l-3.5 2.3v.3h-.05l-3.55-.4-11.65-1.25h-.25l-.2-.05-1.5-.1-3.35-1.9-1.9-1.9q-.95-1.25-1.4-2.75l-.15-.55-.15-2.3q.25-2.55 2.2-4.4m19.2 2.6Q-9.1.8-9.5.3l-.3-.25-.75-.3-1.1.3q-.5.4-.55 1.05-.1.65.3 1.15.4.45 1.05.55l1.1-.35q.5-.35.55-1m-16.25-3-.15.6q-.1.6.3 1.05.4.5 1.05.6.65.05 1.1-.35.4-.35.55-.85v-.35q0-.55-.35-.95-.35-.45-1-.5l-1.15.25-.35.5m16.5 12.85.35-3.4-.35 3.4m2.35-.15.25-2.5-.25 2.5m-11.25-.85 2.35.3v-.05l-2.35-.25m2.8.15q-2.3-4.95-.8-9.4l-5-.55 5 .55q-1.5 4.45.8 9.4m5.1 2.95.05-.25-.15.65.1-.4m-3.6-.95.05-1.55-7.35-.9V.5 10l7.35.9-.05 1.55m-9.8-2.75-.1 1.35.1-1.35 2.45.3h.05-.05l-2.45-.3m1.2 3.05.2-.3v-.05l-.2.35" fill="url(#e)" fill-rule="evenodd" transform="translate(34.11 22.894)"/><path d="m8.66 21.344.35-.5 1.15-.25q.65.05 1 .5.35.4.35.95v.35q-.15.5-.55.85-.45.4-1.1.35-.65-.1-1.05-.6-.4-.45-.3-1.05l.15-.6m16.25 3q-.05.65-.55 1l-1.1.35q-.65-.1-1.05-.55-.4-.5-.3-1.15.05-.65.55-1.05l1.1-.3.75.3.3.25q.4.5.3 1.15" fill="#fff" fill-rule="evenodd"/><path d="m-17.85 10.3 2.35.25v.05l-2.35-.3" fill="url(#f)" fill-rule="evenodd" transform="translate(34.11 22.894)"/><path d="m24.16 36.294-.1.4.15-.65-.05.25m-12.2-.65.2-.35v.05l-.2.3m-1.1 10.85-.1-.05-.05-.05.15.1" fill="#999" fill-rule="evenodd"/><path d="M59.71 3.894q3.8-4.4 6.25.1l.25.2q3.45 3.5 5.5-.3" fill="none" stroke="#666" stroke-linecap="round" stroke-linejoin="round" stroke-width="2"/><path d="m8.66 21.344.35-.5 1.15-.25q.65.05 1 .5.35.4.35.95v.35q-.15.5-.55.85-.45.4-1.1.35-.65-.1-1.05-.6-.4-.45-.3-1.05l.15-.6m16.25 3q-.05.65-.55 1l-1.1.35q-.65-.1-1.05-.55-.4-.5-.3-1.15.05-.65.55-1.05l1.1-.3.75.3.3.25q.4.5.3 1.15m2.85 7.2-.25 2.5m-2-3.25-.35 3.4m-11.9-10.8 5 .55q-1.5 4.45.8 9.4m-8.4.6.1-1.35" fill="none" stroke="#666" stroke-linecap="round" stroke-linejoin="round" stroke-width="1.5"/><path d="m11.71 17.294 4.25-7.85 2.8 7.9.1.35m4.85 1.15.05.05 6.7-8.8 2.15 11.6m-19.35 1.7v9.5l7.35.9-.05 1.55m-9.8-2.75 2.45.3h.05" fill="none" stroke="#666" stroke-linecap="round" stroke-linejoin="round" stroke-width="1.5"/><defs><radialGradient cx="0" cy="0" gradientTransform="translate(26.75 -6.8) scale(.0226)" gradientUnits="userSpaceOnUse" id="g" r="819.2" spreadMethod="pad"><stop offset="0" stop-color="#fff"/><stop offset=".937" stop-color="#999"/></radialGradient><radialGradient cx="0" cy="0" gradientTransform="translate(19.5 -11.8) scale(.0607)" gradientUnits="userSpaceOnUse" id="h" r="819.2" spreadMethod="pad"><stop offset="0" stop-color="#fff"/><stop offset=".827" stop-color="#999"/></radialGradient><radialGradient cx="0" cy="0" gradientTransform="translate(6.1 7.45) scale(.0191)" gradientUnits="userSpaceOnUse" id="i" r="819.2" spreadMethod="pad"><stop offset="0" stop-color="#fff"/><stop offset=".937" stop-color="#999"/></radialGradient><radialGradient cx="0" cy="0" gradientTransform="translate(-25.6 9.7) scale(.0171)" gradientUnits="userSpaceOnUse" id="j" r="819.2" spreadMethod="pad"><stop offset="0" stop-color="#fff"/><stop offset=".937" stop-color="#999"/></radialGradient><radialGradient cx="0" cy="0" gradientTransform="translate(-12.65 6.7) scale(.0268)" gradientUnits="userSpaceOnUse" id="k" r="819.2" spreadMethod="pad"><stop offset="0" stop-color="#fff"/><stop offset=".937" stop-color="#999"/></radialGradient><radialGradient cx="0" cy="0" gradientTransform="translate(-16.25 6.65) scale(.0353)" gradientUnits="userSpaceOnUse" id="l" r="819.2" spreadMethod="pad"><stop offset="0" stop-color="#fff"/><stop offset=".937" stop-color="#999" stop-opacity=".6"/></radialGradient><radialGradient xlink:href="#g" id="a" gradientUnits="userSpaceOnUse" gradientTransform="translate(26.75 -6.8) scale(.0226)" cx="0" cy="0" r="819.2" spreadMethod="pad"/><radialGradient xlink:href="#h" id="b" gradientUnits="userSpaceOnUse" gradientTransform="translate(19.5 -11.8) scale(.0607)" cx="0" cy="0" r="819.2" spreadMethod="pad"/><radialGradient xlink:href="#i" id="c" gradientUnits="userSpaceOnUse" gradientTransform="translate(6.1 7.45) scale(.0191)" cx="0" cy="0" r="819.2" spreadMethod="pad"/><radialGradient xlink:href="#j" id="d" gradientUnits="userSpaceOnUse" gradientTransform="translate(-25.6 9.7) scale(.0171)" cx="0" cy="0" r="819.2" spreadMethod="pad"/><radialGradient xlink:href="#k" id="e" gradientUnits="userSpaceOnUse" gradientTransform="translate(-12.65 6.7) scale(.0268)" cx="0" cy="0" r="819.2" spreadMethod="pad"/><radialGradient xlink:href="#l" id="f" gradientUnits="userSpaceOnUse" gradientTransform="translate(-16.25 6.65) scale(.0353)" cx="0" cy="0" r="819.2" spreadMethod="pad"/></defs></svg>