<svg xmlns:xlink="http://www.w3.org/1999/xlink" height="114.7" width="219.85" xmlns="http://www.w3.org/2000/svg"><use height="114.7" transform="matrix(-1 0 0 1 219.85 0)" width="219.85" xlink:href="#a"/><defs><radialGradient cx="0" cy="0" gradientTransform="matrix(.002 0 0 .002 -.2 -33.2)" gradientUnits="userSpaceOnUse" id="d" r="819.2" spreadMethod="pad"><stop offset="0" stop-color="#804000"/><stop offset="1" stop-color="#999"/></radialGradient><radialGradient cx="0" cy="0" gradientTransform="matrix(.002 0 0 .002 3 -32.75)" gradientUnits="userSpaceOnUse" id="e" r="819.2" spreadMethod="pad"><stop offset="0" stop-color="#804000"/><stop offset="1" stop-color="#999"/></radialGradient><radialGradient cx="0" cy="0" gradientTransform="matrix(.002 0 0 .002 3 -29.5)" gradientUnits="userSpaceOnUse" id="f" r="819.2" spreadMethod="pad"><stop offset="0" stop-color="#804000"/><stop offset="1" stop-color="#999"/></radialGradient><radialGradient cx="0" cy="0" gradientTransform="matrix(.002 0 0 .002 5.05 -28.95)" gradientUnits="userSpaceOnUse" id="g" r="819.2" spreadMethod="pad"><stop offset="0" stop-color="#804000"/><stop offset="1" stop-color="#999"/></radialGradient><radialGradient cx="0" cy="0" gradientTransform="matrix(.002 0 0 .002 10.3 -28.95)" gradientUnits="userSpaceOnUse" id="h" r="819.2" spreadMethod="pad"><stop offset="0" stop-color="#804000"/><stop offset="1" stop-color="#999"/></radialGradient><radialGradient cx="0" cy="0" gradientTransform="matrix(.002 0 0 .002 10.3 -25.7)" gradientUnits="userSpaceOnUse" id="i" r="819.2" spreadMethod="pad"><stop offset="0" stop-color="#804000"/><stop offset="1" stop-color="#999"/></radialGradient><radialGradient cx="0" cy="0" gradientTransform="matrix(.002 0 0 .002 12 -27.5)" gradientUnits="userSpaceOnUse" id="j" r="819.2" spreadMethod="pad"><stop offset="0" stop-color="#804000"/><stop offset="1" stop-color="#999"/></radialGradient><radialGradient cx="0" cy="0" gradientTransform="matrix(.002 0 0 .002 15.25 -25.5)" gradientUnits="userSpaceOnUse" id="k" r="819.2" spreadMethod="pad"><stop offset="0" stop-color="#804000"/><stop offset="1" stop-color="#999"/></radialGradient><radialGradient cx="0" cy="0" gradientTransform="matrix(.002 0 0 .002 19.3 -23.7)" gradientUnits="userSpaceOnUse" id="l" r="819.2" spreadMethod="pad"><stop offset="0" stop-color="#804000"/><stop offset="1" stop-color="#999"/></radialGradient><radialGradient cx="0" cy="0" gradientTransform="translate(20.5 -24.35) scale(.0021)" gradientUnits="userSpaceOnUse" id="m" r="819.2" spreadMethod="pad"><stop offset="0" stop-color="#804000"/><stop offset="1" stop-color="#999"/></radialGradient><radialGradient cx="0" cy="0" gradientTransform="translate(19.85 -20) scale(.0021)" gradientUnits="userSpaceOnUse" id="n" r="819.2" spreadMethod="pad"><stop offset="0" stop-color="#804000"/><stop offset="1" stop-color="#999"/></radialGradient><radialGradient cx="0" cy="0" gradientTransform="translate(10.3 -18.35) scale(.0021)" gradientUnits="userSpaceOnUse" id="o" r="819.2" spreadMethod="pad"><stop offset="0" stop-color="#804000"/><stop offset="1" stop-color="#999"/></radialGradient><radialGradient cx="0" cy="0" gradientTransform="matrix(.002 0 0 .002 11.5 -12.75)" gradientUnits="userSpaceOnUse" id="p" r="819.2" spreadMethod="pad"><stop offset="0" stop-color="#804000"/><stop offset="1" stop-color="#999"/></radialGradient><radialGradient cx="0" cy="0" gradientTransform="translate(3 -22.15) scale(.0021)" gradientUnits="userSpaceOnUse" id="q" r="819.2" spreadMethod="pad"><stop offset="0" stop-color="#804000"/><stop offset="1" stop-color="#999"/></radialGradient><radialGradient cx="0" cy="0" gradientTransform="translate(1.8 -19.35) scale(.0021)" gradientUnits="userSpaceOnUse" id="r" r="819.2" spreadMethod="pad"><stop offset="0" stop-color="#804000"/><stop offset="1" stop-color="#999"/></radialGradient><radialGradient cx="0" cy="0" gradientTransform="matrix(.002 0 0 .002 5.8 -12.7)" gradientUnits="userSpaceOnUse" id="s" r="819.2" spreadMethod="pad"><stop offset="0" stop-color="#804000"/><stop offset="1" stop-color="#999"/></radialGradient><radialGradient cx="0" cy="0" gradientTransform="translate(5.55 -8.05) scale(.0028)" gradientUnits="userSpaceOnUse" id="t" r="819.2" spreadMethod="pad"><stop offset="0" stop-color="#804000"/><stop offset="1" stop-color="#999"/></radialGradient><radialGradient cx="0" cy="0" gradientTransform="matrix(.002 0 0 .002 -.45 -11.95)" gradientUnits="userSpaceOnUse" id="v" r="819.2" spreadMethod="pad"><stop offset="0" stop-color="#804000"/><stop offset="1" stop-color="#999"/></radialGradient><radialGradient cx="0" cy="0" gradientTransform="translate(-1.75 -11.85) scale(.0028)" gradientUnits="userSpaceOnUse" id="w" r="819.2" spreadMethod="pad"><stop offset="0" stop-color="#804000"/><stop offset="1" stop-color="#999"/></radialGradient><radialGradient cx="0" cy="0" gradientTransform="matrix(.002 0 0 .002 18.8 -8.95)" gradientUnits="userSpaceOnUse" id="x" r="819.2" spreadMethod="pad"><stop offset="0" stop-color="#804000"/><stop offset="1" stop-color="#999"/></radialGradient><radialGradient cx="0" cy="0" gradientTransform="translate(10.85 -9) scale(.0021)" gradientUnits="userSpaceOnUse" id="y" r="819.2" spreadMethod="pad"><stop offset="0" stop-color="#804000"/><stop offset="1" stop-color="#999"/></radialGradient><radialGradient cx="0" cy="0" gradientTransform="translate(18.15 -5.2) scale(.0021)" gradientUnits="userSpaceOnUse" id="z" r="819.2" spreadMethod="pad"><stop offset="0" stop-color="#804000"/><stop offset="1" stop-color="#999"/></radialGradient><radialGradient cx="0" cy="0" gradientTransform="translate(44 16.25) scale(.0985)" gradientUnits="userSpaceOnUse" id="A" r="819.2" spreadMethod="pad"><stop offset="0" stop-color="#804000"/><stop offset="1" stop-color="#999"/></radialGradient><radialGradient cx="0" cy="0" gradientTransform="translate(27.8 -20.55) scale(.0021)" gradientUnits="userSpaceOnUse" id="B" r="819.2" spreadMethod="pad"><stop offset="0" stop-color="#804000"/><stop offset="1" stop-color="#999"/></radialGradient><radialGradient cx="0" cy="0" gradientTransform="matrix(.002 0 0 .002 22.55 -21.7)" gradientUnits="userSpaceOnUse" id="C" r="819.2" spreadMethod="pad"><stop offset="0" stop-color="#804000"/><stop offset="1" stop-color="#999"/></radialGradient><radialGradient cx="0" cy="0" gradientTransform="translate(27.15 -16.2) scale(.0021)" gradientUnits="userSpaceOnUse" id="D" r="819.2" spreadMethod="pad"><stop offset="0" stop-color="#804000"/><stop offset="1" stop-color="#999"/></radialGradient><radialGradient cx="0" cy="0" gradientTransform="matrix(.002 0 0 .002 25.25 -6.5)" gradientUnits="userSpaceOnUse" id="E" r="819.2" spreadMethod="pad"><stop offset="0" stop-color="#804000"/><stop offset="1" stop-color="#999"/></radialGradient><radialGradient cx="0" cy="0" gradientTransform="matrix(.002 0 0 .002 31.25 -11.5)" gradientUnits="userSpaceOnUse" id="F" r="819.2" spreadMethod="pad"><stop offset="0" stop-color="#804000"/><stop offset="1" stop-color="#999"/></radialGradient><radialGradient cx="0" cy="0" gradientTransform="translate(39.75 -5.5) scale(.0018)" gradientUnits="userSpaceOnUse" id="G" r="819.2" spreadMethod="pad"><stop offset="0" stop-color="#804000"/><stop offset="1" stop-color="#999"/></radialGradient><radialGradient cx="0" cy="0" gradientTransform="matrix(.002 0 0 .002 38.55 -7.7)" gradientUnits="userSpaceOnUse" id="H" r="819.2" spreadMethod="pad"><stop offset="0" stop-color="#804000"/><stop offset="1" stop-color="#999"/></radialGradient><radialGradient cx="0" cy="0" gradientTransform="matrix(.002 0 0 .002 34 -3.25)" gradientUnits="userSpaceOnUse" id="I" r="819.2" spreadMethod="pad"><stop offset="0" stop-color="#804000"/><stop offset="1" stop-color="#999"/></radialGradient><radialGradient cx="0" cy="0" gradientTransform="matrix(.002 0 0 .002 32.55 -2.7)" gradientUnits="userSpaceOnUse" id="J" r="819.2" spreadMethod="pad"><stop offset="0" stop-color="#804000"/><stop offset="1" stop-color="#999"/></radialGradient><radialGradient cx="0" cy="0" gradientTransform="translate(2.7 1.55) scale(.1411)" gradientUnits="userSpaceOnUse" id="K" r="819.2" spreadMethod="pad"><stop offset="0" stop-color="#996"/><stop offset=".624" stop-color="#7e8172"/></radialGradient><radialGradient cx="0" cy="0" gradientTransform="matrix(.002 0 0 .002 41.3 .55)" gradientUnits="userSpaceOnUse" id="L" r="819.2" spreadMethod="pad"><stop offset="0" stop-color="#804000"/><stop offset="1" stop-color="#999"/></radialGradient><radialGradient cx="0" cy="0" gradientTransform="translate(47.05 -1.7) scale(.0018)" gradientUnits="userSpaceOnUse" id="M" r="819.2" spreadMethod="pad"><stop offset="0" stop-color="#804000"/><stop offset="1" stop-color="#999"/></radialGradient><radialGradient cx="0" cy="0" gradientTransform="matrix(.002 0 0 .002 52.55 -6.95)" gradientUnits="userSpaceOnUse" id="N" r="819.2" spreadMethod="pad"><stop offset="0" stop-color="#804000"/><stop offset="1" stop-color="#999"/></radialGradient><radialGradient cx="0" cy="0" gradientTransform="matrix(.002 0 0 .002 52.3 .55)" gradientUnits="userSpaceOnUse" id="P" r="819.2" spreadMethod="pad"><stop offset="0" stop-color="#804000"/><stop offset="1" stop-color="#999"/></radialGradient><radialGradient cx="0" cy="0" gradientTransform="matrix(.002 0 0 .002 60.3 -4.45)" gradientUnits="userSpaceOnUse" id="Q" r="819.2" spreadMethod="pad"><stop offset="0" stop-color="#804000"/><stop offset="1" stop-color="#999"/></radialGradient><radialGradient cx="0" cy="0" gradientTransform="translate(56.8 -2.35) scale(.0021)" gradientUnits="userSpaceOnUse" id="R" r="819.2" spreadMethod="pad"><stop offset="0" stop-color="#804000"/><stop offset="1" stop-color="#999"/></radialGradient><radialGradient cx="0" cy="0" gradientTransform="translate(66.65 -.5) scale(.0022)" gradientUnits="userSpaceOnUse" id="S" r="819.2" spreadMethod="pad"><stop offset="0" stop-color="#804000"/><stop offset="1" stop-color="#999"/></radialGradient><radialGradient cx="0" cy="0" gradientTransform="translate(61.15 .55) scale(.0021)" gradientUnits="userSpaceOnUse" id="T" r="819.2" spreadMethod="pad"><stop offset="0" stop-color="#804000"/><stop offset="1" stop-color="#999"/></radialGradient><radialGradient cx="0" cy="0" gradientTransform="translate(62 3.05) scale(.0023)" gradientUnits="userSpaceOnUse" id="U" r="819.2" spreadMethod="pad"><stop offset="0" stop-color="#804000"/><stop offset="1" stop-color="#999"/></radialGradient><radialGradient cx="0" cy="0" gradientTransform="matrix(.002 0 0 .002 60.8 10.05)" gradientUnits="userSpaceOnUse" id="V" r="819.2" spreadMethod="pad"><stop offset="0" stop-color="#804000"/><stop offset="1" stop-color="#999"/></radialGradient><radialGradient cx="0" cy="0" gradientTransform="matrix(.002 0 0 .002 49.8 8.3)" gradientUnits="userSpaceOnUse" id="W" r="819.2" spreadMethod="pad"><stop offset="0" stop-color="#804000"/><stop offset="1" stop-color="#999"/></radialGradient><radialGradient cx="0" cy="0" gradientTransform="translate(57.2 11.8) scale(.0026)" gradientUnits="userSpaceOnUse" id="X" r="819.2" spreadMethod="pad"><stop offset="0" stop-color="#804000"/><stop offset="1" stop-color="#999"/></radialGradient><radialGradient cx="0" cy="0" gradientTransform="matrix(.002 0 0 .002 42.5 4.5)" gradientUnits="userSpaceOnUse" id="Y" r="819.2" spreadMethod="pad"><stop offset="0" stop-color="#804000"/><stop offset="1" stop-color="#999"/></radialGradient><radialGradient cx="0" cy="0" gradientTransform="translate(42.65 12.05) scale(.0021)" gradientUnits="userSpaceOnUse" id="Z" r="819.2" spreadMethod="pad"><stop offset="0" stop-color="#804000"/><stop offset="1" stop-color="#999"/></radialGradient><radialGradient cx="0" cy="0" gradientTransform="matrix(.002 0 0 .002 39.75 16.75)" gradientUnits="userSpaceOnUse" id="aa" r="819.2" spreadMethod="pad"><stop offset="0" stop-color="#804000"/><stop offset="1" stop-color="#999"/></radialGradient><radialGradient cx="0" cy="0" gradientTransform="translate(50.15 15.4) scale(.0023)" gradientUnits="userSpaceOnUse" id="ab" r="819.2" spreadMethod="pad"><stop offset="0" stop-color="#804000"/><stop offset="1" stop-color="#999"/></radialGradient><radialGradient cx="0" cy="0" gradientTransform="translate(38.55 5.15) scale(.0021)" gradientUnits="userSpaceOnUse" id="ac" r="819.2" spreadMethod="pad"><stop offset="0" stop-color="#804000"/><stop offset="1" stop-color="#999"/></radialGradient><radialGradient cx="0" cy="0" gradientTransform="translate(31.25 1.35) scale(.0021)" gradientUnits="userSpaceOnUse" id="ad" r="819.2" spreadMethod="pad"><stop offset="0" stop-color="#804000"/><stop offset="1" stop-color="#999"/></radialGradient><radialGradient cx="0" cy="0" gradientTransform="translate(34.75 7.65) scale(.0021)" gradientUnits="userSpaceOnUse" id="ae" r="819.2" spreadMethod="pad"><stop offset="0" stop-color="#804000"/><stop offset="1" stop-color="#999"/></radialGradient><radialGradient cx="0" cy="0" gradientTransform="translate(35.35 8.25) scale(.0021)" gradientUnits="userSpaceOnUse" id="af" r="819.2" spreadMethod="pad"><stop offset="0" stop-color="#804000"/><stop offset="1" stop-color="#999"/></radialGradient><radialGradient cx="0" cy="0" gradientTransform="translate(27.45 3.85) scale(.0021)" gradientUnits="userSpaceOnUse" id="ag" r="819.2" spreadMethod="pad"><stop offset="0" stop-color="#804000"/><stop offset="1" stop-color="#999"/></radialGradient><radialGradient cx="0" cy="0" gradientTransform="matrix(.002 0 0 .002 21.55 25.3)" gradientUnits="userSpaceOnUse" id="ah" r="819.2" spreadMethod="pad"><stop offset="0" stop-color="#804000"/><stop offset="1" stop-color="#999"/></radialGradient><radialGradient cx="0" cy="0" gradientTransform="translate(23.25 24.25) scale(.0018)" gradientUnits="userSpaceOnUse" id="ai" r="819.2" spreadMethod="pad"><stop offset="0" stop-color="#804000"/><stop offset="1" stop-color="#999"/></radialGradient><radialGradient cx="0" cy="0" gradientTransform="translate(13.15 11.05) scale(.0021)" gradientUnits="userSpaceOnUse" id="aj" r="819.2" spreadMethod="pad"><stop offset="0" stop-color="#804000"/><stop offset="1" stop-color="#999"/></radialGradient><radialGradient cx="0" cy="0" gradientTransform="matrix(.002 0 0 .002 2.55 1.3)" gradientUnits="userSpaceOnUse" id="ak" r="819.2" spreadMethod="pad"><stop offset="0" stop-color="#804000"/><stop offset="1" stop-color="#999"/></radialGradient><radialGradient cx="0" cy="0" gradientTransform="matrix(.002 0 0 .002 6.3 13.05)" gradientUnits="userSpaceOnUse" id="al" r="819.2" spreadMethod="pad"><stop offset="0" stop-color="#804000"/><stop offset="1" stop-color="#999"/></radialGradient><radialGradient cx="0" cy="0" gradientTransform="translate(5.85 7.25) scale(.0021)" gradientUnits="userSpaceOnUse" id="am" r="819.2" spreadMethod="pad"><stop offset="0" stop-color="#804000"/><stop offset="1" stop-color="#999"/></radialGradient><radialGradient cx="0" cy="0" gradientTransform="translate(9.4 14.4) scale(.0026)" gradientUnits="userSpaceOnUse" id="an" r="819.2" spreadMethod="pad"><stop offset="0" stop-color="#804000"/><stop offset="1" stop-color="#999"/></radialGradient><radialGradient cx="0" cy="0" gradientTransform="translate(1.35 18) scale(.0021)" gradientUnits="userSpaceOnUse" id="ao" r="819.2" spreadMethod="pad"><stop offset="0" stop-color="#804000"/><stop offset="1" stop-color="#999"/></radialGradient><radialGradient cx="0" cy="0" gradientTransform="matrix(.002 0 0 .002 3.05 24.05)" gradientUnits="userSpaceOnUse" id="ap" r="819.2" spreadMethod="pad"><stop offset="0" stop-color="#804000"/><stop offset="1" stop-color="#999"/></radialGradient><radialGradient cx="0" cy="0" gradientTransform="translate(8.65 21.8) scale(.0021)" gradientUnits="userSpaceOnUse" id="aq" r="819.2" spreadMethod="pad"><stop offset="0" stop-color="#804000"/><stop offset="1" stop-color="#999"/></radialGradient><radialGradient cx="0" cy="0" gradientTransform="translate(7 25.35) scale(.0022)" gradientUnits="userSpaceOnUse" id="ar" r="819.2" spreadMethod="pad"><stop offset="0" stop-color="#804000"/><stop offset="1" stop-color="#999"/></radialGradient><radialGradient cx="0" cy="0" gradientTransform="translate(16.7 18.2) scale(.0026)" gradientUnits="userSpaceOnUse" id="as" r="819.2" spreadMethod="pad"><stop offset="0" stop-color="#804000"/><stop offset="1" stop-color="#999"/></radialGradient><radialGradient cx="0" cy="0" gradientTransform="matrix(.002 0 0 .002 14.25 21.5)" gradientUnits="userSpaceOnUse" id="at" r="819.2" spreadMethod="pad"><stop offset="0" stop-color="#804000"/><stop offset="1" stop-color="#999"/></radialGradient><radialGradient cx="0" cy="0" gradientTransform="translate(14.3 29.15) scale(.0022)" gradientUnits="userSpaceOnUse" id="au" r="819.2" spreadMethod="pad"><stop offset="0" stop-color="#804000"/><stop offset="1" stop-color="#999"/></radialGradient><radialGradient cx="0" cy="0" gradientTransform="translate(11.25 34.35) scale(.0021)" gradientUnits="userSpaceOnUse" id="av" r="819.2" spreadMethod="pad"><stop offset="0" stop-color="#804000"/><stop offset="1" stop-color="#999"/></radialGradient><radialGradient cx="0" cy="0" gradientTransform="matrix(.002 0 0 .002 3.3 33.8)" gradientUnits="userSpaceOnUse" id="aw" r="819.2" spreadMethod="pad"><stop offset="0" stop-color="#804000"/><stop offset="1" stop-color="#999"/></radialGradient><radialGradient cx="0" cy="0" gradientTransform="matrix(.002 0 0 .002 2.5 33.75)" gradientUnits="userSpaceOnUse" id="ax" r="819.2" spreadMethod="pad"><stop offset="0" stop-color="#804000"/><stop offset="1" stop-color="#999"/></radialGradient><radialGradient cx="0" cy="0" gradientTransform="translate(-93.9 -27.5) scale(.0021)" gradientUnits="userSpaceOnUse" id="ay" r="819.2" spreadMethod="pad"><stop offset="0" stop-color="#804000"/><stop offset="1" stop-color="#999"/></radialGradient><radialGradient cx="0" cy="0" gradientTransform="translate(-86.65 -32.25) scale(.0021)" gradientUnits="userSpaceOnUse" id="az" r="819.2" spreadMethod="pad"><stop offset="0" stop-color="#804000"/><stop offset="1" stop-color="#999"/></radialGradient><radialGradient cx="0" cy="0" gradientTransform="translate(-81.25 -34.15) scale(.0021)" gradientUnits="userSpaceOnUse" id="aA" r="819.2" spreadMethod="pad"><stop offset="0" stop-color="#804000"/><stop offset="1" stop-color="#999"/></radialGradient><radialGradient cx="0" cy="0" gradientTransform="translate(-80.5 -25.15) scale(.0021)" gradientUnits="userSpaceOnUse" id="aB" r="819.2" spreadMethod="pad"><stop offset="0" stop-color="#804000"/><stop offset="1" stop-color="#999"/></radialGradient><radialGradient cx="0" cy="0" gradientTransform="matrix(.002 0 0 .002 -107 -23.75)" gradientUnits="userSpaceOnUse" id="aC" r="819.2" spreadMethod="pad"><stop offset="0" stop-color="#804000"/><stop offset="1" stop-color="#999"/></radialGradient><radialGradient cx="0" cy="0" gradientTransform="matrix(.002 0 0 .002 -101.5 -18)" gradientUnits="userSpaceOnUse" id="aD" r="819.2" spreadMethod="pad"><stop offset="0" stop-color="#804000"/><stop offset="1" stop-color="#999"/></radialGradient><radialGradient cx="0" cy="0" gradientTransform="matrix(.002 0 0 .002 -110.5 -21.5)" gradientUnits="userSpaceOnUse" id="aE" r="819.2" spreadMethod="pad"><stop offset="0" stop-color="#804000"/><stop offset="1" stop-color="#999"/></radialGradient><radialGradient cx="0" cy="0" gradientTransform="matrix(.002 0 0 .002 -85.5 -22.25)" gradientUnits="userSpaceOnUse" id="aF" r="819.2" spreadMethod="pad"><stop offset="0" stop-color="#804000"/><stop offset="1" stop-color="#999"/></radialGradient><radialGradient cx="0" cy="0" gradientTransform="matrix(.002 0 0 .002 -91.25 -19.75)" gradientUnits="userSpaceOnUse" id="aG" r="819.2" spreadMethod="pad"><stop offset="0" stop-color="#804000"/><stop offset="1" stop-color="#999"/></radialGradient><radialGradient cx="0" cy="0" gradientTransform="translate(-91.75 -23.15) scale(.0021)" gradientUnits="userSpaceOnUse" id="aH" r="819.2" spreadMethod="pad"><stop offset="0" stop-color="#804000"/><stop offset="1" stop-color="#999"/></radialGradient><radialGradient cx="0" cy="0" gradientTransform="matrix(.002 0 0 .002 -89.75 -13.25)" gradientUnits="userSpaceOnUse" id="aI" r="819.2" spreadMethod="pad"><stop offset="0" stop-color="#804000"/><stop offset="1" stop-color="#999"/></radialGradient><radialGradient cx="0" cy="0" gradientTransform="matrix(.002 0 0 .002 -85.25 -11.25)" gradientUnits="userSpaceOnUse" id="aJ" r="819.2" spreadMethod="pad"><stop offset="0" stop-color="#804000"/><stop offset="1" stop-color="#999"/></radialGradient><radialGradient cx="0" cy="0" gradientTransform="matrix(.002 0 0 .002 -35 -52.5)" gradientUnits="userSpaceOnUse" id="aK" r="819.2" spreadMethod="pad"><stop offset="0" stop-color="#804000"/><stop offset="1" stop-color="#999"/></radialGradient><radialGradient cx="0" cy="0" gradientTransform="matrix(.002 0 0 .002 -27.7 -48.7)" gradientUnits="userSpaceOnUse" id="aL" r="819.2" spreadMethod="pad"><stop offset="0" stop-color="#804000"/><stop offset="1" stop-color="#999"/></radialGradient><radialGradient cx="0" cy="0" gradientTransform="matrix(.002 0 0 .002 -51.25 -51)" gradientUnits="userSpaceOnUse" id="aM" r="819.2" spreadMethod="pad"><stop offset="0" stop-color="#804000"/><stop offset="1" stop-color="#999"/></radialGradient><radialGradient cx="0" cy="0" gradientTransform="matrix(.002 0 0 .002 -46.5 -50.75)" gradientUnits="userSpaceOnUse" id="aN" r="819.2" spreadMethod="pad"><stop offset="0" stop-color="#804000"/><stop offset="1" stop-color="#999"/></radialGradient><radialGradient cx="0" cy="0" gradientTransform="matrix(.002 0 0 .002 -44.5 -54)" gradientUnits="userSpaceOnUse" id="aO" r="819.2" spreadMethod="pad"><stop offset="0" stop-color="#804000"/><stop offset="1" stop-color="#999"/></radialGradient><radialGradient cx="0" cy="0" gradientTransform="matrix(.002 0 0 .002 -44 -49.25)" gradientUnits="userSpaceOnUse" id="aP" r="819.2" spreadMethod="pad"><stop offset="0" stop-color="#804000"/><stop offset="1" stop-color="#999"/></radialGradient><radialGradient cx="0" cy="0" gradientTransform="matrix(.002 0 0 .002 -48 -43.5)" gradientUnits="userSpaceOnUse" id="aQ" r="819.2" spreadMethod="pad"><stop offset="0" stop-color="#804000"/><stop offset="1" stop-color="#999"/></radialGradient><radialGradient cx="0" cy="0" gradientTransform="matrix(.002 0 0 .002 -53 -48.25)" gradientUnits="userSpaceOnUse" id="aR" r="819.2" spreadMethod="pad"><stop offset="0" stop-color="#804000"/><stop offset="1" stop-color="#999"/></radialGradient><radialGradient cx="0" cy="0" gradientTransform="matrix(.002 0 0 .002 -57.5 -39.75)" gradientUnits="userSpaceOnUse" id="aS" r="819.2" spreadMethod="pad"><stop offset="0" stop-color="#804000"/><stop offset="1" stop-color="#999"/></radialGradient><radialGradient cx="0" cy="0" gradientTransform="matrix(.002 0 0 .002 -54.5 -34)" gradientUnits="userSpaceOnUse" id="aT" r="819.2" spreadMethod="pad"><stop offset="0" stop-color="#804000"/><stop offset="1" stop-color="#999"/></radialGradient><radialGradient cx="0" cy="0" gradientTransform="matrix(.002 0 0 .002 -58 -30.25)" gradientUnits="userSpaceOnUse" id="aU" r="819.2" spreadMethod="pad"><stop offset="0" stop-color="#804000"/><stop offset="1" stop-color="#999"/></radialGradient><radialGradient cx="0" cy="0" gradientTransform="matrix(.002 0 0 .002 -60.5 -36.5)" gradientUnits="userSpaceOnUse" id="aV" r="819.2" spreadMethod="pad"><stop offset="0" stop-color="#804000"/><stop offset="1" stop-color="#999"/></radialGradient><radialGradient cx="0" cy="0" gradientTransform="matrix(.002 0 0 .002 -50.75 -28)" gradientUnits="userSpaceOnUse" id="aW" r="819.2" spreadMethod="pad"><stop offset="0" stop-color="#804000"/><stop offset="1" stop-color="#999"/></radialGradient><radialGradient cx="0" cy="0" gradientTransform="matrix(.002 0 0 .002 -45.5 -31.25)" gradientUnits="userSpaceOnUse" id="aX" r="819.2" spreadMethod="pad"><stop offset="0" stop-color="#804000"/><stop offset="1" stop-color="#999"/></radialGradient><radialGradient cx="0" cy="0" gradientTransform="matrix(.002 0 0 .002 -63.25 -45.75)" gradientUnits="userSpaceOnUse" id="aY" r="819.2" spreadMethod="pad"><stop offset="0" stop-color="#804000"/><stop offset="1" stop-color="#999"/></radialGradient><radialGradient cx="0" cy="0" gradientTransform="matrix(.002 0 0 .002 -66.5 -38.5)" gradientUnits="userSpaceOnUse" id="aZ" r="819.2" spreadMethod="pad"><stop offset="0" stop-color="#804000"/><stop offset="1" stop-color="#999"/></radialGradient><radialGradient cx="0" cy="0" gradientTransform="matrix(.002 0 0 .002 -76.75 -42.25)" gradientUnits="userSpaceOnUse" id="ba" r="819.2" spreadMethod="pad"><stop offset="0" stop-color="#804000"/><stop offset="1" stop-color="#999"/></radialGradient><radialGradient cx="0" cy="0" gradientTransform="matrix(.002 0 0 .002 -70.5 -28.25)" gradientUnits="userSpaceOnUse" id="bb" r="819.2" spreadMethod="pad"><stop offset="0" stop-color="#804000"/><stop offset="1" stop-color="#999"/></radialGradient><radialGradient cx="0" cy="0" gradientTransform="matrix(.002 0 0 .002 -65.5 -29.75)" gradientUnits="userSpaceOnUse" id="bc" r="819.2" spreadMethod="pad"><stop offset="0" stop-color="#804000"/><stop offset="1" stop-color="#999"/></radialGradient><radialGradient cx="0" cy="0" gradientTransform="matrix(.002 0 0 .002 -71.5 -14.75)" gradientUnits="userSpaceOnUse" id="bd" r="819.2" spreadMethod="pad"><stop offset="0" stop-color="#804000"/><stop offset="1" stop-color="#999"/></radialGradient><radialGradient cx="0" cy="0" gradientTransform="matrix(.002 0 0 .002 -72.25 -14)" gradientUnits="userSpaceOnUse" id="be" r="819.2" spreadMethod="pad"><stop offset="0" stop-color="#804000"/><stop offset="1" stop-color="#999"/></radialGradient><radialGradient cx="0" cy="0" gradientTransform="matrix(.002 0 0 .002 -72.75 -13.5)" gradientUnits="userSpaceOnUse" id="bf" r="819.2" spreadMethod="pad"><stop offset="0" stop-color="#804000"/><stop offset="1" stop-color="#999"/></radialGradient><radialGradient cx="0" cy="0" gradientTransform="matrix(.002 0 0 .002 -72.75 -10.5)" gradientUnits="userSpaceOnUse" id="bg" r="819.2" spreadMethod="pad"><stop offset="0" stop-color="#804000"/><stop offset="1" stop-color="#999"/></radialGradient><radialGradient cx="0" cy="0" gradientTransform="matrix(.002 0 0 .002 -76.25 -5.25)" gradientUnits="userSpaceOnUse" id="bh" r="819.2" spreadMethod="pad"><stop offset="0" stop-color="#804000"/><stop offset="1" stop-color="#999"/></radialGradient><radialGradient cx="0" cy="0" gradientTransform="matrix(.002 0 0 .002 -60.75 -6.5)" gradientUnits="userSpaceOnUse" id="bi" r="819.2" spreadMethod="pad"><stop offset="0" stop-color="#804000"/><stop offset="1" stop-color="#999"/></radialGradient><radialGradient cx="0" cy="0" gradientTransform="matrix(.002 0 0 .002 -65.25 -11)" gradientUnits="userSpaceOnUse" id="bj" r="819.2" spreadMethod="pad"><stop offset="0" stop-color="#804000"/><stop offset="1" stop-color="#999"/></radialGradient><radialGradient cx="0" cy="0" gradientTransform="translate(-42.15 -18) scale(.0021)" gradientUnits="userSpaceOnUse" id="bk" r="819.2" spreadMethod="pad"><stop offset="0" stop-color="#804000"/><stop offset="1" stop-color="#999"/></radialGradient><radialGradient cx="0" cy="0" gradientTransform="matrix(.002 0 0 .002 -52.5 -11)" gradientUnits="userSpaceOnUse" id="bl" r="819.2" spreadMethod="pad"><stop offset="0" stop-color="#804000"/><stop offset="1" stop-color="#999"/></radialGradient><radialGradient cx="0" cy="0" gradientTransform="matrix(.002 0 0 .002 -46.5 -7.25)" gradientUnits="userSpaceOnUse" id="bm" r="819.2" spreadMethod="pad"><stop offset="0" stop-color="#804000"/><stop offset="1" stop-color="#999"/></radialGradient><radialGradient cx="0" cy="0" gradientTransform="matrix(.002 0 0 .002 -7.5 -37)" gradientUnits="userSpaceOnUse" id="bn" r="819.2" spreadMethod="pad"><stop offset="0" stop-color="#804000"/><stop offset="1" stop-color="#999"/></radialGradient><radialGradient cx="0" cy="0" gradientTransform="matrix(.002 0 0 .002 -2.25 -32.75)" gradientUnits="userSpaceOnUse" id="bo" r="819.2" spreadMethod="pad"><stop offset="0" stop-color="#804000"/><stop offset="1" stop-color="#999"/></radialGradient><radialGradient cx="0" cy="0" gradientTransform="matrix(.002 0 0 .002 -9.25 -33.25)" gradientUnits="userSpaceOnUse" id="bp" r="819.2" spreadMethod="pad"><stop offset="0" stop-color="#804000"/><stop offset="1" stop-color="#999"/></radialGradient><radialGradient cx="0" cy="0" gradientTransform="matrix(.002 0 0 .002 -9.25 -31)" gradientUnits="userSpaceOnUse" id="bq" r="819.2" spreadMethod="pad"><stop offset="0" stop-color="#804000"/><stop offset="1" stop-color="#999"/></radialGradient><radialGradient cx="0" cy="0" gradientTransform="matrix(.002 0 0 .002 -22.75 -39)" gradientUnits="userSpaceOnUse" id="br" r="819.2" spreadMethod="pad"><stop offset="0" stop-color="#804000"/><stop offset="1" stop-color="#999"/></radialGradient><radialGradient cx="0" cy="0" gradientTransform="matrix(.002 0 0 .002 -39.75 -47.25)" gradientUnits="userSpaceOnUse" id="bs" r="819.2" spreadMethod="pad"><stop offset="0" stop-color="#804000"/><stop offset="1" stop-color="#999"/></radialGradient><radialGradient cx="0" cy="0" gradientTransform="matrix(.002 0 0 .002 -38 -37)" gradientUnits="userSpaceOnUse" id="bt" r="819.2" spreadMethod="pad"><stop offset="0" stop-color="#804000"/><stop offset="1" stop-color="#999"/></radialGradient><radialGradient cx="0" cy="0" gradientTransform="matrix(.002 0 0 .002 -40 -37.5)" gradientUnits="userSpaceOnUse" id="bu" r="819.2" spreadMethod="pad"><stop offset="0" stop-color="#804000"/><stop offset="1" stop-color="#999"/></radialGradient><radialGradient cx="0" cy="0" gradientTransform="matrix(.002 0 0 .002 -35.25 -40)" gradientUnits="userSpaceOnUse" id="bv" r="819.2" spreadMethod="pad"><stop offset="0" stop-color="#804000"/><stop offset="1" stop-color="#999"/></radialGradient><radialGradient cx="0" cy="0" gradientTransform="matrix(.002 0 0 .002 -38.5 -34.25)" gradientUnits="userSpaceOnUse" id="bw" r="819.2" spreadMethod="pad"><stop offset="0" stop-color="#804000"/><stop offset="1" stop-color="#999"/></radialGradient><radialGradient cx="0" cy="0" gradientTransform="matrix(.002 0 0 .002 -33 -24.75)" gradientUnits="userSpaceOnUse" id="bx" r="819.2" spreadMethod="pad"><stop offset="0" stop-color="#804000"/><stop offset="1" stop-color="#999"/></radialGradient><radialGradient cx="0" cy="0" gradientTransform="translate(-30.9 -27.75) scale(.0021)" gradientUnits="userSpaceOnUse" id="by" r="819.2" spreadMethod="pad"><stop offset="0" stop-color="#804000"/><stop offset="1" stop-color="#999"/></radialGradient><radialGradient cx="0" cy="0" gradientTransform="translate(-26.9 -28.5) scale(.0023)" gradientUnits="userSpaceOnUse" id="bz" r="819.2" spreadMethod="pad"><stop offset="0" stop-color="#804000"/><stop offset="1" stop-color="#999"/></radialGradient><radialGradient cx="0" cy="0" gradientTransform="translate(-23.6 -23.95) scale(.0021)" gradientUnits="userSpaceOnUse" id="bA" r="819.2" spreadMethod="pad"><stop offset="0" stop-color="#804000"/><stop offset="1" stop-color="#999"/></radialGradient><radialGradient cx="0" cy="0" gradientTransform="translate(-19.6 -24.7) scale(.0023)" gradientUnits="userSpaceOnUse" id="bB" r="819.2" spreadMethod="pad"><stop offset="0" stop-color="#804000"/><stop offset="1" stop-color="#999"/></radialGradient><radialGradient cx="0" cy="0" gradientTransform="matrix(.002 0 0 .002 -25.7 -20.95)" gradientUnits="userSpaceOnUse" id="bC" r="819.2" spreadMethod="pad"><stop offset="0" stop-color="#804000"/><stop offset="1" stop-color="#999"/></radialGradient><radialGradient cx="0" cy="0" gradientTransform="matrix(.002 0 0 .002 -26 -23.5)" gradientUnits="userSpaceOnUse" id="bD" r="819.2" spreadMethod="pad"><stop offset="0" stop-color="#804000"/><stop offset="1" stop-color="#999"/></radialGradient><radialGradient cx="0" cy="0" gradientTransform="matrix(.002 0 0 .002 -38.25 -16.25)" gradientUnits="userSpaceOnUse" id="bE" r="819.2" spreadMethod="pad"><stop offset="0" stop-color="#804000"/><stop offset="1" stop-color="#999"/></radialGradient><radialGradient cx="0" cy="0" gradientTransform="matrix(.002 0 0 .002 -37.5 -6.5)" gradientUnits="userSpaceOnUse" id="bF" r="819.2" spreadMethod="pad"><stop offset="0" stop-color="#804000"/><stop offset="1" stop-color="#999"/></radialGradient><radialGradient cx="0" cy="0" gradientTransform="translate(-20.5 -8.15) scale(.0021)" gradientUnits="userSpaceOnUse" id="bG" r="819.2" spreadMethod="pad"><stop offset="0" stop-color="#804000"/><stop offset="1" stop-color="#999"/></radialGradient><radialGradient cx="0" cy="0" gradientTransform="matrix(.002 0 0 .002 -28.5 -8.75)" gradientUnits="userSpaceOnUse" id="bH" r="819.2" spreadMethod="pad"><stop offset="0" stop-color="#804000"/><stop offset="1" stop-color="#999"/></radialGradient><radialGradient cx="0" cy="0" gradientTransform="translate(-5.5 -23.15) scale(.0021)" gradientUnits="userSpaceOnUse" id="bI" r="819.2" spreadMethod="pad"><stop offset="0" stop-color="#804000"/><stop offset="1" stop-color="#999"/></radialGradient><radialGradient cx="0" cy="0" gradientTransform="matrix(.002 0 0 .002 -10.7 -18.7)" gradientUnits="userSpaceOnUse" id="bJ" r="819.2" spreadMethod="pad"><stop offset="0" stop-color="#804000"/><stop offset="1" stop-color="#999"/></radialGradient><radialGradient cx="0" cy="0" gradientTransform="matrix(.002 0 0 .002 -7.75 -15.75)" gradientUnits="userSpaceOnUse" id="bK" r="819.2" spreadMethod="pad"><stop offset="0" stop-color="#804000"/><stop offset="1" stop-color="#999"/></radialGradient><radialGradient cx="0" cy="0" gradientTransform="matrix(.002 0 0 .002 -1.5 -16.5)" gradientUnits="userSpaceOnUse" id="bL" r="819.2" spreadMethod="pad"><stop offset="0" stop-color="#804000"/><stop offset="1" stop-color="#999"/></radialGradient><radialGradient cx="0" cy="0" gradientTransform="matrix(.002 0 0 .002 -18 -22.5)" gradientUnits="userSpaceOnUse" id="bM" r="819.2" spreadMethod="pad"><stop offset="0" stop-color="#804000"/><stop offset="1" stop-color="#999"/></radialGradient><radialGradient cx="0" cy="0" gradientTransform="matrix(.002 0 0 .002 -18.7 -19.7)" gradientUnits="userSpaceOnUse" id="bN" r="819.2" spreadMethod="pad"><stop offset="0" stop-color="#804000"/><stop offset="1" stop-color="#999"/></radialGradient><radialGradient cx="0" cy="0" gradientTransform="matrix(.002 0 0 .002 -19 -16.75)" gradientUnits="userSpaceOnUse" id="bO" r="819.2" spreadMethod="pad"><stop offset="0" stop-color="#804000"/><stop offset="1" stop-color="#999"/></radialGradient><radialGradient cx="0" cy="0" gradientTransform="matrix(.002 0 0 .002 -11.7 -12.95)" gradientUnits="userSpaceOnUse" id="bP" r="819.2" spreadMethod="pad"><stop offset="0" stop-color="#804000"/><stop offset="1" stop-color="#999"/></radialGradient><radialGradient cx="0" cy="0" gradientTransform="matrix(.002 0 0 .002 -16.5 -10.75)" gradientUnits="userSpaceOnUse" id="bQ" r="819.2" spreadMethod="pad"><stop offset="0" stop-color="#804000"/><stop offset="1" stop-color="#999"/></radialGradient><radialGradient cx="0" cy="0" gradientTransform="matrix(.002 0 0 .002 -19.5 -.5)" gradientUnits="userSpaceOnUse" id="bR" r="819.2" spreadMethod="pad"><stop offset="0" stop-color="#804000"/><stop offset="1" stop-color="#999"/></radialGradient><radialGradient cx="0" cy="0" gradientTransform="matrix(.002 0 0 .002 -4.75 -2.5)" gradientUnits="userSpaceOnUse" id="bS" r="819.2" spreadMethod="pad"><stop offset="0" stop-color="#804000"/><stop offset="1" stop-color="#999"/></radialGradient><radialGradient cx="0" cy="0" gradientTransform="translate(-2.6 5.35) scale(.0019)" gradientUnits="userSpaceOnUse" id="bT" r="819.2" spreadMethod="pad"><stop offset="0" stop-color="#804000"/><stop offset="1" stop-color="#999"/></radialGradient><radialGradient cx="0" cy="0" gradientTransform="translate(-9.9 1.55) scale(.0019)" gradientUnits="userSpaceOnUse" id="bU" r="819.2" spreadMethod="pad"><stop offset="0" stop-color="#804000"/><stop offset="1" stop-color="#999"/></radialGradient><radialGradient cx="0" cy="0" gradientTransform="translate(-4.9 9.4) scale(.0021)" gradientUnits="userSpaceOnUse" id="bV" r="819.2" spreadMethod="pad"><stop offset="0" stop-color="#804000"/><stop offset="1" stop-color="#999"/></radialGradient><radialGradient cx="0" cy="0" gradientTransform="matrix(.002 0 0 .002 -9.75 12)" gradientUnits="userSpaceOnUse" id="bW" r="819.2" spreadMethod="pad"><stop offset="0" stop-color="#804000"/><stop offset="1" stop-color="#999"/></radialGradient><radialGradient cx="0" cy="0" gradientTransform="matrix(.002 0 0 .002 -1 9.25)" gradientUnits="userSpaceOnUse" id="bX" r="819.2" spreadMethod="pad"><stop offset="0" stop-color="#804000"/><stop offset="1" stop-color="#999"/></radialGradient><radialGradient cx="0" cy="0" gradientTransform="matrix(.002 0 0 .002 -12.2 3.3)" gradientUnits="userSpaceOnUse" id="bY" r="819.2" spreadMethod="pad"><stop offset="0" stop-color="#804000"/><stop offset="1" stop-color="#999"/></radialGradient><radialGradient cx="0" cy="0" gradientTransform="translate(-12.2 5.6) scale(.0021)" gradientUnits="userSpaceOnUse" id="bZ" r="819.2" spreadMethod="pad"><stop offset="0" stop-color="#804000"/><stop offset="1" stop-color="#999"/></radialGradient><radialGradient cx="0" cy="0" gradientTransform="translate(-19 9.7) scale(.0029)" gradientUnits="userSpaceOnUse" id="ca" r="819.2" spreadMethod="pad"><stop offset="0" stop-color="#804000"/><stop offset="1" stop-color="#999"/></radialGradient><radialGradient cx="0" cy="0" gradientTransform="translate(-11.7 13.5) scale(.0029)" gradientUnits="userSpaceOnUse" id="cb" r="819.2" spreadMethod="pad"><stop offset="0" stop-color="#804000"/><stop offset="1" stop-color="#999"/></radialGradient><radialGradient cx="0" cy="0" gradientTransform="matrix(.002 0 0 .002 -20.25 22.75)" gradientUnits="userSpaceOnUse" id="cc" r="819.2" spreadMethod="pad"><stop offset="0" stop-color="#804000"/><stop offset="1" stop-color="#999"/></radialGradient><radialGradient cx="0" cy="0" gradientTransform="matrix(.002 0 0 .002 -2.45 15.8)" gradientUnits="userSpaceOnUse" id="cd" r="819.2" spreadMethod="pad"><stop offset="0" stop-color="#804000"/><stop offset="1" stop-color="#999"/></radialGradient><radialGradient cx="0" cy="0" gradientTransform="matrix(.002 0 0 .002 -28.75 6.75)" gradientUnits="userSpaceOnUse" id="ce" r="819.2" spreadMethod="pad"><stop offset="0" stop-color="#804000"/><stop offset="1" stop-color="#999"/></radialGradient><radialGradient cx="0" cy="0" gradientTransform="matrix(.002 0 0 .002 -21.45 10.55)" gradientUnits="userSpaceOnUse" id="cf" r="819.2" spreadMethod="pad"><stop offset="0" stop-color="#804000"/><stop offset="1" stop-color="#999"/></radialGradient><radialGradient cx="0" cy="0" gradientTransform="matrix(.002 0 0 .002 -35.75 3.25)" gradientUnits="userSpaceOnUse" id="cg" r="819.2" spreadMethod="pad"><stop offset="0" stop-color="#804000"/><stop offset="1" stop-color="#999"/></radialGradient><radialGradient cx="0" cy="0" gradientTransform="translate(-34.05 10.25) scale(.0026)" gradientUnits="userSpaceOnUse" id="ch" r="819.2" spreadMethod="pad"><stop offset="0" stop-color="#804000"/><stop offset="1" stop-color="#999"/></radialGradient><radialGradient cx="0" cy="0" gradientTransform="matrix(.002 0 0 .002 -29.3 15)" gradientUnits="userSpaceOnUse" id="ci" r="819.2" spreadMethod="pad"><stop offset="0" stop-color="#804000"/><stop offset="1" stop-color="#999"/></radialGradient><radialGradient cx="0" cy="0" gradientTransform="matrix(.002 0 0 .002 -31.95 17.55)" gradientUnits="userSpaceOnUse" id="cj" r="819.2" spreadMethod="pad"><stop offset="0" stop-color="#804000"/><stop offset="1" stop-color="#999"/></radialGradient><radialGradient cx="0" cy="0" gradientTransform="translate(-31 16.75) scale(.0019)" gradientUnits="userSpaceOnUse" id="ck" r="819.2" spreadMethod="pad"><stop offset="0" stop-color="#804000"/><stop offset="1" stop-color="#999"/></radialGradient><radialGradient cx="0" cy="0" gradientTransform="matrix(.002 0 0 .002 -39.25 13.75)" gradientUnits="userSpaceOnUse" id="cl" r="819.2" spreadMethod="pad"><stop offset="0" stop-color="#804000"/><stop offset="1" stop-color="#999"/></radialGradient><radialGradient cx="0" cy="0" gradientTransform="matrix(.002 0 0 .002 -22 18.8)" gradientUnits="userSpaceOnUse" id="cm" r="819.2" spreadMethod="pad"><stop offset="0" stop-color="#804000"/><stop offset="1" stop-color="#999"/></radialGradient><radialGradient cx="0" cy="0" gradientTransform="translate(-26.75 14.05) scale(.0026)" gradientUnits="userSpaceOnUse" id="cn" r="819.2" spreadMethod="pad"><stop offset="0" stop-color="#804000"/><stop offset="1" stop-color="#999"/></radialGradient><radialGradient cx="0" cy="0" gradientTransform="translate(-23.7 20.55) scale(.0019)" gradientUnits="userSpaceOnUse" id="co" r="819.2" spreadMethod="pad"><stop offset="0" stop-color="#804000"/><stop offset="1" stop-color="#999"/></radialGradient><radialGradient cx="0" cy="0" gradientTransform="matrix(.002 0 0 .002 -4 30)" gradientUnits="userSpaceOnUse" id="cp" r="819.2" spreadMethod="pad"><stop offset="0" stop-color="#804000"/><stop offset="1" stop-color="#999"/></radialGradient><radialGradient cx="0" cy="0" gradientTransform="matrix(.002 0 0 .002 -1.7 30.05)" gradientUnits="userSpaceOnUse" id="cq" r="819.2" spreadMethod="pad"><stop offset="0" stop-color="#804000"/><stop offset="1" stop-color="#999"/></radialGradient><radialGradient cx="0" cy="0" gradientTransform="matrix(.002 0 0 .002 -9 26.25)" gradientUnits="userSpaceOnUse" id="cr" r="819.2" spreadMethod="pad"><stop offset="0" stop-color="#804000"/><stop offset="1" stop-color="#999"/></radialGradient><radialGradient cx="0" cy="0" gradientTransform="matrix(.002 0 0 .002 -6.95 29.8)" gradientUnits="userSpaceOnUse" id="cs" r="819.2" spreadMethod="pad"><stop offset="0" stop-color="#804000"/><stop offset="1" stop-color="#999"/></radialGradient><radialGradient cx="0" cy="0" gradientTransform="matrix(.002 0 0 .002 -12.95 26.55)" gradientUnits="userSpaceOnUse" id="ct" r="819.2" spreadMethod="pad"><stop offset="0" stop-color="#804000"/><stop offset="1" stop-color="#999"/></radialGradient><radialGradient cx="0" cy="0" gradientTransform="matrix(.002 0 0 .002 -14.25 26)" gradientUnits="userSpaceOnUse" id="cu" r="819.2" spreadMethod="pad"><stop offset="0" stop-color="#804000"/><stop offset="1" stop-color="#999"/></radialGradient><radialGradient cx="0" cy="0" gradientTransform="matrix(.002 0 0 .002 -59 3.25)" gradientUnits="userSpaceOnUse" id="cv" r="819.2" spreadMethod="pad"><stop offset="0" stop-color="#804000"/><stop offset="1" stop-color="#999"/></radialGradient><radialGradient cx="0" cy="0" gradientTransform="matrix(.002 0 0 .002 -52 9.25)" gradientUnits="userSpaceOnUse" id="cw" r="819.2" spreadMethod="pad"><stop offset="0" stop-color="#804000"/><stop offset="1" stop-color="#999"/></radialGradient><radialGradient cx="0" cy="0" gradientTransform="matrix(.1935 0 0 .1184 -46.5 -6.3)" gradientUnits="userSpaceOnUse" id="cy" r="819.2" spreadMethod="pad"><stop offset="0" stop-color="#804000"/><stop offset="1" stop-color="#999"/></radialGradient><linearGradient gradientTransform="matrix(.1605 0 0 .0697 174 80.95)" gradientUnits="userSpaceOnUse" id="c" spreadMethod="pad" x1="-819.2" x2="819.2"><stop offset="0" stop-color="#804000"/><stop offset="1" stop-color="#999"/></linearGradient><linearGradient gradientTransform="matrix(.0735 0 0 .0161 95.75 49.75)" gradientUnits="userSpaceOnUse" id="u" spreadMethod="pad" x1="-819.2" x2="819.2"><stop offset="0" stop-color="#804000"/><stop offset="1" stop-color="#999"/></linearGradient><linearGradient gradientTransform="matrix(.1427 0 0 .0697 91.6 34.9)" gradientUnits="userSpaceOnUse" id="O" spreadMethod="pad" x1="-819.2" x2="819.2"><stop offset="0" stop-color="#804000"/><stop offset="1" stop-color="#999"/></linearGradient><linearGradient gradientTransform="matrix(.0747 0 0 .0125 21 -33.35)" gradientUnits="userSpaceOnUse" id="cx" spreadMethod="pad" x1="-819.2" x2="819.2"><stop offset="0" stop-color="#804000"/><stop offset="1" stop-color="#999"/></linearGradient><use height="114.7" width="219.85" xlink:href="#b" id="a"/><g id="b"><path d="M30.7-27.05 34.9-25v.05l6.75 3.4v.05l.55.3v.05L82.15-1.2 76.6 1.6l-34-17 .05-.05h-.05l-.9-.45-.05-.05-.9-.45-9.15-4.55-63.9-31.95v-.15l-12.4-6.2-.4.2-31.65 15.85-.3.1-.45.3-40.9 20.5-6.4-2.7v-.05q34.55-17.3 69.1-34.65l10.6-5.3 12.85 6.45 62.95 31.5 10.95 5.55-10.95-5.55m-75.8-32V-65v5.95" fill="#885c31" fill-rule="evenodd" transform="translate(137.2 65.5)"/><path d="M34.9-25h.05l-.05.05V-25m7.3 3.8h.05l-.05.05v-.05" fill="#804000" fill-rule="evenodd" transform="translate(137.2 65.5)"/><path d="M10.25-29.85Q10-30.85 8-32.5l-.95.35q-1.8.8-1.6 2.35l-.4-.1-.3.1-.5.35-.1.2q-.25 1.05.9 1.25l.4-.2.5-.4q.25.2.55.25l2.9-.3q.1.5.9.65l.4-.2q.5-.25.55-.8l-.1-.2q-.15-.65-.85-.7l-.05.05M.2-32.45q.5-.25.55-.8l-.1-.2q-.15-.65-.85-.7l-.3.1q-.45.15-.6.55-.25 1.05.9 1.25l.4-.2M3-33.7l-.3.1-.6.55Q1.85-32 3-31.8l.4-.2q.5-.25.55-.8l-.1-.2q-.15-.65-.85-.7m.95 4.15-.1-.2v-.05q-.15-.6-.85-.65l-.25.1H2.7l-.6.55q-.25 1.05.9 1.25l.4-.2q.5-.25.55-.8m6.1 3H10q-.45.15-.6.55-.25 1.05.9 1.25l.4-.2q.5-.25.55-.8l-.1-.2V-26q-.15-.6-.85-.65l-.25.1m1.95-1.9-.3.1q-.45.15-.6.55-.25 1.05.9 1.25l.4-.2q.5-.25.55-.8l-.1-.2q-.15-.65-.85-.7m2.95 2.1q-.45.15-.6.55-.25 1.05.9 1.25l.4-.2q.55-.25.55-.8l-.1-.2q-.15-.65-.85-.7l-.3.1m4.35 1.7-.3.1-.6.55q-.25 1.05.9 1.25l.4-.2.5-.45.55.1.6-.4q.35-.25.35-.7l-.1-.15q-.45-.75-1.35-.9-.35.05-.7.3l-.25.5m.45 3.7-.4.2q-.65.3-.55 1 .55 1 1.65.55l.3-.3q.3-.35.1-.75l-.05-.2q-.35-.55-1.05-.5M10.3-19.4v.05q-.55 0-.9.45l-.1.55v.1l.1.5q.55.65 1.35.35l.3-.4.2-.45v-.25l-.1-.2q-.15-.65-.85-.7m2.15 6.6-.1-.2-.05-.1-.8-.6-.3.1-.15.1-.45.45q-.1.5.1.8.2.35.8.45l.4-.2.1-.05q.4-.25.45-.75m-8.5-9.5-.1-.2q-.15-.65-.85-.7v.05q-.55 0-.9.45l-.1.55.1.6q.55.65 1.35.35l.3-.4.2-.7M.9-19.9l-.1.55.1.6q.55.65 1.35.35l.3-.4.2-.7-.1-.2q-.15-.65-.85-.7v.05q-.55 0-.9.45m5.75 6.95q-.15-.65-.85-.7l-.3.1-.6.55q-.25 1.05.9 1.25l.4-.2q.5-.25.55-.8l-.1-.2M4.6-7.7h-.05L-7.4-9.9q-.85 2.5-5.05 2.7-2.8.15-7.15-.75l.05-.35-.1-.2q-.15-.65-.85-.7v.05q-.55 0-.9.45l-.05.35q-8.7-2-22.7-7.55l-6.4-2.65q-3.75 10.8 6.4 21.15 3.55 3.6 8.9 7.2l-.1.15-.1.55q.9 1.15 2.2.65l3.2 2.95-.35.25-.1.75q-.05.5.3.75.7.55 1.5.25l.2-.1.25-.2.05-.15 5.2 3.9.1.1.4.25q4.75 3.2 10.05 5.85l8.05 3.45-.5.5q-.25 1.05.9 1.25l.4-.2q.5-.25.55-.8l-.1-.2v-.1l.55.2q-.2.95.9 1.15l.4-.2.45-.35q5.4 1.8 11.3 3.05l.15.05-.25.25-.1.55.05.45-3.45 1.75-4.4 2.2-34.7-17.45-7.55-3.8-.2-.1-4.85-2.4h-.05L-83.85-4.5h-.65v-.3L-124.8-25l6.4 2.7 40.9-20.5-.15.25q-.25 1.05.9 1.25l.4-.2q.55-.25.55-.8l-.05-.2q-.2-.65-.9-.7l31.65-15.85.4-.2 12.4 6.2v.15l63.9 31.95-2.9 1.05.3-.7-.1-.15q-.45-.75-1.35-.9l-.7.3q-.3.25-.25.6l.05.15q.25.85 1.05 1.05l-2 .75-1.5.55-5.2 2.1q1.2 2.25 1.45 4.9.2 2.9-.7 6.25l-.5-.1-.1-.35-.05-.2q-.35-.55-1.05-.5l-.4.2-.5.5-1.45-.25-8.3-1.5.1-.25-.1-.2q-.85-1.65-2.85-2v.05l-.3.05-.25.1-.2.2-.15.35-.05.4 1 .8m7.5 41.6h.05-.05M-.95-12.7q-.75-.55-1.8-.75v.05l-.3.05-.25.1-.2.2-.15.35-.05.4 1.35 1.05 1.6.95.3-.1q.4-.15.5-.5l.15-.35-.05-.05.35-.7-.1-.2q-.15-.65-.85-.7l-.3.1-.2.1M19.6-9.3q-.2-.55-.8-.6l-.3.1-.15.1-.45.45q-.1.5.1.8l.8.45.4-.2.1-.05q.4-.25.45-.75l-.1-.2-.05-.1m-7.8-.15q-.35-.55-1.05-.5l-.4.2q-.65.3-.55 1 .55 1 1.65.55l.3-.3q.3-.35.1-.75l-.05-.2m11.7-12.3-.1-.2q-.15-.65-.85-.7l-.3.1-.6.55q-.25 1.05.9 1.25l.4-.2q.55-.25.55-.8m18.15 5.8v.1l-.9-.55.9.45M2.75 34.6l.55.15.4-.2.55-.8-.1-.2v-.1q-.2-.55-.85-.6l-.3.1q-.2-.15-.5-.15l-.3.1q-.45.1-.6.55-.25 1.05.9 1.25l.25-.1M-93.3-26.7l.3-.3q.3-.35.1-.75l-.05-.2q-.35-.55-1.05-.5l-.4.2q-.65.3-.55 1 .55 1 1.65.55m7.65-5.8-.05-.2q-.35-.55-1.05-.5l-.4.2q-.65.3-.55 1 .55 1 1.65.55l.3-.3q.3-.35.1-.75m3.5-2.2-.05.55.05.6q.55.65 1.35.35l.3-.4.2-.7-.05-.2q-.2-.65-.9-.7v.05q-.55 0-.9.45m.75 9-.1.55.1.6q.55.65 1.35.35l.3-.4.2-.7-.05-.2q-.2-.65-.9-.7v.05q-.55 0-.9.45m-20.1 6.75-.3.1-.6.55q-.25 1.05.9 1.25l.4-.2q.55-.25.55-.8l-.05-.2q-.2-.65-.9-.7m-4.55-4.85-.05-.2q-.2-.65-.9-.7l-.3.1-.6.55q-.25 1.05.9 1.25l.4-.2q.55-.25.55-.8m-3.55 2.05q-.2-.65-.9-.7l-.3.1-.6.55q-.25 1.05.9 1.25l.4-.2q.55-.25.55-.8l-.05-.2m25.05-.55-.1-.2q-.15-.65-.85-.7l-.3.1-.6.55q-.25 1.05.9 1.25l.4-.2q.55-.25.55-.8m-6.45-.3.2-.7-.05-.2q-.2-.65-.9-.7v.05q-.55 0-.9.45l-.05.55.05.6q.55.65 1.35.35l.3-.4m.7 2.8-.05-.2q-.2-.65-.9-.7l-.3.1-.6.55q-.25 1.05.9 1.25l.4-.2q.55-.25.55-.8m.95 7.3q.5-.25.55-.8l-.05-.2q-.2-.65-.9-.7l-.3.1-.6.55q-.25 1.05.9 1.25l.4-.2m-8.65-6-.95.35q-2.35 1.05-1.3 3.4l.75.4q6.7.1 1.5-4.15m12.75 8.2.4-.2q.55-.25.55-.8l-.05-.2q-.2-.65-.9-.7l-.3.1q-.45.1-.6.55-.25 1.05.9 1.25m49.95-43.05-.6.55q-.25 1.05.9 1.25l.4-.2q.55-.25.55-.8l-.05-.2q-.2-.65-.9-.7l-.3.1m7.6 3.7-.3.1q-.45.15-.6.55-.25 1.05.9 1.25l.4-.2q.55-.25.55-.8l-.05-.2q-.2-.65-.9-.7m-24.45-1.65q-.25 1.05.9 1.25l.4-.2q.55-.25.55-.8l-.05-.2q-.2-.65-.9-.7l-.3.1-.6.55m4.75.25q-.25 1.05.9 1.25l.4-.2q.55-.25.55-.8l-.1-.2q-.15-.65-.85-.7l-.3.1-.6.55m2.6-3.8q-.35.1-.5.4l-.1.15q-.25 1.05.9 1.25l.4-.2.45-.4.1-.4-.05-.2q-.2-.65-.9-.7l-.3.1m.5 4.75-.6.55q-.25 1.05.9 1.25l.4-.2q.55-.25.55-.8l-.05-.2q-.2-.65-.9-.7l-.3.1m5.4 2.55q2.8-.75-1.1-3.95l-.95.35q-2.35 1.05-1.3 3.4l.75.4h.85q-.15.85.9 1.05l.4-.2q.55-.25.55-.8l-.1-.2v-.05m-9.4 3.2-.6.55q-.25 1.05.9 1.25l.4-.2q.55-.25.55-.8l-.1-.2q-.15-.65-.85-.7l-.3.1m-3.8-4.15q-.2-.65-.9-.7l-.3.1q-.45.15-.6.55-.25 1.05.9 1.25l.4-.2q.55-.25.55-.8l-.05-.2m-6.3 8.45q-.25 1.05.9 1.25l.4-.2q.55-.25.55-.8l-.05-.2q-.2-.65-.9-.7l-.3.1-.6.55m4.85 6-.05-.2q-.2-.65-.9-.7l-.3.1-.6.55q-.25 1.05.9 1.25l.4-.2q.55-.25.55-.8m-6.95-1.5.4-.2q.55-.25.55-.8l-.05-.2q-.2-.65-.9-.7l-.3.1-.6.55q-.25 1.05.9 1.25m2.5 4.35-.3.1-.6.55-.05.25.2.65q.25.25.75.35l.4-.2.4-.25q.15-.25.15-.55l-.05-.2q-.2-.65-.9-.7m-1.3 2.3-.7-.6-.95.35q-2.35 1.05-1.3 3.4l.3.25.15.05.3.1q6.25.1 2.2-3.55m8.55-.05-.3.1-.6.55-.05.4q.05.7.95.85l.4-.2q.45-.2.55-.6v-.2l-.1-.2q-.15-.65-.85-.7m6.2-2.35-.1-.2q-.15-.65-.85-.7l-.3.1-.6.55q-.25 1.05.9 1.25l.4-.2q.55-.25.55-.8M-62.85-45q.55-.25.55-.8l-.05-.2q-.2-.65-.9-.7l-.3.1-.6.55q-.25 1.05.9 1.25l.4-.2m-3.95 5.65-.6.55q-.25 1.05.9 1.25l.4-.2q.55-.25.55-.8l-.05-.2q-.2-.65-.9-.7l-.3.1m-4.5 10.6-.1.2q-.25.95.7 1.2l.2.05.25-.1.15-.1q.55-.25.55-.8l-.05-.2q-.2-.65-.9-.7l-.3.1-.5.35m6.75-1.05-.05-.2q-.2-.65-.9-.7l-.3.1q-.45.1-.6.55-.25 1.05.9 1.25l.4-.2q.55-.25.55-.8m-6.75 15.9.2-.1q.55-.25.55-.8l-.05-.2q-.2-.65-.9-.7l-.3.1-.6.55v.15l-.15.05q-.45.15-.6.55l-.5.5q-.25 1.05.9 1.25l.4-.2q.4-.2.5-.5.45-.2.55-.65m-.5 3.35-.05-.2q-.2-.65-.9-.7l-.3.1q-.45.1-.6.55-.25 1.05.9 1.25l.4-.2q.55-.25.55-.8m-4.75 4.45-.6.55q-.25 1.05.9 1.25l.4-.2q.55-.25.55-.8l-.05-.2q-.2-.65-.9-.7l-.3.1m12.25-4.95-.05-.2q-.2-.65-.9-.7l-.3.1-.6.55q-.25 1.05.9 1.25l.4-.2q.55-.25.55-.8m3.25 3.7-.6.55q-.25 1.05.9 1.25l.4-.2q.55-.25.55-.8l-.05-.2q-.2-.65-.9-.7l-.3.1m18.8-11.6-.4.2-.5.5-.05.5.7.65.95-.1.3-.3q.3-.35.1-.75l-.05-.2q-.35-.55-1.05-.5m-13.2-.75q2-.9-1.55-3.8l-.95.35q-1.8.8-1.6 2.45l.3.95q.35.35.75.4l3.05-.35m2.95 7.75-.3.1-.6.55q-.25 1.05.9 1.25l.4-.2q.55-.25.55-.8l-.1-.2q-.15-.65-.85-.7m44.7-25.9-.6.55q-.25 1.05.9 1.25l.4-.2q.5-.25.55-.8l-.1-.2q-.15-.65-.85-.7l-.3.1m5.25 4.25-.5.35-.1.2q-.25 1.05.9 1.25l.4-.2.5-.4.05-.4-.05-.2q-.2-.65-.9-.7l-.3.1m-6.7-.6-.3.1-.6.55q-.25 1.05.9 1.25l.4-.2q.5-.25.55-.8l-.1-.2q-.15-.65-.85-.7m.95 3.15-.1-.2q-.15-.65-.85-.7l-.3.1-.6.55q-.25 1.05.9 1.25l.4-.2q.5-.25.55-.8m-20.15-6.65-.05.15q-5.15 2.55.05 5.85l.8-.45q3.7-3.3-.8-5.55m6.1-.55q.5-.25.55-.8l-.1-.2q-.15-.65-.85-.7l-.3.1-.6.55q-.25 1.05.9 1.25l.4-.2m-13.2-2.6-.6.55q-.25 1.05.9 1.25l.4-.2q.55-.25.55-.8l-.05-.2q-.2-.65-.9-.7l-.3.1m-4.45 2.4-.3.1-.6.55q-.25 1.05.9 1.25l.4-.2q.55-.25.55-.8l-.1-.2q-.15-.65-.85-.7m2 .5-.3.1-.6.55q-.25 1.05.9 1.25l.4-.2q.55-.25.55-.8l-.1-.2q-.15-.65-.85-.7m.45 3.65-.05-.2q-.2-.65-.9-.7l-.3.1-.6.55q-.25 1.05.9 1.25l.4-.2q.55-.25.55-.8m6.55 5.6-.4.2q-.65.3-.55 1 .55 1 1.65.55l.3-.3q.3-.35.1-.75l-.05-.2q-.35-.55-1.05-.5m-2 3-.3.1-.6.55q-.25 1.05.9 1.25l.4-.2q.5-.25.55-.8l-.1-.2q-.15-.65-.85-.7m7.2-3.3q-.55-.65-1.45-.45-.45.05-.75.5l-.2.5v.2q.75 1.05 1.95.65l.35-.2.15-.15V-28q.2-.25.15-.55l-.05-.2-.05-.15-.1-.1m2.45 4.55q-.5-.95-2.1-2.25l-1 .35q-1.45.65-1.55 1.85-.1.65.3 1.55.35.35.75.35h.75l.2.05.15-.05 2.1-.4.75-.15.3-.3q.3-.35.1-.75l-.05-.2-.05-.05h-.65m2.45 0q.75 1.05 1.95.65l.35-.2.15-.15v-.05l.15-.25h-2.6M-24.75-21l-.1-.2q-.15-.65-.85-.7l-.3.1-.6.55q-.25 1.05.9 1.25l.4-.2q.5-.25.55-.8m-12.75 5.25q.2-.2.2-.55l-.1-.2q-.15-.65-.85-.7l-.3.1-.6.55-.05.45q.05.65.95.8l.4-.2.35-.25m32.75-6.85.2-.7-.1-.2q-.15-.65-.85-.7v.05q-.55 0-.9.45l-.1.55.1.6q.55.65 1.35.35l.3-.4m-5 3.85-.1-.2q-.15-.65-.85-.7l-.3.1-.6.55.05.75q.2.4.85.5l.4-.2.4-.3q.15-.2.15-.5m2 2.05-.3.1-.6.55q-.25 1.05.9 1.25l.4-.2q.5-.25.55-.8l-.1-.2q-.15-.65-.85-.7m5.95-.65-.6.55q-.25 1.05.9 1.25l.4-.2q.5-.25.55-.8l-.1-.2q-.15-.65-.85-.7l-.3.1m-15.8-4.4q.55-.25.55-.8l-.1-.2q-.15-.65-.85-.7l-.3.1-.6.55q-.25 1.05.9 1.25l.4-.2m-.25 1.8q-.15-.65-.85-.7l-.3.1-.6.55q-.25 1.05.9 1.25l.4-.2q.5-.25.55-.8l-.1-.2m-1.1 4.15.25.85q.35.35.75.35 6.35.15 2.05-3.65l-.55-.45-1 .35-.2.1-.9.7-.45-.15-.3.1-.6.55q-.25 1.05.9 1.25h.05m6.35 2.55v.6l1.55.3q.3-.25.3-.65l-.1-.2q-.15-.65-.85-.7l-.3.1-.6.55M-15.65-11l-.3-.5-.55-.2-.15.05-.15.05-.6.55q-.25 1.05.9 1.25l.4-.2q.55-.25.55-.8l-.1-.2m-4.2 34.5q.5-.25.55-.8l-.1-.2q-.15-.65-.85-.7l-.3.1q-.45.1-.6.55-.25 1.05.9 1.25l.4-.2m-12.25-6.85-.15.05-.05.05v1.65l.35.1.4-.2q.35-.15.5-.45l.3.1.5-.25.25-.15.15-.75-.05-.35-.1-.2q-.5-.55-1.25-.7-.25.05-.55.25l-.4.5.05.2.05.15m-6.2-2.95-.1-.2q-.15-.65-.85-.7l-.3.1q-.45.1-.6.55-.25 1.05.9 1.25l.4-.2q.5-.25.55-.8m15.7 6.55-.1-.2q-.5-.55-1.25-.7l-.55.25-.4.5.05.2q.2 1.1 1.4 1.45l.5-.25.25-.15.15-.75-.05-.35m16.6 9.5-.05-.2q-.2-.65-.9-.7l-.3.1q-.45.1-.6.55-.25 1.05.9 1.25l.4-.2q.55-.25.55-.8m-7.85-2.95q.05.55.9.7l.4-.2.1-.05q.4-.25.45-.75l-.1-.2-.35-.55-.5-.15-.3.1-.1.05q-.2-.65-.9-.7l-.3.1q-.45.1-.6.55-.25 1.05.9 1.25l.4-.15M-59.3 2.4q-.45.1-.6.55-.25 1.05.9 1.25l.4-.2q.55-.25.55-.8l-.05-.2q-.2-.65-.9-.7l-.3.1m7.3 7.8.4-.2q.55-.25.55-.8l-.1-.2q-.15-.65-.85-.7l-.3.1-.6.55q-.25 1.05.9 1.25" fill="url(#c)" fill-rule="evenodd" transform="translate(137.2 65.5)"/><path d="M5.45-29.8q-.2-1.55 1.6-2.35L8-32.5q2 1.65 2.25 2.65l-.25.05q-.45.15-.6.55v.6l-2.9.3q-.3-.05-.55-.25L6-29l-.05-.2-.5-.6m19.5 46.25-2.45.15q-.4 0-.75-.35-1.05-2.35 1.3-3.4.4-.25.85-.3h.05l.05-.05q3.7 3 1.4 3.85l-.45.1M18 2.5q5.2 4.25-1.5 4.1-.4 0-.75-.35-1.05-2.35 1.3-3.4.45-.25.95-.35m-116-21q5.2 4.25-1.5 4.15l-.75-.4q-1.05-2.35 1.3-3.4l.95-.35m57.35-28.85h-.85l-.75-.4q-1.05-2.35 1.3-3.4l.95-.35q3.9 3.2 1.1 3.95l-1.75.2M-59.3-28.9q4.05 3.65-2.2 3.55l-.3-.1-.15-.05-.3-.25q-1.05-2.35 1.3-3.4l.95-.35.7.6m3.85 9.2-3.05.35q-.4-.05-.75-.4l-.3-.95q-.2-1.65 1.6-2.45l.95-.35q3.55 2.9 1.55 3.8m27-18q4.5 2.25.8 5.55l-.8.45q-5.2-3.3-.05-5.85l.05-.15m2.25 15.1h-.75q-.4 0-.75-.35-.4-.9-.3-1.55.1-1.2 1.55-1.85l1-.35q1.6 1.3 2.1 2.25t-.4 1.45l-2.1.4h-.35m7.65 5.05.9-.7.2-.1 1-.35.55.45q4.3 3.8-2.05 3.65-.4 0-.75-.35l-.25-.85q-.25-1.05.4-1.75m5.35 31.75.75.8q1.45 1.65 0 2.25l-.75.25.75.7q2.55 2.45 0 3.05l-2.5.15-.75-.35q-1.05-2.35 1.25-3.45h-1.05l-.75-.35q-1.05-2.35 1.3-3.4.45-.25.95-.35l.6.5v.05l.2.15m9.2 3.3q5.2 4.25-1.5 4.1-.4 0-.75-.35-1.05-2.35 1.3-3.4l.95-.35" fill="#666" fill-rule="evenodd" transform="translate(137.2 65.5)"/><path d="m.2-32.45-.4.2q-1.15-.2-.9-1.25.15-.4.6-.55l.3-.1q.7.05.85.7l.1.2q-.05.55-.55.8" fill="url(#d)" fill-rule="evenodd" transform="translate(137.2 65.5)"/><path d="M3-33.7q.7.05.85.7l.1.2q-.05.55-.55.8l-.4.2q-1.15-.2-.9-1.25l.6-.55.3-.1" fill="url(#e)" fill-rule="evenodd" transform="translate(137.2 65.5)"/><path d="M3.95-29.55q-.05.55-.55.8l-.4.2q-1.15-.2-.9-1.25l.6-.55h.05l.25-.1q.7.05.85.65v.05l.1.2" fill="url(#f)" fill-rule="evenodd" transform="translate(137.2 65.5)"/><path d="m5.95-28.6-.5.4-.4.2q-1.15-.2-.9-1.25l.1-.2.5-.35.3-.1.4.1.5.6.05.2-.05.4" fill="url(#g)" fill-rule="evenodd" transform="translate(137.2 65.5)"/><path d="m10.25-29.85.05-.05q.7.05.85.7l.1.2q-.05.55-.55.8l-.4.2q-.8-.15-.9-.65v-.6q.15-.4.6-.55l.25-.05" fill="url(#h)" fill-rule="evenodd" transform="translate(137.2 65.5)"/><path d="m10.05-26.55.25-.1q.7.05.85.65v.05l.1.2q-.05.55-.55.8l-.4.2q-1.15-.2-.9-1.25.15-.4.6-.55h.05" fill="url(#i)" fill-rule="evenodd" transform="translate(137.2 65.5)"/><path d="M12-28.45q.7.05.85.7l.1.2q-.05.55-.55.8l-.4.2q-1.15-.2-.9-1.25.15-.4.6-.55l.3-.1" fill="url(#j)" fill-rule="evenodd" transform="translate(137.2 65.5)"/><path d="m14.95-26.35.3-.1q.7.05.85.7l.1.2q0 .55-.55.8l-.4.2q-1.15-.2-.9-1.25.15-.4.6-.55" fill="url(#k)" fill-rule="evenodd" transform="translate(137.2 65.5)"/><path d="m20.2-23.4-.5.45-.4.2q-1.15-.2-.9-1.25l.6-.55.3-.1q.7.05.85.7l.1.2-.05.35" fill="url(#l)" fill-rule="evenodd" transform="translate(137.2 65.5)"/><path d="m19.3-24.65.25-.5q.35-.25.7-.3.9.15 1.35.9l.1.15q0 .45-.35.7l-.6.4-.55-.1.05-.35-.1-.2q-.15-.65-.85-.7" fill="url(#m)" fill-rule="evenodd" transform="translate(137.2 65.5)"/><path d="M19.75-20.95q.7-.05 1.05.5l.05.2q.2.4-.1.75l-.3.3q-1.1.45-1.65-.55-.1-.7.55-1l.4-.2" fill="url(#n)" fill-rule="evenodd" transform="translate(137.2 65.5)"/><path d="M10.3-19.4q.7.05.85.7l.1.2v.25l-.2.45-.3.4q-.8.3-1.35-.35l-.1-.5v-.1l.1-.55q.35-.45.9-.45v-.05" fill="url(#o)" fill-rule="evenodd" transform="translate(137.2 65.5)"/><path d="M12.45-12.8q-.05.5-.45.75l-.1.05-.4.2q-.6-.1-.8-.45-.2-.3-.1-.8l.45-.45.15-.1.3-.1.8.6.05.1.1.2" fill="url(#p)" fill-rule="evenodd" transform="translate(137.2 65.5)"/><path d="m3.95-22.3-.2.7-.3.4q-.8.3-1.35-.35l-.1-.6.1-.55q.35-.45.9-.45v-.05q.7.05.85.7l.1.2" fill="url(#q)" fill-rule="evenodd" transform="translate(137.2 65.5)"/><path d="M.9-19.9q.35-.45.9-.45v-.05q.7.05.85.7l.1.2-.2.7-.3.4q-.8.3-1.35-.35l-.1-.6.1-.55" fill="url(#r)" fill-rule="evenodd" transform="translate(137.2 65.5)"/><path d="m6.65-12.95.1.2q-.05.55-.55.8l-.4.2q-1.15-.2-.9-1.25l.6-.55.3-.1q.7.05.85.7" fill="url(#s)" fill-rule="evenodd" transform="translate(137.2 65.5)"/><path d="m7.4-7.2-.05.1-.5.5-.3.1L4.6-7.7l-1-.8.05-.4.15-.35.2-.2.25-.1.3-.05v-.05q2 .35 2.85 2l.1.2-.1.25" fill="url(#t)" fill-rule="evenodd" transform="translate(137.2 65.5)"/><path d="m4.6-7.7 1.95 1.2.3-.1.5-.5.05-.1 8.3 1.5q.95 1.8 5.85 2.65 2.4.45 9.4 3.45-.35.1-.6.4l-.1.55.1.6q.55.65 1.35.35l.3-.4.2-.7-.1-.2-.05-.1q4.1 1.75 9.6 4.35v-3.9l.05-.05q.5-.25.55-.8l-.1-.2-.5-.6v-15.55l.05-.05.9.45v.05l34 17-.45.2L61.3 9.25l-.5-.15-.3.1q-.45.1-.6.55l-.05.25-1.95.95-1.1-.6-.45.15q-.5.2-.5.75l.15.5.1.1-5.3 2.7-.75-.2v.05q-.9.05-.95.85l.05.1L30 24.95q-2.4-3.3-4.6-8.6 2.3-.85-1.4-3.85l-.05.05-.1-.35.05.35q-.45.05-.85.3-2.35 1.05-1.3 3.4.35.35.75.35l2.45-.15 2.55 9.75-15.35 7.7h-.05q-.2-.55-.85-.6v.05l-.65.2-.15-.05q-5.9-1.25-11.3-3.05l.1-.45-.05-.2q-.2-.65-.9-.7l-.3.1q-.45.1-.6.55v.1l-.55-.2q-.2-.55-.85-.6l-.3.1-.1.05-8.05-3.45q-5.3-2.65-10.05-5.85.5.2 1.1 0l.2-.1.25-.2.05-.15.1-.6-.05-.35-.1-.2q-.5-.55-1.25-.7l-.55.25v.05l-.35.25-.1.75.2.65-5.2-3.9.1-.6-.05-.35-.1-.2-1.25-.7q-.25.05-.55.25v.05l-3.2-2.95.35-.2.15-.2.15-.55-.05-.2-.05-.15q-.65-.85-1.8-.55-.5.05-.75.5-5.35-3.6-8.9-7.2-10.15-10.35-6.4-21.15l6.4 2.65q14 5.55 22.7 7.55l-.05.2.1.6q.55.65 1.35.35l.3-.4.15-.35q4.35.9 7.15.75 4.2-.2 5.05-2.7L4.55-7.7h.05m43.25 5.3-.15-.15q-.3-.2-.65-.35l-.3.1-.6.45q-.1.3-.05.6v.55l.1.15.4.4q.7.3 1.2-.25l.15-.55-.1-.95m5.65-4.45V-7l-.1-.2q-.15-.65-.85-.7l-.3.1-.25.15q-.25.1-.35.4-.25 1.05.9 1.25l.4-.2.3-.15 2.95 1.5-2.7-2M52.3-.4l-.3.1-.6.55q-.25 1.05.9 1.25l.4-.2q.5-.25.55-.8l-.1-.2Q53-.35 52.3-.4m8-3.1.4-.2q.45-.25.55-.7v-.1l-.1-.2q-.15-.65-.85-.7l-.3.1-.1.05-.5.5q-.25 1.05.9 1.25m-2.6.9-.05-.1q-.15-.65-.85-.7v.05l-.4.1h-.05l-.45.35-.1.55.1.6q.55.65 1.35.35l.3-.4.1-.15 3.65 1.4L63.9.5l3.85 1.55L57.7-2.6m7.9 2.4-.5-.1.6.3q.4.55 1.25.65h.4l.2-.1.25-.2.15-.5V-.2l-.05-.55-.1-.2q-.6-.65-1.5-.7l-.4.15-.15.1-.4.5q.05.4.25.7m-4.55-.2-.4.2q-.4.2-.5.55L60.1.8q.45.85 1.3.65l.35-.1.3-.3.15-.15-.05-.6-.05-.2q-.35-.55-1.05-.5m.7 2-.05.1q-1.05 1.2-.35 2.7l1.3.1.2-.4.15-1.25-.15-1-.15-.15-.65-.35-.15.1-.15.15m-11 6.65-.1-.2q-.15-.65-.85-.7l-.3.1q-.45.1-.6.55-.25 1.05.9 1.25l.4-.2q.5-.25.55-.8M43.6 11.6q-.35-.55-1.05-.5l-.4.2-.5.5q-.1.2-.05.5l.05.1q.55.9 1.6.45l.3-.3q.3-.35.1-.75l-.05-.2m-2.9 5.1-.1-.2q-.15-.65-.85-.7l-.3.1q-.45.1-.6.55-.25 1.05.9 1.25l.4-.2.55-.8M37.55 5.15l.1.6q.55.65 1.35.35l.3-.4.2-.7-.1-.2q-.15-.65-.85-.7v.05q-.55 0-.9.45l-.1.55m-1.85 2.2-.1-.5-.15-.15-.65-.35-.3.15q-1.15.85-.4 2.15l.6.35 1.25.05.3-.3q.3-.35.1-.75l-.05-.2-.6-.45m-7.4-4.3-.15-.15-.65-.35-.3.15q-1.15.85-.4 2.15l1.3.1.2-.4q.25-.75 0-1.5m-5.05 20-.3.1-.6.45-.05.6v.55l.1.15.4.4q.7.3 1.2-.25l.15-.55-.1-.95-.15-.15-.65-.35m-1.7 1.3-.3.1q-.45.1-.6.55-.25 1.05.9 1.25l.4-.2.55-.8-.1-.2q-.15-.65-.85-.7M18 2.5q-.5.1-.95.35-2.35 1.05-1.3 3.4.35.35.75.35 6.7.15 1.5-4.1m-5.9 8.8q.55 1 1.65.55l.3-.3q.3-.35.1-.75l-.05-.2q-.35-.55-1.05-.5l-.4.2q-.65.3-.55 1M3.4 1.05Q3.25.4 2.55.35l-.3.1-.6.55q-.25 1.05.9 1.25l.4-.2q.5-.25.55-.8l-.1-.2m3.35 6.7q.3-.35.1-.75l-.05-.2q-.35-.55-1.05-.5l-.4.2q-.65.3-.55 1 .55 1 1.65.55l.3-.3M6.3 12.1l-.3.1q-.45.1-.6.55-.25 1.05.9 1.25l.4-.2.55-.8-.1-.2q-.15-.65-.85-.7m3.4 1-.3-.15-.4-.15-.3.1q-.5.15-.65.65v.2q.35 1.55 1.7 2.2l.3-.1.45-.3.15-.55.05-.4-.25-.35-.75-1.15m-7.45 5.4q.3-.35.1-.75l-.05-.2q-.35-.55-1.05-.5l-.4.2q-.65.3-.55 1 .55 1 1.65.55l.3-.3m.5 4.7q-.45.1-.6.55-.25 1.05.9 1.25l.4-.2q.5-.25.55-.8l-.1-.2q-.15-.65-.85-.7l-.3.1m5.8-2.35-.4.2q-.65.3-.55 1 .55 1 1.65.55l.3-.3q.3-.35.1-.75l-.05-.2q-.35-.55-1.05-.5M7 23.8l-.3.1q-.4.1-.6.45l-.05.6v1.3l.1.15.4.4q.7.3 1.2-.25L7.9 26l-.1-1.7-.15-.15L7 23.8m9-7.1q-.5.15-.65.65v.2q.35 1.55 1.7 2.2l.3-.1.45-.3.15-.55.05-.4-.25-.35L17 16.9l-.3-.15-.4-.15-.3.1m-2.05 3.95q-.45.1-.6.55-.25 1.05.9 1.25l.4-.2q.5-.25.55-.8l-.1-.2q-.15-.65-.85-.7l-.3.1m.35 6.95-.3.1-.6.45-.05.6v1.3l.1.15.4.4q.7.3 1.2-.25l.15-.55-.1-1.7-.15-.15-.65-.35m18.05 7.65h-.1l-.05-.4.15.4M-47.4-7.55q-.25 1.05.9 1.25l.4-.2q.55-.25.55-.8l-.05-.2q-.2-.65-.9-.7l-.3.1-.6.55m10.75.8q-.15-.65-.85-.7l-.3.1-.6.55q-.25 1.05.9 1.25l.4-.2q.5-.25.55-.8l-.1-.2m7.85-2.85-.6.55q-.25 1.05.9 1.25l.4-.2q.5-.25.55-.8l-.1-.2q-.15-.65-.85-.7l-.3.1m9.3 8.15-.3.1-.6.55q-.25 1.05.9 1.25l.4-.2q.5-.25.55-.8l-.1-.2q-.15-.65-.85-.7m14.75-2-.3.1-.6.55q-.25 1.05.9 1.25l.4-.2q.5-.25.55-.8l-.1-.2q-.15-.6-.8-.7 3.8-.3 4.6-2.65l-4.1-.75Q-4.7-5.3-6.9-3.4l2.15-.05m3.15 8.5-.05-.2q-.25-.45-.8-.5v.05q-.95.1-1.2 1l.05.4.45.55q1.6.25 1.55-1.3m-7.35-4q-.25-.45-.8-.5V.6q-.95.1-1.2 1l.05.4.45.55q1.6.25 1.55-1.3l-.05-.2m-1.2 11.8.4.1.4-.2q.5-.25.55-.8l-.1-.2q-.15-.65-.85-.7l-.3.1q-.45.1-.6.55l.05.75-.35-.1-1.5.5-.65.25-.2.4-.1.5-.6-.5q-.5.1-.95.35-2.35 1.05-1.3 3.4l.75.35h1.05q-2.3 1.1-1.25 3.45l.75.35 2.5-.15q2.55-.6 0-3.05l-.75-.7.75-.25q1.45-.6 0-2.25l-.75-.8.75.4q1.45.5 2.45-1.35l-.1-.2-.05-.2M-5.9 9.1v.55l.05.6q.55.7 1.35.35l.25-.35q.45-.65.4-1.45l-.05-.2q-.25-.45-.8-.5l-.3.1q-.65.25-.9.9m4.6-.7q-.45.1-.6.55-.25 1.05.9 1.25l.4-.2q.5-.25.55-.8l-.1-.2Q-.3 8.35-1 8.3l-.3.1m-10.05-5.35q-.15-.65-.85-.7l-.25.1h-.05l-.6.55q-.2.95.65 1.2l.25.05.4-.2q.5-.25.55-.8l-.1-.2M-13.2 5.3v.55l.05.6.7.45.65-.1.25-.35q.45-.65.4-1.45l-.05-.2q-.25-.45-.8-.5l-.3.1-.15.1q-.55.25-.75.8m-7.35 5.05q2 1.45 3.25-.9l-.1-.2q-.15-.65-.85-.7l-2.15.75-.2.4-.1.35q-.2-.4-.75-.45l-.3.1q-.45.1-.6.55-.25 1.05.9 1.25l.4-.2q.5-.25.55-.8l-.05-.15m17.8 4.6q-.45.1-.6.55-.25 1.05.9 1.25l.4-.2q.5-.25.55-.8l-.1-.2q-.15-.65-.85-.7l-.3.1M-4 17.5l-.95.35q-2.35 1.05-1.3 3.4.35.35.75.35 6.7.15 1.5-4.1M-28.75 5.8l-.3.1q-.45.1-.6.55-.25 1.05.9 1.25l.4-.2q.5-.25.55-.8l-.1-.2q-.15-.65-.85-.7m-6.6-1.8q.5-.25.55-.8l-.1-.2q-.15-.65-.85-.7l-.3.1q-.45.1-.6.55-.25 1.05.9 1.25l.4-.2m9.95 9.65q-.65-.85-1.8-.55-.5.05-.75.5l-.1.15-.1.55q.9 1.15 2.2.65l.35-.2.15-.2.15-.55-.05-.2-.05-.15M-8.05 26.2l-.05-.2q-.2-.65-.9-.7l-.3.1q-.45.1-.6.55-.25 1.05.9 1.25l.4-.2q.55-.25.55-.8" fill="url(#u)" fill-rule="evenodd" transform="translate(137.2 65.5)"/><path d="m.15-11.3-.1.05-.1.05-.4.2q-.4-.05-.65-.25-.4-.3-.25-1l.4-.45.2-.1.3-.1q.7.05.85.7l.1.2-.35.7" fill="url(#v)" fill-rule="evenodd" transform="translate(137.2 65.5)"/><path d="m-.95-12.7-.4.45q-.15.7.25 1 .25.2.65.25l.4-.2.1-.05.1-.05.05.05-.15.35q-.1.35-.5.5l-.3.1-1.6-.95-1.35-1.05.05-.4.15-.35.2-.2.25-.1.3-.05v-.05q1.05.2 1.8.75" fill="url(#w)" fill-rule="evenodd" transform="translate(137.2 65.5)"/><path d="m19.6-9.3.05.1.1.2q-.05.5-.45.75l-.1.05-.4.2-.8-.45q-.2-.3-.1-.8l.45-.45.15-.1.3-.1q.6.05.8.6" fill="url(#x)" fill-rule="evenodd" transform="translate(137.2 65.5)"/><path d="m11.8-9.45.05.2q.2.4-.1.75l-.3.3q-1.1.45-1.65-.55-.1-.7.55-1l.4-.2q.7-.05 1.05.5" fill="url(#y)" fill-rule="evenodd" transform="translate(137.2 65.5)"/><path d="m17.15-5.45.5-.5.4-.2q.7-.05 1.05.5l.05.2.1.35-.2.4-.3.3q-1.1.45-1.65-.55l.05-.5" fill="url(#z)" fill-rule="evenodd" transform="translate(137.2 65.5)"/><path d="m27.5 26.2-2.55-9.75.45-.1q2.2 5.3 4.6 8.6l-2.5 1.25m-3.6-13.65-.05-.35.1.35h-.05m17.75-28.4V-.3l-.35-.1-.3.1q-.45.1-.6.55-.25 1.05.9 1.25l.35-.15V4.1l-.05.1.05.75v.3q-5.5-2.6-9.6-4.35-.15-.55-.8-.6v.05l-.3.05q-7-3-9.4-3.45-4.9-.85-5.85-2.65l1.45.25-.05.5q.55 1 1.65.55l.3-.3.2-.4.5.1q.9-3.35.7-6.25-.25-2.65-1.45-4.9l5.2-2.1 1.5-.55 2-.75.35.05.6-.4h.05l2.9-1.05 9.15 4.55.9.55m-13.6.15q.3-.35.1-.75l-.05-.2q-.35-.55-1.05-.5l-.4.2q-.65.3-.55 1 .55 1 1.65.55l.3-.3m2.3 3.9v.55q.1.55.9.7l.4-.2.5-.5.05-.3-.1-.2q-.15-.65-.85-.7l-.3.1-.6.55m-4.7 6.05q.5-.25.55-.8l-.1-.2q-.15-.65-.85-.7l-.3.1-.6.55q-.25 1.05.9 1.25l.4-.2m12.9-2.9-.3.1-.6.55q-.25 1.05.9 1.25l.4-.2q.5-.25.55-.8l-.1-.2q-.15-.65-.85-.7m1.2 1.95-.3.1-.6.45q-.1.3-.05.6V-5l.1.15.4.4q.7.3 1.2-.25l.15-.55-.1-.95-.15-.15-.65-.35m-6.3 4.2.55.2.4-.2q.5-.25.55-.8l-.1-.2q-.15-.65-.85-.7l-.3.1q-.45.1-.6.55v.1l-.55-.2-.3.1-.6.55q-.25 1.05.9 1.25l.4-.2.5-.55" fill="url(#A)" fill-rule="evenodd" transform="translate(137.2 65.5)"/><path d="M27.7-19.55q-.8-.2-1.05-1.05l-.05-.15q-.05-.35.25-.6l.7-.3q.9.15 1.35.9l.1.15-.3.7h-.05l-.6.4-.35-.05" fill="url(#B)" fill-rule="evenodd" transform="translate(137.2 65.5)"/><path d="M23.5-21.75q0 .55-.55.8l-.4.2q-1.15-.2-.9-1.25l.6-.55.3-.1q.7.05.85.7l.1.2" fill="url(#C)" fill-rule="evenodd" transform="translate(137.2 65.5)"/><path d="m28.05-15.7-.3.3q-1.1.45-1.65-.55-.1-.7.55-1l.4-.2q.7-.05 1.05.5l.05.2q.2.4-.1.75" fill="url(#D)" fill-rule="evenodd" transform="translate(137.2 65.5)"/><path d="m25.65-5.75-.4.2q-1.15-.2-.9-1.25l.6-.55.3-.1q.7.05.85.7l.1.2q-.05.55-.55.8" fill="url(#E)" fill-rule="evenodd" transform="translate(137.2 65.5)"/><path d="m30.35-11.8.6-.55.3-.1q.7.05.85.7l.1.2-.05.3-.5.5-.4.2q-.8-.15-.9-.7v-.55" fill="url(#F)" fill-rule="evenodd" transform="translate(137.2 65.5)"/><path d="m39.75-6.7.65.35.15.15.1.95-.15.55q-.5.55-1.2.25l-.4-.4-.1-.15v-.55q-.05-.3.05-.6l.6-.45.3-.1" fill="url(#G)" fill-rule="evenodd" transform="translate(137.2 65.5)"/><path d="M38.55-8.65q.7.05.85.7l.1.2q-.05.55-.55.8l-.4.2q-1.15-.2-.9-1.25l.6-.55.3-.1" fill="url(#H)" fill-rule="evenodd" transform="translate(137.2 65.5)"/><path d="M33.1-3.45v-.1q.15-.45.6-.55l.3-.1q.7.05.85.7l.1.2q-.05.55-.55.8l-.4.2-.55-.2.05-.25-.1-.2-.3-.5" fill="url(#I)" fill-rule="evenodd" transform="translate(137.2 65.5)"/><path d="m33.45-2.5-.5.55-.4.2q-1.15-.2-.9-1.25l.6-.55.3-.1.55.2.3.5.1.2-.05.25" fill="url(#J)" fill-rule="evenodd" transform="translate(137.2 65.5)"/><path d="M42.6-15.4v-.05h.05l-.05.05" fill="url(#K)" fill-rule="evenodd" transform="translate(137.2 65.5)"/><path d="m41.65-.3.5.6.1.2q-.05.55-.55.8l-.05.05-.35.15q-1.15-.2-.9-1.25.15-.45.6-.55l.3-.1.35.1" fill="url(#L)" fill-rule="evenodd" transform="translate(137.2 65.5)"/><path d="m47.85-2.4.1.95-.15.55q-.5.55-1.2.25l-.4-.4-.1-.15v-.55q-.05-.3.05-.6l.6-.45.3-.1q.35.15.65.35l.15.15" fill="url(#M)" fill-rule="evenodd" transform="translate(137.2 65.5)"/><path d="m53.5-6.85-.25.5-.3.15-.4.2q-1.15-.2-.9-1.25.1-.3.35-.4l.25-.15.3-.1q.7.05.85.7l.1.2v.15" fill="url(#N)" fill-rule="evenodd" transform="translate(137.2 65.5)"/><path d="m53.25-6.35.25-.5 2.7 2-2.95-1.5M57.7-2.6l10.05 4.65L63.9.5 61.3-.55l-3.65-1.4.1-.55-.05-.1m8 2.6-.6-.3.5.1.1.2m7.4 12.95.2-.15v.1l-.2.05M-4.7-3.45h-.05l-2.15.05q2.2-1.9 2.7-3.45l4.1.75q-.8 2.35-4.6 2.65" fill="url(#O)" fill-rule="evenodd" transform="translate(137.2 65.5)"/><path d="M52.3-.4q.7.05.85.7l.1.2q-.05.55-.55.8l-.4.2q-1.15-.2-.9-1.25L52-.3l.3-.1" fill="url(#P)" fill-rule="evenodd" transform="translate(137.2 65.5)"/><path d="M60.3-3.5q-1.15-.2-.9-1.25l.5-.5.1-.05.3-.1q.7.05.85.7l.1.2v.1q-.1.45-.55.7l-.4.2" fill="url(#Q)" fill-rule="evenodd" transform="translate(137.2 65.5)"/><path d="m57.65-1.95-.1.15-.3.4q-.8.3-1.35-.35l-.1-.6.1-.55.45-.35h.05l.4-.1v-.05q.7.05.85.7l.05.1.05.1-.1.55" fill="url(#R)" fill-rule="evenodd" transform="translate(137.2 65.5)"/><path d="M65.6-.2q-.2-.3-.25-.7l.4-.5.15-.1.4-.15q.9.05 1.5.7l.1.2.05.55v.05l-.15.5-.25.2-.2.1h-.4Q66.1.55 65.7 0l-.1-.2" fill="url(#S)" fill-rule="evenodd" transform="translate(137.2 65.5)"/><path d="M61.05-.4q.7-.05 1.05.5l.05.2.05.6-.15.15-.3.3-.35.1q-.85.2-1.3-.65l.05-.45q.1-.35.5-.55l.4-.2" fill="url(#T)" fill-rule="evenodd" transform="translate(137.2 65.5)"/><path d="M82.15-1.2v6L8.95 41.55l-.85.4-5.7 2.85h-.1v-6l.15-.05 4.4-2.2 3.45-1.75 1.85-.9 15.35-7.7 2.5-1.25 19.15-9.6 1.65-.8 5.3-2.7 1.8-.9 1.95-.95 1.45-.75L76.15 1.8l.45-.2 5.55-2.8M-124.8-25l40.3 20.2v.3h.65L-44.9 15h.05l4.85 2.4v.1h.2l7.55 3.8 34.7 17.45-.15.05v5.95L-32.3 27.4v-.1L-44.85 21h-.05l-79.9-40.05V-25" fill="#a6713c" fill-rule="evenodd" transform="translate(137.2 65.5)"/><path d="M82.15 4.8v2.5L4.9 46.05l-6.3 3.15-30.9-15.55v-.1L-56.65 21.3h-.05l-80.5-40.45.2-.4 80.5-40.55.8.4q-34.55 17.35-69.1 34.65v6L-44.9 21h.05l12.55 6.3v.1L2.3 44.75v.05h.1l5.7-2.85.85-.4L82.15 4.8" fill-opacity=".2" fill-rule="evenodd" transform="translate(137.2 65.5)"/><path d="m61.75 1.6.15-.15.15-.1.65.35.15.15.15 1-.15 1.25-.2.4-1.3-.1q-.7-1.5.35-2.7l.05-.1" fill="url(#U)" fill-rule="evenodd" transform="translate(137.2 65.5)"/><path d="m59.85 10 .05-.25q.15-.45.6-.55l.3-.1.5.15-1.45.75" fill="url(#V)" fill-rule="evenodd" transform="translate(137.2 65.5)"/><path d="M50.75 8.25q-.05.55-.55.8l-.4.2q-1.15-.2-.9-1.25.15-.45.6-.55l.3-.1q.7.05.85.7l.1.2" fill="url(#W)" fill-rule="evenodd" transform="translate(137.2 65.5)"/><path d="m56.1 11.85-.1-.1-.15-.5q0-.55.5-.75l.45-.15 1.1.6-1.8.9" fill="url(#X)" fill-rule="evenodd" transform="translate(137.2 65.5)"/><path d="M41.65 4.1v.85l-.05-.75.05-.1" fill="url(#Y)" fill-rule="evenodd" transform="translate(137.2 65.5)"/><path d="m43.6 11.6.05.2q.2.4-.1.75l-.3.3q-1.05.45-1.6-.45l-.05-.1q-.05-.3.05-.5l.5-.5.4-.2q.7-.05 1.05.5" fill="url(#Z)" fill-rule="evenodd" transform="translate(137.2 65.5)"/><path d="m40.7 16.7-.55.8-.4.2q-1.15-.2-.9-1.25.15-.45.6-.55l.3-.1q.7.05.85.7l.1.2" fill="url(#aa)" fill-rule="evenodd" transform="translate(137.2 65.5)"/><path d="m49.15 15.35-.05-.1q.05-.8.95-.85v-.05l.75.2-1.65.8" fill="url(#ab)" fill-rule="evenodd" transform="translate(137.2 65.5)"/><path d="m37.55 5.15.1-.55q.35-.45.9-.45V4.1q.7.05.85.7l.1.2-.2.7-.3.4q-.8.3-1.35-.35l-.1-.6" fill="url(#ac)" fill-rule="evenodd" transform="translate(137.2 65.5)"/><path d="m32.05.9.05.1.1.2-.2.7-.3.4q-.8.3-1.35-.35l-.1-.6.1-.55q.25-.3.6-.4l.3-.05V.3q.65.05.8.6" fill="url(#ad)" fill-rule="evenodd" transform="translate(137.2 65.5)"/><path d="m34.7 9-.6-.35q-.75-1.3.4-2.15l.3-.15.65.35.15.15.1.5-.1 1-.2.4-.7.25" fill="url(#ae)" fill-rule="evenodd" transform="translate(137.2 65.5)"/><path d="m34.7 9 .7-.25.2-.4.1-1 .6.45.05.2q.2.4-.1.75l-.3.3L34.7 9" fill="url(#af)" fill-rule="evenodd" transform="translate(137.2 65.5)"/><path d="M28.3 3.05q.25.75 0 1.5l-.2.4-1.3-.1q-.75-1.3.4-2.15l.3-.15.65.35.15.15" fill="url(#ag)" fill-rule="evenodd" transform="translate(137.2 65.5)"/><path d="M21.55 24.35q.7.05.85.7l.1.2-.55.8-.4.2q-1.15-.2-.9-1.25.15-.45.6-.55l.3-.1" fill="url(#ah)" fill-rule="evenodd" transform="translate(137.2 65.5)"/><path d="m23.25 23.05.65.35.15.15.1.95-.15.55q-.5.55-1.2.25l-.4-.4-.1-.15v-.55l.05-.6.6-.45.3-.1" fill="url(#ai)" fill-rule="evenodd" transform="translate(137.2 65.5)"/><path d="M12.1 11.3q-.1-.7.55-1l.4-.2q.7-.05 1.05.5l.05.2q.2.4-.1.75l-.3.3q-1.1.45-1.65-.55" fill="url(#aj)" fill-rule="evenodd" transform="translate(137.2 65.5)"/><path d="m3.4 1.05.1.2q-.05.55-.55.8l-.4.2Q1.4 2.05 1.65 1l.6-.55.3-.1q.7.05.85.7" fill="url(#ak)" fill-rule="evenodd" transform="translate(137.2 65.5)"/><path d="M6.3 12.1q.7.05.85.7l.1.2-.55.8-.4.2q-1.15-.2-.9-1.25.15-.45.6-.55l.3-.1" fill="url(#al)" fill-rule="evenodd" transform="translate(137.2 65.5)"/><path d="m6.75 7.75-.3.3q-1.1.45-1.65-.55-.1-.7.55-1l.4-.2q.7-.05 1.05.5l.05.2q.2.4-.1.75" fill="url(#am)" fill-rule="evenodd" transform="translate(137.2 65.5)"/><path d="m9.7 13.1.75 1.15.25.35-.05.4-.15.55-.45.3-.3.1q-1.35-.65-1.7-2.2v-.2q.15-.5.65-.65l.3-.1.4.15.3.15" fill="url(#an)" fill-rule="evenodd" transform="translate(137.2 65.5)"/><path d="m2.25 18.5-.3.3q-1.1.45-1.65-.55-.1-.7.55-1l.4-.2q.7-.05 1.05.5l.05.2q.2.4-.1.75" fill="url(#ao)" fill-rule="evenodd" transform="translate(137.2 65.5)"/><path d="m2.75 23.2.3-.1q.7.05.85.7l.1.2q-.05.55-.55.8l-.4.2q-1.15-.2-.9-1.25.15-.45.6-.55" fill="url(#ap)" fill-rule="evenodd" transform="translate(137.2 65.5)"/><path d="M8.55 20.85q.7-.05 1.05.5l.05.2q.2.4-.1.75l-.3.3q-1.1.45-1.65-.55-.1-.7.55-1l.4-.2" fill="url(#aq)" fill-rule="evenodd" transform="translate(137.2 65.5)"/><path d="m7 23.8.65.35.15.15.1 1.7-.15.55q-.5.55-1.2.25l-.4-.4-.1-.15v-1.3l.05-.6q.2-.35.6-.45l.3-.1" fill="url(#ar)" fill-rule="evenodd" transform="translate(137.2 65.5)"/><path d="m16 16.7.3-.1.4.15.3.15.75 1.15.25.35-.05.4-.15.55-.45.3-.3.1q-1.35-.65-1.7-2.2v-.2q.15-.5.65-.65" fill="url(#as)" fill-rule="evenodd" transform="translate(137.2 65.5)"/><path d="m13.95 20.65.3-.1q.7.05.85.7l.1.2q-.05.55-.55.8l-.4.2q-1.15-.2-.9-1.25.15-.45.6-.55" fill="url(#at)" fill-rule="evenodd" transform="translate(137.2 65.5)"/><path d="m14.3 27.6.65.35.15.15.1 1.7-.15.55q-.5.55-1.2.25l-.4-.4-.1-.15v-1.3l.05-.6.6-.45.3-.1" fill="url(#au)" fill-rule="evenodd" transform="translate(137.2 65.5)"/><path d="m10.6 33.55.65-.2v-.05q.65.05.85.6h.05l-1.85.9-.05-.45.1-.55.25-.25" fill="url(#av)" fill-rule="evenodd" transform="translate(137.2 65.5)"/><path d="m3 32.95.3-.1q.65.05.85.6v.1l.1.2-.55.8-.4.2-.55-.15q-.55-.35-.35-1.1.15-.4.5-.5l.1-.05" fill="url(#aw)" fill-rule="evenodd" transform="translate(137.2 65.5)"/><path d="m3 32.95-.1.05q-.35.1-.5.5-.2.75.35 1.1l-.25.1q-1.15-.2-.9-1.25.15-.45.6-.55l.3-.1q.3 0 .5.15" fill="url(#ax)" fill-rule="evenodd" transform="translate(137.2 65.5)"/><path d="M-93.3-26.7q-1.1.45-1.65-.55-.1-.7.55-1l.4-.2q.7-.05 1.05.5l.05.2q.2.4-.1.75l-.3.3" fill="url(#ay)" fill-rule="evenodd" transform="translate(137.2 65.5)"/><path d="M-85.65-32.5q.2.4-.1.75l-.3.3q-1.1.45-1.65-.55-.1-.7.55-1l.4-.2q.7-.05 1.05.5l.05.2" fill="url(#az)" fill-rule="evenodd" transform="translate(137.2 65.5)"/><path d="M-82.15-34.7q.35-.45.9-.45v-.05q.7.05.9.7l.05.2-.2.7-.3.4q-.8.3-1.35-.35l-.05-.6.05-.55" fill="url(#aA)" fill-rule="evenodd" transform="translate(137.2 65.5)"/><path d="M-81.4-25.7q.35-.45.9-.45v-.05q.7.05.9.7l.05.2-.2.7-.3.4q-.8.3-1.35-.35l-.1-.6.1-.55" fill="url(#aB)" fill-rule="evenodd" transform="translate(137.2 65.5)"/><path d="M-106.05-23.8q0 .55-.55.8l-.4.2q-1.15-.2-.9-1.25l.6-.55.3-.1q.7.05.9.7l.05.2" fill="url(#aC)" fill-rule="evenodd" transform="translate(137.2 65.5)"/><path d="M-101.5-18.95q.7.05.9.7l.05.2q0 .55-.55.8l-.4.2q-1.15-.2-.9-1.25l.6-.55.3-.1" fill="url(#aD)" fill-rule="evenodd" transform="translate(137.2 65.5)"/><path d="m-109.6-21.75.05.2q0 .55-.55.8l-.4.2q-1.15-.2-.9-1.25l.6-.55.3-.1q.7.05.9.7" fill="url(#aE)" fill-rule="evenodd" transform="translate(137.2 65.5)"/><path d="M-84.55-22.3q0 .55-.55.8l-.4.2q-1.15-.2-.9-1.25l.6-.55.3-.1q.7.05.85.7l.1.2" fill="url(#aF)" fill-rule="evenodd" transform="translate(137.2 65.5)"/><path d="M-90.3-19.8q0 .55-.55.8l-.4.2q-1.15-.2-.9-1.25l.6-.55.3-.1q.7.05.9.7l.05.2" fill="url(#aG)" fill-rule="evenodd" transform="translate(137.2 65.5)"/><path d="m-91-22.6-.3.4q-.8.3-1.35-.35l-.05-.6.05-.55q.35-.45.9-.45v-.05q.7.05.9.7l.05.2-.2.7" fill="url(#aH)" fill-rule="evenodd" transform="translate(137.2 65.5)"/><path d="m-89.35-12.5-.4.2q-1.15-.2-.9-1.25l.6-.55.3-.1q.7.05.9.7l.05.2q-.05.55-.55.8" fill="url(#aI)" fill-rule="evenodd" transform="translate(137.2 65.5)"/><path d="M-85.25-10.3q-1.15-.2-.9-1.25.15-.45.6-.55l.3-.1q.7.05.9.7l.05.2q0 .55-.55.8l-.4.2" fill="url(#aJ)" fill-rule="evenodd" transform="translate(137.2 65.5)"/><path d="m-35.3-53.35.3-.1q.7.05.9.7l.05.2q0 .55-.55.8l-.4.2q-1.15-.2-.9-1.25l.6-.55" fill="url(#aK)" fill-rule="evenodd" transform="translate(137.2 65.5)"/><path d="M-27.7-49.65q.7.05.9.7l.05.2q0 .55-.55.8l-.4.2q-1.15-.2-.9-1.25.15-.4.6-.55l.3-.1" fill="url(#aL)" fill-rule="evenodd" transform="translate(137.2 65.5)"/><path d="m-52.15-51.3.6-.55.3-.1q.7.05.9.7l.05.2q0 .55-.55.8l-.4.2q-1.15-.2-.9-1.25" fill="url(#aM)" fill-rule="evenodd" transform="translate(137.2 65.5)"/><path d="m-47.4-51.05.6-.55.3-.1q.7.05.85.7l.1.2q0 .55-.55.8l-.4.2q-1.15-.2-.9-1.25" fill="url(#aN)" fill-rule="evenodd" transform="translate(137.2 65.5)"/><path d="m-44.8-54.85.3-.1q.7.05.9.7l.05.2-.1.4-.45.4-.4.2q-1.15-.2-.9-1.25l.1-.15q.15-.3.5-.4" fill="url(#aO)" fill-rule="evenodd" transform="translate(137.2 65.5)"/><path d="m-44.3-50.1.3-.1q.7.05.9.7l.05.2q0 .55-.55.8l-.4.2q-1.15-.2-.9-1.25l.6-.55" fill="url(#aP)" fill-rule="evenodd" transform="translate(137.2 65.5)"/><path d="m-48.3-44.35.3-.1q.7.05.85.7l.1.2q0 .55-.55.8l-.4.2q-1.15-.2-.9-1.25l.6-.55" fill="url(#aQ)" fill-rule="evenodd" transform="translate(137.2 65.5)"/><path d="m-52.1-48.5.05.2q0 .55-.55.8l-.4.2q-1.15-.2-.9-1.25.15-.4.6-.55l.3-.1q.7.05.9.7" fill="url(#aR)" fill-rule="evenodd" transform="translate(137.2 65.5)"/><path d="m-58.4-40.05.6-.55.3-.1q.7.05.9.7l.05.2q0 .55-.55.8l-.4.2q-1.15-.2-.9-1.25" fill="url(#aS)" fill-rule="evenodd" transform="translate(137.2 65.5)"/><path d="M-53.55-34.05q0 .55-.55.8l-.4.2q-1.15-.2-.9-1.25l.6-.55.3-.1q.7.05.9.7l.05.2" fill="url(#aT)" fill-rule="evenodd" transform="translate(137.2 65.5)"/><path d="M-58-31.2q.7.05.9.7l.05.2q0 .3-.15.55l-.4.25-.4.2q-.5-.1-.75-.35l-.2-.65.05-.25.6-.55.3-.1" fill="url(#aU)" fill-rule="evenodd" transform="translate(137.2 65.5)"/><path d="M-60.5-35.55q-1.15-.2-.9-1.25l.6-.55.3-.1q.7.05.9.7l.05.2q0 .55-.55.8l-.4.2" fill="url(#aV)" fill-rule="evenodd" transform="translate(137.2 65.5)"/><path d="M-50.75-28.95q.7.05.85.7l.1.2v.2q-.1.4-.55.6l-.4.2q-.9-.15-.95-.85l.05-.4.6-.55.3-.1" fill="url(#aW)" fill-rule="evenodd" transform="translate(137.2 65.5)"/><path d="M-44.55-31.3q0 .55-.55.8l-.4.2q-1.15-.2-.9-1.25l.6-.55.3-.1q.7.05.85.7l.1.2" fill="url(#aX)" fill-rule="evenodd" transform="translate(137.2 65.5)"/><path d="m-62.85-45-.4.2q-1.15-.2-.9-1.25l.6-.55.3-.1q.7.05.9.7l.05.2q0 .55-.55.8" fill="url(#aY)" fill-rule="evenodd" transform="translate(137.2 65.5)"/><path d="m-66.8-39.35.3-.1q.7.05.9.7l.05.2q0 .55-.55.8l-.4.2q-1.15-.2-.9-1.25l.6-.55" fill="url(#aZ)" fill-rule="evenodd" transform="translate(137.2 65.5)"/><path d="M-76.75-43.2q.7.05.9.7l.05.2q0 .55-.55.8l-.4.2q-1.15-.2-.9-1.25l.15-.25.45-.3.3-.1" fill="url(#ba)" fill-rule="evenodd" transform="translate(137.2 65.5)"/><path d="m-71.3-28.75.5-.35.3-.1q.7.05.9.7l.05.2q0 .55-.55.8l-.15.1-.25.1-.2-.05q-.95-.25-.7-1.2l.1-.2" fill="url(#bb)" fill-rule="evenodd" transform="translate(137.2 65.5)"/><path d="M-64.55-29.8q0 .55-.55.8l-.4.2q-1.15-.2-.9-1.25.15-.45.6-.55l.3-.1q.7.05.9.7l.05.2" fill="url(#bc)" fill-rule="evenodd" transform="translate(137.2 65.5)"/><path d="M-72.4-14.9v-.15l.6-.55.3-.1q.7.05.9.7l.05.2q0 .55-.55.8l-.2.1v-.15l-.05-.2q-.2-.65-.9-.7l-.15.05" fill="url(#bd)" fill-rule="evenodd" transform="translate(137.2 65.5)"/><path d="M-71.3-13.9q-.1.45-.55.65l.05-.3-.05-.2q-.2-.65-.9-.7l-.3.1-.1.05q.15-.4.6-.55l.15-.05.15-.05q.7.05.9.7l.05.2v.15" fill="url(#be)" fill-rule="evenodd" transform="translate(137.2 65.5)"/><path d="M-71.85-13.25q-.1.3-.5.5l-.4.2q-1.15-.2-.9-1.25l.5-.5.1-.05.3-.1q.7.05.9.7l.05.2-.05.3" fill="url(#bf)" fill-rule="evenodd" transform="translate(137.2 65.5)"/><path d="M-71.8-10.55q0 .55-.55.8l-.4.2q-1.15-.2-.9-1.25.15-.45.6-.55l.3-.1q.7.05.9.7l.05.2" fill="url(#bg)" fill-rule="evenodd" transform="translate(137.2 65.5)"/><path d="m-76.55-6.1.3-.1q.7.05.9.7l.05.2q0 .55-.55.8l-.4.2q-1.15-.2-.9-1.25l.6-.55" fill="url(#bh)" fill-rule="evenodd" transform="translate(137.2 65.5)"/><path d="m-61.05-7.35.3-.1q.7.05.9.7l.05.2q0 .55-.55.8l-.4.2q-1.15-.2-.9-1.25l.6-.55" fill="url(#bi)" fill-rule="evenodd" transform="translate(137.2 65.5)"/><path d="M-64.3-11.05q0 .55-.55.8l-.4.2q-1.15-.2-.9-1.25l.6-.55.3-.1q.7.05.9.7l.05.2" fill="url(#bj)" fill-rule="evenodd" transform="translate(137.2 65.5)"/><path d="M-42.25-18.95q.7-.05 1.05.5l.05.2q.2.4-.1.75l-.3.3-.95.1-.7-.65.05-.5.5-.5.4-.2" fill="url(#bk)" fill-rule="evenodd" transform="translate(137.2 65.5)"/><path d="M-52.5-11.95q.7.05.85.7l.1.2q0 .55-.55.8l-.4.2q-1.15-.2-.9-1.25l.6-.55.3-.1" fill="url(#bl)" fill-rule="evenodd" transform="translate(137.2 65.5)"/><path d="m-47.4-7.55.6-.55.3-.1q.7.05.9.7l.05.2q0 .55-.55.8l-.4.2q-1.15-.2-.9-1.25" fill="url(#bm)" fill-rule="evenodd" transform="translate(137.2 65.5)"/><path d="m-7.8-37.85.3-.1q.7.05.85.7l.1.2q-.05.55-.55.8l-.4.2q-1.15-.2-.9-1.25l.6-.55" fill="url(#bn)" fill-rule="evenodd" transform="translate(137.2 65.5)"/><path d="m-2.55-33.6.3-.1q.7.05.9.7l.05.2-.05.4-.5.4-.4.2q-1.15-.2-.9-1.25l.1-.2.5-.35" fill="url(#bo)" fill-rule="evenodd" transform="translate(137.2 65.5)"/><path d="M-9.25-34.2q.7.05.85.7l.1.2q-.05.55-.55.8l-.4.2q-1.15-.2-.9-1.25l.6-.55.3-.1" fill="url(#bp)" fill-rule="evenodd" transform="translate(137.2 65.5)"/><path d="M-8.3-31.05q-.05.55-.55.8l-.4.2q-1.15-.2-.9-1.25l.6-.55.3-.1q.7.05.85.7l.1.2" fill="url(#bq)" fill-rule="evenodd" transform="translate(137.2 65.5)"/><path d="m-22.35-38.25-.4.2q-1.15-.2-.9-1.25l.6-.55.3-.1q.7.05.85.7l.1.2q-.05.55-.55.8" fill="url(#br)" fill-rule="evenodd" transform="translate(137.2 65.5)"/><path d="M-38.9-47.55v.05l.1.2q0 .55-.55.8l-.4.2q-1.05-.2-.9-1.05l1.75-.2" fill="url(#bs)" fill-rule="evenodd" transform="translate(137.2 65.5)"/><path d="M-38-37.95q.7.05.85.7l.1.2q0 .55-.55.8l-.4.2q-1.15-.2-.9-1.25l.6-.55.3-.1" fill="url(#bt)" fill-rule="evenodd" transform="translate(137.2 65.5)"/><path d="M-40-38.45q.7.05.85.7l.1.2q0 .55-.55.8l-.4.2q-1.15-.2-.9-1.25l.6-.55.3-.1" fill="url(#bu)" fill-rule="evenodd" transform="translate(137.2 65.5)"/><path d="m-35.55-40.85.3-.1q.7.05.9.7l.05.2q0 .55-.55.8l-.4.2q-1.15-.2-.9-1.25l.6-.55" fill="url(#bv)" fill-rule="evenodd" transform="translate(137.2 65.5)"/><path d="M-37.55-34.3q0 .55-.55.8l-.4.2q-1.15-.2-.9-1.25l.6-.55.3-.1q.7.05.9.7l.05.2" fill="url(#bw)" fill-rule="evenodd" transform="translate(137.2 65.5)"/><path d="M-33-25.7q.7.05.85.7l.1.2q-.05.55-.55.8l-.4.2q-1.15-.2-.9-1.25l.6-.55.3-.1" fill="url(#bx)" fill-rule="evenodd" transform="translate(137.2 65.5)"/><path d="M-31-28.7q.7-.05 1.05.5l.05.2q.2.4-.1.75l-.3.3q-1.1.45-1.65-.55-.1-.7.55-1l.4-.2" fill="url(#by)" fill-rule="evenodd" transform="translate(137.2 65.5)"/><path d="m-25.8-29 .1.1.05.15.05.2q.05.3-.15.55v.05l-.15.15-.35.2q-1.2.4-1.95-.65v-.2l.2-.5q.3-.45.75-.5.9-.2 1.45.45" fill="url(#bz)" fill-rule="evenodd" transform="translate(137.2 65.5)"/><path d="M-23.35-24.45h.65l.05.05.05.2q.2.4-.1.75l-.3.3-.75.15q.9-.5.4-1.45" fill="url(#bA)" fill-rule="evenodd" transform="translate(137.2 65.5)"/><path d="M-20.9-24.45h2.6l-.15.25v.05l-.15.15-.35.2q-1.2.4-1.95-.65" fill="url(#bB)" fill-rule="evenodd" transform="translate(137.2 65.5)"/><path d="M-24.75-21q-.05.55-.55.8l-.4.2q-1.15-.2-.9-1.25l.6-.55.3-.1q.7.05.85.7l.1.2" fill="url(#bC)" fill-rule="evenodd" transform="translate(137.2 65.5)"/><path d="m-25.85-22.6-.15.05-.2-.05h.35" fill="url(#bD)" fill-rule="evenodd" transform="translate(137.2 65.5)"/><path d="m-37.5-15.75-.35.25-.4.2q-.9-.15-.95-.8l.05-.45.6-.55.3-.1q.7.05.85.7l.1.2q0 .35-.2.55" fill="url(#bE)" fill-rule="evenodd" transform="translate(137.2 65.5)"/><path d="m-36.65-6.75.1.2q-.05.55-.55.8l-.4.2q-1.15-.2-.9-1.25l.6-.55.3-.1q.7.05.85.7" fill="url(#bF)" fill-rule="evenodd" transform="translate(137.2 65.5)"/><path d="m-19.6-7.95-.15.35-.3.4q-.8.3-1.35-.35l-.1-.6.05-.2.05-.35q.35-.45.9-.45v-.05q.7.05.85.7l.1.2-.05.35" fill="url(#bG)" fill-rule="evenodd" transform="translate(137.2 65.5)"/><path d="m-28.8-9.6.3-.1q.7.05.85.7l.1.2q-.05.55-.55.8l-.4.2q-1.15-.2-.9-1.25l.6-.55" fill="url(#bH)" fill-rule="evenodd" transform="translate(137.2 65.5)"/><path d="m-4.75-22.6-.3.4q-.8.3-1.35-.35l-.1-.6.1-.55q.35-.45.9-.45v-.05q.7.05.85.7l.1.2-.2.7" fill="url(#bI)" fill-rule="evenodd" transform="translate(137.2 65.5)"/><path d="M-9.75-18.75q0 .3-.15.5l-.4.3-.4.2q-.65-.1-.85-.5l-.05-.75.6-.55.3-.1q.7.05.85.7l.1.2" fill="url(#bJ)" fill-rule="evenodd" transform="translate(137.2 65.5)"/><path d="M-7.75-16.7q.7.05.85.7l.1.2q-.05.55-.55.8l-.4.2q-1.15-.2-.9-1.25l.6-.55.3-.1" fill="url(#bK)" fill-rule="evenodd" transform="translate(137.2 65.5)"/><path d="m-1.8-17.35.3-.1q.7.05.85.7l.1.2q-.05.55-.55.8l-.4.2q-1.15-.2-.9-1.25l.6-.55" fill="url(#bL)" fill-rule="evenodd" transform="translate(137.2 65.5)"/><path d="m-17.6-21.75-.4.2q-1.15-.2-.9-1.25l.6-.55.3-.1q.7.05.85.7l.1.2q0 .55-.55.8" fill="url(#bM)" fill-rule="evenodd" transform="translate(137.2 65.5)"/><path d="m-17.85-19.95.1.2q-.05.55-.55.8l-.4.2q-1.15-.2-.9-1.25l.6-.55.3-.1q.7.05.85.7" fill="url(#bN)" fill-rule="evenodd" transform="translate(137.2 65.5)"/><path d="M-18.95-15.8H-19q-1.15-.2-.9-1.25l.6-.55.3-.1.45.15q-.65.7-.4 1.75" fill="url(#bO)" fill-rule="evenodd" transform="translate(137.2 65.5)"/><path d="m-12.6-13.25.6-.55.3-.1q.7.05.85.7l.1.2q0 .4-.3.65l-1.55-.3v-.6" fill="url(#bP)" fill-rule="evenodd" transform="translate(137.2 65.5)"/><path d="m-15.65-11 .1.2q0 .55-.55.8l-.4.2q-1.15-.2-.9-1.25l.6-.55.15-.05.15-.05.55.2.3.5" fill="url(#bQ)" fill-rule="evenodd" transform="translate(137.2 65.5)"/><path d="M-19.5-1.45q.7.05.85.7l.1.2q-.05.55-.55.8l-.4.2q-1.15-.2-.9-1.25l.6-.55.3-.1" fill="url(#bR)" fill-rule="evenodd" transform="translate(137.2 65.5)"/><path d="M-4.75-3.45h.05q.65.1.8.7l.1.2q-.05.55-.55.8l-.4.2q-1.15-.2-.9-1.25l.6-.55.3-.1" fill="url(#bS)" fill-rule="evenodd" transform="translate(137.2 65.5)"/><path d="M-1.6 5.05q.05 1.55-1.55 1.3l-.45-.55-.05-.4q.25-.9 1.2-1v-.05q.55.05.8.5l.05.2" fill="url(#bT)" fill-rule="evenodd" transform="translate(137.2 65.5)"/><path d="m-8.95 1.05.05.2q.05 1.55-1.55 1.3L-10.9 2l-.05-.4q.25-.9 1.2-1V.55q.55.05.8.5" fill="url(#bU)" fill-rule="evenodd" transform="translate(137.2 65.5)"/><path d="M-5.9 9.1q.25-.65.9-.9l.3-.1q.55.05.8.5l.05.2q.05.8-.4 1.45l-.25.35q-.8.35-1.35-.35l-.05-.6V9.1" fill="url(#bV)" fill-rule="evenodd" transform="translate(137.2 65.5)"/><path d="m-10.6 12.45-.05-.75q.15-.45.6-.55l.3-.1q.7.05.85.7l.1.2q-.05.55-.55.8l-.4.2-.4-.1-.45-.4" fill="url(#bW)" fill-rule="evenodd" transform="translate(137.2 65.5)"/><path d="m-1.3 8.4.3-.1q.7.05.85.7l.1.2q-.05.55-.55.8l-.4.2q-1.15-.2-.9-1.25.15-.45.6-.55" fill="url(#bX)" fill-rule="evenodd" transform="translate(137.2 65.5)"/><path d="m-11.35 3.05.1.2q-.05.55-.55.8l-.4.2-.25-.05q-.85-.25-.65-1.2l.6-.55h.05l.25-.1q.7.05.85.7" fill="url(#bY)" fill-rule="evenodd" transform="translate(137.2 65.5)"/><path d="M-13.2 5.3q.2-.55.75-.8l.15-.1.3-.1q.55.05.8.5l.05.2q.05.8-.4 1.45l-.25.35-.65.1-.7-.45-.05-.6V5.3" fill="url(#bZ)" fill-rule="evenodd" transform="translate(137.2 65.5)"/><path d="m-20.7 10.05.1-.35.2-.4 2.15-.75q.7.05.85.7l.1.2q-1.25 2.35-3.25.9l-.05-.05-.1-.25" fill="url(#ca)" fill-rule="evenodd" transform="translate(137.2 65.5)"/><path d="m-10.15 12.85.05.2.1.2q-1 1.85-2.45 1.35l-.75-.4-.2-.15V14l.1-.5.2-.4.65-.25 1.5-.5.35.1.45.4" fill="url(#cb)" fill-rule="evenodd" transform="translate(137.2 65.5)"/><path d="m-19.85 23.5-.4.2q-1.15-.2-.9-1.25.15-.45.6-.55l.3-.1q.7.05.85.7l.1.2q-.05.55-.55.8" fill="url(#cc)" fill-rule="evenodd" transform="translate(137.2 65.5)"/><path d="m-2.75 14.95.3-.1q.7.05.85.7l.1.2q-.05.55-.55.8l-.4.2q-1.15-.2-.9-1.25.15-.45.6-.55" fill="url(#cd)" fill-rule="evenodd" transform="translate(137.2 65.5)"/><path d="M-28.75 5.8q.7.05.85.7l.1.2q-.05.55-.55.8l-.4.2q-1.15-.2-.9-1.25.15-.45.6-.55l.3-.1" fill="url(#ce)" fill-rule="evenodd" transform="translate(137.2 65.5)"/><path d="m-20.55 10.35.05.15q-.05.55-.55.8l-.4.2q-1.15-.2-.9-1.25.15-.45.6-.55l.3-.1q.55.05.75.45l.1.25.05.05" fill="url(#cf)" fill-rule="evenodd" transform="translate(137.2 65.5)"/><path d="m-35.35 4-.4.2q-1.15-.2-.9-1.25.15-.45.6-.55l.3-.1q.7.05.85.7l.1.2q-.05.55-.55.8" fill="url(#cg)" fill-rule="evenodd" transform="translate(137.2 65.5)"/><path d="M-35.25 9.8q.25-.45.75-.5 1.15-.3 1.8.55l.05.15.05.2-.15.55-.15.2-.35.2q-1.3.5-2.2-.65l.1-.55.1-.15" fill="url(#ch)" fill-rule="evenodd" transform="translate(137.2 65.5)"/><path d="M-30.05 14.1v-.05q.3-.2.55-.25l1.25.7.1.2.05.35-.1.6-.05.15-.25.2-.2.1q-.8.3-1.5-.25-.35-.25-.3-.75l.1-.75.35-.25" fill="url(#ci)" fill-rule="evenodd" transform="translate(137.2 65.5)"/><path d="M-31.05 17.85q-.15.3-.5.45l-.4.2-.35-.1v-1.65l.05-.05.15-.05.15-.05q.7.05.85.7l.1.2-.05.35" fill="url(#cj)" fill-rule="evenodd" transform="translate(137.2 65.5)"/><path d="m-31.05 17.85.05-.35-.1-.2q-.15-.65-.85-.7l-.15.05-.05-.15-.05-.2.4-.5q.3-.2.55-.25.75.15 1.25.7l.1.2.05.35-.15.75-.25.15-.5.25-.3-.1" fill="url(#ck)" fill-rule="evenodd" transform="translate(137.2 65.5)"/><path d="M-38.3 13.7q-.05.55-.55.8l-.4.2q-1.15-.2-.9-1.25.15-.45.6-.55l.3-.1q.7.05.85.7l.1.2" fill="url(#cl)" fill-rule="evenodd" transform="translate(137.2 65.5)"/><path d="m-40 17.4.2.1h-.2v-.1" fill="#999" fill-opacity=".624" fill-rule="evenodd" transform="translate(137.2 65.5)"/><path d="m-23 19.55-.2-.65.1-.75.35-.25v-.05l.55-.25q.75.15 1.25.7l.1.2.05.35-.1.6-.05.15-.25.2-.2.1q-.6.2-1.1 0l-.4-.25-.1-.1" fill="url(#cm)" fill-rule="evenodd" transform="translate(137.2 65.5)"/><path d="m-25.4 13.65.05.15.05.2-.15.55-.15.2-.35.2q-1.3.5-2.2-.65l.1-.55.1-.15q.25-.45.75-.5 1.15-.3 1.8.55" fill="url(#cn)" fill-rule="evenodd" transform="translate(137.2 65.5)"/><path d="m-22.6 20.25.05.35-.15.75-.25.15-.5.25q-1.2-.35-1.4-1.45l-.05-.2.4-.5.55-.25q.75.15 1.25.7l.1.2" fill="url(#co)" fill-rule="evenodd" transform="translate(137.2 65.5)"/><path d="m-4.4 29.2.1-.05.3-.1q.65.05.85.6v.1l.1.2q-.05.55-.55.8l-.4.2q-1.15-.2-.9-1.25l.5-.5" fill="url(#cp)" fill-rule="evenodd" transform="translate(137.2 65.5)"/><path d="M-2.6 29.85v-.1q.15-.45.6-.55l.3-.1q.7.05.9.7l.05.2-.1.45-.45.35-.4.2q-1.1-.2-.9-1.15" fill="url(#cq)" fill-rule="evenodd" transform="translate(137.2 65.5)"/><path d="M-8.05 26.2q0 .55-.55.8l-.4.2q-1.15-.2-.9-1.25.15-.45.6-.55l.3-.1q.7.05.9.7l.05.2" fill="url(#cr)" fill-rule="evenodd" transform="translate(137.2 65.5)"/><path d="M-6 29.75q0 .55-.55.8l-.4.2q-1.15-.2-.9-1.25.15-.45.6-.55l.3-.1q.7.05.9.7l.05.2" fill="url(#cs)" fill-rule="evenodd" transform="translate(137.2 65.5)"/><path d="m-13.35 25.75.1-.05.3-.1.5.15.35.55.1.2q-.05.5-.45.75l-.1.05-.4.2q-.85-.15-.9-.7v-.55l.5-.5" fill="url(#ct)" fill-rule="evenodd" transform="translate(137.2 65.5)"/><path d="m-13.85 26.8-.4.15q-1.15-.2-.9-1.25.15-.45.6-.55l.3-.1q.7.05.9.7l-.5.5v.55" fill="url(#cu)" fill-rule="evenodd" transform="translate(137.2 65.5)"/><path d="m-59.3 2.4.3-.1q.7.05.9.7l.05.2q0 .55-.55.8l-.4.2q-1.15-.2-.9-1.25.15-.45.6-.55" fill="url(#cv)" fill-rule="evenodd" transform="translate(137.2 65.5)"/><path d="M-52 10.2q-1.15-.2-.9-1.25l.6-.55.3-.1q.7.05.85.7l.1.2q0 .55-.55.8l-.4.2" fill="url(#cw)" fill-rule="evenodd" transform="translate(137.2 65.5)"/><path d="M30.7-27.05 34.9-25h.05l-.05.05 6.75 3.4M82.15-1.2v6M-55.7-59.7l10.6-5.3 12.85 6.45m44.4 92.45 15.35-7.7 2.5-1.25 19.15-9.6 1.65-.8 5.3-2.7 1.8-.9 1.95-.95m1.45-.75L76.15 1.8M-32.3-53.05l-12.4-6.2-.4.2-31.65 15.85m-.75.4-40.9 20.5-6.4-2.7 40.3 20.2m.65.3L-44.9 15h.05l4.85 2.4m.2.1 7.55 3.8m34.7 17.45 4.4-2.2 3.45-1.75m51-25.55-1.45.75m-47.7 23.9-1.85.9m-8 9.95V38.8l.15-.05m-.15 6v.05m.1 0 5.7-2.85m.85-.4L82.15 4.8M76.6 1.6l5.55-2.8M-124.8-25v-.05q34.55-17.3 69.1-34.65m23.4 87L-44.85 21h-.05l-79.9-40.05V-25m79.7-40v5.95" fill="none" stroke="#999" stroke-linecap="round" stroke-linejoin="round" transform="translate(137.2 65.5)"/><path d="m41.65-21.5.55.3h.05l-.05.05L82.15-1.2m-114.4-57.35 62.95 31.5 10.95 5.55M76.6 1.6l-34-17m0-.05-.9-.45m-10.1-5.05L-32.3-52.9m.05 74.2 34.7 17.45m39.2-54.7.05.05m-.05-.05-.9-.45-9.15-4.55M2.35 44.8h.05m-.1-.05L-32.3 27.4" fill="none" stroke="#999" stroke-linecap="round" stroke-linejoin="round" transform="translate(137.2 65.5)"/><path d="m145.3 107.45.85-.4" fill="none" stroke="#999" stroke-linecap="round" stroke-linejoin="round" stroke-width=".5"/><path d="M-41.5-48.75q14.1-7.9 38.25 20.25-127.7 2.4-38.25-20.25" fill="url(#cx)" fill-rule="evenodd" transform="translate(137.2 65.5)"/><path d="M-41.25 6.5q-24.5-8.4-41-23 148.9 9.85 41 23" fill="url(#cy)" fill-rule="evenodd" transform="translate(137.2 65.5)"/></g></defs></svg>