<svg xmlns="http://www.w3.org/2000/svg" xmlns:xlink="http://www.w3.org/1999/xlink" height="64.85" width="67"><path d="M62.2 45.5V45l.45.2h.05l1.55.2 1.45-.15.1-.05.55-.25.05 2.15v.55l.05 1.35.05.15-.65.45-1.55.2-1.6-.2-.15-.05-.5-.4.1-.15v-1.95l.05-1.55M30.65 64.35l-1.55-.25-.65-.4.05-.2v-.15l.05-3.85.5.2 1.55.25 1.6-.25.5-.2.1 4 .1.2-.65.4-1.6.25M2.6 51.45l-1.4-.25q-.65-.2-.65-.4l.1-.2.05-4 .45.2 1.6.2 1.55-.2.55-.25.05 3.4.05.65.05.2-.65.4-1.55.25h-.2" fill="#614b49" fill-rule="evenodd"/><path d="M4.2 29.3v-5.4l25 11.45-.15 5.05v.15l-3-1.4L14 33.65l-2.95-1.35-6.1-2.8-.75-.2" fill="#dad1cb" fill-rule="evenodd"/><path d="m62.7 25.1-12.65 6.35L46.9 33h.05l-.45.25-.75.4h-.05l-.85.45-1.2.6-.05-.05-2.35 1.2-2.15 1.05-1.8.9v-.05L33 39.9l-1 .3-.05-4.8 8.5-4.25v.05l17.7-8.8 4.55-2.3v4.1l-.9-.15q-1.85-.85-3.65-1.65 1.8.8 3.65 1.65l.9.15v.9m-16.2 8.15.4-.25-.4.25m-7.4 3.65-1.8.85 1.8-.85" fill="#a38c7e" fill-rule="evenodd"/><path d="m18.75-16.85 7 3.2v3l-10.1-4.65h-.05l3.15-1.55" fill="url(#a)" fill-rule="evenodd" transform="translate(31.3 48.3)"/><path d="m-20.25-16 2.95 1.35-9.8 5v-2.75l6.85-3.6" fill="url(#b)" fill-rule="evenodd" transform="translate(31.3 48.3)"/><path d="m66.4 47.45.2.1-.2.1v-.2m-37.5 11.4.15-.05-.15.05" fill="#666" fill-opacity=".502" fill-rule="evenodd"/><path d="M-24.1-33.55h-.05L5-48.3l29.85 13.8.05.05h-.05v.45L5-47.8l-24.3 12.3-.5.25h-.95l-3.35 1.7" fill="url(#c)" fill-rule="evenodd" transform="translate(31.3 48.3)"/><path d="m-19.8-35.25.5-.25L5-47.8 34.85-34l.15 3.55.05.45-.4.2-.45.2-2.8 1.4-4.55 2.3-17.7 8.8v-.05L.65-12.9l-1.25.65v-4l-29.7-13.6 9.85-5.05.65-.35m54.8 4.8-.35.65.35-.65m-54.3-5.05-1.15.6 1.15-.6m19.2 19L34.85-34-.1-16.5" fill="url(#d)" fill-rule="evenodd" transform="translate(31.3 48.3)"/><path d="m-30-25.75-.6-.25.15-3.9.15.05 29.7 13.6v4l-1.5-.7-25-11.45-2.9-1.35" fill="url(#e)" fill-rule="evenodd" transform="translate(31.3 48.3)"/><path d="m-24.1-33.55 3.35-1.7h.95l-.65.35-9.85 5.05-.15-.05.05-.55.1.05 6.2-3.15" fill="url(#f)" fill-rule="evenodd" transform="translate(31.3 48.3)"/><path d="m-30.1-9.35.1-16.4 2.9 1.35v15.05h-3" fill="url(#g)" fill-rule="evenodd" transform="translate(31.3 48.3)"/><path d="m-30.6-1.7-.2-.25.1-.15.05-.05.4-.2.15-.05v-6.7h3v1.7l9.7 4.45 15.15 7v3l-18.3-8.4-6.55-3v1.9l.05.05h.05l.6.3.05.15-.1.2-.55.25-1.55.2-1.6-.2-.45-.2" fill="url(#h)" fill-rule="evenodd" transform="translate(31.3 48.3)"/><path d="M-30.1-9.1v-.25h3v.25h-3" fill="url(#i)" fill-rule="evenodd" transform="translate(31.3 48.3)"/><path d="M.65-12.9.7-8.1v.2h-2.95l.15-5.05 1.5.7 1.25-.65" fill="url(#j)" fill-rule="evenodd" transform="translate(31.3 48.3)"/><path d="M.7-7.9v2.55h-2.95V-7.9H.7" fill="url(#k)" fill-rule="evenodd" transform="translate(31.3 48.3)"/><path d="m34.2-28.5.05 9.75H31.4v-9.45l2.8-1.4v1.1" fill="url(#l)" fill-rule="evenodd" transform="translate(31.3 48.3)"/><path d="M31.4-4v-.5h3v1.45l-1.45.15-1.55-.2V-4m3.7 2.8.05.15-.05.15v-.3m-4.25-.05v.4l-.15-.2.1-.15.05-.05" fill="url(#m)" fill-rule="evenodd" transform="translate(31.3 48.3)"/><path d="M.7-5.35.75 10.5H.9l.55.3.1.2-.15.2-.5.2-1.6.25-1.55-.25-.5-.2-.15-.2.05-.2h.05l.4-.25.15-.05V-5.35H.7" fill="url(#n)" fill-rule="evenodd" transform="translate(31.3 48.3)"/><path d="m41.25 35.85 15.8 7.3v.65h1.5l3.65 1.7-.05 1.55-.05.05-.1.15.15.2V49l-.1.15.5.4-31.1 15.15-.8-.35 1.6-.25.65-.4-.1-.2-.1-4 .15-.2-.1-.2-.55-.3h-.15L32 42.95V40.2l1-.3 4.3-2.15v.05l1.8-.9 2.15-1.05M28.5 63.35 2.6 51.45h.2l1.55-.25.65-.4-.05-.2-.05-.65 5.85-3 18.3 8.4v3.45l-.15.05-.4.25h-.05l-.05.2.15.2-.05 3.85m-2.45-24.2 3 1.4v11.8l-15.15-7 12.15-6.2" fill="#848484" fill-opacity=".4" fill-rule="evenodd"/><path d="M12 12.8 36.3.5l29.85 13.8.15 3.55.05.45-.4.2-.45.2v1.1l.05 9.75m-2.85 0V25.1l-12.65 6.35 7 3.2m0 3L46.95 33l-.45.25-.75.4-.9.45-1.2.6-.05-.05-2.35 1.2M62.2 45.5V45l-.2-.25.1-.15.05-.05.4-.2.1-.05h.05v-.5m3 0v.45l.05.05h.05l.6.3.05.15-.1.2.05 2.15m0 .3v.05m0 .2.05 1.35.05.15-.65.45-1.55.2-1.6-.2-.15-.05m-31.9 14.8-1.55-.25-.65-.4.05-.2v-.15M2.6 51.45l-1.4-.25q-.65-.2-.65-.4l.1-.2.05-4-.2-.25.1-.15.05-.05.4-.2.1-.05h.05v-6.95l.1-16.4-.6-.25.15-3.9m65.1.1.35-.65m-3.6 2.25 2.8-1.4m-2.8 1.4-4.55 2.3q1.8.8 3.65 1.65l.9.15v-4.1m-17.85 14 .85-.45h.05m1.2-.65h-.05l-.4.25m.4-.25 3.15-1.55m-9.6-.3-8.5 4.25.05 4.8 1-.3 4.3-2.15 1.8-.85 2.15-1.05M32 40.2v2.75l.05 15.85h.15l.55.3.1.2-.15.2.1 4 .1.2-.65.4-1.6.25M37.3 37.8l1.8-.9m23.6-11.8v-.9m3 21.05.1-.05.55-.25m-3.8-.6.15-.05m0 .9 1.55.2 1.45-.15m-3-.05h-.05l-.45-.2m-.05 2.05V49l-.1.15.5.4m-.4-2.5.05-1.55m4.2 2.15v-.2m0-.05v-.3m-8.25-24.7-17.7 8.8M32.7 59.5l-.5.2-1.6.25-1.55-.25-.5-.2-.05 3.85M1 18.45l9.85-5.05 1.15-.6M1 18.45l-.15-.05M4.2 29.3v-5.4l-2.9-1.35m2.9 6.75.75.2 6.1 2.8L14 33.65l12.05 5.5 3 1.4v-.15l.15-5.05-25-11.45m0 12v-6.6m6.85 3L4.2 35.9v2.75l9.8-5m-9.8 5.3v-.3m0 2.05v-.55m0-.25v-.7m0-.05v.05M.7 46.6l.45.2 1.6.2 1.55-.2.55-.25.1-.2-.05-.15-.6-.3h-.05l-.05-.05v-1.9l6.55 3 18.3 8.4v-3l-15.15-7-9.7-4.45m-3 5-.15.05m28-5.4v11.8m1.65-16.3v-4L1 18.45m28.2 16.9 1.5.7 1.25-.65m-3.4 24.1-.15-.2.05-.2h.05l.4-.25.15-.05v-3.45m-.15 3.5.15-.05M2.6 51.45h.2l1.55-.25.65-.4-.05-.2-.05-.65-.05-3.4m61.3-32.25L31.2 31.8" fill="none" stroke="#000" stroke-linecap="round" stroke-linejoin="round"/><path d="M31.4-16.15v-2.6h2.85l.05 2.6h-2.9" fill="url(#o)" fill-rule="evenodd" transform="translate(31.3 48.3)"/><path d="m34.3-15.2.1 10.7h-3v-10.7h2.9" fill="url(#p)" fill-rule="evenodd" transform="translate(31.3 48.3)"/><path d="M34.3-16.15v.95h-2.9v-.95h2.9" fill="url(#q)" fill-rule="evenodd" transform="translate(31.3 48.3)"/><path d="m57.05 43.15 1.5.65h-1.5v-.65" fill="#848484" fill-opacity=".4" fill-rule="evenodd"/><path d="m31.4-8.1-5.65-2.55v-3l5.65 2.55v3" fill="url(#r)" fill-rule="evenodd" transform="translate(31.3 48.3)"/><path d="m65.55 29.55.05 2.6v.95l.1 10.7m-3 0v-3.6l-5.65-2.55m0-3 5.65 2.55v-7.65" fill="none" stroke="#000" stroke-linecap="round" stroke-linejoin="round"/><defs><linearGradient gradientTransform="matrix(.0005 -.0012 .0064 .0029 21.25 -14.3)" gradientUnits="userSpaceOnUse" id="s" spreadMethod="pad" x1="-819.2" x2="819.2"><stop offset="0" stop-color="#bfb1a2"/><stop offset=".498" stop-color="#e4e1de"/><stop offset=".988" stop-color="#c7bbad"/></linearGradient><linearGradient gradientTransform="matrix(.0007 .0012 -.0034 .0019 -22.2 -12.75)" gradientUnits="userSpaceOnUse" id="t" spreadMethod="pad" x1="-819.2" x2="819.2"><stop offset="0" stop-color="#bfb1a2"/><stop offset=".498" stop-color="#e4e1de"/><stop offset=".988" stop-color="#c7bbad"/></linearGradient><linearGradient gradientTransform="matrix(.0011 0 0 .0247 -28.75 -7.25)" gradientUnits="userSpaceOnUse" id="u" spreadMethod="pad" x1="-819.2" x2="819.2"><stop offset="0" stop-color="#bfb1a2"/><stop offset=".498" stop-color="#e4e1de"/><stop offset=".988" stop-color="#c7bbad"/></linearGradient><linearGradient gradientTransform="matrix(.0011 0 0 .0247 -28.75 -15)" gradientUnits="userSpaceOnUse" id="v" spreadMethod="pad" x1="-819.2" x2="819.2"><stop offset="0" stop-color="#bfb1a2"/><stop offset=".498" stop-color="#e4e1de"/><stop offset=".988" stop-color="#c7bbad"/></linearGradient><linearGradient gradientTransform="matrix(.0011 0 0 .0247 -28.75 -8.45)" gradientUnits="userSpaceOnUse" id="w" spreadMethod="pad" x1="-819.2" x2="819.2"><stop offset="0" stop-color="#bfb1a2"/><stop offset=".498" stop-color="#e4e1de"/><stop offset=".988" stop-color="#c7bbad"/></linearGradient><linearGradient gradientTransform="matrix(.0016 0 0 .0197 -.7 3.2)" gradientUnits="userSpaceOnUse" id="x" spreadMethod="pad" x1="-819.2" x2="819.2"><stop offset="0" stop-color="#bfb1a2"/><stop offset=".498" stop-color="#e4e1de"/><stop offset=".988" stop-color="#c7bbad"/></linearGradient><linearGradient gradientTransform="matrix(.0016 0 0 .0197 -.7 -3.3)" gradientUnits="userSpaceOnUse" id="y" spreadMethod="pad" x1="-819.2" x2="819.2"><stop offset="0" stop-color="#bfb1a2"/><stop offset=".498" stop-color="#e4e1de"/><stop offset=".988" stop-color="#c7bbad"/></linearGradient><linearGradient gradientTransform="matrix(.001 0 0 .0198 32.95 -13.35)" gradientUnits="userSpaceOnUse" id="z" spreadMethod="pad" x1="-819.2" x2="819.2"><stop offset="0" stop-color="#bfb1a2"/><stop offset=".498" stop-color="#e4e1de"/><stop offset=".988" stop-color="#c7bbad"/></linearGradient><linearGradient gradientTransform="matrix(.001 0 0 .0198 32.95 -16.6)" gradientUnits="userSpaceOnUse" id="A" spreadMethod="pad" x1="-819.2" x2="819.2"><stop offset="0" stop-color="#bfb1a2"/><stop offset=".498" stop-color="#e4e1de"/><stop offset=".988" stop-color="#c7bbad"/></linearGradient><linearGradient gradientTransform="matrix(.0016 0 0 .0197 -.7 -4.5)" gradientUnits="userSpaceOnUse" id="B" spreadMethod="pad" x1="-819.2" x2="819.2"><stop offset="0" stop-color="#bfb1a2"/><stop offset=".498" stop-color="#e4e1de"/><stop offset=".988" stop-color="#c7bbad"/></linearGradient><linearGradient gradientTransform="matrix(.001 0 0 .0198 32.95 -13.35)" gradientUnits="userSpaceOnUse" id="C" spreadMethod="pad" x1="-819.2" x2="819.2"><stop offset="0" stop-color="#bfb1a2"/><stop offset=".498" stop-color="#e4e1de"/><stop offset=".988" stop-color="#c7bbad"/></linearGradient><linearGradient gradientTransform="matrix(.001 0 0 .0198 32.95 -16.6)" gradientUnits="userSpaceOnUse" id="D" spreadMethod="pad" x1="-819.2" x2="819.2"><stop offset="0" stop-color="#bfb1a2"/><stop offset=".498" stop-color="#e4e1de"/><stop offset=".988" stop-color="#c7bbad"/></linearGradient><linearGradient gradientTransform="matrix(.001 0 0 .0198 32.95 -15.4)" gradientUnits="userSpaceOnUse" id="E" spreadMethod="pad" x1="-819.2" x2="819.2"><stop offset="0" stop-color="#bfb1a2"/><stop offset=".498" stop-color="#e4e1de"/><stop offset=".988" stop-color="#c7bbad"/></linearGradient><linearGradient gradientTransform="matrix(.0005 -.0012 .0064 .0029 21.25 -14.3)" gradientUnits="userSpaceOnUse" id="F" spreadMethod="pad" x1="-819.2" x2="819.2"><stop offset="0" stop-color="#bfb1a2"/><stop offset=".498" stop-color="#e4e1de"/><stop offset=".988" stop-color="#c7bbad"/></linearGradient><linearGradient xlink:href="#s" id="a" gradientUnits="userSpaceOnUse" gradientTransform="matrix(.0005 -.0012 .0064 .0029 21.25 -14.3)" x1="-819.2" x2="819.2" spreadMethod="pad"/><linearGradient xlink:href="#t" id="b" gradientUnits="userSpaceOnUse" gradientTransform="matrix(.0007 .0012 -.0034 .0019 -22.2 -12.75)" x1="-819.2" x2="819.2" spreadMethod="pad"/><linearGradient xlink:href="#u" id="g" gradientUnits="userSpaceOnUse" gradientTransform="matrix(.0011 0 0 .0247 -28.75 -7.25)" x1="-819.2" x2="819.2" spreadMethod="pad"/><linearGradient xlink:href="#v" id="h" gradientUnits="userSpaceOnUse" gradientTransform="matrix(.0011 0 0 .0247 -28.75 -15)" x1="-819.2" x2="819.2" spreadMethod="pad"/><linearGradient xlink:href="#w" id="i" gradientUnits="userSpaceOnUse" gradientTransform="matrix(.0011 0 0 .0247 -28.75 -8.45)" x1="-819.2" x2="819.2" spreadMethod="pad"/><linearGradient xlink:href="#x" id="j" gradientUnits="userSpaceOnUse" gradientTransform="matrix(.0016 0 0 .0197 -.7 3.2)" x1="-819.2" x2="819.2" spreadMethod="pad"/><linearGradient xlink:href="#y" id="k" gradientUnits="userSpaceOnUse" gradientTransform="matrix(.0016 0 0 .0197 -.7 -3.3)" x1="-819.2" x2="819.2" spreadMethod="pad"/><linearGradient xlink:href="#z" id="l" gradientUnits="userSpaceOnUse" gradientTransform="matrix(.001 0 0 .0198 32.95 -13.35)" x1="-819.2" x2="819.2" spreadMethod="pad"/><linearGradient xlink:href="#A" id="m" gradientUnits="userSpaceOnUse" gradientTransform="matrix(.001 0 0 .0198 32.95 -16.6)" x1="-819.2" x2="819.2" spreadMethod="pad"/><linearGradient xlink:href="#B" id="n" gradientUnits="userSpaceOnUse" gradientTransform="matrix(.0016 0 0 .0197 -.7 -4.5)" x1="-819.2" x2="819.2" spreadMethod="pad"/><linearGradient xlink:href="#C" id="o" gradientUnits="userSpaceOnUse" gradientTransform="matrix(.001 0 0 .0198 32.95 -13.35)" x1="-819.2" x2="819.2" spreadMethod="pad"/><linearGradient xlink:href="#D" id="p" gradientUnits="userSpaceOnUse" gradientTransform="matrix(.001 0 0 .0198 32.95 -16.6)" x1="-819.2" x2="819.2" spreadMethod="pad"/><linearGradient xlink:href="#E" id="q" gradientUnits="userSpaceOnUse" gradientTransform="matrix(.001 0 0 .0198 32.95 -15.4)" x1="-819.2" x2="819.2" spreadMethod="pad"/><linearGradient xlink:href="#F" id="r" gradientUnits="userSpaceOnUse" gradientTransform="matrix(.0005 -.0012 .0064 .0029 21.25 -14.3)" x1="-819.2" x2="819.2" spreadMethod="pad"/><radialGradient cx="0" cy="0" gradientTransform="matrix(-.0195 .0422 -.039 -.018 -2.1 -30.45)" gradientUnits="userSpaceOnUse" id="G" r="819.2" spreadMethod="pad"><stop offset="0" stop-color="#9a6030"/><stop offset=".498" stop-color="#d39c78"/><stop offset=".988" stop-color="#9d6333"/></radialGradient><radialGradient cx="0" cy="0" gradientTransform="matrix(.0264 .0287 -.0391 .036 -.4 -30.8)" gradientUnits="userSpaceOnUse" id="H" r="819.2" spreadMethod="pad"><stop offset="0" stop-color="#9a6030"/><stop offset=".498" stop-color="#d39c78"/><stop offset=".988" stop-color="#9d6333"/></radialGradient><radialGradient cx="0" cy="0" gradientTransform="matrix(.0105 .0311 -.0244 .0082 -11.65 -20.2)" gradientUnits="userSpaceOnUse" id="I" r="819.2" spreadMethod="pad"><stop offset="0" stop-color="#9a6030"/><stop offset=".498" stop-color="#d39c78"/><stop offset=".988" stop-color="#9d6333"/></radialGradient><radialGradient cx="0" cy="0" gradientTransform="matrix(-.0195 .0422 -.039 -.018 1.3 -32.15)" gradientUnits="userSpaceOnUse" id="J" r="819.2" spreadMethod="pad"><stop offset="0" stop-color="#9a6030"/><stop offset=".498" stop-color="#d39c78"/><stop offset=".988" stop-color="#9d6333"/></radialGradient><radialGradient xlink:href="#G" id="c" gradientUnits="userSpaceOnUse" gradientTransform="matrix(-.0195 .0422 -.039 -.018 -2.1 -30.45)" cx="0" cy="0" r="819.2" spreadMethod="pad"/><radialGradient xlink:href="#H" id="d" gradientUnits="userSpaceOnUse" gradientTransform="matrix(.0264 .0287 -.0391 .036 -.4 -30.8)" cx="0" cy="0" r="819.2" spreadMethod="pad"/><radialGradient xlink:href="#I" id="e" gradientUnits="userSpaceOnUse" gradientTransform="matrix(.0105 .0311 -.0244 .0082 -11.65 -20.2)" cx="0" cy="0" r="819.2" spreadMethod="pad"/><radialGradient xlink:href="#J" id="f" gradientUnits="userSpaceOnUse" gradientTransform="matrix(-.0195 .0422 -.039 -.018 1.3 -32.15)" cx="0" cy="0" r="819.2" spreadMethod="pad"/></defs></svg>