<svg xmlns="http://www.w3.org/2000/svg" xmlns:xlink="http://www.w3.org/1999/xlink" height="62.4" width="36.55"><path d="m35.95 46.75.2.1-.2.1v-.2M4.4 56.4l.15-.05-.15.05m9.35-22.65.2.1-.2.1v-.2" fill="#666" fill-opacity=".502" fill-rule="evenodd"/><path d="M13.75 34.5v-.05l.95-.45-.95.5" fill="#a38c7e" fill-rule="evenodd"/><path d="m35.9 44.25.05 2.15v.55L36 48.3l.05.15q0 .25-.65.45l-1.55.2-1.6-.2-.15-.05-.5-.4.1-.15v-1.95l.05-2.05h.05l.4.2h.05l1.55.2 1.45-.15.1-.05.45-.2.1-.05M8.2 57.05l.1 4 .1.2q0 .2-.65.4l-1.6.25-1.55-.25-.55-.2-.1-.2.05-.2.05-4 .5.2 1.55.25 1.6-.25.5-.2" fill="#614b49" fill-rule="evenodd"/><path d="M4.05 43.55v-.25h.35l-.05.3h-.2l-.1-.05m3.5-.25h.65l-.65.35v-.35" fill="#bb7648" fill-rule="evenodd"/><path d="M4.35 43.6v.1l-.2-.1h.2" fill="#a3693b" fill-rule="evenodd"/><path d="M-40.1-35.1v-16.95l.65-1.55.75-.95.35-.3.2-.15.1-.1.15-.1.7-.35.2-.1.45-.3 22.35-11.6 1.85-.65v.4h1.6l.3.2c.533.4.85.883.95 1.45l.05 6.95h-.05v.65l.05 7.55.05 10.55h-2.95v1.15l-.05-.2v-7.25l-5.05 2.55-4.2 2.2-1.05.5h-.2l-.1-.05-.75-.35v.4h-.6v.85l-.3.15-2.8 1.45-1.8 1-.15.05-7 3.65-.15.05-.6.8-.05.05.05 4.85h-2.9v2.35l-.05-.05.05-2.3v-1.2l-.05-5.3m17.25-25.15c-3.667 1.933-7.35 3.85-11.05 5.75l-.75.4-.25.15-1.75.9-.2.1-.2.3-.15.2h-.1v1.5l.05 3.6v3.1l.05 7.1h.85l13.75-7.15.35-.2-.35.2.05-.05.3-.15.95-.5.3-.15.5-.25 6.95-3.5 1-.65.05-.4.2-.6v-.05l-.05-14.3v-.75l-.95.5-2.35 1.2-1.7.9-.5.25.45-.25v-.05l-6.35 3.25v.05h.05l.85-.45m10.5 19.8-.05.5.05-.5m-8.55-3.1 1 .45-.7-.4-.3-.05M-40.05-28.6v-1.2 1.2" fill="url(#a)" fill-rule="evenodd" transform="translate(44.6 69)"/><path d="m-37.25-47.35-.05-3.6.1-.05h.05l.05 6h-.1l-.05-2.35" fill="url(#b)" fill-rule="evenodd" transform="translate(44.6 69)"/><path d="m-37.05-52.65.2-.3.2-.1 1.75-.9.25-.15.75-.4q5.55-2.85 11.05-5.75l5.5-2.8 1.7-.9 2.35-1.2.95-.5v.75l.05 14.3-.05.1h-.05l-.05.15-.05.4-.05.4-1 .65-6.95 3.5-.5.25-.3.15-1.25.6-.1.05-13.8 7.2h-.65l-.1-7.1V-45h.1l-.05-6-.05-1.3.2-.1-.05-.25m.25 15.5-.05-15.35 24.5-12.8-24.5 12.8.05 15.35" fill="url(#c)" fill-rule="evenodd" transform="translate(44.6 69)"/><path d="M-9.45-68.75h-.1V-69h.1v.25" fill="url(#d)" fill-rule="evenodd" transform="translate(44.6 69)"/><path d="M-10.75-67.8h1.3l.05 2.75v4.45l.05 1.4h-.1l-.05-6.95.1 1.1-.1-1.1q-.15-.85-.95-1.45l-.3-.2m1.35 7.2v1.4-1.4" fill="url(#e)" fill-rule="evenodd" transform="translate(44.6 69)"/><path d="M-12.35-68.2q.9 0 1.6.4h-1.6v-.4" fill="url(#f)" fill-rule="evenodd" transform="translate(44.6 69)"/><path d="M-9.45-59.2h.05v.65h-.1v-.65h.05" fill="url(#g)" fill-rule="evenodd" transform="translate(44.6 69)"/><path d="m-9.4-58.55.05 6.45.05 2.15h-.05v-2.15 2.15h-.05L-9.45-51l-.05-7.55h.1" fill="url(#h)" fill-rule="evenodd" transform="translate(44.6 69)"/><path d="m-9.35-25.45.05.05h.05l.6.3.05.15-.1.2-.1.05-.45.2-.1.05-1.45.15-1.55-.2h-.05l-.4-.2h-.05l-.2-.25.1-.15.05-.05.4-.2.15-.05v-9.85Q-24.7-28.9-37.05-22.6v9.95h.15l.55.3.1.2-.15.2-.5.2-1.6.25-1.55-.25-.5-.2-.15-.2.05-.2h.05l.05-.05.35-.2.15-.05v-9.55l-.5-.25v-3l.1.05.2.1.2.1v-3.4h2.95l.05 1.85v1.4l.65-.35 13.3-6.9 8.45-4.3 1.7-1.1.15-.1.2-.1.2-.7.05.05v-1.6h3v15" fill="url(#i)" fill-rule="evenodd" transform="translate(44.6 69)"/><path d="m-17.45-44.2.1.05-5.2 2.65h-.1l1-.5-1 .5h-.05l1.05-.5 4.2-2.2m-6.9 3.55v.05l-.3.15.3-.15-.3.15v-.05l.3-.15" fill="url(#j)" fill-rule="evenodd" transform="translate(44.6 69)"/><path d="M-12.8-38.1v-.95l.3.1.1.05-.2.7-.2.1.3-.85-.3.85" fill="url(#k)" fill-rule="evenodd" transform="translate(44.6 69)"/><path d="M-14.2-28.6h-.05v.25l-.05.05v-2.5h.1v2.2" fill="url(#l)" fill-rule="evenodd" transform="translate(44.6 69)"/><path d="M-14.25-28.35v-.25h.1v1.15l-.1.05v-.95" fill="url(#m)" fill-rule="evenodd" transform="translate(44.6 69)"/><path d="m-20.9-43.55.3.05.7.4-1-.45" fill="url(#n)" fill-rule="evenodd" transform="translate(44.6 69)"/><path d="m-24.35-40.6-3.1 1.65v-.1l2.8-1.45v.05l-2.8 1.45 2.8-1.45.3-.15" fill="url(#o)" fill-rule="evenodd" transform="translate(44.6 69)"/><path d="M-23-41.55v.05h-.75v-.4l.75.35" fill="url(#p)" fill-rule="evenodd" transform="translate(44.6 69)"/><path d="M-37.25-44.25V-45h.05v.75h-.05" fill="url(#q)" fill-rule="evenodd" transform="translate(44.6 69)"/><path d="M-37.1-37.15h-.1l-.05-7.1h.05l.1 7.1" fill="url(#r)" fill-rule="evenodd" transform="translate(44.6 69)"/><path d="m-30.8-35.45-.05.15v-.3l.05.15" fill="url(#s)" fill-rule="evenodd" transform="translate(44.6 69)"/><path d="m-8.65-22.6.05.15-.05.15v-.3m-4.25.35-.15-.2.1-.15.05-.05v.4" fill="url(#t)" fill-rule="evenodd" transform="translate(44.6 69)"/><path d="M4.5 33.9V16.95l.65-1.55.75-.95.35-.3.2-.15.1-.1.15-.1.7-.35.2-.1.45-.3L30.4 1.45 32.25.8q.9 0 1.6.4l.3.2q.8.6.95 1.45m.15 40.7.05.05h.05l.6.3.05.15-.1.2.05 2.15v.55L36 48.3l.05.15q0 .25-.65.45l-1.55.2-1.6-.2-.15-.05-.5-.4.1-.15v-1.95l.05-2.05-.2-.25.1-.15.05-.05.4-.2.1-.05h.05v-9.85Q19.9 40.1 7.55 46.4v9.95h.15l.55.3.1.2-.15.2.1 4 .1.2q0 .2-.65.4l-1.6.25-1.55-.25-.55-.2-.1-.2.05-.2.05-4-.15-.2.05-.2H4l.05-.05.35-.2.15-.05V46.8l-.5-.25m.35-3.25-.05.3v.1l.2.1v-1.05M32.25 4.1l.05 14.3v.05l-.2.6-.05.4-1 .65-6.95 3.5-.5.25m-15.35 8h-.1m23.95-12.8.05-.4.05-.15h.05l.05-.1m0 .05-.05.05-.1.15M15.2 31l-7 3.65-.15.05m.15 8.6 13.3-6.9L31.65 31m.45-.95.1-1v-6.8l-5.05 2.55m4.95 5.25.1.05.05.05v-.45m-.05-.55v-.1l.05-.5v1.15M32 30.8l-.2.1m.3 12.75.15-.05m-27.7-3.2v2.35m-.4.85.2.1m.05 12.7.15-.05m3.65.7-.5.2-1.6.25-1.55-.25-.5-.2m31.85-12.8-.1.05-.45.2-.1.05-1.45.15-1.55-.2h-.05l-.4-.2h-.05m-27.7-.75.1.05" fill="none" stroke="#000" stroke-linecap="round" stroke-linejoin="round"/><path d="M35.2 3.95V8.4m0 1.4v.65l.05 6.45m0 2.15v24.5M4.55 39.2l-.05-5.3m19.1-10.05-.3.15-.95.5-.35.2-13.75 7.15m-.1 0H7.8m27.3-29 .1 1.1m0 5.85V8.4m.05 10.65V16.9m-3-13.2L7.75 16.5l.05 15.35m19.35-7.05-4.2 2.2-1 .5-1.7.9-.3.15M17.15 30l-1.95 1m-7.15 3.7.15 8.6m23.6-12.4.3-.85M17.15 30l2.8-1.45M4.55 39.2v1.2" fill="none" stroke="#333" stroke-linecap="round" stroke-linejoin="round"/><defs><linearGradient gradientTransform="matrix(.0337 0 0 .0341 -36.25 -40.3)" gradientUnits="userSpaceOnUse" id="u" spreadMethod="pad" x1="-819.2" x2="819.2"><stop offset="0" stop-color="#bfb1a2"/><stop offset=".498" stop-color="#ddd8d3"/><stop offset=".988" stop-color="#bfb1a2"/></linearGradient><linearGradient gradientTransform="matrix(.001 0 0 .0198 -38.55 -55)" gradientUnits="userSpaceOnUse" id="v" spreadMethod="pad" x1="-819.2" x2="819.2"><stop offset="0" stop-color="#bfb1a2"/><stop offset=".498" stop-color="#e4e1de"/><stop offset=".988" stop-color="#c7bbad"/></linearGradient><linearGradient gradientTransform="matrix(.0153 0 0 .0174 -22.5 -52.4)" gradientUnits="userSpaceOnUse" id="w" spreadMethod="pad" x1="-819.2" x2="819.2"><stop offset="0" stop-color="#a16839"/><stop offset=".498" stop-color="#c98261"/><stop offset=".988" stop-color="#a16839"/></linearGradient><linearGradient gradientTransform="matrix(.001 0 0 .0198 -10.8 -65.95)" gradientUnits="userSpaceOnUse" id="x" spreadMethod="pad" x1="-819.2" x2="819.2"><stop offset="0" stop-color="#bfb1a2"/><stop offset=".498" stop-color="#e4e1de"/><stop offset=".988" stop-color="#c7bbad"/></linearGradient><linearGradient gradientTransform="matrix(.001 0 0 .0198 -10.8 -69.2)" gradientUnits="userSpaceOnUse" id="y" spreadMethod="pad" x1="-819.2" x2="819.2"><stop offset="0" stop-color="#bfb1a2"/><stop offset=".498" stop-color="#e4e1de"/><stop offset=".988" stop-color="#c7bbad"/></linearGradient><linearGradient gradientTransform="matrix(.001 0 0 .0198 -10.8 -68)" gradientUnits="userSpaceOnUse" id="z" spreadMethod="pad" x1="-819.2" x2="819.2"><stop offset="0" stop-color="#bfb1a2"/><stop offset=".498" stop-color="#e4e1de"/><stop offset=".988" stop-color="#c7bbad"/></linearGradient><linearGradient gradientTransform="matrix(.001 0 0 .0198 -10.75 -58.75)" gradientUnits="userSpaceOnUse" id="A" spreadMethod="pad" x1="-819.2" x2="819.2"><stop offset="0" stop-color="#bfb1a2"/><stop offset=".498" stop-color="#e4e1de"/><stop offset=".988" stop-color="#c7bbad"/></linearGradient><linearGradient gradientTransform="matrix(.001 0 0 .0198 -10.75 -59.95)" gradientUnits="userSpaceOnUse" id="B" spreadMethod="pad" x1="-819.2" x2="819.2"><stop offset="0" stop-color="#bfb1a2"/><stop offset=".498" stop-color="#e4e1de"/><stop offset=".988" stop-color="#c7bbad"/></linearGradient><linearGradient gradientTransform="matrix(.0337 0 0 .0341 -36.2 -39.4)" gradientUnits="userSpaceOnUse" id="C" spreadMethod="pad" x1="-819.2" x2="819.2"><stop offset="0" stop-color="#bfb1a2"/><stop offset=".498" stop-color="#ddd8d3"/><stop offset=".988" stop-color="#bfb1a2"/></linearGradient><linearGradient gradientTransform="matrix(.0007 .0012 -.0034 .0019 -22.25 -42.25)" gradientUnits="userSpaceOnUse" id="D" spreadMethod="pad" x1="-819.2" x2="819.2"><stop offset="0" stop-color="#bfb1a2"/><stop offset=".498" stop-color="#e4e1de"/><stop offset=".988" stop-color="#c7bbad"/></linearGradient><linearGradient gradientTransform="matrix(.0138 0 0 .0065 -23.7 -42.35)" gradientUnits="userSpaceOnUse" id="E" spreadMethod="pad" x1="-819.2" x2="819.2"><stop offset="0" stop-color="#bfb1a2"/><stop offset=".498" stop-color="#e4e1de"/><stop offset=".988" stop-color="#c7bbad"/></linearGradient><linearGradient gradientTransform="matrix(.0007 .0012 -.0034 .0019 -14.5 -28.8)" gradientUnits="userSpaceOnUse" id="F" spreadMethod="pad" x1="-819.2" x2="819.2"><stop offset="0" stop-color="#bfb1a2"/><stop offset=".498" stop-color="#e4e1de"/><stop offset=".988" stop-color="#c7bbad"/></linearGradient><linearGradient gradientTransform="matrix(.0007 .0012 -.0034 .0019 -14.45 -27.9)" gradientUnits="userSpaceOnUse" id="G" spreadMethod="pad" x1="-819.2" x2="819.2"><stop offset="0" stop-color="#bfb1a2"/><stop offset=".498" stop-color="#e4e1de"/><stop offset=".988" stop-color="#c7bbad"/></linearGradient><linearGradient gradientTransform="matrix(.0007 .0012 -.0034 .0019 -20.6 -43.15)" gradientUnits="userSpaceOnUse" id="H" spreadMethod="pad" x1="-819.2" x2="819.2"><stop offset="0" stop-color="#bfb1a2"/><stop offset=".498" stop-color="#e4e1de"/><stop offset=".988" stop-color="#c7bbad"/></linearGradient><linearGradient gradientTransform="matrix(.0007 .0012 -.0034 .0019 -26.3 -40.15)" gradientUnits="userSpaceOnUse" id="I" spreadMethod="pad" x1="-819.2" x2="819.2"><stop offset="0" stop-color="#bfb1a2"/><stop offset=".498" stop-color="#e4e1de"/><stop offset=".988" stop-color="#c7bbad"/></linearGradient><linearGradient gradientTransform="matrix(.0007 .0012 -.0034 .0019 -24.65 -41.05)" gradientUnits="userSpaceOnUse" id="J" spreadMethod="pad" x1="-819.2" x2="819.2"><stop offset="0" stop-color="#bfb1a2"/><stop offset=".498" stop-color="#e4e1de"/><stop offset=".988" stop-color="#c7bbad"/></linearGradient><linearGradient gradientTransform="matrix(.001 0 0 .0198 -38.55 -44.45)" gradientUnits="userSpaceOnUse" id="K" spreadMethod="pad" x1="-819.2" x2="819.2"><stop offset="0" stop-color="#bfb1a2"/><stop offset=".498" stop-color="#e4e1de"/><stop offset=".988" stop-color="#c7bbad"/></linearGradient><linearGradient gradientTransform="matrix(.001 0 0 .0198 -38.55 -45.65)" gradientUnits="userSpaceOnUse" id="L" spreadMethod="pad" x1="-819.2" x2="819.2"><stop offset="0" stop-color="#bfb1a2"/><stop offset=".498" stop-color="#e4e1de"/><stop offset=".988" stop-color="#c7bbad"/></linearGradient><linearGradient gradientTransform="matrix(.001 0 0 .0198 -33 -51)" gradientUnits="userSpaceOnUse" id="M" spreadMethod="pad" x1="-819.2" x2="819.2"><stop offset="0" stop-color="#bfb1a2"/><stop offset=".498" stop-color="#e4e1de"/><stop offset=".988" stop-color="#c7bbad"/></linearGradient><linearGradient gradientTransform="matrix(.001 0 0 .0198 -10.8 -38)" gradientUnits="userSpaceOnUse" id="N" spreadMethod="pad" x1="-819.2" x2="819.2"><stop offset="0" stop-color="#bfb1a2"/><stop offset=".498" stop-color="#e4e1de"/><stop offset=".988" stop-color="#c7bbad"/></linearGradient><linearGradient xlink:href="#u" id="a" gradientUnits="userSpaceOnUse" gradientTransform="matrix(.0337 0 0 .0341 -36.25 -40.3)" x1="-819.2" x2="819.2" spreadMethod="pad"/><linearGradient xlink:href="#v" id="b" gradientUnits="userSpaceOnUse" gradientTransform="matrix(.001 0 0 .0198 -38.55 -55)" x1="-819.2" x2="819.2" spreadMethod="pad"/><linearGradient xlink:href="#w" id="c" gradientUnits="userSpaceOnUse" gradientTransform="matrix(.0153 0 0 .0174 -22.5 -52.4)" x1="-819.2" x2="819.2" spreadMethod="pad"/><linearGradient xlink:href="#x" id="d" gradientUnits="userSpaceOnUse" gradientTransform="matrix(.001 0 0 .0198 -10.8 -65.95)" x1="-819.2" x2="819.2" spreadMethod="pad"/><linearGradient xlink:href="#y" id="e" gradientUnits="userSpaceOnUse" gradientTransform="matrix(.001 0 0 .0198 -10.8 -69.2)" x1="-819.2" x2="819.2" spreadMethod="pad"/><linearGradient xlink:href="#z" id="f" gradientUnits="userSpaceOnUse" gradientTransform="matrix(.001 0 0 .0198 -10.8 -68)" x1="-819.2" x2="819.2" spreadMethod="pad"/><linearGradient xlink:href="#A" id="g" gradientUnits="userSpaceOnUse" gradientTransform="matrix(.001 0 0 .0198 -10.75 -58.75)" x1="-819.2" x2="819.2" spreadMethod="pad"/><linearGradient xlink:href="#B" id="h" gradientUnits="userSpaceOnUse" gradientTransform="matrix(.001 0 0 .0198 -10.75 -59.95)" x1="-819.2" x2="819.2" spreadMethod="pad"/><linearGradient xlink:href="#C" id="i" gradientUnits="userSpaceOnUse" gradientTransform="matrix(.0337 0 0 .0341 -36.2 -39.4)" x1="-819.2" x2="819.2" spreadMethod="pad"/><linearGradient xlink:href="#D" id="j" gradientUnits="userSpaceOnUse" gradientTransform="matrix(.0007 .0012 -.0034 .0019 -22.25 -42.25)" x1="-819.2" x2="819.2" spreadMethod="pad"/><linearGradient xlink:href="#E" id="k" gradientUnits="userSpaceOnUse" gradientTransform="matrix(.0138 0 0 .0065 -23.7 -42.35)" x1="-819.2" x2="819.2" spreadMethod="pad"/><linearGradient xlink:href="#F" id="l" gradientUnits="userSpaceOnUse" gradientTransform="matrix(.0007 .0012 -.0034 .0019 -14.5 -28.8)" x1="-819.2" x2="819.2" spreadMethod="pad"/><linearGradient xlink:href="#G" id="m" gradientUnits="userSpaceOnUse" gradientTransform="matrix(.0007 .0012 -.0034 .0019 -14.45 -27.9)" x1="-819.2" x2="819.2" spreadMethod="pad"/><linearGradient xlink:href="#H" id="n" gradientUnits="userSpaceOnUse" gradientTransform="matrix(.0007 .0012 -.0034 .0019 -20.6 -43.15)" x1="-819.2" x2="819.2" spreadMethod="pad"/><linearGradient xlink:href="#I" id="o" gradientUnits="userSpaceOnUse" gradientTransform="matrix(.0007 .0012 -.0034 .0019 -26.3 -40.15)" x1="-819.2" x2="819.2" spreadMethod="pad"/><linearGradient xlink:href="#J" id="p" gradientUnits="userSpaceOnUse" gradientTransform="matrix(.0007 .0012 -.0034 .0019 -24.65 -41.05)" x1="-819.2" x2="819.2" spreadMethod="pad"/><linearGradient xlink:href="#K" id="q" gradientUnits="userSpaceOnUse" gradientTransform="matrix(.001 0 0 .0198 -38.55 -44.45)" x1="-819.2" x2="819.2" spreadMethod="pad"/><linearGradient xlink:href="#L" id="r" gradientUnits="userSpaceOnUse" gradientTransform="matrix(.001 0 0 .0198 -38.55 -45.65)" x1="-819.2" x2="819.2" spreadMethod="pad"/><linearGradient xlink:href="#M" id="s" gradientUnits="userSpaceOnUse" gradientTransform="matrix(.001 0 0 .0198 -33 -51)" x1="-819.2" x2="819.2" spreadMethod="pad"/><linearGradient xlink:href="#N" id="t" gradientUnits="userSpaceOnUse" gradientTransform="matrix(.001 0 0 .0198 -10.8 -38)" x1="-819.2" x2="819.2" spreadMethod="pad"/></defs></svg>