<svg xmlns="http://www.w3.org/2000/svg" xmlns:xlink="http://www.w3.org/1999/xlink" height="182" width="160"><defs><linearGradient xlink:href="#a" id="e" x1="43.469" y1="85.182" x2="127.993" y2="90.451" gradientUnits="userSpaceOnUse" gradientTransform="translate(-.647 1.076)"/><linearGradient id="a"><stop style="stop-color:#a78442;stop-opacity:1" offset="0"/><stop style="stop-color:#d5b168;stop-opacity:1" offset="1"/></linearGradient><path d="M1.35 0h.2l.55.1.45.35q.45.45.45 1L2.55 2.6q-.45.4-1 .4l-.8-.2-.25-.2-.45-.7v-.15L0 1.45v-.1q.05-.5.5-.9l.25-.2Q1 .05 1.3 0h.05m.45.85L1.55.8Q1.2.75 1 1q-.2.15-.2.45v.15l.15.45H1l.05.05.2.1.3.05.55-.2.15-.6-.05-.3L2.1 1 2.05.95 1.9.85h-.1" fill-rule="evenodd" id="b"/><use height="3" transform="translate(.8)" width="3" xlink:href="#b" id="d"/><g id="c"><path d="M.25-60h3.9l1.2.55 3.85-8.6 3.85 8.6L14.3-60l3.15 3.05 1.15 1.1-.4.4.1.1q2.1 2.05 2.35 4.55v.6q0 1.65-.8 3.1l-.25.45-1.4 1.7.1.1-.3.3-3.25.9v4.7l-3.25.7-3.1.9.65 1.6 3.3-1.25 3-.6q1.55 0 2.15.6.8.8.8 2 0 1.1-.75 1.85-1.05 1.05-4.05 1.25l-1.3.05.35 1.5 1.5-.05-.05 2.75-1.5 1.25v12.25l-.85 4.6h-1.5V-3q0 .7-.45 1.15-.55.55-1.6.55-1.1 0-1.65-.55-.4-.45-.4-1.15v-6.55H4.5l-2.35-3.5H.4l-3.55 3.5V-3q0 .7-.45 1.15-.55.55-1.6.55-1.1 0-1.65-.55-.4-.45-.4-1.15v-6.55H-8.8l-1.7-1.1-1.75-3.9v-3.9l.45-.4q.75-.6 1.35-1.55l-1.25-1q-.4.65-.7.95l.4-10.95 1.75-12.8.4.35.75-.7-1-1.1q-1.5-1.9-1.5-4.15l.1-1q.35-2.3 2.4-4.25l-.75-.75.5-3.95.65.3 3.85-8.6 3.85 8.6L.25-60m17.2 3.05 1.15 1.1-1.15-1.1M13.1-43.6l.75-1.55v-1.35h-1.5v1.45h.55l-.55 1.45h.75m-2.9 0 .75-1.55v-1.35h-1.5v1.45H10l-.55 1.45h.75" fill="#fff" fill-rule="evenodd" transform="translate(21.65 71)"/><path d="m.25-60-1.25.55-3.85-8.6-3.85 8.6-.65-.3-.55-.25 5.05-11 5.1 11m-10.1 4.2.75.75q-2.05 1.95-2.4 4.25l-.1 1q0 2.25 1.5 4.15l1 1.1-.75.7-.4-.35-.6-.7q-1.8-2.2-1.8-4.9l.1-1q.3-2.8 2.7-5m-2.55 35.35q.3-.3.7-.95l1.25 1q-.6.95-1.35 1.55l-.45.4q-.7.45-1.6.45-.95 0-2.65-1.1-1.15-.65-1.9-.65-.85 0-1.3.55l-.6.95-1.35-.75 1.2-1.65q.85-.8 1.95-.8t2.25.8q1.65.85 2.55.85.65 0 1.3-.65m3.6 10.9h1.55V-3q0 .7.4 1.15.55.55 1.65.55 1.05 0 1.6-.55.45-.45.45-1.15v-6.55h1.5v6.6q0 1.25-.8 2.05-.9.9-2.75.9Q-7.1 0-8-.9q-.8-.8-.8-2.05v-6.6m13.3 0h1.55V-3q0 .7.4 1.15.55.55 1.65.55 1.05 0 1.6-.55.45-.45.45-1.15v-6.55h1.5v6.6q0 1.25-.8 2.05-.9.9-2.75.9-1.9 0-2.8-.9-.8-.8-.8-2.05v-6.6m9.55-20.85-1.5.05-.35-1.5 1.3-.05q3-.2 4.05-1.25.75-.75.75-1.85 0-1.2-.8-2-.6-.6-2.15-.6l-3 .6-3.3 1.25-.65-1.6 3.1-.9 3.25-.7.75-.05q2.2 0 3.25 1.05 1.1 1.05 1.1 2.85 0 1.85-1 2.85l-.4.35q-1.55 1.2-4.4 1.5m4.25-14.45-.1-.1 1.4-1.7.25-.45q.8-1.45.8-3.1v-.6q-.25-2.5-2.35-4.55l-.1-.1.4-.4.3-.35q2.55 2.35 2.8 5.4v.6q0 1.9-.9 3.55-.7 1.25-1.9 2.4l-.6-.6M14.3-60l-1.25.55-3.85-8.6-3.85 8.6-1.2-.55L9.2-71l5.1 11m-4.1 16.4h-.75l.55-1.45h-.55v-1.45h1.5v1.35l-.75 1.55m2.9 0h-.75l.55-1.45h-.55v-1.45h1.5v1.35l-.75 1.55" fill-rule="evenodd" transform="translate(21.65 71)"/><path d="M4.15-60H.25M12.5-14.15V-26.4m6.1-29.45-1.15-1.1" fill="none" stroke="#000" stroke-linecap="round" stroke-linejoin="round" transform="translate(21.65 71)"/></g></defs><g transform="matrix(2 0 0 2 79.641 142)"><use height="71" transform="translate(-21.65 -71)" width="43.35" xlink:href="#c"/><use height="3" transform="translate(13.35 -56.7)" width="4.65" xlink:href="#d"/></g><path style="fill:url(#e);fill-opacity:1;stroke:#d2ad65;stroke-width:0;stroke-miterlimit:4;stroke-dasharray:none" d="M50.21 103.682c-1.794-1.163-3.953-3.09-4.98-4.442-1.069-1.41-2.618-4.612-3.722-7.695l-.907-2.532v-1.978c0-2.308.176-3.135 1.634-7.668.828-2.571 1.068-3.611 1.682-7.279.394-2.353.962-5.237 1.261-6.409.521-2.038.547-2.272.6-5.459.046-2.76.127-3.722.476-5.624.8-4.372.96-4.744 2.158-5.067 1.159-.313 3.223.408 5.523 1.929l1.252.828 8.707 2.735c.508.16 2.046 8.716 1.516 9.81-2.6 5.362-7.162 8.39-7.799 13.29-.213 1.643-3.593.129-3.528 5.32.084 6.677 11.192 9.828 12.437 19.075.512 3.805-4.729 2.638-4.513 5.781.047.675-10.316-3.697-10.34-3.697-.022 0-.678-.413-1.457-.918zm71.44 31.349c-1.132-.192-5.898-1.387-6.788-1.702-1.269-.45-3.39-.95-5.367-1.264-2.307-.368-10.756-1.197-12.206-1.197-3.786-.001-6.422-.692-11.475-3.008-2.434-1.115-5.46-2.095-8.051-2.606-1.172-.231-3.73-.805-5.684-1.275-6.023-1.448-9.04-1.864-12.941-1.786-2.12.043-2.355.018-3.116-.324-.981-.442-2.065-1.553-2.656-2.722-.993-1.964-1.247-5.188-.766-9.706.454-4.263.196-8.592-1.039-17.42-.941-6.732-1.008-7.654-1.017-14.084-.01-6.587.083-7.641 1.003-11.4.82-3.356 2.266-7.308 3.817-10.438.43-.87.854-1.895.94-2.278.087-.383.298-.893.47-1.135l.31-.438-.373-.295c-.288-.227-.451-.649-.712-1.837-.402-1.833-.425-2.733-.091-3.57.223-.558.332-.64 1.144-.864 2.795-.767 6.794-.756 10.538.03 2.468.518 3.267.74 7.489 2.078 1.606.509 3.91 1.186 5.12 1.505 4.195 1.105 7.466 2.43 9.325 3.777 1.335.967 2.847 2.593 3.47 3.732 1.414 2.587 3.192 4.066 5.65 4.7.803.207 1.318.229 2.8.118 3.005-.226 6.77-.13 9.472.243 1.346.185 3.548.445 4.894.576 3.407.333 3.437.34 3.74.802.255.39.236.485-.59 2.88-.84 2.435-.855 2.513-.913 4.581-.07 2.494.123 4.662.755 8.505.256 1.557.443 2.854.415 2.881-.027.028-.167-.13-.311-.35-.319-.488.849 2.202.377 1.783l-1.71-1.52.736.922c.988 1.237 1.365 2.047 1.657 3.557.135.696.46 2.298.72 3.56.803 3.868.97 5.405 1.125 10.294.218 6.934.6 9.907 2.305 17.952 2.037 9.618 2.692 13.382 2.523 14.51-.248 1.659-1.238 2.348-3.33 2.318-.695-.01-1.44-.048-1.658-.085z"/><path style="fill:none;stroke:#000;stroke-width:2;stroke-linecap:butt;stroke-linejoin:miter;stroke-miterlimit:4;stroke-dasharray:none;stroke-opacity:1" d="M56.48 46.251c7.33-2.347 14.846.417 21.795 2.69 5.454 1.39 11.331 2.658 14.86 7.525 1.855 4.04 4.992 5.972 9.506 5.034 4.845-.508 9.558.765 14.367 1.075 5.826-.035.648 4.767 1.194 8.138-.326 5.33 1.283 10.508 1.807 15.773 1.174 4.759 2.046 9.577 1.926 14.502-.075 10.162 3.402 19.894 4.735 29.866.45 6.654-7.659 3.269-11.368 2.578-5.258-2.038-10.879-2.008-16.398-2.716-4.178.108-8.33-.553-12.07-2.51-3.628-1.85-7.542-2.939-11.543-3.542-5.59-1.42-11.264-2.97-17.04-2.387-5.891-.544-6.249-7.744-5.671-12.283 1.493-10.853-2.679-21.517-1.888-32.388-.661-7.561 1.746-14.892 4.967-21.618 2.297-3.139-1.57-6.824.822-9.737z"/><path style="fill:none;stroke:#000;stroke-width:2;stroke-linecap:butt;stroke-linejoin:miter;stroke-miterlimit:4;stroke-dasharray:none;stroke-opacity:1" d="M57.257 53.392c4.454-1.073 8.916.285 12.575 2.787 3.502 1.365 7.124 3.107 10.11 5.679 4.023 2.276 9.187.98 13.633.929 1.515.4 1.874-1.978 3.074-2.099m0 0c.876 4.299 4.894 7.027 6.067 11.199.114 1.884 1.479 3.705 3.405 3.993 1.387.255 3.689-.304 4.85-1.075 2.442-1.041 2.377 2.527 3.562 4.079.824 1.154 1.764 2.294 2.932 3.081.03.248.195.418.335.612M57.257 53.392c-2.462-1.843-7.782-5.825-9.963-2.434-.931 4.213-1.784 8.506-1.279 12.833-1.282 3.916-1.763 7.86-2.42 11.97-1.135 4.881-4.15 9.91-2.126 14.997 1.405 3.965 2.773 8.096 6.25 10.966 1.57 1.556 3.378 2.497 5.191 3.673"/><path style="fill:none;stroke:#000;stroke-width:2;stroke-linecap:butt;stroke-linejoin:miter;stroke-opacity:1;stroke-miterlimit:4;stroke-dasharray:none" d="M119.314 66.16c5.048-.635 8.211 4.23 7.041 8.685-1.459 3.263-3.428 5.312-7.313 4.783"/><path style="fill:none;stroke:#000;stroke-width:1px;stroke-linecap:butt;stroke-linejoin:miter;stroke-opacity:1" d="M117.576 81.868c.92.839 1.655 1.92 2.14 3.018"/><path style="fill:none;stroke:#000;stroke-width:2;stroke-linecap:butt;stroke-linejoin:miter;stroke-miterlimit:4;stroke-dasharray:none;stroke-opacity:1" d="M51.11 88.509c3.093 2.083 7.753 3.397 11.058 5.553 5.652 2.178 11.93 1.543 17.789 2.906 5.83.957 11.741.164 17.61.688 7.968.022 16.378.766 23.85-2.396m-16.027 10.46c.741-.018.577-.018 1.318-.045 3.554-.134 7.007.228 10.655-.548 2.034-.028 2.605-.399 4.629.115m-69.51-8.006c5.747 3.044 11.525 6.722 18.223 6.925 4.313.234 8.55.446 12.85.817 5.941-.504 11.817 1.362 17.748.94.697-.05.29-.108.961-.15m9.055-18.631c-5.523-1.616-5.923 6.644-.376 6.11 4.212.716 3.821-5.763.161-6.236-.112.003-1.088-.422-1.102.126M48.31 50.473c-3.41-3.73-8.645.087-7.083 4.612-.292 2.814 1.893 7.1 5.108 7.244"/><path style="fill:#fff;stroke:#d2ad65;stroke-width:0;stroke-miterlimit:4;stroke-dasharray:none" d="M119.473 79.104c-.094-.154-.407-2.246-.58-3.876-.087-.82-.159-2.429-.16-3.576 0-2.222.054-2.561.684-4.226l.27-.714.567-.033c1.284-.075 2.771.55 3.868 1.625 1.048 1.027 1.636 2.24 1.852 3.82.168 1.223.007 2.217-.533 3.29-.882 1.753-2.039 2.924-3.39 3.43-.666.249-2.474.431-2.578.26zM44.68 61.213c-1.612-1.077-2.718-3.145-2.901-5.423-.051-.634-.147-1.4-.213-1.701-.243-1.105.228-2.591 1.095-3.458 1.162-1.161 3.07-1.429 4.258-.597.24.169.24.17.028.465-.226.315-.942 3.664-1.26 5.895-.21 1.483-.39 3.5-.39 4.418-.001.378-.044.686-.096.686-.052 0-.286-.128-.521-.285z"/><path style="fill:none;stroke:#000;stroke-width:2;stroke-linecap:butt;stroke-linejoin:miter;stroke-miterlimit:4;stroke-dasharray:none;stroke-opacity:1" d="M101.81 97.48c.104 1.552.286 3.102.311 4.657.035 2.132.012 4.887-.31 7.141-.09.635 0 1.383 0 2.018v4.658l.077 14.825m3.338-32.833c.065 10.513.887 20.486.868 31.233-.107.547.047 1.474-.17 1.988"/></svg>