<?xml version="1.0" encoding="iso-8859-1"?>
<!-- Generator: Adobe Illustrator 15.1.0, SVG Export Plug-In . SVG Version: 6.00 Build 0)  -->
<!DOCTYPE svg PUBLIC "-//W3C//DTD SVG 1.1//EN" "http://www.w3.org/Graphics/SVG/1.1/DTD/svg11.dtd">
<svg version="1.1" id="back-walking-1" xmlns="http://www.w3.org/2000/svg" xmlns:xlink="http://www.w3.org/1999/xlink" x="0px"
	 y="0px" width="160px" height="220px" viewBox="0 0 160 220" style="enable-background:new 0 0 160 220;" xml:space="preserve">
<path style="fill:#FFFFFF;" d="M114.641,97.831h-0.1l-2,2.4l-2.5-0.602l-1.4,1.5l17,6.102l0.1-0.201l1.6,0.201h1.102h0.799
	l0.801,0.6l1.1,1.1l0.5,0.699l0.5,3l-0.4,0.9c-0.467,2.066-1.4,3.166-2.799,3.301l-4.201,0.199c-0.6-0.4-1.367-1-2.299-1.799v-0.102
	h-0.102l0.102-0.299l-12.102-4.4l-0.898,2.6h0.1l-2.6,21h0.1l-0.1,0.801v0.1h-0.102l-0.5,6.199h-4.6l-1.5,3.1h10.801
	c0.934,0,1.699,0.268,2.299,0.801c0.734,0.734,1.102,1.834,1.102,3.301c0,1.4-0.367,2.467-1.102,3.199c-0.6,0.6-1.365,0.9-2.299,0.9
	h-7v-0.9l-0.301,0.9h-5.9v2.9l-14.398-1.4v-0.1h-4.9l-3.1,3.398v2.4H75.34h-2.299v10.4c-0.066,1.801-0.6,3.301-1.6,4.5
	c-0.934,1-2.068,1.5-3.4,1.5c-1.334,0-2.5-0.5-3.5-1.5c-1-1.199-1.5-2.699-1.5-4.5v-10.4h-2.4l-3.199-4.699l0.199-0.201
	c-2.4-2.533-3.834-5.299-4.301-8.299l-0.199-2.4l0.1-1.9l1.1-3.699h0.201v-1.1l0.299-0.301v-0.1v-2.6h-0.1l-0.1-1.6v-4.102
	l-0.4-1.299l-0.299-0.9l0.299-0.801l0.5-1l0.5-1.5h0.201l0.699-9.5l0.199-3.199l0.102-0.6l-0.102,0.6l-1.799,0.699v0.102l-9.9,3.6
	l0.1,0.299h-0.1v0.102l-2.199,1.799l-4.201-0.199c-1.467-0.135-2.434-1.234-2.9-3.301l-0.299-0.9l0.5-3l0.4-0.699l1.199-1.1
	l0.699-0.6h0.9h1.1l1.5-0.201l0.102,0.201l12.398-4.4l-1.398-2.1l-2.201-2.9h0.4c-3.533-4.135-5.199-8.867-5-14.201
	c-0.199-7.066,3.367-13.6,10.699-19.6c7.334-6.732,16.102-10.434,26.301-11.1c10.133,0.666,18.834,4.367,26.1,11.1
	c7.268,6,10.9,12.533,10.9,19.6c0,5.334-1.732,10.066-5.199,14.201H114.641 M61.441,124.03h0.1l-0.1-0.1V124.03 M54.141,137.13
	l-0.1-0.199L54.141,137.13"/>
<path style="fill:#010202;" d="M54.141,114.431v-0.199l-8.301,3l-3.199,2.5l-5.4-0.4c-0.4,0.467-0.533,0.4-0.4-0.201
	c-2.266-0.666-3.6-2.266-4-4.799l-0.299-0.4c-0.467-0.934-0.566-2-0.301-3.199l0.5-1.4l0.301-0.6v-0.5l0.199-0.5
	c0.6-1.535,1.967-2.535,4.1-3c0.068,0.199,0.268,0.199,0.602,0l2.398,0.199h0.201v-0.199l0.6-0.4l0.1,0.1l5.1-1.9v0.1l6.102-1.898
	l1.398,2.1l-12.398,4.4l-0.102-0.201l-1.5,0.201h-1.1h-0.9l-0.699,0.6l-1.199,1.1l-0.4,0.699l-0.5,3l0.299,0.9
	c0.467,2.066,1.434,3.166,2.9,3.301l4.201,0.199l2.199-1.799v-0.102h0.1l-0.1-0.299l9.9-3.6v-0.102l1.799-0.699l-0.199,3.199
	L54.141,114.431 M75.34,170.03c0,2.6-0.699,4.666-2.1,6.199c-1.467,1.668-3.199,2.5-5.199,2.5s-3.768-0.832-5.301-2.5
	c-1.4-1.533-2.1-3.6-2.1-6.199v-10.4h2.4v10.4c0,1.801,0.5,3.301,1.5,4.5c1,1,2.166,1.5,3.5,1.5c1.332,0,2.467-0.5,3.4-1.5
	c1-1.199,1.533-2.699,1.6-4.5v-10.4h2.299V170.03 M104.041,152.431h7c0.934,0,1.699-0.301,2.299-0.9
	c0.734-0.732,1.102-1.799,1.102-3.199c0-1.467-0.367-2.566-1.102-3.301c-0.6-0.533-1.365-0.801-2.299-0.801H100.24l1.5-3.1h4.6
	h4.801c1.666,0,3.033,0.533,4.1,1.6c1.201,1.201,1.801,3.068,1.801,5.602c0,2.467-0.6,4.299-1.801,5.5
	c-1.066,1.066-2.434,1.6-4.1,1.6H97.84v-0.1v-2.9h5.9H104.041 M120.84,102.63v-0.1l5.102,1.9v-0.1l0.6,0.4v0.199h0.199l2.5-0.199
	c0.268,0.199,0.467,0.199,0.6,0c2.068,0.465,3.4,1.465,4,3l0.301,0.5v0.5l0.301,0.6l0.398,1.4c0.268,1.199,0.168,2.266-0.299,3.199
	l-0.201,0.4c-0.467,2.533-1.799,4.133-4,4.799c0.068,0.602-0.066,0.668-0.398,0.201l-5.4,0.4l-3.301-2.5l-11.699-4.201h-0.1
	l0.898-2.6l12.102,4.4l-0.102,0.299h0.102v0.102c0.932,0.799,1.699,1.398,2.299,1.799l4.201-0.199
	c1.398-0.135,2.332-1.234,2.799-3.301l0.4-0.9l-0.5-3l-0.5-0.699l-1.1-1.1l-0.801-0.6h-0.799h-1.102l-1.6-0.201l-0.1,0.201
	l-17-6.102l1.4-1.5l2.5,0.602L120.84,102.63"/>
<path style="fill:none;stroke:#010202;stroke-width:2.4;stroke-linecap:round;stroke-linejoin:round;stroke-miterlimit:3;" d="
	M114.441,97.831c3.467-4.135,5.199-8.867,5.199-14.201c0-7.066-3.633-13.6-10.9-19.6c-7.266-6.732-15.967-10.434-26.1-11.1
	c-10.199,0.666-18.967,4.367-26.301,11.1c-7.332,6-10.898,12.533-10.699,19.6c-0.199,5.334,1.467,10.066,5,14.201"/>
<g id="_x38_58_1_" transform="matrix(1, 0, 0, 1, 24.8, 64.6)">
	<path style="fill:#FFFFFF;" d="M89.841,33.231h-0.1l-2,2.4l-2.5-0.602l-1.4,1.5l17,6.102l0.1-0.201l1.6,0.201h1.102h0.799
		l0.801,0.6l1.1,1.1l0.5,0.699l0.5,3l-0.4,0.9c-0.467,2.066-1.4,3.166-2.799,3.301L99.94,52.43c-0.6-0.4-1.367-1-2.299-1.799V50.53
		H97.54l0.102-0.299l-12.102-4.4l-0.898,2.6h0.1l-2.6,21h0.1l-0.1,0.801v0.1H82.04l-0.5,6.199h-4.6l-1.5,3.1h10.801
		c0.934,0,1.699,0.268,2.299,0.801c0.734,0.734,1.102,1.834,1.102,3.301c0,1.4-0.367,2.467-1.102,3.199
		c-0.6,0.6-1.365,0.9-2.299,0.9h-7v-0.9l-0.301,0.9h-5.9v2.9l-14.398-1.4v-0.1h-4.9l-3.1,3.398v2.4H50.54h-2.299v10.4
		c-0.066,1.801-0.6,3.301-1.6,4.5c-0.934,1-2.068,1.5-3.4,1.5c-1.334,0-2.5-0.5-3.5-1.5c-1-1.199-1.5-2.699-1.5-4.5v-10.4h-2.4
		l-3.199-4.699l0.199-0.201c-2.4-2.533-3.834-5.299-4.301-8.299l-0.199-2.4l0.1-1.9l1.1-3.699h0.201v-1.1l0.299-0.301v-0.1v-2.6
		h-0.1l-0.1-1.6V64.03l-0.4-1.299l-0.299-0.9l0.299-0.801l0.5-1l0.5-1.5h0.201l0.699-9.5l0.199-3.199l0.102-0.6l-0.102,0.6
		l-1.799,0.699v0.102l-9.9,3.6l0.1,0.299h-0.1v0.102l-2.199,1.799l-4.201-0.199c-1.467-0.135-2.434-1.234-2.9-3.301l-0.299-0.9
		l0.5-3l0.4-0.699l1.199-1.1l0.699-0.6h0.9h1.1l1.5-0.201l0.102,0.201l12.398-4.4l-1.398-2.1l-2.201-2.9h0.4
		c-3.533-4.135-5.199-8.867-5-14.201c-0.199-7.066,3.367-13.6,10.699-19.6c7.334-6.732,16.102-10.434,26.301-11.1
		c10.133,0.666,18.834,4.367,26.1,11.1c7.268,6,10.9,12.533,10.9,19.6c0,5.334-1.732,10.066-5.199,14.201H89.841 M36.641,59.43h0.1
		l-0.1-0.1V59.43 M29.341,72.53l-0.1-0.199L29.341,72.53"/>
	<path style="fill:#010202;" d="M29.341,49.831v-0.199l-8.301,3l-3.199,2.5l-5.4-0.4c-0.4,0.467-0.533,0.4-0.4-0.201
		c-2.266-0.666-3.6-2.266-4-4.799l-0.299-0.4c-0.467-0.934-0.566-2-0.301-3.199l0.5-1.4l0.301-0.6v-0.5l0.199-0.5
		c0.6-1.535,1.967-2.535,4.1-3c0.068,0.199,0.268,0.199,0.602,0l2.398,0.199h0.201v-0.199l0.6-0.4l0.1,0.1l5.1-1.9v0.1l6.102-1.898
		l1.398,2.1l-12.398,4.4L16.54,42.43l-1.5,0.201h-1.1h-0.9l-0.699,0.6l-1.199,1.1l-0.4,0.699l-0.5,3l0.299,0.9
		c0.467,2.066,1.434,3.166,2.9,3.301l4.201,0.199l2.199-1.799V50.53h0.1l-0.1-0.299l9.9-3.6V46.53l1.799-0.699l-0.199,3.199
		L29.341,49.831 M50.54,105.43c0,2.6-0.699,4.666-2.1,6.199c-1.467,1.668-3.199,2.5-5.199,2.5s-3.768-0.832-5.301-2.5
		c-1.4-1.533-2.1-3.6-2.1-6.199v-10.4h2.4v10.4c0,1.801,0.5,3.301,1.5,4.5c1,1,2.166,1.5,3.5,1.5c1.332,0,2.467-0.5,3.4-1.5
		c1-1.199,1.533-2.699,1.6-4.5v-10.4h2.299V105.43 M79.241,87.831h7c0.934,0,1.699-0.301,2.299-0.9
		c0.734-0.732,1.102-1.799,1.102-3.199c0-1.467-0.367-2.566-1.102-3.301c-0.6-0.533-1.365-0.801-2.299-0.801H75.44l1.5-3.1h4.6
		h4.801c1.666,0,3.033,0.533,4.1,1.6c1.201,1.201,1.801,3.068,1.801,5.602c0,2.467-0.6,4.299-1.801,5.5
		c-1.066,1.066-2.434,1.6-4.1,1.6H73.04v-0.1v-2.9h5.9H79.241 M96.04,38.03v-0.1l5.102,1.9v-0.1l0.6,0.4v0.199h0.199l2.5-0.199
		c0.268,0.199,0.467,0.199,0.6,0c2.068,0.465,3.4,1.465,4,3l0.301,0.5v0.5l0.301,0.6l0.398,1.4c0.268,1.199,0.168,2.266-0.299,3.199
		l-0.201,0.4c-0.467,2.533-1.799,4.133-4,4.799c0.068,0.602-0.066,0.668-0.398,0.201l-5.4,0.4l-3.301-2.5L84.741,48.43h-0.1
		l0.898-2.6l12.102,4.4L97.54,50.53h0.102v0.102c0.932,0.799,1.699,1.398,2.299,1.799l4.201-0.199
		c1.398-0.135,2.332-1.234,2.799-3.301l0.4-0.9l-0.5-3l-0.5-0.699l-1.1-1.1l-0.801-0.6h-0.799h-1.102l-1.6-0.201l-0.1,0.201
		l-17-6.102l1.4-1.5l2.5,0.602L96.04,38.03"/>
	<path style="fill:none;stroke:#010202;stroke-width:2.4;stroke-linecap:round;stroke-linejoin:round;stroke-miterlimit:3;" d="
		M89.641,33.231c3.467-4.135,5.199-8.867,5.199-14.201c0-7.066-3.633-13.6-10.9-19.6c-7.266-6.732-15.967-10.434-26.1-11.1
		C47.641-11.003,38.874-7.302,31.54-0.57c-7.332,6-10.898,12.533-10.699,19.6c-0.199,5.334,1.467,10.066,5,14.201"/>
</g>
<g>
	<g id="_x38_58" transform="matrix(1, 0, 0, 1, 24.8, 64.6)">
		<path style="fill:#FFFFFF;" d="M89.841,33.231h-0.1l-2,2.4l-2.5-0.602l-1.4,1.5l17,6.102l0.1-0.201l1.6,0.201h1.102h0.799
			l0.801,0.6l1.1,1.1l0.5,0.699l0.5,3l-0.4,0.9c-0.467,2.066-1.4,3.166-2.799,3.301L99.94,52.43c-0.6-0.4-1.367-1-2.299-1.799V50.53
			H97.54l0.102-0.299l-12.102-4.4l-0.898,2.6h0.1l-2.6,21h0.1l-0.1,0.801v0.1H82.04l-0.5,6.199h-4.6l-1.5,3.1h10.801
			c0.934,0,1.699,0.268,2.299,0.801c0.734,0.734,1.102,1.834,1.102,3.301c0,1.4-0.367,2.467-1.102,3.199
			c-0.6,0.6-1.365,0.9-2.299,0.9h-7v-0.9l-0.301,0.9h-5.9v2.9l-14.398-1.4v-0.1h-4.9l-3.1,3.398v2.4H50.54h-2.299v10.4
			c-0.066,1.801-0.6,3.301-1.6,4.5c-0.934,1-2.068,1.5-3.4,1.5c-1.334,0-2.5-0.5-3.5-1.5c-1-1.199-1.5-2.699-1.5-4.5v-10.4h-2.4
			l-3.199-4.699l0.199-0.201c-2.4-2.533-3.834-5.299-4.301-8.299l-0.199-2.4l0.1-1.9l1.1-3.699h0.201v-1.1l0.299-0.301v-0.1v-2.6
			h-0.1l-0.1-1.6V64.03l-0.4-1.299l-0.299-0.9l0.299-0.801l0.5-1l0.5-1.5h0.201l0.699-9.5l0.199-3.199l0.102-0.6l-0.102,0.6
			l-1.799,0.699v0.102l-9.9,3.6l0.1,0.299h-0.1v0.102l-2.199,1.799l-4.201-0.199c-1.467-0.135-2.434-1.234-2.9-3.301l-0.299-0.9
			l0.5-3l0.4-0.699l1.199-1.1l0.699-0.6h0.9h1.1l1.5-0.201l0.102,0.201l12.398-4.4l-1.398-2.1l-2.201-2.9h0.4
			c-3.533-4.135-5.199-8.867-5-14.201c-0.199-7.066,3.367-13.6,10.699-19.6c7.334-6.732,16.102-10.434,26.301-11.1
			c10.133,0.666,18.834,4.367,26.1,11.1c7.268,6,10.9,12.533,10.9,19.6c0,5.334-1.732,10.066-5.199,14.201H89.841 M36.641,59.43h0.1
			l-0.1-0.1V59.43 M29.341,72.53l-0.1-0.199L29.341,72.53"/>
		<path style="fill:#010202;" d="M29.341,49.831v-0.199l-8.301,3l-3.199,2.5l-5.4-0.4c-0.4,0.467-0.533,0.4-0.4-0.201
			c-2.266-0.666-3.6-2.266-4-4.799l-0.299-0.4c-0.467-0.934-0.566-2-0.301-3.199l0.5-1.4l0.301-0.6v-0.5l0.199-0.5
			c0.6-1.535,1.967-2.535,4.1-3c0.068,0.199,0.268,0.199,0.602,0l2.398,0.199h0.201v-0.199l0.6-0.4l0.1,0.1l5.1-1.9v0.1l6.102-1.898
			l1.398,2.1l-12.398,4.4L16.54,42.43l-1.5,0.201h-1.1h-0.9l-0.699,0.6l-1.199,1.1l-0.4,0.699l-0.5,3l0.299,0.9
			c0.467,2.066,1.434,3.166,2.9,3.301l4.201,0.199l2.199-1.799V50.53h0.1l-0.1-0.299l9.9-3.6V46.53l1.799-0.699l-0.199,3.199
			L29.341,49.831 M50.54,105.43c0,2.6-0.699,4.666-2.1,6.199c-1.467,1.668-3.199,2.5-5.199,2.5s-3.768-0.832-5.301-2.5
			c-1.4-1.533-2.1-3.6-2.1-6.199v-10.4h2.4v10.4c0,1.801,0.5,3.301,1.5,4.5c1,1,2.166,1.5,3.5,1.5c1.332,0,2.467-0.5,3.4-1.5
			c1-1.199,1.533-2.699,1.6-4.5v-10.4h2.299V105.43 M79.241,87.831h7c0.934,0,1.699-0.301,2.299-0.9
			c0.734-0.732,1.102-1.799,1.102-3.199c0-1.467-0.367-2.566-1.102-3.301c-0.6-0.533-1.365-0.801-2.299-0.801H75.44l1.5-3.1h4.6
			h4.801c1.666,0,3.033,0.533,4.1,1.6c1.201,1.201,1.801,3.068,1.801,5.602c0,2.467-0.6,4.299-1.801,5.5
			c-1.066,1.066-2.434,1.6-4.1,1.6H73.04v-0.1v-2.9h5.9H79.241 M96.04,38.03v-0.1l5.102,1.9v-0.1l0.6,0.4v0.199h0.199l2.5-0.199
			c0.268,0.199,0.467,0.199,0.6,0c2.068,0.465,3.4,1.465,4,3l0.301,0.5v0.5l0.301,0.6l0.398,1.4
			c0.268,1.199,0.168,2.266-0.299,3.199l-0.201,0.4c-0.467,2.533-1.799,4.133-4,4.799c0.068,0.602-0.066,0.668-0.398,0.201l-5.4,0.4
			l-3.301-2.5L84.741,48.43h-0.1l0.898-2.6l12.102,4.4L97.54,50.53h0.102v0.102c0.932,0.799,1.699,1.398,2.299,1.799l4.201-0.199
			c1.398-0.135,2.332-1.234,2.799-3.301l0.4-0.9l-0.5-3l-0.5-0.699l-1.1-1.1l-0.801-0.6h-0.799h-1.102l-1.6-0.201l-0.1,0.201
			l-17-6.102l1.4-1.5l2.5,0.602L96.04,38.03"/>
		<path style="fill:none;stroke:#010202;stroke-width:2.4;stroke-linecap:round;stroke-linejoin:round;stroke-miterlimit:3;" d="
			M89.641,33.231c3.467-4.135,5.199-8.867,5.199-14.201c0-7.066-3.633-13.6-10.9-19.6c-7.266-6.732-15.967-10.434-26.1-11.1
			C47.641-11.003,38.874-7.302,31.54-0.57c-7.332,6-10.898,12.533-10.699,19.6c-0.199,5.334,1.467,10.066,5,14.201"/>
	</g>
</g>
<path d="M108.1,74.089h1.337l4.68,4.1l-1.715,1.018l-3.634-3.285l-3.634,3.285l-1.715-1.018L108.1,74.089z"/>
<g>
	<path d="M108.1,74.089h1.337l4.68,4.1l-1.715,1.018l-3.634-3.285l-3.634,3.285l-1.715-1.018L108.1,74.089z"/>
</g>
<linearGradient id="SVGID_1_" gradientUnits="userSpaceOnUse" x1="-3184.1406" y1="46.9512" x2="92.6594" y2="46.9512" gradientTransform="matrix(-6.713870e-004 -0.008 -0.0091 5.798340e-004 1195.9635 126.4364)">
	<stop  offset="0" style="stop-color:#C5D763"/>
	<stop  offset="0.3647" style="stop-color:#E6AC43"/>
	<stop  offset="0.5765" style="stop-color:#EA5139"/>
	<stop  offset="1" style="stop-color:#E83C3A"/>
</linearGradient>
<path style="fill:url(#SVGID_1_);" d="M97.914,47.001c0,3.533-1.467,6.602-4.4,9.201c-2.934,2.533-6.467,3.799-10.6,3.799
	c-4.066,0-7.6-1.266-10.6-3.799c-2.934-2.6-4.4-5.668-4.4-9.201c0-3.6,1.467-6.699,4.4-9.299c3-2.533,6.533-3.801,10.6-3.801
	c4.133,0,7.666,1.268,10.6,3.801C96.447,40.302,97.914,43.401,97.914,47.001"/>
<path style="fill:none;stroke:#010202;stroke-width:2;stroke-linecap:round;stroke-linejoin:round;stroke-miterlimit:3;" d="
	M97.914,47.001c0,3.533-1.467,6.602-4.4,9.201c-2.934,2.533-6.467,3.799-10.6,3.799c-4.066,0-7.6-1.266-10.6-3.799
	c-2.934-2.6-4.4-5.668-4.4-9.201c0-3.6,1.467-6.699,4.4-9.299c3-2.533,6.533-3.801,10.6-3.801c4.133,0,7.666,1.268,10.6,3.801
	C96.447,40.302,97.914,43.401,97.914,47.001z"/>
<path style="fill:#010202;fill-opacity:0.2;" d="M85.215,35.901c0.133,0.467-0.301,0.934-1.301,1.4
	c-0.934,0.533-2.133,0.967-3.6,1.301l-3.9,0.398c-1.133,0-1.768-0.232-1.9-0.699c-0.133-0.4,0.301-0.9,1.301-1.5l3.699-1.199
	l3.801-0.5C84.447,35.235,85.08,35.501,85.215,35.901"/>
<path style="fill:#010202;" d="M72.514,30.103l3.9,0.299l2.699,6.4L72.514,30.103"/>
<path style="fill:none;stroke:#010202;stroke-width:2;stroke-linecap:round;stroke-linejoin:round;stroke-miterlimit:3;" d="
	M72.514,30.103l3.9,0.299l2.699,6.4L72.514,30.103z"/>
<path style="fill:#FFFFFF;" d="M78.514,54.702c0.268,0.533,0.301,0.9,0.1,1.1l-1.6-0.1l-2-1.301l-1.6-1.699
	c-0.199-0.668-0.133-1.066,0.199-1.201l1.4,0.102c0.668,0.266,1.367,0.732,2.1,1.398L78.514,54.702"/>
<path style="fill:#FFFFFF;" d="M71.715,48.501l-0.4-1.398l0.4-1.5l1-0.602c0.398,0,0.732,0.201,1,0.602l0.5,1.5
	c0,0.533-0.168,1-0.5,1.398c-0.268,0.4-0.602,0.602-1,0.602L71.715,48.501"/>
<g id="_x38_57_7_" transform="matrix(1, 0, 0, 1, 6.8, 10.9)">
	
		<linearGradient id="SVGID_2_" gradientUnits="userSpaceOnUse" x1="-3190.9407" y1="36.0512" x2="85.8594" y2="36.0512" gradientTransform="matrix(-6.713870e-004 -0.008 -0.0091 5.798340e-004 1189.0593 115.4885)">
		<stop  offset="0" style="stop-color:#C5D763"/>
		<stop  offset="0.3647" style="stop-color:#E6AC43"/>
		<stop  offset="0.5765" style="stop-color:#EA5139"/>
		<stop  offset="1" style="stop-color:#E83C3A"/>
	</linearGradient>
	<path style="fill:url(#SVGID_2_);" d="M91.114,36.101c0,3.533-1.467,6.602-4.4,9.201c-2.934,2.533-6.467,3.799-10.6,3.799
		c-4.066,0-7.6-1.266-10.6-3.799c-2.934-2.6-4.4-5.668-4.4-9.201c0-3.6,1.467-6.699,4.4-9.299c3-2.533,6.533-3.801,10.6-3.801
		c4.133,0,7.666,1.268,10.6,3.801C89.647,29.402,91.114,32.501,91.114,36.101"/>
	<path style="fill:none;stroke:#010202;stroke-width:2;stroke-linecap:round;stroke-linejoin:round;stroke-miterlimit:3;" d="
		M91.114,36.101c0,3.533-1.467,6.602-4.4,9.201c-2.934,2.533-6.467,3.799-10.6,3.799c-4.066,0-7.6-1.266-10.6-3.799
		c-2.934-2.6-4.4-5.668-4.4-9.201c0-3.6,1.467-6.699,4.4-9.299c3-2.533,6.533-3.801,10.6-3.801c4.133,0,7.666,1.268,10.6,3.801
		C89.647,29.402,91.114,32.501,91.114,36.101z"/>
	<path style="fill:#010202;fill-opacity:0.2;" d="M78.415,25.001c0.133,0.467-0.301,0.934-1.301,1.4
		c-0.934,0.533-2.133,0.967-3.6,1.301l-3.9,0.398c-1.133,0-1.768-0.232-1.9-0.699c-0.133-0.4,0.301-0.9,1.301-1.5l3.699-1.199
		l3.801-0.5C77.647,24.335,78.28,24.601,78.415,25.001"/>
	<path style="fill:#010202;" d="M65.714,19.203l3.9,0.299l2.699,6.4L65.714,19.203"/>
	<path style="fill:none;stroke:#010202;stroke-width:2;stroke-linecap:round;stroke-linejoin:round;stroke-miterlimit:3;" d="
		M65.714,19.203l3.9,0.299l2.699,6.4L65.714,19.203z"/>
	<path style="fill:#FFFFFF;" d="M71.714,43.802c0.268,0.533,0.301,0.9,0.1,1.1l-1.6-0.1l-2-1.301l-1.6-1.699
		c-0.199-0.668-0.133-1.066,0.199-1.201l1.4,0.102c0.668,0.266,1.367,0.732,2.1,1.398L71.714,43.802"/>
	<path style="fill:#FFFFFF;" d="M64.915,37.601l-0.4-1.398l0.4-1.5l1-0.602c0.398,0,0.732,0.201,1,0.602l0.5,1.5
		c0,0.533-0.168,1-0.5,1.398c-0.268,0.4-0.602,0.602-1,0.602L64.915,37.601"/>
</g>
<g>
	<g id="_x38_57_1_" transform="matrix(1, 0, 0, 1, 6.8, 10.9)">
		
			<linearGradient id="SVGID_3_" gradientUnits="userSpaceOnUse" x1="-3190.9407" y1="36.0512" x2="85.8594" y2="36.0512" gradientTransform="matrix(-6.713870e-004 -0.008 -0.0091 5.798340e-004 1189.0593 115.4885)">
			<stop  offset="0" style="stop-color:#C5D763"/>
			<stop  offset="0.3647" style="stop-color:#E6AC43"/>
			<stop  offset="0.5765" style="stop-color:#EA5139"/>
			<stop  offset="1" style="stop-color:#E83C3A"/>
		</linearGradient>
		<path style="fill:url(#SVGID_3_);" d="M91.114,36.101c0,3.533-1.467,6.602-4.4,9.201c-2.934,2.533-6.467,3.799-10.6,3.799
			c-4.066,0-7.6-1.266-10.6-3.799c-2.934-2.6-4.4-5.668-4.4-9.201c0-3.6,1.467-6.699,4.4-9.299c3-2.533,6.533-3.801,10.6-3.801
			c4.133,0,7.666,1.268,10.6,3.801C89.647,29.402,91.114,32.501,91.114,36.101"/>
		<path style="fill:none;stroke:#010202;stroke-width:2;stroke-linecap:round;stroke-linejoin:round;stroke-miterlimit:3;" d="
			M91.114,36.101c0,3.533-1.467,6.602-4.4,9.201c-2.934,2.533-6.467,3.799-10.6,3.799c-4.066,0-7.6-1.266-10.6-3.799
			c-2.934-2.6-4.4-5.668-4.4-9.201c0-3.6,1.467-6.699,4.4-9.299c3-2.533,6.533-3.801,10.6-3.801c4.133,0,7.666,1.268,10.6,3.801
			C89.647,29.402,91.114,32.501,91.114,36.101z"/>
		<path style="fill:#010202;fill-opacity:0.2;" d="M78.415,25.001c0.133,0.467-0.301,0.934-1.301,1.4
			c-0.934,0.533-2.133,0.967-3.6,1.301l-3.9,0.398c-1.133,0-1.768-0.232-1.9-0.699c-0.133-0.4,0.301-0.9,1.301-1.5l3.699-1.199
			l3.801-0.5C77.647,24.335,78.28,24.601,78.415,25.001"/>
		<path style="fill:#010202;" d="M65.714,19.203l3.9,0.299l2.699,6.4L65.714,19.203"/>
		<path style="fill:none;stroke:#010202;stroke-width:2;stroke-linecap:round;stroke-linejoin:round;stroke-miterlimit:3;" d="
			M65.714,19.203l3.9,0.299l2.699,6.4L65.714,19.203z"/>
		<path style="fill:#FFFFFF;" d="M71.714,43.802c0.268,0.533,0.301,0.9,0.1,1.1l-1.6-0.1l-2-1.301l-1.6-1.699
			c-0.199-0.668-0.133-1.066,0.199-1.201l1.4,0.102c0.668,0.266,1.367,0.732,2.1,1.398L71.714,43.802"/>
		<path style="fill:#FFFFFF;" d="M64.915,37.601l-0.4-1.398l0.4-1.5l1-0.602c0.398,0,0.732,0.201,1,0.602l0.5,1.5
			c0,0.533-0.168,1-0.5,1.398c-0.268,0.4-0.602,0.602-1,0.602L64.915,37.601"/>
	</g>
</g>
</svg>
