<svg xmlns="http://www.w3.org/2000/svg" xmlns:xlink="http://www.w3.org/1999/xlink" height="195" width="160"><defs><g id="h"><path d="M14.3-60.8l3.15 3 1.15 1.1-.4.4.1.1q2.1 2.05 2.35 4.55v.6q0 1.6-.8 3.1l-.25.45-1.4 1.7.1.1-.3.3-3.25.9v4.7l-3.25.7-3.1.9.65 1.6 3.3-1.25 3-.6q1.55 0 2.15.6.8.8.8 2 0 1.05-.75 1.85-1.05 1-4.05 1.25l-1.3.05.35 1.5 1.5-.1-.05 2.8-1.5 1.2v5.75H8V-20h6.55q.7 0 1.15.4.55.55.55 1.65 0 1-.55 1.6-.45.4-1.15.45H8v1.5H-9l-3.25-3.3v-1.7l.45-.35q.75-.6 1.35-1.55l-1.25-1q-.4.65-.7.95l.4-10.9 1.75-12.85.4.4.75-.7-1-1.1q-1.5-1.95-1.5-4.15l.1-1q.35-2.3 2.4-4.25l-.75-.75.5-3.9.65.3.95-2.05h5.85l.9 2.05 1.25-.55h3.9l1.2.55.95-2.05h5.85l.9 2.05 1.25-.55m-3.6 16.35l.75-1.55v-1.35h-1.5v1.45h.55l-.55 1.45h.75m3.65-2.9h-1.5v1.45h.55l-.55 1.45h.75l.75-1.55v-1.35" fill="#fff" fill-rule="evenodd" transform="translate(21.65 62.3)"/><path d="M12.15-62.3h1.45l.7 1.5-1.25.55-.9-2.05m5.3 4.5l1.15 1.1.3-.35q2.55 2.35 2.8 5.4v.6q0 1.85-.9 3.55-.7 1.25-1.9 2.4l-.6-.6-.1-.1 1.4-1.7.25-.45q.8-1.5.8-3.1v-.6q-.25-2.5-2.35-4.55l-.1-.1.4-.4-1.15-1.1m-2.7 18l.75-.05q2.2 0 3.25 1.05 1.1 1.05 1.1 2.85t-1 2.85l-.4.35q-1.55 1.2-4.4 1.45l-1.5.1-.35-1.5 1.3-.05q3-.25 4.05-1.25.75-.8.75-1.85 0-1.2-.8-2-.6-.6-2.15-.6l-3 .6-3.3 1.25-.65-1.6 3.1-.9 3.25-.7M12.5-21.55h2.1q1.25 0 2.05.8.9.9.9 2.8 0 1.8-.9 2.75-.8.75-2.05.8H8v-1.5h6.55q.7-.05 1.15-.45.55-.6.55-1.6 0-1.1-.55-1.65-.45-.4-1.15-.4H8v-1.55h4.5m-24.75 2.15q-.55.35-1.2.45l-.4.05q-.95-.05-2.65-1.1-1.15-.65-1.9-.65-.85 0-1.3.55l-.6.95-1.35-.75 1.2-1.65q.85-.8 1.95-.8t2.25.8q1.65.85 2.55.85.65 0 1.3-.65.3-.3.7-.95l1.25 1q-.6.95-1.35 1.55l-.45.35m2-25.7l-.6-.65q-1.8-2.2-1.8-4.9l.1-1q.3-2.8 2.7-5l.75.75q-2.05 1.95-2.4 4.25l-.1 1q0 2.2 1.5 4.15l1 1.1-.75.7-.4-.4m.9-15.45l-.55-.25.7-1.5h1.45l-.95 2.05-.65-.3m7.45-1.75h1.45l.7 1.5-1.25.55-.9-2.05m6.05 1.5l.7-1.5H6.3l-.95 2.05-1.2-.55m10.2 13.45V-46l-.75 1.55h-.75l.55-1.45h-.55v-1.45h1.5m-3.65 2.9h-.75l.55-1.45h-.55v-1.45h1.5V-46l-.75 1.55" fill-rule="evenodd" transform="translate(21.65 62.3)"/><path d="M12.5-27.3v5.75M.25-60.8h3.9m14.45 4.1l-1.15-1.1" fill="none" stroke="#000" stroke-linecap="round" stroke-linejoin="round" transform="translate(21.65 62.3)"/></g><g id="j" transform="translate(123.2 10.2)"><use height="21.8" transform="translate(-123.2 -9.5)" width="36.95" xlink:href="#b"/><use height="14.9" transform="translate(-93.35 -10.2)" width="15.5" xlink:href="#c"/></g><g id="b"><path d="M-122.15 3.55l29.2 4.2q.95 1.6-.55 4.05-14.6-4-29.2-4.25l.5-4h.05-.05.05" fill="url(#d)" fill-rule="evenodd" transform="translate(123.2 9.5)"/><path d="M-122.15 3.55Q-114.6-5.5-100.5-9q5.75 1.3 13.75 8.8h-9.2l3 7.95-29.2-4.2" fill="url(#e)" fill-rule="evenodd" transform="translate(123.2 9.5)"/><path d="M-122.15 3.55l29.2 4.2q.95 1.6-.55 4.05-14.6-4-29.2-4.25l.5-4h.05M-122.15 3.55h-.05" fill="none" stroke="#fff" stroke-linecap="round" stroke-linejoin="round" transform="translate(123.2 9.5)"/><path d="M-92.95 7.75l-3-7.95h9.2q-8-7.5-13.75-8.8-14.1 3.5-21.65 12.55z" fill="none" stroke="red" stroke-linecap="round" stroke-linejoin="round" transform="translate(123.2 9.5)"/></g><g id="f" fill-rule="evenodd"><path d="M4.9-4.95Q7-2.9 7 0q0 2.9-2.1 4.9Q2.9 7 0 7q-2.9 0-4.95-2.1Q-7 2.9-7 0q0-2.9 2.05-4.95Q-2.9-7 0-7q2.9 0 4.9 2.05" fill="url(#g)" transform="translate(7.75 7.55)"/><path d="M.45-7.5q.5-.2.8.3.3.5-.15.75L.5-6.5H.4q-.45.3-.75-.25-.3-.6.15-.75l.5.05.15-.05m1.35.15q.5-.25.85.35.3.6-.15.9-.4.3-.8-.35-.35-.65.1-.9m1.55.85q.45-.35.8.2.4.5-.15.8-.55.3-.8-.2-.3-.5.15-.8m3.9 3.3q.25.5-.2.7-.45.3-.75-.25-.3-.6.15-.75.45-.15.8.3M5.1-4.3q-.3-.55.2-.85.45-.35.85.25.35.5-.2.85-.6.35-.85-.25M6.5-.85q-.35-.6.1-.85.45-.3.75.3.35.55-.05.9-.45.25-.8-.35M6.25 1.5Q5.9.85 6.5.4q.55-.4 1.05.3.5.65-.25 1.05-.7.4-1.05-.25m.65.8q.2.35-.15.55-.3.2-.45-.15-.2-.3.1-.5l.5.1M5.3 3.7q.55-.2.8.3.35.5-.15.75-.45.3-.8-.3-.3-.6.15-.75M1.55 7.25q-.55.3-.85-.2-.2-.55.2-.85.5-.3.85.2t-.2.85m1.9-.35q-.65.4-.95-.2-.35-.6.2-1 .5-.35.95.25.45.65-.2.95m.65-1.25q-.2-.35.05-.55.3-.15.5.2t-.1.55q-.25.15-.45-.2m-5.9-12.1q-.3.2-.5-.1l.15-.55.45.15q.25.3-.1.5m-1.65.75q-.5.3-.8-.2-.25-.45.15-.8.45-.25.8.2.4.5-.15.8m-.65.4q.35.6-.15.95-.45.35-.8-.35-.4-.65.1-.95.45-.25.85.35m-1.4 1.6q-.3.2-.5-.2-.15-.4.1-.45.35-.1.5.2.2.25-.1.45m-.65 1.15q.45.65-.25 1-.7.4-1-.25-.3-.65.25-1t1 .25M-6.5-.9q.45.6-.2.95-.6.35-.95-.2-.3-.6.2-1 .55-.35.95.25m-.8 2.6q-.35-.65.1-.95.5-.25.85.35.3.6-.15.95-.4.25-.8-.35m2.45 2.45q.35.55-.2.85-.55.3-.85-.2-.2-.55.2-.85.5-.3.85.2m-.7-.45q-.6.35-.95-.4-.4-.75.2-.95.6-.2.95.4.4.55-.2.95m1.05 1.35q.6-.45 1.1.25.5.7-.2 1.15-.75.4-1.1-.3-.4-.65.2-1.1M-.4 7.3q-.3.15-.45-.2-.2-.35.1-.4.25-.15.45.15.2.25-.1.45m-2 0q-.45.25-.75-.3-.35-.6.05-.85.45-.25.8.3.3.55-.1.85" fill="#fff" transform="translate(7.75 7.55)"/></g><linearGradient gradientTransform="matrix(-.0157 -.0091 .0025 -.0044 -107.85 7.65)" gradientUnits="userSpaceOnUse" id="d" spreadMethod="pad" x1="-819.2" x2="819.2"><stop offset=".204" stop-color="#ccc"/><stop offset=".804" stop-color="#e7e7e7"/><stop offset="1" stop-color="#fff"/></linearGradient><linearGradient gradientTransform="matrix(.0283 0 0 .0102 -104.45 -.65)" gradientUnits="userSpaceOnUse" id="e" spreadMethod="pad" x1="-819.2" x2="819.2"><stop offset=".004" stop-color="#fff"/><stop offset=".18" stop-color="#d10101"/><stop offset=".557" stop-color="#fe3636"/><stop offset=".906" stop-color="#fff"/></linearGradient><use height="3" transform="translate(.8)" width="3" xlink:href="#a" id="i"/><use height="14.9" width="15.5" xlink:href="#f" id="c"/><radialGradient cx="0" cy="0" gradientTransform="translate(2.6 -.2) scale(.0086)" gradientUnits="userSpaceOnUse" id="g" r="819.2" spreadMethod="pad"><stop offset=".204" stop-color="#ccc"/><stop offset=".757" stop-color="#e7e7e7"/><stop offset="1" stop-color="#fff"/></radialGradient><path d="M1.35 0h.2l.55.1.45.35q.45.45.45 1L2.55 2.6q-.45.4-1 .4l-.8-.2-.25-.2-.45-.7v-.15L0 1.45v-.1q.05-.5.5-.9l.25-.2Q1 .05 1.3 0h.05m.45.85L1.55.8Q1.2.75 1 1q-.2.15-.2.45v.15l.15.45H1l.05.05.2.1.3.05.55-.2.15-.6-.05-.3L2.1 1 2.05.95 1.9.85h-.1" fill-rule="evenodd" id="a"/></defs><g transform="matrix(2 0 0 2 79.641 156.7)"><use height="47.9" transform="translate(-21.65 -62.3)" width="43.35" xlink:href="#h"/><use height="3" transform="matrix(1 0 0 .9984 13.35 -57.55)" width="4.65" xlink:href="#i"/><use height="22.5" transform="matrix(-1 0 0 .9984 17.6 -76.534)" width="45.35" xlink:href="#j"/></g></svg>