<svg xmlns="http://www.w3.org/2000/svg" xmlns:xlink="http://www.w3.org/1999/xlink" height="195" width="160"><defs><g id="i"><path d="M-9.7-55.3l.5-3.95.65.3.2-.45h7.3l.2.45L.4-59.5h3.9l1.2.55.2-.45h7.35l.2.45 1.25-.55 3.15 3.05 1.1 1.1-.4.4.1.1q2.1 2.05 2.35 4.55v.6q0 1.65-.8 3.1l-.25.45-1.4 1.7.15.15-.3.25-3.25.9v4.7l-3.25.7-3.1.9.65 1.6 3.3-1.25 3-.6q1.55 0 2.15.6.8.8.8 2 0 1.1-.75 1.85-1.05 1.05-4.1 1.25l-1.25.05.35 1.5 1.5-.05-.05 2.75-1.5 1.25v12.25l-.85 4.6h-1.5v6.55q0 .7-.45 1.15-.55.55-1.6.55-1.15 0-1.65-.55-.45-.45-.4-1.15v-6.55h-1.6l-2.35-3.5H.55L-3-9.05v6.55q0 .7-.45 1.15-.55.55-1.6.55-1.1 0-1.65-.55-.45-.45-.4-1.15v-6.55h-1.55l-1.7-1.1-1.75-3.9v-3.9l.45-.4q.75-.6 1.35-1.55l-1.25-1-.7.95.4-10.95 1.75-12.8.4.35.75-.7-1-1.1q-1.55-1.9-1.5-4.15l.05-1q.35-2.3 2.45-4.25l-.75-.75m20.2 10.5v1.9h1.3v-3.25h-1.15v-9.45h-6.2v3.85l-.05 1.1-.45 2.45-1 2.05H2v3.3h1.35v-1.95h7.15m-6.05-1.35l.5-.9.9-3.55v-.05L5.9-51v-3.25h3.4v8.1H4.45m1.05 8.7Q4.45-38.5 2.25-38.5l-4 .75-3.1.9.65 1.6 3.3-1.25 3-.6q1.55 0 2.15.6.8.8.8 2 0 1.1-.75 1.85Q3.25-31.6.25-31.4l-1.3.05.35 1.5q3.95-.05 5.9-1.55l.45-.35q1-1 1-2.85-.05-1.8-1.15-2.85M-7.9-46v1.45h.55l-.55 1.45h.75l.75-1.55V-46h-1.5m2.9 1.45h.55L-5-43.1h.75l.75-1.55V-46H-5v1.45" fill="#fff" fill-rule="evenodd" transform="translate(21.55 59.5)"/><path d="M17.65-56.45l1.15 1.05-.05.05-1.1-1.1" fill="red" fill-rule="evenodd" transform="translate(21.55 59.5)"/><path d="M18.8-55.4l.25-.3q2.55 2.35 2.8 5.4v.6q0 1.9-.9 3.55-.7 1.25-1.9 2.4l-.55-.55-.15-.15 1.4-1.7.25-.45q.8-1.45.8-3.1v-.6q-.25-2.5-2.35-4.55l-.1-.1.4-.4.05-.05m-3.85 16.95l.75-.05q2.2 0 3.25 1.05 1.1 1.05 1.1 2.85 0 1.85-1 2.85l-.4.35q-1.55 1.2-4.4 1.5l-1.5.05-.35-1.5 1.25-.05q3.05-.2 4.1-1.25.75-.75.75-1.85 0-1.2-.8-2-.6-.6-2.15-.6l-3 .6-3.3 1.25-.65-1.6 3.1-.9 3.25-.7m-3.1 29.4v6.6q0 1.25-.8 2.05-.9.9-2.75.9-1.95 0-2.85-.9-.8-.8-.8-2.05v-6.6h1.6v6.55q-.05.7.4 1.15.5.55 1.65.55 1.05 0 1.6-.55.45-.45.45-1.15v-6.55h1.5M-3-9.05h1.5v6.6q0 1.25-.8 2.05-.9.9-2.75.9-1.9 0-2.8-.9-.85-.8-.8-2.05v-6.6h1.55v6.55q-.05.7.4 1.15.55.55 1.65.55 1.05 0 1.6-.55Q-3-1.8-3-2.5v-6.55m-9.1-8.9q-.7.45-1.6.45-1 0-2.7-1.1l-1.9-.65q-.85 0-1.3.55l-.6.95-1.35-.75 1.2-1.65q.85-.8 1.95-.8t2.3.8q1.65.85 2.55.85.6 0 1.3-.65l.7-.95 1.25 1q-.6.95-1.35 1.55l-.45.4m2-25.75l-.6-.7q-1.85-2.2-1.8-4.9l.05-1q.35-2.8 2.75-5l.75.75q-2.1 1.95-2.45 4.25l-.05 1q-.05 2.25 1.5 4.15l1 1.1-.75.7-.4-.35m12.1.8v-3.25h.95l1-2.05.45-2.45.05-1.1v-3.85h6.2v9.45h1.15v3.25h-1.3v-1.95H3.35v1.95H2m7.3-11.35v-.05H5.85v3.25l-.05.35v.05l-.9 3.55-.5.9-.05.05H9.3v-8.1m-3.8 16.8q1.1 1.05 1.15 2.85 0 1.85-1 2.85l-.45.35q-1.95 1.5-5.9 1.55l-.35-1.5 1.3-.05q3-.2 4.05-1.25.75-.75.75-1.85 0-1.2-.8-2-.6-.6-2.15-.6l-3 .6-3.3 1.25-.65-1.6 3.1-.9 4-.75q2.2 0 3.25 1.05M-5-44.55V-46h1.5v1.35l-.75 1.55H-5l.55-1.45H-5M-7.9-46h1.5v1.35l-.75 1.55h-.75l.55-1.45h-.55V-46" fill-rule="evenodd" transform="translate(21.55 59.5)"/><path d="M12.7-25.9v12.25m6.05-41.7l-1.1-1.1" fill="none" stroke="#000" stroke-linecap="round" stroke-linejoin="round" transform="translate(21.55 59.5)"/></g><g id="j" transform="translate(.8)"><use height="3" transform="matrix(1.005 0 0 1 -.804 0)" width="4.65" xlink:href="#a"/><use height="3" transform="matrix(1.005 0 0 1 16.096 0)" width="4.65" xlink:href="#a"/></g><g id="k" transform="translate(123.2 9.5)"><use height="14.9" transform="translate(-103.9 -6.95)" width="15.5" xlink:href="#c"/><use height="21.8" transform="translate(-123.2 -9.5)" width="31.45" xlink:href="#d"/></g><g id="e" fill-rule="evenodd"><path d="M4.9-4.95Q7-2.9 7 0q0 2.9-2.1 4.9Q2.9 7 0 7q-2.9 0-4.95-2.1Q-7 2.9-7 0q0-2.9 2.05-4.95Q-2.9-7 0-7q2.9 0 4.9 2.05" fill="url(#f)" transform="translate(7.75 7.55)"/><path d="M.45-7.5q.5-.2.8.3.3.5-.15.75L.5-6.5H.4q-.45.3-.75-.25-.3-.6.15-.75l.5.05.15-.05m1.35.15q.5-.25.85.35.3.6-.15.9-.4.3-.8-.35-.35-.65.1-.9m1.55.85q.45-.35.8.2.4.5-.15.8-.55.3-.8-.2-.3-.5.15-.8m3.9 3.3q.25.5-.2.7-.45.3-.75-.25-.3-.6.15-.75.45-.15.8.3M5.1-4.3q-.3-.55.2-.85.45-.35.85.25.35.5-.2.85-.6.35-.85-.25M6.5-.85q-.35-.6.1-.85.45-.3.75.3.35.55-.05.9-.45.25-.8-.35M6.25 1.5Q5.9.85 6.5.4q.55-.4 1.05.3.5.65-.25 1.05-.7.4-1.05-.25m.65.8q.2.35-.15.55-.3.2-.45-.15-.2-.3.1-.5l.5.1M5.3 3.7q.55-.2.8.3.35.5-.15.75-.45.3-.8-.3-.3-.6.15-.75M1.55 7.25q-.55.3-.85-.2-.2-.55.2-.85.5-.3.85.2t-.2.85m1.9-.35q-.65.4-.95-.2-.35-.6.2-1 .5-.35.95.25.45.65-.2.95m.65-1.25q-.2-.35.05-.55.3-.15.5.2t-.1.55q-.25.15-.45-.2m-5.9-12.1q-.3.2-.5-.1l.15-.55.45.15q.25.3-.1.5m-1.65.75q-.5.3-.8-.2-.25-.45.15-.8.45-.25.8.2.4.5-.15.8m-.65.4q.35.6-.15.95-.45.35-.8-.35-.4-.65.1-.95.45-.25.85.35m-1.4 1.6q-.3.2-.5-.2-.15-.4.1-.45.35-.1.5.2.2.25-.1.45m-.65 1.15q.45.65-.25 1-.7.4-1-.25-.3-.65.25-1t1 .25M-6.5-.9q.45.6-.2.95-.6.35-.95-.2-.3-.6.2-1 .55-.35.95.25m-.8 2.6q-.35-.65.1-.95.5-.25.85.35.3.6-.15.95-.4.25-.8-.35m2.45 2.45q.35.55-.2.85-.55.3-.85-.2-.2-.55.2-.85.5-.3.85.2m-.7-.45q-.6.35-.95-.4-.4-.75.2-.95.6-.2.95.4.4.55-.2.95m1.05 1.35q.6-.45 1.1.25.5.7-.2 1.15-.75.4-1.1-.3-.4-.65.2-1.1M-.4 7.3q-.3.15-.45-.2-.2-.35.1-.4.25-.15.45.15.2.25-.1.45m-2 0q-.45.25-.75-.3-.35-.6.05-.85.45-.25.8.3.3.55-.1.85" fill="#fff" transform="translate(7.75 7.55)"/></g><g id="d"><path d="M-92.95 7.75q.95 1.6-.55 4.05-14.6-4-29.2-4.25l.5-4h.05-.05.05l29.2 4.2" fill="url(#g)" fill-rule="evenodd" transform="translate(123.2 9.5)"/><path d="M-122.15 3.55Q-114.6-5.5-100.5-9q7.3 3 8.05 9.6.75 6.55-1.5 2.05-2.3-4.55-2-2.85l3 7.95-29.2-4.2" fill="url(#h)" fill-rule="evenodd" transform="translate(123.2 9.5)"/><path d="M-92.95 7.75q.95 1.6-.55 4.05-14.6-4-29.2-4.25l.5-4h.05l29.2 4.2M-122.2 3.55h.05" fill="none" stroke="#fff" stroke-linecap="round" stroke-linejoin="round" transform="translate(123.2 9.5)"/><path d="M-122.15 3.55Q-114.6-5.5-100.5-9q7.3 3 8.05 9.6.75 6.55-1.5 2.05-2.3-4.55-2-2.85l3 7.95z" fill="none" stroke="red" stroke-linecap="round" stroke-linejoin="round" transform="translate(123.2 9.5)"/></g><linearGradient gradientTransform="matrix(-.0157 -.0091 .0025 -.0044 -107.85 7.65)" gradientUnits="userSpaceOnUse" id="g" spreadMethod="pad" x1="-819.2" x2="819.2"><stop offset=".204" stop-color="#ccc"/><stop offset=".804" stop-color="#e7e7e7"/><stop offset="1" stop-color="#fff"/></linearGradient><linearGradient gradientTransform="matrix(.0283 0 0 .0102 -104.45 -.65)" gradientUnits="userSpaceOnUse" id="h" spreadMethod="pad" x1="-819.2" x2="819.2"><stop offset=".004" stop-color="#fff"/><stop offset=".18" stop-color="#d10101"/><stop offset=".557" stop-color="#fe3636"/><stop offset=".906" stop-color="#fff"/></linearGradient><use height="3" transform="translate(.8)" width="3" xlink:href="#b" id="a"/><use height="14.9" width="15.5" xlink:href="#e" id="c"/><radialGradient cx="0" cy="0" gradientTransform="translate(2.6 -.2) scale(.0086)" gradientUnits="userSpaceOnUse" id="f" r="819.2" spreadMethod="pad"><stop offset=".204" stop-color="#ccc"/><stop offset=".757" stop-color="#e7e7e7"/><stop offset="1" stop-color="#fff"/></radialGradient><path d="M1.35 0h.2l.55.1.45.35q.45.45.45 1L2.55 2.6q-.45.4-1 .4l-.8-.2-.25-.2-.45-.7v-.15L0 1.45v-.1q.05-.5.5-.9l.25-.2Q1 .05 1.3 0h.05m.45.85L1.55.8Q1.2.75 1 1q-.2.15-.2.45v.15l.15.45H1l.05.05.2.1.3.05.55-.2.15-.6-.05-.3L2.1 1 2.05.95 1.9.85h-.1" fill-rule="evenodd" id="b"/></defs><g transform="matrix(2 0 0 2 79.241 154)"><use height="60" transform="translate(-21.55 -59.5)" width="43.4" xlink:href="#i"/><use height="3" transform="matrix(1.0012 0 0 1 -3.85 -57.5)" width="21.55" xlink:href="#j"/><use height="21.8" transform="matrix(-.9997 0 0 1 18.259 -76.5)" width="34.8" xlink:href="#k"/></g></svg>