<svg width="240.576" height="213.733" xml:space="preserve" style="clip-rule:evenodd;fill-rule:evenodd;stroke-linejoin:round;stroke-miterlimit:1.5" xmlns="http://www.w3.org/2000/svg"><path d="M561.631 309.834v-40.07l22.437 11.218 177.875 88.978-.266 39.897z" style="fill:#68532b;stroke:#000;stroke-width:.5px" transform="translate(-561.38 -196.374)"/><path d="M736.292 357.741v-20.076l20.036 10.018v20.075z" style="fill:none;stroke:#000;stroke-width:.5px;stroke-linecap:round" transform="translate(-560.775 -156.647)"/><path d="m736.292 347.723 20.036 10.018" style="fill:none;stroke:#000;stroke-width:.5px;stroke-linecap:round" transform="translate(-560.775 -156.606)"/><path d="M743.806 353.358c1.51 2.678 3.204 3.233 5.008 2.504" style="fill:none;stroke:#ae6028;stroke-width:.5px;stroke-linecap:round" transform="translate(-560.775 -156.063)"/><path d="M745.953 339.406v-1.879l1.879.939v3.757l-2.505-1.252c-.814-.699-.616-1.304 0-1.878zm-3.4-1.7v-1.879l1.879.939v3.757l-2.505-1.252c-.814-.699-.616-1.304 0-1.878z" style="fill:#e14040;stroke:#000;stroke-width:.2px;stroke-linecap:round" transform="translate(-559.075 -157.822)"/><path d="M750.117 336.408c0-.209-.136-.446-.303-.53l-2.473-1.237c-.168-.083-.303.019-.303.227v.758c0 .209.135.446.303.53l2.473 1.236c.167.084.303-.018.303-.227zm-3.335-1.668c0-.209-.136-.446-.303-.53l-2.474-1.236c-.167-.084-.303.018-.303.227v.757c0 .209.136.446.303.53l2.474 1.237c.167.083.303-.018.303-.227z" style="fill:#fff;stroke:#000;stroke-width:.2px;stroke-linecap:round" transform="translate(-560.775 -156.606)"/><path d="M743.806 343.341c1.702 2.959 3.365 3.362 5.008 2.504" style="fill:none;stroke:#ae6028;stroke-width:.5px;stroke-linecap:round" transform="translate(-560.775 -155.98)"/><path d="M495.87 197.459V174.92l17.531 8.765v22.54z" style="fill:none;stroke:#000;stroke-width:.5px" transform="translate(-342.853 -7.614)"/><path d="M495.87 174.92v-10.018l10.018 5.009z" style="fill:#91795f;stroke:#000;stroke-width:.5px" transform="translate(-342.853 -7.614)"/><path d="m505.888 169.911 7.709 3.855-.196 9.919-17.531-8.765z" style="fill:#404040;stroke:#000;stroke-width:.5px" transform="translate(-342.853 -7.614)"/><path d="m520.914 290.163 40.07-19.076 199.351 99.676-39.069 19.535z" style="fill:#fff;stroke:#000;stroke-width:.5px" transform="translate(-520.664 -216.732)"/><path d="m801.101 350.075-.655-39.437-39.11 19.514v39.805z" style="fill:#7d6534;stroke:#000;stroke-width:.5px;stroke-linecap:round" transform="translate(-560.775 -156.606)"/><path d="m612.325 145.493 8.668-4.431 1.349-20.613-6.261 3.131" style="fill:none;stroke:#000;stroke-width:.27px" transform="translate(-1135.435 -213.92) scale(1.86538)"/><path d="m519.596 307.313 25.11-12.808 37.626 18.813-25.363 12.362z" style="fill:#ccc" transform="translate(-512.81 -249.832)"/><path d="m614.838 145.489 11.261-5.631 17.531 8.766-11.27 5.635z" style="fill:url(#a)" transform="translate(-1135.435 -213.92) scale(1.86538)"/><path d="m617.224 142.989 15.136 7.513 11.27-8.139-15.027-7.513z" style="fill:none;stroke:#b3b3b3;stroke-width:.27px" transform="translate(-1140.005 -211.635) scale(1.86538)"/><path d="m618.586 143.615 11.27-8.139 1.252.626-11.27 8.139 1.252.626 11.27-8.139 1.252.626-11.27 8.139 1.253.626 11.269-8.139 1.253.626-11.27 8.139 3.756 1.879 11.27-8.14 1.252.627-11.269 8.139 1.252.626 11.27-8.139-3.757-1.879-11.288 8.149-1.234-.635 11.27-8.14" style="fill:none;stroke:#b3b3b3;stroke-width:.27px" transform="translate(-1140.005 -211.635) scale(1.86538)"/><path d="M643.457 111.194c1.368-.195 2.752.708 2.677 1.742-.081 1.127-1.82 1.68-3.005 1.461-1.359-.251-1.91-.428-2.004-1.461-.079-.872.848-1.53 2.332-1.742z" style="fill:#e9e6d6;stroke:#e1ddc8;stroke-width:.19px" transform="matrix(2.33173 0 0 2.79807 -1467.46 -269.884)"/><path d="M643.457 111.194c1.368-.195 2.752.708 2.677 1.742-.081 1.127-1.82 1.68-3.005 1.461-1.359-.251-1.91-.428-2.004-1.461-.079-.872.848-1.53 2.332-1.742z" style="fill:#e9e6d6;stroke:#e1ddc8;stroke-width:.19px" transform="matrix(2.33173 0 0 2.79807 -1452.091 -262.2)"/><path d="M643.457 111.194c1.368-.195 2.752.708 2.677 1.742-.081 1.127-1.82 1.68-3.005 1.461-1.359-.251-1.91-.428-2.004-1.461-.079-.872.848-1.53 2.332-1.742z" style="fill:#e9e6d6;stroke:#e1ddc8;stroke-width:.19px" transform="matrix(2.33173 0 0 2.79807 -1478.635 -261.96)"/><path d="M643.457 111.194c1.368-.195 2.752.708 2.677 1.742-.081 1.127-1.82 1.68-3.005 1.461-1.359-.251-1.91-.428-2.004-1.461-.079-.872.848-1.53 2.332-1.742z" style="fill:#e9e6d6;stroke:#e1ddc8;stroke-width:.19px" transform="matrix(2.33173 0 0 2.79807 -1463.617 -254.451)"/><path d="m617.224 142.989 15.136 7.513 11.27-8.139-15.027-7.513z" style="fill:none;stroke:#b3b3b3;stroke-width:.27px" transform="translate(-1137.771 -219.76) scale(1.86538)"/><path d="m618.586 143.615 11.27-8.139 1.252.626-11.27 8.139 1.252.626 11.27-8.139 1.252.626-11.27 8.139 1.253.626 11.269-8.139 1.253.626-11.27 8.139 3.756 1.879 11.27-8.14 1.252.627-11.269 8.139 1.252.626 11.27-8.139-3.757-1.879-11.288 8.149-1.234-.635 11.27-8.14" style="fill:none;stroke:#b3b3b3;stroke-width:.27px" transform="translate(-1137.771 -219.76) scale(1.86538)"/><path d="M643.457 111.194c1.368-.195 2.752.708 2.677 1.742-.081 1.127-1.82 1.68-3.005 1.461-1.359-.251-1.91-.428-2.004-1.461-.079-.872.848-1.53 2.332-1.742z" style="fill:#e9e6d6;stroke:#e1ddc8;stroke-width:.19px" transform="matrix(2.33173 0 0 2.79807 -1465.165 -278.1)"/><path d="M643.457 111.194c1.368-.195 2.752.708 2.677 1.742-.081 1.127-1.82 1.68-3.005 1.461-1.359-.251-1.91-.428-2.004-1.461-.079-.872.848-1.53 2.332-1.742z" style="fill:#e9e6d6;stroke:#e1ddc8;stroke-width:.19px" transform="matrix(2.33173 0 0 2.79807 -1449.796 -270.416)"/><path d="M643.457 111.194c1.368-.195 2.752.708 2.677 1.742-.081 1.127-1.82 1.68-3.005 1.461-1.359-.251-1.91-.428-2.004-1.461-.079-.872.848-1.53 2.332-1.742z" style="fill:#e9e6d6;stroke:#e1ddc8;stroke-width:.19px" transform="matrix(2.33173 0 0 2.79807 -1476.34 -270.177)"/><path d="M643.457 111.194c1.368-.195 2.752.708 2.677 1.742-.081 1.127-1.82 1.68-3.005 1.461-1.359-.251-1.91-.428-2.004-1.461-.079-.872.848-1.53 2.332-1.742z" style="fill:#e9e6d6;stroke:#e1ddc8;stroke-width:.19px" transform="matrix(2.33173 0 0 2.79807 -1461.322 -262.667)"/><path d="m617.224 142.989 15.136 7.513 11.27-8.139-15.027-7.513z" style="fill:none;stroke:#b3b3b3;stroke-width:.27px" transform="translate(-1135.435 -227.935) scale(1.86538)"/><path d="m618.586 143.615 11.27-8.139 1.252.626-11.27 8.139 1.252.626 11.27-8.139 1.252.626-11.27 8.139 1.253.626 11.269-8.139 1.253.626-11.27 8.139 3.756 1.879 11.27-8.14 1.252.627-11.269 8.139 1.252.626 11.27-8.139-3.757-1.879-11.288 8.149-1.234-.635 11.27-8.14" style="fill:none;stroke:#b3b3b3;stroke-width:.27px" transform="translate(-1135.435 -227.935) scale(1.86538)"/><path d="M643.457 111.194c1.368-.195 2.752.708 2.677 1.742-.081 1.127-1.82 1.68-3.005 1.461-1.359-.251-1.91-.428-2.004-1.461-.079-.872.848-1.53 2.332-1.742z" style="fill:#f5e7c9;stroke:#f2deb6;stroke-width:.19px" transform="matrix(2.33173 0 0 2.79807 -1474.292 -278.374)"/><path d="M643.457 111.194c1.368-.195 2.752.708 2.677 1.742-.081 1.127-1.82 1.68-3.005 1.461-1.359-.251-1.91-.428-2.004-1.461-.079-.872.848-1.53 2.332-1.742z" style="fill:#f5e7c9;stroke:#f2deb6;stroke-width:.19px" transform="matrix(2.33173 0 0 2.79807 -1460.122 -271.218)"/><path d="m617.224 142.989 15.136 7.513 11.27-8.139-15.027-7.513z" style="fill:none;stroke:#b3b3b3;stroke-width:.27px" transform="translate(-1133.1 -236.11) scale(1.86538)"/><path d="m618.586 143.615 11.27-8.139 1.252.626-11.27 8.139 1.252.626 11.27-8.139 1.252.626-11.27 8.139 1.253.626 11.269-8.139 1.253.626-11.27 8.139 3.756 1.879 11.27-8.14 1.252.627-11.269 8.139 1.252.626 11.27-8.139-3.757-1.879-11.288 8.149-1.234-.635 11.27-8.14" style="fill:none;stroke:#b3b3b3;stroke-width:.27px" transform="translate(-1133.1 -236.11) scale(1.86538)"/><path d="M643.457 111.194c1.368-.195 2.752.708 2.677 1.742-.081 1.127-1.82 1.68-3.005 1.461-1.359-.251-1.91-.428-2.004-1.461-.079-.872.848-1.53 2.332-1.742z" style="fill:url(#b)" transform="matrix(2.33173 0 0 2.79807 -1472.243 -286.57)"/><path d="M643.457 111.194c1.368-.195 2.752.708 2.677 1.742-.081 1.127-1.82 1.68-3.005 1.461-1.359-.251-1.91-.428-2.004-1.461-.079-.872.848-1.53 2.332-1.742z" style="fill:url(#c)" transform="matrix(2.33173 0 0 2.79807 -1458.443 -280.456)"/><path d="m640.932 151.031 1.349-20.613-6.164 3.179-17.531-8.765c-.866-.426-1.277-.838-1.291-1.238-.016-.435-3.698 21.483-3.725 21.899-.029.439.367.858 1.259 1.252l14.971 7.542c1.821.929 3.503.868 5.064-.028z" style="fill:url(#d);stroke:#c3dcdc;stroke-width:.27px" transform="translate(-1135.42 -214.683) scale(1.86538)"/><path d="m632.36 155.317 13.774-6.693v7.513l-13.774 6.887z" style="fill:#816c5a;stroke:#000;stroke-width:.27px" transform="translate(-1135.435 -213.92) scale(1.86538)"/><path d="m612.325 145.493 20.035 9.824v7.707l-20.035-10.018z" style="fill:#524646;stroke:#000;stroke-width:.27px" transform="translate(-1135.435 -213.92) scale(1.86538)"/><path d="m646.134 124.832-11.27 5.635v3.756l7.514-3.756-1.446 20.564 5.202-2.407z" style="fill:#e7e5d7;stroke:#000;stroke-width:.27px" transform="translate(-1135.435 -213.92) scale(1.86538)"/><path d="m646.134 124.832-11.27 5.635-20.035-10.018 11.27-5.635 20.035 10.018" style="fill:#f3f2ee;stroke:#000;stroke-width:.27px" transform="translate(-1135.435 -213.92) scale(1.86538)"/><path d="M614.829 120.449v3.757l20.035 10.017v-3.756z" style="fill:url(#e);stroke:#000;stroke-width:.27px" transform="translate(-1135.435 -213.92) scale(1.86538)"/><path d="M535.941 362.75v-30.053l5.009 2.504v25.044z" style="fill:#ccc;stroke:#000;stroke-width:.5px" transform="translate(-475.044 -286.578)"/><path d="m703.735 268.835-38.419-19.21 2.575-31.634 36.314 18.157z" style="fill:none;stroke:#b3b3b3;stroke-width:.5px" transform="translate(-559.668 -156.612)"/><path d="m540.95 360.245-20.036 10.018 80.141 40.07 20.035-10.017z" style="fill:#999;stroke:#000;stroke-width:.5px" transform="translate(-475.044 -286.578)"/><path d="M520.914 370.263v7.513l80.141 40.07v-7.513z" style="stroke:#000;stroke-width:.5px" transform="translate(-475.044 -286.578)"/><path d="M621.09 400.316v-40.071l-15.026 7.513-5.009 42.575" style="fill:none;stroke:#000;stroke-width:.5px" transform="translate(-475.044 -286.578)"/><path d="M625.704 242.698c.34-2.415 2.101-4.284 6.227-5.243 5.326.314 7.618 1.824 9.393 2.512 1.911 1.877 2.998 3.78.83 6.822-.604-1.785-3.319-4.629-10.988-.596-2.5.195-4.127-1.357-5.462-3.495z" style="fill:url(#f)" transform="translate(-568.738 -160.216)"/><path d="M644.363 249.133c-.821-.077-1.643-.489-2.464-1.952-.678-2.266.728-2.766 1.45-2.782.739 1.376.968 3.358 1.014 4.734z" style="fill:#a9a9a9" transform="translate(-568.738 -160.216)"/><path d="M625.704 242.698c.34-2.415 2.101-4.284 6.227-5.243 5.326.314 7.618 1.824 9.393 2.512 1.911 1.877 2.998 3.78.83 6.822-.604-1.785-3.319-4.629-10.988-.596-2.5.195-4.127-1.357-5.462-3.495z" style="fill:url(#g)" transform="translate(-560.396 -156.399)"/><path d="M644.363 249.133c-.821-.077-1.643-.489-2.464-1.952-.678-2.266.728-2.766 1.45-2.782.739 1.376.968 3.358 1.014 4.734z" style="fill:#a9a9a9" transform="translate(-560.396 -156.399)"/><path d="M625.704 242.698c.34-2.415 2.101-4.284 6.227-5.243 5.326.314 7.618 1.824 9.393 2.512 1.911 1.877 2.998 3.78.83 6.822-.604-1.785-3.319-4.629-10.988-.596-2.5.195-4.127-1.357-5.462-3.495z" style="fill:url(#h)" transform="rotate(-23.974 1.12 1464.348)"/><path d="M644.363 249.133c-.821-.077-1.643-.489-2.464-1.952-.678-2.266.728-2.766 1.45-2.782.739 1.376.968 3.358 1.014 4.734z" style="fill:#a9a9a9" transform="rotate(-23.974 1.12 1464.348)"/><path d="M625.704 242.698c.34-2.415 2.101-4.284 6.227-5.243 5.326.314 7.618 1.824 9.393 2.512 1.911 1.877 2.998 3.78.83 6.822-.604-1.785-3.319-4.629-10.988-.596-2.5.195-4.127-1.357-5.462-3.495z" style="fill:url(#i)" transform="rotate(-3.432 -2113.797 9219.749)"/><path d="M644.363 249.133c-.821-.077-1.643-.489-2.464-1.952-.678-2.266.728-2.766 1.45-2.782.739 1.376.968 3.358 1.014 4.734z" style="fill:#a9a9a9" transform="rotate(-3.432 -2113.797 9219.749)"/><path d="M625.704 242.698c.34-2.415 2.101-4.284 6.227-5.243 5.326.314 7.618 1.824 9.393 2.512 1.911 1.877 2.998 3.78.83 6.822-.604-1.785-3.319-4.629-10.988-.596-2.5.195-4.127-1.357-5.462-3.495z" style="fill:url(#j)" transform="rotate(-4.348 -1531.632 7188.192)"/><path d="M644.363 249.133c-.821-.077-1.643-.489-2.464-1.952-.678-2.266.728-2.766 1.45-2.782.739 1.376.968 3.358 1.014 4.734z" style="fill:#a9a9a9" transform="rotate(-4.348 -1531.632 7188.192)"/><path d="M625.704 242.698c.34-2.415 2.101-4.284 6.227-5.243 5.326.314 7.618 1.824 9.393 2.512 1.911 1.877 2.998 3.78.83 6.822-.604-1.785-3.319-4.629-10.988-.596-2.5.195-4.127-1.357-5.462-3.495z" style="fill:url(#k)" transform="rotate(-19.588 -25.544 1683.422)"/><path d="M644.363 249.133c-.821-.077-1.643-.489-2.464-1.952-.678-2.266.728-2.766 1.45-2.782.739 1.376.968 3.358 1.014 4.734z" style="fill:#a9a9a9" transform="rotate(-19.588 -25.544 1683.422)"/><path d="M528.428 371.515v-2.504l70.123 35.061v2.505z" style="fill:#fff;stroke:#000;stroke-width:.1px" transform="translate(-475.044 -286.578)"/><path d="m618.586 381.533-15.027 7.513-80.14-40.071-.313 2.661 80.175 39.775 15.305-7.652z" style="fill:#999;stroke:#000;stroke-width:.5px" transform="translate(-475.044 -286.578)"/><path d="m523.419 348.975 15.026-7.513 80.141 40.071-15.027 7.513z" style="fill:#a6a6a6;stroke:#000;stroke-width:.5px" transform="translate(-475.044 -286.578)"/><path d="M530.932 350.228v-2.505l72.627 36.314v2.504z" style="fill:#fff;stroke:#000;stroke-width:.1px" transform="translate(-475.044 -286.578)"/><path d="M627.848 214.5c-1.313-.178-3.339.524-4.514 1.452-1.366.459-1.487 1.062-1.608 2.074.15.796.092 1.676.933 2.334 1.744.862 3.425 1.16 5.03.777 1.125-1.211 1.851-1.656 3.114-2.59l.671-2.387 1.85-1.395c.058-.481-.386-.838-1.435-1.043-.213.715-.91 1.291-2.229 1.452z" style="fill:url(#l)" transform="translate(-560.775 -156.607)"/><path d="M626.445 220.411c-2.113.909-3.992-.326-4.031-1.63.899.937 1.798 1.313 2.697.867l.104-1.023 1.23.542.625-1.655c.821.365 1.728-.14 2.687-1.158l-1.601 1.932 1.867-.774-.882.981c-.535 1.803-1.47 2.328-2.696 1.918z" style="fill:#6e4200" transform="translate(-560.775 -156.607)"/><path d="M627.848 214.5c-1.036.03-2.893.859-4.514 1.452-1.128 1.078-1.274 1.617-1.608 2.074.15.796.092 1.676.933 2.334 1.744.862 3.425 1.16 5.03.777 1.125-1.211 1.851-1.656 3.114-2.59l.671-2.387c.266-.777.772-1.34 1.85-1.395.333-.581.383-1.117-1.435-1.043-.622.797-1.015 1.312-2.229 1.452z" style="fill:url(#m)" transform="translate(-554.973 -154.136)"/><path d="M626.445 220.411c-2.113.909-3.992-.326-4.031-1.63.899.937 1.189.974 2.087.528l.714-.684 1.23.542c.52-.084.827-.488.625-1.655.821.365 1.086.774 1.086.774l1.867-.774-.882.981c-.535 1.803-1.47 2.328-2.696 1.918z" style="fill:#6e4200" transform="translate(-554.973 -154.136)"/><path d="M627.143 214.693c-.928.207-2.207.758-3.809 1.259-1.155 1.039-1.337 1.476-1.608 2.074.15.796.092 1.676.933 2.334 1.744.862 3.425 1.16 5.03.777 1.125-1.211 1.851-1.656 3.114-2.59l.671-2.387 1.85-1.395c.309-.637 1.784-1.788-.656-1.043-.213.715-1.689 1.291-3.008 1.452z" style="fill:url(#n)" transform="translate(-549.172 -151.79)"/><path d="M626.445 220.411c-2.113.909-3.992-.326-4.031-1.63.554.591 2.801-.156 2.801-.156l1.23.542.625-1.655c.314.989.45 2.694 1.503-.17.152-.415.61.288 1.015-.142l1.302-.28-.867.592-.882.981c-.535 1.803-1.47 2.328-2.696 1.918z" style="fill:#6e4200" transform="translate(-549.172 -151.79)"/><path d="M627.848 214.5c-1.313-.178-3.339.524-4.514 1.452-1.366.459-1.487 1.062-1.608 2.074.15.796.092 1.676.933 2.334 1.744.862 3.425 1.16 5.03.777 1.125-1.211 1.851-1.656 3.114-2.59l.671-2.387c.248-.696.88-1.151 1.85-1.395.058-.481.595-.702-.453-.907-1.277.633-2.166 1.134-3.211 1.316z" style="fill:url(#o)" transform="translate(-542.742 -149.028)"/><path d="M626.445 220.411c-2.113.909-3.992-.326-4.031-1.63.45.468.831-.625 1.281-.47.449.156.966 1.56 1.416 1.337l.379-.569.955.088c.956.459 1.377.241.618-1.466.821.365 1.134.433 2.093-.585l1.762 1.023-1.405.76c-.535 1.803-1.842 1.922-3.068 1.512z" style="fill:#6e4200" transform="translate(-542.742 -149.028)"/><path d="M627.848 214.5c-1.17.36-3.121 1.343-4.514 1.452-.834.827-.754 1.913-1.517 2.48.15.797.001 1.27.842 1.928 1.818.79 3.532 1.051 5.03.777 1.125-1.211 1.851-1.656 3.114-2.59l.671-2.387 1.85-1.395c.058-.481-.386-.838-1.435-1.043-.213.715-.91 1.291-2.229 1.452z" style="fill:url(#p)" transform="translate(-536.94 -145.675)"/><path d="M626.445 220.411c-2.003.58-3.921-.54-4.031-1.63.899.937 1.112.753 2.01.307l1.604.518.417-.439.625-1.655c.45.63 1.544 1.954 1.454-.474-.009-.25.529 1.245 1.267.444l1.034-.948-.642 1.875-1.042.084c-.535 1.803-1.47 2.328-2.696 1.918z" style="fill:#6e4200" transform="translate(-536.94 -145.675)"/><path d="M627.848 214.5c-1.261.291-3.301.868-4.514 1.452-1.366.459-1.487 1.062-1.608 2.074.15.796.092 1.676.933 2.334 1.744.862 3.425 1.16 5.03.777 1.125-1.211 1.851-1.656 3.114-2.59l.671-2.387 1.681-1.697c.057-.482-.217-.536-1.266-.741.127 1.2-.618 1.709-2.229 1.452z" style="fill:url(#q)" transform="translate(-530.843 -142.626)"/><path d="M626.648 220.818c-2.113.909-3.959-.056-3.997-1.36.899.937 1.561.636 2.46.19l-.505-.718 1.839.237.574-2.382c.821.365 1.779.587 2.738-.431l-1.737 2.405 2.003-1.247-.882.981c-.535 1.803-1.267 2.734-2.493 2.325z" style="fill:#6e4200" transform="translate(-530.843 -142.626)"/><path d="M627.848 214.5c-1.313-.178-1.878.287-3.053 1.215-.671.226-2.03.73-2.247 1.057-.226.338-.761.739-.822 1.254.15.796.092 1.676.933 2.334 1.744.862 3.425 1.16 5.03.777 1.125-1.211 1.851-1.656 3.114-2.59l.671-2.387c.177-.831.588-1.467 1.85-1.395.058-.481-.386-.838-1.435-1.043-.213.715-.91 1.291-2.229 1.452z" style="fill:url(#r)" transform="translate(-524.744 -139.577)"/><path d="M626.445 220.411c-2.113.909-3.794.564-3.832-.74 1.372.937.753.287 1.651-.158l1.274-2.001.907 1.655.756-.529c.82.365 1.597-1.266 2.556-2.284l1.163 1.767-1.779.372c-.535 1.803-1.47 2.328-2.696 1.918z" style="fill:#6e4200" transform="translate(-524.744 -139.577)"/><path d="M627.848 214.5c-1.567 1.156-3.454 1.125-4.514 1.452-1.366.459-1.487 1.062-1.608 2.074.15.796.092 1.676.933 2.334 1.744.862 3.425 1.16 5.03.777 1.125-1.211 1.851-1.656 3.114-2.59l.671-2.387 1.85-1.395c.242-.619.214-1.288-1.435-1.043-.338 1.215-.969 1.525-2.229 1.452z" style="fill:url(#s)" transform="translate(-518.646 -136.527)"/><path d="M626.445 220.411c-2.113.909-3.992-.326-4.031-1.63.899.937 1.509 1.746 2.407 1.301l.394-1.457 1.23.542 1.082-.128-.457-1.527c.821.365 1.728-.14 2.687-1.158l-.65 1.517.916-.359-.882.981c-.535 1.803-1.47 2.328-2.696 1.918z" style="fill:#6e4200" transform="translate(-518.646 -136.527)"/><path d="M627.848 214.5c-1.101.162-3.1.907-4.514 1.452-1.366.459-.884 1.018-1.005 2.03.15.797-.511 1.72.33 2.378 1.744.862 3.425 1.16 5.03.777 1.125-1.211 1.851-1.656 3.114-2.59l.671-2.387 1.85-1.395c.058-.481.326-1.044-.723-1.249-.213.715-1.622 1.497-2.941 1.658z" style="fill:url(#t)" transform="translate(-512.009 -133.209)"/><path d="M626.445 220.411c-2.113.909-3.586-.462-3.624-1.766.898.938 1.391 1.449 2.29 1.003l1.334-.481-.905-1.112 1.53-.543c.821.365 1.728-.14 2.687-1.158l-1.601 1.932 1.867-.774-.882.981c-.535 1.803-1.47 2.328-2.696 1.918z" style="fill:#6e4200" transform="translate(-512.009 -133.209)"/><path d="M627.848 214.5c-1.621-.362-3.49.434-4.514 1.452-.659.964-.93 1.46-1.608 2.074.15.796.092 1.676.933 2.334 1.744.862 3.425 1.16 5.03.777 1.125-1.211 1.851-1.656 3.114-2.59l.671-2.387 1.85-1.395c.058-.481-.386-.838-1.435-1.043-.213.715-.91 1.291-2.229 1.452z" style="fill:url(#u)" transform="translate(-505.371 -129.89)"/><path d="M626.445 220.411c-2.113.909-4.576-.377-4.614-1.681.898.937 2.381 1.364 3.28.918l.104-1.023 1.23.542.761-1.185c.82.365.95.304.95.304l1.867-.774-.882.981c-.535 1.803-1.47 2.328-2.696 1.918z" style="fill:#6e4200" transform="translate(-505.371 -129.89)"/><path d="m520.914 370.263 5.009-42.575 80.141 40.07-5.009 42.575z" style="fill:url(#v);stroke:#000;stroke-width:.5px" transform="translate(-475.22 -286.663)"/><path d="m525.923 372.767 5.009-42.575-5.009-2.504-5.009 42.575zm80.141-5.009-5.009-2.504-5.009 42.575 5.009 2.504z" style="fill:#534545;stroke:#000;stroke-width:.5px" transform="translate(-475.044 -286.578)"/><path d="m601.055 410.333 20.035-10.017v7.513l-20.035 10.017z" style="fill:#595959;stroke:#000;stroke-width:.5px" transform="translate(-475.044 -286.578)"/><path d="m601.055 410.333 5.009-42.575 15.026-7.513v40.071l-5.009 2.504v-37.566l-7.513 3.757-5.009 40.07z" style="fill:#696060;stroke:#000;stroke-width:.5px" transform="translate(-475.044 -286.578)"/><path d="M606.064 367.758v-7.281l15.026-7.745v7.513z" style="fill:#f2f2f2;stroke:#000;stroke-width:.5px" transform="translate(-475.044 -286.578)"/><path d="m525.923 320.175 15.027-7.513 80.14 40.07-15.026 7.513z" style="fill:#f2f2f2;stroke:#000;stroke-width:.5px" transform="translate(-475.044 -286.578)"/><path d="m606.064 360.477-80.141-40.302v7.513l80.141 40.07z" style="fill:url(#w);stroke:#000;stroke-width:.5px" transform="translate(-475.044 -286.578)"/><path d="m318.058 345.219 1.253-.626 2.512.004 6.253 3.126h-2.505l-1.26.622z" style="fill:none;stroke:#000;stroke-width:.06px;stroke-linecap:round" transform="translate(-385.017 -466.466) scale(1.72877)"/><path d="m323.075 333.953 6.253 3.135v2.496l-6.261-3.131v.021z" style="fill:none;stroke:#000;stroke-width:.06px;stroke-linecap:round" transform="translate(-393.69 -446.99) scale(1.72877)"/><path d="m722.306 300.447 3.518-6.955-.224-2.222.006-4.326 2.165-1.083 4.399.003 10.754 5.409-6.5 5.409h-4.22l-3.68 6.874z" style="fill:#5f4848" transform="translate(-560.775 -156.607)"/><path d="m325.571 352.732-3.876 1.893v.654l2.504 1.252 3.812-1.906v-.673z" style="fill:#383838;stroke:#000;stroke-width:.06px;stroke-linecap:round" transform="translate(-393.276 -470) scale(1.72877)"/><path d="m13.748 8.941 14.996 7.533 1.567 10.119-1.253.626v2.504l-2.502 5.005-2.068-1.029-11.966-22.817V9.63Z" style="fill:#b6abab;stroke:#000;stroke-width:.06px;stroke-linecap:round" transform="translate(114.597 83.282) scale(1.72877)"/><path d="m326.824 348.349-1.051.526 1.812.906 1.051-.526z" style="fill:none;stroke:#000;stroke-width:.06px;stroke-linecap:round" transform="translate(-395.329 -461.831) scale(1.72877)"/><path d="m328.076 351.48 6.816-3.408-5.822-2.912-3.06 1.53 2.066 1.033z" style="fill:#a6a6a6;stroke:#000;stroke-width:.06px;stroke-linecap:round" transform="translate(-385.017 -466.466) scale(1.72877)"/><path d="m321.823 360.867 13.069-6.534v-6.261l-6.261 3.13-.555-3.479h-2.505l-1.26.63.008 2.501-2.496 5.013z" style="fill:#585858;stroke:#000;stroke-width:.06px;stroke-linecap:round" transform="translate(-385.017 -466.466) scale(1.72877)"/><path d="m40.07 27.16-10.483-5.241.724 4.674h2.504l4.195 2.097z" style="fill:#666;stroke:#000;stroke-width:.06px;stroke-linecap:round" transform="translate(114.597 83.282) scale(1.72877)"/><path d="m29.797 23.276 7.769 3.884-1.808.904-2.943-1.471h-2.504z" style="fill:#e6e6e6;stroke:#000;stroke-width:.06px;stroke-linecap:round" transform="translate(114.597 83.282) scale(1.72877)"/><path d="m37.566 27.16.034.261-1.564.782.278-.139v-.277" style="fill:none;stroke:#000;stroke-width:.06px;stroke-linecap:round" transform="translate(114.597 83.282) scale(1.72877)"/><path d="m35.062 25.908-1.808.904 1.252.626 1.808-.904 1.252.626-1.252.627-6.261-3.131 1.252-.626 1.252.626-2.363 1.182.023.153 1.205.602-.117-.059 2.504-1.252-3.756-1.878-.219.109" style="fill:none;stroke:#000;stroke-width:.06px;stroke-linecap:round" transform="translate(114.597 83.282) scale(1.72877)"/><path d="m27.463 17.656-15.935 13.29v1.282l21.295 10.647v-5.008l2.496-5.013-6.261-3.131-2.504 5.009zm1.725 13.352-2.035 4.023 3.596 1.799 2.129-3.976z" style="fill:#454545;stroke:#000;stroke-width:.06px;stroke-linecap:round" transform="translate(114.591 83.28) scale(1.72877)"/><path d="m299.493 348.84 5.867-20.536.707-.325 14.316 7.848-6.033 20.557-.832.382z" style="fill:#404040;stroke:#000;stroke-width:.05px;stroke-linecap:round" transform="matrix(1.72877 0 .30404 1.72877 -493.306 -466.466)"/><path d="m299.55 348.144 14.015 7.007 1.989-18.698-13.957-6.978z" style="fill:#fae8bd;stroke:#fff6b6;stroke-width:.17px;stroke-linecap:round" transform="translate(-385.897 -466.363) scale(1.72877)"/><path d="M320.555 342.71c-.305-.471-.322-.894.008-1.256l2.496 1.256c.35.587.329.994 0 1.253z" style="fill:#4d4d4d;stroke:#5b5b5b;stroke-width:.06px;stroke-linecap:round" transform="translate(-385.716 -460.185) scale(1.72877)"/><path d="M451.119-33.575c.746 0 1.788-.065 2.259.559.356.471 4.34 4.527 5.782 4.794 1.083.2.816 3.645.736 4.242-.231 1.728-.059 3.482-.688 4.453-4.159 6.418 4.621 2.525 6.102-2.921" style="fill:none;stroke:#5b5b5b;stroke-width:.3px;stroke-linecap:round" transform="translate(-271.794 166.034)"/><path d="M326.824 343.341c.525-.243.591-.638 0-1.253l-3.304-1.652a1.706 1.706 0 0 0-.807-.049l-2.158 1.079 2.524 1.242c.331.591.326 1.004 0 1.244l2.492-1.238z" style="fill:#737373;stroke:#000;stroke-width:.06px;stroke-linecap:round" transform="translate(-385.716 -460.213) scale(1.72877)"/><path d="M750.631 316.32c-.312-.414-.135-.899.531-1.232.907-.454 2.38-.454 3.287 0 .666.333.843.818.531 1.232.312.414.135.9-.531 1.233-.907.454-2.38.454-3.287 0-.666-.333-.843-.819-.531-1.233z" style="fill:#79689f;stroke:#000;stroke-width:.1px;stroke-linecap:round" transform="translate(-543.97 -175.323)"/><path d="M751.162 315.088c.907-.454 2.38-.454 3.287 0 .907.453.907 1.19 0 1.643-.907.454-2.38.454-3.287 0-.907-.453-.907-1.19 0-1.643z" style="fill:#483684;stroke:#000;stroke-width:.13px;stroke-linecap:round" transform="matrix(.74092 0 0 .74093 -348.935 -93.478)"/><path d="M745.927 315.701c0 .271-.207.543-.621.75-.828.414-2.172.414-3 0-.345-.173-.547-.39-.604-.615v0a.54.54 0 0 1-.001-.268l-.016-6.885 4.224-.135z" style="fill:#919191;stroke:#000;stroke-width:.14px;stroke-linecap:round" transform="matrix(.69462 0 0 .69463 -307.786 -78.596)"/><circle cx="743.5" cy="315.5" r="1.5" style="fill:#aab5e7;stroke:#000;stroke-width:.1px;stroke-linecap:round" transform="scale(.98235 .49117) rotate(-45 431.023 936.827)"/><path d="m661.161 355.236 20.076-4.988" style="fill:none;stroke:#000;stroke-width:.14px;stroke-linecap:round" transform="translate(-293.377 -116.212) scale(.72815)"/><ellipse cx="751.8" cy="620.693" rx="5.6" ry="4.48" style="fill:#9b89db;stroke:#000;stroke-width:.19px;stroke-linecap:round" transform="matrix(.60785 -.30393 0 .75982 -263.38 -100.624)"/><ellipse cx="751.8" cy="620.693" rx="5.6" ry="4.48" style="fill:#67407f;stroke:#000;stroke-width:.19px;stroke-linecap:round" transform="matrix(.60785 -.30393 0 .75982 -262.528 -100.198)"/><path d="M751.8 616.213c1.184 0 2.283.295 3.188.798 1.457.809 2.412 2.157 2.412 3.682 0 2.473-2.509 4.48-5.6 4.48-3.091 0-5.6-2.007-5.6-4.48 0-2.472 2.509-4.48 5.6-4.48z" style="fill:#cabd97;stroke:#000;stroke-width:.19px;stroke-linecap:round" transform="matrix(.60785 -.30393 0 .75982 -261.677 -99.773)"/><path d="M672.43 352.732c2.765-1.382 5.009-.26 5.009 2.504 0 2.765-2.244 6.131-5.009 7.514-2.764 1.382-5.008.26-5.008-2.505 0-2.187 1.405-4.752 3.361-6.412a8.306 8.306 0 0 1 1.647-1.101zm0 1.695c1.829-.914 3.314-.172 3.314 1.657s-1.485 4.056-3.314 4.97c-1.828.915-3.313.172-3.313-1.656 0-1.829 1.485-4.056 3.313-4.971z" style="fill:#ca964f;stroke:#000;stroke-width:.15px;stroke-linecap:round" transform="translate(-260.826 -99.347) scale(.6796)"/><path d="m681.196 350.269-6.288 1.552c.496.355 1.827 1.034 2.072 2.498l-8.897 2.27-3.393-1.466.432-.871-3.961.984 5.008 2.505 20.036-5.009z" style="fill:#867e67;stroke:#000;stroke-width:.14px;stroke-linecap:round" transform="translate(-293.377 -116.212) scale(.72815)"/><path d="m681.196 350.228 5.009 2.504v-1.041l-5.009-2.505v1.042l5.009 2.504" style="fill:#595959;stroke:#000;stroke-width:.14px;stroke-linecap:round" transform="translate(-293.377 -116.212) scale(.72815)"/><path d="m673.204 351.241 11.233-.434 1.083.541-11.211.445" style="fill:#cabd97;fill-opacity:.77;stroke:#000;stroke-width:.14px;stroke-linecap:round" transform="translate(-293.377 -116.212) scale(.72815)"/><path d="m672.036 350.656 11.453-.323-1.21-.605-11.412.344" style="fill:#9b89db;stroke:#000;stroke-width:.14px;stroke-linecap:round" transform="translate(-293.377 -116.212) scale(.72815)"/><path d="m661.161 365.254 5.008 2.504 20.036-10.017v-5.009l-20.036 5.009-5.008-2.505z" style="fill:#534545;stroke:#000;stroke-width:.14px;stroke-linecap:round" transform="translate(-293.377 -116.212) scale(.72815)"/><defs><linearGradient id="d" x1="0" y1="0" x2="1" y2="0" gradientUnits="userSpaceOnUse" gradientTransform="rotate(8.622 -607.276 4160.65) scale(33.90332)"><stop offset="0" style="stop-color:white;stop-opacity:0"/><stop offset=".09" style="stop-color:white;stop-opacity:.31"/><stop offset=".19" style="stop-color:white;stop-opacity:.59"/><stop offset=".52" style="stop-color:white;stop-opacity:.7"/><stop offset="1" style="stop-color:black;stop-opacity:0"/></linearGradient><linearGradient id="l" x1="0" y1="0" x2="1" y2="0" gradientUnits="userSpaceOnUse" gradientTransform="rotate(153.435 291.505 182) scale(11.0052)"><stop offset="0" style="stop-color:#f0e2d6;stop-opacity:1"/><stop offset=".18" style="stop-color:#bba081;stop-opacity:1"/><stop offset=".39" style="stop-color:#896230;stop-opacity:1"/><stop offset="1" style="stop-color:#74470e;stop-opacity:1"/></linearGradient><linearGradient id="m" x1="0" y1="0" x2="1" y2="0" gradientUnits="userSpaceOnUse" gradientTransform="rotate(153.435 291.505 182) scale(11.0052)"><stop offset="0" style="stop-color:#f0e2d6;stop-opacity:1"/><stop offset=".18" style="stop-color:#bba081;stop-opacity:1"/><stop offset=".39" style="stop-color:#896230;stop-opacity:1"/><stop offset="1" style="stop-color:#74470e;stop-opacity:1"/></linearGradient><linearGradient id="n" x1="0" y1="0" x2="1" y2="0" gradientUnits="userSpaceOnUse" gradientTransform="rotate(153.435 291.505 182) scale(11.0052)"><stop offset="0" style="stop-color:#f0e2d6;stop-opacity:1"/><stop offset=".18" style="stop-color:#bba081;stop-opacity:1"/><stop offset=".39" style="stop-color:#896230;stop-opacity:1"/><stop offset="1" style="stop-color:#74470e;stop-opacity:1"/></linearGradient><linearGradient id="o" x1="0" y1="0" x2="1" y2="0" gradientUnits="userSpaceOnUse" gradientTransform="rotate(153.435 291.505 182) scale(11.0052)"><stop offset="0" style="stop-color:#f0e2d6;stop-opacity:1"/><stop offset=".18" style="stop-color:#bba081;stop-opacity:1"/><stop offset=".39" style="stop-color:#896230;stop-opacity:1"/><stop offset="1" style="stop-color:#74470e;stop-opacity:1"/></linearGradient><linearGradient id="p" x1="0" y1="0" x2="1" y2="0" gradientUnits="userSpaceOnUse" gradientTransform="rotate(153.435 291.505 182) scale(11.0052)"><stop offset="0" style="stop-color:#f0e2d6;stop-opacity:1"/><stop offset=".18" style="stop-color:#bba081;stop-opacity:1"/><stop offset=".39" style="stop-color:#896230;stop-opacity:1"/><stop offset="1" style="stop-color:#74470e;stop-opacity:1"/></linearGradient><linearGradient id="q" x1="0" y1="0" x2="1" y2="0" gradientUnits="userSpaceOnUse" gradientTransform="rotate(153.435 291.505 182) scale(11.0052)"><stop offset="0" style="stop-color:#f0e2d6;stop-opacity:1"/><stop offset=".18" style="stop-color:#bba081;stop-opacity:1"/><stop offset=".39" style="stop-color:#896230;stop-opacity:1"/><stop offset="1" style="stop-color:#74470e;stop-opacity:1"/></linearGradient><linearGradient id="r" x1="0" y1="0" x2="1" y2="0" gradientUnits="userSpaceOnUse" gradientTransform="rotate(153.435 291.505 182) scale(11.0052)"><stop offset="0" style="stop-color:#f0e2d6;stop-opacity:1"/><stop offset=".18" style="stop-color:#bba081;stop-opacity:1"/><stop offset=".39" style="stop-color:#896230;stop-opacity:1"/><stop offset="1" style="stop-color:#74470e;stop-opacity:1"/></linearGradient><linearGradient id="s" x1="0" y1="0" x2="1" y2="0" gradientUnits="userSpaceOnUse" gradientTransform="rotate(153.435 291.505 182) scale(11.0052)"><stop offset="0" style="stop-color:#f0e2d6;stop-opacity:1"/><stop offset=".18" style="stop-color:#bba081;stop-opacity:1"/><stop offset=".39" style="stop-color:#896230;stop-opacity:1"/><stop offset="1" style="stop-color:#74470e;stop-opacity:1"/></linearGradient><linearGradient id="t" x1="0" y1="0" x2="1" y2="0" gradientUnits="userSpaceOnUse" gradientTransform="rotate(153.435 291.505 182) scale(11.0052)"><stop offset="0" style="stop-color:#f0e2d6;stop-opacity:1"/><stop offset=".18" style="stop-color:#bba081;stop-opacity:1"/><stop offset=".39" style="stop-color:#896230;stop-opacity:1"/><stop offset="1" style="stop-color:#74470e;stop-opacity:1"/></linearGradient><linearGradient id="u" x1="0" y1="0" x2="1" y2="0" gradientUnits="userSpaceOnUse" gradientTransform="rotate(153.435 291.505 182) scale(11.0052)"><stop offset="0" style="stop-color:#f0e2d6;stop-opacity:1"/><stop offset=".18" style="stop-color:#bba081;stop-opacity:1"/><stop offset=".39" style="stop-color:#896230;stop-opacity:1"/><stop offset="1" style="stop-color:#74470e;stop-opacity:1"/></linearGradient><linearGradient id="v" x1="0" y1="0" x2="1" y2="0" gradientUnits="userSpaceOnUse" gradientTransform="rotate(5.916 -3119.523 5249.748) scale(84.94738)"><stop offset="0" style="stop-color:#ff8700;stop-opacity:0"/><stop offset=".23" style="stop-color:#ff8700;stop-opacity:.31"/><stop offset=".5" style="stop-color:#ff8700;stop-opacity:.4"/><stop offset=".76" style="stop-color:#e78b24;stop-opacity:.31"/><stop offset="1" style="stop-color:#999;stop-opacity:0"/></linearGradient><radialGradient id="a" cx="0" cy="0" r="1" gradientUnits="userSpaceOnUse" gradientTransform="matrix(-16.358 -8.70512 4.35388 -8.18149 626.825 145.756)"><stop offset="0" style="stop-color:black;stop-opacity:1"/><stop offset="1" style="stop-color:#bababa;stop-opacity:1"/></radialGradient><radialGradient id="b" cx="0" cy="0" r="1" gradientUnits="userSpaceOnUse" gradientTransform="matrix(-.07509 2.54293 -3.05151 -.06257 643.629 111.818)"><stop offset="0" style="stop-color:#eb5555;stop-opacity:1"/><stop offset=".53" style="stop-color:#f07c7c;stop-opacity:1"/><stop offset="1" style="stop-color:white;stop-opacity:1"/></radialGradient><radialGradient id="c" cx="0" cy="0" r="1" gradientUnits="userSpaceOnUse" gradientTransform="matrix(-.07509 2.54293 -3.05151 -.06257 643.629 111.818)"><stop offset="0" style="stop-color:#eb5555;stop-opacity:1"/><stop offset=".53" style="stop-color:#f07c7c;stop-opacity:1"/><stop offset="1" style="stop-color:white;stop-opacity:1"/></radialGradient><radialGradient id="e" cx="0" cy="0" r="1" gradientUnits="userSpaceOnUse" gradientTransform="matrix(-19.4969 16.1224 -11.0842 -13.4041 624.847 127.336)"><stop offset="0" style="stop-color:#f7e25f;stop-opacity:1"/><stop offset=".29" style="stop-color:#f7e25f;stop-opacity:1"/><stop offset=".43" style="stop-color:#cfb33e;stop-opacity:1"/><stop offset=".59" style="stop-color:#a6831d;stop-opacity:1"/><stop offset="1" style="stop-color:#936d0d;stop-opacity:1"/></radialGradient><radialGradient id="f" cx="0" cy="0" r="1" gradientUnits="userSpaceOnUse" gradientTransform="matrix(25.9409 2.29573 -1.21439 13.7221 630.731 239.047)"><stop offset="0" style="stop-color:#c48951;stop-opacity:1"/><stop offset=".18" style="stop-color:#9f6e3a;stop-opacity:1"/><stop offset=".39" style="stop-color:#7c5425;stop-opacity:1"/><stop offset="1" style="stop-color:#6d491c;stop-opacity:1"/></radialGradient><radialGradient id="g" cx="0" cy="0" r="1" gradientUnits="userSpaceOnUse" gradientTransform="matrix(25.9409 2.29573 -1.21439 13.7221 630.731 239.047)"><stop offset="0" style="stop-color:#c48951;stop-opacity:1"/><stop offset=".18" style="stop-color:#9f6e3a;stop-opacity:1"/><stop offset=".39" style="stop-color:#7c5425;stop-opacity:1"/><stop offset="1" style="stop-color:#6d491c;stop-opacity:1"/></radialGradient><radialGradient id="h" cx="0" cy="0" r="1" gradientUnits="userSpaceOnUse" gradientTransform="matrix(25.9409 2.29573 -1.21439 13.7221 630.731 239.047)"><stop offset="0" style="stop-color:#c48951;stop-opacity:1"/><stop offset=".18" style="stop-color:#9f6e3a;stop-opacity:1"/><stop offset=".39" style="stop-color:#7c5425;stop-opacity:1"/><stop offset="1" style="stop-color:#6d491c;stop-opacity:1"/></radialGradient><radialGradient id="i" cx="0" cy="0" r="1" gradientUnits="userSpaceOnUse" gradientTransform="matrix(25.9409 2.29573 -1.21439 13.7221 630.731 239.047)"><stop offset="0" style="stop-color:#c48951;stop-opacity:1"/><stop offset=".18" style="stop-color:#9f6e3a;stop-opacity:1"/><stop offset=".39" style="stop-color:#7c5425;stop-opacity:1"/><stop offset="1" style="stop-color:#6d491c;stop-opacity:1"/></radialGradient><radialGradient id="j" cx="0" cy="0" r="1" gradientUnits="userSpaceOnUse" gradientTransform="matrix(25.9409 2.29573 -1.21439 13.7221 630.731 239.047)"><stop offset="0" style="stop-color:#c48951;stop-opacity:1"/><stop offset=".18" style="stop-color:#9f6e3a;stop-opacity:1"/><stop offset=".39" style="stop-color:#7c5425;stop-opacity:1"/><stop offset="1" style="stop-color:#6d491c;stop-opacity:1"/></radialGradient><radialGradient id="k" cx="0" cy="0" r="1" gradientUnits="userSpaceOnUse" gradientTransform="matrix(25.9409 2.29573 -1.21439 13.7221 630.731 239.047)"><stop offset="0" style="stop-color:#c48951;stop-opacity:1"/><stop offset=".18" style="stop-color:#9f6e3a;stop-opacity:1"/><stop offset=".39" style="stop-color:#7c5425;stop-opacity:1"/><stop offset="1" style="stop-color:#6d491c;stop-opacity:1"/></radialGradient><radialGradient id="w" cx="0" cy="0" r="1" gradientUnits="userSpaceOnUse" gradientTransform="matrix(108.083 123.449 -73.2978 64.1741 557.099 300.296)"><stop offset="0" style="stop-color:white;stop-opacity:1"/><stop offset=".23" style="stop-color:#fefbea;stop-opacity:1"/><stop offset=".29" style="stop-color:#fbf0ac;stop-opacity:1"/><stop offset=".35" style="stop-color:#f7e25f;stop-opacity:1"/><stop offset=".46" style="stop-color:#936d0d;stop-opacity:1"/><stop offset="1" style="stop-color:#bb9909;stop-opacity:1"/></radialGradient></defs></svg>