<svg width="241" height="214" xml:space="preserve" style="fill-rule:evenodd;clip-rule:evenodd;stroke-linejoin:round;stroke-miterlimit:1.5" xmlns="http://www.w3.org/2000/svg"><path d="M561.631 309.834v-40.07l22.437 11.218 177.875 88.978-.266 39.897-200.046-100.023Z" style="fill:#fdf3e6;stroke:#000;stroke-width:.5px" transform="translate(-561.132 -196.125)"/><path d="M736.292 357.741v-20.076l20.036 10.018v20.075l-20.036-10.017Z" style="fill:none;stroke:#000;stroke-width:.5px;stroke-linecap:round" transform="translate(-560.525 -156.398)"/><path d="m736.292 347.723 20.036 10.018" style="fill:none;stroke:#000;stroke-width:.5px;stroke-linecap:round" transform="translate(-560.525 -156.357)"/><path d="M743.806 353.358c1.51 2.678 3.204 3.233 5.008 2.504" style="fill:none;stroke:#ae6028;stroke-width:.5px;stroke-linecap:round" transform="translate(-560.525 -155.814)"/><path d="M745.953 339.406v-1.879l1.879.939v3.757l-2.505-1.252c-.814-.699-.616-1.304 0-1.878l.626.313Zm-3.4-1.7v-1.879l1.879.939v3.757l-2.505-1.252c-.814-.699-.616-1.304 0-1.878l.626.313Z" style="fill:none;stroke:#000;stroke-width:.2px;stroke-linecap:round" transform="translate(-558.825 -157.573)"/><path d="M743.806 343.341c1.702 2.959 3.365 3.362 5.008 2.504" style="fill:none;stroke:#ae6028;stroke-width:.5px;stroke-linecap:round" transform="translate(-560.525 -155.731)"/><path d="M495.87 197.459V174.92l17.531 8.765v22.54l-17.531-8.766Z" style="fill:none;stroke:#000;stroke-width:.5px" transform="translate(-342.604 -7.365)"/><path d="M495.87 174.92v-10.018l10.018 5.009-10.018 5.009Z" style="fill:#91795f;stroke:#000;stroke-width:.5px" transform="translate(-342.604 -7.365)"/><path d="m505.888 169.911 7.709 3.855-.196 9.919-17.531-8.765 10.018-5.009Z" style="fill:#404040;stroke:#000;stroke-width:.5px" transform="translate(-342.604 -7.365)"/><path d="m520.914 290.163 40.07-19.076 199.351 99.676-39.069 19.535-200.352-100.135Z" style="fill:#a5bee4;stroke:#000;stroke-width:.5px" transform="translate(-520.415 -216.483)"/><path d="m801.101 350.075-.655-39.437-39.11 19.514v39.805l39.765-19.882Z" style="fill:#fef6ed;stroke:#000;stroke-width:.5px;stroke-linecap:round" transform="translate(-560.525 -156.357)"/><path d="M535.941 362.75v-30.053l5.009 2.504v25.044l-5.009 2.505Z" style="fill:#ccc;stroke:#000;stroke-width:.5px" transform="translate(-518.134 -303.637)"/><path d="m703.735 268.835-38.419-19.21 2.575-31.634 36.314 18.157-.47 32.687Z" style="fill:none;stroke:#b3b3b3;stroke-width:.5px" transform="translate(-602.759 -173.671)"/><path d="m540.95 360.245-20.036 10.018 80.141 40.07 20.035-10.017-80.14-40.071Z" style="fill:#999;stroke:#000;stroke-width:.5px" transform="translate(-518.134 -303.637)"/><path d="M520.914 370.263v7.513l80.141 40.07v-7.513l-80.141-40.07Z" style="fill:#404040;stroke:#000;stroke-width:.5px" transform="translate(-518.134 -303.637)"/><path d="M621.09 400.316v-40.071l-15.026 7.513-5.009 42.575" style="fill:none;stroke:#000;stroke-width:.5px" transform="translate(-518.134 -303.637)"/><path d="M550.752 422.041c-4.979 1.623-10.185 2.782-11.799 4.866-3.767 4.863 5.438 9.229 15.998-1.035.906-1.17.213-5.461-4.199-3.831Z" style="fill:#e59f51;stroke:#000;stroke-width:.12px" transform="translate(-431.151 -290.287) scale(.82843)"/><path d="m554.951 423.367 3.529-1.764" style="fill:none;stroke:#b99770;stroke-width:.6px" transform="translate(-431.151 -290.287) scale(.82843)"/><path d="M550.752 422.041c-4.979 1.623-10.185 2.782-11.799 4.866-3.767 4.863 5.438 9.229 15.998-1.035.906-1.17.213-5.461-4.199-3.831Z" style="fill:#e59f51;stroke:#000;stroke-width:.12px" transform="translate(-425.605 -286.85) scale(.82843)"/><path d="m554.951 423.367 3.529-1.764" style="fill:none;stroke:#b99770;stroke-width:.6px" transform="translate(-425.605 -286.85) scale(.82843)"/><path d="M550.752 422.041c-4.979 1.623-10.185 2.782-11.799 4.866-3.767 4.863 5.438 9.229 15.998-1.035.906-1.17.213-5.461-4.199-3.831Z" style="fill:#e59f51;stroke:#000;stroke-width:.12px" transform="translate(-419.293 -283.694) scale(.82843)"/><path d="m554.951 423.367 3.529-1.764" style="fill:none;stroke:#b99770;stroke-width:.6px" transform="translate(-419.293 -283.694) scale(.82843)"/><path d="M550.752 422.041c-4.979 1.623-10.185 2.782-11.799 4.866-3.767 4.863 5.438 9.229 15.998-1.035.906-1.17.213-5.461-4.199-3.831Z" style="fill:#e59f51;stroke:#000;stroke-width:.12px" transform="translate(-427.023 -291.149) scale(.82843)"/><path d="m554.951 423.367 3.529-1.764" style="fill:none;stroke:#b99770;stroke-width:.6px" transform="translate(-427.023 -291.149) scale(.82843)"/><path d="M550.752 422.041c-4.979 1.623-10.185 2.782-11.799 4.866-3.767 4.863 5.438 9.229 15.998-1.035.906-1.17.213-5.461-4.199-3.831Z" style="fill:#e59f51;stroke:#000;stroke-width:.12px" transform="translate(-420.705 -288.098) scale(.82843)"/><path d="m554.951 423.367 3.529-1.764" style="fill:none;stroke:#b99770;stroke-width:.6px" transform="translate(-420.705 -288.098) scale(.82843)"/><path d="M528.428 454.16c1.905 1.313 4.207 2.427 6.796 3.398 2.076-.336 3.772-1.052 4.824-2.412l.902-11.265c-1.159 1.42-3.361 2.461-6.398 3.199-3.855-1.308-6.653-2.711-8.629-4.19l2.505 11.27Z" style="fill:#d38d3f;stroke:#000;stroke-width:.13px" transform="translate(-340.063 -259.811) scale(.7418)"/><path d="m526.264 442.323-2.315-4.248c-.487-1.841-.386-3.254 1.007-3.728l2.197.415c2.015 2.993 1.139 5.724 1.04 8.525l-1.929-.964Z" style="fill:#d3c05f;stroke:#000;stroke-width:.13px" transform="translate(-348.007 -253.581) scale(.7418)"/><path d="M527.984 434.347c-.099-1.322-1.05-2.799-3.028-4.462.193-2.503 1.299-3.08 3.028-2.338 4.228 3.808 4.298 6.197 3.422 6.8l-1.182 2.633-2.24-2.633Z" style="fill:#c9b061;stroke:#000;stroke-width:.13px" transform="translate(-346.79 -249.864) scale(.7418)"/><path d="M530.067 438.314c-.128-1.704-.209-3.412.338-5.178l1.894-.947c1.5.141 1.932 1.164 1.895 2.842l-.871 6.55-2.918-.278-.338-2.989Z" style="fill:#b68544;stroke:#000;stroke-width:.13px" transform="translate(-347.515 -251.443) scale(.7418)"/><path d="M536.844 439.934c.457-1.407 1.244-2.857 3.068-4.435.72.873 1.248 1.811 1.456 2.855-.975 3.086-1.949 4.586-2.923 5.788h-3.816l2.215-4.208Z" style="fill:#d6ba2e;stroke:#000;stroke-width:.13px" transform="translate(-348.518 -252.83) scale(.7418)"/><path d="m530.748 441.891-3.909-6.056c-.246-2.482.857-2.754 2.49-2.161 1.906 1.981 2.819 3.962 3.14 5.943-.023 2.592-.673 3.097-1.721 2.274Z" style="fill:#dfcc6c;stroke:#000;stroke-width:.13px" transform="translate(-348.548 -251.429) scale(.7418)"/><path d="M533.58 440.8c-1.195-2.295-1.452-4.693-1.111-7.159l2.076-3.11c1.147.072 1.922.665 2.215 1.932l-1.647 8.337h-1.533Z" style="fill:#d3c05f;stroke:#000;stroke-width:.13px" transform="translate(-347.191 -250.076) scale(.7418)"/><path d="M528.428 454.16c1.905 1.313 4.207 2.427 6.796 3.398 2.076-.336 3.772-1.052 4.824-2.412l.902-11.265c-1.159 1.42-3.361 2.461-6.398 3.199-3.855-1.308-6.653-2.711-8.629-4.19l2.505 11.27Z" style="fill:#d38d3f;stroke:#000;stroke-width:.13px" transform="translate(-348.725 -255.48) scale(.7418)"/><path d="m127.488 340.497-1.016-3.417 11.27 5.634-5.468.23-4.786-2.447Z" style="fill:#d92626" transform="translate(-47.619 -240.21) scale(.92537)"/><path d="M121.463 339.584c2.329.144 4.337.448 6.025.913.184.051-1.193-3.472-1.016-3.417.332.102 1.32 3.612 1.625 3.728 1.163.443 3.019 1.157 3.792 1.794.074.062 5.782.049 5.853.112.057.051-5.523.178-5.468.23.862.821 1.432 1.788 1.711 2.901l-1.252 8.139-10.018-5.009-1.252-9.391Z" style="fill:#e1dfd2;stroke:#000;stroke-width:.11px;stroke-linecap:round" transform="translate(-47.619 -240.21) scale(.92537)"/><path d="M385.241 245.05c-.11.137-.264.266-.44.385-.521.191-1.081.172-1.658.054-.355-.329-.733-.946-.414-1.737.495-.272 1.327-.205 1.935-.015.645.37.819.717.73 1.03.126-.137.334-.267.655-.386.677-.069 1.214.13 1.572.627.283.854.042 1.256-.506 1.389a3.991 3.991 0 0 1-1.664-.656c-.139-.213-.26-.454-.21-.691Z" style="fill:#d57d29;stroke:#000;stroke-width:.07px;stroke-linecap:round" transform="translate(-503.325 -286.834) scale(1.49109)"/><path d="m122.715 348.975-1.252-9.391 2.505 2.922c.952 2.312 2.303 2.438 3.756 1.997l6.261 1.342-1.252 8.139h-5.009l-5.009-2.504v-2.505Z" style="fill:#e9b83a;stroke:#000;stroke-width:.11px;stroke-linecap:round" transform="translate(-47.619 -240.21) scale(.92537)"/><path d="M122.586 348.008c.852.524.121-.318 1.285-1.854l.21-.252c.192-.453.327-1.069.598-1.495.001-.013.005-.019.012-.019.118.043.692 1.966.751 1.965l1.03.381c.22-.48.513-1.241.931-1.676.433.626.501 1.217.827 1.897.538.226 1.874 1.573 2.369 2.221.315.413.348 1.723.882 1.678 2.497-.212 1.856.742 0 1.252-.403.111.117 1.016.081 1.375-.02.209.036.294-.081.503 1 .081-2.369.011-3.757 0 0 0-4.74-2.359-4.76-2.38-.395-.43-.14-1.661-.017-2.281.01-.05-.195-.197-.232-.228m1.717-.533v-.269l.278.139v.251l-.139.218-.139-.07.102-.218-.102-.051Zm-.4.07-.098-.06.112-.198-.082-.051.04-.239.168.079v.25l-.14.219Z" style="fill:#fff" transform="translate(-47.619 -240.21) scale(.92537)"/><path d="m87.751 30.737.489 6.763-.1 2.2c-.042 1.934-.335 3.576-.9 4.9l-2 4.1-1.135-.054.294 6.328 1.727-.035-.085-3.639 5.267.808 9.033-.808v3.9l2.264.084.336-6.584-3.73.49c1.239-5.829 1.077-13.06 1.282-19.924l-7.816 1.366-4.926.105Zm1.795 2.803c2.779.446 6.564-1.191 8.456-1.191.544 5.927-.415 11.179-.868 16.941-3.351.739-7.339.765-10.4-.59l.622-.128.913-1.663c.882-1.88 1.399-4.034 1.583-6.437l-.306-6.932Z" style="fill-rule:nonzero" transform="matrix(.08595 .04297 0 .08595 61.568 74.9)"/><path d="m67.924 80.797.024.01.064.04.052.08a.401.401 0 0 1 .053.193.579.579 0 0 1-.053.177.105.105 0 0 1-.116.025l-.094-.07-.029-.045-.052-.14-.006-.08v-.017a.192.192 0 0 1 .058-.133l.03-.023a.082.082 0 0 1 .064-.019l.005.002m.024.147c-.028-.016-.049-.013-.065.01-.015.011-.023.034-.023.068v.026l.018.084.035.04.035.021c.018.003.035 0 .06-.01a.27.27 0 0 0 .021-.097l-.005-.053-.012-.03-.006-.011-.017-.024m2.92.958.034.013.095.053.095.09a.32.32 0 0 1 .061.201.231.231 0 0 1-.078.169.207.207 0 0 1-.173.003l-.138-.087-.043-.05c-.033-.035-.045-.08-.064-.147-.017-.009.005-.204.064-.223l.043-.018a.157.157 0 0 1 .095-.007l.009.003m.034.15c-.04-.02-.072-.02-.095 0-.023.008-.034.029-.034.063v.026l.026.087.051.046.052.028.095.002c.02-.016.028-.047.026-.094l-.008-.055-.026-.044-.026-.027"/><path d="m127.488 340.497-1.016-3.417 11.27 5.634-5.468.23-4.786-2.447Z" style="fill:#d92626" transform="translate(-55.065 -236.433) scale(.92537)"/><path d="M121.463 339.584c2.329.144 4.337.448 6.025.913.184.051-1.193-3.472-1.016-3.417.332.102 1.32 3.612 1.625 3.728 1.163.443 3.019 1.157 3.792 1.794.074.062 5.782.049 5.853.112.057.051-5.523.178-5.468.23.862.821 1.432 1.788 1.711 2.901l-1.252 8.139-10.018-5.009-1.252-9.391Z" style="fill:#e1dfd2;stroke:#000;stroke-width:.11px;stroke-linecap:round" transform="translate(-55.065 -236.433) scale(.92537)"/><path d="M385.241 245.05c-.11.137-.264.266-.44.385-.521.191-1.081.172-1.658.054-.355-.329-.733-.946-.414-1.737.495-.272 1.327-.205 1.935-.015.645.37.819.717.73 1.03.126-.137.334-.267.655-.386.677-.069 1.214.13 1.572.627.283.854.042 1.256-.506 1.389a3.991 3.991 0 0 1-1.664-.656c-.139-.213-.26-.454-.21-.691Z" style="fill:#d57d29;stroke:#000;stroke-width:.07px;stroke-linecap:round" transform="translate(-510.77 -283.057) scale(1.49109)"/><path d="m122.715 348.975-1.252-9.391 2.505 2.922c.952 2.312 2.303 2.438 3.756 1.997l6.261 1.342-1.252 8.139h-5.009l-5.009-2.504v-2.505Z" style="fill:#e9b83a;stroke:#000;stroke-width:.11px;stroke-linecap:round" transform="translate(-55.065 -236.433) scale(.92537)"/><path d="M122.586 348.008c.852.524.121-.318 1.285-1.854l.21-.252c.192-.453.327-1.069.598-1.495.001-.013.005-.019.012-.019.118.043.692 1.966.751 1.965l1.03.381c.22-.48.513-1.241.931-1.676.433.626.501 1.217.827 1.897.538.226 1.874 1.573 2.369 2.221.315.413.348 1.723.882 1.678 2.497-.212 1.856.742 0 1.252-.403.111.117 1.016.081 1.375-.02.209.036.294-.081.503 1 .081-2.369.011-3.757 0 0 0-4.74-2.359-4.76-2.38-.395-.43-.14-1.661-.017-2.281.01-.05-.195-.197-.232-.228m1.717-.533v-.269l.278.139v.251l-.139.218-.139-.07.102-.218-.102-.051Zm-.4.07-.098-.06.112-.198-.082-.051.04-.239.168.079v.25l-.14.219Z" style="fill:#fff" transform="translate(-55.065 -236.433) scale(.92537)"/><path d="m87.751 30.737.489 6.763-.1 2.2c-.042 1.934-.335 3.576-.9 4.9l-2 4.1-1.135-.054.294 6.328 1.727-.035-.085-3.639 5.267.808 9.033-.808v3.9l2.264.084.336-6.584-3.73.49c1.239-5.829 1.077-13.06 1.282-19.924l-7.816 1.366-4.926.105Zm1.795 2.803c2.779.446 6.564-1.191 8.456-1.191.544 5.927-.415 11.179-.868 16.941-3.351.739-7.339.765-10.4-.59l.622-.128.913-1.663c.882-1.88 1.399-4.034 1.583-6.437l-.306-6.932Z" style="fill-rule:nonzero" transform="matrix(.08595 .04297 0 .08595 54.122 78.677)"/><path d="m60.478 84.575.024.008.064.042.052.08a.401.401 0 0 1 .053.192.579.579 0 0 1-.053.178.105.105 0 0 1-.116.024l-.094-.07-.029-.045-.052-.14-.006-.08v-.017a.192.192 0 0 1 .058-.133l.03-.023a.082.082 0 0 1 .064-.019l.005.003m.024.146c-.028-.016-.049-.013-.065.01-.015.011-.023.034-.023.069v.025l.018.084.035.04.035.021c.018.003.035 0 .06-.01a.27.27 0 0 0 .021-.096l-.005-.054-.012-.03-.006-.011-.017-.024m2.92.958.034.013.095.054.095.09a.32.32 0 0 1 .061.2.231.231 0 0 1-.078.169.207.207 0 0 1-.173.003l-.138-.087-.043-.05c-.033-.035-.045-.08-.064-.146-.017-.01.005-.205.064-.224l.043-.018a.157.157 0 0 1 .095-.007l.009.003m.034.15c-.04-.02-.072-.02-.095 0-.023.008-.034.03-.034.064v.025l.026.088.051.045.052.028.095.002c.02-.016.028-.047.026-.094l-.008-.054-.026-.045-.026-.027"/><path d="m127.488 340.497-1.016-3.417 11.27 5.634-5.468.23-4.786-2.447Z" style="fill:#d92626" transform="translate(-42.797 -230.377) scale(.92537)"/><path d="M121.463 339.584c2.329.144 4.337.448 6.025.913.184.051-1.193-3.472-1.016-3.417.332.102 1.32 3.612 1.625 3.728 1.163.443 3.019 1.157 3.792 1.794.074.062 5.782.049 5.853.112.057.051-5.523.178-5.468.23.862.821 1.432 1.788 1.711 2.901l-1.252 8.139-10.018-5.009-1.252-9.391Z" style="fill:#e1dfd2;stroke:#000;stroke-width:.11px;stroke-linecap:round" transform="translate(-42.797 -230.377) scale(.92537)"/><path d="M385.241 245.05c-.11.137-.264.266-.44.385-.521.191-1.081.172-1.658.054-.355-.329-.733-.946-.414-1.737.495-.272 1.327-.205 1.935-.015.645.37.819.717.73 1.03.126-.137.334-.267.655-.386.677-.069 1.214.13 1.572.627.283.854.042 1.256-.506 1.389a3.991 3.991 0 0 1-1.664-.656c-.139-.213-.26-.454-.21-.691Z" style="fill:#d57d29;stroke:#000;stroke-width:.07px;stroke-linecap:round" transform="translate(-498.503 -277.001) scale(1.49109)"/><path d="m122.715 348.975-1.252-9.391 2.505 2.922c.952 2.312 2.303 2.438 3.756 1.997l6.261 1.342-1.252 8.139h-5.009l-5.009-2.504v-2.505Z" style="fill:#e9b83a;stroke:#000;stroke-width:.11px;stroke-linecap:round" transform="translate(-42.797 -230.377) scale(.92537)"/><path d="M122.586 348.008c.852.524.121-.318 1.285-1.854l.21-.252c.192-.453.327-1.069.598-1.495.001-.013.005-.019.012-.019.118.043.692 1.966.751 1.965l1.03.381c.22-.48.513-1.241.931-1.676.433.626.501 1.217.827 1.897.538.226 1.874 1.573 2.369 2.221.315.413.348 1.723.882 1.678 2.497-.212 1.856.742 0 1.252-.403.111.117 1.016.081 1.375-.02.209.036.294-.081.503 1 .081-2.369.011-3.757 0 0 0-4.74-2.359-4.76-2.38-.395-.43-.14-1.661-.017-2.281.01-.05-.195-.197-.232-.228m1.717-.533v-.269l.278.139v.251l-.139.218-.139-.07.102-.218-.102-.051Zm-.4.07-.098-.06.112-.198-.082-.051.04-.239.168.079v.25l-.14.219Z" style="fill:#fff" transform="translate(-42.797 -230.377) scale(.92537)"/><path d="m87.751 30.737.489 6.763-.1 2.2c-.042 1.934-.335 3.576-.9 4.9l-2 4.1-1.135-.054.294 6.328 1.727-.035-.085-3.639 5.267.808 9.033-.808v3.9l2.264.084.336-6.584-3.73.49c1.239-5.829 1.077-13.06 1.282-19.924l-7.816 1.366-4.926.105Zm1.795 2.803c2.779.446 6.564-1.191 8.456-1.191.544 5.927-.415 11.179-.868 16.941-3.351.739-7.339.765-10.4-.59l.622-.128.913-1.663c.882-1.88 1.399-4.034 1.583-6.437l-.306-6.932Z" style="fill-rule:nonzero" transform="matrix(.08595 .04297 0 .08595 66.39 84.732)"/><path d="m72.746 90.63.024.009.064.041.052.08a.401.401 0 0 1 .053.192.579.579 0 0 1-.053.178.105.105 0 0 1-.116.024l-.094-.07-.029-.045-.052-.14-.006-.08v-.017a.192.192 0 0 1 .058-.132l.03-.024a.082.082 0 0 1 .064-.018l.005.002m.024.146c-.028-.016-.049-.013-.065.01-.015.012-.023.034-.023.069v.026l.018.084.035.039.035.021c.018.004.035 0 .06-.01a.27.27 0 0 0 .021-.096l-.005-.054-.012-.03-.006-.01-.017-.025m2.919.959.035.013.095.053.095.09a.32.32 0 0 1 .061.2.231.231 0 0 1-.078.17.207.207 0 0 1-.173.002l-.138-.086-.043-.051c-.033-.035-.045-.08-.064-.146-.017-.01.005-.205.064-.224l.043-.018a.157.157 0 0 1 .095-.007l.009.004m.034.15c-.04-.02-.072-.021-.095-.001-.023.008-.034.03-.034.064v.026l.026.087.051.045.052.028.095.002c.02-.015.028-.047.026-.093l-.008-.055-.026-.044-.026-.027"/><path d="M528.428 371.515v-2.504l70.123 35.061v2.505l-70.123-35.062Z" style="fill:#fff;stroke:#000;stroke-width:.1px" transform="translate(-518.134 -303.637)"/><path d="m618.586 381.533-15.027 7.513-80.14-40.071-.313 2.661 80.175 39.775 15.305-7.652v-2.226Z" style="fill:#999;stroke:#000;stroke-width:.5px" transform="translate(-518.134 -303.637)"/><path d="m523.419 348.975 15.026-7.513 80.141 40.071-15.027 7.513-80.14-40.071Z" style="fill:#a6a6a6;stroke:#000;stroke-width:.5px" transform="translate(-518.134 -303.637)"/><path d="M537.708 429.485c-1.105 1.105-.213 3.638 3.242 3.388l14.001-7.001c.906-1.17.428-4.647-3.984-3.017 0 0-11.589 4.96-13.259 6.63Z" style="fill:#d07e55;stroke:#000;stroke-width:.12px" transform="translate(-427.957 -311.335) scale(.82843)"/><path d="m540.242 428.218 3.489.574m.221-2.429 3.467.585m0-2.319 3.363.638" style="fill:none;stroke:#845928;stroke-width:.12px" transform="translate(-427.957 -311.335) scale(.82843)"/><path d="m554.951 423.367 3.529-1.764" style="fill:none;stroke:#b99770;stroke-width:.6px" transform="translate(-427.957 -311.335) scale(.82843)"/><path d="M537.708 429.485c-1.105 1.105-.213 3.638 3.242 3.388l14.001-7.001c.906-1.17.428-4.647-3.984-3.017 0 0-11.589 4.96-13.259 6.63Z" style="fill:#d07e55;stroke:#000;stroke-width:.12px" transform="translate(-424.9 -309.807) scale(.82843)"/><path d="m540.242 428.218 3.489.574m.221-2.429 3.467.585m0-2.319 3.363.638" style="fill:none;stroke:#845928;stroke-width:.12px" transform="translate(-424.9 -309.807) scale(.82843)"/><path d="m554.951 423.367 3.529-1.764" style="fill:none;stroke:#b99770;stroke-width:.6px" transform="translate(-424.9 -309.807) scale(.82843)"/><path d="M537.708 429.485c-1.105 1.105-.213 3.638 3.242 3.388l14.001-7.001c.906-1.17.428-4.647-3.984-3.017 0 0-11.589 4.96-13.259 6.63Z" style="fill:#d07e55;stroke:#000;stroke-width:.12px" transform="translate(-421.844 -308.278) scale(.82843)"/><path d="m540.242 428.218 3.489.574m.221-2.429 3.467.585m0-2.319 3.363.638" style="fill:none;stroke:#845928;stroke-width:.12px" transform="translate(-421.844 -308.278) scale(.82843)"/><path d="m554.951 423.367 3.529-1.764" style="fill:none;stroke:#b99770;stroke-width:.6px" transform="translate(-421.844 -308.278) scale(.82843)"/><path d="M537.708 429.485c-1.105 1.105-.213 3.638 3.242 3.388l14.001-7.001c.906-1.17.428-4.647-3.984-3.017 0 0-11.589 4.96-13.259 6.63Z" style="fill:#d07e55;stroke:#000;stroke-width:.12px" transform="translate(-425.916 -312.355) scale(.82843)"/><path d="m540.242 428.218 3.489.574m.221-2.429 3.467.585m0-2.319 3.363.638" style="fill:none;stroke:#845928;stroke-width:.12px" transform="translate(-425.916 -312.355) scale(.82843)"/><path d="m554.951 423.367 3.529-1.764" style="fill:none;stroke:#b99770;stroke-width:.6px" transform="translate(-425.916 -312.355) scale(.82843)"/><path d="M537.708 429.485c-1.105 1.105-.213 3.638 3.242 3.388l14.001-7.001c.906-1.17.428-4.647-3.984-3.017 0 0-11.589 4.96-13.259 6.63Z" style="fill:#d07e55;stroke:#000;stroke-width:.12px" transform="translate(-422.396 -311.335) scale(.82843)"/><path d="m540.242 428.218 3.489.574m.221-2.429 3.467.585m0-2.319 3.363.638" style="fill:none;stroke:#845928;stroke-width:.12px" transform="translate(-422.396 -311.335) scale(.82843)"/><path d="m554.951 423.367 3.529-1.764" style="fill:none;stroke:#b99770;stroke-width:.6px" transform="translate(-422.396 -311.335) scale(.82843)"/><path d="M535.312 412.209c3.112 0 5.71 1.265 5.638 2.819-.122 2.61-3.053 3.03-5.006 3.211-3.197.298-6.031.248-6.269-3.211-.107-1.552 2.526-2.819 5.637-2.819Z" style="fill:#d38d3f;stroke:#000;stroke-width:.12px" transform="translate(-406.992 -292.35) scale(.82843)"/><path d="M535.312 412.209c3.112 0 5.71 1.265 5.638 2.819-.122 2.61-3.053 3.03-5.006 3.211-3.197.298-6.031.248-6.269-3.211-.107-1.552 2.526-2.819 5.637-2.819Z" style="fill:#d38d3f;stroke:#000;stroke-width:.12px" transform="translate(-403.006 -290.849) scale(.82843)"/><path d="M535.312 412.209c3.112 0 5.71 1.265 5.638 2.819-.122 2.61-3.053 3.03-5.006 3.211-3.197.298-6.031.248-6.269-3.211-.107-1.552 2.526-2.819 5.637-2.819Z" style="fill:#d38d3f;stroke:#000;stroke-width:.12px" transform="translate(-399.02 -289.349) scale(.82843)"/><path d="M535.312 412.209c3.112 0 5.71 1.265 5.638 2.819-.122 2.61-3.053 3.03-5.006 3.211-3.197.298-6.031.248-6.269-3.211-.107-1.552 2.526-2.819 5.637-2.819Z" style="fill:#d38d3f;stroke:#000;stroke-width:.12px" transform="translate(-395.033 -287.848) scale(.82843)"/><path d="M535.312 412.209c3.112 0 5.71 1.265 5.638 2.819-.122 2.61-3.053 3.03-5.006 3.211-3.197.298-6.031.248-6.269-3.211-.107-1.552 2.526-2.819 5.637-2.819Z" style="fill:#cc7411;stroke:#000;stroke-width:.09px" transform="matrix(.70318 -.3516 .82832 .75184 -664.48 -63.927)"/><path d="M535.312 412.209c3.112 0 5.71 1.265 5.638 2.819-.122 2.61-3.053 3.03-5.006 3.211-3.197.298-6.031.248-6.269-3.211-.107-1.552 2.526-2.819 5.637-2.819Z" style="fill:#cc7411;stroke:#000;stroke-width:.09px" transform="matrix(.70318 -.3516 .82832 .75184 -662.27 -62.527)"/><path d="M535.312 412.209c3.112 0 5.71 1.265 5.638 2.819-.122 2.61-3.053 3.03-5.006 3.211-3.197.298-6.031.248-6.269-3.211-.107-1.552 2.526-2.819 5.637-2.819Z" style="fill:#cc7411;stroke:#000;stroke-width:.09px" transform="matrix(.70318 -.3516 .82832 .75184 -659.696 -61.539)"/><path d="M535.312 412.209c3.112 0 5.71 1.265 5.638 2.819-.122 2.61-3.053 3.03-5.006 3.211-3.197.298-6.031.248-6.269-3.211-.107-1.552 2.526-2.819 5.637-2.819Z" style="fill:#cc7411;stroke:#000;stroke-width:.09px" transform="matrix(.70318 -.3516 .82832 .75184 -657.121 -60.551)"/><path d="m576.011 427.864 10.018-5.009c4.608-.548 6.494 1.396 7.513 3.757l-10.018 5.008c-3.085.575-5.622-.574-7.513-3.756Z" style="fill:#d38d3f;stroke:#000;stroke-width:.12px" transform="translate(-411.745 -285.719) scale(.82843)"/><path d="m576.011 427.864 10.018-5.009c4.608-.548 6.494 1.396 7.513 3.757l-10.018 5.008c-3.085.575-5.622-.574-7.513-3.756Z" style="fill:#d38d3f;stroke:#000;stroke-width:.12px" transform="translate(-408.224 -283.958) scale(.82843)"/><path d="m576.011 427.864 10.018-5.009c4.608-.548 6.494 1.396 7.513 3.757l-10.018 5.008c-3.085.575-5.622-.574-7.513-3.756Z" style="fill:#d38d3f;stroke:#000;stroke-width:.12px" transform="translate(-403.823 -281.758) scale(.82843)"/><path d="M530.932 350.228v-2.505l72.627 36.314v2.504l-72.627-36.313Z" style="fill:#fff;stroke:#000;stroke-width:.1px" transform="translate(-518.134 -303.637)"/><path d="m520.914 370.263 5.009-42.575 80.141 40.07-5.009 42.575-80.141-40.07Z" style="fill:url(#a);stroke:#000;stroke-width:.5px" transform="translate(-518.31 -303.722)"/><path d="m525.923 372.767 5.009-42.575-5.009-2.504-5.009 42.575 5.009 2.504Zm80.141-5.009-5.009-2.504-5.009 42.575 5.009 2.504 5.009-42.575Z" style="fill:#534545;stroke:#000;stroke-width:.5px" transform="translate(-518.134 -303.637)"/><path d="m601.055 410.333 20.035-10.017v7.513l-20.035 10.017v-7.513Z" style="fill:#595959;stroke:#000;stroke-width:.5px" transform="translate(-518.134 -303.637)"/><path d="m601.055 410.333 5.009-42.575 15.026-7.513v40.071l-5.009 2.504v-37.566l-7.513 3.757-5.009 40.07-2.504 1.252Z" style="fill:#696060;stroke:#000;stroke-width:.5px" transform="translate(-518.134 -303.637)"/><path d="M606.064 367.758v-7.281l15.026-7.745v7.513l-15.026 7.513Z" style="fill:#f2f2f2;stroke:#000;stroke-width:.5px" transform="translate(-518.134 -303.637)"/><path d="m525.923 320.175 15.027-7.513 80.14 40.07-15.026 7.513-80.141-40.07Z" style="fill:#f2f2f2;stroke:#000;stroke-width:.5px" transform="translate(-518.134 -303.637)"/><path d="m606.064 360.477-80.141-40.302v7.513l80.141 40.07v-7.281Z" style="fill:#e4e4e4;stroke:#000;stroke-width:.5px" transform="translate(-518.134 -303.637)"/><path d="M310.545 255.061v-45.08l25.322 12.661.139 12.314-10.157-4.801-.278 32.419-15.026-7.513Z" style="fill:#c7c7c7;stroke:#000;stroke-width:.44px;stroke-linecap:round" transform="translate(-271.06 -177.339) scale(1.14802)"/><path d="m330.58 241.918 25.044-12.04v-12.383l-25.044 12.522v11.901Z" style="fill:#fff;stroke:#000;stroke-width:.44px;stroke-linecap:round" transform="translate(-264.99 -185.805) scale(1.14802)"/><path d="m305.259 217.356 25.321-12.383 25.044 12.522-25.044 12.522-25.321-12.661Z" style="fill:#f1f1f1;stroke:#000;stroke-width:.44px;stroke-linecap:round" transform="translate(-264.99 -185.805) scale(1.14802)"/><path d="m320.563 270.087 25.044-12.522v-22.871l-15.027 7.224-10.017-4.388v32.557Z" style="fill:#999;stroke:#000;stroke-width:.44px;stroke-linecap:round" transform="translate(-264.99 -185.805) scale(1.14802)"/><path d="M320.563 270.087v-10.018l10.017 5.009v10.018l-10.017-5.009Zm10.017 5.009v-10.018l25.044-12.688v10.184l-25.044 12.522Z" style="fill:#333;stroke:#000;stroke-width:.44px;stroke-linecap:round" transform="translate(-264.99 -185.805) scale(1.14802)"/><path d="m305.259 217.356 25.321-12.383 25.044 12.522v12.522l-10.017 4.76v12.731l-25.044 12.561v10.018l-15.304-7.652v-45.079Z" style="fill:url(#b)" transform="translate(-264.99 -185.805) scale(1.14802)"/><path d="M334.337 238.156v-3.757l3.756-1.878v3.757l-3.756 1.878Z" style="fill:#ccc;stroke:#000;stroke-width:.44px;stroke-linecap:round" transform="translate(-249.177 -196.519) scale(1.14802)"/><path d="m335.589 235.025 5.009-2.504 1.252.626-6.261 3.131v-1.253Z" style="fill:#ccc;stroke:#000;stroke-width:.44px;stroke-linecap:round" transform="translate(-249.177 -196.519) scale(1.14802)"/><ellipse cx="342.629" cy="232.86" rx="2.031" ry="2.478" style="fill:#d0a4c2;stroke:#000;stroke-width:.4px;stroke-linecap:round" transform="matrix(1.31669 0 0 1.15172 -306.624 -197.95)"/><path d="M334.337 238.156v-3.757l3.756-1.878v3.757l-3.756 1.878Z" style="fill:#ccc;stroke:#000;stroke-width:.44px;stroke-linecap:round" transform="translate(-257.132 -192.605) scale(1.14802)"/><path d="m335.589 235.025 5.009-2.504 1.252.626-6.261 3.131v-1.253Z" style="fill:#ccc;stroke:#000;stroke-width:.44px;stroke-linecap:round" transform="translate(-257.132 -192.605) scale(1.14802)"/><ellipse cx="342.629" cy="232.86" rx="2.031" ry="2.478" style="fill:#e7e5d3;stroke:#000;stroke-width:.4px;stroke-linecap:round" transform="matrix(1.31669 0 0 1.15172 -314.58 -194.036)"/><path d="M334.337 238.156v-3.757l3.756-1.878v3.757l-3.756 1.878Z" style="fill:#ccc;stroke:#000;stroke-width:.44px;stroke-linecap:round" transform="translate(-264.99 -188.676) scale(1.14802)"/><path d="m335.589 235.025 5.009-2.504 1.252.626-6.261 3.131v-1.253Z" style="fill:#ccc;stroke:#000;stroke-width:.44px;stroke-linecap:round" transform="translate(-264.99 -188.676) scale(1.14802)"/><ellipse cx="342.629" cy="232.86" rx="2.031" ry="2.478" style="fill:#81655c;stroke:#000;stroke-width:.4px;stroke-linecap:round" transform="matrix(1.31669 0 0 1.15172 -322.437 -190.107)"/><path d="m355.624 252.39-9.851-4.926c-11.219 2.935-19.625 7.136-25.21 12.605l10.017 5.009 25.044-12.688Z" style="fill:#262626;stroke:#000;stroke-width:.44px;stroke-linecap:round" transform="translate(-264.99 -185.805) scale(1.14802)"/><path d="M343.256 250.739c-.228.179-.666.629-.978.785-2.309 1.155-6.06 1.155-8.369 0-2.31-1.155-2.31-3.03 0-4.184 2.309-1.155 6.06-1.155 8.369 0 1.401.7 1.952 1.666 1.653 2.575.787.892 1.086 1.817.875 2.775-.231 1.05-1.075 2.14-2.564 3.272.159.621-.237 1.271-1.19 1.747-1.633.816-4.284.816-5.917 0s-1.633-2.142 0-2.958c1.633-.817 4.284-.817 5.917 0 .458.229.787.413.988.7 1.728-1.561 3.104-3.53 1.216-4.712Zm-7.588 4.278c1.376-.588 3.488-.617 4.851 0 1.48.669 1.499 1.756 0 2.426-1.366.61-3.476.59-4.851 0-1.561-.67-1.568-1.757 0-2.426Zm-1.006-7.301c1.952-.82 4.918-.836 6.863 0 2.202.947 2.26 2.485 0 3.432-1.953.818-4.907.81-6.863 0-2.285-.947-2.253-2.485 0-3.432Z" style="fill:#b3b3b3" transform="rotate(180 180.781 142.999) scale(.711)"/><path d="M343.256 250.739c-.228.179-.666.629-.978.785-2.309 1.155-6.06 1.155-8.369 0-2.31-1.155-2.31-3.03 0-4.184 2.309-1.155 6.06-1.155 8.369 0 1.401.7 1.952 1.666 1.653 2.575.787.892 1.086 1.817.875 2.775-.231 1.05-1.075 2.14-2.564 3.272.159.621-.237 1.271-1.19 1.747-1.633.816-4.284.816-5.917 0s-1.633-2.142 0-2.958c1.633-.817 4.284-.817 5.917 0 .458.229.787.413.988.7 1.728-1.561 3.104-3.53 1.216-4.712Zm-7.588 4.278c1.376-.588 3.488-.617 4.851 0 1.48.669 1.499 1.756 0 2.426-1.366.61-3.476.59-4.851 0-1.561-.67-1.568-1.757 0-2.426Zm-1.006-7.301c1.952-.82 4.918-.836 6.863 0 2.202.947 2.26 2.485 0 3.432-1.953.818-4.907.81-6.863 0-2.285-.947-2.253-2.485 0-3.432Z" style="fill:#b3b3b3" transform="matrix(1.48557 0 0 -1.15997 -398.093 355.591)"/><path d="M489.502 248.4c-1.92.185-2.933 2.938-1.731 4.306-1.153 3.823 11.316 3.909 12.891 1.397 1.605-2.559 1.433-6.005-3.16-5.231z" style="fill:#eee1d6" transform="rotate(-.181 -65618.25 123509.56)"/><path d="M490.571 245.715c-2.092.608-3.383 1.719-3.108 3.466-.415 3.625 9.963 2.157 11.499.588 1.166-1.191.383-3.566-2.31-4.063-1.752.65-4.065.411-6.081.009z" style="fill:#eee1d6" transform="rotate(-.181 -65591.481 123147.21)"/><path d="m487.284 252.102 6.064 19.774 7.425-17.982c-6.14 2.031-10.058 2.736-13.489-1.792z" style="fill:#d58f4e" transform="rotate(-.181 -65618.25 123509.56)"/><path d="M492.66 242.534c-1.754 1.071-2.208 2.274-2.304 3.255-.016.166.108.937.396 1.359.898 1.314 4.076.711 6.352-.457 1.488-.928 1.085-2.363-.984-4.507z" style="fill:#eee1d6" transform="rotate(-.181 -65618.25 123509.56)"/><path d="M492.668 238.715c1.43 1.466 2.824 2.265 3.29 3.819-.915 2.363-5.121 3.008-4.977 1.432-.113-.833.942-1.513 2.162-2.034 1.128-.48.056-1.859-.475-3.217z" style="fill:#eee1d6" transform="rotate(-.181 -65733.02 123456.28)"/><path d="M487.957 271.658c3.78 2.867 19.384-1.772 5.28-3.117-.242-.023-.947-.025-.951-.032-.074-.106-.087-.562-.096-.59-.002-.006.001-.013-.005-.018-.179-.159-5.345-17.956-5.563-18.138 0 0 6.674 5.322 12.523.307-1.336.48-2.699.904-4.189 1.074-1.764.374-3.429.379-4.986-.021-.79-.249-1.513-.601-2.097-1.16 2.512.362 5.024.114 7.536-.561 2.182-.549 3.381-1.606 3.269-3.339l-2.648.983-3.461.478a10.622 10.622 0 0 1-3.379-.271l-1.123-.506c2.134.36 9.672-1.136 9.511-3.307l-.12-.983-.865-.643c-.1.822-.917 1.249-2.048 1.504-1.424.504-2.69.661-3.857.597-.885-.252-1.427-.849-1.498-1.916 2.226 1.314 4.177.801 5.931-1.124 0 0 .524-.781.087-1.553l-.636-.432-1.708 1.258-1.215.328c-.978.022-1.498-.206-1.663-.628 2.636.607 5.099-2.136 2.878-3.351 1.001.454 1.761 1 2.092 1.712.7.619 1.185 1.238 1.473 1.857.281.471.431.899.403 1.267-.226.4-.059.628.54.667.686.256 1.134.614 1.46 1.024.615.805.7 1.511.49 2.161.621.458.937 1.05 1.094 1.714l-.489 2.43-7.744 18.577c-.026.034.073.496.081.589.006.084-.273.04-.505.053-5.02.293-6.384 2.198-3.802 3.11z" style="fill-opacity:.1" transform="rotate(-.181 -64315.2 123125.74)"/><path d="M485.846 200.56a4.779 4.779 0 0 0-1.558-.269 4.322 4.322 0 0 0-4.32 4.32 4.322 4.322 0 0 0 4.32 4.32 4.322 4.322 0 0 0 4.321-4.32c0-.453-.146-1.028-.286-1.459 0 0-3.062 2.03-3.154 2.075-.098.048-.729.514-.881.594a.963.963 0 0 1-.066.03c-.571.215-1.143-.597-1.143-1.24 0-.358.224-.608.43-.864.181-.224 2.337-3.187 2.337-3.187Z" style="fill:#bfbfbf" transform="scale(1.5336 .7668) rotate(-45 121.856 643.469)"/><path d="m318.058 345.219 1.253-.626 2.512.004 6.253 3.126h-2.505l-1.26.622-6.253-3.126Z" style="fill:none;stroke:#000;stroke-width:.06px;stroke-linecap:round" transform="translate(-384.768 -466.217) scale(1.72877)"/><path d="m323.075 333.953 6.253 3.135v2.496l-6.261-3.131v.021l.008-2.521Z" style="fill:none;stroke:#000;stroke-width:.06px;stroke-linecap:round" transform="translate(-393.441 -446.741) scale(1.72877)"/><path d="m13.748 8.941 14.996 7.533 1.567 10.119-1.253.626v2.504l-2.502 5.005-2.068-1.029-11.966-22.817V9.63l1.226-.689Z" style="fill:#a8a8b9;stroke:#000;stroke-width:.06px;stroke-linecap:round" transform="translate(114.847 83.531) scale(1.72877)"/><path d="m326.824 348.349-1.051.526 1.812.906 1.051-.526-1.812-.906Z" style="fill:none;stroke:#000;stroke-width:.06px;stroke-linecap:round" transform="translate(-395.08 -461.582) scale(1.72877)"/><path d="m328.076 351.48 6.816-3.408-5.822-2.912-3.06 1.53 2.066 1.033v3.757Z" style="fill:#a6a6a6;stroke:#000;stroke-width:.06px;stroke-linecap:round" transform="translate(-384.768 -466.217) scale(1.72877)"/><path d="m321.823 360.867 13.069-6.534v-6.261l-6.261 3.13-.555-3.479h-2.505l-1.26.63.008 2.501-2.496 5.013v5Z" style="fill:#585858;stroke:#000;stroke-width:.06px;stroke-linecap:round" transform="translate(-384.768 -466.217) scale(1.72877)"/><path d="m567.487 303.966-6.218-3.109 3.518-6.954-.218-2.219v-4.33l2.165-1.082 4.343.007 10.81 5.405h-4.329l-2.171 1.08v4.343l-4.22-.014-3.68 6.873Z" style="fill:#6759a8" transform="translate(-399.488 -156.768)"/><path d="m325.571 352.732-3.876 1.893v.654l2.504 1.252 3.812-1.906v-.673l-2.44-1.22Z" style="fill:#383838;stroke:#000;stroke-width:.06px;stroke-linecap:round" transform="translate(-393.027 -469.751) scale(1.72877)"/><path d="m40.07 27.16-10.483-5.241.724 4.674h2.504l4.195 2.097 3.06-1.53Z" style="fill:#666;stroke:#000;stroke-width:.06px;stroke-linecap:round" transform="translate(114.847 83.531) scale(1.72877)"/><path d="m29.797 23.276 7.769 3.884-1.808.904-2.943-1.471h-2.504l-.514-3.317Z" style="fill:#e6e6e6;stroke:#000;stroke-width:.06px;stroke-linecap:round" transform="translate(114.847 83.531) scale(1.72877)"/><path d="m37.566 27.16.034.261-1.564.782.278-.139v-.277" style="fill:none;stroke:#000;stroke-width:.06px;stroke-linecap:round" transform="translate(114.847 83.531) scale(1.72877)"/><path d="m35.062 25.908-1.808.904 1.252.626 1.808-.904 1.252.626-1.252.627-6.261-3.131 1.252-.626 1.252.626-2.363 1.182.023.153 1.205.602-.117-.059 2.504-1.252-3.756-1.878-.219.109" style="fill:none;stroke:#000;stroke-width:.06px;stroke-linecap:round" transform="translate(114.847 83.531) scale(1.72877)"/><path d="m27.463 17.656-15.935 13.29v1.282l21.295 10.647v-5.008l2.496-5.013-6.261-3.131-2.504 5.009.909-17.076Zm1.725 13.352-2.035 4.023 3.596 1.799 2.129-3.976-3.69-1.846Z" style="fill:#454545;stroke:#000;stroke-width:.06px;stroke-linecap:round" transform="translate(114.84 83.53) scale(1.72877)"/><path d="m299.493 348.84 5.867-20.536.707-.325 14.316 7.848-6.033 20.557-.832.382-14.025-7.926Z" style="fill:#404040;stroke:#000;stroke-width:.05px;stroke-linecap:round" transform="matrix(1.72877 0 .30404 1.72877 -493.057 -466.217)"/><path d="m299.55 348.144 14.015 7.007 1.989-18.698-13.957-6.978-2.047 18.669Z" style="fill:#fff;stroke:#fff6b6;stroke-width:.17px;stroke-linecap:round" transform="translate(-385.647 -466.114) scale(1.72877)"/><path d="M320.555 342.71c-.305-.471-.322-.894.008-1.256l2.496 1.256c.35.587.329.994 0 1.253l-2.504-1.253Z" style="fill:#4d4d4d;stroke:#5b5b5b;stroke-width:.06px;stroke-linecap:round" transform="translate(-385.466 -459.936) scale(1.72877)"/><path d="M451.119-33.575c.746 0 1.788-.065 2.259.559.356.471 4.34 4.527 5.782 4.794 1.083.2.816 3.645.736 4.242-.231 1.728-.059 3.482-.688 4.453-4.159 6.418 4.621 2.525 6.102-2.921" style="fill:none;stroke:#5b5b5b;stroke-width:.3px;stroke-linecap:round" transform="translate(-271.544 166.283)"/><path d="M326.824 343.341c.525-.243.591-.638 0-1.253l-3.304-1.652a1.706 1.706 0 0 0-.807-.049l-2.158 1.079 2.524 1.242c.331.591.326 1.004 0 1.244l2.492-1.238 1.253.627Z" style="fill:#737373;stroke:#000;stroke-width:.06px;stroke-linecap:round" transform="translate(-385.466 -459.964) scale(1.72877)"/><path d="M750.631 316.32c-.312-.414-.135-.899.531-1.232.907-.454 2.38-.454 3.287 0 .666.333.843.818.531 1.232.312.414.135.9-.531 1.233-.907.454-2.38.454-3.287 0-.666-.333-.843-.819-.531-1.233Z" style="fill:#79689f;stroke:#000;stroke-width:.1px;stroke-linecap:round" transform="translate(-543.72 -175.074)"/><path d="M751.162 315.088c.907-.454 2.38-.454 3.287 0 .907.453.907 1.19 0 1.643-.907.454-2.38.454-3.287 0-.907-.453-.907-1.19 0-1.643Z" style="fill:#483684;stroke:#000;stroke-width:.13px;stroke-linecap:round" transform="matrix(.74092 0 0 .74093 -348.686 -93.23)"/><path d="M745.927 315.701c0 .271-.207.543-.621.75-.828.414-2.172.414-3 0-.345-.173-.547-.39-.604-.615a.54.54 0 0 1-.001-.268l-.016-6.885 4.224-.135.018 7.153Z" style="fill:#919191;stroke:#000;stroke-width:.14px;stroke-linecap:round" transform="matrix(.69462 0 0 .69463 -307.537 -78.347)"/><circle cx="743.5" cy="315.5" r="1.5" style="fill:#aab5e7;stroke:#000;stroke-width:.1px;stroke-linecap:round" transform="scale(.98235 .49117) rotate(-45 431.762 936.774)"/><path d="m661.161 355.236 20.076-4.988" style="fill:none;stroke:#000;stroke-width:.14px;stroke-linecap:round" transform="translate(-293.128 -115.963) scale(.72815)"/><ellipse cx="751.8" cy="620.693" rx="5.6" ry="4.48" style="fill:#9b89db;stroke:#000;stroke-width:.19px;stroke-linecap:round" transform="matrix(.60785 -.30393 0 .75982 -263.13 -100.375)"/><ellipse cx="751.8" cy="620.693" rx="5.6" ry="4.48" style="fill:#67407f;stroke:#000;stroke-width:.19px;stroke-linecap:round" transform="matrix(.60785 -.30393 0 .75982 -262.279 -99.95)"/><path d="M751.8 616.213c1.184 0 2.283.295 3.188.798 1.457.809 2.412 2.157 2.412 3.682 0 2.473-2.509 4.48-5.6 4.48-3.091 0-5.6-2.007-5.6-4.48 0-2.472 2.509-4.48 5.6-4.48Z" style="fill:#cabd97;stroke:#000;stroke-width:.19px;stroke-linecap:round" transform="matrix(.60785 -.30393 0 .75982 -261.428 -99.524)"/><path d="M672.43 352.732c2.765-1.382 5.009-.26 5.009 2.504 0 2.765-2.244 6.131-5.009 7.514-2.764 1.382-5.008.26-5.008-2.505 0-2.187 1.405-4.752 3.361-6.412a8.306 8.306 0 0 1 1.647-1.101Zm0 1.695c1.829-.914 3.314-.172 3.314 1.657s-1.485 4.056-3.314 4.97c-1.828.915-3.313.172-3.313-1.656 0-1.829 1.485-4.056 3.313-4.971Z" style="fill:#ca964f;stroke:#000;stroke-width:.15px;stroke-linecap:round" transform="translate(-260.577 -99.098) scale(.6796)"/><path d="m681.196 350.269-6.288 1.552c.496.355 1.827 1.034 2.072 2.498l-8.897 2.27-3.393-1.466.432-.871-3.961.984 5.008 2.505 20.036-5.009-5.009-2.463Z" style="fill:#867e67;stroke:#000;stroke-width:.14px;stroke-linecap:round" transform="translate(-293.128 -115.963) scale(.72815)"/><path d="m681.196 350.228 5.009 2.504v-1.041l-5.009-2.505v1.042l5.009 2.504" style="fill:#595959;stroke:#000;stroke-width:.14px;stroke-linecap:round" transform="translate(-293.128 -115.963) scale(.72815)"/><path d="m673.204 351.241 11.233-.434 1.083.541-11.211.445" style="fill:#cabd97;fill-opacity:.77;stroke:#000;stroke-width:.14px;stroke-linecap:round" transform="translate(-293.128 -115.963) scale(.72815)"/><path d="m672.036 350.656 11.453-.323-1.21-.605-11.412.344" style="fill:#9b89db;stroke:#000;stroke-width:.14px;stroke-linecap:round" transform="translate(-293.128 -115.963) scale(.72815)"/><path d="m661.161 365.254 5.008 2.504 20.036-10.017v-5.009l-20.036 5.009-5.008-2.505v10.018Z" style="fill:#534545;stroke:#000;stroke-width:.14px;stroke-linecap:round" transform="translate(-293.128 -115.963) scale(.72815)"/><defs><linearGradient id="a" x1="0" y1="0" x2="1" y2="0" gradientUnits="userSpaceOnUse" gradientTransform="rotate(5.916 -3119.523 5249.748) scale(84.94738)"><stop offset="0" style="stop-color:#ff8700;stop-opacity:0"/><stop offset=".23" style="stop-color:#ff8700;stop-opacity:.31"/><stop offset=".5" style="stop-color:#ff8700;stop-opacity:.4"/><stop offset=".76" style="stop-color:#e78b24;stop-opacity:.31"/><stop offset="1" style="stop-color:#999;stop-opacity:0"/></linearGradient><linearGradient id="b" x1="0" y1="0" x2="1" y2="0" gradientUnits="userSpaceOnUse" gradientTransform="rotate(-1.157 12041.192 -15024.386) scale(56.49561)"><stop offset="0" style="stop-color:white;stop-opacity:.5"/><stop offset=".2" style="stop-color:#afafaf;stop-opacity:.2"/><stop offset=".31" style="stop-color:#666;stop-opacity:0"/><stop offset=".5" style="stop-color:white;stop-opacity:.5"/><stop offset=".78" style="stop-color:#9d9d9d;stop-opacity:.6"/><stop offset="1" style="stop-color:white;stop-opacity:1"/></linearGradient></defs></svg>