<?xml version="1.0" encoding="iso-8859-1"?>
<!-- Generator: Adobe Illustrator 15.1.0, SVG Export Plug-In . SVG Version: 6.00 Build 0)  -->
<!DOCTYPE svg PUBLIC "-//W3C//DTD SVG 1.1//EN" "http://www.w3.org/Graphics/SVG/1.1/DTD/svg11.dtd">
<svg version="1.1" id="back-standing" xmlns="http://www.w3.org/2000/svg" xmlns:xlink="http://www.w3.org/1999/xlink" x="0px"
	 y="0px" width="159px" height="182px" viewBox="0 0 159 182" style="enable-background:new 0 0 159 182;" xml:space="preserve">
<path style="fill:#FFFFFF;" d="M115.541,30.322l-0.801,0.799l0.201,0.201c2.799,2.732,4.365,5.766,4.699,9.1v1.199
	c0,2.201-0.533,4.268-1.6,6.201l-0.5,0.9l-2.801,3.398l0.201,0.201l-0.6,0.6l-6.5,1.801v9.398l-6.5,1.4l-6.201,1.801l1.301,3.199
	l6.6-2.5l6-1.199c2.066,0,3.5,0.4,4.301,1.199c1.066,1.066,1.6,2.4,1.6,4c0,1.467-0.5,2.699-1.5,3.699c-1.4,1.4-4.1,2.234-8.1,2.5
	l-2.602,0.102l0.701,3l3-0.102l-0.1,5.5l-3,2.5v24.5l-1.701,9.201h-3v13.1c0,0.934-0.299,1.699-0.9,2.301
	c-0.732,0.732-1.799,1.1-3.199,1.1c-1.467,0-2.566-0.367-3.301-1.1c-0.531-0.602-0.799-1.367-0.799-2.301v-13.1h-3.1l-4.701-7h-3.5
	l-7.1,7v13.1c0,0.934-0.301,1.699-0.9,2.301c-0.732,0.732-1.799,1.1-3.199,1.1c-1.467,0-2.568-0.367-3.301-1.1
	c-0.533-0.602-0.799-1.367-0.799-2.301v-13.1H60.74l-3.398-2.201l-3.5-7.799v-7.801l0.898-0.799c1-0.801,1.9-1.834,2.701-3.102
	l-2.5-2c-0.533,0.867-1,1.5-1.4,1.9l0.801-21.9l3.5-25.6l0.799,0.701l1.5-1.4l-2-2.199c-2-2.533-3-5.301-3-8.301l0.201-2
	c0.465-3.066,2.066-5.9,4.799-8.5l-1.5-1.5l1-7.9l1.301,0.6l7.699-17.199l7.701,17.199l2.5-1.1h7.799l2.4,1.1L96.74,5.922
	l7.701,17.199l2.5-1.1l6.299,6.1L115.541,30.322 M100.24,51.723v-2.701h-3v2.9h1.102l-1.102,2.9h1.5L100.24,51.723 M106.041,51.723
	v-2.701h-3v2.9h1.1l-1.1,2.9h1.5L106.041,51.723"/>
<path style="fill:#010202;" d="M58.541,22.021l10.1-22l10.201,22l-2.5,1.1L68.641,5.922l-7.699,17.199l-1.301-0.6L58.541,22.021
	 M56.641,52.223c-2.4-2.934-3.6-6.201-3.6-9.801l0.199-2c0.4-3.732,2.201-7.066,5.4-10l1.5,1.5c-2.732,2.6-4.334,5.434-4.799,8.5
	l-0.201,2c0,3,1,5.768,3,8.301l2,2.199l-1.5,1.4l-0.799-0.701L56.641,52.223 M50.641,106.021c-1.268,0-3.033-0.734-5.299-2.199
	c-1.535-0.867-2.801-1.301-3.801-1.301c-1.133,0-2,0.367-2.6,1.1l-1.201,1.9l-2.699-1.5l2.4-3.301c1.133-1.066,2.432-1.6,3.9-1.6
	c1.465,0,2.965,0.533,4.5,1.6c2.199,1.133,3.898,1.701,5.1,1.701c0.865,0,1.732-0.434,2.6-1.301c0.4-0.4,0.867-1.033,1.4-1.9l2.5,2
	c-0.801,1.268-1.701,2.301-2.701,3.102l-0.898,0.799C52.908,105.721,51.842,106.021,50.641,106.021 M75.041,122.922v13.199
	c0,1.666-0.533,3.033-1.6,4.1c-1.201,1.201-3.033,1.801-5.5,1.801c-2.533,0-4.4-0.6-5.6-1.801c-1.066-1.066-1.602-2.434-1.602-4.1
	v-13.199h3.102v13.1c0,0.934,0.266,1.699,0.799,2.301c0.732,0.732,1.834,1.1,3.301,1.1c1.4,0,2.467-0.367,3.199-1.1
	c0.6-0.602,0.9-1.367,0.9-2.301v-13.1H75.041 M101.641,136.121c0,1.666-0.533,3.033-1.6,4.1c-1.199,1.201-3.033,1.801-5.5,1.801
	c-2.533,0-4.4-0.6-5.6-1.801c-1.068-1.066-1.6-2.434-1.6-4.1v-13.199h3.1v13.1c0,0.934,0.268,1.699,0.799,2.301
	c0.734,0.732,1.834,1.1,3.301,1.1c1.4,0,2.467-0.367,3.199-1.1c0.602-0.602,0.9-1.367,0.9-2.301v-13.1h3V136.121 M109.342,64.021
	c2.934,0,5.1,0.701,6.5,2.1c1.465,1.4,2.199,3.301,2.199,5.701c0,2.465-0.668,4.367-2,5.699l-0.801,0.699
	c-2.066,1.602-5,2.602-8.799,3l-3,0.102l-0.701-3l2.602-0.102c4-0.266,6.699-1.1,8.1-2.5c1-1,1.5-2.232,1.5-3.699
	c0-1.6-0.533-2.934-1.6-4c-0.801-0.799-2.234-1.199-4.301-1.199l-6,1.199l-6.6,2.5l-1.301-3.199l6.201-1.801l6.5-1.4L109.342,64.021
	 M116.141,29.621c3.4,3.135,5.268,6.734,5.6,10.801v1.199c0,2.533-0.6,4.9-1.799,7.102c-0.934,1.666-2.201,3.266-3.801,4.799
	l-1.199-1.199l-0.201-0.201l2.801-3.398l0.5-0.9c1.066-1.934,1.6-4,1.6-6.201v-1.199c-0.334-3.334-1.9-6.367-4.699-9.1l-0.201-0.201
	l0.801-0.799L116.141,29.621 M106.941,22.021l-2.5,1.1L96.74,5.922l-7.699,17.199l-2.4-1.1l10.1-22L106.941,22.021 M98.74,54.822
	h-1.5l1.102-2.9H97.24v-2.9h3v2.701L98.74,54.822 M104.541,54.822h-1.5l1.1-2.9h-1.1v-2.9h3v2.701L104.541,54.822"/>
<path style="fill:none;stroke:#010202;stroke-width:2;stroke-linecap:round;stroke-linejoin:round;stroke-miterlimit:3;" d="
	M86.641,22.021h-7.799 M103.342,113.721v-24.5 M115.541,30.322l-2.301-2.201"/>
<path style="fill:#010202;" d="M106.493,31.602c0,1.149,0.513,2.001,1.522,2.532c0.412,0.223,0.849,0.336,1.298,0.336
	c1.028,0,1.838-0.443,2.401-1.314c0.31-0.465,0.466-0.979,0.466-1.529c0-0.738-0.251-1.383-0.752-1.918
	c-0.581-0.615-1.276-0.928-2.067-0.928c-0.6,0-1.155,0.174-1.654,0.518C106.901,29.864,106.493,30.64,106.493,31.602z
	 M109.337,32.979c-0.494,0-0.861-0.208-1.129-0.644c-0.151-0.219-0.225-0.45-0.225-0.709c0-0.553,0.234-0.94,0.718-1.189
	c0.209-0.111,0.417-0.164,0.636-0.164c0.33,0,0.619,0.107,0.881,0.326c0.317,0.277,0.473,0.613,0.473,1.027
	c0,0.398-0.148,0.728-0.452,1.004C109.977,32.864,109.682,32.979,109.337,32.979z"/>
</svg>
