<?xml version="1.0" encoding="iso-8859-1"?>
<!-- Generator: Adobe Illustrator 15.1.0, SVG Export Plug-In . SVG Version: 6.00 Build 0)  -->
<!DOCTYPE svg PUBLIC "-//W3C//DTD SVG 1.1//EN" "http://www.w3.org/Graphics/SVG/1.1/DTD/svg11.dtd">
<svg version="1.1" id="front-standing" xmlns="http://www.w3.org/2000/svg" xmlns:xlink="http://www.w3.org/1999/xlink" x="0px"
	 y="0px" width="160px" height="182px" viewBox="0 0 160 182" style="enable-background:new 0 0 160 182;" xml:space="preserve">
<path style="fill:#FFFFFF;" d="M60.791,122.9l-3.4-2.201l-3.5-7.799V105.1l0.9-0.799c1-0.801,1.898-1.834,2.699-3.102l-2.5-2
	l-1.4,1.9l0.801-21.9l3.5-25.6l0.799,0.7l1.5-1.399l-2-2.2c-2.066-2.533-3.066-5.3-3-8.3l0.102-2c0.465-3.067,2.1-5.9,4.898-8.5
	l-1.5-1.5l1-7.9l1.301,0.6L68.689,5.9L76.391,23.1l2.5-1.1h7.799l2.4,1.1L96.891,5.9L104.59,23.1l2.5-1.1l6.301,6.1l2.299,2.101
	l-0.1,0.1l-0.799,0.8l0.199,0.2c2.801,2.733,4.367,5.767,4.699,9.101V41.6c0,2.2-0.531,4.268-1.6,6.2l-0.5,0.9l-2.799,3.399
	l0.299,0.301l-0.6,0.5l-6.5,1.8V64.1l-6.5,1.4l-6.199,1.8l1.299,3.2l6.6-2.5l6-1.2c2.066,0,3.5,0.4,4.301,1.2
	c1.066,1.066,1.6,2.4,1.6,4c0,1.467-0.5,2.699-1.5,3.699c-1.4,1.4-4.133,2.234-8.199,2.5l-2.5,0.102l0.699,3l3-0.102l-0.1,5.5
	l-3,2.5v18.9v5.6l-1.699,9.201h-3V136c0,0.934-0.301,1.699-0.9,2.301c-0.732,0.732-1.801,1.1-3.201,1.1
	c-1.531,0-2.633-0.367-3.299-1.1c-0.6-0.602-0.867-1.367-0.801-2.301v-13.1h-3.199l-4.701-7h-3.5l-7.1,7V136
	c0,0.934-0.299,1.699-0.9,2.301c-0.732,0.732-1.799,1.1-3.199,1.1c-1.467,0-2.566-0.367-3.301-1.1
	c-0.6-0.602-0.867-1.367-0.799-2.301v-13.1H60.791 M82.09,55.3h2.701V51.4H99.09v3.8h2.6v-6.5h-2.299V29.8h-12.4v7.7l-0.1,2.2
	l-0.9,4.899l-2,4.101h-1.9v6.5V55.3 M86.99,48.7l1-1.8l1.801-7.101v-0.1l0.1-0.7v-6.5h6.799v16.2H86.99 M82.59,64l-8,1.5l-6.199,1.8
	l1.299,3.2l6.602-2.5l6-1.2c2.066,0,3.5,0.4,4.299,1.2c1.068,1.066,1.6,2.4,1.6,4c0,1.467-0.5,2.699-1.5,3.699
	c-1.398,1.4-4.1,2.234-8.1,2.5l-2.6,0.102l0.699,3c5.268-0.066,9.201-1.102,11.801-3.102l0.9-0.699c1.334-1.332,2-3.234,2-5.7
	c-0.068-2.399-0.834-4.3-2.301-5.7C87.689,64.7,85.523,64,82.59,64 M69.189,51.9l-1.1,2.899h1.5l1.5-3.1V49h-3v2.9H69.189
	 M65.291,51.7V49h-3v2.9h1.1l-1.1,2.899h1.5L65.291,51.7"/>
<path style="fill:#010202;" d="M104.59,23.1L96.891,5.9L89.09,23.1l-2.4-1.1L96.891,0l10.199,22L104.59,23.1 M114.791,52.1
	l2.799-3.399l0.5-0.9c1.068-1.933,1.6-4,1.6-6.2V40.4c-0.332-3.334-1.898-6.367-4.699-9.101l-0.199-0.2l0.799-0.8l0.1-0.1l0.5-0.601
	c3.4,3.134,5.268,6.733,5.602,10.801V41.6c0,2.533-0.602,4.9-1.801,7.101c-0.934,1.666-2.199,3.267-3.801,4.8l-1.1-1.1L114.791,52.1
	 M103.59,81.301l-0.699-3l2.5-0.102c4.066-0.266,6.799-1.1,8.199-2.5c1-1,1.5-2.232,1.5-3.699c0-1.6-0.533-2.934-1.6-4
	c-0.801-0.8-2.234-1.2-4.301-1.2l-6,1.2l-6.6,2.5l-1.299-3.2l6.199-1.8l6.5-1.4l1.5-0.1c2.934,0,5.1,0.7,6.5,2.1
	c1.467,1.4,2.199,3.301,2.199,5.7c0,2.466-0.666,4.368-2,5.7l-0.799,0.699c-2.068,1.602-5,2.602-8.801,3L103.59,81.301 M90.59,122.9
	V136c-0.066,0.934,0.201,1.699,0.801,2.301c0.666,0.732,1.768,1.1,3.299,1.1c1.4,0,2.469-0.367,3.201-1.1
	c0.6-0.602,0.9-1.367,0.9-2.301v-13.1h3V136.1c0,1.666-0.535,3.033-1.602,4.1C98.99,141.4,97.158,142,94.689,142
	c-2.6,0-4.5-0.6-5.699-1.801c-1.066-1.066-1.6-2.434-1.6-4.1V122.9H90.59 M63.891,122.9V136c-0.068,0.934,0.199,1.699,0.799,2.301
	c0.734,0.732,1.834,1.1,3.301,1.1c1.4,0,2.467-0.367,3.199-1.1c0.602-0.602,0.9-1.367,0.9-2.301v-13.1h3V136.1
	c0,1.666-0.533,3.033-1.6,4.1C72.291,141.4,70.457,142,67.99,142c-2.533,0-4.4-0.6-5.6-1.801c-1.135-1.066-1.666-2.434-1.6-4.1
	V122.9H63.891 M54.99,99.199l2.5,2c-0.801,1.268-1.699,2.301-2.699,3.102l-0.9,0.799c-0.934,0.6-2,0.9-3.201,0.9
	c-1.332,0-3.133-0.734-5.398-2.199L41.49,102.5c-1.133,0-2,0.367-2.6,1.1l-1.201,1.9L34.99,104l2.4-3.301
	c1.133-1.066,2.432-1.6,3.9-1.6c1.465,0,3,0.533,4.6,1.6c2.199,1.133,3.9,1.701,5.1,1.701c0.801,0,1.668-0.434,2.6-1.301
	L54.99,99.199 M60.189,31.9c-2.799,2.6-4.434,5.433-4.898,8.5l-0.102,2c-0.066,3,0.934,5.767,3,8.3l2,2.2l-1.5,1.399l-0.799-0.7
	L56.689,52.2c-2.465-2.934-3.666-6.2-3.6-9.8l0.1-2c0.469-3.733,2.301-7.067,5.5-10L60.189,31.9 M59.689,22.5l-1.1-0.5l10.1-22
	l10.201,22l-2.5,1.1L68.689,5.9L60.99,23.1L59.689,22.5 M99.09,51.3H84.791v3.9H82.09v-6.5h1.9l2-4.101l0.9-4.899l0.1-2.2v-7.7h12.4
	v18.9h2.299v6.5h-2.6v-3.8V51.3 M96.689,48.7V32.5v-0.1h-6.898v6.5L89.689,39.6V39.7l-1.799,7.1l-1,1.8l-0.1,0.101h0.199H96.689
	 M89.09,66.1c1.467,1.4,2.232,3.301,2.301,5.7c0,2.466-0.666,4.368-2,5.7l-0.9,0.699c-2.6,2-6.533,3.035-11.801,3.102l-0.699-3
	l2.6-0.102c4-0.266,6.701-1.1,8.1-2.5c1-1,1.5-2.232,1.5-3.699c0-1.6-0.531-2.934-1.6-4c-0.799-0.8-2.232-1.2-4.299-1.2l-6,1.2
	l-6.602,2.5l-1.299-3.2l6.199-1.8l8-1.5C85.523,64,87.689,64.7,89.09,66.1 M68.09,51.9V49h3v2.7l-1.5,3.1h-1.5l1.1-2.899H68.09
	 M63.791,54.8h-1.5l1.1-2.899h-1.1V49h3v2.7L63.791,54.8"/>
<path style="fill:none;stroke:#010202;stroke-width:2;stroke-linecap:round;stroke-linejoin:round;stroke-miterlimit:3;" d="
	M78.891,22h7.799 M103.49,89.199v18.9"/>
<path style="fill:none;stroke:#010202;stroke-width:2;stroke-linecap:round;stroke-linejoin:round;stroke-miterlimit:3;" d="
	M103.49,108.1v5.6 M113.391,28.1l2.199,2.2"/>
<path style="fill:#010202;" d="M106.409,29.81c0,1.149,0.513,2.001,1.522,2.532c0.412,0.223,0.849,0.336,1.298,0.336
	c1.028,0,1.838-0.443,2.401-1.315c0.31-0.464,0.466-0.979,0.466-1.529c0-0.738-0.251-1.383-0.752-1.917
	c-0.581-0.615-1.276-0.928-2.067-0.928c-0.6,0-1.155,0.174-1.654,0.517C106.817,28.072,106.409,28.847,106.409,29.81z
	 M109.253,31.187c-0.494,0-0.861-0.208-1.129-0.644c-0.151-0.218-0.225-0.45-0.225-0.709c0-0.552,0.234-0.94,0.718-1.188
	c0.209-0.111,0.417-0.165,0.636-0.165c0.33,0,0.619,0.108,0.881,0.327c0.317,0.277,0.473,0.613,0.473,1.026
	c0,0.399-0.148,0.728-0.452,1.004C109.893,31.072,109.598,31.187,109.253,31.187z"/>
<path style="fill:#010202;" d="M72.284,29.81c0,1.149,0.513,2.001,1.522,2.532c0.412,0.223,0.849,0.336,1.298,0.336
	c1.028,0,1.838-0.443,2.401-1.315c0.31-0.464,0.466-0.979,0.466-1.529c0-0.738-0.251-1.383-0.752-1.917
	c-0.581-0.615-1.276-0.928-2.067-0.928c-0.6,0-1.155,0.174-1.654,0.517C72.692,28.072,72.284,28.847,72.284,29.81z M75.128,31.187
	c-0.494,0-0.861-0.208-1.129-0.644c-0.151-0.218-0.225-0.45-0.225-0.709c0-0.552,0.234-0.94,0.718-1.188
	c0.209-0.111,0.417-0.165,0.636-0.165c0.33,0,0.619,0.108,0.881,0.327c0.317,0.277,0.473,0.613,0.473,1.026
	c0,0.399-0.148,0.728-0.452,1.004C75.768,31.072,75.473,31.187,75.128,31.187z"/>
</svg>
