<?xml version="1.0" encoding="iso-8859-1"?>
<!-- Generator: Adobe Illustrator 15.1.0, SVG Export Plug-In . SVG Version: 6.00 Build 0)  -->
<!DOCTYPE svg PUBLIC "-//W3C//DTD SVG 1.1//EN" "http://www.w3.org/Graphics/SVG/1.1/DTD/svg11.dtd">
<svg version="1.1" id="front-walking-2" xmlns="http://www.w3.org/2000/svg" xmlns:xlink="http://www.w3.org/1999/xlink" x="0px"
	 y="0px" width="159px" height="182px" viewBox="0 0 159 182" style="enable-background:new 0 0 159 182;" xml:space="preserve">
<path style="fill:#FFFFFF;" d="M84.657,38.499l-0.1,2.2l-0.9,4.9l-2.1,4h-1.9v0.1v6.5h2.699V52.3h14.4v3.899h2.801v-6.5v-0.1h-2.4
	V30.8v-0.101h-12.5V30.8V38.499 M113.257,31.199h-0.1l-0.699,0.8l0.199,0.2c2.801,2.733,4.332,5.767,4.6,9.101l0.1,1.199
	c0,2.2-0.531,4.268-1.6,6.2l-0.5,0.9l-2.799,3.399l0.199,0.2l-0.6,0.601l-6.5,1.8v9.399l-6.5,1.4l-6.301,1.8l1.301,3.2l6.699-2.5
	l6-1.2c2.068,0,3.5,0.4,4.301,1.2c1.066,1.066,1.6,2.4,1.6,4c0,1.467-0.5,2.699-1.5,3.699c-1.4,1.4-4.133,2.234-8.199,2.5
	l-2.5,0.102l0.699,3l3-0.102l-0.1,5.5l-3,2.5V102.2v5.398h-9.1v3.102h13.199l2.301,0.799c0.732,0.732,1.1,1.834,1.1,3.301
	c0,1.4-0.367,2.467-1.1,3.199c-0.602,0.6-1.367,0.9-2.301,0.9H91.958v1.9H78.356h-0.199h-5.699l-3.102,3v13.1
	c0,0.934-0.299,1.699-0.898,2.301c-0.734,0.732-1.801,1.1-3.201,1.1c-1.467,0-2.566-0.367-3.299-1.1
	c-0.535-0.602-0.801-1.367-0.801-2.301v-13.1h-3.1l-3.4-2.201l-3.5-7.799v-4.801h0.301v-3l0.898-0.799l0.4-0.301l2.301-2.801l-2.5-2
	l-1.4,1.9l0.801-21.9l3.5-25.6l0.799,0.7l1.5-1.399l-2-2.2c-1.932-2.467-2.932-5.134-3-8v-0.5l0.1-1.8
	c0.469-3.067,2.102-5.9,4.9-8.5l-1.5-1.5l1-7.9l1.301,0.6L66.257,6.8l7.701,17.199l2.5-1.1h7.799l2.4,1.1L94.356,6.8l7.801,17.199
	l2.5-1.1l6.301,6.1L113.257,31.199 M87.356,39.899v-6.5h7v16.3h-9.898l0.1-0.1l1-1.8l1.799-7.101v-0.1V39.899 M80.157,64.899l-8,1.5
	l-6.199,1.8l1.299,3.2l6.6-2.5l6-1.2c2.066,0,3.5,0.4,4.301,1.2c1.066,1.066,1.6,2.4,1.6,4c0,1.467-0.5,2.699-1.5,3.699
	c-1.4,1.4-4.1,2.234-8.1,2.5l-2.6,0.102l0.699,3c5.268-0.066,9.201-1.102,11.801-3.102l0.799-0.699c1.334-1.332,2-3.234,2-5.7
	c0-2.399-0.732-4.3-2.199-5.7C85.257,65.6,83.091,64.899,80.157,64.899 M65.657,49.899v2.9h1.1l-1.1,2.899h1.5l1.5-3.1v-2.7H65.657
	 M62.856,52.6v-2.7h-3v2.9h1.102l-1.102,2.899h1.5L62.856,52.6"/>
<path style="fill:#010202;" d="M83.657,45.6l0.9-4.9l0.1-2.2V30.8h12.5v18.8v0.1h2.4v6.5h-2.801V52.3h-14.4v3.899h-2.699v-6.5h1.9
	L83.657,45.6 M56.157,22.899l10.1-22l10.201,22l-2.5,1.1L66.257,6.8l-7.699,17.199l-1.301-0.6L56.157,22.899 M54.257,53.1
	l-1.5-2.101c-1.467-2.333-2.166-4.899-2.1-7.699l0.1-2c0.268-2,0.934-3.9,2-5.7l3.5-4.3l1.5,1.5c-2.799,2.6-4.432,5.433-4.9,8.5
	l-0.1,1.8v0.5c0.068,2.866,1.068,5.533,3,8l2,2.2l-1.5,1.399l-0.799-0.7L54.257,53.1 M48.257,106.899
	c-1.268,0-3.033-0.734-5.299-2.199c-1.602-0.867-2.867-1.301-3.801-1.301c-1.199,0-2.066,0.367-2.6,1.1l-0.301,0.4l-0.9,1.5
	l-2.699-1.5c0.533-1.266,1.332-2.367,2.4-3.301l1.199-0.898l2.701-0.701c1.465,0,2.965,0.533,4.5,1.6
	c2.199,1.133,3.898,1.701,5.1,1.701c0.799,0,1.666-0.434,2.6-1.301l1.4-1.9l2.5,2l-2.301,2.801l-0.4,0.301l-0.898,0.799
	C50.524,106.599,49.458,106.899,48.257,106.899 M72.356,123.8v13.199c0,1.666-0.531,3.033-1.6,4.1
	c-1.199,1.201-3.033,1.801-5.5,1.801c-2.533,0-4.4-0.6-5.6-1.801c-1.066-1.066-1.6-2.434-1.6-4.1V123.8h3.1v13.1
	c0,0.934,0.266,1.699,0.801,2.301c0.732,0.732,1.832,1.1,3.299,1.1c1.4,0,2.467-0.367,3.201-1.1c0.6-0.602,0.898-1.367,0.898-2.301
	v-13.1H72.356 M105.257,107.599c1.666,0,3.033,0.535,4.1,1.602c1.201,1.199,1.801,3.066,1.801,5.6c0,2.467-0.6,4.299-1.801,5.5
	l-0.6,0.5c-1,0.732-2.166,1.1-3.5,1.1H91.958v-1.1v-1.9h13.199c0.934,0,1.699-0.301,2.301-0.9c0.732-0.732,1.1-1.799,1.1-3.199
	c0-1.467-0.367-2.568-1.1-3.301l-2.301-0.799H91.958v-3.102h9.1H105.257 M107.058,64.899c2.932,0,5.1,0.7,6.5,2.1
	c1.467,1.4,2.199,3.301,2.199,5.7c0,2.466-0.666,4.368-2,5.7l-0.799,0.699c-2.133,1.602-5.066,2.602-8.801,3l-3,0.102l-0.699-3
	l2.5-0.102c4.066-0.266,6.799-1.1,8.199-2.5c1-1,1.5-2.232,1.5-3.699c0-1.6-0.533-2.934-1.6-4c-0.801-0.8-2.232-1.2-4.301-1.2
	l-6,1.2l-6.699,2.5l-1.301-3.2l6.301-1.8l6.5-1.4L107.058,64.899 M113.856,30.499c3.4,3.134,5.234,6.733,5.5,10.801l0.102,1.199
	c0,2.533-0.602,4.9-1.801,7.101c-0.934,1.666-2.199,3.267-3.801,4.8l-1.199-1.2l-0.199-0.2l2.799-3.399l0.5-0.9
	c1.068-1.933,1.6-4,1.6-6.2l-0.1-1.199c-0.268-3.334-1.799-6.367-4.6-9.101l-0.199-0.2l0.699-0.8h0.1L113.856,30.499
	 M104.657,22.899l-2.5,1.1L94.356,6.8l-7.699,17.199l-2.4-1.1l10.1-22L104.657,22.899 M87.356,40.6v0.1L85.558,47.8l-1,1.8l-0.1,0.1
	h9.898v-16.3h-7v6.5V40.6 M86.657,66.999c1.467,1.4,2.199,3.301,2.199,5.7c0,2.466-0.666,4.368-2,5.7l-0.799,0.699
	c-2.6,2-6.533,3.035-11.801,3.102l-0.699-3l2.6-0.102c4-0.266,6.699-1.1,8.1-2.5c1-1,1.5-2.232,1.5-3.699c0-1.6-0.533-2.934-1.6-4
	c-0.801-0.8-2.234-1.2-4.301-1.2l-6,1.2l-6.6,2.5l-1.299-3.2l6.199-1.8l8-1.5C83.091,64.899,85.257,65.6,86.657,66.999
	 M68.657,49.899v2.7l-1.5,3.1h-1.5l1.1-2.899h-1.1v-2.9H68.657 M61.356,55.699h-1.5l1.102-2.899h-1.102v-2.9h3v2.7L61.356,55.699"/>
<path style="fill:none;stroke:#010202;stroke-width:2;stroke-linecap:round;stroke-linejoin:round;stroke-miterlimit:3;" d="
	M84.257,22.899h-7.799 M101.058,102.2V90.099 M113.157,31.199l-2.199-2.2"/>
<path style="fill:#010202;" d="M104.091,29.81c0,1.149,0.513,2.001,1.522,2.532c0.412,0.223,0.849,0.336,1.298,0.336
	c1.028,0,1.838-0.443,2.401-1.315c0.31-0.464,0.466-0.979,0.466-1.529c0-0.738-0.251-1.383-0.752-1.917
	c-0.581-0.615-1.276-0.928-2.067-0.928c-0.6,0-1.155,0.174-1.654,0.517C104.499,28.072,104.091,28.847,104.091,29.81z
	 M106.935,31.187c-0.494,0-0.861-0.208-1.129-0.644c-0.151-0.218-0.225-0.45-0.225-0.709c0-0.552,0.234-0.94,0.718-1.188
	c0.209-0.111,0.417-0.165,0.636-0.165c0.33,0,0.619,0.108,0.881,0.327c0.317,0.277,0.473,0.613,0.473,1.026
	c0,0.399-0.148,0.728-0.452,1.004C107.574,31.072,107.279,31.187,106.935,31.187z"/>
<path style="fill:#010202;" d="M69.966,29.81c0,1.149,0.513,2.001,1.522,2.532c0.412,0.223,0.849,0.336,1.298,0.336
	c1.028,0,1.838-0.443,2.401-1.315c0.31-0.464,0.466-0.979,0.466-1.529c0-0.738-0.251-1.383-0.752-1.917
	c-0.581-0.615-1.276-0.928-2.067-0.928c-0.6,0-1.155,0.174-1.654,0.517C70.374,28.072,69.966,28.847,69.966,29.81z M72.81,31.187
	c-0.494,0-0.861-0.208-1.129-0.644c-0.151-0.218-0.225-0.45-0.225-0.709c0-0.552,0.234-0.94,0.718-1.188
	c0.209-0.111,0.417-0.165,0.636-0.165c0.33,0,0.619,0.108,0.881,0.327c0.317,0.277,0.473,0.613,0.473,1.026
	c0,0.399-0.148,0.728-0.452,1.004C73.449,31.072,73.154,31.187,72.81,31.187z"/>
</svg>
