<?xml version="1.0" encoding="UTF-8" standalone="no"?>
<!DOCTYPE svg PUBLIC "-//W3C//DTD SVG 1.1//EN" "http://www.w3.org/Graphics/SVG/1.1/DTD/svg11.dtd">
<svg width="160px" height="182px" version="1.1" xmlns="http://www.w3.org/2000/svg" xmlns:xlink="http://www.w3.org/1999/xlink" xml:space="preserve" xmlns:serif="http://www.serif.com/" style="fill-rule:evenodd;clip-rule:evenodd;stroke-miterlimit:1.5;">
    <g>
        <path d="M119.737,30.946L111.437,30.035" style="fill:none;stroke:rgb(209,209,209);stroke-width:2.5px;"/>
        <path d="M61,22L70,3L78,22L89,22L98,3L107,22L111.661,25.25L110.656,25.276C114.354,27.982 115.898,31.242 117.069,35.21C117.069,35.21 119.136,33.157 119.262,33.336C123.92,39.97 122.691,46.254 116.2,52.25L109,55L109,65C117.679,66.223 120.541,69.925 115.492,77C111.994,78.93 108.497,79.871 105,80L105,110.299C113.731,111.036 112.833,121.006 105,121.851L93.439,121.851L84,116L80.493,116L75,123L75,136C70.981,142.578 67.16,142.153 63.5,136L63.5,123L58,120L55,113L55,90L61,53.5C53.258,45.715 53.438,38.222 61,31L61,22Z" style="fill:white;"/>
        <path d="M38,104.5C39.334,100.836 41.691,99.898 45,101.5L49,103.5C52.96,105.28 55.515,103.593 57.5,100.5" style="fill:none;stroke:black;stroke-width:2.5px;"/>
        <path d="M75,123L75,135.133C75,138.095 72.424,140.5 69.25,140.5C66.076,140.5 63.5,138.095 63.5,135.133L63.5,123" style="fill:none;stroke:black;stroke-width:2.5px;"/>
        <path d="M93.439,110.351L105.572,110.296C108.534,110.283 110.951,112.848 110.965,116.022C110.979,119.195 108.586,121.782 105.625,121.796L93.491,121.851" style="fill:white;stroke:black;stroke-width:2.5px;"/>
        <path d="M97,69C100.568,67.36 105.331,65.999 110.5,65C112.724,64.991 114.499,65.648 116,67.241C118.668,70.074 118.865,73.665 115.5,77C112.455,78.777 108.826,79.824 104.5,80" style="fill:none;stroke:black;stroke-width:2.5px;"/>
        <path d="M105.341,40L86.341,40L84.141,38" style="fill:none;fill-rule:nonzero;stroke:rgb(51,51,51);stroke-width:2.5px;stroke-linecap:round;stroke-linejoin:round;stroke-miterlimit:4;"/>
        <path d="M71.22,53.989C71.978,50.136 73.662,45.477 75.876,40.701C77.171,38.892 78.742,37.837 80.912,37.552C84.77,37.046 87.798,38.988 88.533,43.668C88.192,47.177 86.918,50.733 84.529,54.344" style="fill:white;stroke:black;stroke-width:2.5px;"/>
        <path d="M116.2,52.25C119.601,50.298 121.8,45.881 121.8,41C121.8,37.947 120.94,35.076 119.463,32.875C119.136,32.388 118,35.095 117.615,34.679C116.96,33.97 116.092,30.919 115.29,30.458" style="fill:none;stroke:black;stroke-width:2.5px;"/>
        <path d="M61,53.5C57.599,51.548 55.4,47.131 55.4,42.25C55.4,37.369 57.599,32.952 61,31" style="fill:none;stroke:black;stroke-width:2.5px;"/>
        <path d="M70.941,40.6L66.941,44.6L70.641,48.2M66.941,44.6L66.941,44.5L66.941,49.5M66.941,44.6L63.241,48.2M62.941,40.6L66.941,44.5L66.941,38.6" style="fill:none;fill-rule:nonzero;stroke:rgb(254,165,192);stroke-width:2px;stroke-linecap:round;stroke-linejoin:round;stroke-miterlimit:4;"/>
        <path d="M61,22L70,3L78,22L89,22L98,3L107,22" style="fill:none;stroke:black;stroke-width:2.5px;stroke-miterlimit:3;"/>
    </g>
    <path d="M92.064,28.97L91.942,31.927C91.853,34.075 90.037,35.747 87.889,35.658L75.704,35.153C73.556,35.064 71.884,33.248 71.973,31.1L72.096,28.143C72.185,25.995 74.001,24.323 76.148,24.412L88.334,24.917C90.482,25.006 92.153,26.822 92.064,28.97Z" style="fill:none;stroke:rgb(170,224,236);stroke-width:2.5px;"/>
    <path d="M119.051,29.837L118.929,32.795C118.84,34.943 117.024,36.614 114.876,36.525L102.691,36.021C100.543,35.932 98.871,34.116 98.96,31.968L99.083,29.01C99.172,26.862 100.988,25.191 103.136,25.28L115.321,25.785C117.469,25.874 119.14,27.69 119.051,29.837Z" style="fill:none;stroke:rgb(170,224,236);stroke-width:2.5px;"/>
    <path d="M71.22,30.035L62.839,29.135" style="fill:none;stroke:rgb(209,209,209);stroke-width:2.5px;"/>
    <path d="M62.839,29.135L61,29.135" style="fill:none;stroke:rgb(255,211,247);stroke-width:2.5px;"/>
    <path d="M98.299,30.709L93.455,30.509" style="fill:none;stroke:rgb(209,209,209);stroke-width:2.5px;"/>
    <path d="M93.054,29.509L92.924,32.643C92.83,34.919 90.905,36.69 88.629,36.596L76.528,36.095C74.252,36.001 72.48,34.076 72.575,31.8L72.704,28.666C72.799,26.39 74.723,24.618 76.999,24.713L89.1,25.214C91.377,25.308 93.148,27.233 93.054,29.509Z" style="fill:white;fill-opacity:0.5;"/>
    <path d="M120.556,30.383L120.426,33.517C120.332,35.793 118.407,37.564 116.131,37.47L104.03,36.969C101.754,36.875 99.982,34.95 100.077,32.674L100.207,29.54C100.301,27.264 102.225,25.492 104.501,25.587L116.603,26.088C118.879,26.182 120.65,28.107 120.556,30.383Z" style="fill:white;fill-opacity:0.5;"/>
    <g id="gikopoipoi_eyes_open">
        <ellipse cx="107" cy="30" rx="2" ry="2.433" style="fill:none;stroke:rgb(128,128,128);stroke-width:1.5px;"/>
        <ellipse cx="80" cy="30" rx="2" ry="2.433" style="fill:none;stroke:rgb(128,128,128);stroke-width:1.5px;"/>
    </g>
    <g id="gikopoipoi_eyes_closed" style="display:none">
        <path d="M104.529,30L109.602,30" style="fill:none;fill-rule:nonzero;stroke:rgb(128,128,128);stroke-width:2.27px;stroke-linecap:round;stroke-linejoin:round;stroke-miterlimit:4;"/>
        <path d="M77.276,30L82.349,30" style="fill:none;fill-rule:nonzero;stroke:rgb(128,128,128);stroke-width:2.27px;stroke-linecap:round;stroke-linejoin:round;stroke-miterlimit:4;"/>
    </g>
</svg>
