<?xml version="1.0" encoding="UTF-8" standalone="no"?>
<!DOCTYPE svg PUBLIC "-//W3C//DTD SVG 1.1//EN" "http://www.w3.org/Graphics/SVG/1.1/DTD/svg11.dtd">
<svg width="160px" height="182px" version="1.1" xmlns="http://www.w3.org/2000/svg" xmlns:xlink="http://www.w3.org/1999/xlink" xml:space="preserve" xmlns:serif="http://www.serif.com/" style="fill-rule:evenodd;clip-rule:evenodd;stroke-miterlimit:1.5;">
    <g>
        <path d="M119.737,30.946L111.437,29.456" style="fill:none;stroke:#ffdef1;stroke-width:2.5px;"/>
        <path d="M61,22L70,3L78,22L89,22L98,3L107,22L110.291,23.348L108.086,23.348C111.784,26.054 115.198,30.034 116.369,34.002C116.369,34.002 118.436,31.949 118.562,32.128C123.22,38.762 122.691,46.254 116.2,52.25L109,55L109,65C117.679,66.223 120.541,69.925 115.492,77C111.994,78.93 108.497,79.871 105,80L105,102.251C116.454,101.745 119.147,114.068 105,114L61.641,115L55.141,108.5L55,90L61,53.5C53.258,45.715 53.438,38.222 61,31L61,22Z" style="fill:#fff;"/>
        <path d="M38,104.5C39.334,100.836 41.691,99.898 45,101.5L49,103.5C52.96,105.28 55.515,103.593 57.5,100.5" style="fill:none;stroke:#000;stroke-width:2.5px;"/>
        <path d="M96.143,102.251L108.276,102.251C111.238,102.251 113.643,104.827 113.643,108.001C113.643,111.174 111.238,113.751 108.276,113.751L96.143,113.751" style="fill:none;stroke:#000;stroke-width:2.5px;"/>
        <path d="M71.25,102.251L83.383,102.251C86.345,102.251 88.75,104.827 88.75,108.001C88.75,111.174 86.345,113.751 83.383,113.751L71.25,113.751" style="fill:none;stroke:#000;stroke-width:2.5px;"/>
        <path d="M105,88L105,102.251" style="fill:none;stroke:#000;stroke-width:2.5px;"/>
        <path d="M97,69C100.568,67.36 105.331,65.999 110.5,65C112.724,64.991 114.499,65.648 116,67.241C118.668,70.074 118.865,73.665 115.5,77C112.455,78.777 108.826,79.824 104.5,80" style="fill:none;stroke:#000;stroke-width:2.5px;"/>
        <path d="M70.074,70.737C73.331,68.545 77.813,66.434 82.754,64.616C84.947,64.249 86.805,64.612 88.543,65.942C91.632,68.308 92.405,71.821 89.62,75.655C86.901,77.899 83.488,79.517 79.247,80.386" style="fill:#fff;stroke:#000;stroke-width:2.5px;"/>
        <path d="M116.2,52.25C119.601,50.298 121.8,45.881 121.8,41C121.8,37.947 119.855,34.049 118.378,31.848C118.051,31.361 116.915,34.068 116.53,33.652C115.875,32.943 115.652,31.086 114.85,30.625" style="fill:none;stroke:#000;stroke-width:2.5px;"/>
        <path d="M61,53.5C57.599,51.548 55.4,47.131 55.4,42.25C55.4,37.369 57.599,32.952 61,31" style="fill:none;stroke:#000;stroke-width:2.5px;"/>
        <path d="M70.941,40.6L66.941,44.6L70.641,48.2M66.941,44.6L66.941,44.5L66.941,49.5M66.941,44.6L63.241,48.2M62.941,40.6L66.941,44.5L66.941,38.6" style="fill:none;fill-rule:nonzero;stroke:#fea5c0;stroke-width:2px;stroke-linecap:round;stroke-linejoin:round;stroke-miterlimit:4;"/>
        <path d="M105.341,40L86.341,40L84.141,38" style="fill:none;fill-rule:nonzero;stroke:#333;stroke-width:2.5px;stroke-linecap:round;stroke-linejoin:round;stroke-miterlimit:4;"/>
        <path d="M61,22L70,3L78,22L89,22L98,3L107,22" style="fill:none;stroke:#000;stroke-width:2.5px;stroke-miterlimit:3;"/>
    </g>
    <path d="M73,30.201L62.839,29.135" style="fill:none;stroke:#ffdef1;stroke-width:2.5px;"/>
    <path d="M62.839,29.135L60.446,28.845" style="fill:none;stroke:#ffeff8;stroke-width:2.5px;"/>
    <g id="gikopoipoi_eyes_open">
        <ellipse cx="107" cy="30" rx="2" ry="2.433" style="fill:none;stroke:#000;stroke-width:1.5px;"/>
        <ellipse cx="80" cy="30" rx="2" ry="2.433" style="fill:none;stroke:#000;stroke-width:1.5px;"/>
    </g>
    <g id="gikopoipoi_eyes_closed" style="display:none" fill="none" stroke="#000" stroke-linecap="round" stroke-linejoin="round">
        <path d="M104.529,30L109.602,30" style="fill:none;fill-rule:nonzero;stroke:#000;stroke-width:2.27px;stroke-linecap:round;stroke-linejoin:round;stroke-miterlimit:4;"/>
        <path d="M77.276,30L82.349,30" style="fill:none;fill-rule:nonzero;stroke:#000;stroke-width:2.27px;stroke-linecap:round;stroke-linejoin:round;stroke-miterlimit:4;"/>
    </g>
    <path d="M99.637,30L91.756,30" style="fill:none;stroke:#ffdef1;stroke-width:2.5px;"/>
    <path d="M89.672,23.32C89.672,23.32 91.756,27.555 91.756,29.673C91.756,31.79 89.672,36.025 89.672,36.025C89.672,36.025 84.809,37 82.378,37C79.947,37 75.084,36.025 75.084,36.025C75.084,36.025 73,31.79 73,29.673C73,27.555 75.084,23.32 75.084,23.32C75.084,23.32 79.947,22.343 82.378,22.343C84.809,22.343 89.672,23.32 89.672,23.32Z" style="fill:#ffe7f9;fill-opacity:0.43;stroke:#ffdef1;stroke-width:2px;stroke-linecap:round;stroke-linejoin:round;"/>
    <path d="M116.294,23.32C116.294,23.32 118.378,27.555 118.378,29.673C118.378,31.79 116.294,36.025 116.294,36.025C116.294,36.025 111.431,37 109,37C106.569,37 101.706,36.025 101.706,36.025C101.706,36.025 99.622,31.79 99.622,29.673C99.622,27.555 101.706,23.32 101.706,23.32C101.706,23.32 106.569,22.343 109,22.343C111.431,22.343 116.294,23.32 116.294,23.32Z" style="fill:#ffe7f9;fill-opacity:0.43;stroke:#ffdef1;stroke-width:2px;stroke-linecap:round;stroke-linejoin:round;"/>
</svg>
