<svg xmlns:xlink="http://www.w3.org/1999/xlink" height="113.7" width="80.25" xmlns="http://www.w3.org/2000/svg"><g transform="translate(38.15 95.15)"><use height="113.7" transform="translate(-38.15 -95.15)" width="80.25" xlink:href="#shape0"/><use height="24.95" transform="translate(-15.25 -16.95)" width="48.25" xlink:href="#sprite0"/></g><defs><linearGradient gradientTransform="matrix(-.0008 0 0 .0235 9.45 -38.15)" gradientUnits="userSpaceOnUse" id="gradient1" spreadMethod="pad" x1="-819.2" x2="819.2"><stop offset=".016"/><stop offset=".49" stop-color="#848484"/><stop offset="1"/></linearGradient><linearGradient gradientTransform="matrix(-.0008 0 0 .0235 15.45 -35.15)" gradientUnits="userSpaceOnUse" id="gradient2" spreadMethod="pad" x1="-819.2" x2="819.2"><stop offset=".016"/><stop offset=".49" stop-color="#848484"/><stop offset="1"/></linearGradient><linearGradient gradientTransform="matrix(-.0008 0 0 .0235 21.45 -32.15)" gradientUnits="userSpaceOnUse" id="gradient3" spreadMethod="pad" x1="-819.2" x2="819.2"><stop offset=".016"/><stop offset=".49" stop-color="#848484"/><stop offset="1"/></linearGradient><linearGradient gradientTransform="matrix(-.0008 0 0 .0235 27.45 -29.15)" gradientUnits="userSpaceOnUse" id="gradient4" spreadMethod="pad" x1="-819.2" x2="819.2"><stop offset=".016"/><stop offset=".49" stop-color="#848484"/><stop offset="1"/></linearGradient><linearGradient gradientTransform="matrix(-.0008 0 0 .0235 33.45 -26.15)" gradientUnits="userSpaceOnUse" id="gradient5" spreadMethod="pad" x1="-819.2" x2="819.2"><stop offset=".016"/><stop offset=".49" stop-color="#848484"/><stop offset="1"/></linearGradient><linearGradient gradientTransform="matrix(.0004 -.0007 -.0211 -.0104 24.25 -49.7)" gradientUnits="userSpaceOnUse" id="gradient6" spreadMethod="pad" x1="-819.2" x2="819.2"><stop offset=".016"/><stop offset=".49" stop-color="#848484"/><stop offset="1"/></linearGradient><linearGradient gradientTransform="matrix(-.0004 .0007 .0211 .0104 26.75 -48.55)" gradientUnits="userSpaceOnUse" id="gradient7" spreadMethod="pad" x1="-819.2" x2="819.2"><stop offset=".016"/><stop offset=".49" stop-color="#848484"/><stop offset="1"/></linearGradient><linearGradient gradientTransform="matrix(.0004 -.0007 -.0211 -.0104 18.25 -52.7)" gradientUnits="userSpaceOnUse" id="gradient8" spreadMethod="pad" x1="-819.2" x2="819.2"><stop offset=".016"/><stop offset=".49" stop-color="#848484"/><stop offset="1"/></linearGradient><linearGradient gradientTransform="matrix(.0004 -.0007 -.0211 -.0104 22.25 -50.7)" gradientUnits="userSpaceOnUse" id="gradient9" spreadMethod="pad" x1="-819.2" x2="819.2"><stop offset=".016"/><stop offset=".49" stop-color="#848484"/><stop offset="1"/></linearGradient><linearGradient gradientTransform="matrix(-.0004 .0007 .0211 .0104 20.75 -51.55)" gradientUnits="userSpaceOnUse" id="gradient10" spreadMethod="pad" x1="-819.2" x2="819.2"><stop offset=".016"/><stop offset=".49" stop-color="#848484"/><stop offset="1"/></linearGradient><linearGradient gradientTransform="matrix(-.0004 .0007 .0211 .0104 24.75 -49.55)" gradientUnits="userSpaceOnUse" id="gradient11" spreadMethod="pad" x1="-819.2" x2="819.2"><stop offset=".016"/><stop offset=".49" stop-color="#848484"/><stop offset="1"/></linearGradient><g id="shape0"><path d="M.5-94.9l.05 68.75L-33-9.45l.1-68.8L.5-94.9" fill="url(#gradient0)" fill-rule="evenodd" transform="translate(38.15 95.15)"/><path d="M38.65.25L38.7 69M5.15 85.7l.1-68.8" fill="none" stroke="#000" stroke-linecap="round" stroke-linejoin="round" stroke-width=".5"/><path d="M5.25 16.9L38.65.25" fill="none" stroke="#505050" stroke-linecap="round" stroke-linejoin="round" stroke-width=".5"/><path d="M38.7 69L5.15 85.7" fill="none" stroke="#666" stroke-linecap="round" stroke-linejoin="round" stroke-width=".5"/><path d="M9.95-57.2l.15 37.8-.3.35-.45.15-.4-.15q-.15-.1-.15-.35v-37.95q0 .2.15.3l.4.15.45-.15.15-.15" fill="url(#gradient1)" fill-rule="evenodd" transform="translate(38.15 95.15)"/><path d="M48.1 37.95l.15 37.8-.3.35-.45.15-.4-.15q-.15-.1-.15-.35V37.8q0 .2.15.3l.4.15.45-.15.15-.15z" fill="none" stroke="#000" stroke-linecap="round" stroke-linejoin="round" stroke-width=".5"/><path d="M15.95-54.2l.15 37.8-.3.35-.45.15-.4-.15q-.15-.1-.15-.35v-37.95q0 .2.15.3l.4.15.45-.15.15-.15" fill="url(#gradient2)" fill-rule="evenodd" transform="translate(38.15 95.15)"/><path d="M54.1 40.95l.15 37.8-.3.35-.45.15-.4-.15q-.15-.1-.15-.35V40.8q0 .2.15.3l.4.15.45-.15.15-.15z" fill="none" stroke="#000" stroke-linecap="round" stroke-linejoin="round" stroke-width=".5"/><path d="M21.95-51.2l.15 37.8-.3.35-.45.15-.4-.15q-.15-.1-.15-.35v-37.95q0 .2.15.3l.4.15.45-.15.15-.15" fill="url(#gradient3)" fill-rule="evenodd" transform="translate(38.15 95.15)"/><path d="M60.1 43.95l.15 37.8-.3.35-.45.15-.4-.15q-.15-.1-.15-.35V43.8q0 .2.15.3l.4.15.45-.15.15-.15z" fill="none" stroke="#000" stroke-linecap="round" stroke-linejoin="round" stroke-width=".5"/><path d="M28-48.2l.1 37.8-.25.35-.45.15q-.25 0-.4-.15l-.2-.35v-38l.2.35q.15.15.4.15l.45-.15.15-.15" fill="url(#gradient4)" fill-rule="evenodd" transform="translate(38.15 95.15)"/><path d="M66.15 46.95l.1 37.8-.25.35-.45.15q-.25 0-.4-.15l-.2-.35v-38l.2.35q.15.15.4.15l.45-.15.15-.15z" fill="none" stroke="#000" stroke-linecap="round" stroke-linejoin="round" stroke-width=".5"/><path d="M32.95-45.05l.4.15.45-.15.15-.15.15 37.8-.3.35-.45.15-.4-.15q-.15-.1-.15-.35v-37.95q0 .2.15.3" fill="url(#gradient5)" fill-rule="evenodd" transform="translate(38.15 95.15)"/><path d="M71.1 50.1l.4.15.45-.15.15-.15.15 37.8-.3.35-.45.15-.4-.15q-.15-.1-.15-.35V49.8q0 .2.15.3z" fill="none" stroke="#000" stroke-linecap="round" stroke-linejoin="round" stroke-width=".5"/><path d="M9.25-56.4l-2.1-1-.2-.4.05-.45.3-.3h.4l10.9 5.35.25.1 1.8.9.2.1v.05l-11-5.35.1.2-.05.5-.35.3h-.3" fill="url(#gradient6)" fill-rule="evenodd" transform="translate(38.15 95.15)"/><path d="M9.25-56.4h.3l.35-.3.05-.5-.1-.2 11 5.35v1.35l-11.7-5.7h.1" fill="url(#gradient7)" fill-rule="evenodd" transform="translate(38.15 95.15)"/><path d="M20.65-52.2l-1.8-.9-.25-.1v-.05L23.1-51l-.5-.25-1.95-.95" fill="url(#gradient8)" fill-rule="evenodd" transform="translate(38.15 95.15)"/><path d="M20.85-52.05v-.05l-.2-.1 1.95.95v.05q-.85-.4-1.75-.85" fill="url(#gradient9)" fill-rule="evenodd" transform="translate(38.15 95.15)"/><path d="M23.1-51l11.6 5.65 1.05.5.05.05 2.05 1 .2.4-.1.45-.3.3h-.4L22.6-49.9v-1.35l.5.25m12.7 6.2l-1.1-.55 1.1.55" fill="url(#gradient10)" fill-rule="evenodd" transform="translate(38.15 95.15)"/><path d="M22.6-49.9v.05q-.85-.4-1.75-.85v-1.35q.9.45 1.75.85v1.3" fill="url(#gradient11)" fill-rule="evenodd" transform="translate(38.15 95.15)"/><path d="M56.75 41.95l-10.9-5.35h-.4l-.3.3-.05.45.2.4 2.1 1m.6-1l11 5.35q.9.45 1.75.85m-1.75-.9l-.2-.1-1.8-.9-.25-.1m0-.05l4.5 2.25 11.6 5.65 1.05.5.05.05 2.05 1 .2.4-.1.45-.3.3h-.4l-14.65-7.25m0 .05q-.85-.4-1.75-.85l-11.7-5.7h.1m13.35 5.15l-1.95-.95m2.45 1.2l-.5-.25m12.1 5.9l1.1.55" fill="none" stroke="#000" stroke-linecap="round" stroke-linejoin="round" stroke-width=".5"/><path d="M41.85-5.55v3.6L2.1 18.3v-2l3.95-1.95.05-.05v-2L41.85-5.55" fill="#bcbcbc" fill-rule="evenodd" transform="translate(38.15 95.15)"/><path d="M-33.9-7.65v-.05q17.85-8.95 35.75-17.85l40 20L6.1 12.3l-.05.05-39.95-20" fill="#b4b4b4" fill-rule="evenodd" transform="translate(38.15 95.15)"/><path d="M2.1 18.3L-37.85-1.65l-.05-2 40 20v1.95m-36-24v-1.95l39.95 20h.05v1.95l-.05.05-39.9-20.05h-.05" fill="#999" fill-rule="evenodd" transform="translate(38.15 95.15)"/><path d="M-37.9-3.65v-.05l4-2h.05l39.9 20.05L2.1 16.3v.05l-40-20" fill="#adadad" fill-rule="evenodd" transform="translate(38.15 95.15)"/><path d="M80 89.6v3.6M.25 91.5v-.05m4-3.95v-.05Q22.1 78.5 40 69.6l40 20m-35.75 17.85v.05h-.05m.05 1.95l-.05.05m-3.95 1.95v.05m-36-22.05h.05" fill="none" stroke="#666" stroke-linecap="round" stroke-linejoin="round" stroke-width=".5"/><path d="M.3 93.5l-.05-2m0-.05l4-2V87.5m40 20v1.95m-.05.05l-3.95 1.95m0 .05v1.95" fill="none" stroke="#868686" stroke-linecap="round" stroke-linejoin="round" stroke-width=".5"/><path d="M80 93.2l-39.75 20.25L.3 93.5M80 89.6l-35.75 17.85m-.05.05l-39.95-20m.05 1.95l39.9 20.05m-3.95 2l-40-20" fill="none" stroke="#8c8c8c" stroke-linecap="round" stroke-linejoin="round" stroke-width=".5"/><path d="M-18.75-48.05v.1l-8.75 4.35-.1.05-2.25-1.1 1.2-.95 1.05.55 7.45-3.7 1.4.7" fill="#eae300" fill-rule="evenodd" transform="translate(38.15 95.15)"/><path d="M-27.5-43.6l8.75-4.35v1.5l-8.7 4.45-.05-1.6" fill="#d7d000" fill-rule="evenodd" transform="translate(38.15 95.15)"/><path d="M-29.85-44.65l2.25 1.1.1-.05.05 1.6-.3.15-2.1-1.05v-1.75" fill="#ccc700" fill-rule="evenodd" transform="translate(38.15 95.15)"/><path d="M19.4 47.1v.1l.1-.05-.1-.05-1.4-.7-7.45 3.7-1.05-.55-1.2.95 2.25 1.1.1-.05 8.75-4.35v1.5l-8.7 4.45-.3.15-2.1-1.05V50.5m2.35 1.05l.05 1.6" fill="none" stroke="#bfbf00" stroke-linecap="round" stroke-linejoin="round" stroke-width=".5"/></g><g id="shape1"><path d="M8.25-4.95l20 10-19.85 9.9-19.95-10L-19 8.4V-9l34.9.25-7.65 3.8" fill="#fc6" fill-opacity=".6" fill-rule="evenodd" transform="translate(19.5 9.5)"/><path d="M8.25-4.95l20 10-19.85 9.9-19.95-10L-19 8.4V-9l34.9.25-7.65 3.8z" fill="none" stroke="#f60" stroke-linecap="round" stroke-linejoin="round" stroke-opacity=".6" transform="translate(19.5 9.5)"/></g><radialGradient cx="0" cy="0" gradientTransform="matrix(-.0011 .0874 -.0403 -.0005 -15 -53.25)" gradientUnits="userSpaceOnUse" id="gradient0" r="819.2" spreadMethod="pad"><stop offset=".016"/><stop offset=".216" stop-color="#202020"/><stop offset=".49" stop-color="#333"/><stop offset=".686" stop-color="#363636"/><stop offset=".753" stop-color="#4b4b4b"/><stop offset=".804" stop-color="#2d2d2d"/><stop offset="1"/></radialGradient><use height="24.95" width="48.25" xlink:href="#shape1" id="sprite0"/></defs></svg>