<svg xmlns:xlink="http://www.w3.org/1999/xlink" height="309.7" width="329.1" xmlns="http://www.w3.org/2000/svg"><g transform="translate(292 195.9)"><use height="221" transform="translate(-263.65 -122.75)" width="300.75" xlink:href="#sprite0"/><use height="55.25" transform="translate(-89.15 -12)" width="59.65" xlink:href="#sprite2"/><use height="56.85" transform="translate(-68.4 -37.15)" width="19.6" xlink:href="#sprite3"/><use height="244.2" transform="translate(-292 -195.9)" width="315.25" xlink:href="#sprite4"/><use height="43.4" transform="translate(-238.6 47.8)" width="18.9" xlink:href="#sprite5"/><use height="43.4" transform="translate(-261.25 59.05)" width="18.9" xlink:href="#sprite5"/><use height="43.4" transform="translate(-285.4 70.4)" width="18.9" xlink:href="#sprite5"/><use height="18" transform="translate(-169.15 -36.15)" width="154.95" xlink:href="#text0"/></g><defs><linearGradient gradientTransform="matrix(.0123 -.0266 .0362 .0168 3.25 -134.4)" gradientUnits="userSpaceOnUse" id="gradient0" spreadMethod="pad" x1="-819.2" x2="819.2"><stop offset="0" stop-color="#3c3c3c"/><stop offset="1" stop-color="#4a4a4a"/></linearGradient><linearGradient gradientTransform="matrix(.0411 0 0 .0353 66.4 -133.2)" gradientUnits="userSpaceOnUse" id="gradient1" spreadMethod="pad" x1="-819.2" x2="819.2"><stop offset="0" stop-color="#4e4e4e"/><stop offset="1" stop-color="#464646"/></linearGradient><linearGradient gradientTransform="matrix(.0493 0 0 .0721 -171.45 -67.85)" gradientUnits="userSpaceOnUse" id="gradient2" spreadMethod="pad" x1="-819.2" x2="819.2"><stop offset="0" stop-color="#4e4e4e"/><stop offset="1" stop-color="#464646"/></linearGradient><linearGradient gradientTransform="matrix(-.0403 .006 -.0126 -.0838 -38.9 -130.65)" gradientUnits="userSpaceOnUse" id="gradient3" spreadMethod="pad" x1="-819.2" x2="819.2"><stop offset="0" stop-color="#464646"/><stop offset=".498" stop-color="#484848"/><stop offset="1" stop-color="#404040"/></linearGradient><linearGradient gradientTransform="matrix(.0055 .0112 -.0615 .0301 -53.85 -161.5)" gradientUnits="userSpaceOnUse" id="gradient4" spreadMethod="pad" x1="-819.2" x2="819.2"><stop offset="0" stop-color="#434343"/><stop offset="1" stop-color="#464646"/></linearGradient><linearGradient gradientTransform="matrix(.0358 0 0 .0356 -14.35 -90.8)" gradientUnits="userSpaceOnUse" id="gradient5" spreadMethod="pad" x1="-819.2" x2="819.2"><stop offset="0" stop-color="#3c3c3c"/><stop offset="1" stop-color="#4a4a4a"/></linearGradient><linearGradient gradientTransform="matrix(.0392 0 0 .0331 -37.3 -52.8)" gradientUnits="userSpaceOnUse" id="gradient6" spreadMethod="pad" x1="-819.2" x2="819.2"><stop offset="0" stop-color="#353535"/><stop offset="1" stop-color="#464646"/></linearGradient><linearGradient gradientTransform="matrix(.0352 0 0 .0223 -59.95 -25.8)" gradientUnits="userSpaceOnUse" id="gradient7" spreadMethod="pad" x1="-819.2" x2="819.2"><stop offset="0" stop-color="#313131"/><stop offset="1" stop-color="#383838"/></linearGradient><linearGradient gradientTransform="matrix(.023 .023 -.0438 .0438 -84.85 -59.25)" gradientUnits="userSpaceOnUse" id="gradient8" spreadMethod="pad" x1="-819.2" x2="819.2"><stop offset="0" stop-color="#464646"/><stop offset="1" stop-color="#3c3c3c"/></linearGradient><g id="sprite0" transform="translate(160.35 233.25)"><use height="218.6" transform="translate(-160.35 -233.25)" width="290.25" xlink:href="#shape0"/><use height="81.15" transform="translate(1.7 -93.4)" width="138.7" xlink:href="#sprite1"/></g><g id="shape0"><path d="M-53.85-118l4.2-2.1 29.2-14.65 2.8-1.4 26.35-13.2 3.6-1.8 23.05-11.55 2.8-1.4v1.75l.05 20.7 25.3-12.7-.05-20.7 3.65 1.6v-5.2l5.25-2.6v22.45-5l42-21.05v5l-42 21.05v22.5-2.65l42-21.05v2.6L79.9-140.1l-2.2 1.1-1.35.7-4 2-5.2 2.6-.05-22.45.05-.05-.05-17.25.05 17.25-.05.05.05 22.45-3.6-1.8-.05-16.6v-2.25 2.25l-25.3 12.7v20.2l-2.8 1.4v-22.45l-.05-20.7-23.05 11.5v20.8l23.1-11.6v2.25l-23.1 11.6v20.15l-3.6 1.8v-43.2l-26.35 13.15.05 20.8 26.3-13.15v2.25l-26.3 13.15v20.2l-2.8 1.4v-22.4 2.25l-29.25 14.6v20.2l-4.2 2.1v-2.45 2.45l-7.45 3.7-3.5 1.75-34.45 17.3-60.6-30.4v-2.45l60.6 30.4 43.7-21.9 1.7-.85v-26 6l-45.4 22.75-60.6-30.4v-6l60.6 30.4 45.4-22.75V-118M82.3-141.8l.05-.05-.1-.15-.3-.05-.6.25h-.1l-.05.1-.1.05-.65.35v.1l.05.05.35.05.55-.35.15-.1.3-.05.1-.05.35-.15m7.15-4h-.05l-.6.3-.75.55.1.05.2.05.1-.05.05-.05.35-.15.1-.05.05-.05.45-.2.3-.3-.1-.05-.2-.05m-.05-24.5l-.1.05-.15.1-1.15.1-.4.25-1.1.4-2.2 1-.55.4-1.1.6-.1.1-.05.1-.1.1-.15.1-.1.1-.1.1-.15.3-.1.15.15.05.15-.05.15-.1.05-.1.1-.15.1-.1.25-.2.05-.1.55-.35 1.1-.7.2-.05 1.15-.6.3-.05.1-.05.1-.05.1-.1.3-.05.1-.05.1-.05.15-.1.4-.1.7-.3 1.3-.15.1-.05.05-.05.85-.2.4-.2.1-.1.05-.05-.1-.1-.2-.05-.05.05h-.05l-.25.05h-.1l-.85.25m16.05-8l-.05.05-.1.05-1.55.15-.05.05-.65.35-.25.1-.3.15-.35.15-.45.3-.1.2-.15.2v.1h.25l.1-.05.1-.1.05-.1.1-.1.15-.05.1-.05.4-.2.1-.05.1-.05.05-.1.25-.05.1-.05.3-.1.1-.05.05-.05.15-.1 1.55-.2.65-.2.1-.05.05-.1.1-.1.05-.1.8-.2v-.05l-.05-.1-.45-.1-.05.05h-.05l-.25.05-.15.05-.05.1-.1.1-.1.1-.2.05-.3.1m-30.6 15.45l-.05-.3-.1.05h-.1l-.15.1v.1l-.05.1-.1.15v.7l.1.05.1.1.2-.05.05-.05v-.1l-.05-.1-.05-.1v-.35l.2-.3m-3.6-1h-.05v7.75l-.05.1-.05.2-.05.1v1.5l.25.05.1-.05v-1.5l.05-.2.05-.1.05-3.75-.15-4.15h-.05l-.1.05m.6.65l-.05-.1h-.1l-.15.25v.15l.05.05.3-.05v-.1l-.05-.2m3.8-1.1l-.1.1-.1.05-.45.25-.3.1h-.05l-.3.15h-.1l-.1.1-.1.1-.55.2-.05.05v2.5l.15.05.1-.05.05-.1v-2.15l.35-.15.1-.05.05-.05.05-.1.3-.05.15-.05q.4-.1.7-.35l.75-.4.05-.05.05-.1.35-.1.45-.2.15-.05.7-.2.1-.05.05-.05.7-.2.05-.05-.1-.1-.3-.1-.1.05-.4.05-.45.15-.3.1-.45.2-.4.1-.05.1-.4.25-.25.1m-4.8 14.45l-.05.1v3.35l.25.05.1-.05-.05-1.65.1-1.8.1-1.85-.15-2.1h-.05l-.1.05h-.05v3.6l-.05.1-.05.2m-35.5-11.1v-1.75 1.75m-23.05 9.8v1.7-1.7m25.9 9.5v2.25-2.25m-29.5-7.7v1.7-1.7m3.6 20.7v2.25-2.25m64.4-11.4h-.05l-.1.1-.1.05-.1.1-.15.05-.05.1-.05.1-.05.1.1.05.2.05.1-.05.2-.2.5-.3.1-.05.1-.1.1-.1.05-.1.1-.1.05-.1-.1-.05-.2-.05-.3.25-.15.15-.2.1M-49.65-120.1v1.65-1.65m0 22.45v2.25-2.25l29.25-14.6-.05-20.8-29.2 14.6v20.8m29.2-37.1v1.7-1.7M-55.1-99.6h-.05v2.8l-.2.05-1.25.6-.05.1-.1.05-.15.1h-.1l-.05.1-.1.05-.25.1h-.1l-.05.05-1.1.45-.85.25-.15.1-.5.15-.1.05-.05.05-.7.15-.05.1-.1.05-.45.1-.25.15-.25.1-.05.1-.1.05q-.65.45-1.4.6l-.1.05-.05.05-.45.1-.65.4v.1l.15.05 1.1-.3.05-.05.05-.05.45-.1.15-.05q.55-.25.95-.6l.25-.05.1-.05.05-.05.1-.1.45-.1.1-.05.25-.2.5-.1.15-.05.15-.1.5-.1.65-.2.1-.05.05-.05.7-.2.2-.1.65-.3.05-.05.55-.3.15-.05 1.4-.75.1-1.5q0-.85-.15-1.6H-55l-.1.05m3.1-11.85h-.05l-.05 2.15.05 2.3-.05.1-.05.1v.65l-.05.6-.05.05-.05.1v1.05l-.05.1-.05.1v4.5l.05.1.05.05v7.5l.2.05.1-.05v-7.65l-.05-.1-.05-.1V-104l.05-.05v-.1l.05-.1v-.95l.05-.1.1-.2v-1.1l.05-.1.05-.1.05-2.25-.15-2.45h-.05l-.1.05m34.4-2.25v2.25-2.25m-.05-22.45v1.65-1.65m-71 55.6v.05l.6.1.8-.3q.6-.15.55-.55h-.15l-.2.1-.1.1-.15.05-.35.1-.4.15-.45.1-.15.1m-3 3.05l-.5.15-1.85.45-.15.05-.55.2-.1.1-.2.05-.4.15-.05.1-.1.1v.1l.05.05h.35l.05-.05.05-.1.3-.05.1-.05.05-.05.05-.1.4-.05.1-.05 1.15-.25q.6-.15 1.1-.4l1.9-1 .25-.05.25-.15.4-.2.4-.3.05-.2-.05-.2-1.05.6-2 1.15m-8.4-.3l-.05-.2-.05.05h-.1l-.15.1v.45l-.05.4-.1.1v.15l.05.1h.2l.15-.1.05-.1v-.75l.05-.2m-1.2-.6h.6l.1-.05q.05-.4-.65-.3l-.25-.2-.2-.15-.15-.1-.3-.2-.5-.15-.1-.1-.2-.1-.3-.15-1.4-.15-.1-.1-.35-.05-.05-.05-.05-.1-.15-.1-.05-.1-.1-.1h-.05l-.1.05h-.05v.35l.25.2.15.15 1.9.35.1.05.2.1.15.1.05.05.85.3.5.45.25.1m2 25.6v2.45-2.45m0-20v-6 6m47.3-17.6l-.1.05-.1 2.25v2.6l.05.05.25-.05.05-2.35-.15-2.55m.7-.9v-.3l-.1-.3-.05.05-.2.4.05.45.05.1.05.1.05.05v1.5l.05.05.25-.05v-.85l-.05-.85-.05-.1-.05-.1v-.15" fill="#6c5435" fill-rule="evenodd" transform="translate(160.35 233.25)"/><path d="M114.35-157.4l15.05 7.55q-14.8 11-34.3 17.25l-.15.05-.45-.2.45.2-.45-.2-14.6-7.35 34.45-17.3M-84.1-15.15l-15.15-7.6-43.05-21.6v-7.95l-13.75-6.9v7.95l-3.8-1.9V-77.9l60.6 30.4v24.75-27.6l15.15 7.6-15.15-7.6 34.45-17.3 15.15 7.6Q-64.5-49-84.1-42.75v27.6m175.5-115.6v8l-134.85 67.6-2.7 1.35v-8L91.4-130.75M74.45-49.3l.45-.25-.45.25m-227.3-7.2l5.45 2.75-.6-.3-.9-.45-1.05-.5-1.1-.55-1.05-.55-.75-.4" fill="#757575" fill-rule="evenodd" transform="translate(160.35 233.25)"/><path d="M129.4-149.85v27.6q-6.2 4.6-13.2 8.35l-21.25-10.65v-8l.15-.05q19.5-6.25 34.3-17.25M-49.65-32.45q-14.8 11-34.3 17.25l-.15.05v-27.6q19.6-6.25 34.45-17.3v27.6m141.05-90.3l1.35-.7-.55 1.1-.8-.4.8.4 1.25.6q11.3 6.25 15.6 11.4 6.35 7.5-2.3 12.5L-11.1-38.9l-32.35-16.25 134.85-67.6" fill="#868686" fill-rule="evenodd" transform="translate(160.35 233.25)"/><path d="M63.5-152.1l.05 16.6-25.35 12.65v-16.55l25.3-12.7m-.05-22.95l.05 20.7-25.3 12.7-.05-20.7 25.3-12.7m-51.15 25.6l23.05-11.5.05 20.7-23.1 11.6v-20.8M35.4-138v18.05l-23.1 11.6v-18.05L35.4-138m-26.7-9.65v20.8l-26.3 13.15-.05-20.8L8.7-147.65m0 23.05v18.05L-17.6-93.4v-18.05L8.7-124.6m-58.35 46.05V-95.4L-20.4-110v16.85l-29.25 14.6m0-19.1v-20.8l29.2-14.6.05 20.8-29.25 14.6" fill="#e2e2e2" fill-rule="evenodd" transform="translate(160.35 233.25)"/><path d="M114.35-196.8v11.95l-42 21.05v-11.95l42-21.05m-274.2 87.6v-11.2l60.6 30.4 45.4-22.75v11.2l-45.4 22.75-60.6-30.4m60.6 19.2v11.2V-90" fill="#e6e6e6" fill-rule="evenodd" transform="translate(160.35 233.25)"/><path d="M-159.85-125.65l213.6-107.1 60.6 30.45-42 21.05-5.25 2.6-28.95 14.55-2.8 1.4-23.05 11.55-3.6 1.8-26.35 13.2-2.8 1.4-29.2 14.65-4.2 2.1-45.4 22.75-60.6-30.4m274.2-51.95v17.6l-42 21.05v-17.6l42-21.05m-274.2 94.4v-17.85l60.6 30.4 43.7-21.9v17.85l-43.7 21.9-60.6-30.4m227-50.5l5.2-2.6 4-2 15.05 7.55L-46.15-61.8l-15.15-7.6 7.45-3.7 4.2-2.1 29.25-14.65 2.8-1.4 26.3-13.2 3.6-1.8 23.1-11.55 2.8-1.4 28.95-14.5m-166.4 80.9v-17.85 17.85" fill="#603d2d" fill-rule="evenodd" transform="translate(160.35 233.25)"/><path d="M114.35-179.85v2.25l-42 21.05v-2.25l42-21.05m-274.2 78.8v-2.15l60.6 30.4 45.4-22.75v20l-1.7.85v-17.85l-43.7 21.9-60.6-30.4m265.3-77.25l.3-.1.2-.05.1-.1.1-.1.05-.1.15-.05.25-.05h.05l.05-.05.45.1.05.1v.05l-.8.2-.05.1-.1.1-.05.1-.1.05-.65.2-1.55.2-.15.1-.05.05-.1.05-.3.1-.1.05-.25.05-.05.1-.1.05-.1.05-.4.2-.1.05-.15.05-.1.1-.05.1-.1.1-.1.05h-.25v-.1l.15-.2.1-.2.45-.3.35-.15.3-.15.25-.1.65-.35.05-.05 1.55-.15.1-.05.05-.05m-16.05 8l.85-.25h.1l.25-.05h.05l.05-.05.2.05.1.1-.05.05-.1.1-.4.2-.85.2-.05.05-.1.05-1.3.15-.7.3-.4.1-.15.1-.1.05-.1.05-.3.05-.1.1-.1.05-.1.05-.3.05-1.15.6-.2.05-1.1.7-.55.35-.05.1-.25.2-.1.1-.1.15-.05.1-.15.1-.15.05-.15-.05.1-.15.15-.3.1-.1.1-.1.15-.1.1-.1.05-.1.1-.1 1.1-.6.55-.4 2.2-1 1.1-.4.4-.25 1.15-.1.15-.1.1-.05m.05 24.5l.2.05.1.05-.3.3-.45.2-.05.05-.1.05-.35.15-.05.05-.1.05-.2-.05-.1-.05.75-.55.6-.3h.05m-7.15 4l-.35.15-.1.05-.3.05-.15.1-.55.35-.35-.05-.05-.05v-.1l.65-.35.1-.05.05-.1h.1l.6-.25.3.05.1.15-.05.05m10.4 10.4l-1.3.65-15.05-7.55 1.35-.7 15 7.6m-17.05-32.9l.25-.1.4-.25.05-.1.4-.1.45-.2.3-.1.45-.15.4-.05.1-.05.3.1.1.1-.05.05-.7.2-.05.05-.1.05-.7.2-.15.05-.45.2-.35.1-.05.1-.05.05-.75.4q-.3.25-.7.35l-.15.05-.3.05-.05.1-.05.05-.1.05-.35.15v2.15l-.05.1-.1.05-.15-.05v-2.5l.05-.05.55-.2.1-.1.1-.1h.1l.3-.15h.05l.3-.1.45-.25.1-.05.1-.1m-3.8 1.1l.05.2v.1l-.3.05-.05-.05v-.15l.15-.25h.1l.05.1m-.6-.65l.1-.05h.05l.15 4.15-.05 3.75-.05.1-.05.2v1.5l-.1.05-.25-.05v-1.5l.05-.1.05-.2.05-.1v-7.75h.05m3.6 1l-.2.3v.35l.05.1.05.1v.1l-.05.05-.2.05-.1-.1-.1-.05v-.7l.1-.15.05-.1v-.1l.15-.1h.1l.1-.05.05.3m-4 13l.05-.2.05-.1v-3.6H71l.1-.05h.05l.15 2.1-.1 1.85-.1 1.8.05 1.65-.1.05-.25-.05v-3.35l.05-.1m5.85 9.8l.2-.1.15-.15.3-.25.2.05.1.05-.05.1-.1.1-.05.1-.1.1-.1.1-.1.05-.5.3-.2.2-.1.05-.2-.05-.1-.05.05-.1.05-.1.05-.1.15-.05.1-.1.1-.05.1-.1h.05M-52-111.45l.1-.05h.05l.15 2.45-.05 2.25-.05.1-.05.1v1.1l-.1.2-.05.1v.95l-.05.1v.1l-.05.05v4.15l.05.1.05.1V-92l-.1.05-.2-.05v-7.5l-.05-.05-.05-.1v-4.5l.05-.1.05-.1v-1.05l.05-.1.05-.05.05-.6v-.65l.05-.1.05-.1-.05-2.3.05-2.15h.05m-3.1 11.85l.1-.05h.05q.15.75.15 1.6l-.1 1.5-1.4.75-.15.05-.55.3-.05.05-.65.3-.2.1-.7.2-.05.05-.1.05-.65.2-.5.1-.15.1-.15.05-.5.1-.25.2-.1.05-.45.1-.1.1-.05.05-.1.05-.25.05q-.4.35-.95.6l-.15.05-.45.1-.05.05-.05.05-1.1.3-.15-.05v-.1l.65-.4.45-.1.05-.05.1-.05q.75-.15 1.4-.6l.1-.05.05-.1.25-.1.25-.15.45-.1.1-.05.05-.1.7-.15.05-.05.1-.05.5-.15.15-.1.85-.25 1.1-.45.05-.05h.1l.25-.1.1-.05.05-.1h.1l.15-.1.1-.05.05-.1 1.25-.6.2-.05v-2.8h.05m-46.15 21.2l-.25-.1-.5-.45-.85-.3-.05-.05-.15-.1-.2-.1-.1-.05-1.9-.35-.15-.15-.25-.2v-.35h.05l.1-.05h.05l.1.1.05.1.15.1.05.1.05.05.35.05.1.1 1.4.15.3.15.2.1.1.1.5.15.3.2.15.1.2.15.25.2q.7-.1.65.3l-.1.05h-.6m1.2.6l-.05.2v.75l-.05.1-.15.1h-.2l-.05-.1v-.15l.1-.1.05-.4v-.45l.15-.1h.1l.05-.05.05.2m8.4.3l2-1.15 1.05-.6.05.2-.05.2-.4.3-.4.2-.25.15-.25.05-1.9 1q-.5.25-1.1.4l-1.15.25-.1.05-.4.05-.05.1-.05.05-.1.05-.3.05-.05.1-.05.05h-.35l-.05-.05v-.1l.1-.1.05-.1.4-.15.2-.05.1-.1.55-.2.15-.05 1.85-.45.5-.15m3-3.05l.15-.1.45-.1.4-.15.35-.1.15-.05.1-.1.2-.1h.15q.05.4-.55.55l-.8.3-.6-.1v-.05m-10.6 7.75v2.15-2.15m34.45 5.15l3.5-1.75 15.15 7.6-3.5 1.75-15.15-7.6m13.55-23.65v.15l.05.1.05.1.05.85v.85l-.25.05-.05-.05v-1.5l-.05-.05-.05-.1-.05-.1-.05-.45.2-.4.05-.05.1.3v.3m-.7.9l.15 2.55-.05 2.35-.25.05-.05-.05v-2.6l.1-2.25.1-.05" fill="#4d2e24" fill-rule="evenodd" transform="translate(160.35 233.25)"/><path d="M-159.85-125.65l60.6 30.4 45.4-22.75v5.25L-99.25-90v-5.25V-90l-60.6-30.4v-5.25m232.2-55.6l42-21.05v5.5l-42 21.05v-5.5" fill="#c2c2c2" fill-rule="evenodd" transform="translate(160.35 233.25)"/><path d="M116.2-113.9l11.3 5.65-3.55 1.8-30.5-15.3 30.5 15.3-17.2 8.6q8.65-5 2.3-12.5-4.3-5.15-15.6-11.4l-1.25-.6.55-1.1 2.2-1.1 21.25 10.65m-276.05 36v-2.85l60.6 30.4v2.85l-60.6-30.4m113.7 24.1l2.7-1.35L-11.1-38.9l-6.15 3.1-32.4-16.25 3.5-1.75" fill="#636363" fill-rule="evenodd" transform="translate(160.35 233.25)"/><path d="M123.95-86.85L-11.1-19.3v-19.6l117.85-58.95 17.2-8.6v19.6" fill="#717171" fill-rule="evenodd" transform="translate(160.35 233.25)"/><path d="M92.7-131.4h.05v7.95l-1.35.7v-8l1.3-.65M-46.15-61.8v8l-3.5 1.75v-8l3.5-1.75" fill="#585858" fill-rule="evenodd" transform="translate(160.35 233.25)"/><path d="M94.95-132.55v8l-2.2 1.1v-7.95h-.05l-15-7.6 2.2-1.1 14.6 7.35.45.2" fill="#434343" fill-rule="evenodd" transform="translate(160.35 233.25)"/><path d="M127.5-108.25v19.6l-3.55 1.8v-19.6l3.55-1.8M-11.1-19.3l-6.15 3.1-32.4-16.25v-17.7l32.4 16.25v-1.9l6.15-3.1v19.6m-6.15-14.6v17.7-17.7" fill="#4e4e4e" fill-rule="evenodd" transform="translate(160.35 233.25)"/><path d="M-49.65-52.05l32.4 16.25v1.9l-32.4-16.25v-1.9" fill="#404040" fill-rule="evenodd" transform="translate(160.35 233.25)"/><path d="M38.15-164.1l28.95-14.55v5.2l-3.65-1.6-25.3 12.7v-1.75m25.4 28.6l3.6 1.8-28.95 14.5v-3.65l25.35-12.65M35.4-119.95v2.15l-23.1 11.55v-2.1l23.1-11.6m-26.7 13.4v2.1l-26.3 13.2v-2.15l26.3-13.15M-49.65-75.2v-3.35l29.25-14.6v3.3L-49.65-75.2" fill="#503c27" fill-rule="evenodd" transform="translate(160.35 233.25)"/><path d="M-142.3-44.35l-.9-.45-1.5-.75v-6.85l-1.1-.55-1.05-.55 1.05.55v6.85l-1.1-.55.05-6.85-.55-.25-5.45-2.75-.35-.15.35.15.75.4v6.8l-1.1-.55v-6.8l-1-.5-.95-.5v6.85l-.9-.45v-7.95l13.75 6.9v7.95m-5.7-2.85l-.9-.5v-6.8l.9.45v6.85m-1.95-1l-1.1-.55v-6.8l1.1.55v6.8m-4.25-2.15l-.95-.45v-6.85l.95.5v6.8m11 5.55v-6.85l-1.5-.75 1.5.75v6.85" fill="#a6a6a6" fill-rule="evenodd" transform="translate(160.35 233.25)"/><path d="M-144.7-45.55l-1.1-.55v-6.85l1.1.55v6.85m-2.2-1.1l-1.1-.55v-6.85l.6.3.55.25-.05 6.85m-2-1.05l-1.05-.5V-55l1.05.5v6.8m-2.15-1.05l-1.05-.55v-6.8l1.05.55v6.8m-2.15-1.1l-1-.5v-6.8l1 .5v6.8" fill="#262626" fill-rule="evenodd" transform="translate(160.35 233.25)"/><path d="M-142.3-44.35l-.9-.45m-1.5-.75l-1.1-.55m-3.1-1.6l-1.05-.5m-2.15-1.1l-1.1-.55m-1-.5l-.95-.45v-6.85l.95.5 1 .5.35.15 5.45 2.75.55.25 1.05.55 1.1.55 1.5.75v6.85m234.6-77.95l.8.4" fill="none" stroke="#2b2b2b" stroke-linecap="round" stroke-linejoin="round" transform="translate(160.35 233.25)"/><path d="M7.15 176.6v6.8m10.9 5.5v-7.95l-13.75-6.9V182m1.85.9v-6.8m2.1 1.05v6.8m1.05.55v-6.8m1.1 7.35v-6.8m1.05 7.3v-6.8m.9 7.3v-6.85m1.1 7.4l.05-6.85m1.05 7.4v-6.85m1.1 7.4v-6.85" fill="none" stroke="#2b2b2b" stroke-linecap="round" stroke-linejoin="round" stroke-width=".5"/><path d="M116.2-113.9l11.3 5.65v19.6l-3.55 1.8L-11.1-19.3l-6.15 3.1-32.4-16.25q-14.8 11-34.3 17.25m-.15.05l-15.15-7.6-43.05-21.6m-.9-.45l-1.5-.75m-1.1-.55l-1.1-.55-1.1-.55-.9-.5m-1.05-.5l-1.1-.55-1.05-.55m-1.1-.55l-1-.5m-.95-.45l-.9-.45-3.8-1.9V-77.9m254.8-54.65v8l21.25 10.65m-24.8-8.85l1.35-.7v-7.95m-.55 9.05l1.25.6 30.5 15.3 3.55-1.8m-34.75-15.2l2.2-1.1m11.8 26.7l17.2-8.6v19.6m-32.55-43.9L-46.15-61.8m0 8l2.7-1.35 134.85-67.6m15.35 24.9L-11.1-38.9v19.6m-73-23.45v27.6m-15.15-7.6v-27.6m15.15 7.6l-15.15-7.6m49.6-9.7l3.5-1.75m0 8l-3.5 1.75 32.4 16.25 6.15-3.1-32.35-16.25m-6.2 3.1v-8Q-64.5-49-84.1-42.75m34.45-7.4v-1.9m32.4 35.85v-19.6m-32.4-14.35v17.7" fill="none" stroke="#484848" stroke-linecap="round" stroke-linejoin="round" transform="translate(160.35 233.25)"/><path d="M114.35-202.3l-60.6-30.45-213.6 107.1 60.6 30.4 45.4-22.75 4.2-2.1 29.2-14.65 2.8-1.4 26.35-13.2 3.6-1.8 23.05-11.55 2.8-1.4 28.95-14.55 5.25-2.6 42-21.05v44.9l15.05 7.55v27.6q-6.2 4.6-13.2 8.35m-276.05 36v-47.75m254.8-6.9l-.45-.2m-1.75 1.35h-.05l-1.3.65m38-19.1q-14.8 11-34.3 17.25m-31.65-42.45l3.65 1.6v-5.2m5.25-2.6v5.5m-5.2 42.05l-.05-22.45.05-.05-.05-17.25m-3.6 19.1v2.25l.05 16.6 3.6 1.8 5.2-2.6v-39.45m-34.2 13.4l.05 20.7 25.3-12.7-.05-20.7-25.3 12.7v-1.75M12.3-149.45v20.8l23.1-11.6-.05-20.7-23.05 11.5v-1.7m23.05-11.55v1.75m.05 20.7v22.45l2.8-1.4v-22.45m-29.5-6l-26.35 13.15.05 20.8 26.3-13.15v-22.5m0 22.5v22.4l3.6-1.8v-22.4M35.4-138l-23.1 11.6m0 20.15l23.1-11.55m0-2.15l-23.1 11.6m67.6-31.75l34.45-17.3m-38 19.1l1.35-.7 2.2-1.1 14.6 7.35m-22.15-3.55l4-2M63.5-152.1l-25.3 12.7m0 16.55l25.35-12.65m3.6 1.8L38.2-119.2M77.7-139l15 7.6m21.65-28.6l-42 21.05m42-45.9l-42 21.05m42-16.05l-42 21.05m-122 40.35v-1.65m-4.2 2.1v44.9l4.2-2.1v-43.25l29.2-14.6v-1.7m2.8.25v-1.65m.05 24.7v-2.25m-2.8 1.45v22.4l2.8-1.4v-20.2L8.7-124.6m-29.15-8.45l.05 20.8-29.25 14.6M-99.25-90v-5.25m0 16.45V-90m0 39.65v-2.45l-60.6-30.4m60.6 12.55v17.85l43.7-21.9 1.7-.85m-45.4 4.9v-2.15l-60.6-30.4m60.6 24.4v6l45.4-22.75m-45.4 45.2l34.45-17.3 3.5-1.75 7.45-3.7m-45.4 22.75l-60.6-30.4m110.2 20.7l-15.15-7.6m15.15-7.55l29.25-14.65m-29.25 11.3l29.25-14.6m-33.45-8.4l-45.4 22.75-60.6-30.4m139.45-.8l-29.25 14.6m32.05 4.15l26.3-13.2m0-2.1L-17.6-93.4" fill="none" stroke="#37231a" stroke-linecap="round" stroke-linejoin="round" transform="translate(160.35 233.25)"/></g><g id="shape1"><path d="M39.35-78.7l2.9-1.45 2.95 1.45 2.95 1.5 6.5 3.25 5 2.5 6.7 3.4 2.45 1.25-29.75 14.9-1.9-1-.55-.3.55.3 1.9 1 .05 11.15-1.95-.95-.65-.3v-5.5l-2.6-1.25v-5.4l-.05-.1.3-.15 2.45 1.2 26.85-13.4-24.1-12.1m-108.2 54.15l5.05-2.55L-39.65-15l27.45-13.75.85.45 1.6.8-32.5 16.3-2-1.05-.45-.2-.4-.2-23.75-11.9m135.2-43.5l-2.9 1.45 2.9-1.45M-39.65-15l-5.05 2.55 5.05-2.55" fill="#636363" fill-rule="evenodd" transform="translate(69.35 80.65)"/><path d="M68.8-66.8h.05v11.15L39.1-40.75l-.05-11.15L68.8-66.8M36.5-42L-9.7-18.8v2.5L-42.25 0v-11.2l32.5-16.3-1.6-.8-.85-.45-2.45-1.2 16.2-8.15.35-.15 31.95-16 .05.1v5.4L7.55-35.55l-.8.45.4-.25.4-.2-.4.2-.4.25-16.45 8.2h-.05l.05 1v1.55l16.15-8.1.9-.45L36.5-47.5v5.5M-9.7-18.8v-5.55 5.55" fill="#757575" fill-rule="evenodd" transform="translate(69.35 80.65)"/><path d="M-63.8-27.1L39.35-78.7l24.1 12.1L36.6-53.2l-2.45-1.2-.3.15-31.95 16-.4.15h.05l-16.2 8.15 2.45 1.2L-39.65-15-63.8-27.1" fill="#868686" fill-rule="evenodd" transform="translate(69.35 80.65)"/><path d="M33.9-48.75l2.6 1.25L7.35-32.9l-.9.45-16.15 8.1v-2.55l16.45-8.2.8-.45 26.35-13.2" fill="#666" fill-rule="evenodd" transform="translate(69.35 80.65)"/><path d="M-42.25 0L-68.4-13.15l-.45-.2v-11.2l23.75 11.9.35.2.5.2 2 1.05V0" fill="#4e4e4e" fill-rule="evenodd" transform="translate(69.35 80.65)"/><path d="M39.35-78.7l2.9-1.45 2.95 1.45 2.95 1.5 6.5 3.25 5 2.5 6.7 3.4 2.45 1.25h.05v11.15L39.1-40.75l-1.95-.95-.65-.3-46.2 23.2v2.5L-42.25 0-68.4-13.15m-.45-.2v-11.2l5.05-2.55L39.35-78.7l24.1 12.1 2.9-1.45m-32.5 13.8l.05.1v5.4l2.6 1.25v5.5m.1-11.2l-2.45-1.2-.3.15-31.95 16-.35.15-16.2 8.15 2.45 1.2.85.45 1.6.8-32.5 16.3V0M36.6-53.2l.55.3 1.9 1L68.8-66.8M1.55-38.1H1.5l.4-.15m4.85 3.15l.8-.45-.4.2-.4.25-16.45 8.2m0 1v1.55l16.15-8.1m.9-.45L36.5-47.5M7.35-32.9l-.9.45m27.45-16.3L7.55-35.55m55.9-31.05L36.6-53.2m2.45 1.3l.05 11.15m-83.8 28.3l.45.2 2 1.05m-2-1.05l-.5-.2m-.35-.2l-23.75-11.9m23.75 11.9l.4.2 5.05-2.55-24.15-12.1m54.1 1.2l-.05-1h.05m0 2.55v5.55m-2.5-9.95L-39.65-15" fill="none" stroke="#484848" stroke-linecap="round" stroke-linejoin="round" transform="translate(69.35 80.65)"/></g><g id="shape2"><path d="M28.2-35.6l-.2-.2-.45-.15v.05l-.3.05-.15.05-.15.1-.2.2-.05.2-.05.2-.05.15.05.2.05.2.15.15.25.2.45.15.3-.05.15-.1.15-.15.15-.15.15-.4v-.35l-.1-.2-.15-.15m-1.65-3.25l-.25.05q-.4.15-.35.5l.05.35.55.2.45-.05.15-.4v-.15l-.1-.2-.2-.15-.3-.15M5.3-49.55l-.2-.15-.3-.15-.25.05q-.4.15-.35.5l.05.35q.25.15.55.2l.45-.05.15-.4v-.15l-.1-.2m24.05 11l-3.5 1.75-2.6-1.3-19.4-9.75-2.6-1.3 2.6 1.3 19.4 9.75 2.6 1.3 3.5-1.75v21.5L-4.7-.05V-21.5l-24.6-12.35 3.4-1.7 27.15-13.6 3.5-1.75 24.6 12.35m-52.65 4.3l-2.6-1.3 2.6 1.3 19.35 9.75 2.6 1.3-3.35 1.7 3.35-1.7-2.6-1.3 7.6-3.8 3-1.5-19.4-9.75-2.95 1.5-7.6 3.8m13.55-6.8l-3 1.5 3-1.5 19.4 9.75-3 1.5 3-1.5 3.6-1.8-19.4-9.75-3.6 1.8m6.6-3.3l-3 1.5 3-1.5 19.4 9.75 2.9-1.45-19.4-9.75-2.9 1.45m7-3.5l-4.1 2.05 4.1-2.05m11.85 21q.3-.1.15-.25-.35-.2-.65-.35l-1.4 3.4-.25-.2-.5 1.1 1.4 1-.65 1.5-.8.4.15 1.25q.2.15.25-.25l1.5-1v5.85l.8-.4v-6.05l.9-.6.2.45.75-.9-.95-1.85-.65.8.45.75-1.7 1.1 1.5-3.35.5-1.15q.3-.1.1-.3l-.6-.35-.75 1.8-.5 1.1-.6-.45 1.35-3.05m2.65 1.6l.95-.5v1.5q0 2.05-.95 3.85v-4.85m.95-4.15v2.75l-1.65.8v10l.7-.35v-3.95l.5.45q.75-1.4 1.1-3.3l1.1 1.8.35-.95v3l-.1.2-.75.4.1 1.05 1-.5q.45-.25.45-1.15v-8.9l-1.95.95v-2.35q.25-.45-.05-.3l-.8.35m-3.05-5.2l-3 1.5 3-1.5M7.8-19.4l.4.7-1.9.95.35-1.05 1.15-.6m2.75 5.2v-.9L7.6-13.65v-1l1.7-.85v-.9l-1.7.85v-1.15q.3-.4-.05-.3l-.75.4v1.45l-1.65.85v.85l1.65-.8v1.05l-2.95 1.45v.9L6.8-12.3v2.1l.8-.4v-2.1l2.95-1.5m3.9-4.65l-.8.2-.45 3.55.8.1.45-3.45q.3-.4 0-.4m-3.4-4.05v-1.05l-3.7 1.85.15-1.1.1-.35-.75.3-.3 1.55-3.25 1.6v1.1l3.1-1.55-.3 1.1-2.25 1.1v.95l1.95-1-.4 1.1L2.8-16v1.1l2.05-1.05q-.95 1.85-2.3 3.55l.45.85q1.75-2.25 2.9-4.9l2.8-1.4q1 1.35 2.85 1.8l.35-1.35q-1.2-.1-2.3-.9l2-1v-1.1l-2.5 1.25-.4-.65 1.85-.95v-.9l-3.65 1.8.25-1.1 3.9-1.95m5.85 2.45l-.7.65.35 2.6.75-.65-.4-2.6m9.5 1.6l-.05.15.05.2.05.2.15.15.25.2.45.15.3-.05.15-.1.15-.15.15-.15.15-.4V-19l-.1-.2-.15-.15-.2-.2-.45-.15v.05l-.3.05-.15.05-.15.1-.2.2-.05.2-.05.2M23.25-38.1l-4.1 2.05 4.1-2.05m-3.1 11.95l1.25-.65v3.8l-1.25-1.35v-1.8m-45-7.45l-.1-.2-.2-.15-.3-.15-.25.05q-.4.15-.35.5l.05.35.55.2.45-.05.15-.4v-.15M-3-20.5l-.05.2-.05.2-.05.15.05.2.05.2.15.15.25.2.45.15.3-.05.15-.1.15-.15.15-.15.15-.4v-.35l-.1-.2-.15-.15-.2-.2-.45-.15v.05l-.3.05-.15.05-.15.1-.2.2m-1.7-3.35l-.25.05q-.4.15-.35.5l.05.35.55.2.45-.05.15-.4v-.15l-.1-.2-.2-.15-.3-.15M-2.2-4.9l-.3.05-.15.05-.15.1-.2.2-.05.2-.05.2-.05.15.05.2.05.2.15.15.25.2.45.15.3-.05.15-.1.15-.15.15-.15.15-.4v-.35l-.1-.2-.15-.15-.2-.2-.45-.15v.05m28.05-31.9l-27.2 13.6 27.2-13.6" fill="#916c4a" fill-rule="evenodd" transform="translate(29.8 51.4)"/><path d="M5.3-49.55l.1.2v.15l-.15.4-.45.05q-.3-.05-.55-.2l-.05-.35q-.05-.35.35-.5l.25-.05.3.15.2.15m21.25 10.7l.3.15.2.15.1.2v.15l-.15.4-.45.05-.55-.2-.05-.35q-.05-.35.35-.5l.25-.05m1.65 3.25l.15.15.1.2v.35l-.15.4-.15.15-.15.15-.15.1-.3.05-.45-.15-.25-.2-.15-.15-.05-.2-.05-.2.05-.15.05-.2.05-.2.2-.2.15-.1.15-.05.3-.05v-.05l.45.15.2.2m-43.9-2.45l2.95-1.5 19.4 9.75-3 1.5-19.35-9.75m5.95-3l3.6-1.8 19.4 9.75-3.6 1.8-19.4-9.75m6.6-3.3l2.9-1.45 19.4 9.75-2.9 1.45-19.4-9.75m29.55 25.5l.05-.2.05-.2.2-.2.15-.1.15-.05.3-.05v-.05l.45.15.2.2.15.15.1.2v.35l-.15.4-.15.15-.15.15-.15.1-.3.05-.45-.15-.25-.2-.15-.15-.05-.2-.05-.2.05-.15M-24.85-33.6v.15l-.15.4-.45.05-.55-.2-.05-.35q-.05-.35.35-.5l.25-.05.3.15.2.15.1.2m-1.7 3.95l-.15.4-.15.15-.15.15-.15.1-.3.05-.45-.15-.25-.2-.15-.15-.05-.2-.05-.2.05-.15.05-.2.05-.2.2-.2.15-.1.15-.05.3-.05v-.05l.45.15.2.2.15.15.1.2v.35m.5 15.55l.15.15.1.2v.35l-.15.4-.15.15-.15.15-.15.1-.3.05-.45-.15-.25-.2-.15-.15-.05-.2-.05-.2.05-.15.05-.2.05-.2.2-.2.15-.1.15-.05.3-.05v-.05l.45.15.2.2m21.35-9.75l.3.15.2.15.1.2v.15l-.15.4-.45.05-.55-.2-.05-.35q-.05-.35.35-.5l.25-.05M-3-20.5l.2-.2.15-.1.15-.05.3-.05v-.05l.45.15.2.2.15.15.1.2v.35l-.15.4-.15.15-.15.15-.15.1-.3.05-.45-.15-.25-.2-.15-.15-.05-.2-.05-.2.05-.15.05-.2.05-.2m-4.75 0l.2-.2.15-.1.15-.05.3-.05v-.05l.45.15.2.2.15.15.1.2v.35l-.15.4-.15.15-.15.15-.15.1-.3.05-.45-.15-.25-.2-.15-.15-.05-.2-.05-.2.05-.15.05-.2.05-.2m.55 16.05l.45.15.2.2.15.15.1.2v.35l-.15.4-.15.15-.15.15-.15.1-.3.05-.45-.15-.25-.2-.15-.15-.05-.2-.05-.2.05-.15.05-.2L-8-4l.2-.2.15-.1.15-.05.3-.05v-.05m5-.45v-.05l.45.15.2.2.15.15.1.2v.35l-.15.4-.15.15-.15.15-.15.1-.3.05-.45-.15-.25-.2-.15-.15-.05-.2-.05-.2.05-.15.05-.2.05-.2.2-.2.15-.1.15-.05.3-.05" fill="#2c2929" fill-rule="evenodd" transform="translate(29.8 51.4)"/><path d="M19.3-29.4l.8-.35q.3-.15.05.3v2.35l1.95-.95v8.9q0 .9-.45 1.15l-1 .5-.1-1.05.75-.4.1-.2v-3l-.35.95-1.1-1.8q-.35 1.9-1.1 3.3l-.5-.45v3.95l-.7.35v-10l1.65-.8v-2.75m-.95 4.15v4.85q.95-1.8.95-3.85v-1.5l-.95.5m-2.65-1.6l-1.35 3.05.6.45.5-1.1.75-1.8.6.35q.2.2-.1.3l-.5 1.15-1.5 3.35 1.7-1.1-.45-.75.65-.8.95 1.85-.75.9-.2-.45-.9.6v6.05l-.8.4v-5.85l-1.5 1q-.05.4-.25.25L13-20.25l.8-.4.65-1.5-1.4-1 .5-1.1.25.2 1.4-3.4q.3.15.65.35.15.15-.15.25m1.2 6.4l.4 2.6-.75.65-.35-2.6.7-.65m-5.85-2.45l-3.9 1.95-.25 1.1 3.65-1.8v.9l-1.85.95.4.65 2.5-1.25v1.1l-2 1q1.1.8 2.3.9l-.35 1.35q-1.85-.45-2.85-1.8l-2.8 1.4Q4.75-13.8 3-11.55l-.45-.85q1.35-1.7 2.3-3.55L2.8-14.9V-16l2.6-1.3.4-1.1-1.95 1v-.95l2.25-1.1.3-1.1L3.3-19v-1.1l3.25-1.6.3-1.55.75-.3-.1.35-.15 1.1 3.7-1.85v1.05m3.4 4.05q.3 0 0 .4L14-15l-.8-.1.45-3.55.8-.2m-3.9 4.65L7.6-12.7v2.1l-.8.4v-2.1l-2.95 1.45v-.9L6.8-13.2v-1.05l-1.65.8v-.85l1.65-.85v-1.45l.75-.4q.35-.1.05.3v1.15l1.7-.85v.9l-1.7.85v1l2.95-1.45v.9M7.8-19.4l-1.15.6-.35 1.05 1.9-.95-.4-.7m12.35-6.75v1.8L21.4-23v-3.8l-1.25.65" fill="#900" fill-rule="evenodd" transform="translate(29.8 51.4)"/><path d="M-4.7-.05V0l-24.6-12.35v-21.5L-4.7-21.5V-.05M-26.05-14.1l-.2-.2-.45-.15v.05l-.3.05-.15.05-.15.1-.2.2-.05.2-.05.2-.05.15.05.2.05.2.15.15.25.2.45.15.3-.05.15-.1.15-.15.15-.15.15-.4v-.35l-.1-.2-.15-.15m-.5-15.55V-30l-.1-.2-.15-.15-.2-.2-.45-.15v.05l-.3.05-.15.05-.15.1-.2.2-.05.2-.05.2-.05.15.05.2.05.2.15.15.25.2.45.15.3-.05.15-.1.15-.15.15-.15.15-.4M-7.2-4.45v.05l-.3.05-.15.05-.15.1-.2.2-.05.2-.05.2-.05.15.05.2.05.2.15.15.25.2.45.15.3-.05.15-.1.15-.15.15-.15.15-.4v-.35l-.1-.2-.15-.15-.2-.2-.45-.15m-.55-16.05l-.05.2-.05.2-.05.15.05.2.05.2.15.15.25.2.45.15.3-.05.15-.1.15-.15.15-.15.15-.4v-.35l-.1-.2-.15-.15-.2-.2-.45-.15v.05l-.3.05-.15.05-.15.1-.2.2" fill="#785b3f" fill-rule="evenodd" transform="translate(29.8 51.4)"/><path d="M1.25-49.15l2.6 1.3 19.4 9.75 2.6 1.3 3.5-1.75L4.75-50.9l-3.5 1.75-27.15 13.6 2.6 1.3 7.6-3.8 2.95-1.5 3-1.5 3.6-1.8 3-1.5 2.9-1.45 4.1-2.05m-.2 19.55l3-1.5-19.4-9.75m19.4 9.75l3-1.5-19.4-9.75m6.6-3.3l19.4 9.75 2.9-1.45-19.4-9.75m13.5 12.7l3-1.5m-6.6 3.3l3.6-1.8-19.4-9.75m35.5 4.3v21.5L-4.7-.05V0l-24.6-12.35v-21.5l3.4-1.7m45.05-.5l4.1-2.05M-4.7-21.5l3.35-1.7-2.6-1.3M-4.7-.05V-21.5l-24.6-12.35M3.65-28.3l-7.6 3.8m2.6 1.3l27.2-13.6" fill="none" stroke="#3a2b1b" stroke-linecap="round" stroke-linejoin="round" transform="translate(29.8 51.4)"/><path d="M3.65-28.3l-2.7 1.35-19.35-9.75 2.7-1.35L3.65-28.3m-4.9 2.45l-2.7 1.35-19.35-9.75 2.7-1.35 19.35 9.75" fill="#916c4a" fill-rule="evenodd" transform="translate(29.8 51.4)"/><path d="M-18.4-36.7L.95-26.95l-2.2 1.1-19.35-9.75 2.2-1.1" fill="#2c2929" fill-rule="evenodd" transform="translate(29.8 51.4)"/><path d="M3.65-28.3l-19.35-9.75m-2.7 1.35L.95-26.95m-4.9 2.45l-19.35-9.75m2.7-1.35l19.35 9.75" fill="none" stroke="#3a2b1b" stroke-linecap="round" stroke-linejoin="round" transform="translate(29.8 51.4)"/></g><g id="shape3"><path d="M7.9-52.45q-2.05 4.6-13.85 4.6l-2.55-.2-.05-.9q0-2.4.8-3.8l1.3-1.7q1.25-1.45 6.35-1.4 5.1.05 6.25 1.35l1.75 2.05M-8.25-46.6q1.2.55 3.7.6l.35.1q2.25.6 7.55-1.2 4.6-1.6 5.65-3.25l-.35 5.4q-.15 1.95-1.8 3.1-.7.5-1.6.85v-1.35l.05-.1.05-.1.3-.4.3-.25.05-.1v-.85l-.1-.1-.05-.05-.05-.1-.05-.1-.1-.05-.2-.1-.25-.05-.1-.05-.15-.05h-1.4l-.2.1-.1.05-.1.1v1.3l.15.2.1.1.1.1.2.1h.05v.1l.05.1.05.1.05.1v.95l-.1.1-.05.1v.35l.1.1.2.05.15-.05.05-.05v.1l-2.9.55-.85.05q-7.95.6-8.75-6.5" fill="#cec25b" fill-rule="evenodd" transform="translate(9.8 56.35)"/><path d="M7.9-52.45l.05-.15.45-.15q.9 0 .9 1.4l-.3 1Q7.95-48.7 3.35-47.1q-5.3 1.8-7.55 1.2l-.35-.1q-2.5-.05-3.7-.6-.75-.35-1.05-.9v-.6h.6l.2.05 2.55.2q11.8 0 13.85-4.6" fill="#b5a735" fill-rule="evenodd" transform="translate(9.8 56.35)"/><path d="M4.25-40.7v-.1l-.05.05-.15.05-.2-.05-.1-.1v-.35l.05-.1.1-.1v-.95l-.05-.1-.05-.1-.05-.1v-.1H3.7l-.2-.1-.1-.1-.1-.1-.15-.2v-1.3l.1-.1.1-.05.2-.1h1.4l.15.05.1.05.25.05.2.1.1.05.05.1.05.1.05.05.1.1v.85l-.05.1-.3.25-.3.4-.05.1-.05.1V-41l-.05.35-.05.05h-.1l-.05.05-.1.05-.1.05h-.25l-.2-.05-.1-.1v-.1" fill="#2c2929" fill-rule="evenodd" transform="translate(9.8 56.35)"/><path d="M6.85-41.85q-.15 1.5-1.1 3.1l-.15.25q-.15 2.5.25 5.15.4 2.65-1 6.1v.3l.2 1.35 1.05 2.65q.9 2.3.4 3.5-.65 2.3-.65 3.45v.25q-2.65-.2-3.2-2.15l-.1-.45q-.2-.95-.05-2.8v-.15q0-.65-.9-1.6-1-.95-.85-3.15.15-2.2.45-3.15l-.05-.3q-.3-1.3-.3-2 0-1 .5-2.45.5-1.45.5-3.3l-.05-1-.45-1.9 2.9-.55v.1l.1.1.2.05h.25l.1-.05.1-.05.05-.05h.1l.05-.05.05-.35q.9-.35 1.6-.85m-2 14.6q-1.05.3-2.3-.55-1-.7-1.35-1.4.35.7 1.35 1.4 1.25.85 2.3.55M5.6-38.5Q3.65-37 2.95-37L1.8-38.25 2.95-37q.7 0 2.65-1.5M3.1-21.25Q5-22 4.85-26.95 5-22 3.1-21.25" fill="#f4efec" fill-rule="evenodd" transform="translate(9.8 56.35)"/><path d="M6.5-19.45q1.6 2.2 1.6 4.45l-.75 2.7-1-.95h-.6l-.05.1q-.35.65-1.85.65l-1.45-.1Q.6-12.9.6-14.1q0-1.45 1.5-3.65l.55-.15q.55 1.95 3.2 2.15V-16q0-1.15.65-3.45m-.65 3.7l-.1 2.5.1-2.5" fill="#feb34e" fill-rule="evenodd" transform="translate(9.8 56.35)"/><path d="M7.35-12.3q.5.65.65 1.5l.1 3.55Q8.25 0 5.6 0q-.9 0-2.4-.65Q1.35-1.45.85-2.5 3.1-5.7 3.1-9q0-1.4-.7-3.6l1.45.1q1.5 0 1.85-.65l.05-.1h.6l1 .95" fill="#ad9174" fill-rule="evenodd" transform="translate(9.8 56.35)"/><path d="M9-50.35l.3-1q0-1.4-.9-1.4l-.45.15-.05.15q-2.05 4.6-13.85 4.6l-2.55-.2-.2-.05h-.6v.6q.3.55 1.05.9 1.2.55 3.7.6l.35.1q2.25.6 7.55-1.2 4.6-1.6 5.65-3.25l-.35 5.4q-.15 1.95-1.8 3.1-.15 1.5-1.1 3.1l-.15.25q-.15 2.5.25 5.15.4 2.65-1 6.1v.3-.3l.2 1.65 1.05 2.65q.9 2.3.4 3.5 1.6 2.2 1.6 4.45l-.75 2.7q.5.65.65 1.5l.1 3.55Q8.25 0 5.6 0q-.9 0-2.4-.65Q1.35-1.45.85-2.5 3.1-5.7 3.1-9q0-1.4-.7-3.6-1.8-.3-1.8-1.5 0-1.45 1.5-3.65m.55-.15l-.1-.45q-.2-.95-.05-2.8v-.15q0-.65-.9-1.6-1-.95-.85-3.15.15-2.2.45-3.15l-.05-.3q-.3-1.3-.3-2 0-1 .5-2.45.5-1.45.5-3.3l-.05-1-.45-1.9-.85.05q-7.95.6-8.75-6.5M7.9-52.45L6.15-54.5Q5-55.8-.1-55.85q-5.1-.05-6.35 1.4l-1.3 1.7q-.8 1.4-.8 3.8l.05.9M5.25-41q.9-.35 1.6-.85m-2.6 1.15l-2.9.55M1.2-29.2q.35.7 1.35 1.4 1.25.85 2.3.55m.2 1.65l-.2-1.35Q5-22 3.1-21.25m-1.3-17L2.95-37q.7 0 2.65-1.5M2.4-12.6l1.45.1q1.5 0 1.85-.65l.05-.1.1-2.5q-2.65-.2-3.2-2.15m3.7 4.65l1 .95m-1.5-3.45V-16q0-1.15.65-3.45" fill="none" stroke="#2c2929" stroke-linecap="round" stroke-linejoin="round" transform="translate(9.8 56.35)"/></g><g id="shape4"><path d="M-87.15-22.9l-.35-.7.85.45-.5.25m64.8-.9h.05-.05" fill="#d18049" fill-rule="evenodd" transform="translate(214.7 223.35)"/><path d="M60.45-104.3q10.5 12.6 18.85 19.35l4.9 3.6q3.6 2.35 6.75 3.4l.15.05v2.75q-3.15-1.05-6.75-3.4-2.45-1.6-5.05-3.7-4.85-3.95-10.35-9.8-4.75-5.05-10-11.45l-1.35-1.65q-16.5-20.55-25.7-39.8l-1.05-2.15L32-145l-.1.05.1-.05.75 1.4q9 16.1 24.7 35.65l3 3.65M-87.5-23.6l-3.6-1.8v-3l2.3 1.15L-49.35-7.5q4.35-2.35 11-9l1-1 2.7-2.85 3.55-3.85.7-.8.6-.7 4.85-5.8 3.3-4.25q4.5-5.9 8.95-12.55l1.5-2.25L-6.45-58l1.25-2.1.95-1.55L.55-70l3.2-5.95Q9.85-87.7 15-100.15l.6-1.5 1.4-.6q-5.1 13-11.25 25.3l-4.6 8.8L-4.65-58l-3.7 6q-2.1 3.4-4.35 6.7-4.45 6.65-8.95 12.6l-.95 1.2-5.25 6.5q-3.35 4-6.8 7.65Q-42-9.5-46.95-6l-.4.3-2 1.2v-3 3L-86.3-23l-.35-.15-.85-.45M30.15-147l.7-.1-.75 3.05-.1.55-1.85 7.2-.05.1q-2.25 8.4-4.5 15.45l-1.25 3.85q-2.5 7.45-5.35 14.65l-1.4.6q3.1-7.7 5.85-15.7l2.15-6.4q3.15-9.8 5.75-19.9l.8-3.35m-.05 2.95l-.75.4.75-.4m-7.75 27.15l-.9-.45.9.45" fill="#241c13" fill-rule="evenodd" transform="translate(214.7 223.35)"/><path d="M-8.4-43.85l.35-.55.15.3-.5.25m76.1-38.8l.15.1.4.25h.1l-.1.05-.55-.35.1.05-.1-.1" fill="#b89c69" fill-rule="evenodd" transform="translate(214.7 223.35)"/><path d="M38.55-111.35l.05.15-.05-.15" fill="#a8884f" fill-rule="evenodd" transform="translate(214.7 223.35)"/><path d="M-163.15-128.15h.05l-.05.05v-.05" fill="#4e4e4e" fill-rule="evenodd" transform="translate(214.7 223.35)"/><path d="M68.35-78.3l-1.6.8-4.8 2.4-.65.35-.9.45-.4.2-1.05.5-.2.1-.25.15-.2.05q-2 .85-6.2 1.7 4.2-.85 6.2-1.7l.2-.05.2 56.3q-6.5 1.3-6.6-1.8V-71.6l-1.75.3q-6.1 1.05-10.7.95-1.3-.05-3.2.8l-3.5 1.95q-2.5 1.55-5.65 4.1l-4.6 3.85Q10.3-48.8 2.8-45.45l-15.05 7.5 3.85-5.9.5-.25 11.2-5.6q7.4-3.5 19.4-13.95 12.35-10.85 16.95-10.7 4.6.1 10.7-.95t8.4-2.2l.2-.1 1.05-.5 6.75-3.4q.65-.35.95-1.1v-.05l.1.1-.05-.05h-.05l.65 4.3m-80.6 89.5v8.15q-4.75 1.15-7.25.85v-47.8l1.05-1.45 5.75-8.25h.45v48.5m-10.1-35l.05-.05v.05h-.05" fill="#ba1b1b" fill-rule="evenodd" transform="translate(214.7 223.35)"/><path d="M67.75-82.6h-.05.05" fill="#831212" fill-rule="evenodd" transform="translate(214.7 223.35)"/><path d="M-68.55-12.15l-17.55-8.8-1.05-1.95.5-.25.35.15 36.95 18.5 2-1.2 3 5.7-24.2-12.15m60.5-32.25l3.25-5.35 3.45-5.8 2.05-1.3q5.95-3.9 13.9-10.85 11.5-10.1 16.3-10.7h.65q4.6.1 10.7-.95t8.4-2.2l1.25-.6 6.75-3.4 1.45-.85h.05l5.75 2.85.35-.65 1.45 1.55v.05h.05l.05.05-.1-.05q-.3.75-.95 1.1L60-78.1l-1.05.5-.2.1q-2.3 1.15-8.4 2.2-6.1 1.05-10.7.95-4.6-.15-16.95 10.7Q10.7-53.2 3.3-49.7l-11.2 5.6-.15-.3M67.7-82.65l-1.8-.9 1.8.9" fill="#482e22" fill-rule="evenodd" transform="translate(214.7 223.35)"/><path d="M91.1-75.15l-3.3 6.6-3.1-1.55-5.4-3.3q-5.55-3.7-11.6-9.2v-.05.05l.55.35.1-.05h-.1l-.4-.25-.15-.1-1.45-1.55q-.7-.75-4.35-3.2h-.05l-.05-.05Q60-88.7 58.55-90.2q-1.5-1.5-2.65-3.3-2.45-3.7-7.35-5.75-4.9-2.05-9.95-11.95l-.05-.15q-1.5-2.9-2.75-6.15-3.05-7.7-4.9-17.3l-.05-.15v.15l-.7 6.05-.05.25-2.25 14.35-1.15 5.55-.2.75-.4 1.8-1.9 7.2Q20.1-84.9 16.1-81.2l-.6.5q-4.3 3.05-6.45 8.65-2.15 5.55-5.3 9.3Q.55-59.05 0-58l-1.35 2.45-3.45 5.8-3.25 5.35-.35.55-3.85 5.9-.45.65-5.75 8.25-1.05 1.45-1.25 1.7-.9 1.2-.65.85-.05.05q-6.1 7.85-12.3 14.45-3.7 3.95-6.8 6.8L-44.35 0l-3-5.7.4-.3q4.95-3.5 12.3-11.35Q-31.2-21-27.85-25l5.25-6.5.95-1.2q4.5-5.95 8.95-12.6 2.25-3.3 4.35-6.7l3.7-6 5.8-10.15 4.6-8.8q6.15-12.3 11.25-25.3 2.85-7.2 5.35-14.65l1.25-3.85q2.25-7.05 4.5-15.45l.05-.1 1.85-7.2.1-.55.75-3.05 1.05 2.15q9.2 19.25 25.7 39.8l1.35 1.65q5.25 6.4 10 11.45 5.5 5.85 10.35 9.8 2.6 2.1 5.05 3.7 3.6 2.35 6.75 3.4" fill="#784d38" fill-rule="evenodd" transform="translate(214.7 223.35)"/><path d="M-1.35-55.55L0-58q.55-1.05 3.75-4.75 3.15-3.75 5.3-9.3 2.15-5.6 6.45-8.65l.6-.5.4.2q7.75-6.45 10.85-17 1.55-5.2 3.85-22.75l.05-.5q.05-1.35.5-1.8l.65 1.9.85 2.3q1.15 3 2.75 6.25.05 1.05.6 2.1 1.2 2.45 3.7 6.25 2.5 3.75 5.05 5.5l7.75 5.4 4.65 3.9 2.35 3.05-1.45.85-6.75 3.4-1.25.6q-2.3 1.15-8.4 2.2-6.1 1.05-10.7.95h-.65q-4.8.6-16.3 10.7Q6.65-60.75.7-56.85l-2.05 1.3" fill="#603d2d" fill-rule="evenodd" transform="translate(214.7 223.35)"/><path d="M-163.1-128.15l189.15-94.7 10.25 5.15-189.25 94.6-7.85-3.85-2.35-1.15 2.35 1.15q-17.55 52.85-51 78.55l-2.4-1.2q33.5-25.65 51.05-78.55v.05l.05-.05m208.3-73.3l.8 1.35-192.55 96.3-.5-1.55 192.25-96.1m23.6 38.05l.9 1.3-36.95 18.5L32-145l36.8-18.4m-159.9 135v-.05l.25-.15 4.05-2.9q4.5-3.65 10.55-10.15Q-69.3-49-62.5-58l4-5.5 4.2-6.1.3-.4q10.05-15.1 18.25-31.4l.2-.35 5.8-12.35q11.35-25.65 18.3-54.2l2.3 1.15q-5.85 23.9-14.7 45.75l-.6 1.45-1.7 4.05q-3.4 7.75-7.1 15.3l-.2.35q-4.8 9.6-10.25 18.75l-.95 1.6q-3.45 5.6-7.05 11.05l-.3.4-4.2 6.1-4 5.5q-4.55 6-9.15 11.3l-1.3 1.45-3.3 3.6Q-80-34-84.5-30.35l-4.05 2.9-.25.2-2.3-1.15m56.65-81.6l-100.8 50.4-.3-1.6Q-84.5-86.75-33.4-112.25l-1.05 2.25" fill="#464646" fill-rule="evenodd" transform="translate(214.7 223.35)"/><path d="M-33.4-112.25q11.9-26.1 19.2-55.25l2.5-.9.25.1q-6.95 28.55-18.3 54.2l-5.8 12.35-.2.35Q-43.95-85.1-54-70l-.3.4-4.2 6.1-4 5.5q-6.8 9-13.75 16.35-6.05 6.5-10.55 10.15l-4.05 2.9-.25.15-2.3-1.15.25-.15q1.8-1.1 4.05-2.9 4.5-3.65 10.55-10.15 6.95-7.35 13.75-16.35l4-5.5 4.2-6.1.3-.4q10.05-15.1 18.25-31.4l.2-.35 3.4-7.1 1.05-2.25 3.65-1.85-3.65 1.85" fill="#353535" fill-rule="evenodd" transform="translate(214.7 223.35)"/><path d="M-19.5 20.2l-1.25-.25V-25.9l1.25-1.7v47.8" fill="#ad1818" fill-rule="evenodd" transform="translate(214.7 223.35)"/><path d="M-20.75 19.95q-1.5-.6-1.55-2.05v-41.75l.65-.85.9-1.2v45.85" fill="#9a1616" fill-rule="evenodd" transform="translate(214.7 223.35)"/><path d="M60.45-17.45l-1.75.4-.2-56.3.25-.15.2-.1 1.05-.5.45 56.65" fill="#a81717" fill-rule="evenodd" transform="translate(214.7 223.35)"/><path d="M61.95-75.1l.15 38.85.05 10.95v7.4l-1.7.45L60-74.1l.4-.2.9-.45.65-.35" fill="#951515" fill-rule="evenodd" transform="translate(214.7 223.35)"/><path d="M62.1-36.25l11.25 5.5-11.2 5.45-.05-10.95m-10 12.85l-8.4-4.65-10.25-4.25-34 16.75V5.5l-11.7 5.7v-49.15l15.05-7.5q7.5-3.35 19.9-14.2l4.6-3.85q3.15-2.55 5.65-4.1l3.5-1.95v20.95l15.65 7.85v17.35m-74.4 37.9l-12.95 6.35-33.3-16.7v-16.3L-44.35 0l2.9-2.55q3.1-2.85 6.8-6.8 6.2-6.6 12.3-14.45h.05v-.05V14.5" fill-opacity=".361" fill-rule="evenodd" transform="translate(214.7 223.35)"/><path d="M84.7-70.1l-16.35-8.2-.65-4.3q6.05 5.5 11.6 9.2l5.4 3.3m-54.6-58.4l.05-.25.7-6.05h.05q1.85 9.6 4.9 17.3 1.25 3.25 2.75 6.15l.05.15q5.05 9.9 9.95 11.95 4.9 2.05 7.35 5.75 1.15 1.8 2.65 3.3 1.45 1.5 3.25 2.75l.05.05h.05q3.65 2.45 4.35 3.2l-.35.65-5.75-2.85h-.05l-2.35-3.05-4.65-3.9-7.75-5.4q-2.55-1.75-5.05-5.5-2.5-3.8-3.7-6.25-.55-1.05-.6-2.1-1.6-3.25-2.75-6.25l-.85-2.3-.65-1.9q-.9-2.65-1.65-5.45" fill="#39221c" fill-rule="evenodd" transform="translate(214.7 223.35)"/><path d="M16.1-81.2q4-3.7 8.1-17.65l1.9-7.2.4-1.8.2-.75 1.15-5.55 2.25-14.35q.75 2.8 1.65 5.45-.45.45-.5 1.8l-.05.5Q28.9-103.2 27.35-98q-3.1 10.55-10.85 17l-.4-.2" fill="#4d2e24" fill-rule="evenodd" transform="translate(214.7 223.35)"/><path d="M15.6-101.65l-.6 1.5-39.45-19.8.6-1.45 39.45 19.75m-19.85 40l-.95 1.55-39.45-19.8.95-1.6 39.45 19.85M-29.8-25.7l-.6.7-.7.8-39.55-19.9 1.3-1.45L-29.8-25.7" fill="#404040" fill-rule="evenodd" transform="translate(214.7 223.35)"/><path d="M30.35-147.35l-.2.35-.8 3.35q-2.6 10.1-5.75 19.9l-2.15 6.4q-2.75 8-5.85 15.7l-39.45-19.75q8.85-21.85 14.7-45.75l39.5 19.8" fill="url(#gradient0)" fill-rule="evenodd" transform="translate(214.7 223.35)"/><path d="M69.7-162.1q15.1 21.95 30.35 38l-39.6 19.8-3-3.65q-15.7-19.55-24.7-35.65l36.95-18.5" fill="url(#gradient1)" fill-rule="evenodd" transform="translate(214.7 223.35)"/><path d="M-160.8-126.95l7.85 3.85q3.2 9.1 5.9 17.75l.5 1.55q7.1 22.9 11 42.6l.3 1.6q5.5 29.05 3.8 50.85L-211.8-48.4q33.45-25.7 51-78.55" fill="url(#gradient2)" fill-rule="evenodd" transform="translate(214.7 223.35)"/><path d="M46-200.1q11.35 20.05 22.8 36.7L32-145l-1.15-2.1-.5-.25-39.5-19.8-2.3-1.15-.25-.1-2.5.9q-7.3 29.15-19.2 55.25-51.1 25.5-102.15 51.05-3.9-19.7-11-42.6L46-200.1" fill="url(#gradient3)" fill-rule="evenodd" transform="translate(214.7 223.35)"/><path d="M36.3-217.7l8.9 16.25-192.25 96.1q-2.7-8.65-5.9-17.75L36.3-217.7" fill="url(#gradient4)" fill-rule="evenodd" transform="translate(214.7 223.35)"/><path d="M-24.45-119.95L15-100.15Q9.85-87.7 3.75-75.95L.55-70l-4.8 8.35L-43.7-81.5q5.45-9.15 10.25-18.75l.2-.35q3.7-7.55 7.1-15.3l1.7-4.05" fill="url(#gradient5)" fill-rule="evenodd" transform="translate(214.7 223.35)"/><path d="M-5.2-60.1L-6.45-58l-4.75 7.45-1.5 2.25q-4.45 6.65-8.95 12.55l-3.3 4.25-4.85 5.8-39.55-19.85q4.6-5.3 9.15-11.3l4-5.5 4.2-6.1.3-.4q3.6-5.45 7.05-11.05L-5.2-60.1" fill="url(#gradient6)" fill-rule="evenodd" transform="translate(214.7 223.35)"/><path d="M-31.1-24.2l-3.55 3.85-2.7 2.85-1 1q-6.65 6.65-11 9L-88.8-27.25l.25-.2 4.05-2.9Q-80-34-73.95-40.5l3.3-3.6 39.55 19.9" fill="url(#gradient7)" fill-rule="evenodd" transform="translate(214.7 223.35)"/><path d="M-91.1-28.45L-130.95-8.5l-.5-.25q1.7-21.8-3.8-50.85l100.8-50.4-3.4 7.1-.2.35q-8.2 16.3-18.25 31.4l-.3.4-4.2 6.1-4 5.5q-6.8 9-13.75 16.35-6.05 6.5-10.55 10.15-2.25 1.8-4.05 2.9l-.25.15 2.3 1.15" fill="url(#gradient8)" fill-rule="evenodd" transform="translate(214.7 223.35)"/><path d="M-163.1-128.15l189.15-94.7 10.25 5.15 8.9 16.25.8 1.35q11.35 20.05 22.8 36.7l.9 1.3q15.1 21.95 30.35 38l-39.6 19.8q10.5 12.6 18.85 19.35l4.9 3.6q3.6 2.35 6.75 3.4l.15.05v2.75l-3.3 6.6-3.1-1.55-16.35-8.2m-136.9 66.15l-17.55-8.8-1.05-1.95m-.35-.7l-3.6-1.8v-3.05L-130.95-8.5l-.5-.25.2.65m162.1-139l1.05 2.15.1-.05-1.15-2.1-.5-.25m-.2.35l.7-.1-.75 3.05-.1.55-1.85 7.2-.05.1q-2.25 8.4-4.5 15.45l-1.25 3.85q-2.5 7.45-5.35 14.65-5.1 13-11.25 25.3l-4.6 8.8L-4.65-58l-3.7 6q-2.1 3.4-4.35 6.7-4.45 6.65-8.95 12.6l-.95 1.2-5.25 6.5q-3.35 4-6.8 7.65Q-42-9.5-46.95-6l-.4.3m78.2-129.25l.05.15q1.85 9.6 4.9 17.3 1.25 3.25 2.75 6.15m.05.15q5.05 9.9 9.95 11.95 4.9 2.05 7.35 5.75 1.15 1.8 2.65 3.3 1.45 1.5 3.25 2.75l.05.05h.05q3.65 2.45 4.35 3.2l1.45 1.55m0 .05q6.05 5.5 11.6 9.2l5.4 3.3M32-145l.75 1.4q9 16.1 24.7 35.65l3 3.65M30.15-147l-.8 3.35.75-.4m-.75.4q-2.6 10.1-5.75 19.9l-2.15 6.4.9.45M15-100.15l.6-1.5q3.1-7.7 5.85-15.7M15-100.15Q9.85-87.7 3.75-75.95L.55-70l-4.8 8.35-.95 1.55-1.25 2.1-4.75 7.45-1.5 2.25q-4.45 6.65-8.95 12.55l-3.3 4.25-4.85 5.8-.6.7-.7.8-3.55 3.85-2.7 2.85-1 1q-6.65 6.65-11 9v3l2-1.2M91.1-75.15q-3.15-1.05-6.75-3.4-2.45-1.6-5.05-3.7-4.85-3.95-10.35-9.8-4.75-5.05-10-11.45l-1.35-1.65q-16.5-20.55-25.7-39.8m36.9-18.45L32-145m35.75 62.4h-.05m23.25 4.65l.15.05m-254.25-50.2l2.35 1.15 7.85 3.85L36.3-217.7m-199.45 89.6v-.05q-17.55 52.9-51.05 78.55l2.4 1.2m200.35-119.9l2.3 1.15 39.5 19.8m-63.75 35.1l3.65-1.85q11.35-25.65 18.3-54.2m-18.3 54.2l-5.8 12.35-.2.35Q-43.95-85.1-54-70l-.3.4-4.2 6.1-4 5.5q-6.8 9-13.75 16.35-6.05 6.5-10.55 10.15l-4.05 2.9m-44.4-31q5.5 29.05 3.8 50.85L-211.8-48.4m178.35-51.85l.2-.35m-.15-11.65q-51.1 25.5-102.15 51.05l.3 1.6m-11.3-44.2l-.5-1.55q-2.7-8.65-5.9-17.75m61.85 94.7l2.3 1.15L-49.35-7.5m-37.3-15.65l-.85-.45m1.2.6l36.95 18.5m-97.2-99.3q7.1 22.9 11 42.6M-44.35 0l-24.2-12.15m-78.5-93.2l192.25-96.1" fill="none" stroke="#2b2b2b" stroke-linecap="round" stroke-linejoin="round" transform="translate(214.7 223.35)"/><path d="M30.85-134.8v-.15M67.7-82.6v-.05m-52.1-19l1.4-.6M-7.9-44.1l-.5.25M60.4-74.3l.9-.45.65-.35m-1.8-11.3h-.05m-223.25-41.75h.05M-87.15-22.9l.5-.25.35.15" fill="none" stroke="#000" stroke-linecap="round" stroke-linejoin="round" transform="translate(214.7 223.35)"/><path d="M-23.85-121.4l-.6 1.45m-8.8 19.35q3.7-7.55 7.1-15.3l1.7-4.05m-66.4 91.35l-.25.15m81.95-138.7q-5.85 23.9-14.7 45.75M-88.8-27.25l.25-.2 4.05-2.9Q-80-34-73.95-40.5l3.3-3.6 1.3-1.45q4.6-5.3 9.15-11.3l4-5.5 4.2-6.1.3-.4q3.6-5.45 7.05-11.05l.95-1.6q5.45-9.15 10.25-18.75" fill="none" stroke="#2b2b2b" stroke-linecap="round" stroke-linejoin="round" transform="translate(214.7 223.35)"/><path d="M67.7-82.6q-.3.75-.95 1.1L60-78.1l-1.05.5-.2.1q-2.3 1.15-8.4 2.2-6.1 1.05-10.7.95-4.6-.15-16.95 10.7Q10.7-53.2 3.3-49.7l-11.2 5.6m68-42.3l-1.45.85-6.75 3.4-1.25.6q-2.3 1.15-8.4 2.2-6.1 1.05-10.7.95h-.65q-4.8.6-16.3 10.7Q6.65-60.75.7-56.85l-2.05 1.3" fill="none" stroke="#1d110e" stroke-linecap="round" stroke-linejoin="round" transform="translate(214.7 223.35)"/><path d="M-19.5 20.2l-1.25-.25M60.1-86.4l-2.35-3.05-4.65-3.9-7.75-5.4q-2.55-1.75-5.05-5.5-2.5-3.8-3.7-6.25-.55-1.05-.6-2.1-1.6-3.25-2.75-6.25l-.85-2.3-.65-1.9m-1.65-5.45q.75 2.8 1.65 5.45m34.15 39.5l1.8.9m-1.8-.9l-5.75-2.85" fill="none" stroke="#1d0e0e" stroke-linecap="round" stroke-linejoin="round" transform="translate(214.7 223.35)"/><path d="M15.6-101.65l-39.45-19.75m-45.5 75.85L-29.8-25.7m25.55-35.95L-43.7-81.5" fill="none" stroke="#353535" stroke-linecap="round" stroke-linejoin="round" transform="translate(214.7 223.35)"/><path d="M68.35-78.3l-1.6.8-4.8 2.4.15 38.85.05 10.95v7.4l-1.7.45-1.75.4q-6.5 1.3-6.6-1.8v-4.55m-64.35 34.6v8.15q-4.75 1.15-7.25.85m-1.25-.25q-1.5-.6-1.55-2.05v-3.4m90.65-92.8l-.65-4.3m-9.2 9.25l.25-.15.2-.1 1.05-.5m-7.9 2.5q4.2-.85 6.2-1.7l.2-.05m-22.05 3.8q1.9-.85 3.2-.8 4.6.1 10.7-.95l1.75-.3v48.2m-64.35-14.55l15.05-7.5q7.5-3.35 19.9-14.2l4.6-3.85q3.15-2.55 5.65-4.1l3.5-1.95m-48.7 32.25v48.5M-22.3-23.85V14.5" fill="none" stroke="#540c0c" stroke-linecap="round" stroke-linejoin="round" transform="translate(214.7 223.35)"/><path d="M-47.35-5.7l3 5.7 2.9-2.55q3.1-2.85 6.8-6.8 6.2-6.6 12.3-14.45h.05v-.05l.65-.85.9-1.2 1.25-1.7 1.05-1.45 5.75-8.25.45-.65 3.85-5.9.35-.55 3.25-5.35 3.45-5.8L0-58q.55-1.05 3.75-4.75 3.15-3.75 5.3-9.3 2.15-5.6 6.45-8.65l.6-.5q4-3.7 8.1-17.65l1.9-7.2.4-1.8.2-.75 1.15-5.55 2.25-14.35.05-.25.7-6.05m-43.1 97.5v-.65" fill="none" stroke="#3c261c" stroke-linecap="round" stroke-linejoin="round" transform="translate(214.7 223.35)"/></g><g id="shape5"><path d="M2.2-38.5l-.7-.2q.35-1.9 2.55-2.9 1.75-.8 3.4-.8.55 0 .9.35l.5.65-.35 2.15-.4.35q-1.2.9-3.35.9-1.4 0-2.55-.5M4.55-4.4L3.1-4.6q-.5-.1-.9-.3v-16.8l.5.2.6.15.95.15h.3v16.8m-12.8-29.7l-.7-.2q.35-1.9 2.55-2.9Q-4.65-38-3-38q.55 0 .9.35l.5.65-.35 2.15-.4.35q-1.2.9-3.35.9-1.4 0-2.55-.5m0 17.9v-1.1l.5.2.6.15.95.15h.3V0l-1.45-.2-.9-.3v-15.7" fill="#8c7a48" fill-rule="evenodd" transform="translate(9.45 42.9)"/><path d="M2.2-38.5q1.15.5 2.55.5 2.15 0 3.35-.9l.4-.35v30.6l.35.8Q9.3-6.2 8.1-5.3q-1.2.9-3.35.9h-.2v-16.8h-.3l-.95-.15-.6-.15-.5-.2.5.2-.5-.2v-16.8m6.3 16.05l-.4.35q-1.2.9-3.35.9h-.2.2q2.15 0 3.35-.9l.4-.35M-8.25-34.1q1.15.5 2.55.5 2.15 0 3.35-.9l.4-.35v16.8l-.4.35q-1.2.9-3.35.9h-.2.2q2.15 0 3.35-.9l.4-.35v13.8l.35.8q.45 1.65-.75 2.55-1.2.9-3.35.9h-.2v-16.8h-.3l-.95-.15-.6-.15-.5-.2v-16.8m.5 17l-.5-.2.5.2" fill="#96834b" fill-rule="evenodd" transform="translate(9.45 42.9)"/><path d="M8.5-39.25l.35-2.15-.5-.65q-.35-.35-.9-.35-1.65 0-3.4.8-2.2 1-2.55 2.9l.7.2q1.15.5 2.55.5 2.15 0 3.35-.9l.4-.35q.7-.85.35-2.15M2.2-24.95V-38.5m6.3-.75v13.8q.9 1.85 0 3v13.8l.35.8Q9.3-6.2 8.1-5.3q-1.2.9-3.35.9h-.2L3.1-4.6l-1.3-.3.4-1.35V-21.7l-.1-.05q-.55-.15-.55-.9t.65-.95v-1.3m0 3.2l.5.2.6.15.95.15h.5q2.15 0 3.35-.9l.4-.35v-3M2.2-21.7v-1.9m.5 2.1l-.5-.2m.9 17.1q-.5-.1-.9-.3v-1.35m-4.15-28.6L-1.6-37l-.5-.65Q-2.45-38-3-38q-1.65 0-3.4.8-2.2 1-2.55 2.9l.7.2q1.15.5 2.55.5 2.15 0 3.35-.9l.4-.35q.7-.85.35-2.15m-6.65 17.8v3m0-4.35v1.35q-.65.2-.65.95t.55.9l.1.05.5.2.6.15.95.15h.5q2.15 0 3.35-.9l.4-.35v-16.8m-6.3 17.55l.5.2m5.8-.95q.9-1.15 0-3m-6.3 19.2l-.4 1.35q.95.4 1.3.3l-.9-.3v-15.7m6.3-1.85v13.8l.35.8q.45 1.65-.75 2.55-1.2.9-3.35.9h-.2l-1.45-.2m-.9-20.35V-34.1" fill="none" stroke="#4e4d2c" stroke-linecap="round" stroke-linejoin="round" transform="translate(9.45 42.9)"/></g><use height="81.15" width="138.7" xlink:href="#shape1" id="sprite1"/><use height="51.9" transform="translate(0 3.35)" width="59.65" xlink:href="#shape2" id="sprite2"/><use height="56.85" width="19.6" xlink:href="#shape3" id="sprite3"/><use height="244.2" width="315.25" xlink:href="#shape4" id="sprite4"/><use height="43.4" width="18.9" xlink:href="#shape5" id="sprite5"/></defs></svg>