<svg xmlns:xlink="http://www.w3.org/1999/xlink" height="52.9" width="38.8" xmlns="http://www.w3.org/2000/svg"><g transform="translate(37.45 60.4)"><use height="43.4" transform="translate(-37.45 -50.9)" width="18.9" xlink:href="#a"/><use height="43.4" transform="translate(-17.55 -60.4)" width="18.9" xlink:href="#a"/></g><defs><use height="43.4" width="18.9" xlink:href="#b" id="a"/><g id="b"><path d="m2.2-38.5-.7-.2q.35-1.9 2.55-2.9 1.75-.8 3.4-.8.55 0 .9.35l.5.65-.35 2.15-.4.35q-1.2.9-3.35.9-1.4 0-2.55-.5M4.55-4.4 3.1-4.6q-.5-.1-.9-.3v-16.8l.5.2.6.15.95.15h.3v16.8m-12.8-29.7-.7-.2q.35-1.9 2.55-2.9Q-4.65-38-3-38q.55 0 .9.35l.5.65-.35 2.15-.4.35q-1.2.9-3.35.9-1.4 0-2.55-.5m0 17.9v-1.1l.5.2.6.15.95.15h.3V0l-1.45-.2-.9-.3v-15.7" fill="#8c7a48" fill-rule="evenodd" transform="translate(9.45 42.9)"/><path d="M2.2-38.5q1.15.5 2.55.5 2.15 0 3.35-.9l.4-.35v30.6l.35.8Q9.3-6.2 8.1-5.3q-1.2.9-3.35.9h-.2v-16.8h-.3l-.95-.15-.6-.15-.5-.2.5.2-.5-.2v-16.8m6.3 16.05-.4.35q-1.2.9-3.35.9h-.2.2q2.15 0 3.35-.9l.4-.35M-8.25-34.1q1.15.5 2.55.5 2.15 0 3.35-.9l.4-.35v16.8l-.4.35q-1.2.9-3.35.9h-.2.2q2.15 0 3.35-.9l.4-.35v13.8l.35.8q.45 1.65-.75 2.55-1.2.9-3.35.9h-.2v-16.8h-.3l-.95-.15-.6-.15-.5-.2v-16.8m.5 17-.5-.2.5.2" fill="#96834b" fill-rule="evenodd" transform="translate(9.45 42.9)"/><path d="m8.5-39.25.35-2.15-.5-.65q-.35-.35-.9-.35-1.65 0-3.4.8-2.2 1-2.55 2.9l.7.2q1.15.5 2.55.5 2.15 0 3.35-.9l.4-.35q.7-.85.35-2.15M2.2-24.95V-38.5m6.3-.75v13.8q.9 1.85 0 3v13.8l.35.8Q9.3-6.2 8.1-5.3q-1.2.9-3.35.9h-.2L3.1-4.6l-1.3-.3.4-1.35V-21.7l-.1-.05q-.55-.15-.55-.9t.65-.95v-1.3m0 3.2.5.2.6.15.95.15h.5q2.15 0 3.35-.9l.4-.35v-3M2.2-21.7v-1.9m.5 2.1-.5-.2m.9 17.1q-.5-.1-.9-.3v-1.35m-4.15-28.6L-1.6-37l-.5-.65Q-2.45-38-3-38q-1.65 0-3.4.8-2.2 1-2.55 2.9l.7.2q1.15.5 2.55.5 2.15 0 3.35-.9l.4-.35q.7-.85.35-2.15m-6.65 17.8v3m0-4.35v1.35q-.65.2-.65.95t.55.9l.1.05.5.2.6.15.95.15h.5q2.15 0 3.35-.9l.4-.35v-16.8m-6.3 17.55.5.2m5.8-.95q.9-1.15 0-3m-6.3 19.2-.4 1.35q.95.4 1.3.3l-.9-.3v-15.7m6.3-1.85v13.8l.35.8q.45 1.65-.75 2.55-1.2.9-3.35.9h-.2l-1.45-.2m-.9-20.35V-34.1" fill="none" stroke="#4e4d2c" stroke-linecap="round" stroke-linejoin="round" transform="translate(9.45 42.9)"/></g></defs></svg>