<svg xmlns="http://www.w3.org/2000/svg" xmlns:xlink="http://www.w3.org/1999/xlink" height="182" width="160"><defs><path d="M.7-.3l1.85 2.2H1.5L.05.7-1.4 1.9h-1.05l1.9-2.2H.7" fill-rule="evenodd" transform="translate(2.45 .3)" id="a"/><use height="2.2" width="5" xlink:href="#a" id="c"/><g id="b"><path d="M-15.5-41.55q-2.65-3.1-2.5-7.1-.15-5.3 5.35-9.8Q-7.15-63.5.5-64q7.6.5 13.05 5.55 5.45 4.5 5.45 9.8 0 4-2.6 7.1h.1-.05L13.9-38.5l-.05-.1-.8.05.65 9.65h.15l.25.75.2.5.2.4-.15.45-.3.75-.2.35q-.6.55-1.1.75l-.15.1h-.5q-1.6.3-2.1-.6-1.15-.45-.95-1.9l.4-1.4v-.05l.15-.05-.45-6.45-1.35.1.45 6.3-.5 2q.25 1.65 1.3 2.4-.25.35.15.15 1.1 1.35 3.05.85l.25.05h.2l-.05.45h-.05l-.35 4.2-1.05 4.1-1.65 4v.05H8.4v5.2Q8.35-4.1 7.6-3.2q-.65.75-1.7.75-1 0-1.7-.75-.8-.9-.8-2.25v-5.2H2.1v-1.2h-.3V-12l-.9-1.55h-2.45l-1.55 1.7v1.2h-1.2v5.2q-.05 1.35-.8 2.25-.7.75-1.7.75t-1.75-.75q-.75-.9-.75-2.25v-5.2h-1.2L-12.1-13l.1-.1q-1.8-1.9-2.15-4.15l-.1-1.2.05-.95.55-1.85h.1v-.55l.15-.15v-1.35h-.05l-.05-.8v-2.05l-.2-.65-.15-.45.15-.4.25-.5.25-.75h.1l.7-9.65-.85-.05-.4-.05v-.15l-2.05-2.75h.2m1.75 19.65l-.05-.1.05.1m3.7-6.55l-.05-.05v.05h.05" fill="#fff" fill-rule="evenodd" transform="translate(18.6 64.6)"/><path d="M13.9-38.5l.8 4.5.15 1.95.05-.05v.1l.2 2.65v.35H15v.1l.6 1.1q-.05.25.15.3.3 1.6-.6 2.45l-.15.2q-.15-.05-.2.1l-.25.25-.55.5q-.65.5-1.3.55h-.2l-.25-.05q-1.95.5-3.05-.85-.4.2-.15-.15-1.05-.75-1.3-2.4l.5-2-.45-6.3 1.35-.1.45 6.45-.15.05v.05l-.4 1.4q-.2 1.45.95 1.9.5.9 2.1.6h.5l.15-.1q.5-.2 1.1-.75l.2-.35.3-.75.15-.45-.2-.4-.2-.5-.25-.75h-.15l-.65-9.65.8-.05.05.1M9.55-10.65v5.2q0 1.95-1 3.1Q7.45-1.1 5.9-1.1q-1.5 0-2.65-1.25-1.05-1.15-1-3.1v-5.2H3.4v5.2q0 1.35.8 2.25.7.75 1.7.75 1.05 0 1.7-.75.75-.9.8-2.25v-5.2h1.15m-12.7 0v5.2q0 1.95-1.05 3.1Q-5.3-1.1-6.8-1.1t-2.65-1.25q-1.05-1.15-1.05-3.1v-5.2h1.2v5.2q0 1.35.75 2.25.75.75 1.75.75t1.7-.75q.75-.9.8-2.25v-5.2h1.15M-13.5-24.1l-.45-.4-.2-.25-.2-.1-.2-.2q-.9-.85-.55-2.45.15-.05.15-.3l.55-1.1.05-.1h-.1l-.05-.35h.05l.2-2.65v-.1l.05.05.1-1.95.85-4.6.85.05-.7 9.65h-.1l-.25.75-.25.5-.15.4.15.45.2.65v2.05" fill-rule="evenodd" transform="translate(18.6 64.6)"/><path d="M3.1 23.05q-2.65-3.1-2.5-7.1-.15-5.3 5.35-9.8Q11.45 1.1 19.1.6q7.6.5 13.05 5.55 5.45 4.5 5.45 9.8 0 4-2.6 7.1" fill="none" stroke="#000" stroke-linecap="round" stroke-linejoin="round" stroke-width="1.2"/></g></defs><g transform="matrix(2 0 0 2 82.641 144.2)"><ellipse cx="21.178" cy="56.33" ry="3.4" rx="4.25" transform="scale(1 -1) rotate(30)" fill-rule="evenodd"/><use height="63.5" transform="translate(-18.6 -64.6)" width="38.2" xlink:href="#b"/><ellipse cx="49.706" cy="14.827" rx="6" ry="4" transform="scale(1 -1) rotate(60)" fill-rule="evenodd"/><use height="2.2" transform="translate(10.35 -53.3)" width="5" xlink:href="#c" fill="#fff"/><ellipse cx="36.27" cy="-48.194" ry="4" rx="5" transform="rotate(-30)" fill-rule="evenodd"/><path d="M-12.4-38.55l8.58 1.45 16.87-1.45.8 9.65.65 1.65c.154.601.033 1.14-.65 1.55.228 1.159-.702 1.069-1.75.85-1.886.68-2.051.083-2.1-.6-.952.233-1.017-.702-1.072-1.65l.522-1.7-1.27-2.3-12-2.5-9.122 2.5-.158 2.2-.4 2.75-.35-1.1z" stroke="#000" stroke-width=".001"/><path d="M-3.82-15.032a1.3 1.462 0 01-1.84 0 1.3 1.462 0 010-2.068 1.3 1.462 0 011.84 0" fill="#fff" fill-rule="evenodd" stroke="#999" stroke-width=".325"/></g><path d="M76.04 122.9h.401v-2.4l-17.8-2.5-.2.2 3.2 4.7.037 11.1c2.203 2.317 3.121 6.173 6.885 6 4.269-.499 5.244-3.76 7.437-6zM87.141 122.9h-.3v-2.4l17.727-4.5-2.827 6.8-.306 11.2c-2.123 2.266-2.785 5.958-7.435 5.753-3.122-.067-4.703-3.05-6.77-5.753z" stroke="#000" stroke-width=".001"/></svg>