<svg xmlns="http://www.w3.org/2000/svg" xmlns:xlink="http://www.w3.org/1999/xlink" height="411.8" width="760.3"><defs><linearGradient xlink:href="#a" id="D" gradientUnits="userSpaceOnUse" gradientTransform="matrix(.0009 -.005 .0137 .0025 -30.8 -191.6)" x1="-819.2" x2="819.2" spreadMethod="pad"/><linearGradient gradientTransform="matrix(.0009 -.005 .0137 .0025 -30.8 -191.6)" gradientUnits="userSpaceOnUse" id="a" spreadMethod="pad" x1="-819.2" x2="819.2"><stop offset="0" stop-color="#d0d0d0"/><stop offset=".282" stop-color="#fff"/><stop offset=".647" stop-color="#e9e9e9"/><stop offset="1" stop-color="#d5d5d5"/><stop offset="1" stop-color="#ae0202"/></linearGradient><linearGradient xlink:href="#b" id="E" gradientUnits="userSpaceOnUse" gradientTransform="matrix(-.0003 .0024 -.006 -.0007 -5.4 -187.5)" x1="-819.2" x2="819.2" spreadMethod="pad"/><linearGradient gradientTransform="matrix(-.0003 .0024 -.006 -.0007 -5.4 -187.5)" gradientUnits="userSpaceOnUse" id="b" spreadMethod="pad" x1="-819.2" x2="819.2"><stop offset="0" stop-color="#b1afa5"/><stop offset=".498" stop-color="#cac9c0"/><stop offset="1" stop-color="#a6a399"/><stop offset="1" stop-color="#ae0202"/></linearGradient><linearGradient xlink:href="#c" id="F" gradientUnits="userSpaceOnUse" gradientTransform="matrix(.0046 0 0 .005 .3 -204.5)" x1="-819.2" x2="819.2" spreadMethod="pad"/><linearGradient gradientTransform="matrix(.0046 0 0 .005 .3 -204.5)" gradientUnits="userSpaceOnUse" id="c" spreadMethod="pad" x1="-819.2" x2="819.2"><stop offset="0" stop-color="#b1afa5"/><stop offset=".498" stop-color="#cac9c0"/><stop offset="1" stop-color="#a6a399"/><stop offset="1" stop-color="#ae0202"/></linearGradient><linearGradient xlink:href="#d" id="G" gradientUnits="userSpaceOnUse" gradientTransform="matrix(.0046 0 0 .005 .3 -204.5)" x1="-819.2" x2="819.2" spreadMethod="pad"/><linearGradient gradientTransform="matrix(.0046 0 0 .005 .3 -204.5)" gradientUnits="userSpaceOnUse" id="d" spreadMethod="pad" x1="-819.2" x2="819.2"><stop offset="0" stop-color="#556073"/><stop offset=".498" stop-color="#828d9f"/><stop offset="1" stop-color="#575c71"/><stop offset="1" stop-color="#ae0202"/></linearGradient><linearGradient xlink:href="#e" id="H" gradientUnits="userSpaceOnUse" gradientTransform="matrix(.0046 0 0 .082 .25 -137.45)" x1="-819.2" x2="819.2" spreadMethod="pad"/><linearGradient gradientTransform="matrix(.0046 0 0 .082 .25 -137.45)" gradientUnits="userSpaceOnUse" id="e" spreadMethod="pad" x1="-819.2" x2="819.2"><stop offset="0" stop-color="#a9a9a9"/><stop offset=".498" stop-color="#c4c4c4"/><stop offset="1" stop-color="#9f9f9f"/><stop offset="1" stop-color="#ae0202"/></linearGradient><linearGradient xlink:href="#f" id="I" gradientUnits="userSpaceOnUse" gradientTransform="matrix(.0061 0 0 .0215 .25 -96.5)" x1="-819.2" x2="819.2" spreadMethod="pad"/><linearGradient gradientTransform="matrix(.0061 0 0 .0215 .25 -96.5)" gradientUnits="userSpaceOnUse" id="f" spreadMethod="pad" x1="-819.2" x2="819.2"><stop offset="0" stop-color="#a9a9a9"/><stop offset=".498" stop-color="#c4c4c4"/><stop offset="1" stop-color="#9f9f9f"/><stop offset="1" stop-color="#ae0202"/></linearGradient><linearGradient xlink:href="#g" id="J" gradientUnits="userSpaceOnUse" gradientTransform="matrix(.0046 0 0 .082 .25 -177.45)" x1="-819.2" x2="819.2" spreadMethod="pad"/><linearGradient gradientTransform="matrix(.0046 0 0 .082 .25 -177.45)" gradientUnits="userSpaceOnUse" id="g" spreadMethod="pad" x1="-819.2" x2="819.2"><stop offset="0" stop-color="#b1afa5"/><stop offset=".498" stop-color="#cac9c0"/><stop offset="1" stop-color="#a6a399"/><stop offset="1" stop-color="#ae0202"/></linearGradient><linearGradient xlink:href="#h" id="K" gradientUnits="userSpaceOnUse" gradientTransform="matrix(.0046 0 0 .082 .25 -177.45)" x1="-819.2" x2="819.2" spreadMethod="pad"/><linearGradient gradientTransform="matrix(.0046 0 0 .082 .25 -177.45)" gradientUnits="userSpaceOnUse" id="h" spreadMethod="pad" x1="-819.2" x2="819.2"><stop offset="0" stop-color="#a9a9a9"/><stop offset=".498" stop-color="#c4c4c4"/><stop offset="1" stop-color="#9f9f9f"/><stop offset="1" stop-color="#ae0202"/></linearGradient><linearGradient xlink:href="#i" id="L" gradientUnits="userSpaceOnUse" gradientTransform="matrix(.0046 0 0 .082 .25 -157.45)" x1="-819.2" x2="819.2" spreadMethod="pad"/><linearGradient gradientTransform="matrix(.0046 0 0 .082 .25 -157.45)" gradientUnits="userSpaceOnUse" id="i" spreadMethod="pad" x1="-819.2" x2="819.2"><stop offset="0" stop-color="#a9a9a9"/><stop offset=".498" stop-color="#c4c4c4"/><stop offset="1" stop-color="#9f9f9f"/><stop offset="1" stop-color="#ae0202"/></linearGradient><linearGradient xlink:href="#j" id="M" gradientUnits="userSpaceOnUse" gradientTransform="matrix(.0061 0 0 .0215 .25 -96.5)" x1="-819.2" x2="819.2" spreadMethod="pad"/><linearGradient gradientTransform="matrix(.0061 0 0 .0215 .25 -96.5)" gradientUnits="userSpaceOnUse" id="j" spreadMethod="pad" x1="-819.2" x2="819.2"><stop offset="0" stop-color="#b1afa5"/><stop offset=".498" stop-color="#cac9c0"/><stop offset="1" stop-color="#a6a399"/><stop offset="1" stop-color="#ae0202"/></linearGradient><linearGradient xlink:href="#k" id="N" gradientUnits="userSpaceOnUse" gradientTransform="matrix(.0061 0 0 .055 .25 -39)" x1="-819.2" x2="819.2" spreadMethod="pad"/><linearGradient gradientTransform="matrix(.0061 0 0 .055 .25 -39)" gradientUnits="userSpaceOnUse" id="k" spreadMethod="pad" x1="-819.2" x2="819.2"><stop offset="0" stop-color="#a9a9a9"/><stop offset=".498" stop-color="#c4c4c4"/><stop offset="1" stop-color="#9f9f9f"/><stop offset="1" stop-color="#ae0202"/></linearGradient><linearGradient xlink:href="#l" id="O" gradientUnits="userSpaceOnUse" gradientTransform="matrix(.0061 0 0 .0292 .25 -21.3)" x1="-819.2" x2="819.2" spreadMethod="pad"/><linearGradient gradientTransform="matrix(.0061 0 0 .0292 .25 -21.3)" gradientUnits="userSpaceOnUse" id="l" spreadMethod="pad" x1="-819.2" x2="819.2"><stop offset="0" stop-color="#b1afa5"/><stop offset=".498" stop-color="#cac9c0"/><stop offset="1" stop-color="#a6a399"/><stop offset="1" stop-color="#ae0202"/></linearGradient><linearGradient xlink:href="#m" id="P" gradientUnits="userSpaceOnUse" gradientTransform="matrix(.0046 0 0 .082 .25 -177.45)" x1="-819.2" x2="819.2" spreadMethod="pad"/><linearGradient gradientTransform="matrix(.0046 0 0 .082 .25 -177.45)" gradientUnits="userSpaceOnUse" id="m" spreadMethod="pad" x1="-819.2" x2="819.2"><stop offset="0" stop-color="#556073"/><stop offset=".498" stop-color="#828d9f"/><stop offset="1" stop-color="#575c71"/><stop offset="1" stop-color="#ae0202"/></linearGradient><linearGradient xlink:href="#n" id="Q" gradientUnits="userSpaceOnUse" gradientTransform="matrix(.0061 0 0 .055 .25 -39)" x1="-819.2" x2="819.2" spreadMethod="pad"/><linearGradient gradientTransform="matrix(.0061 0 0 .055 .25 -39)" gradientUnits="userSpaceOnUse" id="n" spreadMethod="pad" x1="-819.2" x2="819.2"><stop offset="0" stop-color="#7e4e4e"/><stop offset=".498" stop-color="#ac7979"/><stop offset="1" stop-color="#7e4e4e"/><stop offset="1" stop-color="#ae0202"/></linearGradient><linearGradient xlink:href="#o" id="R" gradientUnits="userSpaceOnUse" gradientTransform="matrix(.0061 0 0 .0215 .25 -96.5)" x1="-819.2" x2="819.2" spreadMethod="pad"/><linearGradient gradientTransform="matrix(.0061 0 0 .0215 .25 -96.5)" gradientUnits="userSpaceOnUse" id="o" spreadMethod="pad" x1="-819.2" x2="819.2"><stop offset="0" stop-color="#556073"/><stop offset=".498" stop-color="#828d9f"/><stop offset="1" stop-color="#575c71"/><stop offset="1" stop-color="#ae0202"/></linearGradient><linearGradient xlink:href="#a" id="U" gradientUnits="userSpaceOnUse" gradientTransform="matrix(.0009 -.005 .0137 .0025 -30.8 -191.6)" x1="-819.2" x2="819.2" spreadMethod="pad"/><linearGradient xlink:href="#b" id="V" gradientUnits="userSpaceOnUse" gradientTransform="matrix(-.0003 .0024 -.006 -.0007 -5.4 -187.5)" x1="-819.2" x2="819.2" spreadMethod="pad"/><linearGradient xlink:href="#c" id="W" gradientUnits="userSpaceOnUse" gradientTransform="matrix(.0046 0 0 .005 .3 -204.5)" x1="-819.2" x2="819.2" spreadMethod="pad"/><linearGradient xlink:href="#d" id="X" gradientUnits="userSpaceOnUse" gradientTransform="matrix(.0046 0 0 .005 .3 -204.5)" x1="-819.2" x2="819.2" spreadMethod="pad"/><linearGradient xlink:href="#e" id="Y" gradientUnits="userSpaceOnUse" gradientTransform="matrix(.0046 0 0 .082 .25 -137.45)" x1="-819.2" x2="819.2" spreadMethod="pad"/><linearGradient xlink:href="#f" id="Z" gradientUnits="userSpaceOnUse" gradientTransform="matrix(.0061 0 0 .0215 .25 -96.5)" x1="-819.2" x2="819.2" spreadMethod="pad"/><linearGradient xlink:href="#g" id="aa" gradientUnits="userSpaceOnUse" gradientTransform="matrix(.0046 0 0 .082 .25 -177.45)" x1="-819.2" x2="819.2" spreadMethod="pad"/><linearGradient xlink:href="#h" id="ab" gradientUnits="userSpaceOnUse" gradientTransform="matrix(.0046 0 0 .082 .25 -177.45)" x1="-819.2" x2="819.2" spreadMethod="pad"/><linearGradient xlink:href="#i" id="ac" gradientUnits="userSpaceOnUse" gradientTransform="matrix(.0046 0 0 .082 .25 -157.45)" x1="-819.2" x2="819.2" spreadMethod="pad"/><linearGradient xlink:href="#j" id="ad" gradientUnits="userSpaceOnUse" gradientTransform="matrix(.0061 0 0 .0215 .25 -96.5)" x1="-819.2" x2="819.2" spreadMethod="pad"/><linearGradient xlink:href="#k" id="ae" gradientUnits="userSpaceOnUse" gradientTransform="matrix(.0061 0 0 .055 .25 -39)" x1="-819.2" x2="819.2" spreadMethod="pad"/><linearGradient xlink:href="#l" id="af" gradientUnits="userSpaceOnUse" gradientTransform="matrix(.0061 0 0 .0292 .25 -21.3)" x1="-819.2" x2="819.2" spreadMethod="pad"/><linearGradient xlink:href="#m" id="ag" gradientUnits="userSpaceOnUse" gradientTransform="matrix(.0046 0 0 .082 .25 -177.45)" x1="-819.2" x2="819.2" spreadMethod="pad"/><linearGradient xlink:href="#n" id="ah" gradientUnits="userSpaceOnUse" gradientTransform="matrix(.0061 0 0 .055 .25 -39)" x1="-819.2" x2="819.2" spreadMethod="pad"/><linearGradient xlink:href="#o" id="ai" gradientUnits="userSpaceOnUse" gradientTransform="matrix(.0061 0 0 .0215 .25 -96.5)" x1="-819.2" x2="819.2" spreadMethod="pad"/><linearGradient id="al" gradientUnits="userSpaceOnUse" gradientTransform="matrix(-.00006 0 0 .0007 -30.25 -42.7)" spreadMethod="pad" x1="-819.2" y1="0" x2="819.2" y2="0"><stop offset="0" stop-color="#fcedc7"/><stop offset=".498" stop-color="#fff"/><stop offset="1" stop-color="#fae6af"/></linearGradient><use height="40.45" width="80.3" xlink:href="#p" id="w"/><use height="72.25" width="22.2" xlink:href="#q" id="x"/><use height="31.55" width="50.5" xlink:href="#r" id="z"/><use height="42.45" width="80.3" xlink:href="#s" id="A"/><use height="42" width="42" xlink:href="#t" id="aj"/><g id="p"><path d="M-12.75-13.75l.15-.05v.15l-.15-.1" fill="#c2c2c2" fill-rule="evenodd" transform="translate(40.3 20.25)"/><path d="M4.9 17.45l-5 2.5L-40.05-.1l5-2.5L4.9 17.45M-5.25-17.5l5-2.5 40 20-5 2.5-40-20" fill="#cac9c0" fill-rule="evenodd" transform="translate(40.3 20.25)"/><path d="M4.9 17.45L-35.05-2.6l10.5-5.25 3 1.5 8.95-4.45 2.85-1.45-2.85-1.4v-.15l7.35-3.7 40 20L4.9 17.45" fill="#b9b8ac" fill-rule="evenodd" transform="translate(40.3 20.25)"/><path d="M-12.6-10.8v-2.85l2.85 1.4-2.85 1.45" fill="#9b9a88" fill-rule="evenodd" transform="translate(40.3 20.25)"/><path d="M-24.55-7.85l11.8-5.9.15.1v2.85l-8.95 4.45-3-1.5" fill="#8d8c78" fill-rule="evenodd" transform="translate(40.3 20.25)"/><path d="M5.25 17.65l-5 2.5L40.2 40.2l5-2.5M27.55 6.5l.15-.05m7.35-3.7l5-2.5 40 20-5 2.5M27.7 6.6v-.15m0 .15l-.15-.1" fill="none" stroke="#737162" stroke-linecap="round" stroke-linejoin="round" stroke-width=".5"/><path d="M45.2 37.7L5.25 17.65l10.5-5.25 11.8-5.9m.15-.05l7.35-3.7 40 20L45.2 37.7M27.7 9.45l-8.95 4.45-3-1.5M27.7 6.6v2.85L30.55 8 27.7 6.6" fill="none" stroke="#666457" stroke-linecap="round" stroke-linejoin="round" stroke-width=".5"/></g><g id="r"><path d="M-40.05-4.1l10-5L9.9 10.95q-5 2.45-9.95 4.95l-.05.05L-40.05-4.1" fill="#cac9c0" fill-rule="evenodd" transform="translate(40.3 9.35)"/><path d="M-40.05-4.1L-.1 15.95h.05v-.05q4.95-2.5 9.95-4.95h.05L9.9 12.9l-.05.05h.1L9.9 14.9l-.5.25.45-.2h.05l.05-.05-.05 2-10 5.05L-40.05 1.9v-6M-.1 17.95h.05v-.05l-.05.05.05-2-.05 2m0 4l.05-2.05-.05.05.05-2-.05 2 .05-.05-.05 2.05" fill="#b9b8ac" fill-rule="evenodd" transform="translate(40.3 9.35)"/><path d="M-.1 15.95l.05-.05v.05H-.1m.05 2H-.1l.05-.05v.05" fill="#e7e6e0" fill-rule="evenodd" transform="translate(40.3 9.35)"/><path d="M9.9 14.9l-.05.05-.45.2.5-.25" fill="#dbdad0" fill-rule="evenodd" transform="translate(40.3 9.35)"/><path d="M50.2 20.3L10.25.25l-10 5L40.2 25.3l.05-.05q4.95-2.5 9.95-4.95l.05-.05v.05l-.05 1.95-.05.05h.05l.05-.05v.05l-.05 1.95-.05.05h.05l.05-.05-.05 2-10 5.05L.25 11.25v-6m40 20.05v-.05m-.05 2.05l.05-2m-.05 2l.05-.05v.05l-.05 2 .05-.05-.05 2.05" fill="none" stroke="#676767" stroke-linecap="round" stroke-linejoin="round" stroke-width=".5"/></g><g id="s"><path d="M29.75-5l9.95 5h.05l-.05.05-9.8 4.9-9.95-5L29.75-5m-69.8 4.9l10-5 10 5.05-10 5-10-5.05m30-15l9.8-4.9 10 5L.4-10.3l-.45.25-5.65-2.85-4.35-2.2M-.2-10l10 5 9.95 5-9.35 4.7-.5.25-.45.25-9.5 4.75 9.95 5q-5 2.45-9.95 4.95l-.05.05-9.95-5 10-5-10-5-10-5 10-5L-.2-10M39.7 0v.05V0M9.9 4.95l-9.95-5L9.8-5-.05-.05l9.95 5M.4-10.3l-.45.25.45-.25M-10.05 4.95l10-5-10-5 10 5-10 5" fill="#e7e6e0" fill-rule="evenodd" transform="translate(40.3 20.25)"/><path d="M9.75-15l10 5 10 5-9.8 4.95 9.95 5-10 5-10 5-9.95-5 9.5-4.75.5-.25H9.9l.5-.25-.45.25 9.95 5-9.95-5 .45-.25L19.75 0 9.8-5l-10-5 .15-.05-.15.05-9.85 4.95-10 5 10 5 10 5-10 5-10-5 10-5-10 5-10-5 10-5-10-5.05 10-5 10-5 4.35 2.2 5.65 2.85.45-.25L9.75-15m10 5L9.8-5l9.95-5M9.9 4.95h.05l-.5.25.45-.25M19.75 0l.2-.05-.2.05M-5.7-12.9L-.2-10l-5.5-2.9m-4.35 7.85l-10-5.05 10 5.05" fill="#dbdad0" fill-rule="evenodd" transform="translate(40.3 20.25)"/><path d="M39.7.05v1.9l-39.8 20L-40.05 1.9v-2l10 5.05 10 5 10 5 9.95 5h.05v-.05q4.95-2.5 9.95-4.95l10-5 10-5 9.8-4.9M-.1 21.95l.05-2-.05 2" fill="#99977b" fill-rule="evenodd" transform="translate(40.3 20.25)"/><path d="M50.05 5.25l10 5 10 5 9.95 5h.05l-.05.05v1.9l-39.8 20L.25 22.15v-2l10-5 10-5 10-5 9.8-4.9 10 5m-9.8 4.95l-.15.05M70.2 25.2l9.8-4.9v-.05M60.2 30.2l10-5m-10 5l-10 5q-5 2.45-9.95 4.95v.05l-.05 2m20.05-22l-.2.05M40.25 10.2l.45-.25M30.25 35.2l9.95 5 .05-.05m-20-9.95l10 5m-20-10l10 5m-10-5l-10-5.05" fill="none" stroke="#f4f4f2" stroke-linecap="round" stroke-linejoin="round" stroke-width=".5"/><path d="M50.05 5.25l-9.35 4.7m-.6.3l10 5 9.95-5m10 5l-9.8 4.95 9.95 5m-19.5-.25l-.45.25 9.95 5m-9.5-5.25l9.35-4.7-9.95-5-9.85 4.95 9.95 5m-.45.25l.5-.25h-.05m-.45.25l-9.5 4.75 9.95 5M30.25 5.15l4.35 2.2m5.5 2.9l-9.85 4.95 10 5-10 5 10 5-10 5m0-20l-10 5 10 5-10 5m0-20.05l10 5.05m9.85-4.95l-5.5-2.9m-24.35 7.8l10 5.05-10 5" fill="none" stroke="#f2f2ef" stroke-linecap="round" stroke-linejoin="round" stroke-width=".5"/></g><g id="S" fill="#fff" fill-rule="evenodd"><path d="M118.05 224.5l-.25.1 8.5 4.2L92.1 246h-.05l-17.1 8.6-12-6q25.85-12.95 51.65-25.95v.15l-.2.05 3.3 1.7.35-.2v.15" transform="translate(-32.1 -222.65)"/><path d="M112.6 264.95l-11.9 5.9h-.3l-8.4-4.2h-.05l-59.85-30.1 12-6 17.1 8.6.05-.05 51.35 25.85" transform="translate(-32.1 -222.65)"/></g><g id="t"><path d="M13.8-9.9l1.05 1.45-.35-.25-.65-.55h-.05v-.65m3.6 11.55l-.5 3.45-.35-.3-.05.05V2.3h.05l.85-.65M-8.8 16l-2.3-1.65.1-.1h.05L-8.8 16m-8.25-10.75q-.45-1.85-.55-3.8l1.05.8v2.6l-.5.4m1.85-13.4l1.45-2.05v.9l-1.45 1.15m20.7 13h.05L8.25 7v.25L5.4 5.05 5 5.5 2.85 7v-.05l2.65-2.1m2.75 4.2v.45l-2.7 2.15h-.1L5 11.3l3.25-2.25M-5.9 5.15l.4-.3h.05L-2.75 7v.3q-1.6-.55-2.85-1.8l-.3-.35m-1.35 5.15l2.05 1.15-.25.2h-.1l-1.7-1.35" fill="#dbd5d5" fill-rule="evenodd" transform="translate(21.1 20.25)"/><path d="M-5.5-15.95l-.05.05q-2.55.8-4.75 2.45h-.05l-2.1 1.85-1.25 1.35 1.25-1.35 2.1-1.85h.05q2.2-1.65 4.75-2.45v1.95l-2.65 2.1h.05l2.65-2.1h.05l2.7 2.15v2.5l-2.7 2.15h-.1L-7.5-8.7l1.95 1.55v2.6l-2.65 2.1h-.05l-2.7-2.15H-11v-2.5h.05l2.7-2.15h.05v-2.6h-.05v2.55l-2.7 2.15h-.1L-13-8.7l1.95 1.55v2.6l-2.65 2.1h.05l2.65-2.1h.05l2.7 2.15V.1l-2.7 2.15h-.1L-13 .7l1.95 1.55v2.6l-2.65 2.1h-.05l-2.7-2.15h-.05V2.3h.05l2.7-2.15h.05v-2.6h-.05l-2.7-2.15h-.05v-.9l-.05.1-.35 1.15q-.7 2.35-.7 5v.7-.7q0-2.65.7-5l.35-.3h.1l2.7 2.15V.1l-2.7 2.15h-.1l-1.05-.8q.1 1.95.55 3.8.7 2.7 2.3 5.05-1.6-2.35-2.3-5.05l.5-.4h.1l2.7 2.15v2.5l-1 .8v.05l2.3 2.75 1.3 1.25-1.3-1.25-2.3-2.75 1-.8h.05v-2.6h.05l2.65-2.1h.05L-8.4 6.9l.05-.05-2.6-2.05H-11V2.3h.05l2.7-2.15h.05l.7.55-.65-.55h-.05v-2.6h.05l2.65-2.1h.05l1.9 1.5-1.9-1.55h-.05v-2.5h.05l2.7-2.15h.05v-2.6h-.05L-5.45-14h-.05v-1.95l3.25-.65-3.25.65m7.75-.65h-4.5v2.4h2.2v.25l-2.65 2.1h.05L0-13.95h.05l2.7 2.15v2.5L.05-7.15h-.1L-2-8.7l1.95 1.55v2.6l-.05.05q-2 0-3.45 1.45L-3.6-3Q-5.05-1.55-5.05.5l.15 1.3-.55.45h-.1L-7.5.7l1.95 1.55v2.6l-.35.3.3.35q1.25 1.25 2.85 1.8h.05v-.35h.05l1.85-1.5.75.05.8-.05 2 1.55v.05q-1.4.6-3.05.65l-2.4-.4 2.4.4q1.65-.05 3.05-.65h.05L2.85 7 5 5.5l.4-.45 2.85 2.2.05.05v-.35h-.05L5.55 4.8H5.5V2.3h.05L8.25.15h.05v-2.6h-.05L5.55-4.6H5.5v-2.5h.05l2.7-2.15h.05l.7.55 1.95 1.55L9-8.7l-.65-.55H8.3v-2.6h-.05L5.55-14H5.5v-1.85l-.05-.05-3.2-.7 3.2.7v1.95l-2.65 2.1h.05l2.65-2.1h.05l2.7 2.15v2.5l-2.7 2.15h-.1L3.5-8.7l1.95 1.55v2.6l-.55.45.6-.45h.05l2.7 2.15V.1l-2.7 2.15h-.1l-.65-.5.65.5v2.6L2.8 6.95h-.05l-1.9-1.5q1.5-.25 2.65-1.4 1-1 1.3-2.3L4.95.5q0-2.05-1.45-3.5Q2.1-4.4.15-4.5l-.1-.1H0v-2.5h.05l2.7-2.15h.05l.7.55-.65-.55H2.8v-2.6h-.05L.05-14H0v-.2h2.25v-2.4m8 3.2q-2.2-1.65-4.75-2.45 2.55.8 4.75 2.45L8.3-11.85h.05l1.95-1.55h-.05m3.5 3.45L12.3-11.6l-2-1.8 2 1.8 1.45 1.65v.65l-2.7 2.15h-.1v2.6L8.3-2.45h.05L11-4.55h.05l2.7 2.15V.1l-2.7 2.15h-.1v2.6L8.3 6.95h.05L11 4.85h.05L13.75 7v2.5l-2.7 2.15h-.1v2.6L9.5 15.4l-1.4.85-2.55-2.05H5.5v-2.5h.05l2.7-2.15h.05l.7.55 1.95 1.55L9 10.1l-.65-.55H8.3V9l.25-.25.7-.75-.95-.7.95.7-.7.75L8.3 9l-.05.05L5 11.3l.45.35v2.6l-2.65 2.1h-.05L.05 14.2H0v-1.8h-.05v1.85l-2.65 2.1h.05L0 14.25h.05l2.7 2.15v.15H7.5 2.8v-.2h.05l2.65-2.1h.05l2.5 2.05.2.1.05-.05h.05L9.7 15.3l1.35-1.05 1.25-1.15 2.35-2.9q1.55-2.35 2.25-5.05-.7 2.7-2.25 5.05l-2.35 2.9-1.25 1.15v-.05H11v-2.5h.05l2.7-2.15h.05l.7.55-.65-.55h-.05v-2.6h.05l2.65-2.1h.05l.35.3V5.1l.5-3.45v-.9q0-2.75-.7-5.2.7 2.45.7 5.2v.85l-.85.65h-.1L14.5.7l1.95 1.55v2.6l-2.65 2.1h-.05l-2.7-2.15H11V2.3h.05l2.7-2.15h.05l.7.55-.65-.55h-.05v-2.6h.05l2.65-2.1h.05l.15.1-.05-.05-.15-.45-.05-.15q-.6-1.75-1.6-3.35 1 1.6 1.6 3.35v.55l-2.65 2.1h-.05l-2.7-2.15H11v-2.5h.05l2.7-2.15h.05l.7.55.35.25L13.8-9.9l-.05-.05M7.5 16.55l.55-.25-.55.25m-10.2 0h5.45-5.45v-.2h-.05l-2.7-2.15h-.05v-2.5h.05l.3-.25h-.05l-2.05-1.15-.25-.2-.65-.55h-.1V9.5l-.85-.75-.7-.75 1.4-1.1L-9.8 8l.7.75.85.75-2.7 2.15h-.1L-13 10.1l1.95 1.55v2.6l-.1.1h.05L-8.8 16l.55.4.05-.05h.05l.45.2h4.95-4.95l-.45-.2 2.65-2.1h.05l2.7 2.15v.15h.05M-15.3-8l-1.2 2.5 1.2-2.5 1.55-1.25h.05l.7.55-.65-.55h-.05v-1l-.05.05-1.45 2.05-.1.15m7.8-.7l-.65-.55h-.05l.7.55M8 19.15l-2.65.95-.8.2-4.1.5h-.8l-4.1-.45-3.3-1.05-.55-.25h-.05q-2.3-1.1-4.35-2.8l-.4-.35-1.05-1-.85-.9-1.5-1.85-.05-.05-.2-.3-.4-.6q-1.25-2.05-1.95-4.3-.95-2.9-.9-6.1V.7l.25-3.45q.5-2.95 1.85-5.5 1.15-2.35 3.05-4.4l.05-.05.65-.65q1.45-1.5 3.1-2.6L-11-16q1.75-1.2 3.7-1.9 3.35-1.35 7.3-1.3 3.9-.05 7.25 1.3 1.95.75 3.7 1.95H11l3.1 2.6.7.75 1.65 2.05L17.9-8.2v.05l.35.65 1.25 3.65.2 1.1.2 1.75.1 1.7v.1q-.05 3.2-.9 6.05v.05q-.75 2.3-2.05 4.35l-.05.1-.3.45-.2.25-.05.1-2.35 2.75-.25.25-.75.7v.05l-1.2.95-2.65 1.7-.85.45-.05-.05-.35.2m-18.35-32.6l2.1 1.65-2.1-1.65M-13 .7l-.65-.55h-.05l.7.55m11-9.4l-.65-.55h-.05l.7.55M-2.7-1l.55-.7q.85-.9 2.1-.85Q1.2-2.6 2.1-1.7l.65 1.05.05.1.15.7v.3q0 1.2-.85 2.1-.9.85-2.1.9h-.05q-1.25 0-2.1-.9-.9-.9-.9-2.1v-.1l.3-1.25.05-.1m2.6.5l-.05.15Q-.3.6-.6 1l-.5.4h-.05l-.35-.2-.1-.2-.05-.3.25-.95.7-.8.05-.15-.05-.2-.15-.05-.15.05-.85.95-.25 1.1.25.9.65.35q.2 0 .5-.2l.5-.5.35.5.35.2h.25q.5-.05.85-.5l.3-.55v-.1l.05-.3-.15-.9-.5-.9-.2-.1-.15.05-.1.15.05.15.45.8.15.7-.25.7-.5.3q-.4.05-.55-.35Q.05.65.3-.2L.25-.4.1-.5h-.2m5-3.6L3.5-3l1.4-1.1m9.75 14.3l-.15-.1.15.1M8.3.15L9 .7 8.35.15H8.3M2.85 7.7h-.1l-.2.05.65 2.1.25.9-.05.1-.3.05.15.3.35-.1q.25-.05.15-.3l-.5-1.75q.8 1 1.85 1.3l.1-.4q-.85-.2-1.5-.85l.6-.9.1-.1-.4-.15-.5.95-.5-.7-.15-.45V7.7m-.2 1.2l-.05-.2-.3-.05-.05.15-.85.25.1.3.85-.25v.7l-.05.1q-.1.7-.55 1.15l.25.25q.65-.7.7-1.7v-.05l-.05-.65M5 11.3q-2.3 1.05-5 1.1 2.7-.05 5-1.1M9 .7l1.95 1.55L9 .7M-4.9 1.85q.35 1.25 1.3 2.2 1.2 1.2 2.8 1.4l-1.9 1.5h-.05l-2.7-2.15h-.05V2.3h.05l.55-.45m-1 3.3l-.1-.1-2.35 1.8L-6 5.05l.1.1m5.85 7.25h-.2q-2.65 0-4.9-.95 2.25.95 4.9.95h.2M-8.2 9.55l.95.75 1.7 1.35v2.6l-2.65 2.1-.25-.15-2.5-2H-11v-2.5h.05l2.7-2.15h.05m2.1.25l.15.4.1-.1 1.1-.7-.2-.3-1.15.7m4.05-1.15l.1-.25-1.85-.8-.1.25.5.2-.3.55-.65-.3-.15.3.6.3-.6.85.25.15.2-.25.7.3.1.05.15.05-.5.7-.15.05-.4-.2-.15.3.5.2.35.05.85-1.25-.4-.15h-.05l-.8-.35.25-.4 1.4.65.15-.3-1.4-.65.35-.5 1.05.45M-4.7 8.5l-.35-.55-.3.2.35.6.3-.25m.2-1.3l-.35.2.35.55.3-.15-.3-.6m-8.5 2.9l-.65-.55h-.05l.7.55" fill="#826968" fill-rule="evenodd" transform="translate(21.1 20.25)"/><path d="M-3.55-3.05Q-2.1-4.5-.1-4.5h.25Q2.1-4.4 3.5-3 4.95-1.55 4.95.5L4.8 1.75q-.3 1.3-1.3 2.3Q2.35 5.2.85 5.45h-.1l-.8.05-.75-.05q-1.6-.2-2.8-1.4-.95-.95-1.3-2.2V1.8L-5.05.5q0-2.05 1.45-3.5l.05-.05M-2.7-1l-.05.1-.3 1.25v.1q0 1.2.9 2.1.85.9 2.1.9H0q1.2-.05 2.1-.9.85-.9.85-2.1v-.3l-.15-.7-.05-.1L2.1-1.7q-.9-.9-2.15-.85-1.25-.05-2.1.85l-.55.7m2.6.5h.2l.15.1.05.2Q.05.65.2 1.05t.55.35l.5-.3.25-.7-.15-.7-.45-.8-.05-.15.1-.15.15-.05.2.1.5.9.15.9-.05.3v.1l-.3.55q-.35.45-.85.5H.5l-.35-.2-.35-.5-.5.5q-.3.2-.5.2l-.65-.35-.25-.9.25-1.1.85-.95.15-.05.15.05.05.2-.05.15-.7.8-.25.95.05.3.1.2.35.2h.05l.5-.4q.3-.4.45-1.35L-.1-.5m2.95 8.2v.05L3 8.2l.5.7.5-.95.4.15-.1.1-.6.9q.65.65 1.5.85l-.1.4q-1.05-.3-1.85-1.3l.5 1.75q.1.25-.15.3l-.35.1-.15-.3.3-.05.05-.1-.25-.9-.65-2.1.2-.05h.1m-.2 1.2l.05.65v.05q-.05 1-.7 1.7l-.25-.25q.45-.45.55-1.15l.05-.1v-.7l-.85.25-.1-.3.85-.25.05-.15.3.05.05.2m-8.75.9l1.15-.7.2.3-1.1.7-.1.1-.15-.4m4.05-1.15L-3.1 8.2l-.35.5 1.4.65-.15.3L-3.6 9l-.25.4.8.35H-3l.4.15-.85 1.25-.35-.05-.5-.2.15-.3.4.2.15-.05.5-.7-.15-.05-.1-.05-.7-.3-.2.25-.25-.15.6-.85-.6-.3.15-.3.65.3.3-.55-.5-.2.1-.25 1.85.8-.1.25M-4.5 7.2l.3.6-.3.15-.35-.55.35-.2m-.2 1.3l-.3.25-.35-.6.3-.2.35.55" fill="#614f4e" fill-rule="evenodd" transform="translate(21.1 20.25)"/><path d="M-2.25-16.6h4.5v2.4h-4.5v-2.4" fill="#6c5857" fill-rule="evenodd" transform="translate(21.1 20.25)"/><path d="M-8.25-18.7l.8-.3q3.4-1.3 7.35-1.25 4.15-.05 7.7 1.4l.6.2.25.1 1 .5 2 1.2q1.75 1.15 3.3 2.75l.85.85.85 1.05 1.9 2.8.3.55.05.05.5 1.05.1.25 1.15 3.65.1.45.3 2.4.05 1.75v.65l-.55 4.25-.1.55v.05l-.1.3-.85 2.4-.05.1-.15.45-.15.25-.05.1q-1 1.95-2.4 3.8l-1.3 1.5-.45.45-.1.1-.1.1-.65.6-.1.1-.05.05L11.9 18l-.8.55-1.9 1.1-3.5 1.3-.25.1h-.1l-5.45.7-4.3-.4-1.05-.25-1.2-.35q-1.35-.4-2.55-1l-3.5-2.15-1-.85-.05-.05-1.2-1.1-.45-.5-.2-.2-.7-.85-.05-.05-.15-.15-.05-.05q-1.3-1.55-2.2-3.3l-.45-.95-.05-.05-.25-.65-.95-2.8q-.55-2.15-.6-4.5l-.05-.8q0-2.25.4-4.25.55-2.9 1.9-5.45 1.1-2.1 2.8-4l.3-.35.05-.05.7-.75q1.6-1.65 3.4-2.8l2.4-1.4.85-.35.05-.05M8.4 19l.85-.45 2.65-1.7 1.2-.95v-.05l.75-.7.25-.25 2.35-2.75.05-.1.2-.25.3-.45.05-.1q1.3-2.05 2.05-4.35v-.05Q19.95 4 20 .8V.7L19.9-1l-.2-1.75-.2-1.1-1.25-3.65-.35-.65v-.05l-1.45-2.35-1.65-2.05-.7-.75-3.1-2.6h-.05q-1.75-1.2-3.7-1.95Q3.9-19.25 0-19.2q-3.95-.05-7.3 1.3-1.95.7-3.7 1.9l-.05.05q-1.65 1.1-3.1 2.6l-.65.65-.05.05q-1.9 2.05-3.05 4.4-1.35 2.55-1.85 5.5L-20 .7v.1q-.05 3.2.9 6.1.7 2.25 1.95 4.3l.4.6.2.3.05.05L-15 14l.85.9 1.05 1 .4.35q2.05 1.7 4.35 2.8h.05l.55.25 3.3 1.05 4.1.45h.8l4.1-.5.8-.2L8 19.15l.4-.15" fill="#504241" fill-rule="evenodd" transform="translate(21.1 20.25)"/><path d="M-5.55-15.9l.05-.05 3.25-.65h4.5l3.2.7.05.05q2.55.8 4.75 2.45h.05l2 1.8 1.45 1.65.05.05 1.05 1.45q1 1.6 1.6 3.35l.05.15.15.45.05.05q.7 2.45.7 5.2v.9l-.5 3.45v.05q-.7 2.7-2.25 5.05l-2.35 2.9-1.25 1.15L9.7 15.3l-1.35 1.05H8.3l-.05.05-.2-.1-.55.25m-15.65-.2h-.05l-.05.05-.55-.4-2.3-1.65h-.05l-1.3-1.25-2.3-2.75v-.05q-1.6-2.35-2.3-5.05-.45-1.85-.55-3.8v-.7q0-2.65.7-5l.35-1.15.05-.1 1.2-2.5.1-.15 1.45-2.05.05-.05 1.25-1.35 2.1-1.85h.05q2.2-1.65 4.75-2.45v1.95h.05v-2m0 2l.05-.05m2.7 4.7v-2.5l-2.7-2.15h-.05l-2.65 2.1h-.05v2.6h.05l.65.55 1.95 1.55h.1l2.7-2.15v.05h.05v-2.6l-.05.05v-.05L-5.45-14m5.4-.2h-2.2v-2.4m2.2 2.4v.25H0v-.25h-.05m-13.7 4.9v.05-.95m0 .95h.05v-1m.7 1.55l-.7-.55h-.05L-15.3-8m1.6-1.25h.05l.65.55 1.95 1.55h.1l2.7-2.15v-2.5l-2.1-1.65m-.7 6.3l.05.05v-.05m.05.05H-11v2.5m.05 0l2.7 2.15h.05l2.65-2.1v-2.6l.05.05v-.05m-11 2.6h.05l2.7 2.15v-.05l-2.7-2.15-.05.05h-.05l-.35.3m.4-.3h-.05v-.85m.05.8v.05m0-.95v.9m5.55 0l-.05.05h.05l2.7 2.15v-.05m-2.8-2.1h.05v-.05m0 .05l-2.65 2.1h-.05v2.6h.05l.65.55 1.95 1.55h.1L-8.25.1v-2.5m-5.45-.05h-.05m0 .05l.05-.05 2.65-2.1v-2.6m-2.7 4.75V.15h.05l.7.55m-2.2-8.85l1.45-1.15m11.05-2.55h-.05m.05 0h.05L0-13.95.05-14m-2.8 4.75h.1l.65.55 1.95 1.55h.1l2.7-2.15v-2.5l-2.7-2.15H0M-2.75-9.3v.05m.05 0l.7.55m-6.25-3.1l.05-.05h-.05v.05m0 2.55h.05-.05l-2.7 2.15m5.45 0h.05l2.7-2.15M-5.5-7.1v2.5m.05 0l1.9 1.55Q-2.1-4.5-.1-4.5l.05-.05v-2.6L0-7.1v-.05m-8.2-2.1l.7.55m-.75-.6v.05-.05m2.75 4.75h.05l1.9 1.5m-1.95-1.5l-2.65 2.1h-.05v2.6h.05l.65.55 1.95 1.55h.1l.55-.45-.15-1.3q0-2.05 1.45-3.5l.05-.05m-2-1.5h.05v-.05m0 .05l.05-.05M-8.2-2.45l-.05.05M-.1-4.5l.1-.05h-.05m-.05.05h.2l-.05-.05H0V-7.1h.05l2.7-2.15v-.05M-2.7-1l.55-.7q.85-.9 2.1-.85Q1.2-2.6 2.1-1.7l.65 1.05.05.1.15.7v.3q0 1.2-.85 2.1-.9.85-2.1.9h-.05q-1.25 0-2.1-.9-.9-.9-.9-2.1v-.1l.3-1.25.05-.1m2.65-12.95l-2.65 2.1m-5.5 0l2.65-2.1m7.8-2.65v2.4H0m5.5.2v.05l.05-.05 2.7 2.15h.05l1.95-1.55m-4.75-.55h-.05l-2.65 2.1h.05l2.65-2.1h.05l2.7 2.15v-.05m-2.8-2.1v-1.95m.05.05V-14m2.75 2.2l.05-.05h.05l1.95-1.55M8.25-9.3v.05-2.55m-2.7 4.7H5.5v2.5m.05 0l2.7 2.15h.05l2.65-2.1v-2.6L9-8.7l-.7-.55h-.05L5.55-7.1m-.1-.05l.05.05v-.05h-.05L3.5-8.7l-.7-.55h-.05v-.05m5.5 0l-2.7 2.15H5.5m2.75-2.1h.05v-2.6m0 2.6h.05L9-8.7m-6.25-3.1v-.05L.05-14m2.7 2.2l.05-.05h-.05M3.5-8.7l-.65-.55h-.1m.05-2.6v2.6M0-4.55l.05-.05.1.1Q2.1-4.4 3.5-3l1.4-1.1.55-.45v-2.6M.1-4.5h.05m5.35-.05l-.6.45m.55-.45h.05v-.05m.05 0l-.05.05h.05l2.7 2.15v-.05m0 .05l.05-.05h.05L11-4.55h-.05M8.25-2.4V.15h.05v-2.6m5.45-6.85v-.65M11-7.1l-.05-.05h.1l2.7-2.15v.05-.05M11-7.15v.05h.05l2.7-2.15h.05v-.65m.7 1.2l.35.25m-1.05-.8h.05l.65.55-.7-.55h-.05m0 6.85l-2.7-2.15H11V-7.1m0 2.55l.05-.05m2.7 2.2v-.05l-2.7-2.15m2.7 2.15h.05l2.65-2.1v-.55M13.8-2.45l-.05.05V.15h.1l.65.55 1.95 1.55h.1l.85-.65m-.7-6.05l-.15-.1h-.05l-2.65 2.1h-.05v2.6h-.05l-2.7 2.15m5.6-6.8l-.1-.1-.05.05v-.4m-.05.4h.05m.9 6.2l-.85.65h-.05v2.55l.05-.05.35.3m-.45-2.85l.05.05v-.05m-.05 2.6h.1l.35.3m-.4-.3l-2.65 2.1h-.05v2.6h.05l.65.55.15.1m-3.6-5.4l2.7 2.15h.05l2.65-2.1v-2.6M14.5.7l-.7-.55M11 2.3v2.5m.05 0l-.05.05h.05L13.75 7v-.05m0-6.85v.05m0-.05l-2.7 2.15H11v.05h.05M11 2.25h-.05l.05.05m0 2.55h-.05L8.3 6.95h.05L11 4.85V4.8m-.05-2.55v2.6M13.75 7l.05-.05M11 11.7l-.05-.05v2.6H11v-2.6h-.05L9 10.1l-.7-.55h-.05l-2.7 2.15H5.5v2.5m5.55-2.5H11m-5.45 2.5l2.55 2.05 1.4-.85 1.45-1.15m.05-2.6h.05l2.7-2.15V7m0 2.55h.05-.05l-2.7 2.15m2.7-2.2v.05-.05m.75.6l-.7-.55M8.3.15L9 .7 8.35.15h-.1L5.55 2.3m-.05 0v2.55l.05-.05 2.7 2.15h.05v.35l.95.7-.7.75L8.3 9v.55h.05l.65.55M8.25.1v.05m0-.05l-2.7 2.15H5.5v.05h.05m-.1-.05l.05.05m0-.05h-.05l-.65-.5q-.3 1.3-1.3 2.3Q2.35 5.2.85 5.45l1.9 1.5h.05l2.65-2.1v-2.6m.05 2.6h-.05m.05 0h.05L8.25 7v-.05M4.8 1.75L4.95.5q0-2.05-1.45-3.5M.75 5.45h.1m1.95 1.5h.05l2.65-2.1m-2.75 2.2V7l-2-1.55-.8.05-.75-.05-1.85 1.5h-.05v.35l2.4.4q1.65-.05 3.05-.65m.1-.05l-.05.05h-.05m0-.1V7l.05-.05v.1M2.85 7L5 5.5l.4-.45 2.85 2.2V7m.05.3l-.05-.05m.05-.3L8.25 7m0 2.05L8.3 9m-2.85 2.65h.1l2.7-2.15v-.45L5 11.3l.45.35.05.05v-.05m2.75-2.1V9.5v.05h.05m1.4 5.75l-.2.1-1.2.95h-.05v.05M5.5 14.25h.05l2.5 2.05.05-.05.15.1m-2.7-2.15l-.05.05-2.65 2.1H2.8v.2m2.65-2.3h.05v-.05m-5.55.05H0V12.4h-.05v1.85l-2.65 2.1h.05L0 14.25l.05-.05m2.7 2.2l-2.7-2.15H0m2.75 2.15v-.05L.05 14.2m2.7 2.2v.15m.05-.2l-.05.05m0-.05h.05l2.65-2.1v-2.6m5.6 2.6H11L9.7 15.3m1.35-1.1l-.05.05m.05 0v-.05m-.1-11.95L9 .7M0 12.4q2.7-.05 5-1.1m-9.9-9.5v.05q.35 1.25 1.3 2.2 1.2 1.2 2.8 1.4M-5.45 2.3h-.05v2.55l.05-.05 2.7 2.15h.05l1.9-1.5m-4.75-3.2l.05.05v-.05M-7.5.7l-.7-.55h-.05l-2.7 2.15H-11v2.5m.05 0l2.6 2.05L-6 5.05l.1.1.35-.3v-2.6m-2.7-2.1V.1v.05h.05m2.7 4.7h-.05M-2.75 7l-2.7-2.15h-.05l-.4.3.3.35q1.25 1.25 2.85 1.8v-.35m-5.6-.1l-.05.05L-9.8 8l.7.75.85.75v.05h.1l.65.55.25.2 2.05 1.15h.05q2.25.95 4.9.95h.2m-7.45-2.3l-.7-.55.95.75 1.7 1.35h.1l.25-.2m-3-1.9h-.05.05m2.65 2.1l.05.05v-.05m0 .05h.05l.3-.25m-.35.25v2.5m.05 0l2.7 2.15h.05l-.05.05v.15m.05-9.25h-.05m0-.3l.05-.05m-2.2-5.1l-.55.45m-5.6-.05l.05.05v-.05m-2.75-2.1h.05m-.05-.05v.05m0-.05l-2.7 2.15h-.05v.05h.05l2.7-2.15m2.7 4.7h.05V4.8m2.6 2.1l-2.55-2.05H-11l-2.65 2.1h-.05v2.6h.05l.65.55 1.95 1.55h.1l2.7-2.15M-11 4.85l.05-.05m-5.5 0l2.7 2.15h.05l2.65-2.1v-2.6m-5.45.05v2.5m.05 0l-.05.05h.05l2.7 2.15v-.05m-2.75-4.7h-.05l.05.05m-.05-.05l-1.05-.8m1.05 3.4h.05V4.8m-.55.45l.5-.4v-2.6m0 2.6h.05M-13.75 7l.05-.05m-.05 2.55v.05h.05l.7.55m-.75-.55h.05m-.05 0V9.5l-1 .8m1-.8V7m-1 3.35l1-.8m2.7 2.1l.05.05v-.05m.05.05H-11v2.5m.05 0l2.5 2 .25.15 2.65-2.1v-2.6m-5.5 2.6h.05v-.05m.05 0l-.05.05h.05L-8.8 16l.35.2.2.15h.05m-2.8-2.1l-.1.1m.05-.1l-.1.1m8.4 2v.05l-2.7-2.15h-.05l-2.65 2.1m5.45.2v-.2m-2.75-2.15l-.05.05v-.05m-.05.05h.05m-2.75 2.1v.05m0-6.85l-2.7 2.15m-.1-.05v2.6" fill="none" stroke="#504241" stroke-linecap="round" stroke-linejoin="round" transform="translate(21.1 20.25)"/><path d="M7.5 16.55H-7.7l-.45-.2" fill="none" stroke="#504241" stroke-linecap="round" stroke-linejoin="round" transform="translate(21.1 20.25)"/></g><radialGradient xlink:href="#u" id="C" gradientUnits="userSpaceOnUse" gradientTransform="translate(-31 -186) scale(.0441)" cx="0" cy="0" r="819.2" spreadMethod="pad"/><radialGradient cx="0" cy="0" gradientTransform="translate(-31 -186) scale(.0441)" gradientUnits="userSpaceOnUse" id="u" r="819.2" spreadMethod="pad"><stop offset="0" stop-color="#fff" stop-opacity=".502"/><stop offset="1" stop-color="#fff" stop-opacity="0"/><stop offset="1" stop-color="#ae0202"/><stop offset="1" stop-color="#cbbfbf" stop-opacity=".002"/></radialGradient><radialGradient xlink:href="#v" id="T" gradientUnits="userSpaceOnUse" gradientTransform="translate(-31 -186) scale(.0441)" cx="0" cy="0" r="819.2" spreadMethod="pad"/><radialGradient cx="0" cy="0" gradientTransform="translate(-31 -186) scale(.0441)" gradientUnits="userSpaceOnUse" id="v" r="819.2" spreadMethod="pad"><stop offset="0" stop-color="#fff" stop-opacity=".502"/><stop offset="1" stop-color="#fff" stop-opacity="0"/><stop offset="1" stop-color="#ae0202"/><stop offset="1" stop-color="#cac9c0" stop-opacity=".003"/></radialGradient><path d="M-118.4 138.6l-5.95.15v2.9q3.6.8 7.35 2.65l-1.15 2.4q-3.6-2.15-6.2-2.85 0 2.25-1.3 3.5-1.15 1.2-3.75 1.2-2 0-3.3-1.3-.85-.9-.85-2.45 0-1.4.95-2.4 1.3-1.25 3.85-1.25l2.05.1v-2.4l-6.95.2v-2.3l6.95-.2v-2.75l-8.6.3v-2.3l8.6-.3v-3.55h1.9q1.25.25.45 1.05v2.3l7.55-.25v2.3l-7.55.25v2.85l5.95-.15v2.3m.75-28.5h-6.1v7.85h8.45v2.45h-21.5v-2.45h4.25V105.9h2.25q1.15.3.3 1.1v10.95h3.65V101.3h2.3q1.15.3.3 1.1v5.25h6.1v2.45m-13.7 34.9q0 .45.4.8.55.6 1.85.6 1 0 1.65-.65.75-.75.7-2.3l-1.8-.15q-1.75 0-2.4.65-.4.4-.4 1.05m2.1 8.8v3.9l.9.5q.95.55-.15 1.2l-.75 1.6v.35q4-4 6.3-4 3 0 2.7 3.9l-.45 7.15q-.1 1.15.85 1.15 1.1 0 1.55-.55l1.5-2.45 1.9 1.45q-.95 1.95-1.85 2.8-1.25 1.25-2.9 1.25-3.65 0-3.45-3.75l.45-7q.1-1.45-.75-1.45-1.5 0-5.85 4.35v9.35h-2.3V166l-3.8 5.05-1.75-1.7 3.75-4.45 1.8-2.6v-1.9l-4 1.35-.6-2.3 4.6-1.25v-5.45h1.9q1.05.3.4 1.05" fill="#fff" fill-rule="evenodd" transform="translate(137.1 -101.3)" id="q"/><path d="M31.6 197.85l-69.85 35.1h-.05l-19.95 10-10-5 69.85-35.1.05.05q9.95-5.05 19.95-10.05l10 5" fill="#fff" fill-rule="evenodd" transform="translate(68.25 -192.85)" id="y"/><path d="M226.65 112.9l19.95-10.05 10 5-69.85 35.1h-.05l-19.95 10-.15-.05-59.85 30.05h-.05l-19.95 10-10-5 69.85-35.1.05.05 19.95-10.05.15.1 59.85-30.1.05.05" fill="#fff" fill-rule="evenodd" transform="translate(-76.75 -102.85)" id="B"/><path d="M240.1 120.45l13.4 6.5 1.05.35.85 1.2q.15.55-.95.35-8.2 2.7-19.35-.65l-.05-1.65q10.15 3.25 16.35 1.2l-13.15-6.4 1.85-.9m-34.05 27.05l-3.05 1.85-1.9-.65 3.25-1.8 1.7.6m-1.6-.7l-4.6 1.55-1.35-1 4.45-1.5 1.5.95m6.3.95l3.25 1.6-5.7 2.5q-1.85.85-3.55 0l-2.05-.95 1.45-.9 1.65.75.8.15.55-.2-1.2-.4 2.3-1.85 1.65.6-1.1.95 1.85-.9-6.95-3.35 9.45-4.65 8.6 4.2-1.45.75-3-1.5-1.15.55 2.4 1.2-1.45.7-2.4-1.2-1.15.6 2.4 1.2-1.45.7-2.4-1.2-1.35.65m.85-2.3l1.15-.6-1.7-.8-1.15.6 1.7.8m-3.15-.1l-1.35.65 1.7.8 1.35-.65-1.7-.8m-.75 2.8q-.95 1.25-2.2 2l-1.9-.6 2.45-1.95 1.65.55m5.95-5.35l-1.15.55 1.7.8 1.15-.55-1.7-.8m6.05 4.1l4.65 2.3.05-2.35 2.75.3q.45 1.35.15 2.45l-2.85-.35 5.2 2.5-1.65.8-3.95-1.95-3.2 1.55 3.35 1.65-1.65.85-3.35-1.65-3.75 1.85 4.3 2.1-1.65.8-10.5-5.05 1.65-.8 4 1.9 3.75-1.85-3.1-1.5 1.65-.85 3.1 1.5 3.2-1.55-3.8-1.85 1.65-.8m19.3-3.5l-2.2-1.05q3.1-1.5 6.15-3.05l6.25 3 .65-.35-8.15-3.95 1.65-.8 8.15 3.95 1.5-.75 1.85.9q.75.5-.35.55l-.85.4 8.25 3.95-1.65.8-8.25-3.95-.65.35 6.4 3.1-6 2.95-2.2-1.1.25-.1-.65-.3-1 .5 5.55 2.7-1.65.8-5.55-2.7-2.7 1.3-2.55-.15-2.45-1.2 1.4-.95 1.85.95h.15l2.1-1-5.5-2.7q.85.7 1.05 1.95l-2.8-.1q-.45-1.5-1.1-2.65l1.55.15-5.65-2.7 1.65-.8 12.45 6.05 1-.5-7.55-3.7-.4.2m1.85-.95l4.05 1.95q.4-.15.75-.35l-4.05-1.95-.75.35m-5.55 10.1l7.95 3.85 1.5-.75 1.85.9q.8.5-.3.5l-.85.4 7.75 3.8-1.65.8-7.75-3.8-1 .5 6.05 2.95q-3.25 1.65-6.55 3.25l-2.2-1.05.35-.15-3.85-1.9-1.05.5 9 4.4-1.6.8-9-4.4-2.9 1.4-2.2-1.05 2.9-1.4-9-4.35 1.6-.8 9 4.35 1.05-.5-3.85-1.9-.4.2-2.2-1.05 6.6-3.3 6.05 2.95 1-.5-7.95-3.85 1.65-.8m-.95 4.45l3.85 1.9.95-.5-3.85-1.9-.95.5m2.4 2.6l-3.85-1.9-.95.45 3.85 1.9.95-.45m3.65.35l3.85 1.9.95-.5-3.85-1.9-.95.5m1.45 3.05l.95-.45-3.85-1.9-.95.45 3.85 1.9m55.7-18.05l1.2.45.25.9q-.05.5-.95.35-10.05 4.25-23.7-.05v-1.55q9.9 3 15.8 1.9l-11.05-5.35 1.8-.9 11.75 5.7 2.5-.8-13.05-6.35 1.85-.95 13.6 6.65m-52.05-25.7l12.4 6.05-1.85.95-12.4-6.05 1.85-.95m17.15 9.45q8.7 4.1 13.75 5.55l-.5 1.3q-.4.5-1.35-.35l-3.55-1.25-2.5 1.2q3.55 1.75 7.1 3.45l-1.8.9-7.1-3.45q-4.7 2.35-12.9.75l-.25-1.4q7.1 1.3 10.6-.6l-8.55-4.15 1.8-.9 8.65 4.2 2.25-1.1-6.55-2.85.9-1.3M243 141.4l4.05 1.95.7-.35-4.05-1.95-.7.35m4.05 4.1l4.2 2 .75-.35-4.2-2-.75.35m2.15-1.05l4.2 2 .7-.35-4.2-2-.7.35m29.45-10.55q.6 1.4.35 2.65l-2.25-.25q.15-1.45-.25-2.65l2.15.25m2.85.6q.6 1.35.5 2.7l-2.4-.25q.05-1.5-.3-2.65l2.2.2m-4.5 23.9l-5.15-2.5-2.2 1.05 5.15 2.5 2.2-1.05m-1.35-4.4l-2.15 1.05 5.15 2.5 2.15-1.05-5.15-2.5m-9.1-2.35l4.75 2.35 2.15-1.05-4.75-2.35q-1.05.55-2.15 1.05m1.45 6.1l-5.15 2.55-2.2-1.05 5.15-2.55-4.75-2.35q-3.55 1.65-8.55 1.4l-.3-1.35q4.45.05 7.1-1.25l8.9-4.4 16.45 8-13.2 6.5q-1.25.6-2.85-.2l-2.65-1.25 1.4-1.1 2.4 1.15h.2l3.2-1.6-5.15-2.5m-3.1-5.25q-1.1.55-2.2 1.05l4.75 2.35 2.2-1.05-4.75-2.35m1.3 16.25l5.2 2.5.85-.45-5.2-2.5-.85.45m-2.15 1.05l5.2 2.5.7-.35-5.2-2.5-.7.35m11.8 1.35l-5.9 2.9-9.55-4.65 5.9-2.9 9.55 4.65m-23.3.75q4.2 1.35 6.75 1.2l-1-.5-4.75-.65.3-.85-6.8-1.65q-.65.2-1-.35l1-1.15 3.4 1 4.9-2.4-2.7-1.3 1.6-.8 2.7 1.3 3.9-1.9 1.85.9q.8.5-.35.45l-3.25 1.6 2.6 1.25-1.6.8-2.6-1.25-4.3 2.15 2.7.65-.45.65 4.6.25-3.45-1.65 1.65-.8 13.5 6.55-1.65.8-7.95-3.85-1.15-.05 8.05 3.9-5.7 2.3-3.65-.1-2.25-1.1 1.35-.95 1.85.9.85.1 3.65-1.4-.55-.3q-6.2 1.5-14.65-1.65l1-1.05q7.1 2.55 11.55 1.7l-1.1-.55q-4.5.65-9.65-1.2l.8-1M314 160.15q-3.1 1.55-5.8 2.1-2.1.3-4.75-1l-2.3-1.1 1.7-1 2.45 1.2 2.2.35q1.65-.25 4.45-1.6l1.25-.65-12.35-6q-4.35 2.15-10.55 2.2l-.35-1.45q5-.05 8.85-1.95l7.3-3.6 14.65 7.1-4.95 2.45q-1.1-.5-2.2-1.05l.3-.2-10.25-5-1.3.65 14.6 7.1q-1.45.75-2.95 1.45m2.9-5.65l-10.25-5-1.35.65 10.25 5 1.35-.65m-11.25 2.55l-3.7-1.8-1.55.75 3.7 1.8 1.55-.75m-.8 2.5l-5.9-2.85-.85.4-2.2-1.05 5.25-2.6 8.1 3.9-4.4 2.2" fill="#fc0" fill-rule="evenodd" transform="translate(-198.5 -119.25)" id="ak"/></defs><path d="M398.763 412.08L-1.117 212.193l360.6-179.66L759.27 232.454z" fill="#cac9c0" fill-rule="evenodd" stroke="#676767" stroke-width=".6" stroke-linejoin="round"/><g transform="translate(359.35 52.6)"><use height="40.45" transform="translate(-119.4 99.9)" width="80.3" xlink:href="#w"/><use height="40.45" transform="translate(-79.4 119.9)" width="80.3" xlink:href="#w"/><use height="40.45" transform="translate(-159.4 79.9)" width="80.3" xlink:href="#w"/><use height="40.45" transform="translate(-39.4 139.9)" width="80.3" xlink:href="#w"/><use height="40.45" transform="matrix(-1 0 0 1 120.9 139.9)" width="80.3" xlink:href="#w"/><use height="40.45" transform="matrix(-1 0 0 1 160.9 119.9)" width="80.3" xlink:href="#w"/><use height="40.45" transform="matrix(-1 0 0 1 200.9 99.9)" width="80.3" xlink:href="#w"/><use height="40.45" transform="matrix(-1 0 0 1 240.9 79.9)" width="80.3" xlink:href="#w"/><use height="72.25" transform="matrix(-2.4967 1.2346 -1.8981 -.9758 -31.33 187.184)" width="22.2" xlink:href="#x"/><use height="40.45" transform="translate(.6 159.9)" width="80.3" xlink:href="#w"/><use height="50.1" transform="translate(-68.25 192.85)" width="99.85" xlink:href="#y"/><use height="31.55" transform="translate(-318.45 128.4)" width="50.5" xlink:href="#z"/><use height="31.55" transform="translate(-278.45 148.4)" width="50.5" xlink:href="#z"/><use height="31.55" transform="translate(-238.45 168.4)" width="50.5" xlink:href="#z"/><use height="31.55" transform="translate(-198.45 188.4)" width="50.5" xlink:href="#z"/><use height="31.55" transform="translate(-158.45 208.4)" width="50.5" xlink:href="#z"/><use height="31.55" transform="translate(-118.45 228.4)" width="50.5" xlink:href="#z"/><use height="31.55" transform="translate(-78.45 248.4)" width="50.5" xlink:href="#z"/><use height="31.55" transform="translate(-38.45 268.4)" width="50.5" xlink:href="#z"/><use height="31.55" transform="translate(1.55 288.4)" width="50.5" xlink:href="#z"/><use height="31.55" transform="translate(41.55 308.4)" width="50.5" xlink:href="#z"/><use height="42.45" transform="translate(-359.35 136.75)" width="80.3" xlink:href="#A"/><use height="42.45" transform="translate(-319.35 156.75)" width="80.3" xlink:href="#A"/><use height="42.45" transform="translate(-279.35 176.75)" width="80.3" xlink:href="#A"/><use height="42.45" transform="translate(-239.35 196.75)" width="80.3" xlink:href="#A"/><use height="42.45" transform="translate(-199.35 216.75)" width="80.3" xlink:href="#A"/><use height="42.45" transform="translate(-159.35 236.75)" width="80.3" xlink:href="#A"/><use height="42.45" transform="translate(-119.35 256.75)" width="80.3" xlink:href="#A"/><use height="42.45" transform="translate(-79.35 276.75)" width="80.3" xlink:href="#A"/><use height="42.45" transform="translate(-39.35 296.75)" width="80.3" xlink:href="#A"/><use height="42.45" transform="translate(.65 316.75)" width="80.3" xlink:href="#A"/><use height="31.55" transform="matrix(-1 0 0 1 361.6 150.05)" width="50.5" xlink:href="#z"/><use height="31.55" transform="matrix(-1 0 0 1 321.6 170.05)" width="50.5" xlink:href="#z"/><use height="31.55" transform="matrix(-1 0 0 1 281.6 190.05)" width="50.5" xlink:href="#z"/><use height="31.55" transform="matrix(-1 0 0 1 241.6 210.05)" width="50.5" xlink:href="#z"/><use height="31.55" transform="matrix(-1 0 0 1 201.6 230.05)" width="50.5" xlink:href="#z"/><use height="42.45" transform="translate(320.65 158.75)" width="80.3" xlink:href="#A"/><use height="42.45" transform="translate(280.65 178.75)" width="80.3" xlink:href="#A"/><use height="42.45" transform="translate(240.65 198.75)" width="80.3" xlink:href="#A"/><use height="42.45" transform="translate(200.65 218.75)" width="80.3" xlink:href="#A"/><use height="42.45" transform="translate(160.65 238.75)" width="80.3" xlink:href="#A"/><use height="31.55" transform="translate(141.1 250.05)" width="50.5" xlink:href="#z"/><use height="31.55" transform="translate(151.1 255.05)" width="50.5" xlink:href="#z"/><use height="90.1" transform="translate(76.75 102.85)" width="179.85" xlink:href="#B"/><path d="M-50.35-192.4L-8-188.45l9.7 35.05q-1.85 3.5-4.65 6.7-8.65 9.7-21.45 10.2-12.75.5-22.15-8.5-9.4-9-9.9-22.2l.1-4.5 6-20.7" fill="url(#C)" fill-rule="evenodd" transform="matrix(-1 0 0 1 -338.4 155)"/><path d="M-338.05 150.45q-5.15 0-8.75 1.8-3.65 1.8-3.65 4.35t3.65 4.35q3.6 1.8 8.75 1.8t8.8-1.8q3.6-1.8 3.6-4.35t-3.6-4.35q-3.65-1.8-8.8-1.8" fill-opacity=".153" fill-rule="evenodd"/><path d="M-329-37.9l-.85 2.6h-.1l6.2 6.2.05-.05.75-2.3-1.2-2.6-2.8-2.8-2.05-1.05" fill="#cdcdcd" fill-rule="evenodd"/><path d="M-9.4-192.9l-2.05 1.05-2.8 2.8-1.2 2.6.75 2.3-36.4-6.8-.25-.65 1.15-2.55 2.75-2.75h.1l2.05-1 35.9 5" fill="url(#D)" fill-rule="evenodd" transform="matrix(-1 0 0 1 -338.4 155)"/><path d="M-329.85-35.3l.85-2.6 2.05 1.05 2.8 2.8 1.2 2.6-.75 2.3-.05.05-6.2-6.2m.1 0h-.1m.95-2.6l35.9-5 2.05 1h.1l2.75 2.75 1.15 2.55-.25.65-36.4 6.8" fill="none" stroke="#7c7b70" stroke-linecap="round" stroke-linejoin="round"/><path d="M1.45-188.8l1.3 3.8-15.05-2.2-.6-.85q-.3-.85.15-1.65l1-1 .75.1 3.9.55 8.55 1.25" fill="url(#E)" fill-rule="evenodd" transform="matrix(-1 0 0 1 -338.4 155)"/><path d="M-339.85-33.8l8.55-1.25 3.9-.55.75-.1 1 1q.45.8.15 1.65l-.6.85-15.05 2.2z" fill="none" stroke="#747265" stroke-linecap="round" stroke-linejoin="round" stroke-width=".5"/><path d="M-342.4-50.1v-.35l-.05.55v.8l.05-1m0 89.7l-.05.55v.8l.05-1.35m-1.25 30.1l-.05.85v.4l.05-1.25m9.9 85.5l.05-.1v-.75l-.05-.15v1m.05-84.5v-.75l-.05-.15-.05-.35.1 1.35v.1-.2m-.05-.9l.05.45v-.3.3l-.05-.45m.05.45v.55-.55" fill="#d3ba70" fill-rule="evenodd"/><path d="M4.05-204.1v.3l-.1.1.05.15q-.25 1.15-1.05 2-1.1 1.2-2.65 1.2-1.55 0-2.65-1.2-.95-1.05-1.1-2.45.15.55 1.1.95l2.65.45 2.65-.45 1-.65-1 .65-2.65.45-2.65-.45q-.95-.4-1.1-.95v-.6q.05-1.05 1.1-1.75 1.1-.75 2.65-.75 1.55 0 2.65.75.8.55 1.05 1.25l.05 1" fill="url(#F)" fill-rule="evenodd" transform="matrix(-1 0 0 1 -338.4 155)"/><path d="M4.05-203.8l-.05.25-.05-.15.1-.1" fill="url(#G)" fill-rule="evenodd" transform="matrix(-1 0 0 1 -338.4 155)"/><path d="M4-203.55v52.05h-7.45V-204q.15 1.4 1.1 2.45 1.1 1.2 2.65 1.2 1.55 0 2.65-1.2.8-.85 1.05-2" fill="url(#H)" fill-rule="evenodd" transform="matrix(-1 0 0 1 -338.4 155)"/><path d="M4.1-114.05L5.25-85.3l.05 1.25q-.15 1.25-1.5 2.2-1.45.95-3.5.95-2.1 0-3.55-.95-1.15-.8-1.4-1.8v-.05l-.05-.1v-.4l.1-1.35L-3.55-114q.25 1.45 1.2 2.5 1.1 1.2 2.65 1.2 1.55 0 2.65-1.2.95-1.1 1.1-2.55h.05" fill="url(#I)" fill-rule="evenodd" transform="matrix(-1 0 0 1 -338.4 155)"/><path d="M4.05-114.05q-.15 1.45-1.1 2.55-1.1 1.2-2.65 1.2-1.55 0-2.65-1.2-.95-1.05-1.2-2.5.25.75 1.2 1.3 1.1.65 2.65.65 1.55 0 2.65-.65 1-.55 1.1-1.35" fill="url(#J)" fill-rule="evenodd" transform="matrix(-1 0 0 1 -338.4 155)"/><path d="M4-145.5v30.1l.05 1.35q-.1.8-1.1 1.35-1.1.65-2.65.65-1.55 0-2.65-.65-.95-.55-1.2-1.3l.05-.4v-31.1H4" fill="url(#K)" fill-rule="evenodd" transform="matrix(-1 0 0 1 -338.4 155)"/><path d="M4-151.5v6h-7.45v-6H4" fill="url(#L)" fill-rule="evenodd" transform="matrix(-1 0 0 1 -338.4 155)"/><path d="M5.3-84.05Q5.15-82 3.8-80.5 2.35-78.9.3-78.9q-2.1 0-3.55-1.6-1.25-1.3-1.45-3.1l.05-.05q.25 1 1.4 1.8 1.45.95 3.55.95 2.05 0 3.5-.95 1.35-.95 1.5-2.2" fill="url(#M)" fill-rule="evenodd" transform="matrix(-1 0 0 1 -338.4 155)"/><path d="M5.3-84.05V-1.3h-9.95l-.05-82.3q.2 1.8 1.45 3.1Q-1.8-78.9.3-78.9q2.05 0 3.5-1.6 1.35-1.5 1.5-3.55" fill="url(#N)" fill-rule="evenodd" transform="matrix(-1 0 0 1 -338.4 155)"/><path d="M5.3-1.3v.95Q5.25.9 3.8 1.75 2.35 2.6.3 2.6q-2.1 0-3.55-.85l-1.3-1.3-.1-.25v-1.5H5.3" fill="url(#O)" fill-rule="evenodd" transform="matrix(-1 0 0 1 -338.4 155)"/><path d="M-3.5-145.5l.05-20v20h-.05" fill="url(#P)" fill-rule="evenodd" transform="matrix(-1 0 0 1 -338.4 155)"/><path d="M-4.7-83.6v-.25.25" fill="url(#Q)" fill-rule="evenodd" transform="matrix(-1 0 0 1 -338.4 155)"/><path d="M-4.65-83.65l-.05.05v-.2l.05.1v.05" fill="url(#R)" fill-rule="evenodd" transform="matrix(-1 0 0 1 -338.4 155)"/><path d="M-342.4-50.1v-.35l-.05.55v1.1l.05.25V39.6l-.05.55v.5l-.05.3-1.15 28.75-.05.85v83.15m0 .05v.9q.05 1.25 1.5 2.1 1.45.85 3.5.85 2.1 0 3.55-.85l1.3-1.3.1-.25.05-.1m0-.75l-.05-.15v-.5l.05-82.3v-1.45l-.05-.15-.05-.35-1.05-28.45-.05-.4V9.5l-.05-20v-39.1q-.05-1.05-1.1-1.75-1.1-.75-2.65-.75-1.55 0-2.65.75-.8.55-1.05 1.25l-.05 1m.1.4l-.1-.1m0 89.45v.3l.05-1.35m8.7 31.55v-.45m-9.95-1l-.05 1.25m8.75-81.45v20m1.25 60.45v.3l-.05-.45m.05 1.1v-.65m-.05 1.1v-.05l.05-.1v.2m0-.2v-.3m0-.1l-.1-1.35m.05 84.75v1" fill="none" stroke="#535248" stroke-linecap="round" stroke-linejoin="round"/><path d="M-342.35-48.7l1 .65 2.65.45 2.65-.45q.95-.4 1.1-.95" fill="none" stroke="#a09e92" stroke-linecap="round" stroke-linejoin="round"/><path d="M-342.45 40.95q.1.8 1.1 1.35 1.1.65 2.65.65 1.55 0 2.65-.65.95-.55 1.2-1.3" fill="none" stroke="#a29f93" stroke-linecap="round" stroke-linejoin="round"/><path d="M-343.7 70.95q.15 1.25 1.5 2.2 1.45.95 3.5.95 2.1 0 3.55-.95 1.15-.8 1.4-1.8" fill="none" stroke="#a5a396" stroke-linecap="round" stroke-linejoin="round"/><use height="48.2" transform="translate(32.1 222.65)" width="94.2" xlink:href="#S"/><path d="M-50.35-192.4L-8-188.45l9.7 35.05c-1.233 2.333-2.783 4.567-4.65 6.7-5.767 6.467-18.581 8.476-27.115 8.81-8.5.333-15.883-2.5-22.15-8.5-6.266-6-3.902-12.01-4.235-20.81l.1-4.5 6-20.7" fill="url(#T)" fill-rule="evenodd" transform="translate(380.5 177.15)"/><path d="M380.15 172.6q5.15 0 8.75 1.8 3.65 1.8 3.65 4.35t-3.65 4.35q-3.6 1.8-8.75 1.8t-8.8-1.8q-3.6-1.8-3.6-4.35t3.6-4.35q3.65-1.8 8.8-1.8" fill-opacity=".153" fill-rule="evenodd"/><path d="M371.1-15.75l.85 2.6h.1l-6.2 6.2-.05-.05-.75-2.3 1.2-2.6 2.8-2.8 2.05-1.05" fill="#cdcdcd" fill-rule="evenodd"/><path d="M-9.4-192.9l-2.05 1.05-2.8 2.8-1.2 2.6.75 2.3-36.4-6.8-.25-.65 1.15-2.55 2.75-2.75h.1l2.05-1 35.9 5" fill="url(#U)" fill-rule="evenodd" transform="translate(380.5 177.15)"/><path d="M371.95-13.15l-.85-2.6-2.05 1.05-2.8 2.8-1.2 2.6.75 2.3.05.05 6.2-6.2m-.1 0h.1m-.95-2.6l-35.9-5-2.05 1h-.1L330.3-17l-1.15 2.55.25.65L365.8-7" fill="none" stroke="#7c7b70" stroke-linecap="round" stroke-linejoin="round"/><path d="M1.45-188.8l1.3 3.8-15.05-2.2-.6-.85q-.3-.85.15-1.65l1-1 .75.1 3.9.55 8.55 1.25" fill="url(#V)" fill-rule="evenodd" transform="translate(380.5 177.15)"/><path d="M381.95-11.65l-8.55-1.25-3.9-.55-.75-.1-1 1q-.45.8-.15 1.65l.6.85 15.05 2.2z" fill="none" stroke="#747265" stroke-linecap="round" stroke-linejoin="round" stroke-width=".5"/><path d="M384.5-27.95v-.35l.05.55v.8l-.05-1m0 89.7l.05.55v.8l-.05-1.35m1.25 30.1l.05.85v.4l-.05-1.25m-9.9 85.5l-.05-.1v-.75l.05-.15v1m-.05-84.5v-.75l.05-.15.05-.35-.1 1.35v.1-.2m.05-.9l-.05.45v-.3.3l.05-.45m-.05.45v.55-.55" fill="#d3ba70" fill-rule="evenodd"/><path d="M4.05-204.1v.3l-.1.1.05.15q-.25 1.15-1.05 2-1.1 1.2-2.65 1.2-1.55 0-2.65-1.2-.95-1.05-1.1-2.45.15.55 1.1.95l2.65.45 2.65-.45 1-.65-1 .65-2.65.45-2.65-.45q-.95-.4-1.1-.95v-.6q.05-1.05 1.1-1.75 1.1-.75 2.65-.75 1.55 0 2.65.75.8.55 1.05 1.25l.05 1" fill="url(#W)" fill-rule="evenodd" transform="translate(380.5 177.15)"/><path d="M4.05-203.8l-.05.25-.05-.15.1-.1" fill="url(#X)" fill-rule="evenodd" transform="translate(380.5 177.15)"/><path d="M4-203.55v52.05h-7.45V-204q.15 1.4 1.1 2.45 1.1 1.2 2.65 1.2 1.55 0 2.65-1.2.8-.85 1.05-2" fill="url(#Y)" fill-rule="evenodd" transform="translate(380.5 177.15)"/><path d="M4.1-114.05L5.25-85.3l.05 1.25q-.15 1.25-1.5 2.2-1.45.95-3.5.95-2.1 0-3.55-.95-1.15-.8-1.4-1.8v-.05l-.05-.1v-.4l.1-1.35L-3.55-114q.25 1.45 1.2 2.5 1.1 1.2 2.65 1.2 1.55 0 2.65-1.2.95-1.1 1.1-2.55h.05" fill="url(#Z)" fill-rule="evenodd" transform="translate(380.5 177.15)"/><path d="M4.05-114.05q-.15 1.45-1.1 2.55-1.1 1.2-2.65 1.2-1.55 0-2.65-1.2-.95-1.05-1.2-2.5.25.75 1.2 1.3 1.1.65 2.65.65 1.55 0 2.65-.65 1-.55 1.1-1.35" fill="url(#aa)" fill-rule="evenodd" transform="translate(380.5 177.15)"/><path d="M4-145.5v30.1l.05 1.35q-.1.8-1.1 1.35-1.1.65-2.65.65-1.55 0-2.65-.65-.95-.55-1.2-1.3l.05-.4v-31.1H4" fill="url(#ab)" fill-rule="evenodd" transform="translate(380.5 177.15)"/><path d="M4-151.5v6h-7.45v-6H4" fill="url(#ac)" fill-rule="evenodd" transform="translate(380.5 177.15)"/><path d="M5.3-84.05Q5.15-82 3.8-80.5 2.35-78.9.3-78.9q-2.1 0-3.55-1.6-1.25-1.3-1.45-3.1l.05-.05q.25 1 1.4 1.8 1.45.95 3.55.95 2.05 0 3.5-.95 1.35-.95 1.5-2.2" fill="url(#ad)" fill-rule="evenodd" transform="translate(380.5 177.15)"/><path d="M5.3-84.05V-1.3h-9.95l-.05-82.3q.2 1.8 1.45 3.1Q-1.8-78.9.3-78.9q2.05 0 3.5-1.6 1.35-1.5 1.5-3.55" fill="url(#ae)" fill-rule="evenodd" transform="translate(380.5 177.15)"/><path d="M5.3-1.3v.95Q5.25.9 3.8 1.75 2.35 2.6.3 2.6q-2.1 0-3.55-.85l-1.3-1.3-.1-.25v-1.5H5.3" fill="url(#af)" fill-rule="evenodd" transform="translate(380.5 177.15)"/><path d="M-3.5-145.5l.05-20v20h-.05" fill="url(#ag)" fill-rule="evenodd" transform="translate(380.5 177.15)"/><path d="M-4.7-83.6v-.25.25" fill="url(#ah)" fill-rule="evenodd" transform="translate(380.5 177.15)"/><path d="M-4.65-83.65l-.05.05v-.2l.05.1v.05" fill="url(#ai)" fill-rule="evenodd" transform="translate(380.5 177.15)"/><path d="M384.5-27.95v-.35l.05.55v1.1l-.05.25v88.15l.05.55v.5l.05.3 1.15 28.75.05.85v83.15m0 .05v.9q-.05 1.25-1.5 2.1-1.45.85-3.5.85-2.1 0-3.55-.85l-1.3-1.3-.1-.25-.05-.1m0-.75l.05-.15v-.5l-.05-82.3V92.1l.05-.15.05-.35 1.05-28.45.05-.4v-31.1l.05-20v-39.1q.05-1.05 1.1-1.75 1.1-.75 2.65-.75 1.55 0 2.65.75.8.55 1.05 1.25l.05 1m-.1.4l.1-.1m0 89.45v.3l-.05-1.35m-8.7 31.55v-.45m9.95-1l.05 1.25m-8.75-81.45v20M375.8 92.1v.3l.05-.45m-.05 1.1v-.65m.05 1.1v-.05l-.05-.1v.2m0-.2v-.3m0-.1l.1-1.35m-.05 84.75v1" fill="none" stroke="#535248" stroke-linecap="round" stroke-linejoin="round"/><path d="M384.45-26.55l-1 .65-2.65.45-2.65-.45q-.95-.4-1.1-.95" fill="none" stroke="#a09e92" stroke-linecap="round" stroke-linejoin="round"/><path d="M384.55 63.1q-.1.8-1.1 1.35-1.1.65-2.65.65-1.55 0-2.65-.65-.95-.55-1.2-1.3" fill="none" stroke="#a29f93" stroke-linecap="round" stroke-linejoin="round"/><path d="M385.8 93.1q-.15 1.25-1.5 2.2-1.45.95-3.5.95-2.1 0-3.55-.95-1.15-.8-1.4-1.8" fill="none" stroke="#a5a396" stroke-linecap="round" stroke-linejoin="round"/><use height="42" transform="matrix(.7925 -.6046 .9319 .5429 -276.243 197.115)" width="42" xlink:href="#aj"/><use height="42" transform="matrix(.7925 -.6046 .9319 .5429 286.957 199.865)" width="42" xlink:href="#aj"/><use height="59.6" transform="translate(198.5 119.25)" width="122.25" xlink:href="#ak"/></g><path d="M490.191 277.315l-19.95 10-19.85-9.9 20-10-7.6-3.8 34.85-.25v17.4l-7.45-3.45" fill="#fc6" fill-opacity=".6"/><path d="M497.641 280.765v-17.4l-34.85.25 7.6 3.8-20 10 19.85 9.9 19.95-10z" fill="none" stroke="#f60" stroke-linecap="round" stroke-linejoin="round" stroke-miterlimit="3" stroke-opacity=".6"/><path d="M107.54 177.3l19.95 10 19.85-9.9-20-10 7.6-3.8-34.85-.25v17.4l7.45-3.45" fill="#fc6" fill-opacity=".6"/><path d="M100.09 180.75v-17.4l34.85.25-7.6 3.8 20 10-19.85 9.9-19.95-10z" fill="none" stroke="#f60" stroke-linecap="round" stroke-linejoin="round" stroke-miterlimit="3" stroke-opacity=".6"/><path d="M290.197 177.233l-19.95 10-19.85-9.9 20-10-7.6-3.8 34.85-.25v17.4l-7.45-3.45" fill="#fc6" fill-opacity=".6"/><path d="M297.647 180.683v-17.4l-34.85.25 7.6 3.8-20 10 19.85 9.9 19.95-10z" fill="none" stroke="#f60" stroke-linecap="round" stroke-linejoin="round" stroke-miterlimit="3" stroke-opacity=".6"/><path d="M347.262 344.279l-20 10 7.65 3.8-34.9.25v-17.4l7.45 3.45 19.95-10 19.85 9.9" fill="#fc6" fill-opacity=".6"/><path d="M327.412 334.379l-19.95 10-7.45-3.45v17.4l34.9-.25-7.65-3.8 20-10z" fill="none" stroke="#f60" stroke-linecap="round" stroke-linejoin="round" stroke-miterlimit="3" stroke-opacity=".6"/><path d="M451.913 347.617l20 10-7.65 3.8 34.9.25v-17.4l-7.45 3.45-19.95-10-19.85 9.9" fill="#fc6" fill-opacity=".6"/><path d="M471.763 337.717l19.95 10 7.45-3.45v17.4l-34.9-.25 7.65-3.8-20-10z" fill="none" stroke="#f60" stroke-linecap="round" stroke-linejoin="round" stroke-miterlimit="3" stroke-opacity=".6"/><g><path d="M564.533 256.335l-32 15.95v-26.95l32-16v27m-2-24l-28 14v23l28-14v-23" fill="#ffd324"/><path d="M564.533 229.335l-32 16v26.95l32-15.95v-27m-34.05 12.55l38.05-19v66.95l-38.6 19.4v-.3l.1-.3.05-66.55.25-.1.15-.1" fill="#fbe6ae"/><path d="M528.083 243.635l-.05 25.7.1.25-.1.25v1.25l-.05-27.45h.1" fill="#fae6af"/><path d="M530.333 241.985l-.4-.05v-.85l.05-.05.5.85-.15.1" fill="#ded5be"/><path d="M-30.2-42.75l-.05-.25.05-.25.05 1.15-.05-.65" fill="url(#al)" transform="translate(559.233 312.585)"/><path d="M564.533 229.335l-32 16v26.95l32-15.95v-27m-2 26l-28 14v-23l28-14v23" fill="none" stroke="#ab945f" stroke-linecap="round" stroke-linejoin="round" stroke-miterlimit="3"/></g></svg>