<svg xmlns="http://www.w3.org/2000/svg" width="82" height="111"><g transform="translate(33.8 95.9)"><linearGradient id="a" gradientUnits="userSpaceOnUse" gradientTransform="matrix(.0008 .00148 -.0121 .00644 26.95 -64.6)" spreadMethod="pad" x1="-819.2" y1="0" x2="819.2" y2="0"><stop offset="0" stop-color="#fcedc7"/><stop offset=".498" stop-color="#f0f0f0"/><stop offset="1" stop-color="#fae6af"/></linearGradient><path d="M46.85-73.4l.3.25.05.35-.25.3-.25.15L8.8-53.4l-.6.05-.3-.65-.55-1.05-.5-1 .05-.1.2.1 39.15-19.6.25-.15h.35l.3.25.05.35-.25.3-.25.15v1.3l.15.05" fill="url(#a)"/><path d="M-32.4-75.75L6.8-95.4l39.45 19.75L7.1-56.05l-.2-.1-.15-.05-39.15-19.55" fill="#fdf2d5"/><path d="M7.15-55H7.1l-.2-.05-.5-.25.45-.75-.1-.15.15.05-.05.1.5 1-.2.05m1.6 1.65v1.05l-.55-1.05h-.45v-.35l.05-.15.1-.15.3.65.6-.05-.05.05M5.8-54.2l.6.3.1.1.15.2v.3l-1.2.05-.15-.1.5-.85" fill="#ded5be"/><linearGradient id="b" gradientUnits="userSpaceOnUse" gradientTransform="matrix(-.00085 .00177 -.01236 -.00606 -13.25 -64.7)" spreadMethod="pad" x1="-819.2" y1="0" x2="819.2" y2="0"><stop offset="0" stop-color="#fcedc7"/><stop offset=".498" stop-color="#ebebeb"/><stop offset="1" stop-color="#fae6af"/></linearGradient><path d="M-33-72.45l-.25-.3v-.35l.3-.25.15-.05v-1.45l-.2-.1-.25-.3-.05-.15.05-.2.3-.25h.4l.15.1L6.75-56.2l.1.15-.45.75-.6 1.1-.5.85-38.1-19-.2-.1" fill="url(#b)"/><path d="M7.5-53.35h-.05l-.75.05h-.05v-.3l-.15-.2-.1-.1-.6-.3.6-1.1.5.25.2.05h.05l.2-.05L7.9-54l-.1.15-.05.15v.2l-.25.15" fill="#fef7e2"/><path d="M8.6 13.7l.1-.3.05-65.7v-1.05l.05-.05 37.9-18.95-.05 66.9.15.05L8.6 13.7m-.85-67.2V-24.15L7.7-25.4l-.05-.25.05-.25-.05-27.05-.15-.35-.05-.05h.05l.25-.15M7.7 14.15v-.75l.15.35.35.15-.5.25" fill="#fae6af"/><linearGradient id="c" gradientUnits="userSpaceOnUse" gradientTransform="matrix(.00201 0 0 .04166 7.1 -19.25)" spreadMethod="pad" x1="-819.2" y1="0" x2="819.2" y2="0"><stop offset="0" stop-color="#fcedc7"/><stop offset=".498" stop-color="#f0f0f0"/><stop offset="1" stop-color="#fae6af"/></linearGradient><path d="M7.45-53.35l.05.05.15.35.05 27.05-.05.25.05.25.05 1.25v-29.2h.45l.55 1.05-.05 65.7-.1.3-.05.05-.35.15-.35-.15-.15-.35v1l-.15.35-.35.15-.35-.15-.15-.3V13.4l-.05.25-.1.1-.35.15-.35-.15-.15-.35-.05-66.55-.2-.1 1.2-.05h.05l.75-.05m-.8.15v.25l.05-.2-.05-.05m.05 27.8l.1-.25-.1-.25v1.15-.65" fill="url(#c)"/><path d="M6.65 14.4L-32.8-5.4v-66.95l38.1 19 .15.1.2.1.05 66.55.15.35.35.15.35-.15.1-.1.05-.25v1.05l-.05-.05m-3.4-64.3l-32.05-16v27l32 15.95.05-26.95" fill="#fcedc7"/><linearGradient id="d" gradientUnits="userSpaceOnUse" gradientTransform="matrix(.00003 0 0 .00015 6.65 -53.1)" spreadMethod="pad" x1="-819.2" y1="0" x2="819.2" y2="0"><stop offset="0" stop-color="#fcedc7"/><stop offset=".498" stop-color="#fff"/><stop offset="1" stop-color="#fae6af"/></linearGradient><path d="M6.7-53.15l-.05.2v-.25l.05.05" fill="url(#d)"/><linearGradient id="e" gradientUnits="userSpaceOnUse" gradientTransform="matrix(.00006 0 0 .0007 6.75 -25.35)" spreadMethod="pad" x1="-819.2" y1="0" x2="819.2" y2="0"><stop offset="0" stop-color="#fcedc7"/><stop offset=".498" stop-color="#fff"/><stop offset="1" stop-color="#fae6af"/></linearGradient><path d="M6.7-24.75v-1.15l.1.25-.1.25v.65" fill="url(#e)"/><path d="M1.25-48.9l-28.05-14v23l28 14 .05-23M3.2-22.95l-32-15.95v-27l32.05 16-.05 26.95" fill="#ffd324"/><path d="M46.7-72.35V-74.75M6.65 13.65l.05-38.4v-28.4m0-.15v-1.05M46.8-75.4L7.6-55.75M-33.3-75.4L6.25-55.65" fill="none" stroke-linecap="round" stroke-linejoin="round" stroke-miterlimit="3" stroke="#857245"/><path d="M6.9-56.15l-.05.1.5 1m-1.55.85l-.5.85" fill="none" stroke-linecap="round" stroke-linejoin="round" stroke-miterlimit="3" stroke="#fef7e2"/><path d="M7.75-53.5l-.25.15" fill="none" stroke-linecap="round" stroke-linejoin="round" stroke-miterlimit="3" stroke="#ffde5b"/><path d="M1.2-25.9l-28-14v-23l28.05 14-.05 23m2 2.95l-32-15.95v-27l32.05 16-.05 26.95" fill="none" stroke-linecap="round" stroke-linejoin="round" stroke-miterlimit="3" stroke="#ab945f"/><path d="M46.8-5.4l-.15-.05" fill="none" stroke-linecap="round" stroke-linejoin="round" stroke-miterlimit="3" stroke="#000"/><path d="M-32.8-72.35V-5.6m0 .2L6.65 14.4m40-19.85l.05-66.9m-.45-3.3L6.8-95.4l-39.2 19.65m41 89.45L46.8-5.4m-79.6-69.45v1.45" fill="none" stroke-linecap="round" stroke-linejoin="round" stroke-miterlimit="3" stroke="#655634"/><path d="M6.65 14.4v-.75m1.55.25l-.5.25m-1.05.25l.05.05" fill="none" stroke-linecap="round" stroke-linejoin="round" stroke-miterlimit="3" stroke="#8e7a4a"/><path d="M40.4-63.3L14.1-50.15" fill="none" stroke-linecap="round" stroke-linejoin="round" stroke-miterlimit="3" stroke="#f2efe6"/><path d="M40.4-62.3L14.1-49.15" fill="none" stroke-linecap="round" stroke-linejoin="round" stroke-miterlimit="3" stroke="#c5b58f"/><path d="M40.4-58.3L14.1-45.15" fill="none" stroke-linecap="round" stroke-linejoin="round" stroke-miterlimit="3" stroke="#f2efe6"/><path d="M40.4-57.3L14.1-44.15M40.4-52.3L14.1-39.15" fill="none" stroke-linecap="round" stroke-linejoin="round" stroke-miterlimit="3" stroke="#c5b58f"/><path d="M40.4-53.3L14.1-40.15M40.4-48.3L14.1-35.15" fill="none" stroke-linecap="round" stroke-linejoin="round" stroke-miterlimit="3" stroke="#f2efe6"/><path d="M40.4-47.3L14.1-34.15M40.4-42.3L14.1-29.15" fill="none" stroke-linecap="round" stroke-linejoin="round" stroke-miterlimit="3" stroke="#c5b58f"/><path d="M40.4-43.3L14.1-30.15" fill="none" stroke-linecap="round" stroke-linejoin="round" stroke-miterlimit="3" stroke="#f2efe6"/><path d="M17.85-12.65l-3.6 1.75v3.65l-1.7.85V-15l5.85-2.9v1.45l-4.15 2.05v2.05l3.6-1.75v1.45m1.2 2.15l-.2-1.3v-3.9l1.6-.8v2.85l.1 1.55q.1.25.35.25l.6-.1.75-.6.45-.8.15-1.75v-2.6l1.65-.8v6.2l-1.55.75v-.95l-.9 1.25-1.15.85-1.15.25q-.5 0-.7-.35m1.1 3.85l.65.4.25.85-.3 1.3-.9 1.2 1.2.15q.4.35.4 1.1l-.25 1.3L20.45.9l-1.15 1-2.1 1.05-2.9 1.45v-8.6l3.4-1.7 1.55-.65.9-.1M18.5-4.8l-1.5.7-1 .5v2l1.15-.55 1.25-.7.7-.65.25-.8-.2-.55-.65.05M16-.2v2.3l1.6-.8 1.2-.65.65-.65.25-.8-.2-.6-.55-.1-1.55.6-1.4.7m20.45-24.25l1.75-.85 1.45 3.65 1.5-5.1 1.7-.85-2.6 8.35-.4 1.05-.45.65-.65.6-.85.55-.9.35-.15-1.25.7-.3.85-.7.4-1.1-2.15-4.6L35-21.45l2.25 2.8-1.75.9-1.6-2.05-.75 1.2v2l-1.65.8v-8.6l1.65-.8v4.55l1.95-3.1 1.35-.65v-.05M30.8-20.4l.05 1.05v3.85l-1.6.85v-3.2l-.15-1.25-.3-.3-.6.15-.75.6-.45.85q-.15.45-.15 1.5v2.8l-1.65.85v-6.2l1.55-.8v.9q.8-1.45 2.05-2.05l1-.3.65.2.35.5m9.4 7.05l.05 1.05v3.85l-1.6.85v-3.2l-.15-1.25-.3-.3-.6.15-.75.6-.45.85q-.15.45-.15 1.5v2.8l-1.65.85v-6.2l1.55-.8v.9q.8-1.45 2.05-2.05l1-.3.65.2.35.5M29.55-6.2q0 .9.45 1.15l1.1-.05q.65-.3 1.1-1 .4-.75.4-1.65 0-.95-.4-1.2l-1.1.05-1.1 1q-.45.75-.45 1.7m-.1-2.8q.7-.75 1.65-1.2 1.4-.7 2.3-.25.9.45.9 1.85 0 1.45-.9 2.8-.9 1.4-2.3 2.05-.85.45-1.65.45-.75-.05-1.15-.6-.3-.4-.35-1.1-.15 1.2-.9 2.35-.9 1.4-2.3 2.05-.85.45-1.65.45-.75-.05-1.15-.6-.4-.55-.4-1.6 0-.8.4-1.8.4-.95 1.15-1.7l1.65-1.2q1.4-.7 2.3-.25.75.35.9 1.4l.35-1.4q.4-.95 1.15-1.7m-5.8 4.25q-.45.75-.45 1.7 0 .9.45 1.15l1.1-.05 1.1-1q.4-.75.4-1.65 0-.95-.4-1.2l-1.1.05-1.1 1M-25.7-26.3l1.3.65 1.55.65q.3.1.5-.15.15-.15.15-.5l-.2-.8-.65-.7-1.3-.7-1.35-.65v2.2m0 1.35v3.6l-1.7-.9v-8.6l3.65 1.85 2 1.25 1 1.3q.35.8.35 1.55 0 1-.55 1.3l-1.7-.05.9 1.25 1 1.85 1.05 2.2-2.05-1.05-1.3-2.45-.9-1.8-.5-.6-.9-.55-.35-.15m-1.95 5.85l1.7.55q1.6.85 2.4 1.95.85 1.15.85 2.35l-1.7-.8q-.1-.7-.5-1.2l-1.1-.85-1.15-.3-.3.4.25.65 1.6 1.4 1.9 1.55.95 1.4q.3.7.3 1.5 0 .75-.4 1.2-.4.45-1.15.35-.75-.05-1.85-.65-1.65-.8-2.5-2-.9-1.2-1.05-2.75l1.65.75q.15.9.65 1.55.45.65 1.25 1.05.85.4 1.25.25.45-.1.45-.6l-.2-.6-.6-.7-1.4-1.1-1.95-1.8q-.8-1.1-.8-2.15 0-.65.35-1.05l1.1-.35m5.75 3.95l1.65-.15v2.2l1.1.6v1.3l-1.1-.6v2.5l.05.95.1.25.3.25.65.15.15 1.35-1.3-.4-.8-.55-.55-.7-.2-.75-.05-1.15v-2.7l-.75-.4v-1.3l.75.4v-1.25m15.75-4.9v1.55l-1.65-.8v-1.55l1.65.8m-2.3-1.1v8.6l-1.5-.8v-.9l-.9.35q-.55 0-1.05-.3-1.1-.5-1.85-1.75-.75-1.3-.75-2.85t.75-2l1.85.15q1.05.5 1.8 1.75V-22l1.65.85m2.3 3.5v6.2l-1.65-.8v-6.2l1.65.8m.35 3.2q0-.8.4-1.4.4-.55 1.15-.55.7-.05 1.65.4 1.4.75 2.3 2.1.9 1.35.9 2.75 0 1.45-.9 1.9l-2.3-.2q-.85-.45-1.65-1.25-.75-.8-1.15-1.75-.4-.95-.4-2m3.2-.2l-1.1-.1q-.45.3-.45 1.25 0 .9.45 1.6.45.75 1.1 1.05l1.1.05q.4-.25.4-1.15 0-.95-.4-1.7l-1.1-1m-9.85-4.6q-.4.3-.4 1.2l.3 1.6q.4.85 1.1 1.2.6.3 1 0t.4-1.25q0-1.05-.4-1.75-.4-.65-1-.95l-1-.05m-2.3-.5v1.9l.1 1.25.25 1-1.6-.85-.15-.55-.1-.25q-.4.25-.9.2l-1-.35q-.95-.45-1.5-1.3-.55-.8-.55-1.6l.25-.8q.25-.3.7-.25l1.3.25 1.6.45v-.15l-.25-.85-.85-.65-.7-.2-.4.45-1.5-1.05q.25-.75.85-.9.65-.1 1.85.5l1.65 1.1.75 1.05.2 1.6m-3.85.15l.3.75.65.55q.45.25.85.15l.4-.35.05-.75v-.35l-1-.3-.9-.15-.35.45m5.25 10v6.2l-1.55-.8v-.95q-.35.35-.9.35-.55.05-1.15-.3l-1.15-.85-.7-1.1-.2-1.55v-3.9l1.6.85v2.85l.1 1.65.35.6.6.55.75.1.45-.3q.15-.3.15-1.65v-2.6l1.65.85m1.1 1.25l1.85.15q1.05.5 1.8 1.75v-3.1l1.65.85v8.6l-1.5-.8v-.9q-.4.3-.9.35-.55 0-1.05-.3-1.1-.5-1.85-1.75Q-13-4.8-13-6.35t.75-2m1.2 4.35q.4.85 1.1 1.2.6.3 1 0t.4-1.25q0-1.05-.4-1.75l-1-.95-1-.05q-.4.3-.4 1.2l.3 1.6m4.75-4.4l1.65.8v1.55l-1.65-.8V-8.4m2.4 5q.4-.55 1.15-.55l1.65.4q1.4.75 2.3 2.1.9 1.35.9 2.75 0 1.45-.9 1.9-.9.5-2.3-.2l-1.65-1.25L-3.9 0q-.4-.95-.4-2 0-.8.4-1.4m1.25 2.35q0 .9.45 1.6l1.1 1.05 1.1.05Q.4 1.4.4.5q0-.95-.4-1.7l-1.1-1-1.1-.1q-.45.3-.45 1.25m-2-4.15V1L-6.3.2V-6l1.65.8" fill-opacity=".2"/></g></svg>