<svg xmlns="http://www.w3.org/2000/svg" width="321" height="242"><g transform="translate(0 180.55)"><path d="M241.55-123.55l78.95 39.4v5L160.55-159.1h-.2v.1L.25-78.85v-5.4H1l79.25-39.65.5-.25.1.05v-.05l1.85-.95 77.65-38.9.2-.1 4.8 2.4.1.05.55.25 73.25 36.65 1.35.65-.05.05h.05l.95.5" fill="#b9b8ac"/><path d="M160.35-159.1h.2l-.2.1v-.1M255.7-51.65l-2.5-1.25 2.8 1.1-.3.15m-175-72.5h.05l-.5.25.45-.25m158.55-.6l1.35.65-1.35-.65m-173 72.65l-.55.3-2.1 1 2.65-1.3" fill="#a59c7c"/><path d="M.25-78.75v-.1L160.35-159l.2-.1L320.5-79.15v59L256-51.8l-2.8-1.1-92.55-46.3v-.35h-.3v.15h-.05L66.25-52.1l-2.65 1.3-5.4 2.6-7.45 3.7L.35-19.85h-.1v-58.9" fill="#afaea0"/><path d="M160.35-99.4v-.15h.3l-.3.15" fill="#9e9572"/><path d="M43.6-40.8l22.1-10.8 94.6-47.6 95.4 47.75.3-.15 64.5 31.65v.4l-159.7 80.1V61L.35-19.65l5.2-2.5L21-29.6l15.35-7.65 7.25-3.55M80.95-44h-.05.05m79.8-39.95v.05l1.65.75-1.6-.8h-.05m79.9 40h.05l-.05-.05v.05" fill="#999"/><path d="M240.6-124.1v.05h-.05l.05-.05" fill="#e2e0d6"/><path d="M240.6 20.8h.05v.05l-.05-.05" fill="#d1ccc5"/><path d="M160.35-159.1v.1l.2-.1M.25-78.75v-.1L160.35-159v59.45m0 .15l.3-.15v.35l92.55 46.3 2.8 1.1 64.5 31.65v-59L160.55-159.1m-.2 0v-4.9L82.7-125.1m-1.85.95v.05l-.1-.05-.5.25L1-84.25M160.35-164l.2-.1 4.8 2.4.65.3 73.25 36.65m1.35.65v.05l.95.5 78.95 39.4v5M160.65-99.2l-.3-.15-.05-.05-94.05 47.3-.55.3m-2.1 1l-5.4 2.6-7.45 3.7-7.15 3.7m276.9 20.85v-.2M160.3-99.4h.05v-.15m-79.65-24.6h.05l1.95-.95M63.6-50.8l2.65-1.3M5.55-22.15L21-29.6l15.35-7.65 7.25-3.55m197-83.25h-.05l.05-.05-1.35-.65M253.2-52.9l2.5 1.25M240.6 20.8h.05v.05l-.05-.05" fill="none" stroke-width=".5" stroke-linecap="round" stroke-linejoin="round" stroke-miterlimit="3" stroke="#656045"/><path d="M148.25-153.25l-.1 1.3-.1.35-1-1.25-.05-.05q-.75-1.35-.75-3.5v-.5l-.55.15-1.25-.55 1.85-.55.15-4.05q-.75.55-1.65.75l-.5.2-2.05-.95q-1.55-.8-3.05-2-.9-.7.05-.8 1.75 1.1 4.2 2.2l.4.25 2.6-.2.45-11.35.55 3.35v.1l.05-.1q.55-1.15 1.75-1.9l.35-.05q-.2 1.1-1 1.95l-1.05.9.5 4.55q1.95-2.4 4.25-4.4h.1q-1.4 2.95-4.35 4.85l.3 7.4-.1 3.9M253.2-121.9l.15-4.4.55 3.45q.6-1.25 1.85-2l.3-.05q-.35 1.7-2.05 2.85l.2 1.45.3 3.1 1.1-1.25 3.15-3.15h.1q-1.05 2.15-2.8 3.75l-1.5 1.1v.65l.2 4.75-.1 7.2-.15.35q-1.9-1.6-1.75-5.3l-.6.1-1.25-.5 1.85-.55.15-3.75v-.3l-.15.1-1.5.65-.5.2q-1.75-.75-3.4-1.75l-1.7-1.2q-.9-.7.1-.8l3.1 1.7 1.05.5.4.25 1.95-.25.7.05v-.7l.25-6.25m-165.25-6.25l.05-2.3q-.75.55-1.65.75l-.5.2q-2.9-1.15-5.1-2.95-.9-.7.1-.8l4.15 2.2.4.25 2.65-.2.4-11.35.55 3.45q.6-1.25 1.85-2l.3-.05q-.35 1.7-2.05 2.85l.5 4.55 1.9-2.15 2.35-2.25h.1q-.95 2.05-2.45 3.4-.55.55-1.85 1.45l.2 4 .05 3.3.05.05-.05.25v.9l-.05.95v.9l-.1 2.25-.15.35q-1.2-1.05-1.55-2.7l-.6.3.25-.7.1-.2.1-.2-.05-1.35v-.45l-.6.1-1-.4-.25-.1 1.85-.55.1-1.75M151.5-162l.45-.2-.15.25q-.75 1.45-2.55 2.6l-.5.2q.85-1.55 2.7-2.8l.05-.05m-61.15 34.3q.4-.85 1.15-1.55l1.55-1.3.45-.2q-.6 1.3-2 2.35l-.65.5-.5.2m6.8-2.5q-.3 2.1-.05 0h.05m-1.2 1.6q-1 2.65-.05 0h.05m-1.2 4.75l.1.05 1.2.6.4.25q-1.05.55-1.85-.9h.15m2.65-.95q-.45.6-.75-.2l.15-2-.25-1.5v-.1h.2q.7 1 .9 2.15v1.1l-.1.35-.15.2m.55-4.2q-1 2.65-.05 0h.05m-14 7.6q.1 1.2-1.1 1.4l-.1-.15q.4-.85 1.1-1.25h.1m-4.3 2.35l-.4.05.05-.1.05-.15q.2-.55 1-.95h.4v.3l-.8.75-.3.1m-3.55-1.1l.25-.05v.05l-.3.95-.35.75-.25.25q-.3-.5-.2-.9.15-.55.85-1.05m-14.45 6.35q.45-.95 1.8-1.5l.5-.1q-.35.9-1.7 1.4l-.6.2m193.6 2.15q.85-1.6 2.7-2.85l.45-.2q-.75 1.6-2.65 2.85l-.5.2" fill="#358f30"/><linearGradient id="a" gradientUnits="userSpaceOnUse" gradientTransform="matrix(.04268 0 0 .04819 188.8 -114.7)" spreadMethod="pad" x1="-819.2" y1="0" x2="819.2" y2="0"><stop offset=".059" stop-color="#999"/><stop offset=".843" stop-color="#c6c6c6"/></linearGradient><path d="M137.5-134.55q-4.6-1.45-10.9 4.05l-4.6 1.7-3.85 1.45-.05-.1q2.1-1.3 2.85-2.75l.3-1.3.05-.35-.05-.6-.75-1.8-2-1.8q.5-2.15-.75-4.3l-.9-1.3q-4.25 1.75-5.4 3.6h-1l-2.55.15q-.9-2.05-4.05-2.8l42.4-15.7q0 2.15.75 3.5l.05.05 1 1.25.1-.35.1-1.3.1-3.9 7.15-2.65v18.55l-2.5.95-6 .45q-2.9 1-4.9 3.6l-4.6 1.7" fill="url(#a)"/><linearGradient id="b" gradientUnits="userSpaceOnUse" gradientTransform="matrix(.04268 0 0 .04819 188.8 -114.45)" spreadMethod="pad" x1="-819.2" y1="0" x2="819.2" y2="0"><stop offset=".059" stop-color="#999"/><stop offset=".843" stop-color="#c6c6c6"/></linearGradient><path d="M201.35-84.95l-4.6-6.05-10.9-14.25-1.7-2.15-9.75-12.75-1-1.3-9.95-12.9-.05-.1-5.65-7.35-2.25.8v-18.55l52.75-19.5v-.05q2.8.7 3.85 2.3l.05.1.25-.1 2.45-.9V-163.3h-1q-3.15.1-5.95 1.65l-3.2 2.4-4.7 1.75q-6.9-.35-10.95 4.1l-4.75 1.75q-6.9-.55-10.9 4.05l-4.75 1.75 4.95 6.5.05.05h-.05l10.25 13.55h.1l-.05.05 11.75 15.45h.1l-.1.05 10.6 13.95.2.05-.1.1 8.5 11.3v5.5l-1.5.65-1.65.95-1.35 1.25-1.25 1.55-7.75-10.05m3.55-82.75v-.05l-1.45.55 1.45-.5m-28.15 39.75h-.05q-.9 2.55.05 0" fill="url(#b)"/><linearGradient id="c" gradientUnits="userSpaceOnUse" gradientTransform="matrix(.00984 .01384 -.05205 .0245 161.25 -83.55)" spreadMethod="pad" x1="-819.2" y1="0" x2="819.2" y2="0"><stop offset=".059" stop-color="#999"/><stop offset=".843" stop-color="#c6c6c6"/></linearGradient><path d="M103.8-140.65v-.05h.05l-.05.05" fill="url(#c)"/><linearGradient id="d" gradientUnits="userSpaceOnUse" gradientTransform="matrix(.00713 .01218 -.08719 .05098 126.05 -140.9)" spreadMethod="pad" x1="-819.2" y1="0" x2="819.2" y2="0"><stop offset=".059" stop-color="#999"/><stop offset=".843" stop-color="#c6c6c6"/></linearGradient><path d="M63.95-113.2l-15.15 4.15 39.15-19.1-.1 1.75-1.85.55.25.1-.7.05 2.3.65v.05l-.2.15q-.2 1 0 1.5l.05.1-.25.7.6-.3q.35 1.65 1.55 2.7l.15-.35.1-2.25h1l.65.35.25.05-.15-.35-.1-.1-1.15-1.35h-.2q.15.65.45 1.1l-.75-.15v-.45l.1-.9 1.1.2-.2-.3-.95-.85.05-.25-.05-.05-.05-3.3 10.55-5.15q-.85 1.15-.85 2.4 0 1.3.8 2.4.8 1.1 2.4 2 2.85 1.6 6.8 1.8l-.25.1-1 .15v.15l-18.7 5.1-25.65 6.95m37.6-13.4l-.25.05q.1 1.8 1.95 1l-.1-.1q-1.1-.1-1.6-.95m-16.1 2.8l-1.05 1.15-.25-.1-.3.05-1.1.15.15.2q1.35.7 2.2.35-.5 1 .15 1.85l.15-.25q.4-1.65.95-3l-.2.05-.9 1.1-.2-.15-.25-.1q.85-.3.75-1.3h-.1m5.4-4.1l.65-.5q1.4-1.05 2-2.35l-.45.2-1.55 1.3q-.75.7-1.15 1.55l.5-.2m6.25-2.3q-.25 2.1.05 0h-.05m-1.2 1.6q-.95 2.65.05 0h-.05m-.9-1.15q-1.15 1.75.3 1.75H95.45l-.05-.15.15-.45h-.05l-.15.4-.05-.15q-.3-.75-.15-1.45l-.15.05m-3.35 2.05l-.15.25q-.7 1.5-.05 2.85l.05-.05.15-.2.3-2.95-.3.1m4.8 4.75l-.4-.25-1.2-.6-.1-.05 1.1-.15-.2-.2-1.4-.4-.7-1.2-.25.05q0 .6.25 1.05l-.4-.05v-1.05l-.4.1q-.5.55-.3 1.15l-.9.4 2 .3q-.15.95.5 1.3l.15-.25-.05-1h.1l.35-.05q.8 1.45 1.85.9m.2-2.05q.3.8.75.2l.05.25.3-.25.4-.7.5.15v-.25l-.3-.85v-.95q-.25-.1-.3.1H98l-.05-.1-.2.1-.1.75v.1q-.2-1.15-.9-2.15h-.2V-128.45l-.9 3.85.3-.2q.7-1.1.85-2.2l-.15 2m3.3-2.4l-.2.1q-.35 1.65.65 1.9l.05.05h.2v-.25l-.05-.2-.25-1.6-.3.1v.1l-.1-.2M97.9-129q-.95 2.65.05 0h-.05m-10.65 6.9q-.45 1.6.7 2.3l.1-.3-.5-2.1q-.25-.1-.3.1m-3.4.7q-.7.4-1.1 1.25l.1.15q1.2-.2 1.1-1.4h-.1m-4.55 2.3l-.45.5.5-.2.6-.35.8-.75.4-1 .15-.4 1.05-1.3-.45.2-.35.25v-.05l-.25.05-.75.85q-1.3 1.2-2.1 2.7.25-.05.4-.2l.5-.45-.05.15m-1.75-2.7l-.25.05q-1 .65-1.2 1.5-1.05.45-1.85 1.1l.4.15.6-.1q-.1.4.2.9l.25-.25.35-.75q1.95-.95 2.3-2.6l-.55.1-.5.5.25-.6m-5.6 3.45q-1.25-.1-1.4.95l.5.05q1.6 0 1.4-1h-.5m2.35-1.45q-1.7 2.55.05 0h-.05m-6.25 2q-2.05.75-3 2.65l.35.05q2-1.05 2.95-2.7h-.3m1.65-.75q-1.1.75-.45 2l.25-.05q.5-1 .45-2l-.25.05M62.25-114q1.35-.5 1.7-1.4l-.5.1q-1.35.55-1.8 1.5l.6-.2" fill="url(#d)"/><path d="M103.15-125.65l.1.1q-1.85.8-1.95-1l.25-.05q.5.85 1.6.95m-13.2 1.1l-.1.9.05-.95.05.05m8.4-1.9l.3.85v.25l-.5-.15q-.5-.3-.5-1.05l.1-.75.2-.1.05.1.35.85m2.05 1.05q-1-.25-.65-1.9l.2-.1.1.2.55 1.4.05.2v.25h-.15l-.1-.05m-24.05 5.25l.3-.3.65-.75.5-.5.55-.1q-.35 1.65-2.3 2.6l.3-.95m-3.9 1.8q.2 1-1.4 1l-.5-.05q.15-1.05 1.4-.95h.5m-4.1.55q-.95 1.65-2.95 2.7l-.35-.05q.95-1.9 3-2.65h.3m108.35-10.15h.05q-.95 2.55-.05 0" fill="#44bb3e"/><linearGradient id="e" gradientUnits="userSpaceOnUse" gradientTransform="matrix(.01209 0 0 .01071 119.8 -122.6)" spreadMethod="pad" x1="-819.2" y1="0" x2="819.2" y2="0"><stop offset=".059" stop-color="#999"/><stop offset=".843" stop-color="#c6c6c6"/></linearGradient><path d="M118.15-127.35l3.85-1.45 7.75 10.15-5.25-.15q-.75.2-1.75.8-1.95 1.25-3.2 4.25l-9.15-11.9h.05l2.65-.15 1.75-.35 2.6-.95.65-.35.05.1" fill="url(#e)"/><path d="M250.15-92.75q1.45-.2 3.9-1.55 1.4-1.3 2.6-2.05v43.55l-16.05 8.05h-.05v-.05l-79.85 40v15.15l-.15.1v-15.1l-6-3-30.8-15.4v-58.4l-14.3-7.15-.6-.75-.4.25h-.05l-.1-.05v.1h-.05l-3.85-1.9-13.1-6.6-.1 41.6q-.05 3.7-.15-20.25l-.15-21.55v14.25l.1 44.45v15l-.05 1.1-4.7 2.4L62.05-33v-79.2l1.9-1 25.65-6.95 18.7-5.1 1-.3.25-.1h.85l9.15 11.9 10.95 14.3 11.45 14.9 10.9 14.25 2.65 3.45v.25l9.75 12.65q1.65-2.55 4.2-3.75 2.35-1.2 5.5-1.2l.85-.05q1.45-.25 3.35-1.25l.7-.35.3-.6q1.3-2.75 3.6-3.9 2.2-1.1 5-1.2l.5-.05 1.2-.1q1.5-.3 3.7-1.5l.25-.5q1.45-2.55 3.85-3.7 2.05-1.05 4.65-1.2h1.25q1.75-.05 4.95-1.6l1.25-1.55 1.35-1.25 1.65-.95 1.5-.65.1-.05 1.75-.35 1.8-.2h.25q1.9.1 4.9-1.6 2.35-2.2 4.9-3.4 2.35-1.2 5.5-1.2 1.85.05 4.9-1.65 2.25-2.55 4.7-3.7 2.25-1.15 5.5-1.25l1-.05m-173.8-1.1l.75.85.95.15-.15 1-.5.15-.8.1-.25-.15-.75-.3q-.15.15.05.45l.75.95.55.35.2.3q.9 1.95 1.4 2.2.35.15.35-.5l-.1-1.6.05-.9.3-.2.5-.3.4-.65-.05-.35-.6.2-.4.1.05-.65 1-.15q.2-.1-.15-.45l-.6-.65.3-1.1-.8-.8-.1-.1q-.25-.3-.45-.2-.25.25 0 .95l-.1 1.25q-.55.1-2.15-.5 0 .25.35.55m3.9.6q0 1.95.4 2.95.35.9.75 1.1l.35.1.2.15v1.7l-.15.7v.3q.25.9.8 1.2l.35.05v-3.55l.4.2.55.35q.65.5 1.2-.6l.35-1.2-.65-1.1-.85-.8-.35-.2-1.85-.65-.35-.05v.25l.5.4.1.55-.75-.15-.3-.8-.4-.9h-.3m-8.85 5.7l.5.65.55.5-.7-.25.35.5.5.35.95.5v-.75q-.2-.6-.7-1l-.45-.3-1-.2m5.95-2.75l.5-.25-.1.75-.4-.5m-10.1 2.75l-.95-.75v.35l.35.65.5.55q.5.4.65.45l-.2 1.45-.95.15q-.6-.25-.45.35 0 .35.55.9l1 1.1q.6.7.75.1v-1.15l.05-.45L69.9-84l1.6.35.55.45.2.7q0 .3-1.1.25l-.65-.25-.65-.5q-.2.15-.05.5.15.4.55.75.25.25.85.5.8.4 1.45.25.65-.25.65-.9l-.5-1.2-1.1-1.05-1.05-.4-1.95-.25.2-1.15h.9q.35-.05.35-.45l-.5-.65-.6-.4-.1-1.25-.6-.85-.5-.3.25.7v.75l-.15 1-.7-.15m.3 3.9l-.05-.05.1-.2-.05.25h.05-.05m-2.05 7.7q.05 1.2-.2 1.4l-.25.55.35.6.6.75 1.6.25q1.1.05 1.95-.4l.25-.45-1.25-.05.05-.3-.05-.45.3.3.8.25-.1-.5-.9-.75v-.2l1.05.05q.15-.15-.1-.45l-.35-.4.5-.05.35-.1-.85-1.2-.5-.3q.05-.6.25-.7l-.95-1.05-.5-.15q-.15.25.2.5l.15.2v.95l-.5-.05-.1.05-.4-.65-.5.5.1.3.3.6q.35.4.5.2.2-.35.5-.3v.4l-1.35.1v-.05l.1-.25q-.3-.6-1.4-1.2 0 .35.15.55l.15.4.05 1.1m1 .25l-.05-.05q-.05-.2.05-.2v.25l.45.3-.5.3-.05.65.5.4.75-.1-.2.2.2.5-1.35-.3.1-.6v-.1l-.1-.55.15-.1.05-.6m2.3-1.15l-.05.2v-.2h.05m1.25 2.25l-.25 1q0 .55.45 1.1l.55.1.3-1.15h.4l.4.55.05 1.05-.15 1.15q-.15.85-.9 1.2l-.05.2.3.35 1.4-.1q.55-.5.55-1.4L73-72q-.15-.85-.65-1.3l1 .4q.75.3 1 .25.2-.2.05-.5l-.45-.35-.55-.35-2.3-.45-.3-.85q0-.6.3-.65l1.75-.4.05-.25-.9-.9-.5-.1-.3.3-.75.95q-.25.45-.4 1.6m9.5-9.8l.15 1.4-.05 1.4q-.15.35-.2 1.6-.2 1.45.6 2.75.45 1.05 2.4 2.9.3.2.3 0L81.6-76.5q-.8-1.3-.95-2l-.1-1.25.15-1.6-.1-1.5q-.1-1.05-.75-1.8l-.4-.3.1.55M78.6-73l-.25-.2-.1.2q.65 1 1.5 1.65l-.05.35q-.4.05-1.25-.3-.45-.25-.35.1.8 1 1.65 1.35l.9.25 1 .25q.5.05.4-.3l-.3-.45-.65-.5.05-.3.45.1.75-.05-.15-.5-.8-.65-.25-.15-.05-.85-1.35-1.3q-1 0-.2.6l.25.25.05.45v.35l-.05.4-.15-.1L78.6-73m-.45 3.2q.3.2 1.2.65 1.15.5 2.65.85l.55.45-.15.1-.7-.1-.7-.65-.75-.15.5.75-.15 1.1v.35q0 1.35 1 2.3.9.95 2.05 1.5l.75.1.05-.35-.7-.85-1.2-.8q-.75-.4-.7-1.2l.3-1-.25-.6.45.45 2.2.4v-.4l-.95-1-1.05-.8-3.8-1.4-.55-.25q-.35-.15-.6-.25h-.1l-.2-.25-.05-.15-.05-.3q-.45.15-.45.85l-.3.75q-.05.3.65 1.1.35.3.6-.25l.3-.95h.15m.8 1.7l-.25.65q-.3.45-1.15.65l-.6-.45-.15.05q.3 1 1.05 1.3 1.45.5 2.15-1.05l.15-.35-.3-.7-1-1.2-.35-.1.45 1.2m-7.2 3.05q-.05-1.1-.5-1.8l-.6-.5-.3.1.3.35-.15 5.35q-.15 1.35-1.25 2.15-.15.25.15.4 2.45-.1 2.45-3.65l-.1-2.4m7.55 2.85l-.65 1.4-.1.85.1.9q.05.5.5 1.1l.5.05.05-.4.25-1.45-.1-.5-.3.5.4-1.15.35-1.1q.05-.65-.25-1.05l-.4-.4q0 .7-.35 1.25m-10.65-6.75q0 .7-.35 1.25l-.65 1.4-.1.85.1.9q.05.5.5 1.1l.5.05.05-.4.25-1.45-.1-.5-.3.5.4-1.15.35-1.1q.05-.65-.25-1.05l-.4-.4M80.4-53.5q2.45-.1 2.45-3.65l-.1-2.4q-.05-1.1-.5-1.8l-.6-.5-.3.1.3.35-.15 5.35q-.15 1.35-1.25 2.15-.15.25.15.4m74.7-12.8l-.55-.65v.95l.55-.3m-51.7-25.4v.05h.05l-.05-.05m-19.25 1q-.1 1-.45 1.15l-.3.25-.4-.15.05-.45.7-.1q-.05-.6-.65-.9l-.15-.65.55.3.6.45.05.1m-2.6.5l-.15-.5.3.1.25.15-.4.25m.35.3h.05v-.05l-.05.05m8.35 66.55l.3.15-.3-.15m147-52.45v7.65l-.25.1-.2-12.55.4-.2.05 5m13.05 8.6v-6.95l.2-.1-.15-7.7.15-.05-.1-4.6-.1-4.6-35.45 16.8v.05L169.9-53v34.8l44.95-22.5v-.05l35.45-17.8V-67.2m-63.8 38.3l-.05.05V-29l.05.1" fill="#d1ccc5"/><path d="M85.55-123.8q.1 1-.75 1.3l.25.1.2.15.9-1.1.2-.05q-.55 1.35-.95 3l-.15.25q-.65-.85-.15-1.85-.85.35-2.2-.35l-.15-.2 1.1-.15.3-.05.25.1 1.05-1.15h.1m0-1.9l.7-.05 1 .4.6-.1v.4l-2.3-.65m2.1 2.35q-.2-.5 0-1.5l.2-.15.05 1.35-.1.2-.15.1m2.25-1.25v-.9l.95.85.2.3-1.1-.2-.05-.05m1.45 1.85l-.4-.2-.35-.1q-.3-.45-.45-1.1h.2l1.15 1.35.1.1.15.35-.25-.05-.65-.35h.5m3.8-7.05q-.15.7.15 1.45l.05.15.15-.4h.05l-.15.45.05.15H95.3q-1.45 0-.3-1.75l.15-.05m-3.2 2l-.3 2.95-.15.2-.05.05q-.65-1.35.05-2.85l.15-.25.3-.1m2.65 3.95l-.35.05h-.1l.05 1-.15.25q-.65-.35-.5-1.3l-2-.3.9-.4q-.2-.6.3-1.15l.4-.1v1.05l.4.05q-.25-.45-.25-1.05l.25-.05.7 1.2 1.4.4.2.2-1.1.15h-.15m2.2-3.15q-.15 1.1-.85 2.2l-.3.2.9-3.85v-.05l.25 1.5m.75 2l.1-.35V-126.55q0 .75.5 1.05l-.4.7-.3.25-.05-.25.15-.2m.45-2.3h.05q.05-.2.3-.1v.95l-.35-.85m2.05.1v-.1l.3-.1.25 1.6-.55-1.4m.45 1.85h-.05l-.05-.05.1.05m-12.95 3.15l.5 2.1-.1.3q-1.15-.7-.7-2.3.05-.2.3-.1m-6.8 2h-.4q-.8.4-1 .95l-.5.45q-.15.15-.4.2.8-1.5 2.1-2.7l.75-.85.25-.05v.05l.35-.25.45-.2-1.05 1.3-.15.4-.4 1v-.3m-.8 1.05l-.6.35-.5.2.45-.5-.05.1.4-.05.3-.1m-3.85-1.1q.2-.85 1.2-1.5l.25-.05-.25.6-.65.75-.55.2m-1.75.45q-1.75 2.55-.05 0h.05m-4.4 1.2q.05 1-.45 2l-.25.05q-.65-1.25.45-2l.25-.05" fill="#86d582"/><path d="M87.65-123.35l.15-.1-.1.2-.05-.1m3.2.6h-1v-.45l.75.15.35.1.4.2h-.5m-14.2 2.3l-.3.3v-.05l-.25.05q-.7.5-.85 1.05l-.6.1-.4-.15q.8-.65 1.85-1.1l.55-.2" fill="#6dcc68"/><linearGradient id="f" gradientUnits="userSpaceOnUse" gradientTransform="matrix(.00899 0 0 .00888 156.25 -140.35)" spreadMethod="pad" x1="-819.2" y1="0" x2="819.2" y2="0"><stop offset=".059" stop-color="#999"/><stop offset=".843" stop-color="#c6c6c6"/></linearGradient><path d="M155.5-141v4l-2.5-3.3 2.5-.95v.25" fill="url(#f)"/><linearGradient id="g" gradientUnits="userSpaceOnUse" gradientTransform="matrix(.00899 0 0 .00888 156.25 -140.1)" spreadMethod="pad" x1="-819.2" y1="0" x2="819.2" y2="0"><stop offset=".059" stop-color="#999"/><stop offset=".843" stop-color="#c6c6c6"/></linearGradient><path d="M155.5-141l2.25-.8 5.65 7.35.05.1-4.9 1.6v-.05l-3.05-3.95V-141" fill="url(#g)"/><linearGradient id="h" gradientUnits="userSpaceOnUse" gradientTransform="matrix(.01209 0 0 .01071 148.6 -137)" spreadMethod="pad" x1="-819.2" y1="0" x2="819.2" y2="0"><stop offset=".059" stop-color="#999"/><stop offset=".843" stop-color="#c6c6c6"/></linearGradient><path d="M155.5-133.5q-2.25 0-3.95 1.1-1.95 1.3-3.1 3.95l-.1.3-6.25-8.1q2-2.6 4.9-3.6l6-.45 2.5 3.3v3.5" fill="url(#h)"/><linearGradient id="i" gradientUnits="userSpaceOnUse" gradientTransform="matrix(.009 0 0 .0092 151.35 -120.05)" spreadMethod="pad" x1="-819.2" y1="0" x2="819.2" y2="0"><stop offset=".059" stop-color="#999"/><stop offset=".843" stop-color="#c6c6c6"/></linearGradient><path d="M155.5-118.8v1.1l-3.3-4.85h-.15l-2.7-.05q-1.4-.75-2.35-.95l-1.4-.2-1.65-2.2h.1l4.75-1.55 6.7 8.7" fill="url(#i)"/><linearGradient id="j" gradientUnits="userSpaceOnUse" gradientTransform="matrix(.00882 0 0 .00894 141.6 -133.35)" spreadMethod="pad" x1="-819.2" y1="0" x2="819.2" y2="0"><stop offset=".059" stop-color="#999"/><stop offset=".843" stop-color="#c6c6c6"/></linearGradient><path d="M137.5-134.55l4.6-1.7 6.25 8.1.45.65-4.75 1.55-.15-.05-6.4-8.55" fill="url(#j)"/><linearGradient id="k" gradientUnits="userSpaceOnUse" gradientTransform="matrix(.01253 0 0 .012 158.6 -123.75)" spreadMethod="pad" x1="-819.2" y1="0" x2="819.2" y2="0"><stop offset=".059" stop-color="#999"/><stop offset=".843" stop-color="#c6c6c6"/></linearGradient><path d="M148.8-127.5l-.45-.65.1-.3q1.15-2.65 3.1-3.95 1.7-1.1 3.95-1.1v14.7l-6.7-8.7" fill="url(#k)"/><linearGradient id="l" gradientUnits="userSpaceOnUse" gradientTransform="matrix(.04268 0 0 .04819 159.2 -101.1)" spreadMethod="pad" x1="-819.2" y1="0" x2="819.2" y2="0"><stop offset=".059" stop-color="#999"/><stop offset=".843" stop-color="#c6c6c6"/></linearGradient><path d="M155.5-92.8l-10.7-14-.35-.45-9.9-12.9-.75-.95-7.2-9.4q6.3-5.5 10.9-4.05l6.4 8.55.15.05h-.1l1.65 2.2h-.15q-1.45.1-2.15 1.45l7.2 10.35.55.75q1-.85 2.6-.85h.8l1.05 1.4v17.85" fill="url(#l)"/><linearGradient id="m" gradientUnits="userSpaceOnUse" gradientTransform="matrix(.01209 0 0 .01071 148.6 -136.75)" spreadMethod="pad" x1="-819.2" y1="0" x2="819.2" y2="0"><stop offset=".059" stop-color="#999"/><stop offset=".843" stop-color="#c6c6c6"/></linearGradient><path d="M155.5-133.5v-3.25l3.05 3.95-3.05-.45v-.25" fill="url(#m)"/><linearGradient id="n" gradientUnits="userSpaceOnUse" gradientTransform="matrix(.01253 0 0 .012 158.6 -123.5)" spreadMethod="pad" x1="-819.2" y1="0" x2="819.2" y2="0"><stop offset=".059" stop-color="#999"/><stop offset=".843" stop-color="#c6c6c6"/></linearGradient><path d="M168.85-119.2q-3.75-.1-6.1 1.45-2.15 1.35-3.35 3.95l-.1.2-.55-.75-3.25-4.2v-14.7l3.05.45v.05l10.3 13.55" fill="url(#n)"/><linearGradient id="o" gradientUnits="userSpaceOnUse" gradientTransform="matrix(.00899 0 0 .00888 127.45 -125.95)" spreadMethod="pad" x1="-819.2" y1="0" x2="819.2" y2="0"><stop offset=".059" stop-color="#999"/><stop offset=".843" stop-color="#c6c6c6"/></linearGradient><path d="M129.75-118.6v-.05L122-128.8l4.6-1.7 7.2 9.4.75.95-4.8 1.55" fill="url(#o)"/><linearGradient id="p" gradientUnits="userSpaceOnUse" gradientTransform="matrix(.01253 0 0 .012 129.8 -109.35)" spreadMethod="pad" x1="-819.2" y1="0" x2="819.2" y2="0"><stop offset=".059" stop-color="#999"/><stop offset=".843" stop-color="#c6c6c6"/></linearGradient><path d="M119.55-113.75q1.25-3 3.2-4.25 1-.6 1.75-.8l5.25.15v.05l10.3 13.55q-3.75-.1-6.1 1.45-2.25 1.35-3.45 4.15l-10.95-14.3" fill="url(#p)"/><linearGradient id="q" gradientUnits="userSpaceOnUse" gradientTransform="matrix(.01303 0 0 .01253 141.2 -94.9)" spreadMethod="pad" x1="-819.2" y1="0" x2="819.2" y2="0"><stop offset=".059" stop-color="#999"/><stop offset=".843" stop-color="#c6c6c6"/></linearGradient><path d="M155.5-91.5v6.75l-3.65-4.8-4.85.45-1.4.45q-3 1.3-3.65 4.1l-11.45-14.9q1.2-2.8 3.45-4.15 2.35-1.55 6.1-1.45l11.8 15.5 3.65-2.2m0 0v.25" fill="url(#q)"/><linearGradient id="r" gradientUnits="userSpaceOnUse" gradientTransform="matrix(.00908 0 0 .00928 137.2 -112.7)" spreadMethod="pad" x1="-819.2" y1="0" x2="819.2" y2="0"><stop offset=".059" stop-color="#999"/><stop offset=".843" stop-color="#c6c6c6"/></linearGradient><path d="M140.05-105.05l-10.3-13.55 4.8-1.55 9.9 12.9-4.4 2.2" fill="url(#r)"/><linearGradient id="s" gradientUnits="userSpaceOnUse" gradientTransform="matrix(.009 0 0 .0092 151.35 -119.8)" spreadMethod="pad" x1="-819.2" y1="0" x2="819.2" y2="0"><stop offset=".059" stop-color="#999"/><stop offset=".843" stop-color="#c6c6c6"/></linearGradient><path d="M155.5-117.7v-.85l3.25 4.2-.8.45-2.45-3.55v-.25" fill="url(#s)"/><linearGradient id="t" gradientUnits="userSpaceOnUse" gradientTransform="matrix(.00656 .00255 0 .00568 154.65 -117)" spreadMethod="pad" x1="-819.2" y1="0" x2="819.2" y2="0"><stop offset=".059" stop-color="#999"/><stop offset=".843" stop-color="#c6c6c6"/></linearGradient><path d="M155.5-117.55v3.95l-6.15-9 2.7.05h.15l3.3 4.85v.15" fill="url(#t)"/><linearGradient id="u" gradientUnits="userSpaceOnUse" gradientTransform="matrix(.00838 .00327 .00003 .00662 150.2 -117.05)" spreadMethod="pad" x1="-819.2" y1="0" x2="819.2" y2="0"><stop offset=".059" stop-color="#999"/><stop offset=".843" stop-color="#c6c6c6"/></linearGradient><path d="M150.5-111.95l-7.2-10.35q.7-1.35 2.15-1.45h.15l1.4.2q.95.2 2.35.95l6.15 9v1.75l-1.05-.2h-.8q-1.6 0-2.6.85l-.55-.75" fill="url(#u)"/><linearGradient id="v" gradientUnits="userSpaceOnUse" gradientTransform="matrix(.00656 .00255 0 .00568 154.65 -116.75)" spreadMethod="pad" x1="-819.2" y1="0" x2="819.2" y2="0"><stop offset=".059" stop-color="#999"/><stop offset=".843" stop-color="#c6c6c6"/></linearGradient><path d="M160.05-110.75l-.35.05-2.65-.4-1.55-2.25V-117.45l2.45 3.55 2.15 3.15h-.05" fill="url(#v)"/><linearGradient id="w" gradientUnits="userSpaceOnUse" gradientTransform="matrix(.00838 .00327 .00003 .00662 150.2 -116.8)" spreadMethod="pad" x1="-819.2" y1="0" x2="819.2" y2="0"><stop offset=".059" stop-color="#999"/><stop offset=".843" stop-color="#c6c6c6"/></linearGradient><path d="M155.5-111.6v-1.75l1.55 2.25-1.55-.5" fill="url(#w)"/><linearGradient id="x" gradientUnits="userSpaceOnUse" gradientTransform="matrix(.00984 0 0 .01079 162.25 -105.8)" spreadMethod="pad" x1="-819.2" y1="0" x2="819.2" y2="0"><stop offset=".059" stop-color="#999"/><stop offset=".843" stop-color="#c6c6c6"/></linearGradient><path d="M155.5-111.6v.95l-1.05-1.4 1.05.2v.25" fill="url(#x)"/><linearGradient id="y" gradientUnits="userSpaceOnUse" gradientTransform="matrix(.00984 0 0 .01079 162.25 -105.55)" spreadMethod="pad" x1="-819.2" y1="0" x2="819.2" y2="0"><stop offset=".059" stop-color="#999"/><stop offset=".843" stop-color="#c6c6c6"/></linearGradient><path d="M157.05-111.1l2.65.4.35-.05h.05l-2.15-3.15.8-.45.55.75 11.05 14.4-4.2 2.55h-.3L155.5-110.4v-1.2l1.55.5" fill="url(#y)"/><linearGradient id="z" gradientUnits="userSpaceOnUse" gradientTransform="matrix(.01303 0 0 .01253 170 -109.05)" spreadMethod="pad" x1="-819.2" y1="0" x2="819.2" y2="0"><stop offset=".059" stop-color="#999"/><stop offset=".843" stop-color="#c6c6c6"/></linearGradient><path d="M180.65-103.7q-3.9-.05-6.25.9-2.9 1.2-3.65 4v.1l-.4-.5-11.05-14.4.1-.2q1.2-2.6 3.35-3.95 2.35-1.55 6.1-1.45l11.8 15.5" fill="url(#z)"/><linearGradient id="A" gradientUnits="userSpaceOnUse" gradientTransform="matrix(.00981 0 0 .01083 148.1 -98.5)" spreadMethod="pad" x1="-819.2" y1="0" x2="819.2" y2="0"><stop offset=".059" stop-color="#999"/><stop offset=".843" stop-color="#c6c6c6"/></linearGradient><path d="M155.5-92.8v1.05l-3.65 2.2-11.8-15.5 4.4-2.2.35.45 10.7 14" fill="url(#A)"/><path d="M103.1 3.65l-31.9-16h-.05L91-22.3l.5-.25.15-.05.5.25 1.45.7 2.6 1.25 1.9 1 10.65 5.5V.85l-5.65 2.8m.3-16.1h.05l-.05-.05v.05m1.25.5h.05l-.05-.05v.05M250.4-86.6l-.1.05-13.1 5.75-.4.2-21.95 10.4v.05l-3.45 1.6-4.4 2.1-4.35 2.05-4 1.95-12.2 5.75L173-50.3v11.7l-.3.15.3 16.25 6.7-3.35 6.75-3.45v.15l.05-.05 24.9-12.55 3.45-1.75v-.05l9.7-4.9 12.7-6.4 13.05-6.55v2.55l-35.45 17.8v.05L169.9-18.2V-53l44.95-21.35v-.05l35.45-16.8.1 4.6" fill="#ccc"/><path d="M108.75.85v4l-5.65 2.8-31.95-16 .05-4 31.9 16 5.65-2.8m6.85-43.95q.45 1.35.45 3.2t-.45 3.15q-.3 1.1-.8 1.3l-.2.05h-.1q-.55-.1-.95-1.35-.4-1.3-.4-3.15 0-1.85.4-3.2.4-1.2.95-1.25H114.8q.5.2.8 1.25" fill="#999"/><linearGradient id="B" gradientUnits="userSpaceOnUse" gradientTransform="matrix(.04268 0 0 .04819 159.2 -100.85)" spreadMethod="pad" x1="-819.2" y1="0" x2="819.2" y2="0"><stop offset=".059" stop-color="#999"/><stop offset=".843" stop-color="#c6c6c6"/></linearGradient><path d="M188.75-66.25q-2.8.1-5 1.2-2.3 1.15-3.6 3.9l-.3.6-11.8-15.65-.9-1.2-.95-1.25-9.95-13-.2-.2-.55-.7v-17.85l10.35 13.75 9.45 3.9 6.15 8.05-4.6 2.1-.5-.1 12.4 16.45m-5.05-4.45l.35-.05h.05l-7.9-11.55h-.15l-2.7-.05-.7-.35q-1.85-.9-3.2-.8-1.45.1-2.15 1.45l1.3 1.85 6.45 9.25q1-.85 2.6-.85l1.5.15 1.9.55q1.1.5 2.65.4" fill="url(#B)"/><linearGradient id="C" gradientUnits="userSpaceOnUse" gradientTransform="matrix(.00981 0 0 .01083 148.1 -98.25)" spreadMethod="pad" x1="-819.2" y1="0" x2="819.2" y2="0"><stop offset=".059" stop-color="#999"/><stop offset=".843" stop-color="#c6c6c6"/></linearGradient><path d="M155.5-91.5v-1.05l.55.7-.55.35" fill="url(#C)"/><linearGradient id="D" gradientUnits="userSpaceOnUse" gradientTransform="matrix(.01303 0 0 .01253 141.2 -94.65)" spreadMethod="pad" x1="-819.2" y1="0" x2="819.2" y2="0"><stop offset=".059" stop-color="#999"/><stop offset=".843" stop-color="#c6c6c6"/></linearGradient><path d="M166.2-78.65l.95 1.3-4.6 2.1-7.05-9.25v-7l.55-.35.2.2 9.95 13" fill="url(#D)"/><linearGradient id="E" gradientUnits="userSpaceOnUse" gradientTransform="matrix(.01257 0 0 .01175 152.2 -80)" spreadMethod="pad" x1="-819.2" y1="0" x2="819.2" y2="0"><stop offset=".059" stop-color="#999"/><stop offset=".843" stop-color="#c6c6c6"/></linearGradient><path d="M152.85-70.3l-10.9-14.25q.65-2.8 3.65-4.1l1.4-.45 4.85-.45 3.65 4.8v10.45q-1.75 1.35-2.65 4" fill="url(#E)"/><linearGradient id="F" gradientUnits="userSpaceOnUse" gradientTransform="matrix(.01257 0 0 .01175 152.2 -79.75)" spreadMethod="pad" x1="-819.2" y1="0" x2="819.2" y2="0"><stop offset=".059" stop-color="#999"/><stop offset=".843" stop-color="#c6c6c6"/></linearGradient><path d="M162.55-75.25q-3.8-.75-6.25.65l-.8.55V-84.5l7.05 9.25" fill="url(#F)"/><linearGradient id="G" gradientUnits="userSpaceOnUse" gradientTransform="matrix(.01347 0 0 .01314 163.9 -65.05)" spreadMethod="pad" x1="-819.2" y1="0" x2="819.2" y2="0"><stop offset=".059" stop-color="#999"/><stop offset=".843" stop-color="#c6c6c6"/></linearGradient><path d="M155.5-74.3v7.45l-2.65-3.45q.9-2.65 2.65-4" fill="url(#G)"/><path d="M154.55-66v-.95l.55.65-.55.3m-51.1-25.65h-.05v-.05l.05.05m4.95 2.55h.05l.4-.25.6.75-1.05-.5m-5 76.6l.05.05h-.05v-.05" fill="#e2e0d6"/><linearGradient id="H" gradientUnits="userSpaceOnUse" gradientTransform="matrix(.01347 0 0 .01314 163.9 -64.8)" spreadMethod="pad" x1="-819.2" y1="0" x2="819.2" y2="0"><stop offset=".059" stop-color="#999"/><stop offset=".843" stop-color="#c6c6c6"/></linearGradient><path d="M174.95-58.9q-3.15 0-5.5 1.2-2.55 1.2-4.2 3.75L155.5-66.6v-7.45l.8-.55q2.45-1.4 6.25-.65l12.4 16.35" fill="url(#H)"/><path d="M91-25.2V-39.05l-.1-44.45v-14.25l.15 21.55q.1 23.95.15 20.25l.1-41.6 13.1 6.6 3.85 1.9h.05v-.1l.1.05 1.05.5 14.3 7.15v58.4l-15-7.55v16.35L96.2-20.4l-2.6-1.25-1.45-.7-.5-.25-.45-.25-.2-.05v-.05h-.05l.05-1.1v-1.15m7.1-38.25l12.35 5.85 6.85 3.25v-12.2l-7.2-3.5-3.15-1.55-3.25-1.6-2.05-1-3.55-1.75v12.5m19.75 27.55h.2l.25-.05.65-1.15.4-2.8-.4-2.9q-.35-1.15-.9-1.15l-3.25-.4H114.5q-.55.05-.95 1.25-.4 1.35-.4 3.2t.4 3.15q.4 1.25.95 1.35h.1l.2-.05 3.05-.45" fill="#b77373"/><path d="M103.7-73.2l3.25 1.6-8.85 5v-3.15l5.6-3.45m-5.6 1.25v-4l3.55 1.75-3.55 2.25m12 1.9l7.2 3.5v12.2l-6.85-3.25-12.35-5.85 12-6.6m3 9.1l-1.25-1.3-.8.8 1.1 1.1L113.5-59l.8-.75-1.2-1.2" fill="#e4fcfa"/><path d="M101.65-74.2l2.05 1-5.6 3.45v-2.2l3.55-2.25M98.1-63.45v-3.15l8.85-5 3.15 1.55-12 6.6m16.2 3.7l-.8.75-1.35-1.35-1.1-1.1.8-.8 1.25 1.3 1.2 1.2m84.35-2.7l4-1.95-16.2 19.4v-3.6l12.2-13.85m-12.35 24.8l.15-.2L207-66.45l4.4-2.1.1 4.8-.1.15-24.95 32.25-.05.05-.1-6.35m47.75-23.7l-1.5 2-2.45-3.05-2.55-3.25 1.45-2 2.8 3.5 2.25 2.8m-8.3 6.05l2.65 3.25-1.5 2-1.95-2.4-3.05-3.9 1.45-2 2.4 3.05" fill="#fff"/><path d="M114.8-44.35l3.25.4q.55 0 .9 1.15l.4 2.9-.4 2.8-.65 1.15-.25.05h-.2l-3.05.45q.5-.2.8-1.3.45-1.3.45-3.15 0-1.85-.45-3.2-.3-1.05-.8-1.25" fill="#666"/><linearGradient id="I" gradientUnits="userSpaceOnUse" gradientTransform="matrix(.00932 0 0 .01016 249 -123.65)" spreadMethod="pad" x1="-819.2" y1="0" x2="819.2" y2="0"><stop offset=".059" stop-color="#999"/><stop offset=".843" stop-color="#c6c6c6"/></linearGradient><path d="M245.65-131.9l7.55 10-.25 6.25-.9.4-10.7-14.05 4.3-2.6m8.85 14.4l-.3-3.1 1.4 1.85-1.1 1.25m.05.45l1.5-1.1.6.8-2.1.95v-.65" fill="url(#I)"/><linearGradient id="J" gradientUnits="userSpaceOnUse" gradientTransform="matrix(.01057 0 0 .01126 260.7 -108.25)" spreadMethod="pad" x1="-819.2" y1="0" x2="819.2" y2="0"><stop offset=".059" stop-color="#999"/><stop offset=".843" stop-color="#c6c6c6"/></linearGradient><path d="M256.65-117.35l12.7 16.8q-3.05 1.7-4.9 1.65l-9.7-12.75-.2-4.75 2.1-.95m-.9 5.5q1.9-1.25 2.65-2.85l-.45.2q-1.85 1.25-2.7 2.85l.5-.2m-3.7-3.4l.9-.4v.7l-.7-.05-.2-.25m.7.95l.15-.1v.3l-.15-.2" fill="url(#J)"/><linearGradient id="K" gradientUnits="userSpaceOnUse" gradientTransform="matrix(.01257 0 0 .01175 241.7 -119.75)" spreadMethod="pad" x1="-819.2" y1="0" x2="819.2" y2="0"><stop offset=".059" stop-color="#999"/><stop offset=".843" stop-color="#c6c6c6"/></linearGradient><path d="M231.45-124.3q.65-2.8 3.65-4.1 2.35-.95 6.25-.9l10.7 14.05-3.2-.25-3.1-1.7q-1 .1-.1.8l1.7 1.2-1.55.6q-2.3 1.25-3.45 4.55l-10.9-14.25" fill="url(#K)"/><linearGradient id="L" gradientUnits="userSpaceOnUse" gradientTransform="matrix(.01347 0 0 .01314 253.4 -104.8)" spreadMethod="pad" x1="-819.2" y1="0" x2="819.2" y2="0"><stop offset=".059" stop-color="#999"/><stop offset=".843" stop-color="#c6c6c6"/></linearGradient><path d="M250.75-113.45l.5-.2 1.5-.65.15.2-.15 3.75-1.85.55 1.25.5.6-.1q-.15 3.7 1.75 5.3l.15-.35.1-7.2 9.7 12.75q-3.15 0-5.5 1.2-1.15.5-2.3 1.35-1.2.75-2.6 2.05l-7.35-9.8-4.35-5.95q1.15-3.3 3.45-4.55l1.55-.6q1.65 1 3.4 1.75m-1.9-2.05l3.2.25.2.25-1.95.25-.4-.25-1.05-.5" fill="url(#L)"/><linearGradient id="M" gradientUnits="userSpaceOnUse" gradientTransform="matrix(.04268 0 0 .04819 188.7 -114.45)" spreadMethod="pad" x1="-819.2" y1="0" x2="819.2" y2="0"><stop offset=".059" stop-color="#999"/><stop offset=".843" stop-color="#c6c6c6"/></linearGradient><path d="M214.85-171.4v-6.35l6.35-2.3.6.8q1.65 2.4 1.05 4.85l1.95 1.75.6 1.15.15.5.1.75q-.05 2.6-3.2 4.4l-.05.05-1.95.7-4.95 1.8h-.65v-8.1m0 86.7l3.65 4.8-1.8.2-1.75.35-.1.05v-5.4" fill="url(#M)"/><linearGradient id="N" gradientUnits="userSpaceOnUse" gradientTransform="matrix(.01209 0 0 .01071 209.4 -162.35)" spreadMethod="pad" x1="-819.2" y1="0" x2="819.2" y2="0"><stop offset=".059" stop-color="#999"/><stop offset=".843" stop-color="#c6c6c6"/></linearGradient><path d="M203.45-167.2l1.45-.55v.05l-1.45.5m5.5 13.5l-4.25-5.55 3.2-2.4q2.8-1.55 5.95-1.65h1v4.6l-1 .25-1.1.45-.4.25q-2 1.25-3.15 4.1l-.05.15-.2-.2" fill="url(#N)"/><linearGradient id="O" gradientUnits="userSpaceOnUse" gradientTransform="matrix(.01209 0 0 .01071 209.3 -162.35)" spreadMethod="pad" x1="-819.2" y1="0" x2="819.2" y2="0"><stop offset=".059" stop-color="#999"/><stop offset=".843" stop-color="#c6c6c6"/></linearGradient><path d="M219.25-158.4l-3.15-.45-1.15.1h-.1v-4.55h.65l3.75 4.9" fill="url(#O)"/><linearGradient id="P" gradientUnits="userSpaceOnUse" gradientTransform="matrix(.00899 0 0 .00888 216.95 -165.7)" spreadMethod="pad" x1="-819.2" y1="0" x2="819.2" y2="0"><stop offset=".059" stop-color="#999"/><stop offset=".843" stop-color="#c6c6c6"/></linearGradient><path d="M215.5-163.3l4.95-1.8 3.9 5.1-5.1 1.65v-.05l-3.75-4.9" fill="url(#P)"/><linearGradient id="Q" gradientUnits="userSpaceOnUse" gradientTransform="matrix(.00528 .00912 -.00375 .00217 211.45 -146.55)" spreadMethod="pad" x1="-819.2" y1="0" x2="819.2" y2="0"><stop offset=".059" stop-color="#999"/><stop offset=".843" stop-color="#c6c6c6"/></linearGradient><path d="M214.85-138.85v.05l-.4.2-10.4-13.55 4.9-1.55.2.2 5.7 7.5V-138.85" fill="url(#Q)"/><linearGradient id="R" gradientUnits="userSpaceOnUse" gradientTransform="matrix(.00517 .00894 -.0037 .00215 201.65 -159.35)" spreadMethod="pad" x1="-819.2" y1="0" x2="819.2" y2="0"><stop offset=".059" stop-color="#999"/><stop offset=".843" stop-color="#c6c6c6"/></linearGradient><path d="M204.7-159.25l4.25 5.55-4.9 1.55-4.05-5.35 4.7-1.75" fill="url(#R)"/><linearGradient id="S" gradientUnits="userSpaceOnUse" gradientTransform="matrix(.04268 0 0 .04819 219.2 -127.25)" spreadMethod="pad" x1="-819.2" y1="0" x2="819.2" y2="0"><stop offset=".059" stop-color="#999"/><stop offset=".843" stop-color="#c6c6c6"/></linearGradient><path d="M214.85-119.8l-1-1.3-9.05-11.85-1-1.3-9.95-12.9-.05-.1-4.75-6.15q4.05-4.45 10.95-4.1l4.05 5.35 10.4 13.55.4.55v18.25" fill="url(#S)"/><linearGradient id="T" gradientUnits="userSpaceOnUse" gradientTransform="matrix(.01253 0 0 .012 219.4 -149.1)" spreadMethod="pad" x1="-819.2" y1="0" x2="819.2" y2="0"><stop offset=".059" stop-color="#999"/><stop offset=".843" stop-color="#c6c6c6"/></linearGradient><path d="M214.85-146l-5.7-7.5.05-.15q1.15-2.85 3.15-4.1l.4-.25 1.1-.45 1-.25v12.7" fill="url(#T)"/><linearGradient id="U" gradientUnits="userSpaceOnUse" gradientTransform="matrix(.01253 0 0 .012 219.3 -149.1)" spreadMethod="pad" x1="-819.2" y1="0" x2="819.2" y2="0"><stop offset=".059" stop-color="#999"/><stop offset=".843" stop-color="#c6c6c6"/></linearGradient><path d="M229.55-144.8h-.1q-3.65-.05-6 1.45-2.3 1.45-3.4 4.15H220l-1.25-1.6-3.9-5.1v-12.85h.1l1.15-.1 3.15.45v.05l10.3 13.55" fill="url(#U)"/><linearGradient id="V" gradientUnits="userSpaceOnUse" gradientTransform="matrix(.00908 0 0 .00928 226.7 -152.45)" spreadMethod="pad" x1="-819.2" y1="0" x2="819.2" y2="0"><stop offset=".059" stop-color="#999"/><stop offset=".843" stop-color="#c6c6c6"/></linearGradient><path d="M219.25-158.35l5.1-1.65 9.8 12.95-4.6 2.25-10.3-13.55" fill="url(#V)"/><linearGradient id="W" gradientUnits="userSpaceOnUse" gradientTransform="matrix(.00899 0 0 .00888 186.65 -152.9)" spreadMethod="pad" x1="-819.2" y1="0" x2="819.2" y2="0"><stop offset=".059" stop-color="#999"/><stop offset=".843" stop-color="#c6c6c6"/></linearGradient><path d="M184.3-151.65l4.75-1.75 4.75 6.15.05.1-4.9 1.6v-.05l-4.65-6.05" fill="url(#W)"/><linearGradient id="X" gradientUnits="userSpaceOnUse" gradientTransform="matrix(.01253 0 0 .012 189 -136.3)" spreadMethod="pad" x1="-819.2" y1="0" x2="819.2" y2="0"><stop offset=".059" stop-color="#999"/><stop offset=".843" stop-color="#c6c6c6"/></linearGradient><path d="M178.75-140.7l.05-.15q1.25-2.85 3.15-4.1 2.75-1.75 7-.65v.05l10.3 13.55q-3.75-.1-6.1 1.45-2.3 1.45-3.4 4.15h-.05l-1.25-1.6-9.7-12.7" fill="url(#X)"/><linearGradient id="Y" gradientUnits="userSpaceOnUse" gradientTransform="matrix(.00906 0 0 .00923 181 -133.4)" spreadMethod="pad" x1="-819.2" y1="0" x2="819.2" y2="0"><stop offset=".059" stop-color="#999"/><stop offset=".843" stop-color="#c6c6c6"/></linearGradient><path d="M188.45-128l-4.5 2.25h-.1L173.6-139.3h.05l4.9-1.6.2.2 9.7 12.7" fill="url(#Y)"/><linearGradient id="Z" gradientUnits="userSpaceOnUse" gradientTransform="matrix(.01303 0 0 .01253 200.4 -121.85)" spreadMethod="pad" x1="-819.2" y1="0" x2="819.2" y2="0"><stop offset=".059" stop-color="#999"/><stop offset=".843" stop-color="#c6c6c6"/></linearGradient><path d="M211.05-116.5q-3.9-.05-6.25.9-3 1.3-3.65 4.1l-1.95-2.5-9.5-12.4h.05q1.1-2.7 3.4-4.15 2.35-1.55 6.1-1.45l11.8 15.5" fill="url(#Z)"/><linearGradient id="aa" gradientUnits="userSpaceOnUse" gradientTransform="matrix(.00597 .0102 -.00392 .00229 191.95 -119.35)" spreadMethod="pad" x1="-819.2" y1="0" x2="819.2" y2="0"><stop offset=".059" stop-color="#999"/><stop offset=".843" stop-color="#c6c6c6"/></linearGradient><path d="M188.45-128l1.25 1.6 9.5 12.4.85 1.15-4.3 2.6h-.1L183.9-125.7l.05-.05 4.5-2.25" fill="url(#aa)"/><linearGradient id="ab" gradientUnits="userSpaceOnUse" gradientTransform="matrix(.00908 0 0 .00928 196.4 -139.65)" spreadMethod="pad" x1="-819.2" y1="0" x2="819.2" y2="0"><stop offset=".059" stop-color="#999"/><stop offset=".843" stop-color="#c6c6c6"/></linearGradient><path d="M199.25-132l-10.3-13.55 4.9-1.6 9.95 12.9-4.55 2.25" fill="url(#ab)"/><linearGradient id="ac" gradientUnits="userSpaceOnUse" gradientTransform="matrix(.01209 0 0 .01071 179 -149.55)" spreadMethod="pad" x1="-819.2" y1="0" x2="819.2" y2="0"><stop offset=".059" stop-color="#999"/><stop offset=".843" stop-color="#c6c6c6"/></linearGradient><path d="M173.4-147.6q4-4.6 10.9-4.05l4.65 6.05q-4.25-1.1-7 .65-1.9 1.25-3.15 4.1l-.05.15-.2-.2-5.15-6.7" fill="url(#ac)"/><linearGradient id="ad" gradientUnits="userSpaceOnUse" gradientTransform="matrix(.00888 0 0 .00851 171.25 -146.4)" spreadMethod="pad" x1="-819.2" y1="0" x2="819.2" y2="0"><stop offset=".059" stop-color="#999"/><stop offset=".843" stop-color="#c6c6c6"/></linearGradient><path d="M168.65-145.85l4.75-1.75 5.15 6.7-4.9 1.6-.05-.05-4.95-6.5" fill="url(#ad)"/><linearGradient id="ae" gradientUnits="userSpaceOnUse" gradientTransform="matrix(.00981 0 0 .01083 176.9 -112.65)" spreadMethod="pad" x1="-819.2" y1="0" x2="819.2" y2="0"><stop offset=".059" stop-color="#999"/><stop offset=".843" stop-color="#c6c6c6"/></linearGradient><path d="M180.65-103.7l-11.8-15.5 4.55-2.25 1 1.3 9.75 12.75.8 1.1-4.3 2.6" fill="url(#ae)"/><linearGradient id="af" gradientUnits="userSpaceOnUse" gradientTransform="matrix(.00908 0 0 .00928 166 -126.85)" spreadMethod="pad" x1="-819.2" y1="0" x2="819.2" y2="0"><stop offset=".059" stop-color="#999"/><stop offset=".843" stop-color="#c6c6c6"/></linearGradient><path d="M173.4-121.45l-4.55 2.25-10.3-13.55 4.9-1.6 9.95 12.9" fill="url(#af)"/><linearGradient id="ag" gradientUnits="userSpaceOnUse" gradientTransform="matrix(.01257 0 0 .01175 181 -94.15)" spreadMethod="pad" x1="-819.2" y1="0" x2="819.2" y2="0"><stop offset=".059" stop-color="#999"/><stop offset=".843" stop-color="#c6c6c6"/></linearGradient><path d="M181.45-84.7l-6.15-8.05-4.55-5.95v-.1q.75-2.8 3.65-4 2.35-.95 6.25-.9l10.7 14.05q-3.8-.75-6.25.65l-.25.15q-2.15 1.35-3.2 4.4l-.2-.25" fill="url(#ag)"/><linearGradient id="ah" gradientUnits="userSpaceOnUse" gradientTransform="matrix(.00558 .00954 -.00383 .00223 203.35 -104.4)" spreadMethod="pad" x1="-819.2" y1="0" x2="819.2" y2="0"><stop offset=".059" stop-color="#999"/><stop offset=".843" stop-color="#c6c6c6"/></linearGradient><path d="M211.05-98.3l-4.6 2.1-.2-.05-10.6-13.95.1-.05 4.3-2.6 11 14.55" fill="url(#ah)"/><linearGradient id="ai" gradientUnits="userSpaceOnUse" gradientTransform="matrix(.00932 0 0 .01016 188.3 -98.05)" spreadMethod="pad" x1="-819.2" y1="0" x2="819.2" y2="0"><stop offset=".059" stop-color="#999"/><stop offset=".843" stop-color="#c6c6c6"/></linearGradient><path d="M191.35-89.65l-10.7-14.05 4.3-2.6 11 14.55-4.6 2.1" fill="url(#ai)"/><linearGradient id="aj" gradientUnits="userSpaceOnUse" gradientTransform="matrix(.00981 0 0 .01083 237.6 -138.25)" spreadMethod="pad" x1="-819.2" y1="0" x2="819.2" y2="0"><stop offset=".059" stop-color="#999"/><stop offset=".843" stop-color="#c6c6c6"/></linearGradient><path d="M241.35-129.3l-11.8-15.5 4.6-2.25 11.5 15.15-4.3 2.6" fill="url(#aj)"/><linearGradient id="ak" gradientUnits="userSpaceOnUse" gradientTransform="matrix(.01303 0 0 .01253 230.7 -134.65)" spreadMethod="pad" x1="-819.2" y1="0" x2="819.2" y2="0"><stop offset=".059" stop-color="#999"/><stop offset=".843" stop-color="#c6c6c6"/></linearGradient><path d="M230.35-125.65L220-139.2h.05q1.1-2.7 3.4-4.15 2.35-1.5 6-1.45h.1l11.8 15.5q-3.9-.05-6.25.9-3 1.3-3.65 4.1l-1.1-1.35" fill="url(#ak)"/><linearGradient id="al" gradientUnits="userSpaceOnUse" gradientTransform="matrix(.00597 .0102 -.00383 .00223 222.4 -132.15)" spreadMethod="pad" x1="-819.2" y1="0" x2="819.2" y2="0"><stop offset=".059" stop-color="#999"/><stop offset=".843" stop-color="#c6c6c6"/></linearGradient><path d="M214.45-138.6l.4-.2v.75l-.4-.55" fill="url(#al)"/><linearGradient id="am" gradientUnits="userSpaceOnUse" gradientTransform="matrix(.00597 .0102 -.00383 .00223 222.3 -132.15)" spreadMethod="pad" x1="-819.2" y1="0" x2="819.2" y2="0"><stop offset=".059" stop-color="#999"/><stop offset=".843" stop-color="#c6c6c6"/></linearGradient><path d="M218.75-140.8l1.25 1.6 10.35 13.55-3.7 2.25-.8-.1-11-14.4V-138.85l3.9-1.95" fill="url(#am)"/><linearGradient id="an" gradientUnits="userSpaceOnUse" gradientTransform="matrix(.00528 .00912 -.00375 .00217 211.35 -146.55)" spreadMethod="pad" x1="-819.2" y1="0" x2="819.2" y2="0"><stop offset=".059" stop-color="#999"/><stop offset=".843" stop-color="#c6c6c6"/></linearGradient><path d="M218.75-140.8l-3.9 1.95v-7.05l3.9 5.1" fill="url(#an)"/><linearGradient id="ao" gradientUnits="userSpaceOnUse" gradientTransform="matrix(.00981 0 0 .01083 207.3 -125.45)" spreadMethod="pad" x1="-819.2" y1="0" x2="819.2" y2="0"><stop offset=".059" stop-color="#999"/><stop offset=".843" stop-color="#c6c6c6"/></linearGradient><path d="M211.05-116.5l-11.8-15.5 4.55-2.25 1 1.3 9.05 11.85 1 1.4v.05l.1.1v.1l-.1-.15v.8l-3.8 2.3" fill="url(#ao)"/><linearGradient id="ap" gradientUnits="userSpaceOnUse" gradientTransform="matrix(.00932 0 0 .01016 218.6 -110.85)" spreadMethod="pad" x1="-819.2" y1="0" x2="819.2" y2="0"><stop offset=".059" stop-color="#999"/><stop offset=".843" stop-color="#c6c6c6"/></linearGradient><path d="M214.95-118.9l.3-.2 11 14.55-4.6 2.1-6.8-8.9v-7.5l.1-.05" fill="url(#ap)"/><linearGradient id="aq" gradientUnits="userSpaceOnUse" gradientTransform="matrix(.00981 0 0 .01083 207.2 -125.45)" spreadMethod="pad" x1="-819.2" y1="0" x2="819.2" y2="0"><stop offset=".059" stop-color="#999"/><stop offset=".843" stop-color="#c6c6c6"/></linearGradient><path d="M215.25-119.1l-.3.2-.1.05v-.75l.1.15.3.35" fill="url(#aq)"/><linearGradient id="ar" gradientUnits="userSpaceOnUse" gradientTransform="matrix(.04268 0 0 .04819 219.1 -127.25)" spreadMethod="pad" x1="-819.2" y1="0" x2="819.2" y2="0"><stop offset=".059" stop-color="#999"/><stop offset=".843" stop-color="#c6c6c6"/></linearGradient><path d="M249.15-92.7q-3.25.1-5.5 1.25-2.45 1.15-4.7 3.7l-6-8-5.9-8.05-10.9-14.25-1.2-1.5-.1-.1v-18.25l11 14.4h-.5q-.85.1-1.35.5l-.8.95 7.75 11.1q1-.85 2.6-.85l1.35.1 2 2.6 13.25 16.35-1 .05" fill="url(#ar)"/><linearGradient id="as" gradientUnits="userSpaceOnUse" gradientTransform="matrix(.00932 0 0 .01016 218.7 -110.85)" spreadMethod="pad" x1="-819.2" y1="0" x2="819.2" y2="0"><stop offset=".059" stop-color="#999"/><stop offset=".843" stop-color="#c6c6c6"/></linearGradient><path d="M211.05-116.5l3.8-2.3v7.3l-3.8-5" fill="url(#as)"/><linearGradient id="at" gradientUnits="userSpaceOnUse" gradientTransform="matrix(.01257 0 0 .01175 211.4 -106.95)" spreadMethod="pad" x1="-819.2" y1="0" x2="819.2" y2="0"><stop offset=".059" stop-color="#999"/><stop offset=".843" stop-color="#c6c6c6"/></linearGradient><path d="M201.15-111.5q.65-2.8 3.65-4.1 2.35-.95 6.25-.9l3.8 5V-101.4l-1 1q-1.1 1.2-1.8 3.15l-10.9-14.25" fill="url(#at)"/><linearGradient id="au" gradientUnits="userSpaceOnUse" gradientTransform="matrix(.01347 0 0 .01314 223.1 -92)" spreadMethod="pad" x1="-819.2" y1="0" x2="819.2" y2="0"><stop offset=".059" stop-color="#999"/><stop offset=".843" stop-color="#c6c6c6"/></linearGradient><path d="M212.05-97.25q.7-1.95 1.8-3.15l1-1v7.95l-2.8-3.8" fill="url(#au)"/><linearGradient id="av" gradientUnits="userSpaceOnUse" gradientTransform="matrix(.01257 0 0 .01175 211.3 -106.95)" spreadMethod="pad" x1="-819.2" y1="0" x2="819.2" y2="0"><stop offset=".059" stop-color="#999"/><stop offset=".843" stop-color="#c6c6c6"/></linearGradient><path d="M214.85-111.35l6.8 8.9q-3.8-.75-6.25.65l-.45.25-.1.1v-9.9" fill="url(#av)"/><linearGradient id="aw" gradientUnits="userSpaceOnUse" gradientTransform="matrix(.01347 0 0 .01314 223 -92)" spreadMethod="pad" x1="-819.2" y1="0" x2="819.2" y2="0"><stop offset=".059" stop-color="#999"/><stop offset=".843" stop-color="#c6c6c6"/></linearGradient><path d="M228.55-84.9q-2.55 1.2-4.9 3.4l-6.6-8.75-2.2-3.05v-8.15l.1-.1.45-.25q2.45-1.4 6.25-.65l12.4 16.35q-3.15 0-5.5 1.2" fill="url(#aw)"/><linearGradient id="ax" gradientUnits="userSpaceOnUse" gradientTransform="matrix(.00838 .00327 .00003 .00662 230.1 -116.8)" spreadMethod="pad" x1="-819.2" y1="0" x2="819.2" y2="0"><stop offset=".059" stop-color="#999"/><stop offset=".843" stop-color="#c6c6c6"/></linearGradient><path d="M229.25-122.35l7.7 11.25-1.9-.55-.15-.05-1.35-.1q-1.6 0-2.6.85l-7.75-11.1.8-.95q.5-.4 1.35-.5h.5l.8.1 2.6 1.05" fill="url(#ax)"/><linearGradient id="ay" gradientUnits="userSpaceOnUse" gradientTransform="matrix(.00558 .00954 -.00372 .00217 233.7 -117.25)" spreadMethod="pad" x1="-819.2" y1="0" x2="819.2" y2="0"><stop offset=".059" stop-color="#999"/><stop offset=".843" stop-color="#c6c6c6"/></linearGradient><path d="M234.9-111.7l.15.05 1.9.55 2.65.4.35-.05h.05l-7.9-11.55h-.15l-2.7-.05-2.6-1.05 3.7-2.25 11 14.55-4.45 2-2-2.6" fill="url(#ay)"/><linearGradient id="az" gradientUnits="userSpaceOnUse" gradientTransform="matrix(.00656 .00255 0 .00568 234.55 -116.75)" spreadMethod="pad" x1="-819.2" y1="0" x2="819.2" y2="0"><stop offset=".059" stop-color="#999"/><stop offset=".843" stop-color="#c6c6c6"/></linearGradient><path d="M239.6-110.7l-2.65-.4-7.7-11.25 2.7.05h.15l7.9 11.55h-.05l-.35.05" fill="url(#az)"/><linearGradient id="aA" gradientUnits="userSpaceOnUse" gradientTransform="matrix(.0066 .01128 -.00388 .00227 245.45 -101.75)" spreadMethod="pad" x1="-819.2" y1="0" x2="819.2" y2="0"><stop offset=".059" stop-color="#999"/><stop offset=".843" stop-color="#c6c6c6"/></linearGradient><path d="M250.15-92.75L236.9-109.1l4.45-2 5.35 7 7.35 9.8q-2.45 1.35-3.9 1.55" fill="url(#aA)"/><linearGradient id="aB" gradientUnits="userSpaceOnUse" gradientTransform="matrix(.01057 0 0 .01126 230.3 -95.45)" spreadMethod="pad" x1="-819.2" y1="0" x2="819.2" y2="0"><stop offset=".059" stop-color="#999"/><stop offset=".843" stop-color="#c6c6c6"/></linearGradient><path d="M232.95-95.75l6 8q-3.05 1.7-4.9 1.65l-12.4-16.35 4.6-2.1 6.7 8.8" fill="url(#aB)"/><path d="M250.3-61.1l-13.05 6.55-.25-13.5.25-.1v-7.65l-.05-5 13.1-5.75.1-.05.1 4.6-.15.05.15 7.7-.2.1v13.05m-63.9 29.8l.05 2.3-6.75 3.45-6.7 3.35-.3-16.25.3-.15v-11.7l13.45-6.4V-45l-.25.35.1 7 .1 6.35" fill="#848400"/><linearGradient id="aC" gradientUnits="userSpaceOnUse" gradientTransform="matrix(.00656 .0113 -.00409 .00237 214.9 -88.9)" spreadMethod="pad" x1="-819.2" y1="0" x2="819.2" y2="0"><stop offset=".059" stop-color="#999"/><stop offset=".843" stop-color="#c6c6c6"/></linearGradient><path d="M218.75-79.9h-.25l-3.65-4.8v-8.45l.1.1 2.1 2.8 6.6 8.75q-3 1.7-4.9 1.6" fill="url(#aC)"/><linearGradient id="aD" gradientUnits="userSpaceOnUse" gradientTransform="matrix(.00656 .0113 -.00409 .00237 215 -88.9)" spreadMethod="pad" x1="-819.2" y1="0" x2="819.2" y2="0"><stop offset=".059" stop-color="#999"/><stop offset=".843" stop-color="#c6c6c6"/></linearGradient><path d="M214.95-93.15v.1l-.1-.1v8.35l-8.5-11.3.1-.1 4.6-2.1 3.9 5.15" fill="url(#aD)"/><path d="M211.4-63.6l.1-.15-.1-4.8 3.45-1.6v-.05l21.95-10.4.2 12.55.25 13.5-12.7 6.4-9.7 4.9v.05l-3.45 1.75-24.9 12.55-.05-.1-.05-2.3.05-.05L211.4-63.6m-24.95 15v-8.1l12.2-5.75-12.2 13.85m16.2-15.8l4.35-2.05-20.55 28.6-.15.2-.1-7 .25-.35 16.2-19.4m29.15.25l-2.8-3.5-1.45 2 2.55 3.25 2.45 3.05 1.5-2-2.25-2.8m-8.45 5.8l-1.45 2 3.05 3.9 1.95 2.4 1.5-2-2.65-3.25-2.4-3.05" fill="#defbfc"/><linearGradient id="aE" gradientUnits="userSpaceOnUse" gradientTransform="matrix(.01057 0 0 .01126 200 -82.65)" spreadMethod="pad" x1="-819.2" y1="0" x2="819.2" y2="0"><stop offset=".059" stop-color="#999"/><stop offset=".843" stop-color="#c6c6c6"/></linearGradient><path d="M209.1-74.9q-3.2 1.55-4.95 1.6h-.4l-12.4-16.35 4.6-2.1 5.4 6.8 7.75 10.05" fill="url(#aE)"/><linearGradient id="aF" gradientUnits="userSpaceOnUse" gradientTransform="matrix(.01347 0 0 .01314 192.7 -79.2)" spreadMethod="pad" x1="-819.2" y1="0" x2="819.2" y2="0"><stop offset=".059" stop-color="#999"/><stop offset=".843" stop-color="#c6c6c6"/></linearGradient><path d="M181.65-84.45q1.05-3.05 3.2-4.4l.25-.15q2.45-1.4 6.25-.65l12.4 16.35h-.85q-2.6.15-4.65 1.2-2.4 1.15-3.85 3.7l-.25.5-12.5-16.55" fill="url(#aF)"/><linearGradient id="aG" gradientUnits="userSpaceOnUse" gradientTransform="matrix(.00952 0 0 .01013 173.6 -91)" spreadMethod="pad" x1="-819.2" y1="0" x2="819.2" y2="0"><stop offset=".059" stop-color="#999"/><stop offset=".843" stop-color="#c6c6c6"/></linearGradient><path d="M170.75-98.7l4.55 5.95-9.45-3.9h.3l4.2-2.55.4.5" fill="url(#aG)"/><linearGradient id="aH" gradientUnits="userSpaceOnUse" gradientTransform="matrix(.01057 0 0 .01126 171.2 -68.25)" spreadMethod="pad" x1="-819.2" y1="0" x2="819.2" y2="0"><stop offset=".059" stop-color="#999"/><stop offset=".843" stop-color="#c6c6c6"/></linearGradient><path d="M179.85-60.55l-.7.35q-1.9 1-3.35 1.25l-.85.05-12.4-16.35 4.6-2.1.9 1.15 11.8 15.65" fill="url(#aH)"/><linearGradient id="aI" gradientUnits="userSpaceOnUse" gradientTransform="matrix(.00838 .00327 .00003 .00662 174.2 -76.8)" spreadMethod="pad" x1="-819.2" y1="0" x2="819.2" y2="0"><stop offset=".059" stop-color="#999"/><stop offset=".843" stop-color="#c6c6c6"/></linearGradient><path d="M181.05-71.1l-1.9-.55-1.5-.15q-1.6 0-2.6.85l-6.45-9.25-1.3-1.85q.7-1.35 2.15-1.45 1.35-.1 3.2.8l.7.35 7.7 11.25" fill="url(#aI)"/><linearGradient id="aJ" gradientUnits="userSpaceOnUse" gradientTransform="matrix(.01086 0 0 .01128 185.2 -75.55)" spreadMethod="pad" x1="-819.2" y1="0" x2="819.2" y2="0"><stop offset=".059" stop-color="#999"/><stop offset=".843" stop-color="#c6c6c6"/></linearGradient><path d="M176.35-82.7l.5.1 4.6-2.1.2.25 12.5 16.55q-2.2 1.2-3.7 1.5l-1.2.1-.5.05-12.4-16.45" fill="url(#aJ)"/><linearGradient id="aK" gradientUnits="userSpaceOnUse" gradientTransform="matrix(.00656 .00255 0 .00568 178.65 -76.75)" spreadMethod="pad" x1="-819.2" y1="0" x2="819.2" y2="0"><stop offset=".059" stop-color="#999"/><stop offset=".843" stop-color="#c6c6c6"/></linearGradient><path d="M181.05-71.1l-7.7-11.25 2.7.05h.15l7.9 11.55h-.05l-.35.05q-1.55.1-2.65-.4" fill="url(#aK)"/><path d="M148.35-157.15l7.15-2.65m0 .25l52.75-19.5v-.05q2.8.7 3.85 2.3h.3l2.45-.9m0-.05l6.35-2.3.6.8q1.65 2.4 1.05 4.85l1.95 1.75.6 1.15.15.5.1.75q-.05 2.6-3.2 4.4l-.05.05-1.95.7 3.9 5.1 9.8 12.95 11.5 15.15 7.55 10m1 1.3l1.4 1.85m.45.6l.6.8 12.7 16.8q-3.05 1.7-4.9 1.65-3.15 0-5.5 1.2-1.15.5-2.3 1.35m-147.9 82.1v.35L98.1-19.4m10.65 24.25l-5.65 2.8-31.95-16 .05-4 31.9 16v4m-31.95-20L91-22.3m17.3-102.95l-18.7 5.1-25.65 6.95-15.15 4.15 39.15-19.1m1.9-.95l10.55-5.15.25-.35.1-.1.3-.25q-.2-3.2 2.75-5.7v-.05h.05l42.4-15.7m-28.8 29.3l.65-.35q2.1-1.3 2.85-2.75l.3-1.3.05-.35-.05-.6-.75-1.8-2-1.8q.5-2.15-.75-4.3l-.9-1.3 30.15-11.2h.05m8.45-2.85l56.65-21-.05-.1m-56.6 27.3l28.65-10.6h.1l19.2-7.1 1.45-.55v.05l9.95-3.7m-66.6 18.15l7.25-2.7m-38.65 14.3q-4.25 1.75-5.4 3.6h-1l-2.55.15q-.9-2.05-4.05-2.8l-.05.05m5.5 15.1l-1 .15v.15l1-.3.25-.1q-3.95-.2-6.8-1.8-1.6-.9-2.4-2-.8-1.1-.8-2.4 0-1.25.85-2.4m26.2 3.75l-4.6 1.7-3.85 1.45-.7.25-2.6.95-1.75.35-2.65.15h-.05l9.15 11.9q1.25-3 3.2-4.25 1-.6 1.75-.8l5.25.15m-19.35-7h-.85M153-140.3l-6 .45q-2.9 1-4.9 3.6l6.25 8.1.1-.3q1.15-2.65 3.1-3.95 1.7-1.1 3.95-1.1m3.05.75l4.9-1.6-.05-.1-5.65-7.35-2.25.8m-2.5.7l2.5-.95m-11.45 15.3l-.15-.05q-4.15-1.15-6.85.65-1.95 1.3-3.1 3.95l-.15.3.75.95 9.9 12.9.35.45.05-.2q.75-1.75 2.15-3.05l1.2-.9q.95-.6 2.3-1l-7.2-10.35q.7-1.35 2.15-1.45h.15m-1.55-2.2l4.75-1.55-.45-.65m7.15-5.1l3.05.45m-3.05 14.25l3.25 4.2.55.75.1-.2q1.2-2.6 3.35-3.95 2.35-1.55 6.1-1.45l4.55-2.25-9.95-12.9m-21.35-1.9l-4.6 1.7q-4.6-1.45-10.9 4.05l7.2 9.4m6.25 16.05q-3.75-.1-6.1 1.45-2.25 1.35-3.45 4.15l11.45 14.9q.65-2.8 3.65-4.1l1.4-.45 4.85-.45 3.65-2.2m-25.75-26.85l4.8-1.55m14.8-2.45l2.7.05h.15m-2.85-.05q-1.4-.75-2.35-.95l-1.4-.2m9.9 11.9l-1.05-.2h-.8q-1.6 0-2.6.85l-.55-.75m6.55.85l2.65.4.35-.05-4.55-6.55m0-.25l-3.45-5m5.9 8.65l.8-.45m-2.7 22.5l.2.2v-.1q.75-2.8 3.6-4 2.35-.95 6-.9h.3l4.2-2.55-11.05-14.4m-2.25 2.5l-1.55-.5m-15.45 6.55l4.4-2.2m11.05-11.55l-6.7-8.7m6.7-22.25l-37 13.7m12 36.6l-10.95-14.3M155.5-91.5l.55-.35-.55-.7m17.15 9.85q1.65-.4 3.7 0l.5.1 4.6-2.1-6.15-8.05-4.55-5.95-.4-.5M155.5-74.05l.8-.55q2.45-1.4 6.25-.65l4.6-2.1-.95-1.3-9.95-13m-.75 25.05l9.75 12.65q1.65-2.55 4.2-3.75 2.35-1.2 5.5-1.2m-19.45-7.95l-2.65-3.45-10.9-14.25m10.9 14.25q.9-2.65 2.65-4M91.2-22.85l.95.5 1.45.7 4.5 2.25-1.9-1m1.9-46.2v-9.35l3.55 1.75 2.05 1 3.25 1.6 3.15 1.55 7.2 3.5v12.2l-6.85-3.25-12.35-5.85v-3.15m15 5.65q1.65-.9 4.2-.65m-6.85 4q.55-1.75 1.7-2.75M155.5-92.8l-10.7-14m109.75-9.6l2.1-.95m-15.3-11.95q-3.9-.05-6.25.9-3 1.3-3.65 4.1l10.9 14.25q1.15-3.3 3.45-4.55l1.55-.6m1.5-.3l3.2.25m-9.7 5.2l4.35 5.95 7.35 9.8q1.4-1.3 2.6-2.05m-3.7-19.3l-.9.4M212.4-176.8l-.25.1m2.7 5.25h.1l7.9-2.95m-7.9 11.1h.55l4.95-1.8m-16.4 12.95l4.9-1.55-4.25-5.55 3.2-2.4q2.8-1.55 5.95-1.65h1m-9.95-4.4l-1.45.5m11.4 21.2l-5.7-7.5.05-.15q1.15-2.85 3.15-4.1l.4-.25 1.1-.45 1-.25m-10.8 6.55v.05q-4.3-1.2-7 .6-2 1.25-3.2 4.1l-.05.15.05.1 9.95 12.9 1 1.3v-.05q1.2-2.7 3.4-4.1 2.35-1.45 5.65-1.45h.5l.1-.05m-9.75-20.65l-4.7 1.75q-6.9-.35-10.95 4.1l4.75 6.15m15.35-6.25l-.2-.2m10.3-4.65l5.1-1.65m-5.1 1.6l-3.15-.45-1.15.1h-.1m-30.55 7.1l4.75-1.75m-.1 7.85l4.9-1.6m1.8 36.9h.1l4.3-2.6-.85-1.15-9.5-12.4-1.25-1.6-4.5 2.25h-.1q-3.65-.05-6.05 1.45-2.2 1.4-3.4 4.1v.05l9.75 12.75 1.7 2.15q.65-2.8 3.6-4.1 2.35-.95 6.2-.9m3.6-21.75q-3.75-.1-6.1 1.45-2.3 1.45-3.4 4.15h-.05m9.55-5.6l4.55-2.25m-19.5-17.4q-6.9-.55-10.9 4.05l5.15 6.7.2.2.05-.15q1.25-2.85 3.15-4.1 2.75-1.75 7-.65m-10.4 4.7l-4.9 1.6-.05-.05q-4.3-1.15-6.95.65-2 1.25-3.2 4.1l-.05.15m5.25-11.4l4.75-1.75m-4.75 1.75q-6.55-.2-10.9 4.05m13 43.1v-.1q.75-2.8 3.65-4 2.35-.95 6.25-.9m-7.25-17.75l1 1.3m37.65 22.9l-10.9-14.25-1.95-2.5m-15.05 6.6l.8 1.1 11 14.55 5.4 6.8-4.6-6.05-10.9-14.25m20.4 9l.2.05 4.6-2.1-11-14.55m-15.1 6.55l-4.3 2.6m13.5 35.8l-12.5-16.55q1.05-3.05 3.2-4.4l.25-.15q2.45-1.4 6.25-.65l4.6-2.1m-7.5-36.25l-9.7-12.7m50.8-4.1l4.6-2.25m-4.6 2.25h-.1q-3.65-.05-6 1.45-2.3 1.45-3.4 4.15H220l10.35 13.55 1.1 1.35m-16.5 4.75l1.2 1.5q.65-2.8 3.6-4.1 1.8-.7 4.25-.85.5-.4 1.35-.5h.5l.8.1 3.7-2.25 11 14.55 5.35 7m-31.85-34.7l-.4.2m5.55-.6l-1.25-1.6-3.9 1.95m0-7.05l3.9 5.1m-3.9 39.35l.1-.1.45-.25q2.45-1.4 6.25-.65l4.6-2.1-11-14.55-.3.2-.1.05m0-.75l.1.15m0-.1l-.1-.1m0-.05l-1-1.4-9.05-11.85m10.45 13.85l-.3-.35m-.1-.35l-1-1.3m-12.7 9.6q.65-2.8 3.65-4.1 2.35-.95 6.25-.9m3.8 23.2l2.2 3.05 6.6 8.75q2.35-2.2 4.9-3.4 2.35-1.2 5.5-1.2 1.85.05 4.9-1.65l-6-8-6.7-8.8m-11.4 11.1l-2.8-3.8q.7-1.95 1.8-3.15l1-1m0-17.4l-3.8 2.3M224-123l-.8.95 7.75 11.1q1-.85 2.6-.85l1.35.1.15.05 1.9.55 2.65.4.35-.05m-7.85-11.55h-.15l-2.7-.05-2.6-1.05m5.3 1.1l8 11.55m-3.05 1.65l-.15.1q-3.8-.75-6.25.65-2.3 1.25-3.45 4.55l5.9 8.05m3.95-13.35l4.45-2m-2.4 23.35q2.25-2.55 4.7-3.7 2.25-1.15 5.5-1.25l1-.05q1.45-.2 3.9-1.55m-27-9.5l-10.9-14.25m-1.2 25l2.1 2.8m-2.1-2.8l-.1-.1m3.65 13.25h.25q1.9.1 4.9-1.6m-5.15 1.6l-1.8.2-1.75.35-.1.05-1.5.65-1.65.95-1.35 1.25-1.25 1.55q-3.2 1.55-4.95 1.6h-1.25q-2.6.15-4.65 1.2-2.4 1.15-3.85 3.7l-.25.5q-2.2 1.2-3.7 1.5l-1.2.1-.5.05q-2.8.1-5 1.2-2.3 1.15-3.6 3.9l-.3.6-.7.35q-1.9 1-3.35 1.25l-.85.05m36.1-39.4l3.9 5.15m-8.7-3.1q-3.7-.65-6.05.7-2.3 1.25-3.45 4.55m-23.4 8.65l-.7-.35q-1.85-.9-3.2-.8-1.45.1-2.15 1.45l1.3 1.85 6.45 9.25q1-.85 2.6-.85l1.5.15 1.9.55m-7.7-11.25l2.7.05h.15m-.15 0l8 11.55-.35.05q-1.55.1-2.65-.4m-13.9-6.25l.9 1.15-.9-1.2-.95-1.25m1.85 2.45l11.8 15.65M168.6-80.2q-.95 1.15-1.45 2.8m14.5-7.05l-.2-.25m19.9-.25l7.75 10.05m32.25-54.4l4.3-2.6M103.1 3.65l5.65-2.8" fill="none" stroke-linecap="round" stroke-linejoin="round" stroke-miterlimit="3" stroke="#333"/><path d="M256.65-96.35v43.55M91-22.3v-1.75m-4.75 3.5L62.05-33v-79.2m47.4 23.6l14.3 7.15L154.55-66v58.35m-30.8-73.8v58.4m-14.3-65.55l-1-.5q-2.05-.95-4.05-1.85l3.85 1.9m-17.35-8.7v14.25l.1 44.45v2.55m0-2.55V-22.6m13.4-68.35l-13.1-6.6m-.4-.2q-14.4-7.2-28.85-14.45M231.8-64.15q2.25-2.05 5.2-3.9l.25-.1v-7.65l-.05-5-.4.2m.4-.2l13.1-5.75v-4.65l-35.45 16.8m0 .05L169.9-53v34.8l44.95-22.5m0-.05l35.45-17.8v-2.55l-13.05 6.55-12.7 6.4-9.7 4.9m0 .05l-3.45 1.75-24.9 12.55-.05.05-6.75 3.3-6.7 3.35v-9.35m13.2-13.1L173-38.6v-11.7l13.45-6.4 12.2-5.75 4-1.95 4.35-2.05 4.4-2.1 3.45-1.6m0-.05l21.95-10.4m-25.4 17v22.15m0-22.15v-4.95m13.55 16.1q-.4 2.05-.4 4.3m1.2-7.15q1.4-3.85 4.35-7.1m7.15 7.85V-68.15l13.05-6v-7.8l-13.05 6.15M186.45-29v-27.7m0 4.95L173-45.65m0 7.05v7.05l13.3-6.1m64.05-44.3h-.05v-4.6m0 12.4v13.05m-13.05-.1l13.05-6" fill="none" stroke-width=".5" stroke-linecap="round" stroke-linejoin="round" stroke-miterlimit="3" stroke="#333"/><path d="M160.7 10.35l-.15.1M91-22.9v-.05h-.05l-4.7 2.4M108.4-89.1l1.05.5m-1.2-.45h.05M91-36.5v1.4m0 12.2l.2.05m2.4 1.2l2.6 1.25 12.55 6.15m-16.6-8.1l-.5-.25-.45-.25M91-25.2v1.15l-.05 1.1" fill="none" stroke-width=".5" stroke-linecap="round" stroke-linejoin="round" stroke-miterlimit="3" stroke="#999"/><path d="M113.1-60.95l-1.25-1.3-.8.8 1.1 1.1L113.5-59l.8-.75-1.2-1.2m1.7 25.5l-.2.05h-.1q-.55-.1-.95-1.35-.4-1.3-.4-3.15 0-1.85.4-3.2.4-1.2.95-1.25H114.8l3.25.4q.55 0 .9 1.15l.4 2.9-.4 2.8-.65 1.15-.25.05h-.2l-3.05.45q.5-.2.8-1.3.45-1.3.45-3.15 0-1.85-.45-3.2-.3-1.05-.8-1.25M230.1-62.4l-2.55-3.25 1.45-2 2.8 3.5m-6.05 8.85l2.65 3.25-1.5 2-1.95-2.4-3.05-3.9 1.45-2 2.4 3.05m4.35-7.1l2.45 3.05 1.5-2-2.25-2.8" fill="none" stroke-width=".3" stroke-linecap="round" stroke-linejoin="round" stroke-miterlimit="3" stroke="#333"/><path d="M91.5-22.55l-.5.25" fill="none" stroke-linecap="round" stroke-linejoin="round" stroke-miterlimit="3" stroke="#000"/></g></svg>