<svg xmlns="http://www.w3.org/2000/svg" width="321" height="212"><g transform="translate(-.25 150.85)"><linearGradient id="a" gradientUnits="userSpaceOnUse" gradientTransform="matrix(.02037 0 0 .01677 359.95 -41.55)" spreadMethod="pad" x1="-819.2" y1="0" x2="819.2" y2="0"><stop offset=".059" stop-color="#999"/><stop offset=".843" stop-color="#c6c6c6"/></linearGradient><path d="M98.9-140.3q-3.15-4.65.3-9.25h.6v-.25h6.05l4 4.05h-.55q-2.6 0-4.7.85-1.95.65-3.45 1.95-1.45 1.2-2.25 2.65m10.4 13.85q4.8 0 8.1-2.8 3.4-2.8 3.4-6.85 0-2.2-1.05-4-.85-1.55-2.35-2.85-2.4-2-5.6-2.6l.1-.45 4.55-4.35.3.35.6-.35h3.3q4.5 5.05 2.8 10.2v9.75q-10.95 6.45-16.7 4.3l.1-.55 2.45.2" fill="url(#a)"/><linearGradient id="b" gradientUnits="userSpaceOnUse" gradientTransform="matrix(.01402 0 0 .01175 109.2 -136.1)" spreadMethod="pad" x1="-819.2" y1="0" x2="819.2" y2="0"><stop offset=".059" stop-color="#999"/><stop offset=".843" stop-color="#c6c6c6"/></linearGradient><path d="M106.85-126.65q-2.8-.45-5-2.05l-.7-.55q-3.4-2.8-3.4-6.85 0-2.2 1-3.95l.15-.25q.8-1.45 2.25-2.65 1.5-1.3 3.45-1.95 2.1-.85 4.7-.85h.55l.3.05 1.65.15q3.2.6 5.6 2.6 1.5 1.3 2.35 2.85 1.05 1.8 1.05 4 0 4.05-3.4 6.85-3.3 2.8-8.1 2.8l-2.45-.2m1.05-11.95q.6.6 1.45.6.8 0 1.45-.6.55-.55.6-1.3v-.05q0-.8-.6-1.4-.65-.6-1.45-.55-.85-.05-1.45.55-.6.6-.6 1.4v.05q0 .75.6 1.3m-7.5-1.3q0 .75.65 1.3.6.6 1.45.6.75 0 1.45-.6.5-.55.6-1.3v-.05q0-.8-.6-1.4-.7-.6-1.45-.55-.85-.05-1.45.55-.65.6-.65 1.4v.05" fill="url(#b)"/><linearGradient id="c" gradientUnits="userSpaceOnUse" gradientTransform="matrix(.0025 0 0 .00241 109.35 -139.95)" spreadMethod="pad" x1="-819.2" y1="0" x2="819.2" y2="0"><stop offset=".059" stop-color="#999"/><stop offset=".843" stop-color="#c6c6c6"/></linearGradient><path d="M107.3-139.9v-.05q0-.8.6-1.4.6-.6 1.45-.55.8-.05 1.45.55.6.6.6 1.4v.05q-.05.75-.6 1.3-.65.6-1.45.6-.85 0-1.45-.6-.6-.55-.6-1.3" fill="url(#c)"/><linearGradient id="d" gradientUnits="userSpaceOnUse" gradientTransform="matrix(.0025 0 0 .00241 102.5 -139.95)" spreadMethod="pad" x1="-819.2" y1="0" x2="819.2" y2="0"><stop offset=".059" stop-color="#999"/><stop offset=".843" stop-color="#c6c6c6"/></linearGradient><path d="M100.4-139.95q0-.8.65-1.4.6-.6 1.45-.55.75-.05 1.45.55.6.6.6 1.4v.05q-.1.75-.6 1.3-.7.6-1.45.6-.85 0-1.45-.6-.65-.55-.65-1.3v-.05" fill="url(#d)"/><path d="M99.8-149.8h6.05l4 4.05.3.05 1.65.15q3.2.6 5.6 2.6 1.5 1.3 2.35 2.85.2-1.65 0-3.2-.4-3.7-3-6.7m-4.85 4l4.55-4.35.3.35m.6-.35h3.3q4.5 5.05 2.8 10.2v9.75q-10.95 6.45-16.7 4.3m13-14q1.05 1.8 1.05 4 0 4.05-3.4 6.85-3.3 2.8-8.1 2.8l-2.45-.2q-2.8-.45-5-2.05l-.7-.55q-3.4-2.8-3.4-6.85 0-2.2 1-3.95l.15-.25q-3.15-4.65.3-9.25m12.2 9.65q-.05.75-.6 1.3-.65.6-1.45.6-.85 0-1.45-.6-.6-.55-.6-1.3v-.05q0-.8.6-1.4.6-.6 1.45-.55.8-.05 1.45.55.6.6.6 1.4v.05h7.7m-11.8 0h-2.75q-.1.75-.6 1.3-.7.6-1.45.6-.85 0-1.45-.6-.65-.55-.65-1.3l-1.65-.15m11.1-5.7h-.55q-2.6 0-4.7.85-1.95.65-3.45 1.95-1.45 1.2-2.25 2.65m5.65.4v-.05q0-.8-.6-1.4-.7-.6-1.45-.55-.85-.05-1.45.55-.65.6-.65 1.4v.05m8 4q-2.05-2.2-4.1-.1v5.05h4.1v-4.95m-6.55 7.2l.25-2.25h2.2m4.1 0h3.1v2.1m2.3-8.15v3.6m2.05-3.25v3.25M99.8-149.55l4.25 3.8" fill="none" stroke-linecap="round" stroke-linejoin="round" stroke-miterlimit="3" stroke="#333"/><path d="M.8-83.8l.05-.15 4.6-2.3.15-.05.15-.05 4.75 2.4 46 23.1v.1l.05 64.7-5.05 2.5-.15.1L.5-18.95v-64.8l.15-.1.15.05m50.7 25.55l.05-.05-.05-.05v.1M241.95-45.5l-1.4.7L160.7-4.85l-.15.15v65l-51.8-25.95v-65l5-2.7 46.9 23.55L309.6-84.4l5.25-2.6 5 2.5-77.9 39" fill="#b9b8ac"/><path d="M.65-83.85l.2-.1-.05.15-.15-.05M.5-83.9l.15.05-.15.1v-.15M51.35 6.55l.15-.1v.15l-.15-.05m268.5-91.05l.55-.3v.55l-.55-.25" fill="#a59c7c"/><path d="M320.4-84.25v64.45l-79.85 40v-.05h-.05l-79.8 40v-65l79.85-39.95h.05l1.35-.7 77.9-39 .55.25" fill="#cac9c0"/><path d="M51.55-58.3l4.95-2.45m0-.1l-46-23.1m-5.05-2.3l-4.6 2.3m-.2.1l.15.05 50.7 25.45v.1m.05-.05l-.05.05v64.7l5.05-2.5-.05-64.7m-56-23l.15-.1-.15-.05v64.95l50.85 25.5.15-.1v.15l-.15-.05m57.4-20.85v-16.35l5-2.7 46.9 23.55L309.6-84.4m5.25-2.6l5 2.5.55.25m0 64.45l-79.85 40m-.05-.05l-79.8 40m-.15-64.85v65l-51.8-25.95v-48.3m51.8 9.25q-25.9-12.95-51.8-25.95M5.6-86.3q37.55-18.95 75.1-37.85M240.55-44.8L160.7-4.85m79.85-39.95l1.4-.7 77.9-39M220-2.5l.9.35q1.65.8 2.4 2.65.7 1.85.05 3.55l-.1.3q-.65 1.5-2.1 2.1L220 6.7q-1.1.1-2.15-.45-1.65-.85-2.35-2.65-.75-1.85-.15-3.6.65-1.7 2.3-2.35L220-2.5m9.9-6.05l-1.8 11.5 4.25-1.65L230 7.75l9.1-3.6M222.15 15.2l3.6-5.75-1.9-4.8 4.25-1.7m6.15 15.45L230 7.75l-2.35 6.45-1.9-4.75" fill="none" stroke-width=".5" stroke-linecap="round" stroke-linejoin="round" stroke-miterlimit="3" stroke="#696347"/><path d="M76-94.4q1.6.6 2.15.5l.1-1.25q-.25-.7 0-.95.2-.1.45.2l.1.1.8.8-.3 1.1.6.65q.35.35.15.45l-1 .15L79-92l.4-.1.6-.2.05.35-.4.65-.5.3-.3.2-.05.9.1 1.6q0 .65-.35.5-.5-.25-1.4-2.2l-.2-.3-.55-.35-.75-.95q-.2-.3-.05-.45l.75.3.25.15.8-.1.5-.15.15-1-.95-.15-.75-.85q-.35-.3-.35-.55m4.55 1.15l.4.9.3.8.75.15-.1-.55-.5-.4v-.25l.35.05 1.85.65.35.2.85.8.65 1.1-.35 1.2q-.55 1.1-1.2.6l-.55-.35-.4-.2V-85l-.35-.05q-.55-.3-.8-1.2v-.3l.15-.7v-1.7l-.2-.15-.35-.1q-.4-.2-.75-1.1-.4-1-.4-2.95h.3m-8.15 5.9l.45.3q.5.4.7 1v.75l-.95-.5-.5-.35-.35-.5.7.25-.55-.5-.5-.65 1 .2m5.35-2.45l.1-.75-.5.25.4.5m-9.8 2.4l.15-1v-.75l-.25-.7.5.3.6.85.1 1.25.6.4.5.65q0 .4-.35.45h-.9l-.2 1.15 1.95.25 1.05.4 1.1 1.05.5 1.2q0 .65-.65.9-.65.15-1.45-.25-.6-.25-.85-.5-.4-.35-.55-.75-.15-.35.05-.5l.65.5.65.25q1.1.05 1.1-.25l-.2-.7-.55-.45-1.6-.35-1.35.15-.05.45v1.15q-.15.6-.75-.1l-1-1.1q-.55-.55-.55-.9-.15-.6.45-.35l.95-.15.2-1.45q-.15-.05-.65-.45l-.5-.55-.35-.65v-.35l.95.75.7.15m-.35 3.5l-.1.2.05.05.05-.25m0 .25h-.05.05m-2.15 6.6l-.15-.4q-.15-.2-.15-.55 1.1.6 1.4 1.2l-.1.25v.05l1.35-.1v-.4q-.3-.05-.5.3-.15.2-.5-.2l-.3-.6-.1-.3.5-.5.4.65.1-.05.5.05v-.95l-.15-.2q-.35-.25-.2-.5l.5.15.95 1.05q-.2.1-.25.7l.5.3.85 1.2-.35.1-.5.05.35.4q.25.3.1.45l-1.05-.05v.2l.9.75.1.5-.8-.25-.3-.3.05.45-.05.3 1.25.05-.25.45q-.85.45-1.95.4l-1.6-.25-.6-.75-.35-.6.25-.55q.25-.2.2-1.4l-.05-1.1m1.05 1.35l-.05.6-.15.1.1.55v.1l-.1.6 1.35.3-.2-.5.2-.2-.75.1-.5-.4.05-.65.5-.3-.45-.3v-.25q-.1 0-.05.2l.05.05m2.25-1.15v.2l.05-.2h-.05m1.7.65l.75-.95.3-.3.5.1.9.9-.05.25-1.75.4q-.3.05-.3.65l.3.85 2.3.45.55.35.45.35q.15.3-.05.5-.25.05-1-.25l-1-.4q.5.45.65 1.3l.1 1.45q0 .9-.55 1.4l-1.4.1-.3-.35.05-.2q.75-.35.9-1.2l.15-1.15L71.9-73l-.4-.55h-.4l-.3 1.15-.55-.1q-.45-.55-.45-1.1l.25-1q.15-1.15.4-1.6m9-8.75l.4.3q.65.75.75 1.8l.1 1.5-.15 1.6.1 1.25q.15.7.95 2l1.15 2.15q0 .2-.3 0-1.95-1.85-2.4-2.9-.8-1.3-.6-2.75.05-1.25.2-1.6l.05-1.4-.15-1.4-.1-.55m.2 12.6l.15.1.05-.4V-73l-.05-.45-.25-.25q-.8-.6.2-.6L81.1-73l.05.85.25.15.8.65.15.5-.75.05-.45-.1-.05.3.65.5.3.45q.1.35-.4.3l-1-.25-.9-.25q-.85-.35-1.65-1.35-.1-.35.35-.1.85.35 1.25.3l.05-.35Q78.9-72 78.25-73l.1-.2.25.2 1.05.65M78-69.8l-.3.95q-.25.55-.6.25-.7-.8-.65-1.1l.3-.75q0-.7.45-.85l.05.3.05.15.2.25h.1q.25.1.6.25l.55.25 3.8 1.4 1.05.8.95 1v.4l-2.2-.4-.45-.45.25.6-.3 1q-.05.8.7 1.2l1.2.8.7.85-.05.35-.75-.1q-1.15-.55-2.05-1.5-1-.95-1-2.3v-.35l.15-1.1-.5-.75.75.15.7.65.7.1.15-.1-.55-.45q-1.5-.35-2.65-.85-.9-.45-1.2-.65H78m.5.5l.35.1 1 1.2.3.7-.15.35q-.7 1.55-2.15 1.05-.75-.3-1.05-1.3l.15-.05.6.45q.85-.2 1.15-.65l.25-.65-.45-1.2m-6.65 6.65q0 3.55-2.45 3.65-.3-.15-.15-.4 1.1-.8 1.25-2.15l.15-5.35-.3-.35.3-.1.6.5q.45.7.5 1.8l.1 2.4m8.45.65l-.35 1.1-.4 1.15.3-.5.1.5-.25 1.45-.05.4-.5-.05q-.45-.6-.5-1.1l-.1-.9.1-.85.65-1.4q.35-.55.35-1.25l.4.4q.3.4.25 1.05m-11.25-6.55q.3.4.25 1.05l-.35 1.1-.4 1.15.3-.5.1.5-.25 1.45-.05.4-.5-.05q-.45-.6-.5-1.1l-.1-.9.1-.85.65-1.4q.35-.55.35-1.25l.4.4m11.2 14.65q1.1-.8 1.25-2.15l.15-5.35-.3-.35.3-.1.6.5q.45.7.5 1.8l.1 2.4q0 3.55-2.45 3.65-.3-.15-.15-.4m3.85-36.9l-.6-.45-.55-.3.15.65q.6.3.65.9l-.7.1-.05.45.4.15.3-.25q.35-.15.45-1.15l-.05-.1m-2.15.85v.05h-.05l.05-.05m-.55-.75l.15.5.4-.25-.25-.15-.3-.1" fill="#333"/></g><path d="M118.467 145.684l.5.15.7.4q.6.3.9.35l.35.05.05-.55v-.9l-.35-.7.3-.15.3.15.65.6.3.9.6.8.85.95v.4l-.15.05h-.95l-.6-.05-.15 1.05 1.4 1.1.85.55q.5.2 1 .9l.5 1.1q0 .3-.35.2l-1.7-1.4-1.7-1.6v.25l.1 1.1-.1.9-.7.15q-.95-.85-1.5-1.95l-.6-1.2-.55.1q-.4-.05-.45-.2l-.3-.8q-.05-.25.55-.25 1.25-.15 1.9-.6l-1.35-1.3-.3-.55m3.55 1.05l-.05.1h.1l-.05-.1m12.6-3.35l.75.75.45.75-.05.2q-.25.45-.35 1.1l-.2 1.15q-.15.5-.55.4l-.9-.45-1.35-.5-.65-.25-.5-.4-.55-.65-.1-.4.9.2.8.4 1.65.75.2-.9.15-1.4-.6-.25-1.7-.7-.35-.25-.7-.85q-.3-.3-.3-.6l1.2.7 2.45 1.15.3.05m2.8.55l-.5-.05-.75-.95-.25-.6.5.2 1.05 1.05-.05.35m-2.25-1.3l.6.25.5.4q.4.35.4.75t-.5.15l-.55-.45-.55-.85q-.15-.35.1-.25m-.3 10.85l-.4-.05-.1-.05-1.05-.75q-1.05-1.2-1.25-1.95l.45.4 1.1.8.35.1q.65.55.9 1.05v.45m-3.05-.7l1.8 1q1 .95 1 1.6l-.3.1-1-.75-1.2-1.35-.3-.6m2.5 4.15l.95 1.35v.55l-.45-.05-.45-.45-2.65-2.9-.3-.6 1.1.7 1.8 1.4m-13.65-7.8l-.45-.25-.85.3 1.2 1.55.15.05.05-1.55-.1-.1m.15-.6v-.05.05m1.75 7.7q0-.3.2-.15l.15.15.55.4.4.4-.05.35-.2.05.2.15.2.25v-1.05h.05l-.9-.5-.6-.45q-.2-.3.1-.3l1.35.45q.95.45.95 1.2l-.1 2q-.05.55-.4.35-.35-.1-.75-.8l-.55-.75-.7-.15-.05.25-.35.15-.2-.05.1.5-.25.35-.05.1 1.05.1v-.4l-.2-.4q-.15-.25.05-.3l.95.75.15.55-.05.1.35.15q.35.15.35.4l-.6.2-.1.05.55.25q.6.4.2.6l-.75.1.3.15.4.25v.4l-.45.15-.2.15v.1l.9.45.15.05q.45.25.55.7v.35l-.65-.2-2.3-1.15-.3-.2h-.2l-.45.3q-.7-.55-.65-1.15l.05-1.5v-.55l-.1.1q-.4-.05-.55-.3v.25q-.2.3-.45.2l-.45-.5-1.15-.25q-.75-.35-.65-1.3l.15-1.9v-1l.2-.6.25.3.35.05q.6.1 1 .3l.6.55.25.4-.05 2.85 1-.85-.1-.45.3.1-.25-.45q-.05-.3.35-.1l.15-.1v-.45l-.65.55h-.45q-.4-.8.15-.9l-.45-.65q-.2-.25-.1-.35l.4.2-.5-.45-.25-.45 1.7.55.85.6.2 1.2-.05 1.1.5-.4-.2-.6q.3.05-.2-.6m-.95 3.35v.45l1.05.05v-.05l-.7-.15q-.35-.2-.35-.3m1.05 1.2l-1.05-.3v.45l.05.6.05.3.25.1-.1-.2.65-.15-.4-.05q-.65-.35-.1-.6l.65-.05v-.1m.05.75l-.2.05h.2v-.05m-.75.4l.15.05-.15-.05m-.05 3.05l1.1.85q.55.5.55 1.3v2.4l.15 2.3-.15.95-.4.2-.3-.25-1.3-.95-1-.75-.7-.6-.25.4q-1.05-.95-1-1.5l.25-2.1.2-2.6q.15 0 .35.15l.3.95.05.7.05.25 1.9.8.65.9.05.1v-1.55l-.05-.95v-.1l-.2-.15-1.85-.4-.4-.5 1.2-.1.8.25m-2.1 2.4l.05 1.2.7-.65-.75-.55m14.85-3.85l.6-.05.65.7.35.75q0 .4-.85.45l-1.85.2q-.05.9.05 1.35l1 .3.45-.15-.3-.35.1-.1q1.2.5 1.9 1.6.5.9.5 1.7-.2.25-.7 0-.6-.65-1.4-.95l.25-.35.45-.25-.55-1-.1.25-1.8.1-1.9-.65-1-.55-.35-.35-.4-.9q0-.35.5-.4.25-.05.45.3l.85-.15.9-.1.05-.55v-.25l-1.85-.4-.7-1.15q0-.2.15-.25l.75-.95.4.15-.2 1.3.15.1.7.2.65.25.1-2.5-.3-.75.25.05.4.1q.9.95.85 1.55l-.25 1.65v.1l1.1.2-.05-.25m-3.75 2.3l1.05.5.7.25-.25-1.1-1.7.2.2.15m2.65-1q.35-.3.65-.35l-.65-.05v.4m-.2 6.9l.05 1.35-.15 1.45.15 1.15q.15.65.85 1.85l1.05 1.9-.3.05q-1.75-1.7-2.2-2.65-.7-1.15-.5-2.5l.15-1.5.1-1.25-.15-1.3-.15-.45.4.3q.55.7.7 1.6m.55 9.15l1.1.85q.55.5.55 1.3v2.4l.15 2.3-.15.95-.4.2-.3-.25-1.3-.95-1-.75-.7-.6-.25.4q-1.05-.95-1-1.5l.25-2.1.2-2.6q.15 0 .35.15l.3.95.05.7.05.25 1.9.8.65.9.05.1v-1.55l-.05-.95v-.1l-.2-.15-1.85-.4-.4-.5 1.2-.1.8.25m-2.05 3.6l.7-.65-.75-.55.05 1.2m-13.65-29.4l.15 1 .3.15.45.35V155.434l-.85-.35h-.05m.4 2.05l-.25-.25v.2l-.05.45v.4q0-.45.3-.8m-.3 1.2v.2l.7-.1.1-.85q-.5.15-.8.75" fill="#56503a"/></svg>