<?xml version="1.0" encoding="UTF-8" standalone="no"?>
<svg
   height="182"
   width="160"
   version="1.1"
   id="svg60"
   sodipodi:docname="back-sitting.svg"
   inkscape:version="1.2.2 (b0a8486541, 2022-12-01)"
   xmlns:inkscape="http://www.inkscape.org/namespaces/inkscape"
   xmlns:sodipodi="http://sodipodi.sourceforge.net/DTD/sodipodi-0.dtd"
   xmlns:xlink="http://www.w3.org/1999/xlink"
   xmlns="http://www.w3.org/2000/svg"
   xmlns:svg="http://www.w3.org/2000/svg">
  <sodipodi:namedview
     id="namedview62"
     pagecolor="#ffffff"
     bordercolor="#000000"
     borderopacity="0.25"
     inkscape:showpageshadow="2"
     inkscape:pageopacity="0.0"
     inkscape:pagecheckerboard="0"
     inkscape:deskcolor="#d1d1d1"
     showgrid="false"
     inkscape:zoom="4.8241758"
     inkscape:cx="80.117312"
     inkscape:cy="91"
     inkscape:window-width="1888"
     inkscape:window-height="1044"
     inkscape:window-x="32"
     inkscape:window-y="0"
     inkscape:window-maximized="1"
     inkscape:current-layer="svg60" />
  <defs
     id="defs34">
    <linearGradient
       xlink:href="#a"
       id="e"
       gradientUnits="userSpaceOnUse"
       gradientTransform="matrix(0.0314,-0.01817088,-0.005,-0.00878592,79.195,50.606887)"
       x1="-819.2"
       x2="819.2"
       spreadMethod="pad" />
    <linearGradient
       gradientTransform="matrix(-.0157 -.0091 .0025 -.0044 -107.85 7.65)"
       gradientUnits="userSpaceOnUse"
       id="a"
       spreadMethod="pad"
       x1="-819.2"
       x2="819.2">
      <stop
         offset=".204"
         stop-color="#ccc"
         id="stop3" />
      <stop
         offset=".804"
         stop-color="#e7e7e7"
         id="stop5" />
      <stop
         offset="1"
         stop-color="#fff"
         id="stop7" />
    </linearGradient>
    <linearGradient
       xlink:href="#b"
       id="f"
       gradientUnits="userSpaceOnUse"
       gradientTransform="matrix(-0.0566,0,0,0.02036736,72.395,34.033447)"
       x1="-819.2"
       x2="819.2"
       spreadMethod="pad" />
    <linearGradient
       gradientTransform="matrix(.0283 0 0 .0102 -104.45 -.65)"
       gradientUnits="userSpaceOnUse"
       id="b"
       spreadMethod="pad"
       x1="-819.2"
       x2="819.2">
      <stop
         offset=".004"
         stop-color="#fff"
         id="stop11" />
      <stop
         offset=".18"
         stop-color="#d10101"
         id="stop13" />
      <stop
         offset=".557"
         stop-color="#fe3636"
         id="stop15" />
      <stop
         offset=".906"
         stop-color="#fff"
         id="stop17" />
    </linearGradient>
    <radialGradient
       xlink:href="#c"
       id="g"
       gradientUnits="userSpaceOnUse"
       gradientTransform="matrix(0.0086,0,0,0.0086,2.6,-0.2)"
       cx="0"
       cy="0"
       r="819.2"
       spreadMethod="pad" />
    <radialGradient
       cx="0"
       cy="0"
       gradientTransform="translate(2.6 -.2) scale(.0086)"
       gradientUnits="userSpaceOnUse"
       id="c"
       r="819.2"
       spreadMethod="pad">
      <stop
         offset=".204"
         stop-color="#ccc"
         id="stop21" />
      <stop
         offset=".757"
         stop-color="#e7e7e7"
         id="stop23" />
      <stop
         offset="1"
         stop-color="#fff"
         id="stop25" />
    </radialGradient>
    <filter
       id="d"
       x="0"
       width="1"
       y="0"
       height="1"
       color-interpolation-filters="sRGB">
      <feGaussianBlur
         id="feGaussianBlur28" />
    </filter>
    <filter
       id="h"
       x="0"
       width="1"
       y="0"
       height="1"
       color-interpolation-filters="sRGB">
      <feGaussianBlur
         id="feGaussianBlur31" />
    </filter>
  </defs>
  <path
     d="m 56.323,75.554367 0.314,-0.815 -3.807,-6.035 -1.438,-4.56 1.373,-6.522 4.135,-5.647 1.446,-2.354 7.328,-15.627 1.194,-1.258 8.576,17.368 11.82,-0.173 8.065,-16.618 1.081,-1.018 8.527,18.03 2.82,1.392 1.983,1.65 2.253,4.108 0.97,3.683 -0.133,6.317 -3.978,6.408 -2.835,0.964 -3.342,2.884 7.325,7.896 2.089,6.418 -4.807,4.96 -5.472,-0.907 3.919,1.321 1.892,2.312 1.9,4.815003 -0.357,5.985 -3.313,2.639 -1.677,0.216 H 61.582 l -8.487,0.512 -2.646,-0.988 -2.067,-4.224 4.465,-5.051 -0.512,-3.703003 0.885,-3.95 -0.976,-2.244 -0.565,-6.19 6.837,-12.353 -2.599,-0.362 50.1,0.014"
     opacity="0.99"
     fill="#ffffff"
     id="path36" />
  <path
     d="m 97.044,57.205367 h -1.749 l 2.64,-4.23 h 2.839 z"
     opacity="0.99"
     filter="url(#d)"
     id="path38" />
  <path
     d="m 103.73,51.089367 2.397,-1.113 -11.563,-19.561 -8.348,18.661 -9.803,0.005 -9.705,-20.953 -9.978,21.65 2.37,1.172 7.594,-17.034 7.868,17.26 13.612,-0.212 7.78,-17.2 z m 4.031,0.09 3.162,3.64 1.79,3.047 0.873,2.638 0.172,1.79 0.047,2.78 -0.413,2.408 c 0,0 -0.59,1.647 -0.97,2.435 -0.293,0.61 -0.628,1.199 -1.002,1.762 -0.675,1.016 -1.45,1.966 -2.233,2.902 -0.462,0.55 -1.452,1.593 -1.452,1.593 l -1.718,-1.327 2.2,-2.23 1.56,-2.06 1.155,-2.311 0.593,-2.09 0.214,-2.247 -0.186,-2.747 -0.778,-2.7 -1.03,-1.794 -1.372,-1.682 -2.367,-2.512 z m -51.038,25.207 1.793,-1.19 -2.507,-2.742 -1.874,-2.97 -0.74,-2.087 -0.338,-1.701 -0.068,-2.186 0.133,-2.572 0.51,-2.214 1.17,-2.263 1.29,-1.599 1.38,-1.689 1.137,-1.125 -1.636,-1.324 -1.402,1.533 -1.623,1.888 -1.103,1.81 -1.24,2.65 -0.717,2.395 -0.119,1.843 -0.02,2.022 0.133,1.423 0.72,2.528 0.86,1.942 1.358,2.063 c 0,0 1.015,1.38 1.558,2.04 0.438,0.516 0.886,1.025 1.344,1.524 z m 2.527,1.735 -2.087,-1.589 -1.811,1.719 -1.57,1.653 -1.17,1.534 -0.948,1.924 -0.43,1.998 -0.328,1.478 -0.16,2.156 -0.258,2.59 0.155,1.25 0.657,0.926 0.944,-0.022 -0.008,-2.384 0.452,-2.595 0.372,-1.96 0.703,-2.01 0.574,-1.58 0.995,-1.547 1.564,-1.746 z m 44.826,20.696 1.653,-1.398 2.334,2.257 1.101,1.312003 0.626,1.082 0.453,1.356 0.398,1.867 0.039,1.449 -0.2,2.146 -0.468,1.405 -0.96,1.717 -1.264,1.513 -1.63,1.46 -0.557,0.477 -1.427,-1.323 1.773,-1.514 1.38,-1.606 0.86,-1.6 0.475,-1.413 0.055,-1.418 -0.086,-2.107 -0.507,-1.451 -1.335,-2.015 -1.294,-1.178003 z m -53.533,-3.812 0.768,5.770003 0.809,3.488 -2.33,1.536 -1.68,1.982 -0.793,1.874 -0.08,1.994 0.27,1.126 1.05,1.427 2.062,1.063 3.248,0.228 8.395,-0.054 0.386,-2.573 -6.117,0.459 -2.518,0.054 -2.827,-0.456 -1.05,-0.807 -0.534,-1.197 0.105,-1.577 0.645,-1.185 1.224,-1.373 1.453,-0.902 3.624,-1.608 -0.386,-1.95 -2.068,0.965 -0.78,-3.043 -0.283,-2.679003 0.084,-2.581 z"
     opacity="0.99"
     id="path40" />
  <path
     d="m 102.445,76.143367 3.856,3.936 2.172,2.302 2.106,2.435 1.641,2.434 0.733,1.685 0.335,2.095 -0.296,2.183 -0.857,1.732 -1.636,1.51 -1.81,0.858 -2.17,0.561 -1.976,-0.17 -2.67,-1.137 -2.935,-2.248 -1.695,-1.81 1.704,-1.774 1.44,2.105 1.326,1.294 1.72,0.934 1.936,0.467 1.903,-0.032 1.794,-0.809 1.042,-0.979 0.934,-1.623 0.233,-1.545 -0.523,-1.956 -1.094,-1.747 -2.008,-2.41 -2.464,-2.45 -1.966,-1.668 -1.594,-1.355 -0.824,-0.772 z m -15.439,24.143003 -2.652,1.169 -4.506,1.975 -3.375,1.717 -1.611,1.446 -1.323,2.11 -0.412,1.677 0.175,1.803 1.093,1.72 1.629,0.884 2.425,0.398 2.369,0.222 7.056,-0.023 0.35,-2.683 -3.179,0.289 -4.438,0.21 -2.34,-0.131 -1.456,-0.418 -0.75,-0.587 -0.574,-0.903 -0.053,-1.16 0.42,-1.453 1.125,-1.256 1.3,-0.904 1.786,-0.993 1.896,-0.79 2.359,-0.949 2.014,-0.662 2.357,-0.813 z"
     opacity="0.99"
     id="path42" />
  <path
     d="m 107.795,42.420007 -58.4,8.38656 q -1.9,3.19488 1.1,8.08704 29.2,-7.9872 58.4,-8.4864 l -1,-7.9872 h -0.1 0.1 -0.1"
     fill="url(#a)"
     fill-rule="evenodd"
     style="fill:url(#e);stroke-width:1.9984"
     id="path44" />
  <path
     d="m 107.795,42.420007 q -15.1,-18.07104 -43.3,-25.05984 -11.5,2.59584 -27.5,17.57184 h 18.4 l -6,15.87456 58.4,-8.38656"
     fill="url(#b)"
     fill-rule="evenodd"
     style="fill:url(#f);stroke-width:1.9984"
     id="path46" />
  <path
     d="m 107.795,42.420007 -58.4,8.38656 q -1.9,3.19488 1.1,8.08704 29.2,-7.9872 58.4,-8.4864 l -1,-7.9872 h -0.1 m 0,0 h 0.1"
     fill="none"
     stroke="#ffffff"
     stroke-linecap="round"
     stroke-linejoin="round"
     id="path48"
     style="stroke-width:1.9984" />
  <path
     d="m 49.395,50.806567 6,-15.87456 h -18.4 q 16,-14.976 27.5,-17.57184 28.2,6.9888 43.3,25.05984 z"
     fill="none"
     stroke="#ff0000"
     stroke-linecap="round"
     stroke-linejoin="round"
     id="path50"
     style="stroke-width:1.9984" />
  <g
     fill-rule="evenodd"
     id="g56"
     transform="translate(0,-9.9996326)">
    <path
       d="M 4.9,-4.95 Q 7,-2.9 7,0 7,2.9 4.9,4.9 2.9,7 0,7 -2.9,7 -4.95,4.9 -7,2.9 -7,0 -7,-2.9 -4.95,-4.95 -2.9,-7 0,-7 q 2.9,0 4.9,2.05"
       fill="url(#c)"
       transform="matrix(-2,0,0,1.9968,34.695,40.04)"
       style="fill:url(#g)"
       id="path52" />
    <path
       d="m 33.795,25.064 q -1,-0.4 -1.6,0.599 -0.6,0.998 0.3,1.498 l 1.2,-0.1 h 0.2 q 0.9,0.599 1.5,-0.5 0.6,-1.198 -0.3,-1.497 l -1,0.1 -0.3,-0.1 m -2.7,0.3 q -1,-0.5 -1.7,0.698 -0.6,1.198 0.3,1.797 0.8,0.6 1.6,-0.698 0.7,-1.298 -0.2,-1.798 m -3.1,1.698 q -0.9,-0.7 -1.6,0.4 -0.8,0.998 0.3,1.597 1.1,0.599 1.6,-0.4 0.6,-0.998 -0.3,-1.597 m -7.8,6.59 q -0.5,0.998 0.4,1.397 0.9,0.599 1.5,-0.5 0.6,-1.197 -0.3,-1.497 -0.9,-0.3 -1.6,0.6 m 4.3,-2.197 q 0.6,-1.099 -0.4,-1.698 -0.9,-0.698 -1.7,0.5 -0.7,0.998 0.4,1.697 1.2,0.699 1.7,-0.5 m -2.8,6.89 q 0.7,-1.198 -0.2,-1.698 -0.9,-0.599 -1.5,0.6 -0.7,1.098 0.1,1.797 0.9,0.499 1.6,-0.7 m 0.5,4.693 q 0.7,-1.298 -0.5,-2.196 -1.1,-0.799 -2.1,0.599 -1,1.298 0.5,2.096 1.4,0.8 2.1,-0.499 m -1.3,1.598 q -0.4,0.698 0.3,1.098 0.6,0.4 0.9,-0.3 0.4,-0.599 -0.2,-0.998 l -1,0.2 m 3.2,2.795 q -1.1,-0.4 -1.6,0.6 -0.7,0.998 0.3,1.497 0.9,0.599 1.6,-0.6 0.6,-1.197 -0.3,-1.497 m 7.5,7.089 q 1.1,0.599 1.7,-0.4 0.4,-1.098 -0.4,-1.697 -1,-0.599 -1.7,0.4 -0.7,0.998 0.4,1.697 m -3.8,-0.7 q 1.3,0.8 1.9,-0.398 0.7,-1.199 -0.4,-1.997 -1,-0.7 -1.9,0.499 -0.9,1.298 0.4,1.897 m -1.3,-2.496 q 0.4,-0.699 -0.1,-1.098 -0.6,-0.3 -1,0.399 -0.4,0.699 0.2,1.098 0.5,0.3 0.9,-0.4 m 11.8,-24.16 q 0.6,0.399 1,-0.2 l -0.3,-1.098 -0.9,0.3 q -0.5,0.598 0.2,0.998 m 3.3,1.497 q 1,0.6 1.6,-0.4 0.5,-0.898 -0.3,-1.597 -0.9,-0.499 -1.6,0.4 -0.8,0.998 0.3,1.597 m 1.3,0.799 q -0.7,1.198 0.3,1.897 0.9,0.699 1.6,-0.699 0.8,-1.298 -0.2,-1.897 -0.9,-0.5 -1.7,0.699 m 2.8,3.195 q 0.6,0.4 1,-0.4 0.3,-0.798 -0.2,-0.898 -0.7,-0.2 -1,0.4 -0.4,0.498 0.2,0.898 m 1.3,2.296 q -0.9,1.298 0.5,1.997 1.4,0.799 2,-0.5 0.6,-1.297 -0.5,-1.996 -1.1,-0.699 -2,0.5 m 0.7,3.294 q -0.9,1.198 0.4,1.897 1.2,0.699 1.9,-0.4 0.6,-1.198 -0.4,-1.996 -1.1,-0.7 -1.9,0.499 m 1.6,5.192 q 0.7,-1.298 -0.2,-1.897 -1,-0.5 -1.7,0.698 -0.6,1.199 0.3,1.897 0.8,0.5 1.6,-0.698 m -4.9,4.892 q -0.7,1.098 0.4,1.697 1.1,0.599 1.7,-0.4 0.4,-1.098 -0.4,-1.697 -1,-0.599 -1.7,0.4 m 1.4,-0.899 q 1.2,0.699 1.9,-0.799 0.8,-1.497 -0.4,-1.897 -1.2,-0.399 -1.9,0.8 -0.8,1.097 0.4,1.896 m -2.1,2.696 q -1.2,-0.899 -2.2,0.499 -1,1.398 0.4,2.296 1.5,0.8 2.2,-0.599 0.8,-1.298 -0.4,-2.196 m -8.2,4.493 q 0.6,0.3 0.9,-0.4 0.4,-0.699 -0.2,-0.798 -0.5,-0.3 -0.9,0.3 -0.4,0.498 0.2,0.898 m 4,0 q 0.9,0.499 1.5,-0.6 0.7,-1.198 -0.1,-1.697 -0.9,-0.499 -1.6,0.6 -0.6,1.098 0.2,1.697"
       fill="#ffffff"
       id="path54" />
  </g>
  <circle
     cx="106.132"
     cy="60.220367"
     r="2.118"
     opacity="0.99"
     filter="url(#a)"
     id="gikopoipoi_eyes_open"
     style="display:inline;filter:url(#h)" />
  <path
     d="M103.535 70.904c2.012.598 4.169.324 5.246-.469"
     stroke-width="3"
     id="gikopoipoi_eyes_closed"
     style="display:none;stroke-width:2.14607;stroke-dasharray:none"
     fill="none"
     stroke="#000"
     stroke-linecap="round"
     stroke-linejoin="round" />
</svg>
