<?xml version="1.0" encoding="UTF-8" standalone="no"?>
<svg
   height="182"
   width="160"
   version="1.1"
   id="svg62"
   sodipodi:docname="front-sitting.svg"
   inkscape:version="1.2.2 (b0a8486541, 2022-12-01)"
   xmlns:inkscape="http://www.inkscape.org/namespaces/inkscape"
   xmlns:sodipodi="http://sodipodi.sourceforge.net/DTD/sodipodi-0.dtd"
   xmlns:xlink="http://www.w3.org/1999/xlink"
   xmlns="http://www.w3.org/2000/svg"
   xmlns:svg="http://www.w3.org/2000/svg">
  <sodipodi:namedview
     id="namedview64"
     pagecolor="#ffffff"
     bordercolor="#000000"
     borderopacity="0.25"
     inkscape:showpageshadow="2"
     inkscape:pageopacity="0.0"
     inkscape:pagecheckerboard="0"
     inkscape:deskcolor="#d1d1d1"
     showgrid="false"
     inkscape:zoom="4.8241758"
     inkscape:cx="55.553531"
     inkscape:cy="91"
     inkscape:window-width="1888"
     inkscape:window-height="1044"
     inkscape:window-x="32"
     inkscape:window-y="0"
     inkscape:window-maximized="1"
     inkscape:current-layer="svg62" />
  <defs
     id="defs28">
    <linearGradient
       gradientTransform="matrix(-.0157 -.0091 .0025 -.0044 -107.85 7.65)"
       gradientUnits="userSpaceOnUse"
       id="a"
       spreadMethod="pad"
       x1="-819.2"
       x2="819.2">
      <stop
         offset=".204"
         stop-color="#ccc"
         id="stop2" />
      <stop
         offset=".804"
         stop-color="#e7e7e7"
         id="stop4" />
      <stop
         offset="1"
         stop-color="#fff"
         id="stop6" />
    </linearGradient>
    <linearGradient
       gradientTransform="matrix(.0283 0 0 .0102 -104.45 -.65)"
       gradientUnits="userSpaceOnUse"
       id="b"
       spreadMethod="pad"
       x1="-819.2"
       x2="819.2">
      <stop
         offset=".004"
         stop-color="#fff"
         id="stop9" />
      <stop
         offset=".18"
         stop-color="#d10101"
         id="stop11" />
      <stop
         offset=".557"
         stop-color="#fe3636"
         id="stop13" />
      <stop
         offset=".906"
         stop-color="#fff"
         id="stop15" />
    </linearGradient>
    <linearGradient
       xlink:href="#a"
       id="e"
       gradientUnits="userSpaceOnUse"
       gradientTransform="matrix(0.03143768,-0.01821456,-0.005006,-0.00880704,78.90384,50.631435)"
       x1="-819.2"
       x2="819.2"
       spreadMethod="pad" />
    <linearGradient
       xlink:href="#b"
       id="f"
       gradientUnits="userSpaceOnUse"
       gradientTransform="matrix(-0.05666792,0,0,0.02041632,72.09568,34.018155)"
       x1="-819.2"
       x2="819.2"
       spreadMethod="pad" />
    <radialGradient
       cx="0"
       cy="0"
       gradientTransform="translate(2.6 -.2) scale(.0086)"
       gradientUnits="userSpaceOnUse"
       id="c"
       r="819.2"
       spreadMethod="pad">
      <stop
         offset=".204"
         stop-color="#ccc"
         id="stop20" />
      <stop
         offset=".757"
         stop-color="#e7e7e7"
         id="stop22" />
      <stop
         offset="1"
         stop-color="#fff"
         id="stop24" />
    </radialGradient>
    <radialGradient
       xlink:href="#c"
       id="d"
       gradientUnits="userSpaceOnUse"
       gradientTransform="matrix(0.0086,0,0,0.0086,2.6,-0.2)"
       cx="0"
       cy="0"
       r="819.2"
       spreadMethod="pad" />
  </defs>
  <path
     d="m 56.314,75.468195 -0.156,-0.694 -3.337,-6.156 -1.438,-4.56 1.373,-6.521 4.135,-5.647 1.446,-2.354 7.328,-15.628 1.194,-1.257 8.576,17.368 11.82,-0.174 8.065,-16.617 1.081,-1.019 8.528,18.03 2.818,1.393 1.984,1.65 2.254,4.107 0.969,3.684 -0.133,6.316 -3.977,6.408 -2.836,0.965 1.036,2.685 2.262,2.309 3.044,5.208 -0.442,6.091 -4.635,5.865 -0.26,0.665 -1.367,1.082 1.967,2.980005 1.899,4.814 -0.379,3.005 -3.291,3.741 -1.677,0.217 H 64.376 l -11.29,-0.385 -2.072,-1.571 1.146,-3.266 3.84,-3.07 -0.994,-8.062005 0.707,-1.41 -2.585,-4.703 -0.252,-7.841 4.457,-5.784 -1.425,-2.584 50.1,0.014"
     fill="#ffffff"
     id="path30" />
  <path
     d="m 81.209,81.806195 9.21,-0.348 -0.293,10.016 -8.809,0.03 z"
     fill="#a2bf80"
     id="path32" />
  <path
     d="m 58.897,59.246195 h -1.749 l 2.64,-4.23 h 2.84 z m 22.953,1.969 -1.138,2.637 -0.48,2.744 -0.032,2.498 0.655,1.998 1.138,0.857 1.58,0.063 c 0,0 0.89,-0.906 0.968,-1.061 0.078,-0.156 0.594,-1.155 0.594,-1.155 0,0 0.078,-2.2 0.078,-2.385 l 0.013,-3.183 H 87.5 l -0.03,2.722 -0.042,2.619 0.19,0.95 0.59,0.871 0.738,0.517 1.076,0.125 1.295,-0.485 0.827,-1.17 0.453,-1.946 c 0,0 -0.077,-1.516 -0.077,-1.685 0,-0.17 -0.281,-1.824 -0.281,-1.824 0,0 -0.732,-2.06 -0.793,-2.212 a 82.043,82.043 0 0 0 -0.785,-1.598 l 2.171,0.003 c 0,0 0.658,1.39 0.765,1.557 0.106,0.168 0.59,1.684 0.59,1.684 l 0.264,1.589 0.14,1.95 -0.139,1.834 -0.514,1.48 -0.81,1.276 -1.092,0.897 -0.99,0.4 -1.389,0.107 -1.214,-0.25 -0.934,-0.672 -0.795,-1.107 -0.466,-0.779 -0.966,1.588 -0.966,0.796 -1.636,0.422 -1.871,-0.201 -1.621,-1.42 c 0,0 -0.907,-1.294 -1,-1.98 -0.092,-0.687 -0.249,-2.203 -0.249,-2.203 l 0.078,-2.118 c 0,0 0.315,-1.797 0.406,-1.934 0.091,-0.137 0.802,-1.8 0.802,-1.8 l 0.669,-1.089 z m 27.976,-0.994 h -1.689 l -3.633,-4.078 h 2.877 z m -6.106,-9.218 2.398,-1.112 -10.244,-19.252 -9.667,18.351 -9.802,0.005 -9.705,-20.952 -9.979,21.65 2.37,1.171 7.594,-17.034 7.868,17.26 13.612,-0.212 7.78,-17.199 z"
     id="path34" />
  <path
     d="m 107.753,51.093195 3.161,3.641 1.79,3.046 0.873,2.638 0.172,1.791 0.048,2.78 -0.413,2.408 c 0,0 -0.592,1.647 -0.97,2.434 -0.293,0.61 -0.628,1.2 -1.003,1.762 -0.675,1.017 -1.45,1.967 -2.233,2.902 -0.462,0.551 -1.452,1.594 -1.452,1.594 l -1.718,-1.327 2.2,-2.23 1.56,-2.061 1.155,-2.31 0.593,-2.09 0.214,-2.248 -0.186,-2.747 -0.778,-2.7 -1.03,-1.794 -1.372,-1.681 -2.367,-2.512 z m -51.039,25.207 1.793,-1.19 -2.507,-2.741 -1.874,-2.97 -0.74,-2.088 -0.338,-1.7 -0.068,-2.187 0.133,-2.571 0.51,-2.214 1.17,-2.263 1.29,-1.6 1.38,-1.688 1.137,-1.125 -1.636,-1.324 -1.402,1.532 -1.622,1.888 -1.104,1.81 -1.24,2.65 -0.716,2.396 -0.119,1.844 -0.019,2.021 0.132,1.423 0.72,2.529 0.86,1.942 1.358,2.063 c 0,0 1.015,1.379 1.558,2.04 a 53.58,53.58 0 0 0 1.344,1.524 z m 50.851,0.059 -2.1,1.64 2.074,1.629 1.7,1.842 0.951,1.513 0.608,1.565 0.397,2.362 -0.077,2.044 -0.365,1.71 -0.862,1.848 -0.837,1.125 -1.346,1.4 -1.437,1.235 -0.78,0.624 2.076,1.584 1.62,-1.664 1.556,-1.599 1.136,-1.445 0.684,-1.268 0.75,-2.113 0.33,-2.199 -0.044,-2.22 -0.562,-2.548 -0.806,-1.763 -0.94,-1.42 -1.678,-1.887 z m -48.324,1.677 -2.087,-1.59 -1.811,1.72 -1.569,1.652 -1.17,1.534 -0.949,1.925 -0.43,1.997 -0.199,1.602 0.067,1.783 0.287,2.089 0.721,1.902 1.245,1.896 1.165,1.416 2.291,2.066 0.472,0.394 1.888,-1.542 -1.692,-1.424 -1.856,-1.886 -1.116,-1.645 -0.65,-1.832 -0.243,-1.7 -0.057,-1.837 0.206,-1.853 0.574,-1.58 0.995,-1.547 1.564,-1.746 z m 2.126,5.904 0.914,2.213 4.42,-1.36 2.324,-0.592 2.108,-0.32 1.512,-0.066 1.126,0.078 0.86,0.22 0.814,0.31 0.826,0.74 0.338,0.76 0.308,1.035 0.076,1.045 -0.179,1.08 -0.585,1.135 -0.87,0.881 -1.07,0.816 -0.982,0.43 -1.19,0.297 -1.225,0.077 -3.618,0.153 0.432,2.132 3.75,-0.24 2.006,-0.47 1.73,-0.596 1.303,-0.795 1.39,-1.62 0.717,-1.481 0.43,-1.645 -0.122,-1.445 -0.409,-1.52 -0.562,-0.894 -1.069,-1.133 -1.553,-0.76 -1.386,-0.232 -2.14,-0.02 -3.026,0.398 -2.502,0.42 z m 33.545,-6.413 0.629,4.727 0.663,2.86 -1.909,1.257 -1.377,1.625 -0.65,1.535 -0.065,1.634 0.22,0.923 0.862,1.169 1.688,0.87 2.662,0.188 6.879,-0.045 0.316,-2.108 -5.012,0.376 -2.063,0.044 -2.316,-0.373 -0.86,-0.661 -0.438,-0.981 0.085,-1.292 0.53,-0.971 1.002,-1.125 1.19,-0.74 2.97,-1.317 3.346,-1.188 1.126,-0.32 1.034,-0.33 -1.602,-1.953 -0.518,0.61 -2.694,1.072 -2.703,1.302 -0.639,-2.494 -0.232,-2.194 0.069,-2.116 z m 9.156,21.197 1.652,-1.398 2.334,2.257 1.101,1.312005 0.627,1.082 0.452,1.356 0.398,1.867 0.04,1.45 -0.2,2.146 -0.47,1.404 -0.96,1.717 -1.263,1.513 -1.63,1.46 -0.557,0.478 -1.427,-1.324 1.773,-1.514 1.38,-1.605 0.86,-1.6 0.475,-1.414 0.055,-1.418 -0.086,-2.107 -0.507,-1.451 -1.335,-2.015 -1.294,-1.178005 z m -20.824,0.045 1.653,-1.398 2.334,2.257 1.1,1.312005 0.627,1.082 0.453,1.356 0.398,1.867 0.039,1.449 -0.2,2.146 -0.468,1.405 -0.96,1.717 -1.264,1.513 -1.63,1.46 -0.557,0.477 -1.427,-1.323 1.773,-1.515 1.38,-1.605 0.86,-1.6 0.475,-1.413 0.054,-1.419 -0.085,-2.106 -0.507,-1.451 -1.335,-2.015 -1.294,-1.178005 z"
     id="path36" />
  <path
     d="m 53.28,94.694195 0.768,5.769005 0.81,3.489 -2.33,1.535 -1.68,1.983 -0.793,1.874 -0.08,1.993 0.269,1.127 1.05,1.427 2.062,1.062 3.248,0.228 8.395,-0.054 0.386,-2.573 -6.117,0.46 -2.517,0.053 -2.827,-0.455 -1.05,-0.807 -0.535,-1.198 0.105,-1.577 0.646,-1.184 1.223,-1.374 1.453,-0.902 3.624,-1.608 4.084,-1.45 1.374,-0.39 1.262,-0.402 -1.955,-2.384005 -0.633,0.744005 -3.287,1.31 -3.299,1.588 -0.78,-3.044005 -0.282,-2.678 0.083,-2.582 z m 24.347,0.11 h 15.998 v 1.99 H 77.632 Z m 2.541,-1.75 h 1.834 v -0.793 h 7.27 v 1.01 h 1.914 v -12.65 H 89.25 v 9.998 h -7.267 v -9.939 H 80.13 Z"
     id="path38" />
  <path
     d="m 81.841,82.490195 h 7.74 l -0.33,-1.87 -7.267,0.06 z m 7.554,4.57 h -7.546 l -0.039,-1.73 h 7.835 z"
     id="path40" />
  <g
     fill-rule="evenodd"
     id="g46"
     transform="translate(0,-9.999805)">
    <path
       d="M 4.9,-4.95 Q 7,-2.9 7,0 7,2.9 4.9,4.9 2.9,7 0,7 -2.9,7 -4.95,4.9 -7,2.9 -7,0 -7,-2.9 -4.95,-4.95 -2.9,-7 0,-7 q 2.9,0 4.9,2.05"
       fill="url(#c)"
       transform="matrix(-2.0024,0,0,2.0016,55.476,46.52)"
       style="fill:url(#d)"
       id="path42" />
    <path
       d="m 54.575,31.508 q -1.001,-0.4 -1.602,0.6 -0.6,1.001 0.3,1.502 l 1.202,-0.1 h 0.2 q 0.901,0.6 1.502,-0.5 0.6,-1.202 -0.3,-1.502 l -1.002,0.1 -0.3,-0.1 m -2.703,0.3 q -1.002,-0.5 -1.703,0.7 -0.6,1.202 0.3,1.802 0.802,0.6 1.603,-0.7 0.7,-1.301 -0.2,-1.802 m -3.104,1.702 q -0.901,-0.701 -1.602,0.4 -0.801,1 0.3,1.601 1.102,0.6 1.602,-0.4 0.6,-1.001 -0.3,-1.601 m -7.81,6.605 q -0.5,1 0.4,1.4 0.902,0.601 1.503,-0.5 0.6,-1.2 -0.3,-1.5 -0.902,-0.3 -1.603,0.6 m 4.306,-2.202 q 0.6,-1.1 -0.4,-1.701 -0.902,-0.7 -1.703,0.5 -0.7,1 0.4,1.701 1.202,0.701 1.703,-0.5 m -2.804,6.906 q 0.701,-1.201 -0.2,-1.702 -0.901,-0.6 -1.502,0.6 -0.7,1.102 0.1,1.802 0.901,0.5 1.602,-0.7 m 0.5,4.703 q 0.702,-1.3 -0.5,-2.201 -1.101,-0.801 -2.102,0.6 -1.001,1.301 0.5,2.102 1.402,0.8 2.103,-0.5 m -1.302,1.6 q -0.4,0.701 0.3,1.101 0.601,0.4 0.902,-0.3 0.4,-0.6 -0.2,-1 l -1.002,0.2 m 3.204,2.802 q -1.101,-0.4 -1.602,0.6 -0.7,1.001 0.3,1.502 0.902,0.6 1.602,-0.601 0.601,-1.2 -0.3,-1.501 m 7.51,7.106 q 1.1,0.6 1.701,-0.4 0.4,-1.102 -0.4,-1.702 -1.002,-0.6 -1.702,0.4 -0.701,1 0.4,1.702 m -3.804,-0.701 q 1.301,0.8 1.902,-0.4 0.7,-1.201 -0.4,-2.002 -1.002,-0.7 -1.903,0.5 -0.901,1.301 0.4,1.902 m -1.301,-2.502 q 0.4,-0.7 -0.1,-1.1 -0.6,-0.301 -1.001,0.4 -0.4,0.7 0.2,1.1 0.5,0.3 0.901,-0.4 M 59.08,33.609 q 0.6,0.4 1.001,-0.2 l -0.3,-1.1 -0.901,0.3 q -0.5,0.6 0.2,1 m 3.304,1.502 q 1.001,0.6 1.602,-0.4 0.5,-0.901 -0.3,-1.602 -0.901,-0.5 -1.602,0.4 -0.801,1.001 0.3,1.602 m 1.302,0.8 q -0.701,1.201 0.3,1.902 0.901,0.7 1.602,-0.7 0.8,-1.302 -0.2,-1.902 -0.901,-0.5 -1.702,0.7 m 2.803,3.203 q 0.6,0.4 1.001,-0.4 0.3,-0.801 -0.2,-0.901 -0.7,-0.2 -1.001,0.4 -0.4,0.5 0.2,0.901 m 1.302,2.302 q -0.901,1.3 0.5,2.001 1.402,0.801 2.003,-0.5 0.6,-1.301 -0.501,-2.002 -1.101,-0.7 -2.002,0.5 m 0.7,3.303 q -0.9,1.201 0.4,1.902 1.202,0.7 1.903,-0.4 0.6,-1.201 -0.4,-2.002 -1.102,-0.7 -1.903,0.5 m 1.602,5.205 q 0.701,-1.301 -0.2,-1.902 -1.001,-0.5 -1.702,0.7 -0.6,1.202 0.3,1.902 0.801,0.5 1.602,-0.7 m -4.906,4.904 q -0.7,1.1 0.401,1.7 1.101,0.601 1.702,-0.4 0.4,-1.1 -0.4,-1.7 -1.002,-0.601 -1.703,0.4 m 1.402,-0.901 q 1.202,0.7 1.902,-0.8 0.801,-1.502 -0.4,-1.902 -1.201,-0.4 -1.902,0.8 -0.801,1.101 0.4,1.902 m -2.102,2.702 q -1.202,-0.9 -2.203,0.5 -1.001,1.402 0.4,2.302 1.502,0.8 2.203,-0.6 0.801,-1.301 -0.4,-2.202 m -8.21,4.504 q 0.6,0.3 0.9,-0.4 0.401,-0.701 -0.2,-0.801 -0.5,-0.3 -0.9,0.3 -0.4,0.5 0.2,0.9 m 4.005,0 q 0.9,0.501 1.501,-0.6 0.701,-1.2 -0.1,-1.701 -0.9,-0.5 -1.602,0.6 -0.6,1.101 0.2,1.702"
       fill="#ffffff"
       id="path44" />
  </g>
  <path
     d="m 49.06808,50.831595 q -1.90228,3.20256 1.10132,8.10648 29.23504,-8.0064 58.47008,-8.5068 l -1.0012,-8.0064 h -0.10012 0.10012 -0.10012 l -58.47008,8.40672"
     fill="url(#a)"
     fill-rule="evenodd"
     style="fill:url(#e);stroke-width:2.002"
     id="path48" />
  <path
     d="M 107.53816,42.424875 Q 92.42004,24.310395 64.1862,17.304795 q -14.61752,6.0048 -16.11932,19.21536 -1.5018,13.11048 3.0036,4.10328 4.60552,-9.10728 4.0048,-5.70456 l -6.0072,15.91272 58.47008,-8.40672"
     fill="url(#b)"
     fill-rule="evenodd"
     style="fill:url(#f);stroke-width:2.002"
     id="path50" />
  <path
     d="m 49.06808,50.831595 q -1.90228,3.20256 1.10132,8.10648 29.23504,-8.0064 58.47008,-8.5068 l -1.0012,-8.0064 h -0.10012 l -58.47008,8.40672 m 58.5702,-8.40672 h -0.10012"
     fill="none"
     stroke="#ffffff"
     stroke-linecap="round"
     stroke-linejoin="round"
     id="path52"
     style="stroke-width:2.002" />
  <path
     d="M 107.53816,42.424875 Q 92.42004,24.310395 64.1862,17.304795 q -14.61752,6.0048 -16.11932,19.21536 -1.5018,13.11048 3.0036,4.10328 4.60552,-9.10728 4.0048,-5.70456 l -6.0072,15.91272 z"
     fill="none"
     stroke="#ff0000"
     stroke-linecap="round"
     stroke-linejoin="round"
     id="path54"
     style="stroke-width:2.002" />
  <g
     id="gikopoipoi_eyes_open"
     style="display:inline"
     transform="translate(-0.022,-16.484805)">
    <circle
       cx="68.024002"
       cy="78.851997"
       r="2.118"
       style="display:inline"
       id="circle56" />
    <circle
       cx="101.399"
       cy="78.901001"
       r="2.118"
       style="display:inline"
       id="circle58" />
  </g>
  <path
     d="m 98.737,62.848035 c 1.238,0.875 4.142,0.764 5.267,-0.024 m -38.536,-0.025 c 1.238,0.875 4.142,0.764 5.267,-0.024"
     style="display:none;stroke-width:2.14607;stroke-dasharray:none"
     id="gikopoipoi_eyes_closed"
     stroke-width="3"
     fill="none"
     stroke="#000000"
     stroke-linecap="round"
     stroke-linejoin="round" />
</svg>
