<svg height="463" width="921" xmlns:xlink="http://www.w3.org/1999/xlink" xmlns="http://www.w3.org/2000/svg"><defs><g id="c"><path fill="#e7e6e0" fill-rule="evenodd" d="m99.211 97.97 2.633 1.322h.013l-.013.013-2.593 1.297-2.633-1.323 2.593-1.31m-18.468 1.297 2.646-1.323 2.646 1.336-2.646 1.323-2.646-1.336m7.938-3.97L91.274 94l2.645 1.323-2.473 1.244-.12.066-1.494-.754-1.151-.582m2.606 1.35 2.646 1.322 2.632 1.323-2.474 1.244-.132.066-.119.066-2.514 1.257 2.633 1.322q-1.323.649-2.633 1.31l-.013.013-2.632-1.323 2.645-1.322-2.645-1.323-2.646-1.323 2.646-1.323 2.606-1.31m10.557 2.646v.013-.013m-7.885 1.31-2.633-1.323 2.607-1.31-2.607 1.31 2.633 1.323m-2.513-4.035-.12.066.12-.066m-2.765 4.035 2.645-1.323-2.645-1.323 2.645 1.323-2.645 1.323" style="fill:#fdbcb8;fill-opacity:1;stroke-width:.264583" transform="translate(-306.821 -357.238) scale(3.80307)"/><path fill="#dbdad0" fill-rule="evenodd" d="m93.92 95.323 2.645 1.323 2.646 1.323-2.593 1.31 2.633 1.323-2.646 1.323-2.646 1.323-2.633-1.323 2.514-1.257.132-.066h-.013l.132-.066-.119.066 2.633 1.323-2.633-1.323.12-.066 2.473-1.244-2.632-1.323-2.646-1.323.04-.013-.04.013-2.606 1.31-2.646 1.323 2.646 1.323 2.645 1.323-2.645 1.323-2.646-1.323 2.646-1.323-2.646 1.323-2.646-1.323 2.646-1.323-2.646-1.336 2.646-1.323 2.646-1.323 1.15.582 1.495.754.12-.066 2.473-1.244m2.646 1.323-2.632 1.323 2.632-1.323m-2.606 3.956h.013l-.132.066.12-.066m2.605-1.31.053-.013-.053.013m-6.733-3.413 1.455.767-1.455-.767m-1.151 2.077-2.646-1.336 2.646 1.336" style="fill:#ffcfcd;fill-opacity:1;stroke-width:.264583" transform="translate(-306.821 -357.238) scale(3.80307)"/><path fill="#99977b" fill-rule="evenodd" d="M101.844 99.305v.503l-10.53 5.292-10.57-5.305v-.53l2.645 1.337 2.646 1.323 2.646 1.323 2.632 1.322h.013v-.013q1.31-.661 2.633-1.31l2.646-1.322 2.646-1.323 2.593-1.297m-10.53 5.795.012-.53-.013.53" style="stroke-width:.264583" transform="translate(-306.821 -357.238) scale(3.80307)"/><path fill="none" stroke="#f4f4f2" stroke-linecap="round" stroke-linejoin="round" stroke-width=".502" d="m50.36 5.286 10.063 5.028 10.063 5.031 10.013 5.032h.05l-.05.05v1.912L40.453 42.461.25 22.29v-2.016l10.06-5.031 10.062-5.028 10.063-5.031L40.301.25 50.36 5.282m-9.858 4.986-.152.05m30.291 15.04 9.862-4.928v-.05M60.575 30.39l10.065-5.03m-10.066 5.028-10.063 5.031Q45.48 37.886 40.498 40.4v.05l-.05 2.015m20.176-22.138-.201.05M40.498 10.26l.457-.248M30.439 35.418l10.01 5.031.05-.049M20.375 30.387l10.063 5.031M10.313 25.355l10.063 5.032m-10.063-5.032L.25 20.275"/><path fill="none" stroke="#f2f2ef" stroke-linecap="round" stroke-linejoin="round" stroke-width=".502" d="m50.36 5.286-9.402 4.724m-.608.3 10.067 5.032 10.01-5.032m10.062 5.032-9.861 4.982 10.013 5.027m-19.623-.25-.453.25 10.014 5.032M51.018 25.1l9.408-4.727-10.01-5.031-9.914 4.982 10.014 5.027m-.453.255.502-.255h-.05m-.452.255-9.565 4.78 10.014 5.032M30.439 5.184l4.374 2.213m5.537 2.917-9.91 4.982 10.058 5.031-10.059 5.028 10.06 5.032-10.06 5.031m0-20.122-10.063 5.031 10.063 5.028-10.063 5.032m0-20.176 10.063 5.085m9.911-4.982-5.533-2.917m-24.504 7.846 10.063 5.084-10.063 5.028"/></g><g id="d"><path d="m-40.05-4.1 10-5L9.9 10.95q-5 2.45-9.95 4.95l-.05.05L-40.05-4.1" fill="#cac9c0" fill-rule="evenodd" transform="translate(40.3 9.35)"/><path d="M-40.05-4.1-.1 15.95h.05v-.05q4.95-2.5 9.95-4.95h.05L9.9 12.9l-.05.05h.1L9.9 14.9l-.5.25.45-.2h.05l.05-.05-.05 2-10 5.05L-40.05 1.9v-6M-.1 17.95h.05v-.05l-.05.05.05-2-.05 2m0 4 .05-2.05-.05.05.05-2-.05 2 .05-.05-.05 2.05" fill="#b9b8ac" fill-rule="evenodd" transform="translate(40.3 9.35)"/><path d="m-.1 15.95.05-.05v.05H-.1m.05 2H-.1l.05-.05v.05" fill="#e7e6e0" fill-rule="evenodd" transform="translate(40.3 9.35)"/><path d="m9.9 14.9-.05.05-.45.2.5-.25" fill="#dbdad0" fill-rule="evenodd" transform="translate(40.3 9.35)"/><path d="M50.2 20.3 10.25.25l-10 5L40.2 25.3l.05-.05q4.95-2.5 9.95-4.95l.05-.05v.05l-.05 1.95-.05.05h.05l.05-.05v.05l-.05 1.95-.05.05h.05l.05-.05-.05 2-10 5.05L.25 11.25v-6m40 20.05v-.05m-.05 2.05.05-2m-.05 2 .05-.05v.05l-.05 2 .05-.05-.05 2.05" fill="none" stroke="#676767" stroke-linecap="round" stroke-linejoin="round" stroke-width=".5"/></g><g id="e"><path d="M49.95 20.05H50L49.95 22l-.05.05h.1L49.95 24l-.05.05h.05L50 24l-.05 2-10 5.05L0 11V5l39.95 20.05L40 25l9.95-4.95M40 25l-.05 2.05L40 27l-.05 2.05L40 29l-.05 2.05L40 29l-.05.05L40 27l-.05.05L40 25" fill="#ffbbbc" fill-rule="evenodd" transform="translate(.25 .25)"/><path d="m0 5 10-5 39.95 20.05L40 25l-.05.05L0 5" fill="#ffcfcf" fill-rule="evenodd" transform="translate(.25 .25)"/><path d="M50.25 20.3v-.05l-.05.05L10.25.25l-10 5L40.2 25.3l.05-.05 9.95-4.95m.05 0-.05 1.95-.05.05h.05l.05-.05v.05l-.05 1.95-.05.05h.05l.05-.05-.05 2-10 5.05L.25 11.25v-6M40.2 31.3l.05-2.05-.05.05.05-2.05-.05.05.05-2.05" fill="none" stroke="#f2f2ef" stroke-linecap="round" stroke-linejoin="round" stroke-width=".5"/></g><g id="k"><path d="m82.95 245.3 1.2 4.1-.95.9q-1.35.95-3.25.95t-3.25-.95l-.9-.9 1.15-4.1h6" fill="url(#a)" fill-rule="evenodd" transform="translate(21.1 -192)"/><path d="m76.95 245.3-1.15 4.1.9.9q1.35.95 3.25.95t3.25-.95l.95-.9-1.2-4.1" fill="none" stroke="#cdcdc0" stroke-linecap="round" stroke-linejoin="round" transform="translate(21.1 -192)"/><path d="m113.1 252.5-.2-.2q-.1-.3.3-.75l.25-.25q.35-.5.75-.55h.35l.2.2-.3.7-.25.3-.75.55h-.35m-.75-2.55-.45-.05-.15-.05-.1.15.5.15-1.45 1.75.4.1 1.85-2.2-.2-.05-.4.2m2.4.55-.7-.05-1 .7-.25.25q-.45.55-.35.95l.45.4.7.05 1-.7.2-.25.4-.95-.45-.4m.35-1.7q1.4.55 1.8 1.65.35 1.15-.5 2.2-.85 1-2.45 1.35l-3.05-.15q-1.45-.55-1.8-1.7-.4-1.1.5-2.15.85-1.05 2.45-1.4l3.05.2" fill="#633" fill-rule="evenodd" transform="translate(21.1 -192)"/><path d="m114.75 250.5.45.4-.4.95-.2.25-1 .7-.7-.05-.45-.4q-.1-.4.35-.95l.25-.25 1-.7.7.05m-2.4-.55.4-.2.2.05-1.85 2.2-.4-.1 1.45-1.75-.5-.15.1-.15.15.05.45.05m.75 2.55h.35l.75-.55.25-.3.3-.7-.2-.2h-.35q-.4.05-.75.55l-.25.25q-.4.45-.3.75l.2.2" fill="#ddbcbc" fill-rule="evenodd" transform="translate(21.1 -192)"/><path d="m66.6 253.1-.3-.15q-.6-.4-1.1-.3-.4-.05-.65.2-.25.2-.2.45 0 .35.6.7l.3.15 1.1.35.6-.25.25-.45-.6-.7m-.6.05.3.15.5.55-.1.25-.35.1-.85-.25-.3-.2-.45-.5q-.05-.15.05-.25l.35-.1q.35-.05.85.25m1.55-1.25.3.2.5.5-.1.25-.35.1-.85-.25-.25-.15-.5-.55.1-.25q.1-.1.3-.1.35-.05.85.25m.6-.05-.3-.15q-.6-.4-1.1-.3-.4-.05-.65.2-.25.2-.2.45 0 .35.6.7l.3.2 1.1.3.6-.25.25-.4-.6-.75m2.55 1.25q.1 1.45-1.3 2.6-1.4 1.1-3.5 1.25-2.05.15-3.5-.7-1.5-.9-1.6-2.3-.05-1.45 1.35-2.55 1.4-1.15 3.45-1.3 2.1-.2 3.6.7 1.45.85 1.5 2.3m-7.2 1.4 1.8 1.05.3-.25-2.4-1.4-.15.15.15.25-.15.3-.1.05.15.1.4-.25" fill="#999" fill-rule="evenodd" transform="translate(21.1 -192)"/><path d="m68.15 251.85.6.75-.25.4-.6.25-1.1-.3-.3-.2q-.6-.35-.6-.7-.05-.25.2-.45.25-.25.65-.2.5-.1 1.1.3l.3.15m-.6.05q-.5-.3-.85-.25-.2 0-.3.1l-.1.25.5.55.25.15.85.25.35-.1.1-.25-.5-.5-.3-.2M66 253.15q-.5-.3-.85-.25l-.35.1q-.1.1-.05.25l.45.5.3.2.85.25.35-.1.1-.25-.5-.55-.3-.15m.6-.05.6.7-.25.45-.6.25-1.1-.35-.3-.15q-.6-.35-.6-.7-.05-.25.2-.45.25-.25.65-.2.5-.1 1.1.3l.3.15m-3.1 1.4-.4.25-.15-.1.1-.05.15-.3-.15-.25.15-.15 2.4 1.4-.3.25-1.8-1.05" fill="#ccc" fill-rule="evenodd" transform="translate(21.1 -192)"/><path d="M115.1 248.8q1.4.55 1.8 1.65.35 1.15-.5 2.2-.85 1-2.45 1.35l-3.05-.15q-1.45-.55-1.8-1.7-.4-1.1.5-2.15.85-1.05 2.45-1.4l3.05.2" fill="none" stroke="#8c4646" stroke-linecap="round" stroke-linejoin="round" transform="translate(21.1 -192)"/><path d="M70.7 253.1q.1 1.45-1.3 2.6-1.4 1.1-3.5 1.25-2.05.15-3.5-.7-1.5-.9-1.6-2.3-.05-1.45 1.35-2.55 1.4-1.15 3.45-1.3 2.1-.2 3.6.7 1.45.85 1.5 2.3" fill="none" stroke="#ccc" stroke-linecap="round" stroke-linejoin="round" transform="translate(21.1 -192)"/><path d="m151.85 255.2-1 .5 2.85 1.4-.25.1 86.05 43.05-101.05 50.5L36.5 299.8l28.45-14.25-86.05-43L79.95 192l97.65 48.85-26.75 13.35.5.25-.5.25 1 .5" fill="#0cc" fill-opacity=".4" fill-rule="evenodd" transform="translate(21.1 -192)"/></g><g id="f"><path d="m13.8-9.9 1.05 1.45-.35-.25-.65-.55h-.05v-.65m3.6 11.55-.5 3.45-.35-.3-.05.05V2.3h.05l.85-.65M-8.8 16l-2.3-1.65.1-.1h.05L-8.8 16m-8.25-10.75q-.45-1.85-.55-3.8l1.05.8v2.6l-.5.4m1.85-13.4 1.45-2.05v.9l-1.45 1.15m20.7 13h.05L8.25 7v.25L5.4 5.05 5 5.5 2.85 7v-.05l2.65-2.1m2.75 4.2v.45l-2.7 2.15h-.1L5 11.3l3.25-2.25M-5.9 5.15l.4-.3h.05L-2.75 7v.3q-1.6-.55-2.85-1.8l-.3-.35m-1.35 5.15 2.05 1.15-.25.2h-.1l-1.7-1.35" fill="#dbd5d5" fill-rule="evenodd" transform="translate(21.1 20.25)"/><path d="m-5.5-15.95-.05.05q-2.55.8-4.75 2.45h-.05l-2.1 1.85-1.25 1.35 1.25-1.35 2.1-1.85h.05q2.2-1.65 4.75-2.45v1.95l-2.65 2.1h.05l2.65-2.1h.05l2.7 2.15v2.5l-2.7 2.15h-.1L-7.5-8.7l1.95 1.55v2.6l-2.65 2.1h-.05l-2.7-2.15H-11v-2.5h.05l2.7-2.15h.05v-2.6h-.05v2.55l-2.7 2.15h-.1L-13-8.7l1.95 1.55v2.6l-2.65 2.1h.05l2.65-2.1h.05l2.7 2.15V.1l-2.7 2.15h-.1L-13 .7l1.95 1.55v2.6l-2.65 2.1h-.05l-2.7-2.15h-.05V2.3h.05l2.7-2.15h.05v-2.6h-.05l-2.7-2.15h-.05v-.9l-.05.1-.35 1.15q-.7 2.35-.7 5v.7-.7q0-2.65.7-5l.35-.3h.1l2.7 2.15V.1l-2.7 2.15h-.1l-1.05-.8q.1 1.95.55 3.8.7 2.7 2.3 5.05-1.6-2.35-2.3-5.05l.5-.4h.1l2.7 2.15v2.5l-1 .8v.05l2.3 2.75 1.3 1.25-1.3-1.25-2.3-2.75 1-.8h.05v-2.6h.05l2.65-2.1h.05L-8.4 6.9l.05-.05-2.6-2.05H-11V2.3h.05l2.7-2.15h.05l.7.55-.65-.55h-.05v-2.6h.05l2.65-2.1h.05l1.9 1.5-1.9-1.55h-.05v-2.5h.05l2.7-2.15h.05v-2.6h-.05L-5.45-14h-.05v-1.95l3.25-.65-3.25.65m7.75-.65h-4.5v2.4h2.2v.25l-2.65 2.1h.05L0-13.95h.05l2.7 2.15v2.5L.05-7.15h-.1L-2-8.7l1.95 1.55v2.6l-.05.05q-2 0-3.45 1.45L-3.6-3Q-5.05-1.55-5.05.5l.15 1.3-.55.45h-.1L-7.5.7l1.95 1.55v2.6l-.35.3.3.35q1.25 1.25 2.85 1.8h.05v-.35h.05l1.85-1.5.75.05.8-.05 2 1.55v.05q-1.4.6-3.05.65l-2.4-.4 2.4.4q1.65-.05 3.05-.65h.05L2.85 7 5 5.5l.4-.45 2.85 2.2.05.05v-.35h-.05L5.55 4.8H5.5V2.3h.05L8.25.15h.05v-2.6h-.05L5.55-4.6H5.5v-2.5h.05l2.7-2.15h.05l.7.55 1.95 1.55L9-8.7l-.65-.55H8.3v-2.6h-.05L5.55-14H5.5v-1.85l-.05-.05-3.2-.7 3.2.7v1.95l-2.65 2.1h.05l2.65-2.1h.05l2.7 2.15v2.5l-2.7 2.15h-.1L3.5-8.7l1.95 1.55v2.6l-.55.45.6-.45h.05l2.7 2.15V.1l-2.7 2.15h-.1l-.65-.5.65.5v2.6L2.8 6.95h-.05l-1.9-1.5q1.5-.25 2.65-1.4 1-1 1.3-2.3L4.95.5q0-2.05-1.45-3.5Q2.1-4.4.15-4.5l-.1-.1H0v-2.5h.05l2.7-2.15h.05l.7.55-.65-.55H2.8v-2.6h-.05L.05-14H0v-.2h2.25v-2.4m8 3.2q-2.2-1.65-4.75-2.45 2.55.8 4.75 2.45L8.3-11.85h.05l1.95-1.55h-.05m3.5 3.45L12.3-11.6l-2-1.8 2 1.8 1.45 1.65v.65l-2.7 2.15h-.1v2.6L8.3-2.45h.05L11-4.55h.05l2.7 2.15V.1l-2.7 2.15h-.1v2.6L8.3 6.95h.05L11 4.85h.05L13.75 7v2.5l-2.7 2.15h-.1v2.6L9.5 15.4l-1.4.85-2.55-2.05H5.5v-2.5h.05l2.7-2.15h.05l.7.55 1.95 1.55L9 10.1l-.65-.55H8.3V9l.25-.25.7-.75-.95-.7.95.7-.7.75L8.3 9l-.05.05L5 11.3l.45.35v2.6l-2.65 2.1h-.05L.05 14.2H0v-1.8h-.05v1.85l-2.65 2.1h.05L0 14.25h.05l2.7 2.15v.15H7.5 2.8v-.2h.05l2.65-2.1h.05l2.5 2.05.2.1.05-.05h.05L9.7 15.3l1.35-1.05 1.25-1.15 2.35-2.9q1.55-2.35 2.25-5.05-.7 2.7-2.25 5.05l-2.35 2.9-1.25 1.15v-.05H11v-2.5h.05l2.7-2.15h.05l.7.55-.65-.55h-.05v-2.6h.05l2.65-2.1h.05l.35.3V5.1l.5-3.45v-.9q0-2.75-.7-5.2.7 2.45.7 5.2v.85l-.85.65h-.1L14.5.7l1.95 1.55v2.6l-2.65 2.1h-.05l-2.7-2.15H11V2.3h.05l2.7-2.15h.05l.7.55-.65-.55h-.05v-2.6h.05l2.65-2.1h.05l.15.1-.05-.05-.15-.45-.05-.15q-.6-1.75-1.6-3.35 1 1.6 1.6 3.35v.55l-2.65 2.1h-.05l-2.7-2.15H11v-2.5h.05l2.7-2.15h.05l.7.55.35.25L13.8-9.9l-.05-.05M7.5 16.55l.55-.25-.55.25m-10.2 0h5.45-5.45v-.2h-.05l-2.7-2.15h-.05v-2.5h.05l.3-.25h-.05l-2.05-1.15-.25-.2-.65-.55h-.1V9.5l-.85-.75-.7-.75 1.4-1.1L-9.8 8l.7.75.85.75-2.7 2.15h-.1L-13 10.1l1.95 1.55v2.6l-.1.1h.05L-8.8 16l.55.4.05-.05h.05l.45.2h4.95-4.95l-.45-.2 2.65-2.1h.05l2.7 2.15v.15h.05M-15.3-8l-1.2 2.5 1.2-2.5 1.55-1.25h.05l.7.55-.65-.55h-.05v-1l-.05.05-1.45 2.05-.1.15m7.8-.7-.65-.55h-.05l.7.55M8 19.15l-2.65.95-.8.2-4.1.5h-.8l-4.1-.45-3.3-1.05-.55-.25h-.05q-2.3-1.1-4.35-2.8l-.4-.35-1.05-1-.85-.9-1.5-1.85-.05-.05-.2-.3-.4-.6q-1.25-2.05-1.95-4.3-.95-2.9-.9-6.1V.7l.25-3.45q.5-2.95 1.85-5.5 1.15-2.35 3.05-4.4l.05-.05.65-.65q1.45-1.5 3.1-2.6L-11-16q1.75-1.2 3.7-1.9 3.35-1.35 7.3-1.3 3.9-.05 7.25 1.3 1.95.75 3.7 1.95H11l3.1 2.6.7.75 1.65 2.05L17.9-8.2v.05l.35.65 1.25 3.65.2 1.1.2 1.75.1 1.7v.1q-.05 3.2-.9 6.05v.05q-.75 2.3-2.05 4.35l-.05.1-.3.45-.2.25-.05.1-2.35 2.75-.25.25-.75.7v.05l-1.2.95-2.65 1.7-.85.45-.05-.05-.35.2m-18.35-32.6 2.1 1.65-2.1-1.65M-13 .7l-.65-.55h-.05l.7.55m11-9.4-.65-.55h-.05l.7.55M-2.7-1l.55-.7q.85-.9 2.1-.85Q1.2-2.6 2.1-1.7l.65 1.05.05.1.15.7v.3q0 1.2-.85 2.1-.9.85-2.1.9h-.05q-1.25 0-2.1-.9-.9-.9-.9-2.1v-.1l.3-1.25.05-.1m2.6.5-.05.15Q-.3.6-.6 1l-.5.4h-.05l-.35-.2-.1-.2-.05-.3.25-.95.7-.8.05-.15-.05-.2-.15-.05-.15.05-.85.95-.25 1.1.25.9.65.35q.2 0 .5-.2l.5-.5.35.5.35.2h.25q.5-.05.85-.5l.3-.55v-.1l.05-.3-.15-.9-.5-.9-.2-.1-.15.05-.1.15.05.15.45.8.15.7-.25.7-.5.3q-.4.05-.55-.35Q.05.65.3-.2L.25-.4.1-.5h-.2m5-3.6L3.5-3l1.4-1.1m9.75 14.3-.15-.1.15.1M8.3.15 9 .7 8.35.15H8.3M2.85 7.7h-.1l-.2.05.65 2.1.25.9-.05.1-.3.05.15.3.35-.1q.25-.05.15-.3l-.5-1.75q.8 1 1.85 1.3l.1-.4q-.85-.2-1.5-.85l.6-.9.1-.1-.4-.15-.5.95-.5-.7-.15-.45V7.7m-.2 1.2-.05-.2-.3-.05-.05.15-.85.25.1.3.85-.25v.7l-.05.1q-.1.7-.55 1.15l.25.25q.65-.7.7-1.7v-.05l-.05-.65M5 11.3q-2.3 1.05-5 1.1 2.7-.05 5-1.1M9 .7l1.95 1.55L9 .7M-4.9 1.85q.35 1.25 1.3 2.2 1.2 1.2 2.8 1.4l-1.9 1.5h-.05l-2.7-2.15h-.05V2.3h.05l.55-.45m-1 3.3-.1-.1-2.35 1.8L-6 5.05l.1.1m5.85 7.25h-.2q-2.65 0-4.9-.95 2.25.95 4.9.95h.2M-8.2 9.55l.95.75 1.7 1.35v2.6l-2.65 2.1-.25-.15-2.5-2H-11v-2.5h.05l2.7-2.15h.05m2.1.25.15.4.1-.1 1.1-.7-.2-.3-1.15.7m4.05-1.15.1-.25-1.85-.8-.1.25.5.2-.3.55-.65-.3-.15.3.6.3-.6.85.25.15.2-.25.7.3.1.05.15.05-.5.7-.15.05-.4-.2-.15.3.5.2.35.05.85-1.25-.4-.15h-.05l-.8-.35.25-.4 1.4.65.15-.3-1.4-.65.35-.5 1.05.45M-4.7 8.5l-.35-.55-.3.2.35.6.3-.25m.2-1.3-.35.2.35.55.3-.15-.3-.6m-8.5 2.9-.65-.55h-.05l.7.55" fill="#826968" fill-rule="evenodd" transform="translate(21.1 20.25)"/><path d="M-3.55-3.05Q-2.1-4.5-.1-4.5h.25Q2.1-4.4 3.5-3 4.95-1.55 4.95.5L4.8 1.75q-.3 1.3-1.3 2.3Q2.35 5.2.85 5.45h-.1l-.8.05-.75-.05q-1.6-.2-2.8-1.4-.95-.95-1.3-2.2V1.8L-5.05.5q0-2.05 1.45-3.5l.05-.05M-2.7-1l-.05.1-.3 1.25v.1q0 1.2.9 2.1.85.9 2.1.9H0q1.2-.05 2.1-.9.85-.9.85-2.1v-.3l-.15-.7-.05-.1L2.1-1.7q-.9-.9-2.15-.85-1.25-.05-2.1.85l-.55.7m2.6.5h.2l.15.1.05.2Q.05.65.2 1.05t.55.35l.5-.3.25-.7-.15-.7-.45-.8-.05-.15.1-.15.15-.05.2.1.5.9.15.9-.05.3v.1l-.3.55q-.35.45-.85.5H.5l-.35-.2-.35-.5-.5.5q-.3.2-.5.2l-.65-.35-.25-.9.25-1.1.85-.95.15-.05.15.05.05.2-.05.15-.7.8-.25.95.05.3.1.2.35.2h.05l.5-.4q.3-.4.45-1.35L-.1-.5m2.95 8.2v.05L3 8.2l.5.7.5-.95.4.15-.1.1-.6.9q.65.65 1.5.85l-.1.4q-1.05-.3-1.85-1.3l.5 1.75q.1.25-.15.3l-.35.1-.15-.3.3-.05.05-.1-.25-.9-.65-2.1.2-.05h.1m-.2 1.2.05.65v.05q-.05 1-.7 1.7l-.25-.25q.45-.45.55-1.15l.05-.1v-.7l-.85.25-.1-.3.85-.25.05-.15.3.05.05.2m-8.75.9 1.15-.7.2.3-1.1.7-.1.1-.15-.4m4.05-1.15L-3.1 8.2l-.35.5 1.4.65-.15.3L-3.6 9l-.25.4.8.35H-3l.4.15-.85 1.25-.35-.05-.5-.2.15-.3.4.2.15-.05.5-.7-.15-.05-.1-.05-.7-.3-.2.25-.25-.15.6-.85-.6-.3.15-.3.65.3.3-.55-.5-.2.1-.25 1.85.8-.1.25M-4.5 7.2l.3.6-.3.15-.35-.55.35-.2m-.2 1.3-.3.25-.35-.6.3-.2.35.55" fill="#614f4e" fill-rule="evenodd" transform="translate(21.1 20.25)"/><path d="M-2.25-16.6h4.5v2.4h-4.5v-2.4" fill="#6c5857" fill-rule="evenodd" transform="translate(21.1 20.25)"/><path d="m-8.25-18.7.8-.3q3.4-1.3 7.35-1.25 4.15-.05 7.7 1.4l.6.2.25.1 1 .5 2 1.2q1.75 1.15 3.3 2.75l.85.85.85 1.05 1.9 2.8.3.55.05.05.5 1.05.1.25 1.15 3.65.1.45.3 2.4.05 1.75v.65l-.55 4.25-.1.55v.05l-.1.3-.85 2.4-.05.1-.15.45-.15.25-.05.1q-1 1.95-2.4 3.8l-1.3 1.5-.45.45-.1.1-.1.1-.65.6-.1.1-.05.05L11.9 18l-.8.55-1.9 1.1-3.5 1.3-.25.1h-.1l-5.45.7-4.3-.4-1.05-.25-1.2-.35q-1.35-.4-2.55-1l-3.5-2.15-1-.85-.05-.05-1.2-1.1-.45-.5-.2-.2-.7-.85-.05-.05-.15-.15-.05-.05q-1.3-1.55-2.2-3.3l-.45-.95-.05-.05-.25-.65-.95-2.8q-.55-2.15-.6-4.5l-.05-.8q0-2.25.4-4.25.55-2.9 1.9-5.45 1.1-2.1 2.8-4l.3-.35.05-.05.7-.75q1.6-1.65 3.4-2.8l2.4-1.4.85-.35.05-.05M8.4 19l.85-.45 2.65-1.7 1.2-.95v-.05l.75-.7.25-.25 2.35-2.75.05-.1.2-.25.3-.45.05-.1q1.3-2.05 2.05-4.35v-.05Q19.95 4 20 .8V.7L19.9-1l-.2-1.75-.2-1.1-1.25-3.65-.35-.65v-.05l-1.45-2.35-1.65-2.05-.7-.75-3.1-2.6h-.05q-1.75-1.2-3.7-1.95Q3.9-19.25 0-19.2q-3.95-.05-7.3 1.3-1.95.7-3.7 1.9l-.05.05q-1.65 1.1-3.1 2.6l-.65.65-.05.05q-1.9 2.05-3.05 4.4-1.35 2.55-1.85 5.5L-20 .7v.1q-.05 3.2.9 6.1.7 2.25 1.95 4.3l.4.6.2.3.05.05L-15 14l.85.9 1.05 1 .4.35q2.05 1.7 4.35 2.8h.05l.55.25 3.3 1.05 4.1.45h.8l4.1-.5.8-.2L8 19.15l.4-.15" fill="#504241" fill-rule="evenodd" transform="translate(21.1 20.25)"/><path d="m-5.55-15.9.05-.05 3.25-.65h4.5l3.2.7.05.05q2.55.8 4.75 2.45h.05l2 1.8 1.45 1.65.05.05 1.05 1.45q1 1.6 1.6 3.35l.05.15.15.45.05.05q.7 2.45.7 5.2v.9l-.5 3.45v.05q-.7 2.7-2.25 5.05l-2.35 2.9-1.25 1.15L9.7 15.3l-1.35 1.05H8.3l-.05.05-.2-.1-.55.25m-15.65-.2h-.05l-.05.05-.55-.4-2.3-1.65h-.05l-1.3-1.25-2.3-2.75v-.05q-1.6-2.35-2.3-5.05-.45-1.85-.55-3.8v-.7q0-2.65.7-5l.35-1.15.05-.1 1.2-2.5.1-.15 1.45-2.05.05-.05 1.25-1.35 2.1-1.85h.05q2.2-1.65 4.75-2.45v1.95h.05v-2m0 2 .05-.05m2.7 4.7v-2.5l-2.7-2.15h-.05l-2.65 2.1h-.05v2.6h.05l.65.55 1.95 1.55h.1l2.7-2.15v.05h.05v-2.6l-.05.05v-.05L-5.45-14m5.4-.2h-2.2v-2.4m2.2 2.4v.25H0v-.25h-.05m-13.7 4.9v.05-.95m0 .95h.05v-1m.7 1.55-.7-.55h-.05L-15.3-8m1.6-1.25h.05l.65.55 1.95 1.55h.1l2.7-2.15v-2.5l-2.1-1.65m-.7 6.3.05.05v-.05m.05.05H-11v2.5m.05 0 2.7 2.15h.05l2.65-2.1v-2.6l.05.05v-.05m-11 2.6h.05l2.7 2.15v-.05l-2.7-2.15-.05.05h-.05l-.35.3m.4-.3h-.05v-.85m.05.8v.05m0-.95v.9m5.55 0-.05.05h.05l2.7 2.15v-.05m-2.8-2.1h.05v-.05m0 .05-2.65 2.1h-.05v2.6h.05l.65.55 1.95 1.55h.1L-8.25.1v-2.5m-5.45-.05h-.05m0 .05.05-.05 2.65-2.1v-2.6m-2.7 4.75V.15h.05l.7.55m-2.2-8.85 1.45-1.15m11.05-2.55h-.05m.05 0h.05L0-13.95.05-14m-2.8 4.75h.1l.65.55 1.95 1.55h.1l2.7-2.15v-2.5l-2.7-2.15H0M-2.75-9.3v.05m.05 0 .7.55m-6.25-3.1.05-.05h-.05v.05m0 2.55h.05-.05l-2.7 2.15m5.45 0h.05l2.7-2.15M-5.5-7.1v2.5m.05 0 1.9 1.55Q-2.1-4.5-.1-4.5l.05-.05v-2.6L0-7.1v-.05m-8.2-2.1.7.55m-.75-.6v.05-.05m2.75 4.75h.05l1.9 1.5m-1.95-1.5-2.65 2.1h-.05v2.6h.05l.65.55 1.95 1.55h.1l.55-.45-.15-1.3q0-2.05 1.45-3.5l.05-.05m-2-1.5h.05v-.05m0 .05.05-.05M-8.2-2.45l-.05.05M-.1-4.5l.1-.05h-.05m-.05.05h.2l-.05-.05H0V-7.1h.05l2.7-2.15v-.05M-2.7-1l.55-.7q.85-.9 2.1-.85Q1.2-2.6 2.1-1.7l.65 1.05.05.1.15.7v.3q0 1.2-.85 2.1-.9.85-2.1.9h-.05q-1.25 0-2.1-.9-.9-.9-.9-2.1v-.1l.3-1.25.05-.1m2.65-12.95-2.65 2.1m-5.5 0 2.65-2.1m7.8-2.65v2.4H0m5.5.2v.05l.05-.05 2.7 2.15h.05l1.95-1.55m-4.75-.55h-.05l-2.65 2.1h.05l2.65-2.1h.05l2.7 2.15v-.05m-2.8-2.1v-1.95m.05.05V-14m2.75 2.2.05-.05h.05l1.95-1.55M8.25-9.3v.05-2.55m-2.7 4.7H5.5v2.5m.05 0 2.7 2.15h.05l2.65-2.1v-2.6L9-8.7l-.7-.55h-.05L5.55-7.1m-.1-.05.05.05v-.05h-.05L3.5-8.7l-.7-.55h-.05v-.05m5.5 0-2.7 2.15H5.5m2.75-2.1h.05v-2.6m0 2.6h.05L9-8.7m-6.25-3.1v-.05L.05-14m2.7 2.2.05-.05h-.05M3.5-8.7l-.65-.55h-.1m.05-2.6v2.6M0-4.55l.05-.05.1.1Q2.1-4.4 3.5-3l1.4-1.1.55-.45v-2.6M.1-4.5h.05m5.35-.05-.6.45m.55-.45h.05v-.05m.05 0-.05.05h.05l2.7 2.15v-.05m0 .05.05-.05h.05L11-4.55h-.05M8.25-2.4V.15h.05v-2.6m5.45-6.85v-.65M11-7.1l-.05-.05h.1l2.7-2.15v.05-.05M11-7.15v.05h.05l2.7-2.15h.05v-.65m.7 1.2.35.25m-1.05-.8h.05l.65.55-.7-.55h-.05m0 6.85-2.7-2.15H11V-7.1m0 2.55.05-.05m2.7 2.2v-.05l-2.7-2.15m2.7 2.15h.05l2.65-2.1v-.55M13.8-2.45l-.05.05V.15h.1l.65.55 1.95 1.55h.1l.85-.65m-.7-6.05-.15-.1h-.05l-2.65 2.1h-.05v2.6h-.05l-2.7 2.15m5.6-6.8-.1-.1-.05.05v-.4m-.05.4h.05m.9 6.2-.85.65h-.05v2.55l.05-.05.35.3m-.45-2.85.05.05v-.05m-.05 2.6h.1l.35.3m-.4-.3-2.65 2.1h-.05v2.6h.05l.65.55.15.1m-3.6-5.4 2.7 2.15h.05l2.65-2.1v-2.6M14.5.7l-.7-.55M11 2.3v2.5m.05 0-.05.05h.05L13.75 7v-.05m0-6.85v.05m0-.05-2.7 2.15H11v.05h.05M11 2.25h-.05l.05.05m0 2.55h-.05L8.3 6.95h.05L11 4.85V4.8m-.05-2.55v2.6M13.75 7l.05-.05M11 11.7l-.05-.05v2.6H11v-2.6h-.05L9 10.1l-.7-.55h-.05l-2.7 2.15H5.5v2.5m5.55-2.5H11m-5.45 2.5 2.55 2.05 1.4-.85 1.45-1.15m.05-2.6h.05l2.7-2.15V7m0 2.55h.05-.05l-2.7 2.15m2.7-2.2v.05-.05m.75.6-.7-.55M8.3.15 9 .7 8.35.15h-.1L5.55 2.3m-.05 0v2.55l.05-.05 2.7 2.15h.05v.35l.95.7-.7.75L8.3 9v.55h.05l.65.55M8.25.1v.05m0-.05-2.7 2.15H5.5v.05h.05m-.1-.05.05.05m0-.05h-.05l-.65-.5q-.3 1.3-1.3 2.3Q2.35 5.2.85 5.45l1.9 1.5h.05l2.65-2.1v-2.6m.05 2.6h-.05m.05 0h.05L8.25 7v-.05M4.8 1.75 4.95.5q0-2.05-1.45-3.5M.75 5.45h.1m1.95 1.5h.05l2.65-2.1m-2.75 2.2V7l-2-1.55-.8.05-.75-.05-1.85 1.5h-.05v.35l2.4.4q1.65-.05 3.05-.65m.1-.05-.05.05h-.05m0-.1V7l.05-.05v.1M2.85 7 5 5.5l.4-.45 2.85 2.2V7m.05.3-.05-.05m.05-.3L8.25 7m0 2.05L8.3 9m-2.85 2.65h.1l2.7-2.15v-.45L5 11.3l.45.35.05.05v-.05m2.75-2.1V9.5v.05h.05m1.4 5.75-.2.1-1.2.95h-.05v.05M5.5 14.25h.05l2.5 2.05.05-.05.15.1m-2.7-2.15-.05.05-2.65 2.1H2.8v.2m2.65-2.3h.05v-.05m-5.55.05H0V12.4h-.05v1.85l-2.65 2.1h.05L0 14.25l.05-.05m2.7 2.2-2.7-2.15H0m2.75 2.15v-.05L.05 14.2m2.7 2.2v.15m.05-.2-.05.05m0-.05h.05l2.65-2.1v-2.6m5.6 2.6H11L9.7 15.3m1.35-1.1-.05.05m.05 0v-.05m-.1-11.95L9 .7M0 12.4q2.7-.05 5-1.1m-9.9-9.5v.05q.35 1.25 1.3 2.2 1.2 1.2 2.8 1.4M-5.45 2.3h-.05v2.55l.05-.05 2.7 2.15h.05l1.9-1.5m-4.75-3.2.05.05v-.05M-7.5.7l-.7-.55h-.05l-2.7 2.15H-11v2.5m.05 0 2.6 2.05L-6 5.05l.1.1.35-.3v-2.6m-2.7-2.1V.1v.05h.05m2.7 4.7h-.05M-2.75 7l-2.7-2.15h-.05l-.4.3.3.35q1.25 1.25 2.85 1.8v-.35m-5.6-.1-.05.05L-9.8 8l.7.75.85.75v.05h.1l.65.55.25.2 2.05 1.15h.05q2.25.95 4.9.95h.2m-7.45-2.3-.7-.55.95.75 1.7 1.35h.1l.25-.2m-3-1.9h-.05.05m2.65 2.1.05.05v-.05m0 .05h.05l.3-.25m-.35.25v2.5m.05 0 2.7 2.15h.05l-.05.05v.15m.05-9.25h-.05m0-.3.05-.05m-2.2-5.1-.55.45m-5.6-.05.05.05v-.05m-2.75-2.1h.05m-.05-.05v.05m0-.05-2.7 2.15h-.05v.05h.05l2.7-2.15m2.7 4.7h.05V4.8m2.6 2.1-2.55-2.05H-11l-2.65 2.1h-.05v2.6h.05l.65.55 1.95 1.55h.1l2.7-2.15M-11 4.85l.05-.05m-5.5 0 2.7 2.15h.05l2.65-2.1v-2.6m-5.45.05v2.5m.05 0-.05.05h.05l2.7 2.15v-.05m-2.75-4.7h-.05l.05.05m-.05-.05-1.05-.8m1.05 3.4h.05V4.8m-.55.45.5-.4v-2.6m0 2.6h.05M-13.75 7l.05-.05m-.05 2.55v.05h.05l.7.55m-.75-.55h.05m-.05 0V9.5l-1 .8m1-.8V7m-1 3.35 1-.8m2.7 2.1.05.05v-.05m.05.05H-11v2.5m.05 0 2.5 2 .25.15 2.65-2.1v-2.6m-5.5 2.6h.05v-.05m.05 0-.05.05h.05L-8.8 16l.35.2.2.15h.05m-2.8-2.1-.1.1m.05-.1-.1.1m8.4 2v.05l-2.7-2.15h-.05l-2.65 2.1m5.45.2v-.2m-2.75-2.15-.05.05v-.05m-.05.05h.05m-2.75 2.1v.05m0-6.85-2.7 2.15m-.1-.05v2.6" fill="none" stroke="#504241" stroke-linecap="round" stroke-linejoin="round" transform="translate(21.1 20.25)"/><path d="M7.5 16.55H-7.7l-.45-.2" fill="none" stroke="#504241" stroke-linecap="round" stroke-linejoin="round" transform="translate(21.1 20.25)"/></g><g id="n"><path d="m83.1 241.35-.75 2.85.45 1.3-2.95.45-2.9-.5.4-1.25-.7-2.85q1.35.6 3.2.6l3.25-.6" fill="url(#b)" fill-rule="evenodd" transform="translate(-76.15 -240.85)"/><path d="m82.8 245.5-.45-1.3.75-2.85m-6.45 0 .7 2.85-.4 1.25" fill="none" stroke="#a3a28b" stroke-linecap="round" stroke-linejoin="round" transform="translate(-76.15 -240.85)"/><path d="m83.1 241.35-3.25.6q-1.85 0-3.2-.6" fill="none" stroke="#e0e0d8" stroke-linecap="round" stroke-linejoin="round" transform="translate(-76.15 -240.85)"/></g><use height="42.95" width="80.8" xlink:href="#c" id="h"/><use height="31.55" width="50.5" xlink:href="#d" id="i"/><use height="31.55" width="50.5" xlink:href="#e" id="j"/><use height="42" width="42" xlink:href="#f" id="m"/><linearGradient gradientTransform="matrix(.0051 0 0 .0074 79.95 245.2)" gradientUnits="userSpaceOnUse" id="a" spreadMethod="pad" x1="-819.2" x2="819.2"><stop offset="0" stop-color="#deddd6"/><stop offset=".498" stop-color="#f4f4f1"/><stop offset="1" stop-color="#bdbbac"/></linearGradient><linearGradient gradientTransform="matrix(.0061 0 0 .0074 79.85 247.4)" gradientUnits="userSpaceOnUse" id="b" spreadMethod="pad" x1="-819.2" x2="819.2"><stop offset="0" stop-color="#deddd6"/><stop offset=".498" stop-color="#f4f4f1"/><stop offset="1" stop-color="#bdbbac"/></linearGradient><path d="m72.85 383.2-.1-.05-39.9 20.05-5.05-2.55-34.95 17.55-.1-.05-39.9 20.05-39.95-20.05-.05.05-39.95-20.05-.05.05-39.95-20.05 1.85-.9-34.6-17.35-.05.05-39.95-20.05 119.8-59.9 5 2.5 75-37.5 2 1 118-59 120 60-1.85.95 74.6 37.3-39.85 19.95-.1-.05-39.9 20.05-.1-.05-39.9 20.05-2-1-38 19-.1-.05-39.9 20.05" fill="#c8f4ff" fill-rule="evenodd" transform="translate(239.85 -187)" id="g"/><path d="m75.8 291-206.05 103.05-66.3-33.15L9.5 257.85 75.8 291" fill="#0cc" fill-opacity=".4" fill-rule="evenodd" transform="translate(196.55 -257.85)" id="l"/></defs><g transform="translate(479.5 21.4)"><use height="251.2" transform="translate(-239.85 187)" width="512.55" xlink:href="#g"/><use height="42.95" transform="matrix(1 0 0 1.0012 -39.5 -21.424)" width="80.8" xlink:href="#h"/><use height="42.95" transform="matrix(1 0 0 1.0012 .5 -1.424)" width="80.8" xlink:href="#h"/><use height="42.95" transform="matrix(1 0 0 1.0012 40.5 18.576)" width="80.8" xlink:href="#h"/><use height="42.95" transform="matrix(1 0 0 1.0012 80.5 38.576)" width="80.8" xlink:href="#h"/><use height="42.95" transform="matrix(1 0 0 1.0012 120.5 58.576)" width="80.8" xlink:href="#h"/><use height="42.95" transform="matrix(1 0 0 1.0012 160.5 78.576)" width="80.8" xlink:href="#h"/><use height="42.95" transform="matrix(1 0 0 1.0012 200.5 98.576)" width="80.8" xlink:href="#h"/><use height="42.95" transform="matrix(1 0 0 1.0012 240.5 118.576)" width="80.8" xlink:href="#h"/><use height="42.95" transform="matrix(1 0 0 1.0012 280.5 138.576)" width="80.8" xlink:href="#h"/><use height="42.95" transform="matrix(1 0 0 1.0012 320.5 158.576)" width="80.8" xlink:href="#h"/><use height="42.95" transform="matrix(1 0 0 1.0012 360.5 178.576)" width="80.8" xlink:href="#h"/><use height="42.95" transform="matrix(1 0 0 1.0012 -79.5 -1.424)" width="80.8" xlink:href="#h"/><use height="42.95" transform="matrix(1 0 0 1.0012 -39.5 18.576)" width="80.8" xlink:href="#h"/><use height="42.95" transform="matrix(1 0 0 1.0012 .5 38.576)" width="80.8" xlink:href="#h"/><use height="42.95" transform="matrix(1 0 0 1.0012 40.5 58.576)" width="80.8" xlink:href="#h"/><use height="42.95" transform="matrix(1 0 0 1.0012 80.5 78.576)" width="80.8" xlink:href="#h"/><use height="42.95" transform="matrix(1 0 0 1.0012 120.5 98.576)" width="80.8" xlink:href="#h"/><use height="42.95" transform="matrix(1 0 0 1.0012 160.5 118.576)" width="80.8" xlink:href="#h"/><use height="42.95" transform="matrix(1 0 0 1.0012 200.5 138.576)" width="80.8" xlink:href="#h"/><use height="42.95" transform="matrix(1 0 0 1.0012 240.5 158.576)" width="80.8" xlink:href="#h"/><use height="42.95" transform="matrix(1 0 0 1.0012 280.5 178.576)" width="80.8" xlink:href="#h"/><use height="42.95" transform="matrix(1 0 0 1.0012 320.5 198.576)" width="80.8" xlink:href="#h"/><use height="31.55" transform="translate(-90.25 14.2)" width="50.5" xlink:href="#i"/><use height="31.55" transform="translate(-50.25 34.2)" width="50.5" xlink:href="#i"/><use height="31.55" transform="translate(-10.25 54.2)" width="50.5" xlink:href="#i"/><use height="31.55" transform="matrix(-1 0 0 1 40.25 69.2)" width="50.5" xlink:href="#i"/><use height="31.55" transform="matrix(-1 0 0 1 30.25 74.2)" width="50.5" xlink:href="#i"/><use height="31.55" transform="matrix(-1 0 0 1 -9.75 94.2)" width="50.5" xlink:href="#i"/><use height="31.55" transform="matrix(-1 0 0 1 -49.05 114.15)" width="50.5" xlink:href="#i"/><use height="42.95" transform="matrix(1 0 0 1.0012 .5 78.576)" width="80.8" xlink:href="#h"/><use height="42.95" transform="matrix(1 0 0 1.0012 40.5 98.576)" width="80.8" xlink:href="#h"/><use height="42.95" transform="matrix(1 0 0 1.0012 80.5 118.576)" width="80.8" xlink:href="#h"/><use height="42.95" transform="matrix(1 0 0 1.0012 120.5 138.576)" width="80.8" xlink:href="#h"/><use height="42.95" transform="matrix(1 0 0 1.0012 160.5 158.576)" width="80.8" xlink:href="#h"/><use height="42.95" transform="matrix(1 0 0 1.0012 200.5 178.576)" width="80.8" xlink:href="#h"/><use height="42.95" transform="matrix(1 0 0 1.0012 240.5 198.576)" width="80.8" xlink:href="#h"/><use height="42.95" transform="matrix(1 0 0 1.0012 280.5 218.576)" width="80.8" xlink:href="#h"/><use height="42.95" transform="matrix(1 0 0 1.0012 -39.5 98.576)" width="80.8" xlink:href="#h"/><use height="42.95" transform="matrix(1 0 0 1.0012 .5 118.576)" width="80.8" xlink:href="#h"/><use height="42.95" transform="matrix(1 0 0 1.0012 40.5 138.576)" width="80.8" xlink:href="#h"/><use height="42.95" transform="matrix(1 0 0 1.0012 80.5 158.576)" width="80.8" xlink:href="#h"/><use height="42.95" transform="matrix(1 0 0 1.0012 120.5 178.576)" width="80.8" xlink:href="#h"/><use height="42.95" transform="matrix(1 0 0 1.0012 160.5 198.576)" width="80.8" xlink:href="#h"/><use height="42.95" transform="matrix(1 0 0 1.0012 200.5 218.576)" width="80.8" xlink:href="#h"/><use height="42.95" transform="matrix(1 0 0 1.0012 240.5 238.576)" width="80.8" xlink:href="#h"/><use height="31.55" transform="translate(-198.75 69.2)" width="50.5" xlink:href="#i"/><use height="31.55" transform="translate(-158.75 89.2)" width="50.5" xlink:href="#i"/><use height="31.55" transform="translate(-118.75 109.2)" width="50.5" xlink:href="#i"/><use height="42.95" transform="matrix(1 0 0 1.0012 -79.5 118.576)" width="80.8" xlink:href="#h"/><use height="42.95" transform="matrix(1 0 0 1.0012 -39.5 138.576)" width="80.8" xlink:href="#h"/><use height="42.95" transform="matrix(1 0 0 1.0012 .5 158.576)" width="80.8" xlink:href="#h"/><use height="42.95" transform="matrix(1 0 0 1.0012 -239.5 78.576)" width="80.8" xlink:href="#h"/><use height="42.95" transform="matrix(1 0 0 1.0012 -199.5 98.576)" width="80.8" xlink:href="#h"/><use height="42.95" transform="matrix(1 0 0 1.0012 -159.5 118.576)" width="80.8" xlink:href="#h"/><use height="42.95" transform="matrix(1 0 0 1.0012 -119.5 138.576)" width="80.8" xlink:href="#h"/><use height="42.95" transform="matrix(1 0 0 1.0012 -79.5 158.576)" width="80.8" xlink:href="#h"/><use height="42.95" transform="matrix(1 0 0 1.0012 -39.5 178.576)" width="80.8" xlink:href="#h"/><use height="42.95" transform="matrix(1 0 0 1.0012 -279.5 98.576)" width="80.8" xlink:href="#h"/><use height="42.95" transform="matrix(1 0 0 1.0012 -239.5 118.576)" width="80.8" xlink:href="#h"/><use height="42.95" transform="matrix(1 0 0 1.0012 -199.5 138.576)" width="80.8" xlink:href="#h"/><use height="42.95" transform="matrix(1 0 0 1.0012 -159.5 158.576)" width="80.8" xlink:href="#h"/><use height="42.95" transform="matrix(1 0 0 1.0012 -119.5 178.576)" width="80.8" xlink:href="#h"/><use height="42.95" transform="matrix(1 0 0 1.0012 -79.5 198.576)" width="80.8" xlink:href="#h"/><use height="31.55" transform="translate(70.45 178.75)" width="50.5" xlink:href="#j"/><use height="31.55" transform="translate(110.45 198.75)" width="50.5" xlink:href="#j"/><use height="31.55" transform="translate(150.45 218.75)" width="50.5" xlink:href="#j"/><use height="31.55" transform="matrix(-1 0 0 1 82 183.25)" width="50.5" xlink:href="#j"/><use height="31.55" transform="matrix(-1 0 0 1 52.5 198)" width="50.5" xlink:href="#j"/><use height="31.55" transform="matrix(-1 0 0 1 12.5 218)" width="50.5" xlink:href="#j"/><use height="31.55" transform="matrix(-1 0 0 1 201.35 233.35)" width="50.5" xlink:href="#j"/><use height="42.95" transform="matrix(1 0 0 1.0012 170.52 233.555)" width="80.8" xlink:href="#h"/><use height="42.95" transform="matrix(1 0 0 1.0012 210.52 253.555)" width="80.8" xlink:href="#h"/><use height="31.55" transform="translate(150.8 248.35)" width="50.5" xlink:href="#j"/><use height="31.55" transform="translate(160.8 253.35)" width="50.5" xlink:href="#j"/><use height="31.55" transform="translate(200.5 273.25)" width="50.5" xlink:href="#j"/><use height="158.75" transform="translate(-21.1 192)" width="260.6" xlink:href="#k"/><use height="31.55" transform="translate(-39.25 233.75)" width="50.5" xlink:href="#j"/><use height="31.55" transform="translate(105.8 270.85)" width="50.5" xlink:href="#j"/><use height="31.55" transform="translate(115.8 275.85)" width="50.5" xlink:href="#j"/><use height="31.55" transform="translate(155.5 295.75)" width="50.5" xlink:href="#j"/><use height="31.55" transform="matrix(-1 0 0 1 116.35 275.85)" width="50.5" xlink:href="#j"/><use height="42.95" transform="matrix(1 0 0 1.0012 -319.5 118.576)" width="80.8" xlink:href="#h"/><use height="42.95" transform="matrix(1 0 0 1.0012 -279.5 138.576)" width="80.8" xlink:href="#h"/><use height="42.95" transform="matrix(1 0 0 1.0012 -239.5 158.576)" width="80.8" xlink:href="#h"/><use height="42.95" transform="matrix(1 0 0 1.0012 -199.5 178.576)" width="80.8" xlink:href="#h"/><use height="42.95" transform="matrix(1 0 0 1.0012 -159.5 198.576)" width="80.8" xlink:href="#h"/><use height="42.95" transform="matrix(1 0 0 1.0012 -119.5 218.576)" width="80.8" xlink:href="#h"/><use height="42.95" transform="matrix(1 0 0 1.0012 -79.5 238.576)" width="80.8" xlink:href="#h"/><use height="42.95" transform="matrix(1 0 0 1.0012 -359.5 138.576)" width="80.8" xlink:href="#h"/><use height="42.95" transform="matrix(1 0 0 1.0012 -319.5 158.576)" width="80.8" xlink:href="#h"/><use height="42.95" transform="matrix(1 0 0 1.0012 -279.5 178.576)" width="80.8" xlink:href="#h"/><use height="42.95" transform="matrix(1 0 0 1.0012 -239.5 198.576)" width="80.8" xlink:href="#h"/><use height="42.95" transform="matrix(1 0 0 1.0012 -199.5 218.576)" width="80.8" xlink:href="#h"/><use height="42.95" transform="matrix(1 0 0 1.0012 -159.5 238.576)" width="80.8" xlink:href="#h"/><use height="42.95" transform="matrix(1 0 0 1.0012 -119.5 258.576)" width="80.8" xlink:href="#h"/><use height="42.95" transform="matrix(1 0 0 1.0012 -399.5 158.576)" width="80.8" xlink:href="#h"/><use height="42.95" transform="matrix(1 0 0 1.0012 -359.5 178.576)" width="80.8" xlink:href="#h"/><use height="42.95" transform="matrix(1 0 0 1.0012 -319.5 198.576)" width="80.8" xlink:href="#h"/><use height="42.95" transform="matrix(1 0 0 1.0012 -279.5 218.576)" width="80.8" xlink:href="#h"/><use height="42.95" transform="matrix(1 0 0 1.0012 -239.5 238.576)" width="80.8" xlink:href="#h"/><use height="42.95" transform="matrix(1 0 0 1.0012 -199.5 258.576)" width="80.8" xlink:href="#h"/><use height="42.95" transform="matrix(1 0 0 1.0012 -159.5 278.576)" width="80.8" xlink:href="#h"/><use height="42.95" transform="matrix(1 0 0 1.0012 -439.5 178.576)" width="80.8" xlink:href="#h"/><use height="42.95" transform="matrix(1 0 0 1.0012 -399.5 198.576)" width="80.8" xlink:href="#h"/><use height="42.95" transform="matrix(1 0 0 1.0012 -359.5 218.576)" width="80.8" xlink:href="#h"/><use height="42.95" transform="matrix(1 0 0 1.0012 -319.5 238.576)" width="80.8" xlink:href="#h"/><use height="42.95" transform="matrix(1 0 0 1.0012 -279.5 258.576)" width="80.8" xlink:href="#h"/><use height="42.95" transform="matrix(1 0 0 1.0012 -239.5 278.576)" width="80.8" xlink:href="#h"/><use height="42.95" transform="matrix(1 0 0 1.0012 -199.5 298.576)" width="80.8" xlink:href="#h"/><use height="42.95" transform="matrix(1 0 0 1.0012 -479.5 198.576)" width="80.8" xlink:href="#h"/><use height="42.95" transform="matrix(1 0 0 1.0012 -439.5 218.576)" width="80.8" xlink:href="#h"/><use height="42.95" transform="matrix(1 0 0 1.0012 -399.5 238.576)" width="80.8" xlink:href="#h"/><use height="42.95" transform="matrix(1 0 0 1.0012 -359.5 258.576)" width="80.8" xlink:href="#h"/><use height="42.95" transform="matrix(1 0 0 1.0012 -319.5 278.576)" width="80.8" xlink:href="#h"/><use height="42.95" transform="matrix(1 0 0 1.0012 -279.5 298.576)" width="80.8" xlink:href="#h"/><use height="42.95" transform="matrix(1 0 0 1.0012 -239.5 318.576)" width="80.8" xlink:href="#h"/><use height="31.55" transform="matrix(-1 0 0 1 1.5 253.55)" width="50.5" xlink:href="#j"/><use height="31.55" transform="matrix(-1 0 0 1 -38.5 273.3)" width="50.5" xlink:href="#j"/><use height="31.55" transform="matrix(-1 0 0 1 -78.5 293.3)" width="50.5" xlink:href="#j"/><use height="31.55" transform="matrix(-1 0 0 1 -119 313.55)" width="50.5" xlink:href="#j"/><use height="31.55" transform="matrix(-1 0 0 1 -158.5 333.3)" width="50.5" xlink:href="#j"/><use height="136.2" transform="translate(-196.55 257.85)" width="272.35" xlink:href="#l"/><use height="31.55" transform="translate(40.75 273.75)" width="50.5" xlink:href="#j"/><use height="42.95" transform="matrix(1 0 0 1.0012 75.83 280.81)" width="80.8" xlink:href="#h"/><use height="42.95" transform="matrix(1 0 0 1.0012 115.83 300.81)" width="80.8" xlink:href="#h"/><use height="31.55" transform="matrix(-1 0 0 1 51.5 278.55)" width="50.5" xlink:href="#j"/><use height="31.55" transform="matrix(-1 0 0 1 11.5 298.3)" width="50.5" xlink:href="#j"/><use height="31.55" transform="matrix(-1 0 0 1 -28.5 318.3)" width="50.5" xlink:href="#j"/><use height="31.55" transform="matrix(-1 0 0 1 -69 338.55)" width="50.5" xlink:href="#j"/><use height="31.55" transform="matrix(-1 0 0 1 -108.5 358.3)" width="50.5" xlink:href="#j"/><use height="42.95" transform="matrix(1 0 0 1.0012 10.5 283.576)" width="80.8" xlink:href="#h"/><use height="42.95" transform="matrix(1 0 0 1.0012 40.5 298.576)" width="80.8" xlink:href="#h"/><use height="42.95" transform="matrix(1 0 0 1.0012 80.5 318.576)" width="80.8" xlink:href="#h"/><use height="42.95" transform="matrix(1 0 0 1.0012 -29.5 303.576)" width="80.8" xlink:href="#h"/><use height="42.95" transform="matrix(1 0 0 1.0012 .5 318.576)" width="80.8" xlink:href="#h"/><use height="42.95" transform="matrix(1 0 0 1.0012 40.5 338.576)" width="80.8" xlink:href="#h"/><use height="42.95" transform="matrix(1 0 0 1.0012 -69.5 323.576)" width="80.8" xlink:href="#h"/><use height="42.95" transform="matrix(1 0 0 1.0012 -39.5 338.576)" width="80.8" xlink:href="#h"/><use height="42.95" transform="matrix(1 0 0 1.0012 .5 358.576)" width="80.8" xlink:href="#h"/><use height="42.95" transform="matrix(1 0 0 1.0012 -109.5 343.576)" width="80.8" xlink:href="#h"/><use height="42.95" transform="matrix(1 0 0 1.0012 -79.5 358.576)" width="80.8" xlink:href="#h"/><use height="42.95" transform="matrix(1 0 0 1.0012 -39.5 378.576)" width="80.8" xlink:href="#h"/><use height="42.95" transform="matrix(1 0 0 1.0012 -149.5 363.576)" width="80.8" xlink:href="#h"/><use height="42.95" transform="matrix(1 0 0 1.0012 -119.5 378.576)" width="80.8" xlink:href="#h"/><use height="42.95" transform="matrix(1 0 0 1.0012 -79.5 398.576)" width="80.8" xlink:href="#h"/><use height="42" transform="matrix(.7925 -.6046 .9319 .5429 -160.193 178.765)" width="42" xlink:href="#m"/><use height="5.15" transform="translate(76.15 240.85)" width="7.45" xlink:href="#n"/></g><path d="m268.086 285.775 19.95 10 19.85-9.9-20-10 7.6-3.8-34.85-.25v17.4l7.45-3.45" fill="#fc6" fill-opacity=".6"/><path d="M260.636 289.225v-17.4l34.85.25-7.6 3.8 20 10-19.85 9.9-19.95-10z" fill="none" stroke="#f60" stroke-linecap="round" stroke-linejoin="round" stroke-miterlimit="3" stroke-opacity=".6"/><path d="m810.125 185.75-19.95 10-19.85-9.9 20-10-7.6-3.8 34.85-.25v17.4l-7.45-3.45" fill="#fc6" fill-opacity=".6"/><path d="M817.576 189.2v-17.4l-34.85.25 7.6 3.8-20 10 19.85 9.9 19.95-10z" fill="none" stroke="#f60" stroke-linecap="round" stroke-linejoin="round" stroke-miterlimit="3" stroke-opacity=".6"/><path d="m812.113 236.657 20 10-7.65 3.8 34.9.25v-17.4l-7.45 3.45-19.95-10-19.85 9.9" fill="#fc6" fill-opacity=".6"/><path d="m831.963 226.757 19.95 10 7.45-3.45v17.4l-34.9-.25 7.65-3.8-20-10z" fill="none" stroke="#f60" stroke-linecap="round" stroke-linejoin="round" stroke-miterlimit="3" stroke-opacity=".6"/><path d="m652.323 316.409 20 10-7.65 3.8 34.9.25v-17.4l-7.45 3.45-19.95-10-19.85 9.9" fill="#fc6" fill-opacity=".6"/><path d="m672.173 306.509 19.95 10 7.45-3.45v17.4l-34.9-.25 7.65-3.8-20-10z" fill="none" stroke="#f60" stroke-linecap="round" stroke-linejoin="round" stroke-miterlimit="3" stroke-opacity=".6"/><path d="m452.103 416.683 20 10-7.65 3.8 34.9.25v-17.4l-7.45 3.45-19.95-10-19.85 9.9" fill="#fc6" fill-opacity=".6"/><path d="m471.953 406.783 19.95 10 7.45-3.45v17.4l-34.9-.25 7.65-3.8-20-10z" fill="none" stroke="#f60" stroke-linecap="round" stroke-linejoin="round" stroke-miterlimit="3" stroke-opacity=".6"/><path d="m347.745 85.803 19.95 10 19.85-9.9-20-10 7.6-3.8-34.85-.25v17.4l7.45-3.45" fill="#fc6" fill-opacity=".6"/><path d="M340.295 89.253v-17.4l34.85.25-7.6 3.8 20 10-19.85 9.9-19.95-10z" fill="none" stroke="#f60" stroke-linecap="round" stroke-linejoin="round" stroke-miterlimit="3" stroke-opacity=".6"/></svg>