<svg xmlns:xlink="http://www.w3.org/1999/xlink" height="80.4" width="104.1" xmlns="http://www.w3.org/2000/svg"><use height="80.4" width="104.1" xlink:href="#shape0"/><defs><g id="shape0"><path d="M-40.45-55.65L59.9-105.2l3.15.55L-38.4-54.3l-2.05-1.35 2.05 1.35v.05l-.85 28.65-1.8-1.5.6-28.55" fill="#454064" fill-rule="evenodd" transform="translate(41.05 105.2)"/><path d="M52.15-70.95q.95 3.9-1.1 5.2l-1.45.6-3.95 1.95q4.9-2.7 2.65-5.85l3.85-1.9M-24.9-32.7q1.6 4.5-1.85 6l-4.15 1.9q4.15-2.05 2.15-6.05l3.85-1.85" fill="#56517d" fill-rule="evenodd" transform="translate(41.05 105.2)"/><path d="M-38.4-54.3l101.45-50.35L62.2-76l-10.05 5.05-3.85 1.9h-.05l-73.15 36.3v.05l-3.85 1.85-10.5 5.25.85-28.65v-.05" fill="#2e2c43" fill-rule="evenodd" transform="translate(41.05 105.2)"/><path d="M104.1.55L100.95 0 .6 49.55l2.05 1.35L104.1.55l-.85 28.65-10.05 5.05m-3.9 1.9l-73.15 36.3m-3.85 1.9L1.8 79.6 0 78.1l.6-28.55m2.05 1.4v-.05m0 .05v-.05M1.8 79.6l.85-28.65m90.55-16.7q.95 3.9-1.1 5.2l-1.45.6M86.7 42q4.9-2.7 2.65-5.85h-.05m-73.15 36.3v.05q1.6 4.5-1.85 6m-4.15 1.9q4.15-2.05 2.15-6.05l3.85-1.85m73.2-36.35l3.85-1.9" fill="none" stroke="#000" stroke-linecap="round" stroke-linejoin="round" stroke-width=".05"/></g></defs></svg>