<svg xmlns:xlink="http://www.w3.org/1999/xlink" height="85.15" width="151.85" xmlns="http://www.w3.org/2000/svg"><use height="85.15" width="151.85" xlink:href="#shape0"/><defs><linearGradient gradientTransform="matrix(.0816 -.0208 .0066 .0259 -40.8 6.2)" gradientUnits="userSpaceOnUse" id="gradient0" spreadMethod="pad" x1="-819.2" x2="819.2"><stop offset="0" stop-color="#fe3668"/><stop offset="1" stop-color="#929292"/></linearGradient><g id="shape0"><path d="M-122.5 40.35l107.8-59.5Q7.35-8.6 29.35 1.9L-83.7 58.15l-38.8-17.8" fill="#101010" fill-opacity=".561" fill-rule="evenodd" transform="translate(122.5 27)"/><path d="M.55-26.95L.6-27l23.7 10.95q1 .85.7 1.7v.05l-.55.75L.1-1.15H.05l-.85.5-.9.45q-.55.05-.45.2L-26.6 12.3h-.05l-1.9.95v.05l-.1.05-.3.1h-.15l-3.05 1.6-21.3 10.8h-.05l-1.95 1h-.05l-21.7 10.9-.3.15-.85.45-1.25.4h-1.2l-.7-.1-23.3-10.85-1.95-.9 26.1-13.1.9-.45L.15-26.8l.4-.15" fill="url(#gradient0)" fill-rule="evenodd" transform="translate(122.5 27)"/><path d="M-104.8 27.8l23.3 10.85.3.1v3.2q-8.25-6.1-17.35-9.35-3.1-1.05-6.25-1.8v-3m26.45 10.55l.85-.45.3-.15 21.7-10.9h.05l1.95-1h.05l21.3-10.8 3.05-1.6h.15l.3-.1.1-.05v-.05l1.9-.95h.05L-2.15 0q-.1-.15.45-.2l.9-.45.9-.5 24.35-12.4.5.05v2.35l-2.1.6Q11.5-6.9-.75 1.65l-1-.75v1.4l-.1.05-.9.25-.45.15-.1.05q-7.3 2.25-14.3 6.6l-9.7 5.8-1.25-.9v1.55q-5.05 1.4-10.25 3.75-7.55 3.45-15.6 8.9l-1.05-.75v1.45Q-67.7 32.6-79.1 41.9v-3.15l.75-.4m49.7-25l.1.95-.1-.95m-3.5 1.7l3.2-1.6-3.2 1.6m5.55-2.75l-1.95 1 1.95-1m-28.85 14.55v.9-.9M-1.7-.2L-1.75.9l.05-1.1" fill="#2b2b2b" fill-rule="evenodd" transform="translate(122.5 27)"/><path d="M24.45-13.55l.55-.75-.05.8-.5-.05" fill="#3a3a3a" fill-rule="evenodd" transform="translate(122.5 27)"/><path d="M-106.75 26.9l1.95.9v10.8q-1.05.9-1.95 0V26.9m25.95 11.85h1.2l.5-.05v11.9q-1.1 1.05-2.1 0V38.75h.4m105.75-49.9v11.1q-1.1 1.05-2.1 0v-10.5l2.1-.6" fill-rule="evenodd" transform="translate(122.5 27)"/><path d="M-106.75 28.05l-.05-.2v-.4h.05v.6M.3 2.3v.05L.2 2.3h.1m-26.7 13.5l-.1-.05h.1v.05m-26.85 13.55l-.1-.05h.1v.05" fill="#240000" fill-rule="evenodd" transform="translate(122.5 27)"/><path d="M-79.75 13.35l-.9.45.85-.45h.05" fill="#ff2020" fill-rule="evenodd" transform="translate(122.5 27)"/><path d="M-81.5 38.65l.7.1h-.4l-.3-.1m1.9.1l1.25-.4-.75.4v-.05l-.5.05" fill="#780101" fill-rule="evenodd" transform="translate(122.5 27)"/><path d="M147.5 12.7v-.05q.3-.85-.7-1.7L123.1 0l-.05.05m-.4.15l-79.9 40.15-.9.45-26.1 13.1 1.95.9L41 65.65l.7.1h1.2l1.25-.4.85-.45m.3-.15L67 53.85h.05l1.95-1m.05 0l21.3-10.8m3.2-1.6l.3-.1.1-.05 1.95-1L120.35 27q-.1-.15.45-.2l.9-.45m.9-.5l24.35-12.4.55-.75-.05.8v5.1m0 .35v8q-1.1 1.05-2.1 0v-10.5q-11.35 3.65-23.6 12.2l-1 .65-.1.05-.9.25-.45.15-.1.05q-7.3 2.25-14.3 6.6l-9.7 5.8-1.25.65q-5.05 1.4-10.25 3.75-7.55 3.45-15.6 8.9l-1.05.7Q54.8 59.6 43.4 68.9v8.7q-1.1 1.05-2.1 0v-8.65q-8.25-6.1-17.35-9.35-3.1-1.05-6.25-1.8v2.05m0 .1v5.65q-1.05.9-1.95 0V53.9m-.05.55h.05M122.65.2l.45-.2m24.35 15.85l-2.1.6m-23.6 12.2l-1-.75v1.4m-26.8 12l-.1-.95m1.35 1.85l-1.25-.9v1.55m-.4-2.4l-3.2 1.6M42.9 65.75l.5-.05v3.2m23.65-14.15v-.9m1.05 1.65l-1.05-.75v1.45M17.7 54.8v3m23.6 11.15v-3.2h.4m79.05-37.85l.05-1.1m1.8-.95l-.9.5" fill="none" stroke="#000" stroke-linecap="round" stroke-linejoin="round" stroke-width=".05"/></g></defs></svg>