<svg xmlns:xlink="http://www.w3.org/1999/xlink" height="343.05" width="377.2" xmlns="http://www.w3.org/2000/svg"><g transform="translate(294.1 239.35)"><use height="342.8" transform="translate(-294.1 -239.1)" width="377.2" xlink:href="#shape0"/><use height="70.05" transform="matrix(-.2057 -.082 -.0023 .3415 -127.284 -98.569)" width="155.95" xlink:href="#text0"/><use height="70.05" transform="matrix(-.2057 -.082 -.0023 .3415 -163.984 -113.169)" width="155.95" xlink:href="#text1"/><use height="70.05" transform="matrix(-.2057 -.082 -.0023 .3415 -203.884 -128.719)" width="155.95" xlink:href="#text2"/><use height="70.05" transform="matrix(-.2057 -.082 -.0023 .3415 -247.184 -144.269)" width="155.95" xlink:href="#text3"/><use height="24.8" transform="translate(-4.15 -147.8)" width="22.55" xlink:href="#shape1"/><use height="43.7" transform="matrix(.0089 1.2875 -.8163 .4814 -78.914 6.349)" width="46.25" xlink:href="#text4"/><use height="11.85" transform="matrix(.9285 -.4103 .0122 1.0968 -87.877 -100.524)" width="81.3" xlink:href="#text5"/><use height="339.9" transform="translate(-282.85 -239.35)" width="323.3" xlink:href="#shape2"/><use height="50.1" transform="matrix(.4992 -.1864 .2582 .698 -103.639 40.121)" width="50.55" xlink:href="#text6"/></g><defs><path d="M176-460v-112q0-24 16-40 20-20 64-20 36 0 92 28v-80q-56-20-108-20-68 0-108 40-36 36-36 92v112H0v64h96v384h80v-384h136v-64H176" fill-rule="evenodd" id="font_MS_UI_Gothic_f0"/><path d="M256-400q52 0 80 28 32 32 32 72H140q8-40 36-68 32-32 80-32M48-236q0 108 64 172Q172-4 268-4q92 0 144-52 36-36 52-108h-88q0 36-28 64-24 24-80 24t-92-36q-40-40-40-124h324q0-116-56-172-60-60-144-60-88 0-144 56-68 68-68 176" fill-rule="evenodd" id="font_MS_UI_Gothic_e0"/><path d="M48-232q0 104 72 176Q176 0 260 0q100 0 152-52t56-136h-88q0 52-32 84t-88 32q-48 0-80-32-44-44-44-124 0-84 48-132 32-32 80-32t72 24q28 28 32 60h88q-8-64-52-108-48-48-144-48-88 0-148 60-64 64-64 172" fill-rule="evenodd" id="font_MS_PGothic_c0"/><path d="M340-240v80q-4 12-32 40-44 44-112 44-40 0-52-12-20-20-20-48 0-24 20-44 16-16 48-24 36-8 104-24 20-4 44-12M56-328h88q8-28 24-44 24-24 80-24 44 0 68 24t24 56q-20 12-72 24-36 12-84 20-72 12-112 52-36 36-36 92 0 48 36 84Q112-4 188-4q92 0 152-60 0 36 16 52h96q-32-24-32-68v-252q0-52-40-92-44-44-144-44-84 0-128 44-40 40-52 96" fill-rule="evenodd" id="font_MS_PGothic_a0"/><path d="M176-460v-112q0-24 16-40 20-20 64-20 36 0 92 28v-80q-56-20-108-20-68 0-108 40-36 36-36 92v112H0v64h96v384h80v-384h136v-64H176" fill-rule="evenodd" id="font_MS_PGothic_f0"/><path d="M256-400q52 0 80 28 32 32 32 72H140q8-40 36-68 32-32 80-32M48-236q0 108 64 172Q172-4 268-4q92 0 144-52 36-36 52-108h-88q0 36-28 64-24 24-80 24t-92-36q-40-40-40-124h324q0-116-56-172-60-60-144-60-88 0-144 56-68 68-68 176" fill-rule="evenodd" id="font_MS_PGothic_e0"/><path d="M252-400q44 0 76 32 48 48 48 132t-44 128q-32 32-80 32-40 0-68-28-44-44-44-132 0-92 40-132 32-32 72-32m124-296v292q-48-68-136-68-72 0-124 52-64 64-64 184 0 112 72 184Q172-4 256-4q76 0 120-64v56h80v-684h-80" fill-rule="evenodd" id="font_MS_PGothic_d0"/><path d="M308-24q40 0 56 16 12 12 12 28t-16 32q-28 28-136 28-80 0-104-24-16-16-16-36t16-36q12-12 40-20 52 8 148 12m-84-376q36 0 56 20 28 28 28 68 0 44-24 68-20 20-56 20-32 0-56-24t-24-64q0-40 28-68 20-20 48-20M68-312q0 60 44 104-60 36-60 76 0 32 20 52 16 16 28 24-32 16-48 32Q32-4 32 24q0 40 28 68 44 44 168 44 148 0 192-44 32-32 32-80 0-44-32-76-20-20-60-28-72-4-136-8-72-4-92-24-8-8-8-20 0-16 20-32 44 20 84 20 76 0 116-40 44-44 44-116 0-48-28-84 60-16 108 4v-76h-36q-56 0-96 40-48-40-112-40-68 0-112 44T68-312" fill-rule="evenodd" id="font_MS_PGothic_g0"/><path d="M68-460v448h80v-448H68m0-232v104h80v-104H68" fill-rule="evenodd" id="font_MS_PGothic_i0"/><path d="M52-696v684h80v-152l92-92L376-12h84L276-308l152-152H328L132-264v-432H52" fill-rule="evenodd" id="font_MS_PGothic_k0"/><path d="M260-396q48 0 80 32 48 48 48 128t-44 124q-36 36-84 36t-84-36q-44-44-44-124t48-128q32-32 80-32M44-236q0 104 68 172Q172-4 260-4t148-60q68-68 68-172t-68-172q-60-60-148-60t-148 60q-68 68-68 172" fill-rule="evenodd" id="font_MS_PGothic_o0"/><path d="M704.5 41.5q21.5 0 36.5-14t13.5-34q-22-200.5-36-286.5Q704-415.5 698-433.5q-30.5-90-114-90-49 0-87 18.5-38 18-65.5 54.5-29.5-78-108-78-35.5 0-86 43.5-50.5 43-76.5 96.5l-1-52.5q0-10.5 2.5-30.5T165-501q0-20-16-37-16.5-17-36-17-51 0-51 113.5 0 27 5 80 4.5 53 4.5 79.5 0 30-5.5 89.5T60.5-103q0 128.5 56.5 128.5 20.5 0 36-14 15-14 15-34.5 0-12-4.5-39-5-27-5-42 0-28 5.5-86.5t5.5-88.5q17.5-19.5 25.5-31.5l59-66q36-36 71-52 15 29.5 15 82.5 0 60.5 12.5 179 12 118 12 178.5 0 22 14 36.5 13.5 14 35 14T449 48q13.5-14.5 13.5-36.5 0-51.5-9.5-130.5l-15-133.5q-3-47-2.5-94 15-17.5 63-46.5 50.5-31.5 69-31.5 20 0 37 45 12 33 17 67.5l17 155q9 100 18 155 7 43.5 48 43.5" fill-rule="evenodd" id="font_Comic_Sans_MS_m0"/><path d="M289.5-432.5q77.5 0 120.5 40Q371.5-360 281-316l-153.5 73q20-95 60.5-142 40.5-47.5 101.5-47.5M303 23q72.5 0 149-34 89.5-40 89.5-95.5 0-17.5-13.5-30.5-14-13.5-31.5-13.5-19.5 0-36.5 27-17 26.5-76 43-46.5 13-81 13-55.5 0-97-21-42-21-70-62.5l191-90.5q81-38 106-56 56.5-41 56.5-91 0-71.5-64.5-106-52.5-28-135.5-28-114.5 0-183 96-63 88-63 218 0 112.5 76.5 175Q190 23 303 23" fill-rule="evenodd" id="font_Comic_Sans_MS_e0"/><path d="M453 35.5q21.5 0 36-13.5 14-14 14-36 0-41-10.5-106.5-11-66-11-107.5l.5-46.5V-325q-2-92-23.5-139Q427-534.5 347-534.5q-88.5 0-172.5 112L173-481q-4.5-65-50.5-65-21 0-35 14Q73-518.5 73-497q0 16 2 47.5 1.5 31.5 1.5 47.5 0 51.5-7 143Q62-168 62-116.5q0 15 3.5 45 3 30 3 45Q68.5-4 82 10t35.5 14Q139 24 153 10q13.5-14 13.5-36.5 0-15-3-45t-3-45q0-23.5 3-48.5 3.5-29.5 4.5-49 26-92.5 72-153 51-66.5 107-66.5 40 0 40 108 0 14-1.5 47.5-2 33.5-2 47.5 0 51 7 109.5l14 109.5q5.5 47 48.5 47" fill-rule="evenodd" id="font_Comic_Sans_MS_n0"/><path d="M477.5-292l9-189q1-21-13.5-35t-36-14q-43 0-48.5 46-9.5 79.5-9.5 187.5l1 97 .5 101.5Q306-76.5 239-76.5q-15.5 0-31.5-4.5-16-5-32.5-14-11-36-16.5-95.5t-5.5-143q0-26.5 7.5-77 7-50.5 7-73.5 0-21.5-14.5-35-14.5-14-36-14-40.5 0-47.5 43.5-15 87.5-15 156 0 103.5 19.5 236Q83-36 130.5-4q43 29 108.5 29 81.5 0 144-32.5Q393.5 40 432 40q21 0 35.5-13.5Q482 12.5 482-9q0-11-1.5-33.5-2-22.5-2-33.5 0-36-.5-108t-.5-108" fill-rule="evenodd" id="font_Comic_Sans_MS_u0"/><path d="M348-283q45.5 11 93.5 33.5 64 29.5 64 53 0 13-30.5 39-32 28.5-67 42-82.5 32.5-213.5 37V-182q0-49.5 3-112.5Q228-290 255-290q7 0 20.5-.5 13-1 19.5-1l53 8.5m-56-400.5q58.5 0 111 40.5t52.5 88q0 70-51.5 114.5-48 41-123.5 47-5 .5-76-5.5l10-193.5 1-87.5q22-3.5 76.5-3.5M443-20q50-19.5 95.5-59.5Q604-136 604-196.5q0-46-37-85-37.5-39-112.5-71 100-74 100-202.5 0-101.5-93.5-170.5-81-60-169-60-86.5 0-154.5 21-13 8-16.5 33-6 91-5.5 137-1 64-11 207-9 132.5-9 204V-38q0 21.5 19.5 42 19 20 40.5 20 175 0 287.5-44" fill-rule="evenodd" id="font_Comic_Sans_MS_B0"/><path d="M196.5-393q0-79 2.5-180.5 2.5-102 2.5-181 0-50-49.5-50-49 0-49 50 0 79-2.5 181Q98-472 98-393q0 60.5-5.5 182Q87-90 87-29.5q0 51 49 51 44 0 49-50 4-76.5 4-116l7.5-248.5" fill-rule="evenodd" id="font_Comic_Sans_MS_l0"/><path d="M356-314.5q0 66 16 198.5-32.5 28.5-50.5 38Q288-60.5 240-60.5q-58 0-87-41t-29-123q0-82.5 56.5-145.5 56-63.5 133.5-63.5 8 0 21.5 4.5 13 4.5 31.5 14-5.5 28.5-8 54-3 25-3 46.5M460 33q18.5 0 32.5-13t14-33l-3-8.5Q495.5-39 492-48q-26.5-66-31.5-88-9-36-8.5-98 .5-68 3.5-111.5Q458-389 463-408q10-10.5 10-24 0-39.5-68-67.5-54-22.5-97.5-22.5Q192-522 109-436q-83.5 86-83.5 207 0 128 50.5 190 53.5 66 170.5 66 24.5 0 61-13Q344 .5 392-25.5q11 16 33.5 36.5 25 22 34.5 22" fill-rule="evenodd" id="font_Comic_Sans_MS_a0"/><path d="M295.5 31.5q44.5 0 112-30 77-34 77-70.5 0-19-13.5-33.5-13.5-15-32-15-6.5 0-21.5 8l-58 31q-34 16-64 16-66 0-108-35.5-45-38-45-104 0-61 45.5-144.5 50-91 101-91 67 0 96.5 23.5 10 8.5 21 17.5 10.5 8.5 25 8.5 18.5 0 31-14.5 12.5-15 12.5-34 0-42.5-76.5-72-60.5-23-109.5-23-94 0-169 120-67.5 108-67.5 209.5 0 106.5 72 171.5 68.5 62 171 62" fill-rule="evenodd" id="font_Comic_Sans_MS_c0"/><path d="M486 20.5q20.5 0 36.5-14.5Q538-8.5 538-28.5q0-31.5-76.5-136L352.5-313q90-82.5 151.5-154.5 14.5-16.5 14.5-33.5 0-20.5-15.5-36-16-15.5-35.5-15.5-19 0-35.5 17L322-422q-63 62-131 114-1-87 1.5-174l3.5-161q0-23-2.5-54-2.5-31.5-2.5-54.5 0-22.5-13.5-36.5-14-14-35.5-14t-35 14q-14 14-14 36.5t2.5 53q2 30.5 2 53 0 75-2 173Q93-375 93-299q0 41.5-5.5 124.5-6 82.5-6 124 0 68 50.5 68 21.5 0 35.5-14Q181-10.5 181-33q0-73.5 5.5-151 61-41.5 90-64.5L365-128q52.5 69 78.5 119.5 15 29 42.5 29" fill-rule="evenodd" id="font_Comic_Sans_MS_k0"/><path d="M287-417q111.5.5 104.5 194-2.5 71.5-45 113.5-37.5 38-89.5 38-44.5 0-77.5-33.5Q140-145.5 140-218t32.5-129q41-70.5 114.5-70M257 29.5q105.5 0 169.5-89Q483-138 484.5-249 486-353 445-427q-51.5-91.5-151.5-91.5-125 0-195 101.5-60 86-57 199 3.5 116.5 71 185.5 60.5 62 144.5 62" fill-rule="evenodd" id="font_Comic_Sans_MS_o0"/><path d="M405.5-703q65 0 65-48 0-48.5-71.5-48.5-110.5 0-162.5 63.5-43 52.5-56 163.5-6 48-7.5 76l-48 1.5q-87.5 2.5-87.5 52 0 48.5 50.5 48.5 16.5 0 79-5v145l1.5 136.5q0 76.5-10.5 141.5-1 6-1 10 0 20 14.5 33.5 14.5 13 35 13 38 0 46.5-40 11-53 11-148 0-30.5-2-92.5t-2-93l4-114q92.5-7.5 115.5-6.5 22.5.5 39.5-2.5 39-7 39-43.5 0-50-79.5-50-25 0-110 6l1.5-31q14.5-168 135.5-168" fill-rule="evenodd" id="font_Comic_Sans_MS_f0"/><path d="M478.5-623q19.5 0 34.5-11.5 17-14 17-37.5 0-47-44.5-53.5Q335.5-747 236-747q-111 0-151.5 4-47 4.5-47 51 0 22.5 14.5 37t36 14.5l65-1.5 65-2q-14 173-14 288.5 0 34 3.5 84 3 49.5 3 84 0 52-5 92.5-75 10.5-107.5 10.5-21 0-35 15-14.5 15-14.5 36.5T63 3.5Q77 18 98 18q33.5 0 99.5-9Q263-.5 296-.5q28 0 84-1Q436-3 464-3q21 0 35.5-14.5 14-15 14-37 0-21.5-14-36-14.5-15-35.5-15l-157.5 2Q310-142 310-189q0-35-2-86.5t-2-86.5q0-132.5 11.5-278l80.5 10.5q48.5 6.5 80.5 6.5" fill-rule="evenodd" id="font_Comic_Sans_MS_I0"/><path d="M576.5 20.5q21.5 0 34.5-19Q621.5-14 621.5-31q0-36.5-39.5-49.5-33-11-61.5-33l-52.5-44q-128-118-188-181 95-93.5 184-191 129-143 129-176 0-21.5-15.5-36.5T542-757q-21 0-38 19.5L360.5-571Q276-475 209-411.5q-.5-52.5 5.5-151.5 6-102.5 6-151 0-21.5-14-36.5-14.5-15-36-15-21 0-35 15-14.5 15-14.5 36.5 0 116.5-7 349.5t-7 350q0 24 14 44.5 17 25 45.5 25Q210 55 210 5.5l.5-262v-7L360-113Q500.5 20.5 576.5 20.5" fill-rule="evenodd" id="font_Comic_Sans_MS_K0"/><path d="M448.5-556.5l40.5 193q-123 22-183.5 37.5l143-230.5M625 15q20 0 35.5-14.5t15.5-36q0-13.5-14.5-54l-28.5-79L558.5-516 527-684q-14.5-55-54-55-29 0-147.5 189.5-87 139-144 246-49 11.5-49 52 0 17 8.5 30Q65.5-63 65.5-39q0 21.5 16 36Q97 11.5 117 11.5q27.5 0 43.5-28Q221-142.5 246-208l133-27.5q82.5-18 133.5-25Q532-148 545-103q34 118 80 118" fill-rule="evenodd" id="font_Comic_Sans_MS_A0"/><path d="M557.5-673q21.5 0 36-17 13-15.5 13-35.5 0-34.5-33.5-48-72.5-29-194-29-47 0-100 8-53.5 8-113.5 24-15-14.5-36-14.5-50 0-50 59.5 0 18.5 5 54.5 5 35.5 5 54 0 69-10 213.5Q70-390 70-373q0 13 5.5 24.5-2.5 44-4 82t-1.5 70Q70-36 118 8.5q44 41 199 41 156.5 0 203.5-9.5Q563 31.5 563-10.5q0-52-53-52-9.5 0-29 3.5-19.5 3-29.5 3-31.5 0-93.5 2-62.5 1.5-93.5 1.5-66.5 0-78.5-14-16-19.5-16-130 0-27.5 1.5-59 1-32 3-67.5l231-21 119-10.5q46-5.5 46-51 0-23.5-15-37.5t-37-14q-22 0-118.5 10l-219 21q8.5-121.5 8.5-191 0-19.5-4.5-52 56-15.5 104.5-23t89.5-7.5q78.5 0 163 24 8.5 2.5 15.5 2.5" fill-rule="evenodd" id="font_Comic_Sans_MS_E0"/><path d="M407-385q21.5 0 35.5-14 13.5-14 13.5-36.5 0-14.5-6-42.5-6.5-28-6.5-42.5 0-22.5-13.5-36.5-14-14-35.5-14-24 0-44.5 9-28.5 13-94.5 32-66 18.5-96 32Q61-453.5 61-349q0 56.5 40.5 84.5 28 19.5 94.5 34l52 11.5q95 24 95 92 0 31.5-46.5 46-32 10-74 10-23 0-56.5-6-42-7.5-54-19-24.5-24-40-24-20 0-35.5 15-16 15-16 35 0 50 77 78 59.5 22 125 22 89.5 0 148-34Q441-45.5 441-127q0-99.5-81.5-152-56-36-171-56.5-14.5-2.5-29.5-8 .5-47 81-79 78-25.5 115.5-35 5.5 41 13 54 11 18.5 38.5 18.5" fill-rule="evenodd" id="font_Comic_Sans_MS_s0"/><path d="M316.5-416q45 0 67.5 45.5 22 45 22 136 0 64.5-28.5 105Q344.5-83 282-83q-54.5 0-109-21 0-125-6.5-238.5 40.5-38.5 67-53 37-20.5 83-20.5M282 17.5q102.5 0 164-74 58-70 58-178Q504-353 466.5-425q-47.5-91-150-91-36.5 0-76.5 15-40 14.5-83 44 1-13 3.5-28.5 1.5-12 1.5-16.5 0-20-13-33.5-13.5-14-33-14-28.5 0-43.5 29.5-13 24.5-13 60L67-358.5q6 90 7.5 199.5V40.5l-1.5 200q0 22 14 36 13.5 14 35 14t35.5-14q13.5-14 13.5-36l1-239q60 16 110 16" fill-rule="evenodd" id="font_Comic_Sans_MS_p0"/><path d="M458.5-369.5q.5-9 .5-35 0-61.5-20-92T378.5-527q-117 0-213 92.5-.5-83-49.5-83-44 0-44 50.5 0 16.5-1 49.5-1.5 33-1.5 49.5v351q0 50.5 44 50.5Q163 33.5 163-17l-1-274q29.5-65.5 74-98 47.5-35 126.5-44.5l1.5 42q1.5 25.5 1.5 35 0 49.5 43 49.5 46.5 0 50-62.5" fill-rule="evenodd" id="font_Comic_Sans_MS_r0"/><g id="shape0"><path d="M28.45-174.25v-.35l11.65-4.95-11.65 4.95v-.4l11.65-4.55-11.65 5.3" fill="#e3cc71" fill-rule="evenodd" transform="translate(294.1 239.1)"/><path d="M28.45-174.6l-.1.05-149.55 63.65-161.15-62.5 161.4-65.2L40.1-179.55 28.45-175v.4m-300.95 59.05l21.45 8.45V6.1l-21.45-9.7v-111.95M-168-32.1v85.15l-24.5-1.9V-49.9l24.5 17.8m-43.95 23.35v41.2l-21.75-1.4V-23.9l21.75 15.15m55.85-59.2l24.4 9.8v125.1l-24.4-11.2v-123.7m39.75-60.1l104.95-44.4-106.95-43.4-109 44.4 111 43.4M-45.65 31l1.65.8-1.95.15.3-.95M-54 13.95l-1.7 6.45-13.55 1.05L-67.6 15l13.6-1.05m-15.7 26l9.05-.75-1.65 6.45-.05.05-7.35.55v-6.3" fill-rule="evenodd" transform="translate(294.1 239.1)"/><path d="M40.1-179.55v10.2l-161.3 69.25v-10.8l149.55-63.65.1.3 11.65-5.3m0 51.15v.35L-121.2-55.4l4.1-2.15-4.1 2.15.2.4-.2.2v-5.3l3.45 2.15.65.4.15-.1.4-.15L40.1-128.4m-8.85 85.85l8.85-4.25V-.05l-10.2 5.1-56.6 28.2-5.9 2.85-1.05.5v-47.7L-22-16.7v35l4-2-4 2v-35q2-.95 4-1.95v31.8H.4V-27.6l3-1.45V11.7l8.9-4.4 5.5-2.7.15-.05.45-.2L21.2 3l.9-.45.9-.4V-38.5l3.25-1.6V.55L23 2.1 26.25.55v2.7l2.2-10.2 2.8-1.35v-34.25V-8.3l-2.8 1.35-2.2 10.2-25.85 13h-18.35H.4l25.85-13V.55l2.2-7.5V-41.2l2.8-1.35M-18 16.3l.05-.05H-18v-3.1 3.15m18.4-.05v-3.1l3-1.45-3 1.45v3.1M-118.85-50.6L-91.8 4.25v12.8L-69.7 6.4v48.1l-.25.1-38.45 19.15-8.2 4.05-.75.4-3.85 1.9V-50.1q.45.65 1.05.65.5 0 .95-.55l.2-.3.15-.3" fill="#296c76" fill-rule="evenodd" transform="translate(294.1 239.1)"/><path d="M28.45-174.6v.35l-.1-.3.1-.05m4.6 39.05L-108.9-73.1v-24.15L33.05-158.7v23.15" fill="#f0e9b9" fill-rule="evenodd" transform="translate(294.1 239.1)"/><path d="M44.7-167.8v37.3l-11.65-5.05v-23.15L-108.9-97.25l-8.2-.9L44.7-167.8l-11.65 9.1 11.65-9.1" fill="#feae2c" fill-rule="evenodd" transform="translate(294.1 239.1)"/><path d="M40.1-169.35l4.6 1.55-161.8 69.65 8.2.9v24.15l141.95-62.45 11.65 5.05-4.6 2.1-156.65 70.6-.55-1.2 8.2-14.1-8.2 14.1v1.45l.15-.1-.15.1v-.1h.15l-.15.1-.65-.4.65-1.05v-39.15l-4.1-1.95 161.3-69.25M-121-55l2.15 4.4-.15.3-.2.3q-.45.55-.95.55-.6 0-1.05-.65v-4.7l.2-.2" fill="#fc6" fill-rule="evenodd" transform="translate(294.1 239.1)"/><path d="M-33.65-11.1v47.7L-44 31.8l-1.65-.8-1.95-.85-3.8-1.8-.1-.05V-2.45l17.85-8.65m59.9-29l2.2-1.1v34.25l-2.2 1.1V-40.1m-5.1 13.9h.65v-11.5l-.25-.15L23-38.5V2.15l-.9.4-.9.45v-6.3l-.05-18.75v-4.15M23 2.1l-.9.45.9-.45M.4-27.6v40.75h-1.6V-26.8l1.6-.8" fill="#0b1e20" fill-rule="evenodd" transform="translate(294.1 239.1)"/><path d="M21.15-37.65l.4-.2.25.15v11.5h-.65v-11.45 15.6L8.25-31.4l12.9-6.25M3.4-5.05L12.85.9h-.1L6.55 4 3.4 2.15v-7.2M-69.7 6.4l6.9-3.35 11.3-5.5v10.6l-6.85-3.1 6.85-3.35-6.85 3.35 6.85 3.1v14.1l-4.2-1.85 1.7-6.45 2.5-1.25-2.5 1.25L-67.6 15l-1.65 6.45-.45.25V6.4m2.1 8.6l-2.1-.95 2.1.95m4.8-11.95l4.45 2-11.35 5.6 11.35-5.6-4.45-2m-53.8 74.75l8.2-4.05h.15l-8.25 4.1-.1-.05.1.05-.85.4v-.05l.75-.4" fill="#fff" fill-rule="evenodd" transform="translate(294.1 239.1)"/><path d="M-17.95 16.25l-.05.05v-.05h.05M3.4-29.05l4.85-2.35 12.9 9.35.05 18.75-.05.05L12.85.9 3.4-5.05v-24m0 31.2L6.55 4 3.4 5.6V2.15m-19.15 11H-18v-31.8l16.8-8.15V7.9l-.6.2-13.05 4.7-.9.35" fill="#66b5ee" fill-rule="evenodd" transform="translate(294.1 239.1)"/><path d="M12.85.9l8.3-4.15.05-.05V3l-2.8 1.35L12.85.9M6.55 4l5.75 3.3-8.9 4.4V5.6L6.55 4m-7.75 9.15h-14.55l.9-.35L-1.8 8.1l.6-.2v5.25" fill="#3ea3b0" fill-rule="evenodd" transform="translate(294.1 239.1)"/><path d="M26.25-5.85l2.2-1.1-2.2 7.5v-6.4" fill="#55b6c4" fill-rule="evenodd" transform="translate(294.1 239.1)"/><path d="M18.4 4.35l-.45.2-.15.05-5.5 2.7L6.55 4l6.2-3.1h.1l5.55 3.45" fill="#c8e8ec" fill-rule="evenodd" transform="translate(294.1 239.1)"/><path d="M-26.7 33.25l56.6-28.2L67.05 25.2-85 103.7l-95-44.95 18.05 1.1 15.65 7.8q3.15 1.6 6.25 3.15l18.85 9.75 65.75-32.85 13.85-6.85 9-4.5v-.1l5.9-3" fill-opacity=".2" fill-rule="evenodd" transform="translate(294.1 239.1)"/><path d="M-278.85-123.05l30.6 12.2v127.9L-279 1.75l.15-124.8m118 47.1l32.95 13.2v139.5l-34-16.9v-135.8h1.05m-111.65-39.6l-3.1-1.35V-2.25l24.55 11.9V-107.1l-21.45-8.45m140.8 182.5v-125.1l-24.4-9.8-2.4-.9V57.6l.4-.3 26.4 12.65v-3" fill="#9c7c3d" fill-rule="evenodd" transform="translate(294.1 239.1)"/><path d="M-282.35-173.4l161.15 62.5v50.8l-6.7-2.65-32.95-13.2-1.05-.4 1.05.4h-1.05v-.4l-8.05-3.2-33.85-13.55-3.15-1.25-7.95-3.2-30.5-12.15-2.85-1.15-30.6-12.2-3.5-1.4v-48.95m31.3 179.5v3.55l-24.55-11.9V-116.9l3.1 1.35V-3.6l21.45 9.7m119.35 60.85v3l-26.4-12.65-.4.3V-68.85l2.4.9v123.7l24.4 11.2m-8.35 3.85q-3.1-1.55-6.25-3.15l-15.65-7.8h.05l34 16.9.6.35-12.75-6.3m-18.05-13.5l2-1.55-2 1.55" fill="#414945" fill-rule="evenodd" transform="translate(294.1 239.1)"/><path d="M-117.1-59l.55 1.2-.4.15h-.15V-59l-.65 1.05-3.45-2.15v-40l4.1 1.95V-59m-131.15-51.85l2.85 1.15 2.8 12.15h27.7l7.95 3.2 3.15 1.25 1.65 13.55h32.2l8.05 3.2h-37.2v133.9l-3.05-3V45.3v9.25l-3-1.5v-132.6l-1.8-14.8h-32.35l-3.3-3.2v10.2-10.2h-3.2 3.2l3.3 3.2V35.7l-3.3-3.35-3.2-2.1v-127.8l-2.45-13.3m5.65 23.5q-.7-.15-1.4.4v10.1h1.4v44.45-44.45h.85v-10.1l-.85-.4m0 110.4v9.3-9.3l1.1-.5V12.5h-2.25v10.25q.5.35 1.15.3m0-44.5V12.5v-33.95q.5-.05 1.05-.45v-10.05q-.55-.45-1.05-.45-.6-.05-1.2.45v10.25q.55.35 1.2.25m40.45-46.65v-11.45l3.05 3.2-3.05-3.2v11.45q-.6 0-1.1.55v10.1h2.3v-10.1q-.65-.55-1.2-.55m0 53.85v-43.2 43.2l-1.1.45v10.25l1.1.3q.55-.05 1.2-.45v-10.1q-.6-.5-1.2-.45m0 49.05V-3.25 34.8h-1.4v10.25l1.4.25q.4-.1.85-.4V34.8h-.85m0-114.35h-3 3" fill="#c27901" fill-rule="evenodd" transform="translate(294.1 239.1)"/><path d="M-278.85-123.05L-279 1.75l-1-.5-2.35-1.2v-124.5l3.5 1.4m150.95 60.3l6.7 2.65V80.1l-6.1-3-.6-.35v-139.5" fill="#612b14" fill-rule="evenodd" transform="translate(294.1 239.1)"/><path d="M-242.6-76.85h-1.4v-10.1q.7-.55 1.4-.4l.85.4v10.1h-.85m0 99.9q-.65.05-1.15-.3V12.5h2.25v10.05l-1.1.5m0-44.5q-.65.1-1.2-.25v-10.25q.6-.5 1.2-.45.5 0 1.05.45v10.05q-.55.4-1.05.45m-1.4-58.8h2.25-2.25m41.85 12.15q.55 0 1.2.55v10.1h-2.3v-10.1q.5-.55 1.1-.55m0 53.85q.6-.05 1.2.45v10.1q-.65.4-1.2.45l-1.1-.3V-13.8l1.1-.45m0 49.05h.85v10.1q-.45.3-.85.4l-1.4-.25V34.8h1.4M-244-83.75h2.25-2.25m43.05 22.85h-2.3 2.3m0-3.5h-2.3 2.3m-42.85 35.6h2.25-2.25m0 3.5h2.25-2.25m42.85 18.15h-2.3 2.3m0-3.45h-2.3 2.3m-42.8 29.75h2.25-2.25m0-3.5h2.25-2.25m40.2 22.3h2.25-2.25m2.25 3.5h-2.25 2.25" fill="#162e18" fill-rule="evenodd" transform="translate(294.1 239.1)"/><path d="M-192.5-62.65v-8.5h24.5v24.35l-24.5-15.85" fill="#020c0d" fill-rule="evenodd" transform="translate(294.1 239.1)"/><path d="M-248.25 17.05v-127.9l2.45 13.3v127.8l-2.45-13.2m49.15 40.5v-133.9h37.2v136.2h-.05l-18.05-1.1-19.1-1.2M-168-46.8v-24.35h-24.5v122.3l24.5 1.9V-46.8m-38.95-47.55l1.8 14.8v132.6l-.75-6.6-1.05-8.95V-94.35 37.5h-.05l-20.2-1.15-12.1-.65V-94.35h32.35m-5 85.6V-89.3h-21.75V31.05l21.75 1.4v-41.2" fill="#fdba4d" fill-rule="evenodd" transform="translate(294.1 239.1)"/><path d="M-192.5-62.65L-168-46.8v14.7l-24.5-17.8v-12.75" fill="url(#gradient0)" fill-rule="evenodd" transform="translate(294.1 239.1)"/><path d="M-245.4-109.7l30.5 12.15h-27.7l-2.8-12.15m41.6 16.6l33.85 13.55h-32.2l-1.65-13.55" fill="#121518" fill-rule="evenodd" transform="translate(294.1 239.1)"/><path d="M-233.7-23.9v-65.4h21.75v80.55L-233.7-23.9" fill="url(#gradient1)" fill-rule="evenodd" transform="translate(294.1 239.1)"/><path d="M-116.35-128.05l-111-43.4 109-44.4 106.95 43.4-104.95 44.4" fill="#574e13" fill-rule="evenodd" transform="translate(294.1 239.1)"/><path d="M-33.65 36.6l1.05-.5v.25l-9 4.5-13.85 6.85-1.15.5-.25-.1 14.9-7.4-11.3-5.15 7.3-3.6-7.3 3.6 11.3 5.15-14.9 7.4.25.1-13.35 6.65v-.25l.25-.1v-8.25l7.35-.55.05-.05 1.65-6.45-9.05.75V32.7l4.75-2.35 11.7 5.2-7.4 3.65 7.4-3.65-11.7-5.2-4.75 2.35v-11l.45-.25 13.55-1.05 4.2 1.85v6.05l.1.05v1.8h3.8l1.95.85-.3.95 1.95-.15 10.35 4.8-8.3 4.1.3.1.05.05-.05-.05-.3-.1 8.3-4.1m-173.3.9l1.05 8.95-21.3-10.1 20.2 1.15h.05M-51.5 23.7l-13.45 6.65-4.75-2.15 4.75 2.15 13.45-6.65m-10.85 22l5.5 2.4-12.85 6.4 12.85-6.4-5.5-2.4" fill="#b1b1b1" fill-rule="evenodd" transform="translate(294.1 239.1)"/><path d="M-279 1.75l30.75 15.3 2.45 13.2-48.3-24.65 11.75-5.5V.05l2.35 1.2.75.4.25.1" fill="#2d2d2d" fill-opacity=".2" fill-rule="evenodd" transform="translate(294.1 239.1)"/><path d="M40.1-179.55v10.2l4.6 1.55v37.3l-4.6 2.1v.35l42.5 47.4M28.45-174.6l-.1.05m11.75-5l-11.65 4.95m11.65-4.95l-161.05-59.05-161.4 65.2 161.15 62.5 149.55-63.65M44.7-130.5l-11.65-5.05L-108.9-73.1l-8.2 14.1v-39.15l-4.1-1.95 161.3-69.25M-116.55-57.8L40.1-128.4m-7.05-7.15v-23.15L-108.9-97.25v24.15m141.95-85.6l11.65-9.1-161.8 69.65 8.2.9m140.15 54.7V-8.3l-2.8 1.35-2.2 10.2-25.85 13h-18.35l-.05.05-4 2v-35m-11.65 5.6v47.7l1.05-.5 5.9-2.85 56.6-28.2 10.2-5.1V-46.8m-13.85 6.7v34.25l2.2-1.1V-41.2m-6.9 3.35l-.4.2v11.45h.3m.1-11.65L23-38.5M3.4-29.05v24M21.2-3.3l-.05-18.75m0-4.15v4.15M21.2 3l.9-.45.9-.45v-40.6m0 40.6L26.25.55v-6.4m0 6.4v2.7m-4.15-.7l.9-.4V2.1M12.3 7.3l5.5-2.7.15-.05.45-.2M12.3 7.3l-8.9 4.4-3 1.45v3.1m3-10.65v6.1m0-6.1V-5.05M21.2 3l-2.8 1.35m2.8-7.65V3M.4-27.6v40.75H-18v3.1h.05m46.4-23.2l-2.2 7.5m-274.5-111.4l-30.6-12.2-.15 124.8 30.75 15.3v-127.9l2.85 1.15 30.5 12.15 7.95 3.2 3.15 1.25 33.85 13.55 8.05 3.2 1.05.4 32.95 13.2 6.7 2.65v-50.8m-157.65-12.15l-3.5-1.4V.05l2.35 1.2 1 .5m27.95 4.35v3.55l-24.55-11.9V-116.9l3.1 1.35 21.45 8.45V6.1l-21.45-9.7m0-.2v-111.75m-9.85-57.85v48.95m39.75 47.6h-1.4v-10.1q.7-.55 1.4-.4v-10.2h-3.2v127.8l3.2 2.1v-9.3q-.65.05-1.15-.3V12.5h1.15v-33.95q-.65.1-1.2-.25v-10.25q.6-.5 1.2-.45v-44.45h.85v-3.4H-244m44.9 3.9l-3.05-3.2v11.45q.55 0 1.2.55v10.1h-1.2v43.2q.6-.05 1.2.45v10.1q-.65.4-1.2.45V34.8h.85v10.1q-.45.3-.85.4v9.25l3.05 3v-133.9h37.2v.4M-168-46.8v-24.35h-24.5v8.5M-168-46.8v99.85l-24.5-1.9v-113.8m-11.3-30.45l1.65 13.55h32.2m-37-14.8l1.8 14.8h3m-40.45-18l3.3 3.2h32.35V37.5l1.05 8.95.75 6.6v-132.6m-36.6-4.2v-3.2l-.85-.4m.85 7.1v-3.5H-244m40.75 19.35v3.5h2.3m-1.2 3.45h-1.1v-3.45m1.1-7.2q-.6 0-1.1.55v3.15h2.3m-44.45-45.3l2.8 12.15h27.7m-18.8 73.65v-65.4h21.75V32.45l-21.75-1.4V-23.9l21.75 15.15m-29.6-20.05v-3.15q-.55-.45-1.05-.45m1.05 7.1v-3.5h-2.25m1.2 7.35q.5-.05 1.05-.45v-3.4h-2.25m40.55 14.7v3.45h2.3m-1.2 3.9l-1.1-.3v-3.6m1.1-7.1l-1.1.45v3.2h2.3m-47.3-100.25l2.45 13.3m128.7 40l.15-.1-.15.1V-59m-.65 1.05l.65.4-4.1 2.15 161.3-72.65M-116.55-57.8l-.4.15m-4.25-2.45l3.45 2.15M-121-55l2.15 4.4L-91.8 4.25m-29.4-59.05v4.7q.45.65 1.05.65.5 0 .95-.55l.2-.3.15-.3m-2.35-4.8v.6l.2-.2-.2-.4v-4.7m-34.9-7.85l24.4 9.8v128.1l-26.4-12.65-.4.3V-68.85l2.4.9v123.7l24.4 11.2M-1.2-26.8l1.6-.8m-116.75-100.45l-111-43.4 109-44.4 106.95 43.4-104.95 44.4M-1.2 13.15V-26.8m-31.4 63.15l-9 4.5-13.85 6.85m-84.6 23.1q-3.1-1.55-6.25-3.15m-15.65-7.8l-18.05-1.1-19.1-1.2m147.6-49.4V1.7l-6.85 3.35 6.85 3.1V28.3l.1.05 3.8 1.8 1.95.85 1.65.8 10.35 4.8-8.3 4.1.3.1.05.05M-54 13.95l-1.7 6.45 4.2 1.85m0-9.55l-2.5 1.25L-67.6 15l-1.65 6.45 13.55-1.05m-13.55 1.05l-.45.25v6.5l4.75 2.15 13.45-6.65m-18.2-13.05v3.4l2.1.95m-2.1-.95v7.65m0-15.3v4.25l11.35-5.6-4.45-2m-6.9 29.65v7.25l9.05-.75 7.4-3.65-11.7-5.2-4.75 2.35v-4.5m0 18.05l7.35-.55.05-.05 1.65-6.45m-9.05.75V54.5l12.85-6.4-5.5-2.4m16.4-13.75l.3-.95m1.65.8l-1.95.15-7.3 3.6 11.3 5.15-14.9 7.4.25.1 1.15-.5m-14.25 6.8l-.25.1m0 .25l13.35-6.65m-99.5 7.55l-2 1.55m-3.85 2.55h.05v-135.8m34 152.7l.6.35 6.1 3V-50.1m-18.85 120.9l12.75 6.3m-34.6-17.25l34 16.9v-139.5m10.55 140.95l-3.85 1.9m12.8-6.35l-8.2 4.05.1.05 8.25-4.1m-.15 0l38.45-19.15m-46.65 23.2l-.75.4m0 .05l.85-.4m-125-62.2V12.5h-1.1m0 10.55l1.1-.5v-3.4h-2.25m2.25 0v-3.5h-2.25m4.45 20.05l-3.3-3.35m15.4 4l-12.1-.65V-94.35m37.15 139.65l-1.4-.25V34.8h1.4m-4.8 2.7h-.05l-20.2-1.15m22.05 16.7l3 1.5m-1.4-13.1h2.25m0-3.5h-2.25M-282.35.1V.05m36.55 30.2l-2.45-13.2M-18 13.15v-31.8M-51.5 1.7v-4.15" fill="none" stroke="#000" stroke-linecap="round" stroke-linejoin="round" transform="translate(294.1 239.1)"/><path d="M306.95 240l8.3-4.15m-8.3 4.15h-.05m-6.25 3.1l-3.15 1.6m-5.2 2.5l-13.05 4.7" fill="none" stroke="#000" stroke-linecap="round" stroke-linejoin="round" stroke-width=".05"/><path d="M-282.35-162.15l161.15 62v40.05l-161.15-64.4v-37.65" fill="#784b01" fill-rule="evenodd" transform="translate(294.1 239.1)"/><path d="M-282.35-162.15l161.15 62v40.05l-161.15-64.4v-37.65z" fill="none" stroke="#000" stroke-linecap="round" stroke-linejoin="round" transform="translate(294.1 239.1)"/></g><g id="shape1"><path d="M3.6-138.9l6-2.5 2.75-5.9 1.35 3.2.1.25q.45.95 1.05 1.4.05.1.2.15l.25.25.85.7q.65.3 1.3.95l.15.3.3 1.55-.45 3.3-.35 1-1.05 2.05-2 2.15-1 .75-.95.75-.6.35-4.35 2.55-1.15.6q-2 .95-3.75 1.3l-1.4.2h-.2l.5-1.95-1.4-.1-.55 1.95-.95-.6-.2-.15-.55-.2q-.85-.85-1.05-2.2-.6-4.25 2.2-9.6l2.75-7.2 1.7 4.25.4.35.1.1m10.45-2.85l-.2.25-.05.15-.1.35q.2.6.9.4.35-1.55-.55-1.15l.8-.7-.8.7M7.7-128.4l.25-.6.05-.05-.05.05-.25.6m-5.9 1.5l-.65 1.4.65-1.4m2.2-5.15l.2-1.3-.2 1.3m1.1-.3l.65-1.6-.65 1.6m3.05-1.5l.55-.1-.55.1M5.1-136.6q0-.95-.65-1l-.25.1q-.95.5-.8 1.8l.2.15.8-.1.75-.75-.05-.2.05.2-.75.75-.8.1-.2-.15q-.15-1.3.8-1.8l.25-.1q.65.05.65 1m11.85-1.3q-.55-.15-1.05-.55.5.4 1.05.55m-1.85.85l-.2-.45-.1-.7.1.7.2.45m-7.1 8q.55-.5 1.25-.85 1.45-.8 2.65-.85h.1l-.1-.2-.25-.45-.3-.7-.15-.2q-.6-.9-.25-2.45-1.2.55-2.25.8l-.55 4.4-.15.5m4.75-1.55l-.5-.15H12h.25l.5.15m-1.8-4.15l.1-.4-.1.4M.1-126.2l-.35.6.35-.6" fill="#fff" fill-rule="evenodd" transform="translate(4.15 147.8)"/><path d="M8-129.05l.15-.5.55-4.4q1.05-.25 2.25-.8-.35 1.55.25 2.45l.15.2.3.7.25.45.1.2h-.1q-1.2.05-2.65.85-.7.35-1.25.85" fill="red" fill-rule="evenodd" transform="translate(4.15 147.8)"/><path d="M3.6-138.9l6-2.5 2.75-5.9 1.35 3.2.1.25q.45.95 1.05 1.4.05.1.2.15l.25.25.85.7q.65.3 1.3.95l.15.3.3 1.55-.45 3.3-.35 1-1.05 2.05-2 2.15-1 .75-.95.75-.6.35-4.35 2.55-1.15.6q-2 .95-3.75 1.3l-1.4.2h-.2l-.55.05-.9-.15-.95-.6-.2-.15-.55-.2q-.85-.85-1.05-2.2-.6-4.25 2.2-9.6l2.75-7.2 1.7 4.25.4.35m10.55-2.75q.9-.4.55 1.15-.7.2-.9-.4l.1-.35.05-.15.2-.25.8-.7m-.05 4.25l.1.7.2.45m.8-1.4q.5.4 1.05.55M5.1-136.6l.05.2-.75.75-.8.1-.2-.15q-.15-1.3.8-1.8l.25-.1q.65.05.65 1m3.6 2.65l-.55.1m-2.4-.1l-.65 1.6m-.9-1l-.2 1.3m-2.85 6.55l.65-1.4m6.2-2.15l-.05.05-.25.6m.3-.65q.55-.5 1.25-.85 1.45-.8 2.65-.85h.1l-.1-.2-.25-.45-.3-.7-.15-.2q-.6-.9-.25-2.45-1.2.55-2.25.8l-.55 4.4-.15.5m3.05-6.1l-.1.4m1.05 4h.25l.5.15m-13 5l-.55 1.95m.55-1.95l.35-.6" fill="none" stroke="#000" stroke-linecap="round" stroke-linejoin="round" transform="translate(4.15 147.8)"/></g><g transform="translate(0 -9.45)" fill="#d6c23f" id="text4"><use height="43.7" transform="translate(0 52) scale(.0596)" width="46.25" xlink:href="#font_MS_UI_Gothic_f0"/><use height="43.7" transform="translate(18.6 52) scale(.0596)" width="46.25" xlink:href="#font_MS_UI_Gothic_e0"/></g><g transform="translate(-.55 -1.05)" id="text5"><use height="11.85" transform="translate(0 10) scale(.0117)" width="81.3" xlink:href="#font_MS_PGothic_c0"/><use height="11.85" transform="translate(8 10) scale(.0117)" width="81.3" xlink:href="#font_MS_PGothic_a0"/><use height="11.85" transform="translate(15.7 10) scale(.0117)" width="81.3" xlink:href="#font_MS_PGothic_f0"/><use height="11.85" transform="translate(21.35 10) scale(.0117)" width="81.3" xlink:href="#font_MS_PGothic_e0"/><use height="11.85" transform="translate(35 10) scale(.0117)" width="81.3" xlink:href="#font_MS_PGothic_d0"/><use height="11.85" transform="translate(42.95 10) scale(.0117)" width="81.3" xlink:href="#font_MS_PGothic_e0"/><use height="11.85" transform="translate(56.6 10) scale(.0117)" width="81.3" xlink:href="#font_MS_PGothic_g0"/><use height="11.85" transform="translate(64.15 10) scale(.0117)" width="81.3" xlink:href="#font_MS_PGothic_i0"/><use height="11.85" transform="translate(68.7 10) scale(.0117)" width="81.3" xlink:href="#font_MS_PGothic_k0"/><use height="11.85" transform="translate(76.25 10) scale(.0117)" width="81.3" xlink:href="#font_MS_PGothic_o0"/></g><g id="shape2"><path d="M9.55-190.85l30.4 11.35-28.55 12.15-28.8-11.1 26.95-12.4M-97.3-121.1l-23.9 10.2-23.35-9.1 23.4-10.75.5-.25 23.35 9.9m-23.7-98.05l-24.8-9.75 24.35-9.95 26.25 9.65-24.8 10.45-1-.4m10.45 305.65l.4-.3.5.1q.25.1.35.35l-.15.55-.4.25-.5-.05-.3-.4.1-.5m4.4.75l.15.05.25.4-.05.45-.45.35h-.3l-.2-.1-.3-.4.1-.45.4-.35.4.05" fill-rule="evenodd" transform="translate(282.85 239.35)"/><path d="M9.55-190.85l-26.95 12.4 28.8 11.1L-12.85-157l-24.2 10.3-29.55 12.55-30.7 13.05-23.35-9.9 28.4-13.05 27.6-12.65 24.45-11.25 18.8-8.65.8.35 3.15-2.2h.05-.05l-26.9-10.6h-.05L-69.8-199l-24.85-9.8h-.05l-25.3-9.95 24.8-10.45 25.55 9.35 26.05 9.55-26.2 11.3 26.2-11.3 25.55 9.35 27.6 10.1M-144.55-120l-28.05-10.85-52.5-20.35-29.05-11.3 28.65-12 2-.05 1.75.8 24.4 10.3 22.8 9.65 27.2 11.5 26.2 11.1v.45l-23.4 10.75m23.55-99.15v.8l-22.1 9.3-25.95-10.4 25.95 10.4-27.85 11.65-28.55 12-24.25 10.2-.7.25-26.45-11.2 24.1-9.8 27.3 10.55-27.3-10.55 28.3-11.55 29.45-11.95 23.25-9.45 24.8 9.75m26.35 10.35l25-11.05-25 11.05m-76.3 11.4l-27.55-10.1 27.55 10.1m-27.45 55.25l23.85-11.65-23.85 11.65m1.05-21.3l-27.75 12.25 27.75-12.25m184.5 6.45l-27.35-10.95L-12.85-157m-51.8.3l27.6 10-27.6-10m-27.6 12.65l25.65 9.9-25.65-9.9m-55.1 1.75l-25.25 11.45 25.25-11.45m129.3-58.65l-26.3 11.9 26.3-11.9" fill="#f0e9b9" fill-rule="evenodd" transform="translate(282.85 239.35)"/><path d="M-143.1-209.05l22.1-9.3 1-.4 25.3 9.95-.4 1.05.45-1.05 24.85 9.8 25.4 9.95-.4 1.05.45-1.05 26.9 10.6h.05-.05l-3.95 1.85-96.95-39.3-103.4 42.15-1.75-.8-.25-.65 24.25-10.2 28.55-12 27.85-11.65M-69.8-199l-.5 1.2.5-1.2m4.85 269.55l-2.2.65 2.1-1.05.1.4m6.05 12.5l-2.05 1.05-.1-.4 2.15-.65" fill="#c0ad29" fill-rule="evenodd" transform="translate(282.85 239.35)"/><path d="M-67.15 71.2l2.2-.65 3.9 13.15-.1.35-2.75-.75-3.25-12.1m-24.8 28.85l-3-2.25-5.7-24.05-.05-.1-.3-1.35-8.8-36.7 10.4 37.65.05.15 7.4 26.65" fill="#414945" fill-rule="evenodd" transform="translate(282.85 239.35)"/><path d="M-61.15 84.05l.1-.35-3.9-13.15-.1-.4-2.1 1.05-25 12.6 3.55 14.5-3.35 1.75-7.4-26.65-.05-.15-10.4-37.65 33.05-14.85 17.85 62.3-2.15.65.1.4-.2-.05m-3.9-13.9l-1.05-3.45 1.05 3.45M-93 80.35l26.9-13.65-12.5-42.1-27.85 12L-93 80.35l.85 3.45-.85-3.45" fill="#9c7c3d" fill-rule="evenodd" transform="translate(282.85 239.35)"/><path d="M-93 80.35l-13.45-43.75 27.85-12 12.5 42.1L-93 80.35" fill="#173d42" fill-rule="evenodd" transform="translate(282.85 239.35)"/><path d="M-109.55 72.25l6.95-5.55 2 10.1-.55-.4-.8-.05-1.5 1.15-1.95 6.7-.4-.1-4.35-1.2 4.35 1.2.35.95-.7 2.2-.4-.05-.4.35-.1.45.3.4.2.1-1.35 4.6.4.8q-1.05 1.95-2.5 3.35-1.45 1.45-3.35 2.35l-1.5-2-1.6-2.05q1.5-.7 2.65-1.7l1.2-1.45.1-.1-.05-.15-.35-.75 2.75-8.5-.55-.15 2.45-7.05.6-1.65-1.3-1.1-.6-.7m-1 14.25l-.1.5.3.4.5.05.4-.25.15-.55q-.1-.25-.35-.35l-.5-.1-.4.3m.4 6.7q-.8 1.65-2.5 3l-2.2 1.4 2.2-1.4q1.7-1.35 2.5-3" fill="#fcb6c4" fill-rule="evenodd" transform="translate(282.85 239.35)"/><path d="M9.55-190.85l1-.5m.85 24l28.55-12.15-30.4-11.35-26.95 12.4 28.8 11.1L-12.85-157l-24.2 10.3-29.55 12.55-30.7 13.05-23.9 10.2-23.35-9.1-28.05-10.85-52.5-20.35-29.05-11.3-28.2-10.95m161.35-44.9v-.8l-24.8-9.75-23.25 9.45 25.95 10.4 22.1-9.3 1-.4-1-.4m26.35 10.35h-.05l-25.3-9.95 24.8-10.45-26.25-9.65-24.35 9.95m102.2 18.6l-26.05-9.55-25 11.05 24.85 9.8 26.2-11.3 25.55 9.35 27.6 10.1m-79.2-29l-25.55-9.35m-73.85 9.75l-29.45 11.95 27.55 10.1 27.85-11.65m-78.65 35.3l24.4 10.3 22.8 9.65 27.2 11.5 26.2 11.1.5.2 28.4-13.05 27.6-12.65 24.45-11.25 18.8-8.65-96.95-39.3-103.4 42.15-1.75-.8-2 .05-28.65 12m54.65-22.9l28.55-12m-54.55 22.9l1.05-.45-26.45-11.2-30.35 12.35m56.8-1.15l.95.4m-.25-.65l-.7.25m-.65 23.75l27.75-12.25m22.8 9.65l-23.85 11.65m-25.35-33.05l24.25-10.2-27.3-10.55-24.1 9.8m233.5 7.7h-.05.05-.05l-26.9-10.6h-.05L-69.8-199m48.4 22.4l3.95-1.85m-22.75 10.5L-12.85-157m-24.2 10.3l-27.6-10m-56.5 25.95l.5-.25 23.35 9.9m-23.85-10.1v.45l-23.4 10.75m77.95-14.15l-25.65-9.9M-198.5-207.5l-28.3 11.55m182.45 6.9l26.3-11.9m-154.55 70.1l25.25-11.45m80.2 213.5l3.25 12.1 2.75.75m.1-.35l-3.9-13.15-.1-.4-2.1 1.05-25 12.6 3.55 14.5-3.35 1.75-3-2.25-5.7-24.05-.05-.1-.3-1.35-8.8-36.7 33.05-14.85 17.85 62.3-2.05 1.05-.2-.05M-66.1 66.7l1.05 3.45m4.1 13.95l-.1-.4M-93 80.35l-13.45-43.75 27.85-12 12.5 42.1L-93 80.35l.85 3.45m-17.65-48.2l10.4 37.65.05.15 7.4 26.65m-8.65-23.25l-2-10.1-6.95 5.55m1.3 3.45l-2.45 7.05.55.15 4.35 1.2.4.1 1.95-6.7m-9.1 14.65l.05.15-.1.1-1.2 1.45q-1.15 1-2.65 1.7m1.6 2.05l2.2-1.4q1.7-1.35 2.5-3m2.65.7q-1.05 1.95-2.5 3.35-1.45 1.45-3.35 2.35" fill="none" stroke="#000" stroke-linecap="round" stroke-linejoin="round" transform="translate(282.85 239.35)"/></g><g id="text6" fill="#fff"><g transform="translate(-.3 -1.4)"><use height="50.1" transform="translate(0 9) scale(.0078)" width="50.55" xlink:href="#font_Comic_Sans_MS_m0"/><use height="50.1" transform="translate(6.2 9) scale(.0078)" width="50.55" xlink:href="#font_Comic_Sans_MS_e0"/><use height="50.1" transform="translate(10.6 9) scale(.0078)" width="50.55" xlink:href="#font_Comic_Sans_MS_n0"/><use height="50.1" transform="translate(14.8 9) scale(.0078)" width="50.55" xlink:href="#font_Comic_Sans_MS_u0"/></g><g transform="translate(-.3 -1.4)"><use height="50.1" transform="translate(0 22) scale(.0078)" width="50.55" xlink:href="#font_Comic_Sans_MS_B0"/><use height="50.1" transform="translate(5.05 22) scale(.0078)" width="50.55" xlink:href="#font_Comic_Sans_MS_l0"/><use height="50.1" transform="translate(7.25 22) scale(.0078)" width="50.55" xlink:href="#font_Comic_Sans_MS_a0"/><use height="50.1" transform="translate(11.35 22) scale(.0078)" width="50.55" xlink:href="#font_Comic_Sans_MS_c0"/><use height="50.1" transform="translate(15.45 22) scale(.0078)" width="50.55" xlink:href="#font_Comic_Sans_MS_k0"/><use height="50.1" transform="translate(22.15 22) scale(.0078)" width="50.55" xlink:href="#font_Comic_Sans_MS_c0"/><use height="50.1" transform="translate(26.25 22) scale(.0078)" width="50.55" xlink:href="#font_Comic_Sans_MS_o0"/><use height="50.1" transform="translate(30.45 22) scale(.0078)" width="50.55" xlink:href="#font_Comic_Sans_MS_f0"/><use height="50.1" transform="translate(34.5 22) scale(.0078)" width="50.55" xlink:href="#font_Comic_Sans_MS_f0"/><use height="50.1" transform="translate(38.55 22) scale(.0078)" width="50.55" xlink:href="#font_Comic_Sans_MS_e0"/><use height="50.1" transform="translate(42.95 22) scale(.0078)" width="50.55" xlink:href="#font_Comic_Sans_MS_e0"/></g><g transform="translate(-.3 -1.4)"><use height="50.1" transform="translate(0 35) scale(.0078)" width="50.55" xlink:href="#font_Comic_Sans_MS_I0"/><use height="50.1" transform="translate(4.35 35) scale(.0078)" width="50.55" xlink:href="#font_Comic_Sans_MS_K0"/><use height="50.1" transform="translate(9.25 35) scale(.0078)" width="50.55" xlink:href="#font_Comic_Sans_MS_A0"/><use height="50.1" transform="translate(17.5 35) scale(.0078)" width="50.55" xlink:href="#font_Comic_Sans_MS_c0"/><use height="50.1" transform="translate(21.6 35) scale(.0078)" width="50.55" xlink:href="#font_Comic_Sans_MS_o0"/><use height="50.1" transform="translate(25.8 35) scale(.0078)" width="50.55" xlink:href="#font_Comic_Sans_MS_f0"/><use height="50.1" transform="translate(29.85 35) scale(.0078)" width="50.55" xlink:href="#font_Comic_Sans_MS_f0"/><use height="50.1" transform="translate(33.9 35) scale(.0078)" width="50.55" xlink:href="#font_Comic_Sans_MS_e0"/><use height="50.1" transform="translate(38.3 35) scale(.0078)" width="50.55" xlink:href="#font_Comic_Sans_MS_e0"/></g><g transform="translate(-.3 -1.4)"><use height="50.1" transform="translate(0 48) scale(.0078)" width="50.55" xlink:href="#font_Comic_Sans_MS_E0"/><use height="50.1" transform="translate(5 48) scale(.0078)" width="50.55" xlink:href="#font_Comic_Sans_MS_s0"/><use height="50.1" transform="translate(8.9 48) scale(.0078)" width="50.55" xlink:href="#font_Comic_Sans_MS_p0"/><use height="50.1" transform="translate(13.2 48) scale(.0078)" width="50.55" xlink:href="#font_Comic_Sans_MS_r0"/><use height="50.1" transform="translate(17.05 48) scale(.0078)" width="50.55" xlink:href="#font_Comic_Sans_MS_e0"/><use height="50.1" transform="translate(21.45 48) scale(.0078)" width="50.55" xlink:href="#font_Comic_Sans_MS_s0"/><use height="50.1" transform="translate(25.35 48) scale(.0078)" width="50.55" xlink:href="#font_Comic_Sans_MS_s0"/><use height="50.1" transform="translate(29.25 48) scale(.0078)" width="50.55" xlink:href="#font_Comic_Sans_MS_o0"/></g></g><linearGradient gradientTransform="matrix(-.0042 .0119 .0191 .0068 -180.3 -47.35)" gradientUnits="userSpaceOnUse" id="gradient0" spreadMethod="pad" x1="-819.2" x2="819.2"><stop offset="0" stop-color="#b1b1b1"/><stop offset="1" stop-color="#fff"/></linearGradient><linearGradient gradientTransform="matrix(0 .0492 .0133 0 -222.85 -49.05)" gradientUnits="userSpaceOnUse" id="gradient1" spreadMethod="pad" x1="-819.2" x2="819.2"><stop offset="0" stop-color="#b1b1b1"/><stop offset="1" stop-color="#fff"/></linearGradient></defs></svg>