<svg xmlns="http://www.w3.org/2000/svg" xmlns:xlink="http://www.w3.org/1999/xlink" height="43" width="95"><g transform="translate(42.54 21.406)"><use height="26.9" transform="matrix(.769 -.1053 .3709 .7326 11.934 .393)" width="46.85" xlink:href="#a"/><use height="26.9" transform="matrix(-.7765 0 0 .7765 -6.16 -2.148)" width="46.85" xlink:href="#a"/><use height="26.9" transform="matrix(.8782 .269 -.5896 .5006 -3.266 1.81)" width="46.85" xlink:href="#a"/><use height="26.9" transform="matrix(-.5714 .0475 .5936 -.74 -12.65 -.95)" width="46.85" xlink:href="#a"/><use height="26.9" transform="matrix(.6461 -.0128 -.8385 -.9142 17.756 2.575)" width="46.85" xlink:href="#a"/></g><defs><use height="23.2" transform="translate(3.15 2.75)" width="43.7" xlink:href="#b" id="a"/><g id="b"><path d="M43.85 11.05q-.2.95-.75 1.7t-.8 1.6q-.3.85-1.05 1.35l-.25.9-.7.45q-.25 1.1-1.6 1.2l-.75.2-.7.3q-.45 1.3-2 1.7l-1.2.35-1 .25q-1.75 1.55-4 1.9L28 23.6l-.35.05q-.7.7-1.1.2l-1.25-.05-.45-.05q-3.2.15-5.4-1.65-.3-.25-.1-.65.5-1.2 1.9-1.2l6.5-.6 6.35-3.3.95-.8q1.75-2.1 3.65-3.9l.05-.5Q38 8.05 40 5.9l.45-.25q3.15.45 3.15 3.65.4.75.25 1.75m6.7-.85q2.25 1.05 2.2 2.75l.65.4.75.85q.4.85-.4 1.45-.65.45-1.4.7-1.85.7-3.1 2.15-1.85 2.1-4.45 3.25l-.6.3-4.45 2.65-1.75 1q-1.15.35-2.15 1.1-.65.5-1.4.65-.7.8-2.45.55l-2.15-.6q-.6-.3-.6-.95-1.25-2.05 1.35-2.3l3-.75.8-.5q2.15-1.8 4.65-3.05l.6-.35q3.7-2.3 6.9-5.05l.4-.6q.7-2.15 1.65-4.05.2-.35.6-.4.85 0 1.25.7l.1.1M44 20.3l.7-.3.45-.3q-.65.15-1.15.6m3.8 3.25q-.5.3-.65-.25-.1-.5.3-.85 2.6-2.25 5.65-3.9 1.05-.55 1.65-1.6l1-1.2q.7-.65 1.5-1 1.2.1 1.1 1.4-.1.8-.9.6l-1.4 1.55-.6.6-6.3 3.85-1.35.8M33.35 8.8Q33 8 33.8 7.7l.1-.05q1.05.6.8 1.95v.35q-.1 2.55-2.3 4.1l-6.25 4q-1.95 1.15-4.2.65-3.35.55-5.05-1.85-.2-.25-.1-.6.25-.95 1.2-1 2 1.25 4.5 1.25l.6.45.1.55q1.8 0 3.35-1.2.4-.3.9-.55 3.55-1.55 5.65-4.6l.3-.7.05-.3-.15-1.05.05-.3" fill="#fff" fill-opacity=".051" fill-rule="evenodd" transform="translate(-16.75 -5.65)"/><path d="m50.35 21.25 3.3-2 2.65-2.4L57.95 15q.1-.15.3-.2.6 0 .9.5l.05.05q1.3-.3 1.25.9l-.3.65q-1.05 1-2.45 1.4-1.35 1.35-3.1 2.1l-.4-.1q-1.95 1.5-4.15 2.45l-.2-.05q-.55-.9.5-1.45m8-5 .85-.9-.85.9" fill="#a5a7a5" fill-opacity=".153" fill-rule="evenodd" transform="translate(-16.75 -5.65)"/><path d="M43.45 8.6v.65m-15.5 13.4 6.4-2.65" fill="none" stroke="#fafafa" stroke-linecap="round" stroke-linejoin="round" stroke-opacity=".8" transform="translate(-16.75 -5.65)"/><path d="M54.15 14.2q-7.9 6.85-11.7 9.35-3.85 2.5-8.75 4.8M44.05 9.6q-.65 6.2-4.9 9.05-4.2 2.85-11.7 5.4m6.95-12q.65-1.4.65-2.95m-.65 2.95q-1 2.15-3.6 3.9-4.2 2.85-10.2 2.85" fill="none" stroke="#c4c4c4" stroke-linecap="round" stroke-linejoin="round" stroke-opacity=".153" transform="translate(-16.75 -5.65)"/><path d="m46.8 10.95.35-1.45M41.05 8l2.4.6m15.75 6.75-.85.9M55.3 15.2l.45.55m-5.45-3 .7-1.25m-8.45.4-1.3 3.25m11-1.1q-1.75 2.5-4.4 3.75M34.4 10.45v1.6M26.05 22.6h-.65m11.4-3.95 1.95-1.05m-11.8-.8 3.95-1.75M33.6 27h-.55m4.1-1.95 5.4-2.85" fill="none" stroke="#d8d8d8" stroke-linecap="round" stroke-linejoin="round" stroke-opacity=".153" transform="translate(-16.75 -5.65)"/></g></defs></svg>