<?xml version="1.0" encoding="UTF-8" standalone="no"?>
<!DOCTYPE svg PUBLIC "-//W3C//DTD SVG 1.1//EN" "http://www.w3.org/Graphics/SVG/1.1/DTD/svg11.dtd">
<svg width="230" height="150" viewBox="0 0 230 150" version="1.1" xmlns="http://www.w3.org/2000/svg" xmlns:xlink="http://www.w3.org/1999/xlink" xml:space="preserve" xmlns:serif="http://www.serif.com/" style="fill-rule:evenodd;clip-rule:evenodd;stroke-linejoin:round;stroke-miterlimit:2;">
    <g transform="matrix(1,0,0,1,-571.92,-681.673)">
        <path d="M572.433,801.407L629.677,830.028L629.677,798.779L572.433,770.158L572.433,801.407Z" style="fill:rgb(173,128,73);"/>
    </g>
    <g transform="matrix(1,0,0,1,-571.92,-681.673)">
        <path d="M629.677,830.028L801.407,744.163L800.687,710.603L629.677,798.779L629.677,830.028Z" style="fill:rgb(151,109,43);"/>
    </g>
    <g transform="matrix(1,0,0,1,-571.92,-681.673)">
        <path d="M800.687,710.603L629.677,798.779L572.433,770.158L746.115,683.317L801.407,710.963L629.677,798.779" style="fill:rgb(177,137,74);"/>
    </g>
    <g transform="matrix(1,0,0,1,-571.92,-681.673)">
        <path d="M608.417,819.399C607.336,809.845 609.711,800.154 612.788,790.434C633.475,787.418 643.613,787.617 646.877,789.911C656.223,797.527 664.399,805.302 660.227,814.754L629.677,830.028L608.417,819.399ZM601.782,816.081L603.12,816.75C603.12,816.75 605.994,789.548 609.994,789.03C620.612,787.655 634.593,782.659 650.79,787.646C662.604,790.743 668.805,798.255 669.435,810.149L670.665,809.534C670.829,785.651 639.262,778.434 608.47,788.265C599.901,791.001 601.782,816.081 601.782,816.081ZM598.428,814.404L599.72,815.05C599.72,815.05 594.008,787.949 603.535,785.785C626.018,780.676 643.74,779.304 656.121,782.123C669.48,785.165 676.622,793.085 676.823,806.455L678.859,805.437C680.088,778.394 653.248,772.752 602.555,785.293C593.301,787.582 598.428,814.404 598.428,814.404ZM594.313,812.347L596.238,813.309C596.238,813.309 590.781,785.962 599.041,783.527C628.917,774.721 650.829,772.182 664.842,775.855C678.167,779.348 684.352,788.457 683.457,803.139L684.413,802.66C688.069,770.157 658.928,764.014 598.32,783.164C590.248,785.715 594.313,812.347 594.313,812.347ZM590.893,810.637L592.544,811.462C592.544,811.462 586.439,782.434 592.998,780.491C627.388,770.304 653.578,766.553 670.174,770.332C685.083,773.727 692.249,783.197 690.664,799.535L692.398,798.668C697.912,762.953 662.15,758.702 592.535,780.258C586.12,782.244 590.893,810.637 590.893,810.637ZM697.129,796.302L697.883,795.925C705.742,754.636 668.673,749.334 588.756,778.359C584.672,779.843 588.084,809.232 588.084,809.232L588.398,809.389C588.398,809.389 586.182,779.689 589.277,778.621C631.299,764.109 660.792,759.077 678.423,763.694C693.489,767.638 699.697,778.528 697.129,796.302ZM585.094,807.737L586.84,808.61C586.84,808.61 581.049,777.302 584.407,776.174C630.649,760.637 663.499,753.349 683.941,757.997C700.672,761.802 707.942,773.008 704.412,792.661L705.922,791.906C716.447,747.07 673.094,745.125 584.029,775.984C580.738,777.125 585.094,807.737 585.094,807.737ZM580.134,774.008L579.795,773.839C579.455,784.486 580.236,795.191 581.898,806.139L583.253,806.817C581.007,795.632 579.275,784.492 580.134,774.008ZM576.099,772L576.446,772.174C575.999,783.151 577.473,794.127 579.428,804.904L578.179,804.28C576.817,793.405 576.26,782.774 576.099,772ZM573.835,770.862L574.059,770.974C574.045,781.538 574.885,792.356 575.679,803.03L574.816,802.598C574.44,792.076 574.211,781.584 573.835,770.862ZM710.668,789.533L711.161,789.286C723.986,740.726 682.927,735.329 590.706,770.918C639.558,752.877 673.586,746.46 692.962,751.534C709.497,755.863 715.363,768.558 710.668,789.533ZM717.739,785.997L718.906,785.414C735.386,732.528 684.79,730.619 581.898,768.458C635.869,749.096 675.838,740.689 698.48,745.838C716.712,749.983 723.71,762.918 717.739,785.997ZM724.771,782.481L725.192,782.271C746.536,729.852 701.791,723.48 594.365,760.777C650.051,742.246 688.325,735.606 709.389,740.718C728.214,745.286 733.294,759.241 724.771,782.481ZM615.425,748.662L614.163,749.293C660.724,735.894 695.42,730.581 715.986,734.897C736.58,739.219 743.004,753.196 732.986,778.374L734.182,777.776C757.477,726.378 713.331,719.7 615.425,748.662ZM625.554,743.597L624.442,744.153C673.162,728.832 707.14,723.577 726.531,728.283C746.622,733.159 751.056,748.726 740.01,774.862L740.191,774.771C765.217,720.322 725.92,710.689 625.554,743.597ZM650.344,731.203L648.439,732.155C686.441,722.266 715.171,718.694 733.127,722.462C755.025,727.058 760.902,742.569 748.029,770.852L748.87,770.432C775.667,717.809 738.665,707.492 650.344,731.203ZM667.863,722.443L665.006,723.872C700.963,714.324 726.988,711.54 743.165,715.461C764.839,720.714 768.835,738.002 755.36,767.187L755.374,767.18C782.038,713.485 751.98,699.186 667.863,722.443ZM686.88,712.935L684.204,714.272C712.835,708.114 735.037,706.324 749.991,709.458C773.553,714.396 779.121,731.558 763.5,763.117L764.095,762.819C793.048,710.037 763.77,695.747 686.88,712.935ZM718.089,697.33C738.616,693.477 755.117,692.286 767.33,693.924L789.525,705.022C796.141,715.097 792.797,731.75 778.657,755.538L778.458,755.638C797.412,720.665 792.584,701.845 767.722,696.634C755.133,693.996 737.408,694.847 715.034,698.857L718.089,697.33ZM701.91,705.419L698.403,707.173C726.355,700.811 747.171,699.311 760.897,702.637C782.647,707.909 786.595,725.3 772.951,754.669C798.065,704.36 773.666,688.444 701.91,705.419Z" style="fill:url(#_Linear1);"/>
    </g>
    <defs>
        <linearGradient id="_Linear1" x1="0" y1="0" x2="1" y2="-0.419997" gradientUnits="userSpaceOnUse" gradientTransform="matrix(152.807,-124.736,249.472,76.4035,629.677,818.49)"><stop offset="0" style="stop-color:rgb(49,49,49);stop-opacity:0.08"/><stop offset="1" style="stop-color:rgb(99,85,70);stop-opacity:0.28"/></linearGradient>
    </defs>
</svg>
