<svg width="206.267" height="251.428" xml:space="preserve" style="clip-rule:evenodd;fill-rule:evenodd;stroke-linejoin:round;stroke-miterlimit:2" xmlns="http://www.w3.org/2000/svg"><defs><linearGradient id="a" x1="0" y1="0" x2="1" y2="0" gradientUnits="userSpaceOnUse" gradientTransform="rotate(77.464 -21.824 92.442) scale(51.4712)"><stop offset="0" style="stop-color:#c1b073;stop-opacity:1"/><stop offset=".17" style="stop-color:#93a442;stop-opacity:1"/><stop offset=".38" style="stop-color:#6a9915;stop-opacity:1"/><stop offset="1" style="stop-color:#599503;stop-opacity:1"/></linearGradient><linearGradient id="b" x1="0" y1="0" x2="1" y2="0" gradientUnits="userSpaceOnUse" gradientTransform="rotate(77.464 -21.824 92.442) scale(51.4712)"><stop offset="0" style="stop-color:#d2c79e;stop-opacity:1"/><stop offset=".17" style="stop-color:#9db15a;stop-opacity:1"/><stop offset=".38" style="stop-color:#6c9d1c;stop-opacity:1"/><stop offset="1" style="stop-color:#599503;stop-opacity:1"/></linearGradient></defs><g style="clip-rule:evenodd;fill-rule:evenodd;stroke-linejoin:round;stroke-miterlimit:2"><path d="m461.73 729.252 2.143-1.5c.083-8.699 1.862-19.971 2.978-25.801 2.255-11.772 5.524-9.62 15.663-1.411l-8.488-7.037c-7.443-6.377-9.669 11.836-12.296 35.749z" style="fill:#7db822" transform="matrix(-1.15771 .32592 .19183 1.41756 541.856 -997.807)"/><path d="M446.732 736.323c-4.16-19.971-10.338-40.838-19.679-39.509-1.529-1.311-4.933-.747-9.89 1.369 20.147-12.475 26.465 14.98 32.783 38.783z" style="fill:#83b634" transform="matrix(-1.15771 .32592 .19183 1.41756 533.6 -997.484)"/><path d="m451.66 736.323 3.214.428c-.907-9.584-1.991-19.041-1.163-27.975a53.24 53.24 0 0 1 .949-6.307c1.987-15.758 9.472-2.548 14.998 7.071-5.499-12.203-10.999-22.946-16.498-13.285-2.807 13.026-2.695 26.47-1.5 40.068z" style="fill:#81b531" transform="matrix(-1.15771 .32592 .19183 1.41756 533.6 -997.484)"/><path d="M443.732 735.68h3.428c-3.909-23.555-8.066-46.038-15.427-54.638 6.545 15.668 9.474 34.95 11.999 54.638z" style="fill:#7eb12f" transform="matrix(-1.15771 .32592 .19183 1.41756 533.6 -997.484)"/><path d="m449.732 732.466 3.428-.643c-2.685-17.587-4.652-34.792 1.285-47.781-5.461 2.976-6.68 20.308-4.713 48.424z" style="fill:#83b634" transform="matrix(-1.15771 .32592 .19183 1.41756 533.6 -997.484)"/><path d="m458.516 732.038-2.785 1.499c-.655-18.141.369-36.282 2.571-54.423-1.128 17.881-1.516 35.614.214 52.924z" style="fill:#80ad3a" transform="matrix(-1.15771 .32592 .19183 1.41756 533.6 -997.484)"/><path d="m461.73 729.252 2.143-1.5c.083-8.699 1.862-19.971 2.978-25.801 2.255-11.772 5.524-9.62 15.663-1.411l-8.488-7.037c-7.443-6.377-9.669 11.836-12.296 35.749z" style="fill:#7db822" transform="matrix(1.19796 0 0 1.27098 -411.255 -732.686)"/><path d="M446.732 736.323c-4.16-19.971-10.338-40.838-19.679-39.509-1.529-1.311-4.933-.747-9.89 1.369 20.147-12.475 26.465 14.98 32.783 38.783z" style="fill:#83b634" transform="matrix(1.19796 0 0 1.27098 -402.983 -734.415)"/><path d="m451.66 736.323 3.214.428c-.907-9.584-1.991-19.041-1.163-27.975a53.24 53.24 0 0 1 .949-6.307c1.987-15.758 9.472-2.548 14.998 7.071-5.499-12.203-10.999-22.946-16.498-13.285-2.807 13.026-2.695 26.47-1.5 40.068z" style="fill:#81b531" transform="matrix(1.19796 0 0 1.27098 -402.983 -734.415)"/><path d="M443.732 735.68h3.428c-3.909-23.555-8.066-46.038-15.427-54.638 6.545 15.668 9.474 34.95 11.999 54.638z" style="fill:#7eb12f" transform="matrix(1.19796 0 0 1.27098 -402.983 -734.415)"/><path d="m449.732 732.466 3.428-.643c-2.685-17.587-4.652-34.792 1.285-47.781-5.461 2.976-6.68 20.308-4.713 48.424z" style="fill:#83b634" transform="matrix(1.19796 0 0 1.27098 -402.983 -734.415)"/><path d="m458.516 732.038-2.785 1.499c-.655-18.141.369-36.282 2.571-54.423-1.128 17.881-1.516 35.614.214 52.924z" style="fill:#80ad3a" transform="matrix(1.19796 0 0 1.27098 -402.983 -734.415)"/><path d="m461.73 729.252 2.143-1.5c.083-8.699 1.862-19.971 2.978-25.801 2.255-11.772 5.524-9.62 15.663-1.411l-8.488-7.037c-7.443-6.377-9.669 11.836-12.296 35.749z" style="fill:#7db822" transform="matrix(-1.15771 .3072 .19183 1.33612 560.058 -929.689)"/><path d="M446.732 736.323c-4.16-19.971-10.338-40.838-19.679-39.509-1.529-1.311-4.933-.747-9.89 1.369 20.147-12.475 26.465 14.98 32.783 38.783z" style="fill:#83b634" transform="matrix(-1.15771 .3072 .19183 1.33612 551.803 -929.385)"/><path d="m451.66 736.323 3.214.428c-.907-9.584-1.991-19.041-1.163-27.975a53.24 53.24 0 0 1 .949-6.307c1.987-15.758 9.472-2.548 14.998 7.071-5.499-12.203-10.999-22.946-16.498-13.285-2.807 13.026-2.695 26.47-1.5 40.068z" style="fill:#81b531" transform="matrix(-1.15771 .3072 .19183 1.33612 551.803 -929.385)"/><path d="M443.732 735.68h3.428c-3.909-23.555-8.066-46.038-15.427-54.638 6.545 15.668 9.474 34.95 11.999 54.638z" style="fill:#7eb12f" transform="matrix(-1.15771 .3072 .19183 1.33612 551.803 -929.385)"/><path d="m449.732 732.466 3.428-.643c-2.685-17.587-4.652-34.792 1.285-47.781-5.461 2.976-6.68 20.308-4.713 48.424z" style="fill:#83b634" transform="matrix(-1.15771 .3072 .19183 1.33612 551.803 -929.385)"/><path d="m458.516 732.038-2.785 1.499c-.655-18.141.369-36.282 2.571-54.423-1.128 17.881-1.516 35.614.214 52.924z" style="fill:#80ad3a" transform="matrix(-1.15771 .3072 .19183 1.33612 551.803 -929.385)"/><path d="m461.73 729.252 2.143-1.5c.083-8.699 1.862-19.971 2.978-25.801 2.255-11.772 5.524-9.62 15.663-1.411l-8.488-7.037c-7.443-6.377-9.669 11.836-12.296 35.749z" style="fill:#7db822" transform="translate(-393.053 -679.799) scale(1.19796)"/><path d="M446.732 736.323c-4.16-19.971-10.338-40.838-19.679-39.509-1.529-1.311-4.933-.747-9.89 1.369 20.147-12.475 26.465 14.98 32.783 38.783z" style="fill:#83b634" transform="translate(-384.781 -681.428) scale(1.19796)"/><path d="m451.66 736.323 3.214.428c-.907-9.584-1.991-19.041-1.163-27.975a53.24 53.24 0 0 1 .949-6.307c1.987-15.758 9.472-2.548 14.998 7.071-5.499-12.203-10.999-22.946-16.498-13.285-2.807 13.026-2.695 26.47-1.5 40.068z" style="fill:#81b531" transform="translate(-384.781 -681.428) scale(1.19796)"/><path d="M443.732 735.68h3.428c-3.909-23.555-8.066-46.038-15.427-54.638 6.545 15.668 9.474 34.95 11.999 54.638z" style="fill:#7eb12f" transform="translate(-384.781 -681.428) scale(1.19796)"/><path d="m449.732 732.466 3.428-.643c-2.685-17.587-4.652-34.792 1.285-47.781-5.461 2.976-6.68 20.308-4.713 48.424z" style="fill:#83b634" transform="translate(-384.781 -681.428) scale(1.19796)"/><path d="m458.516 732.038-2.785 1.499c-.655-18.141.369-36.282 2.571-54.423-1.128 17.881-1.516 35.614.214 52.924z" style="fill:#80ad3a" transform="translate(-384.781 -681.428) scale(1.19796)"/><path d="m461.73 729.252 2.143-1.5c.083-8.699 1.862-19.971 2.978-25.801 2.255-11.772 5.524-9.62 15.663-1.411l-8.488-7.037c-7.443-6.377-9.669 11.836-12.296 35.749z" style="fill:#7db822" transform="matrix(-1.25325 .3772 .20766 1.6406 593.063 -1176.273)"/><path d="M446.732 736.323c-4.16-19.971-10.338-40.838-19.679-39.509-1.529-1.311-4.933-.747-9.89 1.369 20.147-12.475 26.465 14.98 32.783 38.783z" style="fill:#83b634" transform="matrix(-1.25325 .3772 .20766 1.6406 584.126 -1175.899)"/><path d="m451.66 736.323 3.214.428c-.907-9.584-1.991-19.041-1.163-27.975a53.24 53.24 0 0 1 .949-6.307c1.987-15.758 9.472-2.548 14.998 7.071-5.499-12.203-10.999-22.946-16.498-13.285-2.807 13.026-2.695 26.47-1.5 40.068z" style="fill:#81b531" transform="matrix(-1.25325 .3772 .20766 1.6406 584.126 -1175.899)"/><path d="M443.732 735.68h3.428c-3.909-23.555-8.066-46.038-15.427-54.638 6.545 15.668 9.474 34.95 11.999 54.638z" style="fill:#7eb12f" transform="matrix(-1.25325 .3772 .20766 1.6406 584.126 -1175.899)"/><path d="m449.732 732.466 3.428-.643c-2.685-17.587-4.652-34.792 1.285-47.781-5.461 2.976-6.68 20.308-4.713 48.424z" style="fill:#83b634" transform="matrix(-1.25325 .3772 .20766 1.6406 584.126 -1175.899)"/><path d="m458.516 732.038-2.785 1.499c-.655-18.141.369-36.282 2.571-54.423-1.128 17.881-1.516 35.614.214 52.924z" style="fill:#80ad3a" transform="matrix(-1.25325 .3772 .20766 1.6406 584.126 -1175.899)"/><path d="m461.73 729.252 2.143-1.5c.083-8.699 1.862-19.971 2.978-25.801 2.255-11.772 5.524-9.62 15.663-1.411l-8.488-7.037c-7.443-6.377-9.669 11.836-12.296 35.749z" style="fill:#7db822" transform="matrix(1.29682 0 0 1.47095 -438.7 -869.438)"/><path d="M446.732 736.323c-4.16-19.971-10.338-40.838-19.679-39.509-1.529-1.311-4.933-.747-9.89 1.369 20.147-12.475 26.465 14.98 32.783 38.783z" style="fill:#83b634" transform="matrix(1.29682 0 0 1.47095 -429.745 -871.438)"/><path d="m451.66 736.323 3.214.428c-.907-9.584-1.991-19.041-1.163-27.975a53.24 53.24 0 0 1 .949-6.307c1.987-15.758 9.472-2.548 14.998 7.071-5.499-12.203-10.999-22.946-16.498-13.285-2.807 13.026-2.695 26.47-1.5 40.068z" style="fill:#81b531" transform="matrix(1.29682 0 0 1.47095 -429.745 -871.438)"/><path d="M443.732 735.68h3.428c-3.909-23.555-8.066-46.038-15.427-54.638 6.545 15.668 9.474 34.95 11.999 54.638z" style="fill:#7eb12f" transform="matrix(1.29682 0 0 1.47095 -429.745 -871.438)"/><path d="m449.732 732.466 3.428-.643c-2.685-17.587-4.652-34.792 1.285-47.781-5.461 2.976-6.68 20.308-4.713 48.424z" style="fill:#83b634" transform="matrix(1.29682 0 0 1.47095 -429.745 -871.438)"/><path d="m458.516 732.038-2.785 1.499c-.655-18.141.369-36.282 2.571-54.423-1.128 17.881-1.516 35.614.214 52.924z" style="fill:#80ad3a" transform="matrix(1.29682 0 0 1.47095 -429.745 -871.438)"/><path d="m461.73 729.252 2.143-1.5c.083-8.699 1.862-19.971 2.978-25.801 2.255-11.772 5.524-9.62 15.663-1.411l-8.488-7.037c-7.443-6.377-9.669 11.836-12.296 35.749z" style="fill:#7db822" transform="matrix(-1.17279 .39811 .19433 1.73154 496.363 -1269.07)"/><path d="M446.732 736.323c-4.16-19.971-10.338-40.838-19.679-39.509-1.529-1.311-4.933-.747-9.89 1.369 20.147-12.475 26.465 14.98 32.783 38.783z" style="fill:#83b634" transform="matrix(-1.17279 .39811 .19433 1.73154 488 -1268.676)"/><path d="m451.66 736.323 3.214.428c-.907-9.584-1.991-19.041-1.163-27.975a53.24 53.24 0 0 1 .949-6.307c1.987-15.758 9.472-2.548 14.998 7.071-5.499-12.203-10.999-22.946-16.498-13.285-2.807 13.026-2.695 26.47-1.5 40.068z" style="fill:#81b531" transform="matrix(-1.17279 .39811 .19433 1.73154 488 -1268.676)"/><path d="M443.732 735.68h3.428c-3.909-23.555-8.066-46.038-15.427-54.638 6.545 15.668 9.474 34.95 11.999 54.638z" style="fill:#7eb12f" transform="matrix(-1.17279 .39811 .19433 1.73154 488 -1268.676)"/><path d="m449.732 732.466 3.428-.643c-2.685-17.587-4.652-34.792 1.285-47.781-5.461 2.976-6.68 20.308-4.713 48.424z" style="fill:#83b634" transform="matrix(-1.17279 .39811 .19433 1.73154 488 -1268.676)"/><path d="m458.516 732.038-2.785 1.499c-.655-18.141.369-36.282 2.571-54.423-1.128 17.881-1.516 35.614.214 52.924z" style="fill:#80ad3a" transform="matrix(-1.17279 .39811 .19433 1.73154 488 -1268.676)"/><path d="m461.73 729.252 2.143-1.5c.083-8.699 1.862-19.971 2.978-25.801 2.255-11.772 5.524-9.62 15.663-1.411l-8.488-7.037c-7.443-6.377-9.669 11.836-12.296 35.749z" style="fill:#7db822" transform="matrix(1.21356 0 0 1.55249 -469.16 -945.226)"/><path d="M446.732 736.323c-4.16-19.971-10.338-40.838-19.679-39.509-1.529-1.311-4.933-.747-9.89 1.369 20.147-12.475 26.465 14.98 32.783 38.783z" style="fill:#83b634" transform="matrix(1.21356 0 0 1.55249 -460.78 -947.338)"/><path d="m451.66 736.323 3.214.428c-.907-9.584-1.991-19.041-1.163-27.975a53.24 53.24 0 0 1 .949-6.307c1.987-15.758 9.472-2.548 14.998 7.071-5.499-12.203-10.999-22.946-16.498-13.285-2.807 13.026-2.695 26.47-1.5 40.068z" style="fill:#81b531" transform="matrix(1.21356 0 0 1.55249 -460.78 -947.338)"/><path d="M443.732 735.68h3.428c-3.909-23.555-8.066-46.038-15.427-54.638 6.545 15.668 9.474 34.95 11.999 54.638z" style="fill:#7eb12f" transform="matrix(1.21356 0 0 1.55249 -460.78 -947.338)"/><path d="m449.732 732.466 3.428-.643c-2.685-17.587-4.652-34.792 1.285-47.781-5.461 2.976-6.68 20.308-4.713 48.424z" style="fill:#83b634" transform="matrix(1.21356 0 0 1.55249 -460.78 -947.338)"/><path d="m458.516 732.038-2.785 1.499c-.655-18.141.369-36.282 2.571-54.423-1.128 17.881-1.516 35.614.214 52.924z" style="fill:#80ad3a" transform="matrix(1.21356 0 0 1.55249 -460.78 -947.338)"/><path d="m461.73 729.252 2.143-1.5c.083-8.699 1.862-19.971 2.978-25.801 2.255-11.772 5.524-9.62 15.663-1.411l-8.488-7.037c-7.443-6.377-9.669 11.836-12.296 35.749z" style="fill:#7db822" transform="matrix(-1.17279 .37524 .19433 1.63206 514.803 -1185.864)"/><path d="M446.732 736.323c-4.16-19.971-10.338-40.838-19.679-39.509-1.529-1.311-4.933-.747-9.89 1.369 20.147-12.475 26.465 14.98 32.783 38.783z" style="fill:#83b634" transform="matrix(-1.17279 .37524 .19433 1.63206 506.44 -1185.493)"/><path d="m451.66 736.323 3.214.428c-.907-9.584-1.991-19.041-1.163-27.975a53.24 53.24 0 0 1 .949-6.307c1.987-15.758 9.472-2.548 14.998 7.071-5.499-12.203-10.999-22.946-16.498-13.285-2.807 13.026-2.695 26.47-1.5 40.068z" style="fill:#81b531" transform="matrix(-1.17279 .37524 .19433 1.63206 506.44 -1185.493)"/><path d="M443.732 735.68h3.428c-3.909-23.555-8.066-46.038-15.427-54.638 6.545 15.668 9.474 34.95 11.999 54.638z" style="fill:#7eb12f" transform="matrix(-1.17279 .37524 .19433 1.63206 506.44 -1185.493)"/><path d="m449.732 732.466 3.428-.643c-2.685-17.587-4.652-34.792 1.285-47.781-5.461 2.976-6.68 20.308-4.713 48.424z" style="fill:#83b634" transform="matrix(-1.17279 .37524 .19433 1.63206 506.44 -1185.493)"/><path d="m458.516 732.038-2.785 1.499c-.655-18.141.369-36.282 2.571-54.423-1.128 17.881-1.516 35.614.214 52.924z" style="fill:#80ad3a" transform="matrix(-1.17279 .37524 .19433 1.63206 506.44 -1185.493)"/><path d="m461.73 729.252 2.143-1.5c.083-8.699 1.862-19.971 2.978-25.801 2.255-11.772 5.524-9.62 15.663-1.411l-8.488-7.037c-7.443-6.377-9.669 11.836-12.296 35.749z" style="fill:#7db822" transform="matrix(1.21356 0 0 1.4633 -450.72 -880.625)"/><path d="M446.732 736.323c-4.16-19.971-10.338-40.838-19.679-39.509-1.529-1.311-4.933-.747-9.89 1.369 20.147-12.475 26.465 14.98 32.783 38.783z" style="fill:#83b634" transform="matrix(1.21356 0 0 1.4633 -442.34 -882.616)"/><path d="m451.66 736.323 3.214.428c-.907-9.584-1.991-19.041-1.163-27.975a53.24 53.24 0 0 1 .949-6.307c1.987-15.758 9.472-2.548 14.998 7.071-5.499-12.203-10.999-22.946-16.498-13.285-2.807 13.026-2.695 26.47-1.5 40.068z" style="fill:#81b531" transform="matrix(1.21356 0 0 1.4633 -442.34 -882.616)"/><path d="M443.732 735.68h3.428c-3.909-23.555-8.066-46.038-15.427-54.638 6.545 15.668 9.474 34.95 11.999 54.638z" style="fill:#7eb12f" transform="matrix(1.21356 0 0 1.4633 -442.34 -882.616)"/><path d="m449.732 732.466 3.428-.643c-2.685-17.587-4.652-34.792 1.285-47.781-5.461 2.976-6.68 20.308-4.713 48.424z" style="fill:#83b634" transform="matrix(1.21356 0 0 1.4633 -442.34 -882.616)"/><path d="m458.516 732.038-2.785 1.499c-.655-18.141.369-36.282 2.571-54.423-1.128 17.881-1.516 35.614.214 52.924z" style="fill:#80ad3a" transform="matrix(1.21356 0 0 1.4633 -442.34 -882.616)"/><path d="m461.73 729.252 2.143-1.5c.083-8.699 1.862-19.971 2.978-25.801 2.255-11.772 5.524-9.62 15.663-1.411l-8.488-7.037c-7.443-6.377-9.669 11.836-12.296 35.749z" style="fill:#7db822" transform="matrix(-1.26957 .46075 .21036 2.00397 548.237 -1487.065)"/><path d="M446.732 736.323c-4.16-19.971-10.338-40.838-19.679-39.509-1.529-1.311-4.933-.747-9.89 1.369 20.147-12.475 26.465 14.98 32.783 38.783z" style="fill:#83b634" transform="matrix(-1.26957 .46075 .21036 2.00397 539.184 -1486.608)"/><path d="m451.66 736.323 3.214.428c-.907-9.584-1.991-19.041-1.163-27.975a53.24 53.24 0 0 1 .949-6.307c1.987-15.758 9.472-2.548 14.998 7.071-5.499-12.203-10.999-22.946-16.498-13.285-2.807 13.026-2.695 26.47-1.5 40.068z" style="fill:#81b531" transform="matrix(-1.26957 .46075 .21036 2.00397 539.184 -1486.608)"/><path d="M443.732 735.68h3.428c-3.909-23.555-8.066-46.038-15.427-54.638 6.545 15.668 9.474 34.95 11.999 54.638z" style="fill:#7eb12f" transform="matrix(-1.26957 .46075 .21036 2.00397 539.184 -1486.608)"/><path d="m449.732 732.466 3.428-.643c-2.685-17.587-4.652-34.792 1.285-47.781-5.461 2.976-6.68 20.308-4.713 48.424z" style="fill:#83b634" transform="matrix(-1.26957 .46075 .21036 2.00397 539.184 -1486.608)"/><path d="m458.516 732.038-2.785 1.499c-.655-18.141.369-36.282 2.571-54.423-1.128 17.881-1.516 35.614.214 52.924z" style="fill:#80ad3a" transform="matrix(-1.26957 .46075 .21036 2.00397 539.184 -1486.608)"/><path d="m461.73 729.252 2.143-1.5c.083-8.699 1.862-19.971 2.978-25.801 2.255-11.772 5.524-9.62 15.663-1.411l-8.488-7.037c-7.443-6.377-9.669 11.836-12.296 35.749z" style="fill:#7db822" transform="matrix(1.3137 0 0 1.79676 -496.96 -1112.268)"/><path d="M446.732 736.323c-4.16-19.971-10.338-40.838-19.679-39.509-1.529-1.311-4.933-.747-9.89 1.369 20.147-12.475 26.465 14.98 32.783 38.783z" style="fill:#83b634" transform="matrix(1.3137 0 0 1.79676 -487.89 -1114.711)"/><path d="m451.66 736.323 3.214.428c-.907-9.584-1.991-19.041-1.163-27.975a53.24 53.24 0 0 1 .949-6.307c1.987-15.758 9.472-2.548 14.998 7.071-5.499-12.203-10.999-22.946-16.498-13.285-2.807 13.026-2.695 26.47-1.5 40.068z" style="fill:#81b531" transform="matrix(1.3137 0 0 1.79676 -487.89 -1114.711)"/><path d="M443.732 735.68h3.428c-3.909-23.555-8.066-46.038-15.427-54.638 6.545 15.668 9.474 34.95 11.999 54.638z" style="fill:#7eb12f" transform="matrix(1.3137 0 0 1.79676 -487.89 -1114.711)"/><path d="m449.732 732.466 3.428-.643c-2.685-17.587-4.652-34.792 1.285-47.781-5.461 2.976-6.68 20.308-4.713 48.424z" style="fill:#83b634" transform="matrix(1.3137 0 0 1.79676 -487.89 -1114.711)"/><path d="m458.516 732.038-2.785 1.499c-.655-18.141.369-36.282 2.571-54.423-1.128 17.881-1.516 35.614.214 52.924z" style="fill:#80ad3a" transform="matrix(1.3137 0 0 1.79676 -487.89 -1114.711)"/><path d="m461.73 729.252 2.143-1.5c.083-8.699 1.862-19.971 2.978-25.801 2.255-11.772 5.524-9.62 15.663-1.411l-8.488-7.037c-7.443-6.377-9.669 11.836-12.296 35.749z" style="fill:#7db822" transform="matrix(-1.21304 .3415 .201 1.4853 523.02 -1037.846)"/><path d="M446.732 736.323c-4.16-19.971-10.338-40.838-19.679-39.509-1.529-1.311-4.933-.747-9.89 1.369 20.147-12.475 26.465 14.98 32.783 38.783z" style="fill:#83b634" transform="matrix(-1.21304 .3415 .201 1.4853 514.37 -1037.508)"/><path d="m451.66 736.323 3.214.428c-.907-9.584-1.991-19.041-1.163-27.975a53.24 53.24 0 0 1 .949-6.307c1.987-15.758 9.472-2.548 14.998 7.071-5.499-12.203-10.999-22.946-16.498-13.285-2.807 13.026-2.695 26.47-1.5 40.068z" style="fill:#81b531" transform="matrix(-1.21304 .3415 .201 1.4853 514.37 -1037.508)"/><path d="M443.732 735.68h3.428c-3.909-23.555-8.066-46.038-15.427-54.638 6.545 15.668 9.474 34.95 11.999 54.638z" style="fill:#7eb12f" transform="matrix(-1.21304 .3415 .201 1.4853 514.37 -1037.508)"/><path d="m449.732 732.466 3.428-.643c-2.685-17.587-4.652-34.792 1.285-47.781-5.461 2.976-6.68 20.308-4.713 48.424z" style="fill:#83b634" transform="matrix(-1.21304 .3415 .201 1.4853 514.37 -1037.508)"/><path d="m458.516 732.038-2.785 1.499c-.655-18.141.369-36.282 2.571-54.423-1.128 17.881-1.516 35.614.214 52.924z" style="fill:#80ad3a" transform="matrix(-1.21304 .3415 .201 1.4853 514.37 -1037.508)"/><path d="m461.73 729.252 2.143-1.5c.083-8.699 1.862-19.971 2.978-25.801 2.255-11.772 5.524-9.62 15.663-1.411l-8.488-7.037c-7.443-6.377-9.669 11.836-12.296 35.749z" style="fill:#7db822" transform="matrix(1.25521 0 0 1.33172 -475.64 -760.055)"/><path d="M446.732 736.323c-4.16-19.971-10.338-40.838-19.679-39.509-1.529-1.311-4.933-.747-9.89 1.369 20.147-12.475 26.465 14.98 32.783 38.783z" style="fill:#83b634" transform="matrix(1.25521 0 0 1.33172 -466.972 -761.866)"/><path d="m451.66 736.323 3.214.428c-.907-9.584-1.991-19.041-1.163-27.975a53.24 53.24 0 0 1 .949-6.307c1.987-15.758 9.472-2.548 14.998 7.071-5.499-12.203-10.999-22.946-16.498-13.285-2.807 13.026-2.695 26.47-1.5 40.068z" style="fill:#81b531" transform="matrix(1.25521 0 0 1.33172 -466.972 -761.866)"/><path d="M443.732 735.68h3.428c-3.909-23.555-8.066-46.038-15.427-54.638 6.545 15.668 9.474 34.95 11.999 54.638z" style="fill:#7eb12f" transform="matrix(1.25521 0 0 1.33172 -466.972 -761.866)"/><path d="m449.732 732.466 3.428-.643c-2.685-17.587-4.652-34.792 1.285-47.781-5.461 2.976-6.68 20.308-4.713 48.424z" style="fill:#83b634" transform="matrix(1.25521 0 0 1.33172 -466.972 -761.866)"/><path d="m458.516 732.038-2.785 1.499c-.655-18.141.369-36.282 2.571-54.423-1.128 17.881-1.516 35.614.214 52.924z" style="fill:#80ad3a" transform="matrix(1.25521 0 0 1.33172 -466.972 -761.866)"/><path d="m461.73 729.252 2.143-1.5c.083-8.699 1.862-19.971 2.978-25.801 2.255-11.772 5.524-9.62 15.663-1.411l-8.488-7.037c-7.443-6.377-9.669 11.836-12.296 35.749z" style="fill:#7db822" transform="matrix(-1.21304 .32188 .201 1.39997 542.093 -966.473)"/><path d="M446.732 736.323c-4.16-19.971-10.338-40.838-19.679-39.509-1.529-1.311-4.933-.747-9.89 1.369 20.147-12.475 26.465 14.98 32.783 38.783z" style="fill:#83b634" transform="matrix(-1.21304 .32188 .201 1.39997 533.443 -966.154)"/><path d="m451.66 736.323 3.214.428c-.907-9.584-1.991-19.041-1.163-27.975a53.24 53.24 0 0 1 .949-6.307c1.987-15.758 9.472-2.548 14.998 7.071-5.499-12.203-10.999-22.946-16.498-13.285-2.807 13.026-2.695 26.47-1.5 40.068z" style="fill:#81b531" transform="matrix(-1.21304 .32188 .201 1.39997 533.443 -966.154)"/><path d="M443.732 735.68h3.428c-3.909-23.555-8.066-46.038-15.427-54.638 6.545 15.668 9.474 34.95 11.999 54.638z" style="fill:#7eb12f" transform="matrix(-1.21304 .32188 .201 1.39997 533.443 -966.154)"/><path d="m449.732 732.466 3.428-.643c-2.685-17.587-4.652-34.792 1.285-47.781-5.461 2.976-6.68 20.308-4.713 48.424z" style="fill:#83b634" transform="matrix(-1.21304 .32188 .201 1.39997 533.443 -966.154)"/><path d="m458.516 732.038-2.785 1.499c-.655-18.141.369-36.282 2.571-54.423-1.128 17.881-1.516 35.614.214 52.924z" style="fill:#80ad3a" transform="matrix(-1.21304 .32188 .201 1.39997 533.443 -966.154)"/><path d="m461.73 729.252 2.143-1.5c.083-8.699 1.862-19.971 2.978-25.801 2.255-11.772 5.524-9.62 15.663-1.411l-8.488-7.037c-7.443-6.377-9.669 11.836-12.296 35.749z" style="fill:#7db822" transform="translate(-456.567 -704.64) scale(1.25521)"/><path d="M446.732 736.323c-4.16-19.971-10.338-40.838-19.679-39.509-1.529-1.311-4.933-.747-9.89 1.369 20.147-12.475 26.465 14.98 32.783 38.783z" style="fill:#83b634" transform="translate(-447.9 -706.348) scale(1.25521)"/><path d="m451.66 736.323 3.214.428c-.907-9.584-1.991-19.041-1.163-27.975a53.24 53.24 0 0 1 .949-6.307c1.987-15.758 9.472-2.548 14.998 7.071-5.499-12.203-10.999-22.946-16.498-13.285-2.807 13.026-2.695 26.47-1.5 40.068z" style="fill:#81b531" transform="translate(-447.9 -706.348) scale(1.25521)"/><path d="M443.732 735.68h3.428c-3.909-23.555-8.066-46.038-15.427-54.638 6.545 15.668 9.474 34.95 11.999 54.638z" style="fill:#7eb12f" transform="translate(-447.9 -706.348) scale(1.25521)"/><path d="m449.732 732.466 3.428-.643c-2.685-17.587-4.652-34.792 1.285-47.781-5.461 2.976-6.68 20.308-4.713 48.424z" style="fill:#83b634" transform="translate(-447.9 -706.348) scale(1.25521)"/><path d="m458.516 732.038-2.785 1.499c-.655-18.141.369-36.282 2.571-54.423-1.128 17.881-1.516 35.614.214 52.924z" style="fill:#80ad3a" transform="translate(-447.9 -706.348) scale(1.25521)"/><path d="m461.73 729.252 2.143-1.5c.083-8.699 1.862-19.971 2.978-25.801 2.255-11.772 5.524-9.62 15.663-1.411l-8.488-7.037c-7.443-6.377-9.669 11.836-12.296 35.749z" style="fill:#7db822" transform="matrix(-1.31314 .39523 .21758 1.719 576.674 -1224.84)"/><path d="M446.732 736.323c-4.16-19.971-10.338-40.838-19.679-39.509-1.529-1.311-4.933-.747-9.89 1.369 20.147-12.475 26.465 14.98 32.783 38.783z" style="fill:#83b634" transform="matrix(-1.31314 .39523 .21758 1.719 567.311 -1224.45)"/><path d="m451.66 736.323 3.214.428c-.907-9.584-1.991-19.041-1.163-27.975a53.24 53.24 0 0 1 .949-6.307c1.987-15.758 9.472-2.548 14.998 7.071-5.499-12.203-10.999-22.946-16.498-13.285-2.807 13.026-2.695 26.47-1.5 40.068z" style="fill:#81b531" transform="matrix(-1.31314 .39523 .21758 1.719 567.311 -1224.45)"/><path d="M443.732 735.68h3.428c-3.909-23.555-8.066-46.038-15.427-54.638 6.545 15.668 9.474 34.95 11.999 54.638z" style="fill:#7eb12f" transform="matrix(-1.31314 .39523 .21758 1.719 567.311 -1224.45)"/><path d="m449.732 732.466 3.428-.643c-2.685-17.587-4.652-34.792 1.285-47.781-5.461 2.976-6.68 20.308-4.713 48.424z" style="fill:#83b634" transform="matrix(-1.31314 .39523 .21758 1.719 567.311 -1224.45)"/><path d="m458.516 732.038-2.785 1.499c-.655-18.141.369-36.282 2.571-54.423-1.128 17.881-1.516 35.614.214 52.924z" style="fill:#80ad3a" transform="matrix(-1.31314 .39523 .21758 1.719 567.311 -1224.45)"/><path d="m461.73 729.252 2.143-1.5c.083-8.699 1.862-19.971 2.978-25.801 2.255-11.772 5.524-9.62 15.663-1.411l-8.488-7.037c-7.443-6.377-9.669 11.836-12.296 35.749z" style="fill:#7db822" transform="matrix(1.35879 0 0 1.54125 -504.395 -903.342)"/><path d="M446.732 736.323c-4.16-19.971-10.338-40.838-19.679-39.509-1.529-1.311-4.933-.747-9.89 1.369 20.147-12.475 26.465 14.98 32.783 38.783z" style="fill:#83b634" transform="matrix(1.35879 0 0 1.54125 -495.013 -905.438)"/><path d="m451.66 736.323 3.214.428c-.907-9.584-1.991-19.041-1.163-27.975a53.24 53.24 0 0 1 .949-6.307c1.987-15.758 9.472-2.548 14.998 7.071-5.499-12.203-10.999-22.946-16.498-13.285-2.807 13.026-2.695 26.47-1.5 40.068z" style="fill:#81b531" transform="matrix(1.35879 0 0 1.54125 -495.013 -905.438)"/><path d="M443.732 735.68h3.428c-3.909-23.555-8.066-46.038-15.427-54.638 6.545 15.668 9.474 34.95 11.999 54.638z" style="fill:#7eb12f" transform="matrix(1.35879 0 0 1.54125 -495.013 -905.438)"/><path d="m449.732 732.466 3.428-.643c-2.685-17.587-4.652-34.792 1.285-47.781-5.461 2.976-6.68 20.308-4.713 48.424z" style="fill:#83b634" transform="matrix(1.35879 0 0 1.54125 -495.013 -905.438)"/><path d="m458.516 732.038-2.785 1.499c-.655-18.141.369-36.282 2.571-54.423-1.128 17.881-1.516 35.614.214 52.924z" style="fill:#80ad3a" transform="matrix(1.35879 0 0 1.54125 -495.013 -905.438)"/><path d="m461.73 729.252 2.143-1.5c.083-8.699 1.862-19.971 2.978-25.801 2.255-11.772 5.524-9.62 15.663-1.411l-8.488-7.037c-7.443-6.377-9.669 11.836-12.296 35.749z" style="fill:#7db822" transform="matrix(1.0745 -.06182 -.0331 1.88794 -412.87 -1151.496)"/><path d="M446.732 736.323c-4.16-19.971-10.338-40.838-19.679-39.509-1.529-1.311-4.933-.747-9.89 1.369 20.147-12.475 26.465 14.98 32.783 38.783z" style="fill:#83b634" transform="matrix(1.0745 -.06182 -.0331 1.88794 -405.405 -1154.49)"/><path d="m451.66 736.323 3.214.428c-.907-9.584-1.991-19.041-1.163-27.975a53.24 53.24 0 0 1 .949-6.307c1.987-15.758 9.472-2.548 14.998 7.071-5.499-12.203-10.999-22.946-16.498-13.285-2.807 13.026-2.695 26.47-1.5 40.068z" style="fill:#81b531" transform="matrix(1.0745 -.06182 -.0331 1.88794 -405.405 -1154.49)"/><path d="M443.732 735.68h3.428c-3.909-23.555-8.066-46.038-15.427-54.638 6.545 15.668 9.474 34.95 11.999 54.638z" style="fill:#7eb12f" transform="matrix(1.0745 -.06182 -.0331 1.88794 -405.405 -1154.49)"/><path d="m449.732 732.466 3.428-.643c-2.685-17.587-4.652-34.792 1.285-47.781-5.461 2.976-6.68 20.308-4.713 48.424z" style="fill:#83b634" transform="matrix(1.0745 -.06182 -.0331 1.88794 -405.405 -1154.49)"/><path d="m458.516 732.038-2.785 1.499c-.655-18.141.369-36.282 2.571-54.423-1.128 17.881-1.516 35.614.214 52.924z" style="fill:#80ad3a" transform="matrix(1.0745 -.06182 -.0331 1.88794 -405.405 -1154.49)"/><path d="m461.73 729.252 2.143-1.5c.083-8.699 1.862-19.971 2.978-25.801 2.255-11.772 5.524-9.62 15.663-1.411l-8.488-7.037c-7.443-6.377-9.669 11.836-12.296 35.749z" style="fill:#7db822" transform="matrix(-1.07864 .4943 .12519 1.62175 471.422 -1206.479)"/><path d="M446.732 736.323c-4.16-19.971-10.338-40.838-19.679-39.509-1.529-1.311-4.933-.747-9.89 1.369 20.147-12.475 26.465 14.98 32.783 38.783z" style="fill:#83b634" transform="matrix(-1.07864 .4943 .12519 1.62175 463.804 -1205.272)"/><path d="m451.66 736.323 3.214.428c-.907-9.584-1.991-19.041-1.163-27.975a53.24 53.24 0 0 1 .949-6.307c1.987-15.758 9.472-2.548 14.998 7.071-5.499-12.203-10.999-22.946-16.498-13.285-2.807 13.026-2.695 26.47-1.5 40.068z" style="fill:#81b531" transform="matrix(-1.07864 .4943 .12519 1.62175 463.804 -1205.272)"/><path d="M443.732 735.68h3.428c-3.909-23.555-8.066-46.038-15.427-54.638 6.545 15.668 9.474 34.95 11.999 54.638z" style="fill:#7eb12f" transform="matrix(-1.07864 .4943 .12519 1.62175 463.804 -1205.272)"/><path d="m449.732 732.466 3.428-.643c-2.685-17.587-4.652-34.792 1.285-47.781-5.461 2.976-6.68 20.308-4.713 48.424z" style="fill:#83b634" transform="matrix(-1.07864 .4943 .12519 1.62175 463.804 -1205.272)"/><path d="m458.516 732.038-2.785 1.499c-.655-18.141.369-36.282 2.571-54.423-1.128 17.881-1.516 35.614.214 52.924z" style="fill:#80ad3a" transform="matrix(-1.07864 .4943 .12519 1.62175 463.804 -1205.272)"/><path d="m461.73 729.252 2.143-1.5c.083-8.699 1.862-19.971 2.978-25.801 2.255-11.772 5.524-9.62 15.663-1.411l-8.488-7.037c-7.443-6.377-9.669 11.836-12.296 35.749z" style="fill:#7db822" transform="matrix(1.07266 -.08572 -.04112 1.78402 -422.55 -1057.067)"/><path d="M446.732 736.323c-4.16-19.971-10.338-40.838-19.679-39.509-1.529-1.311-4.933-.747-9.89 1.369 20.147-12.475 26.465 14.98 32.783 38.783z" style="fill:#83b634" transform="matrix(1.07266 -.08572 -.04112 1.78402 -415.087 -1060.085)"/><path d="m451.66 736.323 3.214.428c-.907-9.584-1.991-19.041-1.163-27.975a53.24 53.24 0 0 1 .949-6.307c1.987-15.758 9.472-2.548 14.998 7.071-5.499-12.203-10.999-22.946-16.498-13.285-2.807 13.026-2.695 26.47-1.5 40.068z" style="fill:#81b531" transform="matrix(1.07266 -.08572 -.04112 1.78402 -415.087 -1060.085)"/><path d="M443.732 735.68h3.428c-3.909-23.555-8.066-46.038-15.427-54.638 6.545 15.668 9.474 34.95 11.999 54.638z" style="fill:#7eb12f" transform="matrix(1.07266 -.08572 -.04112 1.78402 -415.087 -1060.085)"/><path d="m449.732 732.466 3.428-.643c-2.685-17.587-4.652-34.792 1.285-47.781-5.461 2.976-6.68 20.308-4.713 48.424z" style="fill:#83b634" transform="matrix(1.07266 -.08572 -.04112 1.78402 -415.087 -1060.085)"/><path d="m458.516 732.038-2.785 1.499c-.655-18.141.369-36.282 2.571-54.423-1.128 17.881-1.516 35.614.214 52.924z" style="fill:#80ad3a" transform="matrix(1.07266 -.08572 -.04112 1.78402 -415.087 -1060.085)"/><path d="m461.73 729.252 2.143-1.5c.083-8.699 1.862-19.971 2.978-25.801 2.255-11.772 5.524-9.62 15.663-1.411l-8.488-7.037c-7.443-6.377-9.669 11.836-12.296 35.749z" style="fill:#7db822" transform="matrix(-1.07864 .4943 .118 1.52858 460.242 -1131.485)"/><path d="M446.732 736.323c-4.16-19.971-10.338-40.838-19.679-39.509-1.529-1.311-4.933-.747-9.89 1.369 20.147-12.475 26.465 14.98 32.783 38.783z" style="fill:#83b634" transform="matrix(-1.07864 .4943 .118 1.52858 452.634 -1130.15)"/><path d="m451.66 736.323 3.214.428c-.907-9.584-1.991-19.041-1.163-27.975a53.24 53.24 0 0 1 .949-6.307c1.987-15.758 9.472-2.548 14.998 7.071-5.499-12.203-10.999-22.946-16.498-13.285-2.807 13.026-2.695 26.47-1.5 40.068z" style="fill:#81b531" transform="matrix(-1.07864 .4943 .118 1.52858 452.634 -1130.15)"/><path d="M443.732 735.68h3.428c-3.909-23.555-8.066-46.038-15.427-54.638 6.545 15.668 9.474 34.95 11.999 54.638z" style="fill:#7eb12f" transform="matrix(-1.07864 .4943 .118 1.52858 452.634 -1130.15)"/><path d="m449.732 732.466 3.428-.643c-2.685-17.587-4.652-34.792 1.285-47.781-5.461 2.976-6.68 20.308-4.713 48.424z" style="fill:#83b634" transform="matrix(-1.07864 .4943 .118 1.52858 452.634 -1130.15)"/><path d="m458.516 732.038-2.785 1.499c-.655-18.141.369-36.282 2.571-54.423-1.128 17.881-1.516 35.614.214 52.924z" style="fill:#80ad3a" transform="matrix(-1.07864 .4943 .118 1.52858 452.634 -1130.15)"/><path d="m461.73 729.252 2.143-1.5c.083-8.699 1.862-19.971 2.978-25.801 2.255-11.772 5.524-9.62 15.663-1.411l-8.488-7.037c-7.443-6.377-9.669 11.836-12.296 35.749z" style="fill:#7db822" transform="matrix(1.16557 -.03581 -.02538 2.17906 -476.554 -1358.086)"/><path d="M446.732 736.323c-4.16-19.971-10.338-40.838-19.679-39.509-1.529-1.311-4.933-.747-9.89 1.369 20.147-12.475 26.465 14.98 32.783 38.783z" style="fill:#83b634" transform="matrix(1.16557 -.03581 -.02538 2.17906 -468.471 -1361.297)"/><path d="m451.66 736.323 3.214.428c-.907-9.584-1.991-19.041-1.163-27.975a53.24 53.24 0 0 1 .949-6.307c1.987-15.758 9.472-2.548 14.998 7.071-5.499-12.203-10.999-22.946-16.498-13.285-2.807 13.026-2.695 26.47-1.5 40.068z" style="fill:#81b531" transform="matrix(1.16557 -.03581 -.02538 2.17906 -468.471 -1361.297)"/><path d="M443.732 735.68h3.428c-3.909-23.555-8.066-46.038-15.427-54.638 6.545 15.668 9.474 34.95 11.999 54.638z" style="fill:#7eb12f" transform="matrix(1.16557 -.03581 -.02538 2.17906 -468.471 -1361.297)"/><path d="m449.732 732.466 3.428-.643c-2.685-17.587-4.652-34.792 1.285-47.781-5.461 2.976-6.68 20.308-4.713 48.424z" style="fill:#83b634" transform="matrix(1.16557 -.03581 -.02538 2.17906 -468.471 -1361.297)"/><path d="m458.516 732.038-2.785 1.499c-.655-18.141.369-36.282 2.571-54.423-1.128 17.881-1.516 35.614.214 52.924z" style="fill:#80ad3a" transform="matrix(1.16557 -.03581 -.02538 2.17906 -468.471 -1361.297)"/><path d="m461.73 729.252 2.143-1.5c.083-8.699 1.862-19.971 2.978-25.801 2.255-11.772 5.524-9.62 15.663-1.411l-8.488-7.037c-7.443-6.377-9.669 11.836-12.296 35.749z" style="fill:#7db822" transform="matrix(-1.16765 .5351 .14488 1.87691 482.663 -1392.296)"/><path d="M446.732 736.323c-4.16-19.971-10.338-40.838-19.679-39.509-1.529-1.311-4.933-.747-9.89 1.369 20.147-12.475 26.465 14.98 32.783 38.783z" style="fill:#83b634" transform="matrix(-1.16765 .5351 .14488 1.87691 474.404 -1391.154)"/><path d="m451.66 736.323 3.214.428c-.907-9.584-1.991-19.041-1.163-27.975a53.24 53.24 0 0 1 .949-6.307c1.987-15.758 9.472-2.548 14.998 7.071-5.499-12.203-10.999-22.946-16.498-13.285-2.807 13.026-2.695 26.47-1.5 40.068z" style="fill:#81b531" transform="matrix(-1.16765 .5351 .14488 1.87691 474.404 -1391.154)"/><path d="M443.732 735.68h3.428c-3.909-23.555-8.066-46.038-15.427-54.638 6.545 15.668 9.474 34.95 11.999 54.638z" style="fill:#7eb12f" transform="matrix(-1.16765 .5351 .14488 1.87691 474.404 -1391.154)"/><path d="m449.732 732.466 3.428-.643c-2.685-17.587-4.652-34.792 1.285-47.781-5.461 2.976-6.68 20.308-4.713 48.424z" style="fill:#83b634" transform="matrix(-1.16765 .5351 .14488 1.87691 474.404 -1391.154)"/><path d="m458.516 732.038-2.785 1.499c-.655-18.141.369-36.282 2.571-54.423-1.128 17.881-1.516 35.614.214 52.924z" style="fill:#80ad3a" transform="matrix(-1.16765 .5351 .14488 1.87691 474.404 -1391.154)"/><path d="m461.73 729.252 2.143-1.5c.083-8.699 1.862-19.971 2.978-25.801 2.255-11.772 5.524-9.62 15.663-1.411l-8.488-7.037c-7.443-6.377-9.669 11.836-12.296 35.749z" style="fill:#7db822" transform="matrix(-1.17279 .33017 .19433 1.43602 471.857 -979.16)"/><path d="M446.732 736.323c-4.16-19.971-10.338-40.838-19.679-39.509-1.529-1.311-4.933-.747-9.89 1.369 20.147-12.475 26.465 14.98 32.783 38.783z" style="fill:#83b634" transform="matrix(-1.17279 .33017 .19433 1.43602 463.494 -978.834)"/><path d="m451.66 736.323 3.214.428c-.907-9.584-1.991-19.041-1.163-27.975a53.24 53.24 0 0 1 .949-6.307c1.987-15.758 9.472-2.548 14.998 7.071-5.499-12.203-10.999-22.946-16.498-13.285-2.807 13.026-2.695 26.47-1.5 40.068z" style="fill:#81b531" transform="matrix(-1.17279 .33017 .19433 1.43602 463.494 -978.834)"/><path d="M443.732 735.68h3.428c-3.909-23.555-8.066-46.038-15.427-54.638 6.545 15.668 9.474 34.95 11.999 54.638z" style="fill:#7eb12f" transform="matrix(-1.17279 .33017 .19433 1.43602 463.494 -978.834)"/><path d="m449.732 732.466 3.428-.643c-2.685-17.587-4.652-34.792 1.285-47.781-5.461 2.976-6.68 20.308-4.713 48.424z" style="fill:#83b634" transform="matrix(-1.17279 .33017 .19433 1.43602 463.494 -978.834)"/><path d="m458.516 732.038-2.785 1.499c-.655-18.141.369-36.282 2.571-54.423-1.128 17.881-1.516 35.614.214 52.924z" style="fill:#80ad3a" transform="matrix(-1.17279 .33017 .19433 1.43602 463.494 -978.834)"/><path d="m461.73 729.252 2.143-1.5c.083-8.699 1.862-19.971 2.978-25.801 2.255-11.772 5.524-9.62 15.663-1.411l-8.488-7.037c-7.443-6.377-9.669 11.836-12.296 35.749z" style="fill:#7db822" transform="matrix(1.21356 0 0 1.28753 -493.666 -710.587)"/><path d="M446.732 736.323c-4.16-19.971-10.338-40.838-19.679-39.509-1.529-1.311-4.933-.747-9.89 1.369 20.147-12.475 26.465 14.98 32.783 38.783z" style="fill:#83b634" transform="matrix(1.21356 0 0 1.28753 -485.287 -712.338)"/><path d="m451.66 736.323 3.214.428c-.907-9.584-1.991-19.041-1.163-27.975a53.24 53.24 0 0 1 .949-6.307c1.987-15.758 9.472-2.548 14.998 7.071-5.499-12.203-10.999-22.946-16.498-13.285-2.807 13.026-2.695 26.47-1.5 40.068z" style="fill:#81b531" transform="matrix(1.21356 0 0 1.28753 -485.287 -712.338)"/><path d="M443.732 735.68h3.428c-3.909-23.555-8.066-46.038-15.427-54.638 6.545 15.668 9.474 34.95 11.999 54.638z" style="fill:#7eb12f" transform="matrix(1.21356 0 0 1.28753 -485.287 -712.338)"/><path d="m449.732 732.466 3.428-.643c-2.685-17.587-4.652-34.792 1.285-47.781-5.461 2.976-6.68 20.308-4.713 48.424z" style="fill:#83b634" transform="matrix(1.21356 0 0 1.28753 -485.287 -712.338)"/><path d="m458.516 732.038-2.785 1.499c-.655-18.141.369-36.282 2.571-54.423-1.128 17.881-1.516 35.614.214 52.924z" style="fill:#80ad3a" transform="matrix(1.21356 0 0 1.28753 -485.287 -712.338)"/><path d="m461.73 729.252 2.143-1.5c.083-8.699 1.862-19.971 2.978-25.801 2.255-11.772 5.524-9.62 15.663-1.411l-8.488-7.037c-7.443-6.377-9.669 11.836-12.296 35.749z" style="fill:#7db822" transform="matrix(-1.17279 .3112 .19433 1.35352 490.296 -910.156)"/><path d="M446.732 736.323c-4.16-19.971-10.338-40.838-19.679-39.509-1.529-1.311-4.933-.747-9.89 1.369 20.147-12.475 26.465 14.98 32.783 38.783z" style="fill:#83b634" transform="matrix(-1.17279 .3112 .19433 1.35352 481.933 -909.847)"/><path d="m451.66 736.323 3.214.428c-.907-9.584-1.991-19.041-1.163-27.975a53.24 53.24 0 0 1 .949-6.307c1.987-15.758 9.472-2.548 14.998 7.071-5.499-12.203-10.999-22.946-16.498-13.285-2.807 13.026-2.695 26.47-1.5 40.068z" style="fill:#81b531" transform="matrix(-1.17279 .3112 .19433 1.35352 481.933 -909.847)"/><path d="M443.732 735.68h3.428c-3.909-23.555-8.066-46.038-15.427-54.638 6.545 15.668 9.474 34.95 11.999 54.638z" style="fill:#7eb12f" transform="matrix(-1.17279 .3112 .19433 1.35352 481.933 -909.847)"/><path d="m449.732 732.466 3.428-.643c-2.685-17.587-4.652-34.792 1.285-47.781-5.461 2.976-6.68 20.308-4.713 48.424z" style="fill:#83b634" transform="matrix(-1.17279 .3112 .19433 1.35352 481.933 -909.847)"/><path d="m458.516 732.038-2.785 1.499c-.655-18.141.369-36.282 2.571-54.423-1.128 17.881-1.516 35.614.214 52.924z" style="fill:#80ad3a" transform="matrix(-1.17279 .3112 .19433 1.35352 481.933 -909.847)"/><path d="m461.73 729.252 2.143-1.5c.083-8.699 1.862-19.971 2.978-25.801 2.255-11.772 5.524-9.62 15.663-1.411l-8.488-7.037c-7.443-6.377-9.669 11.836-12.296 35.749z" style="fill:#7db822" transform="translate(-475.227 -657.011) scale(1.21356)"/><path d="M446.732 736.323c-4.16-19.971-10.338-40.838-19.679-39.509-1.529-1.311-4.933-.747-9.89 1.369 20.147-12.475 26.465 14.98 32.783 38.783z" style="fill:#83b634" transform="translate(-466.847 -658.662) scale(1.21356)"/><path d="m451.66 736.323 3.214.428c-.907-9.584-1.991-19.041-1.163-27.975a53.24 53.24 0 0 1 .949-6.307c1.987-15.758 9.472-2.548 14.998 7.071-5.499-12.203-10.999-22.946-16.498-13.285-2.807 13.026-2.695 26.47-1.5 40.068z" style="fill:#81b531" transform="translate(-466.847 -658.662) scale(1.21356)"/><path d="M443.732 735.68h3.428c-3.909-23.555-8.066-46.038-15.427-54.638 6.545 15.668 9.474 34.95 11.999 54.638z" style="fill:#7eb12f" transform="translate(-466.847 -658.662) scale(1.21356)"/><path d="m449.732 732.466 3.428-.643c-2.685-17.587-4.652-34.792 1.285-47.781-5.461 2.976-6.68 20.308-4.713 48.424z" style="fill:#83b634" transform="translate(-466.847 -658.662) scale(1.21356)"/><path d="m458.516 732.038-2.785 1.499c-.655-18.141.369-36.282 2.571-54.423-1.128 17.881-1.516 35.614.214 52.924z" style="fill:#80ad3a" transform="translate(-466.847 -658.662) scale(1.21356)"/><path d="m461.73 729.252 2.143-1.5c.083-8.699 1.862-19.971 2.978-25.801 2.255-11.772 5.524-9.62 15.663-1.411l-8.488-7.037c-7.443-6.377-9.669 11.836-12.296 35.749z" style="fill:#7db822" transform="matrix(-1.26957 .38212 .21036 1.66196 523.73 -1159.95)"/><path d="M446.732 736.323c-4.16-19.971-10.338-40.838-19.679-39.509-1.529-1.311-4.933-.747-9.89 1.369 20.147-12.475 26.465 14.98 32.783 38.783z" style="fill:#83b634" transform="matrix(-1.26957 .38212 .21036 1.66196 514.677 -1159.572)"/><path d="m451.66 736.323 3.214.428c-.907-9.584-1.991-19.041-1.163-27.975a53.24 53.24 0 0 1 .949-6.307c1.987-15.758 9.472-2.548 14.998 7.071-5.499-12.203-10.999-22.946-16.498-13.285-2.807 13.026-2.695 26.47-1.5 40.068z" style="fill:#81b531" transform="matrix(-1.26957 .38212 .21036 1.66196 514.677 -1159.572)"/><path d="M443.732 735.68h3.428c-3.909-23.555-8.066-46.038-15.427-54.638 6.545 15.668 9.474 34.95 11.999 54.638z" style="fill:#7eb12f" transform="matrix(-1.26957 .38212 .21036 1.66196 514.677 -1159.572)"/><path d="m449.732 732.466 3.428-.643c-2.685-17.587-4.652-34.792 1.285-47.781-5.461 2.976-6.68 20.308-4.713 48.424z" style="fill:#83b634" transform="matrix(-1.26957 .38212 .21036 1.66196 514.677 -1159.572)"/><path d="m458.516 732.038-2.785 1.499c-.655-18.141.369-36.282 2.571-54.423-1.128 17.881-1.516 35.614.214 52.924z" style="fill:#80ad3a" transform="matrix(-1.26957 .38212 .21036 1.66196 514.677 -1159.572)"/><path d="m461.73 729.252 2.143-1.5c.083-8.699 1.862-19.971 2.978-25.801 2.255-11.772 5.524-9.62 15.663-1.411l-8.488-7.037c-7.443-6.377-9.669 11.836-12.296 35.749z" style="fill:#7db822" transform="matrix(1.3137 0 0 1.4901 -521.468 -849.12)"/><path d="M446.732 736.323c-4.16-19.971-10.338-40.838-19.679-39.509-1.529-1.311-4.933-.747-9.89 1.369 20.147-12.475 26.465 14.98 32.783 38.783z" style="fill:#83b634" transform="matrix(1.3137 0 0 1.4901 -512.397 -851.146)"/><path d="m451.66 736.323 3.214.428c-.907-9.584-1.991-19.041-1.163-27.975a53.24 53.24 0 0 1 .949-6.307c1.987-15.758 9.472-2.548 14.998 7.071-5.499-12.203-10.999-22.946-16.498-13.285-2.807 13.026-2.695 26.47-1.5 40.068z" style="fill:#81b531" transform="matrix(1.3137 0 0 1.4901 -512.397 -851.146)"/><path d="M443.732 735.68h3.428c-3.909-23.555-8.066-46.038-15.427-54.638 6.545 15.668 9.474 34.95 11.999 54.638z" style="fill:#7eb12f" transform="matrix(1.3137 0 0 1.4901 -512.397 -851.146)"/><path d="m449.732 732.466 3.428-.643c-2.685-17.587-4.652-34.792 1.285-47.781-5.461 2.976-6.68 20.308-4.713 48.424z" style="fill:#83b634" transform="matrix(1.3137 0 0 1.4901 -512.397 -851.146)"/><path d="m458.516 732.038-2.785 1.499c-.655-18.141.369-36.282 2.571-54.423-1.128 17.881-1.516 35.614.214 52.924z" style="fill:#80ad3a" transform="matrix(1.3137 0 0 1.4901 -512.397 -851.146)"/><path d="M91.817 205.103c.688-28.229 1.458-50.795-12.509-99.683-5.484-19.198-8.179-21.998-11.016-24.669.564-.256 4.687 1.002 10.451 21.564-2.261-9.82-4.563-13.943-6.332-18.625-1.719-4.547-3.936-6.5-6.182-11.579 1.869 2.665 7.044 9.245 12.236 26.15.454 1.475-.155-.195.305 1.455-.313-2.771-2.391-9.851-2.391-9.851s-1.247-8.112-4.476-15.507c4.567 9.404 5.221 15.676 7.405 24.842.167.702.661 5.017.888 5.698 11.832 35.614 12.536 65.616 17.575 99.192z" style="fill:url(#a)" transform="translate(-6.926 1.047)"/><path d="M91.817 205.103c.688-28.229.294-50.477-12.509-99.683-5.096-19.586-7.393-22.785-11.016-24.669.564-.256 4.292-1.251 10.055 19.31-2.783-9.825-1.939-9.775-5.013-17.517-1.794-4.518-3.278-6.263-5.524-11.343 1.973 2.637 5.996 8.891 10.221 26.032.369 1.499.817 3.272 1.277 4.922-.544-2.589-3.224-12.049-2.929-12.29.006-6.987 2.644-11.374 2.403-10.159 2.193-.459-5.309 3.966-.146 17.32.292.755 1.333 7.191 1.56 7.872 11.832 35.614 12.536 65.616 17.575 99.192z" style="fill:url(#b)" transform="translate(36.942 -10.344)"/><path d="m461.73 729.252 2.143-1.5c.083-8.699 1.862-19.971 2.978-25.801 2.255-11.772 5.524-9.62 15.663-1.411l-8.488-7.037c-7.443-6.377-9.669 11.836-12.296 35.749z" style="fill:#62a400" transform="matrix(-1.15771 .49842 .19183 2.16782 542.416 -1630.782)"/><path d="M446.732 736.323c-4.16-19.971-10.338-40.838-19.679-39.509-1.529-1.311-4.933-.747-9.89 1.369 20.147-12.475 26.465 14.98 32.783 38.783zm4.928 0 3.214.428c-.907-9.584-1.991-19.041-1.163-27.975a53.24 53.24 0 0 1 .949-6.307c1.987-15.758 9.472-2.548 14.998 7.071-5.499-12.203-10.999-22.946-16.498-13.285-2.807 13.026-2.695 26.47-1.5 40.068z" style="fill:#62a400" transform="matrix(-1.15771 .49842 .19183 2.16782 534.16 -1630.288)"/><path d="M443.732 735.68h3.428c-3.909-23.555-8.066-46.038-15.427-54.638 6.545 15.668 9.474 34.95 11.999 54.638z" style="fill:#6daa12" transform="matrix(-1.15771 .49842 .19183 2.16782 534.16 -1630.288)"/><path d="m449.732 732.466 3.428-.643c-2.685-17.587-4.652-34.792 1.285-47.781-5.461 2.976-6.68 20.308-4.713 48.424zm8.784-.428-2.785 1.499c-.655-18.141.369-36.282 2.571-54.423-1.128 17.881-1.516 35.614.214 52.924z" style="fill:#62a400" transform="matrix(-1.15771 .49842 .19183 2.16782 534.16 -1630.288)"/><path d="m461.73 729.252 2.143-1.5c.083-8.699 1.862-19.971 2.978-25.801 2.255-11.772 5.524-9.62 15.663-1.411l-8.488-7.037c-7.443-6.377-9.669 11.836-12.296 35.749z" style="fill:#62a400" transform="matrix(1.19796 0 0 1.94366 -410.696 -1225.342)"/><path d="M446.732 736.323c-4.16-19.971-10.338-40.838-19.679-39.509-1.529-1.311-4.933-.747-9.89 1.369 20.147-12.475 26.465 14.98 32.783 38.783zm4.928 0 3.214.428c-.907-9.584-1.991-19.041-1.163-27.975a53.24 53.24 0 0 1 .949-6.307c1.987-15.758 9.472-2.548 14.998 7.071-5.499-12.203-10.999-22.946-16.498-13.285-2.807 13.026-2.695 26.47-1.5 40.068z" style="fill:#62a400" transform="matrix(1.19796 0 0 1.94366 -402.424 -1227.985)"/><path d="M443.732 735.68h3.428c-3.909-23.555-8.066-46.038-15.427-54.638 6.545 15.668 9.474 34.95 11.999 54.638zm6-3.214 3.428-.643c-2.685-17.587-4.652-34.792 1.285-47.781-5.461 2.976-6.68 20.308-4.713 48.424zm8.784-.428-2.785 1.499c-.655-18.141.369-36.282 2.571-54.423-1.128 17.881-1.516 35.614.214 52.924z" style="fill:#62a400" transform="matrix(1.19796 0 0 1.94366 -402.424 -1227.985)"/><path d="m461.73 729.252 2.143-1.5c.083-8.699 1.862-19.971 2.978-25.801 2.255-11.772 5.524-9.62 15.663-1.411l-8.488-7.037c-7.443-6.377-9.669 11.836-12.296 35.749z" style="fill:#62a400" transform="matrix(-1.25325 .3772 .20766 1.6406 593.063 -1175.219)"/><path d="M446.732 736.323c-4.16-19.971-10.338-40.838-19.679-39.509-1.529-1.311-4.933-.747-9.89 1.369 20.147-12.475 26.465 14.98 32.783 38.783z" style="fill:#72a02e" transform="matrix(-1.25325 .3772 .20766 1.6406 584.126 -1174.845)"/><path d="m451.66 736.323 3.214.428c-.907-9.584-1.991-19.041-1.163-27.975a53.24 53.24 0 0 1 .949-6.307c1.987-15.758 9.472-2.548 14.998 7.071-5.499-12.203-10.999-22.946-16.498-13.285-2.807 13.026-2.695 26.47-1.5 40.068zm-7.928-.643h3.428c-3.909-23.555-8.066-46.038-15.427-54.638 6.545 15.668 9.474 34.95 11.999 54.638z" style="fill:#62a400" transform="matrix(-1.25325 .3772 .20766 1.6406 584.126 -1174.845)"/><path d="m449.732 732.466 3.428-.643c-2.685-17.587-4.652-34.792 1.285-47.781-5.461 2.976-6.68 20.308-4.713 48.424zm8.784-.428-2.785 1.499c-.655-18.141.369-36.282 2.571-54.423-1.128 17.881-1.516 35.614.214 52.924z" style="fill:#62a400" transform="matrix(-1.25325 .3772 .20766 1.6406 584.126 -1174.845)"/><path d="m461.73 729.252 2.143-1.5c.083-8.699 1.862-19.971 2.978-25.801 2.255-11.772 5.524-9.62 15.663-1.411l-8.488-7.037c-7.443-6.377-9.669 11.836-12.296 35.749z" style="fill:#62a400" transform="matrix(1.29682 0 0 1.47095 -438.7 -868.384)"/><path d="M446.732 736.323c-4.16-19.971-10.338-40.838-19.679-39.509-1.529-1.311-4.933-.747-9.89 1.369 20.147-12.475 26.465 14.98 32.783 38.783zm4.928 0 3.214.428c-.907-9.584-1.991-19.041-1.163-27.975a53.24 53.24 0 0 1 .949-6.307c1.987-15.758 9.472-2.548 14.998 7.071-5.499-12.203-10.999-22.946-16.498-13.285-2.807 13.026-2.695 26.47-1.5 40.068z" style="fill:#62a400" transform="matrix(1.29682 0 0 1.47095 -429.745 -870.384)"/><path d="M443.732 735.68h3.428c-3.909-23.555-8.066-46.038-15.427-54.638 6.545 15.668 9.474 34.95 11.999 54.638zm6-3.214 3.428-.643c-2.685-17.587-4.652-34.792 1.285-47.781-5.461 2.976-6.68 20.308-4.713 48.424zm8.784-.428-2.785 1.499c-.655-18.141.369-36.282 2.571-54.423-1.128 17.881-1.516 35.614.214 52.924z" style="fill:#62a400" transform="matrix(1.29682 0 0 1.47095 -429.745 -870.384)"/><path d="m461.73 729.252 2.143-1.5c.083-8.699 1.862-19.971 2.978-25.801 2.255-11.772 5.524-9.62 15.663-1.411l-8.488-7.037c-7.443-6.377-9.669 11.836-12.296 35.749z" style="fill:#62a400" transform="matrix(-1.17279 .45756 .19433 1.9901 496.363 -1486.91)"/><path d="M446.732 736.323c-4.16-19.971-10.338-40.838-19.679-39.509-1.529-1.311-4.933-.747-9.89 1.369 20.147-12.475 26.465 14.98 32.783 38.783z" style="fill:#79b51f" transform="matrix(-1.17279 .45756 .19433 1.9901 488 -1486.457)"/><path d="m451.66 736.323 3.214.428c-.907-9.584-1.991-19.041-1.163-27.975a53.24 53.24 0 0 1 .949-6.307c1.987-15.758 9.472-2.548 14.998 7.071-5.499-12.203-10.999-22.946-16.498-13.285-2.807 13.026-2.695 26.47-1.5 40.068zm-7.928-.643h3.428c-3.909-23.555-8.066-46.038-15.427-54.638 6.545 15.668 9.474 34.95 11.999 54.638z" style="fill:#62a400" transform="matrix(-1.17279 .45756 .19433 1.9901 488 -1486.457)"/><path d="m449.732 732.466 3.428-.643c-2.685-17.587-4.652-34.792 1.285-47.781-5.461 2.976-6.68 20.308-4.713 48.424z" style="fill:#70b705" transform="matrix(-1.17279 .45756 .19433 1.9901 488 -1486.457)"/><path d="m458.516 732.038-2.785 1.499c-.655-18.141.369-36.282 2.571-54.423-1.128 17.881-1.516 35.614.214 52.924z" style="fill:#62a400" transform="matrix(-1.17279 .45756 .19433 1.9901 488 -1486.457)"/><path d="m461.73 729.252 2.143-1.5c.083-8.699 1.862-19.971 2.978-25.801 2.255-11.772 5.524-9.62 15.663-1.411l-8.488-7.037c-7.443-6.377-9.669 11.836-12.296 35.749z" style="fill:#62a400" transform="matrix(1.21356 0 0 1.78432 -469.16 -1114.707)"/><path d="M446.732 736.323c-4.16-19.971-10.338-40.838-19.679-39.509-1.529-1.311-4.933-.747-9.89 1.369 20.147-12.475 26.465 14.98 32.783 38.783zm4.928 0 3.214.428c-.907-9.584-1.991-19.041-1.163-27.975a53.24 53.24 0 0 1 .949-6.307c1.987-15.758 9.472-2.548 14.998 7.071-5.499-12.203-10.999-22.946-16.498-13.285-2.807 13.026-2.695 26.47-1.5 40.068z" style="fill:#62a400" transform="matrix(1.21356 0 0 1.78432 -460.78 -1117.134)"/><path d="M443.732 735.68h3.428c-3.909-23.555-8.066-46.038-15.427-54.638 6.545 15.668 9.474 34.95 11.999 54.638zm6-3.214 3.428-.643c-2.685-17.587-4.652-34.792 1.285-47.781-5.461 2.976-6.68 20.308-4.713 48.424zm8.784-.428-2.785 1.499c-.655-18.141.369-36.282 2.571-54.423-1.128 17.881-1.516 35.614.214 52.924z" style="fill:#62a400" transform="matrix(1.21356 0 0 1.78432 -460.78 -1117.134)"/><path d="m461.73 729.252 2.143-1.5c.083-8.699 1.862-19.971 2.978-25.801 2.255-11.772 5.524-9.62 15.663-1.411l-8.488-7.037c-7.443-6.377-9.669 11.836-12.296 35.749z" style="fill:#5f9311" transform="matrix(-1.26957 .46075 .21036 2.00397 548.237 -1486.01)"/><path d="M446.732 736.323c-4.16-19.971-10.338-40.838-19.679-39.509-1.529-1.311-4.933-.747-9.89 1.369 20.147-12.475 26.465 14.98 32.783 38.783z" style="fill:#639020" transform="matrix(-1.26957 .46075 .21036 2.00397 539.184 -1485.554)"/><path d="m451.66 736.323 3.214.428c-.907-9.584-1.991-19.041-1.163-27.975a53.24 53.24 0 0 1 .949-6.307c1.987-15.758 9.472-2.548 14.998 7.071-5.499-12.203-10.999-22.946-16.498-13.285-2.807 13.026-2.695 26.47-1.5 40.068zm-7.928-.643h3.428c-3.909-23.555-8.066-46.038-15.427-54.638 6.545 15.668 9.474 34.95 11.999 54.638z" style="fill:#62a400" transform="matrix(-1.26957 .46075 .21036 2.00397 539.184 -1485.554)"/><path d="m449.732 732.466 3.428-.643c-2.685-17.587-4.652-34.792 1.285-47.781-5.461 2.976-6.68 20.308-4.713 48.424z" style="fill:#619216" transform="matrix(-1.26957 .46075 .21036 2.00397 539.184 -1485.554)"/><path d="m458.516 732.038-2.785 1.499c-.655-18.141.369-36.282 2.571-54.423-1.128 17.881-1.516 35.614.214 52.924z" style="fill:#62a400" transform="matrix(-1.26957 .46075 .21036 2.00397 539.184 -1485.554)"/><path d="m461.73 729.252 2.143-1.5c.083-8.699 1.862-19.971 2.978-25.801 2.255-11.772 5.524-9.62 15.663-1.411l-8.488-7.037c-7.443-6.377-9.669 11.836-12.296 35.749z" style="fill:#62a400" transform="matrix(1.3137 0 0 1.79676 -496.96 -1111.214)"/><path d="M446.732 736.323c-4.16-19.971-10.338-40.838-19.679-39.509-1.529-1.311-4.933-.747-9.89 1.369 20.147-12.475 26.465 14.98 32.783 38.783zm4.928 0 3.214.428c-.907-9.584-1.991-19.041-1.163-27.975a53.24 53.24 0 0 1 .949-6.307c1.987-15.758 9.472-2.548 14.998 7.071-5.499-12.203-10.999-22.946-16.498-13.285-2.807 13.026-2.695 26.47-1.5 40.068z" style="fill:#62a400" transform="matrix(1.3137 0 0 1.79676 -487.89 -1113.657)"/><path d="M443.732 735.68h3.428c-3.909-23.555-8.066-46.038-15.427-54.638 6.545 15.668 9.474 34.95 11.999 54.638z" style="fill:#67981f" transform="matrix(1.3137 0 0 1.79676 -487.89 -1113.657)"/><path d="m449.732 732.466 3.428-.643c-2.685-17.587-4.652-34.792 1.285-47.781-5.461 2.976-6.68 20.308-4.713 48.424zm8.784-.428-2.785 1.499c-.655-18.141.369-36.282 2.571-54.423-1.128 17.881-1.516 35.614.214 52.924z" style="fill:#62a400" transform="matrix(1.3137 0 0 1.79676 -487.89 -1113.657)"/><path d="m461.73 729.252 2.143-1.5c.083-8.699 1.862-19.971 2.978-25.801 2.255-11.772 5.524-9.62 15.663-1.411l-8.488-7.037c-7.443-6.377-9.669 11.836-12.296 35.749z" style="fill:#62a400" transform="matrix(-1.21304 .43506 .201 1.89222 523.02 -1381.28)"/><path d="M446.732 736.323c-4.16-19.971-10.338-40.838-19.679-39.509-1.529-1.311-4.933-.747-9.89 1.369 20.147-12.475 26.465 14.98 32.783 38.783z" style="fill:#62a400" transform="matrix(-1.21304 .43506 .201 1.89222 514.37 -1380.849)"/><path d="m451.66 736.323 3.214.428c-.907-9.584-1.991-19.041-1.163-27.975a53.24 53.24 0 0 1 .949-6.307c1.987-15.758 9.472-2.548 14.998 7.071-5.499-12.203-10.999-22.946-16.498-13.285-2.807 13.026-2.695 26.47-1.5 40.068z" style="fill:#699d1b" transform="matrix(-1.21304 .43506 .201 1.89222 514.37 -1380.849)"/><path d="M443.732 735.68h3.428c-3.909-23.555-8.066-46.038-15.427-54.638 6.545 15.668 9.474 34.95 11.999 54.638z" style="fill:#70a81c" transform="matrix(-1.21304 .43506 .201 1.89222 514.37 -1380.849)"/><path d="m449.732 732.466 3.428-.643c-2.685-17.587-4.652-34.792 1.285-47.781-5.461 2.976-6.68 20.308-4.713 48.424zm8.784-.428-2.785 1.499c-.655-18.141.369-36.282 2.571-54.423-1.128 17.881-1.516 35.614.214 52.924z" style="fill:#62a400" transform="matrix(-1.21304 .43506 .201 1.89222 514.37 -1380.849)"/><path d="m461.73 729.252 2.143-1.5c.083-8.699 1.862-19.971 2.978-25.801 2.255-11.772 5.524-9.62 15.663-1.411l-8.488-7.037c-7.443-6.377-9.669 11.836-12.296 35.749z" style="fill:#62a400" transform="matrix(1.25521 0 0 1.69656 -475.64 -1027.383)"/><path d="M446.732 736.323c-4.16-19.971-10.338-40.838-19.679-39.509-1.529-1.311-4.933-.747-9.89 1.369 20.147-12.475 26.465 14.98 32.783 38.783z" style="fill:#73ad1c" transform="matrix(1.25521 0 0 1.69656 -466.972 -1029.69)"/><path d="m451.66 736.323 3.214.428c-.907-9.584-1.991-19.041-1.163-27.975a53.24 53.24 0 0 1 .949-6.307c1.987-15.758 9.472-2.548 14.998 7.071-5.499-12.203-10.999-22.946-16.498-13.285-2.807 13.026-2.695 26.47-1.5 40.068zm-7.928-.643h3.428c-3.909-23.555-8.066-46.038-15.427-54.638 6.545 15.668 9.474 34.95 11.999 54.638z" style="fill:#62a400" transform="matrix(1.25521 0 0 1.69656 -466.972 -1029.69)"/><path d="m449.732 732.466 3.428-.643c-2.685-17.587-4.652-34.792 1.285-47.781-5.461 2.976-6.68 20.308-4.713 48.424zm8.784-.428-2.785 1.499c-.655-18.141.369-36.282 2.571-54.423-1.128 17.881-1.516 35.614.214 52.924z" style="fill:#62a400" transform="matrix(1.25521 0 0 1.69656 -466.972 -1029.69)"/><path d="m461.73 729.252 2.143-1.5c.083-8.699 1.862-19.971 2.978-25.801 2.255-11.772 5.524-9.62 15.663-1.411l-8.488-7.037c-7.443-6.377-9.669 11.836-12.296 35.749z" style="fill:#719c30" transform="matrix(-1.31314 .39523 .21758 1.719 576.674 -1223.787)"/><path d="M446.732 736.323c-4.16-19.971-10.338-40.838-19.679-39.509-1.529-1.311-4.933-.747-9.89 1.369 20.147-12.475 26.465 14.98 32.783 38.783z" style="fill:#6da619" transform="matrix(-1.31314 .39523 .21758 1.719 567.311 -1223.395)"/><path d="m451.66 736.323 3.214.428c-.907-9.584-1.991-19.041-1.163-27.975a53.24 53.24 0 0 1 .949-6.307c1.987-15.758 9.472-2.548 14.998 7.071-5.499-12.203-10.999-22.946-16.498-13.285-2.807 13.026-2.695 26.47-1.5 40.068zm-7.928-.643h3.428c-3.909-23.555-8.066-46.038-15.427-54.638 6.545 15.668 9.474 34.95 11.999 54.638z" style="fill:#62a400" transform="matrix(-1.31314 .39523 .21758 1.719 567.311 -1223.395)"/><path d="m449.732 732.466 3.428-.643c-2.685-17.587-4.652-34.792 1.285-47.781-5.461 2.976-6.68 20.308-4.713 48.424zm8.784-.428-2.785 1.499c-.655-18.141.369-36.282 2.571-54.423-1.128 17.881-1.516 35.614.214 52.924z" style="fill:#62a400" transform="matrix(-1.31314 .39523 .21758 1.719 567.311 -1223.395)"/><path d="m461.73 729.252 2.143-1.5c.083-8.699 1.862-19.971 2.978-25.801 2.255-11.772 5.524-9.62 15.663-1.411l-8.488-7.037c-7.443-6.377-9.669 11.836-12.296 35.749z" style="fill:#62a400" transform="matrix(1.35879 0 0 1.54125 -504.395 -902.288)"/><path d="M446.732 736.323c-4.16-19.971-10.338-40.838-19.679-39.509-1.529-1.311-4.933-.747-9.89 1.369 20.147-12.475 26.465 14.98 32.783 38.783zm4.928 0 3.214.428c-.907-9.584-1.991-19.041-1.163-27.975a53.24 53.24 0 0 1 .949-6.307c1.987-15.758 9.472-2.548 14.998 7.071-5.499-12.203-10.999-22.946-16.498-13.285-2.807 13.026-2.695 26.47-1.5 40.068z" style="fill:#62a400" transform="matrix(1.35879 0 0 1.54125 -495.013 -904.384)"/><path d="M443.732 735.68h3.428c-3.909-23.555-8.066-46.038-15.427-54.638 6.545 15.668 9.474 34.95 11.999 54.638zm6-3.214 3.428-.643c-2.685-17.587-4.652-34.792 1.285-47.781-5.461 2.976-6.68 20.308-4.713 48.424zm8.784-.428-2.785 1.499c-.655-18.141.369-36.282 2.571-54.423-1.128 17.881-1.516 35.614.214 52.924z" style="fill:#62a400" transform="matrix(1.35879 0 0 1.54125 -495.013 -904.384)"/><path d="m461.73 729.252 2.143-1.5c.083-8.699 1.862-19.971 2.978-25.801 2.255-11.772 5.524-9.62 15.663-1.411l-8.488-7.037c-7.443-6.377-9.669 11.836-12.296 35.749z" style="fill:#62a400" transform="matrix(-1.07757 -.0221 .01976 2.06075 549.009 -1292.254)"/><path d="M446.732 736.323c-4.16-19.971-10.338-40.838-19.679-39.509-1.529-1.311-4.933-.747-9.89 1.369 20.147-12.475 26.465 14.98 32.783 38.783zm4.928 0 3.214.428c-.907-9.584-1.991-19.041-1.163-27.975a53.24 53.24 0 0 1 .949-6.307c1.987-15.758 9.472-2.548 14.998 7.071-5.499-12.203-10.999-22.946-16.498-13.285-2.807 13.026-2.695 26.47-1.5 40.068z" style="fill:#62a400" transform="matrix(-1.07757 -.0221 .01976 2.06075 541.541 -1295.209)"/><path d="M443.732 735.68h3.428c-3.909-23.555-8.066-46.038-15.427-54.638 6.545 15.668 9.474 34.95 11.999 54.638zm6-3.214 3.428-.643c-2.685-17.587-4.652-34.792 1.285-47.781-5.461 2.976-6.68 20.308-4.713 48.424zm8.784-.428-2.785 1.499c-.655-18.141.369-36.282 2.571-54.423-1.128 17.881-1.516 35.614.214 52.924z" style="fill:#62a400" transform="matrix(-1.07757 -.0221 .01976 2.06075 541.541 -1295.209)"/><path d="m461.73 729.252 2.143-1.5c.083-8.699 1.862-19.971 2.978-25.801 2.255-11.772 5.524-9.62 15.663-1.411l-8.488-7.037c-7.443-6.377-9.669 11.836-12.296 35.749z" style="fill:#62a400" transform="matrix(1.07864 .4943 -.13715 1.77669 -337.778 -1314.918)"/><path d="M446.732 736.323c-4.16-19.971-10.338-40.838-19.679-39.509-1.529-1.311-4.933-.747-9.89 1.369 20.147-12.475 26.465 14.98 32.783 38.783zm4.928 0 3.214.428c-.907-9.584-1.991-19.041-1.163-27.975a53.24 53.24 0 0 1 .949-6.307c1.987-15.758 9.472-2.548 14.998 7.071-5.499-12.203-10.999-22.946-16.498-13.285-2.807 13.026-2.695 26.47-1.5 40.068z" style="fill:#62a400" transform="matrix(1.07864 .4943 -.13715 1.77669 -330.144 -1313.922)"/><path d="M443.732 735.68h3.428c-3.909-23.555-8.066-46.038-15.427-54.638 6.545 15.668 9.474 34.95 11.999 54.638zm6-3.214 3.428-.643c-2.685-17.587-4.652-34.792 1.285-47.781-5.461 2.976-6.68 20.308-4.713 48.424zm8.784-.428-2.785 1.499c-.655-18.141.369-36.282 2.571-54.423-1.128 17.881-1.516 35.614.214 52.924z" style="fill:#62a400" transform="matrix(1.07864 .4943 -.13715 1.77669 -330.144 -1313.922)"/><path d="m461.73 729.252 2.143-1.5c.083-8.699 1.862-19.971 2.978-25.801 2.255-11.772 5.524-9.62 15.663-1.411l-8.488-7.037c-7.443-6.377-9.669 11.836-12.296 35.749z" style="fill:#62a400" transform="matrix(1.16557 -.03581 -.02538 2.17906 -476.554 -1357.032)"/><path d="M446.732 736.323c-4.16-19.971-10.338-40.838-19.679-39.509-1.529-1.311-4.933-.747-9.89 1.369 20.147-12.475 26.465 14.98 32.783 38.783z" style="fill:#75b219" transform="matrix(1.16557 -.03581 -.02538 2.17906 -468.471 -1360.243)"/><path d="m451.66 736.323 3.214.428c-.907-9.584-1.991-19.041-1.163-27.975a53.24 53.24 0 0 1 .949-6.307c1.987-15.758 9.472-2.548 14.998 7.071-5.499-12.203-10.999-22.946-16.498-13.285-2.807 13.026-2.695 26.47-1.5 40.068zm-7.928-.643h3.428c-3.909-23.555-8.066-46.038-15.427-54.638 6.545 15.668 9.474 34.95 11.999 54.638z" style="fill:#62a400" transform="matrix(1.16557 -.03581 -.02538 2.17906 -468.471 -1360.243)"/><path d="m449.732 732.466 3.428-.643c-2.685-17.587-4.652-34.792 1.285-47.781-5.461 2.976-6.68 20.308-4.713 48.424z" style="fill:#6ca11d" transform="matrix(1.16557 -.03581 -.02538 2.17906 -468.471 -1360.243)"/><path d="m458.516 732.038-2.785 1.499c-.655-18.141.369-36.282 2.571-54.423-1.128 17.881-1.516 35.614.214 52.924z" style="fill:#62a400" transform="matrix(1.16557 -.03581 -.02538 2.17906 -468.471 -1360.243)"/><path d="m461.73 729.252 2.143-1.5c.083-8.699 1.862-19.971 2.978-25.801 2.255-11.772 5.524-9.62 15.663-1.411l-8.488-7.037c-7.443-6.377-9.669 11.836-12.296 35.749z" style="fill:#62a400" transform="matrix(-1.16765 .5351 .14488 1.87691 482.663 -1391.242)"/><path d="M446.732 736.323c-4.16-19.971-10.338-40.838-19.679-39.509-1.529-1.311-4.933-.747-9.89 1.369 20.147-12.475 26.465 14.98 32.783 38.783z" style="fill:#629c0b" transform="matrix(-1.16765 .5351 .14488 1.87691 474.404 -1390.1)"/><path d="m451.66 736.323 3.214.428c-.907-9.584-1.991-19.041-1.163-27.975a53.24 53.24 0 0 1 .949-6.307c1.987-15.758 9.472-2.548 14.998 7.071-5.499-12.203-10.999-22.946-16.498-13.285-2.807 13.026-2.695 26.47-1.5 40.068zm-7.928-.643h3.428c-3.909-23.555-8.066-46.038-15.427-54.638 6.545 15.668 9.474 34.95 11.999 54.638z" style="fill:#62a400" transform="matrix(-1.16765 .5351 .14488 1.87691 474.404 -1390.1)"/><path d="m449.732 732.466 3.428-.643c-2.685-17.587-4.652-34.792 1.285-47.781-5.461 2.976-6.68 20.308-4.713 48.424z" style="fill:#619415" transform="matrix(-1.16765 .5351 .14488 1.87691 474.404 -1390.1)"/><path d="m458.516 732.038-2.785 1.499c-.655-18.141.369-36.282 2.571-54.423-1.128 17.881-1.516 35.614.214 52.924z" style="fill:#62a400" transform="matrix(-1.16765 .5351 .14488 1.87691 474.404 -1390.1)"/><path d="m461.73 729.252 2.143-1.5c.083-8.699 1.862-19.971 2.978-25.801 2.255-11.772 5.524-9.62 15.663-1.411l-8.488-7.037c-7.443-6.377-9.669 11.836-12.296 35.749z" style="fill:#62a400" transform="matrix(-1.17279 .33017 .19433 1.43602 471.857 -978.107)"/><path d="M446.732 736.323c-4.16-19.971-10.338-40.838-19.679-39.509-1.529-1.311-4.933-.747-9.89 1.369 20.147-12.475 26.465 14.98 32.783 38.783zm4.928 0 3.214.428c-.907-9.584-1.991-19.041-1.163-27.975a53.24 53.24 0 0 1 .949-6.307c1.987-15.758 9.472-2.548 14.998 7.071-5.499-12.203-10.999-22.946-16.498-13.285-2.807 13.026-2.695 26.47-1.5 40.068z" style="fill:#62a400" transform="matrix(-1.17279 .33017 .19433 1.43602 463.494 -977.78)"/><path d="M443.732 735.68h3.428c-3.909-23.555-8.066-46.038-15.427-54.638 6.545 15.668 9.474 34.95 11.999 54.638z" style="fill:#5e9d00" transform="matrix(-1.17279 .33017 .19433 1.43602 463.494 -977.78)"/><path d="m449.732 732.466 3.428-.643c-2.685-17.587-4.652-34.792 1.285-47.781-5.461 2.976-6.68 20.308-4.713 48.424zm8.784-.428-2.785 1.499c-.655-18.141.369-36.282 2.571-54.423-1.128 17.881-1.516 35.614.214 52.924z" style="fill:#62a400" transform="matrix(-1.17279 .33017 .19433 1.43602 463.494 -977.78)"/><path d="m461.73 729.252 2.143-1.5c.083-8.699 1.862-19.971 2.978-25.801 2.255-11.772 5.524-9.62 15.663-1.411l-8.488-7.037c-7.443-6.377-9.669 11.836-12.296 35.749z" style="fill:#62a400" transform="matrix(1.21356 0 0 1.28753 -493.666 -709.533)"/><path d="M446.732 736.323c-4.16-19.971-10.338-40.838-19.679-39.509-1.529-1.311-4.933-.747-9.89 1.369 20.147-12.475 26.465 14.98 32.783 38.783z" style="fill:#5e9905" transform="matrix(1.21356 0 0 1.28753 -485.287 -711.284)"/><path d="m451.66 736.323 3.214.428c-.907-9.584-1.991-19.041-1.163-27.975a53.24 53.24 0 0 1 .949-6.307c1.987-15.758 9.472-2.548 14.998 7.071-5.499-12.203-10.999-22.946-16.498-13.285-2.807 13.026-2.695 26.47-1.5 40.068zm-7.928-.643h3.428c-3.909-23.555-8.066-46.038-15.427-54.638 6.545 15.668 9.474 34.95 11.999 54.638z" style="fill:#62a400" transform="matrix(1.21356 0 0 1.28753 -485.287 -711.284)"/><path d="m449.732 732.466 3.428-.643c-2.685-17.587-4.652-34.792 1.285-47.781-5.461 2.976-6.68 20.308-4.713 48.424z" style="fill:#5e9905" transform="matrix(1.21356 0 0 1.28753 -485.287 -711.284)"/><path d="m458.516 732.038-2.785 1.499c-.655-18.141.369-36.282 2.571-54.423-1.128 17.881-1.516 35.614.214 52.924z" style="fill:#62a400" transform="matrix(1.21356 0 0 1.28753 -485.287 -711.284)"/><path d="m461.73 729.252 2.143-1.5c.083-8.699 1.862-19.971 2.978-25.801 2.255-11.772 5.524-9.62 15.663-1.411l-8.488-7.037c-7.443-6.377-9.669 11.836-12.296 35.749z" style="fill:#61901c" transform="matrix(-1.17279 .39794 .19433 1.73076 490.856 -1215.874)"/><path d="M446.732 736.323c-4.16-19.971-10.338-40.838-19.679-39.509-1.529-1.311-4.933-.747-9.89 1.369 20.147-12.475 26.465 14.98 32.783 38.783zm4.928 0 3.214.428c-.907-9.584-1.991-19.041-1.163-27.975a53.24 53.24 0 0 1 .949-6.307c1.987-15.758 9.472-2.548 14.998 7.071-5.499-12.203-10.999-22.946-16.498-13.285-2.807 13.026-2.695 26.47-1.5 40.068z" style="fill:#62a400" transform="matrix(-1.17279 .39794 .19433 1.73076 482.493 -1215.48)"/><path d="M443.732 735.68h3.428c-3.909-23.555-8.066-46.038-15.427-54.638 6.545 15.668 9.474 34.95 11.999 54.638z" style="fill:#70a224" transform="matrix(-1.17279 .39794 .19433 1.73076 482.493 -1215.48)"/><path d="m449.732 732.466 3.428-.643c-2.685-17.587-4.652-34.792 1.285-47.781-5.461 2.976-6.68 20.308-4.713 48.424zm8.784-.428-2.785 1.499c-.655-18.141.369-36.282 2.571-54.423-1.128 17.881-1.516 35.614.214 52.924z" style="fill:#62a400" transform="matrix(-1.17279 .39794 .19433 1.73076 482.493 -1215.48)"/><path d="m461.73 729.252 2.143-1.5c.083-8.699 1.862-19.971 2.978-25.801 2.255-11.772 5.524-9.62 15.663-1.411l-8.488-7.037c-7.443-6.377-9.669 11.836-12.296 35.749z" style="fill:#62a400" transform="matrix(1.21356 0 0 1.5518 -474.667 -892.174)"/><path d="M446.732 736.323c-4.16-19.971-10.338-40.838-19.679-39.509-1.529-1.311-4.933-.747-9.89 1.369 20.147-12.475 26.465 14.98 32.783 38.783z" style="fill:#62a400" transform="matrix(1.21356 0 0 1.5518 -466.287 -894.285)"/><path d="m451.66 736.323 3.214.428c-.907-9.584-1.991-19.041-1.163-27.975a53.24 53.24 0 0 1 .949-6.307c1.987-15.758 9.472-2.548 14.998 7.071-5.499-12.203-10.999-22.946-16.498-13.285-2.807 13.026-2.695 26.47-1.5 40.068z" style="fill:#61980e" transform="matrix(1.21356 0 0 1.5518 -466.287 -894.285)"/><path d="M443.732 735.68h3.428c-3.909-23.555-8.066-46.038-15.427-54.638 6.545 15.668 9.474 34.95 11.999 54.638zm6-3.214 3.428-.643c-2.685-17.587-4.652-34.792 1.285-47.781-5.461 2.976-6.68 20.308-4.713 48.424zm8.784-.428-2.785 1.499c-.655-18.141.369-36.282 2.571-54.423-1.128 17.881-1.516 35.614.214 52.924z" style="fill:#62a400" transform="matrix(1.21356 0 0 1.5518 -466.287 -894.285)"/><path d="m469.539 1031.07-3.482-50.372 8.821 40.392 1.625-61.517 3.946 32.035.697-23.678 5.571 33.43-2.089-38.769 6.035 47.589.697-17.876 2.785 19.966 2.554-38.769 1.16 22.517 4.179-22.052-1.161 35.984 2.786-32.502 6.035 30.172.929-36.44 5.571 33.66 4.875-33.428.928 21.356-.464-31.338 10.446 22.517-3.714-30.409 7.196 22.749 1.625-25.535 5.571 35.285-2.089-35.517 5.107 25.999L548 949.36l5.107 17.642-.696-22.749 8.356 11.374.929-17.41 5.339 11.607 2.553-16.946 1.625 49.212-.232-11.374 5.339 5.571-2.785-29.481 5.571 19.035-1.161-31.106 6.732 19.499.929-22.981 7.66 18.571 2.321-7.428 9.518 12.535-.929-12.303 3.714 14.856 2.786 38.302 7.196-49.444 5.611 61.778 6.697 3.85-102.939 48.77-8.49-6.46-12.071-3.25-7.196-6.5-13.696-3.48-6.964-6.03z" style="fill-opacity:.13" transform="translate(-442.692 -808.638)"/></g></svg>