<svg width="1200" height="945" xml:space="preserve" style="fill-rule:evenodd;clip-rule:evenodd;stroke-linejoin:round;stroke-miterlimit:2" xmlns="http://www.w3.org/2000/svg"><g style="display:inline"><g style="clip-rule:evenodd;fill-rule:evenodd;stroke-linejoin:round;stroke-miterlimit:2"><path d="M603.216 861.614c10.378 9.805 25.345 10.091 40.356-5.263-4.872-30.439-10.057-48.713-17.452-78.868-6.106-21.149-13.099-46.968-11.307-76.016 9.051-10.264 23.382-22.03 38.504-24.705 8.663-9.796 23.877-15.042 43.249-11.097 25.427-12.002 31.98-17.077 45.13-25.805 22.014-19.895 18.874-13.572-5.839-2.92-4.124 4.229-36.2 26.793-55.096 22.457 24.094-43.186 26.402-28.694 37.521-38.658 10.731-3.731 21.272-9.599 31.697-16.776 11.085-10.229 9.013-13.738 1.309-6.47-10.866 6.932-21.55 12.951-31.61 15.805l-15.553 7.776c5.496-10.598-.324-40.129-3.929-55.278-4.396-17.013-5.739-15.825-2.623 11.964 4.801 14.046 3.517 32.279-.781 44.809l-23.206 34.916-24.661 10.438 8.489-34.513c-4.031-5.726-2.245-10.179-2.558-15.285 9.011-8.601 16.817-19.009 23.673-30.843 3.377-2.844 6.921-5.077 8.391-14.849-20.128 16.824-20.122 32.246-36.36 39.064l-11.869-34.534c-1.141-10.118 2.003-18.094 9.638-23.825 14.574-10.418 10.345-9.162-4.427-.598-8.326 6.48-8.644 17.276-9.938 26.392 0 0 13.681 39.043 14.96 45.218-5.547 1.935-11.44 5.666-27.599-6.043-15.622-9.837-16.038-10.782-5.332.443 15.992 13.66 26.443 13.963 31.794 12.422 5.297 4.414-5.442 41.146-16.414 42.493-3.904 7.419-12.273 11.49-22.245 14.358 1.662-16.93-16.279-76.297-14.781-93.805 2.721-12.7 7.761-21.838 15.121-25.26 4.467-12.543 11.9-18.894 19.64-32.337 11.717-5.531 30.818-5.39 56.062-23.499 30.127-21.613-39.324 24.392-50.454 8.57-1.194-1.698 1.857-4.164 3.406-7.065l8.319-11.616c23.078-15.041 39.618-30.308 58.147-46.865 2.1-8.606 4.319-15.34 5.412-18.94 1.98-6.52 3.477 1.834-12.55 18.802-30.076 31.843-18.877 8.641-15.279-9.618 3.609-13.774 6.464-15.528-8.89 10.622l-.907 20.902c-8.477 6.663-18.446 15.459-24.014 15.359-6.863 9.969-1.529-7.577.893-25.504-4.745-15.024-6.404-27.517-6.583-6.014-.157 21.052-1.818 25.56-3.508 29.756l-7.862 12.314c-8.147-5.238-18.898-16.003-35.816-43.207 12.737-16.775 25.609-25.932 3.051-13.526-2.422 5.937-5.493 11.334-9.361 10.833-4.403-.569-12.625-1.324-18.025-5.886-28.488-10.652-21.945-9.342-4.984 2.974l18.875 9.437c12.5 6.67 17.899 20.466 19.832 20.501-27.624-9.019-24.12-7.896-37.606-6.051-3.631 2.464-12.134 1.027-4.356 3.491 18.234 1.729 37.379 1.304 49.077 16.349 5.679 2.826 6.242 7.944 11.922 15.318-3.192 23.236-10.83 30.318-17.337 41.506-4.854 7.566-14.468 16.983-20.838 15.452L569.955 525.6l-25.543-59.332c-2.427-.123 17.502-40.728-6.174-2.607-.967 1.556-3.277-1.678-4.936-2.499a341.244 341.244 0 0 0-10.723-5.07c-17.429-7.873-32.092-12.737-25.448-7.613l31.837 16.487 10.764 23.826c-10.402 2.49-20.725-.018-37.193-5.11-6.085-4.46-16.007-7.442-22.515-12.141l-10.435-7.773c5.644 11.789 29.85 24.857 40.049 29.055 17.161 3.876 21.67 5.094 31.242 2.895l5.197 17.192c-10.944 12.601-27.948 14.14-44.966 14.593-5.276 2.406-27.426-6.437-51.008-16.235-5.47-5.485-13.336-4.336-25.179-21.813-8.397-2.411-18.783-50.357-7.385-1.748 7.041 8.185 14.051 16.511 18.059 18.632-6.977 5.757-21.435.901-34.546-1.008-24-9.055-23.431-7.349 1.706 5.116 12.6 2.917 33.232 4.591 38.232 1.427l22.838 13.994c-5.314 10.932-17.665 18.37-32.076 23.238-15.516 6.989-39.799 3.31-47.754-10.804-2.467 2.264-8.888-2.966-15.919-15.916l-7.391-5.117 20.166 28.911c13.629 7.652 18.54 9.973 26.747 11.662-5.677 2.346-18.771 4.434-29.305.305l-16.433-6.617c-25.422-8.642-18.416-4.97-8.566 2.124l31.74 10.532c10.447 1.316 50.872-9.168 58.017-14.721-4.841 10.508-16.281 22.67-24.153 27.114l-20.78 7.887c-33.634 9.055-25.655 5.713-2.754 4.436l29.417-9.139 7.89-6.462c5.491-6.138 11.51-13.869 15.565-15.667 9.861-19.954 14.345-21.51 22.509-27.888l33.1 4.982c21.154-2.023 33.29-4.635 44.207-10.969 11.509 22.197 10.704 39.337 10.962 44.45 1.975 7.623.669 11.937-11.002 15.012-8.681 2.211-16.262 4.697-43.493 2.27l-31.154-5.347-9.016-23.284c-8.887-9.464-6.615-13.072-6.405-4.343 4.968 8.952 8.87 18.197 8.399 28.646l-8.399 5.589c-9.004 1.168-23.465 9.274-37.777 4.57-13.705 11.708-12.893 2.4 10.026 4.362l27.751-1.666 14.738-7.39 21.194 3.989c-.523 7.159-.481 12.662-7.161 12.844l-24.205 6.626-28.614 1.833c-35.444 8.759-23.111 4.426-1.393 5.036 22.139.317 42.605-3.133 62.587-7.671l7.682-15.353 24.205 1.228 21.317-.573 14.781 1.706 2.274 19.897 7.081 53.441c-6.995.442-19.226.912-33.807-10.781-.42-8.45.809-21.965 12.517-25.867 1.539-.958 4.055-4.396 7.502-10.2l-3.526-13.983c-8.954-10.204-7.242-8.546-4.068 3.992 2.924 11.258 1.994 14.302-8.366 16.329l-10.813 24.354c-3.559 1.665-12.444-2.352-11.945-17.037l2.482-12.961-3.185-16.475c-2.02-7.926-1.475-12.029-4.034-5.947.19 9.579 3.455 24.085-.928 32.139l-1.391 7.922c11.908 12.344-3.882 16.397-17.041-7.419l-18.083-20.458 6.254 12.507 10.047 14.385c-5.551 5.217-19.562 1.102-44.828-13.396l10.314 11.144 15.425 7.306 18.037 2.016c6.88 3.064 11.539 5.388 13.872 6.936 21.635 5.411 26.676 9.637 27.061 13.531-3.338 6.409-16.013 6.317-31.51 6.647-6.797-3.029-14.726-5.506-19.629-10.983-17.817-12.7-15.982-13.033-9.537-4.503 4.946 6.363 11.038 12.24 20.297 16.774l10.04 5.024 28.22-1.332 10.159-7.001 30.464 14.626c5.333 8.434 5.587 18.587 6.528 26.143-3.23 34.204 4.997 56.243 8.909 80.626 6.709 23.645 5.127 47.79 15.346 67.925z" style="fill:#fff" transform="matrix(-.82186 .1583 .22613 .84052 1346.964 -160.324)"/><path d="M-430.317 1481.07c0-10.01-4.382-18.06-14.394-18.06l-16.294-1.78c-10.012 0-28.872 15.1-28.872 25.11v5.9c0 10.02 8.128 18.14 18.139 18.14h13.257c10.012 0 28.67-14.93 28.67-24.94z" style="fill:#c36132" transform="matrix(.2885 -.15256 .36063 .18776 756.714 51.914)"/><path d="M1388.51 632.372c-6.83-.583-7.47-2.199-8.81-3.43 1.57 1.029 3.73 2.49 8.64 2.758.61.004 1.77.193 2.68-.249 3.47-.437 5.38-1.937 6.93-3.855-.28 1.174-1.2 2.986-6.82 4.621-.07.172-2.1.347-2.62.155z" style="fill:#e26b04" transform="matrix(.94574 -.00386 0 1.00048 -153.718 -223.968)"/><path d="m1237.72 1025.2 8.15-3.26 6.7-3.08-.91-.72 7.25 4.34 10.32 2.72-10.86 3.8-5.07 3.63-7.43-4.35z" style="fill:#696747" transform="matrix(.32256 -.00132 0 .33851 756.061 52.374)"/><path d="M603.216 861.614c10.378 9.805 25.345 10.091 40.356-5.263-4.872-30.439-10.057-48.713-17.452-78.868-6.106-21.149-13.099-46.968-11.307-76.016 9.051-10.264 23.382-22.03 38.504-24.705 8.663-9.796 23.877-15.042 43.249-11.097 25.427-12.002 31.98-17.077 45.13-25.805 21.026-22.532 17.105-18.293-5.839-2.92-4.124 4.229-36.2 26.793-55.096 22.457 24.094-43.186 26.402-28.694 37.521-38.658 10.731-3.731 21.272-9.599 31.697-16.776 10.403-12.708 8.576-15.327 1.309-6.47-10.866 6.932-21.55 12.951-31.61 15.805l-15.553 7.776c5.496-10.598-.324-40.129-3.929-55.278-4.396-17.013-5.739-15.825-2.623 11.964 4.801 14.046 3.517 32.279-.781 44.809l-23.206 34.916-24.661 10.438 8.489-34.513c-4.031-5.726-2.245-10.179-2.558-15.285 9.011-8.601 16.817-19.009 23.673-30.843l8.391-14.849c-20.128 16.824-20.122 32.246-36.36 39.064l-11.869-34.534c-1.141-10.118 2.003-18.094 9.638-23.825 11.694-15.904 9.657-10.473-4.427-.598-8.326 6.48-8.644 17.276-9.938 26.392 0 0 13.681 39.043 14.96 45.218-5.547 1.935-11.44 5.666-27.599-6.043-15.622-9.837-16.038-10.782-5.332.443 15.992 13.66 26.443 13.963 31.794 12.422 5.297 4.414-5.442 41.146-16.414 42.493-3.904 7.419-12.273 11.49-22.245 14.358 1.662-16.93-16.279-76.297-14.781-93.805 2.721-12.7 7.761-21.838 15.121-25.26 4.467-12.543 11.9-18.894 19.64-32.337 11.717-5.531 30.818-5.39 56.062-23.499 30.127-21.613-39.324 24.392-50.454 8.57-1.194-1.698 1.857-4.164 3.406-7.065l8.319-11.616c23.078-15.041 39.618-30.308 58.147-46.865 5.904-24.197 12.75-33.594-7.138-.138-30.076 31.843-18.877 8.641-15.279-9.618 2.071-16.111 4.248-18.895-8.89 10.622l-.907 20.902c-8.477 6.663-18.446 15.459-24.014 15.359-6.863 9.969-1.529-7.577.893-25.504-4.745-15.024-6.404-27.517-6.583-6.014-.157 21.052-1.818 25.56-3.508 29.756l-5.419 8.487c1.52 18.356-8.777 2.802-13.72-4.501-5.114-7.556-16.143-17.503-24.539-34.879 10.273-19.864 23.63-28.411 3.051-13.526-2.214 6.092-7.983 7.629-9.361 10.833-2.204 5.128-3.074 6.8-7.567-1.191-1.808-3.214-7.463-2.165-10.458-4.695-30.684-13.845-25.851-15.022-4.984 2.974l18.875 9.437c12.5 6.67 17.899 20.466 19.832 20.501-5.913-1.93-10.4-3.396-13.933-4.49-.71-.22-2.049-.291-2.094-.136-.523 1.806-3.628 2.88-8.14-1.327-1.84-1.715-1.641-1.409-3.439-1.366-2.627.062-5.268.621-10 1.268-3.631 2.464-12.134 1.027-4.356 3.491 16.424-2.107 35.804-2.034 49.077 16.349 5.679 2.826 6.242 7.944 11.922 15.318-.924 6.724-2.074 8.976-2.367 13.793-.963 15.808-4.371 10.302-6.056 13.347-2.865 5.177-6.003 9.36-8.914 14.366-4.854 7.566-14.468 16.983-20.838 15.452L569.955 525.6l-25.543-59.332c-3.299-1.949 14.644-46.71-6.174-2.607-.497 1.052-1.381 5.642-3.834.409-.384-.82-.497-2.609-1.102-2.908a341.244 341.244 0 0 0-10.723-5.07c-17.429-7.873-32.092-12.737-25.448-7.613l31.837 16.487 10.764 23.826c-5.199 1.244-10.379 1.24-16.316.289-.792-.127-1.814-1.009-2.419-.43-4.779 4.571-9.656 2.288-15.086-3.938-.752-.862-2.219-.675-3.372-1.031-6.085-4.46-16.007-7.442-22.515-12.141l-10.435-7.773c5.644 11.789 29.85 24.857 40.049 29.055 17.161 3.876 21.67 5.094 31.242 2.895l5.197 17.192c-10.944 12.601-27.948 14.14-44.966 14.593-2.076.946-6.765.152-13.124-1.758-.913-.273-1.884-1.273-2.838-.888-3.747 1.513-8.08 3.003-13.433-4.844-.436-.64-1.452-.563-2.189-.851-6.122-2.396-12.715-5.106-19.424-7.894-5.47-5.485-13.336-4.336-25.179-21.813-8.397-2.411-18.783-50.357-7.385-1.748 7.041 8.185 14.051 16.511 18.059 18.632-6.977 5.757-21.435.901-34.546-1.008-24-9.055-23.431-7.349 1.706 5.116 12.6 2.917 33.232 4.591 38.232 1.427l22.838 13.994c-5.314 10.932-17.665 18.37-32.076 23.238-15.516 6.989-39.799 3.31-47.754-10.804-2.467 2.264-8.888-2.966-15.919-15.916l-7.391-5.117 20.166 28.911c13.629 7.652 18.54 9.973 26.747 11.662-5.677 2.346-18.771 4.434-29.305.305l-16.433-6.617c-25.422-8.642-18.416-4.97-8.566 2.124l31.74 10.532c10.447 1.316 50.872-9.168 58.017-14.721-4.841 10.508-16.281 22.67-24.153 27.114l-20.78 7.887c-36.312 3.048-26.86 3.007-2.754 4.436l29.417-9.139 7.89-6.462c5.491-6.138 11.51-13.869 15.565-15.667 9.861-19.954 14.345-21.51 22.509-27.888l33.1 4.982c21.154-2.023 33.29-4.635 44.207-10.969 11.509 22.197 10.704 39.337 10.962 44.45 1.574 6.075 1.064 10.048-5.114 12.968-1.574.744-1.231.901-3.601 1.526-1.657 8.304-10.283 5.308-14.441 3.336-2.372-1.125-3.545-.002-4.688.376-12.764 4.217-13.473 4.762-26.651-.924l-31.154-5.347-9.016-23.284c-8.887-9.464-6.615-13.072-6.405-4.343 4.968 8.952 8.87 18.197 8.399 28.646l-8.399 5.589c-9.004 1.168-23.465 9.274-37.777 4.57-14.778 2.328-13.109.516 10.026 4.362l27.751-1.666 14.738-7.39 21.194 3.989c-.523 7.159-.481 12.662-7.161 12.844l-24.205 6.626-28.614 1.833c-36.845 3.666-23.952 1.37-1.393 5.036 22.139.317 42.605-3.133 62.587-7.671l7.682-15.353 24.205 1.228 21.317-.573 14.781 1.706 2.274 19.897 7.081 53.441c-6.995.442-19.226.912-33.807-10.781-.42-8.45.809-21.965 12.517-25.867 1.539-.958 4.055-4.396 7.502-10.2l-3.526-13.983c-8.954-10.204-7.242-8.546-4.068 3.992 2.924 11.258 1.994 14.302-8.366 16.329l-10.813 24.354c-3.559 1.665-12.444-2.352-11.945-17.037l2.482-12.961-3.185-16.475c-2.02-7.926-1.475-12.029-4.034-5.947.19 9.579 3.455 24.085-.928 32.139l-1.391 7.922c11.908 12.344-3.882 16.397-17.041-7.419l-18.083-20.458 6.254 12.507 10.047 14.385c-5.551 5.217-19.562 1.102-44.828-13.396l10.314 11.144 15.425 7.306 18.037 2.016c6.88 3.064 11.539 5.388 13.872 6.936 21.635 5.411 26.676 9.637 27.061 13.531-3.338 6.409-16.013 6.317-31.51 6.647-6.797-3.029-14.726-5.506-19.629-10.983-17.817-12.7-15.982-13.033-9.537-4.503 4.946 6.363 11.038 12.24 20.297 16.774l10.04 5.024 28.22-1.332 10.159-7.001 30.464 14.626c5.333 8.434 5.587 18.587 6.528 26.143-3.23 34.204 4.997 56.243 8.909 80.626 6.709 23.645 5.127 47.79 15.346 67.925z" style="fill:#765d4f" transform="matrix(-.82186 .1583 .22613 .84052 1346.512 -157.633)"/><path d="M1239.88 888.747c.8.367-1.89-17.564-2.97-45.54-1.08-27.977-.11-61.752-7.53-82.749-3.48-9.866-23.45-13.368-23.48-14.375-.03-1.102-13.28-1.485-14.31-2.483-7.63-7.395-21.88-6.423-28.6-5.465-.51.397-9.91 1.98-9.58 2.859.47.14.56.19.13.126a.292.292 0 0 1-.13-.126c-3.17-.946-24.18-6.021-26.43-7.825-1.41-1.134-16.37-6.595-16.37-6.595l-9.87-6.925c11.86 5.959 36.09 19.084 53.2 18.197 5.16-.267 9.4-1.291 12.77-2.439 3.18-1.083-22.51-23.044-25.63-23.869-63.79-16.856-55.63-18.167-.34-3.751.28.072-1.34-1.294-2.81-3.929-.97-1.738-2.83-3.866-3.34-5.938-4.83-19.367-4.83-40.714-3.44-25.592.58 6.291 3.87 17.187 11.26 34.348 2.82 6.534 15.56 13.358 23.99 22.635 4.29 4.719 11.43 5.08 29.21 8.059.42.071-18.22-30.002-15.88-29.243.24.08 2.36 4.693 2.36 2.664 0-1.944-1.4-9.659-1.63-13.122-.08-1.26-.54-1.472-1.54-2.099-6.3-3.941-25.8-18.966-37.06-32.898-.11-.143 1.93.575 4.08 3.049 8.2 9.463 24.75 25.172 31.37 25.761 2.75.244 3.74.807 3.75.642 2.19-31.221 6.7-60.301 1.5 6.13-.2 2.643.18 3.635.54 3.357.77-.603 6.63.866 7.09.779 3.9-.746 16.51-10.264 20.92-18.083.8-1.416-2.03 4.712-5.85 8.791-3.68 3.93-7.44 8.518-13.62 10.519-1.38.447-9.01.31-7.99 1.968 1.41 2.303.96 6.719 1.19 7.479 3.24 10.802 18.73 26.823 20.12 27.278 9.63 3.153 23.58 5.955 25.45 6.961 1.3.697-8.59-71.558-7.13-76.115 1.9-5.963-9.15-16.048-11.5-21.498-.56-1.312-10.57-4.431-8.63-3.956 3.29.806-23.04-22.433-22.24-23.525.35-.462-.1-5.201-2.37-3.801-7.17 4.413-40.75-3.408-36.73-3.237 10.64.452 37.47 4.403 32.18-1.649-1.24-1.429-.2-2.658-1.33-3.808-5.93-6.038-9.96-12.39-13.86-13.951-31.48-12.595-61.77-30.823-59.15-29.988 4.7 1.501 56.52 28.449 56.62 27.036.05-.609 5.69 2.824 3.22-1.776-2.29-4.279-7.42-15.568-9.54-20.285-.78-1.475-1.16-2.296-.95-2.117l.95 2.117c3.39 6.436 14.4 25.334 18.13 28.316 1.14.914 4.17 4.428 4 2.684-.24-2.497 5.99-13.512 11.26-19.852.33-.404 8.62-24.291 9.08-24.119 6.45 2.449-7.72-12.122-10.52-14.747-.52-.49 13.73 11.985 14.44 11.382 7.1-6.043 21.29-18.049 20.86-17.353-3.77 6.041-25.53 23.26-26.43 27.791-1.33 6.603-4.01 15.132-3.71 14.811.51-.556.97-1.021 1.35-1.375 3.29-3.048 17.03-14.98-1.04 2.852-2.94 2.907-4.47 12.039-11.22 23.873-2.99 5.241 11.3 19.022 13.7 20.424 12.4 7.22 31.49 25.568 33.31 23.258 3.02-3.829 9.96-11.369 7.93-17.867-1.05-3.34 1-32.221 3.21-45.588.69-4.195 8.54-38.864 9.18-38.733.45.095-2.91 40.715-1.88 45.067.17.718 9.2 7.733 15.93 7.673 6.4-.057 11.42-.07 15.3-.046 1.41.008 18.53-3.493 28.8-7.354 2.85-1.071 15.26-9.873 24.85-21.487 8.2-9.92 13.83-22.995 15.35-22.909 1.39.078-4.85 10.485-11.08 19.496-.53.774 1.67 3.101 3.64 2.5 36.49-11.075 29.59-6.658 10.76-.268-4.96 1.686-10.35 2.458-16.61 2.252-3.61-.119-6.63 5.874-8.74 7.826-4.05 3.741-6.5 8.226-8.29 9.857-.19.177 8.52 6.497 15.16 11.499.26.196 16.61 4.065 28.59 4.365.41.011 8.21-.395 14.32-3.553 1.34-.694 4.7-1.063 7.65-5.262 1.63-2.307 4.71-3.296 5.51-4.826 13.01-24.652 6.71-10.97 2.76-.57l-12.51 10.544s-1.79 1.083-3.28 1.488c-5.22 1.426-9.67 2.543-9.37 2.587 3.01.428 18.93 2.697 24.18-.1 52.81-28.119 13.07-5.767 2.18.936-.25.152-4.89.949-10.46 1.075-3.03.068-10.13-.263-10.6-.243-5.09.208-19.92-1.363-28.01-3.131-1.1-.241-2.74-.815-3.51-.839-1.32-.043-2.04 1.717-1.87 1.852 3.38 2.775 19.35 17.312 26.31 18.603 6.78 1.259 17.12 4.027 25.4 3.834 5.1-.119 10.87-2.97 12.39-2.669 2.02.403-.84.919-2.44 1.488-3.41 1.214-9.9 2.478-13.13 2.055-5.48-.716-15.59-2.162-24.04-3.136-3.63-.418-15.83-11.692-23.06-14.468-1.37-.526-4.24-6.106-4.35-6.185-4.53-3.238-20.03-14.492-20.83-14.206-5.59 1.992-22.6 9.159-25.39 9.243-5.86.177-14.16 1.917-20.85 2.395-1.1.079-20.78-4.823-20.8-3.698-.3 13.685-.66 28.235-.33 28.86 2.45 4.662 4.47 15.898 5.31 24.345.51 5.115 33.24 1.482 44.56-2.738 10.55-3.935 19.76-7.431 27.68-10.484.77-.3 3.08-1.099 2.3-.884-2.09.575.03-25.859 1.77-26.581.15-.066-.6 2.353-.66 4.582-.13 4.333.15 12.528-.19 16.648-.27 3.195 3.43 4.622 4.95 5.359 2.2 1.069 4.17 3.36 6.07 2.694 1.33-.467 28.93.165 31.09-4.319.16-.34 5.97-.416 5.97-.416s-5.72 1.773-7.63 2.622c-4.63 2.048-17.79 4.041-28.32 4.857-1.49.115-12.87-4.437-14.31-3.788-4.78 2.166-13.58 5.509-19.12 8.084-1.65.766 5.21 7.216 6.44 11.612.31 1.097 52.17-.605 52.56-.553 4.61.62-47.31 6.785-53.02 3.034-2.74-1.8-7.51-11.805-8.9-11.681-4.85.435-22.77 6.028-38.28 7.971-5.4.676-11.84 4.262-11.84 4.262.8 8.549 8.89 63.123 8.89 63.123 1.15-.109 6.08 2.562 9.09-.353 1.26-1.221 16.47-4.629 17.29-11.128.46-3.618.37-8.948-3.81-13.317-2.87-3.007-3.76-6.548-5.73-7.739-4.13-2.497-7.65-2.4-9.87-4.053-4.71-3.495-7.16-9.631-5.29-9.728 1.03-.054 2.28 5.484 5.04 7.666 3.05 2.422 7.74 1.656 11.31 4.796 4.43 3.889 7.15 13.343 12.59 18.652 2.32 2.269 4.25-3.66 5.53-4.709 1.16-.944 2.48-2.311 2.53-2.832.32-3.102 1.55-5.506.83-6.931-15.48-30.894-4.73-16.035 1.93-4.275.49.865-.66 1.566-.84 3.4-.24 2.359.09 5.97-.16 7.648-.23 1.611 1.23 2.553 2.57 1.317 4.34-3.968 15.26-7.34 11.54-10.012-1.53-1.104 8.31-20.458 7.7-19.006-.26.628-6.93 18.63-4.84 17.639 4.73-2.242 10.35-2.321 13.87-3.909 7.48-3.379 11.51-7.39 12.82-9.168 5.5-7.488 5.83-6.918.85 1.579-.27.461-5.51 5.597-11.42 8.394-5.64 2.668-12 2.983-12.15 3.168-.45.552-5.35 5.062-11.5 9.148-4.75 3.158-11.1 6.118-11.42 6.454-.77.824-14.12 7.506-10.38 10.197 1.48 1.065 3.61 4.075 8.75 4.547 3.16.29 13.83.539 21.5-3.281 14.32-7.132 25.21-18.983 1.11 2.771-1.65 1.492-22.26 4.019-23.31 3.884-2.22-.282-8.29-3.17-9.76-3.974.05-.123-.04-.199-.31-.207-.05-.001.07.075.31.207 2.43.808-21.3 7.739-23.51 19.021-3.61 18.444 13.34 49.755 8.42 49.755l7.67 97.77c1.92 1.128 3.4 2.327 2.97 3.196-2.16 4.617-10.15 10.11-18.07 10.062-14.22-.085-19.57-3.293-22.24-8.087-.9-1.631.85-3.753 1.82-4.616zm-10.28-222.915c-1.26-3.351 5.4-17.478 5.4-17.478l1.08 3.668zm5.4-39.271 3.11 12.352 1.64 6.636 2.15-7.552z" style="fill-opacity:.24" transform="matrix(1 0 0 1 -228.973 -228.973)"/><path d="m1120.45 488.285-5.49-.429c-.47 0-1.11-.074-1.47.105-.19.097-.57 1.117-.47 1.312.07.139.93.427 1.16.472.52.105 1.11.029 1.62.158 1.02.254 2.19-.255 3.21 0 .29.072.67.338.94.472.67.336 2.04-.075 2.62-.367.66-.328 1.28-.872 1.84-1.155.36-.178 1.28.038 1.52.157.07.036 1.17-.534 1.37-.734.14-.144.66.114.79.157.56.187 1.12.367 1.73.367.1 0 .23.123.36.053.61-.303 1.05-.865 1.79-1.05.33-.082 1.96.396 2.36.263.24-.079 1.41-.94 1.68-1.208.06-.061 1.31-.358 1.63-.682.08-.08.66 0 .79 0 .66 0 1.67.213 2.31 0 .18-.062 1.13-.591 1.52-.787.66-.329 1.58.416 2.2.105.38-.189.8-.293 1.16-.473.24-.121.71-.029.94-.105.48-.159.68-.676.95-.944.25-.258-.25-.618-.32-.683-.52-.523-1.86-.585-2.73-.682-.1-.011-.66-.064-.79 0-.62.314-.6 1.131-1.15 1.312-.64.215-1.73-.083-2.36-.21-.14-.028-.92-.182-1.05-.052-.09.091-.64.45-.79.525-.42.211-2.13.14-2.2 0-.06-.117-.21-1.103-.16-1.155.1-.099.1-.233.26-.315.68-.339 1.39 0 2.1 0 .23 0 .52.054.74 0 .97-.243 1.96-.496 2.99-.84.22-.074.61-.013.73.105.06.062.48 0 .58 0 .71 0 .33-.888 1-1.05 3.46-.84 2.69-1.77-.48-1.312-.12.018-1.56.084-2.09.263-.43.142-.62.524-1.16.524-.75 0-1.61.006-2.26-.315-.33-.168-1.21 0-1.57 0-.34 0-.93-.109-1.26 0-.12.041-1.29.08-1.37 0-.01-.012-1.83.002-2.15-.105-.53-.178-1.11-.187-1.68-.472-.18-.089-.31-.465-.42-.682-.37-.741 1.15-1.139 1.73-.945.33.109.55.699.9.525.5-.253 1.96-.99 2.1-.945.3.102 1.29-1.087 1.61-1.169.59-.146 1.28.795 1.84.515.1-.054.59-.606.64-.658.14-.14 2.75-1.213 2.7-1.403-.28-1.139-4.41-.898-5.43-.644-.55.138-.8.56-1.26.787-.46.234-1.14.473-1.84.473-.4 0-.94-.079-1.26-.315-.3-.227-.85-.589-1.2-.473-.85.282-2.01.671-2.68 0-.19-.19-.65.07-.84-.315-.34-.685.32-.868.79-1.102.39-.196 2.35.21 2.57.21.54 0 1.12.062 1.63-.105.22-.075.46-.308.68-.42.39-.194.87.352 1.15.21.33-.161.58-.835.74-1.155.03-.054.12-.351.05-.42-.44-.439-1.14-.555-1.84-.787-.21-.072-.75-.225-.99-.105-.27.134-.47.368-.68.472-.63.312-1.66.525-2.42.525-.94 0-1.63.271-2.47-.315-.12-.084-.33-.151-.42-.314-.33-.666.4-.612.69-.893.43-.438 1.04-.051 1.68-.262.37-.124.75-.158 1.15-.158.37 0 1.22-.115 1.26-.157.2-.203.37-.404.37-.787 0-.118.02-.329-.05-.368-1.78-.889-4.18-.273-5.78.525-.36.18-1.97.165-1.63-.525.2-.381 1.4-.882 1.63-.997.39-.194.99.055 1.42-.158.62-.311 1.42-.213 1.84-.629.1-.104.34-.082.42-.158.14-.143 1.9-1.036 1.9-1.14 0 0-1.9.458-1.94-.425-.54 0-1.91-.453-2.57-.123-.8.397-1.7.906-2.71 1.474-1.36.768-4.95 1.507-1.84-.737 1.13-.817 2.8-.657 4.42-1.474 3.94-1.976 3.2-1.899.49-1.474-1.61.253-3.62-.553-4.42.246-.34.344-1.21.352-1.47.614-.11.108-1.99.119-2.21.123-1.64.025-3.57-.138-.99-1.106.54-.201.37-.737.62-.737.83 0 2.52.52 3.32.123.8-.401.25-2.312 0-2.825-.2-.386-1.96-.376-2.22-.123-.16.164-.57.082-.73.245-.81.803-1.21 1.106-2.71 1.106-.21 0-3.73.442-3.87.305-.51-.519 2.63-1.882 2.89-2.148.78-.781 2.42 1.27 3.2.492.26-.266.13-.992.49-1.106 3.2-1.011 4.91-2.78.24-1.719-1.12.254-2.03.154-2.7.491-.72.362-1.39.86-2.58.86-.16 0-.88.099-.98 0l-.62-.614c-.22-.228.09-.783.25-.86 1.08-.539 3.07.886 3.07-.86 0-.099.08-.779 0-.86-1.16-1.162-3.26-.06-4.3.983-.52.52-1.57.343-1.96.737-.11.102-.93 0-1.11 0-1.29 0-.77.384-2.05.384-.17 0-1.8-.149-1.92-.037-.68.686-1.47.672-2.05 1.25-.71.712-2.91-.603-3.68-.86-1.25-.415-1.66.426-2.09.86-.04.035-.29.568-.13.737 1.19 1.181 3.71 1.404 5.04.737.41-.206 1.16-.087 1.48-.246 1-.502 2.18.142 2.97-.162 3.41-1.323 9.16-1.973 6.52.824-1.21 1.275-4.71 2.04-5.56 2.04-.39 0-2.38-.691-2.83-.245-.5.495-1.71.853-2.21 1.351-.11.112-.93 0-1.11 0-1.06 0-2.17-.467-3.19-.246-2.7.586-4.89 2.083-.61 1.966 1.82-.051 2.86-.141 4.05-.737.59-.294 1.98.251 2.46.491.29.145 1.03 0 1.35 0 1.53 0 2.67-.478 3.93-1.106.8-.402 2.19.083 2.82.246.5.126.99.595 1.48 0 .1-.13 1.38-.274 1.45-.123.11.229 1.29-.162 1.37.084.97 2.901-5.77 3.481-7 2.25-.08-.086-.83-.123-.98-.123-1.36 0-1.7.86-3.07.86-.73 0-1.56.094-2.21-.123-.23-.074-.73-.25-.99-.122-.27.134.1.583-.12.614-2.22.309-4.57 1.559-.12 1.474 2.35-.045 4.14 1.015 5.65-.492.06-.065 1.2-.031 1.23 0 .73.732 2.37.86 3.44.86 1.32 0 2.5-1.006 3.68-1.597 1.34-.667 3.07.123 4.3.737.26.13 1.03-.196 1.23 0 .14.144.22.349.37.492.5.499-.35 1.218-.62 1.351-1.07.537-2.9.562-3.93-.123-1.86-1.239-2.97.011-4.66.86-1.48.737-4.06-.737-5.53 0-.46.23-.57 1.081-1.11 1.351-.68.34-1.08.347-1.6.86-.08.086-1.84.739-1.72.86 1.29 1.295 5.49.546 7.13 0 .77-.255 1.33-1.401 1.97-1.72 1.63-.815 3.86 1.437 5.28 1.72 1.09.22 2.68-1.643 3.85-2.035.58-.193 2.18-.002 2.68-.07 4.96-.666 3.61.719-2.47 2.057-1 .222 5.45-.214 6.01.908.57 1.149-1.97 1.802-2.95 1.474-.89-.298-2.45-1.311-3.44-.983-.43.143-.83.664-1.23.86-.47.235-2.23.117-2.7 0-1.28-.319-2.57-2.137-3.93-1.228-.35.236-.55.817-.98 1.105-.26.17-.62.247-.74.369-.39.395-1.28-.099-1.72.123-.5.248-1.49.02-1.84.368-.18.182-2.05 1.79-2.19 2.065-.06.128 2.1-.177 2.4-.04 2.57 1.157 4.17-1.332 5.56-.919 1.43.422 2.69-.04 4.15-.04.85 0 2.06 1.287 2.85 1.022.68-.225 1.25-.866 1.97-1.105 1.17-.392 2.41.491 3.56.491.66 0 2.84-.6 3.32-.123.23.23.4.69.61 1.106 1.47 2.898-1.52 4.693-3.68 1.72-.11-.155-1.62.277-1.8.395-1.05.703-1.46 1.182-2.63 1.57-1.3.434-2.65-.343-3.68-.86-1.84-.919-2.33.202-3.93.737-1.46.487-3.55-.56-4.91.123-.4.198-2.32 1.365-1.75 1.707.94.571 1.56 1.791 2.67.787 4.55-4.146 5.26-1.429 6.32-1.757.65-.197 1.37.332 1.85.491 1.05.351 2.31.615 3.43.615.39 0 1.27.167 1.6 0 .55-.272 1.94-.815 2.58-.492.38.19 1.11 1.042 1.97.615 1.09-.547 1.78-.86 3.07-.86.55 0 1.07.69 1.72.368.26-.132 1.69-1.377 2.33-.737.3.298.69 1.058.98 1.351.63.627-1.58 1.512-1.84 1.597-1.73.577-4.36.594-6.14 0-1.25-.416-3.62-.343-4.55.614-.57.604-1.14 1.556-1.72 1.843z" style="fill:#fff;fill-opacity:.16" transform="matrix(1 0 0 .56104 -241.7 -34.777)"/><path d="m1120.45 488.285-5.49-.429c-.47 0-1.11-.074-1.47.105-.19.097-.57 1.117-.47 1.312.07.139.93.427 1.16.472.52.105 1.11.029 1.62.158 1.02.254 2.19-.255 3.21 0 .29.072.67.338.94.472.67.336 2.04-.075 2.62-.367.66-.328 1.28-.872 1.84-1.155.36-.178 1.28.038 1.52.157.07.036 1.17-.534 1.37-.734.14-.144.66.114.79.157.56.187 1.12.367 1.73.367.1 0 .23.123.36.053.61-.303 1.05-.865 1.79-1.05.33-.082 1.96.396 2.36.263.24-.079 1.41-.94 1.68-1.208.06-.061 1.31-.358 1.63-.682.08-.08.66 0 .79 0 .66 0 1.67.213 2.31 0 .18-.062 1.13-.591 1.52-.787.66-.329 1.58.416 2.2.105.38-.189.8-.293 1.16-.473.24-.121.71-.029.94-.105.48-.159.68-.676.95-.944.25-.258-.25-.618-.32-.683-.52-.523-1.86-.585-2.73-.682-.1-.011-.66-.064-.79 0-.62.314-.6 1.131-1.15 1.312-.64.215-1.73-.083-2.36-.21-.14-.028-.92-.182-1.05-.052-.09.091-.64.45-.79.525-.42.211-2.13.14-2.2 0-.06-.117-.21-1.103-.16-1.155.1-.099.1-.233.26-.315.68-.339 1.39 0 2.1 0 .23 0 .52.054.74 0 .97-.243 1.96-.496 2.99-.84.22-.074.61-.013.73.105.06.062.48 0 .58 0 .71 0 .33-.888 1-1.05 3.46-.84 2.69-1.77-.48-1.312-.12.018-1.56.084-2.09.263-.43.142-.62.524-1.16.524-.75 0-1.61.006-2.26-.315-.33-.168-1.21 0-1.57 0-.34 0-.93-.109-1.26 0-.12.041-1.29.08-1.37 0-.01-.012-1.83.002-2.15-.105-.53-.178-1.11-.187-1.68-.472-.18-.089-.31-.465-.42-.682-.37-.741 1.15-1.139 1.73-.945.33.109.55.699.9.525.5-.253 1.96-.99 2.1-.945.3.102 1.29-1.087 1.61-1.169.59-.146 1.28.795 1.84.515.1-.054.59-.606.64-.658.14-.14 2.75-1.213 2.7-1.403-.28-1.139-4.41-.898-5.43-.644-.55.138-.8.56-1.26.787-.46.234-1.14.473-1.84.473-.4 0-.94-.079-1.26-.315-.3-.227-.85-.589-1.2-.473-.85.282-2.01.671-2.68 0-.19-.19-.65.07-.84-.315-.34-.685.32-.868.79-1.102.39-.196 2.35.21 2.57.21.54 0 1.12.062 1.63-.105.22-.075.46-.308.68-.42.39-.194.87.352 1.15.21.33-.161.58-.835.74-1.155.03-.054.12-.351.05-.42-.44-.439-1.14-.555-1.84-.787-.21-.072-.75-.225-.99-.105-.27.134-.47.368-.68.472-.63.312-1.66.525-2.42.525-.94 0-1.63.271-2.47-.315-.12-.084-.33-.151-.42-.314-.33-.666.4-.612.69-.893.43-.438 1.04-.051 1.68-.262.37-.124.75-.158 1.15-.158.37 0 1.22-.115 1.26-.157.2-.203.37-.404.37-.787 0-.118.02-.329-.05-.368-1.78-.889-4.18-.273-5.78.525-.36.18-1.97.165-1.63-.525.2-.381 1.4-.882 1.63-.997.39-.194.99.055 1.42-.158.62-.311 1.42-.213 1.84-.629.1-.104.34-.082.42-.158.14-.143 1.9-1.036 1.9-1.14 0 0-1.9.458-1.94-.425-.54 0-1.91-.453-2.57-.123-.8.397-1.7.906-2.71 1.474-1.36.768-4.95 1.507-1.84-.737 1.13-.817 2.8-.657 4.42-1.474 3.94-1.976 3.2-1.899.49-1.474-1.61.253-3.62-.553-4.42.246-.34.344-1.21.352-1.47.614-.11.108-1.99.119-2.21.123-1.64.025-3.57-.138-.99-1.106.54-.201.37-.737.62-.737.83 0 2.52.52 3.32.123.8-.401.25-2.312 0-2.825-.2-.386-1.96-.376-2.22-.123-.16.164-.57.082-.73.245-.81.803-1.21 1.106-2.71 1.106-.21 0-3.73.442-3.87.305-.51-.519 2.63-1.882 2.89-2.148.78-.781 2.42 1.27 3.2.492.26-.266.13-.992.49-1.106 3.2-1.011 4.91-2.78.24-1.719-1.12.254-2.03.154-2.7.491-.72.362-1.39.86-2.58.86-.16 0-.88.099-.98 0l-.62-.614c-.22-.228.09-.783.25-.86 1.08-.539 3.07.886 3.07-.86 0-.099.08-.779 0-.86-1.16-1.162-3.26-.06-4.3.983-.52.52-1.57.343-1.96.737-.11.102-.93 0-1.11 0-1.29 0-.77.384-2.05.384-.17 0-1.8-.149-1.92-.037-.68.686-1.47.672-2.05 1.25-.71.712-2.91-.603-3.68-.86-1.25-.415-1.66.426-2.09.86-.04.035-.29.568-.13.737 1.19 1.181 3.71 1.404 5.04.737.41-.206 1.16-.087 1.48-.246 1-.502 2.18.142 2.97-.162 3.41-1.323 9.16-1.973 6.52.824-1.21 1.275-4.71 2.04-5.56 2.04-.39 0-2.38-.691-2.83-.245-.5.495-1.71.853-2.21 1.351-.11.112-.93 0-1.11 0-1.06 0-2.17-.467-3.19-.246-2.7.586-4.89 2.083-.61 1.966 1.82-.051 2.86-.141 4.05-.737.59-.294 1.98.251 2.46.491.29.145 1.03 0 1.35 0 1.53 0 2.67-.478 3.93-1.106.8-.402 2.19.083 2.82.246.5.126.99.595 1.48 0 .1-.13 1.38-.274 1.45-.123.11.229 1.29-.162 1.37.084.97 2.901-5.77 3.481-7 2.25-.08-.086-.83-.123-.98-.123-1.36 0-1.7.86-3.07.86-.73 0-1.56.094-2.21-.123-.23-.074-.73-.25-.99-.122-.27.134.1.583-.12.614-2.22.309-4.57 1.559-.12 1.474 2.35-.045 4.14 1.015 5.65-.492.06-.065 1.2-.031 1.23 0 .73.732 2.37.86 3.44.86 1.32 0 2.5-1.006 3.68-1.597 1.34-.667 3.07.123 4.3.737.26.13 1.03-.196 1.23 0 .14.144.22.349.37.492.5.499-.35 1.218-.62 1.351-1.07.537-2.9.562-3.93-.123-1.86-1.239-2.97.011-4.66.86-1.48.737-4.06-.737-5.53 0-.46.23-.57 1.081-1.11 1.351-.68.34-1.08.347-1.6.86-.08.086-1.84.739-1.72.86 1.29 1.295 5.49.546 7.13 0 .77-.255 1.33-1.401 1.97-1.72 1.63-.815 3.86 1.437 5.28 1.72 1.09.22 2.68-1.643 3.85-2.035.58-.193 2.18-.002 2.68-.07 4.96-.666 3.61.719-2.47 2.057-1 .222 5.45-.214 6.01.908.57 1.149-1.97 1.802-2.95 1.474-.89-.298-2.45-1.311-3.44-.983-.43.143-.83.664-1.23.86-.47.235-2.23.117-2.7 0-1.28-.319-2.57-2.137-3.93-1.228-.35.236-.55.817-.98 1.105-.26.17-.62.247-.74.369-.39.395-1.28-.099-1.72.123-.5.248-1.49.02-1.84.368-.18.182-2.05 1.79-2.19 2.065-.06.128 2.1-.177 2.4-.04 2.57 1.157 4.17-1.332 5.56-.919 1.43.422 2.69-.04 4.15-.04.85 0 2.06 1.287 2.85 1.022.68-.225 1.25-.866 1.97-1.105 1.17-.392 2.41.491 3.56.491.66 0 2.84-.6 3.32-.123.23.23.4.69.61 1.106 1.47 2.898-1.52 4.693-3.68 1.72-.11-.155-1.62.277-1.8.395-1.05.703-1.46 1.182-2.63 1.57-1.3.434-2.65-.343-3.68-.86-1.84-.919-2.33.202-3.93.737-1.46.487-3.55-.56-4.91.123-.4.198-2.32 1.365-1.75 1.707.94.571 1.56 1.791 2.67.787 4.55-4.146 5.26-1.429 6.32-1.757.65-.197 1.37.332 1.85.491 1.05.351 2.31.615 3.43.615.39 0 1.27.167 1.6 0 .55-.272 1.94-.815 2.58-.492.38.19 1.11 1.042 1.97.615 1.09-.547 1.78-.86 3.07-.86.55 0 1.07.69 1.72.368.26-.132 1.69-1.377 2.33-.737.3.298.69 1.058.98 1.351.63.627-1.58 1.512-1.84 1.597-1.73.577-4.36.594-6.14 0-1.25-.416-3.62-.343-4.55.614-.57.604-1.14 1.556-1.72 1.843z" style="fill:#fff;fill-opacity:.17" transform="matrix(.86687 0 0 .3616 -113.557 42.782)"/><path d="m1120.45 488.285-5.49-.429c-.47 0-1.11-.074-1.47.105-.19.097-.57 1.117-.47 1.312.07.139.93.427 1.16.472.52.105 1.11.029 1.62.158 1.02.254 2.19-.255 3.21 0 .29.072.67.338.94.472.67.336 2.04-.075 2.62-.367.66-.328 1.28-.872 1.84-1.155.36-.178 1.28.038 1.52.157.07.036 1.17-.534 1.37-.734.14-.144.66.114.79.157.56.187 1.12.367 1.73.367.1 0 .23.123.36.053.61-.303 1.05-.865 1.79-1.05.33-.082 1.96.396 2.36.263.24-.079 1.41-.94 1.68-1.208.06-.061 1.31-.358 1.63-.682.08-.08.66 0 .79 0 .66 0 1.67.213 2.31 0 .18-.062 1.13-.591 1.52-.787.66-.329 1.58.416 2.2.105.38-.189.8-.293 1.16-.473.24-.121.71-.029.94-.105.48-.159.68-.676.95-.944.25-.258-.25-.618-.32-.683-.52-.523-1.86-.585-2.73-.682-.1-.011-.66-.064-.79 0-.62.314-.6 1.131-1.15 1.312-.64.215-1.73-.083-2.36-.21-.14-.028-.92-.182-1.05-.052-.09.091-.64.45-.79.525-.42.211-2.13.14-2.2 0-.06-.117-.21-1.103-.16-1.155.1-.099.1-.233.26-.315.68-.339 1.39 0 2.1 0 .23 0 .52.054.74 0 .97-.243 1.96-.496 2.99-.84.22-.074.61-.013.73.105.06.062.48 0 .58 0 .71 0 .33-.888 1-1.05 3.46-.84 2.69-1.77-.48-1.312-.12.018-1.56.084-2.09.263-.43.142-.62.524-1.16.524-.75 0-1.61.006-2.26-.315-.33-.168-1.21 0-1.57 0-.34 0-.93-.109-1.26 0-.12.041-1.29.08-1.37 0-.01-.012-1.83.002-2.15-.105-.53-.178-1.11-.187-1.68-.472-.18-.089-.31-.465-.42-.682-.37-.741 1.15-1.139 1.73-.945.33.109.55.699.9.525.5-.253 1.96-.99 2.1-.945.3.102 1.29-1.087 1.61-1.169.59-.146 1.28.795 1.84.515.1-.054.59-.606.64-.658.14-.14 2.75-1.213 2.7-1.403-.28-1.139-4.41-.898-5.43-.644-.55.138-.8.56-1.26.787-.46.234-1.14.473-1.84.473-.4 0-.94-.079-1.26-.315-.3-.227-.85-.589-1.2-.473-.85.282-2.01.671-2.68 0-.19-.19-.65.07-.84-.315-.34-.685.32-.868.79-1.102.39-.196 2.35.21 2.57.21.54 0 1.12.062 1.63-.105.22-.075.46-.308.68-.42.39-.194.87.352 1.15.21.33-.161.58-.835.74-1.155.03-.054.12-.351.05-.42-.44-.439-1.14-.555-1.84-.787-.21-.072-.75-.225-.99-.105-.27.134-.47.368-.68.472-.63.312-1.66.525-2.42.525-.94 0-1.63.271-2.47-.315-.12-.084-.33-.151-.42-.314-.33-.666.4-.612.69-.893.43-.438 1.04-.051 1.68-.262.37-.124.75-.158 1.15-.158.37 0 1.22-.115 1.26-.157.2-.203.37-.404.37-.787 0-.118.02-.329-.05-.368-1.78-.889-4.18-.273-5.78.525-.36.18-1.97.165-1.63-.525.2-.381 1.4-.882 1.63-.997.39-.194.99.055 1.42-.158.62-.311 1.42-.213 1.84-.629.1-.104.34-.082.42-.158.14-.143 1.9-1.036 1.9-1.14 0 0-1.9.458-1.94-.425-.54 0-1.91-.453-2.57-.123-.8.397-1.7.906-2.71 1.474-1.36.768-4.95 1.507-1.84-.737 1.13-.817 2.8-.657 4.42-1.474 3.94-1.976 3.2-1.899.49-1.474-1.61.253-3.62-.553-4.42.246-.34.344-1.21.352-1.47.614-.11.108-1.99.119-2.21.123-1.64.025-3.57-.138-.99-1.106.54-.201.37-.737.62-.737.83 0 2.52.52 3.32.123.8-.401.25-2.312 0-2.825-.2-.386-1.96-.376-2.22-.123-.16.164-.57.082-.73.245-.81.803-1.21 1.106-2.71 1.106-.21 0-3.73.442-3.87.305-.51-.519 2.63-1.882 2.89-2.148.78-.781 2.42 1.27 3.2.492.26-.266.13-.992.49-1.106 3.2-1.011 4.91-2.78.24-1.719-1.12.254-2.03.154-2.7.491-.72.362-1.39.86-2.58.86-.16 0-.88.099-.98 0l-.62-.614c-.22-.228.09-.783.25-.86 1.08-.539 3.07.886 3.07-.86 0-.099.08-.779 0-.86-1.16-1.162-3.26-.06-4.3.983-.52.52-1.57.343-1.96.737-.11.102-.93 0-1.11 0-1.29 0-.77.384-2.05.384-.17 0-1.8-.149-1.92-.037-.68.686-1.47.672-2.05 1.25-.71.712-2.91-.603-3.68-.86-1.25-.415-1.66.426-2.09.86-.04.035-.29.568-.13.737 1.19 1.181 3.71 1.404 5.04.737.41-.206 1.16-.087 1.48-.246 1-.502 2.18.142 2.97-.162 3.41-1.323 9.16-1.973 6.52.824-1.21 1.275-4.71 2.04-5.56 2.04-.39 0-2.38-.691-2.83-.245-.5.495-1.71.853-2.21 1.351-.11.112-.93 0-1.11 0-1.06 0-2.17-.467-3.19-.246-2.7.586-4.89 2.083-.61 1.966 1.82-.051 2.86-.141 4.05-.737.59-.294 1.98.251 2.46.491.29.145 1.03 0 1.35 0 1.53 0 2.67-.478 3.93-1.106.8-.402 2.19.083 2.82.246.5.126.99.595 1.48 0 .1-.13 1.38-.274 1.45-.123.11.229 1.29-.162 1.37.084.97 2.901-5.77 3.481-7 2.25-.08-.086-.83-.123-.98-.123-1.36 0-1.7.86-3.07.86-.73 0-1.56.094-2.21-.123-.23-.074-.73-.25-.99-.122-.27.134.1.583-.12.614-2.22.309-4.57 1.559-.12 1.474 2.35-.045 4.14 1.015 5.65-.492.06-.065 1.2-.031 1.23 0 .73.732 2.37.86 3.44.86 1.32 0 2.5-1.006 3.68-1.597 1.34-.667 3.07.123 4.3.737.26.13 1.03-.196 1.23 0 .14.144.22.349.37.492.5.499-.35 1.218-.62 1.351-1.07.537-2.9.562-3.93-.123-1.86-1.239-2.97.011-4.66.86-1.48.737-4.06-.737-5.53 0-.46.23-.57 1.081-1.11 1.351-.68.34-1.08.347-1.6.86-.08.086-1.84.739-1.72.86 1.29 1.295 5.49.546 7.13 0 .77-.255 1.33-1.401 1.97-1.72 1.63-.815 3.86 1.437 5.28 1.72 1.09.22 2.68-1.643 3.85-2.035.58-.193 2.18-.002 2.68-.07 4.96-.666 3.61.719-2.47 2.057-1 .222 5.45-.214 6.01.908.57 1.149-1.97 1.802-2.95 1.474-.89-.298-2.45-1.311-3.44-.983-.43.143-.83.664-1.23.86-.47.235-2.23.117-2.7 0-1.28-.319-2.57-2.137-3.93-1.228-.35.236-.55.817-.98 1.105-.26.17-.62.247-.74.369-.39.395-1.28-.099-1.72.123-.5.248-1.49.02-1.84.368-.18.182-2.05 1.79-2.19 2.065-.06.128 2.1-.177 2.4-.04 2.57 1.157 4.17-1.332 5.56-.919 1.43.422 2.69-.04 4.15-.04.85 0 2.06 1.287 2.85 1.022.68-.225 1.25-.866 1.97-1.105 1.17-.392 2.41.491 3.56.491.66 0 2.84-.6 3.32-.123.23.23.4.69.61 1.106 1.47 2.898-1.52 4.693-3.68 1.72-.11-.155-1.62.277-1.8.395-1.05.703-1.46 1.182-2.63 1.57-1.3.434-2.65-.343-3.68-.86-1.84-.919-2.33.202-3.93.737-1.46.487-3.55-.56-4.91.123-.4.198-2.32 1.365-1.75 1.707.94.571 1.56 1.791 2.67.787 4.55-4.146 5.26-1.429 6.32-1.757.65-.197 1.37.332 1.85.491 1.05.351 2.31.615 3.43.615.39 0 1.27.167 1.6 0 .55-.272 1.94-.815 2.58-.492.38.19 1.11 1.042 1.97.615 1.09-.547 1.78-.86 3.07-.86.55 0 1.07.69 1.72.368.26-.132 1.69-1.377 2.33-.737.3.298.69 1.058.98 1.351.63.627-1.58 1.512-1.84 1.597-1.73.577-4.36.594-6.14 0-1.25-.416-3.62-.343-4.55.614-.57.604-1.14 1.556-1.72 1.843z" style="fill:#fff;fill-opacity:.11" transform="matrix(1.19834 0 -.24737 .72062 -320.925 -84.076)"/></g></g></svg>