<?xml version="1.0" encoding="UTF-8" standalone="no"?>
<!DOCTYPE svg PUBLIC "-//W3C//DTD SVG 1.1//EN" "http://www.w3.org/Graphics/SVG/1.1/DTD/svg11.dtd">
<svg width="1200" height="945" viewBox="0 0 1200 945" version="1.1" xmlns="http://www.w3.org/2000/svg" xmlns:xlink="http://www.w3.org/1999/xlink" xml:space="preserve" xmlns:serif="http://www.serif.com/" style="fill-rule:evenodd;clip-rule:evenodd;stroke-linejoin:round;stroke-miterlimit:2;">
    <g transform="matrix(0.194407,0,0,0.194407,549.557,-11.5258)">
        <g transform="matrix(5.14384,0,0,5.14384,-4012.44,-1132.17)">
            <path d="M833.008,443.713C829.936,440.746 828.302,441.545 838.424,446.679C857.874,453.422 883.791,454.695 902.025,450.494L878.142,433.742L847.023,426.838L827.703,421.38C820.549,421.721 817.108,420.527 829.456,419.268L851.1,425.345L874.408,428.041L865.411,412.256L853.543,410.327L837.357,416.024L846.091,410.188C849.125,408.539 852.407,408.473 855.44,408.259C858.84,408.021 859.346,407.81 862.745,409.175L869.567,410.627C877.109,430.374 907.184,451.675 907.184,446.792C915.072,458.758 925.482,467.706 933.37,469.944L944.005,478.425C938.102,470.493 934.03,458.288 932.097,441.093C931.863,436.595 929.029,432.747 924.079,429.428L914.254,424.483C918.099,425.989 921.399,427.631 924.079,429.428L930.864,432.843L937.449,449.004C940.423,470.886 941.332,456.426 939.43,465.82L952.743,478.601C965.993,491.209 963.162,480.024 965.168,485.136L966.558,469.809L970.234,453.885L972.448,432.583C959.573,432.258 944.267,425.941 931.391,415.887L919.675,416.421L903.639,416.987L861.887,393.754C857.479,392.068 852.647,387.41 847.023,377.211C842.872,351.062 839.171,344.509 851.809,381.096C855.55,389.262 862.931,391.686 866.672,392.555L910.523,413.107L895.629,399.791C888.953,392.282 885.585,387.501 882.44,374.694L878.736,360.997C879.096,350.272 876.262,341.364 882.861,366.293L886.275,376.423L893.84,391.01C901.667,406.298 917.967,411.719 924.574,408.726L908.217,387.467L903.983,365.23L901.777,354.217C899.924,345.309 897.425,341.712 905.487,358.352L907.114,365.399L911.483,387.475C918.175,398.946 926.568,410.585 932.032,411.005C946.992,421.213 960.546,427.124 974.266,425.866L978.885,408.4C978.779,397.382 979.53,387.268 981.856,377.467C981.413,375.237 977.34,373.542 973.369,373.076C962.734,375.283 953.244,370.925 945.04,368.268L928.776,356.533C923.888,355.575 918.103,353.046 909.685,345.91L902.302,329.909C903.024,327.548 905.138,335.401 909.978,338.221L915.051,346.212C920.88,350.884 926.624,354.06 932.018,352.993L930.879,341.393L927.092,328.52C927.121,324.146 925.067,323.041 929.565,327.216L932.404,339.657L936.121,357.392C945.149,367.721 962.621,370.988 971.173,368.536C978.117,367.524 974.861,369.296 981.806,370.717C979.512,363.426 977.902,340.822 980.439,341.166L985.34,328.862C986.728,334.641 984.764,335.919 985.388,343.489L987.112,354.029L1001.03,348.105L1011.23,337.52L1019.98,325.639L1026.36,324.221L1005.85,349.796L991.881,358.357L989.358,366.878C991.642,395.76 990.418,401.704 991.484,397.689C1004.31,405.137 1034.96,381.875 1043.28,368.72L1049.62,352.643C1050.43,350.774 1049.25,345.482 1052.76,352.022C1053.98,353.242 1046.16,374.368 1040.26,377.211L1033.5,387.127C1043.67,389.214 1057.37,386.854 1064.66,383.011L1071.48,369.115L1075.01,367.214L1066.67,385.046L1048.15,391.898L1028.93,391.785C1018.38,402.267 1004.11,407.266 989.911,408.019L985.429,453.387L1018.57,445.89L1069.24,423.871L1093.34,406.909C1094.3,399.266 1091.21,386.32 1084.85,368.94C1076.21,365.228 1070.02,359.352 1061.38,348.344C1059.13,346.045 1055.9,343.13 1056.09,331.089C1061.02,319.886 1062.03,317.01 1062.55,323.448C1047.98,339.428 1080.12,370.054 1088.84,360.421L1093.42,352.363C1098.94,345.908 1094.18,335.614 1094.38,327.829L1096.39,327.322C1096.89,333.156 1097.17,338.084 1098.31,341.025C1099.05,350.674 1098.85,355.155 1092.28,364.804C1094.21,375.841 1095.04,387.061 1099.8,405.179L1118.32,385.805L1128.47,373.145C1131.13,369.85 1135.04,366.684 1122.01,348.262C1125.17,350.468 1118.94,342.11 1114.58,335.855L1108.77,333.317C1105.24,325.445 1108.76,328.315 1119.34,336.318L1122.19,339.69C1131.98,360.001 1128.78,350.807 1130.95,354.732L1136.23,340.624L1147.63,326.34C1160.29,315.322 1159.51,316.581 1154.51,324.989L1144.31,335.855L1138.86,348.262C1134.5,365.411 1135.66,368.996 1138.64,366.559C1147.08,354.439 1155.05,350.071 1172,348.896L1189.43,337.607C1198.61,333.665 1206.55,330.531 1188.99,342.558C1181.52,346.552 1175.47,353.637 1158.26,355.196C1128.9,374.561 1117.9,389.859 1111.01,400.139C1126.25,397.08 1145.42,395.152 1159.44,393.309C1172.6,393.752 1183.41,391.645 1188.3,383.032C1189.77,380.442 1196.62,375.441 1186.64,367.684C1186.01,360.82 1188.97,362.937 1194.43,371.11C1196.63,377.259 1195.46,381.834 1190.37,387.983L1210.21,374.638C1228.99,356.645 1223.73,361.817 1214.23,374.761L1193.81,391.021C1178.96,396.483 1162.92,398.508 1151.74,397.889L1122.92,402.968C1108.01,407.483 1091.21,417.725 1081.16,424.669C1095.5,431.969 1131.31,433.462 1139.58,430.121L1152.09,424.28C1165.3,418.375 1167.68,415.652 1156.19,426.508L1139.02,433.787C1117.39,436.421 1098.44,434.269 1075.59,429.606L1049.49,440.687C1048.85,441.495 1048.15,442.372 1047.38,443.312C1040.79,452.985 1033.71,466.25 1030.63,475.922L1065.01,466.337C1071.34,465.878 1073.6,460.161 1076.4,452.647C1082.81,445.652 1085.13,443.521 1077.42,458.586C1074.68,465.831 1064.74,469.053 1057.59,471.007L1031.21,479.766C1019.19,489.822 1006.5,491.949 989.601,506.845C991.891,520.221 992.386,535.27 992.008,547.842L992.019,553.174L992.308,560.854L987.002,629.19C974.062,636.022 964.342,633.873 957.138,624.707L958.82,560.296C961.086,559.724 959.17,546.433 961.223,547.783L957.522,509.106C958.326,503.757 952.336,497.508 942.557,490.395C927.077,492.992 908.506,494.726 888.616,494.677L869.319,505.415C853.755,508.258 844.035,504.034 829.687,497.143C824.397,494.685 819.292,492.978 817.438,492.394L817.438,492.393C816.399,492.09 816.522,492.105 817.438,492.394C819.266,492.927 824.688,494.446 835.715,497.192C852.427,505.241 872.493,506.17 882.458,493.752C870.655,493.92 855.178,487.243 847.023,476.465C844.726,465.972 845.398,472.242 852.802,480.268C863.401,492.688 877.529,491.595 886.913,491.85C907.534,492.668 927.059,491.274 943.271,485.919C939.723,485.189 929.167,478.017 917.683,470.232C901.151,475.271 884.619,477.166 868.087,466.37C859.936,462.87 859.259,463.263 864.94,465.058L864.94,465.058L864.944,465.059C868.327,466.128 873.961,467.693 881.611,469.228C890.876,476.063 909.157,472.421 917.206,464.663L901.455,454.448C878.281,456.474 859.738,453.961 836.564,448.69C835.549,446.509 834.175,444.84 833.009,443.713L833.008,443.713L833.008,443.713ZM1046.14,442.006C1047.55,441.548 1048.76,441.141 1049.49,440.687C1049.01,440.397 1048.32,440.877 1046.14,442.006C1043.43,442.891 1039.99,443.967 1037.91,445.946L1007.77,458.39L986.442,464.315L988.729,495.572C993.25,495.456 1028.05,478.394 1028.62,470.427L1038.36,452.113C1040.8,449.735 1042.17,444.835 1044.05,443.055C1044.87,442.66 1045.56,442.31 1046.14,442.006Z" style="fill:white;"/>
        </g>
        <g transform="matrix(5.14384,0,0,5.14384,-4004.64,-1118.52)">
            <path d="M831.326,443.433C828.254,440.466 826.62,441.265 836.742,446.399C856.192,453.142 882.109,454.415 900.343,450.214L876.46,433.462L845.341,426.558L826.021,421.1C817.226,415.862 814.521,417.171 827.774,418.989L849.418,425.066L872.725,427.762L863.728,411.977L851.861,410.047L834.537,414.038L844.409,409.908C847.442,408.259 850.724,408.193 853.758,407.98C857.157,407.741 857.663,407.53 861.063,408.895L867.885,410.347C875.426,430.094 905.502,451.395 905.502,446.512C913.39,458.479 923.799,467.426 931.688,469.664L942.322,478.145C936.419,470.213 932.347,458.009 930.415,440.813C930.18,436.315 927.347,432.467 922.397,429.148L912.572,424.203C916.416,425.709 920.848,426.346 923.527,428.143L929.182,432.564L935.767,448.725C938.74,470.606 940.78,456.146 938.878,465.54L951.061,478.321C952.87,480.043 953.079,481.866 953.813,483.256C959.704,494.421 959.728,491.069 963.486,484.857L964.876,469.529L968.552,453.606L970.766,432.303C957.891,431.978 942.584,425.661 929.709,415.607L917.993,416.141L901.957,416.707L860.205,393.474C855.797,391.788 850.965,387.13 845.341,376.931C843.195,350.908 840.515,344.418 850.126,380.816C853.868,388.982 861.248,391.406 864.99,392.275L893.345,405.564C893.961,407.521 900.518,413.134 903.015,412.833L906.507,412.265L908.841,412.827L893.947,399.512C887.27,392.002 883.903,387.221 880.757,374.415L877.054,360.717C879.043,350.117 877.038,341.273 881.179,366.013L884.592,376.144L892.158,390.73C896.189,398.604 902.432,401.763 907.418,406.204C908.217,406.916 910.079,409.719 911.564,410.042C913.086,410.373 914.992,409.385 916.104,409.051C917.284,408.697 918.475,409.275 919.529,409.209C920.811,409.129 921.95,408.873 922.892,408.446C915.133,403.923 911.136,395.22 906.534,387.187L902.3,364.95L900.095,353.937C900.296,345.828 899.372,342.844 903.805,358.073L905.432,365.12L909.801,387.195C916.493,398.666 924.885,410.305 930.349,410.725C945.309,420.934 958.864,426.844 972.583,425.586L976.286,408.273C977.25,398.504 978.459,388.593 979.41,377.187C978.966,374.957 975.657,373.262 971.687,372.796C961.051,375.003 951.561,370.645 943.358,367.988L927.094,356.253C922.206,355.295 916.421,352.766 908.003,345.63L902.15,329.511C902.872,327.15 903.456,335.121 908.295,337.941L913.369,345.932C919.198,350.604 924.941,353.78 930.336,352.713L929.197,341.113L926.116,328.24C926.145,323.866 924.68,322.643 929.177,326.818L932.252,340.908L934.438,357.112C943.467,367.441 960.938,370.708 969.49,368.256C976.435,367.244 973.178,369.016 980.123,370.437C977.83,363.146 976.22,340.543 978.756,340.887L984.475,327.746C985.864,333.525 983.082,335.639 983.706,343.21L985.43,353.749L999.348,347.825L1009.55,337.24L1018.29,325.359L1024.72,321.399L1004.17,349.516L990.199,358.077L987.675,366.599C989.29,387.008 988.678,396.198 989.851,397.882C990.256,398.463 992.374,398.176 993.336,398.315C995.202,398.583 997.51,397.533 999.751,398.305C1005.35,400.232 1010.18,398.364 1012.61,392.637C1012.97,391.772 1014.26,391.713 1015.08,391.225C1026.13,384.686 1037.11,375.085 1041.6,368.441L1047.93,352.363C1048.75,350.494 1047.57,345.202 1051.08,351.742C1052.3,352.962 1044.48,374.088 1038.58,376.931L1031.81,386.847C1041.99,388.934 1055.69,386.574 1062.97,382.732L1069.79,368.835L1073.33,366.934L1064.99,384.766L1046.46,391.618L1027.25,391.505C1016.7,401.987 1002.73,406.987 988.534,407.739L983.747,453.107L1001.81,449.022C1015.47,451.199 1013.14,447.494 1016.89,445.61L1067.56,423.591L1091.66,406.629C1092.62,398.986 1089.52,386.04 1083.17,368.66C1074.53,364.949 1068.34,359.072 1059.69,348.064C1057.45,345.765 1054.21,342.85 1054.4,330.809C1059.34,319.607 1060.35,316.73 1060.87,323.168C1046.29,339.148 1078.43,369.774 1087.16,360.141L1091.74,352.083C1097.26,345.628 1092.5,335.334 1092.7,327.549L1094.71,327.042C1095.2,332.877 1095.49,337.804 1096.63,340.745C1097.37,350.394 1097.16,354.875 1090.6,364.524C1092.53,375.562 1093.36,386.781 1098.12,404.899L1116.64,385.526L1126.79,372.865C1129.45,369.57 1133.36,366.404 1120.33,347.982C1123.49,350.189 1117.26,341.83 1112.9,335.575L1107.09,333.037C1103.56,325.165 1107.08,328.035 1117.65,336.038L1120.5,339.41C1130.3,359.721 1127.09,350.527 1129.27,354.452L1134.55,340.345L1145.95,326.06C1158.61,315.042 1157.83,316.302 1152.83,324.709L1142.62,335.575L1137.18,347.982C1132.81,365.131 1133.98,368.716 1136.96,366.279C1145.4,354.159 1153.37,349.791 1170.32,348.616L1187.74,337.328C1196.92,333.385 1204.87,330.251 1187.31,342.278C1179.84,346.272 1173.79,353.357 1156.58,354.916C1127.21,374.281 1116.22,389.579 1109.33,399.859C1124.56,396.8 1143.73,394.872 1157.75,393.029C1170.92,393.472 1181.73,391.365 1186.62,382.752C1188.09,380.162 1194.94,375.161 1184.96,367.404C1184.33,360.54 1187.29,362.657 1192.75,370.83C1194.95,376.979 1193.77,381.554 1188.68,387.703L1208.53,374.358C1227.31,356.365 1222.05,361.538 1212.54,374.481L1192.13,390.741C1177.28,396.203 1161.24,398.228 1150.06,397.609L1121.24,402.688C1106.33,407.204 1089.53,417.446 1079.48,424.389C1093.82,431.689 1129.63,433.182 1137.89,429.841L1150.41,424C1163.62,418.095 1166,415.372 1154.51,426.228L1137.33,433.507C1115.71,436.141 1096.76,433.989 1073.91,429.326L1047.8,440.407C1047.17,441.215 1046.46,442.092 1045.7,443.033C1039.1,452.705 1032.02,465.97 1028.95,475.642L1063.33,466.057C1069.66,465.598 1071.91,459.881 1074.72,452.367C1081.12,445.372 1083.45,443.241 1075.74,458.306C1073,465.551 1063.06,468.774 1055.91,470.727L1029.53,479.486C1017.51,489.542 1004.82,491.669 987.919,506.566C990.209,519.941 990.704,534.99 990.325,547.562L986.48,628.569C981.338,632.241 980.027,633.17 976.824,632.724C974.355,632.38 970.705,631.288 963.533,630.658C960.529,630.394 958.66,627.218 957.016,624.571C956.546,585.389 957.59,546.221 959.541,547.504L955.84,508.826C956.644,503.477 950.653,497.228 940.875,490.115C925.395,492.712 906.824,494.446 886.934,494.397L867.637,505.135C852.073,507.978 842.352,503.754 828.005,496.864C822.715,494.405 817.61,492.698 815.756,492.114L815.755,492.114C814.716,491.81 814.84,491.825 815.756,492.114C817.583,492.648 823.006,494.166 834.032,496.912C850.745,504.961 870.811,505.89 880.776,493.472C868.973,493.64 853.496,486.963 845.341,476.186C843.043,465.692 843.716,471.963 851.119,479.988C863.094,490.345 876.512,490.318 885.231,491.57C905.852,492.388 925.377,490.994 941.589,485.639C938.041,484.909 927.485,477.737 916,469.952C899.468,474.991 882.936,476.886 866.404,466.09C858.253,462.59 857.577,462.984 863.258,464.778L863.262,464.779C866.645,465.848 872.279,467.413 879.928,468.948C889.194,475.784 907.475,472.141 915.524,464.383L899.772,454.168C876.599,456.194 858.055,453.681 834.882,448.41C833.866,446.229 832.493,444.56 831.326,443.433L831.326,443.433ZM1044.46,441.727C1045.87,441.268 1047.08,440.861 1047.8,440.407C1047.33,440.117 1046.63,440.597 1044.46,441.727C1041.75,442.611 1038.31,443.687 1036.23,445.666L1006.09,458.11L984.76,464.035L987.047,495.292C993.634,498.39 1027.26,479.503 1026.94,470.148L1036.68,451.833C1039.12,449.456 1040.49,444.555 1042.36,442.775C1043.18,442.38 1043.88,442.03 1044.46,441.727Z" style="fill:rgb(86,72,53);"/>
        </g>
        <g transform="matrix(5.14384,0,0,5.14384,-4016.74,-1122.34)">
            <path d="M980.861,623.452C975.65,624.416 970.176,624.068 964.034,620.374C969.28,625.747 974.993,625.535 980.861,623.452Z" style="fill-opacity:0.27;"/>
        </g>
        <g transform="matrix(5.14384,0,0,5.14384,-4008.46,-1398.08)">
            <path d="M980.861,623.452C975.65,624.416 970.176,624.068 964.034,620.374C969.28,625.747 974.993,625.535 980.861,623.452Z" style="fill-opacity:0.27;"/>
        </g>
        <g transform="matrix(5.1893,0,0,4.89745,-4076.24,-1522.56)">
            <path d="M980.861,623.452C975.65,624.416 970.176,624.068 964.034,620.374C969.28,625.747 974.993,625.535 980.861,623.452Z" style="fill-opacity:0.27;"/>
        </g>
        <g transform="matrix(5.14384,0,0,5.14384,-4004.64,-1118.52)">
            <path d="M981.066,614.628C975.015,617.112 969.258,616.811 963.829,613.397C969.907,615.639 975.608,615.801 981.066,614.628Z" style="fill-opacity:0.27;"/>
        </g>
        <g transform="matrix(5.14384,0,0,5.14384,-3996.36,-1394.26)">
            <path d="M981.066,614.628C975.015,617.112 969.258,616.811 963.829,613.397C969.907,615.639 975.608,615.801 981.066,614.628Z" style="fill-opacity:0.27;"/>
        </g>
        <g transform="matrix(5.1893,0,0,5.14384,-4043.24,-1677.06)">
            <path d="M981.066,614.628C975.015,617.112 969.258,616.811 963.829,613.397C969.907,615.639 975.608,615.801 981.066,614.628Z" style="fill-opacity:0.27;"/>
        </g>
        <g transform="matrix(5.14384,0,0,5.14384,-3992.54,-1118.52)">
            <path d="M981.887,606.83C976.004,608.613 970.122,608.684 964.239,605.188C970.122,610.495 976.004,609.908 981.887,606.83Z" style="fill-opacity:0.27;"/>
        </g>
        <g transform="matrix(5.14384,0,0,5.14384,-3984.26,-1394.26)">
            <path d="M981.887,606.83C976.004,608.613 970.122,608.684 964.239,605.188C970.122,610.495 976.004,609.908 981.887,606.83Z" style="fill-opacity:0.27;"/>
        </g>
        <g transform="matrix(5.1893,0,0,5.14384,-4031.03,-1677.06)">
            <path d="M981.887,606.83C976.004,608.613 970.122,608.684 964.239,605.188C970.122,610.495 976.004,609.908 981.887,606.83Z" style="fill-opacity:0.27;"/>
        </g>
        <g transform="matrix(5.14384,0,0,5.14384,-4004.64,-1118.52)">
            <path d="M982.503,599.032C976.833,601.204 970.84,601.323 964.239,597.595C970.327,602.73 976.415,601.974 982.503,599.032Z" style="fill-opacity:0.27;"/>
        </g>
        <g transform="matrix(5.14384,0,0,5.14384,-3996.36,-1394.26)">
            <path d="M982.503,599.032C976.833,601.204 970.84,601.323 964.239,597.595C970.327,602.73 976.415,601.974 982.503,599.032Z" style="fill-opacity:0.27;"/>
        </g>
        <g transform="matrix(5.1893,0,0,5.14384,-4043.24,-1677.06)">
            <path d="M982.503,599.032C976.833,601.204 970.84,601.323 964.239,597.595C970.327,602.73 976.415,601.974 982.503,599.032Z" style="fill-opacity:0.27;"/>
        </g>
        <g transform="matrix(5.14384,0,0,5.14384,-4014.83,-1121.06)">
            <path d="M982.913,591.85C976.346,593.64 969.78,593.485 963.213,590.618C969.464,594.655 976.041,594.954 982.913,591.85Z" style="fill-opacity:0.27;"/>
        </g>
        <g transform="matrix(5.14384,0,0,5.14384,-4006.55,-1396.81)">
            <path d="M982.913,591.85C976.346,593.64 969.78,593.485 963.213,590.618C969.464,594.655 976.041,594.954 982.913,591.85Z" style="fill-opacity:0.27;"/>
        </g>
        <g transform="matrix(4.48773,0,0,5.14384,-3363.93,-1679.61)">
            <path d="M982.913,591.85C976.346,593.64 969.78,593.485 963.213,590.618C969.464,594.655 976.041,594.954 982.913,591.85Z" style="fill-opacity:0.27;"/>
        </g>
        <g transform="matrix(5.14384,0,0,5.14384,-3995.72,-1114.06)">
            <path d="M982.708,583.641C976.908,584.288 970.965,583.937 964.855,582.41C970.96,585.285 976.913,585.734 982.708,583.641Z" style="fill-opacity:0.27;"/>
        </g>
        <g transform="matrix(5.14384,0,0,5.14384,-3987.44,-1389.81)">
            <path d="M982.708,583.641C976.908,584.288 970.965,583.937 964.855,582.41C970.96,585.285 976.913,585.734 982.708,583.641Z" style="fill-opacity:0.27;"/>
        </g>
        <g transform="matrix(4.3556,0,0,5.14384,-3229.85,-1672.61)">
            <path d="M982.708,583.641C976.908,584.288 970.965,583.937 964.855,582.41C970.96,585.285 976.913,585.734 982.708,583.641Z" style="fill-opacity:0.27;"/>
        </g>
        <g transform="matrix(5.14384,0,0,5.14384,-4026.29,-1122.34)">
            <path d="M983.734,576.869C977.863,578.175 971.757,577.958 965.265,575.228C970.938,578.995 977.129,579.312 983.734,576.869Z" style="fill-opacity:0.27;"/>
        </g>
        <g transform="matrix(5.14384,0,0,5.14384,-4018.01,-1398.08)">
            <path d="M983.734,576.869C977.863,578.175 971.757,577.958 965.265,575.228C970.938,578.995 977.129,579.312 983.734,576.869Z" style="fill-opacity:0.27;"/>
        </g>
        <g transform="matrix(3.75018,0,0,5.14384,-2649.37,-1680.88)">
            <path d="M983.734,576.869C977.863,578.175 971.757,577.958 965.265,575.228C970.938,578.995 977.129,579.312 983.734,576.869Z" style="fill-opacity:0.27;"/>
        </g>
        <g transform="matrix(4.38463,0.361848,0,4.38463,-291.702,-709.997)">
            <g transform="matrix(-0.964169,0.265289,0.265289,0.964169,1002.01,-95.3267)">
                <path d="M603.216,861.614C613.594,871.419 628.561,871.705 643.572,856.351C638.7,825.912 633.515,807.638 626.12,777.483C620.014,756.334 613.021,730.515 614.813,701.467C623.864,691.203 638.195,679.437 653.317,676.762C661.98,666.966 677.194,661.72 696.566,665.665C721.993,653.663 728.546,648.588 741.696,639.86C763.71,619.965 760.57,626.288 735.857,636.94C731.733,641.169 699.657,663.733 680.761,659.397C704.855,616.211 707.163,630.703 718.282,620.739C729.013,617.008 739.554,611.14 749.979,603.963C761.064,593.734 758.992,590.225 751.288,597.493C740.422,604.425 729.738,610.444 719.678,613.298L704.125,621.074C709.621,610.476 703.801,580.945 700.196,565.796C695.8,548.783 694.457,549.971 697.573,577.76C702.374,591.806 701.09,610.039 696.792,622.569L673.586,657.485L648.925,667.923L657.414,633.41C653.383,627.684 655.169,623.231 654.856,618.125C663.867,609.524 671.673,599.116 678.529,587.282C681.906,584.438 685.45,582.205 686.92,572.433C666.792,589.257 666.798,604.679 650.56,611.497L638.691,576.963C637.55,566.845 640.694,558.869 648.329,553.138C662.903,542.72 658.674,543.976 643.902,552.54C635.576,559.02 635.258,569.816 633.964,578.932C633.964,578.932 647.645,617.975 648.924,624.15C643.377,626.085 637.484,629.816 621.325,618.107C605.703,608.27 605.287,607.325 615.993,618.55C631.985,632.21 642.436,632.513 647.787,630.972C653.084,635.386 642.345,672.118 631.373,673.465C627.469,680.884 619.1,684.955 609.128,687.823C610.79,670.893 592.849,611.526 594.347,594.018C597.068,581.318 602.108,572.18 609.468,568.758C613.935,556.215 621.368,549.864 629.108,536.421C640.825,530.89 659.926,531.031 685.17,512.922C715.297,491.309 645.846,537.314 634.716,521.492C633.522,519.794 636.573,517.328 638.122,514.427L646.441,502.811C669.519,487.77 686.059,472.503 704.588,455.946C706.688,447.34 708.907,440.606 710,437.006C711.98,430.486 713.477,438.84 697.45,455.808C667.374,487.651 678.573,464.449 682.171,446.19C685.78,432.416 688.635,430.662 673.281,456.812L672.374,477.714C663.897,484.377 653.928,493.173 648.36,493.073C641.497,503.042 646.831,485.496 649.253,467.569C644.508,452.545 642.849,440.052 642.67,461.555C642.513,482.607 640.852,487.115 639.162,491.311L631.3,503.625C623.153,498.387 612.402,487.622 595.484,460.418C608.221,443.643 621.093,434.486 598.535,446.892C596.113,452.829 593.042,458.226 589.174,457.725C584.771,457.156 576.549,456.401 571.149,451.839C542.661,441.187 549.204,442.497 566.165,454.813L585.04,464.25C597.54,470.92 602.939,484.716 604.872,484.751C577.248,475.732 580.752,476.855 567.266,478.7C563.635,481.164 555.132,479.727 562.91,482.191C581.144,483.92 600.289,483.495 611.987,498.54C617.666,501.366 618.229,506.484 623.909,513.858C620.717,537.094 613.079,544.176 606.572,555.364C601.718,562.93 592.104,572.347 585.734,570.816L569.955,525.6L544.412,466.268C541.985,466.145 561.914,425.54 538.238,463.661C537.271,465.217 534.961,461.983 533.302,461.162C529.716,459.388 526.091,457.679 522.579,456.092C505.15,448.219 490.487,443.355 497.131,448.479L528.968,464.966L539.732,488.792C529.33,491.282 519.007,488.774 502.539,483.682C496.454,479.222 486.532,476.24 480.024,471.541L469.589,463.768C475.233,475.557 499.439,488.625 509.638,492.823C526.799,496.699 531.308,497.917 540.88,495.718L546.077,512.91C535.133,525.511 518.129,527.05 501.111,527.503C495.835,529.909 473.685,521.066 450.103,511.268C444.633,505.783 436.767,506.932 424.924,489.455C416.527,487.044 406.141,439.098 417.539,487.707C424.58,495.892 431.59,504.218 435.598,506.339C428.621,512.096 414.163,507.24 401.052,505.331C377.052,496.276 377.621,497.982 402.758,510.447C415.358,513.364 435.99,515.038 440.99,511.874L463.828,525.868C458.514,536.8 446.163,544.238 431.752,549.106C416.236,556.095 391.953,552.416 383.998,538.302C381.531,540.566 375.11,535.336 368.079,522.386L360.688,517.269L380.854,546.18C394.483,553.832 399.394,556.153 407.601,557.842C401.924,560.188 388.83,562.276 378.296,558.147L361.863,551.53C336.441,542.888 343.447,546.56 353.297,553.654L385.037,564.186C395.484,565.502 435.909,555.018 443.054,549.465C438.213,559.973 426.773,572.135 418.901,576.579L398.121,584.466C364.487,593.521 372.466,590.179 395.367,588.902L424.784,579.763L432.674,573.301C438.165,567.163 444.184,559.432 448.239,557.634C458.1,537.68 462.584,536.124 470.748,529.746L503.848,534.728C525.002,532.705 537.138,530.093 548.055,523.759C559.564,545.956 558.759,563.096 559.017,568.209C560.992,575.832 559.686,580.146 548.015,583.221C539.334,585.432 531.753,587.918 504.522,585.491L473.368,580.144L464.352,556.86C455.465,547.396 457.737,543.788 457.947,552.517C462.915,561.469 466.817,570.714 466.346,581.163L457.947,586.752C448.943,587.92 434.482,596.026 420.17,591.322C406.465,603.03 407.277,593.722 430.196,595.684L457.947,594.018L472.685,586.628L493.879,590.617C493.356,597.776 493.398,603.279 486.718,603.461L462.513,610.087L433.899,611.92C398.455,620.679 410.788,616.346 432.506,616.956C454.645,617.273 475.111,613.823 495.093,609.285L502.775,593.932L526.98,595.16L548.297,594.587L563.078,596.293L565.352,616.19L572.433,669.631C565.438,670.073 553.207,670.543 538.626,658.85C538.206,650.4 539.435,636.885 551.143,632.983C552.682,632.025 555.198,628.587 558.645,622.783L555.119,608.8C546.165,598.596 547.877,600.254 551.051,612.792C553.975,624.05 553.045,627.094 542.685,629.121L531.872,653.475C528.313,655.14 519.428,651.123 519.927,636.438L522.409,623.477L519.224,607.002C517.204,599.076 517.749,594.973 515.19,601.055C515.38,610.634 518.645,625.14 514.262,633.194L512.871,641.116C524.779,653.46 508.989,657.513 495.83,633.697L477.747,613.239L484.001,625.746L494.048,640.131C488.497,645.348 474.486,641.233 449.22,626.735L459.534,637.879L474.959,645.185L492.996,647.201C499.876,650.265 504.535,652.589 506.868,654.137C528.503,659.548 533.544,663.774 533.929,667.668C530.591,674.077 517.916,673.985 502.419,674.315C495.622,671.286 487.693,668.809 482.79,663.332C464.973,650.632 466.808,650.299 473.253,658.829C478.199,665.192 484.291,671.069 493.55,675.603L503.59,680.627L531.81,679.295L541.969,672.294L572.433,686.92C577.766,695.354 578.02,705.507 578.961,713.063C575.731,747.267 583.958,769.306 587.87,793.689C594.579,817.334 592.997,841.479 603.216,861.614Z" style="fill:white;"/>
            </g>
            <g transform="matrix(1,3.07907e-16,-1.36403e-16,1.04946,335.868,-149.481)">
                <g transform="matrix(0.338461,-0.197162,0.423076,0.176623,-26.3124,343.308)">
                    <path d="M-430.317,1481.07C-430.317,1471.06 -434.699,1463.01 -444.711,1463.01L-461.005,1461.23C-471.017,1461.23 -489.877,1476.33 -489.877,1486.34L-489.877,1492.24C-489.877,1502.26 -481.749,1510.38 -471.738,1510.38L-458.481,1510.38C-448.469,1510.38 -429.811,1495.45 -429.811,1485.44L-430.317,1481.07Z" style="fill:rgb(195,97,50);"/>
                </g>
                <g transform="matrix(1.1095,-0.091563,1.45667e-16,1.1184,-1094.39,118.899)">
                    <path d="M1388.51,632.372C1381.68,631.789 1381.04,630.173 1379.7,628.942C1381.27,629.971 1383.43,631.432 1388.34,631.7C1388.95,631.704 1390.11,631.893 1391.02,631.451C1394.49,631.014 1396.4,629.514 1397.95,627.596C1397.67,628.77 1396.75,630.582 1391.13,632.217C1391.06,632.389 1389.03,632.564 1388.51,632.372Z" style="fill:rgb(226,107,4);"/>
                </g>
                <g transform="matrix(0.378411,-0.0312289,-3.25615e-17,0.378411,-27.0784,343.882)">
                    <path d="M1237.72,1025.2L1245.87,1021.94L1252.57,1018.86L1251.66,1018.14L1258.91,1022.48L1269.23,1025.2L1258.37,1029L1253.3,1032.63L1245.87,1028.28L1237.72,1025.2Z" style="fill:rgb(105,103,71);"/>
                </g>
            </g>
            <g transform="matrix(-0.964169,0.265289,0.265289,0.964169,1001.48,-92.1261)">
                <path d="M603.216,861.614C613.594,871.419 628.561,871.705 643.572,856.351C638.7,825.912 633.515,807.638 626.12,777.483C620.014,756.334 613.021,730.515 614.813,701.467C623.864,691.203 638.195,679.437 653.317,676.762C661.98,666.966 677.194,661.72 696.566,665.665C721.993,653.663 728.546,648.588 741.696,639.86C762.722,617.328 758.801,621.567 735.857,636.94C731.733,641.169 699.657,663.733 680.761,659.397C704.855,616.211 707.163,630.703 718.282,620.739C729.013,617.008 739.554,611.14 749.979,603.963C760.382,591.255 758.555,588.636 751.288,597.493C740.422,604.425 729.738,610.444 719.678,613.298L704.125,621.074C709.621,610.476 703.801,580.945 700.196,565.796C695.8,548.783 694.457,549.971 697.573,577.76C702.374,591.806 701.09,610.039 696.792,622.569L673.586,657.485L648.925,667.923L657.414,633.41C653.383,627.684 655.169,623.231 654.856,618.125C663.867,609.524 671.673,599.116 678.529,587.282L686.92,572.433C666.792,589.257 666.798,604.679 650.56,611.497L638.691,576.963C637.55,566.845 640.694,558.869 648.329,553.138C660.023,537.234 657.986,542.665 643.902,552.54C635.576,559.02 635.258,569.816 633.964,578.932C633.964,578.932 647.645,617.975 648.924,624.15C643.377,626.085 637.484,629.816 621.325,618.107C605.703,608.27 605.287,607.325 615.993,618.55C631.985,632.21 642.436,632.513 647.787,630.972C653.084,635.386 642.345,672.118 631.373,673.465C627.469,680.884 619.1,684.955 609.128,687.823C610.79,670.893 592.849,611.526 594.347,594.018C597.068,581.318 602.108,572.18 609.468,568.758C613.935,556.215 621.368,549.864 629.108,536.421C640.825,530.89 659.926,531.031 685.17,512.922C715.297,491.309 645.846,537.314 634.716,521.492C633.522,519.794 636.573,517.328 638.122,514.427L646.441,502.811C669.519,487.77 686.059,472.503 704.588,455.946C710.492,431.749 717.338,422.352 697.45,455.808C667.374,487.651 678.573,464.449 682.171,446.19C684.242,430.079 686.419,427.295 673.281,456.812L672.374,477.714C663.897,484.377 653.928,493.173 648.36,493.073C641.497,503.042 646.831,485.496 649.253,467.569C644.508,452.545 642.849,440.052 642.67,461.555C642.513,482.607 640.852,487.115 639.162,491.311L633.743,499.798C635.263,518.154 624.966,502.6 620.023,495.297C614.909,487.741 603.88,477.794 595.484,460.418C605.757,440.554 619.114,432.007 598.535,446.892C596.321,452.984 590.552,454.521 589.174,457.725C586.97,462.853 586.1,464.525 581.607,456.534C579.799,453.32 574.144,454.369 571.149,451.839C540.465,437.994 545.298,436.817 566.165,454.813L585.04,464.25C597.54,470.92 602.939,484.716 604.872,484.751C598.959,482.821 594.472,481.355 590.939,480.261C590.229,480.041 588.89,479.97 588.845,480.125C588.322,481.931 585.217,483.005 580.705,478.798C578.865,477.083 579.064,477.389 577.266,477.432C574.639,477.494 571.998,478.053 567.266,478.7C563.635,481.164 555.132,479.727 562.91,482.191C579.334,480.084 598.714,480.157 611.987,498.54C617.666,501.366 618.229,506.484 623.909,513.858C622.985,520.582 621.835,522.834 621.542,527.651C620.579,543.459 617.171,537.953 615.486,540.998C612.621,546.175 609.483,550.358 606.572,555.364C601.718,562.93 592.104,572.347 585.734,570.816L569.955,525.6L544.412,466.268C541.113,464.319 559.056,419.558 538.238,463.661C537.741,464.713 536.857,469.303 534.404,464.07C534.02,463.25 533.907,461.461 533.302,461.162C529.716,459.388 526.091,457.679 522.579,456.092C505.15,448.219 490.487,443.355 497.131,448.479L528.968,464.966L539.732,488.792C534.533,490.036 529.353,490.032 523.416,489.081C522.624,488.954 521.602,488.072 520.997,488.651C516.218,493.222 511.341,490.939 505.911,484.713C505.159,483.851 503.692,484.038 502.539,483.682C496.454,479.222 486.532,476.24 480.024,471.541L469.589,463.768C475.233,475.557 499.439,488.625 509.638,492.823C526.799,496.699 531.308,497.917 540.88,495.718L546.077,512.91C535.133,525.511 518.129,527.05 501.111,527.503C499.035,528.449 494.346,527.655 487.987,525.745C487.074,525.472 486.103,524.472 485.149,524.857C481.402,526.37 477.069,527.86 471.716,520.013C471.28,519.373 470.264,519.45 469.527,519.162C463.405,516.766 456.812,514.056 450.103,511.268C444.633,505.783 436.767,506.932 424.924,489.455C416.527,487.044 406.141,439.098 417.539,487.707C424.58,495.892 431.59,504.218 435.598,506.339C428.621,512.096 414.163,507.24 401.052,505.331C377.052,496.276 377.621,497.982 402.758,510.447C415.358,513.364 435.99,515.038 440.99,511.874L463.828,525.868C458.514,536.8 446.163,544.238 431.752,549.106C416.236,556.095 391.953,552.416 383.998,538.302C381.531,540.566 375.11,535.336 368.079,522.386L360.688,517.269L380.854,546.18C394.483,553.832 399.394,556.153 407.601,557.842C401.924,560.188 388.83,562.276 378.296,558.147L361.863,551.53C336.441,542.888 343.447,546.56 353.297,553.654L385.037,564.186C395.484,565.502 435.909,555.018 443.054,549.465C438.213,559.973 426.773,572.135 418.901,576.579L398.121,584.466C361.809,587.514 371.261,587.473 395.367,588.902L424.784,579.763L432.674,573.301C438.165,567.163 444.184,559.432 448.239,557.634C458.1,537.68 462.584,536.124 470.748,529.746L503.848,534.728C525.002,532.705 537.138,530.093 548.055,523.759C559.564,545.956 558.759,563.096 559.017,568.209C560.591,574.284 560.081,578.257 553.903,581.177C552.329,581.921 552.672,582.078 550.302,582.703C548.645,591.007 540.019,588.011 535.861,586.039C533.489,584.914 532.316,586.037 531.173,586.415C518.409,590.632 517.7,591.177 504.522,585.491L473.368,580.144L464.352,556.86C455.465,547.396 457.737,543.788 457.947,552.517C462.915,561.469 466.817,570.714 466.346,581.163L457.947,586.752C448.943,587.92 434.482,596.026 420.17,591.322C405.392,593.65 407.061,591.838 430.196,595.684L457.947,594.018L472.685,586.628L493.879,590.617C493.356,597.776 493.398,603.279 486.718,603.461L462.513,610.087L433.899,611.92C397.054,615.586 409.947,613.29 432.506,616.956C454.645,617.273 475.111,613.823 495.093,609.285L502.775,593.932L526.98,595.16L548.297,594.587L563.078,596.293L565.352,616.19L572.433,669.631C565.438,670.073 553.207,670.543 538.626,658.85C538.206,650.4 539.435,636.885 551.143,632.983C552.682,632.025 555.198,628.587 558.645,622.783L555.119,608.8C546.165,598.596 547.877,600.254 551.051,612.792C553.975,624.05 553.045,627.094 542.685,629.121L531.872,653.475C528.313,655.14 519.428,651.123 519.927,636.438L522.409,623.477L519.224,607.002C517.204,599.076 517.749,594.973 515.19,601.055C515.38,610.634 518.645,625.14 514.262,633.194L512.871,641.116C524.779,653.46 508.989,657.513 495.83,633.697L477.747,613.239L484.001,625.746L494.048,640.131C488.497,645.348 474.486,641.233 449.22,626.735L459.534,637.879L474.959,645.185L492.996,647.201C499.876,650.265 504.535,652.589 506.868,654.137C528.503,659.548 533.544,663.774 533.929,667.668C530.591,674.077 517.916,673.985 502.419,674.315C495.622,671.286 487.693,668.809 482.79,663.332C464.973,650.632 466.808,650.299 473.253,658.829C478.199,665.192 484.291,671.069 493.55,675.603L503.59,680.627L531.81,679.295L541.969,672.294L572.433,686.92C577.766,695.354 578.02,705.507 578.961,713.063C575.731,747.267 583.958,769.306 587.87,793.689C594.579,817.334 592.997,841.479 603.216,861.614Z" style="fill:rgb(118,93,79);"/>
            </g>
            <g transform="matrix(1.17315,-0.0968161,0,1.17315,-846.807,-23.2867)">
                <path d="M1239.88,888.747C1240.68,889.114 1237.99,871.183 1236.91,843.207C1235.83,815.23 1236.8,781.455 1229.38,760.458C1225.9,750.592 1205.93,747.09 1205.9,746.083C1205.87,744.981 1192.62,744.598 1191.59,743.6C1183.96,736.205 1169.71,737.177 1162.99,738.135C1162.48,738.532 1153.08,740.115 1153.41,740.994C1153.88,741.134 1153.97,741.184 1153.54,741.12C1153.47,741.08 1153.43,741.038 1153.41,740.994C1150.24,740.048 1129.23,734.973 1126.98,733.169C1125.57,732.035 1110.61,726.574 1110.61,726.574L1100.74,719.649C1112.6,725.608 1136.83,738.733 1153.94,737.846C1159.1,737.579 1163.34,736.555 1166.71,735.407C1169.89,734.324 1144.2,712.363 1141.08,711.538C1077.29,694.682 1085.45,693.371 1140.74,707.787C1141.02,707.859 1139.4,706.493 1137.93,703.858C1136.96,702.12 1135.1,699.992 1134.59,697.92C1129.76,678.553 1129.76,657.206 1131.15,672.328C1131.73,678.619 1135.02,689.515 1142.41,706.676C1145.23,713.21 1157.97,720.034 1166.4,729.311C1170.69,734.03 1177.83,734.391 1195.61,737.37C1196.03,737.441 1177.39,707.368 1179.73,708.127C1179.97,708.207 1182.09,712.82 1182.09,710.791C1182.09,708.847 1180.69,701.132 1180.46,697.669C1180.38,696.409 1179.92,696.197 1178.92,695.57C1172.62,691.629 1153.12,676.604 1141.86,662.672C1141.75,662.529 1143.79,663.247 1145.94,665.721C1154.14,675.184 1170.69,690.893 1177.31,691.482C1180.06,691.726 1181.05,692.289 1181.06,692.124C1183.25,660.903 1187.76,631.823 1182.56,698.254C1182.36,700.897 1182.74,701.889 1183.1,701.611C1183.87,701.008 1189.73,702.477 1190.19,702.39C1194.09,701.644 1206.7,692.126 1211.11,684.307C1211.91,682.891 1209.08,689.019 1205.26,693.098C1201.58,697.028 1197.82,701.616 1191.64,703.617C1190.26,704.064 1182.63,703.927 1183.65,705.585C1185.06,707.888 1184.61,712.304 1184.84,713.064C1188.08,723.866 1203.57,739.887 1204.96,740.342C1214.59,743.495 1228.54,746.297 1230.41,747.303C1231.71,748 1221.82,675.745 1223.28,671.188C1225.18,665.225 1214.13,655.14 1211.78,649.69C1211.22,648.378 1201.21,645.259 1203.15,645.734C1206.44,646.54 1180.11,623.301 1180.91,622.209C1181.26,621.747 1180.81,617.008 1178.54,618.408C1171.37,622.821 1137.79,615 1141.81,615.171C1152.45,615.623 1179.28,619.574 1173.99,613.522C1172.75,612.093 1173.79,610.864 1172.66,609.714C1166.73,603.676 1162.7,597.324 1158.8,595.763C1127.32,583.168 1097.03,564.94 1099.65,565.775C1104.35,567.276 1156.17,594.224 1156.27,592.811C1156.32,592.202 1161.96,595.635 1159.49,591.035C1157.2,586.756 1152.07,575.467 1149.95,570.75C1149.17,569.275 1148.79,568.454 1149,568.633C1149,568.633 1149.36,569.436 1149.95,570.75C1153.34,577.186 1164.35,596.084 1168.08,599.066C1169.22,599.98 1172.25,603.494 1172.08,601.75C1171.84,599.253 1178.07,588.238 1183.34,581.898C1183.67,581.494 1191.96,557.607 1192.42,557.779C1198.87,560.228 1184.7,545.657 1181.9,543.032C1181.38,542.542 1195.63,555.017 1196.34,554.414C1203.44,548.371 1217.63,536.365 1217.2,537.061C1213.43,543.102 1191.67,560.321 1190.77,564.852C1189.44,571.455 1186.76,579.984 1187.06,579.663C1187.57,579.107 1188.03,578.642 1188.41,578.288C1191.7,575.24 1205.44,563.308 1187.37,581.14C1184.43,584.047 1182.9,593.179 1176.15,605.013C1173.16,610.254 1187.45,624.035 1189.85,625.437C1202.25,632.657 1221.34,651.005 1223.16,648.695C1226.18,644.866 1233.12,637.326 1231.09,630.828C1230.04,627.488 1232.09,598.607 1234.3,585.24C1234.99,581.045 1242.84,546.376 1243.48,546.507C1243.93,546.602 1240.57,587.222 1241.6,591.574C1241.77,592.292 1250.8,599.307 1257.53,599.247C1263.93,599.19 1268.95,599.177 1272.83,599.201C1274.24,599.209 1291.36,595.708 1301.63,591.847C1304.48,590.776 1316.89,581.974 1326.48,570.36C1334.68,560.44 1340.31,547.365 1341.83,547.451C1343.22,547.529 1336.98,557.936 1330.75,566.947C1330.22,567.721 1332.42,570.048 1334.39,569.447C1370.88,558.372 1363.98,562.789 1345.15,569.179C1340.19,570.865 1334.8,571.637 1328.54,571.431C1324.93,571.312 1321.91,577.305 1319.8,579.257C1315.75,582.998 1313.3,587.483 1311.51,589.114C1311.32,589.291 1320.03,595.611 1326.67,600.613C1326.93,600.809 1343.28,604.678 1355.26,604.978C1355.67,604.989 1363.47,604.583 1369.58,601.425C1370.92,600.731 1374.28,600.362 1377.23,596.163C1378.86,593.856 1381.94,592.867 1382.74,591.337C1395.75,566.685 1389.45,580.367 1385.5,590.767L1372.99,601.311C1372.99,601.311 1371.2,602.394 1369.71,602.799C1364.49,604.225 1360.04,605.342 1360.34,605.386C1363.35,605.814 1379.27,608.083 1384.52,605.286C1437.33,577.167 1397.59,599.519 1386.7,606.222C1386.45,606.374 1381.81,607.171 1376.24,607.297C1373.21,607.365 1366.11,607.034 1365.64,607.054C1360.55,607.262 1345.72,605.691 1337.63,603.923C1336.53,603.682 1334.89,603.108 1334.12,603.084C1332.8,603.041 1332.08,604.801 1332.25,604.936C1335.63,607.711 1351.6,622.248 1358.56,623.539C1365.34,624.798 1375.68,627.566 1383.96,627.373C1389.06,627.254 1394.83,624.403 1396.35,624.704C1398.37,625.107 1395.51,625.623 1393.91,626.192C1390.5,627.406 1384.01,628.67 1380.78,628.247C1375.3,627.531 1365.19,626.085 1356.74,625.111C1353.11,624.693 1340.91,613.419 1333.68,610.643C1332.31,610.117 1329.44,604.537 1329.33,604.458C1324.8,601.22 1309.3,589.966 1308.5,590.252C1302.91,592.244 1285.9,599.411 1283.11,599.495C1277.25,599.672 1268.95,601.412 1262.26,601.89C1261.16,601.969 1241.48,597.067 1241.46,598.192C1241.16,611.877 1240.8,626.427 1241.13,627.052C1243.58,631.714 1245.6,642.95 1246.44,651.397C1246.95,656.512 1279.68,652.879 1291,648.659C1301.55,644.724 1310.76,641.228 1318.68,638.175C1319.45,637.875 1321.76,637.076 1320.98,637.291C1318.89,637.866 1321.01,611.432 1322.75,610.71C1322.9,610.644 1322.15,613.063 1322.09,615.292C1321.96,619.625 1322.24,627.82 1321.9,631.94C1321.63,635.135 1325.33,636.562 1326.85,637.299C1329.05,638.368 1331.02,640.659 1332.92,639.993C1334.25,639.526 1361.85,640.158 1364.01,635.674C1364.17,635.334 1369.98,635.258 1369.98,635.258C1369.98,635.258 1364.26,637.031 1362.35,637.88C1357.72,639.928 1344.56,641.921 1334.03,642.737C1332.54,642.852 1321.16,638.3 1319.72,638.949C1314.94,641.115 1306.14,644.458 1300.6,647.033C1298.95,647.799 1305.81,654.249 1307.04,658.645C1307.35,659.742 1359.21,658.04 1359.6,658.092C1364.21,658.712 1312.29,664.877 1306.58,661.126C1303.84,659.326 1299.07,649.321 1297.68,649.445C1292.83,649.88 1274.91,655.473 1259.4,657.416C1254,658.092 1247.56,661.678 1247.56,661.678C1248.36,670.227 1256.45,724.801 1256.45,724.801C1257.6,724.692 1262.53,727.363 1265.54,724.448C1266.8,723.227 1282.01,719.819 1282.83,713.32C1283.29,709.702 1283.2,704.372 1279.02,700.003C1276.15,696.996 1275.26,693.455 1273.29,692.264C1269.16,689.767 1265.64,689.864 1263.42,688.211C1258.71,684.716 1256.26,678.58 1258.13,678.483C1259.16,678.429 1260.41,683.967 1263.17,686.149C1266.22,688.571 1270.91,687.805 1274.48,690.945C1278.91,694.834 1281.63,704.288 1287.07,709.597C1289.39,711.866 1291.32,705.937 1292.6,704.888C1293.76,703.944 1295.08,702.577 1295.13,702.056C1295.45,698.954 1296.68,696.55 1295.96,695.125C1280.48,664.231 1291.23,679.09 1297.89,690.85C1298.38,691.715 1297.23,692.416 1297.05,694.25C1296.81,696.609 1297.14,700.22 1296.89,701.898C1296.66,703.509 1298.12,704.451 1299.46,703.215C1303.8,699.247 1314.72,695.875 1311,693.203C1309.47,692.099 1319.31,672.745 1318.7,674.197C1318.44,674.825 1311.77,692.827 1313.86,691.836C1318.59,689.594 1324.21,689.515 1327.73,687.927C1335.21,684.548 1339.24,680.537 1340.55,678.759C1346.05,671.271 1346.38,671.841 1341.4,680.338C1341.13,680.799 1335.89,685.935 1329.98,688.732C1324.34,691.4 1317.98,691.715 1317.83,691.9C1317.38,692.452 1312.48,696.962 1306.33,701.048C1301.58,704.206 1295.23,707.166 1294.91,707.502C1294.14,708.326 1280.79,715.008 1284.53,717.699C1286.01,718.764 1288.14,721.774 1293.28,722.246C1296.44,722.536 1307.11,722.785 1314.78,718.965C1329.1,711.833 1339.99,699.982 1315.89,721.736C1314.24,723.228 1293.63,725.755 1292.58,725.62C1290.36,725.338 1284.29,722.45 1282.82,721.646C1282.87,721.523 1282.78,721.447 1282.51,721.439C1282.46,721.438 1282.58,721.514 1282.82,721.646C1285.25,722.454 1261.52,729.385 1259.31,740.667C1255.7,759.111 1272.65,790.422 1267.73,790.422L1275.4,888.192C1277.32,889.32 1278.8,890.519 1278.37,891.388C1276.21,896.005 1268.22,901.498 1260.3,901.45C1246.08,901.365 1240.73,898.157 1238.06,893.363C1237.16,891.732 1238.91,889.61 1239.88,888.747ZM1229.6,665.832C1228.34,662.481 1235,648.354 1235,648.354L1236.08,652.022L1229.6,665.832ZM1235,626.561L1238.11,638.913L1239.75,645.549L1241.9,637.997L1235,626.561Z" style="fill-opacity:0.24;"/>
            </g>
            <g transform="matrix(1.17315,-0.0968161,0,0.658184,-861.739,205.768)">
                <path d="M1120.45,488.285L1114.96,487.856C1114.49,487.856 1113.85,487.782 1113.49,487.961C1113.3,488.058 1112.92,489.078 1113.02,489.273C1113.09,489.412 1113.95,489.7 1114.18,489.745C1114.7,489.85 1115.29,489.774 1115.8,489.903C1116.82,490.157 1117.99,489.648 1119.01,489.903C1119.3,489.975 1119.68,490.241 1119.95,490.375C1120.62,490.711 1121.99,490.3 1122.57,490.008C1123.23,489.68 1123.85,489.136 1124.41,488.853C1124.77,488.675 1125.69,488.891 1125.93,489.01C1126,489.046 1127.1,488.476 1127.3,488.276C1127.44,488.132 1127.96,488.39 1128.09,488.433C1128.65,488.62 1129.21,488.8 1129.82,488.8C1129.92,488.8 1130.05,488.923 1130.18,488.853C1130.79,488.55 1131.23,487.988 1131.97,487.803C1132.3,487.721 1133.93,488.199 1134.33,488.066C1134.57,487.987 1135.74,487.126 1136.01,486.858C1136.07,486.797 1137.32,486.5 1137.64,486.176C1137.72,486.096 1138.3,486.176 1138.43,486.176C1139.09,486.176 1140.1,486.389 1140.74,486.176C1140.92,486.114 1141.87,485.585 1142.26,485.389C1142.92,485.06 1143.84,485.805 1144.46,485.494C1144.84,485.305 1145.26,485.201 1145.62,485.021C1145.86,484.9 1146.33,484.992 1146.56,484.916C1147.04,484.757 1147.24,484.24 1147.51,483.972C1147.76,483.714 1147.26,483.354 1147.19,483.289C1146.67,482.766 1145.33,482.704 1144.46,482.607C1144.36,482.596 1143.8,482.543 1143.67,482.607C1143.05,482.921 1143.07,483.738 1142.52,483.919C1141.88,484.134 1140.79,483.836 1140.16,483.709C1140.02,483.681 1139.24,483.527 1139.11,483.657C1139.02,483.748 1138.47,484.107 1138.32,484.182C1137.9,484.393 1136.19,484.322 1136.12,484.182C1136.06,484.065 1135.91,483.079 1135.96,483.027C1136.06,482.928 1136.06,482.794 1136.22,482.712C1136.9,482.373 1137.61,482.712 1138.32,482.712C1138.55,482.712 1138.84,482.766 1139.06,482.712C1140.03,482.469 1141.02,482.216 1142.05,481.872C1142.27,481.798 1142.66,481.859 1142.78,481.977C1142.84,482.039 1143.26,481.977 1143.36,481.977C1144.07,481.977 1143.69,481.089 1144.36,480.927C1147.82,480.087 1147.05,479.157 1143.88,479.615C1143.76,479.633 1142.32,479.699 1141.79,479.878C1141.36,480.02 1141.17,480.402 1140.63,480.402C1139.88,480.402 1139.02,480.408 1138.37,480.087C1138.04,479.919 1137.16,480.087 1136.8,480.087C1136.46,480.087 1135.87,479.978 1135.54,480.087C1135.42,480.128 1134.25,480.167 1134.17,480.087C1134.16,480.075 1132.34,480.089 1132.02,479.982C1131.49,479.804 1130.91,479.795 1130.34,479.51C1130.16,479.421 1130.03,479.045 1129.92,478.828C1129.55,478.087 1131.07,477.689 1131.65,477.883C1131.98,477.992 1132.2,478.582 1132.55,478.408C1133.05,478.155 1134.51,477.418 1134.65,477.463C1134.95,477.565 1135.94,476.376 1136.26,476.294C1136.85,476.148 1137.54,477.089 1138.1,476.809C1138.2,476.755 1138.69,476.203 1138.74,476.151C1138.88,476.011 1141.49,474.938 1141.44,474.748C1141.16,473.609 1137.03,473.85 1136.01,474.104C1135.46,474.242 1135.21,474.664 1134.75,474.891C1134.29,475.125 1133.61,475.364 1132.91,475.364C1132.51,475.364 1131.97,475.285 1131.65,475.049C1131.35,474.822 1130.8,474.46 1130.45,474.576C1129.6,474.858 1128.44,475.247 1127.77,474.576C1127.58,474.386 1127.12,474.646 1126.93,474.261C1126.59,473.576 1127.25,473.393 1127.72,473.159C1128.11,472.963 1130.07,473.369 1130.29,473.369C1130.83,473.369 1131.41,473.431 1131.92,473.264C1132.14,473.189 1132.38,472.956 1132.6,472.844C1132.99,472.65 1133.47,473.196 1133.75,473.054C1134.08,472.893 1134.33,472.219 1134.49,471.899C1134.52,471.845 1134.61,471.548 1134.54,471.479C1134.1,471.04 1133.4,470.924 1132.7,470.692C1132.49,470.62 1131.95,470.467 1131.71,470.587C1131.44,470.721 1131.24,470.955 1131.03,471.059C1130.4,471.371 1129.37,471.584 1128.61,471.584C1127.67,471.584 1126.98,471.855 1126.14,471.269C1126.02,471.185 1125.81,471.118 1125.72,470.955C1125.39,470.289 1126.12,470.343 1126.41,470.062C1126.84,469.624 1127.45,470.011 1128.09,469.8C1128.46,469.676 1128.84,469.642 1129.24,469.642C1129.61,469.642 1130.46,469.527 1130.5,469.485C1130.7,469.282 1130.87,469.081 1130.87,468.698C1130.87,468.58 1130.89,468.369 1130.82,468.33C1129.04,467.441 1126.64,468.057 1125.04,468.855C1124.68,469.035 1123.07,469.02 1123.41,468.33C1123.61,467.949 1124.81,467.448 1125.04,467.333C1125.43,467.139 1126.03,467.388 1126.46,467.175C1127.08,466.864 1127.88,466.962 1128.3,466.546C1128.4,466.442 1128.64,466.464 1128.72,466.388C1128.86,466.245 1130.62,465.352 1130.62,465.248C1130.62,465.248 1128.72,465.706 1128.68,464.823C1128.14,464.823 1126.77,464.37 1126.11,464.7C1125.31,465.097 1124.41,465.606 1123.4,466.174C1122.04,466.942 1118.45,467.681 1121.56,465.437C1122.69,464.62 1124.36,464.78 1125.98,463.963C1129.92,461.987 1129.18,462.064 1126.47,462.489C1124.86,462.742 1122.85,461.936 1122.05,462.735C1121.71,463.079 1120.84,463.087 1120.58,463.349C1120.47,463.457 1118.59,463.468 1118.37,463.472C1116.73,463.497 1114.8,463.334 1117.38,462.366C1117.92,462.165 1117.75,461.629 1118,461.629C1118.83,461.629 1120.52,462.149 1121.32,461.752C1122.12,461.351 1121.57,459.44 1121.32,458.927C1121.12,458.541 1119.36,458.551 1119.1,458.804C1118.94,458.968 1118.53,458.886 1118.37,459.049C1117.56,459.852 1117.16,460.155 1115.66,460.155C1115.45,460.155 1111.93,460.597 1111.79,460.46C1111.28,459.941 1114.42,458.578 1114.68,458.312C1115.46,457.531 1117.1,459.582 1117.88,458.804C1118.14,458.538 1118.01,457.812 1118.37,457.698C1121.57,456.687 1123.28,454.918 1118.61,455.979C1117.49,456.233 1116.58,456.133 1115.91,456.47C1115.19,456.832 1114.52,457.33 1113.33,457.33C1113.17,457.33 1112.45,457.429 1112.35,457.33C1112.18,457.162 1111.9,456.883 1111.73,456.716C1111.51,456.488 1111.82,455.933 1111.98,455.856C1113.06,455.317 1115.05,456.742 1115.05,454.996C1115.05,454.897 1115.13,454.217 1115.05,454.136C1113.89,452.974 1111.79,454.076 1110.75,455.119C1110.23,455.639 1109.18,455.462 1108.79,455.856C1108.68,455.958 1107.86,455.856 1107.68,455.856C1106.39,455.856 1106.91,456.24 1105.63,456.24C1105.46,456.24 1103.83,456.091 1103.71,456.203C1103.03,456.889 1102.24,456.875 1101.66,457.453C1100.95,458.165 1098.75,456.85 1097.98,456.593C1096.73,456.178 1096.32,457.019 1095.89,457.453C1095.85,457.488 1095.6,458.021 1095.76,458.19C1096.95,459.371 1099.47,459.594 1100.8,458.927C1101.21,458.721 1101.96,458.84 1102.28,458.681C1103.28,458.179 1104.46,458.823 1105.25,458.519C1108.66,457.196 1114.41,456.546 1111.77,459.343C1110.56,460.618 1107.06,461.383 1106.21,461.383C1105.82,461.383 1103.83,460.692 1103.38,461.138C1102.88,461.633 1101.67,461.991 1101.17,462.489C1101.06,462.601 1100.24,462.489 1100.06,462.489C1099,462.489 1097.89,462.022 1096.87,462.243C1094.17,462.829 1091.98,464.326 1096.26,464.209C1098.08,464.158 1099.12,464.068 1100.31,463.472C1100.9,463.178 1102.29,463.723 1102.77,463.963C1103.06,464.108 1103.8,463.963 1104.12,463.963C1105.65,463.963 1106.79,463.485 1108.05,462.857C1108.85,462.455 1110.24,462.94 1110.87,463.103C1111.37,463.229 1111.86,463.698 1112.35,463.103C1112.45,462.973 1113.73,462.829 1113.8,462.98C1113.91,463.209 1115.09,462.818 1115.17,463.064C1116.14,465.965 1109.4,466.545 1108.17,465.314C1108.09,465.228 1107.34,465.191 1107.19,465.191C1105.83,465.191 1105.49,466.051 1104.12,466.051C1103.39,466.051 1102.56,466.145 1101.91,465.928C1101.68,465.854 1101.18,465.678 1100.92,465.806C1100.65,465.94 1101.02,466.389 1100.8,466.42C1098.58,466.729 1096.23,467.979 1100.68,467.894C1103.03,467.849 1104.82,468.909 1106.33,467.402C1106.39,467.337 1107.53,467.371 1107.56,467.402C1108.29,468.134 1109.93,468.262 1111,468.262C1112.32,468.262 1113.5,467.256 1114.68,466.665C1116.02,465.998 1117.75,466.788 1118.98,467.402C1119.24,467.532 1120.01,467.206 1120.21,467.402C1120.35,467.546 1120.43,467.751 1120.58,467.894C1121.08,468.393 1120.23,469.112 1119.96,469.245C1118.89,469.782 1117.06,469.807 1116.03,469.122C1114.17,467.883 1113.06,469.133 1111.37,469.982C1109.89,470.719 1107.31,469.245 1105.84,469.982C1105.38,470.212 1105.27,471.063 1104.73,471.333C1104.05,471.673 1103.65,471.68 1103.13,472.193C1103.05,472.279 1101.29,472.932 1101.41,473.053C1102.7,474.348 1106.9,473.599 1108.54,473.053C1109.31,472.798 1109.87,471.652 1110.51,471.333C1112.14,470.518 1114.37,472.77 1115.79,473.053C1116.88,473.273 1118.47,471.41 1119.64,471.018C1120.22,470.825 1121.82,471.016 1122.32,470.948C1127.28,470.282 1125.93,471.667 1119.85,473.005C1118.85,473.227 1125.3,472.791 1125.86,473.913C1126.43,475.062 1123.89,475.715 1122.91,475.387C1122.02,475.089 1120.46,474.076 1119.47,474.404C1119.04,474.547 1118.64,475.068 1118.24,475.264C1117.77,475.499 1116.01,475.381 1115.54,475.264C1114.26,474.945 1112.97,473.127 1111.61,474.036C1111.26,474.272 1111.06,474.853 1110.63,475.141C1110.37,475.311 1110.01,475.388 1109.89,475.51C1109.5,475.905 1108.61,475.411 1108.17,475.633C1107.67,475.881 1106.68,475.653 1106.33,476.001C1106.15,476.183 1104.28,477.791 1104.14,478.066C1104.08,478.194 1106.24,477.889 1106.54,478.026C1109.11,479.183 1110.71,476.694 1112.1,477.107C1113.53,477.529 1114.79,477.067 1116.25,477.067C1117.1,477.067 1118.31,478.354 1119.1,478.089C1119.78,477.864 1120.35,477.223 1121.07,476.984C1122.24,476.592 1123.48,477.475 1124.63,477.475C1125.29,477.475 1127.47,476.875 1127.95,477.352C1128.18,477.582 1128.35,478.042 1128.56,478.458C1130.03,481.356 1127.04,483.151 1124.88,480.178C1124.77,480.023 1123.26,480.455 1123.08,480.573C1122.03,481.276 1121.62,481.755 1120.45,482.143C1119.15,482.577 1117.8,481.8 1116.77,481.283C1114.93,480.364 1114.44,481.485 1112.84,482.02C1111.38,482.507 1109.29,481.46 1107.93,482.143C1107.53,482.341 1105.61,483.508 1106.18,483.85C1107.12,484.421 1107.74,485.641 1108.85,484.637C1113.4,480.491 1114.11,483.208 1115.17,482.88C1115.82,482.683 1116.54,483.212 1117.02,483.371C1118.07,483.722 1119.33,483.986 1120.45,483.986C1120.84,483.986 1121.72,484.153 1122.05,483.986C1122.6,483.714 1123.99,483.171 1124.63,483.494C1125.01,483.684 1125.74,484.536 1126.6,484.109C1127.69,483.562 1128.38,483.249 1129.67,483.249C1130.22,483.249 1130.74,483.939 1131.39,483.617C1131.65,483.485 1133.08,482.24 1133.72,482.88C1134.02,483.178 1134.41,483.938 1134.7,484.231C1135.33,484.858 1133.12,485.743 1132.86,485.828C1131.13,486.405 1128.5,486.422 1126.72,485.828C1125.47,485.412 1123.1,485.485 1122.17,486.442C1121.6,487.046 1121.03,487.998 1120.45,488.285Z" style="fill:white;fill-opacity:0.16;"/>
            </g>
            <g transform="matrix(1.01697,-0.0839265,0,0.42421,-711.407,284.35)">
                <path d="M1120.45,488.285L1114.96,487.856C1114.49,487.856 1113.85,487.782 1113.49,487.961C1113.3,488.058 1112.92,489.078 1113.02,489.273C1113.09,489.412 1113.95,489.7 1114.18,489.745C1114.7,489.85 1115.29,489.774 1115.8,489.903C1116.82,490.157 1117.99,489.648 1119.01,489.903C1119.3,489.975 1119.68,490.241 1119.95,490.375C1120.62,490.711 1121.99,490.3 1122.57,490.008C1123.23,489.68 1123.85,489.136 1124.41,488.853C1124.77,488.675 1125.69,488.891 1125.93,489.01C1126,489.046 1127.1,488.476 1127.3,488.276C1127.44,488.132 1127.96,488.39 1128.09,488.433C1128.65,488.62 1129.21,488.8 1129.82,488.8C1129.92,488.8 1130.05,488.923 1130.18,488.853C1130.79,488.55 1131.23,487.988 1131.97,487.803C1132.3,487.721 1133.93,488.199 1134.33,488.066C1134.57,487.987 1135.74,487.126 1136.01,486.858C1136.07,486.797 1137.32,486.5 1137.64,486.176C1137.72,486.096 1138.3,486.176 1138.43,486.176C1139.09,486.176 1140.1,486.389 1140.74,486.176C1140.92,486.114 1141.87,485.585 1142.26,485.389C1142.92,485.06 1143.84,485.805 1144.46,485.494C1144.84,485.305 1145.26,485.201 1145.62,485.021C1145.86,484.9 1146.33,484.992 1146.56,484.916C1147.04,484.757 1147.24,484.24 1147.51,483.972C1147.76,483.714 1147.26,483.354 1147.19,483.289C1146.67,482.766 1145.33,482.704 1144.46,482.607C1144.36,482.596 1143.8,482.543 1143.67,482.607C1143.05,482.921 1143.07,483.738 1142.52,483.919C1141.88,484.134 1140.79,483.836 1140.16,483.709C1140.02,483.681 1139.24,483.527 1139.11,483.657C1139.02,483.748 1138.47,484.107 1138.32,484.182C1137.9,484.393 1136.19,484.322 1136.12,484.182C1136.06,484.065 1135.91,483.079 1135.96,483.027C1136.06,482.928 1136.06,482.794 1136.22,482.712C1136.9,482.373 1137.61,482.712 1138.32,482.712C1138.55,482.712 1138.84,482.766 1139.06,482.712C1140.03,482.469 1141.02,482.216 1142.05,481.872C1142.27,481.798 1142.66,481.859 1142.78,481.977C1142.84,482.039 1143.26,481.977 1143.36,481.977C1144.07,481.977 1143.69,481.089 1144.36,480.927C1147.82,480.087 1147.05,479.157 1143.88,479.615C1143.76,479.633 1142.32,479.699 1141.79,479.878C1141.36,480.02 1141.17,480.402 1140.63,480.402C1139.88,480.402 1139.02,480.408 1138.37,480.087C1138.04,479.919 1137.16,480.087 1136.8,480.087C1136.46,480.087 1135.87,479.978 1135.54,480.087C1135.42,480.128 1134.25,480.167 1134.17,480.087C1134.16,480.075 1132.34,480.089 1132.02,479.982C1131.49,479.804 1130.91,479.795 1130.34,479.51C1130.16,479.421 1130.03,479.045 1129.92,478.828C1129.55,478.087 1131.07,477.689 1131.65,477.883C1131.98,477.992 1132.2,478.582 1132.55,478.408C1133.05,478.155 1134.51,477.418 1134.65,477.463C1134.95,477.565 1135.94,476.376 1136.26,476.294C1136.85,476.148 1137.54,477.089 1138.1,476.809C1138.2,476.755 1138.69,476.203 1138.74,476.151C1138.88,476.011 1141.49,474.938 1141.44,474.748C1141.16,473.609 1137.03,473.85 1136.01,474.104C1135.46,474.242 1135.21,474.664 1134.75,474.891C1134.29,475.125 1133.61,475.364 1132.91,475.364C1132.51,475.364 1131.97,475.285 1131.65,475.049C1131.35,474.822 1130.8,474.46 1130.45,474.576C1129.6,474.858 1128.44,475.247 1127.77,474.576C1127.58,474.386 1127.12,474.646 1126.93,474.261C1126.59,473.576 1127.25,473.393 1127.72,473.159C1128.11,472.963 1130.07,473.369 1130.29,473.369C1130.83,473.369 1131.41,473.431 1131.92,473.264C1132.14,473.189 1132.38,472.956 1132.6,472.844C1132.99,472.65 1133.47,473.196 1133.75,473.054C1134.08,472.893 1134.33,472.219 1134.49,471.899C1134.52,471.845 1134.61,471.548 1134.54,471.479C1134.1,471.04 1133.4,470.924 1132.7,470.692C1132.49,470.62 1131.95,470.467 1131.71,470.587C1131.44,470.721 1131.24,470.955 1131.03,471.059C1130.4,471.371 1129.37,471.584 1128.61,471.584C1127.67,471.584 1126.98,471.855 1126.14,471.269C1126.02,471.185 1125.81,471.118 1125.72,470.955C1125.39,470.289 1126.12,470.343 1126.41,470.062C1126.84,469.624 1127.45,470.011 1128.09,469.8C1128.46,469.676 1128.84,469.642 1129.24,469.642C1129.61,469.642 1130.46,469.527 1130.5,469.485C1130.7,469.282 1130.87,469.081 1130.87,468.698C1130.87,468.58 1130.89,468.369 1130.82,468.33C1129.04,467.441 1126.64,468.057 1125.04,468.855C1124.68,469.035 1123.07,469.02 1123.41,468.33C1123.61,467.949 1124.81,467.448 1125.04,467.333C1125.43,467.139 1126.03,467.388 1126.46,467.175C1127.08,466.864 1127.88,466.962 1128.3,466.546C1128.4,466.442 1128.64,466.464 1128.72,466.388C1128.86,466.245 1130.62,465.352 1130.62,465.248C1130.62,465.248 1128.72,465.706 1128.68,464.823C1128.14,464.823 1126.77,464.37 1126.11,464.7C1125.31,465.097 1124.41,465.606 1123.4,466.174C1122.04,466.942 1118.45,467.681 1121.56,465.437C1122.69,464.62 1124.36,464.78 1125.98,463.963C1129.92,461.987 1129.18,462.064 1126.47,462.489C1124.86,462.742 1122.85,461.936 1122.05,462.735C1121.71,463.079 1120.84,463.087 1120.58,463.349C1120.47,463.457 1118.59,463.468 1118.37,463.472C1116.73,463.497 1114.8,463.334 1117.38,462.366C1117.92,462.165 1117.75,461.629 1118,461.629C1118.83,461.629 1120.52,462.149 1121.32,461.752C1122.12,461.351 1121.57,459.44 1121.32,458.927C1121.12,458.541 1119.36,458.551 1119.1,458.804C1118.94,458.968 1118.53,458.886 1118.37,459.049C1117.56,459.852 1117.16,460.155 1115.66,460.155C1115.45,460.155 1111.93,460.597 1111.79,460.46C1111.28,459.941 1114.42,458.578 1114.68,458.312C1115.46,457.531 1117.1,459.582 1117.88,458.804C1118.14,458.538 1118.01,457.812 1118.37,457.698C1121.57,456.687 1123.28,454.918 1118.61,455.979C1117.49,456.233 1116.58,456.133 1115.91,456.47C1115.19,456.832 1114.52,457.33 1113.33,457.33C1113.17,457.33 1112.45,457.429 1112.35,457.33C1112.18,457.162 1111.9,456.883 1111.73,456.716C1111.51,456.488 1111.82,455.933 1111.98,455.856C1113.06,455.317 1115.05,456.742 1115.05,454.996C1115.05,454.897 1115.13,454.217 1115.05,454.136C1113.89,452.974 1111.79,454.076 1110.75,455.119C1110.23,455.639 1109.18,455.462 1108.79,455.856C1108.68,455.958 1107.86,455.856 1107.68,455.856C1106.39,455.856 1106.91,456.24 1105.63,456.24C1105.46,456.24 1103.83,456.091 1103.71,456.203C1103.03,456.889 1102.24,456.875 1101.66,457.453C1100.95,458.165 1098.75,456.85 1097.98,456.593C1096.73,456.178 1096.32,457.019 1095.89,457.453C1095.85,457.488 1095.6,458.021 1095.76,458.19C1096.95,459.371 1099.47,459.594 1100.8,458.927C1101.21,458.721 1101.96,458.84 1102.28,458.681C1103.28,458.179 1104.46,458.823 1105.25,458.519C1108.66,457.196 1114.41,456.546 1111.77,459.343C1110.56,460.618 1107.06,461.383 1106.21,461.383C1105.82,461.383 1103.83,460.692 1103.38,461.138C1102.88,461.633 1101.67,461.991 1101.17,462.489C1101.06,462.601 1100.24,462.489 1100.06,462.489C1099,462.489 1097.89,462.022 1096.87,462.243C1094.17,462.829 1091.98,464.326 1096.26,464.209C1098.08,464.158 1099.12,464.068 1100.31,463.472C1100.9,463.178 1102.29,463.723 1102.77,463.963C1103.06,464.108 1103.8,463.963 1104.12,463.963C1105.65,463.963 1106.79,463.485 1108.05,462.857C1108.85,462.455 1110.24,462.94 1110.87,463.103C1111.37,463.229 1111.86,463.698 1112.35,463.103C1112.45,462.973 1113.73,462.829 1113.8,462.98C1113.91,463.209 1115.09,462.818 1115.17,463.064C1116.14,465.965 1109.4,466.545 1108.17,465.314C1108.09,465.228 1107.34,465.191 1107.19,465.191C1105.83,465.191 1105.49,466.051 1104.12,466.051C1103.39,466.051 1102.56,466.145 1101.91,465.928C1101.68,465.854 1101.18,465.678 1100.92,465.806C1100.65,465.94 1101.02,466.389 1100.8,466.42C1098.58,466.729 1096.23,467.979 1100.68,467.894C1103.03,467.849 1104.82,468.909 1106.33,467.402C1106.39,467.337 1107.53,467.371 1107.56,467.402C1108.29,468.134 1109.93,468.262 1111,468.262C1112.32,468.262 1113.5,467.256 1114.68,466.665C1116.02,465.998 1117.75,466.788 1118.98,467.402C1119.24,467.532 1120.01,467.206 1120.21,467.402C1120.35,467.546 1120.43,467.751 1120.58,467.894C1121.08,468.393 1120.23,469.112 1119.96,469.245C1118.89,469.782 1117.06,469.807 1116.03,469.122C1114.17,467.883 1113.06,469.133 1111.37,469.982C1109.89,470.719 1107.31,469.245 1105.84,469.982C1105.38,470.212 1105.27,471.063 1104.73,471.333C1104.05,471.673 1103.65,471.68 1103.13,472.193C1103.05,472.279 1101.29,472.932 1101.41,473.053C1102.7,474.348 1106.9,473.599 1108.54,473.053C1109.31,472.798 1109.87,471.652 1110.51,471.333C1112.14,470.518 1114.37,472.77 1115.79,473.053C1116.88,473.273 1118.47,471.41 1119.64,471.018C1120.22,470.825 1121.82,471.016 1122.32,470.948C1127.28,470.282 1125.93,471.667 1119.85,473.005C1118.85,473.227 1125.3,472.791 1125.86,473.913C1126.43,475.062 1123.89,475.715 1122.91,475.387C1122.02,475.089 1120.46,474.076 1119.47,474.404C1119.04,474.547 1118.64,475.068 1118.24,475.264C1117.77,475.499 1116.01,475.381 1115.54,475.264C1114.26,474.945 1112.97,473.127 1111.61,474.036C1111.26,474.272 1111.06,474.853 1110.63,475.141C1110.37,475.311 1110.01,475.388 1109.89,475.51C1109.5,475.905 1108.61,475.411 1108.17,475.633C1107.67,475.881 1106.68,475.653 1106.33,476.001C1106.15,476.183 1104.28,477.791 1104.14,478.066C1104.08,478.194 1106.24,477.889 1106.54,478.026C1109.11,479.183 1110.71,476.694 1112.1,477.107C1113.53,477.529 1114.79,477.067 1116.25,477.067C1117.1,477.067 1118.31,478.354 1119.1,478.089C1119.78,477.864 1120.35,477.223 1121.07,476.984C1122.24,476.592 1123.48,477.475 1124.63,477.475C1125.29,477.475 1127.47,476.875 1127.95,477.352C1128.18,477.582 1128.35,478.042 1128.56,478.458C1130.03,481.356 1127.04,483.151 1124.88,480.178C1124.77,480.023 1123.26,480.455 1123.08,480.573C1122.03,481.276 1121.62,481.755 1120.45,482.143C1119.15,482.577 1117.8,481.8 1116.77,481.283C1114.93,480.364 1114.44,481.485 1112.84,482.02C1111.38,482.507 1109.29,481.46 1107.93,482.143C1107.53,482.341 1105.61,483.508 1106.18,483.85C1107.12,484.421 1107.74,485.641 1108.85,484.637C1113.4,480.491 1114.11,483.208 1115.17,482.88C1115.82,482.683 1116.54,483.212 1117.02,483.371C1118.07,483.722 1119.33,483.986 1120.45,483.986C1120.84,483.986 1121.72,484.153 1122.05,483.986C1122.6,483.714 1123.99,483.171 1124.63,483.494C1125.01,483.684 1125.74,484.536 1126.6,484.109C1127.69,483.562 1128.38,483.249 1129.67,483.249C1130.22,483.249 1130.74,483.939 1131.39,483.617C1131.65,483.485 1133.08,482.24 1133.72,482.88C1134.02,483.178 1134.41,483.938 1134.7,484.231C1135.33,484.858 1133.12,485.743 1132.86,485.828C1131.13,486.405 1128.5,486.422 1126.72,485.828C1125.47,485.412 1123.1,485.485 1122.17,486.442C1121.6,487.046 1121.03,487.998 1120.45,488.285Z" style="fill:white;fill-opacity:0.17;"/>
            </g>
            <g transform="matrix(1.40584,-0.116019,-0.290205,0.869353,-954.682,155.603)">
                <path d="M1120.45,488.285L1114.96,487.856C1114.49,487.856 1113.85,487.782 1113.49,487.961C1113.3,488.058 1112.92,489.078 1113.02,489.273C1113.09,489.412 1113.95,489.7 1114.18,489.745C1114.7,489.85 1115.29,489.774 1115.8,489.903C1116.82,490.157 1117.99,489.648 1119.01,489.903C1119.3,489.975 1119.68,490.241 1119.95,490.375C1120.62,490.711 1121.99,490.3 1122.57,490.008C1123.23,489.68 1123.85,489.136 1124.41,488.853C1124.77,488.675 1125.69,488.891 1125.93,489.01C1126,489.046 1127.1,488.476 1127.3,488.276C1127.44,488.132 1127.96,488.39 1128.09,488.433C1128.65,488.62 1129.21,488.8 1129.82,488.8C1129.92,488.8 1130.05,488.923 1130.18,488.853C1130.79,488.55 1131.23,487.988 1131.97,487.803C1132.3,487.721 1133.93,488.199 1134.33,488.066C1134.57,487.987 1135.74,487.126 1136.01,486.858C1136.07,486.797 1137.32,486.5 1137.64,486.176C1137.72,486.096 1138.3,486.176 1138.43,486.176C1139.09,486.176 1140.1,486.389 1140.74,486.176C1140.92,486.114 1141.87,485.585 1142.26,485.389C1142.92,485.06 1143.84,485.805 1144.46,485.494C1144.84,485.305 1145.26,485.201 1145.62,485.021C1145.86,484.9 1146.33,484.992 1146.56,484.916C1147.04,484.757 1147.24,484.24 1147.51,483.972C1147.76,483.714 1147.26,483.354 1147.19,483.289C1146.67,482.766 1145.33,482.704 1144.46,482.607C1144.36,482.596 1143.8,482.543 1143.67,482.607C1143.05,482.921 1143.07,483.738 1142.52,483.919C1141.88,484.134 1140.79,483.836 1140.16,483.709C1140.02,483.681 1139.24,483.527 1139.11,483.657C1139.02,483.748 1138.47,484.107 1138.32,484.182C1137.9,484.393 1136.19,484.322 1136.12,484.182C1136.06,484.065 1135.91,483.079 1135.96,483.027C1136.06,482.928 1136.06,482.794 1136.22,482.712C1136.9,482.373 1137.61,482.712 1138.32,482.712C1138.55,482.712 1138.84,482.766 1139.06,482.712C1140.03,482.469 1141.02,482.216 1142.05,481.872C1142.27,481.798 1142.66,481.859 1142.78,481.977C1142.84,482.039 1143.26,481.977 1143.36,481.977C1144.07,481.977 1143.69,481.089 1144.36,480.927C1147.82,480.087 1147.05,479.157 1143.88,479.615C1143.76,479.633 1142.32,479.699 1141.79,479.878C1141.36,480.02 1141.17,480.402 1140.63,480.402C1139.88,480.402 1139.02,480.408 1138.37,480.087C1138.04,479.919 1137.16,480.087 1136.8,480.087C1136.46,480.087 1135.87,479.978 1135.54,480.087C1135.42,480.128 1134.25,480.167 1134.17,480.087C1134.16,480.075 1132.34,480.089 1132.02,479.982C1131.49,479.804 1130.91,479.795 1130.34,479.51C1130.16,479.421 1130.03,479.045 1129.92,478.828C1129.55,478.087 1131.07,477.689 1131.65,477.883C1131.98,477.992 1132.2,478.582 1132.55,478.408C1133.05,478.155 1134.51,477.418 1134.65,477.463C1134.95,477.565 1135.94,476.376 1136.26,476.294C1136.85,476.148 1137.54,477.089 1138.1,476.809C1138.2,476.755 1138.69,476.203 1138.74,476.151C1138.88,476.011 1141.49,474.938 1141.44,474.748C1141.16,473.609 1137.03,473.85 1136.01,474.104C1135.46,474.242 1135.21,474.664 1134.75,474.891C1134.29,475.125 1133.61,475.364 1132.91,475.364C1132.51,475.364 1131.97,475.285 1131.65,475.049C1131.35,474.822 1130.8,474.46 1130.45,474.576C1129.6,474.858 1128.44,475.247 1127.77,474.576C1127.58,474.386 1127.12,474.646 1126.93,474.261C1126.59,473.576 1127.25,473.393 1127.72,473.159C1128.11,472.963 1130.07,473.369 1130.29,473.369C1130.83,473.369 1131.41,473.431 1131.92,473.264C1132.14,473.189 1132.38,472.956 1132.6,472.844C1132.99,472.65 1133.47,473.196 1133.75,473.054C1134.08,472.893 1134.33,472.219 1134.49,471.899C1134.52,471.845 1134.61,471.548 1134.54,471.479C1134.1,471.04 1133.4,470.924 1132.7,470.692C1132.49,470.62 1131.95,470.467 1131.71,470.587C1131.44,470.721 1131.24,470.955 1131.03,471.059C1130.4,471.371 1129.37,471.584 1128.61,471.584C1127.67,471.584 1126.98,471.855 1126.14,471.269C1126.02,471.185 1125.81,471.118 1125.72,470.955C1125.39,470.289 1126.12,470.343 1126.41,470.062C1126.84,469.624 1127.45,470.011 1128.09,469.8C1128.46,469.676 1128.84,469.642 1129.24,469.642C1129.61,469.642 1130.46,469.527 1130.5,469.485C1130.7,469.282 1130.87,469.081 1130.87,468.698C1130.87,468.58 1130.89,468.369 1130.82,468.33C1129.04,467.441 1126.64,468.057 1125.04,468.855C1124.68,469.035 1123.07,469.02 1123.41,468.33C1123.61,467.949 1124.81,467.448 1125.04,467.333C1125.43,467.139 1126.03,467.388 1126.46,467.175C1127.08,466.864 1127.88,466.962 1128.3,466.546C1128.4,466.442 1128.64,466.464 1128.72,466.388C1128.86,466.245 1130.62,465.352 1130.62,465.248C1130.62,465.248 1128.72,465.706 1128.68,464.823C1128.14,464.823 1126.77,464.37 1126.11,464.7C1125.31,465.097 1124.41,465.606 1123.4,466.174C1122.04,466.942 1118.45,467.681 1121.56,465.437C1122.69,464.62 1124.36,464.78 1125.98,463.963C1129.92,461.987 1129.18,462.064 1126.47,462.489C1124.86,462.742 1122.85,461.936 1122.05,462.735C1121.71,463.079 1120.84,463.087 1120.58,463.349C1120.47,463.457 1118.59,463.468 1118.37,463.472C1116.73,463.497 1114.8,463.334 1117.38,462.366C1117.92,462.165 1117.75,461.629 1118,461.629C1118.83,461.629 1120.52,462.149 1121.32,461.752C1122.12,461.351 1121.57,459.44 1121.32,458.927C1121.12,458.541 1119.36,458.551 1119.1,458.804C1118.94,458.968 1118.53,458.886 1118.37,459.049C1117.56,459.852 1117.16,460.155 1115.66,460.155C1115.45,460.155 1111.93,460.597 1111.79,460.46C1111.28,459.941 1114.42,458.578 1114.68,458.312C1115.46,457.531 1117.1,459.582 1117.88,458.804C1118.14,458.538 1118.01,457.812 1118.37,457.698C1121.57,456.687 1123.28,454.918 1118.61,455.979C1117.49,456.233 1116.58,456.133 1115.91,456.47C1115.19,456.832 1114.52,457.33 1113.33,457.33C1113.17,457.33 1112.45,457.429 1112.35,457.33C1112.18,457.162 1111.9,456.883 1111.73,456.716C1111.51,456.488 1111.82,455.933 1111.98,455.856C1113.06,455.317 1115.05,456.742 1115.05,454.996C1115.05,454.897 1115.13,454.217 1115.05,454.136C1113.89,452.974 1111.79,454.076 1110.75,455.119C1110.23,455.639 1109.18,455.462 1108.79,455.856C1108.68,455.958 1107.86,455.856 1107.68,455.856C1106.39,455.856 1106.91,456.24 1105.63,456.24C1105.46,456.24 1103.83,456.091 1103.71,456.203C1103.03,456.889 1102.24,456.875 1101.66,457.453C1100.95,458.165 1098.75,456.85 1097.98,456.593C1096.73,456.178 1096.32,457.019 1095.89,457.453C1095.85,457.488 1095.6,458.021 1095.76,458.19C1096.95,459.371 1099.47,459.594 1100.8,458.927C1101.21,458.721 1101.96,458.84 1102.28,458.681C1103.28,458.179 1104.46,458.823 1105.25,458.519C1108.66,457.196 1114.41,456.546 1111.77,459.343C1110.56,460.618 1107.06,461.383 1106.21,461.383C1105.82,461.383 1103.83,460.692 1103.38,461.138C1102.88,461.633 1101.67,461.991 1101.17,462.489C1101.06,462.601 1100.24,462.489 1100.06,462.489C1099,462.489 1097.89,462.022 1096.87,462.243C1094.17,462.829 1091.98,464.326 1096.26,464.209C1098.08,464.158 1099.12,464.068 1100.31,463.472C1100.9,463.178 1102.29,463.723 1102.77,463.963C1103.06,464.108 1103.8,463.963 1104.12,463.963C1105.65,463.963 1106.79,463.485 1108.05,462.857C1108.85,462.455 1110.24,462.94 1110.87,463.103C1111.37,463.229 1111.86,463.698 1112.35,463.103C1112.45,462.973 1113.73,462.829 1113.8,462.98C1113.91,463.209 1115.09,462.818 1115.17,463.064C1116.14,465.965 1109.4,466.545 1108.17,465.314C1108.09,465.228 1107.34,465.191 1107.19,465.191C1105.83,465.191 1105.49,466.051 1104.12,466.051C1103.39,466.051 1102.56,466.145 1101.91,465.928C1101.68,465.854 1101.18,465.678 1100.92,465.806C1100.65,465.94 1101.02,466.389 1100.8,466.42C1098.58,466.729 1096.23,467.979 1100.68,467.894C1103.03,467.849 1104.82,468.909 1106.33,467.402C1106.39,467.337 1107.53,467.371 1107.56,467.402C1108.29,468.134 1109.93,468.262 1111,468.262C1112.32,468.262 1113.5,467.256 1114.68,466.665C1116.02,465.998 1117.75,466.788 1118.98,467.402C1119.24,467.532 1120.01,467.206 1120.21,467.402C1120.35,467.546 1120.43,467.751 1120.58,467.894C1121.08,468.393 1120.23,469.112 1119.96,469.245C1118.89,469.782 1117.06,469.807 1116.03,469.122C1114.17,467.883 1113.06,469.133 1111.37,469.982C1109.89,470.719 1107.31,469.245 1105.84,469.982C1105.38,470.212 1105.27,471.063 1104.73,471.333C1104.05,471.673 1103.65,471.68 1103.13,472.193C1103.05,472.279 1101.29,472.932 1101.41,473.053C1102.7,474.348 1106.9,473.599 1108.54,473.053C1109.31,472.798 1109.87,471.652 1110.51,471.333C1112.14,470.518 1114.37,472.77 1115.79,473.053C1116.88,473.273 1118.47,471.41 1119.64,471.018C1120.22,470.825 1121.82,471.016 1122.32,470.948C1127.28,470.282 1125.93,471.667 1119.85,473.005C1118.85,473.227 1125.3,472.791 1125.86,473.913C1126.43,475.062 1123.89,475.715 1122.91,475.387C1122.02,475.089 1120.46,474.076 1119.47,474.404C1119.04,474.547 1118.64,475.068 1118.24,475.264C1117.77,475.499 1116.01,475.381 1115.54,475.264C1114.26,474.945 1112.97,473.127 1111.61,474.036C1111.26,474.272 1111.06,474.853 1110.63,475.141C1110.37,475.311 1110.01,475.388 1109.89,475.51C1109.5,475.905 1108.61,475.411 1108.17,475.633C1107.67,475.881 1106.68,475.653 1106.33,476.001C1106.15,476.183 1104.28,477.791 1104.14,478.066C1104.08,478.194 1106.24,477.889 1106.54,478.026C1109.11,479.183 1110.71,476.694 1112.1,477.107C1113.53,477.529 1114.79,477.067 1116.25,477.067C1117.1,477.067 1118.31,478.354 1119.1,478.089C1119.78,477.864 1120.35,477.223 1121.07,476.984C1122.24,476.592 1123.48,477.475 1124.63,477.475C1125.29,477.475 1127.47,476.875 1127.95,477.352C1128.18,477.582 1128.35,478.042 1128.56,478.458C1130.03,481.356 1127.04,483.151 1124.88,480.178C1124.77,480.023 1123.26,480.455 1123.08,480.573C1122.03,481.276 1121.62,481.755 1120.45,482.143C1119.15,482.577 1117.8,481.8 1116.77,481.283C1114.93,480.364 1114.44,481.485 1112.84,482.02C1111.38,482.507 1109.29,481.46 1107.93,482.143C1107.53,482.341 1105.61,483.508 1106.18,483.85C1107.12,484.421 1107.74,485.641 1108.85,484.637C1113.4,480.491 1114.11,483.208 1115.17,482.88C1115.82,482.683 1116.54,483.212 1117.02,483.371C1118.07,483.722 1119.33,483.986 1120.45,483.986C1120.84,483.986 1121.72,484.153 1122.05,483.986C1122.6,483.714 1123.99,483.171 1124.63,483.494C1125.01,483.684 1125.74,484.536 1126.6,484.109C1127.69,483.562 1128.38,483.249 1129.67,483.249C1130.22,483.249 1130.74,483.939 1131.39,483.617C1131.65,483.485 1133.08,482.24 1133.72,482.88C1134.02,483.178 1134.41,483.938 1134.7,484.231C1135.33,484.858 1133.12,485.743 1132.86,485.828C1131.13,486.405 1128.5,486.422 1126.72,485.828C1125.47,485.412 1123.1,485.485 1122.17,486.442C1121.6,487.046 1121.03,487.998 1120.45,488.285Z" style="fill:white;fill-opacity:0.11;"/>
            </g>
        </g>
        <g transform="matrix(5.14384,0,0,5.14384,-4004.64,-1118.52)">
            <path d="M1228.79,758.808C1231.73,757.094 1209.16,749.258 1207.78,745.608C1207.39,744.576 1194.49,744.122 1193.46,743.125C1185.83,735.729 1171.58,736.702 1164.87,737.66C1164.36,738.056 1154.95,739.64 1155.29,740.519C1155.76,740.659 1155.84,740.709 1155.41,740.644C1155.35,740.604 1155.31,740.563 1155.29,740.519C1152.11,739.573 1131.11,734.498 1128.86,732.694C1127.44,731.559 1112.49,726.098 1112.49,726.098L1102.62,719.174C1114.48,725.133 1138.7,738.258 1155.81,737.371C1160.98,737.104 1165.21,736.08 1168.58,734.931C1171.76,733.848 1146.07,711.888 1142.95,711.063C1079.16,694.207 1087.32,692.895 1142.62,707.312C1142.89,707.384 1141.28,706.018 1139.8,703.383C1138.83,701.645 1136.97,699.517 1136.46,697.445C1131.64,678.078 1131.63,656.731 1133.02,671.853C1133.6,678.143 1136.89,689.039 1144.28,706.201C1147.1,712.735 1159.84,719.559 1168.27,728.836C1172.56,733.555 1179.7,733.916 1197.48,736.895C1197.91,736.966 1179.27,706.893 1181.6,707.652C1181.85,707.732 1183.96,712.344 1183.96,710.316C1183.96,708.372 1182.56,700.657 1182.34,697.194C1182.25,695.934 1181.8,695.722 1180.79,695.094C1174.5,691.154 1154.99,676.129 1143.74,662.196C1143.62,662.053 1145.66,662.772 1147.81,665.245C1156.02,674.709 1172.56,690.418 1179.18,691.006C1181.94,691.251 1182.92,691.814 1182.94,691.649C1185.12,660.427 1189.63,631.348 1184.44,697.778C1184.23,700.422 1184.62,701.414 1184.97,701.135C1185.75,700.533 1191.61,702.002 1192.06,701.915C1195.97,701.169 1208.57,691.651 1212.98,683.832C1213.78,682.416 1210.96,688.543 1207.13,692.623C1203.45,696.553 1199.69,701.141 1193.51,703.142C1192.13,703.589 1184.51,703.452 1185.52,705.11C1186.93,707.413 1186.49,711.829 1186.71,712.588C1189.96,723.391 1205.44,739.411 1206.84,739.867C1216.46,743.02 1230.41,745.822 1232.28,746.828C1233.58,747.524 1223.69,675.27 1225.15,670.713C1227.06,664.75 1216,654.665 1213.66,649.214C1213.09,647.903 1203.08,644.784 1205.02,645.259C1208.32,646.065 1181.98,622.826 1182.79,621.734C1183.13,621.271 1182.69,616.533 1180.41,617.932C1173.24,622.346 1139.66,614.525 1143.69,614.696C1154.33,615.148 1181.15,619.099 1175.87,613.047C1174.62,611.618 1175.66,610.389 1174.53,609.238C1168.6,603.2 1164.57,596.849 1160.67,595.288C1129.19,582.693 1098.9,564.465 1101.52,565.3C1106.22,566.8 1158.04,593.749 1158.15,592.336C1158.19,591.727 1163.84,595.159 1161.37,590.559C1159.07,586.281 1153.94,574.992 1151.82,570.275C1151.04,568.799 1150.66,567.979 1150.87,568.157C1150.87,568.157 1151.23,568.961 1151.82,570.275C1155.21,576.71 1166.22,595.609 1169.95,598.591C1171.1,599.505 1174.12,603.019 1173.96,601.275C1173.72,598.777 1179.94,587.762 1185.21,581.423C1185.55,581.019 1193.84,557.131 1194.29,557.304C1200.74,559.753 1186.58,545.182 1183.78,542.557C1183.25,542.067 1197.51,554.541 1198.21,553.939C1205.31,547.895 1219.51,535.89 1219.07,536.586C1215.31,542.626 1193.55,559.846 1192.64,564.377C1191.32,570.979 1188.64,579.509 1188.93,579.188C1189.45,578.632 1189.9,578.166 1190.29,577.813C1193.57,574.765 1207.31,562.832 1189.25,580.665C1186.3,583.572 1184.77,592.704 1178.02,604.538C1175.03,609.779 1189.32,623.559 1191.73,624.962C1204.12,632.182 1223.21,650.53 1225.04,648.22C1228.05,644.391 1234.99,636.851 1232.96,630.353C1231.59,625.965 1238.75,549.553 1241.39,550.1C1241.85,550.196 1242.44,586.747 1243.47,591.099C1243.64,591.816 1252.67,598.832 1259.4,598.772C1265.8,598.715 1270.83,598.702 1274.71,598.725C1276.11,598.734 1293.23,595.233 1303.51,591.372C1306.36,590.3 1318.76,581.498 1328.36,569.885C1336.55,559.965 1342.18,546.89 1343.71,546.976C1345.09,547.054 1338.86,557.461 1332.63,566.472C1332.09,567.246 1334.29,569.572 1336.27,568.972C1372.76,557.897 1365.85,562.313 1347.03,568.704C1342.06,570.39 1336.67,571.161 1330.41,570.955C1326.81,570.837 1323.79,576.829 1321.67,578.782C1317.62,582.523 1315.17,587.008 1313.39,588.639C1313.19,588.816 1321.9,595.136 1328.54,600.137C1328.8,600.334 1345.15,604.202 1357.13,604.503C1357.55,604.514 1365.34,604.108 1371.45,600.949C1372.79,600.256 1376.15,599.887 1379.11,595.687C1380.73,593.381 1383.81,592.391 1384.62,590.862C1397.63,566.21 1391.33,579.892 1387.38,590.292L1374.87,600.836C1374.87,600.836 1373.07,601.919 1371.59,602.324C1366.36,603.75 1361.91,604.867 1362.22,604.911C1365.22,605.339 1381.14,607.607 1386.39,604.811C1439.2,576.691 1399.47,599.043 1388.57,605.747C1388.33,605.899 1383.68,606.696 1378.11,606.821C1375.08,606.89 1367.99,606.559 1367.51,606.578C1362.42,606.786 1347.59,605.215 1339.5,603.447C1338.4,603.207 1336.76,602.633 1336,602.608C1334.67,602.566 1333.95,604.326 1334.12,604.461C1337.51,607.236 1353.47,621.772 1360.43,623.064C1367.21,624.323 1377.55,627.091 1385.84,626.898C1390.93,626.779 1396.71,623.928 1398.22,624.229C1400.24,624.632 1397.38,625.148 1395.78,625.717C1392.37,626.931 1385.88,628.194 1382.65,627.772C1377.17,627.056 1367.06,625.609 1358.61,624.636C1354.98,624.217 1342.79,612.944 1335.56,610.168C1334.19,609.642 1331.32,604.062 1331.2,603.983C1326.67,600.745 1311.18,589.491 1310.38,589.776C1304.78,591.769 1287.77,598.936 1284.98,599.02C1279.12,599.196 1270.82,600.937 1264.14,601.415C1263.03,601.494 1243.36,596.591 1243.33,597.717C1243.03,611.401 1243.01,625.871 1243.01,626.576C1242.96,631.239 1245.7,642.474 1248.32,650.922C1249.84,655.831 1281.55,652.404 1292.87,648.183C1303.42,644.249 1312.63,640.753 1320.55,637.7C1321.33,637.4 1323.64,636.601 1322.85,636.816C1320.77,637.39 1322.88,610.957 1324.62,610.234C1324.78,610.169 1324.02,612.587 1323.96,614.817C1323.84,619.15 1324.12,627.344 1323.77,631.464C1323.51,634.66 1327.2,636.087 1328.72,636.823C1330.92,637.893 1332.89,640.184 1334.8,639.518C1336.13,639.051 1363.72,639.683 1365.88,635.199C1366.05,634.859 1371.86,634.783 1371.86,634.783C1371.86,634.783 1366.14,636.556 1364.22,637.405C1359.59,639.452 1346.43,641.446 1335.9,642.262C1334.41,642.377 1323.03,637.825 1321.6,638.473C1316.81,640.64 1308.02,643.983 1302.47,646.558C1300.82,647.324 1307.68,653.774 1308.91,658.169C1309.22,659.266 1361.08,657.565 1361.47,657.617C1366.09,658.236 1314.16,664.402 1308.45,660.651C1305.71,658.851 1300.94,648.845 1299.55,648.97C1294.7,649.405 1276.78,654.998 1261.27,656.94C1255.87,657.617 1249.43,661.203 1249.43,661.203C1248.94,670.271 1256.58,725.026 1258.33,724.326C1259.47,724.217 1264.4,726.888 1267.41,723.973C1268.68,722.751 1283.88,719.344 1284.7,712.845C1285.16,709.227 1285.07,703.896 1280.9,699.528C1278.02,696.521 1277.13,692.979 1275.16,691.789C1271.03,689.292 1267.52,689.388 1265.29,687.735C1260.59,684.24 1258.13,678.105 1260,678.008C1261.04,677.954 1262.29,683.491 1265.04,685.674C1268.1,688.096 1272.79,687.33 1276.36,690.47C1280.78,694.359 1283.5,703.813 1288.94,709.122C1291.27,711.391 1293.19,705.462 1294.48,704.413C1295.63,703.469 1296.95,702.102 1297.01,701.581C1297.32,698.479 1298.55,696.075 1297.84,694.65C1282.36,663.756 1293.1,678.615 1299.76,690.374C1300.25,691.24 1299.1,691.94 1298.92,693.775C1298.68,696.134 1299.01,699.745 1298.77,701.423C1298.53,703.034 1299.99,703.976 1301.34,702.739C1305.67,698.771 1316.59,695.4 1312.88,692.727C1311.34,691.624 1319.84,670.7 1319.23,672.152C1318.97,672.78 1313.64,692.352 1315.73,691.361C1320.46,689.119 1326.08,689.04 1329.6,687.452C1337.09,684.073 1341.11,680.061 1342.42,678.284C1347.93,670.795 1348.26,671.366 1343.28,679.863C1343.01,680.324 1337.76,685.46 1331.85,688.257C1326.21,690.925 1319.85,691.24 1319.7,691.425C1319.25,691.976 1314.35,696.487 1308.2,700.572C1303.45,703.731 1297.1,706.69 1296.78,707.027C1296.01,707.851 1282.66,714.533 1286.4,717.224C1287.88,718.289 1290.01,721.299 1295.15,721.771C1298.31,722.061 1308.98,722.309 1316.65,718.49C1330.97,711.358 1341.86,699.507 1317.76,721.261C1316.11,722.753 1295.51,725.28 1294.45,725.145C1292.23,724.862 1286.16,721.975 1284.69,721.171C1284.74,721.048 1284.65,720.972 1284.38,720.964C1284.34,720.962 1284.45,721.038 1284.69,721.171C1284.43,721.879 1260.42,739.022 1260.42,739.022C1257.79,755.358 1263.34,767.266 1266.12,779.221C1275.17,818.132 1271.47,852.842 1276.87,890.938C1266.18,899.226 1254.82,902.611 1241.69,893.223L1235.29,791.336L1228.79,758.808ZM1382.39,744.45C1383.55,744.74 1384.62,745.076 1385.47,745.536C1386.12,745.888 1386.71,746.279 1387.24,746.699L1382.39,744.45Z" style="fill-opacity:0.22;"/>
        </g>
    </g>
</svg>
