<svg xmlns="http://www.w3.org/2000/svg" xmlns:xlink="http://www.w3.org/1999/xlink" height="56" width="80.3"><path d="M21.85 29.05v6.35l.3.15 39.65 19.8v-27.4L40.85 38.4l-.15.1-18.85-9.45" fill="#410303" fill-rule="evenodd"/><path d="M36.75 5.45L66.6 20.4 40.75 33.45.95 13.5l-.1 5 21 10.55L40.7 38.5l.15-.1v-.6l-.1-3.3v-1.05 1.05l.1 3.3v.6L61.8 27.95v27.4l.05.05 4.3-2.15.65-.35V35.4l13-6.5-.1-5L39.8 3.35 36.2 5.2l.55.25M66.6 20.4l.2 5.05v4.95l12.9-6.5-12.9 6.5v-4.95l-.2-5.05m.2 10v5-5m0-4.95l-5 2.5 5-2.5" fill="#4f0404" fill-rule="evenodd"/><path d="M5.65-40.95l.35-.2 8.5-4.25 25.95 12.95v.05h-.05L.6-12.45-25.25-25.5 4.6-40.45l1.05-.5" fill="url(#radialGradient882)" fill-rule="evenodd" transform="matrix(-1 0 0 1 41.35 45.9)"/><path d="M.95 13.5H.9v-.05L26.85.5l8.5 4.25.35.2m1.05.5L66.6 20.4 40.75 33.45.95 13.5l-.1 5 21 10.55v6.35l.3.15 39.65 19.8v-27.4l5-2.5-.2-5.05m-.45 32.85l.65-.35V35.4l13-6.5-.1-5-12.9 6.5v-4.95m-27-22.1L36.2 5.2l-.5-.25m.5.25l.55.25m4 28v1.05l.1 3.3v.6l-.15.1-18.85-9.45M66.8 35.4v-5m-4.95 25h-.05v-.05m.05.05l4.3-2.15m-4.35-25.3L40.85 38.4M79.7 23.9L39.8 3.35" fill="none" stroke="#2f0202" stroke-linecap="round" stroke-linejoin="round"/><defs id="defs33"><radialGradient cx="0" cy="0" gradientTransform="matrix(.0232 0 0 .0211 8.6 -29.45)" gradientUnits="userSpaceOnUse" id="gradient0" r="819.2" spreadMethod="pad"><stop offset="0" stop-color="#2f0202" id="stop22"/><stop offset="0" stop-color="#6b0303" id="stop24"/><stop offset="0" stop-color="#2f0202" id="stop26"/><stop offset="0" stop-color="#600202" id="stop28"/><stop offset="1" stop-color="#400000" id="stop30"/></radialGradient><radialGradient xlink:href="#gradient0" id="radialGradient882" gradientUnits="userSpaceOnUse" gradientTransform="matrix(.0232 0 0 .0211 8.6 -29.45)" cx="0" cy="0" r="819.2" spreadMethod="pad"/><g id="sprite0" transform="translate(38.95 45.9)"><use height="66.5" transform="translate(-38.95 -45.9)" width="80.3" xlink:href="#shape0" id="use6" x="0" y="0"/></g><g id="shape0" transform="translate(38.95 45.9)"><path d="M19.5-16.85v6.35l-.3.15-39.65 19.8v-27.4L.5-7.5l.15.1 18.85-9.45" fill="#410303" fill-rule="evenodd" stroke="none" id="path9"/><path d="M4.6-40.45L-25.25-25.5.6-12.45 40.4-32.4l.1 5-21 10.55L.65-7.4.5-7.5v-.6l.1-3.3v-1.05 1.05L.5-8.1v.6l-20.95-10.45v27.4l-.05.05-4.3-2.15-.65-.35v-17.5l-13-6.5.1-5 39.9-20.55 3.6 1.85-.55.25M-25.25-25.5l-.2 5.05v4.95l-12.9-6.5 12.9 6.5v-4.95l.2-5.05m-.2 10v5-5m0-4.95l5 2.5-5-2.5" fill="#4f0404" fill-rule="evenodd" stroke="none" id="path11"/><path d="M19.2-10.35L41.3.6h.05l-40.4 20-26.2-13.05.45-.2 4.3 2.15h.05v-.05.05h-.05l.05-.05 39.65-19.8" fill="#000" fill-opacity=".2" fill-rule="evenodd" stroke="none" id="path13"/><path d="M5.65-40.95l.35-.2 8.5-4.25 25.95 12.95v.05h-.05L.6-12.45-25.25-25.5 4.6-40.45l1.05-.5" fill="url(#gradient0)" fill-rule="evenodd" stroke="none" id="path15"/><path d="M40.4-32.4h.05v-.05L14.5-45.4 6-41.15l-.35.2m-1.05.5L-25.25-25.5.6-12.45 40.4-32.4l.1 5-21 10.55v6.35l-.3.15-39.65 19.8v-27.4l-5-2.5.2-5.05m.45 32.85l-.65-.35v-17.5l-13-6.5.1-5 12.9 6.5v-4.95m27-22.1l3.6 1.85.5-.25m-.5.25l-.55.25m-4 28v1.05L.5-8.1v.6l.15.1 18.85-9.45m-44.95 6.35v-5m4.95 25h.05v-.05m-.05.05l-4.3-2.15m4.35-25.3L.5-7.5" fill="none" stroke="#2f0202" stroke-linecap="round" stroke-linejoin="round" stroke-width="1" id="path17"/><path d="M-38.35-22l39.9-20.55" fill="none" stroke="#2f0202" stroke-linecap="round" stroke-linejoin="round" stroke-width="1" id="path19"/></g></defs></svg>