<svg xmlns="http://www.w3.org/2000/svg" xmlns:xlink="http://www.w3.org/1999/xlink" height="55.348" width="44.221"><path d="M2.021 13.098q-1.85 5.3-1.45 11.45.45 7.35 4.15 13.2l-.1-3.7v-1.05q-3.45-5.85-3.45-12.95 0-3.65.9-6.95h-.05m17.7 17.35V51.848l6 3v-27.4V54.848l18-8.4v-.05l-.25-32.85-17.7 8.85-.05 5.05-6 3" fill="#4f0404" fill-rule="evenodd"/><path d="M4.721 37.748v.2l15-7.5 6-3 .05-5.05-21.15 10.6 21.15-10.6 17.7-8.85-38.85 19.45v1.05l.1 3.7" fill="#400000" fill-rule="evenodd"/><path d="M-.15-39.75q2.25 1.9 3.3 4.3l.4 1.05.45 1.1.05.05v.15l.1.35q.9 3.3.9 6.95 0 7.1-3.45 12.95L-37.25-32.3l25.8-13.1 9.15 4.55 2.15 1.1M4-33.3l.05.2-.05-.2" fill="url(#radialGradient886)" fill-rule="evenodd" transform="matrix(-1 0 0 1 6.221 45.848)"/><path d="M4.721 37.748v.2l15-7.5v3.9m23.75-20.8l-25.8-13.1-9.15 4.55-2.15 1.1m-1.65 31.65l-.1-3.7v-1.05m21.1-5.55l-6 3m6-3V54.848l-6-3v-17.5" fill="none" stroke="#2f0202" stroke-linecap="round" stroke-linejoin="round"/><path d="M6.371 6.098q-2.25 1.9-3.3 4.3l-.4 1.05-.45 1.1-.05.05v.15l-.15.35q-1.85 5.3-1.45 11.45.45 7.35 4.15 13.2m39 8.65l-.25-32.85-17.7 8.85m-23.7-9.3l.1-.35.05-.2m2.4 20.45q-3.45-5.85-3.45-12.95 0-3.65.9-6.95m2.55 19.9l21.15-10.6m-.05 32.45l18-8.4v-.05" fill="none" stroke="#400000" stroke-linecap="round" stroke-linejoin="round"/><path d="M25.771 22.398l-.05 5.05" fill="none" stroke="#000" stroke-linecap="round" stroke-linejoin="round"/><defs id="defs35"><radialGradient cx="0" cy="0" gradientTransform="translate(4.5 -31.25) scale(.0213)" gradientUnits="userSpaceOnUse" id="gradient0" r="819.2" spreadMethod="pad"><stop offset="0" stop-color="#2f0202" id="stop24"/><stop offset="0" stop-color="#6b0303" id="stop26"/><stop offset="0" stop-color="#2f0202" id="stop28"/><stop offset="0" stop-color="#600202" id="stop30"/><stop offset="1" stop-color="#400000" id="stop32"/></radialGradient><radialGradient xlink:href="#gradient0" id="radialGradient886" gradientUnits="userSpaceOnUse" gradientTransform="translate(4.5 -31.25) scale(.0213)" cx="0" cy="0" r="819.2" spreadMethod="pad"/></defs></svg>