<?xml version="1.0" encoding="UTF-8" standalone="no"?>
<svg
   xmlns:dc="http://purl.org/dc/elements/1.1/"
   xmlns:cc="http://creativecommons.org/ns#"
   xmlns:rdf="http://www.w3.org/1999/02/22-rdf-syntax-ns#"
   xmlns:svg="http://www.w3.org/2000/svg"
   xmlns="http://www.w3.org/2000/svg"
   xmlns:xlink="http://www.w3.org/1999/xlink"
   xmlns:sodipodi="http://sodipodi.sourceforge.net/DTD/sodipodi-0.dtd"
   xmlns:inkscape="http://www.inkscape.org/namespaces/inkscape"
   height="202"
   width="160"
   version="1.1"
   id="svg3137"
   sodipodi:docname="back-walking-2.svg"
   inkscape:version="1.0.2-2 (e86c870879, 2021-01-15)">
  <metadata
     id="metadata3141">
    <rdf:RDF>
      <cc:Work
         rdf:about="">
        <dc:format>image/svg+xml</dc:format>
        <dc:type
           rdf:resource="http://purl.org/dc/dcmitype/StillImage" />
        <dc:title></dc:title>
      </cc:Work>
    </rdf:RDF>
  </metadata>
  <sodipodi:namedview
     pagecolor="#ffffff"
     bordercolor="#666666"
     borderopacity="1"
     objecttolerance="10"
     gridtolerance="10"
     guidetolerance="10"
     inkscape:pageopacity="0"
     inkscape:pageshadow="2"
     inkscape:window-width="1914"
     inkscape:window-height="1328"
     id="namedview3139"
     showgrid="false"
     inkscape:zoom="5.5384615"
     inkscape:cx="80"
     inkscape:cy="91"
     inkscape:window-x="0"
     inkscape:window-y="0"
     inkscape:window-maximized="0"
     inkscape:current-layer="svg3137" />
  <defs
     id="defs3129">
    <path
       d="M 0.7,-0.3 2.55,1.9 H 1.5 L 0.05,0.7 -1.4,1.9 h -1.05 l 1.9,-2.2 H 0.7"
       fill-rule="evenodd"
       transform="translate(2.45,0.3)"
       id="a" />
    <use
       height="2.2"
       width="5"
       xlink:href="#a"
       id="c"
       x="0"
       y="0" />
    <g
       id="b">
      <path
         d="m -15.5,-41.55 q -2.65,-3.1 -2.5,-7.1 -0.15,-5.3 5.35,-9.8 5.5,-5.05 13.15,-5.55 7.6,0.5 13.05,5.55 5.45,4.5 5.45,9.8 0,4 -2.6,7.1 h 0.1 -0.05 l -1,1.2 -1.25,-0.3 -0.7,0.75 8.5,3.05 0.05,-0.1 0.8,0.1 h 0.95 l 0.4,0.3 0.55,0.55 0.25,0.35 0.25,1.5 -0.2,0.45 q -0.35,1.55 -1.4,1.65 l -2.1,0.1 -1.15,-0.9 v -0.05 h -0.05 l 0.05,-0.15 -6.05,-2.2 -0.45,1.3 h 0.05 l -1.3,10.5 h 0.05 l -0.05,0.4 V -23 H 12.6 l -0.35,4.2 -1.05,4.1 -1.65,4 v 0.05 H 8.4 v 5.2 Q 8.35,-4.1 7.6,-3.2 6.95,-2.45 5.9,-2.45 4.9,-2.45 4.2,-3.2 3.4,-4.1 3.4,-5.45 v -5.2 H 2.1 v -1.2 H 1.8 V -12 l -0.9,-1.55 h -2.45 l -0.45,0.5 -1.35,0.2 h -7.1 l -2.2,-1 q -1.2,-1.6 -1.5,-3.4 l -0.1,-1.2 0.05,-0.95 0.55,-1.85 h 0.1 v -0.55 l 0.15,-0.15 v -1.35 h -0.05 l -0.05,-0.8 v -2.05 l -0.2,-0.65 -0.15,-0.45 0.15,-0.4 0.25,-0.5 0.25,-0.75 h 0.1 l 0.35,-4.75 0.1,-1.6 -0.9,0.35 v 0.05 l -4.95,1.8 0.05,0.15 h -0.05 v 0.05 l -1.1,0.9 -2.1,-0.1 q -1.1,-0.1 -1.45,-1.65 l -0.15,-0.45 0.25,-1.5 0.2,-0.35 0.6,-0.55 0.35,-0.3 h 1 l 0.75,-0.1 0.05,0.1 6.2,-2.2 -0.7,-1.05 -1.1,-1.45 h 0.2 m 2.85,6.3 0.05,-0.3 -0.05,0.3 m -1.1,13.35 -0.05,-0.1 0.05,0.1 m 3.7,-6.55 -0.05,-0.05 v 0.05 h 0.05"
         fill="#ffffff"
         fill-rule="evenodd"
         transform="translate(24.75,64.6)"
         id="path3122" />
      <path
         d="m 15.45,-40.35 4.15,1.2 v -0.05 l 2.55,0.95 v -0.05 l 0.3,0.2 v 0.1 h 0.1 l 1.25,-0.1 q 0.2,0.15 0.3,0 1.55,0.35 2,1.5 l 0.15,0.25 v 0.25 l 0.15,0.3 0.2,0.7 q 0.2,0.9 -0.15,1.6 l -0.1,0.2 q -0.35,1.9 -2,2.4 0.05,0.45 -0.2,0.1 l -2.7,0.2 q -0.65,-0.35 -1.65,-1.25 l -5.85,-2.1 H 13.9 l 0.45,-1.3 6.05,2.2 -0.05,0.15 h 0.05 v 0.05 l 1.15,0.9 2.1,-0.1 q 1.05,-0.1 1.4,-1.65 l 0.2,-0.45 -0.25,-1.5 -0.25,-0.35 -0.55,-0.55 -0.4,-0.3 h -0.95 l -0.8,-0.1 -0.05,0.1 -8.5,-3.05 0.7,-0.75 1.25,0.3 m -5.9,29.7 v 5.2 q 0,1.95 -1,3.1 -1.1,1.25 -2.65,1.25 -1.5,0 -2.65,-1.25 -1.05,-1.15 -1,-3.1 v -5.2 H 3.4 v 5.2 q 0,1.35 0.8,2.25 0.7,0.75 1.7,0.75 1.05,0 1.7,-0.75 0.75,-0.9 0.8,-2.25 v -5.2 h 1.15 m -22.3,-23 -1,0.4 v -0.1 l -4.15,1.5 q -1,0.9 -1.6,1.25 l -2.7,-0.2 q -0.3,0.35 -0.2,-0.1 -1.7,-0.5 -2,-2.4 l -0.15,-0.2 q -0.35,-0.7 -0.15,-1.6 l 0.25,-0.7 0.15,-0.3 v -0.25 l 0.1,-0.25 q 0.45,-1.15 2.05,-1.5 0.05,0.15 0.3,0 l 1.2,0.1 h 0.1 v -0.1 l 0.3,-0.2 0.05,0.05 q 1.25,-0.5 2.55,-0.95 v 0.05 l 3.05,-0.95 0.7,1.05 -6.2,2.2 -0.05,-0.1 -0.75,0.1 h -1 l -0.35,0.3 -0.6,0.55 -0.2,0.35 -0.25,1.5 0.15,0.45 q 0.35,1.55 1.45,1.65 l 2.1,0.1 1.1,-0.9 v -0.05 h 0.05 l -0.05,-0.15 4.95,-1.8 v -0.05 l 0.9,-0.35 -0.1,1.6"
         fill-rule="evenodd"
         transform="translate(24.75,64.6)"
         id="path3124" />
      <path
         d="M 9.25,23.05 Q 6.6,19.95 6.75,15.95 6.6,10.65 12.1,6.15 17.6,1.1 25.25,0.6 q 7.6,0.5 13.05,5.55 5.45,4.5 5.45,9.8 0,4 -2.6,7.1"
         fill="none"
         stroke="#000000"
         stroke-linecap="round"
         stroke-linejoin="round"
         stroke-width="1.2"
         id="path3126" />
    </g>
  </defs>
  <g
     style="clip-rule:evenodd;fill-rule:evenodd;stroke-linecap:square;stroke-linejoin:round;stroke-miterlimit:1.5"
     id="g3980"
     transform="translate(0.1,8)">
    <g
       id="hat2">
        <path
   d="m 37.413,34.778 10.285,9.714 9.286,5.143 5.857,2.714 7.714,2.857 h 6.286 l 12.286,-0.428 7,-2.572 8.428,-4.571 12.429,-12.429 8,-6 3.714,-3.143 1.143,7.286 -1.286,4.857 c 1.056,4.24 -3.103,7.704 -4.571,9 l -4.286,5.143 -72.428,9.714 -5.429,-3.857 -2.286,-4.285 -1.857,-5.143 -1,-5 z"
   style="fill:#654815"
   id="path3843" />

        <path
   d="m 120.127,53.063 c 0,0 15.714,-18.142 8,-27.857"
   style="fill:none;stroke:#654815;stroke-width:2.4px"
   id="path3845" />

        <path
   d="m 46.984,63.063 c 0,0 -15.857,-9.784 -9,-29.749"
   style="fill:none;stroke:#654815;stroke-width:2.4px;stroke-linecap:butt"
   id="path3847" />

    </g>
    <g
       transform="matrix(2,0,0,2,82.641,156.2)"
       id="g3864">
        <g
   id="b-0"
   transform="translate(-24.75,-64.6)">
            <g
   transform="translate(24.75,64.6)"
   id="g3852">
                <path
   d="m -15.5,-41.55 c -1.767,-2.067 -2.6,-4.433 -2.5,-7.1 -0.1,-3.533 1.683,-6.8 5.35,-9.8 3.667,-3.367 8.05,-5.217 13.15,-5.55 5.067,0.333 9.417,2.183 13.05,5.55 3.633,3 5.45,6.267 5.45,9.8 0,2.667 -0.867,5.033 -2.6,7.1 h 0.1 -0.05 l -1,1.2 -1.25,-0.3 -0.7,0.75 8.5,3.05 0.05,-0.1 0.8,0.1 h 0.95 l 0.4,0.3 0.55,0.55 0.25,0.35 0.25,1.5 -0.2,0.45 c -0.233,1.033 -0.7,1.583 -1.4,1.65 l -2.1,0.1 -1.15,-0.9 v -0.05 h -0.05 l 0.05,-0.15 -6.05,-2.2 -0.45,1.3 h 0.05 l -1.3,10.5 h 0.05 l -0.05,0.4 V -23 H 12.6 l -0.35,4.2 -1.05,4.1 -1.65,4 v 0.05 H 8.4 v 5.2 C 8.367,-4.55 8.1,-3.8 7.6,-3.2 7.167,-2.7 6.6,-2.45 5.9,-2.45 5.233,-2.45 4.667,-2.7 4.2,-3.2 3.667,-3.8 3.4,-4.55 3.4,-5.45 v -5.2 H 2.1 v -1.2 H 1.8 V -12 l -0.9,-1.55 h -2.45 l -0.45,0.5 -1.35,0.2 h -7.1 l -2.2,-1 c -0.8,-1.067 -1.3,-2.2 -1.5,-3.4 l -0.1,-1.2 0.05,-0.95 0.55,-1.85 h 0.1 v -0.55 l 0.15,-0.15 v -1.35 h -0.05 l -0.05,-0.8 v -2.05 l -0.2,-0.65 -0.15,-0.45 0.15,-0.4 0.25,-0.5 0.25,-0.75 h 0.1 l 0.35,-4.75 0.1,-1.6 -0.9,0.35 v 0.05 l -4.95,1.8 0.05,0.15 h -0.05 v 0.05 l -1.1,0.9 -2.1,-0.1 c -0.733,-0.067 -1.217,-0.617 -1.45,-1.65 l -0.15,-0.45 0.25,-1.5 0.2,-0.35 0.6,-0.55 0.35,-0.3 h 1 l 0.75,-0.1 0.05,0.1 6.2,-2.2 -0.7,-1.05 -1.1,-1.45 h 0.2 m 2.85,6.3 0.05,-0.3 -0.05,0.3 m -1.1,13.35 -0.05,-0.1 0.05,0.1 m 3.7,-6.55 -0.05,-0.05 v 0.05 h 0.05"
   style="fill:#ffffff"
   id="path3850" />

            </g>

            <g
   transform="translate(24.75,64.6)"
   id="g3856">
                <path
   d="m 15.45,-40.35 4.15,1.2 v -0.05 l 2.55,0.95 v -0.05 l 0.3,0.2 v 0.1 h 0.1 l 1.25,-0.1 c 0.133,0.1 0.233,0.1 0.3,0 1.033,0.233 1.7,0.733 2,1.5 l 0.15,0.25 v 0.25 l 0.15,0.3 0.2,0.7 c 0.133,0.6 0.083,1.133 -0.15,1.6 l -0.1,0.2 c -0.233,1.267 -0.9,2.067 -2,2.4 0.033,0.3 -0.033,0.333 -0.2,0.1 l -2.7,0.2 c -0.433,-0.233 -0.983,-0.65 -1.65,-1.25 l -5.85,-2.1 H 13.9 l 0.45,-1.3 6.05,2.2 -0.05,0.15 h 0.05 v 0.05 l 1.15,0.9 2.1,-0.1 c 0.7,-0.067 1.167,-0.617 1.4,-1.65 l 0.2,-0.45 -0.25,-1.5 -0.25,-0.35 -0.55,-0.55 -0.4,-0.3 h -0.95 l -0.8,-0.1 -0.05,0.1 -8.5,-3.05 0.7,-0.75 1.25,0.3 m -5.9,29.7 v 5.2 c 0,1.3 -0.333,2.333 -1,3.1 -0.733,0.833 -1.617,1.25 -2.65,1.25 -1,0 -1.883,-0.417 -2.65,-1.25 -0.7,-0.767 -1.033,-1.8 -1,-3.1 v -5.2 H 3.4 v 5.2 c 0,0.9 0.267,1.65 0.8,2.25 0.467,0.5 1.033,0.75 1.7,0.75 0.7,0 1.267,-0.25 1.7,-0.75 0.5,-0.6 0.767,-1.35 0.8,-2.25 v -5.2 h 1.15 m -22.3,-23 -1,0.4 v -0.1 l -4.15,1.5 c -0.667,0.6 -1.2,1.017 -1.6,1.25 l -2.7,-0.2 c -0.2,0.233 -0.267,0.2 -0.2,-0.1 -1.133,-0.333 -1.8,-1.133 -2,-2.4 l -0.15,-0.2 c -0.233,-0.467 -0.283,-1 -0.15,-1.6 l 0.25,-0.7 0.15,-0.3 v -0.25 l 0.1,-0.25 c 0.3,-0.767 0.983,-1.267 2.05,-1.5 0.033,0.1 0.133,0.1 0.3,0 l 1.2,0.1 h 0.1 v -0.1 l 0.3,-0.2 0.05,0.05 c 0.833,-0.333 1.683,-0.65 2.55,-0.95 v 0.05 l 3.05,-0.95 0.7,1.05 -6.2,2.2 -0.05,-0.1 -0.75,0.1 h -1 l -0.35,0.3 -0.6,0.55 -0.2,0.35 -0.25,1.5 0.15,0.45 c 0.233,1.033 0.717,1.583 1.45,1.65 l 2.1,0.1 1.1,-0.9 v -0.05 h 0.05 l -0.05,-0.15 4.95,-1.8 v -0.05 l 0.9,-0.35 -0.1,1.6"
   id="path3854" />

            </g>

            <path
   d="m 9.25,23.05 c -1.767,-2.067 -2.6,-4.433 -2.5,-7.1 -0.1,-3.533 1.683,-6.8 5.35,-9.8 3.667,-3.367 8.05,-5.217 13.15,-5.55 5.067,0.333 9.417,2.183 13.05,5.55 3.633,3 5.45,6.267 5.45,9.8 0,2.667 -0.867,5.033 -2.6,7.1"
   style="fill:none;fill-rule:nonzero;stroke:#000000;stroke-width:1.2px;stroke-linecap:round;stroke-miterlimit:4"
   id="path3858" />

        </g>

        <g
   id="a-3"
   transform="translate(12.8,-53)">
            <path
   d="M 0.7,-0.3 2.55,1.9 H 1.5 L 0.05,0.7 -1.4,1.9 h -1.05 l 1.9,-2.2 H 0.7"
   id="path3861" />

        </g>

    </g>
    <g
       id="belt"
       transform="translate(0,12)">
        <path
   d="M 94.508,94.546 C 76.952,94.658 57.73,84.435 57.73,84.435 c 0,0 -2.889,3.889 -2.222,12 0,0 13.222,10.556 52.333,8.667 l 1.889,-10.333"
   style="fill:#d96a00;stroke:#654815;stroke-width:2.43px;stroke-linecap:butt"
   id="path3866" />

    </g>
    <g
       id="gun"
       transform="matrix(1.95292,-0.43138,0.43138,1.95292,90.6506,157.843)">
        <g
   transform="matrix(0.5,0,0,0.5,-41.3205,-72.1)"
   id="g3871">
            <path
   d="m 97.88,102.449 c 0,0 -2.202,-1.536 -3.38,-0.205 -1.177,1.331 -0.409,2.611 -0.409,2.611 l 0.973,0.87"
   style="fill:none;stroke:#5f6486;stroke-width:0.62px;stroke-linecap:round"
   id="path3869" />

        </g>

        <g
   transform="matrix(0.5,0,0,0.5,-41.3205,-72.1)"
   id="g3875">
            <path
   d="m 97.624,102.244 -4.25,5.939 4.608,3.635 4.454,-6.809 c 0,0 -2.56,-0.41 -4.454,-2.151"
   style="fill:#b5ccc8;stroke:#5e6383;stroke-width:0.8px"
   id="path3873" />

        </g>

        <g
   transform="matrix(0.5,0,0,0.5,-41.3205,-72.1)"
   id="g3879">
            <path
   d="m 99.928,106.596 -1.639,2.611"
   style="fill:none;stroke:#616485;stroke-width:0.49px;stroke-linecap:round"
   id="path3877" />

        </g>

        <g
   transform="matrix(0.5,0,0,0.5,-41.3205,-72.1)"
   id="g3883">
            <path
   d="m 98.852,105.674 -1.638,2.611"
   style="fill:none;stroke:#616485;stroke-width:0.49px;stroke-linecap:round"
   id="path3881" />

        </g>

        <g
   transform="matrix(0.5,0,0,0.5,-41.3205,-72.1)"
   id="g3887">
            <path
   d="m 97.572,104.701 -1.792,2.56"
   style="fill:none;stroke:#616485;stroke-width:0.49px;stroke-linecap:round"
   id="path3885" />

        </g>

        <g
   transform="matrix(0.5,0,0,0.5,-41.3205,-72.1)"
   id="g3891">
            <path
   d="m 91.063,106.88 7.778,6.444 -10.222,11.889 -4,-3.444 0.111,-7.223 6.333,-7.666"
   style="fill:#d96a00;stroke:#654815;stroke-width:2.09px"
   id="path3889" />

        </g>

        <g
   transform="matrix(0.5,0,0,0.5,-41.3205,-72.1)"
   id="g3895">
            <path
   d="m 93.952,94.546 5.223,-3.111 4.555,6.889 -1.333,5.889 c 0,0 -3.111,-1.222 -4,-2.444 -0.889,-1.223 0.333,-2.445 0.333,-2.445 z"
   style="fill:#654815;stroke:#654815;stroke-width:1.39px"
   id="path3893" />

        </g>

    </g>
    <g
       id="hat"
       transform="matrix(2,0,0,2,82.641,156.2)">
        <g
   transform="matrix(0.5,0,0,0.5,-41.3205,-78.1)"
   id="g3900">
            <path
   d="m 37.984,36.492 13.286,10.429 9.571,5 13.429,3.428 13.714,-0.571 8,-2.715 9.286,-5.285 8,-8 7.143,-7.429 5.428,-3.286 2.429,-2 -3.429,-2 -10.857,2 -11.143,6.143 -2.714,-12.714 -2.714,-7.286 -4.572,-6.285 -4.714,-3.572 -6,1.714 -2,2 -5.857,-2 -4.429,0.143 -2.428,2.143 -2.572,7.572 -2.571,13.285 -1,6.715 -14.572,-2.572 H 41.27 l -3.286,1.572 v 3.571"
   style="fill:#d96a00"
   id="path3898" />

        </g>

        <g
   transform="matrix(0.5,0,0,0.5,-41.3205,-78.1)"
   id="g3904">
            <path
   d="m 62.413,28.063 -0.858,6.572 4,2.143 5.143,1.714 5.286,0.571 5,-0.285 5,-1 7.571,-2.143 10.286,-2.714 -0.857,-2.715 -1.429,-5.143 -0.428,-1.285 -10.714,3.285 -11.858,1.572 -12,-0.714 -3.857,-1.143 z"
   style="fill:#654815"
   id="path3902" />

        </g>

        <g
   transform="matrix(0.5,0,0,0.5,-41.3205,-78.1)"
   id="g3908">
            <path
   d="m 37.984,33.314 c 0,0 1.714,-4.571 12.143,-1.428 l 11.714,2 c 0,0 0.714,-21.429 5.857,-27.858 0,0 3.572,-6.285 11.715,0.286 0,0 5,-4.286 9.285,-3.571 0,0 9.286,1.714 14.143,27.857 l 0.429,1.428 c 0,0 14.143,-10.142 23.428,-7.714"
   style="fill:none;stroke:#654815;stroke-width:2.43px"
   id="path3906" />

        </g>

        <g
   transform="matrix(0.5,0,0,0.5,-41.3205,-78.1)"
   id="g3912">
            <path
   d="m 38.127,35.314 c 0,0 14.714,19.572 41.143,20.143 0,0 12.428,2.035 25.143,-7.822 0,0 9.185,-9.375 16.386,-15.515 3.585,-3.055 6.57,-4.772 7.899,-5.199"
   style="fill:none;stroke:#654815;stroke-width:2.43px;stroke-linecap:round"
   id="path3910" />

        </g>

        <g
   transform="matrix(0.5,0,0,0.5,-41.3205,-78.1)"
   id="g3916">
            <path
   d="m 76.841,9.635 c 0,0 3.857,1.714 7.429,-0.714"
   style="fill:none;stroke:#654815;stroke-width:2.43px;stroke-linecap:round"
   id="path3914" />

        </g>

        <g
   transform="matrix(0.5,0,0,0.5,-41.3205,-78.1)"
   id="g3920">
            <path
   d="m 61.413,33.886 c 0,0 8.714,11.857 42.142,-1.858"
   style="fill:#654815;stroke:#654815;stroke-width:2.43px;stroke-linecap:round"
   id="path3918" />

        </g>

        <g
   transform="matrix(0.5,0,0,0.5,-41.3205,-78.1)"
   id="g3924">
            <path
   d="m 100.984,23.6 c 0,0 -16.286,8 -38,4"
   style="fill:none;stroke:#654815;stroke-width:2.43px;stroke-linecap:round"
   id="path3922" />

        </g>

    </g>
  </g>
</svg>
