<svg height="202" width="160" xmlns="http://www.w3.org/2000/svg"><g style="clip-rule:evenodd;fill-rule:evenodd;stroke-linecap:square;stroke-linejoin:round;stroke-miterlimit:1.5"><path d="m37.413 34.778 10.285 9.714 9.286 5.143 5.857 2.714 7.714 2.857h6.286l12.286-.428 7-2.572 8.428-4.571 12.429-12.429 8-6 3.714-3.143 1.143 7.286-1.286 4.857c1.056 4.24-3.103 7.704-4.571 9l-4.286 5.143-72.428 9.714-5.429-3.857-2.286-4.285-1.857-5.143-1-5z" style="fill:#654815" transform="translate(-.7 9.1)"/><path d="M120.127 53.063s15.714-18.142 8-27.857" style="fill:none;stroke:#654815;stroke-width:2.4px" transform="translate(-.7 9.1)"/><path d="M46.984 63.063s-15.857-9.784-9-29.749" style="fill:none;stroke:#654815;stroke-width:2.4px;stroke-linecap:butt" transform="translate(-.7 9.1)"/><path d="m112.841 84.6 8.3 2.4v-.1l5.1 1.9v-.1l.6.4v.2h.2l2.5-.2c.266.2.466.2.6 0 2.066.466 3.4 1.466 4 3l.3.5v.5l.3.6.4 1.4c.266 1.2.166 2.266-.3 3.2l-.2.4c-.466 2.534-1.8 4.134-4 4.8.066.6-.066.666-.4.2l-5.4.4-3.3-2.5-11.7-4.2h-.1l.9-2.6 12.1 4.4-.1.3h.1v.1c.934.8 1.7 1.4 2.3 1.8l4.2-.2c1.4-.134 2.334-1.234 2.8-3.3l.4-.9-.5-3-.5-.7-1.1-1.1-.8-.6h-1.9l-1.6-.2-.1.2-17-6.1 1.4-1.5 2.5.6m-6.2 40.9h4.8c1.666 0 3.034.534 4.1 1.6 1.2 1.2 1.8 3.066 1.8 5.6 0 2.466-.6 4.3-1.8 5.5-1.066 1.066-2.434 1.6-4.1 1.6h-13.3v-3h13.2c.934 0 1.7-.3 2.3-.9.734-.734 1.1-1.8 1.1-3.2 0-1.466-.366-2.566-1.1-3.3-.6-.534-1.366-.8-2.3-.8h-10.8l1.5-3.1h4.6m-31 18.5v10.4c0 2.6-.7 4.666-2.1 6.2-1.466 1.666-3.2 2.5-5.2 2.5s-3.766-.834-5.3-2.5c-1.4-1.534-2.1-3.6-2.1-6.2V144h2.4v10.4c0 1.8.5 3.3 1.5 4.5 1 1 2.166 1.5 3.5 1.5s2.466-.5 3.4-1.5c1-1.2 1.534-2.7 1.6-4.5V144h2.3m-19.2-46-2 .8v-.2l-8.3 3-3.2 2.5-5.4-.4c-.4.466-.534.4-.4-.2-2.266-.666-3.6-2.266-4-4.8l-.3-.4c-.466-.934-.566-2-.3-3.2l.5-1.4.3-.6v-.5l.2-.5c.6-1.534 1.966-2.534 4.1-3 .066.2.266.2.6 0l2.4.2h.2v-.2l.6-.4.1.1 5.1-1.9v.1l6.1-1.9 1.4 2.1-12.4 4.4-.1-.2-1.5.2h-2l-.7.6-1.2 1.1-.4.7-.5 3 .3.9c.466 2.066 1.434 3.166 2.9 3.3l4.2.2 2.2-1.8v-.1h.1l-.1-.3 9.9-3.6v-.1l1.8-.7-.2 3.2"/><path d="m15.4-40.35-1.25-.3-.7.75 8.5 3.05.05-.1.8.1h.95l.4.3.55.55.25.35.25 1.5-.2.45c-.233 1.033-.7 1.583-1.4 1.65l-2.1.1c-.3-.2-.683-.5-1.15-.9v-.05h-.05l.05-.15-6.05-2.2-.45 1.3h.05l-1.3 10.5h.05l-.05.4v.05h-.05l-.25 3.1H10l-.75 1.55h5.4c.467 0 .85.133 1.15.4.367.367.55.917.55 1.65 0 .7-.183 1.233-.55 1.6-.3.3-.683.45-1.15.45h-3.5v-.45l-.15.45H8.05v1.45l-7.2-.7v-.05H-1.6l-1.55 1.7v1.2h-1.2v5.2c-.033.9-.3 1.65-.8 2.25-.467.5-1.033.75-1.7.75S-8.1-2.7-8.6-3.2c-.5-.6-.75-1.35-.75-2.25v-5.2h-1.2l-1.6-2.35.1-.1c-1.2-1.267-1.917-2.65-2.15-4.15l-.1-1.2.05-.95.55-1.85h.1v-.55l.15-.15v-1.35h-.05l-.05-.8v-2.05l-.2-.65-.15-.45.15-.4.25-.5.25-.75h.1l.35-4.75.1-1.6-.9.35v.05l-4.95 1.8.05.15h-.05v.05l-1.1.9-2.1-.1c-.733-.067-1.217-.617-1.45-1.65l-.15-.45.25-1.5.2-.35.6-.55.35-.3h1l.75-.1.05.1 6.2-2.2-.7-1.05-1.1-1.45h.2c-1.767-2.067-2.6-4.433-2.5-7.1-.1-3.533 1.683-6.8 5.35-9.8C-9.033-61.817-4.65-63.667.45-64c5.067.333 9.417 2.183 13.05 5.55 3.633 3 5.45 6.267 5.45 9.8 0 2.667-.867 5.033-2.6 7.1h.1-.05l-1 1.2m-28.1 5.1.05-.3-.05.3M-13.85-22l.05.1-.05-.1m3.75-6.45-.05-.05v.05h.05" style="fill:#fff" transform="matrix(2 0 0 2 82.041 165.3)"/><path d="M9.25 23.05c-1.767-2.067-2.6-4.433-2.5-7.1-.1-3.533 1.683-6.8 5.35-9.8C15.767 2.783 20.15.933 25.25.6c5.067.333 9.417 2.183 13.05 5.55 3.633 3 5.45 6.267 5.45 9.8 0 2.667-.867 5.033-2.6 7.1" style="fill:none;fill-rule:nonzero;stroke:#000;stroke-width:1.2px;stroke-linecap:round;stroke-miterlimit:4" transform="matrix(2 0 0 2 32.441 36.1)"/><path d="M94.508 94.546c-17.556.112-36.778-10.111-36.778-10.111s-2.889 3.889-2.222 12c0 0 13.222 10.556 52.333 8.667l1.889-10.333" style="fill:#d96a00;stroke:#654815;stroke-width:2.43px;stroke-linecap:butt" transform="translate(-.7 21.1)"/><path d="M97.88 102.449s-2.202-1.536-3.38-.205c-1.177 1.331-.409 2.611-.409 2.611l.973.87" style="fill:none;stroke:#5f6486;stroke-width:.62px;stroke-linecap:round" transform="translate(-.7 21.1)"/><path d="m97.624 102.244-4.25 5.939 4.608 3.635 4.454-6.809s-2.56-.41-4.454-2.151" style="fill:#b5ccc8;stroke:#5e6383;stroke-width:.8px" transform="translate(-.7 21.1)"/><path d="m99.928 106.596-1.639 2.611m.563-3.533-1.638 2.611m.358-3.584-1.792 2.56" style="fill:none;stroke:#616485;stroke-width:.49px;stroke-linecap:round" transform="translate(-.7 21.1)"/><path d="m91.063 106.88 7.778 6.444-10.222 11.889-4-3.444.111-7.223 6.333-7.666" style="fill:#d96a00;stroke:#654815;stroke-width:2.09px" transform="translate(-.7 21.1)"/><path d="m93.952 94.546 5.223-3.111 4.555 6.889-1.333 5.889s-3.111-1.222-4-2.444c-.889-1.223.333-2.445.333-2.445z" style="fill:#654815;stroke:#654815;stroke-width:1.39px" transform="translate(-.7 21.1)"/><path d="M37.984 36.492 51.27 46.921l9.571 5 13.429 3.428 13.714-.571 8-2.715 9.286-5.285 8-8 7.143-7.429 5.428-3.286 2.429-2-3.429-2-10.857 2-11.143 6.143-2.714-12.714-2.714-7.286-4.572-6.285-4.714-3.572-6 1.714-2 2-5.857-2-4.429.143-2.428 2.143-2.572 7.572-2.571 13.285-1 6.715-14.572-2.572H41.27l-3.286 1.572v3.571" style="fill:#d96a00" transform="translate(-.7 9.1)"/><path d="m62.413 28.063-.858 6.572 4 2.143 5.143 1.714 5.286.571 5-.285 5-1 7.571-2.143 10.286-2.714-.857-2.715-1.429-5.143-.428-1.285-10.714 3.285-11.858 1.572-12-.714-3.857-1.143z" style="fill:#654815" transform="translate(-.7 9.1)"/><path d="M37.984 33.314s1.714-4.571 12.143-1.428l11.714 2s.714-21.429 5.857-27.858c0 0 3.572-6.285 11.715.286 0 0 5-4.286 9.285-3.571 0 0 9.286 1.714 14.143 27.857l.429 1.428s14.143-10.142 23.428-7.714" style="fill:none;stroke:#654815;stroke-width:2.43px" transform="translate(-.7 9.1)"/><path d="M38.127 35.314S52.841 54.886 79.27 55.457c0 0 12.428 2.035 25.143-7.822 0 0 9.185-9.375 16.386-15.515 3.585-3.055 6.57-4.772 7.899-5.199M76.841 9.635s3.857 1.714 7.429-.714" style="fill:none;stroke:#654815;stroke-width:2.43px;stroke-linecap:round" transform="translate(-.7 9.1)"/><path d="M61.413 33.886s8.714 11.857 42.142-1.858" style="fill:#654815;stroke:#654815;stroke-width:2.43px;stroke-linecap:round" transform="translate(-.7 9.1)"/><path d="M100.984 23.6s-16.286 8-38 4" style="fill:none;stroke:#654815;stroke-width:2.43px;stroke-linecap:round" transform="translate(-.7 9.1)"/></g><path d="m109.425 58.332 3.7 4.4h-2.1l-2.9-2.4-2.9 2.4h-2.1l3.8-4.4h2.5" fill-rule="evenodd" id="gikopoipoi_eyes_open" style="stroke-width:2"/><path d="M104.925 60.632h6.3" fill="none" stroke="#000" stroke-linecap="round" stroke-linejoin="round" stroke-width="3" id="gikopoipoi_eyes_closed" style="display:none"/></svg>