<?xml version="1.0" encoding="UTF-8" standalone="no"?>
<svg
   xmlns:dc="http://purl.org/dc/elements/1.1/"
   xmlns:cc="http://creativecommons.org/ns#"
   xmlns:rdf="http://www.w3.org/1999/02/22-rdf-syntax-ns#"
   xmlns:svg="http://www.w3.org/2000/svg"
   xmlns="http://www.w3.org/2000/svg"
   xmlns:xlink="http://www.w3.org/1999/xlink"
   xmlns:sodipodi="http://sodipodi.sourceforge.net/DTD/sodipodi-0.dtd"
   xmlns:inkscape="http://www.inkscape.org/namespaces/inkscape"
   height="202"
   width="160"
   version="1.1"
   id="svg928"
   sodipodi:docname="back-sitting.svg"
   inkscape:version="1.0.2-2 (e86c870879, 2021-01-15)">
  <metadata
     id="metadata932">
    <rdf:RDF>
      <cc:Work
         rdf:about="">
        <dc:format>image/svg+xml</dc:format>
        <dc:type
           rdf:resource="http://purl.org/dc/dcmitype/StillImage" />
        <dc:title></dc:title>
      </cc:Work>
    </rdf:RDF>
  </metadata>
  <sodipodi:namedview
     pagecolor="#ffffff"
     bordercolor="#666666"
     borderopacity="1"
     objecttolerance="10"
     gridtolerance="10"
     guidetolerance="10"
     inkscape:pageopacity="0"
     inkscape:pageshadow="2"
     inkscape:window-width="2880"
     inkscape:window-height="1526"
     id="namedview930"
     showgrid="false"
     inkscape:zoom="5.5384615"
     inkscape:cx="80"
     inkscape:cy="91"
     inkscape:window-x="-11"
     inkscape:window-y="-11"
     inkscape:window-maximized="1"
     inkscape:current-layer="svg928" />
  <defs
     id="defs920">
    <path
       d="M 0.7,-0.3 2.55,1.9 H 1.5 L 0.05,0.7 -1.4,1.9 h -1.05 l 1.9,-2.2 H 0.7"
       fill-rule="evenodd"
       transform="translate(2.45,0.3)"
       id="a" />
    <use
       height="2.2"
       width="5"
       xlink:href="#a"
       id="c"
       x="0"
       y="0" />
    <g
       id="b">
      <path
         d="m -15.5,-41.55 q -2.65,-3.1 -2.5,-7.1 -0.15,-5.3 5.35,-9.8 5.5,-5.05 13.15,-5.55 7.6,0.5 13.05,5.55 5.45,4.5 5.45,9.8 0,4 -2.6,7.1 h 0.1 -0.05 l -2.55,3.05 -0.05,-0.1 -0.8,0.05 0.65,9.65 h 0.15 l 0.25,0.75 0.2,0.5 0.2,0.4 -0.15,0.45 -0.3,0.75 -0.2,0.35 q -0.6,0.55 -1.1,0.75 l -0.15,0.1 h -0.5 q -1.6,0.3 -2.1,-0.6 -1.15,-0.45 -0.95,-1.9 l 0.4,-1.4 v -0.05 l 0.15,-0.05 -0.45,-6.45 -1.35,0.1 0.45,6.3 -0.5,2 q 0.25,1.65 1.3,2.4 -0.25,0.35 0.15,0.15 1.1,1.35 3.05,0.85 l 0.25,0.05 h 0.2 L 12.65,-23 H 12.6 l -0.25,2.95 H 12.3 l -0.05,0.2 h -1.9 l -1.2,1.55 h 5.05 q 0.7,0 1.15,0.4 0.55,0.55 0.55,1.65 0,1.05 -0.55,1.6 -0.45,0.45 -1.15,0.45 H 7.6 v 1.2 l -6.65,-0.45 -0.05,-0.1 -11.55,0.3 -1.6,-0.15 q -1.6,-1.8 -1.9,-3.85 l -0.1,-1.2 0.05,-0.95 0.55,-1.85 h 0.1 v -0.55 l 0.15,-0.15 v -1.35 h -0.05 l -0.05,-0.8 v -2.05 l -0.2,-0.65 -0.15,-0.45 0.15,-0.4 0.25,-0.5 0.25,-0.75 h 0.1 l 0.7,-9.65 -0.85,-0.05 -0.4,-0.05 v -0.15 l -2.05,-2.75 h 0.2 m 1.7,19.55 0.05,0.1 -0.05,-0.1 m 3.75,-6.45 -0.05,-0.05 v 0.05 h 0.05"
         fill="#ffffff"
         fill-rule="evenodd"
         transform="translate(18.6,64.6)"
         id="path913" />
      <path
         d="m 13.9,-38.5 0.8,4.5 0.15,1.95 0.05,-0.05 v 0.1 l 0.2,2.65 V -29 H 15 v 0.1 l 0.6,1.1 q -0.05,0.25 0.15,0.3 0.3,1.6 -0.6,2.45 l -0.15,0.2 q -0.15,-0.05 -0.2,0.1 L 14.55,-24.5 14,-24 q -0.65,0.5 -1.3,0.55 H 12.5 L 12.25,-23.5 Q 10.3,-23 9.2,-24.35 8.8,-24.15 9.05,-24.5 8,-25.25 7.75,-26.9 l 0.5,-2 -0.45,-6.3 1.35,-0.1 0.45,6.45 -0.15,0.05 v 0.05 l -0.4,1.4 q -0.2,1.45 0.95,1.9 0.5,0.9 2.1,0.6 h 0.5 l 0.15,-0.1 q 0.5,-0.2 1.1,-0.75 l 0.2,-0.35 0.3,-0.75 0.15,-0.45 -0.2,-0.4 -0.2,-0.5 -0.25,-0.75 H 13.7 l -0.65,-9.65 0.8,-0.05 0.05,0.1 m -1.65,18.65 h 2 q 1.25,0 2.05,0.8 0.9,0.9 0.9,2.8 0,1.85 -0.9,2.75 -0.8,0.8 -2.05,0.8 H 7.6 v -1.5 h 6.6 q 0.7,0 1.15,-0.45 0.55,-0.55 0.55,-1.6 0,-1.1 -0.55,-1.65 -0.45,-0.4 -1.15,-0.4 H 9.15 l 1.2,-1.55 h 1.9 m -25.75,-4.25 -0.45,-0.4 -0.2,-0.25 -0.2,-0.1 -0.2,-0.2 q -0.9,-0.85 -0.55,-2.45 0.15,-0.05 0.15,-0.3 l 0.55,-1.1 0.05,-0.1 h -0.1 l -0.05,-0.35 h 0.05 l 0.2,-2.65 v -0.1 l 0.05,0.05 0.1,-1.95 0.85,-4.6 0.85,0.05 -0.7,9.65 h -0.1 l -0.25,0.75 -0.25,0.5 -0.15,0.4 0.15,0.45 0.2,0.65 v 2.05"
         fill-rule="evenodd"
         transform="translate(18.6,64.6)"
         id="path915" />
      <path
         d="M 3.1,23.05 Q 0.45,19.95 0.6,15.95 0.45,10.65 5.95,6.15 11.45,1.1 19.1,0.6 q 7.6,0.5 13.05,5.55 5.45,4.5 5.45,9.8 0,4 -2.6,7.1"
         fill="none"
         stroke="#000000"
         stroke-linecap="round"
         stroke-linejoin="round"
         stroke-width="1.2"
         id="path917" />
    </g>
  </defs>
  <g
     style="clip-rule:evenodd;fill-rule:evenodd;stroke-linecap:square;stroke-linejoin:round;stroke-miterlimit:1.5"
     id="g1591"
     transform="translate(-0.21645616,20.732132)">
    <path
       d="m 108.888,65.124 c 0,0 7.884,0.973 9.267,10.598 1.382,9.626 -4.557,13.517 -4.557,13.517 l -8.55,-8.038 3.84,-16.077"
       style="fill:#d96a00"
       id="path1495" />
    <g
       transform="matrix(2,0,0,2,82.641,144.2)"
       id="g1551">
        <g
   transform="matrix(0.5,0,0,0.5,-41.3205,-72.1)"
   id="g1499">
            <path
   d="m 112.508,66.324 c 0,0 8.222,7.445 5.111,16.222 0,0 -2.983,5.888 -4.538,6.222 -1.556,0.333 -0.24,0.778 -0.24,0.778"
   style="fill:#d96a00;stroke:#654815;stroke-width:2.43px"
   id="path1497" />

        </g>

        <g
   transform="matrix(0.5,0,0,0.5,-41.3205,-72.1)"
   id="g1503">
            <path
   d="m 113.508,67.991 c 0,0 3.889,8.333 -2.333,13.111"
   style="fill:#d96a00;stroke:#654815;stroke-width:2.43px"
   id="path1501" />

        </g>

        <g
   id="b-6"
   transform="translate(-18.6,-64.6)">
            <g
   transform="translate(18.6,64.6)"
   id="g1507">
                <path
   d="m -15.5,-41.55 c -1.767,-2.067 -2.6,-4.433 -2.5,-7.1 -0.1,-3.533 1.683,-6.8 5.35,-9.8 3.667,-3.367 8.05,-5.217 13.15,-5.55 5.067,0.333 9.417,2.183 13.05,5.55 3.633,3 5.45,6.267 5.45,9.8 0,2.667 -0.867,5.033 -2.6,7.1 h 0.1 -0.05 l -2.55,3.05 -0.05,-0.1 -0.8,0.05 0.65,9.65 h 0.15 l 0.25,0.75 0.2,0.5 0.2,0.4 -0.15,0.45 -0.3,0.75 -0.2,0.35 c -0.4,0.367 -0.767,0.617 -1.1,0.75 l -0.15,0.1 h -0.5 c -1.067,0.2 -1.767,0 -2.1,-0.6 -0.767,-0.3 -1.083,-0.933 -0.95,-1.9 l 0.4,-1.4 v -0.05 l 0.15,-0.05 -0.45,-6.45 -1.35,0.1 0.45,6.3 -0.5,2 c 0.167,1.1 0.6,1.9 1.3,2.4 -0.167,0.233 -0.117,0.283 0.15,0.15 0.733,0.9 1.75,1.183 3.05,0.85 l 0.25,0.05 h 0.2 L 12.65,-23 H 12.6 l -0.25,2.95 H 12.3 l -0.05,0.2 h -1.9 l -1.2,1.55 h 5.05 c 0.467,0 0.85,0.133 1.15,0.4 0.367,0.367 0.55,0.917 0.55,1.65 0,0.7 -0.183,1.233 -0.55,1.6 -0.3,0.3 -0.683,0.45 -1.15,0.45 H 7.6 v 1.2 l -6.65,-0.45 -0.05,-0.1 -11.55,0.3 -1.6,-0.15 c -1.067,-1.2 -1.7,-2.483 -1.9,-3.85 l -0.1,-1.2 0.05,-0.95 0.55,-1.85 h 0.1 v -0.55 l 0.15,-0.15 v -1.35 h -0.05 l -0.05,-0.8 v -2.05 l -0.2,-0.65 -0.15,-0.45 0.15,-0.4 0.25,-0.5 0.25,-0.75 h 0.1 l 0.7,-9.65 -0.85,-0.05 -0.4,-0.05 v -0.15 l -2.05,-2.75 h 0.2 m 1.7,19.55 0.05,0.1 -0.05,-0.1 m 3.75,-6.45 -0.05,-0.05 v 0.05 h 0.05"
   style="fill:#ffffff"
   id="path1505" />

            </g>

            <g
   transform="matrix(0.5,0,0,0.5,-22.7205,-7.5)"
   id="g1511">
                <path
   d="M 94.508,94.546 C 76.952,94.658 57.73,84.435 57.73,84.435 c 0,0 -2.889,3.889 -2.222,12 0,0 13.222,10.556 52.333,8.667 l 1.889,-10.333"
   style="fill:#d96a00;stroke:#654815;stroke-width:2.43px;stroke-linecap:butt"
   id="path1509" />

            </g>

            <g
   transform="translate(18.6,64.6)"
   id="g1515">
                <path
   d="m 13.9,-38.5 0.8,4.5 0.15,1.95 0.05,-0.05 v 0.1 l 0.2,2.65 V -29 H 15 v 0.1 l 0.6,1.1 c -0.033,0.167 0.017,0.267 0.15,0.3 0.2,1.067 0,1.883 -0.6,2.45 l -0.15,0.2 c -0.1,-0.033 -0.167,0 -0.2,0.1 L 14.55,-24.5 14,-24 c -0.433,0.333 -0.867,0.517 -1.3,0.55 h -0.2 l -0.25,-0.05 c -1.3,0.333 -2.317,0.05 -3.05,-0.85 -0.267,0.133 -0.317,0.083 -0.15,-0.15 -0.7,-0.5 -1.133,-1.3 -1.3,-2.4 l 0.5,-2 -0.45,-6.3 1.35,-0.1 0.45,6.45 -0.15,0.05 v 0.05 l -0.4,1.4 c -0.133,0.967 0.183,1.6 0.95,1.9 0.333,0.6 1.033,0.8 2.1,0.6 h 0.5 l 0.15,-0.1 c 0.333,-0.133 0.7,-0.383 1.1,-0.75 l 0.2,-0.35 0.3,-0.75 0.15,-0.45 -0.2,-0.4 -0.2,-0.5 -0.25,-0.75 H 13.7 l -0.65,-9.65 0.8,-0.05 0.05,0.1 m -1.65,18.65 h 2 c 0.833,0 1.517,0.267 2.05,0.8 0.6,0.6 0.9,1.533 0.9,2.8 0,1.233 -0.3,2.15 -0.9,2.75 -0.533,0.533 -1.217,0.8 -2.05,0.8 H 7.6 v -1.5 h 6.6 c 0.467,0 0.85,-0.15 1.15,-0.45 0.367,-0.367 0.55,-0.9 0.55,-1.6 0,-0.733 -0.183,-1.283 -0.55,-1.65 -0.3,-0.267 -0.683,-0.4 -1.15,-0.4 H 9.15 l 1.2,-1.55 h 1.9 m -25.75,-4.25 -0.45,-0.4 -0.2,-0.25 -0.2,-0.1 -0.2,-0.2 c -0.6,-0.567 -0.783,-1.383 -0.55,-2.45 0.1,-0.033 0.15,-0.133 0.15,-0.3 l 0.6,-1.2 h -0.1 l -0.05,-0.35 h 0.05 l 0.2,-2.65 v -0.1 l 0.05,0.05 0.1,-1.95 0.85,-4.6 0.85,0.05 -0.7,9.65 h -0.1 l -0.25,0.75 -0.25,0.5 -0.15,0.4 0.15,0.45 0.2,0.65 v 2.05"
   id="path1513" />

            </g>

            <path
   d="M 3.1,23.05 C 1.333,20.983 0.5,18.617 0.6,15.95 0.5,12.417 2.283,9.15 5.95,6.15 9.617,2.783 14,0.933 19.1,0.6 c 5.067,0.333 9.417,2.183 13.05,5.55 3.633,3 5.45,6.267 5.45,9.8 0,2.667 -0.867,5.033 -2.6,7.1"
   style="fill:none;fill-rule:nonzero;stroke:#000000;stroke-width:1.2px;stroke-linecap:round;stroke-miterlimit:4"
   id="path1517" />

        </g>

        <g
   id="a-4"
   transform="translate(12.8,-53)">
            <path
   d="M 0.7,-0.3 2.55,1.9 H 1.5 L 0.05,0.7 -1.4,1.9 h -1.05 l 1.9,-2.2 H 0.7"
   id="path1520" />

        </g>

        <g
   transform="matrix(0.5,0,0,0.5,-41.3205,-72.1)"
   id="g1525">
            <path
   d="m 97.88,102.449 c 0,0 -2.202,-1.536 -3.38,-0.205 -1.177,1.331 -0.409,2.611 -0.409,2.611 l 0.973,0.87"
   style="fill:none;stroke:#5f6486;stroke-width:0.62px;stroke-linecap:round"
   id="path1523" />

        </g>

        <g
   transform="matrix(0.5,0,0,0.5,-41.3205,-72.1)"
   id="g1529">
            <path
   d="m 97.624,102.244 -4.25,5.939 4.608,3.635 4.454,-6.809 c 0,0 -2.56,-0.41 -4.454,-2.151"
   style="fill:#b5ccc8;stroke:#5e6383;stroke-width:0.8px"
   id="path1527" />

        </g>

        <g
   transform="matrix(0.5,0,0,0.5,-41.3205,-72.1)"
   id="g1533">
            <path
   d="m 99.928,106.596 -1.639,2.611"
   style="fill:none;stroke:#616485;stroke-width:0.49px;stroke-linecap:round"
   id="path1531" />

        </g>

        <g
   transform="matrix(0.5,0,0,0.5,-41.3205,-72.1)"
   id="g1537">
            <path
   d="m 98.852,105.674 -1.638,2.611"
   style="fill:none;stroke:#616485;stroke-width:0.49px;stroke-linecap:round"
   id="path1535" />

        </g>

        <g
   transform="matrix(0.5,0,0,0.5,-41.3205,-72.1)"
   id="g1541">
            <path
   d="m 97.572,104.701 -1.792,2.56"
   style="fill:none;stroke:#616485;stroke-width:0.49px;stroke-linecap:round"
   id="path1539" />

        </g>

        <g
   transform="matrix(0.5,0,0,0.5,-41.3205,-72.1)"
   id="g1545">
            <path
   d="m 91.063,106.88 7.778,6.444 -10.222,11.889 -4,-3.444 0.111,-7.223 6.333,-7.666"
   style="fill:#d96a00;stroke:#654815;stroke-width:2.09px"
   id="path1543" />

        </g>

        <g
   transform="matrix(0.5,0,0,0.5,-41.3205,-72.1)"
   id="g1549">
            <path
   d="m 93.952,94.546 5.223,-3.111 4.555,6.889 -1.333,5.889 c 0,0 -3.111,-1.222 -4,-2.444 -0.889,-1.223 0.333,-2.445 0.333,-2.445 z"
   style="fill:#654815;stroke:#654815;stroke-width:1.39px"
   id="path1547" />

        </g>

    </g>
  </g>
</svg>
