<svg xmlns="http://www.w3.org/2000/svg" height="202" width="160"><g style="clip-rule:evenodd;fill-rule:evenodd;stroke-linecap:square;stroke-linejoin:round;stroke-miterlimit:1.5"><path d="m41.191 34.141 10.4 6.08 5.6 2.24 6.16 3.2 6.16 2.16 6.16 1.12 7.52.32 6.24-.4 5.76-1.04 4.48-1.28 4-1.84 5.04-3.36 3.68-3.84 3.6-5.2 2.08-3.76 4.56-.88 2.32 1.28 1.04 3.84v4.48l-1.04 5.52-2.24 3.76-2.24 3.52-1.68 1.76-73.28 7.52-2.88-2.4-2.48-2.8-2.24-2.8-1.2-3.6-.08-4 .56-3.68 1.12-3.44z" style="fill:#654815" transform="translate(4.2 4.283)"/><path d="M-15.5-41.55c-1.767-2.067-2.6-4.433-2.5-7.1-.1-3.533 1.683-6.8 5.35-9.8C-8.983-61.817-4.6-63.667.5-64c5.067.333 9.417 2.183 13.05 5.55 3.633 3 5.45 6.267 5.45 9.8 0 2.667-.867 5.033-2.6 7.1h.1-.05l-2.6 3.1v.8l-.2-.95-.8.05.65 9.65h.15l.25.75.2.5.2.4-.15.45-.3.75-.2.35-.9.7h-.05l-.05 1.5h.05l-.05.5h-.05l-.35 4.2-1.05 4.1-1.65 4v.05H8.4v5.2c-.033.9-.3 1.65-.8 2.25-.433.5-1 .75-1.7.75-.667 0-1.233-.25-1.7-.75-.533-.6-.8-1.35-.8-2.25v-5.2H2.1v-1.2h-.3V-12l-.9-1.55h-2.45l-1.55 1.7v1.2h-1.2v5.2c-.033.9-.3 1.65-.8 2.25-.467.5-1.033.75-1.7.75s-1.25-.25-1.75-.75c-.5-.6-.75-1.35-.75-2.25v-5.2h-1.2L-12.1-13l.1-.1c-1.2-1.267-1.917-2.65-2.15-4.15l-.1-1.2.05-.95.55-1.85h.1v-.55l.15-.15V-24c.5.4 1.017.583 1.55.55l.25-.05c1.267.333 2.267.05 3-.85.267.133.333.083.2-.15.667-.5 1.083-1.3 1.25-2.4-.033-.467-.183-1.133-.45-2l.45-6.3-1.35-.1-.5 6.45.15.05v.05h.05l.4 1.4c.1.967-.217 1.6-.95 1.9-.367.6-1.067.8-2.1.6h-.5c-.4-.133-.833-.417-1.3-.85l-.2-.35-.4-1.2.15-.4.25-.5.25-.75h.1l.7-9.65-.85-.05-.4-.05m-.1 16.75-.05-.1zm3.65-6.55h.05l-.05-.05v.05" style="fill:#fff" transform="matrix(2 0 0 2 86.541 163.483)"/><path d="M-13.65-38.65v-.15l-2.05-2.75h.2" style="fill:#fff" transform="matrix(2 0 0 2 86.541 163.483)"/><path d="m55.255 106.179-.32 9.856s10.944 2.816 27.84 1.216c16.896-1.6 25.6-5.376 25.6-5.376s.896-9.6-.256-11.776c0 0-10.624 6.016-25.344 6.848-14.72.832-26.688-.64-26.688-.64l-.832-.128" style="fill:#d96a00;stroke:#654815;stroke-width:1.74px" transform="translate(4.2 4.283)"/><path d="M80.815 45.261s4.4.96 14.08-1.44" style="fill:none;stroke:#654815;stroke-width:1.39px;stroke-linecap:round" transform="translate(4.2 4.283)"/><path d="m78.379 110.863-.041 4.055m-4.833-3.604.122 3.891" style="fill:none;stroke:#654815;stroke-width:2.43px;stroke-linecap:round" transform="translate(4.2 4.283)"/><ellipse cx="89.911" cy="108.899" rx="5.344" ry="4.448" style="fill:#ffa200" transform="matrix(1.69858 -.3175 .30144 1.61265 -89.462 -32.108)"/><ellipse cx="91.799" cy="108.707" rx="5.952" ry="3.744" style="fill:none;stroke:#fddc81;stroke-width:.43px" transform="matrix(1.05474 -.29663 .35717 1.27 -39.265 4.107)"/><path d="M97.88 102.449s-2.202-1.536-3.38-.205c-1.177 1.331-.409 2.611-.409 2.611l.973.87" style="fill:none;stroke:#5f6486;stroke-width:.62px;stroke-linecap:round" transform="rotate(-63 91.4 138.859)"/><path d="m97.624 102.244-4.25 5.939 4.608 3.635 4.454-6.809s-2.56-.41-4.454-2.151" style="fill:#b5ccc8;stroke:#5e6383;stroke-width:.8px" transform="rotate(-63 91.4 138.859)"/><path d="m99.928 106.596-1.639 2.611m.563-3.533-1.638 2.611m.358-3.584-1.792 2.56" style="fill:none;stroke:#616485;stroke-width:.49px;stroke-linecap:round" transform="rotate(-63 91.4 138.859)"/><path d="m91.063 106.88 7.778 6.444-10.222 11.889-4-3.444.111-7.223 6.333-7.666" style="fill:#d96a00;stroke:#654815;stroke-width:2.09px" transform="rotate(-63 91.4 138.859)"/><path d="m93.952 94.546 5.223-3.111 4.555 6.889-1.333 5.889s-3.111-1.222-4-2.444c-.889-1.223.333-2.445.333-2.445z" style="fill:#654815;stroke:#654815;stroke-width:1.39px" transform="rotate(-63 91.4 138.859)"/><path d="m53.814 102.694-.5 3.8 3.1 4 4 .7 3.8-1 2.5-2.7.2-3.3-13.1-1.5" style="fill:#fff;stroke:#fff;stroke-width:1px;stroke-linecap:round" transform="translate(4.2 4.283)"/><path d="m114.241 88.183 1.6 11.2.1-.1v.2l.4 5.3v.7h-.2v.2c.334.934.734 1.666 1.2 2.2-.066.334.034.534.3.6.4 2.134 0 3.766-1.2 4.9l-.3.4c-.2-.066-.334 0-.4.2l-.5.5-1.1 1c-.734.534-1.466.866-2.2 1h-.1l.1-3h.1l1.8-1.4.4-.7.6-1.5.3-.9-.4-.8-.4-1-.5-1.5h-.3l-1.3-19.3 1.6-.1.4 1.9m-8.6 54v10.4c0 2.6-.666 4.666-2 6.2-1.466 1.666-3.234 2.5-5.3 2.5-2 0-3.766-.834-5.3-2.5-1.4-1.534-2.066-3.6-2-6.2v-10.4h2.3v10.4c0 1.8.534 3.3 1.6 4.5.934 1 2.066 1.5 3.4 1.5 1.4 0 2.534-.5 3.4-1.5 1-1.2 1.534-2.7 1.6-4.5v-10.4h2.3m-25.4 0v10.4c0 2.6-.7 4.666-2.1 6.2-1.466 1.666-3.2 2.5-5.2 2.5s-3.766-.834-5.3-2.5c-1.4-1.534-2.1-3.6-2.1-6.2v-10.4h2.4v10.4c0 1.8.5 3.3 1.5 4.5 1 1 2.166 1.5 3.5 1.5s2.466-.5 3.4-1.5c1-1.2 1.534-2.7 1.6-4.5v-10.4h2.3m-20.5-26.7-1.1-1-.4-.5-.4-.2-.4-.4c-1.2-1.134-1.566-2.766-1.1-4.9.2-.066.3-.266.3-.6l1.2-2.4h-.2l-.1-.7h.1l.4-5.3v-.2l.1.1 1.9-13.1 1.7.1-1.4 19.3h-.2l-.5 1.5-.5 1-.3.8.8 2.4.4.7c.934.866 1.8 1.434 2.6 1.7h1c2.066.4 3.466 0 4.2-1.2 1.466-.6 2.1-1.866 1.9-3.8l-.8-2.8h-.1v-.1l-.3-.1 1-12.9 2.7.2-.9 12.6c.534 1.734.834 3.066.9 4-.334 2.2-1.166 3.8-2.5 4.8.266.466.134.566-.4.3-1.466 1.8-3.466 2.366-6 1.7l-.5.1c-1.066.066-2.1-.3-3.1-1.1"/><path d="M3.1 23.05C1.333 20.983.5 18.617.6 15.95c-.1-3.533 1.683-6.8 5.35-9.8C9.617 2.783 14 .933 19.1.6c5.067.333 9.417 2.183 13.05 5.55 3.633 3 5.45 6.267 5.45 9.8 0 2.667-.867 5.033-2.6 7.1" style="fill:none;fill-rule:nonzero;stroke:#000;stroke-width:1.2px;stroke-linecap:round;stroke-miterlimit:4" transform="matrix(2 0 0 2 49.341 34.283)"/><path d="m99.647 91.663 3.222-1.778s2.333 0 3 .667" style="fill:#ffa200;stroke:#ffa200;stroke-width:2.09px;stroke-linecap:round" transform="translate(3.914 .425)"/><path d="M97.98 76.996s5.444 10.222 5.778 20.556" style="fill:#ffa200;stroke:#ffa200;stroke-width:2.09px;stroke-linecap:round" transform="translate(3.914 .425)"/><path d="M100.98 95.885s2.444-3.444 5.778-.444" style="fill:#ffa200;stroke:#ffa200;stroke-width:2.09px;stroke-linecap:round" transform="translate(3.914 .425)"/><path d="M97.341 75.383c.2.6.5 1.1.9 1.5l1.4.5 1.9-1.2c.534-.866.8-1.966.8-3.3 0-1.8-.6-3.966-1.8-6.5h2.1c1.2 2.134 1.8 4.234 1.8 6.3s-.434 3.666-1.3 4.8c-.8 1.066-1.866 1.6-3.2 1.6-1.8 0-3.066-.934-3.8-2.8-.8 1.866-2.066 2.8-3.8 2.8-1.4 0-2.5-.566-3.3-1.7-.866-1.134-1.3-2.7-1.3-4.7 0-2.066.634-4.166 1.9-6.3h2c-1.134 2.534-1.7 4.7-1.7 6.5 0 1.334.234 2.434.7 3.3.534.8 1.166 1.2 1.9 1.2.534 0 1-.2 1.4-.6l.9-1.4.2-2.3v-3.6h2.1v3.6l.2 2.3m16.2-18.5 3.7 4.4h-2.1l-2.9-2.4-2.9 2.4h-2.1l3.8-4.4h2.5m-32.5 0 3.7 4.4h-2.1l-2.9-2.4-2.9 2.4h-2.1l3.8-4.4h2.5"/><path d="m40.951 34.141-3.92 6.88-.4 7.68 1.84 4.08 2.8 3.6 4.48 2.88 1.12.08 2.8-8.08 2.48-3.92 2.4-1.76 2.56-2.4 2.72 1.2 4.08 2.4 5.84 1.36 5.92 1.04 6.96.48 6.8-.48 6-1.28 6.16-1.84 5.36-2.72 2.16-1.2 3.04 2.24 3.2 3.68 2.72 3.52 1.12 1.04 4.88-7.84 2.16-5.28.48-6.08-.96-4.16-2-2.08-2.8-.16-3.36.64-3.52 1.44-4.4 2.48-5.76 2.08-3.04.88-2-7.84-2.32-6.4-2.56-5.68-2.24-3.44-3.6-3.6-2.8-.48-2.56.64-1.6 1.6-1.68.72-3.2-.08-3.6-1.52-1.84-1.2-2.8 2.16-2.08 2.48-1.36 4.32-1.2 4.48-1.2 4-.8 4.08-.56 3.76-.8 2.8-5.92.32-7.36-.72-5.84-.8" style="fill:#d96a00" transform="translate(4.2 4.283)"/><path d="M125.935 29.269s5.52 8.007-6.8 23.52m-74.4 6.02s-16.32-6.56-4-24.88c0 0 8.32 1.84 18.88 1.6 0 0 2.56-10.62 5.6-21.92 0 0 1.12-3.54 5.6-6.26 0 0 4.48 2.88 6.88 2.96 0 0 .704.023 1.048 0 .765-.052 2.125-.332 2.952-1.6 0 0 2.48-3.04 6.4-.72 0 0 4.4 2.08 8.08 12.08l5.28 14.48s5.44-1.52 15.2-6.72c0 0 6-2.4 8.48.4" style="fill:none;stroke:#654815;stroke-width:1.74px" transform="translate(4.2 4.283)"/><path d="M61.455 28.701s19.76 3.36 37.28-1.04l3.36 7.2s-15.096 8-42.48 1.04z" style="fill:#654815;stroke:#654815;stroke-width:.8px;stroke-linecap:round" transform="translate(4.2 4.283)"/><path d="M71.375 13.261s1.52.16 5.92 3.84c0 0 1.36.64 3.92-1.68 0 0 3.52-3.6 4.8-2.24" style="fill:none;stroke:#654815;stroke-width:2.09px;stroke-linecap:round" transform="translate(4.2 4.283)"/><path d="m40.708 34.202-4.48 9.12-.08 3.04.4 3.44 1.44 3.28 2.738 4.156 5.28 3.146 1.742-6.502 2.64-3.84 4.32-4.88 1.28-1.92-7.6-3.92-5.44-3.6-2.24-1.52m82.517-7.04-1.2 3.12-5.2 5.92-8.209 6.289 3.329 3.311 4.24 4.32 2.48 3.68 2.24-3.44 3.92-5.04 1.12-4.24 1.52-6-1.2-5.04-3.04-2.88" style="fill:#654815" transform="translate(4.2 3.283)"/><path d="M80.815 45.261s4.4.96 14.08-1.44" style="fill:none;stroke:#654815;stroke-width:1.39px;stroke-linecap:round" transform="translate(4.2 4.283)"/><path d="M11.55 23.05c-1.767-2.067-2.6-4.433-2.5-7.1v-.75c.167-3.267 1.31-5.483 4.71-8.25m26.6-.36c3.367 2.767 5.423 5.343 5.69 8.61v.75c0 2.667-.867 5.033-2.6 7.1" style="fill:none;fill-rule:nonzero;stroke:#000;stroke-width:1.22px;stroke-miterlimit:4" transform="matrix(2 0 0 2 32.441 34.283)"/><path d="M108.895 42.221s-9.68 7.36-24.48 7.28c0 0-14.32.4-28.8-6.48" style="fill:none;stroke:#654815;stroke-width:1.74px" transform="translate(4.2 4.283)"/><path d="m72.126 84.857-2.457 4.383-4.424.451-.45.532.368.614 2.99 2.868-.614 3.809-.369 1.393 1.598-.492 3.44-1.434 3.523 1.475 1.147.492.205-1.188-.451-3.973 2.417-2.417 1.106-.696-.205-.861-1.434-.041-3.277-.778-2.252-3.399-.164-1.434z" style="fill:#ffa200;stroke:#ffa200;stroke-width:.83px;stroke-linecap:round" transform="translate(7.2 -3.717)"/><ellipse cx="72.638" cy="84.878" rx="1.167" ry="1.126" style="fill:#ffa200;stroke:#ffa200;stroke-width:.09px;stroke-linecap:round" transform="matrix(1.17544 0 0 1.12727 -5.868 -14.865)"/><ellipse cx="72.638" cy="84.878" rx="1.167" ry="1.126" style="fill:#ffa200;stroke:#ffa200;stroke-width:.09px;stroke-linecap:round" transform="matrix(1.17544 0 0 1.12727 1.628 -9.13)"/><ellipse cx="72.638" cy="84.878" rx="1.167" ry="1.126" style="fill:#ffa200;stroke:#ffa200;stroke-width:.09px;stroke-linecap:round" transform="matrix(1.17544 0 0 1.12727 -1.24 -.651)"/><ellipse cx="72.638" cy="84.878" rx="1.167" ry="1.126" style="fill:#ffa200;stroke:#ffa200;stroke-width:.09px;stroke-linecap:round" transform="matrix(1.17544 0 0 1.12727 -10.824 -.57)"/><ellipse cx="72.638" cy="84.878" rx="1.167" ry="1.126" style="fill:#ffa200;stroke:#ffa200;stroke-width:.09px;stroke-linecap:round" transform="matrix(1.17544 0 0 1.12727 -13.732 -9.58)"/><ellipse cx="73.007" cy="92.926" rx="3.338" ry="3.277" style="fill:none;stroke:#fdd878;stroke-width:.75px;stroke-linecap:round" transform="matrix(1.10429 0 0 1.11875 -1.008 -15.387)"/></g></svg>