<svg xmlns="http://www.w3.org/2000/svg" height="202" width="160"><g style="clip-rule:evenodd;fill-rule:evenodd;stroke-linecap:round;stroke-linejoin:round"><path d="M-15.5-41.55c-1.767-2.067-2.6-4.433-2.5-7.1-.1-3.533 1.683-6.8 5.35-9.8C-8.983-61.817-4.6-63.667.5-64c5.067.333 9.417 2.183 13.05 5.55 3.633 3 5.45 6.267 5.45 9.8 0 2.667-.867 5.033-2.6 7.1h.1-.05l-2.6 3.1v.8l-.2-.95.2.95s2.708 2.835 2.13 6.336c-.299 1.813-1.95 2.044-3.028 2.566-1.458.705-.202 3.748-.202 3.748h-.05l-.05 1.5h.05l-.05.5h-.05l-.05.45h.05l-.25 2.65h-1.8l-.75 1.55h5.4l1.15.4c.367.367.55.917.55 1.65 0 .7-.183 1.233-.55 1.6-.3.3-.683.45-1.15.45H8.6v1.45l-4.5-.25.65-.5c.6-.6.9-1.517.9-2.75 0-1.267-.3-2.2-.9-2.8-.533-.533-1.217-.8-2.05-.8h-6.6v1.55h6.55c.467 0 .85.133 1.15.4.367.367.55.917.55 1.65 0 .7-.183 1.233-.55 1.6-.3.3-.683.45-1.15.45H-3.9v1.4l-6.55-.35-1.95-.4c-.967-1.133-1.55-2.35-1.75-3.65l-.1-1.2.05-.95.55-1.85h.1v-.55l.15-.15-.05-4.1v-2.1l-.2-10.65-2.05-2.75h.2M-13.8-22l.05.1-.05-.1" style="fill:#fff" transform="matrix(2 0 0 2 83.292 164.295)"/><path d="M107.992 124.495h5.8c1.666 0 3.034.534 4.1 1.6 1.2 1.2 1.8 3.066 1.8 5.6 0 2.466-.6 4.3-1.8 5.5-1.066 1.066-2.434 1.6-4.1 1.6h-13.3v-3h13.2c.934 0 1.7-.3 2.3-.9.734-.734 1.1-1.8 1.1-3.2 0-1.466-.366-2.566-1.1-3.3l-2.3-.8h-10.8l1.5-3.1h3.6m-16.5 13.7-2.6.6h-13.4v-3h13.1c.934 0 1.7-.3 2.3-.9.734-.734 1.1-1.8 1.1-3.2 0-1.466-.366-2.566-1.1-3.3-.6-.534-1.366-.8-2.3-.8h-13.1v-3.1h13.2c1.666 0 3.034.534 4.1 1.6 1.2 1.2 1.8 3.066 1.8 5.6 0 2.466-.6 4.3-1.8 5.5l-1.3 1"/><path d="M3.1 23.05C1.333 20.983.5 18.617.6 15.95c-.1-3.533 1.683-6.8 5.35-9.8C9.617 2.783 14 .933 19.1.6c5.067.333 9.417 2.183 13.05 5.55 3.633 3 5.45 6.267 5.45 9.8 0 2.667-.867 5.033-2.6 7.1" style="fill:none;fill-rule:nonzero;stroke:#000;stroke-width:1.2px" transform="matrix(2 0 0 2 46.092 35.095)"/><path d="m99.647 91.663 3.222-1.778s2.333 0 3 .667" style="fill:#ffa200;stroke:#ffa200;stroke-width:2.09px;stroke-miterlimit:1.5" transform="translate(.951 1.095)"/><path d="M97.98 76.996s5.444 10.222 5.778 20.556" style="fill:#ffa200;stroke:#ffa200;stroke-width:2.09px;stroke-miterlimit:1.5" transform="translate(.951 1.095)"/><path d="M100.98 95.885s2.444-3.444 5.778-.444" style="fill:#ffa200;stroke:#ffa200;stroke-width:2.09px;stroke-miterlimit:1.5" transform="translate(.951 1.095)"/><path d="M94.092 76.195c.2.6.5 1.1.9 1.5l1.4.5 1.9-1.2c.534-.866.8-1.966.8-3.3 0-1.8-.6-3.966-1.8-6.5h2.1c1.2 2.134 1.8 4.234 1.8 6.3s-.434 3.666-1.3 4.8c-.8 1.066-1.866 1.6-3.2 1.6-1.8 0-3.066-.934-3.8-2.8-.8 1.866-2.066 2.8-3.8 2.8-1.4 0-2.5-.566-3.3-1.7-.866-1.134-1.3-2.7-1.3-4.7 0-2.066.634-4.166 1.9-6.3h2c-1.134 2.534-1.7 4.7-1.7 6.5 0 1.334.234 2.434.7 3.3.534.8 1.166 1.2 1.9 1.2.534 0 1-.2 1.4-.6l.9-1.4.2-2.3v-3.6h2.1v3.6l.2 2.3m16.2-18.5 3.7 4.4h-2.1l-2.9-2.4-2.9 2.4h-2.1l3.8-4.4h2.5m-32.5 0 3.7 4.4h-2.1l-2.9-2.4-2.9 2.4h-2.1l3.8-4.4h2.5"/><path d="m102.246 107.737 6.144-2.432.064 11.456s-13.184 4.928-30.144 5.888-23.808-1.792-23.808-1.792l.064-10.112s25.472 3.584 46.848-2.816l.832-.192" style="fill:#d96a00;stroke:#654815;stroke-width:1.74px;stroke-miterlimit:1.5" transform="translate(.951 1.095)"/><path d="M98.47 111.961s4.544 4.672-3.584 9.088c0 0-2.56 1.408-8.32-.064l11.904-9.024" style="fill:#ffa200;stroke:#ffa200;stroke-width:1.74px;stroke-miterlimit:1.5" transform="translate(.951 1.095)"/><path d="M98.086 112.793s1.088 4.608-2.944 6.656c0 0-4.352 1.984-6.976.32" style="fill:none;stroke:#fed164;stroke-width:.55px;stroke-miterlimit:1.5" transform="translate(.951 1.095)"/><path d="M97.88 102.449s-2.202-1.536-3.38-.205c-1.177 1.331-.409 2.611-.409 2.611l.973.87" style="fill:none;stroke:#5f6486;stroke-width:.62px;stroke-miterlimit:1.5" transform="rotate(-63 91.033 142.754)"/><path d="m97.624 102.244-4.25 5.939 4.608 3.635 4.454-6.809s-2.56-.41-4.454-2.151" style="fill:#b5ccc8;stroke:#5e6383;stroke-width:.8px;stroke-linecap:square;stroke-miterlimit:1.5" transform="rotate(-63 91.033 142.754)"/><path d="m99.928 106.596-1.639 2.611m.563-3.533-1.638 2.611m.358-3.584-1.792 2.56" style="fill:none;stroke:#616485;stroke-width:.49px;stroke-miterlimit:1.5" transform="rotate(-63 91.033 142.754)"/><path d="m91.063 106.88 7.778 6.444-10.222 11.889-4-3.444.111-7.223 6.333-7.666" style="fill:#d96a00;stroke:#654815;stroke-width:2.09px;stroke-linecap:square;stroke-miterlimit:1.5" transform="rotate(-63 91.033 142.754)"/><path d="m93.952 94.546 5.223-3.111 4.555 6.889-1.333 5.889s-3.111-1.222-4-2.444c-.889-1.223.333-2.445.333-2.445z" style="fill:#654815;stroke:#654815;stroke-width:1.39px;stroke-linecap:square;stroke-miterlimit:1.5" transform="rotate(-63 91.033 142.754)"/><path d="m59.758 81.107-4.889 4.334-1.889 6 .556 5.777 2.444 7.778 4.222 8 6 6.778 6.111 2.667 6.556.222 6.778-1.889 6.111-3.667 4.444-2.111 4.667-5.778 2.555-3.777-7.333.333-1.667 1.556-4-.223-3.111-3.333-.555-4.667 1.889-3.555 2.111-1.222 3.333.111 1.667.777 2.889-1.111-1.445-2.889-3.111-2.222-4.555-2.444-1.445-2.111-3-.778-8.111-4.556-3.111.889-2 .334-10.111-.112-2 .889" style="fill:#d96a00" transform="translate(.951 1.095)"/><path d="M66.202 88.218s2.556 9.112 10.111 11.445c0 0 8.223 2.444 11-8.111 0 0 2-2.889 1.334-6.667" style="fill:none;stroke:#654815;stroke-width:.52px;stroke-miterlimit:1.5" transform="translate(.951 1.095)"/><path d="M72.15 80.312s-9.392-2.871-15.614 2.684c0 0-6.445 7.111-1.778 18.556 0 0 6.094 17.367 13.872 20.811 0 0 16.906 4.078 24.794-7.811 0 0 2.334-5.445 2.445-8.556" style="fill:none;stroke:#654815;stroke-width:1.7px;stroke-miterlimit:1.5" transform="translate(.951 1.095)"/><path d="M98.758 93.885s-1-4.222-8.111-6.667l-1.556-.666s.445-3.111-4-2.778c0 0-4.333-4-8.444-4.889 0 0-7.556 1.333-12 10.889l-1 1.778s-.111 9.666 9.444 14.555c0 0 5.556 4.556 13.778-2.222l.303-7.576 1.396-1.557 1.523-.534s-.333-5-1-7.666" style="fill:#d96a00;stroke:#654815;stroke-width:1.74px;stroke-miterlimit:1.5" transform="translate(.951 1.095)"/><path d="M103.424 105.218s-5.333 9.667-11.444 11.445" style="fill:none;stroke:#654815;stroke-width:1.7px;stroke-miterlimit:1.5" transform="translate(.951 1.095)"/><path d="M55.202 85.218s-1.111 7.667 5.778 21.112c0 0 2.444 7.666 5.333 12.777 0 0 1.556 3 10.223 3.889m1.333-38.778-2.333-1.333s-3 2.889-.334 8.667" style="fill:#d96a00;stroke:#654815;stroke-width:1.7px;stroke-miterlimit:1.5" transform="translate(.951 1.095)"/><path d="M82.758 87.218s1.555 6.667-3.334 9.445" style="fill:#d96a00;stroke:#654815;stroke-width:1.74px;stroke-miterlimit:1.5" transform="translate(.951 1.095)"/><path d="m63.98 90.996 1.222 6.222 2.778 4.556 3.667 3.111 4 2.445 4.444.444 4.667-1.778 2.778-1.666-.445-3.334.556-4.111 1.265-2.286 1.401-1.158-1.666-9 .751 4.054-2.64 5.946-2.334 3.444-2.333 2.111-3.111.445-3.222-.556-3.222-1.444-2.667-2-1.556-2.778-2.333-5.111z" style="fill:#654815;stroke:#654815;stroke-width:1px;stroke-miterlimit:1.5" transform="translate(.951 1.095)"/><path d="M66.313 88.33s.889 4.444 2.778 6.555c0 0 2.556 4.111 7.556 4.889 0 0 4.777 1.333 7.666-1.778 0 0 2.889-.333 4.556-7.444 0 0 .222-3-.445-5.556" style="fill:none;stroke:#654815;stroke-width:.94px;stroke-miterlimit:1.5" transform="translate(.951 1.095)"/><path d="m99.091 94.107-4.111.556s-8-3.778-8.222 5.444c0 0-.334 6.556 5.889 7.223 0 0 2.889-.334 3.333-2l12.222-.778" style="fill:none;stroke:#000;stroke-width:2.09px;stroke-miterlimit:1.5" transform="translate(.951 1.095)"/></g></svg>