<svg xmlns:xlink="http://www.w3.org/1999/xlink" height="179.55" width="170.6" xmlns="http://www.w3.org/2000/svg"><g transform="translate(26.3 120.05)"><use height="179.55" transform="translate(-26.3 -120.05)" width="170.6" xlink:href="#a"/><use height="63.55" transform="translate(-3.65 -49.3)" width="115.55" xlink:href="#b"/></g><defs><g id="a" transform="translate(85.3 179.05)"><use height="179.55" transform="translate(-85.3 -179.05)" width="170.6" xlink:href="#c"/><use height="53.55" transform="translate(-50.85 -97.8)" width="108.85" xlink:href="#d"/></g><g id="c"><path d="M29.3-103.15q.25-1 1.85-.95h1.1q1.55.15 2.7 1.75 1.1 1.55 1.1 3.45l-.05.65q-1.2 1.7-3.05 1.5.05-.45.25-.75l.25-1.05q0-2-1.15-3-.8-.75-3-1.6" fill="#305630" fill-rule="evenodd" transform="translate(85.3 179.05)"/><path d="m43.35-101.95 2.2-1.1v18.25l-2.2-1.1v-16.05m10.9-4.55-.95 2.7q-.6 1.5-.85 2.85l-.1 19.55-1.35-.65v-20.35l.35-1.45 2.9-2.65" fill="#555" fill-rule="evenodd" transform="translate(85.3 179.05)"/><path d="m45.55-103.05 2.45-1.2.15.05 2.3 1.15.9-.8-.35 1.45v20.35l-.3-.15-5.15-2.6v-18.25" fill="#666" fill-rule="evenodd" transform="translate(85.3 179.05)"/><path d="M-12.05-113.65 4.8-105.2l14.3 7.15-3.4 1.7-.5.3-1.35.95-.6.65-27.6-13.85-2.6-1.3-2.9-1.45q-27.85 10.7-46.3 23.3l15.25 7.65 21.5 10.75 5.95 2.95 1.95 1 1.65.8L19.7-44.8l1.65.85q21-5.8 36.6-16 5.15-3.4 9.75-7.25l-1.65-.85-39.55-19.8-3.6-1.8-2.05-1 6.5-3.25 16 8 2.2 1.1 5.15 2.6.3.15 1.35.65L75.2-69.9v.1l2.6 1.2 2.3 1.15 4.7 2.35-2.4 1.2-7.2 3.6L22.7-34-6.5-48.6l-1.65-.85L-57.2-74l-27.6-13.8v-.05l62.1-31.1 5.75 2.85 2.6 1.3 2.3 1.15" fill="#868686" fill-rule="evenodd" transform="translate(85.3 179.05)"/><path d="m17.25-35.6-.3-.15h-.25l-.25.05-.2.1-.15.2v.95l.05.35.2.15.35.15.25-.05.15-.15.15-.15.05-.2.05-.15.05-.2.15-.4v-.15l-.1-.2-.2-.15m1.75 1-.3-.15-.25.05-.2.1-.15.2v.95l-.15.2-.1.15v.6l-.05.9.1.75.2.15.35.2.25-.1.15-.15.15-.15.05-.35.05-.75v-.6l.1-.2.05-.15.1-.2v-.35l-.05-.6-.1-.35-.2-.15m1.7 1.15-.2-.15-.3-.15-.25.05-.1.05-.15.15-.2 3.55.15 3.35.2.15.35.2.25-.1.1-.05.15-.1.2-3.6-.2-3.35m2-.55v31.25V-34l52.5-26.3 4.9 11.35v17.45l-1.1.55-56.3 28.2L-84.8-56.5v-31.3L-57.2-74l49.05 24.55 1.65.85L22.7-34m57.4 2.5-1.1.55 1.1-.55M-82.7-83.95l.05.2-.05.35.1.55.2.15 1.25.3v.7l-.15.15-.2.2-.15.2v.35l.05.2.55.25h.25l.55-.5.25-.35.05-.2.05-.55v-.4l.1-.2.05-.15.1-.2v-.2l-.05-.15-.1-.2q-.65-.6-1.6-.45v-.2l-.05-.15-.1-.2-.2-.15-.3-.15-.25.05-.1.05-.15.15-.15.55" fill="#717171" fill-rule="evenodd" transform="translate(85.3 179.05)"/><path d="m20.7-33.45.2 3.35-.2 3.6-.15.1-.1.05-.25.1-.35-.2-.2-.15-.15-3.35.2-3.55.15-.15.1-.05.25-.05.3.15.2.15M19-34.6l.2.15.1.35.05.6v.35l-.1.2-.05.15-.1.2v.6l-.05.75-.05.35-.15.15-.15.15-.25.1-.35-.2-.2-.15-.1-.75.05-.9v-.6l.1-.15.15-.2v-.95l.15-.2.2-.1.25-.05.3.15m-1.75-1 .2.15.1.2v.15l-.15.4-.05.2-.05.15-.05.2-.15.15-.15.15-.25.05-.35-.15-.2-.15-.05-.35v-.95l.15-.2.2-.1.25-.05h.25l.3.15M-84.8-56.5 22.7-2.75 79-30.95l1.1-.55 2.3-1.15 2.4-1.2v2.75L22.7 0-6.5-14.6l-1.65-.85L-57.2-40l-27.6-13.85v-2.65M22.7 0v-2.75V0M-82.7-83.95l.15-.55.15-.15.1-.05.25-.05.3.15.2.15.1.2.05.15v.2q.95-.15 1.6.45l.1.2.05.15v.2l-.1.2-.05.15-.1.2v.4l-.05.55-.05.2-.25.35-.55.5h-.25l-.55-.25-.05-.2v-.35l.15-.2.2-.2.15-.15v-.7l-1.25-.3-.2-.15-.1-.55.05-.35-.05-.2" fill="#515151" fill-rule="evenodd" transform="translate(85.3 179.05)"/><path d="m75.2-60.3 7.2-3.6v31.25l-2.3 1.15v-17.45L75.2-60.3" fill="#636363" fill-rule="evenodd" transform="translate(85.3 179.05)"/><path d="m82.4-63.9 2.4-1.2v31.25l-2.4 1.2V-63.9" fill="#585858" fill-rule="evenodd" transform="translate(85.3 179.05)"/><path d="m77.5-132.25-2.3 1.15.95-1.85 1.35.7" fill="#203115" fill-rule="evenodd" transform="translate(85.3 179.05)"/><path d="m79.6-131.2.5.25-2.3 1.15 2.3-1.15v1.8l-2.25 1.1-.05.05v-1.8l-.3-.15-2.3-1.15 2.3-1.15 2.1 1.05m-91.65-46.1-2.3 1.2-2.6-1.3 2.3-1.15 2.6 1.25m60.2 70.9 2.3 1.1v2.25l-2.3-1.15v-2.2M-44-152.75l2.6 1.3v2.25l-2.6-1.3v-2.25" fill="#333" fill-rule="evenodd" transform="translate(85.3 179.05)"/><path d="m39.75-108.4-51.8-26.1-2.3-1.15-2.6-1.3-24.45-12.25v-2.25l89.55 45L75.2-131.1l2.3 1.15-27.05 24.65-2.3-1.1v-.05 2.25l-.15-.05-8.25-4.15m35.45-17.2 2.6-2.4v59.4l-2.6-1.2v-55.8m-89.55-50.5-27.05 24.65-2.6-1.3 27.05-24.65 2.6 1.3" fill="#c5a072" fill-rule="evenodd" transform="translate(85.3 179.05)"/><path d="m76.15-132.95-.95 1.85-27.05 24.65-89.55-45 27.05-24.65 2.3-1.2 88.2 44.35" fill="#414b34" fill-rule="evenodd" transform="translate(85.3 179.05)"/><path d="M-12.05-134.5v20.85l-2.3-1.15-2.6-1.3v-20.85l2.6 1.3 2.3 1.15m89.55 4.55.3.15v1.8l.05-.05 2.25-1.1v61.7l-2.3-1.15V-128l-2.6 2.4-20.95 19.1-2.9 2.65-.9.8v-2.25l27.05-24.65m-91.85 15.15v-20.85 20.85" fill="#bb8959" fill-rule="evenodd" transform="translate(85.3 179.05)"/><path d="m19.1-98.05 10.2-5.1q2.2.85 3 1.6 1.15 1 1.15 3l-.25 1.05q-.2.3-.25.75l-5.6 2.85-6.5 3.25-8 4 1.5-1.15q1.65-1.5 2.75-3.6l.4-.9q.65-1.6.55-2.8-.1-1.5-1.3-1.45l-1.05.2 3.4-1.7" fill="url(#e)" fill-rule="evenodd" transform="translate(85.3 179.05)"/><path d="m31.15-104.1 8.6-4.3 8.25 4.15-2.45 1.2-2.2 1.1-7.35 3.7.05-.65q0-1.9-1.1-3.45-1.15-1.6-2.7-1.75h-1.1" fill="url(#f)" fill-rule="evenodd" transform="translate(85.3 179.05)"/><path d="m13.25-94.45.6-.65 1.35-.95.5-.3 1.05-.2q1.2-.05 1.3 1.45.1 1.2-.55 2.8l-.4.9q-1.1 2.1-2.75 3.6l-1.5 1.15q-.75.35-1.35.35-1.25 0-1.35-1.5-.1-1.5 1-3.6.85-1.75 2.1-3.05" fill="url(#g)" fill-rule="evenodd" transform="translate(85.3 179.05)"/><path d="m20.85-90.65 2.05 1 3.6 1.8 39.55 19.8 1.65.85q-4.6 3.85-9.75 7.25-15.6 10.2-36.6 16l-1.65-.85-39.55-19.8-3.6-1.8-5.95-2.95-21.5-10.75-15.25-7.65q18.45-12.6 46.3-23.3l2.9 1.45 2.6 1.3 27.6 13.85q-1.25 1.3-2.1 3.05-1.1 2.1-1 3.6.1 1.5 1.35 1.5.6 0 1.35-.35l8-4m-30.7 11.1q-8.55-7.95-11.2-15.55-2.8-8.2 1.2-15.95-4 7.75-1.2 15.95 2.65 7.6 11.2 15.55" fill="#6e6e6e" fill-rule="evenodd" transform="translate(85.3 179.05)"/><path d="m52.35-81.4.1-19.55q.25-1.35.85-2.85l.95-2.7m-10.9 20.6v-16.05" fill="none" stroke="#2b2b2b" stroke-linecap="round" stroke-linejoin="round" transform="translate(85.3 179.05)"/><path d="m77.85-128.05 2.25-1.1M48.15-106.4l2.3 1.1m-2.3-1.15v.05M-44-152.75l2.6 1.3" fill="none" stroke="#232323" stroke-linecap="round" stroke-linejoin="round" transform="translate(85.3 179.05)"/><path d="M-12.05-134.5v20.85m60.2 7.25v2.2m-89.55-45v-2.25m-2.6.95v-2.25m29.65 17.1v20.85m-2.6-1.3v-20.85" fill="none" stroke="#202020" stroke-linecap="round" stroke-linejoin="round" transform="translate(85.3 179.05)"/><path d="m39.75-108.4-51.8-26.1M48-104.25l-8.25-4.15m38.05-21.4v1.8l.05-.05m2.25-1.1v-1.8m-4.9 5.35 2.6-2.4v59.4m2.3 1.15v-61.7m-94.45-46.95-27.05 24.65 89.55 45L75.2-131.1m-24.75 25.8 27.05-24.65M48.15-104.2l2.3 1.15v-2.25M48-104.25l.15.05m6.1-2.3-2.9 2.65M75.2-69.9v-55.7l-20.95 19.1m-3.8 3.45.9-.8m-68.3-73.55L-44-152.75m2.6 3.55-2.6-1.3m27.05 13.55 2.6 1.3 2.3 1.15m-4.9-2.45L-41.4-149.2" fill="none" stroke="#624828" stroke-linecap="round" stroke-linejoin="round" transform="translate(85.3 179.05)"/><path d="m79.6-131.2.5.25-.5-.25-2.1-1.05-2.3 1.15 2.3 1.15.3.15 2.3-1.15m-3.95-2 1.35.7m-1.35-.7-88.2-44.35-2.3 1.2-2.6-1.3 2.3-1.15 2.6 1.25" fill="none" stroke="#293021" stroke-linecap="round" stroke-linejoin="round" transform="translate(85.3 179.05)"/><path d="M-12.05-113.65 4.8-105.2l14.3 7.15M77.8-68.6l2.3 1.15m2.3 3.55 2.4-1.2-4.7-2.35m-59.25-23.2 2.05 1 3.6 1.8 39.55 19.8 1.65.85q-4.6 3.85-9.75 7.25-15.6 10.2-36.6 16l-1.65-.85-39.55-19.8-1.65-.8-1.95-1-5.95-2.95-21.5-10.75-15.25-7.65q18.45-12.6 46.3-23.3l2.9 1.45 2.6 1.3 27.6 13.85M77.8-68.6l-2.6-1.2M22.7-2.75V-34L-6.5-48.6l-1.65-.85L-57.2-74l-27.6-13.8v31.3L22.7-2.75 79-30.95l1.1-.55-1.1.55M22.7-34l52.5-26.3m9.6 26.45V-65.1m0 31.25v2.75L22.7 0-6.5-14.6l-1.65-.85L-57.2-40l-27.6-13.85v-2.65M22.7-2.75V0m-34.75-113.65-2.3-1.15-2.6-1.3-5.75-2.85-62.1 31.1v.05m64.95 23.2-3.6-1.8" fill="none" stroke="#454545" stroke-linecap="round" stroke-linejoin="round" transform="translate(85.3 179.05)"/><path d="m75.2-60.3 7.2-3.6" fill="none" stroke="#505050" stroke-linecap="round" stroke-linejoin="round" transform="translate(85.3 179.05)"/><path d="m51-82.05 1.35.65L75.2-69.9m-31.85-16 2.2 1.1M51-82.05l-.3-.15-5.15-2.6m-18.2-9.1 16 8" fill="none" stroke="#555" stroke-linecap="round" stroke-linejoin="round" transform="translate(85.3 179.05)"/><path d="m31.15-104.1 8.6-4.3M19.1-98.05l10.2-5.1q.25-1 1.85-.95h1.1q1.55.15 2.7 1.75 1.1 1.55 1.1 3.45l-.05.65 7.35-3.7 2.2-1.1 2.45-1.2m-15.05 7.5q.05-.45.25-.75l.25-1.05q0-2-1.15-3-.8-.75-3-1.6m-16.05 8.7.6-.65 1.35-.95.5-.3 3.4-1.7m16.9-.2q-1.2 1.7-3.05 1.5l-5.6 2.85m-6.5 3.25 6.5-3.25M15.7-96.35l1.05-.2q1.2-.05 1.3 1.45.1 1.2-.55 2.8l-.4.9q-1.1 2.1-2.75 3.6l-1.5 1.15 8-4m-8 4q-.75.35-1.35.35-1.25 0-1.35-1.5-.1-1.5 1-3.6.85-1.75 2.1-3.05" fill="none" stroke="#274727" stroke-linecap="round" stroke-linejoin="round" transform="translate(85.3 179.05)"/><path d="M-19.85-111.05q-4 7.75-1.2 15.95 2.65 7.6 11.2 15.55" fill="none" stroke="#525252" stroke-linecap="round" stroke-linejoin="round" transform="translate(85.3 179.05)"/></g><g id="l" fill-rule="evenodd"><path d="m15.15-18.25.25-.2.35-.05H16l.8 1.05.7 1.15.25.4.15 1.15-.05 1.1v.75l-1 1.15-1.1 1.1-.85.45-.3.2-1.2-.15-.3-.25q.8-1.15 2.35-1.9l1.15-1.1v-1.5l-.65-1.2q-.4-.45-.65-1.05l-.2-.75.05-.35m-7.3-5v.35l.25.4.25.35v3.75l-2.1 2.3L5-15l-1.15.35-.2.35-.4.3-.55-.35-.1-.3.1-.35.45-.75.2-.25.4-.1 1-.3 1.1-1.1L7-18.65l.15-1.1-.05-1.15v-.35l-.05-.35-.2-.4-.25-.4.05-.75.25-.6.6-.25.3.4.05.35m-23.25-3.4.35-1.15.4-1.2q.4-.95 1.4-1.05v-.1l.45.1.75.15.4.25-.2.3-.95.8-.15.1-.3.3-.3.45-.25.65-.2.4-.1.4-.05.75v1.1l-.4.3h-.55l-.3-.3v-2.25m-10-2.6.1-.35.55-.55 3.65.45.35.45-.15.1q-2.55-.15-3.25.9l.1.35.65 1.15.15.35.1.4-.2.25q-.35.2-.8.25l-.3-.4-.65-1.1-.3-.4v-1.85" fill="#e0f3fa" fill-opacity=".173" transform="translate(54.4 53.55)"/><path d="m7.85-23.25-.05-.35-.3-.4-.6.25-.25.6-.05.75.25.4.2.4.05.35v.35l.05 1.15-.15 1.1-1.15 1.15-1.1 1.1-1 .3-.4.1-.2.25-.45.75-.1.35.1.3.55.35.4-.3.2-.35L5-15l1.25-1.1 2.1-2.3v-3.75l-.25-.35-.25-.4v-.35m7.3 5-.05.35.2.75q.25.6.65 1.05l.65 1.2v1.5l-1.15 1.1q-1.55.75-2.35 1.9l.3.25 1.2.15.3-.2.85-.45 1.1-1.1 1-1.15v-.75l.05-1.1-.15-1.15-.25-.4-.7-1.15-.8-1.05h-.25l-.35.05-.25.2m4-17.3Q36.7-26.15 54.45-16 38.85-5.8 17.85 0L16.2-.85l-43.15-21.6-5.95-2.95-21.5-10.75q15.45-11.55 34.7-17.4 21.2 8.55 38.85 18m-35.65 3.3-.15.1.15-.1m1.1 5.6v2.25l.3.3h.55l.4-.3v-1.1l.05-.75.1-.4.2-.4.25-.65.3-.45.3-.3.15-.1.95-.8.2-.3-.4-.25-.75-.15-.45-.1v.1q-1 .1-1.4 1.05l-.4 1.2-.35 1.15m6.4-6.4.05-.1H-9v.1m-16.4 3.8v1.85l.3.4.65 1.1.3.4q.45-.05.8-.25l.2-.25-.1-.4-.15-.35-.65-1.15-.1-.35q.7-1.05 3.25-.9l.15-.1-.35-.45-3.65-.45-.55.55-.1.35" fill-opacity=".102" transform="translate(54.4 53.55)"/></g><g id="b" transform="translate(58.25 63.05)"><use height="63.55" transform="translate(-57.25 -63.05)" width="114.55" xlink:href="#h"/><use height="28" transform="translate(-58.25 -59.05)" width="27.75" xlink:href="#i"/><use height="28" transform="translate(-40.25 -48.3)" width="27.75" xlink:href="#i"/></g><g id="h"><path d="m51.6-5.75 5.2-2.6v5.75L51.6 0v-5.75V0L-56.75-54.2v-5.75L51.6-5.75" fill="#836634" fill-rule="evenodd" transform="translate(57.25 63.05)"/><path d="m56.8-8.35-5.2 2.6-108.35-54.2 5.2-2.6L56.8-8.35" fill="#98773d" fill-rule="evenodd" transform="translate(57.25 63.05)"/><path d="m56.8-8.35-5.2 2.6V0l5.2-2.6v-5.75l-108.35-54.2-5.2 2.6L51.6-5.75m-108.35-54.2v5.75L51.6 0" fill="none" stroke="#423113" stroke-linecap="round" stroke-linejoin="round" transform="translate(57.25 63.05)"/></g><g id="m"><path d="M12.8-23.75q.55 1.75.55 3 0 3-7.1 3l-1.1-2.15q1.5.35 4.5-1.05 2.7-1.3 3.15-2.8" fill="url(#j)" fill-rule="evenodd" transform="translate(13.9 27.5)"/><path d="M4.55-19.8-6.1-6.75Q-11.45 0-11.9 0q-.65 0-1.5-1.25 0-1.9 5.85-7.5 7.2-6.9 10.4-12.5l.2.05q1.2.3 1.5 1.4" fill="url(#k)" fill-rule="evenodd" transform="translate(13.9 27.5)"/><path d="M3.05-21.2q.7-3.8 1.3-4.6.85-1.2 3.4-1.2 5.1 0 5.1 2.65v.1l-.05.5q-.45 1.5-3.15 2.8-3 1.4-4.5 1.05l-.3-.25-.3.35q-.3-1.1-1.5-1.4" fill="#aa8046" fill-rule="evenodd" transform="translate(13.9 27.5)"/><path d="M3.05-21.2q.7-3.8 1.3-4.6.85-1.2 3.4-1.2 5.1 0 5.1 2.65v.1l-.05.5q.55 1.75.55 3 0 3-7.1 3l-1.1-2.15m-.3-.25-.3.35L-6.1-6.75Q-11.45 0-11.9 0q-.65 0-1.5-1.25 0-1.9 5.85-7.5 7.2-6.9 10.4-12.5l.2.05q1.2.3 1.5 1.4m8.25-3.95q-.45 1.5-3.15 2.8-3 1.4-4.5 1.05" fill="none" stroke="#423113" stroke-linecap="round" stroke-linejoin="round" transform="translate(13.9 27.5)"/></g><linearGradient gradientTransform="matrix(.0027 .0047 -.0087 .005 23.2 -94.9)" gradientUnits="userSpaceOnUse" id="e" spreadMethod="pad" x1="-819.2" x2="819.2"><stop offset="0" stop-color="#060"/><stop offset=".502" stop-color="#090"/><stop offset="1" stop-color="#060"/></linearGradient><linearGradient gradientTransform="matrix(.0021 .0036 -.0054 .0031 39.65 -103.8)" gradientUnits="userSpaceOnUse" id="f" spreadMethod="pad" x1="-819.2" x2="819.2"><stop offset="0" stop-color="#060"/><stop offset=".502" stop-color="#090"/><stop offset="1" stop-color="#060"/></linearGradient><linearGradient gradientTransform="matrix(.0042 -.0024 .0031 .0054 14.15 -91.45)" gradientUnits="userSpaceOnUse" id="g" spreadMethod="pad" x1="-819.2" x2="819.2"><stop offset="0" stop-color="#bbab66"/><stop offset="1" stop-color="#9b9243"/></linearGradient><linearGradient gradientTransform="matrix(.005 0 0 .0037 9.25 -20.75)" gradientUnits="userSpaceOnUse" id="j" spreadMethod="pad" x1="-819.2" x2="819.2"><stop offset="0" stop-color="#c29e6d"/><stop offset="1" stop-color="#68492d"/></linearGradient><linearGradient gradientTransform="matrix(.0014 .0014 -.0092 .0092 -4.4 -10.65)" gradientUnits="userSpaceOnUse" id="k" spreadMethod="pad" x1="-819.2" x2="819.2"><stop offset="0" stop-color="#c29e6d"/><stop offset="1" stop-color="#62462b"/></linearGradient><use height="53.55" width="108.85" xlink:href="#l" id="d"/><use height="28" width="27.75" xlink:href="#m" id="i"/></defs></svg>