<svg xmlns="http://www.w3.org/2000/svg" xmlns:xlink="http://www.w3.org/1999/xlink" height="55.4" width="44.221"><path d="M42.2 13.15q1.85 5.3 1.45 11.45-.45 7.35-4.15 13.2l.1-3.7v-1.05q3.45-5.85 3.45-12.95 0-3.65-.9-6.95h.05M24.5 30.5v21.4l-6 3V27.5v27.4l-18-8.4v-.05L.75 13.6l17.7 8.85.05 5.05 6 3" fill="#4f0404" fill-rule="evenodd"/><path d="M39.5 37.8v.2l-15-7.5-6-3-.05-5.05 21.15 10.6-21.15-10.6L.75 13.6 39.6 33.05v1.05l-.1 3.7" fill="#400000" fill-rule="evenodd"/><path d="M-.15-39.75q2.25 1.9 3.3 4.3l.4 1.05.45 1.1.05.05v.15l.1.35q.9 3.3.9 6.95 0 7.1-3.45 12.95L-37.25-32.3l25.8-13.1 9.15 4.55 2.15 1.1M4-33.3l.05.2-.05-.2" fill="url(#a)" fill-rule="evenodd" transform="translate(38 45.9)"/><path d="M39.5 37.8v.2l-15-7.5v3.9M.75 13.6 26.55.5l9.15 4.55 2.15 1.1M39.5 37.8l.1-3.7v-1.05M18.5 27.5l6 3m-6-3v27.4l6-3V34.4" fill="none" stroke="#2f0202" stroke-linecap="round" stroke-linejoin="round"/><path d="M37.85 6.15q2.25 1.9 3.3 4.3l.4 1.05.45 1.1.05.05v.15l.15.35q1.85 5.3 1.45 11.45-.45 7.35-4.15 13.2m-39 8.65L.75 13.6l17.7 8.85m23.7-9.3-.1-.35-.05-.2m-2.4 20.45q3.45-5.85 3.45-12.95 0-3.65-.9-6.95m-2.55 19.9-21.15-10.6m.05 32.45-18-8.4v-.05" fill="none" stroke="#400000" stroke-linecap="round" stroke-linejoin="round"/><path d="m18.45 22.45.05 5.05" fill="none" stroke="#000" stroke-linecap="round" stroke-linejoin="round"/><defs><radialGradient cx="0" cy="0" gradientTransform="translate(4.5 -31.25) scale(.0213)" gradientUnits="userSpaceOnUse" id="b" r="819.2" spreadMethod="pad"><stop offset="0" stop-color="#2f0202"/><stop offset="0" stop-color="#6b0303"/><stop offset="0" stop-color="#2f0202"/><stop offset="0" stop-color="#600202"/><stop offset="1" stop-color="#400000"/></radialGradient><radialGradient xlink:href="#b" id="a" gradientUnits="userSpaceOnUse" gradientTransform="translate(4.5 -31.25) scale(.0213)" cx="0" cy="0" r="819.2" spreadMethod="pad"/></defs></svg>