<svg xmlns="http://www.w3.org/2000/svg" height="182" width="160" xml:space="preserve" style="fill-rule:evenodd;clip-rule:evenodd;stroke-linejoin:round;stroke-miterlimit:1.5"><path d="M100.695 128.644c10.244-2.018 10.125 4.086 3.847 9.25-4.152 3.416-13.506 2.021-22.919-1.643-5.425-2.112-17.495-4.794-26.025-19.687-3.766-6.575 1.786-13.059 5.25-25.684 1.182-4.308 8.908-16.296 11.888-18.537 29.648-26.763 53.469.646 49.156 19.899-1.348 7.379-22.191 25.509-24.348 31.44-.152.417-.673 5.715 3.151 4.962z" style="fill:#fff" transform="matrix(.9324 -.29605 .30387 .95705 -34.12 17.7)"/><path d="M66.35 79.808c.71-1.167 4.703-6.241 5.558-7.16 31.132-33.474 62.691 5.579 48.015 22.127-.336.379-1.774 3.02-4.632 5.896-5.093 5.127-12.137 13.146-15.455 19.231-3.175 5.821-2.017 8.568-.137 9.176" style="fill:none;stroke:#000;stroke-width:2.5px" transform="rotate(-16.265 46.365 130.996)"/><path d="M101.326 118.282c9.676-7.488 2.928-15.621-4.167-9.616" style="fill:none;stroke:#000;stroke-width:2.5px" transform="translate(1.531 2.235)"/><path d="M55.65 96.952c-9.552 24.874 25.219 36.399 38.528 34.982" style="fill:none;stroke:#000;stroke-width:2.32px" transform="matrix(1.09645 -.28386 .2564 .99033 -36.24 17.695)"/><path d="M49.826 77.813c-1.27 5.35-1.843 11.85-.969 18.108l2.396.068c-.2-2.875-.348-5.991-.2-9.105.143-3.034.738-6.06 1.037-9.006z"/></svg>