<svg xmlns="http://www.w3.org/2000/svg" height="182" width="160"><g clip-rule="evenodd" fill-rule="evenodd" stroke-linejoin="round" stroke-miterlimit="1.5"><path d="M73.822 52.872s-38.39 2.081-36.077 37.001c0 0 1.619 27.288 22.432 25.207l16.42.925s1.156 8.094 5.319 5.781c0 0 3.469-.462 5.087-6.937l15.032.231s14.577-4.287 16.894-7.399c2.988-4.015 3.623-17.446 2.368-20.159-.817-1.766 6.36-2.194 5.73-7.046-.424-3.262-6.341-6.059-6.341-6.059l.22-2.925s10.498-.221 8.459-4.263c-8.232-16.324-19.392-6.098-22.011-7.42-8.203-4.141-7.631-5.781-31.22-6.937z" fill="#fff"/><path d="M60.125 89.303s-.56-2.88-1.76-3.52m-2.4-19.84s-.08-2.64-1.84-3.68m4.4 14.64s3.2 5.76 6.48 2.24c0 0 2.64-3.92-2.96-6.32m0 0s4.08-.24 3.6-2.96c0 0 .72-3.04-3.44-4.16 0 0-3.92-.48-3.84 4.16" fill="none" stroke="#000" stroke-width="1.39"/><path d="M74.747 53.103s-28.214-.694-36.54 25.207c0 0-4.624 20.351 9.945 34.689M108.741 97.2s-5.781-5.319-3.469-14.569c2.313-9.25 16.651-9.348 18.937-6.92 0 0 10.361 9.027-4.225 10.442" fill="none" stroke="#000" stroke-width="2.43"/><path d="M107.703 78.379s-8.675-8.699-1.274-17.255c0 0 16.56-8.734 22.948 3.94 0 0 2.49 6.929-9.073 6.004m-40.701-11.49s-1.85 14.338 5.55 15.263c0 0 7.4.231 4.857-15.032m-13.876 47.408s-.925 15.494 5.088 14.338c0 0 6.938 1.156 5.088-14.569m5.087-52.496s9.713.925 15.495 5.551" fill="none" stroke="#000" stroke-width="2.43"/></g></svg>