<?xml version="1.0" encoding="UTF-8" standalone="no"?>
<svg
   xmlns:dc="http://purl.org/dc/elements/1.1/"
   xmlns:cc="http://creativecommons.org/ns#"
   xmlns:rdf="http://www.w3.org/1999/02/22-rdf-syntax-ns#"
   xmlns:svg="http://www.w3.org/2000/svg"
   xmlns="http://www.w3.org/2000/svg"
   xmlns:xlink="http://www.w3.org/1999/xlink"
   xmlns:sodipodi="http://sodipodi.sourceforge.net/DTD/sodipodi-0.dtd"
   xmlns:inkscape="http://www.inkscape.org/namespaces/inkscape"
   height="182"
   width="160"
   version="1.1"
   id="svg1099"
   sodipodi:docname="front-walking-1.svg"
   inkscape:version="0.92.3 (2405546, 2018-03-11)">
  <metadata
     id="metadata1103">
    <rdf:RDF>
      <cc:Work
         rdf:about="">
        <dc:format>image/svg+xml</dc:format>
        <dc:type
           rdf:resource="http://purl.org/dc/dcmitype/StillImage" />
        <dc:title />
      </cc:Work>
    </rdf:RDF>
  </metadata>
  <sodipodi:namedview
     pagecolor="#ffffff"
     bordercolor="#666666"
     borderopacity="1"
     objecttolerance="10"
     gridtolerance="10"
     guidetolerance="10"
     inkscape:pageopacity="0"
     inkscape:pageshadow="2"
     inkscape:window-width="3840"
     inkscape:window-height="2123"
     id="namedview1101"
     showgrid="true"
     inkscape:pagecheckerboard="true"
     inkscape:zoom="28.284271"
     inkscape:cx="103.45974"
     inkscape:cy="79.187057"
     inkscape:window-x="0"
     inkscape:window-y="0"
     inkscape:window-maximized="1"
     inkscape:current-layer="g1097">
    <inkscape:grid
       type="xygrid"
       id="grid1651" />
  </sodipodi:namedview>
  <defs
     id="defs1089">
    <path
       d="M.7-.3l1.85 2.2H1.5L.05.7-1.4 1.9h-1.05l1.9-2.2H.7"
       transform="translate(2.45 .3)"
       id="a"
       fill-rule="evenodd" />
    <use
       height="2.2"
       width="5"
       xlink:href="#a"
       id="c" />
    <g
       id="b">
      <path
         d="M-15.5-41.55q-2.65-3.1-2.5-7.1v-.75q.25-4.9 5.35-9.05Q-7.15-63.5.5-64q7.6.5 13.05 5.55Q18.6-54.3 19-49.4v.75q0 4-2.6 7.1h.1-.05l-1.1 1.3v.15l-1 .9 6.55 2.35.05-.1.8.1H22.7l.4.3.55.55.25.35.25 1.5-.2.45q-.35 1.55-1.4 1.65l-2.1.1-1.15-.9v-.05h-.05l.05-.15-4.95-1.8v-.05l-1.3-.5.05.55-.3.9.35.1v.05l-.15-.05-.25 8.85h-.05l-.05 1.5h.05v.1l-.05.4h-.05l-.05.5h.05l-.15 1.3-.05.95-.05.35h-1.8l-.75 1.55h5.4l1.15.4q.55.55.55 1.65 0 1.05-.55 1.6-.45.45-1.15.45H8.6v1.4l-7.7-.7h-2.45l-1.55 1.7v1.2h-1.2v5.2q-.05 1.35-.8 2.25-.7.75-1.7.75t-1.75-.75q-.75-.9-.75-2.25v-5.2h-1.2L-12.1-13l.1-.1q-1.8-1.9-2.15-4.15l-.1-1.2V-19l.05-.4.2-.85.35-1h.1v-.55l.15-.15v-1.35l.15-2.4v-.05l.5-7.75h-.05l-1.45-.45-.45-1.3-6.1 2.2.05.15h-.05v.05l-1.1.9-2.1-.1q-1.1-.1-1.45-1.65l-.15-.45.25-1.5.2-.35.6-.55.35-.3h1l.75-.1.05.1 9.05-3.25-.25-.8-1.35.35-.75-1h.2m1.75 19.65l-.05-.1.05.1m3.65-6.55h.05l-.05-.05v.05"
         transform="translate(27.05 64.6)"
         id="path1080"
         fill-rule="evenodd"
         fill="#fff" />
      <path
         d="M15.35-40.1l3.15.95v-.05l2.55.95v-.05l.3.2v.1h.1l1.25-.1q.2.15.3 0 1.55.35 2 1.5l.15.25v.25l.15.3.2.7q.2.9-.15 1.6l-.1.2q-.35 1.9-2 2.4.05.45-.2.1l-2.7.2q-.65-.35-1.65-1.25l-4.15-1.5v.1l-1.4-.55v-.05l-.35-.1.3-.9-.05-.55 1.3.5v.05l4.95 1.8-.05.15h.05v.05l1.15.9 2.1-.1q1.05-.1 1.4-1.65l.2-.45-.25-1.5-.25-.35-.55-.55-.4-.3H21.75l-.8-.1-.05.1-6.55-2.35 1-.9m-3 20.2h2.9q1.25 0 2.05.8.9.9.9 2.8 0 1.85-.9 2.75-.8.8-2.05.8H8.6v-1.5h6.6q.7 0 1.15-.45.55-.55.55-1.6 0-1.1-.55-1.65l-1.15-.4H9.8l.75-1.55h1.8m-15.5 9.25v5.2q0 1.95-1.05 3.1Q-5.3-1.1-6.8-1.1t-2.65-1.25q-1.05-1.15-1.05-3.1v-5.2h1.2v5.2q0 1.35.75 2.25.75.75 1.75.75t1.7-.75q.75-.9.8-2.25v-5.2h1.15m-11.1-23.3l-5.95 2.1-1.6 1.25q-1.6.45-2.7-.2-.3.35-.2-.1-1.7-.5-2-2.4l-.15-.2q-.35-.7-.15-1.6l.25-.7.15-.3v-.25l.1-.25q.45-1.15 2.05-1.5.05.15.3 0l1.2.1h.15l-.05-.1.3-.2.05.05 2.55-.95v.05l1.8-.65 3.2-.75 1.35-.35.25.8-9.05 3.25-.05-.1-.75.1h-1l-.35.3-.6.55-.2.35-.25 1.5.15.45q.35 1.55 1.45 1.65l2.1.1 1.1-.9v-.05h.05l-.05-.15 6.1-2.2.45 1.3"
         transform="translate(27.05 64.6)"
         id="path1082"
         fill-rule="evenodd" />
      <path
         d="M11.55 23.05q-2.65-3.1-2.5-7.1v-.75q.25-4.9 5.35-9.05Q19.9 1.1 27.55.6q7.6.5 13.05 5.55 5.05 4.15 5.45 9.05v.75q0 4-2.6 7.1"
         id="path1084"
         stroke-linejoin="round"
         stroke-linecap="round"
         stroke-width="1.2"
         stroke="#784421"
         fill="none" />
      <path
         d="M5.4-44.05q.15.45.45.75l.7.25.95-.6q.4-.65.4-1.65 0-1.35-.9-3.25h1.05q.9 1.6.9 3.15 0 1.55-.65 2.4-.6.8-1.6.8-1.35 0-1.9-1.4-.6 1.4-1.9 1.4-1.05 0-1.65-.85Q.6-43.9.6-45.4q0-1.55.95-3.15h1q-.85 1.9-.85 3.25 0 1 .35 1.65.4.6.95.6.4 0 .7-.3l.45-.7.1-1.15V-47H5.3v1.8l.1 1.15"
         transform="translate(27.05 64.6)"
         id="path1086"
         fill-rule="evenodd" />
    </g>
  </defs>
  <g
     transform="matrix(2 0 0 2 82.341 144.2)"
     id="g1097">
    <ellipse
       style="fill:#784421;fill-rule:evenodd;stroke-width:0.42500001"
       id="path942-1"
       cx="17.40629"
       cy="58.507359"
       ry="3.4000001"
       rx="4.25"
       transform="rotate(-150)" />
    <use
       height="63.5"
       transform="translate(-27.05 -64.6)"
       width="52.6"
       xlink:href="#b"
       id="use1091"
       style="fill:#784421" />
    <ellipse
       style="fill:#784421;fill-rule:evenodd;stroke-width:0.77459669"
       id="path843-2"
       cx="41.660381"
       cy="28.772961"
       rx="6"
       ry="4"
       transform="matrix(0.5,-0.8660254,-0.8660254,-0.5,0,0)" />
    <ellipse
       style="fill:#784421;fill-rule:evenodd;stroke-width:0.77459669"
       id="path843-3-9"
       cx="37.034599"
       cy="-36.68972"
       rx="6"
       ry="4"
       transform="matrix(-0.5,-0.8660254,-0.8660254,0.5,0,0)" />
    <use
       height="2.2"
       transform="translate(10.349998,-53.299997)"
       width="5"
       xlink:href="#c"
       id="use17-6"
       x="0"
       y="0"
       style="fill:#ffffff" />
    <use
       height="2.2"
       transform="translate(-5.9000022,-53.299997)"
       width="5"
       xlink:href="#c"
       id="use19-7"
       x="0"
       y="0"
       style="fill:#ffffff" />
    <ellipse
       style="fill:#784421;fill-rule:evenodd;stroke-width:0.5"
       id="path942"
       cx="22.177015"
       cy="-56.330326"
       ry="4"
       rx="5"
       transform="rotate(-30)" />
    <path
       style="fill:#784421;stroke:#784421;stroke-width:0.0005;stroke-linecap:butt;stroke-linejoin:miter;stroke-miterlimit:4;stroke-dasharray:none;stroke-opacity:1"
       d="m -3.150177,-10.650057 h 0.05 v -1.2 l -8.9,-1.25 -0.1,0.1 1.6,2.35 0.0083,5.5500002 c 1.1014711,1.158707 1.7208791,3.086385 3.6028871,3 2.134414,-0.249358 2.62214,-1.879861 3.7183529,-3 z"
       id="path938"
       inkscape:connector-curvature="0"
       sodipodi:nodetypes="cccccccccc" />
    <path
       style="fill:#784421;stroke:#784421;stroke-width:0.0005;stroke-linecap:butt;stroke-linejoin:miter;stroke-miterlimit:4;stroke-dasharray:none;stroke-opacity:1"
       d="m -13.35,-40.1 27.7,0.9 8.58125,1.6 c 1.102971,0.669277 2.682759,2.026986 1.967,3.5 -0.165329,2.792681 -2.591873,2.719926 -4.292,2.6875 L 13,-33.85 12.9795,-31.1 h -25.9 l 0.1705,-2.4 -1.5,-0.45 -7.65,2 c -1.524189,0.30215 -3.87245,1.155085 -3.7705,-2.15 -0.185695,-1.237553 -0.0044,-2.362371 1.4705,-2.75 z"
       id="path1761"
       inkscape:connector-curvature="0"
       sodipodi:nodetypes="cccccccccccccc" />
    <path
       style="fill:#784421;stroke:#784421;stroke-width:0.0005;stroke-linecap:butt;stroke-linejoin:miter;stroke-miterlimit:4;stroke-dasharray:none;stroke-opacity:1"
       d="m 8.6,-12.85 v 0.1 l 6.7295,-0.01685 c 1.333013,-1.032936 2.258118,-2.108809 1.772775,-3.33315 0.109768,-1.187868 -0.39064,-3.484649 -2.272775,-3.5 l -5.0295,1.25 2.55,-1.55 0.05,-0.35 0.04663,-0.85 C 7.8295,-19.6 6.3295,-19.6 8.6,-12.85 Z"
       id="path1763"
       inkscape:connector-curvature="0"
       sodipodi:nodetypes="cccccccccc" />
  </g>
</svg>
