<?xml version="1.0" encoding="UTF-8" standalone="no"?>
<svg
   xmlns:dc="http://purl.org/dc/elements/1.1/"
   xmlns:cc="http://creativecommons.org/ns#"
   xmlns:rdf="http://www.w3.org/1999/02/22-rdf-syntax-ns#"
   xmlns:svg="http://www.w3.org/2000/svg"
   xmlns="http://www.w3.org/2000/svg"
   xmlns:xlink="http://www.w3.org/1999/xlink"
   xmlns:sodipodi="http://sodipodi.sourceforge.net/DTD/sodipodi-0.dtd"
   xmlns:inkscape="http://www.inkscape.org/namespaces/inkscape"
   height="182"
   width="160"
   version="1.1"
   id="svg23"
   sodipodi:docname="front-walking-2.svg"
   inkscape:version="0.92.3 (2405546, 2018-03-11)">
  <metadata
     id="metadata27">
    <rdf:RDF>
      <cc:Work
         rdf:about="">
        <dc:format>image/svg+xml</dc:format>
        <dc:type
           rdf:resource="http://purl.org/dc/dcmitype/StillImage" />
        <dc:title />
      </cc:Work>
    </rdf:RDF>
  </metadata>
  <sodipodi:namedview
     pagecolor="#ffffff"
     bordercolor="#666666"
     borderopacity="1"
     objecttolerance="10"
     gridtolerance="10"
     guidetolerance="10"
     inkscape:pageopacity="0"
     inkscape:pageshadow="2"
     inkscape:window-width="3840"
     inkscape:window-height="2123"
     id="namedview25"
     showgrid="true"
     inkscape:pagecheckerboard="true"
     inkscape:zoom="32"
     inkscape:cx="72.68095"
     inkscape:cy="83.556678"
     inkscape:window-x="0"
     inkscape:window-y="0"
     inkscape:window-maximized="1"
     inkscape:current-layer="g21">
    <inkscape:grid
       type="xygrid"
       id="grid837" />
  </sodipodi:namedview>
  <defs
     id="defs13">
    <path
       d="M.7-.3l1.85 2.2H1.5L.05.7-1.4 1.9h-1.05l1.9-2.2H.7"
       fill-rule="evenodd"
       transform="translate(2.45 .3)"
       id="a" />
    <use
       height="2.2"
       width="5"
       xlink:href="#a"
       id="c" />
    <g
       id="b">
      <path
         d="M-15.5-41.55q-2.65-3.1-2.5-7.1v-.75q.25-4.9 5.35-9.05Q-7.15-63.5.5-64q7.6.5 13.05 5.55Q18.6-54.3 19-49.4v.75q0 4-2.6 7.1h.1-.05l-1.1 1.3v.15l-1 .9 6.55 2.35.05-.1.8.1H22.7l.4.3.55.55.25.35.25 1.5-.2.45q-.35 1.55-1.4 1.65l-2.1.1-1.15-.9v-.05h-.05l.05-.15-4.95-1.8v-.05l-1.3-.5.05.55-.3.9.35.1v.05l-.15-.05-.25 8.85h-.05l-.05 1.5h.05v.1l-.05.4h-.05l-.35 4.2-1.05 4.1-1.65 4v.05H8.4v5.2Q8.35-4.1 7.6-3.2q-.65.75-1.7.75-1 0-1.7-.75-.8-.9-.8-2.25v-5.2H2.1v-1.2h-.3V-12l-.45-.75 1.25-.3.65-.5q.9-.9.9-2.75 0-1.9-.9-2.8-.8-.8-2.05-.8h-6.6v1.55h6.55q.7 0 1.15.4.55.55.55 1.65 0 1.05-.55 1.6-.45.45-1.15.45H-5.4v1.4h-4.75l-2.15-.65q-1.55-1.75-1.85-3.75l-.1-1.2V-19l.05-.4.55-1.85h.1v-.55l.15-.15v-1.35l.15-2.4v-.05l.5-7.75h-.05l-1.45-.45-.45-1.3-6.1 2.2.05.15h-.05v.05l-1.1.9-2.1-.1q-1.1-.1-1.45-1.65l-.15-.45.25-1.5.2-.35.6-.55.35-.3h1l.75-.1.05.1 9.05-3.25-.25-.8-1.35.35-.75-1h.2m1.75 19.65l-.05-.1.05.1m3.65-6.6v.05h.05l-.05-.05"
         fill="#fff"
         fill-rule="evenodd"
         transform="translate(27.05 64.6)"
         id="path4" />
      <path
         d="M15.35-40.1l3.15.95v-.05l2.55.95v-.05l.3.2v.1h.1l1.25-.1q.2.15.3 0 1.55.35 2 1.5l.15.25v.25l.15.3.2.7q.2.9-.15 1.6l-.1.2q-.35 1.9-2 2.4.05.45-.2.1l-2.7.2q-.65-.35-1.65-1.25l-4.15-1.5v.1l-1.4-.55v-.05l-.35-.1.3-.9-.05-.55 1.3.5v.05l4.95 1.8-.05.15h.05v.05l1.15.9 2.1-.1q1.05-.1 1.4-1.65l.2-.45-.25-1.5-.25-.35-.55-.55-.4-.3H21.75l-.8-.1-.05.1-6.55-2.35 1-.9m-5.8 29.45v5.2q0 1.95-1 3.1Q7.45-1.1 5.9-1.1q-1.5 0-2.65-1.25-1.05-1.15-1-3.1v-5.2H3.4v5.2q0 1.35.8 2.25.7.75 1.7.75 1.05 0 1.7-.75.75-.9.8-2.25v-5.2h1.15m-8.2-2.1H-5.4v-1.5h6.55q.7 0 1.15-.45.55-.55.55-1.6 0-1.1-.55-1.65-.45-.4-1.15-.4H-5.4v-1.55h6.6q1.25 0 2.05.8.9.9.9 2.8 0 1.85-.9 2.75l-.65.5-1.25.3m-15.6-21.2l-5.95 2.1-1.6 1.25q-1.6.45-2.7-.2-.3.35-.2-.1-1.7-.5-2-2.4l-.15-.2q-.35-.7-.15-1.6l.25-.7.15-.3v-.25l.1-.25q.45-1.15 2.05-1.5.05.15.3 0l1.2.1h.15l-.05-.1.3-.2.05.05 2.55-.95v.05l1.8-.65 3.2-.75 1.35-.35.25.8-9.05 3.25-.05-.1-.75.1h-1l-.35.3-.6.55-.2.35-.25 1.5.15.45q.35 1.55 1.45 1.65l2.1.1 1.1-.9v-.05h.05l-.05-.15 6.1-2.2.45 1.3"
         fill-rule="evenodd"
         transform="translate(27.05 64.6)"
         id="path6" />
      <path
         d="M11.55 23.05q-2.65-3.1-2.5-7.1v-.75q.25-4.9 5.35-9.05Q19.9 1.1 27.55.6q7.6.5 13.05 5.55 5.05 4.15 5.45 9.05v.75q0 4-2.6 7.1"
         fill="none"
         stroke="#784421"
         stroke-linecap="round"
         stroke-linejoin="round"
         stroke-width="1.2"
         id="path8" />
      <path
         d="M5.4-44.05q.15.45.45.75l.7.25.95-.6q.4-.65.4-1.65 0-1.35-.9-3.25h1.05q.9 1.6.9 3.15 0 1.55-.65 2.4-.6.8-1.6.8-1.35 0-1.9-1.4-.6 1.4-1.9 1.4-1.05 0-1.65-.85Q.6-43.9.6-45.4q0-1.55.95-3.15h1q-.85 1.9-.85 3.25 0 1 .35 1.65.4.6.95.6.4 0 .7-.3l.45-.7.1-1.15V-47H5.3v1.8l.1 1.15"
         fill-rule="evenodd"
         transform="translate(27.05 64.6)"
         id="path10" />
    </g>
  </defs>
  <g
     transform="matrix(2 0 0 2 82.341 144.2)"
     id="g21">
    <ellipse
       style="fill:#784421;fill-rule:evenodd;stroke-width:0.42500001"
       id="path942-1"
       cx="17.406288"
       cy="58.507359"
       ry="3.4000001"
       rx="4.25"
       transform="rotate(-150)" />
    <use
       height="63.5"
       transform="translate(-27.05 -64.6)"
       width="52.6"
       xlink:href="#b"
       id="use15"
       style="fill:#784421" />
    <ellipse
       style="fill:#784421;fill-rule:evenodd;stroke-width:0.77459669"
       id="path843-2"
       cx="41.660381"
       cy="28.772961"
       rx="6"
       ry="4"
       transform="matrix(0.5,-0.8660254,-0.8660254,-0.5,0,0)" />
    <ellipse
       style="fill:#784421;fill-rule:evenodd;stroke-width:0.77459669"
       id="path843-3-9"
       cx="37.034599"
       cy="-36.689724"
       rx="6"
       ry="4"
       transform="matrix(-0.5,-0.8660254,-0.8660254,0.5,0,0)" />
    <use
       height="2.2"
       transform="translate(10.349998,-53.299997)"
       width="5"
       xlink:href="#c"
       id="use17-6"
       x="0"
       y="0"
       style="fill:#ffffff" />
    <use
       height="2.2"
       transform="translate(-5.900002,-53.299997)"
       width="5"
       xlink:href="#c"
       id="use19-7"
       x="0"
       y="0"
       style="fill:#ffffff" />
    <ellipse
       style="fill:#784421;fill-rule:evenodd;stroke-width:0.5"
       id="path942"
       cx="22.177015"
       cy="-56.330326"
       ry="4"
       rx="5"
       transform="rotate(-30)" />
    <path
       style="fill:#784421;stroke:#784421;stroke-width:0.0005;stroke-linecap:butt;stroke-linejoin:miter;stroke-miterlimit:4;stroke-dasharray:none;stroke-opacity:1"
       d="m 2.24975,-10.650038 h -0.15 v -1.2 l 8.868935,-2.25 -1.418935,3.45 -0.003,5.5499999 c -1.061141,1.132839 -1.392282,2.978897 -3.7175,2.87672 -1.560898,-0.0338 -2.538839,-1.524989 -3.572563,-2.87672 z"
       id="path940"
       inkscape:connector-curvature="0"
       sodipodi:nodetypes="ccccccccc" />
    <path
       style="fill:#784421;stroke:#784421;stroke-width:0.0005;stroke-linecap:butt;stroke-linejoin:miter;stroke-miterlimit:4;stroke-dasharray:none;stroke-opacity:1"
       d="m -13.35,-40.1 27.7,0.9 6.4795,1.494531 2.061906,0.503906 c 1.208575,0.332737 2.249532,1.319902 2.016219,2.917969 -0.285169,1.413079 -1.27041,3.358751 -4.578125,2.683594 L 19.134765,-32.55039 13.15,-33.8 13,-33.85 12.92341,-31.1 H -12.904875 L -12.75,-33.5 h -0.05 l -1.45,-0.45 -6.4205,1.35 -1.2295,0.65 c -2.456185,0.640455 -3.689335,-0.10301 -3.7705,-2.15 -0.64064,-1.895719 0.421405,-2.317254 1.4705,-2.75 l 1.4,-1.15 z"
       id="path889"
       inkscape:connector-curvature="0"
       sodipodi:nodetypes="cccccccccccccccccccc" />
    <path
       style="fill:#784421;stroke:#784421;stroke-width:0.0005;stroke-linecap:butt;stroke-linejoin:miter;stroke-miterlimit:4;stroke-dasharray:none;stroke-opacity:1"
       d="m -5.4,-19.9 c -0.2705,-1.7 -0.7705,-0.7 -8.15,-1.35 h -0.1 l -0.55,1.85 -0.05,0.4 v 0.55 l 0.1,1.2 c 0.1829,1.15 0.535079,2.239113 1.85,3.75 l 2.15,0.65 h 4.75 v 0.1 h 6.75 c 0.5861001,-1.069937 2.5244909,-0.784503 1.618431,-3.35 1.1860246,-1.800892 0.2169605,-3.024939 -1.638931,-3 z"
       id="path891"
       inkscape:connector-curvature="0"
       sodipodi:nodetypes="ccccccccccccccc" />
  </g>
</svg>
