<svg xmlns="http://www.w3.org/2000/svg" xmlns:xlink="http://www.w3.org/1999/xlink" height="182" width="160"><defs><path d="m.7-.3 1.85 2.2H1.5L.05.7-1.4 1.9h-1.05l1.9-2.2H.7" fill-rule="evenodd" transform="translate(2.45 .3)" id="a"/><use height="2.2" width="5" xlink:href="#a" id="c"/><g id="b"><path d="M-15.5-41.55q-2.65-3.1-2.5-7.1v-.75q.25-4.9 5.35-9.05Q-7.15-63.5.5-64q7.6.5 13.05 5.55Q18.6-54.3 19-49.4v.75q0 4-2.6 7.1h.1-.05l-1.1 1.3v.15l-1 .9 6.55 2.35.05-.1.8.1h.95l.4.3.55.55.25.35.25 1.5-.2.45q-.35 1.55-1.4 1.65l-2.1.1-1.15-.9v-.05h-.05l.05-.15-4.95-1.8v-.05l-1.3-.5.05.55-.3.9.35.1v.05l-.15-.05-.25 8.85h-.05l-.05 1.5h.05v.1l-.05.4h-.05l-.35 4.2-1.05 4.1-1.65 4v.05H8.4v5.2Q8.35-4.1 7.6-3.2q-.65.75-1.7.75-1 0-1.7-.75-.8-.9-.8-2.25v-5.2H2.1v-1.2h-.3V-12l-.45-.75 1.25-.3.65-.5q.9-.9.9-2.75 0-1.9-.9-2.8-.8-.8-2.05-.8h-6.6v1.55h6.55q.7 0 1.15.4.55.55.55 1.65 0 1.05-.55 1.6-.45.45-1.15.45H-5.4v1.4h-4.75l-2.15-.65q-1.55-1.75-1.85-3.75l-.1-1.2V-19l.05-.4.55-1.85h.1v-.55l.15-.15v-1.35l.15-2.4v-.05l.5-7.75h-.05l-1.45-.45-.45-1.3-6.1 2.2.05.15h-.05v.05l-1.1.9-2.1-.1q-1.1-.1-1.45-1.65l-.15-.45.25-1.5.2-.35.6-.55.35-.3h1l.75-.1.05.1 9.05-3.25-.25-.8-1.35.35-.75-1h.2m1.75 19.65-.05-.1.05.1m3.65-6.6v.05h.05l-.05-.05" fill="#fff" fill-rule="evenodd" transform="translate(27.05 64.6)"/><path d="m15.35-40.1 3.15.95v-.05l2.55.95v-.05l.3.2v.1h.1l1.25-.1q.2.15.3 0 1.55.35 2 1.5l.15.25v.25l.15.3.2.7q.2.9-.15 1.6l-.1.2q-.35 1.9-2 2.4.05.45-.2.1l-2.7.2q-.65-.35-1.65-1.25l-4.15-1.5v.1l-1.4-.55v-.05l-.35-.1.3-.9-.05-.55 1.3.5v.05l4.95 1.8-.05.15h.05v.05l1.15.9 2.1-.1q1.05-.1 1.4-1.65l.2-.45-.25-1.5-.25-.35-.55-.55-.4-.3h-.95l-.8-.1-.05.1-6.55-2.35 1-.9m-5.8 29.45v5.2q0 1.95-1 3.1Q7.45-1.1 5.9-1.1q-1.5 0-2.65-1.25-1.05-1.15-1-3.1v-5.2H3.4v5.2q0 1.35.8 2.25.7.75 1.7.75 1.05 0 1.7-.75.75-.9.8-2.25v-5.2h1.15m-8.2-2.1H-5.4v-1.5h6.55q.7 0 1.15-.45.55-.55.55-1.6 0-1.1-.55-1.65-.45-.4-1.15-.4H-5.4v-1.55h6.6q1.25 0 2.05.8.9.9.9 2.8 0 1.85-.9 2.75l-.65.5-1.25.3m-15.6-21.2-5.95 2.1-1.6 1.25q-1.6.45-2.7-.2-.3.35-.2-.1-1.7-.5-2-2.4l-.15-.2q-.35-.7-.15-1.6l.25-.7.15-.3v-.25l.1-.25q.45-1.15 2.05-1.5.05.15.3 0l1.2.1h.15l-.05-.1.3-.2.05.05 2.55-.95v.05l1.8-.65 3.2-.75 1.35-.35.25.8-9.05 3.25-.05-.1-.75.1h-1l-.35.3-.6.55-.2.35-.25 1.5.15.45q.35 1.55 1.45 1.65l2.1.1 1.1-.9v-.05h.05l-.05-.15 6.1-2.2.45 1.3" fill-rule="evenodd" transform="translate(27.05 64.6)"/><path d="M11.55 23.05q-2.65-3.1-2.5-7.1v-.75q.25-4.9 5.35-9.05Q19.9 1.1 27.55.6q7.6.5 13.05 5.55 5.05 4.15 5.45 9.05v.75q0 4-2.6 7.1" fill="none" stroke="#784421" stroke-linecap="round" stroke-linejoin="round" stroke-width="1.2"/><path d="M5.4-44.05q.15.45.45.75l.7.25.95-.6q.4-.65.4-1.65 0-1.35-.9-3.25h1.05q.9 1.6.9 3.15 0 1.55-.65 2.4-.6.8-1.6.8-1.35 0-1.9-1.4-.6 1.4-1.9 1.4-1.05 0-1.65-.85Q.6-43.9.6-45.4q0-1.55.95-3.15h1q-.85 1.9-.85 3.25 0 1 .35 1.65.4.6.95.6.4 0 .7-.3l.45-.7.1-1.15V-47H5.3v1.8l.1 1.15" fill-rule="evenodd" transform="translate(27.05 64.6)"/></g></defs><g transform="matrix(2 0 0 2 82.341 144.2)"><ellipse cx="17.406" cy="58.507" ry="3.4" rx="4.25" transform="rotate(-150)" fill="#784421" fill-rule="evenodd"/><use height="63.5" transform="translate(-27.05 -64.6)" width="52.6" xlink:href="#b" fill="#784421"/><ellipse cx="41.66" cy="28.773" rx="6" ry="4" transform="scale(1 -1) rotate(60)" fill="#784421" fill-rule="evenodd"/><ellipse cx="37.035" cy="-36.69" rx="6" ry="4" transform="scale(-1 1) rotate(-60)" fill="#784421" fill-rule="evenodd"/><use height="2.2" transform="translate(10.35 -53.3)" width="5" xlink:href="#c" fill="#fff"/><use height="2.2" transform="translate(-5.9 -53.3)" width="5" xlink:href="#c" fill="#fff"/><ellipse cx="22.177" cy="-56.33" ry="4" rx="5" transform="rotate(-30)" fill="#784421" fill-rule="evenodd"/><path d="M2.25-10.65H2.1v-1.2l8.869-2.25-1.42 3.45-.002 5.55C8.486-3.967 8.154-2.121 5.829-2.223 4.27-2.257 3.29-3.748 2.257-5.1zm-15.6-29.45 27.7.9 6.48 1.495 2.061.503c1.209.333 2.25 1.32 2.017 2.918-.286 1.413-1.27 3.36-4.579 2.684l-1.194-.95-5.985-1.25-.15-.05-.077 2.75h-25.828l.155-2.4h-.05l-1.45-.45-6.42 1.35-1.23.65c-2.456.64-3.69-.103-3.77-2.15-.641-1.896.42-2.317 1.47-2.75l1.4-1.15zm7.95 20.2c-.27-1.7-.77-.7-8.15-1.35h-.1l-.55 1.85-.05.4v.55l.1 1.2c.183 1.15.535 2.24 1.85 3.75l2.15.65h4.75v.1h6.75c.586-1.07 2.524-.785 1.618-3.35 1.186-1.8.217-3.025-1.639-3z" fill="#784421" stroke="#784421" stroke-width=".001"/></g></svg>