<svg xmlns="http://www.w3.org/2000/svg" xmlns:xlink="http://www.w3.org/1999/xlink" height="23" width="23"><path d="m16.05 14.3 2.75.85q3.15 1.25 3.2 3.1v.1q-.1 1.45-2.1 2.55l-1.1.5q-2.1.85-4.75 1.15l-2.85.15-2.65-.1q-2.8-.3-4.95-1.2l-1.05-.5q-1.9-1-2.1-2.3v-.35q0-1.85 3.15-3.1l2.85-.85.55.1 1.6.2.5.05.45.05v.6q-1.75.15-3.05.75l-.4.15q-1.55.75-1.55 1.75v.25q.1.8 1.3 1.4l.65.35 3.1.7 1.65.1 1.75-.1 2.95-.7.7-.35q1.25-.7 1.3-1.55v-.1q-.05-1-1.6-1.75l-.4-.15-3.15-.75v-.6l.65-.05.6-.05 1.45-.2.55-.1" fill-opacity=".502" fill-rule="evenodd"/><path d="M-10.55-11.9v-.35q0-1.85 3.15-3.1 3.15-1.3 7.6-1.3 4.45 0 7.6 1.3 3.15 1.25 3.2 3.1v.1q-.1 1.45-2.1 2.55l-1.1.5q-2.1.85-4.75 1.15L.2-7.8l-2.65-.1q-2.8-.3-4.95-1.2l-1.05-.5q-1.9-1-2.1-2.3" fill="url(#a)" fill-rule="evenodd" transform="translate(11.05 17.15)"/><path d="M-10.55-11.9q.2 1.3 2.1 2.3l1.05.5q2.15.9 4.95 1.2l2.65.1 2.85-.15Q5.7-8.25 7.8-9.1l1.1-.5q2-1.1 2.1-2.55v5.3q-.05 1.7-2.75 2.95l-.45.2-2.15.7-.65.15-.55.1-1.45.2-.6.05-.65.05L.2-2.4l-1.7-.05-.45-.05-.5-.05-1.6-.2-.55-.1-.7-.2-2.1-.65-.45-.2q-2.7-1.25-2.7-2.95v-5.05" fill="url(#b)" fill-rule="evenodd" transform="translate(11.05 17.15)"/><path d="M12.8 14.7v.6l3.15.75.4.15q1.55.75 1.6 1.75v.1q-.05.85-1.3 1.55l-.7.35-2.95.7-1.75.1-1.65-.1-3.1-.7-.65-.35q-1.2-.6-1.3-1.4v-.25q0-1 1.55-1.75l.4-.15q1.3-.6 3.05-.75v-.6l1.7.05 1.55-.05m0 .6v2.65l-.3.35-.2.1-.7.15-.45.05h-.4l-.8-.2-.15-.1-.3-.35v-.05l.05-.2v-2.4 2.4l-.05.2v.05l.3.35.15.1.8.2h.4l.45-.05.7-.15.2-.1.3-.35V15.3" fill="#cdcdcd" fill-rule="evenodd"/><path d="M22.05 5v-.1q-.05-1.85-3.2-3.1Q15.7.5 11.25.5 6.8.5 3.65 1.8.5 3.05.5 4.9v.35q.2 1.3 2.1 2.3l1.05.5q2.15.9 4.95 1.2l2.65.1 2.85-.15q2.65-.3 4.75-1.15l1.1-.5q2-1.1 2.1-2.55v5.3Q22 12 19.3 13.25l-.45.2-2.15.7-.65.15-.55.1-1.45.2-.6.05-.65.05v.6l3.15.75.4.15q1.55.75 1.6 1.75M6.45 14.3l-.7-.2-2.1-.65-.45-.2Q.5 12 .5 10.3V5.25m17.45 12.8q-.05.85-1.3 1.55l-.7.35-2.95.7-1.75.1-1.65-.1-3.1-.7-.65-.35q-1.2-.6-1.3-1.4V18m0-.05q0-1 1.55-1.75l.4-.15q1.3-.6 3.05-.75v-.6l-.45-.05-.5-.05-1.6-.2-.55-.1m6.35.4-1.55.05-1.7-.05m0 .6v2.4l-.05.2v.05l.3.35.15.1.8.2h.4l.45-.05.7-.15.2-.1.3-.35V15.3" fill="none" stroke="#000" stroke-linecap="round" stroke-linejoin="round"/><defs><radialGradient cx="0" cy="0" gradientTransform="translate(.2 -12.35) scale(.0132)" gradientUnits="userSpaceOnUse" id="c" r="819.2" spreadMethod="pad"><stop offset="0" stop-color="red"/><stop offset="1" stop-color="#7d0000"/></radialGradient><radialGradient cx="0" cy="0" gradientTransform="translate(.2 -5.25) scale(.0156)" gradientUnits="userSpaceOnUse" id="d" r="819.2" spreadMethod="pad"><stop offset="0" stop-color="red"/><stop offset="1" stop-color="#7d0000"/></radialGradient><radialGradient xlink:href="#c" id="a" gradientUnits="userSpaceOnUse" gradientTransform="translate(.2 -12.35) scale(.0132)" cx="0" cy="0" r="819.2" spreadMethod="pad"/><radialGradient xlink:href="#d" id="b" gradientUnits="userSpaceOnUse" gradientTransform="translate(.2 -5.25) scale(.0156)" cx="0" cy="0" r="819.2" spreadMethod="pad"/></defs></svg>