<svg xmlns="http://www.w3.org/2000/svg" xmlns:xlink="http://www.w3.org/1999/xlink" height="70.525" width="80.025"><path d="M0 50.5l40 20 40-20-40-20-40 20" fill="#bcbcbc" fill-rule="evenodd"/><path d="M23.45 37.75v5.7l22.6 11.3.45-.6q.8-1.25.9-2.4l.1-9.5L40 46l-16.55-8.25" fill="#1b5235" fill-rule="evenodd"/><path d="M23.45 43.45v-5.7l-.15-.1-.15-.05-6.65-3.35-.05 2.05q-.1 1.15-.9 2.4l-.45.6q-.8 1-1.85 1.6l-5.4 2.95q-1.35.7-2.3 2.2-.7 1.05-.9 2.15l-.05.7v3.95h.05l18.8-9.4M80 26L52 40l-.15 13.95q-.1 1.15-.9 2.4l-.45.6-1.85 1.6-5.4 2.95q-1.35.7-2.3 2.2-.95 1.45-.95 2.85v3.95l40-20V26" fill="#329664" fill-rule="evenodd"/><path d="M23.45 37.75L40 46v-6L0 20v6l12.05 6.05 4.45 2.2 6.65 3.35.15.05.15.1" fill="url(#a)" fill-rule="evenodd"/><path d="M40 46l7.5-3.75L52 40l28-14v-6L40 40v6" fill="url(#b)" fill-rule="evenodd"/><path d="M4.6 52.85V48.9l.05-.7q.2-1.1.9-2.15.95-1.5 2.3-2.2l5.4-2.95q1.05-.6 1.85-1.6l.45-.6q.8-1.25.9-2.4l.05-2.05-4.45-2.2L12 34.1q-.1 1.15-.9 2.4l-.45.6q-.8 1-1.85 1.6l-5.4 2.95q-1.35.7-2.3 2.2Q.15 45.3.15 46.7v3.95l4.45 2.2" fill="url(#c)" fill-rule="evenodd"/><path d="M0 20l40 20 40-20L40 0 0 20" fill="url(#d)" fill-rule="evenodd"/><path d="M46.05 54.75l-22.6-11.3-18.8 9.4 30.9 15.45v-3.95q0-1.4.95-2.85l1.25-1.5 1.05-.7 5.4-2.95 1.85-1.6M.15 50.6v-.15L0 50.5l.15.1m38.05 2.65l.2.1h-.2v-.1" fill-opacity=".502" fill-rule="evenodd"/><path d="M38.2 53.25v.1h.2l-.2-.1" fill="#1d5639" fill-rule="evenodd"/><path d="M47.5 42.25l-.1 9.5q-.1 1.15-.9 2.4l-.45.6-1.85 1.6-5.4 2.95-1.05.7-1.25 1.5q-.95 1.45-.95 2.85v3.95L40 70.5v-3.95q0-1.4.95-2.85.95-1.5 2.3-2.2l5.4-2.95 1.85-1.6.45-.6q.8-1.25.9-2.4L52 40l-4.5 2.25" fill="url(#e)" fill-rule="evenodd"/><path d="M23.45 43.45v-5.7m24.05 4.5l-.1 9.5q-.1 1.15-.9 2.4l-.45.6-22.6-11.3-18.8 9.4H4.6V48.9l.05-.7q.2-1.1.9-2.15.95-1.5 2.3-2.2l5.4-2.95q1.05-.6 1.85-1.6l.45-.6q.8-1.25.9-2.4l.05-2.05m6.8 3.4l.15.1M.15 50.45V46.7q0-1.4.95-2.85.95-1.5 2.3-2.2l5.4-2.95q1.05-.6 1.85-1.6l.45-.6q.8-1.25.9-2.4l.05-2.05M4.6 52.85l-4.45-2.2v-.2m45.9 4.3l-1.85 1.6-5.4 2.95-1.05.7-1.25 1.5q-.95 1.45-.95 2.85v3.95L40 70.5l40-20V26M52 40l-.15 13.95q-.1 1.15-.9 2.4l-.45.6-1.85 1.6-5.4 2.95q-1.35.7-2.3 2.2-.95 1.45-.95 2.85v3.95" fill="none" stroke="#000" stroke-linecap="round" stroke-linejoin="round" stroke-width=".05"/><defs id="defs257"><radialGradient cx="0" cy="0" gradientTransform="translate(22 -19) scale(.0322)" gradientUnits="userSpaceOnUse" id="w" r="819.2" spreadMethod="pad"><stop offset="0" stop-color="#5a5a5a" id="stop219"/><stop offset="1" id="stop221"/></radialGradient><radialGradient cx="0" cy="0" gradientTransform="translate(-20.75 -18) scale(.0302)" gradientUnits="userSpaceOnUse" id="x" r="819.2" spreadMethod="pad"><stop offset="0" stop-color="#5a5a5a" id="stop224"/><stop offset="1" id="stop226"/></radialGradient><radialGradient cx="0" cy="0" gradientTransform="matrix(.0494 0 0 .0247 .5 -30.25)" gradientUnits="userSpaceOnUse" id="z" r="819.2" spreadMethod="pad"><stop offset="0" stop-color="#636363" id="stop229"/><stop offset="1" id="stop231"/></radialGradient><radialGradient xlink:href="#w" id="a" gradientUnits="userSpaceOnUse" gradientTransform="matrix(-.0322 0 0 .0322 18 31.5)" cx="0" cy="0" r="819.2" spreadMethod="pad"/><radialGradient xlink:href="#x" id="b" gradientUnits="userSpaceOnUse" gradientTransform="matrix(-.0302 0 0 .0302 60.75 32.5)" cx="0" cy="0" r="819.2" spreadMethod="pad"/><radialGradient xlink:href="#z" id="d" gradientUnits="userSpaceOnUse" gradientTransform="matrix(-.0494 0 0 .0247 39.5 20.25)" cx="0" cy="0" r="819.2" spreadMethod="pad"/><linearGradient gradientTransform="matrix(.0134 .0233 -.0053 .0031 34.25 -4.8)" gradientUnits="userSpaceOnUse" id="y" spreadMethod="pad" x1="-819.2" x2="819.2"><stop offset="0" stop-color="#329664" id="stop24"/><stop offset=".247" stop-color="#7bd2a6" id="stop26"/><stop offset=".514" stop-color="#329664" id="stop28"/><stop offset=".745" stop-color="#8cd9b3" id="stop30"/><stop offset="1" stop-color="#329664" id="stop32"/><stop offset="1" stop-color="#d7ebe1" id="stop34"/></linearGradient><linearGradient gradientTransform="matrix(.0134 .0233 -.0053 .0031 -1.15 12.85)" gradientUnits="userSpaceOnUse" id="A" spreadMethod="pad" x1="-819.2" x2="819.2"><stop offset="0" stop-color="#329664" id="stop37"/><stop offset=".247" stop-color="#7bd2a6" id="stop39"/><stop offset=".514" stop-color="#329664" id="stop41"/><stop offset=".745" stop-color="#8cd9b3" id="stop43"/><stop offset="1" stop-color="#329664" id="stop45"/><stop offset="1" stop-color="#d7ebe1" id="stop47"/></linearGradient><linearGradient xlink:href="#y" id="c" gradientUnits="userSpaceOnUse" gradientTransform="matrix(-.0134 .0233 .0053 .0031 5.75 45.7)" x1="-819.2" x2="819.2" spreadMethod="pad"/><linearGradient xlink:href="#A" id="e" gradientUnits="userSpaceOnUse" gradientTransform="matrix(-.0134 .0233 .0053 .0031 41.15 63.35)" x1="-819.2" x2="819.2" spreadMethod="pad"/></defs></svg>