<svg xmlns="http://www.w3.org/2000/svg" width="160" height="182"><path fill="#3cb371" d="m63.17 21.08 5.08-17.2s11.33 12.87 11.42 12.79c.08-.09 16.16-11.09 16.25-11.17.08-.08-.67 11.83-.67 11.83s13.67-2.25 13.75-2.25c.08 0-3.83 8.67-3.83 8.67s13.25 1.42 13.16 1.42c-.08 0-6.33 9-6.33 9s15.12 3.91 15.12 3.83c0-.08-10.7 10.58-10.7 10.58l9.83 6.3L116 62.75s4.58 16.5 4.58 16.42c0-.09-15.16-8-15.16-8l-4.5 17.66-8.04-11.95-7.26 13.74-7.87-13.12-13.67 12.58-2.22-16.35-19.11 4.19L54 61.12l-16.25-5.24s13.5-10.3 13.75-10.38c.25-.08-14.12-9.62-14.12-9.62s16.37-1.42 16.62-1.5c.25-.09-5.38-16.38-5.38-16.63s14.55 3.33 14.55 3.33ZM38.25 35.5"/><path fill="none" stroke="green" d="m92.25 67.12 6.94 6.5 2.62-9.68L111.5 68l-3.88-9.25 11-2.81-11.56-8.5s9.5-7.25 9.56-7.38c.07-.12-11.62-1.87-11.5-2.5.13-.62 4.38-9.37 4.38-9.37s-12.81-.38-12.75-.38c.06 0 5.75-8.56 5.75-8.56S88.06 22.38 88 22.38c-.06 0 2.38-8.82 2.38-8.82l-11.32 8.38-8.75-7.63L69 26.56l-13.06-1.12 4.18 11.25L51 40s7.06 8.38 7.25 8.38c.19 0-8.94 6.68-8.94 6.68l9.81 4.25S53.81 71 53.88 70.94c.06-.06 11-2.06 11-2.06l1.68 11.93 12.25-10.06 7.44 11.44 6-15.07Z"/><path fill="green" d="M76.38 98.38c1.44 1.23 24.06 17.56 36.43-10.32-15.12-11.31-34.87 6.25-35.9 6.88-1.03.62-14.91-3.03-15.41-3.88-.5-.84-15.75-19.75-35.69-5.44 5 20.94 34.28 9.69 35.57 9.38 1.28-.31 13.55 2.14 15 3.38Z"/><path fill="#6b8e23" d="M71.08 101c-19.83-10.33 1.21-48.38 2.69-51.75 1.48-3.37 11.87-3.24 11.54-.19-.31 3-22.23 39.11-2.23 47.61s21.54 47.39 18.92 49.5c-2.63 2.1-12.58 2.45-12.88.58-.29-1.87 1.8-35.42-18.04-45.75Z"/></svg>