<svg xmlns="http://www.w3.org/2000/svg" height="182" width="160" xml:space="preserve" style="fill-rule:evenodd;clip-rule:evenodd;stroke-linejoin:round;stroke-miterlimit:1.5">
    <path d="M58.358,66.022L56.912,68.376L52.778,74.023L51.405,80.545L52.842,85.105L56.179,91.26L56.335,91.954L55.79,93.454L54.896,96.428L53.7,98.955L52.986,101.871L54.669,107.046L57.659,108.415L58.428,114.388L58.758,118.988L59.299,120.599L59.928,122.066L60.388,122.882L59.447,124.843L59.557,135.771L61.631,139.214L65.684,140.715L68.95,139.446L70.844,136.406L71.684,123.551L70.304,122.931L76.414,121.508L88.077,121.485L93.395,122.9L93.521,124.903L98.815,130.666L101.177,132.413L103.829,133.583L107.086,133.533L108.907,132.654L110.903,129.827L110.531,125.81L107.788,121.678L104.029,117.947L104.858,112.071L107.869,106.092L109.47,101.503L110.585,98.002L110.909,94.673L109.388,92.596L107.626,91.248L108.865,90.283L112.842,83.875L112.975,77.558L112.006,73.875L109.752,69.768L107.769,68.118L104.949,66.726L96.423,48.696L95.342,49.714L87.276,66.331L75.456,66.504L66.881,49.136L65.686,50.394L58.358,66.022Z" style="fill:white;fill-rule:nonzero;"/>
    <path d="M110.011,94.599C110.454,102.483 107.397,107.498 104.797,109.97" style="fill:none;stroke:black;stroke-width:2.5px;"/>
    <path d="M97.05,73.561L95.3,73.561L97.94,69.331L100.78,69.331L97.05,73.561ZM103.742,67.49L106.14,66.376L95.973,44.486L86.229,65.477L76.426,65.482L66.721,44.529L56.742,66.179L59.112,67.35L66.707,50.316L74.575,67.576L88.186,67.364L95.966,50.165L103.742,67.49ZM107.774,67.58L110.936,71.22L112.726,74.266L113.598,76.904L113.77,78.695L113.818,81.475L113.405,83.883C113.405,83.883 112.814,85.53 112.435,86.317C112.143,86.926 111.807,87.517 111.433,88.079C110.757,89.096 109.983,90.046 109.199,90.981C108.738,91.531 107.747,92.574 107.747,92.574L106.03,91.248L108.229,89.018L109.789,86.957L110.945,84.646L111.538,82.556L111.752,80.309L111.565,77.562L110.787,74.862L109.757,73.068L108.386,71.387L106.018,68.875L107.774,67.58ZM56.736,92.787L58.528,91.595L56.022,88.855L54.147,85.885L53.407,83.797L53.07,82.096L53,79.91L53.134,77.339L53.643,75.125L54.813,72.862L56.103,71.262L57.483,69.574L58.62,68.449L56.984,67.125L55.582,68.657L53.96,70.545L52.856,72.355L51.616,75.005L50.9,77.4L50.782,79.244L50.762,81.264L50.894,82.688L51.614,85.217L52.474,87.159L53.832,89.221C53.832,89.221 54.847,90.601 55.39,91.261C55.82,91.785 56.735,92.786 56.735,92.786L56.736,92.787ZM103.811,119.304L108.271,123.764L109.248,125.337L109.748,127.051L109.731,128.378L109.324,129.783L108.658,130.669L107.586,131.651L106.167,132.296L104.662,132.405L103.235,131.902L101.613,131.026L100.586,130.122L93.359,122.895L91.669,124.585L99.534,132.45L100.854,133.515L102.505,134.311L104.205,134.797L105.773,134.819L107.263,134.678L108.687,134.05L110.131,133.018L111.144,131.899L111.716,130.709L112.111,129.319L112.263,127.159L111.813,125.204L110.909,123.44L109.686,121.84L104.229,116.384L103.811,119.304ZM70.305,122.932L70.305,133.712L69.893,135.698L68.983,137.509L67.705,138.759L66.32,139.241L63.935,139.218L62.724,138.627L61.58,137.458L60.787,135.738L60.389,134.272L60.389,122.882L57.98,122.882L57.98,133.902L58.211,135.556L58.601,136.893L59.272,138.45L60.178,139.526L61.351,140.631L62.427,141.161L63.752,141.77L65.273,141.954L66.829,141.714L68.343,141.212L70.165,139.87L71.366,138.403L72.224,136.329L72.708,134.044L72.708,122.91L70.305,122.932Z" style="fill-rule:nonzero;"/>
    <circle cx="106.129" cy="76.682" r="2.118" opacity=".99" filter="url(#a)" id="gikopoipoi_eyes_open" style="display:inline"/><path d="M103.532 77.366c2.012.598 4.169.324 5.246-.469" stroke-width="3" id="gikopoipoi_eyes_closed" style="display:none;stroke-width:2.14607;stroke-dasharray:none" fill="none" stroke="#000" stroke-linecap="round" stroke-linejoin="round"/></svg>