<?xml version="1.0" encoding="UTF-8" standalone="no"?>
<!DOCTYPE svg PUBLIC "-//W3C//DTD SVG 1.1//EN" "http://www.w3.org/Graphics/SVG/1.1/DTD/svg11.dtd">
<svg width="160px" height="182px" version="1.1" xmlns="http://www.w3.org/2000/svg" xmlns:xlink="http://www.w3.org/1999/xlink" xml:space="preserve" xmlns:serif="http://www.serif.com/" style="fill-rule:evenodd;clip-rule:evenodd;stroke-linejoin:round;stroke-miterlimit:1.5;">
    <path d="M80.298,128.39L72,141C54.156,134.218 65.555,113.843 65.555,113.843C67.034,120.171 57.42,137.138 51.188,121.797C50.485,120.067 53.005,104.958 53.005,104.958L55.65,99.731C48.894,95.711 46.713,89.458 53.487,78.83L55.243,77.079L63.162,56.315L74.369,72.596L86.757,70.709L93.954,51.901L104.411,71.416L107.227,73.303C113.686,79.396 114.708,86.305 108.583,94.286L104.411,98.079L99.723,110.045L99.723,120.913" style="fill:#fff;"/>
    <path d="M55.65,100.588C47.492,93.336 47.43,86.083 53.259,78.83" style="fill:none;stroke:#000;stroke-width:2.5px;"/>
    <path d="M55.243,76.085L63.321,55.748L74.136,72.997L86.434,70.776L94.115,51.901L104.411,71.557" style="fill:none;stroke:#000;stroke-width:2.5px;"/>
    <path d="M107.227,73.303C114.146,80.764 114.312,86.825 107.991,94.286" style="fill:none;stroke:#000;stroke-width:2.5px;"/>
    <path d="M82.524,86.469C80.551,90.319 80.796,93.037 81.555,94.63C82.616,96.856 84.438,98.49 86.793,96.274C88.381,94.432 88.972,91.523 88.981,88.564C89.388,91.177 88.952,93.015 90.05,95.461C92.165,96.95 93.637,96.136 95.556,93.56C97.049,90.263 95.83,87.755 93.969,84.088" style="fill:none;stroke:#000;stroke-width:2.5px;"/>
    <path d="M100.771,97.922C109.494,94.104 115.219,95.983 113.319,104.121C113.012,105.434 107.955,106.973 106.157,108.409" style="fill:#fff;stroke:#000;stroke-width:2.5px;"/>
    <path d="M59.528,79.91L62.417,80.008L60.093,84.088L58.431,84.088L59.528,79.91Z"/>
    <path d="M103.438,75.397L107.773,78.287L108.755,77.437L105.053,74.323L103.438,75.397Z"/>
    <g>
        <path d="M99.689,116.952L100,130C96.513,136.785 92.332,136.626 87.587,130.826L87.5,125.5" style="fill:#fff;"/>
        <path d="M88,124L88.175,131.877C91.985,139.122 98.886,137.317 99.86,130.17L99.785,121" style="fill:none;stroke:#000;stroke-width:2.5px;"/>
        <path d="M110.467,100.36L102.29,79.345" style="fill:none;stroke:#621604;stroke-width:3px;stroke-linecap:round;"/>
        <path d="M101.488,79.345L100.404,75.475" style="fill:none;stroke:#998580;stroke-width:4px;stroke-linecap:round;"/>
    </g>
    <g id="gikopoipoi_eyes_open">
        <path d="M69.931,84.113C71.087,83.937 72.168,84.733 72.343,85.888C72.519,87.044 71.723,88.125 70.568,88.3C69.412,88.476 68.331,87.681 68.155,86.525C67.98,85.369 68.775,84.288 69.931,84.113Z"/>
        <path d="M101.849,78.517C103.005,78.341 104.086,79.137 104.261,80.292C104.437,81.448 103.641,82.529 102.486,82.705C101.33,82.88 100.249,82.085 100.073,80.929C99.898,79.773 100.693,78.692 101.849,78.517Z"/>
    </g>
    <path id="gikopoipoi_eyes_closed" d="M99.699,80.901C101.071,81.545 103.911,80.927 104.88,79.954M66.936,86.681C68.308,87.325 71.148,86.707 72.117,85.734" style="display:none;fill:none;fill-rule:nonzero;stroke:#000;stroke-width:3px;stroke-linecap:round;stroke-miterlimit:4;"/>
    <g>
        <path d="M86.222,27.835L86.222,106.086" style="fill:none;stroke:#63513d;stroke-width:2px;stroke-linecap:round;"/>
        <path d="M56.259,26.436L80.277,20.317L106.9,22.426L125.961,31.956L130.177,45.268L117.94,57.276L93.922,63.395L67.299,61.287L48.238,51.757L44.022,38.445L56.259,26.436Z" style="fill:#9f0000;stroke:#000;stroke-width:1px;stroke-linecap:round;"/>
        <path d="M81.728,19.895L100.05,21.346L94.686,21.864L88.907,25.2L85.296,24.914L83.532,20.797L81.728,19.895Z" style="fill:#9f0000;stroke:#000;stroke-width:1px;stroke-linecap:round;"/>
        <path d="M48.426,51.85L59.081,41.831L70.465,33.539L80.951,29.178L83.536,30.47L78.193,37.403L72.393,48.487L67.299,61.287L93.922,63.395L90.987,49.959L88.988,38.258L87.147,30.756L90.404,29.926L98.292,35.887L107.76,45.686L117.817,57.215L130.177,45.268L116.307,37.299L103.688,30.908L92.064,28.298L91.492,26.492L101.978,25.51L113.362,28.002L125.961,31.956L106.9,22.426L100.05,21.346L94.686,21.864L88.907,25.2L85.296,24.914L83.532,20.797L81.728,19.895L64.872,24.242L73.496,23.489L82.039,25.744L80.379,27.372L68.755,28.141L56.136,32.534L44.022,38.445L48.426,51.85Z" style="fill:#b90016;stroke:#000;stroke-width:1px;stroke-linecap:round;"/>
        <path d="M64.683,24.147L81.456,19.874L100.05,21.346L113.362,28.002L116.307,37.299L107.76,45.686L90.987,49.959L72.393,48.487L59.081,41.831L56.136,32.534L64.683,24.147ZM73.717,23.272L68.755,28.141L70.465,33.539L78.193,37.403L88.988,38.258L98.726,35.777L103.688,30.908L101.978,25.51L94.25,21.646L83.455,20.791L73.717,23.272Z" style="fill:#fff;fill-opacity:0.4;"/>
        <path d="M82.039,25.744L85.296,24.914L88.907,25.2L91.492,26.492L92.064,28.298L90.404,29.926L87.147,30.756L83.536,30.47L80.951,29.178L80.379,27.372L82.039,25.744Z" style="fill:#3f0000;stroke:#000;stroke-width:1px;stroke-linecap:round;"/>
        <path d="M44.022,38.445L56.136,26.557" style="fill:none;stroke:#000;stroke-width:1px;stroke-linecap:round;"/>
    </g>
    <g>
        <path d="M108.651,147.456L108.651,150.822L82.569,137.781L82.569,134.415L108.651,147.456Z" style="fill:#6b5d35;stroke:#000;stroke-width:1px;stroke-linecap:round;"/>
        <path d="M92.665,129.367L118.747,142.408L108.651,147.456L82.569,134.415L92.665,129.367Z" style="fill:#6b5d35;stroke:#000;stroke-width:1px;stroke-linecap:round;"/>
        <path d="M118.747,142.408L118.747,145.774L108.651,150.822L108.651,147.456L118.747,142.408Z" style="fill:#6b5d35;stroke:#000;stroke-width:1px;stroke-linecap:round;"/>
        <path d="M96.031,92.348L96.031,131.05L85.934,136.098L85.934,97.396L96.031,92.348Z" style="fill:#6b5d35;stroke:#000;stroke-width:1px;stroke-linecap:round;"/>
        <path d="M85.934,97.396L85.934,136.098L82.569,134.415L82.569,95.713L85.934,97.396Z" style="fill:#6b5d35;stroke:#000;stroke-width:1px;stroke-linecap:round;"/>
        <path d="M91.658,127.205C80.178,124.241 75.824,122.963 70.09,126.985C67.022,129.136 63.2,123.97 60.275,123.132" style="fill:none;stroke:#3d646b;stroke-width:3px;stroke-linecap:round;"/>
        <path d="M55.019,101.859L87.842,120.578" style="fill:none;stroke:#3d646b;stroke-width:3px;stroke-linecap:round;"/>
        <path d="M52.285,110.464L51.507,121.125C51.65,129.446 59.348,129.734 63.778,123.59L65.555,113.843" style="fill:#fff;stroke:#000;stroke-width:2.5px;"/>
        <path d="M57.03,122.468L54.292,145.066" style="fill:none;stroke:#621604;stroke-width:3px;stroke-linecap:round;"/>
        <path d="M54.292,145.066L54.027,147.254" style="fill:none;stroke:#998580;stroke-width:4px;stroke-linecap:round;"/>
        <path d="M92.665,90.665L96.031,92.348L85.934,97.396L82.569,95.713L92.665,90.665Z" style="fill:#6b5d35;stroke:#000;stroke-width:1px;stroke-linecap:round;"/>
        <path d="M89.3,94.03L89.3,68.79C89.157,63.31 92.395,62.668 100.237,66.962L100.237,71.332" style="fill:none;stroke:#2b2b2b;stroke-width:1px;stroke-linecap:round;"/>
        <path d="M100.237,70.893C104.881,73.215 108.339,78.714 107.955,83.166C107.571,87.617 103.489,89.346 98.846,87.025C94.202,84.703 90.744,79.204 91.128,74.752C91.512,70.301 95.594,68.572 100.237,70.893Z" style="fill:#937c33;stroke:#63513d;stroke-width:1px;stroke-linecap:round;"/>
        <path d="M98.415,71.665C103.059,73.987 106.517,79.486 106.133,83.937C105.749,88.389 101.667,90.118 97.024,87.796C92.38,85.475 88.922,79.976 89.306,75.524C89.69,71.072 93.772,69.343 98.415,71.665Z" style="fill:#937c33;stroke:#63513d;stroke-width:1px;stroke-linecap:round;"/>
        <path d="M104.032,87.934C102.539,88.244 100.739,87.971 98.846,87.025C94.202,84.703 90.744,79.204 91.128,74.752C91.285,72.937 92.056,71.575 93.229,70.755C94.723,70.445 96.522,70.719 98.415,71.665C103.059,73.987 106.517,79.486 106.133,83.937C105.977,85.752 105.206,87.115 104.032,87.934Z" style="fill:#84702e;stroke:#63513d;stroke-width:1px;stroke-linecap:round;"/>
        <g>
            <path d="M109.686,108.629C118.629,113.101 125.89,123.992 125.89,132.935C125.89,141.879 118.629,145.509 109.686,141.037C100.743,136.566 93.482,125.675 93.482,116.731C93.482,107.788 100.743,104.158 109.686,108.629Z" style="fill:#d9c8b0;stroke:#000;stroke-width:1px;stroke-linecap:round;"/>
            <path d="M113.617,145.788L88.475,113.244C90.927,111.181 94.604,108.486 98.041,107.692C100.871,106.693 104.541,107.07 108.548,109.073C117.492,113.545 124.753,124.436 124.753,133.38C124.753,136.981 123.829,139.848 121.839,141.544C119.518,143.53 116.82,144.783 113.617,145.788Z" style="fill:#521311;stroke:#000;stroke-width:1px;stroke-linecap:round;"/>
            <path d="M102.721,112.236C111.664,116.708 118.925,127.599 118.925,136.542C118.925,145.486 111.664,149.116 102.721,144.644C93.778,140.173 86.517,129.282 86.517,120.338C86.517,111.395 93.778,107.765 102.721,112.236Z" style="fill:#d9c8b0;stroke:#000;stroke-width:1px;stroke-linecap:round;"/>
            <path d="M101.584,112.934C110.387,117.335 117.535,128.056 117.535,136.86C117.535,145.663 110.387,149.237 101.584,144.835C92.78,140.434 85.633,129.712 85.633,120.909C85.633,112.105 92.78,108.532 101.584,112.934Z" style="fill:#d9c8b0;stroke:#000;stroke-width:1px;stroke-linecap:round;"/>
        </g>
        <g>
            <path d="M101.822,91.522C106.544,93.883 110.378,99.633 110.378,104.355C110.378,109.077 106.544,110.994 101.822,108.633C97.1,106.272 93.266,100.522 93.266,95.8C93.266,91.077 97.1,89.161 101.822,91.522Z" style="fill:#cfc094;stroke:#000;stroke-width:1px;stroke-linecap:round;"/>
            <path d="M103.898,111.142L90.623,93.958C91.918,92.869 93.859,91.446 95.674,91.027C97.168,90.499 99.106,90.698 101.222,91.756C105.944,94.117 109.777,99.868 109.777,104.59C109.777,106.491 109.29,108.005 108.239,108.901C107.014,109.949 105.589,110.611 103.898,111.142Z" style="fill:#725127;stroke:#000;stroke-width:1px;stroke-linecap:round;"/>
            <path d="M98.145,93.426C102.867,95.787 106.7,101.538 106.7,106.26C106.7,110.982 102.867,112.899 98.145,110.538C93.423,108.177 89.589,102.426 89.589,97.704C89.589,92.982 93.423,91.065 98.145,93.426Z" style="fill:#cfc094;stroke:#000;stroke-width:1px;stroke-linecap:round;"/>
            <path d="M97.544,93.794C102.192,96.118 105.966,101.779 105.966,106.427C105.966,111.076 102.192,112.963 97.544,110.639C92.896,108.314 89.122,102.654 89.122,98.005C89.122,93.357 92.896,91.47 97.544,93.794Z" style="fill:#cfc094;stroke:#000;stroke-width:1px;stroke-linecap:round;"/>
        </g>
    </g>
    <path d="M71.823,141.216L80.231,143.525C87.564,143.377 89.885,135.618 83.639,132L75.777,129.558" style="fill:#fff;stroke:#000;stroke-width:2.5px;"/>
</svg>
