<svg xmlns="http://www.w3.org/2000/svg" height="182" width="160"><path d="M58.358 66.022l-1.446 2.354-4.134 5.647-1.373 6.522 1.437 4.56 3.337 6.155.156.694-.545 1.5-.894 2.974-4.246 4.09-3.906 5.123-.5 3.497 1.623 3.06 3.37 1.125 4.06-.001 3.199-1.351-.068 2.417.33 4.6.541 1.611.629 1.467.46.816-.941 1.961 7.738 7.369 2.665 1.377 3.303.168 3.13-1.804 1.558-3.458-.594-3.384-2.23-2.668 1.397-.935 11.663-.023 5.318 1.415-.995 1.1.266 8.853.29 3.401 1.724 3.292 3.534.704 2.85-.376 2.781-3.047 1.06-5.79-.397-7.27-1.183-.83 1.533-10.866 3.465 1.396 4.837-.663 2.05-2.8.483-3.778-1.723-4.305-2.448-2.492-5.326-5.745-.166-2.436 2.835-.965 3.977-6.408.133-6.317-.969-3.683-2.254-4.107-1.983-1.65-2.82-1.392-8.526-18.03-1.081 1.018-8.066 16.617-11.82.174-8.575-17.368-1.195 1.257z" fill="#fff"/><circle cx="106.129" cy="76.682" r="2.118"/><path d="M97.05 73.561H95.3l2.64-4.23h2.84zm6.692-6.071l2.398-1.114-10.167-21.89-9.744 20.991-9.803.005-9.705-20.953-9.979 21.65 2.37 1.171 7.595-17.034 7.868 17.26 13.611-.212 7.78-17.199zm4.032.09l3.162 3.64 1.79 3.046.872 2.638.172 1.791.048 2.78-.413 2.408s-.591 1.647-.97 2.434c-.292.609-.628 1.2-1.002 1.762-.676 1.017-1.45 1.967-2.234 2.902-.461.55-1.452 1.593-1.452 1.593l-1.717-1.326 2.199-2.23 1.56-2.061 1.156-2.311.593-2.09.214-2.247-.187-2.747-.778-2.7-1.03-1.794-1.371-1.681-2.368-2.512zM56.736 92.787l1.792-1.192-2.506-2.74-1.875-2.97-.74-2.088-.337-1.701L53 79.91l.134-2.571.509-2.214 1.17-2.263 1.29-1.6 1.38-1.688 1.137-1.125-1.636-1.324-1.402 1.532-1.622 1.888-1.104 1.81-1.24 2.65L50.9 77.4l-.118 1.844-.02 2.02.132 1.424.72 2.529.86 1.942 1.358 2.062s1.015 1.38 1.558 2.04c.43.524 1.345 1.525 1.345 1.525zm-.946.667l1.672 1.96-3.569 3.168-2.525 2.462-1.609 1.659-1.42 1.766-.842 1.603-.342 1.341-.065 1.246.173.82.527.93.703.951.907.658 1.557.436s1.143.23 1.327.23c.184 0 1.51-.265 1.51-.265l1.405-.515 1.449-.861 1.807-2.051-.096 3.272-1.783 1.456-1.715.765-1.321.265-2.153.094-1.868-.31s-1.372-.637-1.542-.683c-.17-.046-1.435-1.294-1.435-1.294l-.961-1.506-.515-1.416-.001-1.373.172-1.62.45-1.321.874-1.526 1.092-1.78 1.746-1.96 2.088-2.225 1.909-1.944zm48.691 1.556l1.67-2.076 4.64 4.685 2.998 3.329 1.594 2.292 1.325 2.449.34 1.934-.156 1.953-.733 1.513-1.013 1.403-1.608 1.124-1.358.608-2.137.433-1.635-.058-1.89-.622-1.81-1.202-2.289-1.898-1.475-1.557 1.768-1.791 1.546 2.11 1.483 1.402 1.749.966 1.37.357 1.544-.02 1.448-.39 1.274-.76.822-.842.833-1.427.248-1.12-.266-1.631-.611-1.372-1.204-1.827-1.279-1.45-1.43-1.51-2.045-1.796-2.34-1.979zm-1.156 27.928v11.12l-.421 1.804-.859 1.566-.95.926-1.282.706-1.097.155-1.452-.063-1.46-.547-1.14-.988-.654-1.364-.528-1.767-.087-1.365V122.9h-2.39v11.123l.18 1.686.606 1.731.857 1.545 1.094 1.125 1.154.954 1.45.563 1.75.292 1.508-.076 1.246-.437 1.262-.703 1.636-1.42 1.063-1.702.609-1.886.265-1.996v-10.764zm-29.725-.809l1.385 1.384 1.113 1.696.637 1.925-.02 1.786-.638 1.32-1.703 1.67-1.274.439-1.635-.017-1.777-.656-1.318-.755-8.055-8.054-1.702 1.703 7.792 7.792 1.333 1.006 1.22.67 1.577.626 1.4.12 1.612-.047 1.135-.387 1.368-.506 1.206-.946.93-1.27.716-1.425.34-2.237-.189-1.887-.859-2.073-1.273-1.958-.555-.555z"/><g fill-rule="evenodd"><path d="M58.819 89.557l.093-.078.468-.155h.187q8.327-2.406 16.28.077l-.094-.077 2.994 1.164.187.077q2.432 1.086 5.052 1.94l3.649.853.655-.077.468-.466 2.526.31h.093l.655.078 2.9.466q-.093.233.094.465 1.216 2.173 3.649 3.337l-4.491 1.164q-.28-.854 0-2.018l-.094-.465-.467-.388-.562-.078-7.39 1.32 2.712-.777.655-.31.187-.543-.374-.543-.655-.155q-2.713.232-5.146 1.862l-.374.543.187.543.187.155-.093.388q-7.672 7.294-8.701 15.518l-.187-.388-.374-.388-.655-.465-.562-.155-5.894.31q-.374 0-.561.155l-.281.388-.936 2.949-.093.93.28.389q.375.388 1.03.155l.467-.31.281-.388-.093-.621q.187-1.086.655-2.095l4.865-.31h.093l.094.155q.935 2.405-1.31 4.035v.077l-1.965 1.086.094-.077-4.117.31h-.093q-1.404-.077-2.152-1.086-1.217-1.552-1.03-3.259l.655-3.104.936-1.551.094-.621-.375-.466-.748-.155-.561.388-1.123 1.94-.749 3.491q-.187 2.095 1.31 4.113 1.216 1.707 3.462 1.862l5.24-.466h.186l1.871-1.086-.374.466h-.093q-2.9 2.793-7.11 3.491h-.094l-2.62-.31-3.555-1.397.187-.465-.187-1.164-.187-.698-.094-.078-1.123-1.63q-1.122-1.318-3.648-1.086l-.562.31-.28.544.374.543.655.155q1.403-.077 1.964.466l.094.077.842 1.242v.077l.094.078.093.233.094.543q-3.275-1.862-5.801-4.656-5.146-9.388-.748-19.708v-.388l.187-.155q4.958 3.492 3.742 8.535l-.094.155h-1.122l-.468-.776-.374-.232-.936-.466-.655-.078q-.374 0-.561.31l-.094.622.375.465.748.31.655 1.01.28.31.468.077h2.152l.655-.233q.749-.543.842-1.164 1.497-6.13-4.771-10.242 2.152-3.103 5.426-4.19l.28-.155 1.404-.388q-.28 1.63 1.497 1.707l1.03.078q2.151.233 2.806-1.009l.094-.62-.468-.466h-.749l-.561.388-.842.155h-.187l-.749-.078h-.093q-.655-.077-1.03-.387m14.409 3.724l-1.217-1.086-.093-.078-4.584.155q-1.778.931-2.807 2.328-3.555 4.578 1.497 8.302 3.648 2.794 7.859.078l.187-.078q1.122-1.241.374-2.793l-.842-.776-2.245-1.241-.094-.078-2.433-.854-.748.078-.374.466q-.187.232.093.543l.562.388 1.964.776h.094l2.152 1.241.187.078.093.077h-.093q.28.543-.094 1.009l-5.426-.078q-3.836-2.87-1.123-6.285.749-1.163 2.246-1.862h-.094l2.713-.077.655.543.562.388.654-.078.468-.465-.093-.621m24.138.543l1.684-.233.468-.155.28-.233.188-.465q2.9-.931 5.894.465.187 2.173-.655 3.104-1.03.853-3.368.466l.093.077-.655-.155-.28-.078-.28-.077h-.094v-.078q-2.527-.776-3.743-2.638h.468" fill="#12a001"/><path d="M57.602 88.237l-.842.233h.094l.374-.155.28-.078h.094" fill="#ccc"/><path d="M85.67 97.005l7.391-1.319.562.078.467.388.094.465c-.187.776-.187 1.449 0 2.018 0 0 3.728-1.079 4.178-1.176-1.621-.776-2.643-1.856-3.453-3.304-.125-.155-.156-.31-.094-.466l-2.783-.486-.655-.077h-.093l-2.526-.31-.468.465-.655.077-3.649-.853a51.526 51.526 0 01-5.052-1.94l-.187-.077-2.994-1.164.093.077c-5.301-1.655-10.728-1.68-16.279-.077h-.187l-.468.155-.093.078-.187.077-.562.155-1.403.388-.28.155c-2.184.725-3.993 2.121-5.427 4.19l-.749 1.242-.093.155-.187.155v.388c-2.932 6.88-2.682 13.45.748 19.708a23.303 23.303 0 005.8 4.656v.388l.281.543.655.233.655-.233.094-.078 3.555 1.397 2.62.31h.093c2.807-.465 5.177-1.63 7.11-3.491h.094l.374-.466.188-.155h.093c2.12-1.5 2.776-3.362 1.965-5.587.686-5.483 3.586-10.655 8.7-15.518l.094-.388c.125.104.281.155.468.155l.655-.155 1.497-.776M57.64 87.82l.375-.077 1.029-.388c5.988-1.656 11.828-1.585 17.503.174l3.485 1.01.187.155c1.497.62 2.954 1.213 4.513 1.73h-.093l3.494 1.108.56.31 1.685-.775 1.216.155.842.077.094.078 3.525.819h.094l.842.077 1.31-.155.093-.31.468-.388c2.807-.983 5.613-.75 8.42.698l.28.233.094.31c.312 2.173-.03 3.725-1.029 4.656-1.06 1.034-2.775 1.37-5.145 1.008h-.094l-7.906 2.541-.562-.077-.467-.388c-.375-.621-.596-1.626-.533-2.609l-6.916 1.386-.187.233c-5.364 5.07-8.128 10.098-8.502 15.84-.063 1.24-.653 2.56-1.464 3.75l-.187.31v.078l-1.404 1.551v.078c-2.245 2.12-5.289 3.755-8.532 4.324h-1.123l-2.62-.388c-4.802-1.5-8.99-4.221-12.109-7.739l-.094-.155-.093-.077c-3.68-6.673-3.878-14.029-.76-21.27l.281-.389.094-.388c1.684-3.103 4.222-5.383 7.091-6.417l.187-.078 1.217-.388.842-.233m39.837 6.078s.236.204-.468 0c.81 1.242 1.83 1.912 3.513 2.43v.077h.094l.28.078.281.077.655.155-.093-.077c1.559.258 2.68.148 3.367-.421.56-.621.897-1.564.772-3.013-1.996-.93-3.938-.948-5.871-.328l-.187.466-.281.233-.468.155-1.594.168" fill="#167801"/><path d="M85.67 97.005l-1.497.776-.655.155q-.28 0-.468-.155l-.187-.155-.187-.543.374-.543q2.433-1.63 5.146-1.862l.655.155.374.543-.187.543-.655.31-2.713.776m-11.414 16.682q1.216 3.337-1.965 5.587h-.093l-.188.155-1.87 1.086h-.188l-5.24.466q-2.245-.155-3.46-1.862-1.498-2.018-1.31-4.113l.748-3.491 1.123-1.94.56-.388.75.155.374.466-.094.62-.936 1.552-.654 3.104q-.188 1.707 1.029 3.259.748 1.009 2.152 1.086h.093l4.117-.31-.094.077 1.965-1.086v-.077q2.245-1.63 1.31-4.035l-.094-.155h-.093l-4.865.31q-.468 1.009-.655 2.095l.093.62-.28.389-.468.31q-.655.233-1.03-.155l-.28-.388.093-.931.936-2.949.28-.388q.188-.155.562-.155l5.894-.31.562.155.655.465.374.388.187.388m-16.092 7.992l-.094.078-.655.233-.655-.233-.28-.543v-.388l-.094-.543-.093-.233-.094-.078v-.077l-.842-1.242-.094-.077q-.56-.543-1.964-.466l-.655-.155-.374-.543.28-.543.562-.31q2.526-.233 3.648 1.086l1.123 1.629.094.078.187.698.187 1.164-.187.465m-8.046-25.76l.093-.155.749-1.242q6.268 4.113 4.771 10.242-.093.621-.842 1.164l-.655.233h-2.152l-.467-.078-.281-.31-.655-1.009-.748-.31-.375-.465.094-.621q.187-.31.561-.31l.655.077.936.466.374.232.468.776h1.122l.094-.155q1.216-5.043-3.742-8.535m7.952-6.13l.562-.155.187-.077q.374.31 1.029.387h.093l.749.078h.187l.842-.155.561-.388h.749l.468.465-.094.621q-.655 1.242-2.807 1.009l-1.029-.078q-1.777-.077-1.497-1.707m15.157 3.492l.093.62-.468.466-.654.078-.562-.388-.655-.543-2.713.077h.094q-1.497.699-2.246 1.862-2.713 3.414 1.123 6.285l5.426.078q.375-.466.094-1.009h.093l-.093-.077-.187-.078-2.152-1.241h-.094l-1.964-.776-.562-.388q-.28-.31-.093-.543l.374-.466.748-.078 2.433.854.094.078 2.245 1.241.842.776q.748 1.552-.374 2.793l-.187.078q-4.21 2.716-7.86-.078-5.051-3.724-1.496-8.302 1.029-1.397 2.807-2.328l4.584-.155.093.078 1.217 1.086" fill="#bfd3b8"/></g></svg>