<svg height="182" width="160" xmlns="http://www.w3.org/2000/svg"><g style="clip-rule:evenodd;fill-rule:evenodd;stroke-linejoin:round;stroke-miterlimit:2"><path d="m56.323 85.554.314-.815-3.807-6.035-1.438-4.56 1.373-6.522 4.135-5.647 1.446-2.354 7.328-15.627 1.194-1.258 8.576 17.368 11.82-.173 8.065-16.618 1.081-1.018 8.527 18.03 2.82 1.392 1.983 1.65 2.253 4.108.97 3.683-.133 6.317-3.978 6.408-2.835.964-3.342 2.884L110 95.627l2.089 6.418-4.807 4.96-5.472-.907 3.919 1.321 1.892 2.312 1.9 4.815-.357 5.985-3.313 2.639-1.677.216H61.582l-8.487.512-2.646-.988-2.067-4.224 4.465-5.051-.512-3.703.885-3.95-.976-2.244-.565-6.19 6.837-12.353-2.599-.362 50.1.014" style="fill:#fff;fill-opacity:.99;fill-rule:nonzero" transform="translate(0 -10)"/><path d="m103.73 61.089 2.397-1.113-10.166-21.89-9.745 20.99-9.803.005-9.705-20.953-9.978 21.65 2.37 1.172 7.594-17.034 7.868 17.26 13.612-.212 7.78-17.2zm4.031.09 3.162 3.64 1.79 3.047.873 2.638.172 1.79.047 2.78-.413 2.408s-.59 1.647-.97 2.435c-.293.61-.628 1.199-1.002 1.762-.675 1.016-1.45 1.966-2.233 2.902-.462.55-1.452 1.593-1.452 1.593l-1.718-1.327 2.2-2.23 1.56-2.06 1.155-2.311.593-2.09.214-2.247-.186-2.747-.778-2.7-1.03-1.794-1.372-1.682-2.367-2.512zM56.723 86.386l1.793-1.19-2.507-2.742-1.874-2.97-.74-2.087-.338-1.701-.068-2.186.133-2.572.51-2.214 1.17-2.263 1.29-1.599 1.38-1.689 1.137-1.125-1.636-1.324-1.402 1.533-1.623 1.888-1.103 1.81-1.24 2.65L50.888 71l-.119 1.843-.02 2.022.133 1.423.72 2.528.86 1.942 1.358 2.063s1.015 1.38 1.558 2.04c.438.516.886 1.025 1.344 1.524zm2.527 1.735-2.087-1.589-1.811 1.719-1.57 1.653-1.17 1.534-.948 1.924-.43 1.998-.328 1.478-.16 2.156-.258 2.59.155 1.25.657.926.944-.022-.008-2.384.452-2.595.372-1.96.703-2.01.574-1.58.995-1.547 1.564-1.746zm44.826 20.696 1.653-1.398 2.334 2.257 1.101 1.312.626 1.082.453 1.356.398 1.867.039 1.449-.2 2.146-.468 1.405-.96 1.717-1.264 1.513-1.63 1.46-.557.477-1.427-1.323 1.773-1.514 1.38-1.606.86-1.6.475-1.413.055-1.418-.086-2.107-.507-1.451-1.335-2.015-1.294-1.178zm-53.533-3.812.768 5.77.809 3.488-2.33 1.536-1.68 1.982-.793 1.874-.08 1.994.27 1.126 1.05 1.427 2.062 1.063 3.248.228 8.395-.054.386-2.573-6.117.459-2.518.054-2.827-.456-1.05-.807-.534-1.197.105-1.577.645-1.185 1.224-1.373 1.453-.902 3.624-1.608-.386-1.95-2.068.965-.78-3.043-.283-2.679.084-2.581z" style="fill-opacity:.99;fill-rule:nonzero" transform="translate(0 -10)"/><path d="m102.445 86.143 3.856 3.936 2.172 2.302 2.106 2.435 1.641 2.434.733 1.685.335 2.095-.296 2.183-.857 1.732-1.636 1.51-1.81.858-2.17.561-1.976-.17-2.67-1.137-2.935-2.248-1.695-1.81 1.704-1.774 1.44 2.105 1.326 1.294 1.72.934 1.936.467 1.903-.032 1.794-.809 1.042-.979.934-1.623.233-1.545-.523-1.956-1.094-1.747-2.008-2.41-2.464-2.45-1.966-1.668-1.594-1.355-.824-.772zm-15.439 24.143-2.652 1.169-4.506 1.975-3.375 1.717-1.611 1.446-1.323 2.11-.412 1.677.175 1.803 1.093 1.72 1.629.884 2.425.398 2.369.222 7.056-.023.35-2.683-3.179.289-4.438.21-2.34-.131-1.456-.418-.75-.587-.574-.903-.053-1.16.42-1.453 1.125-1.256 1.3-.904 1.786-.993 1.896-.79 2.359-.949 2.014-.662 2.357-.813z" style="fill-opacity:.99;fill-rule:nonzero" transform="translate(0 -10)"/><path d="m58.819 89.557.093-.078.468-.155h.187c5.551-1.604 10.978-1.578 16.28.077l-.094-.077 2.994 1.164.187.077c1.621.724-3.992 17.639-4.678 23.122l-.187-.388-.374-.388-.655-.465-.562-.155-5.894.31c-.249 0-.436.052-.561.155l-.281.388-.936 2.949-.093.93.28.389c.25.259.593.31 1.03.155l.467-.31.281-.388-.093-.621a8.328 8.328 0 0 1 .655-2.095l4.865-.31h.093l.094.155c.623 1.603.187 2.948-1.31 4.035v.077l-1.965 1.086.094-.077-4.117.31h-.093c-.936-.051-1.653-.413-2.152-1.086-.811-1.035-1.155-2.121-1.03-3.259l.655-3.104.936-1.551.094-.621-.375-.466-.748-.155-.561.388-1.123 1.94-.749 3.491c-.125 1.397.312 2.768 1.31 4.113.811 1.138 1.965 1.759 3.462 1.862l5.24-.466h.186l1.871-1.086-.374.466h-.093c-1.933 1.862-4.303 3.026-7.11 3.491h-.094l-2.62-.31-3.555-1.397.187-.465-.187-1.164-.187-.698-.094-.078-1.123-1.63c-.748-.879-1.964-1.241-3.648-1.086l-.562.31-.28.544.374.543.655.155c.935-.051 1.59.104 1.964.466l.094.077.842 1.242v.077l.094.078.093.233.094.543a23.278 23.278 0 0 1-5.801-4.656c-3.431-6.259-3.68-12.828-.748-19.708v-.388l.187-.155c3.305 2.328 4.553 5.173 3.742 8.535l-.094.155h-1.122l-.468-.776-.374-.232-.936-.466-.655-.078a.613.613 0 0 0-.561.31l-.094.622.375.465.748.31.655 1.01.28.31.468.077h2.152l.655-.233c.499-.362.78-.75.842-1.164.998-4.087-.592-7.501-4.771-10.242 1.435-2.069 3.243-3.465 5.426-4.19l.28-.155 1.404-.388c-.187 1.087.312 1.656 1.497 1.707l1.03.078c1.434.155 2.369-.181 2.806-1.009l.094-.62-.468-.466h-.749l-.561.388-.842.155h-.187l-.749-.078h-.093c-.437-.051-.78-.18-1.03-.387m14.409 3.724-1.217-1.086-.093-.078-4.584.155c-1.185.621-2.121 1.397-2.807 2.328-2.37 3.052-1.871 5.819 1.497 8.302 2.432 1.863 5.052 1.889 7.859.078l.187-.078c.748-.827.873-1.758.374-2.793l-.842-.776-2.245-1.241-.094-.078-2.433-.854-.748.078-.374.466c-.125.155-.094.336.093.543l.562.388 1.964.776h.094l2.152 1.241.187.078.093.077h-.093c.187.362.155.698-.094 1.009l-5.426-.078c-2.557-1.913-2.932-4.008-1.123-6.285.499-.775 1.248-1.396 2.246-1.862h-.094l2.713-.077.655.543.562.388.654-.078.468-.465-.093-.621" style="fill:#12a001" transform="matrix(.12858 .93173 -1.65957 .22902 247.94 -42.016)"/><path d="m57.602 88.237-.842.233h.094l.374-.155.28-.078h.094" style="fill:#ccc" transform="matrix(.12858 .93173 -1.65957 .22902 247.94 -42.016)"/><path d="m78.934 90.565-.187-.077-2.994-1.164.093.077c-5.301-1.655-10.728-1.68-16.279-.077h-.187l-.468.155-.093.078-.187.077-.562.155-1.403.388-.28.155c-2.184.725-3.993 2.121-5.427 4.19l-.749 1.242-.093.155-.187.155v.388c-2.932 6.88-2.682 13.45.748 19.708a23.314 23.314 0 0 0 5.8 4.656v.388l.281.543.655.233.655-.233.094-.078 3.555 1.397 2.62.31h.093c2.807-.465 5.177-1.63 7.11-3.491h.094l.374-.466.188-.155h.093c2.12-1.5 2.776-3.362 1.965-5.587M57.64 87.82l.375-.077 1.029-.388c5.988-1.656 11.828-1.585 17.503.174l3.485 1.01.187.155c1.497.62-1.079 9.903-1.079 9.903-.375-.621-2.451 10.912-2.825 16.654-.063 1.24-.653 2.56-1.464 3.75l-.187.31v.078l-1.404 1.551v.078c-2.245 2.12-5.289 3.755-8.532 4.324h-1.123l-2.62-.388c-4.802-1.5-8.99-4.221-12.109-7.739l-.094-.155-.093-.077c-3.68-6.673-3.878-14.029-.76-21.27l.281-.389.094-.388c1.684-3.103 4.222-5.383 7.091-6.417l.187-.078 1.217-.388.842-.233" style="fill:#167801" transform="matrix(.12858 .93173 -1.65957 .22902 247.94 -42.016)"/><path d="M74.256 113.687c.811 2.225.156 4.087-1.965 5.587h-.093l-.188.155-1.87 1.086h-.188l-5.24.466c-1.497-.103-2.65-.724-3.46-1.862-.999-1.345-1.435-2.716-1.31-4.113l.748-3.491 1.123-1.94.56-.388.75.155.374.466-.094.62-.936 1.552-.654 3.104c-.125 1.138.218 2.224 1.029 3.259.499.673 1.216 1.035 2.152 1.086h.093l4.117-.31-.094.077 1.965-1.086v-.077c1.497-1.087 1.933-2.432 1.31-4.035l-.094-.155h-.093l-4.865.31a8.328 8.328 0 0 0-.655 2.095l.093.62-.28.389-.468.31c-.437.155-.78.104-1.03-.155l-.28-.388.093-.931.936-2.949.28-.388c.125-.103.313-.155.562-.155l5.894-.31.562.155.655.465.374.388.187.388m-16.092 7.992-.094.078-.655.233-.655-.233-.28-.543v-.388l-.094-.543-.093-.233-.094-.078v-.077l-.842-1.242-.094-.077c-.373-.362-1.028-.517-1.964-.466l-.655-.155-.374-.543.28-.543.562-.31c1.684-.155 2.9.207 3.648 1.086l1.123 1.629.094.078.187.698.187 1.164-.187.465m-8.046-25.76.093-.155.749-1.242c4.179 2.742 5.769 6.156 4.771 10.242-.062.414-.343.802-.842 1.164l-.655.233h-2.152l-.467-.078-.281-.31-.655-1.009-.748-.31-.375-.465.094-.621a.613.613 0 0 1 .561-.31l.655.077.936.466.374.232.468.776h1.122l.094-.155c.811-3.362-.437-6.207-3.742-8.535m7.952-6.13.562-.155.187-.077c.249.207.592.336 1.029.387h.093l.749.078h.187l.842-.155.561-.388h.749l.468.465-.094.621c-.437.828-1.372 1.164-2.807 1.009l-1.029-.078c-1.185-.051-1.684-.62-1.497-1.707m15.157 3.492.093.62-.468.466-.654.078-.562-.388-.655-.543-2.713.077h.094c-.998.466-1.747 1.087-2.246 1.862-1.809 2.276-1.434 4.371 1.123 6.285l5.426.078c.25-.311.281-.647.094-1.009h.093l-.093-.077-.187-.078-2.152-1.241h-.094l-1.964-.776-.562-.388c-.187-.207-.218-.388-.093-.543l.374-.466.748-.078 2.433.854.094.078 2.245 1.241.842.776c.499 1.035.374 1.966-.374 2.793l-.187.078c-2.807 1.811-5.427 1.785-7.86-.078-3.367-2.483-3.866-5.25-1.496-8.302.686-.931 1.622-1.707 2.807-2.328l4.584-.155.093.078 1.217 1.086" style="fill:#bfd3b8" transform="matrix(.12858 .93173 -1.65957 .22902 247.94 -42.016)"/><path d="m58.376 64.223-1.802 4.383 6.39 6.799 13.681-2.171-2.991-10.527-14.499.328z" style="fill:#fff" transform="translate(0 -16)"/><path d="m74.575 67.576 1.851-2.094-9.705-20.953-9.979 21.65 2.37 1.171 7.595-17.034zm-17.591-.451 1.636 1.324z" style="fill-rule:nonzero" transform="translate(0 -16)"/><path d="m66.749 50.574 6.092 13.21-6.348 8.397-3.175-2.765-1.075.512-8.294 9.165h-1.127l1.69-7.936 2.765-2.407 9.011-19.968z" style="fill:#fff" transform="translate(0 -16)"/><path d="m59.112 67.35-2.37-1.171zm-2.376 25.437 1.792-1.192-2.506-2.74-1.875-2.97-.74-2.088-.337-1.701L53 79.91l.134-2.571.509-2.214 1.17-2.263 1.29-1.6 1.38-1.688 1.137-1.125-1.636-1.324-1.402 1.532-1.622 1.888-1.104 1.81-1.24 2.65L50.9 77.4l-.118 1.844-.02 2.02.132 1.424.72 2.529.86 1.942 1.358 2.062s1.015 1.38 1.558 2.04c.43.524 1.345 1.525 1.345 1.525zm51.038-25.207 3.162 3.64 1.79 3.046.872 2.638.172 1.791.048 2.78-.413 2.408s-.591 1.647-.97 2.434c-.292.609-.628 1.2-1.002 1.762-.676 1.017-1.45 1.967-2.234 2.902-.461.55-1.452 1.593-1.452 1.593l-1.717-1.326 2.199-2.23 1.56-2.061 1.156-2.311.593-2.09.214-2.247-.187-2.747-.778-2.7-1.03-1.794-1.371-1.681-2.368-2.512z" style="fill-rule:nonzero" transform="translate(0 -16)"/><path d="m93.061 95.686.562.078.467.388.094.465c-.187.776-.187 1.449 0 2.018 0 0 3.728-1.079 4.178-1.176-1.621-.776-2.643-1.856-3.453-3.304-.125-.155-.156-.31-.094-.466m-13.829.842 10.608-3.309.842.077.094.078 3.525.819h.094l.842.077 1.31-.155.093-.31.468-.388c2.807-.983 5.613-.75 8.42.698l.28.233.094.31c.312 2.173-.03 3.725-1.029 4.656-1.06 1.034-2.775 1.37-5.145 1.008h-.094l-7.906 2.541-.562-.077-.467-.388c-.375-.621-.596-1.626-.533-2.609l-8.623 3.647-1.473.504m15.654-8.045s.236.204-.468 0c.81 1.242 1.83 1.912 3.513 2.43v.077h.094l.28.078.281.077.655.155-.093-.077c1.559.258 2.68.148 3.367-.421.56-.621.897-1.564.772-3.013-1.996-.93-3.938-.948-5.871-.328l-.187.466-.281.233-.468.155-1.594.168" style="fill:#167801" transform="matrix(1.19977 .87169 .8162 -1.12341 -95.534 87.058)"/><path d="m75.097 99.457 6.533-3.416 7.167-2.376 2.244-.342.991-.12 2.9.466c-.062.155-.031.31.094.465.811 1.449 2.027 2.561 3.649 3.337l-4.491 1.164c-.187-.569-.187-1.242 0-2.018l-.094-.465-.467-.388-11.808 4.61m15.55-6.55 1.684-.233.468-.155.28-.233.188-.465c1.933-.621 3.898-.466 5.894.465.125 1.449-.094 2.483-.655 3.104-.687.569-1.809.724-3.368.466l.093.077-.655-.155-.28-.078-.28-.077h-.094v-.078c-1.685-.517-2.932-1.397-3.743-2.638h.468" style="fill:#12a001" transform="matrix(1.19977 .87169 .8162 -1.12341 -95.534 87.058)"/></g></svg>