<?xml version="1.0" encoding="UTF-8" standalone="no"?>
<svg
   height="182"
   width="160"
   version="1.1"
   id="svg313"
   sodipodi:docname="front-sitting(2).svg"
   inkscape:version="1.2.2 (b0a8486541, 2022-12-01)"
   xmlns:inkscape="http://www.inkscape.org/namespaces/inkscape"
   xmlns:sodipodi="http://sodipodi.sourceforge.net/DTD/sodipodi-0.dtd"
   xmlns="http://www.w3.org/2000/svg"
   xmlns:svg="http://www.w3.org/2000/svg">
  <defs
     id="defs317" />
  <sodipodi:namedview
     id="namedview315"
     pagecolor="#ffffff"
     bordercolor="#000000"
     borderopacity="0.25"
     inkscape:showpageshadow="2"
     inkscape:pageopacity="0.0"
     inkscape:pagecheckerboard="0"
     inkscape:deskcolor="#d1d1d1"
     showgrid="false"
     inkscape:zoom="4.8241758"
     inkscape:cx="55.553531"
     inkscape:cy="91"
     inkscape:window-width="1888"
     inkscape:window-height="1044"
     inkscape:window-x="32"
     inkscape:window-y="0"
     inkscape:window-maximized="1"
     inkscape:current-layer="svg313" />
  <path
     d="m 56.314,75.468 -0.156,-0.694 -3.337,-6.156 -1.438,-4.56 1.373,-6.521 4.135,-5.647 1.446,-2.354 7.328,-15.628 1.194,-1.257 8.576,17.368 11.82,-0.174 8.065,-16.617 1.081,-1.019 8.528,18.03 2.818,1.393 1.984,1.65 2.254,4.107 0.969,3.684 -0.133,6.316 -3.977,6.408 -2.836,0.965 1.036,2.685 2.262,2.309 3.044,5.208 -0.442,6.091 -4.635,5.865 -0.26,0.665 -1.367,1.082 1.967,2.98 1.899,4.814 -0.379,3.005 -3.291,3.741 -1.677,0.217 H 64.376 l -11.29,-0.385 -2.072,-1.571 1.146,-3.266 3.84,-3.07 -0.994,-8.062 0.707,-1.41 -2.585,-4.703 -0.252,-7.841 4.457,-5.784 -1.425,-2.584 50.1,0.014"
     fill="#ffffff"
     id="path281" />
  <path
     d="m 81.209,81.806 9.21,-0.348 -0.293,10.016 -8.809,0.03 z"
     fill="#a2bf80"
     id="path283" />
  <path
     d="m 58.897,59.246 h -1.749 l 2.64,-4.23 h 2.84 z m 22.953,1.969 -1.138,2.637 -0.48,2.744 -0.032,2.498 0.655,1.998 1.138,0.857 1.58,0.063 c 0,0 0.89,-0.906 0.968,-1.061 0.078,-0.156 0.594,-1.155 0.594,-1.155 0,0 0.078,-2.2 0.078,-2.385 l 0.013,-3.183 H 87.5 l -0.03,2.722 -0.042,2.619 0.19,0.95 0.59,0.871 0.738,0.517 1.076,0.125 1.295,-0.485 0.827,-1.17 0.453,-1.946 c 0,0 -0.077,-1.516 -0.077,-1.685 0,-0.17 -0.281,-1.824 -0.281,-1.824 0,0 -0.732,-2.06 -0.793,-2.212 a 82.04,82.04 0 0 0 -0.785,-1.598 l 2.171,0.003 c 0,0 0.658,1.39 0.765,1.557 0.106,0.168 0.59,1.684 0.59,1.684 l 0.264,1.589 0.14,1.95 -0.139,1.834 -0.514,1.48 -0.81,1.276 -1.092,0.897 -0.99,0.4 -1.389,0.107 -1.214,-0.25 -0.934,-0.672 -0.795,-1.107 -0.466,-0.779 -0.966,1.588 -0.966,0.796 -1.636,0.422 -1.871,-0.201 -1.621,-1.42 c 0,0 -0.907,-1.294 -1,-1.98 -0.092,-0.687 -0.249,-2.203 -0.249,-2.203 l 0.078,-2.118 c 0,0 0.315,-1.797 0.406,-1.934 0.091,-0.137 0.802,-1.8 0.802,-1.8 l 0.669,-1.089 z m 27.976,-0.994 h -1.689 l -3.633,-4.078 h 2.877 z M 103.72,51.003 106.118,49.891 95.952,28 86.207,48.99 76.405,48.995 66.7,28.043 l -9.979,21.65 2.37,1.171 7.594,-17.034 7.868,17.26 13.612,-0.212 7.78,-17.199 z m -20.476,47.766 1.653,-1.398 2.334,2.257 1.1,1.312 0.627,1.082 0.453,1.356 0.398,1.867 0.039,1.449 -0.2,2.146 -0.468,1.405 -0.96,1.717 -1.264,1.513 -1.63,1.46 -0.557,0.477 -1.427,-1.323 1.773,-1.515 1.38,-1.605 0.86,-1.6 0.475,-1.413 0.054,-1.419 -0.085,-2.106 -0.507,-1.451 -1.335,-2.015 -1.294,-1.178 z m 20.824,-0.045 1.652,-1.398 2.334,2.257 1.101,1.312 0.627,1.082 0.452,1.356 0.398,1.867 0.04,1.45 -0.2,2.146 -0.47,1.404 -0.96,1.717 -1.263,1.513 -1.63,1.46 -0.557,0.478 -1.427,-1.324 1.773,-1.514 1.38,-1.605 0.86,-1.6 0.475,-1.414 0.055,-1.418 -0.086,-2.107 -0.507,-1.451 -1.335,-2.015 -1.294,-1.178 z m -44.827,-20.688 -2.087,-1.59 -1.811,1.72 -1.569,1.652 -1.17,1.534 -0.949,1.925 -0.43,1.997 -0.199,1.602 0.067,1.783 0.287,2.089 0.721,1.902 1.245,1.896 1.165,1.416 2.291,2.066 0.472,0.394 1.888,-1.542 -1.692,-1.424 -1.856,-1.886 -1.116,-1.645 -0.65,-1.832 -0.243,-1.7 -0.057,-1.837 0.206,-1.853 0.574,-1.58 0.995,-1.547 1.564,-1.746 z m 48.324,-1.677 -2.1,1.64 2.074,1.629 1.7,1.842 0.951,1.513 0.608,1.565 0.397,2.362 -0.077,2.044 -0.365,1.71 -0.862,1.848 -0.837,1.125 -1.346,1.4 -1.437,1.235 -0.78,0.624 2.076,1.584 1.62,-1.664 1.556,-1.599 1.136,-1.445 0.684,-1.268 0.75,-2.113 0.33,-2.199 -0.044,-2.22 -0.562,-2.548 -0.806,-1.763 -0.94,-1.42 -1.678,-1.887 z"
     id="path285" />
  <path
     d="M 56.714,76.3 58.507,75.11 56,72.369 l -1.874,-2.97 -0.74,-2.088 -0.338,-1.7 -0.068,-2.187 0.133,-2.571 0.51,-2.214 1.17,-2.263 1.29,-1.6 1.38,-1.688 1.137,-1.125 -1.636,-1.324 -1.402,1.532 -1.622,1.888 -1.104,1.81 -1.24,2.65 -0.716,2.396 -0.119,1.844 -0.019,2.021 0.132,1.423 0.72,2.529 0.86,1.942 1.358,2.063 c 0,0 1.015,1.379 1.558,2.04 a 53.58,53.58 0 0 0 1.344,1.524 z m 51.039,-25.207 3.161,3.641 1.79,3.046 0.873,2.638 0.172,1.791 0.048,2.78 -0.413,2.408 c 0,0 -0.592,1.647 -0.97,2.434 -0.293,0.61 -0.628,1.2 -1.003,1.762 -0.675,1.017 -1.45,1.967 -2.233,2.902 -0.462,0.551 -1.452,1.594 -1.452,1.594 l -1.718,-1.327 2.2,-2.23 1.56,-2.061 1.155,-2.31 0.593,-2.09 0.214,-2.248 -0.186,-2.747 -0.778,-2.7 -1.03,-1.794 -1.372,-1.681 -2.367,-2.512 z M 77.627,94.804 h 15.998 v 1.99 H 77.632 Z m -24.347,-0.11 0.768,5.769 0.81,3.489 -2.33,1.535 -1.68,1.983 -0.793,1.874 -0.08,1.993 0.269,1.127 1.05,1.427 2.062,1.062 3.248,0.228 8.395,-0.054 0.386,-2.573 -6.117,0.46 -2.517,0.053 -2.827,-0.455 -1.05,-0.807 -0.535,-1.198 0.105,-1.577 0.646,-1.184 1.223,-1.374 1.453,-0.902 3.624,-1.608 4.084,-1.45 1.374,-0.39 1.262,-0.402 -1.955,-2.384 -0.633,0.744 -3.287,1.31 -3.299,1.588 -0.78,-3.044 -0.282,-2.678 0.083,-2.582 z"
     id="path287" />
  <g
     fill-rule="evenodd"
     id="g299"
     transform="translate(0,-10)">
    <path
       d="m 85.72,83.56 q -1.692,0.247 -3.067,0.989 v -0.083 q 1.27,-0.824 3.068,-0.907"
       fill="#0ccb01"
       id="path289" />
    <path
       d="m 64.885,91.309 v -0.083 l 0.105,-0.494 0.952,-0.495 0.952,-0.66 1.164,-0.33 0.74,-0.246 0.212,-0.66 -0.318,-0.495 -0.846,-0.247 c -0.987,0.055 -1.798,0.33 -2.433,0.824 l -0.211,0.083 -0.529,0.412 -0.106,0.083 -0.317,0.247 h -0.106 c -1.269,0.33 -1.657,0.99 -1.163,1.978 l 0.529,0.413 0.317,0.082 -3.49,2.144 -0.106,0.082 h 0.106 c -1.622,1.1 -2.927,2.886 -3.914,5.359 l -4.76,11.13 c -0.916,2.254 -2.185,3.545 -3.807,3.875 -1.763,0.22 -3.949,-0.522 -6.557,-2.226 l -0.53,-0.412 -0.422,-0.165 -0.318,-0.412 -3.596,-3.628 v -0.082 c -2.115,-2.968 -2.855,-6.486 -2.22,-10.553 0.845,-6.43 3.948,-11.02 9.307,-13.768 5.076,-2.749 9.413,-3.023 13.009,-0.825 l -0.106,-0.082 0.74,0.494 0.424,0.083 0.317,0.33 c 2.89,1.703 6.275,2.775 10.154,3.215 L 82.68,85.274 c -0.423,0.495 -0.906,1.556 -0.906,2.16 0,1.155 0.384,1.388 1.865,2.158 l 0.523,0.32 -7.114,1.397 -3.702,0.577 -0.212,-2.72 -0.211,-0.495 -0.635,-0.248 -0.634,0.083 -6.77,2.803 M 83.817,85.95 v -0.082 l 3.384,-0.742 2.856,0.577 0.212,0.082 0.317,0.083 0.106,0.082 1.163,1.402 v 0.165 c 0,0.604 -0.388,1.126 -1.163,1.566 l -0.635,0.33 -0.74,0.247 -0.846,0.247 0.105,-0.082 -1.375,0.082 c -0.705,0 -1.445,-0.192 -2.22,-0.577 l -0.53,-0.165 -0.423,0.083 -0.105,-0.083 -0.106,-0.082 c -0.846,-0.44 -1.747,-0.936 -1.747,-1.54 0,-0.496 0.76,-0.933 1.324,-1.263 l 0.211,-0.165 0.212,-0.165 m 10.153,1.98 5.288,-0.907 5.288,-1.072 0.212,-0.082 0.634,-0.083 4.654,-0.082 v 0.082 c -0.14,0.165 -0.07,0.412 0.212,0.742 l 0.105,0.165 v 0.412 l -0.105,0.083 c -0.282,1.374 -0.882,2.253 -1.798,2.638 h 0.105 l -0.846,0.165 v -0.083 l -0.846,0.165 h -2.115 l -5.606,-0.165 -0.846,0.33 -0.212,0.248 -0.528,0.989 -0.106,0.247 -0.635,3.215 c -1.48,-2.033 -4.512,-4.754 -6.134,-5.853 1.057,-0.66 3.138,-0.275 3.279,-1.154 m 10.788,-0.577 -0.635,0.412 -0.211,0.577 0.528,0.577 c 0.424,0.22 1.093,0.467 2.01,0.742 l 0.74,-0.082 0.635,-0.413 -0.106,-0.66 -0.529,-0.411 -1.586,-0.577 -0.846,-0.165 m -51.826,-0.577 0.846,0.082 0.635,-0.412 c 0.14,-0.22 0.176,-0.412 0.105,-0.577 L 53.99,85.374 48.384,85.209 c -2.397,0.77 -4.266,2.089 -5.606,3.957 v 0.083 c -1.41,2.143 -0.952,4.04 1.375,5.688 l 4.548,2.144 -0.106,-0.082 3.385,0.33 0.529,-0.083 0.317,-0.247 c 1.41,-1.594 2.186,-3.133 2.327,-4.617 v -0.083 l 0.106,-0.412 -0.106,-0.412 -1.48,-1.484 -1.376,-1.154 -0.634,-0.248 -1.798,-0.165 -0.635,0.165 -1.163,0.742 -0.635,0.742 -0.106,0.413 0.212,0.412 0.529,0.66 0.74,0.33 0.74,-0.166 0.423,-0.495 -0.211,-0.66 -0.106,-0.164 0.106,-0.082 0.317,-0.165 1.058,0.082 0.952,0.825 0.952,0.989 v 0.247 c -0.141,1.1 -0.67,2.226 -1.587,3.38 l -2.01,-0.164 c -1.48,-0.44 -2.785,-1.045 -3.913,-1.814 -1.551,-1.044 -1.833,-2.281 -0.846,-3.71 1.058,-1.54 2.574,-2.638 4.548,-3.298 l 3.702,0.083 m -5.5,14.345 c -2.256,-0.99 -4.372,-0.742 -6.346,0.742 l -0.212,0.247 -0.105,0.33 0.105,1.896 0.318,0.577 0.74,0.248 0.74,-0.248 0.318,-0.577 -0.106,-1.566 3.596,-0.165 h 0.106 l 1.27,0.577 0.105,0.082 1.27,0.742 c -0.353,1.32 -0.988,2.446 -1.905,3.38 l -3.49,1.402 c -2.256,-0.33 -3.772,-1.319 -4.548,-2.968 l -1.798,-5.194 -0.423,-0.495 -0.846,-0.164 -0.635,0.412 -0.211,0.577 1.903,5.441 c 1.129,2.309 3.314,3.655 6.558,4.04 l 0.635,-0.082 4.019,-1.567 0.317,-0.165 c 1.41,-1.319 2.256,-2.94 2.538,-4.864 v -0.33 l -0.317,-0.33 -1.904,-1.236 a 13.204,13.204 0 0 0 -1.586,-0.66 l -0.106,-0.082"
       fill="#12a001"
       id="path291" />
    <path
       d="m 60.337,93.947 h -0.106 l 0.106,-0.082 v 0.082 m 52.037,-6.43 v -0.083 0.083"
       id="path293" />
    <path
       d="m 64.885,91.309 6.71,-3.557 0.635,-0.082 0.634,0.247 0.212,0.495 0.211,2.72 3.702,-0.577 5.669,-0.86 h 0.106 c -1.481,-0.77 -2.332,-1.024 -2.332,-2.178 0,-0.605 0.212,-1.155 0.635,-1.65 L 68.057,86.28 C 64.179,85.84 60.795,84.768 57.904,83.065 l -0.317,-0.33 -0.423,-0.083 -0.74,-0.494 0.105,0.082 c -3.596,-2.198 -7.79,-1.774 -12.867,0.974 -5.359,2.748 -8.4,7.255 -9.246,13.685 -0.635,4.068 -0.098,7.436 2.017,10.404 v 0.083 l 3.596,3.71 0.318,0.412 0.423,0.165 0.529,0.412 c 2.608,1.704 4.772,2.223 6.535,2.003 1.622,-0.33 2.913,-1.398 3.83,-3.652 l 4.76,-11.13 c 0.986,-2.473 2.29,-4.26 3.913,-5.359 v -0.082 l 3.49,-2.144 h 0.529 l 0.529,-0.412 m 20.836,-7.75 1.48,-0.082 3.702,0.742 0.952,0.33 c 0.917,0.494 1.551,1.071 1.904,1.73 l 4.971,-0.824 5.077,-1.071 0.634,-0.165 c 3.103,-1.594 5.818,-1.21 8.145,1.154 l 0.211,0.577 -0.317,0.577 v 0.248 l -0.106,0.742 c -0.494,2.143 -1.551,3.435 -3.173,3.874 h -0.106 l -0.846,0.165 h -0.106 l -0.846,0.165 h -1.269 l -1.798,-0.082 -0.529,-0.165 -3.596,-0.083 -0.212,0.083 -0.317,0.577 -1.269,5.606 -0.317,0.412 -0.635,0.248 -0.635,-0.083 -0.423,-0.412 c -1.833,-3.133 -3.732,-6.04 -5.918,-7.303 h -0.106 l -0.317,0.082 -0.846,0.165 h -0.106 l -1.692,0.083 -2.01,-0.248 -0.952,0.412 -0.106,0.083 -6.832,1.108 -4.865,0.742 h -0.529 l -0.529,-0.33 -0.211,-0.412 -0.212,-2.39 -5.97,3.309 -3.384,2.06 c -1.41,0.935 -2.504,2.474 -3.28,4.618 l -4.47,11.316 c -1.187,3.002 -3.356,4.458 -5.683,4.843 -2.327,0.385 -5.473,-0.259 -8.716,-2.402 l -0.106,-0.083 -0.529,-0.412 -0.211,-0.33 -0.529,-0.247 -3.59,-4.361 c -2.256,-3.298 -2.788,-7.173 -2.154,-11.57 0.988,-6.98 3.94,-12.108 9.793,-15.13 5.993,-3.243 11.295,-3.252 15.667,-0.504 v 0.082 l 0.423,0.248 0.423,0.33 0.423,0.164 c 2.61,1.484 5.676,2.446 9.202,2.886 l 13.115,-0.577 0.846,0.165 0.317,0.247 v 0.083 c 0.917,-0.495 1.94,-0.825 3.068,-0.99 m 8.25,4.37 c -0.141,0.88 -0.63,0.94 -1.688,1.6 1.622,1.1 3.063,3.374 4.543,5.407 l 0.635,-3.215 0.106,-0.247 0.528,-0.99 0.212,-0.247 0.846,-0.33 5.606,0.165 h 2.115 l 0.846,-0.165 v 0.083 l 0.846,-0.165 h -0.105 c 0.916,-0.385 1.516,-1.264 1.798,-2.638 l 0.105,-0.083 v -0.412 l -0.105,-0.165 c -0.282,-0.33 -0.353,-0.577 -0.212,-0.742 v -0.082 l -4.654,0.082 -0.634,0.083 -0.212,0.082 -5.288,1.072 -5.288,0.907 M 83.817,85.95 83.605,86.115 83.394,86.28 c -0.564,0.33 -0.79,0.707 -0.738,1.177 0.07,0.426 0.99,0.672 1.906,1 l 0.529,0.166 c 0.775,0.384 1.516,0.577 2.22,0.577 l 1.376,-0.083 -0.106,0.083 0.846,-0.248 0.74,-0.247 0.635,-0.33 c 0.776,-0.44 1.053,-0.254 1.053,-0.858 v -0.165 l -1.163,-1.402 -0.106,-0.082 -0.317,-0.083 -0.212,-0.082 -2.856,-0.577 -3.384,0.742 v 0.082"
       fill="#167801"
       id="path295" />
    <path
       d="M 63.827,91.721 63.51,91.639 62.98,91.226 q -0.74,-1.483 1.164,-1.978 h 0.106 l 0.317,-0.247 0.106,-0.083 0.529,-0.412 0.211,-0.083 q 0.952,-0.742 2.433,-0.824 l 0.846,0.247 0.318,0.495 -0.212,0.66 -0.74,0.247 -1.164,0.33 -0.952,0.66 -0.952,0.494 -0.105,0.494 v 0.083 l -0.53,0.412 h -0.528 m 40.932,-4.37 0.846,0.166 1.586,0.577 0.53,0.412 0.105,0.66 -0.635,0.412 -0.74,0.082 q -1.375,-0.412 -2.01,-0.742 l -0.528,-0.577 0.211,-0.577 0.635,-0.412 M 52.933,86.775 49.231,86.692 q -2.961,0.99 -4.548,3.298 -1.48,2.143 0.846,3.71 1.692,1.154 3.914,1.814 l 2.01,0.164 q 1.374,-1.73 1.586,-3.38 v -0.247 l -0.952,-0.99 -0.952,-0.824 -1.058,-0.082 -0.317,0.165 -0.106,0.082 0.106,0.165 0.211,0.66 -0.423,0.494 -0.74,0.165 -0.74,-0.33 -0.53,-0.66 -0.21,-0.411 0.105,-0.413 0.635,-0.742 1.163,-0.742 0.635,-0.165 1.798,0.165 0.634,0.248 1.375,1.154 1.481,1.484 0.106,0.412 -0.106,0.412 v 0.083 q -0.212,2.226 -2.327,4.617 l -0.317,0.247 -0.529,0.082 -3.385,-0.33 0.106,0.083 -4.548,-2.144 q -3.49,-2.473 -1.375,-5.688 v -0.083 q 2.01,-2.803 5.606,-3.957 l 5.606,0.165 0.528,0.495 q 0.106,0.247 -0.105,0.577 l -0.635,0.412 -0.846,-0.082 m -5.5,14.345 0.106,0.082 q 0.74,0.248 1.586,0.66 l 1.904,1.236 0.317,0.33 v 0.33 q -0.423,2.886 -2.538,4.864 l -0.317,0.165 -4.02,1.567 -0.634,0.082 q -4.865,-0.577 -6.558,-4.04 l -1.903,-5.441 0.211,-0.577 0.635,-0.412 0.846,0.164 0.423,0.495 1.798,5.194 q 1.163,2.473 4.548,2.968 l 3.49,-1.401 q 1.375,-1.402 1.904,-3.38 l -1.27,-0.743 -0.105,-0.082 -1.27,-0.577 h -0.105 l -3.596,0.165 0.106,1.566 -0.317,0.577 -0.74,0.248 -0.741,-0.248 -0.318,-0.577 -0.105,-1.896 0.105,-0.33 0.212,-0.247 q 2.961,-2.226 6.346,-0.742"
       fill="#bfd3b8"
       id="path297" />
  </g>
  <path
     d="m 81.841,82.49 h 7.74 l -0.33,-1.87 -7.267,0.06 z m 7.554,4.57 H 81.849 L 81.81,85.33 h 7.835 z m -28.028,-3.12 0.914,2.213 4.42,-1.36 2.324,-0.592 2.108,-0.32 1.512,-0.066 1.126,0.078 0.86,0.22 0.814,0.31 0.826,0.74 0.338,0.76 0.308,1.035 0.076,1.045 -0.179,1.08 -0.585,1.135 -0.87,0.881 -1.07,0.816 -0.982,0.43 -1.19,0.297 -1.225,0.077 -3.618,0.153 0.432,2.132 3.75,-0.24 2.006,-0.47 1.73,-0.596 1.303,-0.795 1.39,-1.62 0.717,-1.481 0.43,-1.645 -0.122,-1.445 -0.409,-1.52 -0.562,-0.894 -1.069,-1.133 -1.553,-0.76 -1.386,-0.232 -2.14,-0.02 -3.026,0.398 -2.502,0.42 z"
     id="path301" />
  <path
     d="m 103.264,83.934 -5.53,1.18 -3.141,2.223 -1.267,2.655 0.058,2.286 2.19,1.152 7.942,-4.963 z"
     fill="#ffffff"
     fill-rule="evenodd"
     id="path303" />
  <path
     d="m 94.912,77.527 0.629,4.727 0.663,2.86 -1.909,1.257 -1.377,1.625 -0.65,1.535 -0.065,1.634 0.22,0.923 0.862,1.169 1.688,0.87 2.662,0.188 6.879,-0.045 0.316,-2.108 -5.012,0.376 -2.063,0.044 -2.316,-0.373 -0.86,-0.661 -0.438,-0.981 0.085,-1.292 0.53,-0.971 1.002,-1.125 1.19,-0.74 2.97,-1.317 3.346,-1.188 1.126,-0.32 1.034,-0.33 -1.602,-1.953 -0.518,0.61 -2.694,1.072 -2.703,1.302 -0.639,-2.494 -0.232,-2.194 0.069,-2.116 z M 80.168,93.054 h 1.834 v -0.793 h 7.27 v 1.01 h 1.914 V 80.621 H 89.25 v 9.998 H 81.983 V 80.68 H 80.13 Z"
     id="path305" />
  <g
     id="gikopoipoi_eyes_open"
     style="display:inline"
     transform="translate(-0.022,-16.485)">
    <circle
       cx="68.024002"
       cy="78.851997"
       r="2.118"
       style="display:inline"
       id="circle307" />
    <circle
       cx="101.399"
       cy="78.901001"
       r="2.118"
       style="display:inline"
       id="circle309" />
  </g>
  <path
     d="m 98.737,62.848 c 1.238,0.875 4.142,0.764 5.267,-0.024 M 65.468,62.799 c 1.238,0.875 4.142,0.764 5.267,-0.024"
     style="display:none;stroke-width:2.14607;stroke-dasharray:none"
     id="gikopoipoi_eyes_closed"
     stroke-width="3"
     fill="none"
     stroke="#000000"
     stroke-linecap="round"
     stroke-linejoin="round" />
</svg>
