<?xml version="1.0" encoding="UTF-8" standalone="no"?>
<svg
   height="182"
   width="160"
   version="1.1"
   id="svg253"
   sodipodi:docname="front-sitting-alt.svg"
   inkscape:version="1.2.2 (b0a8486541, 2022-12-01)"
   xmlns:inkscape="http://www.inkscape.org/namespaces/inkscape"
   xmlns:sodipodi="http://sodipodi.sourceforge.net/DTD/sodipodi-0.dtd"
   xmlns="http://www.w3.org/2000/svg"
   xmlns:svg="http://www.w3.org/2000/svg">
  <defs
     id="defs257" />
  <sodipodi:namedview
     id="namedview255"
     pagecolor="#ffffff"
     bordercolor="#000000"
     borderopacity="0.25"
     inkscape:showpageshadow="2"
     inkscape:pageopacity="0.0"
     inkscape:pagecheckerboard="0"
     inkscape:deskcolor="#d1d1d1"
     showgrid="false"
     inkscape:zoom="4.8241758"
     inkscape:cx="31.093394"
     inkscape:cy="91"
     inkscape:window-width="1888"
     inkscape:window-height="1044"
     inkscape:window-x="32"
     inkscape:window-y="0"
     inkscape:window-maximized="1"
     inkscape:current-layer="svg253" />
  <path
     d="m 56.520631,75.468228 -0.156,-0.694 -3.337,-6.156 -1.438,-4.56 1.373,-6.521 4.135,-5.647 1.446,-2.354 7.328,-15.628 1.194,-1.257 8.576,17.368 11.82,-0.174 8.065,-16.617 1.081,-1.019 8.527999,18.03 2.818,1.393 1.984,1.65 2.254,4.107 0.969,3.684 -0.133,6.316 -3.977,6.408 -2.836,0.965 1.036,2.685 2.262,2.309 3.044,5.208 -0.442,6.091 -4.635,5.865 -0.26,0.665 -1.367,1.082 1.967,2.980002 1.899,4.814 -0.379,3.005 -3.291,3.741 -1.677,0.217 H 64.582631 l -11.29,-0.385 -2.072,-1.571 1.146,-3.266 3.84,-3.07 -0.994,-8.062002 0.707,-1.41 -2.585,-4.703 -0.252,-7.841 4.457,-5.784 -1.425,-2.584 50.099999,0.014"
     style="clip-rule:evenodd;fill:#ffffff;fill-rule:nonzero;stroke-linejoin:round;stroke-miterlimit:2"
     id="path217" />
  <path
     d="m 81.415631,81.806228 9.21,-0.348 -0.293,10.016 -8.809,0.03 z"
     style="clip-rule:evenodd;fill:#a2bf80;fill-rule:nonzero;stroke-linejoin:round;stroke-miterlimit:2"
     id="path219" />
  <path
     d="m 59.103631,59.246228 h -1.749 l 2.64,-4.23 h 2.84 z m 22.953,1.969 -1.138,2.637 -0.48,2.744 -0.032,2.498 0.655,1.998 1.138,0.857 1.58,0.063 c 0,0 0.89,-0.906 0.968,-1.061 0.078,-0.156 0.594,-1.155 0.594,-1.155 0,0 0.078,-2.2 0.078,-2.385 l 0.013,-3.183 h 2.274 l -0.03,2.722 -0.042,2.619 0.19,0.95 0.59,0.871 0.738,0.517 1.076,0.125 1.295,-0.485 0.827,-1.17 0.453,-1.946 c 0,0 -0.077,-1.516 -0.077,-1.685 0,-0.17 -0.281,-1.824 -0.281,-1.824 0,0 -0.732,-2.06 -0.793,-2.212 a 87.487,87.487 0 0 0 -0.785,-1.598 l 2.171,0.003 c 0,0 0.658,1.39 0.765,1.557 0.106,0.168 0.59,1.684 0.59,1.684 l 0.264,1.589 0.14,1.95 -0.139,1.834 -0.514,1.48 -0.81,1.276 -1.092,0.897 -0.99,0.4 -1.389,0.107 -1.214,-0.25 -0.934,-0.672 -0.795,-1.107 -0.466,-0.779 -0.966,1.588 -0.966,0.796 -1.636,0.422 -1.871,-0.201 -1.621,-1.42 c 0,0 -0.907,-1.294 -1,-1.98 -0.092,-0.687 -0.249,-2.203 -0.249,-2.203 l 0.078,-2.118 c 0,0 0.315,-1.797 0.406,-1.934 0.091,-0.137 0.802,-1.8 0.802,-1.8 l 0.669,-1.089 z m 27.975999,-0.994 h -1.689 l -3.633,-4.078 h 2.877 z m -6.106,-9.218 2.398,-1.112 -10.165999,-21.891 -9.745,20.99 -9.802,0.005 -9.705,-20.952 -9.979,21.65 2.37,1.171 7.594,-17.034 7.868,17.26 13.612,-0.212 7.78,-17.199 z m -20.475999,47.766 1.653,-1.398 2.334,2.257 1.1,1.312002 0.627,1.082 0.453,1.356 0.398,1.867 0.039,1.449 -0.2,2.146 -0.468,1.405 -0.96,1.717 -1.264,1.513 -1.63,1.46 -0.557,0.477 -1.427,-1.323 1.773,-1.515 1.38,-1.605 0.86,-1.6 0.475,-1.413 0.054,-1.419 -0.085,-2.106 -0.507,-1.451 -1.335,-2.015 -1.294,-1.178002 z m 20.823999,-0.045 1.652,-1.398 2.334,2.257 1.101,1.312002 0.627,1.082 0.452,1.356 0.398,1.867 0.04,1.45 -0.2,2.146 -0.47,1.404 -0.96,1.717 -1.263,1.513 -1.63,1.46 -0.557,0.478 -1.427,-1.324 1.773,-1.514 1.38,-1.605 0.86,-1.6 0.475,-1.414 0.055,-1.418 -0.086,-2.107 -0.507,-1.451 -1.335,-2.015 -1.294,-1.178002 z m -44.826999,-20.688 -2.087,-1.59 -1.811,1.72 -1.569,1.652 -1.17,1.534 -0.949,1.925 -0.43,1.997 -0.199,1.602 0.067,1.783 0.287,2.089 0.721,1.902 1.245,1.896 1.165,1.416 2.291,2.066 0.472,0.394 1.888,-1.542 -1.692,-1.424 -1.856,-1.886 -1.116,-1.645 -0.65,-1.832 -0.243,-1.7 -0.057,-1.837 0.206,-1.853 0.574,-1.58 0.995,-1.547 1.564,-1.746 z m 48.323999,-1.677 -2.1,1.64 2.074,1.629 1.7,1.842 0.951,1.513 0.608,1.565 0.397,2.362 -0.077,2.044 -0.365,1.71 -0.862,1.848 -0.837,1.125 -1.346,1.4 -1.437,1.235 -0.78,0.624 2.076,1.584 1.62,-1.664 1.556,-1.599 1.136,-1.445 0.684,-1.268 0.75,-2.113 0.33,-2.199 -0.044,-2.22 -0.562,-2.548 -0.806,-1.763 -0.94,-1.42 -1.678,-1.887 z"
     style="clip-rule:evenodd;fill-rule:nonzero;stroke-linejoin:round;stroke-miterlimit:2"
     id="path221" />
  <path
     d="m 56.920631,76.300228 1.793,-1.19 -2.507,-2.741 -1.874,-2.97 -0.74,-2.088 -0.338,-1.7 -0.068,-2.187 0.133,-2.571 0.51,-2.214 1.17,-2.263 1.29,-1.6 1.38,-1.688 1.137,-1.125 -1.636,-1.324 -1.402,1.532 -1.622,1.888 -1.104,1.81 -1.24,2.65 -0.716,2.396 -0.119,1.844 -0.019,2.021 0.132,1.423 0.72,2.529 0.86,1.942 1.358,2.063 c 0,0 1.015,1.379 1.558,2.04 0.438,0.516 0.886,1.025 1.344,1.524 z m 51.038999,-25.207 3.161,3.641 1.79,3.046 0.873,2.638 0.172,1.791 0.048,2.78 -0.413,2.408 c 0,0 -0.592,1.647 -0.97,2.434 -0.293,0.61 -0.628,1.2 -1.003,1.762 -0.675,1.017 -1.45,1.967 -2.233,2.902 -0.462,0.551 -1.452,1.594 -1.452,1.594 l -1.718,-1.327 2.2,-2.23 1.56,-2.061 1.155,-2.31 0.593,-2.09 0.214,-2.248 -0.186,-2.747 -0.778,-2.7 -1.03,-1.794 -1.372,-1.681 -2.367,-2.512 z m -30.125999,43.711 h 15.998 v 1.99 h -15.993 z m -24.347,-0.11 0.768,5.769002 0.81,3.489 -2.33,1.535 -1.68,1.983 -0.793,1.874 -0.08,1.993 0.269,1.127 1.05,1.427 2.062,1.062 3.248,0.228 8.395,-0.054 0.386,-2.573 -6.117,0.46 -2.517,0.053 -2.827,-0.455 -1.05,-0.807 -0.535,-1.198 0.105,-1.577 0.646,-1.184 1.223,-1.374 1.453,-0.902 3.624,-1.608 4.084,-1.45 1.374,-0.39 1.262,-0.402 -1.955,-2.384002 -0.633,0.744002 -3.287,1.31 -3.299,1.588 -0.78,-3.044002 -0.282,-2.678 0.083,-2.582 z"
     style="clip-rule:evenodd;fill-rule:nonzero;stroke-linejoin:round;stroke-miterlimit:2"
     id="path223" />
  <path
     d="m 54.809631,33.017228 -0.147,0.056 -0.351,0.371 -0.04,0.172 c -3.781,4.492 -4.874,9.478 -3.281,14.957 l -0.106,-0.115 1.274,3.18 0.087,0.2 a 86.189,48.39 12.857 0 1 2.111,5.355 l 0.63,3.664 -0.263,0.572 -0.86,0.256 -0.022,2.432 -0.02,0.085 -0.009,0.63 0.154,2.833 c 0.266,0 0.513,0.087 0.74,0.26 2.197,1.283 3.759,2.813 4.687,4.59 l 2.84,-3.685 c -0.89,-0.384 -1.989,-0.634 -3.295,-0.752 l -0.74,-0.26 -0.536,-0.573 -0.01,-0.544 3.703,-6.285 -1.837,2.198 -0.643,0.485 -0.926,-0.031 -0.809,-0.546 -0.116,-0.658 c 0.632,-1.601 2.004,-2.943 4.118,-4.025 l 0.966,-0.14 0.847,0.374 0.214,0.229 0.654,0.06 c 9.013,-2.878 18.067,-3.61 27.166,-2.194 l -0.595,-0.316 -0.555,-0.488 -0.622,-0.774 -0.136,-0.573 1.74,-5.29 c 0.052,-0.228 0.176,-0.38 0.37,-0.456 l 0.693,-0.113 5.013,0.241 1.538,0.262 0.576999,0.401 c 0.37,0.326 0.382,0.66 0.037,1.003 l -0.603999,0.312 -0.692,0.113 -0.995,-0.317 a 13.952,7.833 12.857 0 0 -3.559,-0.18 l -1.524,4.346 -0.02,0.085 0.234,0.144 c 2.487,1.169 4.775,1.27 6.864,0.303 l 0.126,0.029 2.184999,-1.397 -0.146,0.057 1.368,-3.66 0.02,-0.085 c 0.113,-0.877 -0.329,-1.67 -1.323,-2.378 a 11.595,11.595 0 0 0 -5.107999,-2.16 l -5.207,-0.556 -2.729,0.28 -1.034,-0.145 -0.682,-0.518 -0.097,-0.743 0.751,-0.37 3.404,-0.307 5.859,0.615 c 2.307,0.406 4.454999,1.318 6.442999,2.734 1.689,1.168 2.462,2.458 2.317,3.869 l -1.858,4.631 -0.04,0.17 -2.164,1.312 0.839,-0.17 0.02,-0.085 c 3.445,-1.078 5.842,-2.818 7.19,-5.218 l 0.02,-0.086 0.041,-2.518 -1.538,-3.781 -0.798,-0.002 -1.862,-0.605 -1.101,-0.432 -0.108,-0.115 -2.427,-1.638 c -1.28,-1.013 -1.616,-2.263 -1.01,-3.75 l 0.624,-0.4 0.947,-0.053 0.808,0.545 0.116,0.658 c -0.279,0.839 -0.162,1.497 0.35,1.975 l 0.107,0.115 1.852,1.235 0.126,0.029 0.107,0.115 0.362,0.172 0.867,0.289 a 38.997,21.894 12.857 0 0 -6.39,-7.055 c -9.504999,-5.48 -20.181999,-8.157 -32.032999,-8.033 l -0.634,-0.145 -0.292,0.114 c 3.11,3.898 7.496,6.103 13.157,6.613 l 0.273,-0.028 0.234,-1.03 -1.169,-0.718 -0.3,-0.43 -0.566,-1.031 0.01,-0.63 a 1.027,0.577 12.857 0 1 0.624,-0.399 l 1.035,0.146 0.681,0.517 0.35,0.802 1.512,0.977 0.448,0.372 0.028,0.458 -0.45,1.973 -0.518,0.514 c -0.696,0.323 -1.388,0.436 -2.078,0.338 -6.884,-0.608 -12.127,-3.339 -15.73,-8.193 -3.679,0.545 -6.337,1.682 -7.978,3.414 l -0.312,0.199 -0.928,1.142 c 1.815,0.234 2.64,0.904 2.475,2.01 l -0.088,0.973 c -0.047,1.373 -0.792,2.105 -2.235,2.197 l -1.033,-0.145 -0.663,-0.603 0.157,-0.687 0.751,-0.37 0.43,-0.714 0.039,-0.171 0.029,-0.716 0.02,-0.085 a 1.5,1.5 0 0 0 -0.417,-1.09 m 3.067,14.602 -1.52,-1.52 -0.107,-0.115 1.212,-4.146 c 1.262,-0.855 2.726,-1.424 4.39,-1.706 5.48,-1.036 9.896,0.454 13.246,4.468 2.534,2.924 2.028,5.336 -1.517,7.235 l -0.167,0.143 c -1.507,0.377 -3.054,0.145 -4.64,-0.699 l -1.091,-1.061 -1.557,-2.521 -0.108,-0.116 -0.885,-2.549 0.284,-0.657 0.839,-0.169 c 0.28,-0.057 0.568,0.04 0.867,0.288 l 0.516,0.66 0.857,2.09 -0.02,0.086 1.577,2.436 0.088,0.2 0.106,0.115 0.02,-0.086 c 0.552,0.307 1.107,0.403 1.667,0.29 l 1.009,-5.004 c -2.59,-3.058 -5.933,-4.183 -10.03,-3.373 -1.37,0.169 -2.542,0.624 -3.512,1.365 l 0.02,-0.086 -0.694,2.46 0.75,0.802 0.516,0.66 -0.264,0.57 -0.858,0.257 -0.994,-0.317 m -4.167,22.336 -0.733,1.458 -0.35,0.371 -0.44,0.17 -0.799,-0.001 c -1.419,1.541 3.601,6.418 4.733,6.135 1.073,-0.418 1.561,-1.39 1.466,-2.915 l 0.106,0.114 -0.116,-0.659 -0.069,-0.285 -0.067,-0.286 0.02,-0.086 -0.128,-0.03 c -0.491,-1.737 -1.668,-3.208 -3.525,-4.415 l -0.098,0.43"
     style="clip-rule:evenodd;fill:#12a001;fill-rule:evenodd;stroke-width:1.25528;stroke-linejoin:round;stroke-miterlimit:2"
     id="path225" />
  <path
     d="m 52.908631,31.409228 0.556,-0.685 -0.02,0.086 -0.33,0.285 -0.187,0.228 -0.02,0.086"
     style="clip-rule:evenodd;fill:#cccccc;fill-rule:evenodd;stroke-width:1.25528;stroke-linejoin:round;stroke-miterlimit:2"
     id="path227" />
  <path
     d="m 61.354631,60.415228 -3.702,6.286 0.01,0.544 0.536,0.573 0.74,0.26 c 1.306,0.118 2.406,0.368 3.296,0.752 0,0 -2.543,3.016 -2.795,3.393 -0.928,-1.776 -2.479,-3.116 -4.674,-4.398 a 1.209,1.209 0 0 0 -0.741,-0.26 l -0.212,-2.733 0.012,-0.63 0.019,-0.085 0.022,-2.432 0.858,-0.256 0.263,-0.572 -0.63,-3.664 a 86.311,48.458 12.857 0 0 -2.111,-5.355 l -0.087,-0.2 -1.274,-3.18 0.106,0.114 c -1.593,-5.478 -0.498,-10.464 3.282,-14.956 l 0.039,-0.172 0.35,-0.371 0.148,-0.056 0.165,-0.143 0.37,-0.458 0.928,-1.141 0.312,-0.2 c 1.64,-1.732 4.3,-2.87 7.979,-3.414 l 2.185,-0.224 0.273,-0.027 0.292,-0.114 0.634,0.145 c 11.85,-0.124 22.529,2.554 32.031999,8.033 a 39.058,21.928 12.857 0 1 6.39,7.054 l 0.635,0.144 0.828,0.46 0.243,0.688 -0.518,0.514 -0.147,0.057 1.538,3.78 -0.042,2.519 -0.02,0.085 c -1.346,2.4 -3.745,4.14 -7.19,5.218 l -0.02,0.086 -0.839,0.17 -0.292,0.114 -0.02,0.086 c -2.892999,1.384 -6.071999,1.292 -9.535999,-0.281 -9.099,-1.415 -18.153,-0.684 -27.166,2.192 l -0.654,-0.058 a 1.183,0.664 12.857 0 1 0.156,0.487 l -0.39,0.543 -1.581,1.083 m -9.136,-29.127 -0.204,0.315 -0.849,0.8 c -3.958,4.873 -5.064,10.254 -3.38,16.114 l 0.921,3.572 0.214,0.23 c 0.7,1.603 1.363,3.16 1.881,4.783 l 0.02,-0.086 1.078,3.617 0.39,0.63 -1.62,1.256 v 1.173 l -0.051,0.8 0.108,0.116 0.6,3.537 -0.02,0.086 -0.05,0.801 c 0,0 4.491,11.286 6.22,10.717 1.912,-0.587 2.82,-2.034 2.724,-4.342 l 0.02,-0.087 5.805,-6.302 -0.008,-0.544 -0.536,-0.573 c -0.936,-0.575 -2.531,-1.153 -4.15,-1.461 l 3.711,-5.825 0.42,-0.085 c 9.403,-3.029 18.194,-3.689 27.65,-1.891 2.04,0.404 4.318,0.355 6.431999,0.055 l 0.545,-0.056 0.128,0.03 2.827,-0.71 0.127,0.03 c 3.933,-1.27 7.24,-3.45 8.848,-6.212 l 0.235,-1.03 -0.085,-2.547 c -1.445,-4.963 -5.012,-9.818 -10.106,-13.99 l -0.233,-0.143 -0.106,-0.114 c -10.129999,-5.862 -22.101999,-8.786 -34.580999,-8.626 l -0.695,0.112 -0.653,-0.058 c -5.42,0.387 -9.676,1.865 -11.965,4.11 l -0.167,0.142 -0.888,0.972 -0.557,0.685 m 1.59,38.796 c 0,0 0.283,0.292 0.097,-0.43 1.86,1.206 2.74,2.391 3.234,4.128 l 0.126,0.028 -0.02,0.087 0.069,0.285 0.067,0.287 0.116,0.658 -0.106,-0.114 c 0.095,1.526 -0.32,2.513 -1.393,2.93 -1.131,0.283 -5.806,-4.379 -4.39,-5.92 l 0.801,0.002 0.44,-0.171 0.35,-0.371 0.609,-1.4"
     style="clip-rule:evenodd;fill:#167801;fill-rule:evenodd;stroke-width:1.25528;stroke-linejoin:round;stroke-miterlimit:2"
     id="path229" />
  <path
     d="m 61.354631,60.415228 1.58,-1.083 0.39,-0.543 a 1.193,0.67 12.857 0 0 -0.155,-0.487 l -0.214,-0.23 -0.847,-0.373 -0.966,0.14 c -2.114,1.082 -3.486,2.424 -4.118,4.025 l 0.116,0.658 0.809,0.546 0.926,0.03 0.643,-0.484 1.836,-2.199 m 29.635,-4.247 c 3.464,1.573 6.643,1.666 9.536999,0.28 l 0.019,-0.085 0.293,-0.114 2.165,-1.31 0.039,-0.173 1.858,-4.63 c 0.145,-1.412 -0.628,-2.7 -2.317,-3.868 -1.988,-1.417 -4.135999,-2.328 -6.443999,-2.734 l -5.858,-0.616 -3.404,0.307 -0.75,0.369 0.096,0.745 0.682,0.517 1.034,0.144 2.73,-0.28 5.207,0.557 a 11.594,11.594 0 0 1 5.107999,2.159 c 0.994,0.708 1.436,1.5 1.323,2.378 l -0.02,0.085 -1.368,3.66 0.146,-0.057 -2.184999,1.397 -0.126,-0.03 c -2.089,0.968 -4.377,0.867 -6.864,-0.302 l -0.234,-0.144 0.02,-0.085 1.524,-4.346 a 13.952,7.833 12.857 0 1 3.559,0.18 l 0.993,0.317 0.694,-0.112 0.603999,-0.313 c 0.345,-0.343 0.333,-0.677 -0.037,-1.003 l -0.574999,-0.401 -1.54,-0.262 -5.013,-0.24 -0.692,0.111 c -0.195,0.076 -0.319,0.23 -0.371,0.458 l -1.74,5.289 0.136,0.573 0.622,0.774 0.555,0.488 0.595,0.316 m 16.420999,-11.777 0.147,-0.057 0.518,-0.514 -0.243,-0.687 -0.829,-0.46 -0.633,-0.144 -0.868,-0.289 -0.36,-0.172 -0.108,-0.115 -0.126,-0.029 -1.853,-1.235 -0.106,-0.115 c -0.513,-0.477 -0.629,-1.135 -0.35,-1.975 l -0.116,-0.658 -0.808,-0.545 -0.946,0.054 -0.624,0.4 c -0.605,1.486 -0.269,2.736 1.01,3.75 l 2.426,1.637 0.108,0.115 1.1,0.432 1.863,0.605 0.798,0.002 m -40.390999,-16.98 -0.272,0.027 -2.185,0.224 c 3.604,4.854 8.847,7.585 15.73,8.193 0.689,0.098 1.381,-0.015 2.077,-0.338 l 0.517,-0.514 0.45,-1.973 -0.029,-0.457 -0.447,-0.374 -1.511,-0.976 -0.35,-0.802 -0.68,-0.517 -1.035,-0.145 a 1.027,0.577 12.857 0 0 -0.624,0.399 l -0.01,0.629 0.564,1.032 0.3,0.43 1.17,0.718 -0.234,1.029 -0.273,0.028 c -5.661,-0.51 -10.047,-2.715 -13.157,-6.613 m -11.677,5.006 -0.37,0.458 -0.165,0.143 c 0.286,0.305 0.425,0.668 0.416,1.088 l -0.019,0.085 -0.03,0.716 -0.039,0.171 -0.429,0.715 -0.751,0.37 -0.157,0.686 0.662,0.603 1.034,0.145 c 1.443,-0.092 2.188,-0.824 2.235,-2.198 l 0.088,-0.972 c 0.165,-1.106 -0.66,-1.776 -2.475,-2.01 m 2.532,15.2 0.993,0.317 0.859,-0.255 0.264,-0.57 -0.516,-0.66 -0.75,-0.804 0.694,-2.459 -0.02,0.086 c 0.97,-0.741 2.141,-1.196 3.511,-1.365 4.096,-0.81 7.44,0.314 10.03,3.373 l -1.008,5.004 c -0.56,0.114 -1.115,0.017 -1.667,-0.29 l -0.02,0.086 -0.106,-0.114 -0.088,-0.2 -1.577,-2.437 0.02,-0.086 -0.857,-2.09 -0.516,-0.66 c -0.299,-0.249 -0.588,-0.345 -0.867,-0.288 l -0.84,0.17 -0.283,0.656 0.885,2.55 0.108,0.115 1.557,2.521 1.091,1.061 c 1.586,0.844 3.133,1.076 4.64,0.699 l 0.167,-0.143 c 3.545,-1.899 4.051,-4.31 1.517,-7.236 -3.35,-4.013 -7.765,-5.503 -13.246,-4.467 -1.664,0.282 -3.128,0.851 -4.39,1.706 l -1.212,4.146 0.107,0.114 1.52,1.52"
     style="clip-rule:evenodd;fill:#bfd3b8;fill-rule:evenodd;stroke-width:1.25528;stroke-linejoin:round;stroke-miterlimit:2"
     id="path231" />
  <path
     d="m 59.193631,50.200228 -1.402,2.355 -4.206,6.046 -1.132,6.123 1.393,4.559 3.235,6.156 0.151,0.694 -0.528,1.5 -0.867,2.974 3.49,15.543 -0.066,2.416 4.251,-1.359 15.527,-40.149 -11.585,-23.743 -1.158,1.258 z"
     style="clip-rule:evenodd;fill:#ffffff;fill-rule:nonzero;stroke-width:0.984535;stroke-linejoin:round;stroke-miterlimit:2"
     id="path233" />
  <path
     d="m 56.942631,76.786228 1.792,-1.191 -2.506,-2.741 -1.875,-2.97 -0.74,-2.088 -0.337,-1.7 -0.07,-2.188 0.134,-2.571 0.509,-2.214 1.17,-2.263 1.29,-1.6 1.38,-1.688 1.137,-1.125 -1.636,-1.324 -1.402,1.532 -1.622,1.888 -1.104,1.81 -1.24,2.65 -0.716,2.397 -0.118,1.844 -0.02,2.021 0.132,1.423 0.72,2.529 0.86,1.942 1.358,2.063 c 0,0 1.015,1.379 1.558,2.04 0.43,0.524 1.345,1.524 1.345,1.524 z m 17.839,-25.211 1.851,-2.094 -9.705,-20.953 -9.979,21.65 2.37,1.171 7.595,-17.034 z"
     style="clip-rule:evenodd;fill-rule:nonzero;stroke-linejoin:round;stroke-miterlimit:2"
     id="path235" />
  <g
     id="gikopoipoi_eyes_open"
     style="display:inline"
     transform="translate(0.18463182,-16.484772)">
    <circle
       cx="68.024002"
       cy="78.851997"
       r="2.118"
       style="display:inline"
       id="circle237" />
    <circle
       cx="101.399"
       cy="78.901001"
       r="2.118"
       style="display:inline"
       id="circle239" />
  </g>
  <path
     d="m 98.94404,62.848228 c 1.238,0.875 4.142,0.764 5.267,-0.024 m -38.536005,-0.025 c 1.238,0.875 4.142,0.764 5.267,-0.024"
     style="display:none;stroke-width:2.14607;stroke-dasharray:none"
     id="gikopoipoi_eyes_closed"
     stroke-width="3"
     fill="none"
     stroke="#000000"
     stroke-linecap="round"
     stroke-linejoin="round" />
  <path
     d="m 66.689631,65.483228 -0.77,0.335 -0.871,-0.107 -0.451,-0.483 c -0.315,-1.067 -0.794,-1.87 -1.438,-2.406 0,0 -3.977,4.122 -4.48,4.58 2.615,-0.308 4.686,0.202 6.748,1.312 0.27,0.09 0.42,0.251 0.452,0.484 m 17.005,-11.522 -11.148,12.013 -1.126,0.549 -0.176,-0.022 -5.07,1.705 -0.12,0.072 -1.127,0.548 -1.557,1.181 0.102,0.44 -0.32,0.82 c -2.873,3.306 -6.611,5.163 -11.216,5.572 l -0.522,-0.065 -0.34,-0.298 c -1.946,-2.353 -2.616,-4.463 -2.007,-6.333 0.613,-2.039 2.557,-3.744 5.832,-5.115 l 0.12,-0.072 8.255,-9.042 0.77,-0.336 0.871,0.108 c 0.92,0.455 1.917,1.484 2.537,2.704 l 8.38,-10.906 1.517,-1.721 m -14.2,21.497 c 0,0 -0.445,-0.064 0.596,-0.356 -1.915,-0.865 -3.691,-0.888 -6.203,-0.225 l -0.054,-0.092 -0.12,0.072 -0.412,0.12 -0.413,0.122 -0.944,0.313 0.173,0.021 c -2.168,0.878 -3.517,1.862 -3.986,3.063 -0.27,1.166 -0.028,2.547 1.163,4.179 3.203,-0.41 5.688,-1.865 7.708,-4.075 l -0.094,-0.697 0.192,-0.492 0.485,-0.54 1.91,-1.413"
     style="clip-rule:evenodd;fill:#167801;fill-rule:evenodd;stroke-width:1.43503;stroke-linejoin:round;stroke-miterlimit:2"
     id="path243" />
  <path
     d="m 86.873631,47.324228 -5.884,9.042 -7.432,8.283 -2.613,2.115 -1.176,0.897 -4.024,1.65 c -0.031,-0.232 -0.181,-0.393 -0.45,-0.483 -2.065,-1.11 -4.405,-1.51 -7.023,-1.202 l 4.888,-4.804 c 0.644,0.536 1.123,1.339 1.438,2.406 l 0.45,0.483 0.871,0.107 11.75,-14.477 m -15.132,19.636 -1.978,1.558 -0.485,0.541 -0.19,0.491 0.091,0.697 c -2.018,2.21 -4.63,3.52 -7.834,3.93 -1.192,-1.633 -1.65,-3.032 -1.377,-4.2 0.469,-1.2 1.787,-2.238 3.955,-3.117 l -0.173,-0.02 0.945,-0.314 0.412,-0.12 0.41,-0.121 0.12,-0.072 0.056,0.093 c 2.513,-0.665 4.728,-0.565 6.644,0.298 l -0.596,0.356"
     style="clip-rule:evenodd;fill:#12a001;fill-rule:evenodd;stroke-width:1.43503;stroke-linejoin:round;stroke-miterlimit:2"
     id="path245" />
  <path
     d="m 82.047631,82.490228 h 7.74 l -0.33,-1.87 -7.267,0.06 z m 7.554,4.57 h -7.546 l -0.039,-1.73 h 7.835 z m -28.028,-3.12 0.914,2.213 4.42,-1.36 2.324,-0.592 2.108,-0.32 1.512,-0.066 1.126,0.078 0.86,0.22 0.814,0.31 0.826,0.74 0.338,0.76 0.308,1.035 0.076,1.045 -0.179,1.08 -0.585,1.135 -0.87,0.881 -1.07,0.816 -0.982,0.43 -1.19,0.297 -1.225,0.077 -3.618,0.153 0.432,2.132 3.75,-0.24 2.006,-0.47 1.73,-0.596 1.303,-0.795 1.39,-1.62 0.717,-1.481 0.43,-1.645 -0.122,-1.445 -0.409,-1.52 -0.562,-0.894 -1.069,-1.133 -1.553,-0.76 -1.386,-0.232 -2.14,-0.02 -3.026,0.398 -2.502,0.42 z"
     style="clip-rule:evenodd;fill-rule:nonzero;stroke-linejoin:round;stroke-miterlimit:2"
     id="path247" />
  <path
     d="m 103.47063,83.934228 -5.529999,1.18 -3.141,2.223 -1.267,2.655 0.058,2.286 2.19,1.152 7.941999,-4.963 z"
     style="clip-rule:evenodd;fill:#ffffff;fill-rule:evenodd;stroke-linejoin:round;stroke-miterlimit:2"
     id="path249" />
  <path
     d="m 95.118631,77.527228 0.629,4.727 0.663,2.86 -1.909,1.257 -1.377,1.625 -0.65,1.535 -0.065,1.634 0.22,0.923 0.862,1.169 1.688,0.87 2.662,0.188 6.878999,-0.045 0.316,-2.108 -5.012,0.376 -2.062999,0.044 -2.316,-0.373 -0.86,-0.661 -0.438,-0.981 0.085,-1.292 0.53,-0.971 1.002,-1.125 1.19,-0.74 2.969999,-1.317 3.346,-1.188 1.126,-0.32 1.034,-0.33 -1.602,-1.953 -0.518,0.61 -2.694,1.072 -2.702999,1.302 -0.639,-2.494 -0.232,-2.194 0.069,-2.116 z m -14.744,15.527 h 1.834 v -0.793 h 7.27 v 1.01 h 1.914 v -12.65 h -1.936 v 9.998 h -7.267 v -9.939 h -1.853 z"
     style="clip-rule:evenodd;fill-rule:nonzero;stroke-linejoin:round;stroke-miterlimit:2"
     id="path251" />
</svg>
