<svg height="182" width="160" xmlns="http://www.w3.org/2000/svg"><path d="m60.521 85.468-.156-.694-3.337-6.156-1.438-4.56 1.373-6.521 4.135-5.647 1.446-2.354 7.328-15.628 1.194-1.257 8.576 17.368 11.82-.174 8.065-16.617 1.081-1.019 8.528 18.03 2.818 1.393 1.984 1.65 2.254 4.107.969 3.684-.133 6.316-3.977 6.408-2.836.965 1.036 2.685 2.262 2.309 3.044 5.208-.442 6.091-4.635 5.865-.26.665-1.367 1.082 1.967 2.98 1.899 4.814-.379 3.005-3.291 3.741-1.677.217H68.583l-11.29-.385-2.072-1.571 1.146-3.266 3.84-3.07-.994-8.062.707-1.41-2.585-4.703-.252-7.841 4.457-5.784-1.425-2.584 50.1.014" style="clip-rule:evenodd;fill:#fff;fill-rule:nonzero;stroke-linejoin:round;stroke-miterlimit:2"/><path d="m85.416 91.806 9.21-.348-.293 10.016-8.809.03z" style="clip-rule:evenodd;fill:#a2bf80;fill-rule:nonzero;stroke-linejoin:round;stroke-miterlimit:2"/><path d="M63.104 69.246h-1.749l2.64-4.23h2.84zm22.953 1.969-1.138 2.637-.48 2.744-.032 2.498.655 1.998 1.138.857 1.58.063s.89-.906.968-1.061c.078-.156.594-1.155.594-1.155s.078-2.2.078-2.385l.013-3.183h2.274l-.03 2.722-.042 2.619.19.95.59.871.738.517 1.076.125 1.295-.485.827-1.17.453-1.946s-.077-1.516-.077-1.685c0-.17-.281-1.824-.281-1.824s-.732-2.06-.793-2.212a87.487 87.487 0 0 0-.785-1.598l2.171.003s.658 1.39.765 1.557c.106.168.59 1.684.59 1.684l.264 1.589.14 1.95-.139 1.834-.514 1.48-.81 1.276-1.092.897-.99.4-1.389.107-1.214-.25-.934-.672-.795-1.107-.466-.779-.966 1.588-.966.796-1.636.422-1.871-.201-1.621-1.42s-.907-1.294-1-1.98c-.092-.687-.249-2.203-.249-2.203l.078-2.118s.315-1.797.406-1.934c.091-.137.802-1.8.802-1.8l.669-1.089zm27.976-.994h-1.689l-3.633-4.078h2.877zm-6.106-9.218 2.398-1.112L100.159 38l-9.745 20.99-9.802.005-9.705-20.952-9.979 21.65 2.37 1.171 7.594-17.034 7.868 17.26 13.612-.212 7.78-17.199zm-20.476 47.766 1.653-1.398 2.334 2.257 1.1 1.312.627 1.082.453 1.356.398 1.867.039 1.449-.2 2.146-.468 1.405-.96 1.717-1.264 1.513-1.63 1.46-.557.477-1.427-1.323 1.773-1.515 1.38-1.605.86-1.6.475-1.413.054-1.419-.085-2.106-.507-1.451-1.335-2.015-1.294-1.178zm20.824-.045 1.652-1.398 2.334 2.257 1.101 1.312.627 1.082.452 1.356.398 1.867.04 1.45-.2 2.146-.47 1.404-.96 1.717-1.263 1.513-1.63 1.46-.557.478-1.427-1.324 1.773-1.514 1.38-1.605.86-1.6.475-1.414.055-1.418-.086-2.107-.507-1.451-1.335-2.015-1.294-1.178zM63.448 88.036l-2.087-1.59-1.811 1.72-1.569 1.652-1.17 1.534-.949 1.925-.43 1.997-.199 1.602.067 1.783.287 2.089.721 1.902 1.245 1.896 1.165 1.416 2.291 2.066.472.394 1.888-1.542-1.692-1.424-1.856-1.886-1.116-1.645-.65-1.832-.243-1.7-.057-1.837.206-1.853.574-1.58.995-1.547 1.564-1.746zm48.324-1.677-2.1 1.64 2.074 1.629 1.7 1.842.951 1.513.608 1.565.397 2.362-.077 2.044-.365 1.71-.862 1.848-.837 1.125-1.346 1.4-1.437 1.235-.78.624 2.076 1.584 1.62-1.664 1.556-1.599 1.136-1.445.684-1.268.75-2.113.33-2.199-.044-2.22-.562-2.548-.806-1.763-.94-1.42-1.678-1.887z" style="clip-rule:evenodd;fill-rule:nonzero;stroke-linejoin:round;stroke-miterlimit:2"/><path d="m60.921 86.3 1.793-1.19-2.507-2.741-1.874-2.97-.74-2.088-.338-1.7-.068-2.187.133-2.571.51-2.214L59 66.376l1.29-1.6 1.38-1.688 1.137-1.125-1.636-1.324-1.402 1.532-1.622 1.888-1.104 1.81-1.24 2.65-.716 2.396-.119 1.844-.019 2.021.132 1.423.72 2.529.86 1.942 1.358 2.063s1.015 1.379 1.558 2.04c.438.516.886 1.025 1.344 1.524zm51.039-25.207 3.161 3.641 1.79 3.046.873 2.638.172 1.791.048 2.78-.413 2.408s-.592 1.647-.97 2.434c-.293.61-.628 1.2-1.003 1.762-.675 1.017-1.45 1.967-2.233 2.902-.462.551-1.452 1.594-1.452 1.594l-1.718-1.327 2.2-2.23 1.56-2.061 1.155-2.31.593-2.09.214-2.248-.186-2.747-.778-2.7-1.03-1.794-1.372-1.681-2.367-2.512zm-30.126 43.711h15.998v1.99H81.839Zm-24.347-.11.768 5.769.81 3.489-2.33 1.535-1.68 1.983-.793 1.874-.08 1.993.269 1.127 1.05 1.427 2.062 1.062 3.248.228 8.395-.054.386-2.573-6.117.46-2.517.053-2.827-.455-1.05-.807-.535-1.198.105-1.577.646-1.184 1.223-1.374 1.453-.902 3.624-1.608 4.084-1.45 1.374-.39 1.262-.402-1.955-2.384-.633.744-3.287 1.31-3.299 1.588-.78-3.044-.282-2.678.083-2.582z" style="clip-rule:evenodd;fill-rule:nonzero;stroke-linejoin:round;stroke-miterlimit:2"/><path d="m58.81 43.017-.147.056-.351.371-.04.172c-3.781 4.492-4.874 9.478-3.281 14.957l-.106-.115 1.274 3.18.087.2a86.189 48.39 12.857 0 1 2.111 5.355l.63 3.664-.263.572-.86.256-.022 2.432-.02.085-.009.63.154 2.833c.266 0 .513.087.74.26 2.197 1.283 3.759 2.813 4.687 4.59l2.84-3.685c-.89-.384-1.989-.634-3.295-.752l-.74-.26-.536-.573-.01-.544 3.703-6.285-1.837 2.198-.643.485-.926-.031-.809-.546-.116-.658c.632-1.601 2.004-2.943 4.118-4.025l.966-.14.847.374.214.229.654.06c9.013-2.878 18.067-3.61 27.166-2.194l-.595-.316-.555-.488-.622-.774-.136-.573 1.74-5.29c.052-.228.176-.38.37-.456l.693-.113 5.013.241 1.538.262.577.401c.37.326.382.66.037 1.003l-.604.312-.692.113-.995-.317a13.952 7.833 12.857 0 0-3.559-.18l-1.524 4.346-.02.085.234.144c2.487 1.169 4.775 1.27 6.864.303l.126.029 2.185-1.397-.146.057 1.368-3.66.02-.085c.113-.877-.329-1.67-1.323-2.378a11.595 11.595 0 0 0-5.108-2.16l-5.207-.556-2.729.28-1.034-.145-.682-.518-.097-.743.751-.37 3.404-.307 5.859.615c2.307.406 4.455 1.318 6.443 2.734 1.689 1.168 2.462 2.458 2.317 3.869l-1.858 4.631-.04.17-2.164 1.312.839-.17.02-.085c3.445-1.078 5.842-2.818 7.19-5.218l.02-.086.041-2.518-1.538-3.781-.798-.002-1.862-.605-1.101-.432-.108-.115-2.427-1.638c-1.28-1.013-1.616-2.263-1.01-3.75l.624-.4.947-.053.808.545.116.658c-.279.839-.162 1.497.35 1.975l.107.115 1.852 1.235.126.029.107.115.362.172.867.289a38.997 21.894 12.857 0 0-6.39-7.055c-9.505-5.48-20.182-8.157-32.033-8.033l-.634-.145-.292.114c3.11 3.898 7.496 6.103 13.157 6.613l.273-.028.234-1.03-1.169-.718-.3-.43-.566-1.031.01-.63a1.027.577 12.857 0 1 .624-.399l1.035.146.681.517.35.802 1.512.977.448.372.028.458-.45 1.973-.518.514c-.696.323-1.388.436-2.078.338-6.884-.608-12.127-3.339-15.73-8.193-3.679.545-6.337 1.682-7.978 3.414l-.312.199-.928 1.142c1.815.234 2.64.904 2.475 2.01l-.088.973c-.047 1.373-.792 2.105-2.235 2.197l-1.033-.145-.663-.603.157-.687.751-.37.43-.714.039-.171.029-.716.02-.085a1.5 1.5 0 0 0-.417-1.09m3.067 14.602-1.52-1.52-.107-.115 1.212-4.146c1.262-.855 2.726-1.424 4.39-1.706 5.48-1.036 9.896.454 13.246 4.468 2.534 2.924 2.028 5.336-1.517 7.235l-.167.143c-1.507.377-3.054.145-4.64-.699l-1.091-1.061-1.557-2.521-.108-.116-.885-2.549.284-.657.839-.169c.28-.057.568.04.867.288l.516.66.857 2.09-.02.086 1.577 2.436.088.2.106.115.02-.086c.552.307 1.107.403 1.667.29l1.009-5.004c-2.59-3.058-5.933-4.183-10.03-3.373-1.37.169-2.542.624-3.512 1.365l.02-.086-.694 2.46.75.802.516.66-.264.57-.858.257-.994-.317M57.71 79.953l-.733 1.458-.35.371-.44.17-.799-.001c-1.419 1.541 3.601 6.418 4.733 6.135 1.073-.418 1.561-1.39 1.466-2.915l.106.114-.116-.659-.069-.285-.067-.286.02-.086-.128-.03c-.491-1.737-1.668-3.208-3.525-4.415l-.098.43" style="clip-rule:evenodd;fill:#12a001;fill-rule:evenodd;stroke-width:1.25528;stroke-linejoin:round;stroke-miterlimit:2"/><path d="m56.909 41.409.556-.685-.02.086-.33.285-.187.228-.02.086" style="clip-rule:evenodd;fill:#ccc;fill-rule:evenodd;stroke-width:1.25528;stroke-linejoin:round;stroke-miterlimit:2"/><path d="m65.355 70.415-3.702 6.286.01.544.536.573.74.26c1.306.118 2.406.368 3.296.752 0 0-2.543 3.016-2.795 3.393-.928-1.776-2.479-3.116-4.674-4.398a1.209 1.209 0 0 0-.741-.26l-.212-2.733.012-.63.019-.085.022-2.432.858-.256.263-.572-.63-3.664a86.311 48.458 12.857 0 0-2.111-5.355l-.087-.2-1.274-3.18.106.114c-1.593-5.478-.498-10.464 3.282-14.956l.039-.172.35-.371.148-.056.165-.143.37-.458.928-1.141.312-.2c1.64-1.732 4.3-2.87 7.979-3.414l2.185-.224.273-.027.292-.114.634.145c11.85-.124 22.529 2.554 32.032 8.033a39.058 21.928 12.857 0 1 6.39 7.054l.635.144.828.46.243.688-.518.514-.147.057 1.538 3.78-.042 2.519-.02.085c-1.346 2.4-3.745 4.14-7.19 5.218l-.02.086-.839.17-.292.114-.02.086c-2.893 1.384-6.072 1.292-9.536-.281-9.099-1.415-18.153-.684-27.166 2.192l-.654-.058a1.183.664 12.857 0 1 .156.487l-.39.543-1.581 1.083m-9.136-29.127-.204.315-.849.8c-3.958 4.873-5.064 10.254-3.38 16.114l.921 3.572.214.23c.7 1.603 1.363 3.16 1.881 4.783l.02-.086 1.078 3.617.39.63-1.62 1.256v1.173l-.051.8.108.116.6 3.537-.02.086-.05.801s4.491 11.286 6.22 10.717c1.912-.587 2.82-2.034 2.724-4.342l.02-.087 5.805-6.302-.008-.544-.536-.573c-.936-.575-2.531-1.153-4.15-1.461l3.711-5.825.42-.085c9.403-3.029 18.194-3.689 27.65-1.891 2.04.404 4.318.355 6.432.055l.545-.056.128.03 2.827-.71.127.03c3.933-1.27 7.24-3.45 8.848-6.212l.235-1.03-.085-2.547c-1.445-4.963-5.012-9.818-10.106-13.99l-.233-.143-.106-.114c-10.13-5.862-22.102-8.786-34.581-8.626l-.695.112-.653-.058c-5.42.387-9.676 1.865-11.965 4.11l-.167.142-.888.972-.557.685m1.59 38.796s.283.292.097-.43c1.86 1.206 2.74 2.391 3.234 4.128l.126.028-.02.087.069.285.067.287.116.658-.106-.114c.095 1.526-.32 2.513-1.393 2.93-1.131.283-5.806-4.379-4.39-5.92l.801.002.44-.171.35-.371.609-1.4" style="clip-rule:evenodd;fill:#167801;fill-rule:evenodd;stroke-width:1.25528;stroke-linejoin:round;stroke-miterlimit:2"/><path d="m65.355 70.415 1.58-1.083.39-.543a1.193.67 12.857 0 0-.155-.487l-.214-.23-.847-.373-.966.14c-2.114 1.082-3.486 2.424-4.118 4.025l.116.658.809.546.926.03.643-.484 1.836-2.199m29.635-4.247c3.464 1.573 6.643 1.666 9.537.28l.019-.085.293-.114 2.165-1.31.039-.173 1.858-4.63c.145-1.412-.628-2.7-2.317-3.868-1.988-1.417-4.136-2.328-6.444-2.734l-5.858-.616-3.404.307-.75.369.096.745.682.517L91.94 55l2.73-.28 5.207.557a11.594 11.594 0 0 1 5.108 2.159c.994.708 1.436 1.5 1.323 2.378l-.02.085-1.368 3.66.146-.057-2.185 1.397-.126-.03c-2.089.968-4.377.867-6.864-.302l-.234-.144.02-.085 1.524-4.346a13.952 7.833 12.857 0 1 3.559.18l.993.317.694-.112.604-.313c.345-.343.333-.677-.037-1.003l-.575-.401-1.54-.262-5.013-.24-.692.111c-.195.076-.319.23-.371.458l-1.74 5.289.136.573.622.774.555.488.595.316m16.421-11.777.147-.057.518-.514-.243-.687-.829-.46-.633-.144-.868-.289-.36-.172-.108-.115-.126-.029-1.853-1.235-.106-.115c-.513-.477-.629-1.135-.35-1.975l-.116-.658-.808-.545-.946.054-.624.4c-.605 1.486-.269 2.736 1.01 3.75l2.426 1.637.108.115 1.1.432 1.863.605.798.002M71.021 37.41l-.272.027-2.185.224c3.604 4.854 8.847 7.585 15.73 8.193.689.098 1.381-.015 2.077-.338l.517-.514.45-1.973-.029-.457-.447-.374-1.511-.976-.35-.802-.68-.517-1.035-.145a1.027.577 12.857 0 0-.624.399l-.01.629.564 1.032.3.43 1.17.718-.234 1.029-.273.028c-5.661-.51-10.047-2.715-13.157-6.613m-11.677 5.006-.37.458-.165.143c.286.305.425.668.416 1.088l-.019.085-.03.716-.039.171-.429.715-.751.37-.157.686.662.603 1.034.145c1.443-.092 2.188-.824 2.235-2.198l.088-.972c.165-1.106-.66-1.776-2.475-2.01m2.532 15.2.993.317.859-.255.264-.57-.516-.66-.75-.804.694-2.459-.02.086c.97-.741 2.141-1.196 3.511-1.365 4.096-.81 7.44.314 10.03 3.373l-1.008 5.004c-.56.114-1.115.017-1.667-.29l-.02.086-.106-.114-.088-.2-1.577-2.437.02-.086-.857-2.09-.516-.66c-.299-.249-.588-.345-.867-.288l-.84.17-.283.656.885 2.55.108.115 1.557 2.521 1.091 1.061c1.586.844 3.133 1.076 4.64.699l.167-.143c3.545-1.899 4.051-4.31 1.517-7.236-3.35-4.013-7.765-5.503-13.246-4.467-1.664.282-3.128.851-4.39 1.706l-1.212 4.146.107.114 1.52 1.52" style="clip-rule:evenodd;fill:#bfd3b8;fill-rule:evenodd;stroke-width:1.25528;stroke-linejoin:round;stroke-miterlimit:2"/><path d="m63.194 60.2-1.402 2.355-4.206 6.046-1.132 6.123 1.393 4.559 3.235 6.156.151.694-.528 1.5-.867 2.974 3.49 15.543-.066 2.416 4.251-1.359L83.04 67.058 71.455 43.315l-1.158 1.258Z" style="clip-rule:evenodd;fill:#fff;fill-rule:nonzero;stroke-width:.984535;stroke-linejoin:round;stroke-miterlimit:2"/><path d="m60.943 86.786 1.792-1.191-2.506-2.741-1.875-2.97-.74-2.088-.337-1.7-.07-2.188.134-2.571.509-2.214 1.17-2.263 1.29-1.6 1.38-1.688 1.137-1.125-1.636-1.324-1.402 1.532-1.622 1.888-1.104 1.81-1.24 2.65-.716 2.397-.118 1.844-.02 2.021.132 1.423.72 2.529.86 1.942 1.358 2.063s1.015 1.379 1.558 2.04c.43.524 1.345 1.524 1.345 1.524zm17.839-25.211 1.851-2.094-9.705-20.953-9.979 21.65 2.37 1.171 7.595-17.034z" style="clip-rule:evenodd;fill-rule:nonzero;stroke-linejoin:round;stroke-miterlimit:2"/><g id="gikopoipoi_eyes_open" style="display:inline" transform="translate(4.185 -6.485)"><circle cx="68.024" cy="78.852" r="2.118" style="display:inline"/><circle cx="101.399" cy="78.901" r="2.118" style="display:inline"/></g><path d="M102.944 72.848c1.238.875 4.142.764 5.267-.024m-38.536-.025c1.238.875 4.142.764 5.267-.024" style="display:none;stroke-width:2.14607;stroke-dasharray:none" id="gikopoipoi_eyes_closed" stroke-width="3" fill="none" stroke="#000" stroke-linecap="round" stroke-linejoin="round"/><path d="m70.69 75.483-.77.335-.871-.107-.451-.483c-.315-1.067-.794-1.87-1.438-2.406 0 0-3.977 4.122-4.48 4.58 2.615-.308 4.686.202 6.748 1.312.27.09.42.251.452.484m17.005-11.522L75.737 79.689l-1.126.549-.176-.022-5.07 1.705-.12.072-1.127.548-1.557 1.181.102.44-.32.82c-2.873 3.306-6.611 5.163-11.216 5.572l-.522-.065-.34-.298c-1.946-2.353-2.616-4.463-2.007-6.333.613-2.039 2.557-3.744 5.832-5.115l.12-.072 8.255-9.042.77-.336.871.108c.92.455 1.917 1.484 2.537 2.704l8.38-10.906 1.517-1.721m-14.2 21.497s-.445-.064.596-.356c-1.915-.865-3.691-.888-6.203-.225l-.054-.092-.12.072-.412.12-.413.122-.944.313.173.021c-2.168.878-3.517 1.862-3.986 3.063-.27 1.166-.028 2.547 1.163 4.179 3.203-.41 5.688-1.865 7.708-4.075l-.094-.697.192-.492.485-.54 1.91-1.413" style="clip-rule:evenodd;fill:#167801;fill-rule:evenodd;stroke-width:1.43503;stroke-linejoin:round;stroke-miterlimit:2"/><path d="m90.874 57.324-5.884 9.042-7.432 8.283-2.613 2.115-1.176.897-4.024 1.65c-.031-.232-.181-.393-.45-.483-2.065-1.11-4.405-1.51-7.023-1.202l4.888-4.804c.644.536 1.123 1.339 1.438 2.406l.45.483.871.107 11.75-14.477M66.537 80.977l-1.978 1.558-.485.541-.19.491.091.697c-2.018 2.21-4.63 3.52-7.834 3.93-1.192-1.633-1.65-3.032-1.377-4.2.469-1.2 1.787-2.238 3.955-3.117l-.173-.02.945-.314.412-.12.41-.121.12-.072.056.093c2.513-.665 4.728-.565 6.644.298l-.596.356" style="clip-rule:evenodd;fill:#12a001;fill-rule:evenodd;stroke-width:1.43503;stroke-linejoin:round;stroke-miterlimit:2"/><path d="M86.048 92.49h7.74l-.33-1.87-7.267.06zm7.554 4.57h-7.546l-.039-1.73h7.835zm-28.028-3.12.914 2.213 4.42-1.36 2.324-.592 2.108-.32 1.512-.066 1.126.078.86.22.814.31.826.74.338.76.308 1.035.076 1.045-.179 1.08-.585 1.135-.87.881-1.07.816-.982.43-1.19.297-1.225.077-3.618.153.432 2.132 3.75-.24 2.006-.47 1.73-.596 1.303-.795 1.39-1.62.717-1.481.43-1.645-.122-1.445-.409-1.52-.562-.894-1.069-1.133-1.553-.76-1.386-.232-2.14-.02-3.026.398-2.502.42z" style="clip-rule:evenodd;fill-rule:nonzero;stroke-linejoin:round;stroke-miterlimit:2"/><path d="m107.471 93.934-5.53 1.18-3.141 2.223-1.267 2.655.058 2.286 2.19 1.152 7.942-4.963z" style="clip-rule:evenodd;fill:#fff;fill-rule:evenodd;stroke-linejoin:round;stroke-miterlimit:2"/><path d="m99.119 87.527.629 4.727.663 2.86-1.909 1.257-1.377 1.625-.65 1.535-.065 1.634.22.923.862 1.169 1.688.87 2.662.188 6.879-.045.316-2.108-5.012.376-2.063.044-2.316-.373-.86-.661-.438-.981.085-1.292.53-.971 1.002-1.125 1.19-.74 2.97-1.317 3.346-1.188 1.126-.32 1.034-.33-1.602-1.953-.518.61-2.694 1.072-2.703 1.302-.639-2.494-.232-2.194.069-2.116zm-14.744 15.527h1.834v-.793h7.27v1.01h1.914v-12.65h-1.936v9.998H86.19V90.68h-1.853z" style="clip-rule:evenodd;fill-rule:nonzero;stroke-linejoin:round;stroke-miterlimit:2"/></svg>