<svg width="240.576" height="213.733" xml:space="preserve" style="clip-rule:evenodd;fill-rule:evenodd;stroke-linejoin:round;stroke-miterlimit:1.5" xmlns="http://www.w3.org/2000/svg"><path d="M561.631 309.834v-40.07l22.437 11.218 177.875 88.978-.266 39.897z" style="fill:#fff9d7;stroke:#000;stroke-width:.5px" transform="translate(-561.38 -196.374)"/><path d="M736.292 357.741v-20.076l20.036 10.018v20.075z" style="fill:none;stroke:#000;stroke-width:.5px;stroke-linecap:round" transform="translate(-560.775 -156.647)"/><path d="m736.292 347.723 20.036 10.018" style="fill:none;stroke:#000;stroke-width:.5px;stroke-linecap:round" transform="translate(-560.775 -156.606)"/><path d="M743.806 353.358c1.51 2.678 3.204 3.233 5.008 2.504" style="fill:none;stroke:#ae6028;stroke-width:.5px;stroke-linecap:round" transform="translate(-560.775 -156.063)"/><path d="M745.953 339.406v-1.879l1.879.939v3.757l-2.505-1.252c-.814-.699-.616-1.304 0-1.878zm-3.4-1.7v-1.879l1.879.939v3.757l-2.505-1.252c-.814-.699-.616-1.304 0-1.878z" style="fill:none;stroke:#000;stroke-width:.2px;stroke-linecap:round" transform="translate(-559.075 -157.822)"/><path d="M743.806 343.341c1.702 2.959 3.365 3.362 5.008 2.504" style="fill:none;stroke:#ae6028;stroke-width:.5px;stroke-linecap:round" transform="translate(-560.775 -155.98)"/><path d="M495.87 197.459V174.92l17.531 8.765v22.54z" style="fill:none;stroke:#000;stroke-width:.5px" transform="translate(-342.853 -7.614)"/><path d="M495.87 174.92v-10.018l10.018 5.009z" style="fill:#91795f;stroke:#000;stroke-width:.5px" transform="translate(-342.853 -7.614)"/><path d="m505.888 169.911 7.709 3.855-.196 9.919-17.531-8.765z" style="fill:#404040;stroke:#000;stroke-width:.5px" transform="translate(-342.853 -7.614)"/><path d="m520.914 290.163 40.07-19.076 199.351 99.676-39.069 19.535z" style="fill:#5f4848;stroke:#000;stroke-width:.5px" transform="translate(-520.664 -216.732)"/><path d="m801.101 350.075-.655-39.437-39.11 19.514v39.805z" style="fill:#fffbe5;stroke:#000;stroke-width:.5px;stroke-linecap:round" transform="translate(-560.775 -156.606)"/><path d="m612.325 145.493 8.668-4.431 1.349-20.613-6.261 3.131" style="fill:none;stroke:#000;stroke-width:.27px" transform="translate(-1135.435 -213.92) scale(1.86538)"/><path d="m519.596 307.313 25.11-12.808 37.626 18.813-25.363 12.362z" style="fill:#ccc" transform="translate(-512.81 -249.832)"/><path d="m614.838 145.489 11.261-5.631 17.531 8.766-11.27 5.635z" style="fill:url(#a)" transform="translate(-1135.435 -213.92) scale(1.86538)"/><path d="m617.224 142.989 15.136 7.513 11.27-8.139-15.027-7.513z" style="fill:none;stroke:#b3b3b3;stroke-width:.27px" transform="translate(-1140.005 -211.635) scale(1.86538)"/><path d="m618.586 143.615 11.27-8.139 1.252.626-11.27 8.139 1.252.626 11.27-8.139 1.252.626-11.27 8.139 1.253.626 11.269-8.139 1.253.626-11.27 8.139 3.756 1.879 11.27-8.14 1.252.627-11.269 8.139 1.252.626 11.27-8.139-3.757-1.879-11.288 8.149-1.234-.635 11.27-8.14" style="fill:none;stroke:#b3b3b3;stroke-width:.27px" transform="translate(-1140.005 -211.635) scale(1.86538)"/><path d="M643.457 111.194c1.368-.195 2.752.708 2.677 1.742-.081 1.127-1.82 1.68-3.005 1.461-1.359-.251-1.91-.428-2.004-1.461-.079-.872.848-1.53 2.332-1.742z" style="fill:#e9e6d6;stroke:#e1ddc8;stroke-width:.19px" transform="matrix(2.33173 0 0 2.79807 -1467.46 -269.884)"/><path d="M643.457 111.194c1.368-.195 2.752.708 2.677 1.742-.081 1.127-1.82 1.68-3.005 1.461-1.359-.251-1.91-.428-2.004-1.461-.079-.872.848-1.53 2.332-1.742z" style="fill:#e9e6d6;stroke:#e1ddc8;stroke-width:.19px" transform="matrix(2.33173 0 0 2.79807 -1452.091 -262.2)"/><path d="M643.457 111.194c1.368-.195 2.752.708 2.677 1.742-.081 1.127-1.82 1.68-3.005 1.461-1.359-.251-1.91-.428-2.004-1.461-.079-.872.848-1.53 2.332-1.742z" style="fill:#e9e6d6;stroke:#e1ddc8;stroke-width:.19px" transform="matrix(2.33173 0 0 2.79807 -1478.635 -261.96)"/><path d="M643.457 111.194c1.368-.195 2.752.708 2.677 1.742-.081 1.127-1.82 1.68-3.005 1.461-1.359-.251-1.91-.428-2.004-1.461-.079-.872.848-1.53 2.332-1.742z" style="fill:#e9e6d6;stroke:#e1ddc8;stroke-width:.19px" transform="matrix(2.33173 0 0 2.79807 -1463.617 -254.451)"/><path d="m617.224 142.989 15.136 7.513 11.27-8.139-15.027-7.513z" style="fill:none;stroke:#b3b3b3;stroke-width:.27px" transform="translate(-1137.771 -219.76) scale(1.86538)"/><path d="m618.586 143.615 11.27-8.139 1.252.626-11.27 8.139 1.252.626 11.27-8.139 1.252.626-11.27 8.139 1.253.626 11.269-8.139 1.253.626-11.27 8.139 3.756 1.879 11.27-8.14 1.252.627-11.269 8.139 1.252.626 11.27-8.139-3.757-1.879-11.288 8.149-1.234-.635 11.27-8.14" style="fill:none;stroke:#b3b3b3;stroke-width:.27px" transform="translate(-1137.771 -219.76) scale(1.86538)"/><path d="M643.457 111.194c1.368-.195 2.752.708 2.677 1.742-.081 1.127-1.82 1.68-3.005 1.461-1.359-.251-1.91-.428-2.004-1.461-.079-.872.848-1.53 2.332-1.742z" style="fill:#e9e6d6;stroke:#e1ddc8;stroke-width:.19px" transform="matrix(2.33173 0 0 2.79807 -1465.165 -278.1)"/><path d="M643.457 111.194c1.368-.195 2.752.708 2.677 1.742-.081 1.127-1.82 1.68-3.005 1.461-1.359-.251-1.91-.428-2.004-1.461-.079-.872.848-1.53 2.332-1.742z" style="fill:#e9e6d6;stroke:#e1ddc8;stroke-width:.19px" transform="matrix(2.33173 0 0 2.79807 -1449.796 -270.416)"/><path d="M643.457 111.194c1.368-.195 2.752.708 2.677 1.742-.081 1.127-1.82 1.68-3.005 1.461-1.359-.251-1.91-.428-2.004-1.461-.079-.872.848-1.53 2.332-1.742z" style="fill:#e9e6d6;stroke:#e1ddc8;stroke-width:.19px" transform="matrix(2.33173 0 0 2.79807 -1476.34 -270.177)"/><path d="M643.457 111.194c1.368-.195 2.752.708 2.677 1.742-.081 1.127-1.82 1.68-3.005 1.461-1.359-.251-1.91-.428-2.004-1.461-.079-.872.848-1.53 2.332-1.742z" style="fill:#e9e6d6;stroke:#e1ddc8;stroke-width:.19px" transform="matrix(2.33173 0 0 2.79807 -1461.322 -262.667)"/><path d="m617.224 142.989 15.136 7.513 11.27-8.139-15.027-7.513z" style="fill:none;stroke:#b3b3b3;stroke-width:.27px" transform="translate(-1135.435 -227.935) scale(1.86538)"/><path d="m618.586 143.615 11.27-8.139 1.252.626-11.27 8.139 1.252.626 11.27-8.139 1.252.626-11.27 8.139 1.253.626 11.269-8.139 1.253.626-11.27 8.139 3.756 1.879 11.27-8.14 1.252.627-11.269 8.139 1.252.626 11.27-8.139-3.757-1.879-11.288 8.149-1.234-.635 11.27-8.14" style="fill:none;stroke:#b3b3b3;stroke-width:.27px" transform="translate(-1135.435 -227.935) scale(1.86538)"/><path d="M643.457 111.194c1.368-.195 2.752.708 2.677 1.742-.081 1.127-1.82 1.68-3.005 1.461-1.359-.251-1.91-.428-2.004-1.461-.079-.872.848-1.53 2.332-1.742z" style="fill:#f5e7c9;stroke:#f2deb6;stroke-width:.19px" transform="matrix(2.33173 0 0 2.79807 -1474.292 -278.374)"/><path d="M643.457 111.194c1.368-.195 2.752.708 2.677 1.742-.081 1.127-1.82 1.68-3.005 1.461-1.359-.251-1.91-.428-2.004-1.461-.079-.872.848-1.53 2.332-1.742z" style="fill:#f5e7c9;stroke:#f2deb6;stroke-width:.19px" transform="matrix(2.33173 0 0 2.79807 -1460.122 -271.218)"/><path d="m617.224 142.989 15.136 7.513 11.27-8.139-15.027-7.513z" style="fill:none;stroke:#b3b3b3;stroke-width:.27px" transform="translate(-1133.1 -236.11) scale(1.86538)"/><path d="m618.586 143.615 11.27-8.139 1.252.626-11.27 8.139 1.252.626 11.27-8.139 1.252.626-11.27 8.139 1.253.626 11.269-8.139 1.253.626-11.27 8.139 3.756 1.879 11.27-8.14 1.252.627-11.269 8.139 1.252.626 11.27-8.139-3.757-1.879-11.288 8.149-1.234-.635 11.27-8.14" style="fill:none;stroke:#b3b3b3;stroke-width:.27px" transform="translate(-1133.1 -236.11) scale(1.86538)"/><path d="M643.457 111.194c1.368-.195 2.752.708 2.677 1.742-.081 1.127-1.82 1.68-3.005 1.461-1.359-.251-1.91-.428-2.004-1.461-.079-.872.848-1.53 2.332-1.742z" style="fill:#fef5c1;stroke:#fdf1ab;stroke-width:.19px" transform="matrix(2.33173 0 0 2.79807 -1472.243 -286.57)"/><path d="M643.457 111.194c1.368-.195 2.752.708 2.677 1.742-.081 1.127-1.82 1.68-3.005 1.461-1.359-.251-1.91-.428-2.004-1.461-.079-.872.848-1.53 2.332-1.742z" style="fill:#fef5c1;stroke:#fff2aa;stroke-width:.19px" transform="matrix(2.33173 0 0 2.79807 -1457.225 -279.06)"/><path d="m640.932 151.031 1.349-20.613-6.164 3.179-17.531-8.765c-.866-.426-1.277-.838-1.291-1.238-.016-.435-3.698 21.483-3.725 21.899-.029.439.367.858 1.259 1.252l14.971 7.542c1.821.929 3.503.868 5.064-.028z" style="fill:url(#b);stroke:#c3dcdc;stroke-width:.27px" transform="translate(-1135.42 -214.683) scale(1.86538)"/><path d="m632.36 155.317 13.774-6.693v7.513l-13.774 6.887z" style="fill:#816c5a;stroke:#000;stroke-width:.27px" transform="translate(-1135.435 -213.92) scale(1.86538)"/><path d="m612.325 145.493 20.035 9.824v7.707l-20.035-10.018z" style="fill:#524646;stroke:#000;stroke-width:.27px" transform="translate(-1135.435 -213.92) scale(1.86538)"/><path d="m646.134 124.832-11.27 5.635v3.756l7.514-3.756-1.446 20.564 5.202-2.407z" style="fill:#e7e5d7;stroke:#000;stroke-width:.27px" transform="translate(-1135.435 -213.92) scale(1.86538)"/><path d="m646.134 124.832-11.27 5.635-20.035-10.018 11.27-5.635 20.035 10.018" style="fill:#f3f2ee;stroke:#000;stroke-width:.27px" transform="translate(-1135.435 -213.92) scale(1.86538)"/><path d="M614.829 120.449v3.757l20.035 10.017v-3.756z" style="fill:#f2f1e8;stroke:#000;stroke-width:.27px" transform="translate(-1135.435 -213.92) scale(1.86538)"/><path d="M535.941 362.75v-30.053l5.009 2.504v25.044z" style="fill:#ccc;stroke:#000;stroke-width:.5px" transform="translate(-475.044 -286.578)"/><path d="m703.735 268.835-38.419-19.21 2.575-31.634 36.314 18.157z" style="fill:none;stroke:#b3b3b3;stroke-width:.5px" transform="translate(-559.668 -156.612)"/><path d="m540.95 360.245-20.036 10.018 80.141 40.07 20.035-10.017z" style="fill:#999;stroke:#000;stroke-width:.5px" transform="translate(-475.044 -286.578)"/><path d="M520.914 370.263v7.513l80.141 40.07v-7.513z" style="fill:#404040;stroke:#000;stroke-width:.5px" transform="translate(-475.044 -286.578)"/><path d="M621.09 400.316v-40.071l-15.026 7.513-5.009 42.575" style="fill:none;stroke:#000;stroke-width:.5px" transform="translate(-475.044 -286.578)"/><path d="M550.752 422.041c-4.979 1.623-10.185 2.782-11.799 4.866-3.767 4.863 5.438 9.229 15.998-1.035.906-1.17.213-5.461-4.199-3.831z" style="fill:#e59f51;stroke:#000;stroke-width:.12px" transform="translate(-388.061 -273.228) scale(.82843)"/><path d="m554.951 423.367 3.529-1.764" style="fill:none;stroke:#b99770;stroke-width:.6px" transform="translate(-388.061 -273.228) scale(.82843)"/><path d="M550.752 422.041c-4.979 1.623-10.185 2.782-11.799 4.866-3.767 4.863 5.438 9.229 15.998-1.035.906-1.17.213-5.461-4.199-3.831z" style="fill:#e59f51;stroke:#000;stroke-width:.12px" transform="translate(-382.514 -269.79) scale(.82843)"/><path d="m554.951 423.367 3.529-1.764" style="fill:none;stroke:#b99770;stroke-width:.6px" transform="translate(-382.514 -269.79) scale(.82843)"/><path d="M550.752 422.041c-4.979 1.623-10.185 2.782-11.799 4.866-3.767 4.863 5.438 9.229 15.998-1.035.906-1.17.213-5.461-4.199-3.831z" style="fill:#e59f51;stroke:#000;stroke-width:.12px" transform="translate(-376.203 -266.635) scale(.82843)"/><path d="m554.951 423.367 3.529-1.764" style="fill:none;stroke:#b99770;stroke-width:.6px" transform="translate(-376.203 -266.635) scale(.82843)"/><path d="M550.752 422.041c-4.979 1.623-10.185 2.782-11.799 4.866-3.767 4.863 5.438 9.229 15.998-1.035.906-1.17.213-5.461-4.199-3.831z" style="fill:#e59f51;stroke:#000;stroke-width:.12px" transform="translate(-383.933 -274.09) scale(.82843)"/><path d="m554.951 423.367 3.529-1.764" style="fill:none;stroke:#b99770;stroke-width:.6px" transform="translate(-383.933 -274.09) scale(.82843)"/><path d="M550.752 422.041c-4.979 1.623-10.185 2.782-11.799 4.866-3.767 4.863 5.438 9.229 15.998-1.035.906-1.17.213-5.461-4.199-3.831z" style="fill:#e59f51;stroke:#000;stroke-width:.12px" transform="translate(-377.614 -271.039) scale(.82843)"/><path d="m554.951 423.367 3.529-1.764" style="fill:none;stroke:#b99770;stroke-width:.6px" transform="translate(-377.614 -271.039) scale(.82843)"/><path d="M528.428 454.16c1.905 1.313 4.207 2.427 6.796 3.398 2.076-.336 3.772-1.052 4.824-2.412l.902-11.265c-1.159 1.42-3.361 2.461-6.398 3.199-3.855-1.308-6.653-2.711-8.629-4.19z" style="fill:#d38d3f;stroke:#000;stroke-width:.13px" transform="translate(-296.973 -242.752) scale(.7418)"/><path d="m526.264 442.323-2.315-4.248c-.487-1.841-.386-3.254 1.007-3.728l2.197.415c2.015 2.993 1.139 5.724 1.04 8.525z" style="fill:#d3c05f;stroke:#000;stroke-width:.13px" transform="translate(-304.917 -236.522) scale(.7418)"/><path d="M527.984 434.347c-.099-1.322-1.05-2.799-3.028-4.462.193-2.503 1.299-3.08 3.028-2.338 4.228 3.808 4.298 6.197 3.422 6.8l-1.182 2.633z" style="fill:#c9b061;stroke:#000;stroke-width:.13px" transform="translate(-303.699 -232.805) scale(.7418)"/><path d="M530.067 438.314c-.128-1.704-.209-3.412.338-5.178l1.894-.947c1.5.141 1.932 1.164 1.895 2.842l-.871 6.55-2.918-.278z" style="fill:#b68544;stroke:#000;stroke-width:.13px" transform="translate(-304.425 -234.384) scale(.7418)"/><path d="M536.844 439.934c.457-1.407 1.244-2.857 3.068-4.435.72.873 1.248 1.811 1.456 2.855-.975 3.086-1.949 4.586-2.923 5.788h-3.816z" style="fill:#d6ba2e;stroke:#000;stroke-width:.13px" transform="translate(-305.427 -235.77) scale(.7418)"/><path d="m530.748 441.891-3.909-6.056c-.246-2.482.857-2.754 2.49-2.161 1.906 1.981 2.819 3.962 3.14 5.943-.023 2.592-.673 3.097-1.721 2.274z" style="fill:#dfcc6c;stroke:#000;stroke-width:.13px" transform="translate(-305.458 -234.37) scale(.7418)"/><path d="M533.58 440.8c-1.195-2.295-1.452-4.693-1.111-7.159l2.076-3.11c1.147.072 1.922.665 2.215 1.932l-1.647 8.337z" style="fill:#d3c05f;stroke:#000;stroke-width:.13px" transform="translate(-304.1 -233.017) scale(.7418)"/><path d="M528.428 454.16c1.905 1.313 4.207 2.427 6.796 3.398 2.076-.336 3.772-1.052 4.824-2.412l.902-11.265c-1.159 1.42-3.361 2.461-6.398 3.199-3.855-1.308-6.653-2.711-8.629-4.19z" style="fill:#d38d3f;stroke:#000;stroke-width:.13px" transform="translate(-305.634 -238.422) scale(.7418)"/><path d="m528.942 443.315-1.934-.967c-.509-1.299-.278-2.506.579-3.634l2.26-.29c.835 1.138 1.67 1.48 2.505 1.252l1.084 1.962-1.655 1.677z" style="fill:#845928;stroke:#000;stroke-width:.12px" transform="translate(-332.236 -262.253) scale(.82843)"/><path d="M533.436 444.142c-1.276-1.022-1.665-2.07 0-5.008 3.941.391 4.339-.131 5.009 0 .926 1.302 1.287 2.605.638 3.908l-2.201 1.1z" style="fill:#795328;stroke:#000;stroke-width:.12px" transform="matrix(.8086 0 0 .82843 -331.816 -263.782)"/><path d="M578.177 437.529c-2.096-.306-3.147-.82-3.534-1.468-.38-.683-.474-1.48 0-2.504.066-.564.802-.98 2.405-1.203 2.387.228 4.148.634 5.34 1.203.568 2.18.082 3.043-.718 3.514-1.7-.276-2.65.048-3.493.458z" style="fill:#895519;stroke:#010002;stroke-width:.12px" transform="translate(-372.993 -262.373) scale(.82843)"/><path d="M530.775 438.888c-.701-1.17-.85-2.341.157-3.511h3.328l3.35 1.675c.623 1.223.508 2.076-.234 2.616-2.802.877-5.339 1.253-6.601-.78z" style="fill:#895519;stroke:#000;stroke-width:.12px" transform="translate(-338.466 -263.083) scale(.82843)"/><path d="m528.942 443.315-1.934-.967c-.509-1.299-.278-2.506.579-3.634l2.26-.29c.835 1.138 1.67 1.48 2.505 1.252l1.084 1.962-1.655 1.677z" style="fill:#845928;stroke:#000;stroke-width:.12px" transform="rotate(-168.888 260.811 248.868) scale(.82843)"/><path d="M533.436 444.142c-1.276-1.022-1.665-2.07 0-5.008 3.941.391 4.339-.131 5.009 0 .926 1.302 1.287 2.605.638 3.908l-2.201 1.1z" style="fill:#795328;stroke:#000;stroke-width:.12px" transform="matrix(-.79345 -.15583 .15965 -.8129 468.066 544.752)"/><path d="M578.177 437.529c-2.096-.306-3.147-.82-3.534-1.468-.38-.683-.474-1.48 0-2.504.066-.564.802-.98 2.405-1.203 2.387.228 4.148.634 5.34 1.203.568 2.18.082 3.043-.718 3.514-1.7-.276-2.65.048-3.493.458z" style="fill:#895519;stroke:#010002;stroke-width:.12px" transform="rotate(-168.888 281.184 250.91) scale(.82843)"/><path d="M530.775 438.888c-.701-1.17-.85-2.341.157-3.511h3.328l3.35 1.675c.623 1.223.508 2.076-.234 2.616-2.802.877-5.339 1.253-6.601-.78z" style="fill:#895519;stroke:#000;stroke-width:.12px" transform="rotate(-168.888 263.886 249.586) scale(.82843)"/><path d="m528.942 443.315-1.934-.967c-.509-1.299-.278-2.506.579-3.634l2.26-.29c.835 1.138 1.67 1.48 2.505 1.252l1.084 1.962-1.655 1.677z" style="fill:#845928;stroke:#000;stroke-width:.12px" transform="rotate(118.063 353.44 138.218) scale(.82843)"/><path d="M533.436 444.142c-1.276-1.022-1.665-2.07 0-5.008 3.941.391 4.339-.131 5.009 0 .926 1.302 1.287 2.605.638 3.908l-2.201 1.1z" style="fill:#795328;stroke:#000;stroke-width:.12px" transform="rotate(118.063 353.687 139.107) scale(.80861 .82842)"/><path d="M578.177 437.529c-2.096-.306-3.147-.82-3.534-1.468-.38-.683-.474-1.48 0-2.504.066-.564.802-.98 2.405-1.203 2.387.228 4.148.634 5.34 1.203.568 2.18.082 3.043-.718 3.514-1.7-.276-2.65.048-3.493.458z" style="fill:#895519;stroke:#010002;stroke-width:.12px" transform="rotate(118.063 373.856 126.049) scale(.82843)"/><path d="M530.775 438.888c-.701-1.17-.85-2.341.157-3.511h3.328l3.35 1.675c.623 1.223.508 2.076-.234 2.616-2.802.877-5.339 1.253-6.601-.78z" style="fill:#895519;stroke:#000;stroke-width:.12px" transform="rotate(118.063 356.805 136.764) scale(.82843)"/><path d="M528.428 371.515v-2.504l70.123 35.061v2.505z" style="fill:#fff;stroke:#000;stroke-width:.1px" transform="translate(-475.044 -286.578)"/><path d="m618.586 381.533-15.027 7.513-80.14-40.071-.313 2.661 80.175 39.775 15.305-7.652z" style="fill:#999;stroke:#000;stroke-width:.5px" transform="translate(-475.044 -286.578)"/><path d="m523.419 348.975 15.026-7.513 80.141 40.071-15.027 7.513z" style="fill:#a6a6a6;stroke:#000;stroke-width:.5px" transform="translate(-475.044 -286.578)"/><path d="M537.708 429.485c-1.105 1.105-.213 3.638 3.242 3.388l14.001-7.001c.906-1.17.428-4.647-3.984-3.017 0 0-11.589 4.96-13.259 6.63z" style="fill:#d07e55;stroke:#000;stroke-width:.12px" transform="translate(-384.867 -294.276) scale(.82843)"/><path d="m540.242 428.218 3.489.574m.221-2.429 3.467.585m0-2.319 3.363.638" style="fill:none;stroke:#845928;stroke-width:.12px" transform="translate(-384.867 -294.276) scale(.82843)"/><path d="m554.951 423.367 3.529-1.764" style="fill:none;stroke:#b99770;stroke-width:.6px" transform="translate(-384.867 -294.276) scale(.82843)"/><path d="M537.708 429.485c-1.105 1.105-.213 3.638 3.242 3.388l14.001-7.001c.906-1.17.428-4.647-3.984-3.017 0 0-11.589 4.96-13.259 6.63z" style="fill:#d07e55;stroke:#000;stroke-width:.12px" transform="translate(-381.81 -292.748) scale(.82843)"/><path d="m540.242 428.218 3.489.574m.221-2.429 3.467.585m0-2.319 3.363.638" style="fill:none;stroke:#845928;stroke-width:.12px" transform="translate(-381.81 -292.748) scale(.82843)"/><path d="m554.951 423.367 3.529-1.764" style="fill:none;stroke:#b99770;stroke-width:.6px" transform="translate(-381.81 -292.748) scale(.82843)"/><path d="M537.708 429.485c-1.105 1.105-.213 3.638 3.242 3.388l14.001-7.001c.906-1.17.428-4.647-3.984-3.017 0 0-11.589 4.96-13.259 6.63z" style="fill:#d07e55;stroke:#000;stroke-width:.12px" transform="translate(-378.754 -291.22) scale(.82843)"/><path d="m540.242 428.218 3.489.574m.221-2.429 3.467.585m0-2.319 3.363.638" style="fill:none;stroke:#845928;stroke-width:.12px" transform="translate(-378.754 -291.22) scale(.82843)"/><path d="m554.951 423.367 3.529-1.764" style="fill:none;stroke:#b99770;stroke-width:.6px" transform="translate(-378.754 -291.22) scale(.82843)"/><path d="M537.708 429.485c-1.105 1.105-.213 3.638 3.242 3.388l14.001-7.001c.906-1.17.428-4.647-3.984-3.017 0 0-11.589 4.96-13.259 6.63z" style="fill:#d07e55;stroke:#000;stroke-width:.12px" transform="translate(-382.825 -295.296) scale(.82843)"/><path d="m540.242 428.218 3.489.574m.221-2.429 3.467.585m0-2.319 3.363.638" style="fill:none;stroke:#845928;stroke-width:.12px" transform="translate(-382.825 -295.296) scale(.82843)"/><path d="m554.951 423.367 3.529-1.764" style="fill:none;stroke:#b99770;stroke-width:.6px" transform="translate(-382.825 -295.296) scale(.82843)"/><path d="M537.708 429.485c-1.105 1.105-.213 3.638 3.242 3.388l14.001-7.001c.906-1.17.428-4.647-3.984-3.017 0 0-11.589 4.96-13.259 6.63z" style="fill:#d07e55;stroke:#000;stroke-width:.12px" transform="translate(-379.306 -294.276) scale(.82843)"/><path d="m540.242 428.218 3.489.574m.221-2.429 3.467.585m0-2.319 3.363.638" style="fill:none;stroke:#845928;stroke-width:.12px" transform="translate(-379.306 -294.276) scale(.82843)"/><path d="m554.951 423.367 3.529-1.764" style="fill:none;stroke:#b99770;stroke-width:.6px" transform="translate(-379.306 -294.276) scale(.82843)"/><path d="M535.312 412.209c3.112 0 5.71 1.265 5.638 2.819-.122 2.61-3.053 3.03-5.006 3.211-3.197.298-6.031.248-6.269-3.211-.107-1.552 2.526-2.819 5.637-2.819z" style="fill:#d38d3f;stroke:#000;stroke-width:.12px" transform="translate(-363.902 -275.29) scale(.82843)"/><path d="M535.312 412.209c3.112 0 5.71 1.265 5.638 2.819-.122 2.61-3.053 3.03-5.006 3.211-3.197.298-6.031.248-6.269-3.211-.107-1.552 2.526-2.819 5.637-2.819z" style="fill:#d38d3f;stroke:#000;stroke-width:.12px" transform="translate(-359.916 -273.79) scale(.82843)"/><path d="M535.312 412.209c3.112 0 5.71 1.265 5.638 2.819-.122 2.61-3.053 3.03-5.006 3.211-3.197.298-6.031.248-6.269-3.211-.107-1.552 2.526-2.819 5.637-2.819z" style="fill:#d38d3f;stroke:#000;stroke-width:.12px" transform="translate(-355.929 -272.29) scale(.82843)"/><path d="M535.312 412.209c3.112 0 5.71 1.265 5.638 2.819-.122 2.61-3.053 3.03-5.006 3.211-3.197.298-6.031.248-6.269-3.211-.107-1.552 2.526-2.819 5.637-2.819z" style="fill:#d38d3f;stroke:#000;stroke-width:.12px" transform="translate(-351.943 -270.789) scale(.82843)"/><path d="M535.312 412.209c3.112 0 5.71 1.265 5.638 2.819-.122 2.61-3.053 3.03-5.006 3.211-3.197.298-6.031.248-6.269-3.211-.107-1.552 2.526-2.819 5.637-2.819z" style="fill:#cc7411;stroke:#000;stroke-width:.09px" transform="matrix(.70318 -.3516 .82832 .75184 -621.39 -46.868)"/><path d="M535.312 412.209c3.112 0 5.71 1.265 5.638 2.819-.122 2.61-3.053 3.03-5.006 3.211-3.197.298-6.031.248-6.269-3.211-.107-1.552 2.526-2.819 5.637-2.819z" style="fill:#cc7411;stroke:#000;stroke-width:.09px" transform="matrix(.70318 -.3516 .82832 .75184 -619.18 -45.468)"/><path d="M535.312 412.209c3.112 0 5.71 1.265 5.638 2.819-.122 2.61-3.053 3.03-5.006 3.211-3.197.298-6.031.248-6.269-3.211-.107-1.552 2.526-2.819 5.637-2.819z" style="fill:#cc7411;stroke:#000;stroke-width:.09px" transform="matrix(.70318 -.3516 .82832 .75184 -616.606 -44.48)"/><path d="M535.312 412.209c3.112 0 5.71 1.265 5.638 2.819-.122 2.61-3.053 3.03-5.006 3.211-3.197.298-6.031.248-6.269-3.211-.107-1.552 2.526-2.819 5.637-2.819z" style="fill:#cc7411;stroke:#000;stroke-width:.09px" transform="matrix(.70318 -.3516 .82832 .75184 -614.03 -43.492)"/><path d="m576.011 427.864 10.018-5.009c4.608-.548 6.494 1.396 7.513 3.757l-10.018 5.008c-3.085.575-5.622-.574-7.513-3.756z" style="fill:#d38d3f;stroke:#000;stroke-width:.12px" transform="translate(-368.655 -268.66) scale(.82843)"/><path d="m576.011 427.864 10.018-5.009c4.608-.548 6.494 1.396 7.513 3.757l-10.018 5.008c-3.085.575-5.622-.574-7.513-3.756z" style="fill:#d38d3f;stroke:#000;stroke-width:.12px" transform="translate(-365.134 -266.9) scale(.82843)"/><path d="m576.011 427.864 10.018-5.009c4.608-.548 6.494 1.396 7.513 3.757l-10.018 5.008c-3.085.575-5.622-.574-7.513-3.756z" style="fill:#d38d3f;stroke:#000;stroke-width:.12px" transform="translate(-360.733 -264.699) scale(.82843)"/><path d="M530.932 350.228v-2.505l72.627 36.314v2.504z" style="fill:#fff;stroke:#000;stroke-width:.1px" transform="translate(-475.044 -286.578)"/><path d="m520.914 370.263 5.009-42.575 80.141 40.07-5.009 42.575z" style="fill:url(#c);stroke:#000;stroke-width:.5px" transform="translate(-475.22 -286.663)"/><path d="m525.923 372.767 5.009-42.575-5.009-2.504-5.009 42.575zm80.141-5.009-5.009-2.504-5.009 42.575 5.009 2.504z" style="fill:#534545;stroke:#000;stroke-width:.5px" transform="translate(-475.044 -286.578)"/><path d="m601.055 410.333 20.035-10.017v7.513l-20.035 10.017z" style="fill:#595959;stroke:#000;stroke-width:.5px" transform="translate(-475.044 -286.578)"/><path d="m601.055 410.333 5.009-42.575 15.026-7.513v40.071l-5.009 2.504v-37.566l-7.513 3.757-5.009 40.07z" style="fill:#696060;stroke:#000;stroke-width:.5px" transform="translate(-475.044 -286.578)"/><path d="M606.064 367.758v-7.281l15.026-7.745v7.513z" style="fill:#f2f2f2;stroke:#000;stroke-width:.5px" transform="translate(-475.044 -286.578)"/><path d="m525.923 320.175 15.027-7.513 80.14 40.07-15.026 7.513z" style="fill:#f2f2f2;stroke:#000;stroke-width:.5px" transform="translate(-475.044 -286.578)"/><path d="m606.064 360.477-80.141-40.302v7.513l80.141 40.07z" style="fill:#e4e4e4;stroke:#000;stroke-width:.5px" transform="translate(-475.044 -286.578)"/><path d="m318.058 345.219 1.253-.626 2.512.004 6.253 3.126h-2.505l-1.26.622z" style="fill:none;stroke:#000;stroke-width:.06px;stroke-linecap:round" transform="translate(-385.017 -466.466) scale(1.72877)"/><path d="m323.075 333.953 6.253 3.135v2.496l-6.261-3.131v.021z" style="fill:none;stroke:#000;stroke-width:.06px;stroke-linecap:round" transform="translate(-393.69 -446.99) scale(1.72877)"/><path d="m325.571 352.732-3.876 1.893v.654l2.504 1.252 3.812-1.906v-.673z" style="fill:#383838;stroke:#000;stroke-width:.06px;stroke-linecap:round" transform="translate(-393.276 -470) scale(1.72877)"/><path d="m13.748 8.941 14.996 7.533 1.567 10.119-1.253.626v2.504l-2.502 5.005-2.068-1.029-11.966-22.817V9.63Z" style="fill:#b6abab;stroke:#000;stroke-width:.06px;stroke-linecap:round" transform="translate(114.597 83.282) scale(1.72877)"/><path d="m326.824 348.349-1.051.526 1.812.906 1.051-.526z" style="fill:none;stroke:#000;stroke-width:.06px;stroke-linecap:round" transform="translate(-395.329 -461.831) scale(1.72877)"/><path d="m328.076 351.48 6.816-3.408-5.822-2.912-3.06 1.53 2.066 1.033z" style="fill:#a6a6a6;stroke:#000;stroke-width:.06px;stroke-linecap:round" transform="translate(-385.017 -466.466) scale(1.72877)"/><path d="m321.823 360.867 13.069-6.534v-6.261l-6.261 3.13-.555-3.479h-2.505l-1.26.63.008 2.501-2.496 5.013z" style="fill:#585858;stroke:#000;stroke-width:.06px;stroke-linecap:round" transform="translate(-385.017 -466.466) scale(1.72877)"/><path d="m40.07 27.16-10.483-5.241.724 4.674h2.504l4.195 2.097z" style="fill:#666;stroke:#000;stroke-width:.06px;stroke-linecap:round" transform="translate(114.597 83.282) scale(1.72877)"/><path d="m29.797 23.276 7.769 3.884-1.808.904-2.943-1.471h-2.504z" style="fill:#e6e6e6;stroke:#000;stroke-width:.06px;stroke-linecap:round" transform="translate(114.597 83.282) scale(1.72877)"/><path d="m37.566 27.16.034.261-1.564.782.278-.139v-.277" style="fill:none;stroke:#000;stroke-width:.06px;stroke-linecap:round" transform="translate(114.597 83.282) scale(1.72877)"/><path d="m35.062 25.908-1.808.904 1.252.626 1.808-.904 1.252.626-1.252.627-6.261-3.131 1.252-.626 1.252.626-2.363 1.182.023.153 1.205.602-.117-.059 2.504-1.252-3.756-1.878-.219.109" style="fill:none;stroke:#000;stroke-width:.06px;stroke-linecap:round" transform="translate(114.597 83.282) scale(1.72877)"/><path d="m27.463 17.656-15.935 13.29v1.282l21.295 10.647v-5.008l2.496-5.013-6.261-3.131-2.504 5.009zm1.725 13.352-2.035 4.023 3.596 1.799 2.129-3.976z" style="fill:#454545;stroke:#000;stroke-width:.06px;stroke-linecap:round" transform="translate(114.591 83.28) scale(1.72877)"/><path d="m299.493 348.84 5.867-20.536.707-.325 14.316 7.848-6.033 20.557-.832.382z" style="fill:#404040;stroke:#000;stroke-width:.05px;stroke-linecap:round" transform="matrix(1.72877 0 .30404 1.72877 -493.306 -466.466)"/><path d="m299.55 348.144 14.015 7.007 1.989-18.698-13.957-6.978z" style="fill:#fff;stroke:#fff6b6;stroke-width:.17px;stroke-linecap:round" transform="translate(-385.897 -466.363) scale(1.72877)"/><path d="M320.555 342.71c-.305-.471-.322-.894.008-1.256l2.496 1.256c.35.587.329.994 0 1.253z" style="fill:#4d4d4d;stroke:#5b5b5b;stroke-width:.06px;stroke-linecap:round" transform="translate(-385.716 -460.185) scale(1.72877)"/><path d="M451.119-33.575c.746 0 1.788-.065 2.259.559.356.471 4.34 4.527 5.782 4.794 1.083.2.816 3.645.736 4.242-.231 1.728-.059 3.482-.688 4.453-4.159 6.418 4.621 2.525 6.102-2.921" style="fill:none;stroke:#5b5b5b;stroke-width:.3px;stroke-linecap:round" transform="translate(-271.794 166.034)"/><path d="M326.824 343.341c.525-.243.591-.638 0-1.253l-3.304-1.652a1.706 1.706 0 0 0-.807-.049l-2.158 1.079 2.524 1.242c.331.591.326 1.004 0 1.244l2.492-1.238z" style="fill:#737373;stroke:#000;stroke-width:.06px;stroke-linecap:round" transform="translate(-385.716 -460.213) scale(1.72877)"/><path d="M750.631 316.32c-.312-.414-.135-.899.531-1.232.907-.454 2.38-.454 3.287 0 .666.333.843.818.531 1.232.312.414.135.9-.531 1.233-.907.454-2.38.454-3.287 0-.666-.333-.843-.819-.531-1.233z" style="fill:#79689f;stroke:#000;stroke-width:.1px;stroke-linecap:round" transform="translate(-543.97 -175.323)"/><path d="M751.162 315.088c.907-.454 2.38-.454 3.287 0 .907.453.907 1.19 0 1.643-.907.454-2.38.454-3.287 0-.907-.453-.907-1.19 0-1.643z" style="fill:#483684;stroke:#000;stroke-width:.13px;stroke-linecap:round" transform="matrix(.74092 0 0 .74093 -348.935 -93.478)"/><path d="M745.927 315.701c0 .271-.207.543-.621.75-.828.414-2.172.414-3 0-.345-.173-.547-.39-.604-.615v0a.54.54 0 0 1-.001-.268l-.016-6.885 4.224-.135z" style="fill:#919191;stroke:#000;stroke-width:.14px;stroke-linecap:round" transform="matrix(.69462 0 0 .69463 -307.786 -78.596)"/><circle cx="743.5" cy="315.5" r="1.5" style="fill:#aab5e7;stroke:#000;stroke-width:.1px;stroke-linecap:round" transform="scale(.98235 .49117) rotate(-45 431.023 936.827)"/><path d="m661.161 355.236 20.076-4.988" style="fill:none;stroke:#000;stroke-width:.14px;stroke-linecap:round" transform="translate(-293.377 -116.212) scale(.72815)"/><ellipse cx="751.8" cy="620.693" rx="5.6" ry="4.48" style="fill:#9b89db;stroke:#000;stroke-width:.19px;stroke-linecap:round" transform="matrix(.60785 -.30393 0 .75982 -263.38 -100.624)"/><ellipse cx="751.8" cy="620.693" rx="5.6" ry="4.48" style="fill:#67407f;stroke:#000;stroke-width:.19px;stroke-linecap:round" transform="matrix(.60785 -.30393 0 .75982 -262.528 -100.198)"/><path d="M751.8 616.213c1.184 0 2.283.295 3.188.798 1.457.809 2.412 2.157 2.412 3.682 0 2.473-2.509 4.48-5.6 4.48-3.091 0-5.6-2.007-5.6-4.48 0-2.472 2.509-4.48 5.6-4.48z" style="fill:#cabd97;stroke:#000;stroke-width:.19px;stroke-linecap:round" transform="matrix(.60785 -.30393 0 .75982 -261.677 -99.773)"/><path d="M672.43 352.732c2.765-1.382 5.009-.26 5.009 2.504 0 2.765-2.244 6.131-5.009 7.514-2.764 1.382-5.008.26-5.008-2.505 0-2.187 1.405-4.752 3.361-6.412a8.306 8.306 0 0 1 1.647-1.101zm0 1.695c1.829-.914 3.314-.172 3.314 1.657s-1.485 4.056-3.314 4.97c-1.828.915-3.313.172-3.313-1.656 0-1.829 1.485-4.056 3.313-4.971z" style="fill:#ca964f;stroke:#000;stroke-width:.15px;stroke-linecap:round" transform="translate(-260.826 -99.347) scale(.6796)"/><path d="m681.196 350.269-6.288 1.552c.496.355 1.827 1.034 2.072 2.498l-8.897 2.27-3.393-1.466.432-.871-3.961.984 5.008 2.505 20.036-5.009z" style="fill:#867e67;stroke:#000;stroke-width:.14px;stroke-linecap:round" transform="translate(-293.377 -116.212) scale(.72815)"/><path d="m681.196 350.228 5.009 2.504v-1.041l-5.009-2.505v1.042l5.009 2.504" style="fill:#595959;stroke:#000;stroke-width:.14px;stroke-linecap:round" transform="translate(-293.377 -116.212) scale(.72815)"/><path d="m673.204 351.241 11.233-.434 1.083.541-11.211.445" style="fill:#cabd97;fill-opacity:.77;stroke:#000;stroke-width:.14px;stroke-linecap:round" transform="translate(-293.377 -116.212) scale(.72815)"/><path d="m672.036 350.656 11.453-.323-1.21-.605-11.412.344" style="fill:#9b89db;stroke:#000;stroke-width:.14px;stroke-linecap:round" transform="translate(-293.377 -116.212) scale(.72815)"/><path d="m661.161 365.254 5.008 2.504 20.036-10.017v-5.009l-20.036 5.009-5.008-2.505z" style="fill:#534545;stroke:#000;stroke-width:.14px;stroke-linecap:round" transform="translate(-293.377 -116.212) scale(.72815)"/><defs><linearGradient id="b" x1="0" y1="0" x2="1" y2="0" gradientUnits="userSpaceOnUse" gradientTransform="rotate(8.622 -607.276 4160.65) scale(33.90332)"><stop offset="0" style="stop-color:white;stop-opacity:0"/><stop offset=".09" style="stop-color:white;stop-opacity:.31"/><stop offset=".19" style="stop-color:white;stop-opacity:.59"/><stop offset=".52" style="stop-color:white;stop-opacity:.7"/><stop offset="1" style="stop-color:black;stop-opacity:0"/></linearGradient><linearGradient id="c" x1="0" y1="0" x2="1" y2="0" gradientUnits="userSpaceOnUse" gradientTransform="rotate(5.916 -3119.523 5249.748) scale(84.94738)"><stop offset="0" style="stop-color:#ff8700;stop-opacity:0"/><stop offset=".23" style="stop-color:#ff8700;stop-opacity:.31"/><stop offset=".5" style="stop-color:#ff8700;stop-opacity:.4"/><stop offset=".76" style="stop-color:#e78b24;stop-opacity:.31"/><stop offset="1" style="stop-color:#999;stop-opacity:0"/></linearGradient><radialGradient id="a" cx="0" cy="0" r="1" gradientUnits="userSpaceOnUse" gradientTransform="matrix(-16.358 -8.70512 4.35388 -8.18149 626.825 145.756)"><stop offset="0" style="stop-color:black;stop-opacity:1"/><stop offset="1" style="stop-color:#bababa;stop-opacity:1"/></radialGradient></defs></svg>