<?xml version="1.0" encoding="UTF-8" standalone="no"?>
<svg
   width="240.57623"
   height="213.73347"
   viewBox="0 0 240.57623 213.73347"
   version="1.1"
   xml:space="preserve"
   style="clip-rule:evenodd;fill-rule:evenodd;stroke-linejoin:round;stroke-miterlimit:1.5"
   id="svg575"
   sodipodi:docname="register.svg"
   inkscape:version="1.1.1 (3bf5ae0d25, 2021-09-20)"
   xmlns:inkscape="http://www.inkscape.org/namespaces/inkscape"
   xmlns:sodipodi="http://sodipodi.sourceforge.net/DTD/sodipodi-0.dtd"
   xmlns="http://www.w3.org/2000/svg"
   xmlns:svg="http://www.w3.org/2000/svg"><sodipodi:namedview
   id="namedview577"
   pagecolor="#505050"
   bordercolor="#ffffff"
   borderopacity="1"
   inkscape:pageshadow="0"
   inkscape:pageopacity="0"
   inkscape:pagecheckerboard="1"
   showgrid="false"
   inkscape:zoom="1.8490184"
   inkscape:cx="0.81124127"
   inkscape:cy="70.037163"
   inkscape:window-width="1920"
   inkscape:window-height="1027"
   inkscape:window-x="-8"
   inkscape:window-y="-8"
   inkscape:window-maximized="1"
   inkscape:current-layer="svg575" />
    <g
   id="g544"
   transform="translate(6.679988e-4,0.00298402)">
        <g
   id="counter"
   transform="translate(-560.736,-155.629)">
            <g
   transform="translate(-0.645614,-40.7475)"
   id="g4">
                <path
   d="m 561.631,309.834 v -40.07 l 22.437,11.218 177.875,88.978 -0.266,39.897 z"
   style="fill:#fff9d7;stroke:#000000;stroke-width:0.5px"
   id="path2" />
            </g>
            <g
   transform="translate(-0.0394421,-1.02072)"
   id="g8">
                <path
   d="m 736.292,357.741 v -20.076 l 20.036,10.018 v 20.075 z"
   style="fill:none;stroke:#000000;stroke-width:0.5px;stroke-linecap:round"
   id="path6" />
            </g>
            <g
   transform="translate(-0.0394421,-0.980279)"
   id="g12">
                <path
   d="m 736.292,347.723 20.036,10.018"
   style="fill:none;stroke:#000000;stroke-width:0.5px;stroke-linecap:round"
   id="path10" />
            </g>
            <g
   transform="translate(-0.0394421,-0.436675)"
   id="g16">
                <path
   d="m 743.806,353.358 c 1.51,2.678 3.204,3.233 5.008,2.504"
   style="fill:none;stroke:#ae6028;stroke-width:0.5px;stroke-linecap:round"
   id="path14" />
            </g>
            <g
   transform="translate(1.66056,-2.19552)"
   id="g20">
                <path
   d="m 745.953,339.406 v -1.879 l 1.879,0.939 v 3.757 l -2.505,-1.252 c -0.814,-0.699 -0.616,-1.304 0,-1.878 z m -3.4,-1.7 v -1.879 l 1.879,0.939 v 3.757 l -2.505,-1.252 c -0.814,-0.699 -0.616,-1.304 0,-1.878 z"
   style="fill:none;stroke:#000000;stroke-width:0.2px;stroke-linecap:round"
   id="path18" />
            </g>
            <g
   transform="translate(-0.0394421,-0.35418)"
   id="g24">
                <path
   d="m 743.806,343.341 c 1.702,2.959 3.365,3.362 5.008,2.504"
   style="fill:none;stroke:#ae6028;stroke-width:0.5px;stroke-linecap:round"
   id="path22" />
            </g>
            <g
   transform="translate(217.882,148.012)"
   id="g28">
                <path
   d="M 495.87,197.459 V 174.92 l 17.531,8.765 v 22.54 z"
   style="fill:none;stroke:#000000;stroke-width:0.5px"
   id="path26" />
            </g>
            <g
   transform="translate(217.882,148.012)"
   id="g32">
                <path
   d="m 495.87,174.92 v -10.018 l 10.018,5.009 z"
   style="fill:#91795f;stroke:#000000;stroke-width:0.5px"
   id="path30" />
            </g>
            <g
   transform="translate(217.882,148.012)"
   id="g36">
                <path
   d="m 505.888,169.911 7.709,3.855 -0.196,9.919 -17.531,-8.765 z"
   style="fill:#404040;stroke:#000000;stroke-width:0.5px"
   id="path34" />
            </g>
            <g
   transform="translate(40.0713,-61.106)"
   id="g40">
                <path
   d="m 520.914,290.163 40.07,-19.076 199.351,99.676 -39.069,19.535 z"
   style="fill:#5f4848;stroke:#000000;stroke-width:0.5px"
   id="path38" />
            </g>
            <g
   transform="translate(-0.0394421,-0.980279)"
   id="g44">
                <path
   d="m 801.101,350.075 -0.655,-39.437 -39.11,19.514 v 39.805 z"
   style="fill:#fffbe5;stroke:#000000;stroke-width:0.5px;stroke-linecap:round"
   id="path42" />
            </g>
            <g
   id="streamer"
   transform="matrix(1.86538,0,0,1.86538,-574.7,-58.2939)">
                <path
   d="m 612.325,145.493 8.668,-4.431 1.349,-20.613 -6.261,3.131"
   style="fill:none;stroke:#000000;stroke-width:0.27px"
   id="path46" />
                <g
   transform="matrix(0.536082,0,0,0.536082,333.779,-19.2518)"
   id="g50">
                    <path
   d="m 519.596,307.313 25.11,-12.808 37.626,18.813 -25.363,12.362 z"
   style="fill:#cccccc"
   id="path48" />
                </g>
                <path
   d="m 614.838,145.489 11.261,-5.631 17.531,8.766 -11.27,5.635 z"
   style="fill:url(#_Radial1)"
   id="path52" />
                <g
   id="g134">
                    <g
   transform="translate(-2.44967,1.22484)"
   id="g58">
                        <path
   d="m 617.224,142.989 15.136,7.513 11.27,-8.139 -15.027,-7.513 z"
   style="fill:none;stroke:#b3b3b3;stroke-width:0.27px"
   id="path54" />
                        <path
   d="m 618.586,143.615 11.27,-8.139 1.252,0.626 -11.27,8.139 1.252,0.626 11.27,-8.139 1.252,0.626 -11.27,8.139 1.253,0.626 11.269,-8.139 1.253,0.626 -11.27,8.139 3.756,1.879 11.27,-8.14 1.252,0.627 -11.269,8.139 1.252,0.626 11.27,-8.139 -3.757,-1.879 -11.288,8.149 -1.234,-0.635 11.27,-8.14"
   style="fill:none;stroke:#b3b3b3;stroke-width:0.27px"
   id="path56" />
                    </g>
                    <g
   id="g76">
                        <g
   transform="matrix(1.25,0,0,1.5,-177.993,-30.0017)"
   id="g62">
                            <path
   d="m 643.457,111.194 c 1.368,-0.195 2.752,0.708 2.677,1.742 -0.081,1.127 -1.82,1.68 -3.005,1.461 -1.359,-0.251 -1.91,-0.428 -2.004,-1.461 -0.079,-0.872 0.848,-1.53 2.332,-1.742 z"
   style="fill:#e9e6d6;stroke:#e1ddc8;stroke-width:0.19px"
   id="path60" />
                        </g>
                        <g
   transform="matrix(1.25,0,0,1.5,-169.754,-25.882)"
   id="g66">
                            <path
   d="m 643.457,111.194 c 1.368,-0.195 2.752,0.708 2.677,1.742 -0.081,1.127 -1.82,1.68 -3.005,1.461 -1.359,-0.251 -1.91,-0.428 -2.004,-1.461 -0.079,-0.872 0.848,-1.53 2.332,-1.742 z"
   style="fill:#e9e6d6;stroke:#e1ddc8;stroke-width:0.19px"
   id="path64" />
                        </g>
                        <g
   transform="matrix(1.25,0,0,1.5,-183.984,-25.754)"
   id="g70">
                            <path
   d="m 643.457,111.194 c 1.368,-0.195 2.752,0.708 2.677,1.742 -0.081,1.127 -1.82,1.68 -3.005,1.461 -1.359,-0.251 -1.91,-0.428 -2.004,-1.461 -0.079,-0.872 0.848,-1.53 2.332,-1.742 z"
   style="fill:#e9e6d6;stroke:#e1ddc8;stroke-width:0.19px"
   id="path68" />
                        </g>
                        <g
   transform="matrix(1.25,0,0,1.5,-175.933,-21.7282)"
   id="g74">
                            <path
   d="m 643.457,111.194 c 1.368,-0.195 2.752,0.708 2.677,1.742 -0.081,1.127 -1.82,1.68 -3.005,1.461 -1.359,-0.251 -1.91,-0.428 -2.004,-1.461 -0.079,-0.872 0.848,-1.53 2.332,-1.742 z"
   style="fill:#e9e6d6;stroke:#e1ddc8;stroke-width:0.19px"
   id="path72" />
                        </g>
                    </g>
                    <g
   transform="translate(-1.2522,-3.1305)"
   id="g82">
                        <path
   d="m 617.224,142.989 15.136,7.513 11.27,-8.139 -15.027,-7.513 z"
   style="fill:none;stroke:#b3b3b3;stroke-width:0.27px"
   id="path78" />
                        <path
   d="m 618.586,143.615 11.27,-8.139 1.252,0.626 -11.27,8.139 1.252,0.626 11.27,-8.139 1.252,0.626 -11.27,8.139 1.253,0.626 11.269,-8.139 1.253,0.626 -11.27,8.139 3.756,1.879 11.27,-8.14 1.252,0.627 -11.269,8.139 1.252,0.626 11.27,-8.139 -3.757,-1.879 -11.288,8.149 -1.234,-0.635 11.27,-8.14"
   style="fill:none;stroke:#b3b3b3;stroke-width:0.27px"
   id="path80" />
                    </g>
                    <g
   transform="translate(1.23026,-4.40451)"
   id="g100">
                        <g
   transform="matrix(1.25,0,0,1.5,-177.993,-30.0017)"
   id="g86">
                            <path
   d="m 643.457,111.194 c 1.368,-0.195 2.752,0.708 2.677,1.742 -0.081,1.127 -1.82,1.68 -3.005,1.461 -1.359,-0.251 -1.91,-0.428 -2.004,-1.461 -0.079,-0.872 0.848,-1.53 2.332,-1.742 z"
   style="fill:#e9e6d6;stroke:#e1ddc8;stroke-width:0.19px"
   id="path84" />
                        </g>
                        <g
   transform="matrix(1.25,0,0,1.5,-169.754,-25.882)"
   id="g90">
                            <path
   d="m 643.457,111.194 c 1.368,-0.195 2.752,0.708 2.677,1.742 -0.081,1.127 -1.82,1.68 -3.005,1.461 -1.359,-0.251 -1.91,-0.428 -2.004,-1.461 -0.079,-0.872 0.848,-1.53 2.332,-1.742 z"
   style="fill:#e9e6d6;stroke:#e1ddc8;stroke-width:0.19px"
   id="path88" />
                        </g>
                        <g
   transform="matrix(1.25,0,0,1.5,-183.984,-25.754)"
   id="g94">
                            <path
   d="m 643.457,111.194 c 1.368,-0.195 2.752,0.708 2.677,1.742 -0.081,1.127 -1.82,1.68 -3.005,1.461 -1.359,-0.251 -1.91,-0.428 -2.004,-1.461 -0.079,-0.872 0.848,-1.53 2.332,-1.742 z"
   style="fill:#e9e6d6;stroke:#e1ddc8;stroke-width:0.19px"
   id="path92" />
                        </g>
                        <g
   transform="matrix(1.25,0,0,1.5,-175.933,-21.7282)"
   id="g98">
                            <path
   d="m 643.457,111.194 c 1.368,-0.195 2.752,0.708 2.677,1.742 -0.081,1.127 -1.82,1.68 -3.005,1.461 -1.359,-0.251 -1.91,-0.428 -2.004,-1.461 -0.079,-0.872 0.848,-1.53 2.332,-1.742 z"
   style="fill:#e9e6d6;stroke:#e1ddc8;stroke-width:0.19px"
   id="path96" />
                        </g>
                    </g>
                    <g
   transform="translate(0,-7.51319)"
   id="g106">
                        <path
   d="m 617.224,142.989 15.136,7.513 11.27,-8.139 -15.027,-7.513 z"
   style="fill:none;stroke:#b3b3b3;stroke-width:0.27px"
   id="path102" />
                        <path
   d="m 618.586,143.615 11.27,-8.139 1.252,0.626 -11.27,8.139 1.252,0.626 11.27,-8.139 1.252,0.626 -11.27,8.139 1.253,0.626 11.269,-8.139 1.253,0.626 -11.27,8.139 3.756,1.879 11.27,-8.14 1.252,0.627 -11.269,8.139 1.252,0.626 11.27,-8.139 -3.757,-1.879 -11.288,8.149 -1.234,-0.635 11.27,-8.14"
   style="fill:none;stroke:#b3b3b3;stroke-width:0.27px"
   id="path104" />
                    </g>
                    <g
   transform="translate(2.32865,-8.79854)"
   id="g116">
                        <g
   transform="matrix(1.25,0,0,1.5,-183.984,-25.754)"
   id="g110">
                            <path
   d="m 643.457,111.194 c 1.368,-0.195 2.752,0.708 2.677,1.742 -0.081,1.127 -1.82,1.68 -3.005,1.461 -1.359,-0.251 -1.91,-0.428 -2.004,-1.461 -0.079,-0.872 0.848,-1.53 2.332,-1.742 z"
   style="fill:#f5e7c9;stroke:#f2deb6;stroke-width:0.19px"
   id="path108" />
                        </g>
                        <g
   transform="matrix(1.25,0,0,1.5,-176.388,-21.918)"
   id="g114">
                            <path
   d="m 643.457,111.194 c 1.368,-0.195 2.752,0.708 2.677,1.742 -0.081,1.127 -1.82,1.68 -3.005,1.461 -1.359,-0.251 -1.91,-0.428 -2.004,-1.461 -0.079,-0.872 0.848,-1.53 2.332,-1.742 z"
   style="fill:#f5e7c9;stroke:#f2deb6;stroke-width:0.19px"
   id="path112" />
                        </g>
                    </g>
                    <g
   transform="translate(1.2522,-11.8959)"
   id="g122">
                        <path
   d="m 617.224,142.989 15.136,7.513 11.27,-8.139 -15.027,-7.513 z"
   style="fill:none;stroke:#b3b3b3;stroke-width:0.27px"
   id="path118" />
                        <path
   d="m 618.586,143.615 11.27,-8.139 1.252,0.626 -11.27,8.139 1.252,0.626 11.27,-8.139 1.252,0.626 -11.27,8.139 1.253,0.626 11.269,-8.139 1.253,0.626 -11.27,8.139 3.756,1.879 11.27,-8.14 1.252,0.627 -11.269,8.139 1.252,0.626 11.27,-8.139 -3.757,-1.879 -11.288,8.149 -1.234,-0.635 11.27,-8.14"
   style="fill:none;stroke:#b3b3b3;stroke-width:0.27px"
   id="path120" />
                    </g>
                    <g
   transform="translate(3.42703,-13.1926)"
   id="g132">
                        <g
   transform="matrix(1.25,0,0,1.5,-183.984,-25.754)"
   id="g126">
                            <path
   d="m 643.457,111.194 c 1.368,-0.195 2.752,0.708 2.677,1.742 -0.081,1.127 -1.82,1.68 -3.005,1.461 -1.359,-0.251 -1.91,-0.428 -2.004,-1.461 -0.079,-0.872 0.848,-1.53 2.332,-1.742 z"
   style="fill:#fef5c1;stroke:#fdf1ab;stroke-width:0.19px"
   id="path124" />
                        </g>
                        <g
   transform="matrix(1.25,0,0,1.5,-175.933,-21.7282)"
   id="g130">
                            <path
   d="m 643.457,111.194 c 1.368,-0.195 2.752,0.708 2.677,1.742 -0.081,1.127 -1.82,1.68 -3.005,1.461 -1.359,-0.251 -1.91,-0.428 -2.004,-1.461 -0.079,-0.872 0.848,-1.53 2.332,-1.742 z"
   style="fill:#fef5c1;stroke:#fff2aa;stroke-width:0.19px"
   id="path128" />
                        </g>
                    </g>
                </g>
                <g
   transform="translate(0.00872614,-0.409312)"
   id="g138">
                    <path
   d="m 640.932,151.031 1.349,-20.613 -6.164,3.179 -17.531,-8.765 c -0.866,-0.426 -1.277,-0.838 -1.291,-1.238 -0.016,-0.435 -3.698,21.483 -3.725,21.899 -0.029,0.439 0.367,0.858 1.259,1.252 l 14.971,7.542 c 1.821,0.929 3.503,0.868 5.064,-0.028 z"
   style="fill:url(#_Linear2);stroke:#c3dcdc;stroke-width:0.27px"
   id="path136" />
                </g>
                <path
   d="m 632.36,155.317 13.774,-6.693 v 7.513 l -13.774,6.887 z"
   style="fill:#816c5a;stroke:#000000;stroke-width:0.27px"
   id="path140" />
                <path
   d="m 612.325,145.493 20.035,9.824 v 7.707 l -20.035,-10.018 z"
   style="fill:#524646;stroke:#000000;stroke-width:0.27px"
   id="path142" />
                <path
   d="m 646.134,124.832 -11.27,5.635 v 3.756 l 7.514,-3.756 -1.446,20.564 5.202,-2.407 z"
   style="fill:#e7e5d7;stroke:#000000;stroke-width:0.27px"
   id="path144" />
                <path
   d="m 646.134,124.832 -11.27,5.635 -20.035,-10.018 11.27,-5.635 20.035,10.018"
   style="fill:#f3f2ee;stroke:#000000;stroke-width:0.27px"
   id="path146" />
                <path
   d="m 614.829,120.449 v 3.757 l 20.035,10.017 v -3.756 z"
   style="fill:#f2f1e8;stroke:#000000;stroke-width:0.27px"
   id="path148" />
            </g>
            <g
   id="fry"
   transform="translate(85.6915,-130.952)">
                <path
   d="m 535.941,362.75 v -30.053 l 5.009,2.504 v 25.044 z"
   style="fill:#cccccc;stroke:#000000;stroke-width:0.5px"
   id="path151" />
                <g
   transform="translate(-84.6243,129.966)"
   id="g155">
                    <path
   d="m 703.735,268.835 -38.419,-19.21 2.575,-31.634 36.314,18.157 z"
   style="fill:none;stroke:#b3b3b3;stroke-width:0.5px"
   id="path153" />
                </g>
                <path
   d="m 540.95,360.245 -20.036,10.018 80.141,40.07 20.035,-10.017 z"
   style="fill:#999999;stroke:#000000;stroke-width:0.5px"
   id="path157" />
                <path
   d="m 520.914,370.263 v 7.513 l 80.141,40.07 v -7.513 z"
   style="fill:#404040;stroke:#000000;stroke-width:0.5px"
   id="path159" />
                <path
   d="m 621.09,400.316 v -40.071 l -15.026,7.513 -5.009,42.575"
   style="fill:none;stroke:#000000;stroke-width:0.5px"
   id="path161" />
                <g
   id="g193">
                    <g
   transform="matrix(0.828426,0,0,0.828426,86.9828,13.3502)"
   id="g167">
                        <path
   d="m 550.752,422.041 c -4.979,1.623 -10.185,2.782 -11.799,4.866 -3.767,4.863 5.438,9.229 15.998,-1.035 0.906,-1.17 0.213,-5.461 -4.199,-3.831 z"
   style="fill:#e59f51;stroke:#000000;stroke-width:0.12px"
   id="path163" />
                        <path
   d="m 554.951,423.367 3.529,-1.764"
   style="fill:none;stroke:#b99770;stroke-width:0.6px"
   id="path165" />
                    </g>
                    <g
   transform="matrix(0.828426,0,0,0.828426,92.5296,16.7875)"
   id="g173">
                        <path
   d="m 550.752,422.041 c -4.979,1.623 -10.185,2.782 -11.799,4.866 -3.767,4.863 5.438,9.229 15.998,-1.035 0.906,-1.17 0.213,-5.461 -4.199,-3.831 z"
   style="fill:#e59f51;stroke:#000000;stroke-width:0.12px"
   id="path169" />
                        <path
   d="m 554.951,423.367 3.529,-1.764"
   style="fill:none;stroke:#b99770;stroke-width:0.6px"
   id="path171" />
                    </g>
                    <g
   transform="matrix(0.828426,0,0,0.828426,98.841,19.9431)"
   id="g179">
                        <path
   d="m 550.752,422.041 c -4.979,1.623 -10.185,2.782 -11.799,4.866 -3.767,4.863 5.438,9.229 15.998,-1.035 0.906,-1.17 0.213,-5.461 -4.199,-3.831 z"
   style="fill:#e59f51;stroke:#000000;stroke-width:0.12px"
   id="path175" />
                        <path
   d="m 554.951,423.367 3.529,-1.764"
   style="fill:none;stroke:#b99770;stroke-width:0.6px"
   id="path177" />
                    </g>
                    <g
   transform="matrix(0.828426,0,0,0.828426,91.111,12.488)"
   id="g185">
                        <path
   d="m 550.752,422.041 c -4.979,1.623 -10.185,2.782 -11.799,4.866 -3.767,4.863 5.438,9.229 15.998,-1.035 0.906,-1.17 0.213,-5.461 -4.199,-3.831 z"
   style="fill:#e59f51;stroke:#000000;stroke-width:0.12px"
   id="path181" />
                        <path
   d="m 554.951,423.367 3.529,-1.764"
   style="fill:none;stroke:#b99770;stroke-width:0.6px"
   id="path183" />
                    </g>
                    <g
   transform="matrix(0.828426,0,0,0.828426,97.4295,15.5394)"
   id="g191">
                        <path
   d="m 550.752,422.041 c -4.979,1.623 -10.185,2.782 -11.799,4.866 -3.767,4.863 5.438,9.229 15.998,-1.035 0.906,-1.17 0.213,-5.461 -4.199,-3.831 z"
   style="fill:#e59f51;stroke:#000000;stroke-width:0.12px"
   id="path187" />
                        <path
   d="m 554.951,423.367 3.529,-1.764"
   style="fill:none;stroke:#b99770;stroke-width:0.6px"
   id="path189" />
                    </g>
                </g>
                <g
   id="g229">
                    <g
   transform="matrix(0.741795,0,0,0.741795,178.071,43.8258)"
   id="g197">
                        <path
   d="m 528.428,454.16 c 1.905,1.313 4.207,2.427 6.796,3.398 2.076,-0.336 3.772,-1.052 4.824,-2.412 l 0.902,-11.265 c -1.159,1.42 -3.361,2.461 -6.398,3.199 -3.855,-1.308 -6.653,-2.711 -8.629,-4.19 z"
   style="fill:#d38d3f;stroke:#000000;stroke-width:0.13px"
   id="path195" />
                    </g>
                    <g
   transform="matrix(0.741795,0,0,0.741795,170.127,49.6554)"
   id="g227">
                        <g
   transform="translate(0,0.540094)"
   id="g201">
                            <path
   d="m 526.264,442.323 -2.315,-4.248 c -0.487,-1.841 -0.386,-3.254 1.007,-3.728 l 2.197,0.415 c 2.015,2.993 1.139,5.724 1.04,8.525 z"
   style="fill:#d3c05f;stroke:#000000;stroke-width:0.13px"
   id="path199" />
                        </g>
                        <g
   transform="translate(1.64169,5.5508)"
   id="g205">
                            <path
   d="m 527.984,434.347 c -0.099,-1.322 -1.05,-2.799 -3.028,-4.462 0.193,-2.503 1.299,-3.08 3.028,-2.338 4.228,3.808 4.298,6.197 3.422,6.8 l -1.182,2.633 z"
   style="fill:#c9b061;stroke:#000000;stroke-width:0.13px"
   id="path203" />
                        </g>
                        <g
   transform="translate(0.663486,3.42199)"
   id="g209">
                            <path
   d="m 530.067,438.314 c -0.128,-1.704 -0.209,-3.412 0.338,-5.178 l 1.894,-0.947 c 1.5,0.141 1.932,1.164 1.895,2.842 l -0.871,6.55 -2.918,-0.278 z"
   style="fill:#b68544;stroke:#000000;stroke-width:0.13px"
   id="path207" />
                        </g>
                        <g
   transform="translate(-0.688187,1.55278)"
   id="g213">
                            <path
   d="m 536.844,439.934 c 0.457,-1.407 1.244,-2.857 3.068,-4.435 0.72,0.873 1.248,1.811 1.456,2.855 -0.975,3.086 -1.949,4.586 -2.923,5.788 h -3.816 z"
   style="fill:#d6ba2e;stroke:#000000;stroke-width:0.13px"
   id="path211" />
                        </g>
                        <g
   transform="translate(-0.729037,3.4417)"
   id="g217">
                            <path
   d="m 530.748,441.891 -3.909,-6.056 c -0.246,-2.482 0.857,-2.754 2.49,-2.161 1.906,1.981 2.819,3.962 3.14,5.943 -0.023,2.592 -0.673,3.097 -1.721,2.274 z"
   style="fill:#dfcc6c;stroke:#000000;stroke-width:0.13px"
   id="path215" />
                        </g>
                        <g
   transform="translate(1.10031,5.26527)"
   id="g221">
                            <path
   d="m 533.58,440.8 c -1.195,-2.295 -1.452,-4.693 -1.111,-7.159 l 2.076,-3.11 c 1.147,0.072 1.922,0.665 2.215,1.932 l -1.647,8.337 z"
   style="fill:#d3c05f;stroke:#000000;stroke-width:0.13px"
   id="path219" />
                        </g>
                        <g
   transform="translate(-0.96706,-2.02087)"
   id="g225">
                            <path
   d="m 528.428,454.16 c 1.905,1.313 4.207,2.427 6.796,3.398 2.076,-0.336 3.772,-1.052 4.824,-2.412 l 0.902,-11.265 c -1.159,1.42 -3.361,2.461 -6.398,3.199 -3.855,-1.308 -6.653,-2.711 -8.629,-4.19 z"
   style="fill:#d38d3f;stroke:#000000;stroke-width:0.13px"
   id="path223" />
                        </g>
                    </g>
                </g>
                <g
   id="g285">
                    <g
   id="g247">
                        <g
   transform="matrix(0.828426,0,0,0.828426,142.808,24.3252)"
   id="g233">
                            <path
   d="m 528.942,443.315 -1.934,-0.967 c -0.509,-1.299 -0.278,-2.506 0.579,-3.634 l 2.26,-0.29 c 0.835,1.138 1.67,1.48 2.505,1.252 l 1.084,1.962 -1.655,1.677 z"
   style="fill:#845928;stroke:#000000;stroke-width:0.12px"
   id="path231" />
                        </g>
                        <g
   transform="matrix(0.808606,0,0,0.828426,143.228,22.7959)"
   id="g237">
                            <path
   d="m 533.436,444.142 c -1.276,-1.022 -1.665,-2.07 0,-5.008 3.941,0.391 4.339,-0.131 5.009,0 0.926,1.302 1.287,2.605 0.638,3.908 l -2.201,1.1 z"
   style="fill:#795328;stroke:#000000;stroke-width:0.12px"
   id="path235" />
                        </g>
                        <g
   transform="matrix(0.828426,0,0,0.828426,102.051,24.2049)"
   id="g241">
                            <path
   d="m 578.177,437.529 c -2.096,-0.306 -3.147,-0.82 -3.534,-1.468 -0.38,-0.683 -0.474,-1.48 0,-2.504 0.066,-0.564 0.802,-0.98 2.405,-1.203 2.387,0.228 4.148,0.634 5.34,1.203 0.568,2.18 0.082,3.043 -0.718,3.514 -1.7,-0.276 -2.65,0.048 -3.493,0.458 z"
   style="fill:#895519;stroke:#010002;stroke-width:0.12px"
   id="path239" />
                        </g>
                        <g
   transform="matrix(0.828426,0,0,0.828426,136.578,23.4949)"
   id="g245">
                            <path
   d="m 530.775,438.888 c -0.701,-1.17 -0.85,-2.341 0.157,-3.511 h 3.328 l 3.35,1.675 c 0.623,1.223 0.508,2.076 -0.234,2.616 -2.802,0.877 -5.339,1.253 -6.601,-0.78 z"
   style="fill:#895519;stroke:#000000;stroke-width:0.12px"
   id="path243" />
                        </g>
                    </g>
                    <g
   transform="rotate(-168.88844,582.49282,388.16022)"
   id="g265">
                        <g
   transform="matrix(0.828426,0,0,0.828426,142.808,24.3252)"
   id="g251">
                            <path
   d="m 528.942,443.315 -1.934,-0.967 c -0.509,-1.299 -0.278,-2.506 0.579,-3.634 l 2.26,-0.29 c 0.835,1.138 1.67,1.48 2.505,1.252 l 1.084,1.962 -1.655,1.677 z"
   style="fill:#845928;stroke:#000000;stroke-width:0.12px"
   id="path249" />
                        </g>
                        <g
   transform="matrix(0.808606,0,0,0.828426,143.228,22.7959)"
   id="g255">
                            <path
   d="m 533.436,444.142 c -1.276,-1.022 -1.665,-2.07 0,-5.008 3.941,0.391 4.339,-0.131 5.009,0 0.926,1.302 1.287,2.605 0.638,3.908 l -2.201,1.1 z"
   style="fill:#795328;stroke:#000000;stroke-width:0.12px"
   id="path253" />
                        </g>
                        <g
   transform="matrix(0.828426,0,0,0.828426,102.051,24.2049)"
   id="g259">
                            <path
   d="m 578.177,437.529 c -2.096,-0.306 -3.147,-0.82 -3.534,-1.468 -0.38,-0.683 -0.474,-1.48 0,-2.504 0.066,-0.564 0.802,-0.98 2.405,-1.203 2.387,0.228 4.148,0.634 5.34,1.203 0.568,2.18 0.082,3.043 -0.718,3.514 -1.7,-0.276 -2.65,0.048 -3.493,0.458 z"
   style="fill:#895519;stroke:#010002;stroke-width:0.12px"
   id="path257" />
                        </g>
                        <g
   transform="matrix(0.828426,0,0,0.828426,136.578,23.4949)"
   id="g263">
                            <path
   d="m 530.775,438.888 c -0.701,-1.17 -0.85,-2.341 0.157,-3.511 h 3.328 l 3.35,1.675 c 0.623,1.223 0.508,2.076 -0.234,2.616 -2.802,0.877 -5.339,1.253 -6.601,-0.78 z"
   style="fill:#895519;stroke:#000000;stroke-width:0.12px"
   id="path261" />
                        </g>
                    </g>
                    <g
   transform="rotate(118.06325,583.67321,393.3575)"
   id="g283">
                        <g
   transform="matrix(0.828426,0,0,0.828426,142.808,24.3252)"
   id="g269">
                            <path
   d="m 528.942,443.315 -1.934,-0.967 c -0.509,-1.299 -0.278,-2.506 0.579,-3.634 l 2.26,-0.29 c 0.835,1.138 1.67,1.48 2.505,1.252 l 1.084,1.962 -1.655,1.677 z"
   style="fill:#845928;stroke:#000000;stroke-width:0.12px"
   id="path267" />
                        </g>
                        <g
   transform="matrix(0.808606,0,0,0.828426,143.228,22.7959)"
   id="g273">
                            <path
   d="m 533.436,444.142 c -1.276,-1.022 -1.665,-2.07 0,-5.008 3.941,0.391 4.339,-0.131 5.009,0 0.926,1.302 1.287,2.605 0.638,3.908 l -2.201,1.1 z"
   style="fill:#795328;stroke:#000000;stroke-width:0.12px"
   id="path271" />
                        </g>
                        <g
   transform="matrix(0.828426,0,0,0.828426,102.051,24.2049)"
   id="g277">
                            <path
   d="m 578.177,437.529 c -2.096,-0.306 -3.147,-0.82 -3.534,-1.468 -0.38,-0.683 -0.474,-1.48 0,-2.504 0.066,-0.564 0.802,-0.98 2.405,-1.203 2.387,0.228 4.148,0.634 5.34,1.203 0.568,2.18 0.082,3.043 -0.718,3.514 -1.7,-0.276 -2.65,0.048 -3.493,0.458 z"
   style="fill:#895519;stroke:#010002;stroke-width:0.12px"
   id="path275" />
                        </g>
                        <g
   transform="matrix(0.828426,0,0,0.828426,136.578,23.4949)"
   id="g281">
                            <path
   d="m 530.775,438.888 c -0.701,-1.17 -0.85,-2.341 0.157,-3.511 h 3.328 l 3.35,1.675 c 0.623,1.223 0.508,2.076 -0.234,2.616 -2.802,0.877 -5.339,1.253 -6.601,-0.78 z"
   style="fill:#895519;stroke:#000000;stroke-width:0.12px"
   id="path279" />
                        </g>
                    </g>
                </g>
                <path
   d="m 528.428,371.515 v -2.504 l 70.123,35.061 v 2.505 z"
   style="fill:#ffffff;stroke:#000000;stroke-width:0.1px"
   id="path287" />
                <path
   d="m 618.586,381.533 -15.027,7.513 -80.14,-40.071 -0.313,2.661 80.175,39.775 15.305,-7.652 z"
   style="fill:#999999;stroke:#000000;stroke-width:0.5px"
   id="path289" />
                <path
   d="m 523.419,348.975 15.026,-7.513 80.141,40.071 -15.027,7.513 z"
   style="fill:#a6a6a6;stroke:#000000;stroke-width:0.5px"
   id="path291" />
                <g
   transform="translate(-0.709306,0.26599)"
   id="g353">
                    <g
   transform="matrix(0.828426,0,0,0.828426,90.8866,-7.9639)"
   id="g303">
                        <path
   d="m 537.708,429.485 c -1.105,1.105 -0.213,3.638 3.242,3.388 l 14.001,-7.001 c 0.906,-1.17 0.428,-4.647 -3.984,-3.017 0,0 -11.589,4.96 -13.259,6.63 z"
   style="fill:#d07e55;stroke:#000000;stroke-width:0.12px"
   id="path293" />
                        <path
   d="m 540.242,428.218 3.489,0.574"
   style="fill:none;stroke:#845928;stroke-width:0.12px"
   id="path295" />
                        <path
   d="m 543.952,426.363 3.467,0.585"
   style="fill:none;stroke:#845928;stroke-width:0.12px"
   id="path297" />
                        <path
   d="m 547.419,424.629 3.363,0.638"
   style="fill:none;stroke:#845928;stroke-width:0.12px"
   id="path299" />
                        <path
   d="m 554.951,423.367 3.529,-1.764"
   style="fill:none;stroke:#b99770;stroke-width:0.6px"
   id="path301" />
                    </g>
                    <g
   transform="matrix(0.828426,0,0,0.828426,93.943,-6.43569)"
   id="g315">
                        <path
   d="m 537.708,429.485 c -1.105,1.105 -0.213,3.638 3.242,3.388 l 14.001,-7.001 c 0.906,-1.17 0.428,-4.647 -3.984,-3.017 0,0 -11.589,4.96 -13.259,6.63 z"
   style="fill:#d07e55;stroke:#000000;stroke-width:0.12px"
   id="path305" />
                        <path
   d="m 540.242,428.218 3.489,0.574"
   style="fill:none;stroke:#845928;stroke-width:0.12px"
   id="path307" />
                        <path
   d="m 543.952,426.363 3.467,0.585"
   style="fill:none;stroke:#845928;stroke-width:0.12px"
   id="path309" />
                        <path
   d="m 547.419,424.629 3.363,0.638"
   style="fill:none;stroke:#845928;stroke-width:0.12px"
   id="path311" />
                        <path
   d="m 554.951,423.367 3.529,-1.764"
   style="fill:none;stroke:#b99770;stroke-width:0.6px"
   id="path313" />
                    </g>
                    <g
   transform="matrix(0.828426,0,0,0.828426,96.9994,-4.90748)"
   id="g327">
                        <path
   d="m 537.708,429.485 c -1.105,1.105 -0.213,3.638 3.242,3.388 l 14.001,-7.001 c 0.906,-1.17 0.428,-4.647 -3.984,-3.017 0,0 -11.589,4.96 -13.259,6.63 z"
   style="fill:#d07e55;stroke:#000000;stroke-width:0.12px"
   id="path317" />
                        <path
   d="m 540.242,428.218 3.489,0.574"
   style="fill:none;stroke:#845928;stroke-width:0.12px"
   id="path319" />
                        <path
   d="m 543.952,426.363 3.467,0.585"
   style="fill:none;stroke:#845928;stroke-width:0.12px"
   id="path321" />
                        <path
   d="m 547.419,424.629 3.363,0.638"
   style="fill:none;stroke:#845928;stroke-width:0.12px"
   id="path323" />
                        <path
   d="m 554.951,423.367 3.529,-1.764"
   style="fill:none;stroke:#b99770;stroke-width:0.6px"
   id="path325" />
                    </g>
                    <g
   transform="matrix(0.828426,0,0,0.828426,92.9277,-8.98444)"
   id="g339">
                        <path
   d="m 537.708,429.485 c -1.105,1.105 -0.213,3.638 3.242,3.388 l 14.001,-7.001 c 0.906,-1.17 0.428,-4.647 -3.984,-3.017 0,0 -11.589,4.96 -13.259,6.63 z"
   style="fill:#d07e55;stroke:#000000;stroke-width:0.12px"
   id="path329" />
                        <path
   d="m 540.242,428.218 3.489,0.574"
   style="fill:none;stroke:#845928;stroke-width:0.12px"
   id="path331" />
                        <path
   d="m 543.952,426.363 3.467,0.585"
   style="fill:none;stroke:#845928;stroke-width:0.12px"
   id="path333" />
                        <path
   d="m 547.419,424.629 3.363,0.638"
   style="fill:none;stroke:#845928;stroke-width:0.12px"
   id="path335" />
                        <path
   d="m 554.951,423.367 3.529,-1.764"
   style="fill:none;stroke:#b99770;stroke-width:0.6px"
   id="path337" />
                    </g>
                    <g
   transform="matrix(0.828426,0,0,0.828426,96.4474,-7.9639)"
   id="g351">
                        <path
   d="m 537.708,429.485 c -1.105,1.105 -0.213,3.638 3.242,3.388 l 14.001,-7.001 c 0.906,-1.17 0.428,-4.647 -3.984,-3.017 0,0 -11.589,4.96 -13.259,6.63 z"
   style="fill:#d07e55;stroke:#000000;stroke-width:0.12px"
   id="path341" />
                        <path
   d="m 540.242,428.218 3.489,0.574"
   style="fill:none;stroke:#845928;stroke-width:0.12px"
   id="path343" />
                        <path
   d="m 543.952,426.363 3.467,0.585"
   style="fill:none;stroke:#845928;stroke-width:0.12px"
   id="path345" />
                        <path
   d="m 547.419,424.629 3.363,0.638"
   style="fill:none;stroke:#845928;stroke-width:0.12px"
   id="path347" />
                        <path
   d="m 554.951,423.367 3.529,-1.764"
   style="fill:none;stroke:#b99770;stroke-width:0.6px"
   id="path349" />
                    </g>
                </g>
                <g
   id="g371">
                    <g
   transform="matrix(0.828426,0,0,0.828426,111.142,11.2874)"
   id="g357">
                        <path
   d="m 535.312,412.209 c 3.112,0 5.71,1.265 5.638,2.819 -0.122,2.61 -3.053,3.03 -5.006,3.211 -3.197,0.298 -6.031,0.248 -6.269,-3.211 -0.107,-1.552 2.526,-2.819 5.637,-2.819 z"
   style="fill:#d38d3f;stroke:#000000;stroke-width:0.12px"
   id="path355" />
                    </g>
                    <g
   transform="matrix(0.828426,0,0,0.828426,115.128,12.788)"
   id="g361">
                        <path
   d="m 535.312,412.209 c 3.112,0 5.71,1.265 5.638,2.819 -0.122,2.61 -3.053,3.03 -5.006,3.211 -3.197,0.298 -6.031,0.248 -6.269,-3.211 -0.107,-1.552 2.526,-2.819 5.637,-2.819 z"
   style="fill:#d38d3f;stroke:#000000;stroke-width:0.12px"
   id="path359" />
                    </g>
                    <g
   transform="matrix(0.828426,0,0,0.828426,119.115,14.2885)"
   id="g365">
                        <path
   d="m 535.312,412.209 c 3.112,0 5.71,1.265 5.638,2.819 -0.122,2.61 -3.053,3.03 -5.006,3.211 -3.197,0.298 -6.031,0.248 -6.269,-3.211 -0.107,-1.552 2.526,-2.819 5.637,-2.819 z"
   style="fill:#d38d3f;stroke:#000000;stroke-width:0.12px"
   id="path363" />
                    </g>
                    <g
   transform="matrix(0.828426,0,0,0.828426,123.101,15.789)"
   id="g369">
                        <path
   d="m 535.312,412.209 c 3.112,0 5.71,1.265 5.638,2.819 -0.122,2.61 -3.053,3.03 -5.006,3.211 -3.197,0.298 -6.031,0.248 -6.269,-3.211 -0.107,-1.552 2.526,-2.819 5.637,-2.819 z"
   style="fill:#d38d3f;stroke:#000000;stroke-width:0.12px"
   id="path367" />
                    </g>
                </g>
                <g
   id="g389">
                    <g
   transform="matrix(0.703183,-0.351592,0.828317,0.751843,-146.346,239.71)"
   id="g375">
                        <path
   d="m 535.312,412.209 c 3.112,0 5.71,1.265 5.638,2.819 -0.122,2.61 -3.053,3.03 -5.006,3.211 -3.197,0.298 -6.031,0.248 -6.269,-3.211 -0.107,-1.552 2.526,-2.819 5.637,-2.819 z"
   style="fill:#cc7411;stroke:#000000;stroke-width:0.09px"
   id="path373" />
                    </g>
                    <g
   transform="matrix(0.703183,-0.351592,0.828317,0.751843,-144.136,241.11)"
   id="g379">
                        <path
   d="m 535.312,412.209 c 3.112,0 5.71,1.265 5.638,2.819 -0.122,2.61 -3.053,3.03 -5.006,3.211 -3.197,0.298 -6.031,0.248 -6.269,-3.211 -0.107,-1.552 2.526,-2.819 5.637,-2.819 z"
   style="fill:#cc7411;stroke:#000000;stroke-width:0.09px"
   id="path377" />
                    </g>
                    <g
   transform="matrix(0.703183,-0.351592,0.828317,0.751843,-141.562,242.098)"
   id="g383">
                        <path
   d="m 535.312,412.209 c 3.112,0 5.71,1.265 5.638,2.819 -0.122,2.61 -3.053,3.03 -5.006,3.211 -3.197,0.298 -6.031,0.248 -6.269,-3.211 -0.107,-1.552 2.526,-2.819 5.637,-2.819 z"
   style="fill:#cc7411;stroke:#000000;stroke-width:0.09px"
   id="path381" />
                    </g>
                    <g
   transform="matrix(0.703183,-0.351592,0.828317,0.751843,-138.987,243.086)"
   id="g387">
                        <path
   d="m 535.312,412.209 c 3.112,0 5.71,1.265 5.638,2.819 -0.122,2.61 -3.053,3.03 -5.006,3.211 -3.197,0.298 -6.031,0.248 -6.269,-3.211 -0.107,-1.552 2.526,-2.819 5.637,-2.819 z"
   style="fill:#cc7411;stroke:#000000;stroke-width:0.09px"
   id="path385" />
                    </g>
                </g>
                <g
   id="g403">
                    <g
   transform="matrix(0.828426,0,0,0.828426,106.389,17.9183)"
   id="g393">
                        <path
   d="m 576.011,427.864 10.018,-5.009 c 4.608,-0.548 6.494,1.396 7.513,3.757 l -10.018,5.008 c -3.085,0.575 -5.622,-0.574 -7.513,-3.756 z"
   style="fill:#d38d3f;stroke:#000000;stroke-width:0.12px"
   id="path391" />
                    </g>
                    <g
   transform="matrix(0.828426,0,0,0.828426,109.91,19.6788)"
   id="g397">
                        <path
   d="m 576.011,427.864 10.018,-5.009 c 4.608,-0.548 6.494,1.396 7.513,3.757 l -10.018,5.008 c -3.085,0.575 -5.622,-0.574 -7.513,-3.756 z"
   style="fill:#d38d3f;stroke:#000000;stroke-width:0.12px"
   id="path395" />
                    </g>
                    <g
   transform="matrix(0.828426,0,0,0.828426,114.311,21.8793)"
   id="g401">
                        <path
   d="m 576.011,427.864 10.018,-5.009 c 4.608,-0.548 6.494,1.396 7.513,3.757 l -10.018,5.008 c -3.085,0.575 -5.622,-0.574 -7.513,-3.756 z"
   style="fill:#d38d3f;stroke:#000000;stroke-width:0.12px"
   id="path399" />
                    </g>
                </g>
                <path
   d="m 530.932,350.228 v -2.505 l 72.627,36.314 v 2.504 z"
   style="fill:#ffffff;stroke:#000000;stroke-width:0.1px"
   id="path405" />
                <g
   transform="translate(-0.176117,-0.0847423)"
   id="g409">
                    <path
   d="m 520.914,370.263 5.009,-42.575 80.141,40.07 -5.009,42.575 z"
   style="fill:url(#_Linear3);stroke:#000000;stroke-width:0.5px"
   id="path407" />
                </g>
                <path
   d="m 525.923,372.767 5.009,-42.575 -5.009,-2.504 -5.009,42.575 z"
   style="fill:#534545;stroke:#000000;stroke-width:0.5px"
   id="path411" />
                <path
   d="m 606.064,367.758 -5.009,-2.504 -5.009,42.575 5.009,2.504 z"
   style="fill:#534545;stroke:#000000;stroke-width:0.5px"
   id="path413" />
                <path
   d="m 601.055,410.333 20.035,-10.017 v 7.513 l -20.035,10.017 z"
   style="fill:#595959;stroke:#000000;stroke-width:0.5px"
   id="path415" />
                <path
   d="m 601.055,410.333 5.009,-42.575 15.026,-7.513 v 40.071 l -5.009,2.504 v -37.566 l -7.513,3.757 -5.009,40.07 z"
   style="fill:#696060;stroke:#000000;stroke-width:0.5px"
   id="path417" />
                <path
   d="m 606.064,367.758 v -7.281 l 15.026,-7.745 v 7.513 z"
   style="fill:#f2f2f2;stroke:#000000;stroke-width:0.5px"
   id="path419" />
                <path
   d="m 525.923,320.175 15.027,-7.513 80.14,40.07 -15.026,7.513 z"
   style="fill:#f2f2f2;stroke:#000000;stroke-width:0.5px"
   id="path421" />
                <path
   d="m 606.064,360.477 -80.141,-40.302 v 7.513 l 80.141,40.07 z"
   style="fill:#e4e4e4;stroke:#000000;stroke-width:0.5px"
   id="path423" />
            </g>
            <g
   id="register"
   transform="matrix(1.91804,0,0,1.54859,120.879,-245.633)">
                <g
   transform="matrix(0.901321,0,0,1.11635,28.5911,-42.1073)"
   id="g428">
                    <path
   d="m 318.058,345.219 1.253,-0.626 2.512,0.004 6.253,3.126 h -2.505 l -1.26,0.622 z"
   style="fill:none;stroke:#000000;stroke-width:0.06px;stroke-linecap:round"
   id="path426" />
                </g>
                <g
   transform="matrix(0.901321,0,0,1.11635,24.0693,-29.5309)"
   id="g432">
                    <path
   d="m 323.075,333.953 6.253,3.135 v 2.496 l -6.261,-3.131 v 0.021 z"
   style="fill:none;stroke:#000000;stroke-width:0.06px;stroke-linecap:round"
   id="path430" />
                </g>
                <g
   transform="matrix(0.901321,0,0,1.11635,24.2852,-44.3897)"
   id="g436">
                    <path
   d="m 325.571,352.732 -3.876,1.893 v 0.654 l 2.504,1.252 3.812,-1.906 v -0.673 z"
   style="fill:#383838;stroke:#000000;stroke-width:0.06px;stroke-linecap:round"
   id="path434" />
                </g>
                <g
   transform="matrix(0.901321,0,0,1.11635,289.073,312.892)"
   id="g440">
                    <path
   d="m 13.748,8.941 14.996,7.533 1.567,10.119 -1.253,0.626 v 2.504 L 26.556,34.728 24.488,33.699 12.522,10.882 V 9.63 Z"
   style="fill:#b6abab;stroke:#000000;stroke-width:0.06px;stroke-linecap:round"
   id="path438" />
                </g>
                <g
   transform="matrix(0.901321,0,0,1.11635,23.2151,-39.1145)"
   id="g444">
                    <path
   d="m 326.824,348.349 -1.051,0.526 1.812,0.906 1.051,-0.526 z"
   style="fill:none;stroke:#000000;stroke-width:0.06px;stroke-linecap:round"
   id="path442" />
                </g>
                <g
   transform="matrix(0.901321,0,0,1.11635,28.5911,-42.1073)"
   id="g448">
                    <path
   d="m 328.076,351.48 6.816,-3.408 -5.822,-2.912 -3.06,1.53 2.066,1.033 z"
   style="fill:#a6a6a6;stroke:#000000;stroke-width:0.06px;stroke-linecap:round"
   id="path446" />
                </g>
                <g
   transform="matrix(0.901321,0,0,1.11635,28.5911,-42.1073)"
   id="g452">
                    <path
   d="m 321.823,360.867 13.069,-6.534 v -6.261 l -6.261,3.13 -0.555,-3.479 h -2.505 l -1.26,0.63 0.008,2.501 -2.496,5.013 z"
   style="fill:#585858;stroke:#000000;stroke-width:0.06px;stroke-linecap:round"
   id="path450" />
                </g>
                <g
   transform="matrix(0.901321,0,0,1.11635,289.073,312.892)"
   id="g456">
                    <path
   d="m 40.07,27.16 -10.483,-5.241 0.724,4.674 h 2.504 l 4.195,2.097 z"
   style="fill:#666666;stroke:#000000;stroke-width:0.06px;stroke-linecap:round"
   id="path454" />
                </g>
                <g
   transform="matrix(0.901321,0,0,1.11635,289.073,312.892)"
   id="g460">
                    <path
   d="m 29.797,23.276 7.769,3.884 -1.808,0.904 -2.943,-1.471 h -2.504 z"
   style="fill:#e6e6e6;stroke:#000000;stroke-width:0.06px;stroke-linecap:round"
   id="path458" />
                </g>
                <g
   transform="matrix(0.901321,0,0,1.11635,289.073,312.892)"
   id="g464">
                    <path
   d="m 37.566,27.16 0.034,0.261 -1.564,0.782 0.278,-0.139 v -0.277"
   style="fill:none;stroke:#000000;stroke-width:0.06px;stroke-linecap:round"
   id="path462" />
                </g>
                <g
   transform="matrix(0.901321,0,0,1.11635,289.073,312.892)"
   id="g468">
                    <path
   d="m 35.062,25.908 -1.808,0.904 1.252,0.626 1.808,-0.904 1.252,0.626 -1.252,0.627 -6.261,-3.131 1.252,-0.626 1.252,0.626 -2.363,1.182 0.023,0.153 1.205,0.602 -0.117,-0.059 2.504,-1.252 -3.756,-1.878 -0.219,0.109"
   style="fill:none;stroke:#000000;stroke-width:0.06px;stroke-linecap:round"
   id="path466" />
                </g>
                <g
   transform="matrix(0.901321,0,0,1.11635,289.07,312.891)"
   id="g472">
                    <path
   d="m 27.463,17.656 -15.935,13.29 v 1.282 l 21.295,10.647 v -5.008 l 2.496,-5.013 -6.261,-3.131 -2.504,5.009 z m 1.725,13.352 -2.035,4.023 3.596,1.799 2.129,-3.976 z"
   style="fill:#454545;stroke:#000000;stroke-width:0.06px;stroke-linecap:round"
   id="path470" />
                </g>
                <g
   transform="matrix(0.901321,0,0.158515,1.11635,-27.867,-42.1073)"
   id="g476">
                    <path
   d="m 299.493,348.84 5.867,-20.536 0.707,-0.325 14.316,7.848 -6.033,20.557 -0.832,0.382 z"
   style="fill:#404040;stroke:#000000;stroke-width:0.05px;stroke-linecap:round"
   id="path474" />
                </g>
                <g
   transform="matrix(0.901321,0,0,1.11635,28.1327,-42.041)"
   id="g480">
                    <path
   d="m 299.55,348.144 14.015,7.007 1.989,-18.698 -13.957,-6.978 z"
   style="fill:#ffffff;stroke:#fff6b6;stroke-width:0.17px;stroke-linecap:round"
   id="path478" />
                </g>
                <g
   transform="matrix(0.901321,0,0,1.11635,28.2271,-38.0512)"
   id="g484">
                    <path
   d="m 320.555,342.71 c -0.305,-0.471 -0.322,-0.894 0.008,-1.256 l 2.496,1.256 c 0.35,0.587 0.329,0.994 0,1.253 z"
   style="fill:#4d4d4d;stroke:#5b5b5b;stroke-width:0.06px;stroke-linecap:round"
   id="path482" />
                </g>
                <g
   transform="matrix(0.521366,0,0,0.64575,87.622,366.329)"
   id="g488">
                    <path
   d="m 451.119,-33.575 c 0.746,0 1.788,-0.065 2.259,0.559 0.356,0.471 4.34,4.527 5.782,4.794 1.083,0.2 0.816,3.645 0.736,4.242 -0.231,1.728 -0.059,3.482 -0.688,4.453 -4.159,6.418 4.621,2.525 6.102,-2.921"
   style="fill:none;stroke:#5b5b5b;stroke-width:0.3px;stroke-linecap:round"
   id="path486" />
                </g>
                <g
   transform="matrix(0.901321,0,0,1.11635,28.2271,-38.0694)"
   id="g492">
                    <path
   d="m 326.824,343.341 c 0.525,-0.243 0.591,-0.638 0,-1.253 l -3.304,-1.652 c -0.281,-0.087 -0.548,-0.093 -0.807,-0.049 l -2.158,1.079 2.524,1.242 c 0.331,0.591 0.326,1.004 0,1.244 l 2.492,-1.238 z"
   style="fill:#737373;stroke:#000000;stroke-width:0.06px;stroke-linecap:round"
   id="path490" />
                </g>
                <g
   transform="matrix(0.521366,0,0,0.64575,-54.2811,145.898)"
   id="g508">
                    <path
   d="m 750.631,316.32 c -0.312,-0.414 -0.135,-0.899 0.531,-1.232 0.907,-0.454 2.38,-0.454 3.287,0 0.666,0.333 0.843,0.818 0.531,1.232 0.312,0.414 0.135,0.9 -0.531,1.233 -0.907,0.454 -2.38,0.454 -3.287,0 -0.666,-0.333 -0.843,-0.819 -0.531,-1.233 z"
   style="fill:#79689f;stroke:#000000;stroke-width:0.1px;stroke-linecap:round"
   id="path494" />
                    <g
   transform="matrix(0.740924,0,0,0.740924,195.034,81.8446)"
   id="g498">
                        <path
   d="m 751.162,315.088 c 0.907,-0.454 2.38,-0.454 3.287,0 0.907,0.453 0.907,1.19 0,1.643 -0.907,0.454 -2.38,0.454 -3.287,0 -0.907,-0.453 -0.907,-1.19 0,-1.643 z"
   style="fill:#483684;stroke:#000000;stroke-width:0.13px;stroke-linecap:round"
   id="path496" />
                    </g>
                    <g
   transform="matrix(0.694624,0,0,0.694624,236.183,96.7269)"
   id="g502">
                        <path
   d="m 745.927,315.701 c 0,0.271 -0.207,0.543 -0.621,0.75 -0.828,0.414 -2.172,0.414 -3,0 -0.345,-0.173 -0.547,-0.39 -0.604,-0.615 v 0 0 c -0.023,-0.089 -0.023,-0.179 -10e-4,-0.268 l -0.016,-6.885 4.224,-0.135 z"
   style="fill:#919191;stroke:#000000;stroke-width:0.14px;stroke-linecap:round"
   id="path500" />
                    </g>
                    <g
   transform="matrix(0.694624,-0.347312,0.694624,0.347312,17.2417,459.795)"
   id="g506">
                        <circle
   cx="743.5"
   cy="315.5"
   r="1.5"
   style="fill:#aab5e7;stroke:#000000;stroke-width:0.1px;stroke-linecap:round"
   id="circle504" />
                    </g>
                </g>
                <g
   transform="matrix(0.37963,0,0,0.4702,76.3693,184.069)"
   id="g540">
                    <path
   d="m 661.161,355.236 20.076,-4.988"
   style="fill:none;stroke:#000000;stroke-width:0.14px;stroke-linecap:round"
   id="path510" />
                    <g
   transform="matrix(0.933333,0,0,0.933333,44.3011,24.5306)"
   id="g528">
                        <g
   transform="matrix(0.894427,-0.447214,0,1.11803,-3.32552,-3.34603)"
   id="g514">
                            <ellipse
   cx="751.79999"
   cy="620.69299"
   rx="5.5999999"
   ry="4.48"
   style="fill:#9b89db;stroke:#000000;stroke-width:0.19px;stroke-linecap:round"
   id="ellipse512" />
                        </g>
                        <g
   transform="matrix(0.894427,-0.447214,0,1.11803,-2.07332,-2.71993)"
   id="g518">
                            <ellipse
   cx="751.79999"
   cy="620.69299"
   rx="5.5999999"
   ry="4.48"
   style="fill:#67407f;stroke:#000000;stroke-width:0.19px;stroke-linecap:round"
   id="ellipse516" />
                        </g>
                        <g
   transform="matrix(0.894427,-0.447214,0,1.11803,-0.821123,-2.09383)"
   id="g522">
                            <path
   d="m 751.8,616.213 c 1.184,0 2.283,0.295 3.188,0.798 1.457,0.809 2.412,2.157 2.412,3.682 0,2.473 -2.509,4.48 -5.6,4.48 -3.091,0 -5.6,-2.007 -5.6,-4.48 0,-2.472 2.509,-4.48 5.6,-4.48 z"
   style="fill:#cabd97;stroke:#000000;stroke-width:0.19px;stroke-linecap:round"
   id="path520" />
                        </g>
                        <g
   transform="translate(0.431075,-1.46774)"
   id="g526">
                            <path
   d="m 672.43,352.732 c 2.765,-1.382 5.009,-0.26 5.009,2.504 0,2.765 -2.244,6.131 -5.009,7.514 -2.764,1.382 -5.008,0.26 -5.008,-2.505 0,-2.187 1.405,-4.752 3.361,-6.412 0.516,-0.438 1.071,-0.813 1.647,-1.101 z m 0,1.695 c 1.829,-0.914 3.314,-0.172 3.314,1.657 0,1.829 -1.485,4.056 -3.314,4.97 -1.828,0.915 -3.313,0.172 -3.313,-1.656 0,-1.829 1.485,-4.056 3.313,-4.971 z"
   style="fill:#ca964f;stroke:#000000;stroke-width:0.15px;stroke-linecap:round"
   id="path524" />
                        </g>
                    </g>
                    <path
   d="m 681.196,350.269 -6.288,1.552 c 0.496,0.355 1.827,1.034 2.072,2.498 l -8.897,2.27 -3.393,-1.466 0.432,-0.871 -3.961,0.984 5.008,2.505 20.036,-5.009 z"
   style="fill:#867e67;stroke:#000000;stroke-width:0.14px;stroke-linecap:round"
   id="path530" />
                    <path
   d="m 681.196,350.228 5.009,2.504 v -1.041 l -5.009,-2.505 v 1.042 l 5.009,2.504"
   style="fill:#595959;stroke:#000000;stroke-width:0.14px;stroke-linecap:round"
   id="path532" />
                    <path
   d="m 673.204,351.241 11.233,-0.434 1.083,0.541 -11.211,0.445"
   style="fill:#cabd97;fill-opacity:0.77;stroke:#000000;stroke-width:0.14px;stroke-linecap:round"
   id="path534" />
                    <path
   d="m 672.036,350.656 11.453,-0.323 -1.21,-0.605 -11.412,0.344"
   style="fill:#9b89db;stroke:#000000;stroke-width:0.14px;stroke-linecap:round"
   id="path536" />
                    <path
   d="m 661.161,365.254 5.008,2.504 20.036,-10.017 v -5.009 l -20.036,5.009 -5.008,-2.505 z"
   style="fill:#534545;stroke:#000000;stroke-width:0.14px;stroke-linecap:round"
   id="path538" />
                </g>
            </g>
        </g>
    </g>
    <defs
   id="defs573">
        <radialGradient
   id="_Radial1"
   cx="0"
   cy="0"
   r="1"
   gradientUnits="userSpaceOnUse"
   gradientTransform="matrix(-16.358,-8.70512,4.35388,-8.18149,626.825,145.756)"><stop
     offset="0"
     style="stop-color:black;stop-opacity:1"
     id="stop546" /><stop
     offset="1"
     style="stop-color:rgb(186,186,186);stop-opacity:1"
     id="stop548" /></radialGradient>
        <linearGradient
   id="_Linear2"
   x1="0"
   y1="0"
   x2="1"
   y2="0"
   gradientUnits="userSpaceOnUse"
   gradientTransform="matrix(33.5202,5.08248,-5.08248,33.5202,616.865,138.053)"><stop
     offset="0"
     style="stop-color:white;stop-opacity:0"
     id="stop551" /><stop
     offset="0.09"
     style="stop-color:white;stop-opacity:0.31"
     id="stop553" /><stop
     offset="0.19"
     style="stop-color:white;stop-opacity:0.59"
     id="stop555" /><stop
     offset="0.52"
     style="stop-color:white;stop-opacity:0.7"
     id="stop557" /><stop
     offset="1"
     style="stop-color:black;stop-opacity:0"
     id="stop559" /></linearGradient>
        <linearGradient
   id="_Linear3"
   x1="0"
   y1="0"
   x2="1"
   y2="0"
   gradientUnits="userSpaceOnUse"
   gradientTransform="matrix(84.4949,8.75613,-8.75613,84.4949,524.504,349.518)"><stop
     offset="0"
     style="stop-color:rgb(255,135,0);stop-opacity:0"
     id="stop562" /><stop
     offset="0.23"
     style="stop-color:rgb(255,135,0);stop-opacity:0.31"
     id="stop564" /><stop
     offset="0.5"
     style="stop-color:rgb(255,135,0);stop-opacity:0.4"
     id="stop566" /><stop
     offset="0.76"
     style="stop-color:rgb(231,139,36);stop-opacity:0.31"
     id="stop568" /><stop
     offset="1"
     style="stop-color:rgb(153,153,153);stop-opacity:0"
     id="stop570" /></linearGradient>
    </defs>
</svg>
