<svg xmlns="http://www.w3.org/2000/svg" xmlns:xlink="http://www.w3.org/1999/xlink" height="641" width="1360.525"><path d="m1080.5 100.5-40 20-40 20-480 240-160-80-40-20-80-40-240 120 120 60 40 20 160 80 40 20 200 100 80-40 40-20 120-60 40-20 80-40-40-20 80-40 40 20 80-40 40-20 120-60 40-20 40-20 40-20-280-140z" fill="#bcbcbc" fill-rule="evenodd"/><path d="m1080.5 380.5-80 40m-200-180 200-100 40-20 40-20 280 140-40 20" fill="none" stroke="#000" stroke-linecap="round" stroke-linejoin="round" stroke-width=".05"/><path d="m1360.5 240.5-360 180m0 0-40-20-80 40 40 20-360 180-560-280 240-120 80 40 40 20 160 80 280-140" fill="none" stroke="#000" stroke-linecap="round" stroke-linejoin="round"/><use height="106.5" transform="translate(839.95 94)" width="160.5" xlink:href="#a"/><use height="39.25" transform="translate(847.35 152)" width="12.4" xlink:href="#b"/><use height="39.25" transform="translate(862.85 144.45)" width="12.4" xlink:href="#b"/><use height="39.25" transform="translate(887.2 131.95)" width="12.4" xlink:href="#b"/><use height="108.25" transform="translate(839.95 60.5)" width="160.5" xlink:href="#c"/><use height="26.85" transform="translate(850.05 130.7)" width="10.5" xlink:href="#d"/><use height="26.85" transform="translate(873.8 119.45)" width="10.5" xlink:href="#e"/><use height="26.85" transform="translate(923.7 93.7)" width="10.5" xlink:href="#d"/><use height="12.25" transform="translate(950.6 83.8)" width="7.7" xlink:href="#f"/><use height="12.25" transform="translate(960.35 89.5)" width="7.7" xlink:href="#f"/><use height="12.25" transform="translate(969.85 83.6)" width="7.7" xlink:href="#f"/><use height="12.25" transform="translate(960.2 76.35)" width="7.7" xlink:href="#f"/><use height="241" transform="translate(799.45)" width="281" xlink:href="#g"/><use height="101" transform="translate(1040 20)" width="41" xlink:href="#h"/><use height="26" transform="translate(1060.5 111.25)" width="51" xlink:href="#i"/><use height="240" transform="translate(1080.5 .5)" width="280" xlink:href="#j"/><use height="106.5" transform="translate(560.5 234)" width="160.5" xlink:href="#a"/><use height="39.25" transform="translate(567.9 292)" width="12.4" xlink:href="#b"/><use height="39.25" transform="translate(583.4 284.45)" width="12.4" xlink:href="#b"/><use height="39.25" transform="translate(607.75 271.95)" width="12.4" xlink:href="#b"/><use height="108.25" transform="translate(560.5 200.5)" width="160.5" xlink:href="#c"/><use height="26.85" transform="translate(570.6 270.7)" width="10.5" xlink:href="#d"/><use height="26.85" transform="translate(594.35 259.45)" width="10.5" xlink:href="#e"/><use height="26.85" transform="translate(644.25 233.7)" width="10.5" xlink:href="#d"/><use height="12.25" transform="translate(671.15 223.8)" width="7.7" xlink:href="#f"/><use height="12.25" transform="translate(680.9 229.5)" width="7.7" xlink:href="#f"/><use height="12.25" transform="translate(690.4 223.6)" width="7.7" xlink:href="#f"/><use height="12.25" transform="translate(680.75 216.35)" width="7.7" xlink:href="#f"/><use height="241" transform="translate(520 140)" width="281" xlink:href="#g"/><use height="240" transform="translate(240.5 140.5)" width="280" xlink:href="#j"/><defs><linearGradient gradientTransform="matrix(.013 0 0 .0162 27.6 -53.25)" gradientUnits="userSpaceOnUse" id="k" spreadMethod="pad" x1="-819.2" x2="819.2"><stop offset="0" stop-color="#484848"/><stop offset="1" stop-color="#aaa"/></linearGradient><linearGradient gradientTransform="matrix(.0056 .0097 -.0943 .0546 -46.35 -11)" gradientUnits="userSpaceOnUse" id="l" spreadMethod="pad" x1="-819.2" x2="819.2"><stop offset="0" stop-color="#6c6c6c"/><stop offset="1" stop-color="#c8c8c8"/></linearGradient><linearGradient gradientTransform="matrix(.0058 0 0 .01 0 -5.3)" gradientUnits="userSpaceOnUse" id="m" spreadMethod="pad" x1="-819.2" x2="819.2"><stop offset="0" stop-color="#8d8572"/><stop offset=".51" stop-color="#9f978a" stop-opacity=".502"/><stop offset="1" stop-color="#8d8572"/></linearGradient><linearGradient gradientTransform="matrix(.0058 0 0 .0029 0 -13.85)" gradientUnits="userSpaceOnUse" id="n" spreadMethod="pad" x1="-819.2" x2="819.2"><stop offset="0" stop-color="#8d8572"/><stop offset=".51" stop-color="#7b7264" stop-opacity=".502"/><stop offset="1" stop-color="#8d8572"/></linearGradient><linearGradient gradientTransform="matrix(.0055 .0096 -.0945 .0543 -46.65 -43.4)" gradientUnits="userSpaceOnUse" id="o" spreadMethod="pad" x1="-819.2" x2="819.2"><stop offset="0" stop-color="#6c6c6c"/><stop offset="1" stop-color="#c8c8c8"/></linearGradient><linearGradient gradientTransform="matrix(.0139 0 0 .0172 26.85 -85.9)" gradientUnits="userSpaceOnUse" id="p" spreadMethod="pad" x1="-819.2" x2="819.2"><stop offset="0" stop-color="#484848"/><stop offset="1" stop-color="#aaa"/></linearGradient><linearGradient gradientTransform="matrix(.0045 0 0 .008 .05 -4.15)" gradientUnits="userSpaceOnUse" id="q" spreadMethod="pad" x1="-819.2" x2="819.2"><stop offset="0" stop-color="red"/><stop offset=".51" stop-color="#fe9292" stop-opacity=".502"/><stop offset="1" stop-color="red"/></linearGradient><linearGradient gradientTransform="matrix(.0042 0 0 .0022 -.05 -10.7)" gradientUnits="userSpaceOnUse" id="r" spreadMethod="pad" x1="-819.2" x2="819.2"><stop offset="0" stop-color="red"/><stop offset=".51" stop-color="#fe4949" stop-opacity=".502"/><stop offset="1" stop-color="red"/></linearGradient><linearGradient gradientTransform="matrix(.0046 0 0 .0022 -.05 -10.7)" gradientUnits="userSpaceOnUse" id="s" spreadMethod="pad" x1="-819.2" x2="819.2"><stop offset="0" stop-color="#00f"/><stop offset=".51" stop-color="#5656fe" stop-opacity=".502"/><stop offset="1" stop-color="#00f"/></linearGradient><linearGradient gradientTransform="matrix(.0044 0 0 .008 .25 -4.15)" gradientUnits="userSpaceOnUse" id="t" spreadMethod="pad" x1="-819.2" x2="819.2"><stop offset="0" stop-color="#00f"/><stop offset=".51" stop-color="#9e9ffe" stop-opacity=".502"/><stop offset="1" stop-color="#00f"/></linearGradient><linearGradient gradientTransform="matrix(.0028 0 0 .0048 -.2 -4.05)" gradientUnits="userSpaceOnUse" id="u" spreadMethod="pad" x1="-819.2" x2="819.2"><stop offset="0" stop-color="#fff" stop-opacity=".502"/><stop offset="1" stop-color="#fff" stop-opacity=".102"/></linearGradient><linearGradient gradientTransform="matrix(.0027 0 0 .002 -.2 -.1)" gradientUnits="userSpaceOnUse" id="v" spreadMethod="pad" x1="-819.2" x2="819.2"><stop offset="0" stop-color="#fff" stop-opacity=".502"/><stop offset="1" stop-color="#fff" stop-opacity=".102"/></linearGradient><linearGradient gradientTransform="matrix(.0028 0 0 .002 -.2 -8)" gradientUnits="userSpaceOnUse" id="w" spreadMethod="pad" x1="-819.2" x2="819.2"><stop offset="0" stop-color="#fff" stop-opacity=".502"/><stop offset="1" stop-color="#fff" stop-opacity=".102"/></linearGradient><linearGradient gradientTransform="matrix(.1682 0 0 .1465 -19.75 -40)" gradientUnits="userSpaceOnUse" id="x" spreadMethod="pad" x1="-819.2" x2="819.2"><stop offset="0" stop-color="#9a9a9a"/><stop offset=".235" stop-color="#aaa"/><stop offset=".502" stop-color="#9a9a9a"/><stop offset=".769" stop-color="#aaa"/><stop offset=".984" stop-color="#9a9a9a"/></linearGradient><linearGradient gradientTransform="matrix(.0223 0 0 .0463 19.75 -62.1)" gradientUnits="userSpaceOnUse" id="y" spreadMethod="pad" x1="-819.2" x2="819.2"><stop offset="0" stop-color="#1e1e1e"/><stop offset="1" stop-color="#aaa"/></linearGradient><g id="a"><path d="M13.5-53.25 40-66.5V-40L13.5-53.25" fill="url(#k)" fill-rule="evenodd" transform="translate(120 66.5)"/><path d="m40-40-160 80V13.5L13.5-53.25 40-40" fill="url(#l)" fill-rule="evenodd" transform="translate(120 66.5)"/><path d="M13.5-53.25 40-40" fill="none" stroke="#000" stroke-linecap="round" stroke-linejoin="round" transform="translate(120 66.5)"/></g><g id="b"><path d="M-5.65-13.5q.25.7 1.6 1.3 1.7.7 4.1.7 2.4 0 4.05-.7 1.35-.55 1.65-1.25V.05q-.05 1.2-1.7 2-1.65.85-4 .85t-4-.85q-1.7-.8-1.7-2V-13.5" fill="url(#m)" fill-rule="evenodd" transform="translate(6.15 35.85)"/><path d="M-5.65-14.15q.25-.75 1.6-1.35 1.7-.7 4.1-.7 2.4 0 4.05.7 1.35.55 1.65 1.3v.75-.75l.05.35-.05.4q-.3.7-1.65 1.25-1.65.7-4.05.7t-4.1-.7q-1.35-.6-1.6-1.3v-.65.65l-.05-.35.05-.3" fill="url(#n)" fill-rule="evenodd" transform="translate(6.15 35.85)"/><path d="M2.05-34.25q-.1.4-.6.65-.6.3-1.45.3-.9 0-1.45-.3l-.6-.6m-3.6 19.1v.95m11.4-.05v-.9m-3.7-19.15v-.1l-.6-.7-1.45-.3-1.45.3-.6.7v.15m7.8 20v.75m-11.4-.05V0m0 .05q0 1.2 1.7 2 1.65.85 4 .85t4-.85q1.65-.8 1.7-2m0-.05v-13.45m-7.8-7.45v-.3m-3.6 7.7v-.65" fill="none" stroke="#000" stroke-linecap="round" stroke-linejoin="round" transform="translate(6.15 35.85)"/><path d="M-2.05-34.2v13.3q-3.85 1.5-3.6 5.8m11.4 0q.05-4.25-3.7-5.95v-13.2" fill="none" stroke="#000" stroke-linecap="round" stroke-linejoin="round" transform="translate(6.15 35.85)"/><path d="m11.9 22.4.05-.4-.05-.35M.5 21.7l-.05.3.05.35" fill="none" stroke="#000" stroke-linecap="round" stroke-linejoin="round" stroke-width=".05"/></g><g id="c"><path d="M13.1-47.55q2-2.1 3.15-4.95l1.2.45q.4.15-.1.5l-.05.05q-1.1 2.35-2.6 4.15-1.15 1.3-2.5 2.3l-.9-.95q1-.7 1.8-1.55m5.2-2.25 1.1.4q.35.15.15.35h-.2L17.6-45.9q-1.4 1.85-3.35 3.3l-.8-.9q1.85-1.5 3.15-3.15 1.1-1.55 1.7-3.15m2.15 2.3.05-.15 1.25.4q.65.25.05.4-.7 2.5-2.95 4.75-1.4 1.55-3.55 3l-.9-1q2.8-2 4.35-3.95 1.3-1.7 1.7-3.45m-28.8 17.65-4.8-.05 6.1-9.6.95.6-5.2 8 9.5.1-.05 1.05-6.5-.1M8.6-43.35l.55 1.05-1.1.55-.55-1.05 1.1-.55m2.65 4.95.3.55-1.1.55-.3-.55-.3-.55 1.1-.55.3.55m-4 2.15.15.25-1.15.6-.3-.5-6.65 3.55-.55-1.05 6.65-3.55-2.25-4.25-6.65 3.55-.55-1.05 7.8-4.15.35.7 3.15 5.9" fill-rule="evenodd" transform="translate(120 100)"/><path d="m17.35-51.55.95 1.75q-.6 1.6-1.7 3.15-1.3 1.65-3.15 3.15l.8.9q1.95-1.45 3.35-3.3l1.75-3.15h.2l.9 1.55q-.4 1.75-1.7 3.45-1.55 1.95-4.35 3.95l-3.15 1.7-.3-.55-1.1.55.3.55-2.9 1.6-3.15-5.9L11.3-46l.9.95q1.35-1 2.5-2.3 1.5-1.8 2.6-4.15l.05-.05M-6.1-38.9v.05l1.1 2 1.5-.8 6.65-3.55 2.25 4.25-6.65 3.55-1.5.8.95 1.8-9.5-.1 5.2-8m14.7-4.45-1.1.55.55 1.05 1.1-.55-.55-1.05" fill="#ffb6c1" fill-rule="evenodd" transform="translate(120 100)"/><path d="M18.85-42.1q-.25 1.9-1.85 4.15l-.4.55q-2.85 3.8-8.1 6.6t-9.95 3.05l-.75.05q-2.4.05-3.95-.55-1.45-.55-2.2-1.6l6.5.1.05-1.05-.95-1.8 1.5-.8.55 1.05 6.65-3.55.3.5L7.4-36l-.15-.25 2.9-1.6.3.55 1.1-.55-.3-.55 3.15-1.7.9 1q2.15-1.45 3.55-3M-6.1-38.85q2.75-3.2 7.3-5.6 5.65-3.05 10.65-3.15l1.25.05q-.8.85-1.8 1.55l-7.2 3.85-.35-.7-7.8 4.15.55 1.05-1.5.8-1.1-2" fill="#fff" fill-rule="evenodd" transform="translate(120 100)"/><path d="M139.4 50.6q.35.15.15.35" fill="none" stroke="#00f" stroke-linecap="round" stroke-linejoin="round" stroke-width=".05"/><path d="M18.85-42.1q-.25 1.9-1.85 4.15l-.4.55q-2.85 3.8-8.1 6.6t-9.95 3.05l-.75.05q-2.4.05-3.95-.55-1.45-.55-2.2-1.6m2.25-9q2.75-3.2 7.3-5.6 5.65-3.05 10.65-3.15l1.25.05" fill="none" stroke="#000" stroke-linecap="round" stroke-linejoin="round" transform="translate(120 100)"/><path d="M12.6-85.45 40-71.75l-160 80V-20L12.25-86.1l.35.65" fill="url(#o)" fill-rule="evenodd" transform="translate(120 100)"/><path d="m40-71.75-27.4-13.7-.35-.65L40-100v28.25" fill="url(#p)" fill-rule="evenodd" transform="translate(120 100)"/><path d="m40-71.75-27.4-13.7" fill="none" stroke="#000" stroke-linecap="round" stroke-linejoin="round" transform="translate(120 100)"/></g><g id="d"><path d="M-2.55-16.15v.15-.15" fill="#fff" fill-rule="evenodd" transform="translate(5.15 23.95)"/><path d="M-4.65-10.7q0 .75 1.4 1.25 1.4.55 3.35.55 1.95 0 3.35-.55 1.2-.45 1.4-1.05V0q-.05 1-1.4 1.7-1.4.7-3.35.7-2 0-3.35-.7-1.4-.7-1.4-1.7v-10.7" fill="url(#q)" fill-rule="evenodd" transform="translate(5.15 23.95)"/><path d="M-4.65-10.7q0-.75 1.4-1.3l3.35-.5 3.35.5q1.2.5 1.4 1.1v.4q-.2.6-1.4 1.05-1.4.55-3.35.55-1.95 0-3.35-.55-1.4-.5-1.4-1.25" fill="url(#r)" fill-rule="evenodd" transform="translate(5.15 23.95)"/><path d="M2.75-22.05q-.1.5-.8.85-.75.4-1.85.4l-1.9-.4q-.65-.35-.75-.8m-2.1 9.55v1.75m7.4-11.35v-.1q0-.55-.8-.9-.75-.4-1.85-.4l-1.9.4q-.8.35-.75.9v.15m7.4 22q-.05 1-1.4 1.7-1.4.7-3.35.7-2 0-3.35-.7-1.4-.7-1.4-1.7v-10.7m2.1-5.3v-.15" fill="none" stroke="#000" stroke-linecap="round" stroke-linejoin="round" transform="translate(5.15 23.95)"/><path d="M-2.55-22v5.85m0 .15q-1.95 1.1-2.1 3.55m9.5 1.55v-1.7q.05-2.5-2.1-3.3v-6.15m2.1 11.55V0" fill="none" stroke="#000" stroke-linecap="round" stroke-linejoin="round" transform="translate(5.15 23.95)"/><path d="M10 13.05v.4" fill="none" stroke="#000" stroke-linecap="round" stroke-linejoin="round" stroke-width=".05"/></g><g id="e"><path d="M-2.55-16v-.15.15" fill="#fff" fill-rule="evenodd" transform="translate(5.15 23.95)"/><path d="M4.85-10.9v.4q-.2.6-1.4 1.05-1.4.55-3.35.55-1.95 0-3.35-.55-1.4-.5-1.4-1.25t1.4-1.3l3.35-.5 3.35.5q1.2.5 1.4 1.1" fill="url(#s)" fill-rule="evenodd" transform="translate(5.15 23.95)"/><path d="M4.85-10.5V0q-.05 1-1.4 1.7-1.4.7-3.35.7-2 0-3.35-.7-1.4-.7-1.4-1.7v-10.7q0 .75 1.4 1.25 1.4.55 3.35.55 1.95 0 3.35-.55 1.2-.45 1.4-1.05" fill="url(#t)" fill-rule="evenodd" transform="translate(5.15 23.95)"/><path d="M-2.55-22v-.15q-.05-.55.75-.9l1.9-.4q1.1 0 1.85.4.8.35.8.9v.1M4.85 0q-.05 1-1.4 1.7-1.4.7-3.35.7-2 0-3.35-.7-1.4-.7-1.4-1.7v-12.45m2.1-3.55v-.15m0-5.85q.1.45.75.8l1.9.4q1.1 0 1.85-.4.7-.35.8-.85" fill="none" stroke="#000" stroke-linecap="round" stroke-linejoin="round" transform="translate(5.15 23.95)"/><path d="M2.75-22.05v6.15q2.15.8 2.1 3.3v1.7m0 .4V0m-9.5-12.45q.15-2.45 2.1-3.55m0-.15V-22" fill="none" stroke="#000" stroke-linecap="round" stroke-linejoin="round" transform="translate(5.15 23.95)"/><path d="M10 13.05v.4" fill="none" stroke="#000" stroke-linecap="round" stroke-linejoin="round" stroke-width=".05"/></g><g id="f"><path d="M3.35-7.95V-.1q-.05-.7-1-1.15-1-.5-2.35-.5-1.4 0-2.35.5-1 .45-1 1.15v-7.75q.1.6 1 1.05.95.45 2.35.5 1.35-.05 2.35-.5.95-.5 1-1.15" fill="url(#u)" fill-rule="evenodd" transform="translate(3.85 10.15)"/><path d="M3.35-.1q0 .7-1 1.2-1 .45-2.35.5-1.4-.05-2.35-.5-1-.5-1-1.2t1-1.15q.95-.5 2.35-.5 1.35 0 2.35.5.95.45 1 1.15" fill="url(#v)" fill-rule="evenodd" transform="translate(3.85 10.15)"/><path d="M-3.35-7.85V-8q0-.7 1-1.15.95-.5 2.35-.5 1.35 0 2.35.5 1 .45 1 1.15v.05q-.05.65-1 1.15-1 .45-2.35.5-1.4-.05-2.35-.5-.9-.45-1-1.05" fill="url(#w)" fill-rule="evenodd" transform="translate(3.85 10.15)"/><path d="M-3.35-7.85V-8q0-.7 1-1.15.95-.5 2.35-.5 1.35 0 2.35.5 1 .45 1 1.15v7.9q0 .7-1 1.2-1 .45-2.35.5-1.4-.05-2.35-.5-1-.5-1-1.2v-7.75q.1.6 1 1.05.95.45 2.35.5 1.35-.05 2.35-.5.95-.5 1-1.15M-3.35-.1q0-.7 1-1.15.95-.5 2.35-.5 1.35 0 2.35.5.95.45 1 1.15" fill="none" stroke="#000" stroke-linecap="round" stroke-linejoin="round" transform="translate(3.85 10.15)"/></g><g id="g"><path d="M40-40v-26.5l-160 80V40L40-40M-120 8.25l160-80V-100l-160 80V8.25M120-160v100L-160 80V-20l280-140" fill="url(#x)" fill-rule="evenodd" transform="translate(160.5 160.5)"/><path d="M-120 40V13.5l160-80V-40m0-60v28.25l-160 80M-160 80 120-60" fill="none" stroke="#000" stroke-linecap="round" stroke-linejoin="round" transform="translate(160.5 160.5)"/><path d="m40-40-160 80m0-31.75V-20l160-80m80-60L-160-20" fill="none" stroke="#000" stroke-linecap="round" stroke-linejoin="round" transform="translate(160.5 160.5)"/></g><g id="h"><path d="M0-4.15V-14.6l29.55-14.75L40-24.15l-40 20" fill="#bfbfbf" fill-rule="evenodd" transform="translate(.5 100.5)"/><path d="M0-18.8v-10.05l19.55-9.75 10 5L0-18.8" fill="#acacac" fill-rule="evenodd" transform="translate(.5 100.5)"/><path d="M0-32.95v-9.85l9.85-4.95 9.8 4.95L0-32.95" fill="#9a9a9a" fill-rule="evenodd" transform="translate(.5 100.5)"/><path d="M0-47v-9.9l9.85 4.95L0-47" fill="#828282" fill-rule="evenodd" transform="translate(.5 100.5)"/><path d="M40-24.15V-20L0 0v-4.15l40-20" fill="#a0a0a0" fill-rule="evenodd" transform="translate(.5 100.5)"/><path d="M0-14.6v-4.2l29.55-14.8v4.25L0-14.6" fill="#8e8e8e" fill-rule="evenodd" transform="translate(.5 100.5)"/><path d="M0-28.85v-4.1l19.65-9.85-.1 4.2L0-28.85m6.35-3.7H6.3h.05" fill="#797979" fill-rule="evenodd" transform="translate(.5 100.5)"/><path d="M0-42.8V-47l9.85-4.95v4.2L0-42.8" fill="#6a6a6a" fill-rule="evenodd" transform="translate(.5 100.5)"/><path d="M0-56.9V-80l40-20v75.85l-10.45-5.2v-4.25l-10-5 .1-4.2-9.8-4.95v-4.2L0-56.9" fill="url(#y)" fill-rule="evenodd" transform="translate(.5 100.5)"/><path d="m.5 43.6 9.85 4.95m0 4.2 9.8 4.95L.5 67.55m19.55-5.65 10 5L.5 81.7m29.55-10.55 10.45 5.2m-30.15-23.6L.5 57.7m6.35 10.25H6.8m13.25-6.05L.5 71.65m29.55-.5L.5 85.9m0-32.4 9.85-4.95m0 0v4.2m9.8 4.95-.1 4.2m10 5v4.25m10.45 5.2-40 20m6.3-28.4h.05" fill="none" stroke="#000" stroke-linecap="round" stroke-linejoin="round" stroke-width=".05"/><path d="M0-56.9V-80l40-20v80L0 0v-47z" fill="none" stroke="#000" stroke-linecap="round" stroke-linejoin="round" transform="translate(.5 100.5)"/></g><g id="z"><path d="m20.5-8.75-10 5 20 10-20 10-20-10-10 5v-20h40" fill="#ff0" fill-rule="evenodd" transform="translate(20 9.25)"/><path d="M20.5-8.75h-40v20l10-5 20 10 20-10-20-10z" fill="none" stroke="red" stroke-linecap="round" stroke-linejoin="round" transform="translate(20 9.25)"/></g><g id="j"><path d="M-160-80v-100L120-40V60L-160-80" fill="#d4d4d4" fill-rule="evenodd" transform="translate(160 180)"/><path d="m0 100 280 140V140L0 0z" fill="none" stroke="#000" stroke-linecap="round" stroke-linejoin="round" stroke-width=".05"/></g><use height="26" width="51" xlink:href="#z" id="i"/></defs></svg>