<svg xmlns="http://www.w3.org/2000/svg" xmlns:xlink="http://www.w3.org/1999/xlink" height="71" width="80"><use height="70.5" width="80" xlink:href="#aS"/><defs id="defs1343"><linearGradient gradientTransform="matrix(.0475 0 0 .0102 -.4 -22.15)" gradientUnits="userSpaceOnUse" id="bF" spreadMethod="pad" x1="-819.2" x2="819.2"><stop offset="0" id="stop863"/><stop offset=".518" stop-color="#5f5f5f" id="stop865"/><stop offset="1" id="stop867"/></linearGradient><linearGradient gradientTransform="matrix(.0134 .0233 -.0053 .0031 34.25 -4.8)" gradientUnits="userSpaceOnUse" id="bH" spreadMethod="pad" x1="-819.2" x2="819.2"><stop offset="0" stop-color="#329664" id="stop870"/><stop offset=".247" stop-color="#7bd2a6" id="stop872"/><stop offset=".514" stop-color="#329664" id="stop874"/><stop offset=".745" stop-color="#8cd9b3" id="stop876"/><stop offset="1" stop-color="#329664" id="stop878"/><stop offset="1" stop-color="#d7ebe1" id="stop880"/></linearGradient><linearGradient gradientTransform="matrix(-.0134 .0233 .0053 .0031 -34.25 -4.8)" gradientUnits="userSpaceOnUse" id="bI" spreadMethod="pad" x1="-819.2" x2="819.2"><stop offset="0" stop-color="#329664" id="stop883"/><stop offset=".247" stop-color="#7bd2a6" id="stop885"/><stop offset=".514" stop-color="#329664" id="stop887"/><stop offset=".745" stop-color="#8cd9b3" id="stop889"/><stop offset="1" stop-color="#329664" id="stop891"/><stop offset="1" stop-color="#d7ebe1" id="stop893"/></linearGradient><g id="aS" transform="translate(40 50.5)"><use height="40" transform="translate(-40 -20)" width="80" xlink:href="#bs" id="use1285" x="0" y="0"/><use height="60.9" transform="translate(-40 -50.5)" width="80" xlink:href="#bE" id="use1287" x="0" y="0"/></g><g id="bE"><path d="M-40-30.5l6.35 3.2q34.1 15.5 68.9-.8L40-30.5v6l-4.75 2.4q-3.65 1.7-7.3 3.05L23.5-17.5q-3.5 1.1-6.95 1.85Q8.25-13.8 0-13.75q-8.3 0-16.55-1.8-3.5-.75-6.95-1.85l-4.45-1.55q-2.85-1.1-5.7-2.35L-40-24.5v-6" fill="url(#bF)" fill-rule="evenodd" transform="translate(40 50.5)" id="path1290"/><path d="M40-30.5l-4.75 2.4q-34.8 16.3-68.9.8L-40-30.5l40-20 40 20" fill="url(#bG)" fill-rule="evenodd" transform="translate(40 50.5)" id="path1292"/><path d="M-16.55-15.55q8.25 1.8 16.55 1.8 8.25-.05 16.55-1.9v8.6L0 1.2l-16.55-8.25v-8.5M0-13.75V1.2v-14.95" fill="#1b5235" fill-rule="evenodd" transform="translate(40 50.5)" id="path1294"/><path d="M-23.5-17.4q3.45 1.1 6.95 1.85v8.5l-18.85 9.4V-1.6l.1-.7q.15-1.1.85-2.15.95-1.5 2.3-2.2l5.4-2.95q1.05-.6 1.85-1.6l.45-.6q.8-1.25.95-2.4v-3.2m40.05 1.75Q20-16.4 23.5-17.5v1.25l.05 2.05q.1 1.15.9 2.4l.45.6q.8 1 1.85 1.6l5.4 2.95q1.35.7 2.3 2.2.7 1.05.9 2.15l.05.7v3.9l-.05.05.05-.05v.05h-.05l-18.8-9.4v-8.6" fill="#329664" fill-rule="evenodd" transform="translate(40 50.5)" id="path1296"/><path d="M-27.95-18.95l4.45 1.55v1.15l-4.45-2.2v-.5M23.5-17.5l4.45-1.55v.6l-4.45 2.2v-1.25" fill="#60bc8d" fill-rule="evenodd" transform="translate(40 50.5)" id="path1298"/><path d="M23.5-16.25l4.45-2.2.05 2.05q.1 1.15.9 2.4l.45.6q.8 1 1.85 1.6l5.4 2.95q1.35.7 2.3 2.2.95 1.45.95 2.85V.15L36.7 1.7l-1.3.6 1.3-.6-1.3.65V-1.6l-.05-.7q-.2-1.1-.9-2.15-.95-1.5-2.3-2.2l-5.4-2.95q-1.05-.6-1.85-1.6l-.45-.6q-.8-1.25-.9-2.4l-.05-2.05" fill="url(#bH)" fill-rule="evenodd" transform="translate(40 50.5)" id="path1300"/><path d="M39.85.1v-.15L40 0l-.15.1m-4.5 2.25q-34.6 15.7-69.15.8l-1.6-.8 18.85-9.4L0 1.2l16.55-8.25 18.8 9.4m-33.55.4l-.2.1h.2v-.1" fill-opacity=".502" fill-rule="evenodd" transform="translate(40 50.5)" id="path1302"/><path d="M1.8 2.75v.1h-.2l.2-.1" fill="#1d5639" fill-rule="evenodd" transform="translate(40 50.5)" id="path1304"/><path d="M-35.4 2.35l-4.45-2.2V-3.8q0-1.4.95-2.85.95-1.5 2.3-2.2l5.4-2.95 1.9-1.6.4-.6q.8-1.25.95-2.4v-2.05l4.45 2.2v2.05q-.15 1.15-.95 2.4l-.45.6q-.8 1-1.85 1.6l-5.4 2.95q-1.35.7-2.3 2.2-.7 1.05-.85 2.15l-.1.7v3.95" fill="url(#bI)" fill-rule="evenodd" transform="translate(40 50.5)" id="path1306"/><path d="M56.55 43.45v-8.6m6.95-.6V33m0 1.25l.05 2.05q.1 1.15.9 2.4l.45.6q.8 1 1.85 1.6l5.4 2.95q1.35.7 2.3 2.2.7 1.05.9 2.15l.05.7v3.9l1.3-.6 3.15-1.55m0-.05v-3.9q0-1.4-.95-2.85-.95-1.5-2.3-2.2l-5.4-2.95q-1.05-.6-1.85-1.6l-.45-.6q-.8-1.25-.9-2.4l-.05-2.05v-.6m7.4 21.4l.05-.05v.05h-.05l-18.8-9.4L40 51.7l-16.55-8.25-18.85 9.4V48.9l.1-.7q.15-1.1.85-2.15.95-1.5 2.3-2.2l5.4-2.95q1.05-.6 1.85-1.6l.45-.6q.8-1.25.95-2.4v-3.2M4.6 52.85l-4.45-2.2m0-.2V46.7q0-1.4.95-2.85.95-1.5 2.3-2.2l5.4-2.95 1.9-1.6.4-.6q.8-1.25.95-2.4v-2.55M40 51.7V36.75m-16.55 6.7v-8.5" fill="none" stroke="#000" stroke-linecap="round" stroke-linejoin="round" stroke-width=".05" id="path1308"/></g><radialGradient cx="0" cy="0" gradientTransform="matrix(.0494 0 0 .0247 .5 -30.25)" gradientUnits="userSpaceOnUse" id="bG" r="819.2" spreadMethod="pad"><stop offset="0" stop-color="#636363" id="stop604"/><stop offset="1" id="stop606"/></radialGradient><path d="M40 0L0 20-40 0 0-20 40 0" fill="#bcbcbc" fill-rule="evenodd" transform="translate(40 20)" id="bs"/></defs></svg>