<?xml version="1.0" encoding="UTF-8" standalone="no"?>
<!DOCTYPE svg PUBLIC "-//W3C//DTD SVG 1.1//EN" "http://www.w3.org/Graphics/SVG/1.1/DTD/svg11.dtd">
<svg height="182" width="160" viewBox="0 0 160 182" version="1.1" xmlns="http://www.w3.org/2000/svg" xmlns:xlink="http://www.w3.org/1999/xlink" xml:space="preserve" xmlns:serif="http://www.serif.com/" style="fill-rule:evenodd;clip-rule:evenodd;stroke-linecap:round;stroke-linejoin:round;stroke-miterlimit:1.5;">
    <g id="BackStanding" transform="matrix(-1.14173,0,0,1.14173,171.317,-0.60128)">
        <g opacity="0.95">
            <g transform="matrix(0.316158,0,0,0.316158,-128.35,-158.085)">
                <path d="M542.173,844.83L543.15,705.205L688.709,632.426L734.246,655.253L735.467,792.673L586.728,868.712L542.173,844.83Z" style="fill:rgb(108,68,68);stroke:black;stroke-width:2.77px;"/>
            </g>
            <g transform="matrix(0.0423495,-0.0211748,1.8807e-17,0.0423495,13.7842,51.9048)">
                <rect x="1566" y="856.517" width="86.762" height="86.762" style="fill:rgb(94,59,59);fill-rule:nonzero;"/>
            </g>
            <g transform="matrix(0.0423495,-0.0211748,1.8807e-17,0.0423495,17.5264,49.5765)">
                <rect x="791.193" y="856.517" width="86.762" height="86.762" style="fill:rgb(94,59,59);fill-rule:nonzero;"/>
            </g>
            <g transform="matrix(0.0423495,-0.0211748,0,0.0423495,23.1215,54.4794)">
                <path d="M977.928,1839.54L979.208,2189.34C978.469,2207.48 957.862,2214.49 935.706,2195.12C933.216,2192.94 922.327,2176.59 922.327,2176.59L921.438,1839.04" style="fill-rule:nonzero;"/>
            </g>
            <g transform="matrix(0.0423495,-0.0211748,0,0.0423495,23.1215,54.4794)">
                <path d="M921.438,1839.04L921.035,1685.75C922.733,1672.69 930.526,1648.89 957.508,1669.94C960.31,1672.12 977.426,1702.27 977.426,1702.27L977.928,1839.54" style="fill:rgb(94,59,59);fill-rule:nonzero;"/>
            </g>
            <g transform="matrix(0.0423495,-0.0211748,0,0.0423495,21.9011,55.2303)">
                <path d="M1382.65,1834.37L1381.55,1683.97C1379.07,1666.49 1395.22,1648.88 1420.91,1669.17C1423.95,1671.57 1436.16,1695.08 1436.16,1695.08L1437.12,1827.97" style="fill:rgb(94,59,59);fill-rule:nonzero;"/>
            </g>
            <g transform="matrix(0.0423495,-0.0211748,0,0.0423495,21.9011,55.2303)">
                <path d="M1437.12,1827.97L1439.72,2185.78C1438.26,2205.83 1416.23,2209.93 1399.14,2196.43C1396.34,2194.22 1385.11,2170.15 1385.11,2170.15L1382.65,1834.37" style="fill-rule:nonzero;"/>
            </g>
            <g transform="matrix(0.0423495,-0.0211748,1.8807e-17,0.0423495,15.2164,52.1842)">
                <path d="M1222.99,1088.56L1037.36,751.595L1075.69,729.4L1122.1,812.127L1323.87,812.127L1370.28,729.4L1408.62,751.595L1222.99,1088.56ZM1142.28,854.499L1222.99,997.757L1303.69,854.499L1142.28,854.499Z" style="fill:rgb(94,59,59);fill-rule:nonzero;"/>
            </g>
            <g transform="matrix(0.0423495,-0.0211748,0,0.0423495,28.12,56.2723)">
                <path d="M292.815,789.932C401.772,858.534 481.136,927.81 530.907,997.757L480.464,1040.13C429.348,966.146 352.674,895.526 250.443,828.269L219.267,797.248L251.352,758.999L292.815,789.932Z" style="fill-rule:nonzero;"/>
            </g>
            <g transform="matrix(0.0423495,-0.0211748,0,0.0423495,18.733,57.0232)">
                <path d="M2012.23,1032.13C1987.7,1055.62 1961.37,1077.01 1933.22,1094.76L1898.95,1078.07L1884.8,1048.2C1933.62,1023.25 1976.32,992.164 2012.9,954.956" style="fill:rgb(94,59,59);fill-rule:nonzero;"/>
            </g>
            <g transform="matrix(0.0423495,-0.0211748,0,0.0423495,18.733,57.0232)">
                <path d="M2012.9,954.956C2021.66,946.035 2030.08,936.762 2038.15,927.137C2081.19,876.021 2114.82,805.401 2139.03,715.276L2166.61,713.608L2193.51,739.489C2202.93,744.869 2203.65,757.099 2190.2,762.48C2161.95,840.498 2127.6,895.526 2092.62,941.261C2068.43,972.794 2041.63,1003.97 2012.23,1032.13" style="fill-rule:nonzero;"/>
            </g>
            <g transform="matrix(0.0423495,-0.0211748,0,0.0423495,28.6109,59.5202)">
                <path d="M702.177,596.153L1214.91,598.825L1214.91,640.62L700.395,640.62L702.177,596.153Z" style="fill-rule:nonzero;"/>
            </g>
            <g transform="matrix(0.0423495,-0.0211748,0,0.0423495,37.0775,41.8138)">
                <path d="M702.177,596.153L1214.91,598.825L1214.91,640.62L700.395,640.62L702.177,596.153Z" style="fill-rule:nonzero;"/>
            </g>
            <g transform="matrix(0.0423495,-0.0211748,0,0.0423495,15.3179,52.483)">
                <path d="M702.177,596.153L1214.91,598.825L1214.91,640.62L700.395,640.62L702.177,596.153Z" style="fill-rule:nonzero;"/>
            </g>
            <g transform="matrix(0.0423495,-0.0211748,0,0.0423495,14.696,96.3307)">
                <path d="M702.177,596.153L1214.91,598.825L1214.91,640.62L700.395,640.62L702.177,596.153Z" style="fill:rgb(94,59,59);fill-rule:nonzero;"/>
            </g>
            <g transform="matrix(0.0423495,-0.0211748,0,0.0423495,36.4857,85.4358)">
                <path d="M702.177,596.153L1214.91,598.825L1214.91,640.62L700.395,640.62L702.177,596.153Z" style="fill:rgb(94,59,59);fill-rule:nonzero;"/>
            </g>
            <g transform="matrix(0.0250436,0.0123618,1.11216e-17,0.0423495,25.8189,29.5991)">
                <path d="M702.177,596.153L1214.91,598.825L1214.91,640.62L700.395,640.62L702.177,596.153Z" style="fill-rule:nonzero;"/>
            </g>
            <g transform="matrix(0.0250436,0.0123618,1.11216e-17,0.0423495,72.503,7.3593)">
                <path d="M702.177,596.153L1214.91,598.825L1214.91,640.62L700.395,640.62L702.177,596.153Z" style="fill-rule:nonzero;"/>
            </g>
            <g transform="matrix(0.0250436,0.0123618,1.11216e-17,0.0423495,71.8509,50.9512)">
                <path d="M702.177,596.153L1214.91,598.825L1214.91,640.62L700.395,640.62L702.177,596.153Z" style="fill:rgb(94,59,59);fill-rule:nonzero;"/>
            </g>
            <g transform="matrix(0.0250436,0.0123618,1.11216e-17,0.0423495,25.1416,74.3059)">
                <path d="M702.177,596.153L1214.91,598.825L1214.91,640.62L700.395,640.62L702.177,596.153Z" style="fill-rule:nonzero;"/>
            </g>
            <g transform="matrix(0.0423495,-0.0211748,0,0.0423495,29.7951,58.9655)">
                <rect x="625.74" y="644.656" width="40.354" height="512.502" style="fill-rule:nonzero;"/>
            </g>
            <g transform="matrix(0.0423495,-0.0211748,0,0.0423495,15.8098,73.2593)">
                <rect x="625.74" y="644.656" width="40.354" height="512.502" style="fill-rule:nonzero;"/>
            </g>
            <g transform="matrix(0.0423495,-0.0211748,0,0.0423495,15.9212,51.2954)">
                <rect x="625.74" y="644.656" width="40.354" height="512.502" style="fill-rule:nonzero;"/>
            </g>
            <g transform="matrix(0.0423495,-0.0211748,-1.16909e-32,0.0423495,62.0371,30.0521)">
                <rect x="625.74" y="644.656" width="40.354" height="512.502" style="fill:rgb(94,59,59);fill-rule:nonzero;"/>
            </g>
            <g transform="matrix(0.0423495,-0.0211748,0,0.0423495,62.0371,50.7327)">
                <rect x="625.74" y="644.656" width="40.354" height="512.502" style="fill:rgb(94,59,59);fill-rule:nonzero;"/>
            </g>
            <g transform="matrix(0.0423495,-0.0211748,0,0.0423495,28.2481,59.9099)">
                <path d="M1216.93,597.043L1733.23,599.716L1731.45,640.62L1216.93,640.62L1216.93,597.043Z" style="fill-rule:nonzero;"/>
            </g>
            <g transform="matrix(0.0423495,-0.0211748,0,0.0423495,28.0477,59.8018)">
                <rect x="1779.88" y="644.656" width="40.354" height="512.502" style="fill-rule:nonzero;"/>
            </g>
            <g transform="matrix(0.0423495,-0.0211748,0,0.0423495,31.5896,57.6102)">
                <rect x="583.367" y="1161.19" width="40.354" height="512.502" style="fill-rule:nonzero;"/>
            </g>
            <g transform="matrix(0.0423495,-0.0211748,0,0.0423495,30.3944,58.8631)">
                <path d="M664.076,1651.5L1178.6,1651.5L1178.6,1695.08L664.076,1691.51L664.076,1651.5Z" style="fill-rule:nonzero;"/>
            </g>
            <g transform="matrix(0.0423495,-0.0211748,0,0.0423495,30.9095,58.3026)">
                <path d="M1180.61,1651.5L1695.13,1651.5L1691.57,1687.95L1185.96,1695.97L1180.61,1651.5Z" style="fill-rule:nonzero;"/>
            </g>
            <g transform="matrix(0.0423495,-0.0211748,0,0.0423495,29.7373,58.8631)">
                <rect x="1737.51" y="1161.19" width="40.354" height="512.502" style="fill-rule:nonzero;"/>
            </g>
        </g>
    </g>
</svg>
