<?xml version="1.0" encoding="UTF-8" standalone="no"?>
<!DOCTYPE svg PUBLIC "-//W3C//DTD SVG 1.1//EN" "http://www.w3.org/Graphics/SVG/1.1/DTD/svg11.dtd">
<svg width="160" height="182" viewBox="0 0 160 182" version="1.1" xmlns="http://www.w3.org/2000/svg" xmlns:xlink="http://www.w3.org/1999/xlink" xml:space="preserve" xmlns:serif="http://www.serif.com/" style="fill-rule:evenodd;clip-rule:evenodd;stroke-linecap:round;stroke-linejoin:round;stroke-miterlimit:1.5;">
    <g opacity="0.95">
        <g transform="matrix(-0.362,0,0,0.362,318.32,-181.651)">
            <path d="M542.173,844.83L543.15,705.205L688.709,632.426L734.246,655.253L735.467,792.673L586.728,868.712L542.173,844.83Z" style="fill:rgb(192,172,62);fill-opacity:0.95;stroke:black;stroke-opacity:0.95;stroke-width:2.76px;"/>
        </g>
        <g transform="matrix(-0.04849,-0.02425,0,0.04849,155.577,58.787)">
            <rect x="1566" y="856.517" width="86.762" height="86.762" style="fill:rgb(167,148,51);fill-rule:nonzero;"/>
        </g>
        <g transform="matrix(-0.04849,-0.02425,0,0.04849,151.293,56.12)">
            <rect x="791.193" y="856.517" width="86.762" height="86.762" style="fill:rgb(167,148,51);fill-rule:nonzero;"/>
        </g>
        <g transform="matrix(-0.04849,-0.02425,0,0.04849,144.851,61.735)">
            <path d="M547.667,1527.12C699.538,1703.72 877.32,1891.19 921.035,1685.75C922.733,1672.69 930.526,1648.89 957.508,1669.94C960.31,1672.12 977.426,1702.27 977.426,1702.27C940.907,1832.86 883.325,1861.21 781.97,1803.16C748.777,1784.14 534.069,1580.58 501.272,1521.77" style="fill:rgb(167,148,51);fill-rule:nonzero;"/>
        </g>
        <g transform="matrix(-0.04849,-0.02425,0,0.04849,146.284,62.595)">
            <path d="M1382.65,1834.37L1381.55,1683.97C1379.07,1666.49 1395.22,1648.88 1420.91,1669.17C1423.95,1671.57 1436.16,1695.08 1436.16,1695.08L1437.12,1827.97" style="fill:rgb(167,148,51);fill-rule:nonzero;"/>
        </g>
        <g transform="matrix(-0.04849,-0.02425,0,0.04849,146.284,62.595)">
            <path d="M1437.12,1827.97L1439.72,2185.78C1438.26,2205.83 1416.23,2209.93 1399.14,2196.43C1396.34,2194.22 1385.11,2170.15 1385.11,2170.15L1382.65,1834.37" style="fill-rule:nonzero;"/>
        </g>
        <g transform="matrix(-0.04849,-0.02425,0,0.04849,153.938,59.107)">
            <path d="M1222.99,1088.56L1037.36,751.595L1075.69,729.4L1122.1,812.127L1323.87,812.127L1370.28,729.4L1408.62,751.595L1222.99,1088.56ZM1142.28,854.499L1222.99,997.757L1303.69,854.499L1142.28,854.499Z" style="fill:rgb(167,148,51);fill-rule:nonzero;"/>
        </g>
        <g transform="matrix(-0.04849,-0.02425,0,0.04849,149.911,64.648)">
            <path d="M2012.23,1032.13C1987.7,1055.62 1961.37,1077.01 1933.22,1094.76L1898.95,1078.07L1884.8,1048.2C1933.62,1023.25 1976.32,992.164 2012.9,954.956" style="fill:rgb(167,148,51);fill-rule:nonzero;"/>
        </g>
        <g transform="matrix(-0.04849,-0.02425,0,0.04849,149.911,64.648)">
            <path d="M2012.9,954.956C2021.68,946.017 2030.1,936.737 2038.15,927.137C2081.19,876.021 2114.82,805.401 2139.03,715.276L2166.61,713.608L2193.51,739.489C2202.93,744.869 2203.65,757.099 2190.2,762.48C2161.95,840.498 2132.17,914.665 2097.19,960.4C2072.99,991.933 2041.63,1003.97 2012.23,1032.13" style="fill-rule:nonzero;"/>
        </g>
        <g transform="matrix(-0.04849,-0.02425,0,0.04849,138.601,67.506)">
            <path d="M702.177,596.153L1214.91,598.825L1214.91,640.62L700.395,640.62L702.177,596.153Z" style="fill-rule:nonzero;"/>
        </g>
        <g transform="matrix(-0.04849,-0.02425,0,0.04849,128.907,47.233)">
            <path d="M702.177,596.153L1214.91,598.825L1214.91,640.62L700.395,640.62L702.177,596.153Z" style="fill-rule:nonzero;"/>
        </g>
        <g transform="matrix(-0.04849,-0.02425,0,0.04849,153.822,59.449)">
            <path d="M702.177,596.153L1214.91,598.825L1214.91,640.62L700.395,640.62L702.177,596.153Z" style="fill-rule:nonzero;"/>
        </g>
        <g transform="matrix(-0.04849,-0.02425,0,0.04849,154.533,109.655)">
            <path d="M702.177,596.153L1214.91,598.825L1214.91,640.62L700.395,640.62L702.177,596.153Z" style="fill:rgb(167,148,51);fill-rule:nonzero;"/>
        </g>
        <g transform="matrix(-0.04849,-0.02425,0,0.04849,129.584,97.18)">
            <path d="M702.177,596.153L1214.91,598.825L1214.91,640.62L700.395,640.62L702.177,596.153Z" style="fill:rgb(167,148,51);fill-rule:nonzero;"/>
        </g>
        <g transform="matrix(-0.02867,0.01415,0,0.04849,141.798,33.247)">
            <path d="M702.177,596.153L1214.91,598.825L1214.91,640.62L700.395,640.62L702.177,596.153Z" style="fill-rule:nonzero;"/>
        </g>
        <g transform="matrix(-0.02867,0.01415,0,0.04849,88.345,7.782)">
            <path d="M702.177,596.153L1214.91,598.825L1214.91,640.62L700.395,640.62L702.177,596.153Z" style="fill-rule:nonzero;"/>
        </g>
        <g transform="matrix(-0.02867,0.01415,0,0.04849,89.091,57.695)">
            <path d="M702.177,596.153L1214.91,598.825L1214.91,640.62L700.395,640.62L702.177,596.153Z" style="fill:rgb(167,148,51);fill-rule:nonzero;"/>
        </g>
        <g transform="matrix(-0.02867,0.01415,0,0.04849,142.573,84.436)">
            <path d="M702.177,596.153L1214.91,598.825L1214.91,640.62L700.395,640.62L702.177,596.153Z" style="fill-rule:nonzero;"/>
        </g>
        <g transform="matrix(-0.04849,-0.02425,0,0.04849,137.245,66.872)">
            <rect x="625.74" y="644.656" width="40.354" height="512.502" style="fill-rule:nonzero;"/>
        </g>
        <g transform="matrix(-0.04849,-0.02425,0,0.04849,153.258,83.238)">
            <rect x="625.74" y="644.656" width="40.354" height="512.502" style="fill-rule:nonzero;"/>
        </g>
        <g transform="matrix(-0.04849,-0.02425,0,0.04849,153.13,58.089)">
            <rect x="625.74" y="644.656" width="40.354" height="512.502" style="fill-rule:nonzero;"/>
        </g>
        <g transform="matrix(-0.04849,-0.02425,0,0.04849,100.328,33.765)">
            <rect x="625.74" y="644.656" width="40.354" height="512.502" style="fill:rgb(167,148,51);fill-rule:nonzero;"/>
        </g>
        <g transform="matrix(-0.04849,-0.02425,0,0.04849,100.328,57.445)">
            <rect x="625.74" y="644.656" width="40.354" height="512.502" style="fill:rgb(167,148,51);fill-rule:nonzero;"/>
        </g>
        <g transform="matrix(-0.04849,-0.02425,0,0.04849,139.017,67.953)">
            <path d="M1216.93,597.043L1733.23,599.716L1731.45,640.62L1216.93,640.62L1216.93,597.043Z" style="fill-rule:nonzero;"/>
        </g>
        <g transform="matrix(0.05118,-0.01787,-0.03477,-0.0338,123.283,138.788)">
            <path d="M84.874,719.659C57.201,687.292 36.502,648.593 36.502,648.593C36.502,648.593 45.97,622.891 70.154,628.87C158.716,650.765 399.367,819.051 530.907,997.757L538.46,1046.55L477.572,1022.74C426.456,948.754 348.223,856.95 245.992,789.692C203.103,765.672 86.185,682.48 84.874,719.659Z" style="fill-rule:nonzero;"/>
        </g>
        <g transform="matrix(-0.04849,-0.02425,0,0.04849,139.246,67.829)">
            <rect x="1779.88" y="644.656" width="40.354" height="512.502" style="fill-rule:nonzero;"/>
        </g>
        <g transform="matrix(-0.04849,-0.02425,0,0.04849,135.19,65.32)">
            <rect x="583.367" y="1161.19" width="40.354" height="512.502" style="fill-rule:nonzero;"/>
        </g>
        <g transform="matrix(-0.04849,-0.02425,0,0.04849,136.56,66.754)">
            <path d="M664.076,1651.5L1178.6,1651.5L1178.6,1695.08L664.076,1691.51L664.076,1651.5Z" style="fill-rule:nonzero;"/>
        </g>
        <g transform="matrix(-0.04849,-0.02425,0,0.04849,135.969,66.112)">
            <path d="M1180.61,1651.5L1695.13,1651.5L1691.57,1687.95L1185.96,1695.97L1180.61,1651.5Z" style="fill-rule:nonzero;"/>
        </g>
        <g transform="matrix(-0.04849,-0.02425,0,0.04849,137.311,66.754)">
            <rect x="1737.51" y="1161.19" width="40.354" height="512.502" style="fill-rule:nonzero;"/>
        </g>
    </g>
</svg>
