<?xml version="1.0" encoding="UTF-8" standalone="no"?>
<!DOCTYPE svg PUBLIC "-//W3C//DTD SVG 1.1//EN" "http://www.w3.org/Graphics/SVG/1.1/DTD/svg11.dtd">
<svg width="100%" height="100%" viewBox="0 0 160 182" version="1.1" xmlns="http://www.w3.org/2000/svg" xmlns:xlink="http://www.w3.org/1999/xlink" xml:space="preserve" xmlns:serif="http://www.serif.com/" style="fill-rule:evenodd;clip-rule:evenodd;stroke-linecap:round;stroke-linejoin:round;stroke-miterlimit:1.5;">
    <g id="BackSitting" transform="matrix(0.0483507,-0.0241754,0,0.0483507,37.1237,73.7971)">
        <g opacity="0.95">
            <g transform="matrix(-7.46545,-3.73272,0,7.46545,5810.11,-2222.19)">
                <path d="M542.173,844.83L543.15,705.205L688.709,632.426L734.246,655.253L735.467,792.673L586.728,868.712L542.173,844.83Z" style="fill:rgb(108,68,68);stroke:black;stroke-width:2.77px;"/>
            </g>
            <g transform="matrix(-1,-1,-4.44089e-16,1,2453.9,1058.21)">
                <rect x="1566" y="856.517" width="86.762" height="86.762" style="fill:rgb(94,59,59);fill-rule:nonzero;"/>
            </g>
            <g transform="matrix(-1,-1,-4.44089e-16,1,2365.54,959.052)">
                <rect x="791.193" y="856.517" width="86.762" height="86.762" style="fill:rgb(94,59,59);fill-rule:nonzero;"/>
            </g>
            <g transform="matrix(-1,-1,-4.44089e-16,1,2420.09,1047.9)">
                <path d="M1222.99,1088.56L1037.36,751.595L1075.69,729.4L1122.1,812.127L1323.87,812.127L1370.28,729.4L1408.62,751.595L1222.99,1088.56ZM1142.28,854.499L1222.99,997.757L1303.69,854.499L1142.28,854.499Z" style="fill:rgb(94,59,59);fill-rule:nonzero;"/>
            </g>
            <g transform="matrix(-1,-1,0,1,2234.58,1013.11)">
                <path d="M547.667,1527.12C699.538,1703.72 877.32,1891.19 921.035,1685.75C922.733,1672.69 930.526,1648.89 957.508,1669.94C960.31,1672.12 977.426,1702.27 977.426,1702.27C940.907,1832.86 883.325,1861.21 781.97,1803.16C748.777,1784.14 534.069,1580.58 501.272,1521.77" style="fill:rgb(94,59,59);fill-rule:nonzero;"/>
            </g>
            <g transform="matrix(-1,-1,0,1,1806.11,582.688)">
                <path d="M547.667,1527.12C699.538,1703.72 877.32,1891.19 921.035,1685.75C922.733,1672.69 930.526,1648.89 957.508,1669.94C960.31,1672.12 977.426,1702.27 977.426,1702.27C940.907,1832.86 883.325,1861.21 781.97,1803.16C748.777,1784.14 534.069,1580.58 501.272,1521.77" style="fill:rgb(94,59,59);fill-rule:nonzero;"/>
            </g>
            <g transform="matrix(-1,-1,0,1,2103.8,1062.98)">
                <path d="M702.177,596.153L1214.91,598.825L1214.91,640.62L700.395,640.62L702.177,596.153Z" style="fill-rule:nonzero;"/>
            </g>
            <g transform="matrix(-1,-1,0,1,1903.88,544.921)">
                <path d="M702.177,596.153L1214.91,598.825L1214.91,640.62L700.395,640.62L702.177,596.153Z" style="fill-rule:nonzero;"/>
            </g>
            <g transform="matrix(-1,-1,0,1,2417.69,1053.76)">
                <path d="M702.177,596.153L1214.91,598.825L1214.91,640.62L700.395,640.62L702.177,596.153Z" style="fill-rule:nonzero;"/>
            </g>
            <g transform="matrix(-1,-1,0,1,2432.37,2096.48)">
                <path d="M702.177,596.153L1214.91,598.825L1214.91,640.62L700.395,640.62L702.177,596.153Z" style="fill:rgb(94,59,59);fill-rule:nonzero;"/>
            </g>
            <g transform="matrix(-1,-1,0,1,1917.85,1581.96)">
                <path d="M702.177,596.153L1214.91,598.825L1214.91,640.62L700.395,640.62L702.177,596.153Z" style="fill:rgb(94,59,59);fill-rule:nonzero;"/>
            </g>
            <g transform="matrix(-0.591355,-0.00377795,-2.62615e-16,1,2169.73,389.419)">
                <path d="M702.177,596.153L1214.91,598.825L1214.91,640.62L700.395,640.62L702.177,596.153Z" style="fill-rule:nonzero;"/>
            </g>
            <g transform="matrix(-0.591355,-0.00377795,-2.62615e-16,1,1067.38,-686.905)">
                <path d="M702.177,596.153L1214.91,598.825L1214.91,640.62L700.395,640.62L702.177,596.153Z" style="fill-rule:nonzero;"/>
            </g>
            <g transform="matrix(-0.591355,-0.00377795,-2.62615e-16,1,1082.77,350.13)">
                <path d="M702.177,596.153L1214.91,598.825L1214.91,640.62L700.395,640.62L702.177,596.153Z" style="fill:rgb(94,59,59);fill-rule:nonzero;"/>
            </g>
            <g transform="matrix(-0.591355,-0.00377795,-2.62615e-16,1,2185.72,1453.08)">
                <path d="M702.177,596.153L1214.91,598.825L1214.91,640.62L700.395,640.62L702.177,596.153Z" style="fill-rule:nonzero;"/>
            </g>
            <g transform="matrix(-1,-1,0,1,2075.84,1035.91)">
                <rect x="625.74" y="644.656" width="40.354" height="512.502" style="fill-rule:nonzero;"/>
            </g>
            <g transform="matrix(-1,-1,0,1,2406.07,1538.54)">
                <rect x="625.74" y="644.656" width="40.354" height="512.502" style="fill-rule:nonzero;"/>
            </g>
            <g transform="matrix(-1,-1,0,1,2403.44,1018.59)">
                <rect x="625.74" y="644.656" width="40.354" height="512.502" style="fill-rule:nonzero;"/>
            </g>
            <g transform="matrix(-1,-1,2.76056e-31,1,1314.51,-27.4928)">
                <rect x="625.74" y="644.656" width="40.354" height="512.502" style="fill:rgb(94,59,59);fill-rule:nonzero;"/>
            </g>
            <g transform="matrix(-1,-1,0,1,1314.51,460.837)">
                <rect x="625.74" y="644.656" width="40.354" height="512.502" style="fill:rgb(94,59,59);fill-rule:nonzero;"/>
            </g>
            <g transform="matrix(-7.46545,-3.73272,0,7.46545,4703.13,-3274.48)">
                <path d="M559.503,766.807L562.27,761.699L566.982,766.597C566.687,770.912 567.652,775.968 568.059,779.66C570.498,801.809 566.514,834.695 552.677,836.725C552.677,836.725 547.945,831.406 550.706,829.606C559.219,824.056 566.961,801.086 559.503,766.807Z" style="fill:rgb(94,59,59);"/>
            </g>
            <g transform="matrix(-1,-1,0,1,2112.37,1076.47)">
                <path d="M1216.93,597.043L1733.23,599.716L1731.45,640.62L1216.93,640.62L1216.93,597.043Z" style="fill-rule:nonzero;"/>
            </g>
            <g transform="matrix(-7.46545,-3.73272,0,7.46545,5810.11,-2222.19)">
                <path d="M558.175,766.92L562.27,761.699L566.982,766.597C566.687,770.912 567.652,775.968 568.059,779.66C570.498,801.809 566.514,834.695 552.677,836.725C552.677,836.725 549.394,830.532 551.844,828.326C558.768,822.092 567.43,803.626 558.175,766.92Z"/>
            </g>
            <g transform="matrix(-1,-1,0,1,2117.1,1076.28)">
                <rect x="1779.88" y="644.656" width="40.354" height="512.502" style="fill-rule:nonzero;"/>
            </g>
            <g transform="matrix(-1,-1,0,1,2033.47,982.715)">
                <rect x="583.367" y="1161.19" width="40.354" height="512.502" style="fill-rule:nonzero;"/>
            </g>
            <g transform="matrix(-1,-1,0,1,2061.69,1026.41)">
                <path d="M664.076,1651.5L1178.6,1651.5L1178.6,1695.08L664.076,1691.51L664.076,1651.5Z" style="fill-rule:nonzero;"/>
            </g>
            <g transform="matrix(-1,-1,0,1,2049.52,1007.09)">
                <path d="M1180.61,1651.5L1695.13,1651.5L1691.57,1687.95L1185.96,1695.97L1180.61,1651.5Z" style="fill-rule:nonzero;"/>
            </g>
            <g transform="matrix(-1,-1,0,1,2077.2,1034.17)">
                <rect x="1737.51" y="1161.19" width="40.354" height="512.502" style="fill-rule:nonzero;"/>
            </g>
        </g>
    </g>
</svg>
