<?xml version="1.0" encoding="UTF-8" standalone="no"?>
<!DOCTYPE svg PUBLIC "-//W3C//DTD SVG 1.1//EN" "http://www.w3.org/Graphics/SVG/1.1/DTD/svg11.dtd">
<svg width="160" height="182" viewBox="0 0 160 182" version="1.1" xmlns="http://www.w3.org/2000/svg" xmlns:xlink="http://www.w3.org/1999/xlink" xml:space="preserve" xmlns:serif="http://www.serif.com/" style="fill-rule:evenodd;clip-rule:evenodd;stroke-linecap:round;stroke-linejoin:round;stroke-miterlimit:1.5;">
    <g>
        <g transform="matrix(-0.36251,0,0,0.36251,318.876,-181.878)">
            <path d="M542.173,844.83L543.15,705.205L688.709,632.426L734.246,655.253L735.467,792.673L586.728,868.712L542.173,844.83Z" style="fill:rgb(108,68,68);fill-opacity:0.9;stroke:black;stroke-opacity:0.9;stroke-width:2.76px;"/>
        </g>
        <g transform="matrix(-0.04856,-0.02428,0,0.04856,155.903,58.9)">
            <rect x="1566" y="856.517" width="86.762" height="86.762" style="fill:rgb(94,59,59);"/>
        </g>
        <g transform="matrix(-0.04856,-0.02428,0,0.04856,151.612,56.231)">
            <rect x="791.193" y="856.517" width="86.762" height="86.762" style="fill:rgb(94,59,59);"/>
        </g>
        <g transform="matrix(0.05125,-0.0179,-0.03169,-0.0308,63.108,110.58)">
            <path d="M247.191,715.002C337.386,775.236 444.745,864.407 535.893,974.067L554.179,1034.45L479.932,1000.57C446.828,951.283 297.932,815.214 322.073,836.117" style="fill:rgb(94,59,59);fill-rule:nonzero;"/>
        </g>
        <g transform="matrix(0.05125,-0.0179,-0.03169,-0.0308,63.108,110.58)">
            <path d="M322.073,836.117C297.932,815.214 278.498,802.427 254.498,784.865C216.198,756.84 136.602,719.723 126.943,715.226C107.498,706.172 74.216,700.932 74.216,700.932C67.965,673.656 44.098,622.495 70.154,628.87C98.635,635.839 166.435,661.072 247.191,715.002" style="fill-rule:nonzero;"/>
        </g>
        <g transform="matrix(-0.04856,-0.02428,0,0.04856,124.212,51.881)">
            <path d="M547.667,1527.12C699.538,1703.72 877.32,1891.19 921.035,1685.75C922.733,1672.69 930.526,1648.89 957.508,1669.94C960.31,1672.12 977.426,1702.27 977.426,1702.27C940.907,1832.86 883.325,1861.21 781.97,1803.16C748.777,1784.14 534.069,1580.58 501.272,1521.77" style="fill:rgb(94,59,59);fill-rule:nonzero;"/>
        </g>
        <g transform="matrix(-0.04856,-0.02428,0,0.04856,167.912,73.509)">
            <path d="M1382.65,1834.37L1381.55,1683.97C1379.07,1666.49 1395.22,1648.88 1420.91,1669.17C1423.95,1671.57 1436.16,1695.08 1436.16,1695.08L1437.12,1827.97" style="fill:rgb(94,59,59);fill-rule:nonzero;"/>
        </g>
        <g transform="matrix(-0.04856,-0.02428,0,0.04856,167.912,73.509)">
            <path d="M1437.12,1827.97L1439.72,2185.78C1438.26,2205.83 1416.23,2209.93 1399.14,2196.43C1396.34,2194.22 1385.11,2170.15 1385.11,2170.15L1382.65,1834.37" style="fill-rule:nonzero;"/>
        </g>
        <g transform="matrix(-0.04856,-0.02428,0,0.04856,154.261,59.221)">
            <path d="M1222.99,1088.56L1037.36,751.595L1075.69,729.4L1122.1,812.127L1323.87,812.127L1370.28,729.4L1408.62,751.595L1222.99,1088.56ZM1142.28,854.499L1222.99,997.757L1303.69,854.499L1142.28,854.499Z" style="fill:rgb(94,59,59);fill-rule:nonzero;"/>
        </g>
        <g transform="matrix(-0.04856,-0.02428,0,0.04856,138.903,67.633)">
            <path d="M702.177,596.153L1214.91,598.825L1214.91,640.62L700.395,640.62L702.177,596.153Z" style="fill-rule:nonzero;"/>
        </g>
        <g transform="matrix(-0.04856,-0.02428,0,0.04856,129.195,47.33)">
            <path d="M702.177,596.153L1214.91,598.825L1214.91,640.62L700.395,640.62L702.177,596.153Z" style="fill-rule:nonzero;"/>
        </g>
        <g transform="matrix(-0.04856,-0.02428,0,0.04856,154.145,59.564)">
            <path d="M702.177,596.153L1214.91,598.825L1214.91,640.62L700.395,640.62L702.177,596.153Z" style="fill-rule:nonzero;"/>
        </g>
        <g transform="matrix(-0.04856,-0.02428,0,0.04856,154.858,109.84)">
            <path d="M702.177,596.153L1214.91,598.825L1214.91,640.62L700.395,640.62L702.177,596.153Z" style="fill:rgb(94,59,59);fill-rule:nonzero;"/>
        </g>
        <g transform="matrix(-0.04856,-0.02428,0,0.04856,129.873,97.348)">
            <path d="M702.177,596.153L1214.91,598.825L1214.91,640.62L700.395,640.62L702.177,596.153Z" style="fill:rgb(94,59,59);fill-rule:nonzero;"/>
        </g>
        <g transform="matrix(-0.02872,0.01417,0,0.04856,142.104,33.325)">
            <path d="M702.177,596.153L1214.91,598.825L1214.91,640.62L700.395,640.62L702.177,596.153Z" style="fill-rule:nonzero;"/>
        </g>
        <g transform="matrix(-0.02872,0.01417,0,0.04856,88.575,7.824)">
            <path d="M702.177,596.153L1214.91,598.825L1214.91,640.62L700.395,640.62L702.177,596.153Z" style="fill-rule:nonzero;"/>
        </g>
        <g transform="matrix(-0.02872,0.01417,0,0.04856,89.323,57.807)">
            <path d="M702.177,596.153L1214.91,598.825L1214.91,640.62L700.395,640.62L702.177,596.153Z" style="fill:rgb(94,59,59);fill-rule:nonzero;"/>
        </g>
        <g transform="matrix(-0.02872,0.01417,0,0.04856,142.88,84.586)">
            <path d="M702.177,596.153L1214.91,598.825L1214.91,640.62L700.395,640.62L702.177,596.153Z" style="fill-rule:nonzero;"/>
        </g>
        <g transform="matrix(-0.04856,-0.02428,0,0.04856,153.58,83.386)">
            <rect x="625.74" y="644.656" width="40.354" height="512.502"/>
        </g>
        <g transform="matrix(-0.04856,-0.02428,0,0.04856,153.453,58.202)">
            <rect x="625.74" y="644.656" width="40.354" height="512.502"/>
        </g>
        <g transform="matrix(-0.04856,-0.02428,0,0.04856,100.576,33.844)">
            <rect x="625.74" y="644.656" width="40.354" height="512.502" style="fill:rgb(94,59,59);"/>
        </g>
        <g transform="matrix(-0.04856,-0.02428,0,0.04856,100.576,57.557)">
            <rect x="625.74" y="644.656" width="40.354" height="512.502" style="fill:rgb(94,59,59);"/>
        </g>
        <g transform="matrix(-0.04856,-0.02428,0,0.04856,139.319,68.08)">
            <path d="M1216.93,597.043L1733.23,599.716L1731.45,640.62L1216.93,640.62L1216.93,597.043Z" style="fill-rule:nonzero;"/>
        </g>
        <g transform="matrix(-0.04856,-0.02428,0,0.04856,139.548,67.956)">
            <rect x="1779.88" y="644.656" width="40.354" height="512.502"/>
        </g>
        <g transform="matrix(-0.04856,-0.02428,0,0.04856,136.858,66.88)">
            <path d="M664.076,1651.5L1178.6,1651.5L1178.6,1695.08L664.076,1691.51L664.076,1651.5Z" style="fill-rule:nonzero;"/>
        </g>
        <g transform="matrix(-0.04856,-0.02428,0,0.04856,136.267,66.237)">
            <path d="M1180.61,1651.5L1695.13,1651.5L1691.57,1687.95L1185.96,1695.97L1180.61,1651.5Z" style="fill-rule:nonzero;"/>
        </g>
        <g transform="matrix(-0.04856,-0.02428,0,0.04856,139.008,62.811)">
            <path d="M292.815,789.932C401.772,858.534 481.136,927.81 530.907,997.757L480.464,1040.13C429.348,966.146 352.674,895.526 250.443,828.269L219.267,797.248L251.352,758.999L292.815,789.932Z" style="fill-rule:nonzero;"/>
        </g>
        <g transform="matrix(-0.04856,-0.02428,0,0.04856,137.61,66.88)">
            <rect x="1737.51" y="1161.19" width="40.354" height="512.502"/>
        </g>
        <g transform="matrix(-0.681537,-0.340769,0,0.681537,121.717,86.2539)">
            <path d="M39.285,16.87C39.285,16.87 22.412,26.874 20.898,31.533C17.766,41.172 30.896,53.824 41.824,56.668C59.745,61.333 77.269,51.141 58.307,30.74C54.972,27.151 39.285,16.87 39.285,16.87Z" style="fill:url(#_Radial1);"/>
        </g>
        <g transform="matrix(-0.04856,-0.02428,0,0.04856,137.545,66.997)">
            <rect x="625.74" y="644.656" width="40.354" height="512.502"/>
        </g>
        <g transform="matrix(-0.04856,-0.02428,0,0.04856,135.487,65.443)">
            <rect x="583.367" y="1161.19" width="40.354" height="512.502"/>
        </g>
    </g>
    <defs>
        <radialGradient id="_Radial1" cx="0" cy="0" r="1" gradientUnits="userSpaceOnUse" gradientTransform="matrix(23.0357,-5.32907e-15,-1.3032e-15,20.4577,49.1754,43.9918)"><stop offset="0" style="stop-color:rgb(138,122,72);stop-opacity:1"/><stop offset="0.43" style="stop-color:rgb(129,109,71);stop-opacity:1"/><stop offset="1" style="stop-color:rgb(108,80,68);stop-opacity:1"/></radialGradient>
    </defs>
</svg>
