<?xml version="1.0" encoding="UTF-8" standalone="no"?>
<!DOCTYPE svg PUBLIC "-//W3C//DTD SVG 1.1//EN" "http://www.w3.org/Graphics/SVG/1.1/DTD/svg11.dtd">
<svg width="160" height="182" viewBox="0 0 160 182" version="1.1" xmlns="http://www.w3.org/2000/svg" xmlns:xlink="http://www.w3.org/1999/xlink" xml:space="preserve" xmlns:serif="http://www.serif.com/" style="fill-rule:evenodd;clip-rule:evenodd;stroke-linecap:round;stroke-linejoin:round;stroke-miterlimit:1.5;">
    <g opacity="0.95">
        <g transform="matrix(-0.36096,0,0,0.36096,318.047,-181.088)">
            <path d="M542.173,844.83L543.15,705.205L688.709,632.426L734.246,655.253L735.467,792.673L586.728,868.712L542.173,844.83Z" style="fill:rgb(95,108,68);fill-opacity:0.95;stroke:black;stroke-opacity:0.95;stroke-width:2.77px;"/>
        </g>
        <g transform="matrix(-0.04835,-0.02418,0,0.04835,155.771,58.66)">
            <rect x="1566" y="856.517" width="86.762" height="86.762" style="fill:rgb(92,94,59);fill-rule:nonzero;"/>
        </g>
        <g transform="matrix(-0.04835,-0.02418,0,0.04835,151.5,56.001)">
            <rect x="791.193" y="856.517" width="86.762" height="86.762" style="fill:rgb(92,94,59);fill-rule:nonzero;"/>
        </g>
        <g transform="matrix(-0.04835,-0.02418,0,0.04835,154.137,58.978)">
            <path d="M1222.99,1088.56L1037.36,751.595L1075.69,729.4L1122.1,812.127L1323.87,812.127L1370.28,729.4L1408.62,751.595L1222.99,1088.56ZM1142.28,854.499L1222.99,997.757L1303.69,854.499L1142.28,854.499Z" style="fill:rgb(92,94,59);fill-rule:nonzero;"/>
        </g>
        <g transform="matrix(-0.04835,-0.02418,0,0.04835,145.167,61.78)">
            <path d="M547.667,1527.12C699.538,1703.72 877.32,1891.19 921.035,1685.75C922.733,1672.69 930.526,1648.89 957.508,1669.94C960.31,1672.12 977.426,1702.27 977.426,1702.27C940.907,1832.86 883.325,1861.21 781.97,1803.16C748.777,1784.14 534.069,1580.58 501.272,1521.77" style="fill:rgb(92,94,59);fill-rule:nonzero;"/>
        </g>
        <g transform="matrix(-0.04835,-0.02418,0,0.04835,124.45,51.328)">
            <path d="M547.667,1527.12C699.538,1703.72 877.32,1891.19 921.035,1685.75C922.733,1672.69 930.526,1648.89 957.508,1669.94C960.31,1672.12 977.426,1702.27 977.426,1702.27C940.907,1832.86 883.325,1861.21 781.97,1803.16C748.777,1784.14 534.069,1580.58 501.272,1521.77" style="fill:rgb(92,94,59);fill-rule:nonzero;"/>
        </g>
        <g transform="matrix(-0.04835,-0.02418,0,0.04835,138.844,67.354)">
            <path d="M702.177,596.153L1214.91,598.825L1214.91,640.62L700.395,640.62L702.177,596.153Z" style="fill-rule:nonzero;"/>
        </g>
        <g transform="matrix(-0.04835,-0.02418,0,0.04835,129.178,47.138)">
            <path d="M702.177,596.153L1214.91,598.825L1214.91,640.62L700.395,640.62L702.177,596.153Z" style="fill-rule:nonzero;"/>
        </g>
        <g transform="matrix(-0.04835,-0.02418,0,0.04835,154.02,59.32)">
            <path d="M702.177,596.153L1214.91,598.825L1214.91,640.62L700.395,640.62L702.177,596.153Z" style="fill-rule:nonzero;"/>
        </g>
        <g transform="matrix(-0.04835,-0.02418,0,0.04835,154.73,109.38)">
            <path d="M702.177,596.153L1214.91,598.825L1214.91,640.62L700.395,640.62L702.177,596.153Z" style="fill:rgb(92,94,59);fill-rule:nonzero;"/>
        </g>
        <g transform="matrix(-0.04835,-0.02418,0,0.04835,129.853,96.942)">
            <path d="M702.177,596.153L1214.91,598.825L1214.91,640.62L700.395,640.62L702.177,596.153Z" style="fill:rgb(92,94,59);fill-rule:nonzero;"/>
        </g>
        <g transform="matrix(-0.0286,0.01411,0,0.04835,142.032,33.193)">
            <path d="M702.177,596.153L1214.91,598.825L1214.91,640.62L700.395,640.62L702.177,596.153Z" style="fill-rule:nonzero;"/>
        </g>
        <g transform="matrix(-0.0286,0.01411,0,0.04835,88.732,7.801)">
            <path d="M702.177,596.153L1214.91,598.825L1214.91,640.62L700.395,640.62L702.177,596.153Z" style="fill-rule:nonzero;"/>
        </g>
        <g transform="matrix(-0.0286,0.01411,0,0.04835,89.476,57.57)">
            <path d="M702.177,596.153L1214.91,598.825L1214.91,640.62L700.395,640.62L702.177,596.153Z" style="fill:rgb(92,94,59);fill-rule:nonzero;"/>
        </g>
        <g transform="matrix(-0.0286,0.01411,0,0.04835,142.805,84.235)">
            <path d="M702.177,596.153L1214.91,598.825L1214.91,640.62L700.395,640.62L702.177,596.153Z" style="fill-rule:nonzero;"/>
        </g>
        <g transform="matrix(-0.04835,-0.02418,0,0.04835,137.492,66.72)">
            <rect x="625.74" y="644.656" width="40.354" height="512.502" style="fill-rule:nonzero;"/>
        </g>
        <g transform="matrix(-0.04835,-0.02418,0,0.04835,153.459,83.04)">
            <rect x="625.74" y="644.656" width="40.354" height="512.502" style="fill-rule:nonzero;"/>
        </g>
        <g transform="matrix(-0.04835,-0.02418,0,0.04835,153.332,57.963)">
            <rect x="625.74" y="644.656" width="40.354" height="512.502" style="fill-rule:nonzero;"/>
        </g>
        <g transform="matrix(-0.04835,-0.02418,0,0.04835,100.681,33.71)">
            <rect x="625.74" y="644.656" width="40.354" height="512.502" style="fill:rgb(92,94,59);fill-rule:nonzero;"/>
        </g>
        <g transform="matrix(-0.04835,-0.02418,0,0.04835,100.681,57.321)">
            <rect x="625.74" y="644.656" width="40.354" height="512.502" style="fill:rgb(92,94,59);fill-rule:nonzero;"/>
        </g>
        <g transform="matrix(-0.36096,0,0,0.36096,264.523,-205.205)">
            <path d="M559.503,766.807L562.27,761.699L566.982,766.597C566.687,770.912 567.652,775.968 568.059,779.66C570.498,801.809 566.514,834.695 552.677,836.725C552.677,836.725 547.945,831.406 550.706,829.606C559.219,824.056 566.961,801.086 559.503,766.807Z" style="fill:rgb(92,94,59);"/>
        </g>
        <g transform="matrix(-0.04835,-0.02418,0,0.04835,139.258,67.799)">
            <path d="M1216.93,597.043L1733.23,599.716L1731.45,640.62L1216.93,640.62L1216.93,597.043Z" style="fill-rule:nonzero;"/>
        </g>
        <path d="M116.568,95.74L115.09,93.855L113.389,95.623C113.495,97.18 113.147,99.005 113,100.338C112.12,108.333 113.558,120.203 118.552,120.936C118.552,120.936 119.737,118.701 118.853,117.905C116.353,115.655 113.227,108.989 116.568,95.739L116.568,95.74Z"/>
        <g transform="matrix(-0.04835,-0.02418,0,0.04835,139.487,67.675)">
            <rect x="1779.88" y="644.656" width="40.354" height="512.502" style="fill-rule:nonzero;"/>
        </g>
        <g transform="matrix(-0.04835,-0.02418,0,0.04835,135.443,65.173)">
            <rect x="583.367" y="1161.19" width="40.354" height="512.502" style="fill-rule:nonzero;"/>
        </g>
        <g transform="matrix(-0.04835,-0.02418,0,0.04835,136.808,66.603)">
            <path d="M664.076,1651.5L1178.6,1651.5L1178.6,1695.08L664.076,1691.51L664.076,1651.5Z" style="fill-rule:nonzero;"/>
        </g>
        <g transform="matrix(-0.04835,-0.02418,0,0.04835,136.22,65.964)">
            <path d="M1180.61,1651.5L1695.13,1651.5L1691.57,1687.95L1185.96,1695.97L1180.61,1651.5Z" style="fill-rule:nonzero;"/>
        </g>
        <g transform="matrix(-0.04835,-0.02418,0,0.04835,137.558,66.604)">
            <rect x="1737.51" y="1161.19" width="40.354" height="512.502" style="fill-rule:nonzero;"/>
        </g>
    </g>
</svg>
