<svg height="182" width="160" xml:space="preserve" style="fill-rule:evenodd;clip-rule:evenodd;stroke-linecap:round;stroke-linejoin:round;stroke-miterlimit:1.5" xmlns="http://www.w3.org/2000/svg"><g opacity=".95"><path d="m542.173 844.83.977-139.625 145.559-72.779 45.537 22.827 1.221 137.42-148.739 76.039z" style="fill:#6c4444;stroke:#000;stroke-width:2.75px" transform="translate(-147.57 -183.137) scale(.36381)"/><path d="m557.238 767.261 5.032-5.562 3.641 6.302c-10.069 22.928-5.35 67.535 2.45 68.116l-5.831 2.864-5.557-6.571c-4.332-15.596-4.584-36.841.265-65.149z" style="fill:#5e3b3b" transform="translate(-93.133 -209.248) scale(.36381)"/><path d="m702.177 596.153 512.733 2.672v41.795H700.395Z" style="fill-rule:nonzero" transform="matrix(.04873 -.02437 0 .04873 33.05 67.27)"/><path d="m702.177 596.153 512.733 2.672v41.795H700.395Z" style="fill-rule:nonzero" transform="matrix(.04873 -.02437 0 .04873 42.793 46.894)"/><path d="m702.177 596.153 512.733 2.672v41.795H700.395Z" style="fill-rule:nonzero" transform="matrix(.04873 -.02437 0 .04873 17.753 59.171)"/><path d="m702.177 596.153 512.733 2.672v41.795H700.395Z" style="fill:#5e3b3b;fill-rule:nonzero" transform="matrix(.04873 -.02437 0 .04873 17.038 109.629)"/><path d="m702.177 596.153 512.733 2.672v41.795H700.395Z" style="fill:#5e3b3b;fill-rule:nonzero" transform="matrix(.04873 -.02437 0 .04873 42.112 97.092)"/><path d="m702.177 596.153 512.733 2.672v41.795H700.395Z" style="fill-rule:nonzero" transform="matrix(.02882 .01423 0 .04873 29.837 32.838)"/><path d="m702.177 596.153 512.733 2.672v41.795H700.395Z" style="fill-rule:nonzero" transform="matrix(.02882 .01423 0 .04873 83.558 7.246)"/><path d="m702.177 596.153 512.733 2.672v41.795H700.395Z" style="fill:#5e3b3b;fill-rule:nonzero" transform="matrix(.02882 .01423 0 .04873 82.808 57.409)"/><path d="m702.177 596.153 512.733 2.672v41.795H700.395Z" style="fill-rule:nonzero" transform="matrix(.02882 .01423 0 .04873 29.058 84.284)"/><path style="fill-rule:nonzero" d="M625.74 644.656h40.354v512.502H625.74z" transform="matrix(.04873 -.02437 0 .04873 34.413 66.631)"/><path style="fill-rule:nonzero" d="M625.74 644.656h40.354v512.502H625.74z" transform="matrix(.04873 -.02437 0 .04873 18.32 83.08)"/><path style="fill-rule:nonzero" d="M625.74 644.656h40.354v512.502H625.74z" transform="matrix(.04873 -.02437 0 .04873 18.447 57.805)"/><path style="fill:#5e3b3b;fill-rule:nonzero" d="M625.74 644.656h40.354v512.502H625.74z" transform="matrix(.04873 -.02437 0 .04873 71.515 33.36)"/><path style="fill:#5e3b3b;fill-rule:nonzero" d="M625.74 644.656h40.354v512.502H625.74z" transform="matrix(.04873 -.02437 0 .04873 71.515 57.157)"/><path d="m1216.93 597.043 516.3 2.673-1.78 40.904h-514.52z" style="fill-rule:nonzero" transform="matrix(.04873 -.02437 0 .04873 32.633 67.718)"/><path style="fill-rule:nonzero" d="M791.193 856.517h86.762v86.762h-86.762z" transform="matrix(.04873 -.02437 0 .04873 36.288 64.014)"/><path d="m1222.99 1088.56-185.63-336.965 38.33-22.195 46.41 82.727h201.77l46.41-82.727 38.34 22.195zm-80.71-234.061 80.71 143.258 80.7-143.258z" style="fill-rule:nonzero" transform="matrix(.04873 -.02437 0 .04873 33.63 67.015)"/><path d="m55.162 96.004 1.83-2.024 1.304 1.822c-3.133 9.612-2.21 18.75.385 25.516l-.455 1.318-1.6-.013-1.56-2.917c-1.577-5.674-1.669-13.403.096-23.702z"/><path style="fill-rule:nonzero" d="M1566 856.517h86.762v86.762H1566z" transform="matrix(.04873 -.02437 0 .04873 31.982 66.693)"/><path style="fill-rule:nonzero" d="M1779.88 644.656h40.354v512.502h-40.354z" transform="matrix(.04873 -.02437 0 .04873 32.402 67.594)"/><path style="fill-rule:nonzero" d="M583.367 1161.19h40.354v512.502h-40.354z" transform="matrix(.04873 -.02437 0 .04873 36.478 65.072)"/><path d="M664.076 1651.5H1178.6v43.58l-514.524-3.57z" style="fill-rule:nonzero" transform="matrix(.04873 -.02437 0 .04873 35.102 66.513)"/><path d="M1180.61 1651.5h514.52l-3.56 36.45-505.61 8.02z" style="fill-rule:nonzero" transform="matrix(.04873 -.02437 0 .04873 35.695 65.868)"/><path style="fill-rule:nonzero" d="M1737.51 1161.19h40.354v512.502h-40.354z" transform="matrix(.04873 -.02437 0 .04873 34.346 66.513)"/><path d="m921.438 1839.04-.403-153.29c1.698-13.06 9.491-36.86 36.473-15.81 2.802 2.18 19.918 32.33 19.918 32.33l.502 137.27" style="fill:#5e3b3b;fill-rule:nonzero" transform="matrix(.04873 -.02437 0 .04873 26.677 61.652)"/><path d="m1382.65 1834.37-1.1-150.4c-2.48-17.48 13.67-35.09 39.36-14.8 3.04 2.4 15.25 25.91 15.25 25.91l.96 132.89" style="fill:#5e3b3b;fill-rule:nonzero" transform="matrix(.04873 -.02437 0 .04873 25.273 62.517)"/><path d="M1437.12 1827.97c5.33 135.12 124.53 252.45 293.75 361.96 2.95 1.91 9.72 13.03 9.99 16.16 1.83 21.24-1.57 26.25-25.89 18.57-3.59-1.13-112.73-72.85-112.73-76.23-131.6-104.82-189.45-180.88-219.59-314.06" style="fill-rule:nonzero" transform="matrix(.04873 -.02437 0 .04873 25.273 62.517)"/><path d="M1437.12 1827.97c5.33 135.12 124.53 252.45 293.75 361.96 2.95 1.91 9.72 13.03 9.99 16.16 1.83 21.24-1.57 26.25-25.89 18.57-3.59-1.13-112.73-72.85-112.73-76.23-131.6-104.82-189.45-180.88-219.59-314.06" style="fill-rule:nonzero" transform="matrix(.04873 -.02437 0 .04873 3.98 74.85)"/></g></svg>