<?xml version="1.0" encoding="UTF-8" standalone="no"?>
<!DOCTYPE svg PUBLIC "-//W3C//DTD SVG 1.1//EN" "http://www.w3.org/Graphics/SVG/1.1/DTD/svg11.dtd">
<svg width="160" height="182" viewBox="0 0 160 182" version="1.1" xmlns="http://www.w3.org/2000/svg" xmlns:xlink="http://www.w3.org/1999/xlink" xml:space="preserve" xmlns:serif="http://www.serif.com/" style="fill-rule:evenodd;clip-rule:evenodd;stroke-linecap:round;stroke-linejoin:round;stroke-miterlimit:1.5;">
    <g opacity="0.95">
        <g transform="matrix(0.3621,0,0,0.3621,-146.515,-181.906)">
            <path d="M542.173,844.83L543.15,705.205L688.709,632.426L734.246,655.253L735.467,792.673L586.728,868.712L542.173,844.83Z" style="fill:rgb(192,172,62);fill-opacity:0.95;stroke:black;stroke-opacity:0.95;stroke-width:2.76px;"/>
        </g>
        <g transform="matrix(0.0485,-0.02425,0,0.0485,33.256,67.324)">
            <path d="M702.177,596.153L1214.91,598.825L1214.91,640.62L700.395,640.62L702.177,596.153Z" style="fill-rule:nonzero;"/>
        </g>
        <g transform="matrix(0.0485,-0.02425,0,0.0485,42.953,47.044)">
            <path d="M702.177,596.153L1214.91,598.825L1214.91,640.62L700.395,640.62L702.177,596.153Z" style="fill-rule:nonzero;"/>
        </g>
        <g transform="matrix(0.0485,-0.02425,0,0.0485,18.032,59.264)">
            <path d="M702.177,596.153L1214.91,598.825L1214.91,640.62L700.395,640.62L702.177,596.153Z" style="fill-rule:nonzero;"/>
        </g>
        <g transform="matrix(0.0485,-0.02425,0,0.0485,17.32,109.484)">
            <path d="M702.177,596.153L1214.91,598.825L1214.91,640.62L700.395,640.62L702.177,596.153Z" style="fill:rgb(167,148,51);fill-rule:nonzero;"/>
        </g>
        <g transform="matrix(0.0485,-0.02425,0,0.0485,42.276,97.006)">
            <path d="M702.177,596.153L1214.91,598.825L1214.91,640.62L700.395,640.62L702.177,596.153Z" style="fill:rgb(167,148,51);fill-rule:nonzero;"/>
        </g>
        <g transform="matrix(0.02868,0.01416,0,0.0485,30.059,33.054)">
            <path d="M702.177,596.153L1214.91,598.825L1214.91,640.62L700.395,640.62L702.177,596.153Z" style="fill-rule:nonzero;"/>
        </g>
        <g transform="matrix(0.02868,0.01416,0,0.0485,83.527,7.582)">
            <path d="M702.177,596.153L1214.91,598.825L1214.91,640.62L700.395,640.62L702.177,596.153Z" style="fill-rule:nonzero;"/>
        </g>
        <g transform="matrix(0.02868,0.01416,0,0.0485,82.78,57.51)">
            <path d="M702.177,596.153L1214.91,598.825L1214.91,640.62L700.395,640.62L702.177,596.153Z" style="fill:rgb(167,148,51);fill-rule:nonzero;"/>
        </g>
        <g transform="matrix(0.02868,0.01416,0,0.0485,29.283,84.258)">
            <path d="M702.177,596.153L1214.91,598.825L1214.91,640.62L700.395,640.62L702.177,596.153Z" style="fill-rule:nonzero;"/>
        </g>
        <g transform="matrix(0.0485,-0.02425,0,0.0485,32.181,63.238)">
            <path d="M363.817,943.029C435.923,958.285 461.656,914.294 517.089,990.849L514.826,1075C407.313,926.229 246.241,1078.14 223.817,1116.71L180.462,1091.92L190.422,1049.08L262.446,977.551L363.817,943.029Z" style="fill-rule:nonzero;"/>
        </g>
        <g transform="matrix(0.0485,-0.02425,0,0.0485,34.613,66.689)">
            <rect x="625.74" y="644.656" width="40.354" height="512.502" style="fill-rule:nonzero;"/>
        </g>
        <g transform="matrix(0.0485,-0.02425,0,0.0485,18.595,83.06)">
            <rect x="625.74" y="644.656" width="40.354" height="512.502" style="fill-rule:nonzero;"/>
        </g>
        <g transform="matrix(0.0485,-0.02425,0,0.0485,18.723,57.904)">
            <rect x="625.74" y="644.656" width="40.354" height="512.502" style="fill-rule:nonzero;"/>
        </g>
        <g transform="matrix(0.0485,-0.02425,0,0.0485,71.54,33.573)">
            <rect x="625.74" y="644.656" width="40.354" height="512.502" style="fill:rgb(167,148,51);fill-rule:nonzero;"/>
        </g>
        <g transform="matrix(0.0485,-0.02425,0,0.0485,71.54,57.26)">
            <rect x="625.74" y="644.656" width="40.354" height="512.502" style="fill:rgb(167,148,51);fill-rule:nonzero;"/>
        </g>
        <g transform="matrix(0.0485,-0.02425,0,0.0485,32.841,67.77)">
            <path d="M1216.93,597.043L1733.23,599.716L1731.45,640.62L1216.93,640.62L1216.93,597.043Z" style="fill-rule:nonzero;"/>
        </g>
        <g transform="matrix(0.0485,-0.02425,0,0.0485,36.48,64.084)">
            <rect x="791.193" y="856.517" width="86.762" height="86.762" style="fill-rule:nonzero;"/>
        </g>
        <g transform="matrix(0.0485,-0.02425,0,0.0485,33.834,67.07)">
            <path d="M1222.99,1088.56L1037.36,751.595L1075.69,729.4L1122.1,812.127L1323.87,812.127L1370.28,729.4L1408.62,751.595L1222.99,1088.56ZM1142.28,854.499L1222.99,997.757L1303.69,854.499L1142.28,854.499Z" style="fill-rule:nonzero;"/>
        </g>
        <g transform="matrix(0.0485,-0.02425,0,0.0485,32.194,66.75)">
            <rect x="1566" y="856.517" width="86.762" height="86.762" style="fill-rule:nonzero;"/>
        </g>
        <g transform="matrix(0.0485,-0.02425,0,0.0485,32.611,67.646)">
            <rect x="1779.88" y="644.656" width="40.354" height="512.502" style="fill-rule:nonzero;"/>
        </g>
        <g transform="matrix(0.0485,-0.02425,0,0.0485,21.43,64.099)">
            <path d="M2012.23,1032.13C1987.7,1055.62 1961.37,1077.01 1933.22,1094.76L1898.95,1078.07L1884.8,1048.2C1933.62,1023.25 1976.32,992.164 2012.9,954.956" style="fill:rgb(167,148,51);fill-rule:nonzero;"/>
        </g>
        <g transform="matrix(0.0485,-0.02425,0,0.0485,21.43,64.099)">
            <path d="M2012.9,954.956C2021.68,946.017 2030.1,936.737 2038.15,927.137C2081.19,876.021 2114.82,805.401 2139.03,715.276L2166.61,713.608L2193.51,739.489C2202.93,744.869 2203.65,757.099 2190.2,762.48C2161.95,840.498 2127.6,895.526 2092.62,941.261C2068.43,972.794 2041.63,1003.97 2012.23,1032.13" style="fill-rule:nonzero;"/>
        </g>
        <g transform="matrix(0.0485,-0.02425,0,0.0485,36.668,65.136)">
            <rect x="583.367" y="1161.19" width="40.354" height="512.502" style="fill-rule:nonzero;"/>
        </g>
        <g transform="matrix(0.0485,-0.02425,0,0.0485,35.3,66.571)">
            <path d="M664.076,1651.5L1178.6,1651.5L1178.6,1695.08L664.076,1691.51L664.076,1651.5Z" style="fill-rule:nonzero;"/>
        </g>
        <g transform="matrix(0.0485,-0.02425,0,0.0485,35.89,65.93)">
            <path d="M1180.61,1651.5L1695.13,1651.5L1691.57,1687.95L1185.96,1695.97L1180.61,1651.5Z" style="fill-rule:nonzero;"/>
        </g>
        <g transform="matrix(0.0485,-0.02425,0,0.0485,34.547,66.571)">
            <rect x="1737.51" y="1161.19" width="40.354" height="512.502" style="fill-rule:nonzero;"/>
        </g>
        <g transform="matrix(0.0485,-0.02425,0,0.0485,26.913,61.733)">
            <path d="M977.928,1839.54C972.513,2024.95 1155.5,2131.71 1227.04,2207.62C1226.3,2225.76 1251.74,2243.17 1222.6,2247.3C1154.06,2257.04 855.494,1912.37 921.438,1839.04" style="fill-rule:nonzero;"/>
        </g>
        <g transform="matrix(0.0485,-0.02425,0,0.0485,26.913,61.733)">
            <path d="M921.438,1839.04L921.035,1685.75C922.733,1672.69 930.526,1648.89 957.508,1669.94C960.31,1672.12 977.426,1702.27 977.426,1702.27L977.928,1839.54" style="fill:rgb(167,148,51);fill-rule:nonzero;"/>
        </g>
        <g transform="matrix(0.0485,-0.02425,0,0.0485,25.516,62.593)">
            <path d="M1382.65,1834.37L1381.55,1683.97C1379.07,1666.49 1395.22,1648.88 1420.91,1669.17C1423.95,1671.57 1436.16,1695.08 1436.16,1695.08L1437.12,1827.97" style="fill:rgb(167,148,51);fill-rule:nonzero;"/>
        </g>
        <g transform="matrix(0.0485,-0.02425,0,0.0485,25.516,62.593)">
            <path d="M1437.12,1827.97L1439.72,2185.78C1438.26,2205.83 1416.23,2209.93 1399.14,2196.43C1396.34,2194.22 1385.11,2170.15 1385.11,2170.15L1382.65,1834.37" style="fill-rule:nonzero;"/>
        </g>
    </g>
</svg>
