<?xml version="1.0" encoding="UTF-8" standalone="no"?>
<svg
   height="182"
   width="160"
   viewBox="0 0 160 182"
   version="1.1"
   xml:space="preserve"
   style="fill-rule:evenodd;clip-rule:evenodd;stroke-linecap:round;stroke-linejoin:round;stroke-miterlimit:1.5;"
   id="svg1172"
   sodipodi:docname="front-sitting.svg"
   inkscape:version="1.1.1 (3bf5ae0d25, 2021-09-20)"
   xmlns:inkscape="http://www.inkscape.org/namespaces/inkscape"
   xmlns:sodipodi="http://sodipodi.sourceforge.net/DTD/sodipodi-0.dtd"
   xmlns="http://www.w3.org/2000/svg"
   xmlns:svg="http://www.w3.org/2000/svg"><defs
   id="defs1176" /><sodipodi:namedview
   id="namedview1174"
   pagecolor="#505050"
   bordercolor="#ffffff"
   borderopacity="1"
   inkscape:pageshadow="0"
   inkscape:pageopacity="0"
   inkscape:pagecheckerboard="1"
   showgrid="false"
   inkscape:zoom="4.6263736"
   inkscape:cx="80.084323"
   inkscape:cy="91.108076"
   inkscape:window-width="1920"
   inkscape:window-height="1027"
   inkscape:window-x="-8"
   inkscape:window-y="-8"
   inkscape:window-maximized="1"
   inkscape:current-layer="svg1172" />
    <g
   id="FronSitting"
   opacity="0.95"
   transform="translate(0,-8.0721516)">
        <g
   transform="matrix(0.363815,0,0,0.363815,-147.57,-175.065)"
   id="g1053">
            <path
   d="m 542.173,844.83 0.977,-139.625 145.559,-72.779 45.537,22.827 1.221,137.42 -148.739,76.039 z"
   style="fill:#6c4444;stroke:#000000;stroke-width:2.75px"
   id="path1051" />
        </g>
        <g
   transform="matrix(0.363815,0,0,0.363815,-93.1326,-201.176)"
   id="g1057">
            <path
   d="m 557.238,767.261 5.032,-5.562 3.641,6.302 c -10.069,22.928 -5.35,67.535 2.45,68.116 l -5.831,2.864 -5.557,-6.571 c -4.332,-15.596 -4.584,-36.841 0.265,-65.149 z"
   style="fill:#5e3b3b"
   id="path1055" />
        </g>
        <g
   transform="matrix(0.0487332,-0.0243666,0,0.0487332,33.0499,75.3416)"
   id="g1061">
            <path
   d="m 702.177,596.153 512.733,2.672 V 640.62 H 700.395 Z"
   style="fill-rule:nonzero"
   id="path1059" />
        </g>
        <g
   transform="matrix(0.0487332,-0.0243666,0,0.0487332,42.7927,54.9662)"
   id="g1065">
            <path
   d="m 702.177,596.153 512.733,2.672 V 640.62 H 700.395 Z"
   style="fill-rule:nonzero"
   id="path1063" />
        </g>
        <g
   transform="matrix(0.0487332,-0.0243666,0,0.0487332,17.7531,67.2436)"
   id="g1069">
            <path
   d="m 702.177,596.153 512.733,2.672 V 640.62 H 700.395 Z"
   style="fill-rule:nonzero"
   id="path1067" />
        </g>
        <g
   transform="matrix(0.0487332,-0.0243666,0,0.0487332,17.0376,117.701)"
   id="g1073">
            <path
   d="m 702.177,596.153 512.733,2.672 V 640.62 H 700.395 Z"
   style="fill:#5e3b3b;fill-rule:nonzero"
   id="path1071" />
        </g>
        <g
   transform="matrix(0.0487332,-0.0243666,0,0.0487332,42.1117,105.164)"
   id="g1077">
            <path
   d="m 702.177,596.153 512.733,2.672 V 640.62 H 700.395 Z"
   style="fill:#5e3b3b;fill-rule:nonzero"
   id="path1075" />
        </g>
        <g
   transform="matrix(0.0288186,0.0142252,0,0.0487332,29.8371,40.9102)"
   id="g1081">
            <path
   d="m 702.177,596.153 512.733,2.672 V 640.62 H 700.395 Z"
   style="fill-rule:nonzero"
   id="path1079" />
        </g>
        <g
   transform="matrix(0.0288186,0.0142252,0,0.0487332,83.5582,15.3181)"
   id="g1085">
            <path
   d="m 702.177,596.153 512.733,2.672 V 640.62 H 700.395 Z"
   style="fill-rule:nonzero"
   id="path1083" />
        </g>
        <g
   transform="matrix(0.0288186,0.0142252,0,0.0487332,82.8078,65.4809)"
   id="g1089">
            <path
   d="m 702.177,596.153 512.733,2.672 V 640.62 H 700.395 Z"
   style="fill:#5e3b3b;fill-rule:nonzero"
   id="path1087" />
        </g>
        <g
   transform="matrix(0.0288186,0.0142252,0,0.0487332,29.0576,92.356)"
   id="g1093">
            <path
   d="m 702.177,596.153 512.733,2.672 V 640.62 H 700.395 Z"
   style="fill-rule:nonzero"
   id="path1091" />
        </g>
        <g
   transform="matrix(0.0487332,-0.0243666,0,0.0487332,34.4126,74.7033)"
   id="g1097">
            <rect
   x="625.73999"
   y="644.65601"
   width="40.354"
   height="512.50201"
   style="fill-rule:nonzero"
   id="rect1095" />
        </g>
        <g
   transform="matrix(0.0487332,-0.0243666,0,0.0487332,18.3193,91.1517)"
   id="g1101">
            <rect
   x="625.73999"
   y="644.65601"
   width="40.354"
   height="512.50201"
   style="fill-rule:nonzero"
   id="rect1099" />
        </g>
        <g
   transform="matrix(0.0487332,-0.0243666,0,0.0487332,18.4474,65.877)"
   id="g1105">
            <rect
   x="625.73999"
   y="644.65601"
   width="40.354"
   height="512.50201"
   style="fill-rule:nonzero"
   id="rect1103" />
        </g>
        <g
   transform="matrix(0.0487332,-0.0243666,0,0.0487332,71.5147,41.4316)"
   id="g1109">
            <rect
   x="625.73999"
   y="644.65601"
   width="40.354"
   height="512.50201"
   style="fill:#5e3b3b;fill-rule:nonzero"
   id="rect1107" />
        </g>
        <g
   transform="matrix(0.0487332,-0.0243666,0,0.0487332,71.5147,65.2295)"
   id="g1113">
            <rect
   x="625.73999"
   y="644.65601"
   width="40.354"
   height="512.50201"
   style="fill:#5e3b3b;fill-rule:nonzero"
   id="rect1111" />
        </g>
        <g
   transform="matrix(0.0487332,-0.0243666,0,0.0487332,32.6325,75.7901)"
   id="g1117">
            <path
   d="m 1216.93,597.043 516.3,2.673 -1.78,40.904 h -514.52 z"
   style="fill-rule:nonzero"
   id="path1115" />
        </g>
        <g
   transform="matrix(0.0487332,-0.0243666,0,0.0487332,36.2883,72.0863)"
   id="g1121">
            <rect
   x="791.19299"
   y="856.51703"
   width="86.762001"
   height="86.762001"
   style="fill-rule:nonzero"
   id="rect1119" />
        </g>
        <g
   transform="matrix(0.0487332,-0.0243666,0,0.0487332,33.6301,75.087)"
   id="g1125">
            <path
   d="m 1222.99,1088.56 -185.63,-336.965 38.33,-22.195 46.41,82.727 h 201.77 l 46.41,-82.727 38.34,22.195 z m -80.71,-234.061 80.71,143.258 80.7,-143.258 z"
   style="fill-rule:nonzero"
   id="path1123" />
        </g>
        <g
   transform="matrix(0.363815,0,0,0.363815,-147.57,-175.065)"
   id="g1129">
            <path
   d="m 557.238,767.261 5.032,-5.562 3.584,5.006 c -8.613,26.422 -6.076,51.538 1.059,70.136 l -1.252,3.621 -4.399,-0.035 -4.289,-8.017 c -4.332,-15.596 -4.584,-36.841 0.265,-65.149 z"
   id="path1127" />
        </g>
        <g
   transform="matrix(0.0487332,-0.0243666,0,0.0487332,31.9821,74.7655)"
   id="g1133">
            <rect
   x="1566"
   y="856.51703"
   width="86.762001"
   height="86.762001"
   style="fill-rule:nonzero"
   id="rect1131" />
        </g>
        <g
   transform="matrix(0.0487332,-0.0243666,0,0.0487332,32.4018,75.6657)"
   id="g1137">
            <rect
   x="1779.88"
   y="644.65601"
   width="40.354"
   height="512.50201"
   style="fill-rule:nonzero"
   id="rect1135" />
        </g>
        <g
   transform="matrix(0.0487332,-0.0243666,0,0.0487332,36.4776,73.1437)"
   id="g1141">
            <rect
   x="583.367"
   y="1161.1899"
   width="40.354"
   height="512.50201"
   style="fill-rule:nonzero"
   id="rect1139" />
        </g>
        <g
   transform="matrix(0.0487332,-0.0243666,0,0.0487332,35.1023,74.5855)"
   id="g1145">
            <path
   d="M 664.076,1651.5 H 1178.6 v 43.58 l -514.524,-3.57 z"
   style="fill-rule:nonzero"
   id="path1143" />
        </g>
        <g
   transform="matrix(0.0487332,-0.0243666,0,0.0487332,35.695,73.9405)"
   id="g1149">
            <path
   d="m 1180.61,1651.5 h 514.52 l -3.56,36.45 -505.61,8.02 z"
   style="fill-rule:nonzero"
   id="path1147" />
        </g>
        <g
   transform="matrix(0.0487332,-0.0243666,0,0.0487332,34.3461,74.5855)"
   id="g1153">
            <rect
   x="1737.51"
   y="1161.1899"
   width="40.354"
   height="512.50201"
   style="fill-rule:nonzero"
   id="rect1151" />
        </g>
        <g
   transform="matrix(0.0487332,-0.0243666,0,0.0487332,26.6767,69.7246)"
   id="g1157">
            <path
   d="m 921.438,1839.04 -0.403,-153.29 c 1.698,-13.06 9.491,-36.86 36.473,-15.81 2.802,2.18 19.918,32.33 19.918,32.33 l 0.502,137.27"
   style="fill:#5e3b3b;fill-rule:nonzero"
   id="path1155" />
        </g>
        <g
   transform="matrix(0.0487332,-0.0243666,0,0.0487332,25.2725,70.5887)"
   id="g1161">
            <path
   d="m 1382.65,1834.37 -1.1,-150.4 c -2.48,-17.48 13.67,-35.09 39.36,-14.8 3.04,2.4 15.25,25.91 15.25,25.91 l 0.96,132.89"
   style="fill:#5e3b3b;fill-rule:nonzero"
   id="path1159" />
        </g>
        <g
   transform="matrix(0.0487332,-0.0243666,0,0.0487332,25.2725,70.5887)"
   id="g1165">
            <path
   d="m 1437.12,1827.97 c 5.33,135.12 124.53,252.45 293.75,361.96 2.95,1.91 9.72,13.03 9.99,16.16 1.83,21.24 -1.57,26.25 -25.89,18.57 -3.59,-1.13 -112.73,-72.85 -112.73,-76.23 -131.6,-104.82 -189.45,-180.88 -219.59,-314.06"
   style="fill-rule:nonzero"
   id="path1163" />
        </g>
        <g
   transform="matrix(0.0487332,-0.0243666,0,0.0487332,3.97913,82.9215)"
   id="g1169">
            <path
   d="m 1437.12,1827.97 c 5.33,135.12 124.53,252.45 293.75,361.96 2.95,1.91 9.72,13.03 9.99,16.16 1.83,21.24 -1.57,26.25 -25.89,18.57 -3.59,-1.13 -112.73,-72.85 -112.73,-76.23 -131.6,-104.82 -189.45,-180.88 -219.59,-314.06"
   style="fill-rule:nonzero"
   id="path1167" />
        </g>
    </g>
</svg>
