<?xml version="1.0" encoding="UTF-8" standalone="no"?>
<!DOCTYPE svg PUBLIC "-//W3C//DTD SVG 1.1//EN" "http://www.w3.org/Graphics/SVG/1.1/DTD/svg11.dtd">
<svg width="100%" height="100%" viewBox="0 0 160 182" version="1.1" xmlns="http://www.w3.org/2000/svg" xmlns:xlink="http://www.w3.org/1999/xlink" xml:space="preserve" xmlns:serif="http://www.serif.com/" style="fill-rule:evenodd;clip-rule:evenodd;stroke-linecap:round;stroke-linejoin:round;stroke-miterlimit:1.5;">
    <g id="FronSitting" opacity="0.95">
        <g transform="matrix(0.363815,0,0,0.363815,-147.57,-175.065)">
            <path d="M542.173,844.83L543.15,705.205L688.709,632.426L734.246,655.253L735.467,792.673L586.728,868.712L542.173,844.83Z" style="fill:rgb(108,68,68);stroke:black;stroke-width:2.75px;"/>
        </g>
        <g transform="matrix(0.363815,0,0,0.363815,-93.1326,-201.176)">
            <path d="M557.238,767.261L562.27,761.699L565.911,768.001C555.842,790.929 560.561,835.536 568.361,836.117L562.53,838.981L556.973,832.41C552.641,816.814 552.389,795.569 557.238,767.261Z" style="fill:rgb(94,59,59);"/>
        </g>
        <g transform="matrix(0.0487332,-0.0243666,0,0.0487332,33.0499,75.3416)">
            <path d="M702.177,596.153L1214.91,598.825L1214.91,640.62L700.395,640.62L702.177,596.153Z" style="fill-rule:nonzero;"/>
        </g>
        <g transform="matrix(0.0487332,-0.0243666,0,0.0487332,42.7927,54.9662)">
            <path d="M702.177,596.153L1214.91,598.825L1214.91,640.62L700.395,640.62L702.177,596.153Z" style="fill-rule:nonzero;"/>
        </g>
        <g transform="matrix(0.0487332,-0.0243666,0,0.0487332,17.7531,67.2436)">
            <path d="M702.177,596.153L1214.91,598.825L1214.91,640.62L700.395,640.62L702.177,596.153Z" style="fill-rule:nonzero;"/>
        </g>
        <g transform="matrix(0.0487332,-0.0243666,0,0.0487332,17.0376,117.701)">
            <path d="M702.177,596.153L1214.91,598.825L1214.91,640.62L700.395,640.62L702.177,596.153Z" style="fill:rgb(94,59,59);fill-rule:nonzero;"/>
        </g>
        <g transform="matrix(0.0487332,-0.0243666,0,0.0487332,42.1117,105.164)">
            <path d="M702.177,596.153L1214.91,598.825L1214.91,640.62L700.395,640.62L702.177,596.153Z" style="fill:rgb(94,59,59);fill-rule:nonzero;"/>
        </g>
        <g transform="matrix(0.0288186,0.0142252,1.2798e-17,0.0487332,29.8371,40.9102)">
            <path d="M702.177,596.153L1214.91,598.825L1214.91,640.62L700.395,640.62L702.177,596.153Z" style="fill-rule:nonzero;"/>
        </g>
        <g transform="matrix(0.0288186,0.0142252,1.2798e-17,0.0487332,83.5582,15.3181)">
            <path d="M702.177,596.153L1214.91,598.825L1214.91,640.62L700.395,640.62L702.177,596.153Z" style="fill-rule:nonzero;"/>
        </g>
        <g transform="matrix(0.0288186,0.0142252,1.2798e-17,0.0487332,82.8078,65.4809)">
            <path d="M702.177,596.153L1214.91,598.825L1214.91,640.62L700.395,640.62L702.177,596.153Z" style="fill:rgb(94,59,59);fill-rule:nonzero;"/>
        </g>
        <g transform="matrix(0.0288186,0.0142252,1.2798e-17,0.0487332,29.0576,92.356)">
            <path d="M702.177,596.153L1214.91,598.825L1214.91,640.62L700.395,640.62L702.177,596.153Z" style="fill-rule:nonzero;"/>
        </g>
        <g transform="matrix(0.0487332,-0.0243666,0,0.0487332,34.4126,74.7033)">
            <rect x="625.74" y="644.656" width="40.354" height="512.502" style="fill-rule:nonzero;"/>
        </g>
        <g transform="matrix(0.0487332,-0.0243666,0,0.0487332,18.3193,91.1517)">
            <rect x="625.74" y="644.656" width="40.354" height="512.502" style="fill-rule:nonzero;"/>
        </g>
        <g transform="matrix(0.0487332,-0.0243666,0,0.0487332,18.4474,65.877)">
            <rect x="625.74" y="644.656" width="40.354" height="512.502" style="fill-rule:nonzero;"/>
        </g>
        <g transform="matrix(0.0487332,-0.0243666,-1.34531e-32,0.0487332,71.5147,41.4316)">
            <rect x="625.74" y="644.656" width="40.354" height="512.502" style="fill:rgb(94,59,59);fill-rule:nonzero;"/>
        </g>
        <g transform="matrix(0.0487332,-0.0243666,0,0.0487332,71.5147,65.2295)">
            <rect x="625.74" y="644.656" width="40.354" height="512.502" style="fill:rgb(94,59,59);fill-rule:nonzero;"/>
        </g>
        <g transform="matrix(0.0487332,-0.0243666,0,0.0487332,32.6325,75.7901)">
            <path d="M1216.93,597.043L1733.23,599.716L1731.45,640.62L1216.93,640.62L1216.93,597.043Z" style="fill-rule:nonzero;"/>
        </g>
        <g transform="matrix(0.0487332,-0.0243666,0,0.0487332,36.2883,72.0863)">
            <rect x="791.193" y="856.517" width="86.762" height="86.762" style="fill-rule:nonzero;"/>
        </g>
        <g transform="matrix(0.0487332,-0.0243666,0,0.0487332,33.6301,75.087)">
            <path d="M1222.99,1088.56L1037.36,751.595L1075.69,729.4L1122.1,812.127L1323.87,812.127L1370.28,729.4L1408.62,751.595L1222.99,1088.56ZM1142.28,854.499L1222.99,997.757L1303.69,854.499L1142.28,854.499Z" style="fill-rule:nonzero;"/>
        </g>
        <g transform="matrix(0.363815,0,0,0.363815,-147.57,-175.065)">
            <path d="M557.238,767.261L562.27,761.699L565.854,766.705C557.241,793.127 559.778,818.243 566.913,836.841L565.661,840.462L561.262,840.427L556.973,832.41C552.641,816.814 552.389,795.569 557.238,767.261Z"/>
        </g>
        <g transform="matrix(0.0487332,-0.0243666,0,0.0487332,31.9821,74.7655)">
            <rect x="1566" y="856.517" width="86.762" height="86.762" style="fill-rule:nonzero;"/>
        </g>
        <g transform="matrix(0.0487332,-0.0243666,0,0.0487332,32.4018,75.6657)">
            <rect x="1779.88" y="644.656" width="40.354" height="512.502" style="fill-rule:nonzero;"/>
        </g>
        <g transform="matrix(0.0487332,-0.0243666,0,0.0487332,36.4776,73.1437)">
            <rect x="583.367" y="1161.19" width="40.354" height="512.502" style="fill-rule:nonzero;"/>
        </g>
        <g transform="matrix(0.0487332,-0.0243666,0,0.0487332,35.1023,74.5855)">
            <path d="M664.076,1651.5L1178.6,1651.5L1178.6,1695.08L664.076,1691.51L664.076,1651.5Z" style="fill-rule:nonzero;"/>
        </g>
        <g transform="matrix(0.0487332,-0.0243666,0,0.0487332,35.695,73.9405)">
            <path d="M1180.61,1651.5L1695.13,1651.5L1691.57,1687.95L1185.96,1695.97L1180.61,1651.5Z" style="fill-rule:nonzero;"/>
        </g>
        <g transform="matrix(0.0487332,-0.0243666,0,0.0487332,34.3461,74.5855)">
            <rect x="1737.51" y="1161.19" width="40.354" height="512.502" style="fill-rule:nonzero;"/>
        </g>
        <g transform="matrix(0.0487332,-0.0243666,0,0.0487332,26.6767,69.7246)">
            <path d="M921.438,1839.04L921.035,1685.75C922.733,1672.69 930.526,1648.89 957.508,1669.94C960.31,1672.12 977.426,1702.27 977.426,1702.27L977.928,1839.54" style="fill:rgb(94,59,59);fill-rule:nonzero;"/>
        </g>
        <g transform="matrix(0.0487332,-0.0243666,0,0.0487332,25.2725,70.5887)">
            <path d="M1382.65,1834.37L1381.55,1683.97C1379.07,1666.49 1395.22,1648.88 1420.91,1669.17C1423.95,1671.57 1436.16,1695.08 1436.16,1695.08L1437.12,1827.97" style="fill:rgb(94,59,59);fill-rule:nonzero;"/>
        </g>
        <g transform="matrix(0.0487332,-0.0243666,0,0.0487332,25.2725,70.5887)">
            <path d="M1437.12,1827.97C1442.45,1963.09 1561.65,2080.42 1730.87,2189.93C1733.82,2191.84 1740.59,2202.96 1740.86,2206.09C1742.69,2227.33 1739.29,2232.34 1714.97,2224.66C1711.38,2223.53 1602.24,2151.81 1602.24,2148.43C1470.64,2043.61 1412.79,1967.55 1382.65,1834.37" style="fill-rule:nonzero;"/>
        </g>
        <g transform="matrix(0.0487332,-0.0243666,0,0.0487332,3.97913,82.9215)">
            <path d="M1437.12,1827.97C1442.45,1963.09 1561.65,2080.42 1730.87,2189.93C1733.82,2191.84 1740.59,2202.96 1740.86,2206.09C1742.69,2227.33 1739.29,2232.34 1714.97,2224.66C1711.38,2223.53 1602.24,2151.81 1602.24,2148.43C1470.64,2043.61 1412.79,1967.55 1382.65,1834.37" style="fill-rule:nonzero;"/>
        </g>
    </g>
</svg>
