<svg width="160" height="182" xmlns="http://www.w3.org/2000/svg" xml:space="preserve" style="fill-rule:evenodd;clip-rule:evenodd;stroke-linecap:round;stroke-linejoin:round;stroke-miterlimit:1.5"><path d="m542.173 844.83.977-139.625 145.559-72.779 45.537 22.827 1.221 137.42-148.739 76.039-44.555-23.882Z" style="fill:#6c4444;fill-opacity:.95;stroke:#000;stroke-opacity:.95;stroke-width:2.75px" transform="translate(-147.57 -183.137) scale(.36381)"/><path d="m557.238 767.261 5.032-5.562 3.641 6.302c-10.069 22.928-5.35 67.535 2.45 68.116l-5.831 2.864-5.557-6.571c-4.332-15.596-4.584-36.841.265-65.149Z" style="fill:#5e3b3b" transform="translate(-93.133 -209.248) scale(.36381)"/><path d="m702.177 596.153 512.733 2.672v41.795H700.395l1.782-44.467Z" style="fill-rule:nonzero" transform="matrix(.04873 -.02437 0 .04873 33.05 67.27)"/><path d="m702.177 596.153 512.733 2.672v41.795H700.395l1.782-44.467Z" style="fill-rule:nonzero" transform="matrix(.04873 -.02437 0 .04873 42.793 46.894)"/><path d="m702.177 596.153 512.733 2.672v41.795H700.395l1.782-44.467Z" style="fill-rule:nonzero" transform="matrix(.04873 -.02437 0 .04873 17.753 59.171)"/><path d="m702.177 596.153 512.733 2.672v41.795H700.395l1.782-44.467Z" style="fill:#5e3b3b;fill-rule:nonzero" transform="matrix(.04873 -.02437 0 .04873 17.038 109.629)"/><path d="m702.177 596.153 512.733 2.672v41.795H700.395l1.782-44.467Z" style="fill:#5e3b3b;fill-rule:nonzero" transform="matrix(.04873 -.02437 0 .04873 42.112 97.092)"/><path d="m702.177 596.153 512.733 2.672v41.795H700.395l1.782-44.467Z" style="fill-rule:nonzero" transform="matrix(.02882 .01423 0 .04873 29.837 32.838)"/><path d="m702.177 596.153 512.733 2.672v41.795H700.395l1.782-44.467Z" style="fill-rule:nonzero" transform="matrix(.02882 .01423 0 .04873 83.558 7.246)"/><path d="m702.177 596.153 512.733 2.672v41.795H700.395l1.782-44.467Z" style="fill:#5e3b3b;fill-rule:nonzero" transform="matrix(.02882 .01423 0 .04873 82.808 57.409)"/><path d="m702.177 596.153 512.733 2.672v41.795H700.395l1.782-44.467Z" style="fill-rule:nonzero" transform="matrix(.02882 .01423 0 .04873 29.058 84.284)"/><path d="m64.905 82.796 1.967-.984v24.975l-1.967.983zM48.812 99.245l1.967-.984v24.975l-1.967.983zm.128-25.275 1.966-.984v24.975l-1.967.983z"/><path style="fill:#5e3b3b" d="M625.74 644.656h40.354v512.502H625.74z" transform="matrix(.04873 -.02437 0 .04873 71.515 33.36)"/><path style="fill:#5e3b3b" d="M625.74 644.656h40.354v512.502H625.74z" transform="matrix(.04873 -.02437 0 .04873 71.515 57.157)"/><path d="m1216.93 597.043 516.3 2.673-1.78 40.904h-514.52v-43.577Z" style="fill-rule:nonzero" transform="matrix(.04873 -.02437 0 .04873 32.633 67.718)"/><path d="m74.843 86.47 4.228-2.114v4.228L74.843 90.7z"/><path d="m1222.99 1088.56-185.63-336.965 38.33-22.195 46.41 82.727h201.77l46.41-82.727 38.34 22.195-185.63 336.965Zm-80.71-234.061 80.71 143.258 80.7-143.258h-161.41Z" style="fill-rule:nonzero" transform="matrix(.04873 -.02437 0 .04873 33.63 67.015)"/><path d="m55.162 96.004 1.83-2.024 1.304 1.822c-3.133 9.612-2.21 18.75.385 25.516l-.455 1.318-1.6-.013-1.56-2.917c-1.577-5.674-1.669-13.403.096-23.702Zm53.131-25.736 4.228-2.115v4.228l-4.228 2.115zm10.843-14.636 1.966-.983v24.974l-1.966.984zM64.905 107.44l1.967-.983v24.974l-1.967.983z"/><path d="M664.076 1651.5H1178.6v43.58l-514.524-3.57v-40.01Z" style="fill-rule:nonzero" transform="matrix(.04873 -.02437 0 .04873 35.102 66.513)"/><path d="M1180.61 1651.5h514.52l-3.56 36.45-505.61 8.02-5.35-44.47Z" style="fill-rule:nonzero" transform="matrix(.04873 -.02437 0 .04873 35.695 65.868)"/><path d="m119.015 80.755 1.966-.984v24.974l-1.966.984z"/><path d="m921.438 1839.04-.403-153.29c1.698-13.06 9.491-36.86 36.473-15.81 2.802 2.18 19.918 32.33 19.918 32.33l.502 137.27" style="fill:#5e3b3b;fill-rule:nonzero" transform="matrix(.04873 -.02437 0 .04873 26.677 61.652)"/><path d="m1382.65 1834.37-1.1-150.4c-2.48-17.48 13.67-35.09 39.36-14.8 3.04 2.4 15.25 25.91 15.25 25.91l.96 132.89" style="fill:#5e3b3b;fill-rule:nonzero" transform="matrix(.04873 -.02437 0 .04873 25.273 62.517)"/><path d="M1437.12 1827.97c5.33 135.12 124.53 252.45 293.75 361.96 2.95 1.91 9.72 13.03 9.99 16.16 1.83 21.24-1.57 26.25-25.89 18.57-3.59-1.13-112.73-72.85-112.73-76.23-131.6-104.82-189.45-180.88-219.59-314.06" style="fill-rule:nonzero" transform="matrix(.04873 -.02437 0 .04873 25.273 62.517)"/><path d="M1437.12 1827.97c5.33 135.12 124.53 252.45 293.75 361.96 2.95 1.91 9.72 13.03 9.99 16.16 1.83 21.24-1.57 26.25-25.89 18.57-3.59-1.13-112.73-72.85-112.73-76.23-131.6-104.82-189.45-180.88-219.59-314.06" style="fill-rule:nonzero" transform="matrix(.04873 -.02437 0 .04873 3.98 74.85)"/><path d="m93.177 92.907-9.281 23.321c-15.817-9.775-6.101-21.208 9.281-23.321Z" style="fill:url(#a)"/><path d="M39.285 16.87S20.739 28.3 20.739 33.199c0 9.012 8.31 16.329 18.546 16.329 10.236 0 18.546-7.317 18.546-16.329 0-4.899-18.546-16.329-18.546-16.329Z" style="fill:url(#b)" transform="matrix(.68154 -.34077 0 .68154 66.403 94.797)"/><defs><radialGradient id="a" cx="0" cy="0" r="1" gradientUnits="userSpaceOnUse" gradientTransform="matrix(-9.39728 -3.78527 5.08406 -12.6216 87.707 106.436)"><stop offset="0" style="stop-color:#8b7347;stop-opacity:1"/><stop offset=".54" style="stop-color:#846946;stop-opacity:1"/><stop offset="1" style="stop-color:#6c4444;stop-opacity:1"/></radialGradient><radialGradient id="b" cx="0" cy="0" r="1" gradientUnits="userSpaceOnUse" gradientTransform="matrix(18.546 0 0 16.3292 39.592 35.958)"><stop offset="0" style="stop-color:#8f785a;stop-opacity:1"/><stop offset=".52" style="stop-color:#aa9f63;stop-opacity:1"/><stop offset="1" style="stop-color:#b4ad66;stop-opacity:1"/></radialGradient></defs></svg>