<svg width="381.934" height="326.352" xml:space="preserve" style="clip-rule:evenodd;fill-rule:evenodd;stroke-linecap:round;stroke-linejoin:round;stroke-miterlimit:1.5" xmlns="http://www.w3.org/2000/svg"><g style="clip-rule:evenodd;fill-rule:evenodd;stroke-linecap:round;stroke-linejoin:round;stroke-miterlimit:1.5"><path d="m2919.75 1059.17-.34 114.32 57.24-28.62v-114.49" style="fill:#f4e5c4;stroke:#000;stroke-width:2px" transform="translate(-2681.623 -1029.38)"/><path d="m3059.89 162.16-25.99-13.196c-3.11-2.726-5.59-2.332-7.52-1.914 0 0-63.93 30.442-97.81 48.722-5.82 3.962-8.85 9.315-9.16 16.028v91.59c-.31 2.779 3.65 7.32 3.65 7.32l28.51 14.26z" style="fill:#a6a6a6;stroke:#000;stroke-width:1px" transform="translate(-2681.606 -136.151)"/><path d="m2990.95 307.692.26 15.252c1.61 4.323 12.23 5.954 14.05.248l-.07-23.51z" style="fill:#a6a6a6;stroke:#000;stroke-width:.95px" transform="matrix(1.09378 0 0 1 -2972.337 -141.253)"/><path d="m3048.31 1180.59 28.62 14.31-114.59 57.3-28.43-14.41z" style="fill-opacity:.1" transform="translate(-2694.996 -1037.004)"/><path d="M3068.63 171.424c0-7.729-4.32-14.005-9.64-14.005h-101.31c-5.32 0-9.65 6.276-9.65 14.005v112.041c0 7.73 4.33 14.005 9.65 14.005h101.31c5.32 0 9.64-6.275 9.64-14.005z" style="fill:#a6a6a6;stroke:#000;stroke-width:1.4px" transform="matrix(.9493 -.47465 0 .81746 -2532.136 1349.109)"/><path d="M3068.63 171.424c0-7.729-4.32-14.005-9.64-14.005h-101.31c-5.32 0-9.65 6.276-9.65 14.005v112.041c0 7.73 4.33 14.005 9.65 14.005h101.31c5.32 0 9.64-6.275 9.64-14.005z" style="fill:#ebebeb;stroke:#000;stroke-width:1.45px" transform="matrix(.91915 -.45957 0 .7915 -2440.255 1310.889)"/><path d="M2959.35 1182.11c1.73-1.29 3.16-2.71 4.21-4.36-.91-.79-1.8-1.49-2.6-1.97l.65-.32c.87.11 1.35.57 2.55 1.22.38-.6.28-.73.59-1.4.32-.66.22-1.4.22-1.57 0-.06.13-.98.13-.98.73.01 1.36.21 1.88.59.42.31.62.58.62.82 0 .13-.06.24-.18.33-.15.12-.23.19-.25.22-.1.22.08.89-.28 1.5-.41.7-.62 1.5-.81 1.85 1.31.93 1.46 1.2 1.46 1.86a.9.9 0 0 1-.24.65c-.16.15-.37.24-.63.24-.27 0-.53-.18-.79-.53-.61-.79-.61-.81-.81-1.03-.66.86-1.33 1.16-2.26 1.81-.92.64-2.38 1.06-3.32 1.31zm20.57-10.05.07-.18c.66-.02 1.19.05 1.57.22.38.17.58.4.58.71 0 .2-.06.35-.18.48-.11.11-.27.17-.46.17-.15 0-.34-.13-.56-.41-.32-.41-.66-.73-1.02-.99zm-.99.96.09-.17c.61.04 1.1.17 1.45.37.36.2.54.45.54.75 0 .19-.41.66-.59.66-.13 0-.48-.27-.59-.46a4.26 4.26 0 0 0-.9-1.15zm-4.47 3.76c-.59.08-1.11.22-1.61.32-.4.09-.57-.18-.59-.18-.18 0-.39-.28-.61-.83-.23-.56-.31-1-.25-1.32 0 0 .95.7 1.15.7.5 0 1.21-.04 2.13-.11.15-.83.22-1.48.22-1.94 0-.17-.06-.3-.17-.37-.12-.09-.36-.17-.72-.26v-.26c.29-.1.57-.15.84-.15.42 0 .86.11 1.33.32.47.21.7.41.7.6 0 .05.35.51.31.59-.14.32-.18.69-.28 1.43.62-.05.69-.14 1.3-.18.07 0 .21-.09.41-.27.2-.18.34-.26.42-.26.14 0 .43.17.85.52.43.36.64.59.64.71 0 .11-.15.26-.43.43-.4 2.68-.84 4.5-1.32 5.46-.21.4-.44.69-.69.87-.25.17-.55.26-.92.26-.5 0-.75-.15-.77-.46.01-.14-.05-.75-.16-.86l-1.04-1.17.16-.23 1.27.67c.27.14.45-.1.54-.1.22 0 .34-.29.5-1.25.16-.98.15-1.36.19-2.56-.69.02-.43-.05-1.24.04-.3 1.71-1.31 2.55-2.21 3.71-.9 1.15-2.01 1.92-3.33 2.29l-.13-.24c.98-.72 1.75-1.58 2.31-2.55.56-.98.92-1.92 1.2-3.37zm15.03.96.34-.33c1.11.15 1.77.48 2.37.85.6.36.9.79.9 1.29 0 .24-.09.46-.27.65-.18.19-.92.23-1.05.12-.12-.11-.31-.34-.56-.71-.55-.79-1.13-1.42-1.73-1.87zm-.6-4.28c0 .21-.07.39-.23.55-.15.15-.32.22-.52.22-.13 0-.24-.03-.33-.09-.1-.06-.25-.22-.45-.47a4.2 4.2 0 0 0-1.47-1.13l.09-.24c.81-.09 1.5-.01 2.07.22.56.23.84.55.84.94zm-5.55 7.15c2.39-1.53 2.93-2.78 4.17-4.63-1.3.21-.94-.06-1.47.07-.1.02-.24.09-.44.2-.17.1-.3.14-.37.14-.25 0-.49-.22-.74-.65-.25-.44-.36-.87-.34-1.3l.25-.12c.19.27.77.31.85.31.33 0 1.54.07 4.07-.4.08-.01.2-.08.35-.2.15-.12.25-.18.29-.18.17 0 .44.16.8.49.37.32.56.56.56.73 0 .11-.08.21-.23.28-.19.09-.3.16-.31.18-.55.67-1.14 1.34-1.77 2.02.21.11.31.21.31.27 0 .07-.04.16-.13.25-.09.11-.13.2-.13.27v1.8a22.336 22.336 0 0 0 .1 2.11c0 .17-.06.31-.17.44-.11.12-.24.18-.37.18-.28 0-.55-.08-.81-.24-.27-.16-.72-.09-.72-.28 0-.07.05-1.53.05-2.18l.04-1.1c-1.39 1.02-2.4 1.47-3.72 1.79zm15.63-7.58 1.42.26c-.63 2.05-.94 4.27-.94 6.66 0 1.37 1.06 1.46 1.31 2.4l-2.26 1.27c-.21-1.04-.31-2.27-.31-3.67 0-2.47.26-4.77.78-6.92zm8.39.1 1.17 1.93-1.91-.72c-.03.52-.05 1.21-.05 2.04.82-.12 1.57-.29 2.26-.52l-.01 1.68c-.77.16-1.51-.19-2.25-.1 0 .57.02 1.11.04 1.62.04.63.05 1.16.05 1.57.86.34 1.77.81 2.74 1.41l-.84 1.01c-.68-.54-1.33-.98-1.95-1.31-.08.5-.25.88-.53 1.15-.45.43-1.11.63-1.97.63-.71 0-1.29-.11-1.76-.34-.64-.31-.96-.8-.96-1.45 0-.6.32-1.07.96-1.39.4-.19.93-.29 1.6-.29.5 0 1 .07 1.51.2-.01-.46-.02-.97-.04-1.51l-.04-1.16c-.62.04-1.24.06-1.85.06-.87 0-1.62-.05-2.25-.16l.05-1.04c.58.1 1.31.15 2.2.15.65 0 1.26-.02 1.84-.06l.05-1.97c-.75.1-1.47.15-2.15.15-.69 0-1.13-.02-1.31-.04v-1.01c2.39 0 4.18-.18 5.4-.53zm-1.9 8.09c-.55-.18-1.05-.28-1.51-.28-.98 0-1.46.26-1.46.79 0 .34.23.59.72.76.28.09.58.13.9.13.6 0 .99-.16 1.15-.48.11-.22.17-.53.2-.92zm3.89-9.6c.36 0 .68.13.96.4.27.28.4.6.4.97 0 .38-.13.71-.4 1-.28.27-.6.4-.96.4-.38 0-.72-.13-1.01-.4-.27-.29-.4-.62-.4-1 0-.37.13-.69.4-.97.29-.27.63-.4 1.01-.4zm0 2.04c.18 0 .32-.07.45-.2.12-.14.18-.3.18-.47 0-.17-.06-.33-.18-.46a.662.662 0 0 0-.45-.17.76.76 0 0 0-.48.17c-.13.13-.2.29-.2.46a.686.686 0 0 0 .68.67z" style="fill:#0854a3;fill-rule:nonzero" transform="matrix(1 -.5 0 1 -2678.242 467.998)"/><path d="m2998.97 1173.03 1.42.26c-.63 2.05-.94 4.27-.94 6.66 0 1.37 1.06 1.46 1.31 2.4l-2.26 1.27c-.21-1.04-.31-2.27-.31-3.67 0-2.47.26-4.77.78-6.92zm8.39.1 1.17 1.93-1.91-.72c-.03.52-.05 1.21-.05 2.04.82-.12 1.57-.29 2.26-.52l-.01 1.68c-.77.16-1.51-.19-2.25-.1 0 .57.02 1.11.04 1.62.04.63.05 1.16.05 1.57.86.34 1.77.81 2.74 1.41l-.84 1.01c-.68-.54-1.33-.98-1.95-1.31-.08.5-.25.88-.53 1.15-.45.43-1.11.63-1.97.63-.71 0-1.29-.11-1.76-.34-.64-.31-.96-.8-.96-1.45 0-.6.32-1.07.96-1.39.4-.19.93-.29 1.6-.29.5 0 1 .07 1.51.2-.01-.46-.02-.97-.04-1.51l-.04-1.16c-.62.04-1.24.06-1.85.06-.87 0-1.62-.05-2.25-.16l.05-1.04c.58.1 1.31.15 2.2.15.65 0 1.26-.02 1.84-.06l.05-1.97c-.75.1-1.47.15-2.15.15-.69 0-1.13-.02-1.31-.04v-1.01c2.39 0 4.18-.18 5.4-.53zm-1.9 8.09c-.55-.18-1.05-.28-1.51-.28-.98 0-1.46.26-1.46.79 0 .34.23.59.72.76.28.09.58.13.9.13.6 0 .99-.16 1.15-.48.11-.22.17-.53.2-.92zm3.89-9.6c.36 0 .68.13.96.4.27.28.4.6.4.97 0 .38-.13.71-.4 1-.28.27-.6.4-.96.4-.38 0-.72-.13-1.01-.4-.27-.29-.4-.62-.4-1 0-.37.13-.69.4-.97.29-.27.63-.4 1.01-.4zm0 2.04c.18 0 .32-.07.45-.2.12-.14.18-.3.18-.47 0-.17-.06-.33-.18-.46a.662.662 0 0 0-.45-.17.76.76 0 0 0-.48.17c-.13.13-.2.29-.2.46a.686.686 0 0 0 .68.67z" style="fill:#0854a3;fill-rule:nonzero" transform="matrix(1 -.5 0 1 -2651.409 454.582)"/><path d="m3013.18 1173.4 1.36.31c-.45 1.15-.68 2.61-.68 4.4 0 1.05.2 2.06.61 3.03.11.22.58-.26.72-.5.16-.26.36-.29.61-1.05.23.29 1.34 1.09 1.74 1.25-.29.89-2.31 2.3-2.69 2.3-.19 0-.41-.12-.67-.36-.4-.41-.73-.94-.96-1.59-.38-.99-.57-2.17-.57-3.55 0-1.6.18-3.01.53-4.24zm7.23.52c.71.96 1.26 1.96 1.66 2.99.44 1.05.79 2.37 1.06 3.93l-1.31.36c-.14-1.4-.42-2.68-.85-3.85-.43-1.12-1.57-1.93-2.21-2.74z" style="fill:#0854a3;fill-rule:nonzero" transform="matrix(1 -.5 0 1 -2678.242 467.998)"/><path d="m3013.18 1173.4 1.36.31c-.45 1.15-.68 2.61-.68 4.4 0 1.05.2 2.06.61 3.03.11.22.58-.26.72-.5.16-.26.36-.29.61-1.05.23.29 1.34 1.09 1.74 1.25-.29.89-2.31 2.3-2.69 2.3-.19 0-.41-.12-.67-.36-.4-.41-.73-.94-.96-1.59-.38-.99-.57-2.17-.57-3.55 0-1.6.18-3.01.53-4.24zm7.23.52c.71.96 1.26 1.96 1.66 2.99.44 1.05.79 2.37 1.06 3.93l-1.31.36c-.14-1.4-.42-2.68-.85-3.85-.43-1.12-1.57-1.93-2.21-2.74z" style="fill:#0854a3;fill-rule:nonzero" transform="matrix(1 -.5 0 1 -2651.409 454.582)"/><path d="M2962.34 1152.21v-28.81l85.87-43.4v43.4l-28.62 14.31v-42.93l-14.3 21.46.21 28.51-28.57 14.29z" style="fill:#b3b3b3" transform="translate(-2681.623 -1029.38)"/><circle cx="2927.2" cy="127.527" r="7.791" style="fill:#333;stroke:#666;stroke-width:1.26px" transform="matrix(1 -.5 0 1 -2567.119 1416.999)"/><circle cx="2927.2" cy="127.527" r="7.791" style="fill:#333;stroke:#666;stroke-width:1.26px" transform="matrix(1 -.5 0 1 -2618.875 1426.149)"/><path d="M273.222 98.09c-1.879-5.583-2.054-7.092.623-11.101 1.915-1.387 4.683-4.946 7.245-4.425 11.537-9.72 24.81-14.824 36.377-15.633 4.957-3.767 9.68-6.033 14-5.658 7.855-7.656 14.157-12.978 21.164-16.811 4.452-2.435 6.96-3.164 11.338-3.579 1.598-3.415 9.237-3.741 10.09-3.204 3.466 2.148 5.873 4.18 4.934 10.313.053 18.55-5.234 37.098-7.762 46.587-8.63 8.99-17.397 15.749-29.703 16.9-7.405 1.456-7.953-15.653-12.465-30.837-2.628-2.322-3.66-.368-4.634 4.625-.938 15.244.082 27.24-3.49 32.632-5.47 11.879-20.887 18.491-35.26 14.85-7.117-10.966-6.416-28.399-12.457-34.658zm41.898-9.601c-.015-4.33-2.962-6.37-6.576-4.548l-13.846 6.977c-3.614 1.822-6.537 6.822-6.522 11.162l2.11 14.893c.015 4.34 4.838 5.214 8.442 3.392l7.486-3.996c3.614-1.822 6.907-6.783 6.893-11.123zm52.392-25.908c-.014-4.34-2.961-6.38-6.575-4.557L347.09 65.01c-3.614 1.823-6.537 6.823-6.523 11.153l2.11 14.903c.015 4.34 4.838 5.213 8.442 3.391l7.487-4.005c3.614-1.823 6.907-6.784 6.892-11.114z" style="fill:#d9d9d9;stroke:#000;stroke-width:1px"/><path d="M275.178 99.125c-1.172-3.466-1.255-4.215-.831-6.117.256-1.16.448-3.461 1.453-4.985 1.915-1.386 4.683-4.946 7.245-4.424 11.537-9.72 24.81-14.824 36.377-15.634 4.958-3.766 9.68-6.032 14.001-5.657 12.789-12.273 20.539-18.31 32.032-20.309 1.598-3.405 9.86-2.733 10.583-2.046 4.183 3.936 4.817 5.114 3.172 9.46-.087.91-.288 3.61-.402 5.201-.852 11.483-1.842 35.007-4.687 39.396-8.62 8.99-18.473 16.743-30.78 17.885-6.72.082-7.223-15.766-12.032-30.35-2.628-2.32-3.951-.236-4.924 4.757-.939 15.243.082 27.24-3.49 32.632-7.154 10.654-22.474 16.426-34.571 14.447-7.107-10.966-7.105-27.996-13.146-34.256zm41.897-9.602c-.014-4.33-2.961-6.37-6.575-4.547l-13.846 6.977c-3.614 1.822-6.537 6.822-6.523 11.162l2.11 14.893c.015 4.34 4.838 5.213 8.442 3.391l7.487-3.995c3.614-1.823 6.907-6.784 6.892-11.124zm52.552-26.128c-.014-4.34-2.961-6.38-6.575-4.557l-13.847 6.986c-3.603 1.823-6.527 6.823-6.512 11.153l2.11 14.903c.015 4.34 4.828 5.213 8.442 3.391l7.487-3.995c3.613-1.833 6.907-6.794 6.892-11.124z" style="fill:#cf1717;stroke:#000;stroke-width:1px"/><path d="M2862.17 1087.62v171.73l57.24-28.62.42-171.94" style="fill:#2f164a;stroke:#000;stroke-width:2px" transform="translate(-2681.623 -1029.38)"/><path d="M2804.92 1116.25v114.48l57.25 28.62v-171.73" style="fill:#41213b;stroke:#000;stroke-width:2px" transform="translate(-2681.623 -1029.38)"/></g><g style="clip-rule:evenodd;fill-rule:evenodd;stroke-linecap:round;stroke-linejoin:round;stroke-miterlimit:1.5"><path d="m2757.95 1344.66-60.34-30.17 60.34-119.36z" style="fill:#d9d9d9;stroke:#000;stroke-width:2px" transform="translate(-2683.777 -1028.22)"/><path d="M2743.09 1284.51c-18.77 23.29-32.05 45.71-41.17 43.57-13.4-6.24-12.07-2.94-16.99-21.11-1.35-11.81 5.62-16.19 29.29-25.33" style="fill:none;stroke:#000;stroke-width:2px" transform="translate(-2683.777 -1028.22)"/><path d="M.4-60h3.9l1.2.55 3.9-8.6 3.85 8.6L14.5-60l3.15 3.05 1.15 1.05-.45.45.1.1c1.4 1.367 2.183 2.883 2.35 4.55v.6c0 1.1-.267 2.133-.8 3.1l-.25.45-1.4 1.7.15.15-.3.25-3.25.9v4.7l-3.25.7-3.1.9.65 1.6 3.3-1.25 3-.6c1.033 0 1.75.2 2.15.6.533.533.8 1.2.8 2 0 .733-.25 1.35-.75 1.85-.7.7-2.067 1.117-4.1 1.25l-1.25.05.35 1.5 1.5-.05-.05 2.75-1.5 1.25v12.25l-.85 4.6h-1.5V-3c0 .467-.15.85-.45 1.15-.367.367-.9.55-1.6.55-.767 0-1.317-.183-1.65-.55-.3-.3-.433-.683-.4-1.15v-6.55h-1.6l-2.35-3.5H.55L-3-9.55V-3c0 .467-.15.85-.45 1.15-.367.367-.9.55-1.6.55-.733 0-1.283-.183-1.65-.55-.3-.3-.433-.683-.4-1.15v-6.55h-1.55l-1.7-1.1-1.75-3.9v-3.9l-.15-2 .4-10.95 1.75-12.8.4.35.75-.7-1-1.1c-1.033-1.267-1.533-2.65-1.5-4.15l.05-1c.233-1.533 1.05-2.95 2.45-4.25l-.75-.75.5-3.95.65.3 3.85-8.6 3.85 8.6L.4-60m10.1 14.7v1.9h1.3v-3.25h-1.15v-9.45h-6.2v3.85l-.05 1.1-.45 2.45-1 2.05H2v3.3h1.35v-1.95h7.15m-6.05-1.35.5-.9.9-3.55v-.05l.05-.35v-3.25h3.4v8.1H4.45m14.3-9.2-1.1-1.1 1.1 1.1M5.5-37.95C4.8-38.65 3.717-39 2.25-39l-4 .75-3.1.9.65 1.6L-.9-37l3-.6c1.033 0 1.75.2 2.15.6.533.533.8 1.2.8 2 0 .733-.25 1.35-.75 1.85-.7.7-2.05 1.117-4.05 1.25l-1.3.05.35 1.5c2.633-.033 4.6-.55 5.9-1.55l.45-.35c.667-.667 1-1.617 1-2.85-.033-1.2-.417-2.15-1.15-2.85M-7.15-43.6l.75-1.55v-1.35h-1.5v1.45h.55l-.55 1.45h.75M-5-45.05h.55L-5-43.6h.75l.75-1.55v-1.35H-5v1.45" style="fill:#fdfdfd" transform="matrix(2.78054 -1.3678 0 2.78054 73.752 317.699)"/><path d="m85.708 144.985 14.18-37.562 14.181 23.61-3.475 3.24-10.705-18.647-10.844 29.247-3.337.112m40.318-8.433.695-1.176c4.727 2.032 7.321 5.76 7.785 11.185v1.668c0 3.523-.834 7.223-2.502 11.102-1.299 2.955-3.059 6.046-5.283 9.272l-1.947-.988 3.893-6.642.695-1.593c1.482-3.418 2.225-6.656 2.225-9.714v-1.669c-.465-4.406-2.642-7.55-6.534-9.437l-.279-.141 1.252-1.867m-10.705 52.396 2.085-1.165c4.08-2.006 7.09-2.514 9.037-1.525 2.038.943 3.058 3.083 3.058 6.42 0 3.428-.926 6.525-2.78 9.292l-1.112 1.52c-2.873 3.638-6.952 7.034-12.235 10.19l-4.17 2.19-.974-3.692 3.476-1.849c5.653-3.15 9.454-6.18 11.4-9.083 1.39-2.075 2.086-4.132 2.086-6.17 0-2.225-.743-3.714-2.225-4.467-1.112-.565-3.106-.14-5.978 1.272l-8.342 5.772-9.175 7.99-1.808-3.56 8.62-6.743 9.037-6.392m-8.62 85.988v18.352c0 2.316-.742 4.583-2.224 6.794-1.669 2.49-4.219 4.578-7.647 6.264-3.615 1.778-6.256 2.244-7.924 1.396-1.483-.753-2.225-2.29-2.225-4.606v-18.351l4.449-2.189v18.213c-.092 1.343.278 2.226 1.112 2.65.926.565 2.455.322 4.588-.727 1.946-.958 3.428-2.196 4.449-3.718.834-1.245 1.251-2.515 1.251-3.813v-18.213l4.171-2.052M65.41 295.248l4.17-2.051v18.351c0 2.316-.742 4.583-2.224 6.794-1.668 2.49-4.218 4.578-7.646 6.264-3.523 1.733-6.117 2.175-7.786 1.328-1.576-.707-2.316-2.245-2.224-4.606v-18.352l4.31-2.12v18.213c-.092 1.343.278 2.226 1.112 2.65 1.02.519 2.55.275 4.588-.727 1.946-.958 3.428-2.196 4.449-3.718.834-1.245 1.25-2.515 1.25-3.813v-18.213m-19.74-86.634-1.67-1.126c-3.428-2.392-5.096-6.112-5.004-11.162l.139-2.85c.648-5.51 3.197-11.396 7.646-17.663l2.086 1.06c-3.893 5.529-6.165 10.586-6.813 15.167l-.139 2.85c-.091 4.215 1.299 7.377 4.171 9.487l2.78 1.69-2.085 2.973-1.112-.426m2.503-44.469-1.53.058 14.042-37.494 14.18 23.61-3.475 3.24-10.705-18.647-10.705 29.179-1.807.054m31.142 30.143v-9.037l2.641-1.3 2.78-7.067 1.252-7.428.139-3.127v-10.705l17.24-8.48v26.276l3.197-1.573v9.037l-3.615 1.778v-5.422l-19.88 9.78v5.421l-3.754 1.847m20.298-41.544v-.14l-9.593 4.72v9.037l-.14 1.041v.14l-2.502 11.101-1.39 3.186-.14.208 13.765-6.77v-22.523m-10.566 51.91c2.038.944 3.105 3.06 3.197 6.352 0 3.429-.926 6.526-2.78 9.292l-1.252 1.59c-3.614 4.558-9.084 8.686-16.405 12.38l-.973-3.693 3.615-1.917c5.56-3.106 9.315-6.112 11.26-9.015 1.391-2.075 2.086-4.132 2.086-6.17 0-2.225-.742-3.714-2.224-4.467-1.112-.565-3.106-.14-5.978 1.272l-8.342 5.772-9.176 7.99-1.807-3.56 8.62-6.743 11.122-7.557c4.079-2.006 7.09-2.514 9.037-1.525m-29.196-5.38v-4.032l4.17-2.052v3.754l-2.085 5.336-2.085 1.025 1.53-4.784-1.53.753m-5.978 6.972-2.086 1.026 1.53-4.784-1.53.752v-4.032l4.171-2.051v3.754l-2.085 5.335"/><path d="M.4-60h3.9m8.4 33.6v9.45m0 0v2.8m4.95-42.8 1.1 1.1" style="fill:none;fill-rule:nonzero;stroke:#000;stroke-width:1px;stroke-miterlimit:4" transform="matrix(2.78054 -1.3678 0 2.78054 73.752 317.699)"/><path d="m67.508 160.89.56-.276 1.538-.479 1.259.354c.84.421 1.259 1.14 1.259 2.161l-1.26 3.817c-.838 1.156-1.77 1.984-2.797 2.489l-2.238.545-.7-.212-1.259-1.327v-.417l-.14-.766v-.278c.093-.971.56-2.035 1.4-3.19l.699-.9c.467-.6.98-1.086 1.539-1.453l.14-.069m1.259 1.745-.7.205c-.652.229-1.167.665-1.539 1.313-.372.46-.56.97-.56 1.526v.417l.42 1.045.14-.069.14.07.56.003.84-.274 1.538-1.313.42-1.874-.14-.766-.28-.28-.14-.07-.42-.071-.28.138m45.789-24.888.56-.275 1.538-.48 1.26.355c.839.42 1.258 1.14 1.258 2.16l-1.259 3.818c-.839 1.155-1.77 1.983-2.797 2.488l-2.239.545-.7-.212-1.258-1.327v-.417l-.14-.765v-.278c.092-.972.56-2.036 1.399-3.191l.7-.9c.467-.6.979-1.085 1.538-1.452l.14-.07m1.259 1.745-.7.205c-.651.229-1.166.666-1.538 1.313-.372.461-.56.97-.56 1.527v.417l.42 1.045.14-.07.14.071.56.003.839-.274 1.538-1.313.42-1.875-.14-.765-.28-.28-.14-.07-.42-.072-.279.138"/><path d="m2816.52 1165.84-13.74-4.18" style="fill:none;stroke:#ff004a;stroke-width:2px" transform="translate(-2683.778 -1028.221)"/><ellipse cx="2748.5" cy="1198.29" rx="14.591" ry="15.182" style="fill:#ffbd00;fill-opacity:.61;stroke:#ff004a;stroke-width:2.53px" transform="matrix(1 -.5 0 1 -2674.331 342.869)"/><circle cx="2755.14" cy="1202.78" r="4.163" style="fill:#fff981;stroke:#ffdf00;stroke-width:2.53px" transform="matrix(1 -.5 0 1 -2687.225 339.009)"/><ellipse cx="2748.5" cy="1198.29" rx="14.591" ry="15.182" style="fill:#ffbd00;fill-opacity:.61;stroke:#ff004a;stroke-width:2.53px" transform="matrix(1 -.5 0 1 -2631.504 321.449)"/><path d="m2772.54 1189.37 13.75-6.61" style="fill:none;stroke:#ff004a;stroke-width:2px" transform="translate(-2683.778 -1028.221)"/><circle cx="2755.14" cy="1202.78" r="4.163" style="fill:#fff981;stroke:#ffdf00;stroke-width:2.53px" transform="matrix(1 -.5 0 1 -2640.304 317.209)"/><path d="m2742.41 1197.62-12.84-5.28" style="fill:none;stroke:#ff004a;stroke-width:2px" transform="translate(-2683.778 -1028.221)"/></g></svg>