<svg height="182" width="220" xmlns="http://www.w3.org/2000/svg"><g style="display:inline"><path d="m139.403 58.835-.162 5.265-6.5 1.4-6.3 1.8 1.3 3.2 6.7-2.5c2.266-.8 4.266-1.2 6-1.2 2.066 0 3.5.4 4.3 1.2 1.066 1.067 1.6 2.4 1.6 4 0 1.467-.5 2.7-1.5 3.7-1.4 1.4-4.134 2.233-8.2 2.5l-2.5.1.7 3 3-.1-.1 5.5-3 2.5v13.5h-9.1v3.1h13.2c.933 0 1.7.267 2.3.8.733.733 1.1 1.833 1.1 3.3 0 1.4-.367 2.467-1.1 3.2-.6.6-1.367.9-2.3.9h-13.2v1.9h-15.2l-7.1 7V136c0 .933-.3 1.7-.9 2.3-.734.733-1.8 1.1-3.2 1.1-1.467 0-2.567-.367-3.3-1.1-.534-.6-.8-1.367-.8-2.3v-13.1h-3.1l-3.4-2.2-3.5-7.8v-7.8l.9-.8c1-.8 1.9-1.833 2.7-3.1l-2.5-2-1.4 1.9.8-21.9 1.584-11.593 18.613-9.691" fill="#fff" fill-rule="evenodd"/><path d="m84.84 101.1 1.4-1.9 2.5 2c-.8 1.267-1.7 2.3-2.7 3.1l-.9.8c-.933.6-2 .9-3.2.9-1.266 0-3.033-.733-5.3-2.2l-3.8-1.3c-1.2 0-2.066.367-2.6 1.1l-1.2 1.9-2.7-1.5 2.4-3.3c1.067-1.067 2.367-1.6 3.9-1.6 1.467 0 2.967.533 4.5 1.6 2.2 1.133 3.9 1.7 5.1 1.7.867 0 1.734-.433 2.6-1.3m7.2 21.8h3.1V136c0 .933.267 1.7.8 2.3.734.733 1.834 1.1 3.3 1.1 1.4 0 2.467-.367 3.2-1.1.6-.6.9-1.367.9-2.3v-13.1h3v13.2c0 1.667-.533 3.033-1.6 4.1-1.2 1.2-3.033 1.8-5.5 1.8-2.533 0-4.4-.6-5.6-1.8-1.066-1.067-1.6-2.433-1.6-4.1v-13.2m33.6-7V114h13.2c.934 0 1.7-.3 2.3-.9.734-.733 1.1-1.8 1.1-3.2 0-1.467-.366-2.567-1.1-3.3-.6-.533-1.366-.8-2.3-.8h-13.2v-3.1h13.3c1.667 0 3.034.533 4.1 1.6 1.2 1.2 1.8 3.067 1.8 5.6 0 2.467-.6 4.3-1.8 5.5l-.6.5c-1 .733-2.166 1.1-3.5 1.1h-13.3v-1.1m12.2-34.7-3 .1-.7-3 2.5-.1c4.067-.267 6.8-1.1 8.2-2.5 1-1 1.5-2.233 1.5-3.7 0-1.6-.533-2.933-1.6-4-.8-.8-2.233-1.2-4.3-1.2-1.733 0-3.733.4-6 1.2l-6.7 2.5-1.3-3.2 6.3-1.8 6.5-1.4 1.5-.1c2.934 0 5.1.7 6.5 2.1 1.467 1.4 2.2 3.3 2.2 5.7 0 2.467-.666 4.367-2 5.7l-.8.7c-2.133 1.6-5.066 2.6-8.8 3" fill-rule="evenodd"/><path d="M134.74 102.7V89.2" fill="none" stroke="#000" stroke-linecap="round" stroke-linejoin="round" stroke-width="2"/></g><path style="fill:#010101;fill-opacity:1;stroke:none;stroke-width:1px;stroke-linecap:butt;stroke-linejoin:miter;stroke-opacity:1" d="M137.375 62.878s-14.664.973-17.391 8.521c-2.728 7.548-4.176 8.495-8.24 14.065s-4.112 5.303-6.173 6.412c-2.06 1.11-4.537 1.81-9.291 3.403-4.755 1.592-6.464 5.235-12.51 6.008-4.743.606-4.34 1.373-7.392 1.896-.84.145-5.296.33-6.137.417l-3.9.4s4.34-3.975-2.343-9.601c-6.684-5.626-18.745-4.444-18.745-4.444s-11.174.526-14.604.876c-3.46.353-6.647 1.198-10.056-2.848-3.348-3.975-5.97-7.1-10.115-7.26-1.253-.048-4.654.335-5.076-.056-.442-1.828 1.825-3.14 6.887-3.185 5.062-.044 16.302-.195 17.848-.218 1.545-.023 7.869.181 12.763-4.687 4.895-4.868 11.71-6.475 12.398-6.544.69-.069 15.041-2.132 20.152-2.815 4.302-.574 13.826 1.866 17.589-5.375 6.167-11.866 44.336 5.035 44.336 5.035z"/><g style="display:inline"><path style="fill:#009a4b;fill-opacity:1;stroke:#000;stroke-width:2.089;stroke-linecap:butt;stroke-linejoin:miter;stroke-miterlimit:4;stroke-dasharray:none;stroke-opacity:1" d="M107.126 10.874c.092-.198-.019-2.484-.261-4.518a4.145 4.145 0 0 0-1.076-2.29c-.74-.805-1.993-2.72-4.967-2.675-2.943.046-4.543.596-4.944 1.2-1.026 1.547-.896 3.017-.892 4.28.003.93.208 2.196.16 3.389" transform="translate(18.706 1.102)"/><path style="display:inline;fill:#f7941d;fill-opacity:1;stroke:#000;stroke-width:2.4;stroke-linecap:butt;stroke-linejoin:miter;stroke-miterlimit:4;stroke-dasharray:none;stroke-opacity:1" d="M85.685 60.758c3.842.832 5.778 2.17 10.355 1.965 4.882-.218 7.894-1.856 11.69-1.99 3.901-.137 6.55 2.084 11.256 1.218 3.477-.64 6.558-1.136 9.432-2.696 2.395-1.3 2.856-1.842 6.166-5.367 3.014-3.209 4.239-7.28 4.536-10.56.264-2.919-.105-12.265-1.533-14.559-2.111-3.388-3.251-6.206-5.808-9.315-2.556-3.108-7.007-5.624-9.232-6.372-2.225-.749-4.686-1.662-9.39-1.55-2.552.06-17.704-.548-19.047-.548s-2.251-.172-4.316.261c-1.482.312-4.86.308-6.627.618-.865.152-3.607 1.078-5.823 1.551-2.31.494-4.333.259-5.31.981-2.86 2.118-6.76 8.256-7.96 11.034-2.023 4.684-3.81 10.038-3.381 14.92.427 4.88 2.995 10.01 5.243 11.987 3.289 2.891 4.036 4.831 6.673 5.876 6.083 2.412 7.593 1.358 13.076 2.546z" transform="translate(18.706 1.102)"/><path style="fill:none;stroke:#000;stroke-width:1px;stroke-linecap:butt;stroke-linejoin:miter;stroke-opacity:.550992" d="M89.313 11.974c-2.614.683-15.263 9.996-16.415 23.168-.949 9.759 3.03 18.234 5.794 25.482m19.704-49.109c-4.93 7.922-6.64 16.46-6.85 23.102-.36 11.334.596 15.017.892 19.714.253 4.02.847 5.65 1.581 8.264m14.694-50.526c2.333 2.288 3.538 9.6 3.497 18.204-.073 15.242-.541 19.185-.972 22.639-.43 3.463-.515 6.38-1.031 8.774" transform="translate(18.706 1.102)"/><path style="fill:none;stroke:#000;stroke-width:1px;stroke-linecap:butt;stroke-linejoin:miter;stroke-opacity:.550992" d="M110.067 10.489s13.99 7.24 14.818 22.767c.618 8.652-.98 16.77-6.216 28.52" transform="translate(18.706 1.102)"/></g><path style="fill:#000;fill-opacity:1;stroke:none;stroke-width:1px;stroke-linecap:butt;stroke-linejoin:miter;stroke-opacity:1" d="m128.626 30.932 10.117-12.391 6.666 16.593zm18.51 14.251 4.656-12.081 6.82 11.337zm-17.28-.871 11.142 15.501 6.037-5.76 4.32 2.545 1.516-1.415-6.568-6.672-4.163 4.954z"/></svg>