<svg xmlns="http://www.w3.org/2000/svg" xmlns:xlink="http://www.w3.org/1999/xlink" height="182" width="160"><defs><path d="M1.35 0h.2l.55.1.45.35q.45.45.45 1L2.55 2.6q-.45.4-1 .4l-.8-.2-.25-.2-.45-.7v-.15L0 1.45v-.1q.05-.5.5-.9l.25-.2Q1 .05 1.3 0h.05m.45.85L1.55.8Q1.2.75 1 1q-.2.15-.2.45v.15l.15.45H1l.05.05.2.1.3.05.55-.2.15-.6-.05-.3L2.1 1 2.05.95 1.9.85h-.1" fill-rule="evenodd" id="b"/><use height="3" transform="translate(.8)" width="3" xlink:href="#b" id="a"/></defs><g clip-rule="evenodd" fill-rule="evenodd" stroke-linecap="round" stroke-linejoin="round"><path d="M87.941 22l2.4 1.1 7.7-17.2 7.8 17.2 2.5-1.1 6.3 6.1 2.2 2.2-2.2-2.2 2.3 2.2h-.1l-.7.8.2.2c2.8 2.734 4.334 5.766 4.6 9.1l.1 1.2c0 2.2-.534 4.266-1.6 6.2l-.5.9-2.8 3.4.2.2-.6.6-6.5 1.8v9.4l-2.5.4-4 1-6.3 1.8 1.3 3.2 6.7-2.5c2.266-.8 4.266-1.2 6-1.2 2.066 0 3.5.4 4.3 1.2 1.066 1.066 1.6 2.4 1.6 4 0 1.466-.5 2.7-1.5 3.7-1.4 1.4-4.134 2.234-8.2 2.5l-2.5.1.7 3 3-.1-.1 5.5-3 2.5v11.5h-9.1v3.1h13.2c.934 0 1.7.266 2.3.8.734.734 1.1 1.834 1.1 3.3 0 1.4-.366 2.466-1.1 3.2-.6.6-1.366.9-2.3.9h-13.2v3h-11.6c1.6 0 2.9-.534 3.9-1.6 1.2-1.2 1.8-3.034 1.8-5.5 0-2.534-.6-4.4-1.8-5.6-1.066-1.066-2.434-1.6-4.1-1.6h-13.2v3.1h13.1c.934 0 1.7.266 2.3.8.734.734 1.1 1.834 1.1 3.3 0 1.4-.366 2.466-1.1 3.2-.6.6-1.366.9-2.3.9h-13.1v3h-9l-6.5-6.5v-3.4l.9-.8c1-.8 1.9-1.834 2.7-3.1l-2.5-2-1.4 1.9.8-21.9 3.5-25.6.8.7 1.5-1.4-2-2.2c-2-2.534-3-5.3-3-8.3l.1-2c.466-3.066 2.1-5.9 4.9-8.5l-1.5-1.5 1-7.9 1.3.6 7.7-17.2 7.7 17.2 2.5-1.1h7.8m4 18.4v-7.3h7v16.3h-9.9c1.6-2.266 2.566-5.266 2.9-9m-2.7-2.2l-.1 2.2c-.266 3.6-1.266 6.6-3 9h-1.9v6.5h2.7V52h14.5v3.9h2.7v-6.5h-2.4V30.5h-12.5v7.7m1.1 27.9l-2.7-1.6-3.8-.5-4 .5-4 1-6.2 1.8 1.3 3.2 6.6-2.5 6-1.2c2.066 0 3.5.4 4.3 1.2 1.066 1.066 1.6 2.4 1.6 4 0 1.466-.5 2.7-1.5 3.7-1.4 1.4-4.1 2.234-8.1 2.5l-2.6.1.7 3c5.266-.066 9.2-1.1 11.8-3.1l.8-.7c1.334-1.334 2-3.234 2-5.7 0-2.4-.734-4.3-2.2-5.7m-25.3-11.3l1.5-3.1V49h-3v2.9h1.1l-1.1 2.9h1.5m4.3 0h1.5l1.5-3.1V49h-3v2.9h1.1l-1.1 2.9" fill="#fff"/><path d="M108.341 22l-2.5 1.1-7.8-17.2-7.7 17.2-2.4-1.1 10.1-22 10.3 22m-28.2 0l-2.5 1.1-7.7-17.2-7.7 17.2-1.3-.6-1.1-.5 10.1-22 10.2 22m-20.2 8.4l1.5 1.5c-2.8 2.6-4.434 5.434-4.9 8.5l-.1 2c0 3 1 5.766 3 8.3l2 2.2-1.5 1.4-.8-.7-1.2-1.4c-2.4-2.934-3.6-6.2-3.6-9.8l.1-2c.466-3.734 2.3-7.066 5.5-10m-5.1 70.7l1.4-1.9 2.5 2c-.8 1.266-1.7 2.3-2.7 3.1l-.9.8c-.734.466-1.566.766-2.5.9h-.7c-1.266 0-3.034-.734-5.3-2.2l-3.8-1.3c-1.2 0-2.066.366-2.6 1.1l-1.2 1.9-2.7-1.5 2.4-3.3c1.066-1.066 2.366-1.6 3.9-1.6 1.466 0 2.966.534 4.5 1.6 2.2 1.134 3.9 1.7 5.1 1.7.866 0 1.734-.434 2.6-1.3m15.8 13.9v-3h13.1c.934 0 1.7-.3 2.3-.9.734-.734 1.1-1.8 1.1-3.2 0-1.466-.366-2.566-1.1-3.3-.6-.534-1.366-.8-2.3-.8h-13.1v-3.1h13.2c1.666 0 3.034.534 4.1 1.6 1.2 1.2 1.8 3.066 1.8 5.6 0 2.466-.6 4.3-1.8 5.5-1 1.066-2.3 1.6-3.9 1.6h-13.4m25 0v-3h13.2c.934 0 1.7-.3 2.3-.9.734-.734 1.1-1.8 1.1-3.2 0-1.466-.366-2.566-1.1-3.3-.6-.534-1.366-.8-2.3-.8h-13.2v-3.1h13.3c1.666 0 3.034.534 4.1 1.6 1.2 1.2 1.8 3.066 1.8 5.6 0 2.466-.6 4.3-1.8 5.5-1.066 1.066-2.434 1.6-4.1 1.6h-13.3m12.2-33.8l-3 .1-.7-3 2.5-.1c4.066-.266 6.8-1.1 8.2-2.5 1-1 1.5-2.234 1.5-3.7 0-1.6-.534-2.934-1.6-4-.8-.8-2.234-1.2-4.3-1.2-1.734 0-3.734.4-6 1.2l-6.7 2.5-1.3-3.2 6.3-1.8 4-1 2.5-.4 1.5-.1 3.7.5c1.134.334 2.066.866 2.8 1.6 1.466 1.4 2.2 3.3 2.2 5.7 0 2.466-.666 4.366-2 5.7l-.8.7c-2.134 1.6-5.066 2.6-8.8 3m8.5-28.9l-.2-.2 2.8-3.4.5-.9c1.066-1.934 1.6-4 1.6-6.2l-.1-1.2c-.266-3.334-1.8-6.366-4.6-9.1l-.2-.2.7-.8h.1l.6-.7c3.4 3.134 5.234 6.734 5.5 10.8l.1 1.2c0 2.534-.6 4.9-1.8 7.1-.934 1.666-2.2 3.266-3.8 4.8l-1.2-1.2m-27.1-14.1v-7.7h12.5v18.9h2.4v6.5h-2.7V52h-14.5v3.9h-2.7v-6.5h1.9c1.734-2.4 2.734-5.4 3-9l.1-2.2m2.7 2.2c-.334 3.734-1.3 6.734-2.9 9h9.9V33.1h-7v7.3m-1.6 25.7c1.466 1.4 2.2 3.3 2.2 5.7 0 2.466-.666 4.366-2 5.7l-.8.7c-2.6 2-6.534 3.034-11.8 3.1l-.7-3 2.6-.1c4-.266 6.7-1.1 8.1-2.5 1-1 1.5-2.234 1.5-3.7 0-1.6-.534-2.934-1.6-4-.8-.8-2.234-1.2-4.3-1.2l-6 1.2-6.6 2.5-1.3-3.2 6.2-1.8 4-1 4-.5 3.8.5 2.7 1.6m-21-11.3l1.1-2.9h-1.1V49h3v2.7l-1.5 3.1h-1.5m-4.3 0h-1.5l1.1-2.9h-1.1V49h3v2.7l-1.5 3.1"/><path d="M104.741 100.7V89.2m12.1-58.9l-2.2-2.2m-26.7-6.1h-7.8" fill="none" stroke="#000" stroke-width="2"/><path d="M74.846 27h.402l1.106.2.904.7c.604.6.905 1.266.905 2l-.905 2.3c-.602.534-1.272.8-2.01.8l-1.608-.4-.502-.4-.905-1.4v-.3l-.1-.6v-.2c.066-.666.402-1.266 1.005-1.8l.502-.4a2.38 2.38 0 011.106-.5h.1m.905 1.7l-.503-.1c-.468-.066-.838.066-1.105.4-.267.2-.402.5-.402.9v.3l.301.9h.101l.1.1.402.2.603.1 1.106-.4.301-1.2-.1-.6-.201-.3-.1-.1-.302-.2h-.201M108.646 27h.402l1.106.2.904.7c.603.6.905 1.266.905 2l-.905 2.3c-.603.534-1.272.8-2.01.8l-1.608-.4-.502-.4-.905-1.4v-.3l-.1-.6v-.2c.066-.666.402-1.266 1.005-1.8l.502-.4a2.38 2.38 0 011.106-.5h.1m.905 1.7l-.503-.1c-.468-.066-.838.066-1.105.4-.267.2-.402.5-.402.9v.3l.301.9h.101l.1.1.402.2.603.1 1.106-.4.301-1.2-.1-.6-.201-.3-.1-.1-.302-.2h-.201"/><path d="M66.366 56.327l50.778-1.222.666 2.555-.555 2.889 1 3.445-1.222 4.444-4.112-2.666-7 .333-7.444 2.667-7.667.555-5.889-3.555-7.666 1.111-6.889 2.333-7.445.556 1.875-2.409 1.792-5.814-.889-2.555-2.222-2.445-4.889-1.222-5.111 2.222-4.556 4.778-3.333 5.556-.222 2.889 1.555 2.444 1.778 1.667 7.445 24.777 4.777 1.778 3.334 7.445 5.555.111 3.667-1.556 3.111-2.111 1.333-3.222S66 67.787 64.926 69.622" fill="#c90000"/><path d="M66.588 56.563s24.889 0 50.111-1.445c0 0 2.222 1.889.222 5 0 0 2.223 5.667.445 7.667 0 0-2.778-3-7.445-2.222l-11.666 3.222-8.334.444s.334-2.444-4.888-3.555c0 0-1.778-1.111-13.778 3.222l-9.362.606s4.917-2.495 4.806-6.828c0 0 .667-5.222-4.666-6.778 0 0-4.112-2-9.667 2.778 0 0-6 3.889-6.778 10.666 0 0-1.111 4.334 3.445 5.334 0 0-.556-1.778.222-4 0 0 1-4.778 7.666-5.889 0 0 3.112-.32 4.889.347 0 0-.777 14.444 6.778 29.555" fill="none" stroke="#000" stroke-width="2.09" stroke-linecap="square" stroke-miterlimit="1.5"/><path d="M50.021 71.617c.043-.067.067-.129-.002-.136v-1.016h-.875c-.143-.012-.785.086-.901.902-.021.146-.033.457-.032.918.001.416.001.966.056 1.634.127 1.56.482 3.758.969 6.367 1.038 5.569 2.884 12.994 5.878 19.963l.341.808 1.614-.681-.341-.807c-4.045-9.769-5.698-20.425-6.34-25.417a48.495 48.495 0 00-.143-1.034c-.104-.7-.196-1.207-.224-1.501zm-.002-.136h-.014c-.031 0 .008.071.014.128v.01l.002-.002-.002-.008zM64.255 95.408l-.096-.148c-.023-.034-.034-.077-.045-.069-.175.113-.042.179.141.217.088.136.211.323.361.534.161.226.341.485.548.724.597.69 1.278 1.295 1.278 1.295a.772.772 0 001.181-.992s-.478-.775-1.055-1.483c-.2-.244-.424-.467-.619-.664-.263-.267-.487-.469-.593-.569-.303-.287-.467-.039-.555.305-.011-.695-.351-.669-.598-.461a.77.77 0 00-.094 1.086l.59.275s-.25-.009-.444-.05zM60.439 96.294l-.06-.162c-.018-.048-.02-.103-.036-.097-.23.085-.106.181.096.259.072.193.177.476.311.802.133.323.28.692.458 1.048a25.231 25.231 0 001.131 1.992.772.772 0 001.387-.675s-.379-1.082-.869-2.119c-.17-.36-.369-.704-.542-1.008-.231-.409-.435-.73-.529-.886-.229-.379-.432-.049-.569.332.16-.859-.208-.939-.522-.786a.77.77 0 00-.356 1.03l.694.434s-.353-.07-.594-.164zM57.107 97.631l-.063-.175c-.014-.036-.015-.077-.027-.073-.225.082-.107.173.09.248.051.14.12.328.208.54.099.239.209.512.348.771.404.75.907 1.433.907 1.433a.772.772 0 001.369-.71s-.268-.805-.648-1.567c-.132-.263-.292-.51-.43-.728-.187-.296-.352-.523-.428-.635-.234-.34-.416-.086-.54.257.096-.752-.253-.809-.549-.656a.77.77 0 00-.329 1.039l.684.417s-.354-.069-.592-.161z"/><path d="M66.588 69.465s-.555 8.471 11.333 32.667" fill="none" stroke="#000" stroke-width="2.09" stroke-linecap="square" stroke-miterlimit="1.5"/><path d="M74.403 104.067l-.101-.137c-.026-.036-.041-.081-.053-.072-.162.119-.025.179.154.209.104.143.253.345.434.573.188.235.398.505.633.753.68.717 1.44 1.346 1.44 1.346a.772.772 0 001.134-1.046s-.566-.808-1.227-1.543c-.228-.255-.481-.486-.7-.691-.296-.277-.547-.487-.665-.59-.32-.28-.481-.021-.561.33-.026-.699-.366-.658-.604-.439a.772.772 0 00-.043 1.09l.566.248s-.225 0-.407-.031z"/><g><path d="M60.588 101.105l4.111 8.667" fill="none" stroke="#000" stroke-width="2.09" stroke-linecap="square" stroke-miterlimit="1.5"/></g><g><path d="M67.14 106.076l-.069-.158c-.021-.047-.026-.102-.041-.095-.218.095-.09.185.11.253.082.19.202.467.354.785.15.316.318.677.515 1.022.569.998 1.238 1.93 1.238 1.93a.772.772 0 001.349-.749s-.438-1.06-.984-2.071c-.19-.35-.407-.683-.596-.978-.254-.396-.475-.706-.577-.857-.249-.365-.442-.046-.568.333.122-.838-.244-.895-.546-.727a.772.772 0 00-.3 1.049l.674.396s-.328-.052-.559-.133z"/></g><g><path d="M71.137 105.711l-.094-.148c-.024-.037-.035-.082-.048-.074-.177.114-.043.182.142.222.094.146.225.351.387.583.17.243.359.521.576.779a18.06 18.06 0 001.335 1.408.771.771 0 101.195-.974s-.505-.83-1.109-1.592c-.209-.264-.443-.506-.647-.721-.274-.29-.508-.51-.618-.619-.302-.299-.468-.037-.559.316.002-.72-.343-.701-.596-.495a.771.771 0 00-.111 1.085l.598.284s-.254-.011-.451-.054z"/></g></g></svg>