<svg height="182" width="160" xmlns="http://www.w3.org/2000/svg"><g clip-rule="evenodd" fill-rule="evenodd" stroke-linecap="round" stroke-linejoin="round"><path d="M100.841 29.9v-.1h-12.5v7.8l-.1 2.2-.9 4.9-2.1 4h-1.9v6.6h2.7v-3.9h14.4v3.9h2.8v-6.6h-2.4V29.9m-20.7-7.9h7.8l2.4 1.1 7.7-17.2 7.8 17.2 2.5-1.1 6.3 6.1 2.2 2.2-2.2-2.2 2.3 2.2h-.1l-.7.8.2.2c2.8 2.734 4.334 5.766 4.6 9.1l.1 1.2c0 2.2-.534 4.266-1.6 6.2l-.5.9-2.8 3.4.2.2-.6.6-6.5 1.8v9.4l-6.5 1.4-6.3 1.8 1.3 3.2 6.7-2.5 6-1.2c2.066 0 3.5.4 4.3 1.2 1.066 1.066 1.6 2.4 1.6 4 0 1.466-.5 2.7-1.5 3.7-1.4 1.4-4.134 2.234-8.2 2.5l-2.5.1.7 3 3-.1-.1 5.5-3 2.5v17.5h-9.1v3.1h13.2l2.3.8c.734.734 1.1 1.834 1.1 3.3 0 1.4-.366 2.466-1.1 3.2-.6.6-1.366.9-2.3.9h-13.2v1.9h-19.5l-3.1 3V136c0 .934-.3 1.7-.9 2.3-.734.734-1.8 1.1-3.2 1.1-1.466 0-2.566-.366-3.3-1.1-.534-.6-.8-1.366-.8-2.3v-13.1h-3.1l-3.4-2.2-3.5-7.8v-4.8h.3v-3l.9-.8.4-.3 2.3-2.8-2.5-2-1.4 1.9.8-21.9 3.5-25.6.8.7 1.5-1.4-2-2.2c-1.934-2.466-2.934-5.134-3-8v-.5l.1-1.8c.466-3.066 2.1-5.9 4.9-8.5l-1.5-1.5 1-7.9 1.3.6 7.7-17.2 7.7 17.2 2.5-1.1m10.9 17.7v-7.2h7v16.3h-9.9l.1-.1 1-1.8 1.8-7.1v-.1m-.7 26.4c-1.4-1.4-3.566-2.1-6.5-2.1l-8 1.5-6.2 1.8 1.3 3.2 6.6-2.5 6-1.2c2.066 0 3.5.4 4.3 1.2 1.066 1.066 1.6 2.4 1.6 4 0 1.466-.5 2.7-1.5 3.7-1.4 1.4-4.1 2.234-8.1 2.5l-2.6.1.7 3c5.266-.066 9.2-1.1 11.8-3.1l.8-.7c1.334-1.334 2-3.234 2-5.7 0-2.4-.734-4.3-2.2-5.7m-25.3-11.3 1.5-3.1V49h-3v2.9h1.1l-1.1 2.9h1.5m7.3-5.8h-3v2.9h1.1l-1.1 2.9h1.5l1.5-3.1V49" fill="#fff"/><path d="M100.841 29.9v18.9h2.4v6.5h-2.8v-3.9h-14.4v3.9h-2.7v-6.5h1.9l2.1-4.1.9-4.9.1-2.2v-7.7h12.5m-20.7-7.9-2.5 1.1-7.7-17.2-7.7 17.2-1.3-.6-1.1-.5 10.1-22 10.2 22m-20.2 8.4 1.5 1.5c-2.8 2.6-4.434 5.434-4.9 8.5l-.1 1.8v.5c.066 2.866 1.066 5.534 3 8l2 2.2-1.5 1.4-.8-.7-1.2-1.4-1.5-2.1c-1.466-2.334-2.166-4.9-2.1-7.7l.1-2c.266-2 .934-3.9 2-5.7l3.5-4.3m-5.1 70.7 1.4-1.9 2.5 2-2.3 2.8-.4.3-.9.8c-.934.6-2 .9-3.2.9-1.266 0-3.034-.734-5.3-2.2-1.6-.866-2.866-1.3-3.8-1.3-1.2 0-2.066.366-2.6 1.1l-.3.4-.9 1.5-2.7-1.5a8.99 8.99 0 0 1 2.4-3.3l1.2-.9 2.7-.7c1.466 0 2.966.534 4.5 1.6 2.2 1.134 3.9 1.7 5.1 1.7.8 0 1.666-.434 2.6-1.3m6.9 21.8h3.1V136c0 .934.266 1.7.8 2.3.734.734 1.834 1.1 3.3 1.1 1.4 0 2.466-.366 3.2-1.1.6-.6.9-1.366.9-2.3v-13.1h3v13.2c0 1.666-.534 3.034-1.6 4.1-1.2 1.2-3.034 1.8-5.5 1.8-2.534 0-4.4-.6-5.6-1.8-1.066-1.066-1.6-2.434-1.6-4.1v-13.2m33.9-3V118h13.2c.934 0 1.7-.3 2.3-.9.734-.734 1.1-1.8 1.1-3.2 0-1.466-.366-2.566-1.1-3.3l-2.3-.8h-13.2v-3.1h13.3c1.666 0 3.034.534 4.1 1.6 1.2 1.2 1.8 3.066 1.8 5.6 0 2.466-.6 4.3-1.8 5.5l-.6.5c-1 .734-2.166 1.1-3.5 1.1h-13.3v-1.1m12.2-38.7-3 .1-.7-3 2.5-.1c4.066-.266 6.8-1.1 8.2-2.5 1-1 1.5-2.234 1.5-3.7 0-1.6-.534-2.934-1.6-4-.8-.8-2.234-1.2-4.3-1.2l-6 1.2-6.7 2.5-1.3-3.2 6.3-1.8 6.5-1.4 1.5-.1c2.934 0 5.1.7 6.5 2.1 1.466 1.4 2.2 3.3 2.2 5.7 0 2.466-.666 4.366-2 5.7l-.8.7c-2.134 1.6-5.066 2.6-8.8 3m8.5-28.9-.2-.2 2.8-3.4.5-.9c1.066-1.934 1.6-4 1.6-6.2l-.1-1.2c-.266-3.334-1.8-6.366-4.6-9.1l-.2-.2.7-.8h.1l.6-.7c3.4 3.134 5.234 6.734 5.5 10.8l.1 1.2c0 2.534-.6 4.9-1.8 7.1-.934 1.666-2.2 3.266-3.8 4.8l-1.2-1.2m-8-30.3-2.5 1.1-7.8-17.2-7.7 17.2-2.4-1.1 10.1-22 10.3 22m-17.3 17.7v.1l-1.8 7.1-1 1.8-.1.1h9.9V32.5h-7v7.2m-.7 26.4c1.466 1.4 2.2 3.3 2.2 5.7 0 2.466-.666 4.366-2 5.7l-.8.7c-2.6 2-6.534 3.034-11.8 3.1l-.7-3 2.6-.1c4-.266 6.7-1.1 8.1-2.5 1-1 1.5-2.234 1.5-3.7 0-1.6-.534-2.934-1.6-4-.8-.8-2.234-1.2-4.3-1.2l-6 1.2-7.476 2 1.576-3.076 4.2-1.424 8-1.5c2.934 0 5.1.7 6.5 2.1m-18-17.1v2.7l-1.5 3.1h-1.5l1.1-2.9h-1.1V49h3m-7.3 5.8h-1.5l1.1-2.9h-1.1V49h3v2.7l-1.5 3.1"/><path d="M87.941 22h-7.8m24.6 79.3V89.2m12.1-58.9-2.2-2.2" fill="none" stroke="#000" stroke-width="2"/><path d="M21.057 78.692a.76.76 0 0 0-.103-.044c-.165-.058-.504-.186-.933-.324-.318-.102-.679-.218-1.048-.309a8.783 8.783 0 0 0-.643-.127c-.832-.137-1.522-.203-1.522-.203-.827-.16-1.112 1.053-.301 1.278 0 0 .648.249 1.453.497.203.063.416.125.632.173.371.084.746.141 1.076.191.713.109 1.239.157 1.239.157.203.065.557-.154.64-.506a.657.657 0 0 0-.489-.79z"/><path d="m67.907 56.074 47.75-1.375 3 1.625-.375 2.25-1.375 1.75 1.25 2.25.125 4.375-1.5.75-5.625-2-5.875 1.25-7.125 2-8-.25-4-3-6.5 1-4.625 1.875-4.625.625-3.875 1.75-5.625 1-9.875 1.75-3.25 1.875-4.375 3.875-3.375 3.5-3.75 3.25-3.5 2-4.25 1.375-3-.25-2.875-.75-1.375-2.5-1.875-3.375-.75-4 2-3.25 3.75-.75-.5-3.5-.25-3.5 3.5-1.5 4-2.875 4.25-3 4.5-2.125 4.75-1.125 4.75 1 3.125-3.375 4.375-.75 4.125.125 3.625 1z" fill="#c90000"/><path d="M21.488 82.054a.708.708 0 0 0-.098-.031c-.157-.039-.48-.127-.887-.213a13.504 13.504 0 0 0-.993-.186 7.43 7.43 0 0 0-.603-.051c-.778-.04-1.418-.025-1.418-.025a.656.656 0 1 0-.163 1.303s.617.172 1.381.324c.193.039.394.076.597.099.349.04.699.053 1.008.065.632.024 1.095.017 1.095.017.278.04.607-.216.652-.575a.657.657 0 0 0-.57-.733zm1.234 2.997a.92.92 0 0 0-.092-.027c-.148-.034-.451-.111-.834-.185-.283-.055-.604-.118-.931-.154a6.063 6.063 0 0 0-.565-.033c-.729-.016-1.327.019-1.327.019a.657.657 0 1 0-.131 1.307s.579.152 1.297.281c.181.032.37.063.561.08.327.029.654.031.943.033.587.004 1.014-.016 1.014-.016.296.033.618-.231.654-.591a.657.657 0 0 0-.588-.719zm2.296-14.619a.811.811 0 0 0-.088-.033c-.141-.043-.43-.141-.798-.24-.272-.074-.58-.158-.896-.216a6.279 6.279 0 0 0-.548-.071c-.709-.064-1.294-.07-1.294-.07a.657.657 0 0 0-.223 1.294s.553.191 1.243.368c.173.044.355.087.54.117.316.051.635.075.916.096.599.046 1.037.054 1.037.054.246.052.586-.188.647-.545a.657.657 0 0 0-.535-.759z"/><path d="M49.657 57.949s-7.875-2.125-12.5 1.5c0 0-2.125 1.375-7.875 5.625 0 0-4.125 3.75-6.875 2.125m49 1.25s-4.375 3.875-11.625 3.25m-42.875 3.25s5.828 1.37 11.25-2.5c3.921-2.798 8.625-10.125 14.5-10.625 0 0 6.125-.125 7.25-1.625" fill="none" stroke="#000" stroke-width="2.1" stroke-miterlimit="1.5"/><path d="M66.782 56.074s37.625 0 48.875-1.75c0 0 2.5.5 2.625 2.25s.375 1.5-1.5 3.75c0 0 2.25 2.875 1.25 6.5l-2.25.75s-.447-1.704-3.083-2.264c-1.545-.328-6.292.889-6.292.889l-8.625 3.25-6.75.125s-1.367-2.598-2.228-3.23c-.91-.667-4.98-.451-4.98-.451l-8.292 1.931-4.125 1.25s2.125-4 0-8c0 0-.375-2-4.625-5s-12.625-1.875-12.625-1.875-2.75.25-4.5 2.875l-.25 3.375s1.875-1.625 3.75-1.125 11.25 2.625 10.625 8c0 0 0 4-6.375 4.875 0 0-6.375-.5-12.75 5.625 0 0-4.125 6.75-11.5 10.125 0 0-4.5 3-10.5.75" fill="none" stroke="#000" stroke-width="2.1" stroke-miterlimit="1.5"/></g><g id="gikopoipoi_eyes_closed" style="display:none" fill="none" stroke="#000" stroke-linecap="round" stroke-linejoin="round"><path d="M107.46 30.1h6.3" stroke-width="3"/><path d="M-.05 1.55H3.1" stroke-width="1.5" style="display:inline" transform="matrix(2 0 0 2 73.719 27)"/></g><path d="M1.357 0h.2l.554.1.452.35q.452.45.452 1L2.563 2.6Q2.11 3 1.558 3l-.804-.2-.252-.2-.452-.7v-.15L0 1.45v-.1q.05-.5.502-.9l.252-.2q.251-.2.552-.25h.05m.453.85L1.558.8q-.352-.05-.553.2-.201.15-.201.45v.15l.15.45h.051l.05.05.201.1.302.05.552-.2.151-.6-.05-.3-.1-.15-.05-.05-.151-.1h-.101M18.257 0h.2l.553.1.453.35q.452.45.452 1l-.452 1.15q-.453.4-1.005.4l-.804-.2-.252-.2-.452-.7v-.15l-.05-.3v-.1q.05-.5.502-.9l.252-.2q.251-.2.552-.25h.05m.453.85L18.458.8q-.352-.05-.553.2-.201.15-.201.45v.15l.15.45h.051l.05.05.201.1.302.05.553-.2.15-.6-.05-.3-.1-.15-.05-.05-.151-.1h-.101" style="stroke-width:1.0025" transform="matrix(2.0024 0 0 2 73.743 27)" id="gikopoipoi_eyes_open" fill-rule="evenodd"/></svg>