<svg width="160" height="182" xmlns="http://www.w3.org/2000/svg" xml:space="preserve" style="fill-rule:evenodd;clip-rule:evenodd;stroke-linejoin:round;stroke-miterlimit:1.5"><path d="m51 80.596-14 7.656 12 5.294.612 25.775-12.612 7 12.612 5.166C56.821 142.204 73.925 142.162 88 137c12.148 8.46 33.488-2.197 33.5-10.679h7.5v-10.172h-5.464c-.197-6.849-.119-1.817-.536-7.655h7c.364-3.908-.114-5.255 0-9.912l-8.5.418c1.311-.86.634 3.195 0 0-2.575-11.928-16.828-20.966-23.5-19-1.27-2.812-5.235-6.399-8.5-8.94-2.171-1.689-4.475-3.359-6.5-5.06-6-4.118-13-3.659-19 0-5.866 2.851-8.773 4.373-13 14.596Z" style="fill:#fff" transform="matrix(-.99957 0 0 1.00056 167.426 -17.555)"/><path d="M100 80.364c29.709-4.896 36.668 69.713-11 56.636" style="fill:none;stroke:#000;stroke-width:2.5px" transform="matrix(-.99957 0 0 1.00056 167.426 -17.555)"/><path d="M49.612 84.038 36.343 91l12.778 4.996" style="fill:none;stroke:#000;stroke-width:2.5px" transform="matrix(-.99957 0 0 1.00056 167.403 -20.553)"/><path d="M49.612 84.038 36.343 91l12.778 4.996" style="fill:none;stroke:#000;stroke-width:2.5px" transform="matrix(-.99957 0 0 1.00056 167.038 17.928)"/><path d="M49 102v17-17Z" style="fill:none;stroke:#000;stroke-width:2.5px" transform="matrix(-.99957 0 0 1.00056 167.426 -20.056)"/><path d="M53.208 76.515C53.966 74.158 59.787 64.125 69 64m14 2c9.219 5.19 12.763 8.967 14 13m23.941 19.582H130v11.412" style="fill:none;stroke:#000;stroke-width:2.5px" transform="matrix(-.99957 0 0 1.00056 167.426 -17.555)"/><path d="M120.063 97.148H126v12.429" style="fill:none;stroke:#000;stroke-width:2.5px" transform="matrix(-.99957 0 0 1.00056 164.427 1.456)"/><path d="M123.234 108.494H130m-29.772-19.088c4.883 10.067 6.261 27.252-5.661 42.112" style="fill:none;stroke:#000;stroke-width:2.5px" transform="matrix(-.99957 0 0 1.00056 167.426 -17.555)"/><path d="M118.358 107.292H126" style="fill:none;stroke:#000;stroke-width:2.5px" transform="matrix(-.99957 0 0 1.00056 164.427 1.456)"/></svg>