<svg width="160" height="182" xmlns="http://www.w3.org/2000/svg" xml:space="preserve" style="fill-rule:evenodd;clip-rule:evenodd;stroke-linejoin:round;stroke-miterlimit:1.5"><path d="m28.187 81.144-14 7.655 12 5.294.612 25.776-12.612 7 12.612 5.165c15.626 14.812 31.867 9.3 38.196.369 11.063 6.907 52.754 6.942 53.967-1.771l9.038-.236v-10.911l-4.808-.278c-2.32-.33-2.126-1.556-2.279-2.817-.22-1.819-.163-2.591-.163-2.591h10.5c.364-3.908-.114-5.919 0-10.577l-8.766.778c1.311-.86-3.498.75-4.133-2.445 1.357-10.506-30.747-21.919-32.765-20.027-1.471-4.825-3.588-6.006-9.31-1.551-.686.534-4.474-.705-6.231.395-.434-2.187-4.656-6.223-7.921-8.764-2.171-1.69-4.475-3.359-6.5-5.06-6-4.119-8.437-3.659-14.437 0-5.866 2.851-8.774 4.373-13 14.596Z" style="fill:#fff" transform="matrix(-1 0 0 1 152.471 .581)"/><path d="M72.593 80.282c19.86-.303 36.692 7.438 44.472 16.828m.777 2.94c4.05 11.526 5.073 24.184.033 32.681" style="fill:none;stroke:#000;stroke-width:3px" transform="matrix(-1 0 0 1 152.471 .581)"/><path d="M26.799 84.585 13.53 91.548l12.777 4.996" style="fill:none;stroke:#000;stroke-width:3px" transform="matrix(-1 0 0 1 152.448 -2.415)"/><path d="M26.799 84.585 13.53 91.548l12.777 4.996" style="fill:none;stroke:#000;stroke-width:3px" transform="matrix(-1 0 0 1 152.083 36.044)"/><path d="M76.276 79.977c1.488-1.32 2.707-2.137 3.724-2.573 2.996-1.286 4.418 1.7 5.586 3.842" style="fill:none;stroke:#000;stroke-width:3px" transform="matrix(-1 0 0 1 152.471 .581)"/><path d="M26.187 102.548v17-17Z" style="fill:none;stroke:#000;stroke-width:3px" transform="matrix(-1 0 0 1 152.471 -1.919)"/><path d="M30.395 77.548c-.883.328 5.222-12.858 15.792-13" style="fill:none;stroke:#000;stroke-width:3px" transform="matrix(-1 0 0 1 152.471 .581)"/><path d="M83 66c8.449 4.805 13.156 8.451 16.751 13.663" style="fill:none;stroke:#000;stroke-width:3px" transform="matrix(-1 0 0 1 183.862 -1.79)"/><path d="m119.715 104.317 8.285.023.25 12.442" style="fill:none;stroke:#000;stroke-width:3px" transform="matrix(-1 0 0 1 149.471 -.514)"/><path d="M117.438 104.596h6.812v12.686" style="fill:none;stroke:#000;stroke-width:3px" transform="matrix(-1 0 0 1 148.721 15.566)"/><path d="m117.75 115.108 10.5-.427" style="fill:none;stroke:#000;stroke-width:3px" transform="matrix(-1 0 0 1 149.471 -.514)"/><path d="m117 115.647 7.25-.236" style="fill:none;stroke:#000;stroke-width:3px" transform="matrix(-1 0 0 1 148.721 15.566)"/></svg>