<svg width="160" height="182" xmlns="http://www.w3.org/2000/svg" xml:space="preserve" style="fill-rule:evenodd;clip-rule:evenodd;stroke-linejoin:round;stroke-miterlimit:1.5"><path d="m16.532 87.891-14 7.655 12 5.294.612 26.051-12.612 7 12.612 5.166c14.104 7.269 30.085 4.298 41.856.288-.216-2.557 7.716 3.744 9.125 4.773 0 0 5.374-1.636 4.983-4.593 0 0 31.04-3.213 34.892-4.875l13.375-.731v-11l-6.25-1L105 121c-4.085-2.075-3.438-3.677 0-5l11.375-.081v-11.5l-5.75-2.5L103 102c-3.833-8.246-14.16-14.035-23.375-16.081-3.028-.672-8.613 1.918-8.52-.588.046-1.268-2.621-6.286-5.98-4.791-1.992.887-3.211 5.657-4.549 5.27-6.226-1.804-5.151-9.862-11.137-9.368-6-4.118-14.212-4.664-20.212-1.005-6.162 3.105-10.421 3.905-12.695 12.454Z" style="fill:#fff" transform="matrix(-1 0 0 1 140.457 -2.549)"/><path d="M52.35 77.6c3.601 3.975 4.417 6.659 8.775 7.687m10 .252c.983-.075 2.038-.17 3.171-.284 7.402-.749 22.491 6.867 26.704 13.774" style="fill:none;stroke:#000;stroke-width:2.5px" transform="matrix(-1 0 0 1 140.457 -2.549)"/><path d="m46.144 86.584-13.269 6.962 12.777 4.997" style="fill:none;stroke:#000;stroke-width:2.5px" transform="matrix(-1 0 0 1 170.457 -1.175)"/><path d="m46.144 86.584-13.269 6.962 12.777 4.997" style="fill:none;stroke:#000;stroke-width:2.5px" transform="matrix(-1 0 0 1 170.457 36.994)"/><path d="M45.532 104.546v17-17Zm4-25c.023 1.554-.233 2.813-1.5 3" style="fill:none;stroke:#000;stroke-width:2.5px" transform="matrix(-1 0 0 1 170.457 -1.175)"/><path d="M49.227 84.092c.023 1.554-.232 2.813-1.5 3" style="fill:none;stroke:#000;stroke-width:2.5px" transform="matrix(-1 0 0 1 161.708 -11.675)"/><path d="M61.227 73.092c5-3.165 11.898-2.013 16.898 1.152" style="fill:none;stroke:#000;stroke-width:2.5px" transform="matrix(-1 0 0 1 170.457 -1.175)"/><path d="M88.5 102c-4.56 4.628-5.132 9.581 0 15" style="fill:none;stroke:#000;stroke-width:2.5px" transform="matrix(-1 0 0 1 148.47 -2.63)"/><path d="M88.5 102c-4.56 4.628-5.132 9.581 0 15" style="fill:none;stroke:#000;stroke-width:2.5px" transform="matrix(-1 0 0 1 148.47 17.37)"/><path d="m103 102 6.625-.081" style="fill:none;stroke:#000;stroke-width:2.5px" transform="matrix(-1 0 0 1 140.457 -2.549)"/><path d="M64.532 110.046c1.28-2.089 2.172-2.141 4-1.592 1.118.336 1.573 2.358.694 3.592-.383.539-.918.955-1.694 1.258.654.003 1.319.346 2 .671 1.671.799.802 5.083-2 4.724-1.243-.159-2.514-.702-3-3.153" style="fill:none;stroke:#000;stroke-width:2.5px" transform="matrix(-1 0 0 1 170.457 -1.175)"/><path d="m106 121.5 6.625-.081m-2.5-17h6v12" style="fill:none;stroke:#000;stroke-width:2.5px" transform="matrix(-1 0 0 1 140.457 -2.549)"/><path d="M110.125 104.419h6v12" style="fill:none;stroke:#000;stroke-width:2.5px" transform="matrix(-1 0 0 1 137.457 16.451)"/><path d="M111.125 109.919h4.5" style="fill:none;stroke:#000;stroke-width:2.5px" transform="matrix(-1 0 0 1 140.457 -2.549)"/><path d="M111.125 109.919h4.5" style="fill:none;stroke:#000;stroke-width:2.5px" transform="matrix(-1 0 0 1 137.457 16.451)"/><path d="M110.125 114.919h6" style="fill:none;stroke:#000;stroke-width:2.5px" transform="matrix(-1 0 0 1 140.457 -2.549)"/><path d="M110.125 114.919h6" style="fill:none;stroke:#000;stroke-width:2.5px" transform="matrix(-1 0 0 1 137.457 16.451)"/><path d="M91.5 105v9c2.543 3 5.364 3.132 8.5 0v-9" style="fill:none;stroke:#000;stroke-width:2.5px" transform="scale(1 -1) rotate(34.829 394.427 -19.83)"/><path d="M91.5 105v9c2.543 3 5.364 3.132 8.5 0v-9" style="fill:none;stroke:#000;stroke-width:2.5px" transform="rotate(53.803 60.158 102.746)"/><circle cx="68" cy="89.5" r="1.5" transform="matrix(-1.33333 0 0 1.33333 194.999 -28.963)"/><circle cx="68" cy="89.5" r="1.5" transform="matrix(-1.33333 0 0 1.33333 194.999 9.928)"/></svg>