<svg width="160" height="182" xmlns="http://www.w3.org/2000/svg" xml:space="preserve" style="fill-rule:evenodd;clip-rule:evenodd;stroke-linejoin:round;stroke-miterlimit:1.5"><path d="m51 83-14 7.655 12 5.294.612 26.051L37 129l12.612 5.166C63.717 141.435 76.229 141.01 88 137c8.122 4.875 13.384 2.125 18-2.35l23-.65v-11l-6 .5c1.999-2.101 2.946-4.622 3-7.5v-11.5h-6c1.311-.86 2.134-2.305 1.5-5.5L108 84l-11-5-14-13c-6-4.118-13-3.659-19 0-6.163 3.106-10.726 8.451-13 17Z" style="fill:#fff" transform="matrix(-1 0 0 1 165.343 0)"/><path d="M49.612 84.038 36.343 91l12.778 4.996" style="fill:none;stroke:#000;stroke-width:3px" transform="matrix(-1 0 0 1 165.343 0)"/><path d="M49.612 84.038 36.343 91l12.778 4.996" style="fill:none;stroke:#000;stroke-width:3px" transform="matrix(-1 0 0 1 165.343 38.17)"/><path d="M49 102v17-17Zm4-25c.023 1.554-.232 2.813-1.5 3" style="fill:none;stroke:#000;stroke-width:3px" transform="matrix(-1 0 0 1 165.343 0)"/><path d="M53 77c.023 1.554-.232 2.813-1.5 3" style="fill:none;stroke:#000;stroke-width:3px" transform="matrix(-1 0 0 1 156.594 -10.5)"/><path d="M65 66c5-3.165 10-3.165 15 0" style="fill:none;stroke:#000;stroke-width:3px" transform="matrix(-1 0 0 1 165.343 0)"/><path d="M65 66c5-3.165 10-3.165 15 0" style="fill:none;stroke:#000;stroke-width:3px" transform="matrix(-1 0 0 1 140.843 19.187)"/><path d="M88.5 102c-4.56 4.628-5.132 9.581 0 15" style="fill:none;stroke:#000;stroke-width:3px" transform="matrix(-1 0 0 1 165.343 0)"/><path d="M88.5 102c-4.56 4.628-5.132 9.581 0 15" style="fill:none;stroke:#000;stroke-width:3px" transform="matrix(-1 0 0 1 166.524 19.5)"/><path d="M103 102h16.5M68 107.5c1.28-2.089 2.172-2.141 4-1.592 1.118.336 1.574 2.358.694 3.592-.383.538-.917.955-1.694 1.257.654.004 1.319.346 2 .672 1.671.798.803 5.082-2 4.723-1.243-.159-2.513-.701-3-3.152m14-49.374L97 79" style="fill:none;stroke:#000;stroke-width:3px" transform="matrix(-1 0 0 1 165.343 0)"/><path d="M82 63.626 97 79" style="fill:none;stroke:#000;stroke-width:3px" transform="matrix(-1 0 0 1 140.843 19.373)"/><path d="M106 121.5h16.5m-2.5-17h6v12" style="fill:none;stroke:#000;stroke-width:3px" transform="matrix(-1 0 0 1 165.343 0)"/><path d="M120 104.5h6v12" style="fill:none;stroke:#000;stroke-width:3px" transform="matrix(-1 0 0 1 162.343 19)"/><path d="M121 110h4.5" style="fill:none;stroke:#000;stroke-width:3px" transform="matrix(-1 0 0 1 165.343 0)"/><path d="M121 110h4.5" style="fill:none;stroke:#000;stroke-width:3px" transform="matrix(-1 0 0 1 162.343 19)"/><path d="M120 115h6" style="fill:none;stroke:#000;stroke-width:3px" transform="matrix(-1 0 0 1 165.343 0)"/><path d="M120 115h6" style="fill:none;stroke:#000;stroke-width:3px" transform="matrix(-1 0 0 1 162.343 19)"/><path d="M91.5 105v9c2.543 3 5.364 3.132 8.5 0v-9" style="fill:none;stroke:#000;stroke-width:3px" transform="matrix(-1 0 0 1 165.343 0)"/><path d="M91.5 105v9c2.543 3 5.364 3.132 8.5 0v-9" style="fill:none;stroke:#000;stroke-width:3px" transform="rotate(180 82.046 119.825)"/><circle cx="68" cy="89.5" r="1.5" transform="matrix(-1.33333 0 0 1.33333 188.01 -29.833)"/><circle cx="68" cy="89.5" r="1.5" transform="matrix(-1.33333 0 0 1.33333 188.01 8.667)"/></svg>