<svg width="160" height="182" xml:space="preserve" style="fill-rule:evenodd;clip-rule:evenodd;stroke-linejoin:round;stroke-miterlimit:1.5" xmlns="http://www.w3.org/2000/svg"><path d="m16.532 87.891-14 7.655 12 5.294.612 26.051-12.612 7 12.612 5.166c14.104 7.269 30.085 4.298 41.856.288 6.41 1.88 43.246-2.213 49-4.695l30.25-1.15v-11l-6.25-1-25-.5c-4.085-2.075-3.438-3.677 0-5l28.25-.5V104l-5.75-2.5-24.5.5c-4.436-11.502-24.817-18.756-37.257-16.04-9.437 2.06-7.846-7.252-16.304-9.518-6-4.118-14.212-4.664-20.212-1.005-6.162 3.105-10.421 3.905-12.695 12.454Z" style="fill:#fff" transform="matrix(-1 0 0 1 150.657 -1.919)"/><path d="M52.35 77.6c5.776 6.377 4.387 9.431 21.946 7.655 7.402-.749 22.491 6.867 26.704 13.774" style="fill:none;stroke:#000;stroke-width:2.5px" transform="matrix(-1 0 0 1 150.657 -1.919)"/><path d="m46.144 86.584-13.269 6.962 12.777 4.997" style="fill:none;stroke:#000;stroke-width:2.5px" transform="matrix(-1 0 0 1 180.657 -.545)"/><path d="m46.144 86.584-13.269 6.962 12.777 4.997" style="fill:none;stroke:#000;stroke-width:2.5px" transform="matrix(-1 0 0 1 180.657 37.624)"/><path d="M45.532 104.546v17-17Zm4-25c.023 1.554-.233 2.813-1.5 3" style="fill:none;stroke:#000;stroke-width:2.5px" transform="matrix(-1 0 0 1 180.657 -.545)"/><path d="M49.227 84.092c.023 1.554-.232 2.813-1.5 3" style="fill:none;stroke:#000;stroke-width:2.5px" transform="matrix(-1 0 0 1 171.908 -11.045)"/><path d="M61.227 73.092c5-3.165 11.898-2.013 16.898 1.152" style="fill:none;stroke:#000;stroke-width:2.5px" transform="matrix(-1 0 0 1 180.657 -.545)"/><path d="m103 102 23.5-.5" style="fill:none;stroke:#000;stroke-width:2.5px" transform="matrix(-1 0 0 1 150.657 -1.919)"/><path d="M64.532 110.046c1.28-2.089 2.172-2.141 4-1.592 1.118.336 1.573 2.358.694 3.592-.383.539-.918.955-1.694 1.258.654.003 1.319.346 2 .671 1.671.799.802 5.083-2 4.724-1.243-.159-2.514-.702-3-3.153" style="fill:none;stroke:#000;stroke-width:2.5px" transform="matrix(-1 0 0 1 180.657 -.545)"/><path d="m106 121.5 23.5-.5m-2.5-17h6v12" style="fill:none;stroke:#000;stroke-width:2.5px" transform="matrix(-1 0 0 1 150.657 -1.919)"/><path d="M127 104h6v12" style="fill:none;stroke:#000;stroke-width:2.5px" transform="matrix(-1 0 0 1 147.657 17.081)"/><path d="M128 109.5h4.5" style="fill:none;stroke:#000;stroke-width:2.5px" transform="matrix(-1 0 0 1 150.657 -1.919)"/><path d="M128 109.5h4.5" style="fill:none;stroke:#000;stroke-width:2.5px" transform="matrix(-1 0 0 1 147.657 17.081)"/><path d="M127 114.5h6" style="fill:none;stroke:#000;stroke-width:2.5px" transform="matrix(-1 0 0 1 150.657 -1.919)"/><path d="M127 114.5h6" style="fill:none;stroke:#000;stroke-width:2.5px" transform="matrix(-1 0 0 1 147.657 17.081)"/><path d="M91.5 105v9c2.543 3 5.364 3.132 8.5 0v-9" style="fill:none;stroke:#000;stroke-width:2.5px" transform="scale(-1 1) rotate(-42.083 -8.77 339.998)"/><path d="M91.5 105v9c2.543 3 5.364 3.132 8.5 0v-9" style="fill:none;stroke:#000;stroke-width:2.5px" transform="rotate(138.353 86.823 117.803)"/><g id="gikopoipoi_eyes_open" style="clip-rule:evenodd;display:inline;fill-rule:evenodd;stroke-linejoin:round;stroke-miterlimit:1.5" transform="translate(17.189 18.677)"><circle cx="68" cy="89.5" r="1.5" transform="matrix(-1.33333 0 0 1.33333 188.01 -47.01)" style="display:inline"/><circle cx="68" cy="89.5" r="1.5" transform="matrix(-1.33333 0 0 1.33333 188.01 -8.51)" style="display:inline"/></g><g id="gikopoipoi_eyes_closed" style="clip-rule:evenodd;display:none;fill-rule:evenodd;stroke-linejoin:round;stroke-miterlimit:1.5" stroke-width="3" fill="none" stroke="#000" stroke-linecap="round"><path d="M97.045 108.18c-.87 1.24-.75 4.144.04 5.266" style="display:inline;stroke-width:2.14607;stroke-dasharray:none" transform="translate(17.189 18.677)"/><path d="M97.035 69.592c-.87 1.24-.75 4.144.04 5.267" style="clip-rule:evenodd;display:inline;fill-rule:evenodd;stroke-width:2.14607;stroke-linejoin:round;stroke-miterlimit:1.5;stroke-dasharray:none" transform="translate(17.189 18.677)"/></g></svg>