<svg xmlns="http://www.w3.org/2000/svg" xmlns:xlink="http://www.w3.org/1999/xlink" height="239.003" width="308"><defs><linearGradient gradientTransform="matrix(.0182 0 0 .0122 -19.35 -2.5)" gradientUnits="userSpaceOnUse" id="r" spreadMethod="pad" x1="-819.2" x2="819.2"><stop offset="0" stop-color="#400000"/><stop offset=".49" stop-color="#5c0101"/><stop offset="1" stop-color="#400000"/><stop offset="1" stop-color="#ae0202"/></linearGradient><linearGradient gradientTransform="matrix(.0425 0 0 .0214 .55 -15)" gradientUnits="userSpaceOnUse" id="s" spreadMethod="pad" x1="-819.2" x2="819.2"><stop offset="0" stop-color="#400000"/><stop offset=".49" stop-color="#5c0101"/><stop offset="1" stop-color="#400000"/><stop offset="1" stop-color="#ae0202"/></linearGradient><linearGradient gradientTransform="matrix(.0016 0 0 .0027 -2.85 -30.45)" gradientUnits="userSpaceOnUse" id="t" spreadMethod="pad" x1="-819.2" x2="819.2"><stop offset="0" stop-color="#fde68a"/><stop offset="1" stop-color="#f0f1d6"/></linearGradient><linearGradient gradientTransform="matrix(.0064 0 0 .0071 -3.05 -17.4)" gradientUnits="userSpaceOnUse" id="u" spreadMethod="pad" x1="-819.2" x2="819.2"><stop offset="0" stop-color="#292150"/><stop offset=".533" stop-color="#5b5577"/><stop offset="1" stop-color="#2e2554"/></linearGradient><linearGradient gradientTransform="matrix(.0146 0 0 .0107 -2.85 -4.9)" gradientUnits="userSpaceOnUse" id="v" spreadMethod="pad" x1="-819.2" x2="819.2"><stop offset="0" stop-color="#292150"/><stop offset=".533" stop-color="#5b5577"/><stop offset="1" stop-color="#2e2554"/></linearGradient><linearGradient gradientTransform="matrix(.0029 0 0 .006 -2.85 -27.75)" gradientUnits="userSpaceOnUse" id="x" spreadMethod="pad" x1="-819.2" x2="819.2"><stop offset="0" stop-color="#538e6f"/><stop offset="0" stop-color="#a00101"/><stop offset=".016" stop-color="#333"/><stop offset=".502" stop-color="#b70202"/><stop offset="1" stop-color="#820606"/></linearGradient><linearGradient gradientTransform="matrix(.0016 0 0 .0027 -2.85 -30.45)" gradientUnits="userSpaceOnUse" id="y" spreadMethod="pad" x1="-819.2" x2="819.2"><stop offset="0" stop-color="#fde68a"/><stop offset="1" stop-color="#f0f1d6"/></linearGradient><linearGradient gradientTransform="matrix(.0038 0 0 .0089 -1.85 -3.1)" gradientUnits="userSpaceOnUse" id="z" spreadMethod="pad" x1="-819.2" x2="819.2"><stop offset="0" stop-color="#f2bf28"/><stop offset="1" stop-color="#f2ebbd"/></linearGradient><linearGradient gradientTransform="matrix(.0061 0 0 .0138 -2.8 -21.25)" gradientUnits="userSpaceOnUse" id="A" spreadMethod="pad" x1="-819.2" x2="819.2"><stop offset="0" stop-color="#327436" stop-opacity=".8"/><stop offset=".486" stop-color="#56ae42"/><stop offset="1" stop-color="#306733"/></linearGradient><linearGradient gradientTransform="matrix(.0061 0 0 .0123 -2.8 -3.1)" gradientUnits="userSpaceOnUse" id="B" spreadMethod="pad" x1="-819.2" x2="819.2"><stop offset="0" stop-color="#327436" stop-opacity=".8"/><stop offset=".486" stop-color="#56ae42"/><stop offset="1" stop-color="#306733"/></linearGradient><linearGradient gradientTransform="matrix(.0016 0 0 .0027 -2.85 -30.45)" gradientUnits="userSpaceOnUse" id="E" spreadMethod="pad" x1="-819.2" x2="819.2"><stop offset="0" stop-color="#fde68a"/><stop offset="1" stop-color="#f0f1d6"/></linearGradient><linearGradient gradientTransform="matrix(.0029 0 0 .006 -2.85 -27.75)" gradientUnits="userSpaceOnUse" id="F" spreadMethod="pad" x1="-819.2" x2="819.2"><stop offset="0" stop-color="#f2bf28"/><stop offset="1" stop-color="#f2ebbd"/></linearGradient><linearGradient gradientTransform="matrix(.0038 0 0 .0089 -1.85 -3.1)" gradientUnits="userSpaceOnUse" id="G" spreadMethod="pad" x1="-819.2" x2="819.2"><stop offset="0" stop-color="#f2bf28"/><stop offset="1" stop-color="#f2ebbd"/></linearGradient><linearGradient gradientTransform="matrix(.0016 0 0 .0027 -2.85 -30.45)" gradientUnits="userSpaceOnUse" id="H" spreadMethod="pad" x1="-819.2" x2="819.2"><stop offset="0" stop-color="#fde68a"/><stop offset="1" stop-color="#f0f1d6"/></linearGradient><linearGradient gradientTransform="matrix(.0029 0 0 .006 -2.85 -27.75)" gradientUnits="userSpaceOnUse" id="I" spreadMethod="pad" x1="-819.2" x2="819.2"><stop offset="0" stop-color="#f2bf28"/><stop offset="1" stop-color="#f2ebbd"/></linearGradient><linearGradient gradientTransform="matrix(.0049 0 0 .0089 -1.85 -3.1)" gradientUnits="userSpaceOnUse" id="J" spreadMethod="pad" x1="-819.2" x2="819.2"><stop offset="0" stop-color="#d17358"/><stop offset="1" stop-color="#e3bdbd"/></linearGradient><linearGradient gradientTransform="matrix(.0016 0 0 .0027 -2.85 -30.45)" gradientUnits="userSpaceOnUse" id="K" spreadMethod="pad" x1="-819.2" x2="819.2"><stop offset="0" stop-color="#fde68a"/><stop offset="1" stop-color="#f0f1d6"/></linearGradient><linearGradient gradientTransform="matrix(.0029 0 0 .006 -2.85 -27.75)" gradientUnits="userSpaceOnUse" id="L" spreadMethod="pad" x1="-819.2" x2="819.2"><stop offset="0" stop-color="#f2bf28"/><stop offset="1" stop-color="#f2ebbd"/></linearGradient><linearGradient gradientTransform="matrix(.0038 0 0 .0089 -1.85 -3.1)" gradientUnits="userSpaceOnUse" id="M" spreadMethod="pad" x1="-819.2" x2="819.2"><stop offset="0" stop-color="#f2bf28"/><stop offset="1" stop-color="#f2ebbd"/></linearGradient><linearGradient gradientTransform="matrix(.0024 0 0 .006 -2.85 -27.75)" gradientUnits="userSpaceOnUse" id="N" spreadMethod="pad" x1="-819.2" x2="819.2"><stop offset="0" stop-color="#a6821a"/><stop offset="1" stop-color="#edcb92"/><stop offset="1" stop-color="#56ae42"/></linearGradient><linearGradient gradientTransform="matrix(-.0004 .0018 -.0017 -.0006 10.65 -18.35)" gradientUnits="userSpaceOnUse" id="Q" spreadMethod="pad" x1="-819.2" x2="819.2"><stop offset="0" stop-color="#b80c0c"/><stop offset="1" stop-color="#f8f1bc"/></linearGradient><linearGradient gradientTransform="matrix(-.0004 .0017 -.0015 -.0005 9.75 -22.8)" gradientUnits="userSpaceOnUse" id="R" spreadMethod="pad" x1="-819.2" x2="819.2"><stop offset="0" stop-color="#b80c0c"/><stop offset="1" stop-color="#f8f1bc"/></linearGradient><linearGradient gradientTransform="matrix(-.0007 .003 -.0042 -.0014 .3 -20)" gradientUnits="userSpaceOnUse" id="S" spreadMethod="pad" x1="-819.2" x2="819.2"><stop offset="0" stop-color="#b80c0c"/><stop offset="1" stop-color="#f8f1bc"/></linearGradient><linearGradient gradientTransform="matrix(0 -.0007 .0006 0 8.65 -7.7)" gradientUnits="userSpaceOnUse" id="T" spreadMethod="pad" x1="-819.2" x2="819.2"><stop offset="0" stop-color="#633030"/><stop offset="1" stop-color="#a26548"/></linearGradient><linearGradient gradientTransform="matrix(.0037 0 0 .0033 8.65 -5.05)" gradientUnits="userSpaceOnUse" id="U" spreadMethod="pad" x1="-819.2" x2="819.2"><stop offset="0" stop-color="#633030"/><stop offset="1" stop-color="#a26548"/></linearGradient><linearGradient gradientTransform="matrix(.0091 0 0 .0083 5.2 -19.3)" gradientUnits="userSpaceOnUse" id="W" spreadMethod="pad" x1="-819.2" x2="819.2"><stop offset="0" stop-color="#898989"/><stop offset="1" stop-color="#0c0c0c"/></linearGradient><linearGradient gradientTransform="matrix(.0056 0 0 .0016 5.15 -26.1)" gradientUnits="userSpaceOnUse" id="X" spreadMethod="pad" x1="-819.2" x2="819.2"><stop offset="0" stop-color="#898989"/><stop offset="1" stop-color="#0c0c0c"/></linearGradient><linearGradient gradientTransform="matrix(.0065 -.0018 .0019 .0066 -4.95 -112.05)" gradientUnits="userSpaceOnUse" id="a" spreadMethod="pad" x1="-819.2" x2="819.2"><stop offset="0" stop-color="#898989"/><stop offset="1" stop-color="#0c0c0c"/></linearGradient><linearGradient gradientTransform="matrix(.004 -.0011 .0004 .0013 -6.5 -117.4)" gradientUnits="userSpaceOnUse" id="b" spreadMethod="pad" x1="-819.2" x2="819.2"><stop offset="0" stop-color="#898989"/><stop offset="1" stop-color="#0c0c0c"/></linearGradient><linearGradient gradientTransform="matrix(.0002 .0025 -.0033 -.0002 -8.55 -111.55)" gradientUnits="userSpaceOnUse" id="c" spreadMethod="pad" x1="-819.2" x2="819.2"><stop offset="0" stop-color="#b80c0c"/><stop offset="1" stop-color="#f8f1bc"/></linearGradient><linearGradient xlink:href="#a" id="an" gradientUnits="userSpaceOnUse" gradientTransform="matrix(.0065 -.0018 .0019 .0066 -4.95 -112.05)" x1="-819.2" x2="819.2" spreadMethod="pad"/><linearGradient xlink:href="#b" id="ao" gradientUnits="userSpaceOnUse" gradientTransform="matrix(.004 -.0011 .0004 .0013 -6.5 -117.4)" x1="-819.2" x2="819.2" spreadMethod="pad"/><linearGradient xlink:href="#c" id="ap" gradientUnits="userSpaceOnUse" gradientTransform="matrix(.0002 .0025 -.0033 -.0002 -8.55 -111.55)" x1="-819.2" x2="819.2" spreadMethod="pad"/><linearGradient xlink:href="#a" id="at" gradientUnits="userSpaceOnUse" gradientTransform="matrix(.0065 -.0018 .0019 .0066 -4.95 -112.05)" x1="-819.2" x2="819.2" spreadMethod="pad"/><linearGradient xlink:href="#b" id="au" gradientUnits="userSpaceOnUse" gradientTransform="matrix(.004 -.0011 .0004 .0013 -6.5 -117.4)" x1="-819.2" x2="819.2" spreadMethod="pad"/><linearGradient xlink:href="#c" id="av" gradientUnits="userSpaceOnUse" gradientTransform="matrix(.0002 .0025 -.0033 -.0002 -8.55 -111.55)" x1="-819.2" x2="819.2" spreadMethod="pad"/><linearGradient xlink:href="#a" id="az" gradientUnits="userSpaceOnUse" gradientTransform="matrix(.0065 -.0018 .0019 .0066 -4.95 -112.05)" x1="-819.2" x2="819.2" spreadMethod="pad"/><linearGradient xlink:href="#b" id="aA" gradientUnits="userSpaceOnUse" gradientTransform="matrix(.004 -.0011 .0004 .0013 -6.5 -117.4)" x1="-819.2" x2="819.2" spreadMethod="pad"/><linearGradient xlink:href="#c" id="aB" gradientUnits="userSpaceOnUse" gradientTransform="matrix(.0002 .0025 -.0033 -.0002 -8.55 -111.55)" x1="-819.2" x2="819.2" spreadMethod="pad"/><radialGradient cx="0" cy="0" gradientTransform="translate(-.75 -3.15) scale(.0114)" gradientUnits="userSpaceOnUse" id="w" r="819.2" spreadMethod="pad"><stop offset="0" stop-color="#e8e8d7"/><stop offset="0" stop-color="#538e6f"/><stop offset="0" stop-color="#eddfcb"/><stop offset="1" stop-color="#d1c47a"/></radialGradient><radialGradient cx="0" cy="0" gradientTransform="translate(1.7 -12.25) scale(.0295)" gradientUnits="userSpaceOnUse" id="V" r="819.2" spreadMethod="pad"><stop offset="0" stop-color="#f8f9b7"/><stop offset="1" stop-color="#b8b8b8"/></radialGradient><radialGradient cx="0" cy="0" gradientTransform="translate(15.6 5.35) scale(.0265)" gradientUnits="userSpaceOnUse" id="ai" r="819.2" spreadMethod="pad"><stop offset="0" stop-color="#fff"/><stop offset="1" stop-color="#fef294" stop-opacity=".051"/></radialGradient><radialGradient cx="0" cy="0" gradientTransform="translate(1.7 -67.25) scale(.0295)" gradientUnits="userSpaceOnUse" id="d" r="819.2" spreadMethod="pad"><stop offset="0" stop-color="#f8f9b7"/><stop offset="1" stop-color="#b8b8b8"/></radialGradient><radialGradient cx="0" cy="0" gradientTransform="translate(-5 -104.75) scale(.1301)" gradientUnits="userSpaceOnUse" id="e" r="819.2" spreadMethod="pad"><stop offset="0" stop-color="#fff7cc"/><stop offset=".722" stop-color="#fffcef" stop-opacity=".102"/><stop offset="1" stop-color="#fff" stop-opacity=".012"/></radialGradient><radialGradient cx="0" cy="0" gradientTransform="translate(-5.5 -125.15) scale(.0096)" gradientUnits="userSpaceOnUse" id="f" r="819.2" spreadMethod="pad"><stop offset="0" stop-color="#535353"/><stop offset="1"/></radialGradient><radialGradient xlink:href="#d" id="al" gradientUnits="userSpaceOnUse" gradientTransform="translate(1.7 -67.25) scale(.0295)" cx="0" cy="0" r="819.2" spreadMethod="pad"/><radialGradient xlink:href="#e" id="am" gradientUnits="userSpaceOnUse" gradientTransform="translate(-5 -104.75) scale(.1301)" cx="0" cy="0" r="819.2" spreadMethod="pad"/><radialGradient xlink:href="#f" id="aq" gradientUnits="userSpaceOnUse" gradientTransform="translate(-5.5 -125.15) scale(.0096)" cx="0" cy="0" r="819.2" spreadMethod="pad"/><radialGradient xlink:href="#d" id="ar" gradientUnits="userSpaceOnUse" gradientTransform="translate(1.7 -67.25) scale(.0295)" cx="0" cy="0" r="819.2" spreadMethod="pad"/><radialGradient xlink:href="#e" id="as" gradientUnits="userSpaceOnUse" gradientTransform="translate(-5 -104.75) scale(.1301)" cx="0" cy="0" r="819.2" spreadMethod="pad"/><radialGradient xlink:href="#f" id="aw" gradientUnits="userSpaceOnUse" gradientTransform="translate(-5.5 -125.15) scale(.0096)" cx="0" cy="0" r="819.2" spreadMethod="pad"/><radialGradient xlink:href="#d" id="ax" gradientUnits="userSpaceOnUse" gradientTransform="translate(1.7 -67.25) scale(.0295)" cx="0" cy="0" r="819.2" spreadMethod="pad"/><radialGradient xlink:href="#e" id="ay" gradientUnits="userSpaceOnUse" gradientTransform="translate(-5 -104.75) scale(.1301)" cx="0" cy="0" r="819.2" spreadMethod="pad"/><radialGradient xlink:href="#f" id="aC" gradientUnits="userSpaceOnUse" gradientTransform="translate(-5.5 -125.15) scale(.0096)" cx="0" cy="0" r="819.2" spreadMethod="pad"/><g id="Y"><path d="m5.5-63.15 1.4-.1 5.85-1.65 12.4-.25.5 4.4-7.65 5.5-1.85-1.25-2.65-2.25-1-2.4-6.75-.35-1.35 1.25.1 2.1-3.6.4 2 1.35 2.25-.85-.15-1 2.9 1.1v2.25l3.85 3.4-1.6.35-3.65 4.5-1 1.9-.35-.5-5.9-.15.4 2h2.5l2.1 2-2.35-.85-2.9-.25-3.35-2.5-2.25-7-1.15-.15-2.35-3.5-7.75.5 1.1-1.75-1.35-1.25 5.5.15 6.1-1.75 4.25.75 2.5-1-.3-.85 5.55-2.3M1.65-37.5 3-39.65l4.1-1.8 12.15 6.05-3.75 7.5-8 5.15L4-18l-1.1-.4 3.25-11.35-1.25-.15-3.25-7.6m-28.35-.75h1.2l.25 3.6-1.45-3.6M-38-59.4l6.6.6 12.2 2.15-9.4 1.25 1.4.6-2.4 4.8.2 2.2-1.3-1.3.7 2.3-1.6 1.8-1.2 3.6-1.6.6 3.2 6.8 1 .8-1.6-.6-5-10.6-1.2-.2h-.4l-3.4 5.4-2.4-5.6-5.4-2.8L-47-46l-3 2-4.6-3.2 4.4 4.2v3l-3.2 1.6-.8 2.6-.8 5.2-1.8 4.8-5.2 2-2-3-.4-13.6-3.4.4-1.8-.6-1.8-2.8 1.8-3.2 1.6-1.2 10 .4 3-.6-3.2-.8 2.4-1.6-1.4-.2-1.2 1.4-4.4-1.2-6.8 3 .2-2 3-6.6 4.4-.4-3.2-.2 1.2-2.2 6.6-1.8 6.8 1.6 6.6.2 6-.6m8.8 11.8q1-.5 1.95-.95l.05.65-2.4 1.85v-1.35l.4-.2m5.7 14.95-.5-2 4.15 1.4-3.65.6m-5.35-.5-.45-2.45 3.1 1.4-2.65 1.05m13 14.65 3.45-2.95-.6 1.95-2.85 1M-32-27.4l7.65-3.25 7.5 5.15-1.9 5.1-6.35-1.75-3 1.15-3.25.25-.65-6.65" fill="#dbc18e" fill-rule="evenodd" transform="translate(74.1 70.1)"/><path d="m5.5-63.15-5.55 2.3.3.85-2.5 1-4.25-.75-6.1 1.75-5.5-.15 1.35 1.25-1.1 1.75 7.75-.5 2.35 3.5 1.15.15 2.25 7L-1-42.5l2.9.25 2.35.85-2.1-2h-2.5l-.4-2 5.9.15.35.5 1-1.9 3.65-4.5 1.6-.35-3.85-3.4v-2.25L5-58.25l.15 1-2.25.85-2-1.35 3.6-.4-.1-2.1 1.35-1.25 6.75.35 1 2.4 2.65 2.25L18-55.25l7.65-5.5-.5-4.4-12.4.25-5.85 1.65-1.4.1M-74-13v-41.9l1.5.5-1.5-1.75v-.8l2.65 1.05-2.65-1.95V-70h11.55l.95 2.35-.1-1.85.6.75-.1-1.25H27v27.6l-1.5.5 1.5.35V-13h-.6l-1.9-3.55v1.3l-2-1.75-.1 2.5-.5-1.25L22-13h-37.2l-.65-1.75-.15.85-.25-1.25-.8 2.15h-46.6l.3-3.5-1.9 2.75.15-1.25-1.1 2H-74M1.65-37.5l3.25 7.6 1.25.15L2.9-18.4 4-18l3.5-4.75 8-5.15 3.75-7.5L7.1-41.45 3-39.65 1.65-37.5M24.5-16.9v.35-.35M-38-59.4l-6 .6-6.6-.2-6.8-1.6-6.6 1.8-1.2 2.2 3.2.2-4.4.4-3 6.6-.2 2 6.8-3 4.4 1.2 1.2-1.4 1.4.2-2.4 1.6 3.2.8-3 .6-10-.4-1.6 1.2-1.8 3.2 1.8 2.8 1.8.6 3.4-.4.4 13.6 2 3 5.2-2 1.8-4.8.8-5.2.8-2.6 3.2-1.6v-3l-4.4-4.2L-50-44l3-2-2.6-1.6 5.4 2.8 2.4 5.6 3.4-5.4h.4l1.2.2 5 10.6 1.6.6-1-.8-3.2-6.8 1.6-.6 1.2-3.6 1.6-1.8-.7-2.3 1.3 1.3-.2-2.2 2.4-4.8-1.4-.6 9.4-1.25-12.2-2.15-6.6-.6m11.3 21.15 1.45 3.6-.25-3.6h-1.2m-2.5-9.35-.4.2v1.35l2.4-1.85-.05-.65q-.95.45-1.95.95l-.2-.2.2.2m.35 14.45 2.65-1.05-3.1-1.4.45 2.45m5.35.5 3.65-.6-4.15-1.4.5 2M-32-27.4l.65 6.65 3.25-.25 3-1.15 6.35 1.75 1.9-5.1-7.5-5.15L-32-27.4m16.15 8.9 2.85-1 .6-1.95-3.45 2.95" fill="#e3cfa8" fill-rule="evenodd" transform="translate(74.1 70.1)"/><path d="m79.6 6.95-5.55 2.3.3.85-2.5 1-4.25-.75-6.1 1.75-5.5-.15 1.35 1.25-1.1 1.75 7.75-.5 2.35 3.5 1.15.15 2.25 7 3.35 2.5 2.9.25 2.35.85-2.1-2h-2.5l-.4-2 5.9.15.35.5 1-1.9 3.65-4.5 1.6-.35L82 15.2v-2.25l-2.9-1.1.15 1-2.25.85-2-1.35 3.6-.4-.1-2.1 1.35-1.25 6.75.35 1 2.4 2.65 2.25 1.85 1.25 7.65-5.5-.5-4.4-12.4.25L81 6.85l-1.4.1M.1 57.1V15.2l1.5.5-1.5-1.75v-.8l2.65 1.05L.1 12.25V.1h11.55l.95 2.35L12.5.6l.6.75L13 .1h88.1v27.6l-1.5.5 1.5.35V57.1m-.6 0-1.9-3.55v1.3l-2-1.75-.1 2.5-.5-1.25.1 2.75m-37.2 0-.65-1.75-.15.85-.25-1.25-.8 2.15m-46.6 0 .3-3.5-1.9 2.75L9 55.1l-1.1 2m67.85-24.5L79 40.2l1.25.15L77 51.7l1.1.4 3.5-4.75 8-5.15 3.75-7.5-12.15-6.05-4.1 1.8-1.35 2.15M98.6 53.55v-.35M36.1 10.7l-6 .6-6.6-.2-6.8-1.6-6.6 1.8-1.2 2.2 3.2.2-4.4.4-3 6.6-.2 2 6.8-3 4.4 1.2 1.2-1.4 1.4.2-2.4 1.6 3.2.8-3 .6-10-.4-1.6 1.2-1.8 3.2 1.8 2.8 1.8.6 3.4-.4.4 13.6 2 3 5.2-2 1.8-4.8.8-5.2.8-2.6 3.2-1.6v-3l-4.4-4.2 4.6 3.2 3-2-2.6-1.6 5.4 2.8 2.4 5.6 3.4-5.4h.4l1.2.2 5 10.6 1.6.6-1-.8-3.2-6.8 1.6-.6 1.2-3.6 1.6-1.8-.7-2.3 1.3 1.3-.2-2.2 2.4-4.8-1.4-.6 9.4-1.25-12.2-2.15-6.6-.6m11.3 21.15 1.45 3.6-.25-3.6h-1.2m-2.5-9.35q1-.5 1.95-.95l.05.65-2.4 1.85V22.7l.4-.2-.2-.2m.55 14.65 2.65-1.05-3.1-1.4.45 2.45m5.35.5 3.65-.6-4.15-1.4.5 2" fill="none" stroke="#600" stroke-linecap="round" stroke-linejoin="round" stroke-width=".25"/><path d="M101.1 57.1h-.6m-4.4 0H58.9m-1.85 0h-46.6m-2.55 0H.1m42-14.4.65 6.65L46 49.1l3-1.15 6.35 1.75 1.9-5.1-7.5-5.15-7.65 3.25m16.15 8.9 2.85-1 .6-1.95-3.45 2.95" fill="none" stroke="#600" stroke-linecap="round" stroke-linejoin="round" stroke-width=".25"/></g><g id="ak" transform="translate(279.8 104.85)"><use height="154.6" transform="translate(-279.8 -20.45)" width="306.65" xlink:href="#g"/><use height="41.1" transform="matrix(1 0 0 1.0007 -42.6 -33.072)" width="70.8" xlink:href="#h"/><use height="41.1" transform="matrix(1 0 0 1.0007 -82.15 -13.072)" width="70.8" xlink:href="#h"/><use height="41.1" transform="matrix(1 0 0 1.0007 -121.6 6.878)" width="70.8" xlink:href="#h"/><use height="37.4" transform="matrix(1 0 0 1.0002 -108.35 -.306)" width="24.45" xlink:href="#i"/><use height="37.4" transform="matrix(1 0 0 1.0002 -87.45 -10.706)" width="24.45" xlink:href="#i"/><use height="41.1" transform="matrix(1 0 0 1.0007 -161.05 26.978)" width="70.8" xlink:href="#h"/><use height="40.5" transform="matrix(1 0 0 1.0002 -133.4 14.544)" width="10.5" xlink:href="#j"/><use height="41.1" transform="matrix(1 0 0 1.0007 -200.6 46.978)" width="70.8" xlink:href="#h"/><use height="40.5" transform="matrix(1 0 0 1.0002 -173.4 37.044)" width="10.5" xlink:href="#j"/><use height="40.5" transform="matrix(1 0 0 1.0002 -153.4 27.044)" width="10.5" xlink:href="#j"/><use height="41.1" transform="matrix(1 0 0 1.0007 -240.05 66.928)" width="70.8" xlink:href="#h"/><use height="41.1" transform="matrix(1 0 0 1.0007 -279.6 86.978)" width="70.8" xlink:href="#h"/><use height="40.5" transform="matrix(1 0 0 1.0002 -258.4 76.194)" width="13.25" xlink:href="#k"/><use height="40.5" transform="matrix(1 0 0 1.0002 -240.4 68.144)" width="13.25" xlink:href="#k"/><use height="40.5" transform="matrix(1 0 0 1.0002 -211.4 57.144)" width="13.25" xlink:href="#k"/><use height="40.5" transform="matrix(1 0 0 1.0002 -193.4 48.144)" width="13.25" xlink:href="#k"/><use height="41.1" transform="matrix(1 0 0 1.0007 -42.6 -63.072)" width="70.8" xlink:href="#h"/><use height="41.1" transform="matrix(1 0 0 1.0007 -82.15 -43.072)" width="70.8" xlink:href="#h"/><use height="41.1" transform="matrix(1 0 0 1.0007 -121.6 -23.122)" width="70.8" xlink:href="#h"/><use height="41.1" transform="matrix(1 0 0 1.0007 -161.05 -3.022)" width="70.8" xlink:href="#h"/><use height="41.1" transform="matrix(1 0 0 1.0007 -200.6 16.978)" width="70.8" xlink:href="#h"/><use height="41.1" transform="matrix(1 0 0 1.0007 -240.05 36.928)" width="70.8" xlink:href="#h"/><use height="41.1" transform="matrix(1 0 0 1.0007 -279.6 56.928)" width="70.8" xlink:href="#h"/><use height="41.1" transform="matrix(1 0 0 1.0007 -42.6 -93.072)" width="70.8" xlink:href="#h"/><use height="41.1" transform="matrix(1 0 0 1.0007 -82.15 -73.072)" width="70.8" xlink:href="#h"/><use height="40.5" transform="matrix(1 0 0 1.0002 -258.65 46.294)" width="10.5" xlink:href="#l"/><use height="40.5" transform="matrix(1 0 0 1.0002 -240.65 37.294)" width="10.5" xlink:href="#l"/><use height="40.5" transform="matrix(1 0 0 1.0002 -211.55 26.294)" width="10.5" xlink:href="#l"/><use height="40.5" transform="matrix(1 0 0 1.0002 -193.55 17.294)" width="10.5" xlink:href="#l"/><use height="41.1" transform="matrix(1 0 0 1.0007 -279.6 26.928)" width="70.8" xlink:href="#h"/><use height="40.5" transform="matrix(1 0 0 1.0002 -261.15 11.844)" width="10.5" xlink:href="#m"/><use height="40.5" transform="matrix(1 0 0 1.0002 -175.9 2.044)" width="10.5" xlink:href="#j"/><use height="40.5" transform="matrix(1 0 0 1.0002 -155.9 -7.956)" width="10.5" xlink:href="#j"/><use height="41.1" transform="matrix(1 0 0 1.0007 -240.05 6.928)" width="70.8" xlink:href="#h"/><use height="40.5" transform="matrix(1 0 0 1.0002 -221.75 -7.706)" width="10.5" xlink:href="#m"/><use height="40.5" transform="matrix(1 0 0 1.0002 -201.75 -17.706)" width="10.5" xlink:href="#m"/><use height="40.5" transform="matrix(1 0 0 1.0002 -242.75 2.794)" width="10.5" xlink:href="#m"/><use height="22.35" transform="matrix(1 0 0 1.0002 -20.25 -26.954)" width="30.4" xlink:href="#n"/><use height="24" transform="matrix(1 0 0 1.0002 -57.95 -6.852)" width="29.1" xlink:href="#o"/><use height="37.4" transform="matrix(1 0 0 1.0002 -86.3 -39.306)" width="24.45" xlink:href="#i"/><use height="33.9" transform="matrix(1 0 0 1.0002 -29.4 -104.855)" width="29.15" xlink:href="#p"/><use height="23.15" transform="matrix(1 0 0 1.0002 -29.35 -91.2)" width="30.7" xlink:href="#q"/></g><g id="Z"><path d="M-4.5 7.5-34.3-7.35v-5.15L-4.4 2.55V3.6l-.1 3.9" fill="url(#r)" fill-rule="evenodd" transform="translate(34.8 33)"/><path d="m35.4-17.4.1 5-39.85 20-.15-.1.1-3.9V2.55L35.4-17.4" fill="#450000" fill-rule="evenodd" transform="translate(34.8 33)"/><path d="m-34.3-12.5 39.7-20 30 15.1L-4.4 2.55-34.3-12.5" fill="url(#s)" fill-rule="evenodd" transform="translate(34.8 33)"/><path d="m35.4-17.4.1 5-39.85 20-.15-.1.1-3.9V2.55M35.4-17.4-4.4 2.55" fill="none" stroke="#2f0202" stroke-linecap="round" stroke-linejoin="round" transform="translate(34.8 33)"/><path d="M-4.5 7.5-34.3-7.35v-5.15l39.7-20 30 15.1M-4.4 2.55-34.3-12.5" fill="none" stroke="#400000" stroke-linecap="round" stroke-linejoin="round" transform="translate(34.8 33)"/></g><g id="aa"><path d="m-1.1-32.55.05-.05H-1v.1l-.1-.05" fill="url(#t)" fill-rule="evenodd" transform="translate(15.05 33.25)"/><path d="m-.45-23.15.9 4.65q.45 1.85 1 3.1l.35.75.2.35.2.8q-.25.9-1.05 1.25l-.4.2-3.55.45-3.4-.4-.15-.05q-1.4-.45-1.9-1.3l.8-1.15.05-.05.2-.3.2-.55.9-3.1.9-4.7 2.4.4 2.35-.35" fill="url(#u)" fill-rule="evenodd" transform="translate(15.05 33.25)"/><path d="M2.2-13.5v-.15q2.9 1.75 4.6 3.55l.45.5q3.45 3.95.65 7.85l-.7.85Q5.35 1.05 1.9 3l-1.05.45-3.65.45-3.65-.45L-7.5 3q-14.25-8.05-.75-16.35.5.85 1.9 1.3l.15.05 3.4.4 3.55-.45.4-.2q.8-.35 1.05-1.25m3.55 5.2-1.15.35q-2.9.9-6.55.95l-4.9-.45-.35-.1L-8.75-8-8.8-.8l.35.15 1.25.5.85.25 4.9.65Q2.2.7 5.1-.45l.65-.3V-8.3" fill="url(#v)" fill-rule="evenodd" transform="translate(15.05 33.25)"/><path d="m-8.75-8 1.55.45.35.1 4.9.45q3.65-.05 6.55-.95l1.15-.35v7.55l-.65.3Q2.2.7-1.45.75L-6.35.1l-.85-.25-1.25-.5-.35-.15.05-7.2" fill="url(#w)" fill-rule="evenodd" transform="translate(15.05 33.25)"/><path d="M-5.2-23.2q.3-2.45.45-5.3l.1-4.05h.2l.1.05 1.45.15 1.55-.15.1-.05h.15l.1.05.1 4 .45 5.35-2.35.35-2.4-.4" fill="url(#x)" fill-rule="evenodd" transform="translate(15.05 33.25)"/><path d="M17.25 19.75v-.15q2.9 1.75 4.6 3.55l.45.5q3.45 3.95.65 7.85l-.7.85q-1.85 1.95-5.3 3.9m-9.4 0Q-6.7 28.2 6.8 19.9" fill="none" stroke="#200" stroke-linecap="round" stroke-linejoin="round" stroke-width=".5"/><path d="m14.6 10.1.9 4.65q.45 1.85 1 3.1l.35.75.2.35.2.8M6.8 19.9l.8-1.15.05-.05.2-.3.2-.55.9-3.1.9-4.7q.3-2.45.45-5.3L10.4.7h.1m.05 0h.05l1.6-.45 1.7.45m.05 0L14 .65h.05v.1l.1 4 .45 5.35-2.35.35-2.4-.4M13.7.75 12.15.9 10.7.75M13.85.7h-.05m.25.05-.1-.05" fill="none" stroke="#200" stroke-linecap="round" stroke-linejoin="round" stroke-width=".5"/><path d="M20.8 24.95v7.55m-14.55-.05.05-7.2m10.65 11-1.05.45-3.65.45-3.65-.45-1.05-.45m-1.25-11 1.55.45.35.1 4.9.45q3.65-.05 6.55-.95l1.15-.35m0 7.55-.65.3q-2.9 1.15-6.55 1.2l-4.9-.65-.85-.25-1.25-.5-.35-.15" fill="none" stroke="#000" stroke-linecap="round" stroke-linejoin="round" stroke-width=".5"/><path d="M17.25 19.75q-.25.9-1.05 1.25l-.4.2-3.55.45-3.4-.4-.15-.05q-1.4-.45-1.9-1.3" fill="none" stroke="#200" stroke-linecap="round" stroke-linejoin="round" stroke-opacity=".102" stroke-width=".5"/></g><g id="ab"><path d="m-1-32.5-.1-.05.05-.05H-1l-.1.05.1-.05v.1" fill="url(#y)" fill-rule="evenodd" transform="translate(8.05 33.25)"/><path d="M2.2.95q0 .7-.4 1.3v.05l-1.05.9Q-.7 4.2-2.8 4.25q-1.75 0-3.05-.7V-7.8q1.3.75 3.05.75 2.1 0 3.55-1.05 1.4-.9 1.45-2.3V.95" fill="url(#z)" fill-rule="evenodd" transform="translate(8.05 33.25)"/><path d="M-7.8-13.2q0-.7.35-1.3l.05-.05.2-.3 1.1-3.65.9-4.7q.3-2.45.45-5.3l.1-4.05 1.75.2 1.8-.2.1.05.1 4 .45 5.35q.35 2.55.9 4.65.6 2.45 1.35 3.85l.2.35.2 1.1v.05q-.05 1.35-1.45 2.3-1.45.95-3.55.95-2.05 0-3.55-.95-1.4-.95-1.45-2.35" fill="url(#A)" fill-rule="evenodd" transform="translate(8.05 33.25)"/><path d="M-7.8-13.2q.05 1.4 1.45 2.35 1.5.95 3.55.95 2.1 0 3.55-.95 1.4-.95 1.45-2.3v2.75Q2.15-9 .75-8.1-.7-7.05-2.8-7.05q-1.75 0-3.05-.75V3.55q1.3.7 3.05.7Q-.7 4.2.75 3.2l1.05-.9v-.05q.4-.6.4-1.3V3.7q0 1.4-1.45 2.35Q-.7 7-2.8 7q-2.05 0-3.55-.95-1.3-.85-1.4-2.15v-.75L-7.8-13.2" fill="url(#B)" fill-rule="evenodd" transform="translate(8.05 33.25)"/><path d="M10.25 20.1v-.05m0 2.8V20.1m0 16.8V22.85M.3 36.4.25 20.05M.3 36.4v.75M6.95.7l-1.8.2L3.4.7l-.1 4.05q-.15 2.85-.45 5.3l-.9 4.7-1.1 3.65-.2.3-.05.05q-.35.6-.35 1.3m10 0-.2-1.1-.2-.35q-.75-1.4-1.35-3.85-.55-2.1-.9-4.65l-.45-5.35-.1-4-.1-.05L7 .65h.05L5.2.25 3.4.7M7 .65 6.95.7l.1-.05v.1M.3 37.15q.1 1.3 1.4 2.15 1.5.95 3.55.95 2.1 0 3.55-.95 1.45-.95 1.45-2.35v-.05m-9.95.25-.05-.25.05-.5" fill="none" stroke="#200" stroke-linecap="round" stroke-linejoin="round" stroke-width=".5"/><path d="M.25 20.05q.05 1.4 1.45 2.35 1.5.95 3.55.95 2.1 0 3.55-.95 1.4-.95 1.45-2.3z" fill="none" stroke="#200" stroke-linecap="round" stroke-linejoin="round" stroke-opacity=".102" stroke-width=".5"/></g><g id="k" transform="translate(8.05 33.25)"><use height="40.5" transform="translate(-8.05 -33.25)" width="10.5" xlink:href="#C"/><use height="7.5" transform="matrix(1 -.2941 0 1 -4.45 -5.009)" width="9.65" xlink:href="#D"/></g><g id="C"><path d="M2.2-13.2v2.8Q2.15-9 .75-8.1-.7-7.05-2.8-7.05q-1.75 0-3.05-.75V3.55q1.3.7 3.05.7Q-.7 4.2.75 3.2l1.05-.9v-.05q.4-.6.4-1.3V3.7q0 1.4-1.45 2.35Q-.7 7-2.8 7q-2.05 0-3.55-.95-1.3-.85-1.4-2.15v-.75L-7.8-13.2q0-.7.35-1.3l.05-.05.2-.3.85-.85q1.5-.95 3.55-.95 2.1 0 3.55.95l1.05 1.05.2.35.2 1.1m-10 0q.05 1.4 1.45 2.35 1.5.95 3.55.95 2.1 0 3.55-.95 1.4-.95 1.45-2.3-.05 1.35-1.45 2.3-1.45.95-3.55.95-2.05 0-3.55-.95-1.4-.95-1.45-2.35" fill="#9e2506" fill-opacity=".502" fill-rule="evenodd" transform="translate(8.05 33.25)"/><path d="m-1.1-32.55.05-.05H-1v.1l-.1-.05" fill="url(#E)" fill-rule="evenodd" transform="translate(8.05 33.25)"/><path d="M-5.2-23.2q.3-2.45.45-5.3l.1-4.05h.2l.1.05 1.45.15 1.55-.15.1-.05h.15l.1.05.1 4 .45 5.35-2.35.35-2.4-.4" fill="url(#F)" fill-rule="evenodd" transform="translate(8.05 33.25)"/><path d="M2.2-10.4V.95q0 .7-.4 1.3v.05l-1.05.9Q-.7 4.2-2.8 4.25q-1.75 0-3.05-.7V-7.8q1.3.75 3.05.75 2.1 0 3.55-1.05 1.4-.9 1.45-2.3" fill="url(#G)" fill-rule="evenodd" transform="translate(8.05 33.25)"/><path d="M10.25 20.05V36.9M.3 36.4.25 20.05M.3 36.4v.75m9.95-.25v.05q0 1.4-1.45 2.35-1.45.95-3.55.95-2.05 0-3.55-.95-1.3-.85-1.4-2.15l-.05-.25.05-.5M.25 20.05q0-.7.35-1.3l.05-.05.2-.3 1.1-3.65.9-4.7q.3-2.45.45-5.3L3.4.7h.1m.05 0h.05L5.2.25 6.9.7m.05 0L7 .65h.05v.1l.1 4 .45 5.35.9 4.65q.6 2.45 1.35 3.85l.2.35.2 1.1M3.7.75 5.15.9 6.7.75M6.8.7h.05m.1 0 .1.05m.55 9.35-2.35.35-2.4-.4" fill="none" stroke="#200" stroke-linecap="round" stroke-linejoin="round" stroke-width=".5"/><path d="M10.25 20.1q-.05 1.35-1.45 2.3-1.45.95-3.55.95-2.05 0-3.55-.95-1.4-.95-1.45-2.35m.6-1.65.85-.85q1.5-.95 3.55-.95 2.1 0 3.55.95l1.05 1.05" fill="none" stroke="#200" stroke-linecap="round" stroke-linejoin="round" stroke-opacity=".102" stroke-width=".5"/></g><g id="ad"><path d="m-7.2-14.85.85-.85q1.5-.95 3.55-.95 2.1 0 3.55.95l1.05 1.05.2.35.2 1.1v2.8Q2.15-9 .75-8.1-.7-7.05-2.8-7.05q-1.75 0-3.05-.75V3.55q1.3.7 3.05.7Q-.7 4.2.75 3.2l1.05-.9v-.05q.4-.6.4-1.3V3.7q0 1.4-1.45 2.35Q-.7 7-2.8 7q-2.05 0-3.55-.95-1.3-.85-1.4-2.15v-.75L-7.8-13.2q0-.7.35-1.3l.05-.05.2-.3m9.4 1.7q-.05 1.35-1.45 2.3-1.45.95-3.55.95-2.05 0-3.55-.95-1.4-.95-1.45-2.35.05 1.4 1.45 2.35 1.5.95 3.55.95 2.1 0 3.55-.95 1.4-.95 1.45-2.3" fill="#9e2506" fill-opacity=".502" fill-rule="evenodd" transform="translate(8.05 33.25)"/><path d="m-1.1-32.55.05-.05H-1v.1l-.1-.05" fill="url(#H)" fill-rule="evenodd" transform="translate(8.05 33.25)"/><path d="m-.45-23.15-2.35.35-2.4-.4q.3-2.45.45-5.3l.1-4.05h.2l.1.05 1.45.15 1.55-.15.1-.05h.15l.1.05.1 4 .45 5.35" fill="url(#I)" fill-rule="evenodd" transform="translate(8.05 33.25)"/><path d="M2.2-10.4V.95q0 .7-.4 1.3v.05l-1.05.9Q-.7 4.2-2.8 4.25q-1.75 0-3.05-.7V-7.8q1.3.75 3.05.75 2.1 0 3.55-1.05 1.4-.9 1.45-2.3" fill="url(#J)" fill-rule="evenodd" transform="translate(8.05 33.25)"/><path d="M10.25 20.1v-.05m0 .05v16.8M.3 36.4.25 20.05m.05 17.1v-.75m9.55-17.8q-.75-1.4-1.35-3.85-.55-2.1-.9-4.65l-2.35.35-2.4-.4-.9 4.7-1.1 3.65-.2.3-.05.05q-.35.6-.35 1.3m10 0-.2-1.1-.2-.35m.4 18.3v.05q0 1.4-1.45 2.35-1.45.95-3.55.95-2.05 0-3.55-.95-1.3-.85-1.4-2.15l-.05-.25.05-.5M3.7.75 5.15.9 6.7.75M6.8.7h.05m.05 0L5.2.25 3.6.7m-.75 9.35q.3-2.45.45-5.3L3.4.7h.1m.05 0h.05m3.35 0L7 .65h.05v.1l.1 4 .45 5.35M6.95.7l.1.05" fill="none" stroke="#200" stroke-linecap="round" stroke-linejoin="round" stroke-width=".5"/><path d="m.85 18.4.85-.85q1.5-.95 3.55-.95 2.1 0 3.55.95l1.05 1.05m-9.6 1.45q.05 1.4 1.45 2.35 1.5.95 3.55.95 2.1 0 3.55-.95 1.4-.95 1.45-2.3z" fill="none" stroke="#200" stroke-linecap="round" stroke-linejoin="round" stroke-opacity=".102" stroke-width=".5"/></g><g id="ae"><path d="m1.8-14.65.2.35.2 1.1v2.8Q2.15-9 .75-8.1-.7-7.05-2.8-7.05q-1.75 0-3.05-.75V3.55q1.3.7 3.05.7Q-.7 4.2.75 3.2l1.05-.9v-.05q.4-.6.4-1.3V3.7q0 1.4-1.45 2.35Q-.7 7-2.8 7q-2.05 0-3.55-.95-1.3-.85-1.4-2.15v-.75L-7.8-13.2q0-.7.35-1.3l.05-.05.2-.3.85-.85q1.5-.95 3.55-.95 2.1 0 3.55.95l1.05 1.05m-9.6 1.45q.05 1.4 1.45 2.35 1.5.95 3.55.95 2.1 0 3.55-.95 1.4-.95 1.45-2.3-.05 1.35-1.45 2.3-1.45.95-3.55.95-2.05 0-3.55-.95-1.4-.95-1.45-2.35" fill="#9e2506" fill-opacity=".502" fill-rule="evenodd" transform="translate(8.05 33.25)"/><path d="m-1.1-32.55.05-.05H-1v.1l-.1-.05" fill="url(#K)" fill-rule="evenodd" transform="translate(8.05 33.25)"/><path d="M-1.15-32.55h.05l.1.05-.15-.05" fill="url(#L)" fill-rule="evenodd" transform="translate(8.05 33.25)"/><path d="M2.2-10.4V.95q0 .7-.4 1.3v.05l-1.05.9Q-.7 4.2-2.8 4.25q-1.75 0-3.05-.7V-7.8q1.3.75 3.05.75 2.1 0 3.55-1.05 1.4-.9 1.45-2.3" fill="url(#M)" fill-rule="evenodd" transform="translate(8.05 33.25)"/><path d="M-5.2-23.2q.3-2.45.45-5.3l.1-4.05h.2l.1.05 1.45.15 1.55-.15.1-.05h.1l.15.05.1 4 .45 5.35-2.35.35-2.4-.4" fill="url(#N)" fill-rule="evenodd" transform="translate(8.05 33.25)"/><path d="M10.25 20.05V36.9M.3 36.4.25 20.05M.3 36.4v.75M9.85 18.6l.2.35.2 1.1m0 16.85v.05q0 1.4-1.45 2.35-1.45.95-3.55.95-2.05 0-3.55-.95-1.3-.85-1.4-2.15l-.05-.25.05-.5M.25 20.05q0-.7.35-1.3l.05-.05.2-.3 1.1-3.65.9-4.7q.3-2.45.45-5.3L3.4.7h.1m.05 0h.05L5.2.25 6.9.7m.05 0L7 .65h.05v.1l.1 4 .45 5.35.9 4.65q.6 2.45 1.35 3.85M3.7.75 5.15.9 6.7.75M6.8.7h.05m.2.05L6.95.7m.65 9.4-2.35.35-2.4-.4" fill="none" stroke="#200" stroke-linecap="round" stroke-linejoin="round" stroke-width=".5"/><path d="M9.85 18.6 8.8 17.55q-1.45-.95-3.55-.95-2.05 0-3.55.95l-.85.85m9.4 1.7q-.05 1.35-1.45 2.3-1.45.95-3.55.95-2.05 0-3.55-.95-1.4-.95-1.45-2.35" fill="none" stroke="#200" stroke-linecap="round" stroke-linejoin="round" stroke-opacity=".102" stroke-width=".5"/></g><g id="af"><path d="m4.35-19.2-1.1 1.5-.1.1h-.1l-.85-.2-7.6 4.6-.25-.45-6.25 3.9-1.5.95-1.35-1-.1-.05q2.9-3.3 7.65-5.95 5.3-3 9.8-3.35l1.75-.05m-7.6 9.95 1 .1 2-1.15.05.1.45.2q.3 0 .45-.2l.2-.5-.05-.25L5-13.35l.85.25q1.65-1.45 2.7-3.2.25 2.15-2.15 5.9-2.45 3.75-7.95 6.5t-9.8 3.05q-4.35.25-5.7-1.45l.45-.05 7.5-.25-.5-.45-.25-.75.75-1.7 6.05-3.4-.2-.35" fill="#fff" fill-rule="evenodd" transform="translate(19.85 22.65)"/><path d="M4.6-15.55Q6-16.7 6.9-18.6l.85-2.5-.85 2.5q-.9 1.9-2.3 3.05m.85-6.6 2.3 1.05 2.3 1q-.45 2.05-1.5 3.8t-2.7 3.2L5-13.35l-4.15 2.4-.15-.2-.45-.2-.45.2-.2.45.15.4-2 1.15-1-.1-2.15-3.95 2.15 3.95.2.35-6.05 3.4-.75 1.7.25.75.5.45-7.5.25-2.75.1 3.8-8 .7.4.1.05 1.35 1 1.5-.95 6.25-3.9.25.45 7.6-4.6.85.2h.1l.1-.1 1.1-1.5 1.1-2.95m-7 7.55-.45.2-.2.45.2.5.45.2q.3 0 .45-.2l.2-.5-.2-.45q-.15-.2-.45-.2" fill="#fcb6c4" fill-rule="evenodd" transform="translate(19.85 22.65)"/><path d="m-.25-10.3-.15-.4.2-.45.45-.2.45.2.15.2.05.25-.2.5q-.15.2-.45.2l-.45-.2-.05-.1m-1.3-4.3q.3 0 .45.2l.2.45-.2.5q-.15.2-.45.2l-.45-.2-.2-.5.2-.45.45-.2" fill-rule="evenodd" transform="translate(19.85 22.65)"/><path d="m7.75-21.1-.85 2.5q-.9 1.9-2.3 3.05m.85-6.6-1.1 2.95-1.1 1.5-.1.1h-.1m-8.45 4.4 2.15 3.95m9.1-3.85q1.65-1.45 2.7-3.2 1.05-1.75 1.5-3.8m-5.7.9-1.75.05q-4.5.35-9.8 3.35-4.75 2.65-7.65 5.95m2.95.1 6.25-3.9.25.45M-17.05-2.3q1.35 1.7 5.7 1.45 4.3-.3 9.8-3.05 5.5-2.75 7.95-6.5 2.4-3.75 2.15-5.9m-24.1 6.05-3.8 8 2.75-.1 7.5-.25m0-2.9 6.05-3.4-.2-.35" fill="none" stroke="#000" stroke-linecap="round" stroke-linejoin="round" transform="translate(19.85 22.65)"/></g><g id="o" transform="translate(15.2 13.15)"><use height="20.3" transform="translate(-14.6 -9.45)" width="28.5" xlink:href="#O"/><use height="22.1" transform="translate(-15.2 -13.15)" width="28.95" xlink:href="#P"/></g><g id="ag"><path d="M11.7-1.4q-2.9 4-8.4 7.15-5.5 3.2-10.4 3.7-4.85.55-6.25-1.85-1.4-2.45 1.5-6.4t8.4-7.1q5.5-3.2 10.4-3.75 4.85-.55 6.3 1.9 1.4 2.4-1.55 6.35" fill="#fff" fill-rule="evenodd" transform="translate(14.3 10.25)"/><path d="M11.7-1.4q-2.9 4-8.4 7.15-5.5 3.2-10.4 3.7-4.85.55-6.25-1.85-1.4-2.45 1.5-6.4t8.4-7.1q5.5-3.2 10.4-3.75 4.85-.55 6.3 1.9 1.4 2.4-1.55 6.35z" fill="none" stroke="#000" stroke-linecap="round" stroke-linejoin="round" transform="translate(14.3 10.25)"/></g><g id="ah"><path d="m11-13.6 2.3 1.05 2.3 1q-.9 4.1-4.2 7l-3.15 2.9-3 2-3 2-3 2-9.35 3.15 2.25-4.25h-4.5l3.75-3.7.05.05.25.65.7.3q.4 0 .65-.3.3-.25.3-.65l-.3-.7-.65-.25-.05-.05 2.15-2.1h.05l3-2 3-2 2.95-2h.1l5.2.35Q10.4-11 11-13.6M-2.45-5.5Q.6-4.55 1.6-2.35q1 2.15.65 4.7.35-2.55-.65-4.7-1-2.2-4.05-3.15M10.15-7q2.25-1.8 3.15-5.55Q12.4-8.8 10.15-7m-1.9 5.35q.35-2.55-.65-4.7-1-2.2-4-3.15 3 .95 4 3.15 1 2.15.65 4.7m-3 2q.35-2.55-.65-4.7-1-2.2-4.05-3.15 3.05.95 4.05 3.15 1 2.15.65 4.7m-6 4Q-.4 1.8-1.4-.35q-1-2.2-4.05-3.15 3.05.95 4.05 3.15 1 2.15.65 4.7" fill="#c9987a" fill-rule="evenodd" transform="translate(12.85 14.1)"/><path d="m-8.55-.5.25-.6.6-.25h.1l.65.25.3.7q0 .4-.3.65-.25.3-.65.3l-.7-.3-.25-.65v-.1" fill="#fff" fill-rule="evenodd" transform="translate(12.85 14.1)"/><path d="M15.6-11.55q-.9 4.1-4.2 7M-5.5-3.5h.05q3.05.95 4.05 3.15 1 2.15.65 4.7M3.5-9.5h.1q3 .95 4 3.15 1 2.15.65 4.7m.55-7.5Q10.4-11 11-13.6M.55-7.5q3.05.95 4.05 3.15 1 2.15.65 4.7m8.05-12.9Q12.4-8.8 10.15-7m-7.9 9.35Q2.6-.2 1.6-2.35q-1-2.2-4.05-3.15m-7.65 13 2.25-4.25h-4.5" fill="none" stroke="#000" stroke-linecap="round" stroke-linejoin="round" transform="translate(12.85 14.1)"/><path d="m4.3 13.6.25-.6.6-.25h.1m-.95.95v-.1m0 .1.25.65.7.3q.4 0 .65-.3.3-.25.3-.65l-.3-.7-.65-.25" fill="none" stroke="#000" stroke-linecap="round" stroke-linejoin="round" stroke-width=".5"/><path d="m4.25 13.65.05-.05m.85-.85.05-.05" fill="none" stroke="#000" stroke-linecap="round" stroke-linejoin="round" stroke-width=".25"/></g><g id="p"><path d="m12.65-14.8.1.15v.05l-.05.05-.1-.3.05.05.1.2-.1-.2" fill="#e3cfa8" fill-rule="evenodd" transform="translate(16.15 27.65)"/><path d="M8.75-12.75v4.8H8.4L7.55-8v-4.6l1.2-.15" fill="#fcf3c2" fill-rule="evenodd" transform="translate(16.15 27.65)"/><path d="m11.3-20.1.35 1.3-.35-1.3" fill="url(#Q)" fill-rule="evenodd" transform="translate(16.15 27.65)"/><path d="M10.2-24.25h.05l.7 2.7h-.05l-.7-2.7" fill="url(#R)" fill-rule="evenodd" transform="translate(16.15 27.65)"/><path d="m-1.85-16.5 1.9-7.85.05.15-1.95 7.7" fill="url(#S)" fill-rule="evenodd" transform="translate(16.15 27.65)"/><path d="M8.75-8.3h.6l1.45.15q.85.2.85.5-.1.2-.85.35l-1.45.15-.6.05H8.4l-.6-.05h-.35L6.7-7.3h-.1q-.85-.2-.9-.45.05-.25.85-.4h.15l.5-.1h.35V-8l.85.05h.35v-.35" fill="url(#T)" fill-rule="evenodd" transform="translate(16.15 27.65)"/><path d="M11.65-7.65v.05l-.75 4.5.1.2q0 .2-.7.35l-.15.05-.8.1H8.6l-1.75-.15q-.7-.15-.65-.35l-.5-4.7v-.15q.05.25.9.45h.1l.75.15h.35l.6.05h.35l.6-.05 1.45-.15q.75-.15.85-.35" fill="url(#U)" fill-rule="evenodd" transform="translate(16.15 27.65)"/><path d="m-16.1 6.2.1.05-.1-.05" fill="url(#V)" fill-rule="evenodd" transform="translate(16.15 27.65)"/><path d="M.55-26.1q.05.5 1.35.9l3.25.4.65-.05 2.6-.35q1.3-.4 1.35-.9l.45 1.85.7 2.7.4 1.45.35 1.3 1 4-.05-.05.1.3q-.15.85-2.2 1.45l-.35.1-1.4.25-1.2.15-1.75.1H5l-5.15-.6q-1.55-.45-1.95-1.1l-.15-.5.4-1.8L.1-24.2l.45-1.9" fill="url(#W)" fill-rule="evenodd" transform="translate(16.15 27.65)"/><path d="m.55-26.1.05-.1.05-.1L1.9-27l3.25-.35h.65l2.6.35q1.05.3 1.25.7l.05.1.05.05v.05q-.05.5-1.35.9l-2.6.35-.65.05-3.25-.4q-1.3-.4-1.35-.9" fill="url(#X)" fill-rule="evenodd" transform="translate(16.15 27.65)"/><path d="M25.9 1.55V1.5l-.05-.05-.05-.1q-.2-.4-1.25-.7L21.95.3h-.65l-3.25.35-1.25.7-.05.1-.05.1m9.2 0 .45 1.85.7 2.7.4 1.45m.35 1.3 1 4m.05.25q-.15.85-2.2 1.45l-.35.1-1.4.25m-1.2.15-1.75.1h-.8l-5.15-.6q-1.55-.45-1.95-1.1l-.15-.5.4-1.8m1.95-7.7.45-1.9m11.1 7.3-.35-1.3m1.45 5.5-.1-.2m-5.1 2.2 1.2-.15M16.25 3.45l-1.95 7.7" fill="none" stroke="#000" stroke-linecap="round" stroke-linejoin="round" stroke-width=".5"/><path d="M24.9 14.9v4.45h.6l1.45.15q.85.2.85.5v.05l-.75 4.5.1.2q0 .2-.7.35l-.15.05m-2.95-5.75h.35v-4.35m0 4.6v-.25m1.2-.05v.35" fill="none" stroke="#333" stroke-linecap="round" stroke-linejoin="round" stroke-width=".5"/><path d="M21.85 19.9q.05.25.9.45h.1l.75.15h.35l.6.05h.35l.6-.05 1.45-.15q.75-.15.85-.35m-2.9-.3h-.35l-.85-.05" fill="none" stroke="#333" stroke-linecap="round" stroke-linejoin="round" stroke-opacity=".2" stroke-width=".5"/><path d="M16.7 1.55q.05.5 1.35.9l3.25.4.65-.05 2.6-.35q1.3-.4 1.35-.9" fill="none" stroke="#000" stroke-linecap="round" stroke-linejoin="round" stroke-opacity=".094" stroke-width=".5"/><path d="m26.3 25.15-.8.1h-.75L23 25.1q-.7-.15-.65-.35l-.5-4.7m0-.15q.05-.25.85-.4h.15l.5-.1" fill="none" stroke="#333" stroke-linecap="round" stroke-linejoin="round" stroke-width=".5"/></g><use height="57.2" width="101.2" xlink:href="#Y" id="aj"/><use height="41.1" width="70.8" xlink:href="#Z" id="h"/><use height="37.4" width="24.45" xlink:href="#aa" id="i"/><use height="40.5" width="10.5" xlink:href="#ab" id="j"/><use height="7.5" transform="translate(-.2 5.65) scale(.0059)" width="9.65" xlink:href="#ac" id="D"/><use height="40.5" width="10.5" xlink:href="#ad" id="l"/><use height="40.5" width="10.5" xlink:href="#ae" id="m"/><use height="22.35" width="30.4" xlink:href="#af" id="n"/><use height="20.3" width="28.5" xlink:href="#ag" id="O"/><use height="22.1" width="28.95" xlink:href="#ah" id="P"/><path d="m-42.65-.55 39.5-19.9 30 15.1L-6 11.1v.15l-6.3 3.15.05.05-39.6 19.85.05.05-39.65 19.9.2.15-39.6 19.85.05.05-39.65 19.9-39.75 19.95.1.05-39.8 19.95-29.9-15.05 39.7-19.95-.05-.05 39.7-20 .1.05 39.55-19.95h.05l39.4-19.85-.15-.1 39.7-20h.05l35.75-18V1.1l3.3-1.65h.05" fill-opacity=".2" fill-rule="evenodd" transform="translate(279.8 20.45)" id="g"/><path d="M316-424v24h376q24-8 0-28l-64-48-52 52H316M544 0v-240h328q24-8 0-28l-64-48-52 52H128v24h364v224q0 28-28 28h-80q-16 8 0 16l52 8q24 8 24 28t16 20q24 0 40-16 28-24 28-68m68-648h352q24-8 0-28l-76-56-60 60H444q24-52 52-120 68 0 28-28l-80-32q-28 104-60 180H80v24h296Q304-452 36-280q-12 16 8 16 280-128 392-384h156q136 232 328 332 8-32 72-48-224-68-380-284M336-140q68 4 32-24l-60-44Q212-64 52 44q-12 16 8 16Q208-8 336-140M900-28q0-48-100-100-80-40-156-56-16 0-8 12 108 48 196 148 24 36 44 36 24 0 24-40" fill-rule="evenodd" id="ac"/><path d="m21 1.7 9.7 18.8q-4.2 1.8-9.55 2.4l-5.4.25q-9.15 0-15.75-2.7v-.2L13.9 0q.4.65 1.95 1.1l5.15.6" fill="url(#ai)" fill-rule="evenodd" id="q"/></defs><g transform="matrix(-1 0 0 1 28.2 104.824)"><use height="57.2" transform="matrix(.7624 -.3831 0 1.0012 -168.792 -52.649)" width="101.2" xlink:href="#aj"/><use height="239" transform="matrix(1 0 0 1.0002 -279.8 -104.87)" width="308" xlink:href="#ak"/></g><path d="m-16.1-48.8.1.05-.1-.05" fill="url(#al)" fill-rule="evenodd" transform="translate(108.183 144.75)"/><path d="M31.7-11.7Q14.9 3.4-6.6 1.4-17.15.55-25.9-4.25L-9.25-109.3q5.3-1.4 10.35-1.4l34.75 94.9-4.15 4.1" fill="url(#am)" fill-rule="evenodd" transform="translate(108.183 144.75)"/><path d="m109.683 35-.1-.15.05.05.05.1-.05-.1.1.05-.05.05" fill="#e3cfa8" fill-rule="evenodd"/><path d="m1.45-109.85-.05-.05.1.15q.15.75-1.2 1.6l-.25.2-.9.5-.9.3-1.2.5-.4.05-.15.1-3.9.55q-1.15-.05-1.6-.5l-.2-.4-.1-1.55-.4-6.5-.05-1.6q.1.35 1.15.45l2.35-.35.45-.2q1.05-.35 1.8-.8.9-.55.8-1l4.65 8.55" fill="url(#an)" fill-rule="evenodd" transform="translate(108.183 144.75)"/><path d="M-3.2-118.4q.1.45-.8 1-.75.45-1.8.8l-.45.2-2.35.35q-1.05-.1-1.15-.45v-.2l.75-.75q.9-.65 2.25-1l.4-.15 1.95-.15q.8-.05 1.1.25l.1.1" fill="url(#ao)" fill-rule="evenodd" transform="translate(108.183 144.75)"/><path d="m-9.7-114.9.4 6.5-.05.05-.4-6.65.05.1" fill="url(#ap)" fill-rule="evenodd" transform="translate(108.183 144.75)"/><path d="m109.633 34.9-4.65-8.55-.1-.1q-.3-.3-1.1-.25l-1.95.15-.4.15q-1.35.35-2.25 1l-.75.75v.2l.05 1.6.4 6.5.1 1.55.2.4q.45.45 1.6.5l3.9-.55.15-.1.4-.05 1.2-.5.9-.3.9-.5.25-.2q1.35-.85 1.2-1.6l-.05-.1" fill="none" stroke="#000" stroke-linecap="round" stroke-linejoin="round" stroke-width=".5"/><path d="M104.983 26.35q.1.45-.8 1-.75.45-1.8.8l-.45.2-2.35.35q-1.05-.1-1.15-.45" fill="none" stroke="#000" stroke-linecap="round" stroke-linejoin="round" stroke-opacity=".102" stroke-width=".5"/><path d="m-1.6-127.6.7.95-6.65 3.55 1.55 5.35-1.25.35-1.75-6.3 7.4-3.9" fill="url(#aq)" fill-rule="evenodd" transform="translate(108.183 144.75)"/><path d="m106.583 17.15-7.4 3.9 1.75 6.3 1.25-.35-1.55-5.35 6.65-3.55z" fill="none" stroke="#2f0202" stroke-linecap="round" stroke-linejoin="round" stroke-width=".5"/><path d="m-16.1-48.8.1.05-.1-.05" fill="url(#ar)" fill-rule="evenodd" transform="translate(188.194 184.692)"/><path d="M31.7-11.7Q14.9 3.4-6.6 1.4-17.15.55-25.9-4.25L-9.25-109.3q5.3-1.4 10.35-1.4l34.75 94.9-4.15 4.1" fill="url(#as)" fill-rule="evenodd" transform="translate(188.194 184.692)"/><path d="m189.694 74.942-.1-.15.05.05.05.1-.05-.1.1.05-.05.05" fill="#e3cfa8" fill-rule="evenodd"/><path d="m1.45-109.85-.05-.05.1.15q.15.75-1.2 1.6l-.25.2-.9.5-.9.3-1.2.5-.4.05-.15.1-3.9.55q-1.15-.05-1.6-.5l-.2-.4-.1-1.55-.4-6.5-.05-1.6q.1.35 1.15.45l2.35-.35.45-.2q1.05-.35 1.8-.8.9-.55.8-1l4.65 8.55" fill="url(#at)" fill-rule="evenodd" transform="translate(188.194 184.692)"/><path d="M-3.2-118.4q.1.45-.8 1-.75.45-1.8.8l-.45.2-2.35.35q-1.05-.1-1.15-.45v-.2l.75-.75q.9-.65 2.25-1l.4-.15 1.95-.15q.8-.05 1.1.25l.1.1" fill="url(#au)" fill-rule="evenodd" transform="translate(188.194 184.692)"/><path d="m-9.7-114.9.4 6.5-.05.05-.4-6.65.05.1" fill="url(#av)" fill-rule="evenodd" transform="translate(188.194 184.692)"/><path d="m189.644 74.842-4.65-8.55-.1-.1q-.3-.3-1.1-.25l-1.95.15-.4.15q-1.35.35-2.25 1l-.75.75v.2l.05 1.6.4 6.5.1 1.55.2.4q.45.45 1.6.5l3.9-.55.15-.1.4-.05 1.2-.5.9-.3.9-.5.25-.2q1.35-.85 1.2-1.6l-.05-.1" fill="none" stroke="#000" stroke-linecap="round" stroke-linejoin="round" stroke-width=".5"/><path d="M184.994 66.292q.1.45-.8 1-.75.45-1.8.8l-.45.2-2.35.35q-1.05-.1-1.15-.45" fill="none" stroke="#000" stroke-linecap="round" stroke-linejoin="round" stroke-opacity=".102" stroke-width=".5"/><path d="m-1.6-127.6.7.95-6.65 3.55 1.55 5.35-1.25.35-1.75-6.3 7.4-3.9" fill="url(#aw)" fill-rule="evenodd" transform="translate(188.194 184.692)"/><path d="m186.594 57.092-7.4 3.9 1.75 6.3 1.25-.35-1.55-5.35 6.65-3.55z" fill="none" stroke="#2f0202" stroke-linecap="round" stroke-linejoin="round" stroke-width=".5"/><path d="m-16.1-48.8.1.05-.1-.05" fill="url(#ax)" fill-rule="evenodd" transform="translate(268.23 224.722)"/><path d="M31.7-11.7Q14.9 3.4-6.6 1.4-17.15.55-25.9-4.25L-9.25-109.3q5.3-1.4 10.35-1.4l34.75 94.9-4.15 4.1" fill="url(#ay)" fill-rule="evenodd" transform="translate(268.23 224.722)"/><path d="m269.73 114.972-.1-.15.05.05.05.1-.05-.1.1.05-.05.05" fill="#e3cfa8" fill-rule="evenodd"/><path d="m1.45-109.85-.05-.05.1.15q.15.75-1.2 1.6l-.25.2-.9.5-.9.3-1.2.5-.4.05-.15.1-3.9.55q-1.15-.05-1.6-.5l-.2-.4-.1-1.55-.4-6.5-.05-1.6q.1.35 1.15.45l2.35-.35.45-.2q1.05-.35 1.8-.8.9-.55.8-1l4.65 8.55" fill="url(#az)" fill-rule="evenodd" transform="translate(268.23 224.722)"/><path d="M-3.2-118.4q.1.45-.8 1-.75.45-1.8.8l-.45.2-2.35.35q-1.05-.1-1.15-.45v-.2l.75-.75q.9-.65 2.25-1l.4-.15 1.95-.15q.8-.05 1.1.25l.1.1" fill="url(#aA)" fill-rule="evenodd" transform="translate(268.23 224.722)"/><path d="m-9.7-114.9.4 6.5-.05.05-.4-6.65.05.1" fill="url(#aB)" fill-rule="evenodd" transform="translate(268.23 224.722)"/><path d="m269.68 114.872-4.65-8.55-.1-.1q-.3-.3-1.1-.25l-1.95.15-.4.15q-1.35.35-2.25 1l-.75.75v.2l.05 1.6.4 6.5.1 1.55.2.4q.45.45 1.6.5l3.9-.55.15-.1.4-.05 1.2-.5.9-.3.9-.5.25-.2q1.35-.85 1.2-1.6l-.05-.1" fill="none" stroke="#000" stroke-linecap="round" stroke-linejoin="round" stroke-width=".5"/><path d="M265.03 106.322q.1.45-.8 1-.75.45-1.8.8l-.45.2-2.35.35q-1.05-.1-1.15-.45" fill="none" stroke="#000" stroke-linecap="round" stroke-linejoin="round" stroke-opacity=".102" stroke-width=".5"/><path d="m-1.6-127.6.7.95-6.65 3.55 1.55 5.35-1.25.35-1.75-6.3 7.4-3.9" fill="url(#aC)" fill-rule="evenodd" transform="translate(268.23 224.722)"/><path d="m266.63 97.122-7.4 3.9 1.75 6.3 1.25-.35-1.55-5.35 6.65-3.55z" fill="none" stroke="#2f0202" stroke-linecap="round" stroke-linejoin="round" stroke-width=".5"/></svg>