<svg xmlns="http://www.w3.org/2000/svg" height="182" width="160"><g transform="translate(6.47 3.904)" style="clip-rule:evenodd;fill-rule:evenodd;stroke-linecap:round;stroke-linejoin:round;stroke-miterlimit:1.5"><path d="M84.826 78.591s-7.106-5.409-19.94-4.773c0 0-20.363 8.591-11.772 43.061l2.45 7.022 2.648 13.824 9.781-1.377s2.094-2.99-.397-4.072c-2.826-1.227-4.18-3.806-2.828-7.856l10.783-.014 6.371 5.8s7.334 6.342 8.501 3.054c0 0 6.414-7.067 5.013-9.211-1.021-1.562-3.344.822-6.463 1.099 0 0-3.837.259-3.884-3.976 0 0 24.237.055 27.843-5.142 0 0 3.394-6.363 4.136-11.56 0 0-2.333-9.758-6.576-11.879l-20.787-9.546Z" style="fill:#fff"/><ellipse cx="111.182" cy="103.515" rx="3.553" ry="2.864" style="stroke:#000;stroke-width:1.37px"/><path d="M85.712 124.937s-.384 11.52 3.2 12.608c6.567 1.994 10.048-1.6 10.048-1.6s.32-2.624-5.312-3.584l.256-7.424" style="fill:none;stroke:#000;stroke-width:2.5px" transform="translate(-29.619 -1.267)"/><path d="M85.712 124.937s-.384 11.52 3.2 12.608c6.567 1.994 10.048-1.6 10.048-1.6s.32-2.624-5.312-3.584l.256-7.424" style="fill:none;stroke:#000;stroke-width:2.5px" transform="rotate(-48.784 84.215 134.002)"/><path d="M57.674 92.167s-3.288 17.394 5.091 19.303c0 0 8.697.848 5.621-20.046" style="fill:none;stroke:#000;stroke-width:2.5px"/><path d="M110.917 106.379s0 9.545 3.606 3.5" style="fill:none;stroke:#000;stroke-width:1.37px"/><path d="M111.129 106.485s-.106 6.257-2.864 5.727c0 0-3.818.636-4.879-2.651" style="fill:none;stroke:#000;stroke-width:1.37px"/><circle cx="73.955" cy="87.235" r="1.962" style="stroke:#000;stroke-width:1.66px" transform="translate(13.647 14.98) scale(.82432)"/><circle cx="73.955" cy="87.235" r="1.962" style="stroke:#000;stroke-width:1.66px" transform="translate(27.647 12.98) scale(.82432)"/><path d="M54.386 84.212s4.455-11.136 16.546-11.773c0 0 8.166 0 15.485 7.319" style="fill:none;stroke:#000;stroke-width:2.5px"/></g></svg>