<?xml version="1.0" encoding="UTF-8" standalone="no"?><!DOCTYPE svg PUBLIC "-//W3C//DTD SVG 1.1//EN" "http://www.w3.org/Graphics/SVG/1.1/DTD/svg11.dtd"><svg width="160px" height="182px" version="1.1" xmlns="http://www.w3.org/2000/svg" xmlns:xlink="http://www.w3.org/1999/xlink" xml:space="preserve" xmlns:serif="http://www.serif.com/" style="fill-rule:evenodd;clip-rule:evenodd;stroke-linejoin:round;stroke-miterlimit:1.5;"><path d="M49.407,112.89L62.543,112.91L51.188,103.114L49.407,112.89Z" style="fill:rgb(51,43,30);stroke:black;stroke-width:2px;"/><g><g id="b"><path d="M80.141,22L87.941,22L90.341,23.1L98.041,5.9L105.741,23.1L108.241,22L114.541,28.1L116.841,30.3L116.041,31.1L116.241,31.3C119.041,34.033 120.608,37.067 120.941,40.4L120.941,41.6C120.941,43.8 120.408,45.867 119.341,47.8L118.841,48.7L116.041,52.1L116.241,52.3L115.641,52.9L109.141,54.7L109.141,64.1L102.641,65.5L96.441,67.3L97.741,70.5L104.341,68C106.608,67.2 108.608,66.8 110.341,66.8C112.408,66.8 113.841,67.2 114.641,68C115.708,69.067 116.241,70.4 116.241,72C116.241,73.467 115.741,74.7 114.741,75.7C113.341,77.1 110.641,77.933 106.641,78.2L104.041,78.3L104.741,81.3L107.741,81.2L107.641,86.7L104.641,89.2L104.641,113.7L102.941,122.9L99.941,122.9L99.941,136C99.941,136.933 99.641,137.7 99.041,138.3C98.308,139.033 97.241,139.4 95.841,139.4C94.374,139.4 93.274,139.033 92.541,138.3C92.008,137.7 91.741,136.933 91.741,136L91.741,122.9L88.641,122.9L84.076,112.992L80,113.059L74.819,122.94L73.341,136C73.341,136.933 73.041,137.7 72.441,138.3C71.708,139.033 70.641,139.4 69.241,139.4C67.774,139.4 66.674,139.033 65.941,138.3C65.408,137.7 65.141,136.933 65.141,136L65.141,122.9L62.041,122.9L55.141,105.1L56.041,104.3C57.041,103.5 57.941,102.467 58.741,101.2L56.241,99.2L54.841,101.1L55.641,79.2L59.141,53.6L59.941,54.3L61.441,52.9L59.441,50.7C57.441,48.167 56.441,45.4 56.441,42.4L56.641,40.4C57.108,37.333 58.708,34.5 61.441,31.9L59.941,30.4L60.941,22.5L62.241,23.1L69.941,5.9L77.641,23.1L80.141,22" style="fill:white;"/><path d="M87.941,22L98.041,0L108.241,22L105.741,23.1L98.041,5.9L90.341,23.1L87.941,22M116.841,30.3L117.441,29.6C120.841,32.733 122.741,36.333 123.141,40.4L123.141,41.6C123.141,44.133 122.508,46.5 121.241,48.7C120.308,50.367 119.041,51.967 117.441,53.5L116.041,52.1L118.841,48.7L119.341,47.8C120.408,45.867 120.941,43.8 120.941,41.6L120.941,40.4C120.608,37.067 119.041,34.033 116.241,31.3L116.041,31.1L116.841,30.3M109.141,64.1L110.641,64C113.574,64 115.741,64.7 117.141,66.1C118.608,67.5 119.341,69.4 119.341,71.8C119.341,74.267 118.674,76.167 117.341,77.5L116.541,78.2C114.474,79.8 111.541,80.8 107.741,81.2L104.741,81.3L104.041,78.3L106.641,78.2C110.641,77.933 113.341,77.1 114.741,75.7C115.741,74.7 116.241,73.467 116.241,72C116.241,70.4 115.708,69.067 114.641,68C113.841,67.2 112.408,66.8 110.341,66.8C108.608,66.8 106.608,67.2 104.341,68L97.741,70.5L96.441,67.3L102.641,65.5L109.141,64.1M102.941,122.9L102.941,136.1C102.941,137.767 102.408,139.133 101.341,140.2C100.141,141.4 98.308,142 95.841,142C93.308,142 91.441,141.4 90.241,140.2C89.174,139.133 88.641,137.767 88.641,136.1L88.641,122.9L91.741,122.9L91.741,136C91.741,136.933 92.008,137.7 92.541,138.3C93.274,139.033 94.374,139.4 95.841,139.4C97.241,139.4 98.308,139.033 99.041,138.3C99.641,137.7 99.941,136.933 99.941,136L99.941,122.9L102.941,122.9M73.341,122.9L76.341,122.9L76.341,136.1C76.341,137.767 75.808,139.133 74.741,140.2C73.541,141.4 71.708,142 69.241,142C66.708,142 64.841,141.4 63.641,140.2C62.574,139.133 62.041,137.767 62.041,136.1L62.041,122.9L65.141,122.9L65.141,136C65.141,136.933 65.408,137.7 65.941,138.3C66.674,139.033 67.774,139.4 69.241,139.4C70.641,139.4 71.708,139.033 72.441,138.3C73.041,137.7 73.341,136.933 73.341,136L73.341,122.9M59.141,53.6L57.941,52.2C55.541,49.267 54.341,46 54.341,42.4L54.541,40.4C54.941,36.667 56.741,33.333 59.941,30.4L61.441,31.9C58.708,34.5 57.108,37.333 56.641,40.4L56.441,42.4C56.441,45.4 57.441,48.167 59.441,50.7L61.441,52.9L59.941,54.3L59.141,53.6M60.941,22.5L59.841,22L69.941,0L80.141,22L77.641,23.1L69.941,5.9L62.241,23.1L60.941,22.5" style="fill:rgb(51,51,51);"/><path d="M80.141,22L87.941,22M114.541,28.1L116.841,30.3M104.641,89.2L104.641,113.7" style="fill:none;fill-rule:nonzero;stroke:rgb(51,51,51);stroke-width:2px;stroke-linecap:round;stroke-miterlimit:4;"/></g><path id="a" d="M108.146,41.6L104.141,45.6L107.845,49.2M104.141,45.6L104.141,45.5L104.141,50.5M104.141,45.6L100.437,49.2M100.136,41.6L104.141,45.5L104.141,39.6" style="fill:none;fill-rule:nonzero;stroke:rgb(254,165,192);stroke-width:2px;stroke-linecap:round;stroke-miterlimit:4;"/></g><path d="M82.417,40.815C82.417,40.815 84.384,45.863 84.384,48.027C84.384,49.113 83.502,49.994 82.417,49.994C81.331,49.994 80.45,49.113 80.45,48.027C80.45,45.863 82.417,40.815 82.417,40.815Z" style="fill:rgb(231,232,232);"/><path d="M66.973,26.917C66.973,26.917 68.94,31.966 68.94,34.13C68.94,35.215 68.059,36.097 66.973,36.097C65.888,36.097 65.006,35.215 65.006,34.13C65.006,31.966 66.973,26.917 66.973,26.917Z" style="fill:rgb(231,232,232);"/><path d="M66.135,111.615C66.135,111.615 68.102,116.664 68.102,118.827C68.102,119.913 67.22,120.794 66.135,120.794C65.049,120.794 64.168,119.913 64.168,118.827C64.168,116.664 66.135,111.615 66.135,111.615Z" style="fill:rgb(231,232,232);"/><path d="M97.141,27.282C97.141,27.282 99.108,32.331 99.108,34.495C99.108,35.58 98.227,36.462 97.141,36.462C96.055,36.462 95.174,35.58 95.174,34.495C95.174,32.331 97.141,27.282 97.141,27.282Z" style="fill:rgb(231,232,232);"/><path d="M94.964,118.528C94.964,118.528 96.931,123.577 96.931,125.741C96.931,126.826 96.05,127.708 94.964,127.708C93.879,127.708 92.997,126.826 92.997,125.741C92.997,123.577 94.964,118.528 94.964,118.528Z" style="fill:rgb(231,232,232);"/><path d="M121.87,112.999L62.543,112.91C49.672,107.368 51.761,94.185 49.407,112.89L44.192,112.882L56.441,86.175L106.485,86.175L121.87,112.999Z" style="fill:rgb(88,74,52);stroke:black;stroke-width:2px;stroke-linecap:round;"/><path d="M37.576,104.715C39.124,101.579 41.376,99.951 44.832,100.903L49.023,103.458C49.817,103.814 50.585,104.058 51.32,104.157" style="fill:none;stroke:black;stroke-width:3px;"/><path d="M62.486,86.175L52.443,102.36C53.3,105.945 55.498,108.477 59.07,110.751L68.32,86.175L73.986,86.175L68.986,112.999L77.486,112.999L80,86.175L85.761,86.175L85.761,112.999L95.153,112.999L91.32,86.175L96.922,86.175L104.486,112.999L113.32,112.999L102.32,86.175" style="fill:none;stroke:rgb(76,59,32);stroke-width:2px;stroke-linecap:round;"/><path d="M58.959,52.541C59.834,67.311 57.382,76.814 54.841,86.175L111.05,86.281C109.583,81.263 109.076,73.527 109.297,63.73L104.063,54.3L96.829,52.541L58.959,52.541Z" style="fill:rgb(212,201,188);stroke:black;stroke-width:2px;stroke-linecap:round;"/><path d="M59.07,52.541L60.982,66.474L93.822,66.615L96.541,52.541L59.07,52.541Z" style="fill:rgb(176,131,75);stroke:black;stroke-width:2px;stroke-linecap:round;"/><path d="M62.808,53.363L64.308,63.5L90.383,63.5L92.116,53.471" style="fill:none;stroke:rgb(246,241,237);stroke-width:2px;"/><path d="M104.141,53.822L96.829,52.541C101.311,55.106 105.47,58.75 109.297,63.5L104.141,53.822Z" style="fill:rgb(176,131,75);stroke:black;stroke-width:2px;stroke-linecap:round;"/><circle id="gikopoipoi_eyes_open" cx="111.054" cy="31.6" r="2.266" style="fill:none;stroke:black;stroke-width:1.5px;"/><path d="M107.798 31.7h6.3" stroke-width="3" id="gikopoipoi_eyes_closed" style="display:none" fill="none" stroke="#000" stroke-linecap="round" stroke-linejoin="round"/></svg>