<?xml version="1.0" encoding="UTF-8" standalone="no"?><!DOCTYPE svg PUBLIC "-//W3C//DTD SVG 1.1//EN" "http://www.w3.org/Graphics/SVG/1.1/DTD/svg11.dtd"><svg width="160px" height="182px" version="1.1" xmlns="http://www.w3.org/2000/svg" xmlns:xlink="http://www.w3.org/1999/xlink" xml:space="preserve" xmlns:serif="http://www.serif.com/" style="fill-rule:evenodd;clip-rule:evenodd;stroke-linecap:round;stroke-linejoin:round;"><g><g id="e"><path id="a" d="M105.341,40L86.341,40L84.141,38" style="fill:none;fill-rule:nonzero;stroke:rgb(51,51,51);stroke-width:2px;"/><path id="c" d="M70.941,40.6L66.941,44.6L70.641,48.2M66.941,44.6L66.941,44.5L66.941,49.5M66.941,44.6L63.241,48.2M62.941,40.6L66.941,44.5L66.941,38.6" style="fill:none;fill-rule:nonzero;stroke:rgb(254,165,192);stroke-width:2px;"/></g><g><path d="M87.941,22L90.341,23.1L98.041,5.9L105.841,23.1L108.341,22L114.641,28.1L116.841,30.3L116.141,31.1L116.341,31.3C119.141,34.034 120.675,37.066 120.941,40.4L121.041,41.6C121.041,43.8 120.507,45.866 119.441,47.8L118.941,48.7L116.141,52.1L116.341,52.3L115.741,52.9L109.241,54.7L107.741,86.7L104.741,89.2L104.741,113.7L103.041,122.9L99.941,122.9L99.941,136C99.941,136.934 99.641,137.7 99.041,138.3C98.307,139.034 97.241,139.4 95.841,139.4C94.375,139.4 93.275,139.034 92.541,138.3C92.007,137.7 91.741,136.934 91.741,136L90.148,122.98C90.148,122.98 87.841,117.6 87.841,115.8L87.841,115.3C87.775,113.034 87.175,111.334 86.041,110.2C84.975,109.134 83.607,108.6 81.941,108.6L68.741,108.6L68.741,111.7L81.841,111.7C82.775,111.7 83.541,111.966 84.141,112.5C84.807,113.166 85.175,114.2 85.241,115.6L84.941,117.4L85.041,117.4L84.941,117.9L84.141,119C83.541,119.6 82.775,119.9 81.841,119.9L68.741,119.9L68.741,122.9L65.141,123L65.141,122.9L62.041,122.9L58.641,120.7L55.141,112.9L55.141,105.1L54.841,101.1L55.641,79.2L59.141,53.6L59.941,54.3L61.441,52.9L59.441,50.7C57.507,48.234 56.507,45.566 56.441,42.7L56.441,42.2L56.541,40.4C57.007,37.334 58.641,34.5 61.441,31.9L59.941,30.4L60.941,22.5L62.241,23.1L69.941,5.9L77.641,23.1L80.141,22L87.941,22" style="fill:white;"/><path d="M87.941,22L80.141,22M116.841,30.3L114.641,28.1" style="fill:none;fill-rule:nonzero;stroke:rgb(51,51,51);stroke-width:2px;"/><path d="M108.341,22L105.841,23.1L98.041,5.9L90.341,23.1L87.941,22L98.041,0L108.341,22M80.141,22L77.641,23.1L69.941,5.9L62.241,23.1L60.941,22.5L59.841,22L69.941,0L80.141,22M59.941,30.4L61.441,31.9C58.641,34.5 57.007,37.334 56.541,40.4L56.441,42.2L56.441,42.7C56.507,45.566 57.507,48.234 59.441,50.7L61.441,52.9L59.941,54.3L59.141,53.6L57.941,52.2L56.441,50.1C54.984,47.803 54.252,45.119 54.341,42.4L54.441,40.4C54.707,38.4 55.375,36.5 56.441,34.7L59.941,30.4M51.941,106C50.675,106 48.907,105.266 46.641,103.8C45.041,102.934 43.775,102.5 42.841,102.5C41.641,102.5 40.775,102.866 40.241,103.6L39.941,104L39.041,105.5L36.341,104C36.877,102.73 37.698,101.601 38.741,100.7L39.941,99.8L42.641,99.1C44.107,99.1 45.607,99.634 47.141,100.7C49.341,101.834 51.041,102.4 52.241,102.4M68.741,122.9L68.741,119.9L81.841,119.9C82.775,119.9 83.541,119.6 84.141,119L84.941,117.9L85.041,117.4L85.241,115.8L85.241,115.6C85.175,114.2 84.807,113.166 84.141,112.5C83.541,111.966 82.775,111.7 81.841,111.7L68.741,111.7L68.741,108.6L81.941,108.6C83.607,108.6 84.975,109.134 86.041,110.2C87.175,111.334 87.775,113.034 87.841,115.3L87.841,115.8C87.841,117.6 87.507,119.1 86.841,120.3L86.741,120.5L86.041,121.3C85.041,122.366 83.741,122.9 82.141,122.9L68.741,122.9M88.641,122.9L91.741,122.9L91.741,136C91.741,136.934 92.007,137.7 92.541,138.3C93.275,139.034 94.375,139.4 95.841,139.4C97.241,139.4 98.307,139.034 99.041,138.3C99.641,137.7 99.941,136.934 99.941,136L99.941,122.9L103.041,122.9L103.041,136.1C103.041,137.766 102.507,139.134 101.441,140.2C100.175,141.4 98.307,142 95.841,142C93.307,142 91.441,141.4 90.241,140.2C89.175,139.134 88.641,137.766 88.641,136.1L88.641,122.9M116.341,52.3L116.141,52.1L118.941,48.7L119.441,47.8C120.507,45.866 121.041,43.8 121.041,41.6L120.941,40.4C120.675,37.066 119.141,34.034 116.341,31.3L116.141,31.1L116.841,30.3L116.941,30.3L117.541,29.6C120.941,32.734 122.775,36.334 123.041,40.4L123.141,41.6C123.141,44.134 122.541,46.5 121.341,48.7C120.407,50.366 119.141,51.966 117.541,53.5L116.341,52.3" style="fill:rgb(51,51,51);"/><g id="d"><path id="a1" serif:id="a" d="M70.626,40.6L66.621,44.6L70.325,48.2M66.621,44.6L66.621,44.5L66.621,49.5M66.621,44.6L62.917,48.2M62.616,40.6L66.621,44.5L66.621,38.6" style="fill:none;fill-rule:nonzero;stroke:rgb(254,165,192);stroke-width:2px;"/></g></g><path id="b" d="M105.067,40L86.044,40L83.842,38" style="fill:none;fill-rule:nonzero;stroke:rgb(51,51,51);stroke-width:2px;"/><path d="M48.499,117.192C48.499,117.192 48.146,122.599 47.231,124.559C46.772,125.543 45.6,125.969 44.616,125.51C43.633,125.05 43.207,123.879 43.666,122.895C44.581,120.935 48.499,117.192 48.499,117.192Z" style="fill:rgb(231,232,232);"/><path d="M42.636,23.434C42.636,23.434 40.09,28.217 38.449,29.627C37.626,30.335 36.383,30.241 35.675,29.418C34.968,28.594 35.061,27.351 35.885,26.644C37.526,25.233 42.636,23.434 42.636,23.434Z" style="fill:rgb(231,232,232);"/><path d="M41.922,46.405C41.922,46.405 38.635,50.712 36.787,51.838C35.86,52.403 34.649,52.109 34.084,51.182C33.519,50.255 33.813,49.044 34.74,48.479C36.587,47.353 41.922,46.405 41.922,46.405Z" style="fill:rgb(231,232,232);"/><path d="M63.252,6.827C63.252,6.827 57.967,8.024 55.827,7.704C54.754,7.543 54.013,6.541 54.174,5.467C54.334,4.393 55.337,3.652 56.41,3.813C58.55,4.134 63.252,6.827 63.252,6.827Z" style="fill:rgb(231,232,232);"/><path d="M106.172,114.175C106.172,114.175 110.715,117.129 111.977,118.886C112.61,119.768 112.409,120.998 111.527,121.631C110.645,122.264 109.415,122.063 108.782,121.181C107.52,119.423 106.172,114.175 106.172,114.175Z" style="fill:rgb(231,232,232);"/><path d="M121.87,112.999L96.067,112.96C96.067,112.96 94.097,111.052 93.585,110.441C90.894,107.225 78.861,109.948 66.527,112.916L44.192,112.882L56.441,86.175L106.485,86.175L121.87,112.999Z" style="fill:rgb(88,74,52);stroke:black;stroke-width:2px;stroke-miterlimit:1.5;"/><path d="M62.486,86.175L51.32,112.893L59.82,112.999L68.32,86.175L73.986,86.175C69.765,100.103 69.411,107.54 71.137,111.485C73.716,110.636 76.953,110.385 79.741,109.728C78.029,104.522 77.199,97.762 79.741,86.175L85.761,86.175C83.912,99.268 86.375,103.489 87.941,109.071C91.783,108.664 93.042,109.272 95.88,112.999C96.292,105.207 91.866,99.494 91.32,86.175L96.922,86.175L104.486,112.999L113.32,112.999L102.32,86.175" style="fill:none;stroke:rgb(76,59,32);stroke-width:2px;stroke-miterlimit:1.5;"/><path d="M58.959,52.541C58.851,54.554 57.924,55.903 56.285,57.022C54.656,58.134 52.665,54.46 50.317,55.178C52.006,58.285 54.763,61.267 58.988,60.253L58.959,52.541Z" style="fill:rgb(88,74,52);stroke:black;stroke-width:2px;stroke-linecap:butt;stroke-miterlimit:1.5;"/><path d="M58.959,52.541C59.834,67.311 57.382,76.814 54.841,86.175L110.206,86.175L109.297,53.147L103.015,53.071L93.235,65.38L80,52.794L58.959,52.541Z" style="fill:rgb(212,201,188);stroke:black;stroke-width:2px;stroke-miterlimit:1.5;"/><path d="M80,52.794L59.041,52.541L68.334,54.292L93.844,72.65L80,52.794Z" style="fill:rgb(176,131,75);stroke:black;stroke-width:2px;stroke-miterlimit:1.5;"/><path d="M103.134,52.541L111.654,52.541L93.844,72.65L103.134,52.541Z" style="fill:rgb(176,131,75);stroke:black;stroke-width:2px;stroke-miterlimit:1.5;"/><path d="M70.407,53.661L89.713,67.661" style="fill:none;stroke:rgb(246,241,237);stroke-width:1.5px;stroke-linecap:butt;stroke-miterlimit:1.5;"/><path d="M93.844,72.65L87.891,74.058L85.761,83.054L93.844,72.65Z" style="fill:rgb(176,131,75);stroke:black;stroke-width:2px;stroke-miterlimit:1.5;"/><path d="M100,74.058L100,83.054L93.844,72.65L100,74.058Z" style="fill:rgb(176,131,75);stroke:black;stroke-width:2px;stroke-miterlimit:1.5;"/><path d="M70.407,68.547C74.568,67.367 78.564,66.352 82.375,65.522C90.665,65.867 94.006,72.116 89.802,76.307C85.914,78.598 81.879,79.714 77.64,79.2C73.786,75.95 73.42,71.848 77.375,66.689" style="fill:white;stroke:black;stroke-width:2.5px;stroke-linecap:butt;stroke-miterlimit:1.5;"/><path d="M97.936,68.774C102.097,67.594 106.093,66.579 109.904,65.75C118.194,66.094 121.535,72.343 117.331,76.534C113.443,78.825 109.408,79.941 105.169,79.427C101.315,76.177 100.949,72.075 104.904,66.917" style="fill:white;stroke:black;stroke-width:2.5px;stroke-linecap:butt;stroke-miterlimit:1.5;"/><g><path d="M109.518,57.305L114.247,52.99L108.138,52.813L109.919,47.901L114.972,50.211L112.482,44.958L117.354,43.416L117.679,49.451L120.865,44.082L124.762,47.698L119.498,51.679L125.185,52.513L123.651,56.422L118.606,53.406L120.716,59.019L116.42,60.399L115.865,54.349L113.438,59.789L109.518,57.305Z" style="fill:none;stroke:rgb(78,121,127);stroke-width:1px;stroke-linecap:butt;stroke-miterlimit:1.5;"/><path d="M116.594,59.82C115.713,59.967 114.801,59.96 113.886,59.778C109.459,58.896 106.651,54.231 107.62,49.368C108.589,44.505 112.97,41.274 117.397,42.156C118.006,42.277 118.584,42.47 119.125,42.724C115.741,43.289 112.825,46.121 112.056,49.979C111.22,54.174 113.194,58.221 116.594,59.82ZM119.125,42.724C120.006,42.577 120.919,42.584 121.833,42.766C126.261,43.649 129.069,48.313 128.1,53.176C127.131,58.039 122.749,61.271 118.322,60.388C117.714,60.267 117.136,60.075 116.594,59.82C119.978,59.255 122.895,56.424 123.664,52.565C124.5,48.371 122.525,44.324 119.125,42.724" style="fill:rgb(83,129,136);stroke:rgb(78,121,127);stroke-width:1px;stroke-linecap:butt;stroke-miterlimit:1.5;"/><path d="M116.594,59.82C115.713,59.967 114.801,59.96 113.886,59.778C109.459,58.896 106.651,54.231 107.62,49.368C108.589,44.505 112.97,41.274 117.397,42.156C118.006,42.277 118.584,42.47 119.125,42.724C115.741,43.289 112.825,46.121 112.056,49.979C111.22,54.174 113.194,58.221 116.594,59.82Z" style="fill:rgb(98,151,159);stroke:rgb(78,121,127);stroke-width:1px;stroke-linecap:butt;stroke-miterlimit:1.5;"/><path d="M114.955,60.122L118.403,60.326C118.403,60.326 117.726,70.928 117.056,74.291C116.621,76.475 114.912,77.978 113.243,77.645C111.573,77.313 110.571,75.269 111.006,73.086C111.655,69.829 114.955,60.122 114.955,60.122Z" style="fill:rgb(98,151,159);stroke:rgb(78,121,127);stroke-width:1px;stroke-linecap:butt;stroke-miterlimit:1.5;"/><path d="M121.833,42.766C126.261,43.649 129.069,48.313 128.1,53.176C127.131,58.039 122.749,61.271 118.322,60.388C113.895,59.506 111.087,54.842 112.056,49.979C113.025,45.116 117.406,41.884 121.833,42.766Z" style="fill:none;stroke:rgb(78,121,127);stroke-width:1px;stroke-linecap:butt;stroke-miterlimit:1.5;"/><path d="M118.702,49.008L116.488,50.089L114.649,46.034L118.054,43.702L118.702,49.008Z" style="fill:rgb(83,129,136);"/><path d="M120.42,50.332L121.824,49.774L123.761,45.753L119.736,46.615L120.42,50.332Z" style="fill:rgb(83,129,136);"/><path d="M118.001,51.682L116.307,52.387L112.092,51.576L114.626,48.605L118.001,51.682" style="fill:rgb(83,129,136);"/><path d="M121.144,52.061L122.556,51.657L126.309,52.46L124.306,54.53L121.144,52.061Z" style="fill:rgb(83,129,136);"/><path d="M117.295,53.937L118.917,53.154L117.944,57.5L115.317,56.901L117.295,53.937Z" style="fill:rgb(83,129,136);"/><path d="M119.604,54.855L121.189,53.456L124.196,57.564L121.527,58.499L119.604,54.855Z" style="fill:rgb(83,129,136);"/><path d="M120.58,49.055C121.848,49.307 122.652,50.643 122.375,52.035C122.097,53.427 120.843,54.353 119.575,54.1C118.307,53.848 117.503,52.512 117.781,51.12C118.058,49.727 119.313,48.802 120.58,49.055Z" style="fill:rgb(98,151,159);stroke:rgb(78,121,127);stroke-width:1px;stroke-linecap:butt;stroke-miterlimit:1.5;"/><path d="M121.241,44.423C124.95,45.162 127.326,48.945 126.545,52.866C125.764,56.787 122.119,59.37 118.41,58.631C114.701,57.892 112.324,54.109 113.105,50.188C113.887,46.267 117.532,43.684 121.241,44.423Z" style="fill:rgb(98,151,159);fill-opacity:0.66;"/><path d="M122.309,42.796L121.405,49.134L126.231,45.384L127.981,50.307L122.613,51.739L127.876,54.209L125.098,58.497L121.007,54.047L121.965,60.217L116.658,59.906L118.187,53.485L113.268,56.46L111.966,52.467L117.776,51.585L112.579,48.597L115.015,44.799L119.292,49.114L117.704,43.373L122.309,42.796Z" style="fill:none;stroke:rgb(78,121,127);stroke-opacity:0.4;stroke-width:1px;stroke-linecap:butt;stroke-miterlimit:1.5;"/></g></g><g id="gikopoipoi_eyes_open"><circle cx="76.815" cy="30" r="2.266" style="fill:none;stroke:black;stroke-width:1.5px;stroke-linecap:butt;stroke-miterlimit:1.5;"/><circle cx="110.808" cy="30" r="2.266" style="fill:none;stroke:black;stroke-width:1.5px;stroke-linecap:butt;stroke-miterlimit:1.5;"/></g><g id="gikopoipoi_eyes_closed" style="display:none"><path d="M107.46,30.1L113.76,30.1" style="fill:none;fill-rule:nonzero;stroke:black;stroke-width:3px;"/><path d="M73.619,30.1L79.919,30.1" style="fill:none;fill-rule:nonzero;stroke:black;stroke-width:3px;"/></g></svg>