<?xml version="1.0" encoding="UTF-8" standalone="no"?><!DOCTYPE svg PUBLIC "-//W3C//DTD SVG 1.1//EN" "http://www.w3.org/Graphics/SVG/1.1/DTD/svg11.dtd"><svg width="160px" height="182px" version="1.1" xmlns="http://www.w3.org/2000/svg" xmlns:xlink="http://www.w3.org/1999/xlink" xml:space="preserve" xmlns:serif="http://www.serif.com/" style="fill-rule:evenodd;clip-rule:evenodd;stroke-linecap:round;stroke-linejoin:round;"><g><g id="e"><path id="a" d="M105.341,40L86.341,40L84.141,38" style="fill:none;fill-rule:nonzero;stroke:rgb(51,51,51);stroke-width:2px;"/><path id="c" d="M70.941,40.6L66.941,44.6L70.641,48.2M66.941,44.6L66.941,44.5L66.941,49.5M66.941,44.6L63.241,48.2M62.941,40.6L66.941,44.5L66.941,38.6" style="fill:none;fill-rule:nonzero;stroke:rgb(254,165,192);stroke-width:2px;"/></g><g><path d="M121.87,113.734C120.595,116.87 103.755,115.204 85.165,112.999L111.902,108.029C117.563,108.364 121.158,110.283 121.87,113.734Z" style="fill:rgb(36,36,59);stroke:black;stroke-width:2px;stroke-miterlimit:1.5;"/><path d="M87.941,22L90.341,23.1L98.041,5.9L105.841,23.1L108.341,22L114.641,28.1L116.841,30.3L116.141,31.1L116.341,31.3C119.141,34.034 120.675,37.066 120.941,40.4L121.041,41.6C121.041,43.8 120.507,45.866 119.441,47.8L118.941,48.7L116.141,52.1L116.341,52.3L115.741,52.9L109.241,54.7L109.241,64.1L102.741,65.5L96.441,67.3L97.741,70.5L104.441,68L110.441,66.8C112.507,66.8 113.941,67.2 114.741,68C115.807,69.066 116.341,70.4 116.341,72C116.341,73.466 115.841,74.7 114.841,75.7C113.441,77.1 110.707,77.934 106.641,78.2L104.141,78.3L104.841,81.3L107.841,81.2L107.741,86.7L104.741,89.2L104.741,106.7L95.641,106.7L95.641,109.8L108.841,109.8C109.775,109.8 110.541,110.066 111.141,110.6C111.875,111.334 112.241,112.434 112.241,113.9C112.241,115.3 111.875,116.366 111.141,117.1C110.541,117.7 109.775,118 108.841,118L95.641,118L95.641,119.9L84.811,112.106L75.828,112.071L74.549,123.034L73.041,136C73.041,136.934 72.741,137.7 72.141,138.3C71.407,139.034 70.341,139.4 68.941,139.4C67.475,139.4 66.375,139.034 65.641,138.3C65.107,137.7 64.841,136.934 64.841,136L64.841,122.9L61.741,122.9L54.841,108.1L55.141,108.1L55.141,105.1L56.041,104.3L56.441,104L58.741,101.2L56.241,99.2L54.841,101.1L55.641,79.2L59.141,53.6L59.941,54.3L61.441,52.9L59.441,50.7C57.507,48.234 56.507,45.566 56.441,42.7L56.441,42.2L56.541,40.4C57.007,37.334 58.641,34.5 61.441,31.9L59.941,30.4L60.941,22.5L62.241,23.1L69.941,5.9L77.641,23.1L80.141,22L87.941,22M90.341,66.1C88.941,64.7 86.775,64 83.841,64L75.841,65.5L69.641,67.3L70.941,70.5L77.541,68C79.807,67.2 81.807,66.8 83.541,66.8C85.607,66.8 87.041,67.2 87.841,68C88.907,69.066 89.441,70.4 89.441,72C89.441,73.466 88.941,74.7 87.941,75.7C86.541,77.1 83.841,77.934 79.841,78.2L77.241,78.3L77.941,81.3C83.207,81.234 87.141,80.2 89.741,78.2L90.541,77.5C91.875,76.166 92.541,74.266 92.541,71.8C92.541,69.4 91.807,67.5 90.341,66.1" style="fill:white;"/><path d="M87.941,22L80.141,22M116.841,30.3L114.641,28.1" style="fill:none;fill-rule:nonzero;stroke:rgb(51,51,51);stroke-width:2px;"/><path d="M108.341,22L105.841,23.1L98.041,5.9L90.341,23.1L87.941,22L98.041,0L108.341,22M80.141,22L77.641,23.1L69.941,5.9L62.241,23.1L60.941,22.5L59.841,22L69.941,0L80.141,22M59.941,30.4L61.441,31.9C58.641,34.5 57.007,37.334 56.541,40.4L56.441,42.2L56.441,42.7C56.507,45.566 57.507,48.234 59.441,50.7L61.441,52.9L59.941,54.3L59.141,53.6L57.941,52.2L56.441,50.1C54.984,47.803 54.252,45.119 54.341,42.4L54.441,40.4C54.707,38.4 55.375,36.5 56.441,34.7L59.941,30.4M51.941,106C50.675,106 48.907,105.266 46.641,103.8C45.041,102.934 43.775,102.5 42.841,102.5C41.641,102.5 40.775,102.866 40.241,103.6L39.941,104L39.041,105.5L36.341,104C36.877,102.73 37.698,101.601 38.741,100.7L39.941,99.8L42.641,99.1C44.107,99.1 45.607,99.634 47.141,100.7C49.341,101.834 51.041,102.4 52.241,102.4M61.741,122.9L64.841,122.9L64.841,136C64.841,136.934 65.107,137.7 65.641,138.3C66.375,139.034 67.475,139.4 68.941,139.4C70.341,139.4 71.407,139.034 72.141,138.3C72.741,137.7 73.041,136.934 73.041,136L73.041,122.9L76.041,122.9L76.041,136.1C76.041,137.766 75.507,139.134 74.441,140.2C73.241,141.4 71.407,142 68.941,142C66.407,142 64.541,141.4 63.341,140.2C62.275,139.134 61.741,137.766 61.741,136.1L61.741,122.9M95.641,119.9L95.641,118L108.841,118C109.775,118 110.541,117.7 111.141,117.1C111.875,116.366 112.241,115.3 112.241,113.9C112.241,112.434 111.875,111.334 111.141,110.6C110.541,110.066 109.775,109.8 108.841,109.8L95.641,109.8L95.641,106.7L108.941,106.7C110.607,106.7 111.975,107.234 113.041,108.3C114.241,109.5 114.841,111.366 114.841,113.9C114.841,116.366 114.241,118.2 113.041,119.4L112.441,119.9C111.441,120.634 110.275,121 108.941,121L95.641,121L95.641,119.9M116.341,52.3L116.141,52.1L118.941,48.7L119.441,47.8C120.507,45.866 121.041,43.8 121.041,41.6L120.941,40.4C120.675,37.066 119.141,34.034 116.341,31.3L116.141,31.1L116.841,30.3L116.941,30.3L117.541,29.6C120.941,32.734 122.775,36.334 123.041,40.4L123.141,41.6C123.141,44.134 122.541,46.5 121.341,48.7C120.407,50.366 119.141,51.966 117.541,53.5L116.341,52.3" style="fill:rgb(51,51,51);"/><g id="d"><path id="a1" serif:id="a" d="M70.626,40.6L66.621,44.6L70.325,48.2M66.621,44.6L66.621,44.5L66.621,49.5M66.621,44.6L62.917,48.2M62.616,40.6L66.621,44.5L66.621,38.6" style="fill:none;fill-rule:nonzero;stroke:rgb(254,165,192);stroke-width:2px;"/></g></g><path id="b" d="M105.067,40L86.044,40L83.842,38" style="fill:none;fill-rule:nonzero;stroke:rgb(51,51,51);stroke-width:2px;"/><path d="M66.861,122.704C66.861,122.704 68.828,127.752 68.828,129.916C68.828,131.002 67.947,131.883 66.861,131.883C65.776,131.883 64.894,131.002 64.894,129.916C64.894,127.752 66.861,122.704 66.861,122.704Z" style="fill:rgb(231,232,232);"/><path d="M53.784,22.238C53.784,22.238 48.426,23.044 46.316,22.567C45.257,22.327 44.592,21.273 44.831,20.215C45.07,19.156 46.124,18.49 47.183,18.73C49.293,19.207 53.784,22.238 53.784,22.238Z" style="fill:rgb(231,232,232);"/><path d="M47.91,42.746C47.91,42.746 42.966,44.962 40.805,45.07C39.721,45.124 38.796,44.288 38.742,43.204C38.688,42.119 39.525,41.195 40.609,41.141C42.77,41.033 47.91,42.746 47.91,42.746Z" style="fill:rgb(231,232,232);"/><path d="M89.174,12.054C89.174,12.054 83.93,10.692 82.176,9.425C81.296,8.789 81.098,7.558 81.733,6.678C82.369,5.798 83.6,5.6 84.48,6.236C86.234,7.503 89.174,12.054 89.174,12.054Z" style="fill:rgb(231,232,232);"/><path d="M120.439,115.354C120.439,115.354 125.64,116.871 127.355,118.19C128.216,118.852 128.377,120.087 127.716,120.948C127.054,121.809 125.818,121.97 124.958,121.309C123.242,119.99 120.439,115.354 120.439,115.354Z" style="fill:rgb(231,232,232);"/><path d="M121.87,112.999C117.645,105.974 103.33,108.575 87.158,112.947L44.192,112.882L56.441,86.175L106.485,86.175L121.87,112.999Z" style="fill:rgb(88,74,52);stroke:black;stroke-width:2px;stroke-miterlimit:1.5;"/><path d="M62.486,86.175L51.32,112.893L59.82,112.999L68.32,86.175L73.986,86.175L68.986,112.999L77.486,112.999L80,86.175L85.761,86.175L85.761,112.999L94.727,110.685L91.32,86.175L96.922,86.175L103.517,109.223C106.419,108.63 109.322,108.335 112.224,108.553L102.32,86.175" style="fill:none;stroke:rgb(76,59,32);stroke-width:2px;stroke-miterlimit:1.5;"/><path d="M58.959,52.541C58.733,54.515 57.521,55.769 56.285,57.022C54.9,58.427 53.378,59.748 51.03,60.465L58.988,60.253L58.959,52.541Z" style="fill:rgb(88,74,52);stroke:black;stroke-width:2px;stroke-linecap:butt;stroke-miterlimit:1.5;"/><path d="M58.959,52.541C59.834,67.311 57.382,76.814 54.841,86.175L110.206,86.175L109.297,53.147L103.015,53.071L93.235,65.38L80,52.794L58.959,52.541Z" style="fill:rgb(212,201,188);stroke:black;stroke-width:2px;stroke-miterlimit:1.5;"/><path d="M80,52.794L59.041,52.541L68.334,54.292L93.844,72.65L80,52.794Z" style="fill:rgb(176,131,75);stroke:black;stroke-width:2px;stroke-miterlimit:1.5;"/><path d="M103.134,52.541L111.654,52.541L93.844,72.65L103.134,52.541Z" style="fill:rgb(176,131,75);stroke:black;stroke-width:2px;stroke-miterlimit:1.5;"/><path d="M70.407,53.661L89.713,67.661" style="fill:none;stroke:rgb(246,241,237);stroke-width:1.5px;stroke-linecap:butt;stroke-miterlimit:1.5;"/><path d="M93.844,72.65L87.891,74.058L85.761,83.054L93.844,72.65Z" style="fill:rgb(176,131,75);stroke:black;stroke-width:2px;stroke-miterlimit:1.5;"/><path d="M100,74.058L100,83.054L93.844,72.65L100,74.058Z" style="fill:rgb(176,131,75);stroke:black;stroke-width:2px;stroke-miterlimit:1.5;"/><path d="M70.407,68.547C74.568,67.367 78.564,66.352 82.375,65.522C90.665,65.867 94.006,72.116 89.802,76.307C85.914,78.598 81.879,79.714 77.64,79.2C73.786,75.95 73.42,71.848 77.375,66.689" style="fill:white;stroke:black;stroke-width:2.5px;stroke-linecap:butt;stroke-miterlimit:1.5;"/><path d="M97.936,68.774C102.097,67.594 106.093,66.579 109.904,65.75C118.194,66.094 121.535,72.343 117.331,76.534C113.443,78.825 109.408,79.941 105.169,79.427C101.315,76.177 100.949,72.075 104.904,66.917" style="fill:white;stroke:black;stroke-width:2.5px;stroke-linecap:butt;stroke-miterlimit:1.5;"/><g><path d="M109.518,57.305L114.247,52.99L108.138,52.813L109.919,47.901L114.972,50.211L112.482,44.958L117.354,43.416L117.679,49.451L120.865,44.082L124.762,47.698L119.498,51.679L125.185,52.513L123.651,56.422L118.606,53.406L120.716,59.019L116.42,60.399L115.865,54.349L113.438,59.789L109.518,57.305Z" style="fill:none;stroke:rgb(78,121,127);stroke-width:1px;stroke-linecap:butt;stroke-miterlimit:1.5;"/><path d="M116.594,59.82C115.713,59.967 114.801,59.96 113.886,59.778C109.459,58.896 106.651,54.231 107.62,49.368C108.589,44.505 112.97,41.274 117.397,42.156C118.006,42.277 118.584,42.47 119.125,42.724C115.741,43.289 112.825,46.121 112.056,49.979C111.22,54.174 113.194,58.221 116.594,59.82ZM119.125,42.724C120.006,42.577 120.919,42.584 121.833,42.766C126.261,43.649 129.069,48.313 128.1,53.176C127.131,58.039 122.749,61.271 118.322,60.388C117.714,60.267 117.136,60.075 116.594,59.82C119.978,59.255 122.895,56.424 123.664,52.565C124.5,48.371 122.525,44.324 119.125,42.724" style="fill:rgb(83,129,136);stroke:rgb(78,121,127);stroke-width:1px;stroke-linecap:butt;stroke-miterlimit:1.5;"/><path d="M116.594,59.82C115.713,59.967 114.801,59.96 113.886,59.778C109.459,58.896 106.651,54.231 107.62,49.368C108.589,44.505 112.97,41.274 117.397,42.156C118.006,42.277 118.584,42.47 119.125,42.724C115.741,43.289 112.825,46.121 112.056,49.979C111.22,54.174 113.194,58.221 116.594,59.82Z" style="fill:rgb(98,151,159);stroke:rgb(78,121,127);stroke-width:1px;stroke-linecap:butt;stroke-miterlimit:1.5;"/><path d="M114.955,60.122L118.403,60.326C118.403,60.326 117.726,70.928 117.056,74.291C116.621,76.475 114.912,77.978 113.243,77.645C111.573,77.313 110.571,75.269 111.006,73.086C111.655,69.829 114.955,60.122 114.955,60.122Z" style="fill:rgb(98,151,159);stroke:rgb(78,121,127);stroke-width:1px;stroke-linecap:butt;stroke-miterlimit:1.5;"/><path d="M121.833,42.766C126.261,43.649 129.069,48.313 128.1,53.176C127.131,58.039 122.749,61.271 118.322,60.388C113.895,59.506 111.087,54.842 112.056,49.979C113.025,45.116 117.406,41.884 121.833,42.766Z" style="fill:none;stroke:rgb(78,121,127);stroke-width:1px;stroke-linecap:butt;stroke-miterlimit:1.5;"/><path d="M120.078,48.906L117.62,48.736L118.055,44.305L122.17,43.988L120.078,48.906Z" style="fill:rgb(83,129,136);"/><path d="M120.904,50.912L122.399,51.131L126.088,48.617L122.17,47.351L120.904,50.912Z" style="fill:rgb(83,129,136);"/><path d="M118.135,50.873L116.314,50.635L113.07,47.826L116.75,46.52L118.135,50.873" style="fill:rgb(83,129,136);"/><path d="M120.667,52.772L122.091,53.128L124.94,55.7L122.17,56.491L120.667,52.772Z" style="fill:rgb(83,129,136);"/><path d="M116.395,52.472L118.192,52.605L115.176,55.882L113.2,54.05L116.395,52.472Z" style="fill:rgb(83,129,136);"/><path d="M117.936,54.422L120.008,54.003L120.559,59.064L117.779,58.539L117.936,54.422Z" style="fill:rgb(83,129,136);"/><path d="M120.58,49.055C121.848,49.307 122.652,50.643 122.375,52.035C122.097,53.427 120.843,54.353 119.575,54.1C118.307,53.848 117.503,52.512 117.781,51.12C118.058,49.727 119.313,48.802 120.58,49.055Z" style="fill:rgb(98,151,159);stroke:rgb(78,121,127);stroke-width:1px;stroke-linecap:butt;stroke-miterlimit:1.5;"/><path d="M121.241,44.423C124.95,45.162 127.326,48.945 126.545,52.866C125.764,56.787 122.119,59.37 118.41,58.631C114.701,57.892 112.324,54.109 113.105,50.188C113.887,46.267 117.532,43.684 121.241,44.423Z" style="fill:rgb(98,151,159);fill-opacity:0.66;"/><path d="M122.309,42.796L121.405,49.134L126.231,45.384L127.981,50.307L122.613,51.739L127.876,54.209L125.098,58.497L121.007,54.047L121.965,60.217L116.658,59.906L118.187,53.485L113.268,56.46L111.966,52.467L117.776,51.585L112.579,48.597L115.015,44.799L119.292,49.114L117.704,43.373L122.309,42.796Z" style="fill:none;stroke:rgb(78,121,127);stroke-opacity:0.4;stroke-width:1px;stroke-linecap:butt;stroke-miterlimit:1.5;"/></g></g><g id="gikopoipoi_eyes_open"><circle cx="76.815" cy="30" r="2.266" style="fill:none;stroke:black;stroke-width:1.5px;stroke-linecap:butt;stroke-miterlimit:1.5;"/><circle cx="110.808" cy="30" r="2.266" style="fill:none;stroke:black;stroke-width:1.5px;stroke-linecap:butt;stroke-miterlimit:1.5;"/></g><g id="gikopoipoi_eyes_closed" style="display:none"><path d="M107.46,30.1L113.76,30.1" style="fill:none;fill-rule:nonzero;stroke:black;stroke-width:3px;"/><path d="M73.619,30.1L79.919,30.1" style="fill:none;fill-rule:nonzero;stroke:black;stroke-width:3px;"/></g></svg>