<svg width="160" height="182" xmlns="http://www.w3.org/2000/svg" xml:space="preserve" style="fill-rule:evenodd;clip-rule:evenodd;stroke-linecap:round;stroke-linejoin:round;stroke-miterlimit:1.5"><path d="M121.87 113.734c-1.275 3.136-18.115 1.47-36.705-.735l26.737-4.97c5.661.335 9.256 2.254 9.968 5.705Z" style="fill:#24243b;stroke:#000;stroke-width:2px"/><path d="m87.941 22 2.4 1.1 7.7-17.2 7.8 17.2 2.5-1.1 6.3 6.1 2.2 2.2-.7.8.2.2c2.8 2.734 4.334 5.766 4.6 9.1l.1 1.2c0 2.2-.534 4.266-1.6 6.2l-.5.9-2.8 3.4.2.2-.6.6-6.5 1.8v9.4l-6.5 1.4-6.3 1.8 1.3 3.2 6.7-2.5 6-1.2c2.066 0 3.5.4 4.3 1.2 1.066 1.066 1.6 2.4 1.6 4 0 1.466-.5 2.7-1.5 3.7-1.4 1.4-4.134 2.234-8.2 2.5l-2.5.1.7 3 3-.1-.1 5.5-3 2.5v17.5h-9.1v3.1h13.2c.934 0 1.7.266 2.3.8.734.734 1.1 1.834 1.1 3.3 0 1.4-.366 2.466-1.1 3.2-.6.6-1.366.9-2.3.9h-13.2v1.9l-10.83-7.794-8.983-.035-1.279 10.963L73.041 136c0 .934-.3 1.7-.9 2.3-.734.734-1.8 1.1-3.2 1.1-1.466 0-2.566-.366-3.3-1.1-.534-.6-.8-1.366-.8-2.3v-13.1h-3.1l-6.9-14.8h.3v-3l.9-.8.4-.3 2.3-2.8-2.5-2-1.4 1.9.8-21.9 3.5-25.6.8.7 1.5-1.4-2-2.2c-1.934-2.466-2.934-5.134-3-8v-.5l.1-1.8c.466-3.066 2.1-5.9 4.9-8.5l-1.5-1.5 1-7.9 1.3.6 7.7-17.2 7.7 17.2 2.5-1.1h7.8m2.4 44.1c-1.4-1.4-3.566-2.1-6.5-2.1l-8 1.5-6.2 1.8 1.3 3.2 6.6-2.5c2.266-.8 4.266-1.2 6-1.2 2.066 0 3.5.4 4.3 1.2 1.066 1.066 1.6 2.4 1.6 4 0 1.466-.5 2.7-1.5 3.7-1.4 1.4-4.1 2.234-8.1 2.5l-2.6.1.7 3c5.266-.066 9.2-1.1 11.8-3.1l.8-.7c1.334-1.334 2-3.234 2-5.7 0-2.4-.734-4.3-2.2-5.7" style="fill:#fff"/><path d="M87.941 22h-7.8m36.7 8.3-2.2-2.2" style="fill:none;fill-rule:nonzero;stroke:#333;stroke-width:2px;stroke-miterlimit:4"/><path d="m108.341 22-2.5 1.1-7.8-17.2-7.7 17.2-2.4-1.1 10.1-22 10.3 22m-28.2 0-2.5 1.1-7.7-17.2-7.7 17.2-1.3-.6-1.1-.5 10.1-22 10.2 22m-20.2 8.4 1.5 1.5c-2.8 2.6-4.434 5.434-4.9 8.5l-.1 1.8v.5c.066 2.866 1.066 5.534 3 8l2 2.2-1.5 1.4-.8-.7-1.2-1.4-1.5-2.1a13.55 13.55 0 0 1-2.1-7.7l.1-2c.266-2 .934-3.9 2-5.7l3.5-4.3m-8 75.6c-1.266 0-3.034-.734-5.3-2.2-1.6-.866-2.866-1.3-3.8-1.3-1.2 0-2.066.366-2.6 1.1l-.3.4-.9 1.5-2.7-1.5a8.968 8.968 0 0 1 2.4-3.3l1.2-.9 2.7-.7c1.466 0 2.966.534 4.5 1.6 2.2 1.134 3.9 1.7 5.1 1.7m9.5 20.5h3.1V136c0 .934.266 1.7.8 2.3.734.734 1.834 1.1 3.3 1.1 1.4 0 2.466-.366 3.2-1.1.6-.6.9-1.366.9-2.3v-13.1h3v13.2c0 1.666-.534 3.034-1.6 4.1-1.2 1.2-3.034 1.8-5.5 1.8-2.534 0-4.4-.6-5.6-1.8-1.066-1.066-1.6-2.434-1.6-4.1v-13.2m33.9-3V118h13.2c.934 0 1.7-.3 2.3-.9.734-.734 1.1-1.8 1.1-3.2 0-1.466-.366-2.566-1.1-3.3-.6-.534-1.366-.8-2.3-.8h-13.2v-3.1h13.3c1.666 0 3.034.534 4.1 1.6 1.2 1.2 1.8 3.066 1.8 5.6 0 2.466-.6 4.3-1.8 5.5l-.6.5c-1 .734-2.166 1.1-3.5 1.1h-13.3v-1.1m20.7-67.6-.2-.2 2.8-3.4.5-.9c1.066-1.934 1.6-4 1.6-6.2l-.1-1.2c-.266-3.334-1.8-6.366-4.6-9.1l-.2-.2.7-.8h.1l.6-.7c3.4 3.134 5.234 6.734 5.5 10.8l.1 1.2c0 2.534-.6 4.9-1.8 7.1-.934 1.666-2.2 3.266-3.8 4.8l-1.2-1.2" style="fill:#333"/><path d="m70.626 40.6-4.005 4 3.704 3.6m-3.704-3.6v-.1 5m0-4.9-3.704 3.6m-.301-7.6 4.005 3.9v-5.9" style="fill:none;fill-rule:nonzero;stroke:#fea5c0;stroke-width:2px;stroke-miterlimit:4"/><path d="M121.87 112.999c-4.225-7.025-18.54-4.424-34.712-.052l-42.966-.065 12.249-26.707h50.044l15.385 26.824Z" style="fill:#3e3e65;stroke:#000;stroke-width:2px"/><path d="M62.486 86.175 51.32 112.893l8.5.106 8.5-26.824h5.666l-5 26.824h8.5L80 86.175h5.761v26.824l8.966-2.314-3.407-24.51h5.602l6.595 23.048c2.902-.593 5.805-.888 8.707-.67l-9.904-22.378" style="fill:none;stroke:#353564;stroke-width:2px"/><path d="M58.959 52.541c.875 14.77-1.577 24.273-4.118 33.634h55.365l-.909-33.028-6.282-.076-9.78 12.309L80 52.794l-21.041-.253Z" style="fill:#f6f1ed;stroke:#000;stroke-width:2px"/><path d="m80 52.794-20.959-.253 9.293 1.751 25.51 18.358L80 52.794Z" style="fill:#313172;stroke:#000;stroke-width:2px"/><path d="M103.134 52.541h8.52L93.844 72.65l9.29-20.109Z" style="fill:#313172;stroke:#000;stroke-width:2px"/><path d="m70.407 53.661 19.306 14" style="fill:none;stroke:#f6f1ed;stroke-width:1.5px;stroke-linecap:butt"/><path d="m93.844 72.65-5.953 1.408-2.13 8.996 8.083-10.404ZM100 74.058v8.996L93.844 72.65 100 74.058Z" style="fill:#313172;stroke:#000;stroke-width:2px"/><path d="M70.407 68.547c4.161-1.18 8.157-2.195 11.968-3.025 8.29.345 11.631 6.594 7.427 10.785-3.888 2.291-7.923 3.407-12.162 2.893-3.854-3.25-4.22-7.352-.265-12.511m20.561 2.085c4.161-1.18 8.157-2.195 11.968-3.024 8.29.344 11.631 6.593 7.427 10.784-3.888 2.291-7.923 3.407-12.162 2.893-3.854-3.25-4.22-7.352-.265-12.51" style="fill:#fff;stroke:#000;stroke-width:2.5px;stroke-linecap:butt"/><path d="m94.097 39.801 3.738-.018 11.491 8.519-7.702 15.258-15.332-9.068 7.805-14.691Z" style="fill:url(#a);stroke:#98613e;stroke-width:1px"/><path d="M93.757 39.783h-2.534l-6.81 13.537 17.193 10.24-15.314-9.084 7.465-14.693Z" style="fill:#8b6427;stroke:#98613e;stroke-width:1px"/><path d="M105.067 40H86.044l-2.202-2" style="fill:none;fill-rule:nonzero;stroke:#333;stroke-width:2px;stroke-miterlimit:4"/><g id="gikopoipoi_eyes_open"><circle cx="76.815" cy="30" r="2.266" style="fill:none;stroke:#000;stroke-width:1.5px;stroke-linecap:butt"/><circle cx="110.808" cy="30" r="2.266" style="fill:none;stroke:#000;stroke-width:1.5px;stroke-linecap:butt"/></g><path d="M107.46 30.1h6.3m-40.141 0h6.3" style="fill:none;fill-rule:nonzero;stroke:#000;stroke-width:3px;stroke-miterlimit:4;display:none" id="gikopoipoi_eyes_closed"/><defs><radialGradient id="a" cx="0" cy="0" r="1" gradientUnits="userSpaceOnUse" gradientTransform="matrix(4.08052 -7.81524 8.42673 5.47645 99.325 51.219)"><stop offset="0" style="stop-color:#d8c1a9;stop-opacity:1"/><stop offset="1" style="stop-color:#fffcec;stop-opacity:1"/></radialGradient></defs></svg>