<svg width="160" height="182" xmlns="http://www.w3.org/2000/svg" xml:space="preserve" style="fill-rule:evenodd;clip-rule:evenodd;stroke-linecap:round;stroke-linejoin:round"><path d="m87.941 22 2.4 1.1 7.7-17.2 7.8 17.2 2.5-1.1 6.3 6.1 2.2 2.2-.7.8.2.2c2.8 2.734 4.334 5.766 4.6 9.1l.1 1.2c0 2.2-.534 4.266-1.6 6.2l-.5.9-2.8 3.4.2.2-.6.6-6.5 1.8-1.5 32-3 2.5v24.5l-1.7 9.2h-3.1V136c0 .934-.3 1.7-.9 2.3-.734.734-1.8 1.1-3.2 1.1-1.466 0-2.566-.366-3.3-1.1-.534-.6-.8-1.366-.8-2.3l-1.593-13.02s-2.307-5.38-2.307-7.18v-.5c-.066-2.266-.666-3.966-1.8-5.1-1.066-1.066-2.434-1.6-4.1-1.6h-13.2v3.1h13.1c.934 0 1.7.266 2.3.8.666.666 1.034 1.7 1.1 3.1l-.3 1.8h.1l-.1.5-.8 1.1c-.6.6-1.366.9-2.3.9h-13.1v3l-3.6.1v-.1h-3.1l-3.4-2.2-3.5-7.8v-7.8l-.3-4 .8-21.9 3.5-25.6.8.7 1.5-1.4-2-2.2c-1.934-2.466-2.934-5.134-3-8v-.5l.1-1.8c.466-3.066 2.1-5.9 4.9-8.5l-1.5-1.5 1-7.9 1.3.6 7.7-17.2 7.7 17.2 2.5-1.1h7.8" style="fill:#fff"/><path d="M87.941 22h-7.8m36.7 8.3-2.2-2.2" style="fill:none;fill-rule:nonzero;stroke:#333;stroke-width:2px"/><path d="m108.341 22-2.5 1.1-7.8-17.2-7.7 17.2-2.4-1.1 10.1-22 10.3 22m-28.2 0-2.5 1.1-7.7-17.2-7.7 17.2-1.3-.6-1.1-.5 10.1-22 10.2 22m-20.2 8.4 1.5 1.5c-2.8 2.6-4.434 5.434-4.9 8.5l-.1 1.8v.5c.066 2.866 1.066 5.534 3 8l2 2.2-1.5 1.4-.8-.7-1.2-1.4-1.5-2.1a13.55 13.55 0 0 1-2.1-7.7l.1-2c.266-2 .934-3.9 2-5.7l3.5-4.3m-8 75.6c-1.266 0-3.034-.734-5.3-2.2-1.6-.866-2.866-1.3-3.8-1.3-1.2 0-2.066.366-2.6 1.1l-.3.4-.9 1.5-2.7-1.5a8.968 8.968 0 0 1 2.4-3.3l1.2-.9 2.7-.7c1.466 0 2.966.534 4.5 1.6 2.2 1.134 3.9 1.7 5.1 1.7m16.5 20.5v-3h13.1c.934 0 1.7-.3 2.3-.9l.8-1.1.1-.5.2-1.6v-.2c-.066-1.4-.434-2.434-1.1-3.1-.6-.534-1.366-.8-2.3-.8h-13.1v-3.1h13.2c1.666 0 3.034.534 4.1 1.6 1.134 1.134 1.734 2.834 1.8 5.1v.5c0 1.8-.334 3.3-1 4.5l-.1.2-.7.8c-1 1.066-2.3 1.6-3.9 1.6h-13.4m19.9 0h3.1V136c0 .934.266 1.7.8 2.3.734.734 1.834 1.1 3.3 1.1 1.4 0 2.466-.366 3.2-1.1.6-.6.9-1.366.9-2.3v-13.1h3.1v13.2c0 1.666-.534 3.034-1.6 4.1-1.266 1.2-3.134 1.8-5.6 1.8-2.534 0-4.4-.6-5.6-1.8-1.066-1.066-1.6-2.434-1.6-4.1v-13.2m27.7-70.6-.2-.2 2.8-3.4.5-.9c1.066-1.934 1.6-4 1.6-6.2l-.1-1.2c-.266-3.334-1.8-6.366-4.6-9.1l-.2-.2.7-.8h.1l.6-.7c3.4 3.134 5.234 6.734 5.5 10.8l.1 1.2c0 2.534-.6 4.9-1.8 7.1-.934 1.666-2.2 3.266-3.8 4.8l-1.2-1.2" style="fill:#333"/><path d="m70.626 40.6-4.005 4 3.704 3.6m-3.704-3.6v-.1 5m0-4.9-3.704 3.6m-.301-7.6 4.005 3.9v-5.9" style="fill:none;fill-rule:nonzero;stroke:#fea5c0;stroke-width:2px"/><path d="m121.87 112.999-25.803-.039s-1.97-1.908-2.482-2.519c-2.691-3.216-14.724-.493-27.058 2.475l-22.335-.034 12.249-26.707h50.044l15.385 26.824Z" style="fill:#3e3e65;stroke:#000;stroke-width:2px;stroke-miterlimit:1.5"/><path d="M62.486 86.175 51.32 112.893l8.5.106 8.5-26.824h5.666c-4.221 13.928-4.575 21.365-2.849 25.31 2.579-.849 5.816-1.1 8.604-1.757-1.712-5.206-2.542-11.966 0-23.553h6.02c-1.849 13.093.614 17.314 2.18 22.896 3.842-.407 5.101.201 7.939 3.928.412-7.792-4.014-13.505-4.56-26.824h5.602l7.564 26.824h8.834l-11-26.824" style="fill:none;stroke:#353564;stroke-width:2px;stroke-miterlimit:1.5"/><path d="M58.959 52.541c.875 14.77-1.577 24.273-4.118 33.634h55.365l-.909-33.028-6.282-.076-9.78 12.309L80 52.794l-21.041-.253Z" style="fill:#f6f1ed;stroke:#000;stroke-width:2px;stroke-miterlimit:1.5"/><path d="m80 52.794-20.959-.253 9.293 1.751 25.51 18.358L80 52.794Z" style="fill:#313172;stroke:#000;stroke-width:2px;stroke-miterlimit:1.5"/><path d="M103.134 52.541h8.52L93.844 72.65l9.29-20.109Z" style="fill:#313172;stroke:#000;stroke-width:2px;stroke-miterlimit:1.5"/><path d="m70.407 53.661 19.306 14" style="fill:none;stroke:#f6f1ed;stroke-width:1.5px;stroke-linecap:butt;stroke-miterlimit:1.5"/><path d="m93.844 72.65-5.953 1.408-2.13 8.996 8.083-10.404ZM100 74.058v8.996L93.844 72.65 100 74.058Z" style="fill:#313172;stroke:#000;stroke-width:2px;stroke-miterlimit:1.5"/><path d="M70.407 68.547c4.161-1.18 8.157-2.195 11.968-3.025 8.29.345 11.631 6.594 7.427 10.785-3.888 2.291-7.923 3.407-12.162 2.893-3.854-3.25-4.22-7.352-.265-12.511m20.561 2.085c4.161-1.18 8.157-2.195 11.968-3.024 8.29.344 11.631 6.593 7.427 10.784-3.888 2.291-7.923 3.407-12.162 2.893-3.854-3.25-4.22-7.352-.265-12.51" style="fill:#fff;stroke:#000;stroke-width:2.5px;stroke-linecap:butt;stroke-miterlimit:1.5"/><path d="m92.384 39.993 3.694-.566 12.618 6.738-5.378 16.224-16.497-6.717 5.563-15.679Z" style="fill:url(#a);stroke:#98613e;stroke-width:1px;stroke-miterlimit:1.5"/><path d="m92.044 40.026-2.506.372-4.748 14.39 18.511 7.604-16.482-6.736 5.225-15.63Z" style="fill:#8b6427;stroke:#98613e;stroke-width:1px;stroke-miterlimit:1.5"/><path d="M105.067 40H86.044l-2.202-2" style="fill:none;fill-rule:nonzero;stroke:#333;stroke-width:2px"/><g id="gikopoipoi_eyes_open"><circle cx="76.815" cy="30" r="2.266" style="fill:none;stroke:#000;stroke-width:1.5px;stroke-linecap:butt;stroke-miterlimit:1.5"/><circle cx="110.808" cy="30" r="2.266" style="fill:none;stroke:#000;stroke-width:1.5px;stroke-linecap:butt;stroke-miterlimit:1.5"/></g><path d="M107.46 30.1h6.3m-40.141 0h6.3" style="fill:none;fill-rule:nonzero;stroke:#000;stroke-width:3px;display:none" id="gikopoipoi_eyes_closed"/><defs><radialGradient id="a" cx="0" cy="0" r="1" gradientUnits="userSpaceOnUse" gradientTransform="matrix(2.8883 -8.32985 9.13975 4.17927 99.232 50.52)"><stop offset="0" style="stop-color:#d8c1a9;stop-opacity:1"/><stop offset="1" style="stop-color:#fffcec;stop-opacity:1"/></radialGradient></defs></svg>