<svg width="160" height="182" xmlns="http://www.w3.org/2000/svg" xml:space="preserve" style="fill-rule:evenodd;clip-rule:evenodd;stroke-linecap:round;stroke-linejoin:round"><path d="M80.141 22h7.8l2.4 1.1 7.8-17.2 7.7 17.2 2.5-1.1 6.3 6.1 2.2 2.2-.8.8.2.2c2.8 2.733 4.367 5.767 4.7 9.1v1.2c0 2.2-.533 4.267-1.6 6.2l-.5.9-2.8 3.4.3.3-.6.5-6.5 1.8v9.4l-1.4 17.1-.1 5.5-3 2.5v24.5l-1.7 9.2h-3V136c0 .933-.3 1.7-.9 2.3-.733.733-1.8 1.1-3.2 1.1-1.533 0-2.633-.367-3.3-1.1-.6-.6-.867-1.367-.8-2.3v-13.1h-3.2l-4.119-9.903-4.881-.232-4.853 10.398L73.341 136c0 .933-.3 1.7-.9 2.3-.733.733-1.8 1.1-3.2 1.1-1.467 0-2.567-.367-3.3-1.1-.6-.6-.867-1.367-.8-2.3v-13.1h-3.1l-6.9-17.8.9-.8c1-.8 1.9-1.833 2.7-3.1l-2.5-2-1.4 1.9.8-21.9 3.5-25.6.8.7 1.5-1.4-2-2.2c-2.067-2.533-3.067-5.3-3-8.3l.1-2c.467-3.067 2.1-5.9 4.9-8.5l-1.5-1.5 1-7.9 1.3.6 7.7-17.2 7.7 17.2 2.5-1.1" style="fill:#fff"/><path d="m87.941 22 10.2-22 10.2 22-2.5 1.1-7.7-17.2-7.8 17.2-2.4-1.1m29 8.2.5-.6c3.4 3.133 5.267 6.733 5.6 10.8v1.2c0 2.533-.6 4.9-1.8 7.1-.933 1.667-2.2 3.267-3.8 4.8l-1.4-1.4 2.8-3.4.5-.9c1.067-1.933 1.6-4 1.6-6.2v-1.2c-.333-3.333-1.9-6.367-4.7-9.1l-.2-.2.9-.9m-13.9 92.7v13.2c0 1.667-.533 3.033-1.6 4.1-1.2 1.2-3.033 1.8-5.5 1.8-2.6 0-4.5-.6-5.7-1.8-1.067-1.067-1.6-2.433-1.6-4.1v-13.2h3.2V136c-.067.933.2 1.7.8 2.3.667.733 1.767 1.1 3.3 1.1 1.4 0 2.467-.367 3.2-1.1.6-.6.9-1.367.9-2.3v-13.1h3m-29.7 0h3v13.2c0 1.667-.533 3.033-1.6 4.1-1.2 1.2-3.033 1.8-5.5 1.8-2.533 0-4.4-.6-5.6-1.8-1.133-1.067-1.667-2.433-1.6-4.1v-13.2h3.1V136c-.067.933.2 1.7.8 2.3.733.733 1.833 1.1 3.3 1.1 1.4 0 2.467-.367 3.2-1.1.6-.6.9-1.367.9-2.3v-13.1m-18.2-17.8c-.933.6-2 .9-3.2.9-1.333 0-3.133-.733-5.4-2.2-1.533-.867-2.8-1.3-3.8-1.3-1.133 0-2 .367-2.6 1.1l-1.2 1.9-2.7-1.5 2.4-3.3c1.133-1.067 2.433-1.6 3.9-1.6s3 .533 4.6 1.6c2.2 1.133 3.9 1.7 5.1 1.7.8 0 1.667-.433 2.6-1.3l1.4-1.9 2.5 2c-.8 1.267-1.7 2.3-2.7 3.1l-.9.8m4-51.5-1.2-1.4c-2.467-2.933-3.667-6.2-3.6-9.8l.1-2c.467-3.733 2.3-7.067 5.5-10l1.5 1.5c-2.8 2.6-4.433 5.433-4.9 8.5l-.1 2c-.067 3 .933 5.767 3 8.3l2 2.2-1.5 1.4-.8-.7m1.8-31.1-1.1-.5 10.1-22 10.2 22-2.5 1.1-7.7-17.2-7.7 17.2-1.3-.6" style="fill:#333"/><path d="M87.941 22h-7.8m36.7 8.3-2.2-2.2m-9.3 11.9h-19l-2.2-2" style="fill:none;fill-rule:nonzero;stroke:#333;stroke-width:2px"/><path d="m70.941 40.6-4 4 3.7 3.6m-3.7-3.6v-.1 5m0-4.9-3.7 3.6m-.3-7.6 4 3.9v-5.9" style="fill:none;fill-rule:nonzero;stroke:#fea5c0;stroke-width:2px"/><path d="m121.87 112.999-77.678-.117 12.249-26.707h50.044l15.385 26.824Z" style="fill:#3e3e65;stroke:#000;stroke-width:2px;stroke-miterlimit:1.5"/><path d="M62.486 86.175 51.32 112.893l8.5.106 8.5-26.824h5.666l-5 26.824h8.5L80 86.175h5.761v26.824h9.392L91.32 86.175h5.602l7.564 26.824h8.834l-11-26.824" style="fill:none;stroke:#353564;stroke-width:2px;stroke-miterlimit:1.5"/><path d="M58.959 52.541c.875 14.77-1.577 24.273-4.118 33.634h55.365l-.909-33.028-6.282-.076-9.78 12.309L80 52.794l-21.041-.253Z" style="fill:#f6f1ed;stroke:#000;stroke-width:2px;stroke-miterlimit:1.5"/><path d="m80 52.794-20.959-.253 9.293 1.751 25.51 18.358L80 52.794Z" style="fill:#313172;stroke:#000;stroke-width:2px;stroke-miterlimit:1.5"/><path d="M103.134 52.541h8.52L93.844 72.65l9.29-20.109Z" style="fill:#313172;stroke:#000;stroke-width:2px;stroke-miterlimit:1.5"/><path d="m70.407 53.661 19.306 14" style="fill:none;stroke:#f6f1ed;stroke-width:1.5px;stroke-linecap:butt;stroke-miterlimit:1.5"/><path d="m93.844 72.65-5.953 1.408-2.13 8.996 8.083-10.404ZM100 74.058v8.996L93.844 72.65 100 74.058Z" style="fill:#313172;stroke:#000;stroke-width:2px;stroke-miterlimit:1.5"/><path d="M70.407 68.547c4.161-1.18 8.157-2.195 11.968-3.025 8.29.345 11.631 6.594 7.427 10.785-3.888 2.291-7.923 3.407-12.162 2.893-3.854-3.25-4.22-7.352-.265-12.511m20.561 2.085c4.161-1.18 8.157-2.195 11.968-3.024 8.29.344 11.631 6.593 7.427 10.784-3.888 2.291-7.923 3.407-12.162 2.893-3.854-3.25-4.22-7.352-.265-12.51" style="fill:#fff;stroke:#000;stroke-width:2.5px;stroke-linecap:butt;stroke-miterlimit:1.5"/><path d="m114.861 48.688 4.197 17.115-14.861 8.255L100 56.943l14.861-8.255Z" style="fill:url(#a);stroke:#98613e;stroke-width:1px;stroke-miterlimit:1.5"/><path d="M114.5 48.5h-3l-14 8 4 16.759 2.5.799L100 57l14.5-8.5Z" style="fill:#8b6427;stroke:#98613e;stroke-width:1px;stroke-miterlimit:1.5"/><g id="gikopoipoi_eyes_open"><circle cx="76.815" cy="30" r="2.266" style="fill:none;stroke:#000;stroke-width:1.5px;stroke-linecap:butt;stroke-miterlimit:1.5"/><circle cx="110.808" cy="30" r="2.266" style="fill:none;stroke:#000;stroke-width:1.5px;stroke-linecap:butt;stroke-miterlimit:1.5"/></g><path d="M107.46 30.1h6.3m-40.141 0h6.3" style="fill:none;fill-rule:nonzero;stroke:#000;stroke-width:3px;display:none" id="gikopoipoi_eyes_closed"/><defs><radialGradient id="a" cx="0" cy="0" r="1" gradientUnits="userSpaceOnUse" gradientTransform="matrix(7.43072 -4.12727 2.09827 8.5577 109.529 61.373)"><stop offset="0" style="stop-color:#d8c1a9;stop-opacity:1"/><stop offset="1" style="stop-color:#fffcec;stop-opacity:1"/></radialGradient></defs></svg>