<?xml version="1.0" encoding="UTF-8" standalone="no"?><!DOCTYPE svg PUBLIC "-//W3C//DTD SVG 1.1//EN" "http://www.w3.org/Graphics/SVG/1.1/DTD/svg11.dtd"><svg width="160px" height="182px" version="1.1" xmlns="http://www.w3.org/2000/svg" xmlns:xlink="http://www.w3.org/1999/xlink" xml:space="preserve" xmlns:serif="http://www.serif.com/" style="fill-rule:evenodd;clip-rule:evenodd;stroke-linecap:round;stroke-linejoin:round;"><g><g id="d"><path d="M87.941,22L90.341,23.1L98.041,5.9L105.841,23.1L108.341,22L114.641,28.1L116.841,30.3L116.141,31.1L116.341,31.3C119.141,34.033 120.674,37.067 120.941,40.4L121.041,41.6C121.041,43.8 120.508,45.867 119.441,47.8L118.941,48.7L116.141,52.1L116.341,52.3L115.741,52.9L109.241,54.7L107.741,86.7L104.741,89.2L104.741,100.7L95.641,100.7L95.641,103.8L108.841,103.8C109.774,103.8 110.541,104.067 111.141,104.6C111.874,105.333 112.241,106.433 112.241,107.9C112.241,109.3 111.874,110.367 111.141,111.1C110.541,111.7 109.774,112 108.841,112L95.641,112L95.641,115L84.041,115C85.641,115 86.941,114.467 87.941,113.4C89.141,112.2 89.741,110.367 89.741,107.9C89.741,105.367 89.141,103.5 87.941,102.3C86.874,101.233 85.508,100.7 83.841,100.7L70.641,100.7L70.641,103.8L83.741,103.8C84.674,103.8 85.441,104.067 86.041,104.6C86.774,105.333 87.141,106.433 87.141,107.9C87.141,109.3 86.774,110.367 86.041,111.1C85.441,111.7 84.674,112 83.741,112L70.641,112L70.641,115L61.641,115L55.141,108.5L55.641,79.2L59.141,53.6L59.941,54.3L61.441,52.9L59.441,50.7C57.441,48.167 56.441,45.4 56.441,42.4L56.541,40.4C57.008,37.333 58.641,34.5 61.441,31.9L59.941,30.4L60.941,22.5L62.241,23.1L69.941,5.9L77.641,23.1L80.141,22L87.941,22" style="fill:white;"/><path d="M108.341,22L105.841,23.1L98.041,5.9L90.341,23.1L87.941,22L98.041,0L108.341,22M80.141,22L77.641,23.1L69.941,5.9L62.241,23.1L60.941,22.5L59.841,22L69.941,0L80.141,22M59.941,30.4L61.441,31.9C58.641,34.5 57.008,37.333 56.541,40.4L56.441,42.4C56.441,45.4 57.441,48.167 59.441,50.7L61.441,52.9L59.941,54.3L59.141,53.6L57.941,52.2C55.541,49.267 54.341,46 54.341,42.4L54.441,40.4C54.908,36.667 56.741,33.333 59.941,30.4M54.841,101.1L56.241,99.2L58.741,101.2C57.941,102.467 57.041,103.5 56.041,104.3L55.141,105.1C54.408,105.567 53.574,105.867 52.641,106L51.941,106C50.674,106 48.908,105.267 46.641,103.8C45.041,102.933 43.774,102.5 42.841,102.5C41.641,102.5 40.774,102.867 40.241,103.6L39.041,105.5L36.341,104C36.874,102.733 37.674,101.633 38.741,100.7C39.808,99.633 41.108,99.1 42.641,99.1C44.108,99.1 45.608,99.633 47.141,100.7C49.341,101.833 51.041,102.4 52.241,102.4C53.108,102.4 53.974,101.967 54.841,101.1M70.641,115L70.641,112L83.741,112C84.674,112 85.441,111.7 86.041,111.1C86.774,110.367 87.141,109.3 87.141,107.9C87.141,106.433 86.774,105.333 86.041,104.6C85.441,104.067 84.674,103.8 83.741,103.8L70.641,103.8L70.641,100.7L83.841,100.7C85.508,100.7 86.874,101.233 87.941,102.3C89.141,103.5 89.741,105.367 89.741,107.9C89.741,110.367 89.141,112.2 87.941,113.4C86.941,114.467 85.641,115 84.041,115L70.641,115M95.641,115L95.641,112L108.841,112C109.774,112 110.541,111.7 111.141,111.1C111.874,110.367 112.241,109.3 112.241,107.9C112.241,106.433 111.874,105.333 111.141,104.6C110.541,104.067 109.774,103.8 108.841,103.8L95.641,103.8L95.641,100.7L108.941,100.7C110.608,100.7 111.974,101.233 113.041,102.3C114.241,103.5 114.841,105.367 114.841,107.9C114.841,110.367 114.241,112.2 113.041,113.4C111.974,114.467 110.608,115 108.941,115L95.641,115M107.841,81.2L104.841,81.3L104.141,78.3L106.641,78.2C110.708,77.933 113.441,77.1 114.841,75.7C115.841,74.7 116.341,73.467 116.341,72C116.341,70.4 115.808,69.067 114.741,68C113.941,67.2 112.508,66.8 110.441,66.8C108.708,66.8 106.708,67.2 104.441,68L97.741,70.5L96.441,67.3L102.741,65.5L106.741,64.5L109.241,64.1L110.741,64L114.441,64.5C115.574,64.833 116.508,65.367 117.241,66.1C118.708,67.5 119.441,69.4 119.441,71.8C119.441,74.267 118.774,76.167 117.441,77.5L116.641,78.2C114.508,79.8 111.574,80.8 107.841,81.2M116.341,52.3L116.141,52.1L118.941,48.7L119.441,47.8C120.508,45.867 121.041,43.8 121.041,41.6L120.941,40.4C120.674,37.067 119.141,34.033 116.341,31.3L116.141,31.1L116.841,30.3L116.941,30.3L117.541,29.6C120.941,32.733 122.774,36.333 123.041,40.4L123.141,41.6C123.141,44.133 122.541,46.5 121.341,48.7C120.408,50.367 119.141,51.967 117.541,53.5L116.341,52.3M90.341,66.1C91.808,67.5 92.541,69.4 92.541,71.8C92.541,74.267 91.874,76.167 90.541,77.5L89.741,78.2C87.141,80.2 83.208,81.233 77.941,81.3L77.241,78.3L79.841,78.2C83.841,77.933 86.541,77.1 87.941,75.7C88.941,74.7 89.441,73.467 89.441,72C89.441,70.4 88.908,69.067 87.841,68C87.041,67.2 85.608,66.8 83.541,66.8C81.808,66.8 79.808,67.2 77.541,68L70.941,70.5L69.641,67.3L75.841,65.5L79.841,64.5L83.841,64L87.641,64.5L90.341,66.1" style="fill:rgb(51,51,51);"/><path d="M116.841,30.3L114.641,28.1L116.941,30.3L116.841,30.3" style="fill:rgb(255,0,0);"/><path d="M87.941,22L80.141,22M104.741,100.7L104.741,89.2M116.841,30.3L114.641,28.1" style="fill:none;fill-rule:nonzero;stroke:rgb(51,51,51);stroke-width:2px;"/></g><g id="e"><path id="a" d="M105.467,40.2L86.444,40.2L84.242,38.2" style="fill:none;fill-rule:nonzero;stroke:rgb(51,51,51);stroke-width:2px;"/><path id="c" d="M71.026,40.8L67.021,44.8L70.725,48.4M67.021,44.8L67.021,44.7L67.021,49.7M67.021,44.8L63.317,48.4M63.016,40.8L67.021,44.7L67.021,38.8" style="fill:none;fill-rule:nonzero;stroke:rgb(254,165,192);stroke-width:2px;"/></g><path d="M121.87,112.999C104.647,93.925 86.555,99.823 68.213,112.918L44.192,112.882L56.441,86.175L106.485,86.175L121.87,112.999Z" style="fill:rgb(88,74,52);stroke:black;stroke-width:2px;stroke-miterlimit:1.5;"/><path d="M62.486,86.175L51.32,112.893L59.82,112.999L68.32,86.175L73.986,86.175L67.623,112.999C70.666,109.684 75.072,108.041 78.115,106.398C77.381,101.36 77.377,95.41 80,86.175L85.761,86.175C84.306,93.872 85.207,98.662 86.285,102.702L93.254,100.7L91.32,86.175L96.922,86.175L101.519,101.257C105.859,101.528 110.581,103.786 114.641,106.293C111.053,100.97 104.789,93.175 102.32,86.175" style="fill:none;stroke:rgb(76,59,32);stroke-width:2px;stroke-miterlimit:1.5;"/><path d="M74.445,41.488C74.445,41.488 76.412,46.537 76.412,48.701C76.412,49.786 75.531,50.668 74.445,50.668C73.359,50.668 72.478,49.786 72.478,48.701C72.478,46.537 74.445,41.488 74.445,41.488Z" style="fill:rgb(231,232,232);"/><path d="M68.321,19.395C68.321,19.395 70.288,24.443 70.288,26.607C70.288,27.693 69.406,28.574 68.321,28.574C67.235,28.574 66.354,27.693 66.354,26.607C66.354,24.443 68.321,19.395 68.321,19.395Z" style="fill:rgb(231,232,232);"/><path d="M93.418,53.119C93.418,53.119 95.385,58.168 95.385,60.331C95.385,61.417 94.503,62.298 93.418,62.298C92.332,62.298 91.451,61.417 91.451,60.331C91.451,58.168 93.418,53.119 93.418,53.119Z" style="fill:rgb(231,232,232);"/><path d="M100.958,25.037C100.958,25.037 102.925,30.085 102.925,32.249C102.925,33.335 102.044,34.216 100.958,34.216C99.873,34.216 98.991,33.335 98.991,32.249C98.991,30.085 100.958,25.037 100.958,25.037Z" style="fill:rgb(231,232,232);"/><path d="M93.505,102.922C93.505,102.922 95.472,107.97 95.472,110.134C95.472,111.22 94.59,112.101 93.505,112.101C92.419,112.101 91.538,111.22 91.538,110.134C91.538,107.97 93.505,102.922 93.505,102.922Z" style="fill:rgb(231,232,232);"/><path d="M58.959,52.541C59.834,67.311 57.382,76.814 54.841,86.175L110.206,86.175L109.297,53.147L103.015,53.071L93.235,65.38L80,52.794L58.959,52.541Z" style="fill:rgb(212,201,188);stroke:black;stroke-width:2px;stroke-miterlimit:1.5;"/><path d="M80,52.794L59.041,52.541L68.334,54.292L93.844,72.65L80,52.794Z" style="fill:rgb(176,131,75);stroke:black;stroke-width:2px;stroke-miterlimit:1.5;"/><path d="M103.134,52.541L111.654,52.541L93.844,72.65L103.134,52.541Z" style="fill:rgb(176,131,75);stroke:black;stroke-width:2px;stroke-miterlimit:1.5;"/><path d="M70.407,53.661L89.713,67.661" style="fill:none;stroke:rgb(246,241,237);stroke-width:1.5px;stroke-linecap:butt;stroke-miterlimit:1.5;"/><path d="M93.844,72.65L87.891,74.058L85.761,83.054L93.844,72.65Z" style="fill:rgb(176,131,75);stroke:black;stroke-width:2px;stroke-miterlimit:1.5;"/><path d="M100,74.058L100,83.054L93.844,72.65L100,74.058Z" style="fill:rgb(176,131,75);stroke:black;stroke-width:2px;stroke-miterlimit:1.5;"/><path d="M70.407,68.547C74.568,67.367 78.564,66.352 82.375,65.522C90.665,65.867 94.006,72.116 89.802,76.307C85.914,78.598 81.879,79.714 77.64,79.2C73.786,75.95 73.42,71.848 77.375,66.689" style="fill:white;stroke:black;stroke-width:2.5px;stroke-linecap:butt;stroke-miterlimit:1.5;"/><path d="M97.936,68.774C102.097,67.594 106.093,66.579 109.904,65.75C118.194,66.094 121.535,72.343 117.331,76.534C113.443,78.825 109.408,79.941 105.169,79.427C101.315,76.177 100.949,72.075 104.904,66.917" style="fill:white;stroke:black;stroke-width:2.5px;stroke-linecap:butt;stroke-miterlimit:1.5;"/><g><path d="M91.199,97.88L86.327,93.727L86.914,99.81L81.818,98.656L83.48,93.355L78.578,96.481L76.44,91.84L82.388,90.763L76.662,88.273L79.764,83.955L84.371,88.681L84.488,82.934L88.558,83.969L86.196,89.35L91.501,86.557L93.407,90.646L87.474,91.953L93.174,93.681L91.199,97.88Z" style="fill:none;stroke:rgb(78,121,127);stroke-width:1px;stroke-linecap:butt;stroke-miterlimit:1.5;"/><path d="M92.81,90.546C93.066,91.401 93.174,92.308 93.107,93.238C92.784,97.741 88.507,101.109 83.561,100.755C78.615,100.4 74.862,96.457 75.184,91.954C75.229,91.335 75.348,90.738 75.533,90.168C76.515,93.455 79.689,95.996 83.613,96.277C87.879,96.583 91.648,94.119 92.81,90.546ZM75.533,90.168C75.277,89.313 75.17,88.406 75.236,87.476C75.559,82.973 79.837,79.605 84.782,79.96C89.728,80.314 93.482,84.258 93.159,88.76C93.115,89.379 92.996,89.976 92.81,90.546C91.828,87.259 88.654,84.718 84.73,84.437C80.464,84.131 76.695,86.595 75.533,90.168" style="fill:rgb(83,129,136);stroke:rgb(78,121,127);stroke-width:1px;stroke-linecap:butt;stroke-miterlimit:1.5;"/><path d="M92.81,90.546C93.066,91.401 93.174,92.308 93.107,93.238C92.784,97.741 88.507,101.109 83.561,100.755C78.615,100.4 74.862,96.457 75.184,91.954C75.229,91.335 75.348,90.738 75.533,90.168C76.515,93.455 79.689,95.996 83.613,96.277C87.879,96.583 91.648,94.119 92.81,90.546Z" style="fill:rgb(98,151,159);stroke:rgb(78,121,127);stroke-width:1px;stroke-linecap:butt;stroke-miterlimit:1.5;"/><path d="M93.314,92.134L93.087,88.688C93.087,88.688 103.691,88.036 107.111,88.282C109.332,88.441 111.036,89.948 110.915,91.646C110.793,93.344 108.891,94.593 106.67,94.434C103.358,94.197 93.314,92.134 93.314,92.134Z" style="fill:rgb(98,151,159);stroke:rgb(78,121,127);stroke-width:1px;stroke-linecap:butt;stroke-miterlimit:1.5;"/><path d="M75.236,87.476C75.559,82.973 79.837,79.605 84.782,79.96C89.728,80.314 93.482,84.258 93.159,88.76C92.836,93.263 88.559,96.631 83.613,96.277C78.667,95.923 74.914,91.979 75.236,87.476Z" style="fill:none;stroke:rgb(78,121,127);stroke-width:1px;stroke-linecap:butt;stroke-miterlimit:1.5;"/><path d="M81.632,87.934L81.286,90.374L76.897,89.623L76.876,85.496L81.632,87.934Z" style="fill:rgb(83,129,136);"/><path d="M83.692,87.254L84.016,85.779L81.773,81.92L80.23,85.736L83.692,87.254Z" style="fill:rgb(83,129,136);"/><path d="M83.454,90.014L83.087,91.812L80.053,94.848L79.014,91.084L83.454,90.014" style="fill:rgb(83,129,136);"/><path d="M85.53,87.624L85.987,86.228L88.756,83.571L89.347,86.39L85.53,87.624Z" style="fill:rgb(83,129,136);"/><path d="M84.926,91.863L85.187,90.081L88.239,93.323L86.27,95.162L84.926,91.863Z" style="fill:rgb(83,129,136);"/><path d="M86.98,90.465L86.71,88.369L91.797,88.181L91.076,90.916L86.98,90.465Z" style="fill:rgb(83,129,136);"/><path d="M81.632,87.934C81.724,86.645 82.949,85.681 84.365,85.782C85.781,85.884 86.856,87.013 86.763,88.302C86.671,89.591 85.446,90.556 84.03,90.454C82.614,90.353 81.54,89.224 81.632,87.934Z" style="fill:rgb(98,151,159);stroke:rgb(78,121,127);stroke-width:1px;stroke-linecap:butt;stroke-miterlimit:1.5;"/><path d="M75.207,87.001L81.608,87.106L77.285,82.786L81.951,80.435L84.042,85.583L85.835,80.052L90.437,82.274L86.532,86.888L92.534,85.167L92.888,90.472L86.327,89.756L89.892,94.265L86.093,96.055L84.493,90.401L82.176,95.931L78.105,93.987L81.851,89.205L76.354,91.497L75.207,87.001Z" style="fill:none;stroke:rgb(78,121,127);stroke-width:1px;stroke-linecap:butt;stroke-miterlimit:1.5;"/></g></g><g id="gikopoipoi_eyes_open"><circle cx="76.815" cy="30" r="2.266" style="fill:none;stroke:black;stroke-width:1.5px;stroke-linecap:butt;stroke-miterlimit:1.5;"/><circle cx="110.808" cy="30" r="2.266" style="fill:none;stroke:black;stroke-width:1.5px;stroke-linecap:butt;stroke-miterlimit:1.5;"/></g><g id="gikopoipoi_eyes_closed" style="display:none"><path d="M107.46,30.1L113.76,30.1" style="fill:none;fill-rule:nonzero;stroke:black;stroke-width:3px;"/><path d="M73.619,30.1L79.919,30.1" style="fill:none;fill-rule:nonzero;stroke:black;stroke-width:3px;"/></g></svg>