<svg width="160" height="182" xmlns="http://www.w3.org/2000/svg" xml:space="preserve" style="fill-rule:evenodd;clip-rule:evenodd;stroke-linecap:round;stroke-linejoin:round"><path d="m87.941 22 2.4 1.1 7.7-17.2 7.8 17.2 2.5-1.1 6.3 6.1 2.2 2.2-.7.8.2.2c2.8 2.733 4.333 5.767 4.6 9.1l.1 1.2c0 2.2-.533 4.267-1.6 6.2l-.5.9-2.8 3.4.2.2-.6.6-6.5 1.8-1.5 32-3 2.5v11.5h-9.1v3.1h13.2c.933 0 1.7.267 2.3.8.733.733 1.1 1.833 1.1 3.3 0 1.4-.367 2.467-1.1 3.2-.6.6-1.367.9-2.3.9h-13.2v3h-11.6c1.6 0 2.9-.533 3.9-1.6 1.2-1.2 1.8-3.033 1.8-5.5 0-2.533-.6-4.4-1.8-5.6-1.067-1.067-2.433-1.6-4.1-1.6h-13.2v3.1h13.1c.933 0 1.7.267 2.3.8.733.733 1.1 1.833 1.1 3.3 0 1.4-.367 2.467-1.1 3.2-.6.6-1.367.9-2.3.9h-13.1v3h-9l-6.5-6.5.5-29.3 3.5-25.6.8.7 1.5-1.4-2-2.2c-2-2.533-3-5.3-3-8.3l.1-2c.467-3.067 2.1-5.9 4.9-8.5l-1.5-1.5 1-7.9 1.3.6 7.7-17.2 7.7 17.2 2.5-1.1h7.8" style="fill:#fff"/><path d="m108.341 22-2.5 1.1-7.8-17.2-7.7 17.2-2.4-1.1 10.1-22 10.3 22m-28.2 0-2.5 1.1-7.7-17.2-7.7 17.2-1.3-.6-1.1-.5 10.1-22 10.2 22m-20.2 8.4 1.5 1.5c-2.8 2.6-4.433 5.433-4.9 8.5l-.1 2c0 3 1 5.767 3 8.3l2 2.2-1.5 1.4-.8-.7-1.2-1.4c-2.4-2.933-3.6-6.2-3.6-9.8l.1-2c.467-3.733 2.3-7.067 5.5-10m-5.1 70.7 1.4-1.9 2.5 2c-.8 1.267-1.7 2.3-2.7 3.1l-.9.8c-.733.467-1.567.767-2.5.9h-.7c-1.267 0-3.033-.733-5.3-2.2-1.6-.867-2.867-1.3-3.8-1.3-1.2 0-2.067.367-2.6 1.1l-1.2 1.9-2.7-1.5a8.95 8.95 0 0 1 2.4-3.3c1.067-1.067 2.367-1.6 3.9-1.6 1.467 0 2.967.533 4.5 1.6 2.2 1.133 3.9 1.7 5.1 1.7.867 0 1.733-.433 2.6-1.3m15.8 13.9v-3h13.1c.933 0 1.7-.3 2.3-.9.733-.733 1.1-1.8 1.1-3.2 0-1.467-.367-2.567-1.1-3.3-.6-.533-1.367-.8-2.3-.8h-13.1v-3.1h13.2c1.667 0 3.033.533 4.1 1.6 1.2 1.2 1.8 3.067 1.8 5.6 0 2.467-.6 4.3-1.8 5.5-1 1.067-2.3 1.6-3.9 1.6h-13.4m25 0v-3h13.2c.933 0 1.7-.3 2.3-.9.733-.733 1.1-1.8 1.1-3.2 0-1.467-.367-2.567-1.1-3.3-.6-.533-1.367-.8-2.3-.8h-13.2v-3.1h13.3c1.667 0 3.033.533 4.1 1.6 1.2 1.2 1.8 3.067 1.8 5.6 0 2.467-.6 4.3-1.8 5.5-1.067 1.067-2.433 1.6-4.1 1.6h-13.3m12.2-33.8-3 .1-.7-3 2.5-.1c4.067-.267 6.8-1.1 8.2-2.5 1-1 1.5-2.233 1.5-3.7 0-1.6-.533-2.933-1.6-4-.8-.8-2.233-1.2-4.3-1.2-1.733 0-3.733.4-6 1.2l-6.7 2.5-1.3-3.2 6.3-1.8 4-1 2.5-.4 1.5-.1 3.7.5c1.133.333 2.067.867 2.8 1.6 1.467 1.4 2.2 3.3 2.2 5.7 0 2.467-.667 4.367-2 5.7l-.8.7c-2.133 1.6-5.067 2.6-8.8 3m8.5-28.9-.2-.2 2.8-3.4.5-.9c1.067-1.933 1.6-4 1.6-6.2l-.1-1.2c-.267-3.333-1.8-6.367-4.6-9.1l-.2-.2.7-.8h.1l.6-.7c3.4 3.133 5.233 6.733 5.5 10.8l.1 1.2c0 2.533-.6 4.9-1.8 7.1-.933 1.667-2.2 3.267-3.8 4.8l-1.2-1.2m-26 13.8c1.467 1.4 2.2 3.3 2.2 5.7 0 2.467-.667 4.367-2 5.7l-.8.7c-2.6 2-6.533 3.033-11.8 3.1l-.7-3 2.6-.1c4-.267 6.7-1.1 8.1-2.5 1-1 1.5-2.233 1.5-3.7 0-1.6-.533-2.933-1.6-4-.8-.8-2.233-1.2-4.3-1.2-1.733 0-3.733.4-6 1.2l-6.6 2.5-1.3-3.2 6.2-1.8 4-1 4-.5 3.8.5 2.7 1.6" style="fill:#333"/><path d="m116.841 30.3-2.2-2.2 2.3 2.2h-.1" style="fill:red"/><path d="M87.941 22h-7.8m24.6 78.7V89.2m12.1-58.9-2.2-2.2m-9.174 12.1H86.444l-2.202-2" style="fill:none;fill-rule:nonzero;stroke:#333;stroke-width:2px"/><path d="m71.026 40.8-4.005 4 3.704 3.6m-3.704-3.6v-.1 5m0-4.9-3.704 3.6m-.301-7.6 4.005 3.9v-5.9" style="fill:none;fill-rule:nonzero;stroke:#fea5c0;stroke-width:2px"/><path d="M121.87 112.999c-17.223-19.074-35.315-13.176-53.657-.081l-24.021-.036 12.249-26.707h50.044l15.385 26.824Z" style="fill:#3e3e65;stroke:#000;stroke-width:2px;stroke-miterlimit:1.5"/><path d="M62.486 86.175 51.32 112.893l8.5.106 8.5-26.824h5.666l-6.363 26.824c3.043-3.315 7.449-4.958 10.492-6.601-.734-5.038-.738-10.988 1.885-20.223h5.761c-1.455 7.697-.554 12.487.524 16.527l6.969-2.002-1.934-14.525h5.602l4.597 15.082c4.34.271 9.062 2.529 13.122 5.036-3.588-5.323-9.852-13.118-12.321-20.118" style="fill:none;stroke:#353564;stroke-width:2px;stroke-miterlimit:1.5"/><path d="M58.959 52.541c.875 14.77-1.577 24.273-4.118 33.634h55.365l-.909-33.028-6.282-.076-9.78 12.309L80 52.794l-21.041-.253Z" style="fill:#f6f1ed;stroke:#000;stroke-width:2px;stroke-miterlimit:1.5"/><path d="m80 52.794-20.959-.253 9.293 1.751 25.51 18.358L80 52.794Z" style="fill:#313172;stroke:#000;stroke-width:2px;stroke-miterlimit:1.5"/><path d="M103.134 52.541h8.52L93.844 72.65l9.29-20.109Z" style="fill:#313172;stroke:#000;stroke-width:2px;stroke-miterlimit:1.5"/><path d="m70.407 53.661 19.306 14" style="fill:none;stroke:#f6f1ed;stroke-width:1.5px;stroke-linecap:butt;stroke-miterlimit:1.5"/><path d="m93.844 72.65-5.953 1.408-2.13 8.996 8.083-10.404ZM100 74.058v8.996L93.844 72.65 100 74.058Z" style="fill:#313172;stroke:#000;stroke-width:2px;stroke-miterlimit:1.5"/><path d="M70.407 68.547c4.161-1.18 8.157-2.195 11.968-3.025 8.29.345 11.631 6.594 7.427 10.785-3.888 2.291-7.923 3.407-12.162 2.893-3.854-3.25-4.22-7.352-.265-12.511m20.561 2.085c4.161-1.18 8.157-2.195 11.968-3.024 8.29.344 11.631 6.593 7.427 10.784-3.888 2.291-7.923 3.407-12.162 2.893-3.854-3.25-4.22-7.352-.265-12.51" style="fill:#fff;stroke:#000;stroke-width:2.5px;stroke-linecap:butt;stroke-miterlimit:1.5"/><path d="m114.861 48.688 4.197 17.115-14.861 8.255L100 56.943l14.861-8.255Z" style="fill:url(#a);stroke:#98613e;stroke-width:1px;stroke-miterlimit:1.5"/><path d="M114.5 48.5h-3l-14 8 4 16.759 2.5.799L100 57l14.5-8.5Z" style="fill:#8b6427;stroke:#98613e;stroke-width:1px;stroke-miterlimit:1.5"/><g id="gikopoipoi_eyes_open"><circle cx="76.815" cy="30" r="2.266" style="fill:none;stroke:#000;stroke-width:1.5px;stroke-linecap:butt;stroke-miterlimit:1.5"/><circle cx="110.808" cy="30" r="2.266" style="fill:none;stroke:#000;stroke-width:1.5px;stroke-linecap:butt;stroke-miterlimit:1.5"/></g><path d="M107.46 30.1h6.3m-40.141 0h6.3" style="fill:none;fill-rule:nonzero;stroke:#000;stroke-width:3px;display:none" id="gikopoipoi_eyes_closed"/><defs><radialGradient id="a" cx="0" cy="0" r="1" gradientUnits="userSpaceOnUse" gradientTransform="matrix(7.43072 -4.12727 2.09827 8.5577 109.529 61.373)"><stop offset="0" style="stop-color:#d8c1a9;stop-opacity:1"/><stop offset="1" style="stop-color:#fffcec;stop-opacity:1"/></radialGradient></defs></svg>