<svg height="184" width="160" xmlns="http://www.w3.org/2000/svg"><path d="m61.043 104.127-9.847 32.803 16.966 4.082 16.135 1.044 11.231-.205 10.615-2.198 7.133-3.164 1.375-2.286-10.876-40.87-.511-5.357-29.946-6.948 2.344 28.178-8.876.593z" fill="#e11e1e" fill-rule="evenodd"/><path d="m80.647 88.825-.1.1h.4l-.3-.1m-18.4 12.6v-.1q1.1-3.1 2.1-11.7l.1-3.6 2.2.5 7.1 1.7 11.9.7h1.3l1.1-.1h3.5l5.3-.2h.4l1.7-.1.4-.1h.2q7-.6 8.7-2l.9 3.3v.1l.7 2.7.4 1.5.1.2.1.3v.2l.1.2.2.7.1.7.1.3.2.6v.1l.5 1.8.3 1.4.2.8 1.2 5.2.4 1.9 1.1 3.7 1.8 5.9.3.8.7 2.4-.8.4.8-.2 3.8 13.5q0 1.6-1.5 2.8-2.7 1.1-7.4 2.3l-1.5.3-1.3.3-.5-10.5-.5-6q-.7-8.5-3.1-15.7l-1.3-3.7-1.2-2.7 1 30.7q0 6.2-2.4 9.1l-.2.3-.9.2-5.4.4-1.1-.1h-.5l-.3.1-2.3.3-14.9-1.2v-7l.7-4.7 3.3-19 .1-.5.4-2.2v-.1l1.3-8v-.3l-.1-.6-4 8.9v.1l-.8 1.6q-4.4 9.5-7.1 20.1l-2.2 10.2q-20.1.4-16-7.9l.8-2.3.9-2.9 1.2-3.6 4.9-15.2 1.5-4.9.3-1.2.1-.4.2-.6h.2l.3.1h.1q-.3.6-.9.9.6-.3.9-.9m26.5-12.6-1.8.1 1.8-.1m5.4 53.8 7.6-.8-7.6.8" fill="#e11e1e" fill-rule="evenodd"/><path d="m80.647 88.825.3.1h-.4l.1-.1" fill="#fff" fill-rule="evenodd"/><path d="m105.747 141.425-3.6.6-.3.1h-.3l.2-.3q2.4-2.9 2.4-9.1l-1-30.7 1.2 2.7 1.3 3.7q2.4 7.2 3.1 15.7l.5 6 .5 10.5-1.1.2-2.9.6-4 .4 4-.4" fill="#b42121" fill-rule="evenodd"/><path d="m76.147 141.825-4.6-.8-1.1-.2-2.7-.5 2.2-10.2q2.7-10.6 7.1-20.1l.8-1.6v-.1l4-8.9.1.6v.3l-1.3 8v.1l-.4 2.2-.1.5-3.3 19-.7 4.7v7" fill="#ae1717" fill-rule="evenodd"/><path d="m117.647 121.225.1.2h-.1v-.2.2l-.8.2.8-.4" fill="#d60c0c" fill-rule="evenodd"/><path d="m120.747 129.925.2.2h-.1l-.1-.2" fill="#d92d2d" fill-rule="evenodd"/><path d="m60.547 103.525.2-1.8v.9l-.2.9" fill="#d70404" fill-rule="evenodd"/><path d="M85.847 88.925h1.1l1.8-.1m1.1 0h1.7l5.3-.2h.4l2.1-.2h.2" fill="none" stroke="#333" stroke-linecap="round" stroke-linejoin="round" stroke-width="2"/><path d="M62.247 101.425v-.1q1.1-3.1 2.1-11.7l.1-3.6 2.2.5 7.1 1.7 11.9.7h.2m1.1 0 1.1-.1h1.8m9.7-.4q7-.6 8.7-2l.9 3.3v.1l.7 2.7.4 1.5.1.2.1.3v.2l.1.2.2.7.1.7.1.3.2.6v.1l.5 1.8.3 1.4.2.8 1.2 5.2.4 1.9 1.1 3.7 1.8 5.9.3.8.7 2.4.1.2m-.1 0 3.8 13.5q0 1.6-1.5 2.8-3.2 2.5-12.7 3.5l-1.5.2-4 .4-7.6.8h-.2l-.6.1-2.3.3-14.9-1.2-4.6-.8-1.1-.2-2.7-.5q-20.1.4-16-7.9l.8-2.3.9-2.9 1.2-3.6 4.9-15.2 1.5-4.9.3-1.2.1-.4m.8-.5q-.3.6-.9.9m35.9-13.7 1.7-.1.4-.1m18.3 33v-.2m-24.3 21.5.3-.1" fill="none" stroke="#2e2e2e" stroke-linecap="round" stroke-linejoin="round" stroke-width="2"/><path d="m111.247 48.425-.2-.2 2.8-3.4.5-.9q1.6-2.9 1.6-6.2v-1.2q-.5-5-4.7-9.1l-.2-.2.8-.8.6-.7q5.1 4.7 5.6 10.8v1.2q0 3.8-1.8 7.1l-3.8 4.8-1.2-1.2m-56.3-21.9 1.5 1.5q-4.1 3.9-4.8 8.5l-.2 2v.3q.1 3.4 1.9 6.4l1.1 1.6 2 2.2-.8.8-.7.6-.8-.7-.5-.6-.7-.8q-3.5-4.2-3.6-9.5v-.3l.2-2q.6-5.6 5.4-10" fill="#333" fill-rule="evenodd"/><path d="m111.847 26.425-.8.8.2.2q4.2 4.1 4.7 9.1v1.2q0 3.3-1.6 6.2l-.5.9-2.8 3.4.2.2-.6.6-6.5 1.8v6.8h-9.9l-14.4 14-15.7-14h-.3l-3.8-6.2-4.4-1.6.8-.8-2-2.2-1.1-1.6q-1.8-3-1.9-6.4v-.3l.2-2q.7-4.6 4.8-8.5l-1.5-1.5 1-7.9.4.2-.4.7 2.1 1 6.6-14.7 6.6 14.7 2.1-1-.2-.5 2-.9h7.8l2.4 1.1.2-.3 5.1 1.6 6.6-14.7 6.6 14.7 1.3-.6 4.4 4.3 2.3 2.2-2.3-2.2 2.3 2.2" fill="#fff" fill-rule="evenodd"/><path d="m105.147 19.925-1.3.6-6.6-14.7-6.6 14.7-2.1-1 8.7-18.8 8.7 18.8-.8.4m-32-.9.2.5-2.1 1-6.6-14.7-6.6 14.7-2.1-1 .4-.7 8.3-18.1 8.5 18.3" fill-rule="evenodd"/><path d="m111.847 26.425-2.3-2.2" fill="none" stroke="#333" stroke-linecap="round" stroke-linejoin="round" stroke-width="2"/><path d="m100.047 36.325-4 4 3.7 3.6m-3.7-3.6v-.1 5m0-4.9-3.7 3.6m-.3-7.6 4 3.9v-5.9" fill="none" stroke="#fea5c0" stroke-linecap="round" stroke-linejoin="round" stroke-width="2"/><path d="m115.347 62.525.2-.6.2.6h-.4m-64.5 6.4h-.1l-.1-.2.5-.1-.3.3m-15.1 19.7.6.2 2.2 2.8.8.9-1.9 1.5-.3.4-2.3-2.4v-1.3l.5-1.3.4-.8m4.8 9.1 2.4-1.9.6.5 3.2 2.5-2.5 1.8-3.7-2.9m7.9 6.6 1-1.3 1.1-1.3 1.8 1.3 2 .9-1.5 2.8-1-.5-1-.5-2.1-1.2-.3-.2m27.7-25.8.3.1v.1l-.3-.2m3.8 1.9 1.1-.9q1.6 1.3 1.6 2.3v.4q-2.4 1.1-4.1 4l-.8 1.3-.8.5-2.1-.4h-.3q1.5-.7 3.1-2.3 2.6-2.6 2.6-4.7l-.3-.2m30.3 26.2-.2-.6-.4-2.6 1.7-.4 2.9-.8 1.3-.5.1 1.3.3.9.3.7-1.1.5-.6.2h-.1l-.2.1-4 1.2m10.6-4.1-.9-2.7 5-3.3q.5 1.4 1.5 2.5l-4.1 2.8-.4.1-.4.3-.7.3m-13.7-31.2-1.3.4 1.2-.8.1.4" fill="#d92d2d" fill-rule="evenodd"/><path d="m115.547 61.925-.2.6-1.1 1.9-.1.2-.6.7-2.4 2.6-.1.1-2.2 1.6-1.8 1.3-1.2.8 1.3-.4 1.2-.4.5-.1 4-1.3 1.4-.9.8-.7 1.5 3 2 4.3 1.7 3 2.5 2.7 3.7 8.1-3.7-8.1.5.5q1.9 1.8 2.7 5.6l.5 2 .9 2.1 2.1 5.4-2.1-5.4 1.7 2.2 1 2.4v.2l-.6.6-3 2.5q-1-1.1-1.5-2.5l-5 3.3.9 2.7-4.6 2.1-.3-.7-.3-.9-.1-1.3-1.3.5-2.9.8-1.7.4.4 2.6.2.6-.9.2-.5.1h-.1l-1.6-1.1-.5-1.8v-.1l-.2-.6-.1-.3-.1-.7-.2-.7-.1-.2v-.2l-.1-.3-.1-.2-.4-1.5-.7-2.7v-.1l-.9-3.6.5-1.2-.6-1.9-.2-.6.2.6.6 1.9-.5 1.2q-1.8 1.7-9.3 2.4l-2.6.1q-3.8-5.4-6.4-7.9h.3l5.8 1.5q1.3 0 4.1-2.4l6.6-1.3.5-.1v-3.4l-.5-1.3v-.1l-.1-.6.1-.2.1-.7-.1-.2v-.3l-.2-.2v-.6.4l-2.7.7-1.3.2-1.6-1.9q-2.6-2.6-4-2.6-.5 0-10.6 4.7-.4.1-.8.5l-1.1.9-3.5-1.7v-.1l-.3-.1-10.3-6.2q-1.2 2.2-1.6 5.5l-3.4-.7q-.6 2.6-.6 6.1 0 .6.7 1.9l-1.7 6.2v1.2l.7.2-.7-.2v-1.2l1.7-6.2 5.8 1.6.5.2q2.6 1.2 4.9 1.2l1.1-.1-1.1.1q-2.3 0-4.9-1.2l-.5-.2-5.8-1.6 4.7.9 1.1.7-1.1-.7 8.3.8.1.2.1.4v.1l.4.1-1.3.4q-2.4 3.4-4 6.9l-7.1-1.7-2.2-.5-.1 3.6q-1 8.8-2.1 11.8h-.1l-.5-.1-.8-.2-3.5-1.1 1.5-2.8-2-.9-1.8-1.3-1.1 1.3-1 1.3-1.8-1.3-.7-.6-5.4-4.7-1.1-1-.6-.5-.3-.3-1.4-1.5.3-.4 1.9-1.5-.8-.9-2.2-2.8-.6-.2.2-.5 1.2-2.7 1.4-2 3.3-4.5.2-.3 6.4-9 1.4-1.9.8 1-.8-1 .1-.1 1.2.7v.3l-.5.1.1.2h.1l2.8 2q2.4 1.4 6.2 2.8l-2.1-2.8-5.1-7-.7-1-.2-.4-.2-.3-.5-1v-.1l-.3-.6-.2-.7.2-.3.2-.3.1-.2 1.3-2.1.2-.2 3.8-3.5.9-.9.5-.5q1.8-1.3 5.6-1.3l1.6.3q1.5.2 3.8 1.5l13.3 1q11-.3 22.4-2.9l4 .3.4.2.5.2h-.1l1.7 2.2 2 2.6.1.2 2.5 5.7v.1m-75 35.8 3.7 2.9 2.5-1.8-3.2-2.5-.6-.5-2.4 1.9m62.5-9.6-.3-3 .3 3 .2.9v1.7-.2l.2-.2v-.6l-.3-1.6.3 1v-.5l-.2-.2v-.3h-.2m1.6-16 1.2-.4-1.2.4m-44.3-3.2h-.2.2m-23.7 13.3v-.2l.1.1-.1.1m-4.2 6.3v-.2l.1.1-.1.1m80.8-24.1-.3.1h.1l.2-.1m-23.1-6.5v-.1l-.1.1v.1l.1-.1m-.4.3-.3.1v.2l.3-.3m-7.3 31.2 2.6 6.1h-1.5l-2.4.1-2.6.1 1.2-6.5 1.4.5 1.3-.3m-6 6.2h-.4l.1-.1.3.1m-2.3-8.2-7.4-.7 7.4.7" fill="#fff" fill-rule="evenodd"/><path d="M115.347 62.525h.4l.3 2.1q.1 2.1-1 3.3l-.8.7-1.4.9-4 1.3-.5.1-1.2.4-.1-.4 1.8-1.3 2.2-1.6.1-.1 2.4-2.6.6-.7.1-.2 1.1-1.9m-64.8-2.7.2.7.3.6v.1l.5 1 .2.3.2.4.7 1 5.1 7 2.1 2.8q-3.8-1.4-6.2-2.8l-2.8-2 .3-.3v-.3l-1.2-.7-.1.1-.5-1.6.8-3.6.1-.3.2-1.1.1-1.3m6.6 48.2.5.1h.1l-.9.9.1-.4.2-.6m3.8-22.9q-.7-1.3-.7-1.9 0-3.5.6-6.1l3.4.7-.4 5.1q0 1.7 1.8 3.1l-4.7-.9m37.1-6.3 1.3-.2 2.7-.7v.1l.1 1.7.1.6v.1l.5 4.3v.4l-.5.1-6.6 1.3.2-.2q3.2-2.9 3.2-5.4l-1-2.1m-14.5 7.9-.1.8q-.2 1.3-1 1.9l-1.3.3-1.4-.5-2.8-1.2.8-.5.8-1.3q1.7-2.9 4.1-4l-1.1 1.7q-1.1 1.2-.9 1.8l2.9 1m1.9.7.1-.1.2.1h-.3" fill="#e11e1e" fill-rule="evenodd"/><path d="M109.247 51.125h.2-.2m-53.4.1h.2v.1l-.2-.1" fill="#d70404" fill-rule="evenodd"/><path d="M60.347 68.925h-.2.2m52.9-4.5-.2.1h-.1l.3-.1m-39.9 14.6-.1.2v-.2h.1" fill="#fc1f1f" fill-rule="evenodd"/><path d="M102.047 77.925v-.4.6-.2m.2 2.5.5 1.3v3l-.5-4.3m-51.1-12.1v.3-.3m52.1 28.5h-.1.1" fill="#6a6a6a" fill-rule="evenodd"/><path d="M64.247 77.825q.4-3.3 1.6-5.5l10.3 6.2.3.2 3.5 1.7.3.2q0 2.1-2.6 4.7-1.6 1.6-3.1 2.3l-.4-.1v-.1l-.1-.4-.1-.2-8.3-.8q-1.8-1.4-1.8-3.1l.4-5.1m16.8 1.7q.4-.4.8-.5 10.1-4.7 10.6-4.7 1.4 0 4 2.6l1.6 1.9 1 2.1q0 2.5-3.2 5.4l-.2.2q-2.8 2.4-4.1 2.4l-5.8-1.5-.2-.1-2-.6 2 .6-.1.1q2.6 2.5 6.4 7.9l1.5 2.2q6 8.8 6.5 13.9l-1.2-2.7.2 5.4-9.2 2.2q1.1-3.1-2.4-14.2l-2.2-6.6-2.6-6.1q.8-.6 1-1.9l.1-.8-2.9-1q-.2-.6.9-1.8l1.1-1.7v-.4q0-1-1.6-2.3m-8.6 1.9.4 1.8-.2-3-.2 1.2m.9-2.4h-.1v.2l.1-.2m1.2 8.6h.3l2.1.4 2.8 1.2-1.2 6.5q-1.1 8-1.1 11.3 0 3.9.6 6.9v1l-8 .2q-2.6 0-3.2-1.2-.4-.9-.4-5.4 0-7.1 2.8-13.6 1.6-3.5 4-6.9l1.3-.4m1.9 8-.3-.1-.1.1h.4m20.5 8.5-.5.2.5-.1v-.1" fill="#e22929" fill-rule="evenodd"/><path d="m102.047 78.125.2.2v.3l.1.2-.1.7-.1.2-.1-1.7v.1m-29.6 3.3.2-1.2.2 3-.4-1.8" fill="#df0202" fill-rule="evenodd"/><path d="M103.047 88.125h.2v.3l.2.2v.5l-.3-1 .3 1.6v.6l-.2.2v.2-1.7l-.2-.9" fill="#333" fill-rule="evenodd"/><path d="m98.847 114.125-.2-5.4 1.2 2.7v.7l-.2 1.8-.8.2" fill="#b42121" fill-rule="evenodd"/><path d="m115.547 61.925-.2.6-1.1 1.9-.1.2-.6.7-2.4 2.6-.1.1-2.2 1.6-1.8 1.3-1.2.8-1.2.4m8.4-16-.1-.2-2-2.6-1.7-2.2m.1 0-.5-.2-.4-.2-4-.3q-11.4 2.6-22.4 2.9l-13.3-1q-2.3-1.3-3.8-1.5l-1.6-.3q-3.8 0-5.6 1.3l-.5.5-.9.9-3.8 3.5m-2 3.1.2.7.3.6v.1l.5 1 .2.3.2.4.7 1 5.1 7 2.1 2.8q-3.8-1.4-6.2-2.8l-2.8-2h-.1l-.1-.2-.8-1-1.4 1.9-6.4 9-.2.3-3.3 4.5-1.4 2-1.2 2.7-.2.5m1.4 5.8 1.4 1.5.3.3.6.5 1.1 1 5.4 4.7.7.6 1.8 1.3m4.4 2.4 3.5 1.1.8.2.5.1m.1 0q1.1-3 2.1-11.8l.1-3.6-.7-.2v-1.2l1.7-6.2q-.7-1.3-.7-1.9 0-3.5.6-6.1l3.4.7q.4-3.3 1.6-5.5l10.3 6.2.3.2 3.5 1.7 1.1-.9q.4-.4.8-.5 10.1-4.7 10.6-4.7 1.4 0 4 2.6l1.6 1.9 1.3-.2 2.7-.7v-.4m.1 2.2.1.6v.1m.5 4.3v.4l.3 3m.4 1 .2.6.6 1.9-.5 1.2.9 3.6v.1l.7 2.7.4 1.5.1.2.1.3v.2l.1.2.2.7.1.7.1.3.2.6v.1l.5 1.8 1.6 1.1h.1l.5-.1.9-.2m6-2 4.6-2.1m5.6-3.5 3-2.5-2.1-5.4-.9-2.1-3.7-8.1-6.2-12.9m-1.5-.1-.8.7-1.4.9-4 1.3-.5.1-1.2.4-1.3.4m9.7-9.9.1-.6-.5-2-.9-1.5-.8-1.1-.4-.5m-62.5 3.7v-.6l.2-.7.3-.6q.5-.6 1.3-1m-2.5 10.8-.5-1.6m-14.5 24.6.5-1.3.4-.8m1.4 5.8-2.3-2.4m38.4-4-1.1.1q-2.3 0-4.9-1.2l-.5-.2-5.8-1.6m4.7.9q-1.8-1.4-1.8-3.1l.4-5.1m2.5 8.9-1.1-.7m3.6 8.9-7.1-1.7-2.2-.5m49.4-41.6h.1q1 .7 1.5 2.2m-25.4 34-2-.6-.1.8q-.2 1.3-1 1.9l2.6 6.1 2.2 6.6q3.5 11.1 2.4 14.2l9.2-2.2m1-2.7q-.5-5.1-6.5-13.9l-1.5-2.2q-3.8-5.4-6.4-7.9m.1-.1.2.1 5.8 1.5q1.3 0 4.1-2.4l.2-.2q3.2-2.9 3.2-5.4l-1-2.1m-17.4 6.9 2.9 1m-3.8 2.5 1.4.5 1.3-.3m-5.5-1.4 2.8 1.2-1.2 6.5 2.6-.1 2.4-.1h1.5m-10.5-7.9-1.3.4q-2.4 3.4-4 6.9-2.8 6.5-2.8 13.6 0 4.5.4 5.4.6 1.2 3.2 1.2l8-.2v-1q-.6-3-.6-6.9 0-3.3 1.1-11.3m23.5-17.7v-.1m.1 1.8-.1-1.7m-6.4 8.5 6.6-1.3m.5-.5-.5-4.3m.9 7.7.3 1m.3 3.7q-1.8 1.7-9.3 2.4l-2.6.1m-25.1-8.6 7.4.7m25.7 24v.7l-.2 1.8-.8.2m-46-7.4-1-.5-1-.5-2.1-1.2-.3-.2m78-5.3-4.1 2.8-.4.1-.4.3-.7.3m-4.6 2.1-1.1.5-.6.2h-.1l-.2.1-4 1.2" fill="none" stroke="#2e2e2e" stroke-linecap="round" stroke-linejoin="round" stroke-width="2"/><path d="M74.547 87.625q1.5-.7 3.1-2.3 2.6-2.6 2.6-4.7l-.3-.2m2.7 1.8v-.4q0-1-1.6-2.3m1.6 2.7-1.1 1.7q-1.1 1.2-.9 1.8" fill="none" stroke="#492727" stroke-linecap="round" stroke-linejoin="round" stroke-width="2"/><path d="M102.367 27.924h6.3" fill="none" stroke="#000" stroke-linecap="round" stroke-linejoin="round" stroke-width="3" id="gikopoipoi_eyes_closed" style="display:none"/><path d="M105.367 25.124h1.4l-1.8 2.8h1.5v3.4h-3.4v-3.2l2.3-3" fill="#000" fill-rule="evenodd" stroke="none" id="gikopoipoi_eyes_open" style="display:inline;stroke-width:2"/></svg>