<svg width="1200" height="945" xml:space="preserve" style="fill-rule:evenodd;clip-rule:evenodd;stroke-linejoin:round;stroke-miterlimit:2" xmlns="http://www.w3.org/2000/svg"><path d="m640.391 763.323 161.016 95.327c-140.441 29.078-319.034 21.983-468.842-24.685-107.573-49.03-40.844-22.036-12.415 32.809 178.485 36.479 321.311 53.87 499.796 39.85l79.278 65.543c-61.998 53.693-174.133 65.163-245.498 17.858-157.958-28.492-190.936-39.534-90.785-.891 127.331 74.716 254.663 61.596 381.995 26.726 88.454 53.88 141.094 81.19 168.424 86.25-124.869 37.06-267.613 48.42-426.44 42.76-72.273-1.76-160.066-1.07-241.709-87.02-57.023-55.55-62.201-71.472-44.508 1.15 62.812 74.59 138.063 115.65 228.974 114.49-79.981 65.62-193.063 55.6-319.894 11.78-230.989-51.68-138.865-23.37-42.603 16.84 110.507 47.69 185.375 76.92 305.253 57.24l148.627-74.31c153.197.34 296.23-11.66 415.46-29.63 75.32 49.22 121.46 92.47 115.26 129.49l35.15 331.7-27.58 215.19v171.73l3.09 78.15c39.67 80.55 163.47 75.93 225.89 36.33 29.76-100.66 28.85-270.23 21.07-455.22 11.4-94.7 15.53-256.75-10.54-393.52 130.18-103.1 227.92-117.82 320.46-187.42l203.23-60.61c55.03-13.53 131.63-35.826 152.7-85.966 59.41-104.265 38.8-96.186-10.54-47.776-21.6 52.004-55.18 82.472-103.95 85.649l-228.97 57.243c23.65-66.941 61.31-133.883 112.14-200.824 7.04-20.592-10.18-19.54-82.87 43.732l-86.52 128.472c-16.65 49.29-235.48 164.55-286.21 143.11V973.137l150.51-39.231 522.36-199.211c175.94 32.274 321.9 47.164 488.48 28.935L2782 713.253c88.49-75.128 67.43-67.201-34.32-26.333l-100.44 41.029c-63.63 23.127-309.09 7.939-419.55-42.578 77.43-48.057 183.18-103.781 298.04-135.03l221.95-35.151c86.13 4.281 209.67-9.731 324.04-47.531l157.23-112.537c73.21-89.577 108.98-142.355-35.65-17.828l-128.53 76.595c39.19-42.558 17.91-64.516.9-107.074-83.17-75.2-74.67-78.053-49.15-.667 75.71 40.514 13.97 62.169 3.33 88.026-26.46 64.286-90.57 70.557-191.97 67.486-107.99 12.757-242.14 21.251-359.49 42.42 53.1-71.147 103.36-150.342 329.51-284.358 132.54-10.792 179.16-59.824 236.69-87.466 135.96-83.452 107.91-85.026-.69-46.391l-135.56 79.336c-130.55 8.134-179.79 16.536-244.77 100.417-22.96 16.866-38.7 24.795-5.09-93.888l41.96-85.865L2769 10.66c38.52-58.185 47.23-86.912-50.27-10.66L2618.1 107.958l-38.64 66.711-60.75-75.602-21.28-31.826c-81.48-55.39-107.92-53.422-80.71 1.058l44.74 17.566c33.6 43.291 81.59 101.136 57.25 85.865 100.34 127.495 56.06 137.888 35.59 160.687l-69.41 85.197-137.91 126.198c-36.68-125.394-42.38-181.21-57.25-257.595 50.56-66.784 62.9-133.568 57.25-200.352L2322.73 16.5l-33-16.5c-1.55 53.876 36.44 132.399-6.09 177.071l-33.25 51.524c1.28 95.496-179.86-59.43-192.74-94.259-10.07-27.25-10.89-79.716 3.11-134.336-4.03-44.558-19.25-48.907-57.24 28.622-1.46 83.336 11.96 113.212 29.26 129.12 66.57 76.185 133.14 131.409 199.71 157.096 48.95 120.282 49.81 191.69 42.43 244.588l-190.31 115.57-384.87 154.816-211.41 28.838 25.73-273.351c109.36-5.211 206.46-39.812 287.73-112.353l148 .781 142.69-47.42 64.23-123.414-38.71 11.945-57.24 85.865c-56.12 26.593-115.08 26.556-193.45 12.112l21.72-40.733c45.46-19.678 105.71-165.889 96.31-174.332-30.62-65.893-42.41-94.422-39.07-26.02l-50.81 120.366c-40.08 99.681-258.72 248.315-363.94 194.472-8.21 27.787-8.17.269-21.72-186.883l6.63-58.087 107.62-59.25 177.53-238.917L1717.3 0l-57.24 85.865-93.42 63.556-74.8 34.933-25.43-80.824c-4.8-52.394 34.92-167.911 67.58-220.306l-63.29 41.029-59.78 160.169c12.38 96.619-20.37 135.321 17.78 213.003-53.49-9.834-82.39-1.483-135.88 5.522-68.4-9.165-136.8-42.932-205.2-102.595L1059 71.551 1030.38 0c-78.14-92.786-61.839-54.015-24.45 24.184l24.45 90.303v57.243c-49.333 14.379-85.532-10.584-114.487-57.243l-33.676-53.484c-74.973-55.991-82.67-64.07-55.744-16.293l56.864 110.742c64.836 49.386 109.396 66.889 147.043 73.521l125.27 81.214c63.18 18.389 136.28 48.55 218.19 33.273 30.58 3.229 46.19 13.186 49.6 28.622-17.91 67.832-29.61 139.601-28.79 215.85l-26.71 116.454c-115.23-3.317-189.62-44.945-304.84-115.593-42.09-2.908-93.348-80.024-144.892-159.417l-39.383-152.778-20.175-76.246C786.213 40.59 771.958 44.636 801.407 171.73l28.454 100.259 28.789 157.336 108.787 145.411c-50.889 20.715-149.676-42.56-209.96-148.37l-58.273-137.011-30.114-58.093c-50.824-172.526-36.646-66.228-39.413 7.998l24.701 87.929c24.226 88.629 69.275 149.193 120.698 201.167l83.574 72.699L544.4 443.93c-28.818-6.014-62.73-7.335-91.548-63.85-97.333-253.211-84.123-188.97-52.149-7.998 43.317 70.582 80.538 102.824 114.487 114.486L836.772 647.36l123.512-3.913 90.236-3.699c99.17 69.586 198.34 115.072 297.51 117.322l-11.14 140.347-15.51 115.513-10.71 106.08c-15.45-35.38 6.36 42.03-95.69-45.23l-102.54-88.453c14.65-50.252-1.91-128.545-24.82-212.542l-31.6-41.441-137.491-32.106c84.291 29.675 134.641 66.972 137.431 114.957l-15.04 139.572c-60.758-15.488-118.002-41.353-178.757-124.172 0 33.792-231.645-120.493-289.73-257.162l-56.367-1.462c-26.184-9.445-31.992-4.552-58.176-2.899-23.366 1.475-46.731 12.237-70.097 23.653l-70.298 37.165 133.427-27.618 91.406 13.352 55.92 85.203-177.61-11.79-159.059-42.057c-102.077-12.579-77.418-4.464-9.681 31.785l148.805 37.777z" style="fill:url(#a)" transform="matrix(.12983 0 0 .1445 564.343 93.695)"/><defs><radialGradient id="a" cx="0" cy="0" r="1" gradientUnits="userSpaceOnUse" gradientTransform="matrix(61.1105 -1898.32 1751.45 45.5232 1378.65 2015.81)"><stop offset="0" style="stop-color:#646464;stop-opacity:1"/><stop offset=".54" style="stop-color:#68605a;stop-opacity:.81"/><stop offset="1" style="stop-color:#775236;stop-opacity:.14"/></radialGradient></defs></svg>