<svg width="1200" height="945" xml:space="preserve" style="fill-rule:evenodd;clip-rule:evenodd;stroke-linejoin:round;stroke-miterlimit:2" xmlns="http://www.w3.org/2000/svg"><path d="M833.008 443.713c-3.072-2.967-4.706-2.168 5.416 2.966 19.45 6.743 45.367 8.016 63.601 3.815l-23.883-16.752-31.119-6.904-19.32-5.458c-7.154.341-10.595-.853 1.753-2.112l21.644 6.077 23.308 2.696-8.997-15.785-11.868-1.929-16.186 5.697 8.734-5.836c3.034-1.649 6.316-1.715 9.349-1.929 3.4-.238 3.906-.449 7.305.916l6.822 1.452c7.542 19.747 37.617 41.048 37.617 36.165 7.888 11.966 18.298 20.914 26.186 23.152l10.635 8.481c-5.903-7.932-9.975-20.137-11.908-37.332-.234-4.498-3.068-8.346-8.018-11.665l-9.825-4.945c3.845 1.506 7.145 3.148 9.825 4.945l6.785 3.415 6.585 16.161c2.974 21.882 3.883 7.422 1.981 16.816l13.313 12.781c13.25 12.608 10.419 1.423 12.425 6.535l1.39-15.327 3.676-15.924 2.214-21.302c-12.875-.325-28.181-6.642-41.057-16.696l-11.716.534-16.036.566-41.752-23.233c-4.408-1.686-9.24-6.344-14.864-16.543-4.151-26.149-7.852-32.702 4.786 3.885 3.741 8.166 11.122 10.59 14.863 11.459l43.851 20.552-14.894-13.316c-6.676-7.509-10.044-12.29-13.189-25.097l-3.704-13.697c.36-10.725-2.474-19.633 4.125 5.296l3.414 10.13 7.565 14.587c7.827 15.288 24.127 20.709 30.734 17.716l-16.357-21.259-4.234-22.237-2.206-11.013c-1.853-8.908-4.352-12.505 3.71 4.135l1.627 7.047 4.369 22.076c6.692 11.471 15.085 23.11 20.549 23.53 14.96 10.208 28.514 16.119 42.234 14.861l4.619-17.466c-.106-11.018.645-21.132 2.971-30.933-.443-2.23-4.516-3.925-8.487-4.391-10.635 2.207-20.125-2.151-28.329-4.808l-16.264-11.735c-4.888-.958-10.673-3.487-19.091-10.623l-7.383-16.001c.722-2.361 2.836 5.492 7.676 8.312l5.073 7.991c5.829 4.672 11.573 7.848 16.967 6.781l-1.139-11.6-3.787-12.873c.029-4.374-2.025-5.479 2.473-1.304l2.839 12.441 3.717 17.735c9.028 10.329 26.5 13.596 35.052 11.144 6.944-1.012 3.688.76 10.633 2.181-2.294-7.291-3.904-29.895-1.367-29.551l4.901-12.304c1.388 5.779-.576 7.057.048 14.627l1.724 10.54 13.918-5.924 10.2-10.585 8.75-11.881 6.38-1.418-20.51 25.575-13.969 8.561-2.523 8.521c2.284 28.882 1.06 34.826 2.126 30.811 12.826 7.448 43.476-15.814 51.796-28.969l6.34-16.077c.81-1.869-.37-7.161 3.14-.621 1.22 1.22-6.6 22.346-12.5 25.189l-6.76 9.916c10.17 2.087 23.87-.273 31.16-4.116l6.82-13.896 3.53-1.901-8.34 17.832-18.52 6.852-19.22-.113c-10.55 10.482-24.82 15.481-39.019 16.234l-4.482 45.368 33.141-7.497 50.67-22.019 24.1-16.962c.96-7.643-2.13-20.589-8.49-37.969-8.64-3.712-14.83-9.588-23.47-20.596-2.25-2.299-5.48-5.214-5.29-17.255 4.93-11.203 5.94-14.079 6.46-7.641-14.57 15.98 17.57 46.606 26.29 36.973l4.58-8.058c5.52-6.455.76-16.749.96-24.534l2.01-.507c.5 5.834.78 10.762 1.92 13.703.74 9.649.54 14.13-6.03 23.779 1.93 11.037 2.76 22.257 7.52 40.375l18.52-19.374 10.15-12.66c2.66-3.295 6.57-6.461-6.46-24.883 3.16 2.206-3.07-6.152-7.43-12.407l-5.81-2.538c-3.53-7.872-.01-5.002 10.57 3.001l2.85 3.372c9.79 20.311 6.59 11.117 8.76 15.042l5.28-14.108 11.4-14.284c12.66-11.018 11.88-9.759 6.88-1.351l-10.2 10.866-5.45 12.407c-4.36 17.149-3.2 20.734-.22 18.297 8.44-12.12 16.41-16.488 33.36-17.663l17.43-11.289c9.18-3.942 17.12-7.076-.44 4.951-7.47 3.994-13.52 11.079-30.73 12.638-29.36 19.365-40.36 34.663-47.25 44.943 15.24-3.059 34.41-4.987 48.43-6.83 13.16.443 23.97-1.664 28.86-10.277 1.47-2.59 8.32-7.591-1.66-15.348-.63-6.864 2.33-4.747 7.79 3.426 2.2 6.149 1.03 10.724-4.06 16.873l19.84-13.345c18.78-17.993 13.52-12.821 4.02.123l-20.42 16.26c-14.85 5.462-30.89 7.487-42.07 6.868l-28.82 5.079c-14.91 4.515-31.71 14.757-41.76 21.701 14.34 7.3 50.15 8.793 58.42 5.452l12.51-5.841c13.21-5.905 15.59-8.628 4.1 2.228l-17.17 7.279c-21.63 2.634-40.58.482-63.43-4.181l-26.1 11.081c-.64.808-1.34 1.685-2.11 2.625-6.59 9.673-13.67 22.938-16.75 32.61l34.38-9.585c6.33-.459 8.59-6.176 11.39-13.69 6.41-6.995 8.73-9.126 1.02 5.939-2.74 7.245-12.68 10.467-19.83 12.421l-26.38 8.759c-12.02 10.056-24.71 12.183-41.609 27.079 2.29 13.376 2.785 28.425 2.407 40.997l.011 5.332.289 7.68-5.306 68.336c-12.94 6.832-22.66 4.683-29.864-4.483l1.682-64.411c2.266-.572.35-13.863 2.403-12.513l-3.701-38.677c.804-5.349-5.186-11.598-14.965-18.711-15.48 2.597-34.051 4.331-53.941 4.282l-19.297 10.738c-15.564 2.843-25.284-1.381-39.632-8.272-5.29-2.458-10.395-4.165-12.249-4.749v-.001c-1.039-.303-.916-.288 0 .001 1.828.533 7.25 2.052 18.277 4.798 16.712 8.049 36.778 8.978 46.743-3.44-11.803.168-27.28-6.509-35.435-17.287-2.297-10.493-1.625-4.223 5.779 3.803 10.599 12.42 24.727 11.327 34.111 11.582 20.621.818 40.146-.576 56.358-5.931-3.548-.73-14.104-7.902-25.588-15.687-16.532 5.039-33.064 6.934-49.596-3.862-8.151-3.5-8.828-3.107-3.147-1.312l.004.001c3.383 1.069 9.017 2.634 16.667 4.169 9.265 6.835 27.546 3.193 35.595-4.565l-15.751-10.215c-23.174 2.026-41.717-.487-64.891-5.758a16.943 16.943 0 0 0-3.555-4.977zm213.132-1.707c1.41-.458 2.62-.865 3.35-1.319-.48-.29-1.17.19-3.35 1.319-2.71.885-6.15 1.961-8.23 3.94l-30.14 12.444-21.328 5.925 2.287 31.257c4.521-.116 39.321-17.178 39.891-25.145l9.74-18.314c2.44-2.378 3.81-7.278 5.69-9.058.82-.395 1.51-.745 2.09-1.049z" style="fill:#fff" transform="matrix(1 0 0 1 -230.49 -231.628)"/><path d="M831.326 443.433c-3.072-2.967-4.706-2.168 5.416 2.966 19.45 6.743 45.367 8.016 63.601 3.815l-23.883-16.752-31.119-6.904-19.32-5.458c-8.795-5.238-11.5-3.929 1.753-2.111l21.644 6.077 23.307 2.696-8.997-15.785-11.867-1.93-17.324 3.991 9.872-4.13c3.033-1.649 6.315-1.715 9.349-1.928 3.399-.239 3.905-.45 7.305.915l6.822 1.452c7.541 19.747 37.617 41.048 37.617 36.165 7.888 11.967 18.297 20.914 26.186 23.152l10.634 8.481c-5.903-7.932-9.975-20.136-11.907-37.332-.235-4.498-3.068-8.346-8.018-11.665l-9.825-4.945c3.844 1.506 8.276 2.143 10.955 3.94l5.655 4.421 6.585 16.161c2.973 21.881 5.013 7.421 3.111 16.815l12.183 12.781c1.809 1.722 2.018 3.545 2.752 4.935 5.891 11.165 5.915 7.813 9.673 1.601l1.39-15.328 3.676-15.923 2.214-21.303c-12.875-.325-28.182-6.642-41.057-16.696l-11.716.534-16.036.566-41.752-23.233c-4.408-1.686-9.24-6.344-14.864-16.543-2.146-26.023-4.826-32.513 4.785 3.885 3.742 8.166 11.122 10.59 14.864 11.459l28.355 13.289c.616 1.957 7.173 7.57 9.67 7.269l3.492-.568 2.334.562-14.894-13.315c-6.677-7.51-10.044-12.291-13.19-25.097l-3.703-13.698c1.989-10.6-.016-19.444 4.125 5.296l3.413 10.131 7.566 14.586c4.031 7.874 10.274 11.033 15.26 15.474.799.712 2.661 3.515 4.146 3.838 1.522.331 3.428-.657 4.54-.991 1.18-.354 2.371.224 3.425.158 1.282-.08 2.421-.336 3.363-.763-7.759-4.523-11.756-13.226-16.358-21.259L902.3 364.95l-2.205-11.013c.201-8.109-.723-11.093 3.71 4.136l1.627 7.047 4.369 22.075c6.692 11.471 15.084 23.11 20.548 23.53 14.96 10.209 28.515 16.119 42.234 14.861l3.703-17.313c.964-9.769 2.173-19.68 3.124-31.086-.444-2.23-3.753-3.925-7.723-4.391-10.636 2.207-20.126-2.151-28.329-4.808l-16.264-11.735c-4.888-.958-10.673-3.487-19.091-10.623l-5.853-16.119c.722-2.361 1.306 5.61 6.145 8.43l5.074 7.991c5.829 4.672 11.572 7.848 16.967 6.781l-1.139-11.6-3.081-12.873c.029-4.374-1.436-5.597 3.061-1.422l3.075 14.09 2.186 16.204c9.029 10.329 26.5 13.596 35.052 11.144 6.945-1.012 3.688.76 10.633 2.181-2.293-7.291-3.903-29.894-1.367-29.55l5.719-13.141c1.389 5.779-1.393 7.893-.769 15.464l1.724 10.539 13.918-5.924 10.202-10.585 8.74-11.881 6.43-3.96-20.55 28.117-13.971 8.561-2.524 8.522c1.615 20.409 1.003 29.599 2.176 31.283.405.581 2.523.294 3.485.433 1.866.268 4.174-.782 6.415-.01 5.599 1.927 10.429.059 12.859-5.668.36-.865 1.65-.924 2.47-1.412 11.05-6.539 22.03-16.14 26.52-22.784l6.33-16.078c.82-1.869-.36-7.161 3.15-.621 1.22 1.22-6.6 22.346-12.5 25.189l-6.77 9.916c10.18 2.087 23.88-.273 31.16-4.115l6.82-13.897 3.54-1.901-8.34 17.832-18.53 6.852-19.21-.113c-10.55 10.482-24.52 15.482-38.716 16.234l-4.787 45.368 18.063-4.085c13.66 2.177 11.33-1.528 15.08-3.412l50.67-22.019 24.1-16.962c.96-7.643-2.14-20.589-8.49-37.969-8.64-3.711-14.83-9.588-23.48-20.596-2.24-2.299-5.48-5.214-5.29-17.255 4.94-11.202 5.95-14.079 6.47-7.641-14.58 15.98 17.56 46.606 26.29 36.973l4.58-8.058c5.52-6.455.76-16.749.96-24.534l2.01-.507c.49 5.835.78 10.762 1.92 13.703.74 9.649.53 14.13-6.03 23.779 1.93 11.038 2.76 22.257 7.52 40.375l18.52-19.373 10.15-12.661c2.66-3.295 6.57-6.461-6.46-24.883 3.16 2.207-3.07-6.152-7.43-12.407l-5.81-2.538c-3.53-7.872-.01-5.002 10.56 3.001l2.85 3.372c9.8 20.311 6.59 11.117 8.77 15.042l5.28-14.107 11.4-14.285c12.66-11.018 11.88-9.758 6.88-1.351l-10.21 10.866-5.44 12.407c-4.37 17.149-3.2 20.734-.22 18.297 8.44-12.12 16.41-16.488 33.36-17.663l17.42-11.288c9.18-3.943 17.13-7.077-.43 4.95-7.47 3.994-13.52 11.079-30.73 12.638-29.37 19.365-40.36 34.663-47.25 44.943 15.23-3.059 34.4-4.987 48.42-6.83 13.17.443 23.98-1.664 28.87-10.277 1.47-2.59 8.32-7.591-1.66-15.348-.63-6.864 2.33-4.747 7.79 3.426 2.2 6.149 1.02 10.724-4.07 16.873l19.85-13.345c18.78-17.993 13.52-12.82 4.01.123l-20.41 16.26c-14.85 5.462-30.89 7.487-42.07 6.868l-28.82 5.079c-14.91 4.516-31.71 14.758-41.76 21.701 14.34 7.3 50.15 8.793 58.41 5.452l12.52-5.841c13.21-5.905 15.59-8.628 4.1 2.228l-17.18 7.279c-21.62 2.634-40.57.482-63.42-4.181l-26.11 11.081c-.63.808-1.34 1.685-2.1 2.626-6.6 9.672-13.68 22.937-16.75 32.609l34.38-9.585c6.33-.459 8.58-6.176 11.39-13.69 6.4-6.995 8.73-9.126 1.02 5.939-2.74 7.245-12.68 10.468-19.83 12.421l-26.38 8.759c-12.02 10.056-24.71 12.183-41.611 27.08 2.29 13.375 2.785 28.424 2.406 40.996l-3.845 81.007c-5.142 3.672-6.453 4.601-9.656 4.155-2.469-.344-6.119-1.436-13.291-2.066-3.004-.264-4.873-3.44-6.517-6.087-.47-39.182.574-78.35 2.525-77.067l-3.701-38.678c.804-5.349-5.187-11.598-14.965-18.711-15.48 2.597-34.051 4.331-53.941 4.282l-19.297 10.738c-15.564 2.843-25.285-1.381-39.632-8.271-5.29-2.459-10.395-4.166-12.249-4.75h-.001c-1.039-.304-.915-.289.001 0 1.827.534 7.25 2.052 18.276 4.798 16.713 8.049 36.779 8.978 46.744-3.44-11.803.168-27.28-6.509-35.435-17.286-2.298-10.494-1.625-4.223 5.778 3.802 11.975 10.357 25.393 10.33 34.112 11.582 20.621.818 40.146-.576 56.358-5.931-3.548-.73-14.104-7.902-25.589-15.687-16.532 5.039-33.064 6.934-49.596-3.862-8.151-3.5-8.827-3.106-3.146-1.312l.004.001c3.383 1.069 9.017 2.634 16.666 4.169 9.266 6.836 27.547 3.193 35.596-4.565l-15.752-10.215c-23.173 2.026-41.717-.487-64.89-5.758a16.944 16.944 0 0 0-3.556-4.977zm213.134-1.706c1.41-.459 2.62-.866 3.34-1.32-.47-.29-1.17.19-3.34 1.32-2.71.884-6.15 1.96-8.23 3.939l-30.14 12.444-21.33 5.925 2.287 31.257c6.587 3.098 40.213-15.789 39.893-25.144l9.74-18.315c2.44-2.377 3.81-7.278 5.68-9.058.82-.395 1.52-.745 2.1-1.048z" style="fill:#564835" transform="matrix(1 0 0 1 -228.973 -228.974)"/><path d="M980.861 623.452c-5.211.964-10.685.616-16.827-3.078 5.246 5.373 10.959 5.161 16.827 3.078z" style="fill-opacity:.27" transform="matrix(1 0 0 1 -231.325 -229.717)"/><path d="M980.861 623.452c-5.211.964-10.685.616-16.827-3.078 5.246 5.373 10.959 5.161 16.827 3.078z" style="fill-opacity:.27" transform="matrix(1 0 0 1 -229.716 -283.322)"/><path d="M980.861 623.452c-5.211.964-10.685.616-16.827-3.078 5.246 5.373 10.959 5.161 16.827 3.078z" style="fill-opacity:.27" transform="matrix(1.00884 0 0 .9521 -242.893 -307.522)"/><path d="M981.066 614.628c-6.051 2.484-11.808 2.183-17.237-1.231 6.078 2.242 11.779 2.404 17.237 1.231z" style="fill-opacity:.27" transform="matrix(1 0 0 1 -228.973 -228.974)"/><path d="M981.066 614.628c-6.051 2.484-11.808 2.183-17.237-1.231 6.078 2.242 11.779 2.404 17.237 1.231z" style="fill-opacity:.27" transform="matrix(1 0 0 1 -227.363 -282.58)"/><path d="M981.066 614.628c-6.051 2.484-11.808 2.183-17.237-1.231 6.078 2.242 11.779 2.404 17.237 1.231z" style="fill-opacity:.27" transform="matrix(1.00884 0 0 1 -236.477 -337.558)"/><path d="M981.887 606.83c-5.883 1.783-11.765 1.854-17.648-1.642 5.883 5.307 11.765 4.72 17.648 1.642z" style="fill-opacity:.27" transform="matrix(1 0 0 1 -226.62 -228.974)"/><path d="M981.887 606.83c-5.883 1.783-11.765 1.854-17.648-1.642 5.883 5.307 11.765 4.72 17.648 1.642z" style="fill-opacity:.27" transform="matrix(1 0 0 1 -225.011 -282.58)"/><path d="M981.887 606.83c-5.883 1.783-11.765 1.854-17.648-1.642 5.883 5.307 11.765 4.72 17.648 1.642z" style="fill-opacity:.27" transform="matrix(1.00884 0 0 1 -234.103 -337.558)"/><path d="M982.503 599.032c-5.67 2.172-11.663 2.291-18.264-1.437 6.088 5.135 12.176 4.379 18.264 1.437z" style="fill-opacity:.27" transform="matrix(1 0 0 1 -228.973 -228.974)"/><path d="M982.503 599.032c-5.67 2.172-11.663 2.291-18.264-1.437 6.088 5.135 12.176 4.379 18.264 1.437z" style="fill-opacity:.27" transform="matrix(1 0 0 1 -227.363 -282.58)"/><path d="M982.503 599.032c-5.67 2.172-11.663 2.291-18.264-1.437 6.088 5.135 12.176 4.379 18.264 1.437z" style="fill-opacity:.27" transform="matrix(1.00884 0 0 1 -236.477 -337.558)"/><path d="M982.913 591.85c-6.567 1.79-13.133 1.635-19.7-1.232 6.251 4.037 12.828 4.336 19.7 1.232z" style="fill-opacity:.27" transform="matrix(1 0 0 1 -230.954 -229.468)"/><path d="M982.913 591.85c-6.567 1.79-13.133 1.635-19.7-1.232 6.251 4.037 12.828 4.336 19.7 1.232z" style="fill-opacity:.27" transform="matrix(1 0 0 1 -229.344 -283.075)"/><path d="M982.913 591.85c-6.567 1.79-13.133 1.635-19.7-1.232 6.251 4.037 12.828 4.336 19.7 1.232z" style="fill-opacity:.27" transform="matrix(.87245 0 0 1 -104.415 -338.054)"/><path d="M982.708 583.641c-5.8.647-11.743.296-17.853-1.231 6.105 2.875 12.058 3.324 17.853 1.231z" style="fill-opacity:.27" transform="matrix(1 0 0 1 -227.239 -228.107)"/><path d="M982.708 583.641c-5.8.647-11.743.296-17.853-1.231 6.105 2.875 12.058 3.324 17.853 1.231z" style="fill-opacity:.27" transform="matrix(1 0 0 1 -225.63 -281.715)"/><path d="M982.708 583.641c-5.8.647-11.743.296-17.853-1.231 6.105 2.875 12.058 3.324 17.853 1.231z" style="fill-opacity:.27" transform="matrix(.84676 0 0 1 -78.348 -336.693)"/><path d="M983.734 576.869c-5.871 1.306-11.977 1.089-18.469-1.641 5.673 3.767 11.864 4.084 18.469 1.641z" style="fill-opacity:.27" transform="matrix(1 0 0 1 -233.182 -229.717)"/><path d="M983.734 576.869c-5.871 1.306-11.977 1.089-18.469-1.641 5.673 3.767 11.864 4.084 18.469 1.641z" style="fill-opacity:.27" transform="matrix(1 0 0 1 -231.572 -283.322)"/><path d="M983.734 576.869c-5.871 1.306-11.977 1.089-18.469-1.641 5.673 3.767 11.864 4.084 18.469 1.641z" style="fill-opacity:.27" transform="matrix(.72906 0 0 1 34.5 -338.3)"/></svg>