<?xml version="1.0" encoding="UTF-8" standalone="no"?><!DOCTYPE svg PUBLIC "-//W3C//DTD SVG 1.1//EN" "http://www.w3.org/Graphics/SVG/1.1/DTD/svg11.dtd"><svg width="6000px" height="3000px" version="1.1" xmlns="http://www.w3.org/2000/svg" xmlns:xlink="http://www.w3.org/1999/xlink" xml:space="preserve" xmlns:serif="http://www.serif.com/" style="fill-rule:evenodd;clip-rule:evenodd;stroke-linecap:round;stroke-linejoin:round;stroke-miterlimit:1.5;"><path id="トラック外側" d="M411.254,3000L-0,3000L-0,2919.41L4464.98,0L6411.25,0L411.254,3000Z" style="fill:rgb(160,76,73);stroke:black;stroke-width:1px;"/><g><path d="M4253.3,890.91L4200.84,877.795L4249.72,865.574C4253.26,857.527 4261.28,849.875 4273.78,843.622C4286.29,837.369 4301.6,833.358 4317.69,831.591L4342.13,807.149L4368.36,833.381C4379.95,835.55 4390.82,838.963 4400.14,843.622C4435.01,861.056 4435.01,889.365 4400.14,906.8C4365.27,924.234 4308.65,924.234 4273.78,906.8C4264.47,902.141 4257.64,896.707 4253.3,890.91Z" style="fill:none;stroke:rgb(181,94,90);stroke-width:10px;"/><path d="M4474.91,785.572L4527.38,798.688L4478.49,810.908C4474.96,818.956 4466.94,826.608 4454.43,832.861C4441.93,839.114 4426.62,843.124 4410.53,844.892L4386.09,869.333L4359.86,843.102C4348.26,840.933 4337.39,837.519 4328.08,832.861C4293.21,815.426 4293.21,787.117 4328.08,769.683C4362.94,752.248 4419.56,752.248 4454.43,769.683C4463.75,774.341 4470.58,779.776 4474.91,785.572Z" style="fill:none;stroke:rgb(181,94,90);stroke-width:10px;"/><path d="M4455.47,789.826L4403.01,776.71L4451.89,764.489C4455.43,756.442 4463.45,748.79 4475.95,742.537C4488.46,736.284 4503.76,732.274 4519.86,730.506L4544.3,706.065L4570.53,732.296C4582.12,734.465 4592.99,737.879 4602.31,742.537C4637.18,759.972 4637.18,788.281 4602.31,805.715C4567.44,823.149 4510.82,823.149 4475.95,805.715C4466.64,801.057 4459.81,795.622 4455.47,789.826Z" style="fill:none;stroke:rgb(181,94,90);stroke-width:10px;"/><path d="M4746.38,723.811L4639.49,669.773L4675.72,651.067C4705.26,644.814 4729.9,647.124 4745.19,663.834L4732.13,687.588C4722.32,697.571 4721.6,707.554 4733.97,717.537" style="fill:none;stroke:rgb(181,94,90);stroke-width:15px;stroke-linecap:butt;stroke-linejoin:miter;"/><path d="M5089.03,554.207L4982.14,500.168L5018.36,481.463C5047.91,475.21 5072.54,477.52 5087.84,494.23L5074.78,517.983C5064.97,527.966 5064.25,537.949 5076.62,547.932" style="fill:none;stroke:rgb(181,94,90);stroke-width:15px;stroke-linecap:butt;stroke-linejoin:miter;"/><path d="M4800.86,587.305C4829.95,572.761 4877.18,572.761 4906.27,587.305C4935.36,601.848 4935.36,625.464 4906.27,640.007C4877.18,654.551 4829.95,654.551 4800.86,640.007C4771.78,625.464 4771.78,601.848 4800.86,587.305Z" style="fill:none;stroke:rgb(181,94,90);stroke-width:15px;stroke-linecap:butt;stroke-linejoin:miter;"/><path d="M5148.67,415.122C5177.76,400.578 5224.98,400.578 5254.07,415.122C5283.16,429.666 5283.16,453.281 5254.07,467.824C5224.98,482.368 5177.76,482.368 5148.67,467.824C5119.58,453.281 5119.58,429.666 5148.67,415.122Z" style="fill:none;stroke:rgb(181,94,90);stroke-width:15px;stroke-linecap:butt;stroke-linejoin:miter;"/><path d="M5020.73,587.824L4927.5,540.615" style="fill:none;stroke:rgb(181,94,90);stroke-width:15px;stroke-linecap:butt;stroke-linejoin:miter;"/><path d="M5368.53,415.642L5275.3,368.432" style="fill:none;stroke:rgb(181,94,90);stroke-width:15px;stroke-linecap:butt;stroke-linejoin:miter;"/><path d="M4917.11,535.568L4904.75,529.715" style="fill:none;stroke:rgb(181,94,90);stroke-width:15px;stroke-linecap:butt;stroke-linejoin:miter;"/><path d="M5264.91,363.385L5252.56,357.532" style="fill:none;stroke:rgb(181,94,90);stroke-width:15px;stroke-linecap:butt;stroke-linejoin:miter;"/></g><g><path d="M1446.11,2294.25L1393.65,2281.14L1442.53,2268.92C1446.07,2260.87 1454.09,2253.22 1466.59,2246.96C1479.1,2240.71 1494.4,2236.7 1510.5,2234.93L1534.94,2210.49L1561.17,2236.72C1572.76,2238.89 1583.63,2242.3 1592.95,2246.96C1627.82,2264.4 1627.82,2292.71 1592.95,2310.14C1558.08,2327.58 1501.46,2327.58 1466.59,2310.14C1457.28,2305.48 1450.45,2300.05 1446.11,2294.25Z" style="fill:none;stroke:rgb(181,94,90);stroke-width:10px;"/><path d="M1667.72,2188.91L1720.18,2202.03L1671.3,2214.25C1667.77,2222.3 1659.75,2229.95 1647.24,2236.2C1634.73,2242.46 1619.43,2246.47 1603.34,2248.23L1578.89,2272.68L1552.66,2246.44C1541.07,2244.28 1530.2,2240.86 1520.88,2236.2C1486.02,2218.77 1486.02,2190.46 1520.88,2173.03C1555.75,2155.59 1612.37,2155.59 1647.24,2173.03C1656.56,2177.68 1663.38,2183.12 1667.72,2188.91Z" style="fill:none;stroke:rgb(181,94,90);stroke-width:10px;"/><path d="M1648.28,2193.17L1595.82,2180.05L1644.7,2167.83C1648.24,2159.78 1656.26,2152.13 1668.76,2145.88C1681.27,2139.63 1696.57,2135.62 1712.67,2133.85L1737.11,2109.41L1763.34,2135.64C1774.93,2137.81 1785.8,2141.22 1795.12,2145.88C1829.99,2163.31 1829.99,2191.62 1795.12,2209.06C1760.25,2226.49 1703.63,2226.49 1668.76,2209.06C1659.45,2204.4 1652.62,2198.96 1648.28,2193.17Z" style="fill:none;stroke:rgb(181,94,90);stroke-width:10px;"/><path d="M1939.19,2127.15L1832.3,2073.12L1868.52,2054.41C1898.07,2048.16 1922.7,2050.47 1938,2067.18L1924.94,2090.93C1915.13,2100.91 1914.41,2110.89 1926.78,2120.88" style="fill:none;stroke:rgb(181,94,90);stroke-width:15px;stroke-linecap:butt;stroke-linejoin:miter;"/><path d="M2281.84,1957.55L2174.95,1903.51L2211.17,1884.81C2240.72,1878.55 2265.35,1880.86 2280.65,1897.57L2267.58,1921.33C2257.78,1931.31 2257.06,1941.29 2269.42,1951.27" style="fill:none;stroke:rgb(181,94,90);stroke-width:15px;stroke-linecap:butt;stroke-linejoin:miter;"/><path d="M1993.67,1990.65C2022.76,1976.1 2069.99,1976.1 2099.08,1990.65C2128.16,2005.19 2128.16,2028.81 2099.08,2043.35C2069.99,2057.89 2022.76,2057.89 1993.67,2043.35C1964.59,2028.81 1964.59,2005.19 1993.67,1990.65Z" style="fill:none;stroke:rgb(181,94,90);stroke-width:15px;stroke-linecap:butt;stroke-linejoin:miter;"/><path d="M2341.47,1818.46C2370.56,1803.92 2417.79,1803.92 2446.88,1818.46C2475.97,1833.01 2475.97,1856.62 2446.88,1871.17C2417.79,1885.71 2370.56,1885.71 2341.47,1871.17C2312.39,1856.62 2312.39,1833.01 2341.47,1818.46Z" style="fill:none;stroke:rgb(181,94,90);stroke-width:15px;stroke-linecap:butt;stroke-linejoin:miter;"/><path d="M2213.54,1991.17L2120.3,1943.96" style="fill:none;stroke:rgb(181,94,90);stroke-width:15px;stroke-linecap:butt;stroke-linejoin:miter;"/><path d="M2561.34,1818.98L2468.11,1771.77" style="fill:none;stroke:rgb(181,94,90);stroke-width:15px;stroke-linecap:butt;stroke-linejoin:miter;"/><path d="M2109.92,1938.91L2097.56,1933.06" style="fill:none;stroke:rgb(181,94,90);stroke-width:15px;stroke-linecap:butt;stroke-linejoin:miter;"/><path d="M2457.72,1766.73L2445.36,1760.87" style="fill:none;stroke:rgb(181,94,90);stroke-width:15px;stroke-linecap:butt;stroke-linejoin:miter;"/></g><g id="芝生"><path d="M4121.52,-0L0,0L0,2346.98L4407.74,143.108L4121.52,-0Z" style="fill:rgb(124,156,82);"/><path d="M2343.43,1175.26L3491.84,601.055L2289.73,0L-2,-1.673L2343.43,1175.26Z" style="fill:url(#_Linear1);"/><path d="M54.627,2319.66L1206.24,1743.86L-2,1146.69L0,2294.07L54.627,2319.66Z" style="fill:url(#_Linear2);"/></g><path d="M1,1716.8L2289.73,572.433L1141.32,0" style="fill:none;stroke:rgb(200,213,181);stroke-width:10px;"/><path d="M2175.25,629.677C2112.06,598.083 2112.06,546.784 2175.25,515.19" style="fill:none;stroke:rgb(200,213,181);stroke-width:10px;"/><path d="M1257.58,58.131L228.973,572.433L1,458.447" style="fill:none;stroke:rgb(200,213,181);stroke-width:10px;"/><path id="トラック内側" d="M4407.74,143.108L0,2346.98L-2,2147.62L3291.49,500.879L2291.39,0L4121.52,0L4407.74,143.108Z" style="fill:rgb(131,87,84);"/><path d="M1,2290.23L3835.3,372.082L3835.3,400.703L1,2317.86L1,2290.23Z" style="fill:rgb(161,161,161);stroke:rgb(1,0,1);stroke-width:2px;"/><g id="コーン"><g><path d="M1402.46,2389.91L1373.84,2404.22L1402.46,2418.53L1431.08,2404.22L1402.46,2389.91" style="fill:rgb(206,64,59);stroke:black;stroke-width:1px;"/><path d="M1373.84,2407.8L1402.46,2422.11L1431.08,2407.8L1431.08,2404.22L1402.46,2418.53L1373.84,2404.22L1373.84,2407.8Z" style="fill:rgb(206,64,59);stroke:black;stroke-width:1px;"/><path d="M1402.46,2422.11L1402.46,2418.53" style="fill:none;stroke:black;stroke-width:1px;"/><path d="M1386.49,2404.42L1399.41,2345.45C1401.39,2341.79 1403.42,2341.49 1405.51,2345.45L1418.43,2404.42C1416.36,2415.02 1386.28,2411.11 1386.49,2404.42Z" style="fill:rgb(206,64,59);stroke:black;stroke-width:1px;"/></g><g><path d="M686.913,1782.2L658.292,1796.52L686.913,1810.83L715.535,1796.52L686.913,1782.2" style="fill:rgb(206,64,59);stroke:black;stroke-width:1px;"/><path d="M658.292,1800.09L686.913,1814.4L715.535,1800.09L715.535,1796.52L686.913,1810.83L658.292,1796.52L658.292,1800.09Z" style="fill:rgb(206,64,59);stroke:black;stroke-width:1px;"/><path d="M686.913,1814.4L686.913,1810.83" style="fill:none;stroke:black;stroke-width:1px;"/><path d="M670.944,1796.71L683.865,1737.75C685.837,1734.08 687.873,1733.79 689.962,1737.75L702.882,1796.71C700.813,1807.31 670.732,1803.41 670.944,1796.71Z" style="fill:rgb(206,64,59);stroke:black;stroke-width:1px;"/></g></g><g id="トラック"><path d="M1,2346.98L1,2919.41L4294.25,772.785C4575.76,612.386 4612.12,261.718 4478.66,0L3919.5,0C3979.37,208.003 3952.33,381.578 3721.82,486.568L1,2346.98Z" style="fill:rgb(135,41,41);"/><path d="M5210.14,314.838L4294.25,772.785L3721.82,486.568L4637.71,28.622L5210.14,314.838Z" style="fill:rgb(135,41,41);"/></g><g id="レールカメラ"><path d="M3835.3,372.082L1,2290.23L1,2175.75L3720.82,314.838L3835.3,372.082Z" style="fill:rgb(169,169,169);stroke:rgb(1,0,1);stroke-width:2px;"/><path d="M1,2203.37L3735.13,336.305L3792.37,364.926L1,2260.61" style="fill:none;stroke:rgb(85,85,85);stroke-width:10px;"/><path d="M3778.06,314.838L3763.75,279.061L3677.89,236.129L3663.57,257.595L3663.57,343.46L3778.06,399.554L3778.06,314.838Z" style="fill:rgb(39,29,19);stroke:black;stroke-width:2px;"/><path d="M3778.06,400.703L3835.3,372.082L3835.3,286.217L3778.06,314.838L3778.06,400.703Z" style="fill:rgb(39,29,19);stroke:black;stroke-width:2px;"/><path d="M3778.06,314.838L3763.75,279.061L3677.89,236.129L3735.13,207.507L3820.99,250.44L3835.3,286.217L3778.06,314.838Z" style="fill:rgb(39,29,19);stroke:black;stroke-width:2px;"/><path d="M3634.97,357.782L3749.44,415.014L3749.44,314.838L3634.95,257.595L3634.97,357.782Z" style="fill:rgb(85,77,53);stroke:rgb(72,65,45);stroke-width:2px;"/><path d="M3749.44,415.014L3770.91,404.281L3770.91,304.105L3656.42,246.862L3634.95,257.595L3749.44,314.838L3749.44,415.014Z" style="fill:rgb(85,77,53);stroke:rgb(72,65,45);stroke-width:2px;"/><path d="M3634.97,357.782L3634.95,319.935L3749.44,377.531L3754.15,384.038L3755.48,411.995L3749.44,415.014L3634.97,357.782Z" style="fill-opacity:0.03;"/><path d="M753.999,1798.25L868.486,1855.49L1068.84,1755.32L1068.84,1726.69L954.351,1669.45L753.999,1769.63L753.999,1798.25Z" style="fill:rgb(128,128,128);stroke:rgb(1,0,1);stroke-width:2px;"/><path d="M868.486,1855.49C869.034,1855.13 868.486,1826.87 868.486,1826.87" style="fill:none;stroke:rgb(1,0,1);stroke-width:2px;"/><path d="M753.999,1769.63L868.486,1826.87L1068.84,1726.69" style="fill:none;stroke:rgb(1,0,1);stroke-width:2px;"/><g><path d="M891.117,1677.02C887.259,1682.33 887.008,1687.06 887.767,1692.15C898.418,1763.62 813.703,1727.28 842.507,1729.84" style="fill:none;stroke:black;stroke-width:2px;"/><path d="M939.276,1720.07C952.805,1713.31 974.772,1713.31 988.301,1720.07C1001.83,1726.83 1001.83,1737.82 988.301,1744.58C974.772,1751.35 952.805,1751.35 939.276,1744.58C925.747,1737.82 925.747,1726.83 939.276,1720.07Z" style="fill:rgb(59,59,59);stroke:black;stroke-width:2px;"/><path d="M900.016,1603.65C896.969,1601.79 894.749,1603.68 892.973,1610.95C885.376,1642.07 883.784,1651.35 891.117,1657.15" style="fill:none;stroke:black;stroke-width:2px;"/><path d="M969.826,1739.45L969.826,1682.21L1027.07,1653.59L1027.07,1710.83L969.826,1739.45Z" style="fill:rgb(35,35,35);stroke:rgb(1,0,1);stroke-width:2px;"/><path d="M998.448,1679.22C1004.39,1676.25 1009.64,1676.63 1012.76,1679.65C1014.64,1681.48 1039.23,1690.44 1039.23,1690.44L1005.6,1723.55C1005.6,1723.55 987.953,1716.45 984.787,1713.96C982.508,1712.17 981.15,1709.17 981.15,1705.17C981.15,1695.62 988.901,1684 998.448,1679.22Z" style="fill:rgb(58,59,59);stroke:rgb(1,0,1);stroke-width:2px;"/><path d="M998.448,1753.76L998.448,1696.52L1055.69,1667.9L1055.69,1725.14L998.448,1753.76Z" style="fill:rgb(44,44,44);stroke:rgb(1,0,1);stroke-width:2px;"/><path d="M998.448,1753.76L991.292,1750.19L991.292,1692.94L998.448,1696.52L1019.16,1705.35L1055.69,1667.9L1055.69,1725.14L1019.16,1705.35L998.448,1753.76Z" style="fill:rgb(44,44,44);stroke:rgb(1,0,1);stroke-width:2px;"/><path d="M1020.14,1689.25C1030.43,1684.11 1043.59,1690.61 1043.59,1700.9C1043.59,1711.19 1036.9,1722.56 1026.61,1727.7C1016.32,1732.85 1001.49,1727.51 1001.49,1717.22C1001.49,1706.93 1009.85,1694.4 1020.14,1689.25Z" style="fill:url(#_Radial3);stroke:rgb(1,0,1);stroke-width:2px;"/><path d="M998.448,1753.76L991.292,1750.19L991.292,1692.94L1048.54,1664.32L1055.69,1667.9L998.448,1696.52L998.448,1753.76Z" style="fill:rgb(58,59,59);stroke:rgb(1,0,1);stroke-width:2px;"/><path d="M969.826,1739.45L891.117,1700.1L891.117,1642.86L969.826,1682.21L969.826,1739.45Z" style="fill:rgb(58,59,59);stroke:rgb(1,0,1);stroke-width:2px;"/><path d="M948.36,1614.23L1027.07,1653.59L969.826,1682.21L891.117,1642.86L948.36,1614.23Z" style="fill:rgb(58,59,59);stroke:rgb(1,0,1);stroke-width:2px;"/><path d="M922.782,1745.09L922.782,1702.15L937.093,1709.31L937.093,1737.93L951.404,1730.78L965.715,1737.93L937.093,1752.24L922.782,1745.09Z" style="fill:rgb(20,21,21);stroke:rgb(1,0,1);stroke-width:2px;"/><path d="M913.288,1609.37L924.289,1613.5L948.724,1653.41C949.585,1656.19 947.854,1657.7 941.568,1656.98L927.258,1649.83L913.288,1609.37Z" style="fill:rgb(58,59,59);stroke:rgb(1,0,1);stroke-width:2px;"/><path d="M935.575,1625.23L902.433,1608.63C897.627,1606.32 900.349,1598.43 907.415,1598.98L936.036,1613.29L935.575,1625.23Z" style="fill:rgb(56,56,56);stroke:rgb(1,0,1);stroke-width:2px;"/><path d="M954.803,1638.58C960.155,1641.26 965.299,1642.75 968.17,1644.42C975.066,1648.42 989.107,1638.71 979.824,1629.47C979.549,1629.2 947.63,1613.37 947.073,1613.08C941.724,1610.26 938.14,1610.74 934.83,1612.69C931.902,1614.41 927.353,1621.04 930.955,1625.06C935.137,1629.73 943.867,1633.12 954.803,1638.58Z" style="fill:rgb(169,169,169);stroke:rgb(85,85,85);stroke-width:2px;"/><path d="M884.747,1775.81L884.747,1743.4L915.468,1727.2L915.468,1759.61L884.747,1775.81Z" style="fill:rgb(58,59,59);stroke:rgb(1,0,1);stroke-width:2px;"/><path d="M884.747,1775.81L842.507,1753.53L842.507,1721.13L884.747,1743.4L884.747,1775.81Z" style="fill:rgb(58,59,59);stroke:rgb(1,0,1);stroke-width:2px;"/><path d="M873.227,1704.93L915.468,1727.2L884.747,1743.4L842.507,1721.13L873.227,1704.93Z" style="fill:rgb(58,59,59);stroke:rgb(1,0,1);stroke-width:2px;"/></g></g><g id="トラックタイマー"><path d="M1886.85,989.013L1833.2,1089.87L2108.95,950.922L2072.04,895.559" style="fill:none;stroke:black;stroke-width:6px;"/><path d="M1886.85,989.013L1833.2,1089.87L2108.95,950.922L2072.04,895.559" style="fill:none;stroke:rgb(223,185,66);stroke-width:4px;"/><path d="M1899.3,1060.69L1949.72,1083.97" style="fill:none;stroke:black;stroke-width:6px;"/><path d="M1895.43,1058.75L1949.72,1083.97" style="fill:none;stroke:rgb(223,185,66);stroke-width:4px;"/><path d="M2056.38,982.148L2107.02,1005.32" style="fill:none;stroke:black;stroke-width:6px;"/><path d="M2051.66,979.789L2108.95,1006.29" style="fill:none;stroke:rgb(223,185,66);stroke-width:4px;"/><path d="M1923.44,1007.31L1888.27,1114.69L2164.31,978.604L2107.02,913.048" style="fill:none;stroke:black;stroke-width:6px;"/><path d="M1923.44,1007.31L1888.27,1114.69L2164.31,978.604L2107.02,913.048" style="fill:none;stroke:rgb(223,185,66);stroke-width:4px;"/><path d="M1869.04,1033.97L1869.04,886.332L2164.31,738.696L2164.31,886.332L1869.04,1033.97Z" style="fill:rgb(217,188,72);stroke:black;stroke-width:1px;"/><path d="M2109.47,900.397C2118.97,895.558 2125.23,885.679 2125.23,877.707C2125.23,870.071 2119.61,865.756 2109.32,871C2100.28,875.606 2093.89,885.394 2093.89,893.519C2093.74,901.843 2100.12,905.158 2109.47,900.397ZM2082.47,913.621L2096.82,906.308L2096.82,902.093L2092.76,904.162L2082.62,897.172L2092.27,884.924L2096.33,882.855L2096.33,878.64L2082.47,885.704L2082.47,889.919L2085.43,888.41L2071.56,906.225L2071.56,895.474L2076.23,893.093L2076.23,888.878L2061.88,896.191L2061.88,900.406L2066.55,898.026L2066.55,917.513L2061.88,919.893L2061.88,924.109L2076.23,916.795L2076.23,912.58L2071.56,914.961L2071.56,911.387L2078.74,902.111L2086.38,907.414L2082.47,909.406L2082.47,913.621ZM2059.25,901.208L2059.25,896.993L2045.07,904.213L2045.07,908.428L2049.75,906.047L2049.75,925.534L2045.07,927.915L2045.07,932.13L2059.25,924.91L2059.25,920.695L2054.57,923.076L2054.57,903.589L2059.25,901.208ZM2042.8,926.752C2042.8,926.752 2042.89,926.51 2042.88,926.467L2042.87,921.349L2046.62,919.414L2046.61,915.8L2034.35,921.92L2034.42,925.54L2038.61,923.437L2038.65,927.289C2038.63,927.311 2038.62,927.333 2038.6,927.355C2034.76,932.542 2031.3,935.181 2028.37,936.791C2014.78,944.249 2016.14,922.462 2028.27,915.504C2031.84,913.458 2034.35,913.508 2036.37,913.397C2038.08,913.32 2038.72,913.909 2038.72,915.314L2038.72,916.567L2043.58,914.093L2043.58,904.227L2038.72,906.701L2038.72,908.717C2037.16,908.594 2032.95,908.504 2027.51,911.8C2007.67,923.819 2009.83,949.45 2027.79,940.888C2032.96,938.425 2038.53,934.571 2042.8,926.752ZM1944.35,974.753C1944.35,977.105 1942.18,980.378 1935.46,983.801C1932.34,985.388 1924.7,988.026 1924.7,984.758L1924.7,982.895L1919.7,985.446L1919.7,995.098L1924.52,992.64L1924.52,990.929C1925.93,991.008 1930.14,990.571 1935.58,987.801C1941.02,985.032 1945.08,981.863 1946.79,978.823C1948.04,976.627 1948.96,974.45 1948.96,972.251C1948.96,968.341 1946.15,966.81 1942.57,967.867C1941.96,968.025 1939.46,968.995 1938.05,969.711C1933.99,971.933 1930.11,973.604 1927.15,974.808C1925.29,975.452 1923.88,975.22 1923.88,973.052C1923.88,972.105 1924.19,971.033 1924.83,970.218C1926.38,967.866 1929.5,965.668 1933.11,963.985C1936.68,962.317 1939.18,961.988 1941.2,961.878C1942.91,961.8 1943.55,962.39 1943.55,963.795L1943.55,965.047L1948.41,962.573L1948.41,952.707L1943.55,955.181L1943.55,957.197C1941.99,957.075 1937.81,957.496 1932.34,960.281C1926.57,963.222 1923.45,965.909 1921.59,968.721C1920.18,970.689 1919.09,973.418 1919.09,975.617C1919.09,978.885 1920.95,980.288 1923.61,980.003C1926.57,979.594 1932.65,976.65 1935.61,975.293C1938.42,974.014 1940.92,972.586 1942.63,972.661C1943.7,972.575 1944.35,973.501 1944.35,974.753ZM2016.35,922.599L2016.35,918.384L2002.17,925.604L2002.17,929.819L2006.85,927.438L2006.85,946.925L2002.17,949.306L2002.17,953.521L2016.35,946.301L2016.35,942.086L2011.67,944.467L2011.67,924.98L2016.35,922.599ZM2000.3,930.486L2000.3,926.271L1986.13,933.491L1986.13,937.706L1990.8,935.325L1990.8,954.813L1986.13,957.193L1986.13,961.408L2000.3,954.189L2000.3,949.974L1995.63,952.354L1995.63,932.867L2000.3,930.486ZM1970.12,969.422L1984.47,962.109L1984.47,957.894L1980.41,959.963L1979.92,940.725L1983.98,938.656L1983.98,934.44L1970.12,941.505L1970.12,945.72L1975.37,943.329L1975.54,949.202L1959.21,957.489L1959.21,951.275L1963.89,948.894L1963.89,944.679L1949.53,951.992L1949.53,956.207L1954.2,953.826L1954.2,973.314L1949.53,975.694L1949.53,979.909L1963.89,972.596L1963.89,968.381L1959.21,970.762L1959.21,962.026L1975.13,953.746L1975.6,962.412L1970.12,965.207L1970.12,969.422ZM2098.57,891.138C2098.57,885.365 2103.24,878.159 2109.47,874.984C2115.7,871.81 2120.37,874.256 2120.37,880.028C2120.37,885.801 2115.55,893.086 2109.47,896.182C2103.09,899.434 2098.57,897.064 2098.57,891.138Z" style="fill-rule:nonzero;"/><path d="M1869.04,1033.97L1832.13,1015.51L1832.13,867.877L2127.4,720.242L2164.31,738.696L1869.04,886.332L1869.04,1033.97Z" style="fill:rgb(223,185,66);stroke:black;stroke-width:1px;"/><path d="M1832.13,867.877L1869.04,886.332" style="fill:none;stroke:black;stroke-width:1px;"/><path d="M1887.5,895.559L2145.86,766.378L2145.86,840.196L1887.5,969.377L1887.5,895.559Z" style="stroke:black;stroke-width:1px;"/><path d="M1915.18,900.173L1915.18,937.082L1933.63,927.854L1933.63,890.945L1915.18,900.173Z" style="fill:none;stroke:rgb(198,140,57);stroke-width:5px;"/><path d="M1942.86,886.332L1942.86,923.241L1961.31,914.014L1961.31,877.105L1942.86,886.332Z" style="fill:none;stroke:rgb(198,140,57);stroke-width:5px;"/><path d="M1993.61,860.957L1993.61,897.866L2012.06,888.639L2012.06,851.73L1993.61,860.957Z" style="fill:none;stroke:rgb(198,140,57);stroke-width:5px;"/><path d="M2021.29,847.116L2021.29,884.025L2039.75,874.798L2039.75,837.889L2021.29,847.116Z" style="fill:none;stroke:rgb(198,140,57);stroke-width:5px;"/><path d="M2072.04,821.741L2072.04,858.65L2090.49,849.423L2090.49,812.514L2072.04,821.741Z" style="fill:none;stroke:rgb(198,140,57);stroke-width:5px;"/><path d="M2099.72,807.9L2099.72,844.809L2118.18,835.582L2118.18,798.673L2099.72,807.9Z" style="fill:none;stroke:rgb(198,140,57);stroke-width:5px;"/><path d="M1976.95,898.111C1979.55,896.81 1981.66,897.866 1981.66,900.468C1981.66,903.07 1979.55,906.238 1976.95,907.539C1974.35,908.84 1972.23,907.784 1972.23,905.182C1972.23,902.58 1974.35,899.412 1976.95,898.111Z" style="fill:rgb(198,140,57);"/><path d="M2057.34,857.913C2059.95,856.612 2062.06,857.668 2062.06,860.27C2062.06,862.872 2059.95,866.04 2057.34,867.341C2054.74,868.642 2052.63,867.586 2052.63,864.984C2052.63,862.382 2054.74,859.214 2057.34,857.913Z" style="fill:rgb(198,140,57);"/></g><g id="計測器"><g><path d="M3391.12,438.559C3399.17,434.531 3412.25,434.531 3420.31,438.559C3428.36,442.586 3428.36,449.126 3420.31,453.154C3412.25,457.181 3399.17,457.181 3391.12,453.154C3383.06,449.126 3383.06,442.586 3391.12,438.559Z" style="fill:rgb(108,108,108);stroke:black;stroke-width:1px;"/><path d="M3405.33,366.556L3405.57,441.637" style="fill:none;stroke:black;stroke-width:6px;"/><path d="M3405.33,366.556L3405.57,443.283" style="fill:none;stroke:rgb(108,108,108);stroke-width:4px;"/><path d="M3436.28,340.301L3436.28,369.01L3407.58,383.365L3407.58,354.656L3436.28,340.301Z" style="fill:rgb(64,64,64);stroke:black;stroke-width:1px;"/><path d="M3407.58,354.656L3378.87,340.301L3407.58,325.947L3436.28,340.301L3407.58,354.656Z" style="fill:rgb(166,166,166);stroke:black;stroke-width:1px;"/><path d="M3378.87,369.01L3407.58,383.365L3407.58,354.656L3378.87,340.301L3378.87,369.01Z" style="fill:rgb(166,166,166);stroke:black;stroke-width:1px;"/></g><g><path d="M4430.43,960.424C4438.48,956.397 4451.56,956.397 4459.62,960.424C4467.67,964.452 4467.67,970.991 4459.62,975.019C4451.56,979.046 4438.48,979.046 4430.43,975.019C4422.38,970.991 4422.38,964.452 4430.43,960.424Z" style="fill:rgb(108,108,108);stroke:black;stroke-width:1px;"/><path d="M4444.64,888.421L4444.89,963.502" style="fill:none;stroke:black;stroke-width:6px;"/><path d="M4444.64,888.421L4444.89,965.148" style="fill:none;stroke:rgb(108,108,108);stroke-width:4px;"/><path d="M4473.45,852.626L4473.45,881.832L4444.25,896.435L4444.25,867.229L4473.45,852.626Z" style="fill:rgb(166,166,166);stroke:black;stroke-width:1px;"/><path d="M4444.25,867.229L4415.04,852.626L4444.25,838.023L4473.45,852.626L4444.25,867.229Z" style="fill:rgb(166,166,166);stroke:black;stroke-width:1px;"/><path d="M4415.04,881.832L4444.25,896.435L4444.25,867.229L4415.04,852.626L4415.04,881.832Z" style="fill:rgb(166,166,166);stroke:black;stroke-width:1px;"/></g></g><g id="ライン"><path d="M-0,2404.22L3720.82,543.812C3966.66,431.171 4051.74,249.399 3965.06,0" style="fill:none;stroke:white;stroke-width:6px;"/><g><path d="M889.433,1991.04L895.981,1994.31L893.798,2002.68L886.522,2001.95L889.433,1991.04ZM890.16,1987.76L895.981,1984.85L951.361,2012.54L945.54,2015.45L890.16,1987.76Z" style="fill:white;"/><path d="M1045.57,2072.29L1040.48,2069.74L1063.77,2058.1L1068.86,2060.64L1045.57,2072.29ZM1032.4,2043.14C1036.84,2046.09 1037.57,2049.37 1038.3,2051.19C1040.48,2058.83 1029.57,2067.92 1036.12,2071.92L1041.21,2074.47L1034.66,2077.74L1029.57,2075.2C1020.84,2069.38 1029.57,2059.19 1030.29,2055.19C1031.02,2051.19 1028.76,2047.87 1025.85,2046.42L1032.4,2043.14ZM1012.02,2037.32C1017.84,2036.59 1023.67,2038.05 1028.03,2040.23C1028.76,2040.6 1028.76,2040.6 1029.49,2040.96L1022.94,2044.23L1022.21,2043.87C1018.57,2042.05 1014.93,2040.96 1011.3,2041.32C1006.93,2041.32 1003.29,2042.41 999.653,2044.23C996.015,2046.05 992.377,2048.6 990.922,2051.51L983.646,2050.05C985.828,2046.78 990.194,2043.87 995.288,2041.32C1001.11,2038.41 1006.2,2037.32 1012.02,2037.32Z" style="fill:white;"/><path d="M1124.69,2102.02C1120.33,2100.57 1114.5,2101.3 1107.95,2104.57C1102.13,2107.48 1099.95,2109.3 1097.77,2112.57L1091.22,2111.48C1093.4,2108.21 1097.04,2104.93 1103.59,2101.66C1108.68,2099.11 1113.78,2097.29 1119.6,2097.29C1123.24,2096.93 1127.6,2097.66 1131.24,2098.75L1124.69,2102.02ZM1131.24,2108.93C1131.97,2107.12 1131.24,2105.3 1129.78,2103.84L1135.61,2100.93C1141.43,2104.57 1140.05,2112.61 1126.95,2119.16L1123.32,2120.98L1118.14,2118.39L1121.78,2116.57C1126.87,2114.03 1130.51,2111.48 1131.24,2108.93ZM1143.69,2110.07C1150.24,2108.97 1156.79,2110.07 1161.88,2112.61C1166.97,2115.16 1169.16,2118.43 1169.16,2121.35C1167.7,2124.26 1165.52,2126.8 1160.42,2130.08L1155.33,2127.53C1158.24,2125.35 1160.42,2123.53 1160.42,2122.07C1161.15,2119.53 1158.97,2117.71 1155.33,2115.89C1151.69,2114.07 1147.33,2113.34 1142.23,2113.7C1142.23,2113.7 1143.69,2112.98 1142.23,2113.7L1143.69,2110.07ZM1151.69,2129.35L1156.79,2131.89C1151.37,2134.2 1146.52,2135.9 1139.32,2136.99L1137.87,2133.35C1143.04,2132.78 1147.09,2131.33 1151.69,2129.35Z" style="fill:white;"/><path d="M1261.73,2174.99L1266.83,2177.54L1244.27,2188.82L1239.18,2186.27L1235.54,2175.72L1242.73,2174.63L1245.73,2182.99L1261.73,2174.99ZM1241.93,2172.04L1234.73,2173.13L1228.18,2153.12L1235.38,2152.43L1241.93,2172.04ZM1271.92,2169.9L1278.87,2166.42L1283.97,2168.97L1277.01,2172.44L1290.11,2178.99L1284.21,2181.94L1244.84,2162.26L1250.74,2159.31L1271.92,2169.9Z" style="fill:white;"/></g><g><path d="M3645.41,617.798L3651.95,621.072L3649.77,629.44L3642.5,628.712L3645.41,617.798ZM3646.13,614.524L3651.95,611.613L3707.34,639.303L3701.51,642.214L3646.13,614.524Z" style="fill:white;"/><path d="M3801.55,699.049L3796.45,696.502L3819.74,684.861L3824.83,687.407L3801.55,699.049ZM3788.37,669.904C3792.82,672.855 3793.54,676.129 3794.27,677.948C3796.45,685.588 3785.54,694.683 3792.09,698.685L3797.18,701.232L3790.63,704.506L3785.54,701.96C3776.81,696.139 3785.54,685.952 3786.27,681.95C3787,677.948 3784.73,674.633 3781.82,673.178L3788.37,669.904ZM3768,664.083C3773.82,663.355 3779.64,664.811 3784,666.993C3784.73,667.357 3784.73,667.357 3785.46,667.721L3778.91,670.995L3778.18,670.632C3774.55,668.813 3770.91,667.721 3767.27,668.085C3762.9,668.085 3759.26,669.176 3755.63,670.995C3751.99,672.814 3748.35,675.361 3746.9,678.272L3739.62,676.816C3741.8,673.542 3746.17,670.632 3751.26,668.085C3757.08,665.174 3762.18,664.083 3768,664.083Z" style="fill:white;"/><path d="M3880.66,728.784C3876.3,727.329 3870.48,728.057 3863.93,731.331C3858.11,734.242 3855.93,736.061 3853.74,739.335L3847.19,738.243C3849.38,734.969 3853.01,731.695 3859.56,728.421C3864.66,725.874 3869.75,724.055 3875.57,724.055C3879.21,723.691 3883.58,724.419 3887.21,725.51L3880.66,728.784ZM3887.21,735.697C3887.94,733.878 3887.21,732.059 3885.76,730.603L3891.58,727.693C3897.4,731.331 3896.03,739.375 3882.93,745.924L3879.29,747.743L3874.12,745.156L3877.75,743.337C3882.85,740.79 3886.49,738.243 3887.21,735.697ZM3899.66,736.829C3906.21,735.737 3912.76,736.829 3917.85,739.375C3922.95,741.922 3925.13,745.196 3925.13,748.107C3923.68,751.017 3921.49,753.564 3916.4,756.838L3911.31,754.292C3914.22,752.109 3916.4,750.29 3916.4,748.834C3917.13,746.288 3914.94,744.469 3911.31,742.65C3907.67,740.831 3903.3,740.103 3898.21,740.467C3898.21,740.467 3899.66,739.739 3898.21,740.467L3899.66,736.829ZM3907.67,756.111L3912.76,758.657C3907.34,760.961 3902.49,762.659 3895.3,763.751L3893.84,760.112C3899.02,759.547 3903.06,758.091 3907.67,756.111Z" style="fill:white;"/><path d="M4017.71,801.752L4022.8,804.299L4000.24,815.577L3995.15,813.031L3991.51,802.48L3998.71,801.389L4001.7,809.756L4017.71,801.752ZM3997.9,798.802L3990.7,799.893L3984.16,779.883L3991.35,779.196L3997.9,798.802ZM4027.89,796.659L4034.85,793.183L4039.94,795.729L4032.99,799.206L4046.08,805.754L4040.18,808.705L4000.81,789.019L4006.71,786.068L4027.89,796.659Z" style="fill:white;"/></g><path d="M3663.57,572.433L4121.52,801.407" style="fill:none;stroke:white;stroke-width:6px;"/><path d="M4693.95,57.243L3663.57,572.433C3856.55,648.486 4111.72,684.087 4350.49,686.92" style="fill:none;stroke:white;stroke-width:6px;"/><path d="M916.915,1946.78L1373.84,2175.25" style="fill:none;stroke:white;stroke-width:6px;"/><path d="M-0,2518.71L4808.44,114.487" style="fill:none;stroke:white;stroke-width:6px;"/><path d="M-0,2633.19L4922.93,171.73" style="fill:none;stroke:white;stroke-width:6px;"/><path d="M-0,2747.68L5037.41,228.973" style="fill:none;stroke:white;stroke-width:6px;"/><path d="M-0,2862.17L5151.9,286.217" style="fill:none;stroke:white;stroke-width:6px;"/><path d="M3778.06,629.677C4025.51,507.737 4200.45,327.581 4080.39,0" style="fill:none;stroke:white;stroke-width:6px;"/><path d="M3892.55,686.92C4110.48,539.289 4352.29,428.053 4193.8,0" style="fill:none;stroke:white;stroke-width:6px;"/><path d="M4007.03,744.163C4224.53,604.966 4496.82,488.121 4308.22,0" style="fill:none;stroke:white;stroke-width:6px;"/><path d="M4121.52,801.407C4410.34,635.071 4611.96,447.047 4418.6,0" style="fill:none;stroke:white;stroke-width:6px;"/></g><g id="ハードル"><g><g><path d="M1426.96,1700.93L1441.27,1693.77L1527.14,1736.7L1505.67,1747.44" style="fill:none;stroke:black;stroke-width:6px;"/><path d="M1527.14,1736.7L1527.14,1693.77L1527.14,1736.7Z" style="fill:none;stroke:black;stroke-width:6px;"/><path d="M1441.27,1693.77L1441.27,1650.84L1441.27,1693.77Z" style="fill:none;stroke:black;stroke-width:6px;"/><path d="M1426.96,1700.93L1441.27,1693.77L1527.14,1736.7L1505.67,1747.44" style="fill:none;stroke:rgb(141,156,165);stroke-width:4px;"/><path d="M1441.27,1693.77L1441.27,1650.84L1441.27,1693.77Z" style="fill:none;stroke:rgb(141,156,165);stroke-width:4px;"/><path d="M1527.14,1736.7L1527.14,1693.77L1527.14,1736.7Z" style="fill:none;stroke:rgb(141,156,165);stroke-width:4px;"/><path d="M1539.71,1692.9L1539.71,1685.75L1532.55,1689.33L1532.55,1696.48L1539.71,1692.9Z" style="fill:rgb(191,191,191);stroke:black;stroke-width:1px;"/><path d="M1432.38,1646.39L1532.55,1696.48L1532.55,1689.33L1432.38,1639.24L1432.38,1646.39Z" style="fill:rgb(191,191,191);stroke:black;stroke-width:1px;"/><path d="M1448.43,1654.42L1448.43,1647.26L1462.74,1654.42L1462.74,1661.57L1448.43,1654.42Z" style="stroke:black;stroke-width:1px;"/><path d="M1517.15,1688.78L1517.15,1681.62L1502.84,1674.47L1502.84,1681.62L1517.15,1688.78Z" style="stroke:black;stroke-width:1px;"/><path d="M1439.53,1635.66L1539.71,1685.75L1532.55,1689.33L1432.38,1639.24L1439.53,1635.66Z" style="fill:rgb(191,191,191);stroke:black;stroke-width:1px;"/></g><g><path d="M1534.91,1760.99L1549.22,1753.84L1635.09,1796.77L1613.62,1807.5" style="fill:none;stroke:black;stroke-width:6px;"/><path d="M1635.09,1796.77L1635.09,1753.84L1635.09,1796.77Z" style="fill:none;stroke:black;stroke-width:6px;"/><path d="M1549.22,1753.84L1549.22,1710.9L1549.22,1753.84Z" style="fill:none;stroke:black;stroke-width:6px;"/><path d="M1534.91,1760.99L1549.22,1753.84L1635.09,1796.77L1613.62,1807.5" style="fill:none;stroke:rgb(141,156,165);stroke-width:4px;"/><path d="M1549.22,1753.84L1549.22,1710.9L1549.22,1753.84Z" style="fill:none;stroke:rgb(141,156,165);stroke-width:4px;"/><path d="M1635.09,1796.77L1635.09,1753.84L1635.09,1796.77Z" style="fill:none;stroke:rgb(141,156,165);stroke-width:4px;"/><path d="M1647.66,1752.97L1647.66,1745.81L1640.5,1749.39L1640.5,1756.54L1647.66,1752.97Z" style="fill:rgb(191,191,191);stroke:black;stroke-width:1px;"/><path d="M1540.33,1706.46L1640.5,1756.54L1640.5,1749.39L1540.33,1699.3L1540.33,1706.46Z" style="fill:rgb(191,191,191);stroke:black;stroke-width:1px;"/><path d="M1556.38,1714.48L1556.38,1707.33L1570.69,1714.48L1570.69,1721.64L1556.38,1714.48Z" style="stroke:black;stroke-width:1px;"/><path d="M1625.1,1748.84L1625.1,1741.69L1610.79,1734.53L1610.79,1741.69L1625.1,1748.84Z" style="stroke:black;stroke-width:1px;"/><path d="M1547.48,1695.72L1647.66,1745.81L1640.5,1749.39L1540.33,1699.3L1547.48,1695.72Z" style="fill:rgb(191,191,191);stroke:black;stroke-width:1px;"/></g><g><path d="M1647.66,1821.42L1661.97,1814.26L1747.83,1857.19L1726.37,1867.93" style="fill:none;stroke:black;stroke-width:6px;"/><path d="M1747.83,1857.19L1747.83,1814.26L1747.83,1857.19Z" style="fill:none;stroke:black;stroke-width:6px;"/><path d="M1661.97,1814.26L1661.97,1771.33L1661.97,1814.26Z" style="fill:none;stroke:black;stroke-width:6px;"/><path d="M1647.66,1821.42L1661.97,1814.26L1747.83,1857.19L1726.37,1867.93" style="fill:none;stroke:rgb(141,156,165);stroke-width:4px;"/><path d="M1661.97,1814.26L1661.97,1771.33L1661.97,1814.26Z" style="fill:none;stroke:rgb(141,156,165);stroke-width:4px;"/><path d="M1747.83,1857.19L1747.83,1814.26L1747.83,1857.19Z" style="fill:none;stroke:rgb(141,156,165);stroke-width:4px;"/><path d="M1760.4,1813.39L1760.4,1806.24L1753.25,1809.81L1753.25,1816.97L1760.4,1813.39Z" style="fill:rgb(191,191,191);stroke:black;stroke-width:1px;"/><path d="M1653.07,1766.88L1753.25,1816.97L1753.25,1809.81L1653.07,1759.73L1653.07,1766.88Z" style="fill:rgb(191,191,191);stroke:black;stroke-width:1px;"/><path d="M1669.12,1774.91L1669.12,1767.75L1683.43,1774.91L1683.43,1782.06L1669.12,1774.91Z" style="stroke:black;stroke-width:1px;"/><path d="M1737.84,1809.27L1737.84,1802.11L1723.53,1794.96L1723.53,1802.11L1737.84,1809.27Z" style="stroke:black;stroke-width:1px;"/><path d="M1660.23,1756.15L1760.4,1806.24L1753.25,1809.81L1653.07,1759.73L1660.23,1756.15Z" style="fill:rgb(191,191,191);stroke:black;stroke-width:1px;"/></g><g><path d="M1760.4,1877.79L1774.71,1870.63L1860.58,1913.57L1839.11,1924.3" style="fill:none;stroke:black;stroke-width:6px;"/><path d="M1860.58,1913.57L1860.58,1870.63L1860.58,1913.57Z" style="fill:none;stroke:black;stroke-width:6px;"/><path d="M1774.71,1870.63L1774.71,1827.7L1774.71,1870.63Z" style="fill:none;stroke:black;stroke-width:6px;"/><path d="M1760.4,1877.79L1774.71,1870.63L1860.58,1913.57L1839.11,1924.3" style="fill:none;stroke:rgb(141,156,165);stroke-width:4px;"/><path d="M1774.71,1870.63L1774.71,1827.7L1774.71,1870.63Z" style="fill:none;stroke:rgb(141,156,165);stroke-width:4px;"/><path d="M1860.58,1913.57L1860.58,1870.63L1860.58,1913.57Z" style="fill:none;stroke:rgb(141,156,165);stroke-width:4px;"/><path d="M1873.15,1869.76L1873.15,1862.61L1865.99,1866.19L1865.99,1873.34L1873.15,1869.76Z" style="fill:rgb(191,191,191);stroke:black;stroke-width:1px;"/><path d="M1765.82,1823.25L1865.99,1873.34L1865.99,1866.19L1765.82,1816.1L1765.82,1823.25Z" style="fill:rgb(191,191,191);stroke:black;stroke-width:1px;"/><path d="M1781.87,1831.28L1781.87,1824.12L1796.18,1831.28L1796.18,1838.43L1781.87,1831.28Z" style="stroke:black;stroke-width:1px;"/><path d="M1850.59,1865.64L1850.59,1858.49L1836.28,1851.33L1836.28,1858.49L1850.59,1865.64Z" style="stroke:black;stroke-width:1px;"/><path d="M1772.97,1812.52L1873.15,1862.61L1865.99,1866.19L1765.82,1816.1L1772.97,1812.52Z" style="fill:rgb(191,191,191);stroke:black;stroke-width:1px;"/></g></g><g><g><path d="M1655.93,1586.44L1670.25,1579.29L1756.11,1622.22L1734.64,1632.95" style="fill:none;stroke:black;stroke-width:6px;"/><path d="M1756.11,1622.22L1756.11,1579.29L1756.11,1622.22Z" style="fill:none;stroke:black;stroke-width:6px;"/><path d="M1670.25,1579.29L1670.25,1536.35L1670.25,1579.29Z" style="fill:none;stroke:black;stroke-width:6px;"/><path d="M1655.93,1586.44L1670.25,1579.29L1756.11,1622.22L1734.64,1632.95" style="fill:none;stroke:rgb(141,156,165);stroke-width:4px;"/><path d="M1670.25,1579.29L1670.25,1536.35L1670.25,1579.29Z" style="fill:none;stroke:rgb(141,156,165);stroke-width:4px;"/><path d="M1756.11,1622.22L1756.11,1579.29L1756.11,1622.22Z" style="fill:none;stroke:rgb(141,156,165);stroke-width:4px;"/><path d="M1768.68,1578.42L1768.68,1571.26L1761.53,1574.84L1761.53,1581.99L1768.68,1578.42Z" style="fill:rgb(191,191,191);stroke:black;stroke-width:1px;"/><path d="M1661.35,1531.9L1761.53,1581.99L1761.53,1574.84L1661.35,1524.75L1661.35,1531.9Z" style="fill:rgb(191,191,191);stroke:black;stroke-width:1px;"/><path d="M1677.4,1539.93L1677.4,1532.78L1691.71,1539.93L1691.71,1547.09L1677.4,1539.93Z" style="stroke:black;stroke-width:1px;"/><path d="M1746.12,1574.29L1746.12,1567.14L1731.81,1559.98L1731.81,1567.14L1746.12,1574.29Z" style="stroke:black;stroke-width:1px;"/><path d="M1668.5,1521.17L1768.68,1571.26L1761.53,1574.84L1661.35,1524.75L1668.5,1521.17Z" style="fill:rgb(191,191,191);stroke:black;stroke-width:1px;"/></g><g><path d="M1763.88,1646.51L1778.19,1639.35L1864.06,1682.28L1842.59,1693.02" style="fill:none;stroke:black;stroke-width:6px;"/><path d="M1864.06,1682.28L1864.06,1639.35L1864.06,1682.28Z" style="fill:none;stroke:black;stroke-width:6px;"/><path d="M1778.19,1639.35L1778.19,1596.42L1778.19,1639.35Z" style="fill:none;stroke:black;stroke-width:6px;"/><path d="M1763.88,1646.51L1778.19,1639.35L1864.06,1682.28L1842.59,1693.02" style="fill:none;stroke:rgb(141,156,165);stroke-width:4px;"/><path d="M1778.19,1639.35L1778.19,1596.42L1778.19,1639.35Z" style="fill:none;stroke:rgb(141,156,165);stroke-width:4px;"/><path d="M1864.06,1682.28L1864.06,1639.35L1864.06,1682.28Z" style="fill:none;stroke:rgb(141,156,165);stroke-width:4px;"/><path d="M1876.63,1638.48L1876.63,1631.32L1869.47,1634.9L1869.47,1642.06L1876.63,1638.48Z" style="fill:rgb(191,191,191);stroke:black;stroke-width:1px;"/><path d="M1769.3,1591.97L1869.47,1642.06L1869.47,1634.9L1769.3,1584.81L1769.3,1591.97Z" style="fill:rgb(191,191,191);stroke:black;stroke-width:1px;"/><path d="M1785.35,1600L1785.35,1592.84L1799.66,1600L1799.66,1607.15L1785.35,1600Z" style="stroke:black;stroke-width:1px;"/><path d="M1854.07,1634.36L1854.07,1627.2L1839.76,1620.05L1839.76,1627.2L1854.07,1634.36Z" style="stroke:black;stroke-width:1px;"/><path d="M1776.45,1581.24L1876.63,1631.32L1869.47,1634.9L1769.3,1584.81L1776.45,1581.24Z" style="fill:rgb(191,191,191);stroke:black;stroke-width:1px;"/></g><g><path d="M1876.63,1706.93L1890.94,1699.78L1976.81,1742.71L1955.34,1753.44" style="fill:none;stroke:black;stroke-width:6px;"/><path d="M1976.81,1742.71L1976.81,1699.78L1976.81,1742.71Z" style="fill:none;stroke:black;stroke-width:6px;"/><path d="M1890.94,1699.78L1890.94,1656.84L1890.94,1699.78Z" style="fill:none;stroke:black;stroke-width:6px;"/><path d="M1876.63,1706.93L1890.94,1699.78L1976.81,1742.71L1955.34,1753.44" style="fill:none;stroke:rgb(141,156,165);stroke-width:4px;"/><path d="M1890.94,1699.78L1890.94,1656.84L1890.94,1699.78Z" style="fill:none;stroke:rgb(141,156,165);stroke-width:4px;"/><path d="M1976.81,1742.71L1976.81,1699.78L1976.81,1742.71Z" style="fill:none;stroke:rgb(141,156,165);stroke-width:4px;"/><path d="M1989.38,1698.9L1989.38,1691.75L1982.22,1695.33L1982.22,1702.48L1989.38,1698.9Z" style="fill:rgb(191,191,191);stroke:black;stroke-width:1px;"/><path d="M1882.04,1652.39L1982.22,1702.48L1982.22,1695.33L1882.04,1645.24L1882.04,1652.39Z" style="fill:rgb(191,191,191);stroke:black;stroke-width:1px;"/><path d="M1898.1,1660.42L1898.1,1653.27L1912.41,1660.42L1912.41,1667.58L1898.1,1660.42Z" style="stroke:black;stroke-width:1px;"/><path d="M1966.82,1694.78L1966.82,1687.62L1952.51,1680.47L1952.51,1687.62L1966.82,1694.78Z" style="stroke:black;stroke-width:1px;"/><path d="M1889.2,1641.66L1989.38,1691.75L1982.22,1695.33L1882.04,1645.24L1889.2,1641.66Z" style="fill:rgb(191,191,191);stroke:black;stroke-width:1px;"/></g><g><path d="M1989.38,1763.3L2003.69,1756.15L2089.55,1799.08L2068.09,1809.81" style="fill:none;stroke:black;stroke-width:6px;"/><path d="M2089.55,1799.08L2089.55,1756.15L2089.55,1799.08Z" style="fill:none;stroke:black;stroke-width:6px;"/><path d="M2003.69,1756.15L2003.69,1713.22L2003.69,1756.15Z" style="fill:none;stroke:black;stroke-width:6px;"/><path d="M1989.38,1763.3L2003.69,1756.15L2089.55,1799.08L2068.09,1809.81" style="fill:none;stroke:rgb(141,156,165);stroke-width:4px;"/><path d="M2003.69,1756.15L2003.69,1713.22L2003.69,1756.15Z" style="fill:none;stroke:rgb(141,156,165);stroke-width:4px;"/><path d="M2089.55,1799.08L2089.55,1756.15L2089.55,1799.08Z" style="fill:none;stroke:rgb(141,156,165);stroke-width:4px;"/><path d="M2102.12,1755.28L2102.12,1748.12L2094.97,1751.7L2094.97,1758.86L2102.12,1755.28Z" style="fill:rgb(191,191,191);stroke:black;stroke-width:1px;"/><path d="M1994.79,1708.77L2094.97,1758.86L2094.97,1751.7L1994.79,1701.61L1994.79,1708.77Z" style="fill:rgb(191,191,191);stroke:black;stroke-width:1px;"/><path d="M2010.84,1716.79L2010.84,1709.64L2025.15,1716.79L2025.15,1723.95L2010.84,1716.79Z" style="stroke:black;stroke-width:1px;"/><path d="M2079.56,1751.15L2079.56,1744L2065.25,1736.84L2065.25,1744L2079.56,1751.15Z" style="stroke:black;stroke-width:1px;"/><path d="M2001.94,1698.03L2102.12,1748.12L2094.97,1751.7L1994.79,1701.61L2001.94,1698.03Z" style="fill:rgb(191,191,191);stroke:black;stroke-width:1px;"/></g></g><g><g><path d="M1884.91,1471.95L1899.22,1464.8L1985.09,1507.73L1963.62,1518.46" style="fill:none;stroke:black;stroke-width:6px;"/><path d="M1985.09,1507.73L1985.09,1464.8L1985.09,1507.73Z" style="fill:none;stroke:black;stroke-width:6px;"/><path d="M1899.22,1464.8L1899.22,1421.87L1899.22,1464.8Z" style="fill:none;stroke:black;stroke-width:6px;"/><path d="M1884.91,1471.95L1899.22,1464.8L1985.09,1507.73L1963.62,1518.46" style="fill:none;stroke:rgb(141,156,165);stroke-width:4px;"/><path d="M1899.22,1464.8L1899.22,1421.87L1899.22,1464.8Z" style="fill:none;stroke:rgb(141,156,165);stroke-width:4px;"/><path d="M1985.09,1507.73L1985.09,1464.8L1985.09,1507.73Z" style="fill:none;stroke:rgb(141,156,165);stroke-width:4px;"/><path d="M1997.66,1463.93L1997.66,1456.77L1990.5,1460.35L1990.5,1467.51L1997.66,1463.93Z" style="fill:rgb(191,191,191);stroke:black;stroke-width:1px;"/><path d="M1890.32,1417.42L1990.5,1467.51L1990.5,1460.35L1890.32,1410.26L1890.32,1417.42Z" style="fill:rgb(191,191,191);stroke:black;stroke-width:1px;"/><path d="M1906.38,1425.44L1906.38,1418.29L1920.69,1425.44L1920.69,1432.6L1906.38,1425.44Z" style="stroke:black;stroke-width:1px;"/><path d="M1975.1,1459.8L1975.1,1452.65L1960.79,1445.49L1960.79,1452.65L1975.1,1459.8Z" style="stroke:black;stroke-width:1px;"/><path d="M1897.48,1406.68L1997.66,1456.77L1990.5,1460.35L1890.32,1410.26L1897.48,1406.68Z" style="fill:rgb(191,191,191);stroke:black;stroke-width:1px;"/></g><g><path d="M1992.86,1532.02L2007.17,1524.86L2093.03,1567.8L2071.57,1578.53" style="fill:none;stroke:black;stroke-width:6px;"/><path d="M2093.03,1567.8L2093.03,1524.86L2093.03,1567.8Z" style="fill:none;stroke:black;stroke-width:6px;"/><path d="M2007.17,1524.86L2007.17,1481.93L2007.17,1524.86Z" style="fill:none;stroke:black;stroke-width:6px;"/><path d="M1992.86,1532.02L2007.17,1524.86L2093.03,1567.8L2071.57,1578.53" style="fill:none;stroke:rgb(141,156,165);stroke-width:4px;"/><path d="M2007.17,1524.86L2007.17,1481.93L2007.17,1524.86Z" style="fill:none;stroke:rgb(141,156,165);stroke-width:4px;"/><path d="M2093.03,1567.8L2093.03,1524.86L2093.03,1567.8Z" style="fill:none;stroke:rgb(141,156,165);stroke-width:4px;"/><path d="M2105.61,1523.99L2105.61,1516.84L2098.45,1520.41L2098.45,1527.57L2105.61,1523.99Z" style="fill:rgb(191,191,191);stroke:black;stroke-width:1px;"/><path d="M1998.27,1477.48L2098.45,1527.57L2098.45,1520.41L1998.27,1470.33L1998.27,1477.48Z" style="fill:rgb(191,191,191);stroke:black;stroke-width:1px;"/><path d="M2014.33,1485.51L2014.33,1478.35L2028.64,1485.51L2028.64,1492.66L2014.33,1485.51Z" style="stroke:black;stroke-width:1px;"/><path d="M2083.05,1519.87L2083.05,1512.71L2068.74,1505.56L2068.74,1512.71L2083.05,1519.87Z" style="stroke:black;stroke-width:1px;"/><path d="M2005.43,1466.75L2105.61,1516.84L2098.45,1520.41L1998.27,1470.33L2005.43,1466.75Z" style="fill:rgb(191,191,191);stroke:black;stroke-width:1px;"/></g><g><path d="M2105.61,1592.44L2119.92,1585.29L2205.78,1628.22L2184.31,1638.95" style="fill:none;stroke:black;stroke-width:6px;"/><path d="M2205.78,1628.22L2205.78,1585.29L2205.78,1628.22Z" style="fill:none;stroke:black;stroke-width:6px;"/><path d="M2119.92,1585.29L2119.92,1542.36L2119.92,1585.29Z" style="fill:none;stroke:black;stroke-width:6px;"/><path d="M2105.61,1592.44L2119.92,1585.29L2205.78,1628.22L2184.31,1638.95" style="fill:none;stroke:rgb(141,156,165);stroke-width:4px;"/><path d="M2119.92,1585.29L2119.92,1542.36L2119.92,1585.29Z" style="fill:none;stroke:rgb(141,156,165);stroke-width:4px;"/><path d="M2205.78,1628.22L2205.78,1585.29L2205.78,1628.22Z" style="fill:none;stroke:rgb(141,156,165);stroke-width:4px;"/><path d="M2218.35,1584.42L2218.35,1577.26L2211.2,1580.84L2211.2,1587.99L2218.35,1584.42Z" style="fill:rgb(191,191,191);stroke:black;stroke-width:1px;"/><path d="M2111.02,1537.91L2211.2,1587.99L2211.2,1580.84L2111.02,1530.75L2111.02,1537.91Z" style="fill:rgb(191,191,191);stroke:black;stroke-width:1px;"/><path d="M2127.07,1545.93L2127.07,1538.78L2141.38,1545.93L2141.38,1553.09L2127.07,1545.93Z" style="stroke:black;stroke-width:1px;"/><path d="M2195.79,1580.29L2195.79,1573.14L2181.48,1565.98L2181.48,1573.14L2195.79,1580.29Z" style="stroke:black;stroke-width:1px;"/><path d="M2118.18,1527.17L2218.35,1577.26L2211.2,1580.84L2111.02,1530.75L2118.18,1527.17Z" style="fill:rgb(191,191,191);stroke:black;stroke-width:1px;"/></g><g><path d="M2218.35,1648.82L2232.66,1641.66L2318.53,1684.59L2297.06,1695.33" style="fill:none;stroke:black;stroke-width:6px;"/><path d="M2318.53,1684.59L2318.53,1641.66L2318.53,1684.59Z" style="fill:none;stroke:black;stroke-width:6px;"/><path d="M2232.66,1641.66L2232.66,1598.73L2232.66,1641.66Z" style="fill:none;stroke:black;stroke-width:6px;"/><path d="M2218.35,1648.82L2232.66,1641.66L2318.53,1684.59L2297.06,1695.33" style="fill:none;stroke:rgb(141,156,165);stroke-width:4px;"/><path d="M2232.66,1641.66L2232.66,1598.73L2232.66,1641.66Z" style="fill:none;stroke:rgb(141,156,165);stroke-width:4px;"/><path d="M2318.53,1684.59L2318.53,1641.66L2318.53,1684.59Z" style="fill:none;stroke:rgb(141,156,165);stroke-width:4px;"/><path d="M2331.1,1640.79L2331.1,1633.63L2323.94,1637.21L2323.94,1644.37L2331.1,1640.79Z" style="fill:rgb(191,191,191);stroke:black;stroke-width:1px;"/><path d="M2223.76,1594.28L2323.94,1644.37L2323.94,1637.21L2223.76,1587.12L2223.76,1594.28Z" style="fill:rgb(191,191,191);stroke:black;stroke-width:1px;"/><path d="M2239.82,1602.31L2239.82,1595.15L2254.13,1602.31L2254.13,1609.46L2239.82,1602.31Z" style="stroke:black;stroke-width:1px;"/><path d="M2308.54,1636.67L2308.54,1629.51L2294.23,1622.36L2294.23,1629.51L2308.54,1636.67Z" style="stroke:black;stroke-width:1px;"/><path d="M2230.92,1583.55L2331.1,1633.63L2323.94,1637.21L2223.76,1587.12L2230.92,1583.55Z" style="fill:rgb(191,191,191);stroke:black;stroke-width:1px;"/></g></g><g><g><path d="M2113.88,1357.47L2128.19,1350.31L2214.06,1393.25L2192.59,1403.98" style="fill:none;stroke:black;stroke-width:6px;"/><path d="M2214.06,1393.25L2214.06,1350.31L2214.06,1393.25Z" style="fill:none;stroke:black;stroke-width:6px;"/><path d="M2128.19,1350.31L2128.19,1307.38L2128.19,1350.31Z" style="fill:none;stroke:black;stroke-width:6px;"/><path d="M2113.88,1357.47L2128.19,1350.31L2214.06,1393.25L2192.59,1403.98" style="fill:none;stroke:rgb(141,156,165);stroke-width:4px;"/><path d="M2128.19,1350.31L2128.19,1307.38L2128.19,1350.31Z" style="fill:none;stroke:rgb(141,156,165);stroke-width:4px;"/><path d="M2214.06,1393.25L2214.06,1350.31L2214.06,1393.25Z" style="fill:none;stroke:rgb(141,156,165);stroke-width:4px;"/><path d="M2226.63,1349.44L2226.63,1342.29L2219.47,1345.87L2219.47,1353.02L2226.63,1349.44Z" style="fill:rgb(191,191,191);stroke:black;stroke-width:1px;"/><path d="M2119.3,1302.93L2219.47,1353.02L2219.47,1345.87L2119.3,1295.78L2119.3,1302.93Z" style="fill:rgb(191,191,191);stroke:black;stroke-width:1px;"/><path d="M2135.35,1310.96L2135.35,1303.8L2149.66,1310.96L2149.66,1318.11L2135.35,1310.96Z" style="stroke:black;stroke-width:1px;"/><path d="M2204.07,1345.32L2204.07,1338.16L2189.76,1331.01L2189.76,1338.16L2204.07,1345.32Z" style="stroke:black;stroke-width:1px;"/><path d="M2126.45,1292.2L2226.63,1342.29L2219.47,1345.87L2119.3,1295.78L2126.45,1292.2Z" style="fill:rgb(191,191,191);stroke:black;stroke-width:1px;"/></g><g><path d="M2221.83,1417.53L2236.14,1410.38L2322.01,1453.31L2300.54,1464.04" style="fill:none;stroke:black;stroke-width:6px;"/><path d="M2322.01,1453.31L2322.01,1410.38L2322.01,1453.31Z" style="fill:none;stroke:black;stroke-width:6px;"/><path d="M2236.14,1410.38L2236.14,1367.44L2236.14,1410.38Z" style="fill:none;stroke:black;stroke-width:6px;"/><path d="M2221.83,1417.53L2236.14,1410.38L2322.01,1453.31L2300.54,1464.04" style="fill:none;stroke:rgb(141,156,165);stroke-width:4px;"/><path d="M2236.14,1410.38L2236.14,1367.44L2236.14,1410.38Z" style="fill:none;stroke:rgb(141,156,165);stroke-width:4px;"/><path d="M2322.01,1453.31L2322.01,1410.38L2322.01,1453.31Z" style="fill:none;stroke:rgb(141,156,165);stroke-width:4px;"/><path d="M2334.58,1409.51L2334.58,1402.35L2327.42,1405.93L2327.42,1413.08L2334.58,1409.51Z" style="fill:rgb(191,191,191);stroke:black;stroke-width:1px;"/><path d="M2227.24,1363L2327.42,1413.08L2327.42,1405.93L2227.24,1355.84L2227.24,1363Z" style="fill:rgb(191,191,191);stroke:black;stroke-width:1px;"/><path d="M2243.3,1371.02L2243.3,1363.87L2257.61,1371.02L2257.61,1378.18L2243.3,1371.02Z" style="stroke:black;stroke-width:1px;"/><path d="M2312.02,1405.38L2312.02,1398.23L2297.71,1391.07L2297.71,1398.23L2312.02,1405.38Z" style="stroke:black;stroke-width:1px;"/><path d="M2234.4,1352.26L2334.58,1402.35L2327.42,1405.93L2227.24,1355.84L2234.4,1352.26Z" style="fill:rgb(191,191,191);stroke:black;stroke-width:1px;"/></g><g><path d="M2334.58,1477.96L2348.89,1470.8L2434.75,1513.73L2413.29,1524.47" style="fill:none;stroke:black;stroke-width:6px;"/><path d="M2434.75,1513.73L2434.75,1470.8L2434.75,1513.73Z" style="fill:none;stroke:black;stroke-width:6px;"/><path d="M2348.89,1470.8L2348.89,1427.87L2348.89,1470.8Z" style="fill:none;stroke:black;stroke-width:6px;"/><path d="M2334.58,1477.96L2348.89,1470.8L2434.75,1513.73L2413.29,1524.47" style="fill:none;stroke:rgb(141,156,165);stroke-width:4px;"/><path d="M2348.89,1470.8L2348.89,1427.87L2348.89,1470.8Z" style="fill:none;stroke:rgb(141,156,165);stroke-width:4px;"/><path d="M2434.75,1513.73L2434.75,1470.8L2434.75,1513.73Z" style="fill:none;stroke:rgb(141,156,165);stroke-width:4px;"/><path d="M2447.32,1469.93L2447.32,1462.78L2440.17,1466.35L2440.17,1473.51L2447.32,1469.93Z" style="fill:rgb(191,191,191);stroke:black;stroke-width:1px;"/><path d="M2339.99,1423.42L2440.17,1473.51L2440.17,1466.35L2339.99,1416.27L2339.99,1423.42Z" style="fill:rgb(191,191,191);stroke:black;stroke-width:1px;"/><path d="M2356.04,1431.45L2356.04,1424.29L2370.35,1431.45L2370.35,1438.6L2356.04,1431.45Z" style="stroke:black;stroke-width:1px;"/><path d="M2424.76,1465.81L2424.76,1458.65L2410.45,1451.5L2410.45,1458.65L2424.76,1465.81Z" style="stroke:black;stroke-width:1px;"/><path d="M2347.15,1412.69L2447.32,1462.78L2440.17,1466.35L2339.99,1416.27L2347.15,1412.69Z" style="fill:rgb(191,191,191);stroke:black;stroke-width:1px;"/></g><g><path d="M2447.32,1534.33L2461.63,1527.17L2547.5,1570.11L2526.03,1580.84" style="fill:none;stroke:black;stroke-width:6px;"/><path d="M2547.5,1570.11L2547.5,1527.17L2547.5,1570.11Z" style="fill:none;stroke:black;stroke-width:6px;"/><path d="M2461.63,1527.17L2461.63,1484.24L2461.63,1527.17Z" style="fill:none;stroke:black;stroke-width:6px;"/><path d="M2447.32,1534.33L2461.63,1527.17L2547.5,1570.11L2526.03,1580.84" style="fill:none;stroke:rgb(141,156,165);stroke-width:4px;"/><path d="M2461.63,1527.17L2461.63,1484.24L2461.63,1527.17Z" style="fill:none;stroke:rgb(141,156,165);stroke-width:4px;"/><path d="M2547.5,1570.11L2547.5,1527.17L2547.5,1570.11Z" style="fill:none;stroke:rgb(141,156,165);stroke-width:4px;"/><path d="M2560.07,1526.3L2560.07,1519.15L2552.91,1522.73L2552.91,1529.88L2560.07,1526.3Z" style="fill:rgb(191,191,191);stroke:black;stroke-width:1px;"/><path d="M2452.74,1479.79L2552.91,1529.88L2552.91,1522.73L2452.74,1472.64L2452.74,1479.79Z" style="fill:rgb(191,191,191);stroke:black;stroke-width:1px;"/><path d="M2468.79,1487.82L2468.79,1480.66L2483.1,1487.82L2483.1,1494.98L2468.79,1487.82Z" style="stroke:black;stroke-width:1px;"/><path d="M2537.51,1522.18L2537.51,1515.03L2523.2,1507.87L2523.2,1515.03L2537.51,1522.18Z" style="stroke:black;stroke-width:1px;"/><path d="M2459.89,1469.06L2560.07,1519.15L2552.91,1522.73L2452.74,1472.64L2459.89,1469.06Z" style="fill:rgb(191,191,191);stroke:black;stroke-width:1px;"/></g></g><g><g><path d="M2342.85,1242.98L2357.16,1235.83L2443.03,1278.76L2421.56,1289.49" style="fill:none;stroke:black;stroke-width:6px;"/><path d="M2443.03,1278.76L2443.03,1235.83L2443.03,1278.76Z" style="fill:none;stroke:black;stroke-width:6px;"/><path d="M2357.16,1235.83L2357.16,1192.89L2357.16,1235.83Z" style="fill:none;stroke:black;stroke-width:6px;"/><path d="M2342.85,1242.98L2357.16,1235.83L2443.03,1278.76L2421.56,1289.49" style="fill:none;stroke:rgb(141,156,165);stroke-width:4px;"/><path d="M2357.16,1235.83L2357.16,1192.89L2357.16,1235.83Z" style="fill:none;stroke:rgb(141,156,165);stroke-width:4px;"/><path d="M2443.03,1278.76L2443.03,1235.83L2443.03,1278.76Z" style="fill:none;stroke:rgb(141,156,165);stroke-width:4px;"/><path d="M2455.6,1234.96L2455.6,1227.8L2448.44,1231.38L2448.44,1238.53L2455.6,1234.96Z" style="fill:rgb(191,191,191);stroke:black;stroke-width:1px;"/><path d="M2348.27,1188.45L2448.44,1238.53L2448.44,1231.38L2348.27,1181.29L2348.27,1188.45Z" style="fill:rgb(191,191,191);stroke:black;stroke-width:1px;"/><path d="M2364.32,1196.47L2364.32,1189.32L2378.63,1196.47L2378.63,1203.63L2364.32,1196.47Z" style="stroke:black;stroke-width:1px;"/><path d="M2433.04,1230.83L2433.04,1223.68L2418.73,1216.52L2418.73,1223.68L2433.04,1230.83Z" style="stroke:black;stroke-width:1px;"/><path d="M2355.42,1177.71L2455.6,1227.8L2448.44,1231.38L2348.27,1181.29L2355.42,1177.71Z" style="fill:rgb(191,191,191);stroke:black;stroke-width:1px;"/></g><g><path d="M2450.8,1303.05L2465.11,1295.89L2550.98,1338.82L2529.51,1349.56" style="fill:none;stroke:black;stroke-width:6px;"/><path d="M2550.98,1338.82L2550.98,1295.89L2550.98,1338.82Z" style="fill:none;stroke:black;stroke-width:6px;"/><path d="M2465.11,1295.89L2465.11,1252.96L2465.11,1295.89Z" style="fill:none;stroke:black;stroke-width:6px;"/><path d="M2450.8,1303.05L2465.11,1295.89L2550.98,1338.82L2529.51,1349.56" style="fill:none;stroke:rgb(141,156,165);stroke-width:4px;"/><path d="M2465.11,1295.89L2465.11,1252.96L2465.11,1295.89Z" style="fill:none;stroke:rgb(141,156,165);stroke-width:4px;"/><path d="M2550.98,1338.82L2550.98,1295.89L2550.98,1338.82Z" style="fill:none;stroke:rgb(141,156,165);stroke-width:4px;"/><path d="M2563.55,1295.02L2563.55,1287.87L2556.39,1291.44L2556.39,1298.6L2563.55,1295.02Z" style="fill:rgb(191,191,191);stroke:black;stroke-width:1px;"/><path d="M2456.22,1248.51L2556.39,1298.6L2556.39,1291.44L2456.22,1241.35L2456.22,1248.51Z" style="fill:rgb(191,191,191);stroke:black;stroke-width:1px;"/><path d="M2472.27,1256.54L2472.27,1249.38L2486.58,1256.54L2486.58,1263.69L2472.27,1256.54Z" style="stroke:black;stroke-width:1px;"/><path d="M2540.99,1290.9L2540.99,1283.74L2526.68,1276.59L2526.68,1283.74L2540.99,1290.9Z" style="stroke:black;stroke-width:1px;"/><path d="M2463.37,1237.78L2563.55,1287.87L2556.39,1291.44L2456.22,1241.35L2463.37,1237.78Z" style="fill:rgb(191,191,191);stroke:black;stroke-width:1px;"/></g><g><path d="M2563.55,1363.47L2577.86,1356.32L2663.72,1399.25L2642.26,1409.98" style="fill:none;stroke:black;stroke-width:6px;"/><path d="M2663.72,1399.25L2663.72,1356.32L2663.72,1399.25Z" style="fill:none;stroke:black;stroke-width:6px;"/><path d="M2577.86,1356.32L2577.86,1313.38L2577.86,1356.32Z" style="fill:none;stroke:black;stroke-width:6px;"/><path d="M2563.55,1363.47L2577.86,1356.32L2663.72,1399.25L2642.26,1409.98" style="fill:none;stroke:rgb(141,156,165);stroke-width:4px;"/><path d="M2577.86,1356.32L2577.86,1313.38L2577.86,1356.32Z" style="fill:none;stroke:rgb(141,156,165);stroke-width:4px;"/><path d="M2663.72,1399.25L2663.72,1356.32L2663.72,1399.25Z" style="fill:none;stroke:rgb(141,156,165);stroke-width:4px;"/><path d="M2676.29,1355.44L2676.29,1348.29L2669.14,1351.87L2669.14,1359.02L2676.29,1355.44Z" style="fill:rgb(191,191,191);stroke:black;stroke-width:1px;"/><path d="M2568.96,1308.93L2669.14,1359.02L2669.14,1351.87L2568.96,1301.78L2568.96,1308.93Z" style="fill:rgb(191,191,191);stroke:black;stroke-width:1px;"/><path d="M2585.01,1316.96L2585.01,1309.81L2599.33,1316.96L2599.33,1324.12L2585.01,1316.96Z" style="stroke:black;stroke-width:1px;"/><path d="M2653.74,1351.32L2653.74,1344.17L2639.43,1337.01L2639.43,1344.17L2653.74,1351.32Z" style="stroke:black;stroke-width:1px;"/><path d="M2576.12,1298.2L2676.29,1348.29L2669.14,1351.87L2568.96,1301.78L2576.12,1298.2Z" style="fill:rgb(191,191,191);stroke:black;stroke-width:1px;"/></g><g><path d="M2676.29,1419.84L2690.6,1412.69L2776.47,1455.62L2755,1466.35" style="fill:none;stroke:black;stroke-width:6px;"/><path d="M2776.47,1455.62L2776.47,1412.69L2776.47,1455.62Z" style="fill:none;stroke:black;stroke-width:6px;"/><path d="M2690.6,1412.69L2690.6,1369.76L2690.6,1412.69Z" style="fill:none;stroke:black;stroke-width:6px;"/><path d="M2676.29,1419.84L2690.6,1412.69L2776.47,1455.62L2755,1466.35" style="fill:none;stroke:rgb(141,156,165);stroke-width:4px;"/><path d="M2690.6,1412.69L2690.6,1369.76L2690.6,1412.69Z" style="fill:none;stroke:rgb(141,156,165);stroke-width:4px;"/><path d="M2776.47,1455.62L2776.47,1412.69L2776.47,1455.62Z" style="fill:none;stroke:rgb(141,156,165);stroke-width:4px;"/><path d="M2789.04,1411.82L2789.04,1404.66L2781.88,1408.24L2781.88,1415.4L2789.04,1411.82Z" style="fill:rgb(191,191,191);stroke:black;stroke-width:1px;"/><path d="M2681.71,1365.31L2781.88,1415.4L2781.88,1408.24L2681.71,1358.15L2681.71,1365.31Z" style="fill:rgb(191,191,191);stroke:black;stroke-width:1px;"/><path d="M2697.76,1373.33L2697.76,1366.18L2712.07,1373.33L2712.07,1380.49L2697.76,1373.33Z" style="stroke:black;stroke-width:1px;"/><path d="M2766.48,1407.69L2766.48,1400.54L2752.17,1393.38L2752.17,1400.54L2766.48,1407.69Z" style="stroke:black;stroke-width:1px;"/><path d="M2688.86,1354.58L2789.04,1404.66L2781.88,1408.24L2681.71,1358.15L2688.86,1354.58Z" style="fill:rgb(191,191,191);stroke:black;stroke-width:1px;"/></g></g><g><g><path d="M2571.82,1128.5L2586.14,1121.34L2672,1164.27L2650.53,1175.01" style="fill:none;stroke:black;stroke-width:6px;"/><path d="M2672,1164.27L2672,1121.34L2672,1164.27Z" style="fill:none;stroke:black;stroke-width:6px;"/><path d="M2586.14,1121.34L2586.14,1078.41L2586.14,1121.34Z" style="fill:none;stroke:black;stroke-width:6px;"/><path d="M2571.82,1128.5L2586.14,1121.34L2672,1164.27L2650.53,1175.01" style="fill:none;stroke:rgb(141,156,165);stroke-width:4px;"/><path d="M2586.14,1121.34L2586.14,1078.41L2586.14,1121.34Z" style="fill:none;stroke:rgb(141,156,165);stroke-width:4px;"/><path d="M2672,1164.27L2672,1121.34L2672,1164.27Z" style="fill:none;stroke:rgb(141,156,165);stroke-width:4px;"/><path d="M2684.57,1120.47L2684.57,1113.32L2677.41,1116.89L2677.41,1124.05L2684.57,1120.47Z" style="fill:rgb(191,191,191);stroke:black;stroke-width:1px;"/><path d="M2577.24,1073.96L2677.41,1124.05L2677.41,1116.89L2577.24,1066.81L2577.24,1073.96Z" style="fill:rgb(191,191,191);stroke:black;stroke-width:1px;"/><path d="M2593.29,1081.99L2593.29,1074.83L2607.6,1081.99L2607.6,1089.14L2593.29,1081.99Z" style="stroke:black;stroke-width:1px;"/><path d="M2662.01,1116.35L2662.01,1109.19L2647.7,1102.04L2647.7,1109.19L2662.01,1116.35Z" style="stroke:black;stroke-width:1px;"/><path d="M2584.39,1063.23L2684.57,1113.32L2677.41,1116.89L2577.24,1066.81L2584.39,1063.23Z" style="fill:rgb(191,191,191);stroke:black;stroke-width:1px;"/></g><g><path d="M2679.77,1188.56L2694.08,1181.4L2779.95,1224.34L2758.48,1235.07" style="fill:none;stroke:black;stroke-width:6px;"/><path d="M2779.95,1224.34L2779.95,1181.4L2779.95,1224.34Z" style="fill:none;stroke:black;stroke-width:6px;"/><path d="M2694.08,1181.4L2694.08,1138.47L2694.08,1181.4Z" style="fill:none;stroke:black;stroke-width:6px;"/><path d="M2679.77,1188.56L2694.08,1181.4L2779.95,1224.34L2758.48,1235.07" style="fill:none;stroke:rgb(141,156,165);stroke-width:4px;"/><path d="M2694.08,1181.4L2694.08,1138.47L2694.08,1181.4Z" style="fill:none;stroke:rgb(141,156,165);stroke-width:4px;"/><path d="M2779.95,1224.34L2779.95,1181.4L2779.95,1224.34Z" style="fill:none;stroke:rgb(141,156,165);stroke-width:4px;"/><path d="M2792.52,1180.53L2792.52,1173.38L2785.36,1176.96L2785.36,1184.11L2792.52,1180.53Z" style="fill:rgb(191,191,191);stroke:black;stroke-width:1px;"/><path d="M2685.19,1134.02L2785.36,1184.11L2785.36,1176.96L2685.19,1126.87L2685.19,1134.02Z" style="fill:rgb(191,191,191);stroke:black;stroke-width:1px;"/><path d="M2701.24,1142.05L2701.24,1134.89L2715.55,1142.05L2715.55,1149.2L2701.24,1142.05Z" style="stroke:black;stroke-width:1px;"/><path d="M2769.96,1176.41L2769.96,1169.26L2755.65,1162.1L2755.65,1169.26L2769.96,1176.41Z" style="stroke:black;stroke-width:1px;"/><path d="M2692.34,1123.29L2792.52,1173.38L2785.36,1176.96L2685.19,1126.87L2692.34,1123.29Z" style="fill:rgb(191,191,191);stroke:black;stroke-width:1px;"/></g><g><path d="M2792.52,1248.99L2806.83,1241.83L2892.7,1284.76L2871.23,1295.5" style="fill:none;stroke:black;stroke-width:6px;"/><path d="M2892.7,1284.76L2892.7,1241.83L2892.7,1284.76Z" style="fill:none;stroke:black;stroke-width:6px;"/><path d="M2806.83,1241.83L2806.83,1198.9L2806.83,1241.83Z" style="fill:none;stroke:black;stroke-width:6px;"/><path d="M2792.52,1248.99L2806.83,1241.83L2892.7,1284.76L2871.23,1295.5" style="fill:none;stroke:rgb(141,156,165);stroke-width:4px;"/><path d="M2806.83,1241.83L2806.83,1198.9L2806.83,1241.83Z" style="fill:none;stroke:rgb(141,156,165);stroke-width:4px;"/><path d="M2892.7,1284.76L2892.7,1241.83L2892.7,1284.76Z" style="fill:none;stroke:rgb(141,156,165);stroke-width:4px;"/><path d="M2905.26,1240.96L2905.26,1233.8L2898.11,1237.38L2898.11,1244.54L2905.26,1240.96Z" style="fill:rgb(191,191,191);stroke:black;stroke-width:1px;"/><path d="M2797.93,1194.45L2898.11,1244.54L2898.11,1237.38L2797.93,1187.29L2797.93,1194.45Z" style="fill:rgb(191,191,191);stroke:black;stroke-width:1px;"/><path d="M2813.99,1202.48L2813.99,1195.32L2828.3,1202.48L2828.3,1209.63L2813.99,1202.48Z" style="stroke:black;stroke-width:1px;"/><path d="M2882.71,1236.84L2882.71,1229.68L2868.4,1222.53L2868.4,1229.68L2882.71,1236.84Z" style="stroke:black;stroke-width:1px;"/><path d="M2805.09,1183.72L2905.26,1233.8L2898.11,1237.38L2797.93,1187.29L2805.09,1183.72Z" style="fill:rgb(191,191,191);stroke:black;stroke-width:1px;"/></g><g><path d="M2905.26,1305.36L2919.58,1298.2L3005.44,1341.13L2983.97,1351.87" style="fill:none;stroke:black;stroke-width:6px;"/><path d="M3005.44,1341.13L3005.44,1298.2L3005.44,1341.13Z" style="fill:none;stroke:black;stroke-width:6px;"/><path d="M2919.58,1298.2L2919.58,1255.27L2919.58,1298.2Z" style="fill:none;stroke:black;stroke-width:6px;"/><path d="M2905.26,1305.36L2919.58,1298.2L3005.44,1341.13L2983.97,1351.87" style="fill:none;stroke:rgb(141,156,165);stroke-width:4px;"/><path d="M2919.58,1298.2L2919.58,1255.27L2919.58,1298.2Z" style="fill:none;stroke:rgb(141,156,165);stroke-width:4px;"/><path d="M3005.44,1341.13L3005.44,1298.2L3005.44,1341.13Z" style="fill:none;stroke:rgb(141,156,165);stroke-width:4px;"/><path d="M3018.01,1297.33L3018.01,1290.18L3010.86,1293.76L3010.86,1300.91L3018.01,1297.33Z" style="fill:rgb(191,191,191);stroke:black;stroke-width:1px;"/><path d="M2910.68,1250.82L3010.86,1300.91L3010.86,1293.76L2910.68,1243.67L2910.68,1250.82Z" style="fill:rgb(191,191,191);stroke:black;stroke-width:1px;"/><path d="M2926.73,1258.85L2926.73,1251.69L2941.04,1258.85L2941.04,1266L2926.73,1258.85Z" style="stroke:black;stroke-width:1px;"/><path d="M2995.45,1293.21L2995.45,1286.05L2981.14,1278.9L2981.14,1286.05L2995.45,1293.21Z" style="stroke:black;stroke-width:1px;"/><path d="M2917.84,1240.09L3018.01,1290.18L3010.86,1293.76L2910.68,1243.67L2917.84,1240.09Z" style="fill:rgb(191,191,191);stroke:black;stroke-width:1px;"/></g></g><g><g><path d="M2800.8,1014.01L2815.11,1006.86L2900.97,1049.79L2879.51,1060.52" style="fill:none;stroke:black;stroke-width:6px;"/><path d="M2900.97,1049.79L2900.97,1006.86L2900.97,1049.79Z" style="fill:none;stroke:black;stroke-width:6px;"/><path d="M2815.11,1006.86L2815.11,963.923L2815.11,1006.86Z" style="fill:none;stroke:black;stroke-width:6px;"/><path d="M2800.8,1014.01L2815.11,1006.86L2900.97,1049.79L2879.51,1060.52" style="fill:none;stroke:rgb(141,156,165);stroke-width:4px;"/><path d="M2815.11,1006.86L2815.11,963.923L2815.11,1006.86Z" style="fill:none;stroke:rgb(141,156,165);stroke-width:4px;"/><path d="M2900.97,1049.79L2900.97,1006.86L2900.97,1049.79Z" style="fill:none;stroke:rgb(141,156,165);stroke-width:4px;"/><path d="M2913.54,1005.99L2913.54,998.83L2906.39,1002.41L2906.39,1009.56L2913.54,1005.99Z" style="fill:rgb(191,191,191);stroke:black;stroke-width:1px;"/><path d="M2806.21,959.475L2906.39,1009.56L2906.39,1002.41L2806.21,952.319L2806.21,959.475Z" style="fill:rgb(191,191,191);stroke:black;stroke-width:1px;"/><path d="M2822.26,967.501L2822.26,960.345L2836.57,967.501L2836.57,974.656L2822.26,967.501Z" style="stroke:black;stroke-width:1px;"/><path d="M2890.98,1001.86L2890.98,994.706L2876.67,987.55L2876.67,994.706L2890.98,1001.86Z" style="stroke:black;stroke-width:1px;"/><path d="M2813.37,948.742L2913.54,998.83L2906.39,1002.41L2806.21,952.319L2813.37,948.742Z" style="fill:rgb(191,191,191);stroke:black;stroke-width:1px;"/></g><g><path d="M2908.74,1074.07L2923.06,1066.92L3008.92,1109.85L2987.45,1120.59" style="fill:none;stroke:black;stroke-width:6px;"/><path d="M3008.92,1109.85L3008.92,1066.92L3008.92,1109.85Z" style="fill:none;stroke:black;stroke-width:6px;"/><path d="M2923.06,1066.92L2923.06,1023.99L2923.06,1066.92Z" style="fill:none;stroke:black;stroke-width:6px;"/><path d="M2908.74,1074.07L2923.06,1066.92L3008.92,1109.85L2987.45,1120.59" style="fill:none;stroke:rgb(141,156,165);stroke-width:4px;"/><path d="M2923.06,1066.92L2923.06,1023.99L2923.06,1066.92Z" style="fill:none;stroke:rgb(141,156,165);stroke-width:4px;"/><path d="M3008.92,1109.85L3008.92,1066.92L3008.92,1109.85Z" style="fill:none;stroke:rgb(141,156,165);stroke-width:4px;"/><path d="M3021.49,1066.05L3021.49,1058.89L3014.34,1062.47L3014.34,1069.63L3021.49,1066.05Z" style="fill:rgb(191,191,191);stroke:black;stroke-width:1px;"/><path d="M2914.16,1019.54L3014.34,1069.63L3014.34,1062.47L2914.16,1012.38L2914.16,1019.54Z" style="fill:rgb(191,191,191);stroke:black;stroke-width:1px;"/><path d="M2930.21,1027.56L2930.21,1020.41L2944.52,1027.56L2944.52,1034.72L2930.21,1027.56Z" style="stroke:black;stroke-width:1px;"/><path d="M2998.93,1061.92L2998.93,1054.77L2984.62,1047.61L2984.62,1054.77L2998.93,1061.92Z" style="stroke:black;stroke-width:1px;"/><path d="M2921.32,1008.81L3021.49,1058.89L3014.34,1062.47L2914.16,1012.38L2921.32,1008.81Z" style="fill:rgb(191,191,191);stroke:black;stroke-width:1px;"/></g><g><path d="M3021.49,1134.5L3035.8,1127.34L3121.67,1170.28L3100.2,1181.01" style="fill:none;stroke:black;stroke-width:6px;"/><path d="M3121.67,1170.28L3121.67,1127.34L3121.67,1170.28Z" style="fill:none;stroke:black;stroke-width:6px;"/><path d="M3035.8,1127.34L3035.8,1084.41L3035.8,1127.34Z" style="fill:none;stroke:black;stroke-width:6px;"/><path d="M3021.49,1134.5L3035.8,1127.34L3121.67,1170.28L3100.2,1181.01" style="fill:none;stroke:rgb(141,156,165);stroke-width:4px;"/><path d="M3035.8,1127.34L3035.8,1084.41L3035.8,1127.34Z" style="fill:none;stroke:rgb(141,156,165);stroke-width:4px;"/><path d="M3121.67,1170.28L3121.67,1127.34L3121.67,1170.28Z" style="fill:none;stroke:rgb(141,156,165);stroke-width:4px;"/><path d="M3134.24,1126.47L3134.24,1119.32L3127.08,1122.9L3127.08,1130.05L3134.24,1126.47Z" style="fill:rgb(191,191,191);stroke:black;stroke-width:1px;"/><path d="M3026.91,1079.96L3127.08,1130.05L3127.08,1122.9L3026.91,1072.81L3026.91,1079.96Z" style="fill:rgb(191,191,191);stroke:black;stroke-width:1px;"/><path d="M3042.96,1087.99L3042.96,1080.83L3057.27,1087.99L3057.27,1095.14L3042.96,1087.99Z" style="stroke:black;stroke-width:1px;"/><path d="M3111.68,1122.35L3111.68,1115.19L3097.37,1108.04L3097.37,1115.19L3111.68,1122.35Z" style="stroke:black;stroke-width:1px;"/><path d="M3034.06,1069.23L3134.24,1119.32L3127.08,1122.9L3026.91,1072.81L3034.06,1069.23Z" style="fill:rgb(191,191,191);stroke:black;stroke-width:1px;"/></g><g><path d="M3134.24,1190.87L3148.55,1183.72L3234.41,1226.65L3212.95,1237.38" style="fill:none;stroke:black;stroke-width:6px;"/><path d="M3234.41,1226.65L3234.41,1183.72L3234.41,1226.65Z" style="fill:none;stroke:black;stroke-width:6px;"/><path d="M3148.55,1183.72L3148.55,1140.78L3148.55,1183.72Z" style="fill:none;stroke:black;stroke-width:6px;"/><path d="M3134.24,1190.87L3148.55,1183.72L3234.41,1226.65L3212.95,1237.38" style="fill:none;stroke:rgb(141,156,165);stroke-width:4px;"/><path d="M3148.55,1183.72L3148.55,1140.78L3148.55,1183.72Z" style="fill:none;stroke:rgb(141,156,165);stroke-width:4px;"/><path d="M3234.41,1226.65L3234.41,1183.72L3234.41,1226.65Z" style="fill:none;stroke:rgb(141,156,165);stroke-width:4px;"/><path d="M3246.98,1182.85L3246.98,1175.69L3239.83,1179.27L3239.83,1186.42L3246.98,1182.85Z" style="fill:rgb(191,191,191);stroke:black;stroke-width:1px;"/><path d="M3139.65,1136.34L3239.83,1186.42L3239.83,1179.27L3139.65,1129.18L3139.65,1136.34Z" style="fill:rgb(191,191,191);stroke:black;stroke-width:1px;"/><path d="M3155.7,1144.36L3155.7,1137.21L3170.01,1144.36L3170.01,1151.52L3155.7,1144.36Z" style="stroke:black;stroke-width:1px;"/><path d="M3224.42,1178.72L3224.42,1171.57L3210.11,1164.41L3210.11,1171.57L3224.42,1178.72Z" style="stroke:black;stroke-width:1px;"/><path d="M3146.81,1125.6L3246.98,1175.69L3239.83,1179.27L3139.65,1129.18L3146.81,1125.6Z" style="fill:rgb(191,191,191);stroke:black;stroke-width:1px;"/></g></g><g><g><path d="M3029.77,899.525L3044.08,892.37L3129.94,935.302L3108.48,946.035" style="fill:none;stroke:black;stroke-width:6px;"/><path d="M3129.94,935.302L3129.94,892.37L3129.94,935.302Z" style="fill:none;stroke:black;stroke-width:6px;"/><path d="M3044.08,892.37L3044.08,849.437L3044.08,892.37Z" style="fill:none;stroke:black;stroke-width:6px;"/><path d="M3029.77,899.525L3044.08,892.37L3129.94,935.302L3108.48,946.035" style="fill:none;stroke:rgb(141,156,165);stroke-width:4px;"/><path d="M3044.08,892.37L3044.08,849.437L3044.08,892.37Z" style="fill:none;stroke:rgb(141,156,165);stroke-width:4px;"/><path d="M3129.94,935.302L3129.94,892.37L3129.94,935.302Z" style="fill:none;stroke:rgb(141,156,165);stroke-width:4px;"/><path d="M3142.51,891.499L3142.51,884.344L3135.36,887.922L3135.36,895.077L3142.51,891.499Z" style="fill:rgb(191,191,191);stroke:black;stroke-width:1px;"/><path d="M3035.18,844.989L3135.36,895.077L3135.36,887.922L3035.18,837.834L3035.18,844.989Z" style="fill:rgb(191,191,191);stroke:black;stroke-width:1px;"/><path d="M3051.23,853.015L3051.23,845.86L3065.54,853.015L3065.54,860.17L3051.23,853.015Z" style="stroke:black;stroke-width:1px;"/><path d="M3119.95,887.376L3119.95,880.22L3105.64,873.065L3105.64,880.22L3119.95,887.376Z" style="stroke:black;stroke-width:1px;"/><path d="M3042.34,834.256L3142.51,884.344L3135.36,887.922L3035.18,837.834L3042.34,834.256Z" style="fill:rgb(191,191,191);stroke:black;stroke-width:1px;"/></g><g><path d="M3137.72,959.589L3152.03,952.433L3237.89,995.366L3216.43,1006.1" style="fill:none;stroke:black;stroke-width:6px;"/><path d="M3237.89,995.366L3237.89,952.433L3237.89,995.366Z" style="fill:none;stroke:black;stroke-width:6px;"/><path d="M3152.03,952.433L3152.03,909.501L3152.03,952.433Z" style="fill:none;stroke:black;stroke-width:6px;"/><path d="M3137.72,959.589L3152.03,952.433L3237.89,995.366L3216.43,1006.1" style="fill:none;stroke:rgb(141,156,165);stroke-width:4px;"/><path d="M3152.03,952.433L3152.03,909.501L3152.03,952.433Z" style="fill:none;stroke:rgb(141,156,165);stroke-width:4px;"/><path d="M3237.89,995.366L3237.89,952.433L3237.89,995.366Z" style="fill:none;stroke:rgb(141,156,165);stroke-width:4px;"/><path d="M3250.46,951.563L3250.46,944.407L3243.31,947.985L3243.31,955.14L3250.46,951.563Z" style="fill:rgb(191,191,191);stroke:black;stroke-width:1px;"/><path d="M3143.13,905.053L3243.31,955.14L3243.31,947.985L3143.13,897.897L3143.13,905.053Z" style="fill:rgb(191,191,191);stroke:black;stroke-width:1px;"/><path d="M3159.18,913.078L3159.18,905.923L3173.49,913.078L3173.49,920.234L3159.18,913.078Z" style="stroke:black;stroke-width:1px;"/><path d="M3227.9,947.439L3227.9,940.284L3213.59,933.128L3213.59,940.284L3227.9,947.439Z" style="stroke:black;stroke-width:1px;"/><path d="M3150.29,894.319L3250.46,944.407L3243.31,947.985L3143.13,897.897L3150.29,894.319Z" style="fill:rgb(191,191,191);stroke:black;stroke-width:1px;"/></g><g><path d="M3250.46,1020.01L3264.77,1012.86L3350.64,1055.79L3329.17,1066.52" style="fill:none;stroke:black;stroke-width:6px;"/><path d="M3350.64,1055.79L3350.64,1012.86L3350.64,1055.79Z" style="fill:none;stroke:black;stroke-width:6px;"/><path d="M3264.77,1012.86L3264.77,969.926L3264.77,1012.86Z" style="fill:none;stroke:black;stroke-width:6px;"/><path d="M3250.46,1020.01L3264.77,1012.86L3350.64,1055.79L3329.17,1066.52" style="fill:none;stroke:rgb(141,156,165);stroke-width:4px;"/><path d="M3264.77,1012.86L3264.77,969.926L3264.77,1012.86Z" style="fill:none;stroke:rgb(141,156,165);stroke-width:4px;"/><path d="M3350.64,1055.79L3350.64,1012.86L3350.64,1055.79Z" style="fill:none;stroke:rgb(141,156,165);stroke-width:4px;"/><path d="M3363.21,1011.99L3363.21,1004.83L3356.05,1008.41L3356.05,1015.57L3363.21,1011.99Z" style="fill:rgb(191,191,191);stroke:black;stroke-width:1px;"/><path d="M3255.88,965.478L3356.05,1015.57L3356.05,1008.41L3255.88,958.322L3255.88,965.478Z" style="fill:rgb(191,191,191);stroke:black;stroke-width:1px;"/><path d="M3271.93,973.504L3271.93,966.348L3286.24,973.504L3286.24,980.659L3271.93,973.504Z" style="stroke:black;stroke-width:1px;"/><path d="M3340.65,1007.86L3340.65,1000.71L3326.34,993.553L3326.34,1000.71L3340.65,1007.86Z" style="stroke:black;stroke-width:1px;"/><path d="M3263.03,954.745L3363.21,1004.83L3356.05,1008.41L3255.88,958.322L3263.03,954.745Z" style="fill:rgb(191,191,191);stroke:black;stroke-width:1px;"/></g><g><path d="M3363.21,1076.39L3377.52,1069.23L3463.38,1112.16L3441.92,1122.9" style="fill:none;stroke:black;stroke-width:6px;"/><path d="M3463.38,1112.16L3463.38,1069.23L3463.38,1112.16Z" style="fill:none;stroke:black;stroke-width:6px;"/><path d="M3377.52,1069.23L3377.52,1026.3L3377.52,1069.23Z" style="fill:none;stroke:black;stroke-width:6px;"/><path d="M3363.21,1076.39L3377.52,1069.23L3463.38,1112.16L3441.92,1122.9" style="fill:none;stroke:rgb(141,156,165);stroke-width:4px;"/><path d="M3377.52,1069.23L3377.52,1026.3L3377.52,1069.23Z" style="fill:none;stroke:rgb(141,156,165);stroke-width:4px;"/><path d="M3463.38,1112.16L3463.38,1069.23L3463.38,1112.16Z" style="fill:none;stroke:rgb(141,156,165);stroke-width:4px;"/><path d="M3475.95,1068.36L3475.95,1061.2L3468.8,1064.78L3468.8,1071.94L3475.95,1068.36Z" style="fill:rgb(191,191,191);stroke:black;stroke-width:1px;"/><path d="M3368.62,1021.85L3468.8,1071.94L3468.8,1064.78L3368.62,1014.7L3368.62,1021.85Z" style="fill:rgb(191,191,191);stroke:black;stroke-width:1px;"/><path d="M3384.67,1029.88L3384.67,1022.72L3398.99,1029.88L3398.99,1037.03L3384.67,1029.88Z" style="stroke:black;stroke-width:1px;"/><path d="M3453.4,1064.24L3453.4,1057.08L3439.09,1049.93L3439.09,1057.08L3453.4,1064.24Z" style="stroke:black;stroke-width:1px;"/><path d="M3375.78,1011.12L3475.95,1061.2L3468.8,1064.78L3368.62,1014.7L3375.78,1011.12Z" style="fill:rgb(191,191,191);stroke:black;stroke-width:1px;"/></g></g></g><defs><linearGradient id="_Linear1" x1="0" y1="0" x2="1" y2="0" gradientUnits="userSpaceOnUse" gradientTransform="matrix(-2430.72,-1215.36,1215.36,-2430.72,2917.64,888.159)"><stop offset="0" style="stop-color:white;stop-opacity:0.04"/><stop offset="1" style="stop-color:white;stop-opacity:0.07"/></linearGradient><linearGradient id="_Linear2" x1="0" y1="0" x2="1" y2="0" gradientUnits="userSpaceOnUse" gradientTransform="matrix(-2430.72,-1215.36,1215.36,-2430.72,623.505,2037.9)"><stop offset="0" style="stop-color:white;stop-opacity:0.04"/><stop offset="1" style="stop-color:white;stop-opacity:0.04"/></linearGradient><radialGradient id="_Radial3" cx="0" cy="0" r="1" gradientUnits="userSpaceOnUse" gradientTransform="matrix(21.0511,-10.5256,0,20.8437,1019.72,1702.37)"><stop offset="0" style="stop-color:rgb(29,29,30);stop-opacity:1"/><stop offset="0.58" style="stop-color:rgb(32,32,33);stop-opacity:1"/><stop offset="0.8" style="stop-color:rgb(39,39,40);stop-opacity:1"/><stop offset="1" style="stop-color:rgb(46,46,46);stop-opacity:1"/></radialGradient></defs></svg>