<svg width="1031.383" height="859.647" xml:space="preserve" style="clip-rule:evenodd;fill-rule:evenodd;stroke-linecap:round;stroke-linejoin:round;stroke-miterlimit:1.5" xmlns="http://www.w3.org/2000/svg"><defs><radialGradient id="d" cx="0" cy="0" r="1" gradientUnits="userSpaceOnUse" gradientTransform="matrix(-113.035 165.299 -165.299 85.323 708.322 1471.21)"><stop offset="0" style="stop-color:#a4a395;stop-opacity:.87"/><stop offset=".54" style="stop-color:#b8b7ac;stop-opacity:.87"/><stop offset="1" style="stop-color:white;stop-opacity:.87"/></radialGradient><radialGradient id="e" cx="0" cy="0" r="1" gradientUnits="userSpaceOnUse" gradientTransform="matrix(-101.512 148.447 -148.447 76.6246 697.207 1482.48)"><stop offset="0" style="stop-color:#a4a395;stop-opacity:.87"/><stop offset=".54" style="stop-color:#b8b7ac;stop-opacity:.87"/><stop offset="1" style="stop-color:white;stop-opacity:.87"/></radialGradient><radialGradient id="f" cx="0" cy="0" r="1" gradientUnits="userSpaceOnUse" gradientTransform="matrix(-92.668 135.514 -135.514 69.9491 687.8 1493.33)"><stop offset="0" style="stop-color:#a4a395;stop-opacity:.87"/><stop offset=".54" style="stop-color:#b8b7ac;stop-opacity:.87"/><stop offset="1" style="stop-color:white;stop-opacity:.87"/></radialGradient><radialGradient id="g" cx="0" cy="0" r="1" gradientUnits="userSpaceOnUse" gradientTransform="matrix(-87.1622 127.463 -127.463 65.7932 678.538 1502.59)"><stop offset="0" style="stop-color:#a4a395;stop-opacity:.87"/><stop offset=".54" style="stop-color:#b8b7ac;stop-opacity:.87"/><stop offset="1" style="stop-color:white;stop-opacity:.87"/></radialGradient><radialGradient id="h" cx="0" cy="0" r="1" gradientUnits="userSpaceOnUse" gradientTransform="matrix(-85.7157 125.348 -125.348 64.7013 669.657 1511.47)"><stop offset="0" style="stop-color:#a4a395;stop-opacity:.87"/><stop offset=".54" style="stop-color:#b8b7ac;stop-opacity:.87"/><stop offset="1" style="stop-color:white;stop-opacity:.87"/></radialGradient><radialGradient id="i" cx="0" cy="0" r="1" gradientUnits="userSpaceOnUse" gradientTransform="matrix(-85.7157 125.348 -125.348 64.7013 659.948 1521.18)"><stop offset="0" style="stop-color:#a4a395;stop-opacity:.87"/><stop offset=".54" style="stop-color:#b8b7ac;stop-opacity:.87"/><stop offset="1" style="stop-color:white;stop-opacity:.87"/></radialGradient><radialGradient id="j" cx="0" cy="0" r="1" gradientUnits="userSpaceOnUse" gradientTransform="matrix(-89.4763 130.847 -130.847 67.54 652.17 1528.96)"><stop offset="0" style="stop-color:#a4a395;stop-opacity:.87"/><stop offset=".54" style="stop-color:#b8b7ac;stop-opacity:.87"/><stop offset="1" style="stop-color:white;stop-opacity:.87"/></radialGradient><radialGradient id="k" cx="0" cy="0" r="1" gradientUnits="userSpaceOnUse" gradientTransform="matrix(-95.3667 139.461 -139.461 71.9862 641.527 1539.6)"><stop offset="0" style="stop-color:#a4a395;stop-opacity:.87"/><stop offset=".54" style="stop-color:#b8b7ac;stop-opacity:.87"/><stop offset="1" style="stop-color:white;stop-opacity:.87"/></radialGradient><radialGradient id="l" cx="0" cy="0" r="1" gradientUnits="userSpaceOnUse" gradientTransform="matrix(-105.863 154.81 -154.81 79.909 631.011 1550.11)"><stop offset="0" style="stop-color:#a4a395;stop-opacity:.67"/><stop offset=".54" style="stop-color:#b8b7ac;stop-opacity:.67"/><stop offset="1" style="stop-color:white;stop-opacity:.67"/></radialGradient><radialGradient id="m" cx="0" cy="0" r="1" gradientUnits="userSpaceOnUse" gradientTransform="matrix(-121.244 177.303 -177.303 91.5194 616.089 1565.04)"><stop offset="0" style="stop-color:#a4a395;stop-opacity:.67"/><stop offset=".54" style="stop-color:#b8b7ac;stop-opacity:.67"/><stop offset="1" style="stop-color:white;stop-opacity:.67"/></radialGradient><radialGradient id="n" cx="0" cy="0" r="1" gradientUnits="userSpaceOnUse" gradientTransform="matrix(515.19 0 0 429.325 459.965 1115.81)"><stop offset="0" style="stop-color:#d7caa5;stop-opacity:.05"/><stop offset="1" style="stop-color:black;stop-opacity:.16"/></radialGradient><linearGradient id="a" x1="0" y1="0" x2="1" y2="0" gradientUnits="userSpaceOnUse" gradientTransform="rotate(-81.462 1233.256 412.646) scale(95.542)"><stop offset="0" style="stop-color:#564016;stop-opacity:1"/><stop offset=".89" style="stop-color:#605033;stop-opacity:1"/><stop offset="1" style="stop-color:#796339;stop-opacity:1"/></linearGradient><linearGradient id="b" x1="0" y1="0" x2="1" y2="0" gradientUnits="userSpaceOnUse" gradientTransform="scale(92.483 -92.483) rotate(82.548 13.14 -4.511)"><stop offset="0" style="stop-color:#4f390f;stop-opacity:1"/><stop offset=".2" style="stop-color:#574524;stop-opacity:1"/><stop offset=".5" style="stop-color:#594829;stop-opacity:1"/><stop offset=".8" style="stop-color:#5c4a29;stop-opacity:1"/><stop offset="1" style="stop-color:#67522b;stop-opacity:1"/></linearGradient><linearGradient id="c" x1="0" y1="0" x2="1" y2="0" gradientUnits="userSpaceOnUse" gradientTransform="matrix(0 59.2101 -266.132 0 684.672 1470.77)"><stop offset="0" style="stop-color:#211704;stop-opacity:1"/><stop offset=".1" style="stop-color:#34270e;stop-opacity:1"/><stop offset=".2" style="stop-color:#473617;stop-opacity:1"/><stop offset=".5" style="stop-color:#4f3d1b;stop-opacity:1"/><stop offset="1" style="stop-color:#433823;stop-opacity:1"/></linearGradient></defs><g style="clip-rule:evenodd;fill-rule:evenodd;stroke-linecap:round;stroke-linejoin:round;stroke-miterlimit:1.5"><path d="m648.424 1574.13 7.859-3.93c7.278-8.91 9.36-25.25 5.54-39.3-1.544-5.68-3.154-29.55-.753-35.33 3.125-7.53 6.683-13.99 10.811-14.95l-6.867-1.06c-17.827 12.62-10.321 40.6-6.301 66.46z" style="fill:#4d4024;stroke:#000;stroke-width:.61px" transform="translate(-113.167 -471.75) scale(.82005)"/><path d="M652.116 1475.02c-12.366 10.54-8.012 43.87-6.539 66.28.838 12.75-6.514 18.66-11.564 25.62l14.411 7.21c3.582-10.95 11.359-20.36 10.194-31.34-2.335-21.99-9.11-48.4 6.396-63.23z" style="fill:url(#a);stroke:#000;stroke-width:.61px" transform="translate(-113.167 -471.75) scale(.82005)"/><path d="m648.424 1574.13 7.859-3.93c7.941-12.42 10.226-26.2 5.64-45.98-5.431-18.31 1.837-45.82 11.507-43.16l-8.416-1.5c-17.827 12.62-10.321 40.6-6.301 66.46z" style="fill:#4f3e1d;stroke:#000;stroke-width:.61px" transform="matrix(-.82005 0 0 .82005 1010.075 -471.594)"/><path d="M652.116 1475.02c-12.366 10.54-8.012 43.87-6.539 66.28.838 12.75-6.514 18.66-11.564 25.62l14.411 7.21c3.582-10.95 11.359-20.36 10.194-31.34-2.335-21.99-9.11-48.4 6.396-63.23z" style="fill:url(#b);stroke:#000;stroke-width:.61px" transform="matrix(-.82005 0 0 .82005 1010.075 -471.594)"/><path d="M676.713 1529.98c-.946.7-.614-1.09-1.331-5.03 6.268-54.01 15.9-23.48 19.247-.36.012 5.25-.377 5.86-.859 5.39z" style="fill:#564119;stroke:#000;stroke-width:.61px" transform="translate(-113.167 -471.75) scale(.82005)"/><path d="m676.713 1471.46 14.162-1.23 2.895 59.75h-17.057z" style="fill:url(#c);stroke:#000;stroke-width:.61px" transform="translate(-113.167 -471.75) scale(.82005)"/><circle cx="666.988" cy="1514.14" r="42.933" style="fill:url(#d);stroke:#6f531f;stroke-width:1.14px" transform="scale(.87943 .43972) rotate(-45 749.523 1770.68)"/><circle cx="666.988" cy="1514.14" r="42.933" style="fill:url(#e);stroke:#6f531f;stroke-width:1.02px" transform="scale(.97927 .48963) rotate(-45 508.997 1744.548)"/><circle cx="666.988" cy="1514.14" r="42.933" style="fill:url(#f);stroke:#6f531f;stroke-width:.93px" transform="scale(1.07272 .53636) rotate(-45 321.325 1724.518)"/><circle cx="666.988" cy="1514.14" r="42.933" style="fill:url(#g);stroke:#6f531f;stroke-width:.88px" transform="scale(1.14048 .57024) rotate(-45 199.756 1709.2)"/><circle cx="666.988" cy="1514.14" r="42.933" style="fill:url(#h);stroke:#6f531f;stroke-width:.86px" transform="scale(1.15973 .57986) rotate(-45 156.806 1700.62)"/><circle cx="666.988" cy="1514.14" r="42.933" style="fill:url(#i);stroke:#6f531f;stroke-width:.86px" transform="scale(1.15973 .57986) rotate(-45 140.23 1693.753)"/><circle cx="666.988" cy="1514.14" r="42.933" style="fill:url(#j);stroke:#6f531f;stroke-width:.9px" transform="scale(1.11099 .5555) rotate(-45 199.194 1694.246)"/><circle cx="666.988" cy="1514.14" r="42.933" style="fill:url(#k);stroke:#6f531f;stroke-width:.96px" transform="scale(1.04236 .52118) rotate(-45 294.164 1696.097)"/><circle cx="666.988" cy="1514.14" r="42.933" style="fill:url(#l);stroke:#6f531f;stroke-width:1.06px" transform="scale(.93902 .4695) rotate(-45 477.826 1705.377)"/><circle cx="666.988" cy="1514.14" r="42.933" style="fill:url(#m);stroke:#6f531f;stroke-width:1.22px" transform="scale(.81989 .40995) rotate(-45 747.818 1719.333)"/><circle cx="666.988" cy="1514.14" r="42.933" style="fill-opacity:.19;stroke:#000;stroke-width:1.02px" transform="scale(.49078 .24539) rotate(-45 2191.427 1799.907)"/><path d="M669.096 1426.34c-.065-2.41 1.741-4.83 5.42-6.67 7.229-3.62 18.966-3.62 26.195 0 3.621 1.81 5.428 4.18 5.422 6.56v2.17c-.303-.17-2.873-2.07-3.2-2.23-8.936-4.47-22.574-4-31.51.47-.394.2-1.969 1.69-2.329 1.9l.002-2.2c.063 2.33 1.87 4.65 5.42 6.42 7.229 3.62 18.966 3.62 26.195 0 3.608-1.8 5.415-4.17 5.422-6.53l4.374-.02v8.17h-.027c-.265 2.74-2.49 5.45-6.675 7.54-8.937 4.47-23.446 4.47-32.382 0-4.21-2.1-6.437-4.83-6.68-7.59l-.022-.01.001-7.96z" style="fill:#684500;stroke:#000;stroke-width:.44px" transform="translate(-334.887 -965.77) scale(1.13754)"/><path d="M671.423 1418.12c8.936-4.47 23.445-4.47 32.382 0 8.936 4.47 8.936 11.72 0 16.19-8.937 4.47-23.446 4.47-32.382 0-8.936-4.47-8.936-11.72 0-16.19zm3.093 1.55c7.229-3.62 18.966-3.62 26.195 0 7.229 3.61 7.229 9.48 0 13.09-7.229 3.62-18.966 3.62-26.195 0-7.229-3.61-7.229-9.48 0-13.09z" style="fill:#725621;stroke:#000;stroke-width:.44px" transform="translate(-334.887 -965.77) scale(1.13754)"/><path d="M228.973 1373.84v-228.97l572.434-286.22 457.943-114.487V1316.6l-572.43 286.21z" style="fill:url(#n)" transform="translate(-228.473 -743.663)"/></g></svg>