<?xml version="1.0" encoding="UTF-8" standalone="no"?><!DOCTYPE svg PUBLIC "-//W3C//DTD SVG 1.1//EN" "http://www.w3.org/Graphics/SVG/1.1/DTD/svg11.dtd"><svg width="2061px" height="1946px" version="1.1" xmlns="http://www.w3.org/2000/svg" xmlns:xlink="http://www.w3.org/1999/xlink" xml:space="preserve" xmlns:serif="http://www.serif.com/" style="fill-rule:evenodd;clip-rule:evenodd;stroke-linecap:round;stroke-linejoin:round;stroke-miterlimit:1.5;"><g id="BACK"><path id="空" d="M-0.001,1545.57L0.001,629.68L1259.35,0.001L2060.76,400.705L2060.76,1316.3L801.411,1946.28L-0.001,1545.57Z" style="fill:url(#_Radial1);"/><g id="床"><path d="M1259.35,915.897L2060.76,1316.6L801.408,1946.28L457.948,1773.47L630.052,1688.49L401.079,1574.01L228.974,1660.06L-0.366,1545.76" style="fill:rgb(104,68,27);stroke:rgb(64,64,64);stroke-width:1px;"/><g opacity="0.5"><path d="M0.001,1545.57L1259.35,915.897L1316.6,944.518L57.244,1574.19L0.001,1545.57Z" style="fill:url(#_Linear2);stroke:black;stroke-width:1px;"/><path d="M171.731,1631.44L1431.08,1001.76L1488.33,1030.38L228.974,1660.06L171.731,1631.44Z" style="fill:url(#_Linear3);stroke:black;stroke-width:1px;"/><path d="M343.461,1717.3L1602.81,1087.63L1660.06,1116.25L400.704,1745.92L343.461,1717.3Z" style="fill:url(#_Linear4);stroke:black;stroke-width:1px;"/><path d="M517.539,1801.99L1776.89,1172.32L1834.14,1200.94L574.782,1830.62L517.539,1801.99Z" style="fill:url(#_Linear5);stroke:black;stroke-width:1px;"/><path d="M686.555,1889.22L1945.91,1259.54L2003.15,1288.16L743.798,1917.84L686.555,1889.22Z" style="fill:url(#_Linear6);stroke:black;stroke-width:1px;"/><path d="M57.244,1574.19L1316.6,944.518L1373.84,973.14L114.488,1602.82L57.244,1574.19Z" style="fill:url(#_Linear7);stroke:black;stroke-width:1px;"/><path d="M228.974,1660.06L1488.33,1030.38L1545.57,1059.01L286.218,1688.68L228.974,1660.06Z" style="fill:url(#_Linear8);stroke:black;stroke-width:1px;"/><path d="M400.704,1745.92L1660.06,1116.25L1717.3,1144.87L457.948,1774.55L400.704,1745.92Z" style="fill:url(#_Linear9);stroke:black;stroke-width:1px;"/><path d="M574.782,1830.62L1834.14,1200.94L1891.38,1229.56L632.026,1859.24L574.782,1830.62Z" style="fill:url(#_Linear10);stroke:black;stroke-width:1px;"/><path d="M743.798,1917.84L2003.15,1288.16L2060.39,1316.78L801.041,1946.46L743.798,1917.84Z" style="fill:url(#_Linear11);stroke:black;stroke-width:1px;"/><path d="M114.488,1602.82L1373.84,973.14L1431.08,1001.76L171.731,1631.44L114.488,1602.82Z" style="fill:url(#_Linear12);stroke:black;stroke-width:1px;"/><path d="M286.218,1688.68L1545.57,1059.01L1602.81,1087.63L343.461,1717.3L286.218,1688.68Z" style="fill:url(#_Linear13);stroke:black;stroke-width:1px;"/><path d="M457.948,1774.55L1717.3,1144.87L1774.54,1173.49L515.191,1803.17L457.948,1774.55Z" style="fill:url(#_Linear14);stroke:black;stroke-width:1px;"/><path d="M632.026,1859.24L1891.38,1229.56L1948.62,1258.18L689.269,1887.86L632.026,1859.24Z" style="fill:url(#_Linear15);stroke:black;stroke-width:1px;"/></g><path d="M855.073,1744.14L847.918,1740.56L633.255,1847.89L640.411,1851.47L855.073,1744.14Z" style="fill:rgb(21,18,13);fill-opacity:0.47;stroke:rgb(41,36,27);stroke-width:2px;stroke-linecap:butt;"/><path d="M633.255,1847.89L847.918,1740.56L855.073,1744.14" style="fill:none;stroke:rgb(62,50,37);stroke-width:3px;"/></g><g id="はしご影"><path d="M690.255,1691.53L956.85,1843.62" style="fill:none;stroke:black;stroke-opacity:0.24;stroke-width:4px;"/><path d="M988.254,1826.05L768.356,1701.1" style="fill:none;stroke:black;stroke-opacity:0.24;stroke-width:4px;"/><path d="M709.708,1700.65L735.1,1686.67" style="fill:none;stroke:black;stroke-opacity:0.24;stroke-width:4px;"/><path d="M741.191,1718.16L766.492,1704.16" style="fill:none;stroke:black;stroke-opacity:0.24;stroke-width:4px;"/><path d="M772.675,1735.67L798.509,1720.17" style="fill:none;stroke:black;stroke-opacity:0.24;stroke-width:4px;"/><path d="M804.159,1753.18L828.893,1738.91" style="fill:none;stroke:black;stroke-opacity:0.24;stroke-width:4px;"/><path d="M835.642,1770.69L859.816,1757.31" style="fill:none;stroke:black;stroke-opacity:0.24;stroke-width:4px;"/><path d="M867.126,1788.19L891.876,1774.92" style="fill:none;stroke:black;stroke-opacity:0.24;stroke-width:4px;"/><path d="M897.59,1806.01L922.188,1791.71" style="fill:none;stroke:black;stroke-opacity:0.24;stroke-width:4px;"/><path d="M930.455,1825.8L955.535,1810.23" style="fill:none;stroke:black;stroke-opacity:0.24;stroke-width:4px;"/></g><g id="階段"><path d="M228.974,1660.06L401.079,1574.01L630.052,1688.49L457.948,1773.47L228.974,1660.06Z" style="fill:rgb(48,32,19);"/><path d="M457.948,1773.47L487.002,1760.02L372.452,1588.32L372.456,1645.57L286.604,1688.49L343.464,1717.31L429.699,1674.19L429.699,1731.43L401.522,1745.52L457.948,1773.47Z" style="fill:rgb(13,13,13);fill-opacity:0.5;"/><path d="M486.5,1759.37L515.204,1745.2L401.079,1574.01L229.347,1659.87L286.986,1689.07L257.969,1645.57L372.456,1588.32L486.5,1759.37Z" style="fill:url(#_Linear16);"/></g><path id="壁" d="M0.001,1545.57L1259.35,915.897L1259.35,572.437L0.001,1202.11L0.001,1545.57Z" style="fill:rgb(81,49,23);"/><path d="M1488.33,343.463L216.577,979.339L0,1131.9L0.001,1202.11L918.242,742.992L1488.33,343.463Z" style="fill:rgb(50,50,50);stroke:rgb(52,46,46);stroke-width:1px;"/><path d="M858.485,1744.65L733.168,1809.1L811.552,1941.57L1030.91,1831.89L858.485,1744.65Z" style="fill:url(#_Linear17);"/><path id="屋根" d="M1144.33,514.925L1602.82,744.167L1602.81,1087.63L1144.6,1316.73L915.894,1202.11L718.145,1300.99L457.412,858.385L1144.33,514.925Z" style="fill:url(#_Linear18);"/><path id="窓屋根" d="M882.065,1183.43C919.44,1228.55 1046.28,1282.45 1144.6,1316.73L1829.89,976.988L1575.18,861.451C1326.85,954.732 1107.38,1071.45 882.065,1183.43Z" style="fill:url(#_Linear19);"/><g id="タンスと陶磁器"><path d="M-0.366,1545.31L112.475,1601.02L114.853,1385.31L0.001,1329.26L-0.366,1545.31Z" style="fill:rgb(55,44,24);stroke:rgb(61,48,25);stroke-width:2px;stroke-linecap:butt;"/><path d="M115.678,1388.2L0.001,1329.26L240.912,1208.81L358.33,1266.53L115.678,1388.2Z" style="fill:rgb(69,56,32);stroke:rgb(61,48,25);stroke-width:2px;stroke-linecap:butt;"/><path d="M112.475,1601.02L357.593,1478.46L358.33,1265.06L114.809,1388.79L112.475,1601.02L114.809,1388.79" style="fill:rgb(75,61,35);stroke:rgb(61,48,25);stroke-width:2px;stroke-linecap:butt;"/><path d="M128.724,1395.83L343.522,1288.22L343.39,1330.93L128.723,1438.52L128.724,1395.83Z" style="fill:none;stroke:rgb(61,48,25);stroke-width:2px;stroke-linecap:butt;"/><path d="M128.004,1452.84L342.802,1345.24L342.67,1387.94L128.003,1495.53L128.004,1452.84Z" style="fill:none;stroke:rgb(61,48,25);stroke-width:2px;stroke-linecap:butt;"/><path d="M128.004,1509.53L342.802,1401.93L342.67,1444.63L128.003,1552.22L128.004,1509.53Z" style="fill:none;stroke:rgb(61,48,25);stroke-width:2px;stroke-linecap:butt;"/><path d="M208.611,1369.01C213.089,1366.78 215.439,1369.42 216.724,1373.07C218.597,1378.38 214.386,1383.58 208.611,1385.24C204.231,1386.5 200.498,1385.66 200.498,1381.18C200.498,1376.71 204.133,1371.25 208.611,1369.01Z" style="fill:rgb(89,82,49);stroke:rgb(61,48,25);stroke-width:2px;stroke-linecap:butt;"/><path d="M207.891,1426.03C212.369,1423.79 214.719,1426.44 216.005,1430.08C217.877,1435.39 213.666,1440.59 207.891,1442.25C203.511,1443.51 199.778,1442.67 199.778,1438.2C199.778,1433.72 203.413,1428.27 207.891,1426.03Z" style="fill:rgb(89,82,49);stroke:rgb(61,48,25);stroke-width:2px;stroke-linecap:butt;"/><path d="M207.891,1482.72C212.369,1480.48 214.719,1483.13 216.005,1486.77C217.877,1492.08 213.666,1497.28 207.891,1498.94C203.511,1500.2 199.778,1499.36 199.778,1494.89C199.778,1490.41 203.413,1484.95 207.891,1482.72Z" style="fill:rgb(89,82,49);stroke:rgb(61,48,25);stroke-width:2px;stroke-linecap:butt;"/><path d="M264.827,1340.77C269.305,1338.54 271.655,1341.18 272.94,1344.83C274.813,1350.14 270.602,1355.34 264.827,1357C260.447,1358.26 256.714,1357.42 256.714,1352.94C256.714,1348.47 260.349,1343.01 264.827,1340.77Z" style="fill:rgb(89,82,49);stroke:rgb(61,48,25);stroke-width:2px;stroke-linecap:butt;"/><path d="M264.107,1397.79C268.585,1395.55 270.935,1398.2 272.221,1401.84C274.093,1407.15 269.882,1412.35 264.107,1414.01C259.727,1415.27 255.994,1414.43 255.994,1409.96C255.994,1405.48 259.629,1400.03 264.107,1397.79Z" style="fill:rgb(89,82,49);stroke:rgb(61,48,25);stroke-width:2px;stroke-linecap:butt;"/><path d="M264.107,1454.48C268.585,1452.24 270.935,1454.89 272.221,1458.53C274.093,1463.84 269.882,1469.04 264.107,1470.7C259.727,1471.96 255.994,1471.12 255.994,1466.65C255.994,1462.17 259.629,1456.71 264.107,1454.48Z" style="fill:rgb(89,82,49);stroke:rgb(61,48,25);stroke-width:2px;stroke-linecap:butt;"/><path d="M211.455,1375.19C213.335,1374.25 214.862,1374.99 214.862,1376.83C214.862,1378.68 213.335,1380.94 211.455,1381.88C209.575,1382.83 208.049,1382.09 208.049,1380.24C208.049,1378.39 209.575,1376.13 211.455,1375.19Z" style="fill:rgb(109,101,62);"/><path d="M267.853,1347.03C269.733,1346.09 271.259,1346.83 271.259,1348.68C271.259,1350.52 269.733,1352.79 267.853,1353.73C265.973,1354.67 264.446,1353.93 264.446,1352.08C264.446,1350.24 265.973,1347.97 267.853,1347.03Z" style="fill:rgb(109,101,62);"/><path d="M210.613,1432.23C212.493,1431.29 214.019,1432.03 214.019,1433.87C214.019,1435.72 212.493,1437.99 210.613,1438.92C208.733,1439.87 207.207,1439.13 207.207,1437.28C207.207,1435.43 208.733,1433.17 210.613,1432.23Z" style="fill:rgb(109,101,62);"/><path d="M266.862,1404.1C268.742,1403.16 270.269,1403.9 270.269,1405.75C270.269,1407.6 268.742,1409.86 266.862,1410.8C264.982,1411.74 263.456,1411 263.456,1409.15C263.456,1407.31 264.982,1405.04 266.862,1404.1Z" style="fill:rgb(109,101,62);"/><path d="M210.613,1488.75C212.493,1487.81 214.019,1488.55 214.019,1490.39C214.019,1492.24 212.493,1494.5 210.613,1495.44C208.733,1496.38 207.207,1495.65 207.207,1493.8C207.207,1491.95 208.733,1489.69 210.613,1488.75Z" style="fill:rgb(109,101,62);"/><path d="M266.862,1460.62C268.742,1459.68 270.269,1460.42 270.269,1462.27C270.269,1464.12 268.742,1466.38 266.862,1467.32C264.982,1468.26 263.456,1467.52 263.456,1465.67C263.456,1463.83 264.982,1461.56 266.862,1460.62Z" style="fill:rgb(109,101,62);"/><path d="M71.05,1333.12C62.4,1312.43 57.53,1282.42 71.05,1265.64C76.522,1261.04 80.577,1256.68 85.773,1254.57C104.3,1247.06 99.671,1233.21 97.931,1228.37C106.424,1218.91 124.905,1215.39 133.973,1230.16C130.86,1240.39 133.309,1249.8 141.558,1254.74C146.781,1257.86 152.236,1260.96 155.823,1264.9C166.513,1268.86 165.348,1318.52 155.823,1332.78C138.043,1355.16 94.206,1358.84 71.05,1333.12Z" style="fill:url(#_Radial20);stroke:rgb(61,48,25);stroke-width:2px;stroke-linecap:butt;"/><path d="M64.006,1297.83C67.57,1306.61 71.104,1313.07 74.571,1308.03C81.093,1298.54 91.633,1319.67 98.921,1315.75C107.971,1306.82 115.779,1308.64 133.13,1315.91C138.34,1317.28 147.942,1297.73 154.501,1304.89C162.155,1313.23 162.225,1295.11 161.932,1284.21C164.017,1305.06 161.477,1319.24 156.453,1329.82C141.474,1353.82 93.82,1357.88 72.191,1332.19C66.278,1322.35 64.785,1311.62 64.006,1297.83Z" style="fill:rgb(57,55,87);fill-opacity:0.75;"/><path d="M103.928,1223.54C110.605,1220.2 121.446,1220.2 128.122,1223.54C134.799,1226.88 134.799,1232.3 128.122,1235.64C121.446,1238.98 110.605,1238.98 103.928,1235.64C97.252,1232.3 97.252,1226.88 103.928,1223.54Z" style="fill:rgb(62,62,112);"/><path d="M109.276,1224.07C113.001,1222.21 119.049,1222.21 122.774,1224.07C126.499,1225.93 126.499,1228.96 122.774,1230.82C119.049,1232.68 113.001,1232.68 109.276,1230.82C105.552,1228.96 105.552,1225.93 109.276,1224.07Z" style="fill:rgb(35,43,64);"/><path d="M222.619,1192.04C251.916,1177.39 281.561,1190.05 288.779,1220.29C295.996,1250.52 278.07,1286.96 248.773,1301.61C219.476,1316.26 189.831,1303.61 182.614,1273.37C175.396,1243.13 193.322,1206.69 222.619,1192.04Z" style="fill:rgb(92,82,77);stroke:rgb(60,45,33);stroke-width:2px;stroke-linecap:butt;"/><path d="M223.826,1202.94C246.873,1191.42 270.194,1201.37 275.872,1225.16C281.549,1248.95 267.447,1277.62 244.4,1289.14C221.353,1300.66 198.031,1290.71 192.354,1266.92C186.676,1243.13 200.778,1214.47 223.826,1202.94Z" style="fill:url(#_Radial21);"/><path d="M278.634,1220.01C280.457,1220.01 282.08,1221.63 283.113,1224.15C283.339,1224.7 284.901,1224.91 285.066,1225.54C285.231,1226.16 284,1227.21 284.097,1227.9C284.219,1228.76 284.283,1229.67 284.283,1230.6C284.283,1232.13 284.111,1233.58 283.801,1234.89C283.657,1235.5 285.372,1236.25 285.172,1236.8C284.981,1237.32 282.877,1237.63 282.64,1238.07C281.617,1240.01 280.199,1241.2 278.634,1241.2C275.516,1241.2 272.985,1236.45 272.985,1230.6C272.985,1224.76 275.516,1220.01 278.634,1220.01Z" style="fill:rgb(82,58,44);"/><path d="M217.977,1203.76C217.494,1202.65 218.532,1201.02 220.534,1199.4C220.972,1199.05 220.747,1198.02 221.271,1197.67C221.794,1197.32 223.067,1197.65 223.665,1197.32C224.413,1196.91 225.215,1196.51 226.06,1196.14C227.439,1195.54 228.796,1195.07 230.064,1194.75C230.652,1194.59 230.879,1193.25 231.422,1193.16C231.943,1193.07 232.782,1194.23 233.248,1194.19C235.267,1194.06 236.725,1194.44 237.14,1195.4C237.967,1197.29 234.345,1200.7 229.057,1203.01C223.769,1205.32 218.805,1205.65 217.977,1203.76Z" style="fill:rgb(82,58,44);"/><path d="M239.906,1294.21C240.681,1295.76 242.804,1296.43 245.466,1296.2C246.049,1296.15 246.897,1297.39 247.522,1297.25C248.146,1297.12 248.546,1295.61 249.196,1295.39C250.009,1295.11 250.837,1294.77 251.662,1294.35C253.008,1293.68 254.215,1292.9 255.241,1292.06C255.717,1291.66 257.112,1292.79 257.506,1292.38C257.883,1291.99 257.263,1290.06 257.556,1289.66C258.827,1287.94 259.281,1286.21 258.615,1284.87C257.29,1282.22 252.022,1282.15 246.859,1284.73C241.696,1287.3 238.581,1291.55 239.906,1294.21Z" style="fill:rgb(82,58,44);"/><path d="M191.994,1262.72C190.628,1262.9 189.627,1264.67 189.185,1267.27C189.089,1267.84 187.946,1268.2 187.906,1268.84C187.865,1269.48 188.925,1270.4 188.944,1271.09C188.967,1271.96 189.039,1272.86 189.162,1273.79C189.364,1275.3 189.685,1276.72 190.09,1277.99C190.278,1278.58 189.093,1279.5 189.314,1280.02C189.527,1280.51 191.144,1280.61 191.38,1281.03C192.403,1282.84 193.623,1283.88 194.796,1283.73C197.132,1283.42 198.4,1278.46 197.627,1272.66C196.854,1266.86 194.33,1262.41 191.994,1262.72Z" style="fill:rgb(82,58,44);"/><path d="M250.186,1187.85C258.979,1199.16 276.271,1219.08 258.92,1236.29C251.487,1243.66 255.663,1255.34 258.92,1260.24C266.677,1267.5 269.915,1278.21 270.563,1281.83" style="fill:none;stroke:url(#_Linear22);stroke-width:2px;"/><path d="M200.443,1212.72C194.065,1235.09 209.325,1252 258.92,1260.24" style="fill:none;stroke:url(#_Linear23);stroke-width:2px;"/></g><path d="M1438.62,1316.6L1531.88,1362.53L1604.33,1326.45L1512.01,1278.59L1438.62,1316.6Z" style="fill-opacity:0.14;"/><g id="蓄音機"><ellipse cx="1451.26" cy="1311.33" rx="5.403" ry="15.207" style="fill:rgb(46,40,8);stroke:rgb(74,46,13);stroke-width:2px;stroke-linecap:butt;"/><ellipse cx="1529.76" cy="1349.66" rx="5.403" ry="15.207" style="fill:rgb(46,40,8);stroke:rgb(74,46,13);stroke-width:2px;stroke-linecap:butt;"/><path d="M1588.82,1281.17L1532.37,1309.39L1532.37,1346.36L1587.78,1317.74L1588.82,1281.17Z" style="fill:rgb(76,40,21);stroke:rgb(62,38,10);stroke-width:2px;stroke-linecap:butt;"/><path d="M1438.82,1263.6L1531.67,1309.74L1532.37,1346.36L1437.83,1300.47L1438.82,1263.6Z" style="fill:rgb(86,49,29);stroke:rgb(62,38,10);stroke-width:2px;stroke-linecap:butt;"/><path d="M1439.11,1263.46L1532.37,1309.39L1604.82,1273.32L1512.49,1225.46L1439.11,1263.46Z" style="fill:rgb(77,46,22);stroke:rgb(62,38,10);stroke-width:2px;stroke-linecap:butt;"/><path d="M1478.67,1245.89C1497.09,1236.68 1527.01,1236.68 1545.43,1245.89C1563.86,1255.11 1563.86,1270.06 1545.43,1279.27C1527.01,1288.49 1497.09,1288.49 1478.67,1279.27C1460.25,1270.06 1460.25,1255.11 1478.67,1245.89Z" style="fill:rgb(46,29,8);stroke:rgb(44,28,8);stroke-width:2px;stroke-linecap:butt;"/><path d="M1468.18,1256.52C1466.19,1260.38 1465.79,1264.08 1468.16,1267.5L1497.11,1263.91L1497.11,1260.31L1468.18,1256.52Z" style="fill:rgb(56,35,9);"/><path d="M1556.44,1256.21C1558.43,1260.08 1558.83,1263.78 1556.46,1267.2L1527.51,1263.6L1527.51,1260.01L1556.44,1256.21Z" style="fill:rgb(56,35,9);"/><path d="M1501.75,1257.43C1507.43,1254.59 1516.67,1254.59 1522.36,1257.43C1528.04,1260.28 1528.04,1264.89 1522.36,1267.74C1516.67,1270.58 1507.43,1270.58 1501.75,1267.74C1496.06,1264.89 1496.06,1260.28 1501.75,1257.43Z" style="fill:rgb(46,40,8);stroke:rgb(81,51,14);stroke-width:2px;stroke-linecap:butt;"/><path d="M1511.52,1262.32C1511.81,1262.17 1512.29,1262.17 1512.58,1262.32C1512.88,1262.46 1512.88,1262.7 1512.58,1262.85C1512.29,1263 1511.81,1263 1511.52,1262.85C1511.23,1262.7 1511.23,1262.46 1511.52,1262.32Z" style="fill:rgb(46,40,8);stroke:black;stroke-width:2px;stroke-linecap:butt;"/><path d="M1553.64,1203.44C1555.65,1213.53 1557.99,1226.77 1562.43,1232.86C1568.28,1238.94 1571.69,1260.2 1571.49,1263.02C1571.27,1266.16 1563.61,1263.96 1564.97,1262.77C1562.68,1257.09 1561.95,1252.68 1557.43,1246.86C1551.77,1240.77 1541.95,1244 1531.52,1248.58" style="fill:rgb(129,90,22);stroke:rgb(81,51,14);stroke-width:2px;stroke-linecap:butt;"/><path d="M1560.09,1264.37L1522.64,1277.31C1518.64,1279.73 1518.64,1280.83 1520.28,1281.88C1521.71,1284.48 1524.36,1283.66 1526.75,1280.64L1559.45,1270.97L1564.99,1271.67C1569.66,1269.03 1565.85,1262.59 1560.09,1264.37Z" style="fill:rgb(122,92,20);stroke:rgb(74,46,13);stroke-width:2px;stroke-linecap:butt;"/><path d="M1534.42,1178.99C1550.75,1184.67 1558.57,1205.2 1551.87,1224.81C1545.17,1244.42 1526.47,1255.73 1510.14,1250.04C1493.81,1244.36 1485.99,1223.83 1492.69,1204.22C1499.39,1184.61 1518.09,1173.31 1534.42,1178.99Z" style="fill:url(#_Radial24);stroke:rgb(81,51,14);stroke-width:2px;stroke-linecap:butt;"/><path d="M1512.71,1189.18C1518.01,1190.95 1520.3,1198.4 1517.83,1205.81C1515.35,1213.21 1509.04,1217.79 1503.74,1216.02C1498.44,1214.25 1496.14,1206.8 1498.62,1199.39C1501.09,1191.98 1507.41,1187.4 1512.71,1189.18Z" style="fill:white;fill-opacity:0.05;"/></g><g><g><path d="M453.441,1620.11C455.748,1618.95 459.494,1618.95 461.8,1620.11C464.107,1621.26 464.107,1623.13 461.8,1624.29C459.494,1625.44 455.748,1625.44 453.441,1624.29C451.135,1623.13 451.135,1621.26 453.441,1620.11Z" style="fill:rgb(90,71,54);"/><path d="M453.441,1702.75C455.748,1701.6 459.494,1701.6 461.8,1702.75C464.107,1703.9 464.107,1705.78 461.8,1706.93C459.494,1708.08 455.748,1708.08 453.441,1706.93C451.135,1705.78 451.135,1703.9 453.441,1702.75Z" style="fill:rgb(94,75,50);"/><path d="M482.614,1668.51C484.92,1667.36 488.666,1667.36 490.972,1668.51C493.279,1669.66 493.279,1671.53 490.972,1672.69C488.666,1673.84 484.92,1673.84 482.614,1672.69C480.307,1671.53 480.307,1669.66 482.614,1668.51Z" style="fill:rgb(94,75,50);"/><path d="M511.094,1654.27C513.4,1653.12 517.146,1653.12 519.453,1654.27C521.759,1655.42 521.759,1657.29 519.453,1658.45C517.146,1659.6 513.4,1659.6 511.094,1658.45C508.787,1657.29 508.787,1655.42 511.094,1654.27Z" style="fill:rgb(94,75,50);"/><path d="M539.472,1662.99C541.779,1661.83 545.524,1661.83 547.831,1662.99C550.138,1664.14 550.138,1666.01 547.831,1667.16C545.524,1668.32 541.779,1668.32 539.472,1667.16C537.165,1666.01 537.165,1664.14 539.472,1662.99Z" style="fill:rgb(94,75,50);"/><path d="M568.232,1665.09C570.539,1663.93 574.284,1663.93 576.591,1665.09C578.898,1666.24 578.898,1668.11 576.591,1669.27C574.284,1670.42 570.539,1670.42 568.232,1669.27C565.925,1668.11 565.925,1666.24 568.232,1665.09Z" style="fill:rgb(94,75,50);"/></g><g><path d="M458.08,1770.87L457.948,1545.57" style="fill:none;stroke:url(#_Linear25);stroke-width:10px;"/><path d="M515.191,1745.92L515.191,1574.19" style="fill:none;stroke:url(#_Linear26);stroke-width:10px;"/><path d="M572.434,1717.3L572.434,1602.82" style="fill:none;stroke:url(#_Linear27);stroke-width:10px;"/><path d="M601.056,1702.99L601.056,1617.13" style="fill:none;stroke:url(#_Linear28);stroke-width:10px;"/><path d="M486.569,1760.24L486.569,1559.88" style="fill:none;stroke:url(#_Linear29);stroke-width:10px;"/><path d="M543.813,1731.61L543.486,1588.67" style="fill:none;stroke:url(#_Linear30);stroke-width:10px;"/></g><g opacity="0.16"><path d="M459.349,1702.49L459.349,1626.18" style="fill:none;stroke:url(#_Linear31);stroke-width:3px;"/><path d="M459.103,1620.61L459.349,1550.86" style="fill:none;stroke:url(#_Linear32);stroke-width:3px;"/><path d="M459.103,1775.12L459.349,1708.78" style="fill:none;stroke:url(#_Linear33);stroke-width:3px;"/><path d="M516.674,1746.34L516.674,1659.61" style="fill:none;stroke:url(#_Linear34);stroke-width:3px;"/><path d="M516.674,1653.96L516.674,1574.61" style="fill:none;stroke:url(#_Linear35);stroke-width:3px;"/><path d="M573.917,1665.46L573.917,1603.23" style="fill:none;stroke:url(#_Linear36);stroke-width:3px;"/><path d="M573.917,1717.72L573.917,1670.72" style="fill:none;stroke:url(#_Linear37);stroke-width:3px;"/><path d="M602.539,1703.41L602.539,1617.54" style="fill:none;stroke:url(#_Linear38);stroke-width:3px;"/><path d="M488.052,1668.27L488.052,1560.3" style="fill:none;stroke:url(#_Linear39);stroke-width:3px;"/><path d="M488.052,1760.65L488.052,1674.79" style="fill:none;stroke:url(#_Linear40);stroke-width:3px;"/><path d="M544.743,1663.43L544.968,1589.08" style="fill:none;stroke:url(#_Linear41);stroke-width:3px;"/><path d="M545.295,1732.03L544.816,1668.91" style="fill:none;stroke:url(#_Linear42);stroke-width:3px;"/></g></g><path d="M719.74,1676.47L830.029,1567.8L830.029,1717.91L844.355,1724.39L844.355,1738.78L719.74,1676.47Z" style="fill-opacity:0.64;"/></g><defs><radialGradient id="_Radial1" cx="0" cy="0" r="1" gradientUnits="userSpaceOnUse" gradientTransform="matrix(2000.2,-599.394,566.094,1889.08,1775.59,1289.22)"><stop offset="0" style="stop-color:rgb(9,32,6);stop-opacity:1"/><stop offset="0.21" style="stop-color:rgb(255,200,132);stop-opacity:1"/><stop offset="0.42" style="stop-color:rgb(201,179,164);stop-opacity:1"/><stop offset="0.61" style="stop-color:rgb(182,172,176);stop-opacity:1"/><stop offset="1" style="stop-color:rgb(91,144,231);stop-opacity:1"/></radialGradient><linearGradient id="_Linear2" x1="0" y1="0" x2="1" y2="0" gradientUnits="userSpaceOnUse" gradientTransform="matrix(1259.35,-629.677,314.838,629.677,28.6226,1559.88)"><stop offset="0" style="stop-color:black;stop-opacity:0.5"/><stop offset="0.13" style="stop-color:black;stop-opacity:0.2"/><stop offset="0.28" style="stop-color:black;stop-opacity:0.5"/><stop offset="0.42" style="stop-color:black;stop-opacity:0.2"/><stop offset="0.58" style="stop-color:black;stop-opacity:0.5"/><stop offset="0.75" style="stop-color:black;stop-opacity:0.2"/><stop offset="0.82" style="stop-color:black;stop-opacity:0.42"/><stop offset="0.87" style="stop-color:black;stop-opacity:0.5"/><stop offset="1" style="stop-color:black;stop-opacity:0.2"/></linearGradient><linearGradient id="_Linear3" x1="0" y1="0" x2="1" y2="0" gradientUnits="userSpaceOnUse" gradientTransform="matrix(1259.35,-629.677,314.838,629.677,200.353,1645.75)"><stop offset="0" style="stop-color:black;stop-opacity:0.5"/><stop offset="0.13" style="stop-color:black;stop-opacity:0.2"/><stop offset="0.28" style="stop-color:black;stop-opacity:0.5"/><stop offset="0.42" style="stop-color:black;stop-opacity:0.2"/><stop offset="0.58" style="stop-color:black;stop-opacity:0.5"/><stop offset="0.75" style="stop-color:black;stop-opacity:0.2"/><stop offset="0.82" style="stop-color:black;stop-opacity:0.42"/><stop offset="0.87" style="stop-color:black;stop-opacity:0.5"/><stop offset="1" style="stop-color:black;stop-opacity:0.2"/></linearGradient><linearGradient id="_Linear4" x1="0" y1="0" x2="1" y2="0" gradientUnits="userSpaceOnUse" gradientTransform="matrix(1259.35,-629.677,314.838,629.677,372.083,1731.61)"><stop offset="0" style="stop-color:black;stop-opacity:0.5"/><stop offset="0.13" style="stop-color:black;stop-opacity:0.2"/><stop offset="0.28" style="stop-color:black;stop-opacity:0.5"/><stop offset="0.42" style="stop-color:black;stop-opacity:0.2"/><stop offset="0.58" style="stop-color:black;stop-opacity:0.5"/><stop offset="0.75" style="stop-color:black;stop-opacity:0.2"/><stop offset="0.82" style="stop-color:black;stop-opacity:0.42"/><stop offset="0.87" style="stop-color:black;stop-opacity:0.5"/><stop offset="1" style="stop-color:black;stop-opacity:0.2"/></linearGradient><linearGradient id="_Linear5" x1="0" y1="0" x2="1" y2="0" gradientUnits="userSpaceOnUse" gradientTransform="matrix(1259.35,-629.677,314.838,629.677,546.161,1816.31)"><stop offset="0" style="stop-color:black;stop-opacity:0.5"/><stop offset="0.13" style="stop-color:black;stop-opacity:0.2"/><stop offset="0.28" style="stop-color:black;stop-opacity:0.5"/><stop offset="0.42" style="stop-color:black;stop-opacity:0.2"/><stop offset="0.58" style="stop-color:black;stop-opacity:0.5"/><stop offset="0.75" style="stop-color:black;stop-opacity:0.2"/><stop offset="0.82" style="stop-color:black;stop-opacity:0.42"/><stop offset="0.87" style="stop-color:black;stop-opacity:0.5"/><stop offset="1" style="stop-color:black;stop-opacity:0.2"/></linearGradient><linearGradient id="_Linear6" x1="0" y1="0" x2="1" y2="0" gradientUnits="userSpaceOnUse" gradientTransform="matrix(1259.35,-629.677,314.838,629.677,715.176,1903.53)"><stop offset="0" style="stop-color:black;stop-opacity:0.5"/><stop offset="0.13" style="stop-color:black;stop-opacity:0.2"/><stop offset="0.28" style="stop-color:black;stop-opacity:0.5"/><stop offset="0.42" style="stop-color:black;stop-opacity:0.2"/><stop offset="0.58" style="stop-color:black;stop-opacity:0.5"/><stop offset="0.75" style="stop-color:black;stop-opacity:0.2"/><stop offset="0.82" style="stop-color:black;stop-opacity:0.42"/><stop offset="0.87" style="stop-color:black;stop-opacity:0.5"/><stop offset="1" style="stop-color:black;stop-opacity:0.2"/></linearGradient><linearGradient id="_Linear7" x1="0" y1="0" x2="1" y2="0" gradientUnits="userSpaceOnUse" gradientTransform="matrix(1259.35,-629.677,314.838,629.677,85.8659,1588.51)"><stop offset="0" style="stop-color:black;stop-opacity:0.2"/><stop offset="0.13" style="stop-color:black;stop-opacity:0.5"/><stop offset="0.18" style="stop-color:black;stop-opacity:0.42"/><stop offset="0.25" style="stop-color:black;stop-opacity:0.2"/><stop offset="0.42" style="stop-color:black;stop-opacity:0.5"/><stop offset="0.58" style="stop-color:black;stop-opacity:0.2"/><stop offset="0.72" style="stop-color:black;stop-opacity:0.5"/><stop offset="0.87" style="stop-color:black;stop-opacity:0.2"/><stop offset="1" style="stop-color:black;stop-opacity:0.5"/></linearGradient><linearGradient id="_Linear8" x1="0" y1="0" x2="1" y2="0" gradientUnits="userSpaceOnUse" gradientTransform="matrix(1259.35,-629.677,314.838,629.677,257.596,1674.37)"><stop offset="0" style="stop-color:black;stop-opacity:0.2"/><stop offset="0.13" style="stop-color:black;stop-opacity:0.5"/><stop offset="0.18" style="stop-color:black;stop-opacity:0.42"/><stop offset="0.25" style="stop-color:black;stop-opacity:0.2"/><stop offset="0.42" style="stop-color:black;stop-opacity:0.5"/><stop offset="0.58" style="stop-color:black;stop-opacity:0.2"/><stop offset="0.72" style="stop-color:black;stop-opacity:0.5"/><stop offset="0.87" style="stop-color:black;stop-opacity:0.2"/><stop offset="1" style="stop-color:black;stop-opacity:0.5"/></linearGradient><linearGradient id="_Linear9" x1="0" y1="0" x2="1" y2="0" gradientUnits="userSpaceOnUse" gradientTransform="matrix(1259.35,-629.677,314.838,629.677,429.326,1760.24)"><stop offset="0" style="stop-color:black;stop-opacity:0.2"/><stop offset="0.13" style="stop-color:black;stop-opacity:0.5"/><stop offset="0.18" style="stop-color:black;stop-opacity:0.42"/><stop offset="0.25" style="stop-color:black;stop-opacity:0.2"/><stop offset="0.42" style="stop-color:black;stop-opacity:0.5"/><stop offset="0.58" style="stop-color:black;stop-opacity:0.2"/><stop offset="0.72" style="stop-color:black;stop-opacity:0.5"/><stop offset="0.87" style="stop-color:black;stop-opacity:0.2"/><stop offset="1" style="stop-color:black;stop-opacity:0.5"/></linearGradient><linearGradient id="_Linear10" x1="0" y1="0" x2="1" y2="0" gradientUnits="userSpaceOnUse" gradientTransform="matrix(1259.35,-629.677,314.838,629.677,603.404,1844.93)"><stop offset="0" style="stop-color:black;stop-opacity:0.2"/><stop offset="0.13" style="stop-color:black;stop-opacity:0.5"/><stop offset="0.18" style="stop-color:black;stop-opacity:0.42"/><stop offset="0.25" style="stop-color:black;stop-opacity:0.2"/><stop offset="0.42" style="stop-color:black;stop-opacity:0.5"/><stop offset="0.58" style="stop-color:black;stop-opacity:0.2"/><stop offset="0.72" style="stop-color:black;stop-opacity:0.5"/><stop offset="0.87" style="stop-color:black;stop-opacity:0.2"/><stop offset="1" style="stop-color:black;stop-opacity:0.5"/></linearGradient><linearGradient id="_Linear11" x1="0" y1="0" x2="1" y2="0" gradientUnits="userSpaceOnUse" gradientTransform="matrix(1259.35,-629.677,314.838,629.677,772.42,1932.15)"><stop offset="0" style="stop-color:black;stop-opacity:0.2"/><stop offset="0.13" style="stop-color:black;stop-opacity:0.5"/><stop offset="0.18" style="stop-color:black;stop-opacity:0.42"/><stop offset="0.25" style="stop-color:black;stop-opacity:0.2"/><stop offset="0.42" style="stop-color:black;stop-opacity:0.5"/><stop offset="0.58" style="stop-color:black;stop-opacity:0.2"/><stop offset="0.72" style="stop-color:black;stop-opacity:0.5"/><stop offset="0.87" style="stop-color:black;stop-opacity:0.2"/><stop offset="1" style="stop-color:black;stop-opacity:0.5"/></linearGradient><linearGradient id="_Linear12" x1="0" y1="0" x2="1" y2="0" gradientUnits="userSpaceOnUse" gradientTransform="matrix(1259.35,-629.677,314.838,629.677,143.109,1617.13)"><stop offset="0" style="stop-color:black;stop-opacity:0.5"/><stop offset="0.13" style="stop-color:black;stop-opacity:0.2"/><stop offset="0.28" style="stop-color:black;stop-opacity:0.5"/><stop offset="0.42" style="stop-color:black;stop-opacity:0.2"/><stop offset="0.58" style="stop-color:black;stop-opacity:0.5"/><stop offset="0.75" style="stop-color:black;stop-opacity:0.2"/><stop offset="0.82" style="stop-color:black;stop-opacity:0.42"/><stop offset="0.87" style="stop-color:black;stop-opacity:0.5"/><stop offset="1" style="stop-color:black;stop-opacity:0.2"/></linearGradient><linearGradient id="_Linear13" x1="0" y1="0" x2="1" y2="0" gradientUnits="userSpaceOnUse" gradientTransform="matrix(1259.35,-629.677,314.838,629.677,314.839,1702.99)"><stop offset="0" style="stop-color:black;stop-opacity:0.5"/><stop offset="0.13" style="stop-color:black;stop-opacity:0.2"/><stop offset="0.28" style="stop-color:black;stop-opacity:0.5"/><stop offset="0.42" style="stop-color:black;stop-opacity:0.2"/><stop offset="0.58" style="stop-color:black;stop-opacity:0.5"/><stop offset="0.75" style="stop-color:black;stop-opacity:0.2"/><stop offset="0.82" style="stop-color:black;stop-opacity:0.42"/><stop offset="0.87" style="stop-color:black;stop-opacity:0.5"/><stop offset="1" style="stop-color:black;stop-opacity:0.2"/></linearGradient><linearGradient id="_Linear14" x1="0" y1="0" x2="1" y2="0" gradientUnits="userSpaceOnUse" gradientTransform="matrix(1259.35,-629.677,314.838,629.677,486.569,1788.86)"><stop offset="0" style="stop-color:black;stop-opacity:0.5"/><stop offset="0.13" style="stop-color:black;stop-opacity:0.2"/><stop offset="0.28" style="stop-color:black;stop-opacity:0.5"/><stop offset="0.42" style="stop-color:black;stop-opacity:0.2"/><stop offset="0.58" style="stop-color:black;stop-opacity:0.5"/><stop offset="0.75" style="stop-color:black;stop-opacity:0.2"/><stop offset="0.82" style="stop-color:black;stop-opacity:0.42"/><stop offset="0.87" style="stop-color:black;stop-opacity:0.5"/><stop offset="1" style="stop-color:black;stop-opacity:0.2"/></linearGradient><linearGradient id="_Linear15" x1="0" y1="0" x2="1" y2="0" gradientUnits="userSpaceOnUse" gradientTransform="matrix(1259.35,-629.677,314.838,629.677,660.647,1873.55)"><stop offset="0" style="stop-color:black;stop-opacity:0.5"/><stop offset="0.13" style="stop-color:black;stop-opacity:0.2"/><stop offset="0.28" style="stop-color:black;stop-opacity:0.5"/><stop offset="0.42" style="stop-color:black;stop-opacity:0.2"/><stop offset="0.58" style="stop-color:black;stop-opacity:0.5"/><stop offset="0.75" style="stop-color:black;stop-opacity:0.2"/><stop offset="0.82" style="stop-color:black;stop-opacity:0.42"/><stop offset="0.87" style="stop-color:black;stop-opacity:0.5"/><stop offset="1" style="stop-color:black;stop-opacity:0.2"/></linearGradient><linearGradient id="_Linear16" x1="0" y1="0" x2="1" y2="0" gradientUnits="userSpaceOnUse" gradientTransform="matrix(515.19,0,0,601.431,229.347,1874.72)"><stop offset="0" style="stop-color:rgb(55,30,12);stop-opacity:1"/><stop offset="1" style="stop-color:rgb(77,60,40);stop-opacity:1"/></linearGradient><linearGradient id="_Linear17" x1="0" y1="0" x2="1" y2="0" gradientUnits="userSpaceOnUse" gradientTransform="matrix(-29.3126,-61.2136,61.2136,-29.3126,821.026,1843.89)"><stop offset="0" style="stop-color:rgb(38,38,38);stop-opacity:0.5"/><stop offset="0.62" style="stop-color:rgb(24,23,20);stop-opacity:0.32"/><stop offset="1" style="stop-color:rgb(13,12,12);stop-opacity:0.21"/></linearGradient><linearGradient id="_Linear18" x1="0" y1="0" x2="1" y2="0" gradientUnits="userSpaceOnUse" gradientTransform="matrix(1275.4,-608,425.614,892.811,477.412,1374.83)"><stop offset="0" style="stop-color:rgb(171,134,79);stop-opacity:1"/><stop offset="0.14" style="stop-color:rgb(132,105,64);stop-opacity:1"/><stop offset="0.35" style="stop-color:rgb(165,133,85);stop-opacity:1"/><stop offset="0.46" style="stop-color:rgb(140,114,74);stop-opacity:1"/><stop offset="0.6" style="stop-color:rgb(159,132,90);stop-opacity:1"/><stop offset="0.71" style="stop-color:rgb(149,124,85);stop-opacity:1"/><stop offset="0.79" style="stop-color:rgb(157,132,92);stop-opacity:1"/><stop offset="0.91" style="stop-color:rgb(137,115,80);stop-opacity:1"/><stop offset="1" style="stop-color:rgb(153,131,96);stop-opacity:1"/></linearGradient><linearGradient id="_Linear19" x1="0" y1="0" x2="1" y2="0" gradientUnits="userSpaceOnUse" gradientTransform="matrix(253.075,-622.93,310.294,126.062,1321.76,1484.55)"><stop offset="0" style="stop-color:rgb(171,134,79);stop-opacity:1"/><stop offset="0.14" style="stop-color:rgb(174,139,87);stop-opacity:1"/><stop offset="0.35" style="stop-color:rgb(165,133,85);stop-opacity:1"/><stop offset="0.46" style="stop-color:rgb(173,145,102);stop-opacity:1"/><stop offset="0.6" style="stop-color:rgb(159,132,90);stop-opacity:1"/><stop offset="0.71" style="stop-color:rgb(166,139,98);stop-opacity:1"/><stop offset="0.79" style="stop-color:rgb(157,132,92);stop-opacity:1"/><stop offset="0.91" style="stop-color:rgb(164,139,100);stop-opacity:1"/><stop offset="1" style="stop-color:rgb(153,131,96);stop-opacity:1"/></linearGradient><radialGradient id="_Radial20" cx="0" cy="0" r="1" gradientUnits="userSpaceOnUse" gradientTransform="matrix(55.4905,-12.6395,16.4121,72.0532,139.643,1321.55)"><stop offset="0" style="stop-color:rgb(71,71,125);stop-opacity:1"/><stop offset="0.43" style="stop-color:rgb(57,65,103);stop-opacity:1"/><stop offset="1" style="stop-color:rgb(53,63,98);stop-opacity:1"/></radialGradient><radialGradient id="_Radial21" cx="0" cy="0" r="1" gradientUnits="userSpaceOnUse" gradientTransform="matrix(48.4913,-11.3202,-1.36779e-13,47.2582,234.113,1250.7)"><stop offset="0" style="stop-color:rgb(92,82,77);stop-opacity:1"/><stop offset="1" style="stop-color:rgb(99,88,83);stop-opacity:1"/></radialGradient><linearGradient id="_Linear22" x1="0" y1="0" x2="1" y2="0" gradientUnits="userSpaceOnUse" gradientTransform="matrix(26.4315,93.3731,-195.221,55.2621,246.554,1189.66)"><stop offset="0" style="stop-color:rgb(82,72,44);stop-opacity:1"/><stop offset="0.51" style="stop-color:rgb(111,97,59);stop-opacity:1"/><stop offset="1" style="stop-color:rgb(117,103,61);stop-opacity:1"/></linearGradient><linearGradient id="_Linear23" x1="0" y1="0" x2="1" y2="0" gradientUnits="userSpaceOnUse" gradientTransform="matrix(58.4774,0,0,47.5182,200.443,1236.48)"><stop offset="0" style="stop-color:rgb(97,85,53);stop-opacity:1"/><stop offset="0.66" style="stop-color:rgb(111,97,59);stop-opacity:1"/><stop offset="1" style="stop-color:rgb(117,103,61);stop-opacity:1"/></linearGradient><radialGradient id="_Radial24" cx="0" cy="0" r="1" gradientUnits="userSpaceOnUse" gradientTransform="matrix(29.5872,10.2922,-12.142,35.5294,1530.64,1217.34)"><stop offset="0" style="stop-color:rgb(81,61,13);stop-opacity:1"/><stop offset="0.65" style="stop-color:rgb(145,105,9);stop-opacity:1"/><stop offset="1" style="stop-color:rgb(150,108,8);stop-opacity:1"/></radialGradient><linearGradient id="_Linear25" x1="0" y1="0" x2="1" y2="0" gradientUnits="userSpaceOnUse" gradientTransform="matrix(184.656,398.375,-398.375,184.656,375.586,1361.28)"><stop offset="0" style="stop-color:rgb(90,71,54);stop-opacity:1"/><stop offset="0.65" style="stop-color:rgb(93,75,53);stop-opacity:1"/><stop offset="1" style="stop-color:rgb(113,97,45);stop-opacity:1"/></linearGradient><linearGradient id="_Linear26" x1="0" y1="0" x2="1" y2="0" gradientUnits="userSpaceOnUse" gradientTransform="matrix(184.656,398.375,-398.375,184.656,375.586,1361.28)"><stop offset="0" style="stop-color:rgb(90,71,54);stop-opacity:1"/><stop offset="0.65" style="stop-color:rgb(93,75,53);stop-opacity:1"/><stop offset="1" style="stop-color:rgb(113,97,45);stop-opacity:1"/></linearGradient><linearGradient id="_Linear27" x1="0" y1="0" x2="1" y2="0" gradientUnits="userSpaceOnUse" gradientTransform="matrix(184.656,398.375,-398.375,184.656,375.586,1361.28)"><stop offset="0" style="stop-color:rgb(90,71,54);stop-opacity:1"/><stop offset="0.65" style="stop-color:rgb(93,75,53);stop-opacity:1"/><stop offset="1" style="stop-color:rgb(113,97,45);stop-opacity:1"/></linearGradient><linearGradient id="_Linear28" x1="0" y1="0" x2="1" y2="0" gradientUnits="userSpaceOnUse" gradientTransform="matrix(184.656,398.375,-398.375,184.656,375.586,1361.28)"><stop offset="0" style="stop-color:rgb(90,71,54);stop-opacity:1"/><stop offset="0.65" style="stop-color:rgb(93,75,53);stop-opacity:1"/><stop offset="1" style="stop-color:rgb(113,97,45);stop-opacity:1"/></linearGradient><linearGradient id="_Linear29" x1="0" y1="0" x2="1" y2="0" gradientUnits="userSpaceOnUse" gradientTransform="matrix(184.656,398.375,-398.375,184.656,375.586,1361.28)"><stop offset="0" style="stop-color:rgb(90,71,54);stop-opacity:1"/><stop offset="0.65" style="stop-color:rgb(93,75,53);stop-opacity:1"/><stop offset="1" style="stop-color:rgb(113,97,45);stop-opacity:1"/></linearGradient><linearGradient id="_Linear30" x1="0" y1="0" x2="1" y2="0" gradientUnits="userSpaceOnUse" gradientTransform="matrix(184.656,398.375,-398.375,184.656,375.586,1361.28)"><stop offset="0" style="stop-color:rgb(90,71,54);stop-opacity:1"/><stop offset="0.65" style="stop-color:rgb(93,75,53);stop-opacity:1"/><stop offset="1" style="stop-color:rgb(113,97,45);stop-opacity:1"/></linearGradient><linearGradient id="_Linear31" x1="0" y1="0" x2="1" y2="0" gradientUnits="userSpaceOnUse" gradientTransform="matrix(-125.569,-377.216,377.216,-125.569,548.653,1739.72)"><stop offset="0" style="stop-color:white;stop-opacity:1"/><stop offset="0.45" style="stop-color:rgb(178,167,129);stop-opacity:1"/><stop offset="1" style="stop-color:rgb(157,144,95);stop-opacity:1"/></linearGradient><linearGradient id="_Linear32" x1="0" y1="0" x2="1" y2="0" gradientUnits="userSpaceOnUse" gradientTransform="matrix(-125.569,-377.216,377.216,-125.569,548.653,1739.72)"><stop offset="0" style="stop-color:white;stop-opacity:1"/><stop offset="0.45" style="stop-color:rgb(178,167,129);stop-opacity:1"/><stop offset="1" style="stop-color:rgb(157,144,95);stop-opacity:1"/></linearGradient><linearGradient id="_Linear33" x1="0" y1="0" x2="1" y2="0" gradientUnits="userSpaceOnUse" gradientTransform="matrix(-125.569,-377.216,377.216,-125.569,548.653,1739.72)"><stop offset="0" style="stop-color:white;stop-opacity:1"/><stop offset="0.45" style="stop-color:rgb(178,167,129);stop-opacity:1"/><stop offset="1" style="stop-color:rgb(157,144,95);stop-opacity:1"/></linearGradient><linearGradient id="_Linear34" x1="0" y1="0" x2="1" y2="0" gradientUnits="userSpaceOnUse" gradientTransform="matrix(-125.569,-377.216,377.216,-125.569,548.653,1739.72)"><stop offset="0" style="stop-color:white;stop-opacity:1"/><stop offset="0.45" style="stop-color:rgb(178,167,129);stop-opacity:1"/><stop offset="1" style="stop-color:rgb(157,144,95);stop-opacity:1"/></linearGradient><linearGradient id="_Linear35" x1="0" y1="0" x2="1" y2="0" gradientUnits="userSpaceOnUse" gradientTransform="matrix(-125.569,-377.216,377.216,-125.569,548.653,1739.72)"><stop offset="0" style="stop-color:white;stop-opacity:1"/><stop offset="0.45" style="stop-color:rgb(178,167,129);stop-opacity:1"/><stop offset="1" style="stop-color:rgb(157,144,95);stop-opacity:1"/></linearGradient><linearGradient id="_Linear36" x1="0" y1="0" x2="1" y2="0" gradientUnits="userSpaceOnUse" gradientTransform="matrix(-125.569,-377.216,377.216,-125.569,548.653,1739.72)"><stop offset="0" style="stop-color:white;stop-opacity:1"/><stop offset="0.45" style="stop-color:rgb(178,167,129);stop-opacity:1"/><stop offset="1" style="stop-color:rgb(157,144,95);stop-opacity:1"/></linearGradient><linearGradient id="_Linear37" x1="0" y1="0" x2="1" y2="0" gradientUnits="userSpaceOnUse" gradientTransform="matrix(-125.569,-377.216,377.216,-125.569,548.653,1739.72)"><stop offset="0" style="stop-color:white;stop-opacity:1"/><stop offset="0.45" style="stop-color:rgb(178,167,129);stop-opacity:1"/><stop offset="1" style="stop-color:rgb(157,144,95);stop-opacity:1"/></linearGradient><linearGradient id="_Linear38" x1="0" y1="0" x2="1" y2="0" gradientUnits="userSpaceOnUse" gradientTransform="matrix(-125.569,-377.216,377.216,-125.569,548.653,1739.72)"><stop offset="0" style="stop-color:white;stop-opacity:1"/><stop offset="0.45" style="stop-color:rgb(178,167,129);stop-opacity:1"/><stop offset="1" style="stop-color:rgb(157,144,95);stop-opacity:1"/></linearGradient><linearGradient id="_Linear39" x1="0" y1="0" x2="1" y2="0" gradientUnits="userSpaceOnUse" gradientTransform="matrix(-125.569,-377.216,377.216,-125.569,548.653,1739.72)"><stop offset="0" style="stop-color:white;stop-opacity:1"/><stop offset="0.45" style="stop-color:rgb(178,167,129);stop-opacity:1"/><stop offset="1" style="stop-color:rgb(157,144,95);stop-opacity:1"/></linearGradient><linearGradient id="_Linear40" x1="0" y1="0" x2="1" y2="0" gradientUnits="userSpaceOnUse" gradientTransform="matrix(-125.569,-377.216,377.216,-125.569,548.653,1739.72)"><stop offset="0" style="stop-color:white;stop-opacity:1"/><stop offset="0.45" style="stop-color:rgb(178,167,129);stop-opacity:1"/><stop offset="1" style="stop-color:rgb(157,144,95);stop-opacity:1"/></linearGradient><linearGradient id="_Linear41" x1="0" y1="0" x2="1" y2="0" gradientUnits="userSpaceOnUse" gradientTransform="matrix(-125.569,-377.216,377.216,-125.569,548.653,1739.72)"><stop offset="0" style="stop-color:white;stop-opacity:1"/><stop offset="0.45" style="stop-color:rgb(178,167,129);stop-opacity:1"/><stop offset="1" style="stop-color:rgb(157,144,95);stop-opacity:1"/></linearGradient><linearGradient id="_Linear42" x1="0" y1="0" x2="1" y2="0" gradientUnits="userSpaceOnUse" gradientTransform="matrix(-125.569,-377.216,377.216,-125.569,548.653,1739.72)"><stop offset="0" style="stop-color:white;stop-opacity:1"/><stop offset="0.45" style="stop-color:rgb(178,167,129);stop-opacity:1"/><stop offset="1" style="stop-color:rgb(157,144,95);stop-opacity:1"/></linearGradient></defs></svg>