<?xml version="1.0" encoding="UTF-8" standalone="no"?><!DOCTYPE svg PUBLIC "-//W3C//DTD SVG 1.1//EN" "http://www.w3.org/Graphics/SVG/1.1/DTD/svg11.dtd"><svg width="2061px" height="1946px" version="1.1" xmlns="http://www.w3.org/2000/svg" xmlns:xlink="http://www.w3.org/1999/xlink" xml:space="preserve" xmlns:serif="http://www.serif.com/" style="fill-rule:evenodd;clip-rule:evenodd;stroke-linecap:round;stroke-linejoin:round;stroke-miterlimit:1.5;"><g id="BACK"><path id="空" d="M0.366,1545.11L0.367,629.22L1259.72,-0.459L2061.13,400.245L2061.13,1315.84L801.777,1945.82L0.366,1545.11Z" style="fill:url(#_Radial1);"/><g id="床"><path d="M1259.72,915.437L2061.13,1316.14L801.774,1945.82L458.314,1773.01L630.419,1688.03L401.445,1573.55L229.34,1659.6L0,1545.3" style="fill:rgb(104,68,27);stroke:rgb(64,64,64);stroke-width:1px;"/><g opacity="0.5"><path d="M0.367,1545.11L1259.72,915.437L1316.96,944.058L57.61,1573.74L0.367,1545.11Z" style="fill:url(#_Linear2);stroke:black;stroke-width:1px;"/><path d="M172.097,1630.98L1431.45,1001.3L1488.69,1029.92L229.34,1659.6L172.097,1630.98Z" style="fill:url(#_Linear3);stroke:black;stroke-width:1px;"/><path d="M343.827,1716.84L1603.18,1087.17L1660.42,1115.79L401.07,1745.47L343.827,1716.84Z" style="fill:url(#_Linear4);stroke:black;stroke-width:1px;"/><path d="M517.905,1801.53L1777.26,1171.86L1834.5,1200.48L575.149,1830.16L517.905,1801.53Z" style="fill:url(#_Linear5);stroke:black;stroke-width:1px;"/><path d="M686.921,1888.76L1946.27,1259.08L2003.52,1287.7L744.164,1917.38L686.921,1888.76Z" style="fill:url(#_Linear6);stroke:black;stroke-width:1px;"/><path d="M57.61,1573.74L1316.96,944.058L1374.21,972.68L114.854,1602.36L57.61,1573.74Z" style="fill:url(#_Linear7);stroke:black;stroke-width:1px;"/><path d="M229.34,1659.6L1488.69,1029.92L1545.94,1058.55L286.584,1688.22L229.34,1659.6Z" style="fill:url(#_Linear8);stroke:black;stroke-width:1px;"/><path d="M401.07,1745.47L1660.42,1115.79L1717.67,1144.41L458.314,1774.09L401.07,1745.47Z" style="fill:url(#_Linear9);stroke:black;stroke-width:1px;"/><path d="M575.149,1830.16L1834.5,1200.48L1891.75,1229.1L632.392,1858.78L575.149,1830.16Z" style="fill:url(#_Linear10);stroke:black;stroke-width:1px;"/><path d="M744.164,1917.38L2003.52,1287.7L2060.76,1316.32L801.407,1946L744.164,1917.38Z" style="fill:url(#_Linear11);stroke:black;stroke-width:1px;"/><path d="M114.854,1602.36L1374.21,972.68L1431.45,1001.3L172.097,1630.98L114.854,1602.36Z" style="fill:url(#_Linear12);stroke:black;stroke-width:1px;"/><path d="M286.584,1688.22L1545.94,1058.55L1603.18,1087.17L343.827,1716.84L286.584,1688.22Z" style="fill:url(#_Linear13);stroke:black;stroke-width:1px;"/><path d="M458.314,1774.09L1717.67,1144.41L1774.91,1173.03L515.557,1802.71L458.314,1774.09Z" style="fill:url(#_Linear14);stroke:black;stroke-width:1px;"/><path d="M632.392,1858.78L1891.75,1229.1L1948.99,1257.72L689.635,1887.4L632.392,1858.78Z" style="fill:url(#_Linear15);stroke:black;stroke-width:1px;"/></g><path d="M855.439,1743.68L848.284,1740.1L633.622,1847.43L640.777,1851.01L855.439,1743.68Z" style="fill:rgb(21,18,13);fill-opacity:0.47;stroke:rgb(41,36,27);stroke-width:2px;stroke-linecap:butt;"/><path d="M633.622,1847.43L848.284,1740.1L855.439,1743.68" style="fill:none;stroke:rgb(62,50,37);stroke-width:3px;"/></g><g id="はしご影"><path d="M505.171,1593.83L953.93,1839.75" style="fill:none;stroke:black;stroke-opacity:0.24;stroke-width:4px;"/><path d="M985.081,1823.92L615.229,1621.69" style="fill:none;stroke:black;stroke-opacity:0.24;stroke-width:4px;"/><path d="M536.704,1609.28L562.027,1596.75" style="fill:none;stroke:black;stroke-opacity:0.24;stroke-width:6px;"/><path d="M589.424,1637.75L614.616,1625.18" style="fill:none;stroke:black;stroke-opacity:0.24;stroke-width:6px;"/><path d="M642.144,1666.22L667.129,1651.87" style="fill:none;stroke:black;stroke-opacity:0.24;stroke-width:6px;"/><path d="M694.863,1694.69L719.137,1681.68" style="fill:none;stroke:black;stroke-opacity:0.24;stroke-width:6px;"/><path d="M747.583,1723.16L771.652,1711.16" style="fill:none;stroke:black;stroke-opacity:0.24;stroke-width:6px;"/><path d="M800.303,1751.63L825.203,1739.87" style="fill:none;stroke:black;stroke-opacity:0.24;stroke-width:6px;"/><path d="M851.85,1780.28L875.918,1767.2" style="fill:none;stroke:black;stroke-opacity:0.24;stroke-width:6px;"/><path d="M907.81,1811.92L931.742,1797.32" style="fill:none;stroke:black;stroke-opacity:0.24;stroke-width:6px;"/></g><g id="階段"><path d="M229.34,1659.6L401.445,1573.55L630.419,1688.03L458.314,1773.01L229.34,1659.6Z" style="fill:url(#_Linear16);"/><path d="M458.314,1773.01L487.368,1759.56L372.818,1587.86L372.822,1645.11L286.97,1688.03L343.831,1716.85L430.065,1673.73L430.065,1730.97L401.889,1745.06L458.314,1773.01Z" style="fill:rgb(21,11,4);fill-opacity:0.5;"/><path d="M486.935,1759.77L515.56,1745.46L401.073,1573.73L229.713,1659.41L287.353,1688.61L258.335,1645.11L372.642,1587.95L486.935,1759.77Z" style="fill:url(#_Linear17);"/><path d="M373.9,1588.4L401.621,1573.46L511.135,1747.68L630.557,1687.97L401.621,1573.46L373.9,1588.4Z" style="fill-opacity:0.8;"/><g style="filter:url(#_Effect18);"><path d="M435.058,1671.23L460.102,1708.79L479.974,1699.05L426.632,1612.83L404.647,1623.82L435.058,1671.23L424.325,1676.59L366.715,1648.43L366.715,1634.12L271.906,1681.52L280.85,1686L281.054,1676.67L291.583,1671.68L291.583,1686L348.827,1714.62L348.827,1719.98L366.931,1728.91L366.715,1705.67L309.472,1677.05L309.472,1662.74L320.205,1657.23L320.205,1671.68L377.448,1700.31L377.448,1734.29L382.815,1736.98L395.337,1730.72L395.337,1691.36L338.093,1662.74L338.093,1648.24L348.827,1642.84L348.827,1657.37L406.07,1686L406.07,1725.35L423.958,1716.41L424.328,1676.59L435.058,1671.23Z" style="fill:rgb(237,82,0);fill-opacity:0.66;"/></g></g><path id="壁" d="M0.367,1545.11L1259.72,915.437L1259.72,571.977L0.367,1201.65L0.367,1545.11Z" style="fill:rgb(56,39,26);"/><path d="M1488.69,343.003L216.943,978.879L0.366,1131.44L0.367,1201.65L918.609,742.533L1488.69,343.003Z" style="fill:rgb(50,50,50);stroke:rgb(52,46,46);stroke-width:1px;"/><path d="M858.851,1744.19L733.535,1808.64L811.918,1941.11L1031.28,1831.43L858.851,1744.19Z" style="fill:url(#_Linear19);"/><path d="M858.851,1744.19L733.535,1808.64L811.918,1941.11L1031.28,1831.43L858.851,1744.19Z" style="fill:white;fill-opacity:0.25;"/><path id="屋根" d="M1144.7,514.465L1603.18,743.707L1603.18,1087.17L1144.97,1316.27L916.261,1201.65L718.511,1300.53L457.778,857.925L1144.7,514.465Z" style="fill:url(#_Linear20);"/><path id="屋根1" serif:id="屋根" d="M1144.7,514.465L1603.18,743.707L1603.18,1087.17L1144.97,1316.27L916.261,1201.65L718.511,1300.53L457.778,857.925L1144.7,514.465Z" style="fill:white;fill-opacity:0.5;"/><path id="窓屋根" d="M882.431,1182.97C919.806,1228.09 1046.65,1281.99 1144.97,1316.27L1830.26,976.528L1575.54,860.991C1327.22,954.272 1107.74,1070.99 882.431,1182.97Z" style="fill:url(#_Linear21);"/><path id="窓屋根1" serif:id="窓屋根" d="M882.431,1182.97C919.806,1228.09 1046.65,1281.99 1144.97,1316.27L1830.26,976.528L1575.54,860.991C1327.22,954.272 1107.74,1070.99 882.431,1182.97Z" style="fill:white;fill-opacity:0.5;"/><g id="タンスと陶磁器"><path d="M0,1544.85L112.841,1600.56L115.219,1384.85L0.367,1328.8L0,1544.85Z" style="fill:rgb(55,44,24);stroke:rgb(61,48,25);stroke-width:2px;stroke-linecap:butt;"/><path d="M116.044,1387.74L0.367,1328.8L241.278,1208.35L358.697,1266.07L116.044,1387.74Z" style="fill:rgb(58,38,30);stroke:rgb(61,48,25);stroke-width:2px;stroke-linecap:butt;"/><path d="M112.841,1600.56L357.959,1478L358.697,1264.6L115.176,1388.34L112.841,1600.56L115.176,1388.34" style="fill:rgb(89,54,42);stroke:rgb(61,48,25);stroke-width:2px;stroke-linecap:butt;"/><path d="M129.09,1395.37L343.888,1287.77L343.756,1330.47L129.089,1438.06L129.09,1395.37Z" style="fill:none;stroke:rgb(61,48,25);stroke-width:2px;stroke-linecap:butt;"/><path d="M128.371,1452.38L343.168,1344.78L343.036,1387.48L128.37,1495.07L128.371,1452.38Z" style="fill:none;stroke:rgb(61,48,25);stroke-width:2px;stroke-linecap:butt;"/><path d="M128.371,1509.07L343.168,1401.47L343.036,1444.17L128.37,1551.76L128.371,1509.07Z" style="fill:none;stroke:rgb(61,48,25);stroke-width:2px;stroke-linecap:butt;"/><path d="M208.977,1368.55C213.455,1366.32 215.805,1368.96 217.091,1372.61C218.963,1377.92 214.752,1383.12 208.977,1384.78C204.597,1386.04 200.864,1385.2 200.864,1380.72C200.864,1376.25 204.499,1370.79 208.977,1368.55Z" style="fill:rgb(102,82,56);stroke:rgb(61,48,25);stroke-width:2px;stroke-linecap:butt;"/><path d="M208.257,1425.57C212.735,1423.33 215.085,1425.98 216.371,1429.62C218.243,1434.93 214.032,1440.13 208.257,1441.79C203.877,1443.05 200.144,1442.21 200.144,1437.74C200.144,1433.26 203.779,1427.81 208.257,1425.57Z" style="fill:rgb(102,82,56);stroke:rgb(61,48,25);stroke-width:2px;stroke-linecap:butt;"/><path d="M208.257,1482.26C212.735,1480.02 215.085,1482.67 216.371,1486.31C218.243,1491.62 214.032,1496.82 208.257,1498.48C203.877,1499.74 200.144,1498.9 200.144,1494.43C200.144,1489.95 203.779,1484.5 208.257,1482.26Z" style="fill:rgb(102,82,56);stroke:rgb(61,48,25);stroke-width:2px;stroke-linecap:butt;"/><path d="M265.193,1340.31C269.671,1338.08 272.021,1340.72 273.307,1344.37C275.179,1349.68 270.968,1354.88 265.193,1356.54C260.813,1357.8 257.08,1356.96 257.08,1352.48C257.08,1348.01 260.715,1342.55 265.193,1340.31Z" style="fill:rgb(102,82,56);stroke:rgb(61,48,25);stroke-width:2px;stroke-linecap:butt;"/><path d="M264.473,1397.33C268.951,1395.09 271.301,1397.74 272.587,1401.38C274.459,1406.69 270.248,1411.89 264.473,1413.55C260.093,1414.81 256.36,1413.97 256.36,1409.5C256.36,1405.02 259.996,1399.57 264.473,1397.33Z" style="fill:rgb(102,82,56);stroke:rgb(61,48,25);stroke-width:2px;stroke-linecap:butt;"/><path d="M264.473,1454.02C268.951,1451.78 271.301,1454.43 272.587,1458.07C274.459,1463.38 270.248,1468.58 264.473,1470.24C260.093,1471.5 256.36,1470.66 256.36,1466.19C256.36,1461.71 259.996,1456.26 264.473,1454.02Z" style="fill:rgb(102,82,56);stroke:rgb(61,48,25);stroke-width:2px;stroke-linecap:butt;"/><path d="M211.821,1374.73C213.701,1373.79 215.228,1374.53 215.228,1376.37C215.228,1378.22 213.701,1380.49 211.821,1381.43C209.941,1382.37 208.415,1381.63 208.415,1379.78C208.415,1377.93 209.941,1375.67 211.821,1374.73Z" style="fill:rgb(163,126,92);"/><path d="M268.219,1346.57C270.099,1345.63 271.626,1346.37 271.626,1348.22C271.626,1350.06 270.099,1352.33 268.219,1353.27C266.339,1354.21 264.813,1353.47 264.813,1351.62C264.813,1349.78 266.339,1347.51 268.219,1346.57Z" style="fill:rgb(163,126,92);"/><path d="M210.979,1431.77C212.859,1430.83 214.386,1431.57 214.386,1433.41C214.386,1435.26 212.859,1437.53 210.979,1438.46C209.099,1439.4 207.573,1438.67 207.573,1436.82C207.573,1434.97 209.099,1432.71 210.979,1431.77Z" style="fill:rgb(163,126,92);"/><path d="M267.228,1403.64C269.108,1402.7 270.635,1403.44 270.635,1405.29C270.635,1407.14 269.108,1409.4 267.228,1410.34C265.348,1411.28 263.822,1410.54 263.822,1408.69C263.822,1406.85 265.348,1404.58 267.228,1403.64Z" style="fill:rgb(163,126,92);"/><path d="M210.979,1488.29C212.859,1487.35 214.386,1488.09 214.386,1489.93C214.386,1491.78 212.859,1494.04 210.979,1494.98C209.099,1495.92 207.573,1495.19 207.573,1493.34C207.573,1491.49 209.099,1489.23 210.979,1488.29Z" style="fill:rgb(163,126,92);"/><path d="M267.228,1460.16C269.108,1459.22 270.635,1459.96 270.635,1461.81C270.635,1463.66 269.108,1465.92 267.228,1466.86C265.348,1467.8 263.822,1467.06 263.822,1465.21C263.822,1463.37 265.348,1461.1 267.228,1460.16Z" style="fill:rgb(163,126,92);"/><path d="M71.416,1332.66C62.766,1311.97 57.896,1281.96 71.416,1265.18C76.889,1260.58 80.944,1256.22 86.139,1254.11C104.666,1246.6 100.037,1232.75 98.297,1227.91C106.79,1218.45 125.271,1214.93 134.339,1229.7C131.226,1239.93 133.675,1249.34 141.925,1254.28C147.147,1257.4 152.602,1260.5 156.189,1264.44C166.879,1268.4 165.714,1318.06 156.189,1332.32C138.41,1354.7 94.572,1358.38 71.416,1332.66Z" style="fill:url(#_Radial22);stroke:rgb(61,48,25);stroke-width:2px;stroke-linecap:butt;"/><path d="M64.372,1297.37C67.936,1306.15 71.471,1312.61 74.938,1307.57C81.459,1298.08 91.999,1319.21 99.287,1315.29C108.337,1306.36 116.145,1308.18 133.496,1315.45C138.706,1316.82 148.308,1297.27 154.867,1304.43C162.521,1312.77 162.591,1294.64 162.298,1283.75C164.383,1304.6 161.843,1318.78 156.819,1329.36C141.84,1353.36 94.187,1357.42 72.557,1331.73C66.644,1321.89 65.151,1311.15 64.372,1297.37Z" style="fill:rgb(57,55,87);fill-opacity:0.53;"/><path d="M104.295,1223.08C110.971,1219.74 121.812,1219.74 128.488,1223.08C135.165,1226.42 135.165,1231.84 128.488,1235.18C121.812,1238.52 110.971,1238.52 104.295,1235.18C97.618,1231.84 97.618,1226.42 104.295,1223.08Z" style="fill:rgb(48,48,70);"/><path d="M109.643,1223.61C113.367,1221.75 119.416,1221.75 123.14,1223.61C126.865,1225.47 126.865,1228.5 123.14,1230.36C119.416,1232.22 113.367,1232.22 109.643,1230.36C105.918,1228.5 105.918,1225.47 109.643,1223.61Z" style="fill:rgb(35,43,64);"/><path d="M222.986,1191.58C252.283,1176.93 281.928,1189.59 289.145,1219.83C296.362,1250.06 278.436,1286.5 249.139,1301.15C219.842,1315.8 190.197,1303.15 182.98,1272.91C175.763,1242.67 193.689,1206.23 222.986,1191.58Z" style="fill:rgb(104,92,86);stroke:rgb(60,45,33);stroke-width:2px;stroke-linecap:butt;"/><path d="M224.192,1202.48C247.239,1190.96 270.56,1200.91 276.238,1224.7C281.916,1248.49 267.814,1277.16 244.766,1288.68C221.719,1300.2 198.398,1290.25 192.72,1266.46C187.042,1242.67 201.144,1214.01 224.192,1202.48Z" style="fill:url(#_Radial23);"/><path d="M279,1219.55C280.824,1219.55 282.446,1221.17 283.479,1223.69C283.705,1224.24 285.267,1224.45 285.433,1225.08C285.598,1225.7 284.367,1226.75 284.463,1227.44C284.585,1228.3 284.649,1229.21 284.649,1230.14C284.649,1231.67 284.477,1233.12 284.167,1234.43C284.023,1235.04 285.738,1235.79 285.538,1236.34C285.347,1236.86 283.243,1237.17 283.006,1237.61C281.983,1239.55 280.566,1240.74 279,1240.74C275.883,1240.74 273.351,1235.99 273.351,1230.14C273.351,1224.3 275.883,1219.55 279,1219.55Z" style="fill:rgb(82,58,44);"/><path d="M218.344,1203.3C217.86,1202.19 218.898,1200.56 220.901,1198.94C221.339,1198.59 221.113,1197.56 221.637,1197.21C222.16,1196.86 223.433,1197.19 224.031,1196.86C224.779,1196.45 225.581,1196.05 226.426,1195.68C227.805,1195.08 229.162,1194.61 230.43,1194.29C231.019,1194.13 231.245,1192.79 231.789,1192.7C232.309,1192.61 233.148,1193.77 233.615,1193.74C235.633,1193.6 237.091,1193.98 237.506,1194.94C238.333,1196.83 234.711,1200.24 229.423,1202.55C224.135,1204.86 219.171,1205.19 218.344,1203.3Z" style="fill:rgb(82,58,44);"/><path d="M240.272,1293.75C241.047,1295.3 243.17,1295.97 245.833,1295.74C246.415,1295.69 247.263,1296.93 247.888,1296.79C248.512,1296.66 248.912,1295.15 249.562,1294.93C250.376,1294.65 251.203,1294.31 252.028,1293.89C253.374,1293.22 254.582,1292.44 255.607,1291.6C256.084,1291.2 257.478,1292.33 257.872,1291.92C258.249,1291.53 257.629,1289.6 257.922,1289.2C259.193,1287.48 259.647,1285.75 258.981,1284.41C257.656,1281.76 252.389,1281.69 247.226,1284.27C242.062,1286.84 238.947,1291.09 240.272,1293.75Z" style="fill:rgb(82,58,44);"/><path d="M192.36,1262.26C190.994,1262.44 189.993,1264.21 189.552,1266.81C189.455,1267.38 188.313,1267.74 188.272,1268.38C188.231,1269.02 189.292,1269.94 189.31,1270.63C189.333,1271.5 189.405,1272.4 189.528,1273.33C189.73,1274.84 190.051,1276.26 190.456,1277.53C190.644,1278.12 189.459,1279.04 189.681,1279.56C189.893,1280.05 191.51,1280.15 191.747,1280.57C192.769,1282.38 193.989,1283.43 195.162,1283.27C197.498,1282.96 198.767,1278 197.993,1272.2C197.22,1266.4 194.696,1261.95 192.36,1262.26Z" style="fill:rgb(82,58,44);"/><path d="M250.552,1187.39C259.345,1198.7 276.637,1218.62 259.287,1235.83C251.853,1243.2 256.029,1254.88 259.287,1259.78C267.043,1267.04 270.281,1277.75 270.929,1281.37" style="fill:none;stroke:url(#_Linear24);stroke-width:2px;"/><path d="M200.809,1212.26C194.432,1234.63 209.691,1251.54 259.287,1259.78" style="fill:none;stroke:url(#_Linear25);stroke-width:2px;"/></g><g id="蓄音機"><ellipse cx="1451.62" cy="1310.87" rx="5.403" ry="15.207" style="fill:rgb(46,40,8);stroke:rgb(74,46,13);stroke-width:2px;stroke-linecap:butt;"/><ellipse cx="1530.12" cy="1349.2" rx="5.403" ry="15.207" style="fill:rgb(46,40,8);stroke:rgb(74,46,13);stroke-width:2px;stroke-linecap:butt;"/><path d="M1589.18,1280.71L1532.73,1308.93L1532.73,1345.9L1588.15,1317.28L1589.18,1280.71Z" style="fill:rgb(76,40,21);stroke:rgb(62,38,10);stroke-width:2px;stroke-linecap:butt;"/><path d="M1439.18,1263.14L1532.04,1309.28L1532.73,1345.9L1438.19,1300.01L1439.18,1263.14Z" style="fill:rgb(78,28,28);stroke:rgb(62,38,10);stroke-width:2px;stroke-linecap:butt;"/><path d="M1439.47,1263L1532.73,1308.93L1605.18,1272.86L1512.86,1225L1439.47,1263Z" style="fill:rgb(77,46,22);stroke:rgb(62,38,10);stroke-width:2px;stroke-linecap:butt;"/><path d="M1479.04,1245.43C1497.46,1236.22 1527.38,1236.22 1545.8,1245.43C1564.22,1254.64 1564.22,1269.6 1545.8,1278.81C1527.38,1288.03 1497.46,1288.03 1479.04,1278.81C1460.61,1269.6 1460.61,1254.64 1479.04,1245.43Z" style="fill:rgb(46,29,8);stroke:rgb(44,28,8);stroke-width:2px;stroke-linecap:butt;"/><path d="M1468.54,1256.06C1466.56,1259.92 1466.15,1263.62 1468.53,1267.04L1497.47,1263.45L1497.47,1259.85L1468.54,1256.06Z" style="fill:rgb(56,35,9);"/><path d="M1556.81,1255.76C1558.79,1259.62 1559.2,1263.32 1556.82,1266.74L1527.88,1263.14L1527.88,1259.55L1556.81,1255.76Z" style="fill:rgb(56,35,9);"/><path d="M1502.11,1256.97C1507.8,1254.13 1517.04,1254.13 1522.72,1256.97C1528.41,1259.82 1528.41,1264.43 1522.72,1267.28C1517.04,1270.12 1507.8,1270.12 1502.11,1267.28C1496.42,1264.43 1496.42,1259.82 1502.11,1256.97Z" style="fill:rgb(90,0,0);stroke:rgb(68,11,50);stroke-width:2px;stroke-linecap:butt;"/><path d="M1511.89,1261.86C1512.18,1261.71 1512.65,1261.71 1512.95,1261.86C1513.24,1262.01 1513.24,1262.24 1512.95,1262.39C1512.65,1262.54 1512.18,1262.54 1511.89,1262.39C1511.59,1262.24 1511.59,1262.01 1511.89,1261.86Z" style="fill:rgb(46,40,8);stroke:black;stroke-width:2px;stroke-linecap:butt;"/><path d="M1554.01,1202.98C1556.02,1213.07 1558.36,1226.31 1562.8,1232.4C1568.65,1238.48 1572.05,1259.74 1571.86,1262.56C1571.64,1265.7 1563.97,1263.51 1565.34,1262.31C1563.04,1256.63 1562.32,1252.22 1557.8,1246.4C1552.13,1240.31 1542.32,1243.54 1531.89,1248.12" style="fill:rgb(66,46,11);stroke:rgb(81,51,14);stroke-width:2px;stroke-linecap:butt;"/><path d="M1560.46,1263.91L1523,1276.85C1519.01,1279.27 1519.01,1280.37 1520.65,1281.42C1522.08,1284.02 1524.73,1283.2 1527.12,1280.18L1559.82,1270.51L1565.36,1271.21C1570.03,1268.57 1566.22,1262.13 1560.46,1263.91Z" style="fill:rgb(95,72,16);stroke:rgb(74,46,13);stroke-width:2px;stroke-linecap:butt;"/><path d="M1534.79,1178.53C1551.12,1184.21 1558.94,1204.74 1552.24,1224.35C1545.53,1243.96 1526.84,1255.27 1510.51,1249.58C1494.18,1243.9 1486.36,1223.37 1493.06,1203.76C1499.76,1184.15 1518.46,1172.85 1534.79,1178.53Z" style="fill:url(#_Radial26);stroke:rgb(81,51,14);stroke-width:2px;stroke-linecap:butt;"/></g><g><g><path d="M453.808,1619.65C456.114,1618.49 459.86,1618.49 462.166,1619.65C464.473,1620.8 464.473,1622.67 462.166,1623.83C459.86,1624.98 456.114,1624.98 453.808,1623.83C451.501,1622.67 451.501,1620.8 453.808,1619.65Z" style="fill:rgb(90,71,54);"/><path d="M453.808,1702.29C456.114,1701.13 459.86,1701.13 462.166,1702.29C464.473,1703.44 464.473,1705.32 462.166,1706.47C459.86,1707.62 456.114,1707.62 453.808,1706.47C451.501,1705.32 451.501,1703.44 453.808,1702.29Z" style="fill:rgb(94,75,50);"/><path d="M482.98,1668.05C485.286,1666.89 489.032,1666.89 491.339,1668.05C493.645,1669.2 493.645,1671.08 491.339,1672.23C489.032,1673.38 485.286,1673.38 482.98,1672.23C480.673,1671.08 480.673,1669.2 482.98,1668.05Z" style="fill:rgb(94,75,50);"/><path d="M511.46,1653.81C513.767,1652.65 517.512,1652.65 519.819,1653.81C522.125,1654.96 522.125,1656.84 519.819,1657.99C517.512,1659.14 513.767,1659.14 511.46,1657.99C509.153,1656.84 509.153,1654.96 511.46,1653.81Z" style="fill:rgb(94,75,50);"/><path d="M539.838,1662.53C542.145,1661.37 545.89,1661.37 548.197,1662.53C550.504,1663.68 550.504,1665.55 548.197,1666.7C545.89,1667.86 542.145,1667.86 539.838,1666.7C537.531,1665.55 537.531,1663.68 539.838,1662.53Z" style="fill:rgb(94,75,50);"/><path d="M568.598,1664.62C570.905,1663.47 574.65,1663.47 576.957,1664.62C579.264,1665.78 579.264,1667.65 576.957,1668.81C574.65,1669.96 570.905,1669.96 568.598,1668.81C566.292,1667.65 566.292,1665.78 568.598,1664.62Z" style="fill:rgb(94,75,50);"/></g><g><path d="M458.446,1770.41L458.314,1545.11" style="fill:none;stroke:url(#_Linear27);stroke-width:10px;"/><path d="M515.557,1745.47L515.557,1573.74" style="fill:none;stroke:url(#_Linear28);stroke-width:10px;"/><path d="M572.8,1716.84L572.8,1602.36" style="fill:none;stroke:url(#_Linear29);stroke-width:10px;"/><path d="M601.422,1702.53L601.422,1616.67" style="fill:none;stroke:url(#_Linear30);stroke-width:10px;"/><path d="M486.935,1759.78L486.935,1559.42" style="fill:none;stroke:url(#_Linear31);stroke-width:10px;"/><path d="M544.179,1731.15L543.852,1588.21" style="fill:none;stroke:url(#_Linear32);stroke-width:10px;"/></g><g opacity="0.16"><path d="M459.715,1702.03L459.715,1625.72" style="fill:none;stroke:url(#_Linear33);stroke-width:3px;"/><path d="M459.47,1620.15L459.715,1550.4" style="fill:none;stroke:url(#_Linear34);stroke-width:3px;"/><path d="M459.47,1774.66L459.715,1708.32" style="fill:none;stroke:url(#_Linear35);stroke-width:3px;"/><path d="M517.04,1745.88L517.04,1659.15" style="fill:none;stroke:url(#_Linear36);stroke-width:3px;"/><path d="M517.04,1653.5L517.04,1574.15" style="fill:none;stroke:url(#_Linear37);stroke-width:3px;"/><path d="M574.283,1665L574.283,1602.77" style="fill:none;stroke:url(#_Linear38);stroke-width:3px;"/><path d="M574.283,1717.26L574.283,1670.26" style="fill:none;stroke:url(#_Linear39);stroke-width:3px;"/><path d="M602.905,1702.95L602.905,1617.08" style="fill:none;stroke:url(#_Linear40);stroke-width:3px;"/><path d="M488.418,1667.81L488.418,1559.84" style="fill:none;stroke:url(#_Linear41);stroke-width:3px;"/><path d="M488.418,1760.19L488.418,1674.33" style="fill:none;stroke:url(#_Linear42);stroke-width:3px;"/><path d="M545.109,1662.97L545.335,1588.62" style="fill:none;stroke:url(#_Linear43);stroke-width:3px;"/><path d="M545.661,1731.57L545.182,1668.45" style="fill:none;stroke:url(#_Linear44);stroke-width:3px;"/></g></g><path d="M720.107,1676.01L830.396,1567.34L830.396,1717.45L844.721,1723.93L844.721,1738.32L720.107,1676.01Z" style="fill-opacity:0.64;"/></g><defs><radialGradient id="_Radial1" cx="0" cy="0" r="1" gradientUnits="userSpaceOnUse" gradientTransform="matrix(2000.2,-599.394,566.094,1889.08,1775.95,1288.76)"><stop offset="0" style="stop-color:rgb(146,160,145);stop-opacity:1"/><stop offset="0.21" style="stop-color:rgb(224,119,199);stop-opacity:1"/><stop offset="0.39" style="stop-color:rgb(181,102,175);stop-opacity:1"/><stop offset="0.72" style="stop-color:rgb(88,66,124);stop-opacity:1"/><stop offset="1" style="stop-color:rgb(52,52,104);stop-opacity:1"/></radialGradient><linearGradient id="_Linear2" x1="0" y1="0" x2="1" y2="0" gradientUnits="userSpaceOnUse" gradientTransform="matrix(1259.35,-629.677,314.838,629.677,28.9888,1559.42)"><stop offset="0" style="stop-color:black;stop-opacity:0.5"/><stop offset="0.13" style="stop-color:black;stop-opacity:0.2"/><stop offset="0.28" style="stop-color:black;stop-opacity:0.5"/><stop offset="0.42" style="stop-color:black;stop-opacity:0.2"/><stop offset="0.58" style="stop-color:black;stop-opacity:0.5"/><stop offset="0.75" style="stop-color:black;stop-opacity:0.2"/><stop offset="0.82" style="stop-color:black;stop-opacity:0.42"/><stop offset="0.87" style="stop-color:black;stop-opacity:0.5"/><stop offset="1" style="stop-color:black;stop-opacity:0.2"/></linearGradient><linearGradient id="_Linear3" x1="0" y1="0" x2="1" y2="0" gradientUnits="userSpaceOnUse" gradientTransform="matrix(1259.35,-629.677,314.838,629.677,200.719,1645.29)"><stop offset="0" style="stop-color:black;stop-opacity:0.5"/><stop offset="0.13" style="stop-color:black;stop-opacity:0.2"/><stop offset="0.28" style="stop-color:black;stop-opacity:0.5"/><stop offset="0.42" style="stop-color:black;stop-opacity:0.2"/><stop offset="0.58" style="stop-color:black;stop-opacity:0.5"/><stop offset="0.75" style="stop-color:black;stop-opacity:0.2"/><stop offset="0.82" style="stop-color:black;stop-opacity:0.42"/><stop offset="0.87" style="stop-color:black;stop-opacity:0.5"/><stop offset="1" style="stop-color:black;stop-opacity:0.2"/></linearGradient><linearGradient id="_Linear4" x1="0" y1="0" x2="1" y2="0" gradientUnits="userSpaceOnUse" gradientTransform="matrix(1259.35,-629.677,314.838,629.677,372.449,1731.15)"><stop offset="0" style="stop-color:black;stop-opacity:0.5"/><stop offset="0.13" style="stop-color:black;stop-opacity:0.2"/><stop offset="0.28" style="stop-color:black;stop-opacity:0.5"/><stop offset="0.42" style="stop-color:black;stop-opacity:0.2"/><stop offset="0.58" style="stop-color:black;stop-opacity:0.5"/><stop offset="0.75" style="stop-color:black;stop-opacity:0.2"/><stop offset="0.82" style="stop-color:black;stop-opacity:0.42"/><stop offset="0.87" style="stop-color:black;stop-opacity:0.5"/><stop offset="1" style="stop-color:black;stop-opacity:0.2"/></linearGradient><linearGradient id="_Linear5" x1="0" y1="0" x2="1" y2="0" gradientUnits="userSpaceOnUse" gradientTransform="matrix(1259.35,-629.677,314.838,629.677,546.527,1815.85)"><stop offset="0" style="stop-color:black;stop-opacity:0.5"/><stop offset="0.13" style="stop-color:black;stop-opacity:0.2"/><stop offset="0.28" style="stop-color:black;stop-opacity:0.5"/><stop offset="0.42" style="stop-color:black;stop-opacity:0.2"/><stop offset="0.58" style="stop-color:black;stop-opacity:0.5"/><stop offset="0.75" style="stop-color:black;stop-opacity:0.2"/><stop offset="0.82" style="stop-color:black;stop-opacity:0.42"/><stop offset="0.87" style="stop-color:black;stop-opacity:0.5"/><stop offset="1" style="stop-color:black;stop-opacity:0.2"/></linearGradient><linearGradient id="_Linear6" x1="0" y1="0" x2="1" y2="0" gradientUnits="userSpaceOnUse" gradientTransform="matrix(1259.35,-629.677,314.838,629.677,715.542,1903.07)"><stop offset="0" style="stop-color:black;stop-opacity:0.5"/><stop offset="0.13" style="stop-color:black;stop-opacity:0.2"/><stop offset="0.28" style="stop-color:black;stop-opacity:0.5"/><stop offset="0.42" style="stop-color:black;stop-opacity:0.2"/><stop offset="0.58" style="stop-color:black;stop-opacity:0.5"/><stop offset="0.75" style="stop-color:black;stop-opacity:0.2"/><stop offset="0.82" style="stop-color:black;stop-opacity:0.42"/><stop offset="0.87" style="stop-color:black;stop-opacity:0.5"/><stop offset="1" style="stop-color:black;stop-opacity:0.2"/></linearGradient><linearGradient id="_Linear7" x1="0" y1="0" x2="1" y2="0" gradientUnits="userSpaceOnUse" gradientTransform="matrix(1259.35,-629.677,314.838,629.677,86.2321,1588.05)"><stop offset="0" style="stop-color:black;stop-opacity:0.2"/><stop offset="0.13" style="stop-color:black;stop-opacity:0.5"/><stop offset="0.18" style="stop-color:black;stop-opacity:0.42"/><stop offset="0.25" style="stop-color:black;stop-opacity:0.2"/><stop offset="0.42" style="stop-color:black;stop-opacity:0.5"/><stop offset="0.58" style="stop-color:black;stop-opacity:0.2"/><stop offset="0.72" style="stop-color:black;stop-opacity:0.5"/><stop offset="0.87" style="stop-color:black;stop-opacity:0.2"/><stop offset="1" style="stop-color:black;stop-opacity:0.5"/></linearGradient><linearGradient id="_Linear8" x1="0" y1="0" x2="1" y2="0" gradientUnits="userSpaceOnUse" gradientTransform="matrix(1259.35,-629.677,314.838,629.677,257.962,1673.91)"><stop offset="0" style="stop-color:black;stop-opacity:0.2"/><stop offset="0.13" style="stop-color:black;stop-opacity:0.5"/><stop offset="0.18" style="stop-color:black;stop-opacity:0.42"/><stop offset="0.25" style="stop-color:black;stop-opacity:0.2"/><stop offset="0.42" style="stop-color:black;stop-opacity:0.5"/><stop offset="0.58" style="stop-color:black;stop-opacity:0.2"/><stop offset="0.72" style="stop-color:black;stop-opacity:0.5"/><stop offset="0.87" style="stop-color:black;stop-opacity:0.2"/><stop offset="1" style="stop-color:black;stop-opacity:0.5"/></linearGradient><linearGradient id="_Linear9" x1="0" y1="0" x2="1" y2="0" gradientUnits="userSpaceOnUse" gradientTransform="matrix(1259.35,-629.677,314.838,629.677,429.692,1759.78)"><stop offset="0" style="stop-color:black;stop-opacity:0.2"/><stop offset="0.13" style="stop-color:black;stop-opacity:0.5"/><stop offset="0.18" style="stop-color:black;stop-opacity:0.42"/><stop offset="0.25" style="stop-color:black;stop-opacity:0.2"/><stop offset="0.42" style="stop-color:black;stop-opacity:0.5"/><stop offset="0.58" style="stop-color:black;stop-opacity:0.2"/><stop offset="0.72" style="stop-color:black;stop-opacity:0.5"/><stop offset="0.87" style="stop-color:black;stop-opacity:0.2"/><stop offset="1" style="stop-color:black;stop-opacity:0.5"/></linearGradient><linearGradient id="_Linear10" x1="0" y1="0" x2="1" y2="0" gradientUnits="userSpaceOnUse" gradientTransform="matrix(1259.35,-629.677,314.838,629.677,603.77,1844.47)"><stop offset="0" style="stop-color:black;stop-opacity:0.2"/><stop offset="0.13" style="stop-color:black;stop-opacity:0.5"/><stop offset="0.18" style="stop-color:black;stop-opacity:0.42"/><stop offset="0.25" style="stop-color:black;stop-opacity:0.2"/><stop offset="0.42" style="stop-color:black;stop-opacity:0.5"/><stop offset="0.58" style="stop-color:black;stop-opacity:0.2"/><stop offset="0.72" style="stop-color:black;stop-opacity:0.5"/><stop offset="0.87" style="stop-color:black;stop-opacity:0.2"/><stop offset="1" style="stop-color:black;stop-opacity:0.5"/></linearGradient><linearGradient id="_Linear11" x1="0" y1="0" x2="1" y2="0" gradientUnits="userSpaceOnUse" gradientTransform="matrix(1259.35,-629.677,314.838,629.677,772.786,1931.69)"><stop offset="0" style="stop-color:black;stop-opacity:0.2"/><stop offset="0.13" style="stop-color:black;stop-opacity:0.5"/><stop offset="0.18" style="stop-color:black;stop-opacity:0.42"/><stop offset="0.25" style="stop-color:black;stop-opacity:0.2"/><stop offset="0.42" style="stop-color:black;stop-opacity:0.5"/><stop offset="0.58" style="stop-color:black;stop-opacity:0.2"/><stop offset="0.72" style="stop-color:black;stop-opacity:0.5"/><stop offset="0.87" style="stop-color:black;stop-opacity:0.2"/><stop offset="1" style="stop-color:black;stop-opacity:0.5"/></linearGradient><linearGradient id="_Linear12" x1="0" y1="0" x2="1" y2="0" gradientUnits="userSpaceOnUse" gradientTransform="matrix(1259.35,-629.677,314.838,629.677,143.475,1616.67)"><stop offset="0" style="stop-color:black;stop-opacity:0.5"/><stop offset="0.13" style="stop-color:black;stop-opacity:0.2"/><stop offset="0.28" style="stop-color:black;stop-opacity:0.5"/><stop offset="0.42" style="stop-color:black;stop-opacity:0.2"/><stop offset="0.58" style="stop-color:black;stop-opacity:0.5"/><stop offset="0.75" style="stop-color:black;stop-opacity:0.2"/><stop offset="0.82" style="stop-color:black;stop-opacity:0.42"/><stop offset="0.87" style="stop-color:black;stop-opacity:0.5"/><stop offset="1" style="stop-color:black;stop-opacity:0.2"/></linearGradient><linearGradient id="_Linear13" x1="0" y1="0" x2="1" y2="0" gradientUnits="userSpaceOnUse" gradientTransform="matrix(1259.35,-629.677,314.838,629.677,315.205,1702.53)"><stop offset="0" style="stop-color:black;stop-opacity:0.5"/><stop offset="0.13" style="stop-color:black;stop-opacity:0.2"/><stop offset="0.28" style="stop-color:black;stop-opacity:0.5"/><stop offset="0.42" style="stop-color:black;stop-opacity:0.2"/><stop offset="0.58" style="stop-color:black;stop-opacity:0.5"/><stop offset="0.75" style="stop-color:black;stop-opacity:0.2"/><stop offset="0.82" style="stop-color:black;stop-opacity:0.42"/><stop offset="0.87" style="stop-color:black;stop-opacity:0.5"/><stop offset="1" style="stop-color:black;stop-opacity:0.2"/></linearGradient><linearGradient id="_Linear14" x1="0" y1="0" x2="1" y2="0" gradientUnits="userSpaceOnUse" gradientTransform="matrix(1259.35,-629.677,314.838,629.677,486.935,1788.4)"><stop offset="0" style="stop-color:black;stop-opacity:0.5"/><stop offset="0.13" style="stop-color:black;stop-opacity:0.2"/><stop offset="0.28" style="stop-color:black;stop-opacity:0.5"/><stop offset="0.42" style="stop-color:black;stop-opacity:0.2"/><stop offset="0.58" style="stop-color:black;stop-opacity:0.5"/><stop offset="0.75" style="stop-color:black;stop-opacity:0.2"/><stop offset="0.82" style="stop-color:black;stop-opacity:0.42"/><stop offset="0.87" style="stop-color:black;stop-opacity:0.5"/><stop offset="1" style="stop-color:black;stop-opacity:0.2"/></linearGradient><linearGradient id="_Linear15" x1="0" y1="0" x2="1" y2="0" gradientUnits="userSpaceOnUse" gradientTransform="matrix(1259.35,-629.677,314.838,629.677,661.014,1873.09)"><stop offset="0" style="stop-color:black;stop-opacity:0.5"/><stop offset="0.13" style="stop-color:black;stop-opacity:0.2"/><stop offset="0.28" style="stop-color:black;stop-opacity:0.5"/><stop offset="0.42" style="stop-color:black;stop-opacity:0.2"/><stop offset="0.58" style="stop-color:black;stop-opacity:0.5"/><stop offset="0.75" style="stop-color:black;stop-opacity:0.2"/><stop offset="0.82" style="stop-color:black;stop-opacity:0.42"/><stop offset="0.87" style="stop-color:black;stop-opacity:0.5"/><stop offset="1" style="stop-color:black;stop-opacity:0.2"/></linearGradient><linearGradient id="_Linear16" x1="0" y1="0" x2="1" y2="0" gradientUnits="userSpaceOnUse" gradientTransform="matrix(109.79,190.023,-94.4987,54.5987,315.393,1616.57)"><stop offset="0" style="stop-color:rgb(57,31,12);stop-opacity:1"/><stop offset="0.45" style="stop-color:rgb(109,59,23);stop-opacity:1"/><stop offset="1" style="stop-color:rgb(44,24,9);stop-opacity:1"/></linearGradient><linearGradient id="_Linear17" x1="0" y1="0" x2="1" y2="0" gradientUnits="userSpaceOnUse" gradientTransform="matrix(99.7905,166.84,-166.84,99.7905,310.77,1618.89)"><stop offset="0" style="stop-color:rgb(55,30,12);stop-opacity:1"/><stop offset="0.22" style="stop-color:rgb(107,44,21);stop-opacity:1"/><stop offset="0.5" style="stop-color:rgb(121,47,23);stop-opacity:1"/><stop offset="0.66" style="stop-color:rgb(113,48,22);stop-opacity:1"/><stop offset="0.82" style="stop-color:rgb(89,51,18);stop-opacity:1"/><stop offset="1" style="stop-color:rgb(57,31,12);stop-opacity:1"/></linearGradient><filter id="_Effect18" filterUnits="userSpaceOnUse" x="265.963" y="1606.89" width="219.953" height="136.029"><feGaussianBlur in="SourceGraphic" stdDeviation="0.990476"/></filter><linearGradient id="_Linear19" x1="0" y1="0" x2="1" y2="0" gradientUnits="userSpaceOnUse" gradientTransform="matrix(-29.3126,-61.2136,61.2136,-29.3126,821.393,1843.43)"><stop offset="0" style="stop-color:rgb(38,38,38);stop-opacity:0.5"/><stop offset="0.62" style="stop-color:rgb(24,23,20);stop-opacity:0.32"/><stop offset="1" style="stop-color:rgb(13,12,12);stop-opacity:0.21"/></linearGradient><linearGradient id="_Linear20" x1="0" y1="0" x2="1" y2="0" gradientUnits="userSpaceOnUse" gradientTransform="matrix(1275.4,-608,425.614,892.811,477.778,1374.37)"><stop offset="0" style="stop-color:rgb(171,134,79);stop-opacity:1"/><stop offset="0.14" style="stop-color:rgb(132,105,64);stop-opacity:1"/><stop offset="0.35" style="stop-color:rgb(165,133,85);stop-opacity:1"/><stop offset="0.46" style="stop-color:rgb(140,114,74);stop-opacity:1"/><stop offset="0.6" style="stop-color:rgb(159,132,90);stop-opacity:1"/><stop offset="0.71" style="stop-color:rgb(149,124,85);stop-opacity:1"/><stop offset="0.79" style="stop-color:rgb(157,132,92);stop-opacity:1"/><stop offset="0.91" style="stop-color:rgb(137,115,80);stop-opacity:1"/><stop offset="1" style="stop-color:rgb(153,131,96);stop-opacity:1"/></linearGradient><linearGradient id="_Linear21" x1="0" y1="0" x2="1" y2="0" gradientUnits="userSpaceOnUse" gradientTransform="matrix(253.075,-622.93,310.294,126.062,1322.12,1484.09)"><stop offset="0" style="stop-color:rgb(171,134,79);stop-opacity:1"/><stop offset="0.14" style="stop-color:rgb(174,139,87);stop-opacity:1"/><stop offset="0.35" style="stop-color:rgb(165,133,85);stop-opacity:1"/><stop offset="0.46" style="stop-color:rgb(173,145,102);stop-opacity:1"/><stop offset="0.6" style="stop-color:rgb(159,132,90);stop-opacity:1"/><stop offset="0.71" style="stop-color:rgb(166,139,98);stop-opacity:1"/><stop offset="0.79" style="stop-color:rgb(157,132,92);stop-opacity:1"/><stop offset="0.91" style="stop-color:rgb(164,139,100);stop-opacity:1"/><stop offset="1" style="stop-color:rgb(153,131,96);stop-opacity:1"/></linearGradient><radialGradient id="_Radial22" cx="0" cy="0" r="1" gradientUnits="userSpaceOnUse" gradientTransform="matrix(55.4905,-12.6395,16.4121,72.0532,140.009,1321.09)"><stop offset="0" style="stop-color:rgb(125,71,92);stop-opacity:1"/><stop offset="0.21" style="stop-color:rgb(92,63,87);stop-opacity:1"/><stop offset="0.43" style="stop-color:rgb(58,54,81);stop-opacity:1"/><stop offset="1" style="stop-color:rgb(42,50,78);stop-opacity:1"/></radialGradient><radialGradient id="_Radial23" cx="0" cy="0" r="1" gradientUnits="userSpaceOnUse" gradientTransform="matrix(48.4913,-11.3202,-1.26121e-13,47.2582,229.362,1191.91)"><stop offset="0" style="stop-color:rgb(155,100,74);stop-opacity:1"/><stop offset="0.49" style="stop-color:rgb(111,90,80);stop-opacity:1"/><stop offset="1" style="stop-color:rgb(97,87,82);stop-opacity:1"/></radialGradient><linearGradient id="_Linear24" x1="0" y1="0" x2="1" y2="0" gradientUnits="userSpaceOnUse" gradientTransform="matrix(37.4812,96.7341,-202.248,78.3644,218.764,1199.13)"><stop offset="0" style="stop-color:rgb(109,74,58);stop-opacity:1"/><stop offset="0.11" style="stop-color:rgb(112,77,60);stop-opacity:1"/><stop offset="0.17" style="stop-color:rgb(133,93,71);stop-opacity:1"/><stop offset="0.64" style="stop-color:rgb(89,77,48);stop-opacity:1"/><stop offset="1" style="stop-color:rgb(140,95,75);stop-opacity:1"/></linearGradient><linearGradient id="_Linear25" x1="0" y1="0" x2="1" y2="0" gradientUnits="userSpaceOnUse" gradientTransform="matrix(37.4812,96.7341,-202.248,78.3644,218.764,1199.13)"><stop offset="0" style="stop-color:rgb(109,74,58);stop-opacity:1"/><stop offset="0.11" style="stop-color:rgb(112,77,60);stop-opacity:1"/><stop offset="0.17" style="stop-color:rgb(133,93,71);stop-opacity:1"/><stop offset="0.64" style="stop-color:rgb(89,77,48);stop-opacity:1"/><stop offset="1" style="stop-color:rgb(140,95,75);stop-opacity:1"/></linearGradient><radialGradient id="_Radial26" cx="0" cy="0" r="1" gradientUnits="userSpaceOnUse" gradientTransform="matrix(29.5872,10.2922,-12.142,35.5294,1531.01,1216.88)"><stop offset="0" style="stop-color:rgb(40,30,7);stop-opacity:1"/><stop offset="0.65" style="stop-color:rgb(86,62,5);stop-opacity:1"/><stop offset="1" style="stop-color:rgb(103,74,5);stop-opacity:1"/></radialGradient><linearGradient id="_Linear27" x1="0" y1="0" x2="1" y2="0" gradientUnits="userSpaceOnUse" gradientTransform="matrix(184.656,398.375,-398.375,184.656,375.953,1360.82)"><stop offset="0" style="stop-color:rgb(90,71,54);stop-opacity:1"/><stop offset="0.51" style="stop-color:rgb(135,113,56);stop-opacity:1"/><stop offset="1" style="stop-color:rgb(151,128,57);stop-opacity:1"/></linearGradient><linearGradient id="_Linear28" x1="0" y1="0" x2="1" y2="0" gradientUnits="userSpaceOnUse" gradientTransform="matrix(184.656,398.375,-398.375,184.656,375.953,1360.82)"><stop offset="0" style="stop-color:rgb(90,71,54);stop-opacity:1"/><stop offset="0.51" style="stop-color:rgb(135,113,56);stop-opacity:1"/><stop offset="1" style="stop-color:rgb(151,128,57);stop-opacity:1"/></linearGradient><linearGradient id="_Linear29" x1="0" y1="0" x2="1" y2="0" gradientUnits="userSpaceOnUse" gradientTransform="matrix(184.656,398.375,-398.375,184.656,375.953,1360.82)"><stop offset="0" style="stop-color:rgb(90,71,54);stop-opacity:1"/><stop offset="0.51" style="stop-color:rgb(135,113,56);stop-opacity:1"/><stop offset="1" style="stop-color:rgb(151,128,57);stop-opacity:1"/></linearGradient><linearGradient id="_Linear30" x1="0" y1="0" x2="1" y2="0" gradientUnits="userSpaceOnUse" gradientTransform="matrix(184.656,398.375,-398.375,184.656,375.953,1360.82)"><stop offset="0" style="stop-color:rgb(90,71,54);stop-opacity:1"/><stop offset="0.51" style="stop-color:rgb(135,113,56);stop-opacity:1"/><stop offset="1" style="stop-color:rgb(151,128,57);stop-opacity:1"/></linearGradient><linearGradient id="_Linear31" x1="0" y1="0" x2="1" y2="0" gradientUnits="userSpaceOnUse" gradientTransform="matrix(184.656,398.375,-398.375,184.656,375.953,1360.82)"><stop offset="0" style="stop-color:rgb(90,71,54);stop-opacity:1"/><stop offset="0.51" style="stop-color:rgb(135,113,56);stop-opacity:1"/><stop offset="1" style="stop-color:rgb(151,128,57);stop-opacity:1"/></linearGradient><linearGradient id="_Linear32" x1="0" y1="0" x2="1" y2="0" gradientUnits="userSpaceOnUse" gradientTransform="matrix(184.656,398.375,-398.375,184.656,375.953,1360.82)"><stop offset="0" style="stop-color:rgb(90,71,54);stop-opacity:1"/><stop offset="0.51" style="stop-color:rgb(135,113,56);stop-opacity:1"/><stop offset="1" style="stop-color:rgb(151,128,57);stop-opacity:1"/></linearGradient><linearGradient id="_Linear33" x1="0" y1="0" x2="1" y2="0" gradientUnits="userSpaceOnUse" gradientTransform="matrix(-125.569,-377.216,377.216,-125.569,549.019,1739.26)"><stop offset="0" style="stop-color:white;stop-opacity:1"/><stop offset="0.45" style="stop-color:rgb(178,167,129);stop-opacity:1"/><stop offset="1" style="stop-color:rgb(157,144,95);stop-opacity:1"/></linearGradient><linearGradient id="_Linear34" x1="0" y1="0" x2="1" y2="0" gradientUnits="userSpaceOnUse" gradientTransform="matrix(-125.569,-377.216,377.216,-125.569,549.019,1739.26)"><stop offset="0" style="stop-color:white;stop-opacity:1"/><stop offset="0.45" style="stop-color:rgb(178,167,129);stop-opacity:1"/><stop offset="1" style="stop-color:rgb(157,144,95);stop-opacity:1"/></linearGradient><linearGradient id="_Linear35" x1="0" y1="0" x2="1" y2="0" gradientUnits="userSpaceOnUse" gradientTransform="matrix(-125.569,-377.216,377.216,-125.569,549.019,1739.26)"><stop offset="0" style="stop-color:white;stop-opacity:1"/><stop offset="0.45" style="stop-color:rgb(178,167,129);stop-opacity:1"/><stop offset="1" style="stop-color:rgb(157,144,95);stop-opacity:1"/></linearGradient><linearGradient id="_Linear36" x1="0" y1="0" x2="1" y2="0" gradientUnits="userSpaceOnUse" gradientTransform="matrix(-125.569,-377.216,377.216,-125.569,549.019,1739.26)"><stop offset="0" style="stop-color:white;stop-opacity:1"/><stop offset="0.45" style="stop-color:rgb(178,167,129);stop-opacity:1"/><stop offset="1" style="stop-color:rgb(157,144,95);stop-opacity:1"/></linearGradient><linearGradient id="_Linear37" x1="0" y1="0" x2="1" y2="0" gradientUnits="userSpaceOnUse" gradientTransform="matrix(-125.569,-377.216,377.216,-125.569,549.019,1739.26)"><stop offset="0" style="stop-color:white;stop-opacity:1"/><stop offset="0.45" style="stop-color:rgb(178,167,129);stop-opacity:1"/><stop offset="1" style="stop-color:rgb(157,144,95);stop-opacity:1"/></linearGradient><linearGradient id="_Linear38" x1="0" y1="0" x2="1" y2="0" gradientUnits="userSpaceOnUse" gradientTransform="matrix(-125.569,-377.216,377.216,-125.569,549.019,1739.26)"><stop offset="0" style="stop-color:white;stop-opacity:1"/><stop offset="0.45" style="stop-color:rgb(178,167,129);stop-opacity:1"/><stop offset="1" style="stop-color:rgb(157,144,95);stop-opacity:1"/></linearGradient><linearGradient id="_Linear39" x1="0" y1="0" x2="1" y2="0" gradientUnits="userSpaceOnUse" gradientTransform="matrix(-125.569,-377.216,377.216,-125.569,549.019,1739.26)"><stop offset="0" style="stop-color:white;stop-opacity:1"/><stop offset="0.45" style="stop-color:rgb(178,167,129);stop-opacity:1"/><stop offset="1" style="stop-color:rgb(157,144,95);stop-opacity:1"/></linearGradient><linearGradient id="_Linear40" x1="0" y1="0" x2="1" y2="0" gradientUnits="userSpaceOnUse" gradientTransform="matrix(-125.569,-377.216,377.216,-125.569,549.019,1739.26)"><stop offset="0" style="stop-color:white;stop-opacity:1"/><stop offset="0.45" style="stop-color:rgb(178,167,129);stop-opacity:1"/><stop offset="1" style="stop-color:rgb(157,144,95);stop-opacity:1"/></linearGradient><linearGradient id="_Linear41" x1="0" y1="0" x2="1" y2="0" gradientUnits="userSpaceOnUse" gradientTransform="matrix(-125.569,-377.216,377.216,-125.569,549.019,1739.26)"><stop offset="0" style="stop-color:white;stop-opacity:1"/><stop offset="0.45" style="stop-color:rgb(178,167,129);stop-opacity:1"/><stop offset="1" style="stop-color:rgb(157,144,95);stop-opacity:1"/></linearGradient><linearGradient id="_Linear42" x1="0" y1="0" x2="1" y2="0" gradientUnits="userSpaceOnUse" gradientTransform="matrix(-125.569,-377.216,377.216,-125.569,549.019,1739.26)"><stop offset="0" style="stop-color:white;stop-opacity:1"/><stop offset="0.45" style="stop-color:rgb(178,167,129);stop-opacity:1"/><stop offset="1" style="stop-color:rgb(157,144,95);stop-opacity:1"/></linearGradient><linearGradient id="_Linear43" x1="0" y1="0" x2="1" y2="0" gradientUnits="userSpaceOnUse" gradientTransform="matrix(-125.569,-377.216,377.216,-125.569,549.019,1739.26)"><stop offset="0" style="stop-color:white;stop-opacity:1"/><stop offset="0.45" style="stop-color:rgb(178,167,129);stop-opacity:1"/><stop offset="1" style="stop-color:rgb(157,144,95);stop-opacity:1"/></linearGradient><linearGradient id="_Linear44" x1="0" y1="0" x2="1" y2="0" gradientUnits="userSpaceOnUse" gradientTransform="matrix(-125.569,-377.216,377.216,-125.569,549.019,1739.26)"><stop offset="0" style="stop-color:white;stop-opacity:1"/><stop offset="0.45" style="stop-color:rgb(178,167,129);stop-opacity:1"/><stop offset="1" style="stop-color:rgb(157,144,95);stop-opacity:1"/></linearGradient></defs></svg>