<?xml version="1.0" encoding="UTF-8" standalone="no"?><!DOCTYPE svg PUBLIC "-//W3C//DTD SVG 1.1//EN" "http://www.w3.org/Graphics/SVG/1.1/DTD/svg11.dtd"><svg width="2061px" height="1946px" version="1.1" xmlns="http://www.w3.org/2000/svg" xmlns:xlink="http://www.w3.org/1999/xlink" xml:space="preserve" xmlns:serif="http://www.serif.com/" style="fill-rule:evenodd;clip-rule:evenodd;stroke-linecap:round;stroke-linejoin:round;stroke-miterlimit:1.5;"><g id="TOP"><g><g><path d="M452.457,1463.6C454.763,1462.45 458.509,1462.45 460.816,1463.6C463.122,1464.76 463.122,1466.63 460.816,1467.78C458.509,1468.93 454.763,1468.93 452.457,1467.78C450.15,1466.63 450.15,1464.76 452.457,1463.6Z" style="fill:rgb(90,71,54);"/><path d="M482.38,1496.82C484.687,1495.66 488.432,1495.66 490.739,1496.82C493.046,1497.97 493.046,1499.84 490.739,1500.99C488.432,1502.15 484.687,1502.15 482.38,1500.99C480.073,1499.84 480.073,1497.97 482.38,1496.82Z" style="fill:rgb(90,71,54);"/><path d="M510.931,1516.27C513.238,1515.11 516.984,1515.11 519.29,1516.27C521.597,1517.42 521.597,1519.29 519.29,1520.45C516.984,1521.6 513.238,1521.6 510.931,1520.45C508.625,1519.29 508.625,1517.42 510.931,1516.27Z" style="fill:rgb(90,71,54);"/><path d="M453.556,1544.95C455.863,1543.8 459.609,1543.8 461.915,1544.95C464.222,1546.11 464.222,1547.98 461.915,1549.13C459.609,1550.29 455.863,1550.29 453.556,1549.13C451.25,1547.98 451.25,1546.11 453.556,1544.95Z" style="fill:rgb(90,71,54);"/><path d="M482.654,1560.65C484.961,1559.5 488.707,1559.5 491.013,1560.65C493.32,1561.8 493.32,1563.68 491.013,1564.83C488.707,1565.98 484.961,1565.98 482.654,1564.83C480.348,1563.68 480.348,1561.8 482.654,1560.65Z" style="fill:rgb(90,71,54);"/><path d="M511.093,1573.72C513.399,1572.57 517.145,1572.57 519.451,1573.72C521.758,1574.88 521.758,1576.75 519.451,1577.9C517.145,1579.06 513.399,1579.06 511.093,1577.9C508.786,1576.75 508.786,1574.88 511.093,1573.72Z" style="fill:rgb(90,71,54);"/><path d="M539.271,1588.96C541.578,1587.81 545.324,1587.81 547.63,1588.96C549.937,1590.11 549.937,1591.98 547.63,1593.14C545.324,1594.29 541.578,1594.29 539.271,1593.14C536.965,1591.98 536.965,1590.11 539.271,1588.96Z" style="fill:rgb(94,74,53);"/><path d="M568.316,1603.48C570.623,1602.33 574.368,1602.33 576.675,1603.48C578.982,1604.63 578.982,1606.51 576.675,1607.66C574.368,1608.81 570.623,1608.81 568.316,1607.66C566.01,1606.51 566.01,1604.63 568.316,1603.48Z" style="fill:rgb(94,75,51);"/></g><g><path d="M457.621,1545.74L455.636,1372.69" style="fill:none;stroke:url(#_Linear1);stroke-width:10px;"/><path d="M515.191,1574.19L515.028,1459.79" style="fill:none;stroke:url(#_Linear2);stroke-width:10px;"/><path d="M572.434,1603.14L572.353,1545.61" style="fill:none;stroke:url(#_Linear3);stroke-width:10px;"/><path d="M486.569,1560.21L486.569,1416.78" style="fill:none;stroke:url(#_Linear4);stroke-width:10px;"/><path d="M543.486,1588.67L543.649,1502.72" style="fill:none;stroke:url(#_Linear5);stroke-width:10px;"/></g><g opacity="0.16"><path d="M459.103,1546.15L458.111,1470.07" style="fill:none;stroke:url(#_Linear6);stroke-width:3px;"/><path d="M458.111,1465.2L457.119,1373.1" style="fill:none;stroke:url(#_Linear7);stroke-width:3px;"/><path d="M516.674,1574.61L516.51,1522.04" style="fill:none;stroke:url(#_Linear8);stroke-width:3px;"/><path d="M516.51,1517.37L516.51,1460.2" style="fill:none;stroke:url(#_Linear9);stroke-width:3px;"/><path d="M573.917,1603.56L573.835,1546.03" style="fill:none;stroke:url(#_Linear10);stroke-width:3px;"/><path d="M487.723,1497.81L488.052,1417.19" style="fill:none;stroke:url(#_Linear11);stroke-width:3px;"/><path d="M488.052,1560.62L487.723,1503.37" style="fill:none;stroke:url(#_Linear12);stroke-width:3px;"/><path d="M544.968,1589.08L545.132,1503.14" style="fill:none;stroke:url(#_Linear13);stroke-width:3px;"/></g></g><g id="屋根"><path d="M622.117,1636.7L848.289,1522.13L861.293,1544.25L635.584,1657.23L622.117,1636.7Z" style="fill:rgb(167,119,66);stroke:rgb(119,100,64);stroke-width:4px;"/><path d="M1030.38,1831.79L2060.76,1316.97L2012.88,1235.54C1990.1,1163.7 1948.88,1106.19 1904.47,1051.18C1876.98,974.74 1832.53,912.912 1788.9,854.632C1766.88,794.852 1731.61,736.396 1685.63,679.011C1667.97,622.489 1634.46,568.849 1590.44,517.118C1571.12,455.218 1534,398.175 1488.33,343.463L228.438,972.872L619.316,1636.62L848.244,1522.15L471.56,881.794L1176.99,531.256C1316.88,604.872 1458.41,676.364 1602.81,744.167C1601.11,851.236 1602.01,957.933 1604.16,1064.45C1598.68,1075.03 1243.9,1219.21 1147.92,1305.11L1031.44,1242.32L915.852,1202.13L874.353,1182.21L905.235,1207.44L718.145,1300.99L848.244,1522.15L858.616,1516.93L1030.3,1602.86L1030.38,1831.79ZM1617.95,1123.48L1189.24,1338.65L1185.88,1553.69L1614.91,1339.17L1617.95,1123.48Z" style="fill:url(#_Linear14);"/><path d="M1488.33,343.463L2060.76,1316.97L2012.88,1235.54C1990.1,1163.7 1948.88,1106.19 1904.47,1051.18C1876.98,974.74 1832.53,912.912 1788.9,854.632C1766.88,794.852 1731.61,736.396 1685.63,679.011C1667.97,622.489 1634.46,568.849 1590.44,517.118C1571.12,455.218 1534,398.175 1488.33,343.463Z" style="fill:rgb(175,133,71);"/><path d="M148.703,1037.64L161.53,1025.44L284.297,1085.1L296.471,1108.34L148.703,1037.64Z" style="fill:rgb(71,55,39);stroke:rgb(60,45,33);stroke-width:2px;stroke-linecap:butt;"/><path d="M109.668,1057.54L139.282,1033.13L300.858,1110.54L337.225,1167.69L109.668,1057.54Z" style="fill:rgb(94,80,52);stroke:rgb(60,45,33);stroke-width:2px;stroke-linecap:butt;"/><path d="M0.001,1131.9L190.386,997.788" style="fill:none;stroke:rgb(130,114,83);stroke-width:20px;stroke-linecap:butt;"/><path d="M228.438,972.872L801.78,1946.46" style="fill:none;stroke:rgb(130,114,83);stroke-width:20px;stroke-linecap:butt;"/><path d="M257.169,991.169L1509.12,367.837" style="fill:none;stroke:black;stroke-opacity:0.31;stroke-width:3px;"/><path d="M1495.82,323.411C1491,319.106 1466.86,321.594 1466.86,321.594L198.955,958.13C181.914,971.012 171.951,987.513 190.386,997.788L225.39,1004.36L1502.93,368.29C1519.3,351.564 1527.06,351.281 1495.82,323.411Z" style="fill:url(#_Linear15);stroke:rgb(76,58,31);stroke-width:1px;"/></g><g id="窓"><path d="M1185.07,1562.72L1579.06,1365.11" style="fill:none;stroke:rgb(117,91,61);stroke-width:4px;stroke-linecap:butt;"/><path d="M1185.07,1588.81L1605.65,1378.41" style="fill:none;stroke:rgb(117,91,61);stroke-width:4px;stroke-linecap:butt;"/><path d="M1592.19,1371.68L1185.07,1575.27" style="fill:none;stroke:rgb(117,91,61);stroke-width:4px;stroke-linecap:butt;"/><path d="M1620.26,1385.71L1185.07,1601.89" style="fill:none;stroke:rgb(117,91,61);stroke-width:4px;stroke-linecap:butt;"/><path d="M1629.88,1389.68L1572.02,1360.75L1572.02,1146.93L1630.72,1114.9L1629.88,1389.68Z" style="fill:rgb(111,99,63);"/><path d="M1790.46,1036.3L1630.72,1114.9L1630.72,1389.27L1789.4,1309.93L1790.46,1036.3Z" style="fill:rgb(126,106,66);"/><path d="M1645.5,1365.2L1774.94,1303.85L1774.51,1058.44L1645.21,1122.37L1645.5,1365.2Z" style="fill:url(#_Linear16);stroke:rgb(113,92,59);stroke-opacity:0.25;stroke-width:2px;stroke-linecap:butt;"/><path d="M1645.5,1365.2L1774.94,1303.85L1774.94,1058.65" style="fill:none;stroke:rgb(91,59,18);stroke-width:2px;stroke-linecap:butt;"/><path d="M1630.81,1115.78L1630.81,1390.99" style="fill:none;stroke:rgb(84,65,44);stroke-width:2px;stroke-linecap:butt;"/><path d="M1615.46,1126.33L1615.74,1383.45" style="fill:none;stroke:rgb(84,65,44);stroke-width:2px;stroke-linecap:butt;"/><path d="M1601.37,1133.37L1600.91,1375.2" style="fill:none;stroke:rgb(84,65,44);stroke-width:2px;stroke-linecap:butt;"/><path d="M1587.53,1140.29L1586.03,1367.76" style="fill:none;stroke:rgb(84,65,44);stroke-width:2px;stroke-linecap:butt;"/><path d="M1572.02,1148.05L1572.02,1360.75" style="fill:none;stroke:rgb(84,65,44);stroke-width:2px;stroke-linecap:butt;"/><path d="M1570.18,1359.83L1630.81,1390.99" style="fill:none;stroke:black;stroke-width:2px;stroke-linecap:butt;"/><path d="M1144.87,1660.06L1144.6,1316.73C1092.99,1308.93 946.95,1247.85 870.1,1179.22L1144.87,1660.06Z" style="fill:url(#_Linear17);"/></g><g style="filter:url(#_Effect18);"><g id="窓から入る光"><path d="M715.469,1677.78L1026.95,1833.87L800.289,1945.72L493.492,1791.99L650.586,1710.73L784.792,1937.97L810.308,1942.19L667.545,1701.96L715.469,1677.78Z" style="fill:rgb(255,238,167);fill-opacity:0.27;"/></g></g><g style="filter:url(#_Effect19);"><g id="窓から入る光1" serif:id="窓から入る光"><path d="M1336.82,1335.11L1471.69,1409.92L1186.2,1553.53L1189.17,1408.82L1336.82,1335.11Z" style="fill:rgb(255,238,167);fill-opacity:0.27;"/></g></g><path d="M719.74,1676.47L830.11,1567.73L830.177,1561.48L844.355,1553.61L844.355,1738.78L719.74,1676.47Z" style="fill:rgb(202,95,60);fill-opacity:0.22;"/><g id="風鈴"><path d="M1237.49,1368C1238.53,1384.41 1241.17,1397.05 1245.34,1406.09L1235.82,1411.35C1231.83,1402.68 1229.24,1389.9 1227.97,1373.25L1237.49,1368Z" style="fill:url(#_Linear20);stroke:rgb(99,99,99);stroke-width:1px;"/><path d="M1232.2,1355.12C1232.17,1361.78 1231.64,1367.85 1232.94,1371.53" style="fill:none;stroke:rgb(55,55,55);stroke-width:1px;"/><path d="M1231.82,1342.82L1232.2,1357.35" style="fill:none;stroke:rgb(42,42,42);stroke-width:3px;"/><path d="M1232.08,1332.23C1238.47,1332.42 1242.77,1336.59 1245.83,1343.45C1248.36,1349.11 1239.54,1351.8 1231.95,1351.8C1224.36,1351.8 1216.77,1349.45 1218.33,1343.45C1220.22,1336.18 1225.2,1332.03 1232.08,1332.23Z" style="fill:rgb(21,46,58);stroke:black;stroke-width:1px;"/><path d="M1232.2,1308.65L1232.2,1334.01" style="fill:none;stroke:black;stroke-width:1px;"/></g><path d="M1831.79,1316.6L1831.79,973.14C1825.27,978.184 1820.03,984.774 1817.48,994.606C1807.94,1004.28 1798.4,1008.01 1788.86,1008.92C1780.01,1009.22 1770.8,1013.7 1761.17,1022.76C1751.32,1031.83 1741.47,1037.23 1731.61,1037.54C1723.66,1037.22 1714.92,1039.41 1702.99,1051.85C1693.45,1061.24 1683.91,1066.31 1674.37,1066.16C1666.16,1065.58 1656.34,1071.48 1645.75,1080.47C1634.2,1090.86 1624.69,1095.54 1617.12,1094.78C1608.85,1093.63 1599.16,1099.1 1588.5,1109.09C1577.65,1122.07 1568.32,1125.54 1559.88,1123.4C1550.74,1123.91 1541.22,1128.45 1531.26,1137.71C1521.29,1146.91 1511.83,1150.81 1502.64,1152.03C1493.1,1150.75 1483.56,1155.69 1474.02,1166.34C1464.48,1176.99 1454.94,1180.36 1445.39,1180.65C1434.52,1181.88 1425.24,1187.35 1416.77,1194.96C1405.31,1204.75 1395.64,1209.84 1388.15,1209.27C1379.95,1212.03 1370.56,1216.57 1359.53,1223.58C1349.99,1232.83 1340.45,1236.41 1330.91,1237.89C1321.71,1236.68 1312.18,1241.4 1302.29,1252.2C1292.75,1261.54 1283.21,1265.64 1273.66,1266.51C1265.2,1265.18 1255.62,1270.14 1245.04,1280.82C1236.74,1288.86 1226.86,1292.74 1216.42,1295.13C1207.25,1296.32 1197.7,1301.18 1187.8,1309.44C1166.77,1317.04 1152.92,1319.04 1144.6,1316.73L1144.87,1660.06L1831.79,1316.6ZM1184.8,1611.18L1189.45,1339.63L1791.82,1036.14L1790.41,1310.42L1184.8,1611.18Z" style="fill:rgb(107,72,31);stroke:rgb(71,59,37);stroke-width:1px;"/><g id="室内暗さ"><path d="M0.001,1545.57L0.001,1131.9L196.816,988.683L196.816,1019.33L264.218,985.027C316.964,1061.32 345.625,1092.57 375.989,1160.6C441.106,1242.81 442.618,1259.02 481.066,1336.2C514.85,1364.87 540.339,1431.76 571.022,1490.08C600.949,1546.96 633.567,1593.96 638.713,1620.47C671.988,1596.35 847.406,1527.43 844.371,1513.69C845.748,1515.2 858.724,1545.66 858.724,1545.66L844.915,1552.56L829.16,1561.21L829.16,1568.16L719.737,1676.47L669.153,1702.63C612.991,1596.76 615.406,1614.16 655.062,1709.92L494.652,1792.9L801.45,1946.62L801.411,1946.28L0.001,1545.57Z" style="fill-opacity:0.3;"/><path d="M1188.27,1338.79L1570.71,1145.26L1569.56,1358.37L1472.46,1410.4L1337.09,1335.99L1239.45,1384.55L1237.49,1368L1233.19,1370.46C1232.48,1370.48 1232.6,1359.09 1232.69,1358.55L1233.15,1357.8L1232.94,1352.04C1254.92,1351.59 1243.74,1335.23 1237.14,1334.15C1231.31,1333.2 1225.57,1343.34 1222.46,1345.44C1221.36,1346.18 1218.93,1345.89 1218.87,1346.82C1220.61,1349.69 1227.32,1352.71 1231.51,1352.25L1231.66,1359.07C1231.62,1363.23 1231.65,1367.36 1232.2,1371.3L1227.97,1373.62L1230.02,1389.23L1187.51,1410.38L1188.27,1338.79Z" style="fill-opacity:0.3;"/></g><g id="はしご影"><path d="M713.377,1236.83L840.939,1557.66" style="fill:none;stroke:black;stroke-opacity:0.22;stroke-width:4px;"/><path d="M876.407,1539.92L747.853,1216.6" style="fill:none;stroke:black;stroke-opacity:0.22;stroke-width:4px;"/><path d="M726.81,1270.61L761.286,1250.38" style="fill:none;stroke:black;stroke-opacity:0.22;stroke-width:4px;"/><path d="M740.243,1304.4L774.72,1284.17" style="fill:none;stroke:black;stroke-opacity:0.22;stroke-width:4px;"/><path d="M753.677,1338.19L788.153,1317.96" style="fill:none;stroke:black;stroke-opacity:0.22;stroke-width:4px;"/><path d="M767.11,1371.97L801.587,1351.75" style="fill:none;stroke:black;stroke-opacity:0.22;stroke-width:4px;"/><path d="M780.544,1405.76L815.02,1385.53" style="fill:none;stroke:black;stroke-opacity:0.22;stroke-width:4px;"/><path d="M793.977,1439.55L828.454,1419.32" style="fill:none;stroke:black;stroke-opacity:0.22;stroke-width:4px;"/><path d="M807.411,1473.33L841.887,1453.11" style="fill:none;stroke:black;stroke-opacity:0.22;stroke-width:4px;"/><path d="M820.844,1507.12L855.321,1486.89" style="fill:none;stroke:black;stroke-opacity:0.22;stroke-width:4px;"/><path d="M834.278,1540.91L868.303,1519.54" style="fill:none;stroke:black;stroke-opacity:0.22;stroke-width:4px;"/></g><g id="はしご"><path d="M716.596,1237.41L957.497,1843.3" style="fill:none;stroke:rgb(151,138,113);stroke-width:4px;"/><path d="M991.973,1823.07L751.073,1217.18" style="fill:none;stroke:rgb(151,138,113);stroke-width:4px;"/><path d="M730.03,1271.19L764.506,1250.96" style="fill:none;stroke:rgb(151,138,113);stroke-width:4px;"/><path d="M743.463,1304.98L777.94,1284.75" style="fill:none;stroke:rgb(151,138,113);stroke-width:4px;"/><path d="M756.897,1338.77L791.373,1318.54" style="fill:none;stroke:rgb(151,138,113);stroke-width:4px;"/><path d="M770.33,1372.55L804.807,1352.33" style="fill:none;stroke:rgb(151,138,113);stroke-width:4px;"/><path d="M783.764,1406.34L818.24,1386.11" style="fill:none;stroke:rgb(151,138,113);stroke-width:4px;"/><path d="M797.197,1440.13L831.673,1419.9" style="fill:none;stroke:rgb(151,138,113);stroke-width:4px;"/><path d="M810.631,1473.91L845.107,1453.68" style="fill:none;stroke:rgb(151,138,113);stroke-width:4px;"/><path d="M824.064,1507.7L858.54,1487.47" style="fill:none;stroke:rgb(151,138,113);stroke-width:4px;"/><path d="M837.497,1541.49L871.523,1520.12" style="fill:none;stroke:rgb(151,138,113);stroke-width:4px;"/><path d="M850.931,1575.27L885.407,1555.05" style="fill:none;stroke:rgb(151,138,113);stroke-width:4px;"/><path d="M864.364,1609.06L898.841,1588.83" style="fill:none;stroke:rgb(151,138,113);stroke-width:4px;"/><path d="M877.798,1642.85L912.274,1622.62" style="fill:none;stroke:rgb(151,138,113);stroke-width:4px;"/><path d="M891.231,1676.63L925.708,1656.4" style="fill:none;stroke:rgb(151,138,113);stroke-width:4px;"/><path d="M904.665,1710.42L939.141,1690.19" style="fill:none;stroke:rgb(151,138,113);stroke-width:4px;"/><path d="M918.098,1744.21L952.575,1723.98" style="fill:none;stroke:rgb(151,138,113);stroke-width:4px;"/><path d="M931.532,1777.99L966.008,1757.77" style="fill:none;stroke:rgb(151,138,113);stroke-width:4px;"/><path d="M944.239,1809.96L978.715,1789.73" style="fill:none;stroke:rgb(151,138,113);stroke-width:4px;"/><path d="M713.377,1246.13C725.264,1248.32 725.912,1246.84 723.709,1240.96" style="fill:none;stroke:rgb(112,86,37);stroke-width:4px;"/><path d="M748.005,1225.98C759.892,1228.17 760.54,1226.69 758.337,1220.81" style="fill:none;stroke:rgb(112,86,37);stroke-width:4px;"/></g><path id="窓屋根" d="M1601.71,873.484L1602.92,1064C1680.74,1033.68 1747.26,979.991 1803.9,967.566C1806.99,966.887 1829,973.439 1832.03,973.017L1803.88,961.883L1601.71,873.484Z" style="fill:url(#_Linear21);"/><path id="屋根に当たる光" d="M1030.75,1831.98L801.777,1946.46L494.652,1792.9L654.187,1710.38L619.316,1636.62L627.303,1633.7L669.208,1702.61L719.737,1676.47L844.515,1738.86L1030.75,1831.98ZM1030.69,1831.64L844.515,1738.86L844.915,1554.11L640.146,1654.82L627.303,1633.7L619.316,1636.62L220.39,993.359C181.145,1003.02 200.485,987.175 210.576,963.941L1496.98,320.476C1520.34,335.4 1516.48,344.913 1503.15,367.992L2060.76,1316.3L1030.69,1831.64ZM1189.98,1340L1188.82,1409.35L1230.34,1388.53L1227.82,1372.87L1232.2,1370.4C1231.82,1366.47 1231.84,1360 1231.34,1351.75C1225.64,1351.44 1220.53,1348.96 1218.8,1346.98C1219.74,1345.76 1222.12,1345.94 1222.95,1344.92C1230.42,1335.82 1233.85,1334.64 1237.86,1333.72C1241.99,1336.94 1244.61,1340.89 1245.94,1345.12C1245.11,1349.21 1241.65,1351.5 1232.93,1351.78L1233.11,1358.35L1232.47,1358.66C1232.46,1362.94 1232.62,1367.43 1233.09,1370.2L1237.49,1368L1239.6,1383.72L1336.82,1335.11L1470.82,1408.38L1188.19,1549.88L1470.82,1408.38L1569.76,1360.04L1572.02,1147.93L1189.98,1340Z" style="fill:rgb(247,46,0);fill-opacity:0.18;"/><path d="M629.678,1674.37L628.743,1859.94L787.103,1939.45L629.678,1674.37Z" style="fill:url(#_Linear22);stroke:rgb(107,94,69);stroke-width:1px;stroke-linecap:butt;"/></g><defs><linearGradient id="_Linear1" x1="0" y1="0" x2="1" y2="0" gradientUnits="userSpaceOnUse" gradientTransform="matrix(184.656,398.375,-398.375,184.656,375.586,1361.28)"><stop offset="0" style="stop-color:rgb(90,71,54);stop-opacity:1"/><stop offset="0.65" style="stop-color:rgb(93,75,53);stop-opacity:1"/><stop offset="1" style="stop-color:rgb(113,97,45);stop-opacity:1"/></linearGradient><linearGradient id="_Linear2" x1="0" y1="0" x2="1" y2="0" gradientUnits="userSpaceOnUse" gradientTransform="matrix(184.656,398.375,-398.375,184.656,375.586,1361.28)"><stop offset="0" style="stop-color:rgb(90,71,54);stop-opacity:1"/><stop offset="0.65" style="stop-color:rgb(93,75,53);stop-opacity:1"/><stop offset="1" style="stop-color:rgb(113,97,45);stop-opacity:1"/></linearGradient><linearGradient id="_Linear3" x1="0" y1="0" x2="1" y2="0" gradientUnits="userSpaceOnUse" gradientTransform="matrix(184.656,398.375,-398.375,184.656,375.586,1361.28)"><stop offset="0" style="stop-color:rgb(90,71,54);stop-opacity:1"/><stop offset="0.65" style="stop-color:rgb(93,75,53);stop-opacity:1"/><stop offset="1" style="stop-color:rgb(113,97,45);stop-opacity:1"/></linearGradient><linearGradient id="_Linear4" x1="0" y1="0" x2="1" y2="0" gradientUnits="userSpaceOnUse" gradientTransform="matrix(184.656,398.375,-398.375,184.656,375.586,1361.28)"><stop offset="0" style="stop-color:rgb(90,71,54);stop-opacity:1"/><stop offset="0.65" style="stop-color:rgb(93,75,53);stop-opacity:1"/><stop offset="1" style="stop-color:rgb(113,97,45);stop-opacity:1"/></linearGradient><linearGradient id="_Linear5" x1="0" y1="0" x2="1" y2="0" gradientUnits="userSpaceOnUse" gradientTransform="matrix(184.656,398.375,-398.375,184.656,375.586,1361.28)"><stop offset="0" style="stop-color:rgb(90,71,54);stop-opacity:1"/><stop offset="0.65" style="stop-color:rgb(93,75,53);stop-opacity:1"/><stop offset="1" style="stop-color:rgb(113,97,45);stop-opacity:1"/></linearGradient><linearGradient id="_Linear6" x1="0" y1="0" x2="1" y2="0" gradientUnits="userSpaceOnUse" gradientTransform="matrix(-125.569,-377.216,377.216,-125.569,548.653,1739.72)"><stop offset="0" style="stop-color:white;stop-opacity:1"/><stop offset="0.45" style="stop-color:rgb(178,167,129);stop-opacity:1"/><stop offset="1" style="stop-color:rgb(157,144,95);stop-opacity:1"/></linearGradient><linearGradient id="_Linear7" x1="0" y1="0" x2="1" y2="0" gradientUnits="userSpaceOnUse" gradientTransform="matrix(-125.569,-377.216,377.216,-125.569,548.653,1739.72)"><stop offset="0" style="stop-color:white;stop-opacity:1"/><stop offset="0.45" style="stop-color:rgb(178,167,129);stop-opacity:1"/><stop offset="1" style="stop-color:rgb(157,144,95);stop-opacity:1"/></linearGradient><linearGradient id="_Linear8" x1="0" y1="0" x2="1" y2="0" gradientUnits="userSpaceOnUse" gradientTransform="matrix(-125.569,-377.216,377.216,-125.569,548.653,1739.72)"><stop offset="0" style="stop-color:white;stop-opacity:1"/><stop offset="0.45" style="stop-color:rgb(178,167,129);stop-opacity:1"/><stop offset="1" style="stop-color:rgb(157,144,95);stop-opacity:1"/></linearGradient><linearGradient id="_Linear9" x1="0" y1="0" x2="1" y2="0" gradientUnits="userSpaceOnUse" gradientTransform="matrix(-125.569,-377.216,377.216,-125.569,548.653,1739.72)"><stop offset="0" style="stop-color:white;stop-opacity:1"/><stop offset="0.45" style="stop-color:rgb(178,167,129);stop-opacity:1"/><stop offset="1" style="stop-color:rgb(157,144,95);stop-opacity:1"/></linearGradient><linearGradient id="_Linear10" x1="0" y1="0" x2="1" y2="0" gradientUnits="userSpaceOnUse" gradientTransform="matrix(-125.569,-377.216,377.216,-125.569,548.653,1739.72)"><stop offset="0" style="stop-color:white;stop-opacity:1"/><stop offset="0.45" style="stop-color:rgb(178,167,129);stop-opacity:1"/><stop offset="1" style="stop-color:rgb(157,144,95);stop-opacity:1"/></linearGradient><linearGradient id="_Linear11" x1="0" y1="0" x2="1" y2="0" gradientUnits="userSpaceOnUse" gradientTransform="matrix(-125.569,-377.216,377.216,-125.569,548.653,1739.72)"><stop offset="0" style="stop-color:white;stop-opacity:1"/><stop offset="0.45" style="stop-color:rgb(178,167,129);stop-opacity:1"/><stop offset="1" style="stop-color:rgb(157,144,95);stop-opacity:1"/></linearGradient><linearGradient id="_Linear12" x1="0" y1="0" x2="1" y2="0" gradientUnits="userSpaceOnUse" gradientTransform="matrix(-125.569,-377.216,377.216,-125.569,548.653,1739.72)"><stop offset="0" style="stop-color:white;stop-opacity:1"/><stop offset="0.45" style="stop-color:rgb(178,167,129);stop-opacity:1"/><stop offset="1" style="stop-color:rgb(157,144,95);stop-opacity:1"/></linearGradient><linearGradient id="_Linear13" x1="0" y1="0" x2="1" y2="0" gradientUnits="userSpaceOnUse" gradientTransform="matrix(-125.569,-377.216,377.216,-125.569,548.653,1739.72)"><stop offset="0" style="stop-color:white;stop-opacity:1"/><stop offset="0.45" style="stop-color:rgb(178,167,129);stop-opacity:1"/><stop offset="1" style="stop-color:rgb(157,144,95);stop-opacity:1"/></linearGradient><linearGradient id="_Linear14" x1="0" y1="0" x2="1" y2="0" gradientUnits="userSpaceOnUse" gradientTransform="matrix(1243.29,-637.677,517.96,1009.87,531.388,1451.53)"><stop offset="0" style="stop-color:rgb(171,134,79);stop-opacity:1"/><stop offset="0.14" style="stop-color:rgb(132,105,64);stop-opacity:1"/><stop offset="0.35" style="stop-color:rgb(165,133,85);stop-opacity:1"/><stop offset="0.46" style="stop-color:rgb(140,114,74);stop-opacity:1"/><stop offset="0.6" style="stop-color:rgb(159,132,90);stop-opacity:1"/><stop offset="0.71" style="stop-color:rgb(149,124,85);stop-opacity:1"/><stop offset="0.79" style="stop-color:rgb(157,132,92);stop-opacity:1"/><stop offset="0.91" style="stop-color:rgb(137,115,80);stop-opacity:1"/><stop offset="1" style="stop-color:rgb(153,131,96);stop-opacity:1"/></linearGradient><linearGradient id="_Linear15" x1="0" y1="0" x2="1" y2="0" gradientUnits="userSpaceOnUse" gradientTransform="matrix(25.8913,51.7827,-51.7827,25.8913,671.693,719.178)"><stop offset="0" style="stop-color:rgb(141,104,59);stop-opacity:1"/><stop offset="0.1" style="stop-color:rgb(144,99,47);stop-opacity:1"/><stop offset="0.11" style="stop-color:rgb(140,97,47);stop-opacity:1"/><stop offset="0.11" style="stop-color:rgb(125,89,46);stop-opacity:1"/><stop offset="0.3" style="stop-color:rgb(133,96,43);stop-opacity:1"/><stop offset="0.55" style="stop-color:rgb(151,112,37);stop-opacity:1"/><stop offset="1" style="stop-color:rgb(124,107,26);stop-opacity:1"/></linearGradient><linearGradient id="_Linear16" x1="0" y1="0" x2="1" y2="0" gradientUnits="userSpaceOnUse" gradientTransform="matrix(129.732,0,0,306.76,1645.21,1211.82)"><stop offset="0" style="stop-color:rgb(134,110,69);stop-opacity:0.25"/><stop offset="0.54" style="stop-color:rgb(103,74,36);stop-opacity:0.25"/><stop offset="1" style="stop-color:rgb(133,88,35);stop-opacity:0.25"/></linearGradient><linearGradient id="_Linear17" x1="0" y1="0" x2="1" y2="0" gradientUnits="userSpaceOnUse" gradientTransform="matrix(221.768,-13,22.75,388.094,923.1,1432.64)"><stop offset="0" style="stop-color:rgb(123,78,21);stop-opacity:1"/><stop offset="0.22" style="stop-color:rgb(94,60,18);stop-opacity:1"/><stop offset="0.53" style="stop-color:rgb(103,68,24);stop-opacity:1"/><stop offset="0.75" style="stop-color:rgb(91,64,33);stop-opacity:1"/><stop offset="1" style="stop-color:rgb(95,63,26);stop-opacity:1"/></linearGradient><filter id="_Effect18" filterUnits="userSpaceOnUse" x="469.492" y="1653.78" width="581.459" height="315.937"><feGaussianBlur in="SourceGraphic" stdDeviation="4"/></filter><filter id="_Effect19" filterUnits="userSpaceOnUse" x="1162.2" y="1311.11" width="333.493" height="266.417"><feGaussianBlur in="SourceGraphic" stdDeviation="4"/></filter><linearGradient id="_Linear20" x1="0" y1="0" x2="1" y2="0" gradientUnits="userSpaceOnUse" gradientTransform="matrix(-8.12932,-36.0453,36.0453,-8.12932,1240.33,1406.72)"><stop offset="0" style="stop-color:rgb(154,170,174);stop-opacity:1"/><stop offset="1" style="stop-color:rgb(68,131,143);stop-opacity:1"/></linearGradient><linearGradient id="_Linear21" x1="0" y1="0" x2="1" y2="0" gradientUnits="userSpaceOnUse" gradientTransform="matrix(253.075,-622.93,310.294,126.062,1321.76,1484.55)"><stop offset="0" style="stop-color:rgb(171,134,79);stop-opacity:1"/><stop offset="0.14" style="stop-color:rgb(132,105,64);stop-opacity:1"/><stop offset="0.35" style="stop-color:rgb(165,133,85);stop-opacity:1"/><stop offset="0.46" style="stop-color:rgb(140,114,74);stop-opacity:1"/><stop offset="0.6" style="stop-color:rgb(159,132,90);stop-opacity:1"/><stop offset="0.71" style="stop-color:rgb(149,124,85);stop-opacity:1"/><stop offset="0.79" style="stop-color:rgb(157,132,92);stop-opacity:1"/><stop offset="0.91" style="stop-color:rgb(164,139,100);stop-opacity:1"/><stop offset="1" style="stop-color:rgb(153,131,96);stop-opacity:1"/></linearGradient><linearGradient id="_Linear22" x1="0" y1="0" x2="1" y2="0" gradientUnits="userSpaceOnUse" gradientTransform="matrix(158.36,0,0,265.08,628.743,1806.91)"><stop offset="0" style="stop-color:rgb(100,83,57);stop-opacity:1"/><stop offset="0.47" style="stop-color:rgb(88,68,50);stop-opacity:1"/><stop offset="1" style="stop-color:rgb(98,81,54);stop-opacity:1"/></linearGradient></defs></svg>