<?xml version="1.0" encoding="UTF-8" standalone="no"?><!DOCTYPE svg PUBLIC "-//W3C//DTD SVG 1.1//EN" "http://www.w3.org/Graphics/SVG/1.1/DTD/svg11.dtd"><svg width="313px" height="320px" version="1.1" xmlns="http://www.w3.org/2000/svg" xmlns:xlink="http://www.w3.org/1999/xlink" xml:space="preserve" xmlns:serif="http://www.serif.com/" style="fill-rule:evenodd;clip-rule:evenodd;stroke-linejoin:round;stroke-miterlimit:1.5;"><g id="OBJ"><path d="M139.233,26.813L139.307,233.65L311.333,319.663L139.233,26.813Z" style="fill:rgb(144,106,43);"/><path id="屋根" d="M310.965,319.479L128.826,9.843L139.199,4.623L312.56,91.303L310.965,319.479Z" style="fill:url(#_Linear1);"/><path d="M139.307,233.65L124.937,226.465L124.937,212.118L109.923,204.695L109.742,46.684L139.307,33.346L139.307,233.65Z" style="fill:rgb(83,65,37);stroke:black;stroke-width:1px;"/><path d="M124.937,226.465L139.307,233.65L139.307,33.346L124.985,26.185L124.937,226.465Z" style="fill:rgb(110,95,66);stroke:rgb(80,71,56);stroke-width:2px;"/><path d="M124.937,226.465L123.931,41.805L109.742,48.899L109.742,55.849L0.323,164.155L124.937,226.465Z" style="fill:url(#_Radial2);"/><path d="M311.333,319.663C311.333,319.663 168.531,79.932 128.758,10.311C121.703,-2.038 128.298,0.616 128.273,0.506C150.372,24.789 178.668,41.637 192.699,73.061C208.902,109.351 243.371,151.514 265.369,198.216C284.847,239.571 319.979,275.998 311.333,319.663Z" style="fill:rgb(73,51,20);fill-opacity:0.43;"/><path d="M125.498,4.179L311.333,319.663L125.459,226.014L125.728,211.744L111.031,205.088L110.693,48.19L125.498,4.179Z" style="fill:rgb(13,13,13);fill-opacity:0.2;"/></g><defs><linearGradient id="_Linear1" x1="0" y1="0" x2="1" y2="0" gradientUnits="userSpaceOnUse" gradientTransform="matrix(1231.99,-632.027,513.371,1000.7,-188.029,-60.7856)"><stop offset="0" style="stop-color:rgb(171,134,79);stop-opacity:1"/><stop offset="0.14" style="stop-color:rgb(132,105,64);stop-opacity:1"/><stop offset="0.35" style="stop-color:rgb(165,133,85);stop-opacity:1"/><stop offset="0.46" style="stop-color:rgb(140,114,74);stop-opacity:1"/><stop offset="0.6" style="stop-color:rgb(159,132,90);stop-opacity:1"/><stop offset="0.71" style="stop-color:rgb(149,124,85);stop-opacity:1"/><stop offset="0.79" style="stop-color:rgb(157,132,92);stop-opacity:1"/><stop offset="0.91" style="stop-color:rgb(137,115,80);stop-opacity:1"/><stop offset="1" style="stop-color:rgb(153,131,96);stop-opacity:1"/></linearGradient><radialGradient id="_Radial2" cx="0" cy="0" r="1" gradientUnits="userSpaceOnUse" gradientTransform="matrix(39.3211,51.3744,-51.3744,39.3211,98.0383,175.785)"><stop offset="0" style="stop-color:rgb(47,49,54);stop-opacity:0.11"/><stop offset="1" style="stop-color:black;stop-opacity:0.31"/></radialGradient></defs></svg>