<?xml version="1.0" encoding="UTF-8" standalone="no"?><!DOCTYPE svg PUBLIC "-//W3C//DTD SVG 1.1//EN" "http://www.w3.org/Graphics/SVG/1.1/DTD/svg11.dtd"><svg width="313px" height="320px" version="1.1" xmlns="http://www.w3.org/2000/svg" xmlns:xlink="http://www.w3.org/1999/xlink" xml:space="preserve" xmlns:serif="http://www.serif.com/" style="fill-rule:evenodd;clip-rule:evenodd;stroke-linejoin:round;stroke-miterlimit:1.5;"><g id="OBJ"><path d="M138.911,26.475L138.984,233.312L311.01,319.325L138.911,26.475Z" style="fill:rgb(144,106,43);"/><path id="屋根" d="M310.642,319.141L128.503,9.506L138.876,4.286L312.237,90.966L310.642,319.141Z" style="fill:url(#_Linear1);"/><path d="M138.984,233.312L124.614,226.128L124.614,211.781L109.601,204.357L109.419,46.347L138.984,33.009L138.984,233.312Z" style="fill:rgb(83,65,37);stroke:black;stroke-width:1px;"/><path d="M124.614,226.128L138.984,233.312L138.984,33.009L124.663,25.848L124.614,226.128Z" style="fill:rgb(110,95,66);stroke:rgb(80,71,56);stroke-width:2px;"/><path d="M124.614,226.128L123.608,41.467L109.419,48.561L109.419,55.511L0,163.818L124.614,226.128Z" style="fill:url(#_Radial2);"/><path d="M311.01,319.325C311.01,319.325 168.209,79.595 128.435,9.973C121.38,-2.376 127.975,0.279 127.951,0.168C150.05,24.452 178.346,41.3 192.376,72.723C208.579,109.013 243.048,151.177 265.046,197.879C284.525,239.233 319.656,275.661 311.01,319.325Z" style="fill:rgb(73,51,20);fill-opacity:0.43;"/><path d="M125.175,3.842L311.01,319.325L125.136,225.677L125.405,211.407L110.708,204.751L110.37,47.852L125.175,3.842Z" style="fill:rgb(13,13,13);fill-opacity:0.2;"/></g><defs><linearGradient id="_Linear1" x1="0" y1="0" x2="1" y2="0" gradientUnits="userSpaceOnUse" gradientTransform="matrix(1231.99,-632.027,513.371,1000.7,-188.352,-61.1229)"><stop offset="0" style="stop-color:rgb(171,134,79);stop-opacity:1"/><stop offset="0.14" style="stop-color:rgb(132,105,64);stop-opacity:1"/><stop offset="0.35" style="stop-color:rgb(165,133,85);stop-opacity:1"/><stop offset="0.46" style="stop-color:rgb(140,114,74);stop-opacity:1"/><stop offset="0.6" style="stop-color:rgb(159,132,90);stop-opacity:1"/><stop offset="0.71" style="stop-color:rgb(149,124,85);stop-opacity:1"/><stop offset="0.79" style="stop-color:rgb(157,132,92);stop-opacity:1"/><stop offset="0.91" style="stop-color:rgb(137,115,80);stop-opacity:1"/><stop offset="1" style="stop-color:rgb(153,131,96);stop-opacity:1"/></linearGradient><radialGradient id="_Radial2" cx="0" cy="0" r="1" gradientUnits="userSpaceOnUse" gradientTransform="matrix(39.3211,51.3744,-51.3744,39.3211,97.7155,175.448)"><stop offset="0" style="stop-color:rgb(47,49,54);stop-opacity:0.11"/><stop offset="1" style="stop-color:rgb(24,56,58);stop-opacity:0.31"/></radialGradient></defs></svg>