<svg xmlns="http://www.w3.org/2000/svg" xmlns:xlink="http://www.w3.org/1999/xlink" height="182" width="160"><defs><g id="b"><path d="M-17.45-52.15l.2-.5q1.25-3.05 4.6-5.8Q-7.15-63.5.5-64q7.6.5 13.05 5.55 5.45 4.5 5.45 9.8 0 4-2.6 7.1h.1-.05l-2.6 3.1v.8l-.2-.95-.8.05.65 9.65h.15l.25.75.2.5.2.4-.15.45-.3.75-.2.35-.9.7h-.05l-.05 1.5h.05l-.05.5h-.05l-.05.45h.05l-.25 2.65h-1.8l-.75 1.55h5.4l1.15.4q.55.55.55 1.65 0 1.05-.55 1.6-.45.45-1.15.45H8.6v1.45l-4.5-.25.65-.5q.9-.9.9-2.75 0-1.9-.9-2.8-.8-.8-2.05-.8h-6.6v1.55h6.55q.7 0 1.15.4.55.55.55 1.65 0 1.05-.55 1.6-.45.45-1.15.45H-3.9v1.4l-6.55-.35-1.95-.4q-1.45-1.7-1.75-3.65l-.1-1.2.05-.95.55-1.85h.1v-.55l.15-.15V-24q.75.6 1.55.55l.25-.05q1.9.5 3-.85.4.2.2-.15 1-.75 1.25-2.4-.05-.7-.45-2l.45-6.3-1.35-.1-.5 6.45.15.05v.05h.05l.4 1.4q.15 1.45-.95 1.9-.55.9-2.1.6h-.5q-.6-.2-1.3-.85l-.2-.35v-2.1l.25-.75h.1l.7-9.65-.85-.05-.4-.05v-.15l-2.05-2.75h.2q-2.4-2.8-2.5-6.35v-.75h.55v-3.5M-13.8-22l.05.1-.05-.1m3.7-6.45h.05l-.05-.05v.05" fill="#fff" fill-rule="evenodd" transform="translate(18.6 64.6)"/><path d="M13.85-37.65L14.5-34l.15 1.95.05-.05v.1l.2 2.65v.35h-.1v.1q.25.7.6 1.1-.05.25.15.3.3 1.6-.6 2.45l-.15.2q-.15-.05-.2.1l-.25.25-.55.5q-.55.4-1.1.5h-.05l.05-1.5h.05l.9-.7.2-.35.3-.75.15-.45-.2-.4-.2-.5-.25-.75h-.15l-.65-9.65.8-.05.2.95m-1.5 17.75h2.9q1.25 0 2.05.8.9.9.9 2.8 0 1.85-.9 2.75-.8.8-2.05.8H8.6v-1.5h6.6q.7 0 1.15-.45.55-.55.55-1.6 0-1.1-.55-1.65l-1.15-.4H9.8l.75-1.55h1.8M4.1-13.05l-1.3.3h-6.7v-1.5h6.55q.7 0 1.15-.45.55-.55.55-1.6 0-1.1-.55-1.65-.45-.4-1.15-.4H-3.9v-1.55h6.6q1.25 0 2.05.8.9.9.9 2.8 0 1.85-.9 2.75l-.65.5M-13.4-24l-.55-.5-.2-.25-.2-.1-.2-.2q-.9-.85-.55-2.45.15-.05.15-.3l.55-1.1.05-.1h-.1l-.05-.35h.05l.2-2.65v-.1l.05.05.1-1.95.85-4.6.85.05-.7 9.65h-.1l-.25.75-.25.5-.15.4.15.45.25.75.2.35q.7.65 1.3.85h.5q1.55.3 2.1-.6 1.1-.45.95-1.9l-.4-1.4h-.05v-.05l-.15-.05.5-6.45 1.35.1-.45 6.3q.4 1.3.45 2-.25 1.65-1.25 2.4.2.35-.2.15-1.1 1.35-3 .85l-.25.05q-.8.05-1.55-.55" fill-rule="evenodd" transform="translate(18.6 64.6)"/><path d="M1.15 12.45l.2-.5q1.25-3.05 4.6-5.8Q11.45 1.1 19.1.6q7.6.5 13.05 5.55 5.45 4.5 5.45 9.8 0 4-2.6 7.1m-31.9 0Q.7 20.25.6 16.7v-.75" fill="none" stroke="#000" stroke-linecap="round" stroke-linejoin="round" stroke-width="1.2"/><path d="M5.4-44.05q.15.45.45.75l.7.25.95-.6q.4-.65.4-1.65 0-1.35-.9-3.25h1.05q.9 1.6.9 3.15 0 1.55-.65 2.4-.6.8-1.6.8-1.35 0-1.9-1.4-.6 1.4-1.9 1.4-1.05 0-1.65-.85Q.6-43.9.6-45.4q0-1.55.95-3.15h1q-.85 1.9-.85 3.25 0 1 .35 1.65.4.6.95.6.4 0 .7-.3l.45-.7.1-1.15V-47H5.3v1.8l.1 1.15" fill-rule="evenodd" transform="translate(18.6 64.6)"/></g><g id="d"><path d="M-12.75-65.7l3.2-1.55q2.9-2.15 7.25-2.1l6.6.55q2.25.55 5.25 2.2 3.7 1.3 4.5 3.65l2.85 4.05q1.35 1.5 1.65 8.05-2.5-4.95-3.9-5.95L13-57.7q-2.85-1.2-6.85 0l.2 1.2v.05-.05l-1.6-1.6 1.6 1.6.1.1-.1-.05L4-57.6l.75-.5.8-1.5q.05-1.6-2.65-3.25l-5.95-.65-9.7-2.2m10.35.2q3.45.3 5.3 2.65-1.85-2.35-5.3-2.65m10.95 2.65q2.8.1 3.75 3l.7 2.15-.7-2.15q-.95-2.9-3.75-3" fill="#f3f0b6" fill-rule="evenodd" transform="translate(19.05 69.95)"/><path d="M-3.05-63.5l5.95.65q2.7 1.65 2.65 3.25l-.8 1.5-.75.5H1.6q-8.7-2.05-9.35-1.15l-.05.05q-1.25.65-1.95 2.35l-2.15-3.55 4.5-2.45.6.1h.05Q.1-61 1.6-57.6.1-61-6.75-62.25l3.7-1.25" fill="#ebe87c" fill-rule="evenodd" transform="translate(19.05 69.95)"/><path d="M-12.75-65.7l9.7 2.2-3.7 1.25h-.05l-.6-.1-4.5 2.45 2.15 3.55q-.95 2.25-.95 6.45l.1.3 1.2 5.5-2.3-3-.75 1.7v-2.65l-.5 10.05q-1.75-.55-2.75-5v4.55l-2.6-9.4 2.1-12q2.75-5.15 3.45-5.85m.3 17.65v-.3.3l.75.95-.75-.95m-.6-6.05q-2.55 7.05-5.25 6.25 2.7.8 5.25-6.25" fill="#efeb9c" fill-rule="evenodd" transform="translate(19.05 69.95)"/><path d="M32.05 12.25l1.65.9q1.4 1 3.9 5.95-.3-6.55-1.65-8.05L33.1 7q-.8-2.35-4.5-3.65-3-1.65-5.25-2.2L16.75.6Q12.4.55 9.5 2.7L6.3 4.25m19.1 9.2l-.2-1.2q4-1.2 6.85 0l-.7-2.15q-.95-2.9-3.75-3m-2.2 6.4v-.05l-1.6-1.6-.75.5 2.35 1.15.1.05-.1-.1m-4.75-1.1h2.4m-1.1-5.25q2.7 1.65 2.65 3.25l-.8 1.5m1.7 1.7q-1.75 2.25.35 3.55M12.3 7.7h-.05l-.6-.1m-2.35 6q.7-1.7 1.95-2.35l.05-.05q.65-.9 9.35 1.15-1.5-3.4-8.35-4.65m-3 5.9q-.95 2.25-.95 6.45l.1.3m-1.1 2.5l-.75 1.7V21.9l-.5 10.05q-1.75-.55-2.75-5v4.55l-2.6-9.4 2.1-12Q5.6 4.95 6.3 4.25m.3 17.65v-.3.3m-5.85.2q2.7.8 5.25-6.25" fill="none" stroke="#d0cc22" stroke-linecap="round" stroke-linejoin="round" stroke-width="1.2"/><path d="M2.9-62.85Q1.05-65.2-2.4-65.5m-8.2 15.9l1.2 5.5-2.3-3m-.75-.95l.75.95" fill="none" stroke="#d0cc22" stroke-linecap="round" stroke-linejoin="round" transform="translate(19.05 69.95)"/><path d="M12-37.6l1.6-.7.05-.05.6 2.55-.05.35-.3 1.25q-2.05-.95-1.9-3.4-.15 2.45 1.9 3.4l-.75 3.35q-2.3-4.4-3.2-5.55l-.2-.2 1.9-.85.35-.15m-24.25-1.9l3.9.7 4.4.8-4.45 4.7q-1.8.05-2.3-1.3l-.6-.45-.6-1.6-1.05-2.95.45.05.25.05m3.9.7q.8 3.1-2.95 3.75 3.75-.65 2.95-3.75" fill="#c69922" fill-rule="evenodd" transform="translate(19.05 69.95)"/><path d="M13.6-38.3l-1.6.7-.35.15-1.9.85.2.2q.9 1.15 3.2 5.55l.75-3.35.3-1.25 1.55 6.2-2.6 1.75.5 7.15-1.4.25Q9.65-18.65 7-18.55q-1.3-.1-2.05-.55Q3.2-20.05 2-20.15l-2.5.1q-1.25.2-2.85.95v.05l-.1.05v.05h-.1q-2.85 2-5.1 1.85-2.55-.15-7.1-1.65l.25-1.9.55-4.25 2 1q3 1.25 5.25-1.95.45-1.65-.35-2.35l-.05-1.2-6.6.2q.45-3.6 1.6-7.45h1.2l.6 1.6.6.45q.5 1.35 2.3 1.3l4.45-4.7-4.4-.8-3.9-.7-.25-.05-.45-.05-.25-.2-.75-3.3L1.5-40q-.95 1.8 1.2 4.2l.05.3 2.45-4.3 11.3-1.4-1.75 1.75-.1.05-1 1.05-.05.05M1.85-26.75l.85-9.05-.85 9.05m7.9-9.85l-.1-.1q-.45-.45-.15.2l.15-.05.1-.05m-1 .1l-5.1.85 5.1-.85m-12.1 17.55l-.15.15.1-.15h.05m16.5-8.55v-3.35 3.35M-8.1-29.4l-.3-3.9.3 3.9m4.55 10.45l.25-.2-.05.1.05-.1-.25.2-2.45-.1q-5.05-.2-9.5-1.6 4.45 1.4 9.5 1.6l2.45.1m.2-.15l.05-.05-.05.05m-.5-18.3l5.6 1.15-5.6-1.15" fill="#e33104" fill-rule="evenodd" transform="translate(19.05 69.95)"/><path d="M14.25-35.8l-.6-2.55 1-1.05.4.05 3.45.2q2.65-.05.75 1.15-2.45 1.4-5 2.2m-27.35-.85L-18.15-38q-1.8-1.7 5-1.65l.2.05 1.05 2.95h-1.2" fill="#edf075" fill-rule="evenodd" transform="translate(19.05 69.95)"/><path d="M13.6-38.3l-1.6.7-.35.15-1.9.85.2.2q.9 1.15 3.2 5.55m-25.4-8.65l3.9.7 4.4.8-4.45 4.7" fill="none" stroke="#d1bb21" stroke-linecap="round" stroke-linejoin="round" transform="translate(19.05 69.95)"/><path d="M13.65-38.35l-.05.05m.65 2.5q2.55-.8 5-2.2 1.9-1.2-.75-1.15l-3.45-.2m-28.15 2.7L-18.15-38q-1.8-1.7 5-1.65l-.05-.15m1.3 3.15h-1.2" fill="none" stroke="#d9e133" stroke-linecap="round" stroke-linejoin="round" transform="translate(19.05 69.95)"/><path d="M14.25-35.8l-.6-2.55 1-1.05m-25.35 4.8l-.6-.45-.6-1.6-1.05-2.95" fill="none" stroke="#cdd720" stroke-linecap="round" stroke-linejoin="round" transform="translate(19.05 69.95)"/><path d="M13.9-34.2l.3-1.25 1.55 6.2-2.6 1.75.5 7.15-1.4.25Q9.65-18.65 7-18.55q-1.3-.1-2.05-.55Q3.2-20.05 2-20.15l-2.5.1q-1.25.2-2.85.95v.15l-.15.15.1-.15.05-.1-.1.05m18.2-20.45l1.75-1.75-11.3 1.4-2.45 4.3-.05-.3-.85 9.05m11.3-4.1l.75-3.35m2.6-7l.25-.05M-3.3-18.95h-.05m-.2 0q-2.85 2-5.1 1.85-2.55-.15-7.1-1.65l.25-1.9.55-4.25m6.85-4.5l-6.6.2q.45-3.6 1.6-7.45m-.1-3.15l-.75-3.3L1.5-40q-.95 1.8 1.2 4.2m10.45 4.95v3.35M-8.4-33.3l.3 3.9m-2.6-5.2q.5 1.35 2.3 1.3m5.05 14.2v.05l.05-.1-.25.2m.25-.2l-.05.05" fill="none" stroke="#ece22b" stroke-linecap="round" stroke-linejoin="round" transform="translate(19.05 69.95)"/><path d="M3.65-35.65l5.1-.85m-12.1 17.55h.05m-.1 0H-3.55l-2.45-.1q-5.05-.2-9.5-1.6m12.15 1.7h-.05m5.15-17.3l-5.6-1.15" fill="none" stroke="#c60000" stroke-linecap="round" stroke-linejoin="round" transform="translate(19.05 69.95)"/><path d="M12-37.6q-.15 2.45 1.9 3.4m-25.2-.85q3.75-.65 2.95-3.75" fill="none" stroke="#9f7b1c" stroke-linecap="round" stroke-linejoin="round" transform="translate(19.05 69.95)"/><path d="M1.2-23.75l-2.4-1.55-2.5 1.55-.15-.15 1.7-2.1h1.9l1.65 2.1-.2.15m1 0l-.15-.15 1.7-2.1h1.9l1.65 2.1-.2.15-2.4-1.55-2.5 1.55" fill="#edf075" fill-rule="evenodd" transform="translate(19.05 69.95)"/><path d="M1.25-25.25L-2.4-27.6l-3.75 2.35-.2-.25 2.55-3.15h2.85L1.5-25.5l-.25.25m.95 0L2-25.5l2.55-3.15H7.4l2.45 3.15-.25.25-3.65-2.35-3.75 2.35" fill="#edf075" fill-rule="evenodd" transform="translate(19.05 69.95)"/><path d="M1.45-27.65l-3.85-2.5-4 2.5-.25-.25 2.75-3.4h3l2.6 3.4-.25.25m1.1.1l-.25-.25 2.75-3.4h3l2.6 3.4-.25.25-3.85-2.5-4 2.5" fill="#edf075" fill-rule="evenodd" transform="translate(19.05 69.95)"/><path d="M1.4-29.75l-4.2-2.75-4.4 2.75-.25-.25 3-3.7h3.25L1.7-30l-.3.25m7.35-4.05l2.9 3.7-.3.25-4.2-2.75-4.4 2.75-.25-.25 3-3.7h3.25" fill="#edf075" fill-rule="evenodd" transform="translate(19.05 69.95)"/></g><path d="M.7-.3l1.85 2.2H1.5L.05.7-1.4 1.9h-1.05l1.9-2.2H.7" fill-rule="evenodd" transform="translate(2.45 .3)" id="a"/><use height="2.2" width="5" xlink:href="#a" id="c"/></defs><g transform="matrix(2 0 0 2 82.341 144.2)"><use height="51.85" transform="translate(-18.6 -64.6)" width="38.2" xlink:href="#b"/><use height="2.2" transform="translate(10.35 -53.3)" width="5" xlink:href="#c"/><use height="2.2" transform="translate(-5.9 -53.3)" width="5" xlink:href="#c"/><use height="53.35" transform="translate(-19.05 -69.95)" width="39.6" xlink:href="#d"/></g></svg>