<svg height="182" width="160" xmlns="http://www.w3.org/2000/svg"><path d="M79.999 22h7.8l2.4 1.1 7.7-17.2 7.8 17.2 2.5-1.1 6.3 6.1 2.2 2.2-2.2-2.2 2.3 2.2h-.1l-.7.8.2.2c2.8 2.734 4.334 5.766 4.6 9.1l.1 1.2c0 2.2-.534 4.266-1.6 6.2l-.5.9-2.8 3.4.2.2-.6.6-6.5 1.8v9.4l-6.5 1.4-6.3 1.8 1.3 3.2 6.7-2.5c2.266-.8 4.266-1.2 6-1.2 2.066 0 3.5.4 4.3 1.2 1.066 1.066 1.6 2.4 1.6 4 0 1.466-.5 2.7-1.5 3.7-1.4 1.4-4.134 2.234-8.2 2.5l-2.5.1.7 3 3-.1-.1 5.5-3 2.5v13.5h-9.1v3.1h13.2c.934 0 1.7.266 2.3.8.734.734 1.1 1.834 1.1 3.3 0 1.4-.366 2.466-1.1 3.2-.6.6-1.366.9-2.3.9h-13.2v1.9h-15.2l-7.1 7V136c0 .934-.3 1.7-.9 2.3-.734.734-1.8 1.1-3.2 1.1-1.466 0-2.566-.366-3.3-1.1-.534-.6-.8-1.366-.8-2.3v-13.1h-3.1l-3.4-2.2-3.5-7.8v-7.8l.9-.8c1-.8 1.9-1.834 2.7-3.1l-2.5-2-1.4 1.9.8-21.9 3.5-25.6.8.7 1.5-1.4-2-2.2c-2-2.534-3-5.3-3-8.3l.1-2c.466-3.066 2.1-5.9 4.9-8.5l-1.5-1.5 1-7.9 1.3.6 7.7-17.2 7.7 17.2 2.5-1.1m25.8 32.8 1.5-3.1V49h-3v2.9h1.1l-1.1 2.9h1.5m-5.9 0 1.6-3.1V49h-3.1v2.9h1.1l-1.1 2.9h1.5" style="clip-rule:evenodd;fill:#fff;fill-rule:evenodd;stroke-width:2;stroke-linecap:round;stroke-linejoin:round"/><path d="m79.999 22-2.5 1.1-7.7-17.2-7.7 17.2-1.3-.6-1.1-.5 10.1-22 10.2 22m-20.2 8.4 1.5 1.5c-2.8 2.6-4.434 5.434-4.9 8.5l-.1 2c0 3 1 5.766 3 8.3l2 2.2-1.5 1.4-.8-.7-1.2-1.4c-2.4-2.934-3.6-6.2-3.6-9.8l.1-2c.466-3.734 2.3-7.066 5.5-10m-5.1 70.7 1.4-1.9 2.5 2c-.8 1.266-1.7 2.3-2.7 3.1l-.9.8c-.934.6-2 .9-3.2.9-1.266 0-3.034-.734-5.3-2.2l-3.8-1.3c-1.2 0-2.066.366-2.6 1.1l-1.2 1.9-2.7-1.5 2.4-3.3c1.066-1.066 2.366-1.6 3.9-1.6 1.466 0 2.966.534 4.5 1.6 2.2 1.134 3.9 1.7 5.1 1.7.866 0 1.734-.434 2.6-1.3m7.2 21.8h3.1V136c0 .934.266 1.7.8 2.3.734.734 1.834 1.1 3.3 1.1 1.4 0 2.466-.366 3.2-1.1.6-.6.9-1.366.9-2.3v-13.1h3v13.2c0 1.666-.534 3.034-1.6 4.1-1.2 1.2-3.034 1.8-5.5 1.8-2.534 0-4.4-.6-5.6-1.8-1.066-1.066-1.6-2.434-1.6-4.1v-13.2m33.6-7V114h13.2c.934 0 1.7-.3 2.3-.9.734-.734 1.1-1.8 1.1-3.2 0-1.466-.366-2.566-1.1-3.3-.6-.534-1.366-.8-2.3-.8h-13.2v-3.1h13.3c1.666 0 3.034.534 4.1 1.6 1.2 1.2 1.8 3.066 1.8 5.6 0 2.466-.6 4.3-1.8 5.5l-.6.5c-1 .734-2.166 1.1-3.5 1.1h-13.3v-1.1m12.2-34.7-3 .1-.7-3 2.5-.1c4.066-.266 6.8-1.1 8.2-2.5 1-1 1.5-2.234 1.5-3.7 0-1.6-.534-2.934-1.6-4-.8-.8-2.234-1.2-4.3-1.2-1.734 0-3.734.4-6 1.2l-6.7 2.5-1.3-3.2 6.3-1.8 6.5-1.4 1.5-.1c2.934 0 5.1.7 6.5 2.1 1.466 1.4 2.2 3.3 2.2 5.7 0 2.466-.666 4.366-2 5.7l-.8.7c-2.134 1.6-5.066 2.6-8.8 3m8.5-28.9-.2-.2 2.8-3.4.5-.9c1.066-1.934 1.6-4 1.6-6.2l-.1-1.2c-.266-3.334-1.8-6.366-4.6-9.1l-.2-.2.7-.8h.1l.6-.7c3.4 3.134 5.234 6.734 5.5 10.8l.1 1.2c0 2.534-.6 4.9-1.8 7.1-.934 1.666-2.2 3.266-3.8 4.8l-1.2-1.2m-8-30.3-2.5 1.1-7.8-17.2-7.7 17.2-2.4-1.1 10.1-22 10.3 22m-8.3 32.8h-1.5l1.1-2.9h-1.1V49h3.1v2.7l-1.6 3.1m5.9 0h-1.5l1.1-2.9h-1.1V49h3v2.7l-1.5 3.1" style="clip-rule:evenodd;fill-rule:evenodd;stroke-linecap:round;stroke-linejoin:round"/><path d="M87.799 22h-7.8m24.6 80.7V89.2m12.1-58.9-2.2-2.2" style="clip-rule:evenodd;fill:none;fill-rule:nonzero;stroke:#000;stroke-width:2px;stroke-linecap:round;stroke-linejoin:round"/><path d="M78.496 54.206a7.69 7.69 0 0 1 2.722 1.752l.018-.102c-.689-.823-1.601-1.374-2.74-1.65" style="clip-rule:evenodd;fill:#0ccb01;fill-rule:evenodd;stroke-width:2.06267;stroke-linecap:round;stroke-linejoin:round"/><path d="m96.756 67.373.018-.102.01-.627-.803-.775-.766-.977-1.043-.609-.655-.433-.056-.849.415-.553.867-.157c.936.239 1.652.719 2.15 1.438l.185.138.747 1.08.102.018c1.144.627 1.368 1.506.674 2.638l-.6.415-.322.046 2.87 3.246.083.12-.102-.018c1.311 1.636 2.162 4.06 2.558 7.277l2.08 14.528c.375 2.934 1.305 4.744 2.788 5.432 1.641.577 3.906.045 6.789-1.598l.599-.415.443-.13.396-.452 4.26-3.838.019-.102c2.693-3.285 4.188-7.485 4.488-12.602.625-8.063-1.328-14.251-5.854-18.567-4.257-4.267-8.357-5.36-12.298-3.28l.12-.083-.82.48-.425.028-.378.35c-3.155 1.594-6.642 2.323-10.46 2.19l-12.39-2.772c.296.682.376 1.395.241 2.14-.258 1.42-1.183 2.475-2.775 3.165l.101.018 5.074 2.074 3.423 1.355.81-3.312.314-.572.664-.194.59.212 5.869 4.629M79.789 57.48l.018-.101-3.081-1.503-2.87.214-.22.064-.323.046-.12.083-1.43 1.523-.036.203c-.136.745.12 1.454.766 2.13l.535.517.655.433.757.452-.083-.12 1.3.341c.676.123 1.43.014 2.26-.324l.545-.11.387.175.24-.166c.91-.395 1.432-.963 1.568-1.708.11-.608-.068-1.165-.536-1.669l-.332-.48m-10.184.668-4.871-2.037-4.835-2.24-.184-.138-.59-.212-4.447-.912-.019.102c.1.227-.025.52-.368.876l-.139.185-.092.507.083.12c-.036 1.74.343 2.928 1.136 3.56l-.101-.018.775.35.018-.101.775.35 2.03.368 5.415.773.738.553.148.342.286 1.31.046.322-.11 4.068c1.876-2.244 3.713-3.902 5.516-4.974-.868-.996-1.27-2.048-1.21-3.154m-10.222-2.589.517.618.074.747-.636.619c-.455.196-1.154.384-2.094.563l-.692-.23-.517-.618.25-.794.599-.415 1.65-.434.85-.056m49.852 8.313-.83-.045-.517-.618c-.087-.295-.077-.538.027-.73l.618-.516 5.415.773c2.127 1.365 3.627 3.314 4.494 5.847l-.018.102c.875 2.884.01 5.138-2.59 6.762l-4.842 1.846.12-.083-3.321-.183-.49-.193-.248-.36c-.998-2.208-1.397-4.237-1.202-6.088l.019-.101-.01-.526.194-.49 1.752-1.568 1.577-1.181.664-.194 1.762.11.572.313.95 1.116.444 1.024.01.526-.296.47-.655.72-.784.277-.673-.332-.296-.682.35-.775.139-.185-.083-.12-.268-.258-1.033-.083-1.097.85-1.135 1.051-.055.305c-.11 1.378.146 2.856.767 4.437l1.965.147a12.48 12.48 0 0 0 4.16-1.552c1.72-1.014 2.269-2.487 1.64-4.419-.67-2.077-1.88-3.695-3.626-4.85l-3.57-.544m2.072 18.615c2.387-.825 4.36-.152 5.923 2.018l.148.341.027.425-.525 2.315-.433.655-.766.176-.655-.434-.175-.765.451-1.91-3.413-.829-.102-.018-1.346.489-.12.083-1.384.692c.045 1.686.402 3.182 1.072 4.492l3.036 2.333c2.239-.013 3.913-.967 5.026-2.861l2.885-6.08.517-.535.848-.056.517.618.074.747-3.042 6.366c-1.597 2.645-3.997 3.922-7.194 3.83l-.59-.211-3.506-2.628-.268-.258c-1.059-1.87-1.509-4.012-1.349-6.43l.074-.405.378-.35 2.103-1.192a11.503 11.503 0 0 1 1.67-.535l.119-.083" style="clip-rule:evenodd;fill:#12a001;fill-rule:evenodd;stroke-width:2.06267;stroke-linecap:round;stroke-linejoin:round"/><path d="m100.53 71.413.102.018-.083-.12-.019.102M52.04 54.437l.019-.101-.019.101" style="clip-rule:evenodd;fill-rule:evenodd;stroke-linecap:round;stroke-linejoin:round"/><path d="m96.756 67.373-5.868-4.63-.59-.211-.665.194-.313.572-.811 3.312-3.423-1.355-5.074-2.074-.101-.018c1.592-.69 2.517-1.745 2.775-3.165a3.636 3.636 0 0 0-.24-2.14l12.389 2.772c3.818.133 7.305-.597 10.46-2.19l.378-.35.424-.028.821-.48-.12.083c3.941-2.08 8.04-.987 12.298 3.28 4.526 4.316 6.479 10.504 5.854 18.567-.3 5.117-1.796 9.317-4.488 12.602l-.018.102-4.26 3.838-.397.453-.443.129-.6.415c-2.882 1.643-5.147 2.175-6.788 1.598-1.483-.688-2.413-2.498-2.788-5.432l-2.08-14.528c-.396-3.216-1.247-5.641-2.558-7.277l.019-.102-2.87-3.246-.508-.092-.415-.6m-18.26-13.166-1.402-.36-3.717.27-.987.24c-.99.45-1.727 1.049-2.214 1.8l-4.585-1.88-4.631-2.204-.572-.313c-2.622-2.503-5.312-2.5-8.072.002l-.332.674.176.765-.055.305-.065.931c-.006 2.725.72 4.498 2.18 5.322l.1.019.776.35.101.018.775.35 1.218.222 1.743.211.544-.11 3.469.524.185.138.175.766-.034 7.121.212.563.554.415.627.009.498-.434c2.46-3.537 4.878-5.892 7.257-7.068l.102.018.286.157.775.35.101.018 1.605.397 1.984.045.82.673.084.12 6.135 2.58 4.502 1.761.508.092.58-.314.296-.47.737-2.906 5.213 4.195 2.787 3.126c1.145 1.397 1.848 3.48 2.114 6.254l2.08 14.528c.555 3.874 1.906 6.251 4.053 7.13 2.146.877 5.015.28 8.605-1.793l.72-.499.276-.369.563-.212 4.758-4.273c2.903-3.666 4.54-8.26 4.913-13.783.61-8.763-1.552-15.515-6.492-20.255-5.025-5.035-9.942-6.242-14.751-3.62l-.019.102-.46.23-.48.333-.443.129c-2.834 1.372-5.992 2.021-9.473 1.95l-12.454-2.994-.849.055-.36.25-.018.1a7.677 7.677 0 0 0-2.722-1.75m-8.891 3.941c-.06 1.106.342 2.158 1.21 3.154-1.803 1.072-3.64 2.73-5.515 4.974l.11-4.068-.047-.323-.286-1.31-.148-.34-.738-.554-5.415-.773-2.03-.368-.775-.35-.018.101-.775-.35.101.018c-.793-.632-1.172-1.82-1.136-3.56l-.083-.12.092-.507.139-.185c.343-.357.468-.649.368-.876l.019-.102 4.446.912.59.212.185.138 4.835 2.24 4.871 2.037m10.184-.668.332.48c.468.504.646 1.06.536 1.67-.136.744-.658 1.312-1.568 1.707l-.24.166-.387-.175-.545.11c-.83.338-1.584.447-2.26.324l-1.3-.34.083.119-.757-.452-.655-.433-.535-.516c-.647-.677-.902-1.386-.766-2.131l.036-.203 1.43-1.523.12-.083.322-.046.222-.064 2.869-.214 3.081 1.503-.018.101" style="clip-rule:evenodd;fill:#167801;fill-rule:evenodd;stroke-width:2.06267;stroke-linecap:round;stroke-linejoin:round"/><path d="m97.679 68.064.322-.046.6-.415c.694-1.132.47-2.011-.674-2.638l-.102-.019-.747-1.079-.185-.138c-.498-.72-1.214-1.2-2.15-1.438l-.867.157-.415.553.056.849.655.433 1.043.609.766.977.802.775-.009.627-.018.102.415.6.508.091M59.383 55.56l-.848.056-1.651.434-.6.415-.249.794.517.618.692.23c.94-.18 1.64-.367 2.094-.563l.636-.619-.074-.747-.517-.618m49.853 8.313 3.57.543c1.746 1.156 2.955 2.774 3.626 4.851.629 1.932.08 3.405-1.64 4.42a12.48 12.48 0 0 1-4.16 1.55l-1.965-.146c-.62-1.58-.876-3.059-.767-4.437l.055-.305 1.135-1.052 1.097-.849 1.033.083.268.258.083.12-.138.185-.35.775.295.682.673.332.784-.277.655-.72.295-.47-.009-.526-.443-1.024-.95-1.116-.573-.313-1.761-.11-.665.194-1.577 1.181-1.752 1.569-.193.489.009.526-.019.101c-.195 1.851.204 3.88 1.202 6.088l.249.36.489.193 3.32.183-.12.083 4.843-1.846c2.6-1.624 3.465-3.878 2.59-6.763l.018-.101c-.867-2.533-2.367-4.482-4.494-5.847l-5.415-.773-.618.517c-.104.19-.114.434-.027.729l.516.618.83.045m2.073 18.615-.12.083a11.57 11.57 0 0 0-1.67.535l-2.102 1.191-.378.35-.074.407c-.16 2.417.29 4.56 1.35 6.429l.267.258 3.506 2.628.59.212c3.197.091 5.597-1.186 7.194-3.83l3.042-6.367-.074-.747-.517-.618-.848.056-.517.535-2.885 6.08c-1.113 1.894-2.787 2.848-5.026 2.861l-3.036-2.333c-.67-1.31-1.027-2.807-1.072-4.492l1.384-.692.12-.083 1.346-.49.102.02 3.413.828-.451 1.91.175.765.656.434.765-.176.433-.655.525-2.315-.027-.425-.148-.341c-1.562-2.17-3.536-2.843-5.923-2.018" style="clip-rule:evenodd;fill:#bfd3b8;fill-rule:evenodd;stroke-width:2.06267;stroke-linecap:round;stroke-linejoin:round"/><path d="m104.35 96.883.8-16.9 11-2.8 1.4-6-1.5-3.7-3.8-2.4-3.6.4-10.3 3.6-5.1-.9 1.9 16.4 9.2 12.3" style="clip-rule:evenodd;fill:#fff;fill-rule:evenodd;stroke-linecap:round;stroke-linejoin:round"/><path d="m107.621 81.2-3.007.1-.701-3 2.606-.1c4.009-.266 6.715-1.1 8.118-2.5 1.003-1 1.504-2.234 1.504-3.7 0-1.6-.535-2.934-1.604-4-.802-.8-2.239-1.2-4.31-1.2l-6.014 1.2-6.615 2.5-1.303-3.2 6.214-1.8 6.515-1.4 1.504-.1c2.94 0 5.112.7 6.515 2.1 1.47 1.4 2.205 3.3 2.205 5.7 0 2.466-.668 4.366-2.005 5.7l-.802.7c-2.07 1.6-5.011 2.6-8.82 3m-7.717-26.4H98.4l1.103-2.9H98.4V49h3.007v2.7l-1.503 3.1m5.813 0h-1.504l1.103-2.9h-1.103V49h3.007v2.7l-1.503 3.1" style="clip-rule:evenodd;fill-rule:evenodd;stroke-linecap:round;stroke-linejoin:round"/><path d="M110.639 28.6h.402l1.107.2.906.7q.905.9.905 2l-.905 2.3q-.906.8-2.013.8l-1.61-.4-.503-.4-.905-1.4v-.3l-.101-.6v-.2q.1-1 1.006-1.8l.503-.4q.503-.4 1.107-.5h.1m.906 1.7-.503-.1q-.704-.1-1.107.4-.402.3-.402.9v.3l.302.9h.1l.101.1.403.2.603.1 1.107-.4.302-1.2-.1-.6-.202-.3-.1-.1-.302-.2h-.202" fill-rule="evenodd" id="gikopoipoi_eyes_open" style="stroke-width:2.00619"/><path d="M107.798 31.7h6.3" stroke-width="3" id="gikopoipoi_eyes_closed" style="display:none" fill="none" stroke="#000" stroke-linecap="round" stroke-linejoin="round"/></svg>