<?xml version="1.0" encoding="iso-8859-1"?>
<!-- Generator: Adobe Illustrator 15.1.0, SVG Export Plug-In . SVG Version: 6.00 Build 0)  -->
<!DOCTYPE svg PUBLIC "-//W3C//DTD SVG 1.1//EN" "http://www.w3.org/Graphics/SVG/1.1/DTD/svg11.dtd">
<svg version="1.1" id="back-sitting" xmlns="http://www.w3.org/2000/svg" xmlns:xlink="http://www.w3.org/1999/xlink" x="0px"
	 y="0px" width="159px" height="182px" viewBox="0 0 159 182" style="enable-background:new 0 0 159 182;" xml:space="preserve">
<path style="fill:#FFFFFF;" d="M114.065,29.322h-0.1l-0.699,0.8l0.199,0.2c2.801,2.733,4.332,5.767,4.6,9.101l0.1,1.199
	c0,2.2-0.531,4.268-1.6,6.2l-0.5,0.9l-2.799,3.399l0.199,0.2l-0.6,0.601l-6.5,1.8v9.399l-6.5,1.4l-6.301,1.801l1.301,3.199
	l6.699-2.5c2.268-0.801,4.268-1.199,6-1.199c2.068,0,3.5,0.398,4.301,1.199c1.066,1.066,1.6,2.4,1.6,4c0,1.467-0.5,2.699-1.5,3.699
	c-1.4,1.4-4.133,2.234-8.199,2.5l-2.5,0.102l0.699,3l3-0.102l-0.1,5.5l-3,2.5v11.5h-9.1v3.102h13.199
	c0.934,0,1.699,0.266,2.301,0.799c0.732,0.732,1.1,1.834,1.1,3.301c0,1.4-0.367,2.467-1.1,3.199c-0.602,0.6-1.367,0.9-2.301,0.9
	H92.767v3h-34l-6.5-6.5v-3.4l0.898-0.799c1-0.801,1.9-1.834,2.701-3.102l-2.5-2l-1.4,1.9l0.801-21.9l3.5-25.6l0.799,0.7l1.5-1.399
	l-2-2.2c-2-2.533-3-5.3-3-8.3l0.1-2c0.469-3.067,2.102-5.9,4.9-8.5l-1.5-1.5l1-7.9l1.301,0.6l7.699-17.199l7.701,17.199l2.5-1.1
	h7.799l2.4,1.1l7.699-17.199l7.801,17.199l2.5-1.1l6.301,6.1L114.065,29.322 M102.565,48.022v2.9h1.1l-1.1,2.899h1.5l1.5-3.1v-2.7
	H102.565 M99.767,50.723v-2.7h-3.102v2.9h1.102l-1.102,2.899h1.602L99.767,50.723"/>
<path style="fill:#010202;" d="M56.966,21.022l10.1-22l10.201,22l-2.5,1.1L67.065,4.923l-7.699,17.199l-1.301-0.6L56.966,21.022
	 M55.065,51.223c-2.4-2.934-3.6-6.2-3.6-9.8l0.1-2c0.467-3.733,2.301-7.067,5.5-10l1.5,1.5c-2.799,2.6-4.432,5.433-4.9,8.5l-0.1,2
	c0,3,1,5.767,3,8.3l2,2.2l-1.5,1.399l-0.799-0.7L55.065,51.223 M49.767,105.022h-0.701c-1.268,0-3.033-0.734-5.299-2.199
	l-3.801-1.301c-1.199,0-2.066,0.367-2.6,1.1l-1.201,1.9l-2.699-1.5l2.4-3.301c1.066-1.066,2.365-1.6,3.9-1.6
	c1.465,0,2.965,0.533,4.5,1.6c2.199,1.133,3.898,1.701,5.1,1.701c0.865,0,1.732-0.434,2.6-1.301l1.4-1.9l2.5,2
	c-0.801,1.268-1.701,2.301-2.701,3.102l-0.898,0.799C51.532,104.589,50.7,104.89,49.767,105.022 M106.065,99.722
	c1.666,0,3.033,0.535,4.1,1.602c1.201,1.199,1.801,3.066,1.801,5.6c0,2.467-0.6,4.299-1.801,5.5c-1.066,1.066-2.434,1.6-4.1,1.6
	H92.767v-3h13.199c0.934,0,1.699-0.301,2.301-0.9c0.732-0.732,1.1-1.799,1.1-3.199c0-1.467-0.367-2.568-1.1-3.301
	c-0.602-0.533-1.367-0.799-2.301-0.799H92.767v-3.102h9.1H106.065 M107.866,63.022c2.932,0,5.1,0.699,6.5,2.1
	c1.467,1.4,2.199,3.301,2.199,5.701c0,2.465-0.666,4.367-2,5.699l-0.799,0.699c-2.133,1.602-5.066,2.602-8.801,3l-3,0.102l-0.699-3
	l2.5-0.102c4.066-0.266,6.799-1.1,8.199-2.5c1-1,1.5-2.232,1.5-3.699c0-1.6-0.533-2.934-1.6-4c-0.801-0.801-2.232-1.199-4.301-1.199
	c-1.732,0-3.732,0.398-6,1.199l-6.699,2.5l-1.301-3.199l6.301-1.801l6.5-1.4L107.866,63.022 M114.065,29.322l0.6-0.7
	c3.4,3.134,5.234,6.733,5.5,10.801l0.102,1.199c0,2.533-0.602,4.9-1.801,7.101c-0.934,1.666-2.199,3.267-3.801,4.8l-1.199-1.2
	l-0.199-0.2l2.799-3.399l0.5-0.9c1.068-1.933,1.6-4,1.6-6.2l-0.1-1.199c-0.268-3.334-1.799-6.367-4.6-9.101l-0.199-0.2l0.699-0.8
	H114.065 M105.466,21.022l-2.5,1.1L95.165,4.923l-7.699,17.199l-2.4-1.1l10.1-22L105.466,21.022 M105.565,48.022v2.7l-1.5,3.1h-1.5
	l1.1-2.899h-1.1v-2.9H105.565 M98.267,53.822h-1.602l1.102-2.899h-1.102v-2.9h3.102v2.7L98.267,53.822"/>
<path style="fill:none;stroke:#010202;stroke-width:2;stroke-linecap:round;stroke-linejoin:round;stroke-miterlimit:3;" d="
	M85.065,21.022h-7.799 M101.866,99.722v-11.5"/>
<path style="fill:none;stroke:#010202;stroke-width:2;stroke-linecap:round;stroke-linejoin:round;stroke-miterlimit:3;" d="
	M113.966,29.322l-2.199-2.2"/>
<path style="fill:#010202;" d="M105.43,30.602c0,1.149,0.513,2.001,1.522,2.532c0.412,0.223,0.849,0.336,1.298,0.336
	c1.028,0,1.838-0.443,2.401-1.314c0.31-0.465,0.466-0.979,0.466-1.529c0-0.738-0.251-1.383-0.752-1.918
	c-0.581-0.615-1.276-0.928-2.067-0.928c-0.6,0-1.155,0.174-1.654,0.518C105.838,28.864,105.43,29.64,105.43,30.602z M108.273,31.979
	c-0.494,0-0.861-0.208-1.129-0.644c-0.151-0.219-0.225-0.45-0.225-0.709c0-0.553,0.234-0.94,0.718-1.189
	c0.209-0.111,0.417-0.164,0.636-0.164c0.33,0,0.619,0.107,0.881,0.326c0.317,0.277,0.473,0.613,0.473,1.027
	c0,0.398-0.148,0.728-0.452,1.004C108.913,31.864,108.618,31.979,108.273,31.979z"/>
<path style="fill:#1DA138;" d="M55.239,92.92c-2.332-1.6-4.398-3.6-6.199-6c-3.668-8.066-3.934-16.532-0.801-25.399v-0.5l0.201-0.2
	c3.533,3,4.865,6.667,4,11l-0.1,0.2H51.14l-0.5-1l-0.4-0.3l-1-0.6l-0.699-0.101c-0.266,0-0.467,0.134-0.6,0.4l-0.1,0.8l0.398,0.6
	l0.801,0.4l0.699,1.3l0.301,0.4l0.5,0.1h2.301l0.699-0.3c0.533-0.467,0.832-0.967,0.9-1.5c1.066-5.267-0.635-9.667-5.1-13.2
	c1.531-2.666,3.465-4.467,5.799-5.399l0.301-0.2l1.5-0.5c-0.201,1.399,0.334,2.133,1.6,2.2l1.1,0.1c1.533,0.2,2.533-0.233,3-1.3
	l0.1-0.8l-0.5-0.601H61.44l-0.6,0.5l-0.9,0.2h-0.201l-0.799-0.1h-0.1c-0.469-0.067-0.834-0.233-1.102-0.5l0.102-0.101l0.5-0.2h0.199
	c5.934-2.066,11.734-2.033,17.4,0.101l-0.1-0.101l3.199,1.5l0.199,0.101c1.734,0.934,3.535,1.767,5.4,2.5l3.9,1.1l0.699-0.1
	l0.5-0.601l2.701,0.4h0.1l0.699,0.1l3.102,0.601c-0.066,0.2-0.035,0.399,0.1,0.6c0.865,1.867,2.166,3.3,3.9,4.3l-4.801,1.5
	c-0.199-0.732-0.199-1.6,0-2.6l-0.1-0.6l-0.5-0.5l-0.6-0.101l-7.9,1.7l2.9-1l0.699-0.4l0.199-0.699l-0.398-0.7l-0.701-0.2
	c-1.932,0.2-3.768,1-5.5,2.4l-0.4,0.699l0.201,0.7l0.199,0.2l-0.1,0.5c-5.467,6.267-8.566,12.934-9.301,20l-0.199-0.5l-0.4-0.5
	l-0.699-0.6l-0.6-0.201l-6.301,0.4c-0.266,0-0.467,0.068-0.6,0.201l-0.301,0.5l-1,3.799l-0.1,1.201l0.301,0.5
	c0.266,0.332,0.633,0.398,1.1,0.199l0.5-0.4l0.299-0.5l-0.1-0.799c0.135-0.934,0.367-1.834,0.701-2.701l5.199-0.4h0.1l0.1,0.201
	c0.668,2.066,0.201,3.799-1.398,5.199v0.1l-2.102,1.4l0.102-0.1l-4.4,0.4h-0.1c-1-0.068-1.768-0.533-2.301-1.4
	c-0.867-1.332-1.234-2.734-1.1-4.199l0.699-4l1-2l0.1-0.801l-0.398-0.6L61.54,77.92l-0.6,0.5l-1.201,2.5l-0.799,4.5
	c-0.135,1.801,0.334,3.566,1.4,5.301c0.867,1.467,2.1,2.266,3.699,2.4l5.6-0.6h0.201l2-1.4l-0.4,0.6h-0.1
	c-2.066,2.4-4.602,3.9-7.602,4.5h-0.1l-2.799-0.4l-3.801-1.799l0.199-0.602l-0.199-1.5l-0.199-0.898l-0.102-0.102l-1.199-2.1
	c-0.801-1.133-2.1-1.6-3.9-1.4l-0.6,0.4l-0.301,0.701l0.4,0.699l0.701,0.199c1-0.066,1.699,0.133,2.1,0.602l0.1,0.1l0.9,1.6v0.1
	l0.1,0.1l0.1,0.301L55.239,92.92 M73.14,57.421l-1.299-1.4l-0.102-0.1l-4.898,0.2c-1.268,0.8-2.268,1.8-3,3
	c-2.535,3.933-2,7.5,1.6,10.699c2.6,2.4,5.4,2.434,8.4,0.101l0.199-0.101c0.801-1.066,0.934-2.267,0.4-3.6l-0.9-1l-2.4-1.6
	l-0.1-0.101l-2.6-1.1l-0.801,0.1l-0.4,0.601c-0.133,0.199-0.1,0.433,0.102,0.699l0.6,0.5l2.1,1h0.1l2.301,1.601l0.199,0.1l0.1,0.101
	h-0.1c0.201,0.467,0.166,0.899-0.1,1.3l-5.801-0.101c-2.732-2.466-3.133-5.166-1.199-8.1c0.533-1,1.332-1.8,2.4-2.4h-0.1l2.898-0.1
	l0.701,0.7l0.6,0.5l0.699-0.101l0.5-0.6L73.14,57.421 M98.94,58.121l1.799-0.301l0.5-0.199l0.301-0.301l0.199-0.6
	c2.066-0.8,4.168-0.6,6.301,0.6c0.133,1.867-0.1,3.2-0.699,4c-0.734,0.733-1.934,0.934-3.602,0.601l0.102,0.1l-0.701-0.2l-0.299-0.1
	l-0.301-0.1h-0.1v-0.101c-1.801-0.666-3.135-1.8-4-3.399h0.299H98.94"/>
<path style="fill:#CDCCCC;" d="M56.44,50.921l-0.9,0.3h0.1l0.4-0.2l0.301-0.1H56.44"/>
<path style="fill:#1E7933;" d="M57.54,52.721l-0.6,0.2l-1.5,0.5l-0.301,0.2c-2.334,0.933-4.268,2.733-5.799,5.399l-0.801,1.601
	l-0.1,0.199l-0.201,0.2v0.5c-3.133,8.867-2.867,17.333,0.801,25.399c1.801,2.4,3.867,4.4,6.199,6v0.5l0.301,0.701l0.699,0.299
	l0.701-0.299l0.1-0.1l3.801,1.799l2.799,0.4h0.1c3-0.6,5.535-2.1,7.602-4.5h0.1l0.4-0.6l0.199-0.201h0.1
	c2.268-1.934,2.967-4.332,2.1-7.199c0.734-7.066,3.834-13.733,9.301-20l0.1-0.5c0.135,0.134,0.301,0.2,0.5,0.2l0.701-0.2l1.6-1
	l7.9-1.7l0.6,0.101l0.5,0.5l0.1,0.6c-0.199,1-0.199,1.867,0,2.6l4.801-1.5c-1.734-1-3.035-2.433-3.9-4.3
	c-0.135-0.2-0.166-0.399-0.1-0.6l-3.102-0.601l-0.699-0.1h-0.1l-2.701-0.4l-0.5,0.601l-0.699,0.1l-3.9-1.1
	c-1.865-0.733-3.666-1.566-5.4-2.5L79.04,53.82l-3.199-1.5l0.1,0.101c-5.666-2.134-11.467-2.167-17.4-0.101h-0.199l-0.5,0.2
	l-0.102,0.101L57.54,52.721 M56.44,50.921l0.4-0.101l1.1-0.5c6.4-2.133,12.633-2.066,18.699,0.2l3.6,1.601l0.201,0.199
	c1.6,0.801,3.232,1.534,4.9,2.2h-0.102l3.801,1.101l0.6,0.399l1.801-1l1.299,0.2l0.9,0.1l0.1,0.101l3.801,0.6h0.1l0.9,0.101l1.4-0.2
	l0.1-0.4l0.5-0.5c3-1.267,6-0.967,9,0.9l0.301,0.3l0.1,0.4c0.334,2.8-0.033,4.8-1.1,6c-1.133,1.333-2.969,1.767-5.5,1.3h-0.102
	l-8.199,2.6l-0.6-0.1l-0.5-0.5c-0.4-0.8-0.568-1.833-0.5-3.101l-8,1.7l-0.201,0.3c-5.732,6.534-8.799,13.5-9.199,20.9
	c-0.066,1.6-0.533,3.168-1.4,4.699l-0.199,0.4v0.1l-1.5,2v0.102c-2.4,2.732-5.334,4.465-8.801,5.199h-0.1h-1.1l-2.801-0.5
	c-5.133-1.934-9.365-5.168-12.699-9.699l-0.1-0.201l-0.102-0.1c-3.934-8.6-4.232-17.566-0.898-26.9l0.299-0.5l0.1-0.5
	c1.801-4,4.234-6.666,7.301-8l0.199-0.1l1.301-0.5L56.44,50.921 M98.739,58.121H98.44c0.865,1.6,2.199,2.733,4,3.399v0.101h0.1
	l0.301,0.1l0.299,0.1l0.701,0.2l-0.102-0.1c1.668,0.333,2.867,0.133,3.602-0.601c0.6-0.8,0.832-2.133,0.699-4
	c-2.133-1.199-4.234-1.399-6.301-0.6l-0.199,0.6l-0.301,0.301l-0.5,0.199l-1.799,0.301H98.739"/>
<path style="fill:#C0D3B8;" d="M83.44,63.021l-0.201-0.7l0.4-0.699c1.732-1.4,3.568-2.2,5.5-2.4l0.701,0.2l0.398,0.7L90.04,60.82
	l-0.699,0.4l-2.9,1l-1.6,1l-0.701,0.2c-0.199,0-0.365-0.066-0.5-0.2L83.44,63.021 M69.841,92.521H69.64l-5.6,0.6
	c-1.6-0.135-2.832-0.934-3.699-2.4c-1.066-1.734-1.535-3.5-1.4-5.301l0.799-4.5l1.201-2.5l0.6-0.5l0.801,0.201l0.398,0.6l-0.1,0.801
	l-1,2l-0.699,4c-0.135,1.465,0.232,2.867,1.1,4.199c0.533,0.867,1.301,1.332,2.301,1.4h0.1l4.4-0.4l-0.102,0.1l2.102-1.4v-0.1
	c1.6-1.4,2.066-3.133,1.398-5.199l-0.1-0.201h-0.1l-5.199,0.4c-0.334,0.867-0.566,1.768-0.701,2.701l0.1,0.799l-0.299,0.5l-0.5,0.4
	c-0.467,0.199-0.834,0.133-1.1-0.199l-0.301-0.5l0.1-1.201l1-3.799l0.301-0.5c0.133-0.133,0.334-0.201,0.6-0.201l6.301-0.4
	l0.6,0.201l0.699,0.6l0.4,0.5l0.199,0.5c0.867,2.867,0.168,5.266-2.1,7.199h-0.1l-0.199,0.201L69.841,92.521 M55.14,92.221
	l-0.1-0.301l-0.1-0.1v-0.1l-0.9-1.6l-0.1-0.1c-0.4-0.469-1.1-0.668-2.1-0.602l-0.701-0.199l-0.4-0.699l0.301-0.701l0.6-0.4
	c1.801-0.199,3.1,0.268,3.9,1.4l1.199,2.1l0.102,0.102l0.199,0.898l0.199,1.5l-0.199,0.602l-0.1,0.1l-0.701,0.299l-0.699-0.299
	l-0.301-0.701v-0.5L55.14,92.221 M54.44,72.221c-0.068,0.533-0.367,1.033-0.9,1.5l-0.699,0.3H50.54l-0.5-0.1l-0.301-0.4l-0.699-1.3
	l-0.801-0.4l-0.398-0.6l0.1-0.8c0.133-0.267,0.334-0.4,0.6-0.4l0.699,0.101l1,0.6l0.4,0.3l0.5,1h1.201l0.1-0.2
	c0.865-4.333-0.467-8-4-11l0.1-0.199l0.801-1.601C53.806,62.554,55.507,66.954,54.44,72.221 M56.94,52.921l0.6-0.2l0.199-0.1
	c0.268,0.267,0.633,0.433,1.102,0.5h0.1l0.799,0.1h0.201l0.9-0.2l0.6-0.5h0.799l0.5,0.601l-0.1,0.8c-0.467,1.066-1.467,1.5-3,1.3
	l-1.1-0.1C57.274,55.054,56.739,54.32,56.94,52.921 M73.239,58.221l-0.5,0.6l-0.699,0.101l-0.6-0.5l-0.701-0.7l-2.898,0.1h0.1
	c-1.068,0.601-1.867,1.4-2.4,2.4c-1.934,2.934-1.533,5.634,1.199,8.1l5.801,0.101c0.266-0.4,0.301-0.833,0.1-1.3h0.1l-0.1-0.101
	l-0.199-0.1L70.14,65.32h-0.1l-2.1-1l-0.6-0.5c-0.201-0.267-0.234-0.5-0.102-0.699l0.4-0.601l0.801-0.1l2.6,1.1l0.1,0.101l2.4,1.6
	l0.9,1c0.533,1.333,0.4,2.533-0.4,3.6l-0.199,0.101c-3,2.333-5.801,2.3-8.4-0.101c-3.6-3.199-4.135-6.767-1.6-10.699
	c0.732-1.2,1.732-2.2,3-3l4.898-0.2l0.102,0.1l1.299,1.4L73.239,58.221"/>
<g id="_x38_79_3_" transform="matrix(1, 0, 0, 1, 9.1, 11.85)">
	<path style="fill:#1DA138;" d="M46.139,81.07c-2.332-1.6-4.398-3.6-6.199-6c-3.668-8.066-3.934-16.532-0.801-25.399v-0.5l0.201-0.2
		c3.533,3,4.865,6.667,4,11l-0.1,0.2H42.04l-0.5-1l-0.4-0.3l-1-0.6l-0.699-0.101c-0.266,0-0.467,0.134-0.6,0.4l-0.1,0.8l0.398,0.6
		l0.801,0.4l0.699,1.3l0.301,0.4l0.5,0.1h2.301l0.699-0.3c0.533-0.467,0.832-0.967,0.9-1.5c1.066-5.267-0.635-9.667-5.1-13.2
		c1.531-2.666,3.465-4.467,5.799-5.399l0.301-0.2l1.5-0.5c-0.201,1.399,0.334,2.133,1.6,2.2l1.1,0.1c1.533,0.2,2.533-0.233,3-1.3
		l0.1-0.8l-0.5-0.601H52.34l-0.6,0.5l-0.9,0.2h-0.201l-0.799-0.1h-0.1c-0.469-0.067-0.834-0.233-1.102-0.5l0.102-0.101l0.5-0.2
		h0.199c5.934-2.066,11.734-2.033,17.4,0.101l-0.1-0.101l3.199,1.5l0.199,0.101c1.734,0.934,3.535,1.767,5.4,2.5l3.9,1.1l0.699-0.1
		l0.5-0.601l2.701,0.4h0.1l0.699,0.1l3.102,0.601c-0.066,0.2-0.035,0.399,0.1,0.6c0.865,1.867,2.166,3.3,3.9,4.3l-4.801,1.5
		c-0.199-0.732-0.199-1.6,0-2.6l-0.1-0.6l-0.5-0.5l-0.6-0.101l-7.9,1.7l2.9-1l0.699-0.4l0.199-0.699l-0.398-0.7l-0.701-0.2
		c-1.932,0.2-3.768,1-5.5,2.4l-0.4,0.699l0.201,0.7l0.199,0.2l-0.1,0.5c-5.467,6.267-8.566,12.934-9.301,20l-0.199-0.5l-0.4-0.5
		l-0.699-0.6l-0.6-0.201l-6.301,0.4c-0.266,0-0.467,0.068-0.6,0.201l-0.301,0.5l-1,3.799l-0.1,1.201l0.301,0.5
		c0.266,0.332,0.633,0.398,1.1,0.199l0.5-0.4l0.299-0.5l-0.1-0.799c0.135-0.934,0.367-1.834,0.701-2.701l5.199-0.4h0.1l0.1,0.201
		c0.668,2.066,0.201,3.799-1.398,5.199v0.1l-2.102,1.4l0.102-0.1l-4.4,0.4h-0.1c-1-0.068-1.768-0.533-2.301-1.4
		c-0.867-1.332-1.234-2.734-1.1-4.199l0.699-4l1-2l0.1-0.801l-0.398-0.6L52.44,66.07l-0.6,0.5l-1.201,2.5l-0.799,4.5
		c-0.135,1.801,0.334,3.566,1.4,5.301c0.867,1.467,2.1,2.266,3.699,2.4l5.6-0.6h0.201l2-1.4l-0.4,0.6h-0.1
		c-2.066,2.4-4.602,3.9-7.602,4.5h-0.1l-2.799-0.4l-3.801-1.799l0.199-0.602l-0.199-1.5l-0.199-0.898l-0.102-0.102l-1.199-2.1
		c-0.801-1.133-2.1-1.6-3.9-1.4l-0.6,0.4l-0.301,0.701l0.4,0.699l0.701,0.199c1-0.066,1.699,0.133,2.1,0.602l0.1,0.1l0.9,1.6v0.1
		l0.1,0.1l0.1,0.301L46.139,81.07 M64.04,45.571l-1.299-1.4l-0.102-0.1l-4.898,0.2c-1.268,0.8-2.268,1.8-3,3
		c-2.535,3.933-2,7.5,1.6,10.699c2.6,2.4,5.4,2.434,8.4,0.101l0.199-0.101c0.801-1.066,0.934-2.267,0.4-3.6l-0.9-1l-2.4-1.6
		l-0.1-0.101l-2.6-1.1l-0.801,0.1l-0.4,0.601c-0.133,0.199-0.1,0.433,0.102,0.699l0.6,0.5l2.1,1h0.1l2.301,1.601l0.199,0.1
		l0.1,0.101h-0.1c0.201,0.467,0.166,0.899-0.1,1.3l-5.801-0.101c-2.732-2.466-3.133-5.166-1.199-8.1c0.533-1,1.332-1.8,2.4-2.4h-0.1
		l2.898-0.1l0.701,0.7l0.6,0.5l0.699-0.101l0.5-0.6L64.04,45.571 M89.84,46.271l1.799-0.301l0.5-0.199l0.301-0.301l0.199-0.6
		c2.066-0.8,4.168-0.6,6.301,0.6c0.133,1.867-0.1,3.2-0.699,4c-0.734,0.733-1.934,0.934-3.602,0.601l0.102,0.1l-0.701-0.2
		l-0.299-0.1l-0.301-0.1h-0.1v-0.101c-1.801-0.666-3.135-1.8-4-3.399h0.299H89.84"/>
	<path style="fill:#CDCCCC;" d="M47.34,39.071l-0.9,0.3h0.1l0.4-0.2l0.301-0.1H47.34"/>
	<path style="fill:#1E7933;" d="M48.44,40.871l-0.6,0.2l-1.5,0.5l-0.301,0.2c-2.334,0.933-4.268,2.733-5.799,5.399l-0.801,1.601
		l-0.1,0.199l-0.201,0.2v0.5c-3.133,8.867-2.867,17.333,0.801,25.399c1.801,2.4,3.867,4.4,6.199,6v0.5l0.301,0.701l0.699,0.299
		l0.701-0.299l0.1-0.1l3.801,1.799l2.799,0.4h0.1c3-0.6,5.535-2.1,7.602-4.5h0.1l0.4-0.6l0.199-0.201h0.1
		c2.268-1.934,2.967-4.332,2.1-7.199c0.734-7.066,3.834-13.733,9.301-20l0.1-0.5c0.135,0.134,0.301,0.2,0.5,0.2l0.701-0.2l1.6-1
		l7.9-1.7l0.6,0.101l0.5,0.5l0.1,0.6c-0.199,1-0.199,1.867,0,2.6l4.801-1.5c-1.734-1-3.035-2.433-3.9-4.3
		c-0.135-0.2-0.166-0.399-0.1-0.6l-3.102-0.601l-0.699-0.1h-0.1l-2.701-0.4l-0.5,0.601l-0.699,0.1l-3.9-1.1
		c-1.865-0.733-3.666-1.566-5.4-2.5L69.94,41.97l-3.199-1.5l0.1,0.101c-5.666-2.134-11.467-2.167-17.4-0.101h-0.199l-0.5,0.2
		l-0.102,0.101L48.44,40.871 M47.34,39.071l0.4-0.101l1.1-0.5c6.4-2.133,12.633-2.066,18.699,0.2l3.6,1.601l0.201,0.199
		c1.6,0.801,3.232,1.534,4.9,2.2h-0.102l3.801,1.101l0.6,0.399l1.801-1l1.299,0.2l0.9,0.1l0.1,0.101l3.801,0.6h0.1l0.9,0.101
		l1.4-0.2l0.1-0.4l0.5-0.5c3-1.267,6-0.967,9,0.9l0.301,0.3l0.1,0.4c0.334,2.8-0.033,4.8-1.1,6c-1.133,1.333-2.969,1.767-5.5,1.3
		h-0.102l-8.199,2.6l-0.6-0.1l-0.5-0.5c-0.4-0.8-0.568-1.833-0.5-3.101l-8,1.7l-0.201,0.3c-5.732,6.534-8.799,13.5-9.199,20.9
		c-0.066,1.6-0.533,3.168-1.4,4.699l-0.199,0.4v0.1l-1.5,2v0.102c-2.4,2.732-5.334,4.465-8.801,5.199h-0.1h-1.1l-2.801-0.5
		c-5.133-1.934-9.365-5.168-12.699-9.699l-0.1-0.201l-0.102-0.1c-3.934-8.6-4.232-17.566-0.898-26.9l0.299-0.5l0.1-0.5
		c1.801-4,4.234-6.666,7.301-8l0.199-0.1l1.301-0.5L47.34,39.071 M89.639,46.271H89.34c0.865,1.6,2.199,2.733,4,3.399v0.101h0.1
		l0.301,0.1l0.299,0.1l0.701,0.2l-0.102-0.1c1.668,0.333,2.867,0.133,3.602-0.601c0.6-0.8,0.832-2.133,0.699-4
		c-2.133-1.199-4.234-1.399-6.301-0.6l-0.199,0.6l-0.301,0.301l-0.5,0.199l-1.799,0.301H89.639"/>
	<path style="fill:#C0D3B8;" d="M74.34,51.171l-0.201-0.7l0.4-0.699c1.732-1.4,3.568-2.2,5.5-2.4l0.701,0.2l0.398,0.7L80.94,48.97
		l-0.699,0.4l-2.9,1l-1.6,1l-0.701,0.2c-0.199,0-0.365-0.066-0.5-0.2L74.34,51.171 M60.741,80.671H60.54l-5.6,0.6
		c-1.6-0.135-2.832-0.934-3.699-2.4c-1.066-1.734-1.535-3.5-1.4-5.301l0.799-4.5l1.201-2.5l0.6-0.5l0.801,0.201l0.398,0.6
		l-0.1,0.801l-1,2l-0.699,4c-0.135,1.465,0.232,2.867,1.1,4.199c0.533,0.867,1.301,1.332,2.301,1.4h0.1l4.4-0.4l-0.102,0.1
		l2.102-1.4v-0.1c1.6-1.4,2.066-3.133,1.398-5.199l-0.1-0.201h-0.1l-5.199,0.4c-0.334,0.867-0.566,1.768-0.701,2.701l0.1,0.799
		l-0.299,0.5l-0.5,0.4c-0.467,0.199-0.834,0.133-1.1-0.199l-0.301-0.5l0.1-1.201l1-3.799l0.301-0.5
		c0.133-0.133,0.334-0.201,0.6-0.201l6.301-0.4l0.6,0.201l0.699,0.6l0.4,0.5l0.199,0.5c0.867,2.867,0.168,5.266-2.1,7.199h-0.1
		l-0.199,0.201L60.741,80.671 M46.04,80.371l-0.1-0.301l-0.1-0.1v-0.1l-0.9-1.6l-0.1-0.1c-0.4-0.469-1.1-0.668-2.1-0.602
		l-0.701-0.199l-0.4-0.699l0.301-0.701l0.6-0.4c1.801-0.199,3.1,0.268,3.9,1.4l1.199,2.1l0.102,0.102l0.199,0.898l0.199,1.5
		l-0.199,0.602l-0.1,0.1l-0.701,0.299l-0.699-0.299l-0.301-0.701v-0.5L46.04,80.371 M45.34,60.371c-0.068,0.533-0.367,1.033-0.9,1.5
		l-0.699,0.3H41.44l-0.5-0.1l-0.301-0.4l-0.699-1.3l-0.801-0.4l-0.398-0.6l0.1-0.8c0.133-0.267,0.334-0.4,0.6-0.4l0.699,0.101l1,0.6
		l0.4,0.3l0.5,1h1.201l0.1-0.2c0.865-4.333-0.467-8-4-11l0.1-0.199l0.801-1.601C44.706,50.704,46.407,55.104,45.34,60.371
		 M47.84,41.071l0.6-0.2l0.199-0.1c0.268,0.267,0.633,0.433,1.102,0.5h0.1l0.799,0.1h0.201l0.9-0.2l0.6-0.5h0.799l0.5,0.601
		l-0.1,0.8c-0.467,1.066-1.467,1.5-3,1.3l-1.1-0.1C48.174,43.204,47.639,42.47,47.84,41.071 M64.139,46.371l-0.5,0.6l-0.699,0.101
		l-0.6-0.5l-0.701-0.7l-2.898,0.1h0.1c-1.068,0.601-1.867,1.4-2.4,2.4c-1.934,2.934-1.533,5.634,1.199,8.1l5.801,0.101
		c0.266-0.4,0.301-0.833,0.1-1.3h0.1l-0.1-0.101l-0.199-0.1L61.04,53.47h-0.1l-2.1-1l-0.6-0.5c-0.201-0.267-0.234-0.5-0.102-0.699
		l0.4-0.601l0.801-0.1l2.6,1.1l0.1,0.101l2.4,1.6l0.9,1c0.533,1.333,0.4,2.533-0.4,3.6l-0.199,0.101c-3,2.333-5.801,2.3-8.4-0.101
		c-3.6-3.199-4.135-6.767-1.6-10.699c0.732-1.2,1.732-2.2,3-3l4.898-0.2l0.102,0.1l1.299,1.4L64.139,46.371"/>
</g>
</svg>
