<svg height="182" width="160" xmlns:xlink="http://www.w3.org/1999/xlink" xmlns="http://www.w3.org/2000/svg"><defs><use height="3" transform="translate(.8)" width="3" xlink:href="#a" id="d"/><use height="24.75" width="33" xlink:href="#b" id="c"/><path d="M1.35 0h.2l.55.1.45.35q.45.45.45 1L2.55 2.6q-.45.4-1 .4l-.8-.2-.25-.2-.45-.7v-.15L0 1.45v-.1q.05-.5.5-.9l.25-.2Q1 .05 1.3 0h.05m.45.85L1.55.8Q1.2.75 1 1q-.2.15-.2.45v.15l.15.45H1l.05.05.2.1.3.05.55-.2.15-.6-.05-.3L2.1 1 2.05.95 1.9.85h-.1" fill-rule="evenodd" id="a"/><g id="b" fill-rule="evenodd"><path d="m-2.25-9.9.05-.05.25-.1h.1q4.45-1.55 8.7.05l-.05-.05 1.6.75.1.05q1.3.7 2.7 1.25l1.95.55.35-.05.25-.3 1.35.2h.05l.35.05 1.55.3q-.05.15.05.3.65 1.4 1.95 2.15l-2.4.75q-.15-.55 0-1.3l-.05-.3-.25-.25-.3-.05-3.95.85 1.45-.5.35-.2.1-.35-.2-.35-.35-.1Q12-6.45 10.7-5.4l-.2.35.1.35.1.1-.05.25Q6.55.35 6 5.65l-.1-.25-.2-.25-.35-.3-.3-.1-3.15.2q-.2 0-.3.1l-.15.25-.5 1.9-.05.6.15.25q.2.25.55.1l.25-.2L2 7.7l-.05-.4q.1-.7.35-1.35l2.6-.2h.05l.05.1q.5 1.55-.7 2.6v.05l-1.05.7.05-.05-2.2.2h-.05Q.3 9.3-.1 8.65q-.65-1-.55-2.1l.35-2 .5-1 .05-.4-.2-.3-.4-.1-.3.25-.6 1.25-.4 2.25q-.1 1.35.7 2.65.65 1.1 1.85 1.2l2.8-.3h.1l1-.7-.2.3h-.05Q3 11.45.75 11.9H.7l-1.4-.2-1.9-.9.1-.3-.1-.75-.1-.45-.05-.05-.6-1.05q-.6-.85-1.95-.7l-.3.2-.15.35.2.35.35.1q.75-.05 1.05.3l.05.05.45.8v.05l.05.05.05.15.05.35q-1.75-1.2-3.1-3Q-9.35 1.2-7-5.45v-.25l.1-.1q2.65 2.25 2 5.5l-.05.1h-.6l-.25-.5-.2-.15-.5-.3-.35-.05q-.2 0-.3.2l-.05.4.2.3.4.2.35.65.15.2.25.05h1.15l.35-.15q.4-.35.45-.75.8-3.95-2.55-6.6 1.15-2 2.9-2.7l.15-.1.75-.25q-.15 1.05.8 1.1l.55.05q1.15.15 1.5-.65l.05-.4-.25-.3h-.4l-.3.25-.45.1h-.1l-.4-.05h-.05q-.35-.05-.55-.25m7.7 2.4-.65-.7-.05-.05-2.45.1q-.95.6-1.5 1.5-1.9 2.95.8 5.35 1.95 1.8 4.2.05l.1-.05q.6-.8.2-1.8l-.45-.5-1.2-.8-.05-.05L3.1-5l-.4.05-.2.3q-.1.15.05.35l.3.25 1.05.5h.05l1.15.8.1.05.05.05H5.2q.15.35-.05.65l-2.9-.05Q.2-3.9 1.65-6.1q.4-.75 1.2-1.2H2.8l1.45-.05.35.35.3.25.35-.05.25-.3-.05-.4m12.9.35.9-.15.25-.1.15-.15.1-.3q1.55-.6 3.15.3.1 1.4-.35 2-.55.55-1.8.3l.05.05-.35-.1-.15-.05-.15-.05h-.05v-.05q-1.35-.5-2-1.7h.25" fill="#12a001" transform="translate(9.1 11.85)"/><path d="m-2.9-10.75-.45.15h.05l.2-.1.15-.05h.05" fill="#ccc" transform="translate(9.1 11.85)"/><path d="m12.1-5.1 3.95-.85.3.05.25.25.05.3q-.15.75 0 1.3l2.4-.75q-1.3-.75-1.95-2.15-.1-.15-.05-.3l-1.55-.3-.35-.05h-.05l-1.35-.2-.25.3-.35.05L11.2-8q-1.4-.55-2.7-1.25l-.1-.05-1.6-.75.05.05q-4.25-1.6-8.7-.05h-.1l-.25.1-.05.05-.1.05-.3.1-.75.25-.15.1q-1.75.7-2.9 2.7l-.4.8-.05.1-.1.1v.25q-2.35 6.65.4 12.7 1.35 1.8 3.1 3v.25l.15.35.35.15.35-.15.05-.05 1.9.9 1.4.2h.05q2.25-.45 3.8-2.25h.05l.2-.3.1-.1h.05Q6.65 7.8 6 5.65q.55-5.3 4.65-10l.05-.25q.1.1.25.1l.35-.1.8-.5m-15-5.65.2-.05.55-.25q4.8-1.6 9.35.1l1.8.8.1.1q1.2.6 2.45 1.1h-.05l1.9.55.3.2.9-.5.65.1.45.05.05.05 1.9.3h.05l.45.05.7-.1.05-.2.25-.25q2.25-.95 4.5.45l.15.15.05.2q.25 2.1-.55 3-.85 1-2.75.65h-.05l-4.1 1.3-.3-.05-.25-.25q-.3-.6-.25-1.55l-4 .85-.1.15Q7.2 1.1 6.9 6.65 6.85 7.85 6.2 9l-.1.2v.05l-.75 1v.05q-1.8 2.05-4.4 2.6h-.6l-1.4-.25Q-4.9 11.2-7.4 7.8l-.05-.1-.05-.05Q-10.45 1.2-7.95-5.8l.15-.25.05-.25q1.35-3 3.65-4l.1-.05.65-.25.45-.15m21.25 3.6h-.25q.65 1.2 2 1.7v.05h.05l.15.05.15.05.35.1-.05-.05q1.25.25 1.8-.3.45-.6.35-2-1.6-.9-3.15-.3l-.1.3-.15.15-.25.1-.9.15" fill="#167801" transform="translate(9.1 11.85)"/><path d="m12.1-5.1-.8.5-.35.1q-.15 0-.25-.1l-.1-.1-.1-.35.2-.35q1.3-1.05 2.75-1.2l.35.1.2.35-.1.35-.35.2-1.45.5M6 5.65q.65 2.15-1.05 3.6H4.9l-.1.1-1 .7h-.1l-2.8.3q-1.2-.1-1.85-1.2-.8-1.3-.7-2.65l.4-2.25.6-1.25.3-.25.4.1.2.3-.05.4-.5 1-.35 2q-.1 1.1.55 2.1.4.65 1.15.7h.05l2.2-.2-.05.05 1.05-.7v-.05q1.2-1.05.7-2.6l-.05-.1H4.9l-2.6.2q-.25.65-.35 1.35l.05.4-.15.25-.25.2q-.35.15-.55-.1L.9 7.8l.05-.6.5-1.9.15-.25q.1-.1.3-.1l3.15-.2.3.1.35.3.2.25.1.25m-8.6 5.15-.05.05L-3 11l-.35-.15-.15-.35v-.25l-.05-.35-.05-.15-.05-.05v-.05l-.45-.8-.05-.05q-.3-.35-1.05-.3l-.35-.1-.2-.35.15-.35.3-.2q1.35-.15 1.95.7l.6 1.05.05.05.1.45.1.75-.1.3M-6.9-5.8l.05-.1.4-.8Q-3.1-4.05-3.9-.1q-.05.4-.45.75L-4.7.8h-1.15L-6.1.75l-.15-.2-.35-.65-.4-.2-.2-.3.05-.4q.1-.2.3-.2l.35.05.5.3.2.15.25.5h.6l.05-.1q.65-3.25-2-5.5m4.25-3.95.3-.1.1-.05q.2.2.55.25h.05l.4.05h.1l.45-.1.3-.25H0l.25.3-.05.4q-.35.8-1.5.65l-.55-.05q-.95-.05-.8-1.1m8.1 2.25.05.4-.25.3-.35.05L4.6-7l-.35-.35-1.45.05h.05q-.8.45-1.2 1.2-1.45 2.2.6 4.05l2.9.05q.2-.3.05-.65h.05L5.2-2.7l-.1-.05-1.15-.8H3.9l-1.05-.5-.3-.25q-.15-.2-.05-.35l.2-.3.4-.05 1.3.55.05.05 1.2.8.45.5q.4 1-.2 1.8l-.1.05Q3.55.5 1.6-1.3-1.1-3.7.8-6.65q.55-.9 1.5-1.5l2.45-.1.05.05.65.7" fill="#bfd3b8" transform="translate(9.1 11.85)"/></g></defs><path d="M80.1 22h7.818l2.405 1.1 7.718-17.2 7.718 17.2 2.505-1.1 6.315 6.1 2.305 2.2-.802.8.2.2q4.21 4.1 4.712 9.1v1.2q0 3.3-1.604 6.2l-.501.9-2.807 3.4.2.2-.6.6-6.516 1.8v9.4l-6.515 1.4-6.214 1.8 1.303 3.2 6.615-2.5 6.014-1.2q3.107 0 4.31 1.2 1.604 1.6 1.604 4 0 2.2-1.504 3.7-2.105 2.1-8.118 2.5l-2.606.1.701 3 3.007-.1-.1 5.5-3.007 2.5v24.5l-1.704 9.2h-3.007V136q0 1.4-.902 2.3-1.102 1.1-3.207 1.1-2.205 0-3.308-1.1-.802-.9-.802-2.3v-13.1H88.62l-4.71-7H80.4l-7.116 7V136q0 1.4-.902 2.3-1.103 1.1-3.207 1.1-2.205 0-3.308-1.1-.802-.9-.802-2.3v-13.1h-3.107l-3.408-2.2-3.508-7.8v-7.8l.902-.8q1.504-1.2 2.707-3.1l-2.506-2q-.802 1.3-1.403 1.9l.801-21.9 3.508-25.6.802.7 1.504-1.4-2.005-2.2q-3.007-3.8-3.007-8.3l.2-2q.702-4.6 4.812-8.5l-1.504-1.5 1.003-7.9 1.303.6 7.717-17.2 7.718 17.2L80.1 22m34.479 6.1 2.305 2.2-2.305-2.2m-8.72 26.7 1.503-3.1V49h-3.007v2.9h1.103l-1.103 2.9h1.504m-5.813 0 1.503-3.1V49h-3.007v2.9h1.103l-1.103 2.9h1.504" fill="#fff" fill-rule="evenodd"/><path d="m80.1 22-2.506 1.1-7.718-17.2-7.717 17.2-1.303-.6-1.103-.5L69.876 0 80.1 22m-20.247 8.4 1.504 1.5q-4.11 3.9-4.811 8.5l-.2 2q0 4.5 3.006 8.3l2.005 2.2-1.504 1.4-.802-.7-1.202-1.4q-3.609-4.4-3.609-9.8l.2-2q.602-5.6 5.413-10m-5.111 70.7q.6-.6 1.403-1.9l2.506 2q-1.203 1.9-2.707 3.1l-.902.8q-1.403.9-3.207.9-1.904 0-5.312-2.2-2.306-1.3-3.81-1.3-1.703 0-2.605 1.1l-1.203 1.9L36.2 104l2.406-3.3q1.703-1.6 3.908-1.6 2.206 0 4.51 1.6 3.308 1.7 5.113 1.7 1.303 0 2.606-1.3m7.216 21.8h3.107V136q0 1.4.802 2.3 1.103 1.1 3.308 1.1 2.104 0 3.207-1.1.902-.9.902-2.3v-13.1h3.007v13.2q0 2.5-1.604 4.1-1.804 1.8-5.512 1.8-3.81 0-5.613-1.8-1.604-1.6-1.604-4.1v-13.2m26.661 0h3.107V136q0 1.4.802 2.3 1.103 1.1 3.308 1.1 2.105 0 3.207-1.1.902-.9.902-2.3v-13.1h3.007v13.2q0 2.5-1.603 4.1-1.805 1.8-5.513 1.8-3.809 0-5.613-1.8-1.604-1.6-1.604-4.1v-13.2m19.144-41.7-3.007.1-.701-3 2.606-.1q6.013-.4 8.118-2.5 1.504-1.5 1.504-3.7 0-2.4-1.604-4-1.203-1.2-4.31-1.2l-6.014 1.2-6.615 2.5-1.303-3.2 6.214-1.8 6.515-1.4 1.504-.1q4.41 0 6.515 2.1 2.205 2.1 2.205 5.7 0 3.7-2.005 5.7l-.802.7q-3.107 2.4-8.82 3m8.52-28.9-.2-.2 2.806-3.4.5-.9q1.605-2.9 1.605-6.2v-1.2q-.502-5-4.711-9.1l-.2-.2.801-.8.602-.7q5.111 4.7 5.612 10.8v1.2q0 3.8-1.804 7.1-1.403 2.5-3.808 4.8l-1.203-1.2m-8.02-30.3-2.505 1.1L98.04 5.9l-7.718 17.2-2.405-1.1L98.04 0l10.223 22m-8.218 32.8h-1.504l1.103-2.9h-1.103V49h3.007v2.7l-1.503 3.1m5.813 0h-1.504l1.103-2.9h-1.103V49h3.007v2.7l-1.503 3.1" fill-rule="evenodd"/><path d="M4.15-60H.25M12.5-14.15V-26.4m6.1-29.45-1.15-1.1" fill="none" stroke="#000" stroke-linecap="round" stroke-linejoin="round" transform="matrix(2.0046 0 0 2 79.599 142)"/><use height="24.75" transform="matrix(2 0 0 2 46.399 52.5)" width="33" xlink:href="#c"/><use height="3" transform="matrix(2.0124 0 0 2 106.312 28.6)" width="4.65" xlink:href="#d" id="gikopoipoi_eyes_open" style="display:inline"/><path d="M107.798 31.7h6.3" stroke-width="3" id="gikopoipoi_eyes_closed" style="display:none" fill="none" stroke="#000" stroke-linecap="round" stroke-linejoin="round"/></svg>