<svg xmlns="http://www.w3.org/2000/svg" xmlns:xlink="http://www.w3.org/1999/xlink" height="182" width="160"><defs><g id="e" transform="translate(21.65 71)"><use height="71" transform="translate(-21.65 -71)" width="43.35" xlink:href="#a"/><use height="3" transform="translate(13.35 -56.7)" width="4.65" xlink:href="#b"/></g><g id="a"><path d="M.25-60h3.9l1.2.55 3.85-8.6 3.85 8.6L14.3-60l3.15 3.05 1.15 1.1-.4.4.1.1q2.1 2.05 2.35 4.55v.6q0 1.65-.8 3.1l-.25.45-1.4 1.7.1.1-.3.3-3.25.9v4.7l-3.25.7-3.1.9.65 1.6 3.3-1.25 3-.6q1.55 0 2.15.6.8.8.8 2 0 1.1-.75 1.85-1.05 1.05-4.05 1.25l-1.3.05.35 1.5 1.5-.05-.05 2.75-1.5 1.25v12.25l-.85 4.6h-1.5V-3q0 .7-.45 1.15-.55.55-1.6.55-1.1 0-1.65-.55-.4-.45-.4-1.15v-6.55H4.5l-2.35-3.5H.4l-3.55 3.5V-3q0 .7-.45 1.15-.55.55-1.6.55-1.1 0-1.65-.55-.4-.45-.4-1.15v-6.55H-8.8l-1.7-1.1-1.75-3.9v-3.9l.45-.4q.75-.6 1.35-1.55l-1.25-1q-.4.65-.7.95l.4-10.95 1.75-12.8.4.35.75-.7-1-1.1q-1.5-1.9-1.5-4.15l.1-1q.35-2.3 2.4-4.25l-.75-.75.5-3.95.65.3 3.85-8.6 3.85 8.6L.25-60m17.2 3.05l1.15 1.1-1.15-1.1M13.1-43.6l.75-1.55v-1.35h-1.5v1.45h.55l-.55 1.45h.75m-2.9 0l.75-1.55v-1.35h-1.5v1.45H10l-.55 1.45h.75" fill="#fff" fill-rule="evenodd" transform="translate(21.65 71)"/><path d="M.25-60l-1.25.55-3.85-8.6-3.85 8.6-.65-.3-.55-.25 5.05-11 5.1 11m-10.1 4.2l.75.75q-2.05 1.95-2.4 4.25l-.1 1q0 2.25 1.5 4.15l1 1.1-.75.7-.4-.35-.6-.7q-1.8-2.2-1.8-4.9l.1-1q.3-2.8 2.7-5m-2.55 35.35q.3-.3.7-.95l1.25 1q-.6.95-1.35 1.55l-.45.4q-.7.45-1.6.45-.95 0-2.65-1.1-1.15-.65-1.9-.65-.85 0-1.3.55l-.6.95-1.35-.75 1.2-1.65q.85-.8 1.95-.8t2.25.8q1.65.85 2.55.85.65 0 1.3-.65m3.6 10.9h1.55V-3q0 .7.4 1.15.55.55 1.65.55 1.05 0 1.6-.55.45-.45.45-1.15v-6.55h1.5v6.6q0 1.25-.8 2.05-.9.9-2.75.9Q-7.1 0-8-.9q-.8-.8-.8-2.05v-6.6m13.3 0h1.55V-3q0 .7.4 1.15.55.55 1.65.55 1.05 0 1.6-.55.45-.45.45-1.15v-6.55h1.5v6.6q0 1.25-.8 2.05-.9.9-2.75.9-1.9 0-2.8-.9-.8-.8-.8-2.05v-6.6m9.55-20.85l-1.5.05-.35-1.5 1.3-.05q3-.2 4.05-1.25.75-.75.75-1.85 0-1.2-.8-2-.6-.6-2.15-.6l-3 .6-3.3 1.25-.65-1.6 3.1-.9 3.25-.7.75-.05q2.2 0 3.25 1.05 1.1 1.05 1.1 2.85 0 1.85-1 2.85l-.4.35q-1.55 1.2-4.4 1.5m4.25-14.45l-.1-.1 1.4-1.7.25-.45q.8-1.45.8-3.1v-.6q-.25-2.5-2.35-4.55l-.1-.1.4-.4.3-.35q2.55 2.35 2.8 5.4v.6q0 1.9-.9 3.55-.7 1.25-1.9 2.4l-.6-.6M14.3-60l-1.25.55-3.85-8.6-3.85 8.6-1.2-.55L9.2-71l5.1 11m-4.1 16.4h-.75l.55-1.45h-.55v-1.45h1.5v1.35l-.75 1.55m2.9 0h-.75l.55-1.45h-.55v-1.45h1.5v1.35l-.75 1.55" fill-rule="evenodd" transform="translate(21.65 71)"/><path d="M4.15-60H.25M12.5-14.15V-26.4m6.1-29.45l-1.15-1.1" fill="none" stroke="#000" stroke-linecap="round" stroke-linejoin="round" transform="translate(21.65 71)"/></g><g id="d" fill-rule="evenodd"><path d="M-2.25-9.9l.05-.05.25-.1h.1q4.45-1.55 8.7.05l-.05-.05 1.6.75.1.05q1.3.7 2.7 1.25l1.95.55.35-.05.25-.3 1.35.2h.05l.35.05 1.55.3q-.05.15.05.3.65 1.4 1.95 2.15l-2.4.75q-.15-.55 0-1.3l-.05-.3-.25-.25-.3-.05-3.95.85 1.45-.5.35-.2.1-.35-.2-.35-.35-.1Q12-6.45 10.7-5.4l-.2.35.1.35.1.1-.05.25Q6.55.35 6 5.65l-.1-.25-.2-.25-.35-.3-.3-.1-3.15.2q-.2 0-.3.1l-.15.25-.5 1.9-.05.6.15.25q.2.25.55.1l.25-.2L2 7.7l-.05-.4q.1-.7.35-1.35l2.6-.2h.05l.05.1q.5 1.55-.7 2.6v.05l-1.05.7.05-.05-2.2.2h-.05Q.3 9.3-.1 8.65q-.65-1-.55-2.1l.35-2 .5-1 .05-.4-.2-.3-.4-.1-.3.25-.6 1.25-.4 2.25q-.1 1.35.7 2.65.65 1.1 1.85 1.2l2.8-.3h.1l1-.7-.2.3h-.05Q3 11.45.75 11.9H.7l-1.4-.2-1.9-.9.1-.3-.1-.75-.1-.45-.05-.05-.6-1.05q-.6-.85-1.95-.7l-.3.2-.15.35.2.35.35.1q.75-.05 1.05.3l.05.05.45.8v.05l.05.05.05.15.05.35q-1.75-1.2-3.1-3Q-9.35 1.2-7-5.45v-.25l.1-.1q2.65 2.25 2 5.5l-.05.1h-.6l-.25-.5-.2-.15-.5-.3-.35-.05q-.2 0-.3.2l-.05.4.2.3.4.2.35.65.15.2.25.05h1.15l.35-.15q.4-.35.45-.75.8-3.95-2.55-6.6 1.15-2 2.9-2.7l.15-.1.75-.25q-.15 1.05.8 1.1l.55.05q1.15.15 1.5-.65l.05-.4-.25-.3h-.4l-.3.25-.45.1h-.1l-.4-.05h-.05q-.35-.05-.55-.25m7.7 2.4l-.65-.7-.05-.05-2.45.1q-.95.6-1.5 1.5-1.9 2.95.8 5.35 1.95 1.8 4.2.05l.1-.05q.6-.8.2-1.8l-.45-.5-1.2-.8-.05-.05L3.1-5l-.4.05-.2.3q-.1.15.05.35l.3.25 1.05.5h.05l1.15.8.1.05.05.05H5.2q.15.35-.05.65l-2.9-.05Q.2-3.9 1.65-6.1q.4-.75 1.2-1.2H2.8l1.45-.05.35.35.3.25.35-.05.25-.3-.05-.4m12.9.35l.9-.15.25-.1.15-.15.1-.3q1.55-.6 3.15.3.1 1.4-.35 2-.55.55-1.8.3l.05.05-.35-.1-.15-.05-.15-.05h-.05v-.05q-1.35-.5-2-1.7h.25" fill="#12a001" transform="translate(9.1 11.85)"/><path d="M-2.9-10.75l-.45.15h.05l.2-.1.15-.05h.05" fill="#ccc" transform="translate(9.1 11.85)"/><path d="M12.1-5.1l3.95-.85.3.05.25.25.05.3q-.15.75 0 1.3l2.4-.75q-1.3-.75-1.95-2.15-.1-.15-.05-.3l-1.55-.3-.35-.05h-.05l-1.35-.2-.25.3-.35.05L11.2-8q-1.4-.55-2.7-1.25l-.1-.05-1.6-.75.05.05q-4.25-1.6-8.7-.05h-.1l-.25.1-.05.05-.1.05-.3.1-.75.25-.15.1q-1.75.7-2.9 2.7l-.4.8-.05.1-.1.1v.25q-2.35 6.65.4 12.7 1.35 1.8 3.1 3v.25l.15.35.35.15.35-.15.05-.05 1.9.9 1.4.2h.05q2.25-.45 3.8-2.25h.05l.2-.3.1-.1h.05Q6.65 7.8 6 5.65q.55-5.3 4.65-10l.05-.25q.1.1.25.1l.35-.1.8-.5m-15-5.65l.2-.05.55-.25q4.8-1.6 9.35.1l1.8.8.1.1q1.2.6 2.45 1.1h-.05l1.9.55.3.2.9-.5.65.1.45.05.05.05 1.9.3h.05l.45.05.7-.1.05-.2.25-.25q2.25-.95 4.5.45l.15.15.05.2q.25 2.1-.55 3-.85 1-2.75.65h-.05l-4.1 1.3-.3-.05-.25-.25q-.3-.6-.25-1.55l-4 .85-.1.15Q7.2 1.1 6.9 6.65 6.85 7.85 6.2 9l-.1.2v.05l-.75 1v.05q-1.8 2.05-4.4 2.6h-.6l-1.4-.25Q-4.9 11.2-7.4 7.8l-.05-.1-.05-.05Q-10.45 1.2-7.95-5.8l.15-.25.05-.25q1.35-3 3.65-4l.1-.05.65-.25.45-.15m21.25 3.6h-.25q.65 1.2 2 1.7v.05h.05l.15.05.15.05.35.1-.05-.05q1.25.25 1.8-.3.45-.6.35-2-1.6-.9-3.15-.3l-.1.3-.15.15-.25.1-.9.15" fill="#167801" transform="translate(9.1 11.85)"/><path d="M12.1-5.1l-.8.5-.35.1q-.15 0-.25-.1l-.1-.1-.1-.35.2-.35q1.3-1.05 2.75-1.2l.35.1.2.35-.1.35-.35.2-1.45.5M6 5.65q.65 2.15-1.05 3.6H4.9l-.1.1-1 .7h-.1l-2.8.3q-1.2-.1-1.85-1.2-.8-1.3-.7-2.65l.4-2.25.6-1.25.3-.25.4.1.2.3-.05.4-.5 1-.35 2q-.1 1.1.55 2.1.4.65 1.15.7h.05l2.2-.2-.05.05 1.05-.7v-.05q1.2-1.05.7-2.6l-.05-.1H4.9l-2.6.2q-.25.65-.35 1.35l.05.4-.15.25-.25.2q-.35.15-.55-.1L.9 7.8l.05-.6.5-1.9.15-.25q.1-.1.3-.1l3.15-.2.3.1.35.3.2.25.1.25m-8.6 5.15l-.05.05L-3 11l-.35-.15-.15-.35v-.25l-.05-.35-.05-.15-.05-.05v-.05l-.45-.8-.05-.05q-.3-.35-1.05-.3l-.35-.1-.2-.35.15-.35.3-.2q1.35-.15 1.95.7l.6 1.05.05.05.1.45.1.75-.1.3M-6.9-5.8l.05-.1.4-.8Q-3.1-4.05-3.9-.1q-.05.4-.45.75L-4.7.8h-1.15L-6.1.75l-.15-.2-.35-.65-.4-.2-.2-.3.05-.4q.1-.2.3-.2l.35.05.5.3.2.15.25.5h.6l.05-.1q.65-3.25-2-5.5m4.25-3.95l.3-.1.1-.05q.2.2.55.25h.05l.4.05h.1l.45-.1.3-.25H0l.25.3-.05.4q-.35.8-1.5.65l-.55-.05q-.95-.05-.8-1.1m8.1 2.25l.05.4-.25.3-.35.05L4.6-7l-.35-.35-1.45.05h.05q-.8.45-1.2 1.2-1.45 2.2.6 4.05l2.9.05q.2-.3.05-.65h.05L5.2-2.7l-.1-.05-1.15-.8H3.9l-1.05-.5-.3-.25q-.15-.2-.05-.35l.2-.3.4-.05 1.3.55.05.05 1.2.8.45.5q.4 1-.2 1.8l-.1.05Q3.55.5 1.6-1.3-1.1-3.7.8-6.65q.55-.9 1.5-1.5l2.45-.1.05.05.65.7" fill="#bfd3b8" transform="translate(9.1 11.85)"/></g><use height="3" transform="translate(.8)" width="3" xlink:href="#c" id="b"/><use height="24.75" width="33" xlink:href="#d" id="f"/><path d="M1.35 0h.2l.55.1.45.35q.45.45.45 1L2.55 2.6q-.45.4-1 .4l-.8-.2-.25-.2-.45-.7v-.15L0 1.45v-.1q.05-.5.5-.9l.25-.2Q1 .05 1.3 0h.05m.45.85L1.55.8Q1.2.75 1 1q-.2.15-.2.45v.15l.15.45H1l.05.05.2.1.3.05.55-.2.15-.6-.05-.3L2.1 1 2.05.95 1.9.85h-.1" fill-rule="evenodd" id="c"/></defs><g transform="matrix(2 0 0 2 79.399 142)"><use height="71" transform="matrix(1.0023 0 0 1 -21.6 -71)" width="43.35" xlink:href="#e"/><use height="24.75" transform="translate(-16.5 -44.75)" width="33" xlink:href="#f"/></g></svg>