<svg height="182" width="160" xmlns:xlink="http://www.w3.org/1999/xlink" xmlns="http://www.w3.org/2000/svg"><defs><use height="22.45" width="38.25" xlink:href="#a" id="b"/><g id="a" fill-rule="evenodd"><path d="M10.4-5.2q-.8.15-1.45.6v-.05q.6-.5 1.45-.55" fill="#0ccb01" transform="translate(15.05 7.95)"/><path d="M.55-.5v-.05l.05-.3.45-.3.45-.4.55-.2.35-.15.1-.4-.15-.3-.4-.15q-.7.05-1.15.5l-.1.05-.25.25-.05.05-.15.15H.2q-.9.3-.55 1.2l.25.25.15.05-1.65 1.3-.05.05h.05q-1.15 1-1.85 3.25L-5.7 11.1q-.65 2.05-1.8 2.35-1.25.2-3.1-1.35l-.25-.25-.2-.1-.15-.25-1.7-2.2v-.05q-1.5-2.7-1.05-6.4.6-5.85 4.4-8.35Q-5.95-8-3.4-6l-.05-.05.35.3.2.05.15.2q2.05 1.55 4.8 1.95L8.2-3.8q-.3.45-.3 1 0 1.05 1.05 1.75H8.9L6.3-.5l-1.75.35-.1-1.65-.1-.3-.3-.15-.3.05L.55-.5M9.5-3.75v-.05l1.6-.45 1.35.35.1.05.15.05.05.05.55.85v.1q0 .55-.55.95l-.3.2-.35.15-.4.15.05-.05-.65.05q-.5 0-1.05-.35l-.25-.1-.2.05-.05-.05-.05-.05q-.6-.4-.6-.95 0-.45.4-.75l.1-.1.1-.1m4.8 1.2 2.5-.55 2.5-.65.1-.05.3-.05 2.2-.05v.05q-.1.15.1.45l.05.1v.25L22-3q-.2 1.25-.85 1.6h.05l-.4.1v-.05l-.4.1h-1l-2.65-.1-.4.2-.1.15-.25.6-.05.15-.3 1.95q-1.05-1.85-2.2-2.85.75-.6.85-1.4m5.1-.35-.3.25-.1.35.25.35q.3.2.95.45l.35-.05.3-.25-.05-.4-.25-.25-.75-.35-.4-.1m-24.5-.35.4.05.3-.25q.1-.2.05-.35l-.25-.3-2.65-.1q-1.7.7-2.65 2.4v.05q-1 1.95.65 3.45L-7.1 3l-.05-.05 1.6.2.25-.05.15-.15q1-1.45 1.1-2.8V.1L-4-.15l-.05-.25-.7-.9-.65-.7-.3-.15-.85-.1-.3.1-.55.45-.3.45-.05.25.1.25.25.4.35.2.35-.1.2-.3-.1-.4-.05-.1.05-.05.15-.1.5.05.45.5.45.6V.1q-.1 1-.75 2.05l-.95-.1Q-7.8 1.65-8.6.95-9.7 0-9-1.3q.75-1.4 2.15-2l1.75.05m-2.6 8.7q-1.6-.9-3 .45l-.1.15-.05.2.05 1.15.15.35.35.15.35-.15.15-.35-.05-.95 1.7-.1h.05l.6.35.05.05.6.45q-.25 1.2-.9 2.05l-1.65.85q-1.6-.3-2.15-1.8l-.85-3.15-.2-.3-.4-.1-.3.25-.1.35.9 3.3q.8 2.1 3.1 2.45l.3-.05 1.9-.95.15-.1q1-1.2 1.2-2.95v-.2l-.15-.2-.9-.75q-.4-.25-.75-.4l-.05-.05" fill="#12a001" transform="translate(15.05 7.95)"/><path d="M-1.6 1.1h-.05l.05-.05v.05M23-2.8v-.05.05" transform="translate(15.05 7.95)"/><path d="m.55-.5 3.2-1.7.3-.05.3.15.1.3.1 1.65L6.3-.5l2.6-.55h.05Q7.9-1.75 7.9-2.8q0-.55.3-1l-6.15.25q-2.75-.4-4.8-1.95l-.15-.2-.2-.05-.35-.3.05.05q-2.55-2-6.15.5-3.8 2.5-4.4 8.35-.45 3.7 1.05 6.4v.05l1.7 2.2.15.25.2.1.25.25q1.85 1.55 3.1 1.35 1.15-.3 1.8-2.35l2.25-6.75q.7-2.25 1.85-3.25v-.05L.05-.25H.3L.55-.5m9.85-4.7.7-.05 1.75.45.45.2q.65.45.9 1.05l2.35-.5 2.4-.65.3-.1q2.2-1.45 3.85.7l.1.35-.15.35v.15L23-2.8q-.35 1.95-1.5 2.35h-.05l-.4.1H21l-.4.1H20l-.85-.05-.25-.1-1.7-.05-.1.05-.15.35-.6 3.4-.15.25-.3.15-.3-.05-.2-.25q-1.3-2.85-2.85-4h-.05l-.15.05-.4.1h-.05l-.8.05-.95-.15-.45.25-.05.05L6.5.5 4.2.95h-.25L3.7.75 3.6.5 3.5-.95.65.6l-1.6 1.25q-1 .85-1.55 2.8l-2.25 6.75q-.9 2.7-2.55 3.05-1.65.35-3.95-1.6l-.05-.05-.25-.25-.1-.2-.25-.15-1.9-2.45q-1.6-3-1.15-7 .7-6.35 4.85-9.1 4.25-2.95 7.35-.45v.05l.2.15.2.2.2.1Q-.3-4.95 2.2-4.55l6.2-.35.4.1.15.15v.05q.65-.45 1.45-.6m3.9 2.65q-.1.8-.85 1.4 1.15 1 2.2 2.85l.3-1.95L16-.4l.25-.6.1-.15.4-.2 2.65.1h1l.4-.1v.05l.4-.1h-.05q.65-.35.85-1.6l.05-.05v-.25L22-3.4q-.2-.3-.1-.45v-.05l-2.2.05-.3.05-.1.05-2.5.65-2.5.55m-4.8-1.2-.1.1-.1.1q-.4.3-.4.75 0 .55.6.95l.05.05.05.05.2-.05.25.1q.55.35 1.05.35l.65-.05-.05.05.4-.15.35-.15.3-.2q.55-.4.55-.95v-.1l-.55-.85-.05-.05-.15-.05-.1-.05-1.35-.35-1.6.45v.05" fill="#167801" transform="translate(15.05 7.95)"/><path d="M.05-.25-.1-.3l-.25-.25q-.35-.9.55-1.2h.05L.4-1.9l.05-.05.25-.25.1-.05q.45-.45 1.15-.5l.4.15.15.3-.1.4-.35.15-.55.2-.45.4-.45.3-.05.3v.05L.3-.25H.05M19.4-2.9l.4.1.75.35.25.25.05.4-.3.25-.35.05q-.65-.25-.95-.45L19-2.3l.1-.35.3-.25m-24.5-.35-1.75-.05q-1.4.6-2.15 2-.7 1.3.4 2.25.8.7 1.85 1.1l.95.1q.65-1.05.75-2.05v-.15l-.45-.6-.45-.5-.5-.05-.15.1-.05.05.05.1.1.4-.2.3-.35.1-.35-.2-.25-.4-.1-.25.05-.25.3-.45.55-.45.3-.1.85.1.3.15.65.7.7.9.05.25-.05.25v.05q-.1 1.35-1.1 2.8l-.15.15-.25.05-1.6-.2.05.05-2.15-1.3Q-10.9.2-9.9-1.75v-.05q.95-1.7 2.65-2.4l2.65.1.25.3q.05.15-.05.35l-.3.25-.4-.05m-2.6 8.7.05.05q.35.15.75.4l.9.75.15.2v.2q-.2 1.75-1.2 2.95l-.15.1-1.9.95-.3.05q-2.3-.35-3.1-2.45l-.9-3.3.1-.35.3-.25.4.1.2.3.85 3.15q.55 1.5 2.15 1.8l1.65-.85q.65-.85.9-2.05l-.6-.45-.05-.05-.6-.35h-.05l-1.7.1.05.95-.15.35-.35.15-.35-.15-.15-.35-.05-1.15.05-.2.1-.15q1.4-1.35 3-.45" fill="#bfd3b8" transform="translate(15.05 7.95)"/></g></defs><path d="M80.041 22h7.8l2.4 1.1 7.8-17.2 7.7 17.2 2.5-1.1 6.3 6.1 2.3 2.1-.1.1-.8.8.2.2q4.2 4.1 4.7 9.1v1.2q0 3.3-1.6 6.2l-.5.9-2.8 3.4.3.3-.6.5-6.5 1.8v9.4l-6.5 1.4-6.2 1.8 1.3 3.2 6.6-2.5 6-1.2q3.1 0 4.3 1.2 1.6 1.6 1.6 4 0 2.2-1.5 3.7-2.1 2.1-8.2 2.5l-2.5.1.7 3 3-.1-.1 5.5-3 2.5v24.5l-1.7 9.2h-3V136q0 1.4-.9 2.3-1.1 1.1-3.2 1.1-2.3 0-3.3-1.1-.9-.9-.8-2.3v-13.1h-3.2l-4.7-7h-3.5l-7.1 7V136q0 1.4-.9 2.3-1.1 1.1-3.2 1.1-2.2 0-3.3-1.1-.9-.9-.8-2.3v-13.1h-3.1l-3.4-2.2-3.5-7.8v-7.8l.9-.8q1.5-1.2 2.7-3.1l-2.5-2-1.4 1.9.8-21.9 3.5-25.6.8.7 1.5-1.4-2-2.2q-3.1-3.8-3-8.3l.1-2q.7-4.6 4.9-8.5l-1.5-1.5 1-7.9 1.3.6 7.7-17.2 7.7 17.2 2.5-1.1m20.2 29.4v3.8h2.6v-6.5h-2.3V29.8h-12.4v7.7l-.1 2.2-.9 4.9-2 4.1h-1.9v6.6h2.7v-3.9h14.3m-12.1-2.7 1-1.8 1.8-7.1v-.1l.1-.7v-6.5h6.8v16.2h-9.7m28.6-18.4-2.2-2.2 2.2 2.2m-26.5 35.8q-2.1-2.1-6.5-2.1l-8 1.5-6.2 1.8 1.3 3.2 6.6-2.5 6-1.2q3.1 0 4.3 1.2 1.6 1.6 1.6 4 0 2.2-1.5 3.7-2.1 2.1-8.1 2.5l-2.6.1.7 3q7.9-.1 11.8-3.1l.9-.7q2-2 2-5.7-.1-3.6-2.3-5.7m-25.3-11.3 1.5-3.1V49h-3v2.9h1.1l-1.1 2.9h1.5m4.3-2.9h1.1l-1.1 2.9h1.5l1.5-3.1V49h-3v2.9" fill="#fff" fill-rule="evenodd"/><path d="m87.841 22 10.2-22 10.2 22-2.5 1.1-7.7-17.2-7.8 17.2-2.4-1.1m29 8.2.5-.6q5.1 4.7 5.6 10.8v1.2q0 3.8-1.8 7.1-1.4 2.5-3.8 4.8l-1.1-1.1-.3-.3 2.8-3.4.5-.9q1.6-2.9 1.6-6.2v-1.2q-.5-5-4.7-9.1l-.2-.2.8-.8.1-.1m-7.7 33.9 1.5-.1q4.4 0 6.5 2.1 2.2 2.1 2.2 5.7 0 3.7-2 5.7l-.8.7q-3.1 2.4-8.8 3l-3 .1-.7-3 2.5-.1q6.1-.4 8.2-2.5 1.5-1.5 1.5-3.7 0-2.4-1.6-4-1.2-1.2-4.3-1.2l-6 1.2-6.6 2.5-1.3-3.2 6.2-1.8 6.5-1.4m-6.2 58.8v13.2q0 2.5-1.6 4.1-1.8 1.8-5.5 1.8-3.9 0-5.7-1.8-1.6-1.6-1.6-4.1v-13.2h3.2V136q-.1 1.4.8 2.3 1 1.1 3.3 1.1 2.1 0 3.2-1.1.9-.9.9-2.3v-13.1h3m-29.7 0h3v13.2q0 2.5-1.6 4.1-1.8 1.8-5.5 1.8-3.8 0-5.6-1.8-1.7-1.6-1.6-4.1v-13.2h3.1V136q-.1 1.4.8 2.3 1.1 1.1 3.3 1.1 2.1 0 3.2-1.1.9-.9.9-2.3v-13.1m-18.2-17.8q-1.4.9-3.2.9-2 0-5.4-2.2l-3.8-1.3q-1.7 0-2.6 1.1l-1.2 1.9-2.7-1.5 2.4-3.3q1.7-1.6 3.9-1.6t4.6 1.6q3.3 1.7 5.1 1.7 1.2 0 2.6-1.3l1.4-1.9 2.5 2q-1.2 1.9-2.7 3.1l-.9.8m4-51.5-1.2-1.4q-3.7-4.4-3.6-9.8l.1-2q.7-5.6 5.5-10l1.5 1.5q-4.2 3.9-4.9 8.5l-.1 2q-.1 4.5 3 8.3l2 2.2-1.5 1.4-.8-.7m1.8-31.1-1.1-.5 10.1-22 10.2 22-2.5 1.1-7.7-17.2-7.7 17.2-1.3-.6m22.4 32.7v-6.5h1.9l2-4.1.9-4.9.1-2.2v-7.7h12.4v18.9h2.3v6.5h-2.6v-3.9h-14.3v3.9h-2.7m14.6-22.7v-.1h-6.9v6.5l-.1.7v.1l-1.8 7.1-1 1.8-.1.1h9.9V32.5m-7.6 33.6q2.2 2.1 2.3 5.7 0 3.7-2 5.7l-.9.7q-3.9 3-11.8 3.1l-.7-3 2.6-.1q6-.4 8.1-2.5 1.5-1.5 1.5-3.7 0-2.4-1.6-4-1.2-1.2-4.3-1.2l-6 1.2-6.6 2.5-1.3-3.2 6.2-1.8 8-1.5q4.4 0 6.5 2.1m-21-14.2V49h3v2.7l-1.5 3.1h-1.5l1.1-2.9h-1.1m-4.3 2.9h-1.5l1.1-2.9h-1.1V49h3v2.7l-1.5 3.1" fill-rule="evenodd"/><path d="M80.041 22h7.8m16.8 67.2v18.9m0 0v5.6m9.9-85.6 2.2 2.2" fill="none" stroke="#000" stroke-linecap="round" stroke-linejoin="round" stroke-width="2"/><use height="22.45" transform="matrix(2 0 0 2 36.341 51.1)" width="38.25" xlink:href="#b"/><path d="M1.357 0h.2l.554.1.452.35q.452.45.452 1L2.563 2.6Q2.11 3 1.558 3l-.804-.2-.252-.2-.452-.7v-.15L0 1.45v-.1q.05-.5.502-.9l.252-.2q.251-.2.552-.25h.05m.453.85L1.558.8q-.352-.05-.553.2-.201.15-.201.45v.15l.15.45h.051l.05.05.201.1.302.05.552-.2.151-.6-.05-.3-.1-.15-.05-.05-.151-.1h-.101M18.257 0h.2l.553.1.453.35q.452.45.452 1l-.452 1.15q-.453.4-1.005.4l-.804-.2-.252-.2-.452-.7v-.15l-.05-.3v-.1q.05-.5.502-.9l.252-.2q.251-.2.552-.25h.05m.453.85L18.458.8q-.352-.05-.553.2-.201.15-.201.45v.15l.15.45h.051l.05.05.201.1.302.05.553-.2.15-.6-.05-.3-.1-.15-.05-.05-.151-.1h-.101" style="stroke-width:1.0025" transform="matrix(2.0024 0 0 2 73.743 27)" id="gikopoipoi_eyes_open" fill-rule="evenodd"/><g id="gikopoipoi_eyes_closed" style="display:none" fill="none" stroke="#000" stroke-linecap="round" stroke-linejoin="round"><path d="M107.46 30.1h6.3" stroke-width="3"/><path d="M-.05 1.55H3.1" stroke-width="1.5" style="display:inline" transform="matrix(2 0 0 2 73.719 27)"/></g></svg>