<?xml version="1.0" encoding="iso-8859-1"?>
<!-- Generator: Adobe Illustrator 15.1.0, SVG Export Plug-In . SVG Version: 6.00 Build 0)  -->
<!DOCTYPE svg PUBLIC "-//W3C//DTD SVG 1.1//EN" "http://www.w3.org/Graphics/SVG/1.1/DTD/svg11.dtd">
<svg version="1.1" id="front-sitting" xmlns="http://www.w3.org/2000/svg" xmlns:xlink="http://www.w3.org/1999/xlink" x="0px"
	 y="0px" width="159px" height="182px" viewBox="0 0 159 182" style="enable-background:new 0 0 159 182;" xml:space="preserve">
<path style="fill:#FFFFFF;" d="M113.966,31.199l-0.699,0.8l0.199,0.2c2.801,2.733,4.332,5.767,4.6,9.101l0.1,1.199
	c0,2.2-0.531,4.268-1.6,6.2l-0.5,0.9l-2.799,3.399l0.199,0.2l-0.6,0.601l-6.5,1.8v9.399l-2.5,0.4l-4,1L93.565,68.2l1.301,3.199
	l6.699-2.5c2.268-0.801,4.268-1.199,6-1.199c2.068,0,3.5,0.398,4.301,1.199c1.066,1.066,1.6,2.4,1.6,4c0,1.467-0.5,2.699-1.5,3.699
	c-1.4,1.4-4.133,2.234-8.199,2.5l-2.5,0.102l0.699,3l3-0.102l-0.1,5.5l-3,2.5v11.5h-9.1v3.102h13.199
	c0.934,0,1.699,0.266,2.301,0.799c0.732,0.732,1.1,1.834,1.1,3.301c0,1.4-0.367,2.467-1.1,3.199c-0.602,0.6-1.367,0.9-2.301,0.9
	H92.767v3H81.165c1.602,0,2.9-0.533,3.9-1.6c1.201-1.201,1.801-3.033,1.801-5.5c0-2.533-0.6-4.4-1.801-5.6
	c-1.066-1.066-2.432-1.602-4.1-1.602H67.767v3.102h13.1c0.932,0,1.699,0.266,2.299,0.799c0.734,0.732,1.102,1.834,1.102,3.301
	c0,1.4-0.367,2.467-1.102,3.199c-0.6,0.6-1.367,0.9-2.299,0.9h-13.1v3h-9l-6.5-6.5v-3.4l0.898-0.799c1-0.801,1.9-1.834,2.701-3.102
	l-2.5-2l-1.4,1.9l0.801-21.9l3.5-25.6l0.799,0.7l1.5-1.399l-2-2.2c-2-2.533-3-5.3-3-8.3l0.1-2c0.469-3.067,2.102-5.9,4.9-8.5
	l-1.5-1.5l1-7.9l1.301,0.6L67.065,6.8l7.701,17.199l2.5-1.1h7.799l2.4,1.1L95.165,6.8l7.801,17.199l2.5-1.1l6.301,6.1l2.299,2.2
	H113.966 M86.267,41.3c-0.268,3.6-1.268,6.6-3,9h-1.9v6.5h2.699v-3.9h14.5v3.9h2.701v-6.5h-2.4v-18.9h-12.5v7.7L86.267,41.3
	 M89.065,39.1v-5.101h7V50.3h-9.9c1.602-2.268,2.566-5.268,2.9-9V39.1 M84.767,65.399l-3.801-0.5l-4,0.5l-4,1L66.767,68.2
	l1.299,3.199l6.6-2.5l6-1.199c2.066,0,3.5,0.398,4.301,1.199c1.066,1.066,1.6,2.4,1.6,4c0,1.467-0.5,2.699-1.5,3.699
	c-1.4,1.4-4.1,2.234-8.1,2.5l-2.6,0.102l0.699,3c5.268-0.066,9.201-1.102,11.801-3.102l0.799-0.699c1.334-1.332,2-3.234,2-5.699
	c0-2.4-0.732-4.301-2.199-5.701L84.767,65.399 M67.966,55.699l1.5-3.1v-2.7h-3v2.9h1.1l-1.1,2.899H67.966 M63.665,52.6v-2.7h-3v2.9
	h1.102l-1.102,2.899h1.5L63.665,52.6"/>
<path style="fill:#010202;" d="M95.165,0.899l10.301,22l-2.5,1.1L95.165,6.8l-7.699,17.199l-2.4-1.1L95.165,0.899 M56.966,22.899
	l10.1-22l10.201,22l-2.5,1.1L67.065,6.8l-7.699,17.199l-1.301-0.6L56.966,22.899 M55.065,53.1c-2.4-2.934-3.6-6.2-3.6-9.8l0.1-2
	c0.467-3.733,2.301-7.067,5.5-10l1.5,1.5c-2.799,2.6-4.432,5.433-4.9,8.5l-0.1,2c0,3,1,5.767,3,8.3l2,2.2l-1.5,1.399l-0.799-0.7
	L55.065,53.1 M49.767,106.899h-0.701c-1.268,0-3.033-0.734-5.299-2.199l-3.801-1.301c-1.199,0-2.066,0.367-2.6,1.1l-1.201,1.9
	l-2.699-1.5l2.4-3.301c1.066-1.066,2.365-1.6,3.9-1.6c1.465,0,2.965,0.533,4.5,1.6c2.199,1.133,3.898,1.701,5.1,1.701
	c0.865,0,1.732-0.434,2.6-1.301l1.4-1.9l2.5,2c-0.801,1.268-1.701,2.301-2.701,3.102l-0.898,0.799
	C51.532,106.466,50.7,106.767,49.767,106.899 M67.767,115.899v-3h13.1c0.932,0,1.699-0.301,2.299-0.9
	c0.734-0.732,1.102-1.799,1.102-3.199c0-1.467-0.367-2.568-1.102-3.301c-0.6-0.533-1.367-0.799-2.299-0.799h-13.1v-3.102h13.199
	c1.668,0,3.033,0.535,4.1,1.602c1.201,1.199,1.801,3.066,1.801,5.6c0,2.467-0.6,4.299-1.801,5.5c-1,1.066-2.299,1.6-3.9,1.6H67.767
	 M106.065,101.599c1.666,0,3.033,0.535,4.1,1.602c1.201,1.199,1.801,3.066,1.801,5.6c0,2.467-0.6,4.299-1.801,5.5
	c-1.066,1.066-2.434,1.6-4.1,1.6H92.767v-3h13.199c0.934,0,1.699-0.301,2.301-0.9c0.732-0.732,1.1-1.799,1.1-3.199
	c0-1.467-0.367-2.568-1.1-3.301c-0.602-0.533-1.367-0.799-2.301-0.799H92.767v-3.102h9.1H106.065 M107.866,64.899l3.699,0.5
	c1.135,0.332,2.068,0.867,2.801,1.6c1.467,1.4,2.199,3.301,2.199,5.701c0,2.465-0.666,4.367-2,5.699l-0.799,0.699
	c-2.133,1.602-5.066,2.602-8.801,3l-3,0.102l-0.699-3l2.5-0.102c4.066-0.266,6.799-1.1,8.199-2.5c1-1,1.5-2.232,1.5-3.699
	c0-1.6-0.533-2.934-1.6-4c-0.801-0.801-2.232-1.199-4.301-1.199c-1.732,0-3.732,0.398-6,1.199l-6.699,2.5L93.565,68.2l6.301-1.801
	l4-1l2.5-0.4L107.866,64.899 M114.065,31.199l0.6-0.7c3.4,3.134,5.234,6.733,5.5,10.801l0.102,1.199c0,2.533-0.602,4.9-1.801,7.101
	c-0.934,1.666-2.199,3.267-3.801,4.8l-1.199-1.2l-0.199-0.2l2.799-3.399l0.5-0.9c1.068-1.933,1.6-4,1.6-6.2l-0.1-1.199
	c-0.268-3.334-1.799-6.367-4.6-9.101l-0.199-0.2l0.699-0.8H114.065 M86.366,39.1v-7.7h12.5v18.9h2.4v6.5h-2.701v-3.9h-14.5v3.9
	h-2.699v-6.5h1.9c1.732-2.4,2.732-5.4,3-9L86.366,39.1 M89.065,41.3c-0.334,3.732-1.299,6.732-2.9,9h9.9V33.999h-7V39.1V41.3
	 M87.466,66.999c1.467,1.4,2.199,3.301,2.199,5.701c0,2.465-0.666,4.367-2,5.699l-0.799,0.699c-2.6,2-6.533,3.035-11.801,3.102
	l-0.699-3l2.6-0.102c4-0.266,6.699-1.1,8.1-2.5c1-1,1.5-2.232,1.5-3.699c0-1.6-0.533-2.934-1.6-4
	c-0.801-0.801-2.234-1.199-4.301-1.199l-6,1.199l-6.6,2.5L66.767,68.2l6.199-1.801l4-1l4-0.5l3.801,0.5L87.466,66.999
	 M66.466,55.699l1.1-2.899h-1.1v-2.9h3v2.7l-1.5,3.1H66.466 M62.165,55.699h-1.5l1.102-2.899h-1.102v-2.9h3v2.7L62.165,55.699"/>
<path style="fill:none;stroke:#010202;stroke-width:2;stroke-linecap:round;stroke-linejoin:round;stroke-miterlimit:3;" d="
	M101.866,101.599v-11.5 M113.966,31.199l-2.199-2.2"/>
<path style="fill:none;stroke:#010202;stroke-linecap:round;stroke-linejoin:round;stroke-miterlimit:3;" d="M85.065,22.899h-7.799"
	/>
<path style="fill:#010202;" d="M105.49,30.81c0,1.149,0.513,2.001,1.522,2.532c0.412,0.223,0.849,0.336,1.298,0.336
	c1.028,0,1.838-0.443,2.401-1.315c0.31-0.464,0.466-0.979,0.466-1.529c0-0.738-0.251-1.383-0.752-1.917
	c-0.581-0.615-1.276-0.928-2.067-0.928c-0.6,0-1.155,0.174-1.654,0.517C105.898,29.072,105.49,29.847,105.49,30.81z M108.334,32.187
	c-0.494,0-0.861-0.208-1.129-0.644c-0.151-0.218-0.225-0.45-0.225-0.709c0-0.552,0.234-0.94,0.718-1.188
	c0.209-0.111,0.417-0.165,0.636-0.165c0.33,0,0.619,0.108,0.881,0.327c0.317,0.277,0.473,0.613,0.473,1.026
	c0,0.399-0.148,0.728-0.452,1.004C108.974,32.072,108.679,32.187,108.334,32.187z"/>
<path style="fill:#010202;" d="M71.365,30.81c0,1.149,0.513,2.001,1.522,2.532c0.412,0.223,0.849,0.336,1.298,0.336
	c1.028,0,1.838-0.443,2.401-1.315c0.31-0.464,0.466-0.979,0.466-1.529c0-0.738-0.251-1.383-0.752-1.917
	c-0.581-0.615-1.276-0.928-2.067-0.928c-0.6,0-1.155,0.174-1.654,0.517C71.773,29.072,71.365,29.847,71.365,30.81z M74.209,32.187
	c-0.494,0-0.861-0.208-1.129-0.644c-0.151-0.218-0.225-0.45-0.225-0.709c0-0.552,0.234-0.94,0.718-1.188
	c0.209-0.111,0.417-0.165,0.636-0.165c0.33,0,0.619,0.108,0.881,0.327c0.317,0.277,0.473,0.613,0.473,1.026
	c0,0.399-0.148,0.728-0.452,1.004C74.849,32.072,74.554,32.187,74.209,32.187z"/>
<path style="fill:#4DAD33;" d="M86.858,55.943c-1.068,0.2-2.033,0.6-2.9,1.2v-0.101C84.759,56.376,85.724,56.009,86.858,55.943"/>
<path style="fill:#1DA138;" d="M62.858,68.443l-0.1,0.1h0.1c-1.533,1.334-2.768,3.5-3.701,6.5l-4.5,13.5
	c-0.867,2.732-2.066,4.301-3.6,4.701c-1.666,0.266-3.732-0.633-6.199-2.701l-0.5-0.5l-0.4-0.199l-0.301-0.5l-3.398-4.4v-0.1
	c-2-3.6-2.701-7.867-2.102-12.801c0.801-7.8,3.734-13.366,8.801-16.699c4.801-3.334,8.9-3.667,12.301-1l-0.102-0.101l0.701,0.601
	l0.4,0.1l0.299,0.4c2.732,2.066,5.934,3.366,9.6,3.899l12.301-0.5c-0.4,0.601-0.6,1.267-0.6,2c0,1.4,0.699,2.567,2.1,3.5h-0.1
	l-5.201,1.101l-3.5,0.699l-0.199-3.3l-0.199-0.6l-0.602-0.3l-0.6,0.1l-6.4,3.4v-0.101l0.102-0.6l0.898-0.601l0.9-0.8l1.1-0.399
	l0.701-0.301l0.199-0.8l-0.299-0.6l-0.801-0.3c-0.934,0.066-1.699,0.399-2.301,1l-0.199,0.1l-0.5,0.5l-0.1,0.1l-0.301,0.301h-0.1
	c-1.199,0.399-1.566,1.199-1.1,2.399l0.5,0.5l0.299,0.101L62.858,68.443 M85.058,58.843v-0.101l3.201-0.899l2.699,0.699l0.199,0.101
	l0.301,0.1l0.1,0.101l1.1,1.699v0.2c0,0.733-0.367,1.367-1.1,1.9l-0.6,0.399l-0.699,0.301l-0.801,0.3l0.1-0.101l-1.299,0.101
	c-0.668,0-1.367-0.233-2.102-0.7l-0.5-0.2l-0.398,0.101l-0.102-0.101l-0.1-0.1c-0.799-0.533-1.199-1.167-1.199-1.9
	c0-0.6,0.268-1.1,0.799-1.5l0.201-0.2L85.058,58.843 M94.657,61.243l5-1.1l5-1.3l0.201-0.101l0.6-0.1l4.4-0.101v0.101
	c-0.135,0.2-0.068,0.5,0.199,0.899l0.1,0.2v0.101v0.399l-0.1,0.101c-0.268,1.666-0.834,2.733-1.699,3.199h0.1l-0.801,0.2v-0.1
	l-0.799,0.2h-0.801h-1.199l-5.301-0.2l-0.799,0.399l-0.201,0.301l-0.5,1.199l-0.1,0.301l-0.6,3.899c-1.4-2.467-2.867-4.366-4.4-5.7
	C93.958,63.243,94.524,62.31,94.657,61.243 M104.858,60.542l-0.6,0.5l-0.201,0.7l0.5,0.7c0.4,0.267,1.033,0.566,1.9,0.9l0.699-0.101
	l0.602-0.5l-0.102-0.8l-0.5-0.5l-1.5-0.7L104.858,60.542 M55.858,59.843l0.799,0.1l0.602-0.5c0.133-0.267,0.166-0.5,0.1-0.7
	l-0.5-0.6l-5.301-0.2c-2.268,0.934-4.033,2.533-5.299,4.8v0.101c-1.334,2.6-0.9,4.899,1.299,6.899l4.301,2.601l-0.1-0.101l3.199,0.4
	l0.5-0.101l0.301-0.3c1.332-1.933,2.066-3.8,2.199-5.6v-0.101l0.1-0.5l-0.1-0.5l-1.4-1.8l-1.299-1.399l-0.602-0.301l-1.699-0.199
	l-0.6,0.199l-1.1,0.9l-0.602,0.9l-0.1,0.5l0.201,0.5l0.5,0.8l0.699,0.399l0.699-0.199l0.4-0.601l-0.199-0.8l-0.1-0.2l0.1-0.1
	l0.299-0.2l1,0.1l0.9,1l0.9,1.2v0.2v0.1c-0.133,1.334-0.633,2.7-1.5,4.101l-1.9-0.2c-1.4-0.533-2.633-1.267-3.699-2.2
	c-1.467-1.267-1.732-2.767-0.801-4.5c1-1.866,2.434-3.2,4.301-4L55.858,59.843 M50.657,77.244c-2.133-1.201-4.133-0.9-6,0.898
	l-0.199,0.301l-0.1,0.4l0.1,2.299l0.301,0.701l0.699,0.299l0.699-0.299l0.301-0.701l-0.1-1.898l3.4-0.201h0.1l1.199,0.701l0.1,0.1
	l1.201,0.9c-0.334,1.6-0.934,2.965-1.801,4.1l-3.299,1.699c-2.133-0.4-3.566-1.6-4.301-3.6l-1.699-6.301l-0.4-0.6l-0.801-0.199
	l-0.6,0.5l-0.199,0.699l1.799,6.6c1.068,2.801,3.135,4.434,6.201,4.9l0.6-0.1l3.799-1.9l0.301-0.199c1.332-1.6,2.133-3.568,2.4-5.9
	v-0.4l-0.301-0.4l-1.799-1.5c-0.535-0.332-1.035-0.6-1.5-0.799L50.657,77.244"/>
<path style="fill:#010202;" d="M62.858,68.542h-0.1l0.1-0.1V68.542 M112.058,60.643v0.1V60.643"/>
<path style="fill:#1E7933;" d="M62.858,68.443l3.299-2.6h0.5l0.5-0.5l6.4-3.4l0.6-0.1l0.602,0.3l0.199,0.6l0.199,3.3l3.5-0.699
	l5.201-1.101h0.1c-1.4-0.933-2.1-2.1-2.1-3.5c0-0.733,0.199-1.399,0.6-2l-12.301,0.5c-3.666-0.533-6.867-1.833-9.6-3.899l-0.299-0.4
	l-0.4-0.1l-0.701-0.601l0.102,0.101c-3.4-2.667-7.5-2.334-12.301,1c-5.066,3.333-8,8.899-8.801,16.699
	c-0.6,4.934,0.102,9.201,2.102,12.801v0.1l3.398,4.4l0.301,0.5l0.4,0.199l0.5,0.5c2.467,2.068,4.533,2.967,6.199,2.701
	c1.533-0.4,2.732-1.969,3.6-4.701l4.5-13.5c0.934-3,2.168-5.166,3.701-6.5V68.443 M83.958,57.143c0.867-0.601,1.832-1,2.9-1.2
	l1.4-0.1l3.5,0.899l0.898,0.4c0.867,0.6,1.469,1.3,1.801,2.1l4.699-1l4.801-1.3l0.6-0.2c2.934-1.933,5.5-1.467,7.701,1.4l0.199,0.7
	l-0.301,0.699v0.301l-0.1,0.899c-0.467,2.601-1.467,4.167-3,4.7h-0.1l-0.801,0.2h-0.1l-0.799,0.2h-0.301h-0.9l-1.699-0.101l-0.5-0.2
	l-3.4-0.1l-0.199,0.1l-0.301,0.7l-1.199,6.8l-0.301,0.5l-0.6,0.301l-0.6-0.101l-0.4-0.5c-1.732-3.8-3.635-6.467-5.701-8h-0.1
	l-0.299,0.101l-0.801,0.199h-0.1l-1.6,0.101l-1.9-0.3l-0.9,0.5l-0.1,0.1l-6.301,1.4l-4.6,0.899h-0.5l-0.5-0.399l-0.199-0.5
	l-0.201-2.9l-5.699,3.1l-3.201,2.5c-1.332,1.134-2.367,3-3.1,5.6l-4.5,13.5c-1.199,3.602-2.9,5.633-5.1,6.102
	c-2.199,0.465-4.832-0.602-7.9-3.201l-0.1-0.1l-0.5-0.5l-0.199-0.4l-0.5-0.299l-3.801-4.9c-2.133-4-2.9-8.666-2.301-14
	c0.934-8.467,4.168-14.533,9.701-18.2c5.666-3.934,10.566-4.233,14.699-0.9v0.101l0.4,0.3l0.4,0.399l0.4,0.2
	c2.465,1.8,5.367,2.967,8.699,3.5l12.4-0.7l0.799,0.2l0.301,0.3V57.143 M84.858,59.042l-0.201,0.2c-0.531,0.4-0.799,0.9-0.799,1.5
	c0,0.733,0.4,1.367,1.199,1.9l0.1,0.1l0.102,0.101l0.398-0.101l0.5,0.2c0.734,0.467,1.434,0.7,2.102,0.7l1.299-0.101l-0.1,0.101
	l0.801-0.3l0.699-0.301l0.6-0.399c0.732-0.533,1.1-1.167,1.1-1.9v-0.2l-1.1-1.699l-0.1-0.101l-0.301-0.1l-0.199-0.101l-2.699-0.699
	l-3.201,0.899v0.101L84.858,59.042 M92.958,64.042c1.533,1.334,3,3.233,4.4,5.7l0.6-3.899l0.1-0.301l0.5-1.199l0.201-0.301
	l0.799-0.399l5.301,0.2h1.199h0.801l0.799-0.2v0.1l0.801-0.2h-0.1c0.865-0.466,1.432-1.533,1.699-3.199l0.1-0.101v-0.399v-0.101
	l-0.1-0.2c-0.268-0.399-0.334-0.699-0.199-0.899v-0.101l-4.4,0.101l-0.6,0.1l-0.201,0.101l-5,1.3l-5,1.1
	C94.524,62.31,93.958,63.243,92.958,64.042"/>
<path style="fill:#C0D3B8;" d="M66.657,65.843h-0.5l-0.299-0.101l-0.5-0.5c-0.467-1.2-0.1-2,1.1-2.399h0.1l0.301-0.301l0.1-0.1
	l0.5-0.5l0.199-0.1c0.602-0.601,1.367-0.934,2.301-1l0.801,0.3l0.299,0.6l-0.199,0.8l-0.701,0.301l-1.1,0.399l-0.9,0.8l-0.898,0.601
	l-0.102,0.6v0.101L66.657,65.843 M105.657,60.743l1.5,0.7l0.5,0.5l0.102,0.8l-0.602,0.5l-0.699,0.101
	c-0.867-0.334-1.5-0.634-1.9-0.9l-0.5-0.7l0.201-0.7l0.6-0.5L105.657,60.743 M52.358,59.743c-1.867,0.8-3.301,2.134-4.301,4
	c-0.932,1.733-0.666,3.233,0.801,4.5c1.066,0.934,2.299,1.667,3.699,2.2l1.9,0.2c0.867-1.4,1.367-2.767,1.5-4.101v-0.1v-0.2
	l-0.9-1.2l-0.9-1l-1-0.1l-0.299,0.2l-0.1,0.1l0.1,0.2l0.199,0.8l-0.4,0.601l-0.699,0.199l-0.699-0.399l-0.5-0.8l-0.201-0.5l0.1-0.5
	l0.602-0.9l1.1-0.9l0.6-0.199l1.699,0.199l0.602,0.301l1.299,1.399l1.4,1.8l0.1,0.5l-0.1,0.5v0.101
	c-0.133,1.8-0.867,3.667-2.199,5.6l-0.301,0.3l-0.5,0.101l-3.199-0.4l0.1,0.101l-4.301-2.601c-2.199-2-2.633-4.3-1.299-6.899v-0.101
	c1.266-2.267,3.031-3.866,5.299-4.8l5.301,0.2l0.5,0.6c0.066,0.2,0.033,0.434-0.1,0.7l-0.602,0.5l-0.799-0.1L52.358,59.743
	 M50.759,77.343c0.465,0.199,0.965,0.467,1.5,0.799l1.799,1.5l0.301,0.4v0.4c-0.268,2.332-1.068,4.301-2.4,5.9l-0.301,0.199
	l-3.799,1.9l-0.6,0.1c-3.066-0.467-5.133-2.1-6.201-4.9l-1.799-6.6l0.199-0.699l0.6-0.5l0.801,0.199l0.4,0.6l1.699,6.301
	c0.734,2,2.168,3.199,4.301,3.6l3.299-1.699c0.867-1.135,1.467-2.5,1.801-4.1l-1.201-0.9l-0.1-0.1l-1.199-0.701h-0.1l-3.4,0.201
	l0.1,1.898l-0.301,0.701l-0.699,0.299l-0.699-0.299l-0.301-0.701l-0.1-2.299l0.1-0.4l0.199-0.301c1.867-1.799,3.867-2.1,6-0.898
	L50.759,77.343"/>
<g id="_x38_82_3_" transform="matrix(1, 0, 0, 1, 15.05, 7.95)">
	<path style="fill:#4DAD33;" d="M71.808,47.993c-1.068,0.2-2.033,0.6-2.9,1.2v-0.101C69.709,48.426,70.674,48.059,71.808,47.993"/>
	<path style="fill:#1DA138;" d="M47.808,60.493l-0.1,0.1h0.1c-1.533,1.334-2.768,3.5-3.701,6.5l-4.5,13.5
		c-0.867,2.732-2.066,4.301-3.6,4.701c-1.666,0.266-3.732-0.633-6.199-2.701l-0.5-0.5l-0.4-0.199l-0.301-0.5l-3.398-4.4v-0.1
		c-2-3.6-2.701-7.867-2.102-12.801c0.801-7.8,3.734-13.366,8.801-16.699c4.801-3.334,8.9-3.667,12.301-1l-0.102-0.101l0.701,0.601
		l0.4,0.1l0.299,0.4c2.732,2.066,5.934,3.366,9.6,3.899l12.301-0.5c-0.4,0.601-0.6,1.267-0.6,2c0,1.4,0.699,2.567,2.1,3.5h-0.1
		l-5.201,1.101l-3.5,0.699l-0.199-3.3l-0.199-0.6l-0.602-0.3l-0.6,0.1l-6.4,3.4v-0.101l0.102-0.6l0.898-0.601l0.9-0.8l1.1-0.399
		l0.701-0.301l0.199-0.8l-0.299-0.6l-0.801-0.3c-0.934,0.066-1.699,0.399-2.301,1l-0.199,0.1l-0.5,0.5l-0.1,0.1l-0.301,0.301h-0.1
		c-1.199,0.399-1.566,1.199-1.1,2.399l0.5,0.5l0.299,0.101L47.808,60.493 M70.008,50.893v-0.101l3.201-0.899l2.699,0.699
		l0.199,0.101l0.301,0.1l0.1,0.101l1.1,1.699v0.2c0,0.733-0.367,1.367-1.1,1.9l-0.6,0.399l-0.699,0.301l-0.801,0.3l0.1-0.101
		l-1.299,0.101c-0.668,0-1.367-0.233-2.102-0.7l-0.5-0.2l-0.398,0.101l-0.102-0.101l-0.1-0.1c-0.799-0.533-1.199-1.167-1.199-1.9
		c0-0.6,0.268-1.1,0.799-1.5l0.201-0.2L70.008,50.893 M79.607,53.293l5-1.1l5-1.3l0.201-0.101l0.6-0.1l4.4-0.101v0.101
		c-0.135,0.2-0.068,0.5,0.199,0.899l0.1,0.2v0.101v0.399l-0.1,0.101c-0.268,1.666-0.834,2.733-1.699,3.199h0.1l-0.801,0.2v-0.1
		l-0.799,0.2h-0.801h-1.199l-5.301-0.2l-0.799,0.399l-0.201,0.301l-0.5,1.199l-0.1,0.301l-0.6,3.899c-1.4-2.467-2.867-4.366-4.4-5.7
		C78.908,55.293,79.474,54.36,79.607,53.293 M89.808,52.592l-0.6,0.5l-0.201,0.7l0.5,0.7c0.4,0.267,1.033,0.566,1.9,0.9l0.699-0.101
		l0.602-0.5l-0.102-0.8l-0.5-0.5l-1.5-0.7L89.808,52.592 M40.808,51.893l0.799,0.1l0.602-0.5c0.133-0.267,0.166-0.5,0.1-0.7
		l-0.5-0.6l-5.301-0.2c-2.268,0.934-4.033,2.533-5.299,4.8v0.101c-1.334,2.6-0.9,4.899,1.299,6.899l4.301,2.601l-0.1-0.101
		l3.199,0.4l0.5-0.101l0.301-0.3c1.332-1.933,2.066-3.8,2.199-5.6v-0.101l0.1-0.5l-0.1-0.5l-1.4-1.8l-1.299-1.399l-0.602-0.301
		l-1.699-0.199l-0.6,0.199l-1.1,0.9l-0.602,0.9l-0.1,0.5l0.201,0.5l0.5,0.8l0.699,0.399l0.699-0.199l0.4-0.601l-0.199-0.8l-0.1-0.2
		l0.1-0.1l0.299-0.2l1,0.1l0.9,1l0.9,1.2v0.2v0.1c-0.133,1.334-0.633,2.7-1.5,4.101l-1.9-0.2c-1.4-0.533-2.633-1.267-3.699-2.2
		c-1.467-1.267-1.732-2.767-0.801-4.5c1-1.866,2.434-3.2,4.301-4L40.808,51.893 M35.607,69.294c-2.133-1.201-4.133-0.9-6,0.898
		l-0.199,0.301l-0.1,0.4l0.1,2.299l0.301,0.701l0.699,0.299l0.699-0.299l0.301-0.701l-0.1-1.898l3.4-0.201h0.1l1.199,0.701l0.1,0.1
		l1.201,0.9c-0.334,1.6-0.934,2.965-1.801,4.1l-3.299,1.699c-2.133-0.4-3.566-1.6-4.301-3.6l-1.699-6.301l-0.4-0.6l-0.801-0.199
		l-0.6,0.5l-0.199,0.699l1.799,6.6c1.068,2.801,3.135,4.434,6.201,4.9l0.6-0.1l3.799-1.9l0.301-0.199c1.332-1.6,2.133-3.568,2.4-5.9
		v-0.4l-0.301-0.4l-1.799-1.5c-0.535-0.332-1.035-0.6-1.5-0.799L35.607,69.294"/>
	<path style="fill:#010202;" d="M47.808,60.592h-0.1l0.1-0.1V60.592 M97.008,52.693v0.1V52.693"/>
	<path style="fill:#1E7933;" d="M47.808,60.493l3.299-2.6h0.5l0.5-0.5l6.4-3.4l0.6-0.1l0.602,0.3l0.199,0.6l0.199,3.3l3.5-0.699
		l5.201-1.101h0.1c-1.4-0.933-2.1-2.1-2.1-3.5c0-0.733,0.199-1.399,0.6-2l-12.301,0.5c-3.666-0.533-6.867-1.833-9.6-3.899
		l-0.299-0.4l-0.4-0.1l-0.701-0.601l0.102,0.101c-3.4-2.667-7.5-2.334-12.301,1c-5.066,3.333-8,8.899-8.801,16.699
		c-0.6,4.934,0.102,9.201,2.102,12.801v0.1l3.398,4.4l0.301,0.5l0.4,0.199l0.5,0.5c2.467,2.068,4.533,2.967,6.199,2.701
		c1.533-0.4,2.732-1.969,3.6-4.701l4.5-13.5c0.934-3,2.168-5.166,3.701-6.5V60.493 M68.908,49.193c0.867-0.601,1.832-1,2.9-1.2
		l1.4-0.1l3.5,0.899l0.898,0.4c0.867,0.6,1.469,1.3,1.801,2.1l4.699-1l4.801-1.3l0.6-0.2c2.934-1.933,5.5-1.467,7.701,1.4l0.199,0.7
		l-0.301,0.699v0.301l-0.1,0.899c-0.467,2.601-1.467,4.167-3,4.7h-0.1l-0.801,0.2h-0.1l-0.799,0.2h-0.301h-0.9l-1.699-0.101
		l-0.5-0.2l-3.4-0.1l-0.199,0.1l-0.301,0.7l-1.199,6.8l-0.301,0.5l-0.6,0.301l-0.6-0.101l-0.4-0.5c-1.732-3.8-3.635-6.467-5.701-8
		h-0.1l-0.299,0.101l-0.801,0.199h-0.1l-1.6,0.101l-1.9-0.3l-0.9,0.5l-0.1,0.1l-6.301,1.4l-4.6,0.899h-0.5l-0.5-0.399l-0.199-0.5
		l-0.201-2.9l-5.699,3.1l-3.201,2.5c-1.332,1.134-2.367,3-3.1,5.6l-4.5,13.5c-1.199,3.602-2.9,5.633-5.1,6.102
		c-2.199,0.465-4.832-0.602-7.9-3.201l-0.1-0.1l-0.5-0.5l-0.199-0.4l-0.5-0.299l-3.801-4.9c-2.133-4-2.9-8.666-2.301-14
		c0.934-8.467,4.168-14.533,9.701-18.2c5.666-3.934,10.566-4.233,14.699-0.9v0.101l0.4,0.3l0.4,0.399l0.4,0.2
		c2.465,1.8,5.367,2.967,8.699,3.5l12.4-0.7l0.799,0.2l0.301,0.3V49.193 M69.808,51.092l-0.201,0.2c-0.531,0.4-0.799,0.9-0.799,1.5
		c0,0.733,0.4,1.367,1.199,1.9l0.1,0.1l0.102,0.101l0.398-0.101l0.5,0.2c0.734,0.467,1.434,0.7,2.102,0.7l1.299-0.101l-0.1,0.101
		l0.801-0.3l0.699-0.301l0.6-0.399c0.732-0.533,1.1-1.167,1.1-1.9v-0.2l-1.1-1.699l-0.1-0.101l-0.301-0.1l-0.199-0.101l-2.699-0.699
		l-3.201,0.899v0.101L69.808,51.092 M77.908,56.092c1.533,1.334,3,3.233,4.4,5.7l0.6-3.899l0.1-0.301l0.5-1.199l0.201-0.301
		l0.799-0.399l5.301,0.2h1.199h0.801l0.799-0.2v0.1l0.801-0.2h-0.1c0.865-0.466,1.432-1.533,1.699-3.199l0.1-0.101v-0.399v-0.101
		l-0.1-0.2c-0.268-0.399-0.334-0.699-0.199-0.899v-0.101l-4.4,0.101l-0.6,0.1l-0.201,0.101l-5,1.3l-5,1.1
		C79.474,54.36,78.908,55.293,77.908,56.092"/>
	<path style="fill:#C0D3B8;" d="M51.607,57.893h-0.5l-0.299-0.101l-0.5-0.5c-0.467-1.2-0.1-2,1.1-2.399h0.1l0.301-0.301l0.1-0.1
		l0.5-0.5l0.199-0.1c0.602-0.601,1.367-0.934,2.301-1l0.801,0.3l0.299,0.6l-0.199,0.8l-0.701,0.301l-1.1,0.399l-0.9,0.8
		l-0.898,0.601l-0.102,0.6v0.101L51.607,57.893 M90.607,52.793l1.5,0.7l0.5,0.5l0.102,0.8l-0.602,0.5l-0.699,0.101
		c-0.867-0.334-1.5-0.634-1.9-0.9l-0.5-0.7l0.201-0.7l0.6-0.5L90.607,52.793 M37.308,51.793c-1.867,0.8-3.301,2.134-4.301,4
		c-0.932,1.733-0.666,3.233,0.801,4.5c1.066,0.934,2.299,1.667,3.699,2.2l1.9,0.2c0.867-1.4,1.367-2.767,1.5-4.101v-0.1v-0.2
		l-0.9-1.2l-0.9-1l-1-0.1l-0.299,0.2l-0.1,0.1l0.1,0.2l0.199,0.8l-0.4,0.601l-0.699,0.199l-0.699-0.399l-0.5-0.8l-0.201-0.5l0.1-0.5
		l0.602-0.9l1.1-0.9l0.6-0.199l1.699,0.199l0.602,0.301l1.299,1.399l1.4,1.8l0.1,0.5l-0.1,0.5v0.101
		c-0.133,1.8-0.867,3.667-2.199,5.6l-0.301,0.3l-0.5,0.101l-3.199-0.4l0.1,0.101l-4.301-2.601c-2.199-2-2.633-4.3-1.299-6.899
		v-0.101c1.266-2.267,3.031-3.866,5.299-4.8l5.301,0.2l0.5,0.6c0.066,0.2,0.033,0.434-0.1,0.7l-0.602,0.5l-0.799-0.1L37.308,51.793
		 M35.709,69.393c0.465,0.199,0.965,0.467,1.5,0.799l1.799,1.5l0.301,0.4v0.4c-0.268,2.332-1.068,4.301-2.4,5.9l-0.301,0.199
		l-3.799,1.9l-0.6,0.1c-3.066-0.467-5.133-2.1-6.201-4.9l-1.799-6.6l0.199-0.699l0.6-0.5l0.801,0.199l0.4,0.6l1.699,6.301
		c0.734,2,2.168,3.199,4.301,3.6l3.299-1.699c0.867-1.135,1.467-2.5,1.801-4.1l-1.201-0.9l-0.1-0.1l-1.199-0.701h-0.1l-3.4,0.201
		l0.1,1.898l-0.301,0.701l-0.699,0.299l-0.699-0.299l-0.301-0.701l-0.1-2.299l0.1-0.4l0.199-0.301c1.867-1.799,3.867-2.1,6-0.898
		L35.709,69.393"/>
</g>
</svg>
