<svg xmlns="http://www.w3.org/2000/svg" height="182" width="160"><g style="clip-rule:evenodd;fill-rule:evenodd;stroke-linecap:round;stroke-linejoin:round"><path d="M10.75-56.05v-.05H4.5v3.9l-.05 1.1L4-48.65l-1.05 2H2v3.3h1.35v-1.95h7.2v1.95h1.4v-3.3h-1.2v-9.4M.4-60h3.9l1.2.55 3.85-8.6 3.9 8.6L14.5-60l3.15 3.05 1.1 1.1-1.1-1.1 1.15 1.1h-.05l-.35.4.1.1c1.4 1.367 2.167 2.883 2.3 4.55l.05.6c0 1.1-.267 2.133-.8 3.1l-.25.45-1.4 1.7.1.1-.3.3-3.25.9v4.7l-3.25.7-3.15.9.65 1.6L12.55-37l3-.6c1.033 0 1.75.2 2.15.6.533.533.8 1.2.8 2 0 .733-.25 1.35-.75 1.85-.7.7-2.067 1.117-4.1 1.25l-1.25.05.35 1.5 1.5-.05-.05 2.75-1.5 1.25v8.75H8.15v1.55h6.6l1.15.4c.367.367.55.917.55 1.65 0 .7-.183 1.233-.55 1.6-.3.3-.683.45-1.15.45h-6.6v.95H-1.6l-1.55 1.5V-3c0 .467-.15.85-.45 1.15-.367.367-.9.55-1.6.55-.733 0-1.283-.183-1.65-.55-.267-.3-.4-.683-.4-1.15v-6.55H-8.8l-1.7-1.1-1.75-3.9v-2.4h.15v-1.5l.45-.4.2-.15 1.15-1.4-1.25-1-.7.95.4-10.95 1.75-12.8.4.35.75-.7-1-1.1c-.967-1.233-1.467-2.567-1.5-4v-.25l.05-.9c.233-1.533 1.05-2.95 2.45-4.25l-.75-.75.5-3.95.65.3 3.85-8.6 3.85 8.6L.4-60m5.45 8.85v-3.6h3.5v8.15H4.4l.05-.05.5-.9.9-3.55v-.05m-.35 13.2C4.8-38.65 3.717-39 2.25-39l-4 .75-3.1.9.65 1.6L-.9-37l3-.6c1.033 0 1.75.2 2.15.6.533.533.8 1.2.8 2 0 .733-.25 1.35-.75 1.85-.7.7-2.05 1.117-4.05 1.25l-1.3.05.35 1.5c2.633-.033 4.6-.55 5.9-1.55l.4-.35c.667-.667 1-1.617 1-2.85 0-1.2-.367-2.15-1.1-2.85M-7.15-43.6l.75-1.55v-1.35h-1.5v1.45h.55l-.55 1.45h.75m3.65-2.9H-5v1.45h.55L-5-43.6h.75l.75-1.55v-1.35" style="fill:#fff" transform="matrix(2 0 0 2 79.141 142)"/><path d="M100.641 29.9v18.9h2.4v6.5h-2.8v-3.9h-14.4v3.9h-2.7v-6.5h1.9l2.1-4.1.9-4.9.1-2.2v-7.7h12.5m-20.7-7.9-2.5 1.1-7.7-17.2-7.7 17.2-1.3-.6-1.1-.5 10.1-22 10.2 22m-20.2 8.4 1.5 1.5c-2.8 2.6-4.434 5.434-4.9 8.5l-.1 1.8v.5c.066 2.866 1.066 5.534 3 8l2 2.2-1.5 1.4-.8-.7-1.2-1.4-1.5-2.1c-1.466-2.334-2.166-4.9-2.1-7.7l.1-2c.266-2 .934-3.9 2-5.7l3.5-4.3m-5.1 70.7 1.4-1.9 2.5 2-2.3 2.8-.4.3-.9.8c-.934.6-2 .9-3.2.9-1.266 0-3.034-.734-5.3-2.2-1.6-.866-2.866-1.3-3.8-1.3-1.2 0-2.066.366-2.6 1.1l-.3.4-.9 1.5-2.7-1.5a8.99 8.99 0 0 1 2.4-3.3l1.2-.9 2.7-.7c1.466 0 2.966.534 4.5 1.6 2.2 1.134 3.9 1.7 5.1 1.7.8 0 1.666-.434 2.6-1.3m6.9 21.8h3.1V136c0 .934.266 1.7.8 2.3.734.734 1.834 1.1 3.3 1.1 1.4 0 2.466-.366 3.2-1.1.6-.6.9-1.366.9-2.3v-13.1h3v13.2c0 1.666-.534 3.034-1.6 4.1-1.2 1.2-3.034 1.8-5.5 1.8-2.534 0-4.4-.6-5.6-1.8-1.066-1.066-1.6-2.434-1.6-4.1v-13.2m33.9-3V118h13.2c.934 0 1.7-.3 2.3-.9.734-.734 1.1-1.8 1.1-3.2 0-1.466-.366-2.566-1.1-3.3l-2.3-.8h-13.2v-3.1h13.3c1.666 0 3.034.534 4.1 1.6 1.2 1.2 1.8 3.066 1.8 5.6 0 2.466-.6 4.3-1.8 5.5l-.6.5c-1 .734-2.166 1.1-3.5 1.1h-13.3v-1.1m12.2-38.7-3 .1-.7-3 2.5-.1c4.066-.266 6.8-1.1 8.2-2.5 1-1 1.5-2.234 1.5-3.7 0-1.6-.534-2.934-1.6-4-.8-.8-2.234-1.2-4.3-1.2l-6 1.2-6.7 2.5-1.3-3.2 6.3-1.8 6.5-1.4 1.5-.1c2.934 0 5.1.7 6.5 2.1 1.466 1.4 2.2 3.3 2.2 5.7 0 2.466-.666 4.366-2 5.7l-.8.7c-2.134 1.6-5.066 2.6-8.8 3m8.5-28.9-.2-.2 2.8-3.4.5-.9c1.066-1.934 1.6-4 1.6-6.2l-.1-1.2c-.266-3.334-1.8-6.366-4.6-9.1l-.2-.2.7-.8h.1l.6-.7c3.4 3.134 5.234 6.734 5.5 10.8l.1 1.2c0 2.534-.6 4.9-1.8 7.1-.934 1.666-2.2 3.266-3.8 4.8l-1.2-1.2m-8-30.3-2.5 1.1-7.8-17.2-7.7 17.2-2.4-1.1 10.1-22 10.3 22m-17.3 17.7v.1l-1.8 7.1-1 1.8-.1.1h9.9V32.5h-7v7.2m-.7 26.4c1.466 1.4 2.2 3.3 2.2 5.7 0 2.466-.666 4.366-2 5.7l-.8.7c-2.6 2-6.534 3.034-11.8 3.1l-.7-3 2.6-.1c4-.266 6.7-1.1 8.1-2.5 1-1 1.5-2.234 1.5-3.7 0-1.6-.534-2.934-1.6-4-.8-.8-2.234-1.2-4.3-1.2l-6 1.2-6.6 2.5-1.3-3.2 6.2-1.8 8-1.5c2.934 0 5.1.7 6.5 2.1m-18-17.1v2.7l-1.5 3.1h-1.5l1.1-2.9h-1.1V49h3m-7.3 5.8h-1.5l1.1-2.9h-1.1V49h3v2.7l-1.5 3.1"/><path d="M4.3-60H.4m12.3 39.65v-6.05m6.05-29.45-1.1-1.1" style="fill:none;fill-rule:nonzero;stroke:#000;stroke-width:1px" transform="matrix(2 0 0 2 79.141 142)"/><path d="M74.246 27h.402l1.106.2.904.7c.603.6.905 1.266.905 2l-.905 2.3c-.603.534-1.272.8-2.01.8l-1.608-.4-.502-.4-.905-1.4v-.3l-.1-.6v-.2c.066-.666.402-1.266 1.005-1.8l.502-.4a2.38 2.38 0 0 1 1.106-.5h.1m.905 1.7-.503-.1c-.468-.066-.838.066-1.105.4-.267.2-.402.5-.402.9v.3l.301.9h.101l.1.1.402.2.603.1 1.106-.4.301-1.2-.1-.6-.201-.3-.1-.1-.302-.2h-.201m32.895-1.7h.402l1.106.2.904.7c.603.6.905 1.266.905 2l-.904 2.3c-.604.534-1.273.8-2.01.8l-1.609-.4-.502-.4-.904-1.4v-.3l-.101-.6v-.2c.066-.666.402-1.266 1.005-1.8l.502-.4a2.38 2.38 0 0 1 1.106-.5h.1m.905 1.7-.502-.1c-.469-.066-.839.066-1.106.4-.267.2-.402.5-.402.9v.3l.301.9h.101l.1.1.403.2.602.1 1.106-.4.301-1.2-.1-.6-.201-.3-.1-.1-.302-.2h-.201"/><path d="m-2.25-9.9.05-.05.25-.1h.1c2.967-1.033 5.867-1.017 8.7.05l-.05-.05 1.6.75.1.05c.867.467 1.767.883 2.7 1.25l1.95.55.35-.05.25-.3 1.35.2h.05l.35.05 1.55.3a.33.33 0 0 0 .05.3 4.7 4.7 0 0 0 1.95 2.15l-2.4.75c-.1-.367-.1-.8 0-1.3l-.05-.3-.25-.25-.3-.05-3.95.85 1.45-.5.35-.2.1-.35-.2-.35-.35-.1c-.967.1-1.883.5-2.75 1.2l-.2.35.1.35.1.1-.05.25C7.917-1.217 6.367 2.117 6 5.65l-.1-.25-.2-.25-.35-.3-.3-.1-3.15.2c-.133 0-.233.033-.3.1l-.15.25-.5 1.9-.05.6.15.25c.133.167.317.2.55.1l.25-.2L2 7.7l-.05-.4c.067-.467.183-.917.35-1.35l2.6-.2h.05l.05.1c.333 1.033.1 1.9-.7 2.6v.05l-1.05.7.05-.05-2.2.2h-.05c-.5-.033-.883-.267-1.15-.7-.433-.667-.617-1.367-.55-2.1l.35-2 .5-1 .05-.4-.2-.3-.4-.1-.3.25-.6 1.25-.4 2.25c-.067.9.167 1.783.7 2.65.433.733 1.05 1.133 1.85 1.2l2.8-.3h.1l1-.7-.2.3h-.05c-1.033 1.2-2.3 1.95-3.8 2.25H.7l-1.4-.2-1.9-.9.1-.3-.1-.75-.1-.45-.05-.05-.6-1.05c-.4-.567-1.05-.8-1.95-.7l-.3.2-.15.35.2.35.35.1c.5-.033.85.067 1.05.3l.05.05.45.8v.05l.05.05.05.15.05.35c-1.167-.8-2.2-1.8-3.1-3-1.833-4.033-1.967-8.267-.4-12.7v-.25l.1-.1c1.767 1.5 2.433 3.333 2 5.5l-.05.1h-.6l-.25-.5-.2-.15-.5-.3-.35-.05c-.133 0-.233.067-.3.2l-.05.4.2.3.4.2.35.65.15.2.25.05h1.15l.35-.15c.267-.233.417-.483.45-.75.533-2.633-.317-4.833-2.55-6.6.767-1.333 1.733-2.233 2.9-2.7l.15-.1.75-.25c-.1.7.167 1.067.8 1.1l.55.05c.767.1 1.267-.117 1.5-.65l.05-.4-.25-.3h-.4l-.3.25-.45.1h-.1l-.4-.05h-.05a.94.94 0 0 1-.55-.25m7.7 2.4-.65-.7-.05-.05-2.45.1c-.633.4-1.133.9-1.5 1.5-1.267 1.967-1 3.75.8 5.35 1.3 1.2 2.7 1.217 4.2.05l.1-.05c.4-.533.467-1.133.2-1.8l-.45-.5-1.2-.8-.05-.05L3.1-5l-.4.05-.2.3c-.067.1-.05.217.05.35l.3.25 1.05.5h.05l1.15.8.1.05.05.05H5.2c.1.233.083.45-.05.65l-2.9-.05C.883-3.283.683-4.633 1.65-6.1c.267-.5.667-.9 1.2-1.2H2.8l1.45-.05.35.35.3.25.35-.05.25-.3-.05-.4m12.9.35.9-.15.25-.1.15-.15.1-.3c1.033-.4 2.083-.3 3.15.3.067.933-.05 1.6-.35 2-.367.367-.967.467-1.8.3l.05.05-.35-.1-.3-.1h-.05v-.05c-.9-.333-1.567-.9-2-1.7h.25" style="fill:#12a001" transform="matrix(-2 0 0 2 104.431 71.806)"/><path d="m-2.9-10.75-.45.15h.05l.2-.1.15-.05h.05" style="fill:#ccc" transform="matrix(-2 0 0 2 104.431 71.806)"/><path d="m12.1-5.1 3.95-.85.3.05.25.25.05.3c-.1.5-.1.933 0 1.3l2.4-.75a4.7 4.7 0 0 1-1.95-2.15.33.33 0 0 1-.05-.3l-1.55-.3-.35-.05h-.05l-1.35-.2-.25.3-.35.05L11.2-8a24.929 24.929 0 0 1-2.7-1.25l-.1-.05-1.6-.75.05.05c-2.833-1.067-5.733-1.083-8.7-.05h-.1l-.25.1-.05.05-.1.05-1.05.35-.15.1c-1.167.467-2.133 1.367-2.9 2.7l-.45.9-.1.1v.25c-1.567 4.433-1.433 8.667.4 12.7.9 1.2 1.933 2.2 3.1 3v.25l.15.35.35.15.35-.15.05-.05 1.9.9 1.4.2h.05c1.5-.3 2.767-1.05 3.8-2.25h.05l.2-.3.1-.1h.05C6.083 8.283 6.433 7.083 6 5.65c.367-3.533 1.917-6.867 4.65-10l.05-.25c.067.067.15.1.25.1l.35-.1.8-.5m-15-5.65.2-.05.55-.25c3.2-1.067 6.317-1.033 9.35.1l1.8.8.1.1c.8.4 1.617.767 2.45 1.1h-.05l1.9.55.3.2.9-.5.65.1.45.05.05.05 1.9.3h.05l.45.05.7-.1.05-.2.25-.25c1.5-.633 3-.483 4.5.45l.15.15.05.2c.167 1.4-.017 2.4-.55 3-.567.667-1.483.883-2.75.65h-.05l-4.1 1.3-.3-.05-.25-.25c-.2-.4-.283-.917-.25-1.55l-4 .85-.1.15C8.633-.533 7.1 2.95 6.9 6.65c-.033.8-.267 1.583-.7 2.35l-.1.2v.05l-.75 1v.05c-1.2 1.367-2.667 2.233-4.4 2.6h-.6l-1.4-.25c-2.567-.967-4.683-2.583-6.35-4.85l-.05-.1-.05-.05c-1.967-4.3-2.117-8.783-.45-13.45l.15-.25.05-.25c.9-2 2.117-3.333 3.65-4l.1-.05.65-.25.45-.15m21.25 3.6h-.25c.433.8 1.1 1.367 2 1.7v.05h.05l.3.1.35.1-.05-.05c.833.167 1.433.067 1.8-.3.3-.4.417-1.067.35-2-1.067-.6-2.117-.7-3.15-.3l-.1.3-.15.15-.25.1-.9.15" style="fill:#167801" transform="matrix(-2 0 0 2 104.431 71.806)"/><path d="m12.1-5.1-.8.5-.35.1a.338.338 0 0 1-.25-.1l-.1-.1-.1-.35.2-.35c.867-.7 1.783-1.1 2.75-1.2l.35.1.2.35-.1.35-.35.2-1.45.5M6 5.65c.433 1.433.083 2.633-1.05 3.6H4.9l-.1.1-1 .7h-.1l-2.8.3c-.8-.067-1.417-.467-1.85-1.2-.533-.867-.767-1.75-.7-2.65l.4-2.25.6-1.25.3-.25.4.1.2.3-.05.4-.5 1-.35 2c-.067.733.117 1.433.55 2.1.267.433.65.667 1.15.7h.05l2.2-.2-.05.05 1.05-.7v-.05c.8-.7 1.033-1.567.7-2.6l-.05-.1H4.9l-2.6.2a6.175 6.175 0 0 0-.35 1.35l.05.4-.15.25-.25.2c-.233.1-.417.067-.55-.1L.9 7.8l.05-.6.5-1.9.15-.25c.067-.067.167-.1.3-.1l3.15-.2.3.1.35.3.2.25.1.25m-8.6 5.15-.05.05L-3 11l-.35-.15-.15-.35v-.25l-.05-.35-.05-.15-.05-.05v-.05l-.45-.8-.05-.05c-.2-.233-.55-.333-1.05-.3l-.35-.1-.2-.35.15-.35.3-.2c.9-.1 1.55.133 1.95.7l.6 1.05.05.05.1.45.1.75-.1.3M-6.9-5.8l.45-.9C-4.217-4.933-3.367-2.733-3.9-.1c-.033.267-.183.517-.45.75L-4.7.8h-1.15L-6.1.75l-.15-.2-.35-.65-.4-.2-.2-.3.05-.4c.067-.133.167-.2.3-.2l.35.05.5.3.2.15.25.5h.6l.05-.1c.433-2.167-.233-4-2-5.5m4.25-3.95.3-.1.1-.05a.94.94 0 0 0 .55.25h.05l.4.05h.1l.45-.1.3-.25H0l.25.3-.05.4c-.233.533-.733.75-1.5.65l-.55-.05c-.633-.033-.9-.4-.8-1.1m8.1 2.25.05.4-.25.3-.35.05L4.6-7l-.35-.35-1.45.05h.05c-.533.3-.933.7-1.2 1.2-.967 1.467-.767 2.817.6 4.05l2.9.05c.133-.2.15-.417.05-.65h.05L5.2-2.7l-.1-.05-1.15-.8H3.9l-1.05-.5-.3-.25c-.1-.133-.117-.25-.05-.35l.2-.3.4-.05 1.3.55.05.05 1.2.8.45.5c.267.667.2 1.267-.2 1.8l-.1.05C4.3-.083 2.9-.1 1.6-1.3-.2-2.9-.467-4.683.8-6.65c.367-.6.867-1.1 1.5-1.5l2.45-.1.05.05.65.7" style="fill:#bfd3b8" transform="matrix(-2 0 0 2 104.431 71.806)"/><path d="m82.432 65.853 7.629 1.69.922 4.71-3.277 5.274-5.274-11.674" style="fill:#fff" transform="translate(-.2)"/><path d="m69.341 67.3 6.2-1.8 8-1.5c2.934 0 5.1.7 6.5 2.1 1.466 1.4 2.234 3.3 2.3 5.7 0 2.466-.666 4.366-2 5.7l-.9.7c-2.6 2-6.534 3.034-11.8 3.1l-.7-3 2.6-.1c4-.266 6.7-1.1 8.1-2.5 1-1 1.5-2.234 1.5-3.7 0-1.6-.534-2.934-1.6-4-.8-.8-2.234-1.2-4.3-1.2l-6 1.2-6.6 2.5"/></g></svg>