<svg xmlns="http://www.w3.org/2000/svg" xmlns:xlink="http://www.w3.org/1999/xlink" height="182" width="160"><defs><path d="M1.35 0h.2l.55.1.45.35q.45.45.45 1L2.55 2.6q-.45.4-1 .4l-.8-.2-.25-.2-.45-.7v-.15L0 1.45v-.1q.05-.5.5-.9l.25-.2Q1 .05 1.3 0h.05m.45.85L1.55.8Q1.2.75 1 1q-.2.15-.2.45v.15l.15.45H1l.05.05.2.1.3.05.55-.2.15-.6-.05-.3L2.1 1 2.05.95 1.9.85h-.1" fill-rule="evenodd" id="a"/><path d="M2-1.7l-2 2 1.85 1.8M0 .3V.25v2.5M0 .3l-1.85 1.8M-2-1.7L0 .25V-2.7" fill="none" stroke="#fea5c0" stroke-linecap="round" stroke-linejoin="round" transform="translate(2.5 3.2)" id="b"/><use height="3" width="3" xlink:href="#a" id="d" transform="translate(.8)"/><use height="6.45" width="5" xlink:href="#b" id="e"/><g id="c"><path d="M4.25-60l1.2.55 3.85-8.6 3.85 8.6L14.4-60l3.15 3.05 1.15 1.1-.4.4.1.1q2.1 2.05 2.35 4.55v.6q0 1.65-.8 3.1l-.25.45-1.4 1.7.1.1-.3.3-3.25.9v4.7l-3.25.7-3.1.9.65 1.6 3.3-1.25q1.7-.6 3-.6 1.55 0 2.15.6.8.8.8 2 0 1.1-.75 1.85-1.05 1.05-4.05 1.25l-1.3.05.35 1.5 1.5-.05-.05 2.75-1.5 1.25v5.75H8.1v1.55h6.55q.7 0 1.15.4.55.55.55 1.65 0 1.05-.55 1.6-.45.45-1.15.45H8.1v1.5h-17l-3.25-3.25v-1.7l.45-.4q.75-.6 1.35-1.55l-1.25-1-.7.95.4-10.95 1.75-12.8.4.35.75-.7-1-1.1q-1.5-1.9-1.5-4.15l.1-1q.35-2.3 2.4-4.25l-.75-.75.5-3.95.65.3 3.85-8.6 3.85 8.6L.35-60h3.9" fill="#fff" fill-rule="evenodd" transform="translate(21.6 71)"/><path d="M14.4-60l-1.25.55-3.85-8.6-3.85 8.6-1.2-.55L9.3-71l5.1 11M.35-60l-1.25.55-3.85-8.6-3.85 8.6-.65-.3-.55-.25 5.05-11 5.1 11m-10.1 4.2l.75.75q-2.05 1.95-2.4 4.25l-.1 1q0 2.25 1.5 4.15l1 1.1-.75.7-.4-.35-.6-.7q-1.8-2.2-1.8-4.9l.1-1q.3-2.8 2.7-5m-2.55 35.35l.7-.95 1.25 1q-.6.95-1.35 1.55l-.45.4-1.2.45h-.4q-.95 0-2.65-1.1l-1.9-.65q-.85 0-1.3.55l-.6.95-1.4-.75 1.25-1.65q.85-.8 1.95-.8t2.25.8q1.65.85 2.55.85.65 0 1.3-.65M8.1-13.5V-15h6.55q.7 0 1.15-.45.55-.55.55-1.6 0-1.1-.55-1.65-.45-.4-1.15-.4H8.1v-1.55h6.6q1.25 0 2.05.8.9.9.9 2.8 0 1.85-.9 2.75-.8.8-2.05.8H8.1m6.05-16.9l-1.5.05-.35-1.5 1.3-.05q3-.2 4.05-1.25.75-.75.75-1.85 0-1.2-.8-2-.6-.6-2.15-.6-1.3 0-3 .6l-3.3 1.25-.65-1.6 3.1-.9 3.25-.7.75-.05q2.2 0 3.25 1.05 1.1 1.05 1.1 2.85 0 1.85-1 2.85l-.4.35q-1.55 1.2-4.4 1.5m4.25-14.45l-.1-.1 1.4-1.7.25-.45q.8-1.45.8-3.1v-.6q-.25-2.5-2.35-4.55l-.1-.1.4-.4.3-.35q2.55 2.35 2.85 5.4v.6q0 1.9-.95 3.55-.7 1.25-1.9 2.4l-.6-.6" fill="#333" fill-rule="evenodd" transform="translate(21.6 71)"/><path d="M4.25-60H.35M12.6-20.65v-5.75m6.1-29.45l-1.15-1.1" fill="none" stroke="#333" stroke-linecap="round" stroke-linejoin="round" transform="translate(21.6 71)"/></g></defs><g transform="matrix(2 0 0 2 79.441 142)"><use height="57.5" transform="translate(-21.6 -71)" width="43.45" xlink:href="#c"/><use height="3" transform="matrix(1.0012 0 0 1 13.45 -56.7)" width="4.65" xlink:href="#d"/><use height="6.45" transform="matrix(1.0012 0 0 1 8.597 -51.25)" width="5" xlink:href="#e"/></g></svg>