<svg xmlns:xlink="http://www.w3.org/1999/xlink" height="78" width="44.3" xmlns="http://www.w3.org/2000/svg"><use height="78" width="44.3" xlink:href="#a"/><defs><linearGradient gradientTransform="matrix(.0024 0 0 .0089 .15 -18.5)" gradientUnits="userSpaceOnUse" id="b" spreadMethod="pad" x1="-819.2" x2="819.2"><stop offset="0" stop-color="#868686"/><stop offset=".51" stop-color="#b5b5b5"/><stop offset="1" stop-color="#828282"/></linearGradient><linearGradient gradientTransform="matrix(.0022 0 0 .0136 .1 -2.35)" gradientUnits="userSpaceOnUse" id="c" spreadMethod="pad" x1="-819.2" x2="819.2"><stop offset="0" stop-color="#868686"/><stop offset=".51" stop-color="#b5b5b5"/><stop offset="1" stop-color="#828282"/></linearGradient><linearGradient gradientTransform="matrix(.0063 -.0036 .003 .0054 .2 .85)" gradientUnits="userSpaceOnUse" id="d" spreadMethod="pad" x1="-819.2" x2="819.2"><stop offset="0" stop-color="#868686"/><stop offset=".51" stop-color="#b5b5b5"/><stop offset="1" stop-color="#828282"/></linearGradient><linearGradient gradientTransform="matrix(.0022 0 0 .0055 -1.9 -6.65)" gradientUnits="userSpaceOnUse" id="e" spreadMethod="pad" x1="-819.2" x2="819.2"><stop offset="0" stop-color="#868686"/><stop offset=".51" stop-color="#b5b5b5"/><stop offset="1" stop-color="#828282"/></linearGradient><linearGradient gradientTransform="matrix(.006 -.0037 .0033 .0053 .2 .85)" gradientUnits="userSpaceOnUse" id="f" spreadMethod="pad" x1="-819.2" x2="819.2"><stop offset="0" stop-color="#868686"/><stop offset=".51" stop-color="#b5b5b5"/><stop offset="1" stop-color="#828282"/></linearGradient><g id="a"><path d="M1.95-4.2v-3.1q7.15.2 12.4 2.55 5.7 2.6 5.8 6.5-.1 2.15-2 3.9-1.4 1.2-3.8 2.25Q8.5 10.6.2 10.6t-14.15-2.7l-1.2-.55q-1.6-.85-2.6-1.7-1.55-1.4-2-3.1h.05V.8q.5-2.8 4.55-5l1.2-.55q4.45-2 10.3-2.45V-4l-2.75.5-2.4.75-.8.3q-2.45 1.15-2.9 2.6l-.05.25-.05.3.05-.3.05-.25-.05.2-.05.35v.35l.05.25.05.25Q-12.05 3-9.6 4.2l.8.3 2.4.75-2.4-.75-.8-.3q-2.45-1.2-2.9-2.65.3.85 1.25 1.6l1.65.95.8.35 2.4.8 2.75.5 3.85.2 1.75-.05h.35l1.4-.1 2.95-.5 2.6-.8 1.95-1-1.95 1-2.6.8 2.6-.85 1.95-.95.5-.35.1-.1.25-.25q.85-.85.95-1.95V.8q-.1-2.05-3.75-3.55l-2.45-.8-4.85-.65m10.1 7q.9-.85.95-1.85v-.1.1q-.05 1-.95 1.85" fill-opacity=".2" fill-rule="evenodd" transform="translate(24.15 67.4)"/><path d="m-1.65-11.25-.2-13.4L0-25.75l2.15 1.1-.2 13.4h-3.6m1.6-1.35v1.35-1.35" fill="url(#b)" fill-rule="evenodd" transform="translate(24.15 67.4)"/><path d="M-1.65-11.15v-.1H1.9v.1H-.05v-.1.1h-1.6" fill="url(#c)" fill-rule="evenodd" transform="translate(24.15 67.4)"/><path d="m6.8-3.55 2.45.8Q12.9-1.25 13 .8v.05Q12.85-.5 11.7-1.4L9.25-2.7 6.8-3.55m-19.3 5.1-.05-.25-.05-.25.05.3.05.2m0-1.4q.45-1.45 2.9-2.6l.8-.3 2.4-.75-2.4.8-.8.3-1.65 1q-.95.7-1.25 1.55" fill="url(#d)" fill-rule="evenodd" transform="translate(24.15 67.4)"/><path d="M-3.65-4v-7.15h3.6v8q0 .55-.45.75l-.3.15-1 .15-1.35-.3-.5-.4V-4" fill="url(#e)" fill-rule="evenodd" transform="translate(24.15 67.4)"/><path d="m1.95-4.2 4.85.65 2.45.85 2.45 1.3q1.15.9 1.3 2.25-.1 1.1-.95 1.95l-.25.25-.1.1-.5.35-1.95.95-2.6.85-2.95.5-1.4.1h-.35L.2 5.95l-3.85-.2-2.75-.5-2.4-.8-.8-.35-1.65-.95q-.95-.75-1.25-1.6l-.05-.2-.05-.3V.7l.05-.35.05-.2q.3-.85 1.25-1.55l1.65-1 .8-.3 2.4-.8 2.75-.5v1.2l.5.4 1.35.3 1-.15.3-.15q.45-.2.45-.75v-1.1H.2l1.75.05" fill="url(#f)" fill-rule="evenodd" transform="translate(24.15 67.4)"/><path d="m1.95-4.2 4.85.65 2.45.85 2.45 1.3q1.15.9 1.3 2.25-.1 1.1-.95 1.95l-.25.25-.1.1-.5.35-1.95 1-2.6.8-2.95.5-1.4.1h-.35L.2 5.95l-3.85-.2-2.75-.5-2.4-.75-.8-.3q-2.45-1.2-2.9-2.65l-.05-.25-.05-.25V.7l.05-.3.05-.25q.45-1.45 2.9-2.6l.8-.3 2.4-.75 2.75-.5v-3.3M13 .85v.1q-.05 1-.95 1.85M-3.65-8.25v-2.05m2-.95-.2-13.4m4 0-.2 13.4m-2 .1v6.9H.2l1.75.05m4.7 9.5 2.6-.85 1.95-.95M-.05-11.25v.1m0-.1v-1.35M-6.4-3.5l-2.4.8-.8.3-1.65 1q-.95.7-1.25 1.55l-.05.2-.05.35M-.05-3.15q0 .55-.45.75l-.3.15-1 .15-1.35-.3-.5-.4V-4m3.6-.25v.7m-12.45 5.1q.3.85 1.25 1.6l1.65.95.8.35 2.4.8m-6.2-4.2.05.3.05.2" fill="none" stroke="#400000" stroke-linecap="round" stroke-linejoin="round" transform="translate(24.15 67.4)"/><path d="m7.85-45.05-5.1-.1 1.35-2.7.35-5.4H8.2l.55 8.3.9.9v1.55-1.55l-.9-.9-.55-8.3H4.45l-.35 5.4-1.35 2.7 5.1.1m-19.1-8.65v-3.8l4.85-9.25L-2-58.5h5.25l4.6-8.4 4 7.5L14-57.9l.5.35.55.35 3 4.3.4 1.15h-.25q.8 1.5.8 3.4 0 2.4-1.3 4.2l-.1.1-.65.7-.2.15-.25.2v.35h-1.25v.5H14v.75l-.3-.05v3.65h.25q1.4 0 2.35.95 1 1 1 2.4t-1 2.35q-.5.55-1.15.8l-2.35 1.15-1.45 5.4v13.25l-.45 3.75V-.4q-.15.8-1 1.4-1 .75-2.4.75T5.1 1Q4.35.45 4.15-.25L4.2-1.3v-6.1L2.5-10 0-11.25-2.15-10-3.7-7.4v6.1l.05 1.15Q-3.9.5-4.6 1q-1 .75-2.4.75T-9.4 1q-1-.7-1-1.7v-6.8l-2.25-3.9-.35-2.8v-9.55L-11.25-35v-9.15l-.15-.15q-1.5-1.85-1.6-4.3.1-2.3 1.75-3.95v-1.15m25.1.2q.25.25.65.3l.6-.3.3-.6-.3-.65-.6-.25-.65.25-.25.65q0 .35.25.6M12-29.75l.8-.4-.8.4m-13 1 3.15-1.55 1.15-.8q1-.95 1-2.35 0-1.4-1-2.4-.95-.95-2.35-.95-.9 0-1.6.4L-5-34.9l4.35-1.5q.7-.4 1.6-.4 1.4 0 2.35.95 1 1 1 2.4t-1 2.35l-1.15.8L-1-28.75M1.75-42.5v-1.55l.9-1.1h.1-.1l-.9 1.1v1.55M8-35.9l4.35-1.5 1.35-.4-1.35.4L8-35.9M-3.6-53.1q.35 0 .6-.25.3-.3.3-.65l-.3-.65-.6-.25-.65.25-.25.65.25.65q.25.25.65.25m-3.3 10.4 1.3-1.45v-1 1l-1.3 1.45m-2.5 0 1.3-1.45v-1 1l-1.3 1.45" fill="#fcf3d6" fill-rule="evenodd" transform="translate(24.15 67.4)"/><path d="m14.5-57.55.5.3.05.05-.55-.35m3.55 4.65.8 1.15h-.4l-.4-1.15M4.15-.25 4.1-.7l.1-.6-.05 1.05M-3.7-1.3l.1.6-.05.55-.05-1.15m17.55-52.2q-.25-.25-.25-.6l.25-.65.65-.25.6.25.3.65-.3.6-.6.3q-.4-.05-.65-.3M-13-48.6q.1 2.45 1.6 4.3Q-13-46-13-48.35v-.25m9.4-4.5q-.4 0-.65-.25L-4.5-54l.25-.65.65-.25.6.25.3.65q0 .35-.3.65-.25.25-.6.25" fill="#fff" fill-rule="evenodd" transform="translate(24.15 67.4)"/><path d="M9.65-42.5v-1.55l-.9-.9-.55-8.3H4.45l-.35 5.4-1.35 2.7 5.1.1m-19.1-8.65v-3.8l4.85-9.25L-2-58.5h5.25l4.6-8.4 4 7.5L14-57.9l.5.35m3.95 5.8q.45 1.2.55 2.7.15 2.7-1.05 4.75l-.05.1-.6.85q-.2.2-.55.15m-3.05 2.45v2.95h.25q1.4 0 2.35.95 1 1 1 2.4t-1 2.35q-.5.55-1.15.8l-2.35 1.15-.8.4m-.65 5v13.25m-.45 3.75V-.4q-.15.8-1 1.4-1 .75-2.4.75T5.1 1Q4.35.45 4.15-.25L4.1-.7l.1-.6v-6.1m-7.9 0v6.1l.1.6-.05.55Q-3.9.5-4.6 1q-1 .75-2.4.75T-9.4 1q-1-.7-1-1.7v-6.8M-13-18.6l-.45.35q-.3.25-.7.35l-.35.05-.15.05h-.9q-.8-.1-1.25-.45l-.4-.55-.4-.65-.75-1-.95-.55-1.2-.15-1.2.2-1.05.45-.55.7-.35.7m38.7-38.1-.55-.35m-.65 4.05q-.25-.25-.25-.6l.25-.65.65-.25.6.25.3.65-.3.6-.6.3q-.4-.05-.65-.3m4.2.6.4 1.15M13.7-37.8l-1.35.4L8-35.9m-5.25-9.25h-.1l-.9 1.1v1.55M-5-34.9l4.35-1.5q.7-.4 1.6-.4 1.4 0 2.35.95 1 1 1 2.4t-1 2.35l-1.15.8L-1-28.75M4.15-.25 4.2-1.3m-15.45-52.4q-1.75 2-1.75 4.8v.3q.1 2.45 1.6 4.3l.15.2v9.1m0-9.15v.05M-13-18.85v.25m9.4-34.5q-.4 0-.65-.25L-4.5-54l.25-.65.65-.25.6.25.3.65q0 .35-.3.65-.25.25-.6.25m-4.5 7.95v1l-1.3 1.45m3.8-2.45v1l-1.3 1.45m3.2 41.4.05 1.15" fill="none" stroke="#634f07" stroke-linecap="round" stroke-linejoin="round" transform="translate(24.15 67.4)"/><path d="M2.95-31.25q-.75.75-1.75.85.65-.8.65-1.85 0-1.2-.85-2.05-.85-.85-2.05-.85l-.3.05.2-.25Q-.3-36.2.9-36.2q1.2 0 2.05.85.85.85.85 2.05 0 1.2-.85 2.05m13.7-2.85q0 1.2-.85 2.05-.75.75-1.75.85.65-.8.65-1.85 0-1.2-.85-2.05-.85-.85-2.05-.85l-.3.05.2-.25q.85-.85 2.05-.85 1.2 0 2.05.85.85.85.85 2.05m.25-10.5q-.8.95-1.85 1.2l-1.6-.2q.9-.3 1.65-1.1.85-1 .95-2.1.1-1.1-.6-1.7l-.15-.1.25-.1q1.1-.3 1.75.3.7.6.6 1.75-.15 1.1-1 2.05m-28.05 28.35q0 2.3.65 4 .6 1.65 1.5 1.65l.2-.1-.15.5q-.6 1.65-1.5 1.65t-1.5-1.65q-.65-1.7-.65-4 0-2.35.65-4 .55-1.5 1.3-1.7-.5 1.6-.5 3.65m1.8-36.35q-.7.85-1 2.05-.3 1.4.1 2.5.35 1.15 1.3 1.35h.2l-.2.25q-.9.9-1.8.7-.9-.2-1.3-1.35-.4-1.15-.1-2.55.35-1.4 1.25-2.25.75-.75 1.55-.7" fill="#fff" fill-rule="evenodd" transform="translate(24.15 67.4)"/></g></defs></svg>