<svg height="222" width="240" xmlns:xlink="http://www.w3.org/1999/xlink" xmlns="http://www.w3.org/2000/svg"><defs><path d="m2-1.7-2 2 1.85 1.8M0 .3V.25v2.5M0 .3l-1.85 1.8M-2-1.7 0 .25V-2.7" fill="none" stroke="#fea5c0" stroke-linecap="round" stroke-linejoin="round" transform="translate(2.5 3.2)" id="a"/><use height="6.45" width="5" xlink:href="#a" id="b" x="0" y="0"/></defs><path style="display:inline;fill:#514540;fill-opacity:1;stroke:#000;stroke-width:2;stroke-linecap:butt;stroke-linejoin:miter;stroke-miterlimit:4;stroke-dasharray:none;stroke-opacity:1" d="M139.26 154.114 171.479 6.106l8.475-1.96-33.43 150.848c-.43 2.13-7.597.66-7.262-.88z"/><g style="display:inline"><path style="fill:#fff;fill-opacity:1;stroke:none;stroke-width:2;stroke-linecap:butt;stroke-linejoin:miter;stroke-miterlimit:4;stroke-dasharray:none;stroke-opacity:1" d="M169.592 27.821s13.919-5.59 26.883-4.53c12.965 1.061 22.52 4.767 36.643 20.682 0 0-1.176-22.329-24.384-33.558-13.35-6.46-36.562.913-36.562.913" transform="translate(5.566 -6.117)"/><path style="fill:#c1c1c1;fill-opacity:1;stroke:none;stroke-width:1px;stroke-linecap:butt;stroke-linejoin:miter;stroke-opacity:1" d="M230.953 37.81s-2.668-5.75-5.19-7.69c-2.524-1.94-4.017-1.28-5.888-3.113-1.871-1.833-.228-3.02-2.78-4.835-2.553-1.815-4.81 1.52-8.064-.402-3.254-1.922-2.307-3.65-6.518-5.413-4.21-1.763-6.007 1.213-9.383 1.08-3.33-.132-3.916-3.3-8.222-3.357-4.877-.064-4.17 3.857-7.99 4.28-4.272.473-5.388-2.743-5.388-2.743l.62-4.426s23.35-6.013 36.196-.955c18.172 7.154 24.189 27.787 22.607 27.573z" transform="translate(5.566 -6.117)"/><path style="display:inline;fill:none;fill-opacity:1;stroke:#000;stroke-width:2;stroke-linecap:butt;stroke-linejoin:miter;stroke-miterlimit:4;stroke-dasharray:none;stroke-opacity:1" d="M169.592 27.821s13.919-5.59 26.883-4.53c12.965 1.061 22.52 4.767 36.643 20.682 0 0-1.176-22.329-24.384-33.558-13.35-6.46-36.962.443-36.962.443" transform="translate(5.566 -6.117)"/></g><path style="display:inline;fill:#72060a;fill-opacity:1;stroke:none;stroke-width:1px;stroke-linecap:butt;stroke-linejoin:miter;stroke-opacity:1" d="m129.13 65.402 9.053-22.357 9.073 19.618c-10.17-2.498-12.289 2.842-18.126 2.739zm-28.832 2.709s-.045-3.905 1.277-6.828c1.322-2.923 8.759-18.178 8.759-18.178l8.162 18.786s-8.499-.252-18.198 6.22z"/><path d="m127.941 62 2.4 1.1c-7.753 9.614 7.668-3.78 15.5 0l2.5-1.1 6.3 6.1 2.2 2.2-.7.8.2.2c2.8 2.733 4.333 5.767 4.6 9.1l.1 1.2c0 2.2-.533 4.267-1.6 6.2l-.5.9-2.8 3.4.2.2-.6.6-6.5 1.8v9.4l-6.5 1.4-6.3 1.8 1.3 3.2 6.7-2.5c2.267-.8 4.267-1.2 6-1.2 2.067 0 3.5.4 4.3 1.2 1.067 1.067 1.6 2.4 1.6 4 0 1.467-.5 2.7-1.5 3.7-1.4 1.4-4.133 2.233-8.2 2.5l-2.5.1.7 3 3-.1-.1 5.5-3 2.5v24.5l-1.7 9.2h-3.1V176c0 .933-.3 1.7-.9 2.3-.733.733-1.8 1.1-3.2 1.1-1.467 0-2.567-.367-3.3-1.1-.533-.6-.8-1.367-.8-2.3v-13.1h-3.1l-4.7-7h-3.5l-2.3-1h-16.5l-6.5-6.5V145l.9-.8 2.7-3v-.1l-2.5-2-1.4 1.9.8-21.8 3.5-25.6.8.7 1.5-1.4-2-2.2c-2-2.533-3-5.3-3-8.3l.1-2c.467-3.067 2.1-5.9 4.9-8.5l-1.5-1.5c.583-4.437 12.66-7.793 17.7-7.3l2.5-1.1h7.8m22 10.7-.1-.1-.2-.4-.1-.4v-.3l.4-.9 1-.4.6.1-.1.1h.4l.2.1v.1l.2.3.2.6-.4 1.2h-.1l-1 .4-.5-.1-.4-.1v-.2h-.1m.9-4.1-.4.1-1.5.8c-.6.533-.933 1.133-1 1.8v.4c0 .733.333 1.433 1 2.1.533.533 1.2.8 2 .8s1.5-.267 2.1-.8l.9-2.3-.9-2-.9-.6-1.2-.3h-.1" fill="#fff" fill-rule="evenodd"/><path d="m14.45-60-1.25.55-3.9-8.6-3.85 8.6-1.2-.55L9.3-71l5.15 11M.35-60l-1.25.55-3.85-8.6-3.85 8.6-.65-.3-.55-.25 5.05-11 5.1 11m-10.1 4.2.75.75q-2.1 1.95-2.45 4.25l-.05 1q0 2.25 1.5 4.15l1 1.1-.75.7-.4-.35-.6-.7q-1.8-2.2-1.8-4.9l.05-1q.35-2.8 2.75-5m-2.55 35.3.7-.95 1.25 1v.05l-1.35 1.5-.45.4v.05q-.7.45-1.6.45-.95 0-2.65-1.1l-1.9-.65q-.9 0-1.3.55l-.6.95-1.35-.75v-.05l1.2-1.65q.8-.8 1.95-.8 1.1 0 2.25.8 1.65.85 2.55.85.65 0 1.3-.65M4.6-9.55h1.55V-3q0 .7.4 1.15.55.55 1.65.55 1.05 0 1.6-.55.45-.45.45-1.15v-6.55h1.55v6.6q0 1.25-.8 2.05-.95.9-2.8.9-1.9 0-2.8-.9-.8-.8-.8-2.05v-6.6m9.6-20.85-1.5.05-.35-1.5 1.25-.05q3.05-.2 4.1-1.25.75-.75.75-1.85 0-1.2-.8-2-.6-.6-2.15-.6-1.3 0-3 .6l-3.35 1.25-.65-1.6 3.15-.9 3.25-.7.75-.05q2.2 0 3.25 1.05Q20-36.9 20-35.1q0 1.85-1 2.85l-.4.35q-1.6 1.2-4.4 1.5m4.25-14.45-.1-.1 1.4-1.7.25-.45q.8-1.45.8-3.1l-.05-.6q-.2-2.5-2.3-4.55l-.1-.1.35-.4h.05l.3-.35q2.55 2.35 2.75 5.4l.05.6q0 1.9-.9 3.55-.7 1.25-1.9 2.4l-.6-.6M15.7-56.7h.05l.6.15.45.3.45 1-.45 1.15q-.45.4-1.05.4-.6 0-1-.4-.5-.5-.5-1.05v-.2q.05-.5.5-.9l.75-.4.2-.05m.35.85-.3-.05-.5.2-.2.45v.15l.05.2.1.2.05.05.05.05v.05l.2.05.25.05.5-.2h.05l.2-.6-.1-.3-.1-.15v-.05l-.1-.05-.15-.05" fill="#333" fill-rule="evenodd" transform="matrix(2 0 0 2 119.441 182)" style="fill:#000;fill-opacity:1"/><path d="m156.841 70.3-2.2-2.2 2.3 2.2h-.1" fill="red" fill-rule="evenodd"/><path d="M4.25-60H.35m12.3 45.85V-26.4m6.05-29.45-1.1-1.1" fill="none" stroke="#333" stroke-linecap="round" stroke-linejoin="round" transform="matrix(2 0 0 2 119.441 182)" style="stroke:#000;stroke-opacity:1"/><use height="6.45" transform="matrix(2.0024 0 0 2 139.235 78.6)" width="5" xlink:href="#b"/><path style="color:#000;display:inline;fill:#9e0a0e;stroke-width:2.1;-inkscape-stroke:none" d="M149.796 154.676c-4.486 1.596-25.03 2.406-36.326 2.406-11.295 0-22.93-3.552-22.93-3.552 4.693-8.85 4.494-18.55 4.511-25.4.017-6.852 2.9-20.605 2.9-20.605s5.049 1.638 10.88 2.858c4.908.684 10.502.043 22.068-.184l1.488-.28s.546 8.984 1.806 10.14c1.764 1.617 6.941 2.09 11.425.966l1.737-.48c-.434 6.564-.575 16.765.01 22.095.414 3.782 1.23 7.413 2.43 12.036z"/><path style="display:inline;fill:none;stroke:#000;stroke-width:2.5;stroke-linecap:butt;stroke-linejoin:miter;stroke-miterlimit:4;stroke-dasharray:none;stroke-opacity:1" d="M145.747 61.843c-10.968-1.002-11.638 4.522-17.323 4.542.238-1.618.396-2.805 1.28-4.894m-11.208.4s-9.68-.08-18.198 6.22c0 0-.2-3.575.925-6"/><path style="display:inline;fill:none;stroke:#000;stroke-width:3.8;stroke-linecap:butt;stroke-linejoin:miter;stroke-miterlimit:4;stroke-dasharray:none;stroke-opacity:1" d="M125.71 110.049c.367-3.778 16.702-19.54 22.541-3.76"/><path style="display:inline;fill:#72060a;fill-opacity:1;stroke:none;stroke-width:1px;stroke-linecap:butt;stroke-linejoin:miter;stroke-opacity:1" d="m94.122 154.617 7.992-12.952-1.766 14.207zm10.663 2.087 10.159-16.184 2.395 16.977zm17.775.282 5.61-16.347 6.857 15.286zm15.314-1.337 3.081-13.317 5.13 11.852z"/><path style="color:#000;display:inline;fill:#000;-inkscape-stroke:none" d="M133.604 107.883c-1.932.189-4.028.564-6.044.648-4.71.242-12.806 1.04-18.438.341-5.632-.7-11.76-3.263-12.6-2.922-.81 5.67-2.465 17.238-2.52 22.177-.017 6.874.15 16.354-4.389 24.912l-.598 1.123 1.217.373s11.723 3.598 23.239 3.598c5.672 0 13.642-.204 20.775-.608 3.566-.201 6.434-.47 9.197-.773 2.762-.304 4.883-.63 6.217-1.104l.904-.322-.24-.932c-.509-4.606-.543-8.318-.95-12.024-.566-5.167-1.402-15.25-.972-21.757l.065-.953-3.523.116-.043-.002c-1.599 1.626-7.483 1.492-9.846-.68-2.363-2.171-1.436-7.687-1.451-11.211zm-.167 12.718c3.097 2.548 8.337 3.088 12.76 1.4-.395 6.614.312 15.29.889 20.554.387 3.527.39 6.924.945 11.274-1.079.283-2.55.585-4.819.834a164.14 164.14 0 0 1-9.085.766c-7.085.401-15.034.604-20.657.604-10.217 0-19.931-2.774-21.515-3.237 4.216-8.796 4.13-18.137 4.146-24.664.016-6.356 2.033-17.687 2.45-19.07 1.231.327 5.03 1.57 9.803 2.195 5.948.778 23.015-.755 23.015-.755.081 3.11-1.03 7.551 2.068 10.099z"/><path style="display:inline;fill:#000;fill-opacity:1;stroke-width:2" d="M95.141 145.1q-1.4.9-3.2.9-1.9 0-5.3-2.2l-3.8-1.3q-1.7 0-2.6 1.1l-1.2 1.9-2.8-1.5 2.5-3.3q1.7-1.6 3.9-1.6t4.5 1.6q3.3 1.7 5.1 1.7 1.3 0 2.6-1.3l1.4-1.9 2.5 2q-1.2 1.9-2.7 3.1l-.9.8"/><circle style="display:inline;fill:#fb0000;fill-opacity:1;fill-rule:evenodd;stroke:#000;stroke-width:1.76122;stroke-miterlimit:4;stroke-dasharray:none;stroke-opacity:1" cx="76.403" cy="141.787" r="5.56"/><path style="display:inline;fill:#000;fill-opacity:1;stroke:none;stroke-width:1px;stroke-linecap:butt;stroke-linejoin:miter;stroke-opacity:1" d="M98.55 96.826c2.978 2.835 6.713 9.883 6.184 10.328-1.953 2.277-3.56 12.346-3.56 12.346-1.331-1.333-5.764-3.178-5.764-3.178s.499-7.591-2.02-8.293c-4.419-1.23-13.252 4.824-13.252 4.824s-.576-2.273-2.54-3.533c-1.941-1.245-11.22-.945-11.22-.945s8.969-13.348 17.818-13.782c7.343-.361 13.022 5.052 13.022 5.052.794-1.027 1.019-1.37 1.332-2.819zm20.452-2.265s-2.08 1.503-4.19 6.486c-2.804 1.04-3.1 5.915-2.803 8.615.727 6.632 2.785 10.463 2.785 10.463s-1.086-8.267 3.03-11.266c0 0 3.368.385 4.348 3.705 0 0 1.147-3.886 7.064-2.22 0 0-1.936-11.393-7.851-16.152-1.11-.435-1.782-.096-2.383.37z"/></svg>