<svg height="222" width="240" xmlns:xlink="http://www.w3.org/1999/xlink" xmlns="http://www.w3.org/2000/svg"><defs><path d="M10.25-2.6H.75l-1.1-1" fill="none" stroke="#333" stroke-linecap="round" stroke-linejoin="round" transform="translate(.85 4.1)" id="c"/><path d="m2-1.7-2 2 1.85 1.8M0 .3V.25v2.5M0 .3l-1.85 1.8M-2-1.7 0 .25V-2.7" fill="none" stroke="#fea5c0" stroke-linecap="round" stroke-linejoin="round" transform="translate(2.5 3.2)" id="a"/><path d="M1.35 0h.2l.55.1.45.35q.45.45.45 1L2.55 2.6q-.45.4-1 .4l-.8-.2-.25-.2-.45-.7v-.15L0 1.45v-.1q.05-.5.5-.9l.25-.2Q1 .05 1.3 0h.05m.45.85L1.55.8Q1.2.75 1 1q-.2.15-.2.45v.15l.15.45H1l.05.05.2.1.3.05.55-.2.15-.6-.05-.3L2.1 1 2.05.95 1.9.85h-.1" fill-rule="evenodd" id="b"/><use height="6.45" width="5" xlink:href="#a" id="d" x="0" y="0"/><use height="3" width="3" xlink:href="#b" id="e" transform="translate(.8)" x="0" y="0"/><g id="f" transform="translate(11.45 4.1)"><use height="2" transform="translate(-.85 -4.1)" width="11.6" xlink:href="#c"/><use height="6.45" transform="translate(-11.45 -3.8)" width="5" xlink:href="#d"/></g><g id="g" transform="translate(.8)"><use height="3" transform="matrix(1.005 0 0 1 -.804 0)" width="4.65" xlink:href="#e"/><use height="3" transform="matrix(1.005 0 0 1 16.096 0)" width="4.65" xlink:href="#e"/></g></defs><path style="display:inline;fill:#000;fill-opacity:1;stroke:none;stroke-width:1px;stroke-linecap:butt;stroke-linejoin:miter;stroke-opacity:1" d="M98.55 96.826c2.978 2.835 6.713 9.883 6.184 10.328-1.953 2.277-3.56 12.346-3.56 12.346-1.331-1.333-5.764-3.178-5.764-3.178s.499-7.591-2.02-8.293c-4.419-1.23-13.252 4.824-13.252 4.824s-.576-2.273-2.54-3.533c-1.941-1.245-11.22-.945-11.22-.945s8.969-13.348 17.818-13.782c7.343-.361 13.022 5.052 13.022 5.052.794-1.027 1.019-1.37 1.332-2.819z"/><path style="display:inline;fill:#72060a;fill-opacity:1;stroke:none;stroke-width:1px;stroke-linecap:butt;stroke-linejoin:miter;stroke-opacity:1" d="m130.268 61.864 7.915-18.82 9.073 19.62zm-29.97 6.247s-.045-3.905 1.277-6.828c1.322-2.923 8.759-18.178 8.759-18.178l8.162 18.786s-8.499-.252-18.198 6.22z"/><path d="m127.941 62 2.4 1.1h15.5l2.5-1.1 6.3 6.1 2.2 2.2-.7.8.2.2c2.8 2.733 4.333 5.767 4.6 9.1l.1 1.2c0 2.2-.533 4.267-1.6 6.2l-.5.9-2.8 3.4.2.2-.6.6-6.5 1.8v9.4l-2.5.4-4 1-6.3 1.8 1.3 3.2 6.7-2.5c2.267-.8 4.267-1.2 6-1.2 2.067 0 3.5.4 4.3 1.2 1.067 1.067 1.6 2.4 1.6 4 0 1.467-.5 2.7-1.5 3.7-1.4 1.4-4.133 2.233-8.2 2.5l-2.5.1.7 3 3-.1-.1 5.5-3 2.5v11.5h-9.1v3.1h13.2c.933 0 1.7.267 2.3.8.733.733 1.1 1.833 1.1 3.3 0 1.4-.367 2.467-1.1 3.2-.6.6-1.367.9-2.3.9h-13.2v3h-11.6c1.6 0 2.9-.533 3.9-1.6 1.2-1.2 1.8-3.033 1.8-5.5 0-2.533-.6-4.4-1.8-5.6-1.067-1.067-2.433-1.6-4.1-1.6h-13.2v3.1h13.1c.933 0 1.7.267 2.3.8.733.733 1.1 1.833 1.1 3.3 0 1.4-.367 2.467-1.1 3.2-.6.6-1.367.9-2.3.9h-13.1v3h-9l-6.5-6.5v-3.4l.9-.8c1-.8 1.9-1.833 2.7-3.1l-2.5-2-1.4 1.9.8-21.9 3.5-25.6.8.7 1.5-1.4-2-2.2c-2-2.533-3-5.3-3-8.3l.1-2c.467-3.067 2.1-5.9 4.9-8.5l-1.5-1.5.814-4.464 1.3.6c5.347-2.473 10.708-5.073 15.586-3.436l2.5-1.1h7.8m2.4 44.1-2.7-1.6-3.8-.5-4 .5-4 1-6.2 1.8 1.3 3.2 6.6-2.5c2.267-.8 4.267-1.2 6-1.2 2.067 0 3.5.4 4.3 1.2 1.067 1.067 1.6 2.4 1.6 4 0 1.467-.5 2.7-1.5 3.7-1.4 1.4-4.1 2.233-8.1 2.5l-2.6.1.7 3c5.267-.067 9.2-1.1 11.8-3.1l.8-.7c1.333-1.333 2-3.233 2-5.7 0-2.4-.733-4.3-2.2-5.7" fill="#fff" fill-rule="evenodd" style="stroke-width:2"/><path d="m148.341 62-2.5 1.1-7.8-17.2-7.7 17.2-2.4-1.1 10.1-22 10.3 22m-28.2 0-2.5 1.1-7.7-17.2-7.7 17.2-1.3-.6-1.1-.5 10.1-22 10.2 22m-20.2 8.4 1.5 1.5q-4.2 3.9-4.9 8.5l-.1 2q0 4.5 3 8.3l2 2.2-1.5 1.4-.8-.7-1.2-1.4q-3.6-4.4-3.6-9.8l.1-2q.7-5.6 5.5-10m-5.1 70.7 1.4-1.9 2.5 2q-1.2 1.9-2.7 3.1l-.9.8q-1.1.7-2.5.9h-.7q-1.9 0-5.3-2.2-2.4-1.3-3.8-1.3-1.8 0-2.6 1.1l-1.2 1.9-2.7-1.5q.8-1.9 2.4-3.3 1.6-1.6 3.9-1.6 2.2 0 4.5 1.6 3.3 1.7 5.1 1.7 1.3 0 2.6-1.3m15.8 13.9v-3h13.1q1.4 0 2.3-.9 1.1-1.1 1.1-3.2 0-2.2-1.1-3.3-.9-.8-2.3-.8h-13.1v-3.1h13.2q2.5 0 4.1 1.6 1.8 1.8 1.8 5.6 0 3.7-1.8 5.5-1.5 1.6-3.9 1.6h-13.4m25 0v-3h13.2q1.4 0 2.3-.9 1.1-1.1 1.1-3.2 0-2.2-1.1-3.3-.9-.8-2.3-.8h-13.2v-3.1h13.3q2.5 0 4.1 1.6 1.8 1.8 1.8 5.6 0 3.7-1.8 5.5-1.6 1.6-4.1 1.6h-13.3m12.2-33.8-3 .1-.7-3 2.5-.1q6.1-.4 8.2-2.5 1.5-1.5 1.5-3.7 0-2.4-1.6-4-1.2-1.2-4.3-1.2-2.6 0-6 1.2l-6.7 2.5-1.3-3.2 6.3-1.8 4-1 2.5-.4 1.5-.1 3.7.5q1.7.5 2.8 1.6 2.2 2.1 2.2 5.7 0 3.7-2 5.7l-.8.7q-3.2 2.4-8.8 3m8.5-28.9-.2-.2 2.8-3.4.5-.9q1.6-2.9 1.6-6.2l-.1-1.2q-.4-5-4.6-9.1l-.2-.2.7-.8h.1l.6-.7q5.1 4.7 5.5 10.8l.1 1.2q0 3.8-1.8 7.1-1.4 2.5-3.8 4.8l-1.2-1.2m-26 13.8q2.2 2.1 2.2 5.7 0 3.7-2 5.7l-.8.7q-3.9 3-11.8 3.1l-.7-3 2.6-.1q6-.4 8.1-2.5 1.5-1.5 1.5-3.7 0-2.4-1.6-4-1.2-1.2-4.3-1.2-2.6 0-6 1.2l-6.6 2.5-1.3-3.2 6.2-1.8 4-1 4-.5 3.8.5 2.7 1.6" fill="#333" fill-rule="evenodd" style="fill:#010101;fill-opacity:1;stroke-width:2"/><path d="m156.841 70.3-2.2-2.2 2.3 2.2h-.1" fill="red" fill-rule="evenodd" style="stroke-width:2"/><path d="M127.941 62h-7.8m24.6 78.7v-11.5m12.1-58.9-2.2-2.2" fill="none" stroke="#333" stroke-linecap="round" stroke-linejoin="round" style="stroke:#000;stroke-width:2;stroke-opacity:1"/><use height="6.75" transform="matrix(2.0024 0 0 2 102.015 77.2)" width="22.2" xlink:href="#f"/><use height="3" transform="matrix(2 0 0 2 112.441 68.9)" width="21.55" xlink:href="#g"/><path style="display:inline;fill:none;stroke:#000;stroke-width:2.5;stroke-linecap:butt;stroke-linejoin:miter;stroke-miterlimit:4;stroke-dasharray:none;stroke-opacity:1" d="M147.256 62.663c-5.45-.239-11.168-.655-16.988-.799m-11.772.027s-9.68-.08-18.198 6.22c0 0-.2-3.575.925-6"/><circle style="fill:#fb0000;fill-opacity:1;fill-rule:evenodd;stroke:#000;stroke-width:1.76122;stroke-miterlimit:4;stroke-dasharray:none;stroke-opacity:1" cx="76.403" cy="141.787" r="5.56"/><path style="fill:none;stroke:#000;stroke-width:3.8;stroke-linecap:butt;stroke-linejoin:miter;stroke-miterlimit:4;stroke-dasharray:none;stroke-opacity:1" d="M99.248 112.274c1.19-3.997 4.599-11.876 14.062-12.226 5.84-.216 10.36 3.353 10.926 5.183m17.771 2.533c.527-2.653 3.2-8.28 11.197-7.91"/><path style="color:#000;fill:#9e0a0e;stroke-width:2.1;-inkscape-stroke:none" d="M144.044 145.102c-4.732 2.085-10.254 6.082-15.478-.97-1.161-1.566-8.61-.866-11.963-.866-3.587 0-10.07 9.924-13.26 10.815-3.69 1.03-12.803-.551-12.803-.551 4.693-8.85 4.494-18.55 4.511-25.4.017-6.852 1.755-14.96 1.755-14.96s5.058-3.336 11.634-4.055c0 0 .84 12.178 9.436 11.683 0 0 9.444-1.097 11.323-3.218 2.3-2.597 1.697-8.028 1.697-8.028l8.582-.86s-1.83 10.91 5.283 11.436l2.594.417c-.434 6.564-.575 16.765.01 22.095.414 3.782-4.521-2.16-3.321 2.462z"/><path style="fill:#72060a;fill-opacity:1;stroke:none;stroke-width:1px;stroke-linecap:butt;stroke-linejoin:miter;stroke-opacity:1" d="m94.122 154.617 7.992-12.952-1.76 12.258z"/><path style="fill:#72060a;fill-opacity:1;stroke:none;stroke-width:.737383px;stroke-linecap:butt;stroke-linejoin:miter;stroke-opacity:1" d="m108.179 150.256 4.143-13.878 3.702 8.06z"/><path style="fill:#72060a;fill-opacity:1;stroke:none;stroke-width:1px;stroke-linecap:butt;stroke-linejoin:miter;stroke-opacity:1" d="m123.49 142.823 2.324-6.719 4.265 10.823c-2.248-3.117-2.94-4.904-6.59-4.104z"/><path style="color:#000;fill:#000;-inkscape-stroke:none" d="m140.742 107.512-11.008 1.101.117 1.055s.14 1.265.012 2.84c-.128 1.574-.57 3.382-1.45 4.375-.21.237-1.043.727-2.122 1.103-1.08.377-2.401.707-3.672.97-2.52.525-4.79.788-4.826.792-1.888.103-3.24-.452-4.346-1.373-1.11-.925-1.95-2.257-2.549-3.649-1.198-2.782-1.41-5.683-1.41-5.683l-.076-1.092-1.086.12c-6.867.75-12.098 4.222-12.098 4.222l-.359.236-.09.42s-1.76 8.151-1.777 15.178c-.017 6.874.15 16.354-4.389 24.912l-.598 1.123 1.217.373s9.29 3.343 16.964-.644c2.953-1.533 8.475-9.844 11.879-10.233 12.241-1.399 6.814 6.776 16.27 6.497 3.571-.105 4.388-1.79 7.151-2.094 2.432-1.195 6.25-4.488 6.879-5.69-.567-5.168-1.403-15.25-.973-21.758l.065-.953-3.584-.576-.043-.002c-1.51-.112-2.392-.703-3.067-1.596-.674-.893-1.084-2.143-1.283-3.433-.399-2.58.023-5.186.023-5.186zm-2.441 2.355a17.853 17.853 0 0 0 .113 4.506c.232 1.503.7 3.078 1.684 4.379.982 1.3 2.538 2.272 4.585 2.424l-.087-.01 1.68.27c-.397 6.614.233 15.855.81 21.119-1.12 1.573-2.265.56-4.136 1.73-2.735 1.276-4.002 3.076-7.546 3.243-8.361.394-2.242-7.692-17.377-5.8-3.74.469-9.166 8.65-12.306 10.302-6.343 3.335-12.766 1.058-13.766.766 4.216-8.796 4.13-18.136 4.146-24.664.016-6.356 1.5-13.564 1.649-14.277.48-.305 4.384-2.646 9.805-3.492.145 1.13.45 2.95 1.416 5.193.685 1.592 1.668 3.212 3.132 4.432 1.465 1.22 3.436 1.995 5.832 1.857l.032-.002.029-.004s2.4-.277 5.05-.828c1.326-.275 2.716-.617 3.936-1.043 1.22-.425 2.275-.87 3.004-1.693 1.421-1.605 1.826-3.808 1.97-5.598.098-1.2.027-1.613-.01-2.174z"/><path style="display:inline;fill:#514540;fill-opacity:1;stroke:#000;stroke-width:2;stroke-linecap:butt;stroke-linejoin:miter;stroke-miterlimit:4;stroke-dasharray:none;stroke-opacity:1" d="M139.26 154.114 171.479 6.106l8.475-1.96-33.43 150.848c-.43 2.13-7.597.66-7.262-.88z"/><g style="display:inline"><path style="fill:#fff;fill-opacity:1;stroke:none;stroke-width:2;stroke-linecap:butt;stroke-linejoin:miter;stroke-miterlimit:4;stroke-dasharray:none;stroke-opacity:1" d="M169.592 27.821s13.919-5.59 26.883-4.53c12.965 1.061 22.52 4.767 36.643 20.682 0 0-1.176-22.329-24.384-33.558-13.35-6.46-36.562.913-36.562.913" transform="translate(5.566 -6.117)"/><path style="fill:#c1c1c1;fill-opacity:1;stroke:none;stroke-width:1px;stroke-linecap:butt;stroke-linejoin:miter;stroke-opacity:1" d="M230.953 37.81s-2.668-5.75-5.19-7.69c-2.524-1.94-4.017-1.28-5.888-3.113-1.871-1.833-.228-3.02-2.78-4.835-2.553-1.815-4.81 1.52-8.064-.402-3.254-1.922-2.307-3.65-6.518-5.413-4.21-1.763-6.007 1.213-9.383 1.08-3.33-.132-3.916-3.3-8.222-3.357-4.877-.064-4.17 3.857-7.99 4.28-4.272.473-5.388-2.743-5.388-2.743l.62-4.426s23.35-6.013 36.196-.955c18.172 7.154 24.189 27.787 22.607 27.573z" transform="translate(5.566 -6.117)"/><path style="display:inline;fill:none;fill-opacity:1;stroke:#000;stroke-width:2;stroke-linecap:butt;stroke-linejoin:miter;stroke-miterlimit:4;stroke-dasharray:none;stroke-opacity:1" d="M169.592 27.821s13.919-5.59 26.883-4.53c12.965 1.061 22.52 4.767 36.643 20.682 0 0-1.176-22.329-24.384-33.558-13.35-6.46-36.962.443-36.962.443" transform="translate(5.566 -6.117)"/></g></svg>