<svg height="222" width="240" xmlns:xlink="http://www.w3.org/1999/xlink" xmlns="http://www.w3.org/2000/svg"><defs><path d="M10.25-2.6H.75l-1.1-1" fill="none" stroke="#333" stroke-linecap="round" stroke-linejoin="round" transform="translate(.85 4.1)" id="b"/><path d="m2-1.7-2 2 1.85 1.8M0 .3V.25v2.5M0 .3l-1.85 1.8M-2-1.7 0 .25V-2.7" fill="none" stroke="#fea5c0" stroke-linecap="round" stroke-linejoin="round" transform="translate(2.5 3.2)" id="a"/><use height="6.45" width="5" xlink:href="#a" id="c" x="0" y="0"/><g id="d" transform="translate(11.45 4.1)"><use height="2" transform="translate(-.85 -4.1)" width="11.6" xlink:href="#b"/><use height="6.45" transform="translate(-11.45 -3.8)" width="5" xlink:href="#c"/></g></defs><g transform="matrix(2 0 0 2 76.341 20)"><path style="display:inline;fill:#000;fill-opacity:1;stroke:none;stroke-width:.5px;stroke-linecap:butt;stroke-linejoin:miter;stroke-opacity:1" d="M11.105 38.413c1.489 1.418 3.356 4.942 3.092 5.164-.977 1.138-1.78 6.173-1.78 6.173-.666-.667-2.882-1.589-2.882-1.589s.249-3.796-1.01-4.146c-2.21-.616-6.626 2.412-6.626 2.412S1.61 45.29.629 44.66c-.971-.623-5.61-.472-5.61-.472s4.484-6.674 8.909-6.892c3.671-.18 6.51 2.526 6.51 2.526.398-.513.51-.685.667-1.409z"/><path style="display:inline;fill:#72060a;fill-opacity:1;stroke:none;stroke-width:.5px;stroke-linecap:butt;stroke-linejoin:miter;stroke-opacity:1" d="m26.964 20.932 3.957-9.41 4.536 9.81zm-14.986 3.124s-.022-1.953.64-3.414c.66-1.462 4.378-9.09 4.378-9.09l4.082 9.393s-4.25-.126-9.1 3.11z"/><path d="m25.8 21 1.2.55h7.75L36 21l3.15 3.05 1.1 1.1-.35.4.1.1c1.4 1.367 2.167 2.883 2.3 4.55l.05.6c0 1.1-.267 2.133-.8 3.1l-.25.45-1.4 1.7.1.1-.3.3-3.25.9v4.7l-3.25.7-3.15.9.65 1.6L34.05 44l3-.6c1.033 0 1.75.2 2.15.6.533.533.8 1.2.8 2 0 .733-.25 1.35-.75 1.85-.7.7-2.067 1.117-4.1 1.25l-1.25.05.35 1.5 1.5-.05-.05 2.75-1.5 1.25v8.75h-4.55v1.55h6.6c.467 0 .85.133 1.15.4.367.367.55.917.55 1.65 0 .7-.183 1.233-.55 1.6-.3.3-.683.45-1.15.45h-6.6v.95H19.9l-1.55 1.5V78c0 .467-.15.85-.45 1.15-.367.367-.9.55-1.6.55-.733 0-1.283-.183-1.65-.55-.267-.3-.4-.683-.4-1.15v-6.55H12.7l-1.7-1.1-1.75-3.9v-2.4h.15v-1.5l.45-.4.2-.15 1.15-1.4-1.25-1-.7.95.4-10.95 1.75-12.8.4.35.75-.7-1-1.1c-.967-1.233-1.467-2.567-1.5-4v-.25l.05-.9c.233-1.533 1.05-2.95 2.45-4.25l-.75-.75.285-1.998.65.3c2.602-.968 5.12-2.676 7.915-1.952L21.9 21h3.9m12.8 4v-.2l-.2-.55-.25-.3-.45-.3-.4-.15h-.25l-.2.05-.4.1-.35.3-.25.3-.25.55v.35h.05v.05c.033.3.183.6.45.9.267.267.6.4 1 .4l.4-.05a1.77 1.77 0 0 0 .65-.35l.4-.9v-.05h.05V25m-2.2-.05v-.1l.2-.35.1-.1.15-.1h.3l.25.05.15.05.1.05v.05l.1.15.1.2v.2l-.05.2-.15.3h-.05l-.1.1-.05.05h-.15l-.2.05-.25-.05-.2-.05v-.05l-.05-.05-.05-.05-.1-.2v-.05l-.05-.15v-.05l.05-.1h-.05M27 43.05c-.7-.7-1.783-1.05-3.25-1.05l-4 .75-3.1.9.65 1.6L20.6 44c1.133-.4 2.133-.6 3-.6 1.033 0 1.75.2 2.15.6.533.533.8 1.2.8 2 0 .733-.25 1.35-.75 1.85-.7.7-2.05 1.117-4.05 1.25l-1.3.05.35 1.5c2.633-.033 4.6-.55 5.9-1.55l.4-.35c.667-.667 1-1.617 1-2.85 0-1.2-.367-2.15-1.1-2.85m-5.35-18v-.2l-.2-.6-.25-.3-.45-.3-.15-.05-.4-.05h-.25l-.4.15-.15.1a.628.628 0 0 0-.25.15l-.25.3-.05.1-.15.35-.05.1v.5h.05v.1l.45.7.25.2.8.2.4-.05.6-.35.45-.85v-.2m-2.2-.05v-.1l.05-.1.15-.3.1-.05.15-.1.3-.05.25.05h.05l.05.05h.05l.1.1h.05l.1.15.05.2v.3l-.05.1-.1.3-.25.15-.1.05h-.2l-.3-.05-.2-.1-.05-.05h-.05l-.1-.25-.05-.1v-.1l.05-.1h-.05" fill="#fff" fill-rule="evenodd"/><path d="m36 21-1.25.55-3.9-8.6-3.85 8.6-1.2-.55 5.05-11L36 21m-14.1 0-1.25.55-3.85-8.6-3.85 8.6-.65-.3-.55-.25 5.05-11 5.1 11m-10.1 4.2.75.75q-2.1 1.95-2.45 4.25l-.05.9v.25q.05 2.15 1.5 4l1 1.1-.75.7-.4-.35-.6-.7-.75-1.05Q8.95 33.3 9 31.2l.05-1q.2-1.5 1-2.85l1.75-2.15M9.25 60.55l.7-.95 1.25 1-1.15 1.4-.2.15-.45.4q-.7.45-1.6.45-.95 0-2.65-1.1-1.2-.65-1.9-.65-.9 0-1.3.55l-.15.2-.45.75L0 62q.4-.95 1.2-1.65l.6-.45 1.35-.35q1.1 0 2.25.8 1.65.85 2.55.85.6 0 1.3-.65m3.45 10.9h1.55V78q0 .7.4 1.15.55.55 1.65.55 1.05 0 1.6-.55.45-.45.45-1.15v-6.55h1.5v6.6q0 1.25-.8 2.05-.9.9-2.75.9-1.9 0-2.8-.9-.8-.8-.8-2.05v-6.6m16.95-1.5V69h6.6q.7 0 1.15-.45.55-.55.55-1.6 0-1.1-.55-1.65-.45-.4-1.15-.4h-6.6v-1.55h6.65q1.25 0 2.05.8.9.9.9 2.8 0 1.85-.9 2.75l-.3.25q-.75.55-1.75.55h-6.65v-.55m6.1-19.35-1.5.05-.35-1.5 1.25-.05q3.05-.2 4.1-1.25Q40 47.1 40 46q0-1.2-.8-2-.6-.6-2.15-.6l-3 .6-3.35 1.25-.65-1.6 3.15-.9 3.25-.7.75-.05q2.2 0 3.25 1.05 1.1 1.05 1.1 2.85 0 1.85-1 2.85l-.4.35q-1.6 1.2-4.4 1.5M40 36.15l-.1-.1 1.4-1.7.25-.45q.8-1.45.8-3.1l-.05-.6q-.2-2.5-2.3-4.55l-.1-.1.35-.4h.05l.3-.35q2.55 2.35 2.75 5.4l.05.6q0 1.9-.9 3.55-.7 1.25-1.9 2.4l-.6-.6m-4.4-11.1v-.25l.25-.55.25-.3.35-.3.4-.1.2-.05h.25l.4.15.45.3.25.3.2.55v.2l-.05.15v.05l-.4.9q-.3.25-.65.35l-.4.05q-.6 0-1-.4-.4-.45-.45-.9v-.05l-.05-.1m.8 0v.05l.05.15v.05l.1.2.05.05.05.05v.05l.2.05.25.05.2-.05h.15l.05-.05.1-.1h.05l.15-.3.05-.2v-.2l-.1-.2-.1-.15v-.05l-.1-.05-.15-.05-.25-.05h-.3l-.15.1-.1.1-.2.35v.2m-9.4 18q1.1 1.05 1.1 2.85 0 1.85-1 2.85l-.4.35q-1.95 1.5-5.9 1.55l-.35-1.5 1.3-.05q3-.2 4.05-1.25.75-.75.75-1.85 0-1.2-.8-2-.6-.6-2.15-.6-1.3 0-3 .6l-3.3 1.25-.65-1.6 3.1-.9 4-.75q2.2 0 3.25 1.05m-8.35-18v-.25l.05-.1.15-.35.05-.1.25-.3q.1-.1.25-.15l.15-.1.4-.15h.25l.4.05.15.05.45.3.25.3.2.6v.4l-.45.85-.6.35-.4.05-.8-.2-.25-.2-.45-.7v-.2l-.05-.15m.8.05v.1l.05.1.1.25h.05l.05.05.2.1.3.05h.2l.1-.05.25-.15.1-.3.05-.1v-.3l-.05-.2-.1-.15h-.05l-.1-.1h-.05l-.05-.05h-.05l-.25-.05-.3.05-.15.1-.1.05-.15.3-.05.1v.2" fill="#333" fill-rule="evenodd" style="fill:#000;fill-opacity:1"/><path d="m40.25 25.15-1.1-1.1 1.15 1.1h-.05" fill="red" fill-rule="evenodd"/><path d="M25.8 21h-3.9m12.3 39.65V54.6m6.05-29.45-1.1-1.1" fill="none" stroke="#333" stroke-linecap="round" stroke-linejoin="round" style="stroke:#000;stroke-opacity:1"/><path style="display:inline;fill:none;stroke:#000;stroke-width:1.25;stroke-linecap:butt;stroke-linejoin:miter;stroke-miterlimit:4;stroke-dasharray:none;stroke-opacity:1" d="M35.457 21.332c-2.725-.12-5.584-.328-8.493-.4m-5.886.013s-4.84-.04-9.1 3.11c0 0-.1-1.787.463-3"/><circle style="display:inline;fill:#fb0000;fill-opacity:1;fill-rule:evenodd;stroke:#000;stroke-width:.88061;stroke-miterlimit:4;stroke-dasharray:none;stroke-opacity:1" cx=".031" cy="60.893" r="2.78"/><path style="display:inline;fill:none;stroke:#000;stroke-width:1.9;stroke-linecap:butt;stroke-linejoin:miter;stroke-miterlimit:4;stroke-dasharray:none;stroke-opacity:1" d="M11.453 46.137c.596-1.998 2.3-5.938 7.032-6.113 2.92-.108 5.18 1.676 5.462 2.591m8.886 1.267c.264-1.327 1.6-4.14 5.599-3.955"/><path style="color:#000;display:inline;fill:#9e0a0e;stroke-width:1.05;-inkscape-stroke:none" d="M35.31 66.128c-2.243.798-11.098 2.413-16.746 2.413-5.647 0-11.465-1.776-11.465-1.776 2.347-4.425 2.248-9.275 2.256-12.7.009-3.426.878-7.48.878-7.48s2.529-1.668 5.816-2.028c0 0 .42 6.09 4.718 5.842 0 0 4.723-.548 5.662-1.61 1.15-1.297.848-4.013.848-4.013l4.292-.43s-.916 5.455 2.641 5.718l1.297.208c-.217 3.282-.287 8.383.005 11.048.207 1.89-.803 2.496-.203 4.808z"/><path style="display:inline;fill:#72060a;fill-opacity:1;stroke:none;stroke-width:.5px;stroke-linecap:butt;stroke-linejoin:miter;stroke-opacity:1" d="m8.89 67.308 3.997-6.475-.884 7.103zm5.332 1.044 5.08-8.092 1.197 8.488zm8.888.141 2.805-8.173 3.428 7.643z"/><path style="color:#000;display:inline;fill:#000;stroke-width:.5;-inkscape-stroke:none" d="m32.2 43.756-5.503.55.058.528s.07.632.006 1.42c-.064.787-.285 1.691-.724 2.187-.105.119-.522.364-1.062.552-.54.188-1.2.353-1.836.485-1.26.262-2.395.394-2.413.396-.944.052-1.62-.226-2.173-.687-.555-.462-.975-1.128-1.274-1.824-.6-1.391-.705-2.842-.705-2.842l-.038-.545-.543.06c-3.434.375-6.05 2.11-6.05 2.11l-.179.119-.045.21s-.88 4.075-.889 7.588c-.008 3.437.075 8.178-2.194 12.456l-.299.562.609.187s5.861 1.798 11.619 1.798c2.836 0 6.923-.013 10.458-.528 1.898-.276 3.177-1.122 4.558-1.274 1.9-2.93 1.882-2.739 2.936-6.079-.283-2.584-.702-7.625-.486-10.878l.032-.477-1.792-.288-.022-.001c-.754-.056-1.196-.352-1.533-.798-.337-.446-.542-1.072-.641-1.717-.2-1.29.011-2.593.011-2.593zm-1.22 1.178a8.926 8.926 0 0 0 .056 2.252c.117.752.35 1.54.842 2.19.492.65 1.27 1.136 2.293 1.212l-.044-.005.84.135c-.198 3.307.117 7.927.406 10.56.193 1.763.194 3.462.472 5.637-.54.14-1.316-.853-2.45-.728-1.353.148-2.675.933-4.553 1.253-3.498.597-7.466.576-10.277.576-5.109 0-9.966-1.387-10.758-1.618C9.915 62 9.872 57.33 9.88 54.066c.008-3.178.75-6.782.824-7.138.24-.153 2.193-1.323 4.903-1.747a9.38 9.38 0 0 0 .708 2.597c.342.796.834 1.606 1.566 2.216.732.61 1.718.998 2.916.929l.016-.001.014-.002s1.2-.14 2.526-.414a16.049 16.049 0 0 0 1.968-.522c.61-.213 1.137-.435 1.502-.847.71-.802.912-1.903.985-2.798.049-.6.013-.807-.006-1.087z"/><path style="display:inline;fill:#514540;fill-opacity:1;stroke:#000;stroke-width:1;stroke-linecap:butt;stroke-linejoin:miter;stroke-miterlimit:4;stroke-dasharray:none;stroke-opacity:1" d="M31.46 67.057 47.569-6.947l4.237-.98-16.715 75.424c-.215 1.065-3.798.33-3.631-.44z"/><g style="display:inline"><path style="fill:#fff;fill-opacity:1;stroke:none;stroke-width:2;stroke-linecap:butt;stroke-linejoin:miter;stroke-miterlimit:4;stroke-dasharray:none;stroke-opacity:1" d="M169.592 27.821s13.919-5.59 26.883-4.53c12.965 1.061 22.52 4.767 36.643 20.682 0 0-1.176-22.329-24.384-33.558-13.35-6.46-36.562.913-36.562.913" transform="matrix(.5 0 0 .5 -35.387 -13.059)"/><path style="fill:#c1c1c1;fill-opacity:1;stroke:none;stroke-width:1px;stroke-linecap:butt;stroke-linejoin:miter;stroke-opacity:1" d="M230.953 37.81s-2.668-5.75-5.19-7.69c-2.524-1.94-4.017-1.28-5.888-3.113-1.871-1.833-.228-3.02-2.78-4.835-2.553-1.815-4.81 1.52-8.064-.402-3.254-1.922-2.307-3.65-6.518-5.413-4.21-1.763-6.007 1.213-9.383 1.08-3.33-.132-3.916-3.3-8.222-3.357-4.877-.064-4.17 3.857-7.99 4.28-4.272.473-5.388-2.743-5.388-2.743l.62-4.426s23.35-6.013 36.196-.955c18.172 7.154 24.189 27.787 22.607 27.573z" transform="matrix(.5 0 0 .5 -35.387 -13.059)"/><path style="display:inline;fill:none;fill-opacity:1;stroke:#000;stroke-width:2;stroke-linecap:butt;stroke-linejoin:miter;stroke-miterlimit:4;stroke-dasharray:none;stroke-opacity:1" d="M169.592 27.821s13.919-5.59 26.883-4.53c12.965 1.061 22.52 4.767 36.643 20.682 0 0-1.176-22.329-24.384-33.558-13.35-6.46-36.962.443-36.962.443" transform="matrix(.5 0 0 .5 -35.387 -13.059)"/></g></g><use height="6.75" transform="matrix(2.0024 0 0 2 101.615 77)" width="22.2" xlink:href="#d"/></svg>