<svg xmlns="http://www.w3.org/2000/svg" height="182" width="160" xml:space="preserve" style="fill-rule:evenodd;clip-rule:evenodd;stroke-linejoin:round;stroke-miterlimit:1.5">
    <g transform="matrix(-1.01013,0.0789783,0.0798958,1.02187,171.773,-7.55664)">
        <path d="M101.172,19.594C125.099,36.688 127.623,31.122 118.715,16.652" style="fill:none;stroke:black;stroke-width:1.96px;"/>
    </g>
    <g transform="matrix(-0.679378,-0.369221,-0.4513,0.851599,119.407,33.2193)">
        <ellipse cx="74.143" cy="15.742" rx="12.499" ry="13.545" style="fill:rgb(78,66,13);stroke:black;stroke-width:2.3px;"/>
    </g>
    <g transform="matrix(-0.575849,-0.312956,-0.478355,0.902651,113.429,28.0781)">
        <ellipse cx="74.143" cy="15.742" rx="12.499" ry="13.545" style="fill:rgb(166,186,180);stroke:black;stroke-width:2.34px;"/>
    </g>
    <g transform="matrix(-0.544543,-0.295942,-0.478355,0.902651,114.048,28.4426)">
        <ellipse cx="74.143" cy="15.742" rx="12.499" ry="13.545" style="fill:rgb(166,186,180);stroke:black;stroke-width:2.38px;"/>
    </g>
    <g transform="matrix(-0.202951,-0.110297,-0.221083,0.417182,85.5426,22.5286)">
        <ellipse cx="74.143" cy="15.742" rx="12.499" ry="13.545" style="fill:rgb(83,83,83);stroke:black;stroke-width:5.4px;"/>
    </g>
    <g transform="matrix(-0.996957,0.077948,0.077948,0.996957,171.043,-6.20377)">
        <path d="M52.854,35.542C57.55,51.753 71.34,61.584 85.394,63.915C104.083,67.014 123.238,56.849 122.078,30.783" style="fill:none;stroke:black;stroke-width:2px;"/>
    </g>
    <g id="a" transform="matrix(2,0,0,2,36.341,0)">
        <g transform="matrix(1,0,0,1,21.65,71)">
            <path d="M0.25,-60L4.15,-60L5.35,-59.45L9.2,-68.05L13.05,-59.45L14.3,-60L17.45,-56.95L18.6,-55.85L18.2,-55.45L18.3,-55.35C19.7,-53.983 20.483,-52.467 20.65,-50.8L20.65,-50.2C20.65,-49.1 20.383,-48.067 19.85,-47.1L19.6,-46.65L18.2,-44.95L18.3,-44.85L18,-44.55L14.75,-43.65L14.75,-38.95L11.5,-38.25L8.4,-37.35L9.05,-35.75L12.35,-37L15.35,-37.6C16.383,-37.6 17.1,-37.4 17.5,-37C18.033,-36.467 18.3,-35.8 18.3,-35C18.3,-34.267 18.05,-33.65 17.55,-33.15C16.85,-32.45 15.5,-32.033 13.5,-31.9L12.2,-31.85L12.55,-30.35L14.05,-30.4L14,-27.65L12.5,-26.4L12.5,-14.15L11.65,-9.55L10.15,-9.55L10.15,-3C10.15,-2.533 10,-2.15 9.7,-1.85C9.333,-1.483 8.8,-1.3 8.1,-1.3C7.367,-1.3 6.817,-1.483 6.45,-1.85C6.183,-2.15 6.05,-2.533 6.05,-3L6.05,-9.55L4.5,-9.55L2.15,-13.05L0.4,-13.05L-3.15,-9.55L-3.15,-3C-3.15,-2.533 -3.3,-2.15 -3.6,-1.85C-3.967,-1.483 -4.5,-1.3 -5.2,-1.3C-5.933,-1.3 -6.483,-1.483 -6.85,-1.85C-7.117,-2.15 -7.25,-2.533 -7.25,-3L-7.25,-9.55L-8.8,-9.55L-10.5,-10.65L-12.25,-14.55L-12.25,-18.45L-11.8,-18.85C-11.3,-19.25 -10.85,-19.767 -10.45,-20.4L-11.7,-21.4C-11.967,-20.967 -12.2,-20.65 -12.4,-20.45L-12,-31.4L-10.25,-44.2L-9.85,-43.85L-9.1,-44.55L-10.1,-45.65C-11.1,-46.917 -11.6,-48.3 -11.6,-49.8L-11.5,-50.8C-11.267,-52.333 -10.467,-53.75 -9.1,-55.05L-9.85,-55.8L-9.35,-59.75L-8.7,-59.45L-4.85,-68.05L-1,-59.45L0.25,-60M17.45,-56.95L18.6,-55.85L17.45,-56.95M13.1,-43.6L13.85,-45.15L13.85,-46.5L12.35,-46.5L12.35,-45.05L12.9,-45.05L12.35,-43.6L13.1,-43.6M10.2,-43.6L10.95,-45.15L10.95,-46.5L9.45,-46.5L9.45,-45.05L10,-45.05L9.45,-43.6L10.2,-43.6" style="fill:white;"/>
        </g>
        <g transform="matrix(1,0,0,1,21.65,71)">
            <path d="M0.25,-60L-1,-59.45L-4.85,-68.05L-8.7,-59.45L-9.35,-59.75L-9.9,-60L-4.85,-71L0.25,-60M-9.85,-55.8L-9.1,-55.05C-10.467,-53.75 -11.267,-52.333 -11.5,-50.8L-11.6,-49.8C-11.6,-48.3 -11.1,-46.917 -10.1,-45.65L-9.1,-44.55L-9.85,-43.85L-10.25,-44.2L-10.85,-44.9C-12.05,-46.367 -12.65,-48 -12.65,-49.8L-12.55,-50.8C-12.35,-52.667 -11.45,-54.333 -9.85,-55.8M-12.4,-20.45C-12.2,-20.65 -11.967,-20.967 -11.7,-21.4L-10.45,-20.4C-10.85,-19.767 -11.3,-19.25 -11.8,-18.85L-12.25,-18.45C-12.717,-18.15 -13.25,-18 -13.85,-18C-14.483,-18 -15.367,-18.367 -16.5,-19.1C-17.267,-19.533 -17.9,-19.75 -18.4,-19.75C-18.967,-19.75 -19.4,-19.567 -19.7,-19.2L-20.3,-18.25L-21.65,-19L-20.45,-20.65C-19.883,-21.183 -19.233,-21.45 -18.5,-21.45C-17.767,-21.45 -17.017,-21.183 -16.25,-20.65C-15.15,-20.083 -14.3,-19.8 -13.7,-19.8C-13.267,-19.8 -12.833,-20.017 -12.4,-20.45M-8.8,-9.55L-7.25,-9.55L-7.25,-3C-7.25,-2.533 -7.117,-2.15 -6.85,-1.85C-6.483,-1.483 -5.933,-1.3 -5.2,-1.3C-4.5,-1.3 -3.967,-1.483 -3.6,-1.85C-3.3,-2.15 -3.15,-2.533 -3.15,-3L-3.15,-9.55L-1.65,-9.55L-1.65,-2.95C-1.65,-2.117 -1.917,-1.433 -2.45,-0.9C-3.05,-0.3 -3.967,-0 -5.2,-0C-6.467,-0 -7.4,-0.3 -8,-0.9C-8.533,-1.433 -8.8,-2.117 -8.8,-2.95L-8.8,-9.55M4.5,-9.55L6.05,-9.55L6.05,-3C6.05,-2.533 6.183,-2.15 6.45,-1.85C6.817,-1.483 7.367,-1.3 8.1,-1.3C8.8,-1.3 9.333,-1.483 9.7,-1.85C10,-2.15 10.15,-2.533 10.15,-3L10.15,-9.55L11.65,-9.55L11.65,-2.95C11.65,-2.117 11.383,-1.433 10.85,-0.9C10.25,-0.3 9.333,-0 8.1,-0C6.833,-0 5.9,-0.3 5.3,-0.9C4.767,-1.433 4.5,-2.117 4.5,-2.95L4.5,-9.55M14.05,-30.4L12.55,-30.35L12.2,-31.85L13.5,-31.9C15.5,-32.033 16.85,-32.45 17.55,-33.15C18.05,-33.65 18.3,-34.267 18.3,-35C18.3,-35.8 18.033,-36.467 17.5,-37C17.1,-37.4 16.383,-37.6 15.35,-37.6L12.35,-37L9.05,-35.75L8.4,-37.35L11.5,-38.25L14.75,-38.95L15.5,-39C16.967,-39 18.05,-38.65 18.75,-37.95C19.483,-37.25 19.85,-36.3 19.85,-35.1C19.85,-33.867 19.517,-32.917 18.85,-32.25L18.45,-31.9C17.417,-31.1 15.95,-30.6 14.05,-30.4M18.3,-44.85L18.2,-44.95L19.6,-46.65L19.85,-47.1C20.383,-48.067 20.65,-49.1 20.65,-50.2L20.65,-50.8C20.483,-52.467 19.7,-53.983 18.3,-55.35L18.2,-55.45L18.6,-55.85L18.9,-56.2C20.6,-54.633 21.533,-52.833 21.7,-50.8L21.7,-50.2C21.7,-48.933 21.4,-47.75 20.8,-46.65C20.333,-45.817 19.7,-45.017 18.9,-44.25L18.3,-44.85M14.3,-60L13.05,-59.45L9.2,-68.05L5.35,-59.45L4.15,-60L9.2,-71L14.3,-60M10.2,-43.6L9.45,-43.6L10,-45.05L9.45,-45.05L9.45,-46.5L10.95,-46.5L10.95,-45.15L10.2,-43.6M13.1,-43.6L12.35,-43.6L12.9,-45.05L12.35,-45.05L12.35,-46.5L13.85,-46.5L13.85,-45.15L13.1,-43.6"/>
        </g>
        <g transform="matrix(1,0,0,1,21.65,71)">
            <path d="M4.15,-60L0.25,-60M12.5,-14.15L12.5,-26.4M18.6,-55.85L17.45,-56.95" style="fill:none;fill-rule:nonzero;stroke:black;stroke-width:1px;stroke-miterlimit:4;"/>
        </g>
    </g>
    <g transform="matrix(-0.796015,0.278892,0.334803,0.955595,164.287,-17.5381)">
        <ellipse cx="74.143" cy="15.742" rx="12.499" ry="13.545" style="fill:rgb(166,186,180);stroke:black;stroke-width:2.15px;"/>
    </g>
    <g transform="matrix(-0.796015,0.278892,0.330653,0.943752,168.863,-18.6453)">
        <path d="M74.143,2.197C81.041,2.197 86.642,8.266 86.642,15.742C86.642,23.218 81.041,29.287 74.143,29.287C67.244,29.287 60.102,23.298 60.102,15.822C60.102,8.346 67.244,2.197 74.143,2.197Z" style="fill:rgb(78,66,13);stroke:black;stroke-width:2.16px;"/>
    </g>
    <g transform="matrix(-0.556565,0.194998,0.231189,0.659861,155.239,-9.00157)">
        <ellipse cx="74.143" cy="15.742" rx="12.499" ry="13.545" style="fill:rgb(81,81,81);stroke:black;stroke-width:3.09px;"/>
    </g>
    <g transform="matrix(-0.996957,0.077948,0.077948,0.996957,171.043,-6.20377)">
        <path d="M61.04,11.372L48.134,22.855" style="fill:none;stroke:black;stroke-width:1px;"/>
    </g>
    <g transform="matrix(-0.996957,0.077948,0.077948,0.996957,171.043,-6.20377)">
        <path d="M50.173,25.098L62.388,14.434" style="fill:none;stroke:black;stroke-width:1px;"/>
    </g>
    <g transform="matrix(-0.996957,0.077948,0.077948,0.996957,171.043,-6.20377)">
        <path d="M48.428,28.261C49.653,37.13 54.777,35.258 61.256,30.398C64.169,28.213 65.391,24.324 65.957,20.762" style="fill:none;stroke:black;stroke-width:2px;"/>
    </g>
    <g transform="matrix(-0.996957,0.077948,0.077948,0.996957,171.043,-6.20377)">
        <path d="M58.787,9.282L47.929,19.198" style="fill:none;stroke:black;stroke-width:1px;"/>
    </g>
    <g transform="matrix(-0.996957,0.077948,0.077948,0.996957,171.043,-6.20377)">
        <path d="M52.549,26.601L61.557,19.309" style="fill:none;stroke:black;stroke-width:1px;"/>
    </g>
    <g transform="matrix(-0.996957,0.077948,0.077948,0.996957,171.043,-6.20377)">
        <path d="M50.807,11.369L58.401,25.184" style="fill:none;stroke:black;stroke-width:1px;"/>
    </g>
    <g transform="matrix(-0.996957,0.077948,0.077948,0.996957,171.043,-6.20377)">
        <path d="M48.816,15.043L55.713,9.005" style="fill:none;stroke:black;stroke-width:1px;"/>
    </g>
    <g transform="matrix(-0.996957,0.077948,0.077948,0.996957,171.043,-6.20377)">
        <path d="M62.271,18.422L56.82,9.163" style="fill:none;stroke:black;stroke-width:1px;"/>
    </g>
    <g transform="matrix(-1.01071,0.106089,0.0546153,1.04471,172,-8.16335)">
        <path d="M53.352,9.342L60.533,22.086" style="fill:none;stroke:black;stroke-width:0.95px;"/>
    </g>
    <g transform="matrix(-0.996957,0.077948,0.077948,0.996957,171.043,-6.20377)">
        <path d="M52.284,26.308L48.081,19.026" style="fill:none;stroke:black;stroke-width:1px;"/>
    </g>
    <g transform="matrix(-0.996957,0.077948,0.077948,0.996957,171.043,-6.20377)">
        <path d="M48.768,14.303L55.467,26.537" style="fill:none;stroke:black;stroke-width:1px;"/>
    </g>
    <g transform="matrix(-0.996957,0.077948,0.077948,0.996957,171.043,-6.20377)">
        <path d="M120.504,45.626C120.504,45.626 124.962,37.93 125.604,32.279L119.849,32.406C120.159,33.364 119.152,34.918 119.357,35.822C120.252,39.772 121.427,42.596 120.504,45.626Z" style="fill:rgb(150,150,150);stroke:black;stroke-width:2px;"/>
    </g>
    <g transform="matrix(-0.996957,0.077948,0.077948,0.996957,171.043,-6.20377)">
        <path d="M58.341,38.045L49.668,36.754C53.744,46.522 60.055,54.715 60.055,54.715L66.042,57.812C66.042,57.812 66.699,56.021 65.718,54.866C63.096,51.781 58.699,42.713 58.341,38.045Z" style="fill:rgb(33,132,134);stroke:black;stroke-width:2px;"/>
    </g>
    <g id="gikopoipoi_eyes_open" transform="matrix(2.0124,0,0,2,107.922,28.6)">
        <path d="M1.35,0L1.55,0L2.1,0.1L2.55,0.45C2.85,0.75 3,1.083 3,1.45L2.55,2.6C2.25,2.867 1.917,3 1.55,3L0.75,2.8L0.5,2.6L0.05,1.9L0.05,1.75L0,1.45L0,1.35C0.033,1.017 0.2,0.717 0.5,0.45L0.75,0.25C0.917,0.117 1.1,0.033 1.3,0L1.35,0M1.8,0.85L1.55,0.8C1.317,0.767 1.133,0.833 1,1C0.867,1.1 0.8,1.25 0.8,1.45L0.8,1.6L0.95,2.05L1,2.05L1.05,2.1L1.25,2.2L1.55,2.25L2.1,2.05L2.25,1.45L2.2,1.15L2.1,1L2.05,0.95L1.9,0.85L1.8,0.85"/>
    </g>
</svg>
