<svg height="183.5" width="19.5" xmlns:xlink="http://www.w3.org/1999/xlink" xmlns="http://www.w3.org/2000/svg"><path d="M32.7-175h.05l.05.05v-.2l-.05.05v.05l-.05-.05-.05.05-.05-.05.2-.1 6.3-3.05.15.1-.2 179.3-6.4 3.1-6.55-2.3v-8.7h.15l-.15-.05-.45-157.55-4.9 2.35v-7.2l5.1-2.5h.05l6.8-3.3-.05 179.25L32.7-175" fill="url(#a)" fill-rule="evenodd" transform="translate(-20.25 178.75)" style="fill:url(#b)"/><path d="M12.55 3.55 18.85.5m-.05 179.4-6.4 3.1-6.55-2.3L5.4 14.4.5 16.75m0-7.2 5-2.45m.15-.05 6.8-3.3L12.4 183" fill="none" stroke="#333" stroke-linecap="round" stroke-linejoin="round"/><path d="m39.25-178.15-.2 179.3" fill="none" stroke="#000" stroke-linecap="round" stroke-linejoin="round" transform="translate(-20.25 178.75)" style="fill:none;fill-opacity:1;stroke:#333;stroke-opacity:1"/><defs><linearGradient gradientTransform="matrix(.066 .0029 -.0024 .0547 79.4 -201.75)" gradientUnits="userSpaceOnUse" id="a" spreadMethod="pad" x1="-819.2" x2="819.2"><stop offset=".345" stop-color="#804000"/><stop offset="1" stop-color="#999"/></linearGradient><linearGradient xlink:href="#a" id="b" gradientUnits="userSpaceOnUse" gradientTransform="matrix(.066 .0029 -.0024 .0547 79.4 -201.75)" x1="-819.2" x2="819.2" spreadMethod="pad"/></defs></svg>