<svg xmlns="http://www.w3.org/2000/svg" height="115.508" width="42.859"><path d="M4.185 56.17Q1.08 68.39 3.037 77.214q1.418 6.45 5.535 11.2 6.412 4.073 10.462 4.073l.742.085 3.442.255 2.093-.17q3.847.424 13.634-5.94l.405-1.187q3.712-11.88-1.62-28.17 1.687-4.243 2.092-8.485.877-8.995-3.982-18.328-9.18-10.521-11.744-11.115l-2.363-.085q-4.657 0-15.186 4.157Q4.455 28.34 3.645 34.11q-1.418 9.673.54 22.06" fill="red" fill-rule="evenodd"/><path d="M4.185 56.17q-1.958-12.387-.54-22.06.81-5.77 2.902-10.607 10.53-4.157 15.186-4.157l2.363.085q2.565.594 11.744 11.115 4.86 9.333 3.982 18.328-.405 4.242-2.092 8.485 5.332 16.29 1.62 28.17l-.405 1.188q-9.787 6.363-13.634 5.94l-2.093.169-3.442-.255-.742-.084q-4.05 0-10.462-4.073-4.117-4.752-5.535-11.2Q1.08 68.389 4.185 56.17q-1.958-12.388-.54-22.061.81-5.77 2.902-10.607 10.53-4.157 15.186-4.157l2.363.085q2.565.594 11.744 11.115 4.86 9.334 3.982 18.328-.405 4.242-2.092 8.485 5.332 16.29 1.62 28.17l-.405 1.188q-9.787 6.363-13.634 5.94l-2.093.169-3.442-.255-.742-.084q-4.05 0-10.462-4.073-4.117-4.752-5.535-11.2Q1.08 68.389 4.185 56.17z" fill="none"/><path d="M11.137 15.103V6.618q9.786-9.842 20.923 0v8.57q-10.462-3.224-20.923-.085m1.755 85.275q9.584 3.818 20.518-.425v9.758q-10.462 8.315-20.923 0v-9.503l.405.17" fill="#333" fill-rule="evenodd"/><path d="M32.06 15.188q4.725 1.443 9.45 4.158v73.819q-14.31 12.558-28.618 7.213l-.405-.425v.255Q6.952 98.087 1.35 93.165V19.346q4.927-2.8 9.787-4.243 10.461-3.14 20.923.085M1.35 19.346q20.113 13.236 40.16 0-20.047 13.236-40.16 0m40.16 17.818q-20.047 14-40.16 1.273 20.113 12.728 40.16-1.273m0 16.97q-20.047 14-40.16 1.273 20.113 12.728 40.16-1.273m0 33.516q-20.047 14-40.16 1.273 20.113 12.727 40.16-1.273m0-16.546q-20.047 14-40.16 1.273 20.113 12.728 40.16-1.273" fill="#d10101" fill-opacity=".502" fill-rule="evenodd"/><path d="m-7.25 27.15.3.1-.3-.25v.15m-8.25-16.4q14.9 7.5 29.75-.75M-15.5 20.5q14.9 7.5 29.75-.75M-15.5.75Q-.6 8.25 14.25 0M-15.5-9.25Q-.6-1.75 14.25-10m0-10.5q-14.85 7.8-29.75 0" fill="none" stroke="#333" stroke-linecap="round" stroke-linejoin="round" transform="matrix(1.3499 0 0 1.697 22.273 54.134)"/><path d="M-8.25-23v-5q7.25-5.8 15.5 0v5.05q3.5.85 7 2.45V23q-10.6 7.4-21.2 4.25Q.15 29.5 8.25 27v5.75q-7.75 4.9-15.5 0v-5.6q-4.1-1.25-8.25-4.15v-43.5q3.65-1.65 7.25-2.5 7.75-1.85 15.5.05" fill="none" stroke="#000" stroke-linecap="round" stroke-linejoin="round" stroke-width="2" transform="matrix(1.3499 0 0 1.697 22.273 54.134)"/><path d="M31.693 23.199q-.906 0-1.359.342 1.005 1.943 2.207 2.249 1.517-.489.6-1.845-.68-.844-1.448-.746m-5.723.012-.58.526q.157.66.314 1.246.227.55.384 1.687l.148 1.38-.63.16q-.897.256-2.187.55-.66-.098-.099.647.65.538 1.045.832.394.354.935.256l1.192-.293q.138 1.198.286 2.346-.896.257-1.93.526-1.892.489-2.936.929 1.34 1.063 1.99 1.466.532.11 1.359-.195.847-.38 1.783-.66.276 1.71.581 4.204.404 3.006 1.113 3.446.522.208.926-.244.375-.452.375-1.515-.542-3.19-1.005-6.331.512-.135 1.428-.135l1.192-.097q1.399-.11 1.32-1.1 0-.892-1.684-1.112h-1.015q-.355.11-.66.293l-.837.085-.286-2.224 1.911-.354.887-.294q.6-.268.423-1.112-.62-1.087-2.512-.99-.197.245-.374.391-.433.086-.522.184-.04-.526-.04-1.1 0-1.039.07-1.613 0-.807-.601-1.345-.71-.55-1.764-.44m7.457-1.833q-.768-.098-1.32.257.355.635.591 1.026.808.697 1.557 1.222.69 0 .995-.378.197-.38.197-.734 0-1.185-2.02-1.393m-1.826 27.078q-.385.33-.617.49-1.167-.196-2.18-.098-2.401.097-5.391.208.202.697.607 1.003 1.573 1.297 2.19 1.297 1.06-.294 3.144-.392l1.775.086q-.068 1.162-.222 3.205-.154 1.97-.54 3.133-3.54.097-6.646.746.357.734 1.187 1.468.675.771 1.61.771 1.35-.477 2.826-.392 1.563 0 2.47.392.684 0 1.07-.844.463-3.61 1.129-7.672.221-.477.318-1.052-.27-.93-2.73-2.349m-13.205-14.42q-.478.22-.907.492-3.725.48-8.24 1.217.205.554.439.85.721.7 1.258.995.517.32 1.277.222 1.141-.381 4.974-1.255-.507 1.747-2.175 4.133-1.726 2.362-4.281 3.789l-.653.64q.702.221 1.355.221 2.282-.197 4.856-2.46 2.029-2.276 3.336-5.966.487-.714.487-1.181 0-.738-1.726-1.697m-.624-4.33q-.683-.111-1.239-.111-.243.406-.867.492-.995.197-1.775.283h-2.887q.37.922.985 1.5.83.628 1.17.726 5.16-.295 5.87-.996.479-.295.215-.935-.34-.75-1.472-.96m-3.439 15.83q-.318.22-.164.97.231 1.165.299 1.902.077.773.077 4.21 0 4.197-.222 6.087l-.077.835q.077 2 .934 2.54.222.123.877-.135.173-1.62.173-4.038.067-2.602.067-4.897.077-2.172.299-4.197.23-.884.23-1.105 0-.577-.355-1.043-.491-.626-.828-.724-.309-.197-1.31-.405m3.999 17.885-.833-.207q-.651.098-1.092.244 0 .623.163 1.16.326.72.584 1.025-.66 2.782-1.522 4.27-.843-.561-1.6-.756-.795-.293-1.34-.293-.326 0-.796.195.738 1.379 1.341 1.953.709.549 1.284.927-2.184 3.197-4.377 4.588-.67.476-1.705.83.603.512 1.293.61.89 0 2.174-.623 1.101-.56 2.126-1.464 1.197-1.147 2.145-2.611.163.256.604.732.68.659 1.398 1.171.766.488 1.197.488.872 0 .872-1.012-.086-.757-.584-1.513-.91-1.05-2.04-1.99 1.34-2.525 2.088-5.112.162-1.147-1.38-2.611m4.213 22.263q-.787.639-1.651 1.352-1.747 1.488-4.194 2.815-2.466 1.34-3.176 1.525-.595-.676-2.217-.553.682 1.537.528 2.57.26.786.749 1.315.374.283.806.627.345-.283.777-.701 2.553-1.55 6.055-4.463 1.996-1.98 2.323-4.487m-9.126-6.16q-.576-.098-1.277-.209 1.488 2.275 2.275 2.914.786.664 1.602.664.614 0 1.027-.529 0-1.807-.854-2.237-.873-.517-2.773-.603" fill-rule="evenodd"/></svg>