<svg xmlns="http://www.w3.org/2000/svg" height="182" width="160"><g clip-rule="evenodd" fill-rule="evenodd" stroke-linejoin="round" stroke-miterlimit="1.5"><path d="M29.716 81.65s17.75-10.5 51.375-4.125c0 0 20 2.75 35.5 20 0 0 12-4.25 16.5 9.5l14.75 6.5s3.875 3 1.875 9l-1.625 2s5.625 2 5.625 7.625c0 0-3.375 6-9.875 7.25l-74.75 2s-28.25-1.625-36.125-4.375c0 0-17.875-6.75-18.25-27 0 0-3.5-15.25 13.25-27.625z" fill="#fff"/><path d="M73.341 124.9s22.375-1.625 14 9.125c0 0-2.75 2.375-12.625.75" fill="none" stroke="#000" stroke-width="2.43"/><path d="M34.243 79.525s-22.75 6.25-19.25 33.625c0 0 2.25 21.125 22.75 24.875s41 3.25 41 3.25l65.5-2.25s4.277-.75 7.625-4.875-1.902-9.625-2.402-9.25l-20-5s-4-7.875-12.5-7c0 0-10.25.25-9.375 9.625m-31.125-46s25.113 4.071 40.113 20.571" fill="none" stroke="#000" stroke-width="2.43"/><path d="M111.841 102.4s2.375-8 11.25-5.375c0 0 7.5 1.625 9.5 9.625l14.75 6.25s5.625 6 .25 11.25" fill="none" stroke="#000" stroke-width="2.43"/></g></svg>