<svg xmlns="http://www.w3.org/2000/svg" height="182" width="160"><g clip-rule="evenodd" fill-rule="evenodd" stroke-linecap="square" stroke-linejoin="round" stroke-miterlimit="1.5"><path d="M19.194 95.46s-5 11.857 2.858 26c0 0 11.428 19.714 40.428 18.714l15.714-.572s.715 9.143 8 10.143c0 0 2.632-.143 3.775-13.428 0 0 8.143-5.715 14.285-.857l19.715 10s6.857-7.143-12-19.143c0 0 30.714 1.857 30.428 2.285-.285.429 9.572 0 2.572-8 0 0-5.572-9.428-29.429-12.857 0 0 7.857-3.857 15.143-2.857 0 0 17.209 3.857 17.714 5.143 0 0 6.506.286 2.077-10.143 0 0-6.142-10.714-32.285-12 0 0 5.428-.286 14.714-7.286 0 0-2.143-10.142-29.571-.428 0 0-5.143 4.428-12.429 3.428-7.286-1-7.429-1.857-7.429-1.857s5.429-4.285.858-11.143c0 0-3.143-1.857-9.286 9.572 0 0-10.286-3-24-1 0 0-15.572.428-27.857 9.286z" fill="#fff"/><path d="M1393.02 481.794S680.769 316.03 483.567 792.278m-19.724 327.292s8.48 143.04 195.691 202.03m276.319 70.43s229.427 31.45 484.247-40.13" fill="none" stroke="#000" stroke-width="45.51" transform="matrix(.06775 .0006 .00057 -.06484 -13.087 168.583)"/><path d="M841.292 239.282s26.792 44.048-9.311 69.989" fill="none" stroke="#000" stroke-width="34.19" transform="matrix(.01935 .06215 .06251 -.01778 6.41 93.566)"/><path d="M841.292 239.282s26.792 44.048-9.311 69.989" fill="none" stroke="#000" stroke-width="34.53" transform="matrix(.01831 .06226 .0626 -.0181 11.667 83.598)"/><path d="M962.768 306.015s-.604-57.089 53.042-60.466c53.65-3.377 82.79 82.213 17.05 104.73 0 0 57-10.131 65.59 41.087 8.59 51.217-86.61 108.464-114.881 9.339" fill="none" stroke="#000" stroke-width="29.25" transform="matrix(.06525 .01748 .01754 -.06012 -19.88 142.767)"/><path d="M841.292 239.282s26.792 44.048-9.311 69.989" fill="none" stroke="#000" stroke-width="33.56" transform="matrix(.04484 .04864 .05078 -.04288 -.976 84)"/><path d="M841.292 239.282s26.792 44.048-9.311 69.989" fill="none" stroke="#000" stroke-width="33.56" transform="matrix(.04233 .05065 .0529 -.04048 -.684 70.465)"/><path d="M962.768 306.015s-.604-57.089 53.042-60.466c53.65-3.377 82.79 82.213 17.05 104.73 0 0 57-10.131 65.59 41.087 8.59 51.217-86.61 108.464-114.881 9.339" fill="none" stroke="#000" stroke-width="28.71" transform="matrix(.06597 -.0147 -.0154 -.06315 -.603 142.845)"/><path d="M841.292 239.282s26.792 44.048-9.311 69.989" fill="none" stroke="#000" stroke-width="36.2" transform="matrix(.05203 .04156 .0368 -.04222 -8.65 58.627)"/><path d="M841.292 239.282s26.792 44.048-9.311 69.989" fill="none" stroke="#000" stroke-width="37.84" transform="matrix(.05098 .04171 .03391 -.04534 -11.61 50.878)"/><path d="M962.768 306.015s-.604-57.089 53.042-60.466c53.65-3.377 82.79 82.213 17.05 104.73 0 0 57-10.131 65.59 41.087 8.59 51.217-86.61 108.464-114.881 9.339" fill="none" stroke="#000" stroke-width="30.97" transform="matrix(.05483 -.03805 -.03376 -.04453 8.355 126.247)"/><path d="M1753.48 1265.95s684.11 40.34 668.76-297.684c0 0-10.56-63.582-93.67-25.362-83.1 38.219-226.13 79.976-374.7 40.841" fill="none" stroke="#000" stroke-width="39.66" transform="matrix(.06775 .0006 .00057 -.06484 -13.087 168.583)"/><path d="M127.656 130.097s.217 3.928 1.676 7.722c.656 1.705 1.57 3.373 2.801 4.672a.68.68 0 0 0 .929.02s3.186-2.698 6.09-8.878a40.98 40.98 0 0 0 2.436-6.645 48.61 48.61 0 0 0 1.33-6.899c.383-3.13.516-6.606.363-10.454a.245.245 0 0 0-.25-.24.245.245 0 0 0-.249.239 70.097 70.097 0 0 1-1.202 10.262 64.596 64.596 0 0 1-1.647 6.654 54.231 54.231 0 0 1-2.376 6.412c-2.009 4.487-4.085 7.143-4.966 8.16-.964-1.056-1.725-2.345-2.326-3.662-1.647-3.603-2.112-7.402-2.112-7.402a.247.247 0 0 0-.27-.218.242.242 0 0 0-.227.257zm-67.191 14.526s.06 4.712 1.76 9.45c.73 2.039 1.775 4.07 3.216 5.757.207.23.545.306.836.19 0 0 2.614-.9 5.52-5.949a31.757 31.757 0 0 0 2.198-4.699c.77-2.044 1.489-4.483 2.102-7.38.674-3.182 1.188-6.915 1.556-11.294a.242.242 0 0 0-.218-.266.248.248 0 0 0-.277.209 104.612 104.612 0 0 1-2.441 11.04c-.777 2.785-1.585 5.124-2.376 7.102-.714 1.782-1.408 3.266-2.083 4.495-1.791 3.262-3.388 4.664-4.12 5.183-1.58-1.823-2.676-4.073-3.444-6.218-1.433-3.999-1.73-7.64-1.73-7.64a.246.246 0 0 0-.261-.229.243.243 0 0 0-.238.249z"/><path d="M1918.96 622.516s113.47-93.752 117.39-192.965c4.6-116.547-119.02 15.02-302.67 100.656" fill="none" stroke="#000" stroke-width="39.6" transform="matrix(.06775 .0006 .00057 -.06484 -13.087 168.583)"/><path d="M1725.33 743.781c104.63-38.971 193.63-121.265 193.63-121.265s113.47-93.752 117.39-192.965c4.6-116.547-119.02 15.02-302.67 100.656" fill="none" stroke="#000" stroke-width="36.74" transform="matrix(.05063 -.05669 -.05151 -.04215 50.106 211.733)"/><path d="M1392.95 400.39s59.2-71.62 138.33-66.755c79.13 4.865 0 125.873 0 125.873" fill="none" stroke="#000" stroke-width="34.77" transform="matrix(.06496 .0377 .0406 -.06412 -28.704 112.65)"/><path d="M1488.06 583.874s108.27-4.841 213 44.173c104.73 49.015-102.84 152.127-153.32 170.281" fill="none" stroke="#000" stroke-width="37.34" transform="matrix(.06694 .01002 .01164 -.0716 -18.455 160.41)"/><path d="M1551.35 847.665s113.97 15.209 183.56 84.959c69.59 69.746-73.14 141.036-216.67 127.196" fill="none" stroke="#000" stroke-width="35.74" transform="matrix(.06123 -.0277 -.03499 -.07074 29.29 208.243)"/><path d="M1504.22 1133.25s119.76 25.51 166.62 131.33c46.87 105.83-134.79 83.01-218.88 57.59" fill="none" stroke="#000" stroke-width="56.39" transform="matrix(.03362 -.03433 -.03351 -.03006 71.97 167.274)"/><path d="M90.641 137.034s5.742 7.182 3.382 10.56c-2.415 3.455-11.646 1.377-16.563-7.594" fill="none"/><path d="M83.09 105.288s.167 1.543.116 4.312c-.015.844-.05 1.796-.098 2.86-.033.74-.077 1.533-.116 2.375-.035.755-.063 1.548-.1 2.38-.108 2.364-.281 5.021-.736 7.953.616-2.09 1.11-4.043 1.442-5.871.26-1.424.453-2.76.536-4.003.1-1.495.072-2.85-.011-4.039-.27-3.847-1.032-5.967-1.032-5.967zm-5.736-16.911s.46 1.487.942 4.218c.148.833.296 1.775.453 2.828.11.735.22 1.522.343 2.357.111.748.236 1.532.359 2.357.348 2.343.689 4.986.805 7.948.204-2.164.314-4.17.29-6.026-.019-1.446-.086-2.792-.243-4.03a29.689 29.689 0 0 0-.788-3.968c-1.003-3.734-2.16-5.684-2.16-5.684zM23.46 110.781s.015 1.551-.306 4.303c-.097.84-.225 1.784-.376 2.838-.105.735-.227 1.52-.347 2.355-.109.748-.214 1.535-.333 2.36-.338 2.344-.77 4.974-1.508 7.852.817-2.026 1.5-3.925 2.01-5.716.397-1.394.72-2.706.923-3.937.245-1.48.35-2.83.382-4.022.108-3.854-.445-6.033-.445-6.033zM123.685 78.01s.53 1.467 1.142 4.174c.187.825.38 1.76.587 2.805.145.73.291 1.51.455 2.34.146.742.308 1.52.47 2.338.46 2.326.926 4.951 1.183 7.906.1-2.171.115-4.18.002-6.033-.087-1.443-.218-2.786-.434-4.015-.26-1.477-.61-2.79-.976-3.93-1.18-3.687-2.429-5.585-2.429-5.585zm-34.898 58.67c-.215-.662-.378-1.213-.362-1.224.016-.012.716-.239 1.557-.504s2.324-.77 3.296-1.123c2.349-.85 2.213-.817 2.477-.601.242.199.214.195.833.115.386-.05.487-.043.625.046.206.132.604.101 1.117-.085.205-.075.52-.134.699-.133.18.002.413-.04.52-.091.111-.054.452-.103.794-.116.33-.011.749-.07.932-.128.301-.097.355-.098.576-.006.134.055.285.111.336.125.09.023-.389.245-2.406 1.114-1.473.635-4.113 1.659-5.985 2.32-1.488.527-4.456 1.496-4.576 1.494-.023 0-.218-.542-.433-1.203zm13.794-4.769a.07.07 0 0 1 .026-.099.077.077 0 0 1 .103.025.07.07 0 0 1-.025.099.077.077 0 0 1-.104-.025zm1.742-.073.236-.344c.122-.176.14-.51.077-1.336-.04-.514-.105-.652-.376-.81-.111-.063-.2-.131-.2-.15.003-.02.268-.179.591-.354 1.62-.88 3.632-2.238 4.842-3.269.348-.296.731-.586.853-.645.203-.098.53-.1 3.88-.032 5.443.11 10.446.328 15.442.67 4.74.324 6.857.554 10.345 1.121 1.805.294 2.65.359 3.49.267 1.042-.113 1.656-.367 1.987-.82.148-.204.165-.294.168-.88.003-.717-.1-1.089-.54-1.954-.886-1.744-3.247-4.43-5.282-6.012-3.067-2.383-7.776-4.394-13.872-5.925-4.069-1.021-8.356-1.772-12.268-2.148-.59-.057-1.089-.12-1.109-.139-.043-.042.183-2.436.235-2.484.051-.049 1.669.104 3.255.307 8.205 1.048 15.672 3.046 20.802 5.566 3.23 1.586 5.362 3.155 7.619 5.609 1.454 1.58 2.367 2.82 3.021 4.099 1.598 3.125.995 5.661-1.62 6.812-1.484.653-3.44.725-6.371.236-1.94-.324-2.576-.414-4.128-.587-4.726-.527-11.574-.919-20.306-1.16l-3.647-.102-.375.308c-1.608 1.317-4.141 2.944-6.257 4.02-.574.291-.605.3-.492.136z"/></g></svg>