<svg xmlns="http://www.w3.org/2000/svg" height="182" width="160"><g clip-rule="evenodd" fill-rule="evenodd" stroke-linecap="square" stroke-linejoin="round" stroke-miterlimit="1.5"><path d="M49.026 74.762c44.143-5.428 2.286-.285 2.286-.285 8.197-1.21 12.251-1.165 17.236-.996 12.026.407 19.282 2.531 19.282 2.531 21.571 8.286 22.321 10.715 23.607 12.143 1.286 1.429 2.714 1 2.714 1l36.118 4.178c6.714 10.142-23.1 12.117-23.1 12.117-6.475.879-14.675 1.658-22.714 4.884 10-10 26.428-.429 26.428-.429l7.858.572s10.321-2.804 14.035-1.09c3.715 1.715 6.375 13.646-2.47 17.15-10.612 4.205-14.181 10.248-55.752 12.391-20.106 1.037-37.981 1.879-49.982-.43-9.886-1.902-19.234-7.869-24.564-16.075-4.382-6.748-15.125-42.232 29.018-47.661z" fill="#fff"/><path d="M113.455 88.922c11.702.107 33.201 3.246 34.786 3.967 1.369.622 2.41 1.698 2.672 2.996.351 1.74-1.302 3.777-3.388 4.677-7.286 3.143-10.18 3.168-10.18 3.168" fill="none" stroke="#000" stroke-width="2.54"/><path d="M47.562 83.637s-.429 3.715-1.714 3.715" fill="none" stroke="#000" stroke-width="1.46"/><path d="M44.669 103.834s0 2.428-1.571 3.285" fill="none" stroke="#000" stroke-width="1.5"/><path d="M104.741 110.1s6.714-9.571 26.571-.143" fill="none" stroke="#000" stroke-width="2.54"/><path d="M56.741 87.762s1.553-2.839 5.125-.268c0 0 2.16 3.125-1.697 5.554l-2.428.143m-1.715 6s2.524 1.685 4.68.979c1.092-.357 1.903-1.234 2.624-3.443 0 0-.018-3.965-5.589-3.393" fill="none" stroke="#000" stroke-width="1.5"/><path d="M71.419 110.977s11.123.1 12.839.928c1.56.753 4.479 2.906 1.048 7.336-1.388 1.792-5.733 2.199-12.173 1.539" fill="none" stroke="#000" stroke-width="2.54"/><path d="m112.669 89.298 5.214 6.464m24.153 14.18c12.294-1.503 16.272 3.02 12.482 11.18-1.203 2.59-6.113 6.255-11.607 8.07m-29.375-38.875c-.773-1.268-5.75-4.75-5.75-4.75s-8.375-6.75-31.375-11.375" fill="none" stroke="#000" stroke-width="3" stroke-linecap="butt"/><path d="M36.661 77.692s-25.25 6.5-19.625 36.25c0 0 .923 23.134 31.352 25.42 0 0 58.729 5.857 95.428-10.428" fill="none" stroke="#000" stroke-width="3" stroke-linecap="butt"/></g></svg>