<?xml version="1.0" encoding="UTF-8" standalone="no"?>
<svg
   xmlns:dc="http://purl.org/dc/elements/1.1/"
   xmlns:cc="http://creativecommons.org/ns#"
   xmlns:rdf="http://www.w3.org/1999/02/22-rdf-syntax-ns#"
   xmlns:svg="http://www.w3.org/2000/svg"
   xmlns="http://www.w3.org/2000/svg"
   xmlns:xlink="http://www.w3.org/1999/xlink"
   xmlns:sodipodi="http://sodipodi.sourceforge.net/DTD/sodipodi-0.dtd"
   xmlns:inkscape="http://www.inkscape.org/namespaces/inkscape"
   height="186"
   width="160"
   version="1.1"
   id="svg959"
   sodipodi:docname="back-sitting.svg"
   inkscape:version="1.0.2-2 (e86c870879, 2021-01-15)">
  <metadata
     id="metadata963">
    <rdf:RDF>
      <cc:Work
         rdf:about="">
        <dc:format>image/svg+xml</dc:format>
        <dc:type
           rdf:resource="http://purl.org/dc/dcmitype/StillImage" />
        <dc:title></dc:title>
      </cc:Work>
    </rdf:RDF>
  </metadata>
  <sodipodi:namedview
     pagecolor="#ffffff"
     bordercolor="#666666"
     borderopacity="1"
     objecttolerance="10"
     gridtolerance="10"
     guidetolerance="10"
     inkscape:pageopacity="0"
     inkscape:pageshadow="2"
     inkscape:window-width="2385"
     inkscape:window-height="1401"
     id="namedview961"
     showgrid="false"
     inkscape:zoom="5.516129"
     inkscape:cx="80"
     inkscape:cy="93"
     inkscape:window-x="0"
     inkscape:window-y="0"
     inkscape:window-maximized="0"
     inkscape:current-layer="svg959" />
  <defs
     id="defs949">
    <use
       height="2.2"
       width="5"
       xlink:href="#a"
       id="e" />
    <use
       height="15.95"
       width="16"
       xlink:href="#b"
       id="f" />
    <g
       id="d">
      <path
         d="M-15.5-41.55q-2.65-3.1-2.5-7.1-.15-5.3 5.35-9.8Q-7.15-63.5.5-64q7.6.5 13.05 5.55 5.45 4.5 5.45 9.8 0 4-2.6 7.1h.1-.05L13.9-38.5l-.05-.1-.8.05.65 9.65h.15l.25.75.2.5.2.4-.15.45-.3.75-.2.35q-.6.55-1.1.75l-.15.1h-.5q-1.6.3-2.1-.6-1.15-.45-.95-1.9l.4-1.4v-.05l.15-.05-.45-6.45-1.35.1.45 6.3-.5 2q.25 1.65 1.3 2.4-.25.35.15.15 1.1 1.35 3.05.85l.25.05h.2l-.05.45h-.05l-.25 2.95h-.05l-.05.2h-1.9l-1.2 1.55h5.05q.7 0 1.15.4.55.55.55 1.65 0 1.05-.55 1.6-.45.45-1.15.45H7.6v1.2l-6.65-.45-.05-.1-11.55.3-1.6-.15q-1.6-1.8-1.9-3.85l-.1-1.2.05-.95.55-1.85h.1v-.55l.15-.15v-1.35h-.05l-.05-.8v-2.05l-.2-.65-.15-.45.15-.4.25-.5.25-.75h.1l.7-9.65-.85-.05-.4-.05v-.15l-2.05-2.75h.2M-13.8-22l.05.1-.05-.1m3.75-6.45l-.05-.05v.05h.05"
         fill="#fff"
         fill-rule="evenodd"
         transform="translate(18.6 64.6)"
         id="path919" />
      <path
         d="M13.9-38.5l.8 4.5.15 1.95.05-.05v.1l.2 2.65v.35H15v.1l.6 1.1q-.05.25.15.3.3 1.6-.6 2.45l-.15.2q-.15-.05-.2.1l-.25.25-.55.5q-.65.5-1.3.55h-.2l-.25-.05q-1.95.5-3.05-.85-.4.2-.15-.15-1.05-.75-1.3-2.4l.5-2-.45-6.3 1.35-.1.45 6.45-.15.05v.05l-.4 1.4q-.2 1.45.95 1.9.5.9 2.1.6h.5l.15-.1q.5-.2 1.1-.75l.2-.35.3-.75.15-.45-.2-.4-.2-.5-.25-.75h-.15l-.65-9.65.8-.05.05.1m-1.65 18.65h2q1.25 0 2.05.8.9.9.9 2.8 0 1.85-.9 2.75-.8.8-2.05.8H7.6v-1.5h6.6q.7 0 1.15-.45.55-.55.55-1.6 0-1.1-.55-1.65-.45-.4-1.15-.4H9.15l1.2-1.55h1.9M-13.5-24.1l-.45-.4-.2-.25-.2-.1-.2-.2q-.9-.85-.55-2.45.15-.05.15-.3l.55-1.1.05-.1h-.1l-.05-.35h.05l.2-2.65v-.1l.05.05.1-1.95.85-4.6.85.05-.7 9.65h-.1l-.25.75-.25.5-.15.4.15.45.2.65v2.05"
         fill-rule="evenodd"
         transform="translate(18.6 64.6)"
         id="path921" />
      <path
         d="M3.1 23.05q-2.65-3.1-2.5-7.1-.15-5.3 5.35-9.8Q11.45 1.1 19.1.6q7.6.5 13.05 5.55 5.45 4.5 5.45 9.8 0 4-2.6 7.1"
         fill="none"
         stroke="#000"
         stroke-linecap="round"
         stroke-linejoin="round"
         stroke-width="1.2"
         id="path923" />
    </g>
    <g
       id="b">
      <path
         d="M8.7-1.95q0 2.65-2.2 4.6-2.2 1.9-5.3 1.9-3.05 0-5.3-1.9Q-6.3.7-6.3-1.95q0-2.7 2.2-4.65 2.25-1.9 5.3-1.9 3.1 0 5.3 1.9 2.2 1.95 2.2 4.65"
         fill="url(#c)"
         fill-rule="evenodd"
         transform="translate(6.8 10.9)"
         id="path926" />
      <path
         d="M8.7-1.95q0 2.65-2.2 4.6-2.2 1.9-5.3 1.9-3.05 0-5.3-1.9Q-6.3.7-6.3-1.95q0-2.7 2.2-4.65 2.25-1.9 5.3-1.9 3.1 0 5.3 1.9 2.2 1.95 2.2 4.65z"
         fill="none"
         stroke="#000"
         stroke-linecap="round"
         stroke-linejoin="round"
         transform="translate(6.8 10.9)"
         id="path928" />
      <path
         d="M2.35-7.5q.1.35-.65.7-.7.4-1.8.65l-1.95.2q-.85 0-.95-.35-.1-.3.65-.75l1.85-.6 1.9-.25q.85.1.95.4"
         fill-opacity=".2"
         fill-rule="evenodd"
         transform="translate(6.8 10.9)"
         id="path930" />
      <path
         d="M-4-10.4l1.95.15 1.35 3.2L-4-10.4"
         fill-rule="evenodd"
         transform="translate(6.8 10.9)"
         id="path932" />
      <path
         d="M-4-10.4l1.95.15 1.35 3.2z"
         fill="none"
         stroke="#000"
         stroke-linecap="round"
         stroke-linejoin="round"
         transform="translate(6.8 10.9)"
         id="path934" />
      <path
         d="M-1 1.9q.2.4.05.55l-.8-.05-1-.65-.8-.85q-.15-.5.1-.6l.7.05q.5.2 1.05.7l.7.85m-3.4-3.1l-.2-.7.2-.75.5-.3q.3 0 .5.3l.25.75q0 .4-.25.7-.2.3-.5.3l-.5-.3"
         fill="#fff"
         fill-rule="evenodd"
         transform="translate(6.8 10.9)"
         id="path936" />
    </g>
    <linearGradient
       gradientTransform="matrix(-.0007 -.008 .0091 -.0006 1.2 -1.35)"
       gradientUnits="userSpaceOnUse"
       id="c"
       spreadMethod="pad"
       x1="-819.2"
       x2="819.2">
      <stop
         offset="0"
         stop-color="#c7f466"
         id="stop939" />
      <stop
         offset=".365"
         stop-color="#e7ac43"
         id="stop941" />
      <stop
         offset=".576"
         stop-color="#f84f32"
         id="stop943" />
      <stop
         offset="1"
         stop-color="#ff3131"
         id="stop945" />
    </linearGradient>
    <path
       d="M.7-.3l1.85 2.2H1.5L.05.7-1.4 1.9h-1.05l1.9-2.2H.7"
       fill-rule="evenodd"
       transform="translate(2.45 .3)"
       id="a" />
  </defs>
  <g
     style="clip-rule:evenodd;fill-rule:evenodd;stroke-linecap:round;stroke-linejoin:round;stroke-miterlimit:1.5"
     id="g1047"
     transform="translate(7.108,3.987)">
    <g
       transform="matrix(2,0,0,2,84.341,144.2)"
       id="g1012">
        <g
   transform="translate(2,-0.5)"
   id="g1006">
            <g
   transform="matrix(0.5,0,0,0.5,-44.6705,-70.6)"
   id="g967">
                <path
   d="m 45.688,36.208 -5.376,11.878 0.87,6.349 4.506,5.53 c 0,0 3.072,3.993 7.629,5.222 0,0 -1.895,30.054 -3.584,33.126 0,0 0.665,8.756 2.099,10.189 0,0 1.792,4.403 7.065,7.475 l 18.688,-0.358 6.708,-0.461 13.568,0.41 9.062,-0.973 6.4,-2.202 1.382,-4.198 -1.075,-4.096 -4.864,-1.485 -1.075,-0.87 c 0,0 5.274,-3.532 2.458,-26.727 l -1.024,-9.933 c 0,0 10.598,-1.741 14.95,-6.503 0,0 4.608,-6.144 3.84,-11.98 -0.768,-5.837 -4.71,-10.189 -4.71,-10.189 L 96.632,10.249 93.406,10.556 86.699,14.191 75.947,12.245 72.363,10.3 49.323,32.725 Z"
   style="fill:#ffffff"
   id="path965" />

            </g>

            <g
   id="Head"
   transform="translate(-2.5)">
                <g
   transform="matrix(0.5,0,0,0.5,-41.1705,-72.1)"
   id="g971">
                    <rect
   x="71.850998"
   y="13.695"
   width="20.736"
   height="21.056"
   style="stroke:#000000;stroke-width:2.52px"
   id="rect969" />

                </g>

                <g
   transform="matrix(0.5,0,0,0.5,-41.1705,-72.1)"
   id="g975">
                    <path
   d="m 121.008,39.103 c 0,0 10.752,13.568 -0.192,22.72"
   style="fill:none;stroke:#000000;stroke-width:2.52px"
   id="path973" />

                </g>

                <g
   transform="matrix(0.5,0,0,0.5,-41.1705,-72.1)"
   id="g979">
                    <path
   d="m 94.896,13.183 22.72,22.4"
   style="fill:none;stroke:#000000;stroke-width:2.52px"
   id="path977" />

                </g>

                <g
   transform="matrix(0.5,0,0,0.5,-41.1705,-72.1)"
   id="g983">
                    <path
   d="m 44.336,38.527 c 0,0 -12.608,14.272 0.064,23.744"
   style="fill:none;stroke:#000000;stroke-width:2.52px"
   id="path981" />

                </g>

                <g
   transform="matrix(0.5,0,0,0.5,-41.1705,-72.1)"
   id="g987">
                    <path
   d="M 70.96,12.991 48.176,36.159"
   style="fill:none;stroke:#000000;stroke-width:2.52px"
   id="path985" />

                </g>

            </g>

            <g
   transform="matrix(-0.5,0,0,0.5,54.6643,-73.1758)"
   id="g992">
                <path
   d="m 88.683,39.743 c 0,0 3.84,-0.896 3.648,3.584"
   style="fill:none;stroke:#000000;stroke-width:2.52px"
   id="path990" />

            </g>

            <g
   transform="matrix(-0.5,0,0,0.5,54.1643,-72.6758)"
   id="g996">
                <path
   d="m 71.865,47.103 7.986,0.512"
   style="fill:none;stroke:#000000;stroke-width:2.52px"
   id="path994" />

            </g>

            <g
   transform="matrix(-0.5,0,0,0.5,54.1643,-72.6758)"
   id="g1000">
                <path
   d="M 73.707,58.943 80.171,47.551 80.043,42.367"
   style="fill:none;stroke:#000000;stroke-width:2.52px"
   id="path998" />

            </g>

            <g
   transform="matrix(0.5,0,0,0.5,-44.6705,-70.6)"
   id="g1004">
                <path
   d="m 97.502,101.846 c 0,0 15.77,-2.355 16.999,5.735 0,0 1.74,8.652 -17.204,7.014"
   style="fill:none;stroke:#000000;stroke-width:2.5px"
   id="path1002" />

            </g>

        </g>

        <g
   transform="matrix(0.5,0,0,0.5,-18.6705,-72.1)"
   id="g1010">
            <path
   d="m 51.292,81.521 c 0,0 -2.969,15.821 6.144,16.537 0,0 8.09,1.28 6.503,-16.332"
   style="fill:none;stroke:#000000;stroke-width:2.5px"
   id="path1008" />

        </g>

    </g>
  </g>
</svg>
