<svg xmlns="http://www.w3.org/2000/svg" height="182" width="160"><g style="clip-rule:evenodd;fill-rule:evenodd;stroke-linecap:round;stroke-linejoin:round;stroke-miterlimit:1.5"><path d="M69.023 12.303S49.97 33.215 44.79 38.925c-2.188 2.412-3.795 6.192-4.484 8.737-.564 2.082.478 5.788 1.22 7.813.849 2.316 3.345 4.147 3.345 4.147l7.288 10.696s-2.526 22.612 2.18 39.227c1.114 3.932 1.33 6.561 2.515 9.347.526 1.235 2.587 1.083 3.657 2.062 0 0 3.719-2.721 4.464 1.586.898 5.193-4.452 10.186-.569 9.874 1.837-.149.251 17.127 11.134 4.073.744-.893 1.76-10.026 1.711-12.122 0 0 1.382-2.811 4.38-5.012.921-.675 2.569-.053 4.492 3.173 0 0-2.589 2.24 5.789 3.619 4.685.771 5.321-3.254 7.634-5.644 1.825-1.886 5.835-2.192 5.835-2.192s11.899-5.036 5.111-50.961c0 0 14.425-4.242 14.531-17.606 0 0 1.06-3.381-4.349-11.866L93.735 11.148l-5.94.955-11.348 1.061z" style="fill:#fff" transform="translate(-.523 .934)"/><path d="M88.683 39.743s3.84-.896 3.648 3.584" style="fill:none;stroke:#000;stroke-width:2.52px" transform="matrix(-1 0 0 1 196.146 -3.218)"/><path d="m71.865 47.103 7.986.512m-6.144 11.328 6.464-11.392-.128-5.184" style="fill:none;stroke:#000;stroke-width:2.52px" transform="matrix(-1 0 0 1 195.146 -2.218)"/><path d="m73.707 58.943 6.464-11.392-.128-5.184" style="fill:none;stroke:#000;stroke-width:2.52px" transform="matrix(-1 0 0 1 195.146 -2.218)"/><path d="M64.364 119.337s.192 6.745 6.861 6.412c0 0 6.822-.435 6.233-5.414" style="fill:none;stroke:#000;stroke-width:2.5px" transform="translate(20.628 1.282)"/><path d="M53.292 106.127s-.266 12.031 14.208 13.734c5.628.663 13.164-.229 17.237-2.648" style="fill:none;stroke:#000;stroke-width:2.5px" transform="translate(20.628 1.282)"/><path d="M77.1 107.855s-1.472 16.384 14.464 12.352" style="fill:none;stroke:#000;stroke-width:2.5px" transform="translate(-23.372 1.282)"/><path d="M54.581 122.614s-3.456 17.42 5.568 18.688c0 0 7.936.821 6.464-17.099" style="fill:none;stroke:#000;stroke-width:2.52px" transform="translate(9.477 .934)"/><path style="stroke:#000;stroke-width:2.52px" d="M71.851 13.695h20.736v21.056H71.851z" transform="matrix(.9671 0 0 1 2.866 -.731)"/><path d="M121.008 39.103s10.752 13.568-.192 22.72m-25.92-48.64 22.72 22.4m-73.28 2.944s-12.608 14.272.064 23.744m26.56-49.28L48.176 36.159" style="fill:none;stroke:#000;stroke-width:2.52px" transform="matrix(.9671 0 0 1 2.866 -.731)"/><path d="m109.559 48.352-.333-7.833 1.333-5 4-3 4.5-.167 3 4.834.334 9.333-1.167 7.5-2.833 8.5-6.334 5.5-5.166 2.5 2.666-22.167" style="fill:#fff" transform="translate(-.372 1.282)"/><path d="M109.317 80.108s11.008-.96 14.4-17.472" style="fill:none;stroke:#000;stroke-width:2.5px" transform="translate(-2.422 -8.718)"/><path d="M48.181 69.558s-2.432-17.6 6.528-16.512c0 0 8.064-.512 6.208 16.256" style="fill:none;stroke:#000;stroke-width:2.52px" transform="matrix(-1 0 0 1 169.978 -19.449)"/></g></svg>