<?xml version="1.0" encoding="UTF-8" standalone="no"?>
<svg
   xmlns:dc="http://purl.org/dc/elements/1.1/"
   xmlns:cc="http://creativecommons.org/ns#"
   xmlns:rdf="http://www.w3.org/1999/02/22-rdf-syntax-ns#"
   xmlns:svg="http://www.w3.org/2000/svg"
   xmlns="http://www.w3.org/2000/svg"
   xmlns:xlink="http://www.w3.org/1999/xlink"
   xmlns:sodipodi="http://sodipodi.sourceforge.net/DTD/sodipodi-0.dtd"
   xmlns:inkscape="http://www.inkscape.org/namespaces/inkscape"
   height="182"
   width="160"
   version="1.1"
   id="svg3571"
   sodipodi:docname="front-walking-1-alt.svg"
   inkscape:version="1.0.2-2 (e86c870879, 2021-01-15)">
  <metadata
     id="metadata3575">
    <rdf:RDF>
      <cc:Work
         rdf:about="">
        <dc:format>image/svg+xml</dc:format>
        <dc:type
           rdf:resource="http://purl.org/dc/dcmitype/StillImage" />
        <dc:title></dc:title>
      </cc:Work>
    </rdf:RDF>
  </metadata>
  <sodipodi:namedview
     pagecolor="#ffffff"
     bordercolor="#666666"
     borderopacity="1"
     objecttolerance="10"
     gridtolerance="10"
     guidetolerance="10"
     inkscape:pageopacity="0"
     inkscape:pageshadow="2"
     inkscape:window-width="2569"
     inkscape:window-height="1437"
     id="namedview3573"
     showgrid="false"
     inkscape:zoom="5.6373626"
     inkscape:cx="80"
     inkscape:cy="91"
     inkscape:window-x="3791"
     inkscape:window-y="194"
     inkscape:window-maximized="0"
     inkscape:current-layer="svg3571"
     inkscape:document-rotation="0" />
  <defs
     id="defs3561">
    <path
       d="M.7-.3l1.85 2.2H1.5L.05.7-1.4 1.9h-1.05l1.9-2.2H.7"
       fill-rule="evenodd"
       transform="translate(2.45 .3)"
       id="a" />
    <use
       height="2.2"
       width="5"
       xlink:href="#a"
       id="c" />
    <g
       id="b">
      <path
         d="M-15.5-41.55q-2.65-3.1-2.5-7.1-.15-5.3 5.35-9.8Q-7.15-63.5.5-64q7.6.5 13.05 5.55 5.45 4.5 5.45 9.8 0 4-2.6 7.1h.1-.05l-2.6 3.1v.8l-.2-.95-.8.05.65 9.65h.15l.25.75.2.5.2.4-.15.45-.3.75-.2.35-.9.7h-.05l-.05 1.5h.05l-.05.5h-.05l-.35 4.2-1.05 4.1-1.65 4v.05H8.4v5.2Q8.35-4.1 7.6-3.2q-.65.75-1.7.75-1 0-1.7-.75-.8-.9-.8-2.25v-5.2H2.1v-1.2h-.3V-12l-.9-1.55h-2.45l-1.55 1.7v1.2h-1.2v5.2q-.05 1.35-.8 2.25-.7.75-1.7.75t-1.75-.75q-.75-.9-.75-2.25v-5.2h-1.2L-12.1-13l.1-.1q-1.8-1.9-2.15-4.15l-.1-1.2.05-.95.55-1.85h.1v-.55l.15-.15V-24q.75.6 1.55.55l.25-.05q1.9.5 3-.85.4.2.2-.15 1-.75 1.25-2.4-.05-.7-.45-2l.45-6.3-1.35-.1-.5 6.45.15.05v.05h.05l.4 1.4q.15 1.45-.95 1.9-.55.9-2.1.6h-.5q-.6-.2-1.3-.85l-.2-.35-.25-.75-.15-.45.15-.4.25-.5.25-.75h.1l.7-9.65-.85-.05-.4-.05v-.15l-2.05-2.75h.2m1.75 19.65l-.05-.1.05.1m3.65-6.55h.05l-.05-.05v.05"
         fill="#fff"
         fill-rule="evenodd"
         transform="translate(18.6 64.6)"
         id="path3552" />
      <path
         d="M13.85-37.65l.8 5.6.05-.05v.1l.2 2.65v.35h-.1v.1q.25.7.6 1.1-.05.25.15.3.3 1.6-.6 2.45l-.15.2q-.15-.05-.2.1l-.25.25-.55.5q-.55.4-1.1.5h-.05l.05-1.5h.05l.9-.7.2-.35.3-.75.15-.45-.2-.4-.2-.5-.25-.75h-.15l-.65-9.65.8-.05.2.95m-4.3 27v5.2q0 1.95-1 3.1Q7.45-1.1 5.9-1.1q-1.5 0-2.65-1.25-1.05-1.15-1-3.1v-5.2H3.4v5.2q0 1.35.8 2.25.7.75 1.7.75 1.05 0 1.7-.75.75-.9.8-2.25v-5.2h1.15m-12.7 0v5.2q0 1.95-1.05 3.1Q-5.3-1.1-6.8-1.1t-2.65-1.25q-1.05-1.15-1.05-3.1v-5.2h1.2v5.2q0 1.35.75 2.25.75.75 1.75.75t1.7-.75q.75-.9.8-2.25v-5.2h1.15M-13.4-24l-.55-.5-.2-.25-.2-.1-.2-.2q-.9-.85-.55-2.45.15-.05.15-.3l.55-1.1.05-.1h-.1l-.05-.35h.05l.2-2.65v-.1l.05.05.95-6.55.85.05-.7 9.65h-.1l-.25.75-.25.5-.15.4.15.45.25.75.2.35q.7.65 1.3.85h.5q1.55.3 2.1-.6 1.1-.45.95-1.9l-.4-1.4h-.05v-.05l-.15-.05.5-6.45 1.35.1-.45 6.3q.4 1.3.45 2-.25 1.65-1.25 2.4.2.35-.2.15-1.1 1.35-3 .85l-.25.05q-.8.05-1.55-.55"
         fill-rule="evenodd"
         transform="translate(18.6 64.6)"
         id="path3554" />
      <path
         d="M3.1 23.05q-2.65-3.1-2.5-7.1-.15-5.3 5.35-9.8Q11.45 1.1 19.1.6q7.6.5 13.05 5.55 5.45 4.5 5.45 9.8 0 4-2.6 7.1"
         fill="none"
         stroke="#000"
         stroke-linecap="round"
         stroke-linejoin="round"
         stroke-width="1.2"
         id="path3556" />
      <path
         d="M5.4-44.05q.15.45.45.75l.7.25.95-.6q.4-.65.4-1.65 0-1.35-.9-3.25h1.05q.9 1.6.9 3.15 0 1.55-.65 2.4-.6.8-1.6.8-1.35 0-1.9-1.4-.6 1.4-1.9 1.4-1.05 0-1.65-.85Q.6-43.9.6-45.4q0-1.55.95-3.15h1q-.85 1.9-.85 3.25 0 1 .35 1.65.4.6.95.6.4 0 .7-.3l.45-.7.1-1.15V-47H5.3v1.8l.1 1.15"
         fill-rule="evenodd"
         transform="translate(18.6 64.6)"
         id="path3558" />
    </g>
    <path
       d="M.7-.3l1.85 2.2H1.5L.05.7-1.4 1.9h-1.05l1.9-2.2H.7"
       fill-rule="evenodd"
       transform="translate(2.45 .3)"
       id="a-7" />
    <use
       height="2.2"
       width="5"
       xlink:href="#a-7"
       id="c-4" />
    <g
       id="b-4">
      <path
         d="M-15.5-41.55q-2.65-3.1-2.5-7.1-.15-5.3 5.35-9.8Q-7.15-63.5.5-64q7.6.5 13.05 5.55 5.45 4.5 5.45 9.8 0 4-2.6 7.1h.1-.05l-2.6 3.1v.8l-.2-.95-.8.05.65 9.65h.15l.25.75.2.5.2.4-.15.45-.3.75-.2.35-.9.7h-.05l-.05 1.5h.05l-.05.5h-.05l-.35 4.2-1.05 4.1-1.65 4v.05H8.4v5.2Q8.35-4.1 7.6-3.2q-.65.75-1.7.75-1 0-1.7-.75-.8-.9-.8-2.25v-5.2H2.1v-1.2h-.3V-12l-.9-1.55h-2.45l-1.55 1.7v1.2h-1.2v5.2q-.05 1.35-.8 2.25-.7.75-1.7.75t-1.75-.75q-.75-.9-.75-2.25v-5.2h-1.2L-12.1-13l.1-.1q-1.8-1.9-2.15-4.15l-.1-1.2.05-.95.55-1.85h.1v-.55l.15-.15V-24q.75.6 1.55.55l.25-.05q1.9.5 3-.85.4.2.2-.15 1-.75 1.25-2.4-.05-.7-.45-2l.45-6.3-1.35-.1-.5 6.45.15.05v.05h.05l.4 1.4q.15 1.45-.95 1.9-.55.9-2.1.6h-.5q-.6-.2-1.3-.85l-.2-.35-.25-.75-.15-.45.15-.4.25-.5.25-.75h.1l.7-9.65-.85-.05-.4-.05v-.15l-2.05-2.75h.2m1.75 19.65l-.05-.1.05.1m3.65-6.55h.05l-.05-.05v.05"
         fill="#fff"
         fill-rule="evenodd"
         transform="translate(18.6 64.6)"
         id="path3552-3" />
      <path
         d="M13.85-37.65l.8 5.6.05-.05v.1l.2 2.65v.35h-.1v.1q.25.7.6 1.1-.05.25.15.3.3 1.6-.6 2.45l-.15.2q-.15-.05-.2.1l-.25.25-.55.5q-.55.4-1.1.5h-.05l.05-1.5h.05l.9-.7.2-.35.3-.75.15-.45-.2-.4-.2-.5-.25-.75h-.15l-.65-9.65.8-.05.2.95m-4.3 27v5.2q0 1.95-1 3.1Q7.45-1.1 5.9-1.1q-1.5 0-2.65-1.25-1.05-1.15-1-3.1v-5.2H3.4v5.2q0 1.35.8 2.25.7.75 1.7.75 1.05 0 1.7-.75.75-.9.8-2.25v-5.2h1.15m-12.7 0v5.2q0 1.95-1.05 3.1Q-5.3-1.1-6.8-1.1t-2.65-1.25q-1.05-1.15-1.05-3.1v-5.2h1.2v5.2q0 1.35.75 2.25.75.75 1.75.75t1.7-.75q.75-.9.8-2.25v-5.2h1.15M-13.4-24l-.55-.5-.2-.25-.2-.1-.2-.2q-.9-.85-.55-2.45.15-.05.15-.3l.55-1.1.05-.1h-.1l-.05-.35h.05l.2-2.65v-.1l.05.05.95-6.55.85.05-.7 9.65h-.1l-.25.75-.25.5-.15.4.15.45.25.75.2.35q.7.65 1.3.85h.5q1.55.3 2.1-.6 1.1-.45.95-1.9l-.4-1.4h-.05v-.05l-.15-.05.5-6.45 1.35.1-.45 6.3q.4 1.3.45 2-.25 1.65-1.25 2.4.2.35-.2.15-1.1 1.35-3 .85l-.25.05q-.8.05-1.55-.55"
         fill-rule="evenodd"
         transform="translate(18.6 64.6)"
         id="path3554-9" />
      <path
         d="M3.1 23.05q-2.65-3.1-2.5-7.1-.15-5.3 5.35-9.8Q11.45 1.1 19.1.6q7.6.5 13.05 5.55 5.45 4.5 5.45 9.8 0 4-2.6 7.1"
         fill="none"
         stroke="#000"
         stroke-linecap="round"
         stroke-linejoin="round"
         stroke-width="1.2"
         id="path3556-0" />
      <path
         d="M5.4-44.05q.15.45.45.75l.7.25.95-.6q.4-.65.4-1.65 0-1.35-.9-3.25h1.05q.9 1.6.9 3.15 0 1.55-.65 2.4-.6.8-1.6.8-1.35 0-1.9-1.4-.6 1.4-1.9 1.4-1.05 0-1.65-.85Q.6-43.9.6-45.4q0-1.55.95-3.15h1q-.85 1.9-.85 3.25 0 1 .35 1.65.4.6.95.6.4 0 .7-.3l.45-.7.1-1.15V-47H5.3v1.8l.1 1.15"
         fill-rule="evenodd"
         transform="translate(18.6 64.6)"
         id="path3558-1" />
    </g>
  </defs>
  <g
     style="clip-rule:evenodd;fill-rule:evenodd;stroke-linecap:round;stroke-linejoin:round;stroke-miterlimit:1.5"
     id="g2548"
     transform="translate(1.6721854e-5)">
    <g
       id="g2451"
       transform="matrix(-1,0,0,1,168.984,0)">
        <path
   id="path2368"
   d="m 45.573,61.164 c 0,0 6.08,6.528 9.28,8.128 0,0 -0.832,40.441 11.456,55.36 l 0.896,11.591 4.608,4.608 4.032,-0.576 3.136,-3.52 0.32,-13.312 4.608,-4.672 3.008,5.44 5.568,2.88 6.08,0.448 6.72,-1.216 3.072,-3.52 -0.512,-4.864 c 0,0 8.064,0.384 4.992,-38.464 0,0 10.176,-5.76 11.328,-20.288 0,0 5.376,-2.496 4.288,-12.672 0,0 -0.128,-4.425 -9.92,-11.977 L 96.389,12.714 84.229,14.506 75.781,13.034 72.069,12.266 49.285,35.05 l -4.608,4.736 -3.52,6.72 -0.448,6.336 1.408,4.352 z"
   style="fill:#ffffff" />

        <g
   id="g4331"
   transform="translate(6.63431,-0.731)">
            <g
   id="g4287"
   transform="matrix(2,0,0,2,82.341,144.2)">
                <g
   id="path4271"
   transform="matrix(0.5,0,0,0.5,-44.5723,-72.1758)">
                    <path
   d="m 66.987,47.103 12.864,0.512"
   style="fill:none;stroke:#000000;stroke-width:2.52px"
   id="path2458" />

                </g>

                <g
   id="path4275"
   transform="matrix(0.5,0,0,0.5,-44.5723,-72.1758)">
                    <path
   d="m 67.051,42.367 -0.32,4.928 6.976,11.648 6.464,-11.392 -0.128,-5.184"
   style="fill:none;stroke:#000000;stroke-width:2.52px"
   id="path2461" />

                </g>

                <g
   id="path4279"
   transform="matrix(0.5,0,0,0.5,-44.5723,-72.1758)">
                    <path
   d="m 88.683,39.743 c 0,0 3.84,-0.896 3.648,3.584"
   style="fill:none;stroke:#000000;stroke-width:2.52px"
   id="path2464" />

                </g>

                <g
   id="path4283"
   transform="matrix(0.5,0,0,0.5,-44.5723,-72.1758)">
                    <path
   d="m 58.027,38.847 c 0,0 -4.416,-0.96 -3.84,3.072"
   style="fill:none;stroke:#000000;stroke-width:2.52px"
   id="path2467" />

                </g>

                <g
   id="path4262-2-8"
   transform="matrix(-0.5,0,0,0.5,39.1872,-72.1)">
                    <path
   d="m 44.336,38.527 c 0,0 -12.608,14.272 0.064,23.744"
   style="fill:none;stroke:#000000;stroke-width:2.52px"
   id="path2470" />

                </g>

                <g
   id="rect4250"
   transform="matrix(0.5,0,0,0.5,-43.6705,-72.1)">
                    <rect
   x="71.850998"
   y="13.695"
   width="20.736"
   height="21.056"
   style="stroke:#000000;stroke-width:2.52px"
   id="rect2473" />

                </g>

                <g
   id="path4258"
   transform="matrix(0.5,0,0,0.5,-43.6705,-72.1)">
                    <path
   d="m 94.896,13.183 22.72,22.4"
   style="fill:none;stroke:#000000;stroke-width:2.52px"
   id="path2476-4" />

                </g>

                <g
   id="path4262"
   transform="matrix(0.5,0,0,0.5,-43.6705,-72.1)">
                    <path
   d="m 44.336,38.527 c 0,0 -12.608,14.272 0.064,23.744"
   style="fill:none;stroke:#000000;stroke-width:2.52px"
   id="path2479-6" />

                </g>

                <g
   id="path4266"
   transform="matrix(0.5,0,0,0.5,-43.6705,-72.1)">
                    <path
   d="M 70.96,12.991 48.176,36.159"
   style="fill:none;stroke:#000000;stroke-width:2.52px"
   id="path2482-0" />

                </g>

            </g>

            <g
   id="path4291"
   transform="matrix(-1,0,0,1,155.058,5)">
                <path
   id="path2391"
   d="m 103.349,75.51 c 0,0 -16.64,-2.304 -16.64,6.464 0,0 -0.064,7.872 16.256,6.08"
   style="fill:none;stroke:#000000;stroke-width:2.52px" />

            </g>

            <g
   id="path4293"
   transform="translate(5)">
                <path
   id="path2394"
   d="m 55.669,124.79 c 0,0 -2.816,15.436 6.208,16.704 0,0 7.808,0.885 6.336,-17.035"
   style="fill:none" />

            </g>

            <g
   id="path4193-5"
   transform="translate(5)">
                <path
   id="path2397"
   d="m 55.669,124.79 c 0,0 -2.816,15.436 6.208,16.704 0,0 7.808,0.885 6.336,-17.035"
   style="fill:none;stroke:#000000;stroke-width:2.52px" />

            </g>

            <g
   id="g2407"
   transform="translate(-6.63431,0.731)">
                <path
   id="path2405"
   d="m 99.525,104.172 c 0,0 -15.488,-2.432 -15.36,14.784 0,0 0,11.648 20.544,7.552 0,0 6.08,-3.136 1.984,-9.536 0,0 -2.624,-2.688 -11.2,-2.368"
   style="fill:none;stroke:#000000;stroke-width:2.5px" />

            </g>

        </g>

        <g
   transform="matrix(-1,0,0,1,168.984,0)"
   id="g2497">
            <path
   d="m 46.108,65.855 c 0,0 -1.28,-4.404 -1.024,-10.394 0.256,-5.99 6.554,-1.229 6.554,-1.229 l 3.788,9.319 -3.02,4.761 -6.298,-2.457"
   style="fill:#ffffff"
   id="path2495" />

        </g>

        <g
   id="g2403">
            <path
   id="path2401"
   d="m 109.317,80.108 c 0,0 11.008,-0.96 14.4,-17.472"
   style="fill:none;stroke:#000000;stroke-width:2.5px" />

            <g
   id="path4289"
   transform="translate(62.6343,-10.731)">
                <path
   id="path2388"
   d="m 48.181,69.558 c 0,0 -2.432,-17.6 6.528,-16.512 0,0 8.064,-0.512 6.208,16.256"
   style="fill:none;stroke:#000000;stroke-width:2.52px" />

            </g>

        </g>

    </g>
  </g>
</svg>
