<svg xmlns="http://www.w3.org/2000/svg" height="182" width="160"><g style="clip-rule:evenodd;fill-rule:evenodd;stroke-linecap:round;stroke-linejoin:round;stroke-miterlimit:1.5"><path d="M65.717 14.123 38.069 41.195s-7.488 5.824-2.368 17.28l2.304 2.496s3.328 6.464 8.192 7.808c0 0-2.944 42.24 9.408 55.936 0 0-2.688 17.408 6.592 17.088 0 0 7.744.064 6.144-17.216 0 0 4.48-5.824 8.128-5.632 3.648.192 28.608-.448 28.608-.448s7.552-.384 11.776-5.376c0 0 .576-4.864-2.688-6.4l-10.112-1.984s3.648-20.416 3.776-34.816c0 0 9.664-5.632 12.608-13.632 0 0 1.984-6.592-.768-12.032s-11.008-12.224-11.008-12.224L89.845 13.227l-3.648 2.752-10.112 1.6-7.936-1.344z" style="fill:#fff" transform="translate(6.634 -.731)"/><path style="stroke:#000;stroke-width:2.52px" d="M71.851 13.695h20.736v21.056H71.851z" transform="translate(1.634 -.731)"/><path d="M121.008 39.103s10.752 13.568-.192 22.72m-25.92-48.64 22.72 22.4m-73.28 2.944s-12.608 14.272.064 23.744m26.56-49.28L48.176 36.159" style="fill:none;stroke:#000;stroke-width:2.52px" transform="translate(1.634 -.731)"/><path d="m66.987 47.103 12.864.512m-12.8-5.248-.32 4.928 6.976 11.648 6.464-11.392-.128-5.184m8.64-2.624s3.84-.896 3.648 3.584m-34.304-4.48s-4.416-.96-3.84 3.072" style="fill:none;stroke:#000;stroke-width:2.52px" transform="matrix(-1 0 0 1 167.304 .117)"/><path d="M48.181 69.558s-2.432-17.6 6.528-16.512c0 0 8.064-.512 6.208 16.256m42.432 6.208s-16.64-2.304-16.64 6.464c0 0-.064 7.872 16.256 6.08M55.669 124.79s-2.816 15.436 6.208 16.704c0 0 7.808.885 6.336-17.035m31.936-19.648s15.552-1.472 16.448 5.888c0 0 1.728 9.152-17.28 6.464" style="fill:none;stroke:#000;stroke-width:2.52px" transform="translate(6.634 -.731)"/></g></svg>