<?xml version="1.0" encoding="UTF-8" standalone="no"?>
<svg
   xmlns:dc="http://purl.org/dc/elements/1.1/"
   xmlns:cc="http://creativecommons.org/ns#"
   xmlns:rdf="http://www.w3.org/1999/02/22-rdf-syntax-ns#"
   xmlns:svg="http://www.w3.org/2000/svg"
   xmlns="http://www.w3.org/2000/svg"
   xmlns:xlink="http://www.w3.org/1999/xlink"
   xmlns:sodipodi="http://sodipodi.sourceforge.net/DTD/sodipodi-0.dtd"
   xmlns:inkscape="http://www.inkscape.org/namespaces/inkscape"
   height="182"
   width="160"
   version="1.1"
   id="svg2854"
   sodipodi:docname="front-sitting.svg"
   inkscape:version="1.0.2-2 (e86c870879, 2021-01-15)">
  <metadata
     id="metadata2858">
    <rdf:RDF>
      <cc:Work
         rdf:about="">
        <dc:format>image/svg+xml</dc:format>
        <dc:type
           rdf:resource="http://purl.org/dc/dcmitype/StillImage" />
        <dc:title></dc:title>
      </cc:Work>
    </rdf:RDF>
  </metadata>
  <sodipodi:namedview
     pagecolor="#ffffff"
     bordercolor="#666666"
     borderopacity="1"
     objecttolerance="10"
     gridtolerance="10"
     guidetolerance="10"
     inkscape:pageopacity="0"
     inkscape:pageshadow="2"
     inkscape:window-width="2365"
     inkscape:window-height="1237"
     id="namedview2856"
     showgrid="false"
     inkscape:zoom="5.6373626"
     inkscape:cx="80"
     inkscape:cy="91"
     inkscape:window-x="0"
     inkscape:window-y="0"
     inkscape:window-maximized="0"
     inkscape:current-layer="svg2854" />
  <defs
     id="defs2844">
    <path
       d="M.7-.3l1.85 2.2H1.5L.05.7-1.4 1.9h-1.05l1.9-2.2H.7"
       fill-rule="evenodd"
       transform="translate(2.45 .3)"
       id="a" />
    <use
       height="2.2"
       width="5"
       xlink:href="#a"
       id="c" />
    <g
       id="b">
      <path
         d="M-15.5-41.55q-2.65-3.1-2.5-7.1-.15-5.3 5.35-9.8Q-7.15-63.5.5-64q7.6.5 13.05 5.55 5.45 4.5 5.45 9.8 0 4-2.6 7.1h.1-.05l-2.6 3.1v.8l-.2-.95-.8.05.65 9.65h.15l.25.75.2.5.2.4-.15.45-.3.75-.2.35-.9.7h-.05l-.05 1.5h.05l-.05.5h-.05l-.05.45h.05l-.25 2.65h-1.8l-.75 1.55h5.4l1.15.4q.55.55.55 1.65 0 1.05-.55 1.6-.45.45-1.15.45H8.6v1.45l-4.5-.25.65-.5q.9-.9.9-2.75 0-1.9-.9-2.8-.8-.8-2.05-.8h-6.6v1.55h6.55q.7 0 1.15.4.55.55.55 1.65 0 1.05-.55 1.6-.45.45-1.15.45H-3.9v1.4l-6.55-.35-1.95-.4q-1.45-1.7-1.75-3.65l-.1-1.2.05-.95.55-1.85h.1v-.55l.15-.15V-24q.75.6 1.55.55l.25-.05q1.9.5 3-.85.4.2.2-.15 1-.75 1.25-2.4-.05-.7-.45-2l.45-6.3-1.35-.1-.5 6.45.15.05v.05h.05l.4 1.4q.15 1.45-.95 1.9-.55.9-2.1.6h-.5q-.6-.2-1.3-.85l-.2-.35v-2.1l.25-.75h.1l.7-9.65-.85-.05-.4-.05v-.15l-2.05-2.75h.2M-13.8-22l.05.1-.05-.1m3.75-6.45l-.05-.05v.05h.05"
         fill="#fff"
         fill-rule="evenodd"
         transform="translate(18.6 64.6)"
         id="path2835" />
      <path
         d="M13.85-37.65L14.5-34l.15 1.95.05-.05v.1l.2 2.65v.35h-.1v.1q.25.7.6 1.1-.05.25.15.3.3 1.6-.6 2.45l-.15.2q-.15-.05-.2.1l-.25.25-.55.5q-.55.4-1.1.5h-.05l.05-1.5h.05l.9-.7.2-.35.3-.75.15-.45-.2-.4-.2-.5-.25-.75h-.15l-.65-9.65.8-.05.2.95m-1.5 17.75h2.9q1.25 0 2.05.8.9.9.9 2.8 0 1.85-.9 2.75-.8.8-2.05.8H8.6v-1.5h6.6q.7 0 1.15-.45.55-.55.55-1.6 0-1.1-.55-1.65l-1.15-.4H9.8l.75-1.55h1.8M4.1-13.05l-1.3.3h-6.7v-1.5h6.55q.7 0 1.15-.45.55-.55.55-1.6 0-1.1-.55-1.65-.45-.4-1.15-.4H-3.9v-1.55h6.6q1.25 0 2.05.8.9.9.9 2.8 0 1.85-.9 2.75l-.65.5M-13.4-24l-.55-.5-.2-.25-.2-.1-.2-.2q-.9-.85-.55-2.45.15-.05.15-.3l.55-1.1.05-.1h-.1l-.05-.35h.05l.2-2.65v-.1l.05.05.1-1.95.85-4.6.85.05-.7 9.65h-.1l-.25.75-.25.5-.15.4.15.45.25.75.2.35q.7.65 1.3.85h.5q1.55.3 2.1-.6 1.1-.45.95-1.9l-.4-1.4h-.05v-.05l-.15-.05.5-6.45 1.35.1-.45 6.3q.4 1.3.45 2-.25 1.65-1.25 2.4.2.35-.2.15-1.1 1.35-3 .85l-.25.05q-.8.05-1.55-.55"
         fill-rule="evenodd"
         transform="translate(18.6 64.6)"
         id="path2837" />
      <path
         d="M3.1 23.05q-2.65-3.1-2.5-7.1-.15-5.3 5.35-9.8Q11.45 1.1 19.1.6q7.6.5 13.05 5.55 5.45 4.5 5.45 9.8 0 4-2.6 7.1"
         fill="none"
         stroke="#000"
         stroke-linecap="round"
         stroke-linejoin="round"
         stroke-width="1.2"
         id="path2839" />
      <path
         d="M5.4-44.05q.15.45.45.75l.7.25.95-.6q.4-.65.4-1.65 0-1.35-.9-3.25h1.05q.9 1.6.9 3.15 0 1.55-.65 2.4-.6.8-1.6.8-1.35 0-1.9-1.4-.6 1.4-1.9 1.4-1.05 0-1.65-.85Q.6-43.9.6-45.4q0-1.55.95-3.15h1q-.85 1.9-.85 3.25 0 1 .35 1.65.4.6.95.6.4 0 .7-.3l.45-.7.1-1.15V-47H5.3v1.8l.1 1.15"
         fill-rule="evenodd"
         transform="translate(18.6 64.6)"
         id="path2841" />
    </g>
  </defs>
  <g
     style="clip-rule:evenodd;fill-rule:evenodd;stroke-linecap:round;stroke-linejoin:round;stroke-miterlimit:1.5"
     id="g3521"
     transform="translate(5.6343067,6.269)">
    <g
       transform="matrix(2,0,0,2,85.341,142.2)"
       id="g3480">
        <g
   transform="translate(2,-0.5)"
   id="g3474">
            <g
   transform="matrix(0.5,0,0,0.5,-44.1705,-71.6)"
   id="g3423">
                <path
   d="m 110.684,81.265 c 0,0 1.997,15.872 -3.84,16.486"
   style="fill:none;stroke:#000000;stroke-width:2.5px"
   id="path3421" />

            </g>

            <g
   transform="matrix(0.5,0,0,0.5,-44.6705,-70.6)"
   id="g3427">
                <path
   d="m 45.688,36.208 -5.376,11.878 0.87,6.349 4.506,5.53 c 0,0 3.072,3.993 7.629,5.222 0,0 -1.895,30.054 -3.584,33.126 0,0 0.665,8.756 2.099,10.189 0,0 1.792,4.403 7.065,7.475 l 18.688,-0.358 6.708,-0.461 13.568,0.41 9.062,-0.973 6.4,-2.202 1.382,-4.198 -1.075,-4.096 -4.864,-1.485 -1.075,-0.87 c 0,0 5.274,-3.532 2.458,-26.727 l -1.024,-9.933 c 0,0 10.598,-1.741 14.95,-6.503 0,0 4.608,-6.144 3.84,-11.98 -0.768,-5.837 -4.71,-10.189 -4.71,-10.189 L 96.632,10.249 93.406,10.556 86.699,14.191 75.947,12.245 72.363,10.3 49.323,32.725 Z"
   style="fill:#ffffff"
   id="path3425" />

            </g>

            <g
   transform="matrix(0.5,0,0,0.5,-44.6705,-70.6)"
   id="g3431">
                <path
   d="m 73.643,102.307 c 0,0 16.845,-2.15 16.845,6.298 0,0 1.689,8.652 -17.255,6.195"
   style="fill:none;stroke:#000000;stroke-width:2.5px"
   id="path3429" />

            </g>

            <g
   id="Head"
   transform="translate(-2.5)">
                <g
   transform="matrix(0.5,0,0,0.5,-41.1705,-72.1)"
   id="g3435">
                    <rect
   x="71.850998"
   y="13.695"
   width="20.736"
   height="21.056"
   style="stroke:#000000;stroke-width:2.52px"
   id="rect3433" />

                </g>

                <g
   transform="matrix(0.5,0,0,0.5,-41.1705,-72.1)"
   id="g3439">
                    <path
   d="m 121.008,39.103 c 0,0 10.752,13.568 -0.192,22.72"
   style="fill:none;stroke:#000000;stroke-width:2.52px"
   id="path3437" />

                </g>

                <g
   transform="matrix(0.5,0,0,0.5,-41.1705,-72.1)"
   id="g3443">
                    <path
   d="m 94.896,13.183 22.72,22.4"
   style="fill:none;stroke:#000000;stroke-width:2.52px"
   id="path3441" />

                </g>

                <g
   transform="matrix(0.5,0,0,0.5,-41.1705,-72.1)"
   id="g3447">
                    <path
   d="m 44.336,38.527 c 0,0 -12.608,14.272 0.064,23.744"
   style="fill:none;stroke:#000000;stroke-width:2.52px"
   id="path3445" />

                </g>

                <g
   transform="matrix(0.5,0,0,0.5,-41.1705,-72.1)"
   id="g3451">
                    <path
   d="M 70.96,12.991 48.176,36.159"
   style="fill:none;stroke:#000000;stroke-width:2.52px"
   id="path3449" />

                </g>

            </g>

            <g
   transform="matrix(-0.5,0,0,0.5,36.1643,-71.6758)"
   id="g3456">
                <path
   d="m 66.987,47.103 12.864,0.512"
   style="fill:none;stroke:#000000;stroke-width:2.52px"
   id="path3454" />

            </g>

            <g
   transform="matrix(-0.5,0,0,0.5,36.1643,-71.6758)"
   id="g3460">
                <path
   d="m 67.051,42.367 -0.32,4.928 6.976,11.648 6.464,-11.392 -0.128,-5.184"
   style="fill:none;stroke:#000000;stroke-width:2.52px"
   id="path3458" />

            </g>

            <g
   transform="matrix(-0.5,0,0,0.5,36.1643,-71.6758)"
   id="g3464">
                <path
   d="m 88.683,39.743 c 0,0 3.84,-0.896 3.648,3.584"
   style="fill:none;stroke:#000000;stroke-width:2.52px"
   id="path3462" />

            </g>

            <g
   transform="matrix(-0.5,0,0,0.5,36.1643,-71.6758)"
   id="g3468">
                <path
   d="m 58.027,38.847 c 0,0 -4.416,-0.96 -3.84,3.072"
   style="fill:none;stroke:#000000;stroke-width:2.52px"
   id="path3466" />

            </g>

            <g
   transform="matrix(0.5,0,0,0.5,-44.6705,-70.6)"
   id="g3472">
                <path
   d="m 97.502,101.846 c 0,0 15.77,-2.355 16.999,5.735 0,0 1.74,8.652 -17.204,7.014"
   style="fill:none;stroke:#000000;stroke-width:2.5px"
   id="path3470" />

            </g>

        </g>

        <g
   transform="matrix(0.5,0,0,0.5,-41.1705,-72.1)"
   id="g3478">
            <path
   d="m 51.292,81.521 c 0,0 -2.969,15.821 6.144,16.537 0,0 8.09,1.28 6.503,-16.332"
   style="fill:none;stroke:#000000;stroke-width:2.5px"
   id="path3476" />

        </g>

    </g>
  </g>
</svg>
