<?xml version="1.0" encoding="UTF-8" standalone="no"?>
<svg
   xmlns:dc="http://purl.org/dc/elements/1.1/"
   xmlns:cc="http://creativecommons.org/ns#"
   xmlns:rdf="http://www.w3.org/1999/02/22-rdf-syntax-ns#"
   xmlns:svg="http://www.w3.org/2000/svg"
   xmlns="http://www.w3.org/2000/svg"
   xmlns:xlink="http://www.w3.org/1999/xlink"
   xmlns:sodipodi="http://sodipodi.sourceforge.net/DTD/sodipodi-0.dtd"
   xmlns:inkscape="http://www.inkscape.org/namespaces/inkscape"
   height="182"
   width="160"
   version="1.1"
   id="svg3571"
   sodipodi:docname="front-walking-2.svg"
   inkscape:version="1.0.2-2 (e86c870879, 2021-01-15)">
  <metadata
     id="metadata3575">
    <rdf:RDF>
      <cc:Work
         rdf:about="">
        <dc:format>image/svg+xml</dc:format>
        <dc:type
           rdf:resource="http://purl.org/dc/dcmitype/StillImage" />
        <dc:title></dc:title>
      </cc:Work>
    </rdf:RDF>
  </metadata>
  <sodipodi:namedview
     pagecolor="#ffffff"
     bordercolor="#666666"
     borderopacity="1"
     objecttolerance="10"
     gridtolerance="10"
     guidetolerance="10"
     inkscape:pageopacity="0"
     inkscape:pageshadow="2"
     inkscape:window-width="2569"
     inkscape:window-height="1437"
     id="namedview3573"
     showgrid="false"
     inkscape:zoom="5.6373626"
     inkscape:cx="80"
     inkscape:cy="91"
     inkscape:window-x="0"
     inkscape:window-y="0"
     inkscape:window-maximized="0"
     inkscape:current-layer="svg3571" />
  <defs
     id="defs3561">
    <path
       d="M.7-.3l1.85 2.2H1.5L.05.7-1.4 1.9h-1.05l1.9-2.2H.7"
       fill-rule="evenodd"
       transform="translate(2.45 .3)"
       id="a" />
    <use
       height="2.2"
       width="5"
       xlink:href="#a"
       id="c" />
    <g
       id="b">
      <path
         d="M-15.5-41.55q-2.65-3.1-2.5-7.1-.15-5.3 5.35-9.8Q-7.15-63.5.5-64q7.6.5 13.05 5.55 5.45 4.5 5.45 9.8 0 4-2.6 7.1h.1-.05l-2.6 3.1v.8l-.2-.95-.8.05.65 9.65h.15l.25.75.2.5.2.4-.15.45-.3.75-.2.35-.9.7h-.05l-.05 1.5h.05l-.05.5h-.05l-.35 4.2-1.05 4.1-1.65 4v.05H8.4v5.2Q8.35-4.1 7.6-3.2q-.65.75-1.7.75-1 0-1.7-.75-.8-.9-.8-2.25v-5.2H2.1v-1.2h-.3V-12l-.9-1.55h-2.45l-1.55 1.7v1.2h-1.2v5.2q-.05 1.35-.8 2.25-.7.75-1.7.75t-1.75-.75q-.75-.9-.75-2.25v-5.2h-1.2L-12.1-13l.1-.1q-1.8-1.9-2.15-4.15l-.1-1.2.05-.95.55-1.85h.1v-.55l.15-.15V-24q.75.6 1.55.55l.25-.05q1.9.5 3-.85.4.2.2-.15 1-.75 1.25-2.4-.05-.7-.45-2l.45-6.3-1.35-.1-.5 6.45.15.05v.05h.05l.4 1.4q.15 1.45-.95 1.9-.55.9-2.1.6h-.5q-.6-.2-1.3-.85l-.2-.35-.25-.75-.15-.45.15-.4.25-.5.25-.75h.1l.7-9.65-.85-.05-.4-.05v-.15l-2.05-2.75h.2m1.75 19.65l-.05-.1.05.1m3.65-6.55h.05l-.05-.05v.05"
         fill="#fff"
         fill-rule="evenodd"
         transform="translate(18.6 64.6)"
         id="path3552" />
      <path
         d="M13.85-37.65l.8 5.6.05-.05v.1l.2 2.65v.35h-.1v.1q.25.7.6 1.1-.05.25.15.3.3 1.6-.6 2.45l-.15.2q-.15-.05-.2.1l-.25.25-.55.5q-.55.4-1.1.5h-.05l.05-1.5h.05l.9-.7.2-.35.3-.75.15-.45-.2-.4-.2-.5-.25-.75h-.15l-.65-9.65.8-.05.2.95m-4.3 27v5.2q0 1.95-1 3.1Q7.45-1.1 5.9-1.1q-1.5 0-2.65-1.25-1.05-1.15-1-3.1v-5.2H3.4v5.2q0 1.35.8 2.25.7.75 1.7.75 1.05 0 1.7-.75.75-.9.8-2.25v-5.2h1.15m-12.7 0v5.2q0 1.95-1.05 3.1Q-5.3-1.1-6.8-1.1t-2.65-1.25q-1.05-1.15-1.05-3.1v-5.2h1.2v5.2q0 1.35.75 2.25.75.75 1.75.75t1.7-.75q.75-.9.8-2.25v-5.2h1.15M-13.4-24l-.55-.5-.2-.25-.2-.1-.2-.2q-.9-.85-.55-2.45.15-.05.15-.3l.55-1.1.05-.1h-.1l-.05-.35h.05l.2-2.65v-.1l.05.05.95-6.55.85.05-.7 9.65h-.1l-.25.75-.25.5-.15.4.15.45.25.75.2.35q.7.65 1.3.85h.5q1.55.3 2.1-.6 1.1-.45.95-1.9l-.4-1.4h-.05v-.05l-.15-.05.5-6.45 1.35.1-.45 6.3q.4 1.3.45 2-.25 1.65-1.25 2.4.2.35-.2.15-1.1 1.35-3 .85l-.25.05q-.8.05-1.55-.55"
         fill-rule="evenodd"
         transform="translate(18.6 64.6)"
         id="path3554" />
      <path
         d="M3.1 23.05q-2.65-3.1-2.5-7.1-.15-5.3 5.35-9.8Q11.45 1.1 19.1.6q7.6.5 13.05 5.55 5.45 4.5 5.45 9.8 0 4-2.6 7.1"
         fill="none"
         stroke="#000"
         stroke-linecap="round"
         stroke-linejoin="round"
         stroke-width="1.2"
         id="path3556" />
      <path
         d="M5.4-44.05q.15.45.45.75l.7.25.95-.6q.4-.65.4-1.65 0-1.35-.9-3.25h1.05q.9 1.6.9 3.15 0 1.55-.65 2.4-.6.8-1.6.8-1.35 0-1.9-1.4-.6 1.4-1.9 1.4-1.05 0-1.65-.85Q.6-43.9.6-45.4q0-1.55.95-3.15h1q-.85 1.9-.85 3.25 0 1 .35 1.65.4.6.95.6.4 0 .7-.3l.45-.7.1-1.15V-47H5.3v1.8l.1 1.15"
         fill-rule="evenodd"
         transform="translate(18.6 64.6)"
         id="path3558" />
    </g>
  </defs>
  <g
     style="clip-rule:evenodd;fill-rule:evenodd;stroke-linecap:round;stroke-linejoin:round;stroke-miterlimit:1.5"
     id="g4430"
     transform="translate(1.6342847,-0.73100001)">
    <g
       transform="matrix(-2,0,0,2,81.8319,144.2)"
       id="g4390">
        <g
   transform="matrix(-0.5,0,0,0.5,40.9159,-72.1)"
   id="g4335">
            <path
   d="m 70.763,13.311 -26.688,26.112 -4.544,7.232 -1.088,5.504 0.64,2.944 1.088,2.496 4.224,4.864 8.64,7.104 c 0,0 -0.32,46.144 12.736,55.616 l 0.704,11.584 2.56,3.264 2.88,1.536 4.736,-1.92 1.984,-6.336 -0.384,-8.064 c 0,0 2.24,-5.376 8.064,-7.168 0,0 28.8,0.768 27.52,-21.888 0,0 0.384,-15.104 0.704,-27.968 0,0 13.184,-6.016 10.816,-20.48 l -3.84,-8.704 -26.816,-25.6 -6.528,0.32 -12.032,0.768 z"
   style="fill:#ffffff"
   id="path4333" />

        </g>

        <g
   id="Head"
   transform="matrix(-1,0,0,1,-0.254561,0)">
            <g
   transform="matrix(0.5,0,0,0.5,-41.1705,-72.1)"
   id="g4339">
                <rect
   x="71.850998"
   y="13.695"
   width="20.736"
   height="21.056"
   style="stroke:#000000;stroke-width:2.52px"
   id="rect4337" />

            </g>

            <g
   transform="matrix(0.5,0,0,0.5,-41.1705,-72.1)"
   id="g4343">
                <path
   d="m 121.008,39.103 c 0,0 10.752,13.568 -0.192,22.72"
   style="fill:none;stroke:#000000;stroke-width:2.52px"
   id="path4341" />

            </g>

            <g
   transform="matrix(0.5,0,0,0.5,-41.1705,-72.1)"
   id="g4347">
                <path
   d="m 94.896,13.183 22.72,22.4"
   style="fill:none;stroke:#000000;stroke-width:2.52px"
   id="path4345" />

            </g>

            <g
   transform="matrix(0.5,0,0,0.5,-41.1705,-72.1)"
   id="g4351">
                <path
   d="m 44.336,38.527 c 0,0 -12.608,14.272 0.064,23.744"
   style="fill:none;stroke:#000000;stroke-width:2.52px"
   id="path4349" />

            </g>

            <g
   transform="matrix(0.5,0,0,0.5,-41.1705,-72.1)"
   id="g4355">
                <path
   d="M 70.96,12.991 48.176,36.159"
   style="fill:none;stroke:#000000;stroke-width:2.52px"
   id="path4353" />

            </g>

        </g>

        <g
   transform="matrix(-0.5,0,0,0.5,40.9159,-72.1)"
   id="g4360">
            <path
   d="m 66.987,47.103 12.864,0.512"
   style="fill:none;stroke:#000000;stroke-width:2.52px"
   id="path4358" />

        </g>

        <g
   transform="matrix(-0.5,0,0,0.5,40.9159,-72.1)"
   id="g4364">
            <path
   d="m 67.051,42.367 -0.32,4.928 6.976,11.648 6.464,-11.392 -0.128,-5.184"
   style="fill:none;stroke:#000000;stroke-width:2.52px"
   id="path4362" />

        </g>

        <g
   transform="matrix(-0.5,0,0,0.5,40.9159,-72.1)"
   id="g4368">
            <path
   d="m 88.683,39.743 c 0,0 3.84,-0.896 3.648,3.584"
   style="fill:none;stroke:#000000;stroke-width:2.52px"
   id="path4366" />

        </g>

        <g
   transform="matrix(-0.5,0,0,0.5,40.9159,-72.1)"
   id="g4372">
            <path
   d="m 58.027,38.847 c 0,0 -4.416,-0.96 -3.84,3.072"
   style="fill:none;stroke:#000000;stroke-width:2.52px"
   id="path4370" />

        </g>

        <g
   transform="matrix(-0.5,0,0,0.5,40.9159,-72.1)"
   id="g4376">
            <path
   d="m 65.771,124.735 c 0,0 -2.176,16.448 6.336,16.576 0,0 8.32,1.344 5.888,-16.768"
   style="fill:none;stroke:#000000;stroke-width:2.52px"
   id="path4374" />

        </g>

        <g
   transform="matrix(-0.5,0,0,0.5,40.9159,-72.1)"
   id="g4380">
            <path
   d="m 85.739,105.215 c 0,0 -16.512,-1.216 -16.32,6.912 0,0 0.64,8.32 16.64,5.056"
   style="fill:none;stroke:#000000;stroke-width:2.52px"
   id="path4378" />

        </g>

        <g
   transform="matrix(-0.5,0,0,0.5,40.9159,-72.1)"
   id="g4384">
            <path
   d="m 100.075,69.119 c 0,0 -2.56,-17.088 5.76,-16.832 0,0 7.808,-1.536 6.72,16.768"
   style="fill:none;stroke:#000000;stroke-width:2.52px"
   id="path4382" />

        </g>

        <g
   transform="matrix(-0.5,0,0,0.5,40.9159,-72.1)"
   id="g4388">
            <path
   d="m 57.259,75.327 c 0,0 17.728,-3.008 17.024,6.08 0,0 1.536,8 -17.024,5.888"
   style="fill:none;stroke:#000000;stroke-width:2.52px"
   id="path4386" />

        </g>

    </g>
  </g>
</svg>
