<svg xmlns="http://www.w3.org/2000/svg" xmlns:xlink="http://www.w3.org/1999/xlink" height="55.9" width="79.95"><path d="M-37.5-32.4h-.05l.05-.05v.05" fill="url(#a)" fill-rule="evenodd" transform="translate(38.05 45.9)"/><path d="M-37.5-32.45v.05-.05" fill="url(#b)" fill-rule="evenodd" transform="translate(38.05 45.9)"/><path d="M28.2-25.5 2.3-12.45-37.5-32.4v-.05l25.9-12.95 8.5 4.25.35.2 1.05.5L28.2-25.5" fill="url(#c)" fill-rule="evenodd" transform="translate(38.05 45.9)"/><path d="m28.4-20.45-.2-5.05-29.9-14.95-.5-.25 3.55-1.85L41.3-22l-12.9 6.5v-4.95" fill="url(#d)" fill-rule="evenodd" transform="translate(38.05 45.9)"/><path d="M28.4-10.5v-5L41.3-22l.1 5-13 6.5" fill="url(#e)" fill-rule="evenodd" transform="translate(38.05 45.9)"/><path d="M2.4-7.5v-.6l-.05-3.3-.05-1.05L28.2-25.5l.2 5.05-5 2.5L2.4-7.5" fill="url(#f)" fill-rule="evenodd" transform="translate(38.05 45.9)"/><path d="m23.4-17.95 5-2.5V7l-.65.35L23.4 9.5v-27.45" fill="url(#g)" fill-rule="evenodd" transform="translate(38.05 45.9)"/><path d="m2.3-12.45.05 1.05.05 3.3v.6l-.15.1-18.85-9.45-20.95-10.55.05-5L2.3-12.45" fill="url(#h)" fill-rule="evenodd" transform="translate(38.05 45.9)"/><path d="m40.45 38.4 21-10.45v27.4l-39.7-19.8-.3-.15v-6.35L40.3 38.5l.15-.1" fill="#333" fill-rule="evenodd"/><path d="m40.35 33.45.05 1.05.05 3.3v.6l21-10.45 5-2.5-.2-5.05-25.9 13.05L.55 13.5l-.05 5 20.95 10.55L40.3 38.5l.15-.1m21 16.95v-27.4m4.35 25.3.65-.35V25.45m0 9.95 13-6.5-.1-5-12.9 6.5M39.4 3.35 35.85 5.2l.5.25 29.9 14.95m-4.8 34.95v.05l4.35-2.15m-44.05-17.7-.3-.15v-6.35M35.3 4.95l-.35-.2L26.45.5.55 13.45m0 .05H.5l.05-.05m34.75-8.5.55.25m-14.1 30.35 39.7 19.8m17.9-31.45L39.4 3.35" fill="none" stroke="#2f0202" stroke-linecap="round" stroke-linejoin="round"/><defs><radialGradient cx="0" cy="0" gradientTransform="matrix(-.0232 0 0 .0211 -5.7 -29.45)" gradientUnits="userSpaceOnUse" id="i" r="819.2" spreadMethod="pad"><stop offset="0" stop-color="#2f0202"/><stop offset="0" stop-color="#6b0303"/><stop offset="0" stop-color="#2f0202"/><stop offset="0" stop-color="#600202"/><stop offset="1" stop-color="#400000"/></radialGradient><radialGradient cx="0" cy="0" gradientTransform="matrix(-.0232 0 0 .0211 -5.7 -29.45)" gradientUnits="userSpaceOnUse" id="j" r="819.2" spreadMethod="pad"><stop offset="0" stop-color="#00f"/><stop offset="1"/></radialGradient><radialGradient cx="0" cy="0" gradientTransform="matrix(-.0232 0 0 .0211 -5.7 -29.45)" gradientUnits="userSpaceOnUse" id="k" r="819.2" spreadMethod="pad"><stop offset="0" stop-color="#fff"/><stop offset="1"/></radialGradient><radialGradient cx="0" cy="0" gradientTransform="translate(31.5 -23) scale(.0464)" gradientUnits="userSpaceOnUse" id="l" r="819.2" spreadMethod="pad"><stop offset="0" stop-color="#fff"/><stop offset="1"/></radialGradient><radialGradient cx="0" cy="0" gradientTransform="translate(33.75 -16.75) scale(.0112)" gradientUnits="userSpaceOnUse" id="m" r="819.2" spreadMethod="pad"><stop offset="0" stop-color="#fff"/><stop offset="1"/></radialGradient><radialGradient cx="0" cy="0" gradientTransform="translate(24.25 -21) scale(.0314)" gradientUnits="userSpaceOnUse" id="n" r="819.2" spreadMethod="pad"><stop offset="0" stop-color="#fff"/><stop offset="1"/></radialGradient><radialGradient cx="0" cy="0" gradientTransform="translate(27 -14.75) scale(.0299)" gradientUnits="userSpaceOnUse" id="o" r="819.2" spreadMethod="pad"><stop offset="0" stop-color="#fff"/><stop offset="1"/></radialGradient><radialGradient cx="0" cy="0" gradientTransform="translate(-17.5 -19.5) scale(.0291)" gradientUnits="userSpaceOnUse" id="p" r="819.2" spreadMethod="pad"><stop offset="0" stop-color="#fff"/><stop offset="1"/></radialGradient><radialGradient xlink:href="#i" id="a" gradientUnits="userSpaceOnUse" gradientTransform="matrix(-.0232 0 0 .0211 -5.7 -29.45)" cx="0" cy="0" r="819.2" spreadMethod="pad"/><radialGradient xlink:href="#j" id="b" gradientUnits="userSpaceOnUse" gradientTransform="matrix(-.0232 0 0 .0211 -5.7 -29.45)" cx="0" cy="0" r="819.2" spreadMethod="pad"/><radialGradient xlink:href="#k" id="c" gradientUnits="userSpaceOnUse" gradientTransform="matrix(-.0232 0 0 .0211 -5.7 -29.45)" cx="0" cy="0" r="819.2" spreadMethod="pad"/><radialGradient xlink:href="#l" id="d" gradientUnits="userSpaceOnUse" gradientTransform="translate(31.5 -23) scale(.0464)" cx="0" cy="0" r="819.2" spreadMethod="pad"/><radialGradient xlink:href="#m" id="e" gradientUnits="userSpaceOnUse" gradientTransform="translate(33.75 -16.75) scale(.0112)" cx="0" cy="0" r="819.2" spreadMethod="pad"/><radialGradient xlink:href="#n" id="f" gradientUnits="userSpaceOnUse" gradientTransform="translate(24.25 -21) scale(.0314)" cx="0" cy="0" r="819.2" spreadMethod="pad"/><radialGradient xlink:href="#o" id="g" gradientUnits="userSpaceOnUse" gradientTransform="translate(27 -14.75) scale(.0299)" cx="0" cy="0" r="819.2" spreadMethod="pad"/><radialGradient xlink:href="#p" id="h" gradientUnits="userSpaceOnUse" gradientTransform="translate(-17.5 -19.5) scale(.0291)" cx="0" cy="0" r="819.2" spreadMethod="pad"/></defs></svg>