<svg xmlns="http://www.w3.org/2000/svg" xmlns:xlink="http://www.w3.org/1999/xlink" height="55.4" width="44.219"><path d="m25.77 22.45 1.25-.6-1.25.65v-.05" fill="#4f0404" fill-rule="evenodd"/><path d="M4.62 33.05 43.47 13.6l-16.45 8.25-1.25.6-.65.35.65-.35v.05l-.65.3-20.5 10.25m.1 4.75.1.15-.1.05v-.2" fill="#400000" fill-rule="evenodd"/><path d="m-.85-33.3-.05.2.05-.15v-.05" fill="url(#a)" fill-rule="evenodd" transform="translate(3.07 45.9)"/><path d="M40.4-32.3 1.55-12.85Q-1.9-18.7-1.9-25.8q0-3.65.9-6.95l.1-.35.05-.2.45-1.1.45-1.05q1-2.4 3.25-4.3l2.15-1.1 9.15-4.55 25.8 13.1" fill="url(#b)" fill-rule="evenodd" transform="translate(3.07 45.9)"/><path d="M23.95-24.05 40.4-32.3 40.65.55V.6l-18 8.4v-27.4l.05-5 1.25-.65" fill="url(#c)" fill-rule="evenodd" transform="translate(3.07 45.9)"/><path d="M-1-32.75q-.9 3.3-.9 6.95 0 7.1 3.45 12.95l.05 1.05.05 3.7q-3.7-5.85-4.15-13.2-.4-6.15 1.5-11.45" fill="url(#d)" fill-rule="evenodd" transform="translate(3.07 45.9)"/><path d="m1.55-12.85 20.5-10.25.65-.3-.05 5-6 3-14.9 7.45-.1-.15-.05-3.7-.05-1.05" fill="url(#e)" fill-rule="evenodd" transform="translate(3.07 45.9)"/><path d="m16.65-15.4 6-3V9l-6-3v-21.4" fill="url(#f)" fill-rule="evenodd" transform="translate(3.07 45.9)"/><path d="M43.47 13.6 17.67.5 8.52 5.05l-2.15 1.1m-1.75 26.9.05 1.05.05 3.7m.1.15 14.9-7.45 6-3m0 27.4-6-3V30.5m-14.9 7.45-.1.05v-.2m21 17.1V27.5" fill="none" stroke="#2f0202" stroke-linecap="round" stroke-linejoin="round"/><path d="m25.72 27.5.05-5v-.05" fill="none" stroke="#000" stroke-linecap="round" stroke-linejoin="round"/><path d="M6.37 6.15q-2.25 1.9-3.25 4.3l-.45 1.05-.45 1.1-.05.2-.1.35q-.9 3.3-.9 6.95 0 7.1 3.45 12.95m39.1 13.4v.05l-18 8.4m-21-17.1Q1.02 31.95.57 24.6q-.4-6.15 1.5-11.45l.1-.35.05-.15v-.05m41.25 1 .25 32.85" fill="none" stroke="#400000" stroke-linecap="round" stroke-linejoin="round"/><path d="m4.62 33.05 20.5-10.25.65-.35m1.25-.6 16.45-8.25m-17.7 8.9-.65.3m1.9-.95-1.25.65" fill="none" stroke="#000" stroke-linecap="round" stroke-linejoin="round"/><defs><radialGradient cx="0" cy="0" gradientTransform="matrix(-.0213 0 0 .0213 -1.35 -31.25)" gradientUnits="userSpaceOnUse" id="g" r="819.2" spreadMethod="pad"><stop offset="0" stop-color="#2f0202"/><stop offset="0" stop-color="#6b0303"/><stop offset="0" stop-color="#2f0202"/><stop offset="0" stop-color="#600202"/><stop offset="1" stop-color="#400000"/></radialGradient><radialGradient cx="0" cy="0" gradientTransform="matrix(-.0213 0 0 .0213 -1.35 -31.25)" gradientUnits="userSpaceOnUse" id="h" r="819.2" spreadMethod="pad"><stop offset="0" stop-color="#00f"/><stop offset="1"/></radialGradient><radialGradient cx="0" cy="0" gradientTransform="translate(31 -17) scale(.0333)" gradientUnits="userSpaceOnUse" id="i" r="819.2" spreadMethod="pad"><stop offset="0" stop-color="#00f"/><stop offset="1"/></radialGradient><radialGradient cx="0" cy="0" gradientTransform="translate(.5 -12.75) scale(.0245)" gradientUnits="userSpaceOnUse" id="j" r="819.2" spreadMethod="pad"><stop offset="0" stop-color="#00f"/><stop offset="1"/></radialGradient><radialGradient cx="0" cy="0" gradientTransform="translate(19 -18.25) scale(.0245)" gradientUnits="userSpaceOnUse" id="k" r="819.2" spreadMethod="pad"><stop offset="0" stop-color="#00f"/><stop offset="1"/></radialGradient><radialGradient cx="0" cy="0" gradientTransform="translate(19.25 -13.5) scale(.0278)" gradientUnits="userSpaceOnUse" id="l" r="819.2" spreadMethod="pad"><stop offset="0" stop-color="#00f"/><stop offset="1"/></radialGradient><radialGradient xlink:href="#g" id="a" gradientUnits="userSpaceOnUse" gradientTransform="matrix(-.0213 0 0 .0213 -1.35 -31.25)" cx="0" cy="0" r="819.2" spreadMethod="pad"/><radialGradient xlink:href="#h" id="b" gradientUnits="userSpaceOnUse" gradientTransform="matrix(-.0213 0 0 .0213 -1.35 -31.25)" cx="0" cy="0" r="819.2" spreadMethod="pad"/><radialGradient xlink:href="#i" id="c" gradientUnits="userSpaceOnUse" gradientTransform="translate(31 -17) scale(.0333)" cx="0" cy="0" r="819.2" spreadMethod="pad"/><radialGradient xlink:href="#j" id="d" gradientUnits="userSpaceOnUse" gradientTransform="translate(.5 -12.75) scale(.0245)" cx="0" cy="0" r="819.2" spreadMethod="pad"/><radialGradient xlink:href="#k" id="e" gradientUnits="userSpaceOnUse" gradientTransform="translate(19 -18.25) scale(.0245)" cx="0" cy="0" r="819.2" spreadMethod="pad"/><radialGradient xlink:href="#l" id="f" gradientUnits="userSpaceOnUse" gradientTransform="translate(19.25 -13.5) scale(.0278)" cx="0" cy="0" r="819.2" spreadMethod="pad"/></defs></svg>