<svg xmlns:xlink="http://www.w3.org/1999/xlink" height="53.3" width="61.55" xmlns="http://www.w3.org/2000/svg"><use height="102" transform="matrix(.528 0 0 .5222 .002 .018)" width="116.6" xlink:href="#a"/><defs><radialGradient cx="0" cy="0" gradientTransform="matrix(.0996 0 0 .1029 1.1 -74.85)" gradientUnits="userSpaceOnUse" id="c" r="819.2" spreadMethod="pad"><stop offset="0" stop-color="#fff"/><stop offset="1"/></radialGradient><radialGradient cx="0" cy="0" gradientTransform="matrix(.0233 0 0 .0241 -20.7 -82.65)" gradientUnits="userSpaceOnUse" id="d" r="819.2" spreadMethod="pad"><stop offset="0" stop-color="#fff"/><stop offset="1"/></radialGradient><use height="102" width="116.6" xlink:href="#b" id="a"/><g id="b"><path d="M-3.65-69.65v3.55q0 .35.6.55l.05.05 1.35.3 1.3-.3.1-.05q.55-.2.55-.55v-4.4l-.55-.6-1.4-.25-1.4.25-.45.25-4.55-2.35q1.4-.5 2.6-1.15 2.6-1.55 3.5-3.95l.3-1.15.05-.2v-.1l.05-.05.1-.7v-.95l-.25-.85q-.4-1.1-1.35-2.05-.9-1-2.4-1.85-3.05-1.7-7.1-2l-1.8-.1-1.8.1-1.85.2q-3 .45-5.3 1.8-2.75 1.55-3.45 3.55l-.2.9-.05.6v1.75q-.05 2.95 3.7 5.05 3.7 2.05 8.95 2.05l4.6-.5 6.1 3.15m26.95-6.9L2.65-65.9Q-7.7-60.55-18-55.25L-38.95-44.4l-41.1-21.5 4.65-2.4 4.25-2.2 3.3-1.65 2.45-1.3 10.1-5.2 4-2.1 14.55-7.45.6-.3L-18-97.9l41.3 21.35M-1.6-79.3l.05-.15-.05.15m-40.55-4.4-.05 2.35v.15l1.1.6 2.75 1.4 2.35-1.15v-2.7l-.1-.15-.15.05-3.25-1.7-2.65 1.1v.05m13.8-3.5-7.75 4 7.75-4m-1.75 15.05-.2-.15-.1-.05-.2-.05-.65-.35-3.15-1.6-.05-.05-4.25-2.15-6.5 3.35-7.35 3.8-6.8 3.5 4.4 2.3 4.35 2.2 4.35 2.25 7.55 3.9L-18-65.9l-3.55-1.85-.8-.4-3.45-1.75v-.15l-4.3-2.1m-18.9-4.4 7.9-4.05-7.9 4.05m-4.6 18.95.25.1v2.1l2.3 1.15 2-1 1.85-.95v-.2l-.05-2.2h-.05l-2.65-1.3-3.4 1.85-.25.45-16.1-8.3 16.1 8.3" fill="url(#c)" fill-rule="evenodd" transform="translate(92.8 98.4)"/><path d="m-3.5-70.85.45-.25 1.4-.25 1.4.25.55.6v4.4q0 .35-.55.55l-.1.05-1.3.3-1.35-.3-.05-.05q-.6-.2-.6-.55v-4.4l.15-.35m3.8.35q0 .35-.55.6l-1.4.25-1.4-.25q-.6-.25-.6-.6 0 .35.6.6l1.4.25 1.4-.25q.55-.25.55-.6m-21.5-8.7 1-1.15 2.3 1.15.8 1.35-.8.9.8-.9 6.75 3.4 2.3 1.25-1.7.4-2.7-1.3-5.45-2.8v-.05l-.15-.05-1.6-.65-1.55-.55v-1l2.35 1.2.8 1-.8-1-2.35-1.2" fill="#ccc" fill-rule="evenodd" transform="translate(92.8 98.4)"/><path d="M23.3-76.55v41.6L12.5-29.4l-.05-.15q-1.2.35-1.65 1l-.05.05h-.1l-.2.1-7.75 4-.05-41.5L23.3-76.55M-38.95-44.4-18-55.25v41.5L-38.95-2.9v-41.5" fill="#333" fill-rule="evenodd" transform="translate(92.8 98.4)"/><path d="m2.65-65.9.05 41.5L-18-13.75v-41.5q10.3-5.3 20.65-10.65m-82.7 0 41.1 21.5v41.5l-41.1-21.6v-41.4" fill="#2c2c2c" fill-rule="evenodd" transform="translate(92.8 98.4)"/><path d="m-27-81.15.05-.6.2-.9q.7-2 3.45-3.55Q-21-87.55-18-88l1.85-.2 1.8-.1 1.8.1q4.05.3 7.1 2 1.5.85 2.4 1.85.7.8 1.05 1.7l.25.9v.85l-.05.7-.2.5q-.7 2-3.45 3.55-2.2 1.2-4.9 1.7l-6.75-3.4-.8-1.35-2.3-1.15-1 1.15v1l1.55.55 1.6.65.15.1 5.45 2.8-1.9.05q-5.25 0-8.95-2.1-3.15-1.75-3.65-4.05v-.15l-.05-.8m12.7-2.9-.15-.25-.5-.15-.5.15-.2.25v1.15l-1.35.4q-1 .45-1 1.1 0 .65 1 1.1.95.4 2.25.4l2.25-.4q.95-.45.95-1.1 0-.65-.95-1.1l-1.8-.45v-1.1m-5.35 7.7v-1.3 1.3" fill="url(#d)" fill-rule="evenodd" transform="translate(92.8 98.4)"/><path d="M-27-80.2v-.95l.05.8v.15H-27m23.95-4.15q.95.95 1.35 2.05l.25.85v.95l-.1.7-.05.05v.1l-.15-.35-.05-.2.05-.7v-.85l-.25-.9q-.35-.9-1.05-1.7m-11.25.3-.15.3-.5.15-.5-.15-.2-.3.2.3.5.15.5-.15.15-.3v2.3q0 .15-.15.25l-.05.05-.45.1-.45-.1-.05-.05-.2-.25v-1.15 1.15l.2.25.05.05.45.1.45-.1.05-.05q.15-.1.15-.25v-1.2l1.8.45q.95.45.95 1.1 0 .65-.95 1.1l-2.25.4q-1.3 0-2.25-.4-1-.45-1-1.1 0-.65 1-1.1l1.35-.4v-1.15l.2-.25.5-.15.5.15.15.25M-18.05-77l.15.05v.05l-.15-.1m16.45-2.3.05-.15-.05.15m-40.55-4.45 3.45 1.85.35.2v2.5-2.5l-.35-.2-3.45-1.85 2.65-1.1 3.25 1.7.2.15h.05v2.65l-2.35 1.15-2.75-1.4-1.1-.6v-.15l.05-2.35v-.05m3.8 2.05 2.3-1.3-2.3 1.3m11.35.95.05.4-.05-.4m-26.35 22.7 3.4-1.85 2.65 1.3h.05l.05 2.2v.2l-1.85.95-2 1-2.3-1.15v-2.65l2.3 1.3q1.85-.95 3.75-1.85-1.9.9-3.75 1.85l-2.3-1.3m2.3 1.3v2.5-2.5" fill="#fff" fill-rule="evenodd" transform="translate(92.8 98.4)"/><path d="m-9.75-72.8-4.6.5q-5.25 0-8.95-2.05-3.75-2.1-3.7-5.05v-.8h.05q.5 2.3 3.65 4.05 3.7 2.1 8.95 2.1l1.9-.05 2.7 1.3m8.1-6.65-.3 1.15q-.9 2.4-3.5 3.95-1.2.65-2.6 1.15l-2.3-1.25q2.7-.5 4.9-1.7Q-2.7-77.7-2-79.7l.2-.5.05.2.15.35-.05.2m-24.15 9.4v.15l3.45 1.75.8.4L-18-65.9l-20.7 10.65-7.55-3.9 6.45-3.35 7.4-3.9 6.6-3.65m4.8 3.8-4.95-2.55-17.75 9.55 4.9 2.5 17.8-9.5" fill="#666" fill-rule="evenodd" transform="translate(92.8 98.4)"/><path d="M-34.45-74.35h.05l3.15 1.6.65.35.2.05.1.05.2.15-6.35 3.6-.05-.05h-.05l-4.25-2.3 6.35-3.45-6.35 3.45 4.25 2.3h.05l.05.05 6.35-3.6 4.3 2.1-6.6 3.65-7.4 3.9-6.45 3.35-4.35-2.25-4.35-2.2-4.4-2.3 6.8-3.5 7.35-3.8 6.5-3.35 4.25 2.15v.05m-2.1 5.75-.2.05-7.15 3.75-1.35-.7-3.05-1.6 7.5-3.8-4.4-2.3 4.4 2.3-7.5 3.8 3.05 1.6 1.35.7 7.15-3.75.2-.05m.1.05 4.05 2.15-4.05-2.15m-3.35 6.05-.5-.3-2.05-1.25-.8-.35-.75-.4.75.4.8.35 2.05 1.25.5.3m3.3-6.1-.25.05.25-.05m-16.05-.8 4.2 2.3h.05l-6.65 3.5 6.65-3.5h-.05l-4.2-2.3m8.65 4.6-6.7 3.4 6.7-3.4" fill="#0f0" fill-rule="evenodd" transform="translate(92.8 98.4)"/><path d="m-21-66.25-17.8 9.5-4.9-2.5 17.75-9.55 4.95 2.55" fill="#06f" fill-rule="evenodd" transform="translate(92.8 98.4)"/><path d="m-38.35-2.35.2-.1-.15.1h-.05m-1.1-.25.05.1-13 6.1-40.4-21.95 12.5-5.8L-39.85-2.8v.05h.05l.05-.05.05.05.25.15m2.3-.3h-.05l.05-.05v.05" fill-opacity=".2" fill-rule="evenodd" transform="translate(92.8 98.4)"/><path d="m-3.5-70.85.45-.25 1.4-.25 1.4.25.55.6v4.4q0 .35-.55.55l-.1.05-1.3.3-1.35-.3-.05-.05q-.6-.2-.6-.55v-3.55l-6.1-3.15-4.6.5q-5.25 0-8.95-2.05-3.75-2.1-3.7-5.05v-1.75l.05-.6.2-.9q.7-2 3.45-3.55Q-21-87.55-18-88l1.85-.2 1.8-.1 1.8.1q4.05.3 7.1 2 1.5.85 2.4 1.85.95.95 1.35 2.05l.25.85v.95l-.1.7-.05.05v.1l-.05.2-.3 1.15q-.9 2.4-3.5 3.95-1.2.65-2.6 1.15l4.55 2.35-.15.35q0 .35.6.6l1.4.25 1.4-.25q.55-.25.55-.6m12.2 41.1 10.8-5.55v-41.6L2.65-65.9l.05 41.5 7.75-4 .2-.1m1.85-.9-1.7.85m-26.45-55.5.2.3.5.15.5-.15.15-.3-.15-.25-.5-.15-.5.15-.2.25v2.3l.2.25.05.05.45.1.45-.1.05-.05q.15-.1.15-.25v-2.3m-1.35 1.15-1.35.4q-1 .45-1 1.1 0 .65 1 1.1.95.4 2.25.4l2.25-.4q.95-.45.95-1.1 0-.65-.95-1.1l-1.8-.45m-2.8 5.1-.8-1.35-2.3-1.15-1 1.15 2.35 1.2.8 1 .15.1v-.05l.8-.9 6.75 3.4q2.7-.5 4.9-1.7Q-2.7-77.7-2-79.7l.2-.5.05-.7v-.85l-.25-.9q-.35-.9-1.05-1.7m-16.6 6.7v1.3m1.6-.65-1.6-.65-1.55-.55v-1m19.4-1 .05.2.15.35m0-.1.05-.05m24.85 3.25L-18-97.9l-18.15 9.4-.6.3-14.55 7.45-4 2.1-10.1 5.2-2.45 1.3-3.3 1.65-4.25 2.2-4.65 2.4 41.1 21.5L-18-55.25q10.3-5.3 20.65-10.65m-41-13.3v-2.5l-.35-.2-3.45-1.85v.05l-.05 2.35m0 .15 1.1.6 2.75 1.4 2.35-1.15m0-.15V-83h-.05l-2.3 1.3m2.25-1.5-.15.05.2.15.05-.05m-.1-.15 7.75-4M-36-83v-.05m-.25-.1-3.25-1.7-2.65 1.1v.05m7.75 9.35h-.05l-6.35 3.45 4.25 2.3h.05l.05.05 6.35-3.6-.2-.15-.1-.05-.2-.05-.65-.35-3.15-1.6-.05-.05-4.25-2.15-6.5 3.35 4.4 2.3-7.5 3.8 3.05 1.6 1.35.7 7.15-3.75.2-.05m9.6-11.6v-.15l-.05-.4m.05.4-.05-.8m14.55 7.05-1.9.05q-5.25 0-8.95-2.1-3.15-1.75-3.65-4.05m-19.3 21.05 7.55 3.9L-18-65.9l-3.55-1.85-.8-.4-3.45-1.75v-.15l-6.6 3.65-7.4 3.9-6.45 3.35-4.35-2.25-4.35-2.2-4.4-2.3 6.8-3.5 7.35-3.8m19.4 3.15-4.3-2.1m9.1 5.9-17.8 9.5-4.9-2.5 17.75-9.55 4.95 2.55m-15.75-2.3.25-.05m-7.4 3.8.75.4.8.35 2.05 1.25.5.3m7.4-3.9-4.05-2.15m32.8-1.1v-.85m-4.4-2.7-2.3-1.25m-2.1.35 2.7 1.3m-8.15-4.1 5.45 2.8m-28.65-6.5-7.9 4.05m-5.95 12.95 6.65-3.5h-.05l-4.2-2.3m-.8 11.9-.25-.1-16.1-8.3m16.35 7.85 3.4-1.85 2.65 1.3h.05l.05 2.2m0 .2-1.85.95-2 1-2.3-1.15m0-.15v-2.5l2.3 1.3q1.85-.95 3.75-1.85m-3.75 4.35v-2.5m.45-4.65 6.7-3.4m4.95 61.9v-41.5m0 41.5L-18-13.75v-41.5M-80.05-65.9v41.4l41.1 21.6M-18-13.75 2.7-24.4" fill="none" stroke="#000" stroke-linecap="round" stroke-linejoin="round" transform="translate(92.8 98.4)"/><path d="M11-66.15v-1m-6 4v-1m4 9v-6m-2 8v-6m-2 8v-6m6 3v-6m2 4v-6m6 3v-6m-2 8v-6m-2 5v-6m6 3v-6m0 30v-6m-10 1v-6m-4 7v-6m-2 8v-6m4 2v-6m-2 20v-6m-2 8v-6m6 3v-6m2 4v-6m-4 7v-6m10 2v-6m-2 8v-6m-2 5v-6m-2-4v-6m8 1v-6m-2 8v-6m-2 8v-6m-2 5v-6m-35 11.1v-6m0 18v-6m-6-3v-6m4 5v-6m-8-1v-1m-6 4v-1m0 13v-6m10 11v-6m2 7v-6m2 4v-6m-12 0v-6m10 2v-6m-8 8v-6m4 5v-6m-2 8v-6m4 26v-6m-8 11v-6m-2 8v-6m6 3v-6m2 4v-6m-4 7v-6m10 2v-6m-2 8v-6m4 2v-6m-14 2v-6m-2 8v-6m6 3v-6m2 4v-6m-4 7v-6" fill="none" stroke="#666" stroke-linecap="round" stroke-linejoin="round" transform="translate(92.8 98.4)"/></g></defs></svg>