<svg xmlns="http://www.w3.org/2000/svg" xmlns:xlink="http://www.w3.org/1999/xlink" height="182" width="160"><defs><g id="f" transform="translate(21.5 71)"><use height="71" transform="translate(-21.5 -71)" width="43.4" xlink:href="#a"/><use height="3" transform="translate(-3.8 -57.5)" width="21.55" xlink:href="#b"/></g><g id="a"><path d="M10.75-56.05v-.05H4.5v3.9l-.05 1.1L4-48.65l-1.05 2H2v3.3h1.35v-1.95h7.2v1.95h1.4v-3.3h-1.2v-9.4M.4-60h3.9l1.2.55 3.85-8.6 3.9 8.6L14.5-60l3.15 3.05 1.1 1.1-1.1-1.1 1.15 1.1h-.05l-.35.4.1.1q2.1 2.05 2.3 4.55l.05.6q0 1.65-.8 3.1l-.25.45-1.4 1.7.1.1-.3.3-3.25.9v4.7l-3.25.7-3.15.9.65 1.6L12.55-37l3-.6q1.55 0 2.15.6.8.8.8 2 0 1.1-.75 1.85-1.05 1.05-4.1 1.25l-1.25.05.35 1.5 1.5-.05-.05 2.75-1.5 1.25v8.75H8.15v1.55h6.6l1.15.4q.55.55.55 1.65 0 1.05-.55 1.6-.45.45-1.15.45h-6.6v.95H-1.6l-1.55 1.5V-3q0 .7-.45 1.15-.55.55-1.6.55-1.1 0-1.65-.55-.4-.45-.4-1.15v-6.55H-8.8l-1.7-1.1-1.75-3.9v-2.4h.15v-1.5l.45-.4.2-.15 1.15-1.4-1.25-1-.7.95.4-10.95 1.75-12.8.4.35.75-.7-1-1.1q-1.45-1.85-1.5-4v-.25l.05-.9q.35-2.3 2.45-4.25l-.75-.75.5-3.95.65.3 3.85-8.6 3.85 8.6L.4-60m5.45 8.85v-3.6h3.5v8.15H4.4l.05-.05.5-.9.9-3.55v-.05m-.35 13.2Q4.45-39 2.25-39l-4 .75-3.1.9.65 1.6L-.9-37l3-.6q1.55 0 2.15.6.8.8.8 2 0 1.1-.75 1.85Q3.25-32.1.25-31.9l-1.3.05.35 1.5q3.95-.05 5.9-1.55l.4-.35q1-1 1-2.85 0-1.8-1.1-2.85M-7.15-43.6l.75-1.55v-1.35h-1.5v1.45h.55l-.55 1.45h.75m3.65-2.9H-5v1.45h.55L-5-43.6h.75l.75-1.55v-1.35" fill="#fff" fill-rule="evenodd" transform="translate(21.5 71)"/><path d="M10.75-56.05v9.45h1.2v3.25h-1.4v-1.95h-7.2v1.95H2v-3.25h.95L4-48.65l.45-2.45.05-1.1v-3.85h6.25M.4-60l-1.25.55-3.85-8.6-3.85 8.6-.65-.3-.55-.25 5.05-11L.4-60m-10.1 4.2l.75.75q-2.1 1.95-2.45 4.25l-.05.9v.25q.05 2.15 1.5 4l1 1.1-.75.7-.4-.35-.6-.7-.75-1.05q-1.1-1.75-1.05-3.85l.05-1q.2-1.5 1-2.85l1.75-2.15m-2.55 35.35l.7-.95 1.25 1-1.15 1.4-.2.15-.45.4q-.7.45-1.6.45-.95 0-2.65-1.1-1.2-.65-1.9-.65-.9 0-1.3.55l-.15.2-.45.75-1.35-.75q.4-.95 1.2-1.65l.6-.45 1.35-.35q1.1 0 2.25.8 1.65.85 2.55.85.6 0 1.3-.65m3.45 10.9h1.55V-3q0 .7.4 1.15.55.55 1.65.55 1.05 0 1.6-.55.45-.45.45-1.15v-6.55h1.5v6.6q0 1.25-.8 2.05-.9.9-2.75.9Q-7.1 0-8-.9q-.8-.8-.8-2.05v-6.6m16.95-1.5V-12h6.6q.7 0 1.15-.45.55-.55.55-1.6 0-1.1-.55-1.65l-1.15-.4h-6.6v-1.55h6.65q1.25 0 2.05.8.9.9.9 2.8 0 1.85-.9 2.75l-.3.25q-.75.55-1.75.55H8.15v-.55m6.1-19.35l-1.5.05-.35-1.5 1.25-.05q3.05-.2 4.1-1.25.75-.75.75-1.85 0-1.2-.8-2-.6-.6-2.15-.6l-3 .6-3.35 1.25-.65-1.6 3.15-.9 3.25-.7.75-.05q2.2 0 3.25 1.05 1.1 1.05 1.1 2.85 0 1.85-1 2.85l-.4.35q-1.6 1.2-4.4 1.5m4.25-14.45l-.1-.1 1.4-1.7.25-.45q.8-1.45.8-3.1l-.05-.6q-.2-2.5-2.3-4.55l-.1-.1.35-.4h.05l.3-.35q2.55 2.35 2.75 5.4l.05.6q0 1.9-.9 3.55-.7 1.25-1.9 2.4l-.6-.6M14.5-60l-1.25.55-3.9-8.6-3.85 8.6L4.3-60l5.05-11 5.15 11m-8.65 8.85v.05l-.9 3.55-.5.9-.05.05h4.95v-8.15h-3.5v3.6m-.35 13.2q1.1 1.05 1.1 2.85 0 1.85-1 2.85l-.4.35q-1.95 1.5-5.9 1.55l-.35-1.5 1.3-.05q3-.2 4.05-1.25.75-.75.75-1.85 0-1.2-.8-2-.6-.6-2.15-.6l-3 .6-3.3 1.25-.65-1.6 3.1-.9 4-.75q2.2 0 3.25 1.05m-9-8.55v1.35l-.75 1.55H-5l.55-1.45H-5v-1.45h1.5m-3.65 2.9h-.75l.55-1.45h-.55v-1.45h1.5v1.35l-.75 1.55" fill-rule="evenodd" transform="translate(21.5 71)"/><path d="M4.3-60H.4m12.3 39.65v-6.05m6.05-29.45l-1.1-1.1" fill="none" stroke="#000" stroke-linecap="round" stroke-linejoin="round" transform="translate(21.5 71)"/></g><g id="b" transform="translate(.8)"><use height="3" transform="matrix(1.005 0 0 1 -.804 0)" width="4.65" xlink:href="#c"/><use height="3" transform="matrix(1.005 0 0 1 16.096 0)" width="4.65" xlink:href="#c"/></g><g id="e" fill-rule="evenodd"><path d="M10.4-5.2q-.8.15-1.45.6v-.05q.6-.5 1.45-.55" fill="#0ccb01" transform="translate(15.05 7.95)"/><path d="M.55-.5v-.05l.05-.3.45-.3.45-.4.55-.2.35-.15.1-.4-.15-.3-.4-.15q-.7.05-1.15.5l-.1.05-.25.25-.05.05-.15.15H.2q-.9.3-.55 1.2l.25.25.15.05-1.65 1.3-.05.05h.05q-1.15 1-1.85 3.25L-5.7 11.1q-.65 2.05-1.8 2.35-1.25.2-3.1-1.35l-.25-.25-.2-.1-.15-.25-1.7-2.2v-.05q-1.5-2.7-1.05-6.4.6-5.85 4.4-8.35Q-5.95-8-3.4-6l-.05-.05.35.3.2.05.15.2q2.05 1.55 4.8 1.95L8.2-3.8q-.3.45-.3 1 0 1.05 1.05 1.75H8.9L6.3-.5l-1.75.35-.1-1.65-.1-.3-.3-.15-.3.05L.55-.5M9.5-3.75v-.05l1.6-.45 1.35.35.1.05.15.05.05.05.55.85v.1q0 .55-.55.95l-.3.2-.35.15-.4.15.05-.05-.65.05q-.5 0-1.05-.35l-.25-.1-.2.05-.05-.05-.05-.05q-.6-.4-.6-.95 0-.45.4-.75l.1-.1.1-.1m4.8 1.2l2.5-.55 2.5-.65.1-.05.3-.05 2.2-.05v.05q-.1.15.1.45l.05.1v.25L22-3q-.2 1.25-.85 1.6h.05l-.4.1v-.05l-.4.1h-1l-2.65-.1-.4.2-.1.15-.25.6-.05.15-.3 1.95q-1.05-1.85-2.2-2.85.75-.6.85-1.4m5.1-.35l-.3.25-.1.35.25.35q.3.2.95.45l.35-.05.3-.25-.05-.4-.25-.25-.75-.35-.4-.1m-24.5-.35l.4.05.3-.25q.1-.2.05-.35l-.25-.3-2.65-.1q-1.7.7-2.65 2.4v.05q-1 1.95.65 3.45L-7.1 3l-.05-.05 1.6.2.25-.05.15-.15q1-1.45 1.1-2.8V.1L-4-.15l-.05-.25-.7-.9-.65-.7-.3-.15-.85-.1-.3.1-.55.45-.3.45-.05.25.1.25.25.4.35.2.35-.1.2-.3-.1-.4-.05-.1.05-.05.15-.1.5.05.45.5.45.6V.1q-.1 1-.75 2.05l-.95-.1Q-7.8 1.65-8.6.95-9.7 0-9-1.3q.75-1.4 2.15-2l1.75.05m-2.6 8.7q-1.6-.9-3 .45l-.1.15-.05.2.05 1.15.15.35.35.15.35-.15.15-.35-.05-.95 1.7-.1h.05l.6.35.05.05.6.45q-.25 1.2-.9 2.05l-1.65.85q-1.6-.3-2.15-1.8l-.85-3.15-.2-.3-.4-.1-.3.25-.1.35.9 3.3q.8 2.1 3.1 2.45l.3-.05 1.9-.95.15-.1q1-1.2 1.2-2.95v-.2l-.15-.2-.9-.75q-.4-.25-.75-.4l-.05-.05" fill="#12a001" transform="translate(15.05 7.95)"/><path d="M-1.6 1.1h-.05l.05-.05v.05M23-2.8v-.05.05" transform="translate(15.05 7.95)"/><path d="M.55-.5l3.2-1.7.3-.05.3.15.1.3.1 1.65L6.3-.5l2.6-.55h.05Q7.9-1.75 7.9-2.8q0-.55.3-1l-6.15.25q-2.75-.4-4.8-1.95l-.15-.2-.2-.05-.35-.3.05.05q-2.55-2-6.15.5-3.8 2.5-4.4 8.35-.45 3.7 1.05 6.4v.05l1.7 2.2.15.25.2.1.25.25q1.85 1.55 3.1 1.35 1.15-.3 1.8-2.35l2.25-6.75q.7-2.25 1.85-3.25v-.05L.05-.25H.3L.55-.5m9.85-4.7l.7-.05 1.75.45.45.2q.65.45.9 1.05l2.35-.5 2.4-.65.3-.1q2.2-1.45 3.85.7l.1.35-.15.35v.15L23-2.8q-.35 1.95-1.5 2.35h-.05l-.4.1H21l-.4.1H20l-.85-.05-.25-.1-1.7-.05-.1.05-.15.35-.6 3.4-.15.25-.3.15-.3-.05-.2-.25q-1.3-2.85-2.85-4h-.05l-.15.05-.4.1h-.05l-.8.05-.95-.15-.45.25-.05.05L6.5.5 4.2.95h-.25L3.7.75 3.6.5 3.5-.95.65.6l-1.6 1.25q-1 .85-1.55 2.8l-2.25 6.75q-.9 2.7-2.55 3.05-1.65.35-3.95-1.6l-.05-.05-.25-.25-.1-.2-.25-.15-1.9-2.45q-1.6-3-1.15-7 .7-6.35 4.85-9.1 4.25-2.95 7.35-.45v.05l.2.15.2.2.2.1Q-.3-4.95 2.2-4.55l6.2-.35.4.1.15.15v.05q.65-.45 1.45-.6m3.9 2.65q-.1.8-.85 1.4 1.15 1 2.2 2.85l.3-1.95L16-.4l.25-.6.1-.15.4-.2 2.65.1h1l.4-.1v.05l.4-.1h-.05q.65-.35.85-1.6l.05-.05v-.25L22-3.4q-.2-.3-.1-.45v-.05l-2.2.05-.3.05-.1.05-2.5.65-2.5.55m-4.8-1.2l-.1.1-.1.1q-.4.3-.4.75 0 .55.6.95l.05.05.05.05.2-.05.25.1q.55.35 1.05.35l.65-.05-.05.05.4-.15.35-.15.3-.2q.55-.4.55-.95v-.1l-.55-.85-.05-.05-.15-.05-.1-.05-1.35-.35-1.6.45v.05" fill="#167801" transform="translate(15.05 7.95)"/><path d="M.05-.25L-.1-.3l-.25-.25q-.35-.9.55-1.2h.05L.4-1.9l.05-.05.25-.25.1-.05q.45-.45 1.15-.5l.4.15.15.3-.1.4-.35.15-.55.2-.45.4-.45.3-.05.3v.05L.3-.25H.05M19.4-2.9l.4.1.75.35.25.25.05.4-.3.25-.35.05q-.65-.25-.95-.45L19-2.3l.1-.35.3-.25m-24.5-.35l-1.75-.05q-1.4.6-2.15 2-.7 1.3.4 2.25.8.7 1.85 1.1l.95.1q.65-1.05.75-2.05v-.15l-.45-.6-.45-.5-.5-.05-.15.1-.05.05.05.1.1.4-.2.3-.35.1-.35-.2-.25-.4-.1-.25.05-.25.3-.45.55-.45.3-.1.85.1.3.15.65.7.7.9.05.25-.05.25v.05q-.1 1.35-1.1 2.8l-.15.15-.25.05-1.6-.2.05.05-2.15-1.3Q-10.9.2-9.9-1.75v-.05q.95-1.7 2.65-2.4l2.65.1.25.3q.05.15-.05.35l-.3.25-.4-.05m-2.6 8.7l.05.05q.35.15.75.4l.9.75.15.2v.2q-.2 1.75-1.2 2.95l-.15.1-1.9.95-.3.05q-2.3-.35-3.1-2.45l-.9-3.3.1-.35.3-.25.4.1.2.3.85 3.15q.55 1.5 2.15 1.8l1.65-.85q.65-.85.9-2.05l-.6-.45-.05-.05-.6-.35h-.05l-1.7.1.05.95-.15.35-.35.15-.35-.15-.15-.35-.05-1.15.05-.2.1-.15q1.4-1.35 3-.45" fill="#bfd3b8" transform="translate(15.05 7.95)"/></g><use height="3" transform="translate(.8)" width="3" xlink:href="#d" id="c"/><use height="22.45" width="38.25" xlink:href="#e" id="g"/><path d="M1.35 0h.2l.55.1.45.35q.45.45.45 1L2.55 2.6q-.45.4-1 .4l-.8-.2-.25-.2-.45-.7v-.15L0 1.45v-.1q.05-.5.5-.9l.25-.2Q1 .05 1.3 0h.05m.45.85L1.55.8Q1.2.75 1 1q-.2.15-.2.45v.15l.15.45H1l.05.05.2.1.3.05.55-.2.15-.6-.05-.3L2.1 1 2.05.95 1.9.85h-.1" fill-rule="evenodd" id="d"/></defs><g transform="matrix(2 0 0 2 79.341 142)"><use height="71" transform="translate(-21.5 -71)" width="43.4" xlink:href="#f"/><use height="22.45" transform="translate(-21.5 -45.45)" width="38.25" xlink:href="#g"/></g></svg>