<svg xmlns="http://www.w3.org/2000/svg" xmlns:xlink="http://www.w3.org/1999/xlink" height="180.525" width="160.999"><path d="M80.5.025l80 40v100l-80 40-80-40v-100z" fill="#aaa" fill-rule="evenodd"/><path style="line-height:normal;font-variant-ligatures:normal;font-variant-position:normal;font-variant-caps:normal;font-variant-numeric:normal;font-variant-alternates:normal;font-variant-east-asian:normal;font-feature-settings:normal;font-variation-settings:normal;text-indent:0;text-align:start;text-decoration-line:none;text-decoration-style:solid;text-decoration-color:#000;text-transform:none;text-orientation:mixed;white-space:normal;shape-padding:0;shape-margin:0;inline-size:0;isolation:auto;mix-blend-mode:normal;solid-color:#000;solid-opacity:1" d="M80.493 99.525a.5.5 0 00-.217.053l-80 40a.5.5 0 000 .894l80 40a.5.5 0 00.446 0l80-40 .004-.002.007-.004.012-.006a.535.535 0 00.04-.025l.036-.028.01-.008a.486.486 0 00.033-.033l.008-.01a.5.5 0 00.12-.25l.001-.004v-.004a.483.483 0 00.004-.045l.002-.011a.499.499 0 00-.033-.198l-.004-.008a.562.562 0 00-.08-.134l-.008-.01a.486.486 0 00-.033-.034l-.01-.008a.495.495 0 00-.086-.062l-.012-.006-.011-.006-80-40a.5.5 0 00-.229-.053zm.006 1.059l78.883 39.441-78.883 39.441-78.883-39.441z" color="#000" font-weight="400" font-family="sans-serif" overflow="visible"/><use height="180" transform="translate(.5 .025)" width="160" xlink:href="#sprite9"/><defs id="defs29202"><g id="sprite9" transform="translate(80 140)"><use height="180" transform="translate(-80 -140)" width="160" xlink:href="#shape20" id="use29168" x="0" y="0"/></g><g id="shape20" transform="translate(80 140)"><path d="M80-100V0L0 40V-60l80-40m-160 0l80-40v80l-80-40" fill="#aaa" fill-rule="evenodd" stroke="none" id="path29171"/><path d="M0-140l80 40L0-60v-80M0 40L-80 0v-100L0-60V40" fill="#d4d4d4" fill-rule="evenodd" stroke="none" id="path29173"/><path d="M0-140l80 40V0L0 40-80 0v-100l80-40v80l80-40M0-60V40m-80-140L0-60" fill="none" stroke="#000" stroke-linecap="round" stroke-linejoin="round" stroke-width=".05" id="path29175"/></g></defs></svg>