<svg height="182" width="160" xmlns:xlink="http://www.w3.org/1999/xlink" xmlns="http://www.w3.org/2000/svg"><defs><path d="m2-1.7-2 2 1.85 1.8M0 .3V.25v2.5M0 .3l-1.85 1.8M-2-1.7 0 .25V-2.7" fill="none" stroke="#fea5c0" stroke-linecap="round" stroke-linejoin="round" transform="translate(2.5 3.2)" id="a"/><use height="6.45" width="5" xlink:href="#a" id="b"/></defs><g transform="matrix(2 0 0 2 79.441 142)"><path d="m4.25-60 1.2.55 3.85-8.6 3.9 8.6 1.25-.55 3.15 3.05 1.1 1.1-.35.4.1.1c1.4 1.367 2.167 2.883 2.3 4.55l.05.6c0 1.1-.267 2.133-.8 3.1l-.25.45-1.4 1.7.1.1-.3.3-3.25.9v4.7l-3.25.7-3.15.9.65 1.6L12.5-37c1.133-.4 2.133-.6 3-.6 1.033 0 1.75.2 2.15.6.533.533.8 1.2.8 2 0 .733-.25 1.35-.75 1.85-.7.7-2.067 1.117-4.1 1.25l-1.25.05.35 1.5 1.5-.05-.05 2.75-1.5 1.25v6.75H8.1v1.55h6.6c.467 0 .85.133 1.15.4.367.367.55.917.55 1.65 0 .7-.183 1.233-.55 1.6-.3.3-.683.45-1.15.45H8.1v.95H.5l-3.55 3.5V-3c0 .467-.15.85-.45 1.15-.367.367-.9.55-1.6.55-.733 0-1.283-.183-1.65-.55-.267-.3-.4-.683-.4-1.15v-6.55H-8.7l-1.7-1.1-1.75-3.9v-3.9l.45-.4c.5-.4.95-.917 1.35-1.55l-1.25-1-.7.95.4-10.95 1.75-12.8.4.35.75-.7-1-1.1c-1-1.267-1.5-2.65-1.5-4.15l.05-1c.233-1.533 1.05-2.95 2.45-4.25l-.75-.75.5-3.95.65.3 3.85-8.6 3.85 8.6L.35-60h3.9" fill="#fff" fill-rule="evenodd"/><path d="m14.45-60-1.25.55-3.9-8.6-3.85 8.6-1.2-.55L9.3-71l5.15 11M.35-60l-1.25.55-3.85-8.6-3.85 8.6-.65-.3-.55-.25 5.05-11 5.1 11m-10.1 4.2.75.75c-1.4 1.3-2.217 2.717-2.45 4.25l-.05 1c0 1.5.5 2.883 1.5 4.15l1 1.1-.75.7-.4-.35-.6-.7c-1.2-1.467-1.8-3.1-1.8-4.9l.05-1c.233-1.867 1.15-3.533 2.75-5m-2.55 35.35.7-.95 1.25 1c-.4.633-.85 1.15-1.35 1.55l-.45.4c-.467.3-1 .45-1.6.45-.633 0-1.517-.367-2.65-1.1l-1.9-.65c-.6 0-1.033.183-1.3.55l-.6.95-1.35-.75 1.2-1.65a2.654 2.654 0 0 1 1.95-.8c.733 0 1.483.267 2.25.8 1.1.567 1.95.85 2.55.85.433 0 .867-.217 1.3-.65m3.6 10.9h1.55V-3c0 .467.133.85.4 1.15.367.367.917.55 1.65.55.7 0 1.233-.183 1.6-.55.3-.3.45-.683.45-1.15v-6.55h1.5v6.6c0 .833-.267 1.517-.8 2.05-.6.6-1.517.9-2.75.9-1.267 0-2.2-.3-2.8-.9-.533-.533-.8-1.217-.8-2.05v-6.6m16.8-3.5V-14h6.6c.467 0 .85-.15 1.15-.45.367-.367.55-.9.55-1.6 0-.733-.183-1.283-.55-1.65-.3-.267-.683-.4-1.15-.4H8.1v-1.55h6.65c.833 0 1.517.267 2.05.8.6.6.9 1.533.9 2.8 0 1.233-.3 2.15-.9 2.75l-.3.25c-.5.367-1.083.55-1.75.55H8.1v-.55m6.1-17.35-1.5.05-.35-1.5 1.25-.05c2.033-.133 3.4-.55 4.1-1.25.5-.5.75-1.117.75-1.85 0-.8-.267-1.467-.8-2-.4-.4-1.117-.6-2.15-.6-.867 0-1.867.2-3 .6l-3.35 1.25-.65-1.6 3.15-.9 3.25-.7.75-.05c1.467 0 2.55.35 3.25 1.05.733.7 1.1 1.65 1.1 2.85 0 1.233-.333 2.183-1 2.85l-.4.35c-1.067.8-2.533 1.3-4.4 1.5m4.25-14.45-.1-.1 1.4-1.7.25-.45c.533-.967.8-2 .8-3.1l-.05-.6c-.133-1.667-.9-3.183-2.3-4.55l-.1-.1.35-.4h.05l.3-.35c1.7 1.567 2.617 3.367 2.75 5.4l.05.6c0 1.267-.3 2.45-.9 3.55-.467.833-1.1 1.633-1.9 2.4l-.6-.6" fill="#333" fill-rule="evenodd"/><path d="m18.7-55.85-1.1-1.1 1.15 1.1h-.05" fill="red" fill-rule="evenodd"/><path d="M4.25-60H.35m12.3 40.35v-6.75m6.05-29.45-1.1-1.1" fill="none" stroke="#333" stroke-linecap="round" stroke-linejoin="round"/><use height="6.45" transform="matrix(1.0012 0 0 1 9.897 -51.7)" width="5" xlink:href="#b"/></g><path d="m58.941 54.7-.9.3h.1l.4-.2.3-.1h.1" fill="#ccc"/><path d="m60.341 56.3.5-.2h.2c5.933-2.067 11.733-2.033 17.4.1l-.1-.1 3.2 1.5.2.1a49.74 49.74 0 0 0 5.4 2.5l3.9 1.1.7-.1.5-.6 2.7.4h.1l.7.1 3.1.6c-.067.2-.033.4.1.6.867 1.867 2.167 3.3 3.9 4.3l-4.8 1.5c-.2-.733-.2-1.6 0-2.6l-.1-.6-.5-.5-.6-.1c-5.59 2.769-6.058 2.523-10.8 3.2-5.467 6.267-8.097 12.989-8.83 20.055C77.14 93.776 72.489 99.8 66.24 100h-.1l-2.8-.4c-5.733-1.444-7.7-3.498-11.8-8.9-3.667-8.067-3.933-16.533-.8-25.4-.48-2.071-.414-1.082 1.1-2.5 1.533-2.667 3.467-4.467 5.8-5.4l.3-.2m43.5 4.7 1.8-.3.5-.2.3-.3.2-.6c2.067-.8 4.167-.6 6.3.6.133 1.867-.1 3.2-.7 4-.733.733-1.933.933-3.6.6l.1.1-.7-.2-.3-.1-.3-.1h-.1v-.1c-1.8-.667-3.133-1.8-4-3.4h.5" fill="#fea5c0"/><path d="m88.941 66 7.9-1.7.6.1.5.5.1.6c-.2 1-.2 1.867 0 2.6l4.8-1.5c-1.733-1-3.033-2.433-3.9-4.3-.133-.2-.167-.4-.1-.6l-3.1-.6-.7-.1h-.1l-2.7-.4-.5.6-.7.1-3.9-1.1a49.74 49.74 0 0 1-5.4-2.5l-.2-.1-3.2-1.5.1.1c-5.667-2.133-11.467-2.167-17.4-.1h-.2l-.5.2-.1.1-.2.1-.6.2-1.5.5-.3.2c-2.333.933-4.267 2.733-5.8 5.4l-.8 1.6-.1.2-.2.2v.5c-3.133 8.867-2.867 17.333.8 25.4 1.8 2.4 3.867 4.4 6.2 6 .698.588 1.156.792 1.8 1.1l3.8 1.8 2.8.4h.1c3-.6 5.533-2.1 7.6-4.5h.1l.4-.6.2-.2h.1c1.414-3.118 1.86-4.218 2.1-7.2.733-7.067 3.833-13.733 9.3-20l.1-.5c1.21-.477 1.833-.58 2.8-1m-30-11.3.4-.1 1.1-.5c6.4-2.133 12.633-2.067 18.7.2l3.6 1.6.2.2c1.6.8 3.233 1.533 4.9 2.2h-.1l3.8 1.1.6.4 1.8-1 1.3.2.9.1.1.1 3.8.6h.1l.9.1 1.4-.2.1-.4.5-.5c3-1.267 6-.967 9 .9l.3.3.1.4c.333 2.8-.033 4.8-1.1 6-1.133 1.333-2.967 1.767-5.5 1.3h-.1l-8.2 2.6-.6-.1-.5-.5c-.4-.8-.567-1.833-.5-3.1l-8 1.7-.2.3c-5.733 6.533-8.8 13.5-9.2 20.9-.067 1.6-.533 3.167-1.4 4.7l-.2.4v.1l-1.5 2v.1c-2.4 2.733-5.333 4.467-8.8 5.2h-1.2l-2.8-.5c-5.133-1.933-9.367-5.167-12.7-9.7l-.1-.2-.1-.1c-3.933-8.6-4.233-17.567-.9-26.9l.3-.5.1-.5c1.8-4 4.233-6.667 7.3-8l.2-.1 1.3-.5.9-.3m42.5 7.2h-.5c.867 1.6 2.2 2.733 4 3.4v.1h.1l.3.1.3.1.7.2-.1-.1c1.667.333 2.867.133 3.6-.6.6-.8.833-2.133.7-4-2.133-1.2-4.233-1.4-6.3-.6l-.2.6-.3.3-.5.2-1.8.3" fill="#fd6593"/><path d="M68.416 87.993c-.354-.454-1.094-1.127-1.906-1.723-1.447-1.062-3.04-1.553-4.994-.357.223.38.441.758.888 1.197-.669.397-1.07.682-1.567 1.006 2.54 2.035 4.392 1.56 5.713.933.879-.416 1.579-.81 1.852-.961.042-.025.036-.057.014-.095zm.622-.706c.671-1.184 1.582-2.414 1.855-3.519.465-1.887-.453-2.847-1.098-3.605L68.3 81.401l-1.182-1.423c-.374.767-.84 1.935-.365 4.22.306 1.466 1.549 2.747 2.15 3.121.072.04.088.021.134-.032zm.728.225c.235-.348 1.26-1.844 1.887-2.41 1.895-1.708 4.074-1.303 4.82-.807-.19.466-.34.742-.572 1.39l1.182.435c-.598 1.144-1.344 2.397-4.035 2.243-1.026-.06-2.833-.62-3.245-.75-.084-.025-.054-.065-.037-.101zm-.506 1.181c.294-.08 1.585-.307 3.716.965 1.512.904 2.25 2.627 2.683 3.678l-1.904.07-.13 1.805c-1.155-.3-2.71-.65-3.96-3.406-.432-.955-.468-2.616-.47-3.008-.007-.085.019-.091.064-.104zm-.996.419c.203.208.855 1.058.508 3.181-.442 2.712-2.322 3.268-3.292 3.703a9.405 9.405 0 0 1-.32-1.462c-.5.172-1.059.328-1.64.476-.013.025-.138-2.254 2.386-4.493.592-.526 1.907-1.247 2.229-1.42.059-.027.095-.011.129.015zm2.481-21.104c-.455-.296-1.328-.674-2.245-.963-1.634-.517-3.24-.494-4.692 1.105.313.268.622.537 1.159.794-.501.537-.789.9-1.152 1.324 2.916 1.057 4.482.116 5.518-.807.688-.613 1.218-1.156 1.426-1.365.031-.034.017-.06-.014-.088zm.369-.793c.278-1.225.763-2.558.697-3.6-.113-1.781-1.231-2.36-2.041-2.839l-1.02 1.506-1.492-.908c-.125.777-.22 1.93.873 3.791.7 1.194 2.21 1.96 2.87 2.116.078.015.086-.006.113-.066zm.734-.01c.116-.371.63-1.969 1.044-2.64 1.252-2.031 3.37-2.297 4.2-2.075-.042.461-.1.745-.13 1.377l1.212.044c-.222 1.17-.549 2.476-3.066 3.105-.96.24-2.781.264-3.198.266-.083.003-.068-.04-.062-.077zm-.128 1.175c.248-.152 1.37-.718 3.692-.21 1.65.359 2.82 1.655 3.52 2.45l-1.73.603.397 1.613c-1.147.065-2.676.202-4.614-1.852-.671-.712-1.18-2.152-1.294-2.494-.03-.072-.009-.085.03-.11zm-.794.65c.246.123 1.088.681 1.378 2.634.37 2.495-1.2 3.515-1.965 4.17a8.417 8.417 0 0 1-.713-1.187c-.411.293-.88.588-1.37.882-.006.026-.774-1.93.905-4.603.394-.627 1.396-1.63 1.642-1.872.046-.041.084-.038.123-.024zM56.148 58.762c.075-.255.507-1.323 2.652-2.367 1.523-.74 3.38-.543 4.503-.41l-.868 1.46 1.502.884c-.824.736-1.886 1.75-4.89 1.485-1.04-.091-2.499-.789-2.84-.958-.077-.032-.07-.054-.06-.094zM51.86 91.406c.402-.11 2.145-.575 2.981-.596 2.528-.063 3.878 1.651 4.106 2.508-.448.228-.74.34-1.338.677l.59 1.093c-1.195.476-2.571.937-4.465-.918-.722-.708-1.694-2.299-1.914-2.664-.046-.072.002-.083.04-.1zm-1.784-20.549c1.106-.645 2.42-1.205 3.178-1.995 1.297-1.348 1.066-2.643.945-3.623l-1.767.258-.204-1.824c-.67.451-1.61 1.192-2.379 3.373-.492 1.4-.17 3.136.108 3.769.036.072.057.063.12.042zm.45.574c.354-.17 1.887-.894 2.652-1.041 2.31-.446 3.789 1.043 4.118 1.856-.378.293-.63.448-1.131.872l.695.99c-1.03.652-2.227 1.317-4.226-.23-.761-.59-1.877-2.015-2.13-2.343-.052-.064-.01-.082.022-.104zm-.977.731c.266.088 1.375.576 2.386 2.772.717 1.56.43 3.404.242 4.52l-1.503-.943-.997 1.455c-.741-.862-1.767-1.975-1.36-4.962.14-1.034.937-2.456 1.13-2.788.037-.075.06-.067.102-.054zm43.186-7.914c-.291.3-1.558 1.584-2.268 2.025-2.148 1.336-4.18.543-4.81-.08.27-.424.465-.669.81-1.262l-1.063-.643c.79-1.016 1.741-2.112 4.315-1.472.98.244 2.625 1.123 3 1.327.076.038.04.073.016.105z" fill="#fce1e9" fill-rule="evenodd"/><path d="M110.639 28.6h.402l1.107.2.906.7q.905.9.905 2l-.905 2.3q-.906.8-2.013.8l-1.61-.4-.503-.4-.905-1.4v-.3l-.101-.6v-.2q.1-1 1.006-1.8l.503-.4q.503-.4 1.107-.5h.1m.906 1.7-.503-.1q-.704-.1-1.107.4-.402.3-.402.9v.3l.302.9h.1l.101.1.403.2.603.1 1.107-.4.302-1.2-.1-.6-.202-.3-.1-.1-.302-.2h-.202" fill-rule="evenodd" id="gikopoipoi_eyes_open" style="stroke-width:2.00619"/><path d="M107.798 31.7h6.3" stroke-width="3" id="gikopoipoi_eyes_closed" style="display:none" fill="none" stroke="#000" stroke-linecap="round" stroke-linejoin="round"/></svg>