<?xml version="1.0" encoding="utf-8"?>
<svg version="1.1" id="Layer_1"
xmlns="http://www.w3.org/2000/svg"
xmlns:xlink="http://www.w3.org/1999/xlink"
xmlns:author="http://www.sothink.com"
width="31px" height="21px"
xml:space="preserve">
<g id="496" transform="matrix(1, 0, 0, 1, 16.3, 22.1)">
<path style="fill:#000000;fill-opacity:1" d="M3.15,-10.15L3.35 -10.6Q3.55 -10.8 3.8 -10.8L4.25 -10.6L4.4 -10.4L4.45 -10.15L4.25 -9.65L3.8 -9.45Q3.55 -9.45 3.35 -9.65L3.3 -9.75L3.15 -10.15M1.35,-13.4L1.55 -13.85Q1.75 -14.05 2 -14.05L2.45 -13.85L2.65 -13.4L2.45 -12.9L2 -12.7Q1.75 -12.7 1.55 -12.9L1.35 -13.4" />
<path style="fill:#FCB6C4;fill-opacity:1" d="M3.3,-9.75L1.3 -8.6L0.3 -8.7L0.5 -8.35L-5.55 -4.95L-6.3 -3.25L-6.05 -2.5L-5.55 -2.05L-15.8 -1.7L-12 -9.7L-11.2 -9.25L-9.85 -8.25L-8.35 -9.2L-2.1 -13.1L-1.85 -12.65L5.75 -17.25L6.6 -17.05L6.7 -17.05L6.8 -17.15Q8.4 -19 9 -21.6L11.3 -20.55L13.6 -19.55Q12.7 -15.45 9.4 -12.55L8.55 -12.8L4.4 -10.4L4.25 -10.6L3.8 -10.8Q3.55 -10.8 3.35 -10.6L3.15 -10.15L3.3 -9.75M1.55,-12.9Q1.75 -12.7 2 -12.7L2.45 -12.9L2.65 -13.4L2.45 -13.85L2 -14.05Q1.75 -14.05 1.55 -13.85L1.35 -13.4L1.55 -12.9" />
<path style="fill:none;stroke-width:1;stroke-linecap:round;stroke-linejoin:round;stroke-miterlimit:3;stroke:#000000;stroke-opacity:1" d="M13.6,-19.55Q12.7 -15.45 9.4 -12.55M0.3,-8.7L0.5 -8.35L-5.55 -4.95M-5.55,-2.05L-15.8 -1.7L-12 -9.7M-8.35,-9.2L-2.1 -13.1L-1.85 -12.65M6.6,-17.05L6.7 -17.05L6.8 -17.15Q8.4 -19 9 -21.6M11.3,-20.55Q10.4 -16.8 8.15 -15M0.3,-8.7L-1.85 -12.65" />
</g>
</svg>
