<svg xmlns="http://www.w3.org/2000/svg" xmlns:xlink="http://www.w3.org/1999/xlink" width="79.935" height="70.673" viewBox="0 0 21.149 18.699"><defs><g id="c" transform="translate(40.5 51.65)"><use height="40" transform="translate(-40 -20)" width="80" xlink:href="#a"/><use height="71.65" transform="translate(-40.5 -51.65)" width="81" xlink:href="#b"/></g><g id="b"><path d="M-40-5.15v-20l21.3 10.65-.05 20h.05-.05L-40-5.15M34.1-34.1l5.9 2.95v6l-18.75 9.4L0-5.15-5.9-8.1v-6l40-20M0-11.15l40-20-40 20" fill="#e98d3b" fill-rule="evenodd" transform="translate(40.5 51.65)"/><path d="M21.25-15.75v1.25l-39.95 20h-.05l.05-20 12.8 6.4L0-5.15l21.25-10.6" fill="#c96318" fill-rule="evenodd" transform="translate(40.5 51.65)"/><path d="M21.25-14.5v4.5L-18.7 10h-.05L-40-.65v-4.5L-18.75 5.5h.05l39.95-20M-18.7 5.55V5.5 10 5.55" fill="#bcbcbc" fill-rule="evenodd" transform="translate(40.5 51.65)"/><path d="M-40-25.15v-6l40-20L34.1-34.1l-40 20v6l-12.8-6.4L-40-25.15" fill="#ffe7ce" fill-rule="evenodd" transform="translate(40.5 51.65)"/><path d="M21.25-10 40 0 0 20l-18.7-10 39.95-20" fill-opacity=".502" fill-rule="evenodd" transform="translate(40.5 51.65)"/><path d="M21.25-14.5v.05M-18.7 10h-.05L-40-.65v-30.5l40-20m40 26-18.75 9.4v1.25l-39.95 20v.05m0 4.45 39.95-20m0-5.75L0-5.15-5.9-8.1l-12.8-6.4-.05 20h.05-.05L-40-5.15m80-26-40 20M34.1-34.1l-40 20v6M-40-25.15l21.3 10.65m39.95.05V-10M-18.7 5.55V10" fill="none" stroke="#999" stroke-linecap="round" stroke-linejoin="round" transform="translate(40.5 51.65)"/></g><path d="M40 0 0 20-40 0 0-20 40 0" fill="#bcbcbc" fill-rule="evenodd" transform="translate(40 20)" id="a"/></defs><use height="71.65" transform="scale(.2611 .26098)" width="81" xlink:href="#c" style="stroke-width:.908285"/></svg>