<svg width="160" height="182" version="1.1" xmlns="http://www.w3.org/2000/svg" xmlns:xlink="http://www.w3.org/1999/xlink" xml:space="preserve" xmlns:serif="http://www.serif.com/" style="fill-rule:evenodd;clip-rule:evenodd;stroke-miterlimit:1.5;"><path d="M61,22L70,3L78,22L89,22L98,3L107,22L116.2,29.75C124.191,37.716 123.85,45.184 116.2,52.25L109,55L108.837,65.013L104.924,87.639L105.6,102.264C106.14,103.27 106.381,104.47 108.038,104.359L120.281,104.456C126.763,108.206 127.531,111.84 120.321,115.311L107.934,115.467L84,116L80.493,116C72.572,116.152 64.32,115.645 55,113L41.54,112.514C35.792,109.089 35.494,105.405 41.482,101.422L54.581,101.111L55,90L61,53.5C53.258,45.715 53.438,38.222 61,31L61,22Z" style="fill:white;"/><path d="M108.101,103.997L120.234,103.997C123.196,103.997 125.601,106.573 125.601,109.747C125.601,112.92 123.196,115.497 120.234,115.497L108.101,115.497" style="fill:none;stroke:black;stroke-width:2.5px;"/><path d="M54.739,112.772L42.606,112.772C39.644,112.772 37.239,110.196 37.239,107.022C37.239,103.849 39.644,101.272 42.606,101.272L54.739,101.272" style="fill:none;stroke:black;stroke-width:2.5px;"/><path d="M73.12,63.899C69.98,61.542 65.612,59.204 60.771,57.135C58.599,56.656 56.725,56.923 54.921,58.162C51.714,60.367 50.763,63.836 53.347,67.807C55.947,70.187 59.272,71.978 63.464,73.064" style="fill:white;"/><path d="M58.094,70.555C56.35,79.848 52.843,88.989 51.657,99.959" style="fill:none;stroke:rgb(254,165,193);stroke-width:2px;stroke-linejoin:round;"/><path d="M82.972,115.744C83.05,115.966 81.39,115.911 80.505,115.834C78.558,115.666 76.94,115.381 75.765,114.611C72.262,112.315 72.868,106.977 67.42,100.224C66.905,99.586 55.753,96.008 55.172,99.123C54.214,101.299 56.864,64.931 61,54L62.939,54.051C61.521,65.706 97.875,66.084 101.543,55.403L109,55L109,64L105,88L105.69,102.002C104.888,101.886 103.085,98.771 101.857,98.581C96.79,97.796 86.771,96.893 83.43,101.292C78.787,106.289 82.337,113.943 82.972,115.744Z" style="fill:rgb(232,247,249);stroke:black;stroke-width:2px;"/><path d="M120.161,73.039L109.519,67.134" style="fill:none;stroke:rgb(254,165,193);stroke-width:2px;stroke-linejoin:round;"/><path d="M120.067,73.29L106.735,86.195" style="fill:none;stroke:rgb(129,129,129);stroke-width:2px;"/><path d="M90.401,82.792C92.94,85.786 96.681,89.034 100.943,92.125C102.955,93.073 104.842,93.229 106.875,92.42C110.491,90.981 112.188,87.81 110.548,83.365C108.54,80.467 105.695,77.983 101.849,75.995" style="fill:white;stroke:black;stroke-width:2.5px;"/><path d="M61,53.5C57.599,51.548 55.4,47.131 55.4,42.25C55.4,37.369 57.599,32.952 61,31" style="fill:none;stroke:black;stroke-width:2.5px;"/><path d="M116.2,52.25C119.601,50.298 121.8,45.881 121.8,41C121.8,36.119 119.601,31.702 116.2,29.75" style="fill:none;stroke:black;stroke-width:2.5px;"/><path d="M61,22L70,3L78,22L89,22L98,3L107,22" style="fill:none;stroke:black;stroke-width:2.5px;stroke-miterlimit:3;"/><path d="M108.146,41.6L104.141,45.6L107.845,49.2M104.141,45.6L104.141,45.5L104.141,50.5M104.141,45.6L100.437,49.2M100.136,41.6L104.141,45.5L104.141,39.6" style="fill:none;fill-rule:nonzero;stroke:rgb(254,165,192);stroke-width:2px;stroke-linecap:round;stroke-linejoin:round;stroke-miterlimit:4;"/><circle id="gikopoipoi_eyes_open" cx="111.044" cy="31.553" r="2.187" style="fill:none;stroke:black;stroke-width:1.5px;"/><path id="gikopoipoi_eyes_closed" d="M107.798,31.7L114.098,31.7" style="display:none;fill:none;fill-rule:nonzero;stroke:black;stroke-width:3px;stroke-linecap:round;stroke-linejoin:round;stroke-miterlimit:4;"/></svg>