<svg width="160" height="182" version="1.1" xmlns="http://www.w3.org/2000/svg" xmlns:xlink="http://www.w3.org/1999/xlink" xml:space="preserve" xmlns:serif="http://www.serif.com/" style="fill-rule:evenodd;clip-rule:evenodd;stroke-miterlimit:1.5;"><path d="M75.271,63.308C72.176,60.892 67.852,58.473 63.051,56.314C60.889,55.794 59.01,56.026 57.183,57.232C53.936,59.375 52.919,62.826 55.428,66.844C57.984,69.273 61.275,71.126 65.445,72.291" style="fill:white;stroke:black;stroke-width:2.5px;"/><g><path d="M136.896,34.382L117.051,70.047" style="fill:none;stroke:rgb(98,98,98);stroke-width:2px;"/><path d="M111.301,71.192L118.511,75.624L118.375,71.805L114.77,69.589L111.301,71.192Z" style="fill:rgb(188,188,188);stroke:rgb(98,98,98);stroke-width:2px;"/><path d="M142.643,33.544L135.464,29.061L135.573,32.88L139.162,35.122L142.643,33.544Z" style="fill:rgb(188,188,188);stroke:rgb(98,98,98);stroke-width:2px;"/></g><path d="M61,22L70,3L78,22L89,22L98,3L107,22L116.2,29.75C124.191,37.716 123.85,45.184 116.2,52.25L109,55L108.837,65.013L104.924,87.639L105,114L101.75,123L101.75,136C97.54,142.781 93.743,142.129 90.25,136L90.25,123L84,116L80.493,116L75,123L75,136C70.981,142.578 67.16,142.153 63.5,136L63.5,123L58,120L55,113L55,90L61,53.5C53.258,45.715 53.438,38.222 61,31L61,22Z" style="fill:white;"/><path d="M101.75,123L101.75,135.133C101.75,138.095 99.174,140.5 96,140.5C92.826,140.5 90.25,138.095 90.25,135.133L90.25,123" style="fill:none;stroke:black;stroke-width:2.5px;"/><path d="M75,123L75,135.133C75,138.095 72.424,140.5 69.25,140.5C66.076,140.5 63.5,138.095 63.5,135.133L63.5,123" style="fill:none;stroke:black;stroke-width:2.5px;"/><path d="M82.972,115.744C83.05,115.966 81.39,115.911 80.505,115.834C71.234,115.031 71.189,108.531 67.42,100.224C67.081,99.477 55.753,96.008 55.172,99.123C54.214,101.299 56.864,64.931 61,54L62.939,54.051C61.521,65.706 97.875,66.084 101.543,55.403L109,55L109,64L105,88L105.061,102.421C104.259,102.305 103.085,98.771 101.857,98.581C96.79,97.796 88.762,96.789 85.42,101.187C80.778,106.184 82.337,113.943 82.972,115.744Z" style="fill:rgb(247,232,249);stroke:black;stroke-width:2px;"/><path d="M99.496,73.419C103.094,74.991 107.882,76.263 113.069,77.164C115.292,77.131 117.055,76.441 118.526,74.82C121.14,71.937 121.269,68.343 117.842,65.072C114.764,63.353 111.116,62.374 106.787,62.28" style="fill:white;stroke:black;stroke-width:2.5px;"/><path d="M61,53.5C57.599,51.548 55.4,47.131 55.4,42.25C55.4,37.369 57.599,32.952 61,31" style="fill:none;stroke:black;stroke-width:2.5px;"/><path d="M116.2,52.25C119.601,50.298 121.8,45.881 121.8,41C121.8,36.119 119.601,31.702 116.2,29.75" style="fill:none;stroke:black;stroke-width:2.5px;"/><path d="M61,22L70,3L78,22L89,22L98,3L107,22" style="fill:none;stroke:black;stroke-width:2.5px;stroke-miterlimit:3;"/><path d="M108.146,41.6L104.141,45.6L107.845,49.2M104.141,45.6L104.141,45.5L104.141,50.5M104.141,45.6L100.437,49.2M100.136,41.6L104.141,45.5L104.141,39.6" style="fill:none;fill-rule:nonzero;stroke:rgb(254,165,192);stroke-width:2px;stroke-linecap:round;stroke-linejoin:round;stroke-miterlimit:4;"/><circle id="gikopoipoi_eyes_open" cx="111.044" cy="31.553" r="2.187" style="fill:none;stroke:black;stroke-width:1.5px;"/><path id="gikopoipoi_eyes_closed" d="M107.798,31.7L114.098,31.7" style="display:none;fill:none;fill-rule:nonzero;stroke:black;stroke-width:3px;stroke-linecap:round;stroke-linejoin:round;stroke-miterlimit:4;"/></svg>