<svg width="160" height="182" xmlns="http://www.w3.org/2000/svg" xml:space="preserve" style="fill-rule:evenodd;clip-rule:evenodd;stroke-miterlimit:1.5"><path d="m61 22 9-19 8 19h11l9-19 9 19 9.2 7.75c7.991 7.966 7.65 15.434 0 22.5L109 55v10c8.679 1.223 11.541 4.925 6.492 12-3.498 1.93-6.104 3.031-9.601 3.16-.922 9.958-3.843 21.436 0 22.052h12.504c6.985 3.943 6.69 7.771.199 11.5H92.687c-.793.161-1.55-.076-3.355-.59-2.156 1.277-6.277 1.786-9.332.59.306-.111-1.155.616-3.537.744-5.834.314-17.191.557-21.622-3.146H42.355c-6.38-3.674-6.568-7.506-.454-11.5H55V90l6-36.5c-7.742-7.785-7.562-15.278 0-22.5v-9Z" style="fill:#fff"/><path d="M105.891 102.212h12.133c2.962 0 5.367 2.577 5.367 5.75 0 3.174-2.405 5.75-5.367 5.75h-12.133M55 111.31H42.867c-2.962 0-5.367-2.577-5.367-5.75 0-3.174 2.405-5.75 5.367-5.75H55" style="fill:none;stroke:#000;stroke-width:2.5px"/><path d="M80 113.592c-.122-4.571-4.311-8.641-16-18.592-3.814-.923-8.419-.115-9 3 0 0 4.038-38.01 6-44l14 1c2.926 5.541 11.436 4.879 16.514 8 3.621-2.577 10.092-1.927 10.486-8h7v9l-4 24-.882 7.92c-4.112-.592-3.967 5.615-8.118 11.08-2.582 3.235-4.132 4.972-8.059 6.592-1.194.901-6.478.982-7.941 0Z" style="fill:#e8f7f9;stroke:#000;stroke-width:2px"/><path d="M116.524 65.182c-3.239-2.219-7.703-4.366-12.629-6.225-2.19-.385-4.051-.038-5.8 1.278-3.109 2.341-3.91 5.847-1.157 9.703 2.7 2.267 6.1 3.913 10.334 4.817m-42.416-1.159c-2.695 2.855-5.51 6.932-8.111 11.509-.721 2.104-.667 3.996.362 5.928 1.829 3.435 5.168 4.771 9.405 2.651 2.659-2.316 4.813-5.418 6.364-9.461" style="fill:#fff;stroke:#000;stroke-width:2.5px"/><path d="m50.494 66.782 44.764-4.673" style="fill:none;stroke:#fea5c0;stroke-width:2px"/><path d="m60.422 87.676-9.928-20.894" style="fill:none;stroke:#818181;stroke-width:2px"/><path d="M108.185 59.767c3.888 1.132 2.968 25.43 3.559 42.445-2.854 1.643-4.108 4.42-3.466 8.56" style="fill:none;stroke:#fea5c0;stroke-width:2px"/><path d="M116.2 52.25c3.401-1.952 5.6-6.369 5.6-11.25s-2.199-9.298-5.6-11.25M61 53.5c-3.401-1.952-5.6-6.369-5.6-11.25S57.599 32.952 61 31" style="fill:none;stroke:#000;stroke-width:2.5px"/><path d="m61 22 9-19 8 19h11l9-19 9 19" style="fill:none;stroke:#000;stroke-width:2.5px;stroke-miterlimit:3"/><path d="m70.941 40.6-4 4 3.7 3.6m-3.7-3.6v-.1 5m0-4.9-3.7 3.6m-.3-7.6 4 3.9v-5.9" style="fill:none;fill-rule:nonzero;stroke:#fea5c0;stroke-width:2px;stroke-linecap:round;stroke-linejoin:round;stroke-miterlimit:4"/><path d="M105.341 40h-19l-2.2-2" style="fill:none;fill-rule:nonzero;stroke:#333;stroke-width:2.5px;stroke-linecap:round;stroke-linejoin:round;stroke-miterlimit:4"/><g id="gikopoipoi_eyes_open"><circle cx="109" cy="30" r="2.433" style="fill:none;stroke:#000;stroke-width:1.5px"/><circle cx="75.152" cy="30" r="2.433" style="fill:none;stroke:#000;stroke-width:1.5px"/></g><g id="gikopoipoi_eyes_closed" style="display:none" fill="none" stroke="#000" stroke-linecap="round" stroke-linejoin="round"><path d="M107.46 30.1h6.3" stroke-width="3"/><path d="M-.05 1.55H3.1" stroke-width="1.5" style="display:inline" transform="matrix(2 0 0 2 73.719 27)"/></g></svg>