<svg width="160" height="182" version="1.1" xmlns="http://www.w3.org/2000/svg" xmlns:xlink="http://www.w3.org/1999/xlink" xml:space="preserve" xmlns:serif="http://www.serif.com/" style="fill-rule:evenodd;clip-rule:evenodd;stroke-miterlimit:1.5;"><g><path d="M61,22L70,3L78,22L89,22L98,3L107,22L116.2,29.75C124.191,37.716 123.85,45.184 116.2,52.25L109,55L109,65C109,65 108.497,79.871 105,80L104.79,96.397C106.078,98.504 109.124,99.48 114.323,99.072L119.943,99.177C126.574,102.624 126.864,106.391 120.924,110.677L107.682,110.677L98.527,113.57C92.12,115.771 92.285,115.936 88.401,115.895C86.17,117.55 83.562,117.698 80.493,116L75,123L75,136C70.981,142.578 67.16,142.153 63.5,136L63.5,123L58,120L55,113L55,90L61,53.5C53.258,45.715 53.438,38.222 61,31L61,22Z" style="fill:white;"/><path d="M107.682,99.177L119.815,99.177C122.777,99.177 125.182,101.753 125.182,104.927C125.182,108.1 122.777,110.677 119.815,110.677L107.682,110.677" style="fill:none;stroke:black;stroke-width:2.5px;"/><path d="M75,123L75,135.133C75,138.095 72.424,140.5 69.25,140.5C66.076,140.5 63.5,138.095 63.5,135.133L63.5,123" style="fill:none;stroke:black;stroke-width:2.5px;"/><path d="M80.813,116.54C80.69,111.968 75.689,104.951 64,95C60.186,94.077 55.581,94.885 55,98C55,98 59.038,59.99 61,54L75,55C77.926,60.541 86.436,59.879 91.514,63C95.135,60.423 101.606,61.073 102,55L109,55L109,64L105,88L105,96C100.888,95.408 100.151,101.535 96,107C93.418,110.235 89.927,115.379 86,117C84.806,117.901 82.275,117.521 80.813,116.54Z" style="fill:rgb(232,247,249);stroke:black;stroke-width:2px;"/><path d="M103.897,61.848C107.464,60.208 106.824,60.118 111.993,59.119C114.217,59.111 115.992,59.768 117.493,61.361C120.161,64.193 120.358,67.785 116.993,71.119C113.948,72.897 110.319,73.944 105.993,74.119" style="fill:white;stroke:black;stroke-width:2.5px;"/><path d="M116.2,52.25C119.601,50.298 121.8,45.881 121.8,41C121.8,36.119 119.601,31.702 116.2,29.75" style="fill:none;stroke:black;stroke-width:2.5px;"/><path d="M61,53.5C57.599,51.548 55.4,47.131 55.4,42.25C55.4,37.369 57.599,32.952 61,31" style="fill:none;stroke:black;stroke-width:2.5px;"/><path d="M61,22L70,3L78,22L89,22L98,3L107,22" style="fill:none;stroke:black;stroke-width:2.5px;stroke-miterlimit:3;"/><path d="M70.941,40.6L66.941,44.6L70.641,48.2M66.941,44.6L66.941,44.5L66.941,49.5M66.941,44.6L63.241,48.2M62.941,40.6L66.941,44.5L66.941,38.6" style="fill:none;fill-rule:nonzero;stroke:rgb(254,165,192);stroke-width:2px;stroke-linecap:round;stroke-linejoin:round;stroke-miterlimit:4;"/><path d="M105.341,40L86.341,40L84.141,38" style="fill:none;fill-rule:nonzero;stroke:rgb(51,51,51);stroke-width:2.5px;stroke-linecap:round;stroke-linejoin:round;stroke-miterlimit:4;"/></g><path d="M74.147,66.698C71.151,64.16 66.928,61.57 62.217,59.219C60.077,58.613 58.191,58.769 56.317,59.9C52.986,61.912 51.832,65.319 54.178,69.435C56.634,71.965 59.848,73.948 63.968,75.279" style="fill:white;stroke:black;stroke-width:2.5px;"/><g transform="matrix(0.190636,0,0,0.307164,-192.98,-156.374)"><path d="M1321.78,723.959L1266.92,693.698" style="fill:none;stroke:rgb(129,129,129);stroke-width:7.82px;stroke-linecap:round;stroke-linejoin:round;"/></g><g transform="matrix(0.190636,0,0,0.307164,-192.98,-156.374)"><path d="M1266.92,693.698C1266.92,693.698 1239.5,668.354 1230.73,729.681C1209.93,867.457 1190.73,868.172 1173.49,701.059C1155.31,536.904 1136.2,533.482 1116.25,672.437C1097.16,810.048 1078.08,811.094 1059,643.816C1049.58,562.739 1040.03,520.91 1030.38,516.33" style="fill:none;stroke:rgb(254,165,192);stroke-width:7.82px;stroke-linecap:round;stroke-linejoin:round;"/></g><g id="gikopoipoi_eyes_open"><circle cx="109" cy="30" r="2.433" style="fill:none;stroke:black;stroke-width:1.5px;"/><circle cx="75.152" cy="30" r="2.433" style="fill:none;stroke:black;stroke-width:1.5px;"/></g><g id="gikopoipoi_eyes_closed" style="display:none" fill="none" stroke="#000" stroke-linecap="round" stroke-linejoin="round"><path d="M107.46 30.1h6.3" stroke-width="3"/><path d="M-.05 1.55H3.1" stroke-width="1.5" style="display:inline" transform="matrix(2 0 0 2 73.719 27)"/></g></svg>