<svg width="160" height="182" version="1.1" xmlns="http://www.w3.org/2000/svg" xmlns:xlink="http://www.w3.org/1999/xlink" xml:space="preserve" xmlns:serif="http://www.serif.com/" style="fill-rule:evenodd;clip-rule:evenodd;stroke-miterlimit:1.5;"><g><path d="M61,22L70,3L78,22L89,22L98,3L107,22L116.2,29.75C124.191,37.716 123.85,45.184 116.2,52.25L109,55L109,65C117.679,66.223 120.541,69.925 115.492,77C111.994,78.93 108.497,79.871 105,80L105,114L101.75,123L101.75,136C97.54,142.781 93.743,142.129 90.25,136L90.25,123L85.194,110.283C71.241,115.915 57.629,117.876 55,106.209L55,90L61,53.5C53.258,45.715 53.438,38.222 61,31L61,22Z" style="fill:white;"/><path d="M101.75,123L101.75,135.133C101.75,138.095 99.174,140.5 96,140.5C92.826,140.5 90.25,138.095 90.25,135.133L90.25,123" style="fill:none;stroke:black;stroke-width:2.5px;"/><path d="M83.629,98.783L95.762,98.783C98.724,98.783 101.129,101.359 101.129,104.533C101.129,107.706 98.724,110.283 95.762,110.283L83.629,110.283" style="fill:none;stroke:black;stroke-width:2.5px;"/><path d="M82,98.783L64.736,94.006C64.736,94.006 55.581,94.885 55,98C55,98 59.038,59.99 61,54L75,55C77.926,60.541 86.436,59.879 91.514,63C95.135,60.423 101.606,61.073 102,55L109,55L109,64L105,88L105,96C100.888,95.408 95.299,98.783 95.299,98.783L82,98.783Z" style="fill:rgb(232,247,249);stroke:black;stroke-width:2px;"/><path d="M104.611,63.802C108.531,63.566 108.783,63.92 113.963,64.861C116.039,65.658 117.456,66.914 118.278,68.942C119.739,72.549 118.621,75.968 114.277,77.857C110.795,78.411 107.033,78.072 102.937,76.669" style="fill:white;stroke:black;stroke-width:2.5px;"/><path d="M116.2,52.25C119.601,50.298 121.8,45.881 121.8,41C121.8,36.119 119.601,31.702 116.2,29.75" style="fill:none;stroke:black;stroke-width:2.5px;"/><path d="M61,53.5C57.599,51.548 55.4,47.131 55.4,42.25C55.4,37.369 57.599,32.952 61,31" style="fill:none;stroke:black;stroke-width:2.5px;"/><path d="M61,22L70,3L78,22L89,22L98,3L107,22" style="fill:none;stroke:black;stroke-width:2.5px;stroke-miterlimit:3;"/><path d="M70.941,40.6L66.941,44.6L70.641,48.2M66.941,44.6L66.941,44.5L66.941,49.5M66.941,44.6L63.241,48.2M62.941,40.6L66.941,44.5L66.941,38.6" style="fill:none;fill-rule:nonzero;stroke:rgb(254,165,192);stroke-width:2px;stroke-linecap:round;stroke-linejoin:round;stroke-miterlimit:4;"/><path d="M105.341,40L86.341,40L84.141,38" style="fill:none;fill-rule:nonzero;stroke:rgb(51,51,51);stroke-width:2.5px;stroke-linecap:round;stroke-linejoin:round;stroke-miterlimit:4;"/></g><g transform="matrix(0.320632,-0.947204,0.947204,0.320632,-21.8148,111.852)"><path d="M74.147,66.698C71.151,64.16 66.928,61.57 62.217,59.219C60.077,58.613 58.191,58.769 56.317,59.9C52.986,61.912 51.832,65.319 54.178,69.435C56.634,71.965 59.848,73.948 63.968,75.279" style="fill:white;stroke:black;stroke-width:2.5px;"/></g><g transform="matrix(0.175486,0.0744766,-0.120001,0.282753,-83.3861,-236.145)"><path d="M1325.18,751.363L1278.91,786.011" style="fill:none;stroke:rgb(129,129,129);stroke-width:7.82px;stroke-linecap:round;stroke-linejoin:round;"/></g><g transform="matrix(0.190636,0,0,0.307164,-193.361,-156.374)"><path d="M1255.59,776.048C1255.59,776.048 1240.26,810.735 1230.73,729.916C1212.11,563.877 1193,562.443 1173.49,701.294C1156.09,834.783 1137.2,841.407 1116.25,672.672C1100.88,524.161 1082.36,493.653 1059,643.816C1049.39,711.253 1040.19,743.112 1031.38,742.963" style="fill:none;stroke:rgb(254,165,192);stroke-width:7.82px;stroke-linecap:round;stroke-linejoin:round;"/></g><g id="gikopoipoi_eyes_open"><circle cx="109" cy="30" r="2.433" style="fill:none;stroke:black;stroke-width:1.5px;"/><circle cx="75.152" cy="30" r="2.433" style="fill:none;stroke:black;stroke-width:1.5px;"/></g><g id="gikopoipoi_eyes_closed" style="display:none" fill="none" stroke="#000" stroke-linecap="round" stroke-linejoin="round"><path d="M107.46 30.1h6.3" stroke-width="3"/><path d="M-.05 1.55H3.1" stroke-width="1.5" style="display:inline" transform="matrix(2 0 0 2 73.719 27)"/></g></svg>