<svg width="160" height="182" xmlns="http://www.w3.org/2000/svg" xml:space="preserve" style="fill-rule:evenodd;clip-rule:evenodd;stroke-linecap:round;stroke-linejoin:round;stroke-miterlimit:1.5"><path d="M91.736 42.111s2.296-.388 2.924-.258c2.056.426 2.53.295 3.724-.092 2.609 22.899 5.043 46.323 8.682 66.131-3.1 7.31-11.298 1.316-11.831 1.049-.939-22.049-3.499-66.83-3.499-66.83Z" style="fill:url(#a);stroke:#6f5b41;stroke-width:1.5px" transform="rotate(11.163 105.444 104.964)"/><path d="M94.66 93.809c5.218 1.825 6.072.862 8.22-.822" style="fill:none;stroke:#6f5b41;stroke-width:1.5px" transform="rotate(11.163 202.819 109.809)"/><path d="M94.66 93.809c5.218 2.555 7.881 1.612 10.029-.658" style="fill:none;stroke:#6f5b41;stroke-width:1.5px" transform="rotate(11.163 105.444 104.964)"/><path d="m4.25-60 1.2.55 3.85-8.6 3.85 8.6L14.4-60l3.15 3.05 1.15 1.1-.4.4.1.1c1.4 1.367 2.183 2.883 2.35 4.55v.6c0 1.1-.267 2.133-.8 3.1l-.25.45-1.4 1.7.1.1-.3.3-3.25.9v4.7l-3.25.7-3.1.9.65 1.6 3.3-1.25c1.133-.4 2.133-.6 3-.6 1.033 0 1.75.2 2.15.6.533.533.8 1.2.8 2 0 .733-.25 1.35-.75 1.85-.7.7-2.05 1.117-4.05 1.25l-1.3.05.35 1.5 1.5-.05-.05 2.75-1.5 1.25v5.75H8.1v1.55h6.55c.467 0 .85.133 1.15.4.367.367.55.917.55 1.65 0 .7-.183 1.233-.55 1.6-.3.3-.683.45-1.15.45H8.1v1.5h-17l-3.25-3.25v-1.7l.45-.4c.5-.4.95-.917 1.35-1.55l-1.25-1-.7.95.4-10.95 1.75-12.8.4.35.75-.7-1-1.1c-1-1.267-1.5-2.65-1.5-4.15l.1-1c.233-1.533 1.033-2.95 2.4-4.25l-.75-.75.5-3.95.65.3 3.85-8.6 3.85 8.6L.35-60h3.9" style="fill:#fff" transform="matrix(2 0 0 2 79.441 142)"/><path d="m14.4-60-1.25.55-3.85-8.6-3.85 8.6-1.2-.55L9.3-71l5.1 11M.35-60l-1.25.55-3.85-8.6-3.85 8.6-.65-.3-.55-.25 5.05-11 5.1 11m-10.1 4.2.75.75c-1.367 1.3-2.167 2.717-2.4 4.25l-.1 1c0 1.5.5 2.883 1.5 4.15l1 1.1-.75.7-.4-.35-.6-.7c-1.2-1.467-1.8-3.1-1.8-4.9l.1-1c.2-1.867 1.1-3.533 2.7-5m-2.55 35.35.7-.95 1.25 1c-.4.633-.85 1.15-1.35 1.55l-.45.4-1.2.45h-.4c-.633 0-1.517-.367-2.65-1.1l-1.9-.65c-.567 0-1 .183-1.3.55l-.6.95-1.4-.75 1.25-1.65c.567-.533 1.217-.8 1.95-.8.733 0 1.483.267 2.25.8 1.1.567 1.95.85 2.55.85.433 0 .867-.217 1.3-.65M8.1-13.5V-15h6.55c.467 0 .85-.15 1.15-.45.367-.367.55-.9.55-1.6 0-.733-.183-1.283-.55-1.65-.3-.267-.683-.4-1.15-.4H8.1v-1.55h6.6c.833 0 1.517.267 2.05.8.6.6.9 1.533.9 2.8 0 1.233-.3 2.15-.9 2.75-.533.533-1.217.8-2.05.8H8.1m6.05-16.9-1.5.05-.35-1.5 1.3-.05c2-.133 3.35-.55 4.05-1.25.5-.5.75-1.117.75-1.85 0-.8-.267-1.467-.8-2-.4-.4-1.117-.6-2.15-.6-.867 0-1.867.2-3 .6l-3.3 1.25-.65-1.6 3.1-.9 3.25-.7.75-.05c1.467 0 2.55.35 3.25 1.05.733.7 1.1 1.65 1.1 2.85 0 1.233-.333 2.183-1 2.85l-.4.35c-1.033.8-2.5 1.3-4.4 1.5m4.25-14.45-.1-.1 1.4-1.7.25-.45c.533-.967.8-2 .8-3.1v-.6c-.167-1.667-.95-3.183-2.35-4.55l-.1-.1.4-.4.3-.35c1.7 1.567 2.65 3.367 2.85 5.4v.6a7 7 0 0 1-.95 3.55c-.467.833-1.1 1.633-1.9 2.4l-.6-.6" style="fill:#333" transform="matrix(2 0 0 2 79.441 142)"/><path d="M4.25-60H.35M12.6-20.65v-5.75m6.1-29.45-1.15-1.1" style="fill:none;fill-rule:nonzero;stroke:#333;stroke-width:1px;stroke-miterlimit:4" transform="matrix(2 0 0 2 79.441 142)"/><path d="m2-1.7-2 2 1.85 1.8M0 .3V.25v2.5M0 .3l-1.85 1.8M-2-1.7 0 .25V-2.7" style="fill:none;fill-rule:nonzero;stroke:#fea5c0;stroke-width:1px;stroke-miterlimit:4" transform="matrix(2.0024 0 0 2 101.641 45.9)"/><path d="M112.508 15.594C112.508 21.889 94.184 27 71.614 27c-22.569 0-40.893-5.111-40.893-11.406C33.272 5.327 39.485.106 48.852-4.783c3.337-7.621 8.308-10.425 14.796-2.396 5.422 2.219 9.498 1.151 14.648-.183 4.562-8.062 10.604-4.996 15.493 2.579 9.014 4.478 16.557 6.079 18.719 20.377" style="fill:#ae9975;stroke:#907554;stroke-width:2.36px" transform="matrix(-1 0 0 .66388 157.116 9.075)"/><path d="M52.314 23.851c.977 4.636 1.139 11.3 1.686 16.244M110 58c5.143-2.889 12.958-5.58 13.141-16 .099-5.617.899-11.885-.1-19.566" style="fill:none;stroke:#907554;stroke-width:2px"/><path d="M110.639 28.6h.402l1.107.2.906.7q.905.9.905 2l-.905 2.3q-.906.8-2.013.8l-1.61-.4-.503-.4-.905-1.4v-.3l-.101-.6v-.2q.1-1 1.006-1.8l.503-.4q.503-.4 1.107-.5h.1m.906 1.7-.503-.1q-.704-.1-1.107.4-.402.3-.402.9v.3l.302.9h.1l.101.1.403.2.603.1 1.107-.4.302-1.2-.1-.6-.202-.3-.1-.1-.302-.2h-.202" fill-rule="evenodd" id="gikopoipoi_eyes_open" style="stroke-width:2.00619"/><path d="M107.798 31.7h6.3" stroke-width="3" id="gikopoipoi_eyes_closed" style="display:none" fill="none" stroke="#000" stroke-linecap="round" stroke-linejoin="round"/><defs><linearGradient id="a" x1="0" y1="0" x2="1" y2="0" gradientUnits="userSpaceOnUse" gradientTransform="rotate(-95.77 101.3 9.449) scale(67.86902)"><stop offset="0" style="stop-color:#967a57;stop-opacity:1"/><stop offset=".44" style="stop-color:#c19167;stop-opacity:1"/><stop offset="1" style="stop-color:#cc976b;stop-opacity:1"/></linearGradient></defs></svg>