<svg width="160" height="182" xmlns="http://www.w3.org/2000/svg" xml:space="preserve" style="fill-rule:evenodd;clip-rule:evenodd;stroke-linecap:round;stroke-linejoin:round"><path d="m4.2-60 1.2.55 3.85-8.6 3.9 8.6L14.4-60l3.15 3.05 1.1 1.1-.35.4.1.1c1.4 1.367 2.167 2.883 2.3 4.55l.05.6c0 1.1-.267 2.133-.8 3.1l-.25.45-1.4 1.7.1.1-.3.3-3.25.9v4.7l-1.25.2-2 .5-3.15.9.65 1.6L12.45-37c1.133-.4 2.133-.6 3-.6 1.033 0 1.75.2 2.15.6.533.533.8 1.2.8 2 0 .733-.25 1.35-.75 1.85-.7.7-2.067 1.117-4.1 1.25l-1.25.05.35 1.5 1.5-.05-.05 2.75-1.5 1.25v5.75H8.05v1.55h6.6c.467 0 .85.133 1.15.4.367.367.55.917.55 1.65 0 .7-.183 1.233-.55 1.6-.3.3-.683.45-1.15.45h-6.6v1.5h-17l-3.25-3.25v-1.7l.45-.4c.5-.4.95-.917 1.35-1.55l-1.25-1-.7.95.4-10.95 1.75-12.8.4.35.75-.7-1-1.1c-1-1.267-1.5-2.65-1.5-4.15l.05-1c.233-1.533 1.05-2.95 2.45-4.25l-.75-.75.5-3.95.65.3 3.85-8.6 3.85 8.6L.3-60h3.9m1.2 22.05-1.35-.8-1.9-.25-2 .25-2 .5-3.1.9.65 1.6L-1-37c1.133-.4 2.133-.6 3-.6 1.033 0 1.75.2 2.15.6.533.533.8 1.2.8 2 0 .733-.25 1.35-.75 1.85-.7.7-2.05 1.117-4.05 1.25l-1.3.05.35 1.5c2.633-.033 4.6-.55 5.9-1.55l.4-.35c.667-.667 1-1.617 1-2.85 0-1.2-.367-2.15-1.1-2.85" style="fill:#fff" transform="matrix(2 0 0 2 79.541 142)"/><path d="m-9.8-55.8.75.75c-1.4 1.3-2.217 2.717-2.45 4.25l-.05 1c0 1.5.5 2.883 1.5 4.15l1 1.1-.75.7-.4-.35-.6-.7c-1.2-1.467-1.8-3.1-1.8-4.9l.05-1c.233-1.867 1.15-3.533 2.75-5m-2.55 35.35.7-.95 1.25 1c-.4.633-.85 1.15-1.35 1.55l-.45.4a3.13 3.13 0 0 1-1.25.45h-.35c-.633 0-1.517-.367-2.65-1.1-.8-.433-1.433-.65-1.9-.65-.6 0-1.033.183-1.3.55l-.6.95-1.35-.75a4.495 4.495 0 0 1 1.2-1.65 2.654 2.654 0 0 1 1.95-.8c.733 0 1.483.267 2.25.8 1.1.567 1.95.85 2.55.85.433 0 .867-.217 1.3-.65m20.4 6.95V-15h6.6c.467 0 .85-.15 1.15-.45.367-.367.55-.9.55-1.6 0-.733-.183-1.283-.55-1.65-.3-.267-.683-.4-1.15-.4h-6.6v-1.55h6.65c.833 0 1.517.267 2.05.8.6.6.9 1.533.9 2.8 0 1.233-.3 2.15-.9 2.75-.533.533-1.217.8-2.05.8H8.05m6.1-16.9-1.5.05-.35-1.5 1.25-.05c2.033-.133 3.4-.55 4.1-1.25.5-.5.75-1.117.75-1.85 0-.8-.267-1.467-.8-2-.4-.4-1.117-.6-2.15-.6-.867 0-1.867.2-3 .6L9.1-35.75l-.65-1.6 3.15-.9 2-.5 1.25-.2.75-.05 1.85.25c.567.167 1.033.433 1.4.8.733.7 1.1 1.65 1.1 2.85 0 1.233-.333 2.183-1 2.85l-.4.35c-1.067.8-2.533 1.3-4.4 1.5m4.25-14.45-.1-.1 1.4-1.7.25-.45c.533-.967.8-2 .8-3.1l-.05-.6c-.133-1.667-.9-3.183-2.3-4.55l-.1-.1.35-.4h.05l.3-.35c1.7 1.567 2.617 3.367 2.75 5.4l.05.6c0 1.267-.3 2.45-.9 3.55-.467.833-1.1 1.633-1.9 2.4l-.6-.6m-13 6.9c.733.7 1.1 1.65 1.1 2.85 0 1.233-.333 2.183-1 2.85l-.4.35c-1.3 1-3.267 1.517-5.9 1.55l-.35-1.5 1.3-.05c2-.133 3.35-.55 4.05-1.25.5-.5.75-1.117.75-1.85 0-.8-.267-1.467-.8-2-.4-.4-1.117-.6-2.15-.6-.867 0-1.867.2-3 .6l-3.3 1.25-.65-1.6 3.1-.9 2-.5 2-.25 1.9.25 1.35.8" style="fill:#333" transform="matrix(2 0 0 2 79.541 142)"/><path d="M4.2-60H.3m12.3 39.35v-5.75m6.05-29.45-1.1-1.1" style="fill:none;fill-rule:nonzero;stroke:#333;stroke-width:1px" transform="matrix(2 0 0 2 79.541 142)"/><path d="M10.25-2.6H.75l-1.1-1" style="fill:none;fill-rule:nonzero;stroke:#333;stroke-width:1px" transform="matrix(2.0024 0 0 2 84.942 45.4)"/><path d="m2-1.7-2 2 1.85 1.8M0 .3V.25v2.5M0 .3l-1.85 1.8M-2-1.7 0 .25V-2.7" style="fill:none;fill-rule:nonzero;stroke:#fea5c0;stroke-width:1px" transform="matrix(2.0024 0 0 2 67.021 44.2)"/><path d="M112.508 15.594C112.508 21.889 94.184 27 71.614 27c-22.569 0-40.893-5.111-40.893-11.406C33.272 5.327 39.485.106 48.852-4.783c3.337-7.621 8.308-10.425 14.796-2.396 5.422 2.219 9.498 1.151 14.648-.183 4.562-8.062 10.604-4.996 15.493 2.579 9.014 4.478 16.557 6.079 18.719 20.377" style="fill:#ae9975;stroke:#907554;stroke-width:2.36px;stroke-miterlimit:1.5" transform="matrix(1 0 0 .66388 13.887 9.075)"/><path d="M52.314 23.851c1.671 7.927.137 18.579 4.206 24.176 17.851 24.551 58.208 22.104 65.683-5.952 1.447-5.429 1.837-11.96.838-19.641" style="fill:none;stroke:#907554;stroke-width:2px;stroke-miterlimit:1.5"/><path d="M91.25 80.14c1.706-2.626 2.622-7.462 2.432-15.398 1.38 6.503 2.82 12.774 5.539 14.112" style="fill:none;stroke:#907554;stroke-width:2px;stroke-miterlimit:1.5"/><path d="M91.736 42.111s2.296-.388 2.924-.258c2.056.426 2.53.295 3.724-.092 2.609 22.899 5.043 46.323 8.682 66.131-3.1 7.31-11.298 1.316-11.831 1.049-.939-22.049-3.499-66.83-3.499-66.83Z" style="fill:url(#a);stroke:#6f5b41;stroke-width:1.5px;stroke-miterlimit:1.5" transform="rotate(19.401 86.973 89.647)"/><ellipse cx="96.797" cy="63.516" rx=".658" ry=".534" style="stroke:#534330;stroke-width:1.5px;stroke-miterlimit:1.5" transform="rotate(19.401 8.998 87.819)"/><ellipse cx="96.797" cy="63.516" rx=".658" ry=".534" style="stroke:#534330;stroke-width:1.5px;stroke-miterlimit:1.5" transform="rotate(19.401 36.586 90.19)"/><ellipse cx="96.797" cy="63.516" rx=".658" ry=".534" style="stroke:#534330;stroke-width:1.5px;stroke-miterlimit:1.5" transform="rotate(19.401 63.613 91.514)"/><ellipse cx="96.797" cy="63.516" rx=".658" ry=".534" style="stroke:#534330;stroke-width:1.5px;stroke-miterlimit:1.5" transform="rotate(19.401 89.854 93.356)"/><path d="M94.66 93.809c5.218 2.555 7.881 1.612 10.029-.658" style="fill:none;stroke:#6f5b41;stroke-width:1.5px;stroke-miterlimit:1.5" transform="rotate(19.401 86.973 89.647)"/><path d="M94.66 93.809c5.218 1.825 6.072.862 8.22-.822" style="fill:none;stroke:#6f5b41;stroke-width:1.5px;stroke-miterlimit:1.5" transform="rotate(19.401 142.831 96.474)"/><path d="M100.29 125.133v11.43c0 3.472-2.796 6.29-6.24 6.29-3.445 0-6.241-2.818-6.241-6.29v-11.43" style="fill:#fff;stroke:#000;stroke-width:3px;stroke-linecap:butt;stroke-linejoin:miter;stroke-miterlimit:1.5" transform="rotate(-90 74.099 127.951)"/><path d="M1.357 0h.2l.554.1.452.35q.452.45.452 1L2.563 2.6Q2.11 3 1.558 3l-.804-.2-.252-.2-.452-.7v-.15L0 1.45v-.1q.05-.5.502-.9l.252-.2q.251-.2.552-.25h.05m.453.85L1.558.8q-.352-.05-.553.2-.201.15-.201.45v.15l.15.45h.051l.05.05.201.1.302.05.552-.2.151-.6-.05-.3-.1-.15-.05-.05-.151-.1h-.101M18.257 0h.2l.553.1.453.35q.452.45.452 1l-.452 1.15q-.453.4-1.005.4l-.804-.2-.252-.2-.452-.7v-.15l-.05-.3v-.1q.05-.5.502-.9l.252-.2q.251-.2.552-.25h.05m.453.85L18.458.8q-.352-.05-.553.2-.201.15-.201.45v.15l.15.45h.051l.05.05.201.1.302.05.553-.2.15-.6-.05-.3-.1-.15-.05-.05-.151-.1h-.101" style="stroke-width:1.0025" transform="matrix(2.0024 0 0 2 73.743 27)" id="gikopoipoi_eyes_open" fill-rule="evenodd"/><g id="gikopoipoi_eyes_closed" style="display:none" fill="none" stroke="#000" stroke-linecap="round" stroke-linejoin="round"><path d="M107.46 30.1h6.3" stroke-width="3"/><path d="M-.05 1.55H3.1" stroke-width="1.5" style="display:inline" transform="matrix(2 0 0 2 73.719 27)"/></g><defs><linearGradient id="a" x1="0" y1="0" x2="1" y2="0" gradientUnits="userSpaceOnUse" gradientTransform="rotate(-95.77 101.3 9.449) scale(67.86902)"><stop offset="0" style="stop-color:#967a57;stop-opacity:1"/><stop offset=".44" style="stop-color:#c19167;stop-opacity:1"/><stop offset="1" style="stop-color:#cc976b;stop-opacity:1"/></linearGradient></defs></svg>