<svg width="160" height="182" xml:space="preserve" style="fill-rule:evenodd;clip-rule:evenodd;stroke-linecap:round;stroke-linejoin:round;stroke-miterlimit:1.5" xmlns="http://www.w3.org/2000/svg"><path d="m56.158 74.774-3.337-6.156-1.438-4.559 1.373-6.522 4.135-5.647 1.446-2.354 7.328-15.628 1.194-1.257 8.576 17.368 11.82-.174 8.065-16.617 1.081-1.019 8.528 18.031 2.754 1.648 1.536 1.842 2.766 3.659.969 3.684-.133 6.316-3.977 6.408-1.748 1.413-.052 2.237 2.262 2.309 3.044 5.208-.442 6.091-4.635 5.865-.26.665-1.367 1.082 1.967 2.98 9.042 4.386 1.193 4.433-3.149 2.598-10.534.36-18.672.013-11.545 1.13-9.291-.243s-6.944-2.712-8.086-5.335c-1.251-2.876-1.565-11.919-1.565-11.919l.707-1.41-2.585-4.703-.252-7.841 4.457-5.784-.337-2.904 50.124-.044" style="fill:#fff;fill-rule:nonzero"/><path d="m79.115 69.769-10.891 3.327s-1.218 3.133 1.322 3.778l11.665-4.024z" style="fill:#732700;stroke:#732700;stroke-width:1px"/><path d="M72.442 71.418s-.62 2.523 1.935 4.34l2.323-.898s-2.743-1.22-1.93-4.236z" style="fill:#fe0;stroke:#fe0;stroke-width:.376455px"/><path d="m81.85 61.215-1.138 2.637-.481 2.744-.031 2.498.655 1.998 1.138.857 1.581.063s.889-.906.967-1.061c.078-.156.594-1.155.594-1.155s.078-2.2.078-2.385l.013-3.183 2.274-.001-.031 2.723-.041 2.619.19.951.59.87.738.517 1.076.125 1.295-.485.827-1.169.453-1.947s-.077-1.516-.077-1.685c0-.17-.281-1.824-.281-1.824s-.732-2.06-.793-2.212a82.744 82.744 0 0 0-.785-1.598l2.171.003s.658 1.389.765 1.557c.106.168.59 1.684.59 1.684l.264 1.589.139 1.95-.138 1.834-.514 1.481-.81 1.275-1.092.897-.99.399-1.389.108-1.214-.25-.934-.672-.795-1.107-.466-.779-.966 1.588-.966.796-1.636.422-1.871-.201-1.621-1.421s-.907-1.293-1-1.98a107.92 107.92 0 0 1-.249-2.202l.078-2.118s.315-1.797.406-1.934c.091-.137.802-1.8.802-1.8l.669-1.089zm21.871-10.212 2.397-1.112L95.952 28l-9.745 20.991-9.802.005L66.7 28.043l-9.979 21.65 2.369 1.171 7.595-17.034 7.868 17.261 13.612-.213 7.78-17.199zm4.032.09 3.161 3.641 1.79 3.046.873 2.638.172 1.791.048 2.78-.413 2.408s-.592 1.647-.97 2.434a14.591 14.591 0 0 1-1.003 1.762c-.675 1.017-1.449 1.967-2.233 2.902-.462.551-1.452 1.594-1.452 1.594l-1.718-1.327 2.2-2.231 1.559-2.06 1.156-2.311.593-2.089.214-2.248-.186-2.747-.778-2.7-1.03-1.794-1.372-1.681-2.367-2.512zM56.714 76.301l1.793-1.191L56 72.369l-1.874-2.97-.74-2.088-.338-1.701-.068-2.186.133-2.571.51-2.214 1.17-2.263 1.289-1.599 1.381-1.689 1.137-1.125-1.636-1.324-1.402 1.532-1.622 1.888-1.104 1.81-1.241 2.65-.715 2.396-.119 1.844-.019 2.021.132 1.423.72 2.529.86 1.942 1.358 2.063s1.015 1.379 1.558 2.04a53.58 53.58 0 0 0 1.344 1.524zm50.851.058-2.1 1.64 2.074 1.629 1.701 1.842.951 1.513.607 1.565.397 2.362-.077 2.044-.365 1.711-.862 1.847-.837 1.125-1.346 1.401-1.437 1.234-.779.624 2.075 1.584 1.621-1.664 1.555-1.599 1.136-1.445.684-1.268.749-2.113.331-2.199-.044-2.22-.562-2.548-.806-1.763-.941-1.42-1.677-1.887zm-48.324 1.677-2.087-1.589-1.811 1.718-1.569 1.653-1.17 1.534-.949 1.925-.43 1.997-.199 1.602.067 1.783.287 2.089.721 1.902 1.245 1.896 1.165 1.416 2.291 2.066.472.394 1.888-1.542-1.692-1.424-1.856-1.886-1.116-1.645-.65-1.832-.243-1.699-.057-1.838.206-1.853.574-1.58.995-1.547 1.564-1.746z" style="fill-rule:nonzero"/><path d="M60.399 100.751c.64.64 16 5.664 19.76 12.864 0 0 5.6.864 13.696-.16 0 0 2.848-12.064 11.968-12.624l.336-4.352-46.24.032s-.16 3.6.48 4.24z" style="fill:red;stroke:#000;stroke-width:1px"/><path d="M62.621 97.939c.064.64 1.792 3.072 1.792 3.072l7.552-.064 6.08 2.112 4.992 2.624 2.688 3.456-.128 3.136-12.928-1.216-11.392-6.592-2.944-6.336s4.224-.832 4.288-.192z" style="fill:#fff"/><path d="m61.2 94.1 13.255-.286s2.23-1.542 8.985-1.256c0 0 5.353-1.77 10.96.228 0 0 4.143.229 6.628 1.142l3.377.4 2.04 2.056-1.339 4.969-4.843.342s-8.411 2.17-25.425-.342l-14.21-1.026-.32-5.256z" style="stroke:#000;stroke-width:1.14998px"/><path d="M75.602 93.814s-1.338 3.884.765 6.74c0 0 8.03 2.34 23.387.513 0 0 1.338-1.428.828-6.91 0 0-3.314-1.142-6.309-1.028 0 0-4.333-2.57-10.578-.286 0 0-4.97 0-7.328.857z" style="fill:#fe0;stroke-width:.942605"/><ellipse cx="89.334" cy="96.386" rx="3.473" ry="2.256" style="fill:#fff;stroke-width:1.09193"/><path d="M89.867 97.33a.394.394 0 0 0 .106.16l.166.053.224-.127a.603.603 0 0 0 .095-.35c0-.19-.071-.42-.213-.689h.248c.142.226.213.449.213.668 0 .219-.051.388-.154.508a.468.468 0 0 1-.378.17.456.456 0 0 1-.449-.297c-.095.198-.244.297-.45.297a.47.47 0 0 1-.39-.18c-.102-.12-.153-.286-.153-.498 0-.219.075-.442.225-.668h.236c-.134.269-.201.498-.201.69a.67.67 0 0 0 .083.349c.063.084.138.127.224.127a.24.24 0 0 0 .166-.064l.106-.148.024-.244v-.381h.248v.381l.024.244m1.915-1.96.437.466h-.248l-.343-.254-.343.254h-.248l.45-.466h.295m-3.842 0 .437.466h-.248l-.343-.254-.343.254h-.248l.45-.466h.295m-2.142-.443s-1.657.743-.892 2.399l-8.157.4s-.764-1.542 1.848-1.657c0 0 3.696-.685 5.736-.57zm7.583.8.064 1.656 5.799.628s1.784-.228.255-1.485c0 0-1.912-.742-5.417-.742l-.7-.057z"/><path d="M64.426 94.956s-.7 1.2-.255 4.055c0 0-.19.514 1.784.4l3.888-.114s1.02.285 1.147-1.142l.063-2.57s.192-.857-1.593-.629zm37.048.857.382 3.77s1.53.456 2.932.228v-3.598s-.446-.743-2.04-.571z" style="fill:#fe0;stroke-width:.942605"/><path d="m65.573 97.526 4.078.057" style="fill:none;stroke:#ff0100;stroke-width:1.14998px"/><path d="m65.173 100.48-9.881-.409s-.308-3.533-.205-5.069c.102-1.536 3.123 2.56 3.123 2.56l3.686-.256 3.431-1.382 1.075-1.792-2.97 3.686.768 2.048z" style="stroke:#000;stroke-width:1.11px"/><path d="M72.425 101.512s-4.288 6.528.576 12.352l10.24.256s4.416-2.304 2.432-5.376c0 0-1.6-3.776-7.168-5.376l-5.12-1.664zm32-.576s-4.288 6.528.576 12.352l10.24.256s4.416-2.304 2.432-5.376c0 0-1.6-3.776-7.168-5.376l-5.12-1.664z" style="fill:red"/><path d="m74.153 104.712 4.416-.832m-3.136-1.472 2.432 3.136m-.712 1.168 4.416-.832m-3.136-1.472 2.432 3.136m25.288-2.832 4.416-.832m-3.136-1.472 2.432 3.136m-.712 1.168 4.416-.832m-3.136-1.472 2.432 3.136" style="fill:none;stroke:#fff;stroke-width:1.11px"/><path d="m80.148 102.978 2.079.974 2.329 1.535 1.681 1.983.792 1.874.08 1.993-.269 1.127-1.051 1.427-2.061 1.062-3.248.228-8.395-.054-.386-2.573 6.117.459 2.517.054 2.827-.455 1.05-.807.535-1.198-.105-1.577-.646-1.184-1.223-1.374-1.453-.902-3.624-1.608-4.084-1.45-1.374-.39-1.262-.402 1.955-2.384.633.744 3.287 1.309zm32-1 2.079.974 2.329 1.535 1.681 1.983.792 1.874.08 1.993-.269 1.127-1.051 1.427-2.061 1.062-3.248.228-8.395-.054-.386-2.573 6.117.459 2.517.054 2.827-.455 1.05-.807.535-1.198-.105-1.577-.646-1.184-1.223-1.374-1.453-.902-3.624-1.608-4.084-1.45-1.374-.39-1.262-.402 1.955-2.384.633.744 3.287 1.309z" style="fill-rule:nonzero"/><path d="M57.64 97.181s2.8 2.32 7.44-.88c0 0 2.72-.88-1.12-6.64" style="fill:none"/><clipPath id="a"><path d="M57.64 107.181s2.8 2.32 7.44-.88c0 0 2.72-.88-1.12-6.64"/></clipPath><g clip-path="url(#a)" transform="translate(0 -10)"><path d="M65.693 102.435s.704 3.2 0 3.84c-.704.64-4.928 1.984-4.928 1.984l-3.648-1.6.256-4.608 3.904-2.176 2.752.256z" style="fill:#fff"/></g><path d="M57.64 97.181s2.8 2.32 7.44-.88c0 0 2.72-.88-1.12-6.64m40.639-7.52s2.88 11.84.16 17.52m3.28-3.2-2.48 2.32" style="fill:none;stroke:#000;stroke-width:2.31px"/><path d="m77.152 94.985.409.492s3.605-1.188 7.209-.696c0 0 4.629-2.95 9.462.041 0 0 3.686-.082 5.488 1.024l.082-.902s-2.293-.696-5.079-.614c0 0-2.334-1.352-4.341-1.27 0 0-2.294-.245-4.916.615l-.86.45s-2.949-.123-6.676.656z" style="stroke:#000;stroke-width:.38px"/><path d="m64.504 58.535-1.483-.928 4.48-2.186 2.408 1.506zm40.176-3.722-.68 1.546-5.195 1.687 1.156-2.634z" style="fill-rule:nonzero"/><path d="m75.561 102.664 1.856 3.264" style="fill:none"/><g id="gikopoipoi_eyes_open" style="display:inline" transform="translate(-.022 -16.485)"><circle cx="68.024" cy="78.852" r="2.118" style="display:inline"/><circle cx="101.399" cy="78.901" r="2.118" style="display:inline"/></g><path d="M98.737 62.848c1.238.875 4.142.764 5.267-.024m-38.536-.025c1.238.875 4.142.764 5.267-.024" style="display:none;stroke-width:2.14607;stroke-dasharray:none" id="gikopoipoi_eyes_closed" stroke-width="3" fill="none" stroke="#000" stroke-linecap="round" stroke-linejoin="round"/></svg>