<?xml version="1.0" encoding="UTF-8" standalone="no"?>
<!DOCTYPE svg PUBLIC "-//W3C//DTD SVG 1.1//EN" "http://www.w3.org/Graphics/SVG/1.1/DTD/svg11.dtd">
<svg width="431px" height="139px" version="1.1" xmlns="http://www.w3.org/2000/svg" xmlns:xlink="http://www.w3.org/1999/xlink" xml:space="preserve" xmlns:serif="http://www.serif.com/" style="fill-rule:evenodd;clip-rule:evenodd;stroke-linecap:round;stroke-linejoin:round;stroke-miterlimit:1.5;">
    <g>
        <!-- right sofa-->
        <g>
            <path d="M418.854,32.996L418.869,43.316" style="fill:none;stroke:#1d1d1d;stroke-width:7.5px;"/>
            <path d="M418.854,32.996L418.869,43.316" style="fill:none;stroke:#212121;stroke-width:6px;"/>
            <path d="M338.704,73.339L338.72,83.658" style="fill:none;stroke:#1d1d1d;stroke-width:7.5px;"/>
            <path d="M338.704,73.339L338.72,83.658" style="fill:none;stroke:#212121;stroke-width:6px;"/>
            <path d="M226.387,97.095L226.403,107.999" style="fill:none;stroke:#1d1d1d;stroke-width:7.5px;"/>
            <path d="M226.387,97.095L226.403,107.999" style="fill:none;stroke:#212121;stroke-width:6px;"/>
            <path d="M257.938,113.454L257.953,123.774" style="fill:none;stroke:#1d1d1d;stroke-width:7.5px;"/>
            <path d="M257.938,113.454L257.953,123.774" style="fill:none;stroke:#212121;stroke-width:6px;"/>
            <path d="M387.352,0.448L215.362,86.443L258.359,107.942L429.862,21.955C416.746,11.407 402.965,3.813 387.352,0.448Z" style="fill:#330807;stroke:#220100;stroke-width:0.75px;"/>
            <path d="M372.817,27.675C369.865,26.199 362.409,25.134 359.458,26.61C356.506,28.086 359.168,31.548 362.12,33.024C365.072,34.5 372.528,35.92 375.48,34.444C378.432,32.968 375.769,29.151 372.817,27.675Z" style="fill:#2d0706;"/>
            <path d="M328.301,49.933C325.35,48.457 317.894,47.392 314.942,48.868C311.99,50.344 314.653,53.806 317.604,55.282C320.556,56.758 328.012,58.178 330.964,56.702C333.916,55.226 331.253,51.409 328.301,49.933Z" style="fill:#2d0706;"/>
            <path d="M283.786,72.191C280.834,70.715 273.378,69.65 270.426,71.126C267.474,72.602 270.137,76.064 273.089,77.54C276.041,79.015 283.496,80.436 286.448,78.96C289.4,77.484 286.738,73.667 283.786,72.191Z" style="fill:#2d0706;"/>
            <path d="M369.008,31.119C368.104,30.667 366.638,30.667 365.734,31.119C364.831,31.571 364.831,32.304 365.734,32.756C366.638,33.207 368.104,33.207 369.008,32.756C369.911,32.304 369.911,31.571 369.008,31.119Z" style="fill:#330807;stroke:#220100;stroke-width:0.75px;"/>
            <path d="M324.492,53.377C323.589,52.925 322.122,52.925 321.219,53.377C320.315,53.829 320.315,54.562 321.219,55.013C322.122,55.465 323.589,55.465 324.492,55.013C325.395,54.562 325.395,53.829 324.492,53.377Z" style="fill:#330807;stroke:#220100;stroke-width:0.75px;"/>
            <path d="M279.976,75.635C279.073,75.183 277.606,75.183 276.703,75.635C275.8,76.086 275.8,76.82 276.703,77.271C277.606,77.723 279.073,77.723 279.976,77.271C280.879,76.82 280.879,76.086 279.976,75.635Z" style="fill:#330807;stroke:#220100;stroke-width:0.75px;"/>
            <path d="M215.362,86.443L215.362,97.16L258.424,118.691L258.424,107.974C243.176,95.133 228.916,88.549 215.362,86.443Z" style="fill:#2e0706;stroke:#220100;stroke-width:0.75px;"/>
            <path d="M258.424,107.844L258.424,118.578L429.862,32.859L429.862,22.125L258.424,107.844Z" style="fill:#2e0706;stroke:#220100;stroke-width:0.75px;"/>
        </g>
    </g>
</svg>
