<svg height="182" width="160" xmlns="http://www.w3.org/2000/svg"><path d="m120.113 74.684 6.64-.94 5.84 5.06-3.654 7.444-7.172 1.37z" fill="#fff" fill-opacity=".999" fill-rule="evenodd"/><path d="m57.53 31.827-1.1-.5 10.1-22 10.2 22-2.5 1.1-7.7-17.2-7.7 17.2-1.3-.6m-13.122 78.697q-1.4.9-3.2.9-2 0-5.4-2.2l-3.8-1.3q-1.7 0-2.6 1.1l-1.2 1.9-2.7-1.5 2.4-3.3q1.7-1.6 3.9-1.6t4.6 1.6q3.3 1.7 5.1 1.7 1.2 0 2.6-1.3l1.4-1.9 2.5 2q-1.2 1.9-2.7 3.1l-.9.8"/><path d="m66.53 15.227-7.7 17.201-1.3-.602-.263 2.084c-10.691 7.25-18.494 20.254-20.201 33.026-1.065 7.958-.675 16.11.144 24.103 1.264 12.334 7.198 23.734 16.861 28.948.694.818 1.72 1.35 3.207 1.447.375.138.755.266 1.14.387 6.161 1.926 8.843 1.493 17.33 1.277 3.37-.086 10.17-.571 15.333-.059.17.017.324.048.488.07l.207.186.34 10.637v3.1c-.066.933.2 1.698.8 2.298.666.734 1.767 1.102 3.3 1.102 1.4 0 6.466-.368 7.2-1.102.6-.6.9-1.365.9-2.299v-3.1l1-11 .767-.478-.008-.04c9.076-4.853 15.26-16.786 16.59-30.89 1.225-12.98.972-26.537-2.824-39.01-1.383-4.544-3.282-9.31-6.39-12.905l.08-.08-1.069-.975a17.494 17.494 0 0 0-1.232-1.125l-6.3-6.102-2.5 1.102-7.7-17.201-7.8 17.201-2.4-1.102h-7.8l-1.971.87c-.208 0-.429-.005-.635-.004z" fill="#fff" fill-opacity=".999" fill-rule="evenodd"/><path d="M105.316 122.931v13.2q0 2.5-1.6 4.1-1.8 1.8-5.5 1.8-3.9 0-5.7-1.8-1.6-1.6-1.6-4.1v-13.2h3.2v13.1q-.1 1.4.8 2.3 1 1.1 3.3 1.1 2.1 0 3.2-1.1.9-.9.9-2.3v-13.1h3m17.921-50.842 1.5-.1q4.4 0 6.5 2.1 2.2 2.1 2.2 5.7 0 3.7-2 5.7l-.8.7q-3.1 2.4-8.8 3l-3 .1-.7-3 2.5-.1q6.1-.4 8.2-2.5 1.5-1.5 1.5-3.7 0-2.4-1.6-4-1.2-1.2-4.3-1.2l-6 1.2-6.6 2.5-1.3-3.2 6.2-1.8 6.5-1.4m-9.707-32.562.415-.69c1.765 1.437 4.522 6.22 5.896 13.677-3.084-6.949-3.993-8.897-7.211-12.087l.8-.8.1-.1m-29-8.2 10.2-22 10.2 22-2.5 1.1-7.7-17.2-7.8 17.2-2.4-1.1"/><path d="M76.73 31.327h7.8m26.7 6.1 2.2 2.2" fill="none" stroke="#000" stroke-linecap="round" stroke-linejoin="round" stroke-width="2"/><path d="M56.302 31.762S40.336 43.548 37.065 66.936c8.92-27.743 20.801-33.444 20.801-33.444zm2.185 90.074s-20.74-2.996-21.278-30.797c5.273 24.887 14.573 25.168 21.277 30.797zm47.596.617s15.15-6.616 16.583-30.929c-4.475 15.08-8.207 20.967-16.583 30.929z" fill-opacity=".999" fill-rule="evenodd"/><path d="M102.53 64.127h-1.5l1.1-2.9h-1.1v-2.9h3v2.7l-1.5 3.1m-5.8 0h-1.5l1.1-2.9h-1.1v-2.9h3v2.7l-1.5 3.1m8.2-32.8-2.5 1.1-7.7-17.2-7.7 17.2-2.4-1.1 10.1-22 10.2 22"/><path d="M106.889 36.327h.402l1.107.2.906.7q.905.9.905 2l-.905 2.3q-.906.8-2.013.8l-1.61-.4-.503-.4-.905-1.4v-.3l-.101-.6v-.2q.1-1 1.006-1.8l.503-.4q.503-.4 1.107-.5h.1m.906 1.7-.503-.1q-.704-.1-1.107.4-.402.3-.402.9v.3l.302.9h.1l.101.1.402.2.604.1 1.107-.4.302-1.2-.1-.6-.202-.3-.1-.1-.302-.2h-.202" fill-rule="evenodd" id="gikopoipoi_eyes_open" style="display:inline;stroke-width:2.00619"/><path d="M104.048 39.427h6.3" stroke-width="3" id="gikopoipoi_eyes_closed" style="display:none" fill="none" stroke="#000" stroke-linecap="round" stroke-linejoin="round"/></svg>