<svg height="182" width="160" xmlns="http://www.w3.org/2000/svg"><path d="m57.53 31.827-1.1-.5 10.1-22 10.2 22-2.5 1.1-7.7-17.2-7.7 17.2-1.3-.6m-13.122 78.697q-1.4.9-3.2.9-2 0-5.4-2.2l-3.8-1.3q-1.7 0-2.6 1.1l-1.2 1.9-2.7-1.5 2.4-3.3q1.7-1.6 3.9-1.6t4.6 1.6q3.3 1.7 5.1 1.7 1.2 0 2.6-1.3l1.4-1.9 2.5 2q-1.2 1.9-2.7 3.1l-.9.8"/><g fill="#fff" fill-rule="evenodd"><path d="M98.88 121.434c13.083-1.15 22.394-15.444 24.064-33.144 1.224-12.98.694-23.303-3.103-35.776-1.686-5.54-4.134-11.414-8.611-15.087-7.887-6.47-50.426-5.847-53.364-3.935-11.002 7.163-19.06 20.432-20.8 33.444-1.065 7.959-.676 16.11.143 24.103 1.444 14.088 7.846 27.767 20.562 30.492 6.313 1.352 15.268-.93 23.753-1.146 5.58-.142 12.145 1.507 17.355 1.049z" fill-opacity=".999"/><path d="M76.73 31.327h7.8l2.4 1.1 7.8-17.2 7.7 17.2 2.5-1.1 6.3 6.1 2.3 2.1-.1.1-.8.8.2.2c2.8 2.733 4.367 5.767 4.7 9.1v1.2c0 2.2-.533 4.267-1.6 6.2l-.5.9-2.8 3.4.3.3-.6.5-6.5 1.8v9.4l-6.5 1.4-6.2 1.8 1.3 3.2 6.6-2.5 6-1.2c2.067 0 3.5.4 4.3 1.2 1.067 1.067 1.6 2.4 1.6 4 0 1.467-.5 2.7-1.5 3.7-1.4 1.4-4.133 2.233-8.2 2.5l-2.5.1.7 3 3-.1-.1 5.5 9.854 14.242 1.48 7.991-10.017 3.207c-7.982-1.666-10.132-1.703-13.959-.961l-5.243-.517-8.021.89-6.844 2.95-1.096 13.439c-.076.93-.854 1.76-1.454 2.36-.733.732-1.8 1.1-3.2 1.1-1.467 0-2.567-.368-3.3-1.1-.6-.6-1.605-1.25-1.538-2.183l.237-4.93-2.599-.288.935-8.66-.761-1.536-.94-.571c-4.806.057-5.26-4.019-5.234-7.833 1-.8 1.9-1.833 2.7-3.1l-2.5-2-1.4 1.9.8-21.9 3.5-25.6.8.7 1.5-1.4-2-2.2c-2.067-2.533-3.067-5.3-3-8.3l.1-2c.467-3.067 2.1-5.9 4.9-8.5l-1.5-1.5 1-7.9 1.3.6 7.7-17.2 7.7 17.2 2.5-1.1m20.2 29.4v3.8h2.6v-6.5h-2.3v-18.9h-12.4v7.7l-.1 2.2-.9 4.9-2 4.1h-1.9v6.6h2.7v-3.9h14.3m-12.1-2.7 1-1.8 1.8-7.1v-.1l.1-.7v-6.5h6.8v16.2h-9.7m28.6-18.4-2.2-2.2 2.2 2.2m-26.5 35.8c-1.4-1.4-3.567-2.1-6.5-2.1l-8 1.5-6.2 1.8 1.3 3.2 6.6-2.5 6-1.2c2.067 0 3.5.4 4.3 1.2 1.067 1.067 1.6 2.4 1.6 4 0 1.467-.5 2.7-1.5 3.7-1.4 1.4-4.1 2.233-8.1 2.5l-2.6.1.7 3c5.267-.067 9.2-1.1 11.8-3.1l.9-.7c1.333-1.333 2-3.233 2-5.7-.067-2.4-.833-4.3-2.3-5.7m-25.3-11.3 1.5-3.1v-2.7h-3v2.9h1.1l-1.1 2.9h1.5m4.3-2.9h1.1l-1.1 2.9h1.5l1.5-3.1v-2.7h-3v2.9"/></g><path d="M61.63 64.127h-1.5l1.1-2.9h-1.1v-2.9h3v2.7l-1.5 3.1m4.3-2.9v-2.9h3v2.7l-1.5 3.1h-1.5l1.1-2.9h-1.1m13.3 12.9q2.2 2.1 2.3 5.7 0 3.7-2 5.7l-.9.7q-3.9 3-11.8 3.1l-.7-3 2.6-.1q6-.4 8.1-2.5 1.5-1.5 1.5-3.7 0-2.4-1.6-4-1.2-1.2-4.3-1.2l-6 1.2-6.6 2.5-1.3-3.2 6.2-1.8 8-1.5q4.4 0 6.5 2.1m-9.3 49.1h3v13.2q0 2.5-1.6 4.1-1.8 1.8-5.5 1.8-3.8 0-5.6-1.8-1.7-1.6-1.6-4.1v-13.2h3.1v13.1q-.1 1.4.8 2.3 1.1 1.1 3.3 1.1 2.1 0 3.2-1.1.9-.9.9-2.3v-13.1m39.307-51.138 1.5-.1q4.4 0 6.5 2.1 2.2 2.1 2.2 5.7 0 3.7-2 5.7l-.8.7q-3.1 2.4-8.8 3l-3 .1-.7-3 2.5-.1q6.1-.4 8.2-2.5 1.5-1.5 1.5-3.7 0-2.4-1.6-4-1.2-1.2-4.3-1.2l-6 1.2-6.6 2.5-1.3-3.2 6.2-1.8 6.5-1.4m4.293-32.562.415-.69c1.765 1.437 4.522 6.22 5.896 13.677-3.084-6.949-3.993-8.897-7.211-12.087l.8-.8.1-.1m-29-8.2 10.2-22 10.2 22-2.5 1.1-7.7-17.2-7.8 17.2-2.4-1.1"/><path d="M76.73 31.327h7.8m26.7 6.1 2.2 2.2" fill="none" stroke="#000" stroke-linecap="round" stroke-linejoin="round" stroke-width="2"/><path d="M56.302 31.762S40.336 43.548 37.065 66.936c8.92-27.743 20.801-33.444 20.801-33.444zm2.185 90.074s-20.74-2.996-21.278-30.797c5.273 24.887 14.573 25.168 21.278 30.797z" fill-opacity=".999" fill-rule="evenodd"/><path d="M84.829 39.127v7.7l-.1 2.2-.9 4.9-2 4.1h-1.898v6.5h2.699v-3.9h14.3v3.9h2.6v-6.5h-2.3v-18.9zm2.801 2.6h6.9v16.3h-9.9l.1-.1 1-1.8 1.8-7.1v-.1l.1-.7zm9.704 79.538v-1.9h13.2q1.4 0 2.3-.9 1.1-1.1 1.1-3.2 0-2.2-1.1-3.3l-2.3-.8h-13.2v-3.1h13.3q2.5 0 4.1 1.6 1.8 1.8 1.8 5.6 0 3.7-1.8 5.5l-.6.5q-1.5 1.1-3.5 1.1h-13.3v-1.1"/><path d="M122.665 91.524c-2.45 8.256-4.748 13.72-7.637 18.643-.963 1.262-1.08 2.294-.846 3.023.077.241 1.386.778 2.018-.375 3.115-4.77 5.892-11.567 6.465-21.29z" fill-opacity=".999" fill-rule="evenodd"/><g style="display:inline" fill-rule="evenodd"><path d="M1.357 0h.2l.554.1.452.35q.452.45.452 1L2.563 2.6Q2.11 3 1.558 3l-.804-.2-.252-.2-.452-.7v-.15L0 1.45v-.1q.05-.5.502-.9l.252-.2q.251-.2.552-.25h.05m.453.85L1.558.8q-.352-.05-.553.2-.201.15-.201.45v.15l.15.45h.051l.05.05.201.1.302.05.552-.2.151-.6-.05-.3-.1-.15-.05-.05-.151-.1h-.101M18.257 0h.2l.553.1.453.35q.452.45.452 1l-.452 1.15q-.453.4-1.005.4l-.804-.2-.252-.2-.452-.7v-.15l-.05-.3v-.1q.05-.5.502-.9l.252-.2q.251-.2.552-.25h.05m.453.85L18.458.8q-.352-.05-.553.2-.201.15-.201.45v.15l.15.45h.051l.05.05.201.1.302.05.553-.2.15-.6-.05-.3-.1-.15-.05-.05-.151-.1h-.101" style="stroke-width:1.0025" transform="matrix(2.0024 0 0 2 70.332 36.327)" id="gikopoipoi_eyes_open"/></g><g id="gikopoipoi_eyes_closed" style="display:none" fill="none" stroke="#000" stroke-linecap="round" stroke-linejoin="round"><path d="M104.049 39.427h6.3" stroke-width="3"/><path d="M-.05 1.55H3.1" stroke-width="1.5" style="display:inline" transform="matrix(2 0 0 2 70.308 36.327)"/></g></svg>