<svg height="182" width="160" xmlns="http://www.w3.org/2000/svg"><path d="m57.53 31.827-1.1-.5 10.1-22 10.2 22-2.5 1.1-7.7-17.2-7.7 17.2-1.3-.6m-13.122 78.697q-1.4.9-3.2.9-2 0-5.4-2.2l-3.8-1.3q-1.7 0-2.6 1.1l-1.2 1.9-2.7-1.5 2.4-3.3q1.7-1.6 3.9-1.6t4.6 1.6q3.3 1.7 5.1 1.7 1.2 0 2.6-1.3l1.4-1.9 2.5 2q-1.2 1.9-2.7 3.1l-.9.8"/><path d="m66.53 15.227-7.7 17.2-1.3-.6-.263 2.083c-10.69 7.25-18.493 20.253-20.2 33.026-1.065 7.958-.677 16.11.142 24.103 1.327 12.95 6.85 25.548 17.609 29.615.65.453 1.494.732 2.578.785.061.015.12.032.182.045-.184.035-.138.135 1.582.47.726.14 1.645.179 2.668.165 5.625.548 12.335.215 19.76.233 5.58.013 18.063-.146 20.336-1.264.226-.111.489-.29.769-.5 4.538.89 8.597 1.524 8.932.467l3.818-7.131-1.105-1.207c3.101-1.749 6.85-6.907 8.328-21.192 1.341-12.968.972-26.539-2.825-39.011-1.383-4.545-3.281-9.314-6.39-12.909l.08-.078-1.068-.974a17.494 17.494 0 0 0-1.233-1.125l-6.3-6.102-2.5 1.102-7.7-17.201-7.8 17.2-2.399-1.1h-7.8l-1.972.868c-.208 0-.428-.005-.634-.004z" fill="#fff" fill-opacity=".999" fill-rule="evenodd"/><path d="M61.63 64.127h-1.5l1.1-2.9h-1.1v-2.9h3v2.7l-1.5 3.1m4.3-2.9v-2.9h3v2.7l-1.5 3.1h-1.5l1.1-2.9h-1.1m13.3 12.9q2.2 2.1 2.3 5.7 0 3.7-2 5.7l-.9.7q-3.9 3-11.8 3.1l-.7-3 2.6-.1q6-.4 8.1-2.5 1.5-1.5 1.5-3.7 0-2.4-1.6-4-1.2-1.2-4.3-1.2l-6 1.2-6.6 2.5-1.3-3.2 6.2-1.8 8-1.5q4.4 0 6.5 2.1m-17.668 37.14v-3h13.2q2.5 0 4.1 1.6 1.8 1.8 1.8 5.5 0 3.8-1.8 5.6-1.6 1.7-4.1 1.6h-13.2v-3.1h13.1q1.4.1 2.3-.8 1.1-1.1 1.1-3.3 0-2.1-1.1-3.2-.9-.9-2.3-.9h-13.1m47.675-39.178 1.5-.1q4.4 0 6.5 2.1 2.2 2.1 2.2 5.7 0 3.7-2 5.7l-.8.7q-3.1 2.4-8.8 3l-3 .1-.7-3 2.5-.1q6.1-.4 8.2-2.5 1.5-1.5 1.5-3.7 0-2.4-1.6-4-1.2-1.2-4.3-1.2l-6 1.2-6.6 2.5-1.3-3.2 6.2-1.8 6.5-1.4m4.293-32.562.415-.69c1.765 1.437 4.522 6.22 5.896 13.677-3.084-6.949-3.993-8.897-7.211-12.087l.8-.8.1-.1m-29-8.2 10.2-22 10.2 22-2.5 1.1-7.7-17.2-7.8 17.2-2.4-1.1"/><path d="M76.73 31.327h7.8m26.7 6.1 2.2 2.2" fill="none" stroke="#000" stroke-linecap="round" stroke-linejoin="round" stroke-width="2"/><path d="M56.302 31.762S40.336 43.548 37.065 66.936c8.92-27.743 20.801-33.444 20.801-33.444zm2.185 90.074s-20.74-2.996-21.278-30.797c5.273 24.887 14.573 25.168 21.278 30.797z" fill-opacity=".999" fill-rule="evenodd"/><path d="M84.829 39.127v7.7l-.1 2.2-.9 4.9-2 4.1h-1.898v6.5h2.699v-3.9h14.3v3.9h2.6v-6.5h-2.3v-18.9zm2.801 2.6h6.9v16.3h-9.9l.1-.1 1-1.8 1.8-7.1v-.1l.1-.7zm9.705 79.538v-1.9h13.2c.933 0 1.7-.3 2.3-.9.733-.734 1.1-1.8 1.1-3.2 0-1.467-.367-2.567-1.1-3.3-1.683-.883-1.735-.669-2.3-.8h-13.2v-3.1h13.3c1.667 0 3.033.533 4.1 1.6 1.2 1.2 1.8 3.066 1.8 5.6 0 2.466-.6 4.3-1.8 5.5l-.6.5c-1 .733-2.167 1.1-3.5 1.1h-13.3v-1.1"/><path d="M122.666 91.525c-2.45 8.255-4.748 13.72-7.637 18.642-.964 1.262-1.081 2.294-.846 3.023.077.241 1.386.778 2.018-.374 3.115-4.772 5.892-11.568 6.465-21.291z" fill-opacity=".999" fill-rule="evenodd"/><path d="M1.357 0h.2l.554.1.452.35q.452.45.452 1L2.563 2.6Q2.11 3 1.558 3l-.804-.2-.252-.2-.452-.7v-.15L0 1.45v-.1q.05-.5.502-.9l.252-.2q.251-.2.552-.25h.05m.453.85L1.558.8q-.352-.05-.553.2-.201.15-.201.45v.15l.15.45h.051l.05.05.201.1.302.05.552-.2.151-.6-.05-.3-.1-.15-.05-.05-.151-.1h-.101M18.257 0h.2l.553.1.453.35q.452.45.452 1l-.452 1.15q-.453.4-1.005.4l-.804-.2-.252-.2-.452-.7v-.15l-.05-.3v-.1q.05-.5.502-.9l.252-.2q.251-.2.552-.25h.05m.453.85L18.458.8q-.352-.05-.553.2-.201.15-.201.45v.15l.15.45h.051l.05.05.201.1.302.05.553-.2.15-.6-.05-.3-.1-.15-.05-.05-.151-.1h-.101" style="display:inline;stroke-width:1.0025" transform="matrix(2.0024 0 0 2 70.332 36.327)" id="gikopoipoi_eyes_open"/><g id="gikopoipoi_eyes_closed" style="display:none" fill="none" stroke="#000" stroke-linecap="round" stroke-linejoin="round"><path d="M104.049 39.427h6.3" stroke-width="3"/><path d="M-.05 1.55H3.1" stroke-width="1.5" style="display:inline" transform="matrix(2 0 0 2 70.308 36.327)"/></g></svg>