<svg xmlns="http://www.w3.org/2000/svg" width="115.45" height="106.95"><defs><style>.cls-1{fill:#5c5867}.cls-1,.cls-2{stroke:#2c2e2b}.cls-1,.cls-11,.cls-12,.cls-2,.cls-6,.cls-8{stroke-linecap:round;stroke-linejoin:round;stroke-width:.5px}.cls-2{fill:#746f81}.cls-12,.cls-6{fill:#414040}.cls-11,.cls-6,.cls-8{stroke:#757e86}.cls-8{fill:#565253}.cls-11{fill:#757e86}.cls-12{stroke:#696969}.cls-13{fill:#090a0c}.cls-15{fill:#38383b}</style></defs><g id="レイヤー_2" data-name="レイヤー 2"><g id="table_set_1"><g id="table"><path class="cls-1" d="m35.65 106.7 4-2V67.89l-4 2.01v36.8z"/><path class="cls-2" d="m35.65 106.7-4-2V67.89l4 2v36.81zM4.25 91l-4-2V52.26l4 2V91z"/><path class="cls-1" d="m4.25 91 4-2V59.81l-4-2V91z"/><path class="cls-2" d="m31.65 71.51-27.4-13.7v-3.55l27.4 13.71v3.54z"/><path style="fill:#ac885c;stroke-width:.5px;stroke-linecap:round;stroke-linejoin:round;stroke:#2c2e2b" d="M.25 52.26v-4l35.4 17.7v4.01L.25 52.26z"/><path class="cls-1" d="m111.2 68.92 4-2-.15-36.67-3.85 1.93v36.74z"/><path class="cls-2" d="m111.2 68.92-4-2V34.18l4 1.55v33.19z"/><path class="cls-1" d="m39.65 71.51 71.55-35.78v-3.55L39.65 67.97v3.54z"/><path style="fill:#8f704d;stroke-width:.5px;stroke-linecap:round;stroke-linejoin:round;stroke:#2c2e2b" d="m115.05 26.25-79.4 39.71-35.4-17.7 79.4-39.71 35.4 17.7z"/><path style="fill:#795f42;stroke-width:.5px;stroke-linecap:round;stroke-linejoin:round;stroke:#2c2e2b" d="m35.65 69.97 79.4-39.72v-4l-79.4 39.71v4.01z"/></g><g id="ham"><path class="cls-6" d="m105.11 30.25-30 15.01v-15l30-15.01v15z"/><path style="fill:#22b573;stroke:#757e86;stroke-width:.5px;stroke-linecap:round;stroke-linejoin:round" d="m95.06 21.18-10.67 5.34v3.43l10.67-5.34v-3.43z"/><path class="cls-8" d="m96.44 24.85 7.13-3.56a.82.82 0 0 0 .43-.65v-.14c0-.24-.19-.33-.43-.21l-7.13 3.56a.82.82 0 0 0-.44.65v.14c0 .23.2.36.44.21Zm0 1.62 7.13-3.57a.81.81 0 0 0 .43-.65v-.13c0-.24-.19-.34-.43-.22l-7.13 3.57a.82.82 0 0 0-.44.65v.13c0 .24.2.34.44.22Zm0 1.61 7.13-3.56a.81.81 0 0 0 .43-.65v-.14c0-.23-.19-.33-.43-.21l-7.13 3.56a.84.84 0 0 0-.44.66v.13c0 .24.2.33.44.21Zm0 1.62 7.13-3.57a.81.81 0 0 0 .43-.65v-.13c0-.24-.19-.34-.43-.22l-7.13 3.57a.82.82 0 0 0-.44.65v.13c0 .24.2.34.44.22Zm0 1.62 7.13-3.57a.81.81 0 0 0 .43-.65V27c0-.24-.19-.34-.43-.22l-7.13 3.57A.82.82 0 0 0 96 31v.13c0 .21.2.31.44.19Zm0 1.61 7.13-3.56a.83.83 0 0 0 .43-.66v-.13c0-.24-.19-.33-.43-.21l-7.13 3.56a.82.82 0 0 0-.44.65v.14c0 .28.2.33.44.21Z"/><path class="cls-6" d="m90.11 39.17 6.55-9.42L93 27.91l-.13-.07h0a3.62 3.62 0 0 0-3.1.3 8.46 8.46 0 0 0-4.5 6.75 2.74 2.74 0 0 0 1 2.37h0a2.16 2.16 0 0 0 .55.27Z"/><ellipse class="cls-8" cx="93.56" cy="34.56" rx="5.76" ry="3.51" transform="rotate(-52.02 93.56 34.564)"/><path d="M81.11 78.39c-.63 0-.83-.52-1-1.47-.37.92-.67 1.4-1.33 1.23s-.69-.7-.6-1.66c-.59.76-1 1.11-1.58.79s-.49-.84-.17-1.71c-.73.56-1.21.79-1.68.35s-.28-.91.21-1.64c-.81.36-1.31.46-1.66 0s-.1-.93.5-1.52c-.82.19-1.31.17-1.56-.38a.78.78 0 0 1 .21-1 .67.67 0 0 1-.77-.55.74.74 0 0 1 0-.51.78.78 0 0 1-.24-.45.77.77 0 0 1 0-.48.72.72 0 0 1-.2-.43.69.69 0 0 1 0-.46.74.74 0 0 1-.18-.43.75.75 0 0 1 0-.46.81.81 0 0 1-.17-.42.84.84 0 0 1 .06-.46.73.73 0 0 1-.16-.42.79.79 0 0 1 .06-.45.79.79 0 0 1-.15-.43.71.71 0 0 1 .07-.45.71.71 0 0 1-.14-.43.78.78 0 0 1 .07-.45.78.78 0 0 1-.13-.43.81.81 0 0 1 .08-.46.72.72 0 0 1-.12-.44.73.73 0 0 1 .1-.46.78.78 0 0 1 .63-1.2.71.71 0 0 1 .32.07l1.18.11c1.72.15 2.24.19 2.25.94a.76.76 0 0 1-.06.39 1 1 0 0 1 .09.39.79.79 0 0 1-.06.4.94.94 0 0 1 .11.4.81.81 0 0 1-.06.4.94.94 0 0 1 .12.4.86.86 0 0 1 0 .41.86.86 0 0 1 .12.4.84.84 0 0 1 0 .4.86.86 0 0 1 .13.39.88.88 0 0 1 0 .41.81.81 0 0 1 .13.38.86.86 0 0 1 0 .4.94.94 0 0 1 .14.38 1 1 0 0 1 0 .39.85.85 0 0 1 .15.36 1.24 1.24 0 0 1 0 .38.84.84 0 0 1 .14.33.82.82 0 0 1 0 .33 1 1 0 0 1 .14.29.76.76 0 0 1-.17.83.74.74 0 0 1 .73.42.73.73 0 0 1 0 .79.77.77 0 0 1 .75.28.76.76 0 0 1 .17.73.78.78 0 0 1 .73.12.76.76 0 0 1 .33.61.84.84 0 0 1 1.16.43.75.75 0 0 1 .62-.19.72.72 0 0 1 .55.29.74.74 0 0 1 .53-.34.72.72 0 0 1 .61.11.79.79 0 0 1 .39-.49.77.77 0 0 1 .66-.06.77.77 0 0 1 .25-.62.74.74 0 0 1 .69-.23.77.77 0 0 1 .07-.73.81.81 0 0 1 .72-.39.77.77 0 0 1-.12-.81.82.82 0 0 1 .81-.53.88.88 0 0 1-.39-.92c.1-.49.46-.66 1.09-.75-.58-.27-.88-.55-.83-1s.44-.74 1.14-.88c-.67-.24-1-.51-1-1s.41-.78 1.12-1c-.7-.21-1.08-.46-1.08-1s.4-.79 1.12-1c-.73-.2-1.12-.43-1.14-1s.38-.81 1.1-1c-.74-.17-1.14-.39-1.17-.95s.35-.82 1.07-1.07c-.74-.16-1.15-.37-1.19-.93s.33-.83 1-1.09c-.75-.14-1.17-.35-1.22-.9s.31-.84 1-1.12c-.75-.12-1.17-.32-1.23-.87s.28-.84 1-1.13c-.74-.1-1.15-.28-1.24-.83s.25-.83.89-1.15c-.71-.06-1.11-.22-1.22-.74a.94.94 0 0 1 0-.28 1 1 0 0 1-.13-.27.9.9 0 0 1 0-.35.73.73 0 0 1-.18-.3.92.92 0 0 1-.08-.37.83.83 0 0 1-.2-.31 1 1 0 0 1-.09-.38 1 1 0 0 1-.22-.31.84.84 0 0 1-.09-.38.92.92 0 0 1-.24-.32A.83.83 0 0 1 83 46a.88.88 0 0 1-.24-.31.89.89 0 0 1-.11-.38 1 1 0 0 1-.25-.32.85.85 0 0 1-.11-.38.79.79 0 0 1-.25-.31.76.76 0 0 1-.12-.38.91.91 0 0 1-.26-.31.88.88 0 0 1-.12-.38.78.78 0 0 1-.26-.3c-.41-.73.24-1.16 1.55-2l.86-.58a.74.74 0 0 1 1.29 0 .82.82 0 0 1 .13.42.83.83 0 0 1 .29.32.76.76 0 0 1 .12.41.75.75 0 0 1 .28.32.84.84 0 0 1 .13.42.8.8 0 0 1 .27.32.93.93 0 0 1 .12.42.84.84 0 0 1 .27.33.77.77 0 0 1 .11.41.88.88 0 0 1 .27.34.8.8 0 0 1 .1.42.84.84 0 0 1 .27.35.81.81 0 0 1 .1.43.82.82 0 0 1 .26.35.8.8 0 0 1 .09.45.9.9 0 0 1 .26.37.77.77 0 0 1 .06.46.78.78 0 0 1 .27.39.73.73 0 0 1 0 .5.74.74 0 0 1 .27.44.69.69 0 0 1-.42.89.87.87 0 0 1 .75.72c.1.59-.3.89-1.09 1.24.84.1 1.33.28 1.41.87s-.32.87-1.1 1.19c.83.13 1.29.32 1.35.91s-.34.86-1.12 1.16c.82.14 1.27.34 1.32.93s-.36.86-1.14 1.13c.81.17 1.26.38 1.29 1s-.38.86-1.17 1.12c.81.18 1.26.4 1.28 1s-.41.84-1.21 1.09c.81.2 1.26.43 1.26 1s-.43.84-1.25 1.06c.82.23 1.25.47 1.24 1.07s-.47.83-1.32 1c.83.27 1.27.53 1.22 1.14s-.55.82-1.43 1c.85.33 1.3.61 1.21 1.23s-.69.8-1.68.87c.88.46 1.38.82 1.18 1.46s-.64.65-1.45.58c.64.49.94.87.67 1.41s-.78.53-1.62.29c.58.65.82 1.1.44 1.59s-.92.35-1.74-.12c.44.84.6 1.35.08 1.74s-1 .09-1.71-.61c.21 1 .23 1.54-.4 1.77s-1-.24-1.47-1.1c-.08 1-.23 1.55-.91 1.59Zm-9-16.61ZM83.67 41Z" style="fill:#414040"/><path class="cls-8" d="m69.89 52.42 8-4v12l-8 4v-12z"/><ellipse cx="73.89" cy="54.33" rx="3.84" ry="2.34" transform="rotate(-52.02 73.895 54.326)" style="stroke-miterlimit:10;fill:#565253;stroke:#757e86;stroke-width:.5px"/><path class="cls-6" d="m69.89 64.42-4.16-2.08v-12l4.16 2.08v12z"/><path class="cls-8" d="m65.73 50.34 4.16 2.08 8-4-4.16-2.08-8 4z"/><path class="cls-11" d="m83.49 40.37 2.22-3.12-1.82-.91h0a1.18 1.18 0 0 0-1.07.08 2.82 2.82 0 0 0-1.5 2.25.91.91 0 0 0 .36.79h.08Z"/><ellipse class="cls-8" cx="84.63" cy="38.83" rx="1.92" ry="1.17" transform="rotate(-52.02 84.626 38.832)"/><path class="cls-11" d="m79.43 42.5 2.22-3.12-1.82-.91h0a1.18 1.18 0 0 0-1.07.08 2.82 2.82 0 0 0-1.5 2.25.91.91 0 0 0 .36.79h.08Z"/><ellipse class="cls-8" cx="80.57" cy="40.96" rx="1.92" ry="1.17" transform="rotate(-52.02 80.568 40.962)"/><path class="cls-11" d="m83.45 36.38 2.21-3.12-1.82-.91h0a1.18 1.18 0 0 0-1.07.08 2.82 2.82 0 0 0-1.5 2.25.91.91 0 0 0 .36.79h.09Z"/><ellipse class="cls-8" cx="84.59" cy="34.84" rx="1.92" ry="1.17" transform="rotate(-52.02 84.583 34.84)"/><path class="cls-11" d="m79.43 38.38 2.22-3.13-1.82-.91h0a1.16 1.16 0 0 0-1.07.09 2.81 2.81 0 0 0-1.5 2.25.89.89 0 0 0 .36.78h.08Z"/><ellipse class="cls-8" cx="80.57" cy="36.83" rx="1.92" ry="1.17" transform="rotate(-52.02 80.579 36.832)"/><path class="cls-6" d="m45.11 15.25 30 15.01v15l-30-15.01v-15z"/><path class="cls-6" d="m45.11 15.25 30 15.01 30-15.01-30-15-30 15z"/><g id="speaker_gray"><path class="cls-12" d="m54.4 37.95-12 6v-19l12-6v19z"/><path class="cls-13" d="M48.32 34c-3 1.52-5.53.29-5.53-2.76s2.48-6.76 5.53-8.28 5.52-.29 5.52 2.76-2.48 6.73-5.52 8.28Zm0-9.12a6.77 6.77 0 0 0-3.61 5.4c0 2 1.62 2.79 3.61 1.8a6.8 6.8 0 0 0 3.6-5.4c0-2.02-1.62-2.82-3.6-1.83Z"/><ellipse class="cls-13" cx="46.91" cy="27.88" rx="3.4" ry="2.07" transform="rotate(-52.02 46.898 27.882)"/><path class="cls-12" d="m29.18 18.34 13.22 6.61v19l-13.22-6.61v-19z"/><path class="cls-12" d="m42.4 24.95 12-6-13.22-6.61-12 6 13.22 6.61z"/></g></g><g id="paper"><path style="fill:#f2f2f2;stroke:#757e86;stroke-width:.5px;stroke-linecap:round;stroke-linejoin:round" d="m53.55 50.07-11.92 11.5-26.56-6.32 11.92-11.5 26.56 6.32z"/><path class="cls-15" d="M18.46 55c-.29.24-.26-.37-.53-.22 0 .07.12.08-.05.16-.49-.28.52-.41.48 0 .24-.28.41-.09.1.06Zm.34-.37a1 1 0 0 1-.58-.11c-.32-.46 1.43-.14.58.11Zm-.27-.11c.31.09.46-.05.13-.12s-.45.06-.13.12Zm-.04-.42c.06-.26 1.05 0 .82.12a2.67 2.67 0 0 0-.82-.12Zm.33-.32c.06-.26 1.05 0 .82.12a2.63 2.63 0 0 0-.82-.12Zm.77-.37c0 .13-.46-.09-.24-.17.15.1.21-.3.43-.16-.41.32.42-.15.07.17.14.06.19 0 .26-.11.31 0-.22.18.18.21-.07.1-.13 0-.26 0-.32.35-.14.11-.44.06Zm-.09-.07c0 .11.24-.08.08-.08Zm.4 0h-.17c-.04 0 .13.07.17 0Z"/><path class="cls-15" d="M20 52.89a.25.25 0 0 0 .28.15S20 53 20.24 53c.62.25-.34.13-.5 0s.07-.1.18 0c-.09-.14 0 0 .07-.13s-.5.26 0-.18c.05-.09.1 0 .18 0s-.14.09-.08.11c0-.16.69 0 .53.09.39-.2.1.19 0 0 .07.32-.12.11-.62 0Zm.13 0 .09-.09s-.14.05-.07.04Zm.12 0 .1-.09s-.15.08-.08.07Zm.13 0s.15-.11.06-.1-.12.11-.04.11Zm.23-.25c.16 0 .35-.09.37 0-.16.03-.34.12-.37 0Zm.13-.59c-.34 0 .6-.38.26 0 .16.06.17-.06.21-.13.37 0-.18.21.34.21 0 .13-.16.05-.32 0-.07.21-.35.17-.16 0-.15-.05-.16 0-.2.11-.31-.03.01-.15-.13-.19Zm1.12-.45c.47-.24-.31.53-.2.2.18-.12 0-.14-.15-.19s-.11.17-.27.1c.28-.33.29-.1.62-.11Z"/><path class="cls-15" d="M21.61 51.18c.22.08.81.24.4.31-.01-.11-.65-.19-.4-.31Zm.1-.13c.85 0 .9.22 0 .08-.08.01 0-.07 0-.08Zm0 0h.16c-.05 0-.22.01-.17-.05Zm.18 0h-.16c.04 0 .18-.12.15-.05Zm.01-.2c.19-.06.32-.1.38 0-.19.03-.28.15-.38 0Zm.51.18c.14-.16 0-.31-.16-.4.43-.13.62.49.16.37Zm.01-.49c.2-.13-.25-.1 0-.21s.84-.08.79.18c-.28.17-.1-.15-.46-.12-.2.09.63.19.2.28-.15-.14-.32-.13-.53-.13Zm.09-.32h.17c-.03 0-.2.08-.17 0Zm.22 0c.12 0 .45 0 .38.1-.11-.06-.44.01-.38-.12Zm-.21-.05h.16c-.04 0-.19.06-.16-.02Zm.56-.17c.54-.14-.37-.21.06.15-1-.27.62-.62.41.07-.35 0 0-.31-.42-.15Zm.31-.63a1.87 1.87 0 0 1 .87.14c-.31.12-.77-.28-1 .1 1.57.33-.69.21.13-.24Zm.11.18c-.12 0-.08 0 0-.08s.2.08.22 0 .22.21.35.06-.09.32-.23.22c.13-.09-.55-.07-.32-.18.53.14.41.07-.02-.02Zm.7-.4c.06.11.05.43-.23 0-.11.09-.13.19-.31.11.31-.11-.06-.33.24-.27.14 0 .08-.13.28 0-.26.12.33.15.43.2-.08.1-.26-.03-.41-.04Zm-.15-.38c.19-.06.32-.1.39 0-.2.03-.33.13-.39 0Zm.52.18c.13-.16 0-.3-.17-.4.43-.13.6.5.17.45Zm.06-.5c.5-.71 1 .07.51 0 .03-.45-.25.12-.51 0Zm-.19-.09a2.23 2.23 0 0 0 .27-.26c.29-.01-.11.38-.27.26Zm.82-.7c-.08.17 1 .35.37.32-.25-.06-.24-.06-.26.11-.21.05-.32-.42-.11-.43Zm.08-.13c.19-.06.32-.1.39 0-.2.03-.33.12-.39 0Zm.52.18c.13-.16 0-.31-.17-.4.43-.13.62.49.17.4Zm.55-.59c.39.33-.89.14-.51-.14a.64.64 0 0 1 .78 0c0 .31-.14 0-.32-.06-.48-.01-.08.14.05.2Zm-.4 0a.33.33 0 0 0 .31.1s-.38-.22-.32-.11Zm.55-.53c.28-.38.3.15 0 0 0 .1.31.13.43.23-.26.18-1.31-.29-.43-.23Zm.26 0c.09.12.25 0 .26-.1.55.14-.6.43-.26.14Z"/><path class="cls-15" d="M26.67 46.23c.51.06-.42-.23.68-.16.24 0 .34.3 0 .26.13-.12-.07-.25-.28-.18.86.43-.4.37-.4.08Zm.42.17h.1c-.05 0-.29-.06-.1 0Zm0-.12-.09-.07c-.1.07 0 .07.11.07Zm.01-.47c.19.08 1.31.34.33.2-.11-.01-.56-.08-.33-.2Zm.51 0c.22.2.22-.18.45-.06 0 .25-.75.25-.45.04Zm-.41 0c.17-.09.14-.26.35-.17-.08.08-.16.25-.35.16Zm.64-.44c.07.25.58.15.4.3-.42 0-1.21-.41-.45-.19-.07-.07-.4-.26-.07-.18.39-.35.11 0 .23 0s.11-.12.24-.07c-.05 0-.17.11 0 .12.3-.26.05.09.32.07-.09.17-.51-.05-.67-.05Zm.65-.56c.25.13.18.15.34 0 .23.07.18.12-.08.14.13.1-.1.18-.25.17.53.21-.66 0-.52-.13s.17-.15 0-.14c.14-.14.24 0 .1-.12.62-.12 0 .13.43.14-.08-.01-.19-.01-.02-.06Zm-.16.3c.14.07.29 0 0 0Zm0-.1c.37 0 .58.06-.05-.06-.2.05-.13.21 0 .05Zm-8.72 10.31c-.28.24-.26-.38-.53-.23 0 .08.13.09 0 .17-.5-.29.51-.42.47 0 .2-.32.37-.13.06.06Zm.39-.41a1 1 0 0 1-.57-.11c-.38-.47 1.38-.14.57.11Zm-.27-.11c.31.08.46-.06.13-.13s-.5.06-.18.13Zm.74-.31c-.15.24-.58-.55-.46-.14-.14.16-.35 0-.22-.12.51-.38.48.43.74 0 .3.02.02.15-.06.26Zm.43-.42c-.15.24-.58-.54-.46-.14-.14.16-.35 0-.22-.12.51-.37.48.43.74 0 .3.03.04.19-.06.26Zm-.07-.47c0 .13-.46-.09-.24-.17.15.1.21-.31.42-.17-.4.33.43-.14.08.18.14.06.19 0 .26-.11.31 0-.22.18.18.21-.07.1-.13 0-.26 0-.27.35-.15.11-.44.06Zm-.09-.07c0 .11.24-.08.08-.08Zm.4 0h-.17c-.04 0 .13.07.17 0Zm.28-.28c.16 0 .35-.09.37 0-.16.03-.34.12-.37 0Zm.28-.55c.21-.57.07.16.37.06.15-.09.1-.26.34-.17-.21.61-1.54-.09-.71.11Zm.07-.32c.13 0 0 .13-.1.1s-.04-.13.1-.1Zm-.08.07c.07 0 .12 0 0 0s-.06-.01 0 0Z"/><path class="cls-15" d="M22.25 52c.52.38.3.73-.06.2.21.08.07-.25-.18.11S22 52 22.25 52Zm.35-.4c.21.09.71.43.22.46.18-.22-.5-.34-.22-.46Zm.48-.07c-1.13.09.49-.71.15-.14.2 0 .16-.22.46 0s-.33.22-.13.06c-.31-.13 0 .17-.1.27-.28.07 0-.25-.22-.09 0 .08-.11 0-.18 0 .11-.08.2-.27.02-.1Zm-.27-.09s.15-.07.07-.06Zm.14 0s.15-.06.07-.06Zm.1-.21c-.05 0-.08 0-.11.06s.06-.02.11-.03Zm.14 0s-.15.07-.07.07Z"/><path class="cls-15" d="M23.23 51.15c.2-.14-.25-.11 0-.22.18 0 .61-.07.78.11 0 .31-.16 0-.37 0s.21.17.27.23c-.32.07-.21-.18-.68-.12Zm.09-.32h.17c-.03 0-.2.07-.17 0Zm.21 0c.13 0 .46 0 .39.1-.16-.07-.44.01-.39-.12Zm-.21-.05h.17c-.04 0-.19.05-.17-.02Zm.29-.18c.79.27.24-.16.71.06.24.23-.98.1-.71-.06Zm.23-.18c.16 0 .7-.06.61.11-.2-.08-.65.03-.61-.11Zm.16-.16c.21-.09 0-.15.14-.23.1.08.27-.23.29 0-.17.27.17-.16.19 0-.18.32.56-.31.22.28-.31.21-.36 0-.36-.13-.08.09-.13.17-.28.1.29-.28-.05.07-.2-.02Zm.64 0c-.1.11.18 0 0 0s0-.01-.01 0Z"/><path class="cls-15" d="M24.49 49.86c.28-.13-.21-.24.2-.23.17-.28.1.11.48 0 .06.09-.31.18-.16.25s.12-.29.4-.17c-.34.5-.6.17-.58 0-.14.03-.11.29-.34.15Zm.57-.51c.18.07.17.08.25-.07 1-.37.05.6.28.13.06-.3-.23 0-.25.13-.04-.04-.5-.08-.28-.19Zm-.21 0a1.22 1.22 0 0 0 .28-.14c.27.01-.21.24-.28.1Z"/><path class="cls-15" d="M25.62 48.87c-.18.18-.16.07-.11 0-.56.56 0-.39.13-.13-.13.13 0 0 .06 0 .19 0-.06.1 0 .13.39-.35 0 .27-.25.28s.22-.15.17-.28Zm.18.18c.12.06.38.12.09.15.02-.04-.37-.12-.09-.15Zm.27 0c.33.13-.74.07-.19-.22 0-.07.37.05.44.08s-.29.15-.15.05-.17.04-.1.04Zm-.1-.16s-.13.1-.14.1.17-.14.17-.14Zm.1 0s-.12.1-.14.11.12-.12.14-.13Z"/><path class="cls-15" d="M25.87 48.47c-.34.31-.06 0-.13 0 .14-.15.53-.28.48-.08s0 0 .08 0-.12.13-.05.17c.74-.58-.59.68-.07.06-.16.12-.33.21-.09 0 0 0-.26.2-.18.06s-.05 0-.09.07c-.23-.1.11-.23.05-.28Zm.39.24c-.18 0 .23-.43.42-.27s-.15.17-.17.25-.15.05-.25.02Zm.08-.06s.23-.19.15-.18-.23.19-.15.18Zm.09 0 .18-.18s-.25.22-.18.21Zm-.43-.3s-.07.06-.09.06.09-.05.09-.06Zm0 .09s.11-.07.05-.07-.05.08.01.07Zm-5.95 7.08c-.19.09-.13-.07 0-.14a1.43 1.43 0 0 0 .6.14c.05.34-.39 0-.6 0Zm.6-.12c.16 0 .32.22 0 .21.06-.14-.07-.12-.21-.14s-.57-.07-.26-.28.54.18.7.17c-.26-.09.31-.09.11 0s-.26 0-.34.04Zm-.4-.06s.14-.1.05-.1-.15.11-.05.1Zm.13 0s.15-.1.05-.1-.14.14-.05.13Zm.13 0s.15-.1.06-.09-.15.16-.06.15Z"/><path class="cls-15" d="M20.72 54.79c.41-.17-.21.24.09.29.08.05.57.07.37.17-.56 0-.57-.26-.66-.1-.3 0 .11-.15-.11-.19.13-.1.18.04.31-.17Zm.28.09c0-.09.25 0 .13 0s.09.06.13.08c.35-.27.12.09 0 .18s0-.3-.29-.08c-.25 0 0-.08-.09-.12-.28-.06.12-.01.12-.06Z"/><path class="cls-15" d="M21.28 54.77c.16 0 .35-.09.37 0-.16.03-.34.12-.37 0Zm.48-.54c.2.24.27-.28.51-.12 0 .29-.88.34-.51.12Zm-.49 0c.51-.56.51.08.31-.08-.05-.03-.14.18-.31.07Z"/><path class="cls-15" d="M22.35 53.81c.39.32-.89.14-.51-.14a.65.65 0 0 1 .78 0c0 .32-.14 0-.32-.05-.48-.02-.08.13.05.19Zm-.4 0a.33.33 0 0 0 .31.1s-.38-.24-.26-.11Z"/><path class="cls-15" d="m23.18 53.41-.37-.09c.65.07.24 0-.15-.17-.31.05-.26.12-.09.19a.56.56 0 0 0-.17 0c-.29.09-.12.21.09.19.06.19.28-.07.19-.17.32.1.77.15.5.05Zm-.74.06c0-.06.09 0 .13 0h-.13Zm.35-.16Z"/><path class="cls-15" d="M23.08 53.63c-.13 0 .11-.05.12-.11-.62-.28-.62.32-.12.11Zm-.2-.11c.09 0 .09 0 0 .07s-.05-.03 0-.07Zm.46-.68c.23-.12 0 .1.07.1.53-.45-.08.7-.87 0 .3-.41.75-.32.25 0 .13 0 .25-.37.43-.25-.15.16.18.03.12.15Zm0 .16c-.09.14-.28.1-.1 0-.06 0-.12.09-.13.09s-.16 0-.08-.05c-.27-.04.35.22.28-.04Zm-.39-.25s-.32.25-.23.23Zm.13.16c0 .05.15-.08 0 0Zm.29-.06c-.1 0-.14.06-.07.06Z"/><path class="cls-15" d="M23 52.5c.34.1 1.17.33.34.2-.09-.04-.53-.08-.34-.2Zm.17 0c.27-.13-.15-.1 0-.21.15.08.19-.07.35 0-.1.26.59-.11.35.27-.31.2-.35-.06-.39-.11s-.1.17-.29.07Zm.54 0s-.07.06 0 .07.11-.05.02-.06Z"/><path class="cls-15" d="M23.7 52.19c-.77.29.19-.66.23-.22-.17.16 0 .05.07 0 .24 0-.08.12 0 .16s.13-.22.29-.14c0 0-.25.19-.05.11.35-.2.27.09-.1.1.09.07.11.23-.14.2.22-.35-.27.13-.17-.11 0 0 .15-.11.07-.11s-.09.15-.22.09c.1-.09.18-.27.02-.08Zm-.16 0c.06 0 .1-.06.14-.08s-.11.05-.14.06Zm.16-.19c.06 0 .11-.07.14-.09s-.11.09-.14.09Z"/><path class="cls-15" d="M24.16 51.47c.41-.17-.2.24.09.29.09.05.57.07.37.17-.56 0-.57-.26-.66-.1-.3 0 .12-.15-.11-.19.15-.1.15.01.31-.17Zm.28.09c0-.09.25 0 .13 0s.09.06.13.08c.35-.26.12.09 0 .18s0-.3-.29-.08c-.25 0 0-.08-.09-.12-.32-.06.11-.01.12-.06Z"/><path class="cls-15" d="M24.33 51.24c.88.23.58.15.65-.13.87.4-.81.43-.65.13Zm.45-.46c.59 0-.05 0 .58.28-.24.15-.31-.22-.48-.05-.11-.01-.19-.16-.1-.23Zm.95 0c-.22 0 .06.28-.38.21s-.09-.35.38-.2Zm-.33.1s.05.07.09 0-.05-.03-.09.01Zm-.09-.21c-.16 0-.27.15-.35 0 .15-.02.26-.08.35.01Zm-.12-.21c.8.27.24-.16.71.06.25.23-.98.09-.71-.06Zm.23-.18c.17 0 .7-.06.61.11-.2-.08-.65.03-.61-.11Zm6.97 1.42c-.62.36-1.34-.8-.52-.85.13.24.37.6.52.85Zm1.94-2.51a3.28 3.28 0 0 1-1.38.14c-.3-.27 1.72-.49 1.38-.14Z"/><path class="cls-15" d="M33.43 52.49c-1.4 1-3.63 0-3.23-.92-2.79-.87-2.31-1.39.89-1.49.91-1.23.23-.73-.7-1.47 0-.57 1.59-.5 2.23-.45 1.64-.92 4.31-.41 4.53.67-.87.09-1.32-1.15-2.75-.88-.8 0-1.28.43-1.89.48a4.81 4.81 0 0 0-1.65.07c1.28.58 1.51.48.7 1.59-.19.48-.93.29-1.47.32-2.64.11.22.68.6 1.11.19 2.48 3.52.01 2.74.97Z"/><path class="cls-15" d="M35.08 50.87a16.09 16.09 0 0 1-2.3.21c-.81-.22.65-.33.94-.32.67-.44.41-.68-.2-1 .22-.72 1.75.74 1.56 1.09Zm-.52-.16c-.09-.19-.13-.16-.3 0Z"/><path d="M45 40.84h1.17v18.7a.5.5 0 0 1-.5.5h-.18a.5.5 0 0 1-.5-.5v-18.7H45Z" transform="rotate(-63.43 45.584 50.442)" style="stroke:#333;stroke-width:.25px;fill:#692734;stroke-linecap:round;stroke-linejoin:round"/><path d="m34.85 45.25 1.88 1.42.52-1.05L35 45a.16.16 0 0 0-.15.25Z" style="fill:#d7b696;stroke:#333;stroke-width:.25px;stroke-linecap:round;stroke-linejoin:round"/><path d="m34.43 44.93.53.4.16-.32-.64-.18c-.09-.03-.13.04-.05.1Z" style="stroke:#333;stroke-width:.25px;fill:#090a0c;stroke-linecap:round;stroke-linejoin:round"/></g></g></g></svg>