<svg xmlns="http://www.w3.org/2000/svg" xmlns:xlink="http://www.w3.org/1999/xlink" height="182" width="160" version="1.1" id="svg331"><defs id="defs323"><g id="c"><path d="M10.75-56.05v-.05H4.5v3.9l-.05 1.1L4-48.65l-1.05 2H2v3.3h1.35v-1.95h7.2v1.95h1.4v-3.3h-1.2v-9.4M.4-60h3.9l1.2.55 3.85-8.6 3.9 8.6L14.5-60l3.15 3.05 1.1 1.1-1.1-1.1 1.15 1.1h-.05l-.35.4.1.1q2.1 2.05 2.3 4.55l.05.6q0 1.65-.8 3.1l-.25.45-1.4 1.7.1.1-.3.3-3.25.9v4.7l-3.25.7-3.15.9.65 1.6L12.55-37l3-.6q1.55 0 2.15.6.8.8.8 2 0 1.1-.75 1.85-1.05 1.05-4.1 1.25l-1.25.05.35 1.5 1.5-.05-.05 2.75-1.5 1.25v8.75H8.15v1.55h6.6l1.15.4q.55.55.55 1.65 0 1.05-.55 1.6-.45.45-1.15.45h-6.6v.95H-1.6l-1.55 1.5V-3q0 .7-.45 1.15-.55.55-1.6.55-1.1 0-1.65-.55-.4-.45-.4-1.15v-6.55H-8.8l-1.7-1.1-1.75-3.9v-2.4h.15v-1.5l.45-.4.2-.15 1.15-1.4-1.25-1-.7.95.4-10.95 1.75-12.8.4.35.75-.7-1-1.1q-1.45-1.85-1.5-4v-.25l.05-.9q.35-2.3 2.45-4.25l-.75-.75.5-3.95.65.3 3.85-8.6 3.85 8.6L.4-60m5.45 8.85v-3.6h3.5v8.15H4.4l.05-.05.5-.9.9-3.55v-.05m-.35 13.2Q4.45-39 2.25-39l-4 .75-3.1.9.65 1.6L-.9-37l3-.6q1.55 0 2.15.6.8.8.8 2 0 1.1-.75 1.85Q3.25-32.1.25-31.9l-1.3.05.35 1.5q3.95-.05 5.9-1.55l.4-.35q1-1 1-2.85 0-1.8-1.1-2.85M-7.15-43.6l.75-1.55v-1.35h-1.5v1.45h.55l-.55 1.45h.75m3.65-2.9H-5v1.45h.55L-5-43.6h.75l.75-1.55v-1.35" fill="#fff" fill-rule="evenodd" transform="translate(21.5 71)" id="path309"/><path d="M10.75-56.05v9.45h1.2v3.25h-1.4v-1.95h-7.2v1.95H2v-3.25h.95L4-48.65l.45-2.45.05-1.1v-3.85h6.25M.4-60l-1.25.55-3.85-8.6-3.85 8.6-.65-.3-.55-.25 5.05-11L.4-60m-10.1 4.2.75.75q-2.1 1.95-2.45 4.25l-.05.9v.25q.05 2.15 1.5 4l1 1.1-.75.7-.4-.35-.6-.7-.75-1.05q-1.1-1.75-1.05-3.85l.05-1q.2-1.5 1-2.85l1.75-2.15m-2.55 35.35.7-.95 1.25 1-1.15 1.4-.2.15-.45.4q-.7.45-1.6.45-.95 0-2.65-1.1-1.2-.65-1.9-.65-.9 0-1.3.55l-.15.2-.45.75-1.35-.75q.4-.95 1.2-1.65l.6-.45 1.35-.35q1.1 0 2.25.8 1.65.85 2.55.85.6 0 1.3-.65m3.45 10.9h1.55V-3q0 .7.4 1.15.55.55 1.65.55 1.05 0 1.6-.55.45-.45.45-1.15v-6.55h1.5v6.6q0 1.25-.8 2.05-.9.9-2.75.9Q-7.1 0-8-.9q-.8-.8-.8-2.05v-6.6m16.95-1.5V-12h6.6q.7 0 1.15-.45.55-.55.55-1.6 0-1.1-.55-1.65l-1.15-.4h-6.6v-1.55h6.65q1.25 0 2.05.8.9.9.9 2.8 0 1.85-.9 2.75l-.3.25q-.75.55-1.75.55H8.15v-.55m6.1-19.35-1.5.05-.35-1.5 1.25-.05q3.05-.2 4.1-1.25.75-.75.75-1.85 0-1.2-.8-2-.6-.6-2.15-.6l-3 .6-3.35 1.25-.65-1.6 3.15-.9 3.25-.7.75-.05q2.2 0 3.25 1.05 1.1 1.05 1.1 2.85 0 1.85-1 2.85l-.4.35q-1.6 1.2-4.4 1.5m4.25-14.45-.1-.1 1.4-1.7.25-.45q.8-1.45.8-3.1l-.05-.6q-.2-2.5-2.3-4.55l-.1-.1.35-.4h.05l.3-.35q2.55 2.35 2.75 5.4l.05.6q0 1.9-.9 3.55-.7 1.25-1.9 2.4l-.6-.6M14.5-60l-1.25.55-3.9-8.6-3.85 8.6L4.3-60l5.05-11 5.15 11m-8.65 8.85v.05l-.9 3.55-.5.9-.05.05h4.95v-8.15h-3.5v3.6m-.35 13.2q1.1 1.05 1.1 2.85 0 1.85-1 2.85l-.4.35q-1.95 1.5-5.9 1.55l-.35-1.5 1.3-.05q3-.2 4.05-1.25.75-.75.75-1.85 0-1.2-.8-2-.6-.6-2.15-.6l-3 .6-3.3 1.25-.65-1.6 3.1-.9 4-.75q2.2 0 3.25 1.05m-9-8.55v1.35l-.75 1.55H-5l.55-1.45H-5v-1.45h1.5m-3.65 2.9h-.75l.55-1.45h-.55v-1.45h1.5v1.35l-.75 1.55" fill-rule="evenodd" transform="translate(21.5 71)" id="path311"/><path d="M4.3-60H.4m12.3 39.65v-6.05m6.05-29.45-1.1-1.1" fill="none" stroke="#000" stroke-linecap="round" stroke-linejoin="round" transform="translate(21.5 71)" id="path313"/></g><g id="d" transform="translate(.8)"><use height="3" transform="matrix(1.005 0 0 1 -.804 0)" width="4.65" xlink:href="#a" id="use316"/><use height="3" transform="matrix(1.005 0 0 1 16.096 0)" width="4.65" xlink:href="#a" id="use318"/></g><style id="style337">.cls-1{fill:#fff}.cls-1,.cls-2{fill-rule:evenodd}.cls-3{fill:none;stroke:#000;stroke-linecap:square;stroke-linejoin:round;stroke-width:2.67px}</style><path d="M1.35 0h.2l.55.1.45.35q.45.45.45 1L2.55 2.6q-.45.4-1 .4l-.8-.2-.25-.2-.45-.7v-.15L0 1.45v-.1q.05-.5.5-.9l.25-.2Q1 .05 1.3 0h.05m.45.85L1.55.8Q1.2.75 1 1q-.2.15-.2.45v.15l.15.45H1l.05.05.2.1.3.05.55-.2.15-.6-.05-.3L2.1 1 2.05.95 1.9.85h-.1" fill-rule="evenodd" id="b"/><use height="3" transform="translate(.8)" width="3" xlink:href="#b" id="a"/></defs><g id="g380" transform="translate(40.261 -.07)"><path class="cls-1" d="m56.64 6.42-9.1 27.52-7.63 8.58 14.67 15.71s-12.9 22.47-.91 56.38a29.14 29.14 0 0 0 5.9 8v13s-.2 7.18 6 7.07h8.4s8.55-1.05 8.55-10.73H71.55v-9.35s13.69.15 18 0h31.63s4.47-10.44 2.13-13.68c-.33-.46-.43-3.41-2.13-5.48-1.7-2.07-5.32-3.51-6.63-3-2.14.91-1.38 11.49-1.2 10.89.18-.6-6.28 1.15-5.81 0 2.8-7 9.43-25.42-2.3-53.14l14.36-15.67-9.73-11.21-9-24.89-8 21.28H65.54z" transform="translate(-37.96 -2.04)" id="path341"/><path class="cls-2" d="m56.66 10.27-6 16.94-2.46-1.15 7.16-20.29L56.66 2s1 3.12 1.16 3.68L65.66 26l-2.44 1.23-6.56-17z" transform="translate(-37.96 -2.04)" id="path343"/><path class="cls-2" d="m100.79 10.27-6 16.94-2.48-1.15 7.18-20.29 1.3-3.77s.95 3.12 1.16 3.68L109.79 26l-2.44 1.23-6.56-17z" transform="translate(-37.96 -2.04)" id="path345"/><path class="cls-2" d="m41.89 42.76 7.42 7.62-1.79 2.27L39 43.94l-1-1.09 1-1.14 8.45-9.36 1.86 2.2z" transform="translate(-37.96 -2.04)" id="path347"/><path class="cls-2" d="m117.67 42.76-7.42 7.62 1.75 2.27 8.48-8.71 1.08-1.09-1-1.14-8.45-9.36-1.86 2.2z" transform="translate(-37.96 -2.04)" id="path349"/><path class="cls-3" d="m55.13 36 5.68 5.63v3.72M90 28.26H69.66m0 3.21h2.76l1.58 1.9m34.25-1.9h-2.85l-1.59 1.9" transform="translate(-37.96 -2.04)" id="path351"/><path class="cls-2" d="M94.35 35.55v-5.06H97v5.45a1.66 1.66 0 0 1-.16.73l-6.74 14.1c-.24.5-1.12 2.45-1.12 2.45l-1.25-2.5-6.18-14.1a1.56 1.56 0 0 1-.14-.68v-5.45h2.69v5.08L89 46.74z" transform="translate(-37.96 -2.04)" id="path353"/><path class="cls-3" d="M94.08 38h-9.94m22 23s10.94 23.29 1.66 49.34M53.37 61s-12.14 25.84 0 53.52m6.11 8.84v11.25s-.24 8 5.54 8h6.58s10.87.58 10.93-10.75H71.6v-8.47" transform="translate(-37.96 -2.04)" id="path355"/><path class="cls-2" d="M111.36 109.91v-9.59A1.33 1.33 0 0 1 112.7 99a12.15 12.15 0 0 1 8.19 2.71c4 3.42 3.91 8.94 3.9 9.57v6.57a6 6 0 0 1-3.54 5.63 13.92 13.92 0 0 1-5.82 1.24h-12.54V122h12.62a11.35 11.35 0 0 0 3.53-.53c1.5-.5 3.07-1.49 3.07-3.66v-6.56a.28.28 0 0 1 0-.09s.26-4.66-3-7.47a8.89 8.89 0 0 0-5.11-2v9.53a1.34 1.34 0 0 1-1.34 1.33h-7.07l1-2.67z" transform="translate(-37.96 -2.04)" id="path357"/><path class="cls-1" d="M62.72 61.44s10.75 6.15 18.52 9.47a8 8 0 1 1-5.8 9.72C73.22 79 63.82 71.92 58.61 68.7" transform="translate(-37.96 -2.04)" id="path359"/><path d="M24.76 59.4s10.75 6.15 18.52 9.47a8 8 0 1 1-5.8 9.72c-2.22-1.63-11.62-8.71-16.83-11.93" id="path361" stroke-width="2.67" fill="none" stroke="#000" stroke-linecap="square" stroke-linejoin="round"/></g></svg>