<svg xmlns="http://www.w3.org/2000/svg" xmlns:xlink="http://www.w3.org/1999/xlink" height="182" width="160" version="1.1" id="svg432"><defs id="defs424"><g id="c"><path d="M10.75-56.05v-.05H4.5v3.9l-.05 1.1L4-48.65l-1.05 2H2v3.3h1.35v-1.95h7.2v1.95h1.4v-3.3h-1.2v-9.4M.4-60h3.9l1.2.55 3.85-8.6 3.9 8.6L14.5-60l3.15 3.05 1.15 1.1h-.05l-.35.4.1.1q2.1 2.05 2.3 4.55l.05.6q0 1.65-.8 3.1l-.25.45-1.4 1.7.1.1-.3.3-3.25.9v4.7l-3.25.7-3.15.9.65 1.6L12.55-37l3-.6q1.55 0 2.15.6.8.8.8 2 0 1.1-.75 1.85-1.05 1.05-4.1 1.25l-1.25.05.35 1.5 1.5-.05-.05 2.75-1.5 1.25v12.25l-.85 4.6H10.3V-3q0 .7-.45 1.15-.55.55-1.6.55-1.1 0-1.65-.55Q6.2-2.3 6.2-3v-6.55H4.65l-.9-1.3q.5-.9.5-2.25v-.25q-.05-1.7-.9-2.55-.8-.8-2.05-.8h-6.6v1.55h6.55q.7 0 1.15.4.5.5.55 1.55l-.15.9h.05l-.05.25-.4.55q-.45.45-1.15.45H-5.3v1.5l-1.8.05v-.05h-1.55l-1.7-1.1-1.75-3.9v-3.9l.45-.4.2-.15 1.15-1.4-1.25-1-.7.95.4-10.95 1.75-12.8.4.35.75-.7-1-1.1q-1.45-1.85-1.5-4v-.25l.05-.9q.35-2.3 2.45-4.25l-.75-.75.5-3.95.65.3 3.85-8.6 3.85 8.6L.4-60m5.45 8.85v-3.6h3.5v8.15H4.4l.05-.05.5-.9.9-3.55v-.05m12.9-4.7l-1.1-1.1 1.1 1.1M5.5-37.95Q4.45-39 2.25-39l-4 .75-3.1.9.65 1.6L-.9-37l3-.6q1.55 0 2.15.6.8.8.8 2 0 1.1-.75 1.85Q3.25-32.1.25-31.9l-1.3.05.35 1.5q3.95-.05 5.9-1.55l.4-.35q1-1 1-2.85 0-1.8-1.1-2.85M-7.15-43.6l.75-1.55v-1.35h-1.5v1.45h.55l-.55 1.45h.75m3.65-1.55v-1.35H-5v1.45h.55L-5-43.6h.75l.75-1.55" fill="#fff" fill-rule="evenodd" transform="translate(21.5 71)" id="path410"/><path d="M10.75-56.05v9.45h1.2v3.25h-1.4v-1.95h-7.2v1.95H2v-3.25h.95L4-48.65l.45-2.45.05-1.1v-3.85h6.25M4.3-60l5.05-11 5.15 11-1.25.55-3.9-8.6-3.85 8.6L4.3-60m14.5 4.15l.3-.35q2.55 2.35 2.75 5.4l.05.6q0 1.9-.9 3.55-.7 1.25-1.9 2.4l-.6-.6-.1-.1 1.4-1.7.25-.45q.8-1.45.8-3.1l-.05-.6q-.2-2.5-2.3-4.55l-.1-.1.35-.4h.05m-3.85 16.9l.75-.05q2.2 0 3.25 1.05 1.1 1.05 1.1 2.85 0 1.85-1 2.85l-.4.35q-1.6 1.2-4.4 1.5l-1.5.05-.35-1.5 1.25-.05q3.05-.2 4.1-1.25.75-.75.75-1.85 0-1.2-.8-2-.6-.6-2.15-.6l-3 .6-3.35 1.25-.65-1.6 3.15-.9 3.25-.7m-3.1 29.4v6.6q0 1.25-.8 2.05-.95.9-2.8.9-1.9 0-2.8-.9-.8-.8-.8-2.05v-6.6H6.2V-3q0 .7.4 1.15.55.55 1.65.55 1.05 0 1.6-.55.45-.45.45-1.15v-6.55h1.55m-8.1-1.3l-.05.1-.35.4q-.75.8-1.95.8h-6.7v-1.5h6.55q.7 0 1.15-.45l.4-.55.05-.25.1-.8v-.1q-.05-1.05-.55-1.55-.45-.4-1.15-.4H-5.3v-1.55h6.6q1.25 0 2.05.8.85.85.9 2.55v.25q0 1.35-.5 2.25m-15.85-7.6q-.7.45-1.6.45-.95 0-2.65-1.1-1.2-.65-1.9-.65-.9 0-1.3.55l-.15.2-.45.75-1.35-.75q.4-.95 1.2-1.65l.6-.45 1.35-.35q1.1 0 2.25.8 1.65.85 2.55.85.6 0 1.3-.65l.7-.95 1.25 1-1.15 1.4-.2.15-.45.4m2-25.75l-.6-.7-.75-1.05q-1.1-1.75-1.05-3.85l.05-1q.2-1.5 1-2.85l1.75-2.15.75.75q-2.1 1.95-2.45 4.25l-.05.9v.25q.05 2.15 1.5 4l1 1.1-.75.7-.4-.35m.9-15.55l-.55-.25 5.05-11L.4-60l-1.25.55-3.85-8.6-3.85 8.6-.65-.3m15.05 8.6v.05l-.9 3.55-.5.9-.05.05h4.95v-8.15h-3.5v3.6m-.35 13.2q1.1 1.05 1.1 2.85 0 1.85-1 2.85l-.4.35q-1.95 1.5-5.9 1.55l-.35-1.5 1.3-.05q3-.2 4.05-1.25.75-.75.75-1.85 0-1.2-.8-2-.6-.6-2.15-.6l-3 .6-3.3 1.25-.65-1.6 3.1-.9 4-.75q2.2 0 3.25 1.05m-9-7.2l-.75 1.55H-5l.55-1.45H-5v-1.45h1.5v1.35m-3.65 1.55h-.75l.55-1.45h-.55v-1.45h1.5v1.35l-.75 1.55" fill-rule="evenodd" transform="translate(21.5 71)" id="path412"/><path d="M.4-60h3.9m8.4 33.6v12.25m4.95-42.8l1.1 1.1" fill="none" stroke="#000" stroke-linecap="round" stroke-linejoin="round" transform="translate(21.5 71)" id="path414"/></g><g id="d" transform="translate(.8)"><use height="3" transform="matrix(1.005 0 0 1 -.804 0)" width="4.65" xlink:href="#a" id="use417"/><use height="3" transform="matrix(1.005 0 0 1 16.096 0)" width="4.65" xlink:href="#a" id="use419"/></g><style id="style438">.cls-1{fill:#fff}.cls-1,.cls-3{fill-rule:evenodd}.cls-2,.cls-4{fill:none;stroke:#000;stroke-linecap:square;stroke-linejoin:round;stroke-width:2.68px}</style><path d="M1.35 0h.2l.55.1.45.35q.45.45.45 1L2.55 2.6q-.45.4-1 .4l-.8-.2-.25-.2-.45-.7v-.15L0 1.45v-.1q.05-.5.5-.9l.25-.2Q1 .05 1.3 0h.05m.45.85L1.55.8Q1.2.75 1 1q-.2.15-.2.45v.15l.15.45H1l.05.05.2.1.3.05.55-.2.15-.6-.05-.3L2.1 1 2.05.95 1.9.85h-.1" fill-rule="evenodd" id="b"/><use height="3" transform="translate(.8)" width="3" xlink:href="#b" id="a"/></defs><g id="g484" transform="translate(26.24 .041)"><path class="cls-1" d="M104.77 60.05s9.51 9.55 16 15a8 8 0 11-8.35 7.65c-1.66-2.24-9.63-12.26-13.7-16.84" transform="translate(-19.68 .04)" id="path442"/><path class="cls-2" d="M102.71 59.09S114.28 69.6 120.78 75a8 8 0 11-8.35 7.65c-1.66-2.24-8.65-11.69-12.72-16.28" transform="translate(-19.68 .04)" id="path444"/><path class="cls-1" d="M52.37 4.34l-9.11 27.55-7.65 8.59L49.7 56.37s-12.32 22.34-.31 56.29a29 29 0 005.91 8h30v15.85s.5 4.8 10.06 4.22c0 0 12.83.79 13.2-10.74h-10.8v-9.33s3.51-5 4.61-8.73c1.1-3.73 12.35-23.39-1.32-55.72l14.35-15.73-9.75-11.22-9-24.92-8 21.31H61.27z" transform="translate(-19.68 .04)" id="path446"/><path class="cls-3" d="M52.38 8.19l-6 17L43.91 24l7.17-20.31L52.38 0s.95 3.12 1.17 3.68l7.85 20.3-2.4 1.2-6.57-17z" transform="translate(-19.68 .04)" id="path448"/><path class="cls-3" d="M96.56 8.19l-6 17L88.1 24l7.16-20.31c.21-.57 1.3-3.73 1.3-3.73s1 3.12 1.17 3.68l7.85 20.3-2.45 1.24-6.57-17z" transform="translate(-19.68 .04)" id="path450"/><path class="cls-3" d="M37.6 40.73l7.4 7.62-1.79 2.28-8.49-8.72-1.08-1.1 1-1.14 8.46-9.37 1.9 2.2z" transform="translate(-19.68 .04)" id="path452"/><path class="cls-3" d="M113.46 40.73L106 48.35l1.78 2.28 8.5-8.72 1.08-1.1-1-1.14-8.46-9.37-1.9 2.2 7.43 8.23z" transform="translate(-19.68 .04)" id="path454"/><path class="cls-4" d="M50.85 34l5.69 5.63v3.72m29.23-17.14H65.39m0 3.21h2.76l1.55 1.9m34.3-1.9h-2.82l-1.59 1.9" transform="translate(-19.68 .04)" id="path456"/><path class="cls-3" d="M90.12 33.5v-5.06h2.67v5.45a1.7 1.7 0 01-.16.74l-6.75 14.11c-.24.5-1.12 2.45-1.12 2.45s-1-2-1.25-2.49l-6.19-14.12a1.77 1.77 0 01-.14-.69v-5.45h2.67v5.09l4.91 11.18z" transform="translate(-19.68 .04)" id="path458"/><path class="cls-4" d="M89.85 35.91H79.9M102 59s12.15 25.86 0 53.58m-53.66-51.8c-2.45 6.31-9.51 28.39.75 51.79m6.12 8.85h11.26s8 .24 8-5.54v-6.59S75 98.4 63.68 98.35v10.94h-8.47m30.34 12.13v11.26s-.24 8 5.54 8h6.59s10.89.58 10.94-10.77H97.68v-8.48" transform="translate(-19.68 .04)" id="path460"/><path class="cls-1" d="M55.12 61.78S43.16 70.52 37 76.32a8 8 0 11-6.59-9.22c2.43-1.37 14.66-8.52 19.71-12" transform="translate(-19.68 .04)" id="path462"/><path class="cls-2" d="M53.11 63.13S43.16 70.52 37 76.32a8 8 0 11-6.59-9.22c2.43-1.37 12.65-7.17 17.7-10.66" transform="translate(-19.68 .04)" id="path464"/></g></svg>