<?xml version="1.0" encoding="UTF-8" standalone="no"?>
<svg
   xmlns:dc="http://purl.org/dc/elements/1.1/"
   xmlns:cc="http://creativecommons.org/ns#"
   xmlns:rdf="http://www.w3.org/1999/02/22-rdf-syntax-ns#"
   xmlns:svg="http://www.w3.org/2000/svg"
   xmlns="http://www.w3.org/2000/svg"
   xmlns:xlink="http://www.w3.org/1999/xlink"
   xmlns:sodipodi="http://sodipodi.sourceforge.net/DTD/sodipodi-0.dtd"
   xmlns:inkscape="http://www.inkscape.org/namespaces/inkscape"
   height="182"
   width="160"
   version="1.1"
   id="svg19"
   sodipodi:docname="back-walking-1.svg"
   inkscape:version="0.92.3 (2405546, 2018-03-11)">
  <metadata
     id="metadata23">
    <rdf:RDF>
      <cc:Work
         rdf:about="">
        <dc:format>image/svg+xml</dc:format>
        <dc:type
           rdf:resource="http://purl.org/dc/dcmitype/StillImage" />
        <dc:title />
      </cc:Work>
    </rdf:RDF>
  </metadata>
  <sodipodi:namedview
     pagecolor="#ffffff"
     bordercolor="#666666"
     borderopacity="1"
     objecttolerance="10"
     gridtolerance="10"
     guidetolerance="10"
     inkscape:pageopacity="0"
     inkscape:pageshadow="2"
     inkscape:window-width="1920"
     inkscape:window-height="2123"
     id="namedview21"
     showgrid="true"
     inkscape:pagecheckerboard="true"
     inkscape:zoom="5.1868132"
     inkscape:cx="74.581751"
     inkscape:cy="100.01966"
     inkscape:window-x="1220"
     inkscape:window-y="0"
     inkscape:window-maximized="0"
     inkscape:current-layer="svg19">
    <inkscape:grid
       type="xygrid"
       id="grid830" />
  </sodipodi:namedview>
  <defs
     id="defs11">
    <path
       d="M1.35 0h.2l.55.1.45.35q.45.45.45 1L2.55 2.6q-.45.4-1 .4l-.8-.2-.25-.2-.45-.7v-.15L0 1.45v-.1q.05-.5.5-.9l.25-.2Q1 .05 1.3 0h.05m.45.85L1.55.8Q1.2.75 1 1q-.2.15-.2.45v.15l.15.45H1l.05.05.2.1.3.05.55-.2.15-.6-.05-.3L2.1 1 2.05.95 1.9.85h-.1"
       fill-rule="evenodd"
       id="a" />
    <use
       height="3"
       transform="translate(.8)"
       width="3"
       xlink:href="#a"
       id="c" />
    <g
       id="b">
      <path
         d="M.35-60h3.9l1.2.55 3.85-8.6 3.9 8.6 1.25-.55 3.15 3.05 1.1 1.1-1.1-1.1 1.15 1.1h-.05l-.35.4.1.1q2.1 2.05 2.3 4.55l.05.6q0 1.65-.8 3.1l-.25.45-1.4 1.7.1.1-.3.3-3.25.9v4.7l-3.25.7-3.15.9.65 1.6L12.5-37q1.7-.6 3-.6 1.55 0 2.15.6.8.8.8 2 0 1.1-.75 1.85-1.05 1.05-4.1 1.25l-1.25.05.35 1.5 1.5-.05-.05 2.75-1.5 1.25v6.75H8.1v1.55h6.6q.7 0 1.15.4.55.55.55 1.65 0 1.05-.55 1.6-.45.45-1.15.45H8.1v.95H.5l-3.55 3.5V-3q0 .7-.45 1.15-.55.55-1.6.55-1.1 0-1.65-.55-.4-.45-.4-1.15v-6.55H-8.7l-1.7-1.1-1.75-3.9v-3.9l.45-.4q.75-.6 1.35-1.55l-1.25-1-.7.95.4-10.95 1.75-12.8.4.35.75-.7-1-1.1q-1.5-1.9-1.5-4.15l.05-1q.35-2.3 2.45-4.25l-.75-.75.5-3.95.65.3 3.85-8.6 3.85 8.6L.35-60m12.9 16.4l.75-1.55v-1.35h-1.5v1.45h.55l-.55 1.45h.75m-2.95 0l.8-1.55v-1.35H9.55v1.45h.55l-.55 1.45h.75"
         fill="#fff"
         fill-rule="evenodd"
         transform="translate(21.55 71)"
         id="path4" />
      <path
         d="M.35-60l-1.25.55-3.85-8.6-3.85 8.6-.65-.3-.55-.25 5.05-11 5.1 11m-10.1 4.2l.75.75q-2.1 1.95-2.45 4.25l-.05 1q0 2.25 1.5 4.15l1 1.1-.75.7-.4-.35-.6-.7q-1.8-2.2-1.8-4.9l.05-1q.35-2.8 2.75-5m-2.55 35.35l.7-.95 1.25 1q-.6.95-1.35 1.55l-.45.4q-.7.45-1.6.45-.95 0-2.65-1.1l-1.9-.65q-.9 0-1.3.55l-.6.95-1.35-.75 1.2-1.65q.8-.8 1.95-.8 1.1 0 2.25.8 1.65.85 2.55.85.65 0 1.3-.65m3.6 10.9h1.55V-3q0 .7.4 1.15.55.55 1.65.55 1.05 0 1.6-.55.45-.45.45-1.15v-6.55h1.5v6.6q0 1.25-.8 2.05-.9.9-2.75.9Q-7 0-7.9-.9q-.8-.8-.8-2.05v-6.6m16.8-3.5V-14h6.6q.7 0 1.15-.45.55-.55.55-1.6 0-1.1-.55-1.65-.45-.4-1.15-.4H8.1v-1.55h6.65q1.25 0 2.05.8.9.9.9 2.8 0 1.85-.9 2.75l-.3.25q-.75.55-1.75.55H8.1v-.55m6.1-17.35l-1.5.05-.35-1.5 1.25-.05q3.05-.2 4.1-1.25.75-.75.75-1.85 0-1.2-.8-2-.6-.6-2.15-.6-1.3 0-3 .6l-3.35 1.25-.65-1.6 3.15-.9 3.25-.7.75-.05q2.2 0 3.25 1.05Q20-36.9 20-35.1q0 1.85-1 2.85l-.4.35q-1.6 1.2-4.4 1.5m4.25-14.45l-.1-.1 1.4-1.7.25-.45q.8-1.45.8-3.1l-.05-.6q-.2-2.5-2.3-4.55l-.1-.1.35-.4h.05l.3-.35q2.55 2.35 2.75 5.4l.05.6q0 1.9-.9 3.55-.7 1.25-1.9 2.4l-.6-.6m-4-15.15l-1.25.55-3.9-8.6-3.85 8.6-1.2-.55L9.3-71l5.15 11M10.3-43.6h-.75l.55-1.45h-.55v-1.45h1.55v1.35l-.8 1.55m2.95 0h-.75l.55-1.45h-.55v-1.45H14v1.35l-.75 1.55"
         fill-rule="evenodd"
         transform="translate(21.55 71)"
         id="path6" />
      <path
         d="M4.25-60H.35m12.3 40.35v-6.75m6.05-29.45l-1.1-1.1"
         fill="none"
         stroke="#000"
         stroke-linecap="round"
         stroke-linejoin="round"
         transform="translate(21.55 71)"
         id="path8" />
    </g>
  </defs>
  <g
     transform="matrix(2 0 0 2 79.441 142)"
     id="g17">
    <use
       height="71"
       transform="translate(-21.55 -71)"
       width="43.4"
       xlink:href="#b"
       id="use13" />
    <use
       height="3"
       transform="translate(13.3 -56.7)"
       width="4.65"
       xlink:href="#c"
       id="use15" />
  </g>
  <path
     style="fill:#ffeeaa;fill-opacity:1;stroke:#d4aa00;stroke-width:1px;stroke-linecap:butt;stroke-linejoin:miter;stroke-opacity:1"
     d="m 108,57.000441 -22,-2 c -6,-1 -6,-1 -13,-2 -14,0 -18,-1 -21,8.000003 -2,11 -2,11 -2,21 3,12 3,15 8,16 17.032093,-0.53455 19,-1 23,-3 8,-11 7,-19 12.708703,-26.675205 C 95.838516,66.516522 98.2021,65.630695 109,63.000444 c -1.96894,-3.646283 -3.41213,-2.392403 -1,-6.000003 z"
     id="path851"
     inkscape:connector-curvature="0"
     sodipodi:nodetypes="cccccccccc" />
  <ellipse
     style="fill:#ffeeaa;fill-opacity:1;fill-rule:evenodd;stroke:#d4aa00;stroke-width:1.08330357"
     id="path849"
     cx="109.3192"
     cy="59.217079"
     rx="3.4583483"
     ry="4.2417169" />
  <path
     style="fill:none;stroke:#d4aa00;stroke-width:1px;stroke-linecap:butt;stroke-linejoin:miter;stroke-opacity:1"
     d="m 108.00012,54.999931 4,7"
     id="path831"
     inkscape:connector-curvature="0"
     sodipodi:nodetypes="cc" />
  <path
     sodipodi:type="spiral"
     style="fill:none;fill-rule:evenodd;stroke:#ffffff"
     id="path837-3"
     sodipodi:cx="20"
     sodipodi:cy="42"
     sodipodi:expansion="1"
     sodipodi:revolution="3"
     sodipodi:radius="5.0990195"
     sodipodi:argument="-18.652161"
     sodipodi:t0="0"
     d="m 20,42 c 0.250692,0.05014 0.0561,0.362664 -0.08333,0.416667 -0.377848,0.146343 -0.711807,-0.239958 -0.75,-0.583333 C 19.098348,41.219116 19.676003,40.756721 20.25,40.75 c 0.842363,-0.0099 1.448427,0.780994 1.416667,1.583333 -0.04233,1.069391 -1.053282,1.823001 -2.083333,1.75 C 18.28712,43.991469 17.384378,42.757508 17.5,41.500001 c 0.140033,-1.52301 1.598504,-2.575702 3.083333,-2.416668 1.749818,0.187416 2.952941,1.871267 2.750001,3.583333 -0.234304,1.976648 -2.144084,3.330513 -4.083333,3.083334 -2.203497,-0.28086 -3.708315,-2.416941 -3.416668,-4.583332 0.327185,-2.430364 2.689827,-4.086287 5.083332,-3.750002 2.657245,0.37334 4.464384,2.962735 4.083335,5.583333"
     transform="rotate(-45,101.32985,-6.9355073)" />
  <path
     sodipodi:type="spiral"
     style="fill:none;fill-rule:evenodd;stroke:#ffffff"
     id="path837-6"
     sodipodi:cx="20"
     sodipodi:cy="42"
     sodipodi:expansion="1"
     sodipodi:revolution="3"
     sodipodi:radius="5.0990195"
     sodipodi:argument="-18.652161"
     sodipodi:t0="0"
     d="m 20,42 c 0.250692,0.05014 0.0561,0.362664 -0.08333,0.416667 -0.377848,0.146343 -0.711807,-0.239958 -0.75,-0.583333 C 19.098348,41.219116 19.676003,40.756721 20.25,40.75 c 0.842363,-0.0099 1.448427,0.780994 1.416667,1.583333 -0.04233,1.069391 -1.053282,1.823001 -2.083333,1.75 C 18.28712,43.991469 17.384378,42.757508 17.5,41.500001 c 0.140033,-1.52301 1.598504,-2.575702 3.083333,-2.416668 1.749818,0.187416 2.952941,1.871267 2.750001,3.583333 -0.234304,1.976648 -2.144084,3.330513 -4.083333,3.083334 -2.203497,-0.28086 -3.708315,-2.416941 -3.416668,-4.583332 0.327185,-2.430364 2.689827,-4.086287 5.083332,-3.750002 2.657245,0.37334 4.464384,2.962735 4.083335,5.583333"
     transform="rotate(-45,80.22324,-7.1928573)" />
  <path
     sodipodi:type="spiral"
     style="fill:none;fill-rule:evenodd;stroke:#ffffff"
     id="path837-3-6"
     sodipodi:cx="20"
     sodipodi:cy="42"
     sodipodi:expansion="1"
     sodipodi:revolution="3"
     sodipodi:radius="5.0990195"
     sodipodi:argument="-18.652161"
     sodipodi:t0="0"
     d="m 20,42 c 0.250692,0.05014 0.0561,0.362664 -0.08333,0.416667 -0.377848,0.146343 -0.711807,-0.239958 -0.75,-0.583333 C 19.098348,41.219116 19.676003,40.756721 20.25,40.75 c 0.842363,-0.0099 1.448427,0.780994 1.416667,1.583333 -0.04233,1.069391 -1.053282,1.823001 -2.083333,1.75 C 18.28712,43.991469 17.384378,42.757508 17.5,41.500001 c 0.140033,-1.52301 1.598504,-2.575702 3.083333,-2.416668 1.749818,0.187416 2.952941,1.871267 2.750001,3.583333 -0.234304,1.976648 -2.144084,3.330513 -4.083333,3.083334 -2.203497,-0.28086 -3.708315,-2.416941 -3.416668,-4.583332 0.327185,-2.430364 2.689827,-4.086287 5.083332,-3.750002 2.657245,0.37334 4.464384,2.962735 4.083335,5.583333"
     transform="rotate(-45,65.2735,4.9995247)" />
  <path
     sodipodi:type="spiral"
     style="fill:none;fill-rule:evenodd;stroke:#ffffff"
     id="path837-3-7"
     sodipodi:cx="20"
     sodipodi:cy="42"
     sodipodi:expansion="1"
     sodipodi:revolution="3"
     sodipodi:radius="5.0990195"
     sodipodi:argument="-18.652161"
     sodipodi:t0="0"
     d="m 20,42 c 0.250692,0.05014 0.0561,0.362664 -0.08333,0.416667 -0.377848,0.146343 -0.711807,-0.239958 -0.75,-0.583333 C 19.098348,41.219116 19.676003,40.756721 20.25,40.75 c 0.842363,-0.0099 1.448427,0.780994 1.416667,1.583333 -0.04233,1.069391 -1.053282,1.823001 -2.083333,1.75 C 18.28712,43.991469 17.384378,42.757508 17.5,41.500001 c 0.140033,-1.52301 1.598504,-2.575702 3.083333,-2.416668 1.749818,0.187416 2.952941,1.871267 2.750001,3.583333 -0.234304,1.976648 -2.144084,3.330513 -4.083333,3.083334 -2.203497,-0.28086 -3.708315,-2.416941 -3.416668,-4.583332 0.327185,-2.430364 2.689827,-4.086287 5.083332,-3.750002 2.657245,0.37334 4.464384,2.962735 4.083335,5.583333"
     transform="rotate(-45,90.62274,15.499525)" />
  <path
     sodipodi:type="spiral"
     style="fill:none;fill-rule:evenodd;stroke:#ffffff"
     id="path837"
     sodipodi:cx="20"
     sodipodi:cy="42"
     sodipodi:expansion="1"
     sodipodi:revolution="3"
     sodipodi:radius="5.0990195"
     sodipodi:argument="-18.652161"
     sodipodi:t0="0"
     d="m 20,42 c 0.250692,0.05014 0.0561,0.362664 -0.08333,0.416667 -0.377848,0.146343 -0.711807,-0.239958 -0.75,-0.583333 C 19.098348,41.219116 19.676003,40.756721 20.25,40.75 c 0.842363,-0.0099 1.448427,0.780994 1.416667,1.583333 -0.04233,1.069391 -1.053282,1.823001 -2.083333,1.75 C 18.28712,43.991469 17.384378,42.757508 17.5,41.500001 c 0.140033,-1.52301 1.598504,-2.575702 3.083333,-2.416668 1.749818,0.187416 2.952941,1.871267 2.750001,3.583333 -0.234304,1.976648 -2.144084,3.330513 -4.083333,3.083334 -2.203497,-0.28086 -3.708315,-2.416941 -3.416668,-4.583332 0.327185,-2.430364 2.689827,-4.086287 5.083332,-3.750002 2.657245,0.37334 4.464384,2.962735 4.083335,5.583333"
     transform="rotate(-45,80.9806,-29.506567)" />
</svg>
