<svg height="182" width="160" xmlns:xlink="http://www.w3.org/1999/xlink" xmlns="http://www.w3.org/2000/svg"><defs><g id="a"><path d="m.35-60-1.25.55-3.85-8.6-3.85 8.6-.65-.3-.55-.25 5.05-11 5.1 11m-10.1 4.2.75.75q-2.1 1.95-2.45 4.25l-.05 1q0 2.25 1.5 4.15l1 1.1-.75.7-.4-.35-.6-.7q-1.8-2.2-1.8-4.9l.05-1q.35-2.8 2.75-5m-2.55 35.3.7-.95 1.25 1v.05l-1.35 1.5-.45.4v.05q-.7.45-1.6.45-.95 0-2.65-1.1l-1.9-.65q-.9 0-1.3.55l-.6.95-1.35-.75v-.05l1.2-1.65q.8-.8 1.95-.8 1.1 0 2.25.8 1.65.85 2.55.85.65 0 1.3-.65M4.6-9.55h1.55V-3q0 .7.4 1.15.55.55 1.65.55 1.05 0 1.6-.55.45-.45.45-1.15v-6.55h1.55v6.6q0 1.25-.8 2.05-.95.9-2.8.9-1.9 0-2.8-.9-.8-.8-.8-2.05v-6.6m9.6-20.85-1.5.05-.35-1.5 1.25-.05q3.05-.2 4.1-1.25.75-.75.75-1.85 0-1.2-.8-2-.6-.6-2.15-.6-1.3 0-3 .6l-3.35 1.25-.65-1.6 3.15-.9 3.25-.7.75-.05q2.2 0 3.25 1.05Q20-36.9 20-35.1q0 1.85-1 2.85l-.4.35q-1.6 1.2-4.4 1.5m4.25-14.45-.1-.1 1.4-1.7.25-.45q.8-1.45.8-3.1l-.05-.6q-.2-2.5-2.3-4.55l-.1-.1.35-.4h.05l.3-.35q2.55 2.35 2.75 5.4l.05.6q0 1.9-.9 3.55-.7 1.25-1.9 2.4l-.6-.6m-4-15.15-1.25.55-3.9-8.6-3.85 8.6-1.2-.55L9.3-71l5.15 11M10.3-43.6h-.75l.55-1.45h-.55v-1.45h1.55v1.35l-.8 1.55m2.95 0h-.75l.55-1.45h-.55v-1.45H14v1.35l-.75 1.55" fill-rule="evenodd" transform="translate(21.55 71)"/><path d="M.35-60h3.9l1.2.55 3.85-8.6 3.9 8.6 1.25-.55 3.15 3.05 1.1 1.1-1.1-1.1 1.15 1.1h-.05l-.35.4.1.1q2.1 2.05 2.3 4.55l.05.6q0 1.65-.8 3.1l-.25.45-1.4 1.7.1.1-.3.3-3.25.9v4.7l-3.25.7-3.15.9.65 1.6L12.5-37q1.7-.6 3-.6 1.55 0 2.15.6.8.8.8 2 0 1.1-.75 1.85-1.05 1.05-4.1 1.25l-1.25.05.35 1.5 1.5-.05-.05 2.75-1.5 1.25v12.25l-.85 4.6h-1.55V-3q0 .7-.45 1.15-.55.55-1.6.55-1.1 0-1.65-.55-.4-.45-.4-1.15v-6.55H4.6l-2.35-3.5H.5l-1.15-.5H-8.9l-3.25-3.25v-1.7l.45-.4 1.35-1.5v-.05l-1.25-1-.7.95.4-10.9 1.75-12.8.4.35.75-.7-1-1.1q-1.5-1.9-1.5-4.15l.05-1q.35-2.3 2.45-4.25l-.75-.75.5-3.95.65.3 3.85-8.6 3.85 8.6L.35-60m12.9 16.4.75-1.55v-1.35h-1.5v1.45h.55l-.55 1.45h.75m-2.95 0 .8-1.55v-1.35H9.55v1.45h.55l-.55 1.45h.75" fill="#fff" fill-rule="evenodd" transform="translate(21.55 71)"/><path d="M4.25-60H.35m12.3 45.85V-26.4m6.05-29.45-1.1-1.1" fill="none" stroke="#000" stroke-linecap="round" stroke-linejoin="round" transform="translate(21.55 71)"/></g></defs><use height="71" transform="matrix(2 0 0 2 36.341 0)" width="43.4" xlink:href="#a"/><path style="fill:#fea;fill-opacity:1;stroke:#d4aa00;stroke-width:1px;stroke-linecap:butt;stroke-linejoin:miter;stroke-opacity:1" d="m108 57-22-2c-6-1-6-1-13-2-14 0-18-1-21 8-2 11-2 11-2 21 3 12 3 15 8 16 17.032-.535 19-1 23-3 8-11 7-19 12.709-26.675C95.839 66.516 98.202 65.63 109 63c-1.969-3.646-3.412-2.392-1-6z"/><ellipse style="fill:#fea;fill-opacity:1;fill-rule:evenodd;stroke:#d4aa00;stroke-width:1.08330357" cx="109.319" cy="59.217" rx="3.458" ry="4.242"/><path style="fill:none;stroke:#d4aa00;stroke-width:1px;stroke-linecap:butt;stroke-linejoin:miter;stroke-opacity:1" d="m108 55 4 7"/><path style="fill:none;fill-rule:evenodd;stroke:#fff" d="M20 42c.25.05.056.363-.083.417-.378.146-.712-.24-.75-.584-.069-.614.509-1.076 1.083-1.083.842-.01 1.448.781 1.417 1.583-.043 1.07-1.054 1.823-2.084 1.75-1.296-.092-2.199-1.325-2.083-2.583.14-1.523 1.599-2.576 3.083-2.417 1.75.188 2.953 1.872 2.75 3.584-.234 1.976-2.144 3.33-4.083 3.083-2.203-.28-3.708-2.417-3.417-4.583.328-2.43 2.69-4.087 5.084-3.75C23.574 37.79 25.38 40.379 25 43" transform="rotate(-45 101.33 -6.936)"/><path style="fill:none;fill-rule:evenodd;stroke:#fff" d="M20 42c.25.05.056.363-.083.417-.378.146-.712-.24-.75-.584-.069-.614.509-1.076 1.083-1.083.842-.01 1.448.781 1.417 1.583-.043 1.07-1.054 1.823-2.084 1.75-1.296-.092-2.199-1.325-2.083-2.583.14-1.523 1.599-2.576 3.083-2.417 1.75.188 2.953 1.872 2.75 3.584-.234 1.976-2.144 3.33-4.083 3.083-2.203-.28-3.708-2.417-3.417-4.583.328-2.43 2.69-4.087 5.084-3.75C23.574 37.79 25.38 40.379 25 43" transform="rotate(-45 80.223 -7.193)"/><path style="fill:none;fill-rule:evenodd;stroke:#fff" d="M20 42c.25.05.056.363-.083.417-.378.146-.712-.24-.75-.584-.069-.614.509-1.076 1.083-1.083.842-.01 1.448.781 1.417 1.583-.043 1.07-1.054 1.823-2.084 1.75-1.296-.092-2.199-1.325-2.083-2.583.14-1.523 1.599-2.576 3.083-2.417 1.75.188 2.953 1.872 2.75 3.584-.234 1.976-2.144 3.33-4.083 3.083-2.203-.28-3.708-2.417-3.417-4.583.328-2.43 2.69-4.087 5.084-3.75C23.574 37.79 25.38 40.379 25 43" transform="rotate(-45 65.273 5)"/><path style="fill:none;fill-rule:evenodd;stroke:#fff" d="M20 42c.25.05.056.363-.083.417-.378.146-.712-.24-.75-.584-.069-.614.509-1.076 1.083-1.083.842-.01 1.448.781 1.417 1.583-.043 1.07-1.054 1.823-2.084 1.75-1.296-.092-2.199-1.325-2.083-2.583.14-1.523 1.599-2.576 3.083-2.417 1.75.188 2.953 1.872 2.75 3.584-.234 1.976-2.144 3.33-4.083 3.083-2.203-.28-3.708-2.417-3.417-4.583.328-2.43 2.69-4.087 5.084-3.75C23.574 37.79 25.38 40.379 25 43" transform="rotate(-45 90.623 15.5)"/><path style="fill:none;fill-rule:evenodd;stroke:#fff" d="M20 42c.25.05.056.363-.083.417-.378.146-.712-.24-.75-.584-.069-.614.509-1.076 1.083-1.083.842-.01 1.448.781 1.417 1.583-.043 1.07-1.054 1.823-2.084 1.75-1.296-.092-2.199-1.325-2.083-2.583.14-1.523 1.599-2.576 3.083-2.417 1.75.188 2.953 1.872 2.75 3.584-.234 1.976-2.144 3.33-4.083 3.083-2.203-.28-3.708-2.417-3.417-4.583.328-2.43 2.69-4.087 5.084-3.75C23.574 37.79 25.38 40.379 25 43" transform="rotate(-45 80.98 -29.507)"/><path d="M110.639 28.6h.402l1.107.2.906.7q.905.9.905 2l-.905 2.3q-.906.8-2.013.8l-1.61-.4-.503-.4-.905-1.4v-.3l-.101-.6v-.2q.1-1 1.006-1.8l.503-.4q.503-.4 1.107-.5h.1m.906 1.7-.503-.1q-.704-.1-1.107.4-.402.3-.402.9v.3l.302.9h.1l.101.1.403.2.603.1 1.107-.4.302-1.2-.1-.6-.202-.3-.1-.1-.302-.2h-.202" fill-rule="evenodd" id="gikopoipoi_eyes_open" style="stroke-width:2.00619"/><path d="M107.798 31.7h6.3" stroke-width="3" id="gikopoipoi_eyes_closed" style="display:none" fill="none" stroke="#000" stroke-linecap="round" stroke-linejoin="round"/></svg>