<svg height="182" width="160" xmlns:xlink="http://www.w3.org/1999/xlink" xmlns="http://www.w3.org/2000/svg"><defs><g id="a"><path d="M10.75-56.05v-.05H4.5v3.9l-.05 1.1L4-48.65l-1.05 2H2v3.3h1.35v-1.95h7.2v1.95h1.4v-3.3h-1.2v-9.4M.4-60h3.9l1.2.55 3.85-8.6 3.9 8.6L14.5-60l3.15 3.05 1.15 1.1h-.05l-.35.4.1.1q2.1 2.05 2.3 4.55l.05.6q0 1.65-.8 3.1l-.25.45-1.4 1.7.1.1-.3.3-3.25.9v4.7l-3.25.7-3.15.9.65 1.6L12.55-37l3-.6q1.55 0 2.15.6.8.8.8 2 0 1.1-.75 1.85-1.05 1.05-4.1 1.25l-1.25.05.35 1.5 1.5-.05-.05 2.75-1.5 1.25v12.25l-.85 4.6H10.3V-3q0 .7-.45 1.15-.55.55-1.6.55-1.1 0-1.65-.55Q6.2-2.3 6.2-3v-6.55H4.65l-.9-1.3q.5-.9.5-2.25v-.25q-.05-1.7-.9-2.55-.8-.8-2.05-.8h-6.6v1.55h6.55q.7 0 1.15.4.5.5.55 1.55l-.15.9h.05l-.05.25-.4.55q-.45.45-1.15.45H-5.3v1.5l-1.8.05v-.05h-1.55l-1.7-1.1-1.75-3.9v-3.9l.45-.4.2-.15 1.15-1.4-1.25-1-.7.95.4-10.95 1.75-12.8.4.35.75-.7-1-1.1q-1.45-1.85-1.5-4v-.25l.05-.9q.35-2.3 2.45-4.25l-.75-.75.5-3.95.65.3 3.85-8.6 3.85 8.6L.4-60m5.45 8.85v-3.6h3.5v8.15H4.4l.05-.05.5-.9.9-3.55v-.05m12.9-4.7-1.1-1.1 1.1 1.1M5.5-37.95Q4.45-39 2.25-39l-4 .75-3.1.9.65 1.6L-.9-37l3-.6q1.55 0 2.15.6.8.8.8 2 0 1.1-.75 1.85Q3.25-32.1.25-31.9l-1.3.05.35 1.5q3.95-.05 5.9-1.55l.4-.35q1-1 1-2.85 0-1.8-1.1-2.85M-7.15-43.6l.75-1.55v-1.35h-1.5v1.45h.55l-.55 1.45h.75m3.65-1.55v-1.35H-5v1.45h.55L-5-43.6h.75l.75-1.55" fill="#fff" fill-rule="evenodd" transform="translate(21.5 71)"/><path d="M10.75-56.05v9.45h1.2v3.25h-1.4v-1.95h-7.2v1.95H2v-3.25h.95L4-48.65l.45-2.45.05-1.1v-3.85h6.25M4.3-60l5.05-11 5.15 11-1.25.55-3.9-8.6-3.85 8.6L4.3-60m14.5 4.15.3-.35q2.55 2.35 2.75 5.4l.05.6q0 1.9-.9 3.55-.7 1.25-1.9 2.4l-.6-.6-.1-.1 1.4-1.7.25-.45q.8-1.45.8-3.1l-.05-.6q-.2-2.5-2.3-4.55l-.1-.1.35-.4h.05m-3.85 16.9.75-.05q2.2 0 3.25 1.05 1.1 1.05 1.1 2.85 0 1.85-1 2.85l-.4.35q-1.6 1.2-4.4 1.5l-1.5.05-.35-1.5 1.25-.05q3.05-.2 4.1-1.25.75-.75.75-1.85 0-1.2-.8-2-.6-.6-2.15-.6l-3 .6-3.35 1.25-.65-1.6 3.15-.9 3.25-.7m-3.1 29.4v6.6q0 1.25-.8 2.05-.95.9-2.8.9-1.9 0-2.8-.9-.8-.8-.8-2.05v-6.6H6.2V-3q0 .7.4 1.15.55.55 1.65.55 1.05 0 1.6-.55.45-.45.45-1.15v-6.55h1.55m-8.1-1.3-.05.1-.35.4q-.75.8-1.95.8h-6.7v-1.5h6.55q.7 0 1.15-.45l.4-.55.05-.25.1-.8v-.1q-.05-1.05-.55-1.55-.45-.4-1.15-.4H-5.3v-1.55h6.6q1.25 0 2.05.8.85.85.9 2.55v.25q0 1.35-.5 2.25m-15.85-7.6q-.7.45-1.6.45-.95 0-2.65-1.1-1.2-.65-1.9-.65-.9 0-1.3.55l-.15.2-.45.75-1.35-.75q.4-.95 1.2-1.65l.6-.45 1.35-.35q1.1 0 2.25.8 1.65.85 2.55.85.6 0 1.3-.65l.7-.95 1.25 1-1.15 1.4-.2.15-.45.4m2-25.75-.6-.7-.75-1.05q-1.1-1.75-1.05-3.85l.05-1q.2-1.5 1-2.85l1.75-2.15.75.75q-2.1 1.95-2.45 4.25l-.05.9v.25q.05 2.15 1.5 4l1 1.1-.75.7-.4-.35m.9-15.55-.55-.25 5.05-11L.4-60l-1.25.55-3.85-8.6-3.85 8.6-.65-.3m15.05 8.6v.05l-.9 3.55-.5.9-.05.05h4.95v-8.15h-3.5v3.6m-.35 13.2q1.1 1.05 1.1 2.85 0 1.85-1 2.85l-.4.35q-1.95 1.5-5.9 1.55l-.35-1.5 1.3-.05q3-.2 4.05-1.25.75-.75.75-1.85 0-1.2-.8-2-.6-.6-2.15-.6l-3 .6-3.3 1.25-.65-1.6 3.1-.9 4-.75q2.2 0 3.25 1.05m-9-7.2-.75 1.55H-5l.55-1.45H-5v-1.45h1.5v1.35m-3.65 1.55h-.75l.55-1.45h-.55v-1.45h1.5v1.35l-.75 1.55" fill-rule="evenodd" transform="translate(21.5 71)"/><path d="M.4-60h3.9m8.4 33.6v12.25m4.95-42.8 1.1 1.1" fill="none" stroke="#000" stroke-linecap="round" stroke-linejoin="round" transform="translate(21.5 71)"/></g></defs><use height="71" transform="matrix(2 0 0 2 36.341 0)" width="43.4" xlink:href="#a" style="fill:#000"/><ellipse style="fill:#fea;fill-opacity:1;fill-rule:evenodd;stroke:#d4aa00;stroke-width:.83985353" cx="81.067" cy="83.07" rx="1.58" ry="5.58" transform="rotate(-10)"/><ellipse style="fill:#fea;fill-opacity:1;fill-rule:evenodd;stroke:#d4aa00;stroke-width:1.36560142" cx="91.686" cy="60.492" rx="5.685" ry="4.101"/><path style="fill:#fea;fill-opacity:1;stroke:#d4aa00;stroke-width:1px;stroke-linecap:butt;stroke-linejoin:miter;stroke-opacity:1" d="M87.855 57.446 65 56c-3.811-.855-4.463-1.871-5.859-2.4C53.055 51.953 46.358 50.385 40 62c-2.88 10.293-1.384 15.263 0 20 3.333 9.45 6.667 14.547 10 15 7.012 1.51 8.508-1.743 10-5 2.887-9.621 4.96-21.598 10-25 1.405-1.181 8.455-2.564 17-4-.833-1.333-.921-2.17-1-3 1.447-2.807-.32-1.689 1.855-2.554zM95 57c14-2 14-1.133 14-1.133 1.308.611 2.25 1.133 2 4.133-.687 3-.75 3-1.904 3.229L96 63c.74-.463.72-1.307 1-2 .54-2.368-.798-3.126-2-4z"/><path style="fill:none;stroke:#d4aa00;stroke-width:1px;stroke-linecap:butt;stroke-linejoin:miter;stroke-opacity:1" d="M92.633 60.016 87 58m8-1-6 7"/><path style="fill:none;fill-rule:evenodd;stroke:#fff" d="M20 42c.25.05.056.363-.083.417-.378.146-.712-.24-.75-.584-.069-.614.509-1.076 1.083-1.083.842-.01 1.448.781 1.417 1.583-.043 1.07-1.054 1.823-2.084 1.75-1.296-.092-2.199-1.325-2.083-2.583.14-1.523 1.599-2.576 3.083-2.417 1.75.188 2.953 1.872 2.75 3.584-.234 1.976-2.144 3.33-4.083 3.083-2.203-.28-3.708-2.417-3.417-4.583.328-2.43 2.69-4.087 5.084-3.75C23.574 37.79 25.38 40.379 25 43" transform="rotate(-45 64.566 3.292)"/><path style="fill:none;fill-rule:evenodd;stroke:#fff" d="M20 42c.25.05.056.363-.083.417-.378.146-.712-.24-.75-.584-.069-.614.509-1.076 1.083-1.083.842-.01 1.448.781 1.417 1.583-.043 1.07-1.054 1.823-2.084 1.75-1.296-.092-2.199-1.325-2.083-2.583.14-1.523 1.599-2.576 3.083-2.417 1.75.188 2.953 1.872 2.75 3.584-.234 1.976-2.144 3.33-4.083 3.083-2.203-.28-3.708-2.417-3.417-4.583.328-2.43 2.69-4.087 5.084-3.75C23.574 37.79 25.38 40.379 25 43" transform="rotate(-45 88.33 24.449)"/><path style="fill:none;fill-rule:evenodd;stroke:#fff" d="M20 42c.25.05.056.363-.083.417-.378.146-.712-.24-.75-.584-.069-.614.509-1.076 1.083-1.083.842-.01 1.448.781 1.417 1.583-.043 1.07-1.054 1.823-2.084 1.75-1.296-.092-2.199-1.325-2.083-2.583.14-1.523 1.599-2.576 3.083-2.417 1.75.188 2.953 1.872 2.75 3.584-.234 1.976-2.144 3.33-4.083 3.083-2.203-.28-3.708-2.417-3.417-4.583.328-2.43 2.69-4.087 5.084-3.75C23.574 37.79 25.38 40.379 25 43" transform="rotate(-45 67.223 24.191)"/><g id="gikopoipoi_eyes_closed" style="display:none" fill="none" stroke="#000" stroke-linecap="round" stroke-linejoin="round"><path d="M107.46 30.1h6.3" stroke-width="3"/><path d="M-.05 1.55H3.1" stroke-width="1.5" style="display:inline" transform="matrix(2 0 0 2 73.719 27)"/></g><path d="M1.357 0h.2l.554.1.452.35q.452.45.452 1L2.563 2.6Q2.11 3 1.558 3l-.804-.2-.252-.2-.452-.7v-.15L0 1.45v-.1q.05-.5.502-.9l.252-.2q.251-.2.552-.25h.05m.453.85L1.558.8q-.352-.05-.553.2-.201.15-.201.45v.15l.15.45h.051l.05.05.201.1.302.05.552-.2.151-.6-.05-.3-.1-.15-.05-.05-.151-.1h-.101M18.257 0h.2l.553.1.453.35q.452.45.452 1l-.452 1.15q-.453.4-1.005.4l-.804-.2-.252-.2-.452-.7v-.15l-.05-.3v-.1q.05-.5.502-.9l.252-.2q.251-.2.552-.25h.05m.453.85L18.458.8q-.352-.05-.553.2-.201.15-.201.45v.15l.15.45h.051l.05.05.201.1.302.05.553-.2.15-.6-.05-.3-.1-.15-.05-.05-.151-.1h-.101" style="stroke-width:1.0025" transform="matrix(2.0024 0 0 2 73.743 27)" id="gikopoipoi_eyes_open" fill-rule="evenodd"/></svg>