<svg xmlns:xlink="http://www.w3.org/1999/xlink" height="232.65" width="90.65" xmlns="http://www.w3.org/2000/svg"><use height="232.65" width="90.65" xlink:href="#shape0"/><defs><linearGradient gradientTransform="matrix(.0224 -.006 .0048 .0178 -13.3 -207.4)" gradientUnits="userSpaceOnUse" id="gradient0" spreadMethod="pad" x1="-819.2" x2="819.2"><stop offset="0" stop-color="#ffac00"/><stop offset="1" stop-color="#eae2a2"/></linearGradient><linearGradient gradientTransform="matrix(-.0144 -.0908 .0536 -.0085 -9.75 -109.4)" gradientUnits="userSpaceOnUse" id="gradient1" spreadMethod="pad" x1="-819.2" x2="819.2"><stop offset="0"/><stop offset="1" stop-color="#493d83"/></linearGradient><linearGradient gradientTransform="matrix(.022 0 0 .0494 30.9 -38.7)" gradientUnits="userSpaceOnUse" id="gradient3" spreadMethod="pad" x1="-819.2" x2="819.2"><stop offset="0" stop-color="#282828"/><stop offset="1" stop-color="#494949"/></linearGradient><linearGradient gradientTransform="matrix(0 -.0195 .022 0 12.9 -79.2)" gradientUnits="userSpaceOnUse" id="gradient5" spreadMethod="pad" x1="-819.2" x2="819.2"><stop offset="0" stop-color="#282828"/><stop offset="1" stop-color="#585858"/></linearGradient><radialGradient cx="0" cy="0" gradientTransform="translate(32 -51.2) scale(.0165)" gradientUnits="userSpaceOnUse" id="gradient2" r="819.2" spreadMethod="pad"><stop offset="0"/><stop offset="1" stop-color="#4b4b4b"/></radialGradient><radialGradient cx="0" cy="0" gradientTransform="translate(32.05 -21.65) scale(.0093)" gradientUnits="userSpaceOnUse" id="gradient4" r="819.2" spreadMethod="pad"><stop offset="0"/><stop offset="1" stop-color="#5a5a5a"/></radialGradient><g id="shape0"><path d="M16-214.1Q6.85-202.6.15-206.15q-9.2 11.7-20.05 10.05-4.6 5-8.85 7.6-5.9 3.5-11.25 2.4v-16.75l56-27.25v16" fill="url(#gradient0)" fill-rule="evenodd" transform="translate(41.25 230.35)"/><path d="M-40-186.1q5.35 1.1 11.25-2.4 4.25-2.6 8.85-7.6 10.85 1.65 20.05-10.05 6.7 3.55 15.85-7.95 3.2 103.55 0 197.55-25.4-3.35-46.8 1.65-13.45-74.65-9.2-171.2m13.4 39.55q-2.8-18.55-2.15-41.95-.65 23.4 2.15 41.95m28.55 4.3q.2-39.85-1.8-63.9 2 24.05 1.8 63.9" fill="url(#gradient1)" fill-rule="evenodd" transform="translate(41.25 230.35)"/><path d="M57.25 16.25v-16l-56 27.25v16.75q-4.25 96.55 9.2 171.2 21.4-5 46.8-1.65 3.2-94 0-197.55M41.4 24.2q2 24.05 1.8 63.9M12.5 41.85q-.65 23.4 2.15 41.95" fill="none" stroke="#000" stroke-linecap="round" stroke-linejoin="round" stroke-width=".5"/><path d="M48.65 24q-3.15 1.55-5.9.75m14.5-8.5q-2 2.55-3.9 4.35m-14.8 6.85Q36.3 29.75 34 31.3M8.25 43.8q-3.1 1-6.1.6m16-6.95q-2.3 2.15-4.5 3.65m15-7.3q-3 .85-6.1.6" fill="none" stroke="#eae2a2" stroke-linecap="round" stroke-linejoin="round" stroke-width=".5"/><path d="M29.7-55q.95-1.6 2.3-1.55 1.35-.05 2.3 1.55.95 1.65.95 3.95 0 2.3-.95 3.9t-2.3 1.6q-1.35 0-2.3-1.6-.95-1.6-.95-3.9T29.7-55m2.25 29.25h.1q.85.05 1.45 1 .65 1.05.65 2.5t-.65 2.45q-.65 1.05-1.55 1.05-.95 0-1.6-1.05-.65-1-.65-2.45 0-1.45.65-2.5l.15-.25q.6-.8 1.45-.75" fill="#444" fill-rule="evenodd" transform="translate(41.25 230.35)"/><path d="M-23.1-79.2l36 18v63l-35.1-17.55-.9-.45v-63" fill="#282828" fill-rule="evenodd" transform="translate(41.25 230.35)"/><path d="M24.85-60.3q2.95-3.75 7.2-3.75 4.15 0 7.1 3.75 2.95 3.75 2.95 9.1 0 5.3-2.95 9.05-2.95 3.75-7.1 3.75-4.25 0-7.2-3.75-2.9-3.75-2.9-9.05 0-5.35 2.9-9.1M29.7-55q-.95 1.65-.95 3.95 0 2.3.95 3.9t2.3 1.6q1.35 0 2.3-1.6.95-1.6.95-3.9T34.3-55q-.95-1.6-2.3-1.55-1.35-.05-2.3 1.55" fill="url(#gradient2)" fill-rule="evenodd" transform="translate(41.25 230.35)"/><path d="M24.85-60.3q-2.9 3.75-2.9 9.1 0 5.3 2.9 9.05 2.95 3.75 7.2 3.75 4.15 0 7.1-3.75 2.95-3.75 2.95-9.05 0-5.35-2.95-9.1t-7.1-3.75q-4.25 0-7.2 3.75M35-27.25q-1.25-1.5-2.95-1.45-2-.05-3.4 2-.95 1.45-1.25 3.25-.15.85-.15 1.85 0 2.9 1.4 4.95 1.4 2.1 3.4 2.1 1.95 0 3.35-2.1 1.4-2.05 1.4-4.95 0-3-1.4-5.1l-.4-.55M12.9-61.2l36-18v63l-36 18v-63" fill="url(#gradient3)" fill-rule="evenodd" transform="translate(41.25 230.35)"/><path d="M31.95-25.75q-.85-.05-1.45.75l-.15.25q-.65 1.05-.65 2.5t.65 2.45q.65 1.05 1.6 1.05.9 0 1.55-1.05.65-1 .65-2.45 0-1.45-.65-2.5-.6-.95-1.45-1h-.1m3.05-1.5l.4.55q1.4 2.1 1.4 5.1 0 2.9-1.4 4.95-1.4 2.1-3.35 2.1-2 0-3.4-2.1-1.4-2.05-1.4-4.95 0-1 .15-1.85.3-1.8 1.25-3.25 1.4-2.05 3.4-2 1.7-.05 2.95 1.45" fill="url(#gradient4)" fill-rule="evenodd" transform="translate(41.25 230.35)"/><path d="M48.9-79.2l-36 18-36-18 36-18 36 18" fill="url(#gradient5)" fill-rule="evenodd" transform="translate(41.25 230.35)"/><path d="M24.85-60.3q2.95-3.75 7.2-3.75 4.15 0 7.1 3.75 2.95 3.75 2.95 9.1 0 5.3-2.95 9.05-2.95 3.75-7.1 3.75-4.25 0-7.2-3.75-2.9-3.75-2.9-9.05 0-5.35 2.9-9.1M29.7-55q.95-1.6 2.3-1.55 1.35-.05 2.3 1.55.95 1.65.95 3.95 0 2.3-.95 3.9t-2.3 1.6q-1.35 0-2.3-1.6-.95-1.6-.95-3.9T29.7-55m2.25 29.25h.1q.85.05 1.45 1 .65 1.05.65 2.5t-.65 2.45q-.65 1.05-1.55 1.05-.95 0-1.6-1.05-.65-1-.65-2.45 0-1.45.65-2.5l.15-.25q.6-.8 1.45-.75m3.05-1.5l.4.55q1.4 2.1 1.4 5.1 0 2.9-1.4 4.95-1.4 2.1-3.35 2.1-2 0-3.4-2.1-1.4-2.05-1.4-4.95 0-1 .15-1.85.3-1.8 1.25-3.25 1.4-2.05 3.4-2 1.7-.05 2.95 1.45M12.9-61.2l36-18-36-18-36 18 36 18v63l36-18v-63m-72 63v-63m36 81l-35.1-17.55" fill="none" stroke="#000" stroke-linecap="round" stroke-linejoin="round" transform="translate(41.25 230.35)"/></g></defs></svg>