<svg xmlns="http://www.w3.org/2000/svg" xmlns:xlink="http://www.w3.org/1999/xlink" height="591.34" width="881.617"><defs><radialGradient cx="0" cy="0" gradientTransform="translate(2.35 -13.35) scale(.0157)" gradientUnits="userSpaceOnUse" id="a" r="819.2" spreadMethod="pad"><stop offset="0" stop-color="#b17421"/><stop offset="1" stop-color="#763d03"/><stop offset="1" stop-color="#ae0202"/></radialGradient><radialGradient cx="0" cy="0" gradientTransform="translate(1.85 -4.7) scale(.0178)" gradientUnits="userSpaceOnUse" id="b" r="819.2" spreadMethod="pad"><stop offset="0" stop-color="#b17421"/><stop offset="1" stop-color="#763d03"/><stop offset="1" stop-color="#ae0202"/></radialGradient><linearGradient gradientTransform="matrix(.0023 0 0 .0035 .85 -.05)" gradientUnits="userSpaceOnUse" id="c" spreadMethod="pad" x1="-819.2" x2="819.2"><stop offset="0" stop-color="#757575"/><stop offset=".475" stop-color="#9c9c9c"/><stop offset="1" stop-color="#646464"/></linearGradient><g id="d"><path d="M-10.5-13.5q.35-1.95 3.5-3.35 3.5-1.6 8.5-1.55 5-.05 8.5 1.55T13.5-13v.1q-.1 1.25-1.2 2.3L10-9.2Q6.5-7.6 1.5-7.6T-7-9.2q-1.45-.65-2.3-1.4-1-.85-1.2-1.85v-1.05" fill="url(#a)" fill-rule="evenodd" transform="translate(11.05 18.9)"/><path d="M13.5-12.9v4.75Q13.45-6 10-4.45q-3.05 1.4-7.25 1.6L1.5-2.8l-2.45-.1Q-4.4-3.25-7-4.45q-3.5-1.55-3.55-3.7l.05-4.3q.2 1 1.2 1.85.85.75 2.3 1.4 3.5 1.6 8.5 1.6T10-9.2l2.3-1.4q1.1-1.05 1.2-2.3" fill="url(#b)" fill-rule="evenodd" transform="translate(11.05 18.9)"/><path d="M2.75-2.85V1.8q0 .55-.45.8l-1.35.3-1.35-.3-.55-.6v-4.9l2.45.1 1.25-.05" fill="url(#c)" fill-rule="evenodd" transform="translate(11.05 18.9)"/><path d="M2.75-2.05q3.9.2 6.85 1.5 3.5 1.6 3.5 3.85v.1q-.1 1.25-1.25 2.3-.85.75-2.25 1.35-3.55 1.6-8.5 1.65-5-.05-8.5-1.65L-9.65 5.7q-1-.85-1.2-1.85V2.8Q-10.5.85-7.4-.55q2.75-1.25 6.45-1.5v1.8L-4.8.5q-2.4.9-2.4 2.15 0 1.2 2.4 2.1 2.45.9 5.85.9 3.4 0 5.8-.9t2.45-2.1Q9.25 1.4 6.85.5l-4.1-.8v-1.75" fill-opacity=".2" fill-rule="evenodd" transform="translate(11.05 18.9)"/><path d="M2.75-.3l4.1.8q2.4.9 2.45 2.15-.05 1.2-2.45 2.1-2.4.9-5.8.9t-5.85-.9q-2.4-.9-2.4-2.1Q-7.2 1.4-4.8.5l3.85-.75V2l.55.6 1.35.3 1.35-.3q.45-.25.45-.8V-.3" fill="#848484" fill-rule="evenodd" transform="translate(11.05 18.9)"/><path d="M-10.5-13.5q.35-1.95 3.5-3.35 3.5-1.6 8.5-1.55 5-.05 8.5 1.55T13.5-13v4.85M2.75-2.85V1.8m-3.7-3.85v-.85m-9.55-9.55v-.1l-.05-.45.05-.5m0 1.05q.2 1 1.2 1.85.85.75 2.3 1.4 3.5 1.6 8.5 1.6T10-9.2l2.3-1.4q1.1-1.05 1.2-2.3M-.95-.25v-1.8m0 3.9v-2.1" fill="none" stroke="#400000" stroke-linecap="round" stroke-linejoin="round" transform="translate(11.05 18.9)"/><path d="M13.5-8.15Q13.45-6 10-4.45q-3.05 1.4-7.25 1.6m-3.7-.05Q-4.4-3.25-7-4.45q-3.5-1.55-3.55-3.7l.05-4.3m0-1.05v1.05M2.75-.3l4.1.8q2.4.9 2.45 2.15-.05 1.2-2.45 2.1-2.4.9-5.8.9t-5.85-.9q-2.4-.9-2.4-2.1Q-7.2 1.4-4.8.5l3.85-.75m0-2.65l2.45.1 1.25-.05m0 4.65q0 .55-.45.8l-1.35.3-1.35-.3-.55-.6v-.15" fill="none" stroke="#400000" stroke-linecap="round" stroke-linejoin="round" transform="translate(11.05 18.9)"/></g></defs><g transform="translate(79.74 -.207)"><g fill-rule="evenodd" stroke="#513b39" stroke-linejoin="round"><path d="M321.277 151.275L-78.839 351.08l480.098 239.966L801.376 391.14z" fill="#7f5d59"/><path d="M321.279 1.107L-78.839 200.989v150.092l400.118-199.907z" fill="#745552"/><path d="M801.377 391.139V241.308L321.28 1.107v150.067z" fill="#886460"/></g><path d="M609.576 381.514c1.6 2.633 2.55 5.433 2.85 8.4l.15 2.2-.05 1.35a22.573 22.573 0 01-.9 4.75c-2.544 7.105-8.065 11.942-13.8 15.45l-3.45 1.95-2.6 1.25-4.15 1.7-.05.05-2.25.75-1.8.55-2.85.75-1.55.35-5.45.95-4.5.45-3.35.2-3.5.05h-.05l-6.85-.25-1.4-.15-3-.3-.15-.05-5.7-1-1.4-.3-7-2.15-3.95-1.65c-2.1-.934-4.1-1.984-6-3.15l-3.4-2.25c-5.633-4.1-9.167-8.717-10.6-13.85a18.658 18.658 0 01-.65-4.05l-.05-1.4c0-3.467.833-6.734 2.5-9.8 6.585.845 88.668.54 94.95-.8M409.56 481.27c1.6 2.633 2.55 5.433 2.85 8.4l.15 2.2-.05 1.35a22.573 22.573 0 01-.9 4.75c-2.544 7.105-8.064 11.943-13.8 15.45l-3.45 1.95-2.6 1.25-4.15 1.7-.05.05-2.25.75-1.8.55-2.85.75-1.55.35-5.45.95-4.5.45-3.35.2-3.5.05h-.05l-6.85-.25-1.4-.15-3-.3-.15-.05-5.7-1-1.4-.3-7-2.15-3.95-1.65c-2.1-.933-4.1-1.983-6-3.15l-3.4-2.25c-5.633-4.1-9.166-8.717-10.6-13.85a18.658 18.658 0 01-.65-4.05l-.05-1.4c0-3.467.834-6.733 2.5-9.8 6.586.845 88.67.541 94.95-.8m-62.6-221.663l1.15-.6 9.15 4.65 2.15 1.05q2.25 1.95 3.25 4.35l.4 1.05.45 1.1.15.55q.9 3.3.9 6.95-.05 7.1-3.5 12.9l-38.8-19.6.7-.35v.05l18 8.4 6-3v-17.5" fill-opacity=".2" fill-rule="evenodd"/><path d="M340.41 280.757l22.1 10.95h.05l-40.4 20-26.2-13.05.45-.2 4.3 2.15h.05v-.05.05h-.05l.05-.05 39.65-19.8" fill-opacity=".2" fill-rule="evenodd"/><path d="M300.41 300.757l22.1 10.95h.05l-40.4 20-26.2-13.05.45-.2 4.3 2.15h.05v-.05.05h-.05l.05-.05 39.65-19.8" fill-opacity=".2" fill-rule="evenodd"/><path d="M260.41 320.757l22.1 10.95h.05l-40.4 20-26.2-13.05.45-.2 4.3 2.15h.05v-.05.05h-.05l.05-.05 39.65-19.8" fill-opacity=".2" fill-rule="evenodd"/><path d="M220.41 340.757l22.1 10.95h.05l-40.4 20-26.2-13.05.45-.2 4.3 2.15h.05v-.05.05h-.05l.05-.05 39.65-19.8" fill-opacity=".2" fill-rule="evenodd"/><path d="M180.41 360.757l22.1 10.95h.05l-40.4 20-26.2-13.05.45-.2 4.3 2.15h.05v-.05.05h-.05l.05-.05 39.65-19.8" fill-opacity=".2" fill-rule="evenodd"/><path d="M140.41 380.757l22.1 10.95h.05l-40.4 20-26.2-13.05.45-.2 4.3 2.15h.05v-.05.05h-.05l.05-.05 39.65-19.8" fill-opacity=".2" fill-rule="evenodd"/><path d="M100.41 400.757l22.1 10.95h.05l-40.4 20-26.2-13.05.45-.2 4.3 2.15h.05v-.05.05h-.05l.05-.05 39.65-19.8" fill-opacity=".2" fill-rule="evenodd"/><use height="27.6" width="25.05" xlink:href="#d" transform="translate(390.195 512.244)"/><use height="27.6" width="25.05" xlink:href="#d" transform="translate(310.284 512.387)"/><use height="27.6" width="25.05" xlink:href="#d" transform="translate(270.215 492.228)"/><use height="27.6" width="25.05" xlink:href="#d" transform="translate(430.284 492.273)"/><use height="27.6" width="25.05" xlink:href="#d" transform="translate(430.201 452.329)"/><use height="27.6" width="25.05" xlink:href="#d" transform="translate(390.155 432.259)"/><use height="27.6" width="25.05" xlink:href="#d" transform="translate(310.214 432.33)"/><use height="27.6" width="25.05" xlink:href="#d" transform="translate(270.245 452.322)"/><use height="27.6" width="25.05" xlink:href="#d" transform="translate(590.14 412.174)"/><use height="27.6" width="25.05" xlink:href="#d" transform="translate(510.23 412.317)"/><use height="27.6" width="25.05" xlink:href="#d" transform="translate(470.16 392.158)"/><use height="27.6" width="25.05" xlink:href="#d" transform="translate(630.23 392.203)"/><use height="27.6" width="25.05" xlink:href="#d" transform="translate(630.147 352.259)"/><use height="27.6" width="25.05" xlink:href="#d" transform="translate(590.1 332.189)"/><use height="27.6" width="25.05" xlink:href="#d" transform="translate(510.16 332.26)"/><use height="27.6" width="25.05" xlink:href="#d" transform="translate(470.19 352.252)"/><use height="27.6" width="25.05" xlink:href="#d" transform="translate(110.201 412.23)"/><use height="27.6" width="25.05" xlink:href="#d" transform="translate(150.239 392.27)"/><use height="27.6" width="25.05" xlink:href="#d" transform="translate(190.141 372.231)"/><use height="27.6" width="25.05" xlink:href="#d" transform="translate(230.179 352.27)"/><use height="27.6" width="25.05" xlink:href="#d" transform="translate(270.196 332.305)"/><use height="27.6" width="25.05" xlink:href="#d" transform="translate(310.234 312.344)"/><use height="27.6" width="25.05" xlink:href="#d" transform="translate(350.136 292.306)"/><use height="27.6" width="25.05" xlink:href="#d" transform="translate(390.174 272.346)"/><path d="M429.223 563.253l-20 10 7.65 3.8-34.9.25v-17.4l7.45 3.45 19.95-10 19.85 9.9" fill="#fc6" fill-opacity=".6"/><path d="M409.373 553.353l-19.95 10-7.45-3.45v17.4l34.9-.25-7.65-3.8 20-10z" fill="none" stroke="#f60" stroke-linecap="round" stroke-linejoin="round" stroke-miterlimit="3" stroke-opacity=".6"/></g></svg>