<svg xmlns="http://www.w3.org/2000/svg" width="57" height="49"><path d="M2.95 36.25l24.85-12.6 24.95 12.7-24.8 12.55v.05h-.05L2.95 36.25" fill-opacity=".153"/><path d="M30.35 43l-1.5 5.15h-1.5l-1.2-5.2-.3-.3q-1-1-1-2.45 0-1.45 1-2.45 1-1 2.45-1 1.45 0 2.45 1 1 1 1 2.45 0 1.45-1 2.45l-.4.35" fill="#caba5e"/><path d="M30.35 43l-1.5 5.15h-1.5l-1.2-5.2-.3-.3q-1-1-1-2.45 0-1.45 1-2.45 1-1 2.45-1 1.45 0 2.45 1 1 1 1 2.45 0 1.45-1 2.45l-.4.35z" fill="none" stroke-width=".5" stroke-linecap="round" stroke-linejoin="round" stroke-miterlimit="3" stroke="#776d39"/><path d="M6.6 31.75L5.1 36.9H3.6l-1.2-5.2-.3-.3q-1-1-1-2.45 0-1.45 1-2.45 1-1 2.45-1 1.45 0 2.45 1 1 1 1 2.45 0 1.45-1 2.45l-.4.35" fill="#caba5e"/><path d="M6.6 31.75L5.1 36.9H3.6l-1.2-5.2-.3-.3q-1-1-1-2.45 0-1.45 1-2.45 1-1 2.45-1 1.45 0 2.45 1 1 1 1 2.45 0 1.45-1 2.45l-.4.35z" fill="none" stroke-width=".5" stroke-linecap="round" stroke-linejoin="round" stroke-miterlimit="3" stroke="#7d712b"/><path d="M53.6 31.75l-1.5 5.15h-1.5l-1.2-5.2-.3-.3q-1-1-1-2.45 0-1.45 1-2.45 1-1 2.45-1 1.45 0 2.45 1 1 1 1 2.45 0 1.45-1 2.45l-.4.35" fill="#caba5e"/><path d="M53.6 31.75l-1.5 5.15h-1.5l-1.2-5.2-.3-.3q-1-1-1-2.45 0-1.45 1-2.45 1-1 2.45-1 1.45 0 2.45 1 1 1 1 2.45 0 1.45-1 2.45l-.4.35z" fill="none" stroke-width=".5" stroke-linecap="round" stroke-linejoin="round" stroke-miterlimit="3" stroke="#776f40"/><path d="M28.25 28.2v-.05l27.8-13.9.3 14.95-28 13.9-.1-14.9" fill="#dccb70"/><path d="M.25 14.15L28.05.25l28 14-27.8 13.9v.05h-.05L.25 14.15" fill="#d3ba70"/><path d="M28.2 28.2h.05l.1 14.9-.15.1-27.85-14-.1-15.05L28.2 28.2" fill="#c7b465"/><path d="M28.2 43.2L.35 29.2l-.1-15.05L28.05.25l28 14 .3 14.95-28 13.9m27.7-28.85l-27.8 13.9m0 .05l.1 14.9M.25 14.15L28.2 28.2" fill="none" stroke-width=".5" stroke-linecap="round" stroke-linejoin="round" stroke-miterlimit="3" stroke="#55461a"/><path d="M36.15 4.15l-3.95 2 4 2 3.95-2m8 4l-4 2 4 2 4-2m.05 4.05l-4.05-2.05-3.95 2 4 2.05M44.15 8.15l-3.95 2 3.95 2-3.95 2 4 2-4 2 4 2.05m-12-10.05l-4 2 4 2 4-2-4-2-3.95-2-4 2 3.95 2-3.95 2 3.95 2 4-2 4 2 4-2-4-2 4-2-4-2-4 2m-4 6l4 2.05q2-1.05 4-2.05l4 2q-2 1-4 2.05l4 2m-12-6.05l-4 2.05 4 2 4-2 4 2-4 2 4 2M16.25 6.15l3.95 2 4-2-3.95-2m3.95 2l4.05 2 3.95-2-4-2-4 2m.05-4l3.95 2 3.95-2m-11.9 10l-4 2 4 2.05 4-2.05-4-2-4-2-4 2 4 2-4 2 4 2.05 4-2 3.95 2-3.95 2 3.95 2 4-2 4 2-4 2 4 2M20.25 12.15l4-2-4.05-2-3.95 2-4-2m-4 2l4 2-4 2 4 2-4 2.05m4 2l4-2 4 2-4 2m8 4l3.95-2-4-2-3.95 2m-16-12.05l4 2-4 2.05" fill="none" stroke-width=".5" stroke-linecap="round" stroke-linejoin="round" stroke-miterlimit="3" stroke="#594a1c"/></svg>