<svg xmlns:xlink="http://www.w3.org/1999/xlink" height="27.85" width="35.6" xmlns="http://www.w3.org/2000/svg"><use height="27.85" width="35.6" xlink:href="#a"/><defs><radialGradient cx="0" cy="0" gradientTransform="translate(10.7 1.3) scale(.0126)" gradientUnits="userSpaceOnUse" id="c" r="819.2" spreadMethod="pad"><stop offset="0" stop-color="#fae6be"/><stop offset=".498" stop-color="#d38a12"/><stop offset="1" stop-color="#f8e5bd"/><stop offset="1" stop-color="#d7d7d7"/></radialGradient><radialGradient cx="0" cy="0" gradientTransform="translate(13.4 -4.15) scale(.0117)" gradientUnits="userSpaceOnUse" id="d" r="819.2" spreadMethod="pad"><stop offset="0" stop-color="#f0b05b"/><stop offset=".498" stop-color="#79420b"/><stop offset="1" stop-color="#eab359"/><stop offset="1" stop-color="#d7d7d7"/></radialGradient><radialGradient cx="0" cy="0" gradientTransform="translate(6.2 2.05) scale(.0041)" gradientUnits="userSpaceOnUse" id="f" r="819.2" spreadMethod="pad"><stop offset="0" stop-color="#f0b05b"/><stop offset=".498" stop-color="#79420b"/><stop offset="1" stop-color="#eab359"/><stop offset="1" stop-color="#d7d7d7"/></radialGradient><radialGradient cx="0" cy="0" gradientTransform="translate(6.6 4.05) scale(.0125)" gradientUnits="userSpaceOnUse" id="g" r="819.2" spreadMethod="pad"><stop offset="0" stop-color="#fae6be"/><stop offset=".498" stop-color="#d38a12"/><stop offset="1" stop-color="#f8e5bd"/><stop offset="1" stop-color="#d7d7d7"/></radialGradient><radialGradient cx="0" cy="0" gradientTransform="translate(4.8 7.35) scale(.0082)" gradientUnits="userSpaceOnUse" id="h" r="819.2" spreadMethod="pad"><stop offset="0" stop-color="#f0b05b"/><stop offset=".498" stop-color="#79420b"/><stop offset="1" stop-color="#eab359"/><stop offset="1" stop-color="#d7d7d7"/></radialGradient><radialGradient cx="0" cy="0" gradientTransform="translate(6.45 7.3) scale(.0096)" gradientUnits="userSpaceOnUse" id="i" r="819.2" spreadMethod="pad"><stop offset="0" stop-color="#fae6be"/><stop offset=".498" stop-color="#d38a12"/><stop offset="1" stop-color="#f8e5bd"/><stop offset="1" stop-color="#d7d7d7"/></radialGradient><radialGradient cx="0" cy="0" gradientTransform="translate(-.8 -12.3) scale(.0054)" gradientUnits="userSpaceOnUse" id="j" r="819.2" spreadMethod="pad"><stop offset="0" stop-color="#fae6be"/><stop offset=".498" stop-color="#d38a12"/><stop offset="1" stop-color="#f8e5bd"/><stop offset="1" stop-color="#d7d7d7"/></radialGradient><radialGradient cx="0" cy="0" gradientTransform="translate(.35 -12.7) scale(.0046)" gradientUnits="userSpaceOnUse" id="k" r="819.2" spreadMethod="pad"><stop offset="0" stop-color="#fae6be"/><stop offset=".498" stop-color="#d38a12"/><stop offset="1" stop-color="#f8e5bd"/><stop offset="1" stop-color="#d7d7d7"/></radialGradient><radialGradient cx="0" cy="0" gradientTransform="matrix(.002 0 0 .002 -16.8 -5.8)" gradientUnits="userSpaceOnUse" id="l" r="819.2" spreadMethod="pad"><stop offset="0" stop-color="#fae6be"/><stop offset=".498" stop-color="#d38a12"/><stop offset="1" stop-color="#f8e5bd"/><stop offset="1" stop-color="#d7d7d7"/></radialGradient><radialGradient cx="0" cy="0" gradientTransform="translate(-15.3 -5.8) scale(.0034)" gradientUnits="userSpaceOnUse" id="m" r="819.2" spreadMethod="pad"><stop offset="0" stop-color="#fae6be"/><stop offset=".498" stop-color="#d38a12"/><stop offset="1" stop-color="#f8e5bd"/><stop offset="1" stop-color="#d7d7d7"/></radialGradient><radialGradient cx="0" cy="0" gradientTransform="translate(-9.85 -.25) scale(.0096)" gradientUnits="userSpaceOnUse" id="o" r="819.2" spreadMethod="pad"><stop offset="0" stop-color="#f0b05b"/><stop offset=".498" stop-color="#79420b"/><stop offset="1" stop-color="#eab359"/><stop offset="1" stop-color="#d7d7d7"/></radialGradient><radialGradient cx="0" cy="0" gradientTransform="translate(-9.65 .45) scale(.0092)" gradientUnits="userSpaceOnUse" id="p" r="819.2" spreadMethod="pad"><stop offset="0" stop-color="#f0b05b"/><stop offset=".498" stop-color="#79420b"/><stop offset="1" stop-color="#eab359"/><stop offset="1" stop-color="#d7d7d7"/></radialGradient><radialGradient cx="0" cy="0" gradientTransform="translate(-2.3 1.1) scale(.0018)" gradientUnits="userSpaceOnUse" id="q" r="819.2" spreadMethod="pad"><stop offset="0" stop-color="#fae6be"/><stop offset=".498" stop-color="#d38a12"/><stop offset="1" stop-color="#f8e5bd"/><stop offset="1" stop-color="#d7d7d7"/></radialGradient><linearGradient gradientTransform="matrix(.003 -.0077 .0076 .0029 -.75 -5)" gradientUnits="userSpaceOnUse" id="b" spreadMethod="pad" x1="-819.2" x2="819.2"><stop offset="0" stop-color="#fab849"/><stop offset=".51" stop-color="#fbefae"/><stop offset="1" stop-color="#f8bc5a"/><stop offset="1" stop-color="#f4b7b7"/></linearGradient><linearGradient gradientTransform="matrix(.0039 .0113 -.0069 .0023 2.15 8.1)" gradientUnits="userSpaceOnUse" id="e" spreadMethod="pad" x1="-819.2" x2="819.2"><stop offset="0" stop-color="#bcbcbc"/><stop offset="1" stop-color="#585957"/><stop offset="1" stop-color="#ff2b2b"/><stop offset="1" stop-color="#fff"/><stop offset="1" stop-color="#d4d0c8"/></linearGradient><linearGradient gradientTransform="matrix(.0022 -.0055 .0075 .0031 -.7 -5)" gradientUnits="userSpaceOnUse" id="n" spreadMethod="pad" x1="-819.2" x2="819.2"><stop offset="0" stop-color="#053feb"/><stop offset=".498" stop-color="#5782ff"/><stop offset="1" stop-color="#0f00c8"/><stop offset="1" stop-color="#ff2b2b"/><stop offset="1" stop-color="#fff"/></linearGradient><g id="a"><path d="m-2.75.85-3.9-1.5-1.85-.7-.7-.25-4.2-1.6-.2-.05-.25-.1-.5-.2-.65-.25-.7-.45 3.1-.9 2.4-.9 2.3-.8 2.15-1.05 2.1-1.05 1.55-.9 3-2 .9.4L13.75-6.7l.8.5-3.4 4.6Q9.45-.85 7.7-.25L4.3 1l-.7.25-1.15.15-.25.05L-1.25.1l-1.1-.05-.4.8" fill="url(#b)" fill-rule="evenodd" transform="translate(17.8 13.95)"/><path d="m16.15-7.2 1.4.75-6.9 9.9-.55.8-1.95-.7 8-10.75" fill="url(#c)" fill-rule="evenodd" transform="translate(17.8 13.95)"/><path d="m14.55-6.2.85-1.15.75.15-8 10.75-.7-.25.7-.95.15-.15 2.85-3.8 3.4-4.6" fill="url(#d)" fill-rule="evenodd" transform="translate(17.8 13.95)"/><path d="m8.3 2.2-.15.15-3.75-1.3.65.15 3.25 1m-4.7-.95-.15.05-.55.3-.7-.15.25-.05 1-.1-1 .1 1.15-.15" fill="url(#e)" fill-rule="evenodd" transform="translate(17.8 13.95)"/><path d="m8.15 2.35-.7.95L2.9 1.6l.55-.3.15-.05.7-.25.1.05 3.75 1.3" fill="url(#f)" fill-rule="evenodd" transform="translate(17.8 13.95)"/><path d="m14.35 5.7 2.15.75-.95 2.15-.7-.2-6.3-2.15-1.9-.65-.7-.25-7.35-2.7-1.05-.4L-1.25.1 2.2 1.45l.7.15 4.55 1.7.7.25 1.95.7 4.25 1.45" fill="url(#g)" fill-rule="evenodd" transform="translate(17.8 13.95)"/><path d="m1.05 12.95-.05-.1-.35-.5 5.3-7 .7.25-5.6 7.35" fill="url(#h)" fill-rule="evenodd" transform="translate(17.8 13.95)"/><path d="m10.65 3.45 3.7 2.25-4.25-1.45.55-.8m4.2 4.95Q14 9 13 9.1l-2.2.7-2.25.7-2.05.65-2.1.65 4.15-5.55 6.3 2.15M1 12.85l-3.5-.15-2.6-1.2-2.5-1.35-3.15-1.75q-.9-.45-1.25-1.25v-.5l1-.65 9.6-3.35 7.35 2.7-5.3 7 .35.5" fill-opacity=".212" fill-rule="evenodd" transform="translate(17.8 13.95)"/><path d="m4.4 11.8-1.45 1.85-1.9-.7 5.6-7.35 1.9.65L4.4 11.8" fill="url(#i)" fill-rule="evenodd" transform="translate(17.8 13.95)"/><path d="M-3.65-8.95-.1-13.7l.65.2-2.65 3.65-1.55.9" fill="url(#j)" fill-rule="evenodd" transform="translate(17.8 13.95)"/><path d="m.55-13.5 1.55.9-.3 1.15-.9-.4-3 2L.55-13.5" fill="url(#k)" fill-rule="evenodd" transform="translate(17.8 13.95)"/><path d="m-16.65-4.35-.9-.45 1.2-2.2.95.45-1.25 2.2" fill="url(#l)" fill-rule="evenodd" transform="translate(17.8 13.95)"/><path d="m-15.7-4.25-.25.05-.7-.15 1.25-2.2 2.8 1.4-3.1.9" fill="url(#m)" fill-rule="evenodd" transform="translate(17.8 13.95)"/><path d="m-13.4-3.2-.2-.05.2.05m-.45-.15-.5-.2.5.2" fill="url(#n)" fill-rule="evenodd" transform="translate(17.8 13.95)"/><path d="m-14.35 6.25-.3-.6L-9.2-1.6l.7.25-5.85 7.6" fill="url(#o)" fill-rule="evenodd" transform="translate(17.8 13.95)"/><path d="M-6.65-.65-12.3 6.9h-.5l-1.55-.65 5.85-7.6 1.85.7" fill="url(#p)" fill-rule="evenodd" transform="translate(17.8 13.95)"/><path d="m-2.45 2.25-.85-.35.55-1.05.4-.8 1.1.05-1.2 2.15" fill="url(#q)" fill-rule="evenodd" transform="translate(17.8 13.95)"/><path d="m15.05 14.8-3.9-1.5m-2.55-.95-4.2-1.6m-.2-.05-.25-.1-.5-.2-.65-.25-.7-.45-.25.05M5.2 8.8l2.4-.9 2.3-.8 2.15-1.05L14.15 5l1.55-.9 3-2 .9.4 11.95 4.75.8.5m-10.25 7.2 3.4-1.25q1.75-.6 3.45-1.35m-6.85 2.6-.7.25-.15.05-.55.3M4.2 10.7l.2.05m.8-1.95-3.1.9m7.2 2.9-.7-.25m.7.25 1.85.7" fill="none" stroke="#666" stroke-linecap="round" stroke-linejoin="round" stroke-width=".75"/><path d="m33.95 6.75 1.4.75-6.9 9.9m3.7 2.25 2.15.75-.95 2.15-.7-.2m-10.45 3.4-1.45 1.85-1.9-.7-.05-.1-.35-.5 5.3-7-7.35-2.7-1.05-.4-.85-.35.55-1.05m-3.9-1.5L5.5 20.85H5l-1.55-.65-.3-.6 5.45-7.25m-4.2-1.6-.2-.05-.25-.1-.5-.2m-1.6-.65-.7-.15-.9-.45 1.2-2.2.95.45 2.8 1.4M14.15 5 17.7.25l.65.2 1.55.9-.3 1.15m12.75 5.25.85-1.15.75.15-8 10.75 1.95.7.55-.8m.5-5.05 3.4-4.6m-3.4 4.6-2.85 3.8-.15.15-.7.95.7.25M22.2 15l-.1-.05m-1.4.6 4.55 1.7m-1.5 2.05.7.25 1.9.65 6.3 2.15m-6.7-6.05L22.2 15m5.7 3.2 4.25 1.45M18.35.45 15.7 4.1M1.15 9.6 2.4 7.4m1.05 12.8 5.85-7.6M20 15.4l-3.45-1.35-1.2 2.15m4.9-.85-.25.05.7.15m-4.15-1.5-1.1-.05-.4.8m9.4 4.75-5.6 7.35m1.4-11.55 1-.1m.15-.05-1.15.15m1.95 10.4 4.15-5.55" fill="none" stroke="#666" stroke-linecap="round" stroke-linejoin="round" stroke-width=".5"/></g></defs></svg>