<?xml version="1.0" encoding="UTF-8" standalone="no"?><!DOCTYPE svg PUBLIC "-//W3C//DTD SVG 1.1//EN" "http://www.w3.org/Graphics/SVG/1.1/DTD/svg11.dtd"><svg width="160px" height="182px" version="1.1" xmlns="http://www.w3.org/2000/svg" xmlns:xlink="http://www.w3.org/1999/xlink" xml:space="preserve" xmlns:serif="http://www.serif.com/" style="fill-rule:evenodd;clip-rule:evenodd;stroke-miterlimit:1.5;"><g><path d="M119.205,61.711L114.948,71.001" style="fill:none;stroke:#605543;stroke-width:2.5px;"/><path d="M114.437,62.419L113.884,62.148L118.629,52.665L118.122,49.871L117.163,49.136L116.145,48.995L128.817,39.775L130.858,53.152L129.46,53.268L126.896,53.159L125.811,55.645L121.241,65.932L120.54,65.577" style="fill:#885231;fill-rule:nonzero;"/><path d="M120.484,53.126L124.052,54.881" style="fill:none;stroke:#c0a29f;stroke-width:2px;"/><path d="M119.08,56.636L122.531,58.449" style="fill:none;stroke:#c0a29f;stroke-width:2px;"/><path d="M117.501,60.321L121.128,62.076" style="fill:none;stroke:#c0a29f;stroke-width:2px;"/><path d="M114.437,62.419L113.884,62.148L118.629,52.665M116.145,48.995L128.817,39.775L130.858,53.152M125.811,55.645L121.241,65.932L120.54,65.577M114.437,62.419L120.54,65.577" style="fill:none;fill-rule:nonzero;stroke:#000;stroke-width:1.53px;stroke-linecap:round;stroke-linejoin:round;stroke-miterlimit:3;"/></g><path d="M61,22L70,3L78,22L89,22L98,3L107,22L116.2,29.75C124.191,37.716 123.85,45.184 116.2,52.25L109,55L109,65C117.679,66.223 120.541,69.925 115.492,77C111.994,78.93 108.497,79.871 105,80L105.582,101.214C116.335,104.898 116.992,110.077 107.037,114.145C97.297,115.566 84.55,115.605 72.676,114.309C61.368,113.52 55.251,104.561 55,90L61,53.5C53.258,45.715 53.438,38.222 61,31L61,22Z" style="fill:#fff;"/><path d="M96.034,102.355L108.161,101.962C111.121,101.866 113.608,104.363 113.711,107.535C113.814,110.707 111.494,113.36 108.533,113.456L96.406,113.849" style="fill:none;stroke:#000;stroke-width:2.5px;"/><path d="M105,88L105,114" style="fill:none;stroke:#000;stroke-width:2.5px;"/><path d="M97.203,69.105C100.771,67.465 105.534,66.104 110.703,65.105C112.927,65.096 114.703,65.753 116.203,67.346C118.872,70.178 119.068,73.77 115.703,77.105C112.658,78.882 109.029,79.929 104.703,80.105" style="fill:#fff;stroke:#000;stroke-width:2.5px;"/><g><path d="M60.994,53.835L100.781,55.608L108.048,63.019C105.839,92.089 102.61,97.332 110.037,98.726C110.136,99.203 113.554,112.786 103.437,114.528C71.323,117.488 51.103,113.987 55.841,87.759C55.841,87.759 59.074,63.433 60.994,53.835Z" style="fill:#fff3f2;stroke:#000;stroke-width:2.5px;"/><path d="M96.472,95.142C97.797,99.328 97.114,103.152 94.463,106.621" style="fill:none;stroke:#ffc7cb;stroke-width:2.5px;stroke-linejoin:round;"/><path d="M97.541,108.271C100.953,103.188 101.796,98.945 100.659,96.548" style="fill:none;stroke:#ffc7cb;stroke-width:2.5px;stroke-linejoin:round;"/><path d="M100.557,110.59C103.841,106.733 104.814,102.168 104.936,98.769" style="fill:none;stroke:#ffc7cb;stroke-width:2.5px;stroke-linejoin:round;"/><path d="M76.448,99.877C74.507,103.189 72.051,105.985 68.99,108.176" style="fill:none;stroke:#ffc7cb;stroke-width:2.5px;stroke-linejoin:round;"/><path d="M73.086,98.092C71.679,100.613 69.417,103.134 66.049,105.655" style="fill:none;stroke:#ffc7cb;stroke-width:2.5px;stroke-linejoin:round;"/><path d="M70.46,95.151C68.524,98.444 66.34,100.996 63.843,102.608" style="fill:none;stroke:#ffc7cb;stroke-width:2.5px;stroke-linejoin:round;"/><path d="M65.09,58.231C67.481,60.469 70.823,61.28 73.493,60.437" style="fill:none;stroke:#ffc7cb;stroke-width:2.5px;stroke-linejoin:round;"/><path d="M63.515,61.592C66.538,64.457 70.12,64.33 72.863,64.113" style="fill:none;stroke:#ffc7cb;stroke-width:2.5px;stroke-linejoin:round;"/><path d="M62.359,65.479C64.68,67.479 69.247,68.03 72.968,67.79" style="fill:none;stroke:#ffc7cb;stroke-width:2.5px;stroke-linejoin:round;"/><path d="M87.524,60.751L91.66,71.726" style="fill:none;stroke:#ffc7cb;stroke-width:2.5px;stroke-linejoin:round;"/><path d="M90.864,59.16L95.477,69.976" style="fill:none;stroke:#ffc7cb;stroke-width:2.5px;stroke-linejoin:round;"/><path d="M94.523,58.842L98.658,68.227" style="fill:none;stroke:#ffc7cb;stroke-width:2.5px;stroke-linejoin:round;"/><path d="M55.547,85.177C52.553,79.775 54.454,77.84 56.61,74.821C74.592,77.177 93.551,79.392 108,79C110.269,83.289 110.041,86.526 108,89C92.071,90.293 72.259,88.967 55.547,85.177Z" style="fill:#fedea5;stroke:#000;stroke-width:2.5px;"/><path d="M107.193,62.344L113.468,64.28C116.651,78.967 115.476,87.421 113.468,88.612C109.445,89.029 105.996,83.872 101.973,78.058" style="fill:#fff3f2;stroke:#000;stroke-width:2.5px;stroke-linejoin:round;"/><path d="M107.075,76.352L110.963,79.093" style="fill:none;stroke:#ffc7cb;stroke-width:2.5px;stroke-linejoin:round;"/><path d="M107.458,72.911L111.728,75.651" style="fill:none;stroke:#ffc7cb;stroke-width:2.5px;stroke-linejoin:round;"/><path d="M108.541,69.725L112.11,72.21" style="fill:none;stroke:#ffc7cb;stroke-width:2.5px;stroke-linejoin:round;"/><path d="M64.881,72.273L58.766,74.097C59.812,77.837 59.567,83.03 58.337,89.33L63.808,83.537L64.881,72.273Z" style="fill:#fedea5;stroke:#000;stroke-width:2.5px;stroke-linecap:round;stroke-linejoin:round;"/><path d="M64.559,71.63L63.808,81.714C67.574,83.794 71.211,84.191 74.75,83.323L76.038,73.132C72.107,70.543 68.263,69.682 64.559,71.63Z" style="fill:#fedea5;stroke:#000;stroke-width:2.5px;stroke-linecap:round;stroke-linejoin:round;"/><path d="M75.694,74.048L74.602,84.125L80.651,92.119C80.217,86.246 81.295,81.884 83.706,77.149L75.694,74.048Z" style="fill:#fedea5;stroke:#000;stroke-width:2.5px;stroke-linecap:round;stroke-linejoin:round;"/></g><g><path d="M71.192,95.738L67.919,98.345L71.192,95.738L71.192,114.578L67.919,117.078L58.535,95.827L61.663,93.563L71.192,95.738Z" style="fill:#ddb168;stroke:#786647;stroke-width:2.5px;stroke-linejoin:round;"/><path d="M67.919,98.238L67.919,117.078L58.39,114.902L58.39,96.063L67.919,98.238Z" style="fill:#ddb168;stroke:#786647;stroke-width:2.5px;stroke-linejoin:round;"/><path d="M56.755,98.967L56.682,101.886L65.847,103.848L65.484,100.909L56.755,98.967Z" style="fill:none;stroke:#786647;stroke-width:2.5px;stroke-linejoin:round;"/><path d="M56.839,104.943L56.766,107.861L65.932,109.823L65.568,106.884L56.839,104.943Z" style="fill:none;stroke:#786647;stroke-width:2.5px;stroke-linejoin:round;"/></g><g><path d="M85.669,98.286L82.395,100.893L85.669,98.286L85.669,117.126L82.395,119.625L73.012,98.375L76.14,96.111L85.669,98.286Z" style="fill:#ddb168;stroke:#786647;stroke-width:2.5px;stroke-linejoin:round;"/><path d="M82.395,100.786L82.395,119.625L72.867,117.45L72.867,98.61L82.395,100.786Z" style="fill:#ddb168;stroke:#786647;stroke-width:2.5px;stroke-linejoin:round;"/><path d="M71.232,101.515L71.159,104.433L80.324,106.396L79.96,103.457L71.232,101.515Z" style="fill:none;stroke:#786647;stroke-width:2.5px;stroke-linejoin:round;"/><path d="M71.316,107.49L71.243,110.409L80.408,112.371L80.045,109.432L71.316,107.49Z" style="fill:none;stroke:#786647;stroke-width:2.5px;stroke-linejoin:round;"/></g><path d="M116.2,52.25C119.601,50.298 121.8,45.881 121.8,41C121.8,36.119 119.601,31.702 116.2,29.75" style="fill:none;stroke:#000;stroke-width:2.5px;"/><path d="M61,53.5C57.599,51.548 55.4,47.131 55.4,42.25C55.4,37.369 57.599,32.952 61,31" style="fill:none;stroke:#000;stroke-width:2.5px;"/><path d="M61,22L70,3L78,22L89,22L98,3L107,22" style="fill:none;stroke:#000;stroke-width:2.5px;stroke-miterlimit:3;"/><path d="M108.146,41.6L104.141,45.6L107.845,49.2M104.141,45.6L104.141,45.5L104.141,50.5M104.141,45.6L100.437,49.2M100.136,41.6L104.141,45.5L104.141,39.6" style="fill:none;fill-rule:nonzero;stroke:#fea5c0;stroke-width:2px;stroke-linecap:round;stroke-linejoin:round;stroke-miterlimit:4;"/><circle id="gikopoipoi_eyes_open" cx="111.054" cy="31.6" r="2.266" style="fill:none;stroke:#000;stroke-width:1.5px;stroke-linejoin:round;"/><path id="gikopoipoi_eyes_closed" d="M107.798,31.7L114.098,31.7" style="display:none;fill:none;stroke:#000;stroke-width:3px;stroke-linecap:round;stroke-linejoin:round;"/></svg>