<?xml version="1.0" encoding="utf-8"?>
<!-- Generator: Adobe Illustrator 15.1.0, SVG Export Plug-In . SVG Version: 6.00 Build 0)  -->
<!DOCTYPE svg PUBLIC "-//W3C//DTD SVG 1.1//EN" "http://www.w3.org/Graphics/SVG/1.1/DTD/svg11.dtd">
<svg version="1.1" xmlns="http://www.w3.org/2000/svg" xmlns:xlink="http://www.w3.org/1999/xlink" x="0px" y="0px" width="1600px"
	 height="1600px" viewBox="0 0 1600 1600" enable-background="new 0 0 1600 1600" xml:space="preserve">
<g id="Layer_1">
	<rect x="-511.158" y="-272.308" fill="#28285B" width="2849.816" height="2083.909"/>
	<circle fill="#314C69" cx="304.255" cy="1744.001" r="234.13"/>
	<circle fill="#314C69" cx="-333" cy="1748.176" r="310"/>
	<circle fill="#314C69" cx="75.047" cy="1715.793" r="134.047"/>
	<circle fill="#314C69" cx="1960.47" cy="1513.159" r="310"/>
	<g>
	</g>
	<circle fill="#314C69" cx="-421" cy="1623.75" r="310"/>
	<circle fill="#314C69" cx="1569.493" cy="1824.169" r="310"/>
	<circle fill="#314C69" cx="2080.393" cy="1170.75" r="119.923"/>
	<circle fill="#314C69" cx="1689.416" cy="1401.478" r="119.923"/>
	<circle fill="#314C69" cx="1351.031" cy="1588.077" r="119.923"/>
	<circle fill="#314C69" cx="1656.86" cy="1294.749" r="83.854"/>
	<circle fill="#314C69" cx="2284.169" cy="981.759" r="83.854"/>
	<circle fill="#314C69" cx="-213.814" cy="1370.747" r="83.854"/>
	<circle fill="#314C69" cx="-333" cy="1313.804" r="83.854"/>
	<circle fill="#314C69" cx="-459.397" cy="1332.748" r="83.854"/>
	<circle fill="#314C69" cx="178.832" cy="1555.644" r="64.575"/>
	<circle fill="#314C69" cx="243.406" cy="1468.153" r="64.575"/>
	<circle fill="#314C69" cx="-87.575" cy="1482.574" r="64.575"/>
	<circle fill="#314C69" cx="-233.094" cy="1267.667" r="64.575"/>
	<circle fill="#314C69" cx="1851.756" cy="1228.249" r="83.854"/>
	<circle fill="#314C69" cx="1986.714" cy="1190.249" r="83.854"/>
	<path fill="#314C69" d="M2563.349,1788.563c0,178.014-144.307,322.32-322.314,322.32c-178.014,0-322.32-144.307-322.32-322.32
		c0-178.008,144.307-322.315,322.32-322.315C2419.042,1466.248,2563.349,1610.556,2563.349,1788.563z"/>
	<circle fill="#314C69" cx="2422.04" cy="1266.25" r="310"/>
	<circle fill="#314C69" cx="-111" cy="1637.5" r="186.668"/>
	<circle fill="#314C69" cx="68.514" cy="1778.654" r="134.047"/>
	<circle fill="#314C69" cx="274.493" cy="1730.667" r="234.13"/>
	<linearGradient id="SVGID_1_" gradientUnits="userSpaceOnUse" x1="234.521" y1="1637.5" x2="1364.9785" y2="1637.5">
		<stop  offset="0" style="stop-color:#9BA8AE"/>
		<stop  offset="0.1845" style="stop-color:#BDCCD4"/>
		<stop  offset="0.5179" style="stop-color:#CCD9DE"/>
		<stop  offset="0.881" style="stop-color:#BDCCD4"/>
		<stop  offset="1" style="stop-color:#9BA8AE"/>
	</linearGradient>
	<rect x="234.521" y="1200" fill="url(#SVGID_1_)" width="1130.458" height="875"/>
	
		<ellipse fill="#BDCCD4" stroke="#FFFFFF" stroke-width="3" stroke-miterlimit="10" cx="799.75" cy="1200" rx="565.229" ry="282.575"/>
	
		<polygon opacity="0.7" fill="#FDCC76" stroke="#E98E1F" stroke-width="2" stroke-linecap="round" stroke-linejoin="round" stroke-miterlimit="10" points="
		434.475,1376.411 434.475,1401.961 485.574,1401.961 472.517,1395.432 507.632,1377.874 482.164,1365.14 447.049,1382.697 	"/>
	
		<polygon opacity="0.7" fill="#FDCC76" stroke="#E98E1F" stroke-width="1.5" stroke-linecap="round" stroke-linejoin="round" stroke-miterlimit="10" points="
		1113.748,1401.479 1164.848,1401.479 1164.848,1375.93 1151.791,1382.457 1116.674,1364.899 1091.207,1377.635 1126.32,1395.191 	
		"/>
	<g>
		<polygon fill="#CEDADA" points="1245.825,1491.07 1253.294,1493.813 1142.246,1549.337 1142.246,1542.859 		"/>
		<polygon fill="#9BA8AE" points="1245.825,1462.894 1245.825,1491.07 1253.294,1493.813 1253.294,1459.159 		"/>
	</g>
	<g>
		<polygon fill="#CEDADA" points="1245.825,1545.07 1253.294,1547.813 1142.246,1603.337 1142.246,1596.859 		"/>
		<polygon fill="#9BA8AE" points="1245.825,1516.894 1245.825,1545.07 1253.294,1547.813 1253.294,1513.159 		"/>
	</g>
	<g>
		<polygon fill="#CEDADA" points="1245.825,1602.662 1253.294,1605.405 1142.246,1660.929 1142.246,1654.451 		"/>
		<polygon fill="#9BA8AE" points="1245.825,1574.485 1245.825,1602.662 1253.294,1605.405 1253.294,1570.751 		"/>
	</g>
	<g>
		<polygon fill="#CEDADA" points="1245.825,1663.707 1253.294,1666.45 1142.246,1721.974 1142.246,1715.496 		"/>
		<polygon fill="#9BA8AE" points="1245.825,1635.53 1245.825,1663.707 1253.294,1666.45 1253.294,1631.796 		"/>
	</g>
	<g>
		<polygon fill="#CEDADA" points="1245.825,1717.207 1253.294,1719.95 1142.246,1775.474 1142.246,1768.996 		"/>
		<polygon fill="#9BA8AE" points="1245.825,1689.03 1245.825,1717.207 1253.294,1719.95 1253.294,1685.296 		"/>
	</g>
	<g>
		<polygon fill="#CEDADA" points="1245.825,1775.911 1253.294,1778.654 1142.246,1834.178 1142.246,1827.7 		"/>
		<polygon fill="#9BA8AE" points="1245.825,1747.734 1245.825,1775.911 1253.294,1778.654 1253.294,1744 		"/>
	</g>
	<g>
		<polygon fill="#CEDADA" points="1245.825,1429.57 1253.294,1432.313 1142.246,1487.837 1142.246,1481.359 		"/>
		<polygon fill="#9BA8AE" points="1245.825,1401.394 1245.825,1429.57 1253.294,1432.313 1253.294,1397.659 		"/>
	</g>
	<g>
		<path fill="none" stroke="#9BA8AE" stroke-width="7" stroke-linecap="round" stroke-linejoin="round" stroke-miterlimit="10" d="
			M234.521,1361.248c0,156.063,253.062,282.575,565.229,282.575c118.464,0,228.41-18.224,319.25-49.362"/>
		<path fill="none" stroke="#9BA8AE" stroke-width="7" stroke-linecap="round" stroke-linejoin="round" stroke-miterlimit="10" d="
			M1276.5,1513.104c56.013-43.859,88.479-95.962,88.479-151.856"/>
	</g>
	<g>
		<path fill="none" stroke="#CEDADA" stroke-width="7" stroke-linecap="round" stroke-linejoin="round" stroke-miterlimit="10" d="
			M234.521,1355.248c0,156.063,253.062,282.575,565.229,282.575c118.464,0,228.41-18.224,319.25-49.362"/>
		<path fill="none" stroke="#CEDADA" stroke-width="7" stroke-linecap="round" stroke-linejoin="round" stroke-miterlimit="10" d="
			M1276.5,1507.104c56.013-43.859,88.479-95.962,88.479-151.856"/>
	</g>
	<circle fill="#FFFFFF" cx="76.257" cy="551.379" r="7.743"/>
	<circle fill="#FFFFFF" cx="-256.889" cy="248.004" r="7.743"/>
	<circle fill="#FFFFFF" cx="675.073" cy="100.343" r="7.743"/>
	<circle fill="#FFFFFF" cx="-59" cy="932.379" r="7.743"/>
	<circle fill="#FFFFFF" cx="-168.519" cy="572.004" r="7.743"/>
	<circle fill="#FFFFFF" cx="1809.339" cy="477.004" r="7.743"/>
	<circle fill="#FFFFFF" cx="1249.007" cy="419.254" r="7.743"/>
	<circle fill="#FFFFFF" cx="1531.935" cy="303.754" r="7.743"/>
	<circle fill="#FFFFFF" cx="990.75" cy="134.254" r="7.743"/>
	<circle fill="#FFFFFF" cx="234.521" cy="217.748" r="7.743"/>
	<circle fill="#FFFFFF" cx="1675.257" cy="922.754" r="7.743"/>
	<circle fill="#FFFFFF" cx="1218.75" cy="646.754" r="7.743"/>
	<circle fill="#FFFFFF" cx="1320.739" cy="56.379" r="7.743"/>
	<circle fill="#FFFFFF" cx="704.251" cy="743.004" r="7.743"/>
	<circle fill="#FFFFFF" cx="266.75" cy="875.504" r="7.743"/>
	<g id="Layer_3" display="none">
		
			<polygon display="inline" opacity="0.7" fill="#FDCC76" stroke="#E98E1F" stroke-width="1.5" stroke-linecap="round" stroke-linejoin="round" stroke-miterlimit="10" points="
			2138.829,2404.465 2189.929,2404.465 2189.929,2378.916 2176.872,2385.443 2141.755,2367.886 2116.288,2380.621 
			2151.401,2398.178 		"/>
		
			<polygon display="inline" opacity="0.7" fill="#FDCC76" stroke="#E98E1F" stroke-width="2" stroke-linecap="round" stroke-linejoin="round" stroke-miterlimit="10" points="
			2431.898,2303.817 2399.961,2271.88 2368.023,2303.817 2384.346,2303.817 2384.346,2347.712 2416.182,2347.712 2416.182,2303.817 
					"/>
		
			<polygon display="inline" opacity="0.7" fill="#FDCC76" stroke="#E98E1F" stroke-width="2" stroke-linecap="round" stroke-linejoin="round" stroke-miterlimit="10" points="
			2040.162,2379.036 2040.162,2404.586 2091.262,2404.586 2078.204,2398.057 2113.319,2380.499 2087.852,2367.765 
			2052.736,2385.322 		"/>
		
			<polygon display="inline" opacity="0.7" fill="#FDCC76" stroke="#E98E1F" stroke-width="2" stroke-linecap="round" stroke-linejoin="round" stroke-miterlimit="10" points="
			2189.686,2335.345 2189.686,2309.795 2138.586,2309.795 2151.644,2316.324 2116.528,2333.882 2141.996,2346.616 
			2177.111,2329.059 		"/>
		
			<polygon display="inline" opacity="0.7" fill="#FDCC76" stroke="#E98E1F" stroke-width="2" stroke-linecap="round" stroke-linejoin="round" stroke-miterlimit="10" points="
			2091.02,2291.506 2039.92,2291.506 2039.92,2317.055 2052.977,2310.527 2088.093,2328.085 2113.562,2315.35 2078.446,2297.793 		
			"/>
	</g>
</g>
<g id="Layer_2">
</g>
</svg>
