<svg xmlns="http://www.w3.org/2000/svg" xmlns:xlink="http://www.w3.org/1999/xlink" height="182" width="160"><defs><g id="b"><path d="m4.5-60 1.25.55 3.85-8.6 3.95 8.6L14.8-60l3.2 3.05 1.15 1.1-.4.4.1.1q2.1 2.05 2.35 4.55l.05.6q-.05 1.65-.85 3.1l-.25.45-1.4 1.7.1.1-.3.3-3.3.9v4.7l-3.3.7-3.15.9.65 1.6 3.4-1.25 3-.6q1.55 0 2.2.6.8.8.8 2 0 1.1-.75 1.85-1.1 1.05-4.15 1.25l-1.25.05.35 1.5 1.5-.05-.05 2.75L13-26.4v5.75H8.4v1.55h6.65q.7 0 1.15.4.55.55.6 1.65-.05 1.05-.6 1.6-.45.45-1.15.45H8.4v1.5H-8.8l-3.3-3.25v-1.7l.45-.4q.75-.6 1.4-1.55l-1.3-1-.7.95.4-10.95 1.8-12.8.4.35.75-.7-1-1.1q-1.55-1.9-1.55-4.15l.1-1q.35-2.3 2.45-4.25l-.75-.75.5-3.95.65.3 3.9-8.6 3.9 8.6L.55-60H4.5M18-56.95l1.15 1.1-1.15-1.1M11.9-46.5h-1.5v1.45h.55l-.55 1.45h.75l.75-1.55v-1.35m2.95 0h-1.5v1.45h.55l-.55 1.45h.75l.75-1.55v-1.35" fill="#fff" fill-rule="evenodd" transform="translate(21.6 71)"/><path d="m14.8-60-1.25.55-3.95-8.6-3.85 8.6L4.5-60l5.1-11 5.2 11M.55-60l-1.25.55-3.9-8.6-3.9 8.6-.65-.3-.55-.25 5.1-11L.55-60m-10.2 4.2.75.75q-2.1 1.95-2.45 4.25l-.1 1q0 2.25 1.55 4.15l1 1.1-.75.7-.4-.35-.6-.7q-1.85-2.2-1.85-4.9l.05-1q.35-2.8 2.8-5m-2.6 35.35.7-.95 1.3 1q-.65.95-1.4 1.55l-.45.4q-.55.35-1.25.45h-.35q-1 0-2.7-1.1-1.2-.65-1.95-.65-.85 0-1.3.55l-.6.95-1.35-.75q.4-.95 1.2-1.65.85-.8 1.95-.8t2.3.8q1.65.85 2.6.85.6 0 1.3-.65M8.4-13.5V-15h6.65q.7 0 1.15-.45.55-.55.6-1.6-.05-1.1-.6-1.65-.45-.4-1.15-.4H8.4v-1.55h6.7q1.25 0 2.1.8.9.9.9 2.8 0 1.85-.9 2.75-.85.8-2.1.8H8.4m6.15-16.9-1.5.05-.35-1.5 1.25-.05q3.05-.2 4.15-1.25.75-.75.75-1.85 0-1.2-.8-2-.65-.6-2.2-.6l-3 .6-3.4 1.25-.65-1.6 3.15-.9 3.3-.7L16-39q2.25 0 3.3 1.05 1.1 1.05 1.1 2.85 0 1.85-1 2.85l-.4.35q-1.55 1.2-4.45 1.5m4.3-14.45-.1-.1 1.4-1.7.25-.45q.8-1.45.85-3.1l-.05-.6q-.25-2.5-2.35-4.55l-.1-.1.4-.4.3-.35q2.6 2.35 2.8 5.4l.05.6q0 1.9-.9 3.55-.7 1.25-1.95 2.4l-.6-.6m-4-1.65v1.35l-.75 1.55h-.75l.55-1.45h-.55v-1.45h1.5m-2.95 0v1.35l-.75 1.55h-.75l.55-1.45h-.55v-1.45h1.5" fill-rule="evenodd" transform="translate(21.6 71)"/><path d="M4.5-60H.55M13-20.65v-5.75m6.15-29.45L18-56.95" fill="none" stroke="#000" stroke-linecap="round" stroke-linejoin="round" transform="translate(21.6 71)"/></g><g id="a"><path d="m-7.25-4.95 20.3-5.4q1.05-.05 1.15.9L-3.15 7.9l-.3-.15-.25-.2-5.85-8.8 2.3-3.7M-5.7-.9l3.55 3 6.6-6.3L-5.7-.9" fill="#f36" fill-rule="evenodd" transform="translate(10.05 10.85)"/><path d="m-7.25-4.95 20.3-5.4q1.05-.05 1.15.9L-3.15 7.9l-.3-.15-.25-.2-5.85-8.8m3.85.35 3.55 3 6.6-6.3L-5.7-.9m-3.85-.35 2.3-3.7z" fill="none" stroke="#000" stroke-linecap="round" stroke-linejoin="round" transform="translate(10.05 10.85)"/></g><use height="19.25" width="24.75" xlink:href="#a" id="c"/></defs><g transform="matrix(2 0 0 2 78.841 142)"><use height="57.5" transform="translate(-21.6 -71)" width="43.9" xlink:href="#b"/><use height="19.25" transform="matrix(-1.0118 0 0 1.0027 24.518 -66.28)" width="24.75" xlink:href="#c"/></g></svg>