<?xml version="1.0" encoding="UTF-8" standalone="no"?>
<!DOCTYPE svg PUBLIC "-//W3C//DTD SVG 1.1//EN" "http://www.w3.org/Graphics/SVG/1.1/DTD/svg11.dtd">
<svg width="100%" height="100%" viewBox="0 0 300 174" version="1.1" xmlns="http://www.w3.org/2000/svg" xmlns:xlink="http://www.w3.org/1999/xlink" xml:space="preserve" xmlns:serif="http://www.serif.com/" style="fill-rule:evenodd;clip-rule:evenodd;stroke-linecap:round;stroke-linejoin:round;stroke-miterlimit:1.5;">
    <g>
        <path d="M151.124,23.259L298.903,97.149L151.124,171.038L3.345,97.149L151.124,23.259Z" style="fill:url(#_Radial1);stroke:#000;stroke-width:1px;"/>
        <g>
            <path d="M144.429,3.096L30.266,60.177C28.901,60.797 26.655,68.698 26.655,68.698C24.215,72.532 18.768,76.965 15.64,79.521C5.739,87.609 2.122,87.288 0.5,93.316C4.09,97.839 19.173,104.317 25.253,105.105C41.82,93.997 64.742,119.167 66.059,121.104C71.245,128.73 77.087,133.508 80.691,130.869C94.005,121.122 113.659,127.146 125.017,155.051C132.13,164.728 140.529,174.007 147.018,173.091C155.55,171.304 169.386,161.127 172.317,157.473C184.558,136.683 194.779,128.269 211.745,136.93C221.165,137.644 229.763,138.404 234.822,127.904C247.043,104.016 257.354,104.318 278.405,104.173C291.289,104.803 300.132,97.803 298.703,90.966C290.112,80.273 279.868,86.224 274.855,64.859C274.282,62.419 273.913,60.858 273.226,60.339L158.74,3.096C153.224,-0.519 149.851,-0.208 144.429,3.096Z" style="fill:#956e36;stroke:#a98858;stroke-width:1px;"/>
            <path d="M55.788,86.402L55.911,106.344L68.442,121.634L55.788,86.402Z" style="fill-opacity:0.03;"/>
            <path d="M196.188,112.876L204.122,129.688L220.012,136.227L196.188,112.876Z" style="fill-opacity:0.03;"/>
            <path d="M246.729,83.818L267.441,99.419L281.868,101.57L246.729,83.818Z" style="fill-opacity:0.03;"/>
            <path d="M117.268,117.142L118.26,133.518L129.922,152.374L117.268,117.142Z" style="fill-opacity:0.03;"/>
            <path d="M148.13,173.72C135.313,169.492 146.947,170.458 146.69,151.54C146.547,140.977 148.738,137.847 149.614,131.528C149.949,129.107 150.882,124.321 150.536,124.148L272.839,62.35C274.811,71.493 279.149,81.446 287.268,84.479C297.277,88.219 299.596,92.651 298.903,97.149L236.038,128.581C232.768,135.197 229.628,137.941 219.143,137.028L181.001,157.066" style="fill-opacity:0.03;"/>
        </g>
        <g>
            <path d="M36.657,60.119L151.144,117.362L151.144,120.94L151.144,117.362L265.631,60.119L265.631,63.697L151.144,120.94L36.657,63.697L36.657,60.119Z" style="fill:#613112;stroke:#000;stroke-width:1px;"/>
            <path d="M151.144,2.876L265.631,60.119L151.144,117.362L36.657,60.119L151.144,2.876Z" style="fill:#613112;stroke:#000;stroke-width:1px;"/>
        </g>
        <g>
            <path d="M177.274,62.976L181.363,56.843L148.652,40.487L144.564,46.621L177.274,62.976Z" style="fill:#2d2d2d;stroke:#000;stroke-width:0.7px;"/>
            <path d="M148.652,40.487L156.83,36.399L189.541,52.754L181.363,56.843L148.652,40.487Z" style="fill:#2d2d2d;stroke:#000;stroke-width:0.7px;"/>
            <path d="M152.741,79.331L119.376,63.303L120.031,58.887L152.741,75.242L152.741,79.331Z" style="fill:#2d2d2d;stroke:#000;stroke-width:0.7px;"/>
            <path d="M189.541,60.931L189.541,52.754L181.363,56.843L177.274,62.976L152.741,75.242L152.741,79.331L189.541,60.931Z" style="fill:#2d2d2d;stroke:#000;stroke-width:0.7px;"/>
            <path d="M120.031,58.887L144.564,46.621L177.274,62.976L152.741,75.242L120.031,58.887Z" style="fill:#2d2d2d;stroke:#000;stroke-width:0.7px;"/>
            <path d="M142.431,56.843C146.405,54.856 152.857,54.856 156.83,56.843C160.804,58.829 160.804,62.055 156.83,64.042C152.857,66.029 146.405,66.029 142.431,64.042C138.458,62.055 138.458,58.829 142.431,56.843Z" style="fill:#323232;stroke:#000;stroke-width:0.7px;"/>
            <path d="M128.548,60.251L128.93,57.274L136.449,55.651L147.938,58.151L136.869,57.885L134.648,60.931L128.548,60.251Z" style="fill:#0d0700;stroke:#000;stroke-width:0.7px;"/>
            <path d="M170.988,62.976L170.967,59.822L163.359,57.186L151.103,58.351L162.64,59.463L164.562,62.919L170.988,62.976Z" style="fill:#0d0700;stroke:#000;stroke-width:0.7px;"/>
            <path d="M144.831,50.576L145.324,46.24L149.515,58.092L146.741,51.798L145.777,52.749L144.831,50.576Z" style="fill:#0d0700;stroke:#000;stroke-width:0.7px;"/>
            <path d="M184.883,55.971C186.827,55 189.736,56.444 189.736,58.387C189.736,60.33 187.595,61.904 185.652,62.876C183.708,63.847 181.363,63.195 181.363,61.252C181.363,59.309 182.94,56.943 184.883,55.971Z" style="fill:#010100;stroke:#000;stroke-width:0.7px;"/>
            <path d="M151.829,65.17L152.741,71.153L152.741,65.626L150.536,59.456L151.829,65.17Z" style="fill:#0d0700;stroke:#000;stroke-width:0.7px;"/>
            <ellipse cx="150.85" cy="59.94" rx="23.699" ry="10.737" style="fill:url(#_Radial2);"/>
        </g>
        <g>
            <g>
                <path d="M160.606,24.161L160.606,13.647L170.723,13.647L170.723,24.161C170.723,24.809 170.23,25.457 169.242,25.95C167.268,26.938 164.061,26.938 162.087,25.95C161.1,25.457 160.606,24.809 160.606,24.161Z" style="fill:#8d7b5c;"/>
                <path d="M170.723,22.2C170.723,22.847 170.23,23.495 169.242,23.988C167.268,24.976 164.061,24.976 162.087,23.988C161.1,23.495 160.606,22.847 160.606,22.2" style="fill:none;stroke:#867757;stroke-width:0.7px;"/>
                <path d="M170.723,20.123C170.723,20.77 170.23,21.418 169.242,21.912C167.268,22.899 164.061,22.899 162.087,21.912C161.1,21.418 160.606,20.77 160.606,20.123" style="fill:none;stroke:#867757;stroke-width:0.7px;"/>
                <path d="M170.723,18.006C170.723,18.653 170.23,19.301 169.242,19.795C167.268,20.782 164.061,20.782 162.087,19.795C161.1,19.301 160.606,18.653 160.606,18.006" style="fill:none;stroke:#867757;stroke-width:0.7px;"/>
                <path d="M170.723,15.851C170.723,16.498 170.23,17.146 169.242,17.64C167.268,18.627 164.061,18.627 162.087,17.64C161.1,17.146 160.606,16.498 160.606,15.851" style="fill:none;stroke:#867757;stroke-width:0.7px;"/>
                <path d="M160.606,24.161L160.606,13.647L170.723,13.647L170.723,24.161C170.723,24.809 170.23,25.457 169.242,25.95C167.268,26.938 164.061,26.938 162.087,25.95C161.1,25.457 160.606,24.809 160.606,24.161Z" style="fill:none;stroke:#74674b;stroke-width:0.7px;"/>
                <path d="M162.087,11.925C164.061,10.938 167.268,10.938 169.242,11.925C171.217,12.912 171.217,14.515 169.242,15.503C167.268,16.49 164.061,16.49 162.087,15.503C160.112,14.515 160.112,12.912 162.087,11.925Z" style="fill:#8a7a5a;"/>
                <path d="M162.441,13.111C164.22,12.221 167.109,12.221 168.888,13.111C169.59,13.462 170.015,13.9 170.163,14.356C170.389,15.054 166.946,15.982 165.665,16.012C164.36,16.042 160.927,15.032 161.177,14.324C161.333,13.88 161.755,13.454 162.441,13.111Z" style="fill:#76774d;"/>
                <path d="M162.087,11.925C164.061,10.938 167.268,10.938 169.242,11.925C171.217,12.912 171.217,14.515 169.242,15.503C167.268,16.49 164.061,16.49 162.087,15.503C160.112,14.515 160.112,12.912 162.087,11.925Z" style="fill:none;stroke:#74674b;stroke-width:0.7px;"/>
            </g>
            <g>
                <ellipse cx="186.234" cy="26.054" rx="6.371" ry="4.647" style="fill:#c47a1e;stroke:#996017;stroke-width:0.5px;"/>
                <ellipse cx="186.604" cy="22.618" rx="1.112" ry="0.305" style="fill:#71b478;stroke:#5f692e;stroke-width:0.5px;"/>
            </g>
            <g>
                <path d="M201.462,46.456L201.462,35.942L211.58,35.942L211.58,46.456C211.58,47.104 211.086,47.751 210.099,48.245C208.124,49.232 204.918,49.232 202.943,48.245C201.956,47.751 201.462,47.104 201.462,46.456Z" style="fill:#8d7b5c;"/>
                <path d="M211.58,44.494C211.58,45.142 211.086,45.789 210.099,46.283C208.124,47.27 204.918,47.27 202.943,46.283C201.956,45.789 201.462,45.142 201.462,44.494" style="fill:none;stroke:#867757;stroke-width:0.7px;"/>
                <path d="M211.58,42.417C211.58,43.065 211.086,43.713 210.099,44.206C208.124,45.194 204.918,45.194 202.943,44.206C201.956,43.713 201.462,43.065 201.462,42.417" style="fill:none;stroke:#867757;stroke-width:0.7px;"/>
                <path d="M211.58,40.3C211.58,40.948 211.086,41.596 210.099,42.089C208.124,43.077 204.918,43.077 202.943,42.089C201.956,41.596 201.462,40.948 201.462,40.3" style="fill:none;stroke:#867757;stroke-width:0.7px;"/>
                <path d="M211.58,38.145C211.58,38.793 211.086,39.441 210.099,39.934C208.124,40.921 204.918,40.921 202.943,39.934C201.956,39.441 201.462,38.793 201.462,38.145" style="fill:none;stroke:#867757;stroke-width:0.7px;"/>
                <path d="M201.462,46.456L201.462,35.942L211.58,35.942L211.58,46.456C211.58,47.104 211.086,47.751 210.099,48.245C208.124,49.232 204.918,49.232 202.943,48.245C201.956,47.751 201.462,47.104 201.462,46.456Z" style="fill:none;stroke:#74674b;stroke-width:0.7px;"/>
                <path d="M202.943,34.219C204.918,33.232 208.124,33.232 210.099,34.219C212.073,35.207 212.073,36.81 210.099,37.797C208.124,38.784 204.918,38.784 202.943,37.797C200.969,36.81 200.969,35.207 202.943,34.219Z" style="fill:#8a7a5a;"/>
                <path d="M203.298,35.405C205.077,34.516 207.965,34.516 209.744,35.405C210.446,35.757 210.872,36.194 211.019,36.65C211.246,37.349 207.803,38.277 206.521,38.306C205.216,38.336 201.784,37.327 202.033,36.619C202.19,36.174 202.611,35.749 203.298,35.405Z" style="fill:#76774d;"/>
                <path d="M202.943,34.219C204.918,33.232 208.124,33.232 210.099,34.219C212.073,35.207 212.073,36.81 210.099,37.797C208.124,38.784 204.918,38.784 202.943,37.797C200.969,36.81 200.969,35.207 202.943,34.219Z" style="fill:none;stroke:#74674b;stroke-width:0.7px;"/>
            </g>
            <g>
                <ellipse cx="222.446" cy="49.51" rx="5.719" ry="4.522" style="fill:#c47a1e;stroke:#996017;stroke-width:0.5px;"/>
                <ellipse cx="222.779" cy="46.167" rx="0.998" ry="0.297" style="fill:#71b478;stroke:#5f692e;stroke-width:0.5px;"/>
            </g>
            <g>
                <ellipse cx="121.809" cy="30.173" rx="5.719" ry="4.522" style="fill:#c4951e;stroke:#997417;stroke-width:0.5px;"/>
                <ellipse cx="121.476" cy="26.83" rx="0.998" ry="0.297" style="fill:#71b478;stroke:#5f692e;stroke-width:0.5px;"/>
            </g>
            <g>
                <path d="M112.164,39.581L112.164,29.066L122.281,29.066L122.281,39.581C122.281,40.228 121.788,40.876 120.801,41.37C118.826,42.357 115.62,42.357 113.645,41.37C112.658,40.876 112.164,40.228 112.164,39.581Z" style="fill:#8d7b5c;"/>
                <path d="M122.281,37.619C122.281,38.266 121.788,38.914 120.801,39.408C118.826,40.395 115.62,40.395 113.645,39.408C112.658,38.914 112.164,38.266 112.164,37.619" style="fill:none;stroke:#867757;stroke-width:0.7px;"/>
                <path d="M122.281,35.542C122.281,36.19 121.788,36.837 120.801,37.331C118.826,38.318 115.62,38.318 113.645,37.331C112.658,36.837 112.164,36.19 112.164,35.542" style="fill:none;stroke:#867757;stroke-width:0.7px;"/>
                <path d="M122.281,33.425C122.281,34.073 121.788,34.72 120.801,35.214C118.826,36.201 115.62,36.201 113.645,35.214C112.658,34.72 112.164,34.073 112.164,33.425" style="fill:none;stroke:#867757;stroke-width:0.7px;"/>
                <path d="M122.281,31.27C122.281,31.918 121.788,32.565 120.801,33.059C118.826,34.046 115.62,34.046 113.645,33.059C112.658,32.565 112.164,31.918 112.164,31.27" style="fill:none;stroke:#867757;stroke-width:0.7px;"/>
                <path d="M112.164,39.581L112.164,29.066L122.281,29.066L122.281,39.581C122.281,40.228 121.788,40.876 120.801,41.37C118.826,42.357 115.62,42.357 113.645,41.37C112.658,40.876 112.164,40.228 112.164,39.581Z" style="fill:none;stroke:#74674b;stroke-width:0.7px;"/>
                <path d="M113.645,27.344C115.62,26.357 118.826,26.357 120.801,27.344C122.775,28.331 122.775,29.934 120.801,30.922C118.826,31.909 115.62,31.909 113.645,30.922C111.671,29.934 111.671,28.331 113.645,27.344Z" style="fill:#8a7a5a;"/>
                <path d="M114,28.53C115.779,27.641 118.667,27.641 120.446,28.53C121.148,28.881 121.573,29.319 121.721,29.775C121.948,30.474 118.505,31.402 117.223,31.431C115.918,31.461 112.485,30.451 112.735,29.744C112.892,29.299 113.313,28.873 114,28.53Z" style="fill:#76774d;"/>
                <path d="M113.645,27.344C115.62,26.357 118.826,26.357 120.801,27.344C122.775,28.331 122.775,29.934 120.801,30.922C118.826,31.909 115.62,31.909 113.645,30.922C111.671,29.934 111.671,28.331 113.645,27.344Z" style="fill:none;stroke:#74674b;stroke-width:0.7px;"/>
            </g>
            <g>
                <path d="M68.587,54.129L68.587,43.615L78.704,43.615L78.704,54.129C78.704,54.777 78.211,55.424 77.223,55.918C75.249,56.905 72.043,56.905 70.068,55.918C69.081,55.424 68.587,54.777 68.587,54.129Z" style="fill:#8d7b5c;"/>
                <path d="M78.704,52.167C78.704,52.815 78.211,53.463 77.223,53.956C75.249,54.943 72.043,54.943 70.068,53.956C69.081,53.463 68.587,52.815 68.587,52.167" style="fill:none;stroke:#867757;stroke-width:0.7px;"/>
                <path d="M78.704,50.091C78.704,50.738 78.211,51.386 77.223,51.88C75.249,52.867 72.043,52.867 70.068,51.88C69.081,51.386 68.587,50.738 68.587,50.091" style="fill:none;stroke:#867757;stroke-width:0.7px;"/>
                <path d="M78.704,47.974C78.704,48.621 78.211,49.269 77.223,49.763C75.249,50.75 72.043,50.75 70.068,49.763C69.081,49.269 68.587,48.621 68.587,47.974" style="fill:none;stroke:#867757;stroke-width:0.7px;"/>
                <path d="M78.704,45.819C78.704,46.466 78.211,47.114 77.223,47.607C75.249,48.595 72.043,48.595 70.068,47.607C69.081,47.114 68.587,46.466 68.587,45.819" style="fill:none;stroke:#867757;stroke-width:0.7px;"/>
                <path d="M68.587,54.129L68.587,43.615L78.704,43.615L78.704,54.129C78.704,54.777 78.211,55.424 77.223,55.918C75.249,56.905 72.043,56.905 70.068,55.918C69.081,55.424 68.587,54.777 68.587,54.129Z" style="fill:none;stroke:#74674b;stroke-width:0.7px;"/>
                <path d="M70.068,41.893C72.043,40.905 75.249,40.905 77.223,41.893C79.198,42.88 79.198,44.483 77.223,45.47C75.249,46.458 72.043,46.458 70.068,45.47C68.093,44.483 68.093,42.88 70.068,41.893Z" style="fill:#8a7a5a;"/>
                <path d="M70.422,43.079C72.201,42.189 75.09,42.189 76.869,43.079C77.571,43.43 77.996,43.868 78.144,44.323C78.37,45.022 74.928,45.95 73.646,45.98C72.341,46.01 68.908,45 69.158,44.292C69.315,43.848 69.736,43.422 70.422,43.079Z" style="fill:#76774d;"/>
                <path d="M70.068,41.893C72.043,40.905 75.249,40.905 77.223,41.893C79.198,42.88 79.198,44.483 77.223,45.47C75.249,46.458 72.043,46.458 70.068,45.47C68.093,44.483 68.093,42.88 70.068,41.893Z" style="fill:none;stroke:#74674b;stroke-width:0.7px;"/>
            </g>
            <g>
                <ellipse cx="95.999" cy="57.575" rx="6.371" ry="4.647" style="fill:#c47a1e;stroke:#996017;stroke-width:0.5px;"/>
                <ellipse cx="95.628" cy="54.14" rx="1.112" ry="0.305" style="fill:#71b478;stroke:#5f692e;stroke-width:0.5px;"/>
            </g>
            <g>
                <ellipse cx="78.399" cy="59.633" rx="5.719" ry="4.522" style="fill:#c47a1e;stroke:#996017;stroke-width:0.5px;"/>
                <ellipse cx="78.066" cy="56.29" rx="0.998" ry="0.297" style="fill:#71b478;stroke:#5f692e;stroke-width:0.5px;"/>
            </g>
            <g>
                <ellipse cx="210.635" cy="63.886" rx="5.719" ry="4.522" style="fill:#c47a1e;stroke:#996017;stroke-width:0.5px;"/>
                <ellipse cx="210.967" cy="60.543" rx="0.998" ry="0.297" style="fill:#71b478;stroke:#5f692e;stroke-width:0.5px;"/>
            </g>
            <g>
                <path d="M210.882,79.011L210.882,68.497L221,68.497L221,79.011C221,79.659 220.506,80.307 219.519,80.8C217.544,81.787 214.338,81.787 212.363,80.8C211.376,80.307 210.882,79.659 210.882,79.011Z" style="fill:#675b43;"/>
                <path d="M221,77.049C221,77.697 220.506,78.345 219.519,78.838C217.544,79.826 214.338,79.826 212.363,78.838C211.376,78.345 210.882,77.697 210.882,77.049" style="fill:none;stroke:#60553e;stroke-width:0.7px;"/>
                <path d="M221,74.973C221,75.62 220.506,76.268 219.519,76.762C217.544,77.749 214.338,77.749 212.363,76.762C211.376,76.268 210.882,75.62 210.882,74.973" style="fill:none;stroke:#60553e;stroke-width:0.7px;"/>
                <path d="M221,72.856C221,73.503 220.506,74.151 219.519,74.645C217.544,75.632 214.338,75.632 212.363,74.645C211.376,74.151 210.882,73.503 210.882,72.856" style="fill:none;stroke:#60553e;stroke-width:0.7px;"/>
                <path d="M221,70.701C221,71.348 220.506,71.996 219.519,72.489C217.544,73.477 214.338,73.477 212.363,72.489C211.376,71.996 210.882,71.348 210.882,70.701" style="fill:none;stroke:#60553e;stroke-width:0.7px;"/>
                <path d="M210.882,79.011L210.882,68.497L221,68.497L221,79.011C221,79.659 220.506,80.307 219.519,80.8C217.544,81.787 214.338,81.787 212.363,80.8C211.376,80.307 210.882,79.659 210.882,79.011Z" style="fill:none;stroke:#594f3a;stroke-width:0.7px;"/>
                <path d="M212.363,66.775C214.338,65.787 217.544,65.787 219.519,66.775C221.493,67.762 221.493,69.365 219.519,70.352C217.544,71.34 214.338,71.34 212.363,70.352C210.389,69.365 210.389,67.762 212.363,66.775Z" style="fill:#675b43;"/>
                <path d="M212.718,67.961C214.497,67.071 217.385,67.071 219.164,67.961C219.866,68.312 220.292,68.75 220.439,69.205C220.666,69.904 217.223,70.832 215.941,70.862C214.636,70.892 211.204,69.882 211.453,69.174C211.61,68.73 212.031,68.304 212.718,67.961Z" style="fill:#656743;"/>
                <path d="M212.363,66.775C214.338,65.787 217.544,65.787 219.519,66.775C221.493,67.762 221.493,69.365 219.519,70.352C217.544,71.34 214.338,71.34 212.363,70.352C210.389,69.365 210.389,67.762 212.363,66.775Z" style="fill:none;stroke:#594f3a;stroke-width:0.7px;"/>
            </g>
            <g>
                <path d="M96.232,81.468L96.232,70.954L106.349,70.954L106.349,81.468C106.349,82.116 105.855,82.763 104.868,83.257C102.893,84.244 99.687,84.244 97.713,83.257C96.725,82.763 96.232,82.116 96.232,81.468Z" style="fill:#675b43;"/>
                <path d="M106.349,79.506C106.349,80.154 105.855,80.801 104.868,81.295C102.893,82.282 99.687,82.282 97.713,81.295C96.725,80.801 96.232,80.154 96.232,79.506" style="fill:none;stroke:#60553e;stroke-width:0.7px;"/>
                <path d="M106.349,77.429C106.349,78.077 105.855,78.725 104.868,79.218C102.893,80.206 99.687,80.206 97.713,79.218C96.725,78.725 96.232,78.077 96.232,77.429" style="fill:none;stroke:#60553e;stroke-width:0.7px;"/>
                <path d="M106.349,75.313C106.349,75.96 105.855,76.608 104.868,77.101C102.893,78.089 99.687,78.089 97.713,77.101C96.725,76.608 96.232,75.96 96.232,75.313" style="fill:none;stroke:#60553e;stroke-width:0.7px;"/>
                <path d="M106.349,73.157C106.349,73.805 105.855,74.453 104.868,74.946C102.893,75.934 99.687,75.934 97.713,74.946C96.725,74.453 96.232,73.805 96.232,73.157" style="fill:none;stroke:#60553e;stroke-width:0.7px;"/>
                <path d="M96.232,81.468L96.232,70.954L106.349,70.954L106.349,81.468C106.349,82.116 105.855,82.763 104.868,83.257C102.893,84.244 99.687,84.244 97.713,83.257C96.725,82.763 96.232,82.116 96.232,81.468Z" style="fill:none;stroke:#594f3a;stroke-width:0.7px;"/>
                <path d="M97.713,69.231C99.687,68.244 102.893,68.244 104.868,69.231C106.843,70.219 106.843,71.822 104.868,72.809C102.893,73.796 99.687,73.796 97.713,72.809C95.738,71.822 95.738,70.219 97.713,69.231Z" style="fill:#675b43;"/>
                <path d="M98.067,70.418C99.846,69.528 102.735,69.528 104.513,70.418C105.216,70.769 105.641,71.206 105.789,71.662C106.015,72.361 102.572,73.289 101.29,73.319C99.985,73.348 96.553,72.339 96.802,71.631C96.959,71.186 97.381,70.761 98.067,70.418Z" style="fill:#656743;"/>
                <path d="M97.713,69.231C99.687,68.244 102.893,68.244 104.868,69.231C106.843,70.219 106.843,71.822 104.868,72.809C102.893,73.796 99.687,73.796 97.713,72.809C95.738,71.822 95.738,70.219 97.713,69.231Z" style="fill:none;stroke:#594f3a;stroke-width:0.7px;"/>
            </g>
            <g>
                <ellipse cx="191.953" cy="83.304" rx="5.719" ry="4.522" style="fill:#c4831e;stroke:#996617;stroke-width:0.5px;"/>
                <ellipse cx="191.62" cy="79.961" rx="0.998" ry="0.297" style="fill:#71b478;stroke:#5f692e;stroke-width:0.5px;"/>
            </g>
            <g>
                <path d="M163.708,91.738L163.708,81.224L173.825,81.224L173.825,91.738C173.825,92.386 173.331,93.033 172.344,93.527C170.369,94.514 167.163,94.514 165.189,93.527C164.201,93.033 163.708,92.386 163.708,91.738Z" style="fill:#8d7b5c;"/>
                <path d="M173.825,89.776C173.825,90.424 173.331,91.071 172.344,91.565C170.369,92.552 167.163,92.552 165.189,91.565C164.201,91.071 163.708,90.424 163.708,89.776" style="fill:none;stroke:#867757;stroke-width:0.7px;"/>
                <path d="M173.825,87.7C173.825,88.347 173.331,88.995 172.344,89.488C170.369,90.476 167.163,90.476 165.189,89.488C164.201,88.995 163.708,88.347 163.708,87.7" style="fill:none;stroke:#867757;stroke-width:0.7px;"/>
                <path d="M173.825,85.583C173.825,86.23 173.331,86.878 172.344,87.371C170.369,88.359 167.163,88.359 165.189,87.371C164.201,86.878 163.708,86.23 163.708,85.583" style="fill:none;stroke:#867757;stroke-width:0.7px;"/>
                <path d="M173.825,83.427C173.825,84.075 173.331,84.723 172.344,85.216C170.369,86.204 167.163,86.204 165.189,85.216C164.201,84.723 163.708,84.075 163.708,83.427" style="fill:none;stroke:#867757;stroke-width:0.7px;"/>
                <path d="M163.708,91.738L163.708,81.224L173.825,81.224L173.825,91.738C173.825,92.386 173.331,93.033 172.344,93.527C170.369,94.514 167.163,94.514 165.189,93.527C164.201,93.033 163.708,92.386 163.708,91.738Z" style="fill:none;stroke:#74674b;stroke-width:0.7px;"/>
                <path d="M165.189,79.501C167.163,78.514 170.369,78.514 172.344,79.501C174.319,80.489 174.319,82.092 172.344,83.079C170.369,84.066 167.163,84.066 165.189,83.079C163.214,82.092 163.214,80.489 165.189,79.501Z" style="fill:#8a7a5a;"/>
                <path d="M165.543,80.688C167.322,79.798 170.211,79.798 171.989,80.688C172.692,81.039 173.117,81.476 173.265,81.932C173.491,82.631 170.048,83.559 168.766,83.589C167.461,83.618 164.029,82.609 164.278,81.901C164.435,81.457 164.857,81.031 165.543,80.688Z" style="fill:#76774d;"/>
                <path d="M165.189,79.501C167.163,78.514 170.369,78.514 172.344,79.501C174.319,80.489 174.319,82.092 172.344,83.079C170.369,84.066 167.163,84.066 165.189,83.079C163.214,82.092 163.214,80.489 165.189,79.501Z" style="fill:none;stroke:#74674b;stroke-width:0.7px;"/>
            </g>
            <g>
                <path d="M128.582,95.685L128.582,85.171L138.699,85.171L138.699,95.685C138.699,96.333 138.205,96.98 137.218,97.474C135.244,98.461 132.037,98.461 130.063,97.474C129.075,96.98 128.582,96.333 128.582,95.685Z" style="fill:#8d7b5c;"/>
                <path d="M138.699,93.723C138.699,94.371 138.205,95.018 137.218,95.512C135.244,96.499 132.037,96.499 130.063,95.512C129.075,95.018 128.582,94.371 128.582,93.723" style="fill:none;stroke:#867757;stroke-width:0.7px;"/>
                <path d="M138.699,91.646C138.699,92.294 138.205,92.942 137.218,93.435C135.244,94.422 132.037,94.422 130.063,93.435C129.075,92.942 128.582,92.294 128.582,91.646" style="fill:none;stroke:#867757;stroke-width:0.7px;"/>
                <path d="M138.699,89.529C138.699,90.177 138.205,90.825 137.218,91.318C135.244,92.306 132.037,92.306 130.063,91.318C129.075,90.825 128.582,90.177 128.582,89.529" style="fill:none;stroke:#867757;stroke-width:0.7px;"/>
                <path d="M138.699,87.374C138.699,88.022 138.205,88.669 137.218,89.163C135.244,90.15 132.037,90.15 130.063,89.163C129.075,88.669 128.582,88.022 128.582,87.374" style="fill:none;stroke:#867757;stroke-width:0.7px;"/>
                <path d="M128.582,95.685L128.582,85.171L138.699,85.171L138.699,95.685C138.699,96.333 138.205,96.98 137.218,97.474C135.244,98.461 132.037,98.461 130.063,97.474C129.075,96.98 128.582,96.333 128.582,95.685Z" style="fill:none;stroke:#74674b;stroke-width:0.7px;"/>
                <path d="M130.063,83.448C132.037,82.461 135.244,82.461 137.218,83.448C139.193,84.436 139.193,86.039 137.218,87.026C135.244,88.013 132.037,88.013 130.063,87.026C128.088,86.039 128.088,84.436 130.063,83.448Z" style="fill:#8a7a5a;"/>
                <path d="M130.417,84.634C132.196,83.745 135.085,83.745 136.864,84.634C137.566,84.986 137.991,85.423 138.139,85.879C138.365,86.578 134.922,87.506 133.64,87.535C132.336,87.565 128.903,86.556 129.153,85.848C129.309,85.403 129.731,84.978 130.417,84.634Z" style="fill:#76774d;"/>
                <path d="M130.063,83.448C132.037,82.461 135.244,82.461 137.218,83.448C139.193,84.436 139.193,86.039 137.218,87.026C135.244,88.013 132.037,88.013 130.063,87.026C128.088,86.039 128.088,84.436 130.063,83.448Z" style="fill:none;stroke:#74674b;stroke-width:0.7px;"/>
            </g>
            <g>
                <ellipse cx="138.887" cy="100.577" rx="5.719" ry="4.522" style="fill:#c47a1e;stroke:#996017;stroke-width:0.5px;"/>
                <ellipse cx="138.554" cy="97.233" rx="0.998" ry="0.297" style="fill:#71b478;stroke:#5f692e;stroke-width:0.5px;"/>
            </g>
        </g>
        <g>
            <path d="M137.017,65.404C133.586,63.688 132.033,61.833 130.872,59.776C129.366,57.11 127.793,49.467 127.793,49.467L173.072,49.667C173.072,49.667 171.583,57.238 170.115,59.822C169.023,61.745 168.003,63.334 164.455,65.108C156.557,69.057 144.915,69.353 137.017,65.404Z" style="fill:url(#_Radial3);stroke:#242017;stroke-width:0.7px;"/>
            <path d="M134.434,37.382C141.817,33.144 152.288,32.497 161.146,35.388C161.72,35.576 162.168,35.33 162.688,35.16C162.831,35.113 164.881,34.355 165.293,34.538C167.55,35.54 175.605,38.31 172.333,40.982C172.073,41.194 171.231,41.432 171.417,41.663C175.021,46.132 174.082,51.51 167.291,54.906C159.338,58.882 148.472,60.031 139.36,57.129C137.938,56.676 136.585,59.283 134.946,58.967C133.086,58.609 126.792,55.248 127.167,53.966C127.283,53.568 129.606,52.153 129.272,51.788C125.019,47.147 127.587,41.312 134.434,37.382Z" style="fill:#443c2c;stroke:#242017;stroke-width:0.7px;"/>
            <path d="M134.57,37.35C143.37,31.622 156.391,32.471 165.13,37.421C172.585,41.644 173.978,49.318 165.055,53.675C156.571,57.818 143.073,57.858 134.669,53.675C126.612,49.665 127.27,42.103 134.57,37.35Z" style="fill:url(#_Radial4);stroke:#242017;stroke-width:0.7px;"/>
            <path d="M162.953,46.833C163.276,46.68 163.612,46.711 163.702,46.901C163.792,47.092 163.602,47.371 163.279,47.523C162.955,47.676 162.62,47.645 162.53,47.454C162.44,47.264 162.63,46.985 162.953,46.833Z" style="fill:#242017;"/>
            <path d="M146.82,40.268C148.272,39.542 150.629,39.542 152.081,40.268C153.533,40.994 153.533,42.173 152.081,42.899C150.629,43.625 148.272,43.625 146.82,42.899C145.368,42.173 145.368,40.994 146.82,40.268Z" style="fill:#3e3628;stroke:#242017;stroke-width:0.7px;"/>
            <path d="M145.967,38.603C147.705,37.734 150.528,37.734 152.266,38.603C154.005,39.472 154.005,40.884 152.266,41.753C150.528,42.622 147.705,42.622 145.967,41.753C144.228,40.884 144.228,39.472 145.967,38.603Z" style="fill:#4b4231;stroke:#242017;stroke-width:0.7px;"/>
            <path d="M147.126,39.183C148.225,38.634 150.008,38.634 151.107,39.183C152.206,39.732 152.206,40.624 151.107,41.173C150.008,41.723 148.225,41.723 147.126,41.173C146.027,40.624 146.027,39.732 147.126,39.183Z" style="fill:#40392a;stroke:#242017;stroke-width:0.7px;"/>
        </g>
    </g>
    <defs>
        <radialGradient id="_Radial1" cx="0" cy="0" r="1" gradientUnits="userSpaceOnUse" gradientTransform="matrix(-103.72,26.379,-13.1895,-51.86,188.002,98.3847)"><stop offset="0" style="stop-color:#e77735;stop-opacity:1"/><stop offset="1" style="stop-color:#7e5700;stop-opacity:1"/></radialGradient>
        <radialGradient id="_Radial2" cx="0" cy="0" r="1" gradientUnits="userSpaceOnUse" gradientTransform="matrix(22.6558,1.78204,-0.807385,10.2646,150.85,60.266)"><stop offset="0" style="stop-color:#157eff;stop-opacity:1"/><stop offset="1" style="stop-color:#fff;stop-opacity:0"/></radialGradient>
        <radialGradient id="_Radial3" cx="0" cy="0" r="1" gradientUnits="userSpaceOnUse" gradientTransform="matrix(39.0009,-21.3788,40.7526,18.4864,150.337,55.1814)"><stop offset="0" style="stop-color:#3f3829;stop-opacity:1"/><stop offset="0.62" style="stop-color:#5e584c;stop-opacity:1"/><stop offset="0.82" style="stop-color:#aba8a1;stop-opacity:1"/><stop offset="1" style="stop-color:#fff;stop-opacity:1"/></radialGradient>
        <radialGradient id="_Radial4" cx="0" cy="0" r="1" gradientUnits="userSpaceOnUse" gradientTransform="matrix(-6.29453,-16.4349,16.4349,-6.29453,140.878,37.2973)"><stop offset="0" style="stop-color:#503d39;stop-opacity:1"/><stop offset="1" style="stop-color:#3f3829;stop-opacity:1"/></radialGradient>
    </defs>
</svg>
