<svg height="182" width="160" xmlns="http://www.w3.org/2000/svg"><path d="m58.358 66.2-1.446 2.355-4.134 5.646-1.373 6.523 1.437 4.559 3.337 6.156.156.694-.545 1.5-.894 2.974-4.246 4.09-3.906 5.122-.5 3.498 1.623 3.06 3.37 1.125 4.06-.001 3.199-1.351-.068 2.416.33 4.422.541 1.611.629 1.467.46.816-.941 1.961.11 10.928 2.074 3.443 4.053 1.501 3.266-1.269 1.894-3.04.84-12.855-1.38-.62 6.11-1.423 11.663-.023 5.318 1.415-.995 1.1.266 8.853.29 3.401 1.724 3.292 3.534.704 2.85-.376 2.781-3.047 1.06-5.79-.397-7.27-1.183-.83 1.533-10.687 3.465 1.396 4.837-.663 2.05-2.8.483-3.778-1.723-4.305-2.448-2.492-5.326-5.745-.166-2.437 2.835-.964 3.977-6.408.133-6.317-.969-3.683-2.254-4.107-1.983-1.65-2.82-1.393-8.526-18.03-1.081 1.018-8.066 16.618-11.82.173-8.575-17.368-1.195 1.258z" fill="#fff"/><path d="M58.919 75.731h-1.75l2.64-4.23h2.84zM81.872 77.7l-1.138 2.637-.482 2.744-.03 2.498.654 1.998 1.138.857 1.58.063s.89-.906.968-1.061c.078-.156.594-1.155.594-1.155s.078-2.2.078-2.385l.013-3.183h2.275l-.031 2.722-.042 2.619.19.95.59.871.739.517 1.075.125 1.295-.485.827-1.17.453-1.946s-.077-1.516-.077-1.685c0-.17-.281-1.824-.281-1.824s-.732-2.06-.793-2.212a82.04 82.04 0 0 0-.784-1.598l2.17.003s.659 1.39.765 1.557c.106.168.59 1.684.59 1.684l.264 1.589.14 1.95-.139 1.834-.513 1.48-.81 1.276-1.092.897-.99.4-1.39.107-1.214-.25-.934-.672-.795-1.107-.466-.779-.965 1.588-.967.796-1.635.422-1.872-.201-1.62-1.42s-.907-1.294-1-1.98c-.093-.687-.25-2.203-.25-2.203l.079-2.118s.314-1.797.405-1.934c.092-.136.802-1.8.802-1.8l.67-1.089zm27.975-.993h-1.688l-3.633-4.08h2.876zm-6.105-9.219 2.398-1.112-10.167-21.891-9.744 20.991-9.803.005-9.705-20.953-9.979 21.65 2.37 1.171 7.595-17.034 7.868 17.26 13.611-.212 7.78-17.199zm-33.437 55.444v10.78l-.412 1.986-.91 1.811-1.278 1.25-1.385.482-2.385-.023-1.211-.591-1.144-1.169-.793-1.72-.398-1.466v-11.39H57.98v11.02l.231 1.654.39 1.337.671 1.557.906 1.076 1.173 1.105 1.076.53 1.325.609 1.521.184 1.556-.24 1.514-.502 1.822-1.342 1.201-1.467.858-2.074.484-2.285V122.91zm33.02.006v11.12l-.421 1.804-.859 1.566-.95.926-1.282.706-1.097.155-1.452-.063-1.46-.547-1.14-.988-.654-1.364-.528-1.767-.087-1.365V122.9h-2.39v11.123l.18 1.686.606 1.731.857 1.545 1.094 1.125 1.154.954 1.45.563 1.75.292 1.508-.076 1.246-.437 1.262-.703 1.636-1.42 1.063-1.702.609-1.886.265-1.996v-10.764zm1.156-27.93 1.67-2.075 4.64 4.685 2.998 3.329 1.594 2.292 1.325 2.449.34 1.934-.156 1.954-.733 1.512-1.013 1.403-1.608 1.124-1.358.608-2.137.433-1.635-.057-1.89-.623-1.81-1.201-2.289-1.9-1.475-1.556 1.768-1.79 1.546 2.11 1.483 1.401 1.749.966 1.37.357 1.544-.02 1.448-.389 1.274-.76.822-.843.833-1.427.248-1.12-.266-1.631-.611-1.371-1.204-1.828-1.279-1.45-1.43-1.51-2.045-1.796-2.34-1.979z"/><path d="m56.736 92.786 1.792-1.191-2.506-2.741-1.875-2.97-.74-2.088-.337-1.7-.07-2.188.134-2.571.509-2.214 1.17-2.263 1.29-1.6 1.38-1.688 1.137-1.125-1.636-1.324-1.402 1.532-1.622 1.888-1.104 1.81-1.24 2.65L50.9 77.4l-.118 1.844-.02 2.021.132 1.423.72 2.529.86 1.942 1.358 2.063s1.015 1.379 1.558 2.04c.43.524 1.345 1.524 1.345 1.524zm51.038-25.208 3.162 3.641 1.79 3.046.872 2.638.172 1.791.048 2.78-.413 2.408s-.591 1.647-.97 2.434c-.292.61-.628 1.2-1.002 1.762-.676 1.017-1.45 1.967-2.234 2.902-.461.551-1.452 1.594-1.452 1.594l-1.717-1.327 2.199-2.23 1.56-2.061 1.156-2.31.593-2.09.214-2.248-.187-2.747-.778-2.7-1.03-1.794-1.371-1.681-2.368-2.512z"/><g fill-rule="evenodd"><path d="M85.275 90.602q-1.449.25-2.626.996v-.083q1.087-.83 2.626-.913" fill="#0ccb01"/><path d="m63.83 95.953-.09.083-6.651-1.186c-5.642 13.993 1.955 14.677-.98 22.822-.785 2.27-1.872 3.57-3.26 3.903-1.51.221-3.382-.526-5.616-2.242l-.453-.416-.363-.166-.271-.415-3.08-3.653v-.084c-1.811-2.989-2.445-6.532-1.902-10.628.725-6.477 3.382-11.1 7.97-13.867 4.349-2.768 8.062-3.045 11.142-.83l-.09-.084.633.499.363.083.271.332c2.476 1.716 5.375 2.795 8.696 3.238L82.67 92.33c-.362.498-.775 1.567-.775 2.176 0 1.163.329 1.398 1.597 2.173l.448.322-6.093 1.407-5.83.624-.182-2.74-.181-.498-.544-.25-.543.084m13.077-2.617v-.083l2.898-.747 2.446.58.181.084.272.083.09.083.997 1.412v.166c0 .609-.332 1.135-.997 1.577l-.543.333-.634.249-.725.249.09-.083-1.177.083c-.603 0-1.237-.194-1.902-.581l-.453-.167-.362.084-.09-.084-.091-.083c-.725-.442-1.496-.943-1.496-1.551 0-.499.65-.94 1.134-1.272l.18-.166.182-.166m8.695 1.993 4.53-.913 4.528-1.08.181-.083.544-.083 3.985-.083v.083c-.12.166-.06.415.181.747l.09.166v.416l-.09.083c-.241 1.384-.754 2.27-1.54 2.657h.091l-.724.166v-.083l-.725.166h-1.812l-4.8-.166-.725.332-.181.249-.453.996-.09.25-.544 3.238c-1.268-2.048-3.865-4.788-5.254-5.896.906-.664 2.688-.276 2.808-1.162m9.24-.581-.544.415-.181.581.453.581c.362.222.936.47 1.72.748l.635-.083.543-.416-.09-.664-.453-.415-1.36-.581-.724-.166m-44.383-.582.725.083.543-.415c.121-.221.151-.415.09-.581l-.452-.498-4.8-.166c-2.054.775-3.654 2.103-4.801 3.985v.084c-1.208 2.158-.815 4.068 1.177 5.729 4.184 2.666 8.774 4.265 9.42-2.574v-.083l.09-.415-.09-.416-1.268-1.494-.918-2.098-.803.686-1.54-.166-.543.166-.996.748-.544.747-.09.415.18.415.454.665.634.332.634-.166.362-.499-.181-.664-.09-.166.09-.083.272-.166.905.083.816.83.815.997v.249c-.548 4.442-3.603 3.648-6.431 1.411-1.329-1.051-1.57-2.297-.725-3.736.906-1.55 2.204-2.657 3.895-3.322l2.275-.81m-9.25 16.09-.18.248-.091.332.09 1.91.272.581.634.25.634-.25.272-.58-.09-1.579c3.796-.54 6.957.795 3.804 4.65l-2.99 1.412c-1.932-.332-3.23-1.328-3.894-2.99l-1.54-5.23-.362-.499-.725-.166-.544.415-.18.582 1.63 5.48c.966 2.325 2.838 3.681 5.616 4.069l.543-.083 3.442-1.578.272-.166" fill="#12a001"/><path d="M63.537 101.065h-.09l.09-.083v.083m44.564-6.477v-.083.083"/><path d="M55.79 93.453c2.363-.166 8.228 1.735 15.187 1.419l.543-.083.543.249.182.498.18 2.74 5.373-.627 4.854-.868h.091c-1.268-.775-1.997-1.03-1.997-2.193 0-.61.182-1.163.544-1.661l-11.141.415c-3.321-.443-6.22-1.522-8.696-3.238l-.271-.332-.363-.083-.634-.499.09.083c-3.079-2.214-6.67-1.787-11.018.981-4.59 2.768-7.194 7.307-7.919 13.784-.543 4.096-.083 7.49 1.728 10.478v.083l3.08 3.737.271.415.363.166.453.416c2.234 1.716 4.087 2.239 5.596 2.017 1.39-.332 2.495-1.409 3.28-3.678l.895-9.823m28.271-17.247 1.268-.083 3.17.747.816.332c.785.499 1.328 1.08 1.63 1.744l4.257-.83 4.348-1.08.544-.166c2.657-1.605 4.981-1.218 6.974 1.163l.181.581-.271.581v.25l-.091.747c-.423 2.159-1.329 3.46-2.717 3.902h-.091l-.725.167h-.09l-.725.166h-1.087l-1.54-.083-.452-.167-3.08-.083-.181.083-.272.582-1.087 5.646-.272.415-.543.25-.544-.084-.362-.415c-1.57-3.155-3.196-6.082-5.068-7.355h-.091l-.272.083-.724.166h-.09l-1.45.083-1.721-.25-.815.416-.09.083-5.852 1.116-6.368.794h-.453l-.453-.332-.181-.415-.181-2.408c-4.605-.339-10.574-1.004-13.062-1.535-.519 3.694 1.966 9.864 1.263 12.934l-.648 10.011c-.21 3.242-2.873 4.49-4.866 4.877-1.993.388-4.687-.26-7.465-2.42l-.09-.082-.453-.415-.181-.333-.453-.249-3.074-4.392c-1.933-3.321-2.388-7.225-1.845-11.653.845-7.03 3.374-12.194 8.386-15.24 5.133-3.265 9.674-3.274 13.417-.506v.083l.363.249.362.332.362.166c2.235 1.495 4.861 2.464 7.88 2.906l11.232-.58.725.165.272.25v.082a7.088 7.088 0 0 1 2.626-.996m7.065 4.4c-.12.887-.54.949-1.445 1.613 1.389 1.107 2.623 3.398 3.891 5.446l.543-3.238.091-.25.453-.996.181-.25.725-.331 4.8.166h1.812l.725-.166v.083l.724-.166h-.09c.785-.388 1.298-1.273 1.54-2.657l.09-.083v-.416l-.09-.166c-.242-.332-.303-.58-.182-.747v-.083l-3.985.083-.544.083-.18.083-4.53 1.08-4.529.913m-8.695-1.993-.181.166-.181.166c-.483.332-.676.712-.632 1.186.06.429.847.676 1.632 1.008l.453.166c.664.387 1.298.581 1.902.581l1.177-.083-.09.083.724-.25.634-.248.544-.332c.664-.443.902-.256.902-.865v-.166l-.997-1.412-.09-.083-.272-.083-.181-.083-2.446-.581-2.898.747v.083" fill="#167801"/><path d="m101.58 94.422.724.166 1.359.581.453.415.09.664-.543.416-.634.083c-.785-.277-1.36-.526-1.721-.748l-.453-.58.18-.582.544-.415m-45.789-.969-1.764.304c-1.69.665-2.99 1.772-3.895 3.322-.845 1.44-.604 2.685.725 3.736.966.775 2.083 1.384 3.351 1.827l1.721.166c.785-1.162 1.238-2.297 1.359-3.404v-.25l-.815-.996-.816-.83-.905-.083-.272.166-.09.083.09.166.181.664-.362.499-.634.166-.634-.332-.453-.665-.181-.415.09-.415.544-.747.996-.748.543-.166 1.54.166.544.25 1.177 1.162 1.268 1.494.09.416-.09.415v.083c-.12 1.495-.785 3.045-1.992 4.65l-.272.249-.453.083-2.898-.332.09.083-3.895-2.159c-1.992-1.66-2.385-3.57-1.177-5.73v-.083c1.147-1.882 2.747-3.21 4.8-3.985l4.801.166.453.498c.06.166.03.36-.09.581l-.544.415-1.14-.207m-4.295 14.573.09.083c.423.166.876.387 1.36.664l1.63 1.246.272.332v.332c-.242 1.937-.967 3.57-2.174 4.899l-.272.166-3.442 1.578-.543.083c-2.778-.388-4.65-1.744-5.616-4.069l-1.63-5.48.18-.582.544-.415.725.166.362.499 1.54 5.23c.664 1.662 1.962 2.658 3.895 2.99l2.989-1.412c.785-.94 1.328-2.075 1.63-3.404l-1.087-.747-.09-.083-1.087-.582h-.091l-3.08.166.09 1.578-.27.581-.635.25-.634-.25-.272-.58-.09-1.91.09-.333.182-.249c1.69-1.495 3.502-1.744 5.434-.747" fill="#bfd3b8"/></g><path d="m57.462 95.413-2.996.875-6.246 6.608-1.82 4.393.087 3.662 2.975 1.877 5.531.087 4.19-3.232 1.697-11.72z" fill="#fff" fill-rule="evenodd"/><path d="m55.79 93.453 1.672 1.96-3.569 3.168-2.525 2.463-1.609 1.658-1.42 1.766-.842 1.603-.342 1.341-.065 1.246.173.82.527.93.703.951.907.658 1.557.436s1.143.23 1.327.23c.184 0 1.51-.264 1.51-.264l1.405-.516 1.449-.861 1.604-1.6 1.418-1.988s1.049-1.7 1.122-1.84c.074-.14.354-.624.354-.624l1.897 2.024-1.343 2.022-1.376 1.719-1.14.966-2.608 1.998-1.715.765-1.321.265-2.153.095-1.868-.311s-1.372-.636-1.542-.682c-.17-.046-1.435-1.295-1.435-1.295l-.961-1.506-.515-1.416-.001-1.372.172-1.62.45-1.322.874-1.526 1.092-1.78 1.746-1.96 2.088-2.225 1.909-1.944z"/><path d="M98.759 79.333c1.238.875 4.142.764 5.267-.024m-38.536-.025c1.238.875 4.142.764 5.267-.024" style="display:none;stroke-width:2.14607;stroke-dasharray:none" id="gikopoipoi_eyes_closed" stroke-width="3" fill="none" stroke="#000" stroke-linecap="round" stroke-linejoin="round"/><g id="gikopoipoi_eyes_open" style="display:inline"><circle cx="68.024" cy="78.852" r="2.118" style="display:inline"/><circle cx="101.399" cy="78.901" r="2.118" style="display:inline"/></g></svg>