<svg xmlns="http://www.w3.org/2000/svg" xmlns:xlink="http://www.w3.org/1999/xlink" height="56" width="80.3"><path d="M21.85 29.05v6.35l.3.15 39.65 19.8v-27.4L40.85 38.4l-.15.1-18.85-9.45" fill="#410303" fill-rule="evenodd"/><path d="M36.75 5.45 66.6 20.4 40.75 33.45.95 13.5l-.1 5 21 10.55L40.7 38.5l.15-.1v-.6l-.1-3.3v-1.05 1.05l.1 3.3v.6L61.8 27.95v27.4l.05.05 4.3-2.15.65-.35V35.4l13-6.5-.1-5L39.8 3.35 36.2 5.2l.55.25M66.6 20.4l.2 5.05v4.95l12.9-6.5-12.9 6.5v-4.95l-.2-5.05m.2 10v5-5m0-4.95-5 2.5 5-2.5" fill="#4f0404" fill-rule="evenodd"/><path d="m5.65-40.95.35-.2 8.5-4.25 25.95 12.95v.05h-.05L.6-12.45-25.25-25.5 4.6-40.45l1.05-.5" fill="url(#a)" fill-rule="evenodd" transform="matrix(-1 0 0 1 41.35 45.9)"/><path d="M.95 13.5H.9v-.05L26.85.5l8.5 4.25.35.2m1.05.5L66.6 20.4 40.75 33.45.95 13.5l-.1 5 21 10.55v6.35l.3.15 39.65 19.8v-27.4l5-2.5-.2-5.05m-.45 32.85.65-.35V35.4l13-6.5-.1-5-12.9 6.5v-4.95m-27-22.1L36.2 5.2l-.5-.25m.5.25.55.25m4 28v1.05l.1 3.3v.6l-.15.1-18.85-9.45M66.8 35.4v-5m-4.95 25h-.05v-.05m.05.05 4.3-2.15m-4.35-25.3L40.85 38.4M79.7 23.9 39.8 3.35" fill="none" stroke="#2f0202" stroke-linecap="round" stroke-linejoin="round"/><defs><radialGradient cx="0" cy="0" gradientTransform="matrix(.0232 0 0 .0211 8.6 -29.45)" gradientUnits="userSpaceOnUse" id="b" r="819.2" spreadMethod="pad"><stop offset="0" stop-color="#2f0202"/><stop offset="0" stop-color="#6b0303"/><stop offset="0" stop-color="#2f0202"/><stop offset="0" stop-color="#600202"/><stop offset="1" stop-color="#400000"/></radialGradient><radialGradient xlink:href="#b" id="a" gradientUnits="userSpaceOnUse" gradientTransform="matrix(.0232 0 0 .0211 8.6 -29.45)" cx="0" cy="0" r="819.2" spreadMethod="pad"/></defs></svg>