<svg height="222" width="240" xmlns:xlink="http://www.w3.org/1999/xlink" xmlns="http://www.w3.org/2000/svg"><defs><path d="M10.25-2.6H.75l-1.1-1" fill="none" stroke="#333" stroke-linecap="round" stroke-linejoin="round" transform="translate(.85 4.1)" id="b"/><path d="m2-1.7-2 2 1.85 1.8M0 .3V.25v2.5M0 .3l-1.85 1.8M-2-1.7 0 .25V-2.7" fill="none" stroke="#fea5c0" stroke-linecap="round" stroke-linejoin="round" transform="translate(2.5 3.2)" id="a"/><use height="6.45" width="5" xlink:href="#a" id="c" x="0" y="0"/><g id="d" transform="translate(11.45 4.1)"><use height="2" transform="translate(-.85 -4.1)" width="11.6" xlink:href="#b"/><use height="6.45" transform="translate(-11.45 -3.8)" width="5" xlink:href="#c"/></g></defs><path style="display:inline;fill:#000;fill-opacity:1;stroke:none;stroke-width:1px;stroke-linecap:butt;stroke-linejoin:miter;stroke-opacity:1" d="M98.55 96.826c2.978 2.835 6.713 9.883 6.184 10.328-1.953 2.277-3.56 12.346-3.56 12.346-1.331-1.333-5.764-3.178-5.764-3.178s.499-7.591-2.02-8.293c-4.419-1.23-13.252 4.824-13.252 4.824s-.576-2.273-2.54-3.533c-1.941-1.245-11.22-.945-11.22-.945s8.969-13.348 17.818-13.782c7.343-.361 13.022 5.052 13.022 5.052.794-1.027 1.019-1.37 1.332-2.819z"/><path style="display:inline;fill:#72060a;fill-opacity:1;stroke:none;stroke-width:1px;stroke-linecap:butt;stroke-linejoin:miter;stroke-opacity:1" d="m130.268 61.864 7.915-18.82 9.073 19.62zm-29.97 6.247s-.045-3.905 1.277-6.828c1.322-2.923 8.759-18.178 8.759-18.178l8.162 18.786s-8.499-.252-18.198 6.22z"/><g transform="matrix(2 0 0 2 119.741 182)"><path d="m4.1-60 1.2.55h7.75L14.3-60l3.15 3.05 1.1 1.1-.35.4.1.1c1.4 1.367 2.167 2.883 2.3 4.55l.05.6c0 1.1-.267 2.133-.8 3.1l-.25.45-1.4 1.7.1.1-.3.3-3.25.9v4.7l-3.25.7-3.15.9.65 1.6L12.35-37l3-.6c1.033 0 1.75.2 2.15.6.533.533.8 1.2.8 2 0 .733-.25 1.35-.75 1.85-.7.7-2.067 1.117-4.1 1.25l-1.25.05.35 1.5 1.5-.05-.05 2.75-1.5 1.25v12.25l-.85 4.6H10.1V-3c0 .467-.15.85-.45 1.15-.367.367-.9.55-1.6.55-.733 0-1.283-.183-1.65-.55C6.133-2.15 6-2.533 6-3v-6.55H4.45l-.9-1.3c.333-.6.5-1.35.5-2.25v-.25c-.033-1.133-.333-1.983-.9-2.55-.533-.533-1.217-.8-2.05-.8h-6.6v1.55h6.55c.467 0 .85.133 1.15.4.333.333.517.85.55 1.55l-.15.9h.05l-.05.25-.4.55c-.3.3-.683.45-1.15.45H-5.5v1.5l-1.8.05v-.05h-1.55l-1.7-1.1-1.75-3.9v-3.9l.45-.4.2-.15 1.15-1.4-1.25-1-.7.95.4-10.95 1.75-12.8.4.35.75-.7-1-1.1c-.967-1.233-1.467-2.567-1.5-4v-.25l.05-.9c.233-1.533 1.05-2.95 2.45-4.25l-.75-.75.5-3.95.078 1.944c2.794-.74 5.77-2.436 8.272-1.644L.2-60h3.9m1.2 22.05C4.6-38.65 3.517-39 2.05-39l-4 .75-3.1.9.65 1.6L-1.1-37c1.133-.4 2.133-.6 3-.6 1.033 0 1.75.2 2.15.6.533.533.8 1.2.8 2 0 .733-.25 1.35-.75 1.85-.7.7-2.05 1.117-4.05 1.25l-1.3.05.35 1.5c2.633-.033 4.6-.55 5.9-1.55l.4-.35c.667-.667 1-1.617 1-2.85 0-1.2-.367-2.15-1.1-2.85" fill="#fff" fill-rule="evenodd"/><path d="m14.3-60-1.25.55-3.9-8.6-3.85 8.6L4.1-60l5.05-11 5.15 11M.2-60l-1.25.55-3.85-8.6-3.85 8.6-.65-.3-.55-.25 5.05-11L.2-60m-10.1 4.2.75.75c-1.4 1.3-2.217 2.717-2.45 4.25l-.05.9v.25c.033 1.433.533 2.767 1.5 4l1 1.1-.75.7-.4-.35-.6-.7-.75-1.05a6.777 6.777 0 0 1-1.05-3.85l.05-1c.133-1 .467-1.95 1-2.85l1.75-2.15m-2.55 35.35.7-.95 1.25 1-1.15 1.4-.2.15-.45.4c-.467.3-1 .45-1.6.45-.633 0-1.517-.367-2.65-1.1-.8-.433-1.433-.65-1.9-.65-.6 0-1.033.183-1.3.55l-.15.2-.45.75-1.35-.75a4.482 4.482 0 0 1 1.2-1.65l.6-.45 1.35-.35c.733 0 1.483.267 2.25.8 1.1.567 1.95.85 2.55.85.4 0 .833-.217 1.3-.65m6.95 10.9v-1.5h6.55c.467 0 .85-.15 1.15-.45l.4-.55.05-.25.1-.8v-.1c-.033-.7-.217-1.217-.55-1.55-.3-.267-.683-.4-1.15-.4H-5.5v-1.55h6.6c.833 0 1.517.267 2.05.8.567.567.867 1.417.9 2.55v.25c0 .9-.167 1.65-.5 2.25l-.05.1-.35.4c-.5.533-1.15.8-1.95.8h-6.7m9.95 0H6V-3c0 .467.133.85.4 1.15.367.367.917.55 1.65.55.7 0 1.233-.183 1.6-.55.3-.3.45-.683.45-1.15v-6.55h1.55v6.6c0 .833-.267 1.517-.8 2.05-.633.6-1.567.9-2.8.9-1.267 0-2.2-.3-2.8-.9-.533-.533-.8-1.217-.8-2.05v-6.6m9.6-20.85-1.5.05-.35-1.5 1.25-.05c2.033-.133 3.4-.55 4.1-1.25.5-.5.75-1.117.75-1.85 0-.8-.267-1.467-.8-2-.4-.4-1.117-.6-2.15-.6l-3 .6L9-35.75l-.65-1.6 3.15-.9 3.25-.7.75-.05c1.467 0 2.55.35 3.25 1.05.733.7 1.1 1.65 1.1 2.85 0 1.233-.333 2.183-1 2.85l-.4.35c-1.067.8-2.533 1.3-4.4 1.5m4.25-14.45-.1-.1 1.4-1.7.25-.45c.533-.967.8-2 .8-3.1l-.05-.6c-.133-1.667-.9-3.183-2.3-4.55l-.1-.1.35-.4h.05l.3-.35c1.7 1.567 2.617 3.367 2.75 5.4l.05.6c0 1.267-.3 2.45-.9 3.55-.467.833-1.1 1.633-1.9 2.4l-.6-.6m-13 6.9c.733.7 1.1 1.65 1.1 2.85 0 1.233-.333 2.183-1 2.85l-.4.35c-1.3 1-3.267 1.517-5.9 1.55l-.35-1.5 1.3-.05c2-.133 3.35-.55 4.05-1.25.5-.5.75-1.117.75-1.85 0-.8-.267-1.467-.8-2-.4-.4-1.117-.6-2.15-.6-.867 0-1.867.2-3 .6l-3.3 1.25-.65-1.6 3.1-.9 4-.75c1.467 0 2.55.35 3.25 1.05" fill="#333" fill-rule="evenodd" style="fill:#010101;fill-opacity:1"/><path d="m18.55-55.85-1.1-1.1 1.15 1.1h-.05" fill="red" fill-rule="evenodd"/><path d="M4.1-60H.2m12.3 45.85V-26.4m6.05-29.45-1.1-1.1" fill="none" stroke="#333" stroke-linecap="round" stroke-linejoin="round" style="stroke:#010101;stroke-opacity:1"/><use height="6.75" transform="matrix(1.0012 0 0 1 -9.063 -52.5)" width="22.2" xlink:href="#d"/><g style="display:inline" fill-rule="evenodd"><path d="M1.357 0h.2l.554.1.452.35q.452.45.452 1L2.563 2.6Q2.11 3 1.558 3l-.804-.2-.252-.2-.452-.7v-.15L0 1.45v-.1q.05-.5.502-.9l.252-.2q.251-.2.552-.25h.05m.453.85L1.558.8q-.352-.05-.553.2-.201.15-.201.45v.15l.15.45h.051l.05.05.201.1.302.05.552-.2.151-.6-.05-.3-.1-.15-.05-.05-.151-.1h-.101M18.257 0h.2l.553.1.453.35q.452.45.452 1l-.452 1.15q-.453.4-1.005.4l-.804-.2-.252-.2-.452-.7v-.15l-.05-.3v-.1q.05-.5.502-.9l.252-.2q.251-.2.552-.25h.05m.453.85L18.458.8q-.352-.05-.553.2-.201.15-.201.45v.15l.15.45h.051l.05.05.201.1.302.05.553-.2.15-.6-.05-.3-.1-.15-.05-.05-.151-.1h-.101" style="stroke-width:1.0025" transform="matrix(1.0012 0 0 1 -2.873 -56.55)" id="gikopoipoi_eyes_open"/></g><g id="gikopoipoi_eyes_closed" style="display:none" fill="none" stroke="#000" stroke-linecap="round" stroke-linejoin="round" stroke-width="1.5"><path d="M13.986-55h3.15"/><path d="M-.05 1.55H3.1" style="display:inline" transform="translate(-2.885 -56.55)"/></g></g><path style="display:inline;fill:none;stroke:#000;stroke-width:2.5;stroke-linecap:butt;stroke-linejoin:miter;stroke-miterlimit:4;stroke-dasharray:none;stroke-opacity:1" d="M147.256 62.663c-5.45-.239-11.168-.655-16.988-.799m-11.772.027s-9.68-.08-18.198 6.22c0 0-.2-3.575.925-6"/><circle style="fill:#fb0000;fill-opacity:1;fill-rule:evenodd;stroke:#000;stroke-width:1.76122;stroke-miterlimit:4;stroke-dasharray:none;stroke-opacity:1" cx="76.403" cy="141.787" r="5.56"/><path style="fill:none;stroke:#000;stroke-width:3.8;stroke-linecap:butt;stroke-linejoin:miter;stroke-miterlimit:4;stroke-dasharray:none;stroke-opacity:1" d="M99.248 112.274c1.19-3.997 4.599-11.876 14.062-12.226 5.84-.216 10.36 3.353 10.926 5.183m17.771 2.533c.527-2.653 3.2-8.28 11.197-7.91"/><path style="color:#000;fill:#9e0a0e;stroke-width:2.1;-inkscape-stroke:none" d="M149.796 154.676c-3.154 1.122-19.162 3.26-24.386-3.79-1.161-1.567-6.845-.437-10.198-.437-3.587 0-8.68 2.741-11.869 3.631-3.69 1.03-12.803-.55-12.803-.55 4.693-8.85 4.494-18.55 4.511-25.4.017-6.852 1.755-14.96 1.755-14.96s5.058-3.336 11.634-4.055c0 0 .84 12.178 9.436 11.683 0 0 9.444-1.097 11.323-3.218 2.3-2.597 1.697-8.028 1.697-8.028l8.582-.86s-1.83 10.91 5.283 11.436l2.594.417c-.434 6.564-.575 16.765.01 22.095.414 3.782 1.23 7.413 2.43 12.036z"/><path style="fill:#72060a;fill-opacity:1;stroke:none;stroke-width:1px;stroke-linecap:butt;stroke-linejoin:miter;stroke-opacity:1" d="m94.122 154.617 7.992-12.952-1.76 12.258z"/><path style="fill:#72060a;fill-opacity:1;stroke:none;stroke-width:.737383px;stroke-linecap:butt;stroke-linejoin:miter;stroke-opacity:1" d="m106.764 153.29 8.18-12.77 1.777 9.313z"/><path style="fill:#72060a;fill-opacity:1;stroke:none;stroke-width:1px;stroke-linecap:butt;stroke-linejoin:miter;stroke-opacity:1" d="m128.572 153.68-3.864-2.951 3.462-10.09 6.857 15.286-4.029.343z"/><path style="color:#000;fill:#000;-inkscape-stroke:none" d="m140.742 107.512-11.008 1.101.117 1.055s.14 1.265.012 2.84c-.128 1.574-.57 3.382-1.45 4.375-.21.237-1.043.727-2.122 1.103-1.08.377-2.401.707-3.672.97-2.52.525-4.79.788-4.826.792-1.888.103-3.24-.452-4.346-1.373-1.11-.925-1.95-2.257-2.549-3.649-1.198-2.782-1.41-5.683-1.41-5.683l-.076-1.092-1.086.12c-6.867.75-12.098 4.222-12.098 4.222l-.359.236-.09.42s-1.76 8.151-1.777 15.178c-.017 6.874.15 16.354-4.389 24.912l-.598 1.123 1.217.373s10.725 3.408 18.4-.58c2.952-1.533 4.779-2.787 8.205-2.734 15.813.246 8.104 6.679 17.409 6.304 3.57-.144 6.434-.47 9.197-.773 2.762-.304 4.883-.63 6.217-1.104l.904-.322-.24-.932c-.509-4.606-.543-8.318-.95-12.024-.566-5.167-1.402-15.25-.972-21.757l.065-.953-3.584-.576-.043-.002c-1.51-.112-2.392-.703-3.067-1.596-.674-.893-1.084-2.143-1.283-3.433-.399-2.58.023-5.186.023-5.186zm-2.441 2.355a17.853 17.853 0 0 0 .113 4.506c.232 1.503.7 3.078 1.684 4.379.982 1.3 2.538 2.272 4.585 2.424l-.087-.01 1.68.27c-.397 6.614.233 15.855.81 21.119.387 3.527.39 6.924.945 11.274-1.079.283-2.55.585-4.819.834-2.704.298-5.542.584-9.085.766-6.741.347-1.261-8.297-17.172-6.437-3.744.437-6.298 1.61-9.438 3.262-6.343 3.335-14.562.834-15.562.542 4.216-8.796 4.13-18.136 4.146-24.664.016-6.356 1.5-13.564 1.649-14.277.48-.305 4.384-2.646 9.805-3.492.145 1.13.45 2.95 1.416 5.193.685 1.592 1.668 3.212 3.132 4.432 1.465 1.22 3.436 1.995 5.832 1.857l.032-.002.029-.004s2.4-.277 5.05-.828c1.326-.275 2.716-.617 3.936-1.043 1.22-.425 2.275-.87 3.004-1.693 1.421-1.605 1.826-3.808 1.97-5.598.098-1.2.027-1.613-.01-2.174z"/><path style="display:inline;fill:#514540;fill-opacity:1;stroke:#000;stroke-width:2;stroke-linecap:butt;stroke-linejoin:miter;stroke-miterlimit:4;stroke-dasharray:none;stroke-opacity:1" d="M139.26 154.114 171.479 6.106l8.475-1.96-33.43 150.848c-.43 2.13-7.597.66-7.262-.88z"/><g style="display:inline"><path style="fill:#fff;fill-opacity:1;stroke:none;stroke-width:2;stroke-linecap:butt;stroke-linejoin:miter;stroke-miterlimit:4;stroke-dasharray:none;stroke-opacity:1" d="M169.592 27.821s13.919-5.59 26.883-4.53c12.965 1.061 22.52 4.767 36.643 20.682 0 0-1.176-22.329-24.384-33.558-13.35-6.46-36.562.913-36.562.913" transform="translate(5.566 -6.117)"/><path style="fill:#c1c1c1;fill-opacity:1;stroke:none;stroke-width:1px;stroke-linecap:butt;stroke-linejoin:miter;stroke-opacity:1" d="M230.953 37.81s-2.668-5.75-5.19-7.69c-2.524-1.94-4.017-1.28-5.888-3.113-1.871-1.833-.228-3.02-2.78-4.835-2.553-1.815-4.81 1.52-8.064-.402-3.254-1.922-2.307-3.65-6.518-5.413-4.21-1.763-6.007 1.213-9.383 1.08-3.33-.132-3.916-3.3-8.222-3.357-4.877-.064-4.17 3.857-7.99 4.28-4.272.473-5.388-2.743-5.388-2.743l.62-4.426s23.35-6.013 36.196-.955c18.172 7.154 24.189 27.787 22.607 27.573z" transform="translate(5.566 -6.117)"/><path style="display:inline;fill:none;fill-opacity:1;stroke:#000;stroke-width:2;stroke-linecap:butt;stroke-linejoin:miter;stroke-miterlimit:4;stroke-dasharray:none;stroke-opacity:1" d="M169.592 27.821s13.919-5.59 26.883-4.53c12.965 1.061 22.52 4.767 36.643 20.682 0 0-1.176-22.329-24.384-33.558-13.35-6.46-36.962.443-36.962.443" transform="translate(5.566 -6.117)"/></g></svg>