<?xml version="1.0" encoding="UTF-8" standalone="no"?>
<svg xmlns:xlink="http://www.w3.org/1999/xlink" height="44.25px" width="56.2px" xmlns="http://www.w3.org/2000/svg">
  <g transform="matrix(1.0, 0.0, 0.0, 1.0, 29.2, 51.5)">
    <use height="44.25" transform="matrix(1.0, 0.0, 0.0, 1.0, -29.2, -51.5)" width="56.2" xlink:href="#shape0"/>
  </g>
  <defs>
    <g id="shape0" transform="matrix(1.0, 0.0, 0.0, 1.0, 29.2, 51.5)">
      <path d="M-1.75 -51.4 L-1.9 -51.5 -0.9 -51.5 -0.9 -51.4 -1.75 -51.4" fill="url(#gradient0)" fill-rule="evenodd" stroke="none"/>
      <path d="M-20.85 -35.7 Q-19.35 -36.55 -16.75 -37.3 -10.35 -39.05 -1.35 -39.05 7.65 -39.05 14.0 -37.3 16.9 -36.5 18.5 -35.5 L2.1 -8.25 Q0.7 -7.75 -1.0 -7.75 -2.85 -7.75 -4.2 -8.35 L-20.85 -35.7" fill="url(#gradient1)" fill-rule="evenodd" stroke="none"/>
      <path d="M-20.85 -35.7 L-4.2 -8.35 Q-2.85 -7.75 -1.0 -7.75 0.7 -7.75 2.1 -8.25 L18.5 -35.5" fill="none" stroke="#ffffff" stroke-linecap="round" stroke-linejoin="round" stroke-opacity="0.5019608" stroke-width="1.0"/>
      <path d="M-14.3 -49.35 Q-14.0 -49.2 -14.05 -49.4 L-11.05 -49.6 -9.15 -49.65 -3.15 -49.45 3.9 -49.35 6.95 -49.65 8.15 -49.6 9.2 -49.6 9.8 -49.5 Q14.75 -48.6 18.9 -47.3 19.3 -46.6 19.7 -47.05 19.95 -45.85 20.95 -45.4 L23.25 -42.2 Q25.0 -39.55 26.5 -33.85 L26.5 -33.7 Q26.2 -33.2 26.5 -33.45 25.95 -27.7 23.25 -24.35 23.1 -23.8 22.3 -24.15 21.9 -25.6 19.45 -27.0 18.25 -26.3 16.1 -26.7 13.9 -27.15 11.35 -24.3 L6.1 -26.6 Q0.0 -27.5 -1.75 -26.6 -3.55 -25.75 -5.1 -24.5 L-5.05 -23.25 Q-5.9 -24.0 -6.45 -23.95 L-10.8 -24.4 Q-14.55 -23.45 -20.25 -24.55 L-19.5 -24.3 Q-20.85 -21.8 -21.45 -21.85 -21.55 -21.85 -21.65 -21.95 L-21.65 -21.8 -21.7 -21.75 -21.7 -21.55 -21.65 -21.5 -21.6 -21.45 -21.65 -21.45 -21.6 -21.45 -21.65 -21.45 -21.7 -21.45 -21.75 -21.45 -21.7 -21.55 -21.75 -21.65 -21.75 -21.45 -21.9 -21.95 Q-25.15 -24.75 -28.4 -31.25 -28.2 -31.1 -28.55 -31.55 L-28.55 -31.75 Q-29.1 -37.45 -27.85 -39.7 L-26.8 -41.55 -26.6 -42.15 -25.4 -44.15 Q-23.25 -46.95 -20.9 -48.3 -20.7 -48.25 -20.45 -48.55 L-14.3 -49.35 M-21.7 -21.75 L-21.75 -21.75 -21.75 -21.65 -21.75 -21.75 -21.7 -21.75 M-21.9 -21.95 L-21.65 -21.8 -21.9 -21.95 M-21.65 -21.5 L-21.7 -21.45 -21.65 -21.5" fill="url(#gradient2)" fill-rule="evenodd" stroke="none"/>
      <path d="M-20.45 -48.55 Q-18.0 -49.3 -15.35 -49.45 L-14.8 -49.45 -14.3 -49.35 -20.45 -48.55" fill="url(#gradient3)" fill-rule="evenodd" stroke="none"/>
      <path d="M-27.85 -39.7 L-27.5 -40.35 -26.8 -41.55 -27.85 -39.7" fill="url(#gradient4)" fill-rule="evenodd" stroke="none"/>
      <path d="M-14.3 -49.35 Q-14.0 -49.2 -14.05 -49.4 L-11.05 -49.6 -9.15 -49.65 -3.15 -49.45 3.9 -49.35 6.95 -49.65 8.15 -49.6 9.2 -49.6 9.8 -49.5 Q14.75 -48.6 18.9 -47.3 19.3 -46.6 19.7 -47.05 19.95 -45.85 20.95 -45.4 L23.25 -42.2 Q25.0 -39.55 26.5 -33.85 L26.5 -33.7 Q26.2 -33.2 26.5 -33.45 25.95 -27.7 23.25 -24.35 23.1 -23.8 22.3 -24.15 21.9 -25.6 19.45 -27.0 18.25 -26.3 16.1 -26.7 13.9 -27.15 11.35 -24.3 L6.1 -26.6 Q0.0 -27.5 -1.75 -26.6 -3.55 -25.75 -5.1 -24.5 L-5.05 -23.25 Q-5.9 -24.0 -6.45 -23.95 L-10.8 -24.4 Q-14.55 -23.45 -20.25 -24.55 L-19.5 -24.3 Q-20.85 -21.8 -21.45 -21.85 L-21.5 -21.75 Q-20.9 -21.4 -21.55 -21.5 L-21.6 -21.45 -21.7 -21.4 -21.75 -21.35 -21.75 -21.4 -21.75 -21.45 -21.9 -21.95 Q-25.15 -24.75 -28.4 -31.25 -28.2 -31.1 -28.55 -31.55 L-28.55 -31.75 Q-29.1 -37.45 -27.85 -39.7 L-27.5 -40.35 -26.8 -41.55 -26.6 -42.15 -25.4 -44.15 Q-23.25 -46.95 -20.9 -48.3 -20.7 -48.25 -20.45 -48.55 -18.0 -49.3 -15.35 -49.45 L-14.8 -49.45 -14.3 -49.35 -20.45 -48.55 M-27.85 -39.7 L-26.8 -41.55 M-21.45 -21.85 Q-21.55 -21.85 -21.65 -21.95 L-21.65 -21.8 -21.6 -21.8 -21.45 -21.85 M-21.65 -21.5 L-21.5 -21.75 -21.6 -21.8 -21.7 -21.75 -21.7 -21.55 -21.65 -21.5 -21.6 -21.45 -21.65 -21.45 -21.6 -21.45 M-21.7 -21.75 L-21.65 -21.8 -21.9 -21.95 M-21.75 -21.65 L-21.75 -21.75 -21.7 -21.75 M-21.7 -21.55 L-21.75 -21.45 -21.7 -21.45 -21.65 -21.5 M-21.75 -21.4 L-21.75 -21.45 -21.75 -21.65 -21.7 -21.55 M-21.75 -21.4 L-21.7 -21.4 -21.7 -21.45 -21.65 -21.45 -21.7 -21.4 -21.75 -21.4" fill="none" stroke="#ffffff" stroke-linecap="round" stroke-linejoin="round" stroke-opacity="0.5019608" stroke-width="1.0"/>
      <path d="M-15.45 -41.0 L-15.2 -40.8 Q-14.55 -41.55 -12.85 -41.9 L-10.1 -42.1 -10.9 -41.95 -12.35 -41.4 -12.95 -40.8 -13.1 -40.35 -13.1 -40.05 Q-13.15 -38.95 -11.25 -37.55 L-11.55 -37.75 -12.25 -37.8 -13.7 -38.05 -15.15 -38.35 -18.05 -37.5 -18.0 -37.75 -17.45 -38.75 -19.1 -38.55 -20.6 -38.05 -21.45 -37.5 -22.0 -38.65 -22.0 -39.25 -21.8 -39.75 -24.4 -39.55 -25.4 -39.2 -24.8 -40.4 Q-23.25 -42.6 -21.25 -43.05 L-19.85 -43.25 Q-20.05 -42.15 -18.45 -41.0 L-18.2 -40.8 -18.25 -41.6 Q-18.1 -42.5 -17.0 -43.05 L-16.9 -43.0 Q-16.9 -42.0 -15.45 -41.0" fill="url(#gradient5)" fill-rule="evenodd" stroke="none"/>
      <path d="M21.4 -38.45 L20.4 -38.8 17.8 -39.0 17.95 -38.5 18.0 -37.9 Q17.9 -37.35 17.4 -36.75 L16.6 -37.3 15.1 -37.8 13.45 -38.0 14.0 -37.0 14.0 -36.75 11.1 -37.6 9.7 -37.3 8.2 -37.05 7.55 -37.0 7.85 -37.3 7.1 -37.8 5.6 -38.3 3.95 -38.5 4.5 -37.5 4.5 -37.25 1.6 -38.1 0.2 -37.8 -1.3 -37.55 -1.95 -37.5 -2.25 -37.3 -2.0 -37.5 -1.95 -37.55 Q-0.4 -38.8 -0.4 -39.8 L-0.45 -40.1 -0.6 -40.55 -1.15 -41.15 -2.6 -41.7 -3.45 -41.85 -2.55 -41.85 -0.7 -41.65 Q1.0 -41.3 1.7 -40.55 L1.95 -40.75 Q3.35 -41.75 3.35 -42.75 L3.45 -42.8 Q4.55 -42.25 4.7 -41.35 L4.7 -40.75 4.65 -40.55 4.9 -40.75 Q6.5 -41.9 6.35 -43.0 L5.8 -43.1 8.55 -42.9 Q10.25 -42.55 10.95 -41.8 L11.2 -42.0 Q12.6 -43.0 12.6 -44.0 L12.7 -44.05 Q13.8 -43.5 13.95 -42.6 L13.95 -42.0 13.9 -41.8 14.15 -42.0 Q15.75 -43.15 15.6 -44.25 L17.0 -44.05 Q18.95 -43.6 20.5 -41.4 L21.15 -40.2 20.15 -40.55 20.05 -40.55 20.75 -39.65 21.4 -38.45 M12.85 -42.35 L12.85 -42.25 12.95 -42.3 12.85 -42.35" fill="url(#gradient6)" fill-rule="evenodd" stroke="none"/>
      <path d="M0.05 -47.15 L0.15 -47.5 0.3 -47.25 0.65 -47.0 1.0 -46.9 0.9 -47.3 0.85 -47.5 1.5 -47.05 1.85 -47.15 2.15 -47.25 2.3 -47.3 1.9 -46.3 1.9 -46.2 1.95 -45.95 2.1 -45.7 Q2.2 -45.5 2.45 -45.4 L2.6 -45.35 2.0 -45.5 1.5 -45.95 1.4 -45.85 1.1 -45.0 1.05 -45.0 0.8 -45.6 0.8 -45.95 0.75 -45.95 0.75 -45.85 0.55 -45.7 0.5 -45.7 0.7 -46.0 0.75 -46.55 0.6 -46.35 0.15 -46.3 0.15 -46.55 0.15 -46.7 0.05 -47.15" fill="url(#gradient7)" fill-rule="evenodd" stroke="none"/>
      <path d="M0.05 -47.15 L0.15 -46.7 0.15 -46.55 0.15 -46.3 0.6 -46.35 0.75 -46.55 0.7 -46.0 0.5 -45.7 0.55 -45.7 0.75 -45.85 0.65 -45.4 0.45 -45.0 0.45 -44.9 -0.05 -44.4 -0.3 -44.4 Q-0.25 -44.8 -0.55 -45.15 L-0.6 -45.25 -0.6 -45.15 -0.6 -45.0 -0.8 -44.4 -0.85 -44.45 -1.05 -45.15 -1.15 -45.25 -1.55 -44.8 -2.1 -44.7 -1.95 -44.8 -2.2 -45.7 -2.25 -45.7 -2.25 -45.4 Q-2.3 -45.05 -2.5 -44.9 L-2.75 -45.7 -2.8 -45.7 -3.3 -45.35 -3.6 -45.25 -3.75 -45.25 -3.6 -45.35 -3.35 -45.5 -3.25 -45.7 -3.25 -45.85 -3.25 -46.0 -3.5 -46.8 -3.55 -46.9 -3.5 -46.9 -3.35 -46.8 -3.1 -46.7 -2.85 -46.65 -2.3 -47.0 -2.3 -46.9 -2.45 -46.55 -2.15 -46.55 Q-1.95 -46.65 -1.85 -46.7 L-1.7 -46.9 -1.75 -47.05 -1.6 -47.0 -1.35 -46.9 -1.1 -46.8 -0.55 -47.15 -0.55 -47.05 -0.7 -46.65 -0.4 -46.7 -0.1 -46.9 0.05 -47.05 0.05 -47.15" fill="url(#gradient8)" fill-rule="evenodd" stroke="none"/>
    </g>
    <linearGradient gradientTransform="matrix(0.0124, 0.0, 0.0, 0.0121, 3.2, -60.05)" gradientUnits="userSpaceOnUse" id="gradient0" spreadMethod="pad" x1="-819.2" x2="819.2">
      <stop offset="0.0" stop-color="#ffffff" stop-opacity="0.8"/>
      <stop offset="0.24313725490196078" stop-color="#c2c2c2" stop-opacity="0.3019608"/>
      <stop offset="0.4980392156862745" stop-color="#ffffff" stop-opacity="0.5019608"/>
      <stop offset="0.7450980392156863" stop-color="#ffffff" stop-opacity="0.2"/>
      <stop offset="1.0" stop-color="#ffffff" stop-opacity="0.8"/>
    </linearGradient>
    <linearGradient gradientTransform="matrix(-1.0E-4, 0.0185, -0.0191, -1.0E-4, -0.45, -28.25)" gradientUnits="userSpaceOnUse" id="gradient1" spreadMethod="pad" x1="-819.2" x2="819.2">
      <stop offset="0.0" stop-color="#ffffff" stop-opacity="0.8"/>
      <stop offset="0.24313725490196078" stop-color="#c2c2c2" stop-opacity="0.3019608"/>
      <stop offset="0.4980392156862745" stop-color="#ffffff" stop-opacity="0.5019608"/>
      <stop offset="0.7450980392156863" stop-color="#ffffff" stop-opacity="0.2"/>
      <stop offset="1.0" stop-color="#ffffff" stop-opacity="0.8"/>
    </linearGradient>
    <linearGradient gradientTransform="matrix(0.0, 0.0123, -0.0127, 0.0, -1.65, -39.45)" gradientUnits="userSpaceOnUse" id="gradient2" spreadMethod="pad" x1="-819.2" x2="819.2">
      <stop offset="0.0" stop-color="#ffffff" stop-opacity="0.8"/>
      <stop offset="0.24313725490196078" stop-color="#c2c2c2" stop-opacity="0.3019608"/>
      <stop offset="0.4980392156862745" stop-color="#ffffff" stop-opacity="0.5019608"/>
      <stop offset="0.7450980392156863" stop-color="#ffffff" stop-opacity="0.2"/>
      <stop offset="1.0" stop-color="#ffffff" stop-opacity="0.8"/>
    </linearGradient>
    <linearGradient gradientTransform="matrix(1.0E-4, 0.0176, -0.0197, 1.0E-4, -0.6, -36.0)" gradientUnits="userSpaceOnUse" id="gradient3" spreadMethod="pad" x1="-819.2" x2="819.2">
      <stop offset="0.0" stop-color="#ffffff" stop-opacity="0.8"/>
      <stop offset="0.24313725490196078" stop-color="#c2c2c2" stop-opacity="0.3019608"/>
      <stop offset="0.4980392156862745" stop-color="#ffffff" stop-opacity="0.5019608"/>
      <stop offset="0.7450980392156863" stop-color="#ffffff" stop-opacity="0.2"/>
      <stop offset="1.0" stop-color="#ffffff" stop-opacity="0.8"/>
    </linearGradient>
    <linearGradient gradientTransform="matrix(6.0E-4, 0.0174, -0.0197, 7.0E-4, 0.05, -33.75)" gradientUnits="userSpaceOnUse" id="gradient4" spreadMethod="pad" x1="-819.2" x2="819.2">
      <stop offset="0.0" stop-color="#ffffff" stop-opacity="0.8"/>
      <stop offset="0.24313725490196078" stop-color="#c2c2c2" stop-opacity="0.3019608"/>
      <stop offset="0.4980392156862745" stop-color="#ffffff" stop-opacity="0.5019608"/>
      <stop offset="0.7450980392156863" stop-color="#ffffff" stop-opacity="0.2"/>
      <stop offset="1.0" stop-color="#ffffff" stop-opacity="0.8"/>
    </linearGradient>
    <linearGradient gradientTransform="matrix(-2.0E-4, 0.0013, -0.0041, -6.0E-4, -17.8, -40.25)" gradientUnits="userSpaceOnUse" id="gradient5" spreadMethod="pad" x1="-819.2" x2="819.2">
      <stop offset="0.0" stop-color="#ffffff" stop-opacity="0.7019608"/>
      <stop offset="1.0" stop-color="#ffffff" stop-opacity="0.5019608"/>
    </linearGradient>
    <linearGradient gradientTransform="matrix(0.0147, -0.0037, 0.0011, 0.0044, 10.65, -40.75)" gradientUnits="userSpaceOnUse" id="gradient6" spreadMethod="pad" x1="-819.2" x2="819.2">
      <stop offset="0.0" stop-color="#ffffff" stop-opacity="0.9019608"/>
      <stop offset="0.12549019607843137" stop-color="#ffffff" stop-opacity="0.5019608"/>
      <stop offset="0.24313725490196078" stop-color="#ffffff" stop-opacity="0.9019608"/>
      <stop offset="0.3803921568627451" stop-color="#ffffff" stop-opacity="0.5019608"/>
      <stop offset="0.47843137254901963" stop-color="#ffffff" stop-opacity="0.9019608"/>
      <stop offset="0.6313725490196078" stop-color="#ffffff" stop-opacity="0.5019608"/>
      <stop offset="0.7568627450980392" stop-color="#ffffff" stop-opacity="0.9019608"/>
      <stop offset="1.0" stop-color="#ffffff" stop-opacity="0.5019608"/>
    </linearGradient>
    <linearGradient gradientTransform="matrix(0.0, -6.0E-4, -9.0E-4, 2.0E-4, 0.95, -46.2)" gradientUnits="userSpaceOnUse" id="gradient7" spreadMethod="pad" x1="-819.2" x2="819.2">
      <stop offset="0.0" stop-color="#ffffff" stop-opacity="0.7019608"/>
      <stop offset="1.0" stop-color="#ffffff" stop-opacity="0.5019608"/>
    </linearGradient>
    <linearGradient gradientTransform="matrix(0.0027, 0.0014, 2.0E-4, -0.0016, -1.2, -45.7)" gradientUnits="userSpaceOnUse" id="gradient8" spreadMethod="pad" x1="-819.2" x2="819.2">
      <stop offset="0.0" stop-color="#ffffff" stop-opacity="0.9019608"/>
      <stop offset="0.12549019607843137" stop-color="#ffffff" stop-opacity="0.5019608"/>
      <stop offset="0.24313725490196078" stop-color="#ffffff" stop-opacity="0.9019608"/>
      <stop offset="0.3803921568627451" stop-color="#ffffff" stop-opacity="0.5019608"/>
      <stop offset="0.47843137254901963" stop-color="#ffffff" stop-opacity="0.9019608"/>
      <stop offset="0.6313725490196078" stop-color="#ffffff" stop-opacity="0.5019608"/>
      <stop offset="0.7568627450980392" stop-color="#ffffff" stop-opacity="0.9019608"/>
      <stop offset="1.0" stop-color="#ffffff" stop-opacity="0.5019608"/>
    </linearGradient>
  </defs>
</svg>
