<svg height="182" width="160" xmlns:xlink="http://www.w3.org/1999/xlink" xmlns="http://www.w3.org/2000/svg"><defs><path d="M10.25-2.6H.75l-1.1-1" fill="none" stroke="#333" stroke-linecap="round" stroke-linejoin="round" transform="translate(.85 4.1)" id="b"/><path d="m2-1.7-2 2 1.85 1.8M0 .3V.25v2.5M0 .3l-1.85 1.8M-2-1.7 0 .25V-2.7" fill="none" stroke="#fea5c0" stroke-linecap="round" stroke-linejoin="round" transform="translate(2.5 3.2)" id="a"/><use height="6.45" width="5" xlink:href="#a" id="c"/><g id="d" transform="translate(11.45 4.1)"><use height="2" transform="translate(-.85 -4.1)" width="11.6" xlink:href="#b"/><use height="6.45" transform="translate(-11.45 -3.8)" width="5" xlink:href="#c"/></g></defs><g transform="matrix(2 0 0 2 79.741 142)"><path d="m4.1-60 1.2.55 3.85-8.6 3.9 8.6L14.3-60l3.15 3.05 1.1 1.1-.35.4.1.1c1.4 1.367 2.167 2.883 2.3 4.55l.05.6c0 1.1-.267 2.133-.8 3.1l-.25.45-1.4 1.7.1.1-.3.3-3.25.9v4.7l-3.25.7-3.15.9.65 1.6L12.35-37l3-.6c1.033 0 1.75.2 2.15.6.533.533.8 1.2.8 2 0 .733-.25 1.35-.75 1.85-.7.7-2.067 1.117-4.1 1.25l-1.25.05.35 1.5 1.5-.05-.05 2.75-1.5 1.25v12.25l-.85 4.6H10.1V-3c0 .467-.15.85-.45 1.15-.367.367-.9.55-1.6.55-.733 0-1.283-.183-1.65-.55C6.133-2.15 6-2.533 6-3v-6.55H4.45l-.9-1.3c.333-.6.5-1.35.5-2.25v-.25c-.033-1.133-.333-1.983-.9-2.55-.533-.533-1.217-.8-2.05-.8h-6.6v1.55h6.55c.467 0 .85.133 1.15.4.333.333.517.85.55 1.55l-.15.9h.05l-.05.25-.4.55c-.3.3-.683.45-1.15.45H-5.5v1.5l-1.8.05v-.05h-1.55l-1.7-1.1-1.75-3.9v-3.9l.45-.4.2-.15 1.15-1.4-1.25-1-.7.95.4-10.95 1.75-12.8.4.35.75-.7-1-1.1c-.967-1.233-1.467-2.567-1.5-4v-.25l.05-.9c.233-1.533 1.05-2.95 2.45-4.25l-.75-.75.5-3.95.65.3 3.85-8.6 3.85 8.6L.2-60h3.9m1.2 22.05C4.6-38.65 3.517-39 2.05-39l-4 .75-3.1.9.65 1.6L-1.1-37c1.133-.4 2.133-.6 3-.6 1.033 0 1.75.2 2.15.6.533.533.8 1.2.8 2 0 .733-.25 1.35-.75 1.85-.7.7-2.05 1.117-4.05 1.25l-1.3.05.35 1.5c2.633-.033 4.6-.55 5.9-1.55l.4-.35c.667-.667 1-1.617 1-2.85 0-1.2-.367-2.15-1.1-2.85" fill="#fff" fill-rule="evenodd"/><path d="m14.3-60-1.25.55-3.9-8.6-3.85 8.6L4.1-60l5.05-11 5.15 11M.2-60l-1.25.55-3.85-8.6-3.85 8.6-.65-.3-.55-.25 5.05-11L.2-60m-10.1 4.2.75.75c-1.4 1.3-2.217 2.717-2.45 4.25l-.05.9v.25c.033 1.433.533 2.767 1.5 4l1 1.1-.75.7-.4-.35-.6-.7-.75-1.05a6.777 6.777 0 0 1-1.05-3.85l.05-1c.133-1 .467-1.95 1-2.85l1.75-2.15m-2.55 35.35.7-.95 1.25 1-1.15 1.4-.2.15-.45.4c-.467.3-1 .45-1.6.45-.633 0-1.517-.367-2.65-1.1-.8-.433-1.433-.65-1.9-.65-.6 0-1.033.183-1.3.55l-.15.2-.45.75-1.35-.75a4.482 4.482 0 0 1 1.2-1.65l.6-.45 1.35-.35c.733 0 1.483.267 2.25.8 1.1.567 1.95.85 2.55.85.4 0 .833-.217 1.3-.65m6.95 10.9v-1.5h6.55c.467 0 .85-.15 1.15-.45l.4-.55.05-.25.1-.8v-.1c-.033-.7-.217-1.217-.55-1.55-.3-.267-.683-.4-1.15-.4H-5.5v-1.55h6.6c.833 0 1.517.267 2.05.8.567.567.867 1.417.9 2.55v.25c0 .9-.167 1.65-.5 2.25l-.05.1-.35.4c-.5.533-1.15.8-1.95.8h-6.7m9.95 0H6V-3c0 .467.133.85.4 1.15.367.367.917.55 1.65.55.7 0 1.233-.183 1.6-.55.3-.3.45-.683.45-1.15v-6.55h1.55v6.6c0 .833-.267 1.517-.8 2.05-.633.6-1.567.9-2.8.9-1.267 0-2.2-.3-2.8-.9-.533-.533-.8-1.217-.8-2.05v-6.6m9.6-20.85-1.5.05-.35-1.5 1.25-.05c2.033-.133 3.4-.55 4.1-1.25.5-.5.75-1.117.75-1.85 0-.8-.267-1.467-.8-2-.4-.4-1.117-.6-2.15-.6l-3 .6L9-35.75l-.65-1.6 3.15-.9 3.25-.7.75-.05c1.467 0 2.55.35 3.25 1.05.733.7 1.1 1.65 1.1 2.85 0 1.233-.333 2.183-1 2.85l-.4.35c-1.067.8-2.533 1.3-4.4 1.5m4.25-14.45-.1-.1 1.4-1.7.25-.45c.533-.967.8-2 .8-3.1l-.05-.6c-.133-1.667-.9-3.183-2.3-4.55l-.1-.1.35-.4h.05l.3-.35c1.7 1.567 2.617 3.367 2.75 5.4l.05.6c0 1.267-.3 2.45-.9 3.55-.467.833-1.1 1.633-1.9 2.4l-.6-.6m-13 6.9c.733.7 1.1 1.65 1.1 2.85 0 1.233-.333 2.183-1 2.85l-.4.35c-1.3 1-3.267 1.517-5.9 1.55l-.35-1.5 1.3-.05c2-.133 3.35-.55 4.05-1.25.5-.5.75-1.117.75-1.85 0-.8-.267-1.467-.8-2-.4-.4-1.117-.6-2.15-.6-.867 0-1.867.2-3 .6l-3.3 1.25-.65-1.6 3.1-.9 4-.75c1.467 0 2.55.35 3.25 1.05" fill="#333" fill-rule="evenodd"/><path d="m18.55-55.85-1.1-1.1 1.15 1.1h-.05" fill="red" fill-rule="evenodd"/><path d="M4.1-60H.2m12.3 45.85V-26.4m6.05-29.45-1.1-1.1" fill="none" stroke="#333" stroke-linecap="round" stroke-linejoin="round"/><use height="6.75" transform="matrix(1.0012 0 0 1 -9.063 -52.5)" width="22.2" xlink:href="#d"/></g><g fill-rule="evenodd"><path d="M87.541 56.6q-1.6.3-2.9 1.2v-.1q1.2-1 2.9-1.1" fill="#0ccb01"/><path d="M67.841 66v-.1l.1-.6.9-.6.9-.8 1.1-.4.7-.3.2-.8-.3-.6-.8-.3q-1.4.1-2.3 1l-.2.1-.5.5-.1.1-.3.3h-.1q-1.8.6-1.1 2.4l.5.5.3.1-3.3 2.6-.1.1h.1q-2.3 2-3.7 6.5l-4.5 13.5q-1.3 4.1-3.6 4.7-2.5.4-6.2-2.7l-.5-.5-.4-.2-.3-.5-3.4-4.4v-.1q-3-5.4-2.1-12.8 1.2-11.7 8.8-16.7 7.2-5 12.3-1l-.1-.1.7.6.4.1.3.4q4.1 3.1 9.6 3.9l12.3-.5q-.6.9-.6 2 0 2.1 2.1 3.5h-.1l-5.2 1.1-3.5.7-.2-3.3-.2-.6-.6-.3-.6.1-6.4 3.4m17.9-6.5v-.1l3.2-.9 2.7.7.2.1.3.1.1.1 1.1 1.7v.2q0 1.1-1.1 1.9l-.6.4-.7.3-.8.3.1-.1-1.3.1q-1 0-2.1-.7l-.5-.2-.4.1-.1-.1-.1-.1q-1.2-.8-1.2-1.9 0-.9.8-1.5l.2-.2.2-.2m9.6 2.4 5-1.1 5-1.3.2-.1.6-.1 4.4-.1v.1q-.2.3.2.9l.1.2v.5l-.1.1q-.4 2.5-1.7 3.2h.1l-.8.2v-.1l-.8.2h-2l-5.3-.2-.8.4-.2.3-.5 1.2-.1.3-.6 3.9q-2.1-3.7-4.4-5.7 1.5-1.2 1.7-2.8m10.2-.7-.6.5-.2.7.5.7q.6.4 1.9.9l.7-.1.6-.5-.1-.8-.5-.5-1.5-.7-.8-.2m-49-.7.8.1.6-.5q.2-.4.1-.7l-.5-.6-5.3-.2q-3.4 1.4-5.3 4.8v.1q-2 3.9 1.3 6.9l4.3 2.6-.1-.1 3.2.4.5-.1.3-.3q2-2.9 2.2-5.6v-.1l.1-.5-.1-.5-1.4-1.8-1.3-1.4-.6-.3-1.7-.2-.6.2-1.1.9-.6.9-.1.5.2.5.5.8.7.4.7-.2.4-.6-.2-.8-.1-.2.1-.1.3-.2 1 .1.9 1 .9 1.2v.3q-.2 2-1.5 4.1l-1.9-.2q-2.1-.8-3.7-2.2-2.2-1.9-.8-4.5 1.5-2.8 4.3-4l3.5.1m-5.2 17.4q-3.2-1.8-6 .9l-.2.3-.1.4.1 2.3.3.7.7.3.7-.3.3-.7-.1-1.9 3.4-.2h.1l1.2.7.1.1 1.2.9q-.5 2.4-1.8 4.1l-3.3 1.7q-3.2-.6-4.3-3.6l-1.7-6.3-.4-.6-.8-.2-.6.5-.2.7 1.8 6.6q1.6 4.2 6.2 4.9l.6-.1 3.8-1.9.3-.2q2-2.4 2.4-5.9v-.4l-.3-.4-1.8-1.5q-.8-.5-1.5-.8l-.1-.1" fill="#12a001"/><path d="M63.541 69.2h-.1l.1-.1v.1m49.2-7.8v-.1.1"/><path d="m67.841 66 6.4-3.4.6-.1.6.3.2.6.2 3.3 3.5-.7 5.2-1.1h.1q-2.1-1.4-2.1-3.5 0-1.1.6-2l-12.3.5q-5.5-.8-9.6-3.9l-.3-.4-.4-.1-.7-.6.1.1q-5.1-4-12.3 1-7.6 5-8.8 16.7-.9 7.4 2.1 12.8v.1l3.4 4.4.3.5.4.2.5.5q3.7 3.1 6.2 2.7 2.3-.6 3.6-4.7l4.5-13.5q1.4-4.5 3.7-6.5v-.1l3.3-2.6h.5l.5-.5m19.7-9.4 1.4-.1 3.5.9.9.4q1.3.9 1.8 2.1l4.7-1 4.8-1.3.6-.2q4.4-2.9 7.7 1.4l.2.7-.3.7v.3l-.1.9q-.7 3.9-3 4.7h-.1l-.8.2h-.1l-.8.2h-1.2l-1.7-.1-.5-.2-3.4-.1-.2.1-.3.7-1.2 6.8-.3.5-.6.3-.6-.1-.4-.5q-2.6-5.7-5.7-8h-.1l-.3.1-.8.2h-.1l-1.6.1-1.9-.3-.9.5-.1.1-6.3 1.4-4.6.9h-.5l-.5-.4-.2-.5-.2-2.9-5.7 3.1-3.2 2.5q-2 1.7-3.1 5.6l-4.5 13.5q-1.8 5.4-5.1 6.1-3.3.7-7.9-3.2l-.1-.1-.5-.5-.2-.4-.5-.3-3.8-4.9q-3.2-6-2.3-14 1.4-12.7 9.7-18.2 8.5-5.9 14.7-.9v.1l.4.3.4.4.4.2q3.7 2.7 8.7 3.5l12.4-.7.8.2.3.3v.1q1.3-.9 2.9-1.2m7.8 5.3q-.2 1.6-1.7 2.8 2.3 2 4.4 5.7l.6-3.9.1-.3.5-1.2.2-.3.8-.4 5.3.2h2l.8-.2v.1l.8-.2h-.1q1.3-.7 1.7-3.2l.1-.1v-.5l-.1-.2q-.4-.6-.2-.9v-.1l-4.4.1-.6.1-.2.1-5 1.3-5 1.1m-9.6-2.4-.2.2-.2.2q-.8.6-.8 1.5 0 1.1 1.2 1.9l.1.1.1.1.4-.1.5.2q1.1.7 2.1.7l1.3-.1-.1.1.8-.3.7-.3.6-.4q1.1-.8 1.1-1.9v-.2l-1.1-1.7-.1-.1-.3-.1-.2-.1-2.7-.7-3.2.9v.1" fill="#167801"/><path d="m66.841 66.5-.3-.1-.5-.5q-.7-1.8 1.1-2.4h.1l.3-.3.1-.1.5-.5.2-.1q.9-.9 2.3-1l.8.3.3.6-.2.8-.7.3-1.1.4-.9.8-.9.6-.1.6v.1l-.5.5h-.5m38.7-5.3.8.2 1.5.7.5.5.1.8-.6.5-.7.1q-1.3-.5-1.9-.9l-.5-.7.2-.7.6-.5m-49-.7-3.5-.1q-2.8 1.2-4.3 4-1.4 2.6.8 4.5 1.6 1.4 3.7 2.2l1.9.2q1.3-2.1 1.5-4.1v-.3l-.9-1.2-.9-1-1-.1-.3.2-.1.1.1.2.2.8-.4.6-.7.2-.7-.4-.5-.8-.2-.5.1-.5.6-.9 1.1-.9.6-.2 1.7.2.6.3 1.3 1.4 1.4 1.8.1.5-.1.5v.1q-.2 2.7-2.2 5.6l-.3.3-.5.1-3.2-.4.1.1-4.3-2.6q-3.3-3-1.3-6.9v-.1q1.9-3.4 5.3-4.8l5.3.2.5.6q.1.3-.1.7l-.6.5-.8-.1m-5.2 17.4.1.1q.7.3 1.5.8l1.8 1.5.3.4v.4q-.4 3.5-2.4 5.9l-.3.2-3.8 1.9-.6.1q-4.6-.7-6.2-4.9l-1.8-6.6.2-.7.6-.5.8.2.4.6 1.7 6.3q1.1 3 4.3 3.6l3.3-1.7q1.3-1.7 1.8-4.1l-1.2-.9-.1-.1-1.2-.7h-.1l-3.4.2.1 1.9-.3.7-.7.3-.7-.3-.3-.7-.1-2.3.1-.4.2-.3q2.8-2.7 6-.9" fill="#bfd3b8"/></g><path d="M1.357 0h.2l.554.1.452.35q.452.45.452 1L2.563 2.6Q2.11 3 1.558 3l-.804-.2-.252-.2-.452-.7v-.15L0 1.45v-.1q.05-.5.502-.9l.252-.2q.251-.2.552-.25h.05m.453.85L1.558.8q-.352-.05-.553.2-.201.15-.201.45v.15l.15.45h.051l.05.05.201.1.302.05.552-.2.151-.6-.05-.3-.1-.15-.05-.05-.151-.1h-.101M18.257 0h.2l.553.1.453.35q.452.45.452 1l-.452 1.15q-.453.4-1.005.4l-.804-.2-.252-.2-.452-.7v-.15l-.05-.3v-.1q.05-.5.502-.9l.252-.2q.251-.2.552-.25h.05m.453.85L18.458.8q-.352-.05-.553.2-.201.15-.201.45v.15l.15.45h.051l.05.05.201.1.302.05.553-.2.15-.6-.05-.3-.1-.15-.05-.05-.151-.1h-.101" style="stroke-width:1.0025" transform="matrix(2.0024 0 0 2 73.743 27)" id="gikopoipoi_eyes_open" fill-rule="evenodd"/><g id="gikopoipoi_eyes_closed" style="display:none" fill="none" stroke="#000" stroke-linecap="round" stroke-linejoin="round"><path d="M107.46 30.1h6.3" stroke-width="3"/><path d="M-.05 1.55H3.1" stroke-width="1.5" style="display:inline" transform="matrix(2 0 0 2 73.719 27)"/></g></svg>