<?xml version="1.0" encoding="iso-8859-1"?>
<!-- Generator: Adobe Illustrator 15.1.0, SVG Export Plug-In . SVG Version: 6.00 Build 0)  -->
<!DOCTYPE svg PUBLIC "-//W3C//DTD SVG 1.1//EN" "http://www.w3.org/Graphics/SVG/1.1/DTD/svg11.dtd">
<svg version="1.1" id="back-standing" xmlns="http://www.w3.org/2000/svg" xmlns:xlink="http://www.w3.org/1999/xlink" x="0px"
	 y="0px" width="160px" height="220px" viewBox="0 0 160 220" style="enable-background:new 0 0 160 220;" xml:space="preserve">
<path style="fill:#FFFFFF;" d="M62.621,159.418l-3.199-4.699l0.199-0.201c-2.398-2.533-3.832-5.299-4.299-8.299l-0.201-2.4
	l0.102-1.9l1.1-3.699h0.199v-1.1l0.301-0.301v-0.1v-2.6h-0.1l-0.102-1.6v-4.102l-0.398-1.299l-0.301-0.9l0.301-0.801l0.5-1l0.5-1.5
	h0.199l1.4-19.299l-1.701-0.1l-0.799-0.102v-0.299l-4.1-5.5h0.398c-3.533-4.135-5.199-8.867-5-14.201
	c-0.199-7.066,3.367-13.6,10.701-19.6c7.332-6.732,16.1-10.434,26.299-11.1c10.135,0.666,18.834,4.367,26.102,11.1
	c7.266,6,10.898,12.533,10.898,19.6c0,5.334-1.732,10.066-5.199,14.201h0.199h-0.1l-5.1,6.1l-0.1-0.199l-1.6,0.1l1.299,19.299h0.301
	l0.5,1.5l0.4,1l0.398,0.801l-0.299,0.9l-0.6,1.5l-0.4,0.699c-0.801,0.734-1.533,1.234-2.201,1.5l-0.299,0.201h-1
	c-2.133,0.398-3.533,0-4.201-1.201c-1.533-0.6-2.166-1.867-1.898-3.799l0.799-2.801v-0.1l0.301-0.1l-0.9-12.9l-2.699,0.199
	l0.898,12.6l-1,4c0.334,2.201,1.201,3.801,2.602,4.801c-0.334,0.467-0.234,0.566,0.299,0.301c1.467,1.799,3.5,2.365,6.1,1.699
	l0.5,0.1h0.4l-0.1,0.9h-0.1l-0.701,8.4l-2.1,8.199l-3.299,8v0.1h-2.301v10.4c-0.066,1.801-0.6,3.301-1.6,4.5c-0.867,1-2,1.5-3.4,1.5
	c-1.334,0-2.467-0.5-3.4-1.5c-1.066-1.199-1.6-2.699-1.6-4.5v-10.4h-2.301h-0.299v-2.4h-0.6v-0.299l-1.801-3.1h-4.9l-3.1,3.398v2.4
	h-0.1h-2.301v10.4c-0.066,1.801-0.6,3.301-1.6,4.5c-0.934,1-2.066,1.5-3.4,1.5c-1.332,0-2.5-0.5-3.5-1.5c-1-1.199-1.5-2.699-1.5-4.5
	v-10.4H62.621 M63.521,123.818l-0.1-0.1v0.1H63.521 M56.121,136.918l-0.1-0.199L56.121,136.918"/>
<g>
	<path style="fill:#FFFFFF;" d="M62.621,159.418l-3.199-4.699l0.199-0.201c-2.398-2.533-3.832-5.299-4.299-8.299l-0.201-2.4
		l0.102-1.9l1.1-3.699h0.199v-1.1l0.301-0.301v-0.1v-2.6h-0.1l-0.102-1.6v-4.102l-0.398-1.299l-0.301-0.9l0.301-0.801l0.5-1l0.5-1.5
		h0.199l1.4-19.299l-1.701-0.1l-0.799-0.102v-0.299l-4.1-5.5h0.398c-3.533-4.135-5.199-8.867-5-14.201
		c-0.199-7.066,3.367-13.6,10.701-19.6c7.332-6.732,16.1-10.434,26.299-11.1c10.135,0.666,18.834,4.367,26.102,11.1
		c7.266,6,10.898,12.533,10.898,19.6c0,5.334-1.732,10.066-5.199,14.201h0.199h-0.1l-5.1,6.1l-0.1-0.199l-1.6,0.1l1.299,19.299
		h0.301l0.5,1.5l0.4,1l0.398,0.801l-0.299,0.9l-0.6,1.5l-0.4,0.699c-0.801,0.734-1.533,1.234-2.201,1.5l-0.299,0.201h-1
		c-2.133,0.398-3.533,0-4.201-1.201c-1.533-0.6-2.166-1.867-1.898-3.799l0.799-2.801v-0.1l0.301-0.1l-0.9-12.9l-2.699,0.199
		l0.898,12.6l-1,4c0.334,2.201,1.201,3.801,2.602,4.801c-0.334,0.467-0.234,0.566,0.299,0.301c1.467,1.799,3.5,2.365,6.1,1.699
		l0.5,0.1h0.4l-0.1,0.9h-0.1l-0.701,8.4l-2.1,8.199l-3.299,8v0.1h-2.301v10.4c-0.066,1.801-0.6,3.301-1.6,4.5
		c-0.867,1-2,1.5-3.4,1.5c-1.334,0-2.467-0.5-3.4-1.5c-1.066-1.199-1.6-2.699-1.6-4.5v-10.4h-2.301h-0.299v-2.4h-0.6v-0.299
		l-1.801-3.1h-4.9l-3.1,3.398v2.4h-0.1h-2.301v10.4c-0.066,1.801-0.6,3.301-1.6,4.5c-0.934,1-2.066,1.5-3.4,1.5
		c-1.332,0-2.5-0.5-3.5-1.5c-1-1.199-1.5-2.699-1.5-4.5v-10.4H62.621 M63.521,123.818l-0.1-0.1v0.1H63.521 M56.121,136.918
		l-0.1-0.199L56.121,136.918"/>
</g>
<path style="fill:#010202;" d="M90.422,159.418v10.4c0,1.801,0.533,3.301,1.6,4.5c0.934,1,2.066,1.5,3.4,1.5
	c1.4,0,2.533-0.5,3.4-1.5c1-1.199,1.533-2.699,1.6-4.5v-10.4h2.301v10.4c0,2.6-0.668,4.666-2,6.199
	c-1.467,1.668-3.234,2.5-5.301,2.5c-2,0-3.768-0.832-5.301-2.5c-1.398-1.533-2.066-3.6-2-6.199v-10.4H90.422"/>
<g>
	<path style="fill:#010202;" d="M90.422,159.418v10.4c0,1.801,0.533,3.301,1.6,4.5c0.934,1,2.066,1.5,3.4,1.5
		c1.4,0,2.533-0.5,3.4-1.5c1-1.199,1.533-2.699,1.6-4.5v-10.4h2.301v10.4c0,2.6-0.668,4.666-2,6.199
		c-1.467,1.668-3.234,2.5-5.301,2.5c-2,0-3.768-0.832-5.301-2.5c-1.398-1.533-2.066-3.6-2-6.199v-10.4H90.422"/>
</g>
<path style="fill:#010202;" d="M65.021,159.418v10.4c0,1.801,0.5,3.301,1.5,4.5c1,1,2.168,1.5,3.5,1.5c1.334,0,2.467-0.5,3.4-1.5
	c1-1.199,1.533-2.699,1.6-4.5v-10.4h2.301v10.4c0,2.6-0.701,4.666-2.1,6.199c-1.467,1.668-3.201,2.5-5.201,2.5
	s-3.766-0.832-5.299-2.5c-1.4-1.533-2.102-3.6-2.102-6.199v-10.4H65.021"/>
<g>
	<path style="fill:#010202;" d="M65.021,159.418v10.4c0,1.801,0.5,3.301,1.5,4.5c1,1,2.168,1.5,3.5,1.5c1.334,0,2.467-0.5,3.4-1.5
		c1-1.199,1.533-2.699,1.6-4.5v-10.4h2.301v10.4c0,2.6-0.701,4.666-2.1,6.199c-1.467,1.668-3.201,2.5-5.201,2.5
		s-3.766-0.832-5.299-2.5c-1.4-1.533-2.102-3.6-2.102-6.199v-10.4H65.021"/>
</g>
<path style="fill:#010202;" d="M58.822,103.619l-1.4,19.299h-0.199l-0.5,1.5l-0.5,1l-0.301,0.801l0.301,0.9l0.398,1.299v4.102
	l-0.898-0.801l-0.4-0.5l-0.4-0.199l-0.4-0.4c-1.199-1.135-1.566-2.768-1.1-4.9c0.199-0.066,0.301-0.268,0.301-0.6l1.1-2.201
	l0.1-0.199h-0.199l-0.102-0.699h0.102l0.398-5.301v-0.199l0.102,0.1l0.199-3.9l1.699-9.199L58.822,103.619"/>
<g>
	<path style="fill:#010202;" d="M58.822,103.619l-1.4,19.299h-0.199l-0.5,1.5l-0.5,1l-0.301,0.801l0.301,0.9l0.398,1.299v4.102
		l-0.898-0.801l-0.4-0.5l-0.4-0.199l-0.4-0.4c-1.199-1.135-1.566-2.768-1.1-4.9c0.199-0.066,0.301-0.268,0.301-0.6l1.1-2.201
		l0.1-0.199h-0.199l-0.102-0.699h0.102l0.398-5.301v-0.199l0.102,0.1l0.199-3.9l1.699-9.199L58.822,103.619"/>
</g>
<path d="M109.304,73.778h1.337l4.68,4.1l-1.715,1.018l-3.634-3.285l-3.634,3.285l-1.715-1.018L109.304,73.778z"/>
<g>
	<path d="M109.304,73.778h1.337l4.68,4.1l-1.715,1.018l-3.634-3.285l-3.634,3.285l-1.715-1.018L109.304,73.778z"/>
</g>
<g>
	<g>
		<path d="M109.304,73.778h1.337l4.68,4.1l-1.715,1.018l-3.634-3.285l-3.634,3.285l-1.715-1.018L109.304,73.778z"/>
	</g>
</g>
<path style="fill-rule:evenodd;clip-rule:evenodd;fill:#020303;" d="M85.57,42.64c0.01,5.42-3.43,9.63-6.271,13.091
	C79.9,56.67,80.65,57.47,80.66,59c-0.391,0.07-0.46,0.45-0.82,0.55c-2.029,0.12-2.14-1.97-3.27-3c-2.541-2.319-6.24-2.93-9.271-4.91
	c-0.489-2.27,1.021-3.81,2.729-3c1.611-0.199,0.48-3.149,2.451-3c1.41,0.891-0.201,2.681-0.271,3.82c0.21,0.06,0.53,0.01,0.54,0.271
	c1.24,0.22,1.59,1.319,3,1.369c0.061-0.949,0.23-1.779,1.37-1.64c0.86-0.13,0.2,1.25,0.81,1.36c0.24-0.95,0.41-1.95,1.91-1.63
	c0.84,1.579-1.439,3.31-1.09,4.359c3.029-2.7,3.87-7.59,6.27-10.91c0.16-1.34,0.561-3.12,0-4.359C82.3,36.5,76.05,35.8,72.48,36.64
	c-0.801,3.29-1,7.19-2.451,9.82c-1.459,0.271-2.619,0.84-3.819,1.36C57.24,41.68,46.721,49.14,47.391,59
	c-2.971,3.87-6.19,7.75-6.82,13.37c-1,9.02,4.229,13.37,9,16.36c6.4,4,15.89,3.25,21,7.359c9.64,0.22,13.66-7.13,19.91-11.18
	c6.609,5.62,7.979-5.74,9-10.91c1.299,0.12,2.039-0.32,2.729-0.81c1.021-2.98,1.54-6.46,1.91-10.101
	c2.739-3.37,7.03-6.06,6.81-11.45C110.561,42.31,96.42,41.78,85.57,42.64z"/>
<g>
	<path style="fill-rule:evenodd;clip-rule:evenodd;fill:#020303;" d="M85.57,42.64c0.01,5.42-3.43,9.63-6.271,13.091
		C79.9,56.67,80.65,57.47,80.66,59c-0.391,0.07-0.46,0.45-0.82,0.55c-2.029,0.12-2.14-1.97-3.27-3
		c-2.541-2.319-6.24-2.93-9.271-4.91c-0.489-2.27,1.021-3.81,2.729-3c1.611-0.199,0.48-3.149,2.451-3
		c1.41,0.891-0.201,2.681-0.271,3.82c0.21,0.06,0.53,0.01,0.54,0.271c1.24,0.22,1.59,1.319,3,1.369
		c0.061-0.949,0.23-1.779,1.37-1.64c0.86-0.13,0.2,1.25,0.81,1.36c0.24-0.95,0.41-1.95,1.91-1.63c0.84,1.579-1.439,3.31-1.09,4.359
		c3.029-2.7,3.87-7.59,6.27-10.91c0.16-1.34,0.561-3.12,0-4.359C82.3,36.5,76.05,35.8,72.48,36.64c-0.801,3.29-1,7.19-2.451,9.82
		c-1.459,0.271-2.619,0.84-3.819,1.36C57.24,41.68,46.721,49.14,47.391,59c-2.971,3.87-6.19,7.75-6.82,13.37
		c-1,9.02,4.229,13.37,9,16.36c6.4,4,15.89,3.25,21,7.359c9.64,0.22,13.66-7.13,19.91-11.18c6.609,5.62,7.979-5.74,9-10.91
		c1.299,0.12,2.039-0.32,2.729-0.81c1.021-2.98,1.54-6.46,1.91-10.101c2.739-3.37,7.03-6.06,6.81-11.45
		C110.561,42.31,96.42,41.78,85.57,42.64z"/>
</g>
<path style="fill-rule:evenodd;clip-rule:evenodd;fill:#C3C7C5;" d="M72.75,49.73c-0.84-0.431-1.77-0.771-2.721-1.091
	c1.611-0.199,0.48-3.149,2.451-3c1.41,0.891-0.201,2.681-0.271,3.82C72.42,49.52,72.74,49.47,72.75,49.73z"/>
<g>
	<path style="fill-rule:evenodd;clip-rule:evenodd;fill:#C3C7C5;" d="M72.75,49.73c-0.84-0.431-1.77-0.771-2.721-1.091
		c1.611-0.199,0.48-3.149,2.451-3c1.41,0.891-0.201,2.681-0.271,3.82C72.42,49.52,72.74,49.47,72.75,49.73z"/>
</g>
<path style="fill-rule:evenodd;clip-rule:evenodd;fill:#C3C7C5;" d="M75.752,37.46c0.363,0,0.728,0,1.092,0
	c0.076,3.006,0.3,8.466-2.729,9.272C73.922,43.968,75.348,40.528,75.752,37.46z"/>
<g>
	<path style="fill-rule:evenodd;clip-rule:evenodd;fill:#C3C7C5;" d="M75.752,37.46c0.363,0,0.728,0,1.092,0
		c0.076,3.006,0.3,8.466-2.729,9.272C73.922,43.968,75.348,40.528,75.752,37.46z"/>
</g>
<path style="fill-rule:evenodd;clip-rule:evenodd;fill:#FFFFFF;" d="M80.66,59c-0.391,0.07-0.46,0.45-0.82,0.55
	c-2.029,0.12-2.14-1.97-3.27-3c-2.541-2.319-6.24-2.93-9.271-4.91c-0.489-2.27,1.021-3.81,2.729-3
	c0.951,0.32,1.881,0.66,2.721,1.091c1.24,0.22,1.59,1.319,3,1.369c0.33,1.351,2.9,2.7,3.55,4.631C79.9,56.67,80.65,57.47,80.66,59z"
	/>
<g>
	<path style="fill-rule:evenodd;clip-rule:evenodd;fill:#FFFFFF;" d="M80.66,59c-0.391,0.07-0.46,0.45-0.82,0.55
		c-2.029,0.12-2.14-1.97-3.27-3c-2.541-2.319-6.24-2.93-9.271-4.91c-0.489-2.27,1.021-3.81,2.729-3
		c0.951,0.32,1.881,0.66,2.721,1.091c1.24,0.22,1.59,1.319,3,1.369c0.33,1.351,2.9,2.7,3.55,4.631C79.9,56.67,80.65,57.47,80.66,59z
		"/>
</g>
<path style="fill-rule:evenodd;clip-rule:evenodd;fill:#C3C7C5;" d="M85.57,43c0.01,5-3.43,9.449-6.271,12.91
	c-0.649-1.93-3.22-3.37-3.55-4.721c0.061-0.949,0.23-1.824,1.37-1.685c0.86-0.13,0.2,1.228,0.81,1.338
	c0.24-0.95,0.41-1.961,1.91-1.641c0.84,1.579-1.439,3.483-1.09,4.533C81.779,51.035,82.62,46,85.02,43H85.57z"/>
<g>
	<path style="fill-rule:evenodd;clip-rule:evenodd;fill:#C3C7C5;" d="M85.57,43c0.01,5-3.43,9.449-6.271,12.91
		c-0.649-1.93-3.22-3.37-3.55-4.721c0.061-0.949,0.23-1.824,1.37-1.685c0.86-0.13,0.2,1.228,0.81,1.338
		c0.24-0.95,0.41-1.961,1.91-1.641c0.84,1.579-1.439,3.483-1.09,4.533C81.779,51.035,82.62,46,85.02,43H85.57z"/>
</g>
<path style="fill-rule:evenodd;clip-rule:evenodd;fill:#C3C7C5;" d="M58.57,57.641c-0.848,2.668-0.23,4.546,0.546,6.818
	C55.865,66.104,55.08,56.384,58.57,57.641z"/>
<g>
	<path style="fill-rule:evenodd;clip-rule:evenodd;fill:#C3C7C5;" d="M58.57,57.641c-0.848,2.668-0.23,4.546,0.546,6.818
		C55.865,66.104,55.08,56.384,58.57,57.641z"/>
</g>
<path style="fill-rule:evenodd;clip-rule:evenodd;fill:#C3C7C5;" d="M59.116,74.55c0.343,2.207-1.88,4.094-3,5.999
	c-1.124,1.914-1.55,4.952-3.817,5.728C52.475,81.353,55.475,76.914,59.116,74.55z"/>
<g>
	<path style="fill-rule:evenodd;clip-rule:evenodd;fill:#C3C7C5;" d="M59.116,74.55c0.343,2.207-1.88,4.094-3,5.999
		c-1.124,1.914-1.55,4.952-3.817,5.728C52.475,81.353,55.475,76.914,59.116,74.55z"/>
</g>
<path style="fill-rule:evenodd;clip-rule:evenodd;fill:#C3C7C5;" d="M75.479,92.276c-1.116-0.892-0.071-2.047,0-3.272
	c0.224-3.856-0.999-8.494-0.546-10.909c0.317-0.044,0.486,0.061,0.546,0.272c0.317-0.044,0.485,0.061,0.546,0.273
	C77.063,80.957,78.514,90.601,75.479,92.276z"/>
<g>
	<path style="fill-rule:evenodd;clip-rule:evenodd;fill:#C3C7C5;" d="M75.479,92.276c-1.116-0.892-0.071-2.047,0-3.272
		c0.224-3.856-0.999-8.494-0.546-10.909c0.317-0.044,0.486,0.061,0.546,0.272c0.317-0.044,0.485,0.061,0.546,0.273
		C77.063,80.957,78.514,90.601,75.479,92.276z"/>
</g>
<path style="fill-rule:evenodd;clip-rule:evenodd;fill:#C3C7C5;" d="M70.844,81.913c0.363,0,0.727,0,1.09,0
	c0.686,1.631,1.066,5.884-0.545,6.817C69.796,88.014,70.668,83.502,70.844,81.913z"/>
<g>
	<path style="fill-rule:evenodd;clip-rule:evenodd;fill:#C3C7C5;" d="M70.844,81.913c0.363,0,0.727,0,1.09,0
		c0.686,1.631,1.066,5.884-0.545,6.817C69.796,88.014,70.668,83.502,70.844,81.913z"/>
</g>
<path style="fill-rule:evenodd;clip-rule:evenodd;fill:#C3C7C5;" d="M52.299,81.095c0.116,1.616-0.732,4.26-2.728,4.636
	C49.177,83.922,50.066,81.173,52.299,81.095z"/>
<g>
	<path style="fill-rule:evenodd;clip-rule:evenodd;fill:#C3C7C5;" d="M52.299,81.095c0.116,1.616-0.732,4.26-2.728,4.636
		C49.177,83.922,50.066,81.173,52.299,81.095z"/>
</g>
<path style="fill-rule:evenodd;clip-rule:evenodd;fill:#C3C7C5;" d="M106.842,53.822c-1.244,0.063-0.863-1.499-1.363-2.182
	c-1.584-1.343-3.512-2.178-5.727-2.182c-2.938-0.005-5.204,2.23-7.363,1.909C93.857,45.298,110.291,47.388,106.842,53.822z"/>
<g>
	<path style="fill-rule:evenodd;clip-rule:evenodd;fill:#C3C7C5;" d="M106.842,53.822c-1.244,0.063-0.863-1.499-1.363-2.182
		c-1.584-1.343-3.512-2.178-5.727-2.182c-2.938-0.005-5.204,2.23-7.363,1.909C93.857,45.298,110.291,47.388,106.842,53.822z"/>
</g>
<path style="fill-rule:evenodd;clip-rule:evenodd;fill:#C3C7C5;" d="M58.57,54.368c-1.795,1.659-3.67,3.239-4.363,6
	C50.592,58.915,56.941,51.69,58.57,54.368z"/>
<g>
	<path style="fill-rule:evenodd;clip-rule:evenodd;fill:#C3C7C5;" d="M58.57,54.368c-1.795,1.659-3.67,3.239-4.363,6
		C50.592,58.915,56.941,51.69,58.57,54.368z"/>
</g>
<path style="fill-rule:evenodd;clip-rule:evenodd;fill:#C3C7C5;" d="M47.117,59.822c1.741-0.265,1.591,1.598,2.454,2.728
	c3.095,4.05,11.874,8.994,19.908,6.272c2.44-0.826,6.815-3.463,6.818-7.091c0.001-2.079-1.921-2.586-0.818-4.363
	c0.364,0,0.728,0,1.091,0c2.111,1.983,1.908,6.521,0,9C69.724,75.268,47.746,70.433,47.117,59.822z"/>
<g>
	<path style="fill-rule:evenodd;clip-rule:evenodd;fill:#C3C7C5;" d="M47.117,59.822c1.741-0.265,1.591,1.598,2.454,2.728
		c3.095,4.05,11.874,8.994,19.908,6.272c2.44-0.826,6.815-3.463,6.818-7.091c0.001-2.079-1.921-2.586-0.818-4.363
		c0.364,0,0.728,0,1.091,0c2.111,1.983,1.908,6.521,0,9C69.724,75.268,47.746,70.433,47.117,59.822z"/>
</g>
<g>
	<g>
		<path style="fill-rule:evenodd;clip-rule:evenodd;fill:#020303;" d="M85.57,42.64c0.01,5.42-3.43,9.63-6.271,13.091
			C79.9,56.67,80.65,57.47,80.66,59c-0.391,0.07-0.46,0.45-0.82,0.55c-2.029,0.12-2.14-1.97-3.27-3
			c-2.541-2.319-6.24-2.93-9.271-4.91c-0.489-2.27,1.021-3.81,2.729-3c1.611-0.199,0.48-3.149,2.451-3
			c1.41,0.891-0.201,2.681-0.271,3.82c0.21,0.06,0.53,0.01,0.54,0.271c1.24,0.22,1.59,1.319,3,1.369
			c0.061-0.949,0.23-1.779,1.37-1.64c0.86-0.13,0.2,1.25,0.81,1.36c0.24-0.95,0.41-1.95,1.91-1.63c0.84,1.579-1.439,3.31-1.09,4.359
			c3.029-2.7,3.87-7.59,6.27-10.91c0.16-1.34,0.561-3.12,0-4.359C82.3,36.5,76.05,35.8,72.48,36.64c-0.801,3.29-1,7.19-2.451,9.82
			c-1.459,0.271-2.619,0.84-3.819,1.36C57.24,41.68,46.721,49.14,47.391,59c-2.971,3.87-6.19,7.75-6.82,13.37
			c-1,9.02,4.229,13.37,9,16.36c6.4,4,15.89,3.25,21,7.359c9.64,0.22,13.66-7.13,19.91-11.18c6.609,5.62,7.979-5.74,9-10.91
			c1.299,0.12,2.039-0.32,2.729-0.81c1.021-2.98,1.54-6.46,1.91-10.101c2.739-3.37,7.03-6.06,6.81-11.45
			C110.561,42.31,96.42,41.78,85.57,42.64z"/>
	</g>
	<g>
		<path style="fill-rule:evenodd;clip-rule:evenodd;fill:#C3C7C5;" d="M72.75,49.73c-0.84-0.431-1.77-0.771-2.721-1.091
			c1.611-0.199,0.48-3.149,2.451-3c1.41,0.891-0.201,2.681-0.271,3.82C72.42,49.52,72.74,49.47,72.75,49.73z"/>
	</g>
	<g>
		<path style="fill-rule:evenodd;clip-rule:evenodd;fill:#C3C7C5;" d="M75.752,37.46c0.363,0,0.728,0,1.092,0
			c0.076,3.006,0.3,8.466-2.729,9.272C73.922,43.968,75.348,40.528,75.752,37.46z"/>
	</g>
	<g>
		<path style="fill-rule:evenodd;clip-rule:evenodd;fill:#FFFFFF;" d="M80.66,59c-0.391,0.07-0.46,0.45-0.82,0.55
			c-2.029,0.12-2.14-1.97-3.27-3c-2.541-2.319-6.24-2.93-9.271-4.91c-0.489-2.27,1.021-3.81,2.729-3
			c0.951,0.32,1.881,0.66,2.721,1.091c1.24,0.22,1.59,1.319,3,1.369c0.33,1.351,2.9,2.7,3.55,4.631C79.9,56.67,80.65,57.47,80.66,59
			z"/>
	</g>
	<g>
		<path style="fill-rule:evenodd;clip-rule:evenodd;fill:#C3C7C5;" d="M85.57,43c0.01,5-3.43,9.449-6.271,12.91
			c-0.649-1.93-3.22-3.37-3.55-4.721c0.061-0.949,0.23-1.824,1.37-1.685c0.86-0.13,0.2,1.228,0.81,1.338
			c0.24-0.95,0.41-1.961,1.91-1.641c0.84,1.579-1.439,3.483-1.09,4.533C81.779,51.035,82.62,46,85.02,43H85.57z"/>
	</g>
	<g>
		<path style="fill-rule:evenodd;clip-rule:evenodd;fill:#C3C7C5;" d="M58.57,57.641c-0.848,2.668-0.23,4.546,0.546,6.818
			C55.865,66.104,55.08,56.384,58.57,57.641z"/>
	</g>
	<g>
		<path style="fill-rule:evenodd;clip-rule:evenodd;fill:#C3C7C5;" d="M59.116,74.55c0.343,2.207-1.88,4.094-3,5.999
			c-1.124,1.914-1.55,4.952-3.817,5.728C52.475,81.353,55.475,76.914,59.116,74.55z"/>
	</g>
	<g>
		<path style="fill-rule:evenodd;clip-rule:evenodd;fill:#C3C7C5;" d="M75.479,92.276c-1.116-0.892-0.071-2.047,0-3.272
			c0.224-3.856-0.999-8.494-0.546-10.909c0.317-0.044,0.486,0.061,0.546,0.272c0.317-0.044,0.485,0.061,0.546,0.273
			C77.063,80.957,78.514,90.601,75.479,92.276z"/>
	</g>
	<g>
		<path style="fill-rule:evenodd;clip-rule:evenodd;fill:#C3C7C5;" d="M70.844,81.913c0.363,0,0.727,0,1.09,0
			c0.686,1.631,1.066,5.884-0.545,6.817C69.796,88.014,70.668,83.502,70.844,81.913z"/>
	</g>
	<g>
		<path style="fill-rule:evenodd;clip-rule:evenodd;fill:#C3C7C5;" d="M52.299,81.095c0.116,1.616-0.732,4.26-2.728,4.636
			C49.177,83.922,50.066,81.173,52.299,81.095z"/>
	</g>
	<g>
		<path style="fill-rule:evenodd;clip-rule:evenodd;fill:#C3C7C5;" d="M106.842,53.822c-1.244,0.063-0.863-1.499-1.363-2.182
			c-1.584-1.343-3.512-2.178-5.727-2.182c-2.938-0.005-5.204,2.23-7.363,1.909C93.857,45.298,110.291,47.388,106.842,53.822z"/>
	</g>
	<g>
		<path style="fill-rule:evenodd;clip-rule:evenodd;fill:#C3C7C5;" d="M58.57,54.368c-1.795,1.659-3.67,3.239-4.363,6
			C50.592,58.915,56.941,51.69,58.57,54.368z"/>
	</g>
	<g>
		<path style="fill-rule:evenodd;clip-rule:evenodd;fill:#C3C7C5;" d="M47.117,59.822c1.741-0.265,1.591,1.598,2.454,2.728
			c3.095,4.05,11.874,8.994,19.908,6.272c2.44-0.826,6.815-3.463,6.818-7.091c0.001-2.079-1.921-2.586-0.818-4.363
			c0.364,0,0.728,0,1.091,0c2.111,1.983,1.908,6.521,0,9C69.724,75.268,47.746,70.433,47.117,59.822z"/>
	</g>
</g>
<path style="fill-rule:evenodd;clip-rule:evenodd;fill:#F28E1B;" d="M110.874,134.886c-0.092,3.637-0.615,5.373-1.031,8.685
	c-8.145-3.091-42.954-4.256-54.271-2.454c-0.009-4.98,0.641-6.359,0-9.774C63.139,122.781,104.453,129.792,110.874,134.886z"/>
<g>
	<path style="fill-rule:evenodd;clip-rule:evenodd;fill:#F28E1B;" d="M110.874,134.886c-0.092,3.637-0.615,5.373-1.031,8.685
		c-8.145-3.091-42.954-4.256-54.271-2.454c-0.009-4.98,0.641-6.359,0-9.774C63.139,122.781,104.453,129.792,110.874,134.886z"/>
</g>
<path style="fill:#BE6F26;" d="M109.843,144.57c-0.12,0-0.24-0.021-0.354-0.065c-5.347-2.028-23.195-3.241-37.362-3.241
	c-7.171,0-12.994,0.299-16.396,0.84c-0.289,0.049-0.582-0.037-0.806-0.226c-0.223-0.19-0.351-0.468-0.352-0.76
	c-0.004-1.967,0.096-3.409,0.176-4.568c0.126-1.842,0.21-3.059-0.158-5.023c-0.058-0.304,0.029-0.616,0.233-0.847
	c2.555-2.891,8.426-4.356,17.45-4.356c14.296,0,34.456,3.998,39.222,7.779c0.246,0.195,0.387,0.494,0.379,0.809
	c-0.063,2.508-0.333,4.175-0.618,5.939c-0.139,0.861-0.286,1.769-0.421,2.845c-0.038,0.304-0.214,0.574-0.477,0.731
	C110.2,144.522,110.022,144.57,109.843,144.57z M72.126,139.264c13.291,0,30.112,1.043,36.888,2.984
	c0.089-0.61,0.18-1.172,0.268-1.717c0.265-1.636,0.496-3.065,0.576-5.147c-4.769-3.162-23.226-7.061-37.584-7.061
	c-7.799,0-13.31,1.186-15.629,3.35c0.311,1.936,0.216,3.311,0.099,5.014c-0.064,0.932-0.135,1.96-0.161,3.276
	C60.163,139.511,65.606,139.264,72.126,139.264z"/>
<g>
	<path style="fill:#BE6F26;" d="M109.843,144.57c-0.12,0-0.24-0.021-0.354-0.065c-5.347-2.028-23.195-3.241-37.362-3.241
		c-7.171,0-12.994,0.299-16.396,0.84c-0.289,0.049-0.582-0.037-0.806-0.226c-0.223-0.19-0.351-0.468-0.352-0.76
		c-0.004-1.967,0.096-3.409,0.176-4.568c0.126-1.842,0.21-3.059-0.158-5.023c-0.058-0.304,0.029-0.616,0.233-0.847
		c2.555-2.891,8.426-4.356,17.45-4.356c14.296,0,34.456,3.998,39.222,7.779c0.246,0.195,0.387,0.494,0.379,0.809
		c-0.063,2.508-0.333,4.175-0.618,5.939c-0.139,0.861-0.286,1.769-0.421,2.845c-0.038,0.304-0.214,0.574-0.477,0.731
		C110.2,144.522,110.022,144.57,109.843,144.57z M72.126,139.264c13.291,0,30.112,1.043,36.888,2.984
		c0.089-0.61,0.18-1.172,0.268-1.717c0.265-1.636,0.496-3.065,0.576-5.147c-4.769-3.162-23.226-7.061-37.584-7.061
		c-7.799,0-13.31,1.186-15.629,3.35c0.311,1.936,0.216,3.311,0.099,5.014c-0.064,0.932-0.135,1.96-0.161,3.276
		C60.163,139.511,65.606,139.264,72.126,139.264z"/>
</g>
<g>
	<g>
		<path style="fill-rule:evenodd;clip-rule:evenodd;fill:#F28E1B;" d="M110.874,134.886c-0.092,3.637-0.615,5.373-1.031,8.685
			c-8.145-3.091-42.954-4.256-54.271-2.454c-0.009-4.98,0.641-6.359,0-9.774C63.139,122.781,104.453,129.792,110.874,134.886z"/>
	</g>
	<g>
		<path style="fill:#BE6F26;" d="M109.843,144.57c-0.12,0-0.24-0.021-0.354-0.065c-5.347-2.028-23.195-3.241-37.362-3.241
			c-7.171,0-12.994,0.299-16.396,0.84c-0.289,0.049-0.582-0.037-0.806-0.226c-0.223-0.19-0.351-0.468-0.352-0.76
			c-0.004-1.967,0.096-3.409,0.176-4.568c0.126-1.842,0.21-3.059-0.158-5.023c-0.058-0.304,0.029-0.616,0.233-0.847
			c2.555-2.891,8.426-4.356,17.45-4.356c14.296,0,34.456,3.998,39.222,7.779c0.246,0.195,0.387,0.494,0.379,0.809
			c-0.063,2.508-0.333,4.175-0.618,5.939c-0.139,0.861-0.286,1.769-0.421,2.845c-0.038,0.304-0.214,0.574-0.477,0.731
			C110.2,144.522,110.022,144.57,109.843,144.57z M72.126,139.264c13.291,0,30.112,1.043,36.888,2.984
			c0.089-0.61,0.18-1.172,0.268-1.717c0.265-1.636,0.496-3.065,0.576-5.147c-4.769-3.162-23.226-7.061-37.584-7.061
			c-7.799,0-13.31,1.186-15.629,3.35c0.311,1.936,0.216,3.311,0.099,5.014c-0.064,0.932-0.135,1.96-0.161,3.276
			C60.163,139.511,65.606,139.264,72.126,139.264z"/>
	</g>
</g>
<path style="fill-rule:evenodd;clip-rule:evenodd;fill:#F28E1B;" d="M73.299,141.843c-0.32,0-0.623-0.154-0.813-0.416
	c-0.199-0.277-0.244-0.638-0.117-0.955c1.254-3.142-0.605-6.073-2.402-8.908c-0.742-1.17-1.443-2.275-1.945-3.404
	c-0.176-0.396-0.078-0.858,0.243-1.148c1.103-0.996,2.827-1.078,4.647-1.078l0.932,0.002c0.41,0,0.777,0.249,0.93,0.63
	c0.344,0.863,1.014,1.993,1.723,3.189c1.9,3.209,4.056,6.846,2.648,9.487c-0.84,1.576-2.734,2.427-5.789,2.6
	C73.336,141.842,73.316,141.843,73.299,141.843z"/>
<g>
	<path style="fill-rule:evenodd;clip-rule:evenodd;fill:#F28E1B;" d="M73.299,141.843c-0.32,0-0.623-0.154-0.813-0.416
		c-0.199-0.277-0.244-0.638-0.117-0.955c1.254-3.142-0.605-6.073-2.402-8.908c-0.742-1.17-1.443-2.275-1.945-3.404
		c-0.176-0.396-0.078-0.858,0.243-1.148c1.103-0.996,2.827-1.078,4.647-1.078l0.932,0.002c0.41,0,0.777,0.249,0.93,0.63
		c0.344,0.863,1.014,1.993,1.723,3.189c1.9,3.209,4.056,6.846,2.648,9.487c-0.84,1.576-2.734,2.427-5.789,2.6
		C73.336,141.842,73.316,141.843,73.299,141.843z"/>
</g>
<g>
	<g>
		<path style="fill-rule:evenodd;clip-rule:evenodd;fill:#F28E1B;" d="M73.299,141.843c-0.32,0-0.623-0.154-0.813-0.416
			c-0.199-0.277-0.244-0.638-0.117-0.955c1.254-3.142-0.605-6.073-2.402-8.908c-0.742-1.17-1.443-2.275-1.945-3.404
			c-0.176-0.396-0.078-0.858,0.243-1.148c1.103-0.996,2.827-1.078,4.647-1.078l0.932,0.002c0.41,0,0.777,0.249,0.93,0.63
			c0.344,0.863,1.014,1.993,1.723,3.189c1.9,3.209,4.056,6.846,2.648,9.487c-0.84,1.576-2.734,2.427-5.789,2.6
			C73.336,141.842,73.316,141.843,73.299,141.843z"/>
	</g>
</g>
<path style="fill:#BE6F26;" d="M72.912,126.933c0.31,0,0.622,0.002,0.932,0.002c1.723,4.321,10.08,13.305-0.545,13.908
	c1.988-4.983-2.643-9.218-4.363-13.09C69.775,126.994,71.313,126.933,72.912,126.933 M72.912,124.933
	c-2.023,0-3.951,0.102-5.318,1.336c-0.641,0.58-0.838,1.507-0.486,2.297c0.531,1.196,1.285,2.385,2.014,3.534
	c1.74,2.743,3.385,5.334,2.32,8.002c-0.254,0.635-0.166,1.354,0.234,1.909c0.377,0.524,0.981,0.832,1.623,0.832
	c0.037,0,0.074-0.001,0.113-0.003c3.434-0.195,5.597-1.219,6.614-3.128c1.673-3.139-0.635-7.032-2.671-10.468
	c-0.688-1.162-1.338-2.26-1.653-3.05c-0.304-0.761-1.039-1.26-1.858-1.26l-0.459-0.001L72.912,124.933L72.912,124.933z"/>
<g>
	<path style="fill:#BE6F26;" d="M72.912,126.933c0.31,0,0.622,0.002,0.932,0.002c1.723,4.321,10.08,13.305-0.545,13.908
		c1.988-4.983-2.643-9.218-4.363-13.09C69.775,126.994,71.313,126.933,72.912,126.933 M72.912,124.933
		c-2.023,0-3.951,0.102-5.318,1.336c-0.641,0.58-0.838,1.507-0.486,2.297c0.531,1.196,1.285,2.385,2.014,3.534
		c1.74,2.743,3.385,5.334,2.32,8.002c-0.254,0.635-0.166,1.354,0.234,1.909c0.377,0.524,0.981,0.832,1.623,0.832
		c0.037,0,0.074-0.001,0.113-0.003c3.434-0.195,5.597-1.219,6.614-3.128c1.673-3.139-0.635-7.032-2.671-10.468
		c-0.688-1.162-1.338-2.26-1.653-3.05c-0.304-0.761-1.039-1.26-1.858-1.26l-0.459-0.001L72.912,124.933L72.912,124.933z"/>
</g>
<g>
	<g>
		<path style="fill:#BE6F26;" d="M72.912,126.933c0.31,0,0.622,0.002,0.932,0.002c1.723,4.321,10.08,13.305-0.545,13.908
			c1.988-4.983-2.643-9.218-4.363-13.09C69.775,126.994,71.313,126.933,72.912,126.933 M72.912,124.933
			c-2.023,0-3.951,0.102-5.318,1.336c-0.641,0.58-0.838,1.507-0.486,2.297c0.531,1.196,1.285,2.385,2.014,3.534
			c1.74,2.743,3.385,5.334,2.32,8.002c-0.254,0.635-0.166,1.354,0.234,1.909c0.377,0.524,0.981,0.832,1.623,0.832
			c0.037,0,0.074-0.001,0.113-0.003c3.434-0.195,5.597-1.219,6.614-3.128c1.673-3.139-0.635-7.032-2.671-10.468
			c-0.688-1.162-1.338-2.26-1.653-3.05c-0.304-0.761-1.039-1.26-1.858-1.26l-0.459-0.001L72.912,124.933L72.912,124.933z"/>
	</g>
</g>
<g>
	<g>
		<g>
			<path style="fill-rule:evenodd;clip-rule:evenodd;fill:#F28E1B;" d="M73.299,141.843c-0.32,0-0.623-0.154-0.813-0.416
				c-0.199-0.277-0.244-0.638-0.117-0.955c1.254-3.142-0.605-6.073-2.402-8.908c-0.742-1.17-1.443-2.275-1.945-3.404
				c-0.176-0.396-0.078-0.858,0.243-1.148c1.103-0.996,2.827-1.078,4.647-1.078l0.932,0.002c0.41,0,0.777,0.249,0.93,0.63
				c0.344,0.863,1.014,1.993,1.723,3.189c1.9,3.209,4.056,6.846,2.648,9.487c-0.84,1.576-2.734,2.427-5.789,2.6
				C73.336,141.842,73.316,141.843,73.299,141.843z"/>
		</g>
	</g>
	<g>
		<g>
			<path style="fill:#BE6F26;" d="M72.912,126.933c0.31,0,0.622,0.002,0.932,0.002c1.723,4.321,10.08,13.305-0.545,13.908
				c1.988-4.983-2.643-9.218-4.363-13.09C69.775,126.994,71.313,126.933,72.912,126.933 M72.912,124.933
				c-2.023,0-3.951,0.102-5.318,1.336c-0.641,0.58-0.838,1.507-0.486,2.297c0.531,1.196,1.285,2.385,2.014,3.534
				c1.74,2.743,3.385,5.334,2.32,8.002c-0.254,0.635-0.166,1.354,0.234,1.909c0.377,0.524,0.981,0.832,1.623,0.832
				c0.037,0,0.074-0.001,0.113-0.003c3.434-0.195,5.597-1.219,6.614-3.128c1.673-3.139-0.635-7.032-2.671-10.468
				c-0.688-1.162-1.338-2.26-1.653-3.05c-0.304-0.761-1.039-1.26-1.858-1.26l-0.459-0.001L72.912,124.933L72.912,124.933z"/>
		</g>
	</g>
</g>
<path style="fill-rule:evenodd;clip-rule:evenodd;fill:#F28E1B;" d="M64.025,132.116c-1.533,1.92-4.592,2.316-6.271,4.091
	c0.247,2.024,1.124,3.421,1.908,4.909c-0.961,0.676-2.519-0.381-4.09,0c-0.049-3.595,0.115-6.976,0.545-10.091
	C57.989,129.807,63.684,128.899,64.025,132.116z"/>
<g>
	<path style="fill-rule:evenodd;clip-rule:evenodd;fill:#F28E1B;" d="M64.025,132.116c-1.533,1.92-4.592,2.316-6.271,4.091
		c0.247,2.024,1.124,3.421,1.908,4.909c-0.961,0.676-2.519-0.381-4.09,0c-0.049-3.595,0.115-6.976,0.545-10.091
		C57.989,129.807,63.684,128.899,64.025,132.116z"/>
</g>
<path style="fill:#BE6F26;" d="M58.823,142.348c-0.431,0-0.866-0.082-1.288-0.162c-0.603-0.114-1.246-0.213-1.728-0.098
	c-0.299,0.075-0.607,0.005-0.849-0.182c-0.24-0.187-0.383-0.473-0.387-0.776c-0.051-3.759,0.136-7.205,0.555-10.241
	c0.039-0.287,0.201-0.543,0.444-0.701c1.158-0.754,3.201-1.28,4.967-1.28c2.6,0,4.275,1.16,4.481,3.104
	c0.028,0.262-0.049,0.523-0.213,0.729c-0.947,1.187-2.299,1.835-3.605,2.462c-0.888,0.426-1.733,0.832-2.379,1.372
	c0.251,1.338,0.818,2.391,1.416,3.498l0.309,0.578c0.234,0.444,0.102,0.994-0.31,1.284
	C59.842,142.213,59.379,142.348,58.823,142.348z M56.564,140.036c0.484,0.022,0.937,0.107,1.342,0.185
	c0.055,0.01,0.108,0.021,0.161,0.03c-0.582-1.122-1.112-2.339-1.306-3.923c-0.036-0.296,0.062-0.592,0.266-0.809
	c0.925-0.977,2.137-1.559,3.309-2.12c0.986-0.474,1.926-0.924,2.592-1.563c-0.351-0.758-1.457-0.93-2.39-0.93
	c-1.282,0-2.667,0.353-3.495,0.747C56.721,134.179,56.561,136.992,56.564,140.036z"/>
<g>
	<path style="fill:#BE6F26;" d="M58.823,142.348c-0.431,0-0.866-0.082-1.288-0.162c-0.603-0.114-1.246-0.213-1.728-0.098
		c-0.299,0.075-0.607,0.005-0.849-0.182c-0.24-0.187-0.383-0.473-0.387-0.776c-0.051-3.759,0.136-7.205,0.555-10.241
		c0.039-0.287,0.201-0.543,0.444-0.701c1.158-0.754,3.201-1.28,4.967-1.28c2.6,0,4.275,1.16,4.481,3.104
		c0.028,0.262-0.049,0.523-0.213,0.729c-0.947,1.187-2.299,1.835-3.605,2.462c-0.888,0.426-1.733,0.832-2.379,1.372
		c0.251,1.338,0.818,2.391,1.416,3.498l0.309,0.578c0.234,0.444,0.102,0.994-0.31,1.284
		C59.842,142.213,59.379,142.348,58.823,142.348z M56.564,140.036c0.484,0.022,0.937,0.107,1.342,0.185
		c0.055,0.01,0.108,0.021,0.161,0.03c-0.582-1.122-1.112-2.339-1.306-3.923c-0.036-0.296,0.062-0.592,0.266-0.809
		c0.925-0.977,2.137-1.559,3.309-2.12c0.986-0.474,1.926-0.924,2.592-1.563c-0.351-0.758-1.457-0.93-2.39-0.93
		c-1.282,0-2.667,0.353-3.495,0.747C56.721,134.179,56.561,136.992,56.564,140.036z"/>
</g>
<g>
	<g>
		<path style="fill-rule:evenodd;clip-rule:evenodd;fill:#F28E1B;" d="M64.025,132.116c-1.533,1.92-4.592,2.316-6.271,4.091
			c0.247,2.024,1.124,3.421,1.908,4.909c-0.961,0.676-2.519-0.381-4.09,0c-0.049-3.595,0.115-6.976,0.545-10.091
			C57.989,129.807,63.684,128.899,64.025,132.116z"/>
	</g>
	<g>
		<path style="fill:#BE6F26;" d="M58.823,142.348c-0.431,0-0.866-0.082-1.288-0.162c-0.603-0.114-1.246-0.213-1.728-0.098
			c-0.299,0.075-0.607,0.005-0.849-0.182c-0.24-0.187-0.383-0.473-0.387-0.776c-0.051-3.759,0.136-7.205,0.555-10.241
			c0.039-0.287,0.201-0.543,0.444-0.701c1.158-0.754,3.201-1.28,4.967-1.28c2.6,0,4.275,1.16,4.481,3.104
			c0.028,0.262-0.049,0.523-0.213,0.729c-0.947,1.187-2.299,1.835-3.605,2.462c-0.888,0.426-1.733,0.832-2.379,1.372
			c0.251,1.338,0.818,2.391,1.416,3.498l0.309,0.578c0.234,0.444,0.102,0.994-0.31,1.284
			C59.842,142.213,59.379,142.348,58.823,142.348z M56.564,140.036c0.484,0.022,0.937,0.107,1.342,0.185
			c0.055,0.01,0.108,0.021,0.161,0.03c-0.582-1.122-1.112-2.339-1.306-3.923c-0.036-0.296,0.062-0.592,0.266-0.809
			c0.925-0.977,2.137-1.559,3.309-2.12c0.986-0.474,1.926-0.924,2.592-1.563c-0.351-0.758-1.457-0.93-2.39-0.93
			c-1.282,0-2.667,0.353-3.495,0.747C56.721,134.179,56.561,136.992,56.564,140.036z"/>
	</g>
</g>
<path style="fill-rule:evenodd;clip-rule:evenodd;fill:#F28E1B;" d="M83.253,153c0.119,1.026-4.269,1.605-4.783,2
	c-5.644-2.174-14.444-3.656-13.081-14.157c-0.012-5.439,6.324-0.985,6.582,0C71.971,150.302,77.974,151.825,83.253,153z"/>
<g>
	<path style="fill-rule:evenodd;clip-rule:evenodd;fill:#F28E1B;" d="M83.253,153c0.119,1.026-4.269,1.605-4.783,2
		c-5.644-2.174-14.444-3.656-13.081-14.157c-0.012-5.439,6.324-0.985,6.582,0C71.971,150.302,77.974,151.825,83.253,153z"/>
</g>
<path style="fill:#BE6F26;" d="M78.513,156.018c-0.129,0-0.262-0.03-0.402-0.084c-0.692-0.268-1.434-0.523-2.197-0.787
	c-5.396-1.866-12.783-4.421-11.524-14.369c0.009-1.252,0.325-2.2,0.942-2.819c0.501-0.502,1.184-0.767,1.976-0.767
	c2.229,0,5.322,2.217,5.632,3.398c0.021,0.082,0.032,0.168,0.032,0.253c0,8.845,5.578,10.086,10.499,11.181
	c0.416,0.093,0.728,0.438,0.776,0.861c0.181,1.555-1.963,2.096-4.035,2.619c-0.446,0.112-1.059,0.267-1.212,0.341
	C78.843,155.965,78.682,156.018,78.513,156.018z M67.307,139.191c-0.341,0-0.482,0.103-0.56,0.18
	c-0.135,0.135-0.36,0.505-0.358,1.47c0,0.044-0.003,0.087-0.009,0.131c-1.088,8.385,4.644,10.367,10.187,12.284
	c0.645,0.223,1.273,0.44,1.872,0.663c0.302-0.104,0.706-0.209,1.283-0.354c0.208-0.053,0.478-0.121,0.766-0.198
	c-4.546-1.233-9.416-3.693-9.515-12.256C70.497,140.544,68.579,139.191,67.307,139.191z"/>
<g>
	<path style="fill:#BE6F26;" d="M78.513,156.018c-0.129,0-0.262-0.03-0.402-0.084c-0.692-0.268-1.434-0.523-2.197-0.787
		c-5.396-1.866-12.783-4.421-11.524-14.369c0.009-1.252,0.325-2.2,0.942-2.819c0.501-0.502,1.184-0.767,1.976-0.767
		c2.229,0,5.322,2.217,5.632,3.398c0.021,0.082,0.032,0.168,0.032,0.253c0,8.845,5.578,10.086,10.499,11.181
		c0.416,0.093,0.728,0.438,0.776,0.861c0.181,1.555-1.963,2.096-4.035,2.619c-0.446,0.112-1.059,0.267-1.212,0.341
		C78.843,155.965,78.682,156.018,78.513,156.018z M67.307,139.191c-0.341,0-0.482,0.103-0.56,0.18
		c-0.135,0.135-0.36,0.505-0.358,1.47c0,0.044-0.003,0.087-0.009,0.131c-1.088,8.385,4.644,10.367,10.187,12.284
		c0.645,0.223,1.273,0.44,1.872,0.663c0.302-0.104,0.706-0.209,1.283-0.354c0.208-0.053,0.478-0.121,0.766-0.198
		c-4.546-1.233-9.416-3.693-9.515-12.256C70.497,140.544,68.579,139.191,67.307,139.191z"/>
</g>
<g>
	<g>
		<path style="fill-rule:evenodd;clip-rule:evenodd;fill:#F28E1B;" d="M83.253,153c0.119,1.026-4.269,1.605-4.783,2
			c-5.644-2.174-14.444-3.656-13.081-14.157c-0.012-5.439,6.324-0.985,6.582,0C71.971,150.302,77.974,151.825,83.253,153z"/>
	</g>
	<g>
		<path style="fill:#BE6F26;" d="M78.513,156.018c-0.129,0-0.262-0.03-0.402-0.084c-0.692-0.268-1.434-0.523-2.197-0.787
			c-5.396-1.866-12.783-4.421-11.524-14.369c0.009-1.252,0.325-2.2,0.942-2.819c0.501-0.502,1.184-0.767,1.976-0.767
			c2.229,0,5.322,2.217,5.632,3.398c0.021,0.082,0.032,0.168,0.032,0.253c0,8.845,5.578,10.086,10.499,11.181
			c0.416,0.093,0.728,0.438,0.776,0.861c0.181,1.555-1.963,2.096-4.035,2.619c-0.446,0.112-1.059,0.267-1.212,0.341
			C78.843,155.965,78.682,156.018,78.513,156.018z M67.307,139.191c-0.341,0-0.482,0.103-0.56,0.18
			c-0.135,0.135-0.36,0.505-0.358,1.47c0,0.044-0.003,0.087-0.009,0.131c-1.088,8.385,4.644,10.367,10.187,12.284
			c0.645,0.223,1.273,0.44,1.872,0.663c0.302-0.104,0.706-0.209,1.283-0.354c0.208-0.053,0.478-0.121,0.766-0.198
			c-4.546-1.233-9.416-3.693-9.515-12.256C70.497,140.544,68.579,139.191,67.307,139.191z"/>
	</g>
</g>
<path style="fill-rule:evenodd;clip-rule:evenodd;fill:#F28E1B;" d="M62.662,144.843c-0.069,0-0.14-0.008-0.209-0.022
	c-0.314-0.067-0.576-0.28-0.705-0.574c-0.178-0.401-0.357-0.8-0.539-1.198c-0.844-1.863-1.718-3.791-2.248-6.069
	c-0.103-0.444,0.107-0.902,0.512-1.113c0.523-0.273,1.014-0.584,1.533-0.912c1.203-0.763,2.448-1.552,4.184-1.907
	c0.066-0.014,0.135-0.021,0.201-0.021c0.402,0,0.775,0.244,0.928,0.631c0.391,0.982,0.938,1.542,1.754,1.782
	c0.059-0.067,0.129-0.22,0.26-0.556c0.229-0.593,0.611-1.586,1.754-1.835c0.07-0.015,0.143-0.022,0.213-0.022
	c0.209,0,0.415,0.065,0.588,0.19c0.23,0.168,0.379,0.425,0.407,0.709c0.063,0.633,0.388,1.087,0.763,1.612
	c0.492,0.69,1.105,1.551,0.859,2.775c-0.417,2.074-3.313,3.31-6.111,4.505c-1.408,0.601-2.864,1.222-3.474,1.77
	C63.146,144.753,62.906,144.843,62.662,144.843z"/>
<g>
	<path style="fill-rule:evenodd;clip-rule:evenodd;fill:#F28E1B;" d="M62.662,144.843c-0.069,0-0.14-0.008-0.209-0.022
		c-0.314-0.067-0.576-0.28-0.705-0.574c-0.178-0.401-0.357-0.8-0.539-1.198c-0.844-1.863-1.718-3.791-2.248-6.069
		c-0.103-0.444,0.107-0.902,0.512-1.113c0.523-0.273,1.014-0.584,1.533-0.912c1.203-0.763,2.448-1.552,4.184-1.907
		c0.066-0.014,0.135-0.021,0.201-0.021c0.402,0,0.775,0.244,0.928,0.631c0.391,0.982,0.938,1.542,1.754,1.782
		c0.059-0.067,0.129-0.22,0.26-0.556c0.229-0.593,0.611-1.586,1.754-1.835c0.07-0.015,0.143-0.022,0.213-0.022
		c0.209,0,0.415,0.065,0.588,0.19c0.23,0.168,0.379,0.425,0.407,0.709c0.063,0.633,0.388,1.087,0.763,1.612
		c0.492,0.69,1.105,1.551,0.859,2.775c-0.417,2.074-3.313,3.31-6.111,4.505c-1.408,0.601-2.864,1.222-3.474,1.77
		C63.146,144.753,62.906,144.843,62.662,144.843z"/>
</g>
<g>
	<g>
		<path style="fill-rule:evenodd;clip-rule:evenodd;fill:#F28E1B;" d="M62.662,144.843c-0.069,0-0.14-0.008-0.209-0.022
			c-0.314-0.067-0.576-0.28-0.705-0.574c-0.178-0.401-0.357-0.8-0.539-1.198c-0.844-1.863-1.718-3.791-2.248-6.069
			c-0.103-0.444,0.107-0.902,0.512-1.113c0.523-0.273,1.014-0.584,1.533-0.912c1.203-0.763,2.448-1.552,4.184-1.907
			c0.066-0.014,0.135-0.021,0.201-0.021c0.402,0,0.775,0.244,0.928,0.631c0.391,0.982,0.938,1.542,1.754,1.782
			c0.059-0.067,0.129-0.22,0.26-0.556c0.229-0.593,0.611-1.586,1.754-1.835c0.07-0.015,0.143-0.022,0.213-0.022
			c0.209,0,0.415,0.065,0.588,0.19c0.23,0.168,0.379,0.425,0.407,0.709c0.063,0.633,0.388,1.087,0.763,1.612
			c0.492,0.69,1.105,1.551,0.859,2.775c-0.417,2.074-3.313,3.31-6.111,4.505c-1.408,0.601-2.864,1.222-3.474,1.77
			C63.146,144.753,62.906,144.843,62.662,144.843z"/>
	</g>
</g>
<path style="fill:#BE6F26;" d="M70.299,134.025c0.191,1.884,1.943,2.563,1.637,4.091c-0.508,2.529-7.365,4.013-9.273,5.727
	c-1.001-2.271-2.109-4.436-2.727-7.091c1.793-0.935,3.191-2.263,5.454-2.727c0.491,1.236,1.295,2.159,2.728,2.454
	C69.488,136.305,69.029,134.302,70.299,134.025 M65.391,132.025c-0.133,0-0.268,0.013-0.402,0.041
	c-1.914,0.392-3.297,1.269-4.518,2.042c-0.5,0.317-0.974,0.616-1.46,0.87c-0.809,0.422-1.229,1.338-1.023,2.227
	c0.552,2.374,1.446,4.348,2.312,6.256c0.179,0.396,0.357,0.79,0.533,1.189c0.26,0.586,0.783,1.013,1.41,1.147
	c0.14,0.03,0.281,0.045,0.42,0.045c0.489,0,0.967-0.18,1.338-0.513c0.485-0.437,1.988-1.078,3.197-1.594
	c3.037-1.296,6.179-2.637,6.699-5.227c0.33-1.65-0.486-2.795-1.025-3.553c-0.348-0.488-0.547-0.781-0.582-1.133
	c-0.059-0.567-0.354-1.083-0.816-1.418c-0.344-0.25-0.756-0.381-1.174-0.381c-0.143,0-0.285,0.015-0.426,0.046
	c-1.299,0.283-1.916,1.199-2.25,1.912c-0.132-0.172-0.256-0.397-0.375-0.696C66.941,132.514,66.195,132.025,65.391,132.025
	L65.391,132.025z"/>
<g>
	<path style="fill:#BE6F26;" d="M70.299,134.025c0.191,1.884,1.943,2.563,1.637,4.091c-0.508,2.529-7.365,4.013-9.273,5.727
		c-1.001-2.271-2.109-4.436-2.727-7.091c1.793-0.935,3.191-2.263,5.454-2.727c0.491,1.236,1.295,2.159,2.728,2.454
		C69.488,136.305,69.029,134.302,70.299,134.025 M65.391,132.025c-0.133,0-0.268,0.013-0.402,0.041
		c-1.914,0.392-3.297,1.269-4.518,2.042c-0.5,0.317-0.974,0.616-1.46,0.87c-0.809,0.422-1.229,1.338-1.023,2.227
		c0.552,2.374,1.446,4.348,2.312,6.256c0.179,0.396,0.357,0.79,0.533,1.189c0.26,0.586,0.783,1.013,1.41,1.147
		c0.14,0.03,0.281,0.045,0.42,0.045c0.489,0,0.967-0.18,1.338-0.513c0.485-0.437,1.988-1.078,3.197-1.594
		c3.037-1.296,6.179-2.637,6.699-5.227c0.33-1.65-0.486-2.795-1.025-3.553c-0.348-0.488-0.547-0.781-0.582-1.133
		c-0.059-0.567-0.354-1.083-0.816-1.418c-0.344-0.25-0.756-0.381-1.174-0.381c-0.143,0-0.285,0.015-0.426,0.046
		c-1.299,0.283-1.916,1.199-2.25,1.912c-0.132-0.172-0.256-0.397-0.375-0.696C66.941,132.514,66.195,132.025,65.391,132.025
		L65.391,132.025z"/>
</g>
<g>
	<g>
		<path style="fill:#BE6F26;" d="M70.299,134.025c0.191,1.884,1.943,2.563,1.637,4.091c-0.508,2.529-7.365,4.013-9.273,5.727
			c-1.001-2.271-2.109-4.436-2.727-7.091c1.793-0.935,3.191-2.263,5.454-2.727c0.491,1.236,1.295,2.159,2.728,2.454
			C69.488,136.305,69.029,134.302,70.299,134.025 M65.391,132.025c-0.133,0-0.268,0.013-0.402,0.041
			c-1.914,0.392-3.297,1.269-4.518,2.042c-0.5,0.317-0.974,0.616-1.46,0.87c-0.809,0.422-1.229,1.338-1.023,2.227
			c0.552,2.374,1.446,4.348,2.312,6.256c0.179,0.396,0.357,0.79,0.533,1.189c0.26,0.586,0.783,1.013,1.41,1.147
			c0.14,0.03,0.281,0.045,0.42,0.045c0.489,0,0.967-0.18,1.338-0.513c0.485-0.437,1.988-1.078,3.197-1.594
			c3.037-1.296,6.179-2.637,6.699-5.227c0.33-1.65-0.486-2.795-1.025-3.553c-0.348-0.488-0.547-0.781-0.582-1.133
			c-0.059-0.567-0.354-1.083-0.816-1.418c-0.344-0.25-0.756-0.381-1.174-0.381c-0.143,0-0.285,0.015-0.426,0.046
			c-1.299,0.283-1.916,1.199-2.25,1.912c-0.132-0.172-0.256-0.397-0.375-0.696C66.941,132.514,66.195,132.025,65.391,132.025
			L65.391,132.025z"/>
	</g>
</g>
<g>
	<g>
		<g>
			<path style="fill-rule:evenodd;clip-rule:evenodd;fill:#F28E1B;" d="M62.662,144.843c-0.069,0-0.14-0.008-0.209-0.022
				c-0.314-0.067-0.576-0.28-0.705-0.574c-0.178-0.401-0.357-0.8-0.539-1.198c-0.844-1.863-1.718-3.791-2.248-6.069
				c-0.103-0.444,0.107-0.902,0.512-1.113c0.523-0.273,1.014-0.584,1.533-0.912c1.203-0.763,2.448-1.552,4.184-1.907
				c0.066-0.014,0.135-0.021,0.201-0.021c0.402,0,0.775,0.244,0.928,0.631c0.391,0.982,0.938,1.542,1.754,1.782
				c0.059-0.067,0.129-0.22,0.26-0.556c0.229-0.593,0.611-1.586,1.754-1.835c0.07-0.015,0.143-0.022,0.213-0.022
				c0.209,0,0.415,0.065,0.588,0.19c0.23,0.168,0.379,0.425,0.407,0.709c0.063,0.633,0.388,1.087,0.763,1.612
				c0.492,0.69,1.105,1.551,0.859,2.775c-0.417,2.074-3.313,3.31-6.111,4.505c-1.408,0.601-2.864,1.222-3.474,1.77
				C63.146,144.753,62.906,144.843,62.662,144.843z"/>
		</g>
	</g>
	<g>
		<g>
			<path style="fill:#BE6F26;" d="M70.299,134.025c0.191,1.884,1.943,2.563,1.637,4.091c-0.508,2.529-7.365,4.013-9.273,5.727
				c-1.001-2.271-2.109-4.436-2.727-7.091c1.793-0.935,3.191-2.263,5.454-2.727c0.491,1.236,1.295,2.159,2.728,2.454
				C69.488,136.305,69.029,134.302,70.299,134.025 M65.391,132.025c-0.133,0-0.268,0.013-0.402,0.041
				c-1.914,0.392-3.297,1.269-4.518,2.042c-0.5,0.317-0.974,0.616-1.46,0.87c-0.809,0.422-1.229,1.338-1.023,2.227
				c0.552,2.374,1.446,4.348,2.312,6.256c0.179,0.396,0.357,0.79,0.533,1.189c0.26,0.586,0.783,1.013,1.41,1.147
				c0.14,0.03,0.281,0.045,0.42,0.045c0.489,0,0.967-0.18,1.338-0.513c0.485-0.437,1.988-1.078,3.197-1.594
				c3.037-1.296,6.179-2.637,6.699-5.227c0.33-1.65-0.486-2.795-1.025-3.553c-0.348-0.488-0.547-0.781-0.582-1.133
				c-0.059-0.567-0.354-1.083-0.816-1.418c-0.344-0.25-0.756-0.381-1.174-0.381c-0.143,0-0.285,0.015-0.426,0.046
				c-1.299,0.283-1.916,1.199-2.25,1.912c-0.132-0.172-0.256-0.397-0.375-0.696C66.941,132.514,66.195,132.025,65.391,132.025
				L65.391,132.025z"/>
		</g>
	</g>
</g>
<path style="fill-rule:evenodd;clip-rule:evenodd;fill:#F28E1B;" d="M64.545,135.263c-0.384-0.943-1.045-2.298-1.745-3.731
	c-0.856-1.755-1.743-3.569-2.3-4.988l-0.438-1.113l1.174-0.232c0.162-0.033,0.345-0.051,0.543-0.051
	c2.153,0,6.136,2.116,6.977,4.725c0.64,1.982-1.055,5.008-2.833,5.907l-0.968,0.489L64.545,135.263z"/>
<g>
	<path style="fill-rule:evenodd;clip-rule:evenodd;fill:#F28E1B;" d="M64.545,135.263c-0.384-0.943-1.045-2.298-1.745-3.731
		c-0.856-1.755-1.743-3.569-2.3-4.988l-0.438-1.113l1.174-0.232c0.162-0.033,0.345-0.051,0.543-0.051
		c2.153,0,6.136,2.116,6.977,4.725c0.64,1.982-1.055,5.008-2.833,5.907l-0.968,0.489L64.545,135.263z"/>
</g>
<g>
	<g>
		<path style="fill-rule:evenodd;clip-rule:evenodd;fill:#F28E1B;" d="M64.545,135.263c-0.384-0.943-1.045-2.298-1.745-3.731
			c-0.856-1.755-1.743-3.569-2.3-4.988l-0.438-1.113l1.174-0.232c0.162-0.033,0.345-0.051,0.543-0.051
			c2.153,0,6.136,2.116,6.977,4.725c0.64,1.982-1.055,5.008-2.833,5.907l-0.968,0.489L64.545,135.263z"/>
	</g>
</g>
<path style="fill:#BE6F26;" d="M61.779,126.146c1.722,0,5.32,1.847,6.025,4.031c0.454,1.408-0.891,3.979-2.333,4.708
	c-0.868-2.132-3.042-6.162-4.042-8.708C61.535,126.157,61.652,126.146,61.779,126.146 M61.779,124.146L61.779,124.146
	c-0.259,0-0.507,0.023-0.738,0.069l-2.348,0.465l0.875,2.229c0.572,1.456,1.467,3.288,2.333,5.061
	c0.692,1.418,1.347,2.758,1.718,3.67l0.818,2.01l1.936-0.979c2.178-1.101,4.145-4.596,3.335-7.107
	C68.694,126.422,64.269,124.146,61.779,124.146L61.779,124.146z"/>
<g>
	<path style="fill:#BE6F26;" d="M61.779,126.146c1.722,0,5.32,1.847,6.025,4.031c0.454,1.408-0.891,3.979-2.333,4.708
		c-0.868-2.132-3.042-6.162-4.042-8.708C61.535,126.157,61.652,126.146,61.779,126.146 M61.779,124.146L61.779,124.146
		c-0.259,0-0.507,0.023-0.738,0.069l-2.348,0.465l0.875,2.229c0.572,1.456,1.467,3.288,2.333,5.061
		c0.692,1.418,1.347,2.758,1.718,3.67l0.818,2.01l1.936-0.979c2.178-1.101,4.145-4.596,3.335-7.107
		C68.694,126.422,64.269,124.146,61.779,124.146L61.779,124.146z"/>
</g>
<g>
	<g>
		<path style="fill:#BE6F26;" d="M61.779,126.146c1.722,0,5.32,1.847,6.025,4.031c0.454,1.408-0.891,3.979-2.333,4.708
			c-0.868-2.132-3.042-6.162-4.042-8.708C61.535,126.157,61.652,126.146,61.779,126.146 M61.779,124.146L61.779,124.146
			c-0.259,0-0.507,0.023-0.738,0.069l-2.348,0.465l0.875,2.229c0.572,1.456,1.467,3.288,2.333,5.061
			c0.692,1.418,1.347,2.758,1.718,3.67l0.818,2.01l1.936-0.979c2.178-1.101,4.145-4.596,3.335-7.107
			C68.694,126.422,64.269,124.146,61.779,124.146L61.779,124.146z"/>
	</g>
</g>
<g>
	<g>
		<g>
			<path style="fill-rule:evenodd;clip-rule:evenodd;fill:#F28E1B;" d="M64.545,135.263c-0.384-0.943-1.045-2.298-1.745-3.731
				c-0.856-1.755-1.743-3.569-2.3-4.988l-0.438-1.113l1.174-0.232c0.162-0.033,0.345-0.051,0.543-0.051
				c2.153,0,6.136,2.116,6.977,4.725c0.64,1.982-1.055,5.008-2.833,5.907l-0.968,0.489L64.545,135.263z"/>
		</g>
	</g>
	<g>
		<g>
			<path style="fill:#BE6F26;" d="M61.779,126.146c1.722,0,5.32,1.847,6.025,4.031c0.454,1.408-0.891,3.979-2.333,4.708
				c-0.868-2.132-3.042-6.162-4.042-8.708C61.535,126.157,61.652,126.146,61.779,126.146 M61.779,124.146L61.779,124.146
				c-0.259,0-0.507,0.023-0.738,0.069l-2.348,0.465l0.875,2.229c0.572,1.456,1.467,3.288,2.333,5.061
				c0.692,1.418,1.347,2.758,1.718,3.67l0.818,2.01l1.936-0.979c2.178-1.101,4.145-4.596,3.335-7.107
				C68.694,126.422,64.269,124.146,61.779,124.146L61.779,124.146z"/>
		</g>
	</g>
</g>
<g>
	<g>
		<g>
			<path style="fill-rule:evenodd;clip-rule:evenodd;fill:#F28E1B;" d="M110.874,134.886c-0.092,3.637-0.615,5.373-1.031,8.685
				c-8.145-3.091-42.954-4.256-54.271-2.454c-0.009-4.98,0.641-6.359,0-9.774C63.139,122.781,104.453,129.792,110.874,134.886z"/>
		</g>
		<g>
			<path style="fill:#BE6F26;" d="M109.843,144.57c-0.12,0-0.24-0.021-0.354-0.065c-5.347-2.028-23.195-3.241-37.362-3.241
				c-7.171,0-12.994,0.299-16.396,0.84c-0.289,0.049-0.582-0.037-0.806-0.226c-0.223-0.19-0.351-0.468-0.352-0.76
				c-0.004-1.967,0.096-3.409,0.176-4.568c0.126-1.842,0.21-3.059-0.158-5.023c-0.058-0.304,0.029-0.616,0.233-0.847
				c2.555-2.891,8.426-4.356,17.45-4.356c14.296,0,34.456,3.998,39.222,7.779c0.246,0.195,0.387,0.494,0.379,0.809
				c-0.063,2.508-0.333,4.175-0.618,5.939c-0.139,0.861-0.286,1.769-0.421,2.845c-0.038,0.304-0.214,0.574-0.477,0.731
				C110.2,144.522,110.022,144.57,109.843,144.57z M72.126,139.264c13.291,0,30.112,1.043,36.888,2.984
				c0.089-0.61,0.18-1.172,0.268-1.717c0.265-1.636,0.496-3.065,0.576-5.147c-4.769-3.162-23.226-7.061-37.584-7.061
				c-7.799,0-13.31,1.186-15.629,3.35c0.311,1.936,0.216,3.311,0.099,5.014c-0.064,0.932-0.135,1.96-0.161,3.276
				C60.163,139.511,65.606,139.264,72.126,139.264z"/>
		</g>
	</g>
	<g>
		<g>
			<g>
				<path style="fill-rule:evenodd;clip-rule:evenodd;fill:#F28E1B;" d="M73.299,141.843c-0.32,0-0.623-0.154-0.813-0.416
					c-0.199-0.277-0.244-0.638-0.117-0.955c1.254-3.142-0.605-6.073-2.402-8.908c-0.742-1.17-1.443-2.275-1.945-3.404
					c-0.176-0.396-0.078-0.858,0.243-1.148c1.103-0.996,2.827-1.078,4.647-1.078l0.932,0.002c0.41,0,0.777,0.249,0.93,0.63
					c0.344,0.863,1.014,1.993,1.723,3.189c1.9,3.209,4.056,6.846,2.648,9.487c-0.84,1.576-2.734,2.427-5.789,2.6
					C73.336,141.842,73.316,141.843,73.299,141.843z"/>
			</g>
		</g>
		<g>
			<g>
				<path style="fill:#BE6F26;" d="M72.912,126.933c0.31,0,0.622,0.002,0.932,0.002c1.723,4.321,10.08,13.305-0.545,13.908
					c1.988-4.983-2.643-9.218-4.363-13.09C69.775,126.994,71.313,126.933,72.912,126.933 M72.912,124.933
					c-2.023,0-3.951,0.102-5.318,1.336c-0.641,0.58-0.838,1.507-0.486,2.297c0.531,1.196,1.285,2.385,2.014,3.534
					c1.74,2.743,3.385,5.334,2.32,8.002c-0.254,0.635-0.166,1.354,0.234,1.909c0.377,0.524,0.981,0.832,1.623,0.832
					c0.037,0,0.074-0.001,0.113-0.003c3.434-0.195,5.597-1.219,6.614-3.128c1.673-3.139-0.635-7.032-2.671-10.468
					c-0.688-1.162-1.338-2.26-1.653-3.05c-0.304-0.761-1.039-1.26-1.858-1.26l-0.459-0.001L72.912,124.933L72.912,124.933z"/>
			</g>
		</g>
	</g>
	<g>
		<g>
			<path style="fill-rule:evenodd;clip-rule:evenodd;fill:#F28E1B;" d="M64.025,132.116c-1.533,1.92-4.592,2.316-6.271,4.091
				c0.247,2.024,1.124,3.421,1.908,4.909c-0.961,0.676-2.519-0.381-4.09,0c-0.049-3.595,0.115-6.976,0.545-10.091
				C57.989,129.807,63.684,128.899,64.025,132.116z"/>
		</g>
		<g>
			<path style="fill:#BE6F26;" d="M58.823,142.348c-0.431,0-0.866-0.082-1.288-0.162c-0.603-0.114-1.246-0.213-1.728-0.098
				c-0.299,0.075-0.607,0.005-0.849-0.182c-0.24-0.187-0.383-0.473-0.387-0.776c-0.051-3.759,0.136-7.205,0.555-10.241
				c0.039-0.287,0.201-0.543,0.444-0.701c1.158-0.754,3.201-1.28,4.967-1.28c2.6,0,4.275,1.16,4.481,3.104
				c0.028,0.262-0.049,0.523-0.213,0.729c-0.947,1.187-2.299,1.835-3.605,2.462c-0.888,0.426-1.733,0.832-2.379,1.372
				c0.251,1.338,0.818,2.391,1.416,3.498l0.309,0.578c0.234,0.444,0.102,0.994-0.31,1.284
				C59.842,142.213,59.379,142.348,58.823,142.348z M56.564,140.036c0.484,0.022,0.937,0.107,1.342,0.185
				c0.055,0.01,0.108,0.021,0.161,0.03c-0.582-1.122-1.112-2.339-1.306-3.923c-0.036-0.296,0.062-0.592,0.266-0.809
				c0.925-0.977,2.137-1.559,3.309-2.12c0.986-0.474,1.926-0.924,2.592-1.563c-0.351-0.758-1.457-0.93-2.39-0.93
				c-1.282,0-2.667,0.353-3.495,0.747C56.721,134.179,56.561,136.992,56.564,140.036z"/>
		</g>
	</g>
	<g>
		<g>
			<path style="fill-rule:evenodd;clip-rule:evenodd;fill:#F28E1B;" d="M83.253,153c0.119,1.026-4.269,1.605-4.783,2
				c-5.644-2.174-14.444-3.656-13.081-14.157c-0.012-5.439,6.324-0.985,6.582,0C71.971,150.302,77.974,151.825,83.253,153z"/>
		</g>
		<g>
			<path style="fill:#BE6F26;" d="M78.513,156.018c-0.129,0-0.262-0.03-0.402-0.084c-0.692-0.268-1.434-0.523-2.197-0.787
				c-5.396-1.866-12.783-4.421-11.524-14.369c0.009-1.252,0.325-2.2,0.942-2.819c0.501-0.502,1.184-0.767,1.976-0.767
				c2.229,0,5.322,2.217,5.632,3.398c0.021,0.082,0.032,0.168,0.032,0.253c0,8.845,5.578,10.086,10.499,11.181
				c0.416,0.093,0.728,0.438,0.776,0.861c0.181,1.555-1.963,2.096-4.035,2.619c-0.446,0.112-1.059,0.267-1.212,0.341
				C78.843,155.965,78.682,156.018,78.513,156.018z M67.307,139.191c-0.341,0-0.482,0.103-0.56,0.18
				c-0.135,0.135-0.36,0.505-0.358,1.47c0,0.044-0.003,0.087-0.009,0.131c-1.088,8.385,4.644,10.367,10.187,12.284
				c0.645,0.223,1.273,0.44,1.872,0.663c0.302-0.104,0.706-0.209,1.283-0.354c0.208-0.053,0.478-0.121,0.766-0.198
				c-4.546-1.233-9.416-3.693-9.515-12.256C70.497,140.544,68.579,139.191,67.307,139.191z"/>
		</g>
	</g>
	<g>
		<g>
			<g>
				<path style="fill-rule:evenodd;clip-rule:evenodd;fill:#F28E1B;" d="M62.662,144.843c-0.069,0-0.14-0.008-0.209-0.022
					c-0.314-0.067-0.576-0.28-0.705-0.574c-0.178-0.401-0.357-0.8-0.539-1.198c-0.844-1.863-1.718-3.791-2.248-6.069
					c-0.103-0.444,0.107-0.902,0.512-1.113c0.523-0.273,1.014-0.584,1.533-0.912c1.203-0.763,2.448-1.552,4.184-1.907
					c0.066-0.014,0.135-0.021,0.201-0.021c0.402,0,0.775,0.244,0.928,0.631c0.391,0.982,0.938,1.542,1.754,1.782
					c0.059-0.067,0.129-0.22,0.26-0.556c0.229-0.593,0.611-1.586,1.754-1.835c0.07-0.015,0.143-0.022,0.213-0.022
					c0.209,0,0.415,0.065,0.588,0.19c0.23,0.168,0.379,0.425,0.407,0.709c0.063,0.633,0.388,1.087,0.763,1.612
					c0.492,0.69,1.105,1.551,0.859,2.775c-0.417,2.074-3.313,3.31-6.111,4.505c-1.408,0.601-2.864,1.222-3.474,1.77
					C63.146,144.753,62.906,144.843,62.662,144.843z"/>
			</g>
		</g>
		<g>
			<g>
				<path style="fill:#BE6F26;" d="M70.299,134.025c0.191,1.884,1.943,2.563,1.637,4.091c-0.508,2.529-7.365,4.013-9.273,5.727
					c-1.001-2.271-2.109-4.436-2.727-7.091c1.793-0.935,3.191-2.263,5.454-2.727c0.491,1.236,1.295,2.159,2.728,2.454
					C69.488,136.305,69.029,134.302,70.299,134.025 M65.391,132.025c-0.133,0-0.268,0.013-0.402,0.041
					c-1.914,0.392-3.297,1.269-4.518,2.042c-0.5,0.317-0.974,0.616-1.46,0.87c-0.809,0.422-1.229,1.338-1.023,2.227
					c0.552,2.374,1.446,4.348,2.312,6.256c0.179,0.396,0.357,0.79,0.533,1.189c0.26,0.586,0.783,1.013,1.41,1.147
					c0.14,0.03,0.281,0.045,0.42,0.045c0.489,0,0.967-0.18,1.338-0.513c0.485-0.437,1.988-1.078,3.197-1.594
					c3.037-1.296,6.179-2.637,6.699-5.227c0.33-1.65-0.486-2.795-1.025-3.553c-0.348-0.488-0.547-0.781-0.582-1.133
					c-0.059-0.567-0.354-1.083-0.816-1.418c-0.344-0.25-0.756-0.381-1.174-0.381c-0.143,0-0.285,0.015-0.426,0.046
					c-1.299,0.283-1.916,1.199-2.25,1.912c-0.132-0.172-0.256-0.397-0.375-0.696C66.941,132.514,66.195,132.025,65.391,132.025
					L65.391,132.025z"/>
			</g>
		</g>
	</g>
	<g>
		<g>
			<g>
				<path style="fill-rule:evenodd;clip-rule:evenodd;fill:#F28E1B;" d="M64.545,135.263c-0.384-0.943-1.045-2.298-1.745-3.731
					c-0.856-1.755-1.743-3.569-2.3-4.988l-0.438-1.113l1.174-0.232c0.162-0.033,0.345-0.051,0.543-0.051
					c2.153,0,6.136,2.116,6.977,4.725c0.64,1.982-1.055,5.008-2.833,5.907l-0.968,0.489L64.545,135.263z"/>
			</g>
		</g>
		<g>
			<g>
				<path style="fill:#BE6F26;" d="M61.779,126.146c1.722,0,5.32,1.847,6.025,4.031c0.454,1.408-0.891,3.979-2.333,4.708
					c-0.868-2.132-3.042-6.162-4.042-8.708C61.535,126.157,61.652,126.146,61.779,126.146 M61.779,124.146L61.779,124.146
					c-0.259,0-0.507,0.023-0.738,0.069l-2.348,0.465l0.875,2.229c0.572,1.456,1.467,3.288,2.333,5.061
					c0.692,1.418,1.347,2.758,1.718,3.67l0.818,2.01l1.936-0.979c2.178-1.101,4.145-4.596,3.335-7.107
					C68.694,126.422,64.269,124.146,61.779,124.146L61.779,124.146z"/>
			</g>
		</g>
	</g>
</g>
<path style="fill:#010202;" d="M108.621,133.818l-0.5-0.1c-2.6,0.666-4.633,0.1-6.1-1.699c-0.533,0.266-0.633,0.166-0.299-0.301
	c-1.4-1-2.268-2.6-2.602-4.801l1-4l-0.898-12.6l2.699-0.199l0.9,12.9l-0.301,0.1v0.1l-0.799,2.801
	c-0.268,1.932,0.365,3.199,1.898,3.799c0.668,1.201,2.068,1.6,4.201,1.201h1l0.299-0.201c0.668-0.266,1.4-0.766,2.201-1.5l0.4-0.699
	l0.6-1.5l0.299-0.9l-0.398-0.801l-0.4-1l-0.5-1.5h-0.301l-1.299-19.299l1.6-0.1l0.1,0.199l1.6,9l0.301,3.9l0.1-0.1v0.199l0.4,5.301
	v0.699h-0.201v0.199l1.201,2.201c-0.066,0.332,0.033,0.533,0.299,0.6c0.4,2.133,0,3.766-1.199,4.9l-0.301,0.4
	c-0.199-0.068-0.332,0-0.398,0.199l-0.5,0.5l-1.102,1c-0.865,0.666-1.732,1.033-2.6,1.1H108.621"/>
<g>
	<path style="fill:#010202;" d="M108.621,133.818l-0.5-0.1c-2.6,0.666-4.633,0.1-6.1-1.699c-0.533,0.266-0.633,0.166-0.299-0.301
		c-1.4-1-2.268-2.6-2.602-4.801l1-4l-0.898-12.6l2.699-0.199l0.9,12.9l-0.301,0.1v0.1l-0.799,2.801
		c-0.268,1.932,0.365,3.199,1.898,3.799c0.668,1.201,2.068,1.6,4.201,1.201h1l0.299-0.201c0.668-0.266,1.4-0.766,2.201-1.5
		l0.4-0.699l0.6-1.5l0.299-0.9l-0.398-0.801l-0.4-1l-0.5-1.5h-0.301l-1.299-19.299l1.6-0.1l0.1,0.199l1.6,9l0.301,3.9l0.1-0.1v0.199
		l0.4,5.301v0.699h-0.201v0.199l1.201,2.201c-0.066,0.332,0.033,0.533,0.299,0.6c0.4,2.133,0,3.766-1.199,4.9l-0.301,0.4
		c-0.199-0.068-0.332,0-0.398,0.199l-0.5,0.5l-1.102,1c-0.865,0.666-1.732,1.033-2.6,1.1H108.621"/>
</g>
</svg>
