<?xml version="1.0" encoding="UTF-8" standalone="no"?>
<svg
   xmlns:dc="http://purl.org/dc/elements/1.1/"
   xmlns:cc="http://creativecommons.org/ns#"
   xmlns:rdf="http://www.w3.org/1999/02/22-rdf-syntax-ns#"
   xmlns:svg="http://www.w3.org/2000/svg"
   xmlns="http://www.w3.org/2000/svg"
   xmlns:xlink="http://www.w3.org/1999/xlink"
   xmlns:sodipodi="http://sodipodi.sourceforge.net/DTD/sodipodi-0.dtd"
   xmlns:inkscape="http://www.inkscape.org/namespaces/inkscape"
   height="182"
   width="160"
   version="1.1"
   id="svg50"
   sodipodi:docname="back-walking-1.svg"
   inkscape:version="1.0.2-2 (e86c870879, 2021-01-15)">
  <metadata
     id="metadata54">
    <rdf:RDF>
      <cc:Work
         rdf:about="">
        <dc:format>image/svg+xml</dc:format>
        <dc:type
           rdf:resource="http://purl.org/dc/dcmitype/StillImage" />
        <dc:title></dc:title>
      </cc:Work>
    </rdf:RDF>
  </metadata>
  <sodipodi:namedview
     pagecolor="#ffffff"
     bordercolor="#666666"
     borderopacity="1"
     objecttolerance="10"
     gridtolerance="10"
     guidetolerance="10"
     inkscape:pageopacity="0"
     inkscape:pageshadow="2"
     inkscape:window-width="1249"
     inkscape:window-height="835"
     id="namedview52"
     showgrid="false"
     inkscape:zoom="4.4875"
     inkscape:cx="80"
     inkscape:cy="91"
     inkscape:window-x="0"
     inkscape:window-y="0"
     inkscape:window-maximized="0"
     inkscape:current-layer="svg50" />
  <defs
     id="defs42">
    <path
       d="M.7-.3l1.85 2.2H1.5L.05.7-1.4 1.9h-1.05l1.9-2.2H.7"
       fill-rule="evenodd"
       transform="translate(2.45 .3)"
       id="a" />
    <use
       height="2.2"
       width="5"
       xlink:href="#a"
       id="c" />
    <g
       id="b">
      <path
         d="M15.4-40.35l4.15 1.2v-.05l2.55.95v-.05l.3.2v.1h.1l1.25-.1q.2.15.3 0 1.55.35 2 1.5l.15.25v.25l.15.3.2.7q.2.9-.15 1.6l-.1.2q-.35 1.9-2 2.4.05.45-.2.1l-2.7.2-1.65-1.25-5.85-2.1h-.05l.45-1.3 6.05 2.2-.05.15h.05v.05q.7.6 1.15.9l2.1-.1q1.05-.1 1.4-1.65l.2-.45-.25-1.5-.25-.35-.55-.55-.4-.3H22.8l-.8-.1-.05.1-8.5-3.05.7-.75 1.25.3M12.3-19.9h2.4q1.25 0 2.05.8.9.9.9 2.8 0 1.85-.9 2.75-.8.8-2.05.8H8.05v-1.5h6.6q.7 0 1.15-.45.55-.55.55-1.6 0-1.1-.55-1.65-.45-.4-1.15-.4h-5.4L10-19.9h2.3m-15.5 9.25v5.2q0 1.95-1.05 3.1-1.1 1.25-2.6 1.25T-9.5-2.35q-1.05-1.15-1.05-3.1v-5.2h1.2v5.2q0 1.35.75 2.25.75.75 1.75.75t1.7-.75q.75-.9.8-2.25v-5.2h1.15m-9.6-23l-1 .4v-.1l-4.15 1.5-1.6 1.25-2.7-.2q-.3.35-.2-.1-1.7-.5-2-2.4l-.15-.2q-.35-.7-.15-1.6l.25-.7.15-.3v-.25l.1-.25q.45-1.15 2.05-1.5.05.15.3 0l1.2.1h.1v-.1l.3-.2.05.05 2.55-.95v.05l3.05-.95.7 1.05-6.2 2.2-.05-.1-.75.1h-1l-.35.3-.6.55-.2.35-.25 1.5.15.45q.35 1.55 1.45 1.65l2.1.1 1.1-.9v-.05h.05l-.05-.15 4.95-1.8v-.05l.9-.35-.1 1.6"
         fill-rule="evenodd"
         transform="translate(24.8 64.6)"
         id="path35" />
      <path
         d="M15.4-40.35l-1.25-.3-.7.75 8.5 3.05.05-.1.8.1H23.75l.4.3.55.55.25.35.25 1.5-.2.45q-.35 1.55-1.4 1.65l-2.1.1q-.45-.3-1.15-.9v-.05h-.05l.05-.15-6.05-2.2-.45 1.3h.05l-1.3 10.5h.05l-.05.4v.05h-.05l-.25 3.1H10l-.75 1.55h5.4q.7 0 1.15.4.55.55.55 1.65 0 1.05-.55 1.6-.45.45-1.15.45h-3.5v-.45l-.15.45H8.05v1.45l-7.2-.7v-.05H-1.6l-1.55 1.7v1.2h-1.2v5.2q-.05 1.35-.8 2.25-.7.75-1.7.75T-8.6-3.2q-.75-.9-.75-2.25v-5.2h-1.2l-1.6-2.35.1-.1q-1.8-1.9-2.15-4.15l-.1-1.2.05-.95.55-1.85h.1v-.55l.15-.15v-1.35h-.05l-.05-.8v-2.05l-.2-.65-.15-.45.15-.4.25-.5.25-.75h.1l.35-4.75.1-1.6-.9.35v.05l-4.95 1.8.05.15h-.05v.05l-1.1.9-2.1-.1q-1.1-.1-1.45-1.65l-.15-.45.25-1.5.2-.35.6-.55.35-.3h1l.75-.1.05.1 6.2-2.2-.7-1.05-1.1-1.45h.2q-2.65-3.1-2.5-7.1-.15-5.3 5.35-9.8Q-7.2-63.5.45-64q7.6.5 13.05 5.55 5.45 4.5 5.45 9.8 0 4-2.6 7.1h.1-.05l-1 1.2m-28.1 5.1l.05-.3-.05.3M-13.85-22l.05.1-.05-.1m3.75-6.45l-.05-.05v.05h.05"
         fill="#fff"
         fill-rule="evenodd"
         transform="translate(24.8 64.6)"
         id="path37" />
      <path
         d="M9.25 23.05q-2.65-3.1-2.5-7.1-.15-5.3 5.35-9.8Q17.6 1.1 25.25.6q7.6.5 13.05 5.55 5.45 4.5 5.45 9.8 0 4-2.6 7.1"
         fill="none"
         stroke="#000"
         stroke-linecap="round"
         stroke-linejoin="round"
         stroke-width="1.2"
         id="path39" />
    </g>
  </defs>
  <g
     style="clip-rule:evenodd;fill-rule:evenodd;stroke-linecap:square;stroke-linejoin:round;stroke-miterlimit:1.5"
     id="g526"
     transform="translate(1.097,-36.63)">
    <g
       id="g1584"
       transform="translate(0.1)">
        <path
   id="path66"
   d="m 108.1,74.089 h 1.337 l 4.68,4.1 -1.715,1.018 -3.634,-3.285 -3.634,3.285 -1.715,-1.018 z"
   style="fill-rule:nonzero" />

        <path
   id="path68"
   d="m 85.57,42.64 c 0.01,5.42 -3.43,9.63 -6.271,13.091 0.601,0.939 1.351,1.739 1.361,3.269 -0.391,0.07 -0.46,0.45 -0.82,0.55 -2.029,0.12 -2.14,-1.97 -3.27,-3 -2.541,-2.319 -6.24,-2.93 -9.271,-4.91 -0.489,-2.27 1.021,-3.81 2.729,-3 1.611,-0.199 0.48,-3.149 2.451,-3 1.41,0.891 -0.201,2.681 -0.271,3.82 0.21,0.06 0.53,0.01 0.54,0.271 1.24,0.22 1.59,1.319 3,1.369 0.061,-0.949 0.23,-1.779 1.37,-1.64 0.86,-0.13 0.2,1.25 0.81,1.36 0.24,-0.95 0.41,-1.95 1.91,-1.63 0.84,1.579 -1.439,3.31 -1.09,4.359 3.029,-2.7 3.87,-7.59 6.27,-10.91 0.16,-1.34 0.561,-3.12 0,-4.359 C 82.3,36.5 76.05,35.8 72.48,36.64 c -0.801,3.29 -1,7.19 -2.451,9.82 C 68.57,46.731 67.41,47.3 66.21,47.82 57.24,41.68 46.721,49.14 47.391,59 c -2.971,3.87 -6.19,7.75 -6.82,13.37 -1,9.02 4.229,13.37 9,16.36 6.4,4 15.89,3.25 21,7.359 9.64,0.22 13.66,-7.13 19.91,-11.18 6.609,5.62 7.979,-5.74 9,-10.91 1.299,0.12 2.039,-0.32 2.729,-0.81 1.021,-2.98 1.54,-6.46 1.91,-10.101 2.739,-3.37 7.03,-6.06 6.81,-11.45 C 110.561,42.31 96.42,41.78 85.57,42.64 Z"
   style="fill:#020303" />

        <path
   id="path70"
   d="m 72.75,49.73 c -0.84,-0.431 -1.77,-0.771 -2.721,-1.091 1.611,-0.199 0.48,-3.149 2.451,-3 1.41,0.891 -0.201,2.681 -0.271,3.82 0.211,0.061 0.531,0.011 0.541,0.271 z m 3.002,-12.27 h 1.092 c 0.076,3.006 0.3,8.466 -2.729,9.272 -0.193,-2.764 1.233,-6.204 1.637,-9.272 z"
   style="fill:#c3c7c5" />

        <path
   id="path72"
   d="m 80.66,59 c -0.391,0.07 -0.46,0.45 -0.82,0.55 -2.029,0.12 -2.14,-1.97 -3.27,-3 -2.541,-2.319 -6.24,-2.93 -9.271,-4.91 -0.489,-2.27 1.021,-3.81 2.729,-3 0.951,0.32 1.881,0.66 2.721,1.091 1.24,0.22 1.59,1.319 3,1.369 0.33,1.351 2.9,2.7 3.55,4.631 C 79.9,56.67 80.65,57.47 80.66,59 Z"
   style="fill:#ffffff" />

        <path
   id="path74"
   d="m 85.57,43 c 0.01,5 -3.43,9.449 -6.271,12.91 -0.649,-1.93 -3.22,-3.37 -3.55,-4.721 0.061,-0.949 0.23,-1.824 1.37,-1.685 0.86,-0.13 0.2,1.228 0.81,1.338 0.24,-0.95 0.41,-1.961 1.91,-1.641 0.84,1.579 -1.439,3.483 -1.09,4.533 C 81.779,51.035 82.62,46 85.02,43 Z m -27,14.641 c -0.848,2.668 -0.23,4.546 0.546,6.818 -3.251,1.645 -4.036,-8.075 -0.546,-6.818 z m 0.546,16.909 c 0.343,2.207 -1.88,4.094 -3,5.999 -1.124,1.914 -1.55,4.952 -3.817,5.728 0.176,-4.924 3.176,-9.363 6.817,-11.727 z m 16.363,17.726 c -1.116,-0.892 -0.071,-2.047 0,-3.272 0.224,-3.856 -0.999,-8.494 -0.546,-10.909 0.317,-0.044 0.486,0.061 0.546,0.272 0.317,-0.044 0.485,0.061 0.546,0.273 1.038,2.317 2.489,11.961 -0.546,13.636 z M 70.844,81.913 h 1.09 C 72.62,83.544 73,87.797 71.389,88.73 69.796,88.014 70.668,83.502 70.844,81.913 Z M 52.299,81.095 c 0.116,1.616 -0.732,4.26 -2.728,4.636 -0.394,-1.809 0.495,-4.558 2.728,-4.636 z m 54.543,-27.273 c -1.244,0.063 -0.863,-1.499 -1.363,-2.182 -1.584,-1.343 -3.512,-2.178 -5.727,-2.182 -2.938,-0.005 -5.204,2.23 -7.363,1.909 1.468,-6.069 17.902,-3.979 14.453,2.455 z M 58.57,54.368 c -1.795,1.659 -3.67,3.239 -4.363,6 -3.615,-1.453 2.734,-8.678 4.363,-6 z"
   style="fill:#c3c7c5" />

        <path
   id="path76"
   d="m 47.117,59.822 c 1.741,-0.265 1.591,1.598 2.454,2.728 3.095,4.05 11.874,8.994 19.908,6.272 2.44,-0.826 6.815,-3.463 6.818,-7.091 0.001,-2.079 -1.921,-2.586 -0.818,-4.363 h 1.091 c 2.111,1.983 1.908,6.521 0,9 -6.846,8.9 -28.824,4.065 -29.453,-6.546 z"
   style="fill:#c3c7c5" />

        <path
   id="path78"
   d="m 108.358,133.479 c -0.092,3.637 -0.676,6.266 -1.092,9.577 -8.145,-3.091 -42.954,-3.742 -54.271,-1.94 -0.009,-4.98 0.641,-6.359 0,-9.774 7.568,-8.561 48.943,-2.956 55.363,2.137 z"
   style="fill:#f28e1b" />

        <path
   id="path80"
   d="m 107.267,144.057 c -0.121,0 -0.241,-0.022 -0.354,-0.065 -5.193,-1.971 -21.475,-2.868 -34.403,-2.868 -8.386,0 -15.44,0.357 -19.355,0.98 -0.051,0.008 -0.103,0.012 -0.155,0.012 -0.548,0 -1,-0.45 -1.003,-0.998 -0.004,-1.967 0.096,-3.409 0.176,-4.568 0.126,-1.842 0.21,-3.059 -0.158,-5.023 -0.058,-0.303 0.029,-0.616 0.233,-0.847 3.481,-3.939 12.743,-4.767 19.9,-4.767 14.273,0 32.518,3.359 36.832,6.783 0.246,0.195 0.387,0.495 0.379,0.809 -0.066,2.622 -0.377,4.698 -0.707,6.896 -0.134,0.896 -0.271,1.809 -0.393,2.78 -0.038,0.304 -0.214,0.574 -0.477,0.731 -0.155,0.095 -0.333,0.145 -0.515,0.145 z m -34.758,-4.934 c 12.67,0 27.585,0.812 33.926,2.611 0.078,-0.555 0.159,-1.095 0.239,-1.63 0.297,-1.982 0.579,-3.863 0.668,-6.123 -4.322,-2.801 -20.822,-6.068 -35.194,-6.068 -9.126,0 -15.504,1.331 -18.079,3.758 0.311,1.938 0.216,3.312 0.099,5.016 -0.064,0.931 -0.135,1.96 -0.161,3.275 4.156,-0.536 10.784,-0.839 18.502,-0.839 z"
   style="fill:#be6f26;fill-rule:nonzero" />

        <path
   id="path82"
   d="m 70.723,141.843 c -0.549,0 -1.001,-0.452 -1.001,-1.001 0,-0.127 0.024,-0.252 0.071,-0.37 1.254,-3.142 -0.605,-6.073 -2.402,-8.908 -0.742,-1.17 -1.443,-2.275 -1.945,-3.404 -0.176,-0.394 -0.077,-0.859 0.243,-1.148 1.103,-0.996 2.827,-1.078 4.647,-1.078 l 0.932,0.002 c 0.41,0 0.777,0.249 0.93,0.63 0.344,0.863 1.014,1.993 1.723,3.189 1.9,3.209 4.056,6.846 2.648,9.487 -0.84,1.576 -2.734,2.427 -5.789,2.6 z"
   style="fill:#f28e1b" />

        <path
   id="path84"
   d="m 70.336,126.933 0.932,0.002 c 1.723,4.321 10.08,13.305 -0.545,13.908 1.988,-4.983 -2.643,-9.218 -4.363,-13.09 0.839,-0.759 2.376,-0.82 3.976,-0.82 m 0,-2 c -2.023,0 -3.951,0.102 -5.318,1.336 -0.64,0.579 -0.837,1.509 -0.486,2.297 0.531,1.196 1.285,2.385 2.014,3.534 1.74,2.743 3.385,5.334 2.32,8.002 -0.095,0.236 -0.143,0.489 -0.143,0.743 0,1.096 0.902,1.998 1.998,1.998 0.038,0 0.077,-10e-4 0.115,-0.003 3.434,-0.195 5.597,-1.219 6.614,-3.128 1.673,-3.139 -0.635,-7.032 -2.671,-10.468 -0.688,-1.162 -1.338,-2.26 -1.653,-3.05 -0.302,-0.759 -1.041,-1.26 -1.858,-1.26 l -0.459,-10e-4 z"
   style="fill:#be6f26;fill-rule:nonzero" />

        <path
   id="path86"
   d="m 61.449,132.116 c -1.533,1.92 -4.592,2.316 -6.271,4.091 0.247,2.024 1.124,3.421 1.908,4.909 -0.961,0.676 -2.519,-0.381 -4.09,0 -0.049,-3.595 0.115,-6.976 0.545,-10.091 1.872,-1.218 7.566,-2.126 7.908,1.091 z"
   style="fill:#f28e1b" />

        <path
   id="path88"
   d="m 56.247,142.348 c -0.431,0 -0.866,-0.082 -1.288,-0.162 -0.603,-0.114 -1.247,-0.213 -1.728,-0.098 -0.077,0.019 -0.157,0.028 -0.236,0.028 -0.543,0 -0.993,-0.443 -1,-0.986 -0.051,-3.759 0.136,-7.205 0.555,-10.241 0.039,-0.287 0.201,-0.543 0.444,-0.701 1.158,-0.754 3.201,-1.28 4.967,-1.28 2.6,0 4.275,1.16 4.481,3.104 0.028,0.261 -0.049,0.524 -0.213,0.729 -0.947,1.187 -2.299,1.835 -3.605,2.462 -0.888,0.426 -1.733,0.832 -2.379,1.372 0.251,1.338 0.818,2.391 1.416,3.498 l 0.309,0.578 c 0.233,0.443 0.1,0.996 -0.31,1.284 -0.394,0.278 -0.857,0.413 -1.413,0.413 z m -2.259,-2.312 c 0.451,0.029 0.9,0.091 1.342,0.185 l 0.161,0.03 c -0.582,-1.122 -1.112,-2.339 -1.306,-3.923 -0.036,-0.296 0.062,-0.592 0.266,-0.809 0.925,-0.977 2.137,-1.559 3.309,-2.12 0.986,-0.474 1.926,-0.924 2.592,-1.563 -0.351,-0.758 -1.457,-0.93 -2.39,-0.93 -1.282,0 -2.667,0.353 -3.495,0.747 -0.322,2.526 -0.483,5.339 -0.479,8.383 z"
   style="fill:#be6f26;fill-rule:nonzero" />

        <path
   id="path90"
   d="m 80.677,153 c 0.119,1.026 -4.269,1.605 -4.783,2 -5.644,-2.174 -14.444,-3.656 -13.081,-14.157 -0.012,-5.439 6.324,-0.985 6.582,0 0,9.459 6.002,10.982 11.282,12.157 z"
   style="fill:#f28e1b" />

        <path
   id="path92"
   d="m 75.937,156.018 c -0.129,0 -0.262,-0.03 -0.402,-0.084 -0.692,-0.268 -1.434,-0.523 -2.197,-0.787 -5.396,-1.866 -12.783,-4.421 -11.524,-14.369 0.009,-1.252 0.325,-2.2 0.942,-2.819 0.501,-0.502 1.184,-0.767 1.976,-0.767 2.229,0 5.322,2.217 5.632,3.398 0.021,0.082 0.032,0.168 0.032,0.253 0,8.845 5.578,10.086 10.499,11.181 0.415,0.092 0.727,0.439 0.776,0.861 0.181,1.555 -1.963,2.096 -4.035,2.619 -0.446,0.112 -1.059,0.267 -1.212,0.341 -0.138,0.111 -0.31,0.172 -0.487,0.173 z M 64.73,139.191 c -0.341,0 -0.482,0.103 -0.56,0.18 -0.135,0.135 -0.36,0.505 -0.358,1.47 0,0.044 -0.003,0.088 -0.009,0.131 -1.088,8.385 4.644,10.367 10.187,12.284 0.645,0.223 1.273,0.44 1.872,0.663 0.302,-0.104 0.706,-0.209 1.283,-0.354 0.208,-0.053 0.478,-0.121 0.766,-0.198 -4.546,-1.233 -9.416,-3.693 -9.515,-12.256 -0.475,-0.567 -2.393,-1.92 -3.666,-1.92 z"
   style="fill:#be6f26;fill-rule:nonzero" />

        <path
   id="path94"
   d="m 60.086,144.843 c -0.395,0.001 -0.755,-0.234 -0.914,-0.596 -0.178,-0.401 -0.357,-0.8 -0.539,-1.198 -0.844,-1.863 -1.718,-3.791 -2.248,-6.069 -0.103,-0.443 0.109,-0.903 0.512,-1.113 0.523,-0.273 1.014,-0.584 1.533,-0.912 1.203,-0.763 2.448,-1.552 4.184,-1.907 0.473,-0.097 0.951,0.162 1.129,0.61 0.391,0.982 0.938,1.542 1.754,1.782 0.059,-0.067 0.129,-0.22 0.26,-0.556 0.229,-0.593 0.611,-1.586 1.754,-1.835 0.279,-0.06 0.57,0.001 0.801,0.168 0.23,0.167 0.379,0.426 0.407,0.709 0.063,0.633 0.388,1.087 0.763,1.612 0.492,0.69 1.105,1.551 0.859,2.775 -0.417,2.074 -3.313,3.31 -6.111,4.505 -1.408,0.601 -2.864,1.222 -3.474,1.77 -0.185,0.164 -0.423,0.254 -0.67,0.255 z"
   style="fill:#f28e1b" />

        <path
   id="path96"
   d="m 67.723,134.025 c 0.191,1.884 1.943,2.563 1.637,4.091 -0.508,2.529 -7.365,4.013 -9.273,5.727 -1.001,-2.271 -2.109,-4.436 -2.727,-7.091 1.793,-0.935 3.191,-2.263 5.454,-2.727 0.491,1.236 1.295,2.159 2.728,2.454 1.37,-0.174 0.911,-2.177 2.181,-2.454 m -4.909,-2 c -0.133,0 -0.268,0.013 -0.402,0.041 -1.914,0.392 -3.297,1.269 -4.518,2.042 -0.5,0.317 -0.974,0.616 -1.46,0.87 -0.806,0.421 -1.229,1.341 -1.023,2.227 0.552,2.374 1.446,4.348 2.312,6.256 0.179,0.396 0.357,0.79 0.533,1.189 0.319,0.724 1.039,1.193 1.83,1.193 0.494,0 0.971,-0.183 1.338,-0.514 0.485,-0.437 1.988,-1.078 3.197,-1.594 3.037,-1.296 6.179,-2.637 6.699,-5.227 0.33,-1.65 -0.486,-2.795 -1.025,-3.553 -0.348,-0.488 -0.547,-0.781 -0.582,-1.133 -0.105,-1.015 -0.969,-1.796 -1.99,-1.799 -0.143,0 -0.285,0.015 -0.426,0.046 -1.299,0.283 -1.916,1.199 -2.25,1.912 -0.156,-0.214 -0.282,-0.448 -0.375,-0.696 -0.303,-0.759 -1.041,-1.259 -1.858,-1.26 z"
   style="fill:#be6f26;fill-rule:nonzero" />

        <path
   id="path98"
   d="m 61.969,135.263 c -0.384,-0.943 -1.045,-2.298 -1.745,-3.731 -0.856,-1.755 -1.743,-3.569 -2.3,-4.988 l -0.438,-1.113 1.174,-0.232 c 0.162,-0.033 0.345,-0.051 0.543,-0.051 2.153,0 6.136,2.116 6.977,4.725 0.64,1.982 -1.055,5.008 -2.833,5.907 l -0.968,0.489 z"
   style="fill:#f28e1b" />

        <path
   id="path100"
   d="m 59.203,126.146 c 1.722,0 5.32,1.847 6.025,4.031 0.454,1.408 -0.891,3.979 -2.333,4.708 -0.868,-2.132 -3.042,-6.162 -4.042,-8.708 0.115,-0.021 0.233,-0.032 0.35,-0.031 m 0,-2 c -0.248,-0.001 -0.495,0.022 -0.738,0.069 l -2.348,0.465 0.875,2.229 c 0.572,1.456 1.467,3.288 2.333,5.061 0.692,1.418 1.347,2.758 1.718,3.67 l 0.818,2.01 1.936,-0.979 c 2.178,-1.101 4.145,-4.596 3.335,-7.107 -1.014,-3.142 -5.44,-5.418 -7.929,-5.418 z"
   style="fill:#be6f26;fill-rule:nonzero" />

        <path
   id="path102"
   d="m 104.041,152.431 h 7 c 0.934,0 1.699,-0.301 2.299,-0.9 0.734,-0.732 1.102,-1.799 1.102,-3.199 0,-1.467 -0.367,-2.566 -1.102,-3.301 -0.6,-0.533 -1.365,-0.801 -2.299,-0.801 H 100.24 l 1.5,-3.1 h 9.401 c 1.666,0 3.033,0.533 4.1,1.6 1.201,1.201 1.801,3.068 1.801,5.602 0,2.467 -0.6,4.299 -1.801,5.5 -1.066,1.066 -2.434,1.6 -4.1,1.6 H 97.84 v -3 h 6.201"
   style="fill:#010202;fill-rule:nonzero" />

        <path
   id="path104"
   d="m 104.041,152.431 h 7 c 0.934,0 1.699,-0.301 2.299,-0.9 0.734,-0.732 1.102,-1.799 1.102,-3.199 0,-1.467 -0.367,-2.566 -1.102,-3.301 -0.6,-0.533 -1.365,-0.801 -2.299,-0.801 H 100.24 l 1.5,-3.1 h 9.401 c 1.666,0 3.033,0.533 4.1,1.6 1.201,1.201 1.801,3.068 1.801,5.602 0,2.467 -0.6,4.299 -1.801,5.5 -1.066,1.066 -2.434,1.6 -4.1,1.6 H 97.84 v -3 h 6.201"
   style="fill:#010202;fill-rule:nonzero" />

        <g
   id="g752"
   transform="translate(-0.1,-0.1)">
            <g
   id="g118">
                <path
   id="path116"
   d="m 114.641,97.831 h -0.1 l -2,2.4 1.02,1.51 3.568,5.554 2.852,4.48 2.29,1.051 c -0.467,2.066 2.312,2.014 0.913,2.149 0,0 -0.128,5.087 -1.06,4.288 l -5.606,3.162 -4.954,-0.747 -1.222,-2.736 -1.154,-3.224 -2.244,18.312 h 0.1 l -0.1,0.801 v 0.1 h -0.102 l -0.5,6.199 h -4.6 l -1.5,3.1 h 10.801 c 0.934,0 1.699,0.268 2.299,0.801 0.734,0.734 1.102,1.834 1.102,3.301 0,1.4 -0.367,2.467 -1.102,3.199 -0.6,0.6 -1.365,0.9 -2.299,0.9 h -7 v -0.9 l -0.301,0.9 h -5.9 v 2.9 l -14.398,-1.4 v -0.1 h -4.9 l -3.1,3.398 v 2.4 h -2.403 v 10.4 c -0.066,1.801 -0.6,3.301 -1.6,4.5 -0.934,1 -2.068,1.5 -3.4,1.5 -1.334,0 -2.5,-0.5 -3.5,-1.5 -1,-1.199 -1.5,-2.699 -1.5,-4.5 v -10.4 h -2.4 l -3.199,-4.699 0.199,-0.201 c -2.4,-2.533 -3.834,-5.299 -4.301,-8.299 l -0.199,-2.4 0.1,-1.9 1.1,-3.699 h 0.201 v -1.1 l 0.299,-0.301 v -2.7 h -0.1 l -0.1,-1.6 v -4.102 l -0.4,-1.299 -0.299,-0.9 0.299,-0.801 0.5,-1 0.5,-1.5 h 0.201 l 0.293,-4.934 -1.706,-2.262 -4.857,-5.375 c 0,0 -2.677,0.176 -3.143,-1.891 l -2.795,-0.708 -1.612,-2.168 0.016,-3.643 2.863,-4.556 5.42,-1.424 c 0,0 -4.479,-7.203 -4.28,-12.537 -0.199,-7.066 3.367,-13.6 10.699,-19.6 7.334,-6.732 16.102,-10.434 26.301,-11.1 10.133,0.666 18.834,4.367 26.1,11.1 7.268,6 10.9,12.533 10.9,19.6 0,5.334 -1.732,10.066 -5.199,14.201 h 0.199 m -53.2,26.199 h 0.1 l -0.1,-0.1 v 0.1 m -7.3,13.1 -0.1,-0.199 0.1,0.199"
   style="fill:#ffffff;fill-rule:nonzero" />

            </g>

            <path
   id="path120"
   d="m 75.34,170.03 c 0,2.6 -0.699,4.666 -2.1,6.199 -1.467,1.668 -3.199,2.5 -5.199,2.5 -2,0 -3.768,-0.832 -5.301,-2.5 -1.4,-1.533 -2.1,-3.6 -2.1,-6.199 v -10.4 h 2.4 v 10.4 c 0,1.801 0.5,3.301 1.5,4.5 1,1 2.166,1.5 3.5,1.5 1.332,0 2.467,-0.5 3.4,-1.5 1,-1.199 1.533,-2.699 1.6,-4.5 v -10.4 h 2.299 v 10.4"
   style="fill:#010202;fill-rule:nonzero" />

            <path
   id="path122"
   d="m 108.1,74.089 h 1.337 l 4.68,4.1 -1.715,1.018 -3.634,-3.285 -3.634,3.285 -1.715,-1.018 z"
   style="fill-rule:nonzero" />

            <g
   id="g126">
                <path
   id="path124"
   d="m 108.1,74.089 h 1.337 l 4.68,4.1 -1.715,1.018 -3.634,-3.285 -3.634,3.285 -1.715,-1.018 z"
   style="fill-rule:nonzero" />

            </g>

            <g
   id="g132">
                <g
   id="g130">
                    <path
   id="path128"
   d="m 108.1,74.089 h 1.337 l 4.68,4.1 -1.715,1.018 -3.634,-3.285 -3.634,3.285 -1.715,-1.018 z"
   style="fill-rule:nonzero" />

                </g>

            </g>

            <path
   id="path134"
   d="m 85.57,42.64 c 0.01,5.42 -3.43,9.63 -6.271,13.091 0.601,0.939 1.351,1.739 1.361,3.269 -0.391,0.07 -0.46,0.45 -0.82,0.55 -2.029,0.12 -2.14,-1.97 -3.27,-3 -2.541,-2.319 -6.24,-2.93 -9.271,-4.91 -0.489,-2.27 1.021,-3.81 2.729,-3 1.611,-0.199 0.48,-3.149 2.451,-3 1.41,0.891 -0.201,2.681 -0.271,3.82 0.21,0.06 0.53,0.01 0.54,0.271 1.24,0.22 1.59,1.319 3,1.369 0.061,-0.949 0.23,-1.779 1.37,-1.64 0.86,-0.13 0.2,1.25 0.81,1.36 0.24,-0.95 0.41,-1.95 1.91,-1.63 0.84,1.579 -1.439,3.31 -1.09,4.359 3.029,-2.7 3.87,-7.59 6.27,-10.91 0.16,-1.34 0.561,-3.12 0,-4.359 C 82.3,36.5 76.05,35.8 72.48,36.64 c -0.801,3.29 -1,7.19 -2.451,9.82 C 68.57,46.731 67.41,47.3 66.21,47.82 57.24,41.68 46.721,49.14 47.391,59 c -2.971,3.87 -6.19,7.75 -6.82,13.37 -1,9.02 4.229,13.37 9,16.36 6.4,4 15.89,3.25 21,7.359 9.64,0.22 13.66,-7.13 19.91,-11.18 6.609,5.62 7.979,-5.74 9,-10.91 1.299,0.12 2.039,-0.32 2.729,-0.81 1.021,-2.98 1.54,-6.46 1.91,-10.101 2.739,-3.37 7.03,-6.06 6.81,-11.45 C 110.561,42.31 96.42,41.78 85.57,42.64 Z"
   style="fill:#020303" />

            <g
   id="g138">
                <path
   id="path136"
   d="m 85.57,42.64 c 0.01,5.42 -3.43,9.63 -6.271,13.091 0.601,0.939 1.351,1.739 1.361,3.269 -0.391,0.07 -0.46,0.45 -0.82,0.55 -2.029,0.12 -2.14,-1.97 -3.27,-3 -2.541,-2.319 -6.24,-2.93 -9.271,-4.91 -0.489,-2.27 1.021,-3.81 2.729,-3 1.611,-0.199 0.48,-3.149 2.451,-3 1.41,0.891 -0.201,2.681 -0.271,3.82 0.21,0.06 0.53,0.01 0.54,0.271 1.24,0.22 1.59,1.319 3,1.369 0.061,-0.949 0.23,-1.779 1.37,-1.64 0.86,-0.13 0.2,1.25 0.81,1.36 0.24,-0.95 0.41,-1.95 1.91,-1.63 0.84,1.579 -1.439,3.31 -1.09,4.359 3.029,-2.7 3.87,-7.59 6.27,-10.91 0.16,-1.34 0.561,-3.12 0,-4.359 C 82.3,36.5 76.05,35.8 72.48,36.64 c -0.801,3.29 -1,7.19 -2.451,9.82 C 68.57,46.731 67.41,47.3 66.21,47.82 57.24,41.68 46.721,49.14 47.391,59 c -2.971,3.87 -6.19,7.75 -6.82,13.37 -1,9.02 4.229,13.37 9,16.36 6.4,4 15.89,3.25 21,7.359 9.64,0.22 13.66,-7.13 19.91,-11.18 6.609,5.62 7.979,-5.74 9,-10.91 1.299,0.12 2.039,-0.32 2.729,-0.81 1.021,-2.98 1.54,-6.46 1.91,-10.101 2.739,-3.37 7.03,-6.06 6.81,-11.45 C 110.561,42.31 96.42,41.78 85.57,42.64 Z"
   style="fill:#020303" />

            </g>

            <path
   id="path140"
   d="m 72.75,49.73 c -0.84,-0.431 -1.77,-0.771 -2.721,-1.091 1.611,-0.199 0.48,-3.149 2.451,-3 1.41,0.891 -0.201,2.681 -0.271,3.82 0.211,0.061 0.531,0.011 0.541,0.271 z"
   style="fill:#c3c7c5" />

            <g
   id="g144">
                <path
   id="path142"
   d="m 72.75,49.73 c -0.84,-0.431 -1.77,-0.771 -2.721,-1.091 1.611,-0.199 0.48,-3.149 2.451,-3 1.41,0.891 -0.201,2.681 -0.271,3.82 0.211,0.061 0.531,0.011 0.541,0.271 z"
   style="fill:#c3c7c5" />

            </g>

            <path
   id="path146"
   d="m 75.752,37.46 h 1.092 c 0.076,3.006 0.3,8.466 -2.729,9.272 -0.193,-2.764 1.233,-6.204 1.637,-9.272 z"
   style="fill:#c3c7c5" />

            <g
   id="g150">
                <path
   id="path148"
   d="m 75.752,37.46 h 1.092 c 0.076,3.006 0.3,8.466 -2.729,9.272 -0.193,-2.764 1.233,-6.204 1.637,-9.272 z"
   style="fill:#c3c7c5" />

            </g>

            <path
   id="path152"
   d="m 80.66,59 c -0.391,0.07 -0.46,0.45 -0.82,0.55 -2.029,0.12 -2.14,-1.97 -3.27,-3 -2.541,-2.319 -6.24,-2.93 -9.271,-4.91 -0.489,-2.27 1.021,-3.81 2.729,-3 0.951,0.32 1.881,0.66 2.721,1.091 1.24,0.22 1.59,1.319 3,1.369 0.33,1.351 2.9,2.7 3.55,4.631 C 79.9,56.67 80.65,57.47 80.66,59 Z"
   style="fill:#ffffff" />

            <g
   id="g156">
                <path
   id="path154"
   d="m 80.66,59 c -0.391,0.07 -0.46,0.45 -0.82,0.55 -2.029,0.12 -2.14,-1.97 -3.27,-3 -2.541,-2.319 -6.24,-2.93 -9.271,-4.91 -0.489,-2.27 1.021,-3.81 2.729,-3 0.951,0.32 1.881,0.66 2.721,1.091 1.24,0.22 1.59,1.319 3,1.369 0.33,1.351 2.9,2.7 3.55,4.631 C 79.9,56.67 80.65,57.47 80.66,59 Z"
   style="fill:#ffffff" />

            </g>

            <path
   id="path158"
   d="m 85.57,43 c 0.01,5 -3.43,9.449 -6.271,12.91 -0.649,-1.93 -3.22,-3.37 -3.55,-4.721 0.061,-0.949 0.23,-1.824 1.37,-1.685 0.86,-0.13 0.2,1.228 0.81,1.338 0.24,-0.95 0.41,-1.961 1.91,-1.641 0.84,1.579 -1.439,3.483 -1.09,4.533 C 81.779,51.035 82.62,46 85.02,43 Z"
   style="fill:#c3c7c5" />

            <g
   id="g162">
                <path
   id="path160"
   d="m 85.57,43 c 0.01,5 -3.43,9.449 -6.271,12.91 -0.649,-1.93 -3.22,-3.37 -3.55,-4.721 0.061,-0.949 0.23,-1.824 1.37,-1.685 0.86,-0.13 0.2,1.228 0.81,1.338 0.24,-0.95 0.41,-1.961 1.91,-1.641 0.84,1.579 -1.439,3.483 -1.09,4.533 C 81.779,51.035 82.62,46 85.02,43 Z"
   style="fill:#c3c7c5" />

            </g>

            <path
   id="path164"
   d="m 58.57,57.641 c -0.848,2.668 -0.23,4.546 0.546,6.818 -3.251,1.645 -4.036,-8.075 -0.546,-6.818 z"
   style="fill:#c3c7c5" />

            <g
   id="g168">
                <path
   id="path166"
   d="m 58.57,57.641 c -0.848,2.668 -0.23,4.546 0.546,6.818 -3.251,1.645 -4.036,-8.075 -0.546,-6.818 z"
   style="fill:#c3c7c5" />

            </g>

            <path
   id="path170"
   d="m 59.116,74.55 c 0.343,2.207 -1.88,4.094 -3,5.999 -1.124,1.914 -1.55,4.952 -3.817,5.728 0.176,-4.924 3.176,-9.363 6.817,-11.727 z"
   style="fill:#c3c7c5" />

            <g
   id="g174">
                <path
   id="path172"
   d="m 59.116,74.55 c 0.343,2.207 -1.88,4.094 -3,5.999 -1.124,1.914 -1.55,4.952 -3.817,5.728 0.176,-4.924 3.176,-9.363 6.817,-11.727 z"
   style="fill:#c3c7c5" />

            </g>

            <path
   id="path176"
   d="m 75.479,92.276 c -1.116,-0.892 -0.071,-2.047 0,-3.272 0.224,-3.856 -0.999,-8.494 -0.546,-10.909 0.317,-0.044 0.486,0.061 0.546,0.272 0.317,-0.044 0.485,0.061 0.546,0.273 1.038,2.317 2.489,11.961 -0.546,13.636 z"
   style="fill:#c3c7c5" />

            <g
   id="g180">
                <path
   id="path178"
   d="m 75.479,92.276 c -1.116,-0.892 -0.071,-2.047 0,-3.272 0.224,-3.856 -0.999,-8.494 -0.546,-10.909 0.317,-0.044 0.486,0.061 0.546,0.272 0.317,-0.044 0.485,0.061 0.546,0.273 1.038,2.317 2.489,11.961 -0.546,13.636 z"
   style="fill:#c3c7c5" />

            </g>

            <path
   id="path182"
   d="m 70.844,81.913 h 1.09 C 72.62,83.544 73,87.797 71.389,88.73 69.796,88.014 70.668,83.502 70.844,81.913 Z"
   style="fill:#c3c7c5" />

            <g
   id="g186">
                <path
   id="path184"
   d="m 70.844,81.913 h 1.09 C 72.62,83.544 73,87.797 71.389,88.73 69.796,88.014 70.668,83.502 70.844,81.913 Z"
   style="fill:#c3c7c5" />

            </g>

            <path
   id="path188"
   d="m 52.299,81.095 c 0.116,1.616 -0.732,4.26 -2.728,4.636 -0.394,-1.809 0.495,-4.558 2.728,-4.636 z"
   style="fill:#c3c7c5" />

            <g
   id="g192">
                <path
   id="path190"
   d="m 52.299,81.095 c 0.116,1.616 -0.732,4.26 -2.728,4.636 -0.394,-1.809 0.495,-4.558 2.728,-4.636 z"
   style="fill:#c3c7c5" />

            </g>

            <path
   id="path194"
   d="m 106.842,53.822 c -1.244,0.063 -0.863,-1.499 -1.363,-2.182 -1.584,-1.343 -3.512,-2.178 -5.727,-2.182 -2.938,-0.005 -5.204,2.23 -7.363,1.909 1.468,-6.069 17.902,-3.979 14.453,2.455 z"
   style="fill:#c3c7c5" />

            <g
   id="g198">
                <path
   id="path196"
   d="m 106.842,53.822 c -1.244,0.063 -0.863,-1.499 -1.363,-2.182 -1.584,-1.343 -3.512,-2.178 -5.727,-2.182 -2.938,-0.005 -5.204,2.23 -7.363,1.909 1.468,-6.069 17.902,-3.979 14.453,2.455 z"
   style="fill:#c3c7c5" />

            </g>

            <path
   id="path200"
   d="m 58.57,54.368 c -1.795,1.659 -3.67,3.239 -4.363,6 -3.615,-1.453 2.734,-8.678 4.363,-6 z"
   style="fill:#c3c7c5" />

            <g
   id="g204">
                <path
   id="path202"
   d="m 58.57,54.368 c -1.795,1.659 -3.67,3.239 -4.363,6 -3.615,-1.453 2.734,-8.678 4.363,-6 z"
   style="fill:#c3c7c5" />

            </g>

            <path
   id="path206"
   d="m 47.117,59.822 c 1.741,-0.265 1.591,1.598 2.454,2.728 3.095,4.05 11.874,8.994 19.908,6.272 2.44,-0.826 6.815,-3.463 6.818,-7.091 0.001,-2.079 -1.921,-2.586 -0.818,-4.363 h 1.091 c 2.111,1.983 1.908,6.521 0,9 -6.846,8.9 -28.824,4.065 -29.453,-6.546 z"
   style="fill:#c3c7c5" />

            <g
   id="g210">
                <path
   id="path208"
   d="m 47.117,59.822 c 1.741,-0.265 1.591,1.598 2.454,2.728 3.095,4.05 11.874,8.994 19.908,6.272 2.44,-0.826 6.815,-3.463 6.818,-7.091 0.001,-2.079 -1.921,-2.586 -0.818,-4.363 h 1.091 c 2.111,1.983 1.908,6.521 0,9 -6.846,8.9 -28.824,4.065 -29.453,-6.546 z"
   style="fill:#c3c7c5" />

            </g>

            <g
   id="g264">
                <g
   id="g214">
                    <path
   id="path212"
   d="m 85.57,42.64 c 0.01,5.42 -3.43,9.63 -6.271,13.091 0.601,0.939 1.351,1.739 1.361,3.269 -0.391,0.07 -0.46,0.45 -0.82,0.55 -2.029,0.12 -2.14,-1.97 -3.27,-3 -2.541,-2.319 -6.24,-2.93 -9.271,-4.91 -0.489,-2.27 1.021,-3.81 2.729,-3 1.611,-0.199 0.48,-3.149 2.451,-3 1.41,0.891 -0.201,2.681 -0.271,3.82 0.21,0.06 0.53,0.01 0.54,0.271 1.24,0.22 1.59,1.319 3,1.369 0.061,-0.949 0.23,-1.779 1.37,-1.64 0.86,-0.13 0.2,1.25 0.81,1.36 0.24,-0.95 0.41,-1.95 1.91,-1.63 0.84,1.579 -1.439,3.31 -1.09,4.359 3.029,-2.7 3.87,-7.59 6.27,-10.91 0.16,-1.34 0.561,-3.12 0,-4.359 C 82.3,36.5 76.05,35.8 72.48,36.64 c -0.801,3.29 -1,7.19 -2.451,9.82 C 68.57,46.731 67.41,47.3 66.21,47.82 57.24,41.68 46.721,49.14 47.391,59 c -2.971,3.87 -6.19,7.75 -6.82,13.37 -1,9.02 4.229,13.37 9,16.36 6.4,4 15.89,3.25 21,7.359 9.64,0.22 13.66,-7.13 19.91,-11.18 6.609,5.62 7.979,-5.74 9,-10.91 1.299,0.12 2.039,-0.32 2.729,-0.81 1.021,-2.98 1.54,-6.46 1.91,-10.101 2.739,-3.37 7.03,-6.06 6.81,-11.45 C 110.561,42.31 96.42,41.78 85.57,42.64 Z"
   style="fill:#020303" />

                </g>

                <g
   id="g218">
                    <path
   id="path216"
   d="m 72.75,49.73 c -0.84,-0.431 -1.77,-0.771 -2.721,-1.091 1.611,-0.199 0.48,-3.149 2.451,-3 1.41,0.891 -0.201,2.681 -0.271,3.82 0.211,0.061 0.531,0.011 0.541,0.271 z"
   style="fill:#c3c7c5" />

                </g>

                <g
   id="g222">
                    <path
   id="path220"
   d="m 75.752,37.46 h 1.092 c 0.076,3.006 0.3,8.466 -2.729,9.272 -0.193,-2.764 1.233,-6.204 1.637,-9.272 z"
   style="fill:#c3c7c5" />

                </g>

                <g
   id="g226">
                    <path
   id="path224"
   d="m 80.66,59 c -0.391,0.07 -0.46,0.45 -0.82,0.55 -2.029,0.12 -2.14,-1.97 -3.27,-3 -2.541,-2.319 -6.24,-2.93 -9.271,-4.91 -0.489,-2.27 1.021,-3.81 2.729,-3 0.951,0.32 1.881,0.66 2.721,1.091 1.24,0.22 1.59,1.319 3,1.369 0.33,1.351 2.9,2.7 3.55,4.631 C 79.9,56.67 80.65,57.47 80.66,59 Z"
   style="fill:#ffffff" />

                </g>

                <g
   id="g230">
                    <path
   id="path228"
   d="m 85.57,43 c 0.01,5 -3.43,9.449 -6.271,12.91 -0.649,-1.93 -3.22,-3.37 -3.55,-4.721 0.061,-0.949 0.23,-1.824 1.37,-1.685 0.86,-0.13 0.2,1.228 0.81,1.338 0.24,-0.95 0.41,-1.961 1.91,-1.641 0.84,1.579 -1.439,3.483 -1.09,4.533 C 81.779,51.035 82.62,46 85.02,43 Z"
   style="fill:#c3c7c5" />

                </g>

                <g
   id="g234">
                    <path
   id="path232"
   d="m 58.57,57.641 c -0.848,2.668 -0.23,4.546 0.546,6.818 -3.251,1.645 -4.036,-8.075 -0.546,-6.818 z"
   style="fill:#c3c7c5" />

                </g>

                <g
   id="g238">
                    <path
   id="path236"
   d="m 59.116,74.55 c 0.343,2.207 -1.88,4.094 -3,5.999 -1.124,1.914 -1.55,4.952 -3.817,5.728 0.176,-4.924 3.176,-9.363 6.817,-11.727 z"
   style="fill:#c3c7c5" />

                </g>

                <g
   id="g242">
                    <path
   id="path240"
   d="m 75.479,92.276 c -1.116,-0.892 -0.071,-2.047 0,-3.272 0.224,-3.856 -0.999,-8.494 -0.546,-10.909 0.317,-0.044 0.486,0.061 0.546,0.272 0.317,-0.044 0.485,0.061 0.546,0.273 1.038,2.317 2.489,11.961 -0.546,13.636 z"
   style="fill:#c3c7c5" />

                </g>

                <g
   id="g246">
                    <path
   id="path244"
   d="m 70.844,81.913 h 1.09 C 72.62,83.544 73,87.797 71.389,88.73 69.796,88.014 70.668,83.502 70.844,81.913 Z"
   style="fill:#c3c7c5" />

                </g>

                <g
   id="g250">
                    <path
   id="path248"
   d="m 52.299,81.095 c 0.116,1.616 -0.732,4.26 -2.728,4.636 -0.394,-1.809 0.495,-4.558 2.728,-4.636 z"
   style="fill:#c3c7c5" />

                </g>

                <g
   id="g254">
                    <path
   id="path252"
   d="m 106.842,53.822 c -1.244,0.063 -0.863,-1.499 -1.363,-2.182 -1.584,-1.343 -3.512,-2.178 -5.727,-2.182 -2.938,-0.005 -5.204,2.23 -7.363,1.909 1.468,-6.069 17.902,-3.979 14.453,2.455 z"
   style="fill:#c3c7c5" />

                </g>

                <g
   id="g258">
                    <path
   id="path256"
   d="m 58.57,54.368 c -1.795,1.659 -3.67,3.239 -4.363,6 -3.615,-1.453 2.734,-8.678 4.363,-6 z"
   style="fill:#c3c7c5" />

                </g>

                <g
   id="g262">
                    <path
   id="path260"
   d="m 47.117,59.822 c 1.741,-0.265 1.591,1.598 2.454,2.728 3.095,4.05 11.874,8.994 19.908,6.272 2.44,-0.826 6.815,-3.463 6.818,-7.091 0.001,-2.079 -1.921,-2.586 -0.818,-4.363 h 1.091 c 2.111,1.983 1.908,6.521 0,9 -6.846,8.9 -28.824,4.065 -29.453,-6.546 z"
   style="fill:#c3c7c5" />

                </g>

            </g>

            <path
   id="path266"
   d="m 108.358,133.479 c -0.092,3.637 -0.676,6.266 -1.092,9.577 -8.145,-3.091 -42.954,-3.742 -54.271,-1.94 -0.009,-4.98 0.641,-6.359 0,-9.774 7.568,-8.561 48.943,-2.956 55.363,2.137 z"
   style="fill:#f28e1b" />

            <g
   id="g270">
                <path
   id="path268"
   d="m 108.358,133.479 c -0.092,3.637 -0.676,6.266 -1.092,9.577 -8.145,-3.091 -42.954,-3.742 -54.271,-1.94 -0.009,-4.98 0.641,-6.359 0,-9.774 7.568,-8.561 48.943,-2.956 55.363,2.137 z"
   style="fill:#f28e1b" />

            </g>

            <path
   id="path272"
   d="m 107.267,144.057 c -0.12,0 -0.24,-0.021 -0.354,-0.065 -5.193,-1.971 -21.475,-2.868 -34.403,-2.868 -8.386,0 -15.44,0.357 -19.355,0.98 -0.289,0.049 -0.582,-0.037 -0.806,-0.226 -0.223,-0.19 -0.351,-0.468 -0.352,-0.76 -0.004,-1.967 0.096,-3.409 0.176,-4.568 0.126,-1.842 0.21,-3.059 -0.158,-5.023 -0.058,-0.304 0.029,-0.616 0.233,-0.847 3.481,-3.939 12.743,-4.767 19.9,-4.767 14.273,0 32.518,3.359 36.832,6.783 0.246,0.195 0.387,0.494 0.379,0.809 -0.066,2.622 -0.377,4.698 -0.707,6.896 -0.134,0.896 -0.271,1.809 -0.393,2.78 -0.038,0.304 -0.214,0.574 -0.477,0.731 -0.158,0.097 -0.336,0.145 -0.515,0.145 z m -34.758,-4.934 c 12.67,0 27.585,0.812 33.926,2.611 0.078,-0.555 0.159,-1.095 0.239,-1.63 0.297,-1.982 0.579,-3.863 0.668,-6.123 -4.322,-2.801 -20.822,-6.068 -35.194,-6.068 -9.126,0 -15.504,1.331 -18.079,3.758 0.311,1.938 0.216,3.312 0.099,5.016 -0.064,0.931 -0.135,1.96 -0.161,3.275 4.156,-0.536 10.784,-0.839 18.502,-0.839 z"
   style="fill:#be6f26;fill-rule:nonzero" />

            <g
   id="g276">
                <path
   id="path274"
   d="m 107.267,144.057 c -0.12,0 -0.24,-0.021 -0.354,-0.065 -5.193,-1.971 -21.475,-2.868 -34.403,-2.868 -8.386,0 -15.44,0.357 -19.355,0.98 -0.289,0.049 -0.582,-0.037 -0.806,-0.226 -0.223,-0.19 -0.351,-0.468 -0.352,-0.76 -0.004,-1.967 0.096,-3.409 0.176,-4.568 0.126,-1.842 0.21,-3.059 -0.158,-5.023 -0.058,-0.304 0.029,-0.616 0.233,-0.847 3.481,-3.939 12.743,-4.767 19.9,-4.767 14.273,0 32.518,3.359 36.832,6.783 0.246,0.195 0.387,0.494 0.379,0.809 -0.066,2.622 -0.377,4.698 -0.707,6.896 -0.134,0.896 -0.271,1.809 -0.393,2.78 -0.038,0.304 -0.214,0.574 -0.477,0.731 -0.158,0.097 -0.336,0.145 -0.515,0.145 z m -34.758,-4.934 c 12.67,0 27.585,0.812 33.926,2.611 0.078,-0.555 0.159,-1.095 0.239,-1.63 0.297,-1.982 0.579,-3.863 0.668,-6.123 -4.322,-2.801 -20.822,-6.068 -35.194,-6.068 -9.126,0 -15.504,1.331 -18.079,3.758 0.311,1.938 0.216,3.312 0.099,5.016 -0.064,0.931 -0.135,1.96 -0.161,3.275 4.156,-0.536 10.784,-0.839 18.502,-0.839 z"
   style="fill:#be6f26;fill-rule:nonzero" />

            </g>

            <g
   id="g286">
                <g
   id="g280">
                    <path
   id="path278"
   d="m 108.358,133.479 c -0.092,3.637 -0.676,6.266 -1.092,9.577 -8.145,-3.091 -42.954,-3.742 -54.271,-1.94 -0.009,-4.98 0.641,-6.359 0,-9.774 7.568,-8.561 48.943,-2.956 55.363,2.137 z"
   style="fill:#f28e1b" />

                </g>

                <g
   id="g284">
                    <path
   id="path282"
   d="m 107.267,144.057 c -0.12,0 -0.24,-0.021 -0.354,-0.065 -5.193,-1.971 -21.475,-2.868 -34.403,-2.868 -8.386,0 -15.44,0.357 -19.355,0.98 -0.289,0.049 -0.582,-0.037 -0.806,-0.226 -0.223,-0.19 -0.351,-0.468 -0.352,-0.76 -0.004,-1.967 0.096,-3.409 0.176,-4.568 0.126,-1.842 0.21,-3.059 -0.158,-5.023 -0.058,-0.304 0.029,-0.616 0.233,-0.847 3.481,-3.939 12.743,-4.767 19.9,-4.767 14.273,0 32.518,3.359 36.832,6.783 0.246,0.195 0.387,0.494 0.379,0.809 -0.066,2.622 -0.377,4.698 -0.707,6.896 -0.134,0.896 -0.271,1.809 -0.393,2.78 -0.038,0.304 -0.214,0.574 -0.477,0.731 -0.158,0.097 -0.336,0.145 -0.515,0.145 z m -34.758,-4.934 c 12.67,0 27.585,0.812 33.926,2.611 0.078,-0.555 0.159,-1.095 0.239,-1.63 0.297,-1.982 0.579,-3.863 0.668,-6.123 -4.322,-2.801 -20.822,-6.068 -35.194,-6.068 -9.126,0 -15.504,1.331 -18.079,3.758 0.311,1.938 0.216,3.312 0.099,5.016 -0.064,0.931 -0.135,1.96 -0.161,3.275 4.156,-0.536 10.784,-0.839 18.502,-0.839 z"
   style="fill:#be6f26;fill-rule:nonzero" />

                </g>

            </g>

            <path
   id="path288"
   d="m 70.723,141.843 c -0.32,0 -0.623,-0.154 -0.813,-0.416 -0.199,-0.277 -0.244,-0.638 -0.117,-0.955 1.254,-3.142 -0.605,-6.073 -2.402,-8.908 -0.742,-1.17 -1.443,-2.275 -1.945,-3.404 -0.176,-0.396 -0.078,-0.858 0.243,-1.148 1.103,-0.996 2.827,-1.078 4.647,-1.078 l 0.932,0.002 c 0.41,0 0.777,0.249 0.93,0.63 0.344,0.863 1.014,1.993 1.723,3.189 1.9,3.209 4.056,6.846 2.648,9.487 -0.84,1.576 -2.734,2.427 -5.789,2.6 -0.02,0 -0.04,10e-4 -0.057,10e-4 z"
   style="fill:#f28e1b" />

            <g
   id="g292">
                <path
   id="path290"
   d="m 70.723,141.843 c -0.32,0 -0.623,-0.154 -0.813,-0.416 -0.199,-0.277 -0.244,-0.638 -0.117,-0.955 1.254,-3.142 -0.605,-6.073 -2.402,-8.908 -0.742,-1.17 -1.443,-2.275 -1.945,-3.404 -0.176,-0.396 -0.078,-0.858 0.243,-1.148 1.103,-0.996 2.827,-1.078 4.647,-1.078 l 0.932,0.002 c 0.41,0 0.777,0.249 0.93,0.63 0.344,0.863 1.014,1.993 1.723,3.189 1.9,3.209 4.056,6.846 2.648,9.487 -0.84,1.576 -2.734,2.427 -5.789,2.6 -0.02,0 -0.04,10e-4 -0.057,10e-4 z"
   style="fill:#f28e1b" />

            </g>

            <g
   id="g298">
                <g
   id="g296">
                    <path
   id="path294"
   d="m 70.723,141.843 c -0.32,0 -0.623,-0.154 -0.813,-0.416 -0.199,-0.277 -0.244,-0.638 -0.117,-0.955 1.254,-3.142 -0.605,-6.073 -2.402,-8.908 -0.742,-1.17 -1.443,-2.275 -1.945,-3.404 -0.176,-0.396 -0.078,-0.858 0.243,-1.148 1.103,-0.996 2.827,-1.078 4.647,-1.078 l 0.932,0.002 c 0.41,0 0.777,0.249 0.93,0.63 0.344,0.863 1.014,1.993 1.723,3.189 1.9,3.209 4.056,6.846 2.648,9.487 -0.84,1.576 -2.734,2.427 -5.789,2.6 -0.02,0 -0.04,10e-4 -0.057,10e-4 z"
   style="fill:#f28e1b" />

                </g>

            </g>

            <path
   id="path300"
   d="m 70.336,126.933 c 0.31,0 0.622,0.002 0.932,0.002 1.723,4.321 10.08,13.305 -0.545,13.908 1.988,-4.983 -2.643,-9.218 -4.363,-13.09 0.839,-0.759 2.376,-0.82 3.976,-0.82 m 0,-2 c -2.023,0 -3.951,0.102 -5.318,1.336 -0.641,0.58 -0.838,1.507 -0.486,2.297 0.531,1.196 1.285,2.385 2.014,3.534 1.74,2.743 3.385,5.334 2.32,8.002 -0.254,0.635 -0.166,1.354 0.234,1.909 0.377,0.524 0.981,0.832 1.623,0.832 0.037,0 0.074,-10e-4 0.113,-0.003 3.434,-0.195 5.597,-1.219 6.614,-3.128 1.673,-3.139 -0.635,-7.032 -2.671,-10.468 -0.688,-1.162 -1.338,-2.26 -1.653,-3.05 -0.304,-0.761 -1.039,-1.26 -1.858,-1.26 l -0.459,-10e-4 z"
   style="fill:#be6f26;fill-rule:nonzero" />

            <g
   id="g304">
                <path
   id="path302"
   d="m 70.336,126.933 c 0.31,0 0.622,0.002 0.932,0.002 1.723,4.321 10.08,13.305 -0.545,13.908 1.988,-4.983 -2.643,-9.218 -4.363,-13.09 0.839,-0.759 2.376,-0.82 3.976,-0.82 m 0,-2 c -2.023,0 -3.951,0.102 -5.318,1.336 -0.641,0.58 -0.838,1.507 -0.486,2.297 0.531,1.196 1.285,2.385 2.014,3.534 1.74,2.743 3.385,5.334 2.32,8.002 -0.254,0.635 -0.166,1.354 0.234,1.909 0.377,0.524 0.981,0.832 1.623,0.832 0.037,0 0.074,-10e-4 0.113,-0.003 3.434,-0.195 5.597,-1.219 6.614,-3.128 1.673,-3.139 -0.635,-7.032 -2.671,-10.468 -0.688,-1.162 -1.338,-2.26 -1.653,-3.05 -0.304,-0.761 -1.039,-1.26 -1.858,-1.26 l -0.459,-10e-4 z"
   style="fill:#be6f26;fill-rule:nonzero" />

            </g>

            <g
   id="g310">
                <g
   id="g308">
                    <path
   id="path306"
   d="m 70.336,126.933 c 0.31,0 0.622,0.002 0.932,0.002 1.723,4.321 10.08,13.305 -0.545,13.908 1.988,-4.983 -2.643,-9.218 -4.363,-13.09 0.839,-0.759 2.376,-0.82 3.976,-0.82 m 0,-2 c -2.023,0 -3.951,0.102 -5.318,1.336 -0.641,0.58 -0.838,1.507 -0.486,2.297 0.531,1.196 1.285,2.385 2.014,3.534 1.74,2.743 3.385,5.334 2.32,8.002 -0.254,0.635 -0.166,1.354 0.234,1.909 0.377,0.524 0.981,0.832 1.623,0.832 0.037,0 0.074,-10e-4 0.113,-0.003 3.434,-0.195 5.597,-1.219 6.614,-3.128 1.673,-3.139 -0.635,-7.032 -2.671,-10.468 -0.688,-1.162 -1.338,-2.26 -1.653,-3.05 -0.304,-0.761 -1.039,-1.26 -1.858,-1.26 l -0.459,-10e-4 z"
   style="fill:#be6f26;fill-rule:nonzero" />

                </g>

            </g>

            <g
   id="g324">
                <g
   id="g316">
                    <g
   id="g314">
                        <path
   id="path312"
   d="m 70.723,141.843 c -0.32,0 -0.623,-0.154 -0.813,-0.416 -0.199,-0.277 -0.244,-0.638 -0.117,-0.955 1.254,-3.142 -0.605,-6.073 -2.402,-8.908 -0.742,-1.17 -1.443,-2.275 -1.945,-3.404 -0.176,-0.396 -0.078,-0.858 0.243,-1.148 1.103,-0.996 2.827,-1.078 4.647,-1.078 l 0.932,0.002 c 0.41,0 0.777,0.249 0.93,0.63 0.344,0.863 1.014,1.993 1.723,3.189 1.9,3.209 4.056,6.846 2.648,9.487 -0.84,1.576 -2.734,2.427 -5.789,2.6 -0.02,0 -0.04,10e-4 -0.057,10e-4 z"
   style="fill:#f28e1b" />

                    </g>

                </g>

                <g
   id="g322">
                    <g
   id="g320">
                        <path
   id="path318"
   d="m 70.336,126.933 c 0.31,0 0.622,0.002 0.932,0.002 1.723,4.321 10.08,13.305 -0.545,13.908 1.988,-4.983 -2.643,-9.218 -4.363,-13.09 0.839,-0.759 2.376,-0.82 3.976,-0.82 m 0,-2 c -2.023,0 -3.951,0.102 -5.318,1.336 -0.641,0.58 -0.838,1.507 -0.486,2.297 0.531,1.196 1.285,2.385 2.014,3.534 1.74,2.743 3.385,5.334 2.32,8.002 -0.254,0.635 -0.166,1.354 0.234,1.909 0.377,0.524 0.981,0.832 1.623,0.832 0.037,0 0.074,-10e-4 0.113,-0.003 3.434,-0.195 5.597,-1.219 6.614,-3.128 1.673,-3.139 -0.635,-7.032 -2.671,-10.468 -0.688,-1.162 -1.338,-2.26 -1.653,-3.05 -0.304,-0.761 -1.039,-1.26 -1.858,-1.26 l -0.459,-10e-4 z"
   style="fill:#be6f26;fill-rule:nonzero" />

                    </g>

                </g>

            </g>

            <path
   id="path326"
   d="m 61.449,132.116 c -1.533,1.92 -4.592,2.316 -6.271,4.091 0.247,2.024 1.124,3.421 1.908,4.909 -0.961,0.676 -2.519,-0.381 -4.09,0 -0.049,-3.595 0.115,-6.976 0.545,-10.091 1.872,-1.218 7.566,-2.126 7.908,1.091 z"
   style="fill:#f28e1b" />

            <g
   id="g330">
                <path
   id="path328"
   d="m 61.449,132.116 c -1.533,1.92 -4.592,2.316 -6.271,4.091 0.247,2.024 1.124,3.421 1.908,4.909 -0.961,0.676 -2.519,-0.381 -4.09,0 -0.049,-3.595 0.115,-6.976 0.545,-10.091 1.872,-1.218 7.566,-2.126 7.908,1.091 z"
   style="fill:#f28e1b" />

            </g>

            <path
   id="path332"
   d="m 56.247,142.348 c -0.431,0 -0.866,-0.082 -1.288,-0.162 -0.603,-0.114 -1.247,-0.213 -1.728,-0.098 -0.299,0.075 -0.608,0.005 -0.849,-0.182 -0.241,-0.187 -0.383,-0.473 -0.387,-0.776 -0.051,-3.759 0.136,-7.205 0.555,-10.241 0.039,-0.287 0.201,-0.543 0.444,-0.701 1.158,-0.754 3.201,-1.28 4.967,-1.28 2.6,0 4.275,1.16 4.481,3.104 0.028,0.262 -0.049,0.523 -0.213,0.729 -0.947,1.187 -2.299,1.835 -3.605,2.462 -0.888,0.426 -1.733,0.832 -2.379,1.372 0.251,1.338 0.818,2.391 1.416,3.498 l 0.309,0.578 c 0.234,0.444 0.102,0.994 -0.31,1.284 -0.394,0.278 -0.857,0.413 -1.413,0.413 z m -2.259,-2.312 c 0.484,0.022 0.937,0.107 1.342,0.185 0.055,0.01 0.108,0.021 0.161,0.03 -0.582,-1.122 -1.112,-2.339 -1.306,-3.923 -0.036,-0.296 0.062,-0.592 0.266,-0.809 0.925,-0.977 2.137,-1.559 3.309,-2.12 0.986,-0.474 1.926,-0.924 2.592,-1.563 -0.351,-0.758 -1.457,-0.93 -2.39,-0.93 -1.282,0 -2.667,0.353 -3.495,0.747 -0.322,2.526 -0.483,5.339 -0.479,8.383 z"
   style="fill:#be6f26;fill-rule:nonzero" />

            <g
   id="g336">
                <path
   id="path334"
   d="m 56.247,142.348 c -0.431,0 -0.866,-0.082 -1.288,-0.162 -0.603,-0.114 -1.247,-0.213 -1.728,-0.098 -0.299,0.075 -0.608,0.005 -0.849,-0.182 -0.241,-0.187 -0.383,-0.473 -0.387,-0.776 -0.051,-3.759 0.136,-7.205 0.555,-10.241 0.039,-0.287 0.201,-0.543 0.444,-0.701 1.158,-0.754 3.201,-1.28 4.967,-1.28 2.6,0 4.275,1.16 4.481,3.104 0.028,0.262 -0.049,0.523 -0.213,0.729 -0.947,1.187 -2.299,1.835 -3.605,2.462 -0.888,0.426 -1.733,0.832 -2.379,1.372 0.251,1.338 0.818,2.391 1.416,3.498 l 0.309,0.578 c 0.234,0.444 0.102,0.994 -0.31,1.284 -0.394,0.278 -0.857,0.413 -1.413,0.413 z m -2.259,-2.312 c 0.484,0.022 0.937,0.107 1.342,0.185 0.055,0.01 0.108,0.021 0.161,0.03 -0.582,-1.122 -1.112,-2.339 -1.306,-3.923 -0.036,-0.296 0.062,-0.592 0.266,-0.809 0.925,-0.977 2.137,-1.559 3.309,-2.12 0.986,-0.474 1.926,-0.924 2.592,-1.563 -0.351,-0.758 -1.457,-0.93 -2.39,-0.93 -1.282,0 -2.667,0.353 -3.495,0.747 -0.322,2.526 -0.483,5.339 -0.479,8.383 z"
   style="fill:#be6f26;fill-rule:nonzero" />

            </g>

            <g
   id="g346">
                <g
   id="g340">
                    <path
   id="path338"
   d="m 61.449,132.116 c -1.533,1.92 -4.592,2.316 -6.271,4.091 0.247,2.024 1.124,3.421 1.908,4.909 -0.961,0.676 -2.519,-0.381 -4.09,0 -0.049,-3.595 0.115,-6.976 0.545,-10.091 1.872,-1.218 7.566,-2.126 7.908,1.091 z"
   style="fill:#f28e1b" />

                </g>

                <g
   id="g344">
                    <path
   id="path342"
   d="m 56.247,142.348 c -0.431,0 -0.866,-0.082 -1.288,-0.162 -0.603,-0.114 -1.247,-0.213 -1.728,-0.098 -0.299,0.075 -0.608,0.005 -0.849,-0.182 -0.241,-0.187 -0.383,-0.473 -0.387,-0.776 -0.051,-3.759 0.136,-7.205 0.555,-10.241 0.039,-0.287 0.201,-0.543 0.444,-0.701 1.158,-0.754 3.201,-1.28 4.967,-1.28 2.6,0 4.275,1.16 4.481,3.104 0.028,0.262 -0.049,0.523 -0.213,0.729 -0.947,1.187 -2.299,1.835 -3.605,2.462 -0.888,0.426 -1.733,0.832 -2.379,1.372 0.251,1.338 0.818,2.391 1.416,3.498 l 0.309,0.578 c 0.234,0.444 0.102,0.994 -0.31,1.284 -0.394,0.278 -0.857,0.413 -1.413,0.413 z m -2.259,-2.312 c 0.484,0.022 0.937,0.107 1.342,0.185 0.055,0.01 0.108,0.021 0.161,0.03 -0.582,-1.122 -1.112,-2.339 -1.306,-3.923 -0.036,-0.296 0.062,-0.592 0.266,-0.809 0.925,-0.977 2.137,-1.559 3.309,-2.12 0.986,-0.474 1.926,-0.924 2.592,-1.563 -0.351,-0.758 -1.457,-0.93 -2.39,-0.93 -1.282,0 -2.667,0.353 -3.495,0.747 -0.322,2.526 -0.483,5.339 -0.479,8.383 z"
   style="fill:#be6f26;fill-rule:nonzero" />

                </g>

            </g>

            <path
   id="path348"
   d="m 80.677,153 c 0.119,1.026 -4.269,1.605 -4.783,2 -5.644,-2.174 -14.444,-3.656 -13.081,-14.157 -0.012,-5.439 6.324,-0.985 6.582,0 0,9.459 6.002,10.982 11.282,12.157 z"
   style="fill:#f28e1b" />

            <g
   id="g352">
                <path
   id="path350"
   d="m 80.677,153 c 0.119,1.026 -4.269,1.605 -4.783,2 -5.644,-2.174 -14.444,-3.656 -13.081,-14.157 -0.012,-5.439 6.324,-0.985 6.582,0 0,9.459 6.002,10.982 11.282,12.157 z"
   style="fill:#f28e1b" />

            </g>

            <path
   id="path354"
   d="m 75.937,156.018 c -0.129,0 -0.262,-0.03 -0.402,-0.084 -0.692,-0.268 -1.434,-0.523 -2.197,-0.787 -5.396,-1.866 -12.783,-4.421 -11.524,-14.369 0.009,-1.252 0.325,-2.2 0.942,-2.819 0.501,-0.502 1.184,-0.767 1.976,-0.767 2.229,0 5.322,2.217 5.632,3.398 0.021,0.082 0.032,0.168 0.032,0.253 0,8.845 5.578,10.086 10.499,11.181 0.416,0.093 0.728,0.438 0.776,0.861 0.181,1.555 -1.963,2.096 -4.035,2.619 -0.446,0.112 -1.059,0.267 -1.212,0.341 -0.157,0.12 -0.319,0.173 -0.487,0.173 z M 64.73,139.191 c -0.341,0 -0.482,0.103 -0.56,0.18 -0.135,0.135 -0.36,0.505 -0.358,1.47 0,0.044 -0.003,0.087 -0.009,0.131 -1.088,8.385 4.644,10.367 10.187,12.284 0.645,0.223 1.273,0.44 1.872,0.663 0.302,-0.104 0.706,-0.209 1.283,-0.354 0.208,-0.053 0.478,-0.121 0.766,-0.198 -4.546,-1.233 -9.416,-3.693 -9.515,-12.256 -0.475,-0.567 -2.393,-1.92 -3.666,-1.92 z"
   style="fill:#be6f26;fill-rule:nonzero" />

            <g
   id="g358">
                <path
   id="path356"
   d="m 75.937,156.018 c -0.129,0 -0.262,-0.03 -0.402,-0.084 -0.692,-0.268 -1.434,-0.523 -2.197,-0.787 -5.396,-1.866 -12.783,-4.421 -11.524,-14.369 0.009,-1.252 0.325,-2.2 0.942,-2.819 0.501,-0.502 1.184,-0.767 1.976,-0.767 2.229,0 5.322,2.217 5.632,3.398 0.021,0.082 0.032,0.168 0.032,0.253 0,8.845 5.578,10.086 10.499,11.181 0.416,0.093 0.728,0.438 0.776,0.861 0.181,1.555 -1.963,2.096 -4.035,2.619 -0.446,0.112 -1.059,0.267 -1.212,0.341 -0.157,0.12 -0.319,0.173 -0.487,0.173 z M 64.73,139.191 c -0.341,0 -0.482,0.103 -0.56,0.18 -0.135,0.135 -0.36,0.505 -0.358,1.47 0,0.044 -0.003,0.087 -0.009,0.131 -1.088,8.385 4.644,10.367 10.187,12.284 0.645,0.223 1.273,0.44 1.872,0.663 0.302,-0.104 0.706,-0.209 1.283,-0.354 0.208,-0.053 0.478,-0.121 0.766,-0.198 -4.546,-1.233 -9.416,-3.693 -9.515,-12.256 -0.475,-0.567 -2.393,-1.92 -3.666,-1.92 z"
   style="fill:#be6f26;fill-rule:nonzero" />

            </g>

            <g
   id="g368">
                <g
   id="g362">
                    <path
   id="path360"
   d="m 80.677,153 c 0.119,1.026 -4.269,1.605 -4.783,2 -5.644,-2.174 -14.444,-3.656 -13.081,-14.157 -0.012,-5.439 6.324,-0.985 6.582,0 0,9.459 6.002,10.982 11.282,12.157 z"
   style="fill:#f28e1b" />

                </g>

                <g
   id="g366">
                    <path
   id="path364"
   d="m 75.937,156.018 c -0.129,0 -0.262,-0.03 -0.402,-0.084 -0.692,-0.268 -1.434,-0.523 -2.197,-0.787 -5.396,-1.866 -12.783,-4.421 -11.524,-14.369 0.009,-1.252 0.325,-2.2 0.942,-2.819 0.501,-0.502 1.184,-0.767 1.976,-0.767 2.229,0 5.322,2.217 5.632,3.398 0.021,0.082 0.032,0.168 0.032,0.253 0,8.845 5.578,10.086 10.499,11.181 0.416,0.093 0.728,0.438 0.776,0.861 0.181,1.555 -1.963,2.096 -4.035,2.619 -0.446,0.112 -1.059,0.267 -1.212,0.341 -0.157,0.12 -0.319,0.173 -0.487,0.173 z M 64.73,139.191 c -0.341,0 -0.482,0.103 -0.56,0.18 -0.135,0.135 -0.36,0.505 -0.358,1.47 0,0.044 -0.003,0.087 -0.009,0.131 -1.088,8.385 4.644,10.367 10.187,12.284 0.645,0.223 1.273,0.44 1.872,0.663 0.302,-0.104 0.706,-0.209 1.283,-0.354 0.208,-0.053 0.478,-0.121 0.766,-0.198 -4.546,-1.233 -9.416,-3.693 -9.515,-12.256 -0.475,-0.567 -2.393,-1.92 -3.666,-1.92 z"
   style="fill:#be6f26;fill-rule:nonzero" />

                </g>

            </g>

            <path
   id="path370"
   d="m 60.086,144.843 c -0.069,0 -0.14,-0.008 -0.209,-0.022 -0.314,-0.067 -0.576,-0.28 -0.705,-0.574 -0.178,-0.401 -0.357,-0.8 -0.539,-1.198 -0.844,-1.863 -1.718,-3.791 -2.248,-6.069 -0.103,-0.444 0.107,-0.902 0.512,-1.113 0.523,-0.273 1.014,-0.584 1.533,-0.912 1.203,-0.763 2.448,-1.552 4.184,-1.907 0.066,-0.014 0.135,-0.021 0.201,-0.021 0.402,0 0.775,0.244 0.928,0.631 0.391,0.982 0.938,1.542 1.754,1.782 0.059,-0.067 0.129,-0.22 0.26,-0.556 0.229,-0.593 0.611,-1.586 1.754,-1.835 0.07,-0.015 0.143,-0.022 0.213,-0.022 0.209,0 0.415,0.065 0.588,0.19 0.23,0.168 0.379,0.425 0.407,0.709 0.063,0.633 0.388,1.087 0.763,1.612 0.492,0.69 1.105,1.551 0.859,2.775 -0.417,2.074 -3.313,3.31 -6.111,4.505 -1.408,0.601 -2.864,1.222 -3.474,1.77 -0.187,0.165 -0.426,0.255 -0.67,0.255 z"
   style="fill:#f28e1b" />

            <g
   id="g374">
                <path
   id="path372"
   d="m 60.086,144.843 c -0.069,0 -0.14,-0.008 -0.209,-0.022 -0.314,-0.067 -0.576,-0.28 -0.705,-0.574 -0.178,-0.401 -0.357,-0.8 -0.539,-1.198 -0.844,-1.863 -1.718,-3.791 -2.248,-6.069 -0.103,-0.444 0.107,-0.902 0.512,-1.113 0.523,-0.273 1.014,-0.584 1.533,-0.912 1.203,-0.763 2.448,-1.552 4.184,-1.907 0.066,-0.014 0.135,-0.021 0.201,-0.021 0.402,0 0.775,0.244 0.928,0.631 0.391,0.982 0.938,1.542 1.754,1.782 0.059,-0.067 0.129,-0.22 0.26,-0.556 0.229,-0.593 0.611,-1.586 1.754,-1.835 0.07,-0.015 0.143,-0.022 0.213,-0.022 0.209,0 0.415,0.065 0.588,0.19 0.23,0.168 0.379,0.425 0.407,0.709 0.063,0.633 0.388,1.087 0.763,1.612 0.492,0.69 1.105,1.551 0.859,2.775 -0.417,2.074 -3.313,3.31 -6.111,4.505 -1.408,0.601 -2.864,1.222 -3.474,1.77 -0.187,0.165 -0.426,0.255 -0.67,0.255 z"
   style="fill:#f28e1b" />

            </g>

            <g
   id="g380">
                <g
   id="g378">
                    <path
   id="path376"
   d="m 60.086,144.843 c -0.069,0 -0.14,-0.008 -0.209,-0.022 -0.314,-0.067 -0.576,-0.28 -0.705,-0.574 -0.178,-0.401 -0.357,-0.8 -0.539,-1.198 -0.844,-1.863 -1.718,-3.791 -2.248,-6.069 -0.103,-0.444 0.107,-0.902 0.512,-1.113 0.523,-0.273 1.014,-0.584 1.533,-0.912 1.203,-0.763 2.448,-1.552 4.184,-1.907 0.066,-0.014 0.135,-0.021 0.201,-0.021 0.402,0 0.775,0.244 0.928,0.631 0.391,0.982 0.938,1.542 1.754,1.782 0.059,-0.067 0.129,-0.22 0.26,-0.556 0.229,-0.593 0.611,-1.586 1.754,-1.835 0.07,-0.015 0.143,-0.022 0.213,-0.022 0.209,0 0.415,0.065 0.588,0.19 0.23,0.168 0.379,0.425 0.407,0.709 0.063,0.633 0.388,1.087 0.763,1.612 0.492,0.69 1.105,1.551 0.859,2.775 -0.417,2.074 -3.313,3.31 -6.111,4.505 -1.408,0.601 -2.864,1.222 -3.474,1.77 -0.187,0.165 -0.426,0.255 -0.67,0.255 z"
   style="fill:#f28e1b" />

                </g>

            </g>

            <path
   id="path382"
   d="m 67.723,134.025 c 0.191,1.884 1.943,2.563 1.637,4.091 -0.508,2.529 -7.365,4.013 -9.273,5.727 -1.001,-2.271 -2.109,-4.436 -2.727,-7.091 1.793,-0.935 3.191,-2.263 5.454,-2.727 0.491,1.236 1.295,2.159 2.728,2.454 1.37,-0.174 0.911,-2.177 2.181,-2.454 m -4.909,-2 c -0.133,0 -0.268,0.013 -0.402,0.041 -1.914,0.392 -3.297,1.269 -4.518,2.042 -0.5,0.317 -0.974,0.616 -1.46,0.87 -0.809,0.422 -1.229,1.338 -1.023,2.227 0.552,2.374 1.446,4.348 2.312,6.256 0.179,0.396 0.357,0.79 0.533,1.189 0.26,0.586 0.783,1.013 1.41,1.147 0.14,0.03 0.281,0.045 0.42,0.045 0.489,0 0.967,-0.18 1.338,-0.513 0.485,-0.437 1.988,-1.078 3.197,-1.594 3.037,-1.296 6.179,-2.637 6.699,-5.227 0.33,-1.65 -0.486,-2.795 -1.025,-3.553 -0.348,-0.488 -0.547,-0.781 -0.582,-1.133 -0.059,-0.567 -0.354,-1.083 -0.816,-1.418 -0.344,-0.25 -0.756,-0.381 -1.174,-0.381 -0.143,0 -0.285,0.015 -0.426,0.046 -1.299,0.283 -1.916,1.199 -2.25,1.912 -0.132,-0.172 -0.256,-0.397 -0.375,-0.696 -0.307,-0.771 -1.053,-1.26 -1.858,-1.26 z"
   style="fill:#be6f26;fill-rule:nonzero" />

            <g
   id="g386">
                <path
   id="path384"
   d="m 67.723,134.025 c 0.191,1.884 1.943,2.563 1.637,4.091 -0.508,2.529 -7.365,4.013 -9.273,5.727 -1.001,-2.271 -2.109,-4.436 -2.727,-7.091 1.793,-0.935 3.191,-2.263 5.454,-2.727 0.491,1.236 1.295,2.159 2.728,2.454 1.37,-0.174 0.911,-2.177 2.181,-2.454 m -4.909,-2 c -0.133,0 -0.268,0.013 -0.402,0.041 -1.914,0.392 -3.297,1.269 -4.518,2.042 -0.5,0.317 -0.974,0.616 -1.46,0.87 -0.809,0.422 -1.229,1.338 -1.023,2.227 0.552,2.374 1.446,4.348 2.312,6.256 0.179,0.396 0.357,0.79 0.533,1.189 0.26,0.586 0.783,1.013 1.41,1.147 0.14,0.03 0.281,0.045 0.42,0.045 0.489,0 0.967,-0.18 1.338,-0.513 0.485,-0.437 1.988,-1.078 3.197,-1.594 3.037,-1.296 6.179,-2.637 6.699,-5.227 0.33,-1.65 -0.486,-2.795 -1.025,-3.553 -0.348,-0.488 -0.547,-0.781 -0.582,-1.133 -0.059,-0.567 -0.354,-1.083 -0.816,-1.418 -0.344,-0.25 -0.756,-0.381 -1.174,-0.381 -0.143,0 -0.285,0.015 -0.426,0.046 -1.299,0.283 -1.916,1.199 -2.25,1.912 -0.132,-0.172 -0.256,-0.397 -0.375,-0.696 -0.307,-0.771 -1.053,-1.26 -1.858,-1.26 z"
   style="fill:#be6f26;fill-rule:nonzero" />

            </g>

            <g
   id="g392">
                <g
   id="g390">
                    <path
   id="path388"
   d="m 67.723,134.025 c 0.191,1.884 1.943,2.563 1.637,4.091 -0.508,2.529 -7.365,4.013 -9.273,5.727 -1.001,-2.271 -2.109,-4.436 -2.727,-7.091 1.793,-0.935 3.191,-2.263 5.454,-2.727 0.491,1.236 1.295,2.159 2.728,2.454 1.37,-0.174 0.911,-2.177 2.181,-2.454 m -4.909,-2 c -0.133,0 -0.268,0.013 -0.402,0.041 -1.914,0.392 -3.297,1.269 -4.518,2.042 -0.5,0.317 -0.974,0.616 -1.46,0.87 -0.809,0.422 -1.229,1.338 -1.023,2.227 0.552,2.374 1.446,4.348 2.312,6.256 0.179,0.396 0.357,0.79 0.533,1.189 0.26,0.586 0.783,1.013 1.41,1.147 0.14,0.03 0.281,0.045 0.42,0.045 0.489,0 0.967,-0.18 1.338,-0.513 0.485,-0.437 1.988,-1.078 3.197,-1.594 3.037,-1.296 6.179,-2.637 6.699,-5.227 0.33,-1.65 -0.486,-2.795 -1.025,-3.553 -0.348,-0.488 -0.547,-0.781 -0.582,-1.133 -0.059,-0.567 -0.354,-1.083 -0.816,-1.418 -0.344,-0.25 -0.756,-0.381 -1.174,-0.381 -0.143,0 -0.285,0.015 -0.426,0.046 -1.299,0.283 -1.916,1.199 -2.25,1.912 -0.132,-0.172 -0.256,-0.397 -0.375,-0.696 -0.307,-0.771 -1.053,-1.26 -1.858,-1.26 z"
   style="fill:#be6f26;fill-rule:nonzero" />

                </g>

            </g>

            <g
   id="g406">
                <g
   id="g398">
                    <g
   id="g396">
                        <path
   id="path394"
   d="m 60.086,144.843 c -0.069,0 -0.14,-0.008 -0.209,-0.022 -0.314,-0.067 -0.576,-0.28 -0.705,-0.574 -0.178,-0.401 -0.357,-0.8 -0.539,-1.198 -0.844,-1.863 -1.718,-3.791 -2.248,-6.069 -0.103,-0.444 0.107,-0.902 0.512,-1.113 0.523,-0.273 1.014,-0.584 1.533,-0.912 1.203,-0.763 2.448,-1.552 4.184,-1.907 0.066,-0.014 0.135,-0.021 0.201,-0.021 0.402,0 0.775,0.244 0.928,0.631 0.391,0.982 0.938,1.542 1.754,1.782 0.059,-0.067 0.129,-0.22 0.26,-0.556 0.229,-0.593 0.611,-1.586 1.754,-1.835 0.07,-0.015 0.143,-0.022 0.213,-0.022 0.209,0 0.415,0.065 0.588,0.19 0.23,0.168 0.379,0.425 0.407,0.709 0.063,0.633 0.388,1.087 0.763,1.612 0.492,0.69 1.105,1.551 0.859,2.775 -0.417,2.074 -3.313,3.31 -6.111,4.505 -1.408,0.601 -2.864,1.222 -3.474,1.77 -0.187,0.165 -0.426,0.255 -0.67,0.255 z"
   style="fill:#f28e1b" />

                    </g>

                </g>

                <g
   id="g404">
                    <g
   id="g402">
                        <path
   id="path400"
   d="m 67.723,134.025 c 0.191,1.884 1.943,2.563 1.637,4.091 -0.508,2.529 -7.365,4.013 -9.273,5.727 -1.001,-2.271 -2.109,-4.436 -2.727,-7.091 1.793,-0.935 3.191,-2.263 5.454,-2.727 0.491,1.236 1.295,2.159 2.728,2.454 1.37,-0.174 0.911,-2.177 2.181,-2.454 m -4.909,-2 c -0.133,0 -0.268,0.013 -0.402,0.041 -1.914,0.392 -3.297,1.269 -4.518,2.042 -0.5,0.317 -0.974,0.616 -1.46,0.87 -0.809,0.422 -1.229,1.338 -1.023,2.227 0.552,2.374 1.446,4.348 2.312,6.256 0.179,0.396 0.357,0.79 0.533,1.189 0.26,0.586 0.783,1.013 1.41,1.147 0.14,0.03 0.281,0.045 0.42,0.045 0.489,0 0.967,-0.18 1.338,-0.513 0.485,-0.437 1.988,-1.078 3.197,-1.594 3.037,-1.296 6.179,-2.637 6.699,-5.227 0.33,-1.65 -0.486,-2.795 -1.025,-3.553 -0.348,-0.488 -0.547,-0.781 -0.582,-1.133 -0.059,-0.567 -0.354,-1.083 -0.816,-1.418 -0.344,-0.25 -0.756,-0.381 -1.174,-0.381 -0.143,0 -0.285,0.015 -0.426,0.046 -1.299,0.283 -1.916,1.199 -2.25,1.912 -0.132,-0.172 -0.256,-0.397 -0.375,-0.696 -0.307,-0.771 -1.053,-1.26 -1.858,-1.26 z"
   style="fill:#be6f26;fill-rule:nonzero" />

                    </g>

                </g>

            </g>

            <path
   id="path408"
   d="m 61.969,135.263 c -0.384,-0.943 -1.045,-2.298 -1.745,-3.731 -0.856,-1.755 -1.743,-3.569 -2.3,-4.988 l -0.438,-1.113 1.174,-0.232 c 0.162,-0.033 0.345,-0.051 0.543,-0.051 2.153,0 6.136,2.116 6.977,4.725 0.64,1.982 -1.055,5.008 -2.833,5.907 l -0.968,0.489 z"
   style="fill:#f28e1b" />

            <g
   id="g412">
                <path
   id="path410"
   d="m 61.969,135.263 c -0.384,-0.943 -1.045,-2.298 -1.745,-3.731 -0.856,-1.755 -1.743,-3.569 -2.3,-4.988 l -0.438,-1.113 1.174,-0.232 c 0.162,-0.033 0.345,-0.051 0.543,-0.051 2.153,0 6.136,2.116 6.977,4.725 0.64,1.982 -1.055,5.008 -2.833,5.907 l -0.968,0.489 z"
   style="fill:#f28e1b" />

            </g>

            <g
   id="g418">
                <g
   id="g416">
                    <path
   id="path414"
   d="m 61.969,135.263 c -0.384,-0.943 -1.045,-2.298 -1.745,-3.731 -0.856,-1.755 -1.743,-3.569 -2.3,-4.988 l -0.438,-1.113 1.174,-0.232 c 0.162,-0.033 0.345,-0.051 0.543,-0.051 2.153,0 6.136,2.116 6.977,4.725 0.64,1.982 -1.055,5.008 -2.833,5.907 l -0.968,0.489 z"
   style="fill:#f28e1b" />

                </g>

            </g>

            <path
   id="path420"
   d="m 59.203,126.146 c 1.722,0 5.32,1.847 6.025,4.031 0.454,1.408 -0.891,3.979 -2.333,4.708 -0.868,-2.132 -3.042,-6.162 -4.042,-8.708 0.106,-0.02 0.223,-0.031 0.35,-0.031 m 0,-2 c -0.259,0 -0.507,0.023 -0.738,0.069 l -2.348,0.465 0.875,2.229 c 0.572,1.456 1.467,3.288 2.333,5.061 0.692,1.418 1.347,2.758 1.718,3.67 l 0.818,2.01 1.936,-0.979 c 2.178,-1.101 4.145,-4.596 3.335,-7.107 -1.014,-3.142 -5.44,-5.418 -7.929,-5.418 z"
   style="fill:#be6f26;fill-rule:nonzero" />

            <g
   id="g424">
                <path
   id="path422"
   d="m 59.203,126.146 c 1.722,0 5.32,1.847 6.025,4.031 0.454,1.408 -0.891,3.979 -2.333,4.708 -0.868,-2.132 -3.042,-6.162 -4.042,-8.708 0.106,-0.02 0.223,-0.031 0.35,-0.031 m 0,-2 c -0.259,0 -0.507,0.023 -0.738,0.069 l -2.348,0.465 0.875,2.229 c 0.572,1.456 1.467,3.288 2.333,5.061 0.692,1.418 1.347,2.758 1.718,3.67 l 0.818,2.01 1.936,-0.979 c 2.178,-1.101 4.145,-4.596 3.335,-7.107 -1.014,-3.142 -5.44,-5.418 -7.929,-5.418 z"
   style="fill:#be6f26;fill-rule:nonzero" />

            </g>

            <g
   id="g430">
                <g
   id="g428">
                    <path
   id="path426"
   d="m 59.203,126.146 c 1.722,0 5.32,1.847 6.025,4.031 0.454,1.408 -0.891,3.979 -2.333,4.708 -0.868,-2.132 -3.042,-6.162 -4.042,-8.708 0.106,-0.02 0.223,-0.031 0.35,-0.031 m 0,-2 c -0.259,0 -0.507,0.023 -0.738,0.069 l -2.348,0.465 0.875,2.229 c 0.572,1.456 1.467,3.288 2.333,5.061 0.692,1.418 1.347,2.758 1.718,3.67 l 0.818,2.01 1.936,-0.979 c 2.178,-1.101 4.145,-4.596 3.335,-7.107 -1.014,-3.142 -5.44,-5.418 -7.929,-5.418 z"
   style="fill:#be6f26;fill-rule:nonzero" />

                </g>

            </g>

            <g
   id="g444">
                <g
   id="g436">
                    <g
   id="g434">
                        <path
   id="path432"
   d="m 61.969,135.263 c -0.384,-0.943 -1.045,-2.298 -1.745,-3.731 -0.856,-1.755 -1.743,-3.569 -2.3,-4.988 l -0.438,-1.113 1.174,-0.232 c 0.162,-0.033 0.345,-0.051 0.543,-0.051 2.153,0 6.136,2.116 6.977,4.725 0.64,1.982 -1.055,5.008 -2.833,5.907 l -0.968,0.489 z"
   style="fill:#f28e1b" />

                    </g>

                </g>

                <g
   id="g442">
                    <g
   id="g440">
                        <path
   id="path438"
   d="m 59.203,126.146 c 1.722,0 5.32,1.847 6.025,4.031 0.454,1.408 -0.891,3.979 -2.333,4.708 -0.868,-2.132 -3.042,-6.162 -4.042,-8.708 0.106,-0.02 0.223,-0.031 0.35,-0.031 m 0,-2 c -0.259,0 -0.507,0.023 -0.738,0.069 l -2.348,0.465 0.875,2.229 c 0.572,1.456 1.467,3.288 2.333,5.061 0.692,1.418 1.347,2.758 1.718,3.67 l 0.818,2.01 1.936,-0.979 c 2.178,-1.101 4.145,-4.596 3.335,-7.107 -1.014,-3.142 -5.44,-5.418 -7.929,-5.418 z"
   style="fill:#be6f26;fill-rule:nonzero" />

                    </g>

                </g>

            </g>

            <g
   id="g518">
                <g
   id="g454">
                    <g
   id="g448">
                        <path
   id="path446"
   d="m 108.358,133.479 c -0.092,3.637 -0.676,6.266 -1.092,9.577 -8.145,-3.091 -42.954,-3.742 -54.271,-1.94 -0.009,-4.98 0.641,-6.359 0,-9.774 7.568,-8.561 48.943,-2.956 55.363,2.137 z"
   style="fill:#f28e1b" />

                    </g>

                    <g
   id="g452">
                        <path
   id="path450"
   d="m 107.267,144.057 c -0.12,0 -0.24,-0.021 -0.354,-0.065 -5.193,-1.971 -21.475,-2.868 -34.403,-2.868 -8.386,0 -15.44,0.357 -19.355,0.98 -0.289,0.049 -0.582,-0.037 -0.806,-0.226 -0.223,-0.19 -0.351,-0.468 -0.352,-0.76 -0.004,-1.967 0.096,-3.409 0.176,-4.568 0.126,-1.842 0.21,-3.059 -0.158,-5.023 -0.058,-0.304 0.029,-0.616 0.233,-0.847 3.481,-3.939 12.743,-4.767 19.9,-4.767 14.273,0 32.518,3.359 36.832,6.783 0.246,0.195 0.387,0.494 0.379,0.809 -0.066,2.622 -0.377,4.698 -0.707,6.896 -0.134,0.896 -0.271,1.809 -0.393,2.78 -0.038,0.304 -0.214,0.574 -0.477,0.731 -0.158,0.097 -0.336,0.145 -0.515,0.145 z m -34.758,-4.934 c 12.67,0 27.585,0.812 33.926,2.611 0.078,-0.555 0.159,-1.095 0.239,-1.63 0.297,-1.982 0.579,-3.863 0.668,-6.123 -4.322,-2.801 -20.822,-6.068 -35.194,-6.068 -9.126,0 -15.504,1.331 -18.079,3.758 0.311,1.938 0.216,3.312 0.099,5.016 -0.064,0.931 -0.135,1.96 -0.161,3.275 4.156,-0.536 10.784,-0.839 18.502,-0.839 z"
   style="fill:#be6f26;fill-rule:nonzero" />

                    </g>

                </g>

                <g
   id="g468">
                    <g
   id="g460">
                        <g
   id="g458">
                            <path
   id="path456"
   d="m 70.723,141.843 c -0.32,0 -0.623,-0.154 -0.813,-0.416 -0.199,-0.277 -0.244,-0.638 -0.117,-0.955 1.254,-3.142 -0.605,-6.073 -2.402,-8.908 -0.742,-1.17 -1.443,-2.275 -1.945,-3.404 -0.176,-0.396 -0.078,-0.858 0.243,-1.148 1.103,-0.996 2.827,-1.078 4.647,-1.078 l 0.932,0.002 c 0.41,0 0.777,0.249 0.93,0.63 0.344,0.863 1.014,1.993 1.723,3.189 1.9,3.209 4.056,6.846 2.648,9.487 -0.84,1.576 -2.734,2.427 -5.789,2.6 -0.02,0 -0.04,10e-4 -0.057,10e-4 z"
   style="fill:#f28e1b" />

                        </g>

                    </g>

                    <g
   id="g466">
                        <g
   id="g464">
                            <path
   id="path462"
   d="m 70.336,126.933 c 0.31,0 0.622,0.002 0.932,0.002 1.723,4.321 10.08,13.305 -0.545,13.908 1.988,-4.983 -2.643,-9.218 -4.363,-13.09 0.839,-0.759 2.376,-0.82 3.976,-0.82 m 0,-2 c -2.023,0 -3.951,0.102 -5.318,1.336 -0.641,0.58 -0.838,1.507 -0.486,2.297 0.531,1.196 1.285,2.385 2.014,3.534 1.74,2.743 3.385,5.334 2.32,8.002 -0.254,0.635 -0.166,1.354 0.234,1.909 0.377,0.524 0.981,0.832 1.623,0.832 0.037,0 0.074,-10e-4 0.113,-0.003 3.434,-0.195 5.597,-1.219 6.614,-3.128 1.673,-3.139 -0.635,-7.032 -2.671,-10.468 -0.688,-1.162 -1.338,-2.26 -1.653,-3.05 -0.304,-0.761 -1.039,-1.26 -1.858,-1.26 l -0.459,-10e-4 z"
   style="fill:#be6f26;fill-rule:nonzero" />

                        </g>

                    </g>

                </g>

                <g
   id="g478">
                    <g
   id="g472">
                        <path
   id="path470"
   d="m 61.449,132.116 c -1.533,1.92 -4.592,2.316 -6.271,4.091 0.247,2.024 1.124,3.421 1.908,4.909 -0.961,0.676 -2.519,-0.381 -4.09,0 -0.049,-3.595 0.115,-6.976 0.545,-10.091 1.872,-1.218 7.566,-2.126 7.908,1.091 z"
   style="fill:#f28e1b" />

                    </g>

                    <g
   id="g476">
                        <path
   id="path474"
   d="m 56.247,142.348 c -0.431,0 -0.866,-0.082 -1.288,-0.162 -0.603,-0.114 -1.247,-0.213 -1.728,-0.098 -0.299,0.075 -0.608,0.005 -0.849,-0.182 -0.241,-0.187 -0.383,-0.473 -0.387,-0.776 -0.051,-3.759 0.136,-7.205 0.555,-10.241 0.039,-0.287 0.201,-0.543 0.444,-0.701 1.158,-0.754 3.201,-1.28 4.967,-1.28 2.6,0 4.275,1.16 4.481,3.104 0.028,0.262 -0.049,0.523 -0.213,0.729 -0.947,1.187 -2.299,1.835 -3.605,2.462 -0.888,0.426 -1.733,0.832 -2.379,1.372 0.251,1.338 0.818,2.391 1.416,3.498 l 0.309,0.578 c 0.234,0.444 0.102,0.994 -0.31,1.284 -0.394,0.278 -0.857,0.413 -1.413,0.413 z m -2.259,-2.312 c 0.484,0.022 0.937,0.107 1.342,0.185 0.055,0.01 0.108,0.021 0.161,0.03 -0.582,-1.122 -1.112,-2.339 -1.306,-3.923 -0.036,-0.296 0.062,-0.592 0.266,-0.809 0.925,-0.977 2.137,-1.559 3.309,-2.12 0.986,-0.474 1.926,-0.924 2.592,-1.563 -0.351,-0.758 -1.457,-0.93 -2.39,-0.93 -1.282,0 -2.667,0.353 -3.495,0.747 -0.322,2.526 -0.483,5.339 -0.479,8.383 z"
   style="fill:#be6f26;fill-rule:nonzero" />

                    </g>

                </g>

                <g
   id="g488">
                    <g
   id="g482">
                        <path
   id="path480"
   d="m 80.677,153 c 0.119,1.026 -4.269,1.605 -4.783,2 -5.644,-2.174 -14.444,-3.656 -13.081,-14.157 -0.012,-5.439 6.324,-0.985 6.582,0 0,9.459 6.002,10.982 11.282,12.157 z"
   style="fill:#f28e1b" />

                    </g>

                    <g
   id="g486">
                        <path
   id="path484"
   d="m 75.937,156.018 c -0.129,0 -0.262,-0.03 -0.402,-0.084 -0.692,-0.268 -1.434,-0.523 -2.197,-0.787 -5.396,-1.866 -12.783,-4.421 -11.524,-14.369 0.009,-1.252 0.325,-2.2 0.942,-2.819 0.501,-0.502 1.184,-0.767 1.976,-0.767 2.229,0 5.322,2.217 5.632,3.398 0.021,0.082 0.032,0.168 0.032,0.253 0,8.845 5.578,10.086 10.499,11.181 0.416,0.093 0.728,0.438 0.776,0.861 0.181,1.555 -1.963,2.096 -4.035,2.619 -0.446,0.112 -1.059,0.267 -1.212,0.341 -0.157,0.12 -0.319,0.173 -0.487,0.173 z M 64.73,139.191 c -0.341,0 -0.482,0.103 -0.56,0.18 -0.135,0.135 -0.36,0.505 -0.358,1.47 0,0.044 -0.003,0.087 -0.009,0.131 -1.088,8.385 4.644,10.367 10.187,12.284 0.645,0.223 1.273,0.44 1.872,0.663 0.302,-0.104 0.706,-0.209 1.283,-0.354 0.208,-0.053 0.478,-0.121 0.766,-0.198 -4.546,-1.233 -9.416,-3.693 -9.515,-12.256 -0.475,-0.567 -2.393,-1.92 -3.666,-1.92 z"
   style="fill:#be6f26;fill-rule:nonzero" />

                    </g>

                </g>

                <g
   id="g502">
                    <g
   id="g494">
                        <g
   id="g492">
                            <path
   id="path490"
   d="m 60.086,144.843 c -0.069,0 -0.14,-0.008 -0.209,-0.022 -0.314,-0.067 -0.576,-0.28 -0.705,-0.574 -0.178,-0.401 -0.357,-0.8 -0.539,-1.198 -0.844,-1.863 -1.718,-3.791 -2.248,-6.069 -0.103,-0.444 0.107,-0.902 0.512,-1.113 0.523,-0.273 1.014,-0.584 1.533,-0.912 1.203,-0.763 2.448,-1.552 4.184,-1.907 0.066,-0.014 0.135,-0.021 0.201,-0.021 0.402,0 0.775,0.244 0.928,0.631 0.391,0.982 0.938,1.542 1.754,1.782 0.059,-0.067 0.129,-0.22 0.26,-0.556 0.229,-0.593 0.611,-1.586 1.754,-1.835 0.07,-0.015 0.143,-0.022 0.213,-0.022 0.209,0 0.415,0.065 0.588,0.19 0.23,0.168 0.379,0.425 0.407,0.709 0.063,0.633 0.388,1.087 0.763,1.612 0.492,0.69 1.105,1.551 0.859,2.775 -0.417,2.074 -3.313,3.31 -6.111,4.505 -1.408,0.601 -2.864,1.222 -3.474,1.77 -0.187,0.165 -0.426,0.255 -0.67,0.255 z"
   style="fill:#f28e1b" />

                        </g>

                    </g>

                    <g
   id="g500">
                        <g
   id="g498">
                            <path
   id="path496"
   d="m 67.723,134.025 c 0.191,1.884 1.943,2.563 1.637,4.091 -0.508,2.529 -7.365,4.013 -9.273,5.727 -1.001,-2.271 -2.109,-4.436 -2.727,-7.091 1.793,-0.935 3.191,-2.263 5.454,-2.727 0.491,1.236 1.295,2.159 2.728,2.454 1.37,-0.174 0.911,-2.177 2.181,-2.454 m -4.909,-2 c -0.133,0 -0.268,0.013 -0.402,0.041 -1.914,0.392 -3.297,1.269 -4.518,2.042 -0.5,0.317 -0.974,0.616 -1.46,0.87 -0.809,0.422 -1.229,1.338 -1.023,2.227 0.552,2.374 1.446,4.348 2.312,6.256 0.179,0.396 0.357,0.79 0.533,1.189 0.26,0.586 0.783,1.013 1.41,1.147 0.14,0.03 0.281,0.045 0.42,0.045 0.489,0 0.967,-0.18 1.338,-0.513 0.485,-0.437 1.988,-1.078 3.197,-1.594 3.037,-1.296 6.179,-2.637 6.699,-5.227 0.33,-1.65 -0.486,-2.795 -1.025,-3.553 -0.348,-0.488 -0.547,-0.781 -0.582,-1.133 -0.059,-0.567 -0.354,-1.083 -0.816,-1.418 -0.344,-0.25 -0.756,-0.381 -1.174,-0.381 -0.143,0 -0.285,0.015 -0.426,0.046 -1.299,0.283 -1.916,1.199 -2.25,1.912 -0.132,-0.172 -0.256,-0.397 -0.375,-0.696 -0.307,-0.771 -1.053,-1.26 -1.858,-1.26 z"
   style="fill:#be6f26;fill-rule:nonzero" />

                        </g>

                    </g>

                </g>

                <g
   id="g516">
                    <g
   id="g508">
                        <g
   id="g506">
                            <path
   id="path504"
   d="m 61.969,135.263 c -0.384,-0.943 -1.045,-2.298 -1.745,-3.731 -0.856,-1.755 -1.743,-3.569 -2.3,-4.988 l -0.438,-1.113 1.174,-0.232 c 0.162,-0.033 0.345,-0.051 0.543,-0.051 2.153,0 6.136,2.116 6.977,4.725 0.64,1.982 -1.055,5.008 -2.833,5.907 l -0.968,0.489 z"
   style="fill:#f28e1b" />

                        </g>

                    </g>

                    <g
   id="g514">
                        <g
   id="g512">
                            <path
   id="path510"
   d="m 59.203,126.146 c 1.722,0 5.32,1.847 6.025,4.031 0.454,1.408 -0.891,3.979 -2.333,4.708 -0.868,-2.132 -3.042,-6.162 -4.042,-8.708 0.106,-0.02 0.223,-0.031 0.35,-0.031 m 0,-2 c -0.259,0 -0.507,0.023 -0.738,0.069 l -2.348,0.465 0.875,2.229 c 0.572,1.456 1.467,3.288 2.333,5.061 0.692,1.418 1.347,2.758 1.718,3.67 l 0.818,2.01 1.936,-0.979 c 2.178,-1.101 4.145,-4.596 3.335,-7.107 -1.014,-3.142 -5.44,-5.418 -7.929,-5.418 z"
   style="fill:#be6f26;fill-rule:nonzero" />

                        </g>

                    </g>

                </g>

            </g>

            <path
   id="path520"
   d="m 104.041,152.431 h 7 c 0.934,0 1.699,-0.301 2.299,-0.9 0.734,-0.732 1.102,-1.799 1.102,-3.199 0,-1.467 -0.367,-2.566 -1.102,-3.301 -0.6,-0.533 -1.365,-0.801 -2.299,-0.801 H 100.24 l 1.5,-3.1 h 9.401 c 1.666,0 3.033,0.533 4.1,1.6 1.201,1.201 1.801,3.068 1.801,5.602 0,2.467 -0.6,4.299 -1.801,5.5 -1.066,1.066 -2.434,1.6 -4.1,1.6 H 97.84 v -3 h 6.201"
   style="fill:#010202;fill-rule:nonzero" />

            <g
   id="g524">
                <path
   id="path522"
   d="m 104.041,152.431 h 7 c 0.934,0 1.699,-0.301 2.299,-0.9 0.734,-0.732 1.102,-1.799 1.102,-3.199 0,-1.467 -0.367,-2.566 -1.102,-3.301 -0.6,-0.533 -1.365,-0.801 -2.299,-0.801 H 100.24 l 1.5,-3.1 h 9.401 c 1.666,0 3.033,0.533 4.1,1.6 1.201,1.201 1.801,3.068 1.801,5.602 0,2.467 -0.6,4.299 -1.801,5.5 -1.066,1.066 -2.434,1.6 -4.1,1.6 H 97.84 v -3 h 6.201"
   style="fill:#010202;fill-rule:nonzero" />

            </g>

            <g
   id="g532">
                <path
   id="path528"
   d="m 49.685,95.667 c 0,0 -9.375,0.875 -8.125,9.25 0,0 1,4.125 4.875,3.375 l 9.25,9.75"
   style="fill:none;stroke:#000000;stroke-width:2.4px" />

                <path
   id="path530"
   d="m 111.685,99.042 7.5,12.125 c 0,0 8.25,4.25 0.75,9.625 0,0 -7,4.625 -10,-0.875 0,0 -1.125,-2.25 -0.375,-3.75 l -6.5,-9.625"
   style="fill:none;stroke:#000000;stroke-width:2.4px;stroke-linecap:butt" />

            </g>

            <path
   id="path526"
   d="m 75.34,170.03 c 0,2.6 -0.699,4.666 -2.1,6.199 -1.467,1.668 -3.199,2.5 -5.199,2.5 -2,0 -3.768,-0.832 -5.301,-2.5 -1.4,-1.533 -2.1,-3.6 -2.1,-6.199 v -10.4 h 2.4 v 10.4 c 0,1.801 0.5,3.301 1.5,4.5 1,1 2.166,1.5 3.5,1.5 1.332,0 2.467,-0.5 3.4,-1.5 1,-1.199 1.533,-2.699 1.6,-4.5 v -10.4 h 2.299 v 10.4"
   style="fill:#010202;fill-rule:nonzero" />

        </g>

    </g>
  </g>
</svg>
