<svg xmlns="http://www.w3.org/2000/svg" height="182" width="160"><path d="M115.738 61.101h-.1l-2 2.4 1.02 1.51 3.568 5.554 2.852 4.48 2.29 1.051c-.467 2.066 2.312 2.014.913 2.149 0 0-.128 5.087-1.06 4.288l-5.606 3.162-4.954-.747-1.222-2.736-1.154-3.224-2.244 18.312h.1l-.1.801v.1h-.102l-.5 6.199h-4.6l-1.5 3.1h10.801c.934 0 1.699.268 2.299.801.734.734 1.102 1.834 1.102 3.301 0 1.4-.367 2.467-1.102 3.199-.6.6-1.365.9-2.299.9h-7v-.9l-.301.9h-5.9v2.9l-14.398-1.4v-.1h-4.9l-3.1 3.398v2.4h-2.403v10.4c-.066 1.801-.6 3.301-1.6 4.5-.934 1-2.068 1.5-3.4 1.5-1.334 0-2.5-.5-3.5-1.5-1-1.199-1.5-2.699-1.5-4.5v-10.4h-2.4l-3.199-4.699.199-.201c-2.4-2.533-3.834-5.299-4.301-8.299l-.199-2.4.1-1.9 1.1-3.699h.201v-1.1l.299-.301v-2.7h-.1l-.1-1.6v-4.102l-.4-1.299-.299-.9.299-.801.5-1 .5-1.5h.201l.293-4.934-1.706-2.262-4.857-5.375s-2.677.176-3.143-1.891l-2.795-.708-1.612-2.168.016-3.643 2.863-4.556 5.42-1.424s-4.479-7.203-4.28-12.537c-.199-7.066 3.367-13.6 10.699-19.6 7.334-6.732 16.102-10.434 26.301-11.1 10.133.666 18.834 4.367 26.1 11.1 7.268 6 10.9 12.533 10.9 19.6 0 5.334-1.732 10.066-5.199 14.201h.199M62.538 87.3h.1l-.1-.1v.1m-7.3 13.1-.1-.199.1.199" fill="#fff" clip-rule="evenodd"/><path d="M76.437 133.3c0 2.6-.699 4.666-2.1 6.199-1.467 1.668-3.199 2.5-5.199 2.5s-3.768-.832-5.301-2.5c-1.4-1.533-2.1-3.6-2.1-6.199v-10.4h2.4v10.4c0 1.801.5 3.301 1.5 4.5 1 1 2.166 1.5 3.5 1.5 1.332 0 2.467-.5 3.4-1.5 1-1.199 1.533-2.699 1.6-4.5v-10.4h2.299v10.4" clip-rule="evenodd" fill="#010202"/><path d="M109.197 37.359h1.337l4.68 4.1-1.715 1.018-3.634-3.285-3.634 3.285-1.715-1.018z" clip-rule="evenodd"/><path d="M86.667 5.91c.01 5.42-3.43 9.63-6.271 13.091.601.939 1.351 1.739 1.361 3.269-.391.07-.46.45-.82.55-2.029.12-2.14-1.97-3.27-3-2.541-2.319-6.24-2.93-9.271-4.91-.489-2.27 1.021-3.81 2.729-3 1.611-.199.48-3.149 2.451-3 1.41.891-.201 2.681-.271 3.82.21.06.53.01.54.271 1.24.22 1.59 1.319 3 1.369.061-.949.23-1.779 1.37-1.64.86-.13.2 1.25.81 1.36.24-.95.41-1.95 1.91-1.63.84 1.579-1.439 3.31-1.09 4.359 3.029-2.7 3.87-7.59 6.27-10.91.16-1.34.561-3.12 0-4.359C83.397-.23 77.147-.93 73.577-.09c-.801 3.29-1 7.19-2.451 9.82-1.459.271-2.619.84-3.819 1.36-8.97-6.14-19.489 1.32-18.819 11.18-2.971 3.87-6.19 7.75-6.82 13.37-1 9.02 4.229 13.37 9 16.36 6.4 4 15.89 3.25 21 7.359 9.64.22 13.66-7.13 19.91-11.18 6.609 5.62 7.979-5.74 9-10.91 1.299.12 2.039-.32 2.729-.81 1.021-2.98 1.54-6.46 1.91-10.101 2.739-3.37 7.03-6.06 6.81-11.45-.369-9.328-14.51-9.858-25.36-8.998z" clip-rule="evenodd" fill="#020303" fill-rule="evenodd"/><path d="M73.847 13c-.84-.431-1.77-.771-2.721-1.091 1.611-.199.48-3.149 2.451-3 1.41.891-.201 2.681-.271 3.82.211.061.531.011.541.271zM76.849.73h1.092c.076 3.006.3 8.466-2.729 9.272-.193-2.764 1.233-6.204 1.637-9.272z" clip-rule="evenodd" fill="#c3c7c5" fill-rule="evenodd"/><path d="M81.757 22.27c-.391.07-.46.45-.82.55-2.029.12-2.14-1.97-3.27-3-2.541-2.319-6.24-2.93-9.271-4.91-.489-2.27 1.021-3.81 2.729-3 .951.32 1.881.66 2.721 1.091 1.24.22 1.59 1.319 3 1.369.33 1.351 2.9 2.7 3.55 4.631.601.939 1.351 1.739 1.361 3.269z" clip-rule="evenodd" fill="#fff" fill-rule="evenodd"/><path d="M86.667 6.27c.01 5-3.43 9.449-6.271 12.91-.649-1.93-3.22-3.37-3.55-4.721.061-.949.23-1.824 1.37-1.685.86-.13.2 1.228.81 1.338.24-.95.41-1.961 1.91-1.641.84 1.579-1.439 3.483-1.09 4.533 3.03-2.699 3.871-7.734 6.271-10.734zm-27 14.641c-.848 2.668-.23 4.546.546 6.818-3.251 1.645-4.036-8.075-.546-6.818zm.546 16.909c.343 2.207-1.88 4.094-3 5.999-1.124 1.914-1.55 4.952-3.817 5.728.176-4.924 3.176-9.363 6.817-11.727zm16.363 17.726c-1.116-.892-.071-2.047 0-3.272.224-3.856-.999-8.494-.546-10.909.317-.044.486.061.546.272.317-.044.485.061.546.273 1.038 2.317 2.489 11.961-.546 13.636zm-4.635-10.363h1.09c.686 1.631 1.066 5.884-.545 6.817-1.593-.716-.721-5.228-.545-6.817zm-18.545-.818c.116 1.616-.732 4.26-2.728 4.636-.394-1.809.495-4.558 2.728-4.636zm54.543-27.273c-1.244.063-.863-1.499-1.363-2.182-1.584-1.343-3.512-2.178-5.727-2.182-2.938-.005-5.204 2.23-7.363 1.909 1.468-6.069 17.902-3.979 14.453 2.455zm-48.272.546c-1.795 1.659-3.67 3.239-4.363 6-3.615-1.453 2.734-8.678 4.363-6z" clip-rule="evenodd" fill="#c3c7c5" fill-rule="evenodd"/><path d="M48.214 23.092c1.741-.265 1.591 1.598 2.454 2.728 3.095 4.05 11.874 8.994 19.908 6.272 2.44-.826 6.815-3.463 6.818-7.091.001-2.079-1.921-2.586-.818-4.363h1.091c2.111 1.983 1.908 6.521 0 9-6.846 8.9-28.824 4.065-29.453-6.546z" clip-rule="evenodd" fill="#c3c7c5" fill-rule="evenodd"/><g clip-rule="evenodd" fill-rule="evenodd" stroke-linecap="square" stroke-linejoin="round" stroke-miterlimit="1.5"><path d="M109.455 96.749c-.092 3.637-.676 6.266-1.092 9.577-8.145-3.091-42.954-3.742-54.271-1.94-.009-4.98.641-6.359 0-9.774 7.568-8.561 48.943-2.956 55.363 2.137z" fill="#f28e1b"/><path d="M108.364 107.327a.982.982 0 0 1-.354-.065c-5.193-1.971-21.475-2.868-34.403-2.868-8.386 0-15.44.357-19.355.98a1.003 1.003 0 0 1-1.158-.986c-.004-1.967.096-3.409.176-4.568.126-1.842.21-3.059-.158-5.023a.997.997 0 0 1 .233-.847c3.481-3.939 12.743-4.767 19.9-4.767 14.273 0 32.518 3.359 36.832 6.783a1 1 0 0 1 .379.809c-.066 2.622-.377 4.698-.707 6.896-.134.896-.271 1.809-.393 2.78a.995.995 0 0 1-.477.731.982.982 0 0 1-.515.145zm-34.758-4.934c12.67 0 27.585.812 33.926 2.611.078-.555.159-1.095.239-1.63.297-1.982.579-3.863.668-6.123-4.322-2.801-20.822-6.068-35.194-6.068-9.126 0-15.504 1.331-18.079 3.758.311 1.938.216 3.312.099 5.016-.064.931-.135 1.96-.161 3.275 4.156-.536 10.784-.839 18.502-.839z" fill="#be6f26" fill-rule="nonzero"/><path d="M71.82 105.113a1.001 1.001 0 0 1-.93-1.371c1.254-3.142-.605-6.073-2.402-8.908-.742-1.17-1.443-2.275-1.945-3.404a.998.998 0 0 1 .243-1.148c1.103-.996 2.827-1.078 4.647-1.078l.932.002c.41 0 .777.249.93.63.344.863 1.014 1.993 1.723 3.189 1.9 3.209 4.056 6.846 2.648 9.487-.84 1.576-2.734 2.427-5.789 2.6l-.057.001z" fill="#f28e1b"/><path d="m71.433 90.203.932.002c1.723 4.321 10.08 13.305-.545 13.908 1.988-4.983-2.643-9.218-4.363-13.09.839-.759 2.376-.82 3.976-.82m0-2c-2.023 0-3.951.102-5.318 1.336a2 2 0 0 0-.486 2.297c.531 1.196 1.285 2.385 2.014 3.534 1.74 2.743 3.385 5.334 2.32 8.002a1.998 1.998 0 0 0 1.97 2.738c3.434-.195 5.597-1.219 6.614-3.128 1.673-3.139-.635-7.032-2.671-10.468-.688-1.162-1.338-2.26-1.653-3.05a2 2 0 0 0-1.858-1.26l-.459-.001z" fill="#be6f26" fill-rule="nonzero"/><path d="M62.546 95.386c-1.533 1.92-4.592 2.316-6.271 4.091.247 2.024 1.124 3.421 1.908 4.909-.961.676-2.519-.381-4.09 0-.049-3.595.115-6.976.545-10.091 1.872-1.218 7.566-2.126 7.908 1.091z" fill="#f28e1b"/><path d="M57.344 105.618c-.431 0-.866-.082-1.288-.162-.603-.114-1.247-.213-1.728-.098a1 1 0 0 1-1.236-.958c-.051-3.759.136-7.205.555-10.241a.996.996 0 0 1 .444-.701c1.158-.754 3.201-1.28 4.967-1.28 2.6 0 4.275 1.16 4.481 3.104a.999.999 0 0 1-.213.729c-.947 1.187-2.299 1.835-3.605 2.462-.888.426-1.733.832-2.379 1.372.251 1.338.818 2.391 1.416 3.498l.309.578a1 1 0 0 1-.31 1.284c-.394.278-.857.413-1.413.413zm-2.259-2.312a9.23 9.23 0 0 1 1.342.185l.161.03c-.582-1.122-1.112-2.339-1.306-3.923a1.004 1.004 0 0 1 .266-.809c.925-.977 2.137-1.559 3.309-2.12.986-.474 1.926-.924 2.592-1.563-.351-.758-1.457-.93-2.39-.93-1.282 0-2.667.353-3.495.747-.322 2.526-.483 5.339-.479 8.383z" fill="#be6f26" fill-rule="nonzero"/><path d="M81.774 116.27c.119 1.026-4.269 1.605-4.783 2-5.644-2.174-14.444-3.656-13.081-14.157-.012-5.439 6.324-.985 6.582 0 0 9.459 6.002 10.982 11.282 12.157z" fill="#f28e1b"/><path d="M77.034 119.288c-.129 0-.262-.03-.402-.084-.692-.268-1.434-.523-2.197-.787-5.396-1.866-12.783-4.421-11.524-14.369.009-1.252.325-2.2.942-2.819.501-.502 1.184-.767 1.976-.767 2.229 0 5.322 2.217 5.632 3.398.021.082.032.168.032.253 0 8.845 5.578 10.086 10.499 11.181a.999.999 0 0 1 .776.861c.181 1.555-1.963 2.096-4.035 2.619-.446.112-1.059.267-1.212.341a.783.783 0 0 1-.487.173zm-11.207-16.827c-.341 0-.482.103-.56.18-.135.135-.36.505-.358 1.47a.961.961 0 0 1-.009.131c-1.088 8.385 4.644 10.367 10.187 12.284.645.223 1.273.44 1.872.663.302-.104.706-.209 1.283-.354.208-.053.478-.121.766-.198-4.546-1.233-9.416-3.693-9.515-12.256-.475-.567-2.393-1.92-3.666-1.92z" fill="#be6f26" fill-rule="nonzero"/><path d="M61.183 108.113a.996.996 0 0 1-.914-.596c-.178-.401-.357-.8-.539-1.198-.844-1.863-1.718-3.791-2.248-6.069a1 1 0 0 1 .512-1.113c.523-.273 1.014-.584 1.533-.912 1.203-.763 2.448-1.552 4.184-1.907a.999.999 0 0 1 1.129.61c.391.982.938 1.542 1.754 1.782.059-.067.129-.22.26-.556.229-.593.611-1.586 1.754-1.835a1.003 1.003 0 0 1 .801.168 1 1 0 0 1 .407.709c.063.633.388 1.087.763 1.612.492.69 1.105 1.551.859 2.775-.417 2.074-3.313 3.31-6.111 4.505-1.408.601-2.864 1.222-3.474 1.77a1.014 1.014 0 0 1-.67.255z" fill="#f28e1b"/><path d="M68.82 97.295c.191 1.884 1.943 2.563 1.637 4.091-.508 2.529-7.365 4.013-9.273 5.727-1.001-2.271-2.109-4.436-2.727-7.091 1.793-.935 3.191-2.263 5.454-2.727.491 1.236 1.295 2.159 2.728 2.454 1.37-.174.911-2.177 2.181-2.454m-4.909-2c-.133 0-.268.013-.402.041-1.914.392-3.297 1.269-4.518 2.042-.5.317-.974.616-1.46.87a2.001 2.001 0 0 0-1.023 2.227c.552 2.374 1.446 4.348 2.312 6.256.179.396.357.79.533 1.189a2 2 0 0 0 3.168.679c.485-.437 1.988-1.078 3.197-1.594 3.037-1.296 6.179-2.637 6.699-5.227.33-1.65-.486-2.795-1.025-3.553-.348-.488-.547-.781-.582-1.133a2.006 2.006 0 0 0-1.99-1.799c-.143 0-.285.015-.426.046-1.299.283-1.916 1.199-2.25 1.912a2.891 2.891 0 0 1-.375-.696 2.003 2.003 0 0 0-1.858-1.26z" fill="#be6f26" fill-rule="nonzero"/><path d="M63.066 98.533c-.384-.943-1.045-2.298-1.745-3.731-.856-1.755-1.743-3.569-2.3-4.988l-.438-1.113 1.174-.232c.162-.033.345-.051.543-.051 2.153 0 6.136 2.116 6.977 4.725.64 1.982-1.055 5.008-2.833 5.907l-.968.489z" fill="#f28e1b"/><path d="M60.3 89.416c1.722 0 5.32 1.847 6.025 4.031.454 1.408-.891 3.979-2.333 4.708-.868-2.132-3.042-6.162-4.042-8.708a1.89 1.89 0 0 1 .35-.031m0-2a3.79 3.79 0 0 0-.738.069l-2.348.465.875 2.229c.572 1.456 1.467 3.288 2.333 5.061.692 1.418 1.347 2.758 1.718 3.67l.818 2.01 1.936-.979c2.178-1.101 4.145-4.596 3.335-7.107-1.014-3.142-5.44-5.418-7.929-5.418z" fill="#be6f26" fill-rule="nonzero"/></g><path d="M105.138 115.701h7c.934 0 1.699-.301 2.299-.9.734-.732 1.102-1.799 1.102-3.199 0-1.467-.367-2.566-1.102-3.301-.6-.533-1.365-.801-2.299-.801h-10.801l1.5-3.1h9.401c1.666 0 3.033.533 4.1 1.6 1.201 1.201 1.801 3.068 1.801 5.602 0 2.467-.6 4.299-1.801 5.5-1.066 1.066-2.434 1.6-4.1 1.6H98.937v-3h6.201" clip-rule="evenodd" fill="#010202"/><g clip-rule="evenodd" fill-rule="evenodd" stroke-linecap="square" stroke-linejoin="round" stroke-miterlimit="1.5" fill="none" stroke="#000" stroke-width="2.4"><path d="M50.782 58.937s-9.375.875-8.125 9.25c0 0 1 4.125 4.875 3.375l9.25 9.75"/><path d="m112.782 62.312 7.5 12.125s8.25 4.25.75 9.625c0 0-7 4.625-10-.875 0 0-1.125-2.25-.375-3.75l-6.5-9.625" stroke-linecap="butt"/></g></svg>