<svg xmlns="http://www.w3.org/2000/svg" width="160" height="220"><path d="M62.109 161.3l-3.199-4.699.199-.201c-2.398-2.533-3.832-5.299-4.299-8.299l-.201-2.4.102-1.9 1.1-3.699h.199v-1.1l.301-.301v-4.1c1 .801 2.033 1.166 3.1 1.1l.5-.1c2.533.666 4.533.1 6-1.699.533.266.666.166.4-.301 1.332-1 2.166-2.6 2.5-4.801-.066-.934-.367-2.266-.9-4l.9-12.6-2.701-.199-1 12.9.301.1v.1h.1l.801 2.801c.199 1.932-.434 3.199-1.9 3.799-.732 1.201-2.133 1.6-4.199 1.201h-1c-.801-.268-1.668-.834-2.602-1.701l-.398-.699-.5-1.5-.301-.9.301-.801.5-1 .5-1.5h.199l1.4-19.299-1.701-.1-.799-.102v-.299l-4.1-5.5h.398c-3.533-4.135-5.199-8.867-5-14.201-.199-7.066 3.367-13.6 10.701-19.6 7.332-6.732 16.1-10.434 26.299-11.1 10.135.666 18.834 4.367 26.102 11.1 7.266 6 10.898 12.533 10.898 19.6 0 5.334-1.732 10.066-5.199 14.201h.199-.1l-5.199 6.199v1.6l-.4-1.898-1.6.1 1.299 19.299h.301l.5 1.5.4 1 .4.801-.301.9-.6 1.5-.4.699-1.801 1.4h-.1l-.1 3h.1l-.1 1h-.1l-.701 8.4-2.1 8.199-3.299 8v.1H99.91v10.4c-.066 1.801-.6 3.301-1.6 4.5-.867 1-2 1.5-3.4 1.5-1.334 0-2.467-.5-3.4-1.5-1.066-1.199-1.6-2.699-1.6-4.5v-10.4h-2.6v-2.4h-.6v-.299l-1.801-3.1h-4.9l-3.1 3.398v2.4H74.51v10.4c-.066 1.801-.6 3.301-1.6 4.5-.934 1-2.066 1.5-3.4 1.5-1.332 0-2.5-.5-3.5-1.5-1-1.199-1.5-2.699-1.5-4.5v-10.4h-2.401m.801-35.698v.1h.1l-.1-.1m-7.4 13l.1.199-.1-.199" fill="#fff"/><path d="M108.41 135.601l.1-3h.1l1.801-1.4.4-.699.6-1.5.301-.9-.4-.801-.4-1-.5-1.5h-.301l-1.299-19.299 1.6-.1.4 1.898 1.6 11.201.1-.1v.199l.4 5.301v.699h-.199v.199c.332.934.732 1.668 1.199 2.201-.066.332.033.533.301.6.398 2.133 0 3.766-1.201 4.9l-.299.4c-.201-.068-.334 0-.4.199l-.5.5-1.1 1c-.734.533-1.467.867-2.201 1h-.102M89.91 161.3v10.4c0 1.801.533 3.301 1.6 4.5.934 1 2.066 1.5 3.4 1.5 1.4 0 2.533-.5 3.4-1.5 1-1.199 1.533-2.699 1.6-4.5v-10.4h2.301v10.4c0 2.6-.668 4.666-2 6.199-1.467 1.668-3.234 2.5-5.301 2.5-2 0-3.768-.832-5.301-2.5-1.398-1.533-2.066-3.6-2-6.199v-10.4h2.301m-25.4 0v10.4c0 1.801.5 3.301 1.5 4.5 1 1 2.168 1.5 3.5 1.5 1.334 0 2.467-.5 3.4-1.5 1-1.199 1.533-2.699 1.6-4.5v-10.4h2.301v10.4c0 2.6-.701 4.666-2.1 6.199-1.467 1.668-3.201 2.5-5.201 2.5s-3.766-.832-5.299-2.5c-1.4-1.533-2.102-3.6-2.102-6.199v-10.4h2.401m29.4-66.799c.199.6.5 1.1.9 1.5l1.4.5 1.898-1.201c.533-.865.801-1.967.801-3.299 0-1.801-.6-3.967-1.801-6.5h2.102c1.199 2.133 1.799 4.232 1.799 6.299s-.434 3.668-1.299 4.801c-.801 1.066-1.867 1.6-3.201 1.6-1.799 0-3.066-.934-3.799-2.799-.8 1.865-2.067 2.798-3.8 2.798-1.4 0-2.5-.566-3.301-1.699-.865-1.135-1.299-2.701-1.299-4.701 0-2.066.633-4.166 1.9-6.299h2c-1.135 2.533-1.701 4.699-1.701 6.5 0 1.332.234 2.434.701 3.299.533.801 1.166 1.201 1.898 1.201.533 0 1-.201 1.4-.6l.9-1.4.199-2.301v-3.6h2.102v3.6l.201 2.301" fill="#010202"/><path d="M76.126 74.93h1.337l4.68 4.099-1.715 1.018-3.634-3.285-3.634 3.285-1.715-1.018 4.681-4.099zm32.875 0h1.337l4.68 4.099-1.715 1.018-3.634-3.285-3.634 3.285-1.715-1.018 4.681-4.099z"/><path d="M86.047 155.997c-1.174 1.008-4.27 1.109-5.727.273-.052-.221-.273-.272-.272-.545 2.029-4.771.358-12.153-1.636-15.545 6.711-.43 14.111-.432 20.181.545-.683 3.897-2.899 6.444-5.182 8.727-2.388 2.387-7.606 6.424-7.364 6.545z" fill-rule="evenodd" clip-rule="evenodd" fill="#f28e1b"/><path d="M82.954 157.832c-.718 0-2.078-.09-3.132-.695a1.004 1.004 0 01-.422-.475 1.423 1.423 0 01-.353-.941.98.98 0 01.08-.388c1.9-4.47.273-11.498-1.578-14.647a1 1 0 01.799-1.505 130.64 130.64 0 018.307-.277c4.593 0 8.662.28 12.097.833a1.001 1.001 0 01.826 1.159c-.745 4.252-3.209 7.01-5.46 9.262-1.271 1.272-3.293 2.972-4.917 4.337-.914.768-1.938 1.629-2.262 1.952a1.01 1.01 0 01-.241.308c-1.132.972-2.995 1.077-3.744 1.077zm-1.771-2.265c.469.168 1.099.264 1.771.264 1.061 0 1.875-.229 2.291-.485.312-.4 1.042-1.014 2.669-2.381 1.595-1.341 3.579-3.01 4.79-4.221 1.928-1.929 3.859-4.068 4.684-7.189-4.745-.662-10.762-.822-17.394-.467 1.682 3.787 2.811 9.977 1.189 14.479z" fill="#be6f26"/><path d="M55 128.368c11.917-3.917 46.143-8.976 54.932-1.721 2.357 4.682 1.295 12.775-.271 17.454-15.174-7.092-41.951-5.257-55.363 2.182-1.468-3.071-1.855-8.898-.818-12.818.09-.001.62-3.824 1.52-5.097z" fill-rule="evenodd" clip-rule="evenodd" fill="#f28e1b"/><path d="M54.297 147.282a.999.999 0 01-.903-.568c-1.581-3.309-1.978-9.367-.883-13.505a.897.897 0 01.05-.143c.026-.11.063-.296.109-.531.356-1.765.797-3.733 1.513-4.745.124-.175.301-.306.504-.373 7.973-2.62 24.587-5.448 37.526-5.448 9.039 0 15.215 1.314 18.354 3.906.106.088.194.197.257.321 2.593 5.149 1.291 13.718-.217 18.221a1.002 1.002 0 01-1.372.589c-6.025-2.816-14.45-4.367-23.722-4.367-11.708 0-23.484 2.497-30.732 6.517a.985.985 0 01-.484.126zm.143-13.563l.005.001c-.874 3.303-.687 8.114.36 11.158 7.652-3.918 19.017-6.239 30.709-6.239 9.04 0 17.335 1.447 23.525 4.089 1.418-4.916 1.896-11.607.091-15.442-2.801-2.171-8.64-3.317-16.917-3.317-12.553 0-28.594 2.695-36.55 5.234-.466.92-.856 2.854-1.032 3.728-.058.29-.112.559-.191.788z" fill="#be6f26"/><path d="M58.75 118.083l-4.5 10.417s2.916 6.668 6.833 6.126 5.908-3.326 6.5-6.126-8.833-10.417-8.833-10.417z" fill="#fff"/><path d="M58.311 105.501l-1.4 19.299h-.199l-.5 1.5-.5 1-.301.801.301.9.5 1.5.398.699c.934.867 1.801 1.434 2.602 1.701h1c2.066.398 3.467 0 4.199-1.201 1.467-.6 2.1-1.867 1.9-3.799l-.801-2.801h-.1v-.1l-.301-.1 1-12.9 2.701.199-.9 12.6c.533 1.734.834 3.066.9 4-.334 2.201-1.168 3.801-2.5 4.801.266.467.133.566-.4.301-1.467 1.799-3.467 2.365-6 1.699l-.5.1c-1.066.066-2.1-.299-3.1-1.1l-1.1-1-.4-.5-.4-.199-.4-.4c-1.199-1.135-1.566-2.768-1.1-4.9.199-.066.301-.268.301-.6l1.1-2.201.1-.199h-.199l-.102-.699h.102l.398-5.301v-.199l.102.1 1.898-13.1 1.701.099" fill="#010202"/><g fill-rule="evenodd" clip-rule="evenodd"><path d="M55.908 53.498c.222.052.272.273.546.272 2.091-.724-.636-2.742-.546-3 .971-2.666 1.882-5.391 2.183-8.727 4.408-.282 7.548 2.972 10.909 4.636-.016 1.167-.367 1.998-.546 3 17.608-3.737 47.831-1.902 50.181 15.545.391 2.905.083 6.733-1.364 8.727-1.898-.107-2.333-2.247-3.545-3.545-4.923-5.27-17.408-13.29-25.091-5.455-5.251-5.035-19.248-6.446-25.635-1.363-1.546 4.727-1.23 11.314-3 15.818-1.074.654-3.148.306-4.363.818-2.537 2.296-.739 7.63-.818 11.454-16.66 5.176-31.152-9.768-21.272-23.454 5.806-6.376 12.988-12.825 22.361-14.726z" fill="#020303"/><path d="M58.908 44.498c-.347 1.107-.504 2.405-.545 3.818.84.191.524.191 1.363 0-.369.63-1.096.903-.818 2.182 2.361.13 5.014-3.857 2.728-4.909-.75.522-.926 1.62-1.636 2.182.367-1.244 1.203-3.525-1.092-3.273z" fill="#020303"/><path d="M62.454 49.68c-.926 1.711-4.815.457-4.636 3.273 2.868-.222 5.65-.531 6-3.273-.679-.03-.844-.511-1.364 0zM46.909 64.134c-.142 6.164 4.12 11.678 9.272 12.545.104-1.923-2.002-2.091-3-3-2.745-2.503-3.849-5.841-5.454-9.545h-.818zm.819 11.181c-1.169-2.113-1.842-5.746-2.728-7.909-.111-.343-.352-.558-.818-.545-1.166 2.207.364 6.199 1.637 8.727 1.227 2.437 3.486 5.876 6 5.454-.639-2.528-2.921-3.608-4.091-5.727zm-6.819-6.272c-.015.349-.35.377-.272.818.331 4.545 1.592 8.404 3.272 12 1.335 2.854 3.322 6.949 6.272 6.818-.111-1.539-1.342-2.607-2.181-3.818-3.029-4.375-5.256-10.615-6-15.818h-1.091zm-3 1.364c-.938 3.005-.866 9.052 1.909 10.09.356-3.054-1.212-6.865-.818-10.09h-1.091zm-2.999 7.09c1.271-.687.992-4.211.817-5.454-2.311-.333-2.612 5.034-.817 5.454zm-2.728-10.363c-2.776-.932-4.912-2.82-4.363-7.091 1.238-9.625 18.136-13.094 27-8.454-9.624 3.105-16.95 8.506-22.637 15.545z" fill="#020303"/><path d="M54.818 51.589c.933-.024.158 1.66 1.09 1.636v.273c-9.373 1.901-16.556 8.35-22.362 14.727.829-.862-1.161-.442-1.364-1.091 5.687-7.039 13.013-12.44 22.636-15.545zm5.56-3.818c.71-.563.886-1.66 1.636-2.182 2.286 1.052-.366 5.04-2.728 4.909-.277-1.278.449-1.551.818-2.182-.839.191-.523.191-1.363 0 .041-1.414.198-2.711.545-3.818 2.295-.252 1.459 2.029 1.092 3.273zM42 69.043c.744 5.203 2.971 11.442 6 15.818.839 1.211 2.07 2.279 2.182 3.818-2.95.131-4.938-3.963-6.272-6.818-1.681-3.596-2.941-7.455-3.272-12-.077-.44.258-.469.272-.818H42zm-3 1.364c-.394 3.226 1.175 7.036.818 10.09-2.775-1.039-2.848-7.085-1.909-10.09H39zm-3.272 1.636c.175 1.243.454 4.768-.817 5.454-1.796-.42-1.495-5.787.817-5.454zm16.09 8.999c-2.514.422-4.773-3.018-6-5.454-1.272-2.528-2.803-6.521-1.637-8.727.467-.012.707.203.818.545.886 2.163 1.559 5.795 2.728 7.909 1.171 2.119 3.453 3.199 4.091 5.727zm12.989-30.973c-.35 2.742-3.132 3.051-6 3.273-.18-2.816 3.71-1.562 4.636-3.273.519-.511.684-.03 1.364 0zM47.728 64.134c1.605 3.705 2.709 7.042 5.454 9.545.998.909 3.104 1.077 3 3-5.152-.867-9.414-6.381-9.272-12.545h.818z" fill="#c1c6c4"/><path d="M54.755 50.793c.856.426 3.195 1.781 3.105 2.935-1.004 1.02-4.267-1.53-3.105-2.935z" fill="#fff"/></g></svg>