<?xml version="1.0" encoding="iso-8859-1"?>
<!-- Generator: Adobe Illustrator 15.1.0, SVG Export Plug-In . SVG Version: 6.00 Build 0)  -->
<!DOCTYPE svg PUBLIC "-//W3C//DTD SVG 1.1//EN" "http://www.w3.org/Graphics/SVG/1.1/DTD/svg11.dtd">
<svg version="1.1" id="front-walking-2" xmlns="http://www.w3.org/2000/svg" xmlns:xlink="http://www.w3.org/1999/xlink" x="0px"
	 y="0px" width="160px" height="220px" viewBox="0 0 160 220" style="enable-background:new 0 0 160 220;" xml:space="preserve">
<path style="fill:#FFFFFF;" d="M61.282,159.95l-3.199-4.699l0.199-0.201c-2.4-2.533-3.832-5.299-4.299-8.299l-0.201-2.4v-1.1
	l0.1-0.801l0.4-1.699l0.701-2h0.199v-1.1l0.301-0.301v-0.1v-2.6l0.299-4.801v-0.1l1-15.5h-0.1l-2.9-0.9l-0.9-2.6l-12.199,4.4
	l0.1,0.299h-0.1v0.102l-2.199,1.799l-4.201-0.199c-1.467-0.135-2.434-1.234-2.9-3.301l-0.299-0.9l0.5-3l0.4-0.699l1.199-1.1
	l0.699-0.6h0.9h1.1l1.5-0.201l0.102,0.201l18.1-6.5l-0.5-1.602l-2.701,0.701l-1.5-2h0.4c-3.533-4.135-5.199-8.867-5-14.201v-1.5
	c0.334-6.533,3.9-12.566,10.701-18.1c7.332-6.732,16.1-10.434,26.299-11.1c10.133,0.666,18.834,4.367,26.1,11.1
	c6.734,5.533,10.367,11.566,10.9,18.1v1.5c0,5.334-1.732,10.066-5.199,14.201h0.199h-0.1l-2.199,2.6v0.301l-2,1.799l13.1,4.701
	l0.1-0.201l1.6,0.201h1.1h0.801l0.801,0.6l1.1,1.1l0.5,0.699l0.5,3l-0.4,0.9c-0.467,2.066-1.4,3.166-2.801,3.301l-4.199,0.199
	l-2.301-1.799v-0.102h-0.1l0.1-0.299l-9.898-3.6v-0.102l-2.602-1l0.102,1.102l-0.602,1.799l0.701,0.201v0.1l-0.301-0.1l-0.5,17.699
	h-0.1l-0.1,3h0.1v0.199l-0.1,0.801h-0.1l-0.102,1h0.102l-0.301,2.6l-0.1,1.9l-0.1,0.699h-3.602l-1.5,3.1h10.801l2.301,0.801
	c0.732,0.734,1.1,1.834,1.1,3.301c0,1.4-0.367,2.467-1.1,3.199c-0.602,0.6-1.367,0.9-2.301,0.9H99.483v2.799l-15.4-1.398h-4.9
	l-3.1,3.398v2.4h-0.1h-2.301v10.4c-0.066,1.801-0.6,3.301-1.6,4.5c-0.934,1-2.066,1.5-3.4,1.5s-2.5-0.5-3.5-1.5
	c-1-1.199-1.5-2.699-1.5-4.5v-10.4H61.282 M62.083,124.351h0.1l-0.1-0.1V124.351 M54.683,137.251l0.1,0.199L54.683,137.251"/>
<g>
	<path style="fill:#FFFFFF;" d="M61.282,159.95l-3.199-4.699l0.199-0.201c-2.4-2.533-3.832-5.299-4.299-8.299l-0.201-2.4v-1.1
		l0.1-0.801l0.4-1.699l0.701-2h0.199v-1.1l0.301-0.301v-0.1v-2.6l0.299-4.801v-0.1l1-15.5h-0.1l-2.9-0.9l-0.9-2.6l-12.199,4.4
		l0.1,0.299h-0.1v0.102l-2.199,1.799l-4.201-0.199c-1.467-0.135-2.434-1.234-2.9-3.301l-0.299-0.9l0.5-3l0.4-0.699l1.199-1.1
		l0.699-0.6h0.9h1.1l1.5-0.201l0.102,0.201l18.1-6.5l-0.5-1.602l-2.701,0.701l-1.5-2h0.4c-3.533-4.135-5.199-8.867-5-14.201v-1.5
		c0.334-6.533,3.9-12.566,10.701-18.1c7.332-6.732,16.1-10.434,26.299-11.1c10.133,0.666,18.834,4.367,26.1,11.1
		c6.734,5.533,10.367,11.566,10.9,18.1v1.5c0,5.334-1.732,10.066-5.199,14.201h0.199h-0.1l-2.199,2.6v0.301l-2,1.799l13.1,4.701
		l0.1-0.201l1.6,0.201h1.1h0.801l0.801,0.6l1.1,1.1l0.5,0.699l0.5,3l-0.4,0.9c-0.467,2.066-1.4,3.166-2.801,3.301l-4.199,0.199
		l-2.301-1.799v-0.102h-0.1l0.1-0.299l-9.898-3.6v-0.102l-2.602-1l0.102,1.102l-0.602,1.799l0.701,0.201v0.1l-0.301-0.1l-0.5,17.699
		h-0.1l-0.1,3h0.1v0.199l-0.1,0.801h-0.1l-0.102,1h0.102l-0.301,2.6l-0.1,1.9l-0.1,0.699h-3.602l-1.5,3.1h10.801l2.301,0.801
		c0.732,0.734,1.1,1.834,1.1,3.301c0,1.4-0.367,2.467-1.1,3.199c-0.602,0.6-1.367,0.9-2.301,0.9H99.483v2.799l-15.4-1.398h-4.9
		l-3.1,3.398v2.4h-0.1h-2.301v10.4c-0.066,1.801-0.6,3.301-1.6,4.5c-0.934,1-2.066,1.5-3.4,1.5s-2.5-0.5-3.5-1.5
		c-1-1.199-1.5-2.699-1.5-4.5v-10.4H61.282 M62.083,124.351h0.1l-0.1-0.1V124.351 M54.683,137.251l0.1,0.199L54.683,137.251"/>
</g>
<path style="fill:#010202;" d="M108.583,113.552l-0.701-0.201l0.602-1.799l-0.102-1.102l2.602,1v0.102l9.898,3.6l-0.1,0.299h0.1
	v0.102l2.301,1.799l4.199-0.199c1.4-0.135,2.334-1.234,2.801-3.301l0.4-0.9l-0.5-3l-0.5-0.699l-1.1-1.1l-0.801-0.6h-0.801h-1.1
	l-1.6-0.201l-0.1,0.201l-13.1-4.701l2-1.799l6.299,1.898v-0.1l5.1,1.9v-0.1l0.602,0.4v0.199h0.199l2.5-0.199
	c0.268,0.199,0.467,0.199,0.6,0c2.066,0.465,3.4,1.465,4,3l0.301,0.5v0.5l0.299,0.6l0.4,1.4c0.268,1.199,0.168,2.266-0.299,3.199
	l-0.201,0.4c-0.467,2.533-1.799,4.133-4,4.799c0.066,0.602-0.066,0.668-0.4,0.201l-5.398,0.4c-0.867-0.467-1.967-1.301-3.301-2.5
	l-8.301-3v0.199l-2.799-1.1V113.552"/>
<g>
	<path style="fill:#010202;" d="M108.583,113.552l-0.701-0.201l0.602-1.799l-0.102-1.102l2.602,1v0.102l9.898,3.6l-0.1,0.299h0.1
		v0.102l2.301,1.799l4.199-0.199c1.4-0.135,2.334-1.234,2.801-3.301l0.4-0.9l-0.5-3l-0.5-0.699l-1.1-1.1l-0.801-0.6h-0.801h-1.1
		l-1.6-0.201l-0.1,0.201l-13.1-4.701l2-1.799l6.299,1.898v-0.1l5.1,1.9v-0.1l0.602,0.4v0.199h0.199l2.5-0.199
		c0.268,0.199,0.467,0.199,0.6,0c2.066,0.465,3.4,1.465,4,3l0.301,0.5v0.5l0.299,0.6l0.4,1.4c0.268,1.199,0.168,2.266-0.299,3.199
		l-0.201,0.4c-0.467,2.533-1.799,4.133-4,4.799c0.066,0.602-0.066,0.668-0.4,0.201l-5.398,0.4c-0.867-0.467-1.967-1.301-3.301-2.5
		l-8.301-3v0.199l-2.799-1.1V113.552"/>
</g>
<path style="fill:#010202;" d="M63.683,159.95v10.4c0,1.801,0.5,3.301,1.5,4.5c1,1,2.166,1.5,3.5,1.5s2.467-0.5,3.4-1.5
	c1-1.199,1.533-2.699,1.6-4.5v-10.4h2.301v10.4c0,2.6-0.701,4.666-2.102,6.199c-1.467,1.668-3.199,2.5-5.199,2.5
	s-3.768-0.832-5.301-2.5c-1.398-1.533-2.1-3.6-2.1-6.199v-10.4H63.683"/>
<g>
	<path style="fill:#010202;" d="M63.683,159.95v10.4c0,1.801,0.5,3.301,1.5,4.5c1,1,2.166,1.5,3.5,1.5s2.467-0.5,3.4-1.5
		c1-1.199,1.533-2.699,1.6-4.5v-10.4h2.301v10.4c0,2.6-0.701,4.666-2.102,6.199c-1.467,1.668-3.199,2.5-5.199,2.5
		s-3.768-0.832-5.301-2.5c-1.398-1.533-2.1-3.6-2.1-6.199v-10.4H63.683"/>
</g>
<path style="fill:#010202;" d="M55.083,99.45l0.5,1.602l-18.1,6.5l-0.102-0.201l-1.5,0.201h-1.1h-0.9l-0.699,0.6l-1.199,1.1
	l-0.4,0.699l-0.5,3l0.299,0.9c0.467,2.066,1.434,3.166,2.9,3.301l4.201,0.199l2.199-1.799v-0.102h0.1l-0.1-0.299l12.199-4.4l0.9,2.6
	l-11.9,4.201l-3.199,2.5c-2.133,0.6-3.934,0.465-5.4-0.4c-0.4,0.467-0.533,0.4-0.4-0.201c-2.266-0.666-3.6-2.266-4-4.799l-0.299-0.4
	c-0.467-0.934-0.566-2-0.301-3.199l0.5-1.4l0.301-0.6v-0.5l0.199-0.5c0.6-1.535,1.967-2.535,4.1-3c0.068,0.199,0.268,0.199,0.602,0
	l2.398,0.199h0.301l-0.1-0.199l0.6-0.4l0.1,0.1l5.1-1.9v0.1l3.602-1.299l6.398-1.5L55.083,99.45"/>
<g>
	<path style="fill:#010202;" d="M55.083,99.45l0.5,1.602l-18.1,6.5l-0.102-0.201l-1.5,0.201h-1.1h-0.9l-0.699,0.6l-1.199,1.1
		l-0.4,0.699l-0.5,3l0.299,0.9c0.467,2.066,1.434,3.166,2.9,3.301l4.201,0.199l2.199-1.799v-0.102h0.1l-0.1-0.299l12.199-4.4
		l0.9,2.6l-11.9,4.201l-3.199,2.5c-2.133,0.6-3.934,0.465-5.4-0.4c-0.4,0.467-0.533,0.4-0.4-0.201c-2.266-0.666-3.6-2.266-4-4.799
		l-0.299-0.4c-0.467-0.934-0.566-2-0.301-3.199l0.5-1.4l0.301-0.6v-0.5l0.199-0.5c0.6-1.535,1.967-2.535,4.1-3
		c0.068,0.199,0.268,0.199,0.602,0l2.398,0.199h0.301l-0.1-0.199l0.6-0.4l0.1,0.1l5.1-1.9v0.1l3.602-1.299l6.398-1.5L55.083,99.45"
		/>
</g>
<path style="fill:#010202;" d="M93.083,93.151c0.199,0.6,0.5,1.1,0.9,1.5l1.398,0.5l1.9-1.201c0.533-0.865,0.801-1.967,0.801-3.299
	c0-1.801-0.6-3.967-1.801-6.5h2.1c1.201,2.133,1.801,4.232,1.801,6.299s-0.434,3.668-1.301,4.801c-0.799,1.066-1.865,1.6-3.199,1.6
	c-1.801,0-3.066-0.934-3.801-2.799c-0.799,1.865-2.066,2.799-3.799,2.799c-1.4,0-2.5-0.566-3.301-1.699
	c-0.867-1.135-1.299-2.701-1.299-4.701c0-2.066,0.633-4.166,1.898-6.299h2c-1.133,2.533-1.699,4.699-1.699,6.5
	c0,1.332,0.232,2.434,0.699,3.299c0.533,0.801,1.168,1.201,1.9,1.201c0.533,0,1-0.201,1.4-0.6l0.9-1.4l0.199-2.301v-3.6h2.1v3.6
	L93.083,93.151"/>
<g>
	<path style="fill:#010202;" d="M93.083,93.151c0.199,0.6,0.5,1.1,0.9,1.5l1.398,0.5l1.9-1.201c0.533-0.865,0.801-1.967,0.801-3.299
		c0-1.801-0.6-3.967-1.801-6.5h2.1c1.201,2.133,1.801,4.232,1.801,6.299s-0.434,3.668-1.301,4.801c-0.799,1.066-1.865,1.6-3.199,1.6
		c-1.801,0-3.066-0.934-3.801-2.799c-0.799,1.865-2.066,2.799-3.799,2.799c-1.4,0-2.5-0.566-3.301-1.699
		c-0.867-1.135-1.299-2.701-1.299-4.701c0-2.066,0.633-4.166,1.898-6.299h2c-1.133,2.533-1.699,4.699-1.699,6.5
		c0,1.332,0.232,2.434,0.699,3.299c0.533,0.801,1.168,1.201,1.9,1.201c0.533,0,1-0.201,1.4-0.6l0.9-1.4l0.199-2.301v-3.6h2.1v3.6
		L93.083,93.151"/>
</g>
<path d="M74.728,74.93h1.337l4.68,4.099l-1.715,1.018l-3.634-3.285l-3.634,3.285l-1.715-1.018L74.728,74.93z"/>
<g>
	<path d="M74.728,74.93h1.337l4.68,4.099l-1.715,1.018l-3.634-3.285l-3.634,3.285l-1.715-1.018L74.728,74.93z"/>
</g>
<g>
	<g>
		<path d="M74.728,74.93h1.337l4.68,4.099l-1.715,1.018l-3.634-3.285l-3.634,3.285l-1.715-1.018L74.728,74.93z"/>
	</g>
</g>
<path d="M107.603,74.93h1.337l4.68,4.099l-1.715,1.018l-3.634-3.285l-3.634,3.285l-1.715-1.018L107.603,74.93z"/>
<g>
	<path d="M107.603,74.93h1.337l4.68,4.099l-1.715,1.018l-3.634-3.285l-3.634,3.285l-1.715-1.018L107.603,74.93z"/>
</g>
<g>
	<g>
		<path d="M107.603,74.93h1.337l4.68,4.099l-1.715,1.018l-3.634-3.285l-3.634,3.285l-1.715-1.018L107.603,74.93z"/>
	</g>
</g>
<path style="fill-rule:evenodd;clip-rule:evenodd;fill:#F28E1B;" d="M84.009,156.997c-1.174,1.008-4.27,1.109-5.727,0.273
	c-0.052-0.221-0.273-0.272-0.272-0.545c2.029-4.771,0.358-12.153-1.636-15.545c6.711-0.43,14.111-0.432,20.181,0.545
	c-0.683,3.897-2.899,6.444-5.182,8.727C88.985,152.839,83.767,156.876,84.009,156.997z"/>
<path style="fill:#BE6F26;" d="M80.916,158.832c-0.718,0-2.078-0.09-3.132-0.695c-0.189-0.109-0.337-0.276-0.422-0.475
	c-0.141-0.171-0.354-0.472-0.353-0.941c0-0.133,0.027-0.265,0.08-0.388c1.9-4.47,0.273-11.498-1.578-14.647
	c-0.176-0.299-0.184-0.668-0.021-0.976c0.163-0.307,0.474-0.507,0.82-0.529c2.871-0.184,5.666-0.277,8.307-0.277
	c4.593,0,8.662,0.28,12.097,0.833c0.264,0.042,0.5,0.189,0.655,0.407c0.155,0.218,0.217,0.489,0.171,0.752
	c-0.745,4.252-3.209,7.01-5.46,9.262c-1.271,1.272-3.293,2.972-4.917,4.337c-0.914,0.768-1.938,1.629-2.262,1.952
	c-0.059,0.116-0.14,0.221-0.241,0.308C83.528,158.727,81.665,158.832,80.916,158.832z M79.145,156.567
	c0.469,0.168,1.099,0.264,1.771,0.264c1.061,0,1.875-0.229,2.291-0.485c0.312-0.4,1.042-1.014,2.669-2.381
	c1.595-1.341,3.579-3.01,4.79-4.221c1.928-1.929,3.859-4.068,4.684-7.189c-4.745-0.662-10.762-0.822-17.394-0.467
	C79.638,145.875,80.767,152.065,79.145,156.567z"/>
<g>
	<path style="fill-rule:evenodd;clip-rule:evenodd;fill:#F28E1B;" d="M84.009,156.997c-1.174,1.008-4.27,1.109-5.727,0.273
		c-0.052-0.221-0.273-0.272-0.272-0.545c2.029-4.771,0.358-12.153-1.636-15.545c6.711-0.43,14.111-0.432,20.181,0.545
		c-0.683,3.897-2.899,6.444-5.182,8.727C88.985,152.839,83.767,156.876,84.009,156.997z"/>
	<path style="fill:#BE6F26;" d="M80.916,158.832c-0.718,0-2.078-0.09-3.132-0.695c-0.189-0.109-0.337-0.276-0.422-0.475
		c-0.141-0.171-0.354-0.472-0.353-0.941c0-0.133,0.027-0.265,0.08-0.388c1.9-4.47,0.273-11.498-1.578-14.647
		c-0.176-0.299-0.184-0.668-0.021-0.976c0.163-0.307,0.474-0.507,0.82-0.529c2.871-0.184,5.666-0.277,8.307-0.277
		c4.593,0,8.662,0.28,12.097,0.833c0.264,0.042,0.5,0.189,0.655,0.407c0.155,0.218,0.217,0.489,0.171,0.752
		c-0.745,4.252-3.209,7.01-5.46,9.262c-1.271,1.272-3.293,2.972-4.917,4.337c-0.914,0.768-1.938,1.629-2.262,1.952
		c-0.059,0.116-0.14,0.221-0.241,0.308C83.528,158.727,81.665,158.832,80.916,158.832z M79.145,156.567
		c0.469,0.168,1.099,0.264,1.771,0.264c1.061,0,1.875-0.229,2.291-0.485c0.312-0.4,1.042-1.014,2.669-2.381
		c1.595-1.341,3.579-3.01,4.79-4.221c1.928-1.929,3.859-4.068,4.684-7.189c-4.745-0.662-10.762-0.822-17.394-0.467
		C79.638,145.875,80.767,152.065,79.145,156.567z"/>
</g>
<path style="fill-rule:evenodd;clip-rule:evenodd;fill:#F28E1B;" d="M53.731,129.368c11.917-3.917,46.143-8.976,54.932-1.721
	c2.357,4.682,1.812,11.099,0.245,15.778c-15.174-7.092-42.468-3.581-55.88,3.858c-1.468-3.071-1.855-8.898-0.818-12.818
	C52.302,134.464,52.831,130.641,53.731,129.368z"/>
<path style="fill:#BE6F26;" d="M53.028,148.282c-0.103,0-0.205-0.016-0.305-0.047c-0.263-0.084-0.479-0.272-0.598-0.521
	c-1.581-3.309-1.978-9.367-0.883-13.505c0.013-0.049,0.029-0.097,0.05-0.143c0.026-0.11,0.063-0.296,0.109-0.531
	c0.356-1.765,0.797-3.733,1.513-4.745c0.124-0.175,0.301-0.306,0.504-0.373c7.973-2.62,24.587-5.448,37.526-5.448
	c9.039,0,15.215,1.314,18.354,3.906c0.106,0.088,0.194,0.197,0.257,0.321c2.585,5.136,1.851,11.914,0.3,16.545
	c-0.091,0.271-0.292,0.489-0.554,0.602c-0.262,0.113-0.559,0.108-0.818-0.013c-5.268-2.462-12.422-3.764-20.688-3.764
	c-12.512,0-25.969,2.979-34.282,7.59C53.363,148.24,53.196,148.282,53.028,148.282z M53.172,134.719l0.005,0.001
	c-0.874,3.303-0.687,8.112,0.359,11.156c8.638-4.46,21.916-7.31,34.26-7.31c8.028,0,15.079,1.203,20.488,3.486
	c1.121-3.982,1.592-9.574-0.42-13.765c-2.801-2.171-8.641-3.318-16.919-3.318c-12.553,0-28.594,2.695-36.55,5.234
	c-0.466,0.92-0.856,2.854-1.032,3.728C53.305,134.221,53.25,134.49,53.172,134.719z"/>
<g>
	<path style="fill-rule:evenodd;clip-rule:evenodd;fill:#F28E1B;" d="M53.731,129.368c11.917-3.917,46.143-8.976,54.932-1.721
		c2.357,4.682,1.812,11.099,0.245,15.778c-15.174-7.092-42.468-3.581-55.88,3.858c-1.468-3.071-1.855-8.898-0.818-12.818
		C52.302,134.464,52.831,130.641,53.731,129.368z"/>
	<path style="fill:#BE6F26;" d="M53.028,148.282c-0.103,0-0.205-0.016-0.305-0.047c-0.263-0.084-0.479-0.272-0.598-0.521
		c-1.581-3.309-1.978-9.367-0.883-13.505c0.013-0.049,0.029-0.097,0.05-0.143c0.026-0.11,0.063-0.296,0.109-0.531
		c0.356-1.765,0.797-3.733,1.513-4.745c0.124-0.175,0.301-0.306,0.504-0.373c7.973-2.62,24.587-5.448,37.526-5.448
		c9.039,0,15.215,1.314,18.354,3.906c0.106,0.088,0.194,0.197,0.257,0.321c2.585,5.136,1.851,11.914,0.3,16.545
		c-0.091,0.271-0.292,0.489-0.554,0.602c-0.262,0.113-0.559,0.108-0.818-0.013c-5.268-2.462-12.422-3.764-20.688-3.764
		c-12.512,0-25.969,2.979-34.282,7.59C53.363,148.24,53.196,148.282,53.028,148.282z M53.172,134.719l0.005,0.001
		c-0.874,3.303-0.687,8.112,0.359,11.156c8.638-4.46,21.916-7.31,34.26-7.31c8.028,0,15.079,1.203,20.488,3.486
		c1.121-3.982,1.592-9.574-0.42-13.765c-2.801-2.171-8.641-3.318-16.919-3.318c-12.553,0-28.594,2.695-36.55,5.234
		c-0.466,0.92-0.856,2.854-1.032,3.728C53.305,134.221,53.25,134.49,53.172,134.719z"/>
</g>
<path style="fill-rule:evenodd;clip-rule:evenodd;fill:#020303;" d="M56.314,54.498c0.222,0.052,0.272,0.273,0.546,0.272
	c2.091-0.724-0.636-2.742-0.546-3c0.971-2.666,1.882-5.391,2.183-8.727c4.408-0.282,7.548,2.972,10.909,4.636
	c-0.016,1.167-0.367,1.998-0.546,3c17.608-3.737,47.831-1.902,50.181,15.545c0.391,2.905,0.083,6.733-1.364,8.727
	c-1.898-0.107-2.333-2.247-3.545-3.545c-4.923-5.27-17.408-13.29-25.091-5.455c-5.251-5.037-19.248-6.447-25.635-1.364
	c-1.546,4.727-1.23,11.314-3,15.818c-1.074,0.654-3.148,0.306-4.363,0.818c-2.537,2.296-0.739,7.63-0.818,11.454
	c-16.66,5.176-31.152-9.768-21.272-23.454C39.759,62.848,46.941,56.399,56.314,54.498z"/>
<g>
	<path style="fill-rule:evenodd;clip-rule:evenodd;fill:#020303;" d="M56.314,54.498c0.222,0.052,0.272,0.273,0.546,0.272
		c2.091-0.724-0.636-2.742-0.546-3c0.971-2.666,1.882-5.391,2.183-8.727c4.408-0.282,7.548,2.972,10.909,4.636
		c-0.016,1.167-0.367,1.998-0.546,3c17.608-3.737,47.831-1.902,50.181,15.545c0.391,2.905,0.083,6.733-1.364,8.727
		c-1.898-0.107-2.333-2.247-3.545-3.545c-4.923-5.27-17.408-13.29-25.091-5.455c-5.251-5.037-19.248-6.447-25.635-1.364
		c-1.546,4.727-1.23,11.314-3,15.818c-1.074,0.654-3.148,0.306-4.363,0.818c-2.537,2.296-0.739,7.63-0.818,11.454
		c-16.66,5.176-31.152-9.768-21.272-23.454C39.759,62.848,46.941,56.399,56.314,54.498z"/>
</g>
<path style="fill-rule:evenodd;clip-rule:evenodd;fill:#020303;" d="M59.314,45.498c-0.347,1.107-0.504,2.405-0.545,3.818
	c0.84,0.191,0.524,0.191,1.363,0c-0.369,0.63-1.096,0.903-0.818,2.182c2.361,0.13,5.014-3.857,2.728-4.909
	c-0.75,0.522-0.926,1.62-1.636,2.182C60.773,47.527,61.609,45.246,59.314,45.498z"/>
<g>
	<path style="fill-rule:evenodd;clip-rule:evenodd;fill:#020303;" d="M59.314,45.498c-0.347,1.107-0.504,2.405-0.545,3.818
		c0.84,0.191,0.524,0.191,1.363,0c-0.369,0.63-1.096,0.903-0.818,2.182c2.361,0.13,5.014-3.857,2.728-4.909
		c-0.75,0.522-0.926,1.62-1.636,2.182C60.773,47.527,61.609,45.246,59.314,45.498z"/>
</g>
<path style="fill-rule:evenodd;clip-rule:evenodd;fill:#020303;" d="M62.86,50.68c-0.926,1.711-4.815,0.457-4.636,3.273
	c2.868-0.222,5.65-0.531,6-3.273C63.545,50.65,63.38,50.169,62.86,50.68z"/>
<g>
	<path style="fill-rule:evenodd;clip-rule:evenodd;fill:#020303;" d="M62.86,50.68c-0.926,1.711-4.815,0.457-4.636,3.273
		c2.868-0.222,5.65-0.531,6-3.273C63.545,50.65,63.38,50.169,62.86,50.68z"/>
</g>
<path style="fill-rule:evenodd;clip-rule:evenodd;fill:#020303;" d="M47.315,65.134c-0.142,6.164,4.12,11.678,9.272,12.545
	c0.104-1.923-2.002-2.091-3-3c-2.745-2.503-3.849-5.841-5.454-9.545C47.861,65.134,47.588,65.134,47.315,65.134z"/>
<g>
	<path style="fill-rule:evenodd;clip-rule:evenodd;fill:#020303;" d="M47.315,65.134c-0.142,6.164,4.12,11.678,9.272,12.545
		c0.104-1.923-2.002-2.091-3-3c-2.745-2.503-3.849-5.841-5.454-9.545C47.861,65.134,47.588,65.134,47.315,65.134z"/>
</g>
<path style="fill-rule:evenodd;clip-rule:evenodd;fill:#020303;" d="M48.134,76.315c-1.169-2.113-1.842-5.746-2.728-7.909
	c-0.111-0.343-0.352-0.558-0.818-0.545c-1.166,2.207,0.364,6.199,1.637,8.727c1.227,2.437,3.486,5.876,6,5.454
	C51.586,79.514,49.305,78.434,48.134,76.315z"/>
<g>
	<path style="fill-rule:evenodd;clip-rule:evenodd;fill:#020303;" d="M48.134,76.315c-1.169-2.113-1.842-5.746-2.728-7.909
		c-0.111-0.343-0.352-0.558-0.818-0.545c-1.166,2.207,0.364,6.199,1.637,8.727c1.227,2.437,3.486,5.876,6,5.454
		C51.586,79.514,49.305,78.434,48.134,76.315z"/>
</g>
<path style="fill-rule:evenodd;clip-rule:evenodd;fill:#020303;" d="M41.315,70.043c-0.015,0.349-0.35,0.377-0.272,0.818
	c0.331,4.545,1.592,8.404,3.272,12c1.335,2.854,3.322,6.949,6.272,6.818c-0.111-1.539-1.343-2.606-2.182-3.818
	c-3.029-4.375-5.256-10.615-6-15.818C42.043,70.043,41.68,70.043,41.315,70.043z"/>
<g>
	<path style="fill-rule:evenodd;clip-rule:evenodd;fill:#020303;" d="M41.315,70.043c-0.015,0.349-0.35,0.377-0.272,0.818
		c0.331,4.545,1.592,8.404,3.272,12c1.335,2.854,3.322,6.949,6.272,6.818c-0.111-1.539-1.343-2.606-2.182-3.818
		c-3.029-4.375-5.256-10.615-6-15.818C42.043,70.043,41.68,70.043,41.315,70.043z"/>
</g>
<path style="fill-rule:evenodd;clip-rule:evenodd;fill:#020303;" d="M38.315,71.407c-0.938,3.005-0.866,9.052,1.909,10.09
	c0.356-3.054-1.212-6.865-0.818-10.09C39.043,71.407,38.68,71.407,38.315,71.407z"/>
<g>
	<path style="fill-rule:evenodd;clip-rule:evenodd;fill:#020303;" d="M38.315,71.407c-0.938,3.005-0.866,9.052,1.909,10.09
		c0.356-3.054-1.212-6.865-0.818-10.09C39.043,71.407,38.68,71.407,38.315,71.407z"/>
</g>
<path style="fill-rule:evenodd;clip-rule:evenodd;fill:#020303;" d="M35.316,78.497c1.271-0.687,0.992-4.211,0.817-5.454
	C33.822,72.71,33.521,78.077,35.316,78.497z"/>
<g>
	<path style="fill-rule:evenodd;clip-rule:evenodd;fill:#020303;" d="M35.316,78.497c1.271-0.687,0.992-4.211,0.817-5.454
		C33.822,72.71,33.521,78.077,35.316,78.497z"/>
</g>
<path style="fill-rule:evenodd;clip-rule:evenodd;fill:#020303;" d="M32.588,68.134c-2.776-0.932-4.912-2.82-4.363-7.091
	c1.238-9.625,18.136-13.094,27-8.454C45.602,55.694,38.275,61.095,32.588,68.134z"/>
<g>
	<path style="fill-rule:evenodd;clip-rule:evenodd;fill:#020303;" d="M32.588,68.134c-2.776-0.932-4.912-2.82-4.363-7.091
		c1.238-9.625,18.136-13.094,27-8.454C45.602,55.694,38.275,61.095,32.588,68.134z"/>
</g>
<path style="fill-rule:evenodd;clip-rule:evenodd;fill:#C1C6C4;" d="M55.225,52.589c0.933-0.024,0.158,1.66,1.09,1.636
	c0,0.091,0,0.182,0,0.273c-9.373,1.901-16.556,8.35-22.362,14.727c0.829-0.862-1.161-0.442-1.364-1.091
	C38.275,61.095,45.602,55.694,55.225,52.589z"/>
<g>
	<path style="fill-rule:evenodd;clip-rule:evenodd;fill:#C1C6C4;" d="M55.225,52.589c0.933-0.024,0.158,1.66,1.09,1.636
		c0,0.091,0,0.182,0,0.273c-9.373,1.901-16.556,8.35-22.362,14.727c0.829-0.862-1.161-0.442-1.364-1.091
		C38.275,61.095,45.602,55.694,55.225,52.589z"/>
</g>
<path style="fill-rule:evenodd;clip-rule:evenodd;fill:#C1C6C4;" d="M60.784,48.771c0.71-0.563,0.886-1.66,1.636-2.182
	c2.286,1.052-0.366,5.04-2.728,4.909c-0.277-1.278,0.449-1.551,0.818-2.182c-0.839,0.191-0.523,0.191-1.363,0
	c0.041-1.414,0.198-2.711,0.545-3.818C61.987,45.246,61.151,47.527,60.784,48.771z"/>
<g>
	<path style="fill-rule:evenodd;clip-rule:evenodd;fill:#C1C6C4;" d="M60.784,48.771c0.71-0.563,0.886-1.66,1.636-2.182
		c2.286,1.052-0.366,5.04-2.728,4.909c-0.277-1.278,0.449-1.551,0.818-2.182c-0.839,0.191-0.523,0.191-1.363,0
		c0.041-1.414,0.198-2.711,0.545-3.818C61.987,45.246,61.151,47.527,60.784,48.771z"/>
</g>
<path style="fill-rule:evenodd;clip-rule:evenodd;fill:#C1C6C4;" d="M42.406,70.043c0.744,5.203,2.971,11.442,6,15.818
	c0.839,1.211,2.07,2.279,2.182,3.818c-2.95,0.131-4.938-3.963-6.272-6.818c-1.681-3.596-2.941-7.455-3.272-12
	c-0.077-0.44,0.258-0.469,0.272-0.818C41.68,70.043,42.043,70.043,42.406,70.043z"/>
<g>
	<path style="fill-rule:evenodd;clip-rule:evenodd;fill:#C1C6C4;" d="M42.406,70.043c0.744,5.203,2.971,11.442,6,15.818
		c0.839,1.211,2.07,2.279,2.182,3.818c-2.95,0.131-4.938-3.963-6.272-6.818c-1.681-3.596-2.941-7.455-3.272-12
		c-0.077-0.44,0.258-0.469,0.272-0.818C41.68,70.043,42.043,70.043,42.406,70.043z"/>
</g>
<path style="fill-rule:evenodd;clip-rule:evenodd;fill:#C1C6C4;" d="M39.406,71.407c-0.394,3.226,1.175,7.036,0.818,10.09
	c-2.775-1.039-2.848-7.085-1.909-10.09C38.68,71.407,39.043,71.407,39.406,71.407z"/>
<g>
	<path style="fill-rule:evenodd;clip-rule:evenodd;fill:#C1C6C4;" d="M39.406,71.407c-0.394,3.226,1.175,7.036,0.818,10.09
		c-2.775-1.039-2.848-7.085-1.909-10.09C38.68,71.407,39.043,71.407,39.406,71.407z"/>
</g>
<path style="fill-rule:evenodd;clip-rule:evenodd;fill:#C1C6C4;" d="M36.134,73.043c0.175,1.243,0.454,4.768-0.817,5.454
	C33.521,78.077,33.822,72.71,36.134,73.043z"/>
<g>
	<path style="fill-rule:evenodd;clip-rule:evenodd;fill:#C1C6C4;" d="M36.134,73.043c0.175,1.243,0.454,4.768-0.817,5.454
		C33.521,78.077,33.822,72.71,36.134,73.043z"/>
</g>
<path style="fill-rule:evenodd;clip-rule:evenodd;fill:#C1C6C4;" d="M52.225,82.042c-2.514,0.422-4.773-3.018-6-5.454
	c-1.272-2.528-2.803-6.521-1.637-8.727c0.467-0.012,0.707,0.203,0.818,0.545c0.886,2.163,1.559,5.795,2.728,7.909
	C49.305,78.434,51.586,79.514,52.225,82.042z"/>
<g>
	<path style="fill-rule:evenodd;clip-rule:evenodd;fill:#C1C6C4;" d="M52.225,82.042c-2.514,0.422-4.773-3.018-6-5.454
		c-1.272-2.528-2.803-6.521-1.637-8.727c0.467-0.012,0.707,0.203,0.818,0.545c0.886,2.163,1.559,5.795,2.728,7.909
		C49.305,78.434,51.586,79.514,52.225,82.042z"/>
</g>
<path style="fill-rule:evenodd;clip-rule:evenodd;fill:#C1C6C4;" d="M65.213,51.069c-0.35,2.742-3.132,3.051-6,3.273
	c-0.18-2.816,3.71-1.562,4.636-3.273C64.368,50.558,64.533,51.039,65.213,51.069z"/>
<g>
	<path style="fill-rule:evenodd;clip-rule:evenodd;fill:#C1C6C4;" d="M65.213,51.069c-0.35,2.742-3.132,3.051-6,3.273
		c-0.18-2.816,3.71-1.562,4.636-3.273C64.368,50.558,64.533,51.039,65.213,51.069z"/>
</g>
<path style="fill-rule:evenodd;clip-rule:evenodd;fill:#C1C6C4;" d="M48.134,65.134c1.605,3.705,2.709,7.042,5.454,9.545
	c0.998,0.909,3.104,1.077,3,3c-5.152-0.867-9.414-6.381-9.272-12.545C47.588,65.134,47.861,65.134,48.134,65.134z"/>
<g>
	<path style="fill-rule:evenodd;clip-rule:evenodd;fill:#C1C6C4;" d="M48.134,65.134c1.605,3.705,2.709,7.042,5.454,9.545
		c0.998,0.909,3.104,1.077,3,3c-5.152-0.867-9.414-6.381-9.272-12.545C47.588,65.134,47.861,65.134,48.134,65.134z"/>
</g>
<path style="fill-rule:evenodd;clip-rule:evenodd;fill:#FFFFFF;" d="M55.161,51.793c0.856,0.426,3.195,1.781,3.105,2.935
	C57.263,55.748,53.999,53.198,55.161,51.793z"/>
<g>
	<path style="fill-rule:evenodd;clip-rule:evenodd;fill:#FFFFFF;" d="M55.161,51.793c0.856,0.426,3.195,1.781,3.105,2.935
		C57.263,55.748,53.999,53.198,55.161,51.793z"/>
</g>
<g>
	<g>
		<path style="fill-rule:evenodd;clip-rule:evenodd;fill:#020303;" d="M56.314,54.498c0.222,0.052,0.272,0.273,0.546,0.272
			c2.091-0.724-0.636-2.742-0.546-3c0.971-2.666,1.882-5.391,2.183-8.727c4.408-0.282,7.548,2.972,10.909,4.636
			c-0.016,1.167-0.367,1.998-0.546,3c17.608-3.737,47.831-1.902,50.181,15.545c0.391,2.905,0.083,6.733-1.364,8.727
			c-1.898-0.107-2.333-2.247-3.545-3.545c-4.923-5.27-17.408-13.29-25.091-5.455c-5.251-5.037-19.248-6.447-25.635-1.364
			c-1.546,4.727-1.23,11.314-3,15.818c-1.074,0.654-3.148,0.306-4.363,0.818c-2.537,2.296-0.739,7.63-0.818,11.454
			c-16.66,5.176-31.152-9.768-21.272-23.454C39.759,62.848,46.941,56.399,56.314,54.498z"/>
	</g>
	<g>
		<path style="fill-rule:evenodd;clip-rule:evenodd;fill:#020303;" d="M59.314,45.498c-0.347,1.107-0.504,2.405-0.545,3.818
			c0.84,0.191,0.524,0.191,1.363,0c-0.369,0.63-1.096,0.903-0.818,2.182c2.361,0.13,5.014-3.857,2.728-4.909
			c-0.75,0.522-0.926,1.62-1.636,2.182C60.773,47.527,61.609,45.246,59.314,45.498z"/>
	</g>
	<g>
		<path style="fill-rule:evenodd;clip-rule:evenodd;fill:#020303;" d="M62.86,50.68c-0.926,1.711-4.815,0.457-4.636,3.273
			c2.868-0.222,5.65-0.531,6-3.273C63.545,50.65,63.38,50.169,62.86,50.68z"/>
	</g>
	<g>
		<path style="fill-rule:evenodd;clip-rule:evenodd;fill:#020303;" d="M47.315,65.134c-0.142,6.164,4.12,11.678,9.272,12.545
			c0.104-1.923-2.002-2.091-3-3c-2.745-2.503-3.849-5.841-5.454-9.545C47.861,65.134,47.588,65.134,47.315,65.134z"/>
	</g>
	<g>
		<path style="fill-rule:evenodd;clip-rule:evenodd;fill:#020303;" d="M48.134,76.315c-1.169-2.113-1.842-5.746-2.728-7.909
			c-0.111-0.343-0.352-0.558-0.818-0.545c-1.166,2.207,0.364,6.199,1.637,8.727c1.227,2.437,3.486,5.876,6,5.454
			C51.586,79.514,49.305,78.434,48.134,76.315z"/>
	</g>
	<g>
		<path style="fill-rule:evenodd;clip-rule:evenodd;fill:#020303;" d="M41.315,70.043c-0.015,0.349-0.35,0.377-0.272,0.818
			c0.331,4.545,1.592,8.404,3.272,12c1.335,2.854,3.322,6.949,6.272,6.818c-0.111-1.539-1.343-2.606-2.182-3.818
			c-3.029-4.375-5.256-10.615-6-15.818C42.043,70.043,41.68,70.043,41.315,70.043z"/>
	</g>
	<g>
		<path style="fill-rule:evenodd;clip-rule:evenodd;fill:#020303;" d="M38.315,71.407c-0.938,3.005-0.866,9.052,1.909,10.09
			c0.356-3.054-1.212-6.865-0.818-10.09C39.043,71.407,38.68,71.407,38.315,71.407z"/>
	</g>
	<g>
		<path style="fill-rule:evenodd;clip-rule:evenodd;fill:#020303;" d="M35.316,78.497c1.271-0.687,0.992-4.211,0.817-5.454
			C33.822,72.71,33.521,78.077,35.316,78.497z"/>
	</g>
	<g>
		<path style="fill-rule:evenodd;clip-rule:evenodd;fill:#020303;" d="M32.588,68.134c-2.776-0.932-4.912-2.82-4.363-7.091
			c1.238-9.625,18.136-13.094,27-8.454C45.602,55.694,38.275,61.095,32.588,68.134z"/>
	</g>
	<g>
		<path style="fill-rule:evenodd;clip-rule:evenodd;fill:#C1C6C4;" d="M55.225,52.589c0.933-0.024,0.158,1.66,1.09,1.636
			c0,0.091,0,0.182,0,0.273c-9.373,1.901-16.556,8.35-22.362,14.727c0.829-0.862-1.161-0.442-1.364-1.091
			C38.275,61.095,45.602,55.694,55.225,52.589z"/>
	</g>
	<g>
		<path style="fill-rule:evenodd;clip-rule:evenodd;fill:#C1C6C4;" d="M60.784,48.771c0.71-0.563,0.886-1.66,1.636-2.182
			c2.286,1.052-0.366,5.04-2.728,4.909c-0.277-1.278,0.449-1.551,0.818-2.182c-0.839,0.191-0.523,0.191-1.363,0
			c0.041-1.414,0.198-2.711,0.545-3.818C61.987,45.246,61.151,47.527,60.784,48.771z"/>
	</g>
	<g>
		<path style="fill-rule:evenodd;clip-rule:evenodd;fill:#C1C6C4;" d="M42.406,70.043c0.744,5.203,2.971,11.442,6,15.818
			c0.839,1.211,2.07,2.279,2.182,3.818c-2.95,0.131-4.938-3.963-6.272-6.818c-1.681-3.596-2.941-7.455-3.272-12
			c-0.077-0.44,0.258-0.469,0.272-0.818C41.68,70.043,42.043,70.043,42.406,70.043z"/>
	</g>
	<g>
		<path style="fill-rule:evenodd;clip-rule:evenodd;fill:#C1C6C4;" d="M39.406,71.407c-0.394,3.226,1.175,7.036,0.818,10.09
			c-2.775-1.039-2.848-7.085-1.909-10.09C38.68,71.407,39.043,71.407,39.406,71.407z"/>
	</g>
	<g>
		<path style="fill-rule:evenodd;clip-rule:evenodd;fill:#C1C6C4;" d="M36.134,73.043c0.175,1.243,0.454,4.768-0.817,5.454
			C33.521,78.077,33.822,72.71,36.134,73.043z"/>
	</g>
	<g>
		<path style="fill-rule:evenodd;clip-rule:evenodd;fill:#C1C6C4;" d="M52.225,82.042c-2.514,0.422-4.773-3.018-6-5.454
			c-1.272-2.528-2.803-6.521-1.637-8.727c0.467-0.012,0.707,0.203,0.818,0.545c0.886,2.163,1.559,5.795,2.728,7.909
			C49.305,78.434,51.586,79.514,52.225,82.042z"/>
	</g>
	<g>
		<path style="fill-rule:evenodd;clip-rule:evenodd;fill:#C1C6C4;" d="M65.213,51.069c-0.35,2.742-3.132,3.051-6,3.273
			c-0.18-2.816,3.71-1.562,4.636-3.273C64.368,50.558,64.533,51.039,65.213,51.069z"/>
	</g>
	<g>
		<path style="fill-rule:evenodd;clip-rule:evenodd;fill:#C1C6C4;" d="M48.134,65.134c1.605,3.705,2.709,7.042,5.454,9.545
			c0.998,0.909,3.104,1.077,3,3c-5.152-0.867-9.414-6.381-9.272-12.545C47.588,65.134,47.861,65.134,48.134,65.134z"/>
	</g>
	<g>
		<path style="fill-rule:evenodd;clip-rule:evenodd;fill:#FFFFFF;" d="M55.161,51.793c0.856,0.426,3.195,1.781,3.105,2.935
			C57.263,55.748,53.999,53.198,55.161,51.793z"/>
	</g>
</g>
<path style="fill:#010202;" d="M99.483,152.751h13.199c0.934,0,1.699-0.301,2.301-0.9c0.732-0.732,1.1-1.799,1.1-3.199
	c0-1.467-0.367-2.566-1.1-3.301l-2.301-0.801h-10.801l1.5-3.1h3.602h5.799c1.668,0,3.033,0.533,4.1,1.6
	c1.201,1.201,1.801,3.068,1.801,5.602c0,2.467-0.6,4.299-1.801,5.5c-1.066,1.066-2.432,1.6-4.1,1.6H99.483v-0.201V152.751"/>
<g>
	<path style="fill:#010202;" d="M99.483,152.751h13.199c0.934,0,1.699-0.301,2.301-0.9c0.732-0.732,1.1-1.799,1.1-3.199
		c0-1.467-0.367-2.566-1.1-3.301l-2.301-0.801h-10.801l1.5-3.1h3.602h5.799c1.668,0,3.033,0.533,4.1,1.6
		c1.201,1.201,1.801,3.068,1.801,5.602c0,2.467-0.6,4.299-1.801,5.5c-1.066,1.066-2.432,1.6-4.1,1.6H99.483v-0.201V152.751"/>
</g>
<g>
	<g>
		<path style="fill:#FFFFFF;" d="M61.282,159.95l-3.199-4.699l0.199-0.201c-2.4-2.533-3.832-5.299-4.299-8.299l-0.201-2.4v-1.1
			l0.1-0.801l0.4-1.699l0.701-2h0.199v-1.1l0.301-0.301v-0.1v-2.6l0.299-4.801v-0.1l1-15.5h-0.1l-2.9-0.9l-0.9-2.6l-12.199,4.4
			l0.1,0.299h-0.1v0.102l-2.199,1.799l-4.201-0.199c-1.467-0.135-2.434-1.234-2.9-3.301l-0.299-0.9l0.5-3l0.4-0.699l1.199-1.1
			l0.699-0.6h0.9h1.1l1.5-0.201l0.102,0.201l18.1-6.5l-0.5-1.602l-2.701,0.701l-1.5-2h0.4c-3.533-4.135-5.199-8.867-5-14.201v-1.5
			c0.334-6.533,3.9-12.566,10.701-18.1c7.332-6.732,16.1-10.434,26.299-11.1c10.133,0.666,18.834,4.367,26.1,11.1
			c6.734,5.533,10.367,11.566,10.9,18.1v1.5c0,5.334-1.732,10.066-5.199,14.201h0.199h-0.1l-2.199,2.6v0.301l-2,1.799l13.1,4.701
			l0.1-0.201l1.6,0.201h1.1h0.801l0.801,0.6l1.1,1.1l0.5,0.699l0.5,3l-0.4,0.9c-0.467,2.066-1.4,3.166-2.801,3.301l-4.199,0.199
			l-2.301-1.799v-0.102h-0.1l0.1-0.299l-9.898-3.6v-0.102l-2.602-1l0.102,1.102l-0.602,1.799l0.701,0.201v0.1l-0.301-0.1
			l-0.5,17.699h-0.1l-0.1,3h0.1v0.199l-0.1,0.801h-0.1l-0.102,1h0.102l-0.301,2.6l-0.1,1.9l-0.1,0.699h-3.602l-1.5,3.1h10.801
			l2.301,0.801c0.732,0.734,1.1,1.834,1.1,3.301c0,1.4-0.367,2.467-1.1,3.199c-0.602,0.6-1.367,0.9-2.301,0.9H99.483v2.799
			l-15.4-1.398h-4.9l-3.1,3.398v2.4h-0.1h-2.301v10.4c-0.066,1.801-0.6,3.301-1.6,4.5c-0.934,1-2.066,1.5-3.4,1.5s-2.5-0.5-3.5-1.5
			c-1-1.199-1.5-2.699-1.5-4.5v-10.4H61.282 M62.083,124.351h0.1l-0.1-0.1V124.351 M54.683,137.251l0.1,0.199L54.683,137.251"/>
	</g>
	<g>
		<path style="fill:#010202;" d="M108.583,113.552l-0.701-0.201l0.602-1.799l-0.102-1.102l2.602,1v0.102l9.898,3.6l-0.1,0.299h0.1
			v0.102l2.301,1.799l4.199-0.199c1.4-0.135,2.334-1.234,2.801-3.301l0.4-0.9l-0.5-3l-0.5-0.699l-1.1-1.1l-0.801-0.6h-0.801h-1.1
			l-1.6-0.201l-0.1,0.201l-13.1-4.701l2-1.799l6.299,1.898v-0.1l5.1,1.9v-0.1l0.602,0.4v0.199h0.199l2.5-0.199
			c0.268,0.199,0.467,0.199,0.6,0c2.066,0.465,3.4,1.465,4,3l0.301,0.5v0.5l0.299,0.6l0.4,1.4c0.268,1.199,0.168,2.266-0.299,3.199
			l-0.201,0.4c-0.467,2.533-1.799,4.133-4,4.799c0.066,0.602-0.066,0.668-0.4,0.201l-5.398,0.4c-0.867-0.467-1.967-1.301-3.301-2.5
			l-8.301-3v0.199l-2.799-1.1V113.552"/>
	</g>
	<g>
		<path style="fill:#010202;" d="M63.683,159.95v10.4c0,1.801,0.5,3.301,1.5,4.5c1,1,2.166,1.5,3.5,1.5s2.467-0.5,3.4-1.5
			c1-1.199,1.533-2.699,1.6-4.5v-10.4h2.301v10.4c0,2.6-0.701,4.666-2.102,6.199c-1.467,1.668-3.199,2.5-5.199,2.5
			s-3.768-0.832-5.301-2.5c-1.398-1.533-2.1-3.6-2.1-6.199v-10.4H63.683"/>
	</g>
	<g>
		<path style="fill:#010202;" d="M55.083,99.45l0.5,1.602l-18.1,6.5l-0.102-0.201l-1.5,0.201h-1.1h-0.9l-0.699,0.6l-1.199,1.1
			l-0.4,0.699l-0.5,3l0.299,0.9c0.467,2.066,1.434,3.166,2.9,3.301l4.201,0.199l2.199-1.799v-0.102h0.1l-0.1-0.299l12.199-4.4
			l0.9,2.6l-11.9,4.201l-3.199,2.5c-2.133,0.6-3.934,0.465-5.4-0.4c-0.4,0.467-0.533,0.4-0.4-0.201c-2.266-0.666-3.6-2.266-4-4.799
			l-0.299-0.4c-0.467-0.934-0.566-2-0.301-3.199l0.5-1.4l0.301-0.6v-0.5l0.199-0.5c0.6-1.535,1.967-2.535,4.1-3
			c0.068,0.199,0.268,0.199,0.602,0l2.398,0.199h0.301l-0.1-0.199l0.6-0.4l0.1,0.1l5.1-1.9v0.1l3.602-1.299l6.398-1.5L55.083,99.45"
			/>
	</g>
	<g>
		<path style="fill:#010202;" d="M93.083,93.151c0.199,0.6,0.5,1.1,0.9,1.5l1.398,0.5l1.9-1.201
			c0.533-0.865,0.801-1.967,0.801-3.299c0-1.801-0.6-3.967-1.801-6.5h2.1c1.201,2.133,1.801,4.232,1.801,6.299
			s-0.434,3.668-1.301,4.801c-0.799,1.066-1.865,1.6-3.199,1.6c-1.801,0-3.066-0.934-3.801-2.799
			c-0.799,1.865-2.066,2.799-3.799,2.799c-1.4,0-2.5-0.566-3.301-1.699c-0.867-1.135-1.299-2.701-1.299-4.701
			c0-2.066,0.633-4.166,1.898-6.299h2c-1.133,2.533-1.699,4.699-1.699,6.5c0,1.332,0.232,2.434,0.699,3.299
			c0.533,0.801,1.168,1.201,1.9,1.201c0.533,0,1-0.201,1.4-0.6l0.9-1.4l0.199-2.301v-3.6h2.1v3.6L93.083,93.151"/>
	</g>
	<g>
		<g>
			<path d="M74.728,74.93h1.337l4.68,4.099l-1.715,1.018l-3.634-3.285l-3.634,3.285l-1.715-1.018L74.728,74.93z"/>
		</g>
	</g>
	<g>
		<g>
			<path d="M107.603,74.93h1.337l4.68,4.099l-1.715,1.018l-3.634-3.285l-3.634,3.285l-1.715-1.018L107.603,74.93z"/>
		</g>
	</g>
	<g>
		<path style="fill-rule:evenodd;clip-rule:evenodd;fill:#F28E1B;" d="M84.009,156.997c-1.174,1.008-4.27,1.109-5.727,0.273
			c-0.052-0.221-0.273-0.272-0.272-0.545c2.029-4.771,0.358-12.153-1.636-15.545c6.711-0.43,14.111-0.432,20.181,0.545
			c-0.683,3.897-2.899,6.444-5.182,8.727C88.985,152.839,83.767,156.876,84.009,156.997z"/>
		<path style="fill:#BE6F26;" d="M80.916,158.832c-0.718,0-2.078-0.09-3.132-0.695c-0.189-0.109-0.337-0.276-0.422-0.475
			c-0.141-0.171-0.354-0.472-0.353-0.941c0-0.133,0.027-0.265,0.08-0.388c1.9-4.47,0.273-11.498-1.578-14.647
			c-0.176-0.299-0.184-0.668-0.021-0.976c0.163-0.307,0.474-0.507,0.82-0.529c2.871-0.184,5.666-0.277,8.307-0.277
			c4.593,0,8.662,0.28,12.097,0.833c0.264,0.042,0.5,0.189,0.655,0.407c0.155,0.218,0.217,0.489,0.171,0.752
			c-0.745,4.252-3.209,7.01-5.46,9.262c-1.271,1.272-3.293,2.972-4.917,4.337c-0.914,0.768-1.938,1.629-2.262,1.952
			c-0.059,0.116-0.14,0.221-0.241,0.308C83.528,158.727,81.665,158.832,80.916,158.832z M79.145,156.567
			c0.469,0.168,1.099,0.264,1.771,0.264c1.061,0,1.875-0.229,2.291-0.485c0.312-0.4,1.042-1.014,2.669-2.381
			c1.595-1.341,3.579-3.01,4.79-4.221c1.928-1.929,3.859-4.068,4.684-7.189c-4.745-0.662-10.762-0.822-17.394-0.467
			C79.638,145.875,80.767,152.065,79.145,156.567z"/>
	</g>
	<g>
		<path style="fill-rule:evenodd;clip-rule:evenodd;fill:#F28E1B;" d="M53.731,129.368c11.917-3.917,46.143-8.976,54.932-1.721
			c2.357,4.682,1.812,11.099,0.245,15.778c-15.174-7.092-42.468-3.581-55.88,3.858c-1.468-3.071-1.855-8.898-0.818-12.818
			C52.302,134.464,52.831,130.641,53.731,129.368z"/>
		<path style="fill:#BE6F26;" d="M53.028,148.282c-0.103,0-0.205-0.016-0.305-0.047c-0.263-0.084-0.479-0.272-0.598-0.521
			c-1.581-3.309-1.978-9.367-0.883-13.505c0.013-0.049,0.029-0.097,0.05-0.143c0.026-0.11,0.063-0.296,0.109-0.531
			c0.356-1.765,0.797-3.733,1.513-4.745c0.124-0.175,0.301-0.306,0.504-0.373c7.973-2.62,24.587-5.448,37.526-5.448
			c9.039,0,15.215,1.314,18.354,3.906c0.106,0.088,0.194,0.197,0.257,0.321c2.585,5.136,1.851,11.914,0.3,16.545
			c-0.091,0.271-0.292,0.489-0.554,0.602c-0.262,0.113-0.559,0.108-0.818-0.013c-5.268-2.462-12.422-3.764-20.688-3.764
			c-12.512,0-25.969,2.979-34.282,7.59C53.363,148.24,53.196,148.282,53.028,148.282z M53.172,134.719l0.005,0.001
			c-0.874,3.303-0.687,8.112,0.359,11.156c8.638-4.46,21.916-7.31,34.26-7.31c8.028,0,15.079,1.203,20.488,3.486
			c1.121-3.982,1.592-9.574-0.42-13.765c-2.801-2.171-8.641-3.318-16.919-3.318c-12.553,0-28.594,2.695-36.55,5.234
			c-0.466,0.92-0.856,2.854-1.032,3.728C53.305,134.221,53.25,134.49,53.172,134.719z"/>
	</g>
	<g>
		<g>
			<path style="fill-rule:evenodd;clip-rule:evenodd;fill:#020303;" d="M56.314,54.498c0.222,0.052,0.272,0.273,0.546,0.272
				c2.091-0.724-0.636-2.742-0.546-3c0.971-2.666,1.882-5.391,2.183-8.727c4.408-0.282,7.548,2.972,10.909,4.636
				c-0.016,1.167-0.367,1.998-0.546,3c17.608-3.737,47.831-1.902,50.181,15.545c0.391,2.905,0.083,6.733-1.364,8.727
				c-1.898-0.107-2.333-2.247-3.545-3.545c-4.923-5.27-17.408-13.29-25.091-5.455c-5.251-5.037-19.248-6.447-25.635-1.364
				c-1.546,4.727-1.23,11.314-3,15.818c-1.074,0.654-3.148,0.306-4.363,0.818c-2.537,2.296-0.739,7.63-0.818,11.454
				c-16.66,5.176-31.152-9.768-21.272-23.454C39.759,62.848,46.941,56.399,56.314,54.498z"/>
		</g>
		<g>
			<path style="fill-rule:evenodd;clip-rule:evenodd;fill:#020303;" d="M59.314,45.498c-0.347,1.107-0.504,2.405-0.545,3.818
				c0.84,0.191,0.524,0.191,1.363,0c-0.369,0.63-1.096,0.903-0.818,2.182c2.361,0.13,5.014-3.857,2.728-4.909
				c-0.75,0.522-0.926,1.62-1.636,2.182C60.773,47.527,61.609,45.246,59.314,45.498z"/>
		</g>
		<g>
			<path style="fill-rule:evenodd;clip-rule:evenodd;fill:#020303;" d="M62.86,50.68c-0.926,1.711-4.815,0.457-4.636,3.273
				c2.868-0.222,5.65-0.531,6-3.273C63.545,50.65,63.38,50.169,62.86,50.68z"/>
		</g>
		<g>
			<path style="fill-rule:evenodd;clip-rule:evenodd;fill:#020303;" d="M47.315,65.134c-0.142,6.164,4.12,11.678,9.272,12.545
				c0.104-1.923-2.002-2.091-3-3c-2.745-2.503-3.849-5.841-5.454-9.545C47.861,65.134,47.588,65.134,47.315,65.134z"/>
		</g>
		<g>
			<path style="fill-rule:evenodd;clip-rule:evenodd;fill:#020303;" d="M48.134,76.315c-1.169-2.113-1.842-5.746-2.728-7.909
				c-0.111-0.343-0.352-0.558-0.818-0.545c-1.166,2.207,0.364,6.199,1.637,8.727c1.227,2.437,3.486,5.876,6,5.454
				C51.586,79.514,49.305,78.434,48.134,76.315z"/>
		</g>
		<g>
			<path style="fill-rule:evenodd;clip-rule:evenodd;fill:#020303;" d="M41.315,70.043c-0.015,0.349-0.35,0.377-0.272,0.818
				c0.331,4.545,1.592,8.404,3.272,12c1.335,2.854,3.322,6.949,6.272,6.818c-0.111-1.539-1.343-2.606-2.182-3.818
				c-3.029-4.375-5.256-10.615-6-15.818C42.043,70.043,41.68,70.043,41.315,70.043z"/>
		</g>
		<g>
			<path style="fill-rule:evenodd;clip-rule:evenodd;fill:#020303;" d="M38.315,71.407c-0.938,3.005-0.866,9.052,1.909,10.09
				c0.356-3.054-1.212-6.865-0.818-10.09C39.043,71.407,38.68,71.407,38.315,71.407z"/>
		</g>
		<g>
			<path style="fill-rule:evenodd;clip-rule:evenodd;fill:#020303;" d="M35.316,78.497c1.271-0.687,0.992-4.211,0.817-5.454
				C33.822,72.71,33.521,78.077,35.316,78.497z"/>
		</g>
		<g>
			<path style="fill-rule:evenodd;clip-rule:evenodd;fill:#020303;" d="M32.588,68.134c-2.776-0.932-4.912-2.82-4.363-7.091
				c1.238-9.625,18.136-13.094,27-8.454C45.602,55.694,38.275,61.095,32.588,68.134z"/>
		</g>
		<g>
			<path style="fill-rule:evenodd;clip-rule:evenodd;fill:#C1C6C4;" d="M55.225,52.589c0.933-0.024,0.158,1.66,1.09,1.636
				c0,0.091,0,0.182,0,0.273c-9.373,1.901-16.556,8.35-22.362,14.727c0.829-0.862-1.161-0.442-1.364-1.091
				C38.275,61.095,45.602,55.694,55.225,52.589z"/>
		</g>
		<g>
			<path style="fill-rule:evenodd;clip-rule:evenodd;fill:#C1C6C4;" d="M60.784,48.771c0.71-0.563,0.886-1.66,1.636-2.182
				c2.286,1.052-0.366,5.04-2.728,4.909c-0.277-1.278,0.449-1.551,0.818-2.182c-0.839,0.191-0.523,0.191-1.363,0
				c0.041-1.414,0.198-2.711,0.545-3.818C61.987,45.246,61.151,47.527,60.784,48.771z"/>
		</g>
		<g>
			<path style="fill-rule:evenodd;clip-rule:evenodd;fill:#C1C6C4;" d="M42.406,70.043c0.744,5.203,2.971,11.442,6,15.818
				c0.839,1.211,2.07,2.279,2.182,3.818c-2.95,0.131-4.938-3.963-6.272-6.818c-1.681-3.596-2.941-7.455-3.272-12
				c-0.077-0.44,0.258-0.469,0.272-0.818C41.68,70.043,42.043,70.043,42.406,70.043z"/>
		</g>
		<g>
			<path style="fill-rule:evenodd;clip-rule:evenodd;fill:#C1C6C4;" d="M39.406,71.407c-0.394,3.226,1.175,7.036,0.818,10.09
				c-2.775-1.039-2.848-7.085-1.909-10.09C38.68,71.407,39.043,71.407,39.406,71.407z"/>
		</g>
		<g>
			<path style="fill-rule:evenodd;clip-rule:evenodd;fill:#C1C6C4;" d="M36.134,73.043c0.175,1.243,0.454,4.768-0.817,5.454
				C33.521,78.077,33.822,72.71,36.134,73.043z"/>
		</g>
		<g>
			<path style="fill-rule:evenodd;clip-rule:evenodd;fill:#C1C6C4;" d="M52.225,82.042c-2.514,0.422-4.773-3.018-6-5.454
				c-1.272-2.528-2.803-6.521-1.637-8.727c0.467-0.012,0.707,0.203,0.818,0.545c0.886,2.163,1.559,5.795,2.728,7.909
				C49.305,78.434,51.586,79.514,52.225,82.042z"/>
		</g>
		<g>
			<path style="fill-rule:evenodd;clip-rule:evenodd;fill:#C1C6C4;" d="M65.213,51.069c-0.35,2.742-3.132,3.051-6,3.273
				c-0.18-2.816,3.71-1.562,4.636-3.273C64.368,50.558,64.533,51.039,65.213,51.069z"/>
		</g>
		<g>
			<path style="fill-rule:evenodd;clip-rule:evenodd;fill:#C1C6C4;" d="M48.134,65.134c1.605,3.705,2.709,7.042,5.454,9.545
				c0.998,0.909,3.104,1.077,3,3c-5.152-0.867-9.414-6.381-9.272-12.545C47.588,65.134,47.861,65.134,48.134,65.134z"/>
		</g>
		<g>
			<path style="fill-rule:evenodd;clip-rule:evenodd;fill:#FFFFFF;" d="M55.161,51.793c0.856,0.426,3.195,1.781,3.105,2.935
				C57.263,55.748,53.999,53.198,55.161,51.793z"/>
		</g>
	</g>
	<g>
		<path style="fill:#010202;" d="M99.483,152.751h13.199c0.934,0,1.699-0.301,2.301-0.9c0.732-0.732,1.1-1.799,1.1-3.199
			c0-1.467-0.367-2.566-1.1-3.301l-2.301-0.801h-10.801l1.5-3.1h3.602h5.799c1.668,0,3.033,0.533,4.1,1.6
			c1.201,1.201,1.801,3.068,1.801,5.602c0,2.467-0.6,4.299-1.801,5.5c-1.066,1.066-2.432,1.6-4.1,1.6H99.483v-0.201V152.751"/>
	</g>
</g>
</svg>
