<?xml version="1.0" encoding="UTF-8" standalone="no"?>
<svg
   xmlns:dc="http://purl.org/dc/elements/1.1/"
   xmlns:cc="http://creativecommons.org/ns#"
   xmlns:rdf="http://www.w3.org/1999/02/22-rdf-syntax-ns#"
   xmlns:svg="http://www.w3.org/2000/svg"
   xmlns="http://www.w3.org/2000/svg"
   xmlns:sodipodi="http://sodipodi.sourceforge.net/DTD/sodipodi-0.dtd"
   xmlns:inkscape="http://www.inkscape.org/namespaces/inkscape"
   version="1.1"
   id="front-walking-2"
   x="0px"
   y="0px"
   width="160px"
   height="220px"
   viewBox="0 0 160 220"
   style="enable-background:new 0 0 160 220;"
   xml:space="preserve"
   sodipodi:docname="front-walking-2.svg"
   inkscape:version="1.0.2-2 (e86c870879, 2021-01-15)"><metadata
   id="metadata4785"><rdf:RDF><cc:Work
       rdf:about=""><dc:format>image/svg+xml</dc:format><dc:type
         rdf:resource="http://purl.org/dc/dcmitype/StillImage" /><dc:title></dc:title></cc:Work></rdf:RDF></metadata><defs
   id="defs4783" /><sodipodi:namedview
   pagecolor="#ffffff"
   bordercolor="#666666"
   borderopacity="1"
   objecttolerance="10"
   gridtolerance="10"
   guidetolerance="10"
   inkscape:pageopacity="0"
   inkscape:pageshadow="2"
   inkscape:window-width="1191"
   inkscape:window-height="824"
   id="namedview4781"
   showgrid="false"
   inkscape:zoom="3.8636364"
   inkscape:cx="80"
   inkscape:cy="110"
   inkscape:window-x="0"
   inkscape:window-y="0"
   inkscape:window-maximized="0"
   inkscape:current-layer="front-walking-2" />
<path
   style="fill:#FFFFFF;"
   d="M61.282,159.95l-3.199-4.699l0.199-0.201c-2.4-2.533-3.832-5.299-4.299-8.299l-0.201-2.4v-1.1  l0.1-0.801l0.4-1.699l0.701-2h0.199v-1.1l0.301-0.301v-0.1v-2.6l0.299-4.801v-0.1l1-15.5h-0.1l-2.9-0.9l-0.9-2.6l-12.199,4.4  l0.1,0.299h-0.1v0.102l-2.199,1.799l-4.201-0.199c-1.467-0.135-2.434-1.234-2.9-3.301l-0.299-0.9l0.5-3l0.4-0.699l1.199-1.1  l0.699-0.6h0.9h1.1l1.5-0.201l0.102,0.201l18.1-6.5l-0.5-1.602l-2.701,0.701l-1.5-2h0.4c-3.533-4.135-5.199-8.867-5-14.201v-1.5  c0.334-6.533,3.9-12.566,10.701-18.1c7.332-6.732,16.1-10.434,26.299-11.1c10.133,0.666,18.834,4.367,26.1,11.1  c6.734,5.533,10.367,11.566,10.9,18.1v1.5c0,5.334-1.732,10.066-5.199,14.201h0.199h-0.1l-2.199,2.6v0.301l-2,1.799l13.1,4.701  l0.1-0.201l1.6,0.201h1.1h0.801l0.801,0.6l1.1,1.1l0.5,0.699l0.5,3l-0.4,0.9c-0.467,2.066-1.4,3.166-2.801,3.301l-4.199,0.199  l-2.301-1.799v-0.102h-0.1l0.1-0.299l-9.898-3.6v-0.102l-2.602-1l0.102,1.102l-0.602,1.799l0.701,0.201v0.1l-0.301-0.1l-0.5,17.699  h-0.1l-0.1,3h0.1v0.199l-0.1,0.801h-0.1l-0.102,1h0.102l-0.301,2.6l-0.1,1.9l-0.1,0.699h-3.602l-1.5,3.1h10.801l2.301,0.801  c0.732,0.734,1.1,1.834,1.1,3.301c0,1.4-0.367,2.467-1.1,3.199c-0.602,0.6-1.367,0.9-2.301,0.9H99.483v2.799l-15.4-1.398h-4.9  l-3.1,3.398v2.4h-0.1h-2.301v10.4c-0.066,1.801-0.6,3.301-1.6,4.5c-0.934,1-2.066,1.5-3.4,1.5s-2.5-0.5-3.5-1.5  c-1-1.199-1.5-2.699-1.5-4.5v-10.4H61.282 M62.083,124.351h0.1l-0.1-0.1V124.351 M54.683,137.251l0.1,0.199L54.683,137.251"
   id="path4394" />
<g
   id="g4398">
	<path
   style="fill:#FFFFFF;"
   d="M61.282,159.95l-3.199-4.699l0.199-0.201c-2.4-2.533-3.832-5.299-4.299-8.299l-0.201-2.4v-1.1   l0.1-0.801l0.4-1.699l0.701-2h0.199v-1.1l0.301-0.301v-0.1v-2.6l0.299-4.801v-0.1l1-15.5h-0.1l-2.9-0.9l-0.9-2.6l-12.199,4.4   l0.1,0.299h-0.1v0.102l-2.199,1.799l-4.201-0.199c-1.467-0.135-2.434-1.234-2.9-3.301l-0.299-0.9l0.5-3l0.4-0.699l1.199-1.1   l0.699-0.6h0.9h1.1l1.5-0.201l0.102,0.201l18.1-6.5l-0.5-1.602l-2.701,0.701l-1.5-2h0.4c-3.533-4.135-5.199-8.867-5-14.201v-1.5   c0.334-6.533,3.9-12.566,10.701-18.1c7.332-6.732,16.1-10.434,26.299-11.1c10.133,0.666,18.834,4.367,26.1,11.1   c6.734,5.533,10.367,11.566,10.9,18.1v1.5c0,5.334-1.732,10.066-5.199,14.201h0.199h-0.1l-2.199,2.6v0.301l-2,1.799l13.1,4.701   l0.1-0.201l1.6,0.201h1.1h0.801l0.801,0.6l1.1,1.1l0.5,0.699l0.5,3l-0.4,0.9c-0.467,2.066-1.4,3.166-2.801,3.301l-4.199,0.199   l-2.301-1.799v-0.102h-0.1l0.1-0.299l-9.898-3.6v-0.102l-2.602-1l0.102,1.102l-0.602,1.799l0.701,0.201v0.1l-0.301-0.1l-0.5,17.699   h-0.1l-0.1,3h0.1v0.199l-0.1,0.801h-0.1l-0.102,1h0.102l-0.301,2.6l-0.1,1.9l-0.1,0.699h-3.602l-1.5,3.1h10.801l2.301,0.801   c0.732,0.734,1.1,1.834,1.1,3.301c0,1.4-0.367,2.467-1.1,3.199c-0.602,0.6-1.367,0.9-2.301,0.9H99.483v2.799l-15.4-1.398h-4.9   l-3.1,3.398v2.4h-0.1h-2.301v10.4c-0.066,1.801-0.6,3.301-1.6,4.5c-0.934,1-2.066,1.5-3.4,1.5s-2.5-0.5-3.5-1.5   c-1-1.199-1.5-2.699-1.5-4.5v-10.4H61.282 M62.083,124.351h0.1l-0.1-0.1V124.351 M54.683,137.251l0.1,0.199L54.683,137.251"
   id="path4396" />
</g>


<path
   style="fill:#010202;"
   d="M63.683,159.95v10.4c0,1.801,0.5,3.301,1.5,4.5c1,1,2.166,1.5,3.5,1.5s2.467-0.5,3.4-1.5  c1-1.199,1.533-2.699,1.6-4.5v-10.4h2.301v10.4c0,2.6-0.701,4.666-2.102,6.199c-1.467,1.668-3.199,2.5-5.199,2.5  s-3.768-0.832-5.301-2.5c-1.398-1.533-2.1-3.6-2.1-6.199v-10.4H63.683"
   id="path4406" />
<g
   id="g4410">
	<path
   style="fill:#010202;"
   d="M63.683,159.95v10.4c0,1.801,0.5,3.301,1.5,4.5c1,1,2.166,1.5,3.5,1.5s2.467-0.5,3.4-1.5   c1-1.199,1.533-2.699,1.6-4.5v-10.4h2.301v10.4c0,2.6-0.701,4.666-2.102,6.199c-1.467,1.668-3.199,2.5-5.199,2.5   s-3.768-0.832-5.301-2.5c-1.398-1.533-2.1-3.6-2.1-6.199v-10.4H63.683"
   id="path4408" />
</g>


<path
   style="fill:#010202;"
   d="M93.083,93.151c0.199,0.6,0.5,1.1,0.9,1.5l1.398,0.5l1.9-1.201c0.533-0.865,0.801-1.967,0.801-3.299  c0-1.801-0.6-3.967-1.801-6.5h2.1c1.201,2.133,1.801,4.232,1.801,6.299s-0.434,3.668-1.301,4.801c-0.799,1.066-1.865,1.6-3.199,1.6  c-1.801,0-3.066-0.934-3.801-2.799c-0.799,1.865-2.066,2.799-3.799,2.799c-1.4,0-2.5-0.566-3.301-1.699  c-0.867-1.135-1.299-2.701-1.299-4.701c0-2.066,0.633-4.166,1.898-6.299h2c-1.133,2.533-1.699,4.699-1.699,6.5  c0,1.332,0.232,2.434,0.699,3.299c0.533,0.801,1.168,1.201,1.9,1.201c0.533,0,1-0.201,1.4-0.6l0.9-1.4l0.199-2.301v-3.6h2.1v3.6  L93.083,93.151"
   id="path4418" />
<g
   id="g4422">
	<path
   style="fill:#010202;"
   d="M93.083,93.151c0.199,0.6,0.5,1.1,0.9,1.5l1.398,0.5l1.9-1.201c0.533-0.865,0.801-1.967,0.801-3.299   c0-1.801-0.6-3.967-1.801-6.5h2.1c1.201,2.133,1.801,4.232,1.801,6.299s-0.434,3.668-1.301,4.801c-0.799,1.066-1.865,1.6-3.199,1.6   c-1.801,0-3.066-0.934-3.801-2.799c-0.799,1.865-2.066,2.799-3.799,2.799c-1.4,0-2.5-0.566-3.301-1.699   c-0.867-1.135-1.299-2.701-1.299-4.701c0-2.066,0.633-4.166,1.898-6.299h2c-1.133,2.533-1.699,4.699-1.699,6.5   c0,1.332,0.232,2.434,0.699,3.299c0.533,0.801,1.168,1.201,1.9,1.201c0.533,0,1-0.201,1.4-0.6l0.9-1.4l0.199-2.301v-3.6h2.1v3.6   L93.083,93.151"
   id="path4420" />
</g>
<path
   d="M74.728,74.93h1.337l4.68,4.099l-1.715,1.018l-3.634-3.285l-3.634,3.285l-1.715-1.018L74.728,74.93z"
   id="path4424" />
<g
   id="g4428">
	<path
   d="M74.728,74.93h1.337l4.68,4.099l-1.715,1.018l-3.634-3.285l-3.634,3.285l-1.715-1.018L74.728,74.93z"
   id="path4426" />
</g>
<g
   id="g4434">
	<g
   id="g4432">
		<path
   d="M74.728,74.93h1.337l4.68,4.099l-1.715,1.018l-3.634-3.285l-3.634,3.285l-1.715-1.018L74.728,74.93z"
   id="path4430" />
	</g>
</g>
<path
   d="M107.603,74.93h1.337l4.68,4.099l-1.715,1.018l-3.634-3.285l-3.634,3.285l-1.715-1.018L107.603,74.93z"
   id="path4436" />
<g
   id="g4440">
	<path
   d="M107.603,74.93h1.337l4.68,4.099l-1.715,1.018l-3.634-3.285l-3.634,3.285l-1.715-1.018L107.603,74.93z"
   id="path4438" />
</g>
<g
   id="g4446">
	<g
   id="g4444">
		<path
   d="M107.603,74.93h1.337l4.68,4.099l-1.715,1.018l-3.634-3.285l-3.634,3.285l-1.715-1.018L107.603,74.93z"
   id="path4442" />
	</g>
</g>
<path
   style="fill-rule:evenodd;clip-rule:evenodd;fill:#F28E1B;"
   d="M84.009,156.997c-1.174,1.008-4.27,1.109-5.727,0.273  c-0.052-0.221-0.273-0.272-0.272-0.545c2.029-4.771,0.358-12.153-1.636-15.545c6.711-0.43,14.111-0.432,20.181,0.545  c-0.683,3.897-2.899,6.444-5.182,8.727C88.985,152.839,83.767,156.876,84.009,156.997z"
   id="path4448" />
<path
   style="fill:#BE6F26;"
   d="M80.916,158.832c-0.718,0-2.078-0.09-3.132-0.695c-0.189-0.109-0.337-0.276-0.422-0.475  c-0.141-0.171-0.354-0.472-0.353-0.941c0-0.133,0.027-0.265,0.08-0.388c1.9-4.47,0.273-11.498-1.578-14.647  c-0.176-0.299-0.184-0.668-0.021-0.976c0.163-0.307,0.474-0.507,0.82-0.529c2.871-0.184,5.666-0.277,8.307-0.277  c4.593,0,8.662,0.28,12.097,0.833c0.264,0.042,0.5,0.189,0.655,0.407c0.155,0.218,0.217,0.489,0.171,0.752  c-0.745,4.252-3.209,7.01-5.46,9.262c-1.271,1.272-3.293,2.972-4.917,4.337c-0.914,0.768-1.938,1.629-2.262,1.952  c-0.059,0.116-0.14,0.221-0.241,0.308C83.528,158.727,81.665,158.832,80.916,158.832z M79.145,156.567  c0.469,0.168,1.099,0.264,1.771,0.264c1.061,0,1.875-0.229,2.291-0.485c0.312-0.4,1.042-1.014,2.669-2.381  c1.595-1.341,3.579-3.01,4.79-4.221c1.928-1.929,3.859-4.068,4.684-7.189c-4.745-0.662-10.762-0.822-17.394-0.467  C79.638,145.875,80.767,152.065,79.145,156.567z"
   id="path4450" />
<g
   id="g4456">
	<path
   style="fill-rule:evenodd;clip-rule:evenodd;fill:#F28E1B;"
   d="M84.009,156.997c-1.174,1.008-4.27,1.109-5.727,0.273   c-0.052-0.221-0.273-0.272-0.272-0.545c2.029-4.771,0.358-12.153-1.636-15.545c6.711-0.43,14.111-0.432,20.181,0.545   c-0.683,3.897-2.899,6.444-5.182,8.727C88.985,152.839,83.767,156.876,84.009,156.997z"
   id="path4452" />
	<path
   style="fill:#BE6F26;"
   d="M80.916,158.832c-0.718,0-2.078-0.09-3.132-0.695c-0.189-0.109-0.337-0.276-0.422-0.475   c-0.141-0.171-0.354-0.472-0.353-0.941c0-0.133,0.027-0.265,0.08-0.388c1.9-4.47,0.273-11.498-1.578-14.647   c-0.176-0.299-0.184-0.668-0.021-0.976c0.163-0.307,0.474-0.507,0.82-0.529c2.871-0.184,5.666-0.277,8.307-0.277   c4.593,0,8.662,0.28,12.097,0.833c0.264,0.042,0.5,0.189,0.655,0.407c0.155,0.218,0.217,0.489,0.171,0.752   c-0.745,4.252-3.209,7.01-5.46,9.262c-1.271,1.272-3.293,2.972-4.917,4.337c-0.914,0.768-1.938,1.629-2.262,1.952   c-0.059,0.116-0.14,0.221-0.241,0.308C83.528,158.727,81.665,158.832,80.916,158.832z M79.145,156.567   c0.469,0.168,1.099,0.264,1.771,0.264c1.061,0,1.875-0.229,2.291-0.485c0.312-0.4,1.042-1.014,2.669-2.381   c1.595-1.341,3.579-3.01,4.79-4.221c1.928-1.929,3.859-4.068,4.684-7.189c-4.745-0.662-10.762-0.822-17.394-0.467   C79.638,145.875,80.767,152.065,79.145,156.567z"
   id="path4454" />
</g>
<path
   style="fill-rule:evenodd;clip-rule:evenodd;fill:#F28E1B;"
   d="M53.731,129.368c11.917-3.917,46.143-8.976,54.932-1.721  c2.357,4.682,1.812,11.099,0.245,15.778c-15.174-7.092-42.468-3.581-55.88,3.858c-1.468-3.071-1.855-8.898-0.818-12.818  C52.302,134.464,52.831,130.641,53.731,129.368z"
   id="path4458" />
<path
   style="fill:#BE6F26;"
   d="M53.028,148.282c-0.103,0-0.205-0.016-0.305-0.047c-0.263-0.084-0.479-0.272-0.598-0.521  c-1.581-3.309-1.978-9.367-0.883-13.505c0.013-0.049,0.029-0.097,0.05-0.143c0.026-0.11,0.063-0.296,0.109-0.531  c0.356-1.765,0.797-3.733,1.513-4.745c0.124-0.175,0.301-0.306,0.504-0.373c7.973-2.62,24.587-5.448,37.526-5.448  c9.039,0,15.215,1.314,18.354,3.906c0.106,0.088,0.194,0.197,0.257,0.321c2.585,5.136,1.851,11.914,0.3,16.545  c-0.091,0.271-0.292,0.489-0.554,0.602c-0.262,0.113-0.559,0.108-0.818-0.013c-5.268-2.462-12.422-3.764-20.688-3.764  c-12.512,0-25.969,2.979-34.282,7.59C53.363,148.24,53.196,148.282,53.028,148.282z M53.172,134.719l0.005,0.001  c-0.874,3.303-0.687,8.112,0.359,11.156c8.638-4.46,21.916-7.31,34.26-7.31c8.028,0,15.079,1.203,20.488,3.486  c1.121-3.982,1.592-9.574-0.42-13.765c-2.801-2.171-8.641-3.318-16.919-3.318c-12.553,0-28.594,2.695-36.55,5.234  c-0.466,0.92-0.856,2.854-1.032,3.728C53.305,134.221,53.25,134.49,53.172,134.719z"
   id="path4460" />
<g
   id="g4466">
	<path
   style="fill-rule:evenodd;clip-rule:evenodd;fill:#F28E1B;"
   d="M53.731,129.368c11.917-3.917,46.143-8.976,54.932-1.721   c2.357,4.682,1.812,11.099,0.245,15.778c-15.174-7.092-42.468-3.581-55.88,3.858c-1.468-3.071-1.855-8.898-0.818-12.818   C52.302,134.464,52.831,130.641,53.731,129.368z"
   id="path4462" />
	<path
   style="fill:#BE6F26;"
   d="M53.028,148.282c-0.103,0-0.205-0.016-0.305-0.047c-0.263-0.084-0.479-0.272-0.598-0.521   c-1.581-3.309-1.978-9.367-0.883-13.505c0.013-0.049,0.029-0.097,0.05-0.143c0.026-0.11,0.063-0.296,0.109-0.531   c0.356-1.765,0.797-3.733,1.513-4.745c0.124-0.175,0.301-0.306,0.504-0.373c7.973-2.62,24.587-5.448,37.526-5.448   c9.039,0,15.215,1.314,18.354,3.906c0.106,0.088,0.194,0.197,0.257,0.321c2.585,5.136,1.851,11.914,0.3,16.545   c-0.091,0.271-0.292,0.489-0.554,0.602c-0.262,0.113-0.559,0.108-0.818-0.013c-5.268-2.462-12.422-3.764-20.688-3.764   c-12.512,0-25.969,2.979-34.282,7.59C53.363,148.24,53.196,148.282,53.028,148.282z M53.172,134.719l0.005,0.001   c-0.874,3.303-0.687,8.112,0.359,11.156c8.638-4.46,21.916-7.31,34.26-7.31c8.028,0,15.079,1.203,20.488,3.486   c1.121-3.982,1.592-9.574-0.42-13.765c-2.801-2.171-8.641-3.318-16.919-3.318c-12.553,0-28.594,2.695-36.55,5.234   c-0.466,0.92-0.856,2.854-1.032,3.728C53.305,134.221,53.25,134.49,53.172,134.719z"
   id="path4464" />
</g>
<path
   style="fill-rule:evenodd;clip-rule:evenodd;fill:#020303;"
   d="M56.314,54.498c0.222,0.052,0.272,0.273,0.546,0.272  c2.091-0.724-0.636-2.742-0.546-3c0.971-2.666,1.882-5.391,2.183-8.727c4.408-0.282,7.548,2.972,10.909,4.636  c-0.016,1.167-0.367,1.998-0.546,3c17.608-3.737,47.831-1.902,50.181,15.545c0.391,2.905,0.083,6.733-1.364,8.727  c-1.898-0.107-2.333-2.247-3.545-3.545c-4.923-5.27-17.408-13.29-25.091-5.455c-5.251-5.037-19.248-6.447-25.635-1.364  c-1.546,4.727-1.23,11.314-3,15.818c-1.074,0.654-3.148,0.306-4.363,0.818c-2.537,2.296-0.739,7.63-0.818,11.454  c-16.66,5.176-31.152-9.768-21.272-23.454C39.759,62.848,46.941,56.399,56.314,54.498z"
   id="path4468" />
<g
   id="g4472">
	<path
   style="fill-rule:evenodd;clip-rule:evenodd;fill:#020303;"
   d="M56.314,54.498c0.222,0.052,0.272,0.273,0.546,0.272   c2.091-0.724-0.636-2.742-0.546-3c0.971-2.666,1.882-5.391,2.183-8.727c4.408-0.282,7.548,2.972,10.909,4.636   c-0.016,1.167-0.367,1.998-0.546,3c17.608-3.737,47.831-1.902,50.181,15.545c0.391,2.905,0.083,6.733-1.364,8.727   c-1.898-0.107-2.333-2.247-3.545-3.545c-4.923-5.27-17.408-13.29-25.091-5.455c-5.251-5.037-19.248-6.447-25.635-1.364   c-1.546,4.727-1.23,11.314-3,15.818c-1.074,0.654-3.148,0.306-4.363,0.818c-2.537,2.296-0.739,7.63-0.818,11.454   c-16.66,5.176-31.152-9.768-21.272-23.454C39.759,62.848,46.941,56.399,56.314,54.498z"
   id="path4470" />
</g>
<path
   style="fill-rule:evenodd;clip-rule:evenodd;fill:#020303;"
   d="M59.314,45.498c-0.347,1.107-0.504,2.405-0.545,3.818  c0.84,0.191,0.524,0.191,1.363,0c-0.369,0.63-1.096,0.903-0.818,2.182c2.361,0.13,5.014-3.857,2.728-4.909  c-0.75,0.522-0.926,1.62-1.636,2.182C60.773,47.527,61.609,45.246,59.314,45.498z"
   id="path4474" />
<g
   id="g4478">
	<path
   style="fill-rule:evenodd;clip-rule:evenodd;fill:#020303;"
   d="M59.314,45.498c-0.347,1.107-0.504,2.405-0.545,3.818   c0.84,0.191,0.524,0.191,1.363,0c-0.369,0.63-1.096,0.903-0.818,2.182c2.361,0.13,5.014-3.857,2.728-4.909   c-0.75,0.522-0.926,1.62-1.636,2.182C60.773,47.527,61.609,45.246,59.314,45.498z"
   id="path4476" />
</g>
<path
   style="fill-rule:evenodd;clip-rule:evenodd;fill:#020303;"
   d="M62.86,50.68c-0.926,1.711-4.815,0.457-4.636,3.273  c2.868-0.222,5.65-0.531,6-3.273C63.545,50.65,63.38,50.169,62.86,50.68z"
   id="path4480" />
<g
   id="g4484">
	<path
   style="fill-rule:evenodd;clip-rule:evenodd;fill:#020303;"
   d="M62.86,50.68c-0.926,1.711-4.815,0.457-4.636,3.273   c2.868-0.222,5.65-0.531,6-3.273C63.545,50.65,63.38,50.169,62.86,50.68z"
   id="path4482" />
</g>
<path
   style="fill-rule:evenodd;clip-rule:evenodd;fill:#020303;"
   d="M47.315,65.134c-0.142,6.164,4.12,11.678,9.272,12.545  c0.104-1.923-2.002-2.091-3-3c-2.745-2.503-3.849-5.841-5.454-9.545C47.861,65.134,47.588,65.134,47.315,65.134z"
   id="path4486" />
<g
   id="g4490">
	<path
   style="fill-rule:evenodd;clip-rule:evenodd;fill:#020303;"
   d="M47.315,65.134c-0.142,6.164,4.12,11.678,9.272,12.545   c0.104-1.923-2.002-2.091-3-3c-2.745-2.503-3.849-5.841-5.454-9.545C47.861,65.134,47.588,65.134,47.315,65.134z"
   id="path4488" />
</g>
<path
   style="fill-rule:evenodd;clip-rule:evenodd;fill:#020303;"
   d="M48.134,76.315c-1.169-2.113-1.842-5.746-2.728-7.909  c-0.111-0.343-0.352-0.558-0.818-0.545c-1.166,2.207,0.364,6.199,1.637,8.727c1.227,2.437,3.486,5.876,6,5.454  C51.586,79.514,49.305,78.434,48.134,76.315z"
   id="path4492" />
<g
   id="g4496">
	<path
   style="fill-rule:evenodd;clip-rule:evenodd;fill:#020303;"
   d="M48.134,76.315c-1.169-2.113-1.842-5.746-2.728-7.909   c-0.111-0.343-0.352-0.558-0.818-0.545c-1.166,2.207,0.364,6.199,1.637,8.727c1.227,2.437,3.486,5.876,6,5.454   C51.586,79.514,49.305,78.434,48.134,76.315z"
   id="path4494" />
</g>
<path
   style="fill-rule:evenodd;clip-rule:evenodd;fill:#020303;"
   d="M41.315,70.043c-0.015,0.349-0.35,0.377-0.272,0.818  c0.331,4.545,1.592,8.404,3.272,12c1.335,2.854,3.322,6.949,6.272,6.818c-0.111-1.539-1.343-2.606-2.182-3.818  c-3.029-4.375-5.256-10.615-6-15.818C42.043,70.043,41.68,70.043,41.315,70.043z"
   id="path4498" />
<g
   id="g4502">
	<path
   style="fill-rule:evenodd;clip-rule:evenodd;fill:#020303;"
   d="M41.315,70.043c-0.015,0.349-0.35,0.377-0.272,0.818   c0.331,4.545,1.592,8.404,3.272,12c1.335,2.854,3.322,6.949,6.272,6.818c-0.111-1.539-1.343-2.606-2.182-3.818   c-3.029-4.375-5.256-10.615-6-15.818C42.043,70.043,41.68,70.043,41.315,70.043z"
   id="path4500" />
</g>
<path
   style="fill-rule:evenodd;clip-rule:evenodd;fill:#020303;"
   d="M38.315,71.407c-0.938,3.005-0.866,9.052,1.909,10.09  c0.356-3.054-1.212-6.865-0.818-10.09C39.043,71.407,38.68,71.407,38.315,71.407z"
   id="path4504" />
<g
   id="g4508">
	<path
   style="fill-rule:evenodd;clip-rule:evenodd;fill:#020303;"
   d="M38.315,71.407c-0.938,3.005-0.866,9.052,1.909,10.09   c0.356-3.054-1.212-6.865-0.818-10.09C39.043,71.407,38.68,71.407,38.315,71.407z"
   id="path4506" />
</g>
<path
   style="fill-rule:evenodd;clip-rule:evenodd;fill:#020303;"
   d="M35.316,78.497c1.271-0.687,0.992-4.211,0.817-5.454  C33.822,72.71,33.521,78.077,35.316,78.497z"
   id="path4510" />
<g
   id="g4514">
	<path
   style="fill-rule:evenodd;clip-rule:evenodd;fill:#020303;"
   d="M35.316,78.497c1.271-0.687,0.992-4.211,0.817-5.454   C33.822,72.71,33.521,78.077,35.316,78.497z"
   id="path4512" />
</g>
<path
   style="fill-rule:evenodd;clip-rule:evenodd;fill:#020303;"
   d="M32.588,68.134c-2.776-0.932-4.912-2.82-4.363-7.091  c1.238-9.625,18.136-13.094,27-8.454C45.602,55.694,38.275,61.095,32.588,68.134z"
   id="path4516" />
<g
   id="g4520">
	<path
   style="fill-rule:evenodd;clip-rule:evenodd;fill:#020303;"
   d="M32.588,68.134c-2.776-0.932-4.912-2.82-4.363-7.091   c1.238-9.625,18.136-13.094,27-8.454C45.602,55.694,38.275,61.095,32.588,68.134z"
   id="path4518" />
</g>
<path
   style="fill-rule:evenodd;clip-rule:evenodd;fill:#C1C6C4;"
   d="M55.225,52.589c0.933-0.024,0.158,1.66,1.09,1.636  c0,0.091,0,0.182,0,0.273c-9.373,1.901-16.556,8.35-22.362,14.727c0.829-0.862-1.161-0.442-1.364-1.091  C38.275,61.095,45.602,55.694,55.225,52.589z"
   id="path4522" />
<g
   id="g4526">
	<path
   style="fill-rule:evenodd;clip-rule:evenodd;fill:#C1C6C4;"
   d="M55.225,52.589c0.933-0.024,0.158,1.66,1.09,1.636   c0,0.091,0,0.182,0,0.273c-9.373,1.901-16.556,8.35-22.362,14.727c0.829-0.862-1.161-0.442-1.364-1.091   C38.275,61.095,45.602,55.694,55.225,52.589z"
   id="path4524" />
</g>
<path
   style="fill-rule:evenodd;clip-rule:evenodd;fill:#C1C6C4;"
   d="M60.784,48.771c0.71-0.563,0.886-1.66,1.636-2.182  c2.286,1.052-0.366,5.04-2.728,4.909c-0.277-1.278,0.449-1.551,0.818-2.182c-0.839,0.191-0.523,0.191-1.363,0  c0.041-1.414,0.198-2.711,0.545-3.818C61.987,45.246,61.151,47.527,60.784,48.771z"
   id="path4528" />
<g
   id="g4532">
	<path
   style="fill-rule:evenodd;clip-rule:evenodd;fill:#C1C6C4;"
   d="M60.784,48.771c0.71-0.563,0.886-1.66,1.636-2.182   c2.286,1.052-0.366,5.04-2.728,4.909c-0.277-1.278,0.449-1.551,0.818-2.182c-0.839,0.191-0.523,0.191-1.363,0   c0.041-1.414,0.198-2.711,0.545-3.818C61.987,45.246,61.151,47.527,60.784,48.771z"
   id="path4530" />
</g>
<path
   style="fill-rule:evenodd;clip-rule:evenodd;fill:#C1C6C4;"
   d="M42.406,70.043c0.744,5.203,2.971,11.442,6,15.818  c0.839,1.211,2.07,2.279,2.182,3.818c-2.95,0.131-4.938-3.963-6.272-6.818c-1.681-3.596-2.941-7.455-3.272-12  c-0.077-0.44,0.258-0.469,0.272-0.818C41.68,70.043,42.043,70.043,42.406,70.043z"
   id="path4534" />
<g
   id="g4538">
	<path
   style="fill-rule:evenodd;clip-rule:evenodd;fill:#C1C6C4;"
   d="M42.406,70.043c0.744,5.203,2.971,11.442,6,15.818   c0.839,1.211,2.07,2.279,2.182,3.818c-2.95,0.131-4.938-3.963-6.272-6.818c-1.681-3.596-2.941-7.455-3.272-12   c-0.077-0.44,0.258-0.469,0.272-0.818C41.68,70.043,42.043,70.043,42.406,70.043z"
   id="path4536" />
</g>
<path
   style="fill-rule:evenodd;clip-rule:evenodd;fill:#C1C6C4;"
   d="M39.406,71.407c-0.394,3.226,1.175,7.036,0.818,10.09  c-2.775-1.039-2.848-7.085-1.909-10.09C38.68,71.407,39.043,71.407,39.406,71.407z"
   id="path4540" />
<g
   id="g4544">
	<path
   style="fill-rule:evenodd;clip-rule:evenodd;fill:#C1C6C4;"
   d="M39.406,71.407c-0.394,3.226,1.175,7.036,0.818,10.09   c-2.775-1.039-2.848-7.085-1.909-10.09C38.68,71.407,39.043,71.407,39.406,71.407z"
   id="path4542" />
</g>
<path
   style="fill-rule:evenodd;clip-rule:evenodd;fill:#C1C6C4;"
   d="M36.134,73.043c0.175,1.243,0.454,4.768-0.817,5.454  C33.521,78.077,33.822,72.71,36.134,73.043z"
   id="path4546" />
<g
   id="g4550">
	<path
   style="fill-rule:evenodd;clip-rule:evenodd;fill:#C1C6C4;"
   d="M36.134,73.043c0.175,1.243,0.454,4.768-0.817,5.454   C33.521,78.077,33.822,72.71,36.134,73.043z"
   id="path4548" />
</g>
<path
   style="fill-rule:evenodd;clip-rule:evenodd;fill:#C1C6C4;"
   d="M52.225,82.042c-2.514,0.422-4.773-3.018-6-5.454  c-1.272-2.528-2.803-6.521-1.637-8.727c0.467-0.012,0.707,0.203,0.818,0.545c0.886,2.163,1.559,5.795,2.728,7.909  C49.305,78.434,51.586,79.514,52.225,82.042z"
   id="path4552" />
<g
   id="g4556">
	<path
   style="fill-rule:evenodd;clip-rule:evenodd;fill:#C1C6C4;"
   d="M52.225,82.042c-2.514,0.422-4.773-3.018-6-5.454   c-1.272-2.528-2.803-6.521-1.637-8.727c0.467-0.012,0.707,0.203,0.818,0.545c0.886,2.163,1.559,5.795,2.728,7.909   C49.305,78.434,51.586,79.514,52.225,82.042z"
   id="path4554" />
</g>
<path
   style="fill-rule:evenodd;clip-rule:evenodd;fill:#C1C6C4;"
   d="M65.213,51.069c-0.35,2.742-3.132,3.051-6,3.273  c-0.18-2.816,3.71-1.562,4.636-3.273C64.368,50.558,64.533,51.039,65.213,51.069z"
   id="path4558" />
<g
   id="g4562">
	<path
   style="fill-rule:evenodd;clip-rule:evenodd;fill:#C1C6C4;"
   d="M65.213,51.069c-0.35,2.742-3.132,3.051-6,3.273   c-0.18-2.816,3.71-1.562,4.636-3.273C64.368,50.558,64.533,51.039,65.213,51.069z"
   id="path4560" />
</g>
<path
   style="fill-rule:evenodd;clip-rule:evenodd;fill:#C1C6C4;"
   d="M48.134,65.134c1.605,3.705,2.709,7.042,5.454,9.545  c0.998,0.909,3.104,1.077,3,3c-5.152-0.867-9.414-6.381-9.272-12.545C47.588,65.134,47.861,65.134,48.134,65.134z"
   id="path4564" />
<g
   id="g4568">
	<path
   style="fill-rule:evenodd;clip-rule:evenodd;fill:#C1C6C4;"
   d="M48.134,65.134c1.605,3.705,2.709,7.042,5.454,9.545   c0.998,0.909,3.104,1.077,3,3c-5.152-0.867-9.414-6.381-9.272-12.545C47.588,65.134,47.861,65.134,48.134,65.134z"
   id="path4566" />
</g>
<path
   style="fill-rule:evenodd;clip-rule:evenodd;fill:#FFFFFF;"
   d="M55.161,51.793c0.856,0.426,3.195,1.781,3.105,2.935  C57.263,55.748,53.999,53.198,55.161,51.793z"
   id="path4570" />
<g
   id="g4574">
	<path
   style="fill-rule:evenodd;clip-rule:evenodd;fill:#FFFFFF;"
   d="M55.161,51.793c0.856,0.426,3.195,1.781,3.105,2.935   C57.263,55.748,53.999,53.198,55.161,51.793z"
   id="path4572" />
</g>
<g
   id="g4648">
	<g
   id="g4578">
		<path
   style="fill-rule:evenodd;clip-rule:evenodd;fill:#020303;"
   d="M56.314,54.498c0.222,0.052,0.272,0.273,0.546,0.272    c2.091-0.724-0.636-2.742-0.546-3c0.971-2.666,1.882-5.391,2.183-8.727c4.408-0.282,7.548,2.972,10.909,4.636    c-0.016,1.167-0.367,1.998-0.546,3c17.608-3.737,47.831-1.902,50.181,15.545c0.391,2.905,0.083,6.733-1.364,8.727    c-1.898-0.107-2.333-2.247-3.545-3.545c-4.923-5.27-17.408-13.29-25.091-5.455c-5.251-5.037-19.248-6.447-25.635-1.364    c-1.546,4.727-1.23,11.314-3,15.818c-1.074,0.654-3.148,0.306-4.363,0.818c-2.537,2.296-0.739,7.63-0.818,11.454    c-16.66,5.176-31.152-9.768-21.272-23.454C39.759,62.848,46.941,56.399,56.314,54.498z"
   id="path4576" />
	</g>
	<g
   id="g4582">
		<path
   style="fill-rule:evenodd;clip-rule:evenodd;fill:#020303;"
   d="M59.314,45.498c-0.347,1.107-0.504,2.405-0.545,3.818    c0.84,0.191,0.524,0.191,1.363,0c-0.369,0.63-1.096,0.903-0.818,2.182c2.361,0.13,5.014-3.857,2.728-4.909    c-0.75,0.522-0.926,1.62-1.636,2.182C60.773,47.527,61.609,45.246,59.314,45.498z"
   id="path4580" />
	</g>
	<g
   id="g4586">
		<path
   style="fill-rule:evenodd;clip-rule:evenodd;fill:#020303;"
   d="M62.86,50.68c-0.926,1.711-4.815,0.457-4.636,3.273    c2.868-0.222,5.65-0.531,6-3.273C63.545,50.65,63.38,50.169,62.86,50.68z"
   id="path4584" />
	</g>
	<g
   id="g4590">
		<path
   style="fill-rule:evenodd;clip-rule:evenodd;fill:#020303;"
   d="M47.315,65.134c-0.142,6.164,4.12,11.678,9.272,12.545    c0.104-1.923-2.002-2.091-3-3c-2.745-2.503-3.849-5.841-5.454-9.545C47.861,65.134,47.588,65.134,47.315,65.134z"
   id="path4588" />
	</g>
	<g
   id="g4594">
		<path
   style="fill-rule:evenodd;clip-rule:evenodd;fill:#020303;"
   d="M48.134,76.315c-1.169-2.113-1.842-5.746-2.728-7.909    c-0.111-0.343-0.352-0.558-0.818-0.545c-1.166,2.207,0.364,6.199,1.637,8.727c1.227,2.437,3.486,5.876,6,5.454    C51.586,79.514,49.305,78.434,48.134,76.315z"
   id="path4592" />
	</g>
	<g
   id="g4598">
		<path
   style="fill-rule:evenodd;clip-rule:evenodd;fill:#020303;"
   d="M41.315,70.043c-0.015,0.349-0.35,0.377-0.272,0.818    c0.331,4.545,1.592,8.404,3.272,12c1.335,2.854,3.322,6.949,6.272,6.818c-0.111-1.539-1.343-2.606-2.182-3.818    c-3.029-4.375-5.256-10.615-6-15.818C42.043,70.043,41.68,70.043,41.315,70.043z"
   id="path4596" />
	</g>
	<g
   id="g4602">
		<path
   style="fill-rule:evenodd;clip-rule:evenodd;fill:#020303;"
   d="M38.315,71.407c-0.938,3.005-0.866,9.052,1.909,10.09    c0.356-3.054-1.212-6.865-0.818-10.09C39.043,71.407,38.68,71.407,38.315,71.407z"
   id="path4600" />
	</g>
	<g
   id="g4606">
		<path
   style="fill-rule:evenodd;clip-rule:evenodd;fill:#020303;"
   d="M35.316,78.497c1.271-0.687,0.992-4.211,0.817-5.454    C33.822,72.71,33.521,78.077,35.316,78.497z"
   id="path4604" />
	</g>
	<g
   id="g4610">
		<path
   style="fill-rule:evenodd;clip-rule:evenodd;fill:#020303;"
   d="M32.588,68.134c-2.776-0.932-4.912-2.82-4.363-7.091    c1.238-9.625,18.136-13.094,27-8.454C45.602,55.694,38.275,61.095,32.588,68.134z"
   id="path4608" />
	</g>
	<g
   id="g4614">
		<path
   style="fill-rule:evenodd;clip-rule:evenodd;fill:#C1C6C4;"
   d="M55.225,52.589c0.933-0.024,0.158,1.66,1.09,1.636    c0,0.091,0,0.182,0,0.273c-9.373,1.901-16.556,8.35-22.362,14.727c0.829-0.862-1.161-0.442-1.364-1.091    C38.275,61.095,45.602,55.694,55.225,52.589z"
   id="path4612" />
	</g>
	<g
   id="g4618">
		<path
   style="fill-rule:evenodd;clip-rule:evenodd;fill:#C1C6C4;"
   d="M60.784,48.771c0.71-0.563,0.886-1.66,1.636-2.182    c2.286,1.052-0.366,5.04-2.728,4.909c-0.277-1.278,0.449-1.551,0.818-2.182c-0.839,0.191-0.523,0.191-1.363,0    c0.041-1.414,0.198-2.711,0.545-3.818C61.987,45.246,61.151,47.527,60.784,48.771z"
   id="path4616" />
	</g>
	<g
   id="g4622">
		<path
   style="fill-rule:evenodd;clip-rule:evenodd;fill:#C1C6C4;"
   d="M42.406,70.043c0.744,5.203,2.971,11.442,6,15.818    c0.839,1.211,2.07,2.279,2.182,3.818c-2.95,0.131-4.938-3.963-6.272-6.818c-1.681-3.596-2.941-7.455-3.272-12    c-0.077-0.44,0.258-0.469,0.272-0.818C41.68,70.043,42.043,70.043,42.406,70.043z"
   id="path4620" />
	</g>
	<g
   id="g4626">
		<path
   style="fill-rule:evenodd;clip-rule:evenodd;fill:#C1C6C4;"
   d="M39.406,71.407c-0.394,3.226,1.175,7.036,0.818,10.09    c-2.775-1.039-2.848-7.085-1.909-10.09C38.68,71.407,39.043,71.407,39.406,71.407z"
   id="path4624" />
	</g>
	<g
   id="g4630">
		<path
   style="fill-rule:evenodd;clip-rule:evenodd;fill:#C1C6C4;"
   d="M36.134,73.043c0.175,1.243,0.454,4.768-0.817,5.454    C33.521,78.077,33.822,72.71,36.134,73.043z"
   id="path4628" />
	</g>
	<g
   id="g4634">
		<path
   style="fill-rule:evenodd;clip-rule:evenodd;fill:#C1C6C4;"
   d="M52.225,82.042c-2.514,0.422-4.773-3.018-6-5.454    c-1.272-2.528-2.803-6.521-1.637-8.727c0.467-0.012,0.707,0.203,0.818,0.545c0.886,2.163,1.559,5.795,2.728,7.909    C49.305,78.434,51.586,79.514,52.225,82.042z"
   id="path4632" />
	</g>
	<g
   id="g4638">
		<path
   style="fill-rule:evenodd;clip-rule:evenodd;fill:#C1C6C4;"
   d="M65.213,51.069c-0.35,2.742-3.132,3.051-6,3.273    c-0.18-2.816,3.71-1.562,4.636-3.273C64.368,50.558,64.533,51.039,65.213,51.069z"
   id="path4636" />
	</g>
	<g
   id="g4642">
		<path
   style="fill-rule:evenodd;clip-rule:evenodd;fill:#C1C6C4;"
   d="M48.134,65.134c1.605,3.705,2.709,7.042,5.454,9.545    c0.998,0.909,3.104,1.077,3,3c-5.152-0.867-9.414-6.381-9.272-12.545C47.588,65.134,47.861,65.134,48.134,65.134z"
   id="path4640" />
	</g>
	<g
   id="g4646">
		<path
   style="fill-rule:evenodd;clip-rule:evenodd;fill:#FFFFFF;"
   d="M55.161,51.793c0.856,0.426,3.195,1.781,3.105,2.935    C57.263,55.748,53.999,53.198,55.161,51.793z"
   id="path4644" />
	</g>
</g>
<path
   style="fill:#010202;"
   d="M99.483,152.751h13.199c0.934,0,1.699-0.301,2.301-0.9c0.732-0.732,1.1-1.799,1.1-3.199  c0-1.467-0.367-2.566-1.1-3.301l-2.301-0.801h-10.801l1.5-3.1h3.602h5.799c1.668,0,3.033,0.533,4.1,1.6  c1.201,1.201,1.801,3.068,1.801,5.602c0,2.467-0.6,4.299-1.801,5.5c-1.066,1.066-2.432,1.6-4.1,1.6H99.483v-0.201V152.751"
   id="path4650" />
<g
   id="g4654">
	<path
   style="fill:#010202;"
   d="M99.483,152.751h13.199c0.934,0,1.699-0.301,2.301-0.9c0.732-0.732,1.1-1.799,1.1-3.199   c0-1.467-0.367-2.566-1.1-3.301l-2.301-0.801h-10.801l1.5-3.1h3.602h5.799c1.668,0,3.033,0.533,4.1,1.6   c1.201,1.201,1.801,3.068,1.801,5.602c0,2.467-0.6,4.299-1.801,5.5c-1.066,1.066-2.432,1.6-4.1,1.6H99.483v-0.201V152.751"
   id="path4652" />
</g>

<g
   style="clip-rule:evenodd;fill-rule:evenodd;stroke-linecap:square;stroke-linejoin:round;stroke-miterlimit:1.5"
   id="g5338"><path
     d="m 61.282,159.95 -3.199,-4.699 0.199,-0.201 c -2.4,-2.533 -3.832,-5.299 -4.299,-8.299 l -0.201,-2.4 v -1.1 l 0.1,-0.801 0.4,-1.699 0.701,-2 h 0.199 v -1.1 l 0.301,-0.301 v -2.7 l 0.299,-4.801 v -0.1 l 1,-15.5 h -0.1 l -1.098,-13.199 -3.201,-0.901 -1.5,-2 h 0.4 c -3.533,-4.135 -5.199,-8.867 -5,-14.201 v -1.5 c 0.334,-6.533 3.9,-12.566 10.701,-18.1 7.332,-6.732 16.1,-10.434 26.299,-11.1 10.133,0.666 18.834,4.367 26.1,11.1 6.734,5.533 10.367,11.566 10.9,18.1 v 1.5 c 0,5.334 -1.732,10.066 -5.199,14.201 h 0.199 -0.1 l -2.199,2.6 v 0.301 l -2,1.799 -2.497,8.7 -0.602,1.799 0.701,0.201 v 0.1 l -0.301,-0.1 -0.5,17.699 h -0.1 l -0.1,3 h 0.1 v 0.199 l -0.1,0.801 h -0.1 l -0.102,1 h 0.102 l -0.301,2.6 -0.1,1.9 -0.1,0.699 h -3.602 l -1.5,3.1 h 10.801 l 2.301,0.801 c 0.732,0.734 1.1,1.834 1.1,3.301 0,1.4 -0.367,2.467 -1.1,3.199 -0.602,0.6 -1.367,0.9 -2.301,0.9 h -13.2 v 2.799 l -15.4,-1.398 h -4.9 l -3.1,3.398 v 2.4 h -2.401 v 10.4 c -0.066,1.801 -0.6,3.301 -1.6,4.5 -0.934,1 -2.066,1.5 -3.4,1.5 -1.334,0 -2.5,-0.5 -3.5,-1.5 -1,-1.199 -1.5,-2.699 -1.5,-4.5 v -10.4 h -2.4 m 0.801,-35.596 h 0.1 l -0.1,-0.1 v 0.1 m -7.4,12.9 0.1,0.199 -0.1,-0.199"
     style="fill:#ffffff;fill-rule:nonzero"
     id="path4787" /><g
     id="g4795">
        <path
   d="m 61.282,159.95 -3.199,-4.699 0.199,-0.201 c -2.4,-2.533 -3.832,-5.299 -4.299,-8.299 l -0.201,-2.4 v -1.1 l 0.1,-0.801 0.4,-1.699 0.701,-2 h 0.199 v -1.1 l 0.301,-0.301 v -2.7 l 0.299,-4.801 v -0.1 l 1,-15.5 h -0.1 l -1.098,-13.199 -0.5,-1.602 -2.701,0.701 -1.5,-2 h 0.4 c -3.533,-4.135 -5.199,-8.867 -5,-14.201 v -1.5 c 0.334,-6.533 3.9,-12.566 10.701,-18.1 7.332,-6.732 16.1,-10.434 26.299,-11.1 10.133,0.666 18.834,4.367 26.1,11.1 6.734,5.533 10.367,11.566 10.9,18.1 v 1.5 c 0,5.334 -1.732,10.066 -5.199,14.201 h 0.199 -0.1 l -2.199,2.6 v 0.301 l -1.571,3.228 8.829,8.74 4.388,2.388 0.826,3.799 -2.441,3.344 -2.572,1.814 -2.587,0.329 c -2.245,0.801 -4.159,-0.388 -5.642,-4.158 l -5.168,-5.39 -0.218,15.247 0.757,3.857 h 0.1 v 0.199 l -0.1,0.801 h -0.1 l -0.102,1 h 0.102 l -0.301,2.6 -0.1,1.9 -0.1,0.699 h -3.602 l -1.5,3.1 h 10.801 l 2.301,0.801 c 0.732,0.734 1.1,1.834 1.1,3.301 0,1.4 -0.367,2.467 -1.1,3.199 -0.602,0.6 -1.367,0.9 -2.301,0.9 h -13.2 v 2.799 l -15.4,-1.398 h -4.9 l -3.1,3.398 v 2.4 h -2.401 v 10.4 c -0.066,1.801 -0.6,3.301 -1.6,4.5 -0.934,1 -2.066,1.5 -3.4,1.5 -1.334,0 -2.5,-0.5 -3.5,-1.5 -1,-1.199 -1.5,-2.699 -1.5,-4.5 v -10.4 h -2.4 m 0.801,-35.596 h 0.1 l -0.1,-0.1 v 0.1 m -7.4,12.9 0.1,0.199 -0.1,-0.199"
   style="fill:#ffffff;fill-rule:nonzero"
   id="path4789" />
        <path
   d="m 61.48,101.779 17.429,-7.143 c 0,0 4.143,-6.143 9.285,-0.571 0,0 5,7.428 -1.428,10.143 0,0 -3,1.428 -4.714,0.143 l -9.429,4.285"
   style="fill:none;stroke:#000000;stroke-width:2.09px"
   id="path4791" />
        <path
   d="m 111.766,104.636 9,8.429 c 0,0 8.714,2.143 2.428,9.143 0,0 -3.714,5.428 -9.285,1.285 0,0 -1.429,-1 -1.143,-3.428 l -6.143,-5.429"
   style="fill:none;stroke:#000000;stroke-width:2.09px"
   id="path4793" />
    </g><path
     d="m 63.683,159.95 v 10.4 c 0,1.801 0.5,3.301 1.5,4.5 1,1 2.166,1.5 3.5,1.5 1.334,0 2.467,-0.5 3.4,-1.5 1,-1.199 1.533,-2.699 1.6,-4.5 v -10.4 h 2.301 v 10.4 c 0,2.6 -0.701,4.666 -2.102,6.199 -1.467,1.668 -3.199,2.5 -5.199,2.5 -2,0 -3.768,-0.832 -5.301,-2.5 -1.398,-1.533 -2.1,-3.6 -2.1,-6.199 v -10.4 h 2.401"
     style="fill:#010202;fill-rule:nonzero"
     id="path4797" /><g
     id="g4801">
        <path
   d="m 63.683,159.95 v 10.4 c 0,1.801 0.5,3.301 1.5,4.5 1,1 2.166,1.5 3.5,1.5 1.334,0 2.467,-0.5 3.4,-1.5 1,-1.199 1.533,-2.699 1.6,-4.5 v -10.4 h 2.301 v 10.4 c 0,2.6 -0.701,4.666 -2.102,6.199 -1.467,1.668 -3.199,2.5 -5.199,2.5 -2,0 -3.768,-0.832 -5.301,-2.5 -1.398,-1.533 -2.1,-3.6 -2.1,-6.199 v -10.4 h 2.401"
   style="fill:#010202;fill-rule:nonzero"
   id="path4799" />
    </g><path
     d="m 93.083,93.151 c 0.199,0.6 0.5,1.1 0.9,1.5 l 1.398,0.5 1.9,-1.201 c 0.533,-0.865 0.801,-1.967 0.801,-3.299 0,-1.801 -0.6,-3.967 -1.801,-6.5 h 2.1 c 1.201,2.133 1.801,4.232 1.801,6.299 0,2.067 -0.434,3.668 -1.301,4.801 -0.799,1.066 -1.865,1.6 -3.199,1.6 -1.801,0 -3.066,-0.934 -3.801,-2.799 -0.799,1.865 -2.066,2.799 -3.799,2.799 -1.4,0 -2.5,-0.566 -3.301,-1.699 -0.867,-1.135 -1.299,-2.701 -1.299,-4.701 0,-2.066 0.633,-4.166 1.898,-6.299 h 2 c -1.133,2.533 -1.699,4.699 -1.699,6.5 0,1.332 0.232,2.434 0.699,3.299 0.533,0.801 1.168,1.201 1.9,1.201 0.533,0 1,-0.201 1.4,-0.6 l 0.9,-1.4 0.199,-2.301 v -3.6 h 2.1 v 3.6 l 0.204,2.3"
     style="fill:#010202;fill-rule:nonzero"
     id="path4803" /><g
     id="g4807">
        <path
   d="m 83.526,92.752 3.019,0.987 c 0,0 1.096,0.993 1.435,1.634 0.864,1.639 0.835,2.869 0.835,2.869 l -1.335,2.68 -6.143,-2 z"
   style="fill:#ffffff"
   id="path4805" />
    </g><path
     d="m 74.728,74.93 h 1.337 l 4.68,4.099 -1.715,1.018 -3.634,-3.285 -3.634,3.285 -1.715,-1.018 z"
     style="fill-rule:nonzero"
     id="path4809" /><g
     id="g4813">
        <path
   d="m 74.728,74.93 h 1.337 l 4.68,4.099 -1.715,1.018 -3.634,-3.285 -3.634,3.285 -1.715,-1.018 z"
   style="fill-rule:nonzero"
   id="path4811" />
    </g><g
     id="g4819">
        <g
   id="g4817">
            <path
   d="m 74.728,74.93 h 1.337 l 4.68,4.099 -1.715,1.018 -3.634,-3.285 -3.634,3.285 -1.715,-1.018 z"
   style="fill-rule:nonzero"
   id="path4815" />
        </g>
    </g><path
     d="m 107.603,74.93 h 1.337 l 4.68,4.099 -1.715,1.018 -3.634,-3.285 -3.634,3.285 -1.715,-1.018 z"
     style="fill-rule:nonzero"
     id="path4821" /><g
     id="g4825">
        <path
   d="m 107.603,74.93 h 1.337 l 4.68,4.099 -1.715,1.018 -3.634,-3.285 -3.634,3.285 -1.715,-1.018 z"
   style="fill-rule:nonzero"
   id="path4823" />
    </g><g
     id="g4831">
        <g
   id="g4829">
            <path
   d="m 107.603,74.93 h 1.337 l 4.68,4.099 -1.715,1.018 -3.634,-3.285 -3.634,3.285 -1.715,-1.018 z"
   style="fill-rule:nonzero"
   id="path4827" />
        </g>
    </g><path
     d="m 84.009,156.997 c -1.174,1.008 -4.27,1.109 -5.727,0.273 -0.052,-0.221 -0.273,-0.272 -0.272,-0.545 2.029,-4.771 0.358,-12.153 -1.636,-15.545 6.711,-0.43 14.111,-0.432 20.181,0.545 -0.683,3.897 -2.899,6.444 -5.182,8.727 -2.388,2.387 -7.606,6.424 -7.364,6.545 z"
     style="fill:#f28e1b"
     id="path4833" /><path
     d="m 80.916,158.832 c -0.718,0 -2.078,-0.09 -3.132,-0.695 -0.189,-0.109 -0.337,-0.276 -0.422,-0.475 -0.141,-0.171 -0.354,-0.472 -0.353,-0.941 0,-0.133 0.027,-0.265 0.08,-0.388 1.9,-4.47 0.273,-11.498 -1.578,-14.647 -0.176,-0.299 -0.184,-0.668 -0.021,-0.976 0.163,-0.307 0.474,-0.507 0.82,-0.529 2.871,-0.184 5.666,-0.277 8.307,-0.277 4.593,0 8.662,0.28 12.097,0.833 0.264,0.042 0.5,0.189 0.655,0.407 0.155,0.218 0.217,0.489 0.171,0.752 -0.745,4.252 -3.209,7.01 -5.46,9.262 -1.271,1.272 -3.293,2.972 -4.917,4.337 -0.914,0.768 -1.938,1.629 -2.262,1.952 -0.059,0.116 -0.14,0.221 -0.241,0.308 -1.132,0.972 -2.995,1.077 -3.744,1.077 z m -1.771,-2.265 c 0.469,0.168 1.099,0.264 1.771,0.264 1.061,0 1.875,-0.229 2.291,-0.485 0.312,-0.4 1.042,-1.014 2.669,-2.381 1.595,-1.341 3.579,-3.01 4.79,-4.221 1.928,-1.929 3.859,-4.068 4.684,-7.189 -4.745,-0.662 -10.762,-0.822 -17.394,-0.467 1.682,3.787 2.811,9.977 1.189,14.479 z"
     style="fill:#be6f26;fill-rule:nonzero"
     id="path4835" /><g
     id="g4841">
        <path
   d="m 84.009,156.997 c -1.174,1.008 -4.27,1.109 -5.727,0.273 -0.052,-0.221 -0.273,-0.272 -0.272,-0.545 2.029,-4.771 0.358,-12.153 -1.636,-15.545 6.711,-0.43 14.111,-0.432 20.181,0.545 -0.683,3.897 -2.899,6.444 -5.182,8.727 -2.388,2.387 -7.606,6.424 -7.364,6.545 z"
   style="fill:#f28e1b"
   id="path4837" />
        <path
   d="m 80.916,158.832 c -0.718,0 -2.078,-0.09 -3.132,-0.695 -0.189,-0.109 -0.337,-0.276 -0.422,-0.475 -0.141,-0.171 -0.354,-0.472 -0.353,-0.941 0,-0.133 0.027,-0.265 0.08,-0.388 1.9,-4.47 0.273,-11.498 -1.578,-14.647 -0.176,-0.299 -0.184,-0.668 -0.021,-0.976 0.163,-0.307 0.474,-0.507 0.82,-0.529 2.871,-0.184 5.666,-0.277 8.307,-0.277 4.593,0 8.662,0.28 12.097,0.833 0.264,0.042 0.5,0.189 0.655,0.407 0.155,0.218 0.217,0.489 0.171,0.752 -0.745,4.252 -3.209,7.01 -5.46,9.262 -1.271,1.272 -3.293,2.972 -4.917,4.337 -0.914,0.768 -1.938,1.629 -2.262,1.952 -0.059,0.116 -0.14,0.221 -0.241,0.308 -1.132,0.972 -2.995,1.077 -3.744,1.077 z m -1.771,-2.265 c 0.469,0.168 1.099,0.264 1.771,0.264 1.061,0 1.875,-0.229 2.291,-0.485 0.312,-0.4 1.042,-1.014 2.669,-2.381 1.595,-1.341 3.579,-3.01 4.79,-4.221 1.928,-1.929 3.859,-4.068 4.684,-7.189 -4.745,-0.662 -10.762,-0.822 -17.394,-0.467 1.682,3.787 2.811,9.977 1.189,14.479 z"
   style="fill:#be6f26;fill-rule:nonzero"
   id="path4839" />
    </g><path
     d="m 53.731,129.368 c 11.917,-3.917 46.143,-8.976 54.932,-1.721 2.357,4.682 1.812,11.099 0.245,15.778 -15.174,-7.092 -42.468,-3.581 -55.88,3.858 -1.468,-3.071 -1.855,-8.898 -0.818,-12.818 0.092,-0.001 0.621,-3.824 1.521,-5.097 z"
     style="fill:#f28e1b"
     id="path4843" /><path
     d="m 53.028,148.282 c -0.103,0 -0.205,-0.016 -0.305,-0.047 -0.263,-0.084 -0.479,-0.272 -0.598,-0.521 -1.581,-3.309 -1.978,-9.367 -0.883,-13.505 0.013,-0.049 0.029,-0.097 0.05,-0.143 0.026,-0.11 0.063,-0.296 0.109,-0.531 0.356,-1.765 0.797,-3.733 1.513,-4.745 0.124,-0.175 0.301,-0.306 0.504,-0.373 7.973,-2.62 24.587,-5.448 37.526,-5.448 9.039,0 15.215,1.314 18.354,3.906 0.106,0.088 0.194,0.197 0.257,0.321 2.585,5.136 1.851,11.914 0.3,16.545 -0.091,0.271 -0.292,0.489 -0.554,0.602 -0.262,0.113 -0.559,0.108 -0.818,-0.013 -5.268,-2.462 -12.422,-3.764 -20.688,-3.764 -12.512,0 -25.969,2.979 -34.282,7.59 -0.15,0.084 -0.317,0.126 -0.485,0.126 z m 0.144,-13.563 0.005,0.001 c -0.874,3.303 -0.687,8.112 0.359,11.156 8.638,-4.46 21.916,-7.31 34.26,-7.31 8.028,0 15.079,1.203 20.488,3.486 1.121,-3.982 1.592,-9.574 -0.42,-13.765 -2.801,-2.171 -8.641,-3.318 -16.919,-3.318 -12.553,0 -28.594,2.695 -36.55,5.234 -0.466,0.92 -0.856,2.854 -1.032,3.728 -0.058,0.29 -0.113,0.559 -0.191,0.788 z"
     style="fill:#be6f26;fill-rule:nonzero"
     id="path4845" /><g
     id="g4851">
        <path
   d="m 53.731,129.368 c 11.917,-3.917 46.143,-8.976 54.932,-1.721 2.357,4.682 1.812,11.099 0.245,15.778 -15.174,-7.092 -42.468,-3.581 -55.88,3.858 -1.468,-3.071 -1.855,-8.898 -0.818,-12.818 0.092,-0.001 0.621,-3.824 1.521,-5.097 z"
   style="fill:#f28e1b"
   id="path4847" />
        <path
   d="m 53.028,148.282 c -0.103,0 -0.205,-0.016 -0.305,-0.047 -0.263,-0.084 -0.479,-0.272 -0.598,-0.521 -1.581,-3.309 -1.978,-9.367 -0.883,-13.505 0.013,-0.049 0.029,-0.097 0.05,-0.143 0.026,-0.11 0.063,-0.296 0.109,-0.531 0.356,-1.765 0.797,-3.733 1.513,-4.745 0.124,-0.175 0.301,-0.306 0.504,-0.373 7.973,-2.62 24.587,-5.448 37.526,-5.448 9.039,0 15.215,1.314 18.354,3.906 0.106,0.088 0.194,0.197 0.257,0.321 2.585,5.136 1.851,11.914 0.3,16.545 -0.091,0.271 -0.292,0.489 -0.554,0.602 -0.262,0.113 -0.559,0.108 -0.818,-0.013 -5.268,-2.462 -12.422,-3.764 -20.688,-3.764 -12.512,0 -25.969,2.979 -34.282,7.59 -0.15,0.084 -0.317,0.126 -0.485,0.126 z m 0.144,-13.563 0.005,0.001 c -0.874,3.303 -0.687,8.112 0.359,11.156 8.638,-4.46 21.916,-7.31 34.26,-7.31 8.028,0 15.079,1.203 20.488,3.486 1.121,-3.982 1.592,-9.574 -0.42,-13.765 -2.801,-2.171 -8.641,-3.318 -16.919,-3.318 -12.553,0 -28.594,2.695 -36.55,5.234 -0.466,0.92 -0.856,2.854 -1.032,3.728 -0.058,0.29 -0.113,0.559 -0.191,0.788 z"
   style="fill:#be6f26;fill-rule:nonzero"
   id="path4849" />
    </g><path
     d="m 56.314,54.498 c 0.222,0.052 0.272,0.273 0.546,0.272 2.091,-0.724 -0.636,-2.742 -0.546,-3 0.971,-2.666 1.882,-5.391 2.183,-8.727 4.408,-0.282 7.548,2.972 10.909,4.636 -0.016,1.167 -0.367,1.998 -0.546,3 17.608,-3.737 47.831,-1.902 50.181,15.545 0.391,2.905 0.083,6.733 -1.364,8.727 -1.898,-0.107 -2.333,-2.247 -3.545,-3.545 -4.923,-5.27 -17.408,-13.29 -25.091,-5.455 -5.251,-5.037 -19.248,-6.447 -25.635,-1.364 -1.546,4.727 -1.23,11.314 -3,15.818 -1.074,0.654 -3.148,0.306 -4.363,0.818 -2.537,2.296 -0.739,7.63 -0.818,11.454 C 38.565,97.853 24.073,82.909 33.953,69.223 39.759,62.848 46.941,56.399 56.314,54.498 Z"
     style="fill:#020303"
     id="path4853" /><g
     id="g4857">
        <path
   d="m 56.314,54.498 c 0.222,0.052 0.272,0.273 0.546,0.272 2.091,-0.724 -0.636,-2.742 -0.546,-3 0.971,-2.666 1.882,-5.391 2.183,-8.727 4.408,-0.282 7.548,2.972 10.909,4.636 -0.016,1.167 -0.367,1.998 -0.546,3 17.608,-3.737 47.831,-1.902 50.181,15.545 0.391,2.905 0.083,6.733 -1.364,8.727 -1.898,-0.107 -2.333,-2.247 -3.545,-3.545 -4.923,-5.27 -17.408,-13.29 -25.091,-5.455 -5.251,-5.037 -19.248,-6.447 -25.635,-1.364 -1.546,4.727 -1.23,11.314 -3,15.818 -1.074,0.654 -3.148,0.306 -4.363,0.818 -2.537,2.296 -0.739,7.63 -0.818,11.454 C 38.565,97.853 24.073,82.909 33.953,69.223 39.759,62.848 46.941,56.399 56.314,54.498 Z"
   style="fill:#020303"
   id="path4855" />
    </g><path
     d="m 59.314,45.498 c -0.347,1.107 -0.504,2.405 -0.545,3.818 0.84,0.191 0.524,0.191 1.363,0 -0.369,0.63 -1.096,0.903 -0.818,2.182 2.361,0.13 5.014,-3.857 2.728,-4.909 -0.75,0.522 -0.926,1.62 -1.636,2.182 0.367,-1.244 1.203,-3.525 -1.092,-3.273 z"
     style="fill:#020303"
     id="path4859" /><g
     id="g4863">
        <path
   d="m 59.314,45.498 c -0.347,1.107 -0.504,2.405 -0.545,3.818 0.84,0.191 0.524,0.191 1.363,0 -0.369,0.63 -1.096,0.903 -0.818,2.182 2.361,0.13 5.014,-3.857 2.728,-4.909 -0.75,0.522 -0.926,1.62 -1.636,2.182 0.367,-1.244 1.203,-3.525 -1.092,-3.273 z"
   style="fill:#020303"
   id="path4861" />
    </g><path
     d="m 62.86,50.68 c -0.926,1.711 -4.815,0.457 -4.636,3.273 2.868,-0.222 5.65,-0.531 6,-3.273 -0.679,-0.03 -0.844,-0.511 -1.364,0 z"
     style="fill:#020303"
     id="path4865" /><g
     id="g4869">
        <path
   d="m 62.86,50.68 c -0.926,1.711 -4.815,0.457 -4.636,3.273 2.868,-0.222 5.65,-0.531 6,-3.273 -0.679,-0.03 -0.844,-0.511 -1.364,0 z"
   style="fill:#020303"
   id="path4867" />
    </g><path
     d="m 47.315,65.134 c -0.142,6.164 4.12,11.678 9.272,12.545 0.104,-1.923 -2.002,-2.091 -3,-3 -2.745,-2.503 -3.849,-5.841 -5.454,-9.545 z"
     style="fill:#020303"
     id="path4871" /><g
     id="g4875">
        <path
   d="m 47.315,65.134 c -0.142,6.164 4.12,11.678 9.272,12.545 0.104,-1.923 -2.002,-2.091 -3,-3 -2.745,-2.503 -3.849,-5.841 -5.454,-9.545 z"
   style="fill:#020303"
   id="path4873" />
    </g><path
     d="m 48.134,76.315 c -1.169,-2.113 -1.842,-5.746 -2.728,-7.909 -0.111,-0.343 -0.352,-0.558 -0.818,-0.545 -1.166,2.207 0.364,6.199 1.637,8.727 1.227,2.437 3.486,5.876 6,5.454 -0.639,-2.528 -2.92,-3.608 -4.091,-5.727 z"
     style="fill:#020303"
     id="path4877" /><g
     id="g4881">
        <path
   d="m 48.134,76.315 c -1.169,-2.113 -1.842,-5.746 -2.728,-7.909 -0.111,-0.343 -0.352,-0.558 -0.818,-0.545 -1.166,2.207 0.364,6.199 1.637,8.727 1.227,2.437 3.486,5.876 6,5.454 -0.639,-2.528 -2.92,-3.608 -4.091,-5.727 z"
   style="fill:#020303"
   id="path4879" />
    </g><path
     d="m 41.315,70.043 c -0.015,0.349 -0.35,0.377 -0.272,0.818 0.331,4.545 1.592,8.404 3.272,12 1.335,2.854 3.322,6.949 6.272,6.818 -0.111,-1.539 -1.343,-2.606 -2.182,-3.818 -3.029,-4.375 -5.256,-10.615 -6,-15.818 z"
     style="fill:#020303"
     id="path4883" /><g
     id="g4887">
        <path
   d="m 41.315,70.043 c -0.015,0.349 -0.35,0.377 -0.272,0.818 0.331,4.545 1.592,8.404 3.272,12 1.335,2.854 3.322,6.949 6.272,6.818 -0.111,-1.539 -1.343,-2.606 -2.182,-3.818 -3.029,-4.375 -5.256,-10.615 -6,-15.818 z"
   style="fill:#020303"
   id="path4885" />
    </g><path
     d="m 38.315,71.407 c -0.938,3.005 -0.866,9.052 1.909,10.09 0.356,-3.054 -1.212,-6.865 -0.818,-10.09 z"
     style="fill:#020303"
     id="path4889" /><g
     id="g4893">
        <path
   d="m 38.315,71.407 c -0.938,3.005 -0.866,9.052 1.909,10.09 0.356,-3.054 -1.212,-6.865 -0.818,-10.09 z"
   style="fill:#020303"
   id="path4891" />
    </g><path
     d="m 35.316,78.497 c 1.271,-0.687 0.992,-4.211 0.817,-5.454 -2.311,-0.333 -2.612,5.034 -0.817,5.454 z"
     style="fill:#020303"
     id="path4895" /><g
     id="g4899">
        <path
   d="m 35.316,78.497 c 1.271,-0.687 0.992,-4.211 0.817,-5.454 -2.311,-0.333 -2.612,5.034 -0.817,5.454 z"
   style="fill:#020303"
   id="path4897" />
    </g><path
     d="m 32.588,68.134 c -2.776,-0.932 -4.912,-2.82 -4.363,-7.091 1.238,-9.625 18.136,-13.094 27,-8.454 -9.623,3.105 -16.95,8.506 -22.637,15.545 z"
     style="fill:#020303"
     id="path4901" /><g
     id="g4905">
        <path
   d="m 32.588,68.134 c -2.776,-0.932 -4.912,-2.82 -4.363,-7.091 1.238,-9.625 18.136,-13.094 27,-8.454 -9.623,3.105 -16.95,8.506 -22.637,15.545 z"
   style="fill:#020303"
   id="path4903" />
    </g><path
     d="m 55.225,52.589 c 0.933,-0.024 0.158,1.66 1.09,1.636 v 0.273 c -9.373,1.901 -16.556,8.35 -22.362,14.727 0.829,-0.862 -1.161,-0.442 -1.364,-1.091 5.686,-7.039 13.013,-12.44 22.636,-15.545 z"
     style="fill:#c1c6c4"
     id="path4907" /><g
     id="g4911">
        <path
   d="m 55.225,52.589 c 0.933,-0.024 0.158,1.66 1.09,1.636 v 0.273 c -9.373,1.901 -16.556,8.35 -22.362,14.727 0.829,-0.862 -1.161,-0.442 -1.364,-1.091 5.686,-7.039 13.013,-12.44 22.636,-15.545 z"
   style="fill:#c1c6c4"
   id="path4909" />
    </g><path
     d="m 60.784,48.771 c 0.71,-0.563 0.886,-1.66 1.636,-2.182 2.286,1.052 -0.366,5.04 -2.728,4.909 -0.277,-1.278 0.449,-1.551 0.818,-2.182 -0.839,0.191 -0.523,0.191 -1.363,0 0.041,-1.414 0.198,-2.711 0.545,-3.818 2.295,-0.252 1.459,2.029 1.092,3.273 z"
     style="fill:#c1c6c4"
     id="path4913" /><g
     id="g4917">
        <path
   d="m 60.784,48.771 c 0.71,-0.563 0.886,-1.66 1.636,-2.182 2.286,1.052 -0.366,5.04 -2.728,4.909 -0.277,-1.278 0.449,-1.551 0.818,-2.182 -0.839,0.191 -0.523,0.191 -1.363,0 0.041,-1.414 0.198,-2.711 0.545,-3.818 2.295,-0.252 1.459,2.029 1.092,3.273 z"
   style="fill:#c1c6c4"
   id="path4915" />
    </g><path
     d="m 42.406,70.043 c 0.744,5.203 2.971,11.442 6,15.818 0.839,1.211 2.07,2.279 2.182,3.818 -2.95,0.131 -4.938,-3.963 -6.272,-6.818 -1.681,-3.596 -2.941,-7.455 -3.272,-12 -0.077,-0.44 0.258,-0.469 0.272,-0.818 z"
     style="fill:#c1c6c4"
     id="path4919" /><g
     id="g4923">
        <path
   d="m 42.406,70.043 c 0.744,5.203 2.971,11.442 6,15.818 0.839,1.211 2.07,2.279 2.182,3.818 -2.95,0.131 -4.938,-3.963 -6.272,-6.818 -1.681,-3.596 -2.941,-7.455 -3.272,-12 -0.077,-0.44 0.258,-0.469 0.272,-0.818 z"
   style="fill:#c1c6c4"
   id="path4921" />
    </g><path
     d="m 39.406,71.407 c -0.394,3.226 1.175,7.036 0.818,10.09 -2.775,-1.039 -2.848,-7.085 -1.909,-10.09 z"
     style="fill:#c1c6c4"
     id="path4925" /><g
     id="g4929">
        <path
   d="m 39.406,71.407 c -0.394,3.226 1.175,7.036 0.818,10.09 -2.775,-1.039 -2.848,-7.085 -1.909,-10.09 z"
   style="fill:#c1c6c4"
   id="path4927" />
    </g><path
     d="m 36.134,73.043 c 0.175,1.243 0.454,4.768 -0.817,5.454 -1.796,-0.42 -1.495,-5.787 0.817,-5.454 z"
     style="fill:#c1c6c4"
     id="path4931" /><g
     id="g4935">
        <path
   d="m 36.134,73.043 c 0.175,1.243 0.454,4.768 -0.817,5.454 -1.796,-0.42 -1.495,-5.787 0.817,-5.454 z"
   style="fill:#c1c6c4"
   id="path4933" />
    </g><path
     d="m 52.225,82.042 c -2.514,0.422 -4.773,-3.018 -6,-5.454 -1.272,-2.528 -2.803,-6.521 -1.637,-8.727 0.467,-0.012 0.707,0.203 0.818,0.545 0.886,2.163 1.559,5.795 2.728,7.909 1.171,2.119 3.452,3.199 4.091,5.727 z"
     style="fill:#c1c6c4"
     id="path4937" /><g
     id="g4941">
        <path
   d="m 52.225,82.042 c -2.514,0.422 -4.773,-3.018 -6,-5.454 -1.272,-2.528 -2.803,-6.521 -1.637,-8.727 0.467,-0.012 0.707,0.203 0.818,0.545 0.886,2.163 1.559,5.795 2.728,7.909 1.171,2.119 3.452,3.199 4.091,5.727 z"
   style="fill:#c1c6c4"
   id="path4939" />
    </g><path
     d="m 65.213,51.069 c -0.35,2.742 -3.132,3.051 -6,3.273 -0.18,-2.816 3.71,-1.562 4.636,-3.273 0.519,-0.511 0.684,-0.03 1.364,0 z"
     style="fill:#c1c6c4"
     id="path4943" /><g
     id="g4947">
        <path
   d="m 65.213,51.069 c -0.35,2.742 -3.132,3.051 -6,3.273 -0.18,-2.816 3.71,-1.562 4.636,-3.273 0.519,-0.511 0.684,-0.03 1.364,0 z"
   style="fill:#c1c6c4"
   id="path4945" />
    </g><path
     d="m 48.134,65.134 c 1.605,3.705 2.709,7.042 5.454,9.545 0.998,0.909 3.104,1.077 3,3 -5.152,-0.867 -9.414,-6.381 -9.272,-12.545 z"
     style="fill:#c1c6c4"
     id="path4949" /><g
     id="g4953">
        <path
   d="m 48.134,65.134 c 1.605,3.705 2.709,7.042 5.454,9.545 0.998,0.909 3.104,1.077 3,3 -5.152,-0.867 -9.414,-6.381 -9.272,-12.545 z"
   style="fill:#c1c6c4"
   id="path4951" />
    </g><path
     d="m 55.161,51.793 c 0.856,0.426 3.195,1.781 3.105,2.935 -1.003,1.02 -4.267,-1.53 -3.105,-2.935 z"
     style="fill:#ffffff"
     id="path4955" /><g
     id="g4959">
        <path
   d="m 55.161,51.793 c 0.856,0.426 3.195,1.781 3.105,2.935 -1.003,1.02 -4.267,-1.53 -3.105,-2.935 z"
   style="fill:#ffffff"
   id="path4957" />
    </g><g
     id="g5033">
        <g
   id="g4963">
            <path
   d="m 56.314,54.498 c 0.222,0.052 0.272,0.273 0.546,0.272 2.091,-0.724 -0.636,-2.742 -0.546,-3 0.971,-2.666 1.882,-5.391 2.183,-8.727 4.408,-0.282 7.548,2.972 10.909,4.636 -0.016,1.167 -0.367,1.998 -0.546,3 17.608,-3.737 47.831,-1.902 50.181,15.545 0.391,2.905 0.083,6.733 -1.364,8.727 -1.898,-0.107 -2.333,-2.247 -3.545,-3.545 -4.923,-5.27 -17.408,-13.29 -25.091,-5.455 -5.251,-5.037 -19.248,-6.447 -25.635,-1.364 -1.546,4.727 -1.23,11.314 -3,15.818 -1.074,0.654 -3.148,0.306 -4.363,0.818 -2.537,2.296 -0.739,7.63 -0.818,11.454 C 38.565,97.853 24.073,82.909 33.953,69.223 39.759,62.848 46.941,56.399 56.314,54.498 Z"
   style="fill:#020303"
   id="path4961" />
        </g>
        <g
   id="g4967">
            <path
   d="m 59.314,45.498 c -0.347,1.107 -0.504,2.405 -0.545,3.818 0.84,0.191 0.524,0.191 1.363,0 -0.369,0.63 -1.096,0.903 -0.818,2.182 2.361,0.13 5.014,-3.857 2.728,-4.909 -0.75,0.522 -0.926,1.62 -1.636,2.182 0.367,-1.244 1.203,-3.525 -1.092,-3.273 z"
   style="fill:#020303"
   id="path4965" />
        </g>
        <g
   id="g4971">
            <path
   d="m 62.86,50.68 c -0.926,1.711 -4.815,0.457 -4.636,3.273 2.868,-0.222 5.65,-0.531 6,-3.273 -0.679,-0.03 -0.844,-0.511 -1.364,0 z"
   style="fill:#020303"
   id="path4969" />
        </g>
        <g
   id="g4975">
            <path
   d="m 47.315,65.134 c -0.142,6.164 4.12,11.678 9.272,12.545 0.104,-1.923 -2.002,-2.091 -3,-3 -2.745,-2.503 -3.849,-5.841 -5.454,-9.545 z"
   style="fill:#020303"
   id="path4973" />
        </g>
        <g
   id="g4979">
            <path
   d="m 48.134,76.315 c -1.169,-2.113 -1.842,-5.746 -2.728,-7.909 -0.111,-0.343 -0.352,-0.558 -0.818,-0.545 -1.166,2.207 0.364,6.199 1.637,8.727 1.227,2.437 3.486,5.876 6,5.454 -0.639,-2.528 -2.92,-3.608 -4.091,-5.727 z"
   style="fill:#020303"
   id="path4977" />
        </g>
        <g
   id="g4983">
            <path
   d="m 41.315,70.043 c -0.015,0.349 -0.35,0.377 -0.272,0.818 0.331,4.545 1.592,8.404 3.272,12 1.335,2.854 3.322,6.949 6.272,6.818 -0.111,-1.539 -1.343,-2.606 -2.182,-3.818 -3.029,-4.375 -5.256,-10.615 -6,-15.818 z"
   style="fill:#020303"
   id="path4981" />
        </g>
        <g
   id="g4987">
            <path
   d="m 38.315,71.407 c -0.938,3.005 -0.866,9.052 1.909,10.09 0.356,-3.054 -1.212,-6.865 -0.818,-10.09 z"
   style="fill:#020303"
   id="path4985" />
        </g>
        <g
   id="g4991">
            <path
   d="m 35.316,78.497 c 1.271,-0.687 0.992,-4.211 0.817,-5.454 -2.311,-0.333 -2.612,5.034 -0.817,5.454 z"
   style="fill:#020303"
   id="path4989" />
        </g>
        <g
   id="g4995">
            <path
   d="m 32.588,68.134 c -2.776,-0.932 -4.912,-2.82 -4.363,-7.091 1.238,-9.625 18.136,-13.094 27,-8.454 -9.623,3.105 -16.95,8.506 -22.637,15.545 z"
   style="fill:#020303"
   id="path4993" />
        </g>
        <g
   id="g4999">
            <path
   d="m 55.225,52.589 c 0.933,-0.024 0.158,1.66 1.09,1.636 v 0.273 c -9.373,1.901 -16.556,8.35 -22.362,14.727 0.829,-0.862 -1.161,-0.442 -1.364,-1.091 5.686,-7.039 13.013,-12.44 22.636,-15.545 z"
   style="fill:#c1c6c4"
   id="path4997" />
        </g>
        <g
   id="g5003">
            <path
   d="m 60.784,48.771 c 0.71,-0.563 0.886,-1.66 1.636,-2.182 2.286,1.052 -0.366,5.04 -2.728,4.909 -0.277,-1.278 0.449,-1.551 0.818,-2.182 -0.839,0.191 -0.523,0.191 -1.363,0 0.041,-1.414 0.198,-2.711 0.545,-3.818 2.295,-0.252 1.459,2.029 1.092,3.273 z"
   style="fill:#c1c6c4"
   id="path5001" />
        </g>
        <g
   id="g5007">
            <path
   d="m 42.406,70.043 c 0.744,5.203 2.971,11.442 6,15.818 0.839,1.211 2.07,2.279 2.182,3.818 -2.95,0.131 -4.938,-3.963 -6.272,-6.818 -1.681,-3.596 -2.941,-7.455 -3.272,-12 -0.077,-0.44 0.258,-0.469 0.272,-0.818 z"
   style="fill:#c1c6c4"
   id="path5005" />
        </g>
        <g
   id="g5011">
            <path
   d="m 39.406,71.407 c -0.394,3.226 1.175,7.036 0.818,10.09 -2.775,-1.039 -2.848,-7.085 -1.909,-10.09 z"
   style="fill:#c1c6c4"
   id="path5009" />
        </g>
        <g
   id="g5015">
            <path
   d="m 36.134,73.043 c 0.175,1.243 0.454,4.768 -0.817,5.454 -1.796,-0.42 -1.495,-5.787 0.817,-5.454 z"
   style="fill:#c1c6c4"
   id="path5013" />
        </g>
        <g
   id="g5019">
            <path
   d="m 52.225,82.042 c -2.514,0.422 -4.773,-3.018 -6,-5.454 -1.272,-2.528 -2.803,-6.521 -1.637,-8.727 0.467,-0.012 0.707,0.203 0.818,0.545 0.886,2.163 1.559,5.795 2.728,7.909 1.171,2.119 3.452,3.199 4.091,5.727 z"
   style="fill:#c1c6c4"
   id="path5017" />
        </g>
        <g
   id="g5023">
            <path
   d="m 65.213,51.069 c -0.35,2.742 -3.132,3.051 -6,3.273 -0.18,-2.816 3.71,-1.562 4.636,-3.273 0.519,-0.511 0.684,-0.03 1.364,0 z"
   style="fill:#c1c6c4"
   id="path5021" />
        </g>
        <g
   id="g5027">
            <path
   d="m 48.134,65.134 c 1.605,3.705 2.709,7.042 5.454,9.545 0.998,0.909 3.104,1.077 3,3 -5.152,-0.867 -9.414,-6.381 -9.272,-12.545 z"
   style="fill:#c1c6c4"
   id="path5025" />
        </g>
        <g
   id="g5031">
            <path
   d="m 55.161,51.793 c 0.856,0.426 3.195,1.781 3.105,2.935 -1.003,1.02 -4.267,-1.53 -3.105,-2.935 z"
   style="fill:#ffffff"
   id="path5029" />
        </g>
    </g><path
     d="m 99.483,152.751 h 13.199 c 0.934,0 1.699,-0.301 2.301,-0.9 0.732,-0.732 1.1,-1.799 1.1,-3.199 0,-1.467 -0.367,-2.566 -1.1,-3.301 l -2.301,-0.801 h -10.801 l 1.5,-3.1 h 9.401 c 1.668,0 3.033,0.533 4.1,1.6 1.201,1.201 1.801,3.068 1.801,5.602 0,2.467 -0.6,4.299 -1.801,5.5 -1.066,1.066 -2.432,1.6 -4.1,1.6 H 99.483 v -3.001"
     style="fill:#010202;fill-rule:nonzero"
     id="path5035" /><g
     id="g5039">
        <path
   d="m 99.483,152.751 h 13.199 c 0.934,0 1.699,-0.301 2.301,-0.9 0.732,-0.732 1.1,-1.799 1.1,-3.199 0,-1.467 -0.367,-2.566 -1.1,-3.301 l -2.301,-0.801 h -10.801 l 1.5,-3.1 h 9.401 c 1.668,0 3.033,0.533 4.1,1.6 1.201,1.201 1.801,3.068 1.801,5.602 0,2.467 -0.6,4.299 -1.801,5.5 -1.066,1.066 -2.432,1.6 -4.1,1.6 H 99.483 v -3.001"
   style="fill:#010202;fill-rule:nonzero"
   id="path5037" />
    </g><g
     id="g5147">
        <g
   id="g5043">
            <path
   d="m 63.683,159.95 v 10.4 c 0,1.801 0.5,3.301 1.5,4.5 1,1 2.166,1.5 3.5,1.5 1.334,0 2.467,-0.5 3.4,-1.5 1,-1.199 1.533,-2.699 1.6,-4.5 v -10.4 h 2.301 v 10.4 c 0,2.6 -0.701,4.666 -2.102,6.199 -1.467,1.668 -3.199,2.5 -5.199,2.5 -2,0 -3.768,-0.832 -5.301,-2.5 -1.398,-1.533 -2.1,-3.6 -2.1,-6.199 v -10.4 h 2.401"
   style="fill:#010202;fill-rule:nonzero"
   id="path5041" />
        </g>
        <g
   id="g5049">
            <g
   id="g5047">
                <path
   d="m 74.728,74.93 h 1.337 l 4.68,4.099 -1.715,1.018 -3.634,-3.285 -3.634,3.285 -1.715,-1.018 z"
   style="fill-rule:nonzero"
   id="path5045" />
            </g>
        </g>
        <g
   id="g5055">
            <g
   id="g5053">
                <path
   d="m 107.603,74.93 h 1.337 l 4.68,4.099 -1.715,1.018 -3.634,-3.285 -3.634,3.285 -1.715,-1.018 z"
   style="fill-rule:nonzero"
   id="path5051" />
            </g>
        </g>
        <g
   id="g5061">
            <path
   d="m 84.009,156.997 c -1.174,1.008 -4.27,1.109 -5.727,0.273 -0.052,-0.221 -0.273,-0.272 -0.272,-0.545 2.029,-4.771 0.358,-12.153 -1.636,-15.545 6.711,-0.43 14.111,-0.432 20.181,0.545 -0.683,3.897 -2.899,6.444 -5.182,8.727 -2.388,2.387 -7.606,6.424 -7.364,6.545 z"
   style="fill:#f28e1b"
   id="path5057" />
            <path
   d="m 80.916,158.832 c -0.718,0 -2.078,-0.09 -3.132,-0.695 -0.189,-0.109 -0.337,-0.276 -0.422,-0.475 -0.141,-0.171 -0.354,-0.472 -0.353,-0.941 0,-0.133 0.027,-0.265 0.08,-0.388 1.9,-4.47 0.273,-11.498 -1.578,-14.647 -0.176,-0.299 -0.184,-0.668 -0.021,-0.976 0.163,-0.307 0.474,-0.507 0.82,-0.529 2.871,-0.184 5.666,-0.277 8.307,-0.277 4.593,0 8.662,0.28 12.097,0.833 0.264,0.042 0.5,0.189 0.655,0.407 0.155,0.218 0.217,0.489 0.171,0.752 -0.745,4.252 -3.209,7.01 -5.46,9.262 -1.271,1.272 -3.293,2.972 -4.917,4.337 -0.914,0.768 -1.938,1.629 -2.262,1.952 -0.059,0.116 -0.14,0.221 -0.241,0.308 -1.132,0.972 -2.995,1.077 -3.744,1.077 z m -1.771,-2.265 c 0.469,0.168 1.099,0.264 1.771,0.264 1.061,0 1.875,-0.229 2.291,-0.485 0.312,-0.4 1.042,-1.014 2.669,-2.381 1.595,-1.341 3.579,-3.01 4.79,-4.221 1.928,-1.929 3.859,-4.068 4.684,-7.189 -4.745,-0.662 -10.762,-0.822 -17.394,-0.467 1.682,3.787 2.811,9.977 1.189,14.479 z"
   style="fill:#be6f26;fill-rule:nonzero"
   id="path5059" />
        </g>
        <g
   id="g5067">
            <path
   d="m 53.731,129.368 c 11.917,-3.917 46.143,-8.976 54.932,-1.721 2.357,4.682 1.812,11.099 0.245,15.778 -15.174,-7.092 -42.468,-3.581 -55.88,3.858 -1.468,-3.071 -1.855,-8.898 -0.818,-12.818 0.092,-0.001 0.621,-3.824 1.521,-5.097 z"
   style="fill:#f28e1b"
   id="path5063" />
            <path
   d="m 53.028,148.282 c -0.103,0 -0.205,-0.016 -0.305,-0.047 -0.263,-0.084 -0.479,-0.272 -0.598,-0.521 -1.581,-3.309 -1.978,-9.367 -0.883,-13.505 0.013,-0.049 0.029,-0.097 0.05,-0.143 0.026,-0.11 0.063,-0.296 0.109,-0.531 0.356,-1.765 0.797,-3.733 1.513,-4.745 0.124,-0.175 0.301,-0.306 0.504,-0.373 7.973,-2.62 24.587,-5.448 37.526,-5.448 9.039,0 15.215,1.314 18.354,3.906 0.106,0.088 0.194,0.197 0.257,0.321 2.585,5.136 1.851,11.914 0.3,16.545 -0.091,0.271 -0.292,0.489 -0.554,0.602 -0.262,0.113 -0.559,0.108 -0.818,-0.013 -5.268,-2.462 -12.422,-3.764 -20.688,-3.764 -12.512,0 -25.969,2.979 -34.282,7.59 -0.15,0.084 -0.317,0.126 -0.485,0.126 z m 0.144,-13.563 0.005,0.001 c -0.874,3.303 -0.687,8.112 0.359,11.156 8.638,-4.46 21.916,-7.31 34.26,-7.31 8.028,0 15.079,1.203 20.488,3.486 1.121,-3.982 1.592,-9.574 -0.42,-13.765 -2.801,-2.171 -8.641,-3.318 -16.919,-3.318 -12.553,0 -28.594,2.695 -36.55,5.234 -0.466,0.92 -0.856,2.854 -1.032,3.728 -0.058,0.29 -0.113,0.559 -0.191,0.788 z"
   style="fill:#be6f26;fill-rule:nonzero"
   id="path5065" />
        </g>
        <g
   id="g5141">
            <g
   id="g5071">
                <path
   d="m 56.314,54.498 c 0.222,0.052 0.272,0.273 0.546,0.272 2.091,-0.724 -0.636,-2.742 -0.546,-3 0.971,-2.666 1.882,-5.391 2.183,-8.727 4.408,-0.282 7.548,2.972 10.909,4.636 -0.016,1.167 -0.367,1.998 -0.546,3 17.608,-3.737 47.831,-1.902 50.181,15.545 0.391,2.905 0.083,6.733 -1.364,8.727 -1.898,-0.107 -2.333,-2.247 -3.545,-3.545 -4.923,-5.27 -17.408,-13.29 -25.091,-5.455 -5.251,-5.037 -19.248,-6.447 -25.635,-1.364 -1.546,4.727 -1.23,11.314 -3,15.818 -1.074,0.654 -3.148,0.306 -4.363,0.818 -2.537,2.296 -0.739,7.63 -0.818,11.454 C 38.565,97.853 24.073,82.909 33.953,69.223 39.759,62.848 46.941,56.399 56.314,54.498 Z"
   style="fill:#020303"
   id="path5069" />
            </g>
            <g
   id="g5075">
                <path
   d="m 59.314,45.498 c -0.347,1.107 -0.504,2.405 -0.545,3.818 0.84,0.191 0.524,0.191 1.363,0 -0.369,0.63 -1.096,0.903 -0.818,2.182 2.361,0.13 5.014,-3.857 2.728,-4.909 -0.75,0.522 -0.926,1.62 -1.636,2.182 0.367,-1.244 1.203,-3.525 -1.092,-3.273 z"
   style="fill:#020303"
   id="path5073" />
            </g>
            <g
   id="g5079">
                <path
   d="m 62.86,50.68 c -0.926,1.711 -4.815,0.457 -4.636,3.273 2.868,-0.222 5.65,-0.531 6,-3.273 -0.679,-0.03 -0.844,-0.511 -1.364,0 z"
   style="fill:#020303"
   id="path5077" />
            </g>
            <g
   id="g5083">
                <path
   d="m 47.315,65.134 c -0.142,6.164 4.12,11.678 9.272,12.545 0.104,-1.923 -2.002,-2.091 -3,-3 -2.745,-2.503 -3.849,-5.841 -5.454,-9.545 z"
   style="fill:#020303"
   id="path5081" />
            </g>
            <g
   id="g5087">
                <path
   d="m 48.134,76.315 c -1.169,-2.113 -1.842,-5.746 -2.728,-7.909 -0.111,-0.343 -0.352,-0.558 -0.818,-0.545 -1.166,2.207 0.364,6.199 1.637,8.727 1.227,2.437 3.486,5.876 6,5.454 -0.639,-2.528 -2.92,-3.608 -4.091,-5.727 z"
   style="fill:#020303"
   id="path5085" />
            </g>
            <g
   id="g5091">
                <path
   d="m 41.315,70.043 c -0.015,0.349 -0.35,0.377 -0.272,0.818 0.331,4.545 1.592,8.404 3.272,12 1.335,2.854 3.322,6.949 6.272,6.818 -0.111,-1.539 -1.343,-2.606 -2.182,-3.818 -3.029,-4.375 -5.256,-10.615 -6,-15.818 z"
   style="fill:#020303"
   id="path5089" />
            </g>
            <g
   id="g5095">
                <path
   d="m 38.315,71.407 c -0.938,3.005 -0.866,9.052 1.909,10.09 0.356,-3.054 -1.212,-6.865 -0.818,-10.09 z"
   style="fill:#020303"
   id="path5093" />
            </g>
            <g
   id="g5099">
                <path
   d="m 35.316,78.497 c 1.271,-0.687 0.992,-4.211 0.817,-5.454 -2.311,-0.333 -2.612,5.034 -0.817,5.454 z"
   style="fill:#020303"
   id="path5097" />
            </g>
            <g
   id="g5103">
                <path
   d="m 32.588,68.134 c -2.776,-0.932 -4.912,-2.82 -4.363,-7.091 1.238,-9.625 18.136,-13.094 27,-8.454 -9.623,3.105 -16.95,8.506 -22.637,15.545 z"
   style="fill:#020303"
   id="path5101" />
            </g>
            <g
   id="g5107">
                <path
   d="m 55.225,52.589 c 0.933,-0.024 0.158,1.66 1.09,1.636 v 0.273 c -9.373,1.901 -16.556,8.35 -22.362,14.727 0.829,-0.862 -1.161,-0.442 -1.364,-1.091 5.686,-7.039 13.013,-12.44 22.636,-15.545 z"
   style="fill:#c1c6c4"
   id="path5105" />
            </g>
            <g
   id="g5111">
                <path
   d="m 60.784,48.771 c 0.71,-0.563 0.886,-1.66 1.636,-2.182 2.286,1.052 -0.366,5.04 -2.728,4.909 -0.277,-1.278 0.449,-1.551 0.818,-2.182 -0.839,0.191 -0.523,0.191 -1.363,0 0.041,-1.414 0.198,-2.711 0.545,-3.818 2.295,-0.252 1.459,2.029 1.092,3.273 z"
   style="fill:#c1c6c4"
   id="path5109" />
            </g>
            <g
   id="g5115">
                <path
   d="m 42.406,70.043 c 0.744,5.203 2.971,11.442 6,15.818 0.839,1.211 2.07,2.279 2.182,3.818 -2.95,0.131 -4.938,-3.963 -6.272,-6.818 -1.681,-3.596 -2.941,-7.455 -3.272,-12 -0.077,-0.44 0.258,-0.469 0.272,-0.818 z"
   style="fill:#c1c6c4"
   id="path5113" />
            </g>
            <g
   id="g5119">
                <path
   d="m 39.406,71.407 c -0.394,3.226 1.175,7.036 0.818,10.09 -2.775,-1.039 -2.848,-7.085 -1.909,-10.09 z"
   style="fill:#c1c6c4"
   id="path5117" />
            </g>
            <g
   id="g5123">
                <path
   d="m 36.134,73.043 c 0.175,1.243 0.454,4.768 -0.817,5.454 -1.796,-0.42 -1.495,-5.787 0.817,-5.454 z"
   style="fill:#c1c6c4"
   id="path5121" />
            </g>
            <g
   id="g5127">
                <path
   d="m 52.225,82.042 c -2.514,0.422 -4.773,-3.018 -6,-5.454 -1.272,-2.528 -2.803,-6.521 -1.637,-8.727 0.467,-0.012 0.707,0.203 0.818,0.545 0.886,2.163 1.559,5.795 2.728,7.909 1.171,2.119 3.452,3.199 4.091,5.727 z"
   style="fill:#c1c6c4"
   id="path5125" />
            </g>
            <g
   id="g5131">
                <path
   d="m 65.213,51.069 c -0.35,2.742 -3.132,3.051 -6,3.273 -0.18,-2.816 3.71,-1.562 4.636,-3.273 0.519,-0.511 0.684,-0.03 1.364,0 z"
   style="fill:#c1c6c4"
   id="path5129" />
            </g>
            <g
   id="g5135">
                <path
   d="m 48.134,65.134 c 1.605,3.705 2.709,7.042 5.454,9.545 0.998,0.909 3.104,1.077 3,3 -5.152,-0.867 -9.414,-6.381 -9.272,-12.545 z"
   style="fill:#c1c6c4"
   id="path5133" />
            </g>
            <g
   id="g5139">
                <path
   d="m 55.161,51.793 c 0.856,0.426 3.195,1.781 3.105,2.935 -1.003,1.02 -4.267,-1.53 -3.105,-2.935 z"
   style="fill:#ffffff"
   id="path5137" />
            </g>
        </g>
        <g
   id="g5145">
            <path
   d="m 99.483,152.751 h 13.199 c 0.934,0 1.699,-0.301 2.301,-0.9 0.732,-0.732 1.1,-1.799 1.1,-3.199 0,-1.467 -0.367,-2.566 -1.1,-3.301 l -2.301,-0.801 h -10.801 l 1.5,-3.1 h 9.401 c 1.668,0 3.033,0.533 4.1,1.6 1.201,1.201 1.801,3.068 1.801,5.602 0,2.467 -0.6,4.299 -1.801,5.5 -1.066,1.066 -2.432,1.6 -4.1,1.6 H 99.483 v -3.001"
   style="fill:#010202;fill-rule:nonzero"
   id="path5143" />
        </g>
    </g></g></svg>
