<?xml version="1.0" encoding="UTF-8" standalone="no"?>
<svg
   xmlns:dc="http://purl.org/dc/elements/1.1/"
   xmlns:cc="http://creativecommons.org/ns#"
   xmlns:rdf="http://www.w3.org/1999/02/22-rdf-syntax-ns#"
   xmlns:svg="http://www.w3.org/2000/svg"
   xmlns="http://www.w3.org/2000/svg"
   xmlns:xlink="http://www.w3.org/1999/xlink"
   xmlns:sodipodi="http://sodipodi.sourceforge.net/DTD/sodipodi-0.dtd"
   xmlns:inkscape="http://www.inkscape.org/namespaces/inkscape"
   height="182"
   width="160"
   version="1.1"
   id="svg758"
   sodipodi:docname="front-walking-2.svg"
   inkscape:version="1.0.2-2 (e86c870879, 2021-01-15)">
  <metadata
     id="metadata762">
    <rdf:RDF>
      <cc:Work
         rdf:about="">
        <dc:format>image/svg+xml</dc:format>
        <dc:type
           rdf:resource="http://purl.org/dc/dcmitype/StillImage" />
        <dc:title></dc:title>
      </cc:Work>
    </rdf:RDF>
  </metadata>
  <sodipodi:namedview
     pagecolor="#ffffff"
     bordercolor="#666666"
     borderopacity="1"
     objecttolerance="10"
     gridtolerance="10"
     guidetolerance="10"
     inkscape:pageopacity="0"
     inkscape:pageshadow="2"
     inkscape:window-width="1357"
     inkscape:window-height="883"
     id="namedview760"
     showgrid="false"
     inkscape:zoom="4.6703297"
     inkscape:cx="80"
     inkscape:cy="91"
     inkscape:window-x="0"
     inkscape:window-y="0"
     inkscape:window-maximized="0"
     inkscape:current-layer="svg758" />
  <defs
     id="defs748">
    <path
       d="M.7-.3l1.85 2.2H1.5L.05.7-1.4 1.9h-1.05l1.9-2.2H.7"
       fill-rule="evenodd"
       transform="translate(2.45 .3)"
       id="a" />
    <use
       height="2.2"
       width="5"
       xlink:href="#a"
       id="c" />
    <g
       id="b">
      <path
         d="M-15.5-41.55q-2.65-3.1-2.5-7.1v-.75q.25-4.9 5.35-9.05Q-7.15-63.5.5-64q7.6.5 13.05 5.55Q18.6-54.3 19-49.4v.75q0 4-2.6 7.1h.1-.05l-1.1 1.3v.15l-1 .9 6.55 2.35.05-.1.8.1H22.7l.4.3.55.55.25.35.25 1.5-.2.45q-.35 1.55-1.4 1.65l-2.1.1-1.15-.9v-.05h-.05l.05-.15-4.95-1.8v-.05l-1.3-.5.05.55-.3.9.35.1v.05l-.15-.05-.25 8.85h-.05l-.05 1.5h.05v.1l-.05.4h-.05l-.35 4.2-1.05 4.1-1.65 4v.05H8.4v5.2Q8.35-4.1 7.6-3.2q-.65.75-1.7.75-1 0-1.7-.75-.8-.9-.8-2.25v-5.2H2.1v-1.2h-.3V-12l-.45-.75 1.25-.3.65-.5q.9-.9.9-2.75 0-1.9-.9-2.8-.8-.8-2.05-.8h-6.6v1.55h6.55q.7 0 1.15.4.55.55.55 1.65 0 1.05-.55 1.6-.45.45-1.15.45H-5.4v1.4h-4.75l-2.15-.65q-1.55-1.75-1.85-3.75l-.1-1.2V-19l.05-.4.55-1.85h.1v-.55l.15-.15v-1.35l.15-2.4v-.05l.5-7.75h-.05l-1.45-.45-.45-1.3-6.1 2.2.05.15h-.05v.05l-1.1.9-2.1-.1q-1.1-.1-1.45-1.65l-.15-.45.25-1.5.2-.35.6-.55.35-.3h1l.75-.1.05.1 9.05-3.25-.25-.8-1.35.35-.75-1h.2m1.75 19.65l-.05-.1.05.1m3.65-6.6v.05h.05l-.05-.05"
         fill="#fff"
         fill-rule="evenodd"
         transform="translate(27.05 64.6)"
         id="path739" />
      <path
         d="M15.35-40.1l3.15.95v-.05l2.55.95v-.05l.3.2v.1h.1l1.25-.1q.2.15.3 0 1.55.35 2 1.5l.15.25v.25l.15.3.2.7q.2.9-.15 1.6l-.1.2q-.35 1.9-2 2.4.05.45-.2.1l-2.7.2q-.65-.35-1.65-1.25l-4.15-1.5v.1l-1.4-.55v-.05l-.35-.1.3-.9-.05-.55 1.3.5v.05l4.95 1.8-.05.15h.05v.05l1.15.9 2.1-.1q1.05-.1 1.4-1.65l.2-.45-.25-1.5-.25-.35-.55-.55-.4-.3H21.75l-.8-.1-.05.1-6.55-2.35 1-.9m-5.8 29.45v5.2q0 1.95-1 3.1Q7.45-1.1 5.9-1.1q-1.5 0-2.65-1.25-1.05-1.15-1-3.1v-5.2H3.4v5.2q0 1.35.8 2.25.7.75 1.7.75 1.05 0 1.7-.75.75-.9.8-2.25v-5.2h1.15m-8.2-2.1H-5.4v-1.5h6.55q.7 0 1.15-.45.55-.55.55-1.6 0-1.1-.55-1.65-.45-.4-1.15-.4H-5.4v-1.55h6.6q1.25 0 2.05.8.9.9.9 2.8 0 1.85-.9 2.75l-.65.5-1.25.3m-15.6-21.2l-5.95 2.1-1.6 1.25q-1.6.45-2.7-.2-.3.35-.2-.1-1.7-.5-2-2.4l-.15-.2q-.35-.7-.15-1.6l.25-.7.15-.3v-.25l.1-.25q.45-1.15 2.05-1.5.05.15.3 0l1.2.1h.15l-.05-.1.3-.2.05.05 2.55-.95v.05l1.8-.65 3.2-.75 1.35-.35.25.8-9.05 3.25-.05-.1-.75.1h-1l-.35.3-.6.55-.2.35-.25 1.5.15.45q.35 1.55 1.45 1.65l2.1.1 1.1-.9v-.05h.05l-.05-.15 6.1-2.2.45 1.3"
         fill-rule="evenodd"
         transform="translate(27.05 64.6)"
         id="path741" />
      <path
         d="M11.55 23.05q-2.65-3.1-2.5-7.1v-.75q.25-4.9 5.35-9.05Q19.9 1.1 27.55.6q7.6.5 13.05 5.55 5.05 4.15 5.45 9.05v.75q0 4-2.6 7.1"
         fill="none"
         stroke="#000"
         stroke-linecap="round"
         stroke-linejoin="round"
         stroke-width="1.2"
         id="path743" />
      <path
         d="M5.4-44.05q.15.45.45.75l.7.25.95-.6q.4-.65.4-1.65 0-1.35-.9-3.25h1.05q.9 1.6.9 3.15 0 1.55-.65 2.4-.6.8-1.6.8-1.35 0-1.9-1.4-.6 1.4-1.9 1.4-1.05 0-1.65-.85Q.6-43.9.6-45.4q0-1.55.95-3.15h1q-.85 1.9-.85 3.25 0 1 .35 1.65.4.6.95.6.4 0 .7-.3l.45-.7.1-1.15V-47H5.3v1.8l.1 1.15"
         fill-rule="evenodd"
         transform="translate(27.05 64.6)"
         id="path745" />
    </g>
    <path
       d="M.7-.3l1.85 2.2H1.5L.05.7-1.4 1.9h-1.05l1.9-2.2H.7"
       fill-rule="evenodd"
       transform="translate(2.45 .3)"
       id="a-3" />
    <use
       height="2.2"
       width="5"
       xlink:href="#a-3"
       id="c-7" />
    <g
       id="b-2">
      <path
         d="M-15.5-41.55q-2.65-3.1-2.5-7.1v-.75q.25-4.9 5.35-9.05Q-7.15-63.5.5-64q7.6.5 13.05 5.55Q18.6-54.3 19-49.4v.75q0 4-2.6 7.1h.1-.05l-1.1 1.3v.15l-1 .9 6.55 2.35.05-.1.8.1H22.7l.4.3.55.55.25.35.25 1.5-.2.45q-.35 1.55-1.4 1.65l-2.1.1-1.15-.9v-.05h-.05l.05-.15-4.95-1.8v-.05l-1.3-.5.05.55-.3.9.35.1v.05l-.15-.05-.25 8.85h-.05l-.05 1.5h.05v.1l-.05.4h-.05l-.05.5h.05l-.15 1.3-.05.95-.05.35h-1.8l-.75 1.55h5.4l1.15.4q.55.55.55 1.65 0 1.05-.55 1.6-.45.45-1.15.45H8.6v1.4l-7.7-.7h-2.45l-1.55 1.7v1.2h-1.2v5.2q-.05 1.35-.8 2.25-.7.75-1.7.75t-1.75-.75q-.75-.9-.75-2.25v-5.2h-1.2L-12.1-13l.1-.1q-1.8-1.9-2.15-4.15l-.1-1.2V-19l.05-.4.2-.85.35-1h.1v-.55l.15-.15v-1.35l.15-2.4v-.05l.5-7.75h-.05l-1.45-.45-.45-1.3-6.1 2.2.05.15h-.05v.05l-1.1.9-2.1-.1q-1.1-.1-1.45-1.65l-.15-.45.25-1.5.2-.35.6-.55.35-.3h1l.75-.1.05.1 9.05-3.25-.25-.8-1.35.35-.75-1h.2m1.75 19.65l-.05-.1.05.1m3.65-6.55h.05l-.05-.05v.05"
         fill="#fff"
         fill-rule="evenodd"
         transform="translate(27.05 64.6)"
         id="path66" />
      <path
         d="M15.35-40.1l3.15.95v-.05l2.55.95v-.05l.3.2v.1h.1l1.25-.1q.2.15.3 0 1.55.35 2 1.5l.15.25v.25l.15.3.2.7q.2.9-.15 1.6l-.1.2q-.35 1.9-2 2.4.05.45-.2.1l-2.7.2q-.65-.35-1.65-1.25l-4.15-1.5v.1l-1.4-.55v-.05l-.35-.1.3-.9-.05-.55 1.3.5v.05l4.95 1.8-.05.15h.05v.05l1.15.9 2.1-.1q1.05-.1 1.4-1.65l.2-.45-.25-1.5-.25-.35-.55-.55-.4-.3H21.75l-.8-.1-.05.1-6.55-2.35 1-.9m-3 20.2h2.9q1.25 0 2.05.8.9.9.9 2.8 0 1.85-.9 2.75-.8.8-2.05.8H8.6v-1.5h6.6q.7 0 1.15-.45.55-.55.55-1.6 0-1.1-.55-1.65l-1.15-.4H9.8l.75-1.55h1.8m-15.5 9.25v5.2q0 1.95-1.05 3.1Q-5.3-1.1-6.8-1.1t-2.65-1.25q-1.05-1.15-1.05-3.1v-5.2h1.2v5.2q0 1.35.75 2.25.75.75 1.75.75t1.7-.75q.75-.9.8-2.25v-5.2h1.15m-11.1-23.3l-5.95 2.1-1.6 1.25q-1.6.45-2.7-.2-.3.35-.2-.1-1.7-.5-2-2.4l-.15-.2q-.35-.7-.15-1.6l.25-.7.15-.3v-.25l.1-.25q.45-1.15 2.05-1.5.05.15.3 0l1.2.1h.15l-.05-.1.3-.2.05.05 2.55-.95v.05l1.8-.65 3.2-.75 1.35-.35.25.8-9.05 3.25-.05-.1-.75.1h-1l-.35.3-.6.55-.2.35-.25 1.5.15.45q.35 1.55 1.45 1.65l2.1.1 1.1-.9v-.05h.05l-.05-.15 6.1-2.2.45 1.3"
         fill-rule="evenodd"
         transform="translate(27.05 64.6)"
         id="path68" />
      <path
         d="M11.55 23.05q-2.65-3.1-2.5-7.1v-.75q.25-4.9 5.35-9.05Q19.9 1.1 27.55.6q7.6.5 13.05 5.55 5.05 4.15 5.45 9.05v.75q0 4-2.6 7.1"
         fill="none"
         stroke="#000"
         stroke-linecap="round"
         stroke-linejoin="round"
         stroke-width="1.2"
         id="path70" />
      <path
         d="M5.4-44.05q.15.45.45.75l.7.25.95-.6q.4-.65.4-1.65 0-1.35-.9-3.25h1.05q.9 1.6.9 3.15 0 1.55-.65 2.4-.6.8-1.6.8-1.35 0-1.9-1.4-.6 1.4-1.9 1.4-1.05 0-1.65-.85Q.6-43.9.6-45.4q0-1.55.95-3.15h1q-.85 1.9-.85 3.25 0 1 .35 1.65.4.6.95.6.4 0 .7-.3l.45-.7.1-1.15V-47H5.3v1.8l.1 1.15"
         fill-rule="evenodd"
         transform="translate(27.05 64.6)"
         id="path72" />
    </g>
    <path
       d="M.7-.3l1.85 2.2H1.5L.05.7-1.4 1.9h-1.05l1.9-2.2H.7"
       fill-rule="evenodd"
       transform="translate(2.45 .3)"
       id="a-34" />
    <use
       height="2.2"
       width="5"
       xlink:href="#a-34"
       id="c-1" />
    <g
       id="b-8">
      <path
         d="M-15.5-41.55q-2.65-3.1-2.5-7.1v-.75q.25-4.9 5.35-9.05Q-7.15-63.5.5-64q7.6.5 13.05 5.55Q18.6-54.3 19-49.4v.75q0 4-2.6 7.1h.1-.05l-1.1 1.3v.15l-1 .9 6.55 2.35.05-.1.8.1H22.7l.4.3.55.55.25.35.25 1.5-.2.45q-.35 1.55-1.4 1.65l-2.1.1-1.15-.9v-.05h-.05l.05-.15-4.95-1.8v-.05l-1.3-.5.05.55-.3.9.35.1v.05l-.15-.05-.25 8.85h-.05l-.05 1.5h.05v.1l-.05.4h-.05l-.05.5h.05l-.15 1.3-.05.95-.05.35h-1.8l-.75 1.55h5.4l1.15.4q.55.55.55 1.65 0 1.05-.55 1.6-.45.45-1.15.45H8.6v1.4l-7.7-.7h-2.45l-1.55 1.7v1.2h-1.2v5.2q-.05 1.35-.8 2.25-.7.75-1.7.75t-1.75-.75q-.75-.9-.75-2.25v-5.2h-1.2L-12.1-13l.1-.1q-1.8-1.9-2.15-4.15l-.1-1.2V-19l.05-.4.2-.85.35-1h.1v-.55l.15-.15v-1.35l.15-2.4v-.05l.5-7.75h-.05l-1.45-.45-.45-1.3-6.1 2.2.05.15h-.05v.05l-1.1.9-2.1-.1q-1.1-.1-1.45-1.65l-.15-.45.25-1.5.2-.35.6-.55.35-.3h1l.75-.1.05.1 9.05-3.25-.25-.8-1.35.35-.75-1h.2m1.75 19.65l-.05-.1.05.1m3.65-6.55h.05l-.05-.05v.05"
         fill="#fff"
         fill-rule="evenodd"
         transform="translate(27.05 64.6)"
         id="path66-6" />
      <path
         d="M15.35-40.1l3.15.95v-.05l2.55.95v-.05l.3.2v.1h.1l1.25-.1q.2.15.3 0 1.55.35 2 1.5l.15.25v.25l.15.3.2.7q.2.9-.15 1.6l-.1.2q-.35 1.9-2 2.4.05.45-.2.1l-2.7.2q-.65-.35-1.65-1.25l-4.15-1.5v.1l-1.4-.55v-.05l-.35-.1.3-.9-.05-.55 1.3.5v.05l4.95 1.8-.05.15h.05v.05l1.15.9 2.1-.1q1.05-.1 1.4-1.65l.2-.45-.25-1.5-.25-.35-.55-.55-.4-.3H21.75l-.8-.1-.05.1-6.55-2.35 1-.9m-3 20.2h2.9q1.25 0 2.05.8.9.9.9 2.8 0 1.85-.9 2.75-.8.8-2.05.8H8.6v-1.5h6.6q.7 0 1.15-.45.55-.55.55-1.6 0-1.1-.55-1.65l-1.15-.4H9.8l.75-1.55h1.8m-15.5 9.25v5.2q0 1.95-1.05 3.1Q-5.3-1.1-6.8-1.1t-2.65-1.25q-1.05-1.15-1.05-3.1v-5.2h1.2v5.2q0 1.35.75 2.25.75.75 1.75.75t1.7-.75q.75-.9.8-2.25v-5.2h1.15m-11.1-23.3l-5.95 2.1-1.6 1.25q-1.6.45-2.7-.2-.3.35-.2-.1-1.7-.5-2-2.4l-.15-.2q-.35-.7-.15-1.6l.25-.7.15-.3v-.25l.1-.25q.45-1.15 2.05-1.5.05.15.3 0l1.2.1h.15l-.05-.1.3-.2.05.05 2.55-.95v.05l1.8-.65 3.2-.75 1.35-.35.25.8-9.05 3.25-.05-.1-.75.1h-1l-.35.3-.6.55-.2.35-.25 1.5.15.45q.35 1.55 1.45 1.65l2.1.1 1.1-.9v-.05h.05l-.05-.15 6.1-2.2.45 1.3"
         fill-rule="evenodd"
         transform="translate(27.05 64.6)"
         id="path68-4" />
      <path
         d="M11.55 23.05q-2.65-3.1-2.5-7.1v-.75q.25-4.9 5.35-9.05Q19.9 1.1 27.55.6q7.6.5 13.05 5.55 5.05 4.15 5.45 9.05v.75q0 4-2.6 7.1"
         fill="none"
         stroke="#000"
         stroke-linecap="round"
         stroke-linejoin="round"
         stroke-width="1.2"
         id="path70-9" />
      <path
         d="M5.4-44.05q.15.45.45.75l.7.25.95-.6q.4-.65.4-1.65 0-1.35-.9-3.25h1.05q.9 1.6.9 3.15 0 1.55-.65 2.4-.6.8-1.6.8-1.35 0-1.9-1.4-.6 1.4-1.9 1.4-1.05 0-1.65-.85Q.6-43.9.6-45.4q0-1.55.95-3.15h1q-.85 1.9-.85 3.25 0 1 .35 1.65.4.6.95.6.4 0 .7-.3l.45-.7.1-1.15V-47H5.3v1.8l.1 1.15"
         fill-rule="evenodd"
         transform="translate(27.05 64.6)"
         id="path72-7" />
    </g>
  </defs>
  <g
     style="clip-rule:evenodd;fill-rule:evenodd;stroke-linecap:square;stroke-linejoin:round;stroke-miterlimit:1.5"
     id="g2744"
     transform="translate(2.403,-37.05)">
    <g
       id="g3999"
       transform="translate(0.1)">
        <path
   id="path3598"
   d="m 50.036,100.151 -1.5,-2 h 0.4 c -3.533,-4.135 -5.199,-8.867 -5,-14.201 v -1.5 c 0.334,-6.533 3.9,-12.566 10.701,-18.1 7.332,-6.732 16.1,-10.434 26.299,-11.1 10.133,0.666 18.834,4.367 26.1,11.1 6.734,5.533 10.367,11.566 10.9,18.1 v 1.5 c 0,5.334 -1.732,10.066 -5.199,14.201 h 0.199 -0.1 l -2.199,2.6 v 0.301 l -2,1.799 13.1,4.701 0.1,-0.201 1.6,0.201 h 1.901 l 0.801,0.6 1.1,1.1 -18.599,2.299 v -0.102 l -2.602,-1 0.102,1.102 -0.602,1.799 0.701,0.201 v 0.1 l -0.301,-0.1 -0.5,17.699 h -0.1 l -0.1,3 h 0.1 v 0.199 l -0.1,0.801 h -0.1 l -0.701,8.401 -2.1,8.199 -3.301,8 v 0.1 h -2.299 v 10.4 c -0.066,1.801 -0.6,3.301 -1.6,4.5 -0.867,1 -2,1.5 -3.4,1.5 -1.334,0 -2.467,-0.5 -3.4,-1.5 -1.066,-1.199 -1.6,-2.699 -1.6,-4.5 v -10.4 h -2.6 v -2.4 h -0.602 v -0.299 l -0.898,-1.5 2.5,-0.6 1.299,-1 c 1.201,-1.201 1.801,-3.033 1.801,-5.5 0,-2.533 -0.6,-4.4 -1.801,-5.602 -1.066,-1.066 -2.434,-1.6 -4.1,-1.6 H 69.138 v 3.1 h 13.1 c 0.934,0 1.699,0.268 2.299,0.801 0.734,0.734 1.102,1.834 1.102,3.301 0,1.4 -0.367,2.467 -1.102,3.199 -0.6,0.6 -1.365,0.9 -2.299,0.9 h -13.1 v 2.799 h -9.5 l -4.301,-1.299 c -2.066,-2.334 -3.301,-4.834 -3.699,-7.5 l -0.201,-2.4 v -1.1 l 0.1,-0.801 1.102,-3.7 h 0.199 v -1.1 l 0.301,-0.301 v -2.7 l 0.299,-4.801 v -0.1 l 1,-15.5 h -0.1 l -1.098,-13.199 -3.204,-0.897 m 9.701,24.199 h 0.1 l -0.1,-0.1 v 0.1 m -7.4,12.901 0.1,0.199 -0.1,-0.199"
   style="fill:#ffffff;fill-rule:nonzero" />

        <g
   id="g3602">
            <path
   id="path3600"
   d="m 53.75,102.722 -5.214,-4.571 h 0.4 c -3.533,-4.135 -5.199,-8.867 -5,-14.201 v -1.5 c 0.334,-6.533 3.9,-12.566 10.701,-18.1 7.332,-6.732 16.1,-10.434 26.299,-11.1 10.133,0.666 18.834,4.367 26.1,11.1 6.734,5.533 10.367,11.566 10.9,18.1 v 1.5 c 0,5.334 -1.732,10.066 -5.199,14.201 h 0.199 -0.1 l -2.199,2.6 -1.857,1.301 -0.714,3.942 2.185,-0.871 5.801,-5.571 4.373,-0.971 5.243,4.1 0.928,4.984 -1.357,3 -3.114,1.615 c -0.467,2.066 -3.444,-0.871 -3.444,-0.871 l -3,1.612 -6.327,3.673 -3.387,2.227 -0.529,12.329 h -0.1 l -0.1,3 h 0.1 v 0.199 l -0.1,0.801 h -0.1 l -0.701,8.401 -2.1,8.199 -3.301,8 v 0.1 h -2.299 v 10.4 c -0.066,1.801 -0.6,3.301 -1.6,4.5 -0.867,1 -2,1.5 -3.4,1.5 -1.334,0 -2.467,-0.5 -3.4,-1.5 -1.066,-1.199 -1.6,-2.699 -1.6,-4.5 v -10.4 h -2.6 v -2.4 h -0.602 v -0.299 l -0.898,-1.5 2.5,-0.6 1.299,-1 c 1.201,-1.201 1.801,-3.033 1.801,-5.5 0,-2.533 -0.6,-4.4 -1.801,-5.602 -1.066,-1.066 -2.434,-1.6 -4.1,-1.6 H 69.138 v 3.1 h 13.1 c 0.934,0 1.699,0.268 2.299,0.801 0.734,0.734 1.102,1.834 1.102,3.301 0,1.4 -0.367,2.467 -1.102,3.199 -0.6,0.6 -1.365,0.9 -2.299,0.9 h -13.1 v 2.799 h -9.5 l -4.301,-1.299 c -2.066,-2.334 -3.301,-4.834 -3.699,-7.5 l -0.201,-2.4 v -1.1 l 0.1,-0.801 1.102,-3.7 h 0.199 v -1.1 l 0.301,-0.301 v -2.7 l 0.299,-4.801 v -0.1 l 1,-15.5 h -0.1 m 5.399,10.103 h 0.1 l -0.1,-0.1 v 0.1 m -7.4,12.901 0.1,0.199 -0.1,-0.199"
   style="fill:#ffffff;fill-rule:nonzero" />

        </g>

        <path
   id="path3604"
   d="m 86.737,159.951 v 10.4 c 0,1.801 0.533,3.301 1.6,4.5 0.934,1 2.066,1.5 3.4,1.5 1.4,0 2.533,-0.5 3.4,-1.5 1,-1.199 1.533,-2.699 1.6,-4.5 v -10.4 h 2.299 v 10.4 c 0,2.6 -0.666,4.666 -2,6.199 -1.467,1.668 -3.232,2.5 -5.299,2.5 -2,0 -3.768,-0.832 -5.301,-2.5 -1.4,-1.533 -2.066,-3.6 -2,-6.199 v -10.4 h 2.301"
   style="fill:#010202;fill-rule:nonzero" />

        <g
   id="g3608">
            <path
   id="path3606"
   d="m 86.737,159.951 v 10.4 c 0,1.801 0.533,3.301 1.6,4.5 0.934,1 2.066,1.5 3.4,1.5 1.4,0 2.533,-0.5 3.4,-1.5 1,-1.199 1.533,-2.699 1.6,-4.5 v -10.4 h 2.299 v 10.4 c 0,2.6 -0.666,4.666 -2,6.199 -1.467,1.668 -3.232,2.5 -5.299,2.5 -2,0 -3.768,-0.832 -5.301,-2.5 -1.4,-1.533 -2.066,-3.6 -2,-6.199 v -10.4 h 2.301"
   style="fill:#010202;fill-rule:nonzero" />

        </g>

        <g
   id="path3610"
   transform="translate(-0.192,-0.128)">
            <path
   d="m 90.737,93.151 c 0.199,0.6 0.5,1.1 0.9,1.5 l 1.398,0.5 1.9,-1.201 c 0.533,-0.865 0.801,-1.967 0.801,-3.299 0,-1.801 -0.6,-3.967 -1.801,-6.5 h 2.1 c 1.201,2.133 1.801,4.232 1.801,6.299 0,2.067 -0.434,3.668 -1.301,4.801 -0.799,1.066 -1.865,1.6 -3.199,1.6 -1.801,0 -3.066,-0.934 -3.801,-2.799 -0.799,1.865 -2.066,2.799 -3.799,2.799 -1.4,0 -2.5,-0.566 -3.301,-1.699 -0.867,-1.135 -1.299,-2.701 -1.299,-4.701 0,-2.066 0.633,-4.166 1.898,-6.299 h 2 c -1.133,2.533 -1.699,4.699 -1.699,6.5 0,1.332 0.232,2.434 0.699,3.299 0.533,0.801 1.168,1.201 1.9,1.201 0.533,0 1,-0.201 1.4,-0.6 l 0.9,-1.4 0.199,-2.301 v -3.6 h 2.1 v 3.6 l 0.204,2.3"
   style="fill:#010202;fill-rule:nonzero"
   id="path2494" />

        </g>

        <g
   id="path3616"
   transform="translate(-0.064,0.128)">
            <path
   d="m 71.213,74.93 h 1.337 l 4.68,4.099 -1.715,1.018 -3.634,-3.285 -3.634,3.285 -1.715,-1.018 z"
   style="fill-rule:nonzero"
   id="path2497" />

        </g>

        <g
   id="g3632"
   transform="translate(0,0.128)">
            <path
   id="path3630"
   d="m 104.088,74.93 h 1.337 l 4.68,4.099 -1.715,1.018 -3.634,-3.285 -3.634,3.285 -1.715,-1.018 z"
   style="fill-rule:nonzero" />

        </g>

        <path
   id="path3640"
   d="m 83.618,155.997 c -1.174,1.008 -4.27,1.109 -5.727,0.273 -0.052,-0.221 -0.273,-0.272 -0.272,-0.545 2.029,-4.771 0.746,-13.521 -1.248,-16.913 6.711,-0.43 13.724,0.936 19.793,1.913 -0.683,3.897 -2.899,6.444 -5.182,8.727 -2.387,2.387 -7.606,6.424 -7.364,6.545 z"
   style="fill:#f28e1b" />

        <path
   id="path3642"
   d="m 80.525,157.832 c -0.718,0 -2.078,-0.09 -3.132,-0.695 -0.189,-0.109 -0.337,-0.276 -0.422,-0.475 -0.141,-0.171 -0.354,-0.472 -0.353,-0.941 0,-0.133 0.027,-0.265 0.08,-0.388 1.905,-4.481 0.643,-12.896 -1.19,-16.014 -0.176,-0.299 -0.184,-0.668 -0.021,-0.976 0.163,-0.307 0.474,-0.507 0.82,-0.529 0.864,-0.055 1.771,-0.083 2.692,-0.083 5.177,0 10.477,0.877 15.152,1.651 l 2.171,0.356 c 0.264,0.042 0.5,0.189 0.655,0.407 0.155,0.218 0.217,0.489 0.171,0.752 -0.745,4.252 -3.209,7.01 -5.46,9.262 -1.271,1.272 -3.293,2.972 -4.917,4.337 -0.914,0.768 -1.938,1.629 -2.262,1.952 -0.059,0.116 -0.14,0.221 -0.241,0.308 -1.13,0.971 -2.994,1.076 -3.743,1.076 z m -1.77,-2.265 c 0.468,0.168 1.098,0.264 1.771,0.264 1.061,0 1.875,-0.229 2.291,-0.485 0.312,-0.4 1.042,-1.014 2.669,-2.381 1.595,-1.341 3.579,-3.01 4.79,-4.221 1.931,-1.932 3.865,-4.075 4.688,-7.204 l -1.137,-0.187 c -4.6,-0.761 -9.813,-1.624 -14.826,-1.624 -0.361,0 -0.72,0.005 -1.073,0.014 1.606,3.981 2.512,11.155 0.827,15.824 z"
   style="fill:#be6f26;fill-rule:nonzero" />

        <g
   id="g3648">
            <path
   id="path3644"
   d="m 83.618,155.997 c -1.174,1.008 -4.27,1.109 -5.727,0.273 -0.052,-0.221 -0.273,-0.272 -0.272,-0.545 2.029,-4.771 0.746,-13.521 -1.248,-16.913 6.711,-0.43 13.724,0.936 19.793,1.913 -0.683,3.897 -2.899,6.444 -5.182,8.727 -2.387,2.387 -7.606,6.424 -7.364,6.545 z"
   style="fill:#f28e1b" />

            <path
   id="path3646"
   d="m 80.525,157.832 c -0.718,0 -2.078,-0.09 -3.132,-0.695 -0.189,-0.109 -0.337,-0.276 -0.422,-0.475 -0.141,-0.171 -0.354,-0.472 -0.353,-0.941 0,-0.133 0.027,-0.265 0.08,-0.388 1.905,-4.481 0.643,-12.896 -1.19,-16.014 -0.176,-0.299 -0.184,-0.668 -0.021,-0.976 0.163,-0.307 0.474,-0.507 0.82,-0.529 0.864,-0.055 1.771,-0.083 2.692,-0.083 5.177,0 10.477,0.877 15.152,1.651 l 2.171,0.356 c 0.264,0.042 0.5,0.189 0.655,0.407 0.155,0.218 0.217,0.489 0.171,0.752 -0.745,4.252 -3.209,7.01 -5.46,9.262 -1.271,1.272 -3.293,2.972 -4.917,4.337 -0.914,0.768 -1.938,1.629 -2.262,1.952 -0.059,0.116 -0.14,0.221 -0.241,0.308 -1.13,0.971 -2.994,1.076 -3.743,1.076 z m -1.77,-2.265 c 0.468,0.168 1.098,0.264 1.771,0.264 1.061,0 1.875,-0.229 2.291,-0.485 0.312,-0.4 1.042,-1.014 2.669,-2.381 1.595,-1.341 3.579,-3.01 4.79,-4.221 1.931,-1.932 3.865,-4.075 4.688,-7.204 l -1.137,-0.187 c -4.6,-0.761 -9.813,-1.624 -14.826,-1.624 -0.361,0 -0.72,0.005 -1.073,0.014 1.606,3.981 2.512,11.155 0.827,15.824 z"
   style="fill:#be6f26;fill-rule:nonzero" />

        </g>

        <path
   id="path3650"
   d="m 52.571,128.368 c 11.917,-3.917 46.143,-8.976 54.932,-1.721 2.357,4.682 1.295,12.775 -0.271,17.454 -15.174,-7.092 -42.383,-7.188 -55.795,0.25 -1.468,-3.071 -1.424,-6.967 -0.387,-10.887 0.092,0 0.621,-3.823 1.521,-5.096 z"
   style="fill:#f28e1b" />

        <path
   id="path3652"
   d="m 51.437,145.351 c -0.103,0 -0.205,-0.016 -0.305,-0.047 -0.263,-0.084 -0.479,-0.272 -0.598,-0.521 -1.479,-3.095 -1.636,-7.097 -0.451,-11.574 0.013,-0.049 0.029,-0.097 0.05,-0.143 0.026,-0.11 0.063,-0.296 0.109,-0.531 0.356,-1.765 0.797,-3.733 1.513,-4.745 0.124,-0.175 0.301,-0.306 0.504,-0.373 7.973,-2.62 24.587,-5.448 37.526,-5.448 9.039,0 15.215,1.314 18.354,3.906 0.106,0.088 0.194,0.197 0.257,0.321 2.593,5.149 1.291,13.718 -0.217,18.221 -0.091,0.271 -0.292,0.489 -0.554,0.602 -0.263,0.112 -0.56,0.107 -0.818,-0.013 -7.11,-3.323 -17.306,-5.229 -27.969,-5.229 -10.863,0 -20.674,1.986 -26.917,5.449 -0.15,0.083 -0.317,0.125 -0.484,0.125 z m 0.575,-11.632 0.005,0.001 c -0.938,3.543 -0.96,6.708 -0.075,9.233 6.543,-3.298 16.256,-5.177 26.897,-5.177 10.439,0 20.476,1.796 27.773,4.949 1.418,-4.916 1.895,-11.605 0.09,-15.439 -2.801,-2.171 -8.64,-3.317 -16.917,-3.317 -12.553,0 -28.594,2.695 -36.55,5.234 -0.466,0.92 -0.856,2.854 -1.032,3.728 -0.058,0.29 -0.113,0.559 -0.191,0.788 z"
   style="fill:#be6f26;fill-rule:nonzero" />

        <g
   id="g3658">
            <path
   id="path3654"
   d="m 52.571,128.368 c 11.917,-3.917 46.143,-8.976 54.932,-1.721 2.357,4.682 1.295,12.775 -0.271,17.454 -15.174,-7.092 -42.383,-7.188 -55.795,0.25 -1.468,-3.071 -1.424,-6.967 -0.387,-10.887 0.092,0 0.621,-3.823 1.521,-5.096 z"
   style="fill:#f28e1b" />

            <path
   id="path3656"
   d="m 51.437,145.351 c -0.103,0 -0.205,-0.016 -0.305,-0.047 -0.263,-0.084 -0.479,-0.272 -0.598,-0.521 -1.479,-3.095 -1.636,-7.097 -0.451,-11.574 0.013,-0.049 0.029,-0.097 0.05,-0.143 0.026,-0.11 0.063,-0.296 0.109,-0.531 0.356,-1.765 0.797,-3.733 1.513,-4.745 0.124,-0.175 0.301,-0.306 0.504,-0.373 7.973,-2.62 24.587,-5.448 37.526,-5.448 9.039,0 15.215,1.314 18.354,3.906 0.106,0.088 0.194,0.197 0.257,0.321 2.593,5.149 1.291,13.718 -0.217,18.221 -0.091,0.271 -0.292,0.489 -0.554,0.602 -0.263,0.112 -0.56,0.107 -0.818,-0.013 -7.11,-3.323 -17.306,-5.229 -27.969,-5.229 -10.863,0 -20.674,1.986 -26.917,5.449 -0.15,0.083 -0.317,0.125 -0.484,0.125 z m 0.575,-11.632 0.005,0.001 c -0.938,3.543 -0.96,6.708 -0.075,9.233 6.543,-3.298 16.256,-5.177 26.897,-5.177 10.439,0 20.476,1.796 27.773,4.949 1.418,-4.916 1.895,-11.605 0.09,-15.439 -2.801,-2.171 -8.64,-3.317 -16.917,-3.317 -12.553,0 -28.594,2.695 -36.55,5.234 -0.466,0.92 -0.856,2.854 -1.032,3.728 -0.058,0.29 -0.113,0.559 -0.191,0.788 z"
   style="fill:#be6f26;fill-rule:nonzero" />

        </g>

        <path
   id="path3660"
   d="m 74.061,123.173 3.857,2.857 2.286,3.428 3.571,0.857 3.714,-1.142 2,-2.286 1.715,-2.286 -1,-3.571 -1.286,-3.143 -2.857,-0.572 -1.857,0.715 -7.143,2.285 z"
   style="fill:#ffffff" />

        <path
   id="path3662"
   d="m 53.969,53.498 c 0.222,0.052 0.272,0.273 0.546,0.272 2.091,-0.724 -0.636,-2.742 -0.546,-3 0.971,-2.666 1.882,-5.391 2.183,-8.727 4.408,-0.282 7.548,2.972 10.909,4.636 -0.016,1.167 -0.367,1.998 -0.546,3 17.608,-3.737 47.831,-1.902 50.181,15.545 0.391,2.905 0.083,6.733 -1.364,8.727 -1.898,-0.107 -2.333,-2.247 -3.545,-3.545 -4.923,-5.27 -17.408,-13.29 -25.091,-5.455 -5.251,-5.037 -19.248,-6.447 -25.635,-1.364 -1.546,4.727 -1.23,11.314 -3,15.818 -1.074,0.654 -3.148,0.306 -4.363,0.818 -2.537,2.296 -0.739,7.63 -0.818,11.454 C 36.22,96.853 21.728,81.909 31.608,68.223 37.413,61.848 44.596,55.399 53.969,53.498 Z"
   style="fill:#020303" />

        <g
   id="g3666">
            <path
   id="path3664"
   d="m 53.969,53.498 c 0.222,0.052 0.272,0.273 0.546,0.272 2.091,-0.724 -0.636,-2.742 -0.546,-3 0.971,-2.666 1.882,-5.391 2.183,-8.727 4.408,-0.282 7.548,2.972 10.909,4.636 -0.016,1.167 -0.367,1.998 -0.546,3 17.608,-3.737 47.831,-1.902 50.181,15.545 0.391,2.905 0.083,6.733 -1.364,8.727 -1.898,-0.107 -2.333,-2.247 -3.545,-3.545 -4.923,-5.27 -17.408,-13.29 -25.091,-5.455 -5.251,-5.037 -19.248,-6.447 -25.635,-1.364 -1.546,4.727 -1.23,11.314 -3,15.818 -1.074,0.654 -3.148,0.306 -4.363,0.818 -2.537,2.296 -0.739,7.63 -0.818,11.454 C 36.22,96.853 21.728,81.909 31.608,68.223 37.413,61.848 44.596,55.399 53.969,53.498 Z"
   style="fill:#020303" />

        </g>

        <path
   id="path3668"
   d="m 56.969,44.498 c -0.347,1.107 -0.504,2.405 -0.545,3.818 0.84,0.191 0.524,0.191 1.363,0 -0.369,0.63 -1.096,0.903 -0.818,2.182 2.361,0.13 5.014,-3.857 2.728,-4.909 -0.75,0.522 -0.926,1.62 -1.636,2.182 0.367,-1.244 1.203,-3.525 -1.092,-3.273 z"
   style="fill:#020303" />

        <g
   id="g3672">
            <path
   id="path3670"
   d="m 56.969,44.498 c -0.347,1.107 -0.504,2.405 -0.545,3.818 0.84,0.191 0.524,0.191 1.363,0 -0.369,0.63 -1.096,0.903 -0.818,2.182 2.361,0.13 5.014,-3.857 2.728,-4.909 -0.75,0.522 -0.926,1.62 -1.636,2.182 0.367,-1.244 1.203,-3.525 -1.092,-3.273 z"
   style="fill:#020303" />

        </g>

        <path
   id="path3674"
   d="m 60.515,49.68 c -0.926,1.711 -4.815,0.457 -4.636,3.273 2.868,-0.222 5.65,-0.531 6,-3.273 -0.68,-0.03 -0.845,-0.511 -1.364,0 z"
   style="fill:#020303" />

        <g
   id="g3678">
            <path
   id="path3676"
   d="m 60.515,49.68 c -0.926,1.711 -4.815,0.457 -4.636,3.273 2.868,-0.222 5.65,-0.531 6,-3.273 -0.68,-0.03 -0.845,-0.511 -1.364,0 z"
   style="fill:#020303" />

        </g>

        <path
   id="path3680"
   d="m 44.97,64.134 c -0.142,6.164 4.12,11.678 9.272,12.545 0.104,-1.923 -2.002,-2.091 -3,-3 -2.745,-2.503 -3.849,-5.841 -5.454,-9.545 z"
   style="fill:#020303" />

        <g
   id="g3684">
            <path
   id="path3682"
   d="m 44.97,64.134 c -0.142,6.164 4.12,11.678 9.272,12.545 0.104,-1.923 -2.002,-2.091 -3,-3 -2.745,-2.503 -3.849,-5.841 -5.454,-9.545 z"
   style="fill:#020303" />

        </g>

        <path
   id="path3686"
   d="m 45.788,75.315 c -1.169,-2.113 -1.842,-5.746 -2.728,-7.909 -0.111,-0.343 -0.352,-0.558 -0.818,-0.545 -1.166,2.207 0.364,6.199 1.637,8.727 1.227,2.437 3.486,5.876 6,5.454 -0.639,-2.528 -2.92,-3.608 -4.091,-5.727 z"
   style="fill:#020303" />

        <g
   id="g3690">
            <path
   id="path3688"
   d="m 45.788,75.315 c -1.169,-2.113 -1.842,-5.746 -2.728,-7.909 -0.111,-0.343 -0.352,-0.558 -0.818,-0.545 -1.166,2.207 0.364,6.199 1.637,8.727 1.227,2.437 3.486,5.876 6,5.454 -0.639,-2.528 -2.92,-3.608 -4.091,-5.727 z"
   style="fill:#020303" />

        </g>

        <path
   id="path3692"
   d="m 38.97,69.043 c -0.015,0.349 -0.35,0.377 -0.272,0.818 0.331,4.545 1.592,8.404 3.272,12 1.335,2.854 3.322,6.949 6.272,6.818 -0.111,-1.539 -1.343,-2.606 -2.182,-3.818 -3.029,-4.375 -5.256,-10.615 -6,-15.818 z"
   style="fill:#020303" />

        <g
   id="g3696">
            <path
   id="path3694"
   d="m 38.97,69.043 c -0.015,0.349 -0.35,0.377 -0.272,0.818 0.331,4.545 1.592,8.404 3.272,12 1.335,2.854 3.322,6.949 6.272,6.818 -0.111,-1.539 -1.343,-2.606 -2.182,-3.818 -3.029,-4.375 -5.256,-10.615 -6,-15.818 z"
   style="fill:#020303" />

        </g>

        <path
   id="path3698"
   d="m 35.97,70.407 c -0.938,3.005 -0.866,9.052 1.909,10.09 0.356,-3.054 -1.212,-6.865 -0.818,-10.09 z"
   style="fill:#020303" />

        <g
   id="g3702">
            <path
   id="path3700"
   d="m 35.97,70.407 c -0.938,3.005 -0.866,9.052 1.909,10.09 0.356,-3.054 -1.212,-6.865 -0.818,-10.09 z"
   style="fill:#020303" />

        </g>

        <path
   id="path3704"
   d="m 32.971,77.497 c 1.271,-0.687 0.992,-4.211 0.817,-5.454 -2.311,-0.333 -2.612,5.034 -0.817,5.454 z"
   style="fill:#020303" />

        <g
   id="g3708">
            <path
   id="path3706"
   d="m 32.971,77.497 c 1.271,-0.687 0.992,-4.211 0.817,-5.454 -2.311,-0.333 -2.612,5.034 -0.817,5.454 z"
   style="fill:#020303" />

        </g>

        <path
   id="path3710"
   d="m 30.242,67.134 c -2.776,-0.932 -4.912,-2.82 -4.363,-7.091 1.238,-9.625 18.136,-13.094 27,-8.454 -9.623,3.105 -16.949,8.506 -22.637,15.545 z"
   style="fill:#020303" />

        <g
   id="g3714">
            <path
   id="path3712"
   d="m 30.242,67.134 c -2.776,-0.932 -4.912,-2.82 -4.363,-7.091 1.238,-9.625 18.136,-13.094 27,-8.454 -9.623,3.105 -16.949,8.506 -22.637,15.545 z"
   style="fill:#020303" />

        </g>

        <path
   id="path3716"
   d="m 52.879,51.589 c 0.933,-0.024 0.158,1.66 1.09,1.636 v 0.273 c -9.373,1.901 -16.556,8.35 -22.362,14.727 0.829,-0.862 -1.161,-0.442 -1.364,-1.091 5.687,-7.039 13.013,-12.44 22.636,-15.545 z"
   style="fill:#c1c6c4" />

        <g
   id="g3720">
            <path
   id="path3718"
   d="m 52.879,51.589 c 0.933,-0.024 0.158,1.66 1.09,1.636 v 0.273 c -9.373,1.901 -16.556,8.35 -22.362,14.727 0.829,-0.862 -1.161,-0.442 -1.364,-1.091 5.687,-7.039 13.013,-12.44 22.636,-15.545 z"
   style="fill:#c1c6c4" />

        </g>

        <path
   id="path3722"
   d="m 58.438,47.771 c 0.71,-0.563 0.886,-1.66 1.636,-2.182 2.286,1.052 -0.366,5.04 -2.728,4.909 -0.277,-1.278 0.449,-1.551 0.818,-2.182 -0.839,0.191 -0.523,0.191 -1.363,0 0.041,-1.414 0.198,-2.711 0.545,-3.818 2.296,-0.252 1.46,2.029 1.092,3.273 z"
   style="fill:#c1c6c4" />

        <g
   id="g3726">
            <path
   id="path3724"
   d="m 58.438,47.771 c 0.71,-0.563 0.886,-1.66 1.636,-2.182 2.286,1.052 -0.366,5.04 -2.728,4.909 -0.277,-1.278 0.449,-1.551 0.818,-2.182 -0.839,0.191 -0.523,0.191 -1.363,0 0.041,-1.414 0.198,-2.711 0.545,-3.818 2.296,-0.252 1.46,2.029 1.092,3.273 z"
   style="fill:#c1c6c4" />

        </g>

        <path
   id="path3728"
   d="m 40.061,69.043 c 0.744,5.203 2.971,11.442 6,15.818 0.839,1.211 2.07,2.279 2.182,3.818 -2.95,0.131 -4.938,-3.963 -6.272,-6.818 -1.681,-3.596 -2.941,-7.455 -3.272,-12 -0.077,-0.44 0.258,-0.469 0.272,-0.818 z"
   style="fill:#c1c6c4" />

        <g
   id="g3732">
            <path
   id="path3730"
   d="m 40.061,69.043 c 0.744,5.203 2.971,11.442 6,15.818 0.839,1.211 2.07,2.279 2.182,3.818 -2.95,0.131 -4.938,-3.963 -6.272,-6.818 -1.681,-3.596 -2.941,-7.455 -3.272,-12 -0.077,-0.44 0.258,-0.469 0.272,-0.818 z"
   style="fill:#c1c6c4" />

        </g>

        <path
   id="path3734"
   d="m 37.061,70.407 c -0.394,3.226 1.175,7.036 0.818,10.09 -2.775,-1.039 -2.848,-7.085 -1.909,-10.09 z"
   style="fill:#c1c6c4" />

        <g
   id="g3738">
            <path
   id="path3736"
   d="m 37.061,70.407 c -0.394,3.226 1.175,7.036 0.818,10.09 -2.775,-1.039 -2.848,-7.085 -1.909,-10.09 z"
   style="fill:#c1c6c4" />

        </g>

        <path
   id="path3740"
   d="m 33.788,72.043 c 0.175,1.243 0.454,4.768 -0.817,5.454 -1.795,-0.42 -1.494,-5.787 0.817,-5.454 z"
   style="fill:#c1c6c4" />

        <g
   id="g3744">
            <path
   id="path3742"
   d="m 33.788,72.043 c 0.175,1.243 0.454,4.768 -0.817,5.454 -1.795,-0.42 -1.494,-5.787 0.817,-5.454 z"
   style="fill:#c1c6c4" />

        </g>

        <path
   id="path3746"
   d="m 49.879,81.042 c -2.514,0.422 -4.773,-3.018 -6,-5.454 -1.272,-2.528 -2.803,-6.521 -1.637,-8.727 0.467,-0.012 0.707,0.203 0.818,0.545 0.886,2.163 1.559,5.795 2.728,7.909 1.171,2.119 3.452,3.199 4.091,5.727 z"
   style="fill:#c1c6c4" />

        <g
   id="g3750">
            <path
   id="path3748"
   d="m 49.879,81.042 c -2.514,0.422 -4.773,-3.018 -6,-5.454 -1.272,-2.528 -2.803,-6.521 -1.637,-8.727 0.467,-0.012 0.707,0.203 0.818,0.545 0.886,2.163 1.559,5.795 2.728,7.909 1.171,2.119 3.452,3.199 4.091,5.727 z"
   style="fill:#c1c6c4" />

        </g>

        <path
   id="path3752"
   d="m 62.867,50.069 c -0.35,2.742 -3.132,3.051 -6,3.273 -0.18,-2.816 3.71,-1.562 4.636,-3.273 0.519,-0.511 0.685,-0.03 1.364,0 z"
   style="fill:#c1c6c4" />

        <g
   id="g3756">
            <path
   id="path3754"
   d="m 62.867,50.069 c -0.35,2.742 -3.132,3.051 -6,3.273 -0.18,-2.816 3.71,-1.562 4.636,-3.273 0.519,-0.511 0.685,-0.03 1.364,0 z"
   style="fill:#c1c6c4" />

        </g>

        <path
   id="path3758"
   d="m 45.788,64.134 c 1.605,3.705 2.709,7.042 5.454,9.545 0.998,0.909 3.104,1.077 3,3 C 49.09,75.812 44.828,70.298 44.97,64.134 Z"
   style="fill:#c1c6c4" />

        <g
   id="g3762">
            <path
   id="path3760"
   d="m 45.788,64.134 c 1.605,3.705 2.709,7.042 5.454,9.545 0.998,0.909 3.104,1.077 3,3 C 49.09,75.812 44.828,70.298 44.97,64.134 Z"
   style="fill:#c1c6c4" />

        </g>

        <path
   id="path3764"
   d="m 52.815,50.793 c 0.856,0.426 3.195,1.781 3.105,2.935 -1.003,1.02 -4.267,-1.53 -3.105,-2.935 z"
   style="fill:#ffffff" />

        <g
   id="g3768">
            <path
   id="path3766"
   d="m 52.815,50.793 c 0.856,0.426 3.195,1.781 3.105,2.935 -1.003,1.02 -4.267,-1.53 -3.105,-2.935 z"
   style="fill:#ffffff" />

        </g>

        <g
   id="g3842">
            <g
   id="g3772">
                <path
   id="path3770"
   d="m 53.969,53.498 c 0.222,0.052 0.272,0.273 0.546,0.272 2.091,-0.724 -0.636,-2.742 -0.546,-3 0.971,-2.666 1.882,-5.391 2.183,-8.727 4.408,-0.282 7.548,2.972 10.909,4.636 -0.016,1.167 -0.367,1.998 -0.546,3 17.608,-3.737 47.831,-1.902 50.181,15.545 0.391,2.905 0.083,6.733 -1.364,8.727 -1.898,-0.107 -2.333,-2.247 -3.545,-3.545 -4.923,-5.27 -17.408,-13.29 -25.091,-5.455 -5.251,-5.037 -19.248,-6.447 -25.635,-1.364 -1.546,4.727 -1.23,11.314 -3,15.818 -1.074,0.654 -3.148,0.306 -4.363,0.818 -2.537,2.296 -0.739,7.63 -0.818,11.454 C 36.22,96.853 21.728,81.909 31.608,68.223 37.413,61.848 44.596,55.399 53.969,53.498 Z"
   style="fill:#020303" />

            </g>

            <g
   id="g3776">
                <path
   id="path3774"
   d="m 56.969,44.498 c -0.347,1.107 -0.504,2.405 -0.545,3.818 0.84,0.191 0.524,0.191 1.363,0 -0.369,0.63 -1.096,0.903 -0.818,2.182 2.361,0.13 5.014,-3.857 2.728,-4.909 -0.75,0.522 -0.926,1.62 -1.636,2.182 0.367,-1.244 1.203,-3.525 -1.092,-3.273 z"
   style="fill:#020303" />

            </g>

            <g
   id="g3780">
                <path
   id="path3778"
   d="m 60.515,49.68 c -0.926,1.711 -4.815,0.457 -4.636,3.273 2.868,-0.222 5.65,-0.531 6,-3.273 -0.68,-0.03 -0.845,-0.511 -1.364,0 z"
   style="fill:#020303" />

            </g>

            <g
   id="g3784">
                <path
   id="path3782"
   d="m 44.97,64.134 c -0.142,6.164 4.12,11.678 9.272,12.545 0.104,-1.923 -2.002,-2.091 -3,-3 -2.745,-2.503 -3.849,-5.841 -5.454,-9.545 z"
   style="fill:#020303" />

            </g>

            <g
   id="g3788">
                <path
   id="path3786"
   d="m 45.788,75.315 c -1.169,-2.113 -1.842,-5.746 -2.728,-7.909 -0.111,-0.343 -0.352,-0.558 -0.818,-0.545 -1.166,2.207 0.364,6.199 1.637,8.727 1.227,2.437 3.486,5.876 6,5.454 -0.639,-2.528 -2.92,-3.608 -4.091,-5.727 z"
   style="fill:#020303" />

            </g>

            <g
   id="g3792">
                <path
   id="path3790"
   d="m 38.97,69.043 c -0.015,0.349 -0.35,0.377 -0.272,0.818 0.331,4.545 1.592,8.404 3.272,12 1.335,2.854 3.322,6.949 6.272,6.818 -0.111,-1.539 -1.343,-2.606 -2.182,-3.818 -3.029,-4.375 -5.256,-10.615 -6,-15.818 z"
   style="fill:#020303" />

            </g>

            <g
   id="g3796">
                <path
   id="path3794"
   d="m 35.97,70.407 c -0.938,3.005 -0.866,9.052 1.909,10.09 0.356,-3.054 -1.212,-6.865 -0.818,-10.09 z"
   style="fill:#020303" />

            </g>

            <g
   id="g3800">
                <path
   id="path3798"
   d="m 32.971,77.497 c 1.271,-0.687 0.992,-4.211 0.817,-5.454 -2.311,-0.333 -2.612,5.034 -0.817,5.454 z"
   style="fill:#020303" />

            </g>

            <g
   id="g3804">
                <path
   id="path3802"
   d="m 30.242,67.134 c -2.776,-0.932 -4.912,-2.82 -4.363,-7.091 1.238,-9.625 18.136,-13.094 27,-8.454 -9.623,3.105 -16.949,8.506 -22.637,15.545 z"
   style="fill:#020303" />

            </g>

            <g
   id="g3808">
                <path
   id="path3806"
   d="m 52.879,51.589 c 0.933,-0.024 0.158,1.66 1.09,1.636 v 0.273 c -9.373,1.901 -16.556,8.35 -22.362,14.727 0.829,-0.862 -1.161,-0.442 -1.364,-1.091 5.687,-7.039 13.013,-12.44 22.636,-15.545 z"
   style="fill:#c1c6c4" />

            </g>

            <g
   id="g3812">
                <path
   id="path3810"
   d="m 58.438,47.771 c 0.71,-0.563 0.886,-1.66 1.636,-2.182 2.286,1.052 -0.366,5.04 -2.728,4.909 -0.277,-1.278 0.449,-1.551 0.818,-2.182 -0.839,0.191 -0.523,0.191 -1.363,0 0.041,-1.414 0.198,-2.711 0.545,-3.818 2.296,-0.252 1.46,2.029 1.092,3.273 z"
   style="fill:#c1c6c4" />

            </g>

            <g
   id="g3816">
                <path
   id="path3814"
   d="m 40.061,69.043 c 0.744,5.203 2.971,11.442 6,15.818 0.839,1.211 2.07,2.279 2.182,3.818 -2.95,0.131 -4.938,-3.963 -6.272,-6.818 -1.681,-3.596 -2.941,-7.455 -3.272,-12 -0.077,-0.44 0.258,-0.469 0.272,-0.818 z"
   style="fill:#c1c6c4" />

            </g>

            <g
   id="g3820">
                <path
   id="path3818"
   d="m 37.061,70.407 c -0.394,3.226 1.175,7.036 0.818,10.09 -2.775,-1.039 -2.848,-7.085 -1.909,-10.09 z"
   style="fill:#c1c6c4" />

            </g>

            <g
   id="g3824">
                <path
   id="path3822"
   d="m 33.788,72.043 c 0.175,1.243 0.454,4.768 -0.817,5.454 -1.795,-0.42 -1.494,-5.787 0.817,-5.454 z"
   style="fill:#c1c6c4" />

            </g>

            <g
   id="g3828">
                <path
   id="path3826"
   d="m 49.879,81.042 c -2.514,0.422 -4.773,-3.018 -6,-5.454 -1.272,-2.528 -2.803,-6.521 -1.637,-8.727 0.467,-0.012 0.707,0.203 0.818,0.545 0.886,2.163 1.559,5.795 2.728,7.909 1.171,2.119 3.452,3.199 4.091,5.727 z"
   style="fill:#c1c6c4" />

            </g>

            <g
   id="g3832">
                <path
   id="path3830"
   d="m 62.867,50.069 c -0.35,2.742 -3.132,3.051 -6,3.273 -0.18,-2.816 3.71,-1.562 4.636,-3.273 0.519,-0.511 0.685,-0.03 1.364,0 z"
   style="fill:#c1c6c4" />

            </g>

            <g
   id="g3836">
                <path
   id="path3834"
   d="m 45.788,64.134 c 1.605,3.705 2.709,7.042 5.454,9.545 0.998,0.909 3.104,1.077 3,3 C 49.09,75.812 44.828,70.298 44.97,64.134 Z"
   style="fill:#c1c6c4" />

            </g>

            <g
   id="g3840">
                <path
   id="path3838"
   d="m 52.815,50.793 c 0.856,0.426 3.195,1.781 3.105,2.935 -1.003,1.02 -4.267,-1.53 -3.105,-2.935 z"
   style="fill:#ffffff" />

            </g>

        </g>

        <path
   id="path3844"
   d="m 70,143 15,0.625 c 0,0 3.741,7.806 -0.568,10.5 -5.307,0.25 -14.432,0.5 -14.432,0.5 z"
   style="fill:#ffffff;fill-rule:nonzero" />

        <g
   id="g3848">
            <path
   id="path3846"
   d="m 70,143 15,0.625 c 0,0 3.741,7.806 -0.568,10.5 -5.307,0.25 -14.432,0.5 -14.432,0.5 z"
   style="fill:#ffffff;fill-rule:nonzero" />

        </g>

        <path
   id="path3850"
   d="m 69.138,152.751 h 13.1 c 0.934,0 1.699,-0.301 2.299,-0.9 0.734,-0.732 1.102,-1.799 1.102,-3.199 0,-1.467 -0.367,-2.566 -1.102,-3.301 -0.6,-0.533 -1.365,-0.801 -2.299,-0.801 h -13.1 v -3.1 h 13.199 c 1.666,0 3.033,0.533 4.1,1.6 1.201,1.201 1.801,3.068 1.801,5.602 0,2.467 -0.6,4.299 -1.801,5.5 l -1.299,1 -2.5,0.6 h -13.5 v -3.001"
   style="fill:#010202;fill-rule:nonzero" />

        <g
   id="g3858">
            <path
   id="path3852"
   d="m 69.138,152.751 h 13.1 c 0.934,0 1.699,-0.301 2.299,-0.9 0.734,-0.732 1.102,-1.799 1.102,-3.199 0,-1.467 -0.367,-2.566 -1.102,-3.301 -0.6,-0.533 -1.365,-0.801 -2.299,-0.801 h -13.1 v -3.1 h 13.199 c 1.666,0 3.033,0.533 4.1,1.6 1.201,1.201 1.801,3.068 1.801,5.602 0,2.467 -0.6,4.299 -1.801,5.5 l -1.299,1 -2.5,0.6 h -13.5 v -3.001"
   style="fill:#010202;fill-rule:nonzero" />

        </g>

        <path
   id="path3854"
   d="m 63.061,114.458 14.857,11.572 c 0,0 2.571,7.714 10.143,2.143 0,0 5.571,-3.572 0.571,-10 0,0 -1.714,-0.858 -3.714,-0.286 l -9.714,-7.429"
   style="fill:none;stroke:#000000;stroke-width:2.4px" />

        <path
   id="path3856"
   d="m 107.775,106.744 6.286,-5 c 0,0 2.428,-4.571 7.428,-2.429 0,0 4.857,1.429 4.715,9 0,0 -1,5.715 -7.429,3.143 l -13.143,7.286"
   style="fill:none;stroke:#000000;stroke-width:2.4px" />

    </g>
  </g>
</svg>
