<svg height="182" width="160" xmlns:xlink="http://www.w3.org/1999/xlink" xmlns="http://www.w3.org/2000/svg"><defs><linearGradient xlink:href="#b" id="e" gradientUnits="userSpaceOnUse" gradientTransform="matrix(-.0157 -.0091 .0025 -.0044 -107.85 7.65)" x1="-819.2" x2="819.2" spreadMethod="pad"/><linearGradient gradientTransform="matrix(-.0157 -.0091 .0025 -.0044 -107.85 7.65)" gradientUnits="userSpaceOnUse" id="b" spreadMethod="pad" x1="-819.2" x2="819.2"><stop offset=".204" stop-color="#ccc"/><stop offset=".804" stop-color="#e7e7e7"/><stop offset="1" stop-color="#fff"/></linearGradient><linearGradient xlink:href="#c" id="f" gradientUnits="userSpaceOnUse" gradientTransform="matrix(.0283 0 0 .0102 -104.45 -.65)" x1="-819.2" x2="819.2" spreadMethod="pad"/><linearGradient gradientTransform="matrix(.0283 0 0 .0102 -104.45 -.65)" gradientUnits="userSpaceOnUse" id="c" spreadMethod="pad" x1="-819.2" x2="819.2"><stop offset=".004" stop-color="#fff"/><stop offset=".18" stop-color="#d10101"/><stop offset=".557" stop-color="#fe3636"/><stop offset=".906" stop-color="#fff"/></linearGradient><radialGradient xlink:href="#a" id="d" gradientUnits="userSpaceOnUse" gradientTransform="translate(2.6 -.2) scale(.0086)" cx="0" cy="0" r="819.2" spreadMethod="pad"/><radialGradient cx="0" cy="0" gradientTransform="translate(2.6 -.2) scale(.0086)" gradientUnits="userSpaceOnUse" id="a" r="819.2" spreadMethod="pad"><stop offset=".204" stop-color="#ccc"/><stop offset=".757" stop-color="#e7e7e7"/><stop offset="1" stop-color="#fff"/></radialGradient></defs><path d="m58.358 66.2-1.446 2.355-4.134 5.646-1.373 6.523 1.437 4.559 3.337 6.156.156.694-.545 1.5-.894 2.974-4.246 4.09-3.906 5.122-.5 3.498 1.623 3.06 3.37 1.125 4.06-.001 3.199-1.351-.068 2.416.33 4.422.541 1.611.629 1.467.46.816.394 2.176 3.588 4.185 3.912 2.665 3.724 2.895 3.66-2.2 2.459-5.414-1.192-3.29-1.823-1.467 1.304-.924 11.663-.023 5.318 1.415-.995 1.1.266 8.853.29 3.401 1.724 3.292 3.534.704 2.85-.376 2.781-3.047 1.06-5.79-.397-7.27-1.183-.83 1.533-10.687 3.465 1.396 4.837-.663 2.05-2.8.483-3.778-1.723-4.305-2.448-2.492-5.326-5.745-.166-2.437 2.835-.964 3.977-6.408.133-6.317-.969-3.683-2.254-4.107-1.983-1.65-2.82-1.393-8.526-18.03-1.081 1.018-8.066 16.618-11.82.173-8.575-17.368-1.195 1.258z" fill="#fff"/><circle cx="68.024" cy="78.852" r="2.118"/><circle cx="101.399" cy="78.901" r="2.118"/><path d="M58.919 75.731h-1.75l2.64-4.23h2.84zM81.872 77.7l-1.138 2.637-.482 2.744-.03 2.498.654 1.998 1.138.857 1.58.063s.89-.906.968-1.061c.078-.156.594-1.155.594-1.155s.078-2.2.078-2.385l.013-3.183h2.275l-.031 2.722-.042 2.619.19.95.59.871.739.517 1.075.125 1.295-.485.827-1.17.453-1.946s-.077-1.516-.077-1.685c0-.17-.281-1.824-.281-1.824s-.732-2.06-.793-2.212a82.042 82.042 0 0 0-.784-1.598l2.17.003s.659 1.39.765 1.557c.106.168.59 1.684.59 1.684l.264 1.589.14 1.95-.139 1.834-.513 1.48-.81 1.276-1.092.897-.99.4-1.39.107-1.214-.25-.934-.672-.795-1.107-.466-.779-.965 1.588-.967.796-1.635.422-1.872-.201-1.62-1.42s-.907-1.294-1-1.98c-.093-.687-.25-2.203-.25-2.203l.079-2.118s.314-1.797.405-1.934c.092-.136.802-1.8.802-1.8l.67-1.089zm27.975-.993h-1.688l-3.633-4.08h2.876zm-6.105-9.219 2.398-1.112L95.808 46.9 86.23 65.476l-9.803.005-9.705-20.953-9.979 21.65 2.37 1.171 7.595-17.034 7.868 17.26 13.611-.212 7.78-17.199z"/><path d="m107.774 67.578 3.162 3.641 1.79 3.046.872 2.638.172 1.791.048 2.78-.413 2.408s-.591 1.647-.97 2.434c-.292.61-.628 1.2-1.002 1.762-.676 1.017-1.45 1.967-2.234 2.902-.461.551-1.452 1.594-1.452 1.594l-1.717-1.327 2.199-2.23 1.56-2.061 1.156-2.31.593-2.09.214-2.248-.187-2.747-.778-2.7-1.03-1.794-1.371-1.681-2.368-2.512zM56.736 92.786l1.792-1.191-2.506-2.741-1.875-2.97-.74-2.088-.337-1.7-.07-2.188.134-2.571.509-2.214 1.17-2.263 1.29-1.6 1.38-1.688 1.137-1.125-1.636-1.324-1.402 1.532-1.622 1.888-1.104 1.81-1.24 2.65L50.9 77.4l-.118 1.844-.02 2.021.132 1.423.72 2.529.86 1.942 1.358 2.063s1.015 1.379 1.558 2.04c.43.524 1.345 1.524 1.345 1.524zm-.946.667 1.672 1.96-3.569 3.168-2.525 2.463-1.609 1.658-1.42 1.766-.842 1.603-.342 1.341-.065 1.246.173.82.527.93.703.951.907.658 1.557.436s1.143.23 1.327.23c.184 0 1.51-.264 1.51-.264l1.405-.516 1.449-.861 1.604-1.6 1.418-1.988s1.049-1.7 1.122-1.84c.074-.14.354-.624.354-.624l1.897 2.024-1.343 2.022-1.376 1.719-1.14.966-2.608 1.998-1.715.765-1.321.265-2.153.095-1.868-.311s-1.372-.636-1.542-.682c-.17-.046-1.435-1.295-1.435-1.295l-.961-1.506-.515-1.416-.001-1.372.172-1.62.45-1.322.874-1.526 1.092-1.78 1.746-1.96 2.088-2.225 1.909-1.944zm48.691 1.555 1.67-2.075 4.64 4.685 2.998 3.329 1.594 2.292 1.325 2.449.34 1.934-.156 1.954-.733 1.512-1.013 1.403-1.608 1.124-1.358.608-2.137.433-1.635-.057-1.89-.623-1.81-1.201-2.289-1.9-1.475-1.556 1.768-1.79 1.546 2.11 1.483 1.401 1.749.966 1.37.357 1.544-.02 1.448-.389 1.274-.76.822-.843.833-1.427.248-1.12-.266-1.631-.611-1.371-1.204-1.828-1.279-1.45-1.43-1.51-2.045-1.796-2.34-1.979zm-1.156 27.93v11.12l-.421 1.804-.859 1.566-.95.926-1.282.706-1.097.155-1.452-.063-1.46-.547-1.14-.988-.654-1.364-.528-1.767-.087-1.365V122.9h-2.39v11.123l.18 1.686.606 1.731.857 1.545 1.094 1.125 1.154.954 1.45.563 1.75.292 1.508-.076 1.246-.437 1.262-.703 1.636-1.42 1.063-1.702.609-1.886.265-1.996v-10.764zm-31.546-2.683 3.276 3.277 1.113 1.695.638 1.925-.02 1.787-.639 1.32-1.703 1.67-1.274.439-1.635-.018-1.777-.655-1.318-.755-8.054-8.055-1.703 1.703 7.792 7.792 1.334 1.007 1.22.67 1.577.626 1.4.12 1.611-.048 1.136-.386 1.368-.506 1.206-.946.93-1.27.716-1.425.339-2.237-.188-1.887-.86-2.073-1.273-1.958-3.494-3.494z"/><g fill-rule="evenodd"><path d="M4.9-4.95Q7-2.9 7 0q0 2.9-2.1 4.9Q2.9 7 0 7q-2.9 0-4.95-2.1Q-7 2.9-7 0q0-2.9 2.05-4.95Q-2.9-7 0-7q2.9 0 4.9 2.05" fill="url(#a)" transform="matrix(-2.0024 0 0 2.0016 55.476 52.73)" style="fill:url(#d)"/><path d="M54.575 37.717q-1.001-.4-1.602.601-.6 1 .3 1.501l1.202-.1h.2q.901.6 1.502-.5.6-1.201-.3-1.502l-1.002.1-.3-.1m-2.703.3q-1.002-.5-1.703.701-.6 1.201.3 1.802.802.6 1.603-.7.7-1.302-.2-1.802m-3.104 1.701q-.901-.7-1.602.4-.801 1.001.3 1.602 1.102.6 1.602-.4.6-1.001-.3-1.602m-7.81 6.605q-.5 1.001.4 1.401.902.601 1.503-.5.6-1.2-.3-1.501-.902-.3-1.603.6m4.306-2.201q.6-1.101-.4-1.702-.902-.7-1.703.5-.7 1.001.4 1.702 1.202.7 1.703-.5m-2.804 6.905q.701-1.2-.2-1.701-.901-.6-1.502.6-.7 1.101.1 1.802.901.5 1.602-.7m.5 4.703q.702-1.301-.5-2.202-1.101-.8-2.102.6-1.001 1.302.5 2.102 1.402.8 2.103-.5m-1.302 1.601q-.4.7.3 1.101.601.4.902-.3.4-.6-.2-1.001l-1.002.2m3.204 2.802q-1.101-.4-1.602.6-.7 1.002.3 1.502.902.6 1.602-.6.601-1.201-.3-1.502m7.51 7.106q1.1.6 1.701-.4.4-1.101-.4-1.702-1.002-.6-1.702.4-.701 1.002.4 1.702m-3.804-.7q1.301.8 1.902-.4.7-1.202-.4-2.002-1.002-.701-1.903.5-.901 1.301.4 1.902m-1.301-2.502q.4-.701-.1-1.101-.6-.3-1.001.4-.4.7.2 1.1.5.301.901-.4M59.08 39.82q.6.4 1.001-.2l-.3-1.1-.901.3q-.5.6.2 1m3.304 1.501q1.001.6 1.602-.4.5-.9-.3-1.601-.901-.5-1.602.4-.801 1 .3 1.601m1.302.801q-.701 1.201.3 1.902.901.7 1.602-.701.8-1.301-.2-1.902-.901-.5-1.702.701m2.803 3.203q.6.4 1.001-.4.3-.801-.2-.901-.7-.2-1.001.4-.4.5.2.9m1.302 2.302q-.901 1.301.5 2.002 1.402.8 2.003-.5.6-1.301-.501-2.002-1.101-.7-2.002.5m.7 3.303q-.9 1.201.4 1.902 1.202.7 1.903-.4.6-1.202-.4-2.002-1.102-.7-1.903.5m1.602 5.204q.701-1.3-.2-1.901-1.001-.5-1.702.7-.6 1.201.3 1.902.801.5 1.602-.7m-4.906 4.903q-.7 1.101.401 1.701 1.101.601 1.702-.4.4-1.1-.4-1.701-1.002-.6-1.703.4m1.402-.9q1.202.7 1.902-.801.801-1.501-.4-1.902-1.201-.4-1.902.8-.801 1.102.4 1.902m-2.102 2.703q-1.202-.901-2.203.5t.4 2.302q1.502.8 2.203-.6.801-1.302-.4-2.202m-8.21 4.503q.6.3.9-.4.401-.7-.2-.8-.5-.301-.9.3-.4.5.2.9m4.005 0q.9.5 1.501-.6.701-1.201-.1-1.702-.9-.5-1.602.6-.6 1.102.2 1.702" fill="#fff"/></g><path d="M-92.95 7.75q.95 1.6-.55 4.05-14.6-4-29.2-4.25l.5-4h.05-.05.05l29.2 4.2" fill="url(#b)" fill-rule="evenodd" transform="matrix(-2.0024 0 0 2.0016 -137.055 51.529)" style="fill:url(#e)"/><path d="M-122.15 3.55Q-114.6-5.5-100.5-9q7.3 3 8.05 9.6.75 6.55-1.5 2.05-2.3-4.55-2-2.85l3 7.95-29.2-4.2" fill="url(#c)" fill-rule="evenodd" transform="matrix(-2.0024 0 0 2.0016 -137.055 51.529)" style="fill:url(#f)"/><path d="M-92.95 7.75q.95 1.6-.55 4.05-14.6-4-29.2-4.25l.5-4h.05l29.2 4.2m-29.25-4.2h.05" fill="none" stroke="#fff" stroke-linecap="round" stroke-linejoin="round" transform="matrix(-2.0024 0 0 2.0016 -137.055 51.529)"/><path d="M-122.15 3.55Q-114.6-5.5-100.5-9q7.3 3 8.05 9.6.75 6.55-1.5 2.05-2.3-4.55-2-2.85l3 7.95z" fill="none" stroke="red" stroke-linecap="round" stroke-linejoin="round" transform="matrix(-2.0024 0 0 2.0016 -137.055 51.529)"/></svg>