<?xml version="1.0" encoding="UTF-8" standalone="no"?>
<svg
   xmlns:dc="http://purl.org/dc/elements/1.1/"
   xmlns:cc="http://creativecommons.org/ns#"
   xmlns:rdf="http://www.w3.org/1999/02/22-rdf-syntax-ns#"
   xmlns:svg="http://www.w3.org/2000/svg"
   xmlns="http://www.w3.org/2000/svg"
   xmlns:xlink="http://www.w3.org/1999/xlink"
   xmlns:sodipodi="http://sodipodi.sourceforge.net/DTD/sodipodi-0.dtd"
   xmlns:inkscape="http://www.inkscape.org/namespaces/inkscape"
   height="182"
   width="160"
   version="1.1"
   id="svg4780"
   sodipodi:docname="front-walking-1.svg"
   inkscape:version="1.0.2-2 (e86c870879, 2021-01-15)">
  <metadata
     id="metadata4784">
    <rdf:RDF>
      <cc:Work
         rdf:about="">
        <dc:format>image/svg+xml</dc:format>
        <dc:type
           rdf:resource="http://purl.org/dc/dcmitype/StillImage" />
        <dc:title></dc:title>
      </cc:Work>
    </rdf:RDF>
  </metadata>
  <sodipodi:namedview
     pagecolor="#ff0000"
     bordercolor="#666666"
     borderopacity="1"
     objecttolerance="10"
     gridtolerance="10"
     guidetolerance="10"
     inkscape:pageopacity="0"
     inkscape:pageshadow="2"
     inkscape:window-width="1920"
     inkscape:window-height="996"
     id="namedview4782"
     showgrid="false"
     inkscape:snap-nodes="false"
     inkscape:zoom="4.4285714"
     inkscape:cx="64.741413"
     inkscape:cy="73.213546"
     inkscape:window-x="-8"
     inkscape:window-y="-8"
     inkscape:window-maximized="1"
     inkscape:current-layer="svg4780"
     inkscape:pagecheckerboard="true" />
  <defs
     id="defs4772">
    <g
       id="c">
      <path
         d="M10.75-56.05v-.05H4.5v3.9l-.05 1.1L4-48.65l-1.05 2H2v3.3h1.35v-1.95h7.2v1.95h1.4v-3.3h-1.2v-9.4M.4-60h3.9l1.2.55 3.85-8.6 3.9 8.6L14.5-60l3.15 3.05 1.1 1.1-1.1-1.1 1.15 1.1h-.05l-.35.4.1.1q2.1 2.05 2.3 4.55l.05.6q0 1.65-.8 3.1l-.25.45-1.4 1.7.1.1-.3.3-3.25.9v4.7l-3.25.7-3.15.9.65 1.6L12.55-37l3-.6q1.55 0 2.15.6.8.8.8 2 0 1.1-.75 1.85-1.05 1.05-4.1 1.25l-1.25.05.35 1.5 1.5-.05-.05 2.75-1.5 1.25v8.75H8.15v1.55h6.6l1.15.4q.55.55.55 1.65 0 1.05-.55 1.6-.45.45-1.15.45h-6.6v.95H-1.6l-1.55 1.5V-3q0 .7-.45 1.15-.55.55-1.6.55-1.1 0-1.65-.55-.4-.45-.4-1.15v-6.55H-8.8l-1.7-1.1-1.75-3.9v-2.4h.15v-1.5l.45-.4.2-.15 1.15-1.4-1.25-1-.7.95.4-10.95 1.75-12.8.4.35.75-.7-1-1.1q-1.45-1.85-1.5-4v-.25l.05-.9q.35-2.3 2.45-4.25l-.75-.75.5-3.95.65.3 3.85-8.6 3.85 8.6L.4-60m5.45 8.85v-3.6h3.5v8.15H4.4l.05-.05.5-.9.9-3.55v-.05m-.35 13.2Q4.45-39 2.25-39l-4 .75-3.1.9.65 1.6L-.9-37l3-.6q1.55 0 2.15.6.8.8.8 2 0 1.1-.75 1.85Q3.25-32.1.25-31.9l-1.3.05.35 1.5q3.95-.05 5.9-1.55l.4-.35q1-1 1-2.85 0-1.8-1.1-2.85M-7.15-43.6l.75-1.55v-1.35h-1.5v1.45h.55l-.55 1.45h.75m3.65-2.9H-5v1.45h.55L-5-43.6h.75l.75-1.55v-1.35"
         fill="#fff"
         fill-rule="evenodd"
         transform="translate(21.5 71)"
         id="path4758" />
      <path
         d="M10.75-56.05v9.45h1.2v3.25h-1.4v-1.95h-7.2v1.95H2v-3.25h.95L4-48.65l.45-2.45.05-1.1v-3.85h6.25M.4-60l-1.25.55-3.85-8.6-3.85 8.6-.65-.3-.55-.25 5.05-11L.4-60m-10.1 4.2l.75.75q-2.1 1.95-2.45 4.25l-.05.9v.25q.05 2.15 1.5 4l1 1.1-.75.7-.4-.35-.6-.7-.75-1.05q-1.1-1.75-1.05-3.85l.05-1q.2-1.5 1-2.85l1.75-2.15m-2.55 35.35l.7-.95 1.25 1-1.15 1.4-.2.15-.45.4q-.7.45-1.6.45-.95 0-2.65-1.1-1.2-.65-1.9-.65-.9 0-1.3.55l-.15.2-.45.75-1.35-.75q.4-.95 1.2-1.65l.6-.45 1.35-.35q1.1 0 2.25.8 1.65.85 2.55.85.6 0 1.3-.65m3.45 10.9h1.55V-3q0 .7.4 1.15.55.55 1.65.55 1.05 0 1.6-.55.45-.45.45-1.15v-6.55h1.5v6.6q0 1.25-.8 2.05-.9.9-2.75.9Q-7.1 0-8-.9q-.8-.8-.8-2.05v-6.6m16.95-1.5V-12h6.6q.7 0 1.15-.45.55-.55.55-1.6 0-1.1-.55-1.65l-1.15-.4h-6.6v-1.55h6.65q1.25 0 2.05.8.9.9.9 2.8 0 1.85-.9 2.75l-.3.25q-.75.55-1.75.55H8.15v-.55m6.1-19.35l-1.5.05-.35-1.5 1.25-.05q3.05-.2 4.1-1.25.75-.75.75-1.85 0-1.2-.8-2-.6-.6-2.15-.6l-3 .6-3.35 1.25-.65-1.6 3.15-.9 3.25-.7.75-.05q2.2 0 3.25 1.05 1.1 1.05 1.1 2.85 0 1.85-1 2.85l-.4.35q-1.6 1.2-4.4 1.5m4.25-14.45l-.1-.1 1.4-1.7.25-.45q.8-1.45.8-3.1l-.05-.6q-.2-2.5-2.3-4.55l-.1-.1.35-.4h.05l.3-.35q2.55 2.35 2.75 5.4l.05.6q0 1.9-.9 3.55-.7 1.25-1.9 2.4l-.6-.6M14.5-60l-1.25.55-3.9-8.6-3.85 8.6L4.3-60l5.05-11 5.15 11m-8.65 8.85v.05l-.9 3.55-.5.9-.05.05h4.95v-8.15h-3.5v3.6m-.35 13.2q1.1 1.05 1.1 2.85 0 1.85-1 2.85l-.4.35q-1.95 1.5-5.9 1.55l-.35-1.5 1.3-.05q3-.2 4.05-1.25.75-.75.75-1.85 0-1.2-.8-2-.6-.6-2.15-.6l-3 .6-3.3 1.25-.65-1.6 3.1-.9 4-.75q2.2 0 3.25 1.05m-9-8.55v1.35l-.75 1.55H-5l.55-1.45H-5v-1.45h1.5m-3.65 2.9h-.75l.55-1.45h-.55v-1.45h1.5v1.35l-.75 1.55"
         fill-rule="evenodd"
         transform="translate(21.5 71)"
         id="path4760" />
      <path
         d="M4.3-60H.4m12.3 39.65v-6.05m6.05-29.45l-1.1-1.1"
         fill="none"
         stroke="#000"
         stroke-linecap="round"
         stroke-linejoin="round"
         transform="translate(21.5 71)"
         id="path4762" />
    </g>
    <g
       id="d"
       transform="translate(.8)">
      <use
         height="3"
         transform="matrix(1.005 0 0 1 -.804 0)"
         width="4.65"
         xlink:href="#a"
         id="use4765" />
      <use
         height="3"
         transform="matrix(1.005 0 0 1 16.096 0)"
         width="4.65"
         xlink:href="#a"
         id="use4767" />
    </g>
    <path
       d="M1.35 0h.2l.55.1.45.35q.45.45.45 1L2.55 2.6q-.45.4-1 .4l-.8-.2-.25-.2-.45-.7v-.15L0 1.45v-.1q.05-.5.5-.9l.25-.2Q1 .05 1.3 0h.05m.45.85L1.55.8Q1.2.75 1 1q-.2.15-.2.45v.15l.15.45H1l.05.05.2.1.3.05.55-.2.15-.6-.05-.3L2.1 1 2.05.95 1.9.85h-.1"
       fill-rule="evenodd"
       id="b" />
    <use
       height="3"
       transform="translate(.8)"
       width="3"
       xlink:href="#b"
       id="a" />
    <linearGradient
       inkscape:collect="always"
       xlink:href="#linearGradient3076"
       id="linearGradient3078"
       x1="52.160427"
       y1="82.432098"
       x2="110.0822"
       y2="83.281281"
       gradientUnits="userSpaceOnUse"
       gradientTransform="matrix(1.0015129,0,0,1,0.00463939,2.026317)" />
    <linearGradient
       inkscape:collect="always"
       id="linearGradient3076">
      <stop
         style="stop-color:#9f7635;stop-opacity:1"
         offset="0"
         id="stop3072" />
      <stop
         style="stop-color:#d2ad65;stop-opacity:1"
         offset="1"
         id="stop3074" />
    </linearGradient>
  </defs>
  <g
     transform="matrix(2 0 0 2 79.341 142)"
     id="g4778">
    <g
       id="use4774"
       transform="translate(-21.5,-71)">
      <path
         d="M 10.75,-56.05 V -56.1 H 4.5 v 3.9 l -0.05,1.1 -0.45,2.45 -1.05,2 H 2 v 3.3 h 1.35 v -1.95 h 7.2 v 1.95 h 1.4 v -3.3 h -1.2 v -9.4 M 0.4,-60 h 3.9 l 1.2,0.55 3.85,-8.6 3.9,8.6 1.25,-0.55 3.15,3.05 1.1,1.1 -1.1,-1.1 1.15,1.1 h -0.05 l -0.35,0.4 0.1,0.1 c 1.4,1.366667 2.166667,2.883333 2.3,4.55 l 0.05,0.6 c 0,1.1 -0.266667,2.133333 -0.8,3.1 l -0.25,0.45 -1.4,1.7 0.1,0.1 -0.3,0.3 -3.25,0.9 v 4.7 l -3.25,0.7 0.632258,6.262903 L 9.2,-35.75 12.55,-37 l 3,-0.6 c 1.033333,0 -1.75,2.627419 -1.35,3.027419 C 14.733333,-34.039247 18.5,-35.8 18.5,-35 c 0,0.733333 -0.25,1.35 -0.75,1.85 -0.7,0.7 -2.066667,1.116667 -4.1,1.25 l -1.25,0.05 0.35,1.5 1.5,-0.05 -0.05,2.75 -1.5,1.25 v 8.75 H 8.15 v 1.55 h 6.6 l 1.15,0.4 c 0.366667,0.366667 0.55,0.916667 0.55,1.65 0,0.7 -0.183333,1.233333 -0.55,1.6 -0.3,0.3 -0.683333,0.45 -1.15,0.45 h -6.6 v 0.95 H -1.6 l -1.55,1.5 V -3 c 0,0.4666667 -0.15,0.85 -0.45,1.15 -0.3666667,0.3666667 -0.9,0.55 -1.6,0.55 -0.7333333,0 -1.2833333,-0.1833333 -1.65,-0.55 -0.2666667,-0.3 -0.4,-0.6833333 -0.4,-1.15 V -9.55 H -8.8 l -1.7,-1.1 -1.75,-3.9 v -2.4 h 0.15 v -1.5 l 0.45,-0.4 0.2,-0.15 1.15,-1.4 -1.25,-1 -0.7,0.95 0.4,-10.95 1.75,-12.8 0.4,0.35 0.75,-0.7 -1,-1.1 c -0.966667,-1.233333 -1.466667,-2.566667 -1.5,-4 v -0.25 l 0.05,-0.9 c 0.233333,-1.533333 1.05,-2.95 2.45,-4.25 l -0.75,-0.75 0.5,-3.95 0.65,0.3 3.85,-8.6 3.85,8.6 L 0.4,-60 m 5.45,8.85 v -3.6 h 3.5 v 8.15 H 4.4 l 0.05,-0.05 0.5,-0.9 0.9,-3.55 v -0.05 M 5.5,-37.95 C 4.8,-38.65 3.7166667,-39 2.25,-39 l -4,0.75 -3.1,0.9 0.65,1.6 3.3,-1.25 3,-0.6 c 1.0333333,0 1.75,0.2 2.15,0.6 0.5333333,0.533333 0.8,1.2 0.8,2 0,0.733333 -0.25,1.35 -0.75,1.85 -0.7,0.7 -2.05,1.116667 -4.05,1.25 l -1.3,0.05 0.35,1.5 c 2.6333333,-0.03333 4.6,-0.55 5.9,-1.55 l 0.4,-0.35 c 0.6666667,-0.666667 1,-1.616667 1,-2.85 0,-1.2 -0.3666667,-2.15 -1.1,-2.85 m -12.65,-5.65 0.75,-1.55 v -1.35 h -1.5 v 1.45 h 0.55 l -0.55,1.45 h 0.75 m 3.65,-2.9 H -5 v 1.45 h 0.55 L -5,-43.6 h 0.75 l 0.75,-1.55 v -1.35"
         fill="#ffffff"
         fill-rule="evenodd"
         transform="translate(21.5,71)"
         id="path5056"
         sodipodi:nodetypes="ccccccccccccccccccccccccccccccccccccccccccccssscccccccccccsssccccssscscccccccccccccccccccccccccccccccccccccccccccssscccccsccccccccccccccccc" />
      <path
         d="m 10.75,-56.05 v 9.45 h 1.2 v 3.25 h -1.4 v -1.95 h -7.2 v 1.95 H 2 V -46.6 H 2.95 L 4,-48.65 4.45,-51.1 4.5,-52.2 v -3.85 h 6.25 M 0.4,-60 l -1.25,0.55 -3.85,-8.6 -3.85,8.6 -0.65,-0.3 -0.55,-0.25 5.05,-11 5.1,11 m -10.1,4.2 0.75,0.75 c -1.4,1.3 -2.216667,2.716667 -2.45,4.25 l -0.05,0.9 v 0.25 c 0.03333,1.433333 0.533333,2.766667 1.5,4 l 1,1.1 -0.75,0.7 -0.4,-0.35 -0.6,-0.7 -0.75,-1.05 c -0.733333,-1.166667 -1.083333,-2.45 -1.05,-3.85 l 0.05,-1 c 0.133333,-1 0.466667,-1.95 1,-2.85 l 1.75,-2.15 m -2.55,35.35 0.7,-0.95 1.25,1 -1.15,1.4 -0.2,0.15 -0.45,0.4 c -0.466667,0.3 -1,0.45 -1.6,0.45 -0.633333,0 -1.516667,-0.366667 -2.65,-1.1 -0.8,-0.433333 -1.433333,-0.65 -1.9,-0.65 -0.6,0 -1.033333,0.183333 -1.3,0.55 l -0.15,0.2 -0.45,0.75 -1.35,-0.75 c 0.266667,-0.633333 0.666667,-1.183333 1.2,-1.65 l 0.6,-0.45 1.35,-0.35 c 0.733333,0 1.483333,0.266667 2.25,0.8 1.1,0.566667 1.95,0.85 2.55,0.85 0.4,0 0.833333,-0.216667 1.3,-0.65 m 3.45,10.9 h 1.55 V -3 c 0,0.4666667 0.1333333,0.85 0.4,1.15 0.3666667,0.3666667 0.9166667,0.55 1.65,0.55 0.7,0 1.2333333,-0.1833333 1.6,-0.55 0.3,-0.3 0.45,-0.6833333 0.45,-1.15 v -6.55 h 1.5 v 6.6 c 0,0.8333333 -0.2666667,1.5166667 -0.8,2.05 C -3.05,-0.3 -3.9666667,0 -5.2,0 -6.4666667,0 -7.4,-0.3 -8,-0.9 -8.5333333,-1.4333333 -8.8,-2.1166667 -8.8,-2.95 v -6.6 m 16.95,-1.5 V -12 h 6.6 c 0.466667,0 0.85,-0.15 1.15,-0.45 0.366667,-0.366667 0.55,-0.9 0.55,-1.6 0,-0.733333 -0.183333,-1.283333 -0.55,-1.65 l -1.15,-0.4 h -6.6 v -1.55 h 6.65 c 0.833333,0 1.516667,0.266667 2.05,0.8 0.6,0.6 0.9,1.533333 0.9,2.8 0,1.233333 -0.3,2.15 -0.9,2.75 l -0.3,0.25 c -0.5,0.366667 -1.083333,0.55 -1.75,0.55 H 8.15 v -0.55 m 10.35,-33.8 -0.1,-0.1 1.4,-1.7 0.25,-0.45 c 0.533333,-0.966667 0.8,-2 0.8,-3.1 l -0.05,-0.6 c -0.133333,-1.666667 -0.9,-3.183333 -2.3,-4.55 l -0.1,-0.1 0.35,-0.4 h 0.05 l 0.3,-0.35 c 1.7,1.566667 2.616667,3.366667 2.75,5.4 l 0.05,0.6 c 0,1.266667 -0.3,2.45 -0.9,3.55 -0.466667,0.833333 -1.1,1.633333 -1.9,2.4 l -0.6,-0.6 m -4,-15.15 -1.25,0.55 -3.9,-8.6 -3.85,8.6 -1.2,-0.55 5.05,-11 5.15,11 m -8.65,8.85 v 0.05 l -0.9,3.55 -0.5,0.9 -0.05,0.05 h 4.95 v -8.15 h -3.5 v 3.6 m -0.35,13.2 c 0.7333333,0.7 1.1,1.65 1.1,2.85 0,1.233333 -0.3333333,2.183333 -1,2.85 l -0.4,0.35 c -1.3,1 -3.2666667,1.516667 -5.9,1.55 l -0.35,-1.5 1.3,-0.05 c 2,-0.133333 3.35,-0.55 4.05,-1.25 0.5,-0.5 0.75,-1.116667 0.75,-1.85 0,-0.8 -0.2666667,-1.466667 -0.8,-2 -0.4,-0.4 -1.1166667,-0.6 -2.15,-0.6 l -3,0.6 -3.3,1.25 -0.65,-1.6 3.1,-0.9 4,-0.75 c 1.4666667,0 2.55,0.35 3.25,1.05 m -9,-8.55 v 1.35 l -0.75,1.55 H -5 l 0.55,-1.45 H -5 v -1.45 h 1.5 m -3.65,2.9 H -7.9 l 0.55,-1.45 H -7.9 v -1.45 h 1.5 v 1.35 l -0.75,1.55"
         fill-rule="evenodd"
         transform="translate(21.5,71)"
         id="path5058"
         sodipodi:nodetypes="cccccccccccccccccccccccccccccccccccccccccccccscsccccccccscccscsssccssssscccsssccccsssccscccccccccccccccccccccccccccccccccccscccccsssccccccccccccccccccccccc" />
      <path
         d="M 4.3,-60 H 0.4 m 12.3,39.65 v -6.05 m 6.05,-29.45 -1.1,-1.1"
         fill="none"
         stroke="#000000"
         stroke-linecap="round"
         stroke-linejoin="round"
         transform="translate(21.5,71)"
         id="path5060" />
    </g>
    <g
       id="use4776"
       transform="translate(-3,-57.5)">
      <path
         d="m 1.35675,0 h 0.201 L 2.1105,0.1 2.56275,0.45 Q 3.015,0.9 3.015,1.45 L 2.56275,2.6 Q 2.1105,3 1.55775,3 L 0.75375,2.8 0.5025,2.6 0.05025,1.9 V 1.75 L 0,1.45 V 1.35 Q 0.05025,0.85 0.5025,0.45 L 0.75375,0.25 Q 1.005,0.05 1.3065,0 H 1.35675 M 1.809,0.85 1.55775,0.8 Q 1.206,0.75 1.005,1 0.804,1.15 0.804,1.45 V 1.6 L 0.95475,2.05 H 1.005 L 1.05525,2.1 1.25625,2.2 1.55775,2.25 2.1105,2.05 2.26125,1.45 2.211,1.15 2.1105,1 2.06025,0.95 1.9095,0.85 H 1.809"
         fill-rule="evenodd"
         id="use5064"
         style="stroke-width:1.0025" />
      <path
         d="m 18.25675,0 h 0.201 l 0.55275,0.1 0.45225,0.35 Q 19.915,0.9 19.915,1.45 L 19.46275,2.6 Q 19.0105,3 18.45775,3 L 17.65375,2.8 17.4025,2.6 16.95025,1.9 V 1.75 L 16.9,1.45 v -0.1 q 0.05025,-0.5 0.5025,-0.9 l 0.25125,-0.2 Q 17.905,0.05 18.2065,0 h 0.05025 M 18.709,0.85 18.45775,0.8 Q 18.106,0.75 17.905,1 17.704,1.15 17.704,1.45 V 1.6 l 0.15075,0.45 H 17.905 l 0.05025,0.05 0.201,0.1 0.3015,0.05 0.55275,-0.2 0.15075,-0.6 L 19.111,1.15 19.0105,1 18.96025,0.95 18.8095,0.85 H 18.709"
         fill-rule="evenodd"
         id="use5066"
         style="stroke-width:1.0025" />
    </g>
  </g>
  <path
     style="fill:#ffffff;fill-opacity:1;stroke-width:0.310917;stroke-miterlimit:4;stroke-dasharray:none"
     d="m 109.06334,81.302681 c -1.03504,-0.324993 -1.41471,-0.53993 -2.16226,-1.224092 -0.87745,-0.803038 -1.74327,-2.203946 -1.98228,-3.207343 -0.0546,-0.228976 -0.19827,-0.709358 -0.31938,-1.067516 -0.12111,-0.358158 -0.2202,-1.163988 -0.2202,-1.790734 0,-1.225178 0.3406,-2.111188 1.17921,-3.06744 0.46913,-0.534945 2.63952,-1.592421 3.85079,-1.876218 1.88998,-0.832299 4.43055,0.212537 5.70165,1.816227 0.37066,0.472011 0.85027,1.067232 1.06581,1.322713 0.3383,0.401014 0.41431,0.710128 0.55603,2.261274 0.19436,2.127178 -0.0211,3.162397 -0.91956,4.416946 -0.65824,0.919188 -1.45666,1.747645 -1.68445,1.747808 -0.0918,6.6e-5 -0.60634,0.199584 -1.14342,0.443374 -1.4357,0.651685 -2.38889,0.70637 -3.92194,0.225004 z"
     id="path167"
     sodipodi:nodetypes="sscsssccsssssss" />
  <path
     style="fill:url(#linearGradient3078);fill-opacity:1;stroke:#d2ad65;stroke-width:0;stroke-miterlimit:4;stroke-dasharray:none;stroke-opacity:1"
     d="m 69.527389,132.30294 c -3.46503,-0.26006 -4.45375,-0.47746 -6.23469,-1.37087 -1.01623,-0.5098 -2.72952,-1.67868 -3.93447,-2.68428 -1.60227,-1.33718 -6.36473,-5.79974 -6.76637,-6.34028 -0.57418,-0.77274 -1.234,-2.16682 -1.47208,-3.11023 -0.5198,-2.05978 -0.5728,-4.08916 -0.21115,-8.08544 0.28782,-3.18042 0.31291,-6.23653 0.0628,-7.6508 -0.44597,-2.52184 -0.568075,-4.565501 -0.570609,-9.55005 -0.002,-4.920367 0.0667,-6.315627 0.503659,-10.153797 0.81163,-7.12946 2.55512,-15.3404 5.32599,-25.08262 0.46363,-1.6301 0.9223,-3.247854 1.01927,-3.595004 0.097,-0.34715 0.21401,-0.63118 0.26008,-0.63118 0.0461,0 1.70236,-2.419074 1.80233,-2.222854 0.1,0.19621 2.71069,1.8167 3.08475,2.360074 13.9076,-8.294857 -2.83019,3.070834 -2.52547,3.704764 0.63563,1.32234 0.11616,-5.625574 0.86392,-5.252694 0.47113,0.23494 2.40283,2.312903 3.25437,2.254713 1.29302,-0.0884 0.60309,-0.172159 2.9283,-1.112989 2.4242,-0.98088 2.27261,-0.314814 3.93095,-0.660514 0.72558,-0.15126 1.84818,0.472571 2.25986,0.380041 0.68387,-0.1537 3.36101,2.564168 3.70864,2.728828 0.86099,0.40795 2.24725,2.282505 2.35382,4.571495 0.0939,2.0175 0.77921,1.642381 1.57959,3.744921 0.50934,1.33799 -1.94723,3.400369 -1.39076,3.932689 l 0.31903,0.30519 0.39349,-0.29966 c 0.21642,-0.16482 0.39347,-0.34156 0.39347,-0.39275 0,-0.0512 -2.68208,-0.33169 -2.94149,-0.62334 -0.5016,-0.56391 1.42894,-1.80801 0.90803,-3.60282 -0.37392,-1.28839 -0.49299,-2.10323 -0.49588,-3.39355 -0.004,-1.85839 -0.39256,-2.9937 -1.30613,-3.81781 -0.78932,-0.71203 -1.27384,-0.74749 -3.42036,-0.25036 -0.63489,0.14704 -1.62431,0.37385 -2.19873,0.50403 -0.57443,0.13017 -1.83595,0.55925 -2.80339,0.95351 -3.04476,1.24082 -4.80949,1.72254 -5.59198,1.52644 -0.57736,-0.14468 -1.16054,-0.82313 -1.74174,-2.02626 -0.30485,-0.63107 -0.90934,-1.6744 -1.34331,-2.318514 -1.26376,-1.87574 -2.70587,-3.955796 -3.38608,-6.228904 -0.1355,-0.4528 -0.3611,-1.510534 -0.61991,-2.089634 -0.25882,-0.57909 -0.299,-1.36881 -0.39761,-1.7075 -0.17455,-0.59955 -0.52185,-2.240173 -0.39805,-2.363793 0.17868,-0.17841 3.66145,0.950801 7.00263,2.261181 1.29957,0.50968 5.14031,2.437072 7.13566,3.263262 1.99536,0.8262 4.84148,1.434635 6.11124,1.945025 4.03735,1.62283 4.69966,2.110283 6.17389,4.429483 1.39983,2.202194 2.7321,4.983104 6.49882,10.125434 3.50973,4.79147 5.08865,7.01608 6.16955,8.69247 0.88927,1.37922 0.80126,1.27679 0.96046,1.11784 0.19372,-0.19343 0.30599,-0.15782 0.30599,0.097 0,0.18433 0.0465,0.21289 0.24736,0.15214 0.88649,-0.26807 1.01937,-1.09281 1.65277,-2.62319 0.66341,-1.60291 0.97877,-2.088908 1.8583,-3.042608 1.330771,-1.443 2.150331,-2.297562 3.066031,-5.909892 0.84764,-3.34385 1.43279,-5.573149 2.54831,-7.020669 0.73993,-0.96014 1.94148,-2.215134 2.88146,-2.750234 1.37918,-0.78512 2.73423,-1.071789 5.27105,-1.378069 3.15,-0.38031 6.02332,-0.954792 8.01019,-2.207152 0.37227,-0.234648 0.42089,-0.244068 0.3662,-0.0709 -0.0346,0.10981 -0.16085,0.66893 -0.28036,1.24248 -0.40543,1.94579 -0.57908,3.71469 -0.59511,6.062374 l -0.0155,2.27528 -0.30478,0.30434 c -0.27553,0.27511 -0.39164,0.3078 -1.20931,0.3405 -0.57478,0.023 -1.38991,-0.047 -2.23598,-0.1921 -2.23458,-0.38311 -3.31746,-0.29016 -4.82478,0.41413 -2.74565,1.28291 -4.53401,3.41246 -8.35623,9.95047 -0.95297,1.6301 -2.1308,3.5511 -2.61738,4.26889 -1.072011,1.58138 -2.575441,3.19901 -3.235881,3.48168 -0.25702,0.11001 -0.46733,0.25276 -0.46733,0.31721 0,0.22038 0.31841,0.87855 0.42503,0.87855 0.42102,0 -0.28917,-2.905162 0.50809,-3.708532 1.21797,-1.22729 0.96246,-1.099005 2.545771,-3.755885 0.73756,-1.23767 1.4262,-3.405747 2.06697,-4.482527 2.52854,-4.24915 10.63861,-11.337057 13.05332,-12.350697 0.59868,-0.25131 -1.13973,1.63249 -0.18623,1.64073 3.4587,-4.66026 3.83443,-1.061466 3.70186,-0.327075 l -0.91018,5.042206 -0.20046,0.44707 c -0.35972,0.80225 -1.11321,1.18162 -3.4607,1.74241 -0.88574,0.21159 -1.79419,0.46102 -2.01878,0.55429 -0.96873,0.40228 -0.74047,1.206465 -1.02889,2.090635 -0.11598,0.35554 -0.76702,2.662212 -1.33426,2.821962 -2.06369,0.58117 -3.39261,0.758295 -3.99778,3.150305 -0.25403,1.0041 -1.24069,2.692628 -0.98494,3.622438 0.34536,1.25803 1.0078,2.37408 1.98724,3.34801 0.71077,0.70678 1.88293,1.55491 2.38675,1.72698 0.0473,0.0161 0.13651,1.0462 0.19832,2.28902 0.13163,2.64659 0.30935,3.72128 1.26909,7.674587 0.97629,4.02141 1.08354,4.6811 1.08864,6.696019 0.005,1.8686 -0.0815,2.400548 -0.66743,4.116391 -0.20616,0.60374 -0.50717,1.76457 -0.66892,2.57962 -0.2802,1.41194 -0.29418,1.64256 -0.2961,4.8848 -0.002,2.78451 0.0421,3.80185 0.24082,5.59831 0.49078,4.43672 0.57449,5.30905 0.697,7.26304 0.12007,1.91543 0.11572,2.02454 -0.11025,2.76736 -0.70411,2.31467 -2.64578,3.71469 -7.48739,5.39874 -4.439431,1.54414 -5.615301,1.79433 -8.410191,1.78939 -2.71102,-0.005 -4.17256,-0.34836 -6.75928,-1.58893 -1.70686,-0.81859 -2.38318,-1.31811 -2.78652,-2.05805 l -0.30888,-0.56665 0.33771,-0.99782 c 0.71907,-2.12463 1.073,-4.86886 0.95397,-7.39671 -0.0398,-0.84523 -0.10161,-1.6723 -0.13735,-1.83793 -0.0613,-0.28412 -0.0906,-0.29729 -0.51954,-0.23295 -0.25,0.0375 -0.4904,0.10014 -0.53421,0.13919 -0.0439,0.039 -0.0258,0.53905 0.0399,1.11112 0.15209,1.32321 0.048,3.66796 -0.23664,5.3304 -0.9134,5.33474 -3.63787,7.96398 -8.97651,8.66276 -1.36346,0.17846 -4.70946,0.19952 -6.79786,0.0428 z"
     id="path3050-1"
     sodipodi:nodetypes="cssssssccsssscsscssscssscsssscssssssssssssssssssssssssssscsccsscsssssssscscscsssssscscsscsscsssscsscscsscccscc" />
  <path
     id="path53"
     style="fill:none;stroke:#000000;stroke-width:2;stroke-linecap:butt;stroke-linejoin:miter;stroke-miterlimit:4;stroke-dasharray:none;stroke-opacity:1"
     d="m 54.628429,42.426317 c 6.0655,1.420738 11.72182,4.163496 17.49303,6.419642 2.72782,1.397291 6.06183,1.949707 8.13947,4.127127 4.06687,6.803494 8.80775,12.179095 12.60569,18.36079 3.22745,2.849539 3.46095,7.204803 5.99713,10.468355 1.388081,4.170295 4.540691,5.323182 3.160701,9.7972"
     sodipodi:nodetypes="cccccc" />
  <path
     id="path55"
     style="fill:none;stroke:#000000;stroke-width:2;stroke-linecap:butt;stroke-linejoin:miter;stroke-miterlimit:4;stroke-dasharray:none;stroke-opacity:1"
     d="m 54.628429,42.426317 c -0.70372,1.845464 0.33122,3.699802 1.08603,5.345576 0.86223,2.973225 2.042,5.902874 3.95823,8.362901 0.82065,1.334265 1.15298,3.301987 2.85962,3.807827 3.42492,0.143072 6.22602,-2.27171 9.53721,-2.726617 1.11356,-0.122404 2.16773,-0.651714 3.28781,-0.635932 1.55434,0.306012 2.03098,2.148047 2.07701,3.517744 -0.23533,2.242023 0.55101,4.407893 1.35523,6.449539 0.1458,0.773559 0.83472,1.241108 1.26851,1.843758" />
  <path
     id="path57"
     style="fill:none;stroke:#000000;stroke-width:2;stroke-linecap:butt;stroke-linejoin:miter;stroke-miterlimit:4;stroke-dasharray:none;stroke-opacity:1"
     d="m 57.407259,52.318759 c -4.79038,16.049756 -9.171169,33.179202 -7.072784,50.038041 1.287224,5.89434 -1.524912,12.07343 0.706434,17.84259 0.54824,1.36209 1.43444,2.58003 2.54886,3.53458"
     sodipodi:nodetypes="cccc" />
  <path
     id="path61"
     style="fill:none;stroke:#000000;stroke-width:2;stroke-linecap:butt;stroke-linejoin:miter;stroke-miterlimit:4;stroke-dasharray:none;stroke-opacity:1"
     d="m 53.589769,123.73397 c 4.27437,3.70825 8.58635,9.04724 14.7062,8.96923 5.75697,0.5532 13.66301,0.95625 16.4755,-5.33923 1.31822,-2.68548 1.69128,-7.34102 1.18097,-10.28966"
     sodipodi:nodetypes="cccc" />
  <path
     id="path65"
     style="fill:none;stroke:#000000;stroke-width:2;stroke-linecap:butt;stroke-linejoin:miter;stroke-miterlimit:4;stroke-dasharray:none;stroke-opacity:1"
     d="m 110.25214,81.198394 c -0.9979,7.012866 4.33423,13.859924 1.37883,20.764946 -2.14029,7.2064 0.23219,14.6254 0.21579,21.92159 -0.67813,4.25261 -5.34963,5.63732 -8.88414,6.78045 -4.487861,1.89439 -9.817211,2.33137 -14.288881,0.15017 -1.96663,-0.99188 -3.1617,-1.34142 -3.90756,-3.43574"
     sodipodi:nodetypes="cccccc" />
  <path
     id="path67"
     style="fill:none;stroke:#000000;stroke-width:2;stroke-linecap:butt;stroke-linejoin:miter;stroke-miterlimit:4;stroke-dasharray:none;stroke-opacity:1"
     d="m 49.961052,87.854281 c 6.996577,3.834773 14.379537,9.884618 22.598517,10.841438 2.65722,0.56146 5.34334,0.982348 8.04185,1.286678"
     sodipodi:nodetypes="ccc" />
  <path
     id="path71"
     style="fill:none;stroke:#000000;stroke-width:2;stroke-linecap:butt;stroke-linejoin:miter;stroke-miterlimit:4;stroke-dasharray:none;stroke-opacity:1"
     d="m 80.601419,99.982357 c 1.97786,2.407143 2.24115,5.868083 1.23624,8.741063 -0.43509,2.42493 1.43509,4.40872 1.73515,6.71871 0.20986,1.34683 1.70949,1.98539 2.93018,1.66889 1.10536,-0.20921 2.00692,-1.1464 2.11217,-2.27511 0.7616,-1.95346 1.5634,-3.9177 1.81432,-6.01916 0.1943,-1.40495 0.22428,-2.85875 -0.0797,-4.23887 -0.55222,-2.50713 -0.24405,-6.233731 -3.10379,-7.048561 -1.66179,-0.31001 -3.37216,0.1229 -4.96409,0.59277 -0.7908,0.30342 -2.26413,0.87893 -1.68047,1.860268 l -0.2059,0.146683 0.2059,-0.146673 z"
     sodipodi:nodetypes="scccccacccccs" />
  <path
     id="path75"
     style="fill:none;stroke:#000000;stroke-width:2;stroke-linecap:butt;stroke-linejoin:miter;stroke-miterlimit:4;stroke-dasharray:none;stroke-opacity:1"
     d="m 90.109829,100.40927 c 6.98184,-0.612993 13.494081,-3.531178 17.898781,-9.142997 1.02048,-1.137799 2.87385,-2.251892 2.55405,-4.013544"
     sodipodi:nodetypes="ccc" />
  <path
     id="path79"
     style="fill:none;stroke:#000000;stroke-width:2;stroke-linecap:butt;stroke-linejoin:miter;stroke-miterlimit:4;stroke-dasharray:none;stroke-opacity:1"
     d="m 112.22317,94.412573 c -3.22853,3.155566 -6.73383,6.195357 -10.9737,7.893197 -3.454471,1.86743 -7.208441,3.40191 -11.178451,3.57568" />
  <path
     id="path83"
     style="fill:none;stroke:#000000;stroke-width:2;stroke-linecap:butt;stroke-linejoin:miter;stroke-miterlimit:4;stroke-dasharray:none;stroke-opacity:1"
     d="m 49.514739,94.937078 c 5.39287,1.008489 8.23164,6.545102 13.38236,8.075002 4.66108,1.71374 9.59621,2.67096 14.49211,3.37233 1.70531,0.0253 3.41159,-0.29639 5.11389,-0.0759" />
  <path
     id="path85"
     style="fill:none;stroke:#000000;stroke-width:2;stroke-linecap:butt;stroke-linejoin:miter;stroke-miterlimit:4;stroke-dasharray:none;stroke-opacity:1"
     d="m 82.328459,111.83876 c -1.75464,1.23781 -2.60931,4.10023 -4.2267,5.04629 -1.6174,0.94606 -3.88225,2.87258 -5.103,0.77358 -0.89582,-2.53977 1.33993,-5.80011 1.89936,-7.69163 0.55942,-1.89152 1.84506,-2.2862 2.79254,-3.60044"
     sodipodi:nodetypes="cccsc" />
  <path
     id="path91"
     style="fill:none;stroke:#000000;stroke-width:2;stroke-linecap:butt;stroke-linejoin:miter;stroke-miterlimit:4;stroke-dasharray:none;stroke-opacity:1"
     d="m 83.299549,90.76363 c 0.0924,5.695751 8.68766,4.965981 8.98674,-0.636046 -0.22521,-4.857746 -9.06131,-5.749055 -8.98674,0.636046 z"
     sodipodi:nodetypes="ccc" />
  <path
     style="fill:none;stroke:#000000;stroke-width:2;stroke-linecap:butt;stroke-linejoin:miter;stroke-miterlimit:4;stroke-dasharray:none;stroke-opacity:1"
     d="m 85.961079,78.741199 c 0.46572,0.827943 1.29971,2.104128 1.78135,2.922913 0.20775,0.353172 2.30751,2.473289 2.63907,2.639069 0.99822,0.499106 1.8959,1.189062 2.79431,1.862872 0.54588,0.409411 1.29444,0.55248 1.86287,0.931436 0.73646,0.490972 1.47118,1.084279 2.17335,1.552394 0.83083,0.553886 3.236431,2.08983 4.191471,2.328591 0.21546,0.05387 0.62095,0.414535 0.62095,0.620957"
     id="path93"
     sodipodi:nodetypes="cssssssc" />
  <path
     id="path97"
     style="fill:none;stroke:#000000;stroke-width:2;stroke-linecap:butt;stroke-linejoin:miter;stroke-miterlimit:4;stroke-dasharray:none;stroke-opacity:1"
     d="m 122.20557,47.82193 c -3.23816,2.995331 -7.47467,3.820838 -11.62669,4.209404 -4.17985,0.730693 -7.17704,3.94385 -8.35725,7.900064 -1.27733,3.381575 -1.14171,7.078644 -4.043981,9.694766 -1.39366,1.337579 -1.12364,3.965251 -3.13897,4.586458" />
  <path
     id="path99"
     style="fill:none;stroke:#000000;stroke-width:2;stroke-linecap:butt;stroke-linejoin:miter;stroke-miterlimit:4;stroke-dasharray:none;stroke-opacity:1"
     d="m 122.20557,47.82193 c -1.197,2.54779 -1.86169,7.602062 -1.52812,10.366284 0.20215,3.93378 -6.92133,0.476126 -9.21826,0.567066 -7.63336,0.820322 -8.07032,15.288056 -13.545211,19.445224 l -0.4387,0.192719 -0.45729,0.166123"
     sodipodi:nodetypes="cccccc" />
  <path
     id="path78"
     style="fill:none;stroke:#000000;stroke-width:2;stroke-linecap:butt;stroke-linejoin:miter;stroke-miterlimit:4;stroke-dasharray:none;stroke-opacity:1"
     d="m 110.03813,80.245841 c -0.0199,0.570977 -0.065,1.148461 0.0802,1.707823 0.0647,0.530707 -0.19872,1.107651 0.0758,1.60159 0.11461,0.574653 0.0163,1.170102 0.0755,1.752347 0.015,0.521405 0.20818,1.007149 0.402,1.482369 0.12826,0.484621 0.25392,0.9834 0.20053,1.487997 -0.0257,-0.356502 -0.0697,-0.741422 -0.30944,-1.025235" />
  <path
     id="path86"
     style="fill:none;stroke:#000000;stroke-width:2;stroke-linecap:butt;stroke-linejoin:miter;stroke-miterlimit:4;stroke-dasharray:none;stroke-opacity:1"
     d="m 118.55745,60.551557 c 0.10951,3.116547 -3.68789,2.987664 -5.80724,3.729759 -1.07457,0.342829 -2.1241,3.284908 -2.1511,4.453887"
     sodipodi:nodetypes="ccc" />
  <path
     style="fill:#ffffff;fill-opacity:1;stroke-width:0.330882;stroke-miterlimit:4;stroke-dasharray:none"
     d="m 80.121959,79.351202 c -1.36311,-0.326545 -2.36779,-0.796031 -2.97,-1.387869 -0.9331,-0.917039 -1.11057,-1.401646 -1.10981,-3.030415 6.4e-4,-1.360942 0.0478,-1.570165 0.61876,-2.746675 0.71502,-1.473298 1.96111,-2.800749 3.164,-3.370603 2.09906,-0.994399 6.28194,-1.28431 7.95841,-0.551589 1.33175,0.582057 2.00015,1.648391 1.99664,3.185321 -0.005,2.017965 -0.90169,3.985346 -2.56681,5.629276 -2.15053,2.123168 -4.53067,2.885946 -7.09119,2.272554 z"
     id="path165" />
  <path
     id="path80"
     style="fill:none;stroke:#000000;stroke-width:2;stroke-linecap:butt;stroke-linejoin:miter;stroke-miterlimit:4;stroke-dasharray:none;stroke-opacity:1"
     d="m 80.058079,68.391145 c -2.72641,1.264825 -4.44443,4.385295 -4.12624,7.361202 0.20927,1.514282 1.26931,2.877885 2.72669,3.375705 1.73035,0.759147 3.74582,0.984767 5.54311,0.317635 3.41884,-1.165541 5.94244,-4.69856 5.74705,-8.332773 -0.057,-1.25965 -0.78273,-2.47246 -1.94241,-3.010961 -1.73036,-0.811358 -3.73326,-0.675703 -5.56596,-0.345933 -0.80777,0.155244 -1.60307,0.372175 -2.38224,0.635125 z" />
  <path
     id="path82"
     style="fill:none;stroke:#000000;stroke-width:2;stroke-linecap:butt;stroke-linejoin:miter;stroke-miterlimit:4;stroke-dasharray:none;stroke-opacity:1"
     d="m 110.0046,69.073727 c 5.23165,-0.843619 8.84324,6.596698 4.95699,10.237387 -3.7223,3.814738 -10.27685,0.05053 -9.69504,-5.017966 0.11237,-2.565249 2.0752,-5.089564 4.73805,-5.219421 z" />
</svg>
