<?xml version="1.0" encoding="UTF-8" standalone="no"?>
<!DOCTYPE svg PUBLIC "-//W3C//DTD SVG 1.1//EN" "http://www.w3.org/Graphics/SVG/1.1/DTD/svg11.dtd"><svg width="160px"
    height="182px" version="1.1" xmlns="http://www.w3.org/2000/svg" xmlns:xlink="http://www.w3.org/1999/xlink"
    xml:space="preserve" xmlns:serif="http://www.serif.com/"
    style="fill-rule:evenodd;clip-rule:evenodd;stroke-miterlimit:1.5;">
    <g>
        <path
            d="M63.865,73.537C60.807,76.248 57.748,78.959 54.689,81.67C54.509,82.984 53.933,84.257 52.957,85.298C50.454,87.966 46.255,88.099 43.587,85.596C40.919,83.092 40.785,78.893 43.289,76.225C44.474,74.962 46.04,74.267 47.643,74.151L61.96,61.462"
            style="fill:white;fill-opacity:0.96;stroke:black;stroke-opacity:0.96;stroke-width:2.5px;" />
        <path
            d="M46.341,46.9C46.141,39.833 49.708,33.3 57.041,27.3C64.374,20.567 73.141,16.867 83.341,16.2C93.474,16.867 102.174,20.567 109.441,27.3C116.708,33.3 120.341,39.833 120.341,46.9C120.341,52.233 118.608,56.967 115.141,61.1L115.341,61.1L115.241,61.1L110.041,67.3L108.679,67.902L107.681,96.071L107.541,98.2L106.841,106.6L104.741,114.8L100.886,121.79L99.626,135.105C95.691,141.392 92.013,139.985 88.448,135.174L86.818,121.86L83.914,119.372L78.39,119.302C70.765,119.928 63.537,120.107 58.341,118C55.941,115.467 54.508,112.7 54.041,109.7L53.941,105.4L55.839,95.352L55.642,84.711L56.88,67.1L55.041,66.6L50.941,61.1"
            style="fill:white;" />
        <path
            d="M104.532,77.491C108.22,79.253 111.907,81.015 115.595,82.777C116.131,83.991 117.035,85.056 118.26,85.786C121.403,87.66 125.475,86.631 127.35,83.488C127.804,82.727 128.087,81.911 128.212,81.084C128.601,78.501 127.433,75.819 125.052,74.399C123.564,73.512 121.867,73.275 120.294,73.606L103.033,65.358"
            style="fill:white;fill-opacity:0.96;stroke:black;stroke-opacity:0.96;stroke-width:2.5px;" />
        <path
            d="M99.739,121.752L99.739,133.885C99.739,136.847 97.163,139.252 93.989,139.252C90.815,139.252 88.239,136.847 88.239,133.885L88.239,121.752"
            style="fill:none;stroke:black;stroke-width:2.5px;" />
        <path
            d="M51.341,61.1C47.808,56.967 46.141,52.233 46.341,46.9C46.141,39.833 49.708,33.3 57.041,27.3C64.374,20.567 73.141,16.867 83.341,16.2C93.474,16.867 102.174,20.567 109.441,27.3C116.708,33.3 120.341,39.833 120.341,46.9C120.341,52.233 118.608,56.967 115.141,61.1"
            style="fill:none;fill-rule:nonzero;stroke:black;stroke-width:2.5px;stroke-miterlimit:4;" />
    </g>
    <path
        d="M120.341,3.481C119.483,3.798 112.253,3.633 111.297,3.926C110.324,4.224 109.183,6.469 108.118,6.736C100.584,8.63 91.744,11.389 81.483,10.757C69.606,10.026 60.729,6.765 53.222,3.357C52.425,2.995 50.547,5.749 50.98,7.226C53.716,16.565 64.907,24.114 80.602,25.08C96.864,26.081 110.84,19.577 114.105,10.111C114.241,9.715 117.558,11.818 118.527,11.385C120.289,10.596 120.294,4.249 120.341,3.481Z"
        style="fill:url(#_Radial1);stroke:black;stroke-width:2.5px;" />
    <path id="gikopoipoi_eyes_closed" d="M105.141,39.9L111.441,39.9"
        style="display:none;fill:none;stroke:black;stroke-width:3px;stroke-linecap:round;stroke-linejoin:round;" />
    <path id="gikopoipoi_eyes_open"
        d="M109.641,37.6L113.341,42L111.241,42L108.341,39.6L105.441,42L103.341,42L107.141,37.6L109.641,37.6" />
    <defs>
        <radialGradient id="_Radial1" cx="0" cy="0" r="1" gradientUnits="userSpaceOnUse"
            gradientTransform="matrix(-66.812,-5.11477,-5.11477,66.812,118.95,10.4088)">
            <stop offset="0" style="stop-color:rgb(147,173,33);stop-opacity:1" />
            <stop offset="0.21" style="stop-color:rgb(177,175,20);stop-opacity:1" />
            <stop offset="0.43" style="stop-color:rgb(209,177,7);stop-opacity:1" />
            <stop offset="1" style="stop-color:rgb(225,178,0);stop-opacity:1" />
        </radialGradient>
    </defs>
</svg>