<?xml version="1.0" encoding="UTF-8" standalone="no"?>
<!DOCTYPE svg PUBLIC "-//W3C//DTD SVG 1.1//EN" "http://www.w3.org/Graphics/SVG/1.1/DTD/svg11.dtd"><svg width="160px"
    height="182px" version="1.1" xmlns="http://www.w3.org/2000/svg" xmlns:xlink="http://www.w3.org/1999/xlink"
    xml:space="preserve" xmlns:serif="http://www.serif.com/"
    style="fill-rule:evenodd;clip-rule:evenodd;stroke-miterlimit:1.5;">
    <g>
        <path
            d="M104.16,77.668C107.675,79.755 111.189,81.842 114.703,83.929C115.128,85.186 115.932,86.328 117.086,87.166C120.047,89.315 124.196,88.656 126.346,85.695C126.866,84.978 127.222,84.191 127.421,83.379C128.04,80.841 127.119,78.065 124.875,76.436C123.473,75.418 121.805,75.03 120.208,75.218L103.76,65.45"
            style="fill:white;fill-opacity:0.96;stroke:black;stroke-opacity:0.96;stroke-width:2.5px;" />
        <path
            d="M45.341,46.9C45.141,39.833 48.708,33.3 56.041,27.3C63.374,20.567 72.141,16.867 82.341,16.2C92.474,16.867 101.174,20.567 108.441,27.3C115.708,33.3 119.341,39.833 119.341,46.9C119.341,52.233 117.608,56.967 114.141,61.1L114.341,61.1L114.241,61.1L109.041,67.3L106.998,87.114L106.681,96.071L105.841,108.758L112.535,108.311C120.965,112.056 118.623,116.09 112.087,119.836L100.552,119.834L77.617,117.031L74.17,121.86L73.157,134.897C68.753,141.293 65.133,139.716 61.84,134.827L60.549,121.79L57.341,118C54.941,115.467 53.508,112.7 53.041,109.7L52.941,105.4C52.941,105.4 51.438,88.422 54.642,84.711L54.041,66.6L49.941,61.1"
            style="fill:white;" />
        <path
            d="M99.923,108.204L112.056,108.204C115.018,108.204 117.423,110.78 117.423,113.954C117.423,117.128 115.018,119.704 112.056,119.704L99.923,119.704"
            style="fill:none;stroke:black;stroke-width:2.5px;" />
        <path
            d="M73.168,121.613L73.168,133.746C73.168,136.708 70.592,139.113 67.418,139.113C64.244,139.113 61.668,136.708 61.668,133.746L61.668,121.613"
            style="fill:none;stroke:black;stroke-width:2.5px;" />
        <path
            d="M50.341,61.1C46.808,56.967 45.141,52.233 45.341,46.9C45.141,39.833 48.708,33.3 56.041,27.3C63.374,20.567 72.141,16.867 82.341,16.2C92.474,16.867 101.174,20.567 108.441,27.3C115.708,33.3 119.341,39.833 119.341,46.9C119.341,52.233 117.608,56.967 114.141,61.1"
            style="fill:none;fill-rule:nonzero;stroke:black;stroke-width:2.5px;stroke-miterlimit:4;" />
        <path
            d="M85.003,47.228C83.346,51.517 82.76,55.311 85.003,57.799C86.559,59.306 88.115,58.955 89.67,57.912C90.552,56.007 90.869,53.444 90.851,50.49C90.849,52.803 90.745,55.108 92.425,57.574C93.732,59.125 95.373,59.21 97.43,57.462C99.064,54.803 98.252,51.256 96.586,47.397"
            style="fill:none;stroke:black;stroke-width:2.5px;" />
        <path
            d="M57.547,79.672C54.132,81.917 50.717,84.161 47.301,86.406C46.934,87.681 46.183,88.859 45.068,89.748C42.208,92.03 38.033,91.561 35.751,88.701C33.469,85.841 33.938,81.667 36.798,79.385C38.152,78.304 39.801,77.84 41.405,77.955L57.391,67.448"
            style="fill:white;fill-opacity:0.96;stroke:black;stroke-opacity:0.96;stroke-width:2.5px;" />
    </g>
    <path
        d="M47.421,41.329C48.226,40.895 55.408,40.048 56.314,39.624C57.235,39.194 58.052,36.811 59.069,36.397C66.264,33.469 74.632,29.502 84.88,28.693C96.744,27.757 105.989,29.746 113.899,32.071C114.739,32.318 116.213,29.329 115.578,27.926C111.563,19.062 99.428,13.151 83.752,14.388C67.509,15.669 54.579,24.063 52.669,33.893C52.589,34.304 49.011,32.684 48.113,33.249C46.478,34.277 47.36,40.561 47.421,41.329Z"
        style="fill:url(#_Radial1);stroke:black;stroke-width:2.5px;" />
    <g id="gikopoipoi_eyes_closed" style="display:none">
        <path d="M72.341,39.9L78.641,39.9M104.841,39.9L111.141,39.9"
            style="fill:none;stroke:black;stroke-width:3px;stroke-linecap:round;stroke-linejoin:round;" />
    </g>
    <path id="gikopoipoi_eyes_open"
        d="M109.341,37.6L113.041,42L110.941,42L108.041,39.6L105.141,42L103.041,42L106.841,37.6L109.341,37.6M76.841,37.6L80.541,42L78.441,42L75.541,39.6L72.641,42L70.541,42L74.341,37.6L76.841,37.6" />
    <defs>
        <radialGradient id="_Radial1" cx="0" cy="0" r="1" gradientUnits="userSpaceOnUse"
            gradientTransform="matrix(66.8711,-4.27295,-4.27295,-66.8711,47.8303,34.2747)">
            <stop offset="0" style="stop-color:rgb(147,173,33);stop-opacity:1" />
            <stop offset="0.21" style="stop-color:rgb(177,175,20);stop-opacity:1" />
            <stop offset="0.43" style="stop-color:rgb(209,177,7);stop-opacity:1" />
            <stop offset="1" style="stop-color:rgb(225,178,0);stop-opacity:1" />
        </radialGradient>
    </defs>
</svg>