<?xml version="1.0" encoding="UTF-8" standalone="no"?>
<!DOCTYPE svg PUBLIC "-//W3C//DTD SVG 1.1//EN" "http://www.w3.org/Graphics/SVG/1.1/DTD/svg11.dtd"><svg width="160px"
    height="182px" version="1.1" xmlns="http://www.w3.org/2000/svg" xmlns:xlink="http://www.w3.org/1999/xlink"
    xml:space="preserve" xmlns:serif="http://www.serif.com/"
    style="fill-rule:evenodd;clip-rule:evenodd;stroke-miterlimit:1.5;">
    <g>
        <path
            d="M98.882,73.943C99.258,78.013 99.634,82.083 100.009,86.152C99.241,87.234 98.79,88.556 98.79,89.983C98.79,93.641 101.76,96.612 105.419,96.612C106.306,96.612 107.152,96.438 107.926,96.121C110.343,95.132 112.049,92.755 112.049,89.983C112.049,88.25 111.382,86.672 110.293,85.49L108.535,66.441"
            style="fill:white;fill-opacity:0.96;stroke:black;stroke-opacity:0.96;stroke-width:2.5px;" />
        <path
            d="M46.341,46.9C46.141,39.833 49.708,33.3 57.041,27.3C64.374,20.567 73.141,16.867 83.341,16.2C93.474,16.867 102.174,20.567 109.441,27.3C116.708,33.3 120.341,39.833 120.341,46.9C120.341,52.233 118.608,56.967 115.141,61.1L115.341,61.1L115.241,61.1L110.041,67.3L108.679,67.902L107.681,96.071L107.17,106.189L112.628,106.315C121.353,111.075 117.652,114.427 112.959,117.43L58.341,118C55.941,115.467 54.508,112.7 54.041,109.7L53.941,105.4L55.541,100.3L55.839,95.352C52.629,91.962 52.438,88.422 55.642,84.711L56.88,67.1L55.041,66.6L50.941,61.1"
            style="fill:white;" />
        <path
            d="M100.204,106.046L112.337,106.046C115.299,106.046 117.704,108.622 117.704,111.796C117.704,114.97 115.299,117.546 112.337,117.546L100.204,117.546"
            style="fill:none;stroke:black;stroke-width:2.5px;" />
        <path
            d="M74.92,105.907L87.053,105.907C90.015,105.907 92.42,108.483 92.42,111.657C92.42,114.831 90.015,117.407 87.053,117.407L74.92,117.407"
            style="fill:none;stroke:black;stroke-width:2.5px;" />
        <path
            d="M51.341,61.1C47.808,56.967 46.141,52.233 46.341,46.9C46.141,39.833 49.708,33.3 57.041,27.3C64.374,20.567 73.141,16.867 83.341,16.2C93.474,16.867 102.174,20.567 109.441,27.3C116.708,33.3 120.341,39.833 120.341,46.9C120.341,52.233 118.608,56.967 115.141,61.1"
            style="fill:none;fill-rule:nonzero;stroke:black;stroke-width:2.5px;stroke-miterlimit:4;" />
        <path
            d="M86.003,47.228C84.346,51.517 83.76,55.311 86.003,57.799C87.559,59.306 89.115,58.955 90.67,57.912C91.552,56.007 91.869,53.444 91.851,50.49C91.849,52.803 91.745,55.108 93.425,57.574C94.732,59.125 96.373,59.21 98.43,57.462C100.064,54.803 99.252,51.256 97.586,47.397"
            style="fill:none;stroke:black;stroke-width:2.5px;" />
        <path
            d="M66.558,73.943C66.183,78.013 65.807,82.083 65.431,86.152C66.199,87.234 66.651,88.556 66.651,89.983C66.651,93.641 63.68,96.612 60.021,96.612C56.363,96.612 53.392,93.641 53.392,89.983C53.392,88.25 54.058,86.672 55.148,85.49L56.906,66.441"
            style="fill:none;stroke:black;stroke-opacity:0.96;stroke-width:2.5px;" />
    </g>
    <path
        d="M42.365,3.144C43.223,3.461 50.453,3.297 51.409,3.589C52.382,3.887 53.523,6.132 54.588,6.399C62.122,8.293 70.962,11.052 81.223,10.421C93.1,9.689 101.977,6.428 109.484,3.02C110.281,2.658 112.159,5.412 111.726,6.89C108.99,16.228 97.799,23.777 82.104,24.743C65.842,25.744 51.866,19.24 48.601,9.774C48.465,9.378 45.148,11.482 44.179,11.048C42.417,10.259 42.412,3.913 42.365,3.144Z"
        style="fill:url(#_Radial1);stroke:black;stroke-width:2.5px;" />
    <g id="gikopoipoi_eyes_closed" style="display:none">
        <path d="M72.341,39.9L78.641,39.9M104.841,39.9L111.141,39.9"
            style="fill:none;stroke:black;stroke-width:3px;stroke-linecap:round;stroke-linejoin:round;" />
    </g>
    <path id="gikopoipoi_eyes_open"
        d="M109.341,37.6L113.041,42L110.941,42L108.041,39.6L105.141,42L103.041,42L106.841,37.6L109.341,37.6M76.841,37.6L80.541,42L78.441,42L75.541,39.6L72.641,42L70.541,42L74.341,37.6L76.841,37.6" />
    <defs>
        <radialGradient id="_Radial1" cx="0" cy="0" r="1" gradientUnits="userSpaceOnUse"
            gradientTransform="matrix(66.812,-5.11477,5.11477,66.812,43.7562,10.0719)">
            <stop offset="0" style="stop-color:rgb(147,173,33);stop-opacity:1" />
            <stop offset="0.21" style="stop-color:rgb(177,175,20);stop-opacity:1" />
            <stop offset="0.43" style="stop-color:rgb(209,177,7);stop-opacity:1" />
            <stop offset="1" style="stop-color:rgb(225,178,0);stop-opacity:1" />
        </radialGradient>
    </defs>
</svg>