<?xml version="1.0" encoding="UTF-8" standalone="no"?><!DOCTYPE svg PUBLIC "-//W3C//DTD SVG 1.1//EN" "http://www.w3.org/Graphics/SVG/1.1/DTD/svg11.dtd"><svg width="1260px" height="745px" version="1.1" xmlns="http://www.w3.org/2000/svg" xmlns:xlink="http://www.w3.org/1999/xlink" xml:space="preserve" xmlns:serif="http://www.serif.com/" style="fill-rule:evenodd;clip-rule:evenodd;stroke-linecap:round;stroke-linejoin:round;stroke-miterlimit:1.5;"><g id="下"><rect x="-0" y="0" width="1259.43" height="744.2"/><path d="M0,343.46L0,0L228.973,0L1259.35,515.19L801.407,744.163L0,343.46Z" style="fill:#534340;"/><g id="ボールすくい"><g><path d="M2.366,60.286C-14.177,52.014 -14.177,38.584 2.366,30.312C18.91,22.04 45.771,22.04 62.314,30.312L151.768,75.507C168.312,83.778 168.312,97.209 151.768,105.481C135.225,113.752 108.831,113.518 92.288,105.247L2.366,60.286Z" style="fill:none;stroke:#27656e;stroke-width:1px;"/><path d="M132.858,90.548L132.858,67.941L132.853,67.943C132.773,69.244 131.74,70.534 129.756,71.526C125.62,73.594 118.905,73.594 114.769,71.526L24.847,26.565C22.779,25.531 21.745,24.175 21.745,22.819C21.745,22.819 21.745,45.194 21.745,45.299C21.745,46.655 22.779,48.012 24.847,49.046L114.769,94.007C122.148,97.633 133.619,93.769 132.858,90.26" style="stroke:#000;stroke-width:1px;"/><path d="M-9.958,24.15C-10.69,18.29 -6.582,12.306 2.366,7.832C18.91,-0.44 45.771,-0.44 62.314,7.832L151.768,53.026C159.838,57.061 163.971,62.323 164.168,67.615L164.176,67.611L164.176,91.784L164.168,90.892C163.971,96.184 159.838,101.446 151.768,105.481C135.225,113.752 108.831,113.518 92.288,105.247L2.366,60.286C-6.582,55.812 -10.69,49.828 -9.958,43.968L-10.041,46.589L-10.041,21.529" style="fill:#2f6073;fill-opacity:0.5;stroke:#000;stroke-opacity:0.5;stroke-width:1px;"/><path d="M132.858,75.273C132.858,76.629 131.824,77.986 129.756,79.02C125.62,81.088 118.905,81.088 114.769,79.02L24.847,34.059C22.968,33.119 21.942,31.913 21.771,30.683" style="fill:none;stroke:#676767;stroke-opacity:0.5;stroke-width:1px;"/><path d="M24.847,26.565C20.711,24.497 20.711,21.14 24.847,19.072C28.983,17.004 35.698,17.004 39.834,19.072L129.756,64.033C133.892,66.101 133.892,69.458 129.756,71.526C125.62,73.594 118.905,73.594 114.769,71.526L24.847,26.565Z" style="fill:#173039;stroke:#000;stroke-width:1px;"/><path d="M2.366,45.299C-14.177,37.027 -14.177,23.597 2.366,15.325C18.91,7.054 45.771,7.054 62.314,15.325L151.768,60.52C168.312,68.791 168.312,82.222 151.768,90.494C135.225,98.765 108.831,98.531 92.288,90.26L2.366,45.299ZM21.745,22.819L21.771,30.683C21.942,31.913 22.968,33.119 24.847,34.059L114.769,79.02C118.905,81.088 125.62,81.088 129.756,79.02C131.824,77.986 132.858,76.629 132.858,75.273L132.858,67.779C132.858,66.423 131.824,65.067 129.756,64.033L39.834,19.072C35.698,17.004 28.983,17.004 24.847,19.072C22.779,20.106 21.745,21.462 21.745,22.819Z" style="fill:url(#_Radial1);stroke:#676767;stroke-opacity:0.5;stroke-width:1px;"/><path d="M2.366,37.805C-14.177,29.534 -14.177,16.103 2.366,7.832C18.91,-0.44 45.771,-0.44 62.314,7.832L151.768,53.026C168.312,61.298 168.312,74.729 151.768,83C135.225,91.272 108.831,91.038 92.288,82.766L2.366,37.805Z" style="fill:none;stroke:#27656e;stroke-width:1px;"/></g><g><circle cx="66.148" cy="27.904" r="1.815" style="fill:#7f861a;"/><circle cx="135.979" cy="56.73" r="1.815" style="fill:#7f861a;"/><circle cx="77.835" cy="29.687" r="1.815" style="fill:#7f861a;"/><circle cx="66.523" cy="59.898" r="1.815" style="fill:#7f861a;"/><circle cx="150.722" cy="65.226" r="1.815" style="fill:#86651a;"/><circle cx="117.553" cy="85.646" r="1.815" style="fill:#86651a;"/><circle cx="124.745" cy="53.666" r="1.815" style="fill:#7f861a;"/><circle cx="20.065" cy="34.639" r="1.815" style="fill:#7f861a;"/><circle cx="81.198" cy="36.553" r="1.815" style="fill:#86651a;"/><circle cx="58.607" cy="54.705" r="1.815" style="fill:#86651a;"/><circle cx="90.426" cy="38.013" r="1.815" style="fill:#7f861a;"/><circle cx="53.932" cy="51.573" r="1.815" style="fill:#7f861a;"/><circle cx="111.928" cy="51.919" r="1.815" style="fill:#86651a;"/><circle cx="111.928" cy="51.919" r="1.815" style="fill:#973883;"/><circle cx="95.996" cy="74.868" r="1.815" style="fill:#86651a;"/><circle cx="95.996" cy="74.868" r="1.815" style="fill:#a2328b;"/><circle cx="136.429" cy="67.104" r="1.815" style="fill:#7f861a;"/><circle cx="136.429" cy="67.104" r="1.815" style="fill:#a2328b;"/><circle cx="7.929" cy="22.482" r="1.815" style="fill:#7f861a;"/><circle cx="7.929" cy="22.482" r="1.815" style="fill:#a2328b;"/><circle cx="72.403" cy="24.037" r="1.815" style="fill:#86651a;"/><circle cx="72.403" cy="24.037" r="1.815" style="fill:#a2328b;"/><circle cx="39.233" cy="44.457" r="1.815" style="fill:#86651a;"/><circle cx="12.336" cy="36.864" r="1.815" style="fill:#a2328b;"/><circle cx="20.782" cy="43.199" r="1.815" style="fill:#199a00;"/><circle cx="111.701" cy="46.621" r="1.815" style="fill:#7f861a;"/><circle cx="144.36" cy="75.057" r="1.815" style="fill:#199a00;"/><circle cx="25.011" cy="14.282" r="1.815" style="fill:#a2328b;"/><circle cx="47.794" cy="14.749" r="1.815" style="fill:#199a00;"/><circle cx="32.657" cy="42.965" r="1.815" style="fill:#1a5186;"/><circle cx="41.103" cy="49.3" r="1.815" style="fill:#199a00;"/><circle cx="32.657" cy="42.965" r="1.815" style="fill:#a2328b;"/><circle cx="41.103" cy="49.3" r="1.815" style="fill:#199a00;"/><circle cx="108.297" cy="41.984" r="1.815" style="fill:#86651a;"/><circle cx="116.744" cy="48.319" r="1.815" style="fill:#199a00;"/><circle cx="108.297" cy="41.984" r="1.815" style="fill:#a2328b;"/><circle cx="116.744" cy="48.319" r="1.815" style="fill:#3f8f30;"/><circle cx="75.128" cy="62.404" r="1.815" style="fill:#86651a;"/><circle cx="75.128" cy="62.404" r="1.815" style="fill:#a2328b;"/><circle cx="157.704" cy="75.712" r="1.815" style="fill:#7f861a;"/><circle cx="157.704" cy="75.712" r="1.815" style="fill:#a2328b;"/><circle cx="92.087" cy="72.025" r="1.815" style="fill:#7f861a;"/><circle cx="24.956" cy="46.579" r="1.815" style="fill:#1a5186;"/><circle cx="80.401" cy="70.241" r="1.815" style="fill:#7f861a;"/><circle cx="98.643" cy="40.092" r="1.815" style="fill:#7f861a;"/><circle cx="7.513" cy="34.702" r="1.815" style="fill:#86651a;"/><circle cx="40.683" cy="14.282" r="1.815" style="fill:#86651a;"/><circle cx="29.65" cy="54.674" r="1.815" style="fill:#5a5e29;"/><circle cx="92.375" cy="86.888" r="1.815" style="fill:#5a5e29;"/><circle cx="137.498" cy="71.005" r="1.815" style="fill:#6334a2;"/><circle cx="101.446" cy="80.764" r="1.815" style="fill:#86651a;"/><circle cx="103.615" cy="39.659" r="1.815" style="fill:#86651a;"/><circle cx="70.824" cy="67.728" r="1.815" style="fill:#1a5186;"/><circle cx="104.304" cy="48.356" r="1.815" style="fill:#6334a2;"/><circle cx="46.307" cy="48.01" r="1.815" style="fill:#86651a;"/><circle cx="46.307" cy="48.01" r="1.815" style="fill:#a2328b;"/><circle cx="62.239" cy="25.06" r="1.815" style="fill:#86651a;"/><circle cx="62.239" cy="25.06" r="1.815" style="fill:#a2328b;"/><circle cx="14.732" cy="31.317" r="1.815" style="fill:#7f861a;"/><circle cx="18.362" cy="37.192" r="1.815" style="fill:#a2328b;"/><circle cx="150.306" cy="77.447" r="1.815" style="fill:#7f861a;"/><circle cx="150.306" cy="77.447" r="1.815" style="fill:#a2328b;"/><circle cx="85.833" cy="75.892" r="1.815" style="fill:#86651a;"/><circle cx="85.833" cy="75.892" r="1.815" style="fill:#6334a2;"/><circle cx="119.003" cy="55.472" r="1.815" style="fill:#86651a;"/><circle cx="145.9" cy="63.064" r="1.815" style="fill:#a2328b;"/><circle cx="131.764" cy="60.712" r="1.815" style="fill:#3f8f30;"/><circle cx="46.534" cy="53.308" r="1.815" style="fill:#7f861a;"/><circle cx="13.875" cy="24.872" r="1.815" style="fill:#3f8f30;"/><circle cx="133.224" cy="85.646" r="1.815" style="fill:#a2328b;"/><circle cx="110.441" cy="85.18" r="1.815" style="fill:#3f8f30;"/><circle cx="141.134" cy="82.679" r="1.815" style="fill:#7f861a;"/><circle cx="154.429" cy="70.015" r="1.815" style="fill:#3f8f30;"/><circle cx="130.835" cy="54.681" r="1.815" style="fill:#a2328b;"/><circle cx="88.522" cy="32.346" r="1.815" style="fill:#3f8f30;"/><circle cx="49.938" cy="57.945" r="1.815" style="fill:#86651a;"/><circle cx="5.724" cy="26.813" r="1.815" style="fill:#3f8f30;"/><circle cx="49.938" cy="57.945" r="1.815" style="fill:#a2328b;"/><circle cx="58.607" cy="57.56" r="1.815" style="fill:#3f8f30;"/><circle cx="57.016" cy="17.248" r="1.815" style="fill:#86651a;"/><circle cx="72.639" cy="31.149" r="1.815" style="fill:#a2328b;"/><circle cx="0.532" cy="24.217" r="1.815" style="fill:#7f861a;"/><circle cx="62.741" cy="71.026" r="1.815" style="fill:#6f3d65;"/><circle cx="143.899" cy="89.744" r="1.815" style="fill:#6f3d65;"/><circle cx="118.752" cy="92.184" r="1.815" style="fill:#327126;"/><circle cx="0.532" cy="24.217" r="1.815" style="fill:#a2328b;"/></g></g><g id="射的"><path d="M436.48,218.24L436.48,46.51L150.264,-96.598L207.507,-67.976L207.507,103.754" style="fill:none;stroke:#9e864c;stroke-width:5px;"/><path d="M207.507,103.754L207.507,46.51L436.48,160.997L436.48,218.24L207.507,103.754Z" style="fill:#000d4e;stroke:#000;stroke-width:1px;"/><path d="M436.152,161.161L497.302,130.586L497.302,187.83L435.477,219.284L436.152,161.161Z" style="fill:#64523e;stroke:#000;stroke-width:1px;"/><path d="M207.507,46.51L436.152,160.832L493.724,132.375L264.75,17.889L207.507,46.51Z" style="fill:#8f3635;stroke:#000;stroke-width:1px;"/><path d="M228.973,35.777L228.973,21.466L443.636,128.798L443.636,143.108L228.973,35.777Z" style="fill:#6f1a07;stroke:#000;stroke-width:1px;"/><path d="M207.507,60.821L207.507,46.51L422.17,153.841L422.17,168.152L207.507,60.821Z" style="fill:#6f1a07;stroke:#000;stroke-width:1px;"/><path d="M228.973,21.466L250.44,10.733L465.102,118.064L443.636,128.798L228.973,21.466Z" style="fill:#8f3635;stroke:#000;stroke-width:1px;"/><g><g><g><path d="M314.838,57.243L300.528,50.088L300.977,28.397L314.838,35.777L314.838,57.243Z" style="fill:#5e775a;stroke:#000;stroke-width:1px;"/><path d="M318.416,55.454L318.416,33.988L314.838,35.328L314.838,57.243L318.416,55.454Z" style="fill:#5e775a;stroke:#000;stroke-width:1px;"/></g><path d="M307.693,46.135L310.772,50.139" style="fill:none;stroke:#26582f;stroke-width:1px;"/><path d="M307.693,46.135L304.613,47.059" style="fill:none;stroke:#26582f;stroke-width:1px;"/><path d="M306.397,49.183L304.613,49.523" style="fill:none;stroke:#26582f;stroke-width:1px;"/><path d="M307.693,47.367L307.693,51.063" style="fill:none;stroke:#26582f;stroke-width:1px;"/><path d="M308.885,50.427L310.772,52.603" style="fill:none;stroke:#26582f;stroke-width:1px;"/><path d="M305.845,47.675L309.541,49.523" style="fill:none;stroke:#26582f;stroke-width:1px;"/><path d="M309.541,44.595L309.541,47.059" style="fill:none;stroke:#26582f;stroke-width:1px;"/><path d="M305.845,42.747L305.845,45.211" style="fill:none;stroke:#26582f;stroke-width:1px;"/><path d="M304.613,43.363L310.772,46.443" style="fill:none;stroke:#26582f;stroke-width:1px;"/><path d="M307.657,42.934C310.364,44.287 312.562,47.434 312.562,49.957C312.562,52.48 310.364,53.429 307.657,52.076C304.951,50.722 302.753,47.575 302.753,45.053C302.753,42.53 304.951,41.58 307.657,42.934Z" style="fill:none;stroke:#26582f;stroke-width:1px;"/></g><g><path d="M246.677,23.993L246.677,13.052L253.971,16.699L253.971,27.64L246.677,23.993Z" style="fill:#4b6696;stroke:#000;stroke-width:1px;"/><path d="M253.971,27.64L255.829,26.71L255.915,15.727L253.971,16.699L253.971,27.64Z" style="fill:#4b6696;stroke:#000;stroke-width:1px;"/><path d="M246.677,13.052L253.971,16.699L255.915,15.727L248.596,12.092L246.677,13.052Z" style="fill:#4b6696;stroke:#000;stroke-width:1px;"/><path d="M248.001,21.507C248.206,21.999 249.016,22.462 249.999,22.332L252.576,20.335C252.479,19.634 251.117,19.095 250.645,19.489L248.001,21.507Z" style="fill:#e9e4d3;stroke:#b29241;stroke-width:1px;"/><path d="M247.958,17.097L247.949,15.359L252.524,17.458L252.576,19.22L247.958,17.097Z" style="fill:#879ab9;"/></g><g><path d="M333.18,67.128L333.157,54.258L341.098,58.229L341.098,71.087L333.18,67.128Z" style="fill:#e8a038;stroke:#000;stroke-width:1px;"/><path d="M341.098,71.087L343.283,69.995L343.384,57.086L341.098,58.229L341.098,71.087Z" style="fill:#e8a038;stroke:#000;stroke-width:1px;"/><path d="M333.157,54.258L341.098,58.229L343.384,57.086L335.516,53.152L333.157,54.258Z" style="fill:#a9a9a9;stroke:#000;stroke-width:1px;"/><path d="M334.793,56.923L339.462,59.176L337.038,60.692L337.213,65.939L337.045,60.84L334.793,56.923Z" style="fill:none;stroke:#d7d4c8;stroke-width:1px;"/><path d="M336.185,57.333L336.196,59.324L335.491,59.121L335.46,64.287L335.491,59.121L336.196,59.324L338.061,60.197L338.78,60.535L338.817,65.655L338.78,60.535L338.061,60.197L338.07,58.236L336.185,57.333Z" style="fill:none;stroke:#591265;stroke-width:1px;"/><path d="M337.128,59.454C338.52,60.151 339.651,62.384 339.651,64.439C339.651,66.493 338.52,67.596 337.128,66.9C335.735,66.204 334.604,63.97 334.604,61.915C334.604,59.861 335.735,58.758 337.128,59.454Z" style="fill:none;stroke:#d7d4c8;stroke-width:1px;"/></g><g><path d="M226.504,49.047L243.104,57.348C244.978,49.466 245.679,41.278 243.104,32.304L226.363,23.933C225.927,33.669 226.004,41.733 226.504,49.047Z" style="fill:#7536b0;stroke:#000;stroke-width:1px;"/><path d="M228.383,34.503L228.559,47.507L238.654,52.727L238.654,39.486L228.383,34.503Z" style="fill:#896a6f;"/><path d="M232.008,37.232L232.019,49.41L234.803,50.802L235.076,38.767L232.008,37.232Z" style="fill:#5012a0;"/><path d="M227.041,32.047C231.113,36.584 236.148,38.439 243.589,39.051" style="fill:none;stroke:#724b14;stroke-width:1px;"/><path d="M240.156,37.303C240.156,38.097 240.234,39.893 239.066,39.309C235.778,38.871 232.415,37.341 228.945,34.249C227.776,33.665 227.7,31.869 227.7,31.075C227.7,30.282 227.776,28.904 228.945,29.488C232.688,29.698 236.057,31.4 239.066,34.548C240.234,35.133 240.156,36.51 240.156,37.303Z" style="fill:#000f83;stroke:#574f2d;stroke-width:1px;"/><path d="M230.273,30.672L229.05,33.545L236.957,37.385L238.654,36.105L236.957,33.26L230.5,30.587" style="fill:#51599e;"/><path d="M231.944,41.062L238.413,39.246L234.087,42.006L240.157,40.045" style="fill:none;stroke:#825114;stroke-width:1px;"/><path d="M227.041,45.738C231.307,50.108 236.554,52.013 242.831,53.634" style="fill:none;stroke:#724b14;stroke-width:1px;"/><g><path d="M236.448,46.81L236.725,54.048L234.526,55.329" style="fill:none;stroke:#4e4040;stroke-width:2px;"/><path d="M231.642,53.888L237.683,56.908" style="fill:none;stroke:#4e4040;stroke-width:2px;"/></g></g><g><path d="M258.121,64.622L258.084,51.583L266.048,55.565L266.124,68.341L258.121,64.622Z" style="fill:#0027aa;stroke:#000;stroke-width:1px;"/><path d="M266.124,68.266L268.328,67.251L268.172,54.503L266.048,55.565L266.124,68.266Z" style="fill:#c56cbc;stroke:#000;stroke-width:1px;"/><path d="M258.084,51.583L266.048,55.565L268.172,54.503L260.18,50.535L258.084,51.583Z" style="fill:#c4cad6;stroke:#000;stroke-width:1px;"/><path d="M262.891,54.712L262.503,65.642L266.124,64.418L266.124,56.426L262.891,54.712Z" style="fill:#2ca258;"/><path d="M264.385,55.53C265.533,56.104 266.466,57.342 266.466,58.292C266.466,59.242 265.533,59.547 264.385,58.972C263.236,58.398 262.304,57.161 262.304,56.211C262.304,55.261 263.236,54.956 264.385,55.53Z" style="fill:#b6bb62;"/><path d="M266.293,66.747C265.91,66.556 265.551,66.29 265.242,65.986C265.295,66.163 265.323,66.337 265.323,66.502C265.323,67.452 264.391,67.757 263.242,67.183C262.094,66.608 261.161,65.371 261.161,64.421C261.161,63.471 262.094,63.166 263.242,63.74C263.625,63.932 263.984,64.197 264.293,64.501C264.241,64.324 264.212,64.15 264.212,63.985C264.212,63.476 264.48,63.152 264.906,63.05C264.739,63.002 264.565,62.934 264.385,62.844C263.236,62.27 262.304,61.032 262.304,60.082C262.304,59.132 263.236,58.827 264.385,59.401C265.533,59.976 266.466,61.213 266.466,62.163C266.466,62.672 266.198,62.996 265.772,63.099C265.939,63.146 266.113,63.215 266.293,63.305" style="fill:#b6bb62;"/><path d="M259.139,54.242L259.139,63.029L260.79,63.888L260.842,55.05L259.139,54.242Z" style="fill:#f6b5b5;stroke:#903939;stroke-width:1px;"/><path d="M258.121,64.622L258.084,51.583L266.048,55.565L266.124,68.341L258.121,64.622Z" style="fill:none;stroke:#000;stroke-width:1px;"/></g><g><path d="M287.983,67.935L288.111,75.901C288.111,77.756 289.087,78.698 291.807,78.004L292.799,72.133L293.846,78.705C295.104,80.474 296.519,80.909 298.116,79.789L297.479,71.504L300.125,72.972C301.745,72.769 302.38,71.94 302.131,70.548L295.121,65.131C296.326,64.997 297.231,62.868 297.077,60.185C294.984,55.614 290.428,54.484 287.925,57.605C287.173,59.723 287.713,61.828 288.83,63.437L283.076,64.557C282.177,65.833 282.346,66.88 283.826,67.646L287.983,67.935Z" style="fill:#ab8759;stroke:#000;stroke-width:1px;"/><path d="M289.378,61.232C290.3,62.399 291.453,63.037 293.343,62.458" style="fill:none;stroke:#000;stroke-width:1px;"/><circle cx="289.642" cy="59.252" r="0.551"/><path d="M292.868,59.738C293.165,59.698 293.455,59.912 293.517,60.216C293.578,60.521 293.388,60.8 293.092,60.84C292.796,60.88 292.505,60.666 292.444,60.361C292.382,60.057 292.572,59.778 292.868,59.738Z"/></g><g><path d="M318.766,81.865C322.593,81.865 325.7,84.389 325.7,87.497C325.7,90.606 322.593,93.13 318.766,93.13C314.938,93.13 311.831,90.606 311.831,87.497C311.831,85.496 312.593,84.072 314.532,83.072C314.786,82.941 314.472,75.77 314.579,75.225C314.774,74.234 315.738,72.194 317.128,74.577C317.273,74.826 317.309,75.201 317.434,75.545C317.743,76.397 317.468,80.844 317.63,81.94C317.685,82.309 318.379,81.865 318.766,81.865Z" style="fill:#9d9d9d;stroke:#000;stroke-width:1px;"/><path d="M312.924,89.215C313.728,90.988 314.36,90.789 314.915,89.696C316.109,91.913 317.085,91.615 317.967,90.219" style="fill:none;stroke:#000;stroke-width:1px;"/><ellipse cx="318.766" cy="87.37" rx="0.934" ry="0.759"/><ellipse cx="313.31" cy="85.665" rx="0.794" ry="0.759"/><path d="M315.045,88.099C315.483,88.199 315.838,88.575 315.838,88.939C315.838,89.303 315.483,89.517 315.045,89.417C314.606,89.317 314.251,88.941 314.251,88.577C314.251,88.213 314.606,87.999 315.045,88.099Z"/><path d="M317.434,83.363L317.584,81.633C317.584,81.633 318.59,81.481 319.339,81.766L319.255,84.202L319.627,77.061C319.654,76.788 319.602,76.411 319.703,76.181C320.379,74.631 321.573,73.839 322.663,76.612L322.098,85.447" style="fill:#9d9d9d;stroke:#000;stroke-width:1px;"/></g><g><path d="M337.09,76.468L340.204,70.565L342.395,76.148L346.024,77.038L349.654,71.611L351.962,77.88C354.454,80.837 354.13,83.325 352.074,85.524L354.494,90.061C354.924,92.682 353.852,93.433 351.166,92.179L349.049,89.759L351.166,92.179L350.864,109.117C349.59,110.831 348.234,110.097 347.575,109.389C347.264,109.054 347.205,109.191 347.035,108.298L346.932,95.506C345.616,94.814 344.938,93.949 342.224,93.638L342.593,107.27C340.643,108.163 339.153,107.784 338.765,105.79L338.462,88.247L336.043,88.852C333.655,88.703 333.044,87.744 334.53,85.827L337.09,84.617C333.681,81.347 333.762,78.643 337.09,76.468Z" style="fill:#b1b1b1;stroke:#000;stroke-width:1px;"/><path d="M340.277,80.301C339.247,82.045 339.048,83.447 340.882,84.012C341.657,83.867 341.857,82.917 341.79,81.592C341.868,83.22 342.298,84.336 343.302,84.617C344.342,83.949 344.467,82.8 343.907,81.29" style="fill:none;stroke:#000;stroke-width:1px;"/><path d="M350.259,79.037L350.864,80.08" style="fill:none;stroke:#000;stroke-width:1px;"/><circle cx="337.762" cy="79.38" r="0.698"/><path d="M336.95,77.358L336.043,78.265" style="fill:none;stroke:#000;stroke-width:1px;"/><circle cx="347.441" cy="80.892" r="0.718"/><g><path d="M344.156,92.673L344.541,109.446L342.342,110.727" style="fill:none;stroke:#4e4040;stroke-width:2px;"/><path d="M339.459,109.286L345.499,112.306" style="fill:none;stroke:#4e4040;stroke-width:2px;"/></g></g><g><path d="M371.9,121.551C368.618,118.113 365.427,114.624 363.72,110.306C362.592,106.064 367.003,101.989 371.687,107.528C371.847,107.718 372.289,107.836 372.437,107.711C373.421,106.882 376.809,106.849 379.237,110.445C379.314,110.558 379.463,110.796 379.463,110.796C381.168,113.499 380.578,114.976 379.237,116.051L371.9,121.551Z" style="fill:#b61818;stroke:#000;stroke-width:1px;"/><path d="M370.222,108.94L372.437,107.711" style="fill:none;stroke:#000;stroke-width:1px;"/><g><path d="M368.815,114.444L369.919,122.542L367.72,123.823" style="fill:none;stroke:#4e4040;stroke-width:2px;"/><path d="M364.836,122.381L370.877,125.402" style="fill:none;stroke:#4e4040;stroke-width:2px;"/></g></g></g><path d="M379.086,189.694L415.014,171.73L415.014,228.973L379.163,246.825L379.086,189.694Z" style="fill:#473a2c;stroke:#000;stroke-width:1px;"/><path d="M150.264,132.375L150.264,75.132L379.237,189.619L379.237,246.862L150.264,132.375Z" style="fill:#5f4444;stroke:#000;stroke-width:1px;"/><path d="M150.264,75.132L186.041,57.243L415.014,171.73L379.237,189.619L150.264,75.132Z" style="fill:#632b28;stroke:#000;stroke-width:1px;"/><g><g><path d="M186.259,78.605L186.707,82.538L188.682,86.502L191.313,87.391L201.018,82.538L202.207,77.571L215.329,72.894L213.042,69.371L196.856,73.302C194.841,76.334 190.727,77.617 186.259,78.605Z" style="fill:#7a623d;stroke:#000;stroke-width:1px;"/><path d="M214.261,69.98L227.607,65.76C228.853,65.786 229.408,66.427 229.011,67.913L215.329,71.899L214.261,69.98Z" style="fill:#7d7d7d;stroke:#000;stroke-width:1px;"/><path d="M206.064,74.357L205.513,75.426L202.515,76.131L203.729,74.895L206.064,74.357Z" style="fill:none;stroke:#000;stroke-width:1px;"/><path d="M186.259,78.601L188.722,81.53L189.735,84.897L201.313,79.108L202.436,73.611L213.154,70.812" style="fill:none;stroke:#000;stroke-width:1px;"/><path d="M209.018,90.539C212.967,88.564 219.38,88.564 223.33,90.539C227.279,92.513 227.279,95.72 223.33,97.694C219.38,99.669 212.967,99.669 209.018,97.694C205.068,95.72 205.068,92.513 209.018,90.539Z" style="fill:#7d7d7d;stroke:#000;stroke-width:1px;"/></g><g><path d="M232.902,100.868L233.35,104.801L235.325,108.765L237.956,109.654L247.66,104.801L248.849,99.834L261.971,95.157L259.685,91.634L243.499,95.565C241.484,98.597 237.369,99.88 232.902,100.868Z" style="fill:#7a623d;stroke:#000;stroke-width:1px;"/><path d="M260.904,92.243L274.25,88.022C275.496,88.049 276.05,88.69 275.654,90.176L261.971,94.162L260.904,92.243Z" style="fill:#7d7d7d;stroke:#000;stroke-width:1px;"/><path d="M252.706,96.62L252.156,97.689L249.157,98.394L250.372,97.158L252.706,96.62Z" style="fill:none;stroke:#000;stroke-width:1px;"/><path d="M232.902,100.863L235.365,103.793L236.378,107.16L247.956,101.371L249.078,95.874L259.797,93.074" style="fill:none;stroke:#000;stroke-width:1px;"/><path d="M255.66,112.801C259.61,110.827 266.023,110.827 269.972,112.801C273.922,114.776 273.922,117.983 269.972,119.957C266.023,121.932 259.61,121.932 255.66,119.957C251.711,117.983 251.711,114.776 255.66,112.801Z" style="fill:#7d7d7d;stroke:#000;stroke-width:1px;"/></g><g><path d="M282.639,122.077L283.087,126.01L285.062,129.974L287.693,130.862L297.398,126.01L298.587,121.043L311.709,116.366L309.422,112.842L293.236,116.774C291.221,119.806 287.107,121.089 282.639,122.077Z" style="fill:#7a623d;stroke:#000;stroke-width:1px;"/><path d="M310.641,113.452L323.987,109.231C325.233,109.258 325.788,109.899 325.392,111.385L311.709,115.371L310.641,113.452Z" style="fill:#7d7d7d;stroke:#000;stroke-width:1px;"/><path d="M302.444,117.828L301.893,118.897L298.895,119.603L300.109,118.367L302.444,117.828Z" style="fill:none;stroke:#000;stroke-width:1px;"/><path d="M282.639,122.072L285.103,125.002L286.115,128.369L297.693,122.58L298.816,117.083L309.534,114.283" style="fill:none;stroke:#000;stroke-width:1px;"/><path d="M305.398,134.01C309.347,132.035 315.76,132.035 319.71,134.01C323.659,135.985 323.659,139.191 319.71,141.166C315.76,143.141 309.347,143.141 305.398,141.166C301.448,139.191 301.448,135.985 305.398,134.01Z" style="fill:#7d7d7d;stroke:#000;stroke-width:1px;"/></g><g><path d="M332.36,151.315L332.808,155.248L334.783,159.211L337.414,160.1L347.119,155.248L348.307,150.28L361.43,145.604L359.143,142.08L342.957,146.012C340.942,149.044 336.827,150.326 332.36,151.315Z" style="fill:#7a623d;stroke:#000;stroke-width:1px;"/><path d="M360.362,142.69L373.708,138.469C374.954,138.496 375.509,139.137 375.112,140.623L361.43,144.609L360.362,142.69Z" style="fill:#7d7d7d;stroke:#000;stroke-width:1px;"/><path d="M352.165,147.066L351.614,148.135L348.616,148.841L349.83,147.605L352.165,147.066Z" style="fill:none;stroke:#000;stroke-width:1px;"/><path d="M332.36,151.31L334.823,154.24L335.836,157.607L347.414,151.818L348.537,146.321L359.255,143.521" style="fill:none;stroke:#000;stroke-width:1px;"/><path d="M355.119,163.248C359.068,161.273 365.481,161.273 369.431,163.248C373.38,165.223 373.38,168.429 369.431,170.404C365.481,172.379 359.068,172.379 355.119,170.404C351.169,168.429 351.169,165.223 355.119,163.248Z" style="fill:#7d7d7d;stroke:#000;stroke-width:1px;"/></g></g><path d="M150.264,-39.355L150.264,-96.598L379.237,17.889L379.237,75.132L150.264,-39.355Z" style="fill:#9a1715;stroke:#000;stroke-width:1px;"/><g><path d="M273.622,-27.878C286.769,-21.304 297.442,-5.294 297.442,7.853C297.442,21 286.769,26.337 273.622,19.763C260.475,13.19 249.801,-2.821 249.801,-15.968C249.801,-29.115 260.475,-34.451 273.622,-27.878Z" style="fill:#6f1a07;stroke:#000;stroke-width:1px;"/><path d="M273.622,-22.79C283.96,-17.621 292.354,-5.03 292.354,5.309C292.354,15.648 283.96,19.845 273.622,14.675C263.283,9.506 254.889,-3.085 254.889,-13.424C254.889,-23.762 263.283,-27.959 273.622,-22.79Z" style="fill:#c5c5c5;stroke:#000;stroke-width:1px;"/><path d="M273.622,-18.731C281.72,-14.682 288.295,-4.819 288.295,3.28C288.295,11.378 281.72,14.666 273.622,10.616C265.523,6.567 258.948,-3.295 258.948,-11.394C258.948,-19.493 265.523,-22.78 273.622,-18.731Z" style="fill:#6f1a07;stroke:#000;stroke-width:1px;"/><path d="M273.622,-14.496C279.383,-11.615 284.06,-4.599 284.06,1.162C284.06,6.923 279.383,9.262 273.622,6.382C267.86,3.501 263.183,-3.515 263.183,-9.277C263.183,-15.038 267.86,-17.377 273.622,-14.496Z" style="fill:#c5c5c5;stroke:#000;stroke-width:1px;"/><path d="M273.622,-10.682C277.278,-8.854 280.246,-4.401 280.246,-0.745C280.246,2.911 277.278,4.395 273.622,2.567C269.965,0.739 266.997,-3.713 266.997,-7.37C266.997,-11.026 269.965,-12.51 273.622,-10.682Z" style="fill:#6f1a07;stroke:#000;stroke-width:1px;"/></g><path d="M379.237,17.889L493.724,-25.044L493.724,121.642L379.237,178.885L379.237,17.889Z" style="fill:#9a1715;stroke:#000;stroke-width:1px;"/><path d="M493.724,-25.044L493.724,189.619" style="fill:none;stroke:#9e864c;stroke-width:5px;"/></g><g><path d="M499.875,-20.964L499.875,193.698" style="fill:none;stroke:#9e864c;stroke-width:5px;"/><path d="M728.849,308.185L728.849,250.941L499.875,136.455L499.875,193.698L728.849,308.185Z" style="fill:#392614;stroke:#000;stroke-width:1px;"/><path d="M728.849,93.522L728.849,308.185" style="fill:none;stroke:#9e864c;stroke-width:5px;"/></g><g><path d="M736.004,97.1L736.004,311.763" style="fill:none;stroke:#9e864c;stroke-width:5px;"/><path d="M964.978,426.249L964.978,369.006L736.004,254.519L736.004,311.763L964.978,426.249Z" style="fill:#392614;stroke:#000;stroke-width:1px;"/><path d="M964.978,211.587L964.978,426.249" style="fill:none;stroke:#9e864c;stroke-width:5px;"/></g><g><path d="M972.133,215.164L972.133,429.827" style="fill:none;stroke:#9e864c;stroke-width:5px;"/><path d="M1201.11,544.314L1201.11,487.07L972.133,372.584L972.133,429.827L1201.11,544.314Z" style="fill:#392614;stroke:#000;stroke-width:1px;"/><path d="M1201.11,329.651L1201.11,544.314" style="fill:none;stroke:#9e864c;stroke-width:5px;"/></g></g><defs><radialGradient id="_Radial1" cx="0" cy="0" r="1" gradientUnits="userSpaceOnUse" gradientTransform="matrix(87.1083,0,0,43.7302,84.7948,41.5522)"><stop offset="0" style="stop-color:#b86e02;stop-opacity:0.5"/><stop offset="1" style="stop-color:#3c535e;stop-opacity:0.5"/></radialGradient></defs></svg>