<?xml version="1.0" encoding="utf-8"?>
<svg version="1.1" id="Layer_1"
xmlns="http://www.w3.org/2000/svg"
xmlns:xlink="http://www.w3.org/1999/xlink"
xmlns:author="http://www.sothink.com"
width="23px" height="54px"
xml:space="preserve">
<g id="451" transform="matrix(1, 0, 0, 1, 31.9, 63.55)">
<path style="fill:#B10E0E;fill-opacity:1" d="M-20.45,-52.15L-31.4 -57.6Q-25.9 -60.35 -20.45 -63.05L-9.55 -57.6L-9.55 -36.85L-16.85 -33.2L-16.85 -12.45Q-17.45 -11.3 -18.5 -11.1L-21.2 -10.9L-22.8 -11.3L-22.8 -32.55L-20.45 -31.4L-20.45 -52.15M-24.1,-22.9L-24.1 -24.1L-24.1 -24.15L-24.1 -22.9M-24.1,-26.2L-24.1 -27.4L-24.1 -26.2M-19,-50.55L-19.6 -50.25L-19.6 -49.5L-19 -49.8L-19 -48.4L-19.5 -47.25L-19.65 -45.85L-19.5 -45Q-19.35 -44.75 -19.1 -44.9Q-18.85 -45.05 -18.75 -45.5Q-18.6 -45.95 -18.6 -46.65L-18.6 -48.15L-18.1 -48.5Q-17.45 -48.8 -17.45 -47.7L-17.6 -46.8L-18.3 -46L-18.15 -45.35Q-17.65 -45.75 -17.4 -46.25Q-17.1 -47 -17.1 -48Q-17.1 -48.85 -17.35 -49.15L-18.05 -49.25L-18.6 -48.85L-18.6 -50L-17.9 -50.35L-17.9 -51.1L-18.6 -50.75L-18.6 -52.05L-19 -51.85L-19 -50.55M-15.3,-52.25L-15.45 -50.65L-15.55 -50.65Q-16 -50.45 -16.3 -49.6L-16.6 -47.95Q-16.6 -46.7 -16.05 -46.95Q-15.55 -47.25 -15.2 -50.05L-14.5 -49.9Q-14.55 -48.5 -15.15 -47.4L-14.9 -46.95Q-14.2 -48.2 -14.15 -49.75L-13.85 -49.45L-13.65 -50.25L-14.15 -50.7L-14.15 -52.4L-14.5 -52.2L-14.5 -50.75L-15.1 -50.8L-14.9 -52.55L-14.9 -53.3L-16.2 -52.6L-16.2 -51.75L-15.3 -52.25M-17.6,-51.45L-17.85 -50.75L-17.1 -49.6L-16.9 -50.35L-17.2 -50.95L-17.6 -51.45M-11.5,-47.8L-11.8 -47.65L-11.8 -46.3L-11.5 -46.45L-11.5 -47.8M-12.2,-47.45L-12.2 -46.1L-11.9 -46.25L-11.9 -47.6L-12.2 -47.45M-13.25,-47.3L-13.25 -42.95Q-13.25 -41.85 -13.05 -41.45Q-12.9 -41.05 -12.35 -41.3Q-11.35 -41.85 -11.15 -44.55L-11.6 -44.7L-11.8 -43.05Q-11.95 -42.4 -12.25 -42.25L-12.75 -42.2L-12.9 -43.15L-12.9 -47.5L-13.25 -47.3M-14.35,-46.95L-15.3 -43.85L-15.55 -42.9L-15.25 -41.95L-14.3 -40.05L-14 -40.85L-14.5 -41.9L-15.1 -42.85L-15.2 -43L-15.05 -43.5L-14.05 -46.55L-14.35 -46.95M-16.2,-48L-16.1 -49.1L-15.55 -49.9Q-15.8 -47.95 -16.05 -47.8L-16.2 -48M-19,-46.4L-19.1 -45.7Q-19.3 -45.55 -19.3 -46.05L-19.25 -46.8L-19 -47.65L-19 -46.4M-13.2,-39.45L-17.55 -37.3L-17.55 -35.15L-13.2 -37.3L-13.2 -39.45" />
<path style="fill:#FFFFFF;fill-opacity:1" d="M-19,-51.85L-18.6 -52.05L-18.6 -50.75L-17.9 -51.1L-17.9 -50.35L-18.6 -50L-18.6 -48.85L-18.05 -49.25L-17.35 -49.15Q-17.1 -48.85 -17.1 -48Q-17.1 -47 -17.4 -46.25Q-17.65 -45.75 -18.15 -45.35L-18.3 -46L-17.6 -46.8L-17.45 -47.7Q-17.45 -48.8 -18.1 -48.5L-18.6 -48.15L-18.6 -46.65Q-18.6 -45.95 -18.75 -45.5Q-18.85 -45.05 -19.1 -44.9Q-19.35 -44.75 -19.5 -45L-19.65 -45.85L-19.5 -47.25L-19 -48.4L-19 -49.8L-19.6 -49.5L-19.6 -50.25L-19 -50.55L-19 -51.85M-16.2,-51.75L-16.2 -52.6L-14.9 -53.3L-14.9 -52.55L-15.1 -50.8L-14.5 -50.75L-14.5 -52.2L-14.15 -52.4L-14.15 -50.7L-13.65 -50.25L-13.85 -49.45L-14.15 -49.75Q-14.2 -48.2 -14.9 -46.95L-15.15 -47.4Q-14.55 -48.5 -14.5 -49.9L-15.2 -50.05Q-15.55 -47.25 -16.05 -46.95Q-16.6 -46.7 -16.6 -47.95L-16.3 -49.6Q-16 -50.45 -15.55 -50.65L-15.45 -50.65L-15.3 -52.25L-16.2 -51.75M-17.2,-50.95L-16.9 -50.35L-17.1 -49.6L-17.85 -50.75L-17.6 -51.45L-17.2 -50.95M-11.5,-46.45L-11.8 -46.3L-11.8 -47.65L-11.5 -47.8L-11.5 -46.45M-11.9,-47.6L-11.9 -46.25L-12.2 -46.1L-12.2 -47.45L-11.9 -47.6M-12.9,-47.5L-12.9 -43.15L-12.75 -42.2L-12.25 -42.25Q-11.95 -42.4 -11.8 -43.05L-11.6 -44.7L-11.15 -44.55Q-11.35 -41.85 -12.35 -41.3Q-12.9 -41.05 -13.05 -41.45Q-13.25 -41.85 -13.25 -42.95L-13.25 -47.3L-12.9 -47.5M-14.05,-46.55L-15.05 -43.5L-15.2 -43L-15.1 -42.85L-14.5 -41.9L-14 -40.85L-14.3 -40.05L-15.25 -41.95L-15.55 -42.9L-15.3 -43.85L-14.35 -46.95L-14.05 -46.55M-16.05,-47.8Q-15.8 -47.95 -15.55 -49.9L-16.1 -49.1L-16.2 -48L-16.05 -47.8M-19,-47.65L-19.25 -46.8L-19.3 -46.05Q-19.3 -45.55 -19.1 -45.7L-19 -46.4L-19 -47.65" />
<path style="fill:#000000;fill-opacity:1" d="M-13.2,-37.3L-17.55 -35.15L-17.55 -37.3L-13.2 -39.45L-13.2 -37.3" />
<path style="fill:#890C0C;fill-opacity:1" d="M-20.45,-31.4L-22.8 -32.55L-22.8 -11.3Q-23.5 -11.7 -24.15 -12.45L-24.1 -22.9L-24.1 -24.15L-24.05 -24.2L-23.9 -24.3L-23.7 -25.15L-23.8 -25.8L-24.1 -26.2L-24.1 -27.4L-24.1 -33.2L-31.4 -36.85L-31.4 -57.6L-20.45 -52.15L-20.45 -31.4" />
<path style="fill:none;stroke-width:1;stroke-linecap:round;stroke-linejoin:round;stroke-miterlimit:3;stroke:#2B0000;stroke-opacity:1" d="M-24.1,-26.2L-24.1 -27.4M-13.2,-37.3L-17.55 -35.15L-17.55 -37.3L-13.2 -39.45L-13.2 -37.3" />
<path style="fill:none;stroke-width:1;stroke-linecap:round;stroke-linejoin:round;stroke-miterlimit:3;stroke:#2B0000;stroke-opacity:1" d="M-16.85,-12.45Q-17.45 -11.3 -18.5 -11.1L-21.2 -10.9L-22.8 -11.3Q-23.5 -11.7 -24.15 -12.45" />
<path style="fill:none;stroke-width:1;stroke-linecap:round;stroke-linejoin:round;stroke-miterlimit:3;stroke:#480000;stroke-opacity:1" d="M-9.55,-57.6L-20.45 -63.05Q-25.9 -60.35 -31.4 -57.6L-20.45 -52.15L-9.55 -57.6L-9.55 -36.85L-16.85 -33.2L-16.85 -12.45M-24.15,-12.45L-24.1 -22.9L-24.1 -24.1M-24.1,-24.15L-24.1 -26.2M-24.1,-27.4L-24.1 -33.2L-31.4 -36.85L-31.4 -57.6M-20.45,-52.15L-20.45 -31.4L-22.8 -32.55L-24.1 -33.2M-24.1,-24.15L-24.1 -22.9M-24.1,-27.4L-24.1 -26.2M-20.45,-31.4L-16.85 -33.2" />
</g>
</svg>
