<?xml version="1.0" encoding="utf-8"?>
<svg version="1.1" id="Layer_1"
xmlns="http://www.w3.org/2000/svg"
xmlns:xlink="http://www.w3.org/1999/xlink"
xmlns:author="http://www.sothink.com"
width="21px" height="10px"
xml:space="preserve">
<g id="741" transform="matrix(1, 0, 0, 1, 1.25, 41.3)">
<path style="fill:#FFFFFF;fill-opacity:0.101961" d="M19.25,-40.3Q19 -38.75 18 -38.75Q17 -38.75 17 -39.9Q17 -41.05 18.1 -41.25Q19.25 -41.45 19.25 -40.3M0.75,-31.55L-1.25 -31.5L-0.15 -31.75L0.75 -31.55M5.25,-32.15Q5.25 -33.35 6.6 -33.2Q7.9 -33 8 -32.05L4.7 -31.8L5.25 -32.15M12.15,-33L12.3 -32.7L12.5 -32.75L13.15 -32.7L9.6 -32.2Q9.8 -32.8 10.35 -33.1Q8.85 -33.45 8.85 -35.05Q8.85 -37.85 11.85 -38.35L12.8 -38.4Q13.35 -39 14.45 -38.95Q16.6 -38.95 16.6 -36.95Q16.5 -35.2 14.8 -35L14.5 -34.15Q13.9 -33.2 12.15 -33" />
</g>
</svg>
