<?xml version="1.0" encoding="utf-8"?>
<svg version="1.1" id="Layer_1"
xmlns="http://www.w3.org/2000/svg"
xmlns:xlink="http://www.w3.org/1999/xlink"
xmlns:author="http://www.sothink.com"
width="10px" height="107px"
xml:space="preserve">
<g id="382" transform="matrix(1, 0, 0, 1, 3.35, 52.2)">
<path style="fill:#AD6825;fill-opacity:1" d="M1.65,54.15L1.65 -47.2L2.55 -47.65L1.65 -47.25L1.65 -47.3L-0.15 -48.15Q0.75 -47.75 1.6 -47.3L1.6 54.15L1.6 54.2L-0.4 53.2L-0.4 -34.95L0.45 -35.4L0.55 -35.45L0.55 -38.7L-0.4 -39.2L-3.1 -40.55L-3.1 -49.6L-3.05 -49.65L-2.95 -49.7L1.5 -51.95L6.15 -49.65L6.3 -49.55L6.35 -49.55L6.35 -40.45L3.65 -39.1L3.65 -39.15L2.7 -38.65L2.7 -35.35L2.8 -35.3L3.65 -34.9L3.65 53.2L1.7 54.2L1.65 54.15" />
<path style="fill:none;stroke-width:0.5;stroke-linecap:round;stroke-linejoin:round;stroke-miterlimit:3;stroke:#633612;stroke-opacity:1" d="M-2.95,-49.7L1.5 -51.95L6.15 -49.65M1.65,-47.25L2.55 -47.65L6.3 -49.55L6.35 -49.55L6.35 -40.45L3.65 -39.1L2.7 -38.65L2.7 -35.35L2.8 -35.3L3.65 -34.9M1.7,54.2L1.65 54.2L1.65 54.15M1.65,-47.3L-0.15 -48.15Q0.75 -47.75 1.6 -47.3M1.6,54.15L1.6 54.2L-0.4 53.2L-0.4 -34.95L0.45 -35.4L0.55 -35.45L0.55 -38.7L-0.4 -39.2L-3.1 -40.55L-3.1 -49.6L-3.05 -49.65M-0.15,-48.15L-3.05 -49.65" />
<path style="fill:none;stroke-width:0.5;stroke-linecap:round;stroke-linejoin:round;stroke-miterlimit:3;stroke:#944B1D;stroke-opacity:1" d="M1.65,54.15L1.65 -47.2L1.65 -47.25L1.65 -47.3" />
<path style="fill:none;stroke-width:0.5;stroke-linecap:round;stroke-linejoin:round;stroke-miterlimit:3;stroke:#49250E;stroke-opacity:1" d="M3.65,-34.9L3.65 53.2L1.7 54.2" />
</g>
</svg>
