<?xml version="1.0" encoding="utf-8"?>
<svg version="1.1" id="Layer_1"
xmlns="http://www.w3.org/2000/svg"
xmlns:xlink="http://www.w3.org/1999/xlink"
xmlns:author="http://www.sothink.com"
width="41px" height="11px"
xml:space="preserve">
<g id="500" transform="matrix(1, 0, 0, 1, 16.2, 25.9)">
<path style="fill:#FFFFFF;fill-opacity:1" d="M7.25,-19.8L10.8 -19.6L8.05 -20L7.25 -19.8M6.05,-20.35L4.75 -19.9L5.35 -19.9L6.95 -20.2L6.05 -20.35M6.4,-23.55Q5.15 -22.2 2.15 -21.6L6.1 -20.7L7.05 -20.8L6.65 -20.6L8.05 -20.4L12.55 -21.15L9.1 -20.25L13.2 -19.95L24.35 -19.45Q18.1 -18.85 12.05 -19.45Q6.85 -18.4 2 -18.65L-2.65 -17.75L1.95 -17.2Q6.45 -16.85 10.1 -15.05Q2.8 -15.7 -4.65 -17.35L-8.65 -17.1L-10.3 -16.5Q-7.45 -15.3 -4.25 -16L-0.65 -16.2Q-4.25 -15.2 -8.05 -15.65L-10.95 -16.3L-12.9 -15.65L-11.05 -16.35Q-11.45 -16.6 -11.15 -16.9L-10.5 -16.6L-9.25 -17.1L-11.95 -17.55L-7.35 -18L-9.95 -18.7Q-12.55 -19.4 -14.05 -20.2L-15.95 -20.3L-14.3 -20.35L-15.05 -20.9L-13.6 -20.4L-8.55 -20.8Q-11.65 -21.95 -14.6 -23.75L-16 -24.75Q-16.4 -25.1 -15.95 -25.15Q-11.9 -22.2 -7.25 -20.95L-0.35 -22Q-3.85 -23.1 -7.3 -24.65Q-8.8 -25.35 -8.65 -25.9Q-4.3 -23.55 0.3 -22.1L1.25 -22.3L1.9 -22.7L3.3 -23.8L2.5 -22.6L6.1 -23.45L6.4 -23.55M4.8,-20.6L1.4 -21.45L1.35 -21.45L-0.55 -20.25L2.4 -20.45L4.8 -20.6M-2.75,-20.15L-0.85 -21.15L-5.9 -20.6L-2.9 -20.15L-2.75 -20.15M-1.35,-18.95L-3.6 -18.95L-5.55 -18.25L-5.5 -18.25L-0.75 -18.9L-1.35 -18.95M-7.65,-20.5L-13 -20.25L-13.15 -20.25L-6.35 -18.4L-4.95 -19.05L-5.35 -19.1L-11.45 -19.95L-6.3 -20.05L-7.65 -20.5" />
</g>
</svg>
