<?xml version="1.0" encoding="utf-8"?>
<svg version="1.1" id="Layer_1"
xmlns="http://www.w3.org/2000/svg"
xmlns:xlink="http://www.w3.org/1999/xlink"
xmlns:author="http://www.sothink.com"
width="102px" height="58px"
xml:space="preserve">
<g id="650" transform="matrix(1, 0, 0, 1, 74.1, 70.1)">
<path style="fill:#DBC18E;fill-opacity:1" d="M6.9,-63.25L12.75 -64.9L25.15 -65.15L25.65 -60.75L18 -55.25L16.15 -56.5L13.5 -58.75L12.5 -61.15L5.75 -61.5L4.4 -60.25L4.5 -58.15L0.9 -57.75L2.9 -56.4L5.15 -57.25L5 -58.25L7.9 -57.15L7.9 -54.9L11.75 -51.5L10.15 -51.15L6.5 -46.65L5.5 -44.75L5.15 -45.25L-0.75 -45.4L-0.35 -43.4L2.15 -43.4L4.25 -41.4L1.9 -42.25L-1 -42.5L-4.35 -45L-6.6 -52L-7.75 -52.15L-10.1 -55.65L-17.85 -55.15L-16.75 -56.9L-18.1 -58.15L-12.6 -58L-6.5 -59.75L-2.25 -59L0.25 -60L-0.05 -60.85L5.5 -63.15L6.9 -63.25M3,-39.65L7.1 -41.45L19.25 -35.4L15.5 -27.9L7.5 -22.75L4 -18L2.9 -18.4L6.15 -29.75L4.9 -29.9L1.65 -37.5L3 -39.65M-31.4,-58.8L-19.2 -56.65L-28.6 -55.4L-27.2 -54.8L-29.6 -50L-29.4 -47.8L-30.7 -49.1L-30 -46.8L-31.6 -45L-32.8 -41.4L-34.4 -40.8L-31.2 -34L-30.2 -33.2L-31.8 -33.8L-36.8 -44.4L-38 -44.6L-38.4 -44.6L-41.8 -39.2L-44.2 -44.8L-49.6 -47.6L-47 -46L-50 -44L-54.6 -47.2L-50.2 -43L-50.2 -40L-53.4 -38.4L-54.2 -35.8L-55 -30.6L-56.8 -25.8L-62 -23.8L-64 -26.8L-64.4 -40.4L-67.8 -40L-69.6 -40.6L-71.4 -43.4L-69.6 -46.6L-68 -47.8L-58 -47.4L-55 -48L-58.2 -48.8L-55.8 -50.4L-57.2 -50.6L-58.4 -49.2L-62.8 -50.4L-69.6 -47.4L-69.4 -49.4L-66.4 -56L-62 -56.4L-65.2 -56.6L-64 -58.8L-57.4 -60.6L-50.6 -59L-44 -58.8L-38 -59.4L-31.4 -58.8M-25.5,-38.25L-25.25 -34.65L-26.7 -38.25L-25.5 -38.25M-29.2,-47.6Q-28.2 -48.1 -27.25 -48.55L-27.2 -47.9L-29.6 -46.05L-29.6 -47.4L-29.2 -47.6M-29.3,-35.6L-26.2 -34.2L-28.85 -33.15L-29.3 -35.6M-24,-34.65L-19.85 -33.25L-23.5 -32.65L-24 -34.65M-24.35,-30.65L-16.85 -25.5L-18.75 -20.4L-25.1 -22.15L-28.1 -21L-31.35 -20.75L-32 -27.4L-24.35 -30.65M-12.4,-21.45L-13 -19.5L-15.85 -18.5L-12.4 -21.45" />
<path style="fill:#E3CFA8;fill-opacity:1" d="M5.5,-63.15L-0.05 -60.85L0.25 -60L-2.25 -59L-6.5 -59.75L-12.6 -58L-18.1 -58.15L-16.75 -56.9L-17.85 -55.15L-10.1 -55.65L-7.75 -52.15L-6.6 -52L-4.35 -45L-1 -42.5L1.9 -42.25L4.25 -41.4L2.15 -43.4L-0.35 -43.4L-0.75 -45.4L5.15 -45.25L5.5 -44.75L6.5 -46.65L10.15 -51.15L11.75 -51.5L7.9 -54.9L7.9 -57.15L5 -58.25L5.15 -57.25L2.9 -56.4L0.9 -57.75L4.5 -58.15L4.4 -60.25L5.75 -61.5L12.5 -61.15L13.5 -58.75L16.15 -56.5L18 -55.25L25.65 -60.75L25.15 -65.15L12.75 -64.9L6.9 -63.25L5.5 -63.15M-74,-13L-74 -54.9L-72.5 -54.4L-74 -56.15L-74 -56.95L-71.35 -55.9L-74 -57.85L-74 -70L-62.45 -70L-61.5 -67.65L-61.6 -69.5L-61 -68.75L-61.1 -70L27 -70L27 -42.4L25.5 -41.9L27 -41.55L27 -13L26.4 -13L24.5 -16.55L24.5 -15.25L22.5 -17L22.4 -14.5L21.9 -15.75L22 -13L-15.2 -13L-15.85 -14.75L-16 -13.9L-16.25 -15.15L-17.05 -13L-63.65 -13L-63.35 -16.5L-65.25 -13.75L-65.1 -15L-66.2 -13L-74 -13M1.65,-37.5L4.9 -29.9L6.15 -29.75L2.9 -18.4L4 -18L7.5 -22.75L15.5 -27.9L19.25 -35.4L7.1 -41.45L3 -39.65L1.65 -37.5M-38,-59.4L-44 -58.8L-50.6 -59L-57.4 -60.6L-64 -58.8L-65.2 -56.6L-62 -56.4L-66.4 -56L-69.4 -49.4L-69.6 -47.4L-62.8 -50.4L-58.4 -49.2L-57.2 -50.6L-55.8 -50.4L-58.2 -48.8L-55 -48L-58 -47.4L-68 -47.8L-69.6 -46.6L-71.4 -43.4L-69.6 -40.6L-67.8 -40L-64.4 -40.4L-64 -26.8L-62 -23.8L-56.8 -25.8L-55 -30.6L-54.2 -35.8L-53.4 -38.4L-50.2 -40L-50.2 -43L-54.6 -47.2L-50 -44L-47 -46L-49.6 -47.6L-44.2 -44.8L-41.8 -39.2L-38.4 -44.6L-38 -44.6L-36.8 -44.4L-31.8 -33.8L-30.2 -33.2L-31.2 -34L-34.4 -40.8L-32.8 -41.4L-31.6 -45L-30 -46.8L-30.7 -49.1L-29.4 -47.8L-29.6 -50L-27.2 -54.8L-28.6 -55.4L-19.2 -56.65L-31.4 -58.8L-38 -59.4M-26.7,-38.25L-25.25 -34.65L-25.5 -38.25L-26.7 -38.25M-29.6,-47.4L-29.6 -46.05L-27.2 -47.9L-27.25 -48.55Q-28.2 -48.1 -29.2 -47.6L-29.6 -47.4M-28.85,-33.15L-26.2 -34.2L-29.3 -35.6L-28.85 -33.15M-23.5,-32.65L-19.85 -33.25L-24 -34.65L-23.5 -32.65M-32,-27.4L-31.35 -20.75L-28.1 -21L-25.1 -22.15L-18.75 -20.4L-16.85 -25.5L-24.35 -30.65L-32 -27.4M-15.85,-18.5L-13 -19.5L-12.4 -21.45L-15.85 -18.5" />
<path style="fill:none;stroke-width:0.25;stroke-linecap:round;stroke-linejoin:round;stroke-miterlimit:3;stroke:#660000;stroke-opacity:1" d="M5.5,-63.15L-0.05 -60.85L0.25 -60L-2.25 -59L-6.5 -59.75L-12.6 -58L-18.1 -58.15L-16.75 -56.9L-17.85 -55.15L-10.1 -55.65L-7.75 -52.15L-6.6 -52L-4.35 -45L-1 -42.5L1.9 -42.25L4.25 -41.4L2.15 -43.4L-0.35 -43.4L-0.75 -45.4L5.15 -45.25L5.5 -44.75L6.5 -46.65L10.15 -51.15L11.75 -51.5L7.9 -54.9L7.9 -57.15L5 -58.25L5.15 -57.25L2.9 -56.4L0.9 -57.75L4.5 -58.15L4.4 -60.25L5.75 -61.5L12.5 -61.15L13.5 -58.75L16.15 -56.5L18 -55.25L25.65 -60.75L25.15 -65.15L12.75 -64.9L6.9 -63.25L5.5 -63.15M-74,-13L-74 -54.9L-72.5 -54.4L-74 -56.15L-74 -56.95L-71.35 -55.9L-74 -57.85L-74 -70L-62.45 -70L-61.5 -67.65L-61.6 -69.5L-61 -68.75L-61.1 -70L27 -70L27 -42.4L25.5 -41.9L27 -41.55L27 -13M26.4,-13L24.5 -16.55L24.5 -15.25L22.5 -17L22.4 -14.5L21.9 -15.75L22 -13M-15.2,-13L-15.85 -14.75L-16 -13.9L-16.25 -15.15L-17.05 -13M-63.65,-13L-63.35 -16.5L-65.25 -13.75L-65.1 -15L-66.2 -13M1.65,-37.5L4.9 -29.9L6.15 -29.75L2.9 -18.4L4 -18L7.5 -22.75L15.5 -27.9L19.25 -35.4L7.1 -41.45L3 -39.65L1.65 -37.5M24.5,-16.55L24.5 -16.9M-38,-59.4L-44 -58.8L-50.6 -59L-57.4 -60.6L-64 -58.8L-65.2 -56.6L-62 -56.4L-66.4 -56L-69.4 -49.4L-69.6 -47.4L-62.8 -50.4L-58.4 -49.2L-57.2 -50.6L-55.8 -50.4L-58.2 -48.8L-55 -48L-58 -47.4L-68 -47.8L-69.6 -46.6L-71.4 -43.4L-69.6 -40.6L-67.8 -40L-64.4 -40.4L-64 -26.8L-62 -23.8L-56.8 -25.8L-55 -30.6L-54.2 -35.8L-53.4 -38.4L-50.2 -40L-50.2 -43L-54.6 -47.2L-50 -44L-47 -46L-49.6 -47.6L-44.2 -44.8L-41.8 -39.2L-38.4 -44.6L-38 -44.6L-36.8 -44.4L-31.8 -33.8L-30.2 -33.2L-31.2 -34L-34.4 -40.8L-32.8 -41.4L-31.6 -45L-30 -46.8L-30.7 -49.1L-29.4 -47.8L-29.6 -50L-27.2 -54.8L-28.6 -55.4L-19.2 -56.65L-31.4 -58.8L-38 -59.4M-26.7,-38.25L-25.25 -34.65L-25.5 -38.25L-26.7 -38.25M-29.2,-47.6Q-28.2 -48.1 -27.25 -48.55L-27.2 -47.9L-29.6 -46.05L-29.6 -47.4L-29.2 -47.6L-29.4 -47.8M-28.85,-33.15L-26.2 -34.2L-29.3 -35.6L-28.85 -33.15M-23.5,-32.65L-19.85 -33.25L-24 -34.65L-23.5 -32.65" />
<path style="fill:none;stroke-width:0.25;stroke-linecap:round;stroke-linejoin:round;stroke-miterlimit:3;stroke:#660000;stroke-opacity:1" d="M27,-13L26.4 -13M22,-13L-15.2 -13M-17.05,-13L-63.65 -13M-66.2,-13L-74 -13M-32,-27.4L-31.35 -20.75L-28.1 -21L-25.1 -22.15L-18.75 -20.4L-16.85 -25.5L-24.35 -30.65L-32 -27.4M-15.85,-18.5L-13 -19.5L-12.4 -21.45L-15.85 -18.5" />
</g>
</svg>
