<?xml version="1.0" encoding="utf-8"?>
<svg version="1.1" id="Layer_1"
xmlns="http://www.w3.org/2000/svg"
xmlns:xlink="http://www.w3.org/1999/xlink"
xmlns:author="http://www.sothink.com"
width="478px" height="161px"
xml:space="preserve">
<g id="486" transform="matrix(1, 0, 0, 1, 236.95, 63.35)">
<path style="fill:#C1712F;fill-opacity:1" d="M-96.1,-12.25L-96.1 -17.3L-4.45 -63.1L-4.45 -58.1Q-50.25 -35.15 -96.1 -12.25" />
<path style="fill:#C87B31;fill-opacity:1" d="M-4.45,-58.1L-4.45 -53.05L-4.45 -48.1L-96.1 -2.3L-96.1 -7.25L-96.1 -12.25Q-50.25 -35.15 -4.45 -58.1M-96.1,7.7L-96.1 2.7Q-50.25 -20.2 -4.45 -43.15L-4.45 -38.1L-96.1 7.7" />
<path style="fill:#D08337;fill-opacity:1" d="M-96.1,2.7L-96.1 -2.3L-4.45 -48.1L-4.45 -43.15Q-50.25 -20.2 -96.1 2.7M-4.45,-38.1L-4.45 -33.15Q-50.25 -10.2 -96.1 12.7L-96.1 7.7L-4.45 -38.1" />
<path style="fill:#D78644;fill-opacity:1" d="M-4.45,-28.15L-4.45 -23.15L-96.1 22.65L-96.1 17.7Q-50.25 -5.2 -4.45 -28.15" />
<path style="fill:#D38434;fill-opacity:1" d="M-96.1,17.7L-96.1 12.7Q-50.25 -10.2 -4.45 -33.15L-4.45 -28.15Q-50.25 -5.2 -96.1 17.7" />
<path style="fill:none;stroke-width:0.5;stroke-linecap:round;stroke-linejoin:round;stroke-miterlimit:3;stroke:#49250E;stroke-opacity:1" d="M-96.1,-2.3L-4.45 -48.1M-4.45,-53.05L-96.1 -7.25M-96.1,-17.3L-4.45 -63.1M-4.45,-23.15L-96.1 22.65M-4.45,-33.15Q-50.25 -10.2 -96.1 12.7M-4.45,-58.1Q-50.25 -35.15 -96.1 -12.25M-4.45,-28.15Q-50.25 -5.2 -96.1 17.7M-4.45,-43.15Q-50.25 -20.2 -96.1 2.7M-96.1,7.7L-4.45 -38.1" />
<path style="fill:#C1712F;fill-opacity:1" d="M-176.1,27.75L-176.1 22.7L-84.45 -23.1L-84.45 -18.1L-176.1 27.75" />
<path style="fill:#D08337;fill-opacity:1" d="M-176.1,42.7L-176.1 37.7L-84.45 -8.1L-84.45 -3.15L-176.1 42.7M-84.45,1.9L-84.45 6.85L-176.1 52.7L-176.1 47.7L-84.45 1.9" />
<path style="fill:#C87B31;fill-opacity:1" d="M-176.1,37.7L-176.1 32.75L-176.1 27.75L-84.45 -18.1L-84.45 -13.05L-84.45 -8.1L-176.1 37.7M-84.45,-3.15L-84.45 1.9L-176.1 47.7L-176.1 42.7L-84.45 -3.15" />
<path style="fill:#D78644;fill-opacity:1" d="M-84.45,11.85L-84.45 16.85L-176.1 62.65L-176.1 57.7L-84.45 11.85" />
<path style="fill:#D38434;fill-opacity:1" d="M-176.1,57.7L-176.1 52.7L-84.45 6.85L-84.45 11.85L-176.1 57.7" />
<path style="fill:none;stroke-width:0.5;stroke-linecap:round;stroke-linejoin:round;stroke-miterlimit:3;stroke:#49250E;stroke-opacity:1" d="M-84.45,16.85L-176.1 62.65M-176.1,22.7L-84.45 -23.1M-84.45,-18.1L-176.1 27.75M-84.45,6.85L-176.1 52.7M-176.1,57.7L-84.45 11.85M-84.45,1.9L-176.1 47.7M-84.45,-8.1L-176.1 37.7M-176.1,42.7L-84.45 -3.15M-84.45,-13.05L-176.1 32.75" />
<path style="fill:#C1712F;fill-opacity:1" d="M-236.1,57.75L-236.1 52.7L-144.45 6.9L-144.45 11.9L-236.1 57.75" />
<path style="fill:#D78644;fill-opacity:1" d="M-144.45,41.85L-144.45 46.85L-236.1 92.65L-236.1 87.7L-144.45 41.85" />
<path style="fill:#D38434;fill-opacity:1" d="M-144.45,36.85L-144.45 41.85L-236.1 87.7L-236.1 82.7L-144.45 36.85" />
<path style="fill:#D08337;fill-opacity:1" d="M-236.1,72.7L-236.1 67.7L-144.45 21.9L-144.45 26.85L-236.1 72.7M-236.1,82.7L-236.1 77.7L-144.45 31.9L-144.45 36.85L-236.1 82.7" />
<path style="fill:#C87B31;fill-opacity:1" d="M-236.1,67.7L-236.1 62.75L-236.1 57.75L-144.45 11.9L-144.45 16.95L-144.45 21.9L-236.1 67.7M-236.1,77.7L-236.1 72.7L-144.45 26.85L-144.45 31.9L-236.1 77.7" />
<path style="fill:none;stroke-width:0.5;stroke-linecap:round;stroke-linejoin:round;stroke-miterlimit:3;stroke:#49250E;stroke-opacity:1" d="M-144.45,46.85L-236.1 92.65M-236.1,52.7L-144.45 6.9M-144.45,11.9L-236.1 57.75M-236.1,67.7L-144.45 21.9M-144.45,41.85L-236.1 87.7M-144.45,26.85L-236.1 72.7M-236.1,77.7L-144.45 31.9M-144.45,36.85L-236.1 82.7M-144.45,16.95L-236.1 62.75" />
<path style="fill:#E2E7E5;fill-opacity:1" d="M-236.95,14.7L-236.95 11.75L-204.15 -4.65L-204.15 -1.7L-236.95 14.7M-204.15,72.1L-204.15 76.7L-236.95 93.1L-236.95 88.5L-204.15 72.1" />
<path style="fill:#D8DCDB;fill-opacity:1" d="M-236.95,11.75L-236.95 7.05L-204.15 -9.35L-204.15 -4.65L-236.95 11.75M-204.15,76.7L-204.15 78.65L-236.95 95.05L-236.95 93.1L-204.15 76.7" />
<path style="fill:#F1F1EE;fill-opacity:1" d="M-236.95,25.2L-236.95 22.2L-204.15 5.8L-204.15 8.8L-236.95 25.2M-236.95,81L-236.95 78L-204.15 61.6L-204.15 64.6L-236.95 81" />
<path style="fill:#ECEEEB;fill-opacity:1" d="M-236.95,22.2L-236.95 18.7L-204.15 2.3L-204.15 5.8L-236.95 22.2M-204.15,64.6L-204.15 68.1L-236.95 84.5L-236.95 81L-204.15 64.6" />
<path style="fill:#E7EAE7;fill-opacity:1" d="M-204.15,-1.7L-204.15 2.3L-236.95 18.7L-236.95 14.7L-204.15 -1.7M-236.95,88.5L-236.95 84.5L-204.15 68.1L-204.15 72.1L-236.95 88.5" />
<path style="fill:#F1F1EF;fill-opacity:1" d="M-236.95,78L-236.95 25.2L-204.15 8.8L-204.15 61.6L-236.95 78" />
<path style="fill:#C1712F;fill-opacity:1" d="M160.6,21.75Q114.8 -1.15 68.95 -24.1L68.95 -29.1L160.6 16.7L160.6 21.75" />
<path style="fill:#C87B31;fill-opacity:1" d="M160.6,31.7L68.95 -14.1L68.95 -19.05L68.95 -24.1Q114.8 -1.15 160.6 21.75L160.6 26.75L160.6 31.7M68.95,-4.1L68.95 -9.15L160.6 36.7L160.6 41.7L68.95 -4.1" />
<path style="fill:#D08337;fill-opacity:1" d="M160.6,31.7L160.6 36.7L68.95 -9.15L68.95 -14.1L160.6 31.7M68.95,0.85L68.95 -4.1L160.6 41.7L160.6 46.7L68.95 0.85" />
<path style="fill:#D78644;fill-opacity:1" d="M160.6,51.7L160.6 56.65L68.95 10.85L68.95 5.85L160.6 51.7" />
<path style="fill:#D38434;fill-opacity:1" d="M160.6,46.7L160.6 51.7L68.95 5.85L68.95 0.85L160.6 46.7" />
<path style="fill:none;stroke-width:0.5;stroke-linecap:round;stroke-linejoin:round;stroke-miterlimit:3;stroke:#49250E;stroke-opacity:1" d="M68.95,-19.05L160.6 26.75M160.6,21.75Q114.8 -1.15 68.95 -24.1M68.95,-29.1L160.6 16.7M68.95,-9.15L160.6 36.7M160.6,31.7L68.95 -14.1M160.6,56.65L68.95 10.85M68.95,-4.1L160.6 41.7M68.95,5.85L160.6 51.7M68.95,0.85L160.6 46.7" />
<path style="fill:#C1712F;fill-opacity:1" d="M148.95,10.9L240.6 56.7L240.6 61.75L148.95 15.9L148.95 10.9" />
<path style="fill:#C87B31;fill-opacity:1" d="M148.95,15.9L240.6 61.75L240.6 66.75L240.6 71.7L148.95 25.9L148.95 20.95L148.95 15.9M148.95,35.9L148.95 30.85L240.6 76.7L240.6 81.7L148.95 35.9" />
<path style="fill:#D78644;fill-opacity:1" d="M240.6,91.7L240.6 96.65L148.95 50.85L148.95 45.85L240.6 91.7" />
<path style="fill:#D38434;fill-opacity:1" d="M148.95,45.85L148.95 40.85L240.6 86.7L240.6 91.7L148.95 45.85" />
<path style="fill:#D08337;fill-opacity:1" d="M148.95,30.85L148.95 25.9L240.6 71.7L240.6 76.7L148.95 30.85M240.6,81.7L240.6 86.7L148.95 40.85L148.95 35.9L240.6 81.7" />
<path style="fill:none;stroke-width:0.5;stroke-linecap:round;stroke-linejoin:round;stroke-miterlimit:3;stroke:#49250E;stroke-opacity:1" d="M240.6,66.75L148.95 20.95M148.95,25.9L240.6 71.7M240.6,96.65L148.95 50.85M240.6,61.75L148.95 15.9M240.6,56.7L148.95 10.9M240.6,76.7L148.95 30.85M148.95,40.85L240.6 86.7M240.6,91.7L148.95 45.85M148.95,35.9L240.6 81.7" />
</g>
</svg>
