<?xml version="1.0" encoding="utf-8"?>
<svg version="1.1" id="Layer_1"
xmlns="http://www.w3.org/2000/svg"
xmlns:xlink="http://www.w3.org/1999/xlink"
xmlns:author="http://www.sothink.com"
width="44px" height="24px"
xml:space="preserve">
<g id="556" transform="matrix(1, 0, 0, 1, -16.75, -5.65)">
<path style="fill:#FFFFFF;fill-opacity:0.0509804" d="M43.85,11.05Q43.65 12 43.1 12.75Q42.55 13.5 42.3 14.35Q42 15.2 41.25 15.7L41 16.6L40.3 17.05Q40.05 18.15 38.7 18.25L37.95 18.45L37.25 18.75Q36.8 20.05 35.25 20.45L34.05 20.8L33.05 21.05Q31.3 22.6 29.05 22.95L28 23.6L27.65 23.65Q26.95 24.35 26.55 23.85L25.3 23.8L24.85 23.75Q21.65 23.9 19.45 22.1Q19.15 21.85 19.35 21.45Q19.85 20.25 21.25 20.25L27.75 19.65L34.1 16.35L35.05 15.55Q36.8 13.45 38.7 11.65L38.75 11.15Q38 8.05 40 5.9L40.45 5.65Q43.6 6.1 43.6 9.3Q44 10.05 43.85 11.05M50.55,10.2Q52.8 11.25 52.75 12.95L53.4 13.35L54.15 14.2Q54.55 15.05 53.75 15.65Q53.1 16.1 52.35 16.35Q50.5 17.05 49.25 18.5Q47.4 20.6 44.8 21.75L44.2 22.05L39.75 24.7L38 25.7Q36.85 26.05 35.85 26.8Q35.2 27.3 34.45 27.45Q33.75 28.25 32 28L29.85 27.4Q29.25 27.1 29.25 26.45Q28 24.4 30.6 24.15L33.6 23.4L34.4 22.9Q36.55 21.1 39.05 19.85L39.65 19.5Q43.35 17.2 46.55 14.45L46.95 13.85Q47.65 11.7 48.6 9.8Q48.8 9.45 49.2 9.4Q50.05 9.4 50.45 10.1L50.55 10.2M44,20.3L44.7 20L45.15 19.7Q44.5 19.85 44 20.3M47.8,23.55Q47.3 23.85 47.15 23.3Q47.05 22.8 47.45 22.45Q50.05 20.2 53.1 18.55Q54.15 18 54.75 16.95L55.75 15.75Q56.45 15.1 57.25 14.75Q58.45 14.85 58.35 16.15Q58.25 16.95 57.45 16.75L56.05 18.3L55.45 18.9L49.15 22.75L47.8 23.55M33.35,8.8Q33 8 33.8 7.7L33.9 7.65Q34.95 8.25 34.7 9.6L34.7 9.95Q34.6 12.5 32.4 14.05L26.15 18.05Q24.2 19.2 21.95 18.7Q18.6 19.25 16.9 16.85Q16.7 16.6 16.8 16.25Q17.05 15.3 18 15.25Q20 16.5 22.5 16.5L23.1 16.95L23.2 17.5Q25 17.5 26.55 16.3Q26.95 16 27.45 15.75Q31 14.2 33.1 11.15L33.4 10.45L33.45 10.15L33.3 9.1L33.35 8.8" />
<path style="fill:#A5A7A5;fill-opacity:0.152941" d="M50.35,21.25L53.65 19.25L56.3 16.85L57.95 15Q58.05 14.85 58.25 14.8Q58.85 14.8 59.15 15.3L59.2 15.35Q60.5 15.05 60.45 16.25L60.15 16.9Q59.1 17.9 57.7 18.3Q56.35 19.65 54.6 20.4L54.2 20.3Q52.25 21.8 50.05 22.75L49.85 22.7Q49.3 21.8 50.35 21.25" />
<path style="fill:none;stroke-width:1;stroke-linecap:round;stroke-linejoin:round;stroke-miterlimit:3;stroke:#FAFAFA;stroke-opacity:0.8" d="M43.45,8.6L43.45 9.25M27.95,22.65L34.35 20" />
<path style="fill:none;stroke-width:1;stroke-linecap:round;stroke-linejoin:round;stroke-miterlimit:3;stroke:#C4C4C4;stroke-opacity:0.152941" d="M54.15,14.2Q46.25 21.05 42.45 23.55Q38.6 26.05 33.7 28.35M44.05,9.6Q43.4 15.8 39.15 18.65Q34.95 21.5 27.45 24.05" />
<path style="fill:none;stroke-width:1;stroke-linecap:round;stroke-linejoin:round;stroke-miterlimit:3;stroke:#C4C4C4;stroke-opacity:0.152941" d="M34.4,12.05Q35.05 10.65 35.05 9.1M34.4,12.05Q33.4 14.2 30.8 15.95Q26.6 18.8 20.6 18.8" />
<path style="fill:none;stroke-width:1;stroke-linecap:round;stroke-linejoin:round;stroke-miterlimit:3;stroke:#D8D8D8;stroke-opacity:0.152941" d="M46.8,10.95L47.15 9.5M41.05,8L43.45 8.6M59.2,15.35L58.35 16.25M55.3,15.2L55.75 15.75M50.3,12.75L51 11.5M42.55,11.9L41.25 15.15M52.25,14.05Q50.5 16.55 47.85 17.8M34.4,10.45L34.4 12.05M26.05,22.6L25.4 22.6M36.8,18.65L38.75 17.6M26.95,16.8L30.9 15.05M33.6,27L33.05 27M37.15,25.05L42.55 22.2" />
</g>
</svg>
