<?xml version="1.0" encoding="utf-8"?>
<svg version="1.1" id="Layer_1"
xmlns="http://www.w3.org/2000/svg"
xmlns:xlink="http://www.w3.org/1999/xlink"
xmlns:author="http://www.sothink.com"
width="34px" height="49px"
xml:space="preserve">
<g id="548" transform="matrix(1, 0, 0, 1, 62, 74.65)">
<path style="fill:#454064;fill-opacity:1" d="M-62,-57.2L-62 -59.65L-31.55 -74.65L-28.05 -74.05L-62 -57.2" />
<path style="fill:#56517D;fill-opacity:1" d="M-40.2,-36.6Q-39.1 -32.3 -41.4 -30.8Q-42.05 -30.35 -43 -30.15L-47.4 -27.95Q-41.95 -30.95 -44.45 -34.45L-40.2 -36.6" />
<path style="fill:#2E2C43;fill-opacity:1" d="M-44.45,-34.45L-44.5 -34.5L-62 -25.8L-62 -57.2L-28.05 -74.05L-29 -42.2L-40.2 -36.6L-44.45 -34.45" />
<path style="fill:none;stroke-width:0.05;stroke-linecap:round;stroke-linejoin:round;stroke-miterlimit:3;stroke:#000000;stroke-opacity:1" d="M-62,-57.2L-28.05 -74.05L-31.55 -74.65L-62 -59.65M-28.05,-74.05L-29 -42.2L-40.2 -36.6Q-39.1 -32.3 -41.4 -30.8Q-42.05 -30.35 -43 -30.15M-47.4,-27.95Q-41.95 -30.95 -44.45 -34.45L-44.5 -34.5L-62 -25.8M-44.45,-34.45L-40.2 -36.6" />
</g>
</svg>
