<?xml version="1.0" encoding="utf-8"?>
<svg version="1.1" id="Layer_1"
xmlns="http://www.w3.org/2000/svg"
xmlns:xlink="http://www.w3.org/1999/xlink"
xmlns:author="http://www.sothink.com"
width="175px" height="222px"
xml:space="preserve">
<g id="191" transform="matrix(1, 0, 0, 1, 15.5, 160.05)">
<path style="fill:#D6D6D6;fill-opacity:1" d="M158.15,-73.85L159 -73.45L159 -73.4Q158.6 -73.65 158.15 -73.85M11.65,-12.2L13 -11.5L11.65 -12.2M91,7.65L79 1.65L56.25 -9.65L45 -15.25L42.75 -16.4L42.75 -19.4L45 -18.25L67 -7.3L79 -1.35L83 0.65L87.2 2.75L91.5 4.9L92.95 5.6L102.25 10.25L109.85 14.05L115.85 17L115.85 19.95L109.9 16.95L106.2 15.15L103.45 13.8L92.95 8.6L92.7 8.5L92.5 8.4L91 7.65M101.75,-3.4L100 -4.3L101.85 -3.4L102 -3.3L101.75 -3.4M102,-3.3L103.55 -2.55L102 -3.3" />
<path style="fill:#999999;fill-opacity:1" d="M79,7.9L58.5 -2.3L56.25 -3.45L49.5 -0.1L42.75 3.25L42.75 -16.4L45 -15.25L56.25 -9.65L79 1.65L91 7.65L92.5 8.4L92.7 8.5L92.95 8.6L103.45 13.8L106.2 15.15L109.9 16.95L115.85 19.95L115.85 26.25L92.5 14.6L85.75 17.95L79 21.3L79 7.9M70,-14.4L70 -10.4L68 -11.4L68 -15.4L70 -14.4M92.45,1.4L94.2 2.3L96 3.2L97.95 4.15L99.95 5.15L101.95 6.15L103.5 6.95L105 7.65L106.5 8.4L108 9.15L109.8 10.05L111.4 10.85L113 11.65L114.5 12.4L115.85 13.05L115.85 17L109.85 14.05L102.25 10.25L92.95 5.6L91.5 4.9L87.2 2.75L83 0.65L79 -1.35L83 -3.3L84.95 -2.3L85.25 -2.15L86.95 -1.3L89 -0.3L90.5 0.45L92.45 1.4M94.2,-7.15L92.45 -8L92.5 -8.05L94.2 -7.15" />
<path style="fill:#BFBFBF;fill-opacity:1" d="M142,52.7L118.1 40.8L115.85 39.65L115.85 26.25L115.85 19.95L115.85 17L115.85 13.05L115.85 3.6L115.25 3.3L114.55 2.95L115.85 2.3L115.85 0.8L115.85 -0.8L115.85 -2.4L115.85 -4.1L115.5 -4.25L114.05 -4.95L112.45 -5.7L111 -6.4L109.45 -7.15L107.4 -8.1L105.4 -9.05L103.4 -10.05L101.55 -10.9L99.85 -11.75L97.9 -12.65L96.35 -13.4L94.35 -14.35L92.35 -15.3L90.6 -16.4L90.9 -16.55L90.95 -23.4L79 -29.35L73.75 -26.75L67.05 -23.4L67 -23.4L67 -20.7L58.5 -24.95L56.25 -26.1L49.5 -22.75L42.75 -19.4L36 -16.05L36 -13.05L36 -0.05L31.85 -2.15L27.15 -4.5L27.15 -4.3L23.15 -6.3L23.15 -6.15L21.95 -6.75L21.15 -7.15Q3.05 -16.05 -15 -25L-15 -159.55L3.15 -150.5L3.15 -150.95L9 -148.05L31.85 -136.7L42.75 -131.3L150.65 -77.6L152.4 -76.75L152.4 -76.7L158.15 -73.85Q158.6 -73.65 159 -73.4L159 61.25L148.9 56.2L148.9 56.15L145.25 54.35L142 52.7M13,-11.5L11.65 -12.2L13 -11.5" />
<path style="fill:#FFFF00;fill-opacity:1" d="M83,-3.3L83 -12.7L83.05 -12.7L85 -11.7L84.95 -2.3L83 -3.3M114.55,2.95L115.25 3.3L115.85 3.6L115.85 13.05L114.5 12.4L114.55 2.95" />
<path style="fill:#0000FF;fill-opacity:1" d="M85.25,-2.15L84.95 -2.3L85 -11.7L85.05 -11.7L87 -10.7L86.95 -1.3L85.25 -2.15M105,7.65L105 -1.8L106.55 -1L106.5 8.4L105 7.65" />
<path style="fill:#00FF00;fill-opacity:1" d="M86.95,-1.3L87 -10.7L89 -9.75L89 -0.3L86.95 -1.3M108,9.15L108 -0.3L109.8 0.6L109.8 10.05L108 9.15M113,11.65L111.4 10.85L111.4 1.4L113 2.2L113 11.65" />
<path style="fill:#FF0000;fill-opacity:1" d="M90.5,0.45L89 -0.3L89 -9.75L90.55 -8.95L90.5 0.45M114.5,12.4L113 11.65L113 2.2L114.55 2.95L114.5 12.4M111.4,1.4L111.4 10.85L109.8 10.05L109.8 0.6L111.4 1.4" />
<path style="fill:#00FFFF;fill-opacity:1" d="M90.5,0.45L90.55 -8.95L90.85 -8.8L92.45 -8L92.45 1.4L90.5 0.45" />
<path style="fill:#00CCFF;fill-opacity:1" d="M92.45,1.4L92.45 -8L94.2 -7.15L94.2 2.3L92.45 1.4" />
<path style="fill:#CC9966;fill-opacity:1" d="M96,3.2L94.2 2.3L94.2 -7.15L94.75 -6.9L94.9 -6.8L96 -6.25L96 3.2" />
<path style="fill:#FF0099;fill-opacity:1" d="M96,3.2L96 -6.25L98 -5.25L97.95 4.15L96 3.2" />
<path style="fill:#FFFFFF;fill-opacity:1" d="M109.8,0.6L108 -0.3L106.55 -1L105 -1.8L103.55 -2.5L103.55 -2.55L102 -3.3L101.85 -3.4L100 -4.3L99.95 5.15L97.95 4.15L98 -5.25L96 -6.25L94.9 -6.8L94.75 -6.9L94.2 -7.15L92.5 -8.05L92.45 -8L90.85 -8.8L90.55 -8.95L89 -9.75L87 -10.7L85.05 -11.7L85 -11.7L83.05 -12.7L90.6 -16.4L92.35 -15.3L94.35 -14.35L96.35 -13.4L97.9 -12.65L99.85 -11.75L101.55 -10.9L103.4 -10.05L105.4 -9.05L107.4 -8.1L109.45 -7.15L111 -6.4L112.45 -5.7L114.05 -4.95L115.5 -4.25L115.85 -4.1L115.85 -2.4L115.85 -0.8L115.85 0.8L115.85 2.3L114.55 2.95L113 2.2L111.4 1.4L109.8 0.6M67,-7.3L67 -20.7L67 -23.4L67.05 -23.4L79 -17.45L79 -1.35L67 -7.3M68,-15.4L68 -11.4L70 -10.4L70 -14.4L68 -15.4" />
<path style="fill:#996633;fill-opacity:1" d="M101.95,6.15L99.95 5.15L100 -4.3L101.75 -3.4L102 -3.3L101.95 6.15" />
<path style="fill:#CC6633;fill-opacity:1" d="M102,-3.3L103.55 -2.55L103.55 -2.5L103.5 6.95L101.95 6.15L102 -3.3" />
<path style="fill:#9933CC;fill-opacity:1" d="M105,7.65L103.5 6.95L103.55 -2.5L105 -1.8L105 7.65" />
<path style="fill:#9966CC;fill-opacity:1" d="M108,9.15L106.5 8.4L106.55 -1L108 -0.3L108 9.15" />
<path style="fill:#99CC33;fill-opacity:1" d="M67,-7.3L45 -18.25L42.75 -19.4L49.5 -22.75L56.25 -26.1L58.5 -24.95L67 -20.7L67 -7.3" />
<path style="fill:#BCBCBC;fill-opacity:1" d="M83.05,-12.7L83 -12.7L83 -3.3L79 -1.35L79 -17.45L85.7 -20.8L90.95 -23.4L90.9 -16.55L90.6 -16.4L83.05 -12.7" />
<path style="fill:#D0D0D0;fill-opacity:1" d="M85.7,-20.8L79 -17.45L67.05 -23.4L73.75 -26.75L79 -29.35L90.95 -23.4L85.7 -20.8" />
<path style="fill:#CCCCCC;fill-opacity:1" d="M79,21.3L85.75 17.95L92.5 14.6L115.85 26.25L115.85 39.65L109.85 36.65L92.95 28.25L79 21.3L45 4.4L42.75 3.25L37.7 5.75L36 6.6L36 -0.05L36 -13.05L36 -16.05L42.75 -19.4L42.75 -16.4L42.75 3.25L49.5 -0.1L56.25 -3.45L58.5 -2.3L79 7.9L79 21.3" />
<path style="fill:none;stroke-width:1;stroke-linecap:round;stroke-linejoin:round;stroke-miterlimit:3;stroke:#616161;stroke-opacity:1" d="M42.75,-131.3L150.65 -77.6L152.4 -76.75M150.65,-77.6L152.4 -76.7L158.15 -73.85L159 -73.45L159 -73.4L159 61.25M158.15,-73.85Q158.6 -73.65 159 -73.4" />
<path style="fill:none;stroke-width:1;stroke-linecap:round;stroke-linejoin:round;stroke-miterlimit:3;stroke:#000000;stroke-opacity:1" d="M23.15,-6.15L21.95 -6.75L21.55 -6.95L21.15 -7.15Q3.05 -16.05 -15 -25L-15 -159.55L3.15 -150.5M21.55,-6.95L3.15 -16.2" />
<path style="fill:none;stroke-width:1;stroke-linecap:round;stroke-linejoin:round;stroke-miterlimit:3;stroke:#999999;stroke-opacity:1" d="M36,6.6L36 -0.05M36,-16.05L36 -13.05L36 -0.05M36,-16.05L36 -44.55" />
<path style="fill:none;stroke-width:1;stroke-linecap:round;stroke-linejoin:round;stroke-miterlimit:3;stroke:#000000;stroke-opacity:1" d="M3.15,-150.95L9 -148.05L31.85 -136.7L42.75 -131.3L42.75 -19.4M159,61.25L148.9 56.2M148.9,56.15L145.25 54.35L144.25 53.85L142 52.7L118.1 40.8L115.85 39.65L109.85 36.65L92.95 28.25L79 21.3L45 4.4L42.75 3.25L37.7 5.75M36,-0.05L31.85 -2.15L27.15 -4.5M27.15,-4.3L23.15 -6.3M21.95,-6.75L21.15 -7.15M13,-11.5L11.65 -12.2L13 -11.5L14.15 -10.95L21.15 -7.45L23.15 -6.45L27.15 -4.5M3.15,-16.2L6.05 -14.85L11.65 -12.2M36,-13.05L42.75 -16.4L42.75 -19.4L36 -16.05M6.05,-14.85L23.15 -6.3M79,-36.45L79 -29.35L90.95 -23.4L90.9 -16.55L90.6 -16.4L92.35 -15.3L94.35 -14.35L96.35 -13.4L97.9 -12.65L99.85 -11.75L101.55 -10.9L103.4 -10.05L105.4 -9.05L107.4 -8.1L109.45 -7.15L111 -6.4L112.45 -5.7L114.05 -4.95L115.5 -4.25L115.85 -4.1L115.85 -17.5M79,-29.35L73.75 -26.75L67.05 -23.4L79 -17.45L85.7 -20.8L90.95 -23.4M56.25,-26.1L49.5 -22.75L42.75 -19.4L45 -18.25L67 -7.3L67 -20.7L58.5 -24.95L56.25 -26.1L56.25 -45.4M67,-20.7L67 -23.4L67.05 -23.4L67 -23.4M56.25,-3.45L58.5 -2.3L79 7.9L79 1.65L56.25 -9.65L56.25 -3.45L49.5 -0.1L42.75 3.25L42.75 -16.4L45 -15.25L56.25 -9.65M70,-14.4L70 -10.4L68 -11.4L68 -15.4L70 -14.4M67,-7.3L79 -1.35L79 -17.45M79,-1.35L83 -3.3L83 -12.7L83.05 -12.7L90.6 -16.4M83,-12.7L83.05 -12.7L85 -11.7L85.05 -11.7L92.35 -15.3M90.55,-8.95L89 -9.75L89 -0.3L90.5 0.45L90.55 -8.95L97.9 -12.65M90.55,-8.95L90.85 -8.8L92.45 -8L92.5 -8.05L99.85 -11.75M96.35,-13.4L89 -9.75L87 -10.7L86.95 -1.3L89 -0.3M85,-11.7L85.05 -11.7L87 -10.7L94.35 -14.35M85,-11.7L84.95 -2.3L85.25 -2.15L86.95 -1.3M84.95,-2.3L83 -3.3M98,-5.25L96 -6.25L94.9 -6.8L94.75 -6.9L94.2 -7.15L94.2 2.3L96 3.2L96 -6.25L103.4 -10.05M92.5,-8.05L94.2 -7.15L92.45 -8L92.45 1.4L94.2 2.3M94.2,-7.15L101.55 -10.9M107.4,-8.1L100 -4.3L99.6 -4.5L98 -5.25L97.95 4.15L99.95 5.15L100 -4.3L101.85 -3.4L102 -3.3L109.45 -7.15M100,-4.3L101.75 -3.4L102 -3.3L103.55 -2.55L103.55 -2.5L111 -6.4M105,-1.8L103.55 -2.5L103.5 6.95L105 7.65L105 -1.8L106.55 -1L114.05 -4.95M101.95,6.15L102 -3.3L103.55 -2.55M108,-0.3L106.55 -1L106.5 8.4L108 9.15L108 -0.3L109.8 0.6L115.85 -2.4L115.85 -4.1M115.85,-2.4L115.85 -0.8L115.85 0.8L115.85 2.3L115.85 3.6L115.85 13.05L115.85 17L115.85 19.95L115.85 26.25L115.85 39.65M108,-0.3L115.5 -4.25M105,-1.8L112.45 -5.7M98,-5.25L105.4 -9.05M115.85,0.8L113 2.2L114.55 2.95L115.85 2.3M114.55,2.95L115.25 3.3L115.85 3.6M113,2.2L111.4 1.4L111.4 10.85L113 11.65L113 2.2M115.85,-0.8L111.4 1.4L109.8 0.6L109.8 10.05L111.4 10.85M103.5,6.95L101.95 6.15L99.95 5.15M106.5,8.4L105 7.65M109.8,10.05L108 9.15M106.2,15.15L104.95 14.5L103.45 13.8L106.2 15.15L109.9 16.95L115.85 19.95M103.45,13.8L92.95 8.6L92.7 8.5L92.5 8.4L92.5 14.6L115.85 26.25M115.85,13.05L114.5 12.4L113 11.65M114.55,2.95L114.5 12.4M79,-1.35L83 0.65L87.2 2.75L91.5 4.9L92.95 5.6L102.25 10.25L109.85 14.05L115.85 17M97.95,4.15L96 3.2M102.25,10.25L101.15 9.7L91.5 4.9M79,7.9L79 21.3L85.75 17.95L92.5 14.6M79,1.65L91 7.65L92.5 8.4M92.45,1.4L90.5 0.45M145.25,54.35L142 52.7M36.4,6.4L36 6.6L36.4 6.4L37 6.1L37.7 5.75" />
</g>
</svg>
