<?xml version="1.0" encoding="utf-8"?>
<svg version="1.1" id="Layer_1"
xmlns="http://www.w3.org/2000/svg"
xmlns:xlink="http://www.w3.org/1999/xlink"
xmlns:author="http://www.sothink.com"
width="7px" height="10px"
xml:space="preserve">
<g id="247" transform="matrix(1, 0, 0, 1, 1.75, 6.05)">
<path style="fill:#666666;fill-opacity:1" d="M4.5,-1.35L3.9 -1.4Q3.9 -2.85 3.2 -3.85Q2.45 -4.9 1.45 -4.9Q0.45 -4.9 -0.2 -3.85L-0.75 -2.75L-0.9 -1.4L-1.5 -1.3L-1.5 -1.4L-1.5 -1.45L-1.35 -2.8Q-1.15 -3.75 -0.6 -4.5Q0.25 -5.85 1.5 -5.8Q2.75 -5.85 3.65 -4.5Q4.5 -3.25 4.5 -1.45L4.5 -1.4L4.5 -1.35" />
<radialGradient
id="RadialGradID_724" gradientUnits="userSpaceOnUse" gradientTransform="matrix(0.00756836, 0, 0, 0.00756836, 4.5, -1.35)" spreadMethod ="pad" cx="0" cy="0" r="819.2" fx="0" fy="0" >
<stop  offset="0"  style="stop-color:#000000;stop-opacity:1" />
<stop  offset="1"  style="stop-color:#FFFFFF;stop-opacity:1" />
</radialGradient>
<path style="fill:url(#RadialGradID_724) " d="M4.5,-1.35L4.5 -0.75L4 1.1L3.65 1.75Q2.75 3.05 1.5 3.05Q0.25 3.05 -0.6 1.75Q-1.5 0.45 -1.5 -1.3L-0.9 -1.4Q-0.95 0.05 -0.2 1.1Q0.45 2.15 1.45 2.15Q2.45 2.15 3.2 1.1L3.45 0.65L3.85 -0.85L3.9 -1.4L4.5 -1.35" />
<path style="fill:none;stroke-width:0.5;stroke-linecap:round;stroke-linejoin:round;stroke-miterlimit:3;stroke:#666666;stroke-opacity:1" d="M-0.9,-1.4Q-0.95 0.05 -0.2 1.1Q0.45 2.15 1.45 2.15Q2.45 2.15 3.2 1.1L3.45 0.65L3.85 -0.85L3.9 -1.4Q3.9 -2.85 3.2 -3.85Q2.45 -4.9 1.45 -4.9Q0.45 -4.9 -0.2 -3.85L-0.75 -2.75L-0.9 -1.4M-1.5,-1.3Q-1.5 0.45 -0.6 1.75Q0.25 3.05 1.5 3.05Q2.75 3.05 3.65 1.75L4 1.1L4.5 -0.75L4.5 -1.35M-1.5,-1.3L-1.5 -1.4L-1.5 -1.45L-1.35 -2.8Q-1.15 -3.75 -0.6 -4.5Q0.25 -5.85 1.5 -5.8Q2.75 -5.85 3.65 -4.5Q4.5 -3.25 4.5 -1.45L4.5 -1.4L4.5 -1.35" />
</g>
</svg>
