<?xml version="1.0" encoding="utf-8"?>
<svg version="1.1" id="Layer_1"
xmlns="http://www.w3.org/2000/svg"
xmlns:xlink="http://www.w3.org/1999/xlink"
xmlns:author="http://www.sothink.com"
width="56px" height="26px"
xml:space="preserve">
<g id="957" transform="matrix(1, 0, 0, 1, 64.2, 14.7)">
<linearGradient
id="LinearGradID_3104" gradientUnits="userSpaceOnUse" gradientTransform="matrix(0.0085144, 0.0168457, -0.0238647, 0.00582886, -34.45, -1.6)" spreadMethod ="pad" x1="-819.2" y1="0" x2="819.2" y2="0" >
<stop  offset="0" style="stop-color:#FF0000;stop-opacity:0.4" />
<stop  offset="0.164706" style="stop-color:#FFFF00;stop-opacity:0.4" />
<stop  offset="0.364706" style="stop-color:#00FF00;stop-opacity:0.4" />
<stop  offset="0.498039" style="stop-color:#00FFFF;stop-opacity:0.4" />
<stop  offset="0.666667" style="stop-color:#0000FF;stop-opacity:0.4" />
<stop  offset="0.831373" style="stop-color:#FF00FF;stop-opacity:0.4" />
<stop  offset="1" style="stop-color:#FF0000;stop-opacity:0.4" />
</linearGradient>
<path style="fill:url(#LinearGradID_3104) " d="M-50.8,-0.85L-49.55 -0.6L-49.5 -0.6L-50.15 -0.8L-49.45 -1.45L-48.75 -1.4L-50.2 -1.8L-50.2 -1.9L-50.6 -1.55L-50.5 -1.55Q-50.4 -1.55 -50.25 -1.65L-50.15 -1.65L-49.55 -1.45L-50.2 -0.8L-50.8 -0.85L-50.95 -1L-50.9 -1L-50.8 -1.15L-50.9 -1.3L-51.3 -0.6L-51.35 -0.65L-51.8 -0.25L-51.9 -0.1L-51.75 -0.25L-51.4 -0.35L-51.15 -0.35L-50.85 -0.15Q-50.8 -0.05 -50.9 0.1L-50.8 -0.05Q-50.6 -0.3 -50.75 -0.3L-50.95 -0.45L-51.3 -0.6L-51.2 -0.75L-51.05 -0.75L-51 -0.85L-50.8 -0.85M-43.3,-8.95L-43.15 -8.9L-43.05 -8.9L-42.95 -8.9L-41.85 -8.7L-43.9 -8.45L-44.25 -8.05L-44.15 -8.05L-44.05 -8.2L-43.95 -8.2L-43.85 -8.2L-43.75 -8.15L-42.45 -7.9L-42.4 -7.8L-42.45 -7.8L-42.45 -7.65L-42 -8.05L-42.15 -8.05L-42.3 -7.9L-42.45 -8.05L-43.75 -8.15L-41.45 -8.65L-41.4 -8.8L-42.95 -8.9L-43.05 -9.05L-43 -9.05L-43 -9.35L-43.05 -9.2L-43.3 -8.95M-44.15,-7.75L-44.6 -7.6L-44.25 -7.65L-43.55 -7.6L-43.5 -7.6L-43.05 -7.45Q-42.9 -7.1 -43.15 -7L-43.6 -6.75Q-43.25 -6.7 -43 -7Q-42.75 -7.25 -42.9 -7.55Q-42.95 -7.7 -43.35 -7.85L-44.15 -7.75M-44.8,-7.45L-44.7 -7.55L-44.85 -7.45L-45 -6.85L-44.55 -6.7L-44.45 -6.7L-43.8 -6.65L-44.3 -6.8L-44.35 -6.7L-44.85 -7L-44.8 -7.45M-45.2,-6.6L-45.6 -6.65L-46.45 -5.75L-46.2 -5.45L-46.2 -5.6L-46.2 -5.75L-46.1 -5.9L-46 -6.15Q-45.95 -6 -45.85 -6.15L-45.7 -6.1L-44.55 -5.75L-44.45 -5.75L-44.35 -5.6L-44 -6L-44.15 -6L-44.2 -5.85L-44.35 -6L-45.7 -6.1L-45.85 -6.25L-45.8 -6.25L-45.4 -6.5L-45.2 -6.6M-46.3,-4.9L-46.45 -4.65L-47.1 -4.85L-47.2 -4.7L-47.15 -5L-47.4 -4.7L-47.65 -4.45L-47.45 -4.6L-47.4 -4.7L-47.2 -4.55L-45.9 -4.45L-45.75 -4.3L-45.85 -4.3L-45.95 -4.2L-45.8 -4.05L-44.9 -5.05L-45.2 -5.35L-45.3 -5.25L-45.2 -4.95L-45.3 -4.85L-45.5 -4.4L-45.6 -4.45L-45.8 -4.45L-46.45 -4.65L-46.25 -4.75L-46.05 -4.9L-45.8 -5L-46.35 -5.05L-46.3 -4.9M-46.3,-5.45L-46.8 -5.4L-46.9 -5.15L-46.85 -5.1L-46.55 -5.35L-46.3 -5.45M-47.7,-4.3L-47.65 -4.3L-47.7 -4.45L-48.05 -4.1L-48 -3.95L-47.95 -4.1L-47.85 -4.1L-47.65 -4.05L-47.45 -3.75L-48.15 -3.7L-48.25 -3.55L-47.35 -3.75L-47.25 -3.6L-47.1 -3.2L-46.9 -3.2L-47.05 -2.9L-47.1 -2.9Q-47.15 -2.75 -47.3 -2.8L-47.45 -2.8L-49.4 -2.8L-49.45 -2.55L-48.3 -1.75Q-48.15 -1.85 -48.3 -1.65L-48.2 -1.65L-47.85 -2L-47.95 -2L-48.15 -1.85L-48.2 -1.9L-48.6 -2.2L-48.4 -2.3L-48.65 -2.2L-49.4 -2.7L-48.25 -2.6L-48.1 -2.7L-47.65 -2.55L-47.45 -2.65L-47.5 -2.35L-47.05 -2.9L-46.95 -2.9L-46.55 -3.25L-46.65 -3.3L-46.8 -3.15L-46.85 -3.3L-46.95 -3.3L-47.25 -3.6L-46.5 -3.7L-46.35 -3.8L-46.3 -3.7L-45.85 -4.05L-46 -4.05L-46.1 -3.95L-46.3 -3.95L-47.35 -3.75L-47.4 -3.75L-47.65 -4.2L-47.7 -4.3M-48.75,-3.35L-48.7 -3.3L-48.6 -3.45L-48.5 -3.45L-48.35 -3.55L-48.25 -3.85L-48.3 -3.85L-48.75 -3.35M-49.5,-0.35L-49.2 -0.7L-49.1 -0.85L-49.15 -0.85L-49.2 -0.7L-49.3 -0.7L-49.45 -0.6L-49.5 -0.35M-48.45,-1.5L-48.55 -1.5L-48.7 -1.4L-48.7 -1.25L-48.45 -1.5M-38.95,-14.7L-9.1 3.45L-64.2 10.9L-39.2 -14.7L-38.95 -14.7M-35.15,-10.5L-35.55 -9.15L-35.35 -9L-35.3 -9L-35.35 -9.1L-35.4 -9.1L-35.3 -9.1Q-34.65 -9.45 -34.05 -9.85L-33.95 -9.85L-33.85 -9.85L-34.1 -10.15L-34.15 -10.15L-34.05 -10L-34.2 -10L-35.35 -9.25L-34.85 -10.6L-34.95 -10.6L-35.15 -10.5M-33,-9.35L-32.85 -9.05Q-32.8 -8.9 -33.25 -8.65L-34 -8.45L-34.2 -8.45L-33.85 -8.3Q-33.4 -8.4 -33.05 -8.65Q-32.7 -8.75 -32.75 -9.05Q-32.6 -9.15 -32.9 -9.5L-33.15 -9.5L-33 -9.35M-34.4,-9.45L-34.8 -9.05L-34.6 -8.65L-34.65 -8.95L-34.25 -9.2L-33.75 -9.55L-34.4 -9.45M-33.35,-8.25L-33.4 -8.3L-33.7 -8.05L-32.6 -7.25L-32.1 -7.5L-32.4 -7.5L-32.8 -7.7Q-32.9 -7.55 -32.9 -7.7L-32.8 -7.85L-31.6 -8.4L-31.5 -8.4L-31.3 -8.4L-31.25 -8.4L-31.65 -8.7L-31.65 -8.55L-31.7 -8.4L-33 -7.95L-33.15 -7.85L-33.25 -7.85Q-33.5 -8 -33.35 -8.1L-33.35 -8.25M-30.8,-8.05L-30.75 -8.05L-30.7 -7.9L-31.7 -6.9L-31.5 -6.7L-30.9 -7.5L-30.35 -7.05L-29.65 -7.25L-29.35 -7.25L-29.25 -7.1L-29.3 -7.25L-29.75 -7.6L-29.75 -7.45L-29.65 -7.25L-29.75 -7.3L-30.25 -7.15L-30.85 -7.5L-30.6 -7.75L-30.35 -7.75L-30.25 -7.75L-30.75 -8.2L-30.8 -8.05M-30.55,-6.25L-30.8 -6.25L-30.4 -5.95L-28.6 -6.5L-28.5 -6.45L-29.45 -5.45L-29.1 -5.3L-29.1 -5.45L-27.9 -6.15L-27.7 -6.15L-27.6 -6.15L-27.95 -6.45L-27.9 -6.3L-27.85 -6.3L-29.2 -5.6L-28.2 -6.6L-28.3 -6.6L-30.3 -6.2L-29.35 -6.7L-30.4 -6.35L-30.55 -6.25M-36.75,-9.95L-36.7 -9.8L-36.35 -9.65L-36.35 -9.8L-36.45 -9.9L-36.6 -9.8L-36.75 -9.95M-38.6,-9.8L-55.2 7.05L-18.6 2.25L-38.35 -9.8L-38.6 -9.8M-28.75,-6.9L-29.05 -7.05L-28.9 -6.8L-28.75 -6.9M-26.45,-5.65L-26.85 -5.55L-26.8 -5.55L-27.7 -4.45L-27.35 -4.15L-27.3 -4.3L-27.35 -4.3L-27.5 -4.35L-27.3 -4.45L-26.7 -4.8L-27.4 -4.45L-26.45 -5.5L-26.45 -5.65M-26.05,-5.15L-25.95 -5L-25.75 -5.15L-25.75 -5L-25.65 -5.15L-26.1 -5.3L-26.15 -5.3L-26.05 -5.15M-25.6,-4.85L-26.6 -3.85L-26.45 -3.7L-26.3 -3.7L-25.2 -4L-25.35 -4L-25.7 -4.45L-25.8 -4.45L-25.5 -4.7L-25.3 -4.7L-25.2 -4.7L-25.05 -4.7L-25.65 -5L-25.6 -4.85M-27.05,-5.85L-26.8 -5.8L-27.25 -6.1L-27.25 -5.95L-27.4 -5.85L-28.6 -5.1L-28.7 -5.1L-28.85 -5.1L-28.6 -4.95L-28.5 -4.95L-27.3 -5.85L-27.05 -5.85M-24.65,-4.2L-24.6 -4.2L-24.2 -4.05L-24.15 -4.05L-24.05 -4.05L-24.05 -3.75L-24.25 -3.25L-24.15 -3.25L-24 -3.05L-24.55 -2.7L-24.7 -2.7L-24.75 -2.85L-24.95 -2.85L-24.45 -2.4L-24.5 -2.55L-24.4 -2.65L-23.2 -3.4L-22.8 -3.4L-23.3 -3.7L-23.35 -3.7L-23.3 -3.55L-23.2 -3.55L-23.95 -3.05L-24.15 -3.4L-23.7 -3.85L-24.05 -4.15L-24.15 -4.05L-24.6 -4.5L-24.7 -4.5L-24.6 -4.35L-24.65 -4.2M-25.1,-3.3L-25.35 -3L-25.1 -3L-25.2 -3.2L-24.9 -3.3L-24.65 -3.25L-24.35 -3.25Q-24.65 -3.55 -24.85 -3.45L-25.1 -3.3M-22.9,-2.85L-22.7 -2.95L-22.4 -2.95L-22.35 -2.95L-22.1 -2.9L-21.9 -2.6Q-21.95 -2.35 -22.3 -2.2L-23.15 -1.9L-23.6 -2.1L-23.8 -2.35L-23.7 -2.5L-24.05 -2.35L-23.95 -2.25L-23.7 -2.1L-23.65 -1.95L-22.9 -1.85L-22.2 -2.1L-21.8 -2.45Q-21.75 -2.75 -22 -2.9L-22.35 -2.95L-22.5 -3.05L-22.55 -3.25L-23.05 -3L-23.15 -2.85L-23.45 -2.85L-23 -2.7L-22.9 -2.85M-21.35,-2.4L-21.25 -2.3L-21.2 -2.3Q-21.2 -2.15 -21.3 -2.15L-22.25 -1.25L-22 -1.1L-21.4 -1.9L-20.9 -1.45L-20.8 -1.4L-20.2 -1.65Q-20.05 -1.5 -19.85 -1.5L-19.8 -1.5L-20.2 -1.65L-20.3 -1.65L-20.8 -1.4L-21.35 -1.9L-21.1 -2L-21 -2.1L-20.8 -2L-20.7 -2.1L-20.75 -2.1L-21.25 -2.4L-21.35 -2.4M-20.75,-0.3L-20.65 -0.15L-20.75 -0.45L-20.6 -0.7L-20.3 -0.7L-20 -0.65L-20.45 -0.8L-20.75 -0.7L-20.9 -0.45L-20.75 -0.3M-19.7,-1.35Q-19.55 -1.45 -19.65 -1.2L-19.95 -0.65L-19.85 -0.65L-19.65 -0.5Q-19.9 -0.35 -20.2 -0.25L-20.3 -0.1L-20.4 0L-20.1 0.15L-20 0.15L-20.05 0L-20.15 0L-20.05 -0.1L-18.8 -0.85L-18.65 -0.65L-18.5 -0.65L-18.95 -1.15L-18.95 -1L-18.9 -1L-19 -0.85L-19.6 -0.5L-19.8 -0.65L-19.35 -1.2L-19.7 -1.6L-19.75 -1.5L-19.7 -1.35M-18,-0.35L-17.9 -0.35L-17.9 -0.2L-19.2 0.5L-19.3 0.35L-19.5 0.5L-19.65 0.2L-19.55 -0.05L-19.6 0.05L-19.85 0.3L-19.5 0.5L-19 0.8L-18.75 0.95L-18.45 0.85L-18.6 0.8L-19 0.8L-19.05 0.65L-19 0.55L-17.8 -0.05L-17.65 -0.2L-17.5 -0.05L-17.45 -0.05L-17.45 -0.15L-17.9 -0.5L-18 -0.35M-15,1.4L-14.75 1.45L-15.25 1.1L-15.25 1.25L-15.2 1.25L-15.35 1.4L-16.55 2.1L-16.65 2.1L-16.8 2.1L-16.95 1.8L-16.9 1.55L-16.95 1.55L-17.2 1.95L-16.45 2.4L-16.5 2.25L-16.4 2.15L-15.15 1.55L-15 1.4M-15.95,0.9L-16.15 0.75L-16.3 0.9L-16.9 1.1L-17.15 0.95L-17.2 0.95L-17.2 0.8L-17.1 0.7L-17.15 0.7L-17.65 0.9L-17.4 0.9L-17.2 0.95L-16.95 1.25L-17.5 1.5L-17.7 1.45L-18 1.45L-18.1 1.15L-18.2 1L-18.1 1L-18.2 0.85L-18.4 1.1L-18 1.45L-17.35 1.8L-17.35 1.65L-17.5 1.5L-17.35 1.5L-16.15 0.9L-16 0.9L-15.95 0.9M-16.65,0.45L-16.85 0.3L-17.3 0.4L-16.85 0.45L-16.65 0.45M-15.75,2.3L-15.9 2.45L-16.4 2.4L-16.1 2.55L-15.65 2.45L-15.75 2.3M-24.85,4.05L-24.8 4.75L-26.3 4.1L-26.75 4.15L-26.65 4.2L-26.45 4.2L-26.35 5.05L-26.45 5.3L-25.95 5.2L-26.1 5.2L-26.2 5.15L-26.25 5.15L-26.4 4.35L-26.3 4.35L-24.8 5.05L-24.65 5.05L-24.8 4.05L-24.75 3.95L-24.6 3.95L-24.5 3.85L-25.25 3.9L-25.2 4L-25.1 4.05L-24.9 3.9L-24.85 4.05M-27.95,5.5L-27.35 5.25L-27.2 5.1L-26.85 4.85Q-26.9 4.45 -27.25 4.4L-28.05 4.35Q-28.6 4.3 -28.85 4.7L-29.05 4.95Q-29.05 5.35 -28.75 5.4L-27.95 5.5M-29.3,4.8L-29.6 4.5L-30.75 4.65L-31.3 4.75L-31.5 5L-31.4 5Q-31.25 5.05 -31.2 4.9L-30.75 4.65L-30.55 4.7L-30.45 4.8L-30.4 5.7L-30.45 5.85L-30.6 5.8L-30.75 5.8L-30.7 5.95L-29.9 5.85L-29.95 5.7L-30.1 5.7L-30.25 5.7L-30.3 4.85L-30.05 4.6L-29.6 4.75L-29.3 4.8M-26.55,5.15L-26.6 5.3L-26.5 5.3L-26.55 5.15M-34.75,5.3L-34.6 6.3L-34.7 6.3L-34.75 6.45L-34.1 6.35L-34.15 6.2L-34.2 6.35L-34.4 6.3L-34.4 6.2L-34.55 5.3L-34.45 5.35L-34.35 5.2L-34.75 5.3M-33.2,5.75L-32.15 5.8L-32.1 5.95L-32.2 6.1L-31.5 6L-31.7 6L-31.85 5.85L-32.7 4.9L-32.8 5.05L-32.9 5.05L-33.6 6.25L-33.1 6.15L-33.2 6.15L-33.4 6.1L-33.25 5.75L-33.2 5.75M-40.1,6.1Q-40 6.15 -39.85 6L-39.65 6.3L-39.55 6.15L-39.8 6L-39.85 6L-40.65 6.1L-40.4 6.1L-40.1 6.1M-39.05,5.95L-39 6.6L-38.75 6.8L-38 6.85L-38.6 6.8L-38.75 6.5L-38.8 5.95L-38.8 5.85L-39.05 5.95M-37.35,6.35L-37.4 6.6L-37.2 6.35L-37.35 5.8L-37.35 6.35M-37.35,5.75L-37.5 5.8L-37.35 5.8L-37.35 5.75M-36.75,5.55L-36.6 5.6L-36.55 6.55L-36.5 6.55L-36.6 6.55L-36.8 6.65L-36.75 6.65L-36.15 6.6L-36.2 6.45L-36.3 6.6L-36.4 6.45L-36.5 5.6L-35.55 6.5L-35.4 6.5L-34.8 5.3L-35.45 6.25L-35.5 6.2L-36.3 5.5L-36.85 5.55L-36.75 5.55M-39.45,6.85L-39.7 6.85Q-39.95 7.1 -40.15 7.05L-40.55 7.2L-40.7 7.05L-40.75 7L-40.8 6.6L-40.35 6.5L-40.15 6.5L-40.05 6.7L-40 6.7L-40 6.3L-40.1 6.4L-40.2 6.4L-40.35 6.5L-40.4 6.5L-40.8 6.6L-40.85 6.2L-41.05 6.2L-41 7.15L-41.2 7.15L-41.3 7.25L-40.55 7.2L-39.55 7.1L-39.35 6.85L-39.45 6.85M-50.15,0.2L-50.25 0.3L-50.3 0.45L-50.5 0.25L-51.05 0.25L-50.95 0.1L-51.2 0.2L-51.95 0.05L-52.1 0.15L-51.95 0.3L-50.6 0.4L-50.5 0.55L-50.55 0.55L-50.55 0.65L-50.5 0.65L-50.1 0.3L-50.15 0.2M-46.05,6.85L-45.95 7.15L-46.05 7.15L-46.25 7.25L-46.55 7.4L-46.9 7.35L-47 6.95L-47.2 6.95L-47.45 6.9L-47.4 7.05L-47.2 6.95L-47.15 7.05L-47.1 8.05L-47.3 8L-47.4 8.15L-47.35 8.15L-46.6 7.95L-46.8 7.95L-46.85 7.95L-46.9 7.45L-46.55 7.4L-45.75 7.85L-45.6 7.9L-45.7 7.75L-46.25 7.25L-45.8 7.15L-45.7 7.05Q-45.7 6.9 -45.85 6.9L-46.05 6.85M-47.85,7.1L-48.35 7.1L-48.05 7.25L-47.95 7.4L-48.1 7.7L-47.85 7.55L-47.7 7.3L-47.85 7.1M-48.45,7.65L-48.9 7.75L-49 7.3Q-49 7.2 -48.85 7.2L-49.5 7.15L-49.45 7.25L-49.4 7.25L-49.2 7.3L-49.15 7.3L-49.1 8.15L-49.3 8.25L-49.35 8.4L-48.7 8.3L-48.8 8.15L-48.9 7.75L-48.45 7.8Q-48.3 7.65 -48.2 7.65L-48.45 7.65M-41.75,7.2L-41.9 7.2L-41.95 6.35L-41.85 6.25L-41.8 6.25L-41.65 6.15L-42.2 6.25L-42.25 6.2L-42.9 7.4L-43.8 6.5L-43.85 6.5L-42.95 7.5L-42.85 7.55L-42.2 6.35L-42.2 6.25L-42.05 7.2L-42.1 7.35L-42.25 7.35L-42.35 7.45L-41.55 7.4L-41.65 7.2L-41.75 7.2M-44.05,6.65L-44 6.65L-43.95 7.45L-43.95 7.6L-44.05 7.75L-44.25 7.6L-44.2 7.7L-44.05 7.75L-43.65 7.65L-43.75 7.45L-43.95 6.65L-44.15 6.6L-44.05 6.65M-44.7,6.55L-44.4 6.6L-44.45 6.45L-45.05 6.65L-45 6.85L-44.95 6.85L-44.8 7.65L-44.9 7.65L-44.95 7.8L-44.3 7.7L-44.55 7.7L-44.65 7.7L-44.75 6.85L-44.7 6.55M-50.75,0.8L-51.05 0.9L-52.9 0.9L-53.05 1L-51.85 1.8L-51.8 1.95L-51.35 1.6L-51.5 1.6L-51.7 1.7L-52.15 1.55L-51.65 1L-51.1 1.05L-51 1.2L-50.65 0.8L-50.75 0.8M-52.2,0.3L-52.2 0.25L-52.3 0.3L-52.2 0.3M-52.75,2.85L-52.85 3.1L-53.05 2.95L-54.35 2.7L-52.05 2.35L-52 2.25L-52.4 2.25L-52.45 2.3L-54.55 2.6L-54.7 2.7L-54.6 2.85L-54.4 2.7L-54.35 2.7L-53.1 3.1L-52.95 3.1L-53.05 3.25L-53 3.25L-52.7 3L-52.75 2.85M-54.8,2.95L-54.75 2.95L-54.75 2.8L-54.8 2.95M-53.6,1.95L-53.65 1.8L-53.85 1.95L-53.6 1.95M-53.9,4.15L-54 4.15L-54.15 4.25L-54.3 4.25L-54.6 4.1L-54.1 3.6L-53.55 3.65L-53.55 3.9L-53.1 3.4L-53.15 3.2L-53.3 3.5L-53.5 3.5L-55.45 3.5L-55.55 3.75L-54.4 4.25Q-54.2 4.4 -54.35 4.55L-54.3 4.65L-53.9 4.3L-53.9 4.15" />
<linearGradient
id="LinearGradID_3105" gradientUnits="userSpaceOnUse" gradientTransform="matrix(0.0164948, 0.00656128, -0.0110779, 0.00773621, -37.7, -2.55)" spreadMethod ="pad" x1="-819.2" y1="0" x2="819.2" y2="0" >
<stop  offset="0" style="stop-color:#FF0000;stop-opacity:0.4" />
<stop  offset="0.164706" style="stop-color:#FFFF00;stop-opacity:0.4" />
<stop  offset="0.364706" style="stop-color:#00FF00;stop-opacity:0.4" />
<stop  offset="0.498039" style="stop-color:#00FFFF;stop-opacity:0.4" />
<stop  offset="0.666667" style="stop-color:#0000FF;stop-opacity:0.4" />
<stop  offset="0.831373" style="stop-color:#FF00FF;stop-opacity:0.4" />
<stop  offset="1" style="stop-color:#FF0000;stop-opacity:0.4" />
</linearGradient>
<path style="fill:url(#LinearGradID_3105) " d="M-40.85,-6L-41.1 -5.85L-41.3 -5.35L-41 -5.15L-40.15 -5.1L-40.75 -5.15Q-41.05 -5.15 -41.05 -5.6L-40.85 -6M-35.15,-6.2L-34.9 -5.9L-34.9 -5.75L-34.3 -5.85L-34.65 -5.9L-35.5 -6.9L-35.7 -6.95L-36.3 -5.75L-36.5 -5.5L-36.05 -5.6L-36.15 -5.75L-36.25 -5.75L-36.05 -6L-35.7 -6.8L-35.2 -6.2L-35.15 -6.2M-38.35,-9.8L-18.6 2.25L-55.2 7.05L-38.6 -9.8L-38.35 -9.8M-40.3,-6.2L-40.8 -6.05L-40.3 -6.1L-39.75 -6.05L-39.5 -6L-39.45 -6L-39.7 -6.3L-39.85 -6.15L-40.1 -6.2L-40.3 -6.2M-39.25,-6.25L-39.15 -6.25L-39.05 -6.25L-38.9 -6.25L-38.9 -5.4L-38.95 -5.3L-38.3 -5.25L-38.35 -5.35L-38.6 -5.4L-38.65 -5.4L-38.75 -5.85L-38.7 -6.25L-38.7 -6.35L-38.5 -6.35L-38.45 -6.5L-39.25 -6.4L-39.25 -6.25M-37.4,-6.5L-37.35 -5.55L-37.4 -5.45L-37 -5.55L-37.1 -5.55L-37.25 -6.4L-37.2 -6.5L-37.7 -6.55L-37.55 -6.4L-37.4 -6.5M-37.1,-6.5L-37.05 -6.5L-36.95 -6.65L-37.1 -6.5M-35.95,-5.7L-36 -5.6L-35.9 -5.7L-35.95 -5.7M-39.55,-5.35Q-39.45 -5.35 -39.35 -5.45L-39.45 -5.6L-39.65 -5.35L-39.85 -5.1L-39.55 -5.35M-37.85,-4.6Q-40.95 -4.2 -43.1 -2.7Q-45.1 -1.2 -44.95 0.45Q-44.75 2.15 -42.45 3Q-40.05 4.05 -36.95 3.5Q-33.8 3.15 -31.75 1.7Q-29.6 0.05 -29.85 -1.6Q-30 -3.3 -32.4 -4.2L-37.85 -4.6M-25,0.55L-25.2 0.45L-26.65 0.15L-26.6 0.05L-26.85 0.3L-26.65 0.3L-26 0.35L-26.2 0.6L-26.4 0.75L-26.45 0.9L-26.25 0.9L-26.15 0.65L-25.9 0.5L-25.35 0.55L-25.2 0.7L-25.4 0.95L-25.6 1.1L-25.9 1.25L-26.15 1.2L-25.7 1.35L-24.8 0.45L-24.9 0.3L-24.9 0.45L-25 0.55M-26.05,1.45L-26.15 1.6L-26.3 1.6L-27.55 1.2L-27.7 1.2L-27.65 1.05L-27.55 1.05L-27.7 0.9L-28.5 1.95L-28.2 2L-28.25 1.85L-28.15 1.55L-27.95 1.45L-27.85 1.45L-27.7 1.35L-26.45 1.7L-26.3 1.7L-26.35 1.85L-25.9 1.5L-26.05 1.45M-27.5,0.9L-27.2 1.1L-27.2 0.65L-27.5 0.9M-48,2.95L-48 3.1L-49.25 3.85L-49.35 3.85L-49.45 3.7L-49.6 3.8L-49.15 4.15L-49.2 4L-47.85 3.15L-47.75 3.15L-47.55 3.15L-47.5 3.15L-48 2.85L-48 2.95M-48.75,4.15L-48.8 4.3L-48.6 4.3L-48.5 4.35L-48.75 4.15M-45.95,4.1L-46.05 4.1L-47.25 4.85L-46.45 3.8L-46.5 3.65L-47.55 4L-46.75 3.75L-47.55 4.95Q-47.35 5.05 -47.2 5.1L-47.25 4.95L-47.35 4.95L-47.2 4.95L-46 4.25L-45.85 4.25L-45.8 4.15Q-45.9 4.1 -46.05 4L-45.95 4.1M-47.35,3.45L-48.2 4.15L-47.2 3.6Q-47.15 3.45 -47.05 3.6L-46.9 3.5L-46.85 3.65L-46.85 3.5L-47.35 3.15L-47.4 3.3L-47.3 3.45L-47.35 3.45" />
<linearGradient
id="LinearGradID_3106" gradientUnits="userSpaceOnUse" gradientTransform="matrix(0.00924683, -0.00125122, 0.000549316, 0.00498962, -37.35, -0.55)" spreadMethod ="pad" x1="-819.2" y1="0" x2="819.2" y2="0" >
<stop  offset="0" style="stop-color:#FF0000;stop-opacity:0.4" />
<stop  offset="0.164706" style="stop-color:#FFFF00;stop-opacity:0.4" />
<stop  offset="0.345098" style="stop-color:#FF0000;stop-opacity:0.4" />
<stop  offset="0.498039" style="stop-color:#00FFFF;stop-opacity:0.4" />
<stop  offset="0.666667" style="stop-color:#0000FF;stop-opacity:0.4" />
<stop  offset="0.831373" style="stop-color:#FF00FF;stop-opacity:0.4" />
<stop  offset="1" style="stop-color:#FF0000;stop-opacity:0.4" />
</linearGradient>
<path style="fill:url(#LinearGradID_3106) " d="M-32.4,-4.2Q-30 -3.3 -29.85 -1.6Q-29.6 0.05 -31.75 1.7Q-33.8 3.15 -36.95 3.5Q-40.05 4.05 -42.45 3Q-44.75 2.15 -44.95 0.45Q-45.1 -1.2 -43.1 -2.7Q-40.95 -4.2 -37.85 -4.6L-32.4 -4.2" />
<linearGradient
id="LinearGradID_3107" gradientUnits="userSpaceOnUse" gradientTransform="matrix(0.0085144, 0.0168457, -0.0238647, 0.00582886, -34.45, -1.6)" spreadMethod ="pad" x1="-819.2" y1="0" x2="819.2" y2="0" >
<stop  offset="0" style="stop-color:#FF0000;stop-opacity:0.2" />
<stop  offset="0.164706" style="stop-color:#FFFF00;stop-opacity:0.2" />
<stop  offset="0.364706" style="stop-color:#00FF00;stop-opacity:0.2" />
<stop  offset="0.498039" style="stop-color:#00FFFF;stop-opacity:0.2" />
<stop  offset="0.666667" style="stop-color:#0000FF;stop-opacity:0.2" />
<stop  offset="0.831373" style="stop-color:#FF00FF;stop-opacity:0.2" />
<stop  offset="1" style="stop-color:#FF0000;stop-opacity:0.2" />
</linearGradient>
<path style="fill:url(#LinearGradID_3107) " d="M-27.95,5.5L-28.55 5.4L-28.8 4.95L-28.6 4.55L-28.05 4.35L-27.4 4.4Q-27.2 4.4 -27.15 4.85L-27.35 5.25L-27.95 5.5M-32.3,5.7L-33.2 5.75L-32.8 5.05L-32.3 5.7M-52.8,1.05L-51.75 1L-52.1 1.4L-52.8 1.05M-55.45,3.6L-54.15 3.6L-54.65 4.1L-55.45 3.6" />
<path style="fill:#FF00FF;fill-opacity:0.498039" d="M-50.85,-2.2L-49.45 -1.8L-49.35 -1.8L-49.6 -1.55L-49.7 -1.55L-49.5 -1.7L-49.55 -1.8L-50.25 -1.85L-50.9 -1.25L-50.25 -1.05L-50.1 -1.05L-50.05 -1.2L-49.9 -1.15L-50.35 -0.75L-50.4 -0.75L-50.3 -0.9L-50.25 -0.9L-50.35 -1.05L-51.75 -1.35L-51.9 -1.2L-52.05 -1.2L-51.7 -1.4L-51.6 -1.4L-51 -1.25L-50.3 -1.85L-50.95 -2.05L-51.15 -2.1L-51.25 -1.85L-51.3 -1.95L-51.15 -2.1L-50.9 -2.35L-50.95 -2.2L-50.85 -2.2M-52.55,-0.7L-52.15 -0.9L-51.8 -0.9L-51.5 -0.75L-51.65 -0.45L-51.8 -0.2L-51.3 -0.05L-51.15 0L-51.1 0L-51.35 0.25L-51.3 0.1L-51.45 0.1L-52.7 -0.25L-52.85 -0.25L-53 -0.15L-53.1 -0.05L-53.15 -0.05L-52.7 -0.55L-52.55 -0.7M-52.7,-0.4L-52.55 -0.25L-52 -0.2L-51.75 -0.3L-51.7 -0.75L-51.85 -0.8L-52.2 -0.8L-52.55 -0.55L-52.7 -0.55L-52.7 -0.4M-50.95,-0.25L-50.9 -0.25L-50.95 -0.1L-50.95 -0.25M-43.8,-9.65L-43.85 -9.5L-43.75 -9.35L-43.8 -9.35L-44 -9.35L-44.1 -9.4L-44.15 -9.25L-44.2 -9.4L-43.8 -9.65M-43.75,-7.85Q-43.6 -7.7 -43.85 -7.4Q-44.1 -7.15 -44.55 -7.05L-45.35 -6.95L-45.75 -7.3Q-45.95 -7.6 -45.65 -7.85L-45.15 -7.95L-45.6 -7.7L-45.65 -7.45L-45.1 -7.25L-44.4 -7.2Q-44.1 -7.15 -43.9 -7.4Q-43.8 -7.55 -43.85 -7.85Q-43.85 -8 -44.3 -8.05L-44.95 -8.1L-44.2 -8.15Q-43.75 -8.1 -43.75 -7.85M-43.2,-8.35L-43.1 -8.35L-43 -8.35L-42.95 -8.5L-42.85 -8.35L-43.15 -8.05L-43.2 -8.05L-43.15 -8.2L-43.2 -8.2L-43.2 -8.35M-44.8,-8.65L-44.9 -8.5L-44.95 -8.35L-45 -8.5L-44.8 -8.75L-42.65 -9.1L-43.15 -9.15L-42.3 -9.1L-44.55 -8.6L-44.6 -8.6L-44.8 -8.65M-44.8,-6.4L-45.25 -5.85L-45.35 -5.85L-45.25 -6L-45.2 -6L-45.35 -6.15L-46.7 -6.45L-46.85 -6.45L-46.95 -6.45L-46.4 -7.05L-45.9 -7L-45.9 -6.9L-46.2 -6.95L-46.6 -6.7L-46.6 -6.55L-45.25 -6.3L-45.1 -6.3L-44.95 -6.4L-44.8 -6.4M-46.1,-5.15L-46.6 -4.6L-46.65 -4.75L-48 -5L-48.15 -5.15L-48.05 -5.3L-47.7 -5.65L-47.55 -5.8L-47.2 -5.75L-47.4 -5.65L-47.7 -5.65L-47.8 -5.4L-48 -5.3L-48.05 -5.3L-47.85 -5.1L-47.35 -5.1L-47.05 -5.2L-47.1 -5.35L-47.25 -5.45L-47.15 -5.45L-46.8 -5.35L-46.9 -5.35L-47 -5.2L-47.25 -4.9L-46.55 -4.85L-46.4 -4.85L-46.3 -5L-46.1 -5.15L-46 -5.35L-46.05 -5.7L-45.75 -5.5L-46.1 -5.15M-47.15,-4.1L-47.3 -4.25L-47.15 -4.25Q-47.05 -4.25 -46.95 -4.35L-46.8 -4.5L-46.7 -4.45L-47.15 -3.95L-47.2 -3.95L-47.1 -4.1L-47.15 -4.1M-47.6,-3.6L-47.5 -3.85L-47.4 -3.85L-47.75 -3.3L-47.8 -3.3L-47.75 -3.45L-47.8 -3.45L-47.8 -3.6L-48.2 -3.9L-49.15 -3.85L-49.3 -3.9L-49.45 -3.75L-49.6 -3.75L-49.1 -4.25L-49.15 -4.1L-49.2 -4L-49 -3.95L-48.3 -4.05L-48.55 -4.5L-48.6 -4.5L-48.75 -4.5L-48.55 -4.8L-48.55 -4.65L-48.5 -4.45L-48.15 -4.2L-47.35 -4.3L-48.1 -4.05L-47.8 -3.75L-47.7 -3.6L-47.6 -3.6M-47.85,-3.3L-48.3 -2.8L-48.25 -2.95L-48.35 -2.95L-48.95 -3L-49.35 -2.5L-49.05 -2.3L-48.95 -2.3L-48.8 -2.3L-48.7 -2.45L-48.65 -2.45L-48.8 -2.3L-49.05 -2.05L-49.1 -2.05Q-48.95 -2.2 -49.15 -2.3L-50.25 -2.95L-50.15 -3.1L-48.3 -3.1L-48.05 -3.25L-47.9 -3.3L-47.85 -3.3M-48.2,-5L-48.3 -4.9L-48.45 -4.9L-48.2 -5M-49,-3L-50.15 -2.95L-49.35 -2.5L-49 -3M-49.25,-1.9L-49.25 -2.05L-49.15 -2.05L-49.25 -1.9M-51.65,0.5L-51.45 0.4L-51.45 0.25L-51.4 0.4L-51.8 0.8L-51.75 0.65L-51.9 0.6L-52.4 0.6L-52.9 1.1L-52.45 0.6L-52.4 0.6L-51.8 0.5L-51.65 0.5M-52.2,1.3L-52.6 1.5L-52.6 1.25L-52.5 1.3L-52.2 1.3M-53.8,0.6L-53.75 0.6L-53.35 0.9L-53.8 0.6M-54.5,1.35L-54.4 1.5L-54.6 1.5L-54.75 1.8L-54.8 1.65L-54.5 1.35L-54.4 1.25L-54.45 1.35L-54.5 1.35M-55.6,2.4L-55.35 2.3L-53.35 1.9L-52.9 1.95L-55.2 2.3L-53.8 2.55L-53.7 2.55L-53.55 2.55L-53.5 2.45L-53.45 2.55L-53.75 2.85L-53.8 3L-53.8 2.7L-55.2 2.4L-55.4 2.4L-55.5 2.4L-55.55 2.55L-55.6 2.4M-53.85,2.95L-54.3 3.35L-54.25 3.2L-54.5 3.15L-54.95 3.15L-55.4 3.65L-55.05 4L-54.95 3.85L-54.85 3.85L-54.7 3.7L-54.7 3.85L-55.05 4.25L-55.1 4.25L-55.2 3.95L-56.15 3.25L-55.45 3.65L-55 3.15L-56.15 3.2L-56.2 3.2L-56.3 3.15L-56.25 3.05L-54.3 3.05L-54.15 3.05L-53.9 2.95L-53.85 2.95" />
<path style="fill:#000000;fill-opacity:0.498039" d="M-48.75,2.7L-48.85 2.7L-48.85 2.55L-48.6 2.7L-48.7 2.7L-48.9 2.85L-49.85 3.4L-49.9 3.55L-50 3.55L-50.45 3.35L-50.35 3.35L-50.15 3.4L-50.05 3.4L-48.9 2.85L-48.75 2.7M-48.2,3L-48.15 2.9L-47.85 3L-48 3.3L-49.3 3.9L-47.25 3.2L-47.15 3.4L-48.1 4.4L-48.1 4.55L-46.9 3.8L-46.85 3.8L-46.8 3.65L-46.95 3.65L-46.85 3.55L-46.65 3.65L-46.7 3.8L-46.85 3.8L-48 4.55L-48.1 4.55L-48.05 4.65L-48.35 4.55L-47.5 3.5L-49.35 4L-49.45 3.9L-49.35 3.75L-48.2 3.15L-48.1 3L-48.2 3M-49.65,3.7L-49.6 3.8L-49.75 3.7L-49.65 3.7M-47.8,3.15L-47.6 3.2L-47.75 3.2L-47.8 3.15" />
<path style="fill:#FF0000;fill-opacity:0.498039" d="M-25.25,3.55L-25.35 3.65L-25.55 3.65L-25.6 3.65L-25.55 4.6L-25.6 4.6L-27.15 3.8L-27.1 4.65L-26.95 4.75L-26.85 4.75L-27.15 4.9L-27.2 4.75L-27.25 3.9L-27.55 3.9L-27.55 3.75L-27.1 3.65L-25.65 4.45L-25.6 4.45L-25.65 3.65L-25.7 3.65L-25.9 3.65L-26.05 3.7L-26 3.6L-25.25 3.4L-25.25 3.55M-28.25,4L-28.85 4.05L-29.35 4.15Q-29.7 4.25 -29.65 4.5L-29.3 5Q-29.15 5 -29.1 5.1L-29.5 5L-29.9 4.65Q-30 4.4 -29.6 4.1L-28.85 3.95L-28 4L-27.65 4.3L-27.95 4.8L-28.7 5.05L-28.2 4.8Q-27.95 4.65 -28 4.4Q-28 4.1 -28.25 4M-30.15,4.4L-30.2 4.4L-30.4 4.2L-30.85 4.3L-31.1 4.3L-31.1 4.4L-31 5.25L-30.95 5.4L-30.95 5.25L-30.8 5.3L-30.65 5.3L-30.95 5.4L-31.2 5.4L-31.25 5.25L-31.3 4.4L-31.35 4.4L-31.55 4.35L-32 4.5L-32.25 4.6L-32.05 4.3L-30.3 4.05L-30.15 4.4M-34.4,5.8L-34.35 5.7L-33.7 4.65L-33.45 4.5L-32.5 5.55L-32.3 5.55L-32.9 5.65L-32.9 5.5L-33.1 5.25L-33.15 5.25L-33.65 4.75L-34.25 5.7L-34.4 5.8M-35.3,5.7L-35.15 5.9L-35 5.9L-35.4 6L-35.45 5.85L-35.5 5.05L-35.6 5.05L-36.2 6.1L-36.3 6.1L-37.25 5.15L-37.2 6L-37.15 6.1L-37 6.15L-37.3 6.25L-37.3 6L-37.35 5.15L-37.5 5.3Q-37.45 5.15 -37.55 5.1L-37.65 5.1L-37.15 5L-36.25 5.95L-35.65 4.9L-35.35 4.9L-35.3 5.7M-39.6,5.5L-39.55 6.2L-39.4 6.4L-38.8 6.45L-38.35 6.15Q-38.15 6.2 -38.15 6.05L-38.25 5.35L-38.3 5.35L-38.4 5.35L-38.5 5.35L-38.5 5.2L-37.8 5.1L-37.85 5.25L-38.05 5.25L-38.1 5.4L-38 5.95L-38.2 6.2L-38.8 6.45L-39.55 6.35L-39.8 6.2L-39.85 5.5L-40.05 5.6L-40.15 5.6L-40.15 5.45L-39.35 5.3L-39.35 5.4L-39.4 5.55L-39.55 5.5L-39.6 5.5M-40.3,6.55L-40.55 6.7L-40.25 6.3L-40.2 6.3L-40.3 6.55M-42.2,5.7L-40.55 5.45L-40.35 5.75Q-40.55 5.6 -40.6 5.75L-40.85 5.7L-41.1 5.7L-41.45 5.75L-41.65 5.75L-41.7 5.75L-41.65 6.6L-41.5 6.75L-41.8 6.85L-41.85 6.75L-41.95 5.85L-42.2 5.85L-42.2 5.7M-42.75,5.95L-42.65 6.75L-42.6 6.9L-43.15 7L-43 6.9L-42.85 6.9L-42.9 6.75L-42.95 5.95L-43.65 7L-43.75 7.1L-44.65 6.2L-44.6 7.05L-44.55 7.15L-45 7.3L-44.85 7.15L-44.75 7.15L-44.7 7.05L-44.75 6.2L-44.8 6.2L-44.6 6.05L-43.65 6.85L-43.1 5.75L-42.5 5.65L-42.45 5.7L-42.55 5.8L-42.7 5.95L-42.75 5.95M-40.9,5.95L-40.85 5.95L-40.75 6.25L-40.85 6.25L-41 6.25L-41.15 6.1L-41 6.1L-40.9 5.95M-46.1,6.25L-45.2 6.15L-45.25 6.3L-45.35 6.3L-45.5 6.3L-45.55 6.25L-45.5 7.1L-45.4 7.25L-45.2 7.25L-45.65 7.35L-45.75 7.2L-45.8 6.4L-45.95 6.4L-46.1 6.4L-46.1 6.25M-46.5,6.6Q-46.45 6.75 -46.55 6.75L-47.1 6.95L-46.55 7.3L-46.3 7.45L-46.55 7.45L-47.35 6.95Q-47 6.95 -46.85 6.7L-46.7 6.6L-46.85 6.4L-47.25 6.55L-47.55 6.5L-47.7 6.65L-47.75 6.65L-47.7 7.5L-47.65 7.6L-48.2 7.7L-48.05 7.55L-47.85 7.6L-47.9 7.5L-48 6.6L-48.15 6.6L-48.3 6.75L-48.3 6.6L-47.2 6.4L-46.6 6.45L-46.5 6.6M-48.55,6.85L-48.7 7.1L-48.8 7.1L-48.8 6.8L-48.85 6.7L-49.25 6.75L-49.55 6.9L-49.7 6.9L-49.8 6.9L-49.7 7.35L-49.3 7.2L-49.2 7.25L-49.7 7.35L-49.7 7.75L-49.65 7.9L-50.15 7.95L-50.05 7.85L-49.9 7.85L-49.9 7.7L-49.95 6.85L-50 6.85L-50.2 6.85L-50.3 7L-50.3 6.85L-49.2 6.65L-48.65 6.7L-48.55 6.85" />
<path style="fill:#000000;fill-opacity:0.498039" d="M-27.35,-0.4L-27.4 -0.25L-27.35 -0.25L-26.1 0.15L-26.05 0.15L-25.85 0.15L-26 0.25L-26.55 0.9L-26.95 0.9L-26.65 0.75L-26.45 0.65L-26.2 0.4L-26.05 0.25L-26 0.25L-26.1 0.15L-26.75 0.1L-26.85 0.2L-26.8 0.1L-27.5 -0.1L-27.6 -0.15L-27.7 0L-28 0.25L-28.05 0.4L-28 0.65L-28.05 0.65L-28.3 0.5L-27.4 -0.4L-27.35 -0.4M-25.65,-0.1L-25.7 0.05L-25.7 -0.1L-25.65 -0.1M-27,0.3L-26.95 0.5L-27.2 0.45L-27.45 0.45L-27.4 0.3L-27.2 0.45L-27 0.3M-26.95,1.2L-26.8 1.05L-26.65 1.05L-27.2 1.55L-27.25 1.4L-27.1 1.4L-27.05 1.25L-27.25 1.25L-28.5 0.9L-28.65 0.9L-28.85 1L-28.95 1.25L-29.1 1.4L-28.95 1.7L-29.05 1.7L-29.3 1.4L-28.45 0.6L-28.4 0.6L-28.5 0.75L-28.4 0.9L-27.1 1.15L-26.95 1.2" />
<path style="fill:#000000;fill-opacity:0.498039" d="M-40.55,-6.75L-40.3 -6.45L-40.35 -6.3L-40.6 -6.6L-40.55 -6.75M-41.1,-6.5L-41.65 -6.4L-41.85 -6.05L-41.55 -5.55L-41.35 -5.45L-41.8 -5.6L-42.15 -5.9L-41.85 -6.3L-41.1 -6.6L-40.95 -6.6L-40.85 -6.5L-41.1 -6.5M-35.15,-6.3L-35.75 -6.2L-35.75 -6.35L-35.9 -6.65L-36.35 -6.55L-36 -6.65L-36.5 -7.1L-36.9 -6.45L-37 -6.2L-37 -6.05L-37.45 -5.9L-37.15 -6.2L-36.55 -7.25L-36.35 -7.25L-35.45 -6.45L-35.4 -6.3L-35.15 -6.3M-40.15,-6.7L-39.3 -6.95L-39.3 -6.8L-39.35 -6.8L-39.55 -6.65L-39.6 -6.65L-39.5 -6.25L-39.5 -5.7L-40 -5.6L-39.9 -5.7L-39.7 -5.7L-39.7 -5.85L-39.85 -6.65L-40 -6.7L-40.15 -6.55L-40.15 -6.7M-38.6,-6.95L-37.75 -7.05L-37.75 -6.9L-37.9 -6.9L-38 -6.9L-38.05 -6.95L-37.95 -6.1L-37.9 -5.95L-37.75 -5.95L-37.65 -5.95L-38.15 -5.85L-38.15 -6L-38.25 -6.4L-38.3 -6.85L-38.6 -6.85L-38.6 -6.95M-40.3,-5.9L-40.2 -5.9L-40.35 -5.75Q-40.55 -5.45 -40.9 -5.5Q-40.6 -5.5 -40.4 -5.75L-40.3 -5.9" />
<path style="fill:#0000FF;fill-opacity:0.498039" d="M-34.75,-10.25L-34.9 -10.3L-36.2 -9.6L-36.25 -9.6L-36.2 -9.45L-36.45 -9.6L-35.95 -10.75L-37.1 -10.2L-37.15 -10.2L-37.1 -10.05L-37.5 -10.25L-37.4 -10.25L-37.3 -10.25Q-37.2 -10.2 -37.15 -10.3L-35.75 -11.05L-35.65 -10.9L-36.25 -9.7L-34.95 -10.3L-34.9 -10.45L-34.95 -10.45L-35 -10.6L-34.9 -10.6L-34.6 -10.25L-34.75 -10.25M-35.05,-9.75L-35.5 -9.25L-35.3 -8.95L-34.75 -8.9L-34.05 -9.1L-33.65 -9.45L-33.75 -9.8L-34.35 -10L-33.7 -9.8L-33.5 -9.35L-33.85 -8.95L-34.65 -8.75L-35.35 -8.95Q-35.65 -9.1 -35.65 -9.4L-35.2 -9.9L-34.45 -10L-34.35 -10L-35.05 -9.75M-33.9,-8.15L-33.8 -8.15L-33.7 -8.1L-33.6 -7.95Q-33.55 -7.8 -33.25 -7.8L-33.1 -7.8L-33.4 -7.7L-34.5 -8.35L-34.25 -8.7L-34.2 -8.7L-34.25 -8.55L-34.1 -8.3Q-34.05 -8.15 -33.9 -8.15M-31,-8.15L-31.15 -8.15L-31.25 -8.15L-31.45 -8.2L-31.65 -7.95L-31.15 -7.6L-30.6 -7.55L-30.45 -7.7L-30.25 -7.7L-30.55 -7.55L-30.6 -7.55L-32.3 -7.15L-32.45 -7.15L-31.55 -8.2L-31.5 -8.35L-31.6 -8.5L-31 -8.15M-32.4,-8.95L-32.55 -9.15L-32 -8.8L-32.05 -8.7L-32.15 -8.8L-32.25 -8.8L-32.4 -8.8L-33.15 -8.5L-32.55 -8.85L-32.4 -8.95M-32.3,-7.3L-31.2 -7.5L-31.65 -7.95L-32.3 -7.3M-28.45,-6.6L-28.6 -6.6L-28.7 -6.6L-28.6 -6.75L-28.35 -6.55L-28.45 -6.6M-28.1,-6.4L-28.15 -6.4L-28.15 -6.55L-27.65 -6.2L-27.7 -6.2L-27.75 -6.05L-27.95 -6.25L-28.05 -6.1L-29.4 -5.55L-29.3 -5.55L-28.45 -5.75L-29.45 -5.4L-29.85 -5.6L-29.75 -5.6L-29.55 -5.55L-29.4 -5.65L-28.15 -6.25L-28.1 -6.4M-26.55,-5.4L-26.65 -5.45L-26.8 -5.6L-26.9 -5.45L-27.8 -4.95L-26.95 -5.6L-26.85 -5.75L-26.55 -5.4L-26.5 -5.4L-26 -5.15L-26.15 -5.15L-26.3 -5.15L-26.55 -4.85L-26.1 -4.6L-26.6 -4.75L-27.15 -4.1L-26.05 -4.6L-26 -4.55L-25.5 -4.7L-25.45 -4.65L-25.45 -4.8L-25.5 -4.8L-25.45 -4.95L-25.05 -4.5L-25.1 -4.5L-25.45 -4.65L-27.15 -4.1L-27.4 -4.3L-26.45 -5.15L-26.35 -5.3L-26.5 -5.3L-26.55 -5.4M-27.35,-5.95L-27.3 -5.95L-28.25 -4.75L-28.55 -4.8L-27.55 -5.8L-27.35 -5.95M-26,-3.7L-25.65 -3.85L-25.5 -3.8L-25.8 -3.6L-25.95 -3.45L-25.85 -3.3L-25.6 -3.15L-25.55 -3.15Q-25.45 -3.1 -25.35 -3.25L-24.85 -3.5L-25.1 -3.65L-25.15 -3.65L-24.85 -4.35L-24.9 -4.5L-25 -4.65L-24.9 -4.65L-24.65 -4.3L-24.95 -3.65L-24.8 -3.5L-24.1 -3.85L-24 -4L-24.1 -4L-24.15 -4.1L-24.1 -4.1L-24 -4L-23.85 -3.85L-24.05 -3.7L-25.25 -3.1L-25.25 -3L-25.25 -2.85L-25.9 -3.3Q-26.2 -3.35 -26.1 -3.65L-26 -3.7M-24.05,-3.3L-23.85 -3.3L-23.4 -3.5L-23.35 -3.5L-23.15 -3.4L-22.85 -3.35Q-22.6 -3.2 -22.6 -2.9Q-22.65 -2.65 -23 -2.35L-23.05 -2.35L-23.8 -2.35L-24.15 -2.2L-24.45 -2.5L-24.6 -2.5L-24.75 -2.65Q-24.8 -2.5 -24.9 -2.65L-24.55 -2.95L-24.55 -2.8L-24.45 -2.5L-23.9 -2.45L-23.15 -2.55L-22.7 -3.05L-22.95 -3.2L-23.15 -3.4L-23.25 -3.4L-23.5 -3.4L-23.7 -3.15L-23.75 -3.15L-23.7 -3L-24.25 -3.3L-24.05 -3.3M-23.65,-3.65L-23.75 -3.7L-23.75 -3.75L-23.65 -3.65M-23.05,-1.55L-22.15 -2.6L-22.05 -2.6L-22.05 -2.75L-22.1 -2.85L-21.55 -2.4L-21.6 -2.4L-21.8 -2.55L-21.9 -2.4L-22.2 -2.2L-21.65 -1.85L-21.1 -1.95L-21.05 -2.1L-21.1 -2.2L-20.55 -1.9L-20.6 -1.9L-21.1 -1.95L-22.85 -1.4L-23.05 -1.55M-20.5,-1.9L-20.25 -1.6L-20.6 -1.05L-20.35 -0.95L-19.75 -1.15L-19.7 -1.3L-19.4 -1.1L-19.5 -1.1L-19.65 -1.15L-20.85 -0.45L-20.95 -0.45L-20.9 -0.3L-21.6 -0.6L-21.7 -1.05L-21.55 -1.15L-21.3 -1.25L-20.75 -1.05L-20.5 -1.6L-20.5 -1.9M-22.25,-2.2L-22.8 -1.55L-21.7 -1.85L-22.25 -2.2M-20.75,-1.05L-21.1 -1.1L-21.4 -1.05L-21.65 -0.9L-21.45 -0.6L-21.3 -0.55L-21.15 -0.55L-21 -0.55L-20.4 -0.95L-20.65 -1.05L-20.75 -1.05M-20.4,-0.25L-20.35 0.05L-20.15 0.1L-20 0.1L-19.3 -0.3L-19.9 0.1L-19.95 0.2L-19.9 0.2L-19.45 0.4L-19.35 0.4L-19.6 0.55L-20.65 -0.1L-20.45 -0.4L-20.4 -0.4L-20.4 -0.25M-18.5,-0.65L-18.7 -0.65L-18.75 -0.5L-18.75 -0.8L-18.65 -0.8L-18.5 -0.65M-18.4,-0.5L-18.25 -0.45L-18.35 -0.45L-18.4 -0.5M-17.65,-0.15L-16.6 0.4L-16.65 0.45L-16.7 0.45L-16.85 0.45L-16.95 0.45L-18.2 1.05L-18.3 1.2L-18.2 1.2L-18.15 1.35L-18.2 1.35L-19.2 0.8L-19.05 0.45L-19 0.45L-19 0.75L-18.8 1L-18.6 1L-18.5 1L-18.4 1.05L-17.15 0.35L-17 0.35L-17.1 0.2L-17.3 0.15Q-17.45 0 -17.7 0L-17.9 -0.05L-17.65 -0.15M-15.95,1.1L-17.2 1.85L-17.25 1.85L-17.25 2L-16.75 2L-16.5 2.05L-16.95 2.1L-17.25 2L-18 1.45L-17.8 1.1L-17.75 1.25L-17.8 1.4L-17.65 1.65L-17.55 1.65L-17.45 1.65L-17.35 1.65L-16.1 0.95L-15.95 1L-16.1 0.8L-15.8 1L-15.95 1.1M-18.05,0.5L-18 0.65L-18.05 0.65L-18.25 0.5L-18.45 0.45L-18.05 0.35L-18.05 0.5" />
</g>
</svg>
