<?xml version="1.0" encoding="utf-8"?>
<svg version="1.1" id="Layer_1"
xmlns="http://www.w3.org/2000/svg"
xmlns:xlink="http://www.w3.org/1999/xlink"
xmlns:author="http://www.sothink.com"
width="49px" height="36px"
xml:space="preserve">
<g id="391" transform="matrix(1, 0, 0, 1, 21.25, 14.55)">
<path style="fill:#33CC66;fill-opacity:1" d="M7.45,13.6Q8.65 18.8 6.1 18.35Q5.05 18.15 3.35 16.95Q3.3 18.85 -0.2 19.05Q-3.45 16.35 -0.7 13.9Q-2.6 14.75 -4.45 13.55Q-3.65 11.2 -1.8 9.7L-3.75 9.45L-4.15 9.35Q-9.3 8.45 -7.9 6.3L-7.05 5.4L-5.55 4.3Q-7.3 3.5 -6.15 0.25Q-4.55 -0.6 -3.4 -0.45L-3 -0.35Q-2.15 -0.05 -1.6 0.85Q-2.3 -3.2 -0.05 -2.75Q1 -2.6 2.7 -1.4Q2.75 -2.3 3.55 -2.85L3.8 -1.8Q4.25 1.25 4.15 4.05L3.75 7.15L3.55 8.1L3.5 8.35L3.3 8.4L3.05 9.7L3.1 9.75L2.85 10.45L3.25 9.85L5.05 11.05L7.45 13.6M5.95,7.75L5.2 7.95L5.9 7.45L5.95 7.75" />
<path style="fill:#FFFFFF;fill-opacity:1" d="M7,8.5L9.9 17.3L7.45 13.6L5.05 11.05L3.25 9.85L2.85 10.45L3.1 9.75L3.05 9.7L3.3 8.4L3.5 8.35L3.55 8.1L3.75 7.15L4.15 4.05Q4.25 1.25 3.8 -1.8L5.2 4.15L7.9 4.4L9.25 4.5L12.25 4.7L14.45 4.9L11.35 5.4L7 8.5M-4.15,9.35L-3.75 9.45L-5.9 10.65L-4.15 9.35M-3.8,-1.75L-3 -0.35L-3.4 -0.45L-3.8 -1.75M5.95,7.75Q8.5 6.9 11.1 5.45Q8 6.15 5.9 7.45L5.2 7.95L5.95 7.75" />
<radialGradient
id="RadialGradID_1715" gradientUnits="userSpaceOnUse" gradientTransform="matrix(0.0109863, 0, 0, 0.0109863, -17.95, 8.55)" spreadMethod ="pad" cx="0" cy="0" r="819.2" fx="0" fy="0" >
<stop  offset="0"  style="stop-color:#00FFFF;stop-opacity:1" />
<stop  offset="0.454902"  style="stop-color:#99FF66;stop-opacity:1" />
<stop  offset="0.733333"  style="stop-color:#C4FFD5;stop-opacity:1" />
<stop  offset="1"  style="stop-color:#FFFFFF;stop-opacity:1" />
</radialGradient>
<path style="fill:url(#RadialGradID_1715) " d="M-10.95,4.3L-11 14.3Q-17.5 11.65 -21 7L-10.95 4.3" />
<radialGradient
id="RadialGradID_1716" gradientUnits="userSpaceOnUse" gradientTransform="matrix(0.010498, 0, 0, 0.010498, -7.9, 6.3)" spreadMethod ="pad" cx="0" cy="0" r="819.2" fx="0" fy="0" >
<stop  offset="0"  style="stop-color:#00FFFF;stop-opacity:1" />
<stop  offset="0.454902"  style="stop-color:#99FF66;stop-opacity:1" />
<stop  offset="0.733333"  style="stop-color:#C4FFD5;stop-opacity:1" />
<stop  offset="1"  style="stop-color:#FFFFFF;stop-opacity:1" />
</radialGradient>
<path style="fill:url(#RadialGradID_1716) " d="M-7.05,5.4L-7.9 6.3Q-9.3 8.45 -4.15 9.35L-5.9 10.65L-11 14.3L-10.95 4.3L-7.05 5.4" />
<radialGradient
id="RadialGradID_1717" gradientUnits="userSpaceOnUse" gradientTransform="matrix(0.0113525, 0, 0, 0.0113525, -17.2, 4.55)" spreadMethod ="pad" cx="0" cy="0" r="819.2" fx="0" fy="0" >
<stop  offset="0"  style="stop-color:#00FFFF;stop-opacity:1" />
<stop  offset="0.454902"  style="stop-color:#99FF66;stop-opacity:1" />
<stop  offset="0.733333"  style="stop-color:#C4FFD5;stop-opacity:1" />
<stop  offset="1"  style="stop-color:#FFFFFF;stop-opacity:1" />
</radialGradient>
<path style="fill:url(#RadialGradID_1717) " d="M-21,7L-17.15 -4.75L-10.95 4.3L-21 7" />
<radialGradient
id="RadialGradID_1718" gradientUnits="userSpaceOnUse" gradientTransform="matrix(0.0125122, 0, 0, 0.0125122, -12.55, 1.9)" spreadMethod ="pad" cx="0" cy="0" r="819.2" fx="0" fy="0" >
<stop  offset="0"  style="stop-color:#00FFFF;stop-opacity:1" />
<stop  offset="0.454902"  style="stop-color:#99FF66;stop-opacity:1" />
<stop  offset="0.733333"  style="stop-color:#C4FFD5;stop-opacity:1" />
<stop  offset="1"  style="stop-color:#FFFFFF;stop-opacity:1" />
</radialGradient>
<path style="fill:url(#RadialGradID_1718) " d="M-10.95,4.3L-17.15 -4.75L-4.8 -4.75L-10.95 4.3" />
<radialGradient
id="RadialGradID_1719" gradientUnits="userSpaceOnUse" gradientTransform="matrix(0.00769043, 0, 0, 0.00769043, -6.15, 0.25)" spreadMethod ="pad" cx="0" cy="0" r="819.2" fx="0" fy="0" >
<stop  offset="0"  style="stop-color:#00FFFF;stop-opacity:1" />
<stop  offset="0.454902"  style="stop-color:#99FF66;stop-opacity:1" />
<stop  offset="0.733333"  style="stop-color:#C4FFD5;stop-opacity:1" />
<stop  offset="1"  style="stop-color:#FFFFFF;stop-opacity:1" />
</radialGradient>
<path style="fill:url(#RadialGradID_1719) " d="M-4.8,-4.75L-3.8 -1.75L-3.4 -0.45Q-4.55 -0.6 -6.15 0.25Q-7.3 3.5 -5.55 4.3L-7.05 5.4L-10.95 4.3L-4.8 -4.75" />
<radialGradient
id="RadialGradID_1720" gradientUnits="userSpaceOnUse" gradientTransform="matrix(-0.00375366, 0.00900269, -0.00900269, -0.00375366, 4.9, -0.3)" spreadMethod ="pad" cx="0" cy="0" r="819.2" fx="0" fy="0" >
<stop  offset="0"  style="stop-color:#00FFFF;stop-opacity:1" />
<stop  offset="0.454902"  style="stop-color:#99FF66;stop-opacity:1" />
<stop  offset="0.733333"  style="stop-color:#C4FFD5;stop-opacity:1" />
<stop  offset="1"  style="stop-color:#FFFFFF;stop-opacity:1" />
</radialGradient>
<path style="fill:url(#RadialGradID_1720) " d="M11.6,-4L5.2 4.15L3.8 -1.8L3.55 -2.85L2.4 -7.9L11.6 -4" />
<radialGradient
id="RadialGradID_1721" gradientUnits="userSpaceOnUse" gradientTransform="matrix(-0.00491333, 0.0117493, -0.0117493, -0.00491333, 8.45, 0.05)" spreadMethod ="pad" cx="0" cy="0" r="819.2" fx="0" fy="0" >
<stop  offset="0"  style="stop-color:#00FFFF;stop-opacity:1" />
<stop  offset="0.454902"  style="stop-color:#99FF66;stop-opacity:1" />
<stop  offset="0.733333"  style="stop-color:#C4FFD5;stop-opacity:1" />
<stop  offset="1"  style="stop-color:#FFFFFF;stop-opacity:1" />
</radialGradient>
<path style="fill:url(#RadialGradID_1721) " d="M17.55,5.15L17.05 5.1L14.45 4.9L12.25 4.7L9.25 4.5L7.9 4.4L5.2 4.15L11.6 -4L17.55 5.15" />
<radialGradient
id="RadialGradID_1722" gradientUnits="userSpaceOnUse" gradientTransform="matrix(0.00842285, 0, 0, 0.00842285, 17.75, -1.75)" spreadMethod ="pad" cx="0" cy="0" r="819.2" fx="0" fy="0" >
<stop  offset="0"  style="stop-color:#00FFFF;stop-opacity:1" />
<stop  offset="0.454902"  style="stop-color:#99FF66;stop-opacity:1" />
<stop  offset="0.733333"  style="stop-color:#C4FFD5;stop-opacity:1" />
<stop  offset="1"  style="stop-color:#FFFFFF;stop-opacity:1" />
</radialGradient>
<path style="fill:url(#RadialGradID_1722) " d="M11.6,-4L22.3 -6.25L18.85 2.05L17.55 5.15L11.6 -4" />
<radialGradient
id="RadialGradID_1723" gradientUnits="userSpaceOnUse" gradientTransform="matrix(0.0127563, 0, 0, 0.0127563, 12.25, -9.15)" spreadMethod ="pad" cx="0" cy="0" r="819.2" fx="0" fy="0" >
<stop  offset="0"  style="stop-color:#00FFFF;stop-opacity:1" />
<stop  offset="0.454902"  style="stop-color:#99FF66;stop-opacity:1" />
<stop  offset="0.733333"  style="stop-color:#C4FFD5;stop-opacity:1" />
<stop  offset="1"  style="stop-color:#FFFFFF;stop-opacity:1" />
</radialGradient>
<path style="fill:url(#RadialGradID_1723) " d="M11.6,-4L12.95 -14.3L22.3 -6.25L11.6 -4" />
<radialGradient
id="RadialGradID_1724" gradientUnits="userSpaceOnUse" gradientTransform="matrix(-0.00422668, 0.0101166, -0.0101166, -0.00422668, 10.35, -12.1)" spreadMethod ="pad" cx="0" cy="0" r="819.2" fx="0" fy="0" >
<stop  offset="0"  style="stop-color:#00FFFF;stop-opacity:1" />
<stop  offset="0.454902"  style="stop-color:#99FF66;stop-opacity:1" />
<stop  offset="0.733333"  style="stop-color:#C4FFD5;stop-opacity:1" />
<stop  offset="1"  style="stop-color:#FFFFFF;stop-opacity:1" />
</radialGradient>
<path style="fill:url(#RadialGradID_1724) " d="M11.6,-4L2.4 -7.9Q7.3 -12.85 12.95 -14.3L11.6 -4" />
<radialGradient
id="RadialGradID_1725" gradientUnits="userSpaceOnUse" gradientTransform="matrix(-0.00976563, 0, 0, -0.00976563, 11, 6.5)" spreadMethod ="pad" cx="0" cy="0" r="819.2" fx="0" fy="0" >
<stop  offset="0"  style="stop-color:#00FFFF;stop-opacity:1" />
<stop  offset="0.454902"  style="stop-color:#99FF66;stop-opacity:1" />
<stop  offset="0.733333"  style="stop-color:#C4FFD5;stop-opacity:1" />
<stop  offset="1"  style="stop-color:#FFFFFF;stop-opacity:1" />
</radialGradient>
<path style="fill:url(#RadialGradID_1725) " d="M7,8.5L11.35 5.4L14.45 4.9L17.05 5.1L17 11.25L7 8.5" />
<radialGradient
id="RadialGradID_1726" gradientUnits="userSpaceOnUse" gradientTransform="matrix(0.0125732, 0, 0, 0.0125732, 12.65, 10.15)" spreadMethod ="pad" cx="0" cy="0" r="819.2" fx="0" fy="0" >
<stop  offset="0"  style="stop-color:#00FFFF;stop-opacity:1" />
<stop  offset="0.454902"  style="stop-color:#99FF66;stop-opacity:1" />
<stop  offset="0.733333"  style="stop-color:#C4FFD5;stop-opacity:1" />
<stop  offset="1"  style="stop-color:#FFFFFF;stop-opacity:1" />
</radialGradient>
<path style="fill:url(#RadialGradID_1726) " d="M17,11.25L10.85 20.3L9.9 17.3L7 8.5L17 11.25" />
<radialGradient
id="RadialGradID_1727" gradientUnits="userSpaceOnUse" gradientTransform="matrix(-0.0125122, 0, 0, -0.0125122, 18.6, 13.65)" spreadMethod ="pad" cx="0" cy="0" r="819.2" fx="0" fy="0" >
<stop  offset="0"  style="stop-color:#00FFFF;stop-opacity:1" />
<stop  offset="0.454902"  style="stop-color:#99FF66;stop-opacity:1" />
<stop  offset="0.733333"  style="stop-color:#C4FFD5;stop-opacity:1" />
<stop  offset="1"  style="stop-color:#FFFFFF;stop-opacity:1" />
</radialGradient>
<path style="fill:url(#RadialGradID_1727) " d="M23.2,20.3L10.85 20.3L17 11.25L23.2 20.3" />
<radialGradient
id="RadialGradID_1728" gradientUnits="userSpaceOnUse" gradientTransform="matrix(0.0119629, 0, 0, 0.0119629, 18.95, 14.1)" spreadMethod ="pad" cx="0" cy="0" r="819.2" fx="0" fy="0" >
<stop  offset="0"  style="stop-color:#00FFFF;stop-opacity:1" />
<stop  offset="0.454902"  style="stop-color:#99FF66;stop-opacity:1" />
<stop  offset="0.733333"  style="stop-color:#C4FFD5;stop-opacity:1" />
<stop  offset="1"  style="stop-color:#FFFFFF;stop-opacity:1" />
</radialGradient>
<path style="fill:url(#RadialGradID_1728) " d="M17,11.25L27.05 8.55L23.2 20.3L17 11.25" />
<radialGradient
id="RadialGradID_1729" gradientUnits="userSpaceOnUse" gradientTransform="matrix(0.010376, 0, 0, 0.010376, 20.2, 10.45)" spreadMethod ="pad" cx="0" cy="0" r="819.2" fx="0" fy="0" >
<stop  offset="0"  style="stop-color:#00FFFF;stop-opacity:1" />
<stop  offset="0.454902"  style="stop-color:#99FF66;stop-opacity:1" />
<stop  offset="0.733333"  style="stop-color:#C4FFD5;stop-opacity:1" />
<stop  offset="1"  style="stop-color:#FFFFFF;stop-opacity:1" />
</radialGradient>
<path style="fill:url(#RadialGradID_1729) " d="M17,11.25L17.05 5.1L17.55 5.15L18.85 2.05Q24.05 4.55 27.05 8.55L17 11.25" />
<path style="fill:none;stroke-width:0.5;stroke-linecap:round;stroke-linejoin:round;stroke-miterlimit:3;stroke:#666666;stroke-opacity:1" d="M-3,-0.35Q-2.15 -0.05 -1.6 0.85Q-2.3 -3.2 -0.05 -2.75Q1 -2.6 2.7 -1.4Q2.75 -2.3 3.55 -2.85L2.4 -7.9Q7.3 -12.85 12.95 -14.3L22.3 -6.25L18.85 2.05Q24.05 4.55 27.05 8.55L23.2 20.3L10.85 20.3L9.9 17.3L7.45 13.6Q8.65 18.8 6.1 18.35Q5.05 18.15 3.35 16.95Q3.3 18.85 -0.2 19.05Q-3.45 16.35 -0.7 13.9Q-2.6 14.75 -4.45 13.55Q-3.65 11.2 -1.8 9.7L-3.75 9.45L-5.9 10.65L-11 14.3Q-17.5 11.65 -21 7L-17.15 -4.75L-4.8 -4.75L-3.8 -1.75L-3 -0.35L-3.4 -0.45Q-4.55 -0.6 -6.15 0.25Q-4.05 1.3 -2.35 2.7L-0.8 4.2L0.5 5.8L1.6 7.55L1.85 8.1L2.05 8.45L2.1 8.55L2.1 8.6L2.5 9.45L2.75 10.2L2.85 10.45L2.85 10.1L2.85 9.6L2.8 8.5L2.8 8.3L2.75 7.65L2.65 6.3Q2.25 3.1 1.25 0.25L0.55 -1.55Q-1.25 -0.35 -1.2 1.75L-1.6 0.85M3.55,-2.85L3.8 -1.8L5.2 4.15L11.6 -4L2.4 -7.9M12.95,-14.3L11.6 -4L22.3 -6.25M0.55,-1.55L0.7 -1.45L-0.05 -2.75M-3.8,-1.75L-3.4 -0.45M-6.15,0.25Q-7.3 3.5 -5.55 4.3L-7.05 5.4L-7.9 6.3Q-4.2 5.65 -1.55 7.5L-0.75 8.15L-0.25 8.65L0.5 9.5L0.8 9.9L0.85 9.9L2.6 10.4L2.85 10.45L3 9.85L3.05 9.7L3.3 8.4L3.35 8.15L3.5 7.3L3.55 5Q3.4 0.95 0.7 -1.45M-7.9,6.3Q-9.3 8.45 -4.15 9.35L-3.75 9.45M-4.15,9.35L-5.9 10.65M-7.05,5.4L-10.95 4.3L-11 14.3M-10.95,4.3L-17.15 -4.75M-10.95,4.3L-21 7M11.6,-4L17.55 5.15L18.85 2.05M17.55,5.15L17.05 5.1L17 11.25L27.05 8.55M3.1,9.75L2.85 10.45L3.25 9.85L5.2 7.95L5.9 7.45Q8 6.15 11.1 5.45L11.35 5.4L14.45 4.9L12.25 4.7L9.25 4.5L7.9 4.4L5.2 4.15M17.05,5.1L14.45 4.9M3.5,7.3L3.7 7.2L3.75 7.15L4.15 4.05L3.55 5M4.15,4.05Q4.25 1.25 3.8 -1.8M3.3,8.4L3.5 8.35L3.55 8.1L3.35 8.15M3.75,7.15L3.55 8.1M-1.8,9.7L0 9.85L0.8 9.9M3,9.85L3.1 9.75L3.05 9.7M3.1,9.75L3.5 8.35M11.1,5.45Q8.5 6.9 5.95 7.75L5.2 7.95M3.25,9.85L5.05 11.05L7.45 13.6M5.95,7.75L5.9 7.45M9.9,17.3L7 8.5L11.35 5.4M7,8.5L17 11.25L10.85 20.3M5.05,11.05Q3.8 14.7 6.1 18.35M17,11.25L23.2 20.3M-0.2,19.05Q0.15 14.1 2.6 10.4M-4.45,13.55Q-2.45 11.45 0 9.85M-10.95,4.3L-4.8 -4.75" />
<path style="fill:#FFCCFF;fill-opacity:1" d="M-11.95,5.3Q-12.35 4.9 -12.35 4.3Q-12.35 3.7 -11.95 3.3Q-11.55 2.9 -10.95 2.9Q-10.35 2.9 -9.95 3.3Q-9.55 3.7 -9.55 4.3Q-9.55 4.9 -9.95 5.3Q-10.35 5.7 -10.95 5.7Q-11.55 5.7 -11.95 5.3" />
<path style="fill:none;stroke-width:0.5;stroke-linecap:round;stroke-linejoin:round;stroke-miterlimit:3;stroke:#FFCCFF;stroke-opacity:1" d="M-11.95,5.3Q-12.35 4.9 -12.35 4.3Q-12.35 3.7 -11.95 3.3Q-11.55 2.9 -10.95 2.9Q-10.35 2.9 -9.95 3.3Q-9.55 3.7 -9.55 4.3Q-9.55 4.9 -9.95 5.3Q-10.35 5.7 -10.95 5.7Q-11.55 5.7 -11.95 5.3z" />
<path style="fill:#FFCCFF;fill-opacity:1" d="M18,10.25Q18.4 10.65 18.4 11.25Q18.4 11.85 18 12.25Q17.6 12.65 17 12.65Q16.4 12.65 16 12.25Q15.6 11.85 15.6 11.25Q15.6 10.65 16 10.25Q16.4 9.85 17 9.85Q17.6 9.85 18 10.25" />
<path style="fill:none;stroke-width:0.5;stroke-linecap:round;stroke-linejoin:round;stroke-miterlimit:3;stroke:#FFCCFF;stroke-opacity:1" d="M18,10.25Q18.4 10.65 18.4 11.25Q18.4 11.85 18 12.25Q17.6 12.65 17 12.65Q16.4 12.65 16 12.25Q15.6 11.85 15.6 11.25Q15.6 10.65 16 10.25Q16.4 9.85 17 9.85Q17.6 9.85 18 10.25z" />
<path style="fill:#FFCCFF;fill-opacity:1" d="M11,-5.25L12.1 -5.2L12.85 -4.5Q13.05 -3.95 12.85 -3.4L12.1 -2.65Q11.6 -2.45 11.05 -2.65Q10.5 -2.9 10.25 -3.4Q10.05 -3.9 10.3 -4.45Q10.5 -5 11 -5.25" />
<path style="fill:none;stroke-width:0.5;stroke-linecap:round;stroke-linejoin:round;stroke-miterlimit:3;stroke:#FFCCFF;stroke-opacity:1" d="M11,-5.25L12.1 -5.2L12.85 -4.5Q13.05 -3.95 12.85 -3.4L12.1 -2.65Q11.6 -2.45 11.05 -2.65Q10.5 -2.9 10.25 -3.4Q10.05 -3.9 10.3 -4.45Q10.5 -5 11 -5.25z" />
</g>
</svg>
