<?xml version="1.0" encoding="utf-8"?>
<svg version="1.1" id="Layer_1"
xmlns="http://www.w3.org/2000/svg"
xmlns:xlink="http://www.w3.org/1999/xlink"
xmlns:author="http://www.sothink.com"
width="44px" height="58px"
xml:space="preserve">
<g id="902" transform="matrix(1, 0, 0, 1, 21.5, 71)">
<path style="fill:#000000;fill-opacity:1" d="M9.55,-59.75L8.9 -59.45L5.05 -68.05L1.2 -59.45L-0.05 -60L5.05 -71L10.1 -60L9.55 -59.75M-3.95,-60L-5.15 -59.45L-9 -68.05L-12.85 -59.45L-14.1 -60L-9 -71L-3.95 -60M-18.4,-55.85L-18 -55.45L-18.1 -55.35Q-20.25 -53.3 -20.45 -50.8L-20.45 -50.2Q-20.5 -48.55 -19.65 -47.1L-19.4 -46.65Q-18.9 -45.75 -18 -44.95L-18.1 -44.85L-18.7 -44.25Q-19.95 -45.4 -20.6 -46.65Q-21.55 -48.3 -21.5 -50.2L-21.5 -50.8Q-21.3 -53.85 -18.7 -56.2L-18.4 -55.85M-14.55,-38.95L-11.3 -38.25L-8.2 -37.35L-8.85 -35.75L-12.15 -37Q-13.9 -37.6 -15.15 -37.6Q-16.75 -37.6 -17.3 -37Q-18.15 -36.2 -18.1 -35Q-18.15 -33.9 -17.35 -33.15Q-16.35 -32.1 -13.3 -31.9L-12 -31.85L-12.35 -30.35L-13.85 -30.4Q-16.7 -30.7 -18.25 -31.9L-18.65 -32.25Q-19.7 -33.25 -19.65 -35.1Q-19.7 -36.9 -18.55 -37.95Q-17.55 -39 -15.3 -39L-14.55 -38.95M-12.3,-20.65L-7.8 -20.65L-7.8 -19.1L-14.35 -19.1Q-15.1 -19.1 -15.5 -18.7Q-16.1 -18.15 -16.05 -17.05Q-16.1 -16 -15.5 -15.45Q-15.1 -15 -14.35 -15L-7.8 -15L-7.8 -13.5L-14.4 -13.5Q-15.7 -13.5 -16.45 -14.3Q-17.4 -15.2 -17.35 -17.05Q-17.4 -18.95 -16.45 -19.85Q-15.7 -20.65 -14.4 -20.65L-12.3 -20.65M12.5,-18.45L12.05 -18.85Q11.25 -19.45 10.65 -20.4L11.95 -21.4L12.65 -20.45Q13.3 -19.8 13.95 -19.8Q14.8 -19.8 16.5 -20.65Q17.65 -21.45 18.75 -21.45Q19.85 -21.45 20.7 -20.65L21.9 -19L20.55 -18.25L19.95 -19.2Q19.5 -19.75 18.65 -19.75Q17.9 -19.75 16.75 -19.1Q15 -18 14.1 -18L13.7 -18Q13 -18.1 12.5 -18.45M10.45,-44.2L10.05 -43.85L9.3 -44.55L10.3 -45.65Q11.8 -47.55 11.85 -49.8L11.75 -50.8Q11.4 -53.1 9.3 -55.05L10.05 -55.8Q12.45 -53.6 12.8 -50.8L12.9 -49.8Q12.85 -47.1 11.05 -44.9L10.45 -44.2M-9.75,-45.05L-10.3 -45.05L-9.75 -43.6L-10.5 -43.6L-11.25 -45.15L-11.25 -46.5L-9.75 -46.5L-9.75 -45.05M-12.65,-46.5L-12.65 -45.05L-13.2 -45.05L-12.65 -43.6L-13.4 -43.6L-14.15 -45.15L-14.15 -46.5L-12.65 -46.5" />
<path style="fill:#FFFFFF;fill-opacity:1" d="M-17.25,-56.95L-14.1 -60L-12.85 -59.45L-9 -68.05L-5.15 -59.45L-3.95 -60L-0.05 -60L1.2 -59.45L5.05 -68.05L8.9 -59.45L9.55 -59.75L10.05 -55.8L9.3 -55.05Q11.4 -53.1 11.75 -50.8L11.85 -49.8Q11.8 -47.55 10.3 -45.65L9.3 -44.55L10.05 -43.85L10.45 -44.2L12.25 -31.4L12.65 -20.45L11.95 -21.4L10.65 -20.4Q11.25 -19.45 12.05 -18.85L12.5 -18.45L12.5 -16.75L9.2 -13.5L-7.8 -13.5L-7.8 -15L-14.35 -15Q-15.1 -15 -15.5 -15.45Q-16.1 -16 -16.05 -17.05Q-16.1 -18.15 -15.5 -18.7Q-15.1 -19.1 -14.35 -19.1L-7.8 -19.1L-7.8 -20.65L-12.3 -20.65L-12.3 -26.4L-13.8 -27.65L-13.85 -30.4L-12.35 -30.35L-12 -31.85L-13.3 -31.9Q-16.35 -32.1 -17.35 -33.15Q-18.15 -33.9 -18.1 -35Q-18.15 -36.2 -17.3 -37Q-16.75 -37.6 -15.15 -37.6Q-13.9 -37.6 -12.15 -37L-8.85 -35.75L-8.2 -37.35L-11.3 -38.25L-14.55 -38.95L-14.55 -43.65L-17.8 -44.55L-18.1 -44.85L-18 -44.95Q-18.9 -45.75 -19.4 -46.65L-19.65 -47.1Q-20.5 -48.55 -20.45 -50.2L-20.45 -50.8Q-20.25 -53.3 -18.1 -55.35L-18 -55.45L-18.4 -55.85L-17.25 -56.95M-9.75,-46.5L-11.25 -46.5L-11.25 -45.15L-10.5 -43.6L-9.75 -43.6L-10.3 -45.05L-9.75 -45.05L-9.75 -46.5M-14.15,-46.5L-14.15 -45.15L-13.4 -43.6L-12.65 -43.6L-13.2 -45.05L-12.65 -45.05L-12.65 -46.5L-14.15 -46.5" />
<path style="fill:none;stroke-width:1;stroke-linecap:round;stroke-linejoin:round;stroke-miterlimit:3;stroke:#000000;stroke-opacity:1" d="M-0.05,-60L-3.95 -60M-17.25,-56.95L-18.4 -55.85M-12.3,-26.4L-12.3 -20.65" />
</g>
</svg>
