<?xml version="1.0" encoding="utf-8"?>
<svg version="1.1" id="Layer_1"
xmlns="http://www.w3.org/2000/svg"
xmlns:xlink="http://www.w3.org/1999/xlink"
xmlns:author="http://www.sothink.com"
width="57px" height="74px"
xml:space="preserve">
<g id="593" transform="matrix(1, 0, 0, 1, 19.55, 59)">
<radialGradient
id="RadialGradID_2077" gradientUnits="userSpaceOnUse" gradientTransform="matrix(0.0419312, 0, 0, 0.0419312, 18.8, -12.05)" spreadMethod ="pad" cx="0" cy="0" r="819.2" fx="0" fy="0" >
<stop  offset="0"  style="stop-color:#FFFFFF;stop-opacity:1" />
<stop  offset="1"  style="stop-color:#FCE2B8;stop-opacity:1" />
</radialGradient>
<path style="fill:url(#RadialGradID_2077) " d="M30.15,-35.25L30.45 1.35L8.8 12.7L-8.15 4.95L-7.4 -33.9L12.25 -45.75L30.15 -35.25" />
<path style="fill:none;stroke-width:0.5;stroke-linecap:round;stroke-linejoin:round;stroke-miterlimit:3;stroke:#4F4F4F;stroke-opacity:1" d="M30.15,-35.25L30.45 1.35L8.8 12.7L-8.15 4.95L-7.4 -33.9L12.25 -45.75L30.15 -35.25z" />
<linearGradient
id="LinearGradID_2078" gradientUnits="userSpaceOnUse" gradientTransform="matrix(0.00447083, 0.00894165, -0.00592041, 0.00296021, -7.95, -22.35)" spreadMethod ="pad" x1="-819.2" y1="0" x2="819.2" y2="0" >
<stop  offset="0" style="stop-color:#BB9D2B;stop-opacity:1" />
<stop  offset="1" style="stop-color:#EDE2A9;stop-opacity:1" />
</linearGradient>
<path style="fill:url(#LinearGradID_2078) " d="M-6.1,-14.25Q-6.4 -14.65 -6.95 -14.75L-8.4 -14.55Q-9.15 -14.2 -9.5 -13.5L-9.6 -13.5L-9.6 -13.85L-9.6 -13.95L-9.6 -15.2L-9.6 -16.3L-9.6 -17.65L-9.6 -24.45L-9.6 -24.75L-9.6 -28.65L-9.6 -28.8L-9.6 -29.8L-9.5 -30.25L-9.4 -30.4L-8.4 -31.3L-6.95 -31.5Q-6.3 -31.35 -6 -30.4L-6 -14.15L-6.1 -14.25" />
<linearGradient
id="LinearGradID_2079" gradientUnits="userSpaceOnUse" gradientTransform="matrix(0.00447083, 0.00894165, -0.0059967, 0.00300598, -7.95, -32.9)" spreadMethod ="pad" x1="-819.2" y1="0" x2="819.2" y2="0" >
<stop  offset="0" style="stop-color:#BB9D2B;stop-opacity:1" />
<stop  offset="1" style="stop-color:#EDE2A9;stop-opacity:1" />
</linearGradient>
<path style="fill:url(#LinearGradID_2079) " d="M-9.6,-30.4L-9.4 -30.4L-9.5 -30.25L-9.6 -29.8L-9.6 -30.4" />
<linearGradient
id="LinearGradID_2080" gradientUnits="userSpaceOnUse" gradientTransform="matrix(0.00445557, 0.00891113, -0.00602722, 0.00300598, -8, -33.65)" spreadMethod ="pad" x1="-819.2" y1="0" x2="819.2" y2="0" >
<stop  offset="0" style="stop-color:#BB9D2B;stop-opacity:1" />
<stop  offset="1" style="stop-color:#EDE2A9;stop-opacity:1" />
</linearGradient>
<path style="fill:url(#LinearGradID_2080) " d="M-9.65,-24.75L-9.65 -30.4L-9.6 -30.4L-9.6 -29.8L-9.6 -28.8L-9.6 -28.65L-9.6 -24.75L-9.65 -24.75" />
<linearGradient
id="LinearGradID_2081" gradientUnits="userSpaceOnUse" gradientTransform="matrix(0.00445557, 0.00891113, -0.00602722, 0.00300598, -8, -16.9)" spreadMethod ="pad" x1="-819.2" y1="0" x2="819.2" y2="0" >
<stop  offset="0" style="stop-color:#BB9D2B;stop-opacity:1" />
<stop  offset="1" style="stop-color:#EDE2A9;stop-opacity:1" />
</linearGradient>
<path style="fill:url(#LinearGradID_2081) " d="M-9.6,-8L-9.65 -8L-9.6 -14.2L-9.65 -23.95L-9.65 -24.3L-9.6 -24.45L-9.6 -17.65L-9.6 -16.3L-9.6 -15.2L-9.6 -13.95L-9.6 -13.85L-9.6 -13.5L-9.6 -13.1L-9.6 -8" />
<linearGradient
id="LinearGradID_2082" gradientUnits="userSpaceOnUse" gradientTransform="matrix(0.00445557, 0.00891113, -0.00602722, 0.00300598, -8, -6.4)" spreadMethod ="pad" x1="-819.2" y1="0" x2="819.2" y2="0" >
<stop  offset="0" style="stop-color:#BB9D2B;stop-opacity:1" />
<stop  offset="1" style="stop-color:#EDE2A9;stop-opacity:1" />
</linearGradient>
<path style="fill:url(#LinearGradID_2082) " d="M-9.6,-3.15L-9.65 -3.15L-9.65 -6.5L-9.6 -7.15L-9.6 -3.15M-9.6,-13.1L-9.6 -13.5L-9.5 -13.5L-9.6 -13.1" />
<linearGradient
id="LinearGradID_2083" gradientUnits="userSpaceOnUse" gradientTransform="matrix(0.00447083, 0.00894165, -0.0059967, 0.00300598, -7.95, -5.65)" spreadMethod ="pad" x1="-819.2" y1="0" x2="819.2" y2="0" >
<stop  offset="0" style="stop-color:#BB9D2B;stop-opacity:1" />
<stop  offset="1" style="stop-color:#EDE2A9;stop-opacity:1" />
</linearGradient>
<path style="fill:url(#LinearGradID_2083) " d="M-9.6,-7.15L-9.6 -7.6L-9.6 -8L-9.6 -13.1L-9.5 -13.5Q-9.15 -14.2 -8.4 -14.55L-6.95 -14.75Q-6.4 -14.65 -6.1 -14.25L-6 -14.15L-6.05 -3.15L-6.15 -3.15L-9.6 -3.15L-9.6 -7.15" />
<linearGradient
id="LinearGradID_2084" gradientUnits="userSpaceOnUse" gradientTransform="matrix(0.00367737, 0.00735474, -0.00515747, 0.00257874, -7.85, -1.8)" spreadMethod ="pad" x1="-819.2" y1="0" x2="819.2" y2="0" >
<stop  offset="0" style="stop-color:#BB9D2B;stop-opacity:1" />
<stop  offset="1" style="stop-color:#EDE2A9;stop-opacity:1" />
</linearGradient>
<path style="fill:url(#LinearGradID_2084) " d="M-6.15,-3.15L-6.2 3.25Q-6 3.8 -6.25 4.45Q-6.55 5.1 -7.3 5.45L-8.75 5.7Q-9.45 5.55 -9.75 5.05L-9.65 -3.15L-9.6 -3.15L-6.15 -3.15M-9.6,-7.6L-9.6 -7.15L-9.65 -6.5L-9.65 -7.5L-9.6 -7.6" />
<path style="fill:none;stroke-width:1;stroke-linecap:round;stroke-linejoin:round;stroke-miterlimit:3;stroke:#5D5305;stroke-opacity:1" d="M-9.4,-30.4L-8.4 -31.3L-6.95 -31.5Q-6.3 -31.35 -6 -30.4L-6 -14.15L-6.05 -3.15M-6.15,-3.15L-6.2 3.25Q-6 3.8 -6.25 4.45Q-6.55 5.1 -7.3 5.45L-8.75 5.7Q-9.45 5.55 -9.75 5.05L-9.65 -3.15L-9.65 -6.5L-9.65 -7.5L-9.65 -8L-9.6 -14.2L-9.65 -23.95L-9.65 -24.3L-9.65 -24.75L-9.65 -30.4M-9.4,-30.4L-9.5 -30.25L-9.6 -29.8L-9.6 -28.8L-9.6 -28.65L-9.6 -24.75L-9.6 -24.45L-9.6 -17.65L-9.6 -16.3L-9.6 -15.2L-9.6 -13.95L-9.6 -13.85L-9.6 -13.5L-9.6 -13.1L-9.5 -13.5M-9.6,-29.8L-9.6 -30.4M-9.6,-24.45L-9.65 -24.3M-9.6,-15.2L-9.6 -14.2M-9.65,-6.5L-9.6 -7.15L-9.6 -7.6L-9.65 -7.5M-9.6,-7.6L-9.6 -8L-9.6 -13.1M-9.6,-3.15L-9.6 -7.15" />
<path style="fill:none;stroke-width:1;stroke-linecap:round;stroke-linejoin:round;stroke-miterlimit:3;stroke:#C5B30D;stroke-opacity:1" d="M-9.5,-13.5Q-9.15 -14.2 -8.4 -14.55L-6.95 -14.75Q-6.4 -14.65 -6.1 -14.25L-6 -14.15" />
<linearGradient
id="LinearGradID_2085" gradientUnits="userSpaceOnUse" gradientTransform="matrix(0.00447083, 0.00894165, -0.00592041, 0.00296021, 9.1, -14.75)" spreadMethod ="pad" x1="-819.2" y1="0" x2="819.2" y2="0" >
<stop  offset="0" style="stop-color:#BB9D2B;stop-opacity:1" />
<stop  offset="1" style="stop-color:#EDE2A9;stop-opacity:1" />
</linearGradient>
<path style="fill:url(#LinearGradID_2085) " d="M10.95,-6.65L10.1 -7.15L8.65 -6.95Q7.9 -6.6 7.55 -5.9L7.45 -5.9L7.45 -16.85L7.45 -17.15L7.45 -21.05L7.45 -21.2L7.45 -22.2L7.55 -22.65L7.65 -22.8Q7.95 -23.35 8.65 -23.7L10.1 -23.9Q10.75 -23.75 11.05 -22.8L11.05 -6.55L10.95 -6.65" />
<linearGradient
id="LinearGradID_2086" gradientUnits="userSpaceOnUse" gradientTransform="matrix(0.00447083, 0.00894165, -0.0059967, 0.00300598, 9.1, -25.3)" spreadMethod ="pad" x1="-819.2" y1="0" x2="819.2" y2="0" >
<stop  offset="0" style="stop-color:#BB9D2B;stop-opacity:1" />
<stop  offset="1" style="stop-color:#EDE2A9;stop-opacity:1" />
</linearGradient>
<path style="fill:url(#LinearGradID_2086) " d="M7.45,-22.8L7.65 -22.8L7.55 -22.65L7.45 -22.2L7.45 -22.8" />
<linearGradient
id="LinearGradID_2087" gradientUnits="userSpaceOnUse" gradientTransform="matrix(0.00445557, 0.00891113, -0.00602722, 0.00300598, 9.05, -26.05)" spreadMethod ="pad" x1="-819.2" y1="0" x2="819.2" y2="0" >
<stop  offset="0" style="stop-color:#BB9D2B;stop-opacity:1" />
<stop  offset="1" style="stop-color:#EDE2A9;stop-opacity:1" />
</linearGradient>
<path style="fill:url(#LinearGradID_2087) " d="M7.4,-17.15L7.4 -22.8L7.45 -22.8L7.45 -22.2L7.45 -21.2L7.45 -21.05L7.45 -17.15L7.4 -17.15" />
<linearGradient
id="LinearGradID_2088" gradientUnits="userSpaceOnUse" gradientTransform="matrix(0.00445557, 0.00891113, -0.00602722, 0.00300598, 9.05, -9.3)" spreadMethod ="pad" x1="-819.2" y1="0" x2="819.2" y2="0" >
<stop  offset="0" style="stop-color:#BB9D2B;stop-opacity:1" />
<stop  offset="1" style="stop-color:#EDE2A9;stop-opacity:1" />
</linearGradient>
<path style="fill:url(#LinearGradID_2088) " d="M7.4,-0.4L7.4 -3.15L7.4 -16.35L7.4 -16.7L7.45 -16.85L7.45 -5.9L7.45 -5.5L7.45 -0.4L7.4 -0.4" />
<linearGradient
id="LinearGradID_2089" gradientUnits="userSpaceOnUse" gradientTransform="matrix(0.00447083, 0.00894165, -0.0059967, 0.00300598, 9.1, 1.95)" spreadMethod ="pad" x1="-819.2" y1="0" x2="819.2" y2="0" >
<stop  offset="0" style="stop-color:#BB9D2B;stop-opacity:1" />
<stop  offset="1" style="stop-color:#EDE2A9;stop-opacity:1" />
</linearGradient>
<path style="fill:url(#LinearGradID_2089) " d="M7.45,4.45L7.45 0.45L7.45 0L7.45 -0.4L7.45 -5.5L7.55 -5.9Q7.9 -6.6 8.65 -6.95L10.1 -7.15L10.95 -6.65L11.05 -6.55L11 4.45L10.9 4.45L7.45 4.45" />
<linearGradient
id="LinearGradID_2090" gradientUnits="userSpaceOnUse" gradientTransform="matrix(0.00445557, 0.00891113, -0.00602722, 0.00300598, 9.05, 1.2)" spreadMethod ="pad" x1="-819.2" y1="0" x2="819.2" y2="0" >
<stop  offset="0" style="stop-color:#BB9D2B;stop-opacity:1" />
<stop  offset="1" style="stop-color:#EDE2A9;stop-opacity:1" />
</linearGradient>
<path style="fill:url(#LinearGradID_2090) " d="M7.45,0.45L7.45 4.45L7.4 4.45L7.4 1.1L7.45 0.45M7.45,-5.9L7.55 -5.9L7.45 -5.5L7.45 -5.9" />
<linearGradient
id="LinearGradID_2091" gradientUnits="userSpaceOnUse" gradientTransform="matrix(0.00367737, 0.00735474, -0.00515747, 0.00257874, 9.2, 5.8)" spreadMethod ="pad" x1="-819.2" y1="0" x2="819.2" y2="0" >
<stop  offset="0" style="stop-color:#BB9D2B;stop-opacity:1" />
<stop  offset="1" style="stop-color:#EDE2A9;stop-opacity:1" />
</linearGradient>
<path style="fill:url(#LinearGradID_2091) " d="M7.45,4.45L10.9 4.45L10.85 10.85L10.8 12.05L9.75 13.05L8.3 13.3L7.3 12.65L7.4 4.45L7.45 4.45M7.4,1.1L7.4 0.1L7.45 0L7.45 0.45L7.4 1.1" />
<path style="fill:none;stroke-width:1;stroke-linecap:round;stroke-linejoin:round;stroke-miterlimit:3;stroke:#5D5305;stroke-opacity:1" d="M7.65,-22.8Q7.95 -23.35 8.65 -23.7L10.1 -23.9Q10.75 -23.75 11.05 -22.8L11.05 -6.55L11 4.45M10.9,4.45L10.85 10.85L10.8 12.05L9.75 13.05L8.3 13.3L7.3 12.65L7.4 4.45L7.4 1.1L7.4 0.1L7.4 -0.4L7.4 -3.15L7.4 -16.35L7.4 -16.7L7.4 -17.15L7.4 -22.8M7.65,-22.8L7.55 -22.65L7.45 -22.2L7.45 -21.2L7.45 -21.05L7.45 -17.15L7.45 -16.85L7.45 -5.9L7.45 -5.5M7.45,-22.8L7.45 -22.2M7.45,-16.85L7.4 -16.7M7.55,-5.9L7.45 -5.5L7.45 -0.4L7.45 0L7.45 0.45L7.45 4.45M7.45,-5.9L7.4 -3.15M7.4,0.1L7.45 0M7.4,1.1L7.45 0.45" />
<path style="fill:none;stroke-width:1;stroke-linecap:round;stroke-linejoin:round;stroke-miterlimit:3;stroke:#C5B30D;stroke-opacity:1" d="M7.55,-5.9Q7.9 -6.6 8.65 -6.95L10.1 -7.15L10.95 -6.65L11.05 -6.55" />
<linearGradient
id="LinearGradID_2092" gradientUnits="userSpaceOnUse" gradientTransform="matrix(-0.00447083, 0.00894165, 0.00592041, 0.00296021, 30.5, -26.35)" spreadMethod ="pad" x1="-819.2" y1="0" x2="819.2" y2="0" >
<stop  offset="0" style="stop-color:#BB9D2B;stop-opacity:1" />
<stop  offset="1" style="stop-color:#EDE2A9;stop-opacity:1" />
</linearGradient>
<path style="fill:url(#LinearGradID_2092) " d="M32.05,-34.25L32.15 -33.8L32.15 -32.8L32.15 -32.65L32.15 -28.75L32.15 -28.45L32.15 -21.65L32.15 -20.3L32.15 -19.8L32.15 -19.2L32.15 -17.5L32.05 -17.5Q31.7 -18.2 30.95 -18.55L29.5 -18.75Q28.95 -18.65 28.65 -18.25L28.55 -18.15L28.55 -34.4Q28.85 -35.35 29.5 -35.5L30.95 -35.3L31.95 -34.4L32.05 -34.25" />
<linearGradient
id="LinearGradID_2093" gradientUnits="userSpaceOnUse" gradientTransform="matrix(-0.00445557, 0.00891113, 0.00602722, 0.00300598, 30.55, -37.65)" spreadMethod ="pad" x1="-819.2" y1="0" x2="819.2" y2="0" >
<stop  offset="0" style="stop-color:#BB9D2B;stop-opacity:1" />
<stop  offset="1" style="stop-color:#EDE2A9;stop-opacity:1" />
</linearGradient>
<path style="fill:url(#LinearGradID_2093) " d="M32.15,-28.75L32.15 -32.65L32.15 -32.8L32.15 -33.8L32.15 -34.4L32.2 -34.4L32.2 -28.75L32.15 -28.75" />
<linearGradient
id="LinearGradID_2094" gradientUnits="userSpaceOnUse" gradientTransform="matrix(-0.00447083, 0.00894165, 0.0059967, 0.00300598, 30.5, -36.9)" spreadMethod ="pad" x1="-819.2" y1="0" x2="819.2" y2="0" >
<stop  offset="0" style="stop-color:#BB9D2B;stop-opacity:1" />
<stop  offset="1" style="stop-color:#EDE2A9;stop-opacity:1" />
</linearGradient>
<path style="fill:url(#LinearGradID_2094) " d="M32.15,-33.8L32.05 -34.25L31.95 -34.4L32.15 -34.4L32.15 -33.8" />
<linearGradient
id="LinearGradID_2095" gradientUnits="userSpaceOnUse" gradientTransform="matrix(-0.00445557, 0.00891113, 0.00602722, 0.00300598, 30.55, -20.9)" spreadMethod ="pad" x1="-819.2" y1="0" x2="819.2" y2="0" >
<stop  offset="0" style="stop-color:#BB9D2B;stop-opacity:1" />
<stop  offset="1" style="stop-color:#EDE2A9;stop-opacity:1" />
</linearGradient>
<path style="fill:url(#LinearGradID_2095) " d="M32.15,-12L32.15 -17.1L32.15 -17.5L32.15 -19.2L32.15 -19.8L32.15 -20.3L32.15 -21.65L32.15 -28.45L32.2 -28.3L32.2 -27.95L32.2 -18.2L32.2 -12L32.15 -12" />
<linearGradient
id="LinearGradID_2096" gradientUnits="userSpaceOnUse" gradientTransform="matrix(-0.00447083, 0.00894165, 0.0059967, 0.00300598, 30.5, -9.65)" spreadMethod ="pad" x1="-819.2" y1="0" x2="819.2" y2="0" >
<stop  offset="0" style="stop-color:#BB9D2B;stop-opacity:1" />
<stop  offset="1" style="stop-color:#EDE2A9;stop-opacity:1" />
</linearGradient>
<path style="fill:url(#LinearGradID_2096) " d="M28.7,-7.15L28.6 -7.15L28.55 -18.15L28.65 -18.25Q28.95 -18.65 29.5 -18.75L30.95 -18.55Q31.7 -18.2 32.05 -17.5L32.15 -17.1L32.15 -12L32.15 -11.6L32.15 -11.15L32.15 -7.15L28.7 -7.15" />
<linearGradient
id="LinearGradID_2097" gradientUnits="userSpaceOnUse" gradientTransform="matrix(-0.00445557, 0.00891113, 0.00602722, 0.00300598, 30.55, -10.4)" spreadMethod ="pad" x1="-819.2" y1="0" x2="819.2" y2="0" >
<stop  offset="0" style="stop-color:#BB9D2B;stop-opacity:1" />
<stop  offset="1" style="stop-color:#EDE2A9;stop-opacity:1" />
</linearGradient>
<path style="fill:url(#LinearGradID_2097) " d="M32.15,-17.1L32.05 -17.5L32.15 -17.5L32.15 -17.1M32.15,-7.15L32.15 -11.15L32.2 -10.5L32.2 -7.15L32.15 -7.15" />
<linearGradient
id="LinearGradID_2098" gradientUnits="userSpaceOnUse" gradientTransform="matrix(-0.00367737, 0.00735474, 0.00515747, 0.00257874, 30.4, -5.8)" spreadMethod ="pad" x1="-819.2" y1="0" x2="819.2" y2="0" >
<stop  offset="0" style="stop-color:#BB9D2B;stop-opacity:1" />
<stop  offset="1" style="stop-color:#EDE2A9;stop-opacity:1" />
</linearGradient>
<path style="fill:url(#LinearGradID_2098) " d="M32.2,-11.5L32.2 -10.5L32.15 -11.15L32.15 -11.6L32.2 -11.5M32.15,-7.15L32.2 -7.15L32.3 1.05Q32 1.55 31.3 1.7L29.85 1.45Q29.1 1.1 28.8 0.45Q28.55 -0.2 28.75 -0.75L28.7 -7.15L32.15 -7.15" />
<path style="fill:none;stroke-width:1;stroke-linecap:round;stroke-linejoin:round;stroke-miterlimit:3;stroke:#5D5305;stroke-opacity:1" d="M32.15,-17.5L32.15 -19.2L32.15 -19.8L32.15 -20.3L32.15 -21.65L32.15 -28.45L32.15 -28.75L32.15 -32.65L32.15 -32.8L32.15 -33.8L32.05 -34.25L31.95 -34.4L30.95 -35.3L29.5 -35.5Q28.85 -35.35 28.55 -34.4L28.55 -18.15M32.2,-34.4L32.2 -28.75L32.2 -28.3L32.2 -27.95L32.2 -18.2L32.2 -12L32.2 -11.85L32.2 -11.5L32.2 -10.5L32.2 -7.15L32.3 1.05Q32 1.55 31.3 1.7L29.85 1.45Q29.1 1.1 28.8 0.45Q28.55 -0.2 28.75 -0.75L28.7 -7.15M28.6,-7.15L28.55 -18.15M32.15,-34.4L32.15 -33.8M32.15,-28.45L32.2 -28.3M32.15,-17.5L32.15 -17.1L32.05 -17.5M32.15,-17.1L32.15 -12M32.15,-19.2L32.2 -18.2M32.2,-10.5L32.15 -11.15L32.15 -7.15M32.15,-11.15L32.15 -11.6L32.15 -12M32.2,-11.5L32.15 -11.6" />
<path style="fill:none;stroke-width:1;stroke-linecap:round;stroke-linejoin:round;stroke-miterlimit:3;stroke:#C5B30D;stroke-opacity:1" d="M28.55,-18.15L28.65 -18.25Q28.95 -18.65 29.5 -18.75L30.95 -18.55Q31.7 -18.2 32.05 -17.5" />
<linearGradient
id="LinearGradID_2099" gradientUnits="userSpaceOnUse" gradientTransform="matrix(-0.0100098, 0, 0, 0.00662231, 24.1, 5)" spreadMethod ="pad" x1="-819.2" y1="0" x2="819.2" y2="0" >
<stop  offset="0" style="stop-color:#BB9D2B;stop-opacity:1" />
<stop  offset="1" style="stop-color:#EDE2A9;stop-opacity:1" />
</linearGradient>
<path style="fill:url(#LinearGradID_2099) " d="M23.6,3.1L30.45 -0.35Q31.4 -0.5 31.85 0L32.3 1.4L31.85 2.85Q31.4 3.35 30.45 3.65L23.6 7.1L23.6 3.1M15.9,6.95Q18.45 5.7 20.95 4.4L20.55 4.65L15.95 6.95L15.9 6.95" />
<linearGradient
id="LinearGradID_2100" gradientUnits="userSpaceOnUse" gradientTransform="matrix(-0.0100098, 0, 0, 0.00671387, 24.1, 4.95)" spreadMethod ="pad" x1="-819.2" y1="0" x2="819.2" y2="0" >
<stop  offset="0" style="stop-color:#BB9D2B;stop-opacity:1" />
<stop  offset="1" style="stop-color:#EDE2A9;stop-opacity:1" />
</linearGradient>
<path style="fill:url(#LinearGradID_2100) " d="M19.4,9.2L17.35 10.25L16.9 10.45L16.85 10.35Q17.3 9.75 17.3 8.9Q17.3 8.1 16.85 7.5L16.5 7.2L15.9 6.95L15.95 6.95L20.55 4.65L20.95 4.4L23.6 3.1L23.6 7.1L20.8 8.5L19.4 9.2" />
<linearGradient
id="LinearGradID_2101" gradientUnits="userSpaceOnUse" gradientTransform="matrix(-0.0100098, 0, 0, 0.00671387, 13.1, 10.45)" spreadMethod ="pad" x1="-819.2" y1="0" x2="819.2" y2="0" >
<stop  offset="0" style="stop-color:#BB9D2B;stop-opacity:1" />
<stop  offset="1" style="stop-color:#EDE2A9;stop-opacity:1" />
</linearGradient>
<path style="fill:url(#LinearGradID_2101) " d="M12.6,8.65L12.6 8.6L14.35 7.7L14.35 7.75L12.6 8.65" />
<linearGradient
id="LinearGradID_2102" gradientUnits="userSpaceOnUse" gradientTransform="matrix(-0.0100098, 0, 0, 0.00671387, 9.1, 12.45)" spreadMethod ="pad" x1="-819.2" y1="0" x2="819.2" y2="0" >
<stop  offset="0" style="stop-color:#BB9D2B;stop-opacity:1" />
<stop  offset="1" style="stop-color:#EDE2A9;stop-opacity:1" />
</linearGradient>
<path style="fill:url(#LinearGradID_2102) " d="M11.15,9.35L11.1 9.4L10.6 9.65L10.4 9.75L10.35 9.75L10.35 9.7L11.55 9.15L11.15 9.35M12.4,8.7L12.6 8.6L12.45 8.7L12.4 8.7M15.45,7.2L14.35 7.75L14.35 7.7L15.85 7L15.45 7.2" />
<linearGradient
id="LinearGradID_2103" gradientUnits="userSpaceOnUse" gradientTransform="matrix(-0.0112915, 0, 0, 0.0072937, 8.05, 12.9)" spreadMethod ="pad" x1="-819.2" y1="0" x2="819.2" y2="0" >
<stop  offset="0" style="stop-color:#BB9D2B;stop-opacity:1" />
<stop  offset="1" style="stop-color:#EDE2A9;stop-opacity:1" />
</linearGradient>
<path style="fill:url(#LinearGradID_2103) " d="M11.55,9.15L12.2 8.8L12.3 8.75L12.4 8.7L12.45 8.7L12.6 8.6L12.6 8.65L11.85 9L11.1 9.4L11.15 9.35L11.55 9.15" />
<linearGradient
id="LinearGradID_2104" gradientUnits="userSpaceOnUse" gradientTransform="matrix(-0.00579834, 0, 0, 0.00454712, 12.55, 10.65)" spreadMethod ="pad" x1="-819.2" y1="0" x2="819.2" y2="0" >
<stop  offset="0" style="stop-color:#BB9D2B;stop-opacity:1" />
<stop  offset="1" style="stop-color:#EDE2A9;stop-opacity:1" />
</linearGradient>
<path style="fill:url(#LinearGradID_2104) " d="M10.5,13.7L9.1 14.4L8.25 13.85Q7.8 13.25 7.8 12.4Q7.8 11.6 8.25 11L8.7 10.55L10 9.95L10.05 10L10.05 9.9L10.15 9.85L10.35 9.75L10.4 9.75L10.6 9.65L11.1 9.4L11.85 9L12.6 8.65L14.35 7.75L15.45 7.2L15.85 7L15.9 6.95L16.5 7.2L16.85 7.5Q17.3 8.1 17.3 8.9Q17.3 9.75 16.85 10.35L16.5 10.65L15.95 10.95L10.9 13.5L10.85 13.35L10.5 13.7" />
<linearGradient
id="LinearGradID_2105" gradientUnits="userSpaceOnUse" gradientTransform="matrix(-0.0112915, 0, 0, 0.0072937, 13.05, 10.4)" spreadMethod ="pad" x1="-819.2" y1="0" x2="819.2" y2="0" >
<stop  offset="0" style="stop-color:#BB9D2B;stop-opacity:1" />
<stop  offset="1" style="stop-color:#EDE2A9;stop-opacity:1" />
</linearGradient>
<path style="fill:url(#LinearGradID_2105) " d="M10.85,13.35L10.9 13.5L10.5 13.7L10.85 13.35" />
<path style="fill:none;stroke-width:1;stroke-linecap:round;stroke-linejoin:round;stroke-miterlimit:3;stroke:#5D5305;stroke-opacity:1" d="M10.35,9.7L11.55 9.15L12.2 8.8L12.3 8.75L12.4 8.7L12.6 8.6L14.35 7.7L15.85 7L15.9 6.95Q18.45 5.7 20.95 4.4L23.6 3.1L30.45 -0.35Q31.4 -0.5 31.85 0L32.3 1.4L31.85 2.85Q31.4 3.35 30.45 3.65L23.6 7.1L20.8 8.5L20.55 8.65L19.4 9.2L17.35 10.25L15.95 10.95L10.9 13.5L10.5 13.7L9.1 14.4L8.25 13.85Q7.8 13.25 7.8 12.4Q7.8 11.6 8.25 11L8.7 10.55L10 9.95L10.05 9.9L10.15 9.85L10.35 9.75M15.95,6.95L20.55 4.65L20.95 4.4M12.2,8.8L11.85 9L12.6 8.65L14.35 7.75L12.6 8.6L12.45 8.7L12.4 8.7M11.85,9L11.1 9.4L10.6 9.65L10.4 9.75L10.35 9.75M11.1,9.4L11.15 9.35L11.55 9.15L10.55 9.65L10.4 9.75M14.35,7.75L15.45 7.2L15.85 7M16.85,10.35L16.5 10.65L16.9 10.45L17.35 10.25M16.5,10.65L15.95 10.95M10.85,13.35L10.5 13.7M19.4,9.2L20.8 8.5" />
<path style="fill:none;stroke-width:1;stroke-linecap:round;stroke-linejoin:round;stroke-miterlimit:3;stroke:#C5B30D;stroke-opacity:1" d="M15.95,6.95L15.9 6.95M16.85,7.5Q17.3 8.1 17.3 8.9Q17.3 9.75 16.85 10.35" />
<linearGradient
id="LinearGradID_2106" gradientUnits="userSpaceOnUse" gradientTransform="matrix(0.0112915, 0, 0, -0.0072937, 8.8, -42.9)" spreadMethod ="pad" x1="-819.2" y1="0" x2="819.2" y2="0" >
<stop  offset="0" style="stop-color:#BB9D2B;stop-opacity:1" />
<stop  offset="1" style="stop-color:#EDE2A9;stop-opacity:1" />
</linearGradient>
<path style="fill:url(#LinearGradID_2106) " d="M11.35,-46.2L11 -45.85L10.95 -46L11.35 -46.2" />
<linearGradient
id="LinearGradID_2107" gradientUnits="userSpaceOnUse" gradientTransform="matrix(0.00579834, 0, 0, -0.00454712, 9.3, -43.15)" spreadMethod ="pad" x1="-819.2" y1="0" x2="819.2" y2="0" >
<stop  offset="0" style="stop-color:#BB9D2B;stop-opacity:1" />
<stop  offset="1" style="stop-color:#EDE2A9;stop-opacity:1" />
</linearGradient>
<path style="fill:url(#LinearGradID_2107) " d="M12.75,-46.9L13.6 -46.35Q14.05 -45.75 14.05 -44.9Q14.05 -44.1 13.6 -43.5L13.15 -43.05L11.85 -42.45L11.8 -42.5L11.8 -42.4L11.5 -42.25L11.25 -42.15L10.75 -41.9L10 -41.5L9.25 -41.15L7.5 -40.25L6.4 -39.7L6 -39.45L5.95 -39.45Q5.6 -39.5 5.35 -39.7L5 -40Q4.55 -40.6 4.55 -41.4Q4.55 -42.25 5 -42.85L5.35 -43.15L5.9 -43.45L10.95 -46L11 -45.85L11.35 -46.2L12.75 -46.9" />
<linearGradient
id="LinearGradID_2108" gradientUnits="userSpaceOnUse" gradientTransform="matrix(0.0100098, 0, 0, -0.00671387, 12.75, -44.95)" spreadMethod ="pad" x1="-819.2" y1="0" x2="819.2" y2="0" >
<stop  offset="0" style="stop-color:#BB9D2B;stop-opacity:1" />
<stop  offset="1" style="stop-color:#EDE2A9;stop-opacity:1" />
</linearGradient>
<path style="fill:url(#LinearGradID_2108) " d="M7.5,-40.2L6 -39.45L6.4 -39.7L7.5 -40.25L7.5 -40.2M10.75,-41.9L11.25 -42.15L11.5 -42.25L11.5 -42.2L9.8 -41.35L10.3 -41.6L10.7 -41.85L10.75 -41.9M9.45,-41.2L9.25 -41.1L9.4 -41.2L9.45 -41.2" />
<linearGradient
id="LinearGradID_2109" gradientUnits="userSpaceOnUse" gradientTransform="matrix(0.0112915, 0, 0, -0.0072937, 13.8, -45.4)" spreadMethod ="pad" x1="-819.2" y1="0" x2="819.2" y2="0" >
<stop  offset="0" style="stop-color:#BB9D2B;stop-opacity:1" />
<stop  offset="1" style="stop-color:#EDE2A9;stop-opacity:1" />
</linearGradient>
<path style="fill:url(#LinearGradID_2109) " d="M9.25,-41.15L10 -41.5L10.75 -41.9L10.7 -41.85L10.3 -41.6L9.8 -41.35L9.65 -41.3L9.45 -41.2L9.4 -41.2L9.25 -41.1L9.25 -41.15" />
<linearGradient
id="LinearGradID_2110" gradientUnits="userSpaceOnUse" gradientTransform="matrix(0.0100098, 0, 0, -0.00671387, -2.25, -37.45)" spreadMethod ="pad" x1="-819.2" y1="0" x2="819.2" y2="0" >
<stop  offset="0" style="stop-color:#BB9D2B;stop-opacity:1" />
<stop  offset="1" style="stop-color:#EDE2A9;stop-opacity:1" />
</linearGradient>
<path style="fill:url(#LinearGradID_2110) " d="M5.9,-39.45L1.3 -37.15L0.9 -36.9L-1.75 -35.6L-1.75 -39.6L1.05 -41L2.45 -41.7L4.55 -42.75L4.95 -42.95L5 -42.85Q4.55 -42.25 4.55 -41.4Q4.55 -40.6 5 -40L5.35 -39.7Q5.6 -39.5 5.95 -39.45L5.9 -39.45" />
<linearGradient
id="LinearGradID_2111" gradientUnits="userSpaceOnUse" gradientTransform="matrix(0.0100098, 0, 0, -0.00671387, 8.75, -42.95)" spreadMethod ="pad" x1="-819.2" y1="0" x2="819.2" y2="0" >
<stop  offset="0" style="stop-color:#BB9D2B;stop-opacity:1" />
<stop  offset="1" style="stop-color:#EDE2A9;stop-opacity:1" />
</linearGradient>
<path style="fill:url(#LinearGradID_2111) " d="M7.5,-40.25L9.25 -41.15L9.25 -41.1L7.5 -40.2L7.5 -40.25" />
<linearGradient
id="LinearGradID_2112" gradientUnits="userSpaceOnUse" gradientTransform="matrix(0.0100098, 0, 0, -0.00662231, -2.25, -37.5)" spreadMethod ="pad" x1="-819.2" y1="0" x2="819.2" y2="0" >
<stop  offset="0" style="stop-color:#BB9D2B;stop-opacity:1" />
<stop  offset="1" style="stop-color:#EDE2A9;stop-opacity:1" />
</linearGradient>
<path style="fill:url(#LinearGradID_2112) " d="M-1.75,-39.6L-1.75 -35.6L-8.6 -32.15Q-9.55 -32 -10 -32.5Q-10.45 -33.1 -10.45 -33.9Q-10.45 -34.75 -10 -35.35Q-9.55 -35.85 -8.6 -36.15L-1.75 -39.6M0.9,-36.9L1.3 -37.15L5.9 -39.45L5.95 -39.45L0.9 -36.9" />
<path style="fill:none;stroke-width:1;stroke-linecap:round;stroke-linejoin:round;stroke-miterlimit:3;stroke:#5D5305;stroke-opacity:1" d="M11,-45.85L11.35 -46.2L10.95 -46L5.9 -43.45L5.35 -43.15L5 -42.85M-1.75,-35.6L0.9 -36.9L1.3 -37.15L5.9 -39.45L5.95 -39.45L6 -39.45L6.4 -39.7L7.5 -40.25L9.25 -41.15L10 -41.5L10.75 -41.9L11.25 -42.15L11.5 -42.25L11.8 -42.4M11.85,-42.45L13.15 -43.05L13.6 -43.5Q14.05 -44.1 14.05 -44.9Q14.05 -45.75 13.6 -46.35L12.75 -46.9L11.35 -46.2M11.85,-42.45L11.8 -42.4M11.5,-42.2L9.8 -41.35L9.65 -41.3L9.45 -41.2L9.25 -41.1L7.5 -40.2L6 -39.45M9.8,-41.35L10.3 -41.6L10.7 -41.85L10.75 -41.9M11.5,-42.25L11.3 -42.15L10.3 -41.6M5.35,-43.15L4.95 -42.95L4.55 -42.75L2.45 -41.7L1.05 -41L-1.75 -39.6M5.95,-39.45L0.9 -36.9M1.05,-41L1.3 -41.15L2.45 -41.7M9.25,-41.1L9.4 -41.2L9.45 -41.2M10,-41.5L9.65 -41.3M9.25,-41.1L7.5 -40.25M4.55,-42.75L5.9 -43.45M-1.75,-35.6L-8.6 -32.15Q-9.55 -32 -10 -32.5Q-10.45 -33.1 -10.45 -33.9Q-10.45 -34.75 -10 -35.35Q-9.55 -35.85 -8.6 -36.15L-1.75 -39.6" />
<path style="fill:none;stroke-width:1;stroke-linecap:round;stroke-linejoin:round;stroke-miterlimit:3;stroke:#C5B30D;stroke-opacity:1" d="M5,-42.85Q4.55 -42.25 4.55 -41.4Q4.55 -40.6 5 -40" />
<linearGradient
id="LinearGradID_2113" gradientUnits="userSpaceOnUse" gradientTransform="matrix(0.0100098, 0, 0, 0.00671387, -2.25, -29.05)" spreadMethod ="pad" x1="-819.2" y1="0" x2="819.2" y2="0" >
<stop  offset="0" style="stop-color:#BB9D2B;stop-opacity:1" />
<stop  offset="1" style="stop-color:#EDE2A9;stop-opacity:1" />
</linearGradient>
<path style="fill:url(#LinearGradID_2113) " d="M4.95,-23.55L4.55 -23.75L4.3 -23.85L2.45 -24.8L1.05 -25.5L-1.75 -26.9L-1.75 -30.9L0.9 -29.6L1.3 -29.35L5.9 -27.05L5.95 -27.05Q5.6 -27 5.35 -26.8L5 -26.5Q4.55 -25.9 4.55 -25.1Q4.55 -24.25 5 -23.65L4.95 -23.55" />
<linearGradient
id="LinearGradID_2114" gradientUnits="userSpaceOnUse" gradientTransform="matrix(0.00579834, 0, 0, 0.00454712, 9.3, -23.35)" spreadMethod ="pad" x1="-819.2" y1="0" x2="819.2" y2="0" >
<stop  offset="0" style="stop-color:#BB9D2B;stop-opacity:1" />
<stop  offset="1" style="stop-color:#EDE2A9;stop-opacity:1" />
</linearGradient>
<path style="fill:url(#LinearGradID_2114) " d="M7.5,-26.25L8.2 -25.9L8.6 -25.5Q9.05 -24.9 9.05 -24.1Q9.05 -23.25 8.6 -22.65L7.75 -22.1L7.5 -22.25L5.9 -23.05L5.35 -23.35L5 -23.65Q4.55 -24.25 4.55 -25.1Q4.55 -25.9 5 -26.5L5.35 -26.8Q5.6 -27 5.95 -27.05L7.5 -26.25" />
<linearGradient
id="LinearGradID_2115" gradientUnits="userSpaceOnUse" gradientTransform="matrix(0.0100098, 0, 0, 0.00662231, -2.25, -29)" spreadMethod ="pad" x1="-819.2" y1="0" x2="819.2" y2="0" >
<stop  offset="0" style="stop-color:#BB9D2B;stop-opacity:1" />
<stop  offset="1" style="stop-color:#EDE2A9;stop-opacity:1" />
</linearGradient>
<path style="fill:url(#LinearGradID_2115) " d="M5.95,-27.05L5.9 -27.05L1.3 -29.35L0.9 -29.6L5.95 -27.05M-1.75,-30.9L-1.75 -26.9L-8.6 -30.35Q-9.55 -30.65 -10 -31.15Q-10.45 -31.75 -10.45 -32.6Q-10.45 -33.4 -10 -34Q-9.55 -34.5 -8.6 -34.35L-1.75 -30.9" />
<linearGradient
id="LinearGradID_2116" gradientUnits="userSpaceOnUse" gradientTransform="matrix(0.0100098, 0, 0, 0.00671387, 12.75, -21.55)" spreadMethod ="pad" x1="-819.2" y1="0" x2="819.2" y2="0" >
<stop  offset="0" style="stop-color:#BB9D2B;stop-opacity:1" />
<stop  offset="1" style="stop-color:#EDE2A9;stop-opacity:1" />
</linearGradient>
<path style="fill:url(#LinearGradID_2116) " d="M7.5,-26.3L7.5 -26.25L5.95 -27.05L7.5 -26.3M9.45,-25.3L9.4 -25.3L9.25 -25.4L9.45 -25.3" />
<linearGradient
id="LinearGradID_2117" gradientUnits="userSpaceOnUse" gradientTransform="matrix(0.0100098, 0, 0, 0.00671387, 8.75, -23.55)" spreadMethod ="pad" x1="-819.2" y1="0" x2="819.2" y2="0" >
<stop  offset="0" style="stop-color:#BB9D2B;stop-opacity:1" />
<stop  offset="1" style="stop-color:#EDE2A9;stop-opacity:1" />
</linearGradient>
<path style="fill:url(#LinearGradID_2117) " d="M9.25,-25.4L9.25 -25.35L8.2 -25.9L7.5 -26.25L7.5 -26.3L9.25 -25.4" />
<linearGradient
id="LinearGradID_2118" gradientUnits="userSpaceOnUse" gradientTransform="matrix(0.0112915, 0, 0, 0.0072937, 13.8, -21.1)" spreadMethod ="pad" x1="-819.2" y1="0" x2="819.2" y2="0" >
<stop  offset="0" style="stop-color:#BB9D2B;stop-opacity:1" />
<stop  offset="1" style="stop-color:#EDE2A9;stop-opacity:1" />
</linearGradient>
<path style="fill:url(#LinearGradID_2118) " d="M10.55,-24.75L10.55 -24.7L9.25 -25.35L9.25 -25.4L9.4 -25.3L9.45 -25.3L10.55 -24.75" />
<path style="fill:none;stroke-width:1;stroke-linecap:round;stroke-linejoin:round;stroke-miterlimit:3;stroke:#C5B30D;stroke-opacity:1" d="M5,-23.65Q4.55 -24.25 4.55 -25.1Q4.55 -25.9 5 -26.5" />
<path style="fill:none;stroke-width:1;stroke-linecap:round;stroke-linejoin:round;stroke-miterlimit:3;stroke:#5D5305;stroke-opacity:1" d="M5,-23.65L5.35 -23.35L5.9 -23.05L7.5 -22.25L7.75 -22.1L8.6 -22.65Q9.05 -23.25 9.05 -24.1Q9.05 -24.9 8.6 -25.5L8.2 -25.9L7.5 -26.25L5.95 -27.05L5.9 -27.05L1.3 -29.35L0.9 -29.6L-1.75 -30.9M-1.75,-26.9L1.05 -25.5L2.45 -24.8L4.3 -23.85L4.55 -23.75L4.95 -23.55L5.35 -23.35M7.5,-26.3L5.95 -27.05L0.9 -29.6M2.45,-24.8L1.3 -25.35L1.05 -25.5M5.9,-23.05L4.55 -23.75M-1.75,-26.9L-8.6 -30.35Q-9.55 -30.65 -10 -31.15Q-10.45 -31.75 -10.45 -32.6Q-10.45 -33.4 -10 -34Q-9.55 -34.5 -8.6 -34.35L-1.75 -30.9" />
<linearGradient
id="LinearGradID_2119" gradientUnits="userSpaceOnUse" gradientTransform="matrix(0.0112915, 0, 0, 0.0072937, 13.8, 15.4)" spreadMethod ="pad" x1="-819.2" y1="0" x2="819.2" y2="0" >
<stop  offset="0" style="stop-color:#BB9D2B;stop-opacity:1" />
<stop  offset="1" style="stop-color:#EDE2A9;stop-opacity:1" />
</linearGradient>
<path style="fill:url(#LinearGradID_2119) " d="M9.25,11.1L9.4 11.2L9.45 11.2L10.55 11.75L10.55 11.8L9.25 11.15L9.25 11.1" />
<linearGradient
id="LinearGradID_2120" gradientUnits="userSpaceOnUse" gradientTransform="matrix(0.0100098, 0, 0, 0.00671387, -2.25, 7.45)" spreadMethod ="pad" x1="-819.2" y1="0" x2="819.2" y2="0" >
<stop  offset="0" style="stop-color:#BB9D2B;stop-opacity:1" />
<stop  offset="1" style="stop-color:#EDE2A9;stop-opacity:1" />
</linearGradient>
<path style="fill:url(#LinearGradID_2120) " d="M-1.75,5.6L0.9 6.9L1.3 7.15L5.9 9.45L5.95 9.45Q5.6 9.5 5.35 9.7L5 10Q4.55 10.6 4.55 11.4Q4.55 12.25 5 12.85L4.95 12.95L4.55 12.75L4.3 12.65L2.45 11.7L1.05 11L-1.75 9.6L-1.75 5.6" />
<linearGradient
id="LinearGradID_2121" gradientUnits="userSpaceOnUse" gradientTransform="matrix(0.0100098, 0, 0, 0.00662231, -2.25, 7.5)" spreadMethod ="pad" x1="-819.2" y1="0" x2="819.2" y2="0" >
<stop  offset="0" style="stop-color:#BB9D2B;stop-opacity:1" />
<stop  offset="1" style="stop-color:#EDE2A9;stop-opacity:1" />
</linearGradient>
<path style="fill:url(#LinearGradID_2121) " d="M-1.75,9.6L-8.6 6.15Q-9.55 5.85 -10 5.35Q-10.45 4.75 -10.45 3.9Q-10.45 3.1 -10 2.5Q-9.55 2 -8.6 2.15L-1.75 5.6L-1.75 9.6M0.9,6.9L5.95 9.45L5.9 9.45L1.3 7.15L0.9 6.9" />
<linearGradient
id="LinearGradID_2122" gradientUnits="userSpaceOnUse" gradientTransform="matrix(0.00579834, 0, 0, 0.00454712, 9.3, 13.15)" spreadMethod ="pad" x1="-819.2" y1="0" x2="819.2" y2="0" >
<stop  offset="0" style="stop-color:#BB9D2B;stop-opacity:1" />
<stop  offset="1" style="stop-color:#EDE2A9;stop-opacity:1" />
</linearGradient>
<path style="fill:url(#LinearGradID_2122) " d="M5,12.85Q4.55 12.25 4.55 11.4Q4.55 10.6 5 10L5.35 9.7Q5.6 9.5 5.95 9.45L7.5 10.25L8.2 10.6L8.6 11Q9.05 11.6 9.05 12.4Q9.05 13.25 8.6 13.85L7.75 14.4L7.5 14.25L5.9 13.45L5.35 13.15L5 12.85" />
<linearGradient
id="LinearGradID_2123" gradientUnits="userSpaceOnUse" gradientTransform="matrix(0.0100098, 0, 0, 0.00671387, 12.75, 14.95)" spreadMethod ="pad" x1="-819.2" y1="0" x2="819.2" y2="0" >
<stop  offset="0" style="stop-color:#BB9D2B;stop-opacity:1" />
<stop  offset="1" style="stop-color:#EDE2A9;stop-opacity:1" />
</linearGradient>
<path style="fill:url(#LinearGradID_2123) " d="M7.5,10.25L5.95 9.45L7.5 10.2L7.5 10.25M9.25,11.1L9.45 11.2L9.4 11.2L9.25 11.1" />
<linearGradient
id="LinearGradID_2124" gradientUnits="userSpaceOnUse" gradientTransform="matrix(0.0100098, 0, 0, 0.00671387, 8.75, 12.95)" spreadMethod ="pad" x1="-819.2" y1="0" x2="819.2" y2="0" >
<stop  offset="0" style="stop-color:#BB9D2B;stop-opacity:1" />
<stop  offset="1" style="stop-color:#EDE2A9;stop-opacity:1" />
</linearGradient>
<path style="fill:url(#LinearGradID_2124) " d="M7.5,10.25L7.5 10.2L9.25 11.1L9.25 11.15L8.2 10.6L7.5 10.25" />
<path style="fill:none;stroke-width:1;stroke-linecap:round;stroke-linejoin:round;stroke-miterlimit:3;stroke:#5D5305;stroke-opacity:1" d="M8.2,10.6L8.6 11Q9.05 11.6 9.05 12.4Q9.05 13.25 8.6 13.85L7.75 14.4L7.5 14.25L5.9 13.45L4.55 12.75L4.3 12.65L2.45 11.7L1.3 11.15L1.05 11L-1.75 9.6L-8.6 6.15Q-9.55 5.85 -10 5.35Q-10.45 4.75 -10.45 3.9Q-10.45 3.1 -10 2.5Q-9.55 2 -8.6 2.15L-1.75 5.6L0.9 6.9L5.95 9.45L7.5 10.2M2.45,11.7L1.05 11M5.95,9.45L5.9 9.45L1.3 7.15L0.9 6.9M5.95,9.45L7.5 10.25M8.2,10.6L7.5 10.25M5.9,13.45L5.35 13.15L4.95 12.95L4.55 12.75M5.35,13.15L5 12.85" />
<path style="fill:none;stroke-width:1;stroke-linecap:round;stroke-linejoin:round;stroke-miterlimit:3;stroke:#C5B30D;stroke-opacity:1" d="M5,12.85Q4.55 12.25 4.55 11.4Q4.55 10.6 5 10" />
<linearGradient
id="LinearGradID_2125" gradientUnits="userSpaceOnUse" gradientTransform="matrix(0.00579834, 0, 0, 0.00454712, 32.05, -35.1)" spreadMethod ="pad" x1="-819.2" y1="0" x2="819.2" y2="0" >
<stop  offset="0" style="stop-color:#BB9D2B;stop-opacity:1" />
<stop  offset="1" style="stop-color:#EDE2A9;stop-opacity:1" />
</linearGradient>
<path style="fill:url(#LinearGradID_2125) " d="M28.1,-35.1L27.75 -35.4Q27.3 -36 27.3 -36.85Q27.3 -37.65 27.75 -38.25L28.1 -38.55L28.7 -38.8L30.25 -38L30.95 -37.65L31.35 -37.25Q31.8 -36.65 31.8 -35.85Q31.8 -35 31.35 -34.4Q31 -34 30.5 -33.85L30.25 -34L28.65 -34.8L28.1 -35.1" />
<linearGradient
id="LinearGradID_2126" gradientUnits="userSpaceOnUse" gradientTransform="matrix(0.0100098, 0, 0, 0.00671387, 20.5, -40.8)" spreadMethod ="pad" x1="-819.2" y1="0" x2="819.2" y2="0" >
<stop  offset="0" style="stop-color:#BB9D2B;stop-opacity:1" />
<stop  offset="1" style="stop-color:#EDE2A9;stop-opacity:1" />
</linearGradient>
<path style="fill:url(#LinearGradID_2126) " d="M23.8,-37.25L21 -38.65L21 -42.65L23.65 -41.35L24.05 -41.1L28.65 -38.8L28.7 -38.8L28.1 -38.55L27.75 -38.25Q27.3 -37.65 27.3 -36.85Q27.3 -36 27.75 -35.4L27.7 -35.3L27.3 -35.5L27.05 -35.6L25.2 -36.55L23.8 -37.25" />
<linearGradient
id="LinearGradID_2127" gradientUnits="userSpaceOnUse" gradientTransform="matrix(0.0100098, 0, 0, 0.00662231, 20.5, -40.75)" spreadMethod ="pad" x1="-819.2" y1="0" x2="819.2" y2="0" >
<stop  offset="0" style="stop-color:#BB9D2B;stop-opacity:1" />
<stop  offset="1" style="stop-color:#EDE2A9;stop-opacity:1" />
</linearGradient>
<path style="fill:url(#LinearGradID_2127) " d="M21,-38.65Q17.6 -40.35 14.15 -42.1Q13.2 -42.4 12.75 -42.9Q12.3 -43.5 12.3 -44.35Q12.3 -45.15 12.75 -45.75Q13.2 -46.25 14.15 -46.1Q17.6 -44.35 21 -42.65L21 -38.65M23.65,-41.35L28.7 -38.8L28.65 -38.8L24.05 -41.1L23.65 -41.35" />
<linearGradient
id="LinearGradID_2128" gradientUnits="userSpaceOnUse" gradientTransform="matrix(0.0100098, 0, 0, 0.00671387, 35.5, -33.3)" spreadMethod ="pad" x1="-819.2" y1="0" x2="819.2" y2="0" >
<stop  offset="0" style="stop-color:#BB9D2B;stop-opacity:1" />
<stop  offset="1" style="stop-color:#EDE2A9;stop-opacity:1" />
</linearGradient>
<path style="fill:url(#LinearGradID_2128) " d="M30.25,-38L28.7 -38.8L30.25 -38.05L30.25 -38M32,-37.15L32.2 -37.05L32.15 -37.05L32 -37.15" />
<linearGradient
id="LinearGradID_2129" gradientUnits="userSpaceOnUse" gradientTransform="matrix(0.0100098, 0, 0, 0.00671387, 31.5, -35.3)" spreadMethod ="pad" x1="-819.2" y1="0" x2="819.2" y2="0" >
<stop  offset="0" style="stop-color:#BB9D2B;stop-opacity:1" />
<stop  offset="1" style="stop-color:#EDE2A9;stop-opacity:1" />
</linearGradient>
<path style="fill:url(#LinearGradID_2129) " d="M32,-37.1L30.95 -37.65L30.25 -38L30.25 -38.05L32 -37.15L32 -37.1" />
<linearGradient
id="LinearGradID_2130" gradientUnits="userSpaceOnUse" gradientTransform="matrix(0.0112915, 0, 0, 0.0072937, 36.55, -32.85)" spreadMethod ="pad" x1="-819.2" y1="0" x2="819.2" y2="0" >
<stop  offset="0" style="stop-color:#BB9D2B;stop-opacity:1" />
<stop  offset="1" style="stop-color:#EDE2A9;stop-opacity:1" />
</linearGradient>
<path style="fill:url(#LinearGradID_2130) " d="M32,-37.15L32.15 -37.05L32.2 -37.05L33.3 -36.5L33.3 -36.45L32 -37.1L32 -37.15" />
<path style="fill:none;stroke-width:1;stroke-linecap:round;stroke-linejoin:round;stroke-miterlimit:3;stroke:#5D5305;stroke-opacity:1" d="M30.95,-37.65L31.35 -37.25Q31.8 -36.65 31.8 -35.85Q31.8 -35 31.35 -34.4Q31 -34 30.5 -33.85L30.25 -34L28.65 -34.8L27.3 -35.5L27.05 -35.6L25.2 -36.55L24.05 -37.1L23.8 -37.25L21 -38.65Q17.6 -40.35 14.15 -42.1Q13.2 -42.4 12.75 -42.9Q12.3 -43.5 12.3 -44.35Q12.3 -45.15 12.75 -45.75Q13.2 -46.25 14.15 -46.1Q17.6 -44.35 21 -42.65L23.65 -41.35L28.7 -38.8L30.25 -38.05M30.95,-37.65L30.25 -38L28.7 -38.8L28.65 -38.8L24.05 -41.1L23.65 -41.35M27.75,-35.4L28.1 -35.1L28.65 -34.8M27.7,-35.3L27.3 -35.5M27.7,-35.3L28.1 -35.1M25.2,-36.55L23.8 -37.25" />
<path style="fill:none;stroke-width:1;stroke-linecap:round;stroke-linejoin:round;stroke-miterlimit:3;stroke:#C5B30D;stroke-opacity:1" d="M27.75,-38.25Q27.3 -37.65 27.3 -36.85Q27.3 -36 27.75 -35.4" />
<linearGradient
id="LinearGradID_2131" gradientUnits="userSpaceOnUse" gradientTransform="matrix(-0.0100098, 0, 0, 0.00671387, 24.1, -31.55)" spreadMethod ="pad" x1="-819.2" y1="0" x2="819.2" y2="0" >
<stop  offset="0" style="stop-color:#BB9D2B;stop-opacity:1" />
<stop  offset="1" style="stop-color:#EDE2A9;stop-opacity:1" />
</linearGradient>
<path style="fill:url(#LinearGradID_2131) " d="M19.4,-27.3L17.35 -26.25L16.9 -26.05L16.85 -26.15Q17.3 -26.75 17.3 -27.6Q17.3 -28.4 16.85 -29L16.5 -29.3L15.9 -29.55L15.95 -29.55L20.55 -31.85L20.95 -32.1L23.6 -33.4L23.6 -29.4L20.8 -28L19.4 -27.3" />
<linearGradient
id="LinearGradID_2132" gradientUnits="userSpaceOnUse" gradientTransform="matrix(-0.0100098, 0, 0, 0.00662231, 24.1, -31.5)" spreadMethod ="pad" x1="-819.2" y1="0" x2="819.2" y2="0" >
<stop  offset="0" style="stop-color:#BB9D2B;stop-opacity:1" />
<stop  offset="1" style="stop-color:#EDE2A9;stop-opacity:1" />
</linearGradient>
<path style="fill:url(#LinearGradID_2132) " d="M15.9,-29.55L20.95 -32.1L20.55 -31.85L15.95 -29.55L15.9 -29.55M23.6,-33.4L30.45 -36.85Q31.4 -37 31.85 -36.5L32.3 -35.1Q32.3 -34.25 31.85 -33.65Q31.4 -33.15 30.45 -32.85L23.6 -29.4L23.6 -33.4" />
<linearGradient
id="LinearGradID_2133" gradientUnits="userSpaceOnUse" gradientTransform="matrix(-0.00579834, 0, 0, 0.00454712, 12.55, -25.85)" spreadMethod ="pad" x1="-819.2" y1="0" x2="819.2" y2="0" >
<stop  offset="0" style="stop-color:#BB9D2B;stop-opacity:1" />
<stop  offset="1" style="stop-color:#EDE2A9;stop-opacity:1" />
</linearGradient>
<path style="fill:url(#LinearGradID_2133) " d="M10.85,-23.15L10.5 -22.8L9.1 -22.1Q8.65 -22.25 8.25 -22.65Q7.8 -23.25 7.8 -24.1Q7.8 -24.9 8.25 -25.5L8.7 -25.95L10 -26.55L10.05 -26.5L10.05 -26.6L10.35 -26.75L10.4 -26.75L10.6 -26.85L11.1 -27.1L11.85 -27.5L12.6 -27.85L14.35 -28.75L15.45 -29.3L15.85 -29.5L15.9 -29.55L16.5 -29.3L16.85 -29Q17.3 -28.4 17.3 -27.6Q17.3 -26.75 16.85 -26.15L16.5 -25.85L15.95 -25.55L10.9 -23L10.85 -23.15" />
<linearGradient
id="LinearGradID_2134" gradientUnits="userSpaceOnUse" gradientTransform="matrix(-0.0100098, 0, 0, 0.00671387, 13.1, -26.05)" spreadMethod ="pad" x1="-819.2" y1="0" x2="819.2" y2="0" >
<stop  offset="0" style="stop-color:#BB9D2B;stop-opacity:1" />
<stop  offset="1" style="stop-color:#EDE2A9;stop-opacity:1" />
</linearGradient>
<path style="fill:url(#LinearGradID_2134) " d="M12.6,-27.85L12.6 -27.9L14.35 -28.8L14.35 -28.75L12.6 -27.85" />
<linearGradient
id="LinearGradID_2135" gradientUnits="userSpaceOnUse" gradientTransform="matrix(-0.0100098, 0, 0, 0.00671387, 9.1, -24.05)" spreadMethod ="pad" x1="-819.2" y1="0" x2="819.2" y2="0" >
<stop  offset="0" style="stop-color:#BB9D2B;stop-opacity:1" />
<stop  offset="1" style="stop-color:#EDE2A9;stop-opacity:1" />
</linearGradient>
<path style="fill:url(#LinearGradID_2135) " d="M11.1,-27.1L10.6 -26.85L10.4 -26.75L10.35 -26.75L10.35 -26.8L11.55 -27.35L11.15 -27.15L11.1 -27.1M12.4,-27.8L12.6 -27.9L12.45 -27.8L12.4 -27.8M15.45,-29.3L14.35 -28.75L14.35 -28.8L15.85 -29.5L15.45 -29.3" />
<linearGradient
id="LinearGradID_2136" gradientUnits="userSpaceOnUse" gradientTransform="matrix(-0.0112915, 0, 0, 0.0072937, 8.05, -23.6)" spreadMethod ="pad" x1="-819.2" y1="0" x2="819.2" y2="0" >
<stop  offset="0" style="stop-color:#BB9D2B;stop-opacity:1" />
<stop  offset="1" style="stop-color:#EDE2A9;stop-opacity:1" />
</linearGradient>
<path style="fill:url(#LinearGradID_2136) " d="M11.1,-27.1L11.15 -27.15L11.55 -27.35L12.2 -27.7L12.4 -27.8L12.45 -27.8L12.6 -27.9L12.6 -27.85L11.85 -27.5L11.1 -27.1" />
<linearGradient
id="LinearGradID_2137" gradientUnits="userSpaceOnUse" gradientTransform="matrix(-0.0112915, 0, 0, 0.0072937, 13.05, -26.1)" spreadMethod ="pad" x1="-819.2" y1="0" x2="819.2" y2="0" >
<stop  offset="0" style="stop-color:#BB9D2B;stop-opacity:1" />
<stop  offset="1" style="stop-color:#EDE2A9;stop-opacity:1" />
</linearGradient>
<path style="fill:url(#LinearGradID_2137) " d="M10.9,-23L10.5 -22.8L10.85 -23.15L10.9 -23" />
<path style="fill:none;stroke-width:1;stroke-linecap:round;stroke-linejoin:round;stroke-miterlimit:3;stroke:#5D5305;stroke-opacity:1" d="M10.35,-26.8L11.55 -27.35L12.2 -27.7L12.4 -27.8L12.6 -27.9L14.35 -28.8L15.85 -29.5L15.9 -29.55L20.95 -32.1L23.6 -33.4L30.45 -36.85Q31.4 -37 31.85 -36.5L32.3 -35.1Q32.3 -34.25 31.85 -33.65Q31.4 -33.15 30.45 -32.85L23.6 -29.4L20.8 -28L20.55 -27.85L19.4 -27.3L17.35 -26.25L15.95 -25.55L10.9 -23L10.5 -22.8L9.1 -22.1Q8.65 -22.25 8.25 -22.65Q7.8 -23.25 7.8 -24.1Q7.8 -24.9 8.25 -25.5L8.7 -25.95L10 -26.55L10.05 -26.6L10.35 -26.75M20.95,-32.1L20.55 -31.85L15.95 -29.55L15.9 -29.55M16.85,-26.15L16.5 -25.85L16.9 -26.05L17.35 -26.25M12.2,-27.7L11.85 -27.5L12.6 -27.85L14.35 -28.75L12.6 -27.9L12.45 -27.8L12.4 -27.8M10.4,-26.75L10.55 -26.85L11.55 -27.35L11.15 -27.15L11.1 -27.1L10.6 -26.85L10.4 -26.75L10.35 -26.75M11.1,-27.1L11.85 -27.5M14.35,-28.75L15.45 -29.3L15.85 -29.5M16.5,-25.85L15.95 -25.55M10.85,-23.15L10.5 -22.8M19.4,-27.3L20.8 -28" />
<path style="fill:none;stroke-width:1;stroke-linecap:round;stroke-linejoin:round;stroke-miterlimit:3;stroke:#C5B30D;stroke-opacity:1" d="M16.85,-29Q17.3 -28.4 17.3 -27.6Q17.3 -26.75 16.85 -26.15" />
<path style="fill:#000000;fill-opacity:1" d="M1.45,-12.9L1.1 -13.1L1.1 -12.7L1.1 -11.9L1.15 -11.9L1.45 -11.75L1.45 -12.85L1.45 -12.9M0.3,-13.45L-1.3 -14L-2 -14.6Q-2.15 -15.1 -1.8 -15.3L-1 -15.25L-0.55 -15.05L1.75 -13.85L3.65 -12.75L4.75 -12.15Q5.1 -11.95 4.95 -11.5L4.45 -10.95Q4.15 -10.85 3.8 -11.25L2.65 -12.25L2.3 -12.45L2.3 -12.5L2.15 -11.35L2.5 -11.15L3.1 -10.95L3.7 -10.55L4 -9.7L3.95 -8.8L3.9 -8.15L3.85 -4.85L3.85 -4.55L3.7 -4.1Q3.55 -3.95 3.1 -4.25L2 -5L0.45 -5.8L-0.35 -6.1L-0.75 -6.2L-1.05 -6.6L-1.2 -7.15L-1.2 -7.5L-1.25 -9.95L-1.3 -11.8L-1.35 -12.3L-1.25 -12.95L-0.8 -13.1L-0.4 -12.75L-0.1 -12.5L0.35 -12.35L0.35 -13.45L0.3 -13.45M2.75,-10.05L2.1 -10.35L2.1 -10.05Q2.1 -9.6 2.35 -9.35L3.15 -8.85L3.2 -8.85L3.15 -8.85L3.1 -9.3L3 -9.75L2.75 -10.05M0.25,-11.25L-0.15 -11.4L-0.35 -11.35L-0.5 -11.15L-0.5 -10.25L-0.3 -10.45L0 -10.65L0.25 -11.2L0.25 -11.25M0.7,-9.75L0.5 -9.4L0 -9.3L-0.35 -9.7L-0.5 -10.15L-0.4 -7.7L-0.35 -7.4L-0.2 -7.25Q0.25 -6.95 1.4 -6.35L2.8 -5.6L3.05 -5.6L3.1 -5.85L3.15 -8L3.35 -8.25L3.15 -8.3L3.15 -8L2.9 -7.85Q2.7 -7.85 2.05 -8.6Q1.65 -9 1.55 -9.35Q1.35 -9.8 1.4 -10.25L1.4 -10.8L1.3 -10.85L1.05 -10.95L0.95 -10.5L0.7 -9.75M1.3,-7.3L0.6 -7.6Q0.1 -7.75 -0.05 -8.2L0.05 -8.75Q0.25 -8.9 0.9 -8.4L0.85 -8.5L2.05 -7.9L2.8 -7.25L2.8 -6.75Q2.75 -6.55 2.35 -6.75Q1.75 -7.05 1.3 -7.3M-3.55,-16.4L-3.05 -16.25L-2.75 -15.85L-2.4 -15.2Q-2.1 -14.7 -2.2 -14.45L-2.7 -14.6L-3.25 -14.9L-3.8 -15.55L-3.8 -16.15L-3.55 -16.4M-4,-13.35L-3.6 -13.35L-3.25 -13L-2.6 -12.35L-2.3 -11.65Q-2.35 -11.35 -2.75 -11.5L-3.5 -11.85L-4.15 -12.4L-4.2 -13L-4 -13.35M-2,-9.85Q-1.85 -9.55 -2 -9.15L-2.8 -8L-3.15 -7.6L-3.8 -8.25L-3.95 -8.9Q-3.95 -9.2 -3.6 -9.3L-2.5 -10Q-2.2 -10.1 -2 -9.85" />
<path style="fill:#000000;fill-opacity:1" d="M21.6,-25.3L21.55 -25.55L19.6 -24.65L17.6 -23.5L17.45 -23.05L17.5 -22.75L19.45 -23.75L21.5 -24.8L21.6 -25.3M22.35,-26.85L22.8 -26.95L22.75 -26.15L22.65 -25.65L22.6 -25.2L22.5 -24.6L21.65 -23.95L20.6 -23.4L20.95 -23.35L21.05 -22.6L21 -22.3L21.45 -22.5L23.5 -23.45L24.8 -24.05Q25.2 -24.25 25 -23.65L24.4 -22.7L23.7 -22.25L22.4 -22L21 -21.35L21 -20.65L21 -20.5L21.9 -21L22.75 -21.2Q23.1 -21.2 22.95 -20.6L22.95 -20.2L22.95 -19.75L22.8 -19.1L22.45 -18.45L21.65 -17.95L20.1 -17.25L19.25 -16.7L18.55 -16.45Q18.25 -16.5 18.2 -17.3L18.15 -18.2L18.35 -19.05L18.8 -19.4L19.25 -19.65L20 -20L19.95 -20.4L19.95 -20.8L18 -19.65L17.3 -19.4L17.15 -18.95L16.4 -17.05L15.55 -15.7L14.9 -15.1L14.35 -14.9Q14.1 -15.05 14.2 -15.45L14.75 -16.35L15.55 -17.5L16.1 -18.8L16.4 -20.25L16.35 -22.5Q16.3 -23.25 16.7 -23.75L17.8 -24.55L19.35 -25.35L21.55 -26.45L22.35 -26.85M19.25,-17.85L19.6 -17.85L19.8 -18L21.35 -18.85L21.75 -19.1L21.8 -19.65L21.75 -19.95L20.35 -19.4L19.25 -18.7L19.25 -18.25L19.25 -17.85M17.25,-13.95L18.25 -14.8L18.8 -15.05L21.5 -16.4L23.75 -17.4L25.05 -18.05Q25.45 -18.25 25.25 -17.65L24.65 -16.7L23.9 -16.2L22.6 -15.9L22.15 -15.75L22.15 -15.8L21.95 -14.65L22.4 -14.85L23.1 -15.25L23.75 -15.55L24.2 -15.2L24.1 -14.3L24.05 -13.75L24 -10.85L24 -10.55L23.8 -10Q23.65 -9.75 23.1 -9.55L21.8 -9.05L19.95 -8.1L19 -7.55L18.5 -7.25L18.2 -7.3L18.05 -7.65L18 -7.9L17.9 -9.85L17.9 -11.45L17.85 -11.9L17.95 -12.55L18.5 -13.1L18.95 -13.2L19.3 -13.35L19.8 -13.6L19.8 -14.6L17.9 -13.4Q17.3 -13 17.1 -13.15Q16.9 -13.45 17.25 -13.95M16.25,-12.4L15.55 -12.15Q15.1 -12 14.95 -12.15Q14.8 -12.3 14.95 -12.65L15.25 -13.15Q15.55 -13.45 15.8 -13.55L16.2 -13.45L16.6 -13.3Q16.9 -13.1 16.8 -12.85L16.25 -12.4M19.75,-12.7L19.2 -12.3L19 -12.05L18.85 -11.8L18.85 -11L18.8 -10.9L18.85 -10.8L18.9 -8.85L19 -8.7L19.2 -8.7L21.1 -9.6L22.75 -10.4L23.05 -10.65L23.1 -10.9L23.15 -12.85L23.35 -13.2L23.15 -13.05L23.15 -12.85L22.85 -12.45Q22.65 -12.25 21.85 -12.2L21.25 -12.3Q21.05 -12.5 21.1 -12.95L21.1 -13.4L21 -13.35L20.65 -13.15L20.55 -12.65L20.25 -11.8L20 -11.3L19.4 -10.7L19 -10.65L18.85 -10.8L18.85 -11L19.05 -11.35L19.4 -11.8L19.7 -12.55L19.75 -12.7M19.45,-10.25Q19.7 -10.55 20.45 -10.85L20.4 -10.85L21.85 -11.55L22.7 -11.85L22.75 -11.4L22.2 -10.95L20.95 -10.3L20.15 -9.8L19.35 -9.7Q19.25 -9.85 19.45 -10.25M16.7,-10.35L16.2 -9.8L15.25 -9.25L14.5 -9.05Q14.35 -9.15 14.45 -9.5L14.65 -10.05L15.15 -10.45L15.6 -10.55L16.35 -10.6L16.7 -10.35M16.1,-6.7L15.65 -5.95L14.95 -5.85L14.75 -6.25L15.15 -6.95L16.45 -8.7L17.05 -9.1Q17.25 -9 17.05 -8.5L16.1 -6.7M17.95,-5.35L19.55 -6.15L21.8 -7.3L22.6 -7.75L23 -7.75L22.95 -7L22.85 -6.65L22.85 -6.35L22.7 -5.8Q22.5 -5.35 21.9 -5.15L19 -3.65L17.8 -2.95L17.85 -2.95L17.6 -2.3L17.25 -0.2L16.45 1.7L15.55 3.05L14.85 3.6L14.3 3.75Q14.1 3.6 14.2 3.25L14.8 2.4L15.65 1.25L16.3 0L16.6 -1.35L16.55 -3.35Q16.5 -4.1 16.9 -4.6Q17.35 -5.2 18 -5.35L17.95 -5.35M17.75,-4.35L17.65 -4.05L17.65 -3.9L19.7 -4.9L21.75 -5.95L21.8 -6.3L21.8 -6.45L19.75 -5.5L17.75 -4.35M19.65,-3.6L22.8 -5.1L22.85 -5.15Q23.35 -5.4 23.3 -5.05L22.8 -4.25L22.1 -3.9L21.45 -3.6L21.7 -3.6L22.7 -3.05L22.7 -2.55L22.1 -1.95L20.95 -1.25L21 -0.95L22 -1.5L22.8 -1.65L22.85 -1.3L22.25 -0.7L20.9 -0.05L20.9 0.35L20.85 0.45L24.05 -1.05L24.7 -1.3L25.25 -1.35L24.85 -0.45L24.35 0.1L23.5 0.55L22.5 0.7Q21.9 0.85 20.6 1.35L18.85 2.35Q17.95 2.95 17.3 3.5L16.35 4.1L16.1 3.85Q16.05 3.5 16.4 3L17.2 2.3L19.9 0.9L19.85 0.55L19.85 0.45L18.8 1.1L17.9 1.3Q17.8 1.1 18 0.75L18.95 0.05L19.85 -0.4L19.8 -0.7L19.8 -0.65L18.45 -0.15Q18 -0.05 17.95 -0.3L18.2 -1L19.15 -2.4L18.7 -2.05Q17.95 -1.5 17.75 -1.65Q17.6 -1.8 17.75 -2.2L18.35 -2.95L19.25 -3.4L19.65 -3.6M20.7,-14.05L20.8 -14.1L21.15 -14.25L21.15 -15.25L20.7 -15.05L20.7 -14.7L20.7 -14.05M21.95,-13.5Q21.9 -13.1 22.2 -13.15L23.15 -13.55L23.15 -13.5L23.2 -13.6L23.15 -13.55L23.1 -13.9L23 -14.15L22.65 -14.1L21.95 -13.8L21.95 -13.5" />
<radialGradient
id="RadialGradID_2138" gradientUnits="userSpaceOnUse" gradientTransform="matrix(0.0438843, 0, 0, 0.0438843, 9.45, -24)" spreadMethod ="pad" cx="0" cy="0" r="819.2" fx="0" fy="0" >
<stop  offset="0"  style="stop-color:#FFFFFF;stop-opacity:0.501961" />
<stop  offset="1"  style="stop-color:#FFFFFF;stop-opacity:0" />
</radialGradient>
<path style="fill:url(#RadialGradID_2138) " d="M37.45,-24Q37.45 -9.5 29.1 0.75Q20.75 11 8.95 11Q-2.85 11 -11.2 0.75Q-19.55 -9.5 -19.55 -24Q-19.55 -38.5 -11.2 -48.75Q-2.85 -59 8.95 -59Q20.75 -59 29.1 -48.75Q37.45 -38.5 37.45 -24" />
</g>
</svg>
