<?xml version="1.0" encoding="utf-8"?>
<svg version="1.1" id="Layer_1"
xmlns="http://www.w3.org/2000/svg"
xmlns:xlink="http://www.w3.org/1999/xlink"
xmlns:author="http://www.sothink.com"
width="40px" height="54px"
xml:space="preserve">
<g id="798" transform="matrix(1, 0, 0, 1, 19.05, 69.4)">
<path style="fill:#EDF075;fill-opacity:1" d="M-12.75,-35.8Q-15.3 -36.6 -17.75 -38Q-19.65 -39.2 -17 -39.15L-13.55 -39.35L-13.15 -39.4L-12.15 -38.35L-12.75 -35.8M14.45,-39.6L14.65 -39.65Q21.45 -39.7 19.65 -38L14.6 -36.65L13.4 -36.65L14.45 -39.6" />
<path style="fill:#E33104;fill-opacity:1" d="M-9.95,-36.7L-10.15 -37.65L-10.2 -37.65L-10.25 -37.6L-10.15 -37.45L-10.85 -37.95L-12.1 -38.3L-12.15 -38.35L-13.15 -39.4L-13.25 -39.45L-15 -41.2L0 -41.1L0.1 -41.05L15.45 -43.1L14.7 -39.8L14.45 -39.6L14 -39.55L13.75 -39.5L11.45 -39.15L9.25 -38.4L8.8 -38.25L8.85 -38.2L10.4 -34.05Q11.7 -33.25 12.2 -34.6L12.8 -35.05L13.4 -36.65L14.6 -36.65Q15.75 -32.8 16.2 -29.2L9.6 -29.4L9.55 -28.2Q8.9 -27.6 9.1 -26.35Q8.95 -26.8 9.05 -27.35L9.35 -28.5L9.1 -28.5L7.8 -26.55Q8.1 -25.2 9.05 -24.5Q8.8 -24.15 9.2 -24.35Q10.3 -23 12.25 -23.5L12.5 -23.45L12.7 -23.45L12.95 -23.5L15.8 -26.35L16.3 -25.75L16.4 -24.85L16.45 -24.9L17 -20.65L17.25 -18.75Q12.7 -17.25 7.5 -17.05Q2.3 -16.85 -0.4 -17.15Q-9.3 -15.8 -15.5 -17.3L-14.9 -19.6L-13.9 -28.5L-15.35 -29.4L-13.95 -35.85L-13.25 -34.2L-13.75 -31.85Q-9.8 -35.6 -9.95 -36.7M-8,-36.5Q-7.7 -37.15 -8.15 -36.7L-9.5 -37.45L-10.2 -37.9L-9.55 -37.5L-9.5 -37.45L-8 -36.5" />
<path style="fill:#C69922;fill-opacity:1" d="M-12.15,-38.35L-12.1 -38.3L-10.85 -37.95L-10.15 -37.45L-10.25 -37.6L-10.2 -37.65L-10.15 -37.65L-9.95 -36.7Q-9.8 -35.6 -13.75 -31.85L-13.25 -34.2L-13.95 -35.85L-12.75 -35.8L-12.15 -38.35M13.4,-36.65L12.8 -35.05L12.2 -34.6Q11.7 -33.25 10.4 -34.05L8.85 -38.2L8.8 -38.25L9.25 -38.4L11.45 -39.15L13.75 -39.5L14 -39.55L14.45 -39.6L13.4 -36.65" />
<path style="fill:none;stroke-width:1;stroke-linecap:round;stroke-linejoin:round;stroke-miterlimit:3;stroke:#D9E133;stroke-opacity:1" d="M-12.15,-38.35L-12.1 -38.3M14.6,-36.65L19.65 -38Q21.45 -39.7 14.65 -39.65L14.7 -39.8M-12.75,-35.8Q-15.3 -36.6 -17.75 -38Q-19.65 -39.2 -17 -39.15L-13.55 -39.35M14.6,-36.65L13.4 -36.65" />
<path style="fill:none;stroke-width:1;stroke-linecap:round;stroke-linejoin:round;stroke-miterlimit:3;stroke:#D1BB21;stroke-opacity:1" d="M-12.1,-38.3L-10.85 -37.95L-10.15 -37.45L-10.25 -37.6L-10.2 -37.65M10.4,-34.05L8.85 -38.2L8.8 -38.25L9.25 -38.4L11.45 -39.15L13.75 -39.5M-10.15,-37.65L-9.95 -36.7Q-9.8 -35.6 -13.75 -31.85" />
<path style="fill:none;stroke-width:1;stroke-linecap:round;stroke-linejoin:round;stroke-miterlimit:3;stroke:#ECE22B;stroke-opacity:1" d="M14.7,-39.8L15.45 -43.1L0.1 -41.05M0,-41.1L-15 -41.2L-13.25 -39.45M16.45,-24.9L17 -20.65L17.25 -18.75Q12.7 -17.25 7.5 -17.05Q2.3 -16.85 -0.4 -17.15Q-9.3 -15.8 -15.5 -17.3L-14.9 -19.6L-13.9 -28.5L-15.35 -29.4L-13.95 -35.85M9.9,-31.05L9.6 -29.4L16.2 -29.2Q15.75 -32.8 14.6 -36.65M12.2,-34.6Q11.7 -33.25 10.4 -34.05M-15,-41.2L-15.25 -41.25M-13.75,-31.85L-13.25 -34.2L-13.95 -35.85M-13.75,-31.85L-13.9 -28.5" />
<path style="fill:none;stroke-width:1;stroke-linecap:round;stroke-linejoin:round;stroke-miterlimit:3;stroke:#C60000;stroke-opacity:1" d="M-10.2,-37.65L-10.15 -37.65L-9.55 -37.5L-9.5 -37.45Q-5.9 -36.05 -0.2 -36.35L0.15 -36.3Q4.85 -36.45 8.85 -38.2L9.25 -38.4M-14.9,-19.6L-0.4 -19.15Q2.3 -18.85 7.5 -19.05Q12.55 -19.25 17 -20.65" />
<path style="fill:none;stroke-width:1;stroke-linecap:round;stroke-linejoin:round;stroke-miterlimit:3;stroke:#CDD720;stroke-opacity:1" d="M-13.15,-39.4L-12.15 -38.35M14.45,-39.6L13.4 -36.65L12.8 -35.05L12.2 -34.6M-12.75,-35.8L-12.15 -38.35" />
<path style="fill:none;stroke-width:1;stroke-linecap:round;stroke-linejoin:round;stroke-miterlimit:3;stroke:#9F7B1C;stroke-opacity:1" d="M12.8,-35.05Q9.05 -35.7 11.45 -39.15M-10.85,-37.95Q-11.25 -35.9 -13.25 -34.2" />
<path style="fill:#EBE87C;fill-opacity:1" d="M9.4,-58.4L9.35 -58.35L9.1 -58.15L8.75 -58.25L5.65 -59.65L8.45 -63.4L8.75 -63.35L8.8 -63.8L8.85 -63.9L11.95 -63.9L13 -62.7Q16.3 -61.4 16.45 -58.05L16.35 -56.6Q11 -60.15 9.4 -58.4" />
<path style="fill:#F3F0B6;fill-opacity:1" d="M5.4,-63.1L5.3 -62.4L2.25 -62.4L0.25 -63.15L-2.1 -62.75L-3.1 -63.65L-6.1 -63.65L-7.5 -64.15L-10.85 -63.4L-12.6 -64.55L-11 -65.35L-9.1 -67.05L-7 -66.25L-2.25 -66.65L2.15 -66.15L5.5 -66.15L7 -67L9 -65.65L9.45 -65.3Q10.55 -65.25 11.95 -63.9L8.85 -63.9L8.8 -63.8L8.75 -63.35L8.45 -63.4L5.4 -63.1M-17.3,-56.6L-16.7 -58.8L-16.6 -60.05L-15.75 -56.15L-13.85 -58L-12.75 -54.9L-8.85 -57.5L-7.75 -54.65L-7.25 -53.4L-4.35 -56.75L-3 -54.75L0.4 -57L2 -55.75L-0.35 -51.25L-1.25 -45.25L-5.5 -48.75L-7.85 -45.75L-8.7 -47.65L-9.2 -47.55L-9.45 -47.35L-12.6 -44.65L-16.25 -47L-16.7 -56.35L-17.3 -56.6" />
<path style="fill:#F8F5D1;fill-opacity:1" d="M0.4,-57L-3 -54.75L-4.35 -56.75L-7.25 -53.4L-7.75 -54.65L-8.85 -57.5L-12.75 -54.9L-13.85 -58L-15.75 -56.15L-16.6 -60.05L-16.4 -61.2Q-15.25 -63.1 -12.6 -64.55L-10.85 -63.4L-7.5 -64.15L-6.1 -63.65L-3.1 -63.65L-2.1 -62.75L0.25 -63.15L2.25 -62.4L5.3 -62.4L5.3 -62.25L2 -55.75L0.4 -57" />
<path style="fill:#EFEB9C;fill-opacity:1" d="M-16.7,-56.35L-16.25 -47L-12.6 -44.65L-9.45 -47.35L-9.2 -47.55L-8.7 -47.65L-7.85 -45.75L-5.5 -48.75L-1.25 -45.25L-0.35 -51.25L2 -55.75L5.3 -62.25L5.3 -62.4L5.4 -63.1L8.45 -63.4L5.65 -59.65L8.75 -58.25L9.1 -58.15Q7.8 -57 7.45 -52.8Q7.05 -48.25 8.5 -44.6L6.75 -47.8L7.3 -45.8L6 -40.9L5.4 -46.55L5.2 -46.9L5.3 -46.4Q5.45 -41.25 3.85 -37.8Q3.25 -38.2 2.75 -39Q2 -40.25 1.45 -42.65L1.45 -38.1L-0.05 -43.55L-1 -37.1L-2.85 -39.55L-2.85 -34.6L-5.75 -40.5L-6 -36.25L-10.55 -40.6L-9.9 -36.2L-13.6 -40.25L-12.7 -36.45L-16.45 -42.7L-16.65 -39.1Q-19.75 -46.85 -17.3 -56.6L-16.7 -56.35M-6.25,-68.05L-0.9 -68.7Q1.7 -69.05 4.2 -68.25L7 -67L5.5 -66.15L2.15 -66.15L-2.25 -66.65L-7 -66.25L-9.1 -67.05Q-7.8 -67.9 -6.25 -68.05" />
<path style="fill:none;stroke-width:1;stroke-linecap:round;stroke-linejoin:round;stroke-miterlimit:3;stroke:#D0CC22;stroke-opacity:1" d="M16.35,-56.6L16.45 -58.05Q16.3 -61.4 13 -62.7L11.95 -63.9M8.75,-63.35L10.25 -62.9M8.75,-63.35L8.45 -63.4L5.4 -63.1Q4.85 -62.95 4.4 -62.65M7,-67L9 -65.65L9.45 -65.3Q10.55 -65.25 11.95 -63.9M7,-67L4.2 -68.25M-9.35,-46.6L-8.15 -41.1M6.75,-47.8L7.3 -45.8L6 -40.9L5.4 -46.55L5.2 -46.9L5.3 -46.4Q5.45 -41.25 3.85 -37.8M4,-37.75L4 -37.5L2 -35.65L3.85 -37.8M-0.05,-43.55L-1 -37.1L-2.85 -39.55L-2.85 -34.6L-5.75 -40.5L-6 -36.25L-10.55 -40.6" />
<path style="fill:none;stroke-width:1.2;stroke-linecap:round;stroke-linejoin:round;stroke-miterlimit:3;stroke:#D0CC22;stroke-opacity:1" d="M4.2,-68.25Q1.7 -69.05 -0.9 -68.7L-6.25 -68.05Q-7.8 -67.9 -9.1 -67.05L-11 -65.35L-12.6 -64.55Q-15.25 -63.1 -16.4 -61.2L-16.6 -60.05M-9.35,-49.4Q-9.15 -51.8 -8.5 -53.35L-7.75 -54.65L-7.35 -55.1M6.75,-47.8L8.5 -44.6Q7.05 -48.25 7.45 -52.8Q7.8 -57 9.1 -58.15L9.35 -58.35L9.4 -58.4Q11 -60.15 16.35 -56.6M-9.35,-49.1L-9.45 -47.5L-9.45 -47.35L-9.45 -46.9L-9.35 -46.6M16.45,-58.05L17.15 -57.7Q15.5 -55.4 17.6 -54.1M3.85,-37.8L4 -37.75M3.85,-37.8Q3.25 -38.2 2.75 -39Q2 -40.25 1.45 -42.65L1.45 -38.1L-0.05 -43.55M-10.55,-40.6L-9.9 -36.2L-13.6 -40.25L-12.7 -36.45L-16.45 -42.7L-16.65 -39.1Q-19.75 -46.85 -17.3 -56.6L-16.7 -58.8L-16.6 -60.05M-12.5,-57.5L-12.15 -58.6Q-11.2 -61.5 -8.4 -61.6M-16.45,-42.7L-16.9 -44.3" />
</g>
</svg>
