<?xml version="1.0" encoding="utf-8"?>
<svg version="1.1" id="Layer_1"
xmlns="http://www.w3.org/2000/svg"
xmlns:xlink="http://www.w3.org/1999/xlink"
xmlns:author="http://www.sothink.com"
width="78px" height="142px"
xml:space="preserve">
<g id="416" transform="matrix(1, 0, 0, 1, 38.55, 141.4)">
<path style="fill:#52703A;fill-opacity:1" d="M25.5,-95.85Q25.5 -94.5 21.15 -94.5Q16.55 -109.95 10.55 -118.5L10.15 -119.05L9.45 -120.05Q7.25 -122.85 3.2 -125.8L3 -125.95L1.35 -127.3L1.35 -128.2L3 -128.2L10.2 -124.2Q13.05 -122.6 14.15 -121L16.25 -118Q20.7 -111.65 25.3 -96.85L25.45 -96.35L25.5 -95.85M33.05,-0.15Q31.7 -0.45 31.4 -1.35L31.25 -11.55Q30.55 -31.9 27.3 -56.2L26.7 -60.65Q27.15 -60.3 28.2 -60.15L28.25 -60.05L28.35 -59.3L28.95 -54.85Q32.2 -30.55 32.9 -10.2L33.05 -0.15" />
<path style="fill:#466734;fill-opacity:1" d="M33.15,-60.25L33.8 -55.7Q37.05 -31.4 37.75 -11.05L38.1 -0.85L38.1 -0.55Q37.2 0 34.7 0L33.05 -0.15L32.9 -10.2Q32.2 -30.55 28.95 -54.85L28.35 -59.3L28.25 -60.05L28.2 -60.15Q27.15 -60.3 26.7 -60.65L26.6 -61.4Q23.7 -80.6 19.7 -94.5L19.2 -96.1Q16.35 -105.65 12.9 -112.55Q10.85 -116.65 8.6 -119.85L8.2 -120.4L7.5 -121.4Q5.85 -123.5 3.2 -125.8Q7.25 -122.85 9.45 -120.05L10.15 -119.05L10.55 -118.5Q16.55 -109.95 21.15 -94.5Q25.5 -94.5 25.5 -95.85L25.6 -95.85Q29.95 -81.65 32.95 -61.65L33.15 -60.25" />
<path style="fill:#758E3E;fill-opacity:1" d="M6.75,-112.6L10.85 -112.55L10.85 -111.9Q8.3 -109.85 6.95 -108L6.3 -107.05Q4.9 -104.9 2.8 -100.8L6.3 -111.25L6.75 -112.6M2.8,-112.85L6.3 -112.6L6.55 -112.6L6.3 -112.4Q3.4 -110 1.5 -107.6L-0.2 -105L-0.4 -104.6L-0.2 -105.45L1.7 -112.8L2.8 -112.85M-8.8,-88.25L-8.65 -89L-6.25 -102.75L-5.8 -105.9L-5.8 -106.05L-5.8 -107.55Q-6.95 -106.25 -8.1 -103.65L-8.5 -102.75L-9.05 -101.4Q-11.95 -93.9 -13.75 -89.75Q-13.45 -92.65 -10.25 -102.15L-14.8 -99.25L-11.95 -102.75L-10.45 -104.9L-10.8 -104.9L-16.4 -103.05L-17.2 -102.75Q-21.8 -101 -29.2 -97.2L-21.35 -102.75L-20.7 -103.2L-17.45 -105.55L-19.45 -105.55L-22.95 -104.65L-30.3 -102.75L-22.95 -105.55L-15.45 -108.3L-13.35 -109.05L-9.15 -110.55L-13.15 -110.55L-13.35 -110.35L-13.75 -110.25L-16.2 -110.2L-17.9 -110.25L-22.45 -110.25L-22.5 -110.2L-22.55 -110.2L-22.95 -110.2L-27 -110.05L-30.45 -109.9L-30.15 -110.25L-27 -111L-22.95 -111.8L-23.45 -111.2L-23.65 -110.9L-22.95 -111.65L-22.8 -111.8L-21.6 -112.05L-13.35 -113.35L-9.8 -113.6L-2.1 -113.25L-0.2 -113.1L1.15 -113L1.2 -112.9L1.05 -112.75L-0.2 -111.15Q-2 -108.55 -4 -103.7L-4.35 -102.75Q-6.95 -96.35 -8.55 -89L-8.7 -88.25L-8.8 -88.25M-11.55,-122.15L-13.35 -120.75L-19.35 -115.4L-22.8 -111.8L-22.85 -111.85L-19.85 -115.4L-13.35 -123.35L-12.05 -125L-11.95 -125.15L-11.2 -126.4L-13.35 -125.4L-15.15 -124.2L-17.1 -122.7L-22.95 -118.05Q-24.95 -116.55 -26.5 -115.4L-27 -115L-26.7 -115.4L-22.95 -119.3L-17.75 -124L-17.65 -124L-17.5 -124.25L-17.75 -124L-20.2 -124L-22.95 -123.75L-23.15 -123.7L-22.95 -123.8L-20.2 -124.85Q-18.3 -125.6 -16.55 -126.45L-16.85 -126.6L-20.2 -127.35L-22.65 -127.8L-22.95 -127.85L-27 -128.4L-36.65 -129.15L-27 -130.05L-26.25 -130.1L-22.95 -130.4L-22.3 -130.5L-22.95 -130.85L-24.05 -131.5L-27 -132.35L-34.85 -134.5L-27 -133.25L-22.95 -132.55L-20.2 -132.05L-13.35 -130.8L-12.6 -130.7L-16.05 -132.7Q-16.2 -132.5 -16.75 -132.7L-18.9 -133.9L-20.2 -134.7L-20.35 -134.8L-21.15 -135.3L-24.3 -137.05L-24.4 -137.1L-27 -138.5L-31.4 -140.75L-30.95 -140.9L-27 -139.7L-22.65 -138.2L-20.2 -137.3L-15.05 -135.3L-13.35 -134.5L-11.65 -133.65L-5.15 -129.5L-2.45 -127.65L-2.45 -127.55L-2.65 -127.5Q-6 -126.5 -11.55 -122.15M-0.2,-124.2Q-2.8 -123.65 -4.85 -122.8Q-6.55 -122.15 -8.05 -121.15L-2.1 -127.2L-1.1 -126.7L-0.2 -126.1L2 -124.65L-0.2 -124.2M-7.15,-116.25L-0.2 -122.4L2.2 -124.55L5.7 -122.4L5.4 -121.85Q2.15 -121.35 0.05 -120.4L-0.2 -120.3L-7.15 -116.25M-7.2,-110.6Q-8.25 -109.65 -9.05 -107.75Q-6.65 -109.55 -5.8 -111.25L-5.4 -111.4Q-6.35 -111.4 -7.2 -110.6L-7.25 -110.6L-7.2 -110.6M-9.35,-129.6L-8.95 -129.55L-10.9 -129.75L-10.95 -129.75L-13.35 -129.65L-20.2 -129.4L-22.95 -129.4L-25.55 -129.4L-22.95 -128.6L-20.2 -128.25L-17.95 -128.1L-13.95 -128.25L-13.35 -128.3Q-10.8 -128.7 -9.35 -129.6M-10.25,-102.15L-10.15 -102.25L-10.15 -102.55L-10.25 -102.15" />
<path style="fill:none;stroke-width:1;stroke-linecap:round;stroke-linejoin:round;stroke-miterlimit:3;stroke:#3C3C3C;stroke-opacity:1" d="M7.5,-121.4Q5.85 -123.5 3.2 -125.8L3 -125.95L1.35 -127.3L1.35 -128.2L3 -128.2L10.2 -124.2Q13.05 -122.6 14.15 -121L16.25 -118Q20.7 -111.65 25.3 -96.85L25.45 -96.35L25.6 -95.85Q29.95 -81.65 32.95 -61.65Q33.75 -61.6 33.75 -60.75Q33.75 -60.45 33.15 -60.25L33.8 -55.7Q37.05 -31.4 37.75 -11.05L38.1 -0.85L38.1 -0.55Q37.2 0 34.7 0L33.05 -0.15Q31.7 -0.45 31.4 -1.35L31.25 -11.55Q30.55 -31.9 27.3 -56.2L26.7 -60.65L26.6 -61.4Q23.7 -80.6 19.7 -94.5L19.45 -94.55Q18.75 -94.8 19.2 -96.1Q16.35 -105.65 12.9 -112.55M21.15,-94.5Q25.5 -94.5 25.5 -95.85L25.45 -96.35M7.5,-121.4L8.2 -120.4L8.6 -119.85Q10.85 -116.65 12.9 -112.55M21.15,-94.5L21 -94.5L19.7 -94.5L19.2 -96.1M26.7,-60.65Q27.15 -60.3 28.2 -60.15M33.15,-60.25L32.95 -61.65M33.15,-60.25L30.45 -60L28.2 -60.15" />
<path style="fill:none;stroke-width:1;stroke-linecap:round;stroke-linejoin:round;stroke-miterlimit:3;stroke:#3E4738;stroke-opacity:1" d="M12.9,-112.55L6.85 -112.85L6.75 -112.6L10.85 -112.55L10.85 -111.9Q8.3 -109.85 6.95 -108L6.3 -107.05M6.3,-111.25L6.75 -112.6L6.55 -112.6L6.3 -112.4M-8.55,-89L-8.7 -88.25L-8.8 -87.9L-8.8 -88.25L-8.65 -89M-0.2,-126.1L2 -124.65L2.4 -124.7L0.4 -125.9L-0.2 -126.2M-0.2,-124.2L2 -124.65L2.2 -124.55L2.4 -124.7L7.5 -121.4M-0.2,-120.3L0.05 -120.4Q2.15 -121.35 5.4 -121.85L5.7 -122.4L2.2 -124.55L-0.2 -122.4M6.3,-112.85L6.85 -112.85L6.85 -112.9L6.85 -112.85L6.55 -112.6L6.3 -112.6M-27,-122.45L-30.05 -121.6L-30.75 -121.25L-30.65 -121.45L-30.05 -121.6L-27.15 -122.8L-27 -122.85" />
<path style="fill:none;stroke-width:1;stroke-linecap:round;stroke-linejoin:round;stroke-miterlimit:3;stroke:#373F32;stroke-opacity:1" d="M3.2,-125.8Q7.25 -122.85 9.45 -120.05L10.15 -119.05L10.55 -118.5Q16.55 -109.95 21.15 -94.5M28.2,-60.15Q25.35 -79.3 21.35 -93.15M28.2,-60.15L28.25 -60.05L28.35 -59.3L28.95 -54.85Q32.2 -30.55 32.9 -10.2L33.05 -0.15" />
<path style="fill:none;stroke-width:1;stroke-linecap:round;stroke-linejoin:round;stroke-miterlimit:3;stroke:#4D5645;stroke-opacity:1" d="M6.3,-107.05Q4.9 -104.9 2.8 -100.8L2.2 -99.25L1.85 -98.9L2.8 -100.8L6.3 -111.25M6.3,-112.4Q3.4 -110 1.5 -107.6L-0.2 -105M-0.9,-102.75L-2.75 -95.65L-2.8 -95.25L-2.8 -95.55L-2.75 -95.65Q-2.5 -99.55 -1.25 -102.75M-0.2,-105.45L1.7 -112.8L1.05 -112.75L-0.2 -111.15M-4.35,-102.75Q-6.95 -96.35 -8.55 -89M-8.65,-89L-6.25 -102.75M-8.5,-102.75L-9.05 -101.4Q-11.95 -93.9 -13.75 -89.75L-13.8 -89.25L-14 -89.2L-13.75 -89.75Q-13.45 -92.65 -10.25 -102.15L-14.8 -99.25L-19.7 -93.95L-20.15 -93.3L-20.15 -93.55L-19.7 -93.95Q-17.75 -96.9 -14.8 -99.25L-11.95 -102.75M-17.2,-102.75Q-21.8 -101 -29.2 -97.2L-30.15 -96.55L-30.45 -96.55L-29.2 -97.2L-21.35 -102.75M-22.95,-104.65L-30.3 -102.75L-31.45 -102.25L-31.8 -102.25L-30.3 -102.75L-22.95 -105.55M-22.95,-110.2L-27 -110.05L-30.45 -109.9L-30.15 -110.25L-27 -111L-22.95 -111.8L-23.45 -111.2L-23.65 -110.9L-22.95 -111.65M-22.95,-118.05Q-24.95 -116.55 -26.5 -115.4L-27 -115L-27.3 -114.55L-27.5 -114.65L-27 -115M6.3,-112.6L2.8 -112.85L1.7 -112.8L1.75 -112.95L1.3 -113L1.2 -112.9L1.05 -112.75L-0.2 -112.6M-9.8,-102.75L-9.8 -102.25L-9.45 -102.25L-9 -102.75M1.15,-113L1.3 -113L1.55 -113.25L1.85 -113.6L1.75 -112.95L2.8 -112.85L4.5 -112.9L6.3 -112.85M1.15,-113L-0.2 -113.1M-18.8,-135.3L-20.2 -135.85M-15.05,-135.3L-20.2 -137.3M-22.95,-119.3L-26.7 -115.4L-27 -115M-25.95,-122.8L-27 -122.45M-10.25,-102.15L-10.15 -102.25L-10.15 -102.55L-10.25 -102.15" />
<path style="fill:none;stroke-width:1;stroke-linecap:round;stroke-linejoin:round;stroke-miterlimit:3;stroke:#545F4B;stroke-opacity:1" d="M-22.95,-132.55L-27 -133.25L-34.85 -134.5L-27 -132.35L-24.05 -131.5L-22.95 -130.85M-22.95,-130.4L-26.25 -130.1L-25.55 -129.4L-22.95 -129.4M-20.2,-135.85L-23.8 -137.15L-24.3 -137.05L-21.15 -135.3M-20.2,-137.3L-22.65 -138.2L-27 -139.7L-30.95 -140.9L-31.4 -140.75L-27 -138.5L-24.4 -137.1L-24.3 -137.05Q-22.85 -136.2 -21.2 -135.3M-22.95,-128.6L-25.55 -129.4M-22.95,-123.8L-23.15 -123.7L-22.95 -123.75M-36.65,-129.15L-38.05 -129.2L-37.8 -129.05L-36.65 -129.15L-27 -130.05L-26.25 -130.1M-34.85,-134.5L-36.4 -134.8L-36.05 -134.65L-34.85 -134.5M-36.65,-129.15L-27 -128.4L-22.95 -127.85M-27,-122.85L-23.15 -123.7L-25.95 -122.8" />
<path style="fill:none;stroke-width:1;stroke-linecap:round;stroke-linejoin:round;stroke-miterlimit:3;stroke:#555E4D;stroke-opacity:1" d="M-0.2,-105L-0.4 -104.6L-0.9 -102.75M-1.25,-102.75L-0.4 -104.6L-0.2 -105.45M-0.2,-111.15Q-2 -108.55 -4 -103.7L-4.35 -102.75M-6.25,-102.75L-5.8 -105.9L-5.8 -106.05L-8.1 -103.65L-8.5 -102.75M-11.95,-102.75L-10.45 -104.9L-10.8 -104.9L-16.4 -103.05L-17.2 -102.75M-21.35,-102.75L-20.7 -103.2L-17.45 -105.55L-19.45 -105.55L-22.95 -104.65M-22.95,-105.55L-15.45 -108.3L-13.35 -109.05L-9.15 -110.55L-13.15 -110.55L-13.35 -110.35L-13.75 -110.25L-16.2 -110.2L-17.9 -110.25L-22.5 -110.2L-22.55 -110.2L-22.95 -110.2M-22.8,-111.8L-22.95 -111.8L-22.85 -111.85L-19.85 -115.4L-13.35 -123.35L-12.05 -125L-11.95 -125.15L-13.35 -124.75L-15.15 -124.2L-17.1 -122.7L-22.95 -118.05M-0.2,-126.2L-1.1 -126.7L-0.2 -126.1M-0.2,-122.4L-7.15 -116.25L-0.2 -120.3M-0.2,-112.6L-5.4 -111.4L-5.8 -111.25Q-6.65 -109.55 -9.05 -107.75L-9.8 -105.9L-9.8 -102.75M-9,-102.75L-8.1 -103.65Q-6.95 -106.25 -5.8 -107.55L-5.8 -106.05L-1.1 -110.9M-0.2,-113.1L-2.1 -113.25L-13.35 -111.9L-22.1 -110.55L-22.45 -110.25L-17.9 -110.25M-21.15,-135.3L-20.35 -134.8L-20.2 -134.7L-18.9 -133.9L-16.75 -132.7Q-16.2 -132.5 -16.05 -132.7L-12.6 -130.7L-13.35 -130.8L-20.2 -132.05L-22.95 -132.55M-22.95,-130.85L-22.3 -130.5L-22.95 -130.4M-22.95,-129.4L-20.2 -129.4L-13.35 -129.65L-10.95 -129.75L-10.9 -129.75L-8.95 -129.55Q-6.05 -129.05 -2.65 -127.5L-2.45 -127.55L-2.35 -127.6L-2.45 -127.65L-5.15 -129.5L-13.35 -133L-18.8 -135.3M-5.15,-129.5L-11.65 -133.65L-13.35 -134.5L-15.05 -135.3M-15.15,-124.2L-17 -123.65L-17.3 -123.8L-15.5 -127L-13.95 -128.25L-17.95 -128.1L-20.2 -128.25L-22.95 -128.6M-22.95,-123.75L-20.2 -124L-17.75 -124L-17.5 -124.25L-17.65 -124L-17.75 -124L-22.95 -119.3M-22.95,-127.85L-22.65 -127.8L-20.2 -127.35L-16.85 -126.6L-16.55 -126.45Q-18.3 -125.6 -20.2 -124.85L-22.95 -123.8M-13.95,-128.25L-13.35 -128.65Q-12 -129.5 -10.9 -129.75L-9.35 -129.6L-8.95 -129.55M-13.95,-128.25L-13.35 -128.3Q-10.8 -128.7 -9.35 -129.6M-15.15,-124.2L-13.35 -125.4L-11.2 -126.4L-11.95 -125.15L-5.45 -126.95M-22.95,-111.65L-22.8 -111.8L-19.35 -115.4L-13.35 -120.75L-11.55 -122.15Q-6 -126.5 -2.65 -127.5L-2.1 -127.2L-2 -127.3L-2.35 -127.6L-2 -127.65L-1.55 -127.8L-2 -127.3L-1.1 -126.7L-2.1 -127.2L-8.05 -121.15Q-6.55 -122.15 -4.85 -122.8Q-2.8 -123.65 -0.2 -124.2M-21.2,-135.3L-20.35 -134.8M-22.8,-111.8L-21.6 -112.05L-13.35 -113.35L-9.8 -113.6L-2.1 -113.25M-7.15,-116.25L-8.45 -115.4L-8.9 -115.1L-8.45 -115.2L-8.2 -115.4Q-7.85 -115.65 -7.15 -116.25M-8.05,-121.15L-13.35 -115.8L-13.75 -115.4L-14.55 -114.6L-14.75 -114.25L-14.6 -114.5L-14.55 -114.6L-14 -115.4L-13.35 -116.25Q-10.95 -119.3 -8.05 -121.15M-5.8,-111.25L-7.2 -110.6Q-8.25 -109.65 -9.05 -107.75Q-10.5 -106.75 -12.5 -105.65Q-16.95 -103.25 -19.7 -102.95Q-20.1 -102.9 -20.7 -103.2M-7.25,-110.6L-7.2 -110.6Q-6.35 -111.4 -5.4 -111.4M-7.25,-110.6Q-13.4 -106.5 -19.7 -102.95" />
</g>
</svg>
