<?xml version="1.0" encoding="utf-8"?>
<svg version="1.1" id="Layer_1"
xmlns="http://www.w3.org/2000/svg"
xmlns:xlink="http://www.w3.org/1999/xlink"
xmlns:author="http://www.sothink.com"
width="51px" height="32px"
xml:space="preserve">
<g id="184" transform="matrix(1, 0, 0, 1, 40.3, 9.35)">
<path style="fill:#CAC9C0;fill-opacity:1" d="M-0.05,15.9L-0.1 15.95L-40.05 -4.1L-30.05 -9.1L9.9 10.95Q4.9 13.4 -0.05 15.9" />
<path style="fill:#B9B8AC;fill-opacity:1" d="M9.4,15.15L9.85 14.95L9.9 14.95L9.95 14.9L9.9 16.9L-0.1 21.95L-40.05 1.9L-40.05 -4.1L-0.1 15.95L-0.05 15.95L-0.05 15.9Q4.9 13.4 9.9 10.95L9.95 10.95L9.9 12.9L9.85 12.95L9.9 12.95L9.95 12.95L9.9 14.9L9.4 15.15M-0.05,17.9L-0.1 17.95L-0.05 17.95L-0.05 17.9" />
<path style="fill:#E7E6E0;fill-opacity:1" d="M-0.05,15.95L-0.1 15.95L-0.05 15.9L-0.05 15.95M-0.05,17.95L-0.1 17.95L-0.05 17.9L-0.05 17.95" />
<path style="fill:#DBDAD0;fill-opacity:1" d="M9.9,14.9L9.85 14.95L9.4 15.15L9.9 14.9" />
<path style="fill:none;stroke-width:0.5;stroke-linecap:round;stroke-linejoin:round;stroke-miterlimit:3;stroke:#676767;stroke-opacity:1" d="M9.9,10.95L-30.05 -9.1L-40.05 -4.1L-0.1 15.95L-0.05 15.9Q4.9 13.4 9.9 10.95L9.95 10.9L9.95 10.95L9.9 12.9L9.85 12.95L9.9 12.95L9.95 12.9L9.95 12.95L9.9 14.9L9.85 14.95L9.9 14.95L9.95 14.9L9.9 16.9L-0.1 21.95L-40.05 1.9L-40.05 -4.1M-0.1,17.95L-0.05 15.95L-0.05 15.9M-0.1,17.95L-0.05 17.9L-0.05 17.95L-0.1 19.95L-0.05 19.9L-0.1 21.95" />
</g>
</svg>
