<?xml version="1.0" encoding="utf-8"?>
<svg version="1.1" id="Layer_1"
xmlns="http://www.w3.org/2000/svg"
xmlns:xlink="http://www.w3.org/1999/xlink"
xmlns:author="http://www.sothink.com"
width="44px" height="58px"
xml:space="preserve">
<g id="913" transform="matrix(1, 0, 0, 1, 21.55, 71)">
<path style="fill:#FFFFFF;fill-opacity:0.298039" d="M5.45,-59.45L9.3 -68.05L13.2 -59.45L14.45 -60L17.6 -56.95L18.7 -55.85L18.35 -55.45L18.45 -55.35Q20.55 -53.3 20.75 -50.8L20.8 -50.2Q20.8 -48.55 20 -47.1L19.75 -46.65L18.35 -44.95L18.45 -44.85L18.15 -44.55L14.9 -43.65L14.9 -38.95L11.65 -38.25L8.5 -37.35L9.15 -35.75L12.5 -37Q14.2 -37.6 15.5 -37.6Q17.05 -37.6 17.65 -37Q18.45 -36.2 18.45 -35Q18.45 -33.9 17.7 -33.15Q16.65 -32.1 13.6 -31.9L12.35 -31.85L12.7 -30.35L14.2 -30.4L14.15 -27.65L12.65 -26.4L12.65 -20.65L8.1 -20.65L8.1 -19.1L14.7 -19.1Q15.4 -19.1 15.85 -18.7Q16.4 -18.15 16.4 -17.05Q16.4 -16 15.85 -15.45Q15.4 -15 14.7 -15L8.1 -15L8.1 -13.5L-8.9 -13.5L-12.15 -16.75L-12.15 -18.45L-11.7 -18.85Q-10.95 -19.45 -10.35 -20.4L-11.6 -21.4L-12.3 -20.45L-11.9 -31.4L-10.15 -44.2L-9.75 -43.85L-9 -44.55L-10 -45.65Q-11.5 -47.55 -11.5 -49.8L-11.45 -50.8Q-11.1 -53.1 -9 -55.05L-9.75 -55.8L-9.25 -59.75L-8.6 -59.45L-4.75 -68.05L-0.9 -59.45L0.35 -60L4.25 -60L5.45 -59.45M13,-46.5L13 -45.05L13.55 -45.05L13 -43.6L13.75 -43.6L14.5 -45.15L14.5 -46.5L13 -46.5M11.6,-45.15L11.6 -46.5L10.05 -46.5L10.05 -45.05L10.6 -45.05L10.05 -43.6L10.85 -43.6L11.6 -45.15" />
<path style="fill:#000000;fill-opacity:0.298039" d="M-9.8,-60L-4.75 -71L0.35 -60L-0.9 -59.45L-4.75 -68.05L-8.6 -59.45L-9.25 -59.75L-9.8 -60M-10.75,-44.9Q-12.55 -47.1 -12.55 -49.8L-12.5 -50.8Q-12.15 -53.6 -9.75 -55.8L-9 -55.05Q-11.1 -53.1 -11.45 -50.8L-11.5 -49.8Q-11.5 -47.55 -10 -45.65L-9 -44.55L-9.75 -43.85L-10.15 -44.2L-10.75 -44.9M-13.4,-18L-13.75 -18Q-14.7 -18 -16.4 -19.1L-18.3 -19.75Q-19.2 -19.75 -19.6 -19.2L-20.2 -18.25L-21.55 -19L-20.35 -20.65Q-19.55 -21.45 -18.4 -21.45Q-17.3 -21.45 -16.15 -20.65Q-14.5 -19.8 -13.6 -19.8Q-12.95 -19.8 -12.3 -20.45L-11.6 -21.4L-10.35 -20.4Q-10.95 -19.45 -11.7 -18.85L-12.15 -18.45Q-12.7 -18.1 -13.4 -18M14.75,-20.65Q16 -20.65 16.8 -19.85Q17.7 -18.95 17.7 -17.05Q17.7 -15.2 16.8 -14.3Q16 -13.5 14.75 -13.5L8.1 -13.5L8.1 -15L14.7 -15Q15.4 -15 15.85 -15.45Q16.4 -16 16.4 -17.05Q16.4 -18.15 15.85 -18.7Q15.4 -19.1 14.7 -19.1L8.1 -19.1L8.1 -20.65L12.65 -20.65L14.75 -20.65M15.65,-39Q17.85 -39 18.9 -37.95Q20 -36.9 20 -35.1Q20 -33.25 19 -32.25L18.6 -31.9Q17 -30.7 14.2 -30.4L12.7 -30.35L12.35 -31.85L13.6 -31.9Q16.65 -32.1 17.7 -33.15Q18.45 -33.9 18.45 -35Q18.45 -36.2 17.65 -37Q17.05 -37.6 15.5 -37.6Q14.2 -37.6 12.5 -37L9.15 -35.75L8.5 -37.35L11.65 -38.25L14.9 -38.95L15.65 -39M18.75,-55.85L19.05 -56.2Q21.6 -53.85 21.8 -50.8L21.85 -50.2Q21.85 -48.3 20.95 -46.65Q20.25 -45.4 19.05 -44.25L18.45 -44.85L18.35 -44.95L19.75 -46.65L20 -47.1Q20.8 -48.55 20.8 -50.2L20.75 -50.8Q20.55 -53.3 18.45 -55.35L18.35 -55.45L18.7 -55.85L17.6 -56.95L18.75 -55.85M14.45,-60L13.2 -59.45L9.3 -68.05L5.45 -59.45L4.25 -60L9.3 -71L14.45 -60M14.5,-46.5L14.5 -45.15L13.75 -43.6L13 -43.6L13.55 -45.05L13 -45.05L13 -46.5L14.5 -46.5M10.85,-43.6L10.05 -43.6L10.6 -45.05L10.05 -45.05L10.05 -46.5L11.6 -46.5L11.6 -45.15L10.85 -43.6" />
<path style="fill:none;stroke-width:1;stroke-linecap:round;stroke-linejoin:round;stroke-miterlimit:3;stroke:#000000;stroke-opacity:0.298039" d="M4.25,-60L0.35 -60M12.65,-20.65L12.65 -26.4" />
<path style="fill:none;stroke-width:1;stroke-linecap:round;stroke-linejoin:round;stroke-miterlimit:3;stroke:#000000;stroke-opacity:0.298039" d="M18.7,-55.85L17.6 -56.95" />
</g>
</svg>
