<?xml version="1.0" encoding="utf-8"?>
<svg version="1.1" id="Layer_1"
xmlns="http://www.w3.org/2000/svg"
xmlns:xlink="http://www.w3.org/1999/xlink"
xmlns:author="http://www.sothink.com"
width="100px" height="62px"
xml:space="preserve">
<g id="582" transform="matrix(1, 0, 0, 1, 27.7, 29)">
<path style="fill:#000000;fill-opacity:1" d="M0.35,-23.8L0.1 -23.55L-0.4 -23.45L-0.95 -23.55L-1.15 -23.8L-0.95 -24.1L-0.4 -24.2L0.1 -24.1L0.35 -23.8M61.85,6.55L62.1 6.85L61.85 7.1L61.35 7.2L60.8 7.1L60.6 6.85Q60.55 6.65 60.8 6.55L61.35 6.45L61.85 6.55M52.6,10.85L53.1 10.95L53.35 11.2L53.1 11.45L52.6 11.6L52.05 11.45L51.85 11.2Q51.8 11.05 52.05 10.95L52.6 10.85M56.3,9.05Q56.25 8.85 56.5 8.75L57.05 8.65L57.55 8.75L57.8 9.05L57.55 9.3L57.05 9.4L56.5 9.3L56.3 9.05M48.2,13.75L47.65 13.6L47.45 13.35L47.65 13.1L48.2 13L48.7 13.1L48.95 13.35L48.7 13.6L48.2 13.75M43.95,15.15L44.45 15.25L44.7 15.5L44.45 15.75L43.95 15.9L43.4 15.75L43.2 15.5L43.4 15.25L43.95 15.15M-4.2,-21.9L-3.95 -21.6L-4.2 -21.35L-4.7 -21.25L-5.25 -21.35L-5.45 -21.6L-5.25 -21.9L-4.7 -22L-4.2 -21.9M-9.15,-19.05L-9.7 -19.2L-9.9 -19.45L-9.7 -19.7L-9.15 -19.8L-8.65 -19.7L-8.4 -19.45L-8.65 -19.2L-9.15 -19.05M-17.05,-15.15L-17.3 -14.9L-17.8 -14.75L-18.35 -14.9L-18.55 -15.15L-18.35 -15.4L-17.8 -15.5L-17.3 -15.4L-17.05 -15.15M-14.1,-17.05L-14.3 -17.3L-14.1 -17.55L-13.55 -17.65L-13.05 -17.55L-12.8 -17.3L-13.05 -17.05L-13.55 -16.9L-14.1 -17.05" />
<path style="fill:#5E5E5E;fill-opacity:1" d="M45.15,27.25L45.15 27.15L46.95 26.15L48.2 26.45L48.25 26.4L48.55 27.4L48.55 27.45L46.7 28.45L45.45 28.15L45.4 28.15L45.15 27.25M-13,-3.5L-14.85 -2.5L-16.1 -2.8L-16.15 -2.8L-16.4 -3.7L-16.4 -3.8L-14.6 -4.8L-13.35 -4.5L-13.3 -4.55L-13 -3.55L-13 -3.5" />
<path style="fill:#4C4C4C;fill-opacity:1" d="M45.4,28.15L45.45 28.15L46.7 28.45L48.55 27.45L48.55 27.4L48.55 27.8Q48 28.05 47.5 28.35L45.75 29.2L45.45 29.15L45.45 29.2L45.15 28.15L45.15 27.25L45.4 28.15M-13,-3.55L-13 -3.15L-14.05 -2.6Q-14.9 -2.1 -15.8 -1.75L-16.1 -1.8L-16.1 -1.75L-16.4 -2.8L-16.4 -3.7L-16.15 -2.8L-16.1 -2.8L-14.85 -2.5L-13 -3.5L-13 -3.55" />
<path style="fill:#666666;fill-opacity:1" d="M55.65,13.35Q49.65 6.1 33.2 -2.4L34.1 -4.25L19.9 -11.35L23.55 -13.15L25.6 -12.15L62.95 6.45L63.15 6.85L59.75 8.55L59.7 8.55L56.3 6.85Q56.35 10.3 55.65 13.35M-5.9,-17.6L-7.5 -19.35L-5.5 -19.85L-5.9 -17.6M61.35,6.45L60.8 6.55Q60.55 6.65 60.6 6.85L60.8 7.1L61.35 7.2L61.85 7.1L62.1 6.85L61.85 6.55L61.35 6.45" />
<path style="fill:#424242;fill-opacity:1" d="M46.4,29.4Q55.15 26.05 58.35 17.65Q59.85 13.55 59.75 8.55L63.15 6.85L63.45 6.7L63.6 6.75L63.6 23.6L46.35 32.15L46.4 29.4M-15.3,-1.4Q-6.4 -4.9 -3.2 -13.3Q-2.25 -15.95 -1.9 -19L-1.8 -20.75L2.05 -21.7L2.05 -7.35L-15.3 1.35L-15.3 -1.4" />
<path style="fill:#333333;fill-opacity:1" d="M56.3,6.85L59.7 8.55L59.75 8.55Q59.85 13.55 58.35 17.65Q55.15 26.05 46.4 29.4L46.35 32.15L43 30.4L42.95 27.8Q53.15 23.85 55.65 13.35Q56.35 10.3 56.3 6.85M-5.5,-19.85L-1.8 -20.75L-1.9 -19Q-2.25 -15.95 -3.2 -13.3Q-6.4 -4.9 -15.3 -1.4L-15.3 1.35L-18.45 -0.25L-18.5 -3.05Q-8.7 -7 -6 -17.05L-5.9 -17.6L-5.5 -19.85M56.5,9.3L57.05 9.4L57.55 9.3L57.8 9.05L57.55 8.75L57.05 8.65L56.5 8.75Q56.25 8.85 56.3 9.05L56.5 9.3M48.25,26.4L48.2 26.45L46.95 26.15L45.15 27.15L45.15 27.25L45.15 28.15L45.45 29.2L45.45 29.15L45.75 29.2L47.5 28.35Q48 28.05 48.55 27.8L48.55 27.4L48.25 26.4M-16.4,-2.8L-16.1 -1.75L-16.1 -1.8L-15.8 -1.75Q-14.9 -2.1 -14.05 -2.6L-13 -3.15L-13 -3.55L-13.3 -4.55L-13.35 -4.5L-14.6 -4.8L-16.4 -3.8L-16.4 -3.7L-16.4 -2.8" />
<path style="fill:#CCCCCC;fill-opacity:1" d="M63.15,6.85L62.95 6.45L63.5 6.7L63.45 6.7L63.15 6.85" />
<path style="fill:none;stroke-width:0.5;stroke-linecap:round;stroke-linejoin:round;stroke-miterlimit:3;stroke:#333333;stroke-opacity:1" d="M0.35,-23.8L0.1 -23.55L-0.4 -23.45L-0.95 -23.55L-1.15 -23.8L-0.95 -24.1L-0.4 -24.2L0.1 -24.1L0.35 -23.8M61.85,6.55L62.1 6.85L61.85 7.1L61.35 7.2L60.8 7.1L60.6 6.85Q60.55 6.65 60.8 6.55L61.35 6.45L61.85 6.55M52.6,10.85L53.1 10.95L53.35 11.2L53.1 11.45L52.6 11.6L52.05 11.45L51.85 11.2Q51.8 11.05 52.05 10.95L52.6 10.85M56.3,9.05Q56.25 8.85 56.5 8.75L57.05 8.65L57.55 8.75L57.8 9.05L57.55 9.3L57.05 9.4L56.5 9.3L56.3 9.05M48.2,13.75L47.65 13.6L47.45 13.35L47.65 13.1L48.2 13L48.7 13.1L48.95 13.35L48.7 13.6L48.2 13.75M43.95,15.15L44.45 15.25L44.7 15.5L44.45 15.75L43.95 15.9L43.4 15.75L43.2 15.5L43.4 15.25L43.95 15.15M-4.2,-21.9L-3.95 -21.6L-4.2 -21.35L-4.7 -21.25L-5.25 -21.35L-5.45 -21.6L-5.25 -21.9L-4.7 -22L-4.2 -21.9M-9.15,-19.05L-9.7 -19.2L-9.9 -19.45L-9.7 -19.7L-9.15 -19.8L-8.65 -19.7L-8.4 -19.45L-8.65 -19.2L-9.15 -19.05M-17.05,-15.15L-17.3 -14.9L-17.8 -14.75L-18.35 -14.9L-18.55 -15.15L-18.35 -15.4L-17.8 -15.5L-17.3 -15.4L-17.05 -15.15M-14.1,-17.05L-14.3 -17.3L-14.1 -17.55L-13.55 -17.65L-13.05 -17.55L-12.8 -17.3L-13.05 -17.05L-13.55 -16.9L-14.1 -17.05" />
<path style="fill:none;stroke-width:1;stroke-linecap:round;stroke-linejoin:round;stroke-miterlimit:3;stroke:#3C3C3C;stroke-opacity:1" d="M63.5,6.7L63.45 6.7L63.6 6.75L63.6 23.6L46.35 32.15L43 30.4L42.95 27.8Q53.15 23.85 55.65 13.35Q49.65 6.1 33.2 -2.4Q27.7 -5.25 21.05 -8.2M25.6,-12.15L62.95 6.45L63.45 6.7L63.15 6.85L59.75 8.55Q59.85 13.55 58.35 17.65Q55.15 26.05 46.4 29.4L46.35 32.15M34.1,-4.25L19.9 -11.35M-1.8,-20.75L-1.9 -19Q-2.25 -15.95 -3.2 -13.3Q-6.4 -4.9 -15.3 -1.4L-15.3 1.35L2.05 -7.35L2.05 -21.7M-15.3,1.35L-18.45 -0.25L-18.5 -3.05Q-8.7 -7 -6 -17.05L-5.9 -17.6L-7.5 -19.35M34.1,-4.25L56.3 6.85L59.7 8.55L59.75 8.55M56.3,6.85Q56.35 10.3 55.65 13.35M-5.5,-19.85L-5.9 -17.6" />
<path style="fill:#515151;fill-opacity:1" d="M71.55,10.7L68.9 12L68.85 12L-9.6 -27.2L-6.95 -28.5L71.55 10.7M64.75,14.3L64.7 14.3L-13.75 -24.9L-11.1 -26.2L-9.7 -25.5L67.4 13L64.75 14.3M-18.2,-22.85L-15.55 -24.15L-13.85 -23.3L62.95 15.05L60.3 16.35L60.25 16.35L-18.2 -22.85M51.4,20.75L51.35 20.75L-27.1 -18.45L-24.45 -19.75L-22.6 -18.85L54.05 19.45L51.4 20.75M58.65,17.2L56 18.5L55.95 18.5L-22.5 -20.7L-19.85 -22L-18.3 -21.25L58.65 17.2" />
<path style="fill:#3A3A3A;fill-opacity:1" d="M68.85,14.7L67.4 14L67.4 13L-9.7 -25.5L-9.65 -27.25L-9.6 -27.2L68.85 12L68.85 14.7M64.7,17L62.95 16.15L62.95 15.05L-13.85 -23.3L-13.8 -24.95L-13.75 -24.9L64.7 14.3L64.7 17M55.95,18.5L55.95 21.2L54.05 20.25L54.05 19.45L-22.6 -18.85L-22.55 -20.75L-22.5 -20.7L55.95 18.5M60.25,16.35L60.25 19.05L58.65 18.25L58.65 17.2L-18.3 -21.25L-18.25 -22.9L-18.2 -22.85L60.25 16.35M-27.1,-18.45L51.35 20.75L51.35 23.45L-27.2 -15.75L-27.15 -18.5L-27.1 -18.45" />
<path style="fill:#000000;fill-opacity:1" d="M71.5,13.35L68.85 14.7L68.85 12L68.9 12L71.55 10.7L71.5 13.35M64.75,14.3L67.4 13L67.4 14L67.35 15.65L64.7 17L64.7 14.3L64.75 14.3M62.95,15.05L62.95 16.15L62.9 17.7L60.25 19.05L60.25 16.35L60.3 16.35L62.95 15.05M54,22.1L51.35 23.45L51.35 20.75L51.4 20.75L54.05 19.45L54.05 20.25L54 22.1M58.65,18.25L58.6 19.85L55.95 21.2L55.95 18.5L56 18.5L58.65 17.2L58.65 18.25" />
<path style="fill:none;stroke-width:1;stroke-linecap:round;stroke-linejoin:round;stroke-miterlimit:3;stroke:#535353;stroke-opacity:1" d="M-6.95,-28.5L-9.6 -27.2M68.85,12L68.9 12L71.55 10.7M-9.65,-27.25L-9.7 -25.5M-11.1,-26.2L-13.75 -24.9M64.7,14.3L64.75 14.3L67.4 13M-13.8,-24.95L-13.85 -23.3M-22.55,-20.75L-22.6 -18.85M-22.5,-20.7L-19.85 -22M-18.3,-21.25L-18.25 -22.9M-18.2,-22.85L-15.55 -24.15M-24.45,-19.75L-27.1 -18.45M51.35,20.75L51.4 20.75L54.05 19.45M-27.15,-18.5L-27.2 -15.75M55.95,18.5L56 18.5L58.65 17.2M60.25,16.35L60.3 16.35L62.95 15.05" />
<path style="fill:none;stroke-width:1;stroke-linecap:round;stroke-linejoin:round;stroke-miterlimit:3;stroke:#333333;stroke-opacity:1" d="M68.85,14.7L71.5 13.35L71.55 10.7L-6.95 -28.5M-9.7,-25.5L67.4 13L67.4 14L68.85 14.7L68.85 12M-9.7,-25.5L-11.1 -26.2M-15.55,-24.15L-13.85 -23.3L62.95 15.05L62.95 16.15L64.7 17L64.7 14.3M-22.6,-18.85L54.05 19.45L54.05 20.25L55.95 21.2L55.95 18.5M-19.85,-22L-18.3 -21.25M-22.6,-18.85L-24.45 -19.75M-27.2,-15.75L51.35 23.45L51.35 20.75M64.7,17L67.35 15.65L67.4 14M60.25,16.35L60.25 19.05L62.9 17.7L62.95 16.15M58.65,17.2L-18.3 -21.25M60.25,19.05L58.65 18.25L58.6 19.85L55.95 21.2M58.65,17.2L58.65 18.25M51.35,23.45L54 22.1L54.05 20.25" />
<path style="fill:none;stroke-width:1;stroke-linecap:round;stroke-linejoin:round;stroke-miterlimit:3;stroke:#646464;stroke-opacity:1" d="M-9.6,-27.2L68.85 12M-13.75,-24.9L64.7 14.3M55.95,18.5L-22.5 -20.7M-27.1,-18.45L51.35 20.75M60.25,16.35L-18.2 -22.85" />
</g>
</svg>
