<?xml version="1.0" encoding="utf-8"?>
<svg version="1.1" id="Layer_1"
xmlns="http://www.w3.org/2000/svg"
xmlns:xlink="http://www.w3.org/1999/xlink"
xmlns:author="http://www.sothink.com"
width="39px" height="54px"
xml:space="preserve">
<g id="617" transform="matrix(1, 0, 0, 1, 0.05, 0)">
<path style="fill:#000000;fill-opacity:0.0705882" d="M36.15,0.6L36.85 0.1L37.65 0.05L38.2 0.45L38 1.05L37.35 1.55L36.45 1.55L36 1.2Q35.9 0.9 36.15 0.6M1.35,19.55L0.45 19.55L0 19.2L0.15 18.6L0.85 18.1L1.65 18.05L2.2 18.45L2 19.05L1.35 19.55M36.45,35.55L36 35.2Q35.9 34.9 36.15 34.6L36.85 34.1L37.65 34.05L38.2 34.45L38 35.05L37.35 35.55L36.45 35.55M0.45,53.55L0 53.2L0.15 52.6L0.85 52.1L1.65 52.05L2.2 52.45L2 53.05L1.35 53.55L0.45 53.55" />
</g>
</svg>
