<?xml version="1.0" encoding="utf-8"?>
<svg version="1.1" id="Layer_1"
xmlns="http://www.w3.org/2000/svg"
xmlns:xlink="http://www.w3.org/1999/xlink"
xmlns:author="http://www.sothink.com"
width="48px" height="38px"
xml:space="preserve">
<g id="840" transform="matrix(1, 0, 0, 1, 23.25, 47.05)">
<path style="fill:#000000;fill-opacity:1" d="M4.05,-35.2L15.9 -46.55L20.6 -46L24.15 -41.2L21.9 -41.8L14.15 -39.3L15.65 -33.05L15.65 -28.55L18.45 -17.65L16.25 -17L14.35 -17.35L13.9 -26.55Q15.95 -31.15 15.1 -33.45Q13.6 -37.35 4 -35L-1.35 -32.55Q-13.65 -38.75 -15.85 -34.9Q-17.3 -32.4 -14.4 -25.6L-14.4 -13.85L-10.9 -13.85L-10.6 -12.15L-20.15 -10.25L-17.9 -32.5L-17.75 -34.35L-18.05 -39.7L-22.75 -39.75L-16.85 -45.9L-3.35 -41.6L0.75 -38.05L4.05 -35.2" />
<path style="fill:none;stroke-width:1;stroke-linecap:round;stroke-linejoin:round;stroke-miterlimit:3;stroke:#000000;stroke-opacity:1" d="M14.15,-39.3L21.9 -41.8L24.15 -41.2L20.6 -46L15.9 -46.55L4.05 -35.2L4.1 -35.15L14.15 -39.3L15.65 -33.05L15.65 -28.55L18.45 -17.65L16.25 -17M15.1,-33.45Q13.6 -37.35 4 -35L-1.35 -32.55Q-13.65 -38.75 -15.85 -34.9M-10.6,-12.15L-20.15 -10.25L-17.9 -32.5L-17.75 -34.35L-18.05 -39.7L-22.75 -39.75L-16.85 -45.9L-3.35 -41.6L0.75 -38.05L4.05 -35.2L3.9 -35.1L4.1 -35.15L4.15 -35.1L4 -35L3.9 -35.1M0.75,-38.05Q-2 -39.9 -7.2 -39.9L-18.05 -39.7M-17.9,-32.5L-15.85 -34.9" />
<path style="fill:#000000;fill-opacity:1" d="M0.8,-28.1Q-0.2 -28 -0.2 -29L-0.2 -37.9Q-0.2 -38.9 0.8 -39L7.05 -39.55Q8.05 -39.65 8.05 -38.65L8.05 -29.75Q8.05 -28.75 7.05 -28.65L0.8 -28.1" />
<path style="fill:none;stroke-width:0.5;stroke-linecap:round;stroke-linejoin:round;stroke-miterlimit:3;stroke:#CCCCCC;stroke-opacity:1" d="M7.05,-28.65Q8.05 -28.75 8.05 -29.75L8.05 -38.65Q8.05 -39.65 7.05 -39.55L0.8 -39Q-0.2 -38.9 -0.2 -37.9L-0.2 -29Q-0.2 -28 0.8 -28.1L7.05 -28.65z" />
<path style="fill:none;stroke-width:1.5;stroke-linecap:round;stroke-linejoin:round;stroke-miterlimit:3;stroke:#00FF00;stroke-opacity:1" d="M4.5,-37.8L4.75 -37.85" />
<path style="fill:none;stroke-width:1.5;stroke-linecap:round;stroke-linejoin:round;stroke-miterlimit:3;stroke:#FF0000;stroke-opacity:1" d="M6.4,-37.2L6.4 -36.9L6.4 -36.6M1.45,-33.1L1.7 -33.2L2 -33.2" />
<path style="fill:none;stroke-width:1.5;stroke-linecap:round;stroke-linejoin:round;stroke-miterlimit:3;stroke:#FFFFFF;stroke-opacity:1" d="M6.1,-33.8L6.1 -33.15L6.1 -32.85M4.5,-32.8L4.5 -32.2L4.5 -31.85M1.7,-31L1.7 -30.05" />
<path style="fill:none;stroke-width:1.5;stroke-linecap:round;stroke-linejoin:round;stroke-miterlimit:3;stroke:#CCCCCC;stroke-opacity:1" d="M1.7,-35.7L3.1 -35.95" />
</g>
</svg>
