<?xml version="1.0" encoding="utf-8"?>
<svg version="1.1" id="Layer_1"
xmlns="http://www.w3.org/2000/svg"
xmlns:xlink="http://www.w3.org/1999/xlink"
xmlns:author="http://www.sothink.com"
width="85px" height="25px"
xml:space="preserve">
<g id="1021" transform="matrix(1, 0, 0, 1, 42.2, 12.4)">
<radialGradient
id="RadialGradID_3146" gradientUnits="userSpaceOnUse" gradientTransform="matrix(0.000167847, -0.021347, 0.0521393, 0.000427246, 0.15, 0)" spreadMethod ="pad" cx="0" cy="0" r="819.2" fx="0" fy="0" >
<stop  offset="0"  style="stop-color:#FFC8C8;stop-opacity:1" />
<stop  offset="0.113725"  style="stop-color:#FE0505;stop-opacity:1" />
<stop  offset="1"  style="stop-color:#FFFFFF;stop-opacity:0" />
</radialGradient>
<path style="fill:url(#RadialGradID_3146) " d="M41.75,-9L41.75 8.95Q41.75 10.25 40.85 11.1Q40 12 38.8 12.05L-38.55 12.05Q-39.8 12 -40.7 11.1Q-41.55 10.25 -41.55 8.95L-41.55 -9Q-41.55 -10.3 -40.7 -11.2Q-39.8 -12.05 -38.55 -12.05L38.8 -12.05Q40 -12.05 40.85 -11.2Q41.75 -10.3 41.75 -9" />
<path style="fill:#FF0000;fill-opacity:0.101961" d="M41.7,8.95Q41.7 10.15 40.2 11.05Q38.8 11.9 36.7 11.95L-36.7 11.95Q-38.8 11.9 -40.25 11.05Q-41.7 10.15 -41.7 8.95L-41.7 -8.9Q-41.7 -10.15 -40.25 -11.05Q-38.8 -11.9 -36.7 -11.9L36.7 -11.9Q38.8 -11.9 40.2 -11.05Q41.7 -10.15 41.7 -8.9L41.7 8.95" />
<path style="fill:none;stroke-width:1;stroke-linecap:round;stroke-linejoin:round;stroke-miterlimit:3;stroke:#444444;stroke-opacity:1" d="M41.7,-8.9Q41.7 -10.15 40.2 -11.05Q38.8 -11.9 36.7 -11.9L-36.7 -11.9Q-38.8 -11.9 -40.25 -11.05Q-41.7 -10.15 -41.7 -8.9L-41.7 8.95Q-41.7 10.15 -40.25 11.05Q-38.8 11.9 -36.7 11.95" />
<path style="fill:none;stroke-width:1;stroke-linecap:round;stroke-linejoin:round;stroke-miterlimit:3;stroke:#FCE7FE;stroke-opacity:1" d="M-36.7,11.95L36.7 11.95Q38.8 11.9 40.2 11.05Q41.7 10.15 41.7 8.95L41.7 -8.9" />
</g>
</svg>
