<?xml version="1.0" encoding="utf-8"?>
<svg version="1.1" id="Layer_1"
xmlns="http://www.w3.org/2000/svg"
xmlns:xlink="http://www.w3.org/1999/xlink"
xmlns:author="http://www.sothink.com"
width="52px" height="39px"
xml:space="preserve">
<g id="285" transform="matrix(1, 0, 0, 1, 24, 27.5)">
<path style="fill:#A3693B;fill-opacity:1" d="M22.55,-13.25L22.7 -13.2L22.6 -13.15L22.55 -13.25" />
<path style="fill:#BB7648;fill-opacity:1" d="M-21.4,-16.3L-1.25 -25.75L22.55 -13.25L22.6 -13.15L10.6 -7.6L8 -6.45L7.95 -6.45L7.7 -6.35L7.65 -6.35L7.35 -6.2L5.3 -5.25L4.25 -4.75L4.25 -5L3.95 -5L3.9 -5.45L3.9 -6L3.9 -6.15L3.85 -6.4L3.8 -7.5L3.8 -7.9L3.65 -7.9L0.85 -7.9L0.8 -7.9L0.8 -6.15L0.8 -5.4L0.8 -5.25L0.8 -5L0.1 -5L-5 -7.7L-21.4 -16.3M20.25,-1.25L20.2 -1.25L20.05 -1.4L19.95 -1.55L20.25 -1.4L20.25 -1.25" />
<path style="fill:#614B49;fill-opacity:1" d="M23.15,-1.95L23.7 -1.75L25.25 -1.5L26.85 -1.75L27.3 -1.95L27.35 2.1L27.45 2.25L26.8 2.7L25.4 2.9L25.2 2.9L23.65 2.7L23.15 2.5L23 2.25L23.05 2.1L23.05 1.75L23.15 -1.95" />
<path style="fill:#666666;fill-opacity:0.4" d="M7.35,-6.2L7.65 -6.35L7.7 -6.35L6.4 -5.75L5.3 -5.25L7.35 -6.2M0.8,-5.4L0.8 -6.15L0.8 -7.9L0.85 -7.9L3.65 -7.9L3.8 -7.9L3.8 -7.5L3.85 -6.4L3.9 -6.15L3.9 -6L3.9 -5.45L3.95 -5L4.25 -5L4.25 -4.75L4.25 -1.75L10.75 -4.7L23.05 1.75L23.05 2.1L23 2.25L23.15 2.5L5.95 10.4L5.4 10.4L5.4 10.5L5.7 10.5L3.7 11.4L-19.75 -0.9L-19.85 -0.85L-5 -7.7L0.1 -5L0.8 -5L0.8 -5.25L0.8 -5.4M7.7,-0.3L6.1 0.45L6.1 0.5L7.7 -0.25L7.7 -0.3M2.25,10.3L2.25 10.1L1.95 9.95L2.05 10.1L2.2 10.25L2.25 10.3" />
<linearGradient
id="LinearGradID_1066" gradientUnits="userSpaceOnUse" gradientTransform="matrix(-0.0336914, 0, 0, 0.0340424, -0.1, -18.7)" spreadMethod ="pad" x1="-819.2" y1="0" x2="819.2" y2="0" >
<stop  offset="0" style="stop-color:#BFB1A2;stop-opacity:1" />
<stop  offset="0.498039" style="stop-color:#DDD8D3;stop-opacity:1" />
<stop  offset="0.988235" style="stop-color:#BFB1A2;stop-opacity:1" />
</linearGradient>
<path style="fill:url(#LinearGradID_1066) " d="M8.25,-6.55L8.6 -6.7L8.85 -6.8L9.15 -6.9L9.2 -6.95L9.5 -7.1L10.6 -7.6L22.6 -13.15L22.7 -13.2L22.55 -13.25L23.4 -13.5Q24.8 -13.45 25.8 -12.4Q26.85 -11.3 26.8 -9.55L26.8 -2.65L26.95 -2.6L27.35 -2.35L27.4 -2.35L27.5 -2.15L27.3 -1.95L26.85 -1.75L25.25 -1.5L23.7 -1.75L23.15 -1.95L23.05 -2.15L23.1 -2.35L23.7 -2.65L23.75 -2.65L23.8 -2.65L23.8 -9.85L23.8 -10.65L22.95 -10.3L10.75 -4.7L4.25 -1.75L4.25 -4.75L5.3 -5.25L6.4 -5.75L7.7 -6.35L7.95 -6.45L8 -6.45L8.25 -6.55" />
<linearGradient
id="LinearGradID_1067" gradientUnits="userSpaceOnUse" gradientTransform="matrix(-0.00109863, 0, 0, 0.0246887, 25.9, -15.5)" spreadMethod ="pad" x1="-819.2" y1="0" x2="819.2" y2="0" >
<stop  offset="0" style="stop-color:#BFB1A2;stop-opacity:1" />
<stop  offset="0.498039" style="stop-color:#E4E1DE;stop-opacity:1" />
<stop  offset="0.988235" style="stop-color:#C7BBAD;stop-opacity:1" />
</linearGradient>
<path style="fill:url(#LinearGradID_1067) " d="M7.7,-0.25L6.1 0.5L6.1 0.45L7.7 -0.3L7.7 -0.25" />
<linearGradient
id="LinearGradID_1068" gradientUnits="userSpaceOnUse" gradientTransform="matrix(-0.000701904, 0.0012207, 0.00338745, 0.00193787, 18.85, -13)" spreadMethod ="pad" x1="-819.2" y1="0" x2="819.2" y2="0" >
<stop  offset="0" style="stop-color:#BFB1A2;stop-opacity:1" />
<stop  offset="0.498039" style="stop-color:#E4E1DE;stop-opacity:1" />
<stop  offset="0.988235" style="stop-color:#C7BBAD;stop-opacity:1" />
</linearGradient>
<path style="fill:url(#LinearGradID_1068) " d="M22.95,-10.3L23.8 -10.65L23.8 -9.85L22.95 -10.3" />
<linearGradient
id="LinearGradID_1069" gradientUnits="userSpaceOnUse" gradientTransform="matrix(-0.0138092, 0, 0, 0.00653076, -12.6, -21.65)" spreadMethod ="pad" x1="-819.2" y1="0" x2="819.2" y2="0" >
<stop  offset="0" style="stop-color:#BFB1A2;stop-opacity:1" />
<stop  offset="0.498039" style="stop-color:#E4E1DE;stop-opacity:1" />
<stop  offset="0.988235" style="stop-color:#C7BBAD;stop-opacity:1" />
</linearGradient>
<path style="fill:url(#LinearGradID_1069) " d="M-23.35,-17.35L-23.5 -17.4L-23.5 -18.4L-23.25 -18.5L-22.3 -18.85L-22.05 -18.95L-21.8 -19.05L-21.7 -19.1L-21.45 -19.25L-4.3 -27Q-2.75 -27.15 -1.25 -25.75L-21.4 -16.3L-23.35 -17.35" />
<linearGradient
id="LinearGradID_1070" gradientUnits="userSpaceOnUse" gradientTransform="matrix(-0.000701904, 0.0012207, 0.00338745, 0.00193787, -21.9, -7.25)" spreadMethod ="pad" x1="-819.2" y1="0" x2="819.2" y2="0" >
<stop  offset="0" style="stop-color:#BFB1A2;stop-opacity:1" />
<stop  offset="0.498039" style="stop-color:#E4E1DE;stop-opacity:1" />
<stop  offset="0.988235" style="stop-color:#C7BBAD;stop-opacity:1" />
</linearGradient>
<path style="fill:url(#LinearGradID_1070) " d="M-22.05,-7.9L-22.15 -7.9L-22.15 -9.55L-21.8 -9.4L-22.05 -9.4L-22.05 -7.9" />
<linearGradient
id="LinearGradID_1071" gradientUnits="userSpaceOnUse" gradientTransform="matrix(-0.000701904, 0.0012207, 0.00338745, 0.00193787, -9.7, -7.8)" spreadMethod ="pad" x1="-819.2" y1="0" x2="819.2" y2="0" >
<stop  offset="0" style="stop-color:#BFB1A2;stop-opacity:1" />
<stop  offset="0.498039" style="stop-color:#E4E1DE;stop-opacity:1" />
<stop  offset="0.988235" style="stop-color:#C7BBAD;stop-opacity:1" />
</linearGradient>
<path style="fill:url(#LinearGradID_1071) " d="M-8.55,-6.65L-8.55 -6.6L-11.35 -8.05L-11.35 -8.1L-8.55 -6.65" />
<linearGradient
id="LinearGradID_1072" gradientUnits="userSpaceOnUse" gradientTransform="matrix(-0.000701904, 0.0012207, 0.00338745, 0.00193787, -13.75, -9.9)" spreadMethod ="pad" x1="-819.2" y1="0" x2="819.2" y2="0" >
<stop  offset="0" style="stop-color:#BFB1A2;stop-opacity:1" />
<stop  offset="0.498039" style="stop-color:#E4E1DE;stop-opacity:1" />
<stop  offset="0.988235" style="stop-color:#C7BBAD;stop-opacity:1" />
</linearGradient>
<path style="fill:url(#LinearGradID_1072) " d="M-18.65,-11.75L-18.55 -11.8L-11.35 -8.1L-11.35 -8.05L-18.65 -11.75" />
<path style="fill:none;stroke-width:1;stroke-linecap:round;stroke-linejoin:round;stroke-miterlimit:3;stroke:#000000;stroke-opacity:1" d="M4.25,-1.75L10.75 -4.7L22.95 -10.3L23.8 -10.65L23.8 -9.85L23.8 -2.65L23.75 -2.65L23.7 -2.65L23.1 -2.35L23.05 -2.15L23.15 -1.95L23.7 -1.75L25.25 -1.5L26.85 -1.75L27.3 -1.95L27.5 -2.15L27.4 -2.35L27.35 -2.35L26.95 -2.6L26.8 -2.65L26.8 -9.55Q26.85 -11.3 25.8 -12.4Q24.8 -13.45 23.4 -13.5L22.55 -13.25L22.7 -13.2L22.6 -13.15L10.6 -7.6L9.5 -7.1L9.2 -6.95L9.15 -6.9L8.85 -6.8L8.6 -6.7L8.25 -6.55L8 -6.45L7.95 -6.45L7.7 -6.35L6.4 -5.75L5.3 -5.25L4.25 -4.75M8,-6.45L10.6 -7.6M7.95,-6.45L7.7 -6.35L7.65 -6.35L7.35 -6.2L6.4 -5.75M23.15,2.5L23 2.25L23.05 2.1L23.05 1.75M22.55,-13.25L-1.25 -25.75L-21.4 -16.3L-21.65 -16.2L-23.35 -17.35M22.95,-10.3L23.8 -9.85M26.95,-2.6L26.85 -2.65L26.8 -2.65M23.15,2.5L23.65 2.7L25.2 2.9L25.4 2.9L26.8 2.7L27.45 2.25L27.35 2.1L27.3 -1.95M23.15,-1.95L23.05 1.75M-1.25,-25.75Q-2.75 -27.15 -4.3 -27L-21.45 -19.25L-21.7 -19.1L-21.8 -19.05L-22.05 -18.95L-22.3 -18.85L-23.25 -18.5L-23.5 -18.4M-23.5,-17.4L-23.35 -17.35" />
<path style="fill:none;stroke-width:1;stroke-linecap:round;stroke-linejoin:round;stroke-miterlimit:3;stroke:#BB7648;stroke-opacity:1" d="M3.9,-6L1.85 -6L0.85 -6.9L0.85 -7.9L4 -8.15L4 -7.5L3.8 -7.5L3.4 -7.5L3.5 -7.5L3.75 -7.4L3.85 -6.4L3.25 -6.4L2.6 -6.85L2.4 -7L2.35 -7L2.1 -7.5L2 -7.4L1.6 -7M0.8,-6.15L0.1 -6.65L0.05 -7.15M0.8,-6.15L1.55 -5.25L3.9 -5.45M3.65,-7.9L2.85 -7.15L2.6 -6.85M1.55,-5.25L0.85 -5.15L0.8 -5.25M0.8,-5.4L0.75 -5.25L0.8 -5.25" />
</g>
</svg>
