<?xml version="1.0" encoding="utf-8"?>
<svg version="1.1" id="Layer_1"
xmlns="http://www.w3.org/2000/svg"
xmlns:xlink="http://www.w3.org/1999/xlink"
xmlns:author="http://www.sothink.com"
width="177px" height="138px"
xml:space="preserve">
<g id="244" transform="matrix(1, 0, 0, 1, 58.6, 78.55)">
<path style="fill:#804000;fill-opacity:1" d="M73,10.95L77.35 13.15L77.4 13.15L113.2 -4.8L113.2 38.65L73 58.75L73 10.95" />
<path style="fill:none;stroke-width:0.5;stroke-linecap:round;stroke-linejoin:round;stroke-miterlimit:3;stroke:#666666;stroke-opacity:1" d="M113.2,-4.8L113.2 38.65L73 58.75L73 10.95" />
<path style="fill:#804000;fill-opacity:1" d="M95.5,-12.3L117.65 -5.4L73.45 16.75L95.5 -12.3" />
<linearGradient
id="LinearGradID_722" gradientUnits="userSpaceOnUse" gradientTransform="matrix(1, 0, 0, 1, -28.75, -12.2)" spreadMethod ="pad" x1="-819.2" y1="0" x2="819.2" y2="0" >
<stop  offset="0.137255" style="stop-color:#924201;stop-opacity:1" />
<stop  offset="1" style="stop-color:#999999;stop-opacity:1" />
</linearGradient>
<path style="fill:url(#LinearGradID_722) " d="M-36.25,-78.3L-14.1 -72.95L117.65 -5.4L95.5 -12.3L-36.25 -78.3" />
<linearGradient
id="LinearGradID_723" gradientUnits="userSpaceOnUse" gradientTransform="matrix(0.233826, 0, 0, 1, 29.6, 13.1)" spreadMethod ="pad" x1="-819.2" y1="0" x2="819.2" y2="0" >
<stop  offset="0.137255" style="stop-color:#924201;stop-opacity:1" />
<stop  offset="1" style="stop-color:#999999;stop-opacity:1" />
</linearGradient>
<path style="fill:url(#LinearGradID_723) " d="M95.5,-12.3L73.45 16.75L73.4 16.75L-36.25 -38.2L-58.35 -49.3L-58.35 -50L-36.25 -78.3L95.5 -12.3" />
<path style="fill:none;stroke-width:0.5;stroke-linecap:round;stroke-linejoin:round;stroke-miterlimit:3;stroke:#666666;stroke-opacity:1" d="M-58.35,-50L-36.25 -78.3L-14.1 -72.95L117.65 -5.4L73.45 16.75M73.4,16.75L-36.25 -38.2L-58.35 -49.3M117.65,-5.4L95.5 -12.3L73.45 16.75M95.5,-12.3L-36.25 -78.3" />
</g>
</svg>
