<?xml version="1.0" encoding="utf-8"?>
<svg version="1.1" id="Layer_1"
xmlns="http://www.w3.org/2000/svg"
xmlns:xlink="http://www.w3.org/1999/xlink"
xmlns:author="http://www.sothink.com"
width="47px" height="89px"
xml:space="preserve">
<g id="106" transform="matrix(1, 0, 0, 1, 45, 66.1)">
<path style="fill:#000000;fill-opacity:0.0941176" d="M-45,2.45L-40 -0.05L0 20L-5 22.5L-45 2.45" />
<path style="fill:#4E3123;fill-opacity:1" d="M1.3,-45.65L1.3 -44.9L1.3 19.35L0 20L0 -44.25L0 -45L0.55 -45.25L1.3 -45.65" />
<path style="fill:#704532;fill-opacity:1" d="M-7.95,-48.2L-7.95 -48.95L-7.9 -48.95L0 -45L0 -44.25L-7.95 -48.2M-25.05,-57.5L-25.1 -57.5L-25.1 -45.15Q-25.3 -51.75 -26.45 -57.35L-31.8 -60L-30.8 -60.65L-24.45 -57.8L-25.05 -57.5" />
<path style="fill:#6A4331;fill-opacity:1" d="M-16.45,-53.2L-17.35 -53.65L-25.05 -57.5L-24.45 -57.8L-23.75 -58.15L-15.2 -53.85L-6.6 -49.6L-6.6 -49.55L-6.6 -48.85L0.55 -45.25L0 -45L-7.9 -48.95L-7.95 -48.95L-16.45 -53.2M-33,-61.45L-40 -64.95L-38.7 -65.6L-30.8 -61.65L-32.1 -61L-33 -61.45" />
<path style="fill:#9C8363;fill-opacity:1" d="M-7.95,16L-17.4 11.3L-24.1 7.9L-25.15 7.4L-33.05 3.45L-40 -0.05L-40 -64.95L-33 -61.45L-32.1 -61L-33 -60.6L-31.8 -60L-26.45 -57.35Q-25.3 -51.75 -25.1 -45.15L-25.1 -57.5L-25.05 -57.5L-17.35 -53.65L-16.45 -53.2L-7.95 -48.95L-7.9 -48.95L-7.95 -48.95L-7.95 -48.2L0 -44.25L0 20L-7.95 16M-18.8,-35.2Q-18.8 -36 -19.4 -36.9L-20.8 -38.15L-22.25 -38.35Q-22.8 -38 -22.8 -37.2Q-22.8 -36.35 -22.25 -35.55Q-21.65 -34.6 -20.8 -34.2L-19.4 -34.1Q-18.8 -34.35 -18.8 -35.2" />
<path style="fill:none;stroke-width:1;stroke-linecap:round;stroke-linejoin:round;stroke-miterlimit:3;stroke:#754F35;stroke-opacity:1" d="M0,-44.25L1.3 -44.9M-6.6,-49.6L-7.9 -48.95L-7.95 -48.95L-7.95 -48.2M0,-44.25L0 20M-7.9,-48.95L-7.95 -48.95M-30.8,-61.65L-30.8 -60.65M-30.8,-61.65L-32.1 -61L-33 -60.6L-31.8 -60L-30.8 -60.65M-26.45,-57.35Q-25.3 -51.75 -25.1 -45.15L-25.1 -57.5L-25.05 -57.5L-24.45 -57.8M-33,-60.6L-33.05 3.45M-24.1,7.9L-25.15 7.4L-25.15 -11.15Q-26.1 -16.95 -25.85 -26.85L-25.1 -44.55L-25.1 -45.15M-33,-60.6L-33 -61.45M-40,-64.95L-40 -0.05M-32.1,-61L-33 -61.45M-25.1,-57.5L-25.05 -57.5M-17.35,-52.8L-17.35 -53.65L-16.45 -53.2L-15.2 -53.85M-16.45,-53.2L-17.35 -52.8L-17.4 -18.15L-17.4 -18.05Q-16.25 -4.9 -17.4 3.35L-17.4 11.3M-7.95,16L-7.95 -48.2M-19.4,-34.1L-20.8 -34.2Q-21.65 -34.6 -22.25 -35.55Q-22.8 -36.35 -22.8 -37.2Q-22.8 -38 -22.25 -38.35L-20.8 -38.15L-19.4 -36.9Q-18.8 -36 -18.8 -35.2Q-18.8 -34.35 -19.4 -34.1M-25.1,-44.55L-25.1 -43.25L-25.15 -11.15M-17.4,3.35L-17.4 -18.05" />
<path style="fill:none;stroke-width:1;stroke-linecap:round;stroke-linejoin:round;stroke-miterlimit:3;stroke:#613D2C;stroke-opacity:1" d="M-40,-0.05L-33.05 3.45L-25.15 7.4M-17.4,11.3L-7.95 16M-17.4,11.3L-24.1 7.9M0,20L-7.95 16" />
<path style="fill:none;stroke-width:1;stroke-linecap:round;stroke-linejoin:round;stroke-miterlimit:3;stroke:#8E755B;stroke-opacity:1" d="M-34.2,-54.35L-34.2 -57.6M-18.55,-53.35L-18.55 -50.2M-9.55,-45.65L-9.55 -26.55M-38.7,-8.5L-38.7 -4.25M-6.55,-11.65L-6.55 -15M-16.2,-19.2L-16.2 -23.95M-31.3,-51.2L-31.3 -44.2M-24.1,7.9L-24.1 -5.5M-1.8,5.1L-1.8 -9.25" />
<path style="fill:none;stroke-width:1;stroke-linecap:round;stroke-linejoin:round;stroke-miterlimit:3;stroke:#895A3D;stroke-opacity:1" d="M-7.95,-48.2L0 -44.25M-31.8,-60L-26.45 -57.35M-33,-61.45L-40 -64.95M-25.05,-57.5L-17.35 -53.65M-7.95,-48.95L-16.45 -53.2" />
<path style="fill:none;stroke-width:1;stroke-linecap:round;stroke-linejoin:round;stroke-miterlimit:3;stroke:#413A30;stroke-opacity:1" d="M0,20L1.3 19.35L1.3 -44.9L0.55 -45.25L-6.6 -48.85L-6.6 -49.55M-40,-64.95L-38.7 -65.6L-30.8 -61.65M-30.8,-60.65L-24.45 -57.8L-23.75 -58.15L-15.2 -53.85L-6.6 -49.6" />
<path style="fill:#9C8363;fill-opacity:1" d="M-40.55,-7.7Q-42.2 -11.55 -40.55 -14.8L0 5.45Q-0.95 9.2 0 12.55L-40.55 -7.7M-40.55,-47.7Q-42.2 -51.55 -40.55 -54.8L0 -34.55Q-0.95 -30.8 0 -27.45L-40.55 -47.7" />
<path style="fill:none;stroke-width:1;stroke-linecap:round;stroke-linejoin:round;stroke-miterlimit:3;stroke:#8E755B;stroke-opacity:1" d="M-40.55,-7.7Q-42.2 -11.55 -40.55 -14.8M-40.55,-47.7Q-42.2 -51.55 -40.55 -54.8M-40,-52.25L-4.05 -34.5M-39.05,-12L-4.55 4.95" />
<path style="fill:none;stroke-width:1;stroke-linecap:round;stroke-linejoin:round;stroke-miterlimit:3;stroke:#754F35;stroke-opacity:1" d="M-40.55,-14.8L0 5.45Q-0.95 9.2 0 12.55M-40.55,-54.8L0 -34.55Q-0.95 -30.8 0 -27.45" />
<path style="fill:none;stroke-width:1;stroke-linecap:round;stroke-linejoin:round;stroke-miterlimit:3;stroke:#A98F78;stroke-opacity:1" d="M-23,-2.75L-25.15 -3.75M-29,-3.25Q-29.1 -5.25 -27.55 -3.2M-33,-46Q-33.9 -48.65 -36 -47.75Q-35.3 -46 -33 -46M-3.5,9.5L-5.5 8" />
<path style="fill:none;stroke-width:1;stroke-linecap:round;stroke-linejoin:round;stroke-miterlimit:3;stroke:#6C503E;stroke-opacity:1" d="M-12,4.5L-12.25 4.25" />
<path style="fill:none;stroke-width:1;stroke-linecap:round;stroke-linejoin:round;stroke-miterlimit:3;stroke:#613D2C;stroke-opacity:1" d="M0,12.55L-40.55 -7.7M0,-27.45L-40.55 -47.7" />
</g>
</svg>
