<?xml version="1.0" encoding="utf-8"?>
<svg version="1.1" id="Layer_1"
xmlns="http://www.w3.org/2000/svg"
xmlns:xlink="http://www.w3.org/1999/xlink"
xmlns:author="http://www.sothink.com"
width="264px" height="175px"
xml:space="preserve">
<g id="625" transform="matrix(1, 0, 0, 1, 23.7, 127.05)">
<linearGradient
id="LinearGradID_2555" gradientUnits="userSpaceOnUse" gradientTransform="matrix(-0.014679, 7.62939e-005, 0.000366211, 0.0868988, 181.65, -93.7)" spreadMethod ="pad" x1="-819.2" y1="0" x2="819.2" y2="0" >
<stop  offset="0" style="stop-color:#848484;stop-opacity:1" />
<stop  offset="0.14902" style="stop-color:#B5B5B5;stop-opacity:1" />
<stop  offset="0.219608" style="stop-color:#B3B3B3;stop-opacity:1" />
<stop  offset="0.682353" style="stop-color:#CDCDCD;stop-opacity:1" />
<stop  offset="1" style="stop-color:#CBCBCB;stop-opacity:1" />
</linearGradient>
<path style="fill:url(#LinearGradID_2555) " d="M169.2,20.75L169.1 -9L196.25 -9L196.35 13.65L196.35 16.35L196.35 19L193.4 25Q191.6 23.15 189.5 22.2L188.75 21.85L186.4 21.1L184.2 20.95Q181.2 20.95 178.3 21.95L177.8 22.1Q176.15 22.7 174.55 23.65L174.35 23.8L173.75 24.15L169.25 21.9L169.2 20.75" />
<path style="fill:#8A5B3C;fill-opacity:1" d="M196.35,13.65Q197.85 13.8 199.55 14.6Q204.35 16.85 207.75 22.7L208.55 24.15L209.95 27.4Q211.15 30.95 211.2 34.5Q211.15 40.2 208.05 42.85L207.75 43.1Q204.75 45.4 200.7 43.95L204.4 41.95L205.95 41.25L206.35 40.95L206.6 40.75L208.05 38.95Q209.15 36.9 209.2 33.8Q209.15 30.8 208.2 27.9L208 27.4L206.45 24.15L206.35 23.95Q203.5 19.05 199.5 17.2Q197.8 16.4 196.35 16.35L196.35 13.65" />
<linearGradient
id="LinearGradID_2556" gradientUnits="userSpaceOnUse" gradientTransform="matrix(0.00657654, 0.0131378, 0.0778198, -0.0389252, 84.25, 87.7)" spreadMethod ="pad" x1="-819.2" y1="0" x2="819.2" y2="0" >
<stop  offset="0" style="stop-color:#848484;stop-opacity:1" />
<stop  offset="0.14902" style="stop-color:#B5B5B5;stop-opacity:1" />
<stop  offset="0.219608" style="stop-color:#B3B3B3;stop-opacity:1" />
<stop  offset="0.682353" style="stop-color:#CDCDCD;stop-opacity:1" />
<stop  offset="1" style="stop-color:#CBCBCB;stop-opacity:1" />
</linearGradient>
<path style="fill:url(#LinearGradID_2556) " d="M199.9,43.35L198.35 43.35Q199.15 41.45 199.2 38.8Q199.15 35.8 198.2 32.9L198 32.4L196.45 29.15L196.35 28.95Q195 26.6 193.4 25L196.35 19L196.35 16.35Q197.8 16.4 199.5 17.2Q203.5 19.05 206.35 23.95L206.45 24.15L208 27.4L208.2 27.9Q209.15 30.8 209.2 33.8Q209.15 36.9 208.05 38.95L206.6 40.75L204.4 41.95L200.7 43.95L199.9 44.35L199.9 43.8L199.9 43.35" />
<linearGradient
id="LinearGradID_2557" gradientUnits="userSpaceOnUse" gradientTransform="matrix(-0.006073, 0.00816345, -0.0129852, -0.00964355, 200.7, 33.5)" spreadMethod ="pad" x1="-819.2" y1="0" x2="819.2" y2="0" >
<stop  offset="0" style="stop-color:#848484;stop-opacity:1" />
<stop  offset="0.14902" style="stop-color:#B5B5B5;stop-opacity:1" />
<stop  offset="0.219608" style="stop-color:#B3B3B3;stop-opacity:1" />
<stop  offset="0.682353" style="stop-color:#CDCDCD;stop-opacity:1" />
<stop  offset="1" style="stop-color:#CBCBCB;stop-opacity:1" />
</linearGradient>
<path style="fill:url(#LinearGradID_2557) " d="M198.05,43.95L197.85 44.3L184.3 47.5L181.3 47.05Q176.65 46 173.35 43.4L173.3 43.35L173.1 43.15L172.3 41.65Q171.45 40.05 170.9 38.4Q169.8 35.2 169.7 32L169.7 31.3Q169.7 30.1 169.85 29.05L169.2 29.35L169.2 28.05L170.4 26.75Q171.8 25.35 173.75 24.15L174.35 23.8L174.55 23.65Q176.15 22.7 177.8 22.1L178.3 21.95Q181.2 20.95 184.2 20.95L186.4 21.1L188.75 21.85L189.5 22.2Q191.6 23.15 193.4 25Q195 26.6 196.35 28.95L196.45 29.15L198 32.4L198.2 32.9Q199.15 35.8 199.2 38.8Q199.15 41.45 198.35 43.35L198.05 43.95" />
<path style="fill:#CBCBCB;fill-opacity:1" d="M169.25,21.9L173.75 24.15Q171.8 25.35 170.4 26.75L169.2 28.05L169.2 21.9L169.25 21.9" />
<linearGradient
id="LinearGradID_2558" gradientUnits="userSpaceOnUse" gradientTransform="matrix(0.00657654, 0.00622559, 0.0778198, -0.0184479, 84.25, 64.35)" spreadMethod ="pad" x1="-819.2" y1="0" x2="819.2" y2="0" >
<stop  offset="0" style="stop-color:#848484;stop-opacity:1" />
<stop  offset="0.14902" style="stop-color:#B5B5B5;stop-opacity:1" />
<stop  offset="0.219608" style="stop-color:#B3B3B3;stop-opacity:1" />
<stop  offset="0.682353" style="stop-color:#CDCDCD;stop-opacity:1" />
<stop  offset="1" style="stop-color:#CBCBCB;stop-opacity:1" />
</linearGradient>
<path style="fill:url(#LinearGradID_2558) " d="M198.35,43.35L199.9 43.35L199.9 43.8L197.85 44.3L198.05 43.95L198.35 43.35" />
<path style="fill:none;stroke-width:0.5;stroke-linecap:round;stroke-linejoin:round;stroke-miterlimit:3;stroke:#432914;stroke-opacity:1" d="M196.35,13.65Q197.85 13.8 199.55 14.6Q204.35 16.85 207.75 22.7L208.55 24.15L209.95 27.4Q211.15 30.95 211.2 34.5Q211.15 40.2 208.05 42.85L207.75 43.1Q204.75 45.4 200.7 43.95M196.35,16.35Q197.8 16.4 199.5 17.2Q203.5 19.05 206.35 23.95L206.45 24.15L208 27.4L208.2 27.9Q209.15 30.8 209.2 33.8Q209.15 36.9 208.05 38.95L206.6 40.75" />
<path style="fill:none;stroke-width:0.5;stroke-linecap:round;stroke-linejoin:round;stroke-miterlimit:3;stroke:#8E8E8E;stroke-opacity:1" d="M196.25,-9L196.35 13.65L196.35 16.35L196.35 19M206.6,40.75L204.4 41.95L200.7 43.95L199.9 44.35M199.9,43.8L197.85 44.3L184.3 47.5M169.85,29.05L169.2 29.35L169.2 28.05L169.2 21.9L169.2 20.75L169.1 -9M169.25,21.9L169.2 20.75" />
<path style="fill:none;stroke-width:0.5;stroke-linecap:round;stroke-linejoin:round;stroke-miterlimit:3;stroke:#56271E;stroke-opacity:1" d="M206.6,40.75L206.35 40.95L205.95 41.25L204.4 41.95" />
<path style="fill:none;stroke-width:0.5;stroke-linecap:round;stroke-linejoin:round;stroke-miterlimit:3;stroke:#9D9D9D;stroke-opacity:1" d="M184.3,47.5L181.3 47.05Q176.65 46 173.35 43.4L173.3 43.4L173.3 43.35L173.1 43.15L172.3 41.65Q171.45 40.05 170.9 38.4Q169.8 35.2 169.7 32L169.7 31.3Q169.7 30.1 169.85 29.05" />
<linearGradient
id="LinearGradID_2559" gradientUnits="userSpaceOnUse" gradientTransform="matrix(-0.00657654, 0.0131378, -0.0778198, -0.0389252, 103.45, -52.7)" spreadMethod ="pad" x1="-819.2" y1="0" x2="819.2" y2="0" >
<stop  offset="0" style="stop-color:#848484;stop-opacity:1" />
<stop  offset="0.14902" style="stop-color:#B5B5B5;stop-opacity:1" />
<stop  offset="0.219608" style="stop-color:#B3B3B3;stop-opacity:1" />
<stop  offset="0.682353" style="stop-color:#CDCDCD;stop-opacity:1" />
<stop  offset="1" style="stop-color:#CBCBCB;stop-opacity:1" />
</linearGradient>
<path style="fill:url(#LinearGradID_2559) " d="M161,-9.4L41 -69.45L-12.95 -96.45L-16.7 -98.45L-18.9 -99.65Q-21.45 -101.9 -21.45 -106.6Q-21.45 -109.6 -20.45 -112.5L-20.3 -113L-18.75 -116.25L-18.6 -116.45Q-15.8 -121.35 -11.75 -123.2Q-9.6 -124.25 -7.75 -124.05L-7.25 -123.95L-5 -122.8L-4.6 -122.65L-0.8 -120.75L-0.65 -120.65L52.65 -94L112.65 -64L172.65 -34L228.35 -6.1L228.15 -5.8Q223.35 -3.55 219.95 2.3Q218.75 4.35 217.95 6.45Q216.55 10.25 216.55 14.1Q216.55 16.75 217.2 18.7L161 -9.4" />
<path style="fill:#8A5B3C;fill-opacity:1" d="M-7.25,-123.95L-7.75 -124.05Q-9.6 -124.25 -11.75 -123.2Q-15.8 -121.35 -18.6 -116.45L-18.75 -116.25L-20.3 -113L-20.45 -112.5Q-21.45 -109.6 -21.45 -106.6Q-21.45 -101.9 -18.9 -99.65L-18.6 -99.45L-18.2 -99.15L-16.7 -98.45L-12.95 -96.45Q-17.05 -95 -20.05 -97.3Q-23.45 -99.95 -23.45 -105.9Q-23.45 -109.45 -22.25 -113L-20.85 -116.25L-20.05 -117.7Q-16.65 -123.55 -11.85 -125.8Q-9.65 -126.8 -7.75 -126.8Q-6.3 -126.85 -5 -126.25L-3.6 -125.4Q-2.3 -124.4 -1.5 -122.85L-0.7 -120.95L-0.8 -120.75L-4.6 -122.65L-4.9 -122.9L-5 -122.95L-6.45 -123.75L-7.25 -123.95M236.4,-5.4Q238.45 -3.8 239.3 -0.95L239.35 -0.65L239.4 -0.55Q239.8 1.1 239.8 3.2Q239.8 9.15 236.4 15Q232.95 20.85 228.15 23.1L227.25 23.5L227.05 23.55L226.95 23.6Q222.9 25 219.95 22.7Q218.75 21.75 217.95 20.4L217.2 18.7Q216.55 16.75 216.55 14.1Q216.55 10.25 217.95 6.45Q218.75 4.35 219.95 2.3Q223.35 -3.55 228.15 -5.8L228.6 -6Q233.1 -7.95 236.4 -5.4M228.25,-3.2Q224.2 -1.35 221.4 3.55Q218.55 8.4 218.55 13.4Q218.55 18.1 221.1 20.35L221.4 20.55L221.8 20.85Q222.5 21.3 223.3 21.55L223.4 21.55Q225.55 22.1 228.25 20.85Q232.25 19 235.1 14.15Q237.9 9.25 237.95 4.3Q237.9 -0.25 235.55 -2.5L235.4 -2.65L235.1 -2.9L233.55 -3.75L232.75 -3.95L232.5 -4Q230.55 -4.3 228.25 -3.2" />
<linearGradient
id="LinearGradID_2560" gradientUnits="userSpaceOnUse" gradientTransform="matrix(0.00700378, -0.0124664, 0.0136566, 0.00767517, 228.4, 10.5)" spreadMethod ="pad" x1="-819.2" y1="0" x2="819.2" y2="0" >
<stop  offset="0" style="stop-color:#848484;stop-opacity:1" />
<stop  offset="0.14902" style="stop-color:#B5B5B5;stop-opacity:1" />
<stop  offset="0.219608" style="stop-color:#B3B3B3;stop-opacity:1" />
<stop  offset="0.682353" style="stop-color:#CDCDCD;stop-opacity:1" />
<stop  offset="1" style="stop-color:#CBCBCB;stop-opacity:1" />
</linearGradient>
<path style="fill:url(#LinearGradID_2560) " d="M221.1,20.35Q218.55 18.1 218.55 13.4Q218.55 8.4 221.4 3.55Q224.2 -1.35 228.25 -3.2Q230.55 -4.3 232.5 -4L235.55 -2.5Q237.9 -0.25 237.95 4.3Q237.9 9.25 235.1 14.15Q232.25 19 228.25 20.85Q225.55 22.1 223.4 21.55L223.3 21.55L221.1 20.35" />
<path style="fill:none;stroke-width:0.5;stroke-linecap:round;stroke-linejoin:round;stroke-miterlimit:3;stroke:#BBBBBB;stroke-opacity:1" d="M41,-69.45Q38.55 -71.9 38.55 -76.6Q38.55 -79.85 39.7 -83L41.4 -86.45Q44.2 -91.35 48.25 -93.2Q50.65 -94.35 52.65 -94M161,-9.4Q158.55 -11.9 158.55 -16.6Q158.55 -19.85 159.7 -23L161.4 -26.45Q164.2 -31.35 168.25 -33.2Q170.65 -34.35 172.65 -34M112.65,-64Q110.65 -64.35 108.25 -63.2Q104.2 -61.35 101.4 -56.45Q100.35 -54.75 99.7 -53Q98.55 -49.85 98.55 -46.6Q98.55 -41.9 101.1 -39.65" />
<path style="fill:none;stroke-width:0.5;stroke-linecap:round;stroke-linejoin:round;stroke-miterlimit:3;stroke:#8E8E8E;stroke-opacity:1" d="M52.65,-94L-0.65 -120.65L-0.8 -120.75L-4.6 -122.65L-5 -122.8M-18.9,-99.65L-16.7 -98.45L-12.95 -96.45L41 -69.45L161 -9.4L217.2 18.7M228.6,-6L228.35 -6.1L172.65 -34L112.65 -64M52.65,-94L112.65 -64M228.6,-6L228.15 -5.8M223.3,21.55Q222.5 21.3 221.8 20.85M232.75,-3.95L235.4 -2.65L233.55 -3.75M223.3,21.55L221.1 20.35M-0.7,-120.95L-0.65 -120.65M-4.6,-122.65L-4.9 -122.9L-5 -122.95L-6.45 -123.75L-5 -122.8" />
<path style="fill:none;stroke-width:0.5;stroke-linecap:round;stroke-linejoin:round;stroke-miterlimit:3;stroke:#432914;stroke-opacity:1" d="M-7.25,-123.95L-7.75 -124.05Q-9.6 -124.25 -11.75 -123.2Q-15.8 -121.35 -18.6 -116.45L-18.75 -116.25L-20.3 -113L-20.45 -112.5Q-21.45 -109.6 -21.45 -106.6Q-21.45 -101.9 -18.9 -99.65M228.15,-5.8Q223.35 -3.55 219.95 2.3Q218.75 4.35 217.95 6.45Q216.55 10.25 216.55 14.1Q216.55 16.75 217.2 18.7L217.95 20.4Q218.75 21.75 219.95 22.7Q222.9 25 226.95 23.6L227.05 23.55L227.25 23.5L228.15 23.1Q232.95 20.85 236.4 15Q239.8 9.15 239.8 3.2Q239.8 1.1 239.4 -0.55L239.35 -0.65L239.3 -0.95Q238.45 -3.8 236.4 -5.4Q233.1 -7.95 228.6 -6M235.55,-2.5Q237.9 -0.25 237.95 4.3Q237.9 9.25 235.1 14.15Q232.25 19 228.25 20.85Q225.55 22.1 223.4 21.55L223.3 21.55M221.1,20.35Q218.55 18.1 218.55 13.4Q218.55 8.4 221.4 3.55Q224.2 -1.35 228.25 -3.2Q230.55 -4.3 232.5 -4M-12.95,-96.45Q-17.05 -95 -20.05 -97.3Q-23.45 -99.95 -23.45 -105.9Q-23.45 -109.45 -22.25 -113L-20.85 -116.25L-20.05 -117.7Q-16.65 -123.55 -11.85 -125.8Q-9.65 -126.8 -7.75 -126.8Q-6.3 -126.85 -5 -126.25L-3.6 -125.4Q-2.3 -124.4 -1.5 -122.85L-0.7 -120.95" />
<path style="fill:none;stroke-width:0.5;stroke-linecap:round;stroke-linejoin:round;stroke-miterlimit:3;stroke:#5E6AAD;stroke-opacity:1" d="M232.5,-4L232.75 -3.95L233.55 -3.75L235.1 -2.9L235.4 -2.65L235.55 -2.5M221.8,20.85L221.4 20.55L221.1 20.35M232.5,-4L235.55 -2.5" />
<path style="fill:none;stroke-width:0.5;stroke-linecap:round;stroke-linejoin:round;stroke-miterlimit:3;stroke:#56271E;stroke-opacity:1" d="M-5,-122.8L-7.25 -123.95M-18.9,-99.65L-18.6 -99.45L-18.2 -99.15L-16.7 -98.45M-6.45,-123.75L-7.25 -123.95" />
<path style="fill:#000000;fill-opacity:0.298039" d="M233.2,-6.95L236.85 -5.1Q239.65 -2.45 239.7 2.95Q239.65 8.9 236.3 14.7Q232.9 20.5 228.1 22.75Q224.9 24.2 222.35 23.6L222.25 23.55L219.6 22.1Q216.55 19.45 216.55 13.8Q216.55 7.85 219.95 2.05Q223.3 -3.75 228.1 -6Q230.9 -7.3 233.2 -6.95" />
<path style="fill:#714A31;fill-opacity:1" d="M10.5,-100.2L10.5 -100.4L35.1 -112.7L40 -110.25L40 -110.15L15.5 -97.9L15.35 -97.8L10.5 -100.2" />
<path style="fill:#8A5B3C;fill-opacity:1" d="M15.5,-75.4L10.5 -77.9L10.5 -100.2L15.35 -97.8L15.5 -97.7L15.5 -80.4L15.5 -75.4" />
<path style="fill:#754E33;fill-opacity:1" d="M15.5,-80.4L17.2 -81.25L22.15 -78.7L15.5 -75.4L15.5 -80.4" />
<path style="fill:none;stroke-width:0.5;stroke-linecap:round;stroke-linejoin:round;stroke-miterlimit:3;stroke:#674D34;stroke-opacity:1" d="M15.35,-97.8L15.5 -97.9L40 -110.15L40 -110.25L35.1 -112.7L10.5 -100.4L10.5 -100.2L15.35 -97.8L15.5 -97.7L15.5 -97.9M22.15,-78.7L15.5 -75.4L10.5 -77.9L10.5 -100.2L10.35 -100.3L10.5 -100.4M40,-110.15L40.1 -110.2L40 -110.25M15.5,-97.7L15.5 -80.4L17.2 -81.25M15.5,-80.4L15.5 -75.4" />
<path style="fill:#714A31;fill-opacity:1" d="M70.5,-70.4L95.1 -82.7L100 -80.25L100 -80.15L75.5 -67.9L75.35 -67.8L70.5 -70.2L70.5 -70.4" />
<path style="fill:#8A5B3C;fill-opacity:1" d="M75.5,-45.4L70.5 -47.9L70.5 -70.2L75.35 -67.8L75.5 -67.7L75.5 -50.4L75.5 -45.4" />
<path style="fill:#754E33;fill-opacity:1" d="M75.5,-45.4L75.5 -50.4L77.2 -51.25L82.15 -48.7L75.5 -45.4" />
<path style="fill:none;stroke-width:0.5;stroke-linecap:round;stroke-linejoin:round;stroke-miterlimit:3;stroke:#674D34;stroke-opacity:1" d="M75.5,-50.4L75.5 -67.7L75.35 -67.8L70.5 -70.2L70.5 -47.9L75.5 -45.4L75.5 -50.4L77.2 -51.25M82.15,-48.7L75.5 -45.4M75.35,-67.8L75.5 -67.9L75.5 -67.7M75.5,-67.9L100 -80.15L100 -80.25L95.1 -82.7L70.5 -70.4L70.5 -70.2L70.35 -70.3L70.5 -70.4M100,-80.15L100.1 -80.2L100 -80.25" />
<path style="fill:#714A31;fill-opacity:1" d="M160,-50.15L135.5 -37.9L135.35 -37.8L130.5 -40.2L130.5 -40.4L155.1 -52.7L160 -50.25L160 -50.15" />
<path style="fill:#8A5B3C;fill-opacity:1" d="M135.5,-15.4L130.5 -17.9L130.5 -40.2L135.35 -37.8L135.5 -37.7L135.5 -20.4L135.5 -15.4" />
<path style="fill:#754E33;fill-opacity:1" d="M135.5,-20.4L137.2 -21.25Q139.7 -19.95 142.15 -18.7L135.5 -15.4L135.5 -20.4" />
<path style="fill:none;stroke-width:0.5;stroke-linecap:round;stroke-linejoin:round;stroke-miterlimit:3;stroke:#674D34;stroke-opacity:1" d="M142.15,-18.7L135.5 -15.4L130.5 -17.9L130.5 -40.2L130.35 -40.3L130.5 -40.4L155.1 -52.7L160 -50.25L160.1 -50.2L160 -50.15L135.5 -37.9L135.5 -37.7L135.5 -20.4L137.2 -21.25M130.5,-40.4L130.5 -40.2L135.35 -37.8L135.5 -37.9M160,-50.25L160 -50.15M135.5,-37.7L135.35 -37.8M135.5,-20.4L135.5 -15.4" />
<path style="fill:#8A5B3C;fill-opacity:1" d="M190.5,12.1L190.5 -10.2L195.35 -7.8L195.5 -7.7L195.5 9.6L195.5 14.6L190.5 12.1" />
<path style="fill:#714A31;fill-opacity:1" d="M190.5,-10.4L215.1 -22.7L220 -20.25L220 -20.15L195.5 -7.9L195.35 -7.8L190.5 -10.2L190.5 -10.4" />
<path style="fill:#754E33;fill-opacity:1" d="M195.5,14.6L195.5 9.6L197.2 8.75L202.15 11.3L195.5 14.6" />
<path style="fill:none;stroke-width:0.5;stroke-linecap:round;stroke-linejoin:round;stroke-miterlimit:3;stroke:#674D34;stroke-opacity:1" d="M190.5,-10.2L195.35 -7.8L195.5 -7.9L220 -20.15L220 -20.25L215.1 -22.7L190.5 -10.4L190.5 -10.2L190.35 -10.3L190.5 -10.4M197.2,8.75L195.5 9.6L195.5 -7.7L195.35 -7.8M195.5,-7.9L195.5 -7.7M220,-20.15L220.1 -20.2L220 -20.25M195.5,9.6L195.5 14.6L202.15 11.3M190.5,-10.2L190.5 12.1L195.5 14.6" />
<path style="fill:#000000;fill-opacity:0.2" d="M40.45,-57.1L46.3 -60.05L75.75 -45.25L75.7 -44.8L75.7 -5.55L76.2 -5.3L75.75 -5.05L75.7 -4.8L70.2 -2.05L40.45 -16.95L40.45 -17.1L46.3 -20.05L69.7 -8.3L69.7 -42.05L69.95 -42.15L40.45 -56.95L40.45 -57.1" />
<path style="fill:#7E5336;fill-opacity:1" d="M67.45,-40.3L67.95 -40.55L67.5 -40.75L38.2 -55.45L38.2 -55.6L44.05 -58.55L66.1 -47.5L66.9 -47.1L66.9 -47.05L73.5 -43.75L73.45 -43.3L73.45 -3.8L73.95 -3.55L67.95 -0.55L67.45 -0.8L67.45 -40.3" />
<path style="fill:#7B5135;fill-opacity:1" d="M40.15,-17.2L40.2 -51.7L65.45 -39.05L65.45 -4.55L47.4 -13.6L41.1 -16.75L40.65 -16.95L40.2 -17.2L40.15 -17.2" />
<path style="fill:#8A5B3C;fill-opacity:1" d="M67.45,-0.8L38.2 -15.45L38.2 -15.6L38.2 -55.45L67.5 -40.75L67.45 -40.3L67.45 -0.8M40.2,-17.2L40.65 -16.95L41.1 -16.75L47.4 -13.6L65.45 -4.55L65.45 -39.05L40.2 -51.7L40.15 -17.2L40.2 -17.2" />
<path style="fill:none;stroke-width:1;stroke-linecap:round;stroke-linejoin:round;stroke-miterlimit:3;stroke:#432914;stroke-opacity:1" d="M38.2,-55.45L38.2 -55.6M38.2,-15.45L38.2 -15.6" />
<path style="fill:none;stroke-width:1;stroke-linecap:round;stroke-linejoin:round;stroke-miterlimit:3;stroke:#35291C;stroke-opacity:1" d="M38.2,-55.6L38.05 -55.55L38.2 -55.45L67.5 -40.75L67.95 -40.55L73.45 -43.3L73.5 -43.75M38.2,-55.6L44.05 -58.55L66.1 -47.5L66.9 -47.1M66.9,-47.05L73.5 -43.75L73.95 -43.55L73.45 -43.3L73.45 -3.8L73.95 -3.55L67.95 -0.55L67.45 -0.8L38.2 -15.45L38.05 -15.55L38.2 -15.6L38.2 -55.45M67.5,-40.75L67.45 -40.3L67.95 -40.55M67.45,-40.3L67.45 -0.8M66.9,-47.05L66.1 -47.5" />
<path style="fill:none;stroke-width:1;stroke-linecap:round;stroke-linejoin:round;stroke-miterlimit:3;stroke:#492E16;stroke-opacity:1" d="M40.2,-17.2L40.65 -16.95L41.1 -16.75L47.4 -13.6L65.45 -4.55L65.45 -39.05L40.2 -51.7L40.15 -17.2L40.2 -17.2z" />
<path style="fill:none;stroke-width:2;stroke-linecap:round;stroke-linejoin:round;stroke-miterlimit:3;stroke:#53331A;stroke-opacity:1" d="M43.95,-37.25L43.9 -27.75" />
</g>
</svg>
