<?xml version="1.0" encoding="utf-8"?>
<svg version="1.1" id="Layer_1"
xmlns="http://www.w3.org/2000/svg"
xmlns:xlink="http://www.w3.org/1999/xlink"
xmlns:author="http://www.sothink.com"
width="441px" height="370px"
xml:space="preserve">
<g id="192" transform="matrix(1, 0, 0, 1, 280.5, 194.5)">
<path style="fill:#D6D6D6;fill-opacity:1" d="M-279.3,-39.35L-280 -39L-280 -39.7L-279.3 -39.35M82.7,20.7L81.5 20.1L81.35 20.05L81.05 19.9L80 19.35L82.75 20.7L82.7 20.7" />
<path style="fill:#E2E0D6;fill-opacity:1" d="M-80.05,-44L-79.95 -43.95L-80.05 -43.95L-80.05 -44M-200.05,16L-199.95 16.05L-200.05 16.05L-200.05 16" />
<path style="fill:#333333;fill-opacity:1" d="M2.25,-18.9L2 -19L2 -193L4 -192L4 -18L2.25 -18.9" />
<path style="fill:#CCCCCC;fill-opacity:1" d="M101.95,-143.75L99.85 -144.6L99.85 -144.8L101.95 -143.75M75.2,-156.85L31.85 -178.4L31.85 -178.45L36.85 -175.95L36.85 -176.05L48.85 -170.1L48.85 -170L74.95 -157L76.85 -156.05L76.85 -156Q76 -156.45 75.2 -156.85M30.85,-179.1L30.85 -178.9L28.85 -179.9L28.85 -180.1L30.85 -179.1M79.8,19.2L80 19.2L79.95 19.25L79.8 19.2M80,19.3L80 19.35L79.95 19.3L79.95 19.35L79.95 19.3L80 19.3" />
<path style="fill:#999999;fill-opacity:1" d="M-279.95,120L-280 120L-279.95 120M38.65,-0.9L38.6 -0.95L38.1 -1.2L38.65 -0.9M42.75,1.1L42.3 0.9L44.85 2.1L43.85 1.65L42.75 1.1M-159.95,60L-160 60L-159.95 60" />
<path style="fill:#99CC33;fill-opacity:1" d="M-40.45,0.25L-40.35 0.2L-39.4 -0.3L-40.45 0.25L-40.6 0.55L-40.8 0.45L-40.45 0.25M-160.45,60.25L-160.35 60.2L-160 60L-159.55 59.8L-160.45 60.25L-160.6 60.55L-160.8 60.45L-160.45 60.25M-240.45,100.25L-240.35 100.2L-239.4 99.7L-240.45 100.25L-240.6 100.55L-240.8 100.45L-240.45 100.25M62.8,10.95L63.15 11.15L62.8 10.95M64.05,12L63.9 12.05L63.8 11.85L64.05 12M-3,174.8L-2.75 174.65L-2.55 175.05L-3 174.8" />
<path style="fill:#99E3F9;fill-opacity:1" d="M158.35,-29.2L159.85 -29.95L159.85 -28.45L158.35 -29.2M79.95,19.3L79.95 19.25L80 19.2L80 19.3L79.95 19.3" />
<path style="fill:#C4B004;fill-opacity:1" d="M62.85,11.1L62.8 10.95L63.15 11.15L63.1 11.2L63 11.35L63 11.4L62.95 11.45L62.85 11.2L62.85 11.1" />
<path style="fill:#9F7806;fill-opacity:1" d="M6,-17L4 -18L4 -192L6 -191L6 -49.1L6 -17M126.85,-44.85L129.85 -43.35L132.85 -41.85L132.85 42.65L130 44.1L129.85 44.15L127 42.7L126.85 42.65L126.85 42.5L126.85 16.55L79.8 -7L79.8 -12.85L95.6 -5L95.6 -5.05L90.6 -7.5L81.8 -11.9L81.2 -12.2L80.2 -12.7L80.15 -12.7L80.15 -13.85L80.15 -15.75L80.15 -15.95L95.6 -8.3L96.55 -7.8L100.85 -5.65L101.55 -5.3L106.55 -2.8L106.55 0.45L104.9 -0.35L126.85 10.55L126.85 -44.85M0.35,-19.85L0 -20L0 -52.1L0 -194L2 -193L2 -19Q1.2 -19.45 0.35 -19.85M100.6,-2.5L100.6 -2.55L100.05 -2.8L100.6 -2.5M62.85,11.2L59.9 9.65L62.85 11.1L62.85 11.2M48,3.65L50.75 5.1L48.85 4.15L48.85 4.25L41.6 0.6L42.75 1.1L43.85 1.65L44.85 2.1L48 3.65" />
<path style="fill:#ECEBDB;fill-opacity:1" d="M31.85,-178.4L75.2 -156.85Q76 -156.45 76.85 -156L99.85 -144.6L101.95 -143.75L159.9 -115L159.85 -29.95L158.35 -29.2L132.85 -41.85L129.85 -43.35L126.85 -44.85L79.8 -68.25L79.8 -12.85L76.85 -14.3L60.85 -22.25L60.8 -22.3Q56.35 -24.5 51.85 -26.75L48.85 -28.2L45.8 -29.75L32.95 -36.15L28.85 -38.15L28.85 -37.75L20 -42.15Q19.3 -42.5 18.65 -42.8L14.65 -44.8L6 -49.1L6 -191Q17.45 -185.3 28.85 -179.65L28.85 -179.9L30.85 -178.9L31.85 -178.4" />
<path style="fill:#D1D0A7;fill-opacity:1" d="M44.85,2.1L42.3 0.9L38.65 -0.9L38.1 -1.2L6 -17L6 -49.1L14.65 -44.8L18.65 -42.8Q19.3 -42.5 20 -42.15L28.85 -37.75L28.85 -38.15L32.95 -36.15L45.8 -29.75L48.85 -28.2L51.85 -26.75Q56.35 -24.5 60.8 -22.3L60.85 -22.25L76.85 -14.3L79.8 -12.85L79.8 -7L126.85 16.55L126.85 42.5L80 19.2L79.8 19.2L79.15 18.9L48 3.65L44.85 2.1" />
<path style="fill:#CFCAA5;fill-opacity:1" d="M-74.2,-15.15L-74 -15.25L-74 -15.85L-71.05 -17.3L-55.05 -25.25L-55 -25.3L-46.05 -29.75L-43.05 -31.2L-40 -32.75L-23.05 -41.15L-23.05 -40.75L-19 -42.75L-14.2 -45.15L-12.85 -45.8L-8.8 -47.8L-0.2 -52.1L-0.2 -20L-60.2 9.45L-60.2 10L-120.2 39.45L-120.2 40L-180.2 69.45L-180.2 70L-223.95 91.45L-223.95 91.2L-279 118.2L-279 86.15L-276.05 84.7L-266.95 80.15L-260.05 76.75L-260 76.7L-251.05 72.25L-248.05 70.8L-245 69.25L-243.95 68.75L-239 66.3L-228.05 60.85L-228.05 61.25L-226.95 60.7L-226.05 60.25L-225 59.75L-223.95 59.2L-223.95 59.25L-223.05 58.8L-220 57.25L-203.05 48.85L-203.05 49.25L-194.2 44.85L-194 44.75L-194 44.15L-191.05 42.7L-175.05 34.75L-175 34.7L-166.05 30.25L-163.05 28.8L-160 27.25L-143.05 18.85L-143.05 19.25L-134.2 14.85L-134 14.75L-134 14.15L-131.05 12.7L-115.05 4.75L-115 4.7L-106.05 0.25L-103.05 -1.2L-100 -2.75L-83.05 -11.15L-83.05 -10.75L-82.85 -10.8L-74.2 -15.15" />
<path style="fill:#E9E7D6;fill-opacity:1" d="M-0.2,-52.1L-8.8 -47.8L-12.85 -45.8L-14.2 -45.15L-19 -42.75L-23.05 -40.75L-23.05 -41.15L-40 -32.75L-43.05 -31.2L-46.05 -29.75L-55 -25.3L-55.05 -25.25L-71.05 -17.3L-74 -15.85L-74.2 -15.15L-82.85 -10.8L-83.05 -11.15L-100 -2.75L-103.05 -1.2L-106.05 0.25L-115 4.7L-115.05 4.75L-131.05 12.7L-134 14.15L-134.2 14.85L-143.05 19.25L-143.05 18.85L-160 27.25L-163.05 28.8L-166.05 30.25L-175 34.7L-175.05 34.75L-191.05 42.7L-194 44.15L-194.2 44.85L-203.05 49.25L-203.05 48.85L-220 57.25L-223.05 58.8L-223.95 59.25L-223.95 59.2L-225 59.75L-226.05 60.25L-226.95 60.7L-228.05 61.25L-228.05 60.85L-239 66.3L-243.95 68.75L-245 69.25L-248.05 70.8L-251.05 72.25L-260 76.7L-260.05 76.75L-266.95 80.15L-276.05 84.7L-279 86.15L-279 118.2L-223.95 91.2L-223.95 91.45L-223.95 92L-224.5 92.25L-226.95 93.5L-232.6 96.3L-233.65 96.85L-234.05 97.05L-234.95 97.5L-239.4 99.7L-240.35 100.2L-242.1 101.05L-243.05 101.55L-259.55 109.8L-259.95 110L-260 110L-262.8 111.4L-264.45 112.25L-279.95 120L-280 120L-280 -39L-279.3 -39.35L-280 -39.7L-280 -55L-260 -64.85L-260 -65L-255 -67.4L-223.95 -82.75L-223.95 -82.65L-160 -114.25L-160 -115L-29.15 -179.6L0 -194L0 -52.1L-0.2 -52.1M-80.05,-43.95L-79.95 -43.95L-80.05 -44L-80.05 -43.95M-200.05,16.05L-199.95 16.05L-200.05 16L-200.05 16.05" />
<path style="fill:none;stroke-width:1;stroke-linecap:round;stroke-linejoin:round;stroke-miterlimit:3;stroke:#616161;stroke-opacity:1" d="M6,-191L4 -192L2 -193L0 -194M4,-18L6 -17M0,-20L0.35 -19.85Q1.2 -19.45 2 -19L2.25 -18.9" />
<path style="fill:none;stroke-width:1;stroke-linecap:round;stroke-linejoin:round;stroke-miterlimit:3;stroke:#000000;stroke-opacity:1" d="M6,-17L6 -49.1M0,-194L0 -52.1L0 -20M-243.05,101.55L-259.55 109.8L-260 110M-262.8,111.4L-263.9 112L-264.45 112.25M-260,-64.85L-260 -65L-255 -67.4M-233.65,96.85L-233.3 96.65L-234.45 97.25M-234.95,97.5L-234.45 97.25M-224.5,92.25L-223.95 92M-233.3,96.65L-232.6 96.3M-240.35,100.2L-242.1 101.05M-240.35,100.2L-239.4 99.7M-243.05,101.55L-242.1 101.05" />
<path style="fill:none;stroke-width:1;stroke-linecap:round;stroke-linejoin:round;stroke-miterlimit:3;stroke:#000000;stroke-opacity:1" d="M6,-191L6 -49.1M2.25,-18.9L4 -18M0,-20L0.35 -19.85M0,-20L-29.15 -5.4M-29.15,-179.6L0 -194" />
<path style="fill:none;stroke-width:1;stroke-linecap:round;stroke-linejoin:round;stroke-miterlimit:3;stroke:#000000;stroke-opacity:1" d="M28.85,-179.65Q17.45 -185.3 6 -191" />
<path style="fill:none;stroke-width:1;stroke-linecap:round;stroke-linejoin:round;stroke-miterlimit:3;stroke:#000000;stroke-opacity:1" d="M75.2,-156.85Q76 -156.45 76.85 -156L99.85 -144.6L101.95 -143.75L99.85 -144.8M80,19.2L126.85 42.5L126.85 16.55L79.8 -7L79.8 -12.85L79.8 -68.25L126.85 -44.85L129.85 -43.35L132.85 -41.85L158.35 -29.2L159.85 -29.95L159.9 -115L101.95 -143.75M31.85,-178.4L75.2 -156.85L74.95 -157L48.85 -170L36.85 -175.95L31.85 -178.45M74.95,-157L76.85 -156.05M48.85,-170.1L36.85 -176.05M28.85,-179.9L30.85 -178.9M30.85,-179.1L28.85 -180.1M159.85,-29.95L159.85 -28.45L158.35 -29.2M31.85,-178.4L30.85 -178.9M-29.15,-5.4L-39.4 -0.3L-40.45 0.25M-40.8,0.45L-81.65 20.85L-83.9 22L-159.55 59.8L-160.45 60.25M-160.8,60.45L-201.65 80.85L-203.9 82L-223.95 92L-224.5 92.25L-226.95 93.5M-239.4,99.7L-240.45 100.25M-240.8,100.45L-242.55 101.3M-223.95,-82.65L-160 -114.25L-160 -115L-29.15 -179.6M80.15,-12.7L80.2 -12.7L80.15 -13.85M80.2,-12.7L81.2 -12.2L81.8 -11.9L90.6 -7.5L95.6 -5.05M79.8,-12.85L95.6 -5L100.05 -2.8L100.6 -2.55M100.05,-2.8L100.6 -2.5L104.9 -0.35L106.55 0.45M106.55,-2.8L101.55 -5.3L100.85 -5.65L96.55 -7.8L95.6 -8.3L80.15 -15.95M80.15,-15.75L80.15 -13.85M95.6,-8.3L96.55 -7.8M100.85,-5.65L101.55 -5.3M126.85,42.5L126.85 42.65M127,42.7L129.85 44.15L129.85 -43.35M129.85,44.15L130 44.1L132.85 42.65L132.85 -41.85M79.8,-7L79.8 19.2M79.95,19.3L80 19.3M79.95,19.3L79.8 19.2M104.9,-0.35L126.85 10.55L126.85 -44.85M-40.8,0.45L-40.45 0.25M-160,60L-159.95 60L-159.55 59.8M-160.8,60.45L-160.45 60.25M-240.8,100.45L-240.45 100.25" />
<path style="fill:none;stroke-width:1;stroke-linecap:round;stroke-linejoin:round;stroke-miterlimit:3;stroke:#616161;stroke-opacity:1" d="M-279.3,-39.35L-280 -39L-280 -39.7" />
<path style="fill:none;stroke-width:1;stroke-linecap:round;stroke-linejoin:round;stroke-miterlimit:3;stroke:#000000;stroke-opacity:1" d="M38.1,-1.2L38.6 -0.95L38.65 -0.9L38.1 -1.2L6 -17M79.15,18.9L48 3.65L44.85 2.1L42.3 0.9L38.65 -0.9" />
<path style="fill:none;stroke-width:1;stroke-linecap:round;stroke-linejoin:round;stroke-miterlimit:3;stroke:#000000;stroke-opacity:1" d="M-226.95,93.5L-232.6 96.3L-233.65 96.85L-234.05 97.05L-234.95 97.5L-239.4 99.7M-242.1,101.05L-242.55 101.3L-243.05 101.55M-260,110L-262.8 111.4M-264.45,112.25L-279.95 120L-280 120L-280 -39M-280,-39.7L-280 -55L-260 -64.85M-255,-67.4L-223.95 -82.75M-255,-67.4L-260 -64.85M-280,-39.7L-279.3 -39.35M-234.45,97.25L-234.05 97.05M-260,110L-259.95 110L-259.55 109.8M-264.45,112.25L-262.8 111.4" />
</g>
</svg>
