<?xml version="1.0" encoding="utf-8"?>
<svg version="1.1" id="Layer_1"
xmlns="http://www.w3.org/2000/svg"
xmlns:xlink="http://www.w3.org/1999/xlink"
xmlns:author="http://www.sothink.com"
width="75px" height="144px"
xml:space="preserve">
<g id="419" transform="matrix(1, 0, 0, 1, 45.9, 143.45)">
<path style="fill:#758E3E;fill-opacity:1" d="M-3.5,-128.4L2.8 -133.25L4.45 -134.3L6.1 -135.3L11.1 -138L13.45 -139.2L17.7 -141.25L21.5 -142.95L21.95 -142.9L17.7 -140.1L15.15 -138.4L15.1 -138.35L15.05 -138.35L12.05 -136.25L11.45 -135.8L11.25 -135.65L11.1 -135.5L9.8 -134.6L7.75 -133.15L7.1 -133.05L3.75 -130.65L4.45 -130.85L11.1 -133.05L13.75 -133.9L17.7 -135.2L25.3 -137.55L17.7 -134.3L14.8 -133.1L13.75 -132.3L13.1 -131.9L13.75 -131.9L16.95 -132.1L17.7 -132.15L27 -132.75L17.7 -130.65L13.75 -129.5L13.45 -129.4L11.1 -128.6L7.85 -127.45L7.55 -127.2L11.1 -126.25L13.75 -125.65L14 -125.65L13.75 -125.6L11.1 -125.45L8.75 -125.1L13.75 -121.45L17.4 -118.35L17.7 -118.05L17.2 -118.3L13.75 -120.3Q11.25 -121.8 8.05 -123.8L6.2 -124.9L4.45 -125.75L2.4 -126.4L3.1 -125.3L3.15 -125.2L4.45 -123.85L10.75 -117.35L13.7 -114.45L13.6 -114.4L10.3 -117.25L4.45 -121.4L2.7 -122.45Q-2.7 -125.7 -5.9 -126.15L-6.1 -126.15L-6.1 -126.25L-3.5 -128.4M0.6,-129.15Q1.95 -128.45 4.45 -128.5L5 -128.5L8.9 -129L11.1 -129.45L13.75 -130.2Q15.2 -130.7 16.3 -131.35L13.75 -130.95L11.1 -130.55L4.45 -129.75L2.15 -129.5L2.05 -129.5Q1 -129.6 0.15 -129L0.6 -129.15M8.75,-125.1L8.5 -125.3L8.6 -125.1L8.75 -125.1M0.05,-90.15L-0.05 -90.15L-0.25 -90.8Q-1.8 -97.5 -4.3 -103.1L-4.65 -103.95Q-6.55 -108.2 -8.3 -110.4L-9.5 -111.75L-9.7 -111.85L-9.65 -111.9L-8.3 -112.2L-6.45 -112.65L1 -114.15L4.45 -114.4L12.45 -114.45L13.6 -114.4L13.75 -114.25L14.4 -113.65L14.25 -113.9L13.75 -114.4L17.7 -114.25L20.75 -114L21 -113.75L17.7 -113.4L13.75 -112.9L13.35 -112.85L13.25 -112.85L8.85 -112.2L7.2 -111.85L4.85 -111.55L4.45 -111.6L4.25 -111.75L0.4 -111.15L4.45 -110.35L6.5 -110L13.75 -108.55L20.9 -107L13.75 -107.7L10.35 -108L8.4 -107.7L11.6 -106L12.25 -105.65L19.8 -101.6Q12.65 -104.05 8.2 -105.05L7.4 -105.2L1.95 -106.1L1.65 -106.05L3.1 -104.25L5.85 -101.4Q3.85 -102.6 1.45 -103.45L1.35 -103.8L1.35 -103.5L1.45 -103.45Q4.55 -95 4.85 -92.3Q3.05 -95.95 0.25 -102.55L-0.25 -103.7L-0.65 -104.55Q-1.8 -106.8 -2.9 -107.85L-2.9 -106.45L-2.9 -106.3L-2.4 -103.4L-0.1 -90.8L0.05 -90.15M-6.45,-125.8L-0.7 -121Q-2.2 -121.7 -3.8 -122.05L-8.3 -122.7L-10.45 -122.75L-8.3 -124.45L-7.4 -125.15L-6.45 -125.8M-10.6,-122.65L-8.3 -121L-1.55 -116.25Q-6 -118.35 -8.3 -119L-8.55 -119.05L-13.75 -119.6L-14.05 -120.1Q-12.75 -121 -10.6 -122.65M-10.15,-111.7L-8.3 -105.05L-8.1 -104.25L-8.3 -104.65L-9.95 -106.8Q-11.8 -108.75 -14.6 -110.6L-14.85 -110.75L-14.6 -110.8L-11.2 -111.55L-10.15 -111.7M-15.05,-110.7L-14.6 -109.5L-11.2 -100.2Q-13.25 -103.75 -14.6 -105.55L-15.25 -106.35Q-16.55 -107.9 -19.05 -109.45L-19.05 -110.05L-15.05 -110.7M-1.5,-110.9L-1.55 -110.95Q-2.35 -111.55 -3.3 -111.4L-2.9 -111.3Q-2.1 -109.85 0.3 -108.55Q-0.55 -110.2 -1.5 -110.9" />
<path style="fill:#466734;fill-opacity:1" d="M-35.85,-58.2L-35.9 -58.1L-35.95 -57.35L-36.6 -53.1Q-39.75 -29.8 -40.35 -10.55L-40.55 -2.05L-40.55 -2L-40.15 -2L-40.15 -1L-41.85 -0.6Q-44.5 -0.2 -45.4 -0.6L-45.4 -0.9L-45.35 -2L-45.4 -2L-45.1 -10.6Q-44.45 -29.85 -41.3 -53.15L-40.65 -57.55L-40.45 -58.9Q-37.55 -78.15 -33.35 -92.15L-33.2 -92.15Q-33.25 -90.9 -29 -91.55Q-24.6 -106.75 -18.75 -115.7L-18.35 -116.3L-17.65 -117.35Q-15.55 -120.25 -11.6 -123.65L-15.75 -118.9L-16.45 -117.85L-16.85 -117.3Q-19.05 -113.95 -21 -109.75Q-24.35 -102.7 -27.1 -93.35L-27.6 -91.75Q-31.5 -78.1 -34.25 -59.6L-34.35 -58.9Q-34.85 -58.5 -35.85 -58.2" />
<path style="fill:#52703A;fill-opacity:1" d="M-17.65,-117.35L-18.35 -116.3L-18.75 -115.7Q-24.6 -106.75 -29 -91.55Q-33.25 -90.9 -33.2 -92.15L-33.2 -92.65L-33.05 -93.15Q-28.6 -107.75 -24.3 -114.35L-22.2 -117.5Q-21.2 -119.15 -18.4 -121.1L-11.45 -125.95L-9.8 -126.2L-9.8 -125.35L-11.45 -123.8L-11.6 -123.65Q-15.55 -120.25 -17.65 -117.35M-34.35,-58.9L-35 -54.6Q-38.15 -31.3 -38.8 -12.05L-38.95 -2.4L-39.1 -2.05L-38.65 -2.05Q-39.1 -1.4 -40.15 -1L-40.15 -2L-40.55 -2L-40.55 -2.05L-40.35 -10.55Q-39.75 -29.8 -36.6 -53.1L-35.95 -57.35L-35.9 -58.1L-35.85 -58.2Q-34.85 -58.5 -34.35 -58.9" />
<path style="fill:none;stroke-width:1;stroke-linecap:round;stroke-linejoin:round;stroke-miterlimit:3;stroke:#545F4B;stroke-opacity:1" d="M15.1,-138.35L15.15 -138.4L17.7 -140.1L21.95 -142.9L21.5 -142.95L17.7 -141.25L13.45 -139.2L11.1 -138M11.1,-136.6L14.6 -138.4L15.05 -138.35L12.05 -136.25M15.1,-138.35L12.05 -136.25M13.75,-133.9L17.7 -135.2L25.3 -137.55L26.8 -138.05L26.5 -137.85L25.3 -137.55L17.7 -134.3L14.8 -133.1L13.75 -132.3M13.75,-131.9L16.95 -132.1L17.7 -132.15L27 -132.75L28.4 -133.05L28.15 -132.85L27 -132.75L17.7 -130.65L13.75 -129.5M13.75,-125.65L14 -125.65L17.7 -125.4M16.65,-125.2L14 -125.65L13.75 -125.6M13.75,-130.2Q15.2 -130.7 16.3 -131.35L13.75 -130.95M16.3,-131.35L16.95 -132.1" />
<path style="fill:none;stroke-width:1;stroke-linecap:round;stroke-linejoin:round;stroke-miterlimit:3;stroke:#3E4738;stroke-opacity:1" d="M17.7,-125.4L17.8 -125.35L20.65 -124.65L21.2 -124.65L21.35 -124.45L20.65 -124.65L17.7 -125.05M-8.3,-122.7L-10.45 -122.75L-10.6 -122.65L-8.3 -121M-8.3,-119L-8.55 -119.05L-13.75 -119.6L-14.05 -120.1Q-12.75 -121 -10.6 -122.65L-10.8 -122.75L-15.75 -118.9M-21,-109.75L-15.15 -110.95L-15.15 -111L-15.15 -110.95L-14.6 -111.05M-0.05,-90.15L0.05 -89.8L0.05 -90.15M-0.05,-90.15L-0.25 -90.8M-14.6,-110.6L-14.85 -110.75L-15.05 -110.7L-14.6 -109.5M-14.6,-105.55L-15.25 -106.35Q-16.55 -107.9 -19.05 -109.45L-19.05 -110.05L-15.05 -110.7L-15.15 -110.95L-14.85 -110.75L-14.6 -110.8M-8.3,-124.55L-8.85 -124.15L-10.8 -122.75L-10.45 -122.75L-8.3 -124.45M-0.1,-90.8L0.05 -90.15" />
<path style="fill:none;stroke-width:1;stroke-linecap:round;stroke-linejoin:round;stroke-miterlimit:3;stroke:#4D5645;stroke-opacity:1" d="M11.1,-138L6.1 -135.3M9.75,-135.85L11.1 -136.6M17.7,-125.05L16.65 -125.2M13.75,-121.45L17.4 -118.35L17.7 -118.05L17.7 -118L18.2 -117.75L17.95 -117.65L17.7 -118M13.75,-120.3L17.2 -118.3L17.7 -118.05M13.75,-112.9L17.7 -113.4L21 -113.75L20.75 -114L17.7 -114.25L13.75 -114.4L14.25 -113.9L14.4 -113.65L13.75 -114.25M-14.6,-111.05L-12.85 -111.35L-11.2 -111.55L-10.15 -111.8L-10.3 -112.4L-10 -112.1L-9.75 -111.9L-9.65 -111.9L-8.3 -112.2M8.2,-105.05Q12.65 -104.05 19.8 -101.6L12.25 -105.65M1,-103.95L1 -103.45L0.65 -103.4L0.2 -103.8M-0.25,-103.7L0.25 -102.55Q3.05 -95.95 4.85 -92.3Q4.55 -95 1.45 -103.45L1.35 -103.5L1.35 -103.8L1.45 -103.45Q3.85 -102.6 5.85 -101.4L3.1 -104.25M13.75,-107.7L20.9 -107L13.75 -108.55M20.9,-107L22 -106.7L22.35 -106.75L20.9 -107M21,-101.2L19.8 -101.6Q20.6 -101.2 20.75 -101.15L21 -101.2M10.6,-97.15L11.05 -96.6L11.05 -96.85L10.6 -97.15L5.85 -101.4Q8.7 -99.65 10.6 -97.15M-0.25,-90.8Q-1.8 -97.5 -4.3 -103.1M-8.3,-110.4L-9.5 -111.75L-10.15 -111.7L-8.3 -105.05M-7.3,-102.65Q-6.1 -99.85 -5.8 -96.2L-5.8 -96.1L-5.8 -95.8L-5.8 -96.2L-7.65 -102.6M-8.3,-104.65L-9.95 -106.8Q-11.8 -108.75 -14.6 -110.6M-14.6,-109.5L-11.2 -100.2L-10.3 -98.55L-10.65 -98.8L-11.2 -100.2Q-13.25 -103.75 -14.6 -105.55M-14.6,-110.8L-11.2 -111.55L-10.15 -111.7L-10.15 -111.8L-9.75 -111.9L-9.7 -111.85M4.85,-92.3L5.1 -91.8L4.85 -91.8L4.85 -92.3M-9.5,-111.75L-9.7 -111.85M-9.5,-111.75L-8.3 -111.8M-2.4,-103.4L-0.1 -90.8" />
<path style="fill:none;stroke-width:1;stroke-linecap:round;stroke-linejoin:round;stroke-miterlimit:3;stroke:#555E4D;stroke-opacity:1" d="M6.1,-135.3L4.45 -134.3L2.8 -133.25L-3.5 -128.4L4.45 -132.9L9.75 -135.85M12.05,-136.25L11.45 -135.8L11.25 -135.65L11.1 -135.5L9.8 -134.6L7.75 -133.15L7.1 -133.05L3.75 -130.65L4.45 -130.85L11.1 -133.05L13.75 -133.9M13.75,-132.3L13.1 -131.9L13.75 -131.9M13.75,-129.5L13.45 -129.4L11.1 -128.6L7.85 -127.45L7.55 -127.2L11.1 -126.25L13.75 -125.65M13.75,-125.6L11.1 -125.45L8.75 -125.1L13.75 -121.45M12.05,-136.25L11.45 -135.8M13.75,-130.95L11.1 -130.55L4.45 -129.75L2.15 -129.5L4.45 -128.8L5 -128.5L8.9 -129L11.1 -129.45L13.75 -130.2M2.15,-129.5L2.05 -129.5L0.6 -129.15Q1.95 -128.45 4.45 -128.5L5 -128.5L6.55 -127.6L8.3 -124.85L8 -124.65L6.2 -124.9L8.05 -123.8Q11.25 -121.8 13.75 -120.3M2.05,-129.5Q1 -129.6 0.15 -129L0.6 -129.15M13.6,-114.4L13.75 -114.4L13.7 -114.45L10.75 -117.35L4.45 -123.85L3.15 -125.2L3.1 -125.3L-3.2 -126.05M3.1,-125.3L4.45 -125.15L6.2 -124.9L4.45 -125.75L2.4 -126.4L3.1 -125.3M8.75,-125.1L8.5 -125.3L8.6 -125.1L8.75 -125.1M13.75,-114.25L13.6 -114.4L12.45 -114.45L4.45 -114.4L1 -114.15L-6.45 -112.65L4.45 -113.05L12.95 -113.1L13.25 -112.85M8.85,-112.2L13.35 -112.85L13.75 -112.9M13.6,-114.4L10.3 -117.25L4.45 -121.4L2.7 -122.45Q-2.7 -125.7 -5.9 -126.15L-6.45 -125.8L-0.7 -121Q2.1 -119.65 4.45 -117.15L5.1 -116.45L5.6 -115.75L5.7 -115.7L5.85 -115.5L5.6 -115.75L4.85 -116.4L4.45 -116.7L-0.7 -121Q-2.2 -121.7 -3.8 -122.05L-8.3 -122.7M-8.3,-121L-1.55 -116.25L-0.25 -115.6L0.15 -115.4L-0.3 -115.45L-0.55 -115.6L-1.55 -116.25Q-6 -118.35 -8.3 -119M-8.3,-112.2L-6.45 -112.65M13.75,-108.55L6.5 -110L4.45 -110.35L0.4 -111.15L4.25 -111.75L4.45 -111.6L4.85 -111.55L7.2 -111.85L8.85 -112.2L13.25 -112.85M3.1,-104.25L1.65 -106.05L1.95 -106.1L7.4 -105.2L8.2 -105.05M12.25,-105.65L11.6 -106Q11 -105.6 10.6 -105.6Q7.9 -105.45 3.6 -107.05Q1.65 -107.8 0.3 -108.55L1 -106.9L1 -103.95M0.2,-103.8L-0.65 -104.55L-0.25 -103.7M11.6,-106L8.4 -107.7L10.35 -108L13.75 -107.7M-4.3,-103.1L-4.65 -103.95Q-6.55 -108.2 -8.3 -110.4M-8.3,-105.05L-8.1 -104.25L-7.3 -102.65M-7.65,-102.6L-8.1 -104.25L-8.3 -104.65M-8.3,-124.45L-7.4 -125.15L-8.3 -124.55M-6.1,-126.15L-5.9 -126.15Q-2.7 -128.1 0.15 -129M-6.1,-126.15L-6.2 -126.15L-6.6 -125.85L-6.45 -125.8L-7.4 -125.15L-6.6 -125.85L-7 -126.25L-6.6 -126.2L-6.2 -126.15L-6.1 -126.25L-3.5 -128.4M-8.3,-111.8L-3.3 -111.4Q-2.35 -111.55 -1.55 -110.95L-1.5 -110.9Q4.5 -108 10.6 -105.6M0.3,-108.55Q-2.1 -109.85 -2.9 -111.3L-1.55 -110.95L-1.5 -110.9Q-0.55 -110.2 0.3 -108.55M-2.9,-106.45L-2.9 -107.85Q-1.8 -106.8 -0.65 -104.55L-2.9 -106.45L-2.9 -106.3L-2.4 -103.4M-2.9,-106.45L-7.4 -110.25M-2.9,-111.3L-3.3 -111.4" />
<path style="fill:none;stroke-width:1;stroke-linecap:round;stroke-linejoin:round;stroke-miterlimit:3;stroke:#3C3C3C;stroke-opacity:1" d="M-11.6,-123.65L-15.75 -118.9L-16.45 -117.85L-16.85 -117.3Q-19.05 -113.95 -21 -109.75M-11.6,-123.65L-11.45 -123.8L-9.8 -125.35L-9.8 -126.2L-11.45 -125.95L-18.4 -121.1Q-21.2 -119.15 -22.2 -117.5L-24.3 -114.35Q-28.6 -107.75 -33.05 -93.15L-33.2 -92.65L-33.2 -92.15Q-33.25 -90.9 -29 -91.55L-28.85 -91.55L-27.6 -91.75L-27.1 -93.35Q-24.35 -102.7 -21 -109.75M-27.6,-91.75L-27.35 -91.85Q-26.7 -92.2 -27.1 -93.35M-27.6,-91.75Q-31.5 -78.1 -34.25 -59.6L-34.35 -58.9L-35 -54.6Q-38.15 -31.3 -38.8 -12.05L-38.95 -2.4L-39.1 -2.05M-38.65,-2.05Q-39.1 -1.4 -40.15 -1L-41.85 -0.6Q-44.5 -0.2 -45.4 -0.6L-45.4 -0.9L-45.35 -2M-45.4,-2L-45.1 -10.6Q-44.45 -29.85 -41.3 -53.15L-40.65 -57.55Q-41.25 -57.65 -41.25 -57.9Q-41.25 -58.75 -40.45 -58.9Q-37.55 -78.15 -33.35 -92.15L-33.2 -92.65M-34.35,-58.9Q-34.85 -58.5 -35.85 -58.2L-38.05 -57.7L-40.65 -57.55L-40.45 -58.9" />
<path style="fill:none;stroke-width:1;stroke-linecap:round;stroke-linejoin:round;stroke-miterlimit:3;stroke:#373F32;stroke-opacity:1" d="M-29,-91.55Q-24.6 -106.75 -18.75 -115.7L-18.35 -116.3L-17.65 -117.35Q-15.55 -120.25 -11.6 -123.65M-35.85,-58.2L-35.9 -58.1L-35.95 -57.35L-36.6 -53.1Q-39.75 -29.8 -40.35 -10.55L-40.55 -2.05L-40.55 -2M-40.15,-2L-40.15 -1M-35.85,-58.2Q-33.1 -76.6 -29.15 -90.25" />
</g>
</svg>
