<?xml version="1.0" encoding="utf-8"?>
<svg version="1.1" id="Layer_1"
xmlns="http://www.w3.org/2000/svg"
xmlns:xlink="http://www.w3.org/1999/xlink"
xmlns:author="http://www.sothink.com"
width="67px" height="137px"
xml:space="preserve">
<g id="38" transform="matrix(1, 0, 0, 1, 33.25, 68.75)">
<path style="fill:#8E7171;fill-opacity:1" d="M-16.7,-31.9L-20.3 -33.7L19.5 -53.6L23.1 -51.8L-16.7 -31.9" />
<path style="fill:#6D5656;fill-opacity:1" d="M-16.7,-31.9L23.1 -51.8L23.1 26.3L-16.7 46.2L-16.7 -31.9" />
<path style="fill:#433434;fill-opacity:1" d="M-16.7,46.2L-20.3 44.4L-20.3 -33.7L-16.7 -31.9L-16.7 46.2" />
<path style="fill:#484848;fill-opacity:1" d="M-16.7,46.2L-16.7 68.2L-20.3 66.4L-20.3 44.4L-16.7 46.2" />
<path style="fill:#7B6262;fill-opacity:1" d="M3.2,-41.85L8.2 -44.35L8.2 33.75L3.2 36.25L3.2 -41.85M-16.7,-31.9L-16.15 -32.15L-11.7 -34.4L-11.7 43.7L-16.1 45.9L-16.7 46.2L-16.7 28.35L-16.7 -31.9" />
<path style="fill:none;stroke-width:0.5;stroke-linecap:round;stroke-linejoin:round;stroke-miterlimit:3;stroke:#7B6262;stroke-opacity:1" d="M3.2,-41.85L8.2 -44.35M-16.7,-31.9L-16.15 -32.15L-11.7 -34.4" />
<path style="fill:none;stroke-width:1;stroke-linecap:round;stroke-linejoin:round;stroke-miterlimit:3;stroke:#BFAEAE;stroke-opacity:1" d="M8.2,33.75L3.2 36.25M-11.7,43.7L-16.1 45.9L-16.7 46.2" />
<path style="fill:none;stroke-width:1.75;stroke-linecap:round;stroke-linejoin:round;stroke-miterlimit:3;stroke:#261E1E;stroke-opacity:1" d="M3.2,36.25L3.2 -41.85M-16.15,-32.15L-16.1 28.65L-16.1 45.9" />
<path style="fill:none;stroke-width:0.5;stroke-linecap:round;stroke-linejoin:round;stroke-miterlimit:3;stroke:#B4A0A0;stroke-opacity:1" d="M8.2,-44.35L8.2 33.75M-11.7,-34.4L-11.7 43.7" />
<path style="fill:none;stroke-width:1;stroke-linecap:round;stroke-linejoin:round;stroke-miterlimit:3;stroke:#000000;stroke-opacity:1" d="M-16.1,28.65L-16.7 28.35" />
<path style="fill:#AEAEAE;fill-opacity:1" d="M-30.45,-43.85L-32.75 -46L-18.15 -52.95L-16.65 -53.7L-15.2 -54.35L-1.4 -60.95L13.8 -68.2L14.85 -67.25L16.05 -66.1L18.7 -63.6L23.55 -59L22.25 -58.35L9.75 -52.4L8.35 -51.75L7.1 -51.15L-4.3 -45.7L-6.85 -44.55L-9.45 -43.25L-10.2 -42.85L-21.8 -37.3L-23 -36.75L-27.95 -41.35L-30.45 -43.85M19.65,29.85Q20.1 29.8 20.45 29.4L20.8 28.8Q20.8 28.3 20.65 28.5L19.7 28.7Q19.1 28.95 19.1 29.25L19.65 29.85M18,32.25L16.8 32.3Q16.35 32.45 16.35 32.85L16.4 33.2L16.5 33.25L16.65 33.45L17 33.5L17.55 33.2L18.2 32.7L18 32.25M23.1,26.3L23.1 29.3Q22.95 29 22.55 28.85Q20.5 30.3 20.5 31.15L20.6 31.55L21 31.65L22.5 30.8L23.1 30.1L23.1 48.3L-16.7 68.2L-16.7 46.2L5.95 34.9Q5.05 36.55 5.05 38.15L5.15 38.6L5.55 38.75L6.45 37L6.7 35.65L6.35 34.7L23.1 26.3M8.25,41.1L8.7 40.55L8.65 40.2L8.5 40.1Q7.6 40.2 7.1 41.05L7.55 41.35L8.25 41.1M4.45,47.5L4.7 47.2Q4.5 46.85 4.5 45.5Q4.45 44.4 4 43.95Q3.5 44.35 3.5 45.05Q3.5 47.3 4.45 47.5M7.25,46.65Q8.25 46.45 8.25 45.7Q8.25 44.95 7.4 44.95Q6.5 44.95 6.5 46.05L7.25 46.65M14.6,40.95L15.15 40.2L15.55 39.05L15 38.5Q14.65 38.75 14.3 39.5L14 40.35L14.6 40.95M13.25,44.6L13.35 45L13.4 45.1L14.6 45.1L15.5 44.45Q15.5 43.95 15.3 44L13.8 44.1Q13.25 44.2 13.25 44.6M19.7,45.65L19.8 45.8L20.75 45.6L21.1 45.05L21 44.6L20.1 44.65Q19.6 44.9 19.6 45.25L19.7 45.65M19.85,48.55L20.5 48.65Q20.9 48.65 21.35 48L21.85 46.8Q21.85 45.45 20.8 46.5Q19.75 47.5 19.75 48.05L19.85 48.55M2,54.1L3.25 53.5L3.5 52.8Q3.5 52.3 3.35 52.45Q1.4 52.2 1.4 53.4L2 54.1M2.55,56.65L2.15 56.2Q1.8 56.3 1.8 57Q1.8 57.55 2.15 57.85L2.55 57.65L2.55 56.65M-10.2,45.9L-10.15 46L-9.45 46.05Q-8.8 46.05 -8.65 45.7L-8.85 45.05L-9.95 45.05Q-10.3 45.1 -10.3 45.5L-10.2 45.9M-13.2,47.05L-13.5 46.6L-14.85 46.7L-14.7 47.35L-14.1 47.5Q-13.35 47.5 -13.2 47.05M-1.65,41.8L-1.25 41.9L-0.4 41.3L-1.7 41.15L-1.75 41.55L-1.7 41.85L-1.65 41.8M-7.05,42.95L-7 42.95Q-6.65 43.1 -6.45 43.2L-5.75 43.35Q-5.3 43.35 -5.3 42.6Q-6.25 42 -6.75 42.2L-7.15 42.6L-7.05 42.95M-2.05,49.3Q-2.8 49.75 -3.15 51.6L-2.65 51.85L-2.05 50.85L-1.65 49.75L-1.75 49.4L-2.05 49.3M-6.35,60.9L-6.45 60.75L-8.1 60.6L-8.1 60.95L-6.7 61.15L-6.35 61.05L-6.35 60.9M-2.4,56.5Q-2.8 55.9 -3.7 56.05Q-4.6 56.2 -4.6 56.85L-4.4 57.5Q-3.4 57.4 -2.4 56.5M-9.75,55.4Q-10.75 55.25 -11.3 55.4L-11.35 56.1L-10.7 56.85Q-9.65 56.45 -9.65 55.9Q-9.65 55.4 -9.75 55.4M-12,50.15Q-12 49.8 -12.4 49.5L-13.45 49.4L-13.5 50.2Q-13.5 50.85 -12.85 51.1L-12.35 50.75Q-12 50.45 -12 50.15M-13.9,49.9Q-14.45 49.25 -15.35 49.2Q-16.25 49.15 -16.25 49.9Q-16.25 50.75 -14.7 50.75Q-13.85 50.75 -13.85 50.2L-13.9 49.9M-16.25,59.2Q-15.55 60.55 -15.15 60.55L-14.8 60.5L-14.85 60.45L-14.7 60.15Q-14.65 59.8 -15.1 59.25Q-15.6 58.6 -16.2 58.6L-16.25 59.2M-13.35,64.55Q-14 63.8 -14.95 63.85Q-15.85 63.85 -15.85 64.5L-15.7 65.15L-14.75 65.25Q-14.05 65.25 -13.35 64.55M-11.1,64.95Q-10.6 64.95 -9.85 64.15Q-9.15 63.4 -9.15 63L-9.25 62.65L-9.6 62.55L-11.9 64.35L-11.85 64.7L-11.7 64.85L-11.1 64.95" />
<path style="fill:#4D4D4D;fill-opacity:1" d="M-4.3,-45.7L7.1 -51.15L8.35 -51.75L9.75 -52.4L22.25 -58.35L23.55 -59L25.45 -57.2L28.9 -53.95L32.3 -50.65L31.25 -50.15L30.95 -50.05L24.15 -56.55L10.25 -49.95L15.85 -44.65L17.1 -43.4L16.7 -43.2L15.75 -42.8L8.95 -49.3L-4.9 -42.7L1.95 -36.15L0.6 -35.55L-6.2 -42.05L-21.1 -34.95L-21.85 -35.65L-23 -36.75L-21.8 -37.3L-10.2 -42.85L-8.6 -43.6L-7.95 -43.95L-6.8 -44.5L-5.25 -45.25Q-4.75 -45.45 -4.3 -45.7" />
<linearGradient
id="LinearGradID_275" gradientUnits="userSpaceOnUse" gradientTransform="matrix(0.0187531, 0.0187531, -0.00701904, 0.00701904, 33.35, -38.3)" spreadMethod ="pad" x1="-819.2" y1="0" x2="819.2" y2="0" >
<stop  offset="0" style="stop-color:#909090;stop-opacity:1" />
<stop  offset="0.517647" style="stop-color:#AEAEAE;stop-opacity:1" />
</linearGradient>
<path style="fill:url(#LinearGradID_275) " d="M15.85,-44.65L10.25 -49.95L24.15 -56.55L30.95 -50.05L31.25 -50.15L32.3 -50.65L28.9 -53.95L32.4 -50.7L32.75 -50.35L32.75 -49.55L18.1 -42.5L17.15 -43.4L15.85 -44.65" />
<linearGradient
id="LinearGradID_276" gradientUnits="userSpaceOnUse" gradientTransform="matrix(0.0187531, 0.0203857, -0.00762939, 0.00701904, 17.8, -30.35)" spreadMethod ="pad" x1="-819.2" y1="0" x2="819.2" y2="0" >
<stop  offset="0" style="stop-color:#909090;stop-opacity:1" />
<stop  offset="0.517647" style="stop-color:#AEAEAE;stop-opacity:1" />
</linearGradient>
<path style="fill:url(#LinearGradID_276) " d="M-4.9,-42.7L8.95 -49.3L15.75 -42.8L16.7 -43.2L17.1 -43.4L15.85 -44.65L17.15 -43.4L18.1 -42.5L2.9 -35.25L1.95 -36.15L-4.9 -42.7M-5.25,-45.25L-6.8 -44.5L-6.85 -44.55L-4.3 -45.7Q-4.75 -45.45 -5.25 -45.25" />
<linearGradient
id="LinearGradID_277" gradientUnits="userSpaceOnUse" gradientTransform="matrix(0.0144958, 0.0154877, -0.00796509, 0.00746155, 0.55, -24.75)" spreadMethod ="pad" x1="-819.2" y1="0" x2="819.2" y2="0" >
<stop  offset="0" style="stop-color:#909090;stop-opacity:1" />
<stop  offset="0.517647" style="stop-color:#AEAEAE;stop-opacity:1" />
</linearGradient>
<path style="fill:url(#LinearGradID_277) " d="M-21.1,-34.95L-6.2 -42.05L0.6 -35.55L1.95 -36.15L2.9 -35.25L-13.3 -27.6L-14.2 -28.45L-21.1 -34.95M-9.45,-43.25L-6.85 -44.55L-6.8 -44.5L-7.95 -43.95L-8.6 -43.6L-9.45 -43.25" />
<path style="fill:#C4C4C4;fill-opacity:1" d="M19.1,29.25Q19.1 28.95 19.7 28.7L20.65 28.5Q20.8 28.3 20.8 28.8L20.45 29.4Q20.1 29.8 19.65 29.85L19.1 29.25M18.2,32.7L17.55 33.2L17 33.5L16.65 33.45L16.5 33.25L16.4 33.2L16.35 32.85Q16.35 32.45 16.8 32.3L18 32.25L18.2 32.7M7.55,41.35L7.1 41.05Q7.6 40.2 8.5 40.1L8.65 40.2L8.7 40.55L8.25 41.1L7.55 41.35M6.5,46.05Q6.5 44.95 7.4 44.95Q8.25 44.95 8.25 45.7Q8.25 46.45 7.25 46.65L6.5 46.05M13.8,44.1L15.3 44Q15.5 43.95 15.5 44.45L14.6 45.1L13.4 45.1L13.35 45L13.25 44.6Q13.25 44.2 13.8 44.1M19.6,45.25Q19.6 44.9 20.1 44.65L21 44.6L21.1 45.05L20.75 45.6L19.8 45.8L19.7 45.65L19.6 45.25M1.4,53.4Q1.4 52.2 3.35 52.45Q3.5 52.3 3.5 52.8L3.25 53.5L2 54.1L1.4 53.4M-10.3,45.5Q-10.3 45.1 -9.95 45.05L-8.85 45.05L-8.65 45.7Q-8.8 46.05 -9.45 46.05L-10.15 46L-10.2 45.9L-10.3 45.5M-14.1,47.5L-14.7 47.35L-14.85 46.7L-13.5 46.6L-13.2 47.05Q-13.35 47.5 -14.1 47.5M-1.7,41.85L-1.75 41.55L-1.7 41.15L-0.4 41.3L-1.25 41.9L-1.65 41.8L-1.7 41.85M-6.35,61.05L-6.7 61.15L-8.1 60.95L-8.1 60.6L-6.45 60.75L-6.35 60.9L-6.35 61.05M-4.4,57.5L-4.6 56.85Q-4.6 56.2 -3.7 56.05Q-2.8 55.9 -2.4 56.5Q-3.4 57.4 -4.4 57.5M-9.65,55.9Q-9.65 56.45 -10.7 56.85L-11.35 56.1L-11.3 55.4Q-10.75 55.25 -9.75 55.4Q-9.65 55.4 -9.65 55.9M-13.85,50.2Q-13.85 50.75 -14.7 50.75Q-16.25 50.75 -16.25 49.9Q-16.25 49.15 -15.35 49.2Q-14.45 49.25 -13.9 49.9L-13.85 50.2M-14.75,65.25L-15.7 65.15L-15.85 64.5Q-15.85 63.85 -14.95 63.85Q-14 63.8 -13.35 64.55Q-14.05 65.25 -14.75 65.25" />
<path style="fill:#8C8C8C;fill-opacity:1" d="M6.15,34.5L6.35 34.7L6.7 35.65L6.45 37L5.55 38.75L5.15 38.6L5.05 38.15Q5.05 36.55 5.95 34.9L6.15 34.5M23.1,30.1L22.5 30.8L21 31.65L20.6 31.55L20.5 31.15Q20.5 30.3 22.55 28.85Q22.95 29 23.1 29.3L23.2 29.75L23.1 30.1M3.5,45.05Q3.5 44.35 4 43.95Q4.45 44.4 4.5 45.5Q4.5 46.85 4.7 47.2L4.45 47.5Q3.5 47.3 3.5 45.05M14,40.35L14.3 39.5Q14.65 38.75 15 38.5L15.55 39.05L15.15 40.2L14.6 40.95L14 40.35M19.75,48.05Q19.75 47.5 20.8 46.5Q21.85 45.45 21.85 46.8L21.35 48Q20.9 48.65 20.5 48.65L19.85 48.55L19.75 48.05M2.55,57.65L2.15 57.85Q1.8 57.55 1.8 57Q1.8 56.3 2.15 56.2L2.55 56.65L2.55 57.65M-7.15,42.6L-6.75 42.2Q-6.25 42 -5.3 42.6Q-5.3 43.35 -5.75 43.35L-6.45 43.2Q-6.65 43.1 -7 42.95L-7.05 42.95L-7.15 42.6M-1.75,49.4L-1.65 49.75L-2.05 50.85L-2.65 51.85L-3.15 51.6Q-2.8 49.75 -2.05 49.3L-1.75 49.4M-12.35,50.75L-12.85 51.1Q-13.5 50.85 -13.5 50.2L-13.45 49.4L-12.4 49.5Q-12 49.8 -12 50.15Q-12 50.45 -12.35 50.75M-16.2,58.6Q-15.6 58.6 -15.1 59.25Q-14.65 59.8 -14.7 60.15L-14.85 60.45L-14.8 60.5L-15.15 60.55Q-15.55 60.55 -16.25 59.2L-16.2 58.6M-11.7,64.85L-11.85 64.7L-11.9 64.35L-9.6 62.55L-9.25 62.65L-9.15 63Q-9.15 63.4 -9.85 64.15Q-10.6 64.95 -11.1 64.95L-11.7 64.85" />
<path style="fill:#626262;fill-opacity:1" d="M-14.2,-28.45L-13.3 -27.6L-16.2 -27.4L-16.9 -28.05L-17.4 -28.5L-30 -40.45L-30.2 -40.65L-30.75 -41.2L-31.1 -41.5L-31.3 -41.65L-31.3 -41.7L-32.75 -43.05L-32.75 -46L-30.45 -43.85L-27.95 -41.35L-23 -36.75L-21.85 -35.65L-21.1 -34.95L-14.2 -28.45" />
<path style="fill:none;stroke-width:1;stroke-linecap:round;stroke-linejoin:round;stroke-miterlimit:3;stroke:#373737;stroke-opacity:1" d="M14.85,-67.25L13.85 -68.25L13.8 -68.2L14.85 -67.25L16.05 -66.1L0.9 -58.85L-1.4 -60.95M7.1,-51.15L8.35 -51.75L3.45 -56.35L18.7 -63.6L23.55 -59L25.45 -57.2M-13.3,-27.6L-16.2 -27.4L-16.9 -28.05M-17.4,-28.5L-30 -40.45L-31.3 -41.65L-31.3 -41.7L-32.75 -43.05L-32.75 -46L-30.45 -43.85L-14.4 -51.5M9.75,-52.4L8.35 -51.75L10.25 -49.95M3.45,-56.35L-11.75 -49.1L-6.85 -44.55M23.55,-59L22.25 -58.35M-4.9,-42.7L-6.8 -44.5L-7.95 -43.95M-21.8,-37.3L-23 -36.75L-21.85 -35.65M-16.65,-53.7L-16.6 -53.65L-14.4 -51.5L0.9 -58.85M-5.25,-45.25L-6.8 -44.5L-6.85 -44.55M-11.75,-49.1L-27.95 -41.35L-23 -36.75M-14.2,-28.45L-21.1 -34.95" />
<path style="fill:none;stroke-width:1;stroke-linecap:round;stroke-linejoin:round;stroke-miterlimit:3;stroke:#BFBFBF;stroke-opacity:1" d="M16.05,-66.1L18.7 -63.6M25.45,-57.2L28.9 -53.95L32.4 -50.7M-32.75,-46L-18.15 -52.95M-15.2,-54.35L-1.4 -60.95L13.8 -68.2M0.9,-58.85L3.45 -56.35M17.15,-43.4L15.85 -44.65L10.25 -49.95M1.95,-36.15L-4.9 -42.7M-15.2,-54.35L-16.6 -53.65L-18.15 -52.95M-14.4,-51.5L-11.75 -49.1M-27.95,-41.35L-30.45 -43.85" />
<path style="fill:none;stroke-width:1;stroke-linecap:round;stroke-linejoin:round;stroke-miterlimit:3;stroke:#000000;stroke-opacity:1" d="M32.4,-50.7L32.75 -50.35M18.1,-42.5L17.15 -43.4M2.9,-35.25L1.95 -36.15M-14.2,-28.45L-13.3 -27.6M-21.85,-35.65L-21.1 -34.95" />
<path style="fill:none;stroke-width:1;stroke-linecap:round;stroke-linejoin:round;stroke-miterlimit:3;stroke:#C4C4C4;stroke-opacity:1" d="M30.95,-50.05L31.25 -50.15M32.4,-50.7L32.3 -50.65M30.95,-50.05L17.15 -43.4L17.1 -43.4M16.7,-43.2L1.95 -36.15L0.6 -35.55L-14.2 -28.45" />
<path style="fill:none;stroke-width:1;stroke-linecap:round;stroke-linejoin:round;stroke-miterlimit:3;stroke:#A6A6A6;stroke-opacity:1" d="M-4.3,-45.7L7.1 -51.15M22.25,-58.35L9.75 -52.4M-7.95,-43.95L-8.6 -43.6M-10.2,-42.85L-21.8 -37.3M-10.2,-42.85L-9.45 -43.25L-8.6 -43.6M-4.3,-45.7Q-4.75 -45.45 -5.25 -45.25" />
<path style="fill:none;stroke-width:2;stroke-linecap:round;stroke-linejoin:round;stroke-miterlimit:3;stroke:#373737;stroke-opacity:1" d="M32.75,-49.55L18.1 -42.5L2.9 -35.25L-13.3 -27.6" />
<path style="fill:#1E1E1E;fill-opacity:0.411765" d="M23.1,29.75L-16.7 49.65L-16.7 46.2L23.1 26.3L23.1 29.75" />
</g>
</svg>
