<?xml version="1.0" encoding="utf-8"?>
<svg version="1.1" id="Layer_1"
xmlns="http://www.w3.org/2000/svg"
xmlns:xlink="http://www.w3.org/1999/xlink"
xmlns:author="http://www.sothink.com"
width="1481px" height="606px"
xml:space="preserve">
<g id="519" transform="matrix(1, 0, 0, 1, 840.25, 125.55)">
<path style="fill:#A05E27;fill-opacity:1" d="M265.9,231.95L165.95 182.1L106.95 152.65L-5.15 96.7L-5.15 96.05Q-4.5 96.4 -3.8 96.7L-3.8 93.85L176.85 184.05L176.85 184L186.2 188.65L519.5 355L519.5 358.5L265.9 231.95M186.2,188.65L186.2 188.6L187.15 189.1L186.2 188.65" />
<path style="fill:none;stroke-width:0.5;stroke-linecap:round;stroke-linejoin:round;stroke-miterlimit:3;stroke:#49250E;stroke-opacity:1" d="M519.5,358.5L519.5 355L186.2 188.65L176.85 184M176.85,184.05L-3.8 93.85M187.15,189.1L186.2 188.6" />
<path style="fill:none;stroke-width:0.5;stroke-linecap:round;stroke-linejoin:round;stroke-miterlimit:3;stroke:#633612;stroke-opacity:1" d="M-5.15,96.05L-5.15 96.7L106.95 152.65M165.95,182.1L265.9 231.95L519.5 358.5" />
<path style="fill:none;stroke-width:0.5;stroke-linecap:round;stroke-linejoin:round;stroke-miterlimit:3;stroke:#633612;stroke-opacity:1" d="M106.95,152.65L165.95 182.1" />
<path style="fill:#F1F1EE;fill-opacity:1" d="M-20,196.8L-20 193.85L-20 196.85L-36.15 188.75L-36.15 188.8L-115.9 148.95L-115.9 149L-238.05 88L-238.05 85L-106.65 150.65L-106.65 150.6L-20 193.85L-0.1 203.75L-0.05 203.75L-0.05 206.75L-20 196.8M-5.15,81.8L-19.95 74.35L-19.95 74.4L-99.7 34.55L-99.7 34.6L-223.85 -27.4L-223.85 -27.35L-238.05 -34.45L-238.05 -37.45L-223.85 -30.35L-223.85 -30.4L-90.45 36.25L-90.45 36.2L-5.15 78.8Q-4.5 79.15 -3.8 79.45L-3.8 82.45Q-4.5 82.1 -5.15 81.8M483.4,269.65L483.4 266.65L519.5 284.7L519.5 287.7L483.4 269.65M483.4,325.45L483.4 322.45L519.45 340.45L519.45 343.45L483.4 325.45M640,365.35L640 368.4L554.7 325.8L554.7 325.9L519.6 343.45L519.6 340.45L554.7 322.9L554.7 322.8L640 365.35M554.7,267.1L554.7 270.1L519.55 287.7L519.55 284.7L554.7 267.1M556.05,389.15L556.05 392.15L520 410.2L520 407.2L556.05 389.15M556.05,444.95L556.05 447.95L520.05 465.95L520.05 462.95L556.05 444.95M519.5,407.6L519.5 410.6L483.4 392.55L483.4 389.55L519.5 407.6M483.4,448.35L483.4 445.35L519.45 463.35L519.45 466.35L483.4 448.35M265.9,283.8L265.9 280.85L265.9 280.8L318.9 307.3L318.9 310.3L265.9 283.8M318.9,363.1L318.9 366.1L265.9 339.65L265.9 339.7L160.9 287.25L160.9 284.25L318.9 363.1M160.9,231.45L160.9 228.45L176.85 236.4L176.85 236.45L176.85 239.4L160.9 231.45M-98.2,98.95L-36.15 129.95L-20 138L-0.05 148L-0.05 151L-20 141.05L-98.2 101.95L-98.2 98.95M-20,141.05L-20 138L-20 141.05M-106.65,97.8L-177.95 62.15L-177.95 59.15L-115.9 90.15L-106.65 94.8L-106.65 97.8" />
<path style="fill:#ECEEEB;fill-opacity:1" d="M-115.9,149L-115.9 148.95L-36.15 188.8L-36.15 188.75L-20 196.85L-20 200.35L-36.15 192.25L-36.15 192.3L-106.65 157.1L-115.9 152.45L-115.9 152.5L-238.05 91.5L-238.05 88L-115.9 149M-36.15,129.95L-98.2 98.95L-106.65 94.75L-106.65 94.8L-115.9 90.15L-177.95 59.15L-238.05 29.2L-238.05 25.7L-177.95 55.65L-115.9 86.65L-106.65 91.3L-106.65 91.25L-98.2 95.45L-36.15 126.45L-20 134.5L-0.05 144.5L-0.05 148L-20 138M-20,116.25L-20 92.75L-20 116.25L-38.35 107.1L-118.1 67.3L-238.05 7.4L-238.05 -16L-238.05 -16.15L-127.4 39.15L-106.65 49.55L-106.65 49.45L-47.65 78.95L-20 92.75L160.85 183.1L160.9 183.1L176.85 191.05L176.85 191.1L265.9 235.5L265.9 235.45L483.4 344L483.4 343.95L519.5 362L554.5 344.55L554.55 344.55L634.25 384.3L634.25 384.25L637.15 385.7L637.15 409.1L634.25 407.65L554.5 367.9L554.5 367.95L519.5 385.45L265.9 258.85L-20 116.25M-3.8,82.45L-3.8 85.95Q-4.5 85.6 -5.15 85.3L-19.95 77.85L-19.95 77.9L-90.45 42.7L-99.7 38.05L-99.7 38.1L-223.85 -23.9L-223.85 -23.85L-238.05 -30.95L-238.05 -34.45L-223.85 -27.35L-223.85 -27.4L-99.7 34.6L-99.7 34.55L-19.95 74.4L-19.95 74.35L-5.15 81.8Q-4.5 82.1 -3.8 82.45M-3.8,20.1L-3.8 23.6Q-4.5 23.3 -5.15 22.95L-19.95 15.55L-20 15.55L-36.15 7.5L-82 -15.4L-82 -15.45L-90.45 -19.65L-90.45 -19.6L-106.65 -27.7L-106.65 -27.65L-115.9 -32.3L-161.75 -55.2L-161.75 -55.25L-223.85 -86.2L-238.05 -93.25L-238.05 -96.75L-223.85 -89.7L-161.75 -58.75L-99.7 -27.75L-90.45 -23.1L-90.45 -23.15L-82 -18.95L-19.95 12.05L-5.15 19.45Q-4.5 19.8 -3.8 20.1M483.4,266.65L483.4 263.15L519.5 281.2L519.5 284.7L483.4 266.65M483.4,328.95L483.4 325.45L519.45 343.45L519.45 346.95L483.4 328.95M640,368.4L640 371.85L554.7 329.3L554.7 329.4L519.6 346.95L519.6 343.45L554.7 325.9L554.7 325.8L640 368.4M519.55,284.7L519.55 281.2L554.7 263.6L554.7 263.5L554.85 263.55L640 306.05L640 309.55L554.85 267.05L554.7 267L554.7 267.1L519.55 284.7M556.05,385.65L556.05 389.15L520 407.2L520 403.7L556.05 385.65M520.05,469.45L520.05 465.95L556.05 447.95L556.05 451.45L520.05 469.45M483.4,389.55L483.4 386.05L519.5 404.1L519.5 407.6L483.4 389.55M483.4,451.85L483.4 448.35L519.45 466.35L519.45 469.85L483.4 451.85M176.85,236.45L176.85 236.4L160.9 228.45L160.9 224.95L176.85 232.9L176.85 232.95L265.9 277.35L265.9 277.3L318.9 303.8L318.9 307.3L265.9 280.8L265.9 280.85L176.85 236.45M160.9,290.75L160.9 287.25L265.9 339.7L265.9 339.65L318.9 366.1L318.9 369.6L160.9 290.75M-0.05,206.75L-0.05 210.25L-20 200.3L-20 196.8L-0.05 206.75M-20,138L-20 134.5L-20 138L-36.15 129.95M-122.15,60.7L-122.1 60.7L-122.15 60.7M-114.1,60.4L-114.1 58.4L-114.15 60.4L-114.1 60.4M-34.35,100.2L-34.35 98.2L-34.4 100.2L-34.35 100.2M-42.35,100.5L-42.4 100.5L-42.35 100.5" />
<path style="fill:#E7EAE7;fill-opacity:1" d="M-20,200.35L-20 204.35L-36.15 196.25L-36.15 196.3L-115.9 156.45L-115.9 156.5L-238.05 95.5L-238.05 91.5L-115.9 152.5L-115.9 152.45L-106.65 157.1L-36.15 192.3L-36.15 192.25L-20 200.35M-20,134.5L-36.15 126.45L-98.2 95.45L-106.65 91.25L-106.65 91.3L-115.9 86.65L-177.95 55.65L-238.05 25.7L-238.05 21.7L-177.95 51.65L-115.9 82.65L-106.65 87.3L-106.65 87.25L-98.2 91.45L-36.15 122.45L-20 130.5L-0.05 140.5L-0.05 144.5L-20 134.5M-5.15,89.3L-19.95 81.85L-19.95 81.9L-99.7 42.05L-99.7 42.1L-223.85 -19.9L-223.85 -19.85L-238.05 -26.95L-238.05 -30.95L-223.85 -23.85L-223.85 -23.9L-99.7 38.1L-99.7 38.05L-90.45 42.7L-19.95 77.9L-19.95 77.85L-5.15 85.3Q-4.5 85.6 -3.8 85.95L-3.8 89.95Q-4.5 89.6 -5.15 89.3M-5.15,19.45L-19.95 12.05L-82 -18.95L-90.45 -23.15L-90.45 -23.1L-99.7 -27.75L-161.75 -58.75L-223.85 -89.7L-238.05 -96.75L-238.05 -100.75L-223.85 -93.7L-161.75 -62.75L-99.7 -31.75L-90.45 -27.1L-90.45 -27.15L-82 -22.95L-19.95 8.05L-5.15 15.45Q-4.5 15.8 -3.8 16.1L-3.8 20.1Q-4.5 19.8 -5.15 19.45M483.4,263.15L483.4 259.15L519.5 277.2L519.5 281.2L483.4 263.15M483.4,332.95L483.4 328.95L519.45 346.95L519.45 350.95L483.4 332.95M554.7,329.4L554.7 329.3L640 371.85L640 375.9L554.7 333.3L554.7 333.4L519.6 350.95L519.6 346.95L554.7 329.4M554.85,263.55L554.7 263.5L554.7 263.6L519.55 281.2L519.55 277.2L554.7 259.6L554.7 259.5L554.85 259.55L640 302.05L640 306.05L554.85 263.55M520,403.7L520 399.7L556.05 381.65L556.05 385.65L520 403.7M520.05,473.45L520.05 469.45L556.05 451.45L556.05 455.45L520.05 473.45M483.4,386.05L483.4 382.05L519.5 400.1L519.5 404.1L483.4 386.05M519.45,469.85L519.45 473.85L483.4 455.85L483.4 451.85L519.45 469.85M318.9,299.8L318.9 303.8L265.9 277.3L265.9 277.35L176.85 232.95L176.85 232.9L160.9 224.95L160.9 220.95L176.85 228.9L176.85 228.95L265.9 273.35L265.9 273.3L318.9 299.8M318.9,369.6L318.9 373.6L265.9 347.15L265.9 347.2L160.9 294.75L160.9 290.75L318.9 369.6M-20,204.3L-20 200.3L-0.05 210.25L-0.05 214.25L-20 204.3M-20,134.5L-20 130.5L-20 134.5" />
<path style="fill:#E2E7E5;fill-opacity:1" d="M-20,208.9L-36.15 200.85L-36.15 200.9L-115.9 161.05L-115.9 161.1L-238.05 100.1L-238.05 95.5L-115.9 156.5L-115.9 156.45L-36.15 196.3L-36.15 196.25L-20 204.35L-20 208.9L-20 204.3L-0.05 214.25L-0.05 218.85L-20 208.9M-177.95,51.65L-238.05 21.7L-238.05 18.75L-177.95 48.7L-115.9 79.7L-106.65 84.35L-106.65 84.3L-98.2 88.5L-36.15 119.5L-20 127.55L-0.05 137.55L-0.05 140.5L-20 130.5M-5.15,93.85L-19.95 86.45L-19.95 86.5L-20 86.5L-20 86.45L-99.7 46.65L-99.7 46.7L-223.85 -15.3L-223.85 -15.25L-238.05 -22.35L-238.05 -26.95L-223.85 -19.85L-223.85 -19.9L-99.7 42.1L-99.7 42.05L-19.95 81.9L-19.95 81.85L-5.15 89.3Q-4.5 89.6 -3.8 89.95L-3.8 94.5Q-4.5 94.2 -5.15 93.85M-3.8,13.15L-3.8 16.1Q-4.5 15.8 -5.15 15.45L-19.95 8.05L-82 -22.95L-90.45 -27.15L-90.45 -27.1L-99.7 -31.75L-161.75 -62.75L-223.85 -93.7L-238.05 -100.75L-238.05 -103.7L-223.85 -96.65L-161.75 -65.7L-99.7 -34.7L-90.45 -30.05L-90.45 -30.1L-82 -25.9L-19.95 5.1L-5.15 12.5Q-4.5 12.85 -3.8 13.15M483.4,259.15L483.4 256.2L519.5 274.25L519.5 277.2L483.4 259.15M483.4,337.55L483.4 332.95L519.45 350.95L519.45 355.55L483.4 337.55M554.7,337.9L554.7 338L519.6 355.55L519.6 350.95L554.7 333.4L554.7 333.3L640 375.9L640 380.45L554.7 337.9M640,299.1L640 302.05L554.85 259.55L554.7 259.5L554.7 259.6L519.55 277.2L519.55 274.25L554.7 256.65L554.7 256.55L554.85 256.6L555.6 256.2L555.6 257L640 299.1M520,399.7L520 396.75L556.05 378.7L556.05 381.65L520 399.7M556.05,455.45L556.05 460.05L520.05 478.05L520.05 473.45L556.05 455.45M483.4,382.05L483.4 379.1L519.5 397.15L519.5 400.1L483.4 382.05M483.4,460.45L483.4 455.85L519.45 473.85L519.45 478.45L483.4 460.45M265.9,273.3L265.9 273.35L176.85 228.95L176.85 228.9L160.9 220.95L160.9 218L176.85 225.95L176.85 226L265.9 270.4L265.9 270.35L318.9 296.85L318.9 299.8L265.9 273.3M160.9,299.35L160.9 294.75L265.9 347.2L265.9 347.15L318.9 373.6L318.9 378.2L160.9 299.35M-20,130.5L-20 127.55L-20 130.5L-36.15 122.45L-98.2 91.45L-106.65 87.25L-106.65 87.3L-115.9 82.65L-177.95 51.65M89.35,267.2L89.45 267.15L89.4 267.2L89.35 267.2" />
<path style="fill:#D8DCDB;fill-opacity:1" d="M-0.05,218.85L-0.05 221.05L-20 211.1L-20 208.9L-20 211.1L-36.15 203.05L-36.15 202.9L-99.75 171.15L-99.75 171.3L-115.9 163.25L-115.9 163.1Q-177 132.65 -238.05 102.15L-238.05 100.1L-115.9 161.1L-115.9 161.05L-36.15 200.9L-36.15 200.85L-20 208.9L-0.05 218.85M-177.95,48.7L-238.05 18.75L-238.05 14.45L-238.05 14.3L-128.75 68.95L-126 70.35L-115.95 75.45L-115.95 77.5L-115.9 77.5L-115.9 75.45L-106.65 80.05L-106.65 79.9L-49.05 108.7Q-47.85 109.35 -46.6 109.95L-47.65 109.4L-36.2 115L-36.2 115.25L-36.2 117.3L-36.15 117.3L-36.15 115.25L-20 123.3L-1.85 132.35L-1.35 132.6L-1.35 134.8L-0.05 135.45L-0.05 137.55L-20 127.55M-20,118.95L-238.15 10.05L-238.2 10.05L-238.05 9.95L-238.05 7.4L-118.1 67.3L-38.35 107.1L-20 116.25L265.9 258.85L519.5 385.45L554.5 367.95L554.5 367.9L634.25 407.65L637.15 409.1L637.15 411.85L600 393.35L554.5 370.65L554.5 368.15L554.4 368.1L554.4 370.75L519.5 388.15L-20 118.95M-3.8,94.5L-3.8 96.7Q-4.5 96.4 -5.15 96.05L-19.95 88.65L-19.95 88.5L-20 88.5L-20 88.65L-36.15 80.6L-36.15 80.45L-83.55 56.8L-83.55 56.9L-99.7 48.85L-99.7 48.75L-99.75 48.7L-99.75 48.85L-115.9 40.8L-115.9 40.65L-238.25 -20.4L-238.05 -20.5L-238.05 -22.35L-223.85 -15.25L-223.85 -15.3L-99.7 46.7L-99.7 46.65L-20 86.45L-20 86.5L-19.95 86.5L-19.95 86.45L-5.15 93.85Q-4.5 94.2 -3.8 94.5M-5.15,12.5L-19.95 5.1L-82 -25.9L-90.45 -30.1L-90.45 -30.05L-99.7 -34.7L-161.75 -65.7L-223.85 -96.65L-238.05 -103.7L-238.05 -108.05L-238.05 -108.15L-223.85 -101.05L-223.85 -101.1L-128.95 -53.6L-106.65 -42.4L-106.65 -42.45L-106.65 -42.55L-90.45 -34.45L-90.45 -34.5L-48.7 -13.55L-47.65 -13.05L-22.6 -0.5L-20.05 0.8L-20 0.85L-20 2.9L-19.95 2.9L-19.95 0.85L-5.15 8.25Q-4.5 8.55 -3.8 8.9L-3.8 13.15Q-4.5 12.85 -5.15 12.5M483.4,256.2L483.4 252L483.4 251.95L483.4 251.55L500.45 260.15L518.4 269L519.5 269.55L519.5 274.25L483.4 256.2M519.45,355.55L519.45 357.5L483.4 339.5L483.4 337.55L519.45 355.55M640,380.45L640 382.5L600 362.55L554.7 339.95L519.6 357.5L519.6 355.55L554.7 338L554.7 337.9L640 380.45M555.6,257L555.6 256.2L554.85 256.6L554.7 256.55L554.7 256.65L519.55 274.25L519.55 269.55L519.55 270.15L554.75 252.6L554.75 252.65L603.2 276.85L639.3 294.85L640 299.1L555.6 257M520,396.75L520 392.25L554.4 375.05L554.4 375.1L556.05 375.95L556.05 378.7L520 396.75M556.05,460.05L556.05 462L520.05 480L520.05 478.05L556.05 460.05M483.4,379.1L483.4 376.8L483.4 374.45L483.4 374.4L484.35 374.9L519.5 392.45L519.5 397.15L483.4 379.1M519.45,478.45L519.45 480.4L483.4 462.4L483.4 460.45L519.45 478.45M318.85,292.3L318.85 292.35L318.85 294.6L318.9 294.65L318.9 296.85L265.9 270.35L265.9 270.4L176.85 226L176.85 225.95L160.9 218L160.9 213.55L176.85 221.5L176.85 221.55L265.9 265.95L265.9 265.9L317.15 291.5L317.55 291.7L318.65 292.25L318 291.9L318.85 292.3M318.9,378.2L318.9 380.25L265.9 353.8L160.9 301.4L160.9 299.35L318.9 378.2M-20,127.55L-20 123.3L-20 127.55L-36.15 119.5L-98.2 88.5L-106.65 84.3L-106.65 84.35L-115.9 79.7L-177.95 48.7" />
<path style="fill:#F1F1EF;fill-opacity:1" d="M-20,193.85L-106.65 150.6L-106.65 150.65L-238.05 85L-238.05 29.2L-177.95 59.15L-177.95 62.15L-106.65 97.8L-106.65 94.8L-106.65 94.75L-98.2 98.95L-98.2 101.95L-20 141.05L-0.05 151L-0.1 203.75L-20 193.85M-5.15,78.8L-90.45 36.2L-90.45 36.25L-223.85 -30.4L-223.85 -30.35L-238.05 -37.45L-238.05 -93.25L-223.85 -86.2L-161.75 -55.25L-161.75 -55.2L-115.9 -32.3L-106.65 -27.65L-106.65 -27.7L-90.45 -19.6L-90.45 -19.65L-82 -15.45L-82 -15.4L-36.15 7.5L-20 15.55L-19.95 15.55L-5.15 22.95L-5.15 25.95L-3.8 26.65L-3.8 79.45Q-4.5 79.15 -5.15 78.8M519.5,287.7L519.45 340.45L483.4 322.45L483.4 269.65L519.5 287.7M554.7,322.8L554.7 322.9L519.6 340.45L519.55 287.7L554.7 270.1L554.7 267.1L554.7 267L554.85 267.05L640 309.55L640 365.35L554.7 322.8M556.05,392.15L556.05 444.95L520.05 462.95L520 410.2L556.05 392.15M519.5,410.6L519.45 463.35L483.4 445.35L483.4 392.55L519.5 410.6M160.9,284.25L160.9 231.45L176.85 239.4L176.85 236.45L265.9 280.85L265.9 283.8L318.9 310.3L318.9 363.1L160.9 284.25M-20,193.85L-20 141.05L-20 193.85" />
<path style="fill:#8A3D20;fill-opacity:1" d="M-114.15,60.4L-114.1 58.4L-114.1 60.4L-114.15 60.4M-34.4,100.2L-34.35 98.2L-34.35 100.2L-34.4 100.2" />
<path style="fill:#DA9C5F;fill-opacity:1" d="M-579.8,60.55L-579.8 60.45L-596 68.55L-596 68.5L-609.5 75.25L-638.75 89.95L-639.85 90.5L-639.1 90.15L-646.25 93.7L-666.4 103.75L-666.4 103.7L-668.95 104.95L-668.95 104.9L-683 111.95L-719.75 130.3L-756.5 148.7L-765.35 153.15L-786.15 163.55L-786.15 163.45L-786.15 163.5L-793.25 167L-802.35 171.55L-802.35 171.5L-830.6 185.65L-830.6 184.35L-830.6 182.25L-666.4 100.35L-666.4 100.3L-460.05 -2.65L-460.05 -2.7L-241.1 -111.95L-241.1 -108.75L-241.2 -108.7L-241.3 -108.65L-242.05 -108.3L-242.05 -108.15L-242.1 -108.1L-256.25 -101.05L-256.25 -101.1L-278.75 -89.85L-315.5 -71.45M-373.45,-42.45L-373.45 -42.5L-389 -34.75L-389.65 -34.45L-389.65 -34.5L-425.75 -16.4L-432.4 -13.05L-460.05 0.75L-460.05 0.7L-462.6 1.95L-462.6 1.9L-499.25 20.25L-536 38.65M-432.4,-13.05L-433.5 -12.5L-432.4 -13.05M-315.5,-71.45L-352.65 -52.85L-353.75 -52.3L-352.65 -52.85L-373.45 -42.45M-373.45,-42.5L-373.45 -42.55L-373.45 -42.5M-36.15,115.25L-36.2 115.25L-36.2 115L-47.65 109.4L-49.05 108.7L-106.65 79.9L-106.65 80.05L-115.9 75.45L-115.95 75.45L-115.95 75.2L-127.4 69.6L-128.75 68.95L-238.05 14.3L-238.05 14.2L-238.8 13.85L-238.9 13.8L-239 13.75L-239 10.5L-238.95 10.5L-106.65 76.55L-20 119.75Q122.95 191.1 265.9 262.4L519.5 388.95L554.4 371.55L554.4 371.6L554.5 371.65L600 394.35L600 397.85L556.05 375.95L554.4 375.1L554.4 375.05L520 392.25L519.5 392.45L519.5 388.95L519.5 392.45L484.35 374.9L483.4 374.4L483.4 374.45L483.4 376.8L318.9 294.65L318.85 294.6L318.85 292.35L318.85 292.3L318 291.9L317.55 291.7L317.15 291.5L265.9 265.9L265.9 265.95L176.85 221.55L176.85 221.5L160.9 213.55L160.85 213.55L160.85 215.8L-0.05 135.45L-1.35 134.8L-1.35 132.6L-0.85 132.85L-1.85 132.35L-20 123.3M-106.65,46.1L-20 89.3L-20 92.75L-47.65 78.95L-46.55 79.5L-47.65 78.95L-106.65 49.45L-106.65 49.55L-127.4 39.15L-126.3 39.7L-127.4 39.15L-238.05 -16.15L-238.05 -16.25L-238.8 -16.65L-238.9 -16.7L-239 -16.75L-239 -19.95L-106.65 46.1M-128.95,-53.6L-223.85 -101.1L-223.85 -101.05L-238.05 -108.15L-238.05 -108.3L-238.8 -108.65L-238.9 -108.7L-239 -108.75L-239 -111.95L-106.65 -45.9L-20 -2.7L-5.15 4.7L265.9 139.95L519.5 266.5L519.5 269.5L519.5 269.55L518.4 269L500.45 260.15L483.4 251.55L483.4 251.95L483.4 252L481.5 251L265.9 143.45L265.9 143.5L176.85 99.1L176.85 99.05L160.9 91.1L160.85 91.1L-5.1 8.2L-5.15 8.2L-20 0.75L-20 -2.7L-20 0.75L-22.6 -0.5L-47.65 -13.05M554.7,340.95L554.7 341L600 363.6L600 367.1L554.7 344.5L554.7 344.45L554.55 344.55L554.5 344.55L519.5 362L483.4 343.95L483.4 344L265.9 235.45L265.9 235.5L176.85 191.1L176.85 191.05L160.9 183.1L160.85 183.1L-20 92.75L-20 89.3L-5.15 96.7L265.9 231.95L519.5 358.5L519.5 362L519.5 358.5L554.7 340.95M639.3,291.35L639.3 294.85L603.2 276.85L554.75 252.65L554.75 252.6L519.55 270.15L519.55 269.55L519.55 266.65L554.75 249.1L554.75 249.15L639.3 291.35M-20,123.3L-20 119.75L-20 123.3L-36.15 115.25M-106.65,-42.55L-106.65 -42.45L-127.4 -52.85L-126.3 -52.3L-127.4 -52.85L-128.95 -53.6M-48.7,-13.55L-90.45 -34.5L-90.45 -34.45L-106.65 -42.55M-47.65,-13.05L-46.55 -12.5L-47.65 -13.05L-48.7 -13.55M-536,38.65L-559 50.15L-560.1 50.7L-559 50.15L-572.75 57.05L-579.8 60.55M-766.45,153.7L-765.35 153.15L-766.45 153.7" />
<path style="fill:#A05E27;fill-opacity:1" d="M-242.05,-112.55L-241.1 -112.05L-241.1 -111.95L-460.05 -2.7L-460.05 -2.65L-666.4 100.3L-666.4 100.35L-830.6 182.25L-830.6 178.75L-774.65 150.85L-666.4 96.8L-648.05 87.65L-568.3 47.85L-460.05 -6.2L-441.7 -15.35L-361.95 -55.15L-244.55 -113.8L-242.05 -112.5L-242.05 -112.55M-106.65,76.55L-238.95 10.5L-238.35 10.15L-238.2 10.05L-238.15 10.05L-20 118.95L519.5 388.15L554.4 370.75L554.4 368.1L554.5 368.15L554.5 370.65L600 393.35L600 394.35L554.5 371.65L554.4 371.6L554.4 371.55M-5.15,96.7L-20 89.3L-106.65 46.1L-239 -19.95L-239 -20L-238.25 -20.4L-115.9 40.65L-115.9 40.8L-99.75 48.85L-99.75 48.7L-99.7 48.75L-99.7 48.85L-83.55 56.9L-83.55 56.8L-36.15 80.45L-36.15 80.6L-20 88.65L-20 89.3L-20 88.5M265.9,139.95L-5.15 4.7L-20 -2.7L-106.65 -45.9L-239 -111.95L-239 -112.05L-238.05 -112.55L-238.05 -112.5L-235.5 -113.8L-118.1 -55.15L-38.35 -15.35L-20 -6.2L-20 -2.7L-20 -6.2L-5.15 1.2L176.85 92.05L176.85 92L519.5 263L519.5 266.5L265.9 139.95M-20,88.5L-19.95 88.5L-19.95 88.65L-5.15 96.05L-5.15 96.7M519.5,358.5L519.5 357.7L554.7 340.15L554.7 339.95L600 362.55L600 363.6L554.7 341L554.7 340.95L519.5 358.5M554.75,249.15L554.75 249.1L519.55 266.65L519.55 263.15L554.75 245.6L558.1 243.9L558.1 247.3L639.3 287.85L639.3 291.35L554.75 249.15M554.4,371.55L519.5 388.95L519.5 388.15L519.5 388.95L265.9 262.4M265.9,262.4Q122.95 191.1 -20 119.75L-20 118.95L-20 119.75L-106.65 76.55" />
<radialGradient
id="RadialGradID_2025" gradientUnits="userSpaceOnUse" gradientTransform="matrix(0.0318604, -0.00790405, 0.023819, 0.0823059, -130.3, 93.15)" spreadMethod ="pad" cx="0" cy="0" r="819.2" fx="0" fy="0" >
<stop  offset="0"  style="stop-color:#C1723E;stop-opacity:1" />
<stop  offset="0.192157"  style="stop-color:#D68754;stop-opacity:1" />
<stop  offset="0.345098"  style="stop-color:#C9722C;stop-opacity:1" />
<stop  offset="0.513725"  style="stop-color:#BD7546;stop-opacity:1" />
<stop  offset="0.768627"  style="stop-color:#C86A2D;stop-opacity:1" />
<stop  offset="1"  style="stop-color:#985621;stop-opacity:1" />
</radialGradient>
<path style="fill:url(#RadialGradID_2025) " d="M-122.1,60.7L-122.15 60.7L-122.1 60.7M-122,164.3L-118.35 166.15L-121.95 164.45L-122 164.45L-122 164.3" />
<radialGradient
id="RadialGradID_2026" gradientUnits="userSpaceOnUse" gradientTransform="matrix(0.0318604, -0.00790405, 0.023819, 0.0823059, -50.55, 132.95)" spreadMethod ="pad" cx="0" cy="0" r="819.2" fx="0" fy="0" >
<stop  offset="0"  style="stop-color:#C1723E;stop-opacity:1" />
<stop  offset="0.192157"  style="stop-color:#D68754;stop-opacity:1" />
<stop  offset="0.345098"  style="stop-color:#C9722C;stop-opacity:1" />
<stop  offset="0.513725"  style="stop-color:#BD7546;stop-opacity:1" />
<stop  offset="0.768627"  style="stop-color:#C86A2D;stop-opacity:1" />
<stop  offset="1"  style="stop-color:#985621;stop-opacity:1" />
</radialGradient>
<path style="fill:url(#RadialGradID_2026) " d="M-42.4,100.5L-42.35 100.5L-42.4 100.5M-42.25,204.1L-38.6 205.95L-42.2 204.25L-42.25 204.25L-42.25 204.1" />
<path style="fill:#AD6825;fill-opacity:1" d="M-238.05,14.2L-238.05 14.3L-238.05 14.45L-238.05 18.75L-238.05 21.7L-238.05 25.7L-238.05 29.2L-238.05 85L-238.05 88L-238.05 91.5L-238.05 95.5L-238.05 100.1L-238.05 102.15L-238.05 102.3L-240 103.3L-240.05 103.25L-240.05 103.3L-242.05 102.3L-242.05 101.5L-242.05 14.2L-241.95 14.2L-242.05 9.95L-242.05 -108.05L-242.05 -108.15L-242.05 -108.3L-241.3 -108.65L-241.2 -108.7L-241.1 -108.75L-241.1 -111.95L-241.1 -112.05L-242.05 -112.55L-242.05 -112.5L-244.55 -113.8L-244.75 -113.85L-244.75 -122.95L-244.7 -122.95L-240.05 -120.6L-235.4 -122.95L-235.35 -122.95L-235.35 -113.85L-235.5 -113.8L-238.05 -112.5L-238.05 -112.55L-239 -112.05L-239 -111.95L-239 -108.75L-238.9 -108.7L-238.8 -108.65L-238.05 -108.3L-238.05 -108.15L-238.05 -108.05L-238.05 -103.7L-238.05 -100.75L-238.05 -96.75L-238.05 -93.25L-238.05 -37.45L-238.05 -34.45L-238.05 -30.95L-238.05 -26.95L-238.05 -22.35L-238.05 -20.5L-238.25 -20.4L-239 -20L-239 -19.95L-239 -16.75L-238.9 -16.7L-238.8 -16.65L-238.05 -16.25L-238.05 -16.15L-238.05 -16L-238.05 7.4L-238.05 9.95L-238.2 10.05L-238.35 10.15L-238.95 10.5L-239 10.5L-239 13.75L-238.9 13.8L-238.8 13.85L-238.05 14.2M-830.6,185.65L-830.6 394.95L-830.6 399.95L-835.3 402.3L-835.3 185.7L-835.3 176.65L-830.65 174.3L-830.6 174.3L-830.6 178.75L-830.6 182.25L-830.6 184.35L-830.6 185.65" />
<path style="fill:#985621;fill-opacity:1" d="M-244.7,-122.95L-240.05 -125.3L-235.4 -122.95L-240.05 -120.6L-244.7 -122.95M-835.3,171.95Q-832.95 173.1 -830.65 174.3L-835.3 176.65Q-837.6 175.45 -839.95 174.3L-835.3 171.95" />
<path style="fill:#80481C;fill-opacity:1" d="M-835.3,406.2L-840 403.85L-840 183.4L-840 174.3L-839.95 174.3Q-837.6 175.45 -835.3 176.65L-835.3 185.7L-835.3 402.3L-835.3 406.2" />
<path style="fill:#FFFFFF;fill-opacity:1" d="M-425.75,-16.4L-425.75 193.2L-462.5 211.55L-462.6 1.95L-460.05 0.7L-460.05 0.75L-432.4 -13.05L-425.75 -16.4M-352.65,-52.85L-352.25 156.5L-389 174.85L-389 -34.75L-373.45 -42.5L-373.45 -42.45L-352.65 -52.85M-315.5,138.15L-315.5 -71.45L-278.75 -89.85L-278.75 119.8L-315.5 138.15M-609.5,284.9L-609.5 75.25L-596 68.5L-596 68.55L-579.8 60.45L-579.8 60.55L-572.75 57.05L-572.75 266.55L-609.5 284.9M-499.25,229.9L-536 248.2L-536 38.65L-499.25 20.25L-499.25 229.9M-683,321.55L-683 111.95L-668.95 104.9L-668.95 104.95L-666.4 103.7L-666.4 103.75L-646.25 93.7L-646.25 303.25L-683 321.55M-793.25,167L-793.25 376.6L-830 394.95L-830.6 394.95L-830.6 185.65L-802.35 171.5L-802.35 171.55L-793.25 167M-719.75,339.9L-756.5 358.25L-756.5 148.7L-719.75 130.3L-719.75 339.9" />
<path style="fill:#E82424;fill-opacity:1" d="M-499.25,229.9L-499.25 20.25L-462.6 1.9L-462.6 1.95L-462.5 211.55L-499.25 229.9M-425.75,193.2L-425.75 -16.4L-389.65 -34.5L-389.65 -34.45L-389 -34.75L-389 174.85L-425.75 193.2M-315.5,-71.45L-315.5 138.15L-352.25 156.5L-352.65 -52.85L-315.5 -71.45M-242.05,14.2L-242.05 101.5L-278.75 119.8L-278.75 -89.85L-256.25 -101.1L-256.25 -101.05L-242.1 -108.1L-242.05 -108.05L-242.05 9.95L-242.05 14.2M-536,38.65L-536 248.2L-572.75 266.55L-572.75 57.05L-559 50.15L-536 38.65M-638.75,89.95L-609.5 75.25L-609.5 284.9L-646.25 303.25L-646.25 93.7L-639.1 90.15L-638.75 89.95M-756.5,358.25L-793.25 376.6L-793.25 167L-786.15 163.5L-786.15 163.55L-765.35 153.15L-756.5 148.7L-756.5 358.25M-719.75,130.3L-683 111.95L-683 321.55L-719.75 339.9L-719.75 130.3" />
<path style="fill:none;stroke-width:0.5;stroke-linecap:round;stroke-linejoin:round;stroke-miterlimit:3;stroke:#633612;stroke-opacity:1" d="M-460.05,-2.7L-241.1 -111.95M-830.6,182.25L-666.4 100.35M-666.4,100.3L-460.05 -2.65M-432.4,-13.05L-460.05 0.75M-462.5,211.55L-425.75 193.2M-389,174.85L-352.25 156.5L-315.5 138.15L-278.75 119.8L-242.05 101.5M-373.45,-42.45L-352.65 -52.85M176.85,99.05L160.9 91.1L160.85 91.1L-5.1 8.2L-5.15 8.2L-20 0.75M-5.15,4.7L265.9 139.95L519.5 266.5L519.5 269.5L519.5 269.55M483.4,252L481.5 251L265.9 143.45M265.9,143.5L176.85 99.1M-5.15,4.7L-20 -2.7M519.5,358.5L519.5 362M639.3,291.35L639.3 294.85M600,367.1L554.7 344.5M554.7,344.45L554.55 344.55M600,397.85L556.05 375.95M519.5,388.95L519.5 392.45L484.35 374.9M483.4,376.8L318.9 294.65M176.85,221.5L160.9 213.55L160.85 213.55L-0.85 132.85L-1.85 132.35L-20 123.3M160.85,215.8L-0.05 135.45M-127.4,39.15L-106.65 49.55M-106.65,46.1L-239 -19.95M-106.65,-42.45L-127.4 -52.85M-239,-111.95L-106.65 -45.9M-20,89.3L-5.15 96.7M-106.65,80.05L-115.9 75.45L-115.95 75.45M-20,92.75L160.85 183.1L160.9 183.1L176.85 191.05M176.85,191.1L265.9 235.5M-1.35,134.8L-0.05 135.45M-238.95,10.5L-106.65 76.55M-389,174.85L-425.75 193.2M-559,50.15L-572.75 57.05M-830,394.95L-793.25 376.6L-756.5 358.25L-719.75 339.9L-683 321.55L-646.25 303.25L-609.5 284.9L-572.75 266.55L-536 248.2L-499.25 229.9M-579.8,60.55L-572.75 57.05M-638.75,89.95L-639.1 90.15L-646.25 93.7M-462.5,211.55L-499.25 229.9M483.4,251.95L500.45 260.15L518.4 269L519.5 269.5M483.4,251.95L481.5 251M483.4,374.45L484.35 374.9M483.4,374.45L318.85 292.35M318.85,294.6L318.9 294.65M554.75,252.65L603.2 276.85L639.3 294.85M554.5,344.55L519.5 362M554.4,375.1L556.05 375.95M519.5,358.5L554.7 340.95M519.5,388.95L265.9 262.4Q122.95 191.1 -20 119.75M265.9,265.95L176.85 221.55M318.65,292.25L318 291.9L317.55 291.7L317.15 291.5L265.9 265.9M318.65,292.25L318.85 292.35M-666.4,103.75L-646.25 93.7M-765.35,153.15L-786.15 163.55" />
<path style="fill:none;stroke-width:0.5;stroke-linecap:round;stroke-linejoin:round;stroke-miterlimit:3;stroke:#49250E;stroke-opacity:1" d="M-244.55,-113.8L-361.95 -55.15L-441.7 -15.35L-460.05 -6.2L-568.3 47.85L-648.05 87.65L-666.4 96.8L-774.65 150.85L-830.6 178.75M-460.05,0.7L-462.6 1.95M-425.75,-16.4L-432.4 -13.05M-373.45,-42.5L-389 -34.75M-373.45,-42.5L-373.45 -42.55M-389.65,-34.45L-389 -34.75M-425.75,-16.4L-389.65 -34.5M-240,103.3L-238.05 102.3L-238.05 102.15L-238.05 100.1L-238.05 95.5L-238.05 91.5L-238.05 88L-238.05 85L-238.05 29.2L-238.05 25.7L-238.05 21.7L-238.05 18.75L-238.05 14.45M-238.05,10L-238.05 9.95L-238.05 7.4L-238.05 -16M-238.05,-20.5L-238.05 -22.35L-238.05 -26.95L-238.05 -30.95L-238.05 -34.45L-238.05 -37.45L-238.05 -93.25L-238.05 -96.75L-238.05 -100.75L-238.05 -103.7L-238.05 -108.05M-235.5,-113.8L-118.1 -55.15L-38.35 -15.35L-20 -6.2L-5.15 1.2L176.85 92.05M176.85,92L519.5 263L519.5 266.5M-242.05,-108.05L-242.05 9.95M-242.05,14.2L-242.05 101.5L-242.05 102.3L-240.05 103.3M-242.1,-108.1L-256.25 -101.05M-242.1,-108.1L-242.05 -108.15M-223.85,-101.05L-238.05 -108.15M519.55,263.15L554.75 245.6L558.1 243.9M558.1,247.3L639.3 287.85L639.3 291.35M-238.2,10.05L-238.15 10.05L-20 118.95L519.5 388.15L519.5 388.95M-238.05,-16.15L-127.4 39.15M-106.65,49.45L-47.65 78.95M-127.4,-52.85L-128.95 -53.6L-223.85 -101.1M-90.45,-34.45L-106.65 -42.55M-47.65,-13.05L-48.7 -13.55L-90.45 -34.5M-126,70.35L-127.4 69.6L-128.75 68.95L-238.05 14.3M-126,70.35L-115.95 75.45M-47.65,109.4L-46.6 109.95L-36.2 115.25M-47.65,109.4L-49.05 108.7L-106.65 79.9M-242.05,14.2L-242.05 9.95M-499.25,20.25L-462.6 1.9M-499.25,20.25L-536 38.65L-559 50.15M-638.75,89.95L-609.5 75.25L-596 68.5M-596,68.55L-579.8 60.45M558.1,247.3L554.75 245.6M554.5,343.65L554.5 344.55M519.5,388.15L519.5 385.45M554.5,367.95L554.5 368.15L554.4 368.1M554.5,371.65L554.5 370.65M554.5,371.65L554.5 372.75M-786.15,163.45L-786.15 163.5L-793.25 167L-802.35 171.55M-802.35,171.5L-830.6 185.65M-765.35,153.15L-756.5 148.7L-719.75 130.3L-683 111.95L-668.95 104.9M-668.95,104.95L-666.4 103.7M-839.95,174.3Q-837.6 175.45 -835.3 176.65L-835.3 185.7L-835.3 402.3L-830.6 399.95M-839.95,174.3L-840 174.3L-840 183.4L-835.3 185.7M-840,183.4L-840 403.85L-835.3 406.2L-835.3 402.3" />
<path style="fill:none;stroke-width:0.5;stroke-linecap:round;stroke-linejoin:round;stroke-miterlimit:3;stroke:#633612;stroke-opacity:1" d="M-241.1,-108.75L-241.1 -111.95L-241.1 -112.05L-242.05 -112.5L-244.55 -113.8M-830.6,178.75L-830.6 182.25M-315.5,-71.45L-352.65 -52.85M-239,-108.75L-239 -111.95L-239 -112.05L-238.05 -112.5L-235.5 -113.8L-235.35 -113.85L-235.35 -122.95L-235.4 -122.95L-240.05 -120.6M-238.05,14.45L-238.65 14L-238.8 13.85M-239,13.75L-239 10.5M-238.05,-16L-238.6 -16.4L-238.8 -16.65M-239,-16.75L-239 -19.95L-239 -20L-238.25 -20.4L-238.05 -20.5M-238.05,-108.05L-238.55 -108.4L-238.8 -108.65M-20,0.75L-22.6 -0.5M-5.15,22.95L-5.15 19.45L-5.15 15.45L-5.15 12.5L-5.15 8.25L-5.15 8.2L-5.15 4.7M-241.3,-108.65L-241.55 -108.4L-242.05 -108.05M-240.05,103.25L-240.05 103.3L-240 103.3M-256.25,-101.1L-278.75 -89.85M-235.4,-122.95L-240.05 -125.3L-244.7 -122.95L-240.05 -120.6M-244.7,-122.95L-244.75 -122.95L-244.75 -113.85L-244.55 -113.8M-315.5,-71.45L-278.75 -89.85M-5.15,22.95L-5.15 25.95M520,392.25L519.5 392.45M-5.15,96.05L-5.15 93.85L-5.15 89.3L-5.15 85.3L-5.15 81.8L-5.15 78.8L-5.15 25.95M-47.65,78.95L-20 92.75M-20,89.3L-106.65 46.1M-47.65,-13.05L-22.6 -0.5M-106.65,-45.9L-20 -2.7M-5.15,1.2L-5.15 4.7M-5.15,96.7L-5.15 99M265.9,235.5L265.9 235.45L483.4 344L483.4 343.95L519.5 362L519.5 385.45M-36.2,115.25L-36.15 115.25L-20 123.3M-106.65,76.55L-20 119.75M-238.15,10.05L-238.35 10.15M-238.15,10.05L-238.05 10M519.55,270.15L554.75 252.6M554.75,249.1L519.55 266.65M554.7,341L600 363.6M554.4,371.6L554.5 371.65M519.5,388.95L554.4 371.55M520,392.25L554.4 375.05M600,394.35L554.5 371.65M639.3,291.35L554.75 249.15M-830.6,185.65L-830.6 394.95M-830.6,178.75L-830.6 174.3L-830.65 174.3L-835.3 176.65M-835.3,185.7L-831.65 183.9L-831.6 183.9L-830.6 184.35L-830.6 182.25M-830.6,399.95L-830.6 394.95M-830.6,185.65L-830.6 184.35M-830.65,174.3Q-832.95 173.1 -835.3 171.95L-839.95 174.3" />
<path style="fill:none;stroke-width:0.5;stroke-linecap:round;stroke-linejoin:round;stroke-miterlimit:3;stroke:#944B1D;stroke-opacity:1" d="M-240.05,-120.6L-240.05 103.25" />
<path style="fill:none;stroke-width:1;stroke-linecap:round;stroke-linejoin:round;stroke-miterlimit:3;stroke:#633612;stroke-opacity:1" d="M-596,68.5L-596 68.55" />
<path style="fill:none;stroke-width:1;stroke-linecap:round;stroke-linejoin:round;stroke-miterlimit:3;stroke:#FB8A60;stroke-opacity:1" d="M-462.6,1.95L-462.5 211.55M-425.75,193.2L-425.75 -16.4M-352.65,-52.85L-352.25 156.5M-315.5,138.15L-315.5 -71.45M-389,-34.75L-389 174.85M-278.75,-89.85L-278.75 119.8M-572.75,57.05L-572.75 266.55M-536,248.2L-536 38.65M-646.25,93.7L-646.25 303.25M-609.5,284.9L-609.5 75.25M-499.25,229.9L-499.25 20.25M-793.25,376.6L-793.25 167M-756.5,358.25L-756.5 148.7M-683,321.55L-683 111.95M-719.75,339.9L-719.75 130.3" />
</g>
</svg>
