<?xml version="1.0" encoding="utf-8"?>
<svg version="1.1" id="Layer_1"
xmlns="http://www.w3.org/2000/svg"
xmlns:xlink="http://www.w3.org/1999/xlink"
xmlns:author="http://www.sothink.com"
width="19px" height="44px"
xml:space="preserve">
<g id="422" transform="matrix(1, 0, 0, 1, -0.9, 51.2)">
<path style="fill:#8C7A48;fill-opacity:1" d="M18.45,-47.2Q17.25 -46.3 15.1 -46.3Q13.7 -46.3 12.55 -46.8L11.85 -47Q12.2 -48.9 14.4 -49.9Q16.15 -50.7 17.8 -50.7Q18.35 -50.7 18.7 -50.35L19.2 -49.7L18.85 -47.55L18.45 -47.2M8,-42.8Q6.8 -41.9 4.65 -41.9Q3.25 -41.9 2.1 -42.4L1.4 -42.6Q1.75 -44.5 3.95 -45.5Q5.7 -46.3 7.35 -46.3Q7.9 -46.3 8.25 -45.95L8.75 -45.3L8.4 -43.15L8 -42.8M2.1,-25.6L2.6 -25.4L3.2 -25.25L4.15 -25.1L4.45 -25.1L4.45 -8.3L3 -8.5L2.1 -8.8L2.1 -10.15L2.1 -24.5L2.1 -25.6M14.9,-12.7L13.45 -12.9Q12.95 -13 12.55 -13.2L12.55 -14.55L12.55 -28.9L12.55 -30L13.05 -29.8L13.65 -29.65L14.6 -29.5L14.9 -29.5L14.9 -12.7" />
<path style="fill:#96834B;fill-opacity:1" d="M14.9,-12.7L14.9 -29.5L14.6 -29.5L13.65 -29.65L13.05 -29.8L12.55 -30L12.55 -31.9L12.55 -33.2L12.55 -33.25L12.55 -46.8Q13.7 -46.3 15.1 -46.3Q17.25 -46.3 18.45 -47.2L18.85 -47.55L18.85 -33.75L18.85 -30.75L18.85 -16.95L19.2 -16.15Q19.65 -14.5 18.45 -13.6Q17.25 -12.7 15.1 -12.7L14.9 -12.7M2.1,-28.85L2.1 -42.4Q3.25 -41.9 4.65 -41.9Q6.8 -41.9 8 -42.8L8.4 -43.15L8.4 -29.35L8.4 -26.35L8.4 -12.55L8.75 -11.75Q9.2 -10.1 8 -9.2Q6.8 -8.3 4.65 -8.3L4.45 -8.3L4.45 -25.1L4.15 -25.1L3.2 -25.25L2.6 -25.4L2.1 -25.6L2.1 -27.5L2.1 -28.85" />
<path style="fill:none;stroke-width:1;stroke-linecap:round;stroke-linejoin:round;stroke-miterlimit:3;stroke:#555E4D;stroke-opacity:1" d="M18.85,-33.75L18.85 -47.55L19.2 -49.7L18.7 -50.35Q18.35 -50.7 17.8 -50.7Q16.15 -50.7 14.4 -49.9Q12.2 -48.9 11.85 -47L12.55 -46.8Q13.7 -46.3 15.1 -46.3Q17.25 -46.3 18.45 -47.2L18.85 -47.55Q19.55 -48.4 19.2 -49.7M8.4,-26.35Q9.3 -27.5 8.4 -29.35L8.4 -43.15L8.75 -45.3L8.25 -45.95Q7.9 -46.3 7.35 -46.3Q5.7 -46.3 3.95 -45.5Q1.75 -44.5 1.4 -42.6L2.1 -42.4Q3.25 -41.9 4.65 -41.9Q6.8 -41.9 8 -42.8L8.4 -43.15Q9.1 -44 8.75 -45.3M2.1,-27.5L2.1 -25.6L2.6 -25.4M2.1,-27.5L2.1 -28.85L2.1 -42.4M3.2,-25.25L4.15 -25.1L4.45 -25.1L4.65 -25.1Q6.8 -25.1 8 -26L8.4 -26.35L8.4 -29.35M2.1,-24.5L2.1 -10.15L2.1 -8.8L3 -8.5L4.45 -8.3L4.65 -8.3Q6.8 -8.3 8 -9.2Q9.2 -10.1 8.75 -11.75L8.4 -12.55L8.4 -26.35M12.55,-28.9L12.55 -30L12.55 -31.9L12.55 -33.2M12.55,-33.25L12.55 -46.8M13.65,-29.65L14.6 -29.5L14.9 -29.5L15.1 -29.5Q17.25 -29.5 18.45 -30.4L18.85 -30.75L18.85 -33.75Q19.75 -31.9 18.85 -30.75L18.85 -16.95L19.2 -16.15Q19.65 -14.5 18.45 -13.6Q17.25 -12.7 15.1 -12.7L14.9 -12.7M12.55,-30L13.05 -29.8M12.55,-28.9L12.55 -14.55L12.55 -13.2Q12.95 -13 13.45 -12.9L14.9 -12.7M2.1,-24.5L2.1 -25.6" />
<path style="fill:none;stroke-width:1;stroke-linecap:round;stroke-linejoin:round;stroke-miterlimit:3;stroke:#555E4D;stroke-opacity:1" d="M2.6,-25.4L2.1 -25.6L2 -25.65Q1.45 -25.8 1.45 -26.55Q1.45 -27.3 2.1 -27.5M2.6,-25.4L3.2 -25.25M12.55,-31.9Q11.9 -31.7 11.9 -30.95Q11.9 -30.2 12.45 -30.05L12.55 -30L13.05 -29.8L13.65 -29.65M13.45,-12.9L12.15 -13.2L12.55 -14.55M3,-8.5Q2.65 -8.4 1.7 -8.8L2.1 -10.15" />
</g>
</svg>
