<?xml version="1.0" encoding="utf-8"?>
<svg version="1.1" id="Layer_1"
xmlns="http://www.w3.org/2000/svg"
xmlns:xlink="http://www.w3.org/1999/xlink"
xmlns:author="http://www.sothink.com"
width="18px" height="26px"
xml:space="preserve">
<g id="693" transform="matrix(1, 0, 0, 1, 11.8, 14.35)">
<path style="fill:#FFFB62;fill-opacity:1" d="M-0.35,7.1L-4.5 6.3L-0.05 6.3L-1 2.45L1.05 5.9L3.05 3.3L1.7 6.55L5.7 7.55L1.5 7.6L2.2 11.25L0.45 7.75L-1.9 10.35L-0.35 7.1" />
<path style="fill:#FF9C4D;fill-opacity:1" d="M-8.5,-9.4L-11.8 -7.35L-8.75 -10.2L-11.75 -12.4L-8.2 -11.2L-8.4 -14.35L-7.35 -11.1L-3.95 -12.8L-6.8 -10.15L-4.1 -7.9L-7.5 -9.4L-7.55 -6L-8.5 -9.4" />
</g>
</svg>
