<?xml version="1.0" encoding="utf-8"?>
<svg version="1.1" id="Layer_1"
xmlns="http://www.w3.org/2000/svg"
xmlns:xlink="http://www.w3.org/1999/xlink"
xmlns:author="http://www.sothink.com"
width="34px" height="13px"
xml:space="preserve">
<g id="80" transform="matrix(1, 0, 0, 1, 16.95, 6.2)">
<path style="fill:#586A7C;fill-opacity:1" d="M-16.7,-5.95L-0.45 -3.25L0.15 -3.15L0.85 -3.05L1.05 -3.05Q4.6 -2.9 5.7 -0.65Q6.55 1.05 10.2 2.1Q16.6 4.15 16.7 4.95L16.7 5.95L-0.7 3.05L-16.7 -4.95L-16.7 -5.95" />
<path style="fill:none;stroke-width:0.5;stroke-linecap:round;stroke-linejoin:round;stroke-miterlimit:3;stroke:#CCCCCC;stroke-opacity:1" d="M15.35,4.75Q14.95 3.9 8.85 1.95Q5.2 0.9 4.35 -0.8Q3.45 -2.6 1.05 -3.05L0.15 -3.15L-0.45 -3.25" />
<path style="fill:none;stroke-width:0.5;stroke-linecap:round;stroke-linejoin:round;stroke-miterlimit:3;stroke:#000000;stroke-opacity:1" d="M0.15,-3.15L0.85 -3.05L1.05 -3.05Q4.6 -2.9 5.7 -0.65Q6.55 1.05 10.2 2.1Q16.6 4.15 16.7 4.95L16.7 5.95L-0.7 3.05L-16.7 -4.95L-16.7 -5.95M-0.45,-3.25L-16.7 -5.95L-0.7 2.05M-0.7,3.05L-0.7 2.05" />
<path style="fill:none;stroke-width:0.5;stroke-linecap:round;stroke-linejoin:round;stroke-miterlimit:3;stroke:#999999;stroke-opacity:1" d="M-0.7,2.05L15.35 4.75L16.7 4.95" />
<path style="fill:none;stroke-width:1.25;stroke-linecap:round;stroke-linejoin:round;stroke-miterlimit:3;stroke:#999999;stroke-opacity:1" d="M-8.95,-3.05L2.65 -1.2" />
</g>
</svg>
