<?xml version="1.0" encoding="utf-8"?>
<svg version="1.1" id="Layer_1"
xmlns="http://www.w3.org/2000/svg"
xmlns:xlink="http://www.w3.org/1999/xlink"
xmlns:author="http://www.sothink.com"
width="39px" height="53px"
xml:space="preserve">
<g id="589" transform="matrix(1, 0, 0, 1, 13.55, 43.35)">
<path style="fill:#999999;fill-opacity:1" d="M19.2,-6.45Q24.55 -3.85 24.55 -0.05Q24.55 3.7 19.2 6.3Q13.85 8.95 6.3 8.95Q-1.25 8.95 -6.6 6.3Q-11.95 3.7 -11.95 -0.05Q-11.95 -3.85 -6.6 -6.45Q-1.25 -9.1 6.3 -9.1Q13.85 -9.1 19.2 -6.45" />
<path style="fill:#CCCCCC;fill-opacity:1" d="M-13.05,-35.15L-13.05 -35.4L-13.05 -35.6Q-12.65 -38.45 -9.3 -40.5Q-5.5 -42.85 -0.1 -42.85L0.6 -42.85L4.1 -42.45Q6.85 -41.9 9.05 -40.5Q12.4 -38.45 12.9 -35.6L12.9 -35.4L12.9 -34.9Q12.5 -32.1 9.15 -30Q7 -28.7 4.35 -28.1L4.4 -27.55L6.95 -28.35L7.05 -28.4L7.15 -28.4L7.45 -28.4L7.55 -28.35L7.6 -28.3L7.65 -28.2L7.7 -28.1Q6.4 -26.35 4.4 -25.7L4.45 -24.4L4.45 -23.8L7.6 -24.75L7.75 -24.7L7.8 -24.75L7.9 -24.7L7.95 -24.7L8 -24.6L8.05 -24.5Q7.05 -23.05 5.4 -22.1L4.5 -21.75L5.05 7.05L1.75 7.6L-0.05 7.7Q-5.45 7.65 -9.25 5.35Q-13 3 -13.05 -0.2L-13.05 -30.6L-13.05 -35.15" />
<path style="fill:#B8B8B8;fill-opacity:1" d="M12.95,-0.2Q12.85 3 9.15 5.35Q7.25 6.45 5.05 7.05L4.5 -21.75L5.4 -22.1Q7.05 -23.05 8.05 -24.5L8 -24.6L7.95 -24.7L7.9 -24.7L7.8 -24.75L7.75 -24.7L7.6 -24.75L4.45 -23.8L4.45 -24.4L4.4 -25.7Q6.4 -26.35 7.7 -28.1L7.65 -28.2L7.6 -28.3L7.55 -28.35L7.45 -28.4L7.15 -28.4L7.05 -28.4L6.95 -28.35L4.4 -27.55L4.35 -28.1Q7 -28.7 9.15 -30Q12.5 -32.1 12.9 -34.9L12.9 -30.45L12.95 -0.2" />
<path style="fill:none;stroke-width:1;stroke-linecap:round;stroke-linejoin:round;stroke-miterlimit:3;stroke:#737373;stroke-opacity:1" d="M12.9,-35.6Q12.4 -38.45 9.05 -40.5Q6.85 -41.9 4.1 -42.45L0.6 -42.85L-0.1 -42.85Q-5.5 -42.85 -9.3 -40.5Q-12.65 -38.45 -13.05 -35.6L-13.05 -35.4L-13.05 -35.15Q-12.75 -32.15 -9.25 -30Q-5.45 -27.65 -0.05 -27.65L0.95 -27.65L4.35 -28.1Q7 -28.7 9.15 -30Q12.5 -32.1 12.9 -34.9L12.9 -35.4M4.45,-24.4Q7 -24.9 9.05 -26.05Q11 -27.1 11.95 -28.35L12.8 -30.1L12.9 -30.45L12.9 -34.9M4.45,-24.4L1.05 -24L-0.1 -23.95Q-5.5 -23.95 -9.3 -26.05Q-12.8 -27.95 -13.05 -30.6L-13.05 -0.2Q-13 3 -9.25 5.35Q-5.45 7.65 -0.05 7.7L1.75 7.6L5.05 7.05Q7.25 6.45 9.15 5.35Q12.85 3 12.95 -0.2L12.9 -30.45M-13.05,-35.15L-13.05 -30.6" />
</g>
</svg>
