<?xml version="1.0" encoding="utf-8"?>
<svg version="1.1" id="Layer_1"
xmlns="http://www.w3.org/2000/svg"
xmlns:xlink="http://www.w3.org/1999/xlink"
xmlns:author="http://www.sothink.com"
width="121px" height="163px"
xml:space="preserve">
<g id="248" transform="matrix(1, 0, 0, 1, 70.6, 122)">
<path style="fill:#999999;fill-opacity:1" d="M7.2,-121.3Q7.45 -121.6 7.85 -121.7L9.1 -121.55L46.15 -102.1L46.7 -101.65L47.65 -101.95L47.7 -101.95Q48.35 -102 48.85 -101.6L49.3 -100.8L49.4 -100.6Q49.7 -99.95 49.5 -99.25L49.3 -98.85L49.2 -67.9L48.75 -66.95L48.55 -66.8L48.85 -66.6L49.3 -65.8L49.4 -65.6Q49.7 -64.95 49.5 -64.25L49.3 -63.85L49.2 -32.9L48.75 -31.95L48.55 -31.8L48.85 -31.6L49.3 -30.8L49.4 -30.6Q49.7 -29.95 49.5 -29.25L49.3 -28.85L49.2 2.1L48.75 3.05L47.6 3.5L47.55 3.5Q46.9 3.5 46.45 3.1Q45.95 2.75 45.95 2.25L46.05 -27.1L10.55 -10.5L10.45 20.2L10 21.15L9.6 21.4L8.6 21.75L8.55 21.75Q7.9 21.75 7.45 21.35Q6.95 21 6.95 20.5L7.05 -8.85L-28.25 7.65L-28.45 7.7L-28.55 38.45Q-28.55 38.95 -29 39.4Q-29.5 39.8 -30.15 39.85L-30.2 39.85Q-30.85 39.85 -31.3 39.45Q-31.8 39.1 -31.8 38.6L-31.7 7.8L-32.1 7.65L-67 -10.65L-67.1 18.95Q-67.1 19.45 -67.55 19.9Q-68.05 20.3 -68.7 20.35L-68.75 20.35Q-69.4 20.35 -69.85 19.95Q-70.35 19.6 -70.35 19.1L-70.25 -13.7L-70.15 -14.15L-70.05 -14.7L-69.9 -15.1Q-70.35 -15.4 -70.35 -15.9L-70.25 -48.7L-70.15 -49.15L-70.05 -49.7L-69.9 -50.1Q-70.35 -50.4 -70.35 -50.9L-70.25 -83.7L-70.15 -84.15L-70.05 -84.7Q-69.85 -85.4 -69.2 -85.7L-31.75 -103.2L-31.55 -103.2Q-31.3 -103.5 -30.9 -103.6L-30.7 -103.65L-30.45 -103.8L7 -121.3L7.2 -121.3M43.6,-99.8L10.5 -117.15L10.4 -87.15Q10.4 -86.65 9.95 -86.2L9.85 -86.15L12 -85L43.6 -99.8M10.45,-50.85L12 -50L43.6 -64.8L12.2 -81.25L10.55 -80.5L10.45 -50.85M12.2,-46.25L10.55 -45.5L10.45 -14.8L10.3 -14.25L43.6 -29.8L12.2 -46.25M46.05,-62.1L15.9 -48L46.15 -32.1L46.35 -32Q45.95 -32.3 45.95 -32.75L46.05 -62.1M15.9,-83L46.15 -67.1L46.35 -67Q45.95 -67.3 45.95 -67.75L46.05 -97.1L15.9 -83M46.6,-66.75L46.7 -66.65L46.75 -66.7L46.6 -66.75M4.9,-85.3L7 -86.3L7.2 -86.3L7.35 -86.45L7.15 -87L7.25 -117.55L-26.45 -101.75L4.9 -85.3M-28.35,-69.75L0.95 -83.45L-28.25 -98.75L-28.35 -69.75M4.9,-50.3L6.95 -51.3L7.05 -78.85L-22.85 -64.9L4.9 -50.3M-28.35,-34.75L0.95 -48.45L-26.85 -63L-28.25 -62.35L-28.35 -34.75M-28.65,3.95L4.55 -11.55L-26.85 -28L-28.25 -27.35L-28.35 0.85L-28.35 0.95L-28.55 1.6L-28.55 3.45L-28.65 3.95M7,-14.2L6.95 -14.5L7.05 -43.85L-22.85 -29.9L7 -14.2M46.75,-31.7L46.6 -31.75L46.7 -31.65L46.75 -31.7M-31.8,-33.2L-31.7 -62.2L-32.1 -62.35L-33.9 -63.3L-65.5 -48.55L-34.15 -32.1L-31.8 -33.2M-34.15,-67.1L-31.75 -68.2L-31.55 -68.2L-31.4 -68.35L-31.6 -68.9L-31.6 -69L-31.5 -99.45L-65.5 -83.55L-34.15 -67.1M-67.1,-51.65L-37.85 -65.35L-67 -80.65L-67.1 -51.65M-37.85,-30.35L-67 -45.65L-67.1 -16.65L-37.85 -30.35M-31.45,4.35L-31.8 3.6L-31.7 -27.2L-32.1 -27.35L-33.9 -28.3L-65.5 -13.55L-31.45 4.35" />
<path style="fill:none;stroke-width:0.5;stroke-linecap:round;stroke-linejoin:round;stroke-miterlimit:3;stroke:#666666;stroke-opacity:1" d="M46.7,-101.65L46.15 -102.1L9.1 -121.55L7.85 -121.7Q7.45 -121.6 7.2 -121.3L6.95 -120.9L6.9 -120.85Q6.6 -120.25 6.85 -119.6L7.25 -119L7.75 -118.6L10.5 -117.15L43.6 -99.8L46.15 -101L46.55 -101.5L46.7 -101.65L47.65 -101.95L47.7 -101.95Q48.35 -102 48.85 -101.6L49.3 -100.8L49.4 -100.6Q49.7 -99.95 49.5 -99.25L49.3 -98.85L49.2 -67.9L48.75 -66.95L48.55 -66.8L48.85 -66.6L49.3 -65.8L49.4 -65.6Q49.7 -64.95 49.5 -64.25L49.3 -63.85L49.2 -32.9L48.75 -31.95L48.55 -31.8L48.85 -31.6L49.3 -30.8L49.4 -30.6Q49.7 -29.95 49.5 -29.25L49.3 -28.85L49.2 2.1L48.75 3.05L47.6 3.5L47.55 3.5Q46.9 3.5 46.45 3.1Q45.95 2.75 45.95 2.25L46.05 -27.1L10.55 -10.5L10.45 20.2L10 21.15L9.6 21.4L8.6 21.75L8.55 21.75Q7.9 21.75 7.45 21.35Q6.95 21 6.95 20.5L7.05 -8.85L-28.25 7.65L-28.45 7.7L-28.55 38.45Q-28.55 38.95 -29 39.4Q-29.5 39.8 -30.15 39.85L-30.2 39.85Q-30.85 39.85 -31.3 39.45Q-31.8 39.1 -31.8 38.6L-31.7 7.8L-32.1 7.65L-67 -10.65L-67.1 18.95Q-67.1 19.45 -67.55 19.9Q-68.05 20.3 -68.7 20.35L-68.75 20.35Q-69.4 20.35 -69.85 19.95Q-70.35 19.6 -70.35 19.1L-70.25 -13.7L-70.15 -14.15L-70.05 -14.7L-69.9 -15.1Q-70.35 -15.4 -70.35 -15.9L-70.25 -48.7L-70.15 -49.15L-70.05 -49.7L-69.9 -50.1Q-70.35 -50.4 -70.35 -50.9L-70.25 -83.7L-70.15 -84.15L-70.05 -84.7Q-69.85 -85.4 -69.2 -85.7L-31.75 -103.2M-31.55,-103.2Q-31.3 -103.5 -30.9 -103.6L-30.7 -103.65L-30.45 -103.8L7 -121.3M7.35,-86.45L7.15 -87L7.25 -117.55L7.25 -119M49.3,-100.8L48.4 -101.5L47.15 -101.45L46.15 -101M46.35,-67Q45.95 -67.3 45.95 -67.75L46.05 -97.1L48.6 -98.3L49.3 -98.85M48.55,-66.8L48.1 -66.6L48.4 -66.5L49.3 -65.8M48.1,-66.6L47.6 -66.5L47.55 -66.5L47.3 -66.5L47.15 -66.45L46.15 -66L43.6 -64.8L12 -50L10.3 -49.25L10 -48.85L9.8 -48.7L10.1 -48.5L10.55 -47.7L10.65 -47.5Q10.95 -46.85 10.75 -46.15L10.55 -45.75L10.55 -45.5L12.2 -46.25L15.9 -48L46.05 -62.1L48.6 -63.3L49.3 -63.85M46.6,-66.75L46.7 -66.65L46.75 -66.7L46.6 -66.75L46.45 -66.9L46.35 -67L46.15 -67.1L15.9 -83L12.2 -81.25L43.6 -64.8M46.7,-66.65L46.55 -66.5L46.15 -66M46.05,-97.1L15.9 -83M47.3,-66.5L46.75 -66.7M7.9,-83.55L7.9 -83.5L7.8 -83.4L7.4 -82.9L8.4 -83.35L9.65 -83.4L9.9 -83.3L10.55 -82.7L10.1 -83.5L9.4 -83.8L8.95 -83.85L8.9 -83.85L7.95 -83.55L7.9 -83.55M10.5,-117.15L10.4 -87.15Q10.4 -86.65 9.95 -86.2L9.85 -86.15Q9.4 -85.8 8.8 -85.75L8.75 -85.75Q8.1 -85.75 7.65 -86.15L7.35 -86.45L7.2 -86.3L6.95 -85.9L6.9 -85.85Q6.6 -85.25 6.85 -84.6L7.1 -84.15L7.4 -84L7.95 -83.55M9.85,-86.15L12 -85L43.6 -99.8M7,-86.3L4.9 -85.3L7.1 -84.15M0.95,-83.45L4.55 -81.55L4.85 -81.7L-28.25 -99.05L-28.25 -98.75L0.95 -83.45L-28.35 -69.75L-28.35 -69.15L-28.35 -69.05Q-28.35 -68.55 -28.8 -68.1L-28.85 -68.05L-26.75 -66.95L4.55 -81.55M6.95,-51.3L6.95 -50.95L6.95 -49.5L6.95 -49.35L7 -49.2L7.4 -49L7.6 -48.9Q7.2 -49.2 7.2 -49.65L7.3 -79L7.05 -78.85L6.95 -51.3L4.9 -50.3L7 -49.2M10.45,-50.85L10.55 -80.5L10.55 -80.75L10.3 -80.45L9.85 -80.2L7.3 -79M7.4,-82.9L4.85 -81.7M10.55,-80.5L12.2 -81.25M10.55,-82.7L10.65 -82.5Q10.95 -81.85 10.75 -81.15L10.55 -80.75M7.25,-117.55L-26.45 -101.75L4.9 -85.3M9.4,-83.8L12 -85M12,-50L10.45 -50.85L10.45 -49.8L10.3 -49.25M6.95,-49.35L6.85 -49.6Q6.6 -50.25 6.9 -50.85L6.95 -50.95M4.55,-11.55L-26.85 -28L-26.55 -28.15L-22.85 -29.9L7.05 -43.85L7.3 -44L9.85 -45.2L10.3 -45.45L10.55 -45.75M9.8,-48.7L9.4 -48.5L9.45 -48.5L9.65 -48.4L9.9 -48.3L10.55 -47.7M7.6,-48.9L7.7 -48.8L7.85 -48.65L8 -48.6L8.55 -48.4L8.8 -48.4L8.85 -48.4L9.4 -48.5M7.85,-48.65L7.95 -48.55L8 -48.6M7.95,-48.55L7.8 -48.4L7.4 -47.9L8.4 -48.35L8.55 -48.4M0.95,-48.45L4.55 -46.55L4.85 -46.7L-26.55 -63.15L-26.85 -63L0.95 -48.45L-28.35 -34.75L-28.35 -34.15L-28.35 -34.05L-28.55 -33.4L-28.55 -32.85L-26.75 -31.95L4.55 -46.55M7.4,-47.9L4.85 -46.7M10.55,-45.5L10.45 -14.8L10.3 -14.25L43.6 -29.8L12.2 -46.25M7.05,-8.85L7.3 -9L9.85 -10.2L10.3 -10.45L10.55 -10.75L10.75 -11.15Q10.95 -11.85 10.65 -12.5L10.55 -12.7L9.9 -13.3L9.65 -13.4L9.45 -13.5L9.4 -13.5L8.85 -13.4L8.8 -13.4L8.55 -13.4L8.4 -13.35L7.4 -12.9L4.85 -11.7L4.55 -11.55L-28.65 3.95L-29 4.4L-29.2 4.55L-28.9 4.75Q-28.5 5.15 -28.45 5.7L-28.45 7.7M7.05,-43.85L6.95 -14.5L7 -14.2L7.4 -14L7.6 -13.9Q7.2 -14.2 7.2 -14.65L7.3 -44M7.85,-13.65L7.95 -13.55L8 -13.6L7.85 -13.65L7.7 -13.8L7.6 -13.9M7.4,-12.9L7.8 -13.4L7.95 -13.55M8.55,-13.4L8 -13.6M10.3,-14.25L10 -13.85L9.8 -13.7L10.1 -13.5L10.55 -12.7M9.8,-13.7L9.4 -13.5M10.55,-10.5L10.55 -10.75M15.9,-48L46.15 -32.1L46.35 -32Q45.95 -32.3 45.95 -32.75L46.05 -62.1M46.75,-31.7L46.6 -31.75L46.7 -31.65L46.75 -31.7L47.3 -31.5L47.55 -31.5L47.6 -31.5L48.1 -31.6L48.55 -31.8M46.35,-32L46.45 -31.9L46.6 -31.75M46.7,-31.65L46.55 -31.5L46.15 -31L47.15 -31.45L47.3 -31.5M48.1,-31.6L48.4 -31.5L49.3 -30.8M49.3,-28.85L48.6 -28.3L46.05 -27.1M43.6,-29.8L46.15 -31M7.3,-9L7.2 20.35Q7.2 20.85 7.7 21.2Q8.15 21.6 8.8 21.6L8.85 21.6L9.6 21.4M-31.55,-103.2L-31.8 -102.8L-31.85 -102.75Q-32.15 -102.15 -31.9 -101.5L-31.5 -100.9L-31.1 -100.55L-31 -100.5L-28.25 -99.05M-30.7,-103.65L-29.65 -103.45L-26.45 -101.75M-67.15,-84.4L-65.5 -83.55L-31.5 -99.45L-31.6 -69L-31.6 -68.9L-31.4 -68.35L-31.1 -68.05Q-30.65 -67.65 -30 -67.65L-29.95 -67.65Q-29.35 -67.7 -28.85 -68.05M-28.55,-33.4L-28.45 -62.3L-28.45 -64.3Q-28.5 -64.85 -28.9 -65.25L-29.65 -65.55L-30.05 -65.6L-30.1 -65.6L-30.85 -65.4L-30.9 -65.4L-31.2 -65.15Q-31.65 -64.8 -31.7 -64.35L-31.7 -64.2L-31.7 -62.2L-31.8 -33.2L-31.8 -32.85L-31.8 -31.4L-31.8 -31.25L-31.45 -30.7L-31.3 -30.55L-31 -30.35L-30.2 -30.15L-30.15 -30.15L-29.2 -30.45L-29 -30.6L-28.65 -31.05L-28.55 -31.55L-28.55 -32.85M-26.85,-63L-28.25 -62.35L-28.45 -62.3M-29.65,-65.55L-26.75 -66.95M-28.25,-62.35L-28.35 -34.75M7.05,-78.85L-22.85 -64.9L-26.55 -63.15M-31.4,-68.35L-31.55 -68.2L-31.8 -67.8L-31.85 -67.75Q-32.15 -67.15 -31.9 -66.5L-31.5 -65.9L-31.1 -65.55L-31 -65.5L-30.85 -65.4M-31.75,-68.2L-34.15 -67.1L-30.9 -65.4M-31.7,-62.2L-32.1 -62.35L-33.9 -63.3L-65.5 -48.55L-34.15 -32.1L-31.8 -33.2M-33.9,-63.3L-37.85 -65.35L-67.1 -51.65L-67.1 -51.05Q-67.1 -50.55 -67.55 -50.1L-67.75 -49.95L-67.45 -49.75L-67.15 -49.4L-65.5 -48.55M-28.35,-69.75L-28.25 -98.75M-37.85,-65.35L-67 -80.65L-69.15 -81.8Q-69.8 -82.1 -70.05 -82.8Q-70.3 -83.45 -70 -84.05L-70 -84.1Q-69.7 -84.7 -69.05 -84.9L-67.8 -84.75L-67.15 -84.4L-67.45 -84.75Q-67.95 -85.15 -68.6 -85.1L-68.65 -85.1L-69.75 -84.65L-70.15 -84.15M-65.5,-83.55L-34.15 -67.1M-70.15,-49.15L-69.75 -49.65L-69.55 -49.85L-69.85 -50.05L-69.9 -50.1M-69.55,-49.85L-69.35 -49.75L-68.75 -49.65L-68.7 -49.65L-68 -49.8L-67.75 -49.95M-68,-49.8L-67.8 -49.75L-67.15 -49.4M-67,-80.65L-67.1 -51.65M-69.9,-15.1L-69.85 -15.05L-69.55 -14.85L-69.35 -14.75L-68.75 -14.65L-68.7 -14.65L-68 -14.8L-67.75 -14.95L-67.55 -15.1Q-67.1 -15.55 -67.1 -16.05L-67.1 -16.65L-67 -45.65L-69.15 -46.8Q-69.8 -47.1 -70.05 -47.8Q-70.3 -48.45 -70 -49.05L-70 -49.1L-69.35 -49.75M-67,-45.65L-37.85 -30.35L-33.9 -28.3L-32.1 -27.35L-31.7 -27.2L-31.7 -29.2L-31.7 -29.35Q-31.65 -29.8 -31.2 -30.15L-31 -30.35M-69.35,-14.75L-70 -14.1L-70 -14.05Q-70.3 -13.45 -70.05 -12.8Q-69.8 -12.1 -69.15 -11.8L-67 -10.65M-70.15,-14.15L-69.75 -14.65L-69.55 -14.85M-67.75,-14.95L-67.45 -14.75L-67.15 -14.4L-65.5 -13.55L-33.9 -28.3M-67.15,-14.4L-67.8 -14.75L-68 -14.8M-31.8,-31.25L-31.9 -31.5Q-32.15 -32.15 -31.85 -32.75L-31.8 -32.85M-34.15,-32.1L-31.45 -30.7M-28.65,-31.05L-26.75 -31.95M-28.25,-27.35L-28.35 0.85L-28.35 0.95L-28.55 1.6L-28.45 -27.3L-28.45 -29.3Q-28.5 -29.85 -28.9 -30.25L-29.2 -30.45M-26.85,-28L-28.25 -27.35L-28.45 -27.3M-28.55,1.6L-28.55 3.45L-28.65 3.95M-37.85,-30.35L-67.1 -16.65M-31.7,-27.2L-31.8 3.6L-31.45 4.35L-31.3 4.45L-31 4.65L-30.2 4.85L-30.15 4.85L-29.2 4.55M-31.45,4.35L-65.5 -13.55M-31.7,7.8L-31.7 5.8Q-31.7 5.25 -31.2 4.85L-31 4.65M7,-14.2L-22.85 -29.9M-26.55,-28.15L4.85 -11.7M-22.85,-64.9L4.9 -50.3" />
</g>
</svg>
