<?xml version="1.0" encoding="utf-8"?>
<svg version="1.1" id="Layer_1"
xmlns="http://www.w3.org/2000/svg"
xmlns:xlink="http://www.w3.org/1999/xlink"
xmlns:author="http://www.sothink.com"
width="13px" height="4px"
xml:space="preserve">
<g id="127" transform="matrix(1, 0, 0, 1, 0.5, 0.5)">
<path style="fill:#666666;fill-opacity:1" d="M11.15,0.35Q11.5 0.7 11.5 1.25Q11.5 1.8 11.15 2.15L10.25 2.5Q9.75 2.5 9.4 2.15Q9 1.8 9 1.25Q9 0.7 9.4 0.35Q9.75 0 10.25 0Q10.8 0 11.15 0.35M1.25,2.5L0.4 2.15Q0 1.8 0 1.25Q0 0.7 0.4 0.35Q0.75 0 1.25 0Q1.8 0 2.15 0.35L2.5 1.25L2.15 2.15Q1.8 2.5 1.25 2.5" />
<path style="fill:none;stroke-width:1;stroke-linecap:round;stroke-linejoin:round;stroke-miterlimit:3;stroke:#333333;stroke-opacity:1" d="M11.15,0.35Q11.5 0.7 11.5 1.25Q11.5 1.8 11.15 2.15L10.25 2.5Q9.75 2.5 9.4 2.15Q9 1.8 9 1.25Q9 0.7 9.4 0.35Q9.75 0 10.25 0Q10.8 0 11.15 0.35M1.25,2.5L0.4 2.15Q0 1.8 0 1.25Q0 0.7 0.4 0.35Q0.75 0 1.25 0Q1.8 0 2.15 0.35L2.5 1.25L2.15 2.15Q1.8 2.5 1.25 2.5" />
</g>
</svg>
