<?xml version="1.0" encoding="utf-8"?>
<svg version="1.1" id="Layer_1"
xmlns="http://www.w3.org/2000/svg"
xmlns:xlink="http://www.w3.org/1999/xlink"
xmlns:author="http://www.sothink.com"
width="649px" height="123px"
xml:space="preserve">
<g id="1037" transform="matrix(1, 0, 0, 1, 0.5, 0.5)">
<linearGradient
id="LinearGradID_3154" gradientUnits="userSpaceOnUse" gradientTransform="matrix(0.397644, -0.0244293, 0.00601196, 0.0978394, 239, 44.65)" spreadMethod ="pad" x1="-819.2" y1="0" x2="819.2" y2="0" >
<stop  offset="0.137255" style="stop-color:#FFF7D7;stop-opacity:1" />
<stop  offset="0.803922" style="stop-color:#63D7F8;stop-opacity:1" />
</linearGradient>
<path style="fill:url(#LinearGradID_3154) " d="M648,117.5Q648 119.2 646.65 120.4Q645.2 121.65 643.2 121.65L4.8 121.65Q2.8 121.65 1.45 120.4Q0 119.2 0 117.5L0 4.2Q0 2.45 1.45 1.2Q2.8 0 4.8 0L643.2 0Q645.2 0 646.65 1.2Q648 2.45 648 4.2L648 117.5" />
<path style="fill:none;stroke-width:1;stroke-linecap:round;stroke-linejoin:round;stroke-miterlimit:3;stroke:#DFFBF5;stroke-opacity:1" d="M648,117.5Q648 119.2 646.65 120.4Q645.2 121.65 643.2 121.65L4.8 121.65Q2.8 121.65 1.45 120.4Q0 119.2 0 117.5L0 4.2Q0 2.45 1.45 1.2Q2.8 0 4.8 0L643.2 0Q645.2 0 646.65 1.2Q648 2.45 648 4.2L648 117.5z" />
<linearGradient
id="LinearGradID_3155" gradientUnits="userSpaceOnUse" gradientTransform="matrix(1, 0, 0, 1.00041, 18.3, -132.4)" spreadMethod ="pad" x1="-819.2" y1="0" x2="819.2" y2="0" >
<stop  offset="0.137255" style="stop-color:#FFFFFF;stop-opacity:1" />
<stop  offset="0.803922" style="stop-color:#ED8074;stop-opacity:1" />
</linearGradient>
<path style="fill:url(#LinearGradID_3155) " d="M488,24.1L486.1 25.3L485.8 25.8L485.75 25.95L485.9 25.95Q487.45 25.3 488.15 24.15L489.25 26L489.3 26.15Q490.15 28.25 489 30.2Q487 29.1 485.1 28.4Q483.6 27.85 482.15 27.55L482.1 27.55Q484.25 25.55 487.5 23.4L488.05 24.05L488 24.1M486,27.15L485.95 27.2Q487.15 26.9 487.8 26.25L487.55 26.3Q486.7 26.5 486 27.15M478.25,46.55L477.2 48.1L476.95 49.2L476.95 49.3L477.05 49.35Q478 48.2 478.55 46.7L479.7 47.4L479.85 47.5Q480.15 50.3 477.05 51.1Q469.9 52.9 475.05 44.05L478.25 46.55M477,46.05L476.25 46.9L476.15 47.2Q475.55 48.45 475.1 49.85L475.45 49.5Q476.65 47.9 477.15 46L477 46.05" />
<path style="fill:#7A0505;fill-opacity:1" d="M488.15,24.15Q487.45 25.3 485.9 25.95L485.75 25.95L485.8 25.8L486.1 25.3L488 24.1L488.05 24.05L488.2 24.05L488.15 24.15M487.55,26.3L487.8 26.25Q487.15 26.9 485.95 27.2L486 27.15Q486.7 26.5 487.55 26.3M505.75,40.05L507.15 40.3Q512.3 41.3 516.65 44.4L516.8 44.5L512.95 42.75L512.8 42.7Q509.45 41.3 505.75 40.2L505.75 40.05M497.9,47.35L497.95 47.15Q500.6 48.7 502.75 50.95L502.7 51.1L499.45 48.45L497.9 47.35M499.2,48.8Q504.3 52.75 508.55 57.75L508.5 57.85L499.15 49L499.2 48.8M508.05,43.25Q510.1 43.8 512.1 44.7Q514 45.55 515.85 46.75L516 46.85L508.05 43.35L508.05 43.25M492.15,58.85L493.9 63.1Q494.9 65.15 496.25 67.15L497.15 68.5L497.25 68.65Q495.6 67.25 494.3 65.3Q493 63.35 492.05 60.95L491.8 60.25L492.05 59L492.15 58.85M494.05,59.95Q494.6 61.1 494.75 62.55L494.7 62.75L493.95 60.2L494.05 59.95M493.75,57.6Q496.1 61.65 497.2 66.35L497.25 66.55Q495.55 63.4 494.35 59.85L493.75 57.85L493.75 57.6M478.25,46.55L478.65 46L478.75 46L478.55 46.7Q478 48.2 477.05 49.35L476.95 49.3L476.95 49.2L477.2 48.1L478.25 46.55M477.15,46Q476.65 47.9 475.45 49.5L475.1 49.85Q475.55 48.45 476.15 47.2L476.25 46.9L477 46.05L477.15 46" />
<path style="fill:#FEE7E7;fill-opacity:1" d="M489.3,26.15L489.25 26L489.3 25.95L489.4 26L489.35 26.05L489.3 26.15M497.95,38.5L499.2 38L498.9 38.7Q498.6 38.9 498.05 38.7L497.95 38.5M498.9,40.5L498.95 40.55L498.9 40.6L498.9 40.5" />
<linearGradient
id="LinearGradID_3156" gradientUnits="userSpaceOnUse" gradientTransform="matrix(-0.00691223, -0.00396729, 0.0103455, -0.0180206, 489.25, 47.15)" spreadMethod ="pad" x1="-819.2" y1="0" x2="819.2" y2="0" >
<stop  offset="0.137255" style="stop-color:#FFFFFF;stop-opacity:1" />
<stop  offset="0.803922" style="stop-color:#FF5B5B;stop-opacity:1" />
</linearGradient>
<path style="fill:url(#LinearGradID_3156) " d="M475.05,44.05L473.6 42.6L472.85 41.7L471.85 40.4L471.85 40.35L472.05 40.25L472.55 39.9Q472.85 39.4 472.65 39L472.6 38.8Q471.9 37.6 470.35 37.6L469.3 34.5Q468.3 31.6 470 29.75Q471.65 27.85 474.75 27.6L474.8 27.65L475.45 28.25Q476.1 28.75 476.75 28.8L476.75 28.7Q476.05 28.5 475.6 28Q475.5 27.9 475.55 27.8L475.6 27.75Q476 27.7 476.6 28L476.7 28.05L477.05 28.05L477.2 28L477.4 27.8L477.85 27.3L478 27.3L478.05 27.2L480 27.25L482.1 27.55L482.15 27.55Q483.6 27.85 485.1 28.4Q487 29.1 489 30.2L491.2 31.75L491.9 32.25L492.5 32.65L493.4 33.6Q494.9 35.35 496.1 38.55L496.35 39.25L497.9 38.55L498.05 38.7Q498.6 38.9 498.9 38.7L499.2 38L499.25 38Q504.3 36.15 507.6 38.1Q511.75 40.6 514.4 41.95Q515.9 42.7 517.15 44.05L517.25 44.15L518.45 45.65L518.55 45.8L518.75 46.1L519.9 48.35L520.6 50.1Q519 51 517.65 50.75Q513.7 50 509.5 48.1Q507.5 47.2 505.45 46.05Q507.25 47.7 508.7 49.65Q512 54.2 514.6 58.8L515.85 61.2Q516.95 63.6 517.55 66.05L518.1 69.55Q517 67.45 515.3 66.45L515.2 66.35L515 66.3Q509 63.8 503.7 59.8Q501.65 58.2 499.9 56.25Q502.2 62.65 500.45 68.5L499.6 71.1L499.15 72.35L498.85 72.2L498.85 72.3L497.55 71.3L497.5 71.35L497.3 71.1Q494.7 68.9 492.9 66.15Q491.8 64.5 491 62.7L490.3 60.75Q489.15 56.7 490.75 52.1L491.75 49.7Q490.55 50 487.9 49.75Q485.25 49.4 479.85 47.5L479.8 47.35L479.7 47.4L478.55 46.7L478.75 46L478.65 46L478.25 46.55L475.05 44.05M486.25,30.6L484.95 29Q485.15 30.9 486.25 30.8L486.25 30.6M490.85,34.65Q490.55 35.25 490.6 35.85L490.7 35.9L491.4 35.1Q491.45 34.75 490.9 34.55L490.85 34.65M492.25,36.45L492.25 36.35L491.9 34.85L491.85 34.95L491.75 35.2Q491.55 36.15 491.9 36.4L492.25 36.45M490.15,39.6L489.95 40.9L490.05 40.9L490.4 40.6Q492.15 38.8 491.05 38.4L490.75 38.35Q490.3 38.95 490.15 39.6M487.8,37.65L487.75 38.05Q487.45 39 488.05 39.15L488.3 38.85L488.55 37.05L488.3 37.15L487.8 37.65M490.4,42.55Q491.05 42.05 491.2 41.25L491 41.25L490.3 42.2Q490.2 42.6 490.4 42.55M487.95,43.75Q487.7 42.75 486.9 43.35Q486.5 43.95 486.7 44.55Q487.4 44.55 487.95 43.95L487.95 43.75M505.75,40.2Q509.45 41.3 512.8 42.7L512.95 42.75L516.8 44.5L516.65 44.4Q512.3 41.3 507.15 40.3L505.75 40.05L505.75 40.2M498.95,40.55L498.9 40.5L498.85 40.55L498.85 40.75L498.95 40.7L498.9 40.6L498.95 40.55M499.45,48.45L502.7 51.1L502.75 50.95Q500.6 48.7 497.95 47.15L497.9 47.35L499.45 48.45M499.15,49L508.5 57.85L508.55 57.75Q504.3 52.75 499.2 48.8L499.15 49M508.05,43.35L516 46.85L515.85 46.75Q514 45.55 512.1 44.7Q510.1 43.8 508.05 43.25L508.05 43.35M517.7,46.2L517.45 46.25L517.8 46.25L517.7 46.2M492.05,59L491.8 60.25L492.05 60.95Q493 63.35 494.3 65.3Q495.6 67.25 497.25 68.65L497.15 68.5L496.25 67.15Q494.9 65.15 493.9 63.1L492.15 58.85L492.05 59M493.95,60.2L494.7 62.75L494.75 62.55Q494.6 61.1 494.05 59.95L493.95 60.2M493.75,57.85L494.35 59.85Q495.55 63.4 497.25 66.55L497.2 66.35Q496.1 61.65 493.75 57.6L493.75 57.85M483.5,35L483.5 35.1L483.1 37.45Q484.2 37.5 484.4 36.2L484.35 36.05Q484.05 35.25 483.5 35M480.95,33.8L481 33.8Q482.25 32.75 481.4 31.95Q481.3 32.05 481.35 32.1L481.4 32.5L480.95 33.8M484.15,43.15L484.05 43.35Q485.1 43.55 485.85 42.5L486.05 42.15L485.9 42.1Q484.9 42.4 484.15 43.15M482.55,40.05Q483.55 40.4 483.4 39.15Q483.35 39.05 483.3 39.1L482.45 39.85L482.55 40.05M481.45,39.1L481.35 39.15L480.85 39.65L479.85 40.65L479.75 40.9Q481.1 41.2 481.4 39.55L481.45 39.1M479.05,37.55Q478.7 37.75 478.4 38.05L478.35 38.1L478.15 38.6L478.1 38.75Q478.35 38.5 478.7 38.45L479.15 38.1L479.25 37.55L479.05 37.55M478.6,45.35L478.6 45.45L478.9 45.65L479.25 45.6L479.8 44.7L479.7 44.75Q479.2 45.3 478.6 45.35" />
<path style="fill:#FFFFFF;fill-opacity:1" d="M486.25,30.8Q485.15 30.9 484.95 29L486.25 30.6L486.25 30.8M490.9,34.55Q491.45 34.75 491.4 35.1L490.7 35.9L490.6 35.85Q490.55 35.25 490.85 34.65L490.9 34.55M491.9,36.4Q491.55 36.15 491.75 35.2L491.85 34.95L491.9 34.85L492.25 36.35L492.25 36.45L491.9 36.4M490.75,38.35L491.05 38.4Q492.15 38.8 490.4 40.6L490.05 40.9L489.95 40.9L490.15 39.6Q490.3 38.95 490.75 38.35M488.3,37.15L488.55 37.05L488.3 38.85L488.05 39.15Q487.45 39 487.75 38.05L487.8 37.65L488.3 37.15M490.3,42.2L491 41.25L491.2 41.25Q491.05 42.05 490.4 42.55Q490.2 42.6 490.3 42.2M487.95,43.95Q487.4 44.55 486.7 44.55Q486.5 43.95 486.9 43.35Q487.7 42.75 487.95 43.75L487.95 43.95M484.35,36.05L484.4 36.2Q484.2 37.5 483.1 37.45L483.5 35.1L483.5 35Q484.05 35.25 484.35 36.05M481.4,32.5L481.35 32.1Q481.3 32.05 481.4 31.95Q482.25 32.75 481 33.8L480.95 33.8L481.4 32.5M485.9,42.1L486.05 42.15L485.85 42.5Q485.1 43.55 484.05 43.35L484.15 43.15Q484.9 42.4 485.9 42.1M482.45,39.85L483.3 39.1Q483.35 39.05 483.4 39.15Q483.55 40.4 482.55 40.05L482.45 39.85M481.4,39.55Q481.1 41.2 479.75 40.9L479.85 40.65L480.85 39.65L481.35 39.15L481.45 39.1L481.4 39.55M479.25,37.55L479.15 38.1L478.7 38.45Q478.35 38.5 478.1 38.75L478.15 38.6L478.35 38.1L478.4 38.05Q478.7 37.75 479.05 37.55L479.25 37.55M479.7,44.75L479.8 44.7L479.25 45.6L478.9 45.65L478.6 45.45L478.6 45.35Q479.2 45.3 479.7 44.75" />
<radialGradient
id="RadialGradID_3157" gradientUnits="userSpaceOnUse" gradientTransform="matrix(0.0123596, -0.0214233, 0.0214081, 0.0123596, 502.85, 40.9)" spreadMethod ="pad" cx="0" cy="0" r="819.2" fx="0" fy="0" >
<stop  offset="0"  style="stop-color:#FC7474;stop-opacity:1" />
<stop  offset="1"  style="stop-color:#FFFFFF;stop-opacity:1" />
</radialGradient>
<path style="fill:url(#RadialGradID_3157) " d="M498.05,38.7L497.9 38.55L497.95 38.5L498.05 38.7M517.8,46.25L517.45 46.25L517.7 46.2L517.8 46.25" />
<radialGradient
id="RadialGradID_3158" gradientUnits="userSpaceOnUse" gradientTransform="matrix(0.0162354, -0.0281219, 0.0281067, 0.0162354, 475.45, 34.55)" spreadMethod ="pad" cx="0" cy="0" r="819.2" fx="0" fy="0" >
<stop  offset="0"  style="stop-color:#FC7474;stop-opacity:1" />
<stop  offset="1"  style="stop-color:#FFFFFF;stop-opacity:1" />
</radialGradient>
<path style="fill:url(#RadialGradID_3158) " d="M471.1,39.15L471 38.9L471.35 38.7L471.4 38.7L471.1 39.15M498.9,40.6L498.95 40.7L498.85 40.75L498.85 40.55L498.9 40.5L498.9 40.6" />
<radialGradient
id="RadialGradID_3159" gradientUnits="userSpaceOnUse" gradientTransform="matrix(0.0162964, -0.0282288, 0.0282135, 0.0162964, 500.25, 49.9)" spreadMethod ="pad" cx="0" cy="0" r="819.2" fx="0" fy="0" >
<stop  offset="0"  style="stop-color:#FC7474;stop-opacity:1" />
<stop  offset="1"  style="stop-color:#FFFFFF;stop-opacity:1" />
</radialGradient>
<path style="fill:url(#RadialGradID_3159) " d="M515.3,66.45L515.2 66.4L515.2 66.35L515.3 66.45" />
<path style="fill:#FB4D4D;fill-opacity:1" d="M515.2,66.4L515.2 66.5L515 66.3L515.2 66.35L515.2 66.4M497.55,71.3L497.8 71.8L497.8 71.85L497.45 71.35L497.5 71.35L497.55 71.3M471.85,40.35L471.1 39.15L471.4 38.7L471.35 38.7L471 38.9L470.35 37.6Q471.9 37.6 472.6 38.8L472.2 38.75L471.45 38L471.4 38L471.25 37.9L471.2 38L471.6 38.45L471.45 38.4L471.4 38.35L471.05 38.15L471.05 38.2Q471.15 38.5 471.4 38.45L472.05 38.85L472.05 39.25L472.05 39.4L472.05 39.55Q471.85 39.9 472.05 40.25L471.85 40.35M475.45,28.25L474.8 27.65L474.9 27.55L476.05 27.35L477.85 27.2L478.05 27.2L478 27.3L477.85 27.3L477.4 27.8L477.2 28L477.05 28.05L476.7 28.05L476.6 28Q476 27.7 475.6 27.75L475.55 27.8Q475.5 27.9 475.6 28Q476.05 28.5 476.75 28.7L476.75 28.8Q476.1 28.75 475.45 28.25M472.55,39.9L472.55 39.55L472.65 39Q472.85 39.4 472.55 39.9" />
<radialGradient
id="RadialGradID_3160" gradientUnits="userSpaceOnUse" gradientTransform="matrix(0.0113831, -0.0197144, 0.0196991, 0.0113831, 495.8, 54.3)" spreadMethod ="pad" cx="0" cy="0" r="819.2" fx="0" fy="0" >
<stop  offset="0"  style="stop-color:#FC7474;stop-opacity:1" />
<stop  offset="1"  style="stop-color:#FFFFFF;stop-opacity:1" />
</radialGradient>
<path style="fill:url(#RadialGradID_3160) " d="M499.15,72.35L499.15 72.45L499.1 72.5L498.85 72.3L498.85 72.2L499.15 72.35" />
<path style="fill:none;stroke-width:1;stroke-linecap:round;stroke-linejoin:round;stroke-miterlimit:3;stroke:#BD0B0B;stroke-opacity:1" d="M488.05,24.05L487.5 23.4Q484.25 25.55 482.1 27.55L482.15 27.55Q483.6 27.85 485.1 28.4Q487 29.1 489 30.2Q490.15 28.25 489.3 26.15M489.25,26L488.15 24.15M489,30.2L491.2 31.75L491.9 32.25L492.5 32.65L493.4 33.6Q494.9 35.35 496.1 38.55L496.35 39.25L497.9 38.55L497.95 38.5L499.2 38L499.25 38Q504.3 36.15 507.6 38.1Q511.75 40.6 514.4 41.95Q515.9 42.7 517.15 44.05L517.25 44.15L518.45 45.65L518.55 45.8L518.75 46.1L519.9 48.35L520.6 50.1Q519 51 517.65 50.75Q513.7 50 509.5 48.1Q507.5 47.2 505.45 46.05Q507.25 47.7 508.7 49.65Q512 54.2 514.6 58.8L515.85 61.2Q516.95 63.6 517.55 66.05L518.1 69.55Q517 67.45 515.3 66.45L515.2 66.4M515,66.3Q509 63.8 503.7 59.8Q501.65 58.2 499.9 56.25Q502.2 62.65 500.45 68.5L499.6 71.1L499.15 72.35L499.15 72.45L499.1 72.5L498.85 72.3L497.55 71.3M497.3,71.1Q494.7 68.9 492.9 66.15Q491.8 64.5 491 62.7L490.3 60.75Q489.15 56.7 490.75 52.1L491.75 49.7Q490.55 50 487.9 49.75Q485.25 49.4 479.85 47.5Q480.15 50.3 477.05 51.1Q469.9 52.9 475.05 44.05L473.6 42.6L472.85 41.7L471.85 40.4L471.85 40.35L471.1 39.15L471 38.9L470.35 37.6L469.3 34.5Q468.3 31.6 470 29.75Q471.65 27.85 474.75 27.6L474.9 27.55L476.05 27.35L477.85 27.2L478.05 27.2L480 27.25L482.1 27.55M499.25,41.55Q502.8 43.55 505.45 46.05M499.9,56.25Q497.35 53.45 495.15 49.6M474.75,27.6L474.8 27.65L475.45 28.25Q476.1 28.75 476.75 28.8Q477.65 28.85 478.55 28.1M477.4,27.8L476.65 27.9L476.05 27.35M471.35,38.7L471.4 38.7L472.05 39.25L472.05 39.4M472.6,38.8Q471.9 37.6 470.35 37.6M472.55,39.9Q472.85 39.4 472.65 39M478.55,46.7L479.7 47.4M479.85,47.5L479.7 47.4M478.25,46.55L475.05 44.05" />
<path style="fill:#FB4D4D;fill-opacity:1" d="M465,91.5L464.95 91.5L464.85 91.6L464.8 91.4Q459.6 87.35 455.55 82.15Q453.95 80.05 452.75 77.75Q453.35 84.5 450.15 89.65L448.65 92L447.9 93.05L447.65 92.85L447.6 92.95L446.6 91.65L446.75 92.2L446.75 92.3L446.45 91.35Q443.35 86.9 442.45 81.6Q441.45 75.25 446.6 69.3Q445.4 69.3 442.9 68.3Q440.4 67.3 435.7 64.1Q435.2 66.85 432.05 66.8Q424.65 66.75 431.95 59.45L430.4 56.6L429.4 53.7L429.75 53.35L429.35 53.45L429.1 52L428.85 48.75Q428.65 45.75 430.75 44.35Q432.85 42.95 435.9 43.55L435.95 43.55L436 43.55L437.25 43.6L439.2 43.9L441.1 44.5L443.05 45.35Q445.55 44 449.3 42.75Q450.15 44.35 450.3 45.75L447.2 45.6L447.25 45.75Q448.5 46.5 450.05 46.1L450.35 45.85Q450.6 48.15 449 49.7L451.3 52.45Q453.3 54.75 453.75 60.35L455.45 60.05L455.55 60.25L455.5 60.05Q461.9 59.1 464.9 62.2L470.5 67.6Q472.6 69.55 473.65 72.75L474.15 75.3L474.4 77.2L471.35 77Q466 74.4 460.8 69.3L462.95 73.6Q464.95 78.9 466.35 83.95L466.95 86.6Q467.65 91.2 466.95 95.3Q466.35 93 465 91.55L465 91.5M446.25,45.15Q447.9 45.5 449.55 44.55L446.25 45.05L446.25 45.15M447.2,49Q447.7 49.5 448.2 49.6L448.15 49.45L447.6 49L447.5 48.9L447.2 48.9L447.2 49M448.8,47L448.1 46.9L448.1 47L448.85 47.1L448.8 47M438.2,44.55L438 44.55Q437.75 44.6 437.65 44.45Q437.05 43.9 436.6 43.9L436.6 44.15L437.55 45.05L438.35 45.1L439.25 44.35L439.2 44.25Q439.2 44 439 44L438.4 44.4L438.2 44.55M441.5,53.4Q442.1 53.6 442.55 52.85Q443.3 51.5 442.4 51Q442.2 52.35 441.5 53.4M444.55,50.15Q445.35 49.15 444.55 48.85L443.65 50.55Q444.1 50.7 444.55 50.15M439.3,56.45Q439.9 56.9 440.75 56.1L440.7 56L440.75 55.85L439.25 56.4L439.3 56.45M437.6,57.6L437.45 57.65L436 58.7L435.35 58.75L435.3 58.85L435.4 58.9Q435.3 59.1 435.55 59.05Q437.15 58.9 437.6 57.6M439.4,61.6Q440.5 61.6 440.95 60.55L440.9 60.55L439.4 61.55L439.4 61.6M444.1,59.2L443.95 59.3L443.7 59.45L443.8 59.6L444.1 59.2M430.25,54.25L430.2 54.3Q429.9 54.65 430 55L430.15 55.1Q430.4 55.25 430.55 54.95L430.7 54.5L430.95 54L430.95 53.95L430.95 53.85L430.95 53.8L430.6 53.65L430.05 52.7L429.95 52.7L429.85 52.55L429.8 52.7L430.05 53.15L429.95 53.05L429.9 53L429.6 52.75L429.55 52.8L429.85 53.1L430.4 53.7L430.25 54.2L430.25 54.25M432.9,63.45L432.8 63.5Q432.25 63.5 431.95 64Q431.35 64.5 431.2 65.2Q432.25 64.85 432.9 63.85L432.9 63.8L432.9 63.5L432.9 63.45M433.2,64.05L432.4 64.75L432.3 64.85L431 66.45L431.45 66.3L431.8 66.2Q433.15 65.25 433.35 63.95L433.2 64.05M431.6,62.3L431.15 62.35Q430.4 63.55 430.3 64.8Q431.45 63.8 431.65 62.3L431.6 62.3M444.25,62.9L444.25 63.1Q444.9 63.05 445.5 62.55L445.55 62.3L445.55 62.15L445.5 62.1Q444.8 62.2 444.3 62.7L444.25 62.9M441.5,64.6L439.95 65.1L439.95 65.15Q441 65.45 441.65 64.6L441.5 64.6M443.4,65.8L443.5 65.85L443.9 65.75L444.25 65.6L444.5 65.2L444.45 65.2L443.6 65.55L443.5 65.65L443.4 65.8M435.8,63.05L435.75 63.1L436.75 63.05L436.6 63.1L435.8 63.05M466.05,71.1Q462 68.3 458.6 64.75L458.55 64.75Q461.45 69 466 71.15L466.05 71.1M468.55,71.6Q464.4 67.2 459.75 63.45Q459.75 63.9 460.25 64.35Q464.65 68.5 469.15 72.35L468.55 71.6M471.75,73.55L472 73.6L472.1 73.75L472.85 74.7L472.75 74.6L472.05 73.55L472.1 73.3L470.95 71.65Q467.45 66.85 462.95 63L462.75 62.95L462.65 63Q462 62.5 461.15 62.35Q462.75 62.95 464.05 64.5L471.7 73.5L471.75 73.55M472.65,72.7L472.55 72.6L472.4 72.55L472.65 72.7M451.2,54.55L451.2 54.85L451.15 55.5Q451.5 55.75 451.85 55.3L451.85 55.25Q451.85 54.65 451.3 54.45L451.2 54.55M449.15,52.1L449.5 52.15L449.5 52.05Q449.55 51.4 449.05 51.45L448.95 51.6L449.15 52.1M446.95,52.7Q447.55 51.7 447 50.95Q446.8 51.8 446.9 52.7L446.95 52.7M445.8,55.05L445.55 54.75Q444.8 55.55 444.55 56.4Q445.5 56.2 445.8 55.15L445.8 55.05M449.95,54.7L450.05 54.65Q450.3 53.95 449.95 53.6L449.65 54.45L449.7 54.5L449.95 54.7M446.55,58.7L446.55 58.9L446.55 59L446.6 59.05L446.65 59.05Q447.65 58.85 447.95 57.8L447.85 57.7L447.8 57.7L447.65 57.65L447.55 57.75L446.55 58.7M450.85,58.05L450.1 59.3L450.6 59.25L450.7 59.05Q451.15 58.45 450.9 57.95L450.85 58.05M453.7,62.3L455.9 62.45L455.9 62.3L453.75 62L453.7 62.3M452.95,65.25Q451.75 63.85 450.35 62.6L450.25 62.6L449.65 62.3L451.15 64Q452.05 65.1 453 65.3L452.95 65.25M452.45,67.5Q450.75 65.3 448.6 63.7L448.55 63.8Q450.35 65.95 452.45 67.55L452.45 67.5M447.25,65.95L450.45 68.6L450.4 68.55Q449.15 66.85 447.3 65.9L447.25 65.95M447.85,65.5Q449.1 67 450.55 67.85L450.55 67.75Q449.4 66.35 447.9 65.4L447.85 65.5M446.95,70L447.15 69.7L447.1 69.7L446.9 69.8Q446.25 71.45 445.85 73.25Q445.45 75.15 445.45 76.65Q446.85 73.75 447.1 70.4L447.05 70.25L446.95 70M455.45,72.5L458.05 76L458.05 76.3L458.1 76.3Q461.2 80.5 463.95 85Q464.1 85.15 464.25 84.9Q461.85 79.9 458.25 75.9L458.15 75.9L455.5 72.5L455.45 72.5M459.75,73.7L459.75 73.65Q458.5 71.25 456.8 69.2L456.75 69.15L456.2 68.8L459.3 74L459.55 74.1L461.15 76.95L459.7 74L459.75 73.7M459.9,81.1L459.75 80.85Q455 76.95 451.95 71.8Q454.05 76.9 458.5 80.5Q459.3 81.1 459.9 81.1M447.5,74.8Q446.8 79.8 447.8 84.85L447.9 84.7Q447.4 79.75 447.7 74.7L447.75 74.6L447.8 74.4L447.5 74.8M448.7,77.45Q448.55 81.4 449.8 85.15L449.95 85.25L449.95 85.3L450 85.5L450.2 85.95L449.45 78.65Q449.3 77.6 448.8 77.3L448.7 77.45" />
<path style="fill:#FEE7E7;fill-opacity:1" d="M450.05,46.1Q448.5 46.5 447.25 45.75L447.2 45.6L450.3 45.75L450.4 45.7L450.45 45.75L450.35 45.85L450.05 46.1M446.25,45.05L449.55 44.55Q447.9 45.5 446.25 45.15L446.25 45.05M447.2,48.9L447.5 48.9L447.6 49L448.15 49.45L448.2 49.6Q447.7 49.5 447.2 49L447.2 48.9M448.85,47.1L448.1 47L448.1 46.9L448.8 47L448.85 47.1M438.4,44.4L439 44Q439.2 44 439.2 44.25L439.25 44.35L438.35 45.1L437.55 45.05L436.6 44.15L436.6 43.9Q437.05 43.9 437.65 44.45Q437.75 44.6 438 44.55L438.2 44.55L438.4 44.4M442.4,51Q443.3 51.5 442.55 52.85Q442.1 53.6 441.5 53.4Q442.2 52.35 442.4 51M443.65,50.55L444.55 48.85Q445.35 49.15 444.55 50.15Q444.1 50.7 443.65 50.55M439.25,56.4L440.75 55.85L440.7 56L440.75 56.1Q439.9 56.9 439.3 56.45L439.25 56.4M435.55,59.05Q435.3 59.1 435.4 58.9L435.3 58.85L435.35 58.75L436 58.7L437.45 57.65L437.6 57.6Q437.15 58.9 435.55 59.05M439.4,61.55L440.9 60.55L440.95 60.55Q440.5 61.6 439.4 61.6L439.4 61.55M443.8,59.6L443.7 59.45L443.95 59.3L444.1 59.2L443.8 59.6M430.25,54.2L430.4 53.7L429.85 53.1L429.55 52.8L429.6 52.75L429.9 53L429.95 53.05L430.05 53.15L429.8 52.7L429.85 52.55L429.95 52.7L430.05 52.7L430.6 53.65L430.95 53.8L430.95 53.85L430.95 53.95L430.95 54L430.7 54.5L430.55 54.95Q430.4 55.25 430.15 55.1L430 55Q429.9 54.65 430.2 54.3L430.25 54.25L430.25 54.2M432.9,63.5L432.9 63.8L432.9 63.85Q432.25 64.85 431.2 65.2Q431.35 64.5 431.95 64Q432.25 63.5 432.8 63.5L432.9 63.45L432.9 63.5M433.35,63.95Q433.15 65.25 431.8 66.2L431.45 66.3L431 66.45L432.3 64.85L432.4 64.75L433.2 64.05L433.35 63.95M431.65,62.3Q431.45 63.8 430.3 64.8Q430.4 63.55 431.15 62.35L431.6 62.3L431.65 62.3M444.3,62.7Q444.8 62.2 445.5 62.1L445.55 62.15L445.55 62.3L445.5 62.55Q444.9 63.05 444.25 63.1L444.25 62.9L444.3 62.7M441.65,64.6Q441 65.45 439.95 65.15L439.95 65.1L441.5 64.6L441.65 64.6M443.5,65.65L443.6 65.55L444.45 65.2L444.5 65.2L444.25 65.6L443.9 65.75L443.5 65.85L443.4 65.8L443.5 65.65M436.6,63.1L436.75 63.05L435.75 63.1L435.8 63.05L436.6 63.1M466,71.15Q461.45 69 458.55 64.75L458.6 64.75Q462 68.3 466.05 71.1L466 71.15M469.15,72.35Q464.65 68.5 460.25 64.35Q459.75 63.9 459.75 63.45Q464.4 67.2 468.55 71.6L469.15 72.35M471.7,73.5L464.05 64.5Q462.75 62.95 461.15 62.35Q462 62.5 462.65 63L462.75 62.95L462.95 63Q467.45 66.85 470.95 71.65L472.1 73.3L472.05 73.55L472.75 74.6L472.85 74.7L472.1 73.75L472 73.6L471.75 73.55L471.7 73.5M451.3,54.45Q451.85 54.65 451.85 55.25L451.85 55.3Q451.5 55.75 451.15 55.5L451.2 54.85L451.2 54.55L451.3 54.45M448.95,51.6L449.05 51.45Q449.55 51.4 449.5 52.05L449.5 52.15L449.15 52.1L448.95 51.6M446.9,52.7Q446.8 51.8 447 50.95Q447.55 51.7 446.95 52.7L446.9 52.7M445.8,55.15Q445.5 56.2 444.55 56.4Q444.8 55.55 445.55 54.75L445.8 55.05L445.8 55.15M449.7,54.5L449.65 54.45L449.95 53.6Q450.3 53.95 450.05 54.65L449.95 54.7L449.7 54.5M447.55,57.75L447.65 57.65L447.8 57.7L447.85 57.7L447.95 57.8Q447.65 58.85 446.65 59.05L446.6 59.05L446.55 59L446.55 58.9L446.55 58.7L447.55 57.75M450.9,57.95Q451.15 58.45 450.7 59.05L450.6 59.25L450.1 59.3L450.85 58.05L450.9 57.95M453,65.3Q452.05 65.1 451.15 64L449.65 62.3L450.25 62.6L450.35 62.6Q451.75 63.85 452.95 65.25L453 65.3M452.45,67.55Q450.35 65.95 448.55 63.8L448.6 63.7Q450.75 65.3 452.45 67.5L452.45 67.55M447.3,65.9Q449.15 66.85 450.4 68.55L450.45 68.6L447.25 65.95L447.3 65.9M447.9,65.4Q449.4 66.35 450.55 67.75L450.55 67.85Q449.1 67 447.85 65.5L447.9 65.4M447.05,70.25L447.1 70.4Q446.85 73.75 445.45 76.65Q445.45 75.15 445.85 73.25Q446.25 71.45 446.9 69.8L447.1 69.7L447.15 69.7L446.95 70L447.05 70.25M455.5,72.5L458.15 75.9L458.25 75.9Q461.85 79.9 464.25 84.9Q464.1 85.15 463.95 85Q461.2 80.5 458.1 76.3L458.05 76.3L458.05 76L455.45 72.5L455.5 72.5M459.7,74L461.15 76.95L459.55 74.1L459.3 74L456.2 68.8L456.75 69.15L456.8 69.2Q458.5 71.25 459.75 73.65L459.75 73.7L459.7 74M458.5,80.5Q454.05 76.9 451.95 71.8Q455 76.95 459.75 80.85L459.9 81.1Q459.3 81.1 458.5 80.5M447.8,74.4L447.75 74.6L447.7 74.7Q447.4 79.75 447.9 84.7L447.8 84.85Q446.8 79.8 447.5 74.8L447.8 74.4M448.8,77.3Q449.3 77.6 449.45 78.65L450.2 85.95L450 85.5L449.95 85.3L449.95 85.25L449.8 85.15Q448.55 81.4 448.7 77.45L448.8 77.3" />
<radialGradient
id="RadialGradID_3161" gradientUnits="userSpaceOnUse" gradientTransform="matrix(0.0229492, -0.0229645, 0.0229492, 0.0229645, 434.8, 50.4)" spreadMethod ="pad" cx="0" cy="0" r="819.2" fx="0" fy="0" >
<stop  offset="0"  style="stop-color:#FC7474;stop-opacity:1" />
<stop  offset="1"  style="stop-color:#FFFFFF;stop-opacity:1" />
</radialGradient>
<path style="fill:url(#RadialGradID_3161) " d="M429.75,53.35L429.4 53.7L429.35 53.45L429.75 53.35M453.75,62L455.9 62.3L455.9 62.45L453.7 62.3L453.75 62" />
<radialGradient
id="RadialGradID_3162" gradientUnits="userSpaceOnUse" gradientTransform="matrix(0.0174866, -0.0174866, 0.0174866, 0.0174866, 459.6, 63.6)" spreadMethod ="pad" cx="0" cy="0" r="819.2" fx="0" fy="0" >
<stop  offset="0"  style="stop-color:#FC7474;stop-opacity:1" />
<stop  offset="1"  style="stop-color:#FFFFFF;stop-opacity:1" />
</radialGradient>
<path style="fill:url(#RadialGradID_3162) " d="M455.55,60.25L455.45 60.05L455.5 60.05L455.55 60.25M472.4,72.55L472.55 72.6L472.65 72.7L472.4 72.55" />
<radialGradient
id="RadialGradID_3163" gradientUnits="userSpaceOnUse" gradientTransform="matrix(0.0160828, -0.016098, 0.0160828, 0.016098, 449.35, 74.75)" spreadMethod ="pad" cx="0" cy="0" r="819.2" fx="0" fy="0" >
<stop  offset="0"  style="stop-color:#FC7474;stop-opacity:1" />
<stop  offset="1"  style="stop-color:#FFFFFF;stop-opacity:1" />
</radialGradient>
<path style="fill:url(#RadialGradID_3163) " d="M447.65,92.85L447.9 93.05L447.85 93.15L447.8 93.2L447.6 92.95L447.65 92.85" />
<radialGradient
id="RadialGradID_3164" gradientUnits="userSpaceOnUse" gradientTransform="matrix(0.0230408, -0.023056, 0.0230408, 0.023056, 454.75, 71.65)" spreadMethod ="pad" cx="0" cy="0" r="819.2" fx="0" fy="0" >
<stop  offset="0"  style="stop-color:#FC7474;stop-opacity:1" />
<stop  offset="1"  style="stop-color:#FFFFFF;stop-opacity:1" />
</radialGradient>
<path style="fill:url(#RadialGradID_3164) " d="M465,91.55L464.95 91.5L465 91.5L465 91.55" />
<path style="fill:none;stroke-width:1;stroke-linecap:round;stroke-linejoin:round;stroke-miterlimit:3;stroke:#BD0B0B;stroke-opacity:1" d="M450.35,45.85Q450.6 48.15 449 49.7L451.3 52.45Q453.3 54.75 453.75 60.35L455.45 60.05L455.5 60.05Q461.9 59.1 464.9 62.2L470.5 67.6Q472.6 69.55 473.65 72.75L474.15 75.3L474.4 77.2L471.35 77Q466 74.4 460.8 69.3L462.95 73.6Q464.95 78.9 466.35 83.95L466.95 86.6Q467.65 91.2 466.95 95.3Q466.35 93 465 91.55L464.95 91.5M464.8,91.4Q459.6 87.35 455.55 82.15Q453.95 80.05 452.75 77.75Q453.35 84.5 450.15 89.65L448.65 92L447.9 93.05L447.85 93.15L447.8 93.2L447.6 92.95L446.6 91.65M446.45,91.35Q443.35 86.9 442.45 81.6Q441.45 75.25 446.6 69.3Q445.4 69.3 442.9 68.3Q440.4 67.3 435.7 64.1Q435.2 66.85 432.05 66.8Q424.65 66.75 431.95 59.45L430.4 56.6L429.4 53.7L429.35 53.45L429.1 52L428.85 48.75Q428.65 45.75 430.75 44.35Q432.85 42.95 435.9 43.55L435.95 43.55L436 43.55L437.25 43.6L439.2 43.9L441.1 44.5L443.05 45.35Q445.55 44 449.3 42.75Q450.15 44.35 450.3 45.75M438.4,44.4Q437.45 44.55 437.25 43.6M435.95,43.55Q437.1 46.05 439.45 45M430.95,54L431 54.95M430.95,53.8Q430.6 52.4 429.1 52M430.25,54.25L430.25 54.2Q430.35 53.75 429.75 53.35M435.7,64.1L435.55 63.95Q433.35 61.8 431.95 59.45M455.95,63.3Q458.85 66.2 460.8 69.3M450.2,70.4Q451.05 74.35 452.75 77.75M443.05,45.35Q446.1 46.9 449 49.7" />
<path style="fill:#D8DEEA;fill-opacity:0.298039" d="M648,117.5Q648 119.2 646.65 120.4Q645.2 121.65 643.2 121.65L4.8 121.65Q2.8 121.65 1.45 120.4Q0 119.2 0 117.5L0 4.2Q0 2.45 1.45 1.2Q2.8 0 4.8 0L643.2 0Q645.2 0 646.65 1.2Q648 2.45 648 4.2L648 117.5" />
</g>
</svg>
