<?xml version="1.0" encoding="utf-8"?>
<svg version="1.1" id="Layer_1"
xmlns="http://www.w3.org/2000/svg"
xmlns:xlink="http://www.w3.org/1999/xlink"
xmlns:author="http://www.sothink.com"
width="44px" height="71px"
xml:space="preserve">
<g id="893" transform="matrix(1, 0, 0, 1, 21.5, 71)">
<path style="fill:#FFFFFF;fill-opacity:1" d="M-17.25,-56.95L-14.1 -60L-12.85 -59.45L-9 -68.05L-5.15 -59.45L-3.95 -60L-0.05 -60L1.2 -59.45L5.05 -68.05L8.9 -59.45L9.55 -59.75L10.05 -55.8L9.3 -55.05Q11.4 -53.1 11.75 -50.8L11.85 -49.8Q11.8 -47.55 10.3 -45.65L9.3 -44.55L10.05 -43.85L10.45 -44.2L12.25 -31.4L12.65 -20.45L11.95 -21.4L10.65 -20.4Q11.25 -19.45 12.05 -18.85L12.5 -18.45L12.5 -14.55L10.7 -10.65L9 -9.55L7.45 -9.55L7.45 -3Q7.45 -2.3 7.05 -1.85Q6.5 -1.3 5.4 -1.3Q4.35 -1.3 3.8 -1.85Q3.35 -2.3 3.35 -3L3.35 -9.55L-0.2 -13.05L-7.8 -13.05L-7.8 -14L-14.35 -14Q-15.1 -14 -15.5 -14.45Q-16.1 -15 -16.05 -16.05Q-16.1 -17.15 -15.5 -17.7Q-15.1 -18.1 -14.35 -18.1L-7.8 -18.1L-7.8 -19.65L-12.3 -19.65L-12.3 -26.4L-13.8 -27.65L-13.85 -30.4L-12.35 -30.35L-12 -31.85L-13.3 -31.9Q-16.35 -32.1 -17.35 -33.15Q-18.15 -33.9 -18.1 -35Q-18.15 -36.2 -17.3 -37Q-16.75 -37.6 -15.15 -37.6Q-13.9 -37.6 -12.15 -37L-8.85 -35.75L-8.2 -37.35L-11.3 -38.25L-14.55 -38.95L-14.55 -43.65L-17.8 -44.55L-18.1 -44.85L-18 -44.95Q-18.9 -45.75 -19.4 -46.65L-19.65 -47.1Q-20.5 -48.55 -20.45 -50.2L-20.45 -50.8Q-20.25 -53.3 -18.1 -55.35L-18 -55.45L-18.4 -55.85L-17.25 -56.95M-9.8,-45.05L-9.25 -45.05L-9.25 -46.5L-10.75 -46.5L-10.75 -45.15L-10 -43.6L-9.25 -43.6L-9.8 -45.05M-12.9,-43.6L-12.15 -43.6L-12.7 -45.05L-12.15 -45.05L-12.15 -46.5L-13.65 -46.5L-13.65 -45.15L-12.9 -43.6" />
<path style="fill:#000000;fill-opacity:1" d="M12.8,-50.8L12.9 -49.8Q12.85 -47.1 11.05 -44.9L10.45 -44.2L10.05 -43.85L9.3 -44.55L10.3 -45.65Q11.8 -47.55 11.85 -49.8L11.75 -50.8Q11.4 -53.1 9.3 -55.05L10.05 -55.8Q12.45 -53.6 12.8 -50.8M9.55,-59.75L8.9 -59.45L5.05 -68.05L1.2 -59.45L-0.05 -60L5.05 -71L10.1 -60L9.55 -59.75M-3.95,-60L-5.15 -59.45L-9 -68.05L-12.85 -59.45L-14.1 -60L-9 -71L-3.95 -60M-18.4,-55.85L-18 -55.45L-18.1 -55.35Q-20.25 -53.3 -20.45 -50.8L-20.45 -50.2Q-20.5 -48.55 -19.65 -47.1L-19.4 -46.65Q-18.9 -45.75 -18 -44.95L-18.1 -44.85L-18.7 -44.25Q-19.95 -45.4 -20.6 -46.65Q-21.55 -48.3 -21.5 -50.2L-21.5 -50.8Q-21.3 -53.85 -18.7 -56.2L-18.4 -55.85M-14.55,-38.95L-11.3 -38.25L-8.2 -37.35L-8.85 -35.75L-12.15 -37Q-13.9 -37.6 -15.15 -37.6Q-16.75 -37.6 -17.3 -37Q-18.15 -36.2 -18.1 -35Q-18.15 -33.9 -17.35 -33.15Q-16.35 -32.1 -13.3 -31.9L-12 -31.85L-12.35 -30.35L-13.85 -30.4Q-16.7 -30.7 -18.25 -31.9L-18.65 -32.25Q-19.7 -33.25 -19.65 -35.1Q-19.7 -36.9 -18.55 -37.95Q-17.55 -39 -15.3 -39L-14.55 -38.95M-12.3,-19.65L-7.8 -19.65L-7.8 -18.1L-14.35 -18.1Q-15.1 -18.1 -15.5 -17.7Q-16.1 -17.15 -16.05 -16.05Q-16.1 -15 -15.5 -14.45Q-15.1 -14 -14.35 -14L-7.8 -14L-7.8 -13.05L-7.8 -12.5L-14.4 -12.5Q-15.45 -12.5 -16.2 -13.05L-16.45 -13.3Q-17.4 -14.2 -17.35 -16.05Q-17.4 -17.95 -16.45 -18.85Q-15.7 -19.65 -14.4 -19.65L-12.3 -19.65M3.35,-9.55L3.35 -3Q3.35 -2.3 3.8 -1.85Q4.35 -1.3 5.4 -1.3Q6.5 -1.3 7.05 -1.85Q7.45 -2.3 7.45 -3L7.45 -9.55L9 -9.55L9 -2.95Q9 -1.7 8.2 -0.9Q7.3 0 5.4 0Q3.55 0 2.65 -0.9Q1.85 -1.7 1.85 -2.95L1.85 -9.55L3.35 -9.55M12.5,-18.45L12.05 -18.85Q11.25 -19.45 10.65 -20.4L11.95 -21.4L12.65 -20.45Q13.3 -19.8 13.95 -19.8Q14.8 -19.8 16.5 -20.65Q17.65 -21.45 18.75 -21.45Q19.85 -21.45 20.7 -20.65L21.9 -19L20.55 -18.25L19.95 -19.2Q19.5 -19.75 18.65 -19.75Q17.9 -19.75 16.75 -19.1Q15 -18 14.1 -18Q13.15 -18 12.5 -18.45M-9.25,-43.6L-10 -43.6L-10.75 -45.15L-10.75 -46.5L-9.25 -46.5L-9.25 -45.05L-9.8 -45.05L-9.25 -43.6M-13.65,-45.15L-13.65 -46.5L-12.15 -46.5L-12.15 -45.05L-12.7 -45.05L-12.15 -43.6L-12.9 -43.6L-13.65 -45.15" />
<path style="fill:none;stroke-width:1;stroke-linecap:round;stroke-linejoin:round;stroke-miterlimit:3;stroke:#000000;stroke-opacity:1" d="M-0.05,-60L-3.95 -60M-17.25,-56.95L-18.4 -55.85M-12.3,-26.4L-12.3 -19.65" />
</g>
</svg>
