<?xml version="1.0" encoding="utf-8"?>
<svg version="1.1" id="Layer_1"
xmlns="http://www.w3.org/2000/svg"
xmlns:xlink="http://www.w3.org/1999/xlink"
xmlns:author="http://www.sothink.com"
width="49px" height="261px"
xml:space="preserve">
<g id="493" transform="matrix(1, 0, 0, 1, 23.9, 252.95)">
<linearGradient
id="LinearGradID_1933" gradientUnits="userSpaceOnUse" gradientTransform="matrix(0.0296021, 0, 0, 0.15564, 0.35, -125.45)" spreadMethod ="pad" x1="-819.2" y1="0" x2="819.2" y2="0" >
<stop  offset="0" style="stop-color:#93C51D;stop-opacity:1" />
<stop  offset="1" style="stop-color:#83BE1F;stop-opacity:1" />
</linearGradient>
<path style="fill:url(#LinearGradID_1933) " d="M-10.2,1.1L-10.15 2.05L-11 2.05L-11.95 0.4L-13.65 -1.85L-15.4 0.4L-16.3 2.05L-23.9 2.05L-23.9 -252.95L24.6 -252.95L24.6 2.05L15.75 2.05L13.8 -3.35L13.7 -2.8Q13.45 -0.95 13.5 1.1L13.5 2.05L12.7 2.05L11.75 0.4L10 -1.85Q9.1 -0.9 8.3 0.4L7.35 2.05L7.15 -1.4L7.25 -4.05L7.35 -4.8L6.85 -4.3L1.35 1.3L1.3 1L1.2 0.15L1.1 -2.9L1.2 -5.9Q0.45 -3.95 -0.65 -2.2L-2.4 0.1L-4.1 -2.2L-5.1 -3.9L-5.25 -0.4L-5.15 2.05L-6.05 2.05L-11.95 -4L-10.2 0.85L-10.2 1.1" />
<linearGradient
id="LinearGradID_1934" gradientUnits="userSpaceOnUse" gradientTransform="matrix(0.0180359, 0, 0, 0.00799561, 2.8, 0.65)" spreadMethod ="pad" x1="-819.2" y1="0" x2="819.2" y2="0" >
<stop  offset="0" style="stop-color:#93C51D;stop-opacity:1" />
<stop  offset="1" style="stop-color:#83BE1F;stop-opacity:1" />
</linearGradient>
<path style="fill:url(#LinearGradID_1934) " d="M13.65,4.15L13.5 2.05L13.5 1.1Q13.45 -0.95 13.7 -2.8L13.8 -3.35L15.75 2.05L17.6 7.2Q13.85 5.2 9.35 5.2L6 5.5L1.55 4.95Q-2.9 4.95 -6.65 6.9L-8.3 6.1L-10.2 0.85L-11.95 -4L-6.05 2.05L-5.6 2.5L-5.1 3.05L-5.15 2.3L-5.15 2.05L-5.25 -0.4L-5.1 -3.9L-4.1 -2.2L-2.4 0.1L-0.65 -2.2Q0.45 -3.95 1.2 -5.9L1.1 -2.9L1.2 0.15L1.3 1L1.35 1.3L6.85 -4.3L7.25 -4.05L7.15 -1.4L7.35 2.05L8.3 0.4Q9.1 -0.9 10 -1.85L11.75 0.4L12.7 2.05L13.65 4.15" />
<linearGradient
id="LinearGradID_1935" gradientUnits="userSpaceOnUse" gradientTransform="matrix(0.000305176, 0, 0, 0.000457764, 7.1, -4.45)" spreadMethod ="pad" x1="-819.2" y1="0" x2="819.2" y2="0" >
<stop  offset="0" style="stop-color:#93C51D;stop-opacity:1" />
<stop  offset="1" style="stop-color:#8FD022;stop-opacity:1" />
</linearGradient>
<path style="fill:url(#LinearGradID_1935) " d="M7.35,-4.8L7.25 -4.05L6.85 -4.3L7.35 -4.8" />
<linearGradient
id="LinearGradID_1936" gradientUnits="userSpaceOnUse" gradientTransform="matrix(0.000305176, 0, 0, 0.000457764, -5.35, 2.65)" spreadMethod ="pad" x1="-819.2" y1="0" x2="819.2" y2="0" >
<stop  offset="0" style="stop-color:#93C51D;stop-opacity:1" />
<stop  offset="1" style="stop-color:#8FD022;stop-opacity:1" />
</linearGradient>
<path style="fill:url(#LinearGradID_1936) " d="M-5.15,2.3L-5.1 3.05L-5.6 2.5L-5.15 2.3" />
<linearGradient
id="LinearGradID_1937" gradientUnits="userSpaceOnUse" gradientTransform="matrix(0.00100708, 0, 0, 0.00088501, -7.5, 6.8)" spreadMethod ="pad" x1="-819.2" y1="0" x2="819.2" y2="0" >
<stop  offset="0" style="stop-color:#93C51D;stop-opacity:1" />
<stop  offset="1" style="stop-color:#8FD022;stop-opacity:1" />
</linearGradient>
<path style="fill:url(#LinearGradID_1937) " d="M-8.3,6.1L-6.65 6.9L-7.75 7.55L-8.3 6.1" />
<linearGradient
id="LinearGradID_1938" gradientUnits="userSpaceOnUse" gradientTransform="matrix(0.00558472, 0, 0, 0.00485229, -12.9, 2.1)" spreadMethod ="pad" x1="-819.2" y1="0" x2="819.2" y2="0" >
<stop  offset="0" style="stop-color:#93C51D;stop-opacity:1" />
<stop  offset="1" style="stop-color:#8FD022;stop-opacity:1" />
</linearGradient>
<path style="fill:url(#LinearGradID_1938) " d="M-10.15,2.05L-10.2 1.1L-10.2 0.85L-8.3 6.1Q-11.5 4.7 -15.25 4.7L-17.45 4.85L-16.35 2.1L-16.3 2.05L-15.4 0.4L-13.65 -1.85L-11.95 0.4L-11 2.05Q-10.45 3.05 -10.05 4.15L-10.15 2.05" />
<path style="fill:none;stroke-width:1;stroke-linecap:round;stroke-linejoin:round;stroke-miterlimit:3;stroke:#5C7128;stroke-opacity:1" d="M7.35,-4.8L6.85 -4.3L7.25 -4.05M-5.1,3.05L-5.6 2.5M-10.2,0.85L-8.3 6.1L-6.65 6.9Q-2.9 4.95 1.55 4.95L6 5.5L9.35 5.2Q13.85 5.2 17.6 7.2L15.75 2.05L13.8 -3.35L13.7 -2.8Q13.45 -0.95 13.5 1.1L13.5 2.05L13.65 4.15L13.9 4.9M7.35,2.05L8.3 0.4Q9.1 -0.9 10 -1.85L11.75 0.4L12.7 2.05L13.65 4.15M13.8,-3.35L13.9 -3.95L14 -4.6M7.35,2.05L7.35 2.1L6.15 4.95M-6.65,6.9L-7.75 7.55L-8.3 6.1Q-11.5 4.7 -15.25 4.7L-17.45 4.85L-16.35 2.1L-16.3 2.05L-15.4 0.4L-13.65 -1.85L-11.95 0.4L-11 2.05Q-10.45 3.05 -10.05 4.15L-10.15 2.05" />
</g>
</svg>
