<?xml version="1.0" encoding="utf-8"?>
<svg version="1.1" id="Layer_1"
xmlns="http://www.w3.org/2000/svg"
xmlns:xlink="http://www.w3.org/1999/xlink"
xmlns:author="http://www.sothink.com"
width="82px" height="74px"
xml:space="preserve">
<g id="259" transform="matrix(1, 0, 0, 1, 40.8, 37.45)">
<path style="fill:#999999;fill-opacity:1" d="M1.55,-32.6L1.45 -2.6Q1.45 -2.1 1 -1.65Q0.5 -1.25 -0.15 -1.2L-0.2 -1.2Q-0.85 -1.2 -1.3 -1.6Q-1.8 -1.95 -1.8 -2.45L-1.7 -33L-35.7 -17.1L-1.1 1.05L-0.3 0.85L-0.25 0.85L0.15 0.9Q17.4 -7.2 34.65 -15.25L1.55 -32.6M1.55,4.1L1.35 4.15L1.25 34.9L0.8 35.85Q0.3 36.25 -0.35 36.3L-0.4 36.3Q-1.05 36.3 -1.5 35.9Q-2 35.55 -2 35.05L-1.9 4.25L-2.3 4.1L-37.2 -14.2L-37.3 15.4Q-37.3 15.9 -37.75 16.35Q-38.25 16.75 -38.9 16.8L-38.95 16.8Q-39.6 16.8 -40.05 16.4Q-40.55 16.05 -40.55 15.55L-40.45 -17.25L-40.35 -17.7L-40.25 -18.25Q-40.05 -18.95 -39.4 -19.25L-1.95 -36.75L-1.75 -36.75L-1.1 -37.15L0.15 -37L37.2 -17.55L37.75 -17.1L38.7 -17.4L38.75 -17.4L39.9 -17.05L40.35 -16.25L40.45 -16.05Q40.75 -15.4 40.55 -14.7L40.35 -14.3L40.25 16.65L39.8 17.6Q39.3 18 38.65 18.05L38.6 18.05Q37.95 18.05 37.5 17.65Q37 17.3 37 16.8L37.1 -12.55L1.55 4.1" />
<path style="fill:none;stroke-width:0.5;stroke-linecap:round;stroke-linejoin:round;stroke-miterlimit:3;stroke:#666666;stroke-opacity:1" d="M-1.7,-33L-1.8 -2.45Q-1.8 -1.95 -1.3 -1.6Q-0.85 -1.2 -0.2 -1.2L-0.15 -1.2Q0.5 -1.25 1 -1.65Q1.45 -2.1 1.45 -2.6L1.55 -32.6L-1.2 -34.05L-1.7 -34.45L-1.7 -33L-35.7 -17.1L-1.1 1.05L-0.3 0.85L-0.25 0.85L0.15 0.9Q17.4 -7.2 34.65 -15.25L1.55 -32.6M40.35,-14.3L39.65 -13.75L37.1 -12.55L37 16.8Q37 17.3 37.5 17.65Q37.95 18.05 38.6 18.05L38.65 18.05Q39.3 18 39.8 17.6L40.25 16.65L40.35 -14.3L40.55 -14.7Q40.75 -15.4 40.45 -16.05L40.35 -16.25L39.45 -16.95L38.2 -16.9L37.2 -16.45L34.65 -15.25M40.35,-16.25L39.9 -17.05L38.75 -17.4L38.7 -17.4L37.75 -17.1L37.6 -16.95L37.2 -16.45M37.75,-17.1L37.2 -17.55L0.15 -37L-1.1 -37.15L-1.75 -36.75L-2 -36.35L-2.05 -36.3Q-2.35 -35.7 -2.1 -35.05L-1.7 -34.45M-1.95,-36.75L-39.4 -19.25Q-40.05 -18.95 -40.25 -18.25L-40.35 -17.7L-39.95 -18.2Q-39.5 -18.6 -38.85 -18.65L-38.8 -18.65L-37.65 -18.3L-37.35 -17.95L-35.7 -17.1M-40.35,-17.7L-40.45 -17.25L-40.55 15.55Q-40.55 16.05 -40.05 16.4Q-39.6 16.8 -38.95 16.8L-38.9 16.8Q-38.25 16.75 -37.75 16.35Q-37.3 15.9 -37.3 15.4L-37.2 -14.2L-39.35 -15.35Q-40 -15.65 -40.25 -16.35Q-40.5 -17 -40.2 -17.6L-40.2 -17.65Q-39.9 -18.25 -39.25 -18.45L-38 -18.3L-37.35 -17.95M-37.2,-14.2L-2.3 4.1L-1.9 4.25L-1.9 2.25Q-1.9 1.7 -1.4 1.3L-1.1 1.05M-1.9,4.25L-2 35.05Q-2 35.55 -1.5 35.9Q-1.05 36.3 -0.4 36.3L-0.35 36.3Q0.3 36.25 0.8 35.85L1.25 34.9L1.35 4.15L1.35 2.15Q1.3 1.6 0.9 1.2L0.15 0.9M1.35,4.15L1.55 4.1L37.1 -12.55" />
</g>
</svg>
