<?xml version="1.0" encoding="utf-8"?>
<svg version="1.1" id="Layer_1"
xmlns="http://www.w3.org/2000/svg"
xmlns:xlink="http://www.w3.org/1999/xlink"
xmlns:author="http://www.sothink.com"
width="28px" height="37px"
xml:space="preserve">
<g id="74" transform="matrix(1, 0, 0, 1, 0.25, 0.25)">
<path style="fill:#44676F;fill-opacity:0.85098" d="M16.3,23.95L24.6 28.05Q26.75 29.4 24.6 31.5L16.3 35.65Q15.2 36.25 13.95 36.25Q12.7 36.25 11.6 35.65L3.3 31.5Q1.15 29.7 3.3 28.05L11.6 23.95Q12.7 23.4 13.95 23.4Q15.2 23.4 16.3 23.95" />
<path style="fill:none;stroke-width:0.5;stroke-linecap:round;stroke-linejoin:round;stroke-miterlimit:3;stroke:#44676F;stroke-opacity:0.85098" d="M16.3,23.95L24.6 28.05Q26.75 29.4 24.6 31.5L16.3 35.65Q15.2 36.25 13.95 36.25Q12.7 36.25 11.6 35.65L3.3 31.5Q1.15 29.7 3.3 28.05L11.6 23.95Q12.7 23.4 13.95 23.4Q15.2 23.4 16.3 23.95z" />
<path style="fill:#F7AAE0;fill-opacity:1" d="M24.25,13.45L24.25 13.4L23.45 12.85L23.55 12.65L23.6 12.3L27.3 11.8L27.35 11.85L26.35 14.15L24.3 13.45L24.25 13.45M23.1,13.65L25.4 15.35L26.5 15.25L27.1 15.2L27.2 15.25L26.75 17.3L27.1 17.25L27.2 17.3L26.85 18L26.85 17.7L23.65 17.2L23.65 17L23.65 16.95L24.2 16L23.1 13.65M26.7,19.75L24.5 19.6L23.65 19.25L23.65 19.05L23.7 18.65L23.65 18.5L23.55 18.1L23.55 18.05L26.9 19.2L26.8 19.5L26.8 19.75L26.7 19.75M26.9,21.25L26.45 22.6L26.5 23.75L23.35 23.25L23.35 23.05L23.35 23L23.4 22.55Q23.85 21.9 24.5 21.6L23.55 20.1L26.9 21.25M23.5,28.25L23 27.2L23.1 27.3L25.9 25.05L26 25.2L26.6 25.25L26.45 25.7L24.75 27.35L24.4 28.15L23.55 28.45L23.5 28.25M16.65,32.65L16.95 31.75L17 31.75L20.2 32L20.55 32.05L20.45 32.9Q20.25 33.85 18.9 33.15L17.85 34.7L15.95 33.55L16.65 32.65M13.25,34.2L12.75 34.6Q11.45 35.15 10.5 33L11.45 33.25L12.2 33.65L13.25 34.2M10.35,32.95L8.4 33.15L9.55 32.7L9.75 32.55L10.35 32.95M6,32.5L5.8 32.5L5.9 32.35L6 32.5M3.3,26.4L3.5 26.25L4.4 27.8L4.4 28Q4.45 28.9 5 29.65L2.4 28.75L2.3 28.75Q0.55 28.9 1.7 28.05L2.05 25.15L3.3 26.4M2.8,24.25L3.4 23.15L3.8 23.6L4.65 24.95L5.35 25.45L5.55 25.5L5.45 25.6L4.85 26.2L4.8 26.3L4.8 26.35L4.45 25.55L4.1 25.8L2.8 24.25M3.75,22.05L3.65 22.9Q1.9 22.15 0.8 20.85Q0.7 20.7 1.3 20L3.75 22.05M3.15,18.6L4.15 19.75L4.35 20L4.6 20.55L4.15 21.1L2.05 19.1L2.15 19L1.35 15.45L3.8 17.5L3.7 18.35Q3.45 18.45 3.15 18.6M4.2,16.55L2.15 14.65L2.05 14.6L2.3 11.05L4.75 13.1L4.65 13.95L3.55 14.45L4.65 16L4.2 16.55M5.15,12.15L3.05 10.15Q3.9 8.35 5.15 10.8L5.6 11.6L5.15 12.15M10.15,12.2L10.85 11.35L13.3 13.4L13.2 14.25L13.25 14.55L13.05 14.55L12.8 14.45L10.55 14.5L10.6 14.15L10.6 13.85L10.15 12.2M13.7,12.45L11.6 10.45Q12.5 8.75 13.7 11.1L14.15 11.9L13.7 12.45M18.05,10.4L17.75 11.15L17.2 11.3L15.25 11.25L14.75 8.85L16.2 7.8L18.05 10.4M18.7,9.6L17.15 7.1L18 6.2L19.25 9.2L18.7 9.6M22.2,14.35L22.25 14.35L22.25 14.4L22.2 14.35M22.3,26.6L22.05 26.4L21.7 25.65L22.6 24.95Q23.15 24.35 23.3 23.55L24.55 24.3L23.3 26.1L23.25 26.1L22.45 26.7L22.3 26.6M9.65,20.8L8.75 20.3L8.9 20.15L9.5 19.25L9.5 19.2L9.55 19.25L9.55 19.3L10.2 19.8L10.5 19.95L10.25 20.15L10.15 20.25L9.65 20.8M15.1,22.7L15.1 22.5L15.1 22.45L15.1 22.15L15.15 22.2L17.55 22.05L17.5 22.3L16.3 23.1L15.1 22.7M17.7,16.85L17.55 16.75L17.7 16.65L17.7 16.85M21.4,26.2L21.3 26.15L21.35 26.05L21.4 26.2M16.45,29.6L15.85 28.95Q16.75 28.8 17.45 28.15L17.5 28.1L17.55 28.1L17.85 28.1Q17.7 28.45 17.7 28.9L18 30.4L18.3 30.9L17.95 30.95L17.9 30.95L16.95 30.85L16.9 30.65L16.85 30.4L16.45 29.6" />
<path style="fill:#FFFFFF;fill-opacity:1" d="M17.75,11.2L17.75 11.15L18.05 10.4L16.2 7.8L17.15 7.1L18.7 9.6L18.6 9.7L23.55 12.65L23.45 12.85L24.25 13.4L24.25 13.45L24.3 13.45L26.35 14.15L26.5 15.25L25.4 15.35L23.1 13.65L23.15 13.5Q23.7 14.2 24.6 14.2L23.4 13L23.2 13.45L23.15 13.5L22.3 14.3L17.75 11.2M13.45,12.85L13.6 12.6L18.5 13.85L19.15 14.35L19.2 14.4L19.15 14.4L18.1 15.4L23.65 17L23.65 17.2L26.85 17.7L26.85 18L27.1 18.4Q27.7 19 26.9 19.2L23.55 18.05L23.55 17.9L24 18.2Q25.9 18.3 23.65 17.4L23.55 17.75L23.5 17.95L23.05 18.75L23.65 19.05L23.65 19.25L24.5 19.6L26.7 19.75L26.8 19.75L26.85 19.75L26.9 21.25L23.55 20.1L23.55 19.95Q24.25 20.5 25.1 20.25L23.65 19.45L23.55 19.8L22.9 20.95L17.7 19.15Q17.75 20.1 18.35 20.85L18.05 21.15L14.5 20.6L13.35 19.75L13.95 19.2L8.75 17.4L8.85 16.5L9.15 15.7L14.7 17.3Q14.7 18.15 14.25 18.85L17.7 18.95L17.9 17.95L22.9 18.9L17.7 17.1L17.7 16.85L17.7 16.65L17.9 15.8L13.2 14.25L13.3 13.4L10.85 11.35L11.6 10.45L13.7 12.45L13.6 12.6L12.65 12.15L12.5 12.2L13.45 12.85M23.35,23.05L23.35 23.25L26.5 23.75L26.55 23.75L26.6 25.25L26 25.2L25.9 25.05L23.1 27.3L23 27.2Q23.85 26.9 24.1 26.05Q23.4 26.35 22.6 26.8L23 27.2L23.5 28.25L19.2 31.65L20.2 32L17 31.75L16.95 31.75L16.65 32.65L11.15 32.25L11.05 31.9L8.9 31.15Q9.1 32 9.75 32.55L9.55 32.7L5 29.6L5.25 28.9L4.4 28L4.4 27.8L3.5 26.25L3.3 26.4L2.05 25.15L2.8 24.25L4.1 25.8L4.45 25.55L4.8 26.35L4.8 26.3L6.4 27.65L5.85 28.1Q5.85 28.85 6.7 29.4Q7.55 29.95 8.75 29.95L8.85 29.45L11.25 30.2L11.1 30.5L16.9 30.65L16.95 30.85L17.9 30.95L17.95 30.95L18.3 30.9L18 30.4L22.3 26.6L21.4 26.2L21.4 26.05L22.05 26.4L22.3 26.6L22.45 26.7L23.25 26.1L23.3 26.1L24.55 24.3L24.6 24.3L23.35 23.45L23.3 23.55Q23.15 24.35 22.6 24.95L17.4 23.15L17.5 22.3L17.55 22.05L17.8 21.45L23.35 23.05M11.9,25.4L12.45 25.4L13.15 25.25L18.3 26.1L18.1 24.85L21.45 25.8L21.4 26L21.35 26.05L21.3 26.15L19 26.6L18.25 26.55L17.65 27.95L17.9 28L17.85 28.1L17.55 28.1L17.5 28.1L17.55 28L12.35 26.2L12.7 27.45L12.25 27.35L11.65 27.3L8.35 26Q8.4 27 9.1 27.8L7.85 26.75L8.15 25.3L8.3 25.2L8.4 25.35L8.45 25.1L8.85 24.7L3.65 22.9L3.75 22.05L1.3 20L2.05 19.1L4.15 21.1L4.05 21.25L9.15 22.6L9.45 23.75L8.9 24.65L11.9 25.4M8.8,17.85Q8.95 18.6 9.5 19.2L9.5 19.25L8.9 20.15L3.7 18.35L3.8 17.5L1.35 15.45L2.05 14.6L2.15 14.65L4.2 16.55M10.6,13.85L10.6 14.15L10.55 14.5L9.3 15.5L7.1 15.25L6.95 15.2L4.65 14.1L4.65 13.95L4.75 13.1L2.3 11.05L3.05 10.15L5.15 12.15L5.05 12.3Q3.35 11.5 4.55 12.3L4.95 12.55L5.05 12.3L10.6 13.85M18.35,9.9L18.55 9.7L18.05 9.35Q17.1 8.75 18.35 9.9M4.2,16.55L4.1 16.7Q2.35 15.85 3.6 16.7L3.95 16.95L4.1 16.7L8.8 17.85M8.55,20.5L8.75 20.3L9.65 20.8L9.55 20.95L8.55 20.5M3.95,21.5L4.05 21.25L3.5 20.95Q2.3 20.5 3.95 21.5M9.55,19.3L9.55 19.25L10.2 19.8L9.55 19.3M16.3,23.1L16.25 23.2L15.45 23.05L15.1 22.85L15.05 23.1Q14.9 23.8 14.35 24.4L9.15 22.6L9.3 21.45L8.95 20.9L9.4 21.15L9.55 20.95L15.1 22.5L15.1 22.7L16.3 23.1M13.05,14.55L13.25 14.55L13.25 14.65L13.05 14.55M16.95,31L16.95 31.45L17 31.55L17.3 31.65Q19.3 31.5 16.95 31M12.2,33.65L11.45 33.25L11.75 33.3L12.2 33.65" />
<path style="fill:#CCCCCC;fill-opacity:1" d="M23.2,13.45L23.4 13L24.6 14.2Q23.7 14.2 23.15 13.5L23.2 13.45M23.55,17.75L23.65 17.4Q25.9 18.3 24 18.2L23.55 17.9L23.55 17.75M23.65,19.45L25.1 20.25Q24.25 20.5 23.55 19.95L23.55 19.8L23.65 19.45M23.35,23.45L24.6 24.3L24.55 24.3L23.3 23.55L23.35 23.45M22.6,26.8Q23.4 26.35 24.1 26.05Q23.85 26.9 23 27.2L22.6 26.8M21.4,26.05L21.4 26L21.45 25.8L21.7 25.65L22.05 26.4L21.4 26.05M12.5,12.2L12.65 12.15L13.6 12.6L13.45 12.85L12.5 12.2M18.05,9.35L18.55 9.7L18.35 9.9Q17.1 8.75 18.05 9.35M4.95,12.55L4.55 12.3Q3.35 11.5 5.05 12.3L4.95 12.55M3.95,16.95L3.6 16.7Q2.35 15.85 4.1 16.7L3.95 16.95M3.5,20.95L4.05 21.25L3.95 21.5Q2.3 20.5 3.5 20.95M8.95,20.9L8.55 20.5L9.55 20.95L9.4 21.15L8.95 20.9M15.45,23.05L15.05 23.1L15.1 22.85L15.45 23.05M17.3,31.65L17 31.55L16.95 31.45L16.95 31Q19.3 31.5 17.3 31.65" />
<radialGradient
id="RadialGradID_416" gradientUnits="userSpaceOnUse" gradientTransform="matrix(0.00605774, 0, 0, 0.00605774, 14.4, 17.35)" spreadMethod ="pad" cx="0" cy="0" r="819.2" fx="0" fy="0" >
<stop  offset="0.0392157"  style="stop-color:#FFFFFF;stop-opacity:1" />
<stop  offset="0.513725"  style="stop-color:#F7AAE0;stop-opacity:1" />
</radialGradient>
<path style="fill:url(#RadialGradID_416) " d="M14.65,16.65L14.85 16.75L14.7 16.8L14.65 16.65" />
<radialGradient
id="RadialGradID_417" gradientUnits="userSpaceOnUse" gradientTransform="matrix(0.00605774, 0, 0, 0.00605774, 7.1, 16.3)" spreadMethod ="pad" cx="0" cy="0" r="819.2" fx="0" fy="0" >
<stop  offset="0.0392157"  style="stop-color:#FFFFFF;stop-opacity:1" />
<stop  offset="0.513725"  style="stop-color:#F7AAE0;stop-opacity:1" />
</radialGradient>
<path style="fill:url(#RadialGradID_417) " d="M4.65,16L5.25 15.6L8.85 16.5L8.75 17.4L8.8 17.85L4.1 16.7L4.2 16.55L4.65 16M3.7,18.35L8.9 20.15L8.75 20.3L8.55 20.5L4.75 20.45L4.35 20L4.15 19.75Q3.75 19.1 3.7 18.35" />
<radialGradient
id="RadialGradID_418" gradientUnits="userSpaceOnUse" gradientTransform="matrix(0.00605774, 0, 0, 0.00605774, 7.8, 25.95)" spreadMethod ="pad" cx="0" cy="0" r="819.2" fx="0" fy="0" >
<stop  offset="0.0392157"  style="stop-color:#FFFFFF;stop-opacity:1" />
<stop  offset="0.513725"  style="stop-color:#F7AAE0;stop-opacity:1" />
</radialGradient>
<path style="fill:url(#RadialGradID_418) " d="M4.8,26.3L4.85 26.2L5.45 25.6L5.55 25.5L8.15 25.3L7.85 26.75L7.95 27.25L6.4 27.65L4.8 26.3M5.25,28.9L5 29.6L5 29.65Q4.45 28.9 4.4 28L5.25 28.9" />
<radialGradient
id="RadialGradID_419" gradientUnits="userSpaceOnUse" gradientTransform="matrix(0.00585938, 0.00157166, -0.00157166, 0.00584412, 8.85, 28.5)" spreadMethod ="pad" cx="0" cy="0" r="819.2" fx="0" fy="0" >
<stop  offset="0.0392157"  style="stop-color:#FFFFFF;stop-opacity:1" />
<stop  offset="0.513725"  style="stop-color:#F7AAE0;stop-opacity:1" />
</radialGradient>
<path style="fill:url(#RadialGradID_419) " d="M5.9,32.35L5 29.65L5 29.6L9.55 32.7L8.4 33.15L6 32.5L5.9 32.35M6.4,27.65L7.95 27.25L9.05 28.95L8.85 29.45L8.75 29.95Q7.55 29.95 6.7 29.4Q5.85 28.85 5.85 28.1L6.4 27.65" />
<radialGradient
id="RadialGradID_420" gradientUnits="userSpaceOnUse" gradientTransform="matrix(0.00605774, 0, 0, 0.00605774, 11.25, 24.7)" spreadMethod ="pad" cx="0" cy="0" r="819.2" fx="0" fy="0" >
<stop  offset="0.0392157"  style="stop-color:#FFFFFF;stop-opacity:1" />
<stop  offset="0.513725"  style="stop-color:#F7AAE0;stop-opacity:1" />
</radialGradient>
<path style="fill:url(#RadialGradID_420) " d="M9.55,28.25L9.05 28.95L7.95 27.25L7.85 26.75L9.1 27.8L9.55 28.25M8.4,25.35L8.3 25.2L8.45 25.1L8.4 25.35" />
<radialGradient
id="RadialGradID_421" gradientUnits="userSpaceOnUse" gradientTransform="matrix(0.00605774, 0, 0, 0.00605774, 16.6, 17.5)" spreadMethod ="pad" cx="0" cy="0" r="819.2" fx="0" fy="0" >
<stop  offset="0.0392157"  style="stop-color:#FFFFFF;stop-opacity:1" />
<stop  offset="0.513725"  style="stop-color:#F7AAE0;stop-opacity:1" />
</radialGradient>
<path style="fill:url(#RadialGradID_421) " d="M14.25,18.85Q14.7 18.15 14.7 17.3L14.7 16.8L14.85 16.75L17.55 16.75L17.7 16.85L17.7 17.1L17.9 17.95L17.7 18.95L14.25 18.85M14.5,20.6L18.05 21.15L17.8 21.45L17.55 22.05L15.15 22.2L15.1 22.15Q15 21.3 14.5 20.6" />
<radialGradient
id="RadialGradID_422" gradientUnits="userSpaceOnUse" gradientTransform="matrix(0.00605774, 0, 0, 0.00605774, 18.95, 23.2)" spreadMethod ="pad" cx="0" cy="0" r="819.2" fx="0" fy="0" >
<stop  offset="0.0392157"  style="stop-color:#FFFFFF;stop-opacity:1" />
<stop  offset="0.513725"  style="stop-color:#F7AAE0;stop-opacity:1" />
</radialGradient>
<path style="fill:url(#RadialGradID_422) " d="M16.3,23.1L17.5 22.3L17.4 23.15L17.65 24.15L16.25 23.2L16.3 23.1M17.9,28L17.65 27.95L18.25 26.55L19 26.6L17.9 28" />
<radialGradient
id="RadialGradID_423" gradientUnits="userSpaceOnUse" gradientTransform="matrix(0.00605774, 0, 0, 0.00605774, 20.8, 21.1)" spreadMethod ="pad" cx="0" cy="0" r="819.2" fx="0" fy="0" >
<stop  offset="0.0392157"  style="stop-color:#FFFFFF;stop-opacity:1" />
<stop  offset="0.513725"  style="stop-color:#F7AAE0;stop-opacity:1" />
</radialGradient>
<path style="fill:url(#RadialGradID_423) " d="M17.8,21.45L18.05 21.15L18.35 20.85L22.75 21.15Q23.35 21.95 23.35 23L23.35 23.05L17.8 21.45M17.65,24.15L17.4 23.15L22.6 24.95L21.7 25.65L21.45 25.8L18.1 24.85L17.65 24.15" />
<radialGradient
id="RadialGradID_424" gradientUnits="userSpaceOnUse" gradientTransform="matrix(0.00605774, 0, 0, 0.00605774, 21.1, 17.1)" spreadMethod ="pad" cx="0" cy="0" r="819.2" fx="0" fy="0" >
<stop  offset="0.0392157"  style="stop-color:#FFFFFF;stop-opacity:1" />
<stop  offset="0.513725"  style="stop-color:#F7AAE0;stop-opacity:1" />
</radialGradient>
<path style="fill:url(#RadialGradID_424) " d="M23.65,19.05L23.05 18.75L23.5 17.95L23.55 18.1L23.65 18.5L23.65 19.05M18.35,20.85Q17.75 20.1 17.7 19.15L22.9 20.95L22.75 21.15L18.35 20.85" />
<radialGradient
id="RadialGradID_425" gradientUnits="userSpaceOnUse" gradientTransform="matrix(0.00605774, 0, 0, 0.00605774, 11.75, 23.95)" spreadMethod ="pad" cx="0" cy="0" r="819.2" fx="0" fy="0" >
<stop  offset="0.0392157"  style="stop-color:#FFFFFF;stop-opacity:1" />
<stop  offset="0.513725"  style="stop-color:#F7AAE0;stop-opacity:1" />
</radialGradient>
<path style="fill:url(#RadialGradID_425) " d="M8.9,24.65L9.45 23.75L11.9 25.4L8.9 24.65M12.25,27.35L12.7 27.45L12.75 27.5L12.25 27.35M11.65,27.3L9.55 28.25L9.1 27.8Q8.4 27 8.35 26L11.65 27.3" />
<radialGradient
id="RadialGradID_426" gradientUnits="userSpaceOnUse" gradientTransform="matrix(0.00587463, -0.00146484, 0.00146484, 0.00585938, 11.65, 28.35)" spreadMethod ="pad" cx="0" cy="0" r="819.2" fx="0" fy="0" >
<stop  offset="0.0392157"  style="stop-color:#FFFFFF;stop-opacity:1" />
<stop  offset="0.513725"  style="stop-color:#F7AAE0;stop-opacity:1" />
</radialGradient>
<path style="fill:url(#RadialGradID_426) " d="M11.05,31.9L11.15 32.25L11.75 33.3L11.45 33.25L10.5 33L10.35 32.95L9.75 32.55Q9.1 32 8.9 31.15L11.05 31.9M11.25,30.2L8.85 29.45L9.05 28.95L9.55 28.25L11.65 27.3L12.25 27.35L12.75 27.5L13.5 28.35L11.25 30.2" />
<radialGradient
id="RadialGradID_427" gradientUnits="userSpaceOnUse" gradientTransform="matrix(0.00605774, 0, 0, 0.00605774, 15.75, 24.15)" spreadMethod ="pad" cx="0" cy="0" r="819.2" fx="0" fy="0" >
<stop  offset="0.0392157"  style="stop-color:#FFFFFF;stop-opacity:1" />
<stop  offset="0.513725"  style="stop-color:#F7AAE0;stop-opacity:1" />
</radialGradient>
<path style="fill:url(#RadialGradID_427) " d="M18.1,24.85L18.3 26.1L13.15 25.25L14.35 24.4Q14.9 23.8 15.05 23.1L15.45 23.05L16.25 23.2L17.65 24.15L18.1 24.85M12.35,26.2L17.55 28L17.5 28.1L17.45 28.15Q16.75 28.8 15.85 28.95L13.5 28.35L12.75 27.5L12.7 27.45L12.35 26.2" />
<radialGradient
id="RadialGradID_428" gradientUnits="userSpaceOnUse" gradientTransform="matrix(0.00605774, 0, 0, 0.00605774, 7.05, 20.85)" spreadMethod ="pad" cx="0" cy="0" r="819.2" fx="0" fy="0" >
<stop  offset="0.0392157"  style="stop-color:#FFFFFF;stop-opacity:1" />
<stop  offset="0.513725"  style="stop-color:#F7AAE0;stop-opacity:1" />
</radialGradient>
<path style="fill:url(#RadialGradID_428) " d="M4.65,24.95L3.8 23.6Q3.65 23.25 3.65 22.9L8.85 24.7L8.45 25.1L8.3 25.2L8.15 25.3L5.55 25.5L5.35 25.45L4.65 24.95M9.3,21.45L9.15 22.6L4.05 21.25L4.15 21.1L4.6 20.55L4.75 20.45L8.55 20.5L8.95 20.9L9.3 21.45" />
<radialGradient
id="RadialGradID_429" gradientUnits="userSpaceOnUse" gradientTransform="matrix(0.00325012, -0.00509644, 0.00509644, 0.00325012, 19.3, 27.7)" spreadMethod ="pad" cx="0" cy="0" r="819.2" fx="0" fy="0" >
<stop  offset="0.0392157"  style="stop-color:#FFFFFF;stop-opacity:1" />
<stop  offset="0.513725"  style="stop-color:#F7AAE0;stop-opacity:1" />
</radialGradient>
<path style="fill:url(#RadialGradID_429) " d="M23.55,28.45Q23.55 29.95 22.7 31Q21.8 32.05 20.55 32.05L20.2 32L19.2 31.65L23.5 28.25L23.55 28.45M18,30.4L17.7 28.9Q17.7 28.45 17.85 28.1L17.9 28L19 26.6L21.3 26.15L21.4 26.2L22.3 26.6L18 30.4" />
<radialGradient
id="RadialGradID_430" gradientUnits="userSpaceOnUse" gradientTransform="matrix(0.00585938, -0.00157166, 0.00157166, 0.00584412, 13.9, 29.4)" spreadMethod ="pad" cx="0" cy="0" r="819.2" fx="0" fy="0" >
<stop  offset="0.0392157"  style="stop-color:#FFFFFF;stop-opacity:1" />
<stop  offset="0.513725"  style="stop-color:#F7AAE0;stop-opacity:1" />
</radialGradient>
<path style="fill:url(#RadialGradID_430) " d="M15.95,33.55L13.25 34.2L12.2 33.65L11.75 33.3L11.15 32.25L16.65 32.65L15.95 33.55M11.25,30.2L13.5 28.35L15.85 28.95L16.45 29.6L16.85 30.4L16.9 30.65L11.1 30.5L11.25 30.2" />
<radialGradient
id="RadialGradID_431" gradientUnits="userSpaceOnUse" gradientTransform="matrix(0.00605774, 0, 0, 0.00605774, 12.55, 20.55)" spreadMethod ="pad" cx="0" cy="0" r="819.2" fx="0" fy="0" >
<stop  offset="0.0392157"  style="stop-color:#FFFFFF;stop-opacity:1" />
<stop  offset="0.513725"  style="stop-color:#F7AAE0;stop-opacity:1" />
</radialGradient>
<path style="fill:url(#RadialGradID_431) " d="M9.45,23.75L9.15 22.6L14.35 24.4L13.15 25.25L12.45 25.4L11.9 25.4L9.45 23.75M10.15,20.25L10.25 20.15L10.5 19.95L13.35 19.75L14.5 20.6Q15 21.3 15.1 22.15L15.1 22.45L15.1 22.5L9.55 20.95L9.65 20.8L10.15 20.25" />
<radialGradient
id="RadialGradID_432" gradientUnits="userSpaceOnUse" gradientTransform="matrix(0.00605774, 0, 0, 0.00605774, 8.05, 11.9)" spreadMethod ="pad" cx="0" cy="0" r="819.2" fx="0" fy="0" >
<stop  offset="0.0392157"  style="stop-color:#FFFFFF;stop-opacity:1" />
<stop  offset="0.513725"  style="stop-color:#F7AAE0;stop-opacity:1" />
</radialGradient>
<path style="fill:url(#RadialGradID_432) " d="M5.05,12.3L5.15 12.15L5.6 11.6L10.15 12.2L10.6 13.85L5.05 12.3M5.25,15.6Q4.75 14.9 4.65 14.1L6.95 15.2L7.1 15.25L9.3 15.5L9.15 15.7L8.85 16.5L5.25 15.6" />
<radialGradient
id="RadialGradID_433" gradientUnits="userSpaceOnUse" gradientTransform="matrix(0.00605774, 0, 0, 0.00605774, 12.15, 15.35)" spreadMethod ="pad" cx="0" cy="0" r="819.2" fx="0" fy="0" >
<stop  offset="0.0392157"  style="stop-color:#FFFFFF;stop-opacity:1" />
<stop  offset="0.513725"  style="stop-color:#F7AAE0;stop-opacity:1" />
</radialGradient>
<path style="fill:url(#RadialGradID_433) " d="M10.55,14.5L12.8 14.45L13.05 14.55L13.25 14.65L14.65 16.65L14.7 16.8L14.7 17.3L9.15 15.7L9.3 15.5L10.55 14.5M9.55,19.25L9.5 19.2Q8.95 18.6 8.8 17.85L8.75 17.4L13.95 19.2L13.35 19.75L10.5 19.95L10.2 19.8L9.55 19.25" />
<radialGradient
id="RadialGradID_434" gradientUnits="userSpaceOnUse" gradientTransform="matrix(0.00605774, 0, 0, 0.00605774, 16.6, 12.2)" spreadMethod ="pad" cx="0" cy="0" r="819.2" fx="0" fy="0" >
<stop  offset="0.0392157"  style="stop-color:#FFFFFF;stop-opacity:1" />
<stop  offset="0.513725"  style="stop-color:#F7AAE0;stop-opacity:1" />
</radialGradient>
<path style="fill:url(#RadialGradID_434) " d="M18.5,13.85L13.6 12.6L13.7 12.45L14.15 11.9Q14.65 11.45 15.25 11.25L17.2 11.3L17.7 11.5L18.5 13.85M14.85,16.75L14.65 16.65L13.25 14.65L13.25 14.55L13.2 14.25L17.9 15.8L17.7 16.65L17.55 16.75L14.85 16.75" />
<radialGradient
id="RadialGradID_435" gradientUnits="userSpaceOnUse" gradientTransform="matrix(0.00585938, 0.00157166, -0.00157166, 0.00584412, 21.6, 10.1)" spreadMethod ="pad" cx="0" cy="0" r="819.2" fx="0" fy="0" >
<stop  offset="0.0392157"  style="stop-color:#FFFFFF;stop-opacity:1" />
<stop  offset="0.513725"  style="stop-color:#F7AAE0;stop-opacity:1" />
</radialGradient>
<path style="fill:url(#RadialGradID_435) " d="M19.25,9.2Q21.05 9.2 22.35 10.1Q23.6 11 23.6 12.3L23.55 12.65L18.6 9.7L18.7 9.6L19.25 9.2M22.3,14.3L22.25 14.35L22.2 14.35L19.2 14.4L19.15 14.35L18.5 13.85L17.7 11.5L17.75 11.2L22.3 14.3" />
<radialGradient
id="RadialGradID_436" gradientUnits="userSpaceOnUse" gradientTransform="matrix(0.00605774, 0, 0, 0.00605774, 21.1, 15.05)" spreadMethod ="pad" cx="0" cy="0" r="819.2" fx="0" fy="0" >
<stop  offset="0.0392157"  style="stop-color:#FFFFFF;stop-opacity:1" />
<stop  offset="0.513725"  style="stop-color:#F7AAE0;stop-opacity:1" />
</radialGradient>
<path style="fill:url(#RadialGradID_436) " d="M18.1,15.4L19.15 14.4L19.2 14.4L22.2 14.35L22.25 14.4L23.65 16.95L23.65 17L18.1 15.4M17.7,17.1L22.9 18.9L17.9 17.95L17.7 17.1" />
<path style="fill:none;stroke-width:0.05;stroke-linecap:round;stroke-linejoin:round;stroke-miterlimit:3;stroke:#83724B;stroke-opacity:1" d="M23.6,12.3L27.3 11.8M27.35,11.85L26.35 14.15L26.5 15.25L27.1 15.2M27.2,15.25L26.75 17.3L27.1 17.25M27.2,17.3L26.85 18L27.1 18.4Q27.7 19 26.9 19.2L26.8 19.5L26.8 19.75L26.85 19.75L26.9 21.25L26.45 22.6L26.5 23.75L26.55 23.75L26.6 25.25L26.45 25.7L24.75 27.35L24.4 28.15L23.55 28.45M20.55,32.05L20.45 32.9Q20.25 33.85 18.9 33.15L17.85 34.7L15.95 33.55M13.25,34.2L12.75 34.6Q11.45 35.15 10.5 33M10.35,32.95L8.4 33.15M6,32.5L5.8 32.5L5.9 32.35M5,29.65L2.4 28.75L2.3 28.75Q0.55 28.9 1.7 28.05L2.05 25.15L2.8 24.25L3.4 23.15L3.8 23.6M3.65,22.9Q1.9 22.15 0.8 20.85Q0.7 20.7 1.3 20L2.05 19.1L2.15 19L1.35 15.45L2.05 14.6L2.3 11.05L3.05 10.15Q3.9 8.35 5.15 10.8L5.6 11.6M10.15,12.2L10.85 11.35L11.6 10.45Q12.5 8.75 13.7 11.1L14.15 11.9M15.25,11.25L14.75 8.85L16.2 7.8L17.15 7.1L18 6.2L19.25 9.2M24.25,13.4L24.3 13.45M25.4,15.35L26.5 15.25M26.75,17.3L26.85 17.7L26.85 18M24.25,13.45L24.3 13.45M23.2,13.45L23.15 13.5L23.1 13.65M25.4,15.35L24.2 16L23.65 16.95M22.25,14.35L22.25 14.4M23.55,17.75L23.55 17.9L23.55 18.05L23.55 18.1M23.65,18.5L23.7 18.65L24.5 19.6L26.7 19.75L26.8 19.5M24.2,16L23.1 13.65M23.65,19.05L23.7 18.65M23.35,23L23.4 22.55Q23.85 21.9 24.5 21.6L23.55 20.1L23.55 19.95L23.55 19.8M23.3,23.55L24.55 24.3L24.6 24.3L25.9 25.05L26 25.2M23.3,26.1L23.25 26.1M23,27.2L23.1 27.3L24.75 27.35M21.7,25.65L22.05 26.4L22.3 26.6M24.5,21.6L26.45 22.6M12.5,12.2L12.65 12.15M17.75,11.15L17.2 11.3M4.65,13.95L3.55 14.45L4.65 16M2.05,14.6L2.15 14.65L3.55 14.45M4.15,19.75L3.15 18.6L2.65 18L2.15 19M4.6,20.55L4.35 20M10.15,20.25L10.05 20.1L10 20L9.55 19.3L9.5 19.25M9.55,19.3L9.55 19.25M3.7,18.35Q3.45 18.45 3.15 18.6M13.2,14.25L12.8 14.45M10.6,13.85L10.6 14.15M10.25,20.15L10.05 20.1M10.2,19.8L10 20M15.15,22.2L15.1 22.45M17.45,28.15L17.45 28.35L17.55 28.1L17.65 27.95M16.45,29.6L17.1 29.55L17.6 28.95L17.45 28.35M17.7,28.9L17.6 28.95M17.9,30.95L17.95 30.95M17.1,29.55L16.85 30.4M17,31.75L17 31.55L16.95 31.45M17,31.75L18.9 33.15M5.35,25.45L5.45 25.6M4.45,25.55L4.1 25.8L3.5 26.25L3.3 26.4L2.1 27.65L2.4 28.75M4.45,25.55L4.5 25.5L4.65 24.95M4.85,26.2L4.5 25.5M1.7,28.05L2.1 27.65M26.45,25.7L26 25.2M21.4,26.2L21.4 26.05L21.4 26M21.4,26.2L21.35 26.05" />
<path style="fill:none;stroke-width:0.05;stroke-linecap:round;stroke-linejoin:round;stroke-miterlimit:3;stroke:#7B6940;stroke-opacity:1" d="M23.55,28.45Q23.55 29.95 22.7 31Q21.8 32.05 20.55 32.05M15.95,33.55L13.25 34.2M12.2,33.65L11.75 33.3L11.45 33.25L10.5 33L10.35 32.95M9.55,32.7L8.4 33.15L6 32.5L5.9 32.35L5 29.65L5 29.6M4.4,28L4.4 27.8Q4.4 27 4.8 26.35L4.8 26.3L4.85 26.2L5.45 25.6L5.55 25.5L5.35 25.45L4.65 24.95L3.8 23.6Q3.65 23.25 3.65 22.9M5.05,12.3L5.15 12.15L5.6 11.6L10.15 12.2M14.15,11.9Q14.65 11.45 15.25 11.25M18.35,9.9L18.55 9.7L18.6 9.7L18.7 9.6L19.25 9.2Q21.05 9.2 22.35 10.1Q23.6 11 23.6 12.3L23.55 12.65M22.3,14.3L22.25 14.35M22.25,14.4L23.65 16.95M22.25,14.4L22.2 14.35L22.25 14.35M22.2,14.35L19.2 14.4L19.15 14.4L18.1 15.4M23.55,18.1L23.65 18.5M23.55,18.1L23.5 17.95M23.65,19.05L23.65 18.5M22.9,20.95L22.75 21.15Q23.35 21.95 23.35 23M22.9,18.9L17.9 17.95L17.7 18.95L17.7 19.15M22.6,24.95L21.7 25.65L21.45 25.8L18.1 24.85L18.3 26.1M13.6,12.6L13.7 12.45M17.2,11.3L17.7 11.5L17.75 11.2L17.75 11.15M17.2,11.3L15.25 11.25M18.35,9.9L18.05 10.4L17.75 11.15M5.05,12.3L4.95 12.55L4.75 13.1L4.65 13.95L4.65 14.1Q4.75 14.9 5.25 15.6L8.85 16.5L9.15 15.7L9.3 15.5M7.1,15.25L6.95 15.2M8.85,16.5L8.75 17.4M9.55,19.25L9.5 19.2Q8.95 18.6 8.8 17.85L8.75 17.4M4.65,16L5.25 15.6M3.95,16.95L4.1 16.7L4.2 16.55M3.95,16.95L3.8 17.5L3.7 18.35M4.65,16L4.2 16.55M4.35,20L4.15 19.75Q3.75 19.1 3.7 18.35M3.95,21.5L4.05 21.25L4.15 21.1L4.6 20.55L4.75 20.45M4.35,20L4.75 20.45L8.55 20.5L8.75 20.3L8.9 20.15M3.95,21.5L3.75 22.05L3.65 22.9M9.45,23.75L9.15 22.6M9.4,21.15L9.55 20.95L9.65 20.8L10.15 20.25L10.25 20.15L10.5 19.95L10.2 19.8M8.55,20.5L8.95 20.9M9.4,21.15L9.3 21.45L9.15 22.6M9.3,21.45L8.95 20.9M19.15,14.35L18.5 13.85M13.6,12.6L13.45 12.85L13.3 13.4L13.2 14.25M17.7,16.65L17.9 15.8L18.1 15.4M17.7,16.85L17.7 16.65L17.55 16.75L17.7 16.85L17.7 17.1L17.9 17.95M13.25,14.55L13.2 14.25M10.55,14.5L12.8 14.45L13.05 14.55L13.25 14.65M13.25,14.55L13.25 14.65L14.65 16.65L14.85 16.75L17.55 16.75M14.7,17.3L14.7 16.8L14.85 16.75M14.7,16.8L14.65 16.65M13.95,19.2L13.35 19.75L14.5 20.6M15.1,22.45L15.1 22.15L15.15 22.2L17.55 22.05L17.8 21.45L18.05 21.15L18.35 20.85Q17.75 20.1 17.7 19.15M15.1,22.15Q15 21.3 14.5 20.6M10.5,19.95L13.35 19.75M16.25,23.2L17.65 24.15L17.4 23.15L17.5 22.3L16.3 23.1L16.25 23.2L15.45 23.05L15.05 23.1M17.5,22.3L17.55 22.05M9.55,19.25L10.2 19.8M14.15,11.9L13.7 12.45M10.55,14.5L9.3 15.5M10.6,13.85L10.15 12.2M17.7,11.5L18.5 13.85M17.65,27.95L17.9 28L19 26.6L21.3 26.15L21.4 26.2L22.3 26.6M17.55,28L17.5 28.1L17.45 28.15Q16.75 28.8 15.85 28.95L16.45 29.6M18.3,30.9L18 30.4L17.7 28.9Q17.7 28.45 17.85 28.1L17.9 28M16.85,30.4L16.9 30.65M11.1,30.5Q10.9 31.15 11.05 31.9L11.15 32.25M16.85,30.4L16.45 29.6M12.25,27.35L12.75 27.5L12.7 27.45L12.35 26.2M12.75,27.5L13.5 28.35L15.85 28.95M9.45,23.75L11.9 25.4L12.45 25.4L12.35 26.2M12.45,25.4L13.15 25.25L14.35 24.4M12.25,27.35L11.65 27.3L9.55 28.25L9.05 28.95L8.85 29.45M11.1,30.5L11.25 30.2L13.5 28.35M11.75,33.3L11.15 32.25M12.2,33.65L13.25 34.2M18.3,30.9L19.2 31.65L20.2 32L20.55 32.05M15.95,33.55L16.65 32.65M8.3,25.2L8.15 25.3L7.85 26.75L7.95 27.25L9.05 28.95M9.55,28.25L9.1 27.8Q8.4 27 8.35 26L8.4 25.35M8.3,25.2L8.45 25.1L8.85 24.7M8.45,25.1L8.4 25.35M5.55,25.5L8.15 25.3M9.75,32.55Q9.1 32 8.9 31.15L8.75 29.95L8.85 29.45M7.95,27.25L6.4 27.65L5.85 28.1L5.25 28.9L5 29.6M4.4,28Q4.45 28.9 5 29.65M9.75,32.55L10.35 32.95M23.55,28.45L23.5 28.25M17.65,24.15L18.1 24.85M18.35,20.85L22.75 21.15" />
<path style="fill:none;stroke-width:0.05;stroke-linecap:round;stroke-linejoin:round;stroke-miterlimit:3;stroke:#000000;stroke-opacity:1" d="M23.55,12.65L23.45 12.85L23.4 13L23.2 13.45M23.65,17L23.65 17.2L23.65 17.4L23.55 17.75L23.5 17.95L23.05 18.75L22.9 18.9M23.15,13.5L22.3 14.3M23.65,19.45L23.55 19.8L22.9 20.95M23.65,19.45L23.65 19.25L23.65 19.05M23.35,23.05L23.35 23.25L23.35 23.45L23.3 23.55Q23.15 24.35 22.6 24.95M22.3,26.6L22.45 26.7L22.6 26.8M13.95,19.2L14.25 18.85Q14.7 18.15 14.7 17.3M8.9,20.15L9.5 19.25L9.5 19.2M8.85,24.7L8.9 24.65L9.45 23.75M14.35,24.4Q14.9 23.8 15.05 23.1L15.1 22.85L15.1 22.7L15.1 22.5M19.15,14.4L19.15 14.35M10.6,14.15L10.55 14.5M18.3,26.1L18.25 26.55L17.65 27.95M21.3,26.15L21.35 26.05L21.4 26L21.45 25.8M17.55,28L17.65 27.95M16.9,30.65L16.95 30.85M16.65,32.65L16.95 31.75L16.95 31.45L16.95 31L16.95 30.85M23.5,28.25L23 27.2L22.6 26.8M9.55,32.7L9.75 32.55" />
<linearGradient
id="LinearGradID_437" gradientUnits="userSpaceOnUse" gradientTransform="matrix(0, -0.00895691, 0.00836182, 0, 6.85, 22.8)" spreadMethod ="pad" x1="-819.2" y1="0" x2="819.2" y2="0" >
<stop  offset="0" style="stop-color:#B5CED1;stop-opacity:0.631373" />
<stop  offset="1" style="stop-color:#BABABA;stop-opacity:0.313725" />
</linearGradient>
<path style="fill:url(#LinearGradID_437) " d="M13.7,21.35L13.7 21.45L13.7 21.55L13.7 33.55L13.7 33.65L13.7 33.7Q13.65 36.05 11.95 35.9L11.25 35.7L10.8 35.55L10.3 35.3L3.4 31.7Q0 29.95 0 26.45L0 14.3L0.1 13.25Q0.95 7.05 6.5 5.6L20.95 5.7L21.15 5.75Q26.55 7.3 27.3 13.4Q26.85 11.25 24 12.75L17.1 16.35Q14.3 17.8 13.8 20.4L13.7 21.35" />
<linearGradient
id="LinearGradID_438" gradientUnits="userSpaceOnUse" gradientTransform="matrix(1, 0, 0, 0.998627, 53.35, 30.3)" spreadMethod ="pad" x1="-819.2" y1="0" x2="819.2" y2="0" >
<stop  offset="0" style="stop-color:#B5CED1;stop-opacity:0.631373" />
<stop  offset="0" style="stop-color:#446B6F;stop-opacity:0.631373" />
<stop  offset="1" style="stop-color:#BABABA;stop-opacity:0.313725" />
</linearGradient>
<path style="fill:url(#LinearGradID_438) " d="M15.6,35.95Q13.45 36.6 11.9 36L11.95 35.9Q13.65 36.05 13.7 33.7L13.7 33.65L13.7 33.55L13.7 21.55L13.7 21.45L13.7 21.35L13.8 20.4Q14.3 17.8 17.1 16.35L24 12.75Q26.85 11.25 27.3 13.4L27.4 14.4L27.4 26.55Q27.4 30.05 24 31.8L17.4 35.25L15.6 35.95" />
<path style="fill:none;stroke-width:0.5;stroke-linecap:round;stroke-linejoin:round;stroke-miterlimit:3;stroke:#000000;stroke-opacity:1" d="M13.7,33.7L13.7 33.65" />
<path style="fill:none;stroke-width:0.5;stroke-linecap:round;stroke-linejoin:round;stroke-miterlimit:3;stroke:#44676F;stroke-opacity:0.85098" d="M11.25,35.7L10.8 35.55L10.3 35.3L3.4 31.7Q0 29.95 0 26.45L0 14.3L0.1 13.25Q0.95 7.05 6.5 5.6L20.95 5.7L21.15 5.75Q26.55 7.3 27.3 13.4L27.4 14.4L27.4 26.55Q27.4 30.05 24 31.8L17.4 35.25L17.1 35.4L16 35.85L15.85 35.9L15.6 35.95Q13.45 36.6 11.9 36L11.25 35.7L11.95 35.9Q13.65 36.05 13.7 33.7M13.7,33.65L13.7 33.55L13.7 21.55L13.7 21.45L13.7 21.35L13.65 20.4Q13.15 17.7 10.3 16.25L3.4 12.65Q0.6 11.2 0.1 13.25M27.3,13.4Q26.85 11.25 24 12.75L17.1 16.35Q14.3 17.8 13.8 20.4L13.7 21.35M15.6,35.95L17.4 35.25" />
<radialGradient
id="RadialGradID_439" gradientUnits="userSpaceOnUse" gradientTransform="matrix(0, -0.00682068, 0.00933838, 0, 13.65, 4.05)" spreadMethod ="pad" cx="0" cy="0" r="819.2" fx="0" fy="0" >
<stop  offset="0.109804"  style="stop-color:#D1D1D1;stop-opacity:1" />
<stop  offset="0.176471"  style="stop-color:#AEAEAE;stop-opacity:1" />
<stop  offset="0.603922"  style="stop-color:#959595;stop-opacity:1" />
<stop  offset="0.745098"  style="stop-color:#FFFFFF;stop-opacity:1" />
<stop  offset="0.929412"  style="stop-color:#9E9E9E;stop-opacity:1" />
</radialGradient>
<path style="fill:url(#RadialGradID_439) " d="M6.55,4.85L6.55 4.75L6.55 4.65Q6.65 2.75 8.65 1.4L10.05 0.7Q11.05 0.25 12.2 0.1L13.65 0L13.7 0.25L13.75 0L15.25 0.1Q17.15 0.4 18.65 1.4Q20.75 2.8 20.75 4.75L20.7 5.3L20.5 6L20.35 6.4L18.65 8.1L18.55 8.2Q16.5 9.5 13.65 9.5Q11.65 9.5 10.05 8.85Q9.35 8.6 8.75 8.2L8.65 8.1Q7.25 7.15 6.8 6L6.55 4.85" />
<path style="fill:#922121;fill-opacity:1" d="M20.35,6.4L20.5 6L20.7 5.3L20.7 6.65L20.35 6.4M6.8,6L6.55 6L6.55 4.85L6.8 6" />
<linearGradient
id="LinearGradID_440" gradientUnits="userSpaceOnUse" gradientTransform="matrix(-0.00950623, 0.0025177, -0.00154114, -0.00579834, 11.45, 5.4)" spreadMethod ="pad" x1="-819.2" y1="0" x2="819.2" y2="0" >
<stop  offset="0" style="stop-color:#FFFFFF;stop-opacity:1" />
<stop  offset="0.235294" style="stop-color:#BBBBBB;stop-opacity:1" />
<stop  offset="0.513725" style="stop-color:#808080;stop-opacity:1" />
</linearGradient>
<path style="fill:url(#LinearGradID_440) " d="M6.8,6Q7.25 7.15 8.65 8.1L8.75 8.2Q9.35 8.6 10.05 8.85Q11.65 9.5 13.65 9.5Q16.5 9.5 18.55 8.2L18.65 8.1L20.35 6.4L20.7 6.65L20.7 7.7L20.6 8.2Q20.35 9 19.7 9.65L18.65 10.5Q16.6 11.9 13.65 11.9Q10.7 11.9 8.65 10.5Q7.1 9.5 6.75 8.2L6.6 7.6L6.55 7.3L6.55 6L6.8 6" />
<path style="fill:none;stroke-width:0.5;stroke-linecap:round;stroke-linejoin:round;stroke-miterlimit:3;stroke:#666666;stroke-opacity:1" d="M20.7,5.3L20.75 4.75Q20.75 2.8 18.65 1.4Q17.15 0.4 15.25 0.1L13.75 0M6.55,4.65Q6.65 2.75 8.65 1.4L10.05 0.7Q11.05 0.25 12.2 0.1L13.65 0" />
<path style="fill:none;stroke-width:0.5;stroke-linecap:round;stroke-linejoin:round;stroke-miterlimit:3;stroke:#333333;stroke-opacity:1" d="M20.35,6.4L20.5 6L20.7 5.3L20.7 6.65L20.75 7.2L20.7 7.7L20.6 8.2Q20.35 9 19.7 9.65L18.65 10.5Q16.6 11.9 13.65 11.9Q10.7 11.9 8.65 10.5Q7.1 9.5 6.75 8.2L6.6 7.6L6.55 7.3L6.55 6L6.55 4.85" />
<path style="fill:none;stroke-width:0.5;stroke-linecap:round;stroke-linejoin:round;stroke-miterlimit:3;stroke:#000000;stroke-opacity:1" d="M6.55,4.85L6.55 4.75L6.55 4.65M13.65,0L13.75 0M20.7,7.7L20.7 6.65M6.55,4.85L6.8 6" />
<path style="fill:none;stroke-width:0.5;stroke-linecap:round;stroke-linejoin:round;stroke-miterlimit:3;stroke:#D9D9D9;stroke-opacity:1" d="M13.7,0.25Q14.55 0.25 15.1 0.8Q15.7 1.4 15.7 2.25" />
<path style="fill:none;stroke-width:0.5;stroke-linecap:round;stroke-linejoin:round;stroke-miterlimit:3;stroke:#222222;stroke-opacity:1" d="M11.7,2.25Q11.7 1.4 12.25 0.8Q12.85 0.25 13.7 0.25" />
<path style="fill:none;stroke-width:0.5;stroke-linecap:round;stroke-linejoin:round;stroke-miterlimit:3;stroke:#484848;stroke-opacity:1" d="M20.35,6.4L18.65 8.1L18.55 8.2Q16.5 9.5 13.65 9.5Q11.65 9.5 10.05 8.85Q9.35 8.6 8.75 8.2L8.65 8.1Q7.25 7.15 6.8 6" />
</g>
</svg>
