<?xml version="1.0" encoding="utf-8"?>
<svg version="1.1" id="Layer_1"
xmlns="http://www.w3.org/2000/svg"
xmlns:xlink="http://www.w3.org/1999/xlink"
xmlns:author="http://www.sothink.com"
width="29px" height="21px"
xml:space="preserve">
<g id="327" transform="matrix(1, 0, 0, 1, 14.3, 10.25)">
<path style="fill:#FFFFFF;fill-opacity:1" d="M11.7,-1.4Q8.8 2.6 3.3 5.75Q-2.2 8.95 -7.1 9.45Q-11.95 10 -13.35 7.6Q-14.75 5.15 -11.85 1.2Q-8.95 -2.75 -3.45 -5.9Q2.05 -9.1 6.95 -9.65Q11.8 -10.2 13.25 -7.75Q14.65 -5.35 11.7 -1.4" />
<path style="fill:none;stroke-width:1;stroke-linecap:round;stroke-linejoin:round;stroke-miterlimit:3;stroke:#000000;stroke-opacity:1" d="M11.7,-1.4Q8.8 2.6 3.3 5.75Q-2.2 8.95 -7.1 9.45Q-11.95 10 -13.35 7.6Q-14.75 5.15 -11.85 1.2Q-8.95 -2.75 -3.45 -5.9Q2.05 -9.1 6.95 -9.65Q11.8 -10.2 13.25 -7.75Q14.65 -5.35 11.7 -1.4z" />
</g>
</svg>
