<?xml version="1.0" encoding="utf-8"?>
<svg version="1.1" id="Layer_1"
xmlns="http://www.w3.org/2000/svg"
xmlns:xlink="http://www.w3.org/1999/xlink"
xmlns:author="http://www.sothink.com"
width="67px" height="67px"
xml:space="preserve">
<g id="639" transform="matrix(1, 0, 0, 1, 38.95, 45.9)">
<path style="fill:#410303;fill-opacity:1" d="M1.45,-11.4L1.4 -12.45L27.35 -25.5L27.55 -20.45L5.7 -9.6L5.85 -4.3L5.85 0.7L5.85 18.2L1.55 20.2L1.55 7.1L1.55 2.7L1.55 -2.3L1.45 -7.45L1.45 -7.5L1.5 -7.5L1.45 -11.4" />
<radialGradient
id="RadialGradID_2771" gradientUnits="userSpaceOnUse" gradientTransform="matrix(-0.0232086, 0, 0, 0.0210876, -6.6, -29.45)" spreadMethod ="pad" cx="0" cy="0" r="819.2" fx="0" fy="0" >
<stop  offset="0"  style="stop-color:#2F0202;stop-opacity:1" />
<stop  offset="0"  style="stop-color:#6B0303;stop-opacity:1" />
<stop  offset="0"  style="stop-color:#2F0202;stop-opacity:1" />
<stop  offset="0"  style="stop-color:#600202;stop-opacity:1" />
<stop  offset="1"  style="stop-color:#400000;stop-opacity:1" />
</radialGradient>
<path style="fill:url(#RadialGradID_2771) " d="M-38.45,-32.4L-38.5 -32.4L-38.45 -32.45L-12.5 -45.4L-4 -41.15L-3.65 -40.95L-3.1 -40.7L-2.6 -40.45L27.35 -25.5L1.4 -12.45L-38.45 -32.4" />
<path style="fill:#4F0404;fill-opacity:1" d="M1.4,-12.45L1.55 7.1L1.55 20.2L-38.45 0.4L-38.45 -32.4L1.4 -12.45" />
<path style="fill:none;stroke-width:1;stroke-linecap:round;stroke-linejoin:round;stroke-miterlimit:3;stroke:#2F0202;stroke-opacity:1" d="M5.7,-9.6L27.55 -20.45L27.35 -25.5L1.4 -12.45L1.55 7.1L1.55 20.2L5.85 18.2L5.85 0.7L5.85 -4.3L5.7 -9.6L1.5 -7.5M1.4,-12.45L-38.45 -32.4L-38.45 0.4L1.55 20.2M-3.1,-40.7L-2.6 -40.45L27.35 -25.5M-38.45,-32.45L-12.5 -45.4L-4 -41.15L-3.65 -40.95" />
</g>
</svg>
