<?xml version="1.0" encoding="utf-8"?>
<svg version="1.1" id="Layer_1"
xmlns="http://www.w3.org/2000/svg"
xmlns:xlink="http://www.w3.org/1999/xlink"
xmlns:author="http://www.sothink.com"
width="87px" height="153px"
xml:space="preserve">
<g id="264" transform="matrix(1, 0, 0, 1, 55.95, 113.5)">
<path style="fill:#000000;fill-opacity:0.2" d="M13.6,-12.95L13.8 -12.8L4.6 -21.45L2.55 -20.35L2.4 -19.25Q2.05 -17.45 0.8 -16.8L-2.95 -14.7Q-5.2 -9.8 -0.6 -8.65L3.2 -10.7L5.85 -10.55L6.4 -10.2L12.45 -13.5L13.6 -12.95M14.65,-7.8L7.8 -4.05Q6.6 1.6 1 5.35L0.2 5.9L3.95 9.6L4.1 9.95L4.2 9.9L3.65 16.8L1.55 15.05L1.5 15Q2.05 16.45 3.65 16.85L3.7 16.85L4.1 17.15L3.65 17.15Q1 17 1.8 19.8L2.1 20.55L0.4 19.2Q-2.8 18.8 -1.9 21.8L-2.15 22.15L-1.6 22.55Q-1.1 23 -0.5 23.1L-0.55 23.1Q-2.25 23 -2.65 23.9L-3.3 23.8L-3.55 24.55L-3.6 24.55L-4.1 25.1L-4.15 25.15L-1.25 27.6L-1.9 27.55Q-4.7 27.55 -3.25 31L-3.65 30.7L-3.7 30.25Q-3.9 29.45 -4.45 28.9L-4.5 29Q-4.95 29.7 -5.8 29.8Q-6.45 29.85 -7.05 29.45L-7.1 29.8L-7.05 31.05L-6.95 31.3L-6.7 32.1Q-6 32.65 -5.25 32.65L-5.15 32.65L-4.55 32.5L-4.45 32.75L-4.35 33.45L-4.65 34.35L-4.65 34.4L-5.1 34.9L-5.2 34.95L-5.95 35.15L-7.05 34.9L-7.2 35.35Q-10.75 34.9 -9.2 38.7L-27.45 23.55L-28.2 24Q-30.65 25.3 -33.35 24.55L-36.7 26.35L-50.15 28.7L-43.3 16.7Q-45.95 14.65 -45.95 11.15L-55.95 11L-47.95 0.8L-47.8 -2.4L-47.75 -2.55L-47.75 -2.7L-47.7 -2.85Q-46.8 -9.25 -42.85 -11.35Q-41.4 -12.15 -39.8 -12.2L-42 -13.95L-41.25 -14.5L-41.95 -15.05L-41.25 -15.5L-41.55 -16.25L-30.4 -22.4L-28.25 -20.25L-27.65 -20.65L-24.95 -20.8Q-23.55 -20.2 -22.95 -18.6L-21.85 -15.9L-6.65 -24.15L-6.55 -23.85L-2.8 -25.95Q-1.55 -26.65 -0.15 -25.75L-0.1 -25.8L-1.85 -27.45L21.4 -46.65L30.35 -5.5L24.8 -2.45L14.45 -12.15Q15.7 -10.65 14.65 -7.8M1.6,10.7L1.3 10.85L1.4 10.9L1.55 10.9L1.55 10.8L1.6 10.75L1.6 10.7M-29.95,-4.95L-30.6 -4.95L-30.35 -4.7L-29.95 -4.95M-19.05,-10.85L-19 -10.85L-19.15 -11L-19.05 -10.85M-14.5,17.75L-14.4 17.85L-14.5 17.7L-14.5 17.75M-18.6,18.4L-18.5 18.55L-18.6 18.35L-18.6 18.4M-19.25,19.55L-19.35 19.5L-19.75 19.7L-19.25 19.55M-13.3,23.65L-13.3 23.7L-13.15 23.8L-13.3 23.65M-0.15,14.5L-0.25 14.35L-0.25 14.4L-0.15 14.5M-3.45,16.95L-3.45 16.85L-3.55 16.75L-3.55 16.8L-3.45 16.95M-8.5,18.35L-8.5 18.3L-8.6 18.15L-8.6 18.25L-8.5 18.35M-25.15,10L-24.95 9.9L-24.5 9.6L-25.15 10M-29.9,4.25L-29.9 4.8L-29.85 4.8L-29.9 4.25M-21,23.8L-21.4 23.4L-21 23.85L-21 23.8" />
<path style="fill:none;stroke-width:1;stroke-linecap:round;stroke-linejoin:round;stroke-miterlimit:3;stroke:#666666;stroke-opacity:1" d="M-29.95,-4.95L-30.6 -4.95L-30.35 -4.7L-29.95 -4.95M-19.15,-11L-19 -10.85L-19.05 -10.85L-19.15 -11" />
<linearGradient
id="LinearGradID_760" gradientUnits="userSpaceOnUse" gradientTransform="matrix(0.0193481, 0, 0, 0.863968, -2.3, 55.4)" spreadMethod ="pad" x1="-819.2" y1="0" x2="819.2" y2="0" >
<stop  offset="0" style="stop-color:#666666;stop-opacity:1" />
<stop  offset="0.666667" style="stop-color:#B5B5B5;stop-opacity:1" />
<stop  offset="1" style="stop-color:#BABABA;stop-opacity:1" />
</linearGradient>
<path style="fill:url(#LinearGradID_760) " d="M12.9,-69.75Q-3.25 -70.25 -2.2 -75.8L-0.75 -75.85Q-3.05 -72.85 12.65 -71.2L12.9 -69.75M9.8,-84.65L9.7 -83.35Q6.05 -83.7 3.65 -81.5L2.55 -82.5Q5.35 -84.95 9.8 -84.65" />
<path style="fill:none;stroke-width:1;stroke-linecap:round;stroke-linejoin:round;stroke-miterlimit:3;stroke:#666666;stroke-opacity:1" d="M12.9,-69.75Q-3.25 -70.25 -2.2 -75.8L-0.75 -75.85Q-3.05 -72.85 12.65 -71.2L12.9 -69.75M2.55,-82.5L3.65 -81.5Q6.05 -83.7 9.7 -83.35L9.8 -84.65Q5.35 -84.95 2.55 -82.5" />
<linearGradient
id="LinearGradID_761" gradientUnits="userSpaceOnUse" gradientTransform="matrix(0.0638123, 0, 0, 0.863968, -20.8, 9.25)" spreadMethod ="pad" x1="-819.2" y1="0" x2="819.2" y2="0" >
<stop  offset="0" style="stop-color:#666666;stop-opacity:1" />
<stop  offset="1" style="stop-color:#BABABA;stop-opacity:1" />
</linearGradient>
<path style="fill:url(#LinearGradID_761) " d="M-4.4,-37.85L-4.35 -37.85L21.5 -50.8L30.1 -3.25L-4.3 14L-4.35 13.95L-4.4 -37.85" />
<linearGradient
id="LinearGradID_762" gradientUnits="userSpaceOnUse" gradientTransform="matrix(0.0697174, 0, 0, 0.863968, 1.2, 10.2)" spreadMethod ="pad" x1="-819.2" y1="0" x2="819.2" y2="0" >
<stop  offset="0" style="stop-color:#666666;stop-opacity:1" />
<stop  offset="0.796078" style="stop-color:#B5B5B5;stop-opacity:1" />
<stop  offset="1" style="stop-color:#BABABA;stop-opacity:1" />
</linearGradient>
<path style="fill:url(#LinearGradID_762) " d="M-30.2,-50.8L-4.4 -63.75L21.5 -50.8L-4.35 -37.85L-4.4 -37.85L-30.2 -50.8" />
<linearGradient
id="LinearGradID_763" gradientUnits="userSpaceOnUse" gradientTransform="matrix(0.0210419, 0, 0, 0.0395203, -21.6, -18.45)" spreadMethod ="pad" x1="-819.2" y1="0" x2="819.2" y2="0" >
<stop  offset="0" style="stop-color:#666666;stop-opacity:1" />
<stop  offset="1" style="stop-color:#BABABA;stop-opacity:1" />
</linearGradient>
<path style="fill:url(#LinearGradID_763) " d="M-4.4,-37.85L-4.35 13.95L-38.8 -3.35L-30.2 -50.8L-4.4 -37.85" />
<path style="fill:none;stroke-width:1;stroke-linecap:round;stroke-linejoin:round;stroke-miterlimit:3;stroke:#999999;stroke-opacity:1" d="M21.5,-50.8L30.1 -3.25L-4.3 14L-4.35 13.95L-38.8 -3.35L-30.2 -50.8L-4.4 -63.75L21.5 -50.8L-4.35 -37.85L-4.4 -37.85L-4.35 13.95M-4.4,-37.85L-30.2 -50.8" />
<linearGradient
id="LinearGradID_764" gradientUnits="userSpaceOnUse" gradientTransform="matrix(0.863968, 0, 0, 0.863968, 70.85, 3.75)" spreadMethod ="pad" x1="-819.2" y1="0" x2="819.2" y2="0" >
<stop  offset="0" style="stop-color:#666666;stop-opacity:1" />
<stop  offset="0.796078" style="stop-color:#B5B5B5;stop-opacity:1" />
<stop  offset="1" style="stop-color:#BABABA;stop-opacity:1" />
</linearGradient>
<path style="fill:url(#LinearGradID_764) " d="M20.35,-78.65L20.25 -78.65L20.2 -78.7L20.25 -78.7L20.35 -78.65" />
<linearGradient
id="LinearGradID_765" gradientUnits="userSpaceOnUse" gradientTransform="matrix(0.863968, 0, 0, 0.863968, 50.2, 21.35)" spreadMethod ="pad" x1="-819.2" y1="0" x2="819.2" y2="0" >
<stop  offset="0" style="stop-color:#666666;stop-opacity:1" />
<stop  offset="0.796078" style="stop-color:#B5B5B5;stop-opacity:1" />
<stop  offset="1" style="stop-color:#BABABA;stop-opacity:1" />
</linearGradient>
<path style="fill:url(#LinearGradID_765) " d="M17.7,-83.5L17.65 -83.5L18.05 -83.65L17.9 -83.55L17.7 -83.5M18.2,-83.75L18.15 -83.7L18 -83.7L18.2 -83.75" />
<linearGradient
id="LinearGradID_766" gradientUnits="userSpaceOnUse" gradientTransform="matrix(0.863968, 0, 0, 0.863968, 68.25, 2.95)" spreadMethod ="pad" x1="-819.2" y1="0" x2="819.2" y2="0" >
<stop  offset="0" style="stop-color:#666666;stop-opacity:1" />
<stop  offset="0.796078" style="stop-color:#B5B5B5;stop-opacity:1" />
<stop  offset="1" style="stop-color:#BABABA;stop-opacity:1" />
</linearGradient>
<path style="fill:url(#LinearGradID_766) " d="M17.95,-79.3L17.7 -79.4L17.75 -79.4L17.95 -79.3" />
<linearGradient
id="LinearGradID_767" gradientUnits="userSpaceOnUse" gradientTransform="matrix(0.863968, 0, 0, 0.863968, -78.1, 13.45)" spreadMethod ="pad" x1="-819.2" y1="0" x2="819.2" y2="0" >
<stop  offset="0" style="stop-color:#666666;stop-opacity:1" />
<stop  offset="0.796078" style="stop-color:#B5B5B5;stop-opacity:1" />
<stop  offset="1" style="stop-color:#BABABA;stop-opacity:1" />
</linearGradient>
<path style="fill:url(#LinearGradID_767) " d="M16.9,-76.95L16.85 -76.95L16.8 -77L16.9 -76.95" />
<linearGradient
id="LinearGradID_768" gradientUnits="userSpaceOnUse" gradientTransform="matrix(0.863968, 0, 0, 0.863968, 69.15, 7.3)" spreadMethod ="pad" x1="-819.2" y1="0" x2="819.2" y2="0" >
<stop  offset="0" style="stop-color:#666666;stop-opacity:1" />
<stop  offset="0.796078" style="stop-color:#B5B5B5;stop-opacity:1" />
<stop  offset="1" style="stop-color:#BABABA;stop-opacity:1" />
</linearGradient>
<path style="fill:url(#LinearGradID_768) " d="M18.5,-75.15L18.65 -75.1L18.55 -75.1L18.45 -75.15L18.5 -75.15" />
<linearGradient
id="LinearGradID_769" gradientUnits="userSpaceOnUse" gradientTransform="matrix(0.863968, 0, 0, 0.863968, 68.25, 10.75)" spreadMethod ="pad" x1="-819.2" y1="0" x2="819.2" y2="0" >
<stop  offset="0" style="stop-color:#666666;stop-opacity:1" />
<stop  offset="0.796078" style="stop-color:#B5B5B5;stop-opacity:1" />
<stop  offset="1" style="stop-color:#BABABA;stop-opacity:1" />
</linearGradient>
<path style="fill:url(#LinearGradID_769) " d="M17.65,-71.7L17.75 -71.65L17.7 -71.65L17.6 -71.7L17.65 -71.7" />
<linearGradient
id="LinearGradID_770" gradientUnits="userSpaceOnUse" gradientTransform="matrix(0.863968, 0, 0, 0.863968, 69.55, 4.15)" spreadMethod ="pad" x1="-819.2" y1="0" x2="819.2" y2="0" >
<stop  offset="0" style="stop-color:#666666;stop-opacity:1" />
<stop  offset="0.796078" style="stop-color:#B5B5B5;stop-opacity:1" />
<stop  offset="1" style="stop-color:#BABABA;stop-opacity:1" />
</linearGradient>
<path style="fill:url(#LinearGradID_770) " d="M14.25,-68.6L11.55 -81.9L11.6 -81.9L11.6 -82.05L11.55 -82.05L10.7 -86.3L10.85 -86.55L28.55 -77.1L28.55 -77.05L28.55 -75.3L12.45 -65.35L12.35 -67.5L12.4 -67.5L14.25 -68.6M20.55,-72.35L19.75 -71.9L19.75 -71.85L20.55 -72.35M20.7,-78.45L20.55 -78.5L20.5 -78.5L20.6 -78.45L20.7 -78.45M15.55,-82.9L15.5 -82.9L15.6 -82.85L15.65 -82.85L15.55 -82.9M13.75,-77.6L13.65 -77.65L13.6 -77.65L13.7 -77.6L13.75 -77.6M18.1,-79.25L18 -79.25L18.25 -79.1L18.1 -79.25M17.3,-76.75L17.2 -76.75L17.45 -76.7L17.3 -76.75M18.8,-74.95L18.85 -74.9L18.95 -74.9L18.8 -74.95M18,-71.45L18.1 -71.45L17.95 -71.5L17.9 -71.5L18 -71.45M14.5,-73.3L14.45 -73.3L14.55 -73.25L14.65 -73.25L14.5 -73.3" />
<path style="fill:none;stroke-width:1;stroke-linecap:round;stroke-linejoin:round;stroke-miterlimit:3;stroke:#666666;stroke-opacity:1" d="M28.55,-77.1L10.85 -86.55M12.4,-67.5L14.25 -68.6L19.75 -71.85M20.55,-72.35L28.55 -77.05L28.55 -75.3L12.45 -65.35M20.55,-72.35L19.75 -71.85" />
<linearGradient
id="LinearGradID_771" gradientUnits="userSpaceOnUse" gradientTransform="matrix(0.0131378, 0.00758362, -0.000915527, 0.00158691, 9.35, -86.4)" spreadMethod ="pad" x1="-819.2" y1="0" x2="819.2" y2="0" >
<stop  offset="0" style="stop-color:#666666;stop-opacity:1" />
<stop  offset="0.796078" style="stop-color:#B5B5B5;stop-opacity:1" />
<stop  offset="1" style="stop-color:#BABABA;stop-opacity:1" />
</linearGradient>
<path style="fill:url(#LinearGradID_771) " d="M26.35,-81.6Q25.7 -81.5 25 -81.9Q23.45 -84.5 26.5 -84.5L27.45 -83.5Q27.7 -82.8 27.4 -82.25L27.35 -82.25Q27.05 -81.7 26.35 -81.6M18.05,-70.3L18.65 -70.3L19.4 -69.65L19.5 -69.45L19.55 -69.3Q19.85 -68.6 19.55 -68.1L19.5 -68.05Q19.2 -67.55 18.5 -67.45L17.15 -67.7Q15.75 -70.1 18.05 -70.3M3.95,-87.8L3 -91.8L3.6 -91.45L3.65 -91.45L19.25 -82.4Q19.9 -82 20.15 -81.4L20.25 -80.6L20.15 -80.2L20.05 -80.1Q19.75 -79.65 19.1 -79.55L18.9 -79.5Q18.3 -79.5 17.75 -79.8L3.95 -87.8M20.35,-81.9L20.15 -82.25Q19.4 -83.75 20.4 -84.25L20.75 -84.4L21.85 -84.5L22.75 -83.5L22.85 -83.15L22.9 -82.8L22.7 -82.25Q22.4 -81.7 21.7 -81.6L21.25 -81.6Q20.8 -81.6 20.35 -81.9" />
<linearGradient
id="LinearGradID_772" gradientUnits="userSpaceOnUse" gradientTransform="matrix(0.0131378, 0.00758362, -0.000915527, 0.00158691, 11.95, -88.5)" spreadMethod ="pad" x1="-819.2" y1="0" x2="819.2" y2="0" >
<stop  offset="0" style="stop-color:#666666;stop-opacity:1" />
<stop  offset="0.796078" style="stop-color:#B5B5B5;stop-opacity:1" />
<stop  offset="1" style="stop-color:#BABABA;stop-opacity:1" />
</linearGradient>
<path style="fill:url(#LinearGradID_772) " d="M26.55,-79.15L25.65 -80.15L25.45 -80.3L25.35 -80.9L24.8 -81.65L25 -81.9Q25.7 -81.5 26.35 -81.6Q27.05 -81.7 27.35 -82.25Q29.55 -80.05 26.7 -78.65L26.55 -79.15M19.5,-72.9L19.4 -73.05L19.4 -73.1Q18.05 -75.55 21 -75.5L21.9 -74.5L22.05 -73.8L21.85 -73.3L21.8 -73.25L21.55 -72.95Q21.25 -72.7 20.8 -72.65L20.15 -72.65L19.55 -72.85L19.5 -72.9M3.6,-91.55L2.95 -91.95L2.1 -95.3L2.2 -95.35L3.55 -95.05L5.7 -93.8L21.85 -84.5L20.75 -84.4L20.4 -84.25Q19.4 -83.75 20.15 -82.25L20.35 -81.9L3.85 -91.45L3.6 -91.55M19.45,-76.55L19.45 -76.4L19.25 -75.9L19.2 -75.85Q18.9 -75.3 18.25 -75.25Q17.6 -75.1 16.9 -75.5Q15.8 -77.3 16.95 -77.85L17 -77.9L18.4 -78.1Q19.05 -77.7 19.3 -77.1L19.45 -76.55" />
<linearGradient
id="LinearGradID_773" gradientUnits="userSpaceOnUse" gradientTransform="matrix(0.0131378, 0.00758362, -0.000915527, 0.00158691, 13.2, -84.55)" spreadMethod ="pad" x1="-819.2" y1="0" x2="819.2" y2="0" >
<stop  offset="0" style="stop-color:#666666;stop-opacity:1" />
<stop  offset="0.796078" style="stop-color:#B5B5B5;stop-opacity:1" />
<stop  offset="1" style="stop-color:#BABABA;stop-opacity:1" />
</linearGradient>
<path style="fill:url(#LinearGradID_773) " d="M21.85,-77.95Q22.15 -78.45 21.9 -79.15L21.2 -80.05L21 -80.15L20.25 -80.6L20.15 -81.4Q19.9 -82 19.25 -82.4L3.65 -91.45L3.85 -91.45L20.35 -81.9Q20.8 -81.6 21.25 -81.6L22.4 -80.95L23.05 -80.55Q23.7 -80.15 24 -79.55L24.1 -79L23.95 -78.35L23.9 -78.3L23.85 -78.2L23.55 -77.9L23.25 -77.8L22.9 -77.7L21.75 -77.85L21.85 -77.95" />
<linearGradient
id="LinearGradID_774" gradientUnits="userSpaceOnUse" gradientTransform="matrix(0.0131378, 0.00758362, -0.000915527, 0.00158691, 14.55, -85.9)" spreadMethod ="pad" x1="-819.2" y1="0" x2="819.2" y2="0" >
<stop  offset="0" style="stop-color:#666666;stop-opacity:1" />
<stop  offset="0.796078" style="stop-color:#B5B5B5;stop-opacity:1" />
<stop  offset="1" style="stop-color:#BABABA;stop-opacity:1" />
</linearGradient>
<path style="fill:url(#LinearGradID_774) " d="M25.45,-80.15L25.3 -79.7L25.25 -79.65Q24.95 -79.1 24.3 -79.05L24.1 -79L24 -79.55Q23.7 -80.15 23.05 -80.55L22.4 -80.95L21.25 -81.6L21.7 -81.6Q22.4 -81.7 22.7 -82.25L22.9 -82.8L24.45 -81.9L24.8 -81.65L25.35 -80.9L25.45 -80.3L25.45 -80.15M3.6,-91.45L3.6 -91.55L3.85 -91.45L3.65 -91.45L3.6 -91.45" />
<linearGradient
id="LinearGradID_775" gradientUnits="userSpaceOnUse" gradientTransform="matrix(0.0131378, 0.00758362, -0.000915527, 0.00158691, 16.65, -88.5)" spreadMethod ="pad" x1="-819.2" y1="0" x2="819.2" y2="0" >
<stop  offset="0" style="stop-color:#666666;stop-opacity:1" />
<stop  offset="0.796078" style="stop-color:#B5B5B5;stop-opacity:1" />
<stop  offset="1" style="stop-color:#BABABA;stop-opacity:1" />
</linearGradient>
<path style="fill:url(#LinearGradID_775) " d="M22.85,-83.15L22.75 -83.5L21.85 -84.5L5.7 -93.8Q5.6 -94.3 5.9 -94.65Q6.2 -95.25 6.85 -95.35L8.2 -95.05L26.5 -84.5Q23.45 -84.5 25 -81.9L22.85 -83.15" />
<linearGradient
id="LinearGradID_776" gradientUnits="userSpaceOnUse" gradientTransform="matrix(0.0131378, 0.00758362, -0.000915527, 0.00158691, 15.75, -84.15)" spreadMethod ="pad" x1="-819.2" y1="0" x2="819.2" y2="0" >
<stop  offset="0" style="stop-color:#666666;stop-opacity:1" />
<stop  offset="0.796078" style="stop-color:#B5B5B5;stop-opacity:1" />
<stop  offset="1" style="stop-color:#BABABA;stop-opacity:1" />
</linearGradient>
<path style="fill:url(#LinearGradID_776) " d="M25.45,-80.3L25.65 -80.15L26.55 -79.15L26.7 -78.65L26.55 -78L26.5 -77.95L26.5 -77.9Q26.2 -77.4 25.5 -77.3L24.3 -77.45L24.15 -77.55L23.55 -77.9L23.85 -78.2L23.9 -78.3L23.95 -78.35L24.1 -79L24.3 -79.05Q24.95 -79.1 25.25 -79.65L25.3 -79.7L25.45 -80.15L25.45 -80.3" />
<linearGradient
id="LinearGradID_777" gradientUnits="userSpaceOnUse" gradientTransform="matrix(0.0131378, 0.00758362, -0.000915527, 0.00158691, 13.7, -81.6)" spreadMethod ="pad" x1="-819.2" y1="0" x2="819.2" y2="0" >
<stop  offset="0" style="stop-color:#666666;stop-opacity:1" />
<stop  offset="0.796078" style="stop-color:#B5B5B5;stop-opacity:1" />
<stop  offset="1" style="stop-color:#BABABA;stop-opacity:1" />
</linearGradient>
<path style="fill:url(#LinearGradID_777) " d="M4.3,-86.2L4.3 -86.4L19.5 -77.55Q20.15 -77.15 20.8 -77.3Q21.45 -77.4 21.75 -77.85L22.9 -77.7L23.25 -77.8L23.6 -77.55Q24.25 -77.2 24.5 -76.55Q24.75 -75.9 24.45 -75.35L24.4 -75.3Q24.2 -74.95 23.8 -74.8L23.4 -74.7L23.2 -74.65Q22.7 -74.65 22.15 -74.95L22.05 -74.95L19.45 -76.55L19.3 -77.1Q19.05 -77.7 18.4 -78.1L4.3 -86.2" />
<linearGradient
id="LinearGradID_778" gradientUnits="userSpaceOnUse" gradientTransform="matrix(0.0131378, 0.00758362, -0.000915527, 0.00158691, 15.75, -80.7)" spreadMethod ="pad" x1="-819.2" y1="0" x2="819.2" y2="0" >
<stop  offset="0" style="stop-color:#666666;stop-opacity:1" />
<stop  offset="0.796078" style="stop-color:#B5B5B5;stop-opacity:1" />
<stop  offset="1" style="stop-color:#BABABA;stop-opacity:1" />
</linearGradient>
<path style="fill:url(#LinearGradID_778) " d="M23.4,-74.7L23.8 -74.8Q24.2 -74.95 24.4 -75.3L24.45 -75.35Q24.75 -75.9 24.5 -76.55Q24.25 -77.2 23.6 -77.55L23.25 -77.8L23.55 -77.9L24.15 -77.55L24.3 -77.45L25.65 -76.7L26.55 -75.7Q26.85 -75 26.5 -74.5L26.5 -74.45Q26.2 -73.95 25.5 -73.85L24.15 -74.1Q23.7 -74.35 23.2 -74.65L23.4 -74.7" />
<linearGradient
id="LinearGradID_779" gradientUnits="userSpaceOnUse" gradientTransform="matrix(0.0131378, 0.00758362, -0.000915527, 0.00158691, 11.1, -84.15)" spreadMethod ="pad" x1="-819.2" y1="0" x2="819.2" y2="0" >
<stop  offset="0" style="stop-color:#666666;stop-opacity:1" />
<stop  offset="0.796078" style="stop-color:#B5B5B5;stop-opacity:1" />
<stop  offset="1" style="stop-color:#BABABA;stop-opacity:1" />
</linearGradient>
<path style="fill:url(#LinearGradID_779) " d="M17.75,-79.8Q18.3 -79.5 18.9 -79.5L19.1 -79.55Q19.75 -79.65 20.05 -80.1L20.15 -80.2L20.25 -80.6L21 -80.15L21.2 -80.05L21.9 -79.15Q22.15 -78.45 21.85 -77.95L21.75 -77.85Q21.45 -77.4 20.8 -77.3Q20.15 -77.15 19.5 -77.55L4.3 -86.4L3.95 -87.8L17.75 -79.8" />
<linearGradient
id="LinearGradID_780" gradientUnits="userSpaceOnUse" gradientTransform="matrix(0.0131378, 0.00758362, -0.000915527, 0.00158691, 13.7, -78.1)" spreadMethod ="pad" x1="-819.2" y1="0" x2="819.2" y2="0" >
<stop  offset="0" style="stop-color:#666666;stop-opacity:1" />
<stop  offset="0.796078" style="stop-color:#B5B5B5;stop-opacity:1" />
<stop  offset="1" style="stop-color:#BABABA;stop-opacity:1" />
</linearGradient>
<path style="fill:url(#LinearGradID_780) " d="M19.45,-76.4L19.45 -76.55L22.05 -74.95L22.15 -74.95L23.6 -74.1Q24.25 -73.7 24.5 -73.1Q24.75 -72.4 24.45 -71.9L24.4 -71.85Q24.1 -71.35 23.4 -71.25Q22.75 -71.15 22.05 -71.5L20.15 -72.65L20.8 -72.65Q21.25 -72.7 21.55 -72.95L21.8 -73.25L21.85 -73.3L22.05 -73.8L21.9 -74.5L21 -75.5L19.45 -76.4" />
<linearGradient
id="LinearGradID_781" gradientUnits="userSpaceOnUse" gradientTransform="matrix(0.0131378, 0.00758362, -0.000915527, 0.00158691, 8.75, -77.8)" spreadMethod ="pad" x1="-819.2" y1="0" x2="819.2" y2="0" >
<stop  offset="0" style="stop-color:#666666;stop-opacity:1" />
<stop  offset="0.796078" style="stop-color:#B5B5B5;stop-opacity:1" />
<stop  offset="1" style="stop-color:#BABABA;stop-opacity:1" />
</linearGradient>
<path style="fill:url(#LinearGradID_781) " d="M6.5,-77.35L5.55 -81.35L18.65 -73.75L19.4 -73.05L19.5 -72.9L19.55 -72.85L19.55 -72.75L19.65 -71.85L19.55 -71.55L19.5 -71.5Q19.3 -71.2 18.95 -71.05L18.5 -70.9Q17.85 -70.8 17.25 -71.15L17.15 -71.15L6.5 -77.35" />
<linearGradient
id="LinearGradID_782" gradientUnits="userSpaceOnUse" gradientTransform="matrix(0.0131378, 0.00758362, -0.000915527, 0.00158691, 11.1, -79.5)" spreadMethod ="pad" x1="-819.2" y1="0" x2="819.2" y2="0" >
<stop  offset="0" style="stop-color:#666666;stop-opacity:1" />
<stop  offset="0.796078" style="stop-color:#B5B5B5;stop-opacity:1" />
<stop  offset="1" style="stop-color:#BABABA;stop-opacity:1" />
</linearGradient>
<path style="fill:url(#LinearGradID_782) " d="M5.55,-81.35L5.3 -82.25L16.9 -75.5Q17.6 -75.1 18.25 -75.25Q18.9 -75.3 19.2 -75.85L19.25 -75.9L19.45 -76.4L21 -75.5Q18.05 -75.55 19.4 -73.1L19.4 -73.05L18.65 -73.75L5.55 -81.35" />
<linearGradient
id="LinearGradID_783" gradientUnits="userSpaceOnUse" gradientTransform="matrix(0.0131378, 0.00758362, -0.000915527, 0.00158691, 8.5, -82.1)" spreadMethod ="pad" x1="-819.2" y1="0" x2="819.2" y2="0" >
<stop  offset="0" style="stop-color:#666666;stop-opacity:1" />
<stop  offset="0.796078" style="stop-color:#B5B5B5;stop-opacity:1" />
<stop  offset="1" style="stop-color:#BABABA;stop-opacity:1" />
</linearGradient>
<path style="fill:url(#LinearGradID_783) " d="M5.3,-82.25L4.3 -86.2L18.4 -78.1L17 -77.9L16.95 -77.85Q15.8 -77.3 16.9 -75.5L5.3 -82.25" />
<linearGradient
id="LinearGradID_784" gradientUnits="userSpaceOnUse" gradientTransform="matrix(0.0131378, 0.00758362, -0.000915527, 0.00158691, 11.1, -76.05)" spreadMethod ="pad" x1="-819.2" y1="0" x2="819.2" y2="0" >
<stop  offset="0" style="stop-color:#666666;stop-opacity:1" />
<stop  offset="0.796078" style="stop-color:#B5B5B5;stop-opacity:1" />
<stop  offset="1" style="stop-color:#BABABA;stop-opacity:1" />
</linearGradient>
<path style="fill:url(#LinearGradID_784) " d="M17.25,-71.15Q17.85 -70.8 18.5 -70.9L18.95 -71.05Q19.3 -71.2 19.5 -71.5L19.55 -71.55L19.65 -71.85L19.55 -72.75L19.55 -72.85L21 -72.05L21.9 -71.05Q22.15 -70.35 21.85 -69.85L21.8 -69.8Q21.5 -69.25 20.8 -69.2Q20.15 -69.05 19.5 -69.45L19.4 -69.65L18.65 -70.3L17.25 -71.15" />
<linearGradient
id="LinearGradID_785" gradientUnits="userSpaceOnUse" gradientTransform="matrix(0.0131378, 0.00758362, -0.000915527, 0.00158691, 8.75, -74.3)" spreadMethod ="pad" x1="-819.2" y1="0" x2="819.2" y2="0" >
<stop  offset="0" style="stop-color:#666666;stop-opacity:1" />
<stop  offset="0.796078" style="stop-color:#B5B5B5;stop-opacity:1" />
<stop  offset="1" style="stop-color:#BABABA;stop-opacity:1" />
</linearGradient>
<path style="fill:url(#LinearGradID_785) " d="M17.15,-71.15L17.25 -71.15L18.65 -70.3L18.05 -70.3Q15.75 -70.1 17.15 -67.7L7.45 -73.35L6.5 -77.35L17.15 -71.15" />
<path style="fill:none;stroke-width:1;stroke-linecap:round;stroke-linejoin:round;stroke-miterlimit:3;stroke:#666666;stroke-opacity:1" d="M26.5,-84.5L27.45 -83.5Q27.7 -82.8 27.4 -82.25L27.35 -82.25Q29.55 -80.05 26.7 -78.65L26.55 -78L26.5 -77.95L26.5 -77.9Q26.2 -77.4 25.5 -77.3L24.3 -77.45L25.65 -76.7L26.55 -75.7Q26.85 -75 26.5 -74.5L26.5 -74.45Q26.2 -73.95 25.5 -73.85L24.15 -74.1Q23.7 -74.35 23.2 -74.65Q22.7 -74.65 22.15 -74.95L23.6 -74.1Q24.25 -73.7 24.5 -73.1Q24.75 -72.4 24.45 -71.9L24.4 -71.85Q24.1 -71.35 23.4 -71.25Q22.75 -71.15 22.05 -71.5L20.15 -72.65L19.55 -72.85L21 -72.05L21.9 -71.05Q22.15 -70.35 21.85 -69.85L21.8 -69.8Q21.5 -69.25 20.8 -69.2Q20.15 -69.05 19.5 -69.45L19.55 -69.3Q19.85 -68.6 19.55 -68.1L19.5 -68.05Q19.2 -67.55 18.5 -67.45L17.15 -67.7L7.45 -73.35L6.5 -77.35L5.55 -81.35L5.3 -82.25L4.3 -86.2L4.3 -86.4L3.95 -87.8L3 -91.8L2.95 -91.95L2.1 -95.3L2.2 -95.35L3.55 -95.05L5.7 -93.8Q5.6 -94.3 5.9 -94.65Q6.2 -95.25 6.85 -95.35L8.2 -95.05L26.5 -84.5Q23.45 -84.5 25 -81.9Q25.7 -81.5 26.35 -81.6Q27.05 -81.7 27.35 -82.25M21.25,-81.6Q20.8 -81.6 20.35 -81.9L20.15 -82.25Q19.4 -83.75 20.4 -84.25L20.75 -84.4L21.85 -84.5L5.7 -93.8M22.9,-82.8L22.7 -82.25Q22.4 -81.7 21.7 -81.6L21.25 -81.6L22.4 -80.95Q22.5 -81.45 23 -81.65L24.45 -81.9L22.9 -82.8L22.85 -83.15L22.75 -83.5L21.85 -84.5M20.35,-81.9L3.85 -91.45L3.65 -91.45L19.25 -82.4Q19.9 -82 20.15 -81.4L20.25 -80.6L21 -80.15L21.2 -80.05L21.45 -80.2L22.45 -80.55L23.05 -80.55L22.4 -80.95M24.8,-81.65L25.35 -80.9L25.45 -80.3L25.65 -80.15L26.55 -79.15L26.7 -78.65M24.8,-81.65L24.45 -81.9M25,-81.9L22.85 -83.15M25.45,-80.3L25.45 -80.15L25.3 -79.7L25.25 -79.65Q24.95 -79.1 24.3 -79.05L24.1 -79L23.95 -78.35L23.9 -78.3L23.85 -78.2L24.15 -77.55L24.3 -77.45M21.2,-80.05L21.9 -79.15Q22.15 -78.45 21.85 -77.95L21.75 -77.85L22.9 -77.7L23.25 -77.8L23.6 -77.55Q24.25 -77.2 24.5 -76.55L25.65 -76.7M23.25,-77.8L23.55 -77.9L23.85 -78.2M24.1,-79L24 -79.55Q23.7 -80.15 23.05 -80.55M23.55,-77.9L24.15 -77.55M21.75,-77.85Q21.45 -77.4 20.8 -77.3Q20.15 -77.15 19.5 -77.55L4.3 -86.4M22.15,-74.95L22.05 -74.95L21.8 -75.45Q20.8 -77.6 23.6 -77.55M20.15,-72.65L20.8 -72.65Q21.25 -72.7 21.55 -72.95L21.8 -73.25L21.85 -73.3L22.05 -73.8L21.9 -74.5L21 -75.5Q18.05 -75.55 19.4 -73.1L19.4 -73.05L19.5 -72.9L19.55 -72.85L19.55 -72.75L19.65 -71.85L21 -72.05M22.05,-74.95L19.45 -76.55L19.45 -76.4L21 -75.5M24.5,-76.55Q24.75 -75.9 24.45 -75.35L24.4 -75.3Q24.2 -74.95 23.8 -74.8L24.15 -74.1M23.8,-74.8L23.4 -74.7L23.2 -74.65M25.45,-80.15L25.65 -80.15M2.95,-91.95L3.6 -91.55L3.85 -91.45M3.6,-91.55L3.6 -91.45L3.65 -91.45M3.6,-91.45L3 -91.8M19.25,-82.4L17.65 -82.1Q16.9 -81.6 17.5 -80.35L17.75 -79.8Q18.3 -79.5 18.9 -79.5L19.1 -79.55Q19.75 -79.65 20.05 -80.1L20.15 -80.2L20.25 -80.6M19.5,-77.55Q18.75 -78.8 19.05 -79.4L19.1 -79.55M4.3,-86.2L18.4 -78.1L17 -77.9L16.95 -77.85Q15.8 -77.3 16.9 -75.5Q17.6 -75.1 18.25 -75.25Q18.9 -75.3 19.2 -75.85L19.25 -75.9L19.45 -76.4M18.4,-78.1Q19.05 -77.7 19.3 -77.1L19.45 -76.55M17.75,-79.8L3.95 -87.8M16.9,-75.5L5.3 -82.25M19.4,-73.05L18.65 -73.75L18.05 -73.75Q15.75 -73.55 17.15 -71.15L17.25 -71.15Q17.85 -70.8 18.5 -70.9L18.95 -71.05Q19.3 -71.2 19.5 -71.5L19.55 -71.55L19.65 -71.85M18.65,-73.75L5.55 -81.35M19.5,-69.45L19.4 -69.65L18.65 -70.3L18.05 -70.3Q15.75 -70.1 17.15 -67.7M19.4,-69.65Q18.9 -70.5 18.95 -71.05M17.25,-71.15L18.65 -70.3M21.55,-72.95L22.05 -71.5M23.6,-74.1Q22.5 -74.15 22.05 -73.8M17.15,-71.15L6.5 -77.35M20.05,-80.1L21 -80.15" />
<linearGradient
id="LinearGradID_786" gradientUnits="userSpaceOnUse" gradientTransform="matrix(0.863968, 0, 0, 0.863968, -82.4, 1.35)" spreadMethod ="pad" x1="-819.2" y1="0" x2="819.2" y2="0" >
<stop  offset="0" style="stop-color:#666666;stop-opacity:1" />
<stop  offset="0.796078" style="stop-color:#B5B5B5;stop-opacity:1" />
<stop  offset="1" style="stop-color:#BABABA;stop-opacity:1" />
</linearGradient>
<path style="fill:url(#LinearGradID_786) " d="M12.55,-89.1L12.6 -89.05L12.55 -89.05L12.15 -89.25L12.55 -89.1" />
<linearGradient
id="LinearGradID_787" gradientUnits="userSpaceOnUse" gradientTransform="matrix(0.863968, 0, 0, 0.863968, 69.25, 3.95)" spreadMethod ="pad" x1="-819.2" y1="0" x2="819.2" y2="0" >
<stop  offset="0" style="stop-color:#666666;stop-opacity:1" />
<stop  offset="0.796078" style="stop-color:#B5B5B5;stop-opacity:1" />
<stop  offset="1" style="stop-color:#BABABA;stop-opacity:1" />
</linearGradient>
<path style="fill:url(#LinearGradID_787) " d="M10.1,-68.9L7.8 -80.05L7.8 -80.1L7.4 -81.85L7.4 -82.05L6.15 -87.8L6.2 -87.8L6.4 -87.95L8.1 -89.25L10.05 -88.15L10.3 -86.85L10.3 -86.5L10.4 -86.5L11.25 -82.25L11.05 -82.2L10.9 -82.25L10.95 -82.2L11.05 -82.2L11.25 -82.1L13.95 -68.8L12.1 -67.7L12.1 -67.75L12.15 -67.8L12.1 -67.95L12.05 -67.95L10.1 -68.9M12.15,-65.55L0 -71.35L0 -73.6L5.65 -70.8L10 -68.7L11.95 -67.7L12.05 -67.7L12.15 -65.55M10,-85.55L9.9 -85.6L9.85 -85.6L9.9 -85.55L10 -85.55" />
<linearGradient
id="LinearGradID_788" gradientUnits="userSpaceOnUse" gradientTransform="matrix(0.863968, 0, 0, 0.863968, 60.5, -3.2)" spreadMethod ="pad" x1="-819.2" y1="0" x2="819.2" y2="0" >
<stop  offset="0" style="stop-color:#666666;stop-opacity:1" />
<stop  offset="0.796078" style="stop-color:#B5B5B5;stop-opacity:1" />
<stop  offset="1" style="stop-color:#BABABA;stop-opacity:1" />
</linearGradient>
<path style="fill:url(#LinearGradID_788) " d="M9.9,-85.55L9.85 -85.6L9.9 -85.6L10 -85.55L9.9 -85.55" />
<linearGradient
id="LinearGradID_789" gradientUnits="userSpaceOnUse" gradientTransform="matrix(0.863968, 0, 0, 0.863968, 65.85, -0.7)" spreadMethod ="pad" x1="-819.2" y1="0" x2="819.2" y2="0" >
<stop  offset="0" style="stop-color:#666666;stop-opacity:1" />
<stop  offset="0.796078" style="stop-color:#B5B5B5;stop-opacity:1" />
<stop  offset="1" style="stop-color:#BABABA;stop-opacity:1" />
</linearGradient>
<path style="fill:url(#LinearGradID_789) " d="M15.35,-83.05L15.3 -83.05L15.2 -83.1L15.25 -83.1L15.35 -83.05" />
<linearGradient
id="LinearGradID_790" gradientUnits="userSpaceOnUse" gradientTransform="matrix(0.863968, 0, 0, 0.863968, 61.55, 0.2)" spreadMethod ="pad" x1="-819.2" y1="0" x2="819.2" y2="0" >
<stop  offset="0" style="stop-color:#666666;stop-opacity:1" />
<stop  offset="0.796078" style="stop-color:#B5B5B5;stop-opacity:1" />
<stop  offset="1" style="stop-color:#BABABA;stop-opacity:1" />
</linearGradient>
<path style="fill:url(#LinearGradID_790) " d="M11.05,-82.2L10.95 -82.2L10.9 -82.25L11.05 -82.2" />
<linearGradient
id="LinearGradID_791" gradientUnits="userSpaceOnUse" gradientTransform="matrix(0.863968, 0, 0, 0.863968, 63.95, 4.6)" spreadMethod ="pad" x1="-819.2" y1="0" x2="819.2" y2="0" >
<stop  offset="0" style="stop-color:#666666;stop-opacity:1" />
<stop  offset="0.796078" style="stop-color:#B5B5B5;stop-opacity:1" />
<stop  offset="1" style="stop-color:#BABABA;stop-opacity:1" />
</linearGradient>
<path style="fill:url(#LinearGradID_791) " d="M13.3,-77.85L13.35 -77.85L13.45 -77.8L13.4 -77.8L13.3 -77.85" />
<linearGradient
id="LinearGradID_792" gradientUnits="userSpaceOnUse" gradientTransform="matrix(0.863968, 0, 0, 0.863968, 64.85, 8.9)" spreadMethod ="pad" x1="-819.2" y1="0" x2="819.2" y2="0" >
<stop  offset="0" style="stop-color:#666666;stop-opacity:1" />
<stop  offset="0.796078" style="stop-color:#B5B5B5;stop-opacity:1" />
<stop  offset="1" style="stop-color:#BABABA;stop-opacity:1" />
</linearGradient>
<path style="fill:url(#LinearGradID_792) " d="M14.15,-73.5L14.2 -73.5L14.35 -73.45L14.25 -73.45L14.15 -73.5" />
<linearGradient
id="LinearGradID_793" gradientUnits="userSpaceOnUse" gradientTransform="matrix(0.863968, 0, 0, 0.863968, -76.65, 22.1)" spreadMethod ="pad" x1="-819.2" y1="0" x2="819.2" y2="0" >
<stop  offset="0" style="stop-color:#666666;stop-opacity:1" />
<stop  offset="0.796078" style="stop-color:#B5B5B5;stop-opacity:1" />
<stop  offset="1" style="stop-color:#BABABA;stop-opacity:1" />
</linearGradient>
<path style="fill:url(#LinearGradID_793) " d="M12.05,-67.95L12.1 -67.95L12.15 -67.8L12.1 -67.75L12.1 -67.7L12.05 -67.7L11.95 -67.7L10 -68.7L10.1 -68.9L12.05 -67.95" />
<path style="fill:none;stroke-width:1;stroke-linecap:round;stroke-linejoin:round;stroke-miterlimit:3;stroke:#666666;stroke-opacity:1" d="M11.25,-82.25L10.4 -86.5L10.3 -86.85L10.05 -88.15L8.25 -86.85L12.05 -67.95L12.1 -67.95L12.15 -67.8L12.1 -67.75L12.1 -67.7L12.05 -67.95L12.05 -67.7L12.1 -67.7M13.95,-68.8L11.25 -82.1M10.05,-88.15L8.1 -89.25L6.4 -87.95L6.2 -87.8L6.15 -87.8L8.25 -86.85M6.4,-87.95L5.65 -88.25L5.65 -70.8L10 -68.7M12.05,-67.95L10.1 -68.9L7.8 -80.05L7.8 -80.1L7.4 -81.85L7.4 -82.05L6.15 -87.8M11.25,-82.25L11.25 -82.1M5.65,-70.8L0 -73.6L0 -71.35L12.15 -65.55L12.05 -67.7L11.95 -67.7L10 -68.7" />
<linearGradient
id="LinearGradID_794" gradientUnits="userSpaceOnUse" gradientTransform="matrix(0.0193481, 0, 0, 0.863968, -2.3, 55.4)" spreadMethod ="pad" x1="-819.2" y1="0" x2="819.2" y2="0" >
<stop  offset="0" style="stop-color:#666666;stop-opacity:1" />
<stop  offset="0.666667" style="stop-color:#B5B5B5;stop-opacity:1" />
<stop  offset="1" style="stop-color:#BABABA;stop-opacity:1" />
</linearGradient>
<path style="fill:url(#LinearGradID_794) " d="M-13.7,-78.45L-9.55 -77.1L-9.45 -77.05L-9.35 -77.05L-5.45 -78.6L-5.7 -79.65Q-5.7 -80.95 -4.85 -81.85Q-3.9 -82.7 -2.65 -82.7Q0 -82.75 1.8 -82.1L1.8 -82.2L2.1 -82.35L2.1 -87.9L2.1 -88.1L2.1 -92.2L-3 -90.15Q-5.65 -94.5 -4.65 -98.85L-9.4 -98.85L-9.4 -90L-10.85 -90L-10.85 -88.6L-17.65 -92.7Q-18.2 -93.95 -18.2 -95.25Q-18.2 -98.95 -14.35 -101.6L-14.3 -101.65L-14.2 -101.7L-14.05 -101.8L-12.1 -102.85L-8.25 -112.1L-4.55 -104.45Q-2.3 -105.5 0 -104.1L5.35 -113L8.65 -101.9L8.65 -98.8Q10.1 -96.9 10.15 -94.6Q10.1 -92.15 8.45 -90.15L8.45 -90L5.35 -87.5L8.45 -73.65L8.45 -67.7L8.4 -66.5Q7.9 -61.1 4.6 -58.45L4.6 -52.05Q2.35 -49.5 0.1 -52.05L0.1 -57.7Q-0.1 -57.8 -0.3 -58Q-1.35 -58.8 -1.35 -60L-1.35 -63.5Q-3.8 -66.7 -6.15 -63.5L-6.15 -60Q-6.15 -58.8 -7.25 -58L-7.9 -57.55L-7.9 -52.05Q-10.15 -49.6 -12.4 -52.05L-12.4 -58Q-13.45 -58.8 -13.45 -60L-13.45 -63.5L-13.7 -63.5L-13.7 -64L-13.7 -75.55L-13.7 -77.75L-13.7 -78.45M1.2,-100.15Q0.8 -100.55 0.2 -100.55Q-0.4 -100.55 -0.85 -100.15Q-1.25 -99.7 -1.25 -99.1Q-1.25 -98.5 -0.85 -98.1Q-0.4 -97.7 0.2 -97.7Q0.8 -97.7 1.2 -98.1Q1.6 -98.5 1.6 -99.1Q1.6 -99.7 1.2 -100.15M-14,-99.75Q-14 -99.15 -13.6 -98.75Q-13.15 -98.35 -12.55 -98.35Q-11.95 -98.35 -11.55 -98.75Q-11.2 -99.1 -11.15 -99.6L-11.15 -99.75Q-11.15 -100.35 -11.55 -100.8Q-11.95 -101.2 -12.55 -101.2Q-13.15 -101.2 -13.6 -100.8Q-14 -100.35 -14 -99.75" />
<path style="fill:#999999;fill-opacity:1" d="M1.6,-99.1Q1.6 -98.5 1.2 -98.1Q0.8 -97.7 0.2 -97.7Q-0.4 -97.7 -0.85 -98.1Q-1.25 -98.5 -1.25 -99.1Q-1.25 -99.7 -0.85 -100.15Q-0.4 -100.55 0.2 -100.55Q0.8 -100.55 1.2 -100.15Q1.6 -99.7 1.6 -99.1M-20.35,-92.75L-20.3 -93.4L-19.7 -93.05L-19.6 -93.85L-17.65 -92.7L-10.85 -88.6L-10.85 -90L-9.4 -90L-9.4 -98.85L-4.65 -98.85Q-5.65 -94.5 -3 -90.15L2.1 -92.2L2.1 -88.1L2.1 -87.9L2.1 -82.35L1.8 -82.2L1.8 -82.1Q0 -82.75 -2.65 -82.7Q-3.9 -82.7 -4.85 -81.85Q-5.7 -80.95 -5.7 -79.65L-5.45 -78.6L-9.35 -77.05L-9.45 -77.05L-9.55 -77.1L-13.7 -78.45L-14.45 -79.35L-16.15 -82.85Q-16.9 -83.15 -18.45 -81.9L-18.8 -81.3L-21 -82.3L-20.95 -92.75L-20.35 -92.75M-13.6,-100.8Q-13.15 -101.2 -12.55 -101.2Q-11.95 -101.2 -11.55 -100.8Q-11.15 -100.35 -11.15 -99.75L-11.15 -99.6Q-11.2 -99.1 -11.55 -98.75Q-11.95 -98.35 -12.55 -98.35Q-13.15 -98.35 -13.6 -98.75Q-14 -99.15 -14 -99.75Q-14 -100.35 -13.6 -100.8M-9.55,-87.7L-9.6 -87.75L-9.4 -87.3L-9.4 -87.6L-9.55 -87.7" />
<linearGradient
id="LinearGradID_795" gradientUnits="userSpaceOnUse" gradientTransform="matrix(0.0583496, 0, -0.000473022, 0.861679, -8.35, 30.2)" spreadMethod ="pad" x1="-819.2" y1="0" x2="819.2" y2="0" >
<stop  offset="0" style="stop-color:#666666;stop-opacity:1" />
<stop  offset="0.729412" style="stop-color:#B5B5B5;stop-opacity:1" />
<stop  offset="1" style="stop-color:#BABABA;stop-opacity:1" />
</linearGradient>
<path style="fill:url(#LinearGradID_795) " d="M-13.7,-77.75L-15.85 -77.75Q-17.1 -77.75 -18 -78.65Q-18.85 -79.5 -18.85 -80.75L-18.8 -81.3L-18.45 -81.9Q-16.9 -83.15 -16.15 -82.85L-14.45 -79.35L-13.7 -78.45L-13.7 -77.75" />
<path style="fill:none;stroke-width:1;stroke-linecap:round;stroke-linejoin:round;stroke-miterlimit:3;stroke:#666666;stroke-opacity:1" d="M0,-104.1L5.35 -113L8.65 -101.9M8.65,-98.8Q10.1 -96.9 10.15 -94.6Q10.1 -92.15 8.45 -90.15M8.4,-66.5Q10.3 -66.35 12.1 -67.6Q15.15 -70.35 16.9 -67.85M1.6,-99.1Q1.6 -98.5 1.2 -98.1Q0.8 -97.7 0.2 -97.7Q-0.4 -97.7 -0.85 -98.1Q-1.25 -98.5 -1.25 -99.1Q-1.25 -99.7 -0.85 -100.15Q-0.4 -100.55 0.2 -100.55Q0.8 -100.55 1.2 -100.15Q1.6 -99.7 1.6 -99.1M4.95,-92.7L4.95 -90.3M2.1,-88.1L2.05 -87.45L2.1 -87.9M2.1,-88.1L2.1 -92.2L-3 -90.15L-3.4 -90L-9.25 -87.6L-9.4 -87.7L-9.4 -87.6L-9.35 -87.6L-9.4 -87.3L-9.35 -77.05L-5.45 -78.6L-5.7 -79.65Q-5.7 -80.95 -4.85 -81.85Q-3.9 -82.7 -2.65 -82.7Q0 -82.75 1.8 -82.1L1.8 -82.2L2.1 -82.35L2.1 -87.9M2.8,-93.15L2.8 -89.9M3.75,-80.9Q3.05 -81.65 1.85 -82.1M4.6,-58.45L4.6 -52.05Q2.35 -49.5 0.1 -52.05L0.1 -57.7M-7.9,-57.55L-7.9 -52.05Q-10.15 -49.6 -12.4 -52.05L-12.4 -58M-13.7,-64L-13.7 -75.55M-13.7,-77.75L-15.85 -77.75Q-17.1 -77.75 -18 -78.65Q-18.85 -79.5 -18.85 -80.75L-18.8 -81.3L-21 -82.3L-20.95 -92.75M-20.35,-92.75L-20.3 -93.4L-19.7 -93.05L-19.6 -93.85L-17.65 -92.7Q-18.2 -93.95 -18.2 -95.25Q-18.2 -98.95 -14.35 -101.6L-14.3 -101.65L-14.2 -101.7L-14.05 -101.8L-12.1 -102.85L-8.25 -112.1L-4.55 -104.45M-13.6,-100.8Q-13.15 -101.2 -12.55 -101.2Q-11.95 -101.2 -11.55 -100.8Q-11.15 -100.35 -11.15 -99.75L-11.15 -99.6Q-11.2 -99.1 -11.55 -98.75Q-11.95 -98.35 -12.55 -98.35Q-13.15 -98.35 -13.6 -98.75Q-14 -99.15 -14 -99.75Q-14 -100.35 -13.6 -100.8M-9.4,-87.6L-9.55 -87.7M-3.4,-90L-9.4 -90L-10.85 -90L-10.85 -88.6L-9.4 -87.7M-9.4,-90L-9.4 -98.85L-4.65 -98.85Q-5.65 -94.5 -3 -90.15M-17.65,-92.7L-10.85 -88.6M-18.8,-81.3L-18.45 -81.9Q-16.9 -83.15 -16.15 -82.85M-13.7,-78.45L-9.55 -77.1M-5.45,-78.6L-4.85 -77.55Q-3.9 -76.65 -0.95 -76.2M-19.7,-93.05L-9.6 -87.75" />
<path style="fill:none;stroke-width:0.2;stroke-linecap:round;stroke-linejoin:round;stroke-miterlimit:3;stroke:#666666;stroke-opacity:1" d="M2.1,-87.9L2.1 -88.1M1.85,-82.1L1.8 -82.1M-20.95,-92.75L-20.95 -93.05L-20.35 -92.75M-9.55,-87.7L-9.6 -87.75L-20.35 -92.75M-9.4,-87.3L-9.4 -87.6M-9.55,-77.1L-9.35 -77.05L-9.45 -77.05L-9.55 -77.1" />
<path style="fill:none;stroke-width:0.2;stroke-linecap:round;stroke-linejoin:round;stroke-miterlimit:3;stroke:#999999;stroke-opacity:1" d="M8.65,-101.9L8.65 -98.8M8.45,-90.15L8.45 -90L5.35 -87.5L8.45 -73.65L8.45 -67.7L8.4 -66.5M0.1,-57.7Q-0.1 -57.8 -0.3 -58Q-1.35 -58.8 -1.35 -60L-1.35 -63.5Q-3.8 -66.7 -6.15 -63.5L-6.15 -60Q-6.15 -58.8 -7.25 -58L-7.9 -57.55M-13.7,-75.55L-13.7 -77.75M-4.55,-104.45Q-2.3 -105.5 0 -104.1" />
</g>
</svg>
