<?xml version="1.0" encoding="utf-8"?>
<svg version="1.1" id="Layer_1"
xmlns="http://www.w3.org/2000/svg"
xmlns:xlink="http://www.w3.org/1999/xlink"
xmlns:author="http://www.sothink.com"
width="210px" height="198px"
xml:space="preserve">
<g id="40" transform="matrix(1, 0, 0, 1, 106.25, 104.1)">
<path style="fill:#AEAEAE;fill-opacity:1" d="M-8.45,-48.35L-9.65 -47.8L-14.6 -52.25L-17.1 -54.7L-19.4 -56.75L-4.8 -64.15L-3.3 -64.9L-1.85 -65.65L11.95 -72.6L27.15 -80.3L27.25 -80.3L41.25 -87.4L42.75 -88.15L44.2 -88.9L58 -95.85L73.2 -103.55L74.25 -102.6L75.45 -101.5L77.75 -99.4L78.1 -99.05L82.95 -94.6L81.65 -93.95L69.15 -87.6L67.75 -86.95L66.5 -86.3L55.1 -80.55L52.55 -79.3L50.35 -78.1L37.6 -71.6L36.95 -71.3L36.9 -71.35L35.6 -70.7L23.1 -64.35L21.7 -63.7L20.45 -63.05L9.05 -57.3L6.5 -56.05L4.3 -54.85L-8.45 -48.35M86.05,-59.05L83.1 -57.55L83 -57.55Q81.4 -58.4 79.75 -59.2L79.75 -63.65L83 -65.25L83 -60.8L86 -59.3L86.25 -59.15L86.05 -59.05M-82.35,3.55L-83.25 3.15L-83.25 -8.05L-81.75 -7.25L-79.75 -6.25L-76.5 -8.8L-76.5 -5.9L-75.05 -6.75L-74.2 -7.35Q-71.5 -9.2 -69.35 -11.55L-67.45 -9.8Q-69.3 -7.85 -71.7 -5.9L-75.6 -2.95L-76.3 -2.45L-76.5 -2.35L-76.5 2.4L-79.75 4.65L-81.15 4.05L-81.75 3.8L-82.35 3.55M79.2,-10.15Q79.2 -10.55 78.8 -10.55Q78.45 -10.55 78.45 -10.15Q78.45 -9.8 78.8 -9.8Q79.2 -9.8 79.2 -10.15M81.6,-8.6L81.8 -8.5L81.8 -8.05L81.75 -4.6L81.75 -4.55L81.4 -4.7L79.8 -5.5L79.75 -5.55L79.75 -4.35L79.75 -3.2L78.25 -3.95L77.8 -4.2L77.75 -4.25L77.75 -4.45L77.7 -11.75L77.7 -12.35L77.75 -12.3L79.75 -11.3L79.75 -9.55L81.6 -8.6M80.05,-6.9Q80.5 -6.9 80.5 -7.25Q80.5 -7.65 80.05 -7.65Q79.65 -7.65 79.65 -7.25Q79.65 -6.9 80.05 -6.9M79.2,-5.45Q79.2 -5.85 78.8 -5.85Q78.45 -5.85 78.45 -5.45Q78.45 -5.1 78.8 -5.1Q79.2 -5.1 79.2 -5.45M81.5,-63.05Q81.15 -63.05 81.15 -62.65Q81.15 -62.3 81.5 -62.3Q81.9 -62.3 81.9 -62.65Q81.9 -63.05 81.5 -63.05M83.5,-59.55Q83.5 -59.95 83.1 -59.95Q82.75 -59.95 82.75 -59.55Q82.75 -59.2 83.1 -59.2Q83.5 -59.2 83.5 -59.55M-25,-40.05L-26.3 -39.4L-38.8 -33.05L-40.1 -32.4L-40.2 -32.4L-41.45 -31.75L-52.85 -26L-55.4 -24.75L-57.6 -23.55L-70.35 -17.05L-71.55 -16.5L-76.5 -20.95L-79 -23.4L-81.3 -25.45L-79.2 -26.5L-79.75 -27L-65.15 -33.95L-64.6 -34.25L-63.65 -34.7L-52.65 -39.95L-50 -41.2L-49.9 -41.25L-49.9 -41.3L-48.5 -42.05L-48.95 -41.8L-34.75 -49L-34.7 -49L-34.65 -49L-19.5 -56.7L-19.4 -56.6L-18.45 -55.75L-17.25 -54.65L-14.6 -52.2L-9.75 -47.75L-11.05 -47.1L-23.55 -40.75L-24.95 -40.1L-25 -40.05M-51.15,-40.7L-51.95 -40.3L-51.45 -40.55L-50.75 -40.9L-51.15 -40.7M-81.75,-5.45L-82.05 -4.85Q-82.05 -4.45 -81.75 -4.3L-81.45 -4.25Q-80.8 -4.25 -80.8 -4.85Q-80.85 -5.5 -81.45 -5.5L-81.75 -5.45M-63.1,-31.65L-62.95 -31.5L-61.25 -32.35L-61.4 -32.5L-63.1 -31.65M-78.05,-5.5Q-77.45 -5.5 -77.45 -6.1Q-77.4 -6.75 -78.05 -6.75Q-78.7 -6.75 -78.7 -6.1L-78.6 -5.75L-78.4 -5.55L-78.05 -5.5M-78.05,2.3Q-77.45 2.3 -77.45 1.7Q-77.4 1.05 -78.05 1.05Q-78.7 1.05 -78.7 1.7Q-78.7 2.3 -78.05 2.3M-81.75,1.2L-81.95 1.7L-81.75 2.2L-81.3 2.3Q-80.7 2.3 -80.7 1.7Q-80.65 1.05 -81.3 1.05L-81.75 1.2" />
<path style="fill:#4D4D4D;fill-opacity:1" d="M-9.65,-47.8L-8.45 -48.35L4.3 -54.85L5.4 -55.4L6.55 -56L8.1 -56.8L9.05 -57.3L20.45 -63.05L21.7 -63.7L23.1 -64.35L35.6 -70.7L36.9 -71.35L36.95 -71.3L37.6 -71.6L50.35 -78.1L51.45 -78.65L52.6 -79.25L54.15 -80.05L55.1 -80.55L66.5 -86.3L67.75 -86.95L69.15 -87.6L81.65 -93.95L82.95 -94.6L84.85 -92.85L88.3 -89.7L88.55 -89.5L91.7 -86.55L91.7 -86.5L90.65 -86L90.35 -85.85L83.55 -92.2L80.5 -90.65L69.65 -85.2L75.25 -80.05L76.5 -78.85L76.1 -78.65L75.15 -78.2L68.35 -84.5L65.3 -82.95L65.3 -83L54.5 -77.5L61.35 -71.15L60 -70.5L53.2 -76.85L38.85 -69.55L40.75 -67.85L41.2 -67.4L42.25 -66.45L45.65 -63.3L45.65 -63.25L44.6 -62.75L44.3 -62.6L37.5 -68.95L34.45 -67.4L23.6 -61.95L29.2 -56.8L30.45 -55.6L30.05 -55.4L29.65 -55.2L29.1 -54.95L22.3 -61.25L19.25 -59.7L19.25 -59.75L8.45 -54.25L15.3 -47.9L13.95 -47.25L7.15 -53.6L-7.75 -46.05L-8.5 -46.75L-9.65 -47.8M30.6,-54.25L31.3 -53.6L29.95 -53L29.3 -53.6L30.6 -54.25M14.45,-46.1L15.75 -46.75L16.15 -46.35L14.8 -45.75L14.45 -46.1M-0.55,-38.85L0.05 -38.9L0.3 -39.05L0.45 -38.9L0 -38.65L-0.6 -38.4L-0.9 -38.3L-0.95 -38.35L-0.55 -38.6L-0.55 -38.85M78.8,-9.8Q78.45 -9.8 78.45 -10.15Q78.45 -10.55 78.8 -10.55Q79.2 -10.55 79.2 -10.15Q79.2 -9.8 78.8 -9.8M79.65,-7.25Q79.65 -7.65 80.05 -7.65Q80.5 -7.65 80.5 -7.25Q80.5 -6.9 80.05 -6.9Q79.65 -6.9 79.65 -7.25M78.8,-5.1Q78.45 -5.1 78.45 -5.45Q78.45 -5.85 78.8 -5.85Q79.2 -5.85 79.2 -5.45Q79.2 -5.1 78.8 -5.1M-38.3,-30.65L-32.7 -25.5L-31.45 -24.3L-31.85 -24.1L-32.7 -23.7L-32.8 -23.65L-39.6 -29.95L-42.65 -28.4L-42.65 -28.45L-53.45 -22.95L-46.6 -16.6Q-47.3 -16.3 -47.95 -15.95L-54.75 -22.3L-69.65 -14.75L-70.4 -15.45L-71.55 -16.5L-70.35 -17.05L-57.6 -23.55L-56.5 -24.1L-55.35 -24.7L-53.8 -25.5L-52.85 -26L-41.45 -31.75L-40.2 -32.4L-40.1 -32.4L-38.8 -33.05L-26.3 -39.4L-25 -40.05L-24.95 -40.1L-23.55 -40.75L-11.05 -47.1L-9.75 -47.75L-7.85 -46L-6.8 -45.05L-4.4 -42.85L-1 -39.7L-1 -39.65L-2.05 -39.15L-2.35 -39L-9.15 -45.35L-12.2 -43.8Q-17.6 -41.1 -23.05 -38.35L-18.75 -34.35L-19.65 -35.15L-16.25 -32L-16.25 -31.95L-17.3 -31.45L-17.6 -31.3L-24.4 -37.65L-27.45 -36.1L-38.2 -30.7L-38.3 -30.65M-30.95,-23.9L-31.25 -23.8L-31.6 -24.15L-31.4 -24.3L-30.95 -23.9" />
<linearGradient
id="LinearGradID_279" gradientUnits="userSpaceOnUse" gradientTransform="matrix(0.0187531, 0.018219, -0.00701904, 0.00721741, 92.75, -74.2)" spreadMethod ="pad" x1="-819.2" y1="0" x2="819.2" y2="0" >
<stop  offset="0" style="stop-color:#909090;stop-opacity:1" />
<stop  offset="0.517647" style="stop-color:#AEAEAE;stop-opacity:1" />
</linearGradient>
<path style="fill:url(#LinearGradID_279) " d="M79.75,-79.1L77.5 -77.95L77.4 -78.05L76.55 -78.85L75.25 -80.05L69.65 -85.2L80.5 -90.65L83.55 -92.2L90.35 -85.85L90.65 -86L91.7 -86.5L91.7 -86.55L88.55 -89.5L91.8 -86.6L92.15 -86.25L92.15 -85.45L90.65 -84.7L90.65 -84.65L83 -80.75L79.75 -79.1" />
<linearGradient
id="LinearGradID_280" gradientUnits="userSpaceOnUse" gradientTransform="matrix(0.0187531, 0.0198517, -0.00762939, 0.00723267, 77.2, -65.8)" spreadMethod ="pad" x1="-819.2" y1="0" x2="819.2" y2="0" >
<stop  offset="0" style="stop-color:#909090;stop-opacity:1" />
<stop  offset="0.517647" style="stop-color:#AEAEAE;stop-opacity:1" />
</linearGradient>
<path style="fill:url(#LinearGradID_280) " d="M62.3,-70.25L61.35 -71.15L54.5 -77.5L65.3 -83L65.3 -82.95L68.35 -84.5L75.15 -78.2L76.1 -78.65L76.5 -78.85L75.25 -80.05L76.55 -78.85L77.4 -78.05L77.5 -77.95L75.9 -77.15L75.8 -77.1L62.3 -70.25M52.55,-79.3L55.1 -80.55L54.15 -80.05L52.6 -79.25L52.55 -79.3" />
<path style="fill:#3D2918;fill-opacity:1" d="M99.75,-38.95L99.7 -31.85L79.75 -41.75L79.75 -48.85L99.75 -38.95M79.75,-23.25L79.75 -33.35L99.6 -23.45L99.55 -13.35L79.75 -23.25M99.45,0.3L82.05 -8.4L81.8 -8.5L81.6 -8.6L79.75 -9.55L79.75 -11.3L79.75 -15.9L99.5 -6.05L99.45 -2.9L99.45 0.3M-76.5,85L-76.5 2.4L-76.5 -2.35L-76.3 -2.45L-75.6 -2.95L-71.7 -5.9Q-69.3 -7.85 -67.45 -9.8L-65.95 -8.4L-65.45 -7.95L-65.2 -7.7L-64.75 -7.35L-61.85 -7.6L-53.1 -12L-44.1 -16.25L-28.9 -23.5L-16.8 -29.3Q-15.3 -30 -13.75 -30.75L-14.25 -31.2L-14.25 -31.35L-14.35 -31.55L-4.55 -36.55L-2.15 -37.7L-2.1 -37.7L-0.9 -38.3L-0.6 -38.4L0 -38.65L0.45 -38.9L0.55 -38.95L14.8 -45.75L16.15 -46.35L15.75 -46.75L16.25 -47L29.3 -53.6L29.95 -53L31.3 -53.6L31.35 -53.6L30.65 -54.3L31.45 -54.7L45.45 -61.85L46.5 -60.85L46.6 -60.9L45.55 -61.9L46.05 -62.15L46.1 -62.15L62.3 -70.25L75.8 -77.1L75.9 -77.15L77.5 -77.95L77.55 -65.1L77.55 -64.7L77.55 -64.6L77.6 -55.4L77.6 -55.05L77.6 -53.95L77.6 -48.85L77.65 -33.35L77.7 -13.15L77.7 -12.35L77.7 -11.75L77.75 -4.45L77.75 -4.25L77.75 -4.2L77.75 -3.15L77.75 7.9L-76.5 85M46.85,-59.75L46.95 -59.75L46.85 -59.75M0.9,-37.8L0.8 -37.8L0.9 -37.8M80.25,-43.35Q80.25 -43 80.6 -43Q81 -43 81 -43.35Q81 -43.75 80.6 -43.75Q80.25 -43.75 80.25 -43.35M80.25,-45.6L80.6 -45.2Q81.2 -45.2 81.2 -45.85Q81.2 -46.25 80.75 -46.25Q80.25 -46.25 80.25 -45.6M80.55,-26.25Q80.55 -25.9 80.95 -25.9Q81.4 -25.9 81.4 -26.25Q81.4 -26.65 80.95 -26.65Q80.55 -26.65 80.55 -26.25M80.55,-29.35Q80.55 -29 80.9 -29Q81.3 -29 81.3 -29.35Q81.3 -29.75 80.9 -29.75Q80.55 -29.75 80.55 -29.35M80.45,-13.2L80.8 -13L81.15 -13.15L81.2 -13.4Q81.2 -13.85 80.8 -13.85L80.45 -13.75L80.45 -13.2M80.6,-11.3Q81 -11.3 81 -11.65Q81 -12.05 80.6 -12.05Q80.25 -12.05 80.25 -11.65Q80.25 -11.3 80.6 -11.3" />
<path style="fill:#613E27;fill-opacity:1" d="M83,-80.75L83 -65.25L79.75 -63.65L79.75 -65.1L79.75 -77.95L79.75 -79.1L83 -80.75M79.75,13.65L79.75 13.6L79.85 13.65L79.75 13.65M77.75,7.9L79.75 8.9L79.75 9.15L-75.7 86.85L-75.65 86.95L-76.5 87.35L-76.5 86.75L-76.5 85.4L-76.5 85L77.75 7.9" />
<path style="fill:#79491C;fill-opacity:1" d="M99.45,0.3L99.75 0.45L99.75 4.45L83 -3.9L82.25 -4.3L81.75 -4.55L81.75 -4.6L81.8 -8.05L81.8 -8.5L82.05 -8.4L99.45 0.3M77.55,-65.1L79.75 -65.1L79.75 -63.65L78.05 -64.5L77.65 -64.7L77.6 -64.7L77.55 -64.7L77.55 -65.1M77.6,-53.95L77.6 -55.05L77.65 -55.05L79.75 -54L79.75 -48.85L77.6 -48.85L77.6 -53.95M83.55,-52.1L83.55 -56.85L83.55 -57.3L84 -57.1L99.75 -49.2L99.75 -44L84.6 -51.55L83.7 -52L83.65 -52.05L83.55 -52.1M77.65,-33.35L79.75 -33.35L79.75 -23.25L79.75 -22.55L79.75 -15.9L79.75 -11.3L77.75 -12.3L77.7 -12.35L77.7 -13.15L77.65 -33.35M77.75,-4.25L77.8 -4.2L77.75 -4.2L77.75 -4.25M-79.75,-21.1L-78.55 -20L-76.5 -18.1L-76.5 -8.8L-79.75 -6.25L-79.75 -21.1" />
<linearGradient
id="LinearGradID_281" gradientUnits="userSpaceOnUse" gradientTransform="matrix(0.0144958, 0.0150757, -0.00796509, 0.00769043, 59.95, -59.7)" spreadMethod ="pad" x1="-819.2" y1="0" x2="819.2" y2="0" >
<stop  offset="0" style="stop-color:#909090;stop-opacity:1" />
<stop  offset="0.517647" style="stop-color:#AEAEAE;stop-opacity:1" />
</linearGradient>
<path style="fill:url(#LinearGradID_281) " d="M50.35,-78.1L52.55 -79.3L52.6 -79.25L51.45 -78.65L50.35 -78.1M45.75,-63.35L42.25 -66.45L41.2 -67.4L40.75 -67.85L38.85 -69.55L53.2 -76.85L60 -70.5L61.35 -71.15L62.3 -70.25L46.1 -62.15L46.1 -62.2L46.1 -63L45.75 -63.3L45.75 -63.35" />
<linearGradient
id="LinearGradID_282" gradientUnits="userSpaceOnUse" gradientTransform="matrix(0.0187531, 0.018219, -0.00701904, 0.00721741, 46.7, -50.95)" spreadMethod ="pad" x1="-819.2" y1="0" x2="819.2" y2="0" >
<stop  offset="0" style="stop-color:#909090;stop-opacity:1" />
<stop  offset="0.517647" style="stop-color:#AEAEAE;stop-opacity:1" />
</linearGradient>
<path style="fill:url(#LinearGradID_282) " d="M29.2,-56.8L23.6 -61.95L34.45 -67.4L37.5 -68.95L44.3 -62.6L44.6 -62.75L45.65 -63.25L45.65 -63.3L42.25 -66.45L45.75 -63.35L45.75 -63.3L46.1 -63L46.1 -62.2L46.05 -62.15L45.55 -61.9L45.45 -61.85L31.45 -54.7L30.5 -55.6L29.2 -56.8" />
<path style="fill:#626262;fill-opacity:1" d="M46.05,-62.15L46.1 -62.2L46.1 -62.15L46.05 -62.15M-79,-23.4L-76.5 -20.95L-71.55 -16.5L-70.4 -15.45L-69.65 -14.75L-62.75 -8.45L-61.85 -7.6L-64.75 -7.35L-65.2 -7.7L-65.45 -7.95L-65.95 -8.4L-67.45 -9.8L-69.35 -11.55L-76.5 -18.1L-78.55 -20L-78.75 -20.2L-79.3 -20.7L-79.65 -21L-79.75 -21.1L-79.8 -21.15L-79.85 -21.2L-81.3 -22.5L-81.3 -24.8L-81.3 -25.45L-79 -23.4M46.95,-59.75L46.85 -59.75L46.95 -59.75M-8.5,-46.75L-7.75 -46.05L-0.85 -39.75L0.05 -38.9L-0.55 -38.85L-0.55 -39.4L-0.9 -39.75L-4.4 -42.85L-6.8 -45.05L-7.85 -46L-9.75 -47.75L-14.6 -52.2L-17.25 -54.65L-18.45 -55.75L-19.4 -56.6L-19.4 -56.7L-19.4 -56.75L-17.1 -54.7L-14.6 -52.25L-9.65 -47.8L-8.5 -46.75M0.8,-37.8L0.9 -37.8L0.8 -37.8" />
<linearGradient
id="LinearGradID_283" gradientUnits="userSpaceOnUse" gradientTransform="matrix(0.0187531, 0.0187531, -0.00701904, 0.00701904, 47.55, -48.5)" spreadMethod ="pad" x1="-819.2" y1="0" x2="819.2" y2="0" >
<stop  offset="0" style="stop-color:#909090;stop-opacity:1" />
<stop  offset="0.517647" style="stop-color:#AEAEAE;stop-opacity:1" />
</linearGradient>
<path style="fill:url(#LinearGradID_283) " d="M45.55,-61.9L46.6 -60.9L46.5 -60.85L45.45 -61.85L45.55 -61.9" />
<path style="fill:#757575;fill-opacity:1" d="M79.75,-59.2Q81.4 -58.4 83 -57.55L83.1 -57.55L83.55 -57.3L83.55 -56.85L83.55 -52.1L79.75 -54L77.65 -55.05L77.6 -55.05L77.6 -55.4L77.55 -64.6L77.55 -64.7L77.6 -64.7L77.65 -64.7L78.05 -64.5L79.75 -63.65L79.75 -59.2M78.5,-62.85Q78.15 -62.85 78.15 -62.45Q78.15 -62.1 78.5 -62.1Q78.9 -62.1 78.9 -62.45Q78.9 -62.85 78.5 -62.85M82.3,-56.35Q82.3 -56.75 81.9 -56.75Q81.55 -56.75 81.55 -56.35Q81.55 -56 81.9 -56Q82.3 -56 82.3 -56.35M82.3,-54.75Q82.3 -55.15 81.9 -55.15Q81.55 -55.15 81.55 -54.75Q81.55 -54.4 81.9 -54.4Q82.3 -54.4 82.3 -54.75" />
<path style="fill:#333333;fill-opacity:1" d="M78.9,-62.45Q78.9 -62.1 78.5 -62.1Q78.15 -62.1 78.15 -62.45Q78.15 -62.85 78.5 -62.85Q78.9 -62.85 78.9 -62.45M81.9,-62.65Q81.9 -62.3 81.5 -62.3Q81.15 -62.3 81.15 -62.65Q81.15 -63.05 81.5 -63.05Q81.9 -63.05 81.9 -62.65M83.1,-59.2Q82.75 -59.2 82.75 -59.55Q82.75 -59.95 83.1 -59.95Q83.5 -59.95 83.5 -59.55Q83.5 -59.2 83.1 -59.2M81.9,-56Q81.55 -56 81.55 -56.35Q81.55 -56.75 81.9 -56.75Q82.3 -56.75 82.3 -56.35Q82.3 -56 81.9 -56M81.9,-54.4Q81.55 -54.4 81.55 -54.75Q81.55 -55.15 81.9 -55.15Q82.3 -55.15 82.3 -54.75Q82.3 -54.4 81.9 -54.4M-81.45,-5.5Q-80.85 -5.5 -80.8 -4.85Q-80.8 -4.25 -81.45 -4.25L-81.75 -4.3Q-82.05 -4.45 -82.05 -4.85L-81.75 -5.45L-81.45 -5.5M-78.4,-5.55L-78.6 -5.75L-78.7 -6.1Q-78.7 -6.75 -78.05 -6.75Q-77.4 -6.75 -77.45 -6.1Q-77.45 -5.5 -78.05 -5.5L-78.4 -5.55M-78.7,1.7Q-78.7 1.05 -78.05 1.05Q-77.4 1.05 -77.45 1.7Q-77.45 2.3 -78.05 2.3Q-78.7 2.3 -78.7 1.7M-81.3,1.05Q-80.65 1.05 -80.7 1.7Q-80.7 2.3 -81.3 2.3L-81.75 2.2L-81.95 1.7L-81.75 1.2L-81.3 1.05" />
<linearGradient
id="LinearGradID_284" gradientUnits="userSpaceOnUse" gradientTransform="matrix(0.0187531, 0.0198517, -0.00762939, 0.00723267, 31.15, -42.55)" spreadMethod ="pad" x1="-819.2" y1="0" x2="819.2" y2="0" >
<stop  offset="0" style="stop-color:#909090;stop-opacity:1" />
<stop  offset="0.517647" style="stop-color:#AEAEAE;stop-opacity:1" />
</linearGradient>
<path style="fill:url(#LinearGradID_284) " d="M8.45,-54.25L19.25 -59.75L19.25 -59.7L22.3 -61.25L29.1 -54.95L29.65 -55.2L30.05 -55.4L30.45 -55.6L29.2 -56.8L30.5 -55.6L31.45 -54.7L30.65 -54.3L30.6 -54.25L29.3 -53.6L16.25 -47L15.3 -47.9L8.45 -54.25M8.1,-56.8L6.55 -56L6.5 -56.05L9.05 -57.3L8.1 -56.8" />
<linearGradient
id="LinearGradID_285" gradientUnits="userSpaceOnUse" gradientTransform="matrix(0.0144958, 0.0150757, -0.00796509, 0.00769043, 13.9, -36.45)" spreadMethod ="pad" x1="-819.2" y1="0" x2="819.2" y2="0" >
<stop  offset="0" style="stop-color:#909090;stop-opacity:1" />
<stop  offset="0.517647" style="stop-color:#AEAEAE;stop-opacity:1" />
</linearGradient>
<path style="fill:url(#LinearGradID_285) " d="M-7.75,-46.05L7.15 -53.6L13.95 -47.25L15.3 -47.9L16.25 -47L15.75 -46.75L14.45 -46.1L0.4 -39.1L0.3 -39.05L0.05 -38.9L-0.85 -39.75L-7.75 -46.05M5.4,-55.4L4.3 -54.85L6.5 -56.05L6.55 -56L5.4 -55.4" />
<linearGradient
id="LinearGradID_286" gradientUnits="userSpaceOnUse" gradientTransform="matrix(0.0187531, 0.0203857, -0.00762939, 0.00701904, 32, -40.55)" spreadMethod ="pad" x1="-819.2" y1="0" x2="819.2" y2="0" >
<stop  offset="0" style="stop-color:#909090;stop-opacity:1" />
<stop  offset="0.517647" style="stop-color:#AEAEAE;stop-opacity:1" />
</linearGradient>
<path style="fill:url(#LinearGradID_286) " d="M30.65,-54.3L31.35 -53.6L31.3 -53.6L30.6 -54.25L30.65 -54.3" />
<linearGradient
id="LinearGradID_287" gradientUnits="userSpaceOnUse" gradientTransform="matrix(0.0144958, 0.0154877, -0.00796509, 0.00746155, 14.75, -34.95)" spreadMethod ="pad" x1="-819.2" y1="0" x2="819.2" y2="0" >
<stop  offset="0" style="stop-color:#909090;stop-opacity:1" />
<stop  offset="0.517647" style="stop-color:#AEAEAE;stop-opacity:1" />
</linearGradient>
<path style="fill:url(#LinearGradID_287) " d="M0.4,-39.1L14.45 -46.1L14.8 -45.75L0.55 -38.95L0.4 -39.1" />
<linearGradient
id="LinearGradID_288" gradientUnits="userSpaceOnUse" gradientTransform="matrix(0.0187531, 0.0187531, -0.00701904, 0.00701904, 1.5, -26.55)" spreadMethod ="pad" x1="-819.2" y1="0" x2="819.2" y2="0" >
<stop  offset="0" style="stop-color:#909090;stop-opacity:1" />
<stop  offset="0.517647" style="stop-color:#AEAEAE;stop-opacity:1" />
</linearGradient>
<path style="fill:url(#LinearGradID_288) " d="M0.3,-39.05L0.4 -39.1L0.55 -38.95L0.45 -38.9L0.3 -39.05M-0.95,-38.35L-0.9 -38.3L-2.1 -37.7L-2.15 -37.7L-4.55 -36.55L-0.95 -38.35" />
<path style="fill:#000000;fill-opacity:1" d="M80.6,-43.75Q81 -43.75 81 -43.35Q81 -43 80.6 -43Q80.25 -43 80.25 -43.35Q80.25 -43.75 80.6 -43.75M80.75,-46.25Q81.2 -46.25 81.2 -45.85Q81.2 -45.2 80.6 -45.2L80.25 -45.6Q80.25 -46.25 80.75 -46.25M80.95,-26.65Q81.4 -26.65 81.4 -26.25Q81.4 -25.9 80.95 -25.9Q80.55 -25.9 80.55 -26.25Q80.55 -26.65 80.95 -26.65M80.9,-29.75Q81.3 -29.75 81.3 -29.35Q81.3 -29 80.9 -29Q80.55 -29 80.55 -29.35Q80.55 -29.75 80.9 -29.75M80.45,-13.75L80.8 -13.85Q81.2 -13.85 81.2 -13.4L81.15 -13.15L80.8 -13L80.45 -13.2L80.45 -13.75M80.25,-11.65Q80.25 -12.05 80.6 -12.05Q81 -12.05 81 -11.65Q81 -11.3 80.6 -11.3Q80.25 -11.3 80.25 -11.65" />
<path style="fill:#644028;fill-opacity:1" d="M83.65,-52.05L83.7 -52L84.6 -51.55L99.75 -44L99.75 -38.95L79.75 -48.85L79.75 -54L83.55 -52.1L83.65 -52.05M79.75,-33.35L79.75 -41.1L79.75 -41.75L99.7 -31.85L99.7 -31.2L99.6 -23.45L79.75 -33.35M79.75,-15.9L79.75 -22.55L79.75 -23.25L99.55 -13.35L99.55 -12.7L99.5 -6.05L79.75 -15.9" />
<path style="fill:#2B2B2B;fill-opacity:1" d="M79.8,-5.5L81.4 -4.7L81.75 -4.55L81.75 -4.2L81.55 -4.1L79.75 -3.2L79.75 -4.35L79.8 -5.5" />
<path style="fill:#A06B25;fill-opacity:1" d="M86.25,-59.15L86.85 -58.85L103 -50.8L103 -45.6L99.75 -44L99.75 -49.2L84 -57.1L83.55 -57.3L83.1 -57.55L86.05 -59.05L86.25 -59.15M99.45,-2.9L103 -1.15L103 2.85L99.75 4.45L99.75 0.45L99.45 0.3L99.45 -2.9M-82.3,10.65L-83.6 11.35L-83.6 6.75L-82.3 6.1L-81.75 6.35L-81.75 10.95L-82.3 10.65M79.75,-4.35L79.75 -5.55L79.8 -5.5L79.75 -4.35M-79.75,-21.1L-79.65 -21L-79.3 -20.7L-78.75 -20.2L-78.55 -20L-79.75 -21.1" />
<path style="fill:#684517;fill-opacity:1" d="M79.85,13.65L79.8 13.75L79.75 13.75L79.75 13.65L79.85 13.65" />
<radialGradient
id="RadialGradID_289" gradientUnits="userSpaceOnUse" gradientTransform="matrix(1.00031, 0, 0, 1, 76.65, -83.2)" spreadMethod ="pad" cx="0" cy="0" r="819.2" fx="0" fy="0" >
<stop  offset="0"  style="stop-color:#9D9D9D;stop-opacity:1" />
<stop  offset="1"  style="stop-color:#AEAEAE;stop-opacity:1" />
</radialGradient>
<path style="fill:url(#RadialGradID_289) " d="M37.55,34.8L37.05 35.05L37.5 34.8L37.55 34.8" />
<path style="fill:#72461B;fill-opacity:1" d="M-99.7,3.2L-101 2.55L-101 2.7L-105.75 0.3L-105.75 0.15L-105.75 -4.25L-101.6 -2.2L-101 -1.9L-100.6 -1.7L-99.2 -1Q-91.4 2.85 -83.6 6.75L-83.6 11.35L-99.7 3.2M-81.75,-7.25L-81.75 -25.05L-81.3 -24.8L-81.3 -22.5L-79.85 -21.2L-79.8 -21.15L-79.75 -21.1L-79.75 -6.25L-81.75 -7.25M-101,-0.65L-101 -1.9L-101 -0.65" />
<linearGradient
id="LinearGradID_290" gradientUnits="userSpaceOnUse" gradientTransform="matrix(0.0187531, 0.0198517, -0.00762939, 0.00723267, -30.75, -11.25)" spreadMethod ="pad" x1="-819.2" y1="0" x2="819.2" y2="0" >
<stop  offset="0" style="stop-color:#909090;stop-opacity:1" />
<stop  offset="0.517647" style="stop-color:#AEAEAE;stop-opacity:1" />
</linearGradient>
<path style="fill:url(#LinearGradID_290) " d="M-55.4,-24.75L-52.85 -26L-53.8 -25.5L-55.35 -24.7L-55.4 -24.75M-31.4,-24.3L-31.6 -24.15L-32.4 -23.8L-45.2 -17.3L-46.6 -16.6L-53.45 -22.95L-42.65 -28.45L-42.65 -28.4L-39.6 -29.95L-32.8 -23.65L-32.7 -23.7L-31.85 -24.1L-31.45 -24.3L-32.7 -25.5L-31.4 -24.3M-43.8,-16.7L-44.3 -16.4L-45.65 -15.7L-45.7 -15.75L-44.3 -16.45L-43.8 -16.7" />
<path style="fill:#655252;fill-opacity:1" d="M-76.5,-8.8L-76.5 -18.1L-69.35 -11.55Q-71.5 -9.2 -74.2 -7.35L-75.05 -6.75L-76.5 -5.9L-76.5 -8.8" />
<linearGradient
id="LinearGradID_291" gradientUnits="userSpaceOnUse" gradientTransform="matrix(0.0144958, 0.0150757, -0.00796509, 0.00769043, -48, -5.15)" spreadMethod ="pad" x1="-819.2" y1="0" x2="819.2" y2="0" >
<stop  offset="0" style="stop-color:#909090;stop-opacity:1" />
<stop  offset="0.517647" style="stop-color:#AEAEAE;stop-opacity:1" />
</linearGradient>
<path style="fill:url(#LinearGradID_291) " d="M-53.1,-12L-61.85 -7.6L-62.75 -8.45L-69.65 -14.75L-54.75 -22.3L-47.95 -15.95Q-47.3 -16.3 -46.6 -16.6L-46.5 -16.5L-45.7 -15.75L-45.65 -15.7L-53.1 -12M-55.4,-24.75L-55.35 -24.7L-56.5 -24.1L-57.6 -23.55L-55.4 -24.75" />
<linearGradient
id="LinearGradID_292" gradientUnits="userSpaceOnUse" gradientTransform="matrix(0.0144958, 0.0154877, -0.00796509, 0.00746155, -46.45, -5.75)" spreadMethod ="pad" x1="-819.2" y1="0" x2="819.2" y2="0" >
<stop  offset="0" style="stop-color:#909090;stop-opacity:1" />
<stop  offset="0.517647" style="stop-color:#AEAEAE;stop-opacity:1" />
</linearGradient>
<path style="fill:url(#LinearGradID_292) " d="M-45.65,-15.7L-44.3 -16.4L-44.1 -16.25L-53.1 -12L-45.65 -15.7M-45.05,-17.15L-44.3 -16.45L-45.7 -15.75L-46.5 -16.5L-45.05 -17.15" />
<linearGradient
id="LinearGradID_293" gradientUnits="userSpaceOnUse" gradientTransform="matrix(0.0187531, 0.0203857, -0.00762939, 0.00701904, -29.2, -11.35)" spreadMethod ="pad" x1="-819.2" y1="0" x2="819.2" y2="0" >
<stop  offset="0" style="stop-color:#909090;stop-opacity:1" />
<stop  offset="0.517647" style="stop-color:#AEAEAE;stop-opacity:1" />
</linearGradient>
<path style="fill:url(#LinearGradID_293) " d="M-31.6,-24.15L-31.25 -23.8L-30.95 -23.9L-30.55 -23.5L-30.45 -23.4L-30.55 -23.35L-30.4 -23.4L-29.35 -23.95L-28.9 -23.5L-44.1 -16.25L-44.3 -16.4L-43.8 -16.7L-44.3 -16.45L-45.05 -17.15L-45.2 -17.3L-32.4 -23.8L-31.6 -24.15" />
<linearGradient
id="LinearGradID_294" gradientUnits="userSpaceOnUse" gradientTransform="matrix(0.0187531, 0.018219, -0.00701904, 0.00721741, 0.05, -27.35)" spreadMethod ="pad" x1="-819.2" y1="0" x2="819.2" y2="0" >
<stop  offset="0" style="stop-color:#909090;stop-opacity:1" />
<stop  offset="0.517647" style="stop-color:#AEAEAE;stop-opacity:1" />
</linearGradient>
<path style="fill:url(#LinearGradID_294) " d="M-16.15,-32.05L-18.75 -34.35L-23.05 -38.35Q-17.6 -41.1 -12.2 -43.8L-9.15 -45.35L-2.35 -39L-2.05 -39.15L-1 -39.65L-1 -39.7L-4.4 -42.85L-0.9 -39.75L-0.55 -39.4L-0.55 -38.85L-0.55 -38.6L-0.95 -38.35L-4.55 -36.55L-14.35 -31.55L-14.4 -31.5L-15.2 -31.1L-15.8 -31.65L-15.8 -31.7L-16.15 -32L-16.15 -32.05" />
<path style="fill:#7B6262;fill-opacity:1" d="M-14.4,-31.5L-14.35 -31.55L-14.25 -31.35L-14.4 -31.5" />
<linearGradient
id="LinearGradID_295" gradientUnits="userSpaceOnUse" gradientTransform="matrix(0.0187531, 0.0187531, -0.00701904, 0.00701904, -13.65, -19.3)" spreadMethod ="pad" x1="-819.2" y1="0" x2="819.2" y2="0" >
<stop  offset="0" style="stop-color:#909090;stop-opacity:1" />
<stop  offset="0.517647" style="stop-color:#AEAEAE;stop-opacity:1" />
</linearGradient>
<path style="fill:url(#LinearGradID_295) " d="M-29.35,-23.95Q-22.3 -27.55 -15.2 -31.1L-14.4 -31.5L-14.25 -31.35L-14.25 -31.2L-14.25 -30.55L-16.8 -29.3L-28.9 -23.5L-29.35 -23.95" />
<linearGradient
id="LinearGradID_296" gradientUnits="userSpaceOnUse" gradientTransform="matrix(0.0187531, 0.018219, -0.00701904, 0.00721741, -15.2, -19.65)" spreadMethod ="pad" x1="-819.2" y1="0" x2="819.2" y2="0" >
<stop  offset="0" style="stop-color:#909090;stop-opacity:1" />
<stop  offset="0.517647" style="stop-color:#AEAEAE;stop-opacity:1" />
</linearGradient>
<path style="fill:url(#LinearGradID_296) " d="M-32.7,-25.5L-38.3 -30.65L-38.2 -30.7L-27.45 -36.1L-24.4 -37.65L-17.6 -31.3L-17.3 -31.45L-16.25 -31.95L-16.25 -32L-19.65 -35.15L-18.75 -34.35L-16.15 -32.05L-16.15 -32L-15.8 -31.7L-15.8 -31.65L-15.8 -30.9L-30.4 -23.45L-30.45 -23.4L-30.55 -23.5L-30.95 -23.9L-31.4 -24.3L-32.7 -25.5" />
<linearGradient
id="LinearGradID_297" gradientUnits="userSpaceOnUse" gradientTransform="matrix(0.0187531, 0.0198517, -0.00762939, 0.00723267, -15.5, -18.95)" spreadMethod ="pad" x1="-819.2" y1="0" x2="819.2" y2="0" >
<stop  offset="0" style="stop-color:#909090;stop-opacity:1" />
<stop  offset="0.517647" style="stop-color:#AEAEAE;stop-opacity:1" />
</linearGradient>
<path style="fill:url(#LinearGradID_297) " d="M-29.35,-23.95L-30.4 -23.4L-30.4 -23.45L-15.8 -30.9L-15.8 -31.65L-15.2 -31.1Q-22.3 -27.55 -29.35 -23.95" />
<linearGradient
id="LinearGradID_298" gradientUnits="userSpaceOnUse" gradientTransform="matrix(0.0187531, 0.0203857, -0.00762939, 0.00701904, -14.05, -18.6)" spreadMethod ="pad" x1="-819.2" y1="0" x2="819.2" y2="0" >
<stop  offset="0" style="stop-color:#909090;stop-opacity:1" />
<stop  offset="0.517647" style="stop-color:#AEAEAE;stop-opacity:1" />
</linearGradient>
<path style="fill:url(#LinearGradID_298) " d="M-14.25,-30.55L-14.25 -31.2L-13.75 -30.75Q-15.3 -30 -16.8 -29.3L-14.25 -30.55" />
<linearGradient
id="LinearGradID_299" gradientUnits="userSpaceOnUse" gradientTransform="matrix(0.0144958, 0.0150757, -0.00796509, 0.00769043, -32.75, -12.85)" spreadMethod ="pad" x1="-819.2" y1="0" x2="819.2" y2="0" >
<stop  offset="0" style="stop-color:#909090;stop-opacity:1" />
<stop  offset="0.517647" style="stop-color:#AEAEAE;stop-opacity:1" />
</linearGradient>
<path style="fill:url(#LinearGradID_299) " d="M-30.4,-23.45L-30.4 -23.4L-30.55 -23.35L-30.45 -23.4L-30.4 -23.45" />
<path style="fill:#332828;fill-opacity:1" d="M-104.2,81.2L-105.75 80.4L-105.75 0.3L-101 2.7L-101 2.55L-99.7 3.2L-83.6 11.35L-82.3 10.65L-81.75 10.95L-81.75 91.4L-82 91.7L-82 91.8L-81.75 91.65L-81.75 92.5L-99.7 83.5L-99.7 83.4L-104.2 81.2M-90.45,14.4L-88.9 15.65L-89.15 16L-89.05 16.35L-87.7 16.05L-87.8 15.65L-88.05 15.35L-90.55 14L-90.45 14.4M-89.65,15.95L-89.2 18.3L-89.15 18.35L-88.95 17.8L-89.35 15.8L-89.55 15.6L-89.65 15.95M-87.1,19.7L-86.65 21.4L-86.45 21.05Q-86.45 20.15 -86.85 19.55L-87.05 19.35L-87.1 19.7M-87.3,19.7L-87.35 19.1L-87.5 19L-87.55 19.3L-87.4 20.45L-87.3 19.7M-88.5,19.65L-88.65 18.8L-88.85 18.6L-88.9 19.3L-88.9 19.4L-89.1 19.25L-89.35 18.6L-89.5 18.45L-89.55 18.6L-89.5 19L-89.95 18.75L-90 19L-89.9 19.35L-89.25 19.95L-88.9 21.1L-88.75 20.95L-87.95 24.3L-87.85 24.35L-87.7 24.1L-88.4 20.25L-87.25 20.6L-87.4 20.45L-88.5 19.65M-88.75,20.95L-88.9 20.1L-88.85 20.1L-88.75 20.95M-104.35,23.5L-104.45 23.55L-104.45 23.6L-104.35 23.5M-105.35,11.35L-105.3 11.5L-105.2 11.5L-105.35 11.35M-87.75,25.45L-88.8 24.6L-88.75 24.95L-88.3 25.45L-87.75 25.45M-87,27.55L-87 27.65L-87.3 29.45L-86.95 29.7Q-86.55 28.85 -86.55 27.9Q-86.55 27.55 -86.85 27.1L-88.75 26.05L-88.65 26.5L-87.9 27.2L-87 27.55M-88,30.7L-87.3 32.1L-87.15 32.15L-87.1 31.95Q-87.1 31.55 -87.75 30.6Q-88 30.45 -88 30.7M-86.45,34.6L-85.5 34.75Q-84.8 34.65 -84.8 34.35L-84.95 34.05Q-86.1 33.2 -87.05 33.7L-86.95 34.1L-86.45 34.6M-87.1,31.4L-86.5 32.7L-86.4 32.6L-86.85 31.35L-87.1 31.4M-99.7,82.3L-99.95 82.6L-99.95 82.7L-99.7 82.55L-99.7 82.3" />
<path style="fill:#F5F3F3;fill-opacity:1" d="M-90.55,14L-88.05 15.35L-87.8 15.65L-87.7 16.05L-89.05 16.35L-89.15 16L-88.9 15.65L-90.45 14.4L-90.55 14M-89.55,15.6L-89.35 15.8L-88.95 17.8L-89.15 18.35L-89.2 18.3L-89.65 15.95L-89.55 15.6M-87.05,19.35L-86.85 19.55Q-86.45 20.15 -86.45 21.05L-86.65 21.4L-87.1 19.7L-87.05 19.35M-87.4,20.45L-87.55 19.3L-87.5 19L-87.35 19.1L-87.3 19.7L-87.4 20.45L-87.25 20.6L-88.4 20.25L-87.7 24.1L-87.85 24.35L-87.95 24.3L-88.75 20.95L-88.9 21.1L-89.25 19.95L-89.9 19.35L-90 19L-89.95 18.75L-89.5 19L-89.55 18.6L-89.5 18.45L-89.35 18.6L-89.1 19.25L-88.9 19.4L-88.9 19.3L-88.85 18.6L-88.65 18.8L-88.5 19.65L-87.4 20.45M-88.85,20.1L-88.9 20.1L-88.75 20.95L-88.85 20.1M-88.3,25.45L-88.75 24.95L-88.8 24.6L-87.75 25.45L-88.3 25.45M-87.9,27.2L-88.65 26.5L-88.75 26.05L-86.85 27.1Q-86.55 27.55 -86.55 27.9Q-86.55 28.85 -86.95 29.7L-87.3 29.45L-87 27.65L-87 27.55L-87.9 27.2M-87.75,30.6Q-87.1 31.55 -87.1 31.95L-87.15 32.15L-87.3 32.1L-88 30.7Q-88 30.45 -87.75 30.6M-86.95,34.1L-87.05 33.7Q-86.1 33.2 -84.95 34.05L-84.8 34.35Q-84.8 34.65 -85.5 34.75L-86.45 34.6L-86.95 34.1M-86.85,31.35L-86.4 32.6L-86.5 32.7L-87.1 31.4L-86.85 31.35" />
<path style="fill:#97613E;fill-opacity:1" d="M74.25,13.8L74.25 13.7L79.75 10.95L79.75 13.6L-76.5 91.9L-76.5 90.75L-76.5 89.05L74.25 13.8" />
<path style="fill:#473019;fill-opacity:1" d="M79.75,-2.6L79.75 6.9L79.75 8.9L77.75 7.9L77.75 -3.15L77.75 -4.2L77.8 -4.2L78.25 -3.95L79.75 -3.2L79.75 -2.6" />
<path style="fill:#946049;fill-opacity:1" d="M79.75,8.9L79.75 6.9L79.75 -2.6L79.75 -3.2L81.55 -4.1L81.75 -4.2L81.75 -4.55L82.25 -4.3L83 -3.9L83 11.95L80 13.45L79.85 13.65L79.75 13.6L79.75 10.95L79.75 9.15L79.75 8.9" />
<path style="fill:#784E32;fill-opacity:1" d="M79.75,-41.1L79.75 -33.35L77.65 -33.35L77.6 -48.85L79.75 -48.85L79.75 -41.75L79.75 -41.1" />
<path style="fill:#3D2618;fill-opacity:1" d="M77.5,-77.95L79.75 -77.95L79.75 -65.1L77.55 -65.1L77.5 -77.95" />
<path style="fill:#855536;fill-opacity:1" d="M-76.5,89.05L-76.5 87.35L-75.65 86.95L-75.7 86.85L79.75 9.15L79.75 10.95L74.25 13.7L74.25 13.8L-76.5 89.05" />
<path style="fill:#4D3C2C;fill-opacity:1" d="M-83.6,6.75Q-91.4 2.85 -99.2 -1L-100.6 -1.7L-101 -1.9L-105.7 -4.3L-104.4 -5L-82.3 6.1L-83.6 6.75" />
<path style="fill:none;stroke-width:1;stroke-linecap:round;stroke-linejoin:round;stroke-miterlimit:3;stroke:#373737;stroke-opacity:1" d="M-81.15,4.05L-81.75 3.8L-81.75 6.35L-81.75 10.95M-81.75,92.5L-99.7 83.5M-105.75,-4.25L-105.7 -4.3L-104.4 -5L-82.3 6.1M79.75,-77.95L79.75 -79.1M78.05,-64.5L79.75 -63.65M77.55,-64.6L77.6 -55.4M77.65,-55.05L79.75 -54L83.55 -52.1L83.55 -56.85M83,-57.55Q81.4 -58.4 79.75 -59.2L79.75 -63.65M79.75,-9.55L79.75 -11.3M77.7,-11.75L77.75 -4.45M78.25,-3.95L79.75 -3.2L81.55 -4.1M79.75,-5.55L79.8 -5.5L81.4 -4.7M81.75,-4.6L81.8 -8.05M86.05,-59.05L83.1 -57.55M-99.2,-1Q-91.4 2.85 -83.6 6.75L-82.3 6.1M-82.35,3.55L-81.75 3.8M-83.6,6.75L-83.6 11.35L-82.3 10.65L-81.75 10.95M-83.6,11.35L-99.7 3.2L-101 2.55L-105.75 0.15M-99.7,82.55L-99.7 83.4L-99.7 83.5" />
<path style="fill:none;stroke-width:1;stroke-linecap:round;stroke-linejoin:round;stroke-miterlimit:3;stroke:#000000;stroke-opacity:1" d="M91.8,-86.6L92.15 -86.25M77.5,-77.95L77.4 -78.05L76.55 -78.85M45.75,-63.35L45.75 -63.3L46.1 -63M46.1,-62.2L46.1 -62.15M62.3,-70.25L61.35 -71.15M30.5,-55.6L31.45 -54.7M16.25,-47L15.3 -47.9M-0.85,-39.75L0.05 -38.9M-0.9,-39.75L-0.55 -39.4M-70.4,-15.45L-69.65 -14.75M-61.85,-7.6L-62.75 -8.45M-46.5,-16.5L-45.7 -15.75L-45.65 -15.7M-44.3,-16.45L-45.05 -17.15M-46.5,-16.5L-46.6 -16.6M-44.1,-16.25L-44.3 -16.4M-8.5,-46.75L-7.75 -46.05M-16.15,-32.05L-16.15 -32L-15.8 -31.7M-15.8,-31.65L-15.2 -31.1M-14.4,-31.5L-14.25 -31.35M-30.4,-23.45L-30.4 -23.4M-29.35,-23.95L-28.9 -23.5M-30.45,-23.4L-30.55 -23.5L-30.95 -23.9L-31.4 -24.3" />
<path style="fill:none;stroke-width:2;stroke-linecap:round;stroke-linejoin:round;stroke-miterlimit:3;stroke:#373737;stroke-opacity:1" d="M92.15,-85.45L90.65 -84.7L90.65 -84.65L83 -80.75M75.9,-77.15L77.5 -77.95M79.75,-79.1L77.5 -77.95M46.1,-62.15L62.3 -70.25L75.8 -77.1M46.1,-62.2L46.05 -62.15L45.55 -61.9L45.45 -61.85L31.45 -54.7L30.65 -54.3M30.6,-54.25L29.3 -53.6L16.25 -47L15.75 -46.75M-0.95,-38.35L-4.55 -36.55L-14.35 -31.55M-45.65,-15.7L-53.1 -12L-61.85 -7.6M30.6,-54.25L30.65 -54.3M0.05,-38.9L0.3 -39.05L0.4 -39.1L14.45 -46.1L15.75 -46.75M79.75,-79.1L83 -80.75M-45.65,-15.7L-44.3 -16.4L-43.8 -16.7L-30.55 -23.35M-15.8,-30.9L-30.4 -23.45L-30.45 -23.4L-30.55 -23.35L-30.4 -23.4L-29.35 -23.95Q-22.3 -27.55 -15.2 -31.1L-14.4 -31.5L-14.35 -31.55M-0.95,-38.35L-0.55 -38.6" />
<path style="fill:none;stroke-width:1;stroke-linecap:round;stroke-linejoin:round;stroke-miterlimit:3;stroke:#C4C4C4;stroke-opacity:1" d="M76.55,-78.85L79.75 -80.5L83 -82.15L89.7 -85.55L89.75 -85.55L90.35 -85.85L90.65 -86M76.55,-78.85L76.5 -78.85M61.35,-71.15L76.1 -78.65M61.35,-71.15L60 -70.5L59.95 -70.45L45.75 -63.3M44.3,-62.6L44.6 -62.75M45.75,-63.35L45.65 -63.3M16.15,-46.35L14.8 -45.75L0.55 -38.95L0.45 -38.9L0 -38.65M-0.6,-38.4L-0.9 -38.3L-2.1 -37.7L-2.15 -37.7L-4.55 -36.55M15.3,-47.9L29.65 -55.2L30.05 -55.4M44.3,-62.6L30.5 -55.6L30.45 -55.6M15.3,-47.9L13.95 -47.25L-0.85 -39.75M91.7,-86.55L91.8 -86.6M-62.75,-8.45L-47.95 -15.95Q-47.3 -16.3 -46.6 -16.6L-45.2 -17.3L-32.4 -23.8L-31.85 -24.1M-2.05,-39.15L-2.35 -39L-15.35 -32.4L-15.45 -32.35L-16.15 -32M-1,-39.7L-0.9 -39.75M-31.4,-24.3L-31.4 -24.35L-30.35 -24.85L-17.6 -31.3L-17.3 -31.45M-16.25,-32L-16.2 -32L-16.2 -32.05L-16.15 -32.05M-31.4,-24.3L-31.45 -24.3M-30.95,-23.9L-45.05 -17.15" />
<path style="fill:none;stroke-width:1;stroke-linecap:round;stroke-linejoin:round;stroke-miterlimit:3;stroke:#A6A6A6;stroke-opacity:1" d="M69.15,-87.6L81.65 -93.95M55.1,-80.55L66.5 -86.3M55.1,-80.55L54.15 -80.05M37.6,-71.6L50.35 -78.1L51.45 -78.65M8.1,-56.8L9.05 -57.3L20.45 -63.05M23.1,-64.35L35.6 -70.7M-8.45,-48.35L4.3 -54.85L5.4 -55.4M-41.45,-31.75L-52.85 -26L-53.8 -25.5M-56.5,-24.1L-57.6 -23.55L-70.35 -17.05M-26.3,-39.4L-38.8 -33.05M-11.05,-47.1L-23.55 -40.75" />
<path style="fill:none;stroke-width:1;stroke-linecap:round;stroke-linejoin:round;stroke-miterlimit:3;stroke:#844911;stroke-opacity:1" d="M77.55,-65.1L77.5 -77.95M77.6,-48.85L77.65 -33.35M77.75,-3.15L77.75 7.9M77.7,-13.15L77.65 -33.35M77.6,-48.85L77.6 -53.95M-75.7,86.85L-75.65 86.95" />
<path style="fill:none;stroke-width:1;stroke-linecap:round;stroke-linejoin:round;stroke-miterlimit:3;stroke:#626262;stroke-opacity:1" d="M79.75,-11.3L77.75 -12.3M81.6,-8.6L79.75 -9.55" />
<path style="fill:none;stroke-width:1;stroke-linecap:round;stroke-linejoin:round;stroke-miterlimit:3;stroke:#5E5E5E;stroke-opacity:1" d="M79.75,-3.2L79.75 -4.35M79.8,-5.5L79.75 -4.35" />
<path style="fill:none;stroke-width:1;stroke-linecap:round;stroke-linejoin:round;stroke-miterlimit:3;stroke:#888888;stroke-opacity:1" d="M83,-65.25L83 -60.8L86 -59.3" />
<path style="fill:none;stroke-width:1;stroke-linecap:round;stroke-linejoin:round;stroke-miterlimit:3;stroke:#333333;stroke-opacity:1" d="M83.65,-52.05L83.55 -52.1" />
<path style="fill:none;stroke-width:1;stroke-linecap:round;stroke-linejoin:round;stroke-miterlimit:3;stroke:#623409;stroke-opacity:1" d="M86.85,-58.85L103 -50.8M99.75,-44L99.75 -38.95L99.7 -31.85L99.7 -31.2L99.6 -23.45L99.55 -13.35L99.55 -12.7L99.5 -6.05L99.45 -2.9L103 -1.15M99.75,4.45L83 -3.9M82.25,-4.3L83 -3.9M84,-57.1L99.75 -49.2M99.75,-44L84.6 -51.55M99.75,0.45L99.45 0.3L82.05 -8.4M99.45,-2.9L99.45 0.3" />
<path style="fill:none;stroke-width:0.5;stroke-linecap:round;stroke-linejoin:round;stroke-miterlimit:3;stroke:#745A50;stroke-opacity:1" d="M79.75,-22.55L99.55 -12.7" />
<path style="fill:none;stroke-width:1;stroke-linecap:round;stroke-linejoin:round;stroke-miterlimit:3;stroke:#2D1704;stroke-opacity:1" d="M79.75,-41.75L99.7 -31.85M79.75,-33.35L99.6 -23.45M79.75,-48.85L99.75 -38.95M79.75,-23.25L99.55 -13.35M99.5,-6.05L79.75 -15.9" />
<path style="fill:none;stroke-width:1;stroke-linecap:round;stroke-linejoin:round;stroke-miterlimit:3;stroke:#848484;stroke-opacity:1" d="M79.75,-63.65L83 -65.25" />
<path style="fill:none;stroke-width:0.25;stroke-linecap:round;stroke-linejoin:round;stroke-miterlimit:3;stroke:#8B7C5A;stroke-opacity:1" d="M99.7,-31.2L79.75 -41.1" />
<path style="fill:none;stroke-width:1;stroke-linecap:round;stroke-linejoin:round;stroke-miterlimit:3;stroke:#916A2C;stroke-opacity:1" d="M83,-3.9L83 11.95L80 13.45" />
<path style="fill:none;stroke-width:1;stroke-linecap:round;stroke-linejoin:round;stroke-miterlimit:3;stroke:#1E1A26;stroke-opacity:1" d="M-82.3,6.1L-81.75 6.35M-81.75,-25.05L-81.3 -24.8" />
<path style="fill:none;stroke-width:0.5;stroke-linecap:round;stroke-linejoin:round;stroke-miterlimit:3;stroke:#4B2F12;stroke-opacity:1" d="M-76.5,90.75L-76.5 89.05L-76.5 87.35L-76.5 86.75" />
<path style="fill:none;stroke-width:1;stroke-linecap:round;stroke-linejoin:round;stroke-miterlimit:3;stroke:#373737;stroke-opacity:1" d="M77.75,-98.9L78.1 -99.05L82.95 -94.6L84.85 -92.85M-65.95,-8.4L-67.45 -9.8Q-69.3 -7.85 -71.7 -5.9L-75.6 -2.95L-76.3 -2.45L-76.5 -2.35L-76.5 2.4L-79.75 4.65L-81.15 4.05L-82.35 3.55L-83.25 3.15L-83.25 -8.05L-81.75 -7.25L-81.75 -25.05M-99.7,83.5L-104.2 81.2L-105.75 80.4M-105.75,0.15L-105.75 -4.25M74.25,-102.6L73.2 -103.55L73.25 -103.6L74.25 -102.6L75.45 -101.5L60.3 -93.8L45 -86.05L29.45 -78.2M20.45,-63.05L21.7 -63.7L16.8 -68.15L32.05 -75.8L32.1 -75.8L47.65 -83.7L62.85 -91.4L77.75 -98.9L77.75 -99.4M58,-95.85L60.3 -93.8M62.85,-91.4L67.75 -86.95L69.15 -87.6M81.65,-93.95L82.95 -94.6M79.75,-79.1L79.75 -80.5M66.5,-86.3L67.75 -86.95L69.65 -85.2M42.75,-88.15L42.8 -88.15L45 -86.05M47.65,-83.7L52.55 -79.3M27.15,-80.3L27.2 -80.35L27.25 -80.3L28.2 -79.35L29.4 -78.25M54.15,-80.05L52.6 -79.25L54.5 -77.5M51.45,-78.65L52.6 -79.25L52.55 -79.3M46.05,-62.15L46.1 -62.15M-61.85,-7.6L-64.75 -7.35L-65.2 -7.7L-65.45 -7.95M11.95,-72.6L14.25 -70.55L28.6 -77.85L28.65 -77.85L29.4 -78.25M27.15,-80.3L28.2 -79.35M16.8,-68.15L1.6 -60.45L6.5 -56.05L6.55 -56L8.1 -56.8M5.4,-55.4L6.55 -56L8.45 -54.25M23.6,-61.95L21.7 -63.7L23.1 -64.35M35.6,-70.7L36.9 -71.35L32.1 -75.8M36.9,-71.35L36.95 -71.3L37.6 -71.6M38.8,-69.6L36.95 -71.3M-3.25,-64.9L-1.05 -62.8L14.25 -70.55M-7.75,-46.05L-0.85 -39.75M83,-80.75L83 -82.15M-81.3,-24.8L-81.3 -25.45M-49.9,-41.25L-49.85 -41.25L-47.65 -39.25L-32.5 -46.95L-33.7 -48.05L-34.3 -48.6L-34.35 -48.65L-34.75 -49L-34.7 -49.05L-34.65 -49L-34.4 -48.75L-34.3 -48.65L-32.4 -46.95L-17.25 -54.65M-18.45,-55.75L-19.4 -56.6L-19.5 -56.7L-19.45 -56.75L-19.4 -56.7L-19.4 -56.75M-101,-1.9L-105.7 -4.3M-101,-1.9L-100.6 -1.7L-99.2 -1M-101,-1.9L-101.6 -2.2M-81.3,-24.8L-81.3 -22.5L-79.85 -21.2L-79.8 -21.15L-79.75 -21.1L-78.55 -20L-76.5 -18.1L-69.35 -11.55L-67.45 -9.8M-3.25,-64.9L-3.3 -64.9M-19.4,-56.6L-19.4 -56.7L-18.45 -55.75L-17.25 -54.65M-24.95,-40.1L-29.85 -44.55L-14.6 -52.2L-9.75 -47.75L-7.85 -46M-0.55,-38.85L0.05 -38.9M-17.1,-54.7L-19.4 -56.75M-17.1,-54.7L-1.05 -62.8M1.6,-60.45L-14.6 -52.25L-9.65 -47.8L-8.45 -48.35M-49.9,-41.25L-49.9 -41.3L-49.95 -41.3M-63.6,-34.65L-63.45 -34.5L-61.4 -32.5L-53.8 -36.15L-47.7 -39.2L-47.65 -39.25M-45.1,-36.85L-43.65 -37.55L-29.85 -44.5M-53.8,-25.5L-55.35 -24.7L-53.45 -22.95M-38.3,-30.65L-40.2 -32.4L-41.45 -31.75M-45.1,-36.85L-60.3 -29.15L-55.4 -24.75L-55.35 -24.7L-56.5 -24.1M-70.35,-17.05L-71.55 -16.5L-70.4 -15.45M-45.1,-36.85L-45.05 -36.8L-43.65 -37.55M-63.6,-34.65L-63.65 -34.7M-63.1,-31.65L-62.95 -31.5L-61.25 -32.35L-53.8 -36.15M-63.1,-31.65L-65.15 -33.6M-60.3,-29.15L-76.45 -20.95L-76.5 -20.95L-71.55 -16.5M-69.35,-11.55Q-71.5 -9.2 -74.2 -7.35L-75.05 -6.75L-76.5 -5.9L-79.75 -3.15Q-81.35 -0.95 -79.75 0.45L-76.5 -2.35M-79.75,-21.1L-79.75 -6.25L-76.5 -8.8M-76.5,-5.9L-76.5 -8.8M-62.75,-8.45L-69.65 -14.75M-64.75,-7.35L-65.2 -7.7M-79.75,-6.25L-81.75 -7.25M-62.95,-31.5L-79 -23.4L-81.3 -25.45M-9.65,-47.8L-8.5 -46.75M-23.1,-38.3L-25 -40.05L-26.3 -39.4M-38.8,-33.05L-40.1 -32.4L-40.2 -32.4L-45.05 -36.8M-9.75,-47.75L-11.05 -47.1M-23.55,-40.75L-24.95 -40.1L-23.05 -38.35M-32.4,-46.95L-32.45 -46.9M-24.95,-40.1L-25 -40.05L-29.85 -44.5M-34.7,-49L-34.4 -48.75M-34.3,-48.65L-33.7 -48.05" />
<path style="fill:none;stroke-width:1;stroke-linecap:round;stroke-linejoin:round;stroke-miterlimit:3;stroke:#BFBFBF;stroke-opacity:1" d="M75.45,-101.5L77.75 -99.4L78.1 -99.05M84.85,-92.85L88.3 -89.7L88.55 -89.5L91.8 -86.6M60.3,-93.8L62.85 -91.4M73.2,-103.55L58 -95.85M45,-86.05L47.65 -83.7M69.65,-85.2L75.25 -80.05L76.55 -78.85M75.8,-77.1L75.9 -77.15M41.25,-87.4L42.8 -88.15L44.2 -88.9L58 -95.85M29.4,-78.25L29.45 -78.2L32.05 -75.8M41.25,-87.4L27.25 -80.3L27.15 -80.3L11.95 -72.6L-1.85 -65.65L-3.25 -64.9M54.5,-77.5L61.35 -71.15M38.85,-69.55L40.75 -67.85L41.2 -67.4L42.25 -66.45L45.75 -63.35M15.75,-46.75L16.15 -46.35M14.25,-70.55L16.8 -68.15M29.2,-56.8L23.6 -61.95M38.85,-69.55L38.8 -69.6M29.2,-56.8L30.5 -55.6M0.55,-38.95L0.4 -39.1M8.45,-54.25L15.3 -47.9M-81.3,-25.45L-79.2 -26.5M-79.75,-27L-65.15 -33.95L-64.6 -34.2L-64.55 -34.2L-63.6 -34.65L-53.95 -39.3L-53.3 -39.6L-52.65 -39.95L-50 -41.2M-64.6,-34.25L-63.65 -34.7L-52.65 -39.95L-51.95 -40.3L-51.45 -40.55M-51.15,-40.7L-50.75 -40.9L-49.95 -41.3L-48.95 -41.8L-34.75 -49L-34.7 -49L-34.65 -49L-19.5 -56.7M-19.4,-56.75L-4.8 -64.15L-3.25 -64.9M-17.25,-54.65L-14.6 -52.2M-7.85,-46L-6.8 -45.05L-4.4 -42.85L-0.9 -39.75M-14.6,-52.25L-17.1 -54.7M-1.05,-62.8L1.6 -60.45M-47.65,-39.25L-45.1 -36.85M-29.85,-44.5L-29.85 -44.55L-32.45 -46.9L-32.5 -46.95M-51.95,-40.3L-51.15 -40.7L-51.45 -40.55M-31.4,-24.3L-32.7 -25.5L-38.3 -30.65M-46.6,-16.6L-53.45 -22.95M-49.85,-41.25L-53.3 -39.6M-65.15,-33.6L-63.45 -34.5L-53.95 -39.3M-65.15,-33.6L-79.2 -26.5M-79,-23.4L-76.5 -20.95M-60.3,-29.15L-62.95 -31.5M-23.05,-38.35L-18.75 -34.35L-16.15 -32.05M-19.65,-35.15L-18.75 -34.35M-19.65,-35.15L-23.1 -38.3M-29.85,-44.55L-32.4 -46.95" />
<path style="fill:none;stroke-width:0.5;stroke-linecap:round;stroke-linejoin:round;stroke-miterlimit:3;stroke:#4B2F12;stroke-opacity:1" d="M-76.5,91.9L-76.5 90.75M-76.5,86.75L-76.5 85.4L-76.5 85" />
<path style="fill:none;stroke-width:1;stroke-linecap:round;stroke-linejoin:round;stroke-miterlimit:3;stroke:#130F06;stroke-opacity:1" d="M79.75,13.65L79.75 13.6M79.75,8.9L79.75 6.9L79.75 -2.6M79.75,8.9L79.75 9.15L79.75 10.95L79.75 13.6" />
<path style="fill:none;stroke-width:1;stroke-linecap:round;stroke-linejoin:round;stroke-miterlimit:3;stroke:#332511;stroke-opacity:1" d="M79.75,13.6L-76.5 91.9" />
<path style="fill:none;stroke-width:1;stroke-linecap:round;stroke-linejoin:round;stroke-miterlimit:3;stroke:#C87B2F;stroke-opacity:1" d="M-75.65,86.95L-76.5 87.35" />
<path style="fill:none;stroke-width:1;stroke-linecap:round;stroke-linejoin:round;stroke-miterlimit:3;stroke:#B57A42;stroke-opacity:1" d="M-76.5,85.4L77.75 8.3" />
<path style="fill:none;stroke-width:1;stroke-linecap:round;stroke-linejoin:round;stroke-miterlimit:3;stroke:#B57A42;stroke-opacity:1" d="M79.75,9.15L-75.7 86.85" />
<path style="fill:#66422B;fill-opacity:1" d="M-99.7,-42.05L-99.7 -43.45L-86.1 -36.65L-86.05 -36.75L-85.35 -36.15L-82 -33.15L-99.7 -42.05M-81.75,-26.65L-81.75 -25.3L-99.7 -34.3L-99.7 -35.65L-81.75 -26.65M-81.75,-18.7L-81.75 -17.3L-99.7 -26.3L-99.7 -27.7L-81.75 -18.7M-99.7,-17.6L-99.7 -19.1L-81.75 -10.1L-81.75 -8.6L-99.7 -17.6M-81.75,-1.55L-81.75 -0.15L-99.7 -9.15L-99.7 -10.55L-81.75 -1.55" />
<path style="fill:#593A26;fill-opacity:1" d="M-86.1,-36.65L-99.7 -43.45L-99.7 -48.95L-86.05 -36.75L-86.1 -36.65M-99.7,-35.65L-99.7 -42.05L-82 -33.15L-81.75 -32.95L-81.75 -26.65L-99.7 -35.65M-99.7,-27.7L-99.7 -34.3L-81.75 -25.3L-81.75 -18.7L-99.7 -27.7M-81.75,-17.3L-81.75 -10.1L-99.7 -19.1L-99.7 -26.3L-81.75 -17.3M-99.7,-10.55L-99.7 -17.6L-81.75 -8.6L-81.75 -1.55L-99.7 -10.55M-81.75,-0.15L-81.75 6.4L-99.7 -2.6L-99.7 -9.15L-81.75 -0.15" />
<path style="fill:none;stroke-width:1;stroke-linecap:round;stroke-linejoin:round;stroke-miterlimit:3;stroke:#4A331C;stroke-opacity:1" d="M-86.05,-36.75L-99.7 -48.95L-99.7 -43.45L-86.1 -36.65M-85.35,-36.15L-82 -33.15L-81.75 -32.95L-81.75 -26.65L-81.75 -25.3L-81.75 -18.7L-81.75 -17.3L-81.75 -10.1L-81.75 -8.6L-81.75 -1.55L-81.75 -0.15L-81.75 6.4L-99.7 -2.6L-99.7 -9.15L-99.7 -10.55L-99.7 -17.6L-99.7 -19.1L-99.7 -26.3L-99.7 -27.7L-99.7 -34.3L-99.7 -35.65L-99.7 -42.05L-99.7 -43.45M-85.35,-36.15L-85.7 -36.45L-86.1 -36.65M-86.05,-36.75L-85.7 -36.45M-81.75,-26.65L-99.7 -35.65M-81.75,-10.1L-99.7 -19.1M-81.75,-1.55L-99.7 -10.55M-81.75,-18.7L-99.7 -27.7" />
<path style="fill:none;stroke-width:1;stroke-linecap:round;stroke-linejoin:round;stroke-miterlimit:3;stroke:#8F6234;stroke-opacity:1" d="M-99.7,-42.05L-82 -33.15M-99.7,-34.3L-81.75 -25.3M-99.7,-17.6L-81.75 -8.6M-99.7,-26.3L-81.75 -17.3" />
<path style="fill:none;stroke-width:1;stroke-linecap:round;stroke-linejoin:round;stroke-miterlimit:3;stroke:#895E32;stroke-opacity:1" d="M-81.75,-0.15L-99.7 -9.15" />
<path style="fill:#4A331C;fill-opacity:1" d="M-96.35,-46.5L-94.6 -44.95L-94.6 -0.3L-96.35 0.35L-96.35 -46.5" />
<path style="fill:#66422B;fill-opacity:1" d="M-96.35,0.35L-98.25 -0.6L-98.25 -48.2L-96.35 -46.5L-96.35 0.35" />
<path style="fill:none;stroke-width:1;stroke-linecap:round;stroke-linejoin:round;stroke-miterlimit:3;stroke:#4A331C;stroke-opacity:1" d="M-94.6,-0.3L-96.35 0.35L-98.25 -0.6L-98.25 -48.2L-96.35 -46.5L-94.6 -44.95" />
</g>
</svg>
