<?xml version="1.0" encoding="utf-8"?>
<svg version="1.1" id="Layer_1"
xmlns="http://www.w3.org/2000/svg"
xmlns:xlink="http://www.w3.org/1999/xlink"
xmlns:author="http://www.sothink.com"
width="8px" height="221px"
xml:space="preserve">
<g id="523" transform="matrix(1, 0, 0, 1, 3.4, 165.6)">
<path style="fill:#AD6825;fill-opacity:1" d="M3.45,-162.1L3.65 -161.65L3.45 -162.1M3.65,-34.9L3.65 -34.65L3.65 53.2L1.7 54.2L1.65 54.15L1.65 -165.35L2.7 -165.35L2.7 -157.9L2.8 -157.85L2.9 -157.8L3.65 -157.45L3.65 -157.2L3.65 -69.65L2.7 -69.15L2.7 -65.85L2.8 -65.8L2.9 -65.75L3.65 -65.4L3.65 -65.15L3.65 -39.15L3.35 -38.95L2.7 -38.6L2.7 -35.35L2.8 -35.3L2.9 -35.25L3.65 -34.9" />
<path style="fill:#CD892F;fill-opacity:1" d="M1.65,-165.35L1.65 54.15L-3.15 51.7L-3.15 -165.35L1.65 -165.35" />
<path style="fill:none;stroke-width:0.5;stroke-linecap:round;stroke-linejoin:round;stroke-miterlimit:3;stroke:#633612;stroke-opacity:1" d="M3.65,-34.65L2.9 -35.25M2.7,-35.35L2.7 -38.6M3.65,-65.15L2.9 -65.75M2.7,-65.85L2.7 -69.15L3.65 -69.65M3.65,-157.2L2.9 -157.8M2.7,-157.9L2.7 -165.35M3.35,-38.95L3.65 -39.1" />
<path style="fill:none;stroke-width:0.5;stroke-linecap:round;stroke-linejoin:round;stroke-miterlimit:3;stroke:#944B1D;stroke-opacity:1" d="M1.65,-165.35L1.65 54.15" />
<path style="fill:none;stroke-width:0.5;stroke-linecap:round;stroke-linejoin:round;stroke-miterlimit:3;stroke:#49250E;stroke-opacity:1" d="M3.65,53.2L3.65 -34.65M3.65,-39.1L3.65 -39.15L3.65 -65.15M3.65,-69.65L3.65 -157.2M-3.15,-165.35L-3.15 51.7" />
<path style="fill:none;stroke-width:0.5;stroke-linecap:round;stroke-linejoin:round;stroke-miterlimit:3;stroke:#49250E;stroke-opacity:1" d="M1.7,54.2L3.65 53.2M-3.15,51.7L1.65 54.15" />
</g>
</svg>
