<?xml version="1.0" encoding="utf-8"?>
<svg version="1.1" id="Layer_1"
xmlns="http://www.w3.org/2000/svg"
xmlns:xlink="http://www.w3.org/1999/xlink"
xmlns:author="http://www.sothink.com"
width="57px" height="77px"
xml:space="preserve">
<g id="49" transform="matrix(1, 0, 0, 1, 28.25, 38.1)">
<path style="fill:#496157;fill-opacity:1" d="M-0.05,-34.5L-0.05 -36.05L-0.05 -36.1L-0.1 -37.6L27.9 -23.6L25.8 -22.5L22.25 -20.7L18.65 -18.9L18.1 -18.65L11.85 -15.55L11.3 -15.25L7.4 -13.3L5.8 -12.5L3.95 -11.55L3.75 -11.45L1.1 -10.15L1.1 -10.1L0 -9.55L0 -15.25L0 -21.2L0 -26.35L0 -31.5L-0.05 -34.45L-0.05 -34.5" />
<path style="fill:#303F38;fill-opacity:1" d="M-0.1,-37.6L-0.05 -36.1L-0.05 -36.05L-0.05 -34.5L-0.1 -34.5L-0.05 -34.45L0 -31.5L0 -26.35L0 -21.2L0 -15.25L0 -9.55L-1.15 -10.15L-3.25 -11.2L-5.9 -12.55L-6.9 -13.05L-10.6 -14.9L-11.4 -15.3L-14.25 -16.8L-15.7 -17.5L-16.75 -18L-18.2 -18.75L-21.9 -20.6L-25.6 -22.5L-27.9 -23.65L-0.1 -37.6M-13.2,-27.9L-13.85 -27.6L-13.05 -27.8L-13.2 -27.9M-20.7,-25.75L-21.05 -25.55L-20.6 -25.7L-20.65 -25.75L-20.7 -25.75" />
<path style="fill:#3C291A;fill-opacity:1" d="M17,0.15L16.95 -18.05L18.1 -18.6L18.15 -18.65L18.25 -18.2L18.25 -18.1L18.25 -0.45L17.85 -0.25L17.7 -0.15L17.5 -0.1L17 0.15M-12.6,30.85L-11.9 26.1L-0.55 31.8L0 31.9L0 37.6L-12.7 31.2L-12.6 30.85M-14.15,24.9L-15 30.05L-27.75 23.65L-26.1 18.95L-14.15 24.9M-13.15,18.5L-13.75 22.3L-25.05 16.65L-25.25 16.55L-24 13.05L-13.15 18.5M-12.15,12.05L-12.7 15.9L-23 10.75L-23.15 10.7L-21.9 7.15L-12.15 12.05M-21.1,4.75L-19.85 1.25L-19.45 1.3L-19.2 1.3L-18.75 1.5L-17.15 2.3L-16.75 2.5L-12.3 4.75L-11.3 5.3L-11.05 5.4L-11.7 9.45L-20.95 4.85L-21.1 4.75M-18.2,-0.45L-18.2 -18L-18.2 -18.6L-18.2 -18.75L-16.75 -18L-16.8 0.25L-17.85 -0.3L-18.2 -0.45M-0.05,11.1L0 13.5L0 15.35L-9.4 10.65L-8.75 6.6L-0.45 10.75L0 10.85L0 11.1L-0.05 11.1M0,18L0 22.3L-10.45 17.1L-9.8 13.25Q-5.15 15.6 -0.55 17.9L0 18M0,24.95L0 29.25L-11.45 23.5L-10.85 19.7L-0.55 24.85L0 24.95" />
<path style="fill:#CFA88E;fill-opacity:0.34902" d="M1.2,-3.85L1.2 -9.6L1.15 -10.05L1.1 -10.1L1.1 -10.15L3.75 -11.45L3.95 -11.55L5.8 -12.5L7.4 -13.3L11.3 -15.25L11.85 -15.55L18.1 -18.65L18.1 -18.6L16.95 -18.05L15.75 -17.45L15.75 -16.75L15.75 -11.15L15.75 -4.8L15.75 0.8L11.35 3L5.8 5.8L1.2 8.15L1.2 2.5L1.2 -3.85M-15.7,0.8L-15.7 0.7L-15.7 -4.9L-15.7 -11.25L-15.7 -17.5L-14.25 -16.8L-11.4 -15.3L-10.6 -14.9L-6.9 -13.05L-5.9 -12.55L-3.25 -11.2L-1.15 -10.15L-1.15 -10.1L-1.3 -9.6L-1.3 -3.95L-1.3 2.4L-1.3 8.1L-5.9 5.8L-10.4 3.5L-10.35 3.55L-11.45 2.95L-15.7 0.8" />
<path style="fill:#BD8764;fill-opacity:1" d="M16.95,-18.05L17 0.15L15.75 0.8L15.75 -4.8L15.75 -11.15L15.75 -16.75L15.75 -17.45L16.95 -18.05M1.2,2.5L1.2 8.15L0 8.75L0 -9.5L0.05 -9.5L0.1 -9.5L1.15 -10.05L1.2 -9.6L1.2 -3.85L1.2 2.5M-15.7,-11.25L-15.7 -4.9L-15.7 0.7L-15.7 0.8L-15.85 0.7L-16.25 0.5L-16.8 0.25L-16.75 -18L-15.7 -17.5L-15.7 -11.25" />
<path style="fill:#373737;fill-opacity:1" d="M-1.15,-10.15L0 -9.55L1.1 -10.1L1.15 -10.05L0.1 -9.5L0.05 -9.5L0 -9.5L-1.15 -10.1L-1.15 -10.15" />
<path style="fill:#D1AC94;fill-opacity:1" d="M5.8,5.8L11.35 3L15.75 0.8L17 0.15L17.5 -0.1L17.7 -0.15L17.85 -0.25L19.95 0.8L19.55 1.15L19.15 1.35L18.65 1.6L18.55 1.65L18.4 1.7L11.05 5.45L8.8 6.55L0.45 10.75L0 10.85L0 8.75L1.2 8.15L5.8 5.8" />
<path style="fill:#936242;fill-opacity:1" d="M15.8,24.2L17.05 29.1L14.8 30.2L14.7 29.95L13.55 25.3L0.55 31.8L0 31.9L0 29.25L0.05 29.25L12.9 22.85L11.95 19.15L0.55 24.85L0 24.95L0 22.3L11.35 16.65L10.4 12.95Q5.5 15.45 0.55 17.9L0 18L0 15.35L9.8 10.5L8.8 6.55L11.05 5.45L12.05 9.35L20.9 4.95L21.05 4.9L21.9 7.25L21.85 7.25L12.65 11.85L13.6 15.55L23 10.85L23.1 10.8L23.15 10.8L23.95 13.15L14.25 18L15.2 21.7L25.1 16.75L25.2 16.7L26.05 19.05L15.8 24.2" />
<path style="fill:#6B4D2E;fill-opacity:1" d="M12.05,9.35L11.05 5.45L18.4 1.7L18.55 1.65L18.65 1.6L19.15 1.35L19.35 1.35L19.8 1.3L21.05 4.9L20.9 4.95L12.05 9.35M13.6,15.55L12.65 11.85L21.85 7.25L23.1 10.8L23 10.85L13.6 15.55M0,15.35L0 13.5L-0.05 11.1L0 11.1L0 10.85L0.45 10.75L8.8 6.55L9.8 10.5L0 15.35M0.55,17.9Q5.5 15.45 10.4 12.95L11.35 16.65L0 22.3L0 18L0.55 17.9" />
<path style="fill:#533A24;fill-opacity:1" d="M15.2,21.7L14.25 18L23.95 13.15L25.2 16.7L25.1 16.75L15.2 21.7M26.05,19.05L27.7 23.75L17.05 29.1L15.8 24.2L26.05 19.05M0,31.9L0.55 31.8L13.55 25.3L14.7 29.95L14.8 30.2L0 37.6L0 31.9M0.05,29.25L0 29.25L0 24.95L0.55 24.85L11.95 19.15L12.9 22.85L0.05 29.25" />
<path style="fill:#B87E58;fill-opacity:1" d="M-11.05,5.4L-11.3 5.3L-12.3 4.75L-16.75 2.5L-17.15 2.3L-18.75 1.5L-19.2 1.3L-20.4 0.7L-18.2 -0.45L-17.85 -0.3L-16.8 0.25L-16.25 0.5L-15.85 0.7L-15.7 0.8L-11.45 2.95L-10.35 3.55L-10.4 3.5L-5.9 5.8L-1.3 8.1L0 8.75L0 10.85L-0.45 10.75L-8.75 6.6L-11.05 5.4" />
<path style="fill:#65422C;fill-opacity:1" d="M-24,13.05L-23.15 10.7L-23 10.75L-12.7 15.9L-12.15 12.05L-21.9 7.15L-21.1 4.75L-20.95 4.85L-11.7 9.45L-11.05 5.4L-8.75 6.6L-9.4 10.65L0 15.35L0 18L-0.55 17.9Q-5.15 15.6 -9.8 13.25L-10.45 17.1L0 22.3L0 24.95L-0.55 24.85L-10.85 19.7L-11.45 23.5L0 29.25L0 31.9L-0.55 31.8L-11.9 26.1L-12.6 30.85L-12.7 31.2L-15 30.05L-14.15 24.9L-26.1 18.95L-25.25 16.55L-25.05 16.65L-13.75 22.3L-13.15 18.5L-24 13.05" />
<path style="fill:#6B462E;fill-opacity:1" d="M0,8.75L-1.3 8.1L-1.3 2.4L-1.3 -3.95L-1.3 -9.6L-1.15 -10.1L0 -9.5L0 8.75" />
<path style="fill:none;stroke-width:0.5;stroke-linecap:round;stroke-linejoin:round;stroke-miterlimit:3;stroke:#000000;stroke-opacity:1" d="M7.5,-32.35L7.55 -32.3M18.65,-18.9L22.25 -20.7L25.8 -22.5L27.9 -23.6L-0.1 -37.6M18.65,-18.9L18.1 -18.65M3.95,-11.55L5.8 -12.5L7.4 -13.3L11.3 -15.25L11.85 -15.55L18.1 -18.65M-18.2,-18.75L-21.9 -20.6M3.75,-11.45L1.1 -10.15M0.05,-9.5L0.1 -9.5M1.1,-10.1L0 -9.55L0 -9.5M0,8.75L0 -9.5M0,-9.55L-1.15 -10.15L-3.25 -11.2L-5.9 -12.55L-6.9 -13.05M0,11.1L0 10.85M0,15.35L0 13.5M0,11.1L0 13.5M0,8.75L0 10.85M-27.9,-23.65L-25.6 -22.5L-21.9 -20.6M-18.2,-18.75L-16.75 -18L-15.7 -17.5L-14.25 -16.8L-11.4 -15.3L-10.6 -14.9L-6.9 -13.05M-27.9,-23.65L-0.1 -37.6" />
<path style="fill:none;stroke-width:1;stroke-linecap:round;stroke-linejoin:round;stroke-miterlimit:3;stroke:#34433D;stroke-opacity:1" d="M1.5,-28L1.95 -27.3L2.2 -26.7M4.5,-28.55L3.35 -29.1M4.5,-28.55L4.7 -28.65M9.05,-26.7L10.05 -26.35L10.2 -26.25L10.75 -25.95M16.55,-23.5L15.1 -23.9M16.55,-23.5L16.95 -23.7M12.8,-21.6L11.95 -21.95M12.8,-21.6L13.05 -21.75M6.5,-24.45L7 -23.9M9.35,-19.9L9.05 -20.35M2.45,-23.6L2.7 -22.55L2.85 -21.95M6.5,-24.45L6 -25.1M3.25,-16.25L3.15 -16.8L2.95 -17.85M6.25,-18.35L6 -19.4M6.25,-18.35L6.5 -17.45" />
<path style="fill:none;stroke-width:1;stroke-linecap:round;stroke-linejoin:round;stroke-miterlimit:3;stroke:#587468;stroke-opacity:1" d="M0,-26.35L1.95 -27.3L4.5 -28.55M4.7,-28.65L6.6 -29.6M10.2,-26.25L13.2 -27.75M15.3,-22.85L16.55 -23.5M16.95,-23.7L17.6 -24M11.7,-21.05L12.8 -21.6M8.6,-19.5L9.35 -19.9L10 -20.2M2.7,-22.55L6.5 -24.45M2.7,-22.55L0 -21.2M0,-15.25L0.9 -15.7M3.15,-16.8L3.85 -17.15M3.15,-16.8L2.3 -16.35M5.6,-18L6.25 -18.35L7.05 -18.75M19.95,-25.2L20.8 -25.6M10.2,-26.25L6.5 -24.45" />
<path style="fill:none;stroke-width:0.5;stroke-linecap:round;stroke-linejoin:round;stroke-miterlimit:3;stroke:#25302B;stroke-opacity:1" d="M0,-31.5L0 -26.35L0 -21.2L0 -15.25M0,-9.55L0 -15.25" />
<path style="fill:none;stroke-width:1;stroke-linecap:round;stroke-linejoin:round;stroke-miterlimit:3;stroke:#373737;stroke-opacity:1" d="M20.8,-25.6L27.9 -23.6M-0.1,-37.6L-0.05 -36.1M20.8,-25.6L13.2 -27.75L6.6 -29.6L0 -31.5L-6.55 -29.65M19.8,1.3L21.05 4.9M21.9,7.25L23.15 10.8M23.95,13.15L25.2 16.7M26.05,19.05L27.7 23.75L17.05 29.1M14.8,30.2L0 37.6L-12.7 31.2M-15,30.05L-27.75 23.65L-26.1 18.95M-25.25,16.55L-24 13.05M-23.15,10.7L-21.9 7.15M-21.1,4.75L-19.85 1.25M-0.05,-34.5L-0.05 -34.45L0 -31.5M-13.05,-27.8L-13.85 -27.6L-20.6 -25.7M23.1,10.8L21.85 7.25M-0.05,-34.5L-0.05 -36.05L-0.05 -36.1M-21.05,-25.55L-20.6 -25.7M-13.05,-27.8L-6.55 -29.65" />
<path style="fill:none;stroke-width:1.25;stroke-linecap:round;stroke-linejoin:round;stroke-miterlimit:3;stroke:#34433D;stroke-opacity:1" d="M18.25,-18.2L18.65 -18.9M11.85,-15.55L11.85 -14.8M15.75,-17.45L15.75 -16.75M7.4,-13.3L7.4 -12.5M3.95,-11.55L3.75 -11.45M25.8,-22.5L25.8 -21.95M22.25,-20.7L22.25 -20" />
<path style="fill:none;stroke-width:1.25;stroke-linecap:round;stroke-linejoin:round;stroke-miterlimit:3;stroke:#787878;stroke-opacity:0.2" d="M1.2,-3.85L5.8 -6.15L5.8 -12.5M15.75,-11.15L11.3 -8.95L11.35 -2.6L15.75 -4.8M1.2,2.5L5.8 0.2L5.8 -6.15L11.3 -8.95L11.3 -15.25M11.35,3L11.35 -2.6L5.8 0.2L5.8 5.8M-15.7,-4.9L-11.45 -2.7L-11.4 -9.05L-15.7 -11.25M-5.9,-12.55L-5.9 -6.25L-1.3 -3.95M-11.45,2.95L-11.45 -2.7L-5.9 0.1L-5.9 -6.25L-11.4 -9.05L-11.4 -15.3M-1.3,2.4L-5.9 0.1L-5.9 5.8" />
<path style="fill:none;stroke-width:1;stroke-linecap:round;stroke-linejoin:round;stroke-miterlimit:3;stroke:#67877A;stroke-opacity:1" d="M7.55,-32.3L20.8 -25.6M-0.05,-36.1Q3.75 -34.2 7.5 -32.35M13.2,-27.75L-0.05 -34.45" />
<path style="fill:none;stroke-width:1;stroke-linecap:round;stroke-linejoin:round;stroke-miterlimit:3;stroke:#422E1C;stroke-opacity:1" d="M20.9,4.95L21.05 4.9L21.9 7.25L21.85 7.25L12.65 11.85L13.6 15.55M23,10.85L23.1 10.8L23.15 10.8L23.95 13.15L14.25 18L15.2 21.7M25.1,16.75L25.2 16.7L26.05 19.05M15.8,24.2L17.05 29.1L14.8 30.2L14.7 29.95M-12.7,31.2L-15 30.05M-26.1,18.95L-25.25 16.55M-24,13.05L-23.15 10.7M-21.9,7.15L-21.1 4.75M11.05,5.45L12.05 9.35M0.55,17.9L0 18L0 15.35M0.55,24.85L0 24.95L0 22.3M0.55,31.8L0 31.9L0 29.25L0.05 29.25M-0.55,24.85L0 24.95M-0.55,17.9L0 18M-11.05,5.4L-11.7 9.45M-20.95,4.85L-21.1 4.75M-13.15,18.5L-13.75 22.3M-25.05,16.65L-25.25 16.55M-12.15,12.05L-12.7 15.9M-23,10.75L-23.15 10.7M-14.15,24.9L-15 30.05M-0.55,31.8L0 31.9M-12.7,31.2L-12.6 30.85" />
<path style="fill:none;stroke-width:1;stroke-linecap:round;stroke-linejoin:round;stroke-miterlimit:3;stroke:#1E130D;stroke-opacity:1" d="M-8.75,6.6L-9.4 10.65M9.8,10.5L8.8 6.55M11.35,16.65L10.4 12.95Q5.5 15.45 0.55 17.9M12.9,22.85L11.95 19.15L0.55 24.85M14.7,29.95L13.55 25.3L0.55 31.8M-11.45,23.5L-10.85 19.7L-0.55 24.85M-10.45,17.1L-9.8 13.25Q-5.15 15.6 -0.55 17.9M26.05,19.05L15.8 24.2M-12.6,30.85L-11.9 26.1L-0.55 31.8M-26.1,18.95L-14.15 24.9M-21.9,7.15L-12.15 12.05M-24,13.05L-13.15 18.5" />
<path style="fill:none;stroke-width:1;stroke-linecap:round;stroke-linejoin:round;stroke-miterlimit:3;stroke:#BF956A;stroke-opacity:1" d="M13.6,15.55L23 10.85M12.05,9.35L20.9 4.95M0,22.3L11.35 16.65M0,15.35L9.8 10.5M15.2,21.7L25.1 16.75M0.05,29.25L12.9 22.85" />
<path style="fill:none;stroke-width:1;stroke-linecap:round;stroke-linejoin:round;stroke-miterlimit:3;stroke:#000000;stroke-opacity:1" d="M17.85,-0.25L19.95 0.8M-13.85,-27.6L-13.2 -27.9L-13.05 -27.8M-0.05,-34.45L-0.1 -34.5L-0.05 -34.5M-20.6,-25.7L-20.7 -25.75L-21.05 -25.55M-20.7,-25.75L-20.65 -25.75" />
<path style="fill:none;stroke-width:1;stroke-linecap:round;stroke-linejoin:round;stroke-miterlimit:3;stroke:#3F5247;stroke-opacity:1" d="M0,-26.35L-2 -27.35M0,-15.25L-2.7 -16.6L-6.3 -18.4M-6.55,-29.65L-4.35 -28.55L-2 -27.35M0,-21.2L-3.75 -23.1M-3.8,-23.1L-6.95 -24.7M-7.2,-24.85L-9.95 -26.25M-10.2,-26.35L-13.05 -27.8M-20.6,-25.7L-16.9 -23.85M-16.8,-23.8L-13.95 -22.35M-13.2,-27.9L-0.1 -34.5M-0.05,-36.05L-20.65 -25.75M-13.75,-22.25L-9.95 -20.3L-6.3 -18.45" />
<path style="fill:none;stroke-width:1.25;stroke-linecap:round;stroke-linejoin:round;stroke-miterlimit:3;stroke:#28352F;stroke-opacity:1" d="M-2,-27.35L-2.3 -26.95M-2.3,-17.5L-2.7 -16.6L-2.9 -16.1M-4.35,-28.55L-3.85 -28.9M-3.75,-23.1L-3.8 -23.1M-6.95,-24.7L-7.2 -24.85M-9.95,-26.25L-10.2 -26.35M-16.9,-23.85L-16.8 -23.8M-13.95,-22.35L-13.75 -22.25L-13 -22.65M-9.95,-26.25L-9.65 -26.4L-9.15 -26.6M-2,-27.35Q-1.85 -27.7 -1.85 -28.05M-4.35,-28.55L-4.9 -28.25M-3.75,-23.1L-3.35 -23.7M-9.95,-20.3L-9.6 -20.85M-6.3,-18.45L-6.3 -18.4L-6 -19.1M-16.9,-23.85L-17.9 -23.15M-9.95,-20.3L-10.55 -19.7" />
<path style="fill:none;stroke-width:1.25;stroke-linecap:round;stroke-linejoin:round;stroke-miterlimit:3;stroke:#29362F;stroke-opacity:1" d="M-18.2,-18L-18.2 -18.6M-21.9,-20.6L-21.9 -20M-25.6,-22.5L-25.65 -21.65M-6.9,-13.05L-6.95 -12.35M-14.25,-16.8L-14.35 -15.85M-10.6,-14.9L-10.65 -14.35M-3.25,-11.2L-3.25 -10.45" />
<path style="fill:none;stroke-width:0.5;stroke-linecap:round;stroke-linejoin:round;stroke-miterlimit:3;stroke:#373737;stroke-opacity:1" d="M-21.05,-25.55L-27.9 -23.65" />
<path style="fill:none;stroke-width:1;stroke-linecap:round;stroke-linejoin:round;stroke-miterlimit:3;stroke:#85593B;stroke-opacity:1" d="M-9.4,10.65L0 15.35M0,29.25L-11.45 23.5M-11.7,9.45L-20.95 4.85M-13.75,22.3L-25.05 16.65M-12.7,15.9L-23 10.75" />
<path style="fill:none;stroke-width:1;stroke-linecap:round;stroke-linejoin:round;stroke-miterlimit:3;stroke:#9E6947;stroke-opacity:1" d="M0,22.3L-10.45 17.1" />
</g>
</svg>
