<?xml version="1.0" encoding="utf-8"?>
<svg version="1.1" id="Layer_1"
xmlns="http://www.w3.org/2000/svg"
xmlns:xlink="http://www.w3.org/1999/xlink"
xmlns:author="http://www.sothink.com"
width="2387px" height="1903px"
xml:space="preserve">
<g id="156" transform="matrix(1, 0, 0, 1, 1429, 883.9)">
<linearGradient
id="LinearGradID_542" gradientUnits="userSpaceOnUse" gradientTransform="matrix(0.171371, 0.379852, -1.58043, 0.713104, -184.55, 190.05)" spreadMethod ="pad" x1="-819.2" y1="0" x2="819.2" y2="0" >
<stop  offset="0" style="stop-color:#FFFFFF;stop-opacity:1" />
<stop  offset="0.12549" style="stop-color:#F7E6A2;stop-opacity:1" />
<stop  offset="1" style="stop-color:#B49310;stop-opacity:1" />
</linearGradient>
<path style="fill:url(#LinearGradID_542) " d="M939.75,844.55L-1326.4 844.55L-1326.4 -883.9L939.75 -883.9L939.75 844.55" />
<linearGradient
id="LinearGradID_543" gradientUnits="userSpaceOnUse" gradientTransform="matrix(-1.38312, 0, 0, -1.05493, -193.35, -19.7)" spreadMethod ="pad" x1="-819.2" y1="0" x2="819.2" y2="0" >
<stop  offset="0" style="stop-color:#FFFFFF;stop-opacity:0.2" />
<stop  offset="0.12549" style="stop-color:#EBC672;stop-opacity:0.576471" />
<stop  offset="0.772549" style="stop-color:#F2DF9D;stop-opacity:0.576471" />
<stop  offset="1" style="stop-color:#563E07;stop-opacity:0.0235294" />
</linearGradient>
<path style="fill:url(#LinearGradID_543) " d="M939.75,844.55L-1326.4 844.55L-1326.4 -883.9L939.75 -883.9L939.75 844.55" />
<linearGradient
id="LinearGradID_544" gradientUnits="userSpaceOnUse" gradientTransform="matrix(0.231537, 0.587341, -1.91534, 0.755066, -414.4, -628.15)" spreadMethod ="pad" x1="-819.2" y1="0" x2="819.2" y2="0" >
<stop  offset="0" style="stop-color:#1772D6;stop-opacity:1" />
<stop  offset="0.631373" style="stop-color:#3ED0F4;stop-opacity:1" />
<stop  offset="0.827451" style="stop-color:#46ECCB;stop-opacity:1" />
<stop  offset="1" style="stop-color:#46EDC9;stop-opacity:0.184314" />
</linearGradient>
<path style="fill:url(#LinearGradID_544) " d="M955.8,-883.9L955.8 -546.45L953.85 -545.95Q581.6 -470.1 67.05 -294Q16.4 -274 -18.75 -259.65Q-146.9 -207.3 -262.9 -154.2Q-400.8 -91.1 -548.5 -14.85Q-664.3 45.05 -811.65 108.7Q-896.45 145.35 -1057.95 212.2Q-1198.4 271.5 -1289.55 317.3L-1316.85 331.3L-1316.85 -883.9L955.8 -883.9" />
<path style="fill:none;stroke-width:6.5;stroke-linecap:round;stroke-linejoin:round;stroke-miterlimit:3;stroke:#FFFFFF;stroke-opacity:0.533333" d="M845.25,-522.4Q837.5 -518.1 832.5 -517.85L820.4 -517.1Q813.3 -516.65 807.5 -515.15L794.4 -511.35Q787.15 -509.05 781.3 -505.95Q775.5 -502.8 768.25 -503.15Q761.05 -503.45 754.05 -501.15Q747.1 -498.8 743.85 -498.05M737.3,-496.4Q734 -494.9 726.05 -493.35Q718.15 -491.8 712.5 -489.95Q706.85 -488.1 699.6 -486.95L687.55 -484.65L674.95 -482.1Q667.1 -480.65 661.2 -479Q655.3 -477.3 648.9 -473.5M953.85,-545.95Q945 -545.95 939.7 -543.7L928.75 -538.9Q923.15 -536.3 916.35 -536.65Q909.55 -537 903.05 -535.45Q896.6 -533.85 890.2 -533.05Q883.8 -532.2 878.2 -529.65Q872.6 -527.05 865.4 -526.3Q858.2 -525.55 851.85 -523.9M404.05,-403.2Q399.35 -400.65 393.55 -400.2Q387.8 -399.7 379.85 -396.75L366.55 -391.55Q361.2 -389.35 354.6 -387.3Q348.05 -385.25 341.55 -382.3Q335.05 -379.3 330 -379.6Q325 -379.9 318.2 -377.1Q311.4 -374.25 304.6 -372.3M510.45,-434.85Q506.7 -435.85 499.2 -432.3L485.45 -425.6Q479.2 -422.45 474.5 -422.2L462.3 -420.7Q454.8 -419.4 447.6 -417Q440.4 -414.6 434.65 -411.8Q428.9 -408.95 422.35 -408.45Q415.8 -407.95 410.55 -405.2M642.4,-471.75L629.35 -470Q623.65 -469.45 617.65 -467.4L603.7 -462.35Q595.75 -459.4 592 -456.55Q588.25 -453.7 580.65 -453.1Q573.1 -452.45 566.85 -450.9L552.95 -447.25L540.9 -443.65Q536.45 -442.15 529.9 -441.3Q523.4 -440.45 516.95 -436.75M298.2,-370.3Q293.65 -366.25 287.9 -365.3Q282.2 -364.35 274.7 -361.2Q267.2 -358.05 262.05 -357.05Q256.9 -356.05 250.1 -354.15Q243.35 -352.2 235.8 -349.05Q228.3 -345.9 224.55 -344.6Q220.85 -343.3 212.35 -342.45Q203.9 -341.6 199.15 -338.3M192.75,-336.2Q186.55 -331.55 180.35 -329.35Q174.15 -327.1 169.1 -327Q164.1 -326.9 157.6 -323.6Q151.15 -320.25 144.6 -317.7Q138.1 -315.15 131.5 -313.45Q124.95 -311.75 118.75 -309.55Q112.6 -307.35 106.9 -306.45L93.2 -304Q85.2 -302.45 81.95 -299.05M75.55,-296.9Q69.4 -294.6 62.1 -292.2Q54.85 -289.8 50.1 -288.7Q45.35 -287.6 38.5 -284.7Q31.65 -281.75 25.6 -278.5Q19.6 -275.25 14.8 -272.35Q10.05 -269.45 3.3 -268.55M-547,-15.65Q-552.9 -12.55 -558.75 -9.6Q-564.6 -6.6 -569.45 -4.65L-581.1 -0.15Q-587.9 2.4 -594.05 6.7Q-600.15 11.05 -605.8 13.85L-617.45 19.6L-630.2 25.85Q-636.85 29.15 -642.3 31.5Q-647.75 33.9 -652.7 38.1Q-657.6 42.3 -664.25 42.3M-459.75,-59.95Q-463.6 -58.3 -469.7 -54.6Q-475.75 -50.9 -483.2 -47.75Q-490.65 -44.6 -494.75 -41.7Q-498.8 -38.8 -504.45 -35.7L-515.65 -29.45Q-521.15 -26.25 -528.1 -24Q-535 -21.7 -540.9 -18.8M-271.55,-150.2Q-278.3 -147.05 -283.85 -143.35Q-289.4 -139.65 -293.85 -137.85L-305.65 -132.85Q-312.95 -129.6 -319.4 -128.1Q-325.8 -126.55 -331.3 -121.95Q-336.75 -117.35 -341.9 -115.85Q-347.05 -114.35 -354.1 -111.55M-360.2,-108.65Q-368 -105.25 -371.85 -102.3Q-375.7 -99.35 -382.7 -97.95Q-389.7 -96.5 -395 -92.65Q-400.25 -88.8 -407.75 -86.8Q-415.25 -84.75 -420.1 -80.65Q-424.95 -76.55 -429.75 -74Q-434.55 -71.4 -442.25 -68.65Q-449.95 -65.85 -453.75 -62.95M-81.2,-233.75Q-87.15 -229.05 -93.65 -227.75Q-100.1 -226.4 -105.15 -224.6Q-110.15 -222.75 -116.8 -219.4Q-123.45 -216 -129.6 -213.15Q-135.75 -210.3 -140.75 -208.2Q-145.75 -206.05 -150.8 -202.2Q-155.85 -198.3 -162.85 -196.85Q-169.85 -195.4 -176.5 -192.8M-3,-266.05Q-11.4 -263.55 -17 -261.05L-27.85 -256.2Q-33.1 -253.85 -39.4 -252.1Q-45.65 -250.35 -52.65 -247.15Q-59.65 -243.9 -63.55 -241.1Q-67.45 -238.25 -75 -236.35M-182.65,-190.1Q-186.75 -190.6 -194.4 -185.9Q-202 -181.2 -207.8 -179.1Q-213.6 -176.95 -219.15 -174.3Q-224.7 -171.65 -231.5 -169L-242.7 -164.45Q-247.1 -162.5 -252.9 -160.65Q-258.65 -158.8 -265.4 -153M-670.35,45.2L-683.75 49.45Q-688.45 51 -694.25 53.55Q-700.05 56.15 -706 60.25Q-711.95 64.35 -717.7 66.95L-729.2 72.15L-741.3 77.75M-747.45,80.55Q-753.35 83.2 -759.2 86.85Q-765 90.5 -770.65 92.1Q-776.25 93.7 -783.05 97.3Q-789.8 100.9 -797.05 101.35Q-804.3 101.85 -808.7 105.1Q-813.05 108.4 -819.6 111.45Q-826.1 114.55 -831.45 117.2Q-836.75 119.85 -842.75 122.4L-855.45 127.6L-867.9 132.75M-874.15,135.4Q-881.9 135.9 -887.5 139Q-893.1 142.1 -899.3 144.65Q-905.45 147.25 -909.7 150.25Q-913.9 153.3 -919.65 156.15Q-925.4 159.05 -932.3 159.65Q-939.2 160.25 -945.05 164.4Q-950.9 168.6 -958.7 170.95M-964.95,173.55Q-971 179.05 -978 180.05Q-985 181.05 -989.55 183.55Q-994.05 186.05 -1000.05 187.8L-1012.05 191.3Q-1018.05 193 -1024 196Q-1029.95 199.05 -1035.65 204.15Q-1041.35 209.25 -1049.5 209.95Q-1057.65 210.7 -1062.2 213.5Q-1066.7 216.35 -1073.05 218.6M-1079.25,221.2Q-1085.2 224.4 -1090.7 227.2Q-1096.2 230 -1102.55 232.6L-1114.65 237.55L-1126.55 242.3L-1138.4 247.15Q-1144.1 249.6 -1149.25 251.15Q-1154.4 252.75 -1160.35 256.3Q-1166.25 259.9 -1173 262.25Q-1179.7 264.6 -1184.7 269Q-1189.65 273.4 -1197.25 273.2M-1203.35,276Q-1211.25 278.75 -1215.9 281.7Q-1220.55 284.7 -1227.75 286.75Q-1234.9 288.8 -1239.65 291.7Q-1244.35 294.6 -1250.35 297.4Q-1256.35 300.2 -1261.2 303.3Q-1266 306.45 -1272.8 310.1Q-1279.55 313.75 -1285.55 315.6Q-1291.55 317.45 -1297 321.35Q-1302.45 325.3 -1308.2 326.8M-1377.15,363.95Q-1382.75 367.2 -1388.4 370.75L-1398.25 377.1Q-1402.5 379.9 -1411 383.3Q-1419.45 386.75 -1419.25 387.4Q-1419.05 388.05 -1425.75 392.45M-1314.2,329.9Q-1318.2 332.75 -1325.3 335.75Q-1332.35 338.8 -1336.75 342.6Q-1341.1 346.45 -1348.8 349Q-1356.5 351.55 -1361.05 353.35Q-1365.6 355.2 -1371.25 360.65" />
<linearGradient
id="LinearGradID_545" gradientUnits="userSpaceOnUse" gradientTransform="matrix(-0.599991, -1.03923, 1.03923, -0.599991, -701.85, 1070.5)" spreadMethod ="pad" x1="-819.2" y1="0" x2="819.2" y2="0" >
<stop  offset="0.00784314" style="stop-color:#F7E5A2;stop-opacity:0" />
<stop  offset="1" style="stop-color:#4E3F07;stop-opacity:1" />
</linearGradient>
<path style="fill:url(#LinearGradID_545) " d="M953.85,-160.05L953.85 1018.65L-1330.3 1018.65L-1330.3 866.5Q-1217.55 807.8 -1058.85 727.1L-752.55 571.35Q-516.7 442.4 -219.45 306.7Q96.55 162.4 451.8 23.8Q731.2 -85.15 953.85 -160.05" />
</g>
</svg>
