<?xml version="1.0" encoding="utf-8"?>
<svg version="1.1" id="Layer_1"
xmlns="http://www.w3.org/2000/svg"
xmlns:xlink="http://www.w3.org/1999/xlink"
xmlns:author="http://www.sothink.com"
width="58px" height="71px"
xml:space="preserve">
<g id="9" transform="matrix(1, 0, 0, 1, 26.4, 65.8)">
<linearGradient
id="LinearGradID_201" gradientUnits="userSpaceOnUse" gradientTransform="matrix(0.15065, 0, 0, 0.0547485, 137.4, 329.55)" spreadMethod ="pad" x1="-819.2" y1="0" x2="819.2" y2="0" >
<stop  offset="0.0823529" style="stop-color:#804000;stop-opacity:1" />
<stop  offset="0.486275" style="stop-color:#8A6248;stop-opacity:1" />
<stop  offset="0.937255" style="stop-color:#9F3502;stop-opacity:0.780392" />
</linearGradient>
<path style="fill:url(#LinearGradID_201) " d="M-4.6,-47.65L-4.6 -62.6L-4.5 -62.6L1 -65.3L30.9 -50.1L30.9 -44.6L30.9 -29.6L-4.6 -47.65" />
<linearGradient
id="LinearGradID_202" gradientUnits="userSpaceOnUse" gradientTransform="matrix(0.200592, 0.0141449, -0.00384521, 0.0545959, 80.45, 482.75)" spreadMethod ="pad" x1="-819.2" y1="0" x2="819.2" y2="0" >
<stop  offset="0.0823529" style="stop-color:#804000;stop-opacity:1" />
<stop  offset="0.486275" style="stop-color:#8A6248;stop-opacity:1" />
<stop  offset="0.937255" style="stop-color:#9F3502;stop-opacity:0.780392" />
</linearGradient>
<path style="fill:url(#LinearGradID_202) " d="M30.9,-29.6L30.9 -29.3L30.8 -29.15L30.15 -28.9L30.15 -28.8L28.3 -26.9L26.8 -26.3L26.9 -25.95L25.9 -24.3L25.8 -23.9Q23.4 -22.95 22.05 -20.8L21.05 -20.3L20.9 -19.9L20.5 -19.7L20.05 -19.15L18.65 -18.65L17.8 -17.65L17.65 -17.55L17.55 -17.55L17.4 -17.55L17.25 -17.5L16.15 -16.8L16.4 -16.9L16.25 -16.8L16.15 -16.8L16.05 -16.8L15.75 -16.3L15.3 -16.3L15.15 -16.4L15.15 -15.5L-25.9 -36.75L-4.65 -47.55L-4.6 -47.65L30.9 -29.6" />
<linearGradient
id="LinearGradID_203" gradientUnits="userSpaceOnUse" gradientTransform="matrix(0.348709, 0, 0, 0.0547485, 42.45, 274.05)" spreadMethod ="pad" x1="-819.2" y1="0" x2="819.2" y2="0" >
<stop  offset="0.0823529" style="stop-color:#804000;stop-opacity:1" />
<stop  offset="0.486275" style="stop-color:#8A6248;stop-opacity:1" />
<stop  offset="0.937255" style="stop-color:#9F3502;stop-opacity:0.780392" />
</linearGradient>
<path style="fill:url(#LinearGradID_203) " d="M15.15,-15.5Q15.05 -13.3 15.3 -11.3L15.35 -10.65L15.4 -10.65L15.65 -10.65L15.95 -10.95L30.9 -3.2L30.9 4.05L-9.85 -16.95L-9.85 -24.45L-9.85 -24.5L-25.9 -32.8L-25.9 -36.75L15.15 -15.5" />
<path style="fill:none;stroke-width:1;stroke-linecap:round;stroke-linejoin:round;stroke-miterlimit:3;stroke:#333333;stroke-opacity:1" d="M-4.5,-62.6L1 -65.3L30.9 -50.1M30.9,4.05L-9.85 -16.95L-9.85 -24.45L-9.85 -24.5L-25.9 -32.8L-25.9 -36.75L-4.65 -47.55M30.9,-29.6L-4.6 -47.65L-4.6 -62.6M-4.5,-62.6L30.9 -44.6M-9.85,-24.45L-9.55 -24.35L-9.85 -24.5M-25.9,-36.75L15.15 -15.5M15.3,-11.3L-3 -20.75" />
<path style="fill:none;stroke-width:1;stroke-linecap:round;stroke-linejoin:round;stroke-miterlimit:3;stroke:#333333;stroke-opacity:1" d="M-3,-20.75L-9.85 -24.45" />
</g>
</svg>
