<?xml version="1.0" encoding="utf-8"?>
<svg version="1.1" id="Layer_1"
xmlns="http://www.w3.org/2000/svg"
xmlns:xlink="http://www.w3.org/1999/xlink"
xmlns:author="http://www.sothink.com"
width="234px" height="161px"
xml:space="preserve">
<g id="25" transform="matrix(1, 0, 0, 1, 88.75, 381.25)">
<path style="fill:#FF0000;fill-opacity:1" d="M-11.3,-336.95L-11.35 -337L-10.9 -336.75L-11.3 -336.95M-15.2,-323.9L-15.55 -324.1L-15.15 -324.05L-15.2 -323.9M-24.3,-327.3L-23.9 -328.15L-23.85 -327.75L-24.3 -327.3" />
<linearGradient
id="LinearGradID_231" gradientUnits="userSpaceOnUse" gradientTransform="matrix(0.325256, 0.0141602, -0.00247192, 0.0565338, -185.45, -348.35)" spreadMethod ="pad" x1="-819.2" y1="0" x2="819.2" y2="0" >
<stop  offset="0.0823529" style="stop-color:#804000;stop-opacity:1" />
<stop  offset="0.623529" style="stop-color:#AA8055;stop-opacity:1" />
<stop  offset="0.901961" style="stop-color:#AC8359;stop-opacity:1" />
<stop  offset="1" style="stop-color:#C25801;stop-opacity:0.780392" />
</linearGradient>
<path style="fill:url(#LinearGradID_231) " d="M-16.3,-339.55L-16.4 -339.6L-22.05 -342.4L-23.8 -343.2L-23.85 -343.2L-23.9 -343.25Q-24.55 -345.95 -22.35 -348.55L5.05 -334.45Q1.8 -332.7 2 -330.1L-5.55 -333.95L-10.9 -336.75L-11.35 -337L-11.3 -336.95L-16.3 -339.6L-16.3 -339.55M6.8,-327.6Q6.9 -330.55 10.2 -331.85L35.1 -319.05L35.15 -319L35.45 -318.85Q32 -317.35 32.25 -314.4L6.8 -327.6M89,-291.3L88.95 -291.25Q86.3 -289.5 85.75 -286.8L85.7 -286.8L85.7 -286.65L85.65 -286.65L85.6 -286.7L85.5 -286.75L85.3 -286.95L85.35 -286.95L85.3 -287L85.25 -287.05L85.1 -287.1L37.9 -311.45Q37.95 -314.45 40.65 -316.2L86.6 -292.55L89 -291.3M117.1,-276.8L115.55 -275.15Q114.55 -273.45 115.2 -271.35L114.9 -271.5L114.65 -271.6L99.9 -279.25Q98 -280.9 96.05 -281.45L95.5 -281.55L95.05 -281.95L93.9 -282.55L93.6 -282.55L92.85 -282.9L92.85 -283.05Q93.1 -286.2 95.7 -287.8L95.75 -287.85L98.3 -286.5L117.1 -276.8M124.5,-273L144.3 -262.8Q139.5 -264.15 139.7 -258.7L139.7 -258.6L132.35 -262.4L123.15 -267.6L122.8 -267.85Q122.45 -270 123.65 -271.9L124.5 -273M-28.95,-345.95L-28.95 -345.6L-29.75 -346.1L-58.25 -361.35L-58.3 -361.4Q-57.45 -363.65 -55.05 -365.4L-27.45 -351.2L-27.2 -351L-27.1 -350.95Q-28.9 -348.8 -28.95 -345.95M-88.25,-376.95L-88.2 -377.15Q-88.4 -379.05 -85.15 -380.75L-59.8 -367.85Q-62.05 -366.1 -63.2 -363.9L-68.3 -366.55L-88.25 -376.95" />
<linearGradient
id="LinearGradID_232" gradientUnits="userSpaceOnUse" gradientTransform="matrix(0.15065, 0, 0, 0.0547485, 55.5, 319.2)" spreadMethod ="pad" x1="-819.2" y1="0" x2="819.2" y2="0" >
<stop  offset="0.0823529" style="stop-color:#804000;stop-opacity:1" />
<stop  offset="0.486275" style="stop-color:#8A6248;stop-opacity:1" />
<stop  offset="0.937255" style="stop-color:#9F3502;stop-opacity:0.780392" />
</linearGradient>
<path style="fill:url(#LinearGradID_232) " d="M144.3,-262.8Q144 -257.85 139.7 -258.7Q139.5 -264.15 144.3 -262.8" />
<linearGradient
id="LinearGradID_233" gradientUnits="userSpaceOnUse" gradientTransform="matrix(0.0327148, 0.00141907, -0.000900269, 0.0206451, -43.15, -344.75)" spreadMethod ="pad" x1="-819.2" y1="0" x2="819.2" y2="0" >
<stop  offset="0.498039" style="stop-color:#C70101;stop-opacity:1" />
<stop  offset="1" style="stop-color:#FF9595;stop-opacity:1" />
</linearGradient>
<path style="fill:url(#LinearGradID_233) " d="M-71.25,-350.25L-69.9 -352.05Q-69 -353.2 -68.15 -353.65L-67.85 -353.85L-67.25 -353.65Q-49.2 -347.95 -32.85 -336.95L-34.2 -332.8L-34.3 -332.9Q-48.9 -344.35 -66.55 -348.05L-66.6 -348.1L-66.65 -348.1L-71.25 -350.25" />
<linearGradient
id="LinearGradID_234" gradientUnits="userSpaceOnUse" gradientTransform="matrix(0.0327148, 0.00141907, -0.000900269, 0.0206451, -43.15, -344.75)" spreadMethod ="pad" x1="-819.2" y1="0" x2="819.2" y2="0" >
<stop  offset="0.196078" style="stop-color:#FF0000;stop-opacity:1" />
<stop  offset="0.819608" style="stop-color:#FF9595;stop-opacity:1" />
</linearGradient>
<path style="fill:url(#LinearGradID_234) " d="M-23.85,-343.2L-23.8 -343.2L-22.05 -342.4L-16.4 -339.6Q-20.85 -334.9 -21.95 -332.8L-22.35 -332L-23.75 -328.05L-23.85 -327.75L-23.9 -328.15Q-23.3 -330.15 -24.65 -332.8L-24.9 -333.2Q-25.15 -333.75 -25.7 -332.8L-26.55 -331.4Q-28.05 -328.7 -29.5 -330.05L-32.5 -336.85L-34.15 -332.9L-34.2 -332.8L-32.85 -336.95Q-49.2 -347.95 -67.25 -353.65L-67.85 -353.85Q-63.45 -360.15 -68.3 -363.05L-68.3 -366.55L-63.2 -363.9Q-62.05 -366.1 -59.8 -367.85L-55.05 -365.4Q-57.45 -363.65 -58.3 -361.4L-58.25 -361.35L-29.75 -346.1L-28.95 -345.6L-28.95 -345.95Q-28.9 -348.8 -27.1 -350.95L-22.35 -348.55Q-24.55 -345.95 -23.9 -343.25L-23.9 -343.2L-23.85 -343.2M-66.65,-348.1L-67.9 -346.9Q-69.1 -345.75 -69.5 -346.05L-70.65 -348.2L-71.25 -350.25L-66.65 -348.1M-66.55,-348.05Q-48.9 -344.35 -34.3 -332.9L-34.2 -332.8Q-34.5 -332.5 -35.25 -328.15L-35.7 -325.55L-36.15 -318.6L-36.15 -315.2L-36.15 -314.55L-36.2 -315.15L-37.45 -315.5L-68.75 -324.55L-68.75 -324.4L-69.2 -324.75Q-69.5 -326.3 -74.05 -335.45Q-74.2 -338.4 -72 -339.4Q-69.75 -340.4 -67.7 -343.7Q-65.65 -347.1 -66.55 -348.05" />
<linearGradient
id="LinearGradID_235" gradientUnits="userSpaceOnUse" gradientTransform="matrix(0.998093, 0.0432587, -0.0432587, 0.998093, -34.65, -84.95)" spreadMethod ="pad" x1="-819.2" y1="0" x2="819.2" y2="0" >
<stop  offset="0.196078" style="stop-color:#FF0000;stop-opacity:1" />
<stop  offset="0.819608" style="stop-color:#FF9595;stop-opacity:1" />
</linearGradient>
<path style="fill:url(#LinearGradID_235) " d="M-15.2,-323.9L-15.15 -324.05L-13.15 -324.3Q-8.6 -325.35 -5.55 -333.95L2 -330.1Q1.8 -332.7 5.05 -334.45L10.2 -331.85Q6.9 -330.55 6.8 -327.6L32.25 -314.4Q32 -317.35 35.45 -318.85L40.65 -316.2Q37.95 -314.45 37.9 -311.45L46.55 -306.25Q44.05 -300.15 40.6 -298.9L38.5 -298.4L37.25 -298.35L37.05 -298.3L-15.2 -323.9" />
<linearGradient
id="LinearGradID_236" gradientUnits="userSpaceOnUse" gradientTransform="matrix(0.0363922, 0.00157166, -0.000839233, 0.0195007, 73.75, -275)" spreadMethod ="pad" x1="-819.2" y1="0" x2="819.2" y2="0" >
<stop  offset="0.196078" style="stop-color:#FF0000;stop-opacity:1" />
<stop  offset="0.819608" style="stop-color:#FF9595;stop-opacity:1" />
</linearGradient>
<path style="fill:url(#LinearGradID_236) " d="M46.85,-291.4L46.85 -291.3L46.7 -291.3L46.85 -291.4" />
<linearGradient
id="LinearGradID_237" gradientUnits="userSpaceOnUse" gradientTransform="matrix(0.0363922, 0.00157166, -0.000778198, 0.0177917, 7.95, -307.6)" spreadMethod ="pad" x1="-819.2" y1="0" x2="819.2" y2="0" >
<stop  offset="0.196078" style="stop-color:#FF0000;stop-opacity:1" />
<stop  offset="0.819608" style="stop-color:#FF9595;stop-opacity:1" />
</linearGradient>
<path style="fill:url(#LinearGradID_237) " d="M33.05,-296.7Q32.35 -296.15 29.1 -291.15Q25.6 -285.8 24.55 -282.95L24.5 -282.85L24.3 -282.85Q-31.45 -306.55 -29.8 -308.8L-20.4 -322.9L-16.65 -321.05L33.05 -296.7" />
<linearGradient
id="LinearGradID_238" gradientUnits="userSpaceOnUse" gradientTransform="matrix(0.0332947, 0.00144958, -0.000671387, 0.0153198, 10.6, -309.4)" spreadMethod ="pad" x1="-819.2" y1="0" x2="819.2" y2="0" >
<stop  offset="0.498039" style="stop-color:#C70101;stop-opacity:1" />
<stop  offset="1" style="stop-color:#FF9595;stop-opacity:1" />
</linearGradient>
<path style="fill:url(#LinearGradID_238) " d="M-16.65,-321.05L-15.2 -323.9L37.05 -298.3Q34.65 -298 33.05 -296.7L-16.65 -321.05" />
<linearGradient
id="LinearGradID_239" gradientUnits="userSpaceOnUse" gradientTransform="matrix(0.0363922, 0.00157166, -0.000778198, 0.0177917, 7.95, -307.6)" spreadMethod ="pad" x1="-819.2" y1="0" x2="819.2" y2="0" >
<stop  offset="0.498039" style="stop-color:#C70101;stop-opacity:1" />
<stop  offset="1" style="stop-color:#FF9595;stop-opacity:1" />
</linearGradient>
<path style="fill:url(#LinearGradID_239) " d="M-16.65,-321.05L-20.4 -322.9Q-18.95 -324.1 -15.55 -324.1L-15.2 -323.9L-16.65 -321.05" />
<linearGradient
id="LinearGradID_240" gradientUnits="userSpaceOnUse" gradientTransform="matrix(0.998093, 0.0432587, -0.0432587, 0.998093, -7.3, -69.65)" spreadMethod ="pad" x1="-819.2" y1="0" x2="819.2" y2="0" >
<stop  offset="0.196078" style="stop-color:#FF0000;stop-opacity:1" />
<stop  offset="0.819608" style="stop-color:#FF9595;stop-opacity:1" />
</linearGradient>
<path style="fill:url(#LinearGradID_240) " d="M93.9,-282.55L95.05 -281.95L95.5 -281.55L96.05 -281.45Q98 -280.9 99.9 -279.25L114.65 -271.6L114.9 -271.5L115.2 -271.35Q114.55 -273.45 115.55 -275.15L117.1 -276.8L124.3 -273.1L123.65 -271.9Q122.45 -270 122.8 -267.85L123.15 -267.6L132.35 -262.4Q134.85 -256.7 133.75 -251.6Q132.05 -250.9 130.8 -249.95L75.9 -276.85Q81.2 -286.15 74.85 -289.95L74.6 -290.1L74.9 -290.05Q80 -289.4 85.1 -287.1L85.25 -287.05L85.3 -287L85.35 -286.95L85.3 -286.95L85.5 -286.75L85.6 -286.5L85.6 -286.7L85.65 -286.65L85.7 -286.65L85.7 -286.8L85.75 -286.8Q86.3 -289.5 88.95 -291.25L95.7 -287.8Q93.1 -286.2 92.85 -283.05L92.85 -282.9L93.6 -282.55L93.9 -282.55" />
<linearGradient
id="LinearGradID_241" gradientUnits="userSpaceOnUse" gradientTransform="matrix(0.0363922, 0.00157166, -0.000839233, 0.0195007, 101.1, -259.7)" spreadMethod ="pad" x1="-819.2" y1="0" x2="819.2" y2="0" >
<stop  offset="0.196078" style="stop-color:#FF0000;stop-opacity:1" />
<stop  offset="0.819608" style="stop-color:#FF9595;stop-opacity:1" />
</linearGradient>
<path style="fill:url(#LinearGradID_241) " d="M127,-234.5Q126.65 -222.6 127.65 -221.35L123.25 -222L115.15 -223.65Q98.75 -227.45 83.35 -235.45Q72.55 -241.05 62.35 -248.65Q62 -249.15 64.6 -253.85Q67.9 -260 69 -263.7Q71.75 -273.35 72.95 -274.7L74.15 -275.8L74.3 -275.8L74.3 -275.9L75.85 -276.8L73.25 -274.45L128.35 -247.6Q127.45 -246.25 127 -234.5" />
<linearGradient
id="LinearGradID_242" gradientUnits="userSpaceOnUse" gradientTransform="matrix(0.0349426, 0.00151062, -0.000717163, 0.0164185, 102.45, -262.15)" spreadMethod ="pad" x1="-819.2" y1="0" x2="819.2" y2="0" >
<stop  offset="0.498039" style="stop-color:#C70101;stop-opacity:1" />
<stop  offset="1" style="stop-color:#FF9595;stop-opacity:1" />
</linearGradient>
<path style="fill:url(#LinearGradID_242) " d="M75.9,-276.85L130.8 -249.95Q129 -248.8 128.35 -247.6L73.25 -274.45L75.85 -276.8L75.9 -276.85" />
<path style="fill:none;stroke-width:1;stroke-linecap:round;stroke-linejoin:round;stroke-miterlimit:3;stroke:#333333;stroke-opacity:1" d="M2,-330.1Q1.8 -332.7 5.05 -334.45M-22.35,-348.55Q-24.55 -345.95 -23.9 -343.25L-23.85 -343.2L-23.8 -343.2L-22.05 -342.4M2,-330.1L6.8 -327.6Q6.9 -330.55 10.2 -331.85L5.05 -334.45M40.65,-316.2Q37.95 -314.45 37.9 -311.45Q35.1 -312.9 32.25 -314.4Q32 -317.35 35.45 -318.85M37.9,-311.45L46.55 -306.25Q44.05 -300.15 40.6 -298.9L38.5 -298.4L37.25 -298.35L37.05 -298.3Q34.65 -298 33.05 -296.7Q32.35 -296.15 29.1 -291.15Q25.6 -285.8 24.55 -282.95L24.5 -282.85L24.3 -282.85Q-31.45 -306.55 -29.8 -308.8L-20.4 -322.9Q-18.95 -324.1 -15.55 -324.1L-15.15 -324.05L-13.15 -324.3Q-8.6 -325.35 -5.55 -333.95M85.75,-286.8Q86.3 -289.5 88.95 -291.25L89 -291.3M92.85,-283.05Q93.1 -286.2 95.7 -287.8M74.15,-275.8L72.95 -274.7Q71.75 -273.35 69 -263.7Q67.9 -260 64.6 -253.85Q62 -249.15 62.35 -248.65Q72.55 -241.05 83.35 -235.45Q98.75 -227.45 115.15 -223.65L123.25 -222L127.65 -221.35Q126.65 -222.6 127 -234.5Q127.45 -246.25 128.35 -247.6Q129 -248.8 130.8 -249.95M75.9,-276.85L75.85 -276.8L74.3 -275.9M74.15,-275.8L74.3 -275.9M24.55,-282.95Q24.8 -284.4 24.3 -282.85M132.35,-262.4Q134.85 -256.7 133.75 -251.6Q132.05 -250.9 130.8 -249.95M132.35,-262.4L123.15 -267.6L122.8 -267.85Q122.45 -270 123.65 -271.9M114.9,-271.5L114.65 -271.6M117.1,-276.8L115.55 -275.15Q114.55 -273.45 115.2 -271.35M124.5,-273L123.65 -271.9M95.75,-287.85L95.7 -287.8M-55.05,-365.4Q-57.45 -363.65 -58.3 -361.4L-58.25 -361.35L-29.75 -346.1L-28.95 -345.6L-28.95 -345.95Q-28.9 -348.8 -27.1 -350.95L-27.2 -351M-68.3,-366.55L-68.3 -363.05Q-63.45 -360.15 -67.85 -353.85M-34.2,-332.8L-34.15 -332.9L-32.5 -336.85L-29.5 -330.05Q-28.05 -328.7 -26.55 -331.4L-25.7 -332.8Q-25.15 -333.75 -24.9 -333.2L-24.65 -332.8Q-23.3 -330.15 -23.9 -328.15L-23.85 -327.75L-23.75 -328.05L-22.35 -332L-21.95 -332.8Q-20.85 -334.9 -16.4 -339.6M-66.65,-348.1L-67.9 -346.9Q-69.1 -345.75 -69.5 -346.05L-70.65 -348.2L-71.25 -350.25L-69.9 -352.05Q-69 -353.2 -68.15 -353.65L-67.85 -353.85M-66.65,-348.1L-66.6 -348.1L-66.55 -348.05M-59.8,-367.85Q-62.05 -366.1 -63.2 -363.9L-58.3 -361.4M-15.2,-323.9L-15.55 -324.1M-23.9,-343.2L-23.85 -343.2M-28.95,-345.6L-28.95 -345.55L-28.9 -345.55L-23.9 -343.25" />
<path style="fill:none;stroke-width:1;stroke-linecap:round;stroke-linejoin:round;stroke-miterlimit:3;stroke:#333333;stroke-opacity:1" d="M5.05,-334.45L-22.35 -348.55M-23.9,-343.2L-22.05 -342.4L-16.4 -339.6L-16.3 -339.6L-11.3 -336.95M-10.9,-336.75L-5.55 -333.95L2 -330.1M95.7,-287.8L88.95 -291.25L86.6 -292.55L40.65 -316.2L35.45 -318.85L35.15 -319L35.1 -319.05L10.2 -331.85M32.25,-314.4L6.8 -327.6M37.9,-311.45L85.1 -287.1L85.3 -287L85.7 -286.8L85.75 -286.8M75.9,-276.85Q81.2 -286.15 74.85 -289.95L74.6 -290.1L74.9 -290.05Q80 -289.4 85.1 -287.1M85.7,-286.8L92.85 -283.05L93.9 -282.55M89,-291.3L86.6 -292.55M124.3,-273.1L124.5 -273L144.3 -262.8M139.7,-258.7L139.7 -258.6L132.35 -262.4M123.15,-267.6L115.2 -271.35L114.9 -271.5M114.65,-271.6L99.9 -279.25L95.5 -281.55L93.6 -282.55M124.3,-273.1L117.1 -276.8M139.7,-258.7Q139.5 -264.15 144.3 -262.8M95.7,-287.8L98.3 -286.5L95.75 -287.85M98.3,-286.5L117.1 -276.8M-27.2,-351L-27.45 -351.2L-55.05 -365.4M-27.1,-350.95L-27.45 -351.2M-27.1,-350.95L-22.35 -348.55M-63.2,-363.9L-68.3 -366.55L-88.25 -376.95M-16.4,-339.6L-16.3 -339.55M-34.2,-332.8Q-34.5 -332.5 -35.25 -328.15L-35.7 -325.55L-36.15 -318.6L-36.15 -315.2M-37.45,-315.5L-68.75 -324.55L-68.75 -324.4L-69.2 -324.75Q-69.5 -326.3 -74.05 -335.45Q-74.2 -338.4 -72 -339.4Q-69.75 -340.4 -67.7 -343.7Q-65.65 -347.1 -66.55 -348.05M-88.2,-377.15Q-88.4 -379.05 -85.15 -380.75L-59.8 -367.85L-55.05 -365.4M-10.9,-336.75L-11.3 -336.95M-37.45,-315.5L-36.15 -315.2" />
<path style="fill:none;stroke-width:1;stroke-linecap:round;stroke-linejoin:round;stroke-miterlimit:3;stroke:#000000;stroke-opacity:1" d="M144.3,-262.8Q144 -257.85 139.7 -258.7" />
</g>
</svg>
