<?xml version="1.0" encoding="utf-8"?>
<svg version="1.1" id="Layer_1"
xmlns="http://www.w3.org/2000/svg"
xmlns:xlink="http://www.w3.org/1999/xlink"
xmlns:author="http://www.sothink.com"
width="34px" height="53px"
xml:space="preserve">
<g id="268" transform="matrix(1, 0, 0, 1, 16.75, 27)">
<linearGradient
id="LinearGradID_981" gradientUnits="userSpaceOnUse" gradientTransform="matrix(0.0189819, 0.0189819, -0.0115051, 0.0115051, -3.2, 42.35)" spreadMethod ="pad" x1="-819.2" y1="0" x2="819.2" y2="0" >
<stop  offset="0" style="stop-color:#FFFFF8;stop-opacity:1" />
<stop  offset="1" style="stop-color:#999999;stop-opacity:1" />
</linearGradient>
<path style="fill:url(#LinearGradID_981) " d="M-2.35,13L-2.35 12.6L0.15 12.8L1.65 12.75L1.65 13L-2.35 13" />
<linearGradient
id="LinearGradID_982" gradientUnits="userSpaceOnUse" gradientTransform="matrix(0.0143738, 0.0143738, -0.0143738, 0.0143738, 0.15, -3.85)" spreadMethod ="pad" x1="-819.2" y1="0" x2="819.2" y2="0" >
<stop  offset="0" style="stop-color:#FFFFF8;stop-opacity:1" />
<stop  offset="1" style="stop-color:#999999;stop-opacity:1" />
</linearGradient>
<path style="fill:url(#LinearGradID_982) " d="M0.15,12.8L-2.35 12.6Q-7.65 11.85 -11.6 7.9Q-16.5 3 -16.5 -3.85Q-16.5 -9.4 -13.35 -13.65L-13.45 -15.6L-13.45 -15.8Q-13.35 -21.25 -9.75 -26.75L-3.15 -20.2L0.15 -20.5Q3.7 -20.5 6.7 -19.2L12.5 -26Q16.25 -18.75 15 -11.45Q16.8 -8.05 16.8 -3.85Q16.8 3 11.9 7.9Q7.55 12.25 1.65 12.75L0.15 12.8" />
<linearGradient
id="LinearGradID_983" gradientUnits="userSpaceOnUse" gradientTransform="matrix(0.0067749, 0, 0, 0.00483704, -0.2, 20.95)" spreadMethod ="pad" x1="-819.2" y1="0" x2="819.2" y2="0" >
<stop  offset="0" style="stop-color:#FFFFF8;stop-opacity:1" />
<stop  offset="1" style="stop-color:#999999;stop-opacity:1" />
</linearGradient>
<path style="fill:url(#LinearGradID_983) " d="M1.65,16Q3.45 16.25 5.35 17L5.35 24.95Q0.25 23 -5.75 24.95L-5.75 17Q-4.1 16.25 -2.35 15.95Q-0.45 15.65 1.65 16" />
<linearGradient
id="LinearGradID_984" gradientUnits="userSpaceOnUse" gradientTransform="matrix(0.0189819, 0.0189819, -0.0115051, 0.0115051, -3.2, 31.4)" spreadMethod ="pad" x1="-819.2" y1="0" x2="819.2" y2="0" >
<stop  offset="0" style="stop-color:#FFFFF8;stop-opacity:1" />
<stop  offset="1" style="stop-color:#999999;stop-opacity:1" />
</linearGradient>
<path style="fill:url(#LinearGradID_984) " d="M-2.35,15.95L-2.35 13L1.65 13L1.65 15.95L1.65 16Q-0.45 15.65 -2.35 15.95" />
<path style="fill:none;stroke-width:0.5;stroke-linecap:round;stroke-linejoin:round;stroke-miterlimit:3;stroke:#999999;stroke-opacity:1" d="M1.65,12.75L1.65 13L1.65 15.95M-2.35,15.95Q-0.45 15.65 1.65 16Q3.45 16.25 5.35 17L5.35 24.95Q0.25 23 -5.75 24.95L-5.75 17Q-4.1 16.25 -2.35 15.95L-2.35 13L-2.35 12.6" />
<path style="fill:none;stroke-width:0.5;stroke-linecap:round;stroke-linejoin:round;stroke-miterlimit:3;stroke:#999999;stroke-opacity:1" d="M-2.35,12.6Q-7.65 11.85 -11.6 7.9Q-16.5 3 -16.5 -3.85Q-16.5 -9.4 -13.35 -13.65L-13.45 -15.6L-13.45 -15.8Q-13.35 -21.25 -9.75 -26.75L-3.15 -20.2L0.15 -20.5Q3.7 -20.5 6.7 -19.2L12.5 -26Q16.25 -18.75 15 -11.45Q16.8 -8.05 16.8 -3.85Q16.8 3 11.9 7.9Q7.55 12.25 1.65 12.75M-2.35,12.6L0.15 12.8L1.65 12.75" />
</g>
</svg>
