<?xml version="1.0" encoding="utf-8"?>
<svg version="1.1" id="Layer_1"
xmlns="http://www.w3.org/2000/svg"
xmlns:xlink="http://www.w3.org/1999/xlink"
xmlns:author="http://www.sothink.com"
width="117px" height="238px"
xml:space="preserve">
<g id="27" transform="matrix(1, 0, 0, 1, 11.95, 211.3)">
<linearGradient
id="LinearGradID_245" gradientUnits="userSpaceOnUse" gradientTransform="matrix(0.0427246, 0, 0, 0.0547485, 116.2, -212.65)" spreadMethod ="pad" x1="-819.2" y1="0" x2="819.2" y2="0" >
<stop  offset="0.345098" style="stop-color:#804000;stop-opacity:1" />
<stop  offset="1" style="stop-color:#999999;stop-opacity:1" />
</linearGradient>
<path style="fill:url(#LinearGradID_245) " d="M93,-198.2L89 -196.25L89 -203.35L89 -203.4L104.25 -210.8L104.25 -203.6L93 -198.2" />
<linearGradient
id="LinearGradID_246" gradientUnits="userSpaceOnUse" gradientTransform="matrix(0.0427246, 0, 0, 0.0547485, 104.95, -207.15)" spreadMethod ="pad" x1="-819.2" y1="0" x2="819.2" y2="0" >
<stop  offset="0.345098" style="stop-color:#804000;stop-opacity:1" />
<stop  offset="1" style="stop-color:#999999;stop-opacity:1" />
</linearGradient>
<path style="fill:url(#LinearGradID_246) " d="M50.7,-177.75L50.5 -184.65L89 -203.35L89 -196.25L93 -198.2L93 -198.1L50.7 -177.75" />
<linearGradient
id="LinearGradID_247" gradientUnits="userSpaceOnUse" gradientTransform="matrix(0.0660248, 0.00292969, -0.00242615, 0.0546875, 151.65, -237.85)" spreadMethod ="pad" x1="-819.2" y1="0" x2="819.2" y2="0" >
<stop  offset="0.345098" style="stop-color:#804000;stop-opacity:1" />
<stop  offset="1" style="stop-color:#999999;stop-opacity:1" />
</linearGradient>
<path style="fill:url(#LinearGradID_247) " d="M21.3,9.45L4.55 17.7L4.45 17.7L4.45 17.75L-3.55 21.65L-11 25.35L-11.1 25.15L-11.45 -5.2L-11.45 -5.5L-10.4 -162.15L-4.05 -158.8L-3.9 -158.8L-3.9 -158.85L-3.85 -158.85L-3.85 -158.9L-3.9 -158.95L3.8 -162.45L4.1 -162.2L4.1 -162.35L4.2 -162.45L4.15 -162.6L21.25 -170.85L21.3 -170.85L21.3 -170.9L37.35 -178.65L37.5 -178.65L37.5 -178.7L50.5 -184.65L50.7 -177.75L51.3 -68.2L37.8 -75.45L37.8 1.3L21.3 9.45" />
<linearGradient
id="LinearGradID_248" gradientUnits="userSpaceOnUse" gradientTransform="matrix(0.15065, 0, 0, 0.0547485, -3.6, 193.45)" spreadMethod ="pad" x1="-819.2" y1="0" x2="819.2" y2="0" >
<stop  offset="0.0823529" style="stop-color:#804000;stop-opacity:1" />
<stop  offset="0.486275" style="stop-color:#8A6248;stop-opacity:1" />
<stop  offset="0.937255" style="stop-color:#9F3502;stop-opacity:0.780392" />
</linearGradient>
<path style="fill:url(#LinearGradID_248) " d="M51.3,-5.4L37.8 1.3L37.8 -75.45L51.3 -68.2L51.3 -5.4" />
<path style="fill:none;stroke-width:1;stroke-linecap:round;stroke-linejoin:round;stroke-miterlimit:3;stroke:#333333;stroke-opacity:1" d="M104.25,-203.6L93 -198.2L89 -196.25M89,-203.35L50.5 -184.65L50.7 -177.75L93 -198.1M89,-203.4L104.25 -210.8M37.5,-178.7L50.5 -184.65M4.15,-162.6L21.25 -170.85M21.3,-170.9L37.35 -178.65M21.3,9.45L37.8 1.3L51.3 -5.4L51.3 -68.2L50.7 -177.75M4.45,17.75L-3.55 21.65L-11 25.35M-11.1,25.15L-11.45 -5.2M-11.45,-5.5L-10.4 -162.15M-3.9,-158.95L3.8 -162.45M4.55,17.7L21.3 9.45L21.3 -170.85M4.1,-162.2L4.45 17.7M-3.55,21.65L-3.9 -158.8" />
<path style="fill:none;stroke-width:1;stroke-linecap:round;stroke-linejoin:round;stroke-miterlimit:3;stroke:#000000;stroke-opacity:1" d="M37.8,-75.45L37.5 -178.65" />
<path style="fill:#FFFFFF;fill-opacity:1" d="M48.05,-8.15L-5.7 17.35L-6.4 -59.3L48.05 -83.4L48.05 -8.15" />
<path style="fill:none;stroke-width:1;stroke-linecap:round;stroke-linejoin:round;stroke-miterlimit:3;stroke:#333333;stroke-opacity:1" d="M48.05,-8.15L-5.7 17.35L-6.4 -59.3L48.05 -83.4L48.05 -8.15z" />
<path style="fill:#FF0000;fill-opacity:1" d="M17.3,-31.75Q16.85 -27.95 17.8 -23.95L5.8 -22.35Q1.95 -22.15 -1.35 -24.9L-2.45 -26L-2.45 -37.3L-1.35 -38.4L-0.8 -38.8L13.4 -39.25L14.55 -38.4Q17.85 -35.6 17.3 -31.75" />
</g>
</svg>
