<?xml version="1.0" encoding="utf-8"?>
<svg version="1.1" id="Layer_1"
xmlns="http://www.w3.org/2000/svg"
xmlns:xlink="http://www.w3.org/1999/xlink"
xmlns:author="http://www.sothink.com"
width="74px" height="86px"
xml:space="preserve">
<g id="258" transform="matrix(1, 0, 0, 1, 34.7, 25)">
<path style="fill:#000000;fill-opacity:0.2" d="M22.95,23.5Q13.05 26.75 -0.9 26.75Q-14.9 26.75 -24.8 23.5Q-34.7 20.25 -34.7 15.65Q-34.7 11 -24.8 7.75Q-14.9 4.5 -0.9 4.5Q13.05 4.5 22.95 7.75Q32.85 11 32.85 15.65Q32.85 20.25 22.95 23.5" />
<radialGradient
id="RadialGradID_742" gradientUnits="userSpaceOnUse" gradientTransform="matrix(0.162918, 0.0237732, -0.0207367, 0.142242, 23.35, -21.95)" spreadMethod ="pad" cx="0" cy="0" r="819.2" fx="0" fy="0" >
<stop  offset="0"  style="stop-color:#FF00FF;stop-opacity:1" />
<stop  offset="0.854902"  style="stop-color:#666666;stop-opacity:1" />
<stop  offset="1"  style="stop-color:#FFFFFF;stop-opacity:1" />
</radialGradient>
<path style="fill:url(#RadialGradID_742) " d="M-23.05,19.05L-24 15.55Q-24.15 15.05 -24.55 14.7Q-25.1 14.25 -26.05 14.1L-29.75 14.35Q-31.8 15 -33 16.35L-33.1 16.45L-29.5 3.25Q-29.2 5.1 -27.95 6.7Q-26.05 9.05 -23.35 10.3L-22.75 10.55L-21.25 10.65L-5.6 12.35L-5.55 12.05L-2.15 9.45Q-0.55 8.2 0 6.35Q0.95 3.2 -0.85 0.45L-0.5 -2.85L-2.75 -14.9L-9.45 -6.1Q-10.9 -7.4 -12.75 -7.25L-13.9 -7.1L-14.1 -7.55L-17.25 -15.55L-21.5 -7.75L-22.35 -6.2Q-25.6 -5.25 -27.6 -2.8Q-26.8 -5.8 -24.55 -9Q-21 -14 -15.15 -17.65Q-11.65 -19.85 -7.25 -21.6Q4.3 -26.15 14.95 -24.6Q25.6 -23.05 29.1 -16.35L29.15 -16.3Q30.45 -13.8 30.5 -11.1Q29.2 -11.3 28.1 -11.1Q26.4 -10.7 26.1 -9.55L22.6 3.35L18.05 6.85Q15.25 8.6 12 10.1L13.05 6.25Q13.35 5.05 12.1 3.7Q10.9 2.45 8.9 1.8L5.15 1.45Q3.45 1.85 3.15 3L1.2 10.25L-0.45 10.25L-1.75 11.35Q-2.95 12.6 -2.65 13.8L-2.5 14.25L-6.85 14.5Q-9.8 14.8 -12.6 14.45L-13.45 14.3Q-16.9 13.7 -19.3 12.3L-21 11.5L-23.05 19.05" />
<radialGradient
id="RadialGradID_743" gradientUnits="userSpaceOnUse" gradientTransform="matrix(-0.0596924, 0.0597992, -0.0597992, -0.0596924, 26.7, -10.5)" spreadMethod ="pad" cx="0" cy="0" r="819.2" fx="0" fy="0" >
<stop  offset="0"  style="stop-color:#FF00FF;stop-opacity:1" />
<stop  offset="0.854902"  style="stop-color:#666666;stop-opacity:1" />
<stop  offset="1"  style="stop-color:#FFFFFF;stop-opacity:1" />
</radialGradient>
<path style="fill:url(#RadialGradID_743) " d="M26.1,-9.55Q26.4 -10.7 28.1 -11.1Q29.2 -11.3 30.5 -11.1L31.85 -10.75Q33.85 -10.1 35.05 -8.85Q36.3 -7.5 36 -6.3L30.95 12.2Q30.6 13.35 28.9 13.7L25.2 13.4Q23.15 12.75 21.95 11.45Q20.75 10.15 21.05 8.95L22.6 3.35L26.1 -9.55" />
<radialGradient
id="RadialGradID_744" gradientUnits="userSpaceOnUse" gradientTransform="matrix(0.0332031, 0.057724, -0.057724, 0.0332031, 0.75, -3.15)" spreadMethod ="pad" cx="0" cy="0" r="819.2" fx="0" fy="0" >
<stop  offset="0"  style="stop-color:#FF00FF;stop-opacity:1" />
<stop  offset="1"  style="stop-color:#666666;stop-opacity:1" />
</radialGradient>
<path style="fill:url(#RadialGradID_744) " d="M7.25,10.55L7.15 10.25L1.2 10.25L3.15 3Q3.45 1.85 5.15 1.45L8.9 1.8Q10.9 2.45 12.1 3.7Q13.35 5.05 13.05 6.25L12 10.1L9.55 19.05L7.25 10.55M-1.2,19.05L-0.55 21.5L-1.8 21.25L-1.2 19.05" />
<path style="fill:#000000;fill-opacity:0.2" d="M-33,16.35Q-31.8 15 -29.75 14.35L-26.05 14.1Q-25.1 14.25 -24.55 14.7Q-24.15 15.05 -24 15.55L-23.05 19.05L-21.75 23.85L-20.05 23Q-17.65 21.6 -14.2 21L-13.35 20.9Q-10.55 20.5 -7.6 20.8L-6.15 20.85L-1.8 21.25L-0.55 21.5L-1.2 19.05L-2.5 14.25L-2.65 13.8Q-2.95 12.6 -1.75 11.35L-0.45 10.25L1.2 10.25L7.15 10.25L7.25 10.55L9.55 19.05L11.25 25.25Q14.5 26.7 17.3 28.5Q19.75 30.1 21.85 31.95L20.3 26.35Q20 25.15 21.2 23.9Q22.4 22.55 24.45 21.9L28.15 21.65Q29.85 21.95 30.2 23.1L35.25 41.65Q35.55 42.8 34.3 44.15Q33.1 45.4 31.1 46.1L29.75 46.4Q29.7 49.1 28.4 51.6L28.35 51.7Q24.85 58.35 14.2 59.9Q3.55 61.45 -8 56.9Q-12.4 55.15 -15.9 52.95L-18.4 51.3Q-22.55 48.2 -25.3 44.3Q-27.55 41.1 -28.35 38.15L-28.6 37.85L-29.85 35.85L-30.35 34.15L-30.25 32.05L-33.9 18.8Q-34.2 17.65 -33.1 16.45L-33 16.35" />
<radialGradient
id="RadialGradID_745" gradientUnits="userSpaceOnUse" gradientTransform="matrix(0.0561523, 0.0119629, -0.0119629, 0.0561523, -14.15, 8.3)" spreadMethod ="pad" cx="0" cy="0" r="819.2" fx="0" fy="0" >
<stop  offset="0"  style="stop-color:#FF00FF;stop-opacity:1" />
<stop  offset="0.854902"  style="stop-color:#666666;stop-opacity:1" />
<stop  offset="1"  style="stop-color:#FFFFFF;stop-opacity:1" />
</radialGradient>
<path style="fill:url(#RadialGradID_745) " d="M-29.5,3.25L-29.6 1.15L-29.1 -0.55L-27.85 -2.5L-27.6 -2.8Q-25.6 -5.25 -22.35 -6.2L-21.5 -7.75L-17.25 -15.55L-14.1 -7.55L-13.9 -7.1L-12.75 -7.25Q-10.9 -7.4 -9.45 -6.1L-2.75 -14.9L-0.5 -2.85L-0.85 0.45Q0.95 3.2 0 6.35Q-0.55 8.2 -2.15 9.45L-5.55 12.05L-5.6 12.35L-21.25 10.65L-22.75 10.55L-23.35 10.3Q-26.05 9.05 -27.95 6.7Q-29.2 5.1 -29.5 3.25M-14.15,8.55L-14.15 8.3L-14.2 8.55L-14.2 8.6L-14.15 8.6L-14.15 8.55" />
<radialGradient
id="RadialGradID_746" gradientUnits="userSpaceOnUse" gradientTransform="matrix(0.0305176, 0.0105591, -0.0105591, 0.0305176, -23.2, -1.4)" spreadMethod ="pad" cx="0" cy="0" r="819.2" fx="0" fy="0" >
<stop  offset="0"  style="stop-color:#FF00FF;stop-opacity:1" />
<stop  offset="0.854902"  style="stop-color:#666666;stop-opacity:1" />
<stop  offset="1"  style="stop-color:#FFFFFF;stop-opacity:1" />
</radialGradient>
<path style="fill:url(#RadialGradID_746) " d="M-14.15,8.6L-14.2 8.6L-14.2 8.55L-14.15 8.3L-14.15 8.55L-14.15 8.6" />
<path style="fill:none;stroke-width:2;stroke-linecap:round;stroke-linejoin:round;stroke-miterlimit:3;stroke:#666666;stroke-opacity:1" d="M26.15,-21Q29.95 -25.4 32.4 -20.9L32.65 -20.7Q36.1 -17.2 38.15 -21" />
<path style="fill:none;stroke-width:1.5;stroke-linecap:round;stroke-linejoin:round;stroke-miterlimit:3;stroke:#666666;stroke-opacity:1" d="M-21.5,-7.75L-17.25 -15.55L-14.1 -7.55M-9.45,-6.1L-2.75 -14.9L-0.5 -2.85M-22.15,-4Q-21.7 -3.55 -21.7 -2.9Q-21.7 -2.25 -22.15 -1.8Q-22.6 -1.35 -23.2 -1.35Q-23.8 -1.35 -24.25 -1.8L-24.7 -2.9L-24.25 -4Q-23.8 -4.45 -23.2 -4.45Q-22.6 -4.45 -22.15 -4M-10.85,-1.9Q-10.4 -2.35 -9.8 -2.35Q-9.2 -2.35 -8.75 -1.9Q-8.3 -1.45 -8.3 -0.8Q-8.3 -0.15 -8.75 0.3Q-9.2 0.75 -9.8 0.75Q-10.4 0.75 -10.85 0.3Q-11.3 -0.15 -11.3 -0.8Q-11.3 -1.45 -10.85 -1.9M-14.15,8.3Q-15.9 4.95 -15.35 1.3L-14.95 -1.05L-19.95 -1.6M-12,8.8L-12 10.15M-5,6.9L-5 8.9M-22.45,7.6L-22.55 8.95" />
<path style="fill:none;stroke-width:1.5;stroke-linecap:round;stroke-linejoin:round;stroke-miterlimit:3;stroke:#666666;stroke-opacity:1" d="M-19.95,-1.6L-20 7.9L-14.2 8.55M-14.15,8.55L-12 8.8M-7.15,5.75L-7.15 9.25M-14.15,8.55L-14.2 8.55M-20,7.9L-22.45 7.6" />
</g>
</svg>
