<?xml version="1.0" encoding="utf-8"?>
<svg version="1.1" id="Layer_1"
xmlns="http://www.w3.org/2000/svg"
xmlns:xlink="http://www.w3.org/1999/xlink"
xmlns:author="http://www.sothink.com"
width="50px" height="76px"
xml:space="preserve">
<g id="698" transform="matrix(1, 0, 0, 1, 25.05, 71.2)">
<path style="fill:#FFFFFF;fill-opacity:1" d="M8.4,-62.45Q12.15 -64.4 15.4 -62.6Q19.7 -60.25 20.5 -55.6L20.6 -54.5L20.6 -49.45L21.3 -41.35L22.5 -39.9Q24.35 -37.05 24.4 -33.05Q24.35 -29.1 22.5 -26.3L21.35 -24.85L20.55 -15.85L20.55 -10.85L20.45 -9.75Q19.65 -5.15 15.35 -2.75Q12.1 -0.95 8.35 -2.9L3.75 -2.15Q3.65 0.25 1.5 1.95Q-0.7 3.65 -3.8 3.7Q-6.9 3.65 -9.1 1.95Q-11.3 0.25 -11.35 -2.15L-15.55 -4.7Q-20.1 -4.6 -22.45 -7.45Q-25.95 -11.8 -24.2 -16.95L-24.1 -17.25L-22.85 -21Q-23.9 -22.65 -23.9 -24.6Q-23.9 -26.85 -22.55 -28.7L-22 -31.65Q-23.8 -33.7 -23.8 -36.25L-23.55 -38.05L-24.05 -48.05L-24.15 -48.4Q-25.9 -53.6 -22.4 -57.9Q-20.05 -60.75 -15.5 -60.65L-9.6 -65.1Q-9.55 -67.55 -7.35 -69.2Q-5.15 -70.95 -2.05 -70.95Q1.05 -70.95 3.25 -69.2Q5.4 -67.55 5.5 -65.1L8.4 -62.45" />
<path style="fill:none;stroke-width:0.5;stroke-linecap:round;stroke-linejoin:round;stroke-miterlimit:3;stroke:#999999;stroke-opacity:1" d="M8.4,-62.45Q12.15 -64.4 15.4 -62.6Q19.7 -60.25 20.5 -55.6L20.6 -54.5L20.6 -49.45M21.3,-41.35L22.5 -39.9Q24.35 -37.05 24.4 -33.05Q24.35 -29.1 22.5 -26.3L21.35 -24.85Q19.8 -23.45 17.95 -23.45Q16.65 -23.45 15.55 -24.05M20.55,-15.85L20.55 -10.85L20.45 -9.75Q19.65 -5.15 15.35 -2.75Q12.1 -0.95 8.35 -2.9M3.75,-2.15Q3.65 0.25 1.5 1.95Q-0.7 3.65 -3.8 3.7Q-6.9 3.65 -9.1 1.95Q-11.3 0.25 -11.35 -2.15M-15.55,-4.7Q-20.1 -4.6 -22.45 -7.45Q-25.95 -11.8 -24.2 -16.95L-24.1 -17.25M-22.85,-21Q-23.9 -22.65 -23.9 -24.6Q-23.9 -26.85 -22.55 -28.7M-22,-31.65Q-23.8 -33.7 -23.8 -36.25L-23.55 -38.05M-24.05,-48.05L-24.15 -48.4Q-25.9 -53.6 -22.4 -57.9Q-20.05 -60.75 -15.5 -60.65M-9.6,-65.1Q-9.55 -67.55 -7.35 -69.2Q-5.15 -70.95 -2.05 -70.95Q1.05 -70.95 3.25 -69.2Q5.4 -67.55 5.5 -65.1M12.5,-45.1L14.35 -47.5Q16.2 -50.9 14.9 -54Q13.6 -57.15 9.9 -58.15L3.2 -57.85M21.3,-41.35L19.35 -42.45L18.8 -42.6M8.1,-37.5Q10.2 -41.6 5.6 -41.55M3.05,-11.95Q4.95 -10.15 7.7 -10.15Q10.5 -10.15 12.5 -12Q14.4 -13.85 14.4 -16.45L14.05 -18.6M7.7,-33.95Q17.35 -19.2 4.8 -24M-10.8,-50.85Q-10.9 -52.45 -12.1 -53.65Q-13.5 -54.95 -15.45 -54.9L-16.3 -54.85L-16.6 -54.8L-18.7 -53.65Q-20.1 -52.35 -20.1 -50.55Q-20.1 -48.75 -18.7 -47.45L-17.8 -46.75M-1.75,-58.5Q-3.6 -59.3 -5.85 -59.45L-7 -59.55Q-10.7 -59.55 -9.6 -56.1M-3.2,-40.6Q-11.15 -44.6 -9.85 -36.5M-9.85,-34.85Q-11.9 -33 -11.9 -30.35Q-11.9 -27.7 -9.75 -25.75Q-7.65 -23.85 -4.6 -23.85Q-2 -23.85 0 -25.3M-22,-31.65L-21.15 -30.85M-21.15,-41.65L-22.4 -40.35Q-23.25 -39.3 -23.55 -38.05M-22.85,-21Q-22.1 -19.85 -20.8 -18.85Q-17.8 -16.45 -13.4 -16.45L-11.05 -16.6M-8.85,-15.55L-8.9 -13.25Q-8.9 -11.45 -6.95 -9.25Q-5 -7.05 -3.2 -7.65L-0.75 -8.4" />
</g>
</svg>
