<?xml version="1.0" encoding="utf-8"?>
<svg version="1.1" id="Layer_1"
xmlns="http://www.w3.org/2000/svg"
xmlns:xlink="http://www.w3.org/1999/xlink"
xmlns:author="http://www.sothink.com"
width="9px" height="20px"
xml:space="preserve">
<g id="145" transform="matrix(1, 0, 0, 1, 0.1, -5.7)">
<path style="fill:#D0BE8A;fill-opacity:1" d="M2.3,6.5L4.6 6.2Q5.9 6.3 6.85 6.85Q7.75 7.4 7.7 8.05L7.7 8.25L6.7 9.1L4.4 9.4Q3.05 9.35 2.15 8.75Q1.3 8.25 1.3 7.85L1.3 7.8L1.3 7.6Q1.35 6.95 2.3 6.5" />
<path style="fill:#A76B58;fill-opacity:1" d="M1.3,13.95L1.3 7.85Q1.3 8.25 2.15 8.75Q3.05 9.35 4.4 9.4L3.2 25.1L1.3 24.7L1.25 24.65Q0.45 24.3 0.4 23.8L0.4 23.65L1.3 13.95" />
<path style="fill:#89544B;fill-opacity:1" d="M5.15,24.65L3.2 25.1L4.4 9.4L6.7 9.1L7.7 8.25Q7.35 9.75 6.85 15L6.2 21.05L6.05 22.4Q5.95 22.95 6 23.6L6 23.7Q6 24.25 5.15 24.65" />
<path style="fill:none;stroke-width:1;stroke-linecap:round;stroke-linejoin:round;stroke-miterlimit:3;stroke:#6C2F2F;stroke-opacity:1" d="M1.3,7.6L1.3 7.8M4.4,9.4L6.7 9.1L7.7 8.25L7.7 8.05M0.4,23.65L0.4 23.8Q0.45 24.3 1.25 24.65L1.3 24.7L3.2 25.1M6,23.7L6 23.6" />
<path style="fill:none;stroke-width:1;stroke-linecap:round;stroke-linejoin:round;stroke-miterlimit:3;stroke:#8D564E;stroke-opacity:1" d="M1.3,7.85Q1.3 8.25 2.15 8.75Q3.05 9.35 4.4 9.4M3.2,25.1L4.4 9.4" />
<path style="fill:none;stroke-width:1;stroke-linecap:round;stroke-linejoin:round;stroke-miterlimit:3;stroke:#A76B58;stroke-opacity:1" d="M7.7,8.05Q7.75 7.4 6.85 6.85Q5.9 6.3 4.6 6.2L2.3 6.5Q1.35 6.95 1.3 7.6" />
<path style="fill:none;stroke-width:1;stroke-linecap:round;stroke-linejoin:round;stroke-miterlimit:3;stroke:#6D433D;stroke-opacity:1" d="M1.3,7.8L1.3 7.85L1.3 13.95L0.4 23.65" />
<path style="fill:none;stroke-width:1;stroke-linecap:round;stroke-linejoin:round;stroke-miterlimit:3;stroke:#532424;stroke-opacity:1" d="M6,23.6Q5.95 22.95 6.05 22.4L6.2 21.05L6.85 15Q7.35 9.75 7.7 8.25M3.2,25.1L5.15 24.65Q6 24.25 6 23.7" />
<path style="fill:none;stroke-width:1;stroke-linecap:round;stroke-linejoin:round;stroke-miterlimit:3;stroke:#FAEEDA;stroke-opacity:1" d="M2.4,7.65Q3.1 7.3 3.75 6.9" />
</g>
</svg>
