<?xml version="1.0" encoding="utf-8"?>
<svg version="1.1" id="Layer_1"
xmlns="http://www.w3.org/2000/svg"
xmlns:xlink="http://www.w3.org/1999/xlink"
xmlns:author="http://www.sothink.com"
width="67px" height="67px"
xml:space="preserve">
<g id="331" transform="matrix(1, 0, 0, 1, 25.25, 46.45)">
<radialGradient
id="RadialGradID_1275" gradientUnits="userSpaceOnUse" gradientTransform="matrix(0.0499878, 0, 0, 0.0499878, 16, -31.75)" spreadMethod ="pad" cx="0" cy="0" r="819.2" fx="0" fy="0" >
<stop  offset="0"  style="stop-color:#0000FF;stop-opacity:1" />
<stop  offset="1"  style="stop-color:#000000;stop-opacity:1" />
</radialGradient>
<path style="fill:url(#RadialGradID_1275) " d="M6.75,-41.7L15.3 -45.95L41.2 -32.95L1.35 -13Q-11.6 -19.5 -24.55 -26.05L5.35 -41L5.9 -41.25L6.4 -41.5L6.75 -41.7" />
<radialGradient
id="RadialGradID_1276" gradientUnits="userSpaceOnUse" gradientTransform="matrix(0.0571899, 0, 0, 0.0571899, 36, -11.75)" spreadMethod ="pad" cx="0" cy="0" r="819.2" fx="0" fy="0" >
<stop  offset="0"  style="stop-color:#0000FF;stop-opacity:1" />
<stop  offset="1"  style="stop-color:#000000;stop-opacity:1" />
</radialGradient>
<path style="fill:url(#RadialGradID_1276) " d="M41.2,-32.95L41.25 -32.95L41.25 -0.15L1.2 19.65L1.35 -8.05L1.35 -13L41.2 -32.95" />
<radialGradient
id="RadialGradID_1277" gradientUnits="userSpaceOnUse" gradientTransform="matrix(0.0282593, 0, 0, 0.0282593, -18, -20.75)" spreadMethod ="pad" cx="0" cy="0" r="819.2" fx="0" fy="0" >
<stop  offset="0"  style="stop-color:#0000FF;stop-opacity:1" />
<stop  offset="1"  style="stop-color:#000000;stop-opacity:1" />
</radialGradient>
<path style="fill:url(#RadialGradID_1277) " d="M-2.9,-10.15L-24.75 -21L-24.55 -26.05Q-11.6 -19.5 1.35 -13L1.35 -8.05L-2.9 -10.15" />
<radialGradient
id="RadialGradID_1278" gradientUnits="userSpaceOnUse" gradientTransform="matrix(0.0289307, 0, 0, 0.0289307, -0.25, -4)" spreadMethod ="pad" cx="0" cy="0" r="819.2" fx="0" fy="0" >
<stop  offset="0"  style="stop-color:#0000FF;stop-opacity:1" />
<stop  offset="1"  style="stop-color:#000000;stop-opacity:1" />
</radialGradient>
<path style="fill:url(#RadialGradID_1278) " d="M-2.9,-10.15L1.35 -8.05L1.2 19.65L-3.1 17.65L-3.1 15.7L-3.1 0.15L-3.1 -4.85L-2.9 -10.15" />
<path style="fill:none;stroke-width:1;stroke-linecap:round;stroke-linejoin:round;stroke-miterlimit:3;stroke:#2F0202;stroke-opacity:1" d="M1.35,-8.05L1.35 -13Q-11.6 -19.5 -24.55 -26.05L-24.75 -21L-2.9 -10.15L1.35 -8.05L1.2 19.65L41.25 -0.15L41.25 -32.95L41.2 -32.95L1.35 -13M5.9,-41.25L5.35 -41L-24.55 -26.05M41.2,-32.95L15.3 -45.95L6.75 -41.7L6.4 -41.5M1.2,19.65L-3.1 17.65L-3.1 15.7L-3.1 0.15L-3.1 -4.85L-2.9 -10.15" />
</g>
</svg>
