<?xml version="1.0" encoding="utf-8"?>
<svg version="1.1" id="Layer_1"
xmlns="http://www.w3.org/2000/svg"
xmlns:xlink="http://www.w3.org/1999/xlink"
xmlns:author="http://www.sothink.com"
width="32px" height="69px"
xml:space="preserve">
<g id="22" transform="matrix(1, 0, 0, 1, 16.5, 31.9)">
<path style="fill:#FF0000;fill-opacity:1" d="M1.35,-20.45Q3.3 -20.1 10.25 -13.7Q15.25 -5.9 11.45 1.9Q15.6 11.95 12.35 19.2Q5.1 22.95 2.25 22.7L0.7 22.8L0.65 22.8L-1.85 22.65L-2.4 22.6Q-5.4 22.6 -10.15 20.2Q-17.4 13.6 -13.4 1.2Q-15.75 -10.45 -11.65 -18.05Q-3.85 -20.5 -0.4 -20.5L0.6 -20.8L1.35 -20.45" />
<path style="fill:#333333;fill-opacity:1" d="M-6.95,27.25Q0.15 29.5 8.25 27L8.25 32.75Q0.5 37.65 -7.25 32.75L-7.25 27.15L-6.95 27.25M-8.25,-23L-8.25 -28Q-1 -33.8 7.25 -28L7.25 -22.95Q-0.5 -24.85 -8.25 -23" />
<path style="fill:#D10101;fill-opacity:0.501961" d="M-7.25,27.15Q-11.35 25.9 -15.5 23L-15.5 20.5L-15.5 10.75L-15.5 0.75L-15.5 -9.25L-15.5 -20.5Q-11.85 -22.15 -8.25 -23Q-0.5 -24.85 7.25 -22.95Q10.75 -22.1 14.25 -20.5L14.25 -10L14.25 0L14.25 10L14.25 19.75L14.25 23Q3.65 30.4 -6.95 27.25L-7.25 27L-7.25 27.15" />
<path style="fill:none;stroke-width:1;stroke-linecap:round;stroke-linejoin:round;stroke-miterlimit:3;stroke:#333333;stroke-opacity:1" d="M-6.95,27.25L-7.25 27L-7.25 27.15L-6.95 27.25M14.25,0Q-0.6 8.25 -15.5 0.75M-15.5,10.75Q-0.6 18.25 14.25 10M-15.5,-20.5Q-0.6 -12.7 14.25 -20.5M-15.5,20.5Q-0.6 28 14.25 19.75M14.25,-10Q-0.6 -1.75 -15.5 -9.25" />
<path style="fill:none;stroke-width:2;stroke-linecap:round;stroke-linejoin:round;stroke-miterlimit:3;stroke:#000000;stroke-opacity:1" d="M7.25,-22.95Q10.75 -22.1 14.25 -20.5L14.25 -10L14.25 0L14.25 10L14.25 19.75L14.25 23Q3.65 30.4 -6.95 27.25Q0.15 29.5 8.25 27L8.25 32.75Q0.5 37.65 -7.25 32.75L-7.25 27.15Q-11.35 25.9 -15.5 23L-15.5 20.5L-15.5 10.75L-15.5 0.75L-15.5 -9.25L-15.5 -20.5Q-11.85 -22.15 -8.25 -23L-8.25 -28Q-1 -33.8 7.25 -28L7.25 -22.95Q-0.5 -24.85 -8.25 -23" />
</g>
</svg>
