<?xml version="1.0" encoding="utf-8"?>
<svg version="1.1" id="Layer_1"
xmlns="http://www.w3.org/2000/svg"
xmlns:xlink="http://www.w3.org/1999/xlink"
xmlns:author="http://www.sothink.com"
width="217px" height="109px"
xml:space="preserve">
<g id="340" transform="matrix(1, 0, 0, 1, 0.25, 0.25)">
<path style="fill:#FFFF00;fill-opacity:1" d="M28.4,68.2L27 67.5L26.75 67.4L25.45 66.75L21.9 64.95L21.7 64.85L18 63L9 58.5L0 54L9 49.5L18 45L21.65 43.15L25.45 41.25L27 40.5L31.7 38.15L33.85 37.05L36 36L36.05 35.95L45 31.5L54 27L57 25.5L58.4 24.8L63 22.5L72 18L72.1 17.95L81 13.5L89.7 9.15L90 9L99 4.5L99.75 4.15L101.9 3.05L108 0L117 4.5L123.9 7.95L126 9L131.1 11.55L133.2 12.65L135 13.55L143.25 17.65L144 18L153 22.5L154.4 23.2L160.4 26.2L162 27L171 31.5L176 34L176.4 34.2L179.4 35.7L180 36L189 40.5L189.4 40.7L194.4 43.2L198 45L199.15 45.55L199.9 45.95L201.25 46.65L204.4 48.2L207 49.5L210.4 51.2L211.3 51.65L213.95 53L216.05 54.05L213.95 55.05L211.35 56.35L210.4 56.85L207 58.55L204.4 59.85L201.3 61.4L200.15 61.95L199.2 62.45L198.2 62.95L198.05 63.05L194.4 64.85L189 67.55L186.15 68.95L180 72L179.4 72.3L176.05 74L171 76.5L170.1 76.95L168.1 77.95L167.4 77.95L167.4 78.3L162 81L157.4 83.3L154.1 84.95L151.9 84.95L151.4 84.95L151.4 86.3L144 90L143.3 90.35L135 94.5L133.25 95.4L131.15 96.45L130.4 96.8L130.15 96.95L126 99L117 103.5L116.4 103.8L108.05 108L101.95 104.95L99.8 103.9L99.05 103.5L92.4 100.2L90.05 99L89.75 98.85L88.4 98.2L84.4 96.2L81.05 94.5L72.05 90L63.05 85.5L61.95 84.95L61.4 84.7L57.05 82.5L54 81L45 76.5L36 72L33.9 70.95L31.75 69.9L31 69.5L29.95 69L28.4 68.2" />
<path style="fill:none;stroke-width:0.5;stroke-linecap:round;stroke-linejoin:round;stroke-miterlimit:3;stroke:#580099;stroke-opacity:1" d="M135,94.5L133.25 95.4L131.15 96.45L130.4 96.8L130.15 96.95L126 99L117 103.5L116.4 103.8L108.05 108L101.95 104.95L99.8 103.9L99.05 103.5L92.4 100.2L90.05 99L89.75 98.85L88.4 98.2L84.4 96.2L81.05 94.5L72.05 90L63.05 85.5L61.95 84.95L61.4 84.7L57.05 82.5L54 81L45 76.5L36 72L33.9 70.95L31.75 69.9L31 69.5L29.95 69L28.9 68.45L28.4 68.2L27 67.5L26.75 67.4L25.45 66.75L21.9 64.95L21.7 64.85L18 63L9 58.5L0 54L9 49.5L18 45L21.65 43.15L25.45 41.25L27 40.5L31.7 38.15L33.85 37.05L36 36L36.05 35.95L45 31.5L54 27L57 25.5L58.4 24.8L63 22.5L72 18L72.1 17.95L81 13.5L89.7 9.15L90 9L99 4.5L99.75 4.15L101.9 3.05L108 0L117 4.5L123.9 7.95L126 9L131.1 11.55L133.2 12.65L135 13.55L143.25 17.65L144 18L153 22.5L154.4 23.2L160.4 26.2L162 27L171 31.5L176 34L176.4 34.2L179.4 35.7L180 36L189 40.5L189.4 40.7L194.4 43.2L198 45L199.15 45.55L199.9 45.95L201.25 46.65L204.4 48.2L207 49.5L210.4 51.2L211.3 51.65L213.95 53L216.05 54.05L213.95 55.05L211.35 56.35L210.4 56.85L207 58.55L204.4 59.85L201.3 61.4L200.15 61.95L199.2 62.45L198.2 62.95L198.05 63.05L194.4 64.85L189 67.55L186.15 68.95L180 72L179.4 72.3L176.05 74L171 76.5L170.1 76.95L168.1 77.95M167.4,78.3L162 81L157.4 83.3L154.1 84.95L152 86M135,94.5L143.3 90.35L144 90L151.4 86.3M28.4,68.2L29.95 69" />
<path style="fill:none;stroke-width:0.5;stroke-linecap:round;stroke-linejoin:round;stroke-miterlimit:3;stroke:#580099;stroke-opacity:1" d="M171,31.5L162 36L171 40.5L180 36M162,45L171 49.5L180 45L171 40.5L162 45L153 40.5L144 45L153 49.5L162 45M189,40.5L180 45L189 49.5L198 45M207,58.55L198 54L189 49.5L180 54L189 58.5L198 54L207 49.5M198.05,63.05L189 58.5L180 63L189 67.55M126,18L117 22.5L126 27L135 22.5L144 27L135 31.5L126 27L117 31.5L108 27L99 31.5L108 36L99 40.5L108 45L99 49.5L108 54L117 49.5L126 54L135 49.5L144 54L153 49.5L162 54L171 49.5L180 54L171 58.5L180 63L171 67.5L180 72M126,18L117 13.5L108 18L117 22.5L108 27L99 22.5L90 27L99 31.5L90 36L99 40.5L90 45L99 49.5L90 54L99 58.5L108 54L117 58.5L126 54L135 58.5L144 54L153 58.5L162 54L171 58.5L162 63L171 67.5L162 72L171 76.5M135,13.55L126 18L135 22.5L144 18M135,40.5L126 36L117 40.5L126 45L135 40.5L144 36L135 31.5L126 36L117 31.5L108 36L117 40.5L108 45L117 49.5L126 45L135 49.5L144 45L135 40.5M144,36L153 40.5L162 36L153 31.5L144 36M153,22.5L144 27L153 31.5L162 27M117,4.5L108 9L117 13.5L126 9M72,18L81 22.5L90 18L81 13.5M99,13.5L108 18L99 22.5L90 18L99 13.5L90 9M81,31.5L72 36L81 40.5L90 36L81 31.5L72 27L63 31.5L72 36L63.05 40.5L72 45L81 40.5L90 45L81 49.5L90 54L81 58.5L90 63L99 58.5L108 63L117 58.5L126 63L135 58.5L144 63L153 58.5L162 63L153 67.5L162 72L153 76.5L162 81M81,31.5L90 27L81 22.5L72 27L63 22.5M99,13.5L108 9L99 4.5M144,72L135 76.5L126 72L117 67.5L108 63L99 67.5L108 72L117 67.5L126 63L135 67.5L144 63L153 67.5L144 72L153 76.5L144 81L151.9 84.95M81,67.5L90 72L99 67.5L90 63L81 67.5L72 63L63 67.5L72 72L81 67.5M90,81L99 76.5L90 72L81 76.5L90 81L99 85.5L108 81L99 76.5L108 72L117 76.5L126 72L135 67.5L144 72M90,81L81 85.5L90 90L99 85.5L108 90L117 85.5L108 81L117 76.5L126 81L135 76.5L144 81L135 85.5L144 90M81.05,94.5L90 90L99 94.5L108 90L117 94.5L126 90L117 85.5L126 81L135 85.5L126 90L135 94.5M45.05,40.5L36.05 45L45.05 49.5L54.05 45L45.05 40.5L36 36M45.05,40.5L54.05 36L45 31.5M54,27L63 31.5L54.05 36L63.05 40.5L54.05 45L63 49.5L72 45L81 49.5L72 54L81 58.5L72 63L63 58.5L54 63L63 67.5L54 72L63 76.5L72 72L81 76.5L72 81L81 85.5L72.05 90M27,40.5L36.05 45L27.05 49.5L36.05 54L45.05 49.5L54 54L63 49.5L72 54L63 58.5L54 54L45 58.5L54 63L45 67.5L54 72L45 76.5M27,67.5L36 63L27.05 58.5L18 63M36,63L45 58.5L36.05 54L27.05 58.5L18.05 54L9 58.5M18,45L27.05 49.5L18.05 54L9 49.5M63.05,85.5L72 81L63 76.5L54 81M36,63L45 67.5L36 72M126,99L117 94.5L108 99L117 103.5M99.05,103.5L108 99L99 94.5L90.05 99" />
</g>
</svg>
