<?xml version="1.0" encoding="utf-8"?>
<svg version="1.1" id="Layer_1"
xmlns="http://www.w3.org/2000/svg"
xmlns:xlink="http://www.w3.org/1999/xlink"
xmlns:author="http://www.sothink.com"
width="28px" height="43px"
xml:space="preserve">
<g id="123" transform="matrix(1, 0, 0, 1, 6.6, 72.85)">
<path style="fill:#E24747;fill-opacity:1" d="M18.2,-55.8Q16.9 -53.05 13.85 -50.7L14.4 -52.35Q14.85 -54.1 14.9 -55.4L14.25 -57.55L13 -59.8Q11.6 -61.55 10.15 -61.85L4.15 -62.75L-0.25 -62.4Q-3.4 -61.95 -4.1 -61.5Q-3.9 -62.95 -2.4 -66.1Q-0.8 -69.45 0.35 -70.4Q2.4 -72.1 7.7 -72.3Q11.65 -72.55 14.65 -70.85Q17.5 -69.25 18.8 -66.85L19.65 -64.75L20.1 -62.4Q18.9 -57.25 18.2 -55.8M13.6,-49L12.85 -48.6L13.25 -48.85L13.6 -49" />
<path style="fill:#999999;fill-opacity:1" d="M-4.1,-61.5Q-3.4 -61.95 -0.25 -62.4L4.15 -62.75L10.15 -61.85Q11.6 -61.55 13 -59.8L14.25 -57.55L14.9 -55.4Q14.85 -54.1 14.4 -52.35L13.85 -50.7Q11.15 -48.5 8.35 -48.95Q6.25 -49.25 1.9 -51.7Q0.4 -52.55 -1 -53.8L-2.35 -55.1Q-3.75 -56.8 -4.05 -57.75Q-4.5 -59.05 -4.1 -61.5" />
<path style="fill:#787878;fill-opacity:1" d="M-5.2,-58.95Q-4.8 -60.8 -4.1 -61.5Q-4.5 -59.05 -4.05 -57.75Q-3.75 -56.8 -2.35 -55.1L-1 -53.8Q0.4 -52.55 1.9 -51.7Q6.25 -49.25 8.35 -48.95Q11.15 -48.5 13.85 -50.7L13.4 -49.25L13.25 -48.85L10.95 -48.35L8.2 -47.95Q4.85 -47.35 2 -47.85Q0.45 -48.1 -0.4 -48.5Q-1.6 -49.05 -2.85 -50.3Q-4.65 -52.1 -5.25 -53.5L-5.85 -56.1Q-5.55 -56.9 -5.2 -58.95" />
<path style="fill:#C40202;fill-opacity:1" d="M-5.85,-56.1L-6.1 -59.3Q-6.15 -61.75 -5.9 -62.4L-4.25 -66.2Q-3.15 -68.15 0.35 -70.4Q-0.8 -69.45 -2.4 -66.1Q-3.9 -62.95 -4.1 -61.5Q-4.8 -60.8 -5.2 -58.95Q-5.55 -56.9 -5.85 -56.1M13.85,-50.7Q16.9 -53.05 18.2 -55.8Q18.9 -57.25 20.1 -62.4L20.3 -60.3Q20.55 -55.5 18.95 -52.8Q18.05 -51.3 16.5 -50.3Q15.4 -49.6 13.6 -49L13.25 -48.85L13.4 -49.25L13.85 -50.7" />
<path style="fill:none;stroke-width:1;stroke-linecap:round;stroke-linejoin:round;stroke-miterlimit:3;stroke:#6C2F2F;stroke-opacity:1" d="M20.1,-62.4L19.65 -64.75L18.8 -66.85Q17.5 -69.25 14.65 -70.85Q11.65 -72.55 7.7 -72.3Q2.4 -72.1 0.35 -70.4M13,-59.8L14.25 -57.55L14.9 -55.4Q14.85 -54.1 14.4 -52.35L13.85 -50.7M20.1,-62.4L20.3 -60.3Q20.55 -55.5 18.95 -52.8Q18.05 -51.3 16.5 -50.3Q15.4 -49.6 13.6 -49L12.85 -48.6L13.25 -48.85L13.4 -49.25L13.85 -50.7M-5.85,-56.1L-6.1 -59.3Q-6.15 -61.75 -5.9 -62.4L-4.25 -66.2Q-3.15 -68.15 0.35 -70.4M13.6,-49L13.25 -48.85" />
<path style="fill:none;stroke-width:1;stroke-linecap:round;stroke-linejoin:round;stroke-miterlimit:3;stroke:#666666;stroke-opacity:1" d="M-4.1,-61.5Q-3.4 -61.95 -0.25 -62.4L4.15 -62.75L10.15 -61.85Q11.6 -61.55 13 -59.8M-2.85,-50.3Q-4.65 -52.1 -5.25 -53.5L-5.85 -56.1M-4.1,-61.5Q-4.8 -60.8 -5.2 -58.95Q-5.55 -56.9 -5.85 -56.1" />
<path style="fill:none;stroke-width:1;stroke-linecap:round;stroke-linejoin:round;stroke-miterlimit:3;stroke:#515151;stroke-opacity:1" d="M13.25,-48.85L10.95 -48.35L8.2 -47.95Q4.85 -47.35 2 -47.85Q0.45 -48.1 -0.4 -48.5Q-1.6 -49.05 -2.85 -50.3" />
<path style="fill:#999999;fill-opacity:1" d="M6.7,-55.95Q8.8 -54.5 8.9 -53Q8.95 -52.4 8.35 -51.75Q7.7 -51.15 7 -51.05Q6.05 -50.8 5.35 -51.3Q4.5 -51.95 3.7 -54.05Q3.55 -52.2 2.55 -51.2Q2.15 -50.8 1.2 -50.85L-0.05 -51.2Q-0.95 -51.65 -1.05 -52.65L-0.95 -54.15L-0.5 -55.1L0.55 -55.75L6.7 -55.95" />
<path style="fill:none;stroke-width:1;stroke-linecap:round;stroke-linejoin:round;stroke-miterlimit:3;stroke:#515151;stroke-opacity:1" d="M6.7,-55.95Q8.8 -54.5 8.9 -53Q8.95 -52.4 8.35 -51.75Q7.7 -51.15 7 -51.05Q6.05 -50.8 5.35 -51.3Q4.5 -51.95 3.7 -54.05Q3.55 -52.2 2.55 -51.2Q2.15 -50.8 1.2 -50.85L-0.05 -51.2Q-0.95 -51.65 -1.05 -52.65L-0.95 -54.15L-0.5 -55.1L0.55 -55.75" />
<path style="fill:#666666;fill-opacity:1" d="M6.2,-60.9Q6.55 -61.3 7.05 -61.35L7.95 -61.05L8.35 -60.2Q8.4 -59.65 8.05 -59.25Q7.7 -58.85 7.2 -58.85Q6.7 -58.8 6.3 -59.15Q5.9 -59.45 5.85 -60Q5.8 -60.5 6.2 -60.9M0.4,-59.4Q0.15 -59 -0.3 -58.95Q-0.7 -58.95 -1 -59.25L-1.35 -60.1Q-1.4 -60.65 -1.05 -61L-0.4 -61.4Q0 -61.45 0.3 -61.1L0.65 -60.3Q0.7 -59.75 0.4 -59.4" />
<path style="fill:none;stroke-width:1;stroke-linecap:round;stroke-linejoin:round;stroke-miterlimit:3;stroke:#333333;stroke-opacity:1" d="M6.2,-60.9Q6.55 -61.3 7.05 -61.35L7.95 -61.05L8.35 -60.2Q8.4 -59.65 8.05 -59.25Q7.7 -58.85 7.2 -58.85Q6.7 -58.8 6.3 -59.15Q5.9 -59.45 5.85 -60Q5.8 -60.5 6.2 -60.9M0.4,-59.4Q0.15 -59 -0.3 -58.95Q-0.7 -58.95 -1 -59.25L-1.35 -60.1Q-1.4 -60.65 -1.05 -61L-0.4 -61.4Q0 -61.45 0.3 -61.1L0.65 -60.3Q0.7 -59.75 0.4 -59.4" />
<path style="fill:none;stroke-width:1;stroke-linecap:round;stroke-linejoin:round;stroke-miterlimit:3;stroke:#EA8080;stroke-opacity:1" d="M14.25,-33.75Q14.25 -32 14.5 -31M15.75,-34.5Q15.75 -33.25 16 -32M16.25,-38L18.25 -39.5M-3,-35.75Q-1.55 -34.75 -1 -34.5" />
</g>
</svg>
