<?xml version="1.0" encoding="utf-8"?>
<svg version="1.1" id="Layer_1"
xmlns="http://www.w3.org/2000/svg"
xmlns:xlink="http://www.w3.org/1999/xlink"
xmlns:author="http://www.sothink.com"
width="9px" height="7px"
xml:space="preserve">
<g id="866" transform="matrix(1, 0, 0, 1, -25.1, -33.05)">
<path style="fill:#000000;fill-opacity:1" d="M31.5,33.05L32.55 33.05Q33.45 34.65 33.45 36.2Q33.45 37.75 32.8 38.6Q32.2 39.4 31.2 39.4Q29.85 39.4 29.3 38Q28.7 39.4 27.4 39.4Q26.35 39.4 25.75 38.55Q25.1 37.7 25.1 36.2Q25.1 34.65 26.05 33.05L27.05 33.05Q26.2 34.95 26.2 36.3Q26.2 37.3 26.55 37.95Q26.95 38.55 27.5 38.55L28.2 38.25L28.65 37.55L28.75 36.4L28.75 34.6L29.8 34.6L29.8 36.4L29.9 37.55Q30.05 38 30.35 38.3L31.05 38.55Q31.65 38.55 32 37.95Q32.4 37.3 32.4 36.3Q32.4 34.95 31.5 33.05" />
</g>
</svg>
