<?xml version="1.0" encoding="utf-8"?>
<svg version="1.1" id="Layer_1"
xmlns="http://www.w3.org/2000/svg"
xmlns:xlink="http://www.w3.org/1999/xlink"
xmlns:author="http://www.sothink.com"
width="160px" height="87px"
xml:space="preserve">
<g id="427" transform="matrix(1, 0, 0, 1, 79.6, 86.3)">
<path style="fill:#B9B8AC;fill-opacity:1" d="M78.85,-61.8L79.3 -62L79.35 -62L79.4 -62.05L79.35 -60.05L69.35 -55L29.4 -75.05L29.4 -81.05L69.35 -61L69.4 -61L69.4 -61.05L79.35 -66L79.4 -66L79.35 -64.05L79.3 -64L79.35 -64L79.4 -64L79.35 -62.05L78.85 -61.8M69.4,-59L69.4 -59.05L69.35 -59L69.4 -59M-29.45,-7L-29.4 -7L-29.35 -7.05L-29.4 -5.05L-39.4 0L-79.35 -20.05L-79.35 -26.05L-39.4 -6L-39.35 -6L-39.35 -6.05Q-34.4 -8.55 -29.4 -11L-29.35 -11L-29.4 -9.05L-29.45 -9L-29.4 -9L-29.35 -9L-29.4 -7.05L-29.9 -6.8L-29.45 -7M-39.35,-4L-39.35 -4.05L-39.4 -4L-39.35 -4" />
<path style="fill:#DBDAD0;fill-opacity:1" d="M79.35,-62.05L79.3 -62L78.85 -61.8L79.35 -62.05M-29.9,-6.8L-29.4 -7.05L-29.45 -7L-29.9 -6.8" />
<path style="fill:#CAC9C0;fill-opacity:1" d="M29.4,-81.05L39.4 -86.05L79.35 -66L69.4 -61.05L69.35 -61L29.4 -81.05M-39.35,-6.05L-39.4 -6L-79.35 -26.05L-69.35 -31.05L-29.4 -11Q-34.4 -8.55 -39.35 -6.05" />
<path style="fill:#E7E6E0;fill-opacity:1" d="M69.4,-61.05L69.4 -61L69.35 -61L69.4 -61.05M69.35,-59L69.4 -59.05L69.4 -59L69.35 -59M-39.4,-6L-39.35 -6.05L-39.35 -6L-39.4 -6M-39.4,-4L-39.35 -4.05L-39.35 -4L-39.4 -4" />
<path style="fill:none;stroke-width:0.5;stroke-linecap:round;stroke-linejoin:round;stroke-miterlimit:3;stroke:#676767;stroke-opacity:1" d="M79.4,-66L79.4 -66.05L79.35 -66L69.4 -61.05L69.4 -61L69.35 -59L69.4 -59.05L69.4 -59L69.35 -57L69.4 -57.05L69.35 -55M79.4,-66L79.35 -64.05L79.3 -64L79.35 -64L79.4 -64.05L79.4 -64L79.35 -62.05L79.3 -62L79.35 -62L79.4 -62.05L79.35 -60.05L69.35 -55L29.4 -75.05L29.4 -81.05L39.4 -86.05L79.35 -66M69.4,-61.05L69.35 -61L29.4 -81.05M-29.4,-11L-69.35 -31.05L-79.35 -26.05L-39.4 -6L-39.35 -6.05Q-34.4 -8.55 -29.4 -11L-29.35 -11.05L-29.35 -11L-29.4 -9.05L-29.45 -9L-29.4 -9L-29.35 -9.05L-29.35 -9L-29.4 -7.05L-29.45 -7L-29.4 -7L-29.35 -7.05L-29.4 -5.05L-39.4 0L-79.35 -20.05L-79.35 -26.05M-39.35,-6.05L-39.35 -6L-39.4 -4L-39.35 -4.05L-39.35 -4L-39.4 -2L-39.35 -2.05L-39.4 0" />
</g>
</svg>
