<?xml version="1.0" encoding="utf-8"?>
<svg version="1.1" id="Layer_1"
xmlns="http://www.w3.org/2000/svg"
xmlns:xlink="http://www.w3.org/1999/xlink"
xmlns:author="http://www.sothink.com"
width="81px" height="43px"
xml:space="preserve">
<g id="595" transform="matrix(1, 0, 0, 1, 40.3, 20.25)">
<path style="fill:#E7E6E0;fill-opacity:1" d="M-10.05,-15.1L-0.25 -20L-0.2 -20L-10 -15.05L-10.05 -15.1M-30,-5.1L-30.5 -4.85L-30.65 -4.75L-40 -0.05L-40.05 -0.1L-30.05 -5.1L-30 -5.1M-10.05,14.95L-10 14.95L-0.1 19.95L-10.05 14.95" />
<path style="fill:#DBDAD0;fill-opacity:1" d="M19.8,-10L19.6 -9.9L19.75 -10L19.8 -10M-20.05,-9.9L-20.2 -10L-29.4 -5.4L-29.55 -5.3L-30 -5.1L-30.05 -5.1L-10.05 -15.1L-10 -15.05L-20 -10.05L-20.05 -10.05L-19.9 -10L-20.05 -9.9M19.25,9.6L19.3 9.6L19.15 9.7L19.1 9.7L19.25 9.6M19.75,9.85L19.9 9.95L19.75 10L19.6 9.9L19.75 9.85M-10.05,14.95L-20 9.95L-10 14.95L-10.05 14.95" />
<path style="fill:#99977B;fill-opacity:1" d="M-40,-0.05L-40.05 -0.05L-40.05 -0.1L-40 -0.05" />
<path style="fill:#71403E;fill-opacity:1" d="M19.9,9.95L19.75 9.85L19.3 9.6L19.25 9.6L0.5 0.25L20.2 -9.6L19.75 -9.85L19.25 -9.6L19.7 -9.85L19.6 -9.9L-0.25 -19.85Q-10.1 -14.9 -19.9 -10L-20.05 -10.05L-20 -10.05L-10 -15.05L-0.2 -20L19.75 -10L19.6 -9.9L19.8 -10L39.75 0L39.7 0.05L24.6 7.6L23.5 8.15L23.25 8.3L21.65 9.1L22.45 8.7L20 9.95L19.95 9.95L19.9 9.95M-20.05,9.95L-40.05 -0.05L-40 -0.05L-30.65 -4.75L-30.5 -4.85L-29.55 -5.3L-29.4 -5.4L-20.2 -10L-20.05 -9.9L-20.1 -9.9L-0.9 -0.3L-20.5 9.55L-20.55 9.55L-0.55 19.55L-0.5 19.55L-0.1 19.75L19.6 9.9L19.75 10L0.9 19.5L0 19.95L-0.05 19.95L-0.1 19.95L-10 14.95L-20 9.95L-20.05 9.95M18.8,9.85L19.1 9.7L19.15 9.7L18.8 9.85" />
<path style="fill:#522E2E;fill-opacity:1" d="M-0.1,19.95L-0.05 19.95L0 19.95L0.9 19.5L19.75 10L19.9 9.95L19.95 9.95L20 9.95L22.45 8.7L23.25 8.3L23.5 8.15L24.6 7.6L39.7 0.05L39.7 1.95L-0.1 21.95L-40.05 1.9L-40.05 -0.05L-20.05 9.95L-20 9.95L-10.05 14.95L-0.1 19.95" />
<path style="fill:#6A3C3C;fill-opacity:1" d="M-19.9,-10Q-10.1 -14.9 -0.25 -19.85L19.6 -9.9L19.7 -9.85L19.25 -9.6L19.75 -9.85L20.2 -9.6L0.5 0.25L19.25 9.6L19.1 9.7L18.8 9.85L19.15 9.7L19.3 9.6L19.75 9.85L19.6 9.9L-0.1 19.75L-0.5 19.55L-0.55 19.55L-20.55 9.55L-20.5 9.55L-0.9 -0.3L-20.1 -9.9L-20.05 -9.9L-19.9 -10" />
<path style="fill:none;stroke-width:0.5;stroke-linecap:round;stroke-linejoin:round;stroke-miterlimit:3;stroke:#3A2C2C;stroke-opacity:1" d="M23.25,8.3L23.5 8.15L24.6 7.6L39.7 0.05L39.75 0L19.8 -10L19.75 -10L-0.2 -20M19.9,9.95L21.15 9.3L21.65 9.1M39.7,0.05L39.7 1.95L-0.1 21.95L-40.05 1.9L-40.05 -0.05L-40.05 -0.1L-30.05 -5.1L-10.05 -15.1L-0.25 -20L-0.2 -20M23.25,8.3L22.45 8.7L21.65 9.1M19.9,9.95L19.75 10L0.9 19.5M-0.05,19.95L-0.1 21.95M-40,-0.05L-40.05 -0.1L-40 -0.05L-20 9.95L-10.05 14.95L-0.1 19.95M-0.05,19.95Q0.4 19.7 0.9 19.5" />
<path style="fill:none;stroke-width:0.5;stroke-linecap:round;stroke-linejoin:round;stroke-miterlimit:3;stroke:#3A2C2C;stroke-opacity:1" d="M-20.05,9.95L-0.05 -0.05L-20.05 -10.1M19.75,-10L-0.05 -0.05L19.9 9.95" />
</g>
</svg>
