<?xml version="1.0" encoding="utf-8"?>
<svg version="1.1" id="Layer_1"
xmlns="http://www.w3.org/2000/svg"
xmlns:xlink="http://www.w3.org/1999/xlink"
xmlns:author="http://www.sothink.com"
width="11px" height="41px"
xml:space="preserve">
<g id="323" transform="matrix(1, 0, 0, 1, 8.05, 33.25)">
<linearGradient
id="LinearGradID_1244" gradientUnits="userSpaceOnUse" gradientTransform="matrix(0.00164795, 0, 0, 0.00265503, -2.85, -30.45)" spreadMethod ="pad" x1="-819.2" y1="0" x2="819.2" y2="0" >
<stop  offset="0" style="stop-color:#FDE68A;stop-opacity:1" />
<stop  offset="1" style="stop-color:#F0F1D6;stop-opacity:1" />
</linearGradient>
<path style="fill:url(#LinearGradID_1244) " d="M-1,-32.5L-1.1 -32.55L-1.05 -32.6L-1 -32.6L-1 -32.5" />
<linearGradient
id="LinearGradID_1245" gradientUnits="userSpaceOnUse" gradientTransform="matrix(0.00375366, 0, 0, 0.00891113, -1.85, -3.1)" spreadMethod ="pad" x1="-819.2" y1="0" x2="819.2" y2="0" >
<stop  offset="0" style="stop-color:#F2BF28;stop-opacity:1" />
<stop  offset="1" style="stop-color:#F2EBBD;stop-opacity:1" />
</linearGradient>
<path style="fill:url(#LinearGradID_1245) " d="M2.2,0.95Q2.2 1.65 1.8 2.25L1.8 2.3L0.75 3.2Q-0.7 4.2 -2.8 4.25Q-4.55 4.25 -5.85 3.55L-5.85 -7.8Q-4.55 -7.05 -2.8 -7.05Q-0.7 -7.05 0.75 -8.1Q2.15 -9 2.2 -10.4L2.2 0.95" />
<linearGradient
id="LinearGradID_1246" gradientUnits="userSpaceOnUse" gradientTransform="matrix(0.00610352, 0, 0, 0.0138245, -2.8, -21.25)" spreadMethod ="pad" x1="-819.2" y1="0" x2="819.2" y2="0" >
<stop  offset="0" style="stop-color:#327436;stop-opacity:0.8" />
<stop  offset="0.486275" style="stop-color:#56AE42;stop-opacity:1" />
<stop  offset="1" style="stop-color:#306733;stop-opacity:1" />
</linearGradient>
<path style="fill:url(#LinearGradID_1246) " d="M-1,-32.5L-0.9 -28.5L-0.45 -23.15Q-0.1 -20.6 0.45 -18.5Q1.05 -16.05 1.8 -14.65L2 -14.3L2.2 -13.2L2.2 -13.15Q2.15 -11.8 0.75 -10.85Q-0.7 -9.9 -2.8 -9.9Q-4.85 -9.9 -6.35 -10.85Q-7.75 -11.8 -7.8 -13.2Q-7.8 -13.9 -7.45 -14.5L-7.4 -14.55L-7.2 -14.85L-6.1 -18.5L-5.2 -23.2Q-4.9 -25.65 -4.75 -28.5L-4.65 -32.55L-2.9 -32.35L-1.1 -32.55L-1 -32.5" />
<linearGradient
id="LinearGradID_1247" gradientUnits="userSpaceOnUse" gradientTransform="matrix(0.00610352, 0, 0, 0.0123291, -2.8, -3.1)" spreadMethod ="pad" x1="-819.2" y1="0" x2="819.2" y2="0" >
<stop  offset="0" style="stop-color:#327436;stop-opacity:0.8" />
<stop  offset="0.486275" style="stop-color:#56AE42;stop-opacity:1" />
<stop  offset="1" style="stop-color:#306733;stop-opacity:1" />
</linearGradient>
<path style="fill:url(#LinearGradID_1247) " d="M-7.75,3.15L-7.8 -13.2Q-7.75 -11.8 -6.35 -10.85Q-4.85 -9.9 -2.8 -9.9Q-0.7 -9.9 0.75 -10.85Q2.15 -11.8 2.2 -13.15L2.2 -10.4Q2.15 -9 0.75 -8.1Q-0.7 -7.05 -2.8 -7.05Q-4.55 -7.05 -5.85 -7.8L-5.85 3.55Q-4.55 4.25 -2.8 4.25Q-0.7 4.2 0.75 3.2L1.8 2.3L1.8 2.25Q2.2 1.65 2.2 0.95L2.2 3.65L2.2 3.7Q2.2 5.1 0.75 6.05Q-0.7 7 -2.8 7Q-4.85 7 -6.35 6.05Q-7.65 5.2 -7.75 3.9L-7.75 3.15" />
<path style="fill:none;stroke-width:0.5;stroke-linecap:round;stroke-linejoin:round;stroke-miterlimit:3;stroke:#220000;stroke-opacity:1" d="M2.2,3.65L2.2 0.95L2.2 -10.4L2.2 -13.15L2.2 -13.2M-7.75,3.15L-7.8 -13.2M-7.75,3.15L-7.75 3.9" />
<path style="fill:none;stroke-width:0.5;stroke-linecap:round;stroke-linejoin:round;stroke-miterlimit:3;stroke:#220000;stroke-opacity:1" d="M2.2,-13.2L2 -14.3L1.8 -14.65Q1.05 -16.05 0.45 -18.5Q-0.1 -20.6 -0.45 -23.15L-0.9 -28.5L-1 -32.5L-1.1 -32.55L-2.9 -32.35L-4.65 -32.55L-4.75 -28.5Q-4.9 -25.65 -5.2 -23.2L-6.1 -18.5L-7.2 -14.85L-7.4 -14.55L-7.45 -14.5Q-7.8 -13.9 -7.8 -13.2M-1.05,-32.6L-1.1 -32.55L-1.05 -32.6L-1 -32.6L-2.85 -33L-4.65 -32.55M-1.1,-32.55L-1 -32.6L-1 -32.5M-7.75,3.9Q-7.65 5.2 -6.35 6.05Q-4.85 7 -2.8 7Q-0.7 7 0.75 6.05Q2.2 5.1 2.2 3.7L2.2 3.65M-7.75,3.9L-7.8 3.65L-7.75 3.15" />
<path style="fill:none;stroke-width:0.5;stroke-linecap:round;stroke-linejoin:round;stroke-miterlimit:3;stroke:#220000;stroke-opacity:0.101961" d="M-7.8,-13.2Q-7.75 -11.8 -6.35 -10.85Q-4.85 -9.9 -2.8 -9.9Q-0.7 -9.9 0.75 -10.85Q2.15 -11.8 2.2 -13.15" />
</g>
</svg>
