<?xml version="1.0" encoding="utf-8"?>
<svg version="1.1" id="Layer_1"
xmlns="http://www.w3.org/2000/svg"
xmlns:xlink="http://www.w3.org/1999/xlink"
xmlns:author="http://www.sothink.com"
width="71px" height="14px"
xml:space="preserve">
<g id="726" transform="matrix(1, 0, 0, 1, 36.3, 26.05)">
<path style="fill:#2B5E1C;fill-opacity:1" d="M29.35,-17.85L29.15 -17.9L29 -17.9L28.75 -17.9L28.6 -17.95L27.5 -18.2L26.85 -18.4L25.95 -18.9Q24.55 -19.15 23.6 -20.25L23.55 -20.3L23.35 -20.8L23.3 -20.95L23.3 -21.05L23.35 -21.2Q23.6 -21.55 24 -21.6L26.05 -20.55L26.4 -20.45Q28.9 -20.25 31.45 -20.35L33.35 -20.1L33.55 -20L34 -18.55L34 -18.5L33.35 -18.1L32.8 -17.95L30.75 -17.85L29.7 -17.9L29.35 -17.85" />
<path style="fill:#558046;fill-opacity:1" d="M33.35,-18.1L34 -18.5L34.1 -18.05L32.8 -17.95L33.35 -18.1M29.7,-17.9L30.75 -17.85L29.35 -17.85L29.7 -17.9M25.95,-18.9L26.85 -18.4L27.5 -18.2L28.6 -17.95Q24.7 -18.25 23.6 -20.25Q24.55 -19.15 25.95 -18.9M23.3,-21.05Q22.9 -22.45 23.65 -24.5Q30.9 -27.95 33.55 -20L33.35 -20.1L31.45 -20.35Q28.9 -20.25 26.4 -20.45L26.05 -20.55L24 -21.6Q23.6 -21.55 23.35 -21.2L23.3 -21.05" />
<path style="fill:none;stroke-width:1;stroke-linecap:round;stroke-linejoin:round;stroke-miterlimit:3;stroke:#265218;stroke-opacity:1" d="M34,-18.5L34.1 -18.05L32.8 -17.95L30.75 -17.85L29.35 -17.85L29.15 -17.9L29 -17.9L28.75 -17.9L28.6 -17.95Q24.7 -18.25 23.6 -20.25L23.35 -20.8L23.3 -20.95L23.3 -21.05Q22.9 -22.45 23.65 -24.5Q30.9 -27.95 33.55 -20M34,-18.5L33.55 -20" />
<path style="fill:#2B5E1C;fill-opacity:1" d="M-25.15,-13.7L-25.2 -13.7Q-26.4 -12.9 -27.8 -13Q-28.25 -12.7 -28.8 -12.75L-29.45 -12.7L-30.55 -12.75L-30.7 -12.75L-30.95 -12.8L-31.15 -12.85L-31.3 -12.85L-31.65 -13L-32.7 -13.2L-34.65 -13.85L-35.1 -14.1L-35.6 -14.7L-34.8 -16L-34.6 -16.05L-32.7 -15.8L-27.85 -14.6L-27.45 -14.6L-25.2 -15.1L-24.7 -14.55L-24.65 -14.35L-24.7 -14.3L-24.8 -14.15L-25.15 -13.7" />
<path style="fill:#558046;fill-opacity:1" d="M-24.1,-17.8Q-23.95 -15.65 -24.65 -14.35L-24.7 -14.55L-25.2 -15.1L-27.45 -14.6L-27.85 -14.6L-32.7 -15.8L-34.6 -16.05L-34.8 -16Q-30.2 -23 -24.1 -17.8M-35.8,-14.3L-35.6 -14.7L-35.1 -14.1L-34.65 -13.85L-35.8 -14.3M-32.7,-13.2L-31.65 -13L-31.3 -12.85L-32.7 -13.2M-30.55,-12.75L-29.45 -12.7L-28.8 -12.75Q-28.25 -12.7 -27.8 -13Q-26.4 -12.9 -25.2 -13.7Q-26.75 -12.05 -30.55 -12.75" />
<path style="fill:none;stroke-width:1;stroke-linecap:round;stroke-linejoin:round;stroke-miterlimit:3;stroke:#265218;stroke-opacity:1" d="M-25.2,-13.7L-24.8 -14.15L-24.7 -14.3L-24.65 -14.35Q-23.95 -15.65 -24.1 -17.8Q-30.2 -23 -34.8 -16L-35.6 -14.7L-35.8 -14.3L-34.65 -13.85L-32.7 -13.2L-31.3 -12.85L-31.15 -12.85L-30.95 -12.8L-30.7 -12.75L-30.55 -12.75Q-26.75 -12.05 -25.2 -13.7z" />
<path style="fill:#558046;fill-opacity:1" d="M7.25,-22.2Q3.85 -17.35 -0.95 -23.5Q3.8 -28.1 7.25 -22.2" />
<path style="fill:none;stroke-width:1;stroke-linecap:round;stroke-linejoin:round;stroke-miterlimit:3;stroke:#265218;stroke-opacity:1" d="M-0.95,-23.5Q3.85 -17.35 7.25 -22.2Q3.8 -28.1 -0.95 -23.5z" />
</g>
</svg>
