<?xml version="1.0" encoding="utf-8"?>
<svg version="1.1" id="Layer_1"
xmlns="http://www.w3.org/2000/svg"
xmlns:xlink="http://www.w3.org/1999/xlink"
xmlns:author="http://www.sothink.com"
width="23px" height="25px"
xml:space="preserve">
<g id="554" transform="matrix(1, 0, 0, 1, 4.15, 147.8)">
<path style="fill:#FFFFFF;fill-opacity:1" d="M-0.8,-123.65L-1.75 -124.25L-1.95 -124.4L-2.5 -124.6Q-3.35 -125.45 -3.55 -126.8Q-4.15 -131.05 -1.35 -136.4L1.4 -143.6L3.1 -139.35L3.5 -139L3.6 -138.9L9.6 -141.4L12.35 -147.3L13.7 -144.1L13.8 -143.85Q14.25 -142.9 14.85 -142.45Q14.9 -142.35 15.05 -142.3L15.3 -142.05L16.15 -141.35Q16.8 -141.05 17.45 -140.4L17.6 -140.1L17.9 -138.55L17.45 -135.25L17.1 -134.25L16.05 -132.2L14.05 -130.05L13.05 -129.3L12.1 -128.55L11.5 -128.2L7.15 -125.65L6 -125.05Q4 -124.1 2.25 -123.75L0.85 -123.55L0.65 -123.55L1.15 -125.5L-0.25 -125.6L-0.8 -123.65M13.85,-141.5L13.8 -141.35L13.7 -141Q13.9 -140.4 14.6 -140.6Q14.95 -142.15 14.05 -141.75L13.85 -141.5M8,-129.05Q8.55 -129.55 9.25 -129.9Q10.7 -130.7 11.9 -130.75L12 -130.75L11.9 -130.95L11.65 -131.4L11.35 -132.1L11.2 -132.3Q10.6 -133.2 10.95 -134.75Q9.75 -134.2 8.7 -133.95L8.15 -129.55L8 -129.05" />
<path style="fill:#FF0000;fill-opacity:1" d="M8.15,-129.55L8.7 -133.95Q9.75 -134.2 10.95 -134.75Q10.6 -133.2 11.2 -132.3L11.35 -132.1L11.65 -131.4L11.9 -130.95L12 -130.75L11.9 -130.75Q10.7 -130.7 9.25 -129.9Q8.55 -129.55 8 -129.05L8.15 -129.55" />
<path style="fill:none;stroke-width:1;stroke-linecap:round;stroke-linejoin:round;stroke-miterlimit:3;stroke:#000000;stroke-opacity:1" d="M3.6,-138.9L9.6 -141.4L12.35 -147.3L13.7 -144.1L13.8 -143.85Q14.25 -142.9 14.85 -142.45Q14.9 -142.35 15.05 -142.3L15.3 -142.05L16.15 -141.35Q16.8 -141.05 17.45 -140.4L17.6 -140.1L17.9 -138.55L17.45 -135.25L17.1 -134.25L16.05 -132.2L14.05 -130.05L13.05 -129.3L12.1 -128.55L11.5 -128.2L7.15 -125.65L6 -125.05Q4 -124.1 2.25 -123.75L0.85 -123.55L0.65 -123.55L0.1 -123.5L-0.8 -123.65L-1.75 -124.25L-1.95 -124.4L-2.5 -124.6Q-3.35 -125.45 -3.55 -126.8Q-4.15 -131.05 -1.35 -136.4L1.4 -143.6L3.1 -139.35L3.5 -139M14.05,-141.75Q14.95 -142.15 14.6 -140.6Q13.9 -140.4 13.7 -141L13.8 -141.35L13.85 -141.5L14.05 -141.75L14.85 -142.45M14.8,-138.2L14.9 -137.5L15.1 -137.05M15.9,-138.45Q16.4 -138.05 16.95 -137.9M5.1,-136.6L5.15 -136.4L4.4 -135.65L3.6 -135.55L3.4 -135.7Q3.25 -137 4.2 -137.5L4.45 -137.6Q5.1 -137.55 5.1 -136.6M8.7,-133.95L8.15 -129.55L8 -129.05Q8.55 -129.55 9.25 -129.9Q10.7 -130.7 11.9 -130.75L12 -130.75L11.9 -130.95L11.65 -131.4L11.35 -132.1L11.2 -132.3Q10.6 -133.2 10.95 -134.75Q9.75 -134.2 8.7 -133.95L8.15 -133.85M5.75,-133.95L5.1 -132.35M4.2,-133.35L4 -132.05M1.15,-125.5L1.8 -126.9M8,-129.05L7.95 -129L7.7 -128.4M11.05,-135.15L10.95 -134.75M12,-130.75L12.25 -130.75L12.75 -130.6M-0.25,-125.6L-0.8 -123.65M-0.25,-125.6L0.1 -126.2" />
</g>
</svg>
