<?xml version="1.0" encoding="utf-8"?>
<svg version="1.1" id="Layer_1"
xmlns="http://www.w3.org/2000/svg"
xmlns:xlink="http://www.w3.org/1999/xlink"
xmlns:author="http://www.sothink.com"
width="21px" height="45px"
xml:space="preserve">
<g id="68" transform="matrix(1, 0, 0, 1, 10.3, 22.5)">
<path style="fill:#000000;fill-opacity:0.713725" d="M-9.65,-21.55L10.55 -11.35L10.55 22.25L-9.65 12.05L-9.65 -21.55" />
<path style="fill:#FFFFFF;fill-opacity:1" d="M9.4,19.9Q9.2 19.8 9.2 20.05L-9.85 10.4L-10.05 10.05L-10.05 -22.15Q-9.85 -22.05 -9.85 -22.25L9.2 -12.6L9.4 -12.3L9.4 19.9" />
<path style="fill:none;stroke-width:0.5;stroke-linecap:round;stroke-linejoin:round;stroke-miterlimit:3;stroke:#FFFFFF;stroke-opacity:1" d="M9.4,-12.3L9.2 -12.6L-9.85 -22.25Q-9.85 -22.05 -10.05 -22.15L-10.05 10.05L-9.85 10.4L9.2 20.05" />
<path style="fill:none;stroke-width:0.5;stroke-linecap:round;stroke-linejoin:round;stroke-miterlimit:3;stroke:#0D0D0D;stroke-opacity:1" d="M9.2,20.05Q9.2 19.8 9.4 19.9L9.4 -12.3" />
<linearGradient
id="LinearGradID_391" gradientUnits="userSpaceOnUse" gradientTransform="matrix(-0.000839233, -0.000976563, 0.000411987, -0.000595093, 7.7, -11.9)" spreadMethod ="pad" x1="-819.2" y1="0" x2="819.2" y2="0" >
<stop  offset="0.235294" style="stop-color:#AAAAAA;stop-opacity:1" />
<stop  offset="0.494118" style="stop-color:#FFFFFF;stop-opacity:1" />
<stop  offset="0.705882" style="stop-color:#BFBFBF;stop-opacity:1" />
</linearGradient>
<path style="fill:url(#LinearGradID_391) " d="M7.45,-11.35L7.25 -11.95L7.45 -12.4L7.95 -12.4L8.4 -11.95L8.6 -11.3L8.4 -10.9L7.95 -10.85L7.45 -11.35" />
<linearGradient
id="LinearGradID_392" gradientUnits="userSpaceOnUse" gradientTransform="matrix(-0.000839233, -0.000976563, 0.000411987, -0.000595093, -9.4, 9.05)" spreadMethod ="pad" x1="-819.2" y1="0" x2="819.2" y2="0" >
<stop  offset="0.235294" style="stop-color:#AAAAAA;stop-opacity:1" />
<stop  offset="0.494118" style="stop-color:#FFFFFF;stop-opacity:1" />
<stop  offset="0.705882" style="stop-color:#BFBFBF;stop-opacity:1" />
</linearGradient>
<path style="fill:url(#LinearGradID_392) " d="M-9.65,9.6L-9.85 9Q-9.85 8.65 -9.65 8.55Q-9.45 8.4 -9.15 8.55L-8.7 9L-8.5 9.65L-8.7 10.05L-9.15 10.1L-9.65 9.6" />
<linearGradient
id="LinearGradID_393" gradientUnits="userSpaceOnUse" gradientTransform="matrix(-0.000839233, -0.000976563, 0.000411987, -0.000595093, -9.2, -20.35)" spreadMethod ="pad" x1="-819.2" y1="0" x2="819.2" y2="0" >
<stop  offset="0.235294" style="stop-color:#AAAAAA;stop-opacity:1" />
<stop  offset="0.494118" style="stop-color:#FFFFFF;stop-opacity:1" />
<stop  offset="0.705882" style="stop-color:#BFBFBF;stop-opacity:1" />
</linearGradient>
<path style="fill:url(#LinearGradID_393) " d="M-9.45,-19.8L-9.65 -20.4L-9.45 -20.85L-8.95 -20.85L-8.5 -20.4L-8.3 -19.75L-8.5 -19.35L-8.95 -19.3L-9.45 -19.8" />
<linearGradient
id="LinearGradID_394" gradientUnits="userSpaceOnUse" gradientTransform="matrix(-0.000839233, -0.000976563, 0.000411987, -0.000595093, 8.2, 18)" spreadMethod ="pad" x1="-819.2" y1="0" x2="819.2" y2="0" >
<stop  offset="0.235294" style="stop-color:#AAAAAA;stop-opacity:1" />
<stop  offset="0.494118" style="stop-color:#FFFFFF;stop-opacity:1" />
<stop  offset="0.705882" style="stop-color:#BFBFBF;stop-opacity:1" />
</linearGradient>
<path style="fill:url(#LinearGradID_394) " d="M7.95,18.55L7.75 17.95L7.95 17.5Q8.15 17.35 8.45 17.5L8.9 17.95L9.1 18.6L8.9 19L8.45 19.05L7.95 18.55" />
<linearGradient
id="LinearGradID_395" gradientUnits="userSpaceOnUse" gradientTransform="matrix(0.0106049, 0.011261, -0.00785828, 0.0138702, -7.05, -10.85)" spreadMethod ="pad" x1="-819.2" y1="0" x2="819.2" y2="0" >
<stop  offset="0" style="stop-color:#000000;stop-opacity:0.462745" />
<stop  offset="1" style="stop-color:#FFFFFF;stop-opacity:0" />
</linearGradient>
<path style="fill:url(#LinearGradID_395) " d="M9.55,-11.5L9.55 20.7Q9.35 20.6 9.35 20.85L-9.7 11.2Q-9.7 11 -9.85 10.9L-9.85 -21.35L-9.7 -21.45L9.35 -11.8L9.55 -11.5" />
<path style="fill:#000000;fill-opacity:1" d="M1.75,10.55L1.9 10.45L1.5 10.2L1.4 10.25L1.35 10.35L1.3 10.35L1.35 10L2 10.35L2 10.45L1.8 10.75L1.7 11L1.7 11.05L1.7 11.15L1.65 11.2L1.6 11.15L1.5 11.05L1.55 10.9L1.7 10.65L1.75 10.55M0.35,9.75L0.55 10.15L0.8 10L0.85 10.15L0.65 10.2L0.85 10.6L0.8 10.6L0.55 10.25L0.35 10.35L0.3 10.3L0.5 10.15L0.3 9.85L0.35 9.75M2.3,11.1L3.05 11.5L3.05 11.55L2.3 11.15L2.3 11.1M3.3,11.25L3.5 11.65L3.75 11.5L3.8 11.65L3.6 11.7L3.8 12.1L3.75 12.1L3.5 11.75L3.3 11.85L3.25 11.8L3.45 11.65L3.25 11.35L3.3 11.25M4.35,12.1L4.6 11.95L4.65 12.1L4.45 12.15L4.65 12.55L4.6 12.55L4.35 12.2L4.15 12.3L4.1 12.25L4.3 12.1L4.1 11.8L4.15 11.7L4.35 12.1M5,12.15L5.2 12.55L5.45 12.4L5.5 12.55L5.3 12.6L5.5 13L5.45 13L5.2 12.65L5 12.75L4.95 12.7L5.15 12.55L4.95 12.25L5 12.15M6.3,12.8L6.35 12.95L6.15 13L6.35 13.4L6.3 13.4L6.05 13.05L5.85 13.15L5.8 13.1L6 12.95L5.8 12.65L5.85 12.55L6.05 12.95Q6.2 12.9 6.3 12.8M-6.35,6.1L-6.1 6.4L-6 6.85L-6.1 7.15L-6.35 7.15L-6.65 6.85L-6.75 6.45L-6.65 6.1L-6.35 6.1M-5.4,6.95L-5.45 6.95L-5.4 6.6L-4.75 6.95L-4.75 7.05L-4.95 7.35L-5.05 7.6L-5.05 7.65L-5.05 7.75L-5.1 7.8L-5.15 7.75L-5.25 7.65L-5.2 7.5L-5.05 7.25L-5 7.15L-4.85 7.05L-5.25 6.8L-5.35 6.85L-5.4 6.95M-6.25,6.3L-6.35 6.15Q-6.55 6 -6.55 6.55Q-6.55 7.05 -6.35 7.1L-6.2 7.05L-6.2 6.75L-6.25 6.3M-2,9L-2.75 8.6L-2.75 8.55L-2 8.95L-2 9M-1.5,9.1L-1.3 9.65L-1.15 9.6L-1.15 9.3L-1.2 8.85L-1.3 8.7Q-1.5 8.55 -1.5 9.1M-1.05,8.95L-0.95 9.4L-1.05 9.7L-1.3 9.7L-1.6 9.4L-1.7 9L-1.6 8.65L-1.3 8.65L-1.05 8.95M-4.3,7.4L-4.1 7.8L-3.85 7.65L-3.8 7.8L-4 7.85L-3.8 8.25L-3.85 8.25L-4.1 7.9L-4.3 8L-4.35 7.95L-4.15 7.8L-4.35 7.5L-4.3 7.4M-3.15,8.3L-2.95 8.7L-3 8.7L-3.25 8.35L-3.45 8.45L-3.5 8.4L-3.3 8.25L-3.5 7.95L-3.45 7.85L-3.25 8.25L-3 8.1L-2.95 8.25L-3.15 8.3M-0.55,9.45L-0.5 9.35L-0.3 9.75L-0.05 9.6L0 9.75L-0.2 9.8L0 10.2L-0.05 10.2L-0.3 9.85L-0.5 9.95L-0.55 9.9L-0.35 9.75L-0.55 9.45" />
<path style="fill:#FF0000;fill-opacity:1" d="M7.8,-7.15L2 -9.05L1.95 -7.9L5.7 -6L6.8 -6.6L8.65 -4.05L5.65 -5L5.65 -2.85L4.9 -3.05L5.8 -1.2L5.3 5.05L3.4 4.3L3.3 3.6L-3.95 0.25L-0.8 3L-8.9 0.95L-4.1 0.5L-5.9 -0.3L-6 -8.9L-2.25 -5.9Q0.4 -3.9 3.6 -3.3L3.75 -6.5L1.8 -6.95L0.8 -5.7L-1 -6.1L-0.45 -8.65L-2.15 -9.5L-2.25 -6.55L-3.9 -7.35L-4 -10.45L-5.8 -11.35L-6 -10.05L-7.9 -8.5L-9.15 -8.7L-8.75 -9.2Q-7.05 -11.65 -7.65 -14.7L-5.65 -13.5L-2.4 -13.65L-0.6 -10.95L-5.5 -12.7L-2.85 -10.3L-1.8 -10.95L-0.4 -8.85L0.15 -11.55L2.15 -9.45L5.9 -9.45L7.8 -7.15M3.3,-2.65L-3.9 -6.3L-3.9 -4.8L3.3 -1.15L3.3 -2.65M3.3,1.4L-3.9 -2.25L-3.9 -0.45L3.3 3.2L3.3 1.4M5.75,6.3Q7.35 7.65 6.55 9.05L1.35 4.05Q-0.1 2.6 1.3 3.3Q3.8 4.55 5.75 6.3M3.3,-0.7L-3.9 -4.35L-3.9 -2.65L3.3 1L3.3 -0.7" />
</g>
</svg>
