<?xml version="1.0" encoding="utf-8"?>
<svg version="1.1" id="Layer_1"
xmlns="http://www.w3.org/2000/svg"
xmlns:xlink="http://www.w3.org/1999/xlink"
xmlns:author="http://www.sothink.com"
width="27px" height="25px"
xml:space="preserve">
<g id="736" transform="matrix(1, 0, 0, 1, 29.9, 37.25)">
<path style="fill:#FFFFFF;fill-opacity:0.101961" d="M-17.95,-32.1Q-16.65 -31.75 -16.55 -30.55Q-16.4 -29.95 -16.55 -29.45Q-16.8 -28.5 -17.5 -28.15Q-18.05 -26.7 -19.75 -27.1Q-21.7 -27.65 -21.15 -29.7L-20.4 -30.65L-20.35 -30.75L-19.55 -31.75Q-18.85 -32.35 -17.95 -32.1M-15.4,-31.85Q-14.75 -32.4 -13.95 -32.2Q-12.7 -31.85 -13.1 -30.85Q-13.35 -29.85 -14.9 -29.75Q-16.5 -29.7 -16.15 -31L-15.4 -31.85M-11.7,-28.75L-10.5 -28.8Q-8.75 -28.35 -9.05 -26.4L-9.45 -25.6L-9.05 -25.5L-8.7 -25.35L-8.25 -25.9Q-7.7 -26.4 -7.1 -26.2Q-6.15 -26 -5.95 -24.9L-5.95 -23.95Q-6.4 -22.4 -7.8 -22.9L-8 -23L-8.2 -22.75Q-6.6 -22.05 -6.2 -21Q-6.05 -20.6 -6.15 -20.1Q-4.6 -19.5 -4.95 -17.75Q-5.45 -15.8 -7.5 -16.4Q-8.6 -16.6 -8.95 -17.35L-9.85 -17.65Q-12.65 -18.9 -11.9 -21.65Q-11.5 -23.15 -9.95 -23.1Q-10.7 -23.75 -10.4 -24.8L-10.35 -24.9Q-10.85 -24.75 -11.55 -24.9L-11.7 -24.95L-11.95 -24.75Q-12.25 -23.8 -13.65 -23.95Q-14.95 -24.15 -14.65 -25.35Q-15.6 -26.1 -15.25 -27.45L-14.45 -28.6Q-13.55 -29.35 -12.45 -29.05L-11.7 -28.75M-22.4,-35.05Q-22.7 -33.9 -23.8 -34.4L-24.65 -35.15L-24.75 -34.7L-24.9 -34.25Q-24.2 -33.9 -24.05 -33.2Q-23.95 -32.75 -24.15 -32.3Q-24.75 -30 -26.65 -30.25Q-27.85 -30.4 -27.95 -31.45L-28.35 -31.5Q-30.35 -32.05 -29.75 -34.15Q-29.55 -34.9 -28.95 -35.3L-28.95 -35.35L-28.8 -35.85Q-28.65 -36.6 -27.9 -36.95L-26.25 -37.15Q-24.95 -36.8 -24.65 -35.8Q-24.4 -36.8 -23.45 -36.55Q-22.75 -36.35 -22.5 -35.7Q-22.3 -35.3 -22.4 -35.05M-3.2,-13.85Q-3.5 -12.75 -4.6 -13.25Q-5.6 -13.7 -5.3 -14.8Q-5 -15.9 -4.05 -15.65Q-3.05 -15.4 -3.2 -13.85" />
</g>
</svg>
