<?xml version="1.0" encoding="utf-8"?>
<svg version="1.1" id="Layer_1"
xmlns="http://www.w3.org/2000/svg"
xmlns:xlink="http://www.w3.org/1999/xlink"
xmlns:author="http://www.sothink.com"
width="27px" height="32px"
xml:space="preserve">
<g id="431" transform="matrix(1, 0, 0, 1, 13.3, 23.7)">
<path style="fill:#DBDBD5;fill-opacity:1" d="M11.3,-11.8Q10.5 -11.05 9.4 -10.35Q7.25 -9.05 4.6 -8.45L1.2 -8L0.2 -8Q-5.2 -8 -9 -10.35L-11 -11.85Q-12.6 -13.5 -12.8 -15.5L-12.8 -15.75L-12.8 -15.95Q-12.4 -18.8 -9.05 -20.85Q-5.25 -23.2 0.15 -23.2L0.85 -23.2L4.35 -22.8Q7.1 -22.25 9.3 -20.85Q12.65 -18.8 13.15 -15.75L13.15 -15.25Q12.85 -13.4 11.3 -11.8" />
<linearGradient
id="LinearGradID_1848" gradientUnits="userSpaceOnUse" gradientTransform="matrix(0.0158386, 0, 0, 0.0139465, 0.15, -4.1)" spreadMethod ="pad" x1="-819.2" y1="0" x2="819.2" y2="0" >
<stop  offset="0" style="stop-color:#B4B3A7;stop-opacity:1" />
<stop  offset="0.172549" style="stop-color:#CFCFC7;stop-opacity:1" />
<stop  offset="1" style="stop-color:#CFCFC7;stop-opacity:1" />
</linearGradient>
<path style="fill:url(#LinearGradID_1848) " d="M13.15,-7.75L13.15 -7.5L13.15 -2.75L13.15 0Q12.8 2.85 9.4 5Q7.5 6.1 5.3 6.7L2 7.25L0.2 7.35L-4 6.95Q-6.8 6.35 -9 5Q-12.75 2.65 -12.8 -0.55L-12.8 -15.5Q-12.6 -13.5 -11 -11.85L-9 -10.35Q-5.2 -8 0.2 -8L1.2 -8L4.6 -8.45Q7.25 -9.05 9.4 -10.35Q10.5 -11.05 11.3 -11.8Q12.85 -13.4 13.15 -15.25L13.15 -9.15L13.15 -7.75" />
<path style="fill:none;stroke-width:1;stroke-linecap:round;stroke-linejoin:round;stroke-miterlimit:3;stroke:#686657;stroke-opacity:1" d="M13.15,-15.25L13.15 -15.75M-12.8,-15.75L-12.8 -15.5M13.15,-15.25L13.15 -9.15L13.2 -8.05L13.15 -7.75L13.15 -7.5L13.15 -2.75L13.2 -0.55L13.15 0Q12.8 2.85 9.4 5Q7.5 6.1 5.3 6.7L2 7.25L0.2 7.35L-4 6.95Q-6.8 6.35 -9 5Q-12.75 2.65 -12.8 -0.55L-12.8 -15.5M13.15,0L13.15 -2.75M13.15,-9.15L13.15 -7.75" />
<path style="fill:none;stroke-width:1;stroke-linecap:round;stroke-linejoin:round;stroke-miterlimit:3;stroke:#959380;stroke-opacity:1" d="M13.15,-15.75Q12.65 -18.8 9.3 -20.85Q7.1 -22.25 4.35 -22.8L0.85 -23.2L0.15 -23.2Q-5.25 -23.2 -9.05 -20.85Q-12.4 -18.8 -12.8 -15.95L-12.8 -15.75" />
<path style="fill:none;stroke-width:1;stroke-linecap:round;stroke-linejoin:round;stroke-miterlimit:3;stroke:#CBCAC2;stroke-opacity:1" d="M-12.8,-15.5Q-12.6 -13.5 -11 -11.85L-9 -10.35Q-5.2 -8 0.2 -8L1.2 -8L4.6 -8.45Q7.25 -9.05 9.4 -10.35Q10.5 -11.05 11.3 -11.8Q12.85 -13.4 13.15 -15.25" />
</g>
</svg>
