<?xml version="1.0" encoding="utf-8"?>
<svg version="1.1" id="Layer_1"
xmlns="http://www.w3.org/2000/svg"
xmlns:xlink="http://www.w3.org/1999/xlink"
xmlns:author="http://www.sothink.com"
width="89px" height="110px"
xml:space="preserve">
<g id="277" transform="matrix(1, 0, 0, 1, 32.45, 88.2)">
<path style="fill:#999999;fill-opacity:1" d="M-19.6,18.25L-7.65 12.25L-7.1 14.9L-19.6 21.15L-32.2 14.85L-31.6 12.25L-19.6 18.25" />
<path style="fill:#CCCCCC;fill-opacity:1" d="M-31.6,12.25L-19.65 6.25L-7.65 12.25L-19.6 18.25L-31.6 12.25" />
<path style="fill:none;stroke-width:0.5;stroke-linecap:round;stroke-linejoin:round;stroke-miterlimit:3;stroke:#999999;stroke-opacity:1" d="M-7.65,12.25L-7.1 14.9L-19.6 21.15L-32.2 14.85L-31.6 12.25L-19.65 6.25L-7.65 12.25L-19.6 18.25L-19.6 21.15M-31.6,12.25L-19.6 18.25" />
<path style="fill:#999999;fill-opacity:1" d="M43,-11.1L54.95 -17.1L55.5 -14.45L43 -8.2L30.4 -14.5L31 -17.1L43 -11.1" />
<path style="fill:#CCCCCC;fill-opacity:1" d="M31,-17.1L42.95 -23.1L54.95 -17.1L43 -11.1L31 -17.1" />
<path style="fill:none;stroke-width:0.5;stroke-linecap:round;stroke-linejoin:round;stroke-miterlimit:3;stroke:#999999;stroke-opacity:1" d="M54.95,-17.1L55.5 -14.45L43 -8.2L30.4 -14.5L31 -17.1L42.95 -23.1L54.95 -17.1L43 -11.1L43 -8.2M31,-17.1L43 -11.1" />
<path style="fill:#66CCFF;fill-opacity:1" d="M17.95,-80.4L19.15 -82.35L19.5 -82.15L19.5 -76.75L17.25 -77.9Q17.3 -79.15 17.95 -80.4M17.65,-74.3L46.2 -18.05Q46.05 -16 41 -16.9L34.45 -29.75L32.55 -33.5L31 -36.5L24.4 -49.5L24 -50.2L23.6 -51L17.7 -62.55L12.5 -72.75Q15.05 -74.8 17.65 -74.3M-16.9,12.85Q-19.45 13.6 -22 12.75L1.5 -73.95Q4.1 -73.9 6.45 -72.1L-16.9 12.85" />
<path style="fill:#FFFF00;fill-opacity:1" d="M12.5,-72.75L11.9 -72.25Q9.7 -72.95 10.95 -74.1L8.75 -78.4L7.6 -74.2Q8.1 -72.95 6.9 -71.7L6.45 -72.1Q4.1 -73.9 1.5 -73.95L0.4 -73.85Q0 -75.2 1.15 -76.55L3.6 -85.45Q4.5 -86.85 5.95 -87.45Q7.4 -88.1 9.4 -87.9L18.05 -83.4Q19.55 -83.95 19.45 -82.65L19.15 -82.35L17.95 -80.4Q17.3 -79.15 17.25 -77.9Q17.2 -77.35 17.3 -76.75L17.3 -76.7Q18.05 -76.15 18.7 -73.95L17.65 -74.3Q15.05 -74.8 12.5 -72.75" />
<path style="fill:#0066FF;fill-opacity:1" d="M17.3,-76.75L17.3 -76.7L17.3 -76.75" />
<path style="fill:none;stroke-width:0.5;stroke-linecap:round;stroke-linejoin:round;stroke-miterlimit:3;stroke:#999999;stroke-opacity:1" d="M8.05,-81.05L9.25 -80.5L15.7 -77.45L15.65 -78.2L15.65 -78.75Q15.85 -80.9 17.75 -83.05L18.05 -83.4L9.4 -87.9Q7.4 -88.1 5.95 -87.45Q4.5 -86.85 3.6 -85.45L1.15 -76.55L2.25 -76.6Q4.7 -76.6 7.15 -74.55L7.6 -74.2L8.75 -78.4L9.25 -80.5M18.05,-83.4Q19.55 -83.95 19.45 -82.65L19.15 -82.35L19.5 -82.15M19.5,-76.75L17.25 -77.9Q17.2 -77.35 17.3 -76.75L17.3 -76.7Q18.05 -76.15 18.7 -73.95L17.65 -74.3L46.2 -18.05Q46.05 -16 41 -16.9L34.45 -29.75L32.55 -33.5L31 -36.5L24.4 -49.5L24 -50.2L23.6 -51L17.7 -62.55L12.5 -72.75L11.9 -72.25Q9.7 -72.95 10.95 -74.1L8.75 -78.4M19.15,-82.35L17.95 -80.4Q17.3 -79.15 17.25 -77.9M17.3,-76.75L17.3 -76.7L16.5 -76.6Q13.75 -76.15 11.55 -74.6L10.95 -74.1M17.3,-76.75L17.3 -76.7L16.4 -76.7L15.95 -76.95Q15.75 -77.15 15.7 -77.45M6.45,-72.1Q4.1 -73.9 1.5 -73.95L-22 12.75Q-19.45 13.6 -16.9 12.85L6.45 -72.1L6.9 -71.7Q8.1 -72.95 7.6 -74.2M1.5,-73.95L0.4 -73.85Q0 -75.2 1.15 -76.55M12.5,-72.75Q15.05 -74.8 17.65 -74.3" />
</g>
</svg>
