<?xml version="1.0" encoding="utf-8"?>
<svg version="1.1" id="Layer_1"
xmlns="http://www.w3.org/2000/svg"
xmlns:xlink="http://www.w3.org/1999/xlink"
xmlns:author="http://www.sothink.com"
width="81px" height="67px"
xml:space="preserve">
<g id="646" transform="matrix(1, 0, 0, 1, 38.95, 45.9)">
<path style="fill:#410303;fill-opacity:1" d="M0.5,-7.5L0.65 -7.4L19.5 -16.85L19.5 -10.5L19.2 -10.35L-20.45 9.45L-20.45 5.2L-20.45 4.95L-20.45 -8.1L-20.45 -17.95L0.5 -7.5" />
<path style="fill:#4F0404;fill-opacity:1" d="M-20.45,-17.95L-20.45 -8.1L-20.45 4.95L-20.45 5.2L-20.45 9.45L-20.5 9.5L-24.8 7.35L-25.45 7L-25.45 -8.1L-25.45 -10.5L-38.45 -17L-38.35 -22L1.55 -42.55L5.15 -40.7L4.6 -40.45L-25.25 -25.5L0.6 -12.45L40.4 -32.4L40.5 -27.4L19.5 -16.85L0.65 -7.4L0.5 -7.5L-20.45 -17.95" />
<path style="fill:#000000;fill-opacity:0.2" d="M19.2,-10.35L41.3 0.6L41.35 0.6L0.95 20.6L-25.25 7.55L-24.8 7.35L-20.5 9.5L-20.45 9.45L19.2 -10.35" />
<radialGradient
id="RadialGradID_2796" gradientUnits="userSpaceOnUse" gradientTransform="matrix(0.0231781, 0, 0, 0.0211029, 8.6, -29.45)" spreadMethod ="pad" cx="0" cy="0" r="819.2" fx="0" fy="0" >
<stop  offset="0"  style="stop-color:#2F0202;stop-opacity:1" />
<stop  offset="0"  style="stop-color:#6B0303;stop-opacity:1" />
<stop  offset="0"  style="stop-color:#2F0202;stop-opacity:1" />
<stop  offset="0"  style="stop-color:#600202;stop-opacity:1" />
<stop  offset="1"  style="stop-color:#400000;stop-opacity:1" />
</radialGradient>
<path style="fill:url(#RadialGradID_2796) " d="M0.6,-12.45L-25.25 -25.5L4.6 -40.45L5.65 -40.95L6 -41.15L14.5 -45.4L40.45 -32.45L40.45 -32.4L40.4 -32.4L0.6 -12.45" />
<path style="fill:none;stroke-width:1;stroke-linecap:round;stroke-linejoin:round;stroke-miterlimit:3;stroke:#2F0202;stroke-opacity:1" d="M5.15,-40.7L4.6 -40.45L-25.25 -25.5L0.6 -12.45L40.4 -32.4L40.45 -32.4L40.45 -32.45L14.5 -45.4L6 -41.15L5.65 -40.95M40.4,-32.4L40.5 -27.4L19.5 -16.85L19.5 -10.5L19.2 -10.35L-20.45 9.45M-20.5,9.5L-24.8 7.35L-25.45 7L-25.45 -8.1L-25.45 -10.5L-38.45 -17L-38.35 -22L-25.45 -15.5L-25.45 -20.45L-25.25 -25.5M1.55,-42.55L5.15 -40.7L5.65 -40.95M0.6,-12.45L0.6 -11.4L0.5 -8.1L0.5 -7.5L0.65 -7.4L19.5 -16.85M-20.5,9.5L-20.45 9.5L-20.45 9.45L-20.45 5.2L-20.45 4.95L-20.45 -8.1L-20.45 -17.95L-25.45 -20.45M-25.45,-10.5L-25.45 -15.5M-20.45,-17.95L0.5 -7.5" />
<path style="fill:none;stroke-width:1;stroke-linecap:round;stroke-linejoin:round;stroke-miterlimit:3;stroke:#2F0202;stroke-opacity:1" d="M-38.35,-22L1.55 -42.55" />
</g>
</svg>
