<?xml version="1.0" encoding="utf-8"?>
<svg version="1.1" id="Layer_1"
xmlns="http://www.w3.org/2000/svg"
xmlns:xlink="http://www.w3.org/1999/xlink"
xmlns:author="http://www.sothink.com"
width="16px" height="16px"
xml:space="preserve">
<g id="999" transform="matrix(1, 0, 0, 1, 0.5, -1.8)">
<path style="fill:#FFFFFF;fill-opacity:1" d="M15,2.3L15 17.3L12 17.3L12 2.3L15 2.3M9,7.2L9 17.15L6 17.15L6 7.2L9 7.2M3,17.2L0 17.2L0 11.2L3 11.2L3 17.2" />
<path style="fill:none;stroke-width:1;stroke-linecap:round;stroke-linejoin:round;stroke-miterlimit:3;stroke:#FFFFFF;stroke-opacity:1" d="M15,2.3L15 17.3L12 17.3L12 2.3L15 2.3M9,7.2L9 17.15L6 17.15L6 7.2L9 7.2M3,17.2L0 17.2L0 11.2L3 11.2L3 17.2" />
</g>
</svg>
