<?xml version="1.0" encoding="utf-8"?>
<svg version="1.1" id="Layer_1"
xmlns="http://www.w3.org/2000/svg"
xmlns:xlink="http://www.w3.org/1999/xlink"
xmlns:author="http://www.sothink.com"
width="82px" height="66px"
xml:space="preserve">
<g id="77" transform="matrix(1, 0, 0, 1, -68.1, 168.3)">
<path style="fill:#000000;fill-opacity:0.705882" d="M76.7,-103.15L68.1 -114.45L68.4 -131.7Q76.75 -117.7 76.7 -103.15" />
<path style="fill:#FFFFFF;fill-opacity:1" d="M124.05,-151.35L124.9 -148.25L125.8 -144.6L125.9 -142Q125.85 -141.1 125.4 -139.75L127 -139.35L127 -139.3L127.55 -142.2L127.55 -144L127.2 -146.25L125.95 -150.95L137.8 -157.1L137.45 -158.3L131.5 -155.2L131.15 -156.55L129.55 -155.75L129.9 -154.4L124.05 -151.35M122.6,-150.6L116.1 -147.2L115.8 -148.35L114.15 -147.5L114.45 -146.35L107.9 -143L108.25 -141.8L111.7 -143.6L112.8 -142.4L109.65 -140.75L112.1 -131.7L113.55 -132.45L111.9 -138.5Q112.45 -138.35 112.8 -137.85Q114.25 -139.3 114.8 -140.3Q115.15 -141.2 115.1 -142.2L116.7 -143.05L117.15 -141.55Q117.2 -141.2 117.55 -141.2Q117.85 -141.1 118.65 -141.5L119.55 -141.95L120.75 -142.9L121.05 -144.25L119.55 -144L119.5 -143.3L119.2 -142.9Q118.6 -142.6 118.5 -142.65L118.4 -142.65L118.35 -142.8L118.05 -143.75L120.95 -145.25L122.65 -139L122.65 -138.75L122.4 -138.6L121.15 -137.9L121.65 -137.4L121.9 -136.7Q123.85 -137.85 124.1 -138.15Q124.55 -138.7 124.35 -139.4L122.25 -147.25L119 -145.6L119.45 -147.55L122.95 -149.4L122.6 -150.6M132.55,-154.1L131.1 -153.35L132.4 -148.5L128.6 -146.55L130.05 -141.2L131.65 -142L131.4 -142.9L137.75 -146.2L137.95 -145.5L139.45 -146.25L138.05 -151.4L133.85 -149.25L133.35 -151.05L138.2 -153.55L137.9 -154.65L133.05 -152.15L132.55 -154.1M75.25,-109.9L70.15 -128.9Q69.8 -130.3 71 -130.9L140.45 -166.85Q141.6 -167.45 141.95 -166.05L147.05 -147.05L75.25 -109.9M117.35,-144.75L114.5 -143.25L113.4 -144.45L117.7 -146.7L117.35 -144.75M111.85,-138.6L111.4 -140.3L113.7 -141.5L113.4 -140.25L111.85 -138.6M115.65,-138.1L118.7 -139.7L119.05 -138.35L116 -136.75L115.65 -138.1M120,-141.5L113.9 -138.35L114.95 -134.35L116.45 -135.1L116.3 -135.6L120.9 -138L120 -141.5M103.25,-141.95L101.85 -141.2L102.05 -140.45L98.4 -138.6L98.2 -139.35L96.8 -138.6L97 -137.85L93.3 -135.9L93.6 -134.8L97.3 -136.75L97.5 -135.9L98.9 -136.65L98.7 -137.5L102.35 -139.35L102.55 -138.5L102.75 -138.6L102.55 -136.4L99.55 -134.85L99.85 -133.85L102.25 -135.1L101.9 -133.95L99.65 -132.8L99.9 -131.9L101.4 -132.65L100.75 -131.5L100.5 -131.2L99.95 -130.4L98.45 -136.15L94.4 -134.05L95.9 -127.95Q96.1 -126.75 95.75 -124.7L97.15 -124.4L97.3 -126.3L97.2 -128.7L98.75 -129.5L99.35 -127.15L99.4 -126.85L99.2 -126.7L98.1 -126.15L98.45 -125.9L98.6 -125.75L99 -125.1L100.7 -126.6L100.8 -127.35L100.05 -130.15L100.95 -129.85L101.7 -130.9L102.9 -130.3L103.7 -131.6L102.45 -132.05L102.8 -132.85L103.1 -133.55L105.9 -135L107.05 -134.5L106.3 -133.15L107.25 -132.75L108.2 -134.25L109.45 -134.1L110.2 -135.55L107.55 -135.85L109.35 -136.8L109.1 -137.7L106.5 -136.35L105.75 -136.9L108.35 -138.25L108.05 -139.25L106.5 -138.45L107.15 -140.15L105.8 -140.1L104.95 -137.65L104 -137.15L104.15 -138.3L104.25 -139.1L103.1 -138.8L103.95 -139.25L103.75 -140.1L107.65 -142.1L107.35 -143.2L103.45 -141.2L103.25 -141.95M106.35,-131.05L109.8 -131.15L110.05 -131.95L110.35 -132.6L108.15 -132.3L105.95 -132.45L105.5 -134.15L104.15 -133.45L105.15 -129.75L105.15 -129.6L104 -129L104.85 -128L106.5 -129.3L106.6 -130.1L106.35 -131.05M105,-135.55L103.5 -134.8L103.8 -135.9L104.45 -136.25L104.75 -135.95L105 -135.55M104.35,-131.25L102.1 -129.2L100.95 -128.2L101.85 -127.45L104.75 -130.25L104.35 -131.25M102,-137.05L100.45 -137.6L99.75 -136.35L101.25 -135.9L102 -137.05M84.45,-132.1L85.1 -129.7L79.7 -126.95L82.45 -116.8L83.95 -117.55L81.5 -126.55L85.25 -128.5Q85.45 -126.5 85.05 -125.1Q84.45 -123.55 82.95 -121.7Q83.55 -121.55 84.15 -121Q85.3 -122.45 85.85 -123.55Q86.4 -124.8 86.75 -126.5L88.3 -126.1L88.95 -125.9L90.95 -125L91.8 -126.65L89.4 -127.45L86.85 -128.05L86.7 -129.25L90.85 -131.4L92.9 -123.9L92.9 -123.6L92.7 -123.45L91.05 -122.6L91.85 -122.25L92.2 -121.75Q93.7 -122.6 94.15 -123.15L94.55 -123.8L94.35 -124.9L92.15 -133.35L86.55 -130.45L85.9 -132.85L84.45 -132.1M98.45,-130.65L96.9 -129.85L96.55 -131.05L98.1 -131.85L98.45 -130.65M96.4,-132.05L96 -133.45L97.45 -134.25L97.85 -132.85L96.4 -132.05M130.5,-146.25L136.85 -149.55L137.45 -147.35L131.1 -144.05L130.5 -146.25" />
<path style="fill:#000000;fill-opacity:1" d="M129.9,-154.4L129.55 -155.75L131.15 -156.55L131.5 -155.2L137.45 -158.3L137.8 -157.1L125.95 -150.95L127.2 -146.25L127.55 -144L127.55 -142.2L127 -139.3L127 -139.35L125.4 -139.75Q125.85 -141.1 125.9 -142L125.8 -144.6L124.9 -148.25L124.05 -151.35L129.9 -154.4M122.95,-149.4L119.45 -147.55L119 -145.6L122.25 -147.25L124.35 -139.4Q124.55 -138.7 124.1 -138.15Q123.85 -137.85 121.9 -136.7L121.65 -137.4L121.15 -137.9L122.4 -138.6L122.65 -138.75L122.65 -139L120.95 -145.25L118.05 -143.75L118.35 -142.8L118.4 -142.65L118.5 -142.65Q118.6 -142.6 119.2 -142.9L119.5 -143.3L119.55 -144L121.05 -144.25L120.75 -142.9L119.55 -141.95L118.65 -141.5Q117.85 -141.1 117.55 -141.2Q117.2 -141.2 117.15 -141.55L116.7 -143.05L115.1 -142.2Q115.15 -141.2 114.8 -140.3Q114.25 -139.3 112.8 -137.85Q112.45 -138.35 111.9 -138.5L113.55 -132.45L112.1 -131.7L109.65 -140.75L112.8 -142.4L111.7 -143.6L108.25 -141.8L107.9 -143L114.45 -146.35L114.15 -147.5L115.8 -148.35L116.1 -147.2L122.6 -150.6L122.95 -149.4M133.05,-152.15L137.9 -154.65L138.2 -153.55L133.35 -151.05L133.85 -149.25L138.05 -151.4L139.45 -146.25L137.95 -145.5L137.75 -146.2L131.4 -142.9L131.65 -142L130.05 -141.2L128.6 -146.55L132.4 -148.5L131.1 -153.35L132.55 -154.1L133.05 -152.15M117.7,-146.7L113.4 -144.45L114.5 -143.25L117.35 -144.75L117.7 -146.7M113.4,-140.25L113.7 -141.5L111.4 -140.3L111.85 -138.6L113.4 -140.25M116,-136.75L119.05 -138.35L118.7 -139.7L115.65 -138.1L116 -136.75M120.9,-138L116.3 -135.6L116.45 -135.1L114.95 -134.35L113.9 -138.35L120 -141.5L120.9 -138M103.45,-141.2L107.35 -143.2L107.65 -142.1L103.75 -140.1L103.95 -139.25L103.1 -138.8L104.25 -139.1L104.15 -138.3L104 -137.15L104.95 -137.65L105.8 -140.1L107.15 -140.15L106.5 -138.45L108.05 -139.25L108.35 -138.25L105.75 -136.9L106.5 -136.35L109.1 -137.7L109.35 -136.8L107.55 -135.85L110.2 -135.55L109.45 -134.1L108.2 -134.25L107.25 -132.75L106.3 -133.15L107.05 -134.5L105.9 -135L103.1 -133.55L102.8 -132.85L102.45 -132.05L103.7 -131.6L102.9 -130.3L101.7 -130.9L100.95 -129.85L100.05 -130.15L100.8 -127.35L100.7 -126.6L99 -125.1L98.6 -125.75L98.45 -125.9L98.1 -126.15L99.2 -126.7L99.4 -126.85L99.35 -127.15L98.75 -129.5L97.2 -128.7L97.3 -126.3L97.15 -124.4L95.75 -124.7Q96.1 -126.75 95.9 -127.95L94.4 -134.05L98.45 -136.15L99.95 -130.4L100.5 -131.2L100.75 -131.5L101.4 -132.65L99.9 -131.9L99.65 -132.8L101.9 -133.95L102.25 -135.1L99.85 -133.85L99.55 -134.85L102.55 -136.4L102.75 -138.6L102.55 -138.5L102.35 -139.35L98.7 -137.5L98.9 -136.65L97.5 -135.9L97.3 -136.75L93.6 -134.8L93.3 -135.9L97 -137.85L96.8 -138.6L98.2 -139.35L98.4 -138.6L102.05 -140.45L101.85 -141.2L103.25 -141.95L103.45 -141.2M106.6,-130.1L106.5 -129.3L104.85 -128L104 -129L105.15 -129.6L105.15 -129.75L104.15 -133.45L105.5 -134.15L105.95 -132.45L108.15 -132.3L110.35 -132.6L110.05 -131.95L109.8 -131.15L106.35 -131.05L106.6 -130.1M104.75,-135.95L104.45 -136.25L103.8 -135.9L103.5 -134.8L105 -135.55L104.75 -135.95M104.75,-130.25L101.85 -127.45L100.95 -128.2L102.1 -129.2L104.35 -131.25L104.75 -130.25M101.25,-135.9L99.75 -136.35L100.45 -137.6L102 -137.05L101.25 -135.9M85.9,-132.85L86.55 -130.45L92.15 -133.35L94.35 -124.9L94.55 -123.8L94.15 -123.15Q93.7 -122.6 92.2 -121.75L91.85 -122.25L91.05 -122.6L92.7 -123.45L92.9 -123.6L92.9 -123.9L90.85 -131.4L86.7 -129.25L86.85 -128.05L89.4 -127.45L91.8 -126.65L90.95 -125L88.95 -125.9L88.3 -126.1L86.75 -126.5Q86.4 -124.8 85.85 -123.55Q85.3 -122.45 84.15 -121Q83.55 -121.55 82.95 -121.7Q84.45 -123.55 85.05 -125.1Q85.45 -126.5 85.25 -128.5L81.5 -126.55L83.95 -117.55L82.45 -116.8L79.7 -126.95L85.1 -129.7L84.45 -132.1L85.9 -132.85M98.1,-131.85L96.55 -131.05L96.9 -129.85L98.45 -130.65L98.1 -131.85M97.85,-132.85L97.45 -134.25L96 -133.45L96.4 -132.05L97.85 -132.85M131.1,-144.05L137.45 -147.35L136.85 -149.55L130.5 -146.25L131.1 -144.05" />
<path style="fill:#FFFF33;fill-opacity:1" d="M75.25,-109.9L147.05 -147.05L148.25 -142.65Q148.6 -141.3 147.45 -140.7L78 -104.75Q76.8 -104.15 76.45 -105.5L75.25 -109.9" />
<path style="fill:none;stroke-width:2.5;stroke-linecap:round;stroke-linejoin:round;stroke-miterlimit:3;stroke:#CCCC33;stroke-opacity:1" d="M147.05,-147.05L141.95 -166.05Q141.6 -167.45 140.45 -166.85L71 -130.9Q69.8 -130.3 70.15 -128.9L75.25 -109.9M147.05,-147.05L148.25 -142.65Q148.6 -141.3 147.45 -140.7L78 -104.75Q76.8 -104.15 76.45 -105.5L75.25 -109.9" />
<path style="fill:#79629D;fill-opacity:1" d="M105.2,-124L104.65 -123.6L104.05 -123.65L103.9 -122.4L105.25 -123.15L105.4 -122.65L105.25 -122.1L105.2 -122.35L104.65 -122.8L104 -122.35L104 -121.9L104.35 -121.3L104 -121.05Q102.85 -122.7 104.35 -124.05L105.2 -124M108.8,-125.4L109.35 -124.1L109.15 -125.6L110.1 -125.75L109.2 -123.05L107.7 -124.8L108.8 -125.4M107.65,-124.55L108.3 -123.1L107.45 -122.95L107 -122.2L106.15 -122.15L105.65 -123.65L106.25 -123.8L106.8 -122.4L107.2 -122.7L106.9 -124.35L107.65 -124.55M111.3,-124.75Q111.85 -124.8 111.85 -125.4Q111.9 -126.25 111.4 -126.7L111.3 -126.75L112.15 -126.9L112.8 -125.45L111.95 -125.3Q111.55 -124.4 110.65 -124.5L110.2 -125.8Q110.55 -125.95 110.3 -126.1L110.75 -126.15L111.3 -124.75M118.15,-130.75L117.55 -129.5L118.1 -130.1L119.15 -130L118.6 -128.2L117.65 -128.15Q116.4 -130 118.1 -131.2L118.5 -131.05Q119.1 -130.55 118.15 -130.75M121.1,-131.25L121.35 -130.1L120.55 -129.55L120.55 -131L119.55 -130.2L119.25 -131.8L120.95 -132.4L119.5 -131.45L119.6 -130.45L120.6 -131.25L121.1 -131.25M114.5,-129.35L116.55 -130.1L115.8 -126.8L116.25 -129.8L114.6 -128.45L114.5 -129.35M114.6,-128.45L113.7 -125.5L112.25 -127.2L113.2 -127.6L113.9 -126.5L113.85 -127.9L114.6 -128.45M117.65,-129Q117.75 -128.65 118 -128.4Q118.15 -128.2 118.45 -128.3Q118.9 -128.65 118.75 -129.45Q118.5 -130.1 118.05 -129.9L117.65 -129.45L117.65 -129M100.65,-121.2L100.8 -122.1L101.4 -122.5L101.3 -121.55L101.9 -121.75L101.35 -121.45L101.95 -119.8L102.1 -119.85Q100.5 -118.7 101.25 -119.5L101.25 -119.6Q101.35 -121.15 100.55 -121.05L100.1 -119.3L99.8 -120.75L100.65 -121.2M96.7,-118.8L97.15 -117.3L96.4 -116.7L96.5 -116.05L95.55 -115.55L94.8 -118.05L95.3 -118.55L96.2 -116.75L95.7 -118.65L96.5 -119L96.75 -119.15L98.2 -119.85L98.85 -118.7L98.65 -118L97.5 -119.35L96.7 -118.8M99.95,-118.7L99.1 -119.75L99.25 -120.5L100.1 -119.3L99.95 -118.7M93.8,-117.45L94.25 -117.75L94.55 -116.25L94.2 -115.9L93.8 -117.45M92.95,-117.3L93.55 -114.85L92.95 -114.35L92.45 -116.8L91.6 -116.4L92.25 -114.75L90.25 -113.85L89.5 -115.45L89.9 -116.15L90.75 -115.95L90.25 -115.7L90.7 -114.15L91.5 -114.55L91.05 -117.05L91.7 -117.3L91.55 -116.5L92.95 -117.3M88.6,-114.4L89.2 -114.75L89.5 -113.45L88.95 -113.1L88.6 -114.4L87.6 -113.6L87.3 -115.2L89 -115.8L87.55 -114.85L87.65 -113.85L88.6 -114.4M136.65,-140.7L136.45 -140.3L136.05 -140.4L136.3 -140.8Q136.55 -140.95 136.65 -140.7M131.95,-137.9L131.95 -137.7L133.3 -138.3L133.7 -135.5L133.3 -135.35L132.8 -137.8L132 -137.4L132.65 -135.75L131.7 -135.2L131.3 -137L130.8 -136.4L131 -134.9L130.05 -134.3L130.05 -136.55L131.9 -138.3L131.95 -137.9M133.15,-138.9Q133.1 -138.15 132.2 -138.45L132.6 -138.6L133.15 -138.9M134.9,-136.45L134.9 -136.2Q134.45 -136.25 134.9 -136.45M135.35,-137.65L135.3 -139.1L136.75 -140.1L137.55 -138.35L136.55 -137.8L136.25 -139.6L135.2 -136.65L133.7 -138.35L134.65 -138.75L135.35 -137.65M138.95,-140.95L138.15 -140.4L138.6 -138.9L137.75 -138.45L137.25 -140.25L138 -140.35L138.95 -140.95M126.95,-133.1L126.8 -133.95L126.2 -134.15L125.8 -133.25L126.15 -132.65L126.3 -132.55L125.8 -132.4L125.25 -133.05L125.7 -134.85L125.7 -133.75L126.25 -134.35L127.3 -134.25L126.95 -133.1M127.25,-136L129.3 -136.75L128.55 -133.45L129 -136.45L127.4 -135.05L127.25 -136M126.75,-134.95L126.1 -135.2L126.65 -135.5Q127.25 -135.4 126.75 -134.95M122.95,-133.8L123.45 -131.9L123.9 -131.95L123.85 -131.25L123.05 -130.8L123 -131.45L121.6 -130.9L122.55 -133.6L122.95 -133.8M122.95,-131.6L122.55 -133.1L121.8 -131L122.95 -131.6" />
</g>
</svg>
