<?xml version="1.0" encoding="utf-8"?>
<svg version="1.1" id="Layer_1"
xmlns="http://www.w3.org/2000/svg"
xmlns:xlink="http://www.w3.org/1999/xlink"
xmlns:author="http://www.sothink.com"
width="20px" height="184px"
xml:space="preserve">
<g id="30" transform="matrix(1, 0, 0, 1, -20.25, 178.75)">
<linearGradient
id="LinearGradID_250" gradientUnits="userSpaceOnUse" gradientTransform="matrix(0.0660248, 0.00292969, -0.00242615, 0.0546875, 79.4, -201.75)" spreadMethod ="pad" x1="-819.2" y1="0" x2="819.2" y2="0" >
<stop  offset="0.345098" style="stop-color:#804000;stop-opacity:1" />
<stop  offset="1" style="stop-color:#999999;stop-opacity:1" />
</linearGradient>
<path style="fill:url(#LinearGradID_250) " d="M25.75,-171.65L25.85 -171.7L25.9 -171.7L32.7 -175L32.75 -175L32.8 -174.95L32.8 -175.15L32.75 -175.1L32.75 -175.05L32.7 -175.1L32.65 -175.05L32.6 -175.1L32.8 -175.2L39.1 -178.25L39.25 -178.15L39.05 1.15L32.65 4.25L26.1 1.95L26.1 -6.75L26.25 -6.75L26.1 -6.8L25.65 -164.35L25.75 -171.65" />
<linearGradient
id="LinearGradID_251" gradientUnits="userSpaceOnUse" gradientTransform="matrix(0.0427246, 0, 0, 0.0547485, 32.7, -171.05)" spreadMethod ="pad" x1="-819.2" y1="0" x2="819.2" y2="0" >
<stop  offset="0.345098" style="stop-color:#804000;stop-opacity:1" />
<stop  offset="1" style="stop-color:#999999;stop-opacity:1" />
</linearGradient>
<path style="fill:url(#LinearGradID_251) " d="M25.65,-164.35L20.75 -162L20.75 -169.2L25.75 -171.65L25.65 -164.35" />
<path style="fill:none;stroke-width:1;stroke-linecap:round;stroke-linejoin:round;stroke-miterlimit:3;stroke:#333333;stroke-opacity:1" d="M32.8,-175.2L39.1 -178.25M39.05,1.15L32.65 4.25L26.1 1.95L26.1 -6.75L26.25 -6.75L26.1 -6.8L25.65 -164.35L20.75 -162M20.75,-169.2L25.75 -171.65M25.9,-171.7L32.7 -175L32.65 4.25" />
<path style="fill:none;stroke-width:1;stroke-linecap:round;stroke-linejoin:round;stroke-miterlimit:3;stroke:#000000;stroke-opacity:1" d="M39.25,-178.15L39.05 1.15" />
</g>
</svg>
