<?xml version="1.0" encoding="utf-8"?>
<svg version="1.1" id="Layer_1"
xmlns="http://www.w3.org/2000/svg"
xmlns:xlink="http://www.w3.org/1999/xlink"
xmlns:author="http://www.sothink.com"
width="764px" height="362px"
xml:space="preserve">
<g id="380" transform="matrix(1, 0, 0, 1, 283.35, 138.25)">
<path style="fill:#C87B31;fill-opacity:1" d="M-2.3,214.65L-2.3 214.55L236.4 95.2L238.5 96.25L238.6 96.35L239.2 96.6L243.3 98.65L243.9 98.95L4.8 218.5L4.8 222.9L3.7 222.35L3.7 217.6Q0.7 216.1 -2.3 214.65" />
<path style="fill:#8A3D20;fill-opacity:1" d="M3.7,217.6L3.7 222.35L-2.3 219.2L-2.3 214.65Q0.7 216.1 3.7 217.6" />
<path style="fill:none;stroke-width:0.5;stroke-linecap:round;stroke-linejoin:round;stroke-miterlimit:3;stroke:#43563D;stroke-opacity:1" d="M239.2,96.6L238.6 96.35" />
<path style="fill:none;stroke-width:0.5;stroke-linecap:round;stroke-linejoin:round;stroke-miterlimit:3;stroke:#43563D;stroke-opacity:1" d="M238.6,96.35L238.5 96.25" />
<path style="fill:none;stroke-width:0.5;stroke-linecap:round;stroke-linejoin:round;stroke-miterlimit:3;stroke:#A05E27;stroke-opacity:1" d="M88.7,175.95L4.2 218.2M243.3,98.65L137.95 151.35" />
<path style="fill:none;stroke-width:0.5;stroke-linecap:round;stroke-linejoin:round;stroke-miterlimit:3;stroke:#493227;stroke-opacity:1" d="M239.2,96.6L243.3 98.65L243.9 98.95L4.8 218.5L4.8 222.9L3.7 222.35L-2.3 219.2L-2.3 214.65L-2.3 214.55L236.4 95.2L238.5 96.25L239.2 96.6z" />
<path style="fill:none;stroke-width:0.5;stroke-linecap:round;stroke-linejoin:round;stroke-miterlimit:3;stroke:#A05E27;stroke-opacity:1" d="M137.95,151.35L88.7 175.95" />
<path style="fill:none;stroke-width:1.25;stroke-linecap:round;stroke-linejoin:round;stroke-miterlimit:3;stroke:#E8BA6F;stroke-opacity:1" d="M237.9,95.95L0 215.1M240.5,97.25L2.6 216.2" />
<path style="fill:#DA9C5F;fill-opacity:1" d="M201.55,-11.5L201.55 -8.15L39.3 -89.15L39.3 -92.45L201.55 -11.5M444.1,113.05L422.95 102.45L279.55 30.85L279.55 27.4L422.95 99L444.1 109.55L444.1 113.05" />
<path style="fill:none;stroke-width:0.5;stroke-linecap:round;stroke-linejoin:round;stroke-miterlimit:3;stroke:#633612;stroke-opacity:1" d="M39.3,-89.15L201.55 -8.15M201.55,-11.5L39.3 -92.45M422.95,102.45L279.55 30.85M279.55,27.4L422.95 99" />
<path style="fill:none;stroke-width:0.5;stroke-linecap:round;stroke-linejoin:round;stroke-miterlimit:3;stroke:#633612;stroke-opacity:1" d="M444.1,113.05L422.95 102.45M422.95,99L444.1 109.55" />
<path style="fill:#3F332C;fill-opacity:1" d="M-84.9,-74.95L-241.15 3.15L-276.5 -14.55L-120.3 -92.65L-84.9 -74.95M-243,4.05L-241.15 4.95L-241.15 5L-243 4.05M-280.1,80.2L-279.15 80.65L-280.1 80.2" />
<path style="fill:none;stroke-width:0.5;stroke-linecap:round;stroke-linejoin:round;stroke-miterlimit:3;stroke:#000000;stroke-opacity:1" d="M-120.3,-92.65L-276.5 -14.55L-241.15 3.15L-84.9 -74.95L-120.3 -92.65z" />
<path style="fill:#925832;fill-opacity:1" d="M-168.15,-11.15Q-170.3 -11.95 -174.25 -10.1L-177.25 -8.7Q-178.3 -8.35 -178.25 -9.5Q-178.2 -10.7 -175.5 -12.4L-172.85 -13.7L-168.15 -11.15" />
<path style="fill:#CF8E38;fill-opacity:1" d="M-241.2,28.7L-171.75 -6Q-168.75 -7.45 -168.7 -8.5Q-168.65 -9.55 -172.75 -8Q-177.95 -6.05 -178.4 -6.25L-179.9 -7.1Q-181.05 -8.4 -180.95 -9.55L-180.9 -9.75L-180.25 -11.2L-180.2 -11.3L-178.2 -14L-83.15 -60.85L-83.15 -58.6L-172.85 -13.7L-175.5 -12.4Q-178.2 -10.7 -178.25 -9.5Q-178.3 -8.35 -177.25 -8.7L-174.25 -10.1Q-170.3 -11.95 -168.15 -11.15L-167.45 -10.8Q-166.05 -10.05 -166.05 -8.85Q-166.05 -7.45 -167.05 -6.45Q-168 -5.45 -171.55 -3.75L-249.4 35.2L-249.4 32.85L-248.4 32.35L-243.3 29.75L-242.3 29.3L-242.3 29.25L-241.2 28.7" />
<radialGradient
id="RadialGradID_1499" gradientUnits="userSpaceOnUse" gradientTransform="matrix(0.0842896, 0, 0, 0.0842896, -130.65, -37.4)" spreadMethod ="pad" cx="0" cy="0" r="819.2" fx="0" fy="0" >
<stop  offset="0"  style="stop-color:#C87B31;stop-opacity:1" />
<stop  offset="1"  style="stop-color:#9D5322;stop-opacity:1" />
</radialGradient>
<path style="fill:url(#RadialGradID_1499) " d="M-94.75,-66.7L-83.15 -60.85L-178.2 -14L-180.2 -11.3L-180.25 -11.2L-180.9 -9.75L-180.95 -9.55Q-181.05 -8.4 -179.9 -7.1L-196.3 -15.95L-94.75 -66.7" />
<radialGradient
id="RadialGradID_1500" gradientUnits="userSpaceOnUse" gradientTransform="matrix(0.0787964, 0, 0, 0.0787964, -211.75, 13.9)" spreadMethod ="pad" cx="0" cy="0" r="819.2" fx="0" fy="0" >
<stop  offset="0"  style="stop-color:#C87B31;stop-opacity:1" />
<stop  offset="1"  style="stop-color:#9D5322;stop-opacity:1" />
</radialGradient>
<path style="fill:url(#RadialGradID_1500) " d="M-243.3,29.75L-248.4 32.35L-249.4 32.85L-279.4 17.75L-279.9 17.5L-247.95 1.5L-239.6 5.7L-239.6 4.55L-239.6 5.7L-196.3 -15.95L-179.9 -7.1L-178.4 -6.25Q-177.95 -6.05 -172.75 -8Q-168.65 -9.55 -168.7 -8.5Q-168.75 -7.45 -171.75 -6L-241.2 28.7L-242.3 29.25L-243.3 29.75" />
<path style="fill:#B36F42;fill-opacity:1" d="M-249.95,34.95L-279.65 20.05L-280 19.85L-280.1 19.8L-280.1 17.5L-280 17.55L-249.4 32.85L-249.4 35.2L-249.95 34.95" />
<path style="fill:none;stroke-width:0.5;stroke-linecap:round;stroke-linejoin:round;stroke-miterlimit:3;stroke:#49250E;stroke-opacity:1" d="M-172.85,-13.7L-175.5 -12.4Q-178.2 -10.7 -178.25 -9.5Q-178.3 -8.35 -177.25 -8.7L-174.25 -10.1Q-170.3 -11.95 -168.15 -11.15L-172.85 -13.7L-83.15 -58.6L-83.15 -60.85L-178.2 -14L-180.2 -11.3M-180.25,-11.2L-180.9 -9.75L-180.95 -9.55Q-181.05 -8.4 -179.9 -7.1L-178.4 -6.25Q-177.95 -6.05 -172.75 -8Q-168.65 -9.55 -168.7 -8.5Q-168.75 -7.45 -171.75 -6L-241.2 28.7L-242.3 29.3L-243.3 29.75L-248.4 32.35L-249.4 32.85L-248.4 32.35M-279.65,20.05L-249.95 34.95L-249.4 35.2L-171.55 -3.75Q-168 -5.45 -167.05 -6.45Q-166.05 -7.45 -166.05 -8.85Q-166.05 -10.05 -167.45 -10.8L-168.15 -11.15M-179.9,-7.1L-196.3 -15.95L-239.6 5.7L-247.95 1.5L-279.9 17.5L-280 17.55L-280 17.45L-279.9 17.5M-279.4,17.75L-249.4 32.85M-83.15,-60.85L-94.75 -66.7L-196.3 -15.95M-243.3,29.75L-242.3 29.25L-242.3 29.3M-242.3,29.25L-241.2 28.7M-279.4,17.75L-279.9 17.5M-280,17.55L-280 19.85M-249.4,35.2L-249.95 34.95M-279.65,20.05L-280 19.9L-280 19.85" />
<path style="fill:#7B570D;fill-opacity:1" d="M-239.6,5.2L-282.05 -16L-283.1 -16.5L-283.1 -16.55L-123.6 -96.25L-119.95 -98.05L-119.9 -98.1L-119.45 -98.3L-40.1 -137.95L-40.05 -138L-40.05 -134.5L-40.1 -134.5L-116.4 -96.35L-116.45 -96.3L-116.55 -96.25L-113.05 -94.5L-112.95 -94.55L-80 -78.05L-79.95 -78.1L-76.45 -76.35L-76.5 -76.3L-239.6 5.2M-85.6,-75.25L-83.6 -76.25L-116.6 -92.75L-116.55 -92.75L-120.05 -94.5L-120.1 -94.5L-120.85 -94.1L-120.05 -94.45L-122.05 -93.45L-122.2 -93.4L-276 -16.55L-274.15 -15.6L-239.55 1.7L-85.6 -75.25" />
<path style="fill:#DA9C5F;fill-opacity:1" d="M-116.4,-96.35L-40.1 -134.5L-40.05 -134.5L-1.05 -114.95L422.95 96.6L480.2 125.15L480.2 128.65L422.95 100.1L-39.55 -130.7L-40.05 -131L-40.1 -131L-112.9 -94.6L-112.95 -94.55L-113.05 -94.5L-116.55 -96.25L-116.45 -96.3L-116.4 -96.35M-239.6,8.7L-239.6 5.2L-76.5 -76.3L-76.45 -76.35L-76.45 -76.3L-76.45 -72.85L-76.6 -72.75L-79.95 -71.1L-239.6 8.7M-120.05,-94.5L-116.55 -92.75L-116.6 -92.75L-120.05 -94.45L-120.1 -94.5L-120.05 -94.5M-1.1,-114.85L-0.15 -114.5L-1.05 -114.95L-1.1 -114.85" />
<path style="fill:#A05E27;fill-opacity:1" d="M422.95,96.6L-1.05 -114.95L-40.05 -134.5L-40.05 -138L137.95 -49.15L480.2 121.65L480.2 125.15L422.95 96.6" />
<path style="fill:#784829;fill-opacity:1" d="M-116.6,-92.75L-83.6 -76.25L-85.6 -75.25L-115.95 -90.4L-119.85 -92.35L-120.35 -92.6L-274.15 -15.6L-276 -16.55L-122.2 -93.4L-122.05 -93.45L-120.05 -94.45L-116.6 -92.75M-120.85,-94.1L-120.1 -94.5L-120.05 -94.45L-120.85 -94.1" />
<path style="fill:#B36F42;fill-opacity:1" d="M-283.1,-13L-283.1 -13.05L-283.1 -14.35L-283.1 -16.5L-282.05 -16L-239.6 5.2L-239.6 8.7L-280 -11.45L-280 76.25L-238.95 96.75L-238.95 100.75L-283.1 78.7L-283.1 -13" />
<path style="fill:none;stroke-width:0.5;stroke-linecap:round;stroke-linejoin:round;stroke-miterlimit:3;stroke:#633612;stroke-opacity:1" d="M422.95,100.1L-39.55 -130.7L-40.1 -131L-112.9 -94.6L-112.95 -94.55M-76.45,-72.85L-76.6 -72.75L-79.95 -71.1L-239.6 8.7L-239.6 5.2M-40.05,-134.5L-1.05 -114.95L422.95 96.6M-40.1,-134.5L-116.4 -96.35L-116.45 -96.3L-116.55 -96.25M-113.05,-94.5L-112.95 -94.55M-76.5,-76.3L-76.45 -76.35M-76.5,-76.3L-239.6 5.2" />
<path style="fill:none;stroke-width:0.5;stroke-linecap:round;stroke-linejoin:round;stroke-miterlimit:3;stroke:#49250E;stroke-opacity:1" d="M137.95,-49.15L480.2 121.65L480.2 125.15" />
<path style="fill:none;stroke-width:0.5;stroke-linecap:round;stroke-linejoin:round;stroke-miterlimit:3;stroke:#49250E;stroke-opacity:1" d="M-239.6,5.2L-282.05 -16L-283.1 -16.55L-283.1 -16.5L-283.1 -16.55L-123.6 -96.25L-119.95 -98.05L-119.9 -98.1L-119.45 -98.3L-40.1 -137.95L-40.05 -138L137.95 -49.15M-112.95,-94.55L-80 -78.05L-76.5 -76.3M-76.45,-76.35L-76.45 -76.3L-76.45 -72.85M-79.95,-71.1L-79.95 16.7M-283.1,-14.35L-283.1 -13.05L-283.1 -13L-283.1 -14.35L-283.1 -16.5M-120.05,-94.45L-122.05 -93.45L-122.2 -93.4L-276 -16.55L-274.15 -15.6L-120.35 -92.6L-119.85 -92.35L-115.95 -90.4L-85.6 -75.25L-83.6 -76.25L-116.6 -92.75L-120.05 -94.45L-120.1 -94.5M-280,-11.45L-280 76.25L-238.95 96.75L-238.95 100.75L-283.1 78.7L-283.1 -13L-280 -11.45L-239.6 8.7M-116.4,-96.35L-112.9 -94.6M-112.95,-94.55L-116.45 -96.3M-76.45,-76.3L-76.5 -76.3M-274.15,-15.6L-239.55 1.7L-85.6 -75.25" />
<path style="fill:none;stroke-width:0.5;stroke-linecap:round;stroke-linejoin:round;stroke-miterlimit:3;stroke:#633612;stroke-opacity:1" d="M422.95,96.6L480.2 125.15L480.2 128.65L422.95 100.1" />
</g>
</svg>
