<?xml version="1.0" encoding="utf-8"?>
<svg version="1.1" id="Layer_1"
xmlns="http://www.w3.org/2000/svg"
xmlns:xlink="http://www.w3.org/1999/xlink"
xmlns:author="http://www.sothink.com"
width="115px" height="71px"
xml:space="preserve">
<g id="160" transform="matrix(1, 0, 0, 1, 58.4, 27.45)">
<path style="fill:#AEB7B1;fill-opacity:1" d="M44.5,8.55L5.7 28L-0.8 31.25L-52.7 5.2L-17.25 -12.55L-17.05 -12.45L-17.05 -12.65L-1 -20.7L51 5.3L44.5 8.55M-18.85,-5.7L-19.05 -5.55L-18.85 -5.4L-18.85 -5.7" />
<path style="fill:#C2C2C2;fill-opacity:1" d="M-17.25,-12.55L-17.05 -12.65L-17.05 -12.45L-17.25 -12.55M-18.85,-5.4L-19.05 -5.55L-18.85 -5.7L-18.85 -5.4" />
<path style="fill:#2D312F;fill-opacity:1" d="M51,5.3Q57.15 9.75 55.95 14.1Q52.4 15.9 48.8 17.65L6.15 39.05L-1 42.6L-0.8 31.25L5.7 28L44.5 8.55L51 5.3" />
<path style="fill:#6D7872;fill-opacity:1" d="M-0.8,31.25L-1 42.6L-58.1 13.95Q-58.65 8.05 -52.7 5.2L-0.8 31.25" />
<path style="fill:none;stroke-width:0.5;stroke-linecap:round;stroke-linejoin:round;stroke-miterlimit:3;stroke:#666666;stroke-opacity:1" d="M-58.1,13.95Q-58.65 8.05 -52.7 5.2L-17.25 -12.55L-17.05 -12.65L-1 -20.7M51,5.3Q57.15 9.75 55.95 14.1M-0.8,31.25L-1 42.6" />
<path style="fill:none;stroke-width:0.5;stroke-linecap:round;stroke-linejoin:round;stroke-miterlimit:3;stroke:#737162;stroke-opacity:1" d="M-1,-20.7L51 5.3M55.95,14.1Q52.4 15.9 48.8 17.65M6.15,39.05L-1 42.6L-58.1 13.95M-52.7,5.2L-0.8 31.25L5.7 28M44.5,8.55L51 5.3" />
<path style="fill:none;stroke-width:0.5;stroke-linecap:round;stroke-linejoin:round;stroke-miterlimit:3;stroke:#666457;stroke-opacity:1" d="M48.8,17.65L6.15 39.05M5.7,28L44.5 8.55" />
<path style="fill:#46464A;fill-opacity:0.541176" d="M0.95,22.3L-35 4.25L0.8 -13.65L36.8 4.35Q18.9 13.35 0.95 22.3" />
<path style="fill:#484848;fill-opacity:1" d="M36.25,-10.85L36.25 -7.35L30.65 -4.55L3.55 -18.1L3.55 -25.95L3.55 -26.35L3.55 -27.2L36.25 -10.85" />
<path style="fill:#878787;fill-opacity:1" d="M3.55,-13.65L3.55 -15.9L5.8 -14.8L3.55 -13.65M-3.6,-13.5L-6.15 -14.8L-3.6 -16.05L-3.6 -13.5" />
<path style="fill:none;stroke-width:0.5;stroke-linecap:round;stroke-linejoin:round;stroke-miterlimit:3;stroke:#666666;stroke-opacity:1" d="M3.55,-27.2L3.55 -26.35L3.55 -25.95L3.55 -18.1M30.65,-4.55L36.25 -7.35L36.25 -10.85M5.8,-14.8L3.55 -15.9L3.55 -13.65L5.8 -14.8M-3.6,-16.05L-6.15 -14.8L-3.6 -13.5L-3.6 -16.05" />
<path style="fill:none;stroke-width:0.5;stroke-linecap:round;stroke-linejoin:round;stroke-miterlimit:3;stroke:#FFFFFF;stroke-opacity:1" d="M3.55,-26.35L33.8 -11.25M3.55,-25.95L1.1 -27.2" />
<path style="fill:none;stroke-width:0.5;stroke-linecap:round;stroke-linejoin:round;stroke-miterlimit:3;stroke:#262626;stroke-opacity:1" d="M3.55,-18.1L30.65 -4.55M36.25,-10.85L3.55 -27.2" />
</g>
</svg>
