<?xml version="1.0" encoding="utf-8"?>
<svg version="1.1" id="Layer_1"
xmlns="http://www.w3.org/2000/svg"
xmlns:xlink="http://www.w3.org/1999/xlink"
xmlns:author="http://www.sothink.com"
width="56px" height="33px"
xml:space="preserve">
<g id="814" transform="matrix(1, 0, 0, 1, 31.75, 47.5)">
<path style="fill:#000000;fill-opacity:1" d="M16.05,-37.45L16.1 -37.55Q14.7 -37.7 15.15 -37.3Q14.9 -35.25 15 -32.5L15.15 -29Q15.2 -27.5 14.8 -26.8L14.2 -25.4Q14.35 -22.7 13.2 -20.85L11.7 -18.55Q11.35 -18.05 10.45 -18.3L9.05 -18.8L8.75 -16.5Q6.25 -18.75 3.3 -18.9L-3 -18.55Q-3.65 -18.6 -7.4 -16.45Q-11.2 -14.35 -14.95 -16.75Q-18.65 -19.2 -19.25 -19.15L-23.3 -21.65Q-25.65 -22.9 -28.5 -23.55Q-31.35 -24.2 -31.25 -27L-25.55 -27.25Q-26.1 -28.6 -24.15 -29.7Q-22.2 -30.85 -19.3 -31.2L-18.7 -32.4Q-16.2 -34.3 -15.6 -39.15L-17.4 -39.6L-22.05 -40.4L-17.5 -47.5L-14.15 -45.15L-2.75 -42.3L0.8 -42.3L4.85 -43.15L18.25 -45.9L23.5 -37.35L19.7 -38.5L17.15 -37.55L17.1 -37.55L16.05 -37.45M-1.9,-36.75L-2 -37L-2.5 -37L-2.55 -37.1L-2.65 -37.15L-2.95 -37.1L-3.55 -36.9L-1.9 -36.75" />
<path style="fill:none;stroke-width:1;stroke-linecap:round;stroke-linejoin:round;stroke-miterlimit:3;stroke:#CCCCCC;stroke-opacity:1" d="M-1.9,-36.75L-1.85 -36.75L2.95 -36.15L5.75 -36L7.45 -36.3L8.95 -36.05L9.55 -36L15.15 -37.3L15.65 -37.25L16.05 -37.45L16.1 -37.55M-15.6,-39.15L-17.4 -39.6M19.7,-38.5L17.15 -37.55L17.1 -37.55L16.05 -37.45M-15.6,-39.15L-6.9 -37.3L-3.65 -36.9L-3.55 -36.9M-1.9,-36.75L-3.55 -36.9" />
<path style="fill:none;stroke-width:1;stroke-linecap:round;stroke-linejoin:round;stroke-miterlimit:3;stroke:#000000;stroke-opacity:1" d="M15.15,-37.3Q14.9 -35.25 15 -32.5L15.15 -29Q15.2 -27.5 14.8 -26.8L14.2 -25.4Q14.35 -22.7 13.2 -20.85L11.7 -18.55Q11.35 -18.05 10.45 -18.3L9.05 -18.8L8.75 -16.5Q6.25 -18.75 3.3 -18.9L-3 -18.55Q-3.65 -18.6 -7.4 -16.45Q-11.2 -14.35 -14.95 -16.75Q-18.65 -19.2 -19.25 -19.15L-23.3 -21.65Q-25.65 -22.9 -28.5 -23.55Q-31.35 -24.2 -31.25 -27L-25.55 -27.25Q-26.1 -28.6 -24.15 -29.7Q-22.2 -30.85 -19.3 -31.2L-18.7 -32.4Q-16.2 -34.3 -15.6 -39.15M14.2,-25.4L11 -26.5M14.8,-26.8L10.75 -28.1M15,-32.5L12.25 -33M-25.55,-27.25L-9.8 -24.3Q0 -22.45 5 -22.75Q4.2 -20.8 5.4 -19.65Q6.6 -18.55 9.05 -18.8M-18.7,-32.4L-14.75 -31.5M-19.3,-31.2L-16.6 -30.6M-3,-18.55L-3 -21.25M-19.25,-19.15L-19.25 -22.5" />
<path style="fill:none;stroke-width:1;stroke-linecap:round;stroke-linejoin:round;stroke-miterlimit:3;stroke:#FFFFFF;stroke-opacity:1" d="M0.8,-28.8L0.5 -29.45L-1.45 -31.95L-1.8 -32.05L-6.6 -32.45L-7.15 -32.6L-9.55 -30.8L-9.65 -30.7L-7.2 -27.1L-6.9 -26.65L-3.75 -26.45L-2.8 -26.3L-2.65 -26.05L0.85 -28.75L0.8 -28.8M-6.9,-26.65L-6.95 -26.65L-7.2 -27.1L-7.7 -26.75L-13.1 -28.1L-11.1 -29.75L-9.95 -30.55L-9.65 -30.7L-11.9 -34.1L-7.15 -32.6L-6.7 -32.95L-6.6 -32.45L-5.85 -33.6L-3.75 -35.2L-2.1 -32.95L-1.8 -32.05L-1.5 -32.05L-1.45 -31.95L4.2 -31.15L0.85 -28.75L2.9 -26M-0.65,-25.75L-2.65 -26.05" />
<path style="fill:none;stroke-width:1;stroke-linecap:round;stroke-linejoin:round;stroke-miterlimit:3;stroke:#999999;stroke-opacity:1" d="M2.9,-26L3.35 -25.4M-6.1,-25.5L-6.9 -26.65M-2.65,-26.05L-3.5 -25.5M2.35,-25.3L-0.65 -25.75" />
</g>
</svg>
