<?xml version="1.0" encoding="utf-8"?>
<svg version="1.1" id="Layer_1"
xmlns="http://www.w3.org/2000/svg"
xmlns:xlink="http://www.w3.org/1999/xlink"
xmlns:author="http://www.sothink.com"
width="109px" height="42px"
xml:space="preserve">
<g id="959" transform="matrix(1, 0, 0, 1, 89.9, 22.75)">
<linearGradient
id="LinearGradID_3112" gradientUnits="userSpaceOnUse" gradientTransform="matrix(0.0167847, 0.0273743, -0.0470428, 0.00949097, -31.25, -1.45)" spreadMethod ="pad" x1="-819.2" y1="0" x2="819.2" y2="0" >
<stop  offset="0" style="stop-color:#FF0000;stop-opacity:0.4" />
<stop  offset="0.164706" style="stop-color:#FFFF00;stop-opacity:0.4" />
<stop  offset="0.364706" style="stop-color:#00FF00;stop-opacity:0.4" />
<stop  offset="0.498039" style="stop-color:#00FFFF;stop-opacity:0.4" />
<stop  offset="0.666667" style="stop-color:#0000FF;stop-opacity:0.4" />
<stop  offset="0.831373" style="stop-color:#FF00FF;stop-opacity:0.4" />
<stop  offset="1" style="stop-color:#FF0000;stop-opacity:0.4" />
</linearGradient>
<path style="fill:url(#LinearGradID_3112) " d="M-63.5,-0.25L-61 0.15L-60.95 0.15L-62.15 -0.15L-60.85 -1.2L-59.45 -1.1L-59.35 -0.85L-58.9 -1.25L-59 -1.3L-59.35 -1.1L-59.45 -1.1L-61.9 -1.7L-62.3 -1.75Q-62.15 -1.95 -62.3 -1.95L-63.1 -1.35L-62.9 -1.35L-62.4 -1.5L-62.2 -1.5L-61.05 -1.2L-62.3 -0.15L-63.5 -0.25L-63.75 -0.5L-63.65 -0.5L-63.45 -0.7L-63.7 -0.95L-64.5 0.15L-64.6 0.1L-65.4 0.75L-65.65 0.95L-65.35 0.75L-64.7 0.55L-64.15 0.6Q-63.7 0.65 -63.6 0.85L-63.6 1.35L-63.5 1.1Q-63.15 0.65 -63.35 0.65Q-63.45 0.4 -63.8 0.4L-64.5 0.15L-64.25 -0.05Q-64.1 -0.3 -64 -0.05L-63.85 -0.25L-63.5 -0.25M-48.15,-13.6L-48.15 -14.05L-48.2 -13.8L-48.7 -13.4L-48.4 -13.35Q-48.35 -13.6 -48.15 -13.35L-48.05 -13.35L-45.9 -13L-49.9 -12.6L-50.55 -11.95L-50.35 -11.9L-50.15 -12.15L-49.95 -12.15Q-49.8 -12.35 -49.75 -12.15L-49.6 -12.1L-47 -11.7L-46.9 -11.5L-47 -11.5L-47 -11.25L-46.2 -11.9L-46.45 -11.9L-46.7 -11.65L-47 -11.95L-49.6 -12.1L-45.05 -12.95L-44.95 -13.15L-48.05 -13.35L-48.2 -13.6L-48.15 -13.6M-51.75,-10.9Q-52.25 -10.45 -52.05 -10Q-51.95 -9.8 -51.15 -9.75L-51 -9.75L-49.65 -9.65L-50.65 -9.95L-50.8 -9.75Q-51.6 -10 -51.75 -10.25Q-51.9 -10.7 -51.65 -10.9L-51.5 -11.05L-51.75 -10.9M-52.4,-9.55L-53.25 -9.65L-54.9 -8.2L-54.4 -7.7L-54.4 -7.95Q-54.35 -8.15 -54.45 -8.15Q-54.55 -8.4 -54.25 -8.4L-54.05 -8.85Q-53.9 -8.6 -53.7 -8.85L-51.15 -8.15Q-50.8 -8.35 -50.9 -8.15L-50.8 -7.9L-50.1 -8.6L-50.35 -8.6L-50.45 -8.35L-50.75 -8.6L-53.4 -8.8L-53.7 -9.05L-53.65 -9.05Q-53.35 -9.45 -52.85 -9.4L-52.4 -9.55M-54.9,-6.4L-56.2 -6.75L-56.4 -6.5L-56.3 -7L-56.75 -6.5L-57.25 -6.1L-56.9 -6.3L-56.75 -6.5Q-56.65 -6.5 -56.45 -6.3L-53.85 -6.1L-53.5 -5.85L-53.7 -5.85L-53.9 -5.65L-53.65 -5.4L-51.8 -7.1L-52.45 -7.55L-52.6 -7.4L-52.5 -6.9Q-52.4 -6.7 -52.65 -6.75L-53.05 -6.05L-53.25 -6.05L-53.6 -6.05L-54.9 -6.4L-54.5 -6.6L-54.15 -6.8L-53.65 -7L-54.75 -7.05L-54.55 -6.85L-54.9 -6.4M-55.1,-7.55L-54.6 -7.7L-55.6 -7.6L-55.85 -7.2L-55.65 -7.15Q-55.6 -7.4 -55.1 -7.55M-56.5,-4.7L-56.2 -4L-55.85 -4L-56.05 -3.55L-56.2 -3.55Q-56.3 -3.35 -56.55 -3.4L-56.9 -3.4L-60.75 -3.45L-60.8 -3L-58.5 -1.7Q-58.25 -1.9 -58.5 -1.5L-58.4 -1.5L-57.65 -2.1L-57.9 -2.15L-58.25 -1.9L-58.4 -1.9L-59.15 -2.4L-58.75 -2.6L-59.25 -2.4L-60.7 -3.25L-58.45 -3.05L-58.15 -3.25L-57.3 -3L-56.9 -3.15L-56.95 -2.7L-56.05 -3.55L-55.95 -3.55L-55.1 -4.15L-55.35 -4.2L-55.6 -4L-55.65 -4.2L-55.9 -4.2L-56.5 -4.7L-55.05 -4.85L-54.7 -5.05L-54.6 -4.85L-53.75 -5.4L-54 -5.45L-54.25 -5.25L-54.65 -5.3L-56.65 -4.95L-56.5 -4.7M-56.75,-4.95L-57.3 -5.65L-57.4 -5.85L-57.3 -5.85L-57.35 -6.1L-58.1 -5.55L-58 -5.25L-57.9 -5.5Q-57.75 -5.7 -57.6 -5.5L-57.3 -5.45L-56.9 -4.95L-58.3 -4.85L-58.45 -4.65L-56.65 -4.95L-56.75 -4.95M-59,-4.45L-58.65 -4.65L-58.45 -5.1L-58.6 -5.1L-59.5 -4.25L-59.35 -4.2L-59.2 -4.45L-59 -4.45M-60.1,-0.25L-60.2 -0.25L-60.35 -0.05L-60.1 -0.25M-60.55,-0.05L-60.8 0.2L-61.05 0.6L-60.95 0.6L-60.35 -0.05L-60.55 -0.05M-49.1,-11.15Q-48.2 -11.15 -48.2 -10.9Q-47.9 -10.45 -48.4 -10.2L-49.3 -9.85Q-48.65 -9.75 -48.15 -10.2Q-47.6 -10.65 -47.85 -11.1L-48.85 -11.6L-50.35 -11.45L-51.2 -11.2L-50.6 -11.3L-49.25 -11.2L-49.1 -11.15M-28.65,-14.3L-28.35 -14.05Q-28.05 -14 -28.1 -13.6Q-28 -13.35 -28.9 -12.95Q-29.65 -12.55 -30.3 -12.6L-30.8 -12.6Q-30.45 -12.4 -30.1 -12.35Q-29.2 -12.55 -28.45 -12.95Q-27.8 -13.1 -27.85 -13.6Q-27.6 -13.75 -28.15 -14.25L-28.65 -14.3M-30.05,-14.85L-30.6 -15.3L-30.7 -15.35L-30.5 -15.1L-30.75 -15.1L-33.1 -13.9L-32 -16.1L-32.25 -16.1L-32.6 -15.95L-33.45 -13.7L-33.05 -13.45L-32.9 -13.45L-33.05 -13.7L-33.1 -13.7Q-33.1 -13.9 -32.9 -13.7L-30.5 -14.85L-30.3 -14.85L-30.05 -14.85M-25.4,-12.5Q-25.3 -12.7 -25.05 -12.5L-25 -12.5L-25.75 -13L-25.75 -12.75L-25.85 -12.55L-28.4 -11.8Q-28.45 -11.35 -28.7 -11.6L-28.9 -11.6Q-29.35 -11.85 -29.1 -12.05L-29.05 -12.3L-29.2 -12.3L-29.8 -11.9L-27.6 -10.65L-26.65 -11L-27.25 -11.05L-28.05 -11.35Q-28.25 -11.15 -28.25 -11.35L-28.05 -11.6L-25.65 -12.55L-25.4 -12.5M-39.45,-14.8L-72.15 12.65L0.05 4.8L-38.95 -14.75L-39.45 -14.8M-35.55,-14.75L-35 -14.5L-35 -14.75L-35.2 -14.95Q-35.45 -14.95 -35.55 -14.75L-35.8 -15L-35.65 -14.8L-35.55 -14.75M-31.6,-12.95L-31.65 -13.4Q-31.65 -13.6 -30.85 -13.8L-29.85 -14.4L-31.15 -14.2L-32 -13.6Q-32 -13.15 -31.6 -12.95M-21.95,-11.15L-21.95 -10.9L-21.75 -10.7L-21.15 -10.65L-21 -10.4L-21.1 -10.65L-21.95 -11.15M-21.95,-10.7L-22.95 -10.5L-24.15 -11.05L-23.65 -11.45Q-23.55 -11.65 -23.2 -11.45L-23.05 -11.4L-22.95 -11.4L-23.9 -12.15L-24.05 -11.95L-23.9 -11.95L-23.9 -11.7L-25.85 -10.05L-25.5 -9.75L-24.25 -11.05L-23.15 -10.3L-21.85 -10.7L-21.95 -10.7M-20.35,-9.9Q-20.2 -10.15 -20.05 -10.1L-20.65 -10.35L-20.35 -9.9M-23.6,-9L-24.05 -9.05L-23.3 -8.5L-19.7 -9.4L-19.55 -9.35L-21.4 -7.7L-20.75 -7.45L-20.7 -7.7L-18.35 -8.85L-18 -8.85L-17.8 -8.85L-18.4 -9.3L-18.35 -9.05L-18.25 -9.05L-20.9 -7.9L-18.95 -9.55L-19.1 -9.6L-23.05 -8.95L-21.25 -9.75L-23.25 -9.2Q-23.4 -8.8 -23.6 -9M-20.4,-7.2L-19.75 -6.95L-19.5 -6.95L-17.15 -8.35L-16.65 -8.35L-16.2 -8.3L-17.1 -8.8L-17.1 -8.55L-17.35 -8.35L-19.75 -7.15L-19.95 -7.2Q-20.05 -7.4 -20.3 -7.2L-20.4 -7.2M-14.75,-7.45L-14.9 -7.45L-14.7 -7.25L-14.45 -7L-14.1 -7.2L-14.15 -7L-13.95 -7.2L-14.75 -7.45M-13.9,-7L-13.8 -6.75L-15.75 -5.1L-15.45 -4.85L-15.25 -4.85L-13.05 -5.35L-13.3 -5.35L-14.05 -6.1L-14.15 -6.1L-13.6 -6.5Q-13.45 -6.75 -13.25 -6.5L-13 -6.5L-12.75 -6.5L-13.9 -7M-16.25,-7.85L-16.15 -7.85L-18 -6.1L-17.3 -5.6L-17.2 -5.85L-17.3 -5.85L-17.5 -5.9L-17.2 -6.05L-15.95 -6.7L-17.4 -6.05L-15.45 -7.75L-15.55 -8L-16.25 -7.85M-10.9,-5.45L-11.9 -6.15L-12 -6.2L-11.9 -5.95L-11.8 -5.95L-11.95 -5.7L-11.85 -5.7Q-11.45 -5.95 -11.05 -5.45L-10.9 -5.45L-10.8 -5.4Q-10.55 -5.4 -10.75 -4.95L-11 -4.35L-11.1 -4.1L-11 -4.1L-10.7 -3.85L-11.75 -3.25L-12 -3.25Q-12.2 -3.3 -12.2 -3.5L-12.5 -3.5L-11.6 -2.75L-11.65 -3.05L-9.05 -4.4L-8.3 -4.35L-9.25 -4.9L-9.4 -4.9L-9.25 -4.65L-9.15 -4.65L-9.4 -4.45L-10.55 -3.85L-11 -4.35L-10.1 -5.15L-10.8 -5.6L-10.9 -5.45M-11.4,-4.2L-12.35 -4.45L-12.8 -4.2Q-13.3 -4.2 -13.3 -3.75L-12.85 -3.75L-13 -4L-12.5 -4.2L-11.95 -4.15L-11.4 -4.2M-10.55,-2.5Q-10.3 -2.25 -10.1 -2.25L-10 -2L-8.55 -1.9L-7.15 -2.25L-6.3 -2.85Q-6.25 -3.3 -6.7 -3.6L-7.4 -3.65L-7.7 -3.85L-7.8 -4.1L-8.75 -3.75L-9 -3.5L-9.55 -3.5L-8.65 -3.3L-8.55 -3.5L-8.05 -3.7L-7.5 -3.65L-7.4 -3.65L-6.9 -3.6L-6.5 -3.1Q-6.65 -2.65 -7.35 -2.45L-9 -1.9L-9.9 -2.25Q-10.25 -2.25 -10.25 -2.65L-10.05 -2.9L-10.8 -2.7L-10.55 -2.5M-5.4,-2.8L-5.25 -2.6L-5.15 -2.6L-5.3 -2.35L-7.2 -0.9L-6.7 -0.65L-5.5 -1.9L-4.6 -1.2L-4.4 -1.15L-3.2 -1.5L-2.5 -1.25L-2.4 -1.25L-3.2 -1.5L-3.3 -1.55L-4.4 -1.15L-5.45 -1.9L-4.95 -2.1L-4.75 -2.3L-4.4 -2.1L-4.15 -2.25L-4.3 -2.25L-5.25 -2.8L-5.4 -2.8M-4.3,-0.05Q-4.5 -0.05 -4.55 0.4L-4.25 0.65L-4.05 0.85L-4.15 0.65L-4.2 0.4Q-4.35 0.2 -3.95 -0.05L-3.4 0L-2.85 0.05L-3.6 -0.2L-4.3 -0.05M-2.2,-1.45L-2.25 -1.25L-2.2 -1Q-1.9 -1.2 -2.1 -0.8L-2.7 0.05L-2.45 0.1L-2.05 0.35L-3.15 0.7L-3.35 0.95Q-3.5 0.9 -3.6 1.1L-2.95 1.4L-2.8 1.4L-2.9 1.15Q-3.05 1.4 -3 1.15L-2.9 0.95L-0.45 -0.25L-0.1 0.05L0.15 0.05L-0.75 -0.7L-0.75 -0.45L-0.6 -0.45Q-0.5 -0.25 -0.8 -0.25L-1.95 0.35L-2.35 0.1L-1.55 -0.75L-2.2 -1.45M-40.1,-22.7L18.7 6.7L-89.9 18.9L-40.6 -22.75L-40.1 -22.7M-1.9,1.05L-2 1.25L-2.45 1.65L-1.85 1.95L-2.05 1.5L-1.9 1.05M-1.75,1.95L-0.8 2.45L-0.3 2.7L0.3 2.5L0 2.5L-0.8 2.45L-0.95 2.25Q-1.05 2.05 -0.8 2.05L1.55 1.05Q1.7 0.85 1.8 0.85L2.1 1.1L2.25 1.1L2.25 0.85L1.4 0.35L1.15 0.55L1.35 0.55Q1.6 0.6 1.35 0.8L-1.15 2L-1.35 1.75Q-1.6 1.95 -1.75 1.95M-15.25,8.25L-12.2 9.35L-11.95 9.35L-12.2 7.75L-12.1 7.55L-11.85 7.55L-11.65 7.35L-13.1 7.45L-13.05 7.65L-12.8 7.7L-12.45 7.5L-12.35 7.75L-12.2 8.9L-15.2 7.8L-16.1 7.9L-15.85 7.95L-15.55 7.95L-15.45 7.95L-15.3 9.35L-15.45 9.8L-14.5 9.6L-14.75 9.6L-15 9.55L-15.1 9.55L-15.35 8.25L-15.25 8.25M-17.05,8.3L-18.65 8.2Q-19.7 8.1 -20.2 8.8Q-20.7 8.95 -20.55 9.2Q-20.6 9.9 -20 9.9L-18.45 10.05Q-17.3 9.9 -16.95 9.4Q-16.35 9.25 -16.3 9.05Q-16.4 8.35 -17.05 8.3M-15.8,9.75L-15.55 9.75L-15.65 9.5L-15.8 9.75M-28.8,10.45L-26.7 10.6L-26.65 10.8L-26.85 11.05L-25.5 10.85L-25.85 10.85L-26.15 10.6L-27.8 9.15L-28.05 9.4L-28.25 9.35L-29.55 11.3L-28.6 11.1L-28.85 11.1L-29.2 11.05L-28.9 10.45L-28.8 10.45M-21.7,8.45L-24 8.75L-25 8.9L-25.4 9.3L-25.3 9.3L-24.9 9.15L-24 8.75Q-23.75 8.95 -23.55 8.75L-23.4 8.95L-23.3 10.35L-23.35 10.6L-23.65 10.6L-24 10.6L-23.9 10.8L-22.25 10.65L-22.35 10.4L-22.7 10.4L-22.95 10.35L-23.05 9L-22.55 8.65Q-22 8.7 -21.7 8.9L-21.1 8.95L-21.7 8.45M-40.35,10.8L-40.3 10.8L-40.25 11.9L-39.7 12.2L-38.3 12.25L-39.45 12.2L-39.8 11.75L-39.8 10.8L-39.85 10.65L-40.35 10.8M-35.75,10.15L-35.5 10.2L-35.4 11.8L-35.3 11.8Q-35.45 12 -35.55 11.8L-35.9 11.95L-35.8 11.95L-34.6 11.85L-34.75 11.6L-34.95 11.85L-35.05 11.6L-35.3 10.2L-33.45 11.7L-33.1 11.75L-31.95 9.75L-33.2 11.25L-33.35 11.25L-34.95 10.05L-35.95 10.15L-35.75 10.15M-37,10.55L-37 11.45L-37.05 11.9L-36.7 11.5L-36.95 10.55L-36.95 10.45L-37.25 10.55L-37 10.55M-31.05,9.65L-31.8 9.8L-31.6 11.35L-31.7 11.35L-31.85 11.6L-30.6 11.45L-30.7 11.25L-30.8 11.45L-31.15 11.4L-31.15 11.2L-31.45 9.8L-31.25 9.85L-31.05 9.65M-45.85,11.3L-45.7 11.3L-45.45 11.1L-46.5 11.25L-46.65 11.25L-47.85 13.2L-49.65 11.7L-49.75 11.7L-48 13.35L-47.8 13.4L-46.5 11.5L-46.5 11.25L-46.25 12.85L-46.3 13.1L-46.65 13.1L-46.85 13.25L-45.3 13.15L-45.45 12.9L-45.65 12.9Q-45.85 13.1 -45.9 12.9L-46.05 11.5L-45.85 11.3M-50.1,11.95L-49.95 13.25Q-49.85 13.5 -50 13.5L-50.2 13.7L-50.55 13.45L-50.45 13.65L-50.2 13.7L-49.4 13.55L-49.6 13.3L-50 11.95L-50.35 11.9L-50.2 11.95L-50.1 11.95M-42.85,11.75Q-42.75 11.95 -42.55 11.75L-42.3 12L-42.2 12L-42.25 11.35L-42.4 11.5L-42.6 11.5L-42.85 11.75L-43 11.7L-43.75 11.9L-42.85 11.75M-43.85,11.25L-44.3 11.2L-44.15 12.55L-44.2 12.8L-44.5 12.75L-44.8 12.95L-43.3 12.85L-41.3 12.7L-40.95 12.3L-41.1 12.3L-41.65 12.25Q-42.1 12.65 -42.45 12.65L-43.3 12.85L-43.6 12.6L-43.7 12.55L-43.75 11.9L-43.85 11.25M-41.85,10.9L-41.45 11.4L-41.35 11.15L-41.75 10.9L-41.85 10.9L-43.5 11.05L-42.95 11.05L-42.35 11.05L-41.85 10.9M-54.1,12.3Q-53.9 12.35 -53.95 12.8L-54.15 12.75L-54.5 12.95L-55.1 13.15L-55.8 13.1L-55.95 12.45L-56.4 12.45L-56.3 12.65L-56.2 14L-56.2 14.2L-56.55 14.15L-56.8 14.4L-56.7 14.4L-55.15 14.05L-55.65 14.05Q-55.65 14.25 -55.7 14.05L-55.8 13.3L-55.1 13.15L-53.55 13.9L-53.2 13.95L-53.45 13.7L-54.5 12.95L-53.6 12.8L-53.4 12.6Q-53.4 12.35 -53.75 12.35L-54.1 12.3M-51.95,12.25L-51.7 13.6Q-51.75 13.8 -51.8 13.6L-52 13.8L-50.65 13.65L-51.15 13.6L-51.35 13.6L-51.5 12.25L-51.45 11.8L-50.9 11.85L-51 11.6L-52.15 11.95L-52.05 12.25L-51.95 12.25M-56.9,12.4L-56.75 12.6Q-56.55 12.6 -56.45 12.45L-56.9 12.4M-57.4,13Q-57.35 12.75 -57.7 12.7L-58.65 12.65L-58.1 12.95Q-57.9 12.7 -57.85 13.15L-58.15 13.6L-57.65 13.4Q-57.3 13.2 -57.4 13M-58.35,13.6L-58.8 13.6L-59.7 13.75L-59.9 13.05L-59.65 12.85L-59.45 12.85L-60.95 12.75L-60.8 12.95L-60.7 12.95L-60.4 13L-60.25 13L-60.1 14.35Q-60.25 14.55 -60.5 14.55L-60.6 14.8L-59.35 14.65L-59.55 14.4L-59.7 13.75L-58.8 13.8L-58.35 13.6M-63,2.05L-63 2.25L-62.9 2.25L-62.05 1.65L-62.15 1.45L-62.4 1.6L-62.55 1.85L-62.9 1.55L-64 1.55L-63.75 1.35L-64.25 1.5L-65.7 1.2L-66 1.4Q-65.9 1.4 -65.7 1.65L-63.1 1.8L-62.9 2.05L-63 2.05M-64,2.65L-67.6 2.65L-67.9 2.8L-65.6 4.1Q-65.25 4.1 -65.45 4.35L-64.6 3.75L-64.85 3.7Q-64.95 3.9 -65.2 3.9L-65.3 3.9L-66.1 3.65L-65.1 2.8L-64.05 2.9L-63.9 3.1L-63.15 2.5L-63.4 2.5L-64 2.65M-66.4,1.6L-66.25 1.6L-66.25 1.55L-66.4 1.6M-69.1,4.1L-69.45 4.3L-69 4.35L-69.1 4.1M-70.5,5.55L-68 6.2L-67.75 6.2L-67.9 6.4L-67.8 6.4L-67.2 6L-67.3 5.8L-67.55 6.2Q-67.6 5.95 -67.9 5.95L-70.5 5.55L-65.95 5L-65.85 4.8L-66.65 4.75L-66.8 4.9L-70.9 5.35L-71.2 5.5L-70.95 5.75L-70.6 5.55L-70.5 5.55M-68.15,6.4L-68.45 6.85L-68.75 6.8L-72.65 6.8L-72.8 7.25L-70.55 8.05Q-70.2 8.25 -70.45 8.5L-70.4 8.75L-69.6 8.1L-69.55 7.85L-69.85 7.85Q-69.85 8.1 -70.1 8.05L-70.35 8.05L-70.95 7.8L-70 6.95L-68.85 7.05L-68.9 7.5L-68.05 6.65L-68.15 6.4M-71.4,5.95L-71.3 5.95L-71.3 5.7L-71.4 5.95M5.2,2.65L4.8 2.4L4.5 2.6L3.35 2.95L2.85 2.7L2.7 2.7L2.7 2.5L2.95 2.25L2.85 2.25L1.8 2.6L2.35 2.65L2.7 2.7L3.25 3.2L2.2 3.55L1.7 3.5L1.15 3.45L0.95 3L0.75 2.8L0.95 2.8L0.8 2.55L0.4 2.95L1.15 3.45L2.5 4.05L2.4 3.8Q2.15 4 2.2 3.55L2.4 3.55L4.8 2.6L5.1 2.65L5.2 2.65M6.65,3.2L6.45 3.4L4.05 4.55L3.85 4.55L3.5 4.55Q3.15 4.35 3.25 4.1L3.3 3.65L3.2 3.65L2.7 4.3L4.25 5.05L4.15 4.8L4.3 4.6L6.75 3.65Q6.9 3.4 7.1 3.4L7.55 3.45L6.6 2.95L6.55 3.2L6.65 3.2M5.6,4.9L5.3 5.1L4.35 5.05L4.95 5.3L5.75 5.15L5.6 4.9M2.55,1.8L3.4 1.85L3.8 1.85L3.45 1.6L2.55 1.8" />
<linearGradient
id="LinearGradID_3113" gradientUnits="userSpaceOnUse" gradientTransform="matrix(0.0325012, 0.0106659, -0.0218506, 0.0125885, -37.65, -3)" spreadMethod ="pad" x1="-819.2" y1="0" x2="819.2" y2="0" >
<stop  offset="0" style="stop-color:#FF0000;stop-opacity:0.4" />
<stop  offset="0.164706" style="stop-color:#FFFF00;stop-opacity:0.4" />
<stop  offset="0.364706" style="stop-color:#00FF00;stop-opacity:0.4" />
<stop  offset="0.498039" style="stop-color:#00FFFF;stop-opacity:0.4" />
<stop  offset="0.666667" style="stop-color:#0000FF;stop-opacity:0.4" />
<stop  offset="0.831373" style="stop-color:#FF00FF;stop-opacity:0.4" />
<stop  offset="1" style="stop-color:#FF0000;stop-opacity:0.4" />
</linearGradient>
<path style="fill:url(#LinearGradID_3113) " d="M-44.15,-7.25L-42.55 -7.15L-43.65 -7.2Q-44.25 -7.25 -44.3 -7.9L-43.9 -8.6L-44.4 -8.35Q-44.85 -8.2 -44.8 -7.5Q-44.8 -7.3 -44.15 -7.25M-40.55,-9.05L-40.35 -9.05L-40.05 -9L-40 -7.65L-40.1 -7.45L-38.85 -7.35L-38.95 -7.55L-39.4 -7.6L-39.5 -7.6L-39.7 -8.35L-39.65 -9L-39.65 -9.2L-39.25 -9.15L-39.2 -9.4L-40.75 -9.25L-40.75 -9.05L-40.55 -9.05M-41.15,-8.6L-41.55 -9.1L-41.95 -8.85L-42.4 -8.9L-42.75 -8.95L-43.55 -8.7L-42.75 -8.75L-41.75 -8.65L-41.25 -8.6L-41.15 -8.6M-40.9,-7.7L-41.1 -7.95L-41.45 -7.5L-41.8 -7.25L-41.35 -7.5Q-41.15 -7.5 -40.9 -7.7M-38.95,-14.75L0.05 4.8L-72.15 12.65L-39.45 -14.8L-38.95 -14.75M-33.7,-10.15L-34.9 -8.2L-35.3 -7.75L-34.45 -7.95L-34.65 -8.15L-34.75 -8.15L-34.4 -8.6L-33.7 -9.95L-32.8 -8.95L-32.65 -8.95L-32.1 -8.45L-32.15 -8.2L-30.95 -8.35L-31.65 -8.4L-33.3 -10.1L-33.7 -10.15M-34.2,-8.15L-34.3 -7.95L-34.1 -8.15L-34.2 -8.15M-36.15,-9.65L-36.5 -9.4L-36.4 -9.4L-36.15 -9.65M-37.05,-9.45L-37 -7.9L-37.1 -7.7L-36.3 -7.85L-36.5 -7.85L-36.75 -9.25L-36.65 -9.45L-37.65 -9.5L-37.35 -9.3L-37.05 -9.45M-27.2,-5.65Q-31.75 -7.05 -38 -6.35Q-44.1 -5.7 -48.3 -3.25Q-52.3 -0.8 -52 1.85Q-51.5 4.65 -47 6.05Q-42.3 7.7 -36.2 6.8Q-30 6.3 -25.9 3.9Q-21.7 1.25 -22.2 -1.45Q-22.45 -4.2 -27.2 -5.65M-12.6,2.05L-13.05 1.85L-15.85 1.4L-15.75 1.2L-16.25 1.6L-15.9 1.65L-14.65 1.75L-15 2.15L-15.4 2.35L-15.5 2.6L-15.05 2.6L-14.9 2.2L-14.45 1.95L-13.3 2.05L-13.05 2.3L-13.45 2.7Q-13.65 2.7 -13.85 2.95L-14.4 3.15L-14.85 3.1L-14.05 3.35L-12.25 1.9L-12.45 1.65L-12.5 1.9L-12.6 2.05M-14.9,3.75L-17.7 3.1Q-17.85 3.3 -17.95 3.1L-17.8 2.9L-17.7 2.9L-17.95 2.65L-19.55 4.35L-18.95 4.35L-19.05 4.1L-18.8 3.65L-18.45 3.5L-18.2 3.5L-18 3.3L-15.5 3.9Q-15.25 3.7 -15.25 3.9L-15.25 4.15L-14.45 3.55L-14.7 3.5L-14.9 3.75M-17.6,2.65L-17 2.95L-16.95 2.7L-16.95 2.5L-16.95 2.25L-17.6 2.65M-57.9,5.95L-57.9 6.2L-60.4 7.35L-60.65 7.35L-60.85 7.1L-61.1 7.35L-60.2 7.85L-60.35 7.6L-57.7 6.25L-57.45 6.25L-57.1 6.25L-57 6.3L-57.9 5.75L-57.9 5.95M-56.15,7Q-56 7 -55.8 6.8L-55.65 7.05L-55.65 6.8L-56.65 6.3L-56.8 6.5L-56.6 6.7L-56.7 6.7L-58.9 8.2L-58.5 7.95L-56.35 7Q-56.25 6.75 -56.15 7M-56.45,9.2L-54.05 8.05L-53.7 8.05L-53.6 7.85L-54.1 7.6L-53.95 7.8L-54.15 7.8L-56.5 9L-54.9 7.3L-55 7.1L-56.65 7.5L-55.5 7.25L-57.1 9.2L-56.35 9.45L-56.5 9.2L-56.65 9.2Q-56.65 9 -56.45 9.2M-59.55,8.15L-59.1 8.15L-59 8.2L-59.4 7.9L-59.55 8.15" />
<linearGradient
id="LinearGradID_3114" gradientUnits="userSpaceOnUse" gradientTransform="matrix(0.018219, -0.00204468, 0.00108337, 0.00810242, -37, 0.2)" spreadMethod ="pad" x1="-819.2" y1="0" x2="819.2" y2="0" >
<stop  offset="0" style="stop-color:#FF0000;stop-opacity:0.4" />
<stop  offset="0.164706" style="stop-color:#FFFF00;stop-opacity:0.4" />
<stop  offset="0.345098" style="stop-color:#FF0000;stop-opacity:0.4" />
<stop  offset="0.498039" style="stop-color:#00FFFF;stop-opacity:0.4" />
<stop  offset="0.666667" style="stop-color:#0000FF;stop-opacity:0.4" />
<stop  offset="0.831373" style="stop-color:#FF00FF;stop-opacity:0.4" />
<stop  offset="1" style="stop-color:#FF0000;stop-opacity:0.4" />
</linearGradient>
<path style="fill:url(#LinearGradID_3114) " d="M-22.2,-1.45Q-21.7 1.25 -25.9 3.9Q-30 6.3 -36.2 6.8Q-42.3 7.7 -47 6.05Q-51.5 4.65 -52 1.85Q-52.3 -0.8 -48.3 -3.25Q-44.1 -5.7 -38 -6.35Q-31.75 -7.05 -27.2 -5.65Q-22.45 -4.2 -22.2 -1.45" />
<linearGradient
id="LinearGradID_3115" gradientUnits="userSpaceOnUse" gradientTransform="matrix(0.0167847, 0.0273743, -0.0470428, 0.00949097, -31.25, -1.45)" spreadMethod ="pad" x1="-819.2" y1="0" x2="819.2" y2="0" >
<stop  offset="0" style="stop-color:#FF0000;stop-opacity:0.2" />
<stop  offset="0.164706" style="stop-color:#FFFF00;stop-opacity:0.2" />
<stop  offset="0.364706" style="stop-color:#00FF00;stop-opacity:0.2" />
<stop  offset="0.498039" style="stop-color:#00FFFF;stop-opacity:0.2" />
<stop  offset="0.666667" style="stop-color:#0000FF;stop-opacity:0.2" />
<stop  offset="0.831373" style="stop-color:#FF00FF;stop-opacity:0.2" />
<stop  offset="1" style="stop-color:#FF0000;stop-opacity:0.2" />
</linearGradient>
<path style="fill:url(#LinearGradID_3115) " d="M-16.9,9L-17.25 9.65L-18.45 10.05L-19.6 9.95Q-20.15 9.9 -20.1 9.2Q-20.2 8.8 -19.75 8.55L-18.65 8.2L-17.4 8.25Q-16.95 8.3 -16.9 9M-28.05,9.4L-27.05 10.35L-28.8 10.45L-28.05 9.4M-67.4,2.85L-65.35 2.75L-66.05 3.4L-67.4 2.85M-72.65,7L-70.15 6.95L-71.05 7.8L-72.65 7" />
<path style="fill:#FF00FF;fill-opacity:0.498039" d="M-62.1,-3.85L-58.45 -3.85Q-58.3 -3.85 -58 -4Q-57.85 -4 -57.7 -4.25L-57.6 -4.25L-58.5 -3.4L-58.3 -3.6L-58.55 -3.6L-59.7 -3.7L-60.6 -2.85L-59.9 -2.6L-59.7 -2.6L-59.45 -2.55L-59.35 -2.75L-59.2 -2.75L-59.45 -2.55L-59.9 -2.15L-60 -2.15Q-59.7 -2.35 -60.15 -2.6L-62.35 -3.65L-62.1 -3.85M-61,-4.95L-60 -5.7L-60.05 -5.5L-60.15 -5.25L-59.8 -5.25L-58.45 -5.4L-58.95 -6.1L-59.1 -6.1L-59.2 -6.2L-58.9 -6.55L-58.9 -6.35L-58.85 -6.1L-58.15 -5.6L-56.6 -5.75L-58 -5.35L-57.4 -4.9L-57.25 -4.65L-57.15 -4.65L-56.85 -5.05L-56.65 -5.05L-57.35 -4.25L-57.45 -4.25L-57.35 -4.45L-57.45 -4.45L-57.45 -4.7L-58.2 -5.15L-60.05 -5.05L-60.4 -5.1L-60.8 -4.9L-61 -4.95M-64.05,-2.15L-64.3 -1.75L-64.4 -2L-63.55 -2.6L-63.65 -2.4L-63.45 -2.4L-60.75 -1.75L-60.5 -1.75L-61.05 -1.3L-61.15 -1.3L-60.85 -1.5L-61 -1.75L-62.35 -1.85L-63.6 -0.8L-62.35 -0.5L-62 -0.45L-61.9 -0.65L-61.65 -0.65L-62.5 -0.05L-62.6 -0.05L-62.45 -0.3L-62.35 -0.3L-62.55 -0.5L-65.3 -0.9L-65.5 -0.7L-65.85 -0.75L-65.15 -1.15L-64.9 -1.15L-63.8 -0.8L-62.45 -1.85L-63.7 -2.15L-64.05 -2.15M-65.45,-0.05L-66.15 -0.1L-66.9 0.3L-67.1 0.3L-67.1 0.55L-66.9 0.75L-65.75 0.85L-65.3 0.65Q-64.9 0.25 -65.1 -0.05L-65.45 -0.05M-65.35,-0.25Q-64.9 -0.2 -64.8 0Q-64.65 0 -65.05 0.4L-65.4 0.85L-64.3 1.2L-64.1 1.2L-63.95 1.2L-64.4 1.6L-64.3 1.4L-64.65 1.35L-67.1 0.75L-67.45 0.7L-67.75 0.95L-67.85 1.15L-67.95 1.15L-67.75 0.95L-67.1 0.3L-66.85 0.1L-66.05 -0.3L-65.35 -0.25M-49.55,-14L-49.9 -14L-50.1 -14.05L-50.3 -13.85L-50.35 -14.05L-49.65 -14.45L-49.65 -14.25L-49.45 -14L-49.55 -14M-46.65,-13.6L-51 -12.8L-51.1 -12.8L-51.45 -12.8L-51.75 -12.6L-51.85 -12.4L-51.95 -12.6L-51.45 -13L-47.35 -13.65L-46.65 -13.6M-52.6,-10.2L-53.45 -10.7Q-53.8 -11.15 -53.15 -11.6L-52.25 -11.7L-53.1 -11.3Q-53.45 -11.15 -53.2 -10.9Q-53.1 -10.65 -52.2 -10.6L-50.8 -10.5Q-50.15 -10.45 -49.8 -10.9Q-49.55 -11.1 -49.65 -11.55Q-49.75 -11.8 -50.65 -11.85L-51.9 -11.95L-50.4 -12.05Q-49.45 -12 -49.4 -11.5Q-49.15 -11.3 -49.7 -10.9Q-50.15 -10.45 -51 -10.25L-52.6 -10.2M-54.3,-10.05Q-54.85 -10.1 -55.15 -9.65L-55.15 -9.45L-52.45 -9.05L-52.1 -9.05L-51.85 -9.25L-51.6 -9.2L-52.5 -8.35L-52.6 -8.35L-52.45 -8.6L-52.35 -8.6L-52.55 -8.8L-55.3 -9.25L-55.55 -9.3L-55.75 -9.3L-54.65 -10.3L-53.7 -10.25L-53.7 -10L-54.3 -10.05M-53.35,-7.75L-54.1 -7.1L-55.05 -6.3L-55.15 -6.55L-57.85 -6.9Q-58.05 -7.2 -58.2 -7.2L-57.95 -7.4L-57.2 -8.05L-56.95 -8.2L-56.3 -8.15L-56.65 -8L-57.2 -8.05L-57.45 -7.6L-57.85 -7.35L-57.95 -7.4Q-57.95 -7.2 -57.6 -7.15L-56.6 -7.1L-56 -7.25L-56.1 -7.5L-56.3 -7.7L-56.2 -7.7L-55.15 -7.45L-55.65 -7.5L-55.9 -7.25L-56.35 -6.8L-55 -6.75L-54.75 -6.7L-54.55 -6.95L-54.1 -7.1L-53.9 -7.55L-54 -8L-53.35 -7.75M-58.45,-6.75L-58.7 -6.8L-58.3 -6.95L-58.45 -6.75M-56.45,-5.7L-56.25 -5.7L-55.8 -5.9L-55.5 -6.1L-55.25 -6.1L-56.15 -5.25L-56.3 -5.25L-56.1 -5.45L-56.25 -5.45L-56.45 -5.7M-60.25,-2.15L-60.15 -2.15L-60.3 -1.9L-60.25 -2.15M-59.8,-3.7L-62.15 -3.65L-60.6 -2.85L-59.8 -3.7M-48.2,-12.35L-48 -12.35L-47.8 -12.55L-47.75 -12.3L-48.3 -11.9L-48.45 -11.9L-48.3 -12.15L-48.45 -12.15L-48.45 -12.35L-48.2 -12.35M-63.7,0.95L-63.7 0.75L-63.55 0.8L-63.7 0.95M-64.7,1.8L-64.65 1.6L-64.6 1.8L-65.3 2.45L-65.25 2.2L-65.6 2.2L-66.5 2.15L-67.55 2.95L-66.75 3.25L-66.15 3.3L-67 3.7Q-66.75 3.45 -66.95 3.25L-67.55 2.95L-66.7 2.15L-65.4 2L-65.05 2.05L-64.7 1.8M-69.2,2.2L-68.4 2.7L-69.3 2.2L-69.2 2.2M-70.55,3.45L-70.65 3.45L-70.45 3.7L-70.9 3.65L-71.15 4.1L-71.25 3.8L-70.5 3.2L-70.55 3.45M-69.9,6.15L-69.55 6L-69.45 6L-70.3 6.6L-70.2 6.4L-70.65 6.4L-71.55 6.3L-72.5 7.15L-71.75 7.65L-71.5 7.4L-71.25 7.45L-71.15 7.25L-71.05 7.45L-71.75 8.1L-71.85 8.1Q-71.75 7.65 -72 7.65L-74.15 6.35L-74.05 6.15L-70.25 6.15L-69.9 6.15M-68.7,5.15L-68.6 5.35L-69.2 5.75L-69.35 6L-69.3 5.55L-72 5.1L-72.45 5.1L-72.6 5.1L-72.7 5.35L-72.8 5.05L-72.35 4.9L-68.45 4.25L-67.5 4.35L-72 4.9L-69.3 5.3L-69.05 5.35L-68.8 5.35L-68.7 5.15M-71.65,6.3L-74.05 6.35L-72.6 7.15L-71.65 6.3" />
<path style="fill:#000000;fill-opacity:0.498039" d="M-59.6,5.75L-61.45 6.75L-61.65 7L-61.75 7Q-62.15 6.85 -62.6 6.65L-62.4 6.7L-62.05 6.7L-61.8 6.7L-59.6 5.75L-59.35 5.55L-59.5 5.55L-59.55 5.3L-59 5.55L-59.25 5.55L-59.6 5.75M-58.1,5.85L-57.55 6.1L-57.95 6.55L-60.4 7.5L-56.4 6.45L-56.2 6.65L-58.05 8.35L-58.1 8.6L-55.7 7.4L-55.6 7.4L-55.4 7.15L-55.75 7.15L-55.65 6.95L-55.1 7.2L-55.25 7.4L-55.6 7.4L-57.85 8.6L-58.1 8.6L-58.05 8.75L-58.55 8.55L-56.9 6.85L-60.55 7.7L-61.3 7.2L-61.05 7.25L-60.7 7.5L-60.5 7.25L-58.2 6.3L-58 6.1L-58.2 6.05L-58.1 5.85M-57.1,6.4L-57.3 6.4L-57.45 6.35L-57.1 6.4" />
<path style="fill:#FF0000;fill-opacity:0.498039" d="M-16.65,7.15L-13.85 8.45L-13.7 8.45L-13.85 7.1L-13.95 7.05L-14.3 7.05L-14.6 7.3L-14.55 7.05L-13.05 6.7L-13.05 6.95L-13.3 7.1L-13.6 7.1L-13.75 7.1L-13.55 8.65L-13.65 8.65L-16.75 7.35L-16.6 8.7L-16.4 8.9L-16.15 8.95L-16.75 9.15L-16.85 8.9L-16.95 7.5L-17.55 7.5L-17.55 7.3L-16.65 7.15M-18.45,8.35Q-18.5 7.85 -18.95 7.65L-20.1 7.75L-21.15 7.95Q-21.75 8.1 -21.65 8.55L-21 9.3Q-20.75 9.3 -20.55 9.55L-21.45 9.25Q-22.15 9.25 -22.2 8.75Q-22.3 8.3 -21.6 7.9L-20.1 7.55L-18.5 7.65Q-17.95 7.7 -17.8 8.15Q-17.75 8.6 -18.35 9.05L-19.85 9.4L-18.8 9Q-18.35 8.8 -18.45 8.35M-26.8,8.65L-26.4 8.25L-22.95 7.8L-22.65 8.3L-22.75 8.3L-23.1 8L-24.05 8.2L-24.5 8.15L-24.5 8.35L-24.35 9.75L-24.25 10L-24.25 9.75L-23.9 9.75L-23.65 9.8L-24.25 10L-24.7 9.95L-24.8 9.7L-24.95 8.35L-25.05 8.35L-25.4 8.3L-26.3 8.5L-26.8 8.65M-29.2,8.5L-27.6 9.95L-27.35 10.25L-26.9 10.25L-28.05 10.4L-28.15 10.15L-28.45 9.7L-28.55 9.7L-29.55 8.9L-30.35 9.8L-30.75 10.45L-31.05 10.65L-30.95 10.45L-29.65 8.7L-29.2 8.5M-39.1,9.65L-37.75 9.5L-37.75 9.7L-38.2 9.7L-38.35 9.95L-38.2 10.8Q-38.25 11.25 -38.6 11.2L-39.7 11.6L-41.2 11.5L-41.65 11.25L-41.8 10.15L-42.15 10.35L-42.4 10.3L-42.35 10.1L-40.75 9.75L-40.75 9.95L-40.85 10.2L-41.2 10.2L-41.35 10.2L-41.2 11.3L-40.85 11.5L-39.7 11.6L-38.8 11.2L-38.6 11.2L-38.4 11.05L-38.6 9.9L-38.7 9.9L-38.95 9.9L-39.15 9.9L-39.1 9.65M-37.5,9.55L-36.5 9.35L-34.75 10.85L-33.45 9.1L-32.8 9.15L-32.9 9.15L-32.8 10.5L-32.55 10.8L-32.2 10.8L-33.05 10.95L-33.1 10.75L-33.25 9.35L-33.35 9.35L-34.65 11.05L-34.9 11L-36.7 9.6L-36.6 10.9L-36.35 11.15L-36.15 11.2L-36.75 11.35Q-36.7 11.15 -36.8 10.9L-36.95 9.6L-37.05 9.75Q-37.05 9.55 -37.3 9.55L-37.5 9.55M-48.15,10.55L-46.95 10.45L-46.85 10.45L-47.15 10.65L-47.35 10.9L-47.45 10.85L-47.35 12.25L-47.25 12.45L-48.3 12.6L-48 12.4L-47.7 12.4L-47.8 12.2L-47.9 10.85L-49.35 12.55L-49.55 12.75L-51.3 11.25L-51.15 12.65L-51.05 12.9L-51.9 13.05L-51.6 12.85L-51.4 12.85Q-51.25 12.85 -51.4 12.6L-51.5 11.25L-51.6 11.25L-51.15 11.05L-49.3 12.3L-48.15 10.55M-46.45,10.7L-46.4 10.5L-43.15 10.05L-42.85 10.5L-43.3 10.45L-43.75 10.4L-44.35 10.4L-44.9 10.6L-45.25 10.55L-45.35 10.55L-45.25 11.9L-45.05 12.15L-45.65 12.35L-45.75 12.1L-45.85 10.75L-46.45 10.7M-43.8,10.85L-43.7 10.85L-43.6 11.35L-43.7 11.3L-44.05 11.3L-44.35 11.1L-44.05 11.1L-43.8 10.85M-42.75,11.85L-43.05 12.05L-42.55 11.4L-42.45 11.4L-42.75 11.85M-60.25,12.25L-60.9 12.4L-61.25 12.4L-61.35 12.4L-61.3 13.1L-60.45 12.9L-60.2 12.9L-61.3 13.1L-61.2 13.75L-61.1 13.95L-62.15 14.15L-61.9 13.9L-61.55 13.95L-61.55 13.75L-61.7 12.35L-61.8 12.35L-62.15 12.35L-62.35 12.55L-62.35 12.3L-60.25 12L-59.15 12.1Q-58.9 12.1 -58.9 12.35L-59.2 12.8L-59.4 12.75L-59.35 12.3Q-59.35 12.05 -59.6 12.05L-60.25 12.25M-58.45,11.95L-56.25 11.65L-55.1 11.7Q-54.85 11.7 -54.85 11.9Q-54.8 12.2 -55.05 12.15L-56.05 12.55L-54.95 13.05L-54.6 13.3L-54.95 13.25L-56.5 12.5Q-55.8 12.55 -55.6 12.1L-55.3 11.9Q-55.3 11.7 -55.55 11.65L-56.35 11.8L-56.9 11.8L-57.3 12L-57.4 12L-57.3 13.35L-57.2 13.55L-58.2 13.75L-58 13.5L-57.65 13.55L-57.75 13.35L-57.9 11.95L-58.2 11.95L-58.45 12.15L-58.45 11.95M-53.85,11.55L-54.05 11.55L-54 11.35L-52.4 11.2L-52.4 11.45L-52.55 11.45L-52.85 11.4L-53 11.4L-52.85 12.75L-52.7 13L-52.35 13L-53.25 13.2L-53.35 12.95L-53.5 11.55L-53.85 11.55" />
<path style="fill:#000000;fill-opacity:0.498039" d="M-13.9,1.25L-13.85 1L-13.75 1L-13.9 1.25M-14.6,1.4L-14.25 1.45L-14.45 1.65L-15.6 2.7L-16.4 2.65L-15.85 2.45L-15.3 2.25L-14.85 1.85L-14.6 1.65L-14.45 1.65L-14.7 1.4L-15.95 1.3L-16.2 1.55L-16.05 1.3L-17.45 1L-17.65 1L-17.9 1.2L-18.4 1.6L-18.5 1.85L-18.45 2.3L-18.55 2.3L-18.95 2L-17.25 0.55L-17.15 0.55L-17.25 0.75L-17.15 0.75L-14.7 1.4L-14.6 1.4M-17.35,1.9L-17.25 1.65L-16.85 1.95L-17.35 1.9M-16.35,2L-16.8 1.95Q-16.55 1.7 -16.45 1.75L-16.35 2M-15.85,2.85L-16.55 3.45L-16.55 3.3L-16.9 3.25L-19.45 2.65L-19.7 2.6L-20.1 2.85L-20.3 3.25L-20.6 3.45L-20.35 3.9L-20.5 3.9L-21.05 3.4L-19.35 2.25L-19.25 2.25L-19.45 2.45L-19.25 2.65L-16.65 3.05L-16.35 3.1L-16.05 2.85L-15.85 2.85M-16.85,3.7L-16.9 3.5L-16.6 3.5L-16.85 3.7" />
<path style="fill:#000000;fill-opacity:0.498039" d="M-40.65,-9.8L-40.8 -9.85Q-41.05 -9.6 -41.2 -9.6L-41.3 -9.6L-41.1 -8.95L-41.05 -8.05L-42.1 -7.9L-41.85 -8.1L-41.5 -8.05L-41.5 -8.3L-41.75 -9.65L-42.1 -9.65L-42.3 -9.5L-42.3 -9.7L-40.65 -10L-40.65 -9.8M-43.1,-9.75L-42.65 -9.25L-42.85 -9.05L-43.2 -9.55L-43.1 -9.75M-43.7,-9.35L-44.25 -9.35L-45.35 -9.25Q-45.8 -9 -45.75 -8.6Q-45.75 -8.15 -45.2 -7.85Q-45 -7.85 -44.75 -7.65L-45.65 -7.9Q-46.35 -7.95 -46.3 -8.4L-45.8 -9L-44.25 -9.6L-43.9 -9.6L-43.7 -9.35M-42.75,-8.15Q-43.1 -7.8 -43.6 -7.8Q-43.2 -7.8 -42.9 -8.15L-42.65 -8.4L-42.4 -8.4Q-42.55 -8.15 -42.75 -8.15M-34.8,-10.55L-33.15 -9.3L-32.95 -9.05L-32.5 -9L-33.65 -8.9L-33.65 -9.1L-34.05 -9.55L-34.85 -9.45L-34.2 -9.6L-35.15 -10.35L-35.95 -9.25L-36.15 -8.8L-36.2 -8.6L-37.15 -8.45L-36.4 -8.85L-35.25 -10.55L-34.8 -10.55M-37.95,-10.1L-38.15 -10.1L-38.3 -10.1L-38.05 -8.75L-37.9 -8.5L-37.7 -8.45L-37.45 -8.45L-38.5 -8.3L-38.55 -9.25L-38.75 -9.9L-39.3 -9.95L-39.3 -10.2L-37.7 -10.25L-37.7 -10.05L-37.95 -10.1" />
<path style="fill:#0000FF;fill-opacity:0.498039" d="M-29.25,-13.95L-30 -13.35L-31.55 -13L-33 -13.3Q-33.55 -13.6 -33.55 -14.05Q-33.5 -14.5 -32.65 -14.9L-31.15 -15L-30.95 -15L-29.65 -14.7Q-29.15 -14.4 -29.25 -13.95M-29.5,-14.25L-29.8 -14.7L-30.95 -15L-32.35 -14.65L-33.2 -13.8L-32.9 -13.3L-31.75 -13.25Q-31.2 -13.2 -30.35 -13.6L-29.5 -14.25M-27.15,-13.15L-28.55 -12.55L-27.4 -13.2L-27.15 -13.35L-27.4 -13.65L-26.35 -13.1L-26.5 -12.9L-26.6 -13.15L-26.8 -13.15L-27.15 -13.15M-36.5,-15.35L-36.4 -15.15L-37.2 -15.4L-36.95 -15.4L-36.75 -15.4L-36.5 -15.6L-33.7 -16.8L-33.55 -16.5L-34.6 -14.6L-32.15 -15.5Q-32 -15.5 -32 -15.75L-32.15 -15.75L-32.25 -16L-32.15 -15.95L-31.45 -15.5L-31.65 -15.5L-32 -15.5L-34.5 -14.35L-34.6 -14.35L-34.55 -14.15L-35.1 -14.35L-34.15 -16.35L-36.4 -15.35L-36.5 -15.35M-30.75,-12.7Q-30.8 -12.3 -30.45 -12.3L-30.1 -12L-29.85 -12L-29.65 -12L-29.6 -11.8Q-29.35 -11.5 -28.8 -11.45Q-28.55 -11.45 -28.2 -11.7L-28.1 -11.7L-29 -11.3L-31.25 -12.35L-30.75 -12.95L-30.6 -12.95Q-30.6 -12.7 -30.75 -12.7M-23.55,-11.1L-23.3 -11.35L-22.95 -11.35L-23.45 -11.1L-23.55 -11.1L-26.9 -10.45L-27.25 -10.45L-25.45 -12.15L-25.25 -12.35L-25.5 -12.6L-24.4 -12.1L-24.65 -12.1Q-24.7 -12.3 -24.85 -12.1L-25.2 -12.15L-25.65 -11.7L-24.55 -11.2L-23.55 -11.1M-21.8,-7.85L-21.45 -7.8L-21.1 -8.05L-18.8 -9Q-18.65 -8.95 -18.6 -9.2L-18.75 -9.25L-18.75 -9.45L-17.75 -8.9L-17.9 -8.9L-18 -8.75L-18.35 -8.95L-18.55 -8.75L-21.1 -7.8L-21 -7.8L-19.3 -8.1L-21.3 -7.6L-22.05 -7.85L-21.8 -7.85M-26.9,-10.7L-24.7 -11L-25.65 -11.7L-26.9 -10.7M-13.4,-6.8L-12.55 -6.1L-12.65 -6.1L-13.35 -6.4L-16.8 -5.5L-17.3 -5.75L-15.35 -7.2L-15.2 -7.4L-15.4 -7.4L-15.55 -7.65L-15.75 -7.65L-16 -7.9L-16.2 -7.7L-18.1 -6.95Q-17.2 -7.4 -16.35 -7.9L-16.15 -8.15L-15.55 -7.65L-15.4 -7.65L-14.35 -7.1L-14.55 -7.15L-14.8 -7.15L-15.15 -7.2L-15.6 -6.75L-14.5 -6.25L-13.45 -6.4L-13.35 -6.4Q-13.2 -6.6 -13.4 -6.6L-13.55 -6.6L-13.4 -6.8M-12.35,-6.35L-11.75 -5.85L-12.45 -4.75L-12.1 -4.5L-10.8 -5.05Q-10.55 -5.05 -10.55 -5.3L-10.8 -5.3L-10.9 -5.55L-10.8 -5.5L-9.8 -4.8L-10.05 -4.8L-10.2 -5.05L-10.6 -4.85L-13.05 -3.85Q-13.2 -3.7 -13 -3.65L-13 -3.4L-14.3 -4.2Q-14.85 -4.25 -14.7 -4.7L-14.5 -4.85L-13.8 -5.05L-13.45 -5.05L-14 -4.65Q-14.35 -4.65 -14.4 -4.4L-14.2 -4.2L-13.75 -3.9L-13.6 -3.9Q-13.4 -3.9 -13.3 -4.15L-12.2 -4.5L-12.65 -4.75L-12.75 -4.75L-12.2 -5.85Q-12.1 -6.05 -12.35 -6.1L-12.45 -6.35L-12.35 -6.35M-19.55,-9.5L-19.75 -9.5L-19.7 -9.7L-19.1 -9.45L-19.3 -9.45L-19.55 -9.5M-19.5,-6.55L-17.55 -8.25L-17.2 -8.4L-17.1 -8.4L-18.95 -6.55L-19.5 -6.55M-11.6,-3.55L-11.6 -3.3L-11.45 -2.85L-10.4 -2.8L-8.9 -2.95Q-8.2 -3.35 -8.05 -3.8Q-8.05 -4 -8.5 -4L-8.85 -4.3L-8.2 -4.25L-7.8 -3.5Q-7.85 -3.05 -8.6 -2.65L-8.7 -2.65L-10.2 -2.55L-10.85 -2.35L-11.45 -2.85L-11.8 -2.9L-11.95 -3.15Q-12.1 -2.9 -12.3 -3.15L-11.6 -3.55M-10.3,-4.15L-9.35 -4.5L-9.25 -4.5Q-9.1 -4.5 -8.9 -4.3L-9 -4.3L-9.6 -4.35L-9.95 -3.9L-10.1 -3.9L-9.95 -3.65L-11.1 -4.2L-10.65 -4.15L-10.3 -4.15M-14.6,-6.25L-15.65 -6.55L-16.8 -5.5L-14.6 -6.25M-6.8,-3.45L-5.7 -2.7L-5.8 -2.7L-6.15 -2.95L-6.35 -2.75L-7 -2.35L-6 -1.85L-5.9 -1.8L-4.85 -1.95L-4.7 -2.2L-4.85 -2.4L-3.8 -1.9L-3.9 -1.9L-4.85 -1.95L-8.35 -1.1L-8.7 -1.35L-6.85 -3L-6.7 -3L-6.7 -3.25L-6.8 -3.45M-5.7,-0.7Q-5.6 -0.7 -5.25 -0.9L-4.15 -0.6L-3.6 -1.4Q-3.5 -1.65 -3.7 -1.9L-3.15 -1.4L-3.9 -0.6L-3.4 -0.3L-2.2 -0.65L-2.1 -0.9L-1.55 -0.6L-1.75 -0.65L-1.95 -0.65L-4.35 0.55L-4.55 0.55L-4.45 0.75L-5.8 0.2Q-6.25 -0.3 -6.1 -0.5L-5.7 -0.7M-5.9,-0.25L-5.6 0.2L-5.25 0.25L-4.9 0.25L-4.7 0.25L-3.5 -0.3L-4 -0.6L-4.15 -0.6L-4.8 -0.65L-5.55 -0.45L-5.9 -0.25M-7.1,-2.35L-8.25 -1.35L-6 -1.85L-7.1 -2.35M-0.05,-0.05L0.25 0.15L-0.05 0.15L-0.2 0.35L-0.2 0.1L-0.3 -0.1L-0.05 -0.05M-1.55,1.85L-1.3 1.85L-1.95 2.05L-4.05 1L-3.55 0.6L-3.45 0.6L-3.45 0.8Q-3.6 1.05 -3.35 1.25L-2.9 1.3L-2.7 1.3L-1.25 0.75L-2.45 1.35L-2.55 1.55Q-2.55 1.75 -2.45 1.6L-1.55 1.85M-0.7,2.35L-0.25 2.85L0.05 2.85Q0.2 3.1 0.3 2.85L0.5 2.9L3 1.7L3.25 1.7L3 1.5L2.55 1.45Q2.4 1.2 1.8 1.15L1.45 1.15L1.95 0.95L4.05 1.75L3.95 2L3.8 2L3.6 2L3.35 1.95L0.85 2.9L0.75 3.15L0.85 3.15L1 3.35L0.85 3.35L-1.15 2.55L-0.75 1.9L-0.65 1.9L-0.7 2.35M5.25,3L2.85 4.15L2.75 4.15L2.8 4.4L3.75 4.45L4.3 4.5L3.4 4.65L2.8 4.4L1.25 3.65L1.65 2.95L1.8 3.2Q1.65 3.2 1.65 3.4Q1.6 3.85 1.95 3.9L2.2 3.9L2.3 3.9L2.5 3.95L5 2.75L5.25 2.75L5 2.55L5.6 2.8Q5.35 2.75 5.25 3M0.5,0.4L0.85 0.45L0.6 0.45L0.5 0.4M1.25,2.3L1.15 2.25L0.85 2L0.4 1.95L1.2 1.8L1.2 2L1.25 2.3" />
</g>
</svg>
