<?xml version="1.0" encoding="utf-8"?>
<svg version="1.1" id="Layer_1"
xmlns="http://www.w3.org/2000/svg"
xmlns:xlink="http://www.w3.org/1999/xlink"
xmlns:author="http://www.sothink.com"
width="735px" height="511px"
xml:space="preserve">
<g id="531" transform="matrix(1, 0, 0, 1, 99.05, 901.6)">
<path style="fill:#A05E27;fill-opacity:1" d="M519.4,-533.5L519.4 -536.8L554.55 -554.35L557.95 -556.05L557.95 -554.15L557.95 -552.8L557.95 -552.65L635.55 -513.85L635.55 -510.35L579.1 -538.55L554.6 -550.8L554.6 -550.85L519.4 -533.3L519.4 -533.5M554.55,-458.9L554.55 -459L542.2 -452.85L540.6 -452.85L554.55 -459.8L554.55 -459.95L554.55 -460L599.85 -437.4L599.85 -436.3L554.55 -458.9M551.1,-426.85L551.1 -427.65L554.25 -429.2L554.25 -431.85L554.35 -431.8L554.35 -429.3Q568.3 -422.3 582.3 -415.35L582.55 -415.35L583.05 -414.95L592.65 -410.15L595 -409.7L595 -408L587.2 -411.85L554.35 -428.25L554.25 -428.3L554.25 -428.4L551.1 -426.85M-5.3,-795.25L-20.15 -802.65L-20.15 -803.2L-20.15 -802.65L-98.8 -841.85L-98.8 -845.4L-38.5 -815.3L-20.15 -806.15L-20.15 -803.2L-20.15 -806.15L-5.3 -798.75L176.7 -707.9L176.7 -707.95L519.3 -536.95L519.3 -533.45L265.75 -660L-5.3 -795.25" />
<path style="fill:#333333;fill-opacity:1" d="M557.95,-554.15L557.95 -556.05L554.55 -554.35L519.4 -536.8L519.4 -533.5L519.3 -533.45L519.3 -536.95L176.7 -707.95L176.7 -707.9L-5.3 -798.75L-20.15 -806.15L-20.15 -803.2L-20.15 -806.15L-38.5 -815.3L-98.8 -845.4L-98.8 -882.5L-60.65 -901.6L635.55 -553.7L635.55 -513.85L557.95 -552.65L557.95 -552.8L557.95 -554.15" />
<path style="fill:#DA9C5F;fill-opacity:1" d="M554.6,-547.3L554.6 -547.35L519.4 -529.8L519.4 -530.4L519.4 -533.3L554.6 -550.85L554.6 -550.8L579.1 -538.55L635.55 -510.35L635.55 -506.85L603.05 -523.1L554.6 -547.3M599.85,-436.3L599.85 -432.8L554.55 -455.4L554.55 -455.45L554.35 -455.35L554.35 -455.4L554.35 -455.35L549.25 -452.85L542.2 -452.85L554.55 -459L554.55 -458.9L599.85 -436.3M554.25,-428.4L554.25 -428.3L554.35 -428.25L587.2 -411.85L595 -408L595 -404.5L574.1 -414.95L574.05 -414.95L554.25 -424.8L554.25 -424.85L551.1 -423.3L551.1 -426.85L554.25 -428.4M-48.85,-813.5L-69.55 -823.9L-90.6 -834.45L-90.6 -834.4L-98.8 -838.5L-98.8 -841.85L-20.15 -802.65L-5.3 -795.25L265.75 -660L519.3 -533.45L519.3 -530.45L519.3 -530.4L518.25 -530.95L500.25 -539.8L483.25 -548.4L483.25 -548L483.25 -547.95L481.35 -548.95L265.75 -656.5L265.75 -656.45L176.7 -700.85L176.7 -700.9L160.75 -708.85L160.7 -708.85L-5.3 -791.75L-20.15 -799.2M-20.15,-799.2L-20.15 -802.65L-20.15 -799.2L-22.75 -800.45L-47.8 -813L-46.7 -812.45L-47.8 -813L-48.85 -813.5" />
<path style="fill:#D8DCDB;fill-opacity:1" d="M555.45,-542.95L555.45 -543.75L554.65 -543.35L554.55 -543.4L554.55 -543.3L519.35 -525.7L519.35 -530.4L519.4 -530.4L519.4 -529.8L554.6 -547.35L554.6 -547.3L603.05 -523.1L635.55 -506.85L635.55 -502.95L555.45 -542.95M554.55,-460L554.55 -459.95L540.25 -452.85L536.35 -452.85L554.55 -461.95L554.55 -462.05L635.55 -421.6L635.55 -419.55L599.85 -437.4L554.55 -460M554.35,-431.95L554.35 -432.05L634.05 -392.25L634.05 -392.3L635.55 -391.55L635.55 -391.1Q630.25 -393.9 624.5 -395.5L621.85 -396.35L621.85 -396.7L621 -396.7Q619.1 -397.45 617.3 -398.35L611.65 -400.7L597.1 -407.95L595.55 -409.6L595 -409.7L592.65 -410.15L583.05 -414.95L582.55 -415.35L582.3 -415.35Q568.3 -422.3 554.35 -429.3L554.35 -431.8L554.25 -431.85L554.25 -429.2L551.1 -427.65L551.1 -430.35L554.35 -431.95M483.25,-543.75L483.25 -547.95L483.25 -548L483.25 -548.4L500.25 -539.8L518.25 -530.95L519.3 -530.4L519.3 -525.7L483.25 -543.75M-20.1,-794.85L-69.4 -819.5L-69.4 -823.8L-69.6 -823.75L-69.55 -823.9L-48.85 -813.5L-47.8 -813L-22.75 -800.45L-20.2 -799.15L-20.15 -799.1L-20.15 -797.05L-20.1 -797.05L-20.1 -799.1L-5.3 -791.7L-3.95 -791.05L-3.95 -786.8L-5.3 -787.45L-20.1 -794.85" />
<path style="fill:#E7EAE7;fill-opacity:1" d="M554.65,-536.4L554.55 -536.45L554.55 -536.35L519.35 -518.75L519.35 -520.2L519.35 -522.75L554.55 -540.35L554.55 -540.45L554.65 -540.4L635.55 -500L635.55 -496L554.65 -536.4M554.55,-466.65L554.55 -466.55L527.1 -452.85L525.55 -452.85L525.55 -453.05L519.5 -453.05L554.55 -470.55L554.55 -470.65L635.55 -430.2L635.55 -426.15L554.55 -466.65M519.15,-453.05L511.15 -453.05L483.25 -467L483.25 -471L519.15 -453.05M519.3,-522.75L519.3 -520.2L519.3 -518.75L483.25 -536.8L483.25 -540.8L519.3 -522.75M-20.1,-787.9L-69.4 -812.55L-69.4 -816.55L-20.1 -791.9L-5.3 -784.5L-3.95 -783.85L-3.95 -779.85L-5.3 -780.5L-20.1 -787.9M-3.95,-714L-3.95 -710L-5.3 -710.65L-20.1 -718.1L-20.1 -718.05L-69.4 -742.7L-69.4 -746.65L-20.1 -722.05L-20.1 -722.1L-5.3 -714.65L-3.95 -714" />
<path style="fill:#ECEEEB;fill-opacity:1" d="M635.55,-496L635.55 -492.5L554.65 -532.9L554.55 -532.95L554.55 -532.85L519.35 -515.25L519.35 -518.75L554.55 -536.35L554.55 -536.45L554.65 -536.4L635.55 -496M635.55,-433.65L635.55 -430.2L554.55 -470.65L554.55 -470.55L519.5 -453.05L519.4 -453.05L519.4 -456.5L554.55 -474.05L554.55 -474.15L635.55 -433.65M551.1,-430.35L551.1 -452.85L549.25 -452.85L554.35 -455.35L554.35 -455.4L554.35 -455.35L634.05 -415.6L634.05 -415.65L635.55 -414.9L635.55 -391.55L634.05 -392.3L634.05 -392.25L554.35 -432.05L554.35 -431.95L551.1 -430.35M519.25,-456.5L519.25 -453.05L519.15 -453.05L483.25 -471L483.25 -474.5L519.25 -456.5M483.25,-533.3L483.25 -536.8L519.3 -518.75L519.3 -515.25L483.25 -533.3M-5.3,-780.5L-3.95 -779.85L-3.95 -776.35L-5.3 -777L-20.1 -784.4L-20.15 -784.4L-36.3 -792.45L-69.4 -809L-69.4 -812.55L-20.1 -787.9L-5.3 -780.5M-5.3,-714.65L-20.1 -722.1L-20.1 -722.05L-69.4 -746.65L-69.4 -750.2L-20.1 -725.55L-20.1 -725.6L-5.3 -718.15L-3.95 -717.5L-3.95 -714L-5.3 -714.65M552.15,-443.35L552.1 -443.4L552.1 -443.35L552.15 -443.35" />
<path style="fill:#E2E7E5;fill-opacity:1" d="M554.65,-540.4L554.55 -540.45L554.55 -540.35L519.35 -522.75L519.35 -525.7L554.55 -543.3L554.55 -543.4L554.65 -543.35L555.45 -543.75L555.45 -542.95L635.55 -502.95L635.55 -500L554.65 -540.4M635.55,-426.15L635.55 -421.6L554.55 -462.05L554.55 -461.95L536.35 -452.85L527.1 -452.85L554.55 -466.55L554.55 -466.65L635.55 -426.15M519.3,-525.7L519.3 -522.75L483.25 -540.8L483.25 -543.75L519.3 -525.7M-20.1,-791.9L-69.4 -816.55L-69.4 -819.5L-20.1 -794.85L-5.3 -787.45L-3.95 -786.8L-3.95 -783.85L-5.3 -784.5L-20.1 -791.9" />
<path style="fill:#F1F1EF;fill-opacity:1" d="M519.4,-459.5L519.4 -464L519.35 -512.25L554.55 -529.85L554.55 -532.85L554.55 -532.95L554.65 -532.9L635.55 -492.5L635.55 -436.7L554.55 -477.15L554.55 -477.05L519.4 -459.5M483.25,-477.5L483.25 -530.3L519.3 -512.25L519.25 -464.05L519.25 -459.5L483.25 -477.5M-69.4,-753.15L-69.4 -809L-36.3 -792.45L-20.15 -784.4L-20.1 -784.4L-5.3 -777L-5.3 -774L-3.95 -773.3L-3.95 -720.5L-5.3 -721.15L-69.4 -753.15" />
<path style="fill:#F1F1EE;fill-opacity:1" d="M554.55,-477.05L554.55 -477.15L635.55 -436.7L635.55 -433.65L554.55 -474.15L554.55 -474.05L519.4 -456.5L519.4 -459.5L554.55 -477.05M519.25,-459.5L519.25 -456.5L483.25 -474.5L483.25 -477.5L519.25 -459.5M519.3,-515.25L519.3 -512.25L483.25 -530.3L483.25 -533.3L519.3 -515.25M-69.4,-750.2L-69.4 -753.15L-5.3 -721.15L-3.95 -720.5L-3.95 -717.5L-5.3 -718.15L-20.1 -725.6L-20.1 -725.55L-69.4 -750.2M519.35,-512.25L519.35 -515.25L554.55 -532.85L554.55 -529.85L519.35 -512.25" />
<radialGradient
id="RadialGradID_2034" gradientUnits="userSpaceOnUse" gradientTransform="matrix(0.0318756, -0.00790405, 0.023819, 0.0823059, 543.95, -410.95)" spreadMethod ="pad" cx="0" cy="0" r="819.2" fx="0" fy="0" >
<stop  offset="0"  style="stop-color:#C1723E;stop-opacity:1" />
<stop  offset="0.192157"  style="stop-color:#D68754;stop-opacity:1" />
<stop  offset="0.345098"  style="stop-color:#C9722C;stop-opacity:1" />
<stop  offset="0.513725"  style="stop-color:#BD7546;stop-opacity:1" />
<stop  offset="0.768627"  style="stop-color:#C86A2D;stop-opacity:1" />
<stop  offset="1"  style="stop-color:#985621;stop-opacity:1" />
</radialGradient>
<path style="fill:url(#RadialGradID_2034) " d="M552.1,-443.35L552.1 -443.4L552.15 -443.35L552.1 -443.35" />
<path style="fill:none;stroke-width:0.5;stroke-linecap:round;stroke-linejoin:round;stroke-miterlimit:3;stroke:#49250E;stroke-opacity:1" d="M-47.8,-813L-48.85 -813.5L-69.55 -823.9L-90.6 -834.45M-90.6,-834.4L-98.8 -838.5M-98.8,-845.4L-38.5 -815.3L-20.15 -806.15L-5.3 -798.75L176.7 -707.9M176.7,-707.95L519.3 -536.95L519.3 -533.45M519.4,-536.8L554.55 -554.35L557.95 -556.05M554.55,-554.35L557.95 -552.65L635.55 -513.85M554.35,-456.25L554.35 -455.4M554.35,-431.95L554.35 -431.8L554.25 -431.85M554.35,-429.3L554.35 -428.25L554.35 -427.15" />
<path style="fill:none;stroke-width:0.5;stroke-linecap:round;stroke-linejoin:round;stroke-miterlimit:3;stroke:#633612;stroke-opacity:1" d="M599.85,-432.8L554.55 -455.4M554.55,-455.45L554.35 -455.35L549.25 -452.85M595,-409.7L595 -408L595 -404.5L574.1 -414.95M574.05,-414.95L554.25 -424.8M554.25,-424.85L551.1 -423.3M483.25,-547.95L481.35 -548.95L265.75 -656.5M265.75,-656.45L176.7 -700.85M176.7,-700.9L160.75 -708.85L160.7 -708.85L-5.3 -791.75L-5.3 -791.7L-5.3 -787.45L-5.3 -784.5L-5.3 -780.5L-5.3 -777L-5.3 -774M-47.8,-813L-22.75 -800.45L-20.15 -799.2M-20.15,-802.65L-98.8 -841.85M-20.15,-802.65L-5.3 -795.25L-5.3 -798.75M500.25,-539.8L483.25 -548L481.35 -548.95M500.25,-539.8L518.25 -530.95L519.3 -530.45L519.3 -533.45L265.75 -660L-5.3 -795.25L-5.3 -791.75L-20.15 -799.2M554.6,-547.3L603.05 -523.1L635.55 -506.85M635.55,-510.35L579.1 -538.55L554.6 -550.8M554.6,-550.85L519.4 -533.3M519.4,-529.8L554.6 -547.35M519.3,-530.45L519.3 -530.4M554.55,-459L542.2 -452.85M554.35,-428.25L587.2 -411.85L595 -408M554.35,-428.25L554.25 -428.3M554.25,-428.4L551.1 -426.85M599.85,-436.3L554.55 -458.9M-5.3,-721.15L-5.3 -718.15M-5.3,-714.65L-5.3 -718.15M-5.3,-714.65L-5.3 -710.65M-5.3,-721.15L-5.3 -774" />
<path style="fill:none;stroke-width:0.5;stroke-linecap:round;stroke-linejoin:round;stroke-miterlimit:3;stroke:#000000;stroke-opacity:1" d="M519.3,-533.45L519.4 -533.5M557.95,-554.15L559.3 -553.45L557.95 -552.8" />
<path style="fill:none;stroke-width:1;stroke-linecap:round;stroke-linejoin:round;stroke-miterlimit:3;stroke:#FF0000;stroke-opacity:1" d="M519.4,-464L519.25 -464.05M519.3,-520.2L519.35 -520.2" />
<path style="fill:#AD6825;fill-opacity:1" d="M-2.1,-801.7L-1.1 -802.2L-2.1 -801.7L-2.1 -801.8L-3.95 -802.75L-5.05 -803.35L-6.05 -803.9L-6.95 -804.35L-8.1 -804.95Q-5.95 -806.1 -3.85 -807.2L2.55 -804.05L2.6 -804L2.6 -794.95L-0.1 -793.6L-1.05 -793.1L-1.05 -789.85L-0.95 -789.8L-0.85 -789.75L-0.1 -789.35L-0.1 -789.1L-0.1 -704.75L-2.1 -705.75L-2.1 -801.7M485.65,-547.1L485.65 -546.85L485.65 -461.9L483.65 -462.85L483.65 -559.4L484.65 -559.95L483.65 -559.45L483.65 -559.5L481.8 -560.5L480.7 -561.1L479.7 -561.6L478.8 -562.05L477.65 -562.65L481.9 -564.95L488.3 -561.75L488.35 -561.75L488.35 -552.65L485.65 -551.3L485.65 -551.35L484.7 -550.85L484.7 -547.55L484.8 -547.5L484.9 -547.45L485.65 -547.1M552.5,-424L553.25 -424.35L553.35 -424.4L553.45 -424.45L553.45 -427.7L552.85 -428.05L552.5 -428.25L552.5 -454.25L552.5 -454.5L553.25 -454.85L553.35 -454.9L553.45 -454.95L553.45 -458.25L552.5 -458.75L552.5 -546.3L552.5 -546.55L553.25 -546.9L553.35 -546.95L553.45 -547L553.45 -550.3L552.5 -550.8L552.5 -550.75L549.8 -552.1L549.8 -561.2L549.85 -561.2L554.5 -563.6L559.1 -561.25L554.5 -558.9L554.5 -422.5L552.5 -422.5L552.5 -423.75L552.5 -424M556.5,-424.05L556.5 -423.8L555.75 -424.4L556.5 -424.05M556.5,-454.55L556.5 -454.3L555.75 -454.9L556.5 -454.55M556.5,-546.6L556.5 -546.35L555.75 -546.95L556.5 -546.6M519.6,-541.1L512.55 -544.55L512.5 -544.6L512.5 -544.65L519.6 -548.15L526.75 -544.6L519.6 -541.1M165.7,-710.85L164.75 -710.35L164.75 -707.05L164.85 -707L164.95 -706.95L165.7 -706.6L165.7 -706.35L165.7 -621.85L163.7 -621.85L163.7 -718.9L164.7 -719.45L163.7 -718.95L163.7 -719L161.85 -720L160.75 -720.6L159.75 -721.1L158.85 -721.55L157.7 -722.15L161.95 -724.45L168.35 -721.25L168.4 -721.25L168.4 -712.15L165.7 -710.8L165.7 -710.85M318.75,-633.4L318.75 -630.1L318.85 -630.05L318.95 -630L319.7 -629.65L319.7 -629.4L319.7 -541.95L317.7 -542.75L317.7 -641.95L318.7 -642.5L317.7 -642L317.7 -642.05L315.85 -643.05L314.75 -643.65L313.75 -644.15L312.85 -644.6L311.7 -645.2L315.95 -647.5L322.35 -644.3L322.4 -644.3L322.4 -635.2L319.7 -633.85L319.7 -633.9L318.75 -633.4" />
<path style="fill:#CD892F;fill-opacity:1" d="M-2.1,-705.75L-3.95 -706.65L-3.95 -706.75L-3.95 -710.7L-3.95 -715.15L-3.95 -798.25L-3.95 -802.75L-2.1 -801.8L-2.1 -801.7L-2.1 -705.75M481.8,-461.05L481.8 -463.95L481.8 -464.5L481.8 -468.45L481.8 -472.85L481.8 -556L481.8 -560.5L483.65 -559.5L483.65 -559.45L483.65 -559.4L483.65 -462.85L481.8 -461.05M556.5,-550.85L555.55 -550.35L555.55 -547.05L555.65 -547L555.75 -546.95L556.5 -546.35L556.5 -458.8L555.55 -458.3L555.55 -455L555.65 -454.95L555.75 -454.9L556.5 -454.3L556.5 -428.3L556.2 -428.1L555.55 -427.75L555.55 -424.5L555.65 -424.45L555.75 -424.4L556.5 -423.8L556.5 -422.5L554.5 -422.5L554.5 -558.9L559.1 -561.25L559.15 -561.25L559.2 -561.25L559.2 -552.15L556.5 -550.8L556.5 -550.85M163.7,-621.85L161.85 -619.8L161.85 -624L161.85 -627.95L161.85 -632.35L161.85 -715.5L161.85 -720L163.7 -719L163.7 -718.95L163.7 -718.9L163.7 -621.85M315.85,-547.05L315.85 -551L315.85 -555.4L315.85 -638.55L315.85 -643.05L317.7 -642.05L317.7 -642L317.7 -641.95L317.7 -542.75L315.85 -542.75L315.85 -547.05" />
<path style="fill:#D49541;fill-opacity:1" d="M-5.05,-803.35L-3.95 -802.75L-3.95 -798.25L-3.95 -715.15L-3.95 -710.7L-3.95 -706.75L-3.95 -706.65L-5.05 -707.2L-5.05 -803.35M480.7,-461.05L480.7 -561.1L481.8 -560.5L481.8 -556L481.8 -472.85L481.8 -468.45L481.8 -464.5L481.8 -463.95L481.8 -461.05L480.7 -461.05M160.75,-720.6L161.85 -720L161.85 -715.5L161.85 -632.35L161.85 -627.95L161.85 -624L161.85 -619.8L160.75 -619.8L160.75 -720.6M314.75,-643.65L315.85 -643.05L315.85 -638.55L315.85 -555.4L315.85 -551L315.85 -547.05L315.85 -542.75L314.75 -542.75L314.75 -643.65" />
<path style="fill:#DCA254;fill-opacity:1" d="M-6.05,-707.7L-6.95 -708.15L-6.95 -804.35L-6.05 -803.9L-6.05 -707.7M479.7,-461.05L478.8 -462L478.8 -562.05L479.7 -561.6L479.7 -461.05M159.75,-619.8L158.85 -621.15L158.85 -721.55L159.75 -721.1L159.75 -619.8M312.85,-644.6L313.75 -644.15L313.75 -543.85L312.85 -543.85L312.85 -644.6" />
<path style="fill:#D89C4B;fill-opacity:1" d="M-5.05,-707.2L-6.05 -707.7L-6.05 -803.9L-5.05 -803.35L-5.05 -707.2M480.7,-461.05L479.7 -461.05L479.7 -561.6L480.7 -561.1L480.7 -461.05M159.75,-721.1L160.75 -720.6L160.75 -619.8L159.75 -619.8L159.75 -721.1M313.75,-644.15L314.75 -643.65L314.75 -542.75L313.75 -543.85L313.75 -644.15" />
<path style="fill:#D2913A;fill-opacity:1" d="M-6.95,-708.15L-8.1 -708.7L-8.1 -804.95L-6.95 -804.35L-6.95 -708.15M478.8,-462L477.65 -462L477.65 -562.65L478.8 -562.05L478.8 -462M158.85,-621.15L157.7 -622.5L157.7 -722.15L158.85 -721.55L158.85 -621.15M312.85,-543.85L311.7 -545.2L311.7 -645.2L312.85 -644.6L312.85 -543.85" />
<path style="fill:#C8722E;fill-opacity:1" d="M519.6,-453.05L512.45 -453.05L512.45 -544.65L512.5 -544.6L512.55 -544.55L519.6 -541.1L519.6 -453.05" />
<path style="fill:#8A3D20;fill-opacity:1" d="M519.6,-541.1L526.75 -544.6L526.75 -452.85L525.55 -452.85L525.55 -453.05L519.6 -453.05L519.6 -541.1" />
<path style="fill:none;stroke-width:0.5;stroke-linecap:round;stroke-linejoin:round;stroke-miterlimit:3;stroke:#633612;stroke-opacity:1" d="M-2.1,-801.7L-1.1 -802.2L2.55 -804.05L-3.85 -807.2Q-5.95 -806.1 -8.1 -804.95L-6.95 -804.35L-6.05 -803.9L-5.05 -803.35L-3.95 -802.75L-2.1 -801.8M2.55,-804.05L2.6 -804L2.6 -794.95L-0.1 -793.6L-1.05 -793.1L-1.05 -789.85M483.65,-559.45L484.65 -559.95L488.3 -561.75L481.9 -564.95L477.65 -562.65L478.8 -562.05L479.7 -561.6L480.7 -561.1L481.8 -560.5L483.65 -559.5M485.65,-546.85L484.9 -547.45M484.7,-547.55L484.7 -550.85L485.65 -551.3L488.35 -552.65L488.35 -561.75L488.3 -561.75M512.45,-453.05L512.45 -544.65L512.5 -544.65L519.6 -548.15L526.75 -544.6L526.75 -452.85M512.55,-544.55L519.6 -541.1L526.75 -544.6M163.7,-719L161.85 -720M164.7,-719.45L163.7 -718.95M164.7,-719.45L168.35 -721.25L161.95 -724.45L157.7 -722.15L158.85 -721.55L159.75 -721.1L160.75 -720.6L161.85 -720M168.35,-721.25L168.4 -721.25L168.4 -712.15L165.7 -710.8L164.75 -710.35L164.75 -707.05M165.7,-706.35L164.95 -706.95M311.7,-645.2L315.95 -647.5L322.35 -644.3L322.4 -644.3L322.4 -635.2L319.7 -633.85L318.75 -633.4L318.75 -630.1M311.7,-645.2L312.85 -644.6L313.75 -644.15L314.75 -643.65L315.85 -643.05L317.7 -642.05M317.7,-642L318.7 -642.5L322.35 -644.3M318.95,-630L319.7 -629.4M-0.85,-789.75L-0.1 -789.1" />
<path style="fill:none;stroke-width:0.5;stroke-linecap:round;stroke-linejoin:round;stroke-miterlimit:3;stroke:#944B1D;stroke-opacity:1" d="M-2.1,-801.8L-2.1 -801.7M483.65,-559.5L483.65 -559.45M483.65,-559.4L483.65 -559.45M483.65,-559.4L483.65 -462.85M554.5,-558.9L554.5 -422.5M519.6,-541.1L519.6 -453.05M163.7,-621.85L163.7 -718.9L163.7 -718.95L163.7 -719M317.7,-642.05L317.7 -642M317.7,-641.95L317.7 -642M317.7,-641.95L317.7 -542.75M-2.1,-705.75L-2.1 -801.7" />
<path style="fill:none;stroke-width:0.5;stroke-linecap:round;stroke-linejoin:round;stroke-miterlimit:3;stroke:#49250E;stroke-opacity:1" d="M-0.1,-789.1L-0.1 -704.75M-8.1,-708.7L-8.1 -804.95M477.65,-562.65L477.65 -462M485.65,-461.9L485.65 -546.85M556.5,-422.5L556.5 -423.8M556.5,-428.25L556.5 -428.3L556.5 -454.3M556.5,-458.8L556.5 -546.35M552.5,-546.3L552.5 -458.75M552.5,-454.25L552.5 -428.25L552.5 -428.2M552.5,-423.75L552.5 -422.5M165.7,-706.35L165.7 -621.85M319.7,-629.4L319.7 -541.95M311.7,-545.2L311.7 -645.2M157.7,-622.5L157.7 -722.15" />
<path style="fill:none;stroke-width:0.5;stroke-linecap:round;stroke-linejoin:round;stroke-miterlimit:3;stroke:#633612;stroke-opacity:1" d="M556.5,-550.8L559.2 -552.15L559.2 -561.25L559.15 -561.25L559.1 -561.25L554.5 -558.9M556.5,-423.8L555.75 -424.4M555.55,-424.5L555.55 -427.75M556.5,-454.3L555.75 -454.9M555.55,-455L555.55 -458.3L556.5 -458.8M556.5,-546.35L555.75 -546.95M555.55,-547.05L555.55 -550.35M556.5,-550.8L555.55 -550.35M559.1,-561.25L554.5 -563.6L549.85 -561.2L554.5 -558.9M549.85,-561.2L549.8 -561.2L549.8 -552.1L552.5 -550.75L553.45 -550.3L553.45 -547M553.25,-546.9L552.5 -546.3M552.5,-458.75L553.45 -458.25L553.45 -454.95M553.25,-454.85L552.5 -454.25M553.45,-427.7L553.45 -424.45M553.25,-424.35L552.5 -423.75M552.5,-428.2L552.85 -428.05M556.2,-428.1L556.5 -428.25" />
</g>
</svg>
