<?xml version="1.0" encoding="utf-8"?>
<svg version="1.1" id="Layer_1"
xmlns="http://www.w3.org/2000/svg"
xmlns:xlink="http://www.w3.org/1999/xlink"
xmlns:author="http://www.sothink.com"
width="68px" height="67px"
xml:space="preserve">
<g id="640" transform="matrix(1, 0, 0, 1, 22.8, 51)">
<path style="fill:#410303;fill-opacity:1" d="M43.85,-21.55L43.85 -20.3L43.85 -19L43.85 -15.3L43.85 -14L43.85 -2.8L43.85 2.2L39.55 4.2L39.55 -10L39.55 -13.3L39.55 -14L39.55 -18.3L39.45 -23.45L22.6 -15.05L22.5 -15L17.75 -12.6L17.7 -12.6L17.7 -12.65L17.7 -12.95L17.7 -15.3L17.65 -15.9L17.65 -16.5L17.6 -17.55L43.55 -30.6L43.55 -30.55L43.75 -25.55L43.7 -25.55L43.85 -21.55" />
<path style="fill:#4F0404;fill-opacity:1" d="M39.55,4.2L-0.45 -15.6L-0.45 -21.7Q8.6 -17.2 17.7 -12.65L17.7 -12.6L17.75 -12.6L22.5 -15L22.6 -15.05L39.45 -23.45L39.55 -10L39.55 4.2M17.55,-17.55L17.6 -17.55L17.65 -16.5L17.65 -15.9L17.55 -17.55" />
<radialGradient
id="RadialGradID_2772" gradientUnits="userSpaceOnUse" gradientTransform="matrix(-0.0232086, 0, 0, 0.0210876, 9.6, -34.55)" spreadMethod ="pad" cx="0" cy="0" r="819.2" fx="0" fy="0" >
<stop  offset="0"  style="stop-color:#2F0202;stop-opacity:1" />
<stop  offset="0"  style="stop-color:#6B0303;stop-opacity:1" />
<stop  offset="0"  style="stop-color:#2F0202;stop-opacity:1" />
<stop  offset="0"  style="stop-color:#600202;stop-opacity:1" />
<stop  offset="1"  style="stop-color:#400000;stop-opacity:1" />
</radialGradient>
<path style="fill:url(#RadialGradID_2772) " d="M-22.3,-37.5L-22.25 -37.55L3.7 -50.5L12.2 -46.25L12.55 -46.05L13.1 -45.8L13.6 -45.55L27.2 -38.75L34.75 -34.95L37.45 -33.6L43.55 -30.6L17.6 -17.55L17.55 -17.55L-22.25 -37.5L-22.3 -37.5" />
<radialGradient
id="RadialGradID_2773" gradientUnits="userSpaceOnUse" gradientTransform="matrix(0.0465698, 0, 0, 0.0465698, -15.1, -32.1)" spreadMethod ="pad" cx="0" cy="0" r="819.2" fx="0" fy="0" >
<stop  offset="0"  style="stop-color:#2F0202;stop-opacity:1" />
<stop  offset="0"  style="stop-color:#6B0303;stop-opacity:1" />
<stop  offset="0"  style="stop-color:#2F0202;stop-opacity:1" />
<stop  offset="0"  style="stop-color:#600202;stop-opacity:1" />
<stop  offset="1"  style="stop-color:#400000;stop-opacity:1" />
</radialGradient>
<path style="fill:url(#RadialGradID_2773) " d="M17.7,-12.95L17.7 -12.65Q8.6 -17.2 -0.45 -21.7L-22.25 -32.6L-22.3 -37.5L-22.25 -37.5L17.55 -17.55L17.65 -15.9L17.7 -15.3L17.7 -12.95" />
<path style="fill:#000000;fill-opacity:0.2" d="M17.85,15.5L-22.5 -4.5L-0.4 -15.45L39.3 4.35L39.3 4.4L39.45 4.3L39.45 4.75L17.85 15.5" />
<path style="fill:none;stroke-width:1;stroke-linecap:round;stroke-linejoin:round;stroke-miterlimit:3;stroke:#2F0202;stroke-opacity:1" d="M13.1,-45.8L13.6 -45.55L27.2 -38.75L34.75 -34.95L37.45 -33.6L43.55 -30.6L43.55 -30.55L43.85 -25.3L43.85 -21.55L43.85 -20.3L43.85 -19L43.85 -15.3L43.85 -14L43.85 -2.8L43.85 2.2L39.55 4.2L-0.45 -15.6L-0.45 -21.7L-22.25 -32.6L-22.3 -37.5M-22.25,-37.55L3.7 -50.5L12.2 -46.25L12.55 -46.05M17.65,-15.9L17.7 -15.3L17.75 -12.6L22.5 -15L22.6 -15.05L39.45 -23.45L43.7 -25.55L43.75 -25.55L43.55 -30.55M17.65,-15.9L17.55 -17.55L17.6 -17.55L43.55 -30.6M17.55,-17.55L-22.25 -37.5M17.7,-12.65Q8.6 -17.2 -0.45 -21.7M39.45,-23.45L39.55 -10L39.55 4.2M43.7,-25.55L43.85 -21.55" />
</g>
</svg>
