<?xml version="1.0" encoding="utf-8"?>
<svg version="1.1" id="Layer_1"
xmlns="http://www.w3.org/2000/svg"
xmlns:xlink="http://www.w3.org/1999/xlink"
xmlns:author="http://www.sothink.com"
width="17px" height="10px"
xml:space="preserve">
<g id="679" transform="matrix(1, 0, 0, 1, 8.9, 11.95)">
<path style="fill:#FFFFFF;fill-opacity:1" d="M6.65,-11.45L7.15 -11.15L7.45 -10.7L7.8 -10.35Q5.9 -8.45 5.35 -6.3L5.3 -6.15L5.2 -5.5L4.8 -6.65Q4.45 -7.45 4.35 -8.3L4.35 -8.45Q4.3 -10.15 5.4 -11.25L6.2 -11.9L6.65 -11.45M0.75,-8.15L1.25 -8L0.45 -3.4L0.55 -3.2Q0.45 -2.95 0.65 -2.85Q0.15 -3 -0.15 -3.45L-0.75 -5Q-1.65 -6.3 -1.3 -7.7L-0.95 -8.55L-0.3 -8.4L0.25 -8.4Q0.6 -8.2 0.75 -8.15M-7.8,-11.25L-7.5 -11.8L-6.45 -11.4L-6 -11.1Q-4.8 -10.3 -4.45 -8.8Q-4.3 -7.95 -4.5 -7.05L-4.6 -5.9L-4.9 -6.45L-4.95 -6.6L-6 -7.9Q-7.05 -9 -8.7 -9.85L-8.4 -10.3L-8.3 -10.85L-7.8 -11.25" />
<path style="fill:none;stroke-width:1;stroke-linecap:round;stroke-linejoin:round;stroke-miterlimit:3;stroke:#FFFFFF;stroke-opacity:1" d="M6.65,-11.45L7.15 -11.15L7.45 -10.7M-0.3,-8.4L0.25 -8.4Q0.6 -8.2 0.75 -8.15M-8.4,-10.3L-8.3 -10.85L-7.8 -11.25" />
</g>
</svg>
