<?xml version="1.0" encoding="utf-8"?>
<svg version="1.1" id="Layer_1"
xmlns="http://www.w3.org/2000/svg"
xmlns:xlink="http://www.w3.org/1999/xlink"
xmlns:author="http://www.sothink.com"
width="15px" height="232px"
xml:space="preserve">
<g id="526" transform="matrix(1, 0, 0, 1, 3.35, 154.9)">
<path style="fill:#AD6825;fill-opacity:1" d="M4.1,-147.6L-2.95 -151.05L-3 -151.1L-3 -151.15L4.1 -154.65L11.25 -151.1L4.1 -147.6" />
<path style="fill:#8A3D20;fill-opacity:1" d="M4.1,-147.6L11.25 -151.1L11.2 72.55L10.3 73L4.05 76.05L4.1 -21.4L4.1 -147.6" />
<path style="fill:#C8722E;fill-opacity:1" d="M-3.05,-23.7L-3.05 -151.15L-3 -151.1L-2.95 -151.05L4.1 -147.6L4.1 -21.4L4.05 76.05L-3.1 72.55L-3.05 -22.6L-3.05 -23.7" />
<path style="fill:none;stroke-width:0.5;stroke-linecap:round;stroke-linejoin:round;stroke-miterlimit:3;stroke:#633612;stroke-opacity:1" d="M10.3,73L4.05 76.05L-3.1 72.55L-3.05 -22.6L-3.05 -23.7L-3.05 -151.15L-3 -151.15L4.1 -154.65L11.25 -151.1L11.2 72.55M-2.95,-151.05L4.1 -147.6L11.25 -151.1M10.3,73L11.2 72.55" />
<path style="fill:none;stroke-width:0.5;stroke-linecap:round;stroke-linejoin:round;stroke-miterlimit:3;stroke:#944B1D;stroke-opacity:1" d="M4.1,-147.6L4.1 -21.4L4.05 76.05" />
</g>
</svg>
