<?xml version="1.0" encoding="utf-8"?>
<svg version="1.1" id="Layer_1"
xmlns="http://www.w3.org/2000/svg"
xmlns:xlink="http://www.w3.org/1999/xlink"
xmlns:author="http://www.sothink.com"
width="44px" height="60px"
xml:space="preserve">
<g id="917" transform="matrix(1, 0, 0, 1, 21.65, 61)">
<path style="fill:#FFFFFF;fill-opacity:1" d="M18.6,-56.85L18.25 -56.45L18.35 -56.35Q20.45 -54.3 20.65 -51.8L20.7 -51.2Q20.7 -49.55 19.9 -48.1L19.65 -47.65L18.25 -45.95L18.35 -45.85L18.05 -45.55L14.8 -44.65L14.8 -39.95L11.5 -39.25L8.4 -38.35L9.05 -36.75L12.4 -38Q14.1 -38.6 15.4 -38.6Q16.95 -38.6 17.55 -38Q18.35 -37.2 18.35 -36Q18.35 -34.9 17.6 -34.15Q16.55 -33.1 13.5 -32.9L12.25 -32.85L12.6 -31.35L14.1 -31.4L14.05 -28.65L12.55 -27.4L12.55 -20.65L8 -20.65L8 -19.1L14.6 -19.1Q15.3 -19.1 15.75 -18.7Q16.3 -18.15 16.3 -17.05Q16.3 -16 15.75 -15.45Q15.3 -15 14.6 -15L8 -15L8 -14.05L0.4 -14.05L-3.15 -10.55L-3.15 -4Q-3.15 -3.3 -3.6 -2.85Q-4.15 -2.3 -5.2 -2.3Q-6.3 -2.3 -6.85 -2.85Q-7.25 -3.3 -7.25 -4L-7.25 -10.55L-8.8 -10.55L-10.5 -11.65L-12.25 -15.55L-12.25 -19.45L-11.8 -19.85Q-11.05 -20.45 -10.45 -21.4L-11.7 -22.4Q-12.1 -21.75 -12.4 -21.45L-12 -32.4L-10.25 -45.2L-9.85 -44.85L-9.1 -45.55L-10.1 -46.65Q-11.6 -48.55 -11.6 -50.8L-11.5 -51.8Q-11.15 -54.1 -9.1 -56.05L-9.85 -56.8L-9.35 -60.75L-8.7 -60.45L-8.45 -61L-1.25 -61L-1 -60.45L0.25 -61L4.15 -61L5.35 -60.45L5.6 -61L12.85 -61L13.1 -60.45L14.35 -61L17.5 -57.95L18.6 -56.85M15.6,-57.7L15.4 -57.65Q14.95 -57.6 14.65 -57.25L14.15 -56.35L14.15 -56.25L14.15 -56.15Q14.15 -55.6 14.65 -55.1Q15.05 -54.7 15.65 -54.7Q16.25 -54.7 16.7 -55.1L17.15 -56.25L16.7 -57.25L16.25 -57.55L15.65 -57.7L15.6 -57.7M15.2,-55.65L15.15 -55.65L15.1 -55.7L15 -55.9L14.95 -56.1L14.95 -56.25L15.15 -56.7L15.65 -56.9L15.95 -56.85L15.9 -56.8L16.1 -56.8L16.2 -56.75L16.2 -56.7L16.3 -56.55L16.4 -56.25L16.2 -55.65L16.15 -55.65L15.65 -55.45L15.4 -55.5L15.2 -55.55L15.2 -55.6L15.2 -55.65M10.95,-46.15L10.95 -47.5L9.45 -47.5L9.45 -46.05L10 -46.05L9.45 -44.6L10.2 -44.6L10.95 -46.15M13.9,-46.15L13.9 -47.5L12.4 -47.5L12.4 -46.05L12.95 -46.05L12.4 -44.6L13.15 -44.6L13.9 -46.15" />
<path style="fill:#000000;fill-opacity:1" d="M-10.85,-45.9Q-12.65 -48.1 -12.65 -50.8L-12.6 -51.8Q-12.25 -54.6 -9.85 -56.8L-9.1 -56.05Q-11.15 -54.1 -11.5 -51.8L-11.6 -50.8Q-11.6 -48.55 -10.1 -46.65L-9.1 -45.55L-9.85 -44.85L-10.25 -45.2L-10.85 -45.9M-13.85,-19Q-14.8 -19 -16.5 -20.1Q-17.7 -20.75 -18.4 -20.75Q-19.3 -20.75 -19.7 -20.2L-20.3 -19.25L-21.65 -20Q-21.25 -20.95 -20.45 -21.65Q-19.65 -22.45 -18.5 -22.45Q-17.4 -22.45 -16.25 -21.65Q-14.6 -20.8 -13.7 -20.8Q-13.05 -20.8 -12.4 -21.45Q-12.1 -21.75 -11.7 -22.4L-10.45 -21.4Q-11.05 -20.45 -11.8 -19.85L-12.25 -19.45Q-12.95 -19 -13.85 -19M-1.65,-10.55L-1.65 -3.95Q-1.65 -2.7 -2.45 -1.9Q-3.35 -1 -5.2 -1Q-7.1 -1 -8 -1.9Q-8.8 -2.7 -8.8 -3.95L-8.8 -10.55L-7.25 -10.55L-7.25 -4Q-7.25 -3.3 -6.85 -2.85Q-6.3 -2.3 -5.2 -2.3Q-4.15 -2.3 -3.6 -2.85Q-3.15 -3.3 -3.15 -4L-3.15 -10.55L-1.65 -10.55M14.65,-20.65Q15.9 -20.65 16.7 -19.85Q17.6 -18.95 17.6 -17.05Q17.6 -15.2 16.7 -14.3L16.4 -14.05Q15.65 -13.5 14.65 -13.5L8 -13.5L8 -14.05L8 -15L14.6 -15Q15.3 -15 15.75 -15.45Q16.3 -16 16.3 -17.05Q16.3 -18.15 15.75 -18.7Q15.3 -19.1 14.6 -19.1L8 -19.1L8 -20.65L12.55 -20.65L14.65 -20.65M15.55,-40Q17.75 -40 18.8 -38.95Q19.9 -37.9 19.9 -36.1Q19.9 -34.25 18.9 -33.25L18.5 -32.9Q16.9 -31.7 14.1 -31.4L12.6 -31.35L12.25 -32.85L13.5 -32.9Q16.55 -33.1 17.6 -34.15Q18.35 -34.9 18.35 -36Q18.35 -37.2 17.55 -38Q16.95 -38.6 15.4 -38.6Q14.1 -38.6 12.4 -38L9.05 -36.75L8.4 -38.35L11.5 -39.25L14.8 -39.95L15.55 -40M18.35,-45.85L18.25 -45.95L19.65 -47.65L19.9 -48.1Q20.7 -49.55 20.7 -51.2L20.65 -51.8Q20.45 -54.3 18.35 -56.35L18.25 -56.45L18.6 -56.85L17.5 -57.95L18.65 -56.85L18.95 -57.2Q21.5 -54.85 21.7 -51.8L21.75 -51.2Q21.75 -49.3 20.85 -47.65L18.95 -45.25L18.35 -45.85M15.65,-57.7L16.25 -57.55L16.7 -57.25L17.15 -56.25L16.7 -55.1Q16.25 -54.7 15.65 -54.7Q15.05 -54.7 14.65 -55.1Q14.15 -55.6 14.15 -56.15L14.15 -56.25L14.15 -56.35L14.65 -57.25Q14.95 -57.6 15.4 -57.65L15.6 -57.7L15.65 -57.7M15.65,-56.9L15.15 -56.7L14.95 -56.25L14.95 -56.1L15 -55.9L15.1 -55.7L15.15 -55.65L15.2 -55.6L15.2 -55.55L15.4 -55.5L15.65 -55.45L16.15 -55.65L16.2 -55.65L16.4 -56.25L16.3 -56.55L16.2 -56.7L16.2 -56.75L16.1 -56.8L15.95 -56.85L15.65 -56.9M10.2,-44.6L9.45 -44.6L10 -46.05L9.45 -46.05L9.45 -47.5L10.95 -47.5L10.95 -46.15L10.2 -44.6M13.15,-44.6L12.4 -44.6L12.95 -46.05L12.4 -46.05L12.4 -47.5L13.9 -47.5L13.9 -46.15L13.15 -44.6" />
<path style="fill:none;stroke-width:1;stroke-linecap:round;stroke-linejoin:round;stroke-miterlimit:3;stroke:#000000;stroke-opacity:1" d="M12.55,-20.65L12.55 -27.4M18.6,-56.85L17.5 -57.95" />
</g>
</svg>
