<?xml version="1.0" encoding="utf-8"?>
<svg version="1.1" id="Layer_1"
xmlns="http://www.w3.org/2000/svg"
xmlns:xlink="http://www.w3.org/1999/xlink"
xmlns:author="http://www.sothink.com"
width="81px" height="43px"
xml:space="preserve">
<g id="152" transform="matrix(1, 0, 0, 1, 15.2, 0.55)">
<path style="fill:none;stroke-width:1;stroke-linecap:round;stroke-linejoin:round;stroke-miterlimit:3;stroke:#50454E;stroke-opacity:1" d="M65.3,40.95Q56.3 41.8 45.4 32.05Q36.25 32.05 25.3 22.2M25.3,21.95Q16.25 21.8 5.8 11.45Q-3.75 10.8 -14.7 0.95" />
<path style="fill:none;stroke-width:1;stroke-linecap:round;stroke-linejoin:round;stroke-miterlimit:3;stroke:#A09BA4;stroke-opacity:1" d="M-4.75,7L-2.95 7.85M-8.3,4.95L-6.55 6M-11.6,2.55L-9.95 3.8M63.7,40L65.05 39.95M59.7,39.5L61.7 39.9M55.85,38.15L57.7 38.9M52.35,36.25L54.05 37.25M49,33.95L50.65 35.15M45.9,31.45L47.4 32.7M42.65,30.8L44.6 31.05M23.15,20.75L25.1 20.95M25.3,21.2L26.8 22.55M2.85,9.8L4.85 10.2M6.15,10.7L7.6 12.05M9.1,13.4L10.65 14.65M12.25,15.85L13.85 16.95M15.6,18L17.4 18.95M35.05,28.2L36.85 29.1M31.55,26.15L33.25 27.2M19.25,19.75L21.15 20.35M28.3,23.8L29.9 25M38.7,29.8L40.65 30.4M-1.1,8.6L0.8 9.25M-14.7,-0.05L-13.2 1.3" />
</g>
</svg>
