<?xml version="1.0" encoding="utf-8"?>
<svg version="1.1" id="Layer_1"
xmlns="http://www.w3.org/2000/svg"
xmlns:xlink="http://www.w3.org/1999/xlink"
xmlns:author="http://www.sothink.com"
width="53px" height="64px"
xml:space="preserve">
<g id="795" transform="matrix(1, 0, 0, 1, 27.05, 64.6)">
<path style="fill:#FFFFFF;fill-opacity:1" d="M-10.5,-10.65L-12.1 -13L-12 -13.1Q-13.8 -15 -14.15 -17.25L-14.25 -18.45L-14.25 -19L-14.2 -19.4L-14 -20.25L-13.65 -21.25L-13.55 -21.25L-13.55 -21.8L-13.4 -21.95L-13.4 -22L-13.4 -23.3L-13.25 -25.7L-13.25 -25.75L-12.75 -33.5L-12.8 -33.5L-14.25 -33.95L-14.7 -35.25L-20.8 -33.05L-20.75 -32.9L-20.8 -32.9L-20.8 -32.85L-21.9 -31.95L-24 -32.05Q-25.1 -32.15 -25.45 -33.7L-25.6 -34.15L-25.35 -35.65L-25.15 -36L-24.55 -36.55L-24.2 -36.85L-23.75 -36.85L-23.2 -36.85L-22.45 -36.95L-22.4 -36.85L-13.35 -40.1L-13.6 -40.9L-14.95 -40.55L-15.7 -41.55L-15.5 -41.55Q-18.15 -44.65 -18 -48.65L-18 -49.4Q-17.75 -54.3 -12.65 -58.45Q-7.15 -63.5 0.5 -64Q8.1 -63.5 13.55 -58.45Q18.6 -54.3 19 -49.4L19 -48.65Q19 -44.65 16.4 -41.55L16.5 -41.55L16.45 -41.55L15.35 -40.25L15.35 -40.1L14.35 -39.2L20.9 -36.85L20.95 -36.95L21.75 -36.85L22.3 -36.85L22.7 -36.85L23.1 -36.55L23.65 -36L23.9 -35.65L24.15 -34.15L23.95 -33.7Q23.6 -32.15 22.55 -32.05L20.45 -31.95L19.3 -32.85L19.3 -32.9L19.25 -32.9L19.3 -33.05L14.35 -34.85L14.35 -34.9L13.05 -35.4L13.1 -34.85L12.8 -33.95L13.15 -33.85L13.15 -33.8L13 -33.85L12.75 -25L12.7 -25L12.65 -23.5L12.7 -23.5L12.7 -23.4L12.65 -23L12.6 -23L12.55 -22.5L12.6 -22.5L12.45 -21.2L12.4 -20.25L12.35 -19.9L10.55 -19.9L9.8 -18.35L15.2 -18.35L16.35 -17.95Q16.9 -17.4 16.9 -16.3Q16.9 -15.25 16.35 -14.7Q15.9 -14.25 15.2 -14.25L8.6 -14.25L8.6 -12.85L0.9 -13.55L-1.55 -13.55L-3.1 -11.85L-3.1 -10.65L-3.15 -10.65L-4.3 -10.65L-4.3 -5.45Q-4.35 -4.1 -5.1 -3.2Q-5.8 -2.45 -6.8 -2.45Q-7.8 -2.45 -8.55 -3.2Q-9.3 -4.1 -9.3 -5.45L-9.3 -10.65L-10.5 -10.65M-10.1,-28.45L-10.05 -28.45L-10.1 -28.5L-10.1 -28.45M-13.8,-22L-13.75 -21.9L-13.8 -22" />
<path style="fill:#000000;fill-opacity:1" d="M13.15,-33.85L12.8 -33.95L13.1 -34.85L13.05 -35.4L14.35 -34.9L14.35 -34.85L19.3 -33.05L19.25 -32.9L19.3 -32.9L19.3 -32.85L20.45 -31.95L22.55 -32.05Q23.6 -32.15 23.95 -33.7L24.15 -34.15L23.9 -35.65L23.65 -36L23.1 -36.55L22.7 -36.85L22.3 -36.85L21.75 -36.85L20.95 -36.95L20.9 -36.85L14.35 -39.2L15.35 -40.1L18.5 -39.15L18.5 -39.2L21.05 -38.25L21.05 -38.3L21.35 -38.1L21.35 -38L21.45 -38L22.7 -38.1Q22.9 -37.95 23 -38.1Q24.55 -37.75 25 -36.6L25.15 -36.35L25.15 -36.1L25.3 -35.8L25.5 -35.1Q25.7 -34.2 25.35 -33.5L25.25 -33.3Q24.9 -31.4 23.25 -30.9Q23.3 -30.45 23.05 -30.8L20.35 -30.6Q19.7 -30.95 18.7 -31.85L14.55 -33.35L14.55 -33.25L13.15 -33.8L13.15 -33.85M8.6,-14.25L15.2 -14.25Q15.9 -14.25 16.35 -14.7Q16.9 -15.25 16.9 -16.3Q16.9 -17.4 16.35 -17.95L15.2 -18.35L9.8 -18.35L10.55 -19.9L12.35 -19.9L15.25 -19.9Q16.5 -19.9 17.3 -19.1Q18.2 -18.2 18.2 -16.3Q18.2 -14.45 17.3 -13.55Q16.5 -12.75 15.25 -12.75L8.6 -12.75L8.6 -12.85L8.6 -14.25M-9.3,-10.65L-9.3 -5.45Q-9.3 -4.1 -8.55 -3.2Q-7.8 -2.45 -6.8 -2.45Q-5.8 -2.45 -5.1 -3.2Q-4.35 -4.1 -4.3 -5.45L-4.3 -10.65L-3.15 -10.65L-3.15 -5.45Q-3.15 -3.5 -4.2 -2.35Q-5.3 -1.1 -6.8 -1.1Q-8.3 -1.1 -9.45 -2.35Q-10.5 -3.5 -10.5 -5.45L-10.5 -10.65L-9.3 -10.65M-13.6,-40.9L-13.35 -40.1L-22.4 -36.85L-22.45 -36.95L-23.2 -36.85L-23.75 -36.85L-24.2 -36.85L-24.55 -36.55L-25.15 -36L-25.35 -35.65L-25.6 -34.15L-25.45 -33.7Q-25.1 -32.15 -24 -32.05L-21.9 -31.95L-20.8 -32.85L-20.8 -32.9L-20.75 -32.9L-20.8 -33.05L-14.7 -35.25L-14.25 -33.95L-20.2 -31.85L-21.8 -30.6Q-23.4 -30.15 -24.5 -30.8Q-24.8 -30.45 -24.7 -30.9Q-26.4 -31.4 -26.7 -33.3L-26.85 -33.5Q-27.2 -34.2 -27 -35.1L-26.75 -35.8L-26.6 -36.1L-26.6 -36.35L-26.5 -36.6Q-26.05 -37.75 -24.45 -38.1Q-24.4 -37.95 -24.15 -38.1L-22.95 -38L-22.8 -38L-22.85 -38.1L-22.55 -38.3L-22.5 -38.25L-19.95 -39.2L-19.95 -39.15L-18.15 -39.8L-14.95 -40.55L-13.6 -40.9" />
<path style="fill:none;stroke-width:1.2;stroke-linecap:round;stroke-linejoin:round;stroke-miterlimit:3;stroke:#000000;stroke-opacity:1" d="M-15.5,-41.55Q-18.15 -44.65 -18 -48.65L-18 -49.4Q-17.75 -54.3 -12.65 -58.45Q-7.15 -63.5 0.5 -64Q8.1 -63.5 13.55 -58.45Q18.6 -54.3 19 -49.4L19 -48.65Q19 -44.65 16.4 -41.55" />
<path style="fill:#000000;fill-opacity:1" d="M5.4,-44.05Q5.55 -43.6 5.85 -43.3L6.55 -43.05L7.5 -43.65Q7.9 -44.3 7.9 -45.3Q7.9 -46.65 7 -48.55L8.05 -48.55Q8.95 -46.95 8.95 -45.4Q8.95 -43.85 8.3 -43Q7.7 -42.2 6.7 -42.2Q5.35 -42.2 4.8 -43.6Q4.2 -42.2 2.9 -42.2Q1.85 -42.2 1.25 -43.05Q0.6 -43.9 0.6 -45.4Q0.6 -46.95 1.55 -48.55L2.55 -48.55Q1.7 -46.65 1.7 -45.3Q1.7 -44.3 2.05 -43.65Q2.45 -43.05 3 -43.05Q3.4 -43.05 3.7 -43.35L4.15 -44.05L4.25 -45.2L4.25 -47L5.3 -47L5.3 -45.2L5.4 -44.05" />
</g>
</svg>
