<?xml version="1.0" encoding="utf-8"?>
<svg version="1.1" id="Layer_1"
xmlns="http://www.w3.org/2000/svg"
xmlns:xlink="http://www.w3.org/1999/xlink"
xmlns:author="http://www.sothink.com"
width="45px" height="42px"
xml:space="preserve">
<g id="532" transform="matrix(1, 0, 0, 1, 51.9, -24.15)">
<path style="fill:#FFFF00;fill-opacity:1" d="M-37.7,44.1Q-37.75 47.25 -35.15 49.55Q-32.75 51.6 -29.4 51.65Q-26.05 51.6 -23.65 49.55Q-21.1 47.25 -21.1 44.1Q-21.1 40.9 -23.65 38.65Q-26.05 36.55 -29.4 36.55Q-32.75 36.55 -35.15 38.65Q-37.75 40.9 -37.7 44.1M-35.45,38.25Q-32.95 36.05 -29.4 36.05Q-25.9 36.05 -23.35 38.25Q-20.6 40.65 -20.6 44.1Q-20.6 47.5 -23.35 49.9Q-25.9 52.1 -29.4 52.15Q-32.95 52.1 -35.45 49.9Q-38.25 47.5 -38.2 44.1Q-38.25 40.65 -35.45 38.25M-12.15,44.75Q-12.1 51.6 -17.6 56.4Q-22.65 60.8 -29.75 60.85Q-36.85 60.8 -41.85 56.4Q-47.4 51.6 -47.3 44.75Q-47.4 37.9 -41.85 33.1Q-36.85 28.7 -29.75 28.7Q-22.65 28.7 -17.6 33.1Q-12.1 37.9 -12.15 44.75M-18.25,33.85Q-23.05 29.7 -29.75 29.7Q-36.45 29.7 -41.2 33.85Q-46.4 38.35 -46.3 44.75Q-46.4 51.15 -41.2 55.65Q-36.45 59.8 -29.75 59.85Q-23.05 59.8 -18.25 55.65Q-13.1 51.15 -13.15 44.75Q-13.1 38.35 -18.25 33.85" />
<path style="fill:#FFFF00;fill-opacity:0.396078" d="M-15.9,58.35Q-9.5 52.75 -9.55 44.8L-9.55 44.75Q-9.5 36.75 -15.9 31.15Q-21.65 26.15 -29.7 26.1L-29.75 26.1Q-37.85 26.15 -43.55 31.15Q-50 36.75 -49.9 44.75L-49.9 44.8Q-50 52.75 -43.55 58.35Q-37.85 63.35 -29.75 63.45L-29.7 63.45Q-26.1 63.4 -22.9 62.35Q-19.05 61.1 -15.9 58.35M-29.7,63.75L-29.75 63.75Q-37.95 63.7 -43.75 58.6Q-50.35 52.9 -50.25 44.8L-50.25 44.75Q-50.35 36.6 -43.75 30.9Q-37.95 25.8 -29.75 25.75L-29.7 25.75Q-21.55 25.8 -15.7 30.9Q-9.15 36.6 -9.25 44.75L-9.25 44.8Q-9.15 52.9 -15.7 58.6Q-18.65 61.15 -21.1 62.2Q-25.7 63.7 -29.7 63.75M-19.15,44.1Q-19.1 48.15 -22.4 51Q-25.3 53.55 -29.4 53.6Q-33.5 53.55 -36.4 51Q-39.7 48.15 -39.65 44.1Q-39.7 40 -36.4 37.15Q-35.25 36.15 -33.9 35.55Q-32.9 35.05 -31.75 34.85L-29.4 34.6Q-27.35 34.6 -25.6 35.25Q-23.85 35.9 -22.4 37.15L-21.95 37.6Q-19.1 40.3 -19.15 44.1M-29.4,53.45Q-25.4 53.4 -22.55 50.95L-22.5 50.9Q-19.3 48.1 -19.3 44.1L-19.3 44.05Q-19.3 40.05 -22.5 37.3Q-23.1 36.75 -23.8 36.35Q-24.7 35.75 -25.65 35.4Q-27.4 34.75 -29.4 34.75L-32 35.05Q-34.45 35.65 -36.3 37.3Q-38.35 39 -39.05 41.25Q-39.5 42.55 -39.5 44.1Q-39.55 48.1 -36.3 50.9Q-33.45 53.4 -29.4 53.45" />
<path style="fill:#FFFF00;fill-opacity:0.196078" d="M-29.75,25.1Q-38.2 25.15 -44.2 30.4Q-51 36.3 -50.9 44.7L-50.9 44.8Q-51 53.2 -44.2 59.1Q-38.2 64.35 -29.75 64.4L-29.7 64.4Q-21.3 64.35 -15.3 59.1Q-8.5 53.2 -8.6 44.8L-8.6 44.7Q-8.5 36.3 -15.3 30.4Q-21.3 25.15 -29.7 25.1L-29.75 25.1M-29.7,24.8Q-21.2 24.85 -15.05 30.2L-15.05 30.15Q-8.2 36.15 -8.25 44.7L-8.25 44.8Q-8.2 53.35 -15.05 59.35Q-21.2 64.65 -29.7 64.75L-29.75 64.75Q-38.3 64.65 -44.4 59.35Q-51.3 53.35 -51.2 44.8L-51.2 44.7Q-51.3 36.15 -44.4 30.15L-44.4 30.2Q-38.3 24.85 -29.75 24.8L-29.7 24.8M-29.4,54.1Q-33.7 54.05 -36.75 51.4L-36.75 51.35L-38.25 49.8Q-39.55 48.15 -39.95 46.15L-39.8 46.15L-39.15 48Q-38.35 49.8 -36.65 51.25Q-33.65 53.85 -29.4 53.9L-29.35 53.9L-25.45 53.25Q-23.7 52.55 -22.2 51.25Q-18.8 48.3 -18.85 44.1L-18.85 44.05Q-18.85 41.85 -19.75 40L-19.55 39.95Q-19.2 40.65 -19 41.4Q-18.65 42.65 -18.65 44.05L-18.65 44.1L-18.65 44.15Q-18.65 48.4 -22.05 51.4Q-23.6 52.7 -25.4 53.4Q-27.25 54.05 -29.4 54.1" />
<path style="fill:#FFFF00;fill-opacity:0.596078" d="M-29.7,62.8L-29.75 62.8L-35.3 62.05Q-39.65 60.9 -43.15 57.9Q-49.35 52.45 -49.25 44.8L-49.25 44.75Q-49.35 37.05 -43.15 31.65Q-37.6 26.8 -29.75 26.75L-29.7 26.75Q-21.9 26.8 -16.35 31.65Q-10.15 37.05 -10.2 44.75L-10.2 44.8Q-10.15 52.45 -16.35 57.9Q-20.3 61.35 -25.45 62.35L-29.7 62.8M-36.1,50.65Q-39.25 47.95 -39.15 44.1Q-39.2 41.2 -37.45 38.95L-36.1 37.55Q-33.35 35.1 -29.4 35.1Q-25.5 35.1 -22.7 37.55Q-20.4 39.55 -19.8 42.25Q-19.65 43.1 -19.65 44.1Q-19.6 47.95 -22.7 50.65Q-25.5 53.05 -29.4 53.1Q-33.35 53.05 -36.1 50.65M-36,50.55Q-33.25 52.9 -29.4 52.95Q-25.55 52.9 -22.8 50.55Q-19.8 47.9 -19.8 44.1Q-19.8 40.3 -22.8 37.65Q-25.55 35.25 -29.4 35.25Q-33.25 35.25 -36 37.65Q-39.05 40.3 -39 44.1Q-39.05 47.9 -36 50.55M-10.55,44.75Q-10.45 37.15 -16.55 31.9Q-22.05 27.1 -29.75 27.05Q-37.45 27.1 -42.9 31.9Q-49.05 37.15 -48.95 44.75L-48.95 44.8Q-49.05 52.35 -42.9 57.65Q-38.2 61.75 -31.85 62.35L-29.75 62.45L-29.25 62.45Q-21.9 62.25 -16.55 57.65Q-10.45 52.35 -10.55 44.8L-10.55 44.75" />
<path style="fill:#FFFF00;fill-opacity:0.796078" d="M-35.8,37.9Q-33.8 36.15 -31.2 35.7L-31.15 35.9L-32.75 36.3Q-34.35 36.85 -35.7 38.05L-36.95 39.35L-37.05 39.25L-35.8 37.9M-26,52.05L-26.05 51.9L-23.15 50.2L-23.1 50.15Q-20.25 47.65 -20.3 44.1Q-20.3 43.2 -20.45 42.4L-20.3 42.35L-20.2 43.2L-20.15 44.1Q-20.1 47.75 -23.05 50.3Q-24.4 51.45 -26 52.05M-11.2,44.8Q-11.15 52.05 -17 57.15Q-22.3 61.75 -29.75 61.8Q-37.2 61.75 -42.5 57.15Q-48.35 52.05 -48.3 44.8L-48.3 44.75Q-48.35 37.45 -42.5 32.4Q-37.2 27.75 -29.75 27.7Q-22.3 27.75 -17 32.4Q-11.15 37.45 -11.2 44.75L-11.2 44.8M-17.2,32.65Q-22.4 28.1 -29.75 28.05Q-37.1 28.1 -42.3 32.65Q-48.05 37.6 -47.95 44.75Q-48.05 51.9 -42.3 56.9Q-37.1 61.4 -29.75 61.5Q-22.4 61.4 -17.2 56.9Q-11.45 51.9 -11.5 44.75Q-11.45 37.6 -17.2 32.65" />
<path style="fill:#F3ED01;fill-opacity:1" d="M-34.9,49.3Q-32.65 51.3 -29.4 51.3Q-26.2 51.3 -23.9 49.3Q-21.45 47.15 -21.45 44.1Q-21.45 41 -23.9 38.9Q-26.2 36.9 -29.4 36.9Q-32.65 36.9 -34.9 38.9Q-37.4 41 -37.35 44.1Q-37.4 47.15 -34.9 49.3M-35.15,38.65Q-32.75 36.55 -29.4 36.55Q-26.05 36.55 -23.65 38.65Q-21.1 40.9 -21.1 44.1Q-21.1 47.25 -23.65 49.55Q-26.05 51.6 -29.4 51.65Q-32.75 51.6 -35.15 49.55Q-37.75 47.25 -37.7 44.1Q-37.75 40.9 -35.15 38.65M-18.7,34.35Q-23.3 30.35 -29.75 30.35Q-36.2 30.35 -40.75 34.35Q-45.7 38.65 -45.65 44.75Q-45.7 50.85 -40.75 55.15Q-36.2 59.15 -29.75 59.2Q-23.3 59.15 -18.7 55.15Q-13.8 50.85 -13.8 44.75Q-13.8 38.65 -18.7 34.35M-13.15,44.75Q-13.1 51.15 -18.25 55.65Q-23.05 59.8 -29.75 59.85Q-36.45 59.8 -41.2 55.65Q-46.4 51.15 -46.3 44.75Q-46.4 38.35 -41.2 33.85Q-36.45 29.7 -29.75 29.7Q-23.05 29.7 -18.25 33.85Q-13.1 38.35 -13.15 44.75" />
<path style="fill:#F3ED01;fill-opacity:0.129412" d="M-21.45,52L-21.5 52L-21.45 51.95Q-18.2 49.05 -18.05 45.05L-18.05 44.8L-18.05 44.75Q-18.05 42.9 -18.7 41.35L-19.25 39.9L-20.15 38.4L-19.1 39.8Q-17.75 42 -17.7 44.75L-17.7 44.8Q-17.75 49.15 -21.25 52.25L-21.25 52.2L-21.3 52.25L-21.45 52M-29.4,49.35Q-31.85 49.35 -33.6 47.85L-33.55 47.7Q-31.85 49.2 -29.4 49.2Q-27 49.2 -25.25 47.7L-25.2 47.85Q-26.95 49.35 -29.4 49.35M-33.55,40.5L-34.8 42.1L-35.15 43.05L-35.3 43Q-34.95 41.5 -33.65 40.35Q-32.75 39.6 -31.7 39.2L-30.6 38.95L-29.4 38.85L-29.35 38.85L-29.4 39Q-31.85 39 -33.55 40.5" />
<path style="fill:#F3ED01;fill-opacity:0.196078" d="M-38.2,52.25L-38.2 52.2L-38.2 52.25Q-34.7 55.25 -29.75 55.3L-29.7 55.3L-28.45 55.25Q-24.35 54.85 -21.3 52.25L-21.25 52.2L-21.25 52.25Q-17.75 49.15 -17.7 44.8L-17.7 44.75Q-17.75 42 -19.1 39.8L-20.15 38.4L-21.85 36.55Q-22.65 35.9 -23.45 35.4L-21.05 37.05Q-19.7 38.25 -18.8 39.65Q-17.4 41.9 -17.4 44.75L-17.4 44.8L-17.6 46.95Q-18.3 50.05 -21.05 52.45L-21.1 52.5Q-22.9 54.05 -25.05 54.8L-27.3 55.4L-29.7 55.6L-29.75 55.6Q-34.8 55.6 -38.4 52.5L-38.2 52.25M-25.2,47.85L-25.15 47.8L-25.15 47.85L-25.15 47.8Q-23.4 46.25 -23.4 44.1Q-23.4 41.9 -25.15 40.4L-25.15 40.35L-25.05 40.25Q-23.25 41.85 -23.25 44.1Q-23.25 46.35 -25.05 47.95L-25.1 47.95Q-26.9 49.5 -29.4 49.5Q-31.95 49.5 -33.75 47.95Q-35.6 46.35 -35.6 44.1L-35.6 44.05L-35.4 44.1Q-35.4 46.3 -33.65 47.85L-33.65 47.8L-33.6 47.85Q-31.85 49.35 -29.4 49.35Q-26.95 49.35 -25.2 47.85" />
<path style="fill:#F3ED01;fill-opacity:0.329412" d="M-42.75,44.7Q-42.75 41.1 -40.5 38.3L-38.85 36.55Q-36.05 34.1 -32.4 33.5L-30.95 33.3L-29.75 33.25L-27.2 33.5L-27.15 33.5L-26.05 33.7Q-24.8 34 -23.65 34.55L-23.2 34.8L-23.35 35.1Q-24.7 34.4 -26.15 34L-27.2 33.8L-29.7 33.6L-29.75 33.6L-30.9 33.65L-32.3 33.8Q-35.9 34.4 -38.65 36.8L-38.65 36.85L-40.25 38.5Q-42.4 41.2 -42.4 44.75L-42.75 44.7M-29.75,55.95L-27.2 55.7L-24.95 55.15L-24.9 55.45Q-27.15 56.25 -29.75 56.25L-29.8 56.25L-29.75 55.95M-33.85,48.05L-34 48.15Q-35.9 46.45 -35.9 44.1L-35.8 42.9Q-35.4 41.25 -33.95 40Q-32.1 38.35 -29.4 38.35Q-26.75 38.35 -24.85 40Q-22.9 41.65 -22.9 44.1L-22.9 44.15L-23.05 44.1Q-23.1 41.75 -24.95 40.1Q-26.8 38.5 -29.4 38.5L-30.65 38.6L-31.8 38.9L-31.85 38.95Q-32.95 39.3 -33.85 40.1Q-35.25 41.3 -35.6 42.95L-35.75 44.1L-35.75 44.15Q-35.75 46.4 -33.85 48.05" />
<path style="fill:#F3ED01;fill-opacity:0.396078" d="M-16.4,44.75L-16.4 44.8Q-16.4 49.7 -20.4 53.2Q-22.4 54.9 -24.8 55.8Q-27.1 56.55 -29.75 56.6Q-35.2 56.55 -39.05 53.2L-39.1 53.2L-38.85 52.95Q-35.1 56.25 -29.8 56.25L-29.75 56.25Q-27.15 56.25 -24.9 55.45Q-22.55 54.6 -20.6 52.95Q-17.7 50.4 -16.95 47.05L-16.75 44.8L-16.75 44.7Q-16.75 41.75 -18.2 39.35L-18.9 38.35L-20.6 36.55Q-21.85 35.5 -23.2 34.8L-23.65 34.55Q-24.8 34 -26.05 33.7L-27.15 33.5L-27.2 33.5L-29.75 33.25L-30.95 33.3L-31 33L-29.75 32.95L-28.4 33L-27.1 33.15Q-25.2 33.5 -23.5 34.3Q-21.85 35.05 -20.4 36.3L-20.4 36.35L-18.7 38.1Q-17.55 39.55 -17 41.2Q-16.4 42.85 -16.4 44.75M-36.05,44.05L-35.9 44.1Q-35.9 46.45 -34 48.15L-33.95 48.2Q-32.1 49.8 -29.4 49.85Q-26.75 49.8 -24.85 48.2L-24.7 48.3L-24.75 48.3Q-26.7 50 -29.4 50Q-32.15 50 -34.05 48.3Q-36.05 46.55 -36.05 44.15L-36.05 44.05" />
<path style="fill:#F3ED01;fill-opacity:0.796078" d="M-36.9,44.1Q-36.9 46.9 -34.6 48.95Q-32.45 50.8 -29.4 50.8Q-26.4 50.8 -24.2 48.95Q-21.95 46.9 -21.95 44.1Q-21.95 41.25 -24.2 39.25Q-26.4 37.35 -29.4 37.35Q-32.45 37.35 -34.6 39.25Q-36.9 41.25 -36.9 44.1M-34.7,39.15Q-32.5 37.2 -29.4 37.2Q-26.35 37.2 -24.1 39.15Q-21.75 41.15 -21.75 44.1Q-21.75 47 -24.1 49.05Q-26.35 50.95 -29.4 51Q-32.5 50.95 -34.7 49.05Q-37.05 47 -37.05 44.1Q-37.05 41.15 -34.7 39.15M-29.75,31Q-23.55 31 -19.15 34.85Q-14.45 38.95 -14.45 44.75Q-14.45 50.55 -19.15 54.7Q-23.55 58.5 -29.75 58.55Q-35.95 58.5 -40.35 54.7Q-45.05 50.55 -45 44.75Q-45.05 38.95 -40.35 34.85Q-35.95 31 -29.75 31M-40.15,35.1Q-44.75 39.05 -44.7 44.75Q-44.75 50.45 -40.15 54.45Q-35.8 58.2 -29.75 58.2Q-23.7 58.2 -19.35 54.45Q-14.75 50.45 -14.8 44.75Q-14.75 39.05 -19.35 35.1Q-23.7 31.3 -29.75 31.3Q-35.8 31.3 -40.15 35.1" />
<path style="fill:#F3ED01;fill-opacity:0.862745" d="M-37.05,44.1Q-37.05 47 -34.7 49.05Q-32.5 50.95 -29.4 51Q-26.35 50.95 -24.1 49.05Q-21.75 47 -21.75 44.1Q-21.75 41.15 -24.1 39.15Q-26.35 37.2 -29.4 37.2Q-32.5 37.2 -34.7 39.15Q-37.05 41.15 -37.05 44.1M-37.2,44.1Q-37.25 41.1 -34.8 39Q-32.6 37.05 -29.4 37.05Q-26.25 37.05 -24 39Q-21.6 41.1 -21.6 44.1Q-21.6 47.05 -24 49.15Q-26.25 51.1 -29.4 51.15Q-32.6 51.1 -34.8 49.15Q-37.25 47.05 -37.2 44.1M-40.35,34.85Q-45.05 38.95 -45 44.75Q-45.05 50.55 -40.35 54.7Q-35.95 58.5 -29.75 58.55Q-23.55 58.5 -19.15 54.7Q-14.45 50.55 -14.45 44.75Q-14.45 38.95 -19.15 34.85Q-23.55 31 -29.75 31Q-35.95 31 -40.35 34.85M-14.15,44.75Q-14.1 50.7 -18.9 54.9Q-23.45 58.8 -29.75 58.85Q-36.05 58.8 -40.55 54.9Q-45.4 50.7 -45.35 44.75Q-45.4 38.8 -40.55 34.6Q-36.05 30.7 -29.75 30.65Q-23.45 30.7 -18.9 34.6Q-14.1 38.8 -14.15 44.75" />
<path style="fill:#F3ED01;fill-opacity:0.596078" d="M-39.45,35.8L-39.5 35.85Q-43.75 39.5 -43.7 44.75L-43.7 44.8Q-43.75 50 -39.5 53.7L-39.45 53.7Q-35.45 57.2 -29.75 57.25Q-27 57.2 -24.65 56.4Q-22.15 55.5 -20 53.7Q-15.75 50 -15.75 44.8L-15.75 44.75Q-15.75 40.3 -18.75 37L-20 35.85Q-23.55 32.75 -28.3 32.35L-29.75 32.3Q-34.5 32.3 -38.1 34.75L-39.45 35.8M-15.45,44.75L-15.45 44.8Q-15.45 50.15 -19.75 53.95Q-23.9 57.55 -29.75 57.55Q-35.6 57.55 -39.7 53.95Q-44.05 50.15 -44.05 44.8L-44.05 44.75Q-44.05 39.35 -39.7 35.6Q-35.6 31.95 -29.75 31.95Q-23.9 31.95 -19.75 35.6Q-15.45 39.35 -15.45 44.75M-24.4,39.5Q-22.25 41.4 -22.25 44.1Q-22.25 46.8 -24.4 48.7Q-26.5 50.45 -29.4 50.5Q-32.35 50.45 -34.4 48.7Q-36.6 46.8 -36.55 44.1Q-36.6 41.4 -34.4 39.5Q-32.35 37.7 -29.4 37.7Q-26.5 37.7 -24.4 39.5M-36.4,44.1Q-36.4 46.7 -34.3 48.55Q-32.25 50.3 -29.4 50.35Q-26.6 50.3 -24.55 48.55Q-22.4 46.7 -22.4 44.1Q-22.4 41.45 -24.55 39.65Q-26.6 37.85 -29.4 37.85Q-32.25 37.85 -34.3 39.65Q-36.4 41.45 -36.4 44.1" />
<path style="fill:#F3ED01;fill-opacity:0.662745" d="M-19.75,35.6Q-23.9 31.95 -29.75 31.95Q-35.6 31.95 -39.7 35.6Q-44.05 39.35 -44.05 44.75L-44.05 44.8Q-44.05 50.15 -39.7 53.95Q-35.6 57.55 -29.75 57.55Q-23.9 57.55 -19.75 53.95L-19.55 54.15L-19.55 54.2Q-23.8 57.85 -29.75 57.9Q-35.7 57.85 -39.9 54.2L-39.95 54.15Q-44.4 50.25 -44.35 44.8L-44.35 44.75Q-44.4 39.25 -39.95 35.35L-39.9 35.35Q-35.7 31.65 -29.75 31.65Q-23.8 31.65 -19.55 35.35L-19.75 35.6M-24.3,48.8Q-26.45 50.65 -29.4 50.65Q-32.4 50.65 -34.5 48.8Q-36.75 46.85 -36.7 44.15L-36.7 44.05Q-36.75 41.3 -34.5 39.4Q-32.4 37.55 -29.45 37.55L-29.4 37.7Q-32.35 37.7 -34.4 39.5Q-36.6 41.4 -36.55 44.1Q-36.6 46.8 -34.4 48.7Q-32.35 50.45 -29.4 50.5Q-26.5 50.45 -24.4 48.7L-24.3 48.8" />
<path style="fill:#F3ED01;fill-opacity:0.529412" d="M-39.3,53.45Q-35.35 56.9 -29.8 56.9L-29.75 56.9Q-27.05 56.9 -24.75 56.1Q-22.25 55.25 -20.2 53.45Q-16.1 49.85 -16.1 44.8L-16.1 44.75Q-16.1 42.8 -16.65 41.1Q-17.4 39 -19 37.2L-20.2 36.05Q-23.65 33.05 -28.35 32.65L-28.3 32.35Q-23.55 32.75 -20 35.85L-18.75 37Q-15.75 40.3 -15.75 44.75L-15.75 44.8Q-15.75 50 -20 53.7Q-22.15 55.5 -24.65 56.4Q-27 57.2 -29.75 57.25Q-35.45 57.2 -39.45 53.7L-39.5 53.7Q-43.75 50 -43.7 44.8L-43.7 44.75Q-43.75 39.5 -39.5 35.85L-39.45 35.8L-38.1 34.75L-37.9 35L-39.3 36.05Q-43.4 39.65 -43.4 44.7L-43.4 44.8Q-43.4 49.85 -39.3 53.45M-22.6,44.1Q-22.6 41.55 -24.65 39.75Q-26.65 38 -29.4 38Q-32.2 38 -34.2 39.75Q-36.2 41.5 -36.25 44L-36.25 44.1Q-36.25 46.65 -34.2 48.45Q-32.2 50.15 -29.4 50.15Q-26.65 50.15 -24.65 48.45Q-22.6 46.65 -22.6 44.15L-22.6 44.1M-34.3,39.65Q-32.25 37.85 -29.4 37.85Q-26.6 37.85 -24.55 39.65Q-22.4 41.45 -22.4 44.1Q-22.4 46.7 -24.55 48.55Q-26.6 50.3 -29.4 50.35Q-32.25 50.3 -34.3 48.55Q-36.4 46.7 -36.4 44.1Q-36.4 41.45 -34.3 39.65" />
<path style="fill:#F3ED01;fill-opacity:0.462745" d="M-33.25,33.35Q-36.5 34.05 -39.05 36.3L-39.1 36.35Q-43.1 39.8 -43.05 44.75L-43.05 44.8L-43.4 44.8L-43.4 44.7Q-43.4 39.65 -39.3 36.05L-37.9 35Q-35.8 33.55 -33.3 33L-31.05 32.65L-29.75 32.6L-28.35 32.65L-28.4 33L-29.75 32.95L-31 33L-33.25 33.35M-29.75,56.6Q-27.1 56.55 -24.8 55.8Q-22.4 54.9 -20.4 53.2Q-16.4 49.7 -16.4 44.8L-16.4 44.75Q-16.4 42.85 -17 41.2L-16.65 41.1Q-16.1 42.8 -16.1 44.75L-16.1 44.8Q-16.1 49.85 -20.2 53.45Q-22.25 55.25 -24.75 56.1Q-27.05 56.9 -29.75 56.9L-29.8 56.9L-29.75 56.6M-22.6,44.15L-22.75 44.1Q-22.75 41.6 -24.75 39.85Q-26.7 38.2 -29.4 38.2Q-32.15 38.2 -34.05 39.85Q-36.05 41.6 -36.05 44.05L-36.25 44Q-36.2 41.5 -34.2 39.75Q-32.2 38 -29.4 38Q-26.65 38 -24.65 39.75Q-22.6 41.55 -22.6 44.1L-22.6 44.15" />
<path style="fill:#F3ED01;fill-opacity:0.929412" d="M-27.2,55.7L-27.3 55.4L-25.05 54.8Q-22.9 54.05 -21.1 52.5L-21.05 52.45Q-18.3 50.05 -17.6 46.95L-17.4 44.8L-17.4 44.75Q-17.4 41.9 -18.8 39.65Q-19.7 38.25 -21.05 37.05L-23.45 35.4Q-24.75 34.6 -26.25 34.2L-26.15 34Q-24.7 34.4 -23.35 35.1L-23.2 34.8Q-21.85 35.5 -20.6 36.55L-18.9 38.35L-18.2 39.35Q-16.75 41.75 -16.75 44.7L-16.75 44.8L-16.95 47.05Q-17.7 50.4 -20.6 52.95Q-22.55 54.6 -24.9 55.45L-24.95 55.15L-27.2 55.7M-29.8,56.25Q-35.1 56.25 -38.85 52.95L-39.1 53.2L-39.05 53.2Q-35.2 56.55 -29.75 56.6L-29.8 56.9Q-35.35 56.9 -39.3 53.45Q-43.4 49.85 -43.4 44.8L-43.05 44.8L-43.05 44.75Q-43.1 39.8 -39.1 36.35L-39.05 36.3Q-36.5 34.05 -33.25 33.35L-31 33L-30.95 33.3L-32.4 33.5Q-36.05 34.1 -38.85 36.55L-40.5 38.3Q-42.75 41.1 -42.75 44.7L-42.4 44.75L-42.4 44.8Q-42.4 48.3 -40.25 51L-38.65 52.7Q-34.95 55.9 -29.75 55.95L-29.8 56.25M-25.25,53.85Q-23.3 53.15 -21.7 51.75Q-18.45 48.9 -18.35 45L-18.05 45.05Q-18.2 49.05 -21.45 51.95L-21.5 52L-21.45 52L-21.3 52.25Q-24.35 54.85 -28.45 55.25L-29.7 55.3L-29.75 55.3Q-34.7 55.25 -38.2 52.25L-38.2 52.2L-38.2 52.25L-38.4 52.5L-38.45 52.45L-40.05 50.8Q-41.4 49.05 -41.85 46.95L-42.1 44.8L-42.1 44.75L-42.1 44.65Q-42.05 41.3 -40.05 38.75L-38.5 37.1L-38.45 37.05L-38.4 37Q-35.7 34.7 -32.2 34.1L-34.3 34.85L-35.7 35.6L-36.95 36.55L-37.8 37.35L-38 37.5L-38 37.55Q-41.4 40.5 -41.45 44.75L-41.45 44.8L-41.2 46.85L-40.55 48.75Q-39.7 50.5 -38 51.95L-38 52Q-34.6 54.95 -29.75 54.95L-29.7 54.95L-28.5 54.9L-28.55 54.6L-29.35 54.65L-29.4 54.65L-29.7 54.65L-29.75 54.65Q-34.45 54.6 -37.8 51.75Q-39.45 50.3 -40.25 48.55L-40.7 47.5L-41 46.35L-41.1 44.8L-41.1 44.7Q-41.1 41.75 -39.35 39.45Q-40.5 41.55 -40.45 44.05L-40.45 44.1L-40.25 46.25L-40 47.25Q-39.2 49.7 -36.95 51.65Q-33.85 54.35 -29.45 54.4L-29.4 54.4L-25.3 53.7L-25.35 53.55Q-23.5 52.85 -21.95 51.5Q-18.5 48.45 -18.5 44.15L-18.65 44.1L-18.65 44.05Q-18.65 42.65 -19 41.4L-18.85 41.35Q-19.05 40.65 -19.4 39.95L-19.25 39.9L-18.7 41.35Q-18.35 42.6 -18.35 44.05L-18.35 44.1L-18.35 45Q-18.65 48.85 -21.85 51.65Q-23.45 53 -25.3 53.7L-25.25 53.85M-19.15,44.1Q-19.1 40.3 -21.95 37.6L-21.8 37.5L-22.3 37.05L-23.75 35.95Q-24.6 35.45 -25.55 35.1Q-27.35 34.45 -29.4 34.45L-31.8 34.7L-32.1 34.75L-33.95 35.4L-35.35 36.15L-35.4 36L-36.55 36.8L-36.65 36.9Q-40.05 39.85 -40 44.05L-40 44.1L-39.8 46.15L-39.95 46.15Q-39.55 48.15 -38.25 49.8L-36.75 51.35L-36.75 51.4Q-33.7 54.05 -29.4 54.1L-29.45 54.25Q-33.75 54.2 -36.85 51.5L-38.35 49.9Q-39.35 48.65 -39.85 47.2L-40.1 46.2L-40.3 44.1L-40.3 44.05Q-40.35 40.9 -38.5 38.5L-37.9 37.75L-37.8 37.8L-37.7 37.7L-37.65 37.65L-36.75 36.8L-36.6 36.7L-35.3 35.75Q-34.75 35.4 -34.15 35.15Q-33.2 34.65 -32.1 34.45L-30.8 34.2L-29.4 34.1Q-27.25 34.1 -25.4 34.8Q-24.4 35.15 -23.45 35.75L-22.05 36.8L-21.5 37.3Q-20.8 38 -20.25 38.8L-19.55 39.95L-19.75 40L-20.45 38.8L-20.6 38.85Q-18.95 41.15 -19 44.05L-19.15 44.1M-20.2,36.05L-19 37.2Q-17.4 39 -16.65 41.1L-17 41.2Q-17.55 39.55 -18.7 38.1L-20.4 36.35L-20.4 36.3Q-21.85 35.05 -23.5 34.3Q-25.2 33.5 -27.1 33.15L-28.4 33L-28.35 32.65L-29.75 32.6L-31.05 32.65L-33.3 33Q-35.8 33.55 -37.9 35L-38.1 34.75Q-34.5 32.3 -29.75 32.3L-28.3 32.35L-28.35 32.65Q-23.65 33.05 -20.2 36.05M-22.3,51.15Q-25.25 53.7 -29.4 53.75Q-33.6 53.7 -36.55 51.15Q-38.2 49.7 -39 47.95Q-39.85 46.2 -39.8 44.15L-39.65 44.1Q-39.7 48.15 -36.4 51Q-33.5 53.55 -29.4 53.6Q-25.3 53.55 -22.4 51L-22.3 51.15M-25.7,35.55Q-24.05 36.15 -22.65 37.4L-22.6 37.4Q-20.25 39.45 -19.65 42.2L-19.8 42.25Q-20.4 39.55 -22.7 37.55Q-25.5 35.1 -29.4 35.1Q-33.35 35.1 -36.1 37.55L-37.45 38.95L-37.6 38.85Q-38.5 39.95 -38.9 41.3Q-39.35 42.6 -39.35 44.1Q-39.4 48 -36.2 50.8L-36.3 50.9Q-39.55 48.1 -39.5 44.1Q-39.5 42.55 -39.05 41.25Q-38.35 39 -36.3 37.3Q-34.45 35.65 -32 35.05L-29.4 34.75Q-27.4 34.75 -25.65 35.4L-25.7 35.55M-19.75,35.6L-19.55 35.35Q-15.1 39.25 -15.1 44.75L-15.1 44.8Q-15.1 50.25 -19.55 54.15L-19.75 53.95Q-15.45 50.15 -15.45 44.8L-15.45 44.75Q-15.45 39.35 -19.75 35.6M-29.4,35.4Q-25.65 35.45 -22.9 37.8Q-20.3 40.05 -20 43.2L-20.2 43.2L-20.3 42.35L-20.45 42.4Q-21 39.9 -23.15 38.05L-23.15 38Q-25.8 35.75 -29.4 35.75L-31.15 35.9L-31.2 35.7L-31.3 35.6L-29.4 35.4M-35.55,38.15Q-38.4 40.6 -38.35 44.1L-38.5 44.1Q-38.55 47.65 -35.7 50.15Q-33.1 52.4 -29.4 52.45L-26.05 51.9L-26 52.05L-27.6 52.45L-29.4 52.6L-29.45 52.6Q-33.15 52.55 -35.8 50.3Q-38.75 47.75 -38.7 44.1Q-38.75 41.35 -37.05 39.25L-36.95 39.35L-35.7 38.05Q-34.35 36.85 -32.75 36.3L-32.75 36.45Q-34.3 37 -35.55 38.15M-30.6,38.75L-29.4 38.65Q-26.85 38.65 -25.05 40.25L-25.15 40.35L-25.15 40.4Q-23.4 41.9 -23.4 44.1Q-23.4 46.25 -25.15 47.8L-25.15 47.85L-25.15 47.8L-25.2 47.85L-25.25 47.7Q-27 49.2 -29.4 49.2Q-31.85 49.2 -33.55 47.7L-33.6 47.85L-33.65 47.8L-33.65 47.85Q-35.4 46.3 -35.4 44.1L-35.6 44.05L-35.6 44.1L-35.75 44.15L-35.75 44.1L-35.6 42.95Q-35.25 41.3 -33.85 40.1Q-32.95 39.3 -31.85 38.95L-31.8 38.9L-30.65 38.6L-30.6 38.75M-29.4,49.7Q-26.85 49.65 -25 48.1L-24.95 48.05Q-23.1 46.4 -23.05 44.1L-22.9 44.15L-22.9 44.1Q-22.9 41.65 -24.85 40Q-26.75 38.35 -29.4 38.35Q-32.1 38.35 -33.95 40Q-35.4 41.25 -35.8 42.9L-35.9 44.1L-36.05 44.05L-36.05 44.15Q-36.05 46.55 -34.05 48.3Q-32.15 50 -29.4 50Q-26.7 50 -24.75 48.3L-24.7 48.3L-24.85 48.2Q-26.75 49.8 -29.4 49.85Q-32.1 49.8 -33.95 48.2L-34 48.15L-33.85 48.05Q-32 49.65 -29.4 49.7M-34.65,42.2Q-34.25 41.3 -33.45 40.6Q-31.8 39.15 -29.4 39.15Q-27.05 39.15 -25.4 40.6Q-23.75 42.05 -23.7 44.05L-23.55 44.05Q-23.6 41.95 -25.3 40.5L-25.25 40.5Q-27 39 -29.4 39L-29.35 38.85L-29.4 38.85L-30.6 38.95L-31.7 39.2Q-32.75 39.6 -33.65 40.35Q-34.95 41.5 -35.3 43L-35.15 43.05L-34.8 42.1L-34.65 42.2M-34.05,39.85Q-32.15 38.2 -29.4 38.2Q-26.7 38.2 -24.75 39.85Q-22.75 41.6 -22.75 44.1L-22.6 44.15Q-22.6 46.65 -24.65 48.45Q-26.65 50.15 -29.4 50.15Q-32.2 50.15 -34.2 48.45Q-36.25 46.65 -36.25 44.1L-36.25 44L-36.05 44.05Q-36.05 41.6 -34.05 39.85M-29.4,37.55Q-26.45 37.55 -24.3 39.4Q-22.1 41.3 -22.1 44.1Q-22.1 46.85 -24.3 48.8L-24.4 48.7Q-22.25 46.8 -22.25 44.1Q-22.25 41.4 -24.4 39.5Q-26.5 37.7 -29.4 37.7L-29.45 37.55L-29.4 37.55M-34.8,49.15Q-32.6 51.1 -29.4 51.15Q-26.25 51.1 -24 49.15Q-21.6 47.05 -21.6 44.1Q-21.6 41.1 -24 39Q-26.25 37.05 -29.4 37.05Q-32.6 37.05 -34.8 39Q-37.25 41.1 -37.2 44.1Q-37.25 47.05 -34.8 49.15M-37.35,44.1Q-37.4 41 -34.9 38.9Q-32.65 36.9 -29.4 36.9Q-26.2 36.9 -23.9 38.9Q-21.45 41 -21.45 44.1Q-21.45 47.15 -23.9 49.3Q-26.2 51.3 -29.4 51.3Q-32.65 51.3 -34.9 49.3Q-37.4 47.15 -37.35 44.1M-36.1,50.65Q-33.35 53.05 -29.4 53.1Q-25.5 53.05 -22.7 50.65L-22.65 50.8Q-25.45 53.2 -29.4 53.25Q-33.35 53.2 -36.2 50.8L-36.1 50.65M-13.8,44.75Q-13.8 50.85 -18.7 55.15Q-23.3 59.15 -29.75 59.2Q-36.2 59.15 -40.75 55.15Q-45.7 50.85 -45.65 44.75Q-45.7 38.65 -40.75 34.35Q-36.2 30.35 -29.75 30.35Q-23.3 30.35 -18.7 34.35Q-13.8 38.65 -13.8 44.75M-18.9,34.6Q-23.45 30.7 -29.75 30.65Q-36.05 30.7 -40.55 34.6Q-45.4 38.8 -45.35 44.75Q-45.4 50.7 -40.55 54.9Q-36.05 58.8 -29.75 58.85Q-23.45 58.8 -18.9 54.9Q-14.1 50.7 -14.15 44.75Q-14.1 38.8 -18.9 34.6" />
<path style="fill:#F3ED01;fill-opacity:0.729412" d="M-15.1,44.8L-15.1 44.75Q-15.1 39.25 -19.55 35.35Q-23.8 31.65 -29.75 31.65Q-35.7 31.65 -39.9 35.35L-39.95 35.35Q-44.4 39.25 -44.35 44.75L-44.35 44.8Q-44.4 50.25 -39.95 54.15L-39.9 54.2Q-35.7 57.85 -29.75 57.9Q-23.8 57.85 -19.55 54.2L-19.55 54.15Q-15.1 50.25 -15.1 44.8M-29.45,37.55Q-32.4 37.55 -34.5 39.4Q-36.75 41.3 -36.7 44.05L-36.7 44.15Q-36.75 46.85 -34.5 48.8Q-32.4 50.65 -29.4 50.65Q-26.45 50.65 -24.3 48.8Q-22.1 46.85 -22.1 44.1Q-22.1 41.3 -24.3 39.4Q-26.45 37.55 -29.4 37.55L-29.45 37.55M-34.6,39.25Q-32.45 37.35 -29.4 37.35Q-26.4 37.35 -24.2 39.25Q-21.95 41.25 -21.95 44.1Q-21.95 46.9 -24.2 48.95Q-26.4 50.8 -29.4 50.8Q-32.45 50.8 -34.6 48.95Q-36.9 46.9 -36.9 44.1Q-36.9 41.25 -34.6 39.25M-29.75,31.3Q-23.7 31.3 -19.35 35.1Q-14.75 39.05 -14.8 44.75Q-14.75 50.45 -19.35 54.45Q-23.7 58.2 -29.75 58.2Q-35.8 58.2 -40.15 54.45Q-44.75 50.45 -44.7 44.75Q-44.75 39.05 -40.15 35.1Q-35.8 31.3 -29.75 31.3" />
<path style="fill:#F3ED01;fill-opacity:0.262745" d="M-26.25,34.2L-29.4 33.8L-30.85 33.9L-32.2 34.1Q-35.7 34.7 -38.4 37L-38.45 37.05L-38.5 37.1L-40.05 38.75Q-42.05 41.3 -42.1 44.65L-42.1 44.75L-42.1 44.8L-41.85 46.95Q-41.4 49.05 -40.05 50.8L-38.45 52.45L-38.4 52.5Q-34.8 55.6 -29.75 55.6L-29.7 55.6L-27.3 55.4L-27.2 55.7L-29.75 55.95Q-34.95 55.9 -38.65 52.7L-40.25 51Q-42.4 48.3 -42.4 44.8L-42.4 44.75Q-42.4 41.2 -40.25 38.5L-38.65 36.85L-38.65 36.8Q-35.9 34.4 -32.3 33.8L-30.9 33.65L-29.75 33.6L-29.7 33.6L-27.2 33.8L-26.15 34L-26.25 34.2M-33.85,48.05Q-35.75 46.4 -35.75 44.15L-35.6 44.1Q-35.6 46.35 -33.75 47.95Q-31.95 49.5 -29.4 49.5Q-26.9 49.5 -25.1 47.95L-25.05 47.95Q-23.25 46.35 -23.25 44.1Q-23.25 41.85 -25.05 40.25Q-26.85 38.65 -29.4 38.65L-30.6 38.75L-30.65 38.6L-29.4 38.5Q-26.8 38.5 -24.95 40.1Q-23.1 41.75 -23.05 44.1Q-23.1 46.4 -24.95 48.05L-25 48.1Q-26.85 49.65 -29.4 49.7Q-32 49.65 -33.85 48.05" />
<path style="fill:#F3ED01;fill-opacity:0.0627451" d="M-34.8,42.1L-33.55 40.5Q-31.85 39 -29.4 39Q-27 39 -25.25 40.5L-25.3 40.5Q-23.6 41.95 -23.55 44.05L-23.7 44.05Q-23.75 42.05 -25.4 40.6Q-27.05 39.15 -29.4 39.15Q-31.8 39.15 -33.45 40.6Q-34.25 41.3 -34.65 42.2L-34.8 42.1M-39.35,39.45Q-41.1 41.75 -41.1 44.7L-41.1 44.8L-41 46.35L-40.7 47.5L-40.25 48.55Q-39.45 50.3 -37.8 51.75Q-34.45 54.6 -29.75 54.65L-29.7 54.65L-29.4 54.65L-29.35 54.65L-28.55 54.6L-28.5 54.9L-29.7 54.95L-29.75 54.95Q-34.6 54.95 -38 52L-38 51.95Q-39.7 50.5 -40.55 48.75L-41.2 46.85L-41.45 44.8L-41.45 44.75Q-41.4 40.5 -38 37.55L-38 37.5L-37.8 37.35L-39.35 39.45M-18.35,45L-18.35 44.1L-18.35 44.05Q-18.35 42.6 -18.7 41.35Q-18.05 42.9 -18.05 44.75L-18.05 44.8L-18.05 45.05L-18.35 45" />
<path style="fill:#FFFF00;fill-opacity:0.529412" d="M-25.45,62.35Q-20.3 61.35 -16.35 57.9Q-10.15 52.45 -10.2 44.8L-10.2 44.75Q-10.15 37.05 -16.35 31.65Q-21.9 26.8 -29.7 26.75L-29.75 26.75Q-37.6 26.8 -43.15 31.65Q-49.35 37.05 -49.25 44.75L-49.25 44.8Q-49.35 52.45 -43.15 57.9Q-39.65 60.9 -35.3 62.05L-29.75 62.8L-29.7 62.8L-25.45 62.35M-29.7,63.1L-29.75 63.1Q-33.85 63.05 -37.35 61.75Q-40.6 60.5 -43.35 58.1L-43.35 58.15Q-49.7 52.6 -49.6 44.8L-49.6 44.75Q-49.7 36.9 -43.35 31.4Q-37.7 26.45 -29.75 26.4L-29.7 26.4Q-21.8 26.45 -16.15 31.4Q-9.8 36.9 -9.9 44.75L-9.9 44.8Q-9.8 52.6 -16.15 58.15L-16.15 58.1Q-19.65 61.15 -24.05 62.35L-29.7 63.1M-36.2,50.8Q-39.4 48 -39.35 44.1Q-39.35 42.6 -38.9 41.3Q-38.5 39.95 -37.6 38.85L-37.45 38.95Q-39.2 41.2 -39.15 44.1Q-39.25 47.95 -36.1 50.65L-36.2 50.8L-36.2 50.75L-36.2 50.8M-19.5,44.05L-19.5 44.15Q-19.45 48.05 -22.6 50.8L-22.6 50.75L-22.65 50.8L-22.7 50.65Q-19.6 47.95 -19.65 44.1Q-19.65 43.1 -19.8 42.25L-19.65 42.2Q-19.5 43.1 -19.5 44.05" />
<path style="fill:#FFFF00;fill-opacity:0.462745" d="M-22.9,62.35Q-26.1 63.4 -29.7 63.45L-29.75 63.45Q-37.85 63.35 -43.55 58.35Q-50 52.75 -49.9 44.8L-49.9 44.75Q-50 36.75 -43.55 31.15Q-37.85 26.15 -29.75 26.1L-29.7 26.1Q-21.65 26.15 -15.9 31.15Q-9.5 36.75 -9.55 44.75L-9.55 44.8Q-9.5 52.75 -15.9 58.35Q-19.05 61.1 -22.9 62.35M-24.05,62.35Q-19.65 61.15 -16.15 58.1L-16.15 58.15Q-9.8 52.6 -9.9 44.8L-9.9 44.75Q-9.8 36.9 -16.15 31.4Q-21.8 26.45 -29.7 26.4L-29.75 26.4Q-37.7 26.45 -43.35 31.4Q-49.7 36.9 -49.6 44.75L-49.6 44.8Q-49.7 52.6 -43.35 58.15L-43.35 58.1Q-40.6 60.5 -37.35 61.75Q-33.85 63.05 -29.75 63.1L-29.7 63.1L-24.05 62.35M-22.65,50.8L-22.6 50.75L-22.6 50.8Q-19.45 48.05 -19.5 44.15L-19.5 44.05Q-19.5 43.1 -19.65 42.2Q-20.25 39.45 -22.6 37.4L-22.65 37.4Q-24.05 36.15 -25.7 35.55L-25.65 35.4Q-24.7 35.75 -23.8 36.35Q-23.1 36.75 -22.5 37.3Q-19.3 40.05 -19.3 44.05L-19.3 44.1Q-19.3 48.1 -22.5 50.9L-22.55 50.95Q-25.4 53.4 -29.4 53.45Q-33.45 53.4 -36.3 50.9L-36.2 50.8Q-33.35 53.2 -29.4 53.25Q-25.45 53.2 -22.65 50.8M-36.2,50.75L-36.2 50.8L-36.2 50.75" />
<path style="fill:#FFFF00;fill-opacity:0.329412" d="M-29.7,25.45Q-21.4 25.5 -15.5 30.65Q-8.8 36.45 -8.9 44.75L-8.9 44.8Q-8.8 53.05 -15.5 58.85Q-21.4 64 -29.7 64.1L-29.75 64.1Q-38.1 64 -44 58.85Q-50.7 53.05 -50.55 44.8L-50.55 44.75Q-50.7 36.45 -44 30.65Q-38.1 25.5 -29.75 25.45L-29.7 25.45M-21.1,62.2Q-18.65 61.15 -15.7 58.6Q-9.15 52.9 -9.25 44.8L-9.25 44.75Q-9.15 36.6 -15.7 30.9Q-21.55 25.8 -29.7 25.75L-29.75 25.75Q-37.95 25.8 -43.75 30.9Q-50.35 36.6 -50.25 44.75L-50.25 44.8Q-50.35 52.9 -43.75 58.6Q-37.95 63.7 -29.75 63.75L-29.7 63.75Q-25.7 63.7 -21.1 62.2M-39.8,44.15L-39.8 44.1Q-39.9 39.95 -36.55 37.05L-35.35 36.15L-33.95 35.4L-32.1 34.75L-31.8 34.7L-29.4 34.45Q-27.35 34.45 -25.55 35.1Q-24.6 35.45 -23.75 35.95L-22.3 37.05L-21.8 37.5L-21.95 37.6L-22.4 37.15Q-23.85 35.9 -25.6 35.25Q-27.35 34.6 -29.4 34.6L-31.75 34.85Q-32.9 35.05 -33.9 35.55Q-35.25 36.15 -36.4 37.15Q-39.7 40 -39.65 44.1L-39.8 44.15M-22.4,51Q-19.1 48.15 -19.15 44.1L-19 44.05L-19 44.15Q-18.95 48.2 -22.25 51.1L-22.3 51.15L-22.4 51" />
<path style="fill:#FFFF00;fill-opacity:0.262745" d="M-29.7,25.1Q-21.3 25.15 -15.3 30.4Q-8.5 36.3 -8.6 44.7L-8.6 44.8Q-8.5 53.2 -15.3 59.1Q-21.3 64.35 -29.7 64.4L-29.75 64.4Q-38.2 64.35 -44.2 59.1Q-51 53.2 -50.9 44.8L-50.9 44.7Q-51 36.3 -44.2 30.4Q-38.2 25.15 -29.75 25.1L-29.7 25.1M-29.75,25.45Q-38.1 25.5 -44 30.65Q-50.7 36.45 -50.55 44.75L-50.55 44.8Q-50.7 53.05 -44 58.85Q-38.1 64 -29.75 64.1L-29.7 64.1Q-21.4 64 -15.5 58.85Q-8.8 53.05 -8.9 44.8L-8.9 44.75Q-8.8 36.45 -15.5 30.65Q-21.4 25.5 -29.7 25.45L-29.75 25.45M-39,47.95Q-38.2 49.7 -36.55 51.15Q-33.6 53.7 -29.4 53.75Q-25.25 53.7 -22.3 51.15L-22.25 51.1Q-18.95 48.2 -19 44.15L-19 44.05Q-18.95 41.15 -20.6 38.85L-20.45 38.8L-19.75 40Q-18.85 41.85 -18.85 44.05L-18.85 44.1Q-18.8 48.3 -22.2 51.25Q-23.7 52.55 -25.45 53.25L-29.35 53.9L-29.4 53.9Q-33.65 53.85 -36.65 51.25Q-38.35 49.8 -39.15 48L-39.8 46.15L-40 44.1L-40 44.05Q-40.05 39.85 -36.65 36.9L-36.55 36.8L-35.4 36L-35.35 36.15L-36.55 37.05Q-39.9 39.95 -39.8 44.1L-39.8 44.15Q-39.85 46.2 -39 47.95" />
<path style="fill:#FFFF00;fill-opacity:0.0627451" d="M-29.75,24.45Q-38.45 24.55 -44.6 29.95Q-51.65 36 -51.55 44.7L-51.55 44.8Q-51.65 53.5 -44.6 59.6Q-38.45 64.95 -29.75 65.05L-29.7 65.05Q-21.05 64.95 -14.85 59.6Q-7.85 53.5 -7.95 44.8L-7.95 44.7Q-7.85 36 -14.85 29.95Q-21.05 24.55 -29.7 24.45L-29.75 24.45M-29.7,24.15Q-20.95 24.2 -14.65 29.7Q-7.5 35.85 -7.6 44.7L-7.6 44.8Q-7.5 53.65 -14.65 59.85Q-20.95 65.3 -29.7 65.4L-29.75 65.4Q-38.55 65.3 -44.85 59.85Q-52 53.65 -51.85 44.8L-51.85 44.7Q-52 35.85 -44.85 29.7Q-38.55 24.2 -29.75 24.15L-29.7 24.15M-25.35,53.55L-25.3 53.7L-29.4 54.4L-29.45 54.4Q-33.85 54.35 -36.95 51.65Q-39.2 49.7 -40 47.25L-40.25 46.25L-40.45 44.1L-40.45 44.05Q-40.5 41.55 -39.35 39.45L-37.8 37.35L-36.95 36.55L-35.7 35.6L-34.3 34.85L-32.2 34.1L-30.85 33.9L-29.4 33.8L-26.25 34.2Q-24.75 34.6 -23.45 35.4Q-22.65 35.9 -21.85 36.55L-20.15 38.4L-19.25 39.9L-19.4 39.95L-20.1 38.75L-21.5 37.1L-21.95 36.7Q-25.05 33.95 -29.4 33.95L-30.85 34.05Q-32.65 34.25 -34.25 35Q-35.45 35.55 -36.55 36.45L-36.85 36.7L-37.9 37.75L-38.5 38.5Q-40.35 40.9 -40.3 44.05L-40.3 44.1L-40.1 46.2L-39.85 47.2Q-39.35 48.65 -38.35 49.9L-36.85 51.5Q-33.75 54.2 -29.45 54.25L-29.35 54.25Q-27.2 54.2 -25.35 53.55" />
<path style="fill:#FFFF00;fill-opacity:0.662745" d="M-20,43.2Q-20.3 40.05 -22.9 37.8Q-25.65 35.45 -29.4 35.4L-31.3 35.6Q-33.9 36.05 -35.9 37.8Q-38.9 40.35 -38.85 44.1L-38.85 44.15Q-38.9 47.8 -35.9 50.4Q-33.2 52.75 -29.4 52.8L-27.55 52.6Q-24.95 52.15 -22.9 50.4Q-19.95 47.8 -19.95 44.1L-20 43.2M-39,44.1Q-39.05 40.3 -36 37.65Q-33.25 35.25 -29.4 35.25Q-25.55 35.25 -22.8 37.65Q-19.8 40.3 -19.8 44.1Q-19.8 47.9 -22.8 50.55Q-25.55 52.9 -29.4 52.95Q-33.25 52.9 -36 50.55Q-39.05 47.9 -39 44.1M-10.55,44.8Q-10.45 52.35 -16.55 57.65Q-21.9 62.25 -29.25 62.45L-29.75 62.45L-31.85 62.35Q-38.2 61.75 -42.9 57.65Q-49.05 52.35 -48.95 44.8L-48.95 44.75Q-49.05 37.15 -42.9 31.9Q-37.45 27.1 -29.75 27.05Q-22.05 27.1 -16.55 31.9Q-10.45 37.15 -10.55 44.75L-10.55 44.8M-10.85,44.75Q-10.8 37.3 -16.75 32.15Q-22.2 27.45 -29.75 27.4Q-37.3 27.45 -42.7 32.15Q-48.7 37.3 -48.6 44.75L-48.6 44.8Q-48.7 52.2 -42.7 57.4Q-37.3 62.05 -29.75 62.15Q-22.2 62.05 -16.75 57.4Q-10.8 52.2 -10.85 44.8L-10.85 44.75" />
<path style="fill:#FFFF00;fill-opacity:0.729412" d="M-23.05,50.3Q-20.1 47.75 -20.15 44.1L-20.2 43.2L-20 43.2L-19.95 44.1Q-19.95 47.8 -22.9 50.4Q-24.95 52.15 -27.55 52.6L-29.4 52.8Q-33.2 52.75 -35.9 50.4Q-38.9 47.8 -38.85 44.15L-38.85 44.1Q-38.9 40.35 -35.9 37.8Q-33.9 36.05 -31.3 35.6L-31.2 35.7Q-33.8 36.15 -35.8 37.9L-37.05 39.25Q-38.75 41.35 -38.7 44.1Q-38.75 47.75 -35.8 50.3Q-33.15 52.55 -29.45 52.6L-29.4 52.6L-27.6 52.45L-26 52.05Q-24.4 51.45 -23.05 50.3M-10.85,44.8Q-10.8 52.2 -16.75 57.4Q-22.2 62.05 -29.75 62.15Q-37.3 62.05 -42.7 57.4Q-48.7 52.2 -48.6 44.8L-48.6 44.75Q-48.7 37.3 -42.7 32.15Q-37.3 27.45 -29.75 27.4Q-22.2 27.45 -16.75 32.15Q-10.8 37.3 -10.85 44.75L-10.85 44.8M-11.2,44.75Q-11.15 37.45 -17 32.4Q-22.3 27.75 -29.75 27.7Q-37.2 27.75 -42.5 32.4Q-48.35 37.45 -48.3 44.75L-48.3 44.8Q-48.35 52.05 -42.5 57.15Q-37.2 61.75 -29.75 61.8Q-22.3 61.75 -17 57.15Q-11.15 52.05 -11.2 44.8L-11.2 44.75" />
<path style="fill:#FFFF00;fill-opacity:0.862745" d="M-26.05,51.9L-29.4 52.45Q-33.1 52.4 -35.7 50.15Q-38.55 47.65 -38.5 44.1L-38.35 44.1Q-38.4 47.55 -35.55 50.05Q-33 52.25 -29.4 52.3Q-25.8 52.25 -23.25 50.05Q-20.45 47.55 -20.45 44.1Q-20.45 40.6 -23.25 38.15Q-25.8 35.9 -29.4 35.9L-32.75 36.45L-32.75 36.3L-31.15 35.9L-29.4 35.75Q-25.8 35.75 -23.15 38L-23.15 38.05Q-21 39.9 -20.45 42.4Q-20.3 43.2 -20.3 44.1Q-20.25 47.65 -23.1 50.15L-23.15 50.2L-26.05 51.9M-17.4,32.85Q-22.55 28.4 -29.75 28.35Q-36.95 28.4 -42.05 32.85Q-47.75 37.75 -47.65 44.75Q-47.75 51.75 -42.05 56.65Q-36.95 61.1 -29.75 61.15Q-22.55 61.1 -17.4 56.65Q-11.75 51.75 -11.85 44.75Q-11.75 37.75 -17.4 32.85M-11.5,44.75Q-11.45 51.9 -17.2 56.9Q-22.4 61.4 -29.75 61.5Q-37.1 61.4 -42.3 56.9Q-48.05 51.9 -47.95 44.75Q-48.05 37.6 -42.3 32.65Q-37.1 28.1 -29.75 28.05Q-22.4 28.1 -17.2 32.65Q-11.45 37.6 -11.5 44.75" />
<path style="fill:#FFFF00;fill-opacity:0.929412" d="M-38.35,44.1Q-38.4 40.6 -35.55 38.15Q-34.3 37 -32.75 36.45L-29.4 35.9Q-25.8 35.9 -23.25 38.15Q-20.45 40.6 -20.45 44.1Q-20.45 47.55 -23.25 50.05Q-25.8 52.25 -29.4 52.3Q-33 52.25 -35.55 50.05Q-38.4 47.55 -38.35 44.1M-38.2,44.1Q-38.25 47.5 -35.45 49.9Q-32.95 52.1 -29.4 52.15Q-25.9 52.1 -23.35 49.9Q-20.6 47.5 -20.6 44.1Q-20.6 40.65 -23.35 38.25Q-25.9 36.05 -29.4 36.05Q-32.95 36.05 -35.45 38.25Q-38.25 40.65 -38.2 44.1M-17.6,33.1Q-22.65 28.7 -29.75 28.7Q-36.85 28.7 -41.85 33.1Q-47.4 37.9 -47.3 44.75Q-47.4 51.6 -41.85 56.4Q-36.85 60.8 -29.75 60.85Q-22.65 60.8 -17.6 56.4Q-12.1 51.6 -12.15 44.75Q-12.1 37.9 -17.6 33.1M-11.85,44.75Q-11.75 51.75 -17.4 56.65Q-22.55 61.1 -29.75 61.15Q-36.95 61.1 -42.05 56.65Q-47.75 51.75 -47.65 44.75Q-47.75 37.75 -42.05 32.85Q-36.95 28.4 -29.75 28.35Q-22.55 28.4 -17.4 32.85Q-11.75 37.75 -11.85 44.75" />
<path style="fill:#FFFF00;fill-opacity:0.129412" d="M-29.7,24.45Q-21.05 24.55 -14.85 29.95Q-7.85 36 -7.95 44.7L-7.95 44.8Q-7.85 53.5 -14.85 59.6Q-21.05 64.95 -29.7 65.05L-29.75 65.05Q-38.45 64.95 -44.6 59.6Q-51.65 53.5 -51.55 44.8L-51.55 44.7Q-51.65 36 -44.6 29.95Q-38.45 24.55 -29.75 24.45L-29.7 24.45M-29.75,24.8Q-38.3 24.85 -44.4 30.2L-44.4 30.15Q-51.3 36.15 -51.2 44.7L-51.2 44.8Q-51.3 53.35 -44.4 59.35Q-38.3 64.65 -29.75 64.75L-29.7 64.75Q-21.2 64.65 -15.05 59.35Q-8.2 53.35 -8.25 44.8L-8.25 44.7Q-8.2 36.15 -15.05 30.15L-15.05 30.2Q-21.2 24.85 -29.7 24.8L-29.75 24.8M-18.85,41.35L-19 41.4Q-19.2 40.65 -19.55 39.95L-20.25 38.8Q-20.8 38 -21.5 37.3L-22.05 36.8L-23.45 35.75Q-24.4 35.15 -25.4 34.8Q-27.25 34.1 -29.4 34.1L-30.8 34.2L-32.1 34.45Q-33.2 34.65 -34.15 35.15Q-34.75 35.4 -35.3 35.75L-36.6 36.7L-36.75 36.8L-37.65 37.65L-37.7 37.7L-37.8 37.8L-37.9 37.75L-36.85 36.7L-36.55 36.45Q-35.45 35.55 -34.25 35Q-32.65 34.25 -30.85 34.05L-29.4 33.95Q-25.05 33.95 -21.95 36.7L-21.5 37.1L-20.1 38.75L-19.4 39.95Q-19.05 40.65 -18.85 41.35M-29.35,54.25L-29.45 54.25L-29.4 54.1Q-27.25 54.05 -25.4 53.4Q-23.6 52.7 -22.05 51.4Q-18.65 48.4 -18.65 44.15L-18.65 44.1L-18.5 44.15Q-18.5 48.45 -21.95 51.5Q-23.5 52.85 -25.35 53.55Q-27.2 54.2 -29.35 54.25" />
<path style="fill:none;stroke-width:2;stroke-linecap:round;stroke-linejoin:round;stroke-miterlimit:3;stroke:#F3ED01;stroke-opacity:0.929412" d="M-23.2,34.8L-23.65 34.55Q-24.8 34 -26.05 33.7L-27.15 33.5L-27.2 33.5L-29.75 33.25L-30.95 33.3M-27.3,55.4L-29.7 55.6L-29.75 55.6Q-34.8 55.6 -38.4 52.5L-38.45 52.45L-40.05 50.8Q-41.4 49.05 -41.85 46.95L-42.1 44.8L-42.1 44.75L-42.1 44.65Q-42.05 41.3 -40.05 38.75L-38.5 37.1L-38.45 37.05L-38.4 37Q-35.7 34.7 -32.2 34.1M-19.25,39.9L-20.15 38.4M-31,33L-29.75 32.95L-28.4 33M-39.65,44.1Q-39.7 40 -36.4 37.15Q-35.25 36.15 -33.9 35.55Q-32.9 35.05 -31.75 34.85L-29.4 34.6Q-27.35 34.6 -25.6 35.25Q-23.85 35.9 -22.4 37.15L-21.95 37.6M-25.65,35.4Q-24.7 35.75 -23.8 36.35Q-23.1 36.75 -22.5 37.3Q-19.3 40.05 -19.3 44.05L-19.3 44.1Q-19.3 48.1 -22.5 50.9L-22.55 50.95Q-25.4 53.4 -29.4 53.45Q-33.45 53.4 -36.3 50.9M-16.65,41.1Q-17.4 39 -19 37.2L-20.2 36.05Q-23.65 33.05 -28.35 32.65M-27.3,55.4L-25.05 54.8Q-22.9 54.05 -21.1 52.5L-21.05 52.45Q-18.3 50.05 -17.6 46.95L-17.4 44.8L-17.4 44.75Q-17.4 41.9 -18.8 39.65Q-19.7 38.25 -21.05 37.05L-23.45 35.4M-19.75,53.95Q-23.9 57.55 -29.75 57.55Q-35.6 57.55 -39.7 53.95Q-44.05 50.15 -44.05 44.8L-44.05 44.75Q-44.05 39.35 -39.7 35.6Q-35.6 31.95 -29.75 31.95Q-23.9 31.95 -19.75 35.6M-22.3,51.15Q-25.25 53.7 -29.4 53.75Q-33.6 53.7 -36.55 51.15Q-38.2 49.7 -39 47.95Q-39.85 46.2 -39.8 44.15M-33.6,47.85L-33.55 47.7Q-31.85 49.2 -29.4 49.2Q-27 49.2 -25.25 47.7L-25.2 47.85M-23.05,44.1Q-23.1 46.4 -24.95 48.05L-25 48.1Q-26.85 49.65 -29.4 49.7Q-32 49.65 -33.85 48.05Q-35.75 46.4 -35.75 44.15M-29.4,39Q-27 39 -25.25 40.5L-25.3 40.5Q-23.6 41.95 -23.55 44.05L-23.7 44.05Q-23.75 42.05 -25.4 40.6Q-27.05 39.15 -29.4 39.15Q-31.8 39.15 -33.45 40.6Q-34.25 41.3 -34.65 42.2L-34.8 42.1M-36.4,44.1Q-36.4 46.7 -34.3 48.55Q-32.25 50.3 -29.4 50.35Q-26.6 50.3 -24.55 48.55Q-22.4 46.7 -22.4 44.1Q-22.4 41.45 -24.55 39.65Q-26.6 37.85 -29.4 37.85Q-32.25 37.85 -34.3 39.65Q-36.4 41.45 -36.4 44.1M-40.35,34.85Q-45.05 38.95 -45 44.75Q-45.05 50.55 -40.35 54.7Q-35.95 58.5 -29.75 58.55Q-23.55 58.5 -19.15 54.7Q-14.45 50.55 -14.45 44.75Q-14.45 38.95 -19.15 34.85Q-23.55 31 -29.75 31Q-35.95 31 -40.35 34.85M-16.65,41.1Q-16.1 42.8 -16.1 44.75L-16.1 44.8Q-16.1 49.85 -20.2 53.45Q-22.25 55.25 -24.75 56.1Q-27.05 56.9 -29.75 56.9L-29.8 56.9M-19.8,42.25Q-19.65 43.1 -19.65 44.1Q-19.6 47.95 -22.7 50.65" />
<path style="fill:none;stroke-width:1;stroke-linecap:round;stroke-linejoin:round;stroke-miterlimit:3;stroke:#000000;stroke-opacity:1" d="M-25.45,62.35L-24.05 62.35L-22.9 62.35L-21.1 62.2M-37.35,61.75L-35.3 62.05M-31.85,62.35L-29.25 62.45" />
<path style="fill:#666666;fill-opacity:1" d="M-33.5,29.15L-33.45 29.1L-37.15 28.9L-37.35 28.65Q-36.95 28.15 -37.4 27.7L-34.65 27.05L-37.4 27.35L-37.5 27.4L-37.6 27.65L-37.55 27.7L-37.4 27.7L-37.45 27.7L-37.9 28.65L-37.95 28.75L-37.95 28.85L-38.1 28.8L-37.9 28.9L-37.9 28.95L-38 28.95L-38.25 29L-37.7 27.3L-18.95 27.85L-18.95 27.95L-19.45 29.7L-19.7 30.05L-20.6 29.7L-21.65 29.5L-23.6 29.25Q-28.1 28.8 -33.5 29.15M-24.9,62.4L-30 62.5L-30.05 62.5L-31.95 62.2L-32.1 62.2L-31.75 62.4L-35.1 62L-34.85 62L-34.95 61.95L-37.4 61.55L-37.55 61.55L-38.2 61.4Q-38.8 60.05 -38.8 59.25L-38.8 59L-38.85 58.7L-38.85 58.65L-35.65 59.35L-35.5 59.55L-34 59.65L-28.1 60.1L-25.5 59.95L-25.3 59.9L-23.1 59.55L-21.15 59L-19.75 59.2L-20.1 60.55L-20.8 62L-22.8 62.25L-22.65 62.2L-22.7 62.15L-25.7 62.05Q-27.5 61.9 -29.25 62L-29.4 62.05L-25.8 62.35L-24.9 62.4M-37.7,29.8L-38.6 29.95L-38.7 29.65L-38.65 29.6L-38.6 29.7L-37.7 29.8M-34.9,28.85L-32.4 29L-32.45 28.95L-34.8 28.85L-34.9 28.85M-23.3,61.4Q-22.75 61.85 -21.9 61.7L-21.9 61.75L-20.95 61.7L-20.95 61.65L-21.4 61.5L-21.45 61.5L-23.15 61.3L-23.3 61.4M-20.25,60.7L-20.25 60.65L-21.15 60.45L-21.3 60.5Q-21.3 61.05 -20.25 60.7M-38.5,59.35L-38.6 59.4Q-38.7 60.1 -38.2 60.55L-38.2 60.75Q-36.7 61.65 -34.9 61.65L-34.3 61.75L-33.9 61.95L-28.85 61.75L-33.75 61.5L-33.9 61.5L-33.95 61.45L-34.2 61.3L-34.4 61.4L-36.75 60.85L-36.85 60.85L-36.15 61.25Q-37.45 61 -37.75 60.2L-37.95 60.2L-38.5 59.35" />
<path style="fill:#FF0000;fill-opacity:1" d="M-19.4,29.7Q-17.7 30.2 -16.25 30.95L-22.95 30.65L-23.6 29.25L-21.65 29.5L-20.6 29.7L-19.7 30.05L-19.45 29.7L-19.4 29.7M-14.3,32.05L-16.25 32L-16.25 30.95Q-15.2 31.45 -14.3 32.05M-11.15,36.25L-11.05 35.15L-10.35 36.3L-11.15 36.25M-9.2,39.95L-9.2 39.5L-9.1 39.95L-9.2 39.95M-11.4,51.65L-12.2 52.8L-21.3 52.25L-20.95 51.05L-11.4 51.65M-48.5,46.2L-48.55 47.3L-48.8 46.2L-48.5 46.2M-44.85,33.75L-45.95 33.7L-44.8 32.85L-44.85 33.75M-35.8,30.15L-36.95 31.55L-42.7 31.4Q-41.2 30.5 -40.05 30.25L-39 30.05L-38.6 29.95L-37.7 29.8L-35.35 29.6L-35.25 29.65L-35.8 30.15M-21.15,59L-23.1 59.55L-25.3 59.9L-24.55 58.8L-21.15 59" />
<path style="fill:#FFFFFF;fill-opacity:0.662745" d="M-33.5,29.15Q-28.1 28.8 -23.6 29.25L-22.95 30.65L-22.5 31.85L-21.9 33.45L-38 33L-36.95 31.55L-35.8 30.15L-35.3 30.2L-35.1 30.2L-35.05 29.5L-34.65 29.35L-34.1 29.3L-33.95 29.3L-33.95 29.25L-33.75 29.2L-33.5 29.15M-40.35,38.6L-39.8 36.7L-39.25 35.3L-38.6 34L-38.05 34.05L-21.5 34.7L-21.15 35.9L-20.75 37.45L-20.4 39.45L-20.1 41.85L-20 44.5L-20.25 47.65L-40.2 46.65L-40.55 46.6L-40.85 43.5L-40.75 41.05L-40.35 38.6M-40.3,47.75L-20.45 48.8L-20.95 51.05L-21.3 52.25L-21.9 53.9L-23 56.2L-23.7 57.45L-37 56.9L-37.65 55.55L-38.7 53.1L-39.35 51.2L-39.8 49.85L-40.3 47.75" />
<path style="fill:#FF0000;fill-opacity:0.6" d="M-20.45,48.8L-20.25 47.65L-20 44.5L-20.1 41.85L-20.4 39.45L-20.75 37.45L-21.15 35.9L-21.5 34.7L-21.9 33.45L-22.5 31.85L-22.95 30.65L-16.25 30.95L-16.25 32L-14.3 32.05L-12.3 33.7L-11.05 35.15L-11.15 36.25L-10.35 36.3L-9.6 37.95L-9.2 39.5L-9.2 39.95L-9.1 39.95Q-8.9 41.1 -8.85 42.3L-9 45.05Q-9.2 46.6 -9.75 48.2L-10.2 49.35L-11 50.95L-11.4 51.65L-20.95 51.05L-20.45 48.8M-39.8,49.85L-39.35 51.2L-38.7 53.1L-37.65 55.55L-37 56.9L-36.3 58.15L-35.65 59.35L-38.85 58.65L-39.25 58.6L-40.3 57.95L-42.25 56.65L-43.9 55.25L-46.1 52.75L-47.3 50.75L-47.95 49.3L-48.55 47.3L-48.5 46.2L-48.8 46.2L-48.9 45.35L-49.1 43.1L-49.05 40.75L-48.7 38.25L-48.05 36.35L-47.25 35L-46.15 33.85L-45.95 33.7L-44.85 33.75L-44.8 32.85L-42.7 31.4L-36.95 31.55L-38 33L-38.6 34L-39.25 35.3L-39.8 36.7L-40.35 38.6L-40.75 41.05L-40.85 43.5L-40.55 46.6L-40.3 47.75L-39.8 49.85M-21.9,53.9L-21.3 52.25L-12.2 52.8L-13.45 54.3L-16.1 56.55L-18 57.7L-19.75 58.45L-19.8 58.5L-21.15 59L-24.55 58.8L-23.7 57.45L-23 56.2L-21.9 53.9" />
<path style="fill:#FFFFFF;fill-opacity:1" d="M-38,33L-21.9 33.45L-21.5 34.7L-38.05 34.05L-38 33M-35.25,29.65L-35.3 30.2L-35.8 30.15L-35.25 29.65M-20.25,47.65L-20.45 48.8L-40.3 47.75L-40.2 46.65L-20.25 47.65M-37,56.9L-23.7 57.45L-24.55 58.8L-25.3 59.9L-25.5 59.95L-28.1 60.1L-34 59.65L-35.5 59.55Q-34.85 59.5 -35.65 59.35L-36.3 58.15L-37 56.9" />
<path style="fill:#000000;fill-opacity:1" d="M-38.6,29.7L-38.65 29.6L-38.65 29.35L-38.65 29.25L-38.65 29.15L-38.25 29L-38 28.95L-37.9 28.95L-37.9 28.9L-38.1 28.8L-37.95 28.85L-37.95 28.75L-37.9 28.65L-37.45 27.7L-37.4 27.7L-37.55 27.7L-37.6 27.65L-37.5 27.4L-37.4 27.35L-34.65 27.05L-37.4 27.7Q-36.95 28.15 -37.35 28.65L-37.15 28.9L-33.45 29.1L-33.5 29.15L-33.75 29.2L-33.95 29.25L-34.05 29.25L-34.1 29.25L-34.65 29.35L-35.05 29.5L-35.2 29.55L-35.35 29.6L-37.7 29.8L-38.6 29.7M-25.8,62.35L-29.4 62.05L-29.25 62Q-27.5 61.9 -25.7 62.05L-22.7 62.15L-22.65 62.2L-22.8 62.25L-24.9 62.4L-25.8 62.35M-32.1,62.2L-31.95 62.2L-30.05 62.5L-30 62.5L-31.75 62.4L-32.1 62.2M-37.4,61.55L-34.95 61.95L-34.85 62L-35.1 62Q-36.5 62.2 -37.55 61.6L-37.55 61.55L-37.4 61.55M-34.8,28.85L-32.45 28.95L-32.4 29L-34.9 28.85L-34.8 28.85M-23.15,61.3L-21.45 61.5L-21.4 61.5L-20.95 61.65L-20.95 61.7L-21.9 61.75L-21.9 61.7Q-22.75 61.85 -23.3 61.4L-23.15 61.3M-21.3,60.5L-21.15 60.45L-20.25 60.65L-20.25 60.7Q-21.3 61.05 -21.3 60.5M-37.95,60.2L-37.75 60.2Q-37.45 61 -36.15 61.25L-36.85 60.85L-36.75 60.85L-34.4 61.4L-34.2 61.3L-33.95 61.45L-33.9 61.5L-33.75 61.5L-28.85 61.75L-33.9 61.95L-34.3 61.75L-34.9 61.65Q-36.7 61.65 -38.2 60.75L-38.2 60.55Q-38.7 60.1 -38.6 59.4L-38.5 59.35L-37.95 60.2" />
<path style="fill:#FFFFFF;fill-opacity:0.713725" d="M-35.2,29.55L-35.05 29.5L-35.1 30.2L-35.3 30.2L-35.25 29.65L-35.2 29.55" />
<path style="fill:none;stroke-width:1;stroke-linecap:round;stroke-linejoin:round;stroke-miterlimit:3;stroke:#FE8D8D;stroke-opacity:0.662745" d="M-14.3,32.05L-16.25 32L-22.5 31.85L-22.95 30.65L-16.25 30.95Q-17.7 30.2 -19.4 29.7M-22.5,31.85L-21.9 33.45L-12.3 33.7M-36.95,31.55L-38 33M-11.05,35.15L-12.3 33.7M-21.15,35.9L-11.15 36.25M-20.4,39.45L-20.75 37.45L-9.6 37.95L-9.2 39.5M-9.1,39.95Q-8.9 41.1 -8.85 42.3L-20.1 41.85M-20,44.5L-9 45.05Q-9.2 46.6 -9.75 48.2L-10.2 49.35L-11 50.95L-11.4 51.65M-21.3,52.25L-12.2 52.8L-13.45 54.3M-19.75,58.45L-19.75 59.05M-46.1,52.75L-38.7 53.1L-37.65 55.55L-37 56.9L-42.25 56.65L-43.9 55.25L-46.1 52.75L-47.3 50.75M-40.3,47.75L-39.8 49.85L-47.95 49.3L-48.55 47.3M-40.85,43.5L-40.55 46.6L-48.5 46.2L-48.8 46.2L-48.9 45.35L-49.1 43.1M-49.05,40.75L-48.7 38.25L-48.05 36.35L-39.8 36.7L-40.35 38.6L-48.7 38.25M-39.25,35.3L-47.25 35L-46.15 33.85L-45.95 33.7M-44.8,32.85L-42.7 31.4M-35.1,30.2L-35.3 30.2M-36.95,31.55L-42.7 31.4M-39,30.05L-35.8 30.15M-20.45,48.8L-20.25 47.65M-20.4,39.45L-9.2 39.95L-9.2 39.5M-16.25,30.95L-16.25 32M-9.75,48.2L-20.25 47.65M-40.85,43.5L-49.1 43.1M-20.45,48.8L-10.2 49.35M-44.8,32.85L-38 33M-49.05,40.75L-40.75 41.05L-40.35 38.6M-21.3,52.25L-21.9 53.9L-13.45 54.3M-39.8,49.85L-39.35 51.2M-35.5,59.55L-34 59.65L-28.1 60.1L-25.5 59.95L-25.3 59.9M-40.3,57.95L-36.3 58.15L-35.65 59.35L-38.85 58.65M-23.7,57.45L-18 57.7M-23.7,57.45L-24.55 58.8L-21.15 59L-23.1 59.55L-25.3 59.9M-37.65,55.55L-43.9 55.25M-20.45,48.8L-20.95 51.05L-11.4 51.65M-16.1,56.55L-23 56.2" />
<path style="fill:none;stroke-width:1;stroke-linecap:round;stroke-linejoin:round;stroke-miterlimit:3;stroke:#FF0000;stroke-opacity:1" d="M-19.45,29.7L-19.4 29.7M-21.9,33.45L-21.5 34.7M-9.2,39.5L-9.1 39.95M-18,57.7L-19.75 58.45L-19.8 58.5L-21.15 59M-19.75,59.05L-19.75 59.2M-38.8,59.25L-39 58.9L-39 58.8L-38.95 58.75L-38.85 58.7M-38.85,58.65L-39.25 58.6L-40.3 57.95L-42.25 56.65M-39,30.05L-38.6 29.95M-35.8,30.15L-35.25 29.65M-19.7,30.05L-19.25 30.3M-14.3,32.05Q-15.2 31.45 -16.25 30.95M-25.3,59.9L-24.55 58.8M-35.65,59.35Q-34.85 59.5 -35.5 59.55L-35.65 59.35M-36.3,58.15L-37 56.9M-38.8,59.25L-38.8 59L-38.85 58.7" />
<path style="fill:none;stroke-width:1;stroke-linecap:round;stroke-linejoin:round;stroke-miterlimit:3;stroke:#D0AC7B;stroke-opacity:0.752941" d="M-22.5,31.85L-36.95 31.55M-20.75,37.45L-21.15 35.9L-21.5 34.7L-38.05 34.05L-38.6 34L-39.25 35.3L-21.15 35.9M-20.75,37.45L-39.8 36.7L-39.25 35.3M-40.3,47.75L-20.45 48.8M-20.25,47.65L-40.2 46.65L-40.55 46.6M-40.35,38.6L-20.4 39.45M-20.1,41.85L-20 44.5L-40.85 43.5M-20.25,47.65L-20 44.5M-20.1,41.85L-40.75 41.05L-40.85 43.5M-21.9,53.9L-38.7 53.1L-39.35 51.2L-21.3 52.25L-20.95 51.05L-39.8 49.85M-24.55,58.8L-36.3 58.15M-23,56.2L-37.65 55.55M-37,56.9L-23.7 57.45" />
<path style="fill:none;stroke-width:1;stroke-linecap:round;stroke-linejoin:round;stroke-miterlimit:3;stroke:#000000;stroke-opacity:1" d="M-19.7,30.05L-19.45 29.7L-18.95 27.95L-18.95 27.85L-37.7 27.3L-38.25 29M-19.75,59.2L-20.1 60.55L-20.8 62L-22.8 62.25M-24.9,62.4L-30 62.5M-31.75,62.4L-35.1 62M-37.55,61.55L-38.2 61.4Q-38.8 60.05 -38.8 59.25M-38.6,29.95L-38.7 29.65L-38.65 29.6" />
<path style="fill:none;stroke-width:1;stroke-linecap:round;stroke-linejoin:round;stroke-miterlimit:3;stroke:#FE8D8D;stroke-opacity:1" d="M-21.5,34.7L-11.05 35.15L-10.35 36.3L-9.6 37.95M-8.85,42.3L-9 45.05M-11.4,51.65L-12.2 52.8M-13.45,54.3L-16.1 56.55L-18 57.7M-39.35,51.2L-47.3 50.75L-47.95 49.3M-40.55,46.6L-40.3 47.75L-48.55 47.3L-48.8 46.2M-49.1,43.1L-49.05 40.75M-48.05,36.35L-47.25 35M-38,33L-38.6 34L-44.85 33.75L-45.95 33.7L-44.8 32.85M-42.7,31.4Q-41.2 30.5 -40.05 30.25L-39 30.05M-35.8,30.15L-36.95 31.55M-10.35,36.3L-11.15 36.25M-9.2,39.95L-9.1 39.95M-20.1,41.85L-20.4 39.45M-23.7,57.45L-23 56.2L-21.9 53.9" />
<path style="fill:none;stroke-width:1;stroke-linecap:round;stroke-linejoin:round;stroke-miterlimit:3;stroke:#D0AC7B;stroke-opacity:1" d="M-38,33L-21.9 33.45M-35.3,30.2L-35.8 30.15M-21.15,59L-19.75 59.05" />
</g>
</svg>
