<?xml version="1.0" encoding="utf-8"?>
<svg version="1.1" id="Layer_1"
xmlns="http://www.w3.org/2000/svg"
xmlns:xlink="http://www.w3.org/1999/xlink"
xmlns:author="http://www.sothink.com"
width="159px" height="236px"
xml:space="preserve">
<g id="197" transform="matrix(1, 0, 0, 1, 78.9, 234.7)">
<path style="fill:#D6D6D6;fill-opacity:1" d="M39.75,-175.4L37.75 -176.4L39.75 -175.45L39.75 -175.4" />
<path style="fill:#CCCCCC;fill-opacity:1" d="M39.75,-175.75L39.75 -176.5L78.75 -196L78.75 -195.25L39.75 -175.75" />
<path style="fill:#ECEBDB;fill-opacity:1" d="M39.75,-175.45L39.75 -175.75L78.75 -195.25L78.75 -19.5L39.75 0L2.25 -18.75L2.25 -107L2.25 -107.55L1.65 -107.85L1.65 -107.9L-78.4 -147.7L-78.4 -234.2L37.75 -176.4L39.75 -175.4L39.75 -175.45" />
<path style="fill:none;stroke-width:1;stroke-linecap:round;stroke-linejoin:round;stroke-miterlimit:3;stroke:#000000;stroke-opacity:1" d="M-78.4,-234.2L37.75 -176.4L39.75 -175.45L39.75 -175.75L78.75 -195.25L78.75 -19.5L39.75 0L2.25 -18.75L2.25 -107M2.25,-107.55L1.65 -107.85L1.65 -107.9L-78.4 -147.7M37.75,-176.4L39.75 -175.4L39.75 0" />
</g>
</svg>
