<?xml version="1.0" encoding="utf-8"?>
<svg version="1.1" id="Layer_1"
xmlns="http://www.w3.org/2000/svg"
xmlns:xlink="http://www.w3.org/1999/xlink"
xmlns:author="http://www.sothink.com"
width="13px" height="7px"
xml:space="preserve">
<g id="170" transform="matrix(1, 0, 0, 1, -153.2, -122.65)">
<path style="fill:#96847E;fill-opacity:1" d="M165.7,126.15Q165.7 127.4 163.95 128.25Q162.2 129.15 159.7 129.15Q157.25 129.15 155.5 128.25Q153.7 127.4 153.7 126.15Q153.7 124.9 155.5 124.05Q157.25 123.15 159.7 123.15Q162.2 123.15 163.95 124.05Q165.7 124.9 165.7 126.15" />
<path style="fill:none;stroke-width:1;stroke-linecap:round;stroke-linejoin:round;stroke-miterlimit:3;stroke:#705E56;stroke-opacity:1" d="M165.7,126.15Q165.7 127.4 163.95 128.25Q162.2 129.15 159.7 129.15Q157.25 129.15 155.5 128.25Q153.7 127.4 153.7 126.15Q153.7 124.9 155.5 124.05Q157.25 123.15 159.7 123.15Q162.2 123.15 163.95 124.05Q165.7 124.9 165.7 126.15z" />
</g>
</svg>
