<?xml version="1.0" encoding="utf-8"?>
<svg version="1.1" id="Layer_1"
xmlns="http://www.w3.org/2000/svg"
xmlns:xlink="http://www.w3.org/1999/xlink"
xmlns:author="http://www.sothink.com"
width="40px" height="78px"
xml:space="preserve">
<g id="630" transform="matrix(1, 0, 0, 1, -345.95, -11.05)">
<path style="fill:#970000;fill-opacity:1" d="M384.4,29L381.95 30.7L381.9 30.75L346.9 13.25L349.45 11.55L384.4 29M372.45,79.55L372.45 29.05L374.95 30.3L375.05 78.15L375.1 78.1L384.4 82.75L382.05 84.35L381.95 84.3L372.7 79.65L372.45 79.55" />
<path style="fill:#BB0000;fill-opacity:1" d="M372.45,29.05L372.45 79.55L372.45 79.65L372.7 79.65L381.95 84.3L381.95 87.8L346.45 70.05L346.45 13.05L346.9 13.25L381.9 30.75L381.95 30.8L381.95 33.8L374.95 30.3L372.45 29.05M369.95,29.8L348.95 19.3L348.95 66.8L369.95 77.3L369.95 29.8" />
<path style="fill:#FFFFFF;fill-opacity:1" d="M365.8,31.25L365 30.7L361.4 29.65Q360.75 29.4 360.75 29.75L361.1 30.6L362 31.35L365.8 32.55L366.4 32.4L366.4 32.05L366.3 31.85L366.05 31.5L365.8 31.25M366,33.9L365.45 33.85Q364.45 33.35 362.55 32.8L360.15 32.15Q359.65 32.2 359.65 32.5L360.05 33.4Q360.45 34 360.95 33.95L363.4 34.35L365.4 35.05L365.4 35.35Q365.1 36.3 364.1 37Q363.05 37.6 362.2 37.75Q361.5 37.8 361.5 38.05L362.1 38.55L364 38.8L365.85 38.45L367 37.25Q367.6 36.3 367.6 35.7Q367.6 35.2 367.1 34.6L366.95 34.4L366.65 34.1L366.6 34.05L366.45 33.9L366 33.9M364.55,42.85L364.3 41.95L363.5 40.9Q363.05 40.5 362.65 40.5Q362.3 40.55 362.35 40.85L362.7 41.55L362.95 42.5Q362.9 46.5 363 48.75L363.2 49.5Q363.45 49.8 363.75 49.7L364.15 49.6L364.5 49.15L364.55 42.85M355.9,36.1L353.95 32.6L352 34.2L353.3 34.8L353.3 40.35L354.65 41.05L354.65 35.5L355.9 36.1M351.05,41.1L351.15 41.6L351.55 42.25L352.05 42.5Q354.05 42.9 355.15 43.45L355.45 43.8L355.45 46.7L355.3 46.95L354.95 46.7L353.8 45.55Q352.05 44.9 351.1 44.8Q350.75 44.8 350.7 44.95Q350.65 45.2 350.95 45.7L351.25 46.15Q351.5 46.35 351.8 46.35L354.2 46.9L354.8 47.3L354.9 47.5L354.9 47.6Q354.8 47.8 355.25 48.3L356.1 48.75Q356.8 48.6 356.8 48L356.8 45.9L356.9 44.3L356.75 43.5L356.2 42.75Q355.85 42.35 355.6 42.35L355.2 42.35Q352.8 41.25 351.45 40.95Q351.15 40.85 351.05 41.1M354.5,49.15Q354.2 49.25 354.2 49.45L354.4 49.85L354.6 50.1L354.55 50.35L354.25 50.85L353.1 52.4L351.55 53.7Q351.1 53.8 351.15 54.05Q351.2 54.35 351.65 54.4L353.1 54.25L354.8 53.05Q355.7 52.2 356.05 51.3L356.25 50.8L355.75 49.95L355.1 49.25L354.5 49.15M363.95,51.85Q363.8 51.95 363.95 52.4L364.15 52.85L363.65 54.05L362.95 53.4Q362.45 52.95 362.15 52.9L361.8 52.85Q361.45 52.75 361.35 53.15L361.85 53.95L362.95 55.2L362.2 56L359.8 57.65Q359.4 57.75 359.5 58L359.5 58.15L359.65 58.45L360.15 58.55Q361.15 58.75 362.6 58L364.25 56.75L364.6 57.25L365.6 58.6Q365.85 59 366.3 58.95Q366.6 58.85 366.5 58L366.05 56.75L365.15 55.7L365.45 55.25L365.85 54.4L366.1 53.8L365.65 52.55L364.85 51.8L364.1 51.75L363.95 51.85M354.65,57.8Q354.75 57.55 354.35 57.1L354.25 56.85L354.05 56.65Q353.75 56.35 353.6 56.4L353.4 56.4L353.3 56.95L353.25 57.55L352.8 57.4L352.65 57.15L352.15 56.55Q351.9 56.45 351.8 56.65L351.6 56.8L350.8 57.3L350.5 57.75Q350.6 58.05 351.3 58.1L351.8 58.05L352.2 58L352.45 58L352.55 58L352.6 58.2L352.75 58.45L352.9 58.65L353.15 58.85L353.1 58.9L353 59.35L352.1 59.1L351.1 58.95Q350.85 58.9 350.85 59.15L351 59.6L351.1 59.75L351.4 60.2L352 60.55L351.8 60.65L351.25 61L350.4 61.6Q350.1 62 350.2 62.15L350.85 62.25L351.4 62.05L351.9 61.95L353.2 61.3L353.65 60.85L353.65 60.9L353.55 61.35Q353.35 61.6 353.35 62.2Q353.35 62.8 353.5 63.25L353.9 63.95L354.55 64.65Q354.8 64.9 355.4 65.15Q356.05 65.55 356.55 65.75L357.4 65.9L357.9 65.65Q358.15 65.35 358 65L357.75 64.55L357.55 64.3L357.5 63.95L357.3 63.65L357.05 63.7L356.8 64.15L356.6 64.2L356.15 64.1L355.6 63.85L354.85 63.4L354.5 63.05L354.45 62.75L354.6 62.2L354.7 62.05L354.9 61.7L354.75 61.1L354.7 61L355.75 61.35L356.3 61.35L356.3 60.95L356.1 60.6L355.65 60.1L355.25 59.9L354.65 59.8L354.4 59.75L354.5 59.2L355.1 59.3L355.25 59.2L355.25 59.1L355.3 58.95L355.3 58.8L355.25 58.55L355.1 58.35L355 58.15L354.9 58.1L354.7 57.9L354.6 57.9L354.65 57.8M361,60.25Q360.6 60 360.2 60L359.9 60.4L360.4 61.2L361.1 61.95L361 62.2Q360.7 62.55 361.05 62.8L361.75 63.05L362.3 63.35L362.8 63.75L363.05 63.7L363.25 63.45L363.4 62.85L363.1 62.25L362.75 61.8L361.85 60.9L361 60.25M360.15,66.7L360.4 67Q360.55 67.3 361.1 67.5L363.85 67.75L366.35 67.1L367.75 66.05L368.05 65.4L367.9 64.9L367.7 64.9L367.05 65.05L364.55 65.85L362.45 65.85Q361.5 65.75 360.75 65.25Q360.25 64.9 359.85 65Q359.55 65.15 359.55 65.45L359.75 66L359.95 66.35L360.15 66.7M369.95,77.3L348.95 66.8L348.95 19.3L369.95 29.8L369.95 77.3" />
<path style="fill:none;stroke-width:1;stroke-linecap:round;stroke-linejoin:round;stroke-miterlimit:3;stroke:#5E0000;stroke-opacity:1" d="M372.45,79.65L372.45 79.55L372.45 29.05L374.95 30.3L381.95 33.8L381.95 30.8L381.9 30.75L346.9 13.25L346.45 13.05L346.45 70.05L381.95 87.8L381.95 84.3L372.7 79.65L372.45 79.55M374.95,30.3L375.05 78.15L375.1 78.1L384.4 82.75L384.95 83.05M346.9,13.25L349.45 11.55L384.4 29L381.95 30.7L381.95 30.8L382.45 31.05M381.95,30.7L381.9 30.75M381.95,33.8L382.45 34.05M384.4,29L385.45 29.55M384.4,82.75L382.05 84.35L381.95 84.3M381.95,87.8L382.45 88.05M372.7,79.65L375.05 78.15" />
<path style="fill:#4C4C4C;fill-opacity:1" d="M366.05,31.5L366.3 31.85L366.4 32.05L366.4 32.4L365.8 32.55L362 31.35L361.1 30.6L360.75 29.75Q360.75 29.4 361.4 29.65L365 30.7L365.8 31.25L366.05 31.5M366.45,33.9L366.6 34.05L366.65 34.1L366.95 34.4L367.1 34.6Q367.6 35.2 367.6 35.7Q367.6 36.3 367 37.25L365.85 38.45L364 38.8L362.1 38.55L361.5 38.05Q361.5 37.8 362.2 37.75Q363.05 37.6 364.1 37Q365.1 36.3 365.4 35.35L365.4 35.05L363.4 34.35L360.95 33.95Q360.45 34 360.05 33.4L359.65 32.5Q359.65 32.2 360.15 32.15L362.55 32.8Q364.45 33.35 365.45 33.85L366 33.9L366.45 33.9M364.5,49.15L364.15 49.6L363.75 49.7Q363.45 49.8 363.2 49.5L363 48.75Q362.9 46.5 362.95 42.5L362.7 41.55L362.35 40.85Q362.3 40.55 362.65 40.5Q363.05 40.5 363.5 40.9L364.3 41.95L364.55 42.85L364.5 49.15M364.1,51.75L364.85 51.8L365.65 52.55L366.1 53.8L365.85 54.4L365.45 55.25L365.15 55.7L366.05 56.75L366.5 58Q366.6 58.85 366.3 58.95Q365.85 59 365.6 58.6L364.6 57.25L364.25 56.75L362.6 58Q361.15 58.75 360.15 58.55L359.65 58.45L359.5 58.15L359.5 58Q359.4 57.75 359.8 57.65L362.2 56L362.95 55.2L361.85 53.95L361.35 53.15Q361.45 52.75 361.8 52.85L362.15 52.9Q362.45 52.95 362.95 53.4L363.65 54.05L364.15 52.85L363.95 52.4Q363.8 51.95 363.95 51.85L364.1 51.75M361.85,60.9L362.75 61.8L363.1 62.25L363.4 62.85L363.25 63.45L363.05 63.7L362.8 63.75L362.3 63.35L361.75 63.05L361.05 62.8Q360.7 62.55 361 62.2L361.1 61.95L360.4 61.2L359.9 60.4L360.2 60Q360.6 60 361 60.25L361.85 60.9M359.95,66.35L359.75 66L359.55 65.45Q359.55 65.15 359.85 65Q360.25 64.9 360.75 65.25Q361.5 65.75 362.45 65.85L364.55 65.85L367.05 65.05L367.7 64.9L367.9 64.9L368.05 65.4L367.75 66.05L366.35 67.1L363.85 67.75L361.1 67.5Q360.55 67.3 360.4 67L360.15 66.7L359.95 66.35" />
<path style="fill:#5B5B5B;fill-opacity:1" d="M354.65,35.5L354.65 41.05L353.3 40.35L353.3 34.8L352 34.2L353.95 32.6L355.9 36.1L354.65 35.5M351.45,40.95Q352.8 41.25 355.2 42.35L355.6 42.35Q355.85 42.35 356.2 42.75L356.75 43.5L356.9 44.3L356.8 45.9L356.8 48Q356.8 48.6 356.1 48.75L355.25 48.3Q354.8 47.8 354.9 47.6L354.9 47.5L354.8 47.3L354.2 46.9L351.8 46.35Q351.5 46.35 351.25 46.15L350.95 45.7Q350.65 45.2 350.7 44.95Q350.75 44.8 351.1 44.8Q352.05 44.9 353.8 45.55L354.95 46.7L355.3 46.95L355.45 46.7L355.45 43.8L355.15 43.45Q354.05 42.9 352.05 42.5L351.55 42.25L351.15 41.6L351.05 41.1Q351.15 40.85 351.45 40.95M355.1,49.25L355.75 49.95L356.25 50.8L356.05 51.3Q355.7 52.2 354.8 53.05L353.1 54.25L351.65 54.4Q351.2 54.35 351.15 54.05Q351.1 53.8 351.55 53.7L353.1 52.4L354.25 50.85L354.55 50.35L354.6 50.1L354.4 49.85L354.2 49.45Q354.2 49.25 354.5 49.15L355.1 49.25M354.9,58.1L355 58.15L355.1 58.35L355.25 58.55L355.3 58.8L355.3 58.95L355.25 59.1L355.25 59.2L355.1 59.3L354.5 59.2L354.4 59.75L354.65 59.8L355.25 59.9L355.65 60.1L356.1 60.6L356.3 60.95L356.3 61.35L355.75 61.35L354.7 61L354.75 61.1L354.9 61.7L354.7 62.05L354.6 62.2L354.45 62.75L354.5 63.05L354.85 63.4L355.6 63.85L356.15 64.1L356.6 64.2L356.8 64.15L357.05 63.7L357.3 63.65L357.5 63.95L357.55 64.3L357.75 64.55L358 65Q358.15 65.35 357.9 65.65L357.4 65.9L356.55 65.75Q356.05 65.55 355.4 65.15Q354.8 64.9 354.55 64.65L353.9 63.95L353.5 63.25Q353.35 62.8 353.35 62.2Q353.35 61.6 353.55 61.35L353.65 60.9L353.65 60.85L353.2 61.3L351.9 61.95L351.4 62.05L350.85 62.25L350.2 62.15Q350.1 62 350.4 61.6L351.25 61L351.8 60.65L352 60.55L351.4 60.2L351.1 59.75L351 59.6L350.85 59.15Q350.85 58.9 351.1 58.95L352.1 59.1L353 59.35L353.1 58.9L353.15 58.85L352.9 58.65L352.75 58.45L352.6 58.2L352.55 58L352.45 58L352.2 58L351.8 58.05L351.3 58.1Q350.6 58.05 350.5 57.75L350.8 57.3L351.6 56.8L351.8 56.65Q351.9 56.45 352.15 56.55L352.65 57.15L352.8 57.4L353.25 57.55L353.3 56.95L353.4 56.4L353.6 56.4Q353.75 56.35 354.05 56.65L354.25 56.85L354.35 57.1Q354.75 57.55 354.65 57.8L354.6 57.9L354.7 57.9L354.9 58.1" />
</g>
</svg>
