<?xml version="1.0" encoding="utf-8"?>
<svg version="1.1" id="Layer_1"
xmlns="http://www.w3.org/2000/svg"
xmlns:xlink="http://www.w3.org/1999/xlink"
xmlns:author="http://www.sothink.com"
width="19px" height="70px"
xml:space="preserve">
<g id="181" transform="matrix(1, 0, 0, 1, -26.4, 65.2)">
<path style="fill:#314840;fill-opacity:1" d="M28.65,3.95L26.65 2.95L26.7 -56.95L26.75 -57L42.65 -64.95L44.65 -64.05L28.65 -56.05L28.65 3.95" />
<path style="fill:#38544A;fill-opacity:1" d="M31.15,-54.55L31.15 -0.55L31.15 -0.05L42.15 -5.55L42.15 -60.05L41.75 -59.85L31.15 -54.55M28.65,-56.05L44.65 -64.05L44.65 -4.05L28.65 3.95L28.65 -56.05" />
<path style="fill:#4B7264;fill-opacity:1" d="M41.65,-5.8L41.7 -41.1L41.75 -41.1L41.75 -42.2L41.75 -42.6L41.75 -47.1L41.75 -59.85L42.15 -60.05L42.15 -5.55L31.15 -0.05L31.15 -0.55L41.65 -5.8" />
<path style="fill:#486F61;fill-opacity:1" d="M31.15,-0.55L31.15 -54.55L41.75 -59.85L41.75 -47.1L41.75 -42.6L41.75 -42.2L41.75 -41.1L41.7 -41.1L41.65 -5.8L31.15 -0.55" />
<path style="fill:none;stroke-width:0.5;stroke-linecap:round;stroke-linejoin:round;stroke-miterlimit:3;stroke:#333333;stroke-opacity:1" d="M41.75,-59.85L42.15 -60.05L42.15 -5.55L31.15 -0.05L31.15 -0.55L31.15 -54.55L41.75 -59.85M44.65,-64.05L42.65 -64.95L26.75 -57L28.65 -56.05L44.65 -64.05L44.65 -4.05L28.65 3.95L26.65 2.95L26.7 -56.95L26.7 -57.05L26.75 -57L26.7 -56.95M28.65,3.95L28.65 -56.05" />
<path style="fill:none;stroke-width:0.5;stroke-linecap:round;stroke-linejoin:round;stroke-miterlimit:3;stroke:#314840;stroke-opacity:1" d="M41.75,-59.85L41.75 -47.1L41.75 -42.6L41.75 -42.2L41.75 -41.1M41.7,-41.1L41.65 -5.8L31.15 -0.55" />
<path style="fill:#23342E;fill-opacity:1" d="M40.75,-54.2L39.6 -54.95L40.1 -55.65L41.25 -54.95L40.75 -54.2M40.85,-50.65L37.25 -48.4L37.95 -45.65L37.1 -45L36.35 -47.9L32.4 -45.4L32.25 -46.2L36.2 -48.55L35.8 -50.2L33.15 -48.55L32.95 -49.3L35.55 -50.85L35.15 -52.5L36 -53Q36.35 -53.2 36.1 -52.8L36.4 -51.4L39.25 -53.25L39.4 -52.45L36.65 -50.7L37.05 -49.1L40.7 -51.35L40.85 -50.65M38.9,-54.7L40 -54L39.5 -53.35L38.5 -54.05L38.9 -54.7M39.55,-40.85L39.55 -35.25L38.65 -34.8L38.65 -35.25L33.25 -32.55L33.25 -33.4L38.65 -36.1L38.65 -39.55L33.25 -36.85L33.25 -37.7L39.55 -40.85M33.55,-27.5L34.3 -28.3L35.1 -27.55L34.25 -26.75L33.55 -27.5M39.6,-30.5L38.95 -29.05L40.85 -30L40.85 -27.85L40.1 -27.45L40.1 -28.85L33.2 -25.45L33.2 -23.95L32.45 -23.55L32.45 -25.8L38.1 -28.6L38.9 -30.75L39.75 -30.8L39.6 -30.5M36.55,-29.55L37.35 -28.7L36.55 -27.9L35.85 -28.75L36.55 -29.55M36.95,-25.2L38.1 -26.4L33.95 -24.35L33.95 -25L38.75 -27.4L38.9 -27.55L39.55 -27.3L39.35 -27.05L37.1 -24.65L37.1 -24.3L41.15 -26.35L41.15 -25.6L37.1 -23.55L37.1 -21.55Q37.1 -20.9 36.45 -20.6L35.4 -20.05L35.25 -20.9L36.15 -21.35L36.3 -21.55L36.3 -23.15L32.25 -21.15L32.25 -21.9L36.3 -23.9L36.3 -24.9L36.95 -25.2M33.65,-13.4L36.2 -14.7L36.2 -15.15L34.15 -14.1L34.15 -14.75L36.2 -15.8L36.2 -16.25L36.95 -16.6Q37.3 -16.7 37 -16.4L37 -16.2L39.1 -17.25L39.1 -16.6L37 -15.55L37 -15.1L39.6 -16.4L39.6 -15.75L33.65 -12.75L33.65 -13.4M38.85,-13.45L39.3 -13.45Q39.55 -13.35 39.1 -13.15L38.3 -12.2L39.6 -12.3L39.1 -11.4L37 -11.55L37 -10.3L36.2 -9.9L36.2 -11.35Q35.35 -10.1 34 -8.95L33.7 -9.55Q35.1 -10.55 36.1 -12L34.4 -11.1L34.4 -12.7L38.85 -14.95L38.85 -13.45M38.05,-14.1L35.15 -12.65L35.15 -11.95L38.05 -13.4L38.05 -14.1M37,-12.45L37 -12.1L37.7 -12.2L38.35 -13.1L37 -12.45M33.25,-14.95L33.25 -8.1L40 -11.5L40 -18.35L33.25 -14.95M40,-10.75L33.25 -7.35L33.25 -7L32.45 -6.6L32.45 -15.3L40.8 -19.45L40.8 -10.9L40 -10.55L40 -10.75" />
</g>
</svg>
