<?xml version="1.0" encoding="utf-8"?>
<svg version="1.1" id="Layer_1"
xmlns="http://www.w3.org/2000/svg"
xmlns:xlink="http://www.w3.org/1999/xlink"
xmlns:author="http://www.sothink.com"
width="39px" height="26px"
xml:space="preserve">
<g id="854" transform="matrix(1, 0, 0, 1, -6, -10.15)">
<linearGradient
id="LinearGradID_3050" gradientUnits="userSpaceOnUse" gradientTransform="matrix(0, 0.0375977, -0.0375671, 0, 25.15, 41.55)" spreadMethod ="pad" x1="-819.2" y1="0" x2="819.2" y2="0" >
<stop  offset="0" style="stop-color:#999999;stop-opacity:1" />
<stop  offset="1" style="stop-color:#333333;stop-opacity:1" />
</linearGradient>
<path style="fill:url(#LinearGradID_3050) " d="M41,33.2L41.05 33.2L38.9 35.75L10.8 35.75L8.9 33.2L9.1 33.2Q6.45 30.1 6.6 26.1Q6.45 20.8 11.95 16.3Q17.45 11.25 25.1 10.75Q32.7 11.25 38.15 16.3Q43.6 20.8 43.6 26.1Q43.6 30.1 41 33.2" />
<path style="fill:none;stroke-width:1.2;stroke-linecap:round;stroke-linejoin:round;stroke-miterlimit:3;stroke:#000000;stroke-opacity:1" d="M9.1,33.2Q6.45 30.1 6.6 26.1Q6.45 20.8 11.95 16.3Q17.45 11.25 25.1 10.75Q32.7 11.25 38.15 16.3Q43.6 20.8 43.6 26.1Q43.6 30.1 41 33.2" />
<path style="fill:#000000;fill-opacity:1" d="M32.9,31.75Q32.3 32.55 31.3 32.55Q29.95 32.55 29.4 31.15Q28.8 32.55 27.5 32.55Q26.45 32.55 25.85 31.7Q25.2 30.85 25.2 29.35Q25.2 27.8 26.15 26.2L27.15 26.2Q26.3 28.1 26.3 29.45Q26.3 30.45 26.65 31.1Q27.05 31.7 27.6 31.7L28.3 31.4L28.75 30.7L28.85 29.55L28.85 27.75L29.9 27.75L29.9 29.55L30 30.7L30.45 31.45L31.15 31.7Q31.75 31.7 32.1 31.1Q32.5 30.45 32.5 29.45Q32.5 28.1 31.6 26.2L32.65 26.2Q33.55 27.8 33.55 29.35Q33.55 30.9 32.9 31.75" />
</g>
</svg>
