<?xml version="1.0" encoding="utf-8"?>
<svg version="1.1" id="Layer_1"
xmlns="http://www.w3.org/2000/svg"
xmlns:xlink="http://www.w3.org/1999/xlink"
xmlns:author="http://www.sothink.com"
width="47px" height="35px"
xml:space="preserve">
<g id="540" transform="matrix(1, 0, 0, 1, 21.25, 23.75)">
<path style="fill:#656565;fill-opacity:0.721569" d="M-9.15,-5.45L0.7 -0.55Q2.65 0.5 4.3 0.5L4.3 4.3L4.3 4.55L4.3 9.1L4.85 9.4L3.45 10.4Q2.5 10.95 1.35 11L-0.15 10.85L-21.25 0.8Q-21.15 -0.6 -20.4 -1.25L-17.1 -2.45L-17.45 -0.65Q-16.5 0.45 -15.35 -0.65L-14.7 -3.35L-9.15 -5.45M6.2,0.1L7.55 -0.8L14.95 -6.6L22.4 -4.15L22.65 -2.9L6.2 8.5L6.2 0.1" />
<linearGradient
id="LinearGradID_2037" gradientUnits="userSpaceOnUse" gradientTransform="matrix(-0.0022583, 0.00395203, 0.0109558, 0.00628662, 2.45, -14.8)" spreadMethod ="pad" x1="-819.2" y1="0" x2="819.2" y2="0" >
<stop  offset="0.247059" style="stop-color:#472E23;stop-opacity:1" />
<stop  offset="1" style="stop-color:#993300;stop-opacity:1" />
</linearGradient>
<path style="fill:url(#LinearGradID_2037) " d="M5.75,-5.9L-10.1 -13.75L-1.35 -17.85L2.4 -19.75Q5.15 -21.05 8.7 -19.3L11.15 -17.85Q15.6 -14.4 11.45 -10.35L5.75 -5.9" />
<path style="fill:#993300;fill-opacity:1" d="M11.45,-10.35Q15.6 -14.4 11.15 -17.85L8.7 -19.3Q5.15 -21.05 2.4 -19.75L-1.35 -17.85L-10.1 -13.75L5.75 -5.9L11.45 -10.35M-15.6,-14.75L5.3 -23.25L22.25 -14.6L22.3 -14.6L7.6 -3.4L6.95 -3.05L0.65 -3.2L-15.6 -10.8Q-16.5 -11.75 -16.35 -12.95L-15.6 -14.75" />
<path style="fill:#631E01;fill-opacity:1" d="M22.3,-12.65L21 -11.35L14.95 -6.6L7.55 -0.8L6.2 0.1L4.3 0.5Q2.65 0.5 0.7 -0.55L-9.15 -5.45L-13.7 -7.7L-15.95 -8.85Q-16.85 -9.55 -16.8 -10.85L-16.35 -12.95Q-16.5 -11.75 -15.6 -10.8L0.65 -3.2L6.95 -3.05L7.6 -3.4L22.3 -14.6L22.3 -12.65" />
<path style="fill:#200A00;fill-opacity:1" d="M-14.7,-3.35L-15.35 -0.65Q-16.5 0.45 -17.45 -0.65L-17.1 -2.45L-16.05 -8.55L-15.95 -8.85L-13.7 -7.7L-13.75 -7.4L-14.7 -3.35M6.2,8.5L6.2 9.1Q5.55 9.65 4.85 9.4L4.3 9.1L4.3 4.55L4.3 4.3L4.3 0.5L6.2 0.1L6.2 8.5M24.45,-3.7Q24.05 -2.75 22.65 -2.75L22.65 -2.9L22.4 -4.15L21 -11.35L22.3 -12.65L24.45 -3.7" />
<path style="fill:none;stroke-width:1;stroke-linecap:round;stroke-linejoin:round;stroke-miterlimit:3;stroke:#000000;stroke-opacity:1" d="M22.3,-14.6L7.6 -3.4L6.95 -3.05L0.65 -3.2L-15.6 -10.8Q-16.5 -11.75 -16.35 -12.95L-16.8 -10.85Q-16.85 -9.55 -15.95 -8.85L-13.7 -7.7L-9.15 -5.45L0.7 -0.55Q2.65 0.5 4.3 0.5L6.2 0.1L7.55 -0.8L14.95 -6.6L21 -11.35L22.3 -12.65M22.3,-14.6L22.25 -14.6L5.3 -23.25L-15.6 -14.75L-16.35 -12.95M24.45,-3.7Q24.05 -2.75 22.65 -2.75L22.65 -2.9L22.4 -4.15M6.2,0.1L6.2 8.5L6.2 9.1Q5.55 9.65 4.85 9.4L4.3 9.1L4.3 4.55M-17.1,-2.45L-16.05 -8.55M21,-11.35L22.4 -4.15M4.3,4.3L4.3 0.5M-17.1,-2.45L-17.45 -0.65Q-16.5 0.45 -15.35 -0.65L-14.7 -3.35L-13.75 -7.4" />
<path style="fill:none;stroke-width:1;stroke-linecap:round;stroke-linejoin:round;stroke-miterlimit:3;stroke:#000000;stroke-opacity:1" d="M22.3,-12.65L22.3 -14.6M22.3,-12.65L24.45 -3.7" />
</g>
</svg>
