<?xml version="1.0" encoding="utf-8"?>
<svg version="1.1" id="Layer_1"
xmlns="http://www.w3.org/2000/svg"
xmlns:xlink="http://www.w3.org/1999/xlink"
xmlns:author="http://www.sothink.com"
width="27px" height="35px"
xml:space="preserve">
<g id="739" transform="matrix(1, 0, 0, 1, 2.1, 45)">
<path style="fill:#FFFFFF;fill-opacity:0.101961" d="M24.25,-27.65Q24.25 -26.9 23.7 -26.35Q23.1 -25.75 22.1 -25.75Q20.75 -25.75 19.85 -27Q19.25 -27.95 19.25 -28.45L22.5 -28.25L24.25 -28.15L24.25 -27.65M0.25,-43.75Q0.25 -40.95 4.9 -36.3L4.5 -35.95Q3.7 -35.25 2.4 -35.25Q-0.15 -35.25 -1.1 -37.85Q-1.55 -39.15 -1.5 -40.55Q-1.5 -43.25 0.35 -45L0.25 -43.75M6.15,-35.1Q8.2 -33.15 10.45 -31.75Q10.15 -30 8.5 -30Q7.5 -30 6.8 -30.4L5.25 -30Q3.55 -30 3 -31.1Q2.7 -31.65 2.75 -32.25Q2.75 -34.05 4.8 -34.75Q4.9 -35.55 5.25 -35.95L6.15 -35.1M14,-27.25Q12.4 -27.25 11.7 -28.25Q11.25 -28.85 11.25 -29.45Q11.25 -30.4 11.7 -31Q13.75 -29.85 16 -29.2L15.7 -28.25Q15.15 -27.25 14 -27.25" />
<path style="fill:#FFFFFF;fill-opacity:0.101961" d="M21.7,-30.95L21.75 -30.45L20 -30.1L16.85 -29.4Q16.75 -29.9 17.25 -30.9Q17.95 -32.3 19.25 -32.5Q20.25 -32.6 20.95 -32.1Q21.55 -31.65 21.7 -30.95M9.35,-28.55Q9.85 -29.6 11.45 -29.8Q12.6 -30 13.3 -29.1L13.75 -28.2Q11.6 -27.25 9.75 -25.8Q9.2 -26.3 9.1 -27.25Q9 -27.85 9.35 -28.55M8.6,-24.85Q6.55 -23.2 4.85 -20.95L4.05 -19.95Q3.65 -20.3 3.45 -21.1Q1.35 -21.5 1.1 -23.3Q0.95 -23.85 1.15 -24.45Q1.5 -25.6 3.2 -25.85L4.8 -25.65Q5.45 -26.15 6.4 -26.3Q8.05 -26.55 8.6 -24.85M0.25,-11.55L0.55 -10.3Q-1.55 -11.8 -1.95 -14.45Q-2.2 -15.8 -1.95 -17.2Q-1.4 -19.85 1.15 -20.25Q2.4 -20.45 3.3 -19.85L3.8 -19.55Q-0.15 -14.3 0.25 -11.55" />
</g>
</svg>
