<?xml version="1.0" encoding="utf-8"?>
<svg version="1.1" id="Layer_1"
xmlns="http://www.w3.org/2000/svg"
xmlns:xlink="http://www.w3.org/1999/xlink"
xmlns:author="http://www.sothink.com"
width="360px" height="115px"
xml:space="preserve">
<g id="446" transform="matrix(1, 0, 0, 1, 369.6, -5.9)">
<path style="fill:none;stroke-width:1;stroke-linecap:round;stroke-linejoin:round;stroke-miterlimit:3;stroke:#000000;stroke-opacity:1" d="M-50.1,60.05L-89.4 79.7L-89.85 79.95L-49.95 100L-10.1 80.05L-50.1 60.05L-90.1 40.05L-129.9 59.95Q-109.9 70 -89.95 80L-89.85 79.95L-89.9 79.95L-89.4 79.7M-130.1,60.05L-169.9 79.95L-129.95 100L-129.85 99.95L-129.9 99.95L-129.4 99.7L-90.1 80.05L-130.1 60.05M-129.85,99.95L-129.4 99.7M-129.85,99.95L-89.95 120L-50.1 100.05L-90.1 80.05" />
<path style="fill:#000000;fill-opacity:1" d="M-271.05,21.2L-271.1 21.25L-276.7 23L-275.1 24.7L-311.45 56.05L-316.1 55.2L-367.8 35.35L-369.6 34.15L-337.85 6.75L-322.7 12.5L-302.15 5.9L-279.3 14.25L-282.45 18L-273.55 16.35L-279.2 20L-271.05 21.2" />
<path style="fill:#FFFFFF;fill-opacity:1" d="M-302.55,13.25Q-302.15 13.6 -302.8 13.75L-303.2 14.1L-300.1 15.55L-301 16.4L-304.1 14.95L-304.65 15.45L-303.25 16.1L-306.45 18.9L-310.6 17L-311.25 17.15L-305 20L-305.9 20.8L-308.5 19.6Q-308.4 20.55 -306.8 22L-308.15 22.75Q-309.4 21.8 -309.8 20.4L-310.6 21.1L-312.55 20.2L-313.15 20.75L-309 22.65L-309.95 23.45L-319.4 19.1L-318.45 18.3L-314.25 20.25L-313.65 19.7L-315.65 18.75L-314.95 18.15L-319 18.15L-318.45 16.95L-314.05 17.1L-316.65 15.9L-315.75 15.1L-312.5 16.55L-311.85 16.4L-313.8 15.55L-310.6 12.75L-309.2 13.4L-308.65 12.9L-311.75 11.45L-310.85 10.6L-307.75 12.05L-306.9 11.3L-306 11.7Q-305.6 12.05 -306.25 12.15L-306.65 12.5L-304.3 13.6L-303.45 12.85L-302.55 13.25M-321.45,23.65L-318 21.55L-317.1 22.35Q-316.8 22.95 -317.7 22.9L-320 24.2L-318.85 24.65Q-318.1 24.95 -318.05 25.45Q-318 26.25 -319.85 27.9Q-322.45 30.2 -324.05 30.5L-325.75 30.35Q-326.75 29.9 -326.7 28.45L-325 28Q-324.85 29 -324.5 29.15L-324.05 29.2Q-323.1 29.05 -320.95 27.15Q-319.8 26.1 -319.8 25.75L-320.2 25.45L-321.45 25.05Q-325.6 27.4 -329.4 28.8L-330.3 27.85Q-326.85 26.65 -322.8 24.5L-325.1 23.75L-324 22.65L-321.45 23.65M-307.55,13.35L-308.1 13.85L-305.75 14.95L-305.2 14.45L-307.55 13.35M-306.35,17.35L-311.55 15L-312 15.4L-306.8 17.75L-306.35 17.35M-305.1,16.25L-310.3 13.9L-310.8 14.3L-305.6 16.65L-305.1 16.25M-316.6,25.45L-314.95 25.3Q-314.7 27.95 -316.65 30.65L-318.4 30.45Q-316.4 27.5 -316.6 25.45M-331.65,33.9L-334.65 36.1Q-331.8 35.65 -329.6 36.7Q-328.2 37.3 -328.1 38.3Q-328.05 39.15 -329.05 40Q-330.1 40.95 -331.7 41.25Q-333.6 41.55 -336.4 40.3L-337.35 39.85L-336.55 38.6L-335.3 39.2Q-332.9 40.3 -331.8 40.1Q-330.85 39.95 -330.3 39.4Q-329.8 39 -329.85 38.45Q-329.9 37.9 -330.85 37.45Q-332.95 36.5 -336.55 37.4L-337.6 36.8L-332.2 32.7L-331.2 33.35Q-330.9 33.9 -331.65 33.9M-327.6,34.4Q-328.8 32.95 -330.25 31.6L-328.8 31Q-327.65 31.9 -326 33.7L-327.6 34.4" />
<path style="fill:#FFFF00;fill-opacity:1" d="M-298.6,23.5L-290.55 16.3L-286.35 18.2L-284.8 16.85L-283.6 17.4Q-283.15 17.75 -283.9 17.9L-284.95 18.8L-280.6 20.8L-287.55 27.05Q-288.55 27.9 -289.6 27.45L-290.85 26.85L-289.9 25.7L-288.8 26.2L-288.65 26.2L-286.6 24.4L-288.5 25L-288.7 21.4Q-291.05 22.75 -294.55 22.85L-294.3 21.55Q-290.15 21.5 -287.45 19.1L-290.2 17.85L-297.2 24.1L-298.6 23.5M-305.15,30.85L-304.2 31.3L-303.4 30.6L-304.35 30.15L-305.15 30.85M-310.3,36.35Q-312.3 37.45 -315.9 40.7L-318.4 43.25L-319.95 42.85L-317.25 40.1Q-313.7 36.95 -310.85 35.2L-309.85 35.95Q-309.65 36.35 -310.3 36.35M-310.15,32.65Q-308.15 32.05 -306.7 30.8L-302.65 27.15L-299.5 28.6L-303.75 32.4L-301.15 32.05L-302.5 31.45L-301.55 30.65L-299.8 31.45L-299 31.1L-300.75 30.3L-299.8 29.5L-298.95 29.85L-298.9 28.85L-297.6 28.9Q-297.5 29.55 -297.7 30.2L-298.4 30.1L-297.75 30.4L-296.3 29.5L-295.3 30.1Q-295.35 30.55 -295.8 30.45L-296.65 30.95L-296.15 31.15L-294.05 30.5L-293.3 31.15Q-293.4 31.6 -293.85 31.45L-295 31.7L-293.7 32.3L-294.65 33.1L-296.4 32.3L-296.55 32.95L-294.55 33.85L-295.5 34.65L-296.9 34L-296.2 35.9L-297.7 36.35L-298.1 35.3L-299.45 35.65Q-298.75 36.65 -298.7 37.2L-300.05 37.8L-300.95 35.45L-301.95 36.35Q-302.7 37 -303.45 36.7L-304.2 36.35L-303.55 35.45L-302.95 35.7L-302.8 35.65L-302.3 35.15L-305.1 35.25Q-305.55 35.5 -305.65 35.15L-305.1 34.1L-301.45 34.4L-299.75 32.9L-298.85 33.35Q-298.45 33.65 -299.1 33.8L-300.1 34.7L-299.9 34.9L-298.2 34.3L-298.1 33.45L-299.95 32.6L-301.5 33.1L-301 33.05Q-300.9 33.55 -301.4 34.3L-302.8 34.25L-302.3 33.25L-304.55 33.4L-304.3 32.9L-306.15 34.5Q-306.85 35.15 -307.55 34.8L-308.5 34.4L-307.8 33.5L-307.1 33.8L-306.95 33.8L-305.1 32.15L-306.05 31.7Q-308.05 33.25 -310.1 33.6L-310.15 32.65M-314.65,43.75L-314 44.45L-312.75 44.65L-311.7 43.95L-312.7 43.3L-313.8 43.1L-314.35 43.3L-314.65 43.75M-314.1,42.05Q-312.85 41.85 -311.65 42.4L-310.65 43L-307.85 40.55L-311.7 39.05L-310.55 38.05L-306.9 39.5L-304.9 37.45L-303.75 38Q-303.25 38.45 -304.05 38.55L-305.6 40.05L-302.8 41.15L-303.95 42.15L-306.55 41.1L-309.7 43.9Q-308.75 44.95 -308.25 46.4L-309.9 46.95Q-310.3 45.8 -310.85 44.9Q-311.55 45.55 -312.65 45.75Q-313.85 45.95 -315 45.4Q-316.2 44.85 -316.25 44.1Q-316.25 43.45 -315.5 42.75Q-314.85 42.2 -314.1 42.05M-293.4,28.75L-290.35 30.15L-291.4 31.05L-294.45 29.65L-294.9 30.05L-296.15 29.5L-295.7 29.1L-297.9 28.1L-298.7 28.8Q-299.3 28.55 -299.95 28.25L-299.15 27.55L-302.2 26.15L-301.15 25.25L-298.1 26.65L-297.25 25.85L-296.2 26.3Q-295.8 26.65 -296.45 26.8L-296.85 27.2L-294.65 28.2L-293.8 27.4L-292.75 27.9Q-292.35 28.25 -293 28.35L-293.4 28.75M-301.5,28.9L-302.45 28.45L-303.4 29.3L-302.45 29.75L-301.5 28.9M-297.5,31.75L-297.85 31.6L-298.65 32L-297.7 32.4L-297.5 31.75" />
<path style="fill:#FFFF00;fill-opacity:1" d="M-323.75,12.8L-324.85 13.75L-322.55 14.8L-323.6 15.75L-325.8 14.75Q-326.2 16.25 -325.6 17.85L-327.15 18.6Q-327.75 17.15 -327.15 15.8L-330.5 18.8L-331.55 18.3L-328.3 15.4Q-329.85 16.2 -332 16.3L-331.6 15.25Q-328.95 15.05 -327 14.2L-329.2 13.2L-328.15 12.25L-325.9 13.25L-324.95 12.4L-327.15 11.65L-326.3 10.65Q-323.3 11.9 -321.2 12.2L-321.55 13.2L-322.3 13.25L-323.75 12.8M-332.6,11.4L-331.9 11.75L-331.25 11.2L-331.95 10.85L-332.6 11.4M-330.3,11.6L-330.95 12.15L-330.25 12.5L-329.6 11.95L-330.3 11.6M-330.15,10.7L-328.95 10.35L-330.1 9.85L-331.3 10.2L-330.15 10.7M-331.1,9.25L-327.2 10.7L-329.05 11.2L-327.95 11.75L-331.5 14.95L-335.75 13L-333.1 10.6L-334.45 10.8L-334.1 9.9L-331.1 9.25M-334.4,13.9Q-334.7 14.75 -336.1 15.9L-337.35 15.5L-335.45 13.65L-334.4 13.9M-335.55,13.65L-338.3 15.1L-338.95 14.3L-336.3 12.95L-335.55 13.65M-335.7,16.1Q-334.65 15.1 -334.25 14.15L-333.1 14.4Q-333.35 15.45 -334.35 16.4L-335.7 16.1M-340.05,22.6Q-336.85 23.95 -335.1 23.65Q-334.15 23.5 -333.3 22.75Q-332.6 22.1 -332.65 21.3Q-332.7 20.85 -333.6 20.4Q-334.5 20 -336 19.75L-339.8 19.3L-339.2 18.05L-335.5 18.7Q-333.7 19 -332.4 19.55Q-331.1 20.2 -331.05 21.2Q-330.9 22.25 -332.05 23.3Q-333.4 24.5 -334.9 24.75Q-337.4 25.25 -340.8 23.8L-340.05 22.6M-332.4,13.45L-331.7 13.8L-331 13.15L-331.7 12.8L-332.4 13.45M-331.9,14.9Q-331.75 15.7 -332.65 16.9L-334 16.75Q-333.35 15.85 -333.05 14.75L-331.9 14.9M-333.35,13.05L-332.65 12.4L-333.35 12.05L-334.05 12.7L-333.35 13.05M-347.35,29.25Q-344.35 29.55 -341.8 30.75L-342.75 31.85Q-345.7 30.6 -348.1 30.35L-347.35 29.25M-346.45,26.7L-344.1 27.25L-345 28.3L-347.7 27.55Q-352.25 30.65 -355.7 32.2L-356.65 31.35Q-352.45 29.4 -349.1 27.1L-351.25 26.2L-350.35 25.15L-347.8 26.15L-345.15 24.2L-344.15 24.9Q-343.8 25.35 -344.55 25.45L-346.45 26.7M-350.65,32Q-349.95 33.15 -348.15 33.95L-345.9 35L-347.05 36.05L-349.3 35Q-351.2 34.15 -352.1 32.6L-350.65 32" />
</g>
</svg>
