<?xml version="1.0" encoding="utf-8"?>
<svg version="1.1" id="Layer_1"
xmlns="http://www.w3.org/2000/svg"
xmlns:xlink="http://www.w3.org/1999/xlink"
xmlns:author="http://www.sothink.com"
width="67px" height="129px"
xml:space="preserve">
<g id="949" transform="matrix(1, 0, 0, 1, 73.3, 126.65)">
<linearGradient
id="LinearGradID_3090" gradientUnits="userSpaceOnUse" gradientTransform="matrix(0.0634766, 0, 0, 0.0738525, -32.6, -64)" spreadMethod ="pad" x1="-819.2" y1="0" x2="819.2" y2="0" >
<stop  offset="0" style="stop-color:#FF0000;stop-opacity:0.2" />
<stop  offset="0.164706" style="stop-color:#FFFF00;stop-opacity:0.2" />
<stop  offset="0.364706" style="stop-color:#00FF00;stop-opacity:0.2" />
<stop  offset="0.498039" style="stop-color:#00FFFF;stop-opacity:0.2" />
<stop  offset="0.666667" style="stop-color:#0000FF;stop-opacity:0.2" />
<stop  offset="0.831373" style="stop-color:#FF00FF;stop-opacity:0.2" />
<stop  offset="1" style="stop-color:#FF0000;stop-opacity:0.2" />
</linearGradient>
<path style="fill:url(#LinearGradID_3090) " d="M-73,-118.6Q-71.6 -116.35 -63.6 -114.65Q-53.9 -112.6 -40.2 -112.6Q-26.5 -112.6 -16.8 -114.65Q-8.1 -116.5 -7.2 -119L-7.05 -119L-7.05 -1.55Q-19.9 2 -36 2Q-57.4 2 -73 -4.25L-73 -118.6" />
<linearGradient
id="LinearGradID_3091" gradientUnits="userSpaceOnUse" gradientTransform="matrix(0.0404053, 0, 0, 0.00857544, -24.2, -120.85)" spreadMethod ="pad" x1="-819.2" y1="0" x2="819.2" y2="0" >
<stop  offset="0" style="stop-color:#FF0000;stop-opacity:0.2" />
<stop  offset="0.164706" style="stop-color:#FFFF00;stop-opacity:0.2" />
<stop  offset="0.364706" style="stop-color:#00FF00;stop-opacity:0.2" />
<stop  offset="0.498039" style="stop-color:#00FFFF;stop-opacity:0.2" />
<stop  offset="0.666667" style="stop-color:#0000FF;stop-opacity:0.2" />
<stop  offset="0.831373" style="stop-color:#FF00FF;stop-opacity:0.2" />
<stop  offset="1" style="stop-color:#FF0000;stop-opacity:0.2" />
</linearGradient>
<path style="fill:url(#LinearGradID_3091) " d="M-16.8,-114.65Q-26.5 -112.6 -40.2 -112.6Q-53.9 -112.6 -63.6 -114.65Q-71.6 -116.35 -73 -118.6L-73.3 -119.6Q-73.3 -122.55 -63.6 -124.6Q-53.9 -126.65 -40.2 -126.65Q-26.5 -126.65 -16.8 -124.6Q-7.1 -122.55 -7.1 -119.6L-7.2 -119Q-8.1 -116.5 -16.8 -114.65" />
</g>
</svg>
