<?xml version="1.0" encoding="utf-8"?>
<svg version="1.1" id="Layer_1"
xmlns="http://www.w3.org/2000/svg"
xmlns:xlink="http://www.w3.org/1999/xlink"
xmlns:author="http://www.sothink.com"
width="51px" height="53px"
xml:space="preserve">
<g id="1047" transform="matrix(1, 0, 0, 1, -236.75, -251.45)">
<path style="fill:#FB4D4D;fill-opacity:1" d="M281.7,260.2L281.65 260.05L281.65 259.65Q282.05 258.95 281.9 258.55L281.7 258.6Q281.2 259.05 281.05 259.7L281.25 260.55L282.1 261.2L282.3 261.15L282.4 260.85L281.9 260.4L281.7 260.2M237.4,281.85L238.4 280.5L237.9 280.8L237.8 280.8L238.6 280.3Q242.15 276.15 247 273.95Q252.9 271.3 260 274.75Q259.65 273.55 260 270.9Q260.3 268.25 262.2 262.85Q259.4 263.1 258.65 260.05Q256.8 252.85 265.65 258.05L268 255.8Q269.25 254.8 270.55 254.1L271 254.35L270.8 254L272.1 253.35L275.2 252.3Q278.1 251.35 280 252.95Q281.85 254.65 282.1 257.8L282.05 257.85L282.15 257.85L282.35 259L282.55 261.05L282.5 263L282.15 265.1Q284.15 267.25 286.35 270.5Q285 271.7 283.75 272.25Q283.2 270.75 283 269.2L282.9 269.25Q282.5 270.65 283.3 272.05L283.55 272.3Q281.4 273.15 279.55 272L277.45 274.9Q275.8 277.45 270.45 279.35L271.2 280.9L271 281.05L271.25 280.95Q273.75 286.85 271.6 290.6L267.8 297.4Q266.5 299.9 263.65 301.7L261.35 302.95L259.55 303.6Q258.75 302 258.95 300.65Q260.05 294.8 263.7 288.4L260.1 291.65L250.95 297.6L248.5 298.8Q244.35 300.75 240.15 301.1Q242.25 299.95 243.3 298.3L243.35 298.25L243.35 298.2L243.25 298.15L243.4 298Q245.95 291.95 249.9 286.7Q251.5 284.65 253.45 282.85Q247.05 285.2 241.2 283.45L238.6 282.6L237.4 282.15L237.5 281.85L237.4 281.85M270.75,255.65L270.8 255.6L270.9 255.6L270.95 255.2L271.75 254.45L271.7 254.4L271.8 254.25Q271.75 254.15 271.7 254.2L271.25 254.6L271.35 254.45L271.4 254.4L271.55 254.05L271.5 254Q271.2 254.1 271.25 254.35L270.9 255.05L270.35 255.05L270.3 255.05L270.2 255.05L269.5 255L269.45 255.15Q269.4 255.4 269.7 255.55L270.15 255.55L270.7 255.7L270.75 255.65M271.5,265.6L270.55 264.35L270.5 264.35Q270.3 265.05 271.2 265.65L271.3 265.6L271.4 265.65L271.5 265.65L271.5 265.6M268.8,262.85L267.5 261.75L267.2 261.15L267.15 261.1L267.15 261.2Q266.95 261.15 267.05 261.4Q267.6 262.9 268.95 263L268.8 262.85M263.25,262.7L263.2 262.65Q263.15 263.45 263.45 263.6L263.4 263.45L263.25 262.7M265.6,265.8Q265.85 266.8 266.95 267.05L266.95 267L265.65 265.8L265.6 265.8M265.55,270.85L265.4 270.85Q265.55 271.5 266.25 271.95L266.45 271.95L266.6 271.9L266.65 271.85Q266.35 271.15 265.75 270.8L265.55 270.85M263.4,271.65L262.8 270.85L262.7 270.8L262.5 270.75L262.5 270.8L262.7 271.25L262.95 271.5L263.35 271.65L263.4 271.65M269.85,272.1Q270.35 273.05 271.45 273.1L271.55 273L271.55 272.9L271.5 272.8L271.4 272.65L270.25 272L270 272L269.95 272L269.9 272.1L269.85 272.1M268.75,269.4L268.65 269.55Q268.55 269.7 269.05 269.7L269 269.6L268.75 269.4M274,265.7Q273.95 266.3 274.85 266.55Q276.35 266.95 276.55 266L274 265.7M273.75,269.95L271.9 269.35Q272.35 270.3 273.5 270.35L273.6 270.3L273.75 269.95M276.1,270.8Q277.25 271.15 277.8 270.4L276.05 270.75L276.1 270.8M277.9,267.8Q279.15 268.35 279.15 267.5L277.35 267.05Q277.3 267.55 277.9 267.8M283.25,268.1Q283.25 269.8 284.6 271.15L283.3 268.15L283.25 268.1M279.7,270.05Q279.35 270.65 279.4 271.2L279.55 271.1L279.9 270.45L279.9 270.3L279.8 270Q279.8 269.95 279.7 270.05M282,270.4L281.95 270.4Q281.85 270.9 282 271.15L282.05 271.1L282 270.4M262.7,258.05L260.15 257.85Q261.35 258.7 262.85 258.5L262.9 258.45L262.7 258.05M259.15,259.65Q260.4 260.7 261.75 260.6L261.6 260.45L260.75 259.9L260.6 259.85L258.7 258.95L258.95 259.35L259.15 259.65M259.95,258.8Q260.55 259.75 261.7 260.15L261.75 260.1L262.05 260L262.1 259.95L262.05 259.9L261.3 259.2Q260.7 258.75 259.95 258.8M262.2,267.25Q262.25 268.35 263.25 268.75L263.15 268.6L262.3 267.15L262.2 267.25M261.75,278.2Q263 276.55 263.45 274.55L263.35 274.5L261.65 278.25L261.75 278.2M262.45,278.1Q263.6 276.7 264.1 274.95L263.95 274.95Q262.9 276.55 262.35 278.2L262.45 278.1M259.7,275.4L259.75 275.35L259.55 275.15L256 275L252.55 275.55Q255.75 276.1 259.05 275.5L259.15 275.4L259.45 275.3L259.7 275.4M254.95,277Q249.85 277.65 245.3 279.95L245.4 280Q250.15 278.25 255.05 277.2L255.2 277.25L255.35 277.2L254.95 277M262.95,283.9L262.9 283.9L258.8 288.2L258.75 288.55L256.4 290.75L258.8 288.6L259.15 288.6L259.2 288.55L262.75 284.55L262.8 284.5L262.95 283.9M263.2,279.95Q264.95 277.75 265.9 275.2L265.8 275.2Q264.15 277.5 263.15 279.95L263.2 279.95M259.2,284.15L256.5 287.55L256.2 287.6L256.15 287.65L249.3 295.5Q249.2 295.8 249.5 295.85Q253.7 292.25 256.6 287.7L256.65 287.6L259.25 284.1L259.2 284.15M244.85,282.55Q248.2 281.5 251.7 279.9Q252.65 279.5 252.8 278.95L252.7 278.9Q248.8 279.7 245.55 281.95L245.45 282.1L245.4 282.15L245.25 282.25Q244.95 282.35 244.85 282.55M252.25,290.4Q254.8 284.9 258.95 280.55Q254.6 283.9 252.25 289.15Q251.85 290.05 252.05 290.7L252.25 290.4M277.7,272.45Q277.45 272.5 277.25 272.7L277.3 273.1L277.4 273.1Q278.05 272.95 277.8 272.5L277.7 272.45M275.05,274.25Q275.8 274.35 276 273.85L275.1 273.8L275.05 273.9L274.95 274.2L275.05 274.25M275.1,275.4L274.55 275.6Q274.3 275.95 274.85 276.2L274.95 276.15Q275.5 276 275.55 275.45L275.4 275.4L275.1 275.4M270.7,275.95L271 276.1L272.05 276L271.95 275.9L270.55 275.5Q270.55 275.8 270.7 275.95M267.45,276.6L267.55 275.9L266.25 277.8Q265.45 278.95 265.45 279.85L265.55 279.85L267.4 276.65L267.45 276.6M268.9,279.8L268.6 279.75L269.05 281.95L269.2 281.85L268.9 279.8M269.15,290.35L262.4 300.05L262.4 300.15L262.4 300.4L262.3 300.5Q261.75 301.05 261.55 301.5L261.7 301.4L262.45 300.45L262.75 300.4L263.95 298.85Q267.75 294.25 270.3 288.9L270.25 288.7L270.25 288.6L270.5 287Q270.25 288.7 269.15 290.35M267.45,285.1Q264.1 289 263.25 293.95L263.25 294Q264.9 289.35 267.5 285.15L267.45 285.1M268.3,286.7Q265.4 291.95 262.85 297.35L263.45 296.55Q266.6 291.4 269.05 285.9Q268.65 286.05 268.3 286.7M263.45,300.45L263.5 300.8L263.55 300.7L263.45 300.45" />
<path style="fill:#FEE7E7;fill-opacity:1" d="M281.9,260.4L282.4 260.85L282.3 261.15L282.1 261.2L281.25 260.55L281.05 259.7Q281.2 259.05 281.7 258.6L281.9 258.55Q282.05 258.95 281.65 259.65L281.65 260.05L281.7 260.2L281.9 260.4M270.7,255.7L270.15 255.55L269.7 255.55Q269.4 255.4 269.45 255.15L269.5 255L270.2 255.05L270.3 255.05L270.35 255.05L270.9 255.05L271.25 254.35Q271.2 254.1 271.5 254L271.55 254.05L271.4 254.4L271.35 254.45L271.25 254.6L271.7 254.2Q271.75 254.15 271.8 254.25L271.7 254.4L271.75 254.45L270.95 255.2L270.9 255.6L270.8 255.6L270.75 255.65L270.7 255.7M271.5,265.65L271.4 265.65L271.3 265.6L271.2 265.65Q270.3 265.05 270.5 264.35L270.55 264.35L271.5 265.6L271.5 265.65M268.95,263Q267.6 262.9 267.05 261.4Q266.95 261.15 267.15 261.2L267.15 261.1L267.2 261.15L267.5 261.75L268.8 262.85L268.95 263M263.4,263.45L263.45 263.6Q263.15 263.45 263.2 262.65L263.25 262.7L263.4 263.45M265.65,265.8L266.95 267L266.95 267.05Q265.85 266.8 265.6 265.8L265.65 265.8M265.75,270.8Q266.35 271.15 266.65 271.85L266.6 271.9L266.45 271.95L266.25 271.95Q265.55 271.5 265.4 270.85L265.55 270.85L265.75 270.8M263.35,271.65L262.95 271.5L262.7 271.25L262.5 270.8L262.5 270.75L262.7 270.8L262.8 270.85L263.4 271.65L263.35 271.65M269.9,272.1L269.95 272L270 272L270.25 272L271.4 272.65L271.5 272.8L271.55 272.9L271.55 273L271.45 273.1Q270.35 273.05 269.85 272.1L269.9 272.1M269,269.6L269.05 269.7Q268.55 269.7 268.65 269.55L268.75 269.4L269 269.6M283.75,272.25L283.7 272.25L283.75 272.35L283.55 272.3L283.3 272.05Q282.5 270.65 282.9 269.25L283 269.2Q283.2 270.75 283.75 272.25M276.55,266Q276.35 266.95 274.85 266.55Q273.95 266.3 274 265.7L276.55 266M273.6,270.3L273.5 270.35Q272.35 270.3 271.9 269.35L273.75 269.95L273.6 270.3M276.05,270.75L277.8 270.4Q277.25 271.15 276.1 270.8L276.05 270.75M277.35,267.05L279.15 267.5Q279.15 268.35 277.9 267.8Q277.3 267.55 277.35 267.05M283.3,268.15L284.6 271.15Q283.25 269.8 283.25 268.1L283.3 268.15M279.8,270L279.9 270.3L279.9 270.45L279.55 271.1L279.4 271.2Q279.35 270.65 279.7 270.05Q279.8 269.95 279.8 270M282.05,271.1L282 271.15Q281.85 270.9 281.95 270.4L282 270.4L282.05 271.1M262.9,258.45L262.85 258.5Q261.35 258.7 260.15 257.85L262.7 258.05L262.9 258.45M258.95,259.35L258.7 258.95L260.6 259.85L260.75 259.9L261.6 260.45L261.75 260.6Q260.4 260.7 259.15 259.65L258.95 259.35M261.3,259.2L262.05 259.9L262.1 259.95L262.05 260L261.75 260.1L261.7 260.15Q260.55 259.75 259.95 258.8Q260.7 258.75 261.3 259.2M262.3,267.15L263.15 268.6L263.25 268.75Q262.25 268.35 262.2 267.25L262.3 267.15M261.65,278.25L263.35 274.5L263.45 274.55Q263 276.55 261.75 278.2L261.65 278.25M262.35,278.2Q262.9 276.55 263.95 274.95L264.1 274.95Q263.6 276.7 262.45 278.1L262.35 278.2M259.45,275.3L259.15 275.4L259.05 275.5Q255.75 276.1 252.55 275.55L256 275L259.55 275.15L259.75 275.35L259.7 275.4L259.45 275.3M255.35,277.2L255.2 277.25L255.05 277.2Q250.15 278.25 245.4 280L245.3 279.95Q249.85 277.65 254.95 277L255.35 277.2M262.8,284.5L262.75 284.55L259.2 288.55L259.15 288.6L258.8 288.6L256.4 290.75L258.75 288.55L258.8 288.2L262.9 283.9L262.95 283.9L262.8 284.5M263.15,279.95Q264.15 277.5 265.8 275.2L265.9 275.2Q264.95 277.75 263.2 279.95L263.15 279.95M259.25,284.1L256.65 287.6L256.6 287.7Q253.7 292.25 249.5 295.85Q249.2 295.8 249.3 295.5L256.15 287.65L256.2 287.6L256.5 287.55L259.2 284.15L259.25 284.1M245.25,282.25L245.4 282.15L245.45 282.1L245.55 281.95Q248.8 279.7 252.7 278.9L252.8 278.95Q252.65 279.5 251.7 279.9Q248.2 281.5 244.85 282.55Q244.95 282.35 245.25 282.25M252.05,290.7Q251.85 290.05 252.25 289.15Q254.6 283.9 258.95 280.55Q254.8 284.9 252.25 290.4L252.05 290.7M277.8,272.5Q278.05 272.95 277.4 273.1L277.3 273.1L277.25 272.7Q277.45 272.5 277.7 272.45L277.8 272.5M274.95,274.2L275.05 273.9L275.1 273.8L276 273.85Q275.8 274.35 275.05 274.25L274.95 274.2M275.4,275.4L275.55 275.45Q275.5 276 274.95 276.15L274.85 276.2Q274.3 275.95 274.55 275.6L275.1 275.4L275.4 275.4M270.55,275.5L271.95 275.9L272.05 276L271 276.1L270.7 275.95Q270.55 275.8 270.55 275.5M267.4,276.65L265.55 279.85L265.45 279.85Q265.45 278.95 266.25 277.8L267.55 275.9L267.45 276.6L267.4 276.65M270.5,287L270.25 288.6L270.25 288.7L270.3 288.9Q267.75 294.25 263.95 298.85L262.75 300.4L262.45 300.45L261.7 301.4L261.55 301.5Q261.75 301.05 262.3 300.5L262.4 300.4L262.4 300.15L262.4 300.05L269.15 290.35Q270.25 288.7 270.5 287M267.5,285.15Q264.9 289.35 263.25 294L263.25 293.95Q264.1 289 267.45 285.1L267.5 285.15M269.05,285.9Q266.6 291.4 263.45 296.55L262.85 297.35Q265.4 291.95 268.3 286.7Q268.65 286.05 269.05 285.9" />
<radialGradient
id="RadialGradID_3298" gradientUnits="userSpaceOnUse" gradientTransform="matrix(0.0281067, 0.0162354, -0.0162354, 0.0281067, 275.15, 258.45)" spreadMethod ="pad" cx="0" cy="0" r="819.2" fx="0" fy="0" >
<stop  offset="0"  style="stop-color:#FC7474;stop-opacity:1" />
<stop  offset="1"  style="stop-color:#FFFFFF;stop-opacity:1" />
</radialGradient>
<path style="fill:url(#RadialGradID_3298) " d="M270.55,254.1L270.8 254L271 254.35L270.55 254.1M269.2,281.85L269.05 281.95L268.6 279.75L268.9 279.8L269.2 281.85" />
<radialGradient
id="RadialGradID_3299" gradientUnits="userSpaceOnUse" gradientTransform="matrix(0.0214081, 0.0123596, -0.0123596, 0.0214081, 268.85, 285.85)" spreadMethod ="pad" cx="0" cy="0" r="819.2" fx="0" fy="0" >
<stop  offset="0"  style="stop-color:#FC7474;stop-opacity:1" />
<stop  offset="1"  style="stop-color:#FFFFFF;stop-opacity:1" />
</radialGradient>
<path style="fill:url(#RadialGradID_3299) " d="M271,281.05L271.2 280.9L271.25 280.95L271 281.05M263.55,300.7L263.5 300.8L263.45 300.45L263.55 300.7" />
<radialGradient
id="RadialGradID_3300" gradientUnits="userSpaceOnUse" gradientTransform="matrix(0.0196991, 0.0113678, -0.0113678, 0.0196991, 255.5, 278.8)" spreadMethod ="pad" cx="0" cy="0" r="819.2" fx="0" fy="0" >
<stop  offset="0"  style="stop-color:#FC7474;stop-opacity:1" />
<stop  offset="1"  style="stop-color:#FFFFFF;stop-opacity:1" />
</radialGradient>
<path style="fill:url(#RadialGradID_3300) " d="M237.5,281.85L237.4 282.15L237.3 282.1L237.25 282.1L237.4 281.85L237.5 281.85" />
<path style="fill:none;stroke-width:1;stroke-linecap:round;stroke-linejoin:round;stroke-miterlimit:3;stroke:#BD0B0B;stroke-opacity:1" d="M281.9,260.4Q281.5 259.5 282.35 259L282.15 257.85M238.6,280.3Q242.15 276.15 247 273.95Q252.9 271.3 260 274.75Q259.65 273.55 260 270.9Q260.3 268.25 262.2 262.85Q259.4 263.1 258.65 260.05Q256.8 252.85 265.65 258.05L268 255.8Q269.25 254.8 270.55 254.1L270.8 254L272.1 253.35L275.2 252.3Q278.1 251.35 280 252.95Q281.85 254.65 282.1 257.8L282.05 257.85Q280.05 259.6 281.65 261.55M282.1,257.8L282.15 257.85M271,254.35Q270.8 255.05 270.35 255.05M270.9,255.6Q272.15 254.9 272.1 253.35M270.3,255.05L270.35 255.05M270.7,255.7L269.8 255.95M282.35,259L282.55 261.05L282.5 263L282.15 265.1Q284.15 267.25 286.35 270.5Q285 271.7 283.75 272.25M283.55,272.3Q281.4 273.15 279.55 272L277.45 274.9Q275.8 277.45 270.45 279.35L271.2 280.9L271.25 280.95Q273.75 286.85 271.6 290.6L267.8 297.4Q266.5 299.9 263.65 301.7L261.35 302.95L259.55 303.6Q258.75 302 258.95 300.65Q260.05 294.8 263.7 288.4L260.1 291.65L250.95 297.6L248.5 298.8Q244.35 300.75 240.15 301.1Q242.25 299.95 243.3 298.3L243.35 298.25L243.35 298.2M243.4,298Q245.95 291.95 249.9 286.7Q251.5 284.65 253.45 282.85Q247.05 285.2 241.2 283.45L238.6 282.6L237.4 282.15L237.3 282.1L237.25 282.1L237.4 281.85L238.4 280.5M282.15,265.1Q281.5 268.5 279.55 272M262.2,262.85L262.3 262.7Q263.8 260.05 265.65 258.05M259.85,278.5Q256.25 280.3 253.45 282.85M268.15,282.2Q266.15 285.8 263.7 288.4" />
</g>
</svg>
