<?xml version="1.0" encoding="utf-8"?>
<svg version="1.1" id="Layer_1"
xmlns="http://www.w3.org/2000/svg"
xmlns:xlink="http://www.w3.org/1999/xlink"
xmlns:author="http://www.sothink.com"
width="65px" height="100px"
xml:space="preserve">
<g id="319" transform="matrix(1, 0, 0, 1, 31.6, 90.2)">
<path style="fill:#FFFFFF;fill-opacity:1" d="M23.3,-53.25L11.1 -41L8.25 -42.4L23.3 -57.45L23.3 -53.25M-0.75,-71.1L-10.05 -61.55L-10.05 -64.2L-2.5 -71.95L-0.75 -71.1" />
<path style="fill:#000000;fill-opacity:0.2" d="M-13.75,-19.95L26.25 0.6L26.25 0.75L25.5 1.05L7.55 9.8L-31.6 -10.45L-13.75 -19.35L-13.75 -19.95" />
<path style="fill:#FAF4E7;fill-opacity:1" d="M-31,-35.95L-30.95 -39.45L-30.85 -39.45L-13 -48.55L-13 -49.2L-13 -87.2L-8 -89.7L31.95 -69.65L31.95 -2.15L27 0.3L27 -25.65L8.3 -16.3L8.3 -16.25L-13 -26.95L-31 -35.95M23.75,-59.5L-10.3 -76.5L-10.3 -51.15L23.75 -34.5L23.75 -46.7L23.75 -49.35L23.75 -59.5" />
<path style="fill:#F3E6CB;fill-opacity:1" d="M26.95,0.35Q6.95 -9.7 -13 -19.7L-13 -26.95L8.3 -16.25L8.3 -16.3L27 -25.65L27 0.3L26.95 0.35" />
<linearGradient
id="LinearGradID_1237" gradientUnits="userSpaceOnUse" gradientTransform="matrix(0.0207825, 0, 0, 0.0256348, 6.7, -55.5)" spreadMethod ="pad" x1="-819.2" y1="0" x2="819.2" y2="0" >
<stop  offset="0" style="stop-color:#FFFFFF;stop-opacity:1" />
<stop  offset="1" style="stop-color:#9DE6E6;stop-opacity:1" />
</linearGradient>
<path style="fill:url(#LinearGradID_1237) " d="M23.3,-57.45L8.25 -42.4L11.1 -41L23.3 -53.25L23.3 -57.45M23.75,-49.35L14.45 -39.8L16.2 -38.9L23.75 -46.7L23.75 -34.5L-10.3 -51.15L-10.3 -76.5L23.75 -59.5L23.75 -49.35M-2.5,-71.95L-10.05 -64.2L-10.05 -61.55L-0.75 -71.1L-2.5 -71.95" />
<linearGradient
id="LinearGradID_1238" gradientUnits="userSpaceOnUse" gradientTransform="matrix(0.00567627, 0, 0, 0.00637817, 19.1, -44.15)" spreadMethod ="pad" x1="-819.2" y1="0" x2="819.2" y2="0" >
<stop  offset="0.0941176" style="stop-color:#FFFFFF;stop-opacity:1" />
<stop  offset="0.168627" style="stop-color:#F0F0F0;stop-opacity:1" />
<stop  offset="0.243137" style="stop-color:#FFFFFF;stop-opacity:1" />
<stop  offset="0.658824" style="stop-color:#09DDDD;stop-opacity:1" />
</linearGradient>
<path style="fill:url(#LinearGradID_1238) " d="M16.2,-38.9L14.45 -39.8L23.75 -49.35L23.75 -46.7L16.2 -38.9" />
<path style="fill:none;stroke-width:1;stroke-linecap:round;stroke-linejoin:round;stroke-miterlimit:3;stroke:#4F3A11;stroke-opacity:1" d="M-13,-87.2L27 -67.15L27 -67.2L31.95 -69.65L-8 -89.7L-13 -87.2L-13 -49.2L27 -29.15L27 -67.15M27,-25.65L27 -29L26.25 -28.7L8.3 -19.7L8.3 -16.3L27 -25.65L27 0.3L31.95 -2.15L31.95 -69.65M27,-29L27 -29.15M23.75,-46.7L23.75 -34.5L-10.3 -51.15L-10.3 -76.5L23.75 -59.5L23.75 -49.35M8.3,-16.25L8.3 -16.3M8.3,-16.25L-13 -26.95L-13 -19.7Q6.95 -9.7 26.95 0.35L27 0.3M-13,-49.2L-13 -48.55L-30.85 -39.45L8.3 -19.7M-30.85,-39.45L-30.95 -39.5L-30.95 -39.45L-31 -35.95L-13 -26.95" />
<path style="fill:none;stroke-width:1;stroke-linecap:round;stroke-linejoin:round;stroke-miterlimit:3;stroke:#4F3A11;stroke-opacity:1" d="M23.75,-46.7L23.75 -49.35" />
</g>
</svg>
