<?xml version="1.0" encoding="utf-8"?>
<svg version="1.1" id="Layer_1"
xmlns="http://www.w3.org/2000/svg"
xmlns:xlink="http://www.w3.org/1999/xlink"
xmlns:author="http://www.sothink.com"
width="68px" height="30px"
xml:space="preserve">
<g id="730" transform="matrix(1, 0, 0, 1, 40.2, 37.35)">
<path style="fill:#558046;fill-opacity:0.6" d="M27.35,-32.1Q27.35 -31.35 26.05 -30.7L23.95 -29.65L23.85 -29.65L23.7 -29.55L21.5 -25.85L20.9 -23.5L20.7 -22.5L20.6 -22.45L20.6 -22.35Q20.6 -22.05 19.4 -20.9Q18.15 -19.65 17.6 -19.65L16.35 -19.85Q15.2 -19.85 14.1 -18.8L14.05 -18.7L14.5 -17.5L14.2 -16.7Q13.8 -16.25 13 -16.25Q10.4 -16.25 6.75 -17.6L6.3 -17.4L6.35 -17.3Q6.35 -15.85 2.75 -14.3Q-0.2 -13 -1 -13L-1.9 -13.3L-2.3 -13.15L-2.75 -13Q-5.45 -13 -6.9 -16Q-8.8 -14.9 -9.5 -14.9Q-11.6 -14.9 -13.45 -16.05L-14.8 -17.15L-16.6 -17.4L-17.3 -17.7L-18.75 -17.55L-21.25 -17.4L-22.05 -17.5L-23.35 -17.6L-25.9 -17.15L-26.5 -16.6L-26.25 -15.8L-26 -15Q-26 -14.55 -26.45 -14.3L-23.5 -11.35L-23.5 -10.75L-23.5 -10.45L-25.9 -8.85L-28.35 -7.5Q-29.05 -7.5 -29.5 -8.1L-30.25 -8.75Q-31.2 -8.75 -32.65 -8.15L-33.7 -9.4L-31.2 -11.3L-30.95 -11.45L-33.3 -11.85L-35 -11.65L-35.35 -13.45L-40.2 -10.45Q-38.2 -18.7 -34.75 -17.65Q-36.8 -24.1 -29.5 -22.75L-30 -24.35L-30.45 -25.25L-31.25 -27.75Q-31.25 -28.45 -30.55 -28.95Q-29.9 -29.45 -28.7 -29.55L-28.9 -30.9L-28.65 -32.15L-29.3 -34.55L-30.65 -37.35Q-30.1 -37.45 -29.2 -36.95L-28.75 -36.9L-28.3 -36.55Q-27.55 -36.2 -26.35 -35.15Q-25.6 -33.45 -25.05 -33.05L-23.75 -32.7L-23.2 -33.1Q-21.05 -34.6 -19.55 -34.45Q-18.6 -34.45 -15.75 -32.85L-14.6 -32.15L-11.8 -32Q-8.2 -32 -8 -34.4L-7.3 -35.75L-7.5 -36.4Q-7.5 -37.5 -6.4 -37.35Q-5.3 -37.2 -4.9 -36.1Q-3.85 -34.75 -3.65 -33.45L-2.95 -31.25L-1.8 -29.7L-1.4 -29.2L0.85 -29.8L1.2 -30.45L1.6 -31.2L1.85 -32.3Q1.95 -32.75 2.7 -33.3Q3.55 -33.9 4 -33.7Q6.45 -33.9 7.85 -33.1L8.75 -34.45Q9.2 -36.3 10.4 -36.65Q11.6 -36.95 11.6 -35.65L10.7 -33.75Q10.15 -33.2 9.75 -32.3Q9.1 -30.8 9.1 -29.7L9.2 -28.55Q9.6 -27.65 11.2 -27.65Q14.3 -27.65 18.25 -30.9L19.15 -31.65L19.25 -31.7L23.25 -32.2L25.7 -33.15Q27.35 -33.65 27.35 -32.1" />
</g>
</svg>
