<?xml version="1.0" encoding="utf-8"?>
<svg version="1.1" id="Layer_1"
xmlns="http://www.w3.org/2000/svg"
xmlns:xlink="http://www.w3.org/1999/xlink"
xmlns:author="http://www.sothink.com"
width="493px" height="257px"
xml:space="preserve">
<g id="515" transform="matrix(1, 0, 0, 1, 482.7, 26.7)">
<path style="fill:#7D513C;fill-opacity:1" d="M-30.55,1.05L-30.55 -10.8L-0.3 -26.2L8.85 -18.95L-30.45 1.05L-30.55 1.05M-431.25,201.3L-470.25 221.15L-479.3 213.55L-440.6 193.9L-431.25 201.3" />
<path style="fill:#993300;fill-opacity:1" d="M-426.7,182.25L-43.2 -9.55L-30.55 -15.85L-30.55 -10.8L-30.55 1.05L-30.55 1.1L-31.45 1.55L-31.95 1.8L-32.95 2.3L-34.95 3.3L-35.95 3.8L-38.45 5.05L-349.7 160.6L-350.7 161.1L-351.2 161.35L-352.2 161.85L-354.2 162.85L-355.2 163.35L-357.7 164.6L-431.25 201.3L-431.25 184.6L-431.25 184.45L-426.7 182.25M-470.25,221.15L-470.25 225.15L-479.3 229.65L-479.3 225.75L-470.25 221.15" />
<path style="fill:#86340D;fill-opacity:1" d="M-431.25,184.45L-431.25 184.6L-431.25 201.3L-440.6 193.9L-440.6 180.15L-431.25 184.45" />
<path style="fill:#956546;fill-opacity:1" d="M-479.3,225.75L-482.7 218.45L-482.7 213.55L-479.3 213.55L-470.25 221.15L-479.3 225.75" />
<path style="fill:none;stroke-width:1;stroke-linecap:round;stroke-linejoin:round;stroke-miterlimit:3;stroke:#000000;stroke-opacity:1" d="M-30.55,1.05L-30.55 -10.8L-30.55 -15.85L-43.2 -9.55L-426.7 182.25L-431.25 184.6L-431.25 201.3L-357.7 164.6L-355.2 163.35L-354.2 162.85L-352.2 161.85L-351.2 161.35L-350.7 161.1L-349.7 160.6L-38.45 5.05L-35.95 3.8L-34.95 3.3L-32.95 2.3L-31.95 1.8L-31.45 1.55L-30.55 1.1M-30.45,1.05L8.85 -18.95L-0.3 -26.2L-30.55 -10.8M-440.6,180.15L-431.25 184.45L-431.25 184.6M-440.6,193.9L-479.3 213.55L-470.25 221.15L-431.25 201.3L-440.6 193.9M-479.3,225.75L-479.3 229.65L-470.25 225.15L-470.25 221.15L-479.3 225.75" />
</g>
</svg>
