<?xml version="1.0" encoding="utf-8"?>
<svg version="1.1" id="Layer_1"
xmlns="http://www.w3.org/2000/svg"
xmlns:xlink="http://www.w3.org/1999/xlink"
xmlns:author="http://www.sothink.com"
width="80px" height="140px"
xml:space="preserve">
<g id="196" transform="matrix(1, 0, 0, 1, 41.75, 138.85)">
<path style="fill:#BEBC81;fill-opacity:1" d="M28.25,-71.9L28.25 -80.15L31.25 -81.6L31.25 -73.3L28.3 -71.9L28.25 -71.9M-35.05,-53.25L-35.05 -44.95L-38 -43.5L-38 -51.8L-35.05 -53.25" />
<radialGradient
id="RadialGradID_623" gradientUnits="userSpaceOnUse" gradientTransform="matrix(0.125519, -0.00111389, 0, 0.118546, 2.4, -116.85)" spreadMethod ="pad" cx="0" cy="0" r="819.2" fx="0" fy="0" >
<stop  offset="0"  style="stop-color:#BCBCBC;stop-opacity:1" />
<stop  offset="1"  style="stop-color:#E5E5CC;stop-opacity:1" />
</radialGradient>
<path style="fill:url(#RadialGradID_623) " d="M36.3,-39.15L35.85 -39.35Q35.3 -39.6 34.8 -39.9L34.75 -136.9L37.65 -138.35L37.65 -38.45L36.3 -39.15" />
<radialGradient
id="RadialGradID_624" gradientUnits="userSpaceOnUse" gradientTransform="matrix(0.0336914, -0.000305176, 0, 0.0318146, 12.5, -96.1)" spreadMethod ="pad" cx="0" cy="0" r="819.2" fx="0" fy="0" >
<stop  offset="0"  style="stop-color:#FFFFFF;stop-opacity:1" />
<stop  offset="1"  style="stop-color:#0000FF;stop-opacity:1" />
</radialGradient>
<path style="fill:url(#RadialGradID_624) " d="M29.25,-116.95L29.25 -92.1L2 -78.6L2 -103.45L29.25 -116.95" />
<radialGradient
id="RadialGradID_625" gradientUnits="userSpaceOnUse" gradientTransform="matrix(0.125519, -0.00111389, 0, 0.118546, 2.4, -116.85)" spreadMethod ="pad" cx="0" cy="0" r="819.2" fx="0" fy="0" >
<stop  offset="0"  style="stop-color:#FFFFFF;stop-opacity:1" />
<stop  offset="1"  style="stop-color:#E5E5CC;stop-opacity:1" />
</radialGradient>
<path style="fill:url(#RadialGradID_625) " d="M-1.75,-20.35L-1.75 -19.05L-41.25 0.45L-41.25 -2.3L-41.25 -99.35L-1.75 -118.9L34.75 -136.9L34.8 -39.9L-1.75 -21.9L-1.75 -20.35M2,-103.45L2 -78.6L29.25 -92.1L29.25 -116.95L2 -103.45M28.25,-71.85L28.3 -71.9L31.25 -73.3L31.25 -81.6L28.25 -80.15L28.25 -71.9L28.25 -71.85M-38,-51.8L-38 -43.5L-35.05 -44.95L-35.05 -53.25L-38 -51.8M-8.2,-72.85L-8.2 -97.7L-35.5 -84.2L-35.5 -59.35L-8.2 -72.85" />
<linearGradient
id="LinearGradID_626" gradientUnits="userSpaceOnUse" gradientTransform="matrix(-0.0241699, -0.000213623, 0, 0.0126038, 16.45, -29.75)" spreadMethod ="pad" x1="-819.2" y1="0" x2="819.2" y2="0" >
<stop  offset="0" style="stop-color:#FFFFFF;stop-opacity:1" />
<stop  offset="1" style="stop-color:#BEBC81;stop-opacity:1" />
</linearGradient>
<path style="fill:url(#LinearGradID_626) " d="M-1.75,-21.9L34.8 -39.9Q35.3 -39.6 35.85 -39.35L36.3 -39.1L-1.75 -20.35L-1.75 -21.9" />
<linearGradient
id="LinearGradID_627" gradientUnits="userSpaceOnUse" gradientTransform="matrix(-0.0249939, -0.000213623, 0, 0.0129395, 17.15, -28.7)" spreadMethod ="pad" x1="-819.2" y1="0" x2="819.2" y2="0" >
<stop  offset="0" style="stop-color:#FFFFFF;stop-opacity:1" />
<stop  offset="1" style="stop-color:#BEBC81;stop-opacity:1" />
</linearGradient>
<path style="fill:url(#LinearGradID_627) " d="M-1.75,-20.35L36.3 -39.1L36.3 -39.15L37.65 -38.45L-0.4 -19.7L-1.75 -19.05L-1.75 -20.35" />
<radialGradient
id="RadialGradID_628" gradientUnits="userSpaceOnUse" gradientTransform="matrix(0.0337219, -0.000305176, 0, 0.0318451, -19.55, -80.75)" spreadMethod ="pad" cx="0" cy="0" r="819.2" fx="0" fy="0" >
<stop  offset="0"  style="stop-color:#FFFFFF;stop-opacity:1" />
<stop  offset="1"  style="stop-color:#0000FF;stop-opacity:1" />
</radialGradient>
<path style="fill:url(#RadialGradID_628) " d="M-35.5,-59.35L-35.5 -84.2L-8.2 -97.7L-8.2 -72.85L-35.5 -59.35" />
<path style="fill:none;stroke-width:1;stroke-linecap:round;stroke-linejoin:round;stroke-miterlimit:3;stroke:#000000;stroke-opacity:1" d="M37.65,-38.45L37.65 -138.35L34.75 -136.9L34.8 -39.9Q35.3 -39.6 35.85 -39.35L36.3 -39.15L37.65 -38.45L-0.4 -19.7L-1.75 -19.05L-41.25 0.45M-41.25,-2.3L-41.25 -99.35L-1.75 -118.9L34.75 -136.9M2,-103.45L2 -78.6L29.25 -92.1L29.25 -116.95L2 -103.45M28.25,-71.9L28.25 -80.15L31.25 -81.6L31.25 -73.3L28.3 -71.9L28.25 -71.85L28.25 -71.9M34.8,-39.9L-1.75 -21.9L-1.75 -20.35L-1.75 -19.05M36.3,-39.1L35.85 -39.35M-38,-51.8L-38 -43.5L-35.05 -44.95L-35.05 -53.25L-38 -51.8M-35.5,-59.35L-35.5 -84.2L-8.2 -97.7L-8.2 -72.85L-35.5 -59.35M-1.75,-118.9L-1.75 -21.9" />
<path style="fill:none;stroke-width:1;stroke-linecap:round;stroke-linejoin:round;stroke-miterlimit:3;stroke:#000000;stroke-opacity:1" d="M-41.25,0.45L-41.25 -2.3M28.25,-71.9L28.3 -71.9" />
<path style="fill:none;stroke-width:0.05;stroke-linecap:round;stroke-linejoin:round;stroke-miterlimit:3;stroke:#000000;stroke-opacity:1" d="M36.3,-39.15L36.3 -39.1L-1.75 -20.35" />
</g>
</svg>
