<?xml version="1.0" encoding="utf-8"?>
<svg version="1.1" id="Layer_1"
xmlns="http://www.w3.org/2000/svg"
xmlns:xlink="http://www.w3.org/1999/xlink"
xmlns:author="http://www.sothink.com"
width="44px" height="71px"
xml:space="preserve">
<g id="910" transform="matrix(1, 0, 0, 1, 21.5, 71)">
<path style="fill:#FFFFFF;fill-opacity:0.298039" d="M4.5,-52.2L4.45 -51.1L4 -48.65L2.95 -46.65L2 -46.65L2 -46.6L2 -43.35L3.35 -43.35L3.35 -45.3L10.55 -45.3L10.55 -43.35L11.95 -43.35L11.95 -46.6L11.95 -46.65L10.75 -46.65L10.75 -56.05L10.75 -56.1L4.5 -56.1L4.5 -56.05L4.5 -52.2M5.5,-59.45L9.35 -68.05L13.25 -59.45L14.5 -60L17.65 -56.95L18.75 -55.85L18.4 -55.45L18.5 -55.35Q20.6 -53.3 20.8 -50.8L20.85 -50.2Q20.85 -48.55 20.05 -47.1L19.8 -46.65L18.4 -44.95L18.5 -44.85L18.2 -44.55L14.95 -43.65L14.95 -38.95L11.7 -38.25L8.55 -37.35L9.2 -35.75L12.55 -37L15.55 -37.6Q17.1 -37.6 17.7 -37Q18.5 -36.2 18.5 -35Q18.5 -33.9 17.75 -33.15Q16.7 -32.1 13.65 -31.9L12.4 -31.85L12.75 -30.35L14.25 -30.4L14.2 -27.65L12.7 -26.4L12.7 -20.35L12.7 -17.65L8.15 -17.65L8.15 -16.1L14.75 -16.1L15.9 -15.7Q16.45 -15.15 16.45 -14.05Q16.45 -13 15.9 -12.45Q15.45 -12 14.75 -12L8.15 -12L8.15 -11.05L1.35 -11.05L1.25 -11.05L-1.6 -11.05L-3.15 -9.55L-3.15 -3Q-3.15 -2.3 -3.6 -1.85Q-4.15 -1.3 -5.2 -1.3Q-6.3 -1.3 -6.85 -1.85Q-7.25 -2.3 -7.25 -3L-7.25 -9.55L-8.8 -9.55L-10.5 -10.65L-12.25 -14.55L-12.25 -16.95L-12.1 -16.95L-12.1 -18.45L-11.65 -18.85L-11.45 -19L-10.3 -20.4L-11.55 -21.4L-12.25 -20.45L-11.85 -31.4L-10.1 -44.2L-9.7 -43.85L-8.95 -44.55L-9.95 -45.65Q-11.4 -47.5 -11.45 -49.65L-11.45 -49.9L-11.4 -50.8Q-11.05 -53.1 -8.95 -55.05L-9.7 -55.8L-9.2 -59.75L-8.55 -59.45L-4.7 -68.05L-0.85 -59.45L0.4 -60L4.3 -60L5.5 -59.45M9.35,-54.75L9.35 -46.6L4.4 -46.6L4.45 -46.65L4.95 -47.55L5.85 -51.1L5.85 -51.15L5.85 -51.5L5.85 -54.75L9.35 -54.75M2.25,-39L-1.75 -38.25L-4.85 -37.35L-4.2 -35.75L-0.9 -37L2.1 -37.6Q3.65 -37.6 4.25 -37Q5.05 -36.2 5.05 -35Q5.05 -33.9 4.3 -33.15Q3.25 -32.1 0.25 -31.9L-1.05 -31.85L-0.7 -30.35Q3.25 -30.4 5.2 -31.9L5.6 -32.25Q6.6 -33.25 6.6 -35.1Q6.6 -36.9 5.5 -37.95Q4.45 -39 2.25 -39M-5,-46.5L-5 -45.05L-4.45 -45.05L-5 -43.6L-4.25 -43.6L-3.5 -45.15L-3.5 -46.5L-5 -46.5M-6.4,-45.15L-6.4 -46.5L-7.9 -46.5L-7.9 -45.05L-7.35 -45.05L-7.9 -43.6L-7.15 -43.6L-6.4 -45.15" />
<path style="fill:#000000;fill-opacity:0.298039" d="M4,-48.65L4.45 -51.1L4.5 -52.2L4.5 -56.05L10.75 -56.05L10.75 -46.65L10.75 -46.6L11.95 -46.6L11.95 -43.35L10.55 -43.35L10.55 -45.3L3.35 -45.3L3.35 -43.35L2 -43.35L2 -46.6L2.95 -46.6L4 -48.65M-9.75,-60L-4.7 -71L0.4 -60L-0.85 -59.45L-4.7 -68.05L-8.55 -59.45L-9.2 -59.75L-9.75 -60M-10.7,-44.9L-11.45 -45.95Q-12.55 -47.7 -12.5 -49.8L-12.45 -50.8Q-12.25 -52.3 -11.45 -53.65L-9.7 -55.8L-8.95 -55.05Q-11.05 -53.1 -11.4 -50.8L-11.45 -49.9L-11.45 -49.65Q-11.4 -47.5 -9.95 -45.65L-8.95 -44.55L-9.7 -43.85L-10.1 -44.2L-10.7 -44.9M-13.7,-18Q-14.65 -18 -16.35 -19.1Q-17.55 -19.75 -18.25 -19.75Q-19.15 -19.75 -19.55 -19.2L-19.7 -19L-20.15 -18.25L-21.5 -19Q-21.1 -19.95 -20.3 -20.65L-19.7 -21.1L-18.35 -21.45Q-17.25 -21.45 -16.1 -20.65Q-14.45 -19.8 -13.55 -19.8Q-12.95 -19.8 -12.25 -20.45L-11.55 -21.4L-10.3 -20.4L-11.45 -19L-11.65 -18.85L-12.1 -18.45Q-12.8 -18 -13.7 -18M-1.65,-9.55L-1.65 -2.95Q-1.65 -1.7 -2.45 -0.9Q-3.35 0 -5.2 0Q-7.1 0 -8 -0.9Q-8.8 -1.7 -8.8 -2.95L-8.8 -9.55L-7.25 -9.55L-7.25 -3Q-7.25 -2.3 -6.85 -1.85Q-6.3 -1.3 -5.2 -1.3Q-4.15 -1.3 -3.6 -1.85Q-3.15 -2.3 -3.15 -3L-3.15 -9.55L-1.65 -9.55M14.8,-17.65Q16.05 -17.65 16.85 -16.85Q17.75 -15.95 17.75 -14.05Q17.75 -12.2 16.85 -11.3L16.55 -11.05Q15.8 -10.5 14.8 -10.5L8.15 -10.5L8.15 -11.05L8.15 -12L14.75 -12Q15.45 -12 15.9 -12.45Q16.45 -13 16.45 -14.05Q16.45 -15.15 15.9 -15.7L14.75 -16.1L8.15 -16.1L8.15 -17.65L12.7 -17.65L14.8 -17.65M15.7,-39Q17.9 -39 18.95 -37.95Q20.05 -36.9 20.05 -35.1Q20.05 -33.25 19.05 -32.25L18.65 -31.9Q17.05 -30.7 14.25 -30.4L12.75 -30.35L12.4 -31.85L13.65 -31.9Q16.7 -32.1 17.75 -33.15Q18.5 -33.9 18.5 -35Q18.5 -36.2 17.7 -37Q17.1 -37.6 15.55 -37.6L12.55 -37L9.2 -35.75L8.55 -37.35L11.7 -38.25L14.95 -38.95L15.7 -39M18.8,-55.85L19.1 -56.2Q21.65 -53.85 21.85 -50.8L21.9 -50.2Q21.9 -48.3 21 -46.65Q20.3 -45.4 19.1 -44.25L18.5 -44.85L18.4 -44.95L19.8 -46.65L20.05 -47.1Q20.85 -48.55 20.85 -50.2L20.8 -50.8Q20.6 -53.3 18.5 -55.35L18.4 -55.45L18.75 -55.85L17.65 -56.95L18.8 -55.85M14.5,-60L13.25 -59.45L9.35 -68.05L5.5 -59.45L4.3 -60L9.35 -71L14.5 -60M5.85,-54.75L5.85 -51.5L5.85 -51.15L5.85 -51.1L4.95 -47.55L4.45 -46.65L4.4 -46.6L9.35 -46.6L9.35 -54.75L5.85 -54.75M5.5,-37.95Q6.6 -36.9 6.6 -35.1Q6.6 -33.25 5.6 -32.25L5.2 -31.9Q3.25 -30.4 -0.7 -30.35L-1.05 -31.85L0.25 -31.9Q3.25 -32.1 4.3 -33.15Q5.05 -33.9 5.05 -35Q5.05 -36.2 4.25 -37Q3.65 -37.6 2.1 -37.6L-0.9 -37L-4.2 -35.75L-4.85 -37.35L-1.75 -38.25L2.25 -39Q4.45 -39 5.5 -37.95M-3.5,-46.5L-3.5 -45.15L-4.25 -43.6L-5 -43.6L-4.45 -45.05L-5 -45.05L-5 -46.5L-3.5 -46.5M-7.15,-43.6L-7.9 -43.6L-7.35 -45.05L-7.9 -45.05L-7.9 -46.5L-6.4 -46.5L-6.4 -45.15L-7.15 -43.6" />
<path style="fill:none;stroke-width:1;stroke-linecap:round;stroke-linejoin:round;stroke-miterlimit:3;stroke:#000000;stroke-opacity:0.298039" d="M4.3,-60L0.4 -60M12.7,-20.35L12.7 -26.4M18.75,-55.85L17.65 -56.95" />
</g>
</svg>
