<?xml version="1.0" encoding="utf-8"?>
<svg version="1.1" id="Layer_1"
xmlns="http://www.w3.org/2000/svg"
xmlns:xlink="http://www.w3.org/1999/xlink"
xmlns:author="http://www.sothink.com"
width="129px" height="108px"
xml:space="preserve">
<g id="4" transform="matrix(1, 0, 0, 1, 64.1, 53.7)">
<linearGradient
id="LinearGradID_3" gradientUnits="userSpaceOnUse" gradientTransform="matrix(0.0776672, 0, 0, 0.065033, 0, 0.05)" spreadMethod ="pad" x1="-819.2" y1="0" x2="819.2" y2="0" >
<stop  offset="0.0235294" style="stop-color:#999999;stop-opacity:1" />
<stop  offset="0.886275" style="stop-color:#CCCCCC;stop-opacity:1" />
<stop  offset="1" style="stop-color:#FFFFFF;stop-opacity:1" />
</linearGradient>
<path style="fill:url(#LinearGradID_3) " d="M63.65,-53.15L54.85 35.25Q3.2 71 -55.65 35.75L-63.6 -52.9L-63.3 -52.9Q-62.15 -51.1 -59.4 -49.4Q-54.75 -46.5 -45.4 -44.1Q-26.65 -39.25 -0.15 -39.25Q26.35 -39.25 45.1 -44.1Q60.25 -48 63.15 -53.2L63.65 -53.15" />
<path style="fill:none;stroke-width:1;stroke-linecap:round;stroke-linejoin:round;stroke-miterlimit:3;stroke:#333333;stroke-opacity:1" d="M63.65,-53.15L54.85 35.25Q3.2 71 -55.65 35.75L-63.6 -52.9L-63.3 -52.9Q-62.15 -51.1 -59.4 -49.4Q-54.75 -46.5 -45.4 -44.1Q-26.65 -39.25 -0.15 -39.25Q26.35 -39.25 45.1 -44.1Q60.25 -48 63.15 -53.2L63.65 -53.15z" />
</g>
</svg>
