<?xml version="1.0" encoding="utf-8"?>
<svg version="1.1" id="Layer_1"
xmlns="http://www.w3.org/2000/svg"
xmlns:xlink="http://www.w3.org/1999/xlink"
xmlns:author="http://www.sothink.com"
width="171px" height="180px"
xml:space="preserve">
<g id="441" transform="matrix(1, 0, 0, 1, 85.3, 179.05)">
<path style="fill:#305630;fill-opacity:1" d="M32.95,-96.75Q33 -97.2 33.2 -97.5L33.45 -98.55Q33.45 -100.55 32.3 -101.55Q31.5 -102.3 29.3 -103.15Q29.55 -104.15 31.15 -104.1L32.25 -104.1Q33.8 -103.95 34.95 -102.35Q36.05 -100.8 36.05 -98.9L36 -98.25Q34.8 -96.55 32.95 -96.75" />
<path style="fill:#555555;fill-opacity:1" d="M43.35,-101.95L45.55 -103.05L45.55 -84.8L43.35 -85.9L43.35 -101.95M51,-82.05L51 -102.4L51.35 -103.85L54.25 -106.5L53.3 -103.8Q52.7 -102.3 52.45 -100.95L52.35 -81.4L51 -82.05" />
<path style="fill:#666666;fill-opacity:1" d="M45.55,-84.8L45.55 -103.05L48 -104.25L48.15 -104.2L50.45 -103.05L51.35 -103.85L51 -102.4L51 -82.05L50.7 -82.2L45.55 -84.8" />
<path style="fill:#868686;fill-opacity:1" d="M-84.8,-87.85L-22.7 -118.95L-16.95 -116.1L-14.35 -114.8L-12.05 -113.65L4.8 -105.2L19.1 -98.05L15.7 -96.35L15.2 -96.05L13.85 -95.1L13.25 -94.45L-14.35 -108.3L-16.95 -109.6L-19.85 -111.05Q-47.7 -100.35 -66.15 -87.75L-50.9 -80.1L-29.4 -69.35L-23.45 -66.4L-21.5 -65.4L-19.85 -64.6L19.7 -44.8L21.35 -43.95Q42.35 -49.75 57.95 -59.95Q63.1 -63.35 67.7 -67.2L66.05 -68.05L26.5 -87.85L22.9 -89.65L20.85 -90.65L27.35 -93.9L43.35 -85.9L45.55 -84.8L50.7 -82.2L51 -82.05L52.35 -81.4L75.2 -69.9L75.2 -69.8L77.8 -68.6L80.1 -67.45L84.8 -65.1L82.4 -63.9L75.2 -60.3L22.7 -34L-6.5 -48.6L-8.15 -49.45L-57.2 -74L-84.8 -87.8L-84.8 -87.85" />
<path style="fill:#717171;fill-opacity:1" d="M20.5,-33.6L20.2 -33.75L19.95 -33.7L19.85 -33.65L19.7 -33.5L19.5 -29.95L19.65 -26.6L19.85 -26.45L20.2 -26.25L20.45 -26.35L20.55 -26.4L20.7 -26.5L20.9 -30.1L20.7 -33.45L20.5 -33.6M18.7,-34.75L18.45 -34.7L18.25 -34.6L18.1 -34.4L18.1 -34L18.1 -33.65L18.1 -33.45L17.95 -33.25L17.85 -33.1L17.85 -32.9L17.85 -32.5L17.8 -31.6L17.9 -30.85L18.1 -30.7L18.45 -30.5L18.7 -30.6L18.85 -30.75L19 -30.9L19.05 -31.25L19.1 -32L19.1 -32.6L19.2 -32.8L19.25 -32.95L19.35 -33.15L19.35 -33.5L19.3 -34.1L19.2 -34.45L19 -34.6L18.7 -34.75M16.95,-35.75L16.7 -35.75L16.45 -35.7L16.25 -35.6L16.1 -35.4L16.1 -35L16.1 -34.45L16.15 -34.1L16.35 -33.95L16.7 -33.8L16.95 -33.85L17.1 -34L17.25 -34.15L17.3 -34.35L17.35 -34.5L17.4 -34.7L17.55 -35.1L17.55 -35.25L17.45 -35.45L17.25 -35.6L16.95 -35.75M75.2,-60.3L80.1 -48.95L80.1 -31.5L79 -30.95L22.7 -2.75L-84.8 -56.5L-84.8 -87.8L-57.2 -74L-8.15 -49.45L-6.5 -48.6L22.7 -34L75.2 -60.3M-82.65,-83.75L-82.7 -83.4L-82.6 -82.85L-82.4 -82.7L-81.15 -82.4L-81.15 -82.25L-81.15 -82.1L-81.15 -81.9L-81.15 -81.7L-81.3 -81.55L-81.5 -81.35L-81.65 -81.15L-81.65 -80.95L-81.65 -80.8L-81.6 -80.6L-81.05 -80.35L-80.8 -80.35L-80.25 -80.85L-80 -81.2L-79.95 -81.4L-79.9 -81.95L-79.9 -82.35L-79.8 -82.55L-79.75 -82.7L-79.65 -82.9L-79.65 -83.1L-79.7 -83.25L-79.8 -83.45Q-80.45 -84.05 -81.4 -83.9L-81.4 -84.1L-81.45 -84.25L-81.55 -84.45L-81.75 -84.6L-82.05 -84.75L-82.3 -84.7L-82.4 -84.65L-82.55 -84.5L-82.7 -83.95L-82.65 -83.75" />
<path style="fill:#515151;fill-opacity:1" d="M20.7,-33.45L20.9 -30.1L20.7 -26.5L20.55 -26.4L20.45 -26.35L20.2 -26.25L19.85 -26.45L19.65 -26.6L19.5 -29.95L19.7 -33.5L19.85 -33.65L19.95 -33.7L20.2 -33.75L20.5 -33.6L20.7 -33.45M19,-34.6L19.2 -34.45L19.3 -34.1L19.35 -33.5L19.35 -33.15L19.25 -32.95L19.2 -32.8L19.1 -32.6L19.1 -32L19.05 -31.25L19 -30.9L18.85 -30.75L18.7 -30.6L18.45 -30.5L18.1 -30.7L17.9 -30.85L17.8 -31.6L17.85 -32.5L17.85 -32.9L17.85 -33.1L17.95 -33.25L18.1 -33.45L18.1 -33.65L18.1 -34L18.1 -34.4L18.25 -34.6L18.45 -34.7L18.7 -34.75L19 -34.6M17.25,-35.6L17.45 -35.45L17.55 -35.25L17.55 -35.1L17.4 -34.7L17.35 -34.5L17.3 -34.35L17.25 -34.15L17.1 -34L16.95 -33.85L16.7 -33.8L16.35 -33.95L16.15 -34.1L16.1 -34.45L16.1 -35L16.1 -35.4L16.25 -35.6L16.45 -35.7L16.7 -35.75L16.95 -35.75L17.25 -35.6M-84.8,-56.5L22.7 -2.75L79 -30.95L80.1 -31.5L82.4 -32.65L84.8 -33.85L84.8 -31.1L22.7 0L-6.5 -14.6L-8.15 -15.45L-57.2 -40L-84.8 -53.85L-84.8 -56.5M-82.7,-83.95L-82.55 -84.5L-82.4 -84.65L-82.3 -84.7L-82.05 -84.75L-81.75 -84.6L-81.55 -84.45L-81.45 -84.25L-81.4 -84.1L-81.4 -83.9Q-80.45 -84.05 -79.8 -83.45L-79.7 -83.25L-79.65 -83.1L-79.65 -82.9L-79.75 -82.7L-79.8 -82.55L-79.9 -82.35L-79.9 -81.95L-79.95 -81.4L-80 -81.2L-80.25 -80.85L-80.8 -80.35L-81.05 -80.35L-81.6 -80.6L-81.65 -80.8L-81.65 -80.95L-81.65 -81.15L-81.5 -81.35L-81.3 -81.55L-81.15 -81.7L-81.15 -81.9L-81.15 -82.1L-81.15 -82.25L-81.15 -82.4L-82.4 -82.7L-82.6 -82.85L-82.7 -83.4L-82.65 -83.75L-82.7 -83.95" />
<path style="fill:#636363;fill-opacity:1" d="M82.4,-32.65L80.1 -31.5L80.1 -48.95L75.2 -60.3L82.4 -63.9L82.4 -32.65" />
<path style="fill:#585858;fill-opacity:1" d="M84.8,-33.85L82.4 -32.65L82.4 -63.9L84.8 -65.1L84.8 -33.85" />
<path style="fill:#203115;fill-opacity:1" d="M76.15,-132.95L77.5 -132.25L75.2 -131.1L76.15 -132.95" />
<path style="fill:#333333;fill-opacity:1" d="M80.1,-129.15L77.85 -128.05L77.8 -128L77.8 -129.8L77.5 -129.95L75.2 -131.1L77.5 -132.25L79.6 -131.2L80.1 -130.95L80.1 -129.15M-12.05,-177.3L-14.35 -176.1L-16.95 -177.4L-14.65 -178.55L-12.05 -177.3M50.45,-103.05L48.15 -104.2L48.15 -106.4L50.45 -105.3L50.45 -103.05M-44,-150.5L-44 -152.75L-41.4 -151.45L-41.4 -149.2L-44 -150.5" />
<path style="fill:#C5A072;fill-opacity:1" d="M-41.4,-149.2L-41.4 -151.45L-44 -152.75L-16.95 -177.4L-14.35 -176.1L-41.4 -151.45L48.15 -106.45L75.2 -131.1L77.5 -129.95L50.45 -105.3L48.15 -106.4L48.15 -104.2L48 -104.25L39.75 -108.4L-12.05 -134.5L-14.35 -135.65L-16.95 -136.95L-41.4 -149.2M75.2,-69.9L75.2 -125.6L77.8 -128L77.8 -68.6L75.2 -69.8L75.2 -69.9" />
<path style="fill:#414B34;fill-opacity:1" d="M48.15,-106.45L-41.4 -151.45L-14.35 -176.1L-12.05 -177.3L76.15 -132.95L75.2 -131.1L48.15 -106.45" />
<path style="fill:#BB8959;fill-opacity:1" d="M-16.95,-136.95L-14.35 -135.65L-12.05 -134.5L-12.05 -113.65L-14.35 -114.8L-16.95 -116.1L-16.95 -136.95M50.45,-103.05L50.45 -105.3L77.5 -129.95L77.8 -129.8L77.8 -128L77.85 -128.05L80.1 -129.15L80.1 -67.45L77.8 -68.6L77.8 -128L75.2 -125.6L54.25 -106.5L51.35 -103.85L50.45 -103.05" />
<linearGradient
id="LinearGradID_1849" gradientUnits="userSpaceOnUse" gradientTransform="matrix(0.00270081, 0.00468445, -0.00872803, 0.0050354, 23.2, -94.9)" spreadMethod ="pad" x1="-819.2" y1="0" x2="819.2" y2="0" >
<stop  offset="0" style="stop-color:#006600;stop-opacity:1" />
<stop  offset="0.501961" style="stop-color:#009900;stop-opacity:1" />
<stop  offset="1" style="stop-color:#006600;stop-opacity:1" />
</linearGradient>
<path style="fill:url(#LinearGradID_1849) " d="M12.85,-86.65L14.35 -87.8Q16 -89.3 17.1 -91.4L17.5 -92.3Q18.15 -93.9 18.05 -95.1Q17.95 -96.6 16.75 -96.55L15.7 -96.35L19.1 -98.05L29.3 -103.15Q31.5 -102.3 32.3 -101.55Q33.45 -100.55 33.45 -98.55L33.2 -97.5Q33 -97.2 32.95 -96.75L27.35 -93.9L20.85 -90.65L12.85 -86.65" />
<linearGradient
id="LinearGradID_1850" gradientUnits="userSpaceOnUse" gradientTransform="matrix(0.0020752, 0.00360107, -0.00537109, 0.00309753, 39.65, -103.8)" spreadMethod ="pad" x1="-819.2" y1="0" x2="819.2" y2="0" >
<stop  offset="0" style="stop-color:#006600;stop-opacity:1" />
<stop  offset="0.501961" style="stop-color:#009900;stop-opacity:1" />
<stop  offset="1" style="stop-color:#006600;stop-opacity:1" />
</linearGradient>
<path style="fill:url(#LinearGradID_1850) " d="M48,-104.25L45.55 -103.05L43.35 -101.95L36 -98.25L36.05 -98.9Q36.05 -100.8 34.95 -102.35Q33.8 -103.95 32.25 -104.1L31.15 -104.1L39.75 -108.4L48 -104.25" />
<linearGradient
id="LinearGradID_1851" gradientUnits="userSpaceOnUse" gradientTransform="matrix(0.00418091, -0.00241089, 0.00312805, 0.00541687, 14.15, -91.45)" spreadMethod ="pad" x1="-819.2" y1="0" x2="819.2" y2="0" >
<stop  offset="0" style="stop-color:#BBAB66;stop-opacity:1" />
<stop  offset="1" style="stop-color:#9B9243;stop-opacity:1" />
</linearGradient>
<path style="fill:url(#LinearGradID_1851) " d="M13.25,-94.45L13.85 -95.1L15.2 -96.05L15.7 -96.35L16.75 -96.55Q17.95 -96.6 18.05 -95.1Q18.15 -93.9 17.5 -92.3L17.1 -91.4Q16 -89.3 14.35 -87.8L12.85 -86.65Q12.1 -86.3 11.5 -86.3Q10.25 -86.3 10.15 -87.8Q10.05 -89.3 11.15 -91.4Q12 -93.15 13.25 -94.45" />
<path style="fill:#6E6E6E;fill-opacity:1" d="M-23.45,-66.4L-29.4 -69.35L-50.9 -80.1L-66.15 -87.75Q-47.7 -100.35 -19.85 -111.05L-16.95 -109.6L-14.35 -108.3L13.25 -94.45Q12 -93.15 11.15 -91.4Q10.05 -89.3 10.15 -87.8Q10.25 -86.3 11.5 -86.3Q12.1 -86.3 12.85 -86.65L20.85 -90.65L22.9 -89.65L26.5 -87.85L66.05 -68.05L67.7 -67.2Q63.1 -63.35 57.95 -59.95Q42.35 -49.75 21.35 -43.95L19.7 -44.8L-19.85 -64.6L-23.45 -66.4" />
<path style="fill:none;stroke-width:1;stroke-linecap:round;stroke-linejoin:round;stroke-miterlimit:3;stroke:#2B2B2B;stroke-opacity:1" d="M52.35,-81.4L52.45 -100.95Q52.7 -102.3 53.3 -103.8L54.25 -106.5M43.35,-85.9L43.35 -101.95" />
<path style="fill:none;stroke-width:1;stroke-linecap:round;stroke-linejoin:round;stroke-miterlimit:3;stroke:#232323;stroke-opacity:1" d="M77.85,-128.05L80.1 -129.15M48.15,-106.45L48.15 -106.4L50.45 -105.3M-44,-152.75L-41.4 -151.45" />
<path style="fill:none;stroke-width:1;stroke-linecap:round;stroke-linejoin:round;stroke-miterlimit:3;stroke:#202020;stroke-opacity:1" d="M-12.05,-134.5L-12.05 -113.65M48.15,-106.4L48.15 -104.2M-41.4,-149.2L-41.4 -151.45M-44,-150.5L-44 -152.75M-14.35,-135.65L-14.35 -114.8M-16.95,-116.1L-16.95 -136.95" />
<path style="fill:none;stroke-width:1;stroke-linecap:round;stroke-linejoin:round;stroke-miterlimit:3;stroke:#624828;stroke-opacity:1" d="M48,-104.25L39.75 -108.4L-12.05 -134.5M77.8,-129.8L77.8 -128L77.85 -128.05M80.1,-67.45L80.1 -129.15L80.1 -130.95M75.2,-69.9L75.2 -125.6L77.8 -128L77.8 -68.6M-14.35,-176.1L-41.4 -151.45L48.15 -106.45L75.2 -131.1M48,-104.25L48.15 -104.2L50.45 -103.05L50.45 -105.3L77.5 -129.95M75.2,-125.6L54.25 -106.5L51.35 -103.85M50.45,-103.05L51.35 -103.85M-16.95,-177.4L-44 -152.75M-16.95,-136.95L-41.4 -149.2L-44 -150.5M-16.95,-136.95L-14.35 -135.65L-12.05 -134.5" />
<path style="fill:none;stroke-width:1;stroke-linecap:round;stroke-linejoin:round;stroke-miterlimit:3;stroke:#293021;stroke-opacity:1" d="M79.6,-131.2L80.1 -130.95L79.6 -131.2L77.5 -132.25L75.2 -131.1L77.5 -129.95L77.8 -129.8L80.1 -130.95M76.15,-132.95L77.5 -132.25M76.15,-132.95L-12.05 -177.3L-14.35 -176.1L-16.95 -177.4L-14.65 -178.55L-12.05 -177.3" />
<path style="fill:none;stroke-width:1;stroke-linecap:round;stroke-linejoin:round;stroke-miterlimit:3;stroke:#454545;stroke-opacity:1" d="M-12.05,-113.65L4.8 -105.2L19.1 -98.05M77.8,-68.6L80.1 -67.45M82.4,-63.9L84.8 -65.1L80.1 -67.45M20.85,-90.65L22.9 -89.65L26.5 -87.85L66.05 -68.05L67.7 -67.2Q63.1 -63.35 57.95 -59.95Q42.35 -49.75 21.35 -43.95L19.7 -44.8L-19.85 -64.6L-21.5 -65.4L-23.45 -66.4L-29.4 -69.35L-50.9 -80.1L-66.15 -87.75Q-47.7 -100.35 -19.85 -111.05L-16.95 -109.6L-14.35 -108.3L13.25 -94.45M77.8,-68.6L75.2 -69.8M22.7,-2.75L22.7 -34L-6.5 -48.6L-8.15 -49.45L-57.2 -74L-84.8 -87.8L-84.8 -56.5L22.7 -2.75L79 -30.95L80.1 -31.5L79 -30.95M22.7,-34L75.2 -60.3M84.8,-33.85L84.8 -65.1M84.8,-33.85L84.8 -31.1L22.7 0L-6.5 -14.6L-8.15 -15.45L-57.2 -40L-84.8 -53.85L-84.8 -56.5M22.7,-2.75L22.7 0M-12.05,-113.65L-14.35 -114.8L-16.95 -116.1L-22.7 -118.95L-84.8 -87.85L-84.8 -87.8M-19.85,-64.6L-23.45 -66.4" />
<path style="fill:none;stroke-width:1;stroke-linecap:round;stroke-linejoin:round;stroke-miterlimit:3;stroke:#505050;stroke-opacity:1" d="M75.2,-60.3L82.4 -63.9" />
<path style="fill:none;stroke-width:1;stroke-linecap:round;stroke-linejoin:round;stroke-miterlimit:3;stroke:#555555;stroke-opacity:1" d="M51,-82.05L52.35 -81.4L75.2 -69.9M27.35,-93.9L43.35 -85.9L45.55 -84.8M51,-82.05L50.7 -82.2L45.55 -84.8" />
<path style="fill:none;stroke-width:1;stroke-linecap:round;stroke-linejoin:round;stroke-miterlimit:3;stroke:#274727;stroke-opacity:1" d="M12.85,-86.65Q12.1 -86.3 11.5 -86.3Q10.25 -86.3 10.15 -87.8Q10.05 -89.3 11.15 -91.4Q12 -93.15 13.25 -94.45L13.85 -95.1L15.2 -96.05L15.7 -96.35L19.1 -98.05L29.3 -103.15Q29.55 -104.15 31.15 -104.1L39.75 -108.4M31.15,-104.1L32.25 -104.1Q33.8 -103.95 34.95 -102.35Q36.05 -100.8 36.05 -98.9L36 -98.25L43.35 -101.95L45.55 -103.05L48 -104.25M36,-98.25Q34.8 -96.55 32.95 -96.75Q33 -97.2 33.2 -97.5L33.45 -98.55Q33.45 -100.55 32.3 -101.55Q31.5 -102.3 29.3 -103.15M32.95,-96.75L27.35 -93.9M15.7,-96.35L16.75 -96.55Q17.95 -96.6 18.05 -95.1Q18.15 -93.9 17.5 -92.3L17.1 -91.4Q16 -89.3 14.35 -87.8L12.85 -86.65L20.85 -90.65L27.35 -93.9" />
<path style="fill:none;stroke-width:1;stroke-linecap:round;stroke-linejoin:round;stroke-miterlimit:3;stroke:#525252;stroke-opacity:1" d="M-19.85,-111.05Q-23.85 -103.3 -21.05 -95.1Q-18.4 -87.5 -9.85 -79.55" />
</g>
</svg>
