<?xml version="1.0" encoding="utf-8"?>
<svg version="1.1" id="Layer_1"
xmlns="http://www.w3.org/2000/svg"
xmlns:xlink="http://www.w3.org/1999/xlink"
xmlns:author="http://www.sothink.com"
width="51px" height="94px"
xml:space="preserve">
<g id="433" transform="matrix(1, 0, 0, 1, 38, 92.5)">
<path style="fill:#886037;fill-opacity:1" d="M9.5,-66.15Q1.1 -49.65 -12.1 -36.85L-12.4 -26.2Q-5.45 -31 -1.6 -42.1Q-0.6 -43.85 0.45 -43.65L0.45 -41.95Q-0.95 -40.1 -1.8 -38Q-5.05 -29.05 -12.6 -22.3Q-13.35 -11.2 -14.95 -1.2L-15.4 0L-16.4 0.05Q-17.7 0.1 -18.25 -0.7L-16.8 -15.05Q-24.4 -26.65 -30.15 -43.85L-30.7 -46.55L-31.1 -48.7L-30.9 -49.9L-29.8 -49.35Q-29.45 -49.05 -29.45 -48.15Q-29.45 -47.65 -29.75 -46.65Q-24 -31.35 -16.5 -18.8Q-16.1 -25.1 -15.85 -31.4Q-23.15 -38.6 -27.1 -52.35L-27.1 -54.65L-26.65 -54.65L-26.4 -54.4Q-21.9 -40.7 -15.8 -34.35L-15.7 -48.15Q-25.45 -53.6 -35.4 -64.4L-36.85 -66.4Q-37.55 -67.6 -37.5 -68.1Q-37.55 -69.25 -36.05 -69.6Q-23.65 -54.8 -15.8 -51.95L-15.85 -54.8Q-21.55 -59.05 -24.75 -69.65L-25.15 -70.3L-25.95 -71.65Q-26.3 -72.25 -26.3 -73.5Q-26.3 -75.55 -25 -75.85Q-21.65 -63.75 -16.05 -59.8Q-16.7 -72.6 -18.25 -85.3Q-18.75 -87.65 -20.5 -91.3Q-19.95 -91.95 -18.65 -92Q-17.2 -92.05 -16.85 -90.75L-16.75 -88.3Q-16.75 -86.9 -16.1 -86.4Q-15.2 -85.7 -14.85 -85Q-13 -68.75 -12.4 -54.05Q-6.15 -64.5 -2.95 -77.95L-2.55 -78.1Q-2.05 -77.9 -1.7 -76Q-1.7 -75.25 -2.4 -74L-3.35 -71.35Q-6.35 -59.15 -12.2 -49L-12.1 -41.5Q1.6 -54.4 10.5 -72.45L11.5 -73.75L11.8 -73.75L11.8 -71.85Q11 -70.5 10.55 -68.85L10.05 -67.25L9.5 -66.15" />
<path style="fill:none;stroke-width:1;stroke-linecap:round;stroke-linejoin:round;stroke-miterlimit:3;stroke:#533A22;stroke-opacity:1" d="M9.5,-66.15Q1.1 -49.65 -12.1 -36.85L-12.4 -26.2Q-5.45 -31 -1.6 -42.1Q-0.6 -43.85 0.45 -43.65L0.45 -41.95Q-0.95 -40.1 -1.8 -38Q-5.05 -29.05 -12.6 -22.3Q-13.35 -11.2 -14.95 -1.2L-15.4 0L-16.4 0.05Q-17.7 0.1 -18.25 -0.7L-16.8 -15.05Q-24.4 -26.65 -30.15 -43.85L-30.7 -46.55L-31.1 -48.7L-30.9 -49.9L-29.8 -49.35Q-29.45 -49.05 -29.45 -48.15Q-29.45 -47.65 -29.75 -46.65Q-24 -31.35 -16.5 -18.8Q-16.1 -25.1 -15.85 -31.4Q-23.15 -38.6 -27.1 -52.35L-27.1 -54.65L-26.65 -54.65L-26.4 -54.4Q-21.9 -40.7 -15.8 -34.35L-15.7 -48.15Q-25.45 -53.6 -35.4 -64.4L-36.85 -66.4Q-37.55 -67.6 -37.5 -68.1Q-37.55 -69.25 -36.05 -69.6Q-23.65 -54.8 -15.8 -51.95L-15.85 -54.8Q-21.55 -59.05 -24.75 -69.65L-25.15 -70.3L-25.95 -71.65Q-26.3 -72.25 -26.3 -73.5Q-26.3 -75.55 -25 -75.85Q-21.65 -63.75 -16.05 -59.8Q-16.7 -72.6 -18.25 -85.3Q-18.75 -87.65 -20.5 -91.3Q-19.95 -91.95 -18.65 -92Q-17.2 -92.05 -16.85 -90.75L-16.75 -88.3Q-16.75 -86.9 -16.1 -86.4Q-15.2 -85.7 -14.85 -85Q-13 -68.75 -12.4 -54.05Q-6.15 -64.5 -2.95 -77.95L-2.55 -78.1Q-2.05 -77.9 -1.7 -76Q-1.7 -75.25 -2.4 -74L-3.35 -71.35Q-6.35 -59.15 -12.2 -49L-12.1 -41.5Q1.6 -54.4 10.5 -72.45L11.5 -73.75L11.8 -73.75L11.8 -71.85Q11 -70.5 10.55 -68.85L10.05 -67.25L9.5 -66.15M-15.85,-54.8L-16.05 -59.8M-15.85,-31.4L-15.8 -34.35M-12.4,-26.2L-12.6 -22.3M-12.2,-49L-12.4 -54.05" />
</g>
</svg>
