<?xml version="1.0" encoding="utf-8"?>
<svg version="1.1" id="Layer_1"
xmlns="http://www.w3.org/2000/svg"
xmlns:xlink="http://www.w3.org/1999/xlink"
xmlns:author="http://www.sothink.com"
width="22px" height="5px"
xml:space="preserve">
<g id="680" transform="matrix(1, 0, 0, 1, 10.4, 13.1)">
<path style="fill:#FFFFFF;fill-opacity:1" d="M10.35,-11.1L10.35 -10.65Q7.65 -10.65 5.75 -9.5L5.6 -9.4L5.1 -9.05L5.6 -10.1Q5.9 -10.95 6.5 -11.6L6.55 -11.7Q7.7 -13 9.3 -12.95L10.35 -12.85L10.35 -12.2L10.45 -11.65L10.35 -11.1M0.75,-12.2L1.25 -12.1L0.45 -8.6L0.55 -8.45Q0.45 -8.25 0.65 -8.2Q0.15 -8.25 -0.15 -8.6L-0.75 -9.8Q-1.65 -10.8 -1.3 -11.9L-0.95 -12.55L-0.3 -12.4L0.25 -12.4L0.75 -12.2M-9.7,-12.25L-9.65 -12.9L-8.6 -13.1L-8.05 -13.1Q-6.6 -12.95 -5.55 -11.85L-4.7 -10.3L-4.2 -9.25L-4.75 -9.6L-4.9 -9.7L-6.4 -10.3L-9.75 -10.65L-9.7 -11.15L-9.9 -11.7L-9.7 -12.25" />
<path style="fill:none;stroke-width:1;stroke-linecap:round;stroke-linejoin:round;stroke-miterlimit:3;stroke:#FFFFFF;stroke-opacity:1" d="M10.35,-12.2L10.45 -11.65L10.35 -11.1M-0.3,-12.4L0.25 -12.4L0.75 -12.2M-9.7,-11.15L-9.9 -11.7L-9.7 -12.25" />
</g>
</svg>
