<?xml version="1.0" encoding="utf-8"?>
<svg version="1.1" id="Layer_1"
xmlns="http://www.w3.org/2000/svg"
xmlns:xlink="http://www.w3.org/1999/xlink"
xmlns:author="http://www.sothink.com"
width="19px" height="18px"
xml:space="preserve">
<g id="477" transform="matrix(1, 0, 0, 1, 9.4, 16.75)">
<path style="fill:#AC894A;fill-opacity:1" d="M1.15,-7.9L1.1 -7.85L1 -7.75L0.95 -7.65L0.95 -7.55L0.9 -7.45L0.95 -7.4L0.95 -7.3L1.05 -7.2L1.15 -7.1L1.4 -7L1.15 -6.95L0.9 -6.9L0.8 -6.8L0.7 -6.7L0.6 -6.6L0.6 -6.55L0.6 -6.35L0.6 -6.05L0.6 -5.9L0.6 -5.8L0.7 -5.7L0.85 -5.6L1 -5.55L1.15 -5.45L2.05 -5.2L2.6 -5.15L2.7 -5.1L2.85 -5.05L2.2 -4.6L1.7 -4.1L1.65 -4.05L1.65 -3.95L1.65 -3.85L1.65 -3.75L1.6 -3.65L1.6 -3.55L1.6 -3.45L1.6 -3.4L1.6 -3.3L1.6 -3.2L1.6 -3.1L1.65 -3L1.7 -2.9L1.65 -2.8L0.25 -2.6L0.15 -2.55L0.1 -2.5L0 -2.4L-0.05 -2.3L-0.05 -2.2L-0.1 -2.15L-0.05 -2.05L-0.05 -1.95L0.05 -1.85L0.15 -1.75L1.9 -1.9L2.1 -1.95L2.4 -2.05L2.6 -2.1L2.75 -2.2L2.85 -2.3L2.9 -2.4L2.95 -2.45L3 -2.55L3 -2.65L3 -2.75L2.95 -2.95L2.85 -3.15L2.8 -3.2L2.75 -3.3L2.6 -3.4L2.6 -3.5L2.6 -3.6L2.65 -3.7L3.05 -4.1L3.55 -4.3L3.6 -4.35L3.7 -4.4L3.75 -4.5L3.85 -4.6L3.85 -4.7L3.85 -4.9L3.85 -5.05L3.85 -5.15L3.85 -5.25L3.8 -5.45L3.75 -5.55L3.7 -5.65L3.65 -5.7L3.5 -5.8L3.35 -5.9L3.15 -5.95L3.1 -6L3 -6.05L2.8 -6.1L2.15 -6.15L2.6 -6.25L2.95 -6.3L3 -6.35L3.1 -6.4L3.15 -6.5L3.25 -6.6L3.25 -6.7L3.25 -6.9L3.25 -7.05L3.25 -7.15L3.25 -7.25L3.25 -7.35L3.2 -7.45L3.15 -7.55L3 -7.7L2.9 -7.8L2.75 -7.9L2.55 -7.95L1.4 -7.95L1.25 -7.95L1.15 -7.9M-8.85,-7.35L-8.6 -8.3Q-7.9 -10.7 -5.65 -11.7L-1.3 -11.65L-1.2 -11.65Q3.15 -10.35 7.1 -5.5L7.1 0L-8.9 -3L-8.9 -6.85L-8.85 -7.35M-2.8,-9.85L-2.8 -9.65L-2.65 -9.4L-2.45 -9.1L-1.25 -9L-0.75 -9.55L-0.75 -9.6L-0.7 -9.75L-0.7 -9.9L-0.7 -9.95L-0.75 -10.1L-0.8 -10.15L-0.8 -10.2L-0.85 -10.25L-1.15 -10.45L-1.65 -10.55L-1.8 -10.55L-2.05 -10.6L-2.3 -10.5L-2.55 -10.3L-2.6 -10.25L-2.7 -10.1L-2.7 -10.05L-2.7 -9.95L-2.8 -9.85M-4.45,-9.4L-5.35 -9.45L-5.5 -9.45L-5.6 -9.4L-5.65 -9.35L-5.75 -9.25L-5.8 -9.15L-5.8 -9.05L-5.85 -8.95L-5.8 -8.9L-5.8 -8.8L-5.7 -8.7L-5.6 -8.6L-4.75 -8.45Q-5.05 -8.15 -5.45 -7.95L-5.6 -7.8L-5.65 -7.7L-5.7 -7.4L-5.65 -6.85L-5.7 -6.55L-5.7 -6.45L-5.8 -6.35L-5.85 -6.3L-5.9 -6.2L-6.45 -5.7L-6.7 -5.45L-6.8 -5.35L-6.8 -5.25L-6.85 -5.05L-6.85 -4.95L-6.8 -4.9L-6.8 -4.8L-6.7 -4.7L-6.65 -4.6L-6.6 -4.5L-6.65 -4.4L-6.65 -4.3L-6.65 -4.2L-6.65 -4.15L-6.65 -4.05L-6.55 -3.95L-6.4 -3.85L-6.2 -3.8L-6.05 -3.8L-5.45 -4.25L-5.3 -4.45L-5.25 -4.55L-5.25 -4.65L-5.25 -4.7L-5.25 -4.8L-5.25 -4.9L-5.35 -5L-5.4 -5.1L-5.5 -5.2L-5.55 -5.3L-5.45 -5.35L-5.35 -5.45L-5.2 -5.55L-5.05 -5.65L-5 -5.75L-4.85 -5.95L-4.8 -6.05L-4.75 -6.15L-4.75 -6.2L-4.75 -6.6L-4.75 -6.95L-4.75 -7.15L-4.75 -7.25L-4.6 -7.35L-4.35 -7.55L-4.2 -7.65L-4.1 -7.7L-3.85 -8.1L-3.7 -8.3L-3.65 -8.4L-3.65 -8.45L-3.65 -8.55L-3.65 -8.65L-3.65 -8.75L-3.7 -8.95L-3.75 -9.05L-3.8 -9.15L-3.85 -9.2L-4 -9.3L-4.45 -9.4M-1.4,-6.85L-1.95 -6.25L-2.55 -5.65L-2.6 -5.55L-2.6 -5.45L-2.65 -5.35L-2.65 -5.25L-2.65 -5.05L-2.65 -4.9L-2.65 -4.8L-2.65 -4.7L-2.4 -4.5L-2.25 -4.4L-2.25 -4.3L-2.35 -4.05L-2.5 -3.75L-2.6 -3.55L-2.6 -3.45L-2.55 -3.4L-2.55 -3.3L-2.45 -3.2L-2.35 -3.1L-2.1 -3.05L-1.95 -3.05L-1.9 -3.1L-1.8 -3.15L-1.7 -3.25L-1.6 -3.35L-1.55 -3.45L-1.45 -3.7L-1.35 -4L-1.25 -4.2L-1.25 -4.4L-1.25 -4.55L-1.25 -4.65L-1.25 -4.75L-1.25 -4.85L-1.3 -4.95L-1.35 -5.05L-1.4 -5.15L-1.5 -5.25L-1.5 -5.3L-1.4 -5.4L-1.3 -5.5L-1.25 -5.6L-1.2 -5.7L-1.15 -5.8L-1.1 -5.9L-0.8 -6.05L-0.65 -6.15L-0.6 -6.25L-0.5 -6.35L-0.5 -6.45L-0.5 -6.55L-0.5 -6.65L-0.55 -6.7L-0.6 -6.8L-0.75 -6.9L-0.95 -6.95L-1.1 -6.95L-1.25 -6.95L-1.35 -6.9L-1.4 -6.85" />
<path style="fill:#000000;fill-opacity:1" d="M1.25,-7.95L1.4 -7.95L2.55 -7.95L2.75 -7.9L2.9 -7.8L3 -7.7L3.15 -7.55L3.2 -7.45L3.25 -7.35L3.25 -7.25L3.25 -7.15L3.25 -7.05L3.25 -6.9L3.25 -6.7L3.25 -6.6L3.15 -6.5L3.1 -6.4L3 -6.35L2.95 -6.3L2.6 -6.25L2.15 -6.15L2.8 -6.1L3 -6.05L3.1 -6L3.15 -5.95L3.35 -5.9L3.5 -5.8L3.65 -5.7L3.7 -5.65L3.75 -5.55L3.8 -5.45L3.85 -5.25L3.85 -5.15L3.85 -5.05L3.85 -4.9L3.85 -4.7L3.85 -4.6L3.75 -4.5L3.7 -4.4L3.6 -4.35L3.55 -4.3L3.05 -4.1L2.65 -3.7L2.6 -3.6L2.6 -3.5L2.6 -3.4L2.75 -3.3L2.8 -3.2L2.85 -3.15L2.95 -2.95L3 -2.75L3 -2.65L3 -2.55L2.95 -2.45L2.9 -2.4L2.85 -2.3L2.75 -2.2L2.6 -2.1L2.4 -2.05L2.1 -1.95L1.9 -1.9L0.15 -1.75L0.05 -1.85L-0.05 -1.95L-0.05 -2.05L-0.1 -2.15L-0.05 -2.2L-0.05 -2.3L0 -2.4L0.1 -2.5L0.15 -2.55L0.25 -2.6L1.65 -2.8L1.7 -2.9L1.65 -3L1.6 -3.1L1.6 -3.2L1.6 -3.3L1.6 -3.4L1.6 -3.45L1.6 -3.55L1.6 -3.65L1.65 -3.75L1.65 -3.85L1.65 -3.95L1.65 -4.05L1.7 -4.1L2.2 -4.6L2.85 -5.05L2.7 -5.1L2.6 -5.15L2.05 -5.2L1.15 -5.45L1 -5.55L0.85 -5.6L0.7 -5.7L0.6 -5.8L0.6 -5.9L0.6 -6.05L0.6 -6.35L0.6 -6.55L0.6 -6.6L0.7 -6.7L0.8 -6.8L0.9 -6.9L1.15 -6.95L1.4 -7L1.15 -7.1L1.05 -7.2L0.95 -7.3L0.95 -7.4L0.9 -7.45L0.95 -7.55L0.95 -7.65L1 -7.75L1.1 -7.85L1.15 -7.9L1.25 -7.95M-1.15,-10.45L-0.85 -10.25L-0.8 -10.2L-0.8 -10.15L-0.75 -10.1L-0.7 -9.95L-0.7 -9.9L-0.7 -9.75L-0.75 -9.6L-0.75 -9.55L-1.25 -9L-2.45 -9.1L-2.65 -9.4L-2.7 -9.55L-2.7 -9.7L-2.7 -9.75L-2.7 -9.85L-2.7 -9.95L-2.7 -10.05L-2.7 -10.1L-2.6 -10.25L-2.55 -10.3L-2.3 -10.5L-2.05 -10.6L-1.8 -10.55L-1.65 -10.55L-1.15 -10.45M-4,-9.3L-3.85 -9.2L-3.8 -9.15L-3.75 -9.05L-3.7 -8.95L-3.65 -8.75L-3.65 -8.65L-3.65 -8.55L-3.65 -8.45L-3.65 -8.4L-3.7 -8.3L-3.85 -8.1L-4.1 -7.7L-4.2 -7.65L-4.35 -7.55L-4.6 -7.35L-4.75 -7.25L-4.75 -7.15L-4.75 -6.95L-4.75 -6.6L-4.75 -6.2L-4.75 -6.15L-4.8 -6.05L-4.85 -5.95L-5 -5.75L-5.05 -5.65L-5.2 -5.55L-5.35 -5.45L-5.45 -5.35L-5.55 -5.3L-5.5 -5.2L-5.4 -5.1L-5.35 -5L-5.25 -4.9L-5.25 -4.8L-5.25 -4.7L-5.25 -4.65L-5.25 -4.55L-5.3 -4.45L-5.45 -4.25L-6.05 -3.8L-6.2 -3.8L-6.4 -3.85L-6.55 -3.95L-6.65 -4.05L-6.65 -4.15L-6.65 -4.2L-6.65 -4.3L-6.65 -4.4L-6.6 -4.5L-6.65 -4.6L-6.7 -4.7L-6.8 -4.8L-6.8 -4.9L-6.85 -4.95L-6.85 -5.05L-6.8 -5.25L-6.8 -5.35L-6.7 -5.45L-6.45 -5.7L-5.9 -6.2L-5.85 -6.3L-5.8 -6.35L-5.7 -6.45L-5.7 -6.55L-5.65 -6.85L-5.7 -7.4L-5.65 -7.7L-5.6 -7.8L-5.45 -7.95Q-5.05 -8.15 -4.75 -8.45L-5.6 -8.6L-5.7 -8.7L-5.8 -8.8L-5.8 -8.9L-5.85 -8.95L-5.8 -9.05L-5.8 -9.15L-5.75 -9.25L-5.65 -9.35L-5.6 -9.4L-5.5 -9.45L-5.35 -9.45L-4.45 -9.4L-4 -9.3M-1.35,-6.9L-1.25 -6.95L-1.1 -6.95L-0.95 -6.95L-0.75 -6.9L-0.6 -6.8L-0.55 -6.7L-0.5 -6.65L-0.5 -6.55L-0.5 -6.45L-0.5 -6.35L-0.6 -6.25L-0.65 -6.15L-0.8 -6.05L-1.1 -5.9L-1.15 -5.8L-1.2 -5.7L-1.25 -5.6L-1.3 -5.5L-1.4 -5.4L-1.5 -5.3L-1.5 -5.25L-1.4 -5.15L-1.35 -5.05L-1.3 -4.95L-1.25 -4.85L-1.25 -4.75L-1.25 -4.65L-1.25 -4.55L-1.25 -4.4L-1.25 -4.2L-1.35 -4L-1.45 -3.7L-1.55 -3.45L-1.6 -3.35L-1.7 -3.25L-1.8 -3.15L-1.9 -3.1L-1.95 -3.05L-2.1 -3.05L-2.35 -3.1L-2.45 -3.2L-2.55 -3.3L-2.55 -3.4L-2.6 -3.45L-2.6 -3.55L-2.5 -3.75L-2.35 -4.05L-2.25 -4.3L-2.25 -4.4L-2.4 -4.5L-2.65 -4.7L-2.65 -4.8L-2.65 -4.9L-2.65 -5.05L-2.65 -5.25L-2.65 -5.35L-2.6 -5.45L-2.6 -5.55L-2.55 -5.65L-1.95 -6.25L-1.4 -6.85L-1.35 -6.9" />
<path style="fill:#806637;fill-opacity:1" d="M-5.65,-11.7L-5.4 -11.8Q-3.35 -12.7 -0.9 -12.7L-0.75 -12.7Q1.4 -12.75 3.45 -11.75Q5.65 -10.6 7.3 -8.9Q8.7 -7.4 8.9 -5.3Q9.1 -2.8 8.55 -0.45L7.1 0L7.1 -5.5Q3.15 -10.35 -1.2 -11.65L-1.3 -11.65L-5.65 -11.7" />
<path style="fill:#333333;fill-opacity:1" d="M-2.7,-9.95L-2.7 -9.85L-2.7 -9.75L-2.7 -9.7L-2.7 -9.55L-2.65 -9.4L-2.8 -9.65L-2.8 -9.85L-2.7 -9.95" />
<path style="fill:none;stroke-width:1;stroke-linecap:round;stroke-linejoin:round;stroke-miterlimit:3;stroke:#CC0000;stroke-opacity:1" d="M-0.75,-12.7L-1.2 -11.65M-0.75,-12.7L-0.45 -13.35L1.1 -16.25M-1.65,-10.55L-1.85 -9.85M-1.65,-10.55L-1.2 -11.65" />
<path style="fill:none;stroke-width:1;stroke-linecap:round;stroke-linejoin:round;stroke-miterlimit:3;stroke:#524223;stroke-opacity:1" d="M-1.2,-11.65Q3.15 -10.35 7.1 -5.5L7.1 0L8.55 -0.45Q9.1 -2.8 8.9 -5.3Q8.7 -7.4 7.3 -8.9Q5.65 -10.6 3.45 -11.75Q1.4 -12.75 -0.75 -12.7M7.1,0L-8.9 -3L-8.9 -6.85L-8.9 -7.25L-8.85 -7.35L-8.6 -8.3Q-7.9 -10.7 -5.65 -11.7L-5.4 -11.8Q-3.35 -12.7 -0.9 -12.7L-0.75 -12.7M-1.2,-11.65L-1.3 -11.65L-5.65 -11.7M-8.9,-6.85L-8.85 -7.35" />
</g>
</svg>
