<?xml version="1.0" encoding="utf-8"?>
<svg version="1.1" id="Layer_1"
xmlns="http://www.w3.org/2000/svg"
xmlns:xlink="http://www.w3.org/1999/xlink"
xmlns:author="http://www.sothink.com"
width="46px" height="36px"
xml:space="preserve">
<g id="851" transform="matrix(1, 0, 0, 1, 22.05, 43.5)">
<path style="fill:#000000;fill-opacity:1" d="M-14,-24.5Q-15.1 -29 -13.3 -32.55Q-11.3 -36.4 -7.25 -35.65L13.55 -35.6L13.5 -24.15Q13.75 -17.2 15.2 -13.6Q15.9 -11.9 15.8 -11.3Q15.75 -10.75 15 -10.25Q14.35 -9.8 13 -9.75L10.75 -9.85L2.9 -8.9Q-1.1 -8.9 -5 -10.75L-10.1 -11.05Q-12.85 -11.75 -15.2 -13.25L-14 -24.5" />
<path style="fill:none;stroke-width:0.5;stroke-linecap:round;stroke-linejoin:round;stroke-miterlimit:3;stroke:#333333;stroke-opacity:1" d="M10.75,-9.85L13 -9.75Q14.35 -9.8 15 -10.25Q15.75 -10.75 15.8 -11.3Q15.9 -11.9 15.2 -13.6Q13.75 -17.2 13.5 -24.15L13.55 -35.6L-7.25 -35.65Q-11.3 -36.4 -13.3 -32.55Q-15.1 -29 -14 -24.5L-15.2 -13.25" />
<path style="fill:none;stroke-width:1;stroke-linecap:round;stroke-linejoin:round;stroke-miterlimit:3;stroke:#000000;stroke-opacity:1" d="M-15.2,-13.25Q-12.85 -11.75 -10.1 -11.05L-5 -10.75Q-1.1 -8.9 2.9 -8.9L10.75 -9.85" />
<path style="fill:#000000;fill-opacity:1" d="M-1.9,-32.75L-2 -33L-2.5 -33L-2.55 -33.1L-2.65 -33.15L-2.95 -33.1L-3.55 -32.9L-3.65 -32.9L-6.9 -33.3Q-9.1 -33.45 -11.2 -32.15Q-13.1 -30.95 -13.7 -29.45Q-14.55 -27.15 -12.5 -22.55L-12.95 -13.35L-14.85 -13L-18 -15.5L-17.25 -24.5L-16.25 -28.85L-15.85 -34.85L-17.4 -35.6L-22.05 -36.4L-17.5 -43.5L-14.15 -41.15L-2.75 -38.3L0.8 -38.3L4.85 -39.15L18.25 -41.9L23.5 -33.35L19.7 -34.5L17.15 -33.55L17.1 -33.55L17.2 -33L18.15 -22.95L18.15 -17.5L18.5 -13.85L18.8 -12.55L18.6 -12.4L18.4 -12.25L18.15 -12.05L16.35 -10.8L11.1 -9.25L11.85 -10.85L14.85 -11L11.85 -18.5Q12.55 -20.1 10.95 -21.25Q9.05 -22.6 9 -23.05L11.65 -28.15Q11.15 -29 10.95 -30.75Q10.65 -31.85 9.55 -32L8.95 -32.05L7.45 -32.3L5.75 -32L2.95 -32.15L-1.85 -32.75L-1.85 -32.6L-1.9 -32.75M16.05,-33.45L16.1 -33.55Q14.7 -33.7 15.15 -33.3L15.65 -33.25L16.05 -33.45" />
<path style="fill:none;stroke-width:1;stroke-linecap:round;stroke-linejoin:round;stroke-miterlimit:3;stroke:#CCCCCC;stroke-opacity:1" d="M-17.4,-35.6L-15.85 -34.85L-6.9 -33.3L-3.65 -32.9L-3.55 -32.9M-1.9,-32.75L-1.85 -32.75L2.95 -32.15L5.75 -32L7.45 -32.3L8.95 -32.05L9.55 -32L15.15 -33.3L15.65 -33.25L16.05 -33.45M16.1,-33.55L16.05 -33.45L17.1 -33.55L17.15 -33.55L19.7 -34.5M-1.9,-32.75L-3.55 -32.9" />
<path style="fill:none;stroke-width:1.2;stroke-linecap:round;stroke-linejoin:round;stroke-miterlimit:3;stroke:#000000;stroke-opacity:1" d="M16.35,-10.8L18.15 -12.05M18.6,-12.4L18.8 -12.55L18.5 -13.85L18.15 -17.5" />
<path style="fill:none;stroke-width:1;stroke-linecap:round;stroke-linejoin:round;stroke-miterlimit:3;stroke:#000000;stroke-opacity:1" d="M-6.9,-33.3Q-9.1 -33.45 -11.2 -32.15Q-13.1 -30.95 -13.7 -29.45M-14.85,-13L-18 -15.5L-17.25 -24.5L-16.25 -28.85L-15.85 -34.85" />
<path style="fill:none;stroke-width:1;stroke-linecap:round;stroke-linejoin:round;stroke-miterlimit:3;stroke:#FFFFFF;stroke-opacity:1" d="M0.75,-26.5L1.05 -26.55L1.1 -26.45L6.8 -26.25L3.75 -22.7L6.75 -18.45L0.6 -18.7L-1.95 -16.15L-3.7 -18.85L-3.75 -18.85L-4.05 -19.35L-4.5 -18.85L-10.05 -19.85L-8.25 -22.2L-7.15 -23.45L-6.9 -23.65L-9.55 -27.65L-4.65 -26.45L-4.25 -26.95L-4.05 -26.3L-3.45 -27.95L-1.55 -30.25L0.3 -27.6L0.75 -26.5L1.1 -26.45L3.3 -23.5L3.7 -22.75L3.75 -22.7L0.6 -18.7L0.35 -19L-0.6 -19.05L-3.7 -18.85L-4.05 -19.35L-6.9 -23.65L-6.8 -23.8L-4.65 -26.45L-4.05 -26.3L0.75 -26.5z" />
</g>
</svg>
