<?xml version="1.0" encoding="utf-8"?>
<svg version="1.1" id="Layer_1"
xmlns="http://www.w3.org/2000/svg"
xmlns:xlink="http://www.w3.org/1999/xlink"
xmlns:author="http://www.sothink.com"
width="231px" height="104px"
xml:space="preserve">
<g id="585" transform="matrix(1, 0, 0, 1, 187.85, 159.25)">
<path style="fill:#F0F0F0;fill-opacity:1" d="M6.2,-61.6L-0.35 -64.9L1.2 -65.4L0.9 -64.7L3.75 -65.6L8.75 -63.1L22.3 -69.75L18.75 -70.95L21.65 -71.9L24.6 -70.85L35.4 -76.2L42.2 -78.35L42.4 -77.6L42.35 -77.2L42 -76.55L41.5 -76.25L41.15 -76.15L40.8 -76.1L40.6 -76L40.3 -75.85L39.65 -75.5L7.65 -59.7Q7 -59.75 6.6 -60.15L6.45 -60.3Q6.2 -60.6 6.2 -61L6.15 -61.2L6.2 -61.6M37.7,-59.55L37.8 -59.5Q38.35 -58.9 38.35 -58.05Q38.35 -57.15 37.7 -56.55L37.25 -56.15L24.3 -67.85L24.95 -68.15L26.85 -69.1L36.75 -60.15L37.7 -59.55M-179.65,-157.4L-179.4 -154.4L-186.6 -158L-185.55 -158.35L-185.8 -157.65L-182.4 -158.75L-179.65 -157.4M-165.2,-150.15L-164.95 -147.2L-172.15 -150.8L-171.05 -151.15L-171.3 -150.45L-167.95 -151.5L-165.2 -150.15M-86.3,-107.85L-85 -108.3L-85.25 -107.6L-82.1 -108.6L-79.1 -107.1L-78.8 -104.1L-86.3 -107.85M-64.8,-99.95L-64.5 -96.95L-71.9 -100.65L-70.5 -101.1L-70.75 -100.4L-67.65 -101.4L-64.8 -99.95M-143.5,-136.45L-142.3 -136.85L-142.55 -136.15L-139.25 -137.2L-136.4 -135.75L-136.15 -132.75L-143.5 -136.45M-122.1,-128.6L-121.8 -125.6L-129.05 -129.25L-127.8 -129.65L-128.05 -128.95L-124.85 -129.95L-122.1 -128.6M-157.7,-143.6L-156.6 -143.95L-156.85 -143.25L-153.5 -144.3L-150.95 -143L-150.65 -140.05L-157.7 -143.6M-113.5,-122.55L-113.75 -121.85L-110.6 -122.85L-107.9 -121.5L-107.6 -118.5L-114.8 -122.1L-113.5 -122.55M-93.6,-114.35L-93.3 -111.35L-100.55 -115L-99.3 -115.4L-99.55 -114.7L-96.35 -115.7L-93.6 -114.35M-43.3,-86.35L-41.85 -86.8L-42.1 -86.1L-39.1 -87.05L-36.15 -85.6L-35.85 -82.6L-43.3 -86.35M-29.05,-79.2L-27.55 -79.7L-27.8 -79L-24.85 -79.95L-21.65 -78.35L-21.35 -75.35L-29.05 -79.2M-7.35,-71.15L-7.05 -68.2L-14.6 -72L-13.05 -72.5L-13.3 -71.8L-10.45 -72.7L-7.35 -71.15M-57.65,-93.5L-56.2 -94L-56.45 -93.3L-53.45 -94.25L-50.45 -92.75L-50.15 -89.75L-57.65 -93.5" />
<path style="fill:none;stroke-width:1;stroke-linecap:round;stroke-linejoin:round;stroke-miterlimit:3;stroke:#F0F0F0;stroke-opacity:1" d="M36.75,-60.15L37.7 -59.55" />
<path style="fill:none;stroke-width:1;stroke-linecap:round;stroke-linejoin:round;stroke-miterlimit:3;stroke:#FFFFFF;stroke-opacity:1" d="M24.95,-68.15L37.6 -57" />
<path style="fill:none;stroke-width:1;stroke-linecap:round;stroke-linejoin:round;stroke-miterlimit:3;stroke:#F0F0F0;stroke-opacity:1" d="M-0.35,-64.9L6.2 -61.6M-186.6,-158L-179.4 -154.4M-172.15,-150.8L-164.95 -147.2M-86.3,-107.85L-78.8 -104.1M-71.9,-100.65L-64.5 -96.95M-143.5,-136.45L-136.15 -132.75M-129.05,-129.25L-121.8 -125.6M-157.7,-143.6L-150.65 -140.05M-114.8,-122.1L-107.6 -118.5M-100.55,-115L-93.3 -111.35M-43.3,-86.35L-35.85 -82.6M-29.05,-79.2L-21.35 -75.35M-14.6,-72L-7.05 -68.2M-57.65,-93.5L-50.15 -89.75" />
<path style="fill:none;stroke-width:1;stroke-linecap:round;stroke-linejoin:round;stroke-miterlimit:3;stroke:#737373;stroke-opacity:1" d="M42.2,-78.35L42.4 -77.6L42.35 -77.2L42 -76.55L41.5 -76.25L41.15 -76.15L40.8 -76.1L40.6 -76L40.3 -75.85L39.65 -75.5L7.65 -59.7Q7 -59.75 6.6 -60.15L6.45 -60.3Q6.2 -60.6 6.2 -61L-1.1 -64.65M6.2,-61L6.15 -61.2L6.2 -61.6L6.6 -62.3Q7 -62.7 7.65 -62.7L7.9 -62.7L8.75 -63.1L3.75 -65.6M8.75,-63.1L22.3 -69.75L18.75 -70.95M21.65,-71.9L24.6 -70.85L35.4 -76.2M22.3,-69.75L24.6 -70.85M37.7,-59.55L37.8 -59.5Q38.35 -58.9 38.35 -58.05Q38.35 -57.15 37.7 -56.55L37.25 -56.15L24.3 -67.85L24.95 -68.15L26.85 -69.1L36.75 -60.15M-179.65,-157.4L-182.4 -158.75M-165.2,-150.15L-167.95 -151.5M-179.3,-153.75L-187.35 -157.75M-164.85,-146.5L-172.9 -150.55M-79.1,-107.1L-82.1 -108.6M-64.8,-99.95L-67.65 -101.4M-136.4,-135.75L-139.25 -137.2M-122.1,-128.6L-124.85 -129.95M-121.75,-124.95L-129.8 -129M-150.95,-143L-153.5 -144.3M-150.55,-139.35L-158.5 -143.35M-136.05,-132.1L-144.25 -136.2M-107.9,-121.5L-110.6 -122.85M-107.55,-117.9L-115.55 -121.9M-93.6,-114.35L-96.35 -115.7M-93.25,-110.75L-101.3 -114.75M-36.15,-85.6L-39.1 -87.05M-21.65,-78.35L-24.85 -79.95M-21.3,-74.75L-29.75 -79M-7.35,-71.15L-10.45 -72.7M-7,-67.6L-15.35 -71.75M-50.45,-92.75L-53.45 -94.25M-50.1,-89.15L-58.4 -93.3M-35.8,-82L-44 -86.1M-64.45,-96.3L-72.65 -100.4M-78.75,-103.45L-87.05 -107.65" />
</g>
</svg>
