<?xml version="1.0" encoding="utf-8"?>
<svg version="1.1" id="Layer_1"
xmlns="http://www.w3.org/2000/svg"
xmlns:xlink="http://www.w3.org/1999/xlink"
xmlns:author="http://www.sothink.com"
width="44px" height="85px"
xml:space="preserve">
<g id="132" transform="matrix(1, 0, 0, 1, 20.5, 62.3)">
<path style="fill:#565669;fill-opacity:1" d="M21.25,-23.9Q17 -7.7 8.85 5.25L8.65 5.6Q5.65 12 -4.75 16.95Q-11.7 20.3 -20 22.05L-20 0.55Q-6.95 -1.75 3.65 -7.3Q12.95 -12.15 17.5 -18.05Q20 -20.85 21.25 -23.9" />
<path style="fill:#626273;fill-opacity:1" d="M-20,-55.3L-20 -61.8Q-9.2 -59.85 -0.3 -55.6Q3.45 -53.75 6.45 -51.75Q8.5 -50.35 10.15 -48.8L12.5 -46.25Q16.15 -41.75 16.15 -36.5L16.15 -30.4Q15.85 -41.3 -0.3 -49.1Q-9.2 -53.35 -20 -55.3" />
<radialGradient
id="RadialGradID_522" gradientUnits="userSpaceOnUse" gradientTransform="matrix(0.0842285, 0, 0, 0.0842285, -39.85, -0.05)" spreadMethod ="pad" cx="0" cy="0" r="819.2" fx="0" fy="0" >
<stop  offset="0"  style="stop-color:#9C9CA9;stop-opacity:1" />
<stop  offset="1"  style="stop-color:#6D6D7C;stop-opacity:1" />
</radialGradient>
<path style="fill:url(#RadialGradID_522) " d="M17.5,-18.05Q12.95 -12.15 3.65 -7.3Q-6.95 -1.75 -20 0.55L-20 -4.65Q-9.2 -6.65 -0.3 -10.9Q14.9 -18.2 16.1 -28.25L16.05 -28.3L16.15 -29.65L16.15 -30.4L16.15 -36.5Q16.15 -41.75 12.5 -46.25Q16 -43.75 18.25 -41L19.8 -38.85Q22.4 -34.7 22.4 -30Q22.4 -26.85 21.25 -23.9Q20 -20.85 17.5 -18.05" />
<linearGradient
id="LinearGradID_523" gradientUnits="userSpaceOnUse" gradientTransform="matrix(0, 0.0189209, -0.0685425, 0, -40, -35.45)" spreadMethod ="pad" x1="-819.2" y1="0" x2="819.2" y2="0" >
<stop  offset="0" style="stop-color:#393946;stop-opacity:1" />
<stop  offset="1" style="stop-color:#4D4D5E;stop-opacity:1" />
</linearGradient>
<path style="fill:url(#LinearGradID_523) " d="M-0.3,-49.1Q15.85 -41.3 16.15 -30.4L16.15 -29.65L16.05 -28.3L15.85 -26.95L-0.3 -10.9Q-9.2 -6.65 -20 -4.65L-20 -55.3Q-9.2 -53.35 -0.3 -49.1" />
<linearGradient
id="LinearGradID_524" gradientUnits="userSpaceOnUse" gradientTransform="matrix(0.0761719, 0, 0, 0.0296021, -40, -22.05)" spreadMethod ="pad" x1="-819.2" y1="0" x2="819.2" y2="0" >
<stop  offset="0" style="stop-color:#9C9CA9;stop-opacity:1" />
<stop  offset="1" style="stop-color:#6D6D7C;stop-opacity:1" />
</linearGradient>
<path style="fill:url(#LinearGradID_524) " d="M15.85,-26.95L16.05 -28.3L16.1 -28.25Q14.9 -18.2 -0.3 -10.9L15.85 -26.95" />
<path style="fill:none;stroke-width:1;stroke-linecap:round;stroke-linejoin:round;stroke-miterlimit:3;stroke:#545C55;stroke-opacity:1" d="M19.8,-38.85Q22.4 -34.7 22.4 -30Q22.4 -26.85 21.25 -23.9Q17 -7.7 8.85 5.25L8.65 5.6Q5.65 12 -4.75 16.95Q-11.7 20.3 -20 22.05M16.15,-30.4L16.15 -29.65L16.05 -28.3L15.85 -26.95L-0.3 -10.9Q-9.2 -6.65 -20 -4.65M21.25,-23.9Q20 -20.85 17.5 -18.05M16.15,-30.4Q15.85 -41.3 -0.3 -49.1Q-9.2 -53.35 -20 -55.3" />
<path style="fill:none;stroke-width:1;stroke-linecap:round;stroke-linejoin:round;stroke-miterlimit:3;stroke:#777A8E;stroke-opacity:1" d="M-20,-61.8Q-9.2 -59.85 -0.3 -55.6Q3.45 -53.75 6.45 -51.75Q12.8 -48.2 18.25 -41L19.8 -38.85M6.45,-51.75Q8.5 -50.35 10.15 -48.8L12.5 -46.25Q16.15 -41.75 16.15 -36.5L16.15 -30.4" />
<path style="fill:#5B5755;fill-opacity:1" d="M-20,-38.9L-16.1 -37.85Q-9.8 -36 -4.3 -33.1Q1.3 -30.1 4.7 -26.7L4.75 -26.65L4.95 -26.5L6.55 -24.7L7 -24.15L7.4 -23.55L7.85 -22.9L7.95 -22.7L9 -20.9L9.05 -20.8L9.85 -18.55L3.7 -15.6L-3.6 -12.1L-10.9 -8.6L-18.15 -5.1L-20 -4.2L-20 -7L-20 -8.8L-20 -10.5L-20 -15.75L-20 -17.45L-20 -22.7L-20 -24.5L-20 -29.75L-20 -31.5L-20 -36.7L-20 -38.5L-20 -38.9" />
<path style="fill:none;stroke-width:1;stroke-linecap:round;stroke-linejoin:round;stroke-miterlimit:3;stroke:#454241;stroke-opacity:1" d="M-20,-38.9L-16.1 -37.85Q-9.8 -36 -4.3 -33.1Q1.3 -30.1 4.7 -26.7L4.75 -26.65L4.95 -26.5L6.55 -24.7L7 -24.15L7.4 -23.55L7.85 -22.9L7.95 -22.7L9 -20.9L9.05 -20.8L9.85 -18.55L3.7 -15.6L-3.6 -12.1L-10.9 -8.6L-18.15 -5.1L-20 -4.2M3.7,-15.6L3.7 -18.35L-3.6 -14.85L-3.6 -12.1M9,-20.9L3.7 -18.35L-20 -29.75M-10.9,-8.6L-10.9 -11.35L-18.15 -7.9L-18.15 -5.1M-18.1,-9.6L-14.45 -11.25M-20,-7L-18.15 -7.9L-20 -8.8M-20,-15.75L-10.9 -11.35L-3.6 -14.85L-20 -22.7M7.4,-23.55L-20 -36.7" />
<path style="fill:none;stroke-width:1;stroke-linecap:round;stroke-linejoin:round;stroke-miterlimit:3;stroke:#656161;stroke-opacity:1" d="M-20,-31.5L3.7 -20.1L7.3 -21.75M-20,-17.45L-10.9 -13.1L-7.25 -14.75M-20,-10.5L-18.1 -9.6M-20,-24.5L-3.6 -16.6L0.05 -18.25M4.75,-26.65L-20 -38.5" />
<path style="fill:none;stroke-width:1;stroke-linecap:round;stroke-linejoin:round;stroke-miterlimit:3;stroke:#9292A5;stroke-opacity:1" d="M-20,-61.8Q-9.2 -59.85 -0.3 -55.6Q16.15 -47.65 16.15 -36.5Q16.15 -25.3 -0.3 -17.4Q-9.2 -13.15 -20 -11.15" />
<path style="fill:#00CCCC;fill-opacity:0.341176" d="M0,-27.6Q-7.1 -27.7 -14.35 -30.8Q-13.8 -24.85 -18.15 -20.75L-18.55 -20.4L-18.55 -1.55L-20 -1.25L-20 -51.7Q-9.65 -49.75 -1.15 -45.6Q11.85 -39.2 14.4 -30.75Q7.2 -27.7 0 -27.6" />
</g>
</svg>
