<?xml version="1.0" encoding="utf-8"?>
<svg version="1.1" id="Layer_1"
xmlns="http://www.w3.org/2000/svg"
xmlns:xlink="http://www.w3.org/1999/xlink"
xmlns:author="http://www.sothink.com"
width="126px" height="209px"
xml:space="preserve">
<g id="140" transform="matrix(1, 0, 0, 1, 62.85, 214.2)">
<path style="fill:#006633;fill-opacity:1" d="M59.15,-109.75Q52.8 -90.95 59.15 -75.1Q65.5 -56.3 59.15 -40.45Q52.8 -21.65 59.15 -5.8L-59.15 -5.8Q-65.5 -21.65 -59.15 -40.45Q-52.8 -56.3 -59.15 -75.1Q-65.5 -90.95 -59.15 -109.75Q-52.8 -125.6 -59.15 -144.4Q-65.5 -160.25 -59.15 -179.05Q-52.8 -194.9 -59.15 -213.7L59.15 -213.7Q65.5 -194.9 59.15 -179.05Q52.8 -160.25 59.15 -144.4Q65.5 -125.6 59.15 -109.75" />
<path style="fill:none;stroke-width:1;stroke-linecap:round;stroke-linejoin:round;stroke-miterlimit:3;stroke:#515151;stroke-opacity:1" d="M59.15,-109.75Q52.8 -90.95 59.15 -75.1Q65.5 -56.3 59.15 -40.45Q52.8 -21.65 59.15 -5.8L-59.15 -5.8Q-65.5 -21.65 -59.15 -40.45Q-52.8 -56.3 -59.15 -75.1Q-65.5 -90.95 -59.15 -109.75Q-52.8 -125.6 -59.15 -144.4Q-65.5 -160.25 -59.15 -179.05Q-52.8 -194.9 -59.15 -213.7L59.15 -213.7Q65.5 -194.9 59.15 -179.05Q52.8 -160.25 59.15 -144.4Q65.5 -125.6 59.15 -109.75z" />
</g>
</svg>
