<?xml version="1.0" encoding="utf-8"?>
<svg version="1.1" id="Layer_1"
xmlns="http://www.w3.org/2000/svg"
xmlns:xlink="http://www.w3.org/1999/xlink"
xmlns:author="http://www.sothink.com"
width="39px" height="64px"
xml:space="preserve">
<g id="844" transform="matrix(1, 0, 0, 1, 18.6, 72.6)">
<path style="fill:#000000;fill-opacity:1" d="M-10.25,-16.25Q-14.25 -16 -16 -20.6Q-17.8 -25.35 -17.5 -35.75L-14.25 -42.25L8.75 -39.25Q17.4 -40.8 15.4 -32.5L16.6 -21.25L7.1 -19.75L-10.25 -16.25" />
<path style="fill:none;stroke-width:1;stroke-linecap:round;stroke-linejoin:round;stroke-miterlimit:3;stroke:#000000;stroke-opacity:1" d="M16.6,-21.25L7.1 -19.75L-10.25 -16.25" />
<path style="fill:none;stroke-width:0.5;stroke-linecap:round;stroke-linejoin:round;stroke-miterlimit:3;stroke:#333333;stroke-opacity:1" d="M-10.25,-16.25Q-14.25 -16 -16 -20.6Q-17.8 -25.35 -17.5 -35.75L-14.25 -42.25L8.75 -39.25Q17.4 -40.8 15.4 -32.5L16.6 -21.25" />
<linearGradient
id="LinearGradID_3041" gradientUnits="userSpaceOnUse" gradientTransform="matrix(0, 0.0375977, -0.0375671, 0, 0.55, -41.2)" spreadMethod ="pad" x1="-819.2" y1="0" x2="819.2" y2="0" >
<stop  offset="0" style="stop-color:#999999;stop-opacity:1" />
<stop  offset="1" style="stop-color:#333333;stop-opacity:1" />
</linearGradient>
<path style="fill:url(#LinearGradID_3041) " d="M-10.5,-18.65L-12.1 -21L-12 -21.1Q-13.8 -23 -14.15 -25.25L-14.25 -26.45L-14.2 -27.4L-13.65 -29.25L-13.55 -29.25L-13.55 -29.8L-13.4 -29.95L-13.4 -32Q-12.65 -31.4 -11.85 -31.45L-11.6 -31.5Q-9.7 -31 -8.6 -32.35Q-8.2 -32.15 -8.4 -32.5Q-7.4 -33.25 -7.15 -34.9Q-7.2 -35.6 -7.6 -36.9L-7.15 -43.2L-8.5 -43.3L-9 -36.85L-8.85 -36.8L-8.85 -36.75L-8.8 -36.75L-8.4 -35.35Q-8.25 -33.9 -9.35 -33.45Q-9.9 -32.55 -11.45 -32.85L-11.95 -32.85Q-12.55 -33.05 -13.25 -33.7L-13.45 -34.05L-13.7 -34.8L-13.85 -35.25L-13.7 -35.65L-13.45 -36.15L-13.2 -36.9L-13.1 -36.9L-12.4 -46.55L-13.25 -46.6L-13.65 -46.65L-13.65 -46.8L-15.7 -49.55L-15.5 -49.55Q-18.15 -52.65 -18 -56.65Q-18.15 -61.95 -12.65 -66.45Q-7.15 -71.5 0.5 -72Q8.1 -71.5 13.55 -66.45Q19 -61.95 19 -56.65Q19 -52.65 16.4 -49.55L16.45 -49.55L13.85 -46.45L13.85 -45.65L13.65 -46.6L12.85 -46.55L13.5 -36.9L13.65 -36.9L13.9 -36.15L14.1 -35.65L14.3 -35.25L14.15 -34.8L13.85 -34.05L13.65 -33.7L12.75 -33L12.7 -33L12.65 -31.5L12.7 -31.5L12.65 -31L12.6 -31L12.25 -26.8L11.2 -22.7L9.55 -18.7L9.55 -18.65L8.4 -18.65L8.4 -13.45Q8.35 -12.1 7.6 -11.2Q6.95 -10.45 5.9 -10.45Q4.9 -10.45 4.2 -11.2Q3.4 -12.1 3.4 -13.45L3.4 -18.65L2.25 -18.65L2.1 -18.65L2.1 -19.85L1.8 -19.85L1.8 -20L0.9 -21.55L-1.55 -21.55L-3.1 -19.85L-3.1 -18.65L-3.15 -18.65L-4.3 -18.65L-4.3 -13.45Q-4.35 -12.1 -5.1 -11.2Q-5.8 -10.45 -6.8 -10.45Q-7.8 -10.45 -8.55 -11.2Q-9.3 -12.1 -9.3 -13.45L-9.3 -18.65L-10.5 -18.65M-10.05,-36.45L-10.1 -36.5L-10.1 -36.45L-10.05 -36.45" />
<path style="fill:#000000;fill-opacity:1" d="M12.65,-31.5L12.7 -33L12.75 -33L13.65 -33.7L13.85 -34.05L14.15 -34.8L14.3 -35.25L14.1 -35.65L13.9 -36.15L13.65 -36.9L13.5 -36.9L12.85 -46.55L13.65 -46.6L14.65 -40.05L14.7 -40.1L14.7 -40L14.9 -37.35L14.9 -37L14.8 -37L14.8 -36.9Q15.05 -36.2 15.4 -35.8Q15.35 -35.55 15.55 -35.5Q15.85 -33.9 14.95 -33.05L14.8 -32.85Q14.65 -32.9 14.6 -32.75L14.35 -32.5L13.8 -32Q13.25 -31.6 12.7 -31.5L12.65 -31.5M3.4,-18.65L3.4 -13.45Q3.4 -12.1 4.2 -11.2Q4.9 -10.45 5.9 -10.45Q6.95 -10.45 7.6 -11.2Q8.35 -12.1 8.4 -13.45L8.4 -18.65L9.55 -18.65L9.55 -13.45Q9.55 -11.5 8.55 -10.35Q7.45 -9.1 5.9 -9.1Q4.4 -9.1 3.25 -10.35Q2.2 -11.5 2.25 -13.45L2.25 -18.65L3.4 -18.65M-9.3,-18.65L-9.3 -13.45Q-9.3 -12.1 -8.55 -11.2Q-7.8 -10.45 -6.8 -10.45Q-5.8 -10.45 -5.1 -11.2Q-4.35 -12.1 -4.3 -13.45L-4.3 -18.65L-3.15 -18.65L-3.15 -13.45Q-3.15 -11.5 -4.2 -10.35Q-5.3 -9.1 -6.8 -9.1Q-8.3 -9.1 -9.45 -10.35Q-10.5 -11.5 -10.5 -13.45L-10.5 -18.65L-9.3 -18.65M-12.4,-46.55L-13.1 -36.9L-13.2 -36.9L-13.45 -36.15L-13.7 -35.65L-13.85 -35.25L-13.7 -34.8L-13.45 -34.05L-13.25 -33.7Q-12.55 -33.05 -11.95 -32.85L-11.45 -32.85Q-9.9 -32.55 -9.35 -33.45Q-8.25 -33.9 -8.4 -35.35L-8.8 -36.75L-8.85 -36.75L-8.85 -36.8L-9 -36.85L-8.5 -43.3L-7.15 -43.2L-7.6 -36.9Q-7.2 -35.6 -7.15 -34.9Q-7.4 -33.25 -8.4 -32.5Q-8.2 -32.15 -8.6 -32.35Q-9.7 -31 -11.6 -31.5L-11.85 -31.45Q-12.65 -31.4 -13.4 -32L-13.95 -32.5L-14.15 -32.75L-14.35 -32.85L-14.55 -33.05Q-15.45 -33.9 -15.1 -35.5Q-14.95 -35.55 -14.95 -35.8L-14.4 -36.9L-14.35 -37L-14.45 -37L-14.5 -37.35L-14.45 -37.35L-14.25 -40L-14.25 -40.1L-14.2 -40.05L-13.25 -46.6L-12.4 -46.55" />
<path style="fill:none;stroke-width:1.2;stroke-linecap:round;stroke-linejoin:round;stroke-miterlimit:3;stroke:#000000;stroke-opacity:1" d="M-15.5,-49.55Q-18.15 -52.65 -18 -56.65Q-18.15 -61.95 -12.65 -66.45Q-7.15 -71.5 0.5 -72Q8.1 -71.5 13.55 -66.45Q19 -61.95 19 -56.65Q19 -52.65 16.4 -49.55" />
<path style="fill:#000000;fill-opacity:1" d="M8.05,-56.55Q8.95 -54.95 8.95 -53.4Q8.95 -51.85 8.3 -51Q7.7 -50.2 6.7 -50.2Q5.35 -50.2 4.8 -51.6Q4.2 -50.2 2.9 -50.2Q1.85 -50.2 1.25 -51.05Q0.6 -51.9 0.6 -53.4Q0.6 -54.95 1.55 -56.55L2.55 -56.55Q1.7 -54.65 1.7 -53.3Q1.7 -52.3 2.05 -51.65Q2.45 -51.05 3 -51.05Q3.4 -51.05 3.7 -51.35L4.15 -52.05L4.25 -53.2L4.25 -55L5.3 -55L5.3 -53.2L5.4 -52.05Q5.55 -51.6 5.85 -51.3L6.55 -51.05L7.5 -51.65Q7.9 -52.3 7.9 -53.3Q7.9 -54.65 7 -56.55L8.05 -56.55" />
</g>
</svg>
