<?xml version="1.0" encoding="utf-8"?>
<svg version="1.1" id="Layer_1"
xmlns="http://www.w3.org/2000/svg"
xmlns:xlink="http://www.w3.org/1999/xlink"
xmlns:author="http://www.sothink.com"
width="47px" height="89px"
xml:space="preserve">
<g id="104" transform="matrix(1, 0, 0, 1, 16.8, 73.6)">
<path style="fill:#000000;fill-opacity:0.101961" d="M30,-5.05L-10 15L-15 12.5L25 -7.55L30 -5.05" />
<path style="fill:#5E5966;fill-opacity:1" d="M18.65,-29.35Q18.9 -33.75 18.75 -39.55L18 -57.85L18 -56.6L17.85 -57.25L17.8 -57.25L17.3 -57.65L17.25 -57.65L17.05 -57.75L16.85 -57.75L16.7 -57.75L16.1 -57.7L15.65 -57.55Q14.65 -57.2 13.95 -56.45Q13.25 -55.6 13.25 -54.8Q13.25 -53.95 13.95 -53.7Q14.65 -53.35 15.65 -53.7L16.25 -53.95L17.3 -54.9L17.8 -55.65L17.85 -55.7L17.9 -55.8L18 -56.15L18.05 -29.05L2.4 -21.2L2.4 -25.55L2.1 -21.05L-15 -12.5L-15 -51.75L-7.05 -55.7L-7.05 -56.45L1.45 -60.7L2.35 -60.3L2.35 -61.15L10.05 -65L10.1 -65L10.1 -52.65Q10.3 -59.25 11.45 -64.85L18 -68.1L18 -68.95L25 -72.45L25 -32.55L18.65 -29.35" />
<linearGradient
id="LinearGradID_487" gradientUnits="userSpaceOnUse" gradientTransform="matrix(-0.00588989, -0.0118866, 0.0273743, -0.0135498, 5.1, -9.5)" spreadMethod ="pad" x1="-819.2" y1="0" x2="819.2" y2="0" >
<stop  offset="0" style="stop-color:#4F4D55;stop-opacity:1" />
<stop  offset="1" style="stop-color:#5E5966;stop-opacity:1" />
</linearGradient>
<path style="fill:url(#LinearGradID_487) " d="M18.65,-29.35L25 -32.55L25 -7.55L-15 12.5L-15 -12.5L2.1 -21.05L2.4 -21.2L18.05 -29.05L18.65 -29.35" />
<path style="fill:#4E3123;fill-opacity:1" d="M-15.55,-52.75L-15 -52.5L-15 -51.75L-15 12.5L-16.3 11.85L-16.3 -52.4L-16.3 -53.15L-15.55 -52.75" />
<path style="fill:#6A4331;fill-opacity:1" d="M18,-68.95L17.1 -68.5L15.8 -69.15L23.7 -73.1L25 -72.45L18 -68.95M-15,-52.5L-15.55 -52.75L-8.4 -56.35L-8.4 -57.05L-8.4 -57.1L0.2 -61.35L8.75 -65.65L9.45 -65.3L10.05 -65L2.35 -61.15L1.45 -60.7L-7.05 -56.45L-7.1 -56.45L-15 -52.5" />
<path style="fill:#9C8363;fill-opacity:1" d="M18,-56.6L18 -57.85L18.05 -57.45L18.1 -56.55L18.1 -55.85L18.75 -39.55Q19 -29.6 18.05 -23.8L18 -56.15L18 -56.6M18,-68.95L18 -68.1L17.1 -68.5L18 -68.95M2.35,-60.3L1.45 -60.7L2.35 -61.15L2.35 -60.3M2.4,-25.55L2.4 -4.15Q1.25 -12.4 2.4 -25.55" />
<path style="fill:#704532;fill-opacity:1" d="M15.8,-68.15L16.8 -67.5L11.45 -64.85Q10.3 -59.25 10.1 -52.65L10.1 -65L10.05 -65L9.45 -65.3L15.8 -68.15M-7.1,-56.45L-7.05 -56.45L-7.05 -55.7L-15 -51.75L-15 -52.5L-7.1 -56.45" />
<path style="fill:#5E5966;fill-opacity:1" d="M18.1,-56.55L18.2 -56.2L18.1 -55.85L18.1 -56.55" />
<path style="fill:none;stroke-width:1;stroke-linecap:round;stroke-linejoin:round;stroke-miterlimit:3;stroke:#4B4154;stroke-opacity:1" d="M18,-56.6L18 -57.85L18 -68.1L16.8 -67.5L11.45 -64.85Q10.3 -59.25 10.1 -52.65L10.1 -50.75L10.15 -0.1L18.05 -4.05L18.05 -23.8L18 -56.15M16.25,-53.95L16.3 -51.7M17.1,-68.5L18 -68.1L18 -68.95L17.1 -68.5L15.8 -69.15L15.8 -68.15L16.8 -67.5M10.05,-65L9.45 -65.3L8.75 -65.65L0.2 -61.35L1.45 -60.7L2.35 -61.15L10.05 -65L10.1 -65L10.1 -52.65M-7.05,-56.45L1.45 -60.7L2.35 -60.3L2.35 -61.15M3.55,-60.85L3.55 -57.7M18,-57.85L18.05 -57.45L18.1 -56.55L18.2 -56.2L18.1 -55.85L18.75 -39.55Q19 -29.6 18.05 -23.8M16.8,-57.75Q16.55 -58.05 16.3 -58L16.3 -58.7M18.1,-56.55L18.1 -55.85M18,-56.6L18 -56.15M19.2,-61.85L19.2 -65.1M9.45,-65.3L15.8 -68.15M15.8,-69.15L23.7 -73.1L25 -72.45L25 -7.55L18.05 -4.05M18,-68.95L25 -72.45M2.35,-60.3L2.4 -25.65L2.4 -25.55L2.4 -4.15L2.4 3.8L9.1 0.4L9.1 -13M1.2,-26.7L1.2 -31.45M23.7,-16L23.7 -11.75M2.4,-25.55Q1.25 -12.4 2.4 -4.15M10.15,-0.1L9.1 0.4M-7.05,-55.7L-15 -51.75L-16.3 -52.4L-16.3 11.85L-15 12.5L-15 -51.75M-15.55,-52.75L-16.3 -52.4M-15.55,-52.75L-8.4 -56.35L-8.4 -57.05M-7.1,-56.45L-8.4 -57.1L0.2 -61.35M-7.1,-56.45L-7.05 -56.45L-7.05 -55.7L-7.05 8.5L2.4 3.8M-8.45,-19.15L-8.45 -22.5M-13.2,-2.4L-13.2 -16.75M-5.45,-53.15L-5.45 -34.05M-7.05,8.5L-15 12.5" />
<path style="fill:none;stroke-width:1;stroke-linecap:round;stroke-linejoin:round;stroke-miterlimit:3;stroke:#3F3748;stroke-opacity:1" d="M18,-56.15L17.9 -55.8L17.85 -55.7L17.8 -55.65L17.3 -54.9L16.25 -53.95L15.65 -53.7Q14.65 -53.35 13.95 -53.7Q13.25 -53.95 13.25 -54.8Q13.25 -55.6 13.95 -56.45Q14.65 -57.2 15.65 -57.55L16.1 -57.7L16.7 -57.75L16.8 -57.75L16.85 -57.75L17.05 -57.75L17.25 -57.65L17.3 -57.65L17.8 -57.25L17.85 -57.25L18 -56.6" />
<path style="fill:#5E5966;fill-opacity:1" d="M12.95,-54.7Q12.95 -53.8 13.7 -53.5L15.85 -53.65Q17.2 -54.2 18.5 -55.25Q19.75 -56.3 19.75 -57.3Q19.75 -58.3 18.5 -58.15L17 -58L25.55 -62.3Q27.2 -59.05 25.55 -55.2L-15 -34.95Q-14.05 -38.3 -15 -42.05L12.5 -55.85Q12.95 -55.5 12.95 -54.7" />
<path style="fill:#58545F;fill-opacity:1" d="M25.55,-15.2L-15 5.05Q-14.05 1.7 -15 -2.05L25.55 -22.3Q27.2 -19.05 25.55 -15.2" />
<path style="fill:none;stroke-width:1;stroke-linecap:round;stroke-linejoin:round;stroke-miterlimit:3;stroke:#4B4154;stroke-opacity:1" d="M12.5,-55.85L-15 -42.05Q-14.05 -38.3 -15 -34.95L25.55 -55.2Q27.2 -59.05 25.55 -62.3L17 -58L18.5 -58.15Q19.75 -58.3 19.75 -57.3Q19.75 -56.3 18.5 -55.25Q17.2 -54.2 15.85 -53.65L13.7 -53.5Q12.95 -53.8 12.95 -54.7Q12.95 -55.5 12.5 -55.85M25.55,-22.3L-15 -2.05Q-14.05 1.7 -15 5.05L25.55 -15.2Q27.2 -19.05 25.55 -22.3" />
<path style="fill:#6A7377;fill-opacity:1" d="M14.65,-1.35Q15.15 -1.35 15.25 -0.7Q15.25 -0.45 14.65 0.05Q14 0.6 13.65 0.6L13.1 0.3L13 0Q13 -0.4 13.3 -0.8Q13.75 -1.35 14.65 -1.35M15.3,-1.35Q14.25 -1.35 14.25 -2.35Q14.25 -3.3 15.75 -3.7Q17.25 -4.1 17.25 -2.7Q17.25 -2.2 16.8 -1.8Q16.3 -1.35 15.3 -1.35M15.85,-2.5L16.75 -2.6L17 -3.05Q17 -3.5 16.2 -3.55Q15.35 -3.65 15.35 -3L15.45 -2.75Q15.55 -2.5 15.85 -2.5M26.35,-6.2L26.15 -5.7L25.4 -5.3Q24.6 -5.3 24.6 -6Q24.6 -6.7 25.5 -6.8Q26.35 -6.9 26.35 -6.2M24.55,-6.4L24.25 -5.9L23.8 -5.65L23.35 -5.45Q24.3 -5.25 24.3 -4.35Q24.3 -3.85 23.55 -3.2Q22.7 -2.55 21.75 -2.55Q21 -2.55 20.55 -3.2Q20.25 -3.65 20.25 -3.95Q20.25 -5.2 22.3 -5.45L22.95 -5.5L22.6 -5.7Q22.35 -5.9 22.35 -6.2Q22.35 -6.8 22.85 -6.95L23.45 -7.15L23.25 -6.75Q23.25 -6.25 23.85 -6.25Q24.35 -6.25 24.35 -6.75L24.35 -6.95L24.55 -6.4M23.5,-5Q23.5 -5.7 22.7 -5.4Q21.85 -5.15 21.85 -4.75L21.95 -4.5L22.4 -4.25Q22.95 -4.25 23.25 -4.55L23.5 -5M8.45,2.8Q7.55 3.95 6.5 3.95L5.9 3.8L5.75 3.8L4.95 3.35L4.8 2.85Q4.8 2.3 5.5 1.65Q6.4 0.8 7.95 0.8Q9 0.8 9.25 1.35L9.35 1.9L9.15 2.5L8.45 2.8M7.6,1Q6.8 1 6.3 1.45Q5.95 1.75 5.95 1.95L6.05 2.25L6.45 2.5L6.9 2.2Q7.1 1.95 7.85 2Q8.35 2 8.35 1.5Q8.3 1 7.6 1M2.35,4.85L2.05 5.45Q1.7 5.8 1.15 5.8Q0.25 5.8 0.25 5.2Q0.25 4.35 1.65 4.35Q2.35 4.35 2.35 4.85M-0.35,5.8Q0.4 5.8 0.35 6.3L-0.05 6.9Q-0.5 7.3 -0.95 7.3L-1.7 7L-1.85 6.6L-1.55 6.15Q-1.1 5.8 -0.35 5.8M-5.15,8.3Q-3.7 8.3 -3.45 9.7Q-3.45 10.2 -4.35 10.9Q-5.35 11.7 -6.45 11.7Q-7.3 11.7 -7.8 11.1L-8.1 10.3Q-8.1 9.85 -7.35 9.15Q-6.45 8.3 -5.15 8.3M-5.9,9.2L-5.4 9.7Q-4.5 9.7 -4.5 9.15L-4.6 8.9Q-4.75 8.65 -5.1 8.65Q-5.9 8.65 -5.9 9.2M-12.9,10.5Q-12.8 11 -12.3 11L-11.5 10.55L-10.95 9.95L-11 9.6L-10.95 9.6L-10 9.85Q-9.05 9.7 -9.05 10.85Q-9.05 11.4 -9.8 12Q-10.45 12.5 -11.15 12.6L-11.9 12.8L-12.15 12.8L-12.75 12.95Q-13.8 12.95 -13.8 11.75Q-13.8 11.2 -13.2 10.55L-12.7 10.15L-12.9 10.5M-9.85,10.5Q-9.85 9.7 -10.5 10.15L-11.2 10.95Q-11.2 11.45 -10.7 11.45Q-10.35 11.45 -10.1 11.05L-9.85 10.5" />
<path style="fill:#8A9297;fill-opacity:1" d="M15.45,-2.75L15.35 -3Q15.35 -3.65 16.2 -3.55Q17 -3.5 17 -3.05L16.75 -2.6L15.85 -2.5Q15.55 -2.5 15.45 -2.75M23.85,-7.25Q24.25 -7.25 24.35 -6.95L24.35 -6.75Q24.35 -6.25 23.85 -6.25Q23.25 -6.25 23.25 -6.75L23.45 -7.15L23.85 -7.25M23.25,-4.55Q22.95 -4.25 22.4 -4.25L21.95 -4.5L21.85 -4.75Q21.85 -5.15 22.7 -5.4Q23.5 -5.7 23.5 -5L23.25 -4.55M8.35,1.5Q8.35 2 7.85 2Q7.1 1.95 6.9 2.2L6.45 2.5L6.05 2.25L5.95 1.95Q5.95 1.75 6.3 1.45Q6.8 1 7.6 1Q8.3 1 8.35 1.5M-5.1,8.65Q-4.75 8.65 -4.6 8.9L-4.5 9.15Q-4.5 9.7 -5.4 9.7L-5.9 9.2Q-5.9 8.65 -5.1 8.65M-12.7,10.15Q-12.5 9.85 -11.9 9.6Q-11.2 9.25 -11 9.6L-10.95 9.95L-11.5 10.55L-12.3 11Q-12.8 11 -12.9 10.5L-12.7 10.15M-10.1,11.05Q-10.35 11.45 -10.7 11.45Q-11.2 11.45 -11.2 10.95L-10.5 10.15Q-9.85 9.7 -9.85 10.5L-10.1 11.05" />
</g>
</svg>
