<?xml version="1.0" encoding="utf-8"?>
<svg version="1.1" id="Layer_1"
xmlns="http://www.w3.org/2000/svg"
xmlns:xlink="http://www.w3.org/1999/xlink"
xmlns:author="http://www.sothink.com"
width="46px" height="36px"
xml:space="preserve">
<g id="826" transform="matrix(1, 0, 0, 1, 22.05, 49.5)">
<path style="fill:#000000;fill-opacity:1" d="M2.8,-14.65Q-0.9 -15.1 -5.15 -17.1Q-10.7 -16.3 -15.2 -19.25L-14 -30.5Q-15.1 -35 -13.3 -38.55Q-11.3 -42.4 -7.25 -41.65L13.55 -41.6L13.5 -30.15Q13.75 -23.2 15.2 -19.6Q15.9 -17.9 15.8 -16.95Q15.75 -16.1 15 -15.6Q13.75 -14.8 10.75 -15L2.8 -14.65" />
<path style="fill:none;stroke-width:1;stroke-linecap:round;stroke-linejoin:round;stroke-miterlimit:3;stroke:#000000;stroke-opacity:1" d="M-15.2,-19.25Q-10.7 -16.3 -5.15 -17.1Q-0.9 -15.1 2.8 -14.65L10.75 -15" />
<path style="fill:none;stroke-width:0.5;stroke-linecap:round;stroke-linejoin:round;stroke-miterlimit:3;stroke:#333333;stroke-opacity:1" d="M10.75,-15Q13.75 -14.8 15 -15.6Q15.75 -16.1 15.8 -16.95Q15.9 -17.9 15.2 -19.6Q13.75 -23.2 13.5 -30.15L13.55 -41.6L-7.25 -41.65Q-11.3 -42.4 -13.3 -38.55Q-15.1 -35 -14 -30.5L-15.2 -19.25" />
<path style="fill:#000000;fill-opacity:1" d="M15.15,-39.3L15.65 -39.25L16.05 -39.45L16.1 -39.55Q14.7 -39.7 15.15 -39.3M-13.7,-35.45Q-14.55 -33.15 -12.5 -28.55L-12.95 -19.35L-14.85 -19L-18.9 -21.25L-17.25 -30.5L-16.25 -34.85L-15.85 -40.85L-17.4 -41.6L-22.05 -42.4L-17.5 -49.5L-14.15 -47.15L-2.75 -44.3L0.8 -44.3L4.85 -45.15L18.25 -47.9L23.5 -39.35L19.7 -40.5L17.15 -39.55L17.1 -39.55L17.2 -39L18.15 -28.95L19.35 -16.5L11.1 -15.25L11.85 -16.85L14.85 -17L11.85 -24.5Q12.55 -26.1 10.95 -27.25Q9.05 -28.6 9 -29.05L11.65 -34.15Q11.15 -35 10.95 -36.75Q10.65 -37.85 9.55 -38L8.95 -38.05L7.45 -38.3L5.75 -38L2.95 -38.15L-1.85 -38.75L-1.85 -38.6L-1.9 -38.75L-2 -39L-2.5 -39L-2.55 -39.1L-2.65 -39.15L-2.95 -39.1L-3.55 -38.9L-3.65 -38.9L-6.9 -39.3Q-9.1 -39.45 -11.2 -38.15Q-13.1 -36.95 -13.7 -35.45" />
<path style="fill:none;stroke-width:1;stroke-linecap:round;stroke-linejoin:round;stroke-miterlimit:3;stroke:#CCCCCC;stroke-opacity:1" d="M15.15,-39.3L15.65 -39.25L16.05 -39.45L16.1 -39.55M15.15,-39.3L9.55 -38M17.1,-39.55L16.05 -39.45M17.1,-39.55L17.15 -39.55L19.7 -40.5M-17.4,-41.6L-15.85 -40.85L-6.9 -39.3L-3.65 -38.9L-3.55 -38.9M-1.9,-38.75L-1.85 -38.75L2.95 -38.15L5.75 -38L7.45 -38.3L8.95 -38.05L9.55 -38M-1.9,-38.75L-3.55 -38.9" />
<path style="fill:none;stroke-width:1;stroke-linecap:round;stroke-linejoin:round;stroke-miterlimit:3;stroke:#000000;stroke-opacity:1" d="M-14.85,-19L-18.9 -21.25L-17.25 -30.5L-16.25 -34.85L-15.85 -40.85M-6.9,-39.3Q-9.1 -39.45 -11.2 -38.15Q-13.1 -36.95 -13.7 -35.45" />
<path style="fill:none;stroke-width:1;stroke-linecap:round;stroke-linejoin:round;stroke-miterlimit:3;stroke:#FFFFFF;stroke-opacity:1" d="M0.75,-32.5L1.05 -32.55L1.1 -32.45L6.8 -32.25L3.75 -28.7L6.75 -24.45L0.6 -24.7L-1.95 -22.15L-3.7 -24.85L-3.75 -24.85L-4.05 -25.35L-4.5 -24.85L-10.05 -25.85L-8.25 -28.2L-7.15 -29.45L-6.9 -29.65L-9.55 -33.65L-4.65 -32.45L-4.25 -32.95L-4.05 -32.3L-3.45 -33.95L-1.55 -36.25L0.3 -33.6L0.75 -32.5L1.1 -32.45L3.3 -29.5L3.7 -28.75L3.75 -28.7L0.6 -24.7L0.35 -25L-0.6 -25.05L-3.7 -24.85L-4.05 -25.35L-6.9 -29.65L-6.8 -29.8L-4.65 -32.45L-4.05 -32.3L0.75 -32.5z" />
</g>
</svg>
