<?xml version="1.0" encoding="utf-8"?>
<svg version="1.1" id="Layer_1"
xmlns="http://www.w3.org/2000/svg"
xmlns:xlink="http://www.w3.org/1999/xlink"
xmlns:author="http://www.sothink.com"
width="40px" height="54px"
xml:space="preserve">
<g id="804" transform="matrix(1, 0, 0, 1, 19.05, 69.95)">
<path style="fill:#F3F0B6;fill-opacity:1" d="M5.55,-59.6Q5.6 -61.2 2.9 -62.85L-3.05 -63.5L-12.75 -65.7L-9.55 -67.25Q-6.65 -69.4 -2.3 -69.35L4.3 -68.8Q6.55 -68.25 9.55 -66.6Q13.25 -65.3 14.05 -62.95L16.9 -58.9Q18.25 -57.4 18.55 -50.85Q16.05 -55.8 14.65 -56.8L13 -57.7Q10.15 -58.9 6.15 -57.7L6.35 -56.5L6.45 -56.4L6.35 -56.45L4 -57.6L4.75 -58.1L5.55 -59.6" />
<path style="fill:#EBE87C;fill-opacity:1" d="M-3.05,-63.5L2.9 -62.85Q5.6 -61.2 5.55 -59.6L4.75 -58.1L4 -57.6L1.6 -57.6Q-7.1 -59.65 -7.75 -58.75L-7.8 -58.7Q-9.05 -58.05 -9.75 -56.35L-11.9 -59.9L-7.4 -62.35L-6.8 -62.25L-6.75 -62.25L-3.05 -63.5" />
<path style="fill:#EFEB9C;fill-opacity:1" d="M-12.75,-65.7L-3.05 -63.5L-6.75 -62.25L-6.8 -62.25L-7.4 -62.35L-11.9 -59.9L-9.75 -56.35Q-10.7 -54.1 -10.7 -49.9L-10.6 -49.6L-9.4 -44.1L-11.7 -47.1L-12.45 -45.4L-12.45 -48.05L-12.95 -38Q-14.7 -38.55 -15.7 -43L-15.7 -38.45L-18.3 -47.85L-16.2 -59.85Q-13.45 -65 -12.75 -65.7M-12.45,-48.35L-12.45 -48.05L-12.45 -48.35" />
<path style="fill:none;stroke-width:1.2;stroke-linecap:round;stroke-linejoin:round;stroke-miterlimit:3;stroke:#D0CC22;stroke-opacity:1" d="M6.35,-56.45L6.45 -56.4L6.35 -56.5L4.75 -58.1L4 -57.6L6.35 -56.45L6.35 -56.5L6.15 -57.7Q10.15 -58.9 13 -57.7L14.65 -56.8Q16.05 -55.8 18.55 -50.85Q18.25 -57.4 16.9 -58.9L14.05 -62.95Q13.25 -65.3 9.55 -66.6Q6.55 -68.25 4.3 -68.8L-2.3 -69.35Q-6.65 -69.4 -9.55 -67.25L-12.75 -65.7M13,-57.7L12.3 -59.85Q11.35 -62.75 8.55 -62.85M-9.75,-56.35Q-9.05 -58.05 -7.8 -58.7L-7.75 -58.75Q-7.1 -59.65 1.6 -57.6L4 -57.6M2.9,-62.85Q5.6 -61.2 5.55 -59.6L4.75 -58.1M6.45,-56.4Q4.7 -54.15 6.8 -52.85M1.6,-57.6Q0.1 -61 -6.75 -62.25L-6.8 -62.25L-7.4 -62.35M-9.75,-56.35Q-10.7 -54.1 -10.7 -49.9L-10.6 -49.6M-11.7,-47.1L-12.45 -45.4L-12.45 -48.05L-12.95 -38Q-14.7 -38.55 -15.7 -43L-15.7 -38.45L-18.3 -47.85L-16.2 -59.85Q-13.45 -65 -12.75 -65.7M-12.45,-48.05L-12.45 -48.35L-12.45 -48.05M-18.3,-47.85Q-15.6 -47.05 -13.05 -54.1" />
<path style="fill:none;stroke-width:1;stroke-linecap:round;stroke-linejoin:round;stroke-miterlimit:3;stroke:#D0CC22;stroke-opacity:1" d="M2.9,-62.85Q1.05 -65.2 -2.4 -65.5M-10.6,-49.6L-9.4 -44.1L-11.7 -47.1M-12.45,-48.05L-11.7 -47.1" />
<path style="fill:#C69922;fill-opacity:1" d="M13.15,-30.85Q10.85 -35.25 9.95 -36.4L9.75 -36.6L11.65 -37.45L12 -37.6L13.6 -38.3L13.65 -38.35L14.25 -35.8L14.2 -35.45L13.9 -34.2L13.15 -30.85M-12.95,-39.6L-12.5 -39.55L-12.25 -39.5L-8.35 -38.8L-3.95 -38L-8.4 -33.3Q-10.2 -33.25 -10.7 -34.6L-11.3 -35.05L-11.9 -36.65L-12.95 -39.6" />
<path style="fill:#E33104;fill-opacity:1" d="M-3.35,-19.05L-3.45 -19L-3.45 -18.95L-3.55 -18.95Q-6.4 -16.95 -8.65 -17.1Q-11.2 -17.25 -15.75 -18.75L-15.5 -20.65L-14.95 -24.9L-12.95 -23.9Q-9.95 -22.65 -7.7 -25.85Q-7.25 -27.5 -8.05 -28.2L-8.1 -29.4L-14.7 -29.2Q-14.25 -32.8 -13.1 -36.65L-11.9 -36.65L-11.3 -35.05L-10.7 -34.6Q-10.2 -33.25 -8.4 -33.3L-3.95 -38L-8.35 -38.8L-12.25 -39.5L-12.5 -39.55L-12.95 -39.6L-13.2 -39.8L-13.95 -43.1L1.5 -40Q0.55 -38.2 2.7 -35.8L2.75 -35.5L5.2 -39.8L16.5 -41.2L14.75 -39.45L14.65 -39.4L13.65 -38.35L13.6 -38.3L12 -37.6L11.65 -37.45L9.75 -36.6L9.95 -36.4Q10.85 -35.25 13.15 -30.85L13.9 -34.2L14.2 -35.45L15.75 -29.25L13.15 -27.5L13.65 -20.35L12.25 -20.1Q9.65 -18.65 7 -18.55Q5.7 -18.65 4.95 -19.1Q3.2 -20.05 2 -20.15L-0.5 -20.05Q-1.75 -19.85 -3.35 -19.1L-3.35 -19.05M9.65,-36.7Q9.2 -37.15 9.5 -36.5L9.65 -36.55L9.75 -36.6L9.65 -36.7M-3.35,-18.95L-3.5 -18.8L-3.4 -18.95L-3.35 -18.95" />
<path style="fill:#EDF075;fill-opacity:1" d="M18.5,-39.15Q21.15 -39.2 19.25 -38Q16.8 -36.6 14.25 -35.8L13.65 -38.35L14.65 -39.4L15.05 -39.35L18.5 -39.15M-11.9,-36.65L-13.1 -36.65L-18.15 -38Q-19.95 -39.7 -13.15 -39.65L-12.95 -39.6L-11.9 -36.65" />
<path style="fill:none;stroke-width:1;stroke-linecap:round;stroke-linejoin:round;stroke-miterlimit:3;stroke:#D1BB21;stroke-opacity:1" d="M13.6,-38.3L12 -37.6L11.65 -37.45L9.75 -36.6L9.95 -36.4Q10.85 -35.25 13.15 -30.85M-12.25,-39.5L-8.35 -38.8L-3.95 -38L-8.4 -33.3" />
<path style="fill:none;stroke-width:1;stroke-linecap:round;stroke-linejoin:round;stroke-miterlimit:3;stroke:#D9E133;stroke-opacity:1" d="M13.65,-38.35L13.6 -38.3M14.25,-35.8Q16.8 -36.6 19.25 -38Q21.15 -39.2 18.5 -39.15L15.05 -39.35M-11.9,-36.65L-13.1 -36.65L-18.15 -38Q-19.95 -39.7 -13.15 -39.65L-13.2 -39.8" />
<path style="fill:none;stroke-width:1;stroke-linecap:round;stroke-linejoin:round;stroke-miterlimit:3;stroke:#CDD720;stroke-opacity:1" d="M14.25,-35.8L13.65 -38.35L14.65 -39.4M-10.7,-34.6L-11.3 -35.05L-11.9 -36.65L-12.95 -39.6" />
<path style="fill:none;stroke-width:1;stroke-linecap:round;stroke-linejoin:round;stroke-miterlimit:3;stroke:#ECE22B;stroke-opacity:1" d="M13.15,-30.85L13.9 -34.2L14.2 -35.45L15.75 -29.25L13.15 -27.5L13.65 -20.35L12.25 -20.1Q9.65 -18.65 7 -18.55Q5.7 -18.65 4.95 -19.1Q3.2 -20.05 2 -20.15L-0.5 -20.05Q-1.75 -19.85 -3.35 -19.1L-3.35 -18.95L-3.5 -18.8L-3.4 -18.95L-3.35 -19.05L-3.45 -19M14.75,-39.45L16.5 -41.2L5.2 -39.8L2.75 -35.5L2.7 -35.8L1.85 -26.75M16.5,-41.2L16.75 -41.25M-3.3,-18.95L-3.35 -18.95M-3.3,-19.15L-3.35 -19.1L-3.35 -19.05L-3.3 -19.15L-3.55 -18.95Q-6.4 -16.95 -8.65 -17.1Q-11.2 -17.25 -15.75 -18.75L-15.5 -20.65L-14.95 -24.9M-10.7,-34.6Q-10.2 -33.25 -8.4 -33.3L-8.1 -29.4L-14.7 -29.2Q-14.25 -32.8 -13.1 -36.65M-13.2,-39.8L-13.95 -43.1L1.5 -40Q0.55 -38.2 2.7 -35.8M13.15,-30.85L13.15 -27.5" />
<path style="fill:none;stroke-width:1;stroke-linecap:round;stroke-linejoin:round;stroke-miterlimit:3;stroke:#C60000;stroke-opacity:1" d="M3.65,-35.65L8.75 -36.5M-3.35,-18.95L-3.3 -18.95M-3.35,-18.95L-3.4 -18.95L-3.45 -18.95L-3.55 -18.95L-6 -19.05Q-11.05 -19.25 -15.5 -20.65M1.75,-36.25L-3.85 -37.4" />
<path style="fill:none;stroke-width:1;stroke-linecap:round;stroke-linejoin:round;stroke-miterlimit:3;stroke:#9F7B1C;stroke-opacity:1" d="M12,-37.6Q11.85 -35.15 13.9 -34.2M-11.3,-35.05Q-7.55 -35.7 -8.35 -38.8" />
<path style="fill:#EDF075;fill-opacity:1" d="M1.2,-23.75L-1.2 -25.3L-3.7 -23.75L-3.85 -23.9L-2.15 -26L-0.25 -26L1.4 -23.9L1.2 -23.75M2.2,-23.75L2.05 -23.9L3.75 -26L5.65 -26L7.3 -23.9L7.1 -23.75L4.7 -25.3L2.2 -23.75" />
<path style="fill:#EDF075;fill-opacity:1" d="M1.25,-25.25L-2.4 -27.6L-6.15 -25.25L-6.35 -25.5L-3.8 -28.65L-0.95 -28.65L1.5 -25.5L1.25 -25.25M2.2,-25.25L2 -25.5L4.55 -28.65L7.4 -28.65L9.85 -25.5L9.6 -25.25L5.95 -27.6L2.2 -25.25" />
<path style="fill:#EDF075;fill-opacity:1" d="M1.45,-27.65L-2.4 -30.15L-6.4 -27.65L-6.65 -27.9L-3.9 -31.3L-0.9 -31.3L1.7 -27.9L1.45 -27.65M2.55,-27.55L2.3 -27.8L5.05 -31.2L8.05 -31.2L10.65 -27.8L10.4 -27.55L6.55 -30.05L2.55 -27.55" />
<path style="fill:#EDF075;fill-opacity:1" d="M1.4,-29.75L-2.8 -32.5L-7.2 -29.75L-7.45 -30L-4.45 -33.7L-1.2 -33.7L1.7 -30L1.4 -29.75M8.75,-33.8L11.65 -30.1L11.35 -29.85L7.15 -32.6L2.75 -29.85L2.5 -30.1L5.5 -33.8L8.75 -33.8" />
</g>
</svg>
