<?xml version="1.0" encoding="utf-8"?>
<svg version="1.1" id="Layer_1"
xmlns="http://www.w3.org/2000/svg"
xmlns:xlink="http://www.w3.org/1999/xlink"
xmlns:author="http://www.sothink.com"
width="27px" height="23px"
xml:space="preserve">
<g id="701" transform="matrix(1, 0, 0, 1, 12.9, 34.2)">
<path style="fill:#FFFFFF;fill-opacity:0.8" d="M1.8,-31.9L7.5 -31.25Q12.65 -33.95 11.8 -28.45L11.8 -27.3Q13.1 -26.05 13.1 -24.25Q13.1 -22.4 11.7 -21.1Q10.35 -19.8 8.4 -19.8L6.45 -20.15Q6.25 -19.3 5.5 -18.55Q4.5 -17.6 3.1 -17.6L2.3 -17.7L2.3 -17.55Q2.3 -15.7 0.9 -14.4Q-0.45 -13.1 -2.4 -13.1Q-4.1 -13.1 -5.35 -14.1L-6.15 -16.5Q-12.15 -14.15 -12.55 -16.45L-12.6 -16.7L-12.6 -17.05L-12.5 -17.55Q-12.3 -18.6 -11.5 -20.05L-10.6 -22.4Q-11.95 -25.2 -9 -25.2L-7.3 -25Q-8.35 -25.2 -9.1 -25.9Q-10.15 -26.9 -10.1 -28.2Q-10.1 -29.5 -9.15 -30.45L-9.15 -31.25Q-9.8 -35.25 -6 -33.3L-1.8 -33.8Q0.4 -33.8 -0.6 -31.75L-0.2 -30.75Q-0.15 -31.9 1.8 -31.9M11.4,-15.7Q12.1 -15.05 12.15 -14.15Q12.15 -13.2 11.4 -12.5Q10.65 -11.85 9.6 -11.85Q8.65 -11.85 7.95 -12.35L7.55 -13.6Q4.3 -12.4 4.05 -13.55L4.05 -13.7L4.05 -13.9L4.1 -14.15L4.65 -15.4L5.15 -16.6Q4.4 -18.05 6 -18.05L9.1 -17.7Q11.85 -19.1 11.4 -16.25L11.4 -15.7M-6.75,-24.95L-7 -24.95L-6.75 -24.95" />
<path style="fill:none;stroke-width:0.5;stroke-linecap:round;stroke-linejoin:round;stroke-miterlimit:3;stroke:#999999;stroke-opacity:0.901961" d="M7.5,-31.25Q12.65 -33.95 11.8 -28.45M11.8,-27.3Q13.1 -26.05 13.1 -24.25Q13.1 -22.4 11.7 -21.1Q10.35 -19.8 8.4 -19.8L6.45 -20.15Q6.25 -19.3 5.5 -18.55Q4.5 -17.6 3.1 -17.6L2.3 -17.7L2.3 -17.55Q2.3 -15.7 0.9 -14.4Q-0.45 -13.1 -2.4 -13.1Q-4.1 -13.1 -5.35 -14.1M-6.15,-16.5Q-12.15 -14.15 -12.55 -16.45L-12.6 -16.7L-12.6 -17.05L-12.5 -17.55Q-12.3 -18.6 -11.5 -20.05M-10.6,-22.4Q-11.95 -25.2 -9 -25.2M-7.3,-25Q-8.35 -25.2 -9.1 -25.9Q-10.15 -26.9 -10.1 -28.2Q-10.1 -29.5 -9.15 -30.45M-9.15,-31.25Q-9.8 -35.25 -6 -33.3M-1.8,-33.8Q0.4 -33.8 -0.6 -31.75M-0.2,-30.75Q-0.15 -31.9 1.8 -31.9M0,-25.8L0.1 -26.65Q0 -28.45 -2.3 -27.25M0.1,-26.65Q0.7 -26.8 0.85 -27.4L0.85 -27.6L0.85 -27.85L0.8 -28.2L0.05 -30.05M11.4,-15.7Q12.1 -15.05 12.15 -14.15Q12.15 -13.2 11.4 -12.5Q10.65 -11.85 9.6 -11.85Q8.65 -11.85 7.95 -12.35M7.55,-13.6Q4.3 -12.4 4.05 -13.55L4.05 -13.7L4.05 -13.9L4.1 -14.15L4.65 -15.4M5.15,-16.6Q4.4 -18.05 6 -18.05M9.1,-17.7Q11.85 -19.1 11.4 -16.25M6.45,-20.15L6.55 -20.85Q6.5 -22.15 5.55 -23.1M2.3,-17.7Q1.5 -17.85 0.9 -18.35M2.4,-25.95Q6.2 -27.9 5.55 -23.9M0,-25.25Q0.7 -24.6 0.75 -23.7Q0.75 -22.75 0 -22.05Q-0.75 -21.4 -1.8 -21.4Q-2.75 -21.4 -3.45 -21.9M-7.3,-25L-7 -24.95L-6.75 -24.95L-7.3 -23.7L-7.35 -23.45L-7.35 -23.25L-7.35 -23.1Q-7.1 -21.95 -3.85 -23.15M-6.25,-26.15Q-7 -27.6 -5.4 -27.6M0.3,-20.1Q-4.1 -18.4 -4.4 -20.05L-4.45 -20.25L-4.45 -20.5L-4.4 -20.85L-3.65 -22.65" />
</g>
</svg>
