<?xml version="1.0" encoding="utf-8"?>
<svg version="1.1" id="Layer_1"
xmlns="http://www.w3.org/2000/svg"
xmlns:xlink="http://www.w3.org/1999/xlink"
xmlns:author="http://www.sothink.com"
width="378px" height="343px"
xml:space="preserve">
<g id="553" transform="matrix(1, 0, 0, 1, 294.1, 239.1)">
<path style="fill:#E3CC71;fill-opacity:1" d="M40.1,-179.55L28.45 -174.25L28.45 -174.6L28.45 -175L40.1 -179.55" />
<path style="fill:#000000;fill-opacity:1" d="M-121.2,-110.9L-282.35 -173.4L-120.95 -238.6L40.1 -179.55L28.45 -175L28.45 -174.6L28.35 -174.55L-121.2 -110.9M-272.5,-115.55L-251.05 -107.1L-251.05 6.1L-272.5 -3.6L-272.5 -3.8L-272.5 -115.55M-168,-32.1L-168 53.05L-192.5 51.15L-192.5 -49.9L-168 -32.1M-211.95,-8.75L-211.95 32.45L-233.7 31.05L-233.7 -23.9L-211.95 -8.75M-156.1,55.75L-156.1 -67.95L-131.7 -58.15L-131.7 66.95L-156.1 55.75M-11.4,-172.45L-118.35 -215.85L-227.35 -171.45L-116.35 -128.05L-11.4 -172.45M-45.95,31.95L-45.65 31L-44 31.8L-45.95 31.95M-69.25,21.45L-67.6 15L-54 13.95L-55.7 20.4L-69.25 21.45M-69.7,39.95L-60.65 39.2L-62.3 45.65L-62.35 45.7L-69.7 46.25L-69.7 39.95" />
<path style="fill:#296C76;fill-opacity:1" d="M-121.2,-100.1L-121.2 -110.9L28.35 -174.55L28.45 -174.25L40.1 -179.55L40.1 -169.35L-121.2 -100.1M-121.2,-60.1L-117.75 -57.95L-117.1 -57.55L-116.95 -57.65L-116.55 -57.8L40.1 -128.4L40.1 -128.05L-121.2 -55.4L-121 -55L-121.2 -54.8L-121.2 -55.4L-121.2 -60.1M-18,13.15L-15.75 13.15L-1.2 13.15L0.4 13.15L0.4 -27.6L3.4 -29.05L3.4 -5.05L3.4 2.15L3.4 5.6L3.4 11.7L12.3 7.3L17.8 4.6L17.95 4.55L18.4 4.35L21.2 3L22.1 2.55L23 2.15L23 2.1L23 -38.5L26.25 -40.1L26.25 -5.85L26.25 0.55L28.45 -6.95L28.45 -41.2L31.25 -42.55L40.1 -46.8L40.1 -0.05L29.9 5.05L-26.7 33.25L-32.6 36.1L-33.65 36.6L-33.65 -11.1L-22 -16.7Q-20 -17.65 -18 -18.65L-18 13.15M-18,16.3L-17.95 16.25L-18 16.25L-18 16.3M-117.35,78.2L-121.2 80.1L-121.2 -50.1Q-120.75 -49.45 -120.15 -49.45Q-119.65 -49.45 -119.2 -50L-119 -50.3L-118.85 -50.6L-91.8 4.25L-91.8 17.05L-69.7 6.4L-69.7 10.65L-69.7 14.05L-69.7 21.7L-69.7 28.2L-69.7 32.7L-69.7 39.95L-69.7 46.25L-69.7 54.5L-69.95 54.6L-108.4 73.75L-116.6 77.8L-117.35 78.2" />
<path style="fill:#F0E9B9;fill-opacity:1" d="M28.35,-174.55L28.45 -174.6L28.45 -174.25L28.35 -174.55M-108.9,-97.25L33.05 -158.7L33.05 -135.55L-108.9 -73.1L-108.9 -97.25" />
<path style="fill:#FEAE2C;fill-opacity:1" d="M-117.1,-98.15L44.7 -167.8L44.7 -130.5L33.05 -135.55L33.05 -158.7L-108.9 -97.25L-117.1 -98.15" />
<path style="fill:#FFCC66;fill-opacity:1" d="M40.1,-169.35L44.7 -167.8L-117.1 -98.15L-108.9 -97.25L-108.9 -73.1L33.05 -135.55L44.7 -130.5L40.1 -128.4L-116.55 -57.8L-117.1 -59L-117.1 -57.65L-116.95 -57.65L-117.1 -57.55L-117.75 -57.95L-117.1 -59L-117.1 -98.15L-121.2 -100.1L40.1 -169.35M-121,-55L-118.85 -50.6L-119 -50.3L-119.2 -50Q-119.65 -49.45 -120.15 -49.45Q-120.75 -49.45 -121.2 -50.1L-121.2 -54.8L-121 -55" />
<path style="fill:#0B1E20;fill-opacity:1" d="M-51.5,-2.45L-33.65 -11.1L-33.65 36.6L-44 31.8L-45.65 31L-47.6 30.15L-51.4 28.35L-51.5 28.3L-51.5 23.7L-51.5 22.25L-51.5 12.7L-51.5 8.15L-51.5 1.7L-51.5 -2.45M28.45,-6.95L26.25 -5.85L26.25 -40.1L28.45 -41.2L28.45 -6.95M21.2,-3.3L21.15 -22.05L21.15 -26.2L21.45 -26.2L21.8 -26.2L21.8 -37.7L21.55 -37.85L23 -38.5L23 2.1L23 2.15L22.1 2.55L21.2 3L21.2 -3.3M-1.2,-26.8L0.4 -27.6L0.4 13.15L-1.2 13.15L-1.2 7.9L-1.2 -26.8" />
<path style="fill:#FFFFFF;fill-opacity:1" d="M21.15,-22.05L8.25 -31.4L21.15 -37.65L21.55 -37.85L21.8 -37.7L21.8 -26.2L21.45 -26.2L21.15 -26.2L21.15 -22.05M3.4,-5.05L12.85 0.9L12.8 0.9L12.75 0.9L6.55 4L3.4 2.15L3.4 -5.05M-51.5,1.7L-51.5 8.15L-51.5 12.7L-51.5 22.25L-55.7 20.4L-54 13.95L-67.6 15L-69.25 21.45L-69.7 21.7L-69.7 14.05L-69.7 10.65L-69.7 6.4L-62.8 3.05L-51.5 -2.45L-51.5 1.7M-117.35,78.25L-117.35 78.2L-116.6 77.8L-108.4 73.75L-108.25 73.75L-116.5 77.85L-117.35 78.25" />
<path style="fill:#66B5EE;fill-opacity:1" d="M-18,16.25L-17.95 16.25L-18 16.3L-18 16.25M21.15,-22.05L21.2 -3.3L21.15 -3.25L12.85 0.9L3.4 -5.05L3.4 -29.05L8.25 -31.4L21.15 -22.05M3.4,2.15L6.55 4L3.4 5.6L3.4 2.15M-18,-18.65L-1.2 -26.8L-1.2 7.9L-1.8 8.1L-14.85 12.8L-15.75 13.15L-18 13.15L-18 -18.65" />
<path style="fill:#3EA3B0;fill-opacity:1" d="M21.2,3L18.4 4.35L12.85 0.9L21.15 -3.25L21.2 -3.3L21.2 3M3.4,5.6L6.55 4L12.3 7.3L3.4 11.7L3.4 5.6M-1.2,13.15L-15.75 13.15L-14.85 12.8L-1.8 8.1L-1.2 7.9L-1.2 13.15" />
<path style="fill:#55B6C4;fill-opacity:1" d="M26.25,0.55L26.25 -5.85L28.45 -6.95L26.25 0.55" />
<path style="fill:#C8E8EC;fill-opacity:1" d="M6.55,4L12.75 0.9L12.8 0.9L12.85 0.9L18.4 4.35L17.95 4.55L17.8 4.6L12.3 7.3L6.55 4" />
<path style="fill:#000000;fill-opacity:0.2" d="M-26.7,33.25L29.9 5.05L67.05 25.2L-85 103.7L-180 58.75L-161.95 59.85L-146.3 67.65Q-143.15 69.25 -140.05 70.8L-121.2 80.55L-55.45 47.7L-41.6 40.85L-32.6 36.35L-32.6 36.25L-26.7 33.25" />
<path style="fill:#9C7C3D;fill-opacity:1" d="M-248.25,17.05L-279 1.75L-278.85 -123.05L-248.25 -110.85L-248.25 17.05M-127.9,76.75L-161.9 59.85L-161.9 -75.95L-160.85 -75.95L-127.9 -62.75L-127.9 76.75M-251.05,-107.1L-272.5 -115.55L-275.6 -116.9L-275.6 -2.25L-251.05 9.65L-251.05 6.1L-251.05 -107.1M-158.5,-68.85L-158.5 57.6L-158.1 57.3L-131.7 69.95L-131.7 66.95L-131.7 -58.15L-156.1 -67.95L-158.5 -68.85" />
<path style="fill:#414945;fill-opacity:1" d="M-161.9,-75.95L-161.9 -76.35L-169.95 -79.55L-203.8 -93.1L-206.95 -94.35L-214.9 -97.55L-245.4 -109.7L-248.25 -110.85L-278.85 -123.05L-282.35 -124.45L-282.35 -173.4L-121.2 -110.9L-121.2 -100.1L-121.2 -60.1L-127.9 -62.75L-160.85 -75.95L-161.9 -75.95M-272.5,-3.8L-272.5 -3.6L-251.05 6.1L-251.05 9.65L-275.6 -2.25L-275.6 -116.9L-272.5 -115.55L-272.5 -3.8M-131.7,66.95L-131.7 69.95L-158.1 57.3L-158.5 57.6L-158.5 -68.85L-156.1 -67.95L-156.1 55.75L-131.7 66.95M-127.9,76.75L-127.3 77.1L-140.05 70.8Q-143.15 69.25 -146.3 67.65L-161.95 59.85L-161.9 59.85L-127.9 76.75" />
<path style="fill:#C27901;fill-opacity:1" d="M-117.1,-57.65L-117.1 -59L-116.55 -57.8L-116.95 -57.65L-117.1 -57.65M-205.15,53.05L-205.15 -79.55L-206.95 -94.35L-239.3 -94.35L-239.3 35.7L-242.6 32.35L-245.8 30.25L-245.8 -97.55L-248.25 -110.85L-245.4 -109.7L-242.6 -97.55L-214.9 -97.55L-206.95 -94.35L-203.8 -93.1L-202.15 -79.55L-169.95 -79.55L-161.9 -76.35L-199.1 -76.35L-199.1 57.55L-202.15 54.55L-205.15 53.05M-117.1,-98.15L-117.1 -59L-117.75 -57.95L-121.2 -60.1L-121.2 -100.1L-117.1 -98.15M-241.75,-83.75L-241.75 -86.95L-242.6 -87.35Q-243.3 -87.5 -244 -86.95L-244 -83.75L-244 -80.25L-244 -76.85L-242.6 -76.85L-241.75 -76.85L-241.75 -80.25L-241.75 -83.75M-241.5,15.65L-241.5 12.5L-242.6 12.5L-243.75 12.5L-243.75 15.65L-243.75 19.15L-243.75 22.75Q-243.25 23.1 -242.6 23.05L-241.5 22.55L-241.5 19.15L-241.5 15.65M-241.55,-25.3L-241.55 -28.8L-241.55 -31.95Q-242.1 -32.4 -242.6 -32.4Q-243.2 -32.45 -243.8 -31.95L-243.8 -28.8L-243.8 -25.3L-243.8 -21.7Q-243.25 -21.35 -242.6 -21.45Q-242.1 -21.5 -241.55 -21.9L-241.55 -25.3M-203.25,-64.4L-203.25 -60.9L-203.25 -57.45L-202.15 -57.45L-200.95 -57.45L-200.95 -60.9L-200.95 -64.4L-200.95 -67.55Q-201.6 -68.1 -202.15 -68.1Q-202.75 -68.1 -203.25 -67.55L-203.25 -64.4M-203.25,-10.6L-203.25 -7.15L-203.25 -3.55L-202.15 -3.25Q-201.6 -3.3 -200.95 -3.7L-200.95 -7.15L-200.95 -10.6L-200.95 -13.8Q-201.55 -14.3 -202.15 -14.25L-203.25 -13.8L-203.25 -10.6M-203.55,34.8L-203.55 37.95L-203.55 41.45L-203.55 45.05L-202.15 45.3Q-201.75 45.2 -201.3 44.9L-201.3 41.45L-201.3 37.95L-201.3 34.8L-202.15 34.8L-203.55 34.8" />
<path style="fill:#612B14;fill-opacity:1" d="M-280,1.25L-282.35 0.05L-282.35 -124.45L-278.85 -123.05L-279 1.75L-280 1.25M-127.9,-62.75L-121.2 -60.1L-121.2 -55.4L-121.2 -54.8L-121.2 -50.1L-121.2 80.1L-127.3 77.1L-127.9 76.75L-127.9 -62.75" />
<path style="fill:#162E18;fill-opacity:1" d="M-241.75,-80.25L-241.75 -76.85L-242.6 -76.85L-244 -76.85L-244 -80.25L-244 -83.75L-244 -86.95Q-243.3 -87.5 -242.6 -87.35L-241.75 -86.95L-241.75 -83.75L-241.75 -80.25M-241.5,19.15L-241.5 22.55L-242.6 23.05Q-243.25 23.1 -243.75 22.75L-243.75 19.15L-243.75 15.65L-243.75 12.5L-242.6 12.5L-241.5 12.5L-241.5 15.65L-241.5 19.15M-241.55,-21.9Q-242.1 -21.5 -242.6 -21.45Q-243.25 -21.35 -243.8 -21.7L-243.8 -25.3L-243.8 -28.8L-243.8 -31.95Q-243.2 -32.45 -242.6 -32.4Q-242.1 -32.4 -241.55 -31.95L-241.55 -28.8L-241.55 -25.3L-241.55 -21.9M-203.25,-67.55Q-202.75 -68.1 -202.15 -68.1Q-201.6 -68.1 -200.95 -67.55L-200.95 -64.4L-200.95 -60.9L-200.95 -57.45L-202.15 -57.45L-203.25 -57.45L-203.25 -60.9L-203.25 -64.4L-203.25 -67.55M-203.25,-13.8L-202.15 -14.25Q-201.55 -14.3 -200.95 -13.8L-200.95 -10.6L-200.95 -7.15L-200.95 -3.7Q-201.6 -3.3 -202.15 -3.25L-203.25 -3.55L-203.25 -7.15L-203.25 -10.6L-203.25 -13.8M-202.15,34.8L-201.3 34.8L-201.3 37.95L-201.3 41.45L-201.3 44.9Q-201.75 45.2 -202.15 45.3L-203.55 45.05L-203.55 41.45L-203.55 37.95L-203.55 34.8L-202.15 34.8" />
<path style="fill:#020C0D;fill-opacity:1" d="M-192.5,-62.65L-192.5 -71.15L-168 -71.15L-168 -46.8L-192.5 -62.65" />
<path style="fill:#FDBA4D;fill-opacity:1" d="M-248.25,17.05L-248.25 -110.85L-245.8 -97.55L-245.8 30.25L-248.25 17.05M-161.9,59.85L-161.95 59.85L-180 58.75L-199.1 57.55L-199.1 -76.35L-161.9 -76.35L-161.9 -75.95L-161.9 59.85M-192.5,-49.9L-192.5 51.15L-168 53.05L-168 -32.1L-168 -46.8L-168 -71.15L-192.5 -71.15L-192.5 -62.65L-192.5 -49.9M-227.2,36.35L-239.3 35.7L-239.3 -94.35L-206.95 -94.35L-205.15 -79.55L-205.15 53.05L-205.9 46.45L-206.95 37.5L-207 37.5L-227.2 36.35M-233.7,31.05L-211.95 32.45L-211.95 -8.75L-211.95 -89.3L-233.7 -89.3L-233.7 -23.9L-233.7 31.05" />
<linearGradient
id="LinearGradID_2044" gradientUnits="userSpaceOnUse" gradientTransform="matrix(-0.00421143, 0.0118561, 0.0191498, 0.00679016, -180.3, -47.35)" spreadMethod ="pad" x1="-819.2" y1="0" x2="819.2" y2="0" >
<stop  offset="0" style="stop-color:#B1B1B1;stop-opacity:1" />
<stop  offset="1" style="stop-color:#FFFFFF;stop-opacity:1" />
</linearGradient>
<path style="fill:url(#LinearGradID_2044) " d="M-192.5,-49.9L-192.5 -62.65L-168 -46.8L-168 -32.1L-192.5 -49.9" />
<path style="fill:#121518;fill-opacity:1" d="M-242.6,-97.55L-245.4 -109.7L-214.9 -97.55L-242.6 -97.55M-202.15,-79.55L-203.8 -93.1L-169.95 -79.55L-202.15 -79.55" />
<linearGradient
id="LinearGradID_2045" gradientUnits="userSpaceOnUse" gradientTransform="matrix(0, 0.0491943, 0.0132751, 0, -222.85, -49.05)" spreadMethod ="pad" x1="-819.2" y1="0" x2="819.2" y2="0" >
<stop  offset="0" style="stop-color:#B1B1B1;stop-opacity:1" />
<stop  offset="1" style="stop-color:#FFFFFF;stop-opacity:1" />
</linearGradient>
<path style="fill:url(#LinearGradID_2045) " d="M-233.7,-23.9L-233.7 -89.3L-211.95 -89.3L-211.95 -8.75L-233.7 -23.9" />
<path style="fill:#574E13;fill-opacity:1" d="M-116.35,-128.05L-227.35 -171.45L-118.35 -215.85L-11.4 -172.45L-116.35 -128.05" />
<path style="fill:#B1B1B1;fill-opacity:1" d="M-69.95,54.85L-69.95 54.6L-69.7 54.5L-69.7 46.25L-62.35 45.7L-62.3 45.65L-60.65 39.2L-69.7 39.95L-69.7 32.7L-69.7 28.2L-69.7 21.7L-69.25 21.45L-55.7 20.4L-51.5 22.25L-51.5 23.7L-51.5 28.3L-51.4 28.35L-51.4 30.15L-47.6 30.15L-45.65 31L-45.95 31.95L-44 31.8L-33.65 36.6L-32.6 36.1L-32.6 36.25L-32.6 36.35L-41.6 40.85L-55.45 47.7L-56.6 48.2L-69.95 54.85M-227.2,36.35L-207 37.5L-206.95 37.5L-205.9 46.45L-227.2 36.35" />
<path style="fill:#2D2D2D;fill-opacity:0.2" d="M-282.35,0.1L-282.35 0.05L-280 1.25L-279.25 1.65L-279 1.75L-248.25 17.05L-245.8 30.25L-294.1 5.6L-282.35 0.1" />
<path style="fill:none;stroke-width:1;stroke-linecap:round;stroke-linejoin:round;stroke-miterlimit:3;stroke:#000000;stroke-opacity:1" d="M40.1,-179.55L40.1 -169.35L44.7 -167.8L44.7 -130.5L40.1 -128.4L40.1 -128.05L82.6 -80.65M40.1,-179.55L28.45 -174.6L28.35 -174.55M40.1,-179.55L-120.95 -238.6L-282.35 -173.4L-121.2 -110.9L28.35 -174.55M44.7,-130.5L33.05 -135.55L-108.9 -73.1L-117.1 -59L-117.1 -98.15L-121.2 -100.1L40.1 -169.35M-116.55,-57.8L40.1 -128.4M33.05,-135.55L33.05 -158.7L-108.9 -97.25L-108.9 -73.1M33.05,-158.7L44.7 -167.8L-117.1 -98.15L-108.9 -97.25M31.25,-42.55L31.25 -8.3L28.45 -6.95L26.25 3.25L0.4 16.25L-17.95 16.25L-18 16.3L-22 18.3L-22 -16.7M-33.65,-11.1L-33.65 36.6L-32.6 36.1L-26.7 33.25L29.9 5.05L40.1 -0.05L40.1 -46.8M26.25,-40.1L26.25 -5.85L28.45 -6.95L28.45 -41.2M21.55,-37.85L21.15 -37.65L21.15 -26.2L21.45 -26.2M21.55,-37.85L23 -38.5M3.4,-29.05L3.4 -5.05M21.2,-3.3L21.15 -22.05M21.15,-26.2L21.15 -22.05M21.2,-3.3L21.2 3L22.1 2.55L23 2.1L23 -38.5M22.1,2.55L23 2.15L23 2.1L26.25 0.55L26.25 -5.85M28.45,-6.95L26.25 0.55L26.25 3.25M12.3,7.3L17.8 4.6L17.95 4.55L18.4 4.35M12.3,7.3L3.4 11.7L0.4 13.15L0.4 16.25M3.4,5.6L3.4 11.7M3.4,5.6L3.4 2.15L3.4 -5.05M21.2,3L18.4 4.35M-1.2,13.15L-1.2 7.9L-1.2 -26.8L0.4 -27.6L0.4 13.15L-1.2 13.15L-15.75 13.15L-18 13.15L-18 16.25L-17.95 16.25M-248.25,-110.85L-278.85 -123.05L-279 1.75L-248.25 17.05L-248.25 -110.85L-245.4 -109.7L-214.9 -97.55L-206.95 -94.35L-203.8 -93.1L-169.95 -79.55L-161.9 -76.35L-160.85 -75.95L-127.9 -62.75L-121.2 -60.1L-121.2 -100.1L-121.2 -110.9M-278.85,-123.05L-282.35 -124.45L-282.35 0.05L-280 1.25L-279 1.75M-251.05,6.1L-251.05 9.65L-275.6 -2.25L-275.6 -116.9L-272.5 -115.55L-251.05 -107.1L-251.05 6.1L-272.5 -3.6M-272.5,-3.8L-272.5 -115.55M-282.35,-173.4L-282.35 -124.45M-242.6,-76.85L-244 -76.85L-244 -80.25L-244 -83.75L-244 -86.95Q-243.3 -87.5 -242.6 -87.35L-242.6 -97.55L-245.8 -97.55L-245.8 30.25L-242.6 32.35L-242.6 23.05Q-243.25 23.1 -243.75 22.75L-243.75 19.15L-243.75 15.65L-243.75 12.5L-242.6 12.5L-242.6 -21.45Q-243.25 -21.35 -243.8 -21.7L-243.8 -25.3L-243.8 -28.8L-243.8 -31.95Q-243.2 -32.45 -242.6 -32.4L-242.6 -76.85L-241.75 -76.85L-241.75 -80.25L-244 -80.25M-199.1,-76.35L-202.15 -79.55L-202.15 -68.1Q-201.6 -68.1 -200.95 -67.55L-200.95 -64.4L-200.95 -60.9L-200.95 -57.45L-202.15 -57.45L-202.15 -14.25Q-201.55 -14.3 -200.95 -13.8L-200.95 -10.6L-200.95 -7.15L-200.95 -3.7Q-201.6 -3.3 -202.15 -3.25L-202.15 34.8L-201.3 34.8L-201.3 37.95L-201.3 41.45L-201.3 44.9Q-201.75 45.2 -202.15 45.3L-202.15 54.55L-199.1 57.55L-199.1 -76.35L-161.9 -76.35L-161.9 -75.95M-168,-46.8L-168 -71.15L-192.5 -71.15L-192.5 -62.65M-168,-46.8L-168 -32.1L-168 53.05L-192.5 51.15L-192.5 -49.9L-192.5 -62.65M-203.8,-93.1L-202.15 -79.55L-169.95 -79.55M-245.4,-109.7L-242.6 -97.55L-239.3 -94.35L-206.95 -94.35L-205.15 -79.55L-202.15 -79.55M-206.95,-94.35L-206.95 37.5L-205.9 46.45L-205.15 53.05L-205.15 -79.55M-241.75,-80.25L-241.75 -83.75L-241.75 -86.95L-242.6 -87.35M-241.75,-83.75L-244 -83.75M-202.15,-68.1Q-202.75 -68.1 -203.25 -67.55L-203.25 -64.4L-203.25 -60.9L-200.95 -60.9M-202.15,-57.45L-203.25 -57.45L-203.25 -60.9M-203.25,-64.4L-200.95 -64.4M-242.6,-97.55L-214.9 -97.55M-233.7,-23.9L-233.7 -89.3L-211.95 -89.3L-211.95 -8.75L-211.95 32.45L-233.7 31.05L-233.7 -23.9L-211.95 -8.75M-242.6,-21.45Q-242.1 -21.5 -241.55 -21.9L-241.55 -25.3L-241.55 -28.8L-241.55 -31.95Q-242.1 -32.4 -242.6 -32.4M-241.55,-28.8L-243.8 -28.8M-241.55,-25.3L-243.8 -25.3M-202.15,-14.25L-203.25 -13.8L-203.25 -10.6L-203.25 -7.15L-200.95 -7.15M-202.15,-3.25L-203.25 -3.55L-203.25 -7.15M-203.25,-10.6L-200.95 -10.6M-248.25,-110.85L-245.8 -97.55M-121.2,-55.4L-121.2 -60.1L-117.75 -57.95L-117.1 -57.55L-116.95 -57.65L-117.1 -57.55L-117.1 -57.65L-117.1 -59M-117.1,-57.55L-121.2 -55.4L40.1 -128.05M-116.55,-57.8L-116.95 -57.65M-121.2,-54.8L-121 -55L-118.85 -50.6L-91.8 4.25M-121,-55L-121.2 -55.4L-121.2 -54.8L-121.2 -50.1Q-120.75 -49.45 -120.15 -49.45Q-119.65 -49.45 -119.2 -50L-119 -50.3L-118.85 -50.6M-156.1,-67.95L-131.7 -58.15L-131.7 66.95L-131.7 69.95L-158.1 57.3L-158.5 57.6L-158.5 -68.85L-156.1 -67.95L-156.1 55.75L-131.7 66.95M-116.35,-128.05L-227.35 -171.45L-118.35 -215.85L-11.4 -172.45L-116.35 -128.05M-32.6,36.35L-41.6 40.85L-55.45 47.7M-140.05,70.8Q-143.15 69.25 -146.3 67.65M-161.95,59.85L-180 58.75L-199.1 57.55M-51.5,8.15L-51.5 1.7L-58.35 5.05L-51.5 8.15L-51.5 12.7L-51.5 22.25L-51.5 23.7L-51.5 28.3L-51.4 28.35L-47.6 30.15L-45.65 31L-44 31.8L-33.65 36.6L-41.95 40.7L-41.65 40.8L-41.6 40.85M-51.5,12.7L-54 13.95L-55.7 20.4L-51.5 22.25M-54,13.95L-67.6 15L-69.25 21.45L-55.7 20.4M-69.25,21.45L-69.7 21.7L-69.7 28.2L-64.95 30.35L-51.5 23.7M-69.7,6.4L-69.7 10.65L-69.7 14.05L-67.6 15M-69.7,14.05L-69.7 21.7M-69.7,10.65L-58.35 5.05L-62.8 3.05M-69.7,32.7L-69.7 39.95L-60.65 39.2L-53.25 35.55L-64.95 30.35L-69.7 32.7L-69.7 28.2M-69.7,39.95L-69.7 46.25L-62.35 45.7L-62.3 45.65L-60.65 39.2M-69.7,46.25L-69.7 54.5L-56.85 48.1L-62.35 45.7M-44,31.8L-45.95 31.95L-45.65 31M-45.95,31.95L-53.25 35.55L-41.95 40.7L-56.85 48.1L-56.6 48.2L-55.45 47.7M-69.7,54.5L-69.95 54.6M-69.95,54.85L-56.6 48.2M-156.1,55.75L-158.1 57.3M-161.95,59.85L-161.9 59.85L-161.9 -75.95M-161.9,59.85L-127.9 76.75L-127.3 77.1L-121.2 80.1L-121.2 -50.1M-140.05,70.8L-127.3 77.1M-127.9,76.75L-127.9 -62.75M-116.6,77.8L-117.35 78.2L-121.2 80.1M-108.4,73.75L-116.6 77.8L-116.5 77.85L-108.25 73.75M-108.4,73.75L-69.95 54.6M-117.35,78.25L-116.5 77.85M-241.5,19.15L-241.5 15.65L-241.5 12.5L-242.6 12.5M-242.6,23.05L-241.5 22.55L-241.5 19.15L-243.75 19.15M-241.5,15.65L-243.75 15.65M-206.95,37.5L-207 37.5L-227.2 36.35L-239.3 35.7L-242.6 32.35M-239.3,35.7L-239.3 -94.35M-202.15,45.3L-203.55 45.05L-203.55 41.45L-203.55 37.95L-203.55 34.8L-202.15 34.8M-205.15,53.05L-202.15 54.55M-203.55,41.45L-201.3 41.45M-201.3,37.95L-203.55 37.95M-282.35,0.1L-282.35 0.05M-245.8,30.25L-248.25 17.05M-18,13.15L-18 -18.65M-51.5,1.7L-51.5 -2.45" />
<path style="fill:none;stroke-width:0.05;stroke-linecap:round;stroke-linejoin:round;stroke-miterlimit:3;stroke:#000000;stroke-opacity:1" d="M12.85,0.9L21.15 -3.25M12.85,0.9L12.8 0.9M6.55,4L3.4 5.6M-1.8,8.1L-14.85 12.8" />
<path style="fill:#784B01;fill-opacity:1" d="M-282.35,-162.15L-121.2 -100.15L-121.2 -60.1L-282.35 -124.5L-282.35 -162.15" />
<path style="fill:none;stroke-width:1;stroke-linecap:round;stroke-linejoin:round;stroke-miterlimit:3;stroke:#000000;stroke-opacity:1" d="M-282.35,-162.15L-121.2 -100.15L-121.2 -60.1L-282.35 -124.5L-282.35 -162.15z" />
</g>
</svg>
