<?xml version="1.0" encoding="utf-8"?>
<svg version="1.1" id="Layer_1"
xmlns="http://www.w3.org/2000/svg"
xmlns:xlink="http://www.w3.org/1999/xlink"
xmlns:author="http://www.sothink.com"
width="40px" height="87px"
xml:space="preserve">
<g id="361" transform="matrix(1, 0, 0, 1, 0.25, 0.25)">
<linearGradient
id="LinearGradID_1433" gradientUnits="userSpaceOnUse" gradientTransform="matrix(-0.000579834, 0.0449982, -0.0338135, -0.000839233, 23.35, 42.65)" spreadMethod ="pad" x1="-819.2" y1="0" x2="819.2" y2="0" >
<stop  offset="0" style="stop-color:#67FE01;stop-opacity:1" />
<stop  offset="0.168627" style="stop-color:#C1F795;stop-opacity:1" />
<stop  offset="1" style="stop-color:#52CB01;stop-opacity:1" />
</linearGradient>
<path style="fill:url(#LinearGradID_1433) " d="M17.85,73.95L17.85 73.8Q16.3 57.95 17.9 42Q19.5 27.05 22.85 16Q23.7 13.15 24.7 10.6L25.5 8.55Q27.4 3.8 29.7 0L23.55 63.3L23.55 64.4L21.45 77.95L21.5 83.6L21.55 83.85L18.9 85.3L17.85 73.95" />
<linearGradient
id="LinearGradID_1434" gradientUnits="userSpaceOnUse" gradientTransform="matrix(-0.0055542, 0.0284729, -0.0171051, -0.00773621, 29.9, 61.55)" spreadMethod ="pad" x1="-819.2" y1="0" x2="819.2" y2="0" >
<stop  offset="0" style="stop-color:#67FE01;stop-opacity:1" />
<stop  offset="0.168627" style="stop-color:#C1F795;stop-opacity:1" />
<stop  offset="1" style="stop-color:#52CB01;stop-opacity:1" />
</linearGradient>
<path style="fill:url(#LinearGradID_1434) " d="M21.45,77.95L23.55 64.4L23.55 63.3L30.65 46.65Q34.6 39.7 38.65 39.25L22.75 84.5L21.5 83.6L21.45 77.95" />
<linearGradient
id="LinearGradID_1435" gradientUnits="userSpaceOnUse" gradientTransform="matrix(0.00526428, 0.0190125, -0.015274, 0.00987244, 9.65, 65.25)" spreadMethod ="pad" x1="-819.2" y1="0" x2="819.2" y2="0" >
<stop  offset="0" style="stop-color:#67FE01;stop-opacity:1" />
<stop  offset="0.168627" style="stop-color:#C1F795;stop-opacity:1" />
<stop  offset="1" style="stop-color:#52CB01;stop-opacity:1" />
</linearGradient>
<path style="fill:url(#LinearGradID_1435) " d="M18.9,85.3L18.55 85.65L17.15 85.65L16.95 84.4L15.65 78.85L13.7 73.8L0 44.45Q4.8 48.3 9.65 55.4L12.8 60.2L13.7 61.7L17.85 73.95L18.9 85.3" />
<linearGradient
id="LinearGradID_1436" gradientUnits="userSpaceOnUse" gradientTransform="matrix(-0.000579834, 0.0449982, -0.0338135, -0.000839233, 23.35, 42.65)" spreadMethod ="pad" x1="-819.2" y1="0" x2="819.2" y2="0" >
<stop  offset="0" style="stop-color:#73FF26;stop-opacity:1" />
<stop  offset="0.168627" style="stop-color:#DDFBC8;stop-opacity:1" />
<stop  offset="1" style="stop-color:#4AD200;stop-opacity:1" />
</linearGradient>
<path style="fill:url(#LinearGradID_1436) " d="M21.5,83.6L21.65 83.85L21.55 83.85L21.5 83.6" />
<path style="fill:none;stroke-width:0.5;stroke-linecap:round;stroke-linejoin:round;stroke-miterlimit:3;stroke:#666666;stroke-opacity:1" d="M23.55,63.3L30.65 46.65Q34.6 39.7 38.65 39.25L22.75 84.5L21.5 83.6L21.65 83.85L21.55 83.85L18.9 85.3L18.55 85.65L17.15 85.65L16.95 84.4L15.65 78.85L13.7 73.8L0 44.45Q4.8 48.3 9.65 55.4L12.8 60.2L13.7 61.7L17.85 73.95L17.85 73.8Q16.3 57.95 17.9 42Q19.5 27.05 22.85 16Q23.7 13.15 24.7 10.6L25.5 8.55Q27.4 3.8 29.7 0L23.55 63.3L23.55 64.4L21.45 77.95L21.5 83.6M17.85,73.95L18.9 85.3" />
</g>
</svg>
