<?xml version="1.0" encoding="utf-8"?>
<svg version="1.1" id="Layer_1"
xmlns="http://www.w3.org/2000/svg"
xmlns:xlink="http://www.w3.org/1999/xlink"
xmlns:author="http://www.sothink.com"
width="63px" height="105px"
xml:space="preserve">
<g id="510" transform="matrix(1, 0, 0, 1, -14.3, 144.15)">
<path style="fill:#AA6A2B;fill-opacity:1" d="M52.6,-141.45L48.3 -141.15Q45 -140.95 41.65 -140L39.35 -139.25L39.3 -139.25Q36.3 -138.2 33.8 -136.7Q28.35 -133.45 24.8 -128Q22.5 -124.55 21.5 -120.95L19.25 -113.75Q17.9 -122 23.05 -129.75L25.3 -132.8Q28.5 -136.45 32.8 -138.85Q34.95 -140.05 37.45 -140.9L39.6 -141.55L43.1 -142.45L52.35 -143.65L52.6 -141.45" />
<path style="fill:#DA9C5F;fill-opacity:1" d="M73.25,-139.2L76.6 -137.85L76.15 -136.1L72.45 -136.35L73.25 -139.2" />
<path style="fill:#A05E27;fill-opacity:1" d="M66.45,-141.4L73.25 -139.2L72.45 -136.35L67.95 -138.1L65.8 -139.25L66.45 -141.4" />
<path style="fill:#613701;fill-opacity:1" d="M65.8,-139.25L61.45 -140.65L57.9 -141.2L52.6 -141.45L52.35 -143.65Q57.85 -143.8 62.85 -142.55L66.45 -141.4L65.8 -139.25" />
<path style="fill:none;stroke-width:1;stroke-linecap:round;stroke-linejoin:round;stroke-miterlimit:3;stroke:#49250E;stroke-opacity:1" d="M52.35,-143.65L43.1 -142.45L39.6 -141.55L37.45 -140.9Q34.95 -140.05 32.8 -138.85Q28.5 -136.45 25.3 -132.8L23.05 -129.75Q17.9 -122 19.25 -113.75L21.5 -120.95Q22.5 -124.55 24.8 -128Q28.35 -133.45 33.8 -136.7Q36.3 -138.2 39.3 -139.25L39.35 -139.25L41.65 -140Q45 -140.95 48.3 -141.15L52.6 -141.45L52.35 -143.65Q57.85 -143.8 62.85 -142.55L66.45 -141.4L73.25 -139.2L76.6 -137.85L76.15 -136.1L72.45 -136.35L67.95 -138.1L65.8 -139.25L61.45 -140.65L57.9 -141.2L52.6 -141.45M43.1,-142.45L39.9 -141.7L37.45 -140.9M39.35,-139.25L40.1 -139.5Q44.35 -140.7 48.3 -141.15M73.25,-139.2L72.45 -136.35M65.8,-139.25L66.45 -141.4" />
<path style="fill:#A05E27;fill-opacity:1" d="M76.15,-139.65L69.5 -133.65L69.5 -126.25L66.2 -126.25L66.2 -133.4L63.2 -138.5L65.6 -139.5L67.4 -135.75L68.75 -136.4L74.15 -141.15L76.15 -139.65" />
<path style="fill:none;stroke-width:1;stroke-linecap:round;stroke-linejoin:round;stroke-miterlimit:3;stroke:#49250E;stroke-opacity:1" d="M76.15,-139.65L69.5 -133.65L69.5 -126.25L66.2 -126.25L66.2 -133.4L63.2 -138.5L65.6 -139.5L67.4 -135.75L68.75 -136.4L74.15 -141.15L76.15 -139.65z" />
<path style="fill:none;stroke-width:1;stroke-linecap:round;stroke-linejoin:round;stroke-miterlimit:3;stroke:#D8D8D8;stroke-opacity:1" d="M19.7,-49.5L19.7 -113.25" />
<path style="fill:none;stroke-width:1;stroke-linecap:round;stroke-linejoin:round;stroke-miterlimit:3;stroke:#D5FFFF;stroke-opacity:1" d="M19.2,-49.5L19.2 -113.25" />
<linearGradient
id="LinearGradID_1996" gradientUnits="userSpaceOnUse" gradientTransform="matrix(0.00323486, 0, 0, 0.00509644, 17.45, -44.8)" spreadMethod ="pad" x1="-819.2" y1="0" x2="819.2" y2="0" >
<stop  offset="0" style="stop-color:#FFFFFF;stop-opacity:1" />
<stop  offset="1" style="stop-color:#717171;stop-opacity:1" />
</linearGradient>
<path style="fill:url(#LinearGradID_1996) " d="M20.05,-48.95L20.05 -46.45L20.1 -40.7L19.1 -40.6Q17.3 -40.6 16.05 -41.85Q14.8 -43.1 14.8 -44.9L15 -46.15Q15.25 -45.15 16.05 -44.35Q17 -43.4 18.3 -43.15L18.3 -48.95L20.05 -48.95" />
<path style="fill:none;stroke-width:1;stroke-linecap:round;stroke-linejoin:round;stroke-miterlimit:3;stroke:#666666;stroke-opacity:1" d="M20.05,-48.95L20.05 -46.45L20.1 -40.7L19.1 -40.6Q17.3 -40.6 16.05 -41.85Q14.8 -43.1 14.8 -44.9L15 -46.15Q15.25 -45.15 16.05 -44.35Q17 -43.4 18.3 -43.15L18.3 -48.95L20.05 -48.95z" />
</g>
</svg>
