<?xml version="1.0" encoding="utf-8"?>
<svg version="1.1" id="Layer_1"
xmlns="http://www.w3.org/2000/svg"
xmlns:xlink="http://www.w3.org/1999/xlink"
xmlns:author="http://www.sothink.com"
width="281px" height="172px"
xml:space="preserve">
<g id="385" transform="matrix(1, 0, 0, 1, 283.35, 71.35)">
<path style="fill:#D3CCB4;fill-opacity:1" d="M-137.05,10.15L-137.05 7.85L-104.7 -8.35L-104.7 -6L-137.05 10.15M-178,30.65L-178 28.3L-141.05 9.85L-141.05 12.15L-178 30.65M-217,50.1L-217 47.8L-182 30.3L-182 32.65L-217 50.1M-256,69.6L-256 67.3L-221 49.8L-221 52.1L-256 69.6" />
<path style="fill:#F1F1EF;fill-opacity:1" d="M-137,16.45L-137.05 10.15L-104.7 -6L-104.7 0.25L-137 16.45M-178,36.9L-178 30.65L-141.05 12.15L-141 18.45L-178 36.9M-217,56.4L-217 50.1L-182 32.65L-182 38.9L-217 56.4M-256,75.9L-256 69.6L-221 52.1L-221 58.4L-256 75.9" />
<path style="fill:#E7EAE7;fill-opacity:1" d="M-137,19.5L-137 16.45L-104.7 0.25L-104.7 3.35L-137 19.5M-178,40L-178 36.9L-141 18.45L-141 21.5L-178 40M-217,59.5L-217 56.4L-182 38.9L-182 42L-217 59.5M-256,79L-256 75.9L-221 58.4L-221 61.5L-256 79" />
<path style="fill:#DDE1E0;fill-opacity:1" d="M-137,21.05L-137 19.5L-104.7 3.35L-104.7 4.9L-137 21.05M-141,21.5L-141 23.05L-178 41.55L-178 40L-141 21.5M-182,42L-182 43.55L-217 61.05L-217 59.5L-182 42M-256,80.55L-256 79L-221 61.5L-221 63.05L-256 80.55" />
<path style="fill:#D2B335;fill-opacity:1" d="M-104.7,4.9L-104.7 6.5L-137 22.7L-137 21.05L-104.7 4.9M-141,23.05L-141 24.7L-178 43.2L-178 41.55L-141 23.05M-182,43.55L-182 45.2L-217 62.7L-217 61.05L-182 43.55M-221,63.05L-221 64.7L-256 82.15L-256 80.55L-221 63.05" />
<path style="fill:#C79E69;fill-opacity:1" d="M-79.95,11.65L-79.95 11.6L-79.95 8.65L-8.7 -27L-8.7 -23.95L-79.95 11.65" />
<path style="fill:#C87B31;fill-opacity:1" d="M-278.1,55.55L-278.1 55.5L-278.05 55.5L-258.5 65.3L-260.55 66.25L-260.55 66.7L-260.55 66.65L-260.6 67.8L-260.6 68.65L-262 67.95L-280.05 58.9L-280.05 56.55L-280 56.5L-278.1 55.55M-79.95,11.6L-79.95 11.65L-8.7 -23.95L-3.7 -21.45L-159.3 56.55L-230.6 92.25L-238.95 96.75L-244.65 93.9L-247.5 92.5L-245.5 91.5L-245.45 91.5L-222.7 80.1L-222.7 78.6L-222.7 77.1L-222.7 74.35L-222.7 69.15L-214.2 64.9L-214.2 70.1L-214.2 72.85L-214.2 74.35L-214.2 75.85L-183.2 60.35L-183.2 58.85L-183.2 57.35L-183.2 54.6L-183.2 49.4L-175.8 45.7L-175.8 50.8L-175.8 53.55L-175.8 55.1L-175.8 56.55L-142.05 39.7L-142.05 38.2L-142.05 36.7L-142.05 33.95L-142.05 28.75L-142 28.8L-136.1 25.85L-136.1 31L-136.1 33.75L-136.1 35.25L-136.1 36.75L-105.1 21.25L-105.1 19.75L-105.1 18.25L-105.1 15.5L-105.1 10.3L-105.05 10.35L-101.1 8.35L-87.2 15.25L-79.95 11.6M-253.7,89.4L-258.5 87L-253.7 84.6L-253.7 84.65L-253.7 89.4" />
<linearGradient
id="LinearGradID_1503" gradientUnits="userSpaceOnUse" gradientTransform="matrix(0.0732269, 0, 0, 0.0366211, -62.4, -23.65)" spreadMethod ="pad" x1="-819.2" y1="0" x2="819.2" y2="0" >
<stop  offset="0" style="stop-color:#723E25;stop-opacity:1" />
<stop  offset="0.145098" style="stop-color:#5D3822;stop-opacity:1" />
<stop  offset="0.427451" style="stop-color:#91523C;stop-opacity:1" />
<stop  offset="0.623529" style="stop-color:#83442E;stop-opacity:1" />
<stop  offset="0.756863" style="stop-color:#B56B3C;stop-opacity:1" />
<stop  offset="0.901961" style="stop-color:#9C503A;stop-opacity:1" />
<stop  offset="1" style="stop-color:#A76C3B;stop-opacity:1" />
</linearGradient>
<path style="fill:url(#LinearGradID_1503) " d="M-8.7,-36.75L-8.7 -33.3L-7.15 -32.5L-7.15 -32.35L-5.95 -31.9L-5.95 -31.85L-5.95 -31.8L-79.95 5.15L-79.95 -31.85L-77.15 -33.3L-41.4 -51.2L-39.5 -50.25Q-38.5 -50.75 -37.55 -51.2L-8.7 -36.75" />
<linearGradient
id="LinearGradID_1504" gradientUnits="userSpaceOnUse" gradientTransform="matrix(0.0732269, 0, 0, 0.0366211, -62.4, -23.65)" spreadMethod ="pad" x1="-819.2" y1="0" x2="819.2" y2="0" >
<stop  offset="0" style="stop-color:#723E25;stop-opacity:1" />
<stop  offset="0.145098" style="stop-color:#5D3822;stop-opacity:1" />
<stop  offset="0.427451" style="stop-color:#42291A;stop-opacity:1" />
<stop  offset="0.623529" style="stop-color:#6B3C24;stop-opacity:1" />
<stop  offset="0.756863" style="stop-color:#553120;stop-opacity:1" />
<stop  offset="0.901961" style="stop-color:#593220;stop-opacity:1" />
<stop  offset="1" style="stop-color:#542E1D;stop-opacity:1" />
</linearGradient>
<path style="fill:url(#LinearGradID_1504) " d="M-2.45,-33.65L-2.4 -33.65L-2.45 -33.6L-2.45 -33.65" />
<linearGradient
id="LinearGradID_1505" gradientUnits="userSpaceOnUse" gradientTransform="matrix(0.000732422, 0, 0, 0.000640869, -6.55, -31.85)" spreadMethod ="pad" x1="-819.2" y1="0" x2="819.2" y2="0" >
<stop  offset="0" style="stop-color:#723E25;stop-opacity:1" />
<stop  offset="0.145098" style="stop-color:#5D3822;stop-opacity:1" />
<stop  offset="0.427451" style="stop-color:#91523C;stop-opacity:1" />
<stop  offset="0.623529" style="stop-color:#83442E;stop-opacity:1" />
<stop  offset="0.756863" style="stop-color:#B56B3C;stop-opacity:1" />
<stop  offset="0.901961" style="stop-color:#9C503A;stop-opacity:1" />
<stop  offset="1" style="stop-color:#A76C3B;stop-opacity:1" />
</linearGradient>
<path style="fill:url(#LinearGradID_1505) " d="M-6.05,-31.95L-5.95 -31.9L-7.15 -32.35L-6.05 -31.95" />
<linearGradient
id="LinearGradID_1506" gradientUnits="userSpaceOnUse" gradientTransform="matrix(0.0451965, 0, 0, 0.0247498, -43, -11.65)" spreadMethod ="pad" x1="-819.2" y1="0" x2="819.2" y2="0" >
<stop  offset="0" style="stop-color:#723E25;stop-opacity:1" />
<stop  offset="0.145098" style="stop-color:#5D3822;stop-opacity:1" />
<stop  offset="0.427451" style="stop-color:#91523C;stop-opacity:1" />
<stop  offset="0.623529" style="stop-color:#83442E;stop-opacity:1" />
<stop  offset="0.756863" style="stop-color:#B56B3C;stop-opacity:1" />
<stop  offset="0.901961" style="stop-color:#9C503A;stop-opacity:1" />
<stop  offset="1" style="stop-color:#A76C3B;stop-opacity:1" />
</linearGradient>
<path style="fill:url(#LinearGradID_1506) " d="M-79.95,8.65L-79.95 5.15L-5.95 -31.8L-5.95 -28.4L-7.15 -27.75L-7.4 -27.65L-8.7 -27L-79.95 8.65" />
<path style="fill:#363041;fill-opacity:1" d="M-102.65,7.5L-102.7 7.55L-142.05 27.2L-175.8 44.05L-175.8 44.1L-219 65.7L-260.05 86.2L-260.05 86.25L-262.1 85.25L-278.1 77.2L-278.65 76.95L-280 76.25L-280.05 58.9L-262 67.95L-260.6 68.65L-258.75 67.75L-258.55 67.9L-258.05 67.65L-258 70.55L-258 76.85L-258 79.9L-258.05 81.5L-258 81.5L-258 83.1L-256 82.15L-254.35 81.35L-221 64.7L-221 49.8L-221 48.9L-217 46.9L-217 47.8L-217 62.7L-182 45.2L-182 30.3L-182 29.4L-178 27.45L-178 28.3L-178 43.2L-141 24.7L-141.05 9.85L-141.05 8.95L-137.05 6.95L-137.05 7.85L-137 22.7L-104.7 6.5L-104.7 -8.35L-104.7 -9.25L-102.65 -10.25L-102.65 7.5M-260.55,66.7L-260.6 67.8L-260.55 66.65L-260.55 66.7" />
<path style="fill:#DDDDC8;fill-opacity:1" d="M-137.05,7.85L-137.05 6.95L-104.7 -9.25L-104.7 -8.35L-137.05 7.85M-256,66.4L-221 48.9L-221 49.8L-255.3 67L-256 67.3L-256 66.4M-217,46.9L-182 29.4L-182 30.3L-217 47.8L-217 46.9M-178,27.45L-141.05 8.95L-141.05 9.85L-178 28.3L-178 27.45" />
<path style="fill:#D89C4B;fill-opacity:1" d="M-141.05,8.95L-178 27.45L-182 29.4L-217 46.9L-221 48.9L-256 66.4L-258.75 67.75L-260.6 68.65L-260.6 67.8L-260.55 66.7L-260.55 66.25L-258.5 65.3L-257.5 64.8L-256.5 64.3L-101.2 -13.35L-101.2 -11L-102.65 -10.25L-104.7 -9.25L-137.05 6.95L-141.05 8.95" />
<linearGradient
id="LinearGradID_1507" gradientUnits="userSpaceOnUse" gradientTransform="matrix(-0.0632019, 0, 0, -0.0533752, -189.7, 20.55)" spreadMethod ="pad" x1="-819.2" y1="0" x2="819.2" y2="0" >
<stop  offset="0.0352941" style="stop-color:#D5A054;stop-opacity:1" />
<stop  offset="0.121569" style="stop-color:#DFAE60;stop-opacity:1" />
<stop  offset="0.184314" style="stop-color:#E2B87E;stop-opacity:1" />
<stop  offset="0.729412" style="stop-color:#C99045;stop-opacity:1" />
<stop  offset="1" style="stop-color:#D5A054;stop-opacity:1" />
</linearGradient>
<path style="fill:url(#LinearGradID_1507) " d="M-256.5,64.25L-257.5 64.8L-258.5 65.3L-278.05 55.5L-276.65 54.8L-276.05 54.45L-120.75 -23.2L-101.2 -13.4L-101.2 -13.35L-256.5 64.3L-256.5 64.25" />
<path style="fill:#935626;fill-opacity:1" d="M-253.7,84.65L-253.7 84.6L-258.5 87L-260 86.2L-260.05 86.2L-219 65.7L-175.8 44.1L-175.8 44.05L-142.05 27.2L-102.7 7.55L-101.1 8.35L-105.05 10.35L-105.1 10.3L-136.1 25.8L-136.1 25.85L-142 28.8L-142.05 28.75L-175.8 45.6L-175.8 45.7L-183.2 49.4L-214.2 64.9L-222.7 69.15L-253.7 84.65" />
<path style="fill:#CC823E;fill-opacity:1" d="M-222.7,78.6L-222.7 80.1L-245.45 91.5L-245.5 91.5L-247.5 92.5L-249 91.75L-247 90.75L-222.7 78.6M-105.1,19.75L-105.1 21.25L-136.1 36.75L-136.1 35.25L-105.1 19.75M-142.05,38.2L-142.05 39.7L-175.8 56.55L-175.8 55.1L-142.05 38.2M-183.2,58.85L-183.2 60.35L-214.2 75.85L-214.2 74.35L-183.2 58.85" />
<path style="fill:#D18C4E;fill-opacity:1" d="M-222.7,77.1L-222.7 78.6L-247 90.75L-249 91.75L-250.5 91L-222.7 77.1M-136.1,35.25L-136.1 33.75L-105.1 18.25L-105.1 19.75L-136.1 35.25M-142.05,36.7L-142.05 38.2L-175.8 55.1L-175.8 53.55L-142.05 36.7M-214.2,74.35L-214.2 72.85L-183.2 57.35L-183.2 58.85L-214.2 74.35" />
<path style="fill:#D39055;fill-opacity:1" d="M-222.7,74.35L-222.7 77.1L-250.5 91L-253.25 89.6L-222.7 74.35M-105.1,15.5L-105.1 18.25L-136.1 33.75L-136.1 31L-105.1 15.5M-142.05,33.95L-142.05 36.7L-175.8 53.55L-175.8 50.8L-142.05 33.95M-214.2,72.85L-214.2 70.1L-183.2 54.6L-183.2 57.35L-214.2 72.85" />
<path style="fill:#D6945C;fill-opacity:1" d="M-253.25,89.6L-253.7 89.4L-253.7 84.65L-222.7 69.15L-222.7 74.35L-253.25 89.6M-136.1,31L-136.1 25.85L-136.1 25.8L-105.1 10.3L-105.1 15.5L-136.1 31M-175.8,50.8L-175.8 45.7L-175.8 45.6L-142.05 28.75L-142.05 33.95L-175.8 50.8M-214.2,70.1L-214.2 64.9L-183.2 49.4L-183.2 54.6L-214.2 70.1" />
<radialGradient
id="RadialGradID_1508" gradientUnits="userSpaceOnUse" gradientTransform="matrix(0.0787964, 0, 0, 0.0787964, -211.75, 16.9)" spreadMethod ="pad" cx="0" cy="0" r="819.2" fx="0" fy="0" >
<stop  offset="0"  style="stop-color:#C87B31;stop-opacity:1" />
<stop  offset="1"  style="stop-color:#9D5322;stop-opacity:1" />
</radialGradient>
<path style="fill:url(#RadialGradID_1508) " d="M-242.3,32.25L-242.6 32.05L-242.25 32.25L-242.3 32.25" />
<path style="fill:#666666;fill-opacity:1" d="M-106.7,-1.2Q-106.4 -0.55 -106.4 0.35Q-106.4 1.25 -106.7 1.9Q-107.05 2.55 -107.5 2.55Q-107.95 2.55 -108.25 1.9Q-108.6 1.25 -108.6 0.35Q-108.6 -0.55 -108.25 -1.2Q-107.95 -1.85 -107.5 -1.85Q-107.05 -1.85 -106.7 -1.2M-184.1,36.95Q-183.8 37.6 -183.8 38.5Q-183.8 39.4 -184.1 40.05Q-184.45 40.7 -184.9 40.7Q-185.35 40.7 -185.65 40.05L-186 38.5Q-186 37.6 -185.65 36.95Q-185.35 36.3 -184.9 36.3Q-184.45 36.3 -184.1 36.95M-175.2,31.95Q-174.75 31.95 -174.4 32.6Q-174.1 33.25 -174.1 34.15Q-174.1 35.05 -174.4 35.7Q-174.75 36.35 -175.2 36.35Q-175.65 36.35 -175.95 35.7Q-176.3 35.05 -176.3 34.15Q-176.3 33.25 -175.95 32.6Q-175.65 31.95 -175.2 31.95M-253.7,71.65Q-253.4 71 -252.95 71Q-252.5 71 -252.15 71.65Q-251.85 72.3 -251.85 73.2Q-251.85 74.1 -252.15 74.75Q-252.5 75.4 -252.95 75.4Q-253.4 75.4 -253.7 74.75L-254.05 73.2Q-254.05 72.3 -253.7 71.65" />
<path style="fill:#B36F42;fill-opacity:1" d="M-280,13.4L-280 13.35L-279.05 13.85L-280 13.4" />
<path style="fill:#D2B335;fill-opacity:1" d="M-258,83.1L-258 81.5L-255.15 80.1L-255.05 80.05L-254.35 79.7L-254.35 81.35L-258 83.1" />
<path style="fill:#DDE1E0;fill-opacity:1" d="M-258,79.9L-255.15 78.55L-255.05 78.5L-255.05 80.05L-255.15 80.1L-258 81.5L-258 79.9" />
<path style="fill:#E7EAE7;fill-opacity:1" d="M-258,79.9L-258 76.85L-255.15 75.5L-255.15 78.55L-258 79.9" />
<path style="fill:#F1F1EF;fill-opacity:1" d="M-258,76.85L-258 70.55L-255.3 69.2L-255.25 69.2L-255.15 75.5L-258 76.85" />
<path style="fill:#D3CCB4;fill-opacity:1" d="M-258,70.55L-258.05 67.65L-258.55 67.9L-258.75 67.75L-256 66.4L-256 67.3L-255.3 67L-255.3 69.2L-258 70.55" />
<path style="fill:none;stroke-width:0.5;stroke-linecap:round;stroke-linejoin:round;stroke-miterlimit:3;stroke:#49250E;stroke-opacity:1" d="M-101.2,-13.35L-101.2 -13.4L-120.75 -23.2L-276.05 54.45L-276.65 54.8L-278.05 55.5L-276.65 54.8L-276.05 54.45M-120.75,-23.2L-120.75 -36.8M-41.4,-51.2L-77.15 -33.3L-79.95 -31.85L-79.95 5.15L-5.95 -31.8L-5.95 -31.85M-6.05,-31.95L-7.15 -32.5L-8.7 -33.3M-8.7,-36.75L-37.55 -51.2M-77.15,-33.3L-79.95 -31.95L-79.95 -31.85M-79.95,5.15L-79.95 8.65L-8.7 -27L-7.4 -27.65L-7.15 -27.75L-5.95 -28.4L-5.95 -31.8M-3.7,-21.45L-159.3 56.55L-230.6 92.25L-238.95 96.75L-244.65 93.9L-247.5 92.5L-249 91.75L-250.5 91L-253.25 89.6L-253.7 89.4L-258.5 87L-260 86.2L-260.05 86.2L-260.05 86.25L-262.1 85.25L-278.1 77.2L-278.65 76.95L-280 76.25L-283.1 74.75M-79.95,-31.95L-79.95 -71.1M-79.95,8.65L-79.95 11.6L-79.95 11.65L-8.7 -23.95M-79.95,11.6L-87.2 15.25L-84.1 16.8M-87.2,15.25L-101.1 8.35M-102.7,7.55L-101.1 8.35M-262.1,85.25L-262 67.95L-280.05 58.9M-260.55,66.25L-280 56.5L-280.05 56.55L-280.05 58.9M-262,67.95L-260.6 68.65M-280,56.5L-278.1 55.55M-278.1,77.2L-278.65 76.95M-102.65,-10.25L-102.65 7.5" />
<path style="fill:none;stroke-width:0.5;stroke-linecap:round;stroke-linejoin:round;stroke-miterlimit:3;stroke:#633612;stroke-opacity:1" d="M-37.55,-51.2Q-38.5 -50.75 -39.5 -50.25L-41.4 -51.2" />
<path style="fill:none;stroke-width:0.5;stroke-linecap:round;stroke-linejoin:round;stroke-miterlimit:3;stroke:#AC572F;stroke-opacity:1" d="M-87.2,15.25L-164.55 53.9L-159.3 56.55M-244.65,93.9L-164.55 53.9" />
<path style="fill:none;stroke-width:0.5;stroke-linecap:round;stroke-linejoin:round;stroke-miterlimit:3;stroke:#000000;stroke-opacity:1" d="M-106.7,-1.2Q-106.4 -0.55 -106.4 0.35Q-106.4 1.25 -106.7 1.9Q-107.05 2.55 -107.5 2.55Q-107.95 2.55 -108.25 1.9Q-108.6 1.25 -108.6 0.35Q-108.6 -0.55 -108.25 -1.2Q-107.95 -1.85 -107.5 -1.85Q-107.05 -1.85 -106.7 -1.2M-184.1,36.95Q-183.8 37.6 -183.8 38.5Q-183.8 39.4 -184.1 40.05Q-184.45 40.7 -184.9 40.7Q-185.35 40.7 -185.65 40.05L-186 38.5Q-186 37.6 -185.65 36.95Q-185.35 36.3 -184.9 36.3Q-184.45 36.3 -184.1 36.95M-175.2,31.95Q-174.75 31.95 -174.4 32.6Q-174.1 33.25 -174.1 34.15Q-174.1 35.05 -174.4 35.7Q-174.75 36.35 -175.2 36.35Q-175.65 36.35 -175.95 35.7Q-176.3 35.05 -176.3 34.15Q-176.3 33.25 -175.95 32.6Q-175.65 31.95 -175.2 31.95M-253.7,71.65Q-253.4 71 -252.95 71Q-252.5 71 -252.15 71.65Q-251.85 72.3 -251.85 73.2Q-251.85 74.1 -252.15 74.75Q-252.5 75.4 -252.95 75.4Q-253.4 75.4 -253.7 74.75L-254.05 73.2Q-254.05 72.3 -253.7 71.65" />
<path style="fill:none;stroke-width:0.5;stroke-linecap:round;stroke-linejoin:round;stroke-miterlimit:3;stroke:#683A16;stroke-opacity:1" d="M-104.7,-9.25L-137.05 6.95M-104.7,-9.25L-102.65 -10.25L-101.2 -11L-101.2 -13.35L-256.5 64.3L-257.5 64.8L-258.5 65.3L-260.55 66.25M-260.6,67.8L-260.6 68.65L-258.75 67.75L-256 66.4L-221 48.9L-217 46.9L-182 29.4L-178 27.45L-141.05 8.95L-137.05 6.95M-260.6,67.8L-260.55 66.65L-260.55 66.25" />
<path style="fill:#B36F42;fill-opacity:1" d="M-242,38.95L-242 40.8L-280 21.8L-280 19.9L-249.4 35.2L-242 38.95" />
<path style="fill:#CF8E38;fill-opacity:1" d="M-249.4,35.2L-248.25 34.65L-242 37.75L-242 38.95L-249.4 35.2" />
<path style="fill:none;stroke-width:0.5;stroke-linecap:round;stroke-linejoin:round;stroke-miterlimit:3;stroke:#AC572F;stroke-opacity:1" d="M-164.55,53.9L-179.95 46.2" />
<path style="fill:none;stroke-width:0.5;stroke-linecap:round;stroke-linejoin:round;stroke-miterlimit:3;stroke:#49250E;stroke-opacity:1" d="M-249.4,35.2L-248.25 34.65L-242 37.75L-242 38.95L-242 40.8L-280 21.8L-280 19.9L-249.4 35.2L-242 38.95" />
<path style="fill:none;stroke-width:0.5;stroke-linecap:round;stroke-linejoin:round;stroke-miterlimit:3;stroke:#16151C;stroke-opacity:1" d="M-258,68.65L-102.65 -9" />
<path style="fill:#000000;fill-opacity:0.423529" d="M-283.1,78.65L-283.1 -16.5L-239.25 5.55L-239.25 100.6L-241.15 99.65L-278.85 80.8L-283.1 78.65" />
</g>
</svg>
