<?xml version="1.0" encoding="utf-8"?>
<svg version="1.1" id="Layer_1"
xmlns="http://www.w3.org/2000/svg"
xmlns:xlink="http://www.w3.org/1999/xlink"
xmlns:author="http://www.sothink.com"
width="75px" height="38px"
xml:space="preserve">
<g id="613" transform="matrix(1, 0, 0, 1, 0, 0)">
<path style="fill:#000000;fill-opacity:0.0705882" d="M72.2,19.1Q71.95 18.8 72 18.55Q72.1 18.25 72.45 18.1Q72.85 17.95 73.35 18.1Q73.8 18.25 74.05 18.5L74.25 19.15L73.75 19.55L72.95 19.55L72.2 19.1M36.95,1.55L36.2 1.1Q35.95 0.8 36 0.55Q36.1 0.25 36.45 0.1Q36.85 -0.05 37.35 0.1Q37.8 0.25 38.05 0.5L38.25 1.15L37.75 1.55L36.95 1.55M0.2,19.1Q-0.05 18.8 0 18.55Q0.1 18.25 0.45 18.1Q0.85 17.95 1.35 18.1Q1.8 18.25 2.05 18.5L2.25 19.15L1.75 19.55L0.95 19.55L0.2 19.1M36.2,37.1Q35.95 36.8 36 36.55Q36.1 36.25 36.45 36.1Q36.85 35.95 37.35 36.1Q37.8 36.25 38.05 36.5L38.25 37.15L37.75 37.55L36.95 37.55L36.2 37.1" />
</g>
</svg>
