<?xml version="1.0" encoding="utf-8"?>
<svg version="1.1" id="Layer_1"
xmlns="http://www.w3.org/2000/svg"
xmlns:xlink="http://www.w3.org/1999/xlink"
xmlns:author="http://www.sothink.com"
width="423px" height="106px"
xml:space="preserve">
<g id="1002" transform="matrix(1, 0, 0, 1, -1.25, 0)">
<path style="fill:#000000;fill-opacity:1" d="M400,85L400 67.5L424 43.5L424 61L400 85M424,78.5L424 96L414 106L400 106L400 102.5L424 78.5M15.25,106L1.25 106L1.25 102.5L25 78.8L25 96.3L15.25 106M25,43.8L25 61.3L1.25 85L1.25 67.5L25 43.8M25,8.8L25 26.3L1.25 50L1.25 32.5L25 8.8M1.25,15L1.25 0L16.25 0L1.25 15M400,15L400 0L415 0L400 15M424,8.5L424 26L400 50L400 32.5L424 8.5" />
<path style="fill:#FED101;fill-opacity:1" d="M400,67.5L400 50L424 26L424 43.5L400 67.5M400,102.5L400 85L424 61L424 78.5L400 102.5M424,96L424 106L414 106L424 96M25,106L15.25 106L25 96.3L25 106M1.25,102.5L1.25 85L25 61.3L25 78.8L1.25 102.5M1.25,67.5L1.25 50L25 26.3L25 43.8L1.25 67.5M1.25,32.5L1.25 15L16.25 0L25 0L25 8.8L1.25 32.5M415,0L424 0L424 8.5L400 32.5L400 15L415 0" />
<path style="fill:#FF0000;fill-opacity:1" d="M25,96.3L25 78.8L25 61.3L25 43.8L25 26.3L25 8.8L25 0L400 0L400 15L400 32.5L400 50L400 67.5L400 85L400 102.5L400 106L25 106L25 96.3" />
</g>
</svg>
