<?xml version="1.0" encoding="utf-8"?>
<svg version="1.1" id="Layer_1"
xmlns="http://www.w3.org/2000/svg"
xmlns:xlink="http://www.w3.org/1999/xlink"
xmlns:author="http://www.sothink.com"
width="50px" height="76px"
xml:space="preserve">
<g id="697" transform="matrix(1, 0, 0, 1, 25, 71.2)">
<path style="fill:#FFFFFF;fill-opacity:1" d="M-21.7,-24.85L-22.9 -26.3Q-24.75 -29.1 -24.75 -33.05Q-24.75 -37.05 -22.9 -39.9L-21.65 -41.35L-21 -49.45L-21 -54.5L-20.9 -55.6Q-20.1 -60.25 -15.75 -62.6Q-12.55 -64.4 -8.8 -62.45L-5.9 -65.1Q-5.8 -67.55 -3.65 -69.2Q-1.45 -70.95 1.65 -70.95Q4.75 -70.95 7 -69.2Q9.15 -67.55 9.25 -65.1L15.15 -60.65Q19.65 -60.75 22 -57.9Q25.5 -53.6 23.8 -48.4L23.65 -48.05L23.2 -38.05L23.4 -36.25Q23.4 -33.7 21.6 -31.65L22.15 -28.7Q23.5 -26.85 23.55 -24.6Q23.5 -22.65 22.5 -21L23.75 -17.25L23.85 -16.95Q25.55 -11.8 22.05 -7.45Q19.7 -4.6 15.2 -4.7L11 -2.15Q10.9 0.25 8.75 1.95Q6.5 3.65 3.4 3.7Q0.3 3.65 -1.9 1.95Q-4.05 0.25 -4.15 -2.15L-8.7 -2.9Q-12.5 -0.95 -15.7 -2.75Q-20.05 -5.15 -20.8 -9.75L-20.95 -10.85L-20.95 -15.85L-21.7 -24.85" />
<path style="fill:none;stroke-width:0.5;stroke-linecap:round;stroke-linejoin:round;stroke-miterlimit:3;stroke:#999999;stroke-opacity:1" d="M9.25,-65.1Q9.15 -67.55 7 -69.2Q4.75 -70.95 1.65 -70.95Q-1.45 -70.95 -3.65 -69.2Q-5.8 -67.55 -5.9 -65.1M-8.8,-62.45Q-12.55 -64.4 -15.75 -62.6Q-20.1 -60.25 -20.9 -55.6L-21 -54.5L-21 -49.45M-21.65,-41.35Q-20.8 -42.15 -19.75 -42.45L-19.15 -42.6M1.35,-58.5Q3.2 -59.3 5.45 -59.45L6.6 -59.55Q10.3 -59.55 9.25 -56.1M10.4,-50.85Q10.5 -52.45 11.75 -53.65Q13.15 -54.95 15.05 -54.9L15.95 -54.85L16.25 -54.8Q17.4 -54.55 18.35 -53.65Q19.7 -52.35 19.75 -50.55Q19.7 -48.75 18.35 -47.45L17.4 -46.75M23.65,-48.05L23.8 -48.4Q25.5 -53.6 22 -57.9Q19.65 -60.75 15.15 -60.65M20.8,-41.65L22.05 -40.35Q22.85 -39.3 23.2 -38.05M21.6,-31.65L20.8 -30.85M21.6,-31.65Q23.4 -33.7 23.4 -36.25L23.2 -38.05M2.85,-40.6Q10.75 -44.6 9.45 -36.5M22.5,-21L20.45 -18.85Q17.4 -16.45 13.05 -16.45L10.7 -16.6M15.2,-4.7Q19.7 -4.6 22.05 -7.45Q25.55 -11.8 23.85 -16.95L23.75 -17.25M22.5,-21Q23.5 -22.65 23.55 -24.6Q23.5 -26.85 22.15 -28.7M8.45,-15.55L8.55 -13.25Q8.5 -11.45 6.55 -9.25Q4.6 -7.05 2.85 -7.65L0.4 -8.4M-4.15,-2.15Q-4.05 0.25 -1.9 1.95Q0.3 3.65 3.4 3.7Q6.5 3.65 8.75 1.95Q10.9 0.25 11 -2.15M-12.9,-45.1L-14.7 -47.5Q-16.6 -50.9 -15.3 -54Q-14 -57.15 -10.25 -58.15L-3.55 -57.85M-21.65,-41.35L-22.9 -39.9Q-24.75 -37.05 -24.75 -33.05Q-24.75 -29.1 -22.9 -26.3L-21.7 -24.85Q-20.2 -23.45 -18.3 -23.45Q-17.05 -23.45 -15.95 -24.05M-20.95,-15.85L-20.95 -10.85L-20.8 -9.75Q-20.05 -5.15 -15.7 -2.75Q-12.5 -0.95 -8.7 -2.9M-3.4,-11.95Q-5.35 -10.15 -8.1 -10.15Q-10.9 -10.15 -12.85 -12Q-14.8 -13.85 -14.8 -16.45Q-14.8 -17.6 -14.4 -18.6" />
<path style="fill:none;stroke-width:0.5;stroke-linecap:round;stroke-linejoin:round;stroke-miterlimit:3;stroke:#999999;stroke-opacity:1" d="M9.45,-34.85Q11.5 -33 11.5 -30.35Q11.5 -27.7 9.35 -25.75Q7.25 -23.85 4.25 -23.85Q1.6 -23.85 -0.4 -25.3M-8.5,-37.5Q-10.6 -41.6 -6 -41.55M-8.1,-33.95Q-17.75 -19.2 -5.15 -24" />
</g>
</svg>
