<?xml version="1.0" encoding="utf-8"?>
<svg version="1.1" id="Layer_1"
xmlns="http://www.w3.org/2000/svg"
xmlns:xlink="http://www.w3.org/1999/xlink"
xmlns:author="http://www.sothink.com"
width="31px" height="23px"
xml:space="preserve">
<g id="95" transform="matrix(1, 0, 0, 1, 15.7, 54.15)">
<path style="fill:#000000;fill-opacity:0.392157" d="M14.15,-47L13.95 -45.95L13.5 -46.9L13.5 -45L12.95 -44.2L12.95 -44.15L12.9 -44.15L11.6 -43.05L9.8 -44.1L8.2 -44.8L8.2 -47.15L5.8 -47.95L5.8 -51.45L8.2 -50.65L8.2 -47.15L9.8 -46.45Q11.8 -45.5 12.95 -44.2L12.95 -47.7Q11.8 -48.9 9.8 -49.95L8.2 -50.65L8.2 -53.05M8.2,-53.05L9.8 -52.35Q11.8 -51.35 12.95 -50.1L13.5 -49.35L14.15 -47.15L14.15 -47M13.95,-40.1L13.5 -41L13.5 -42.6L13.7 -43.05L14.15 -41.25L14.15 -41.15L13.95 -40.1M-9.35,-32.85Q-10.25 -33.2 -11.1 -33.65Q-13.15 -34.6 -14.2 -35.85L-14.35 -36L-14.9 -36.8L-14.95 -37.05L-14.95 -36.85L-15.4 -38.35L-15.4 -39.4L-15.4 -40.5L-15.4 -40.7L-15.4 -41.85L-15.05 -43.05L-15.4 -44.2L-15.4 -45.25L-15.4 -46.4L-15.25 -45.95L-14.95 -45.2L-14.95 -46.75L-14.35 -47.6L-14.35 -44.3L-14.35 -44.1L-14.25 -44.2L-14.2 -44.15L-12.95 -43.05L-11.1 -41.9L-9.35 -41.2L-9.35 -38.75L-11.1 -39.5Q-13.15 -40.5 -14.2 -41.75L-14.25 -41.85L-14.35 -41.9L-14.35 -41.7L-14.35 -38.4L-14.2 -38.25L-13 -37.15L-11.3 -36.15L-11.1 -36L-9.35 -35.3L-9.35 -32.85M1.45,-34.45L3.95 -35.1L5.25 -34.45L2.35 -34L1.45 -34.45M-4.95,-35.15L-2.55 -34.55L-3.55 -34L-6.4 -34.4L-4.95 -35.15M-14.95,-39.3L-14.95 -40.85L-15.25 -40.1L-14.95 -39.3M-14.95,-43.25L-15.05 -43.05L-14.95 -42.75L-14.95 -43.25" />
<path style="fill:#000000;fill-opacity:0.843137" d="M5.8,-45.55L5.8 -47.95L8.2 -47.15L8.2 -44.8L5.8 -45.55M-9.35,-35.3L-9.35 -38.75L-7.65 -38.2L-6.95 -38.05Q-4.1 -37.35 -0.65 -37.35L5.8 -38.05L5.8 -40.5L8.2 -41.2L9.8 -41.9L11.6 -43.05L12.9 -44.15L12.95 -44.15L12.95 -44.2L13.5 -45L13.95 -45.95L14.15 -47L14.15 -44.65L13.7 -43.05L13.5 -42.6L13.5 -41L13.5 -39.1L13.95 -40.1L14.15 -41.15L14.15 -38.75L13.5 -36.7L13.5 -37.05L13.5 -36.65L12.95 -35.85L12.9 -35.85Q11.8 -34.6 9.8 -33.65L8.2 -32.95L5.8 -32.15L-0.65 -31.45Q-4.1 -31.45 -6.95 -32.15L-9.35 -32.85L-9.35 -35.3M12.9,-41.75Q11.8 -40.5 9.8 -39.5L8.2 -38.8L8.2 -35.3L9.8 -36L10.15 -36.2L11.35 -36.9L12.9 -38.25L12.95 -38.25L12.95 -41.75L12.9 -41.75M-6.95,-34.55L-6.4 -34.4L-3.55 -34L-0.65 -33.85L2.35 -34L5.25 -34.45L5.8 -34.6L5.8 -36.1L4.8 -35.45L3.95 -35.1L1.45 -34.45L-0.4 -34.4L-2.55 -34.55L-4.95 -35.15L-5.55 -35.45L-6.95 -36.45L-6.95 -34.55M-9.35,-53.1L-6.95 -53.9L-6.95 -51.45L-6.95 -47.95L-9.35 -47.25L-9.35 -50.75L-9.35 -53.1" />
<path style="fill:#2B2B2B;fill-opacity:1" d="M-6.95,-38.05L-7.65 -38.2L-9.35 -38.75L-9.35 -41.2Q-8.25 -40.7 -6.95 -40.45L-6.2 -40.3L-0.65 -39.75L5.25 -40.35L5.8 -40.5L5.8 -38.05L-0.65 -37.35Q-4.1 -37.35 -6.95 -38.05" />
<path style="fill:none;stroke-width:0.5;stroke-linecap:round;stroke-linejoin:round;stroke-miterlimit:3;stroke:#000000;stroke-opacity:1" d="M8.2,-50.65L8.2 -47.15L9.8 -46.45Q11.8 -45.5 12.95 -44.2L12.95 -47.7Q11.8 -48.9 9.8 -49.95L8.2 -50.65L5.8 -51.45L5.8 -47.95L8.2 -47.15L8.2 -44.8L9.8 -44.1L11.6 -43.05L12.9 -44.15L12.95 -44.15L12.95 -44.2L13.5 -45L13.5 -46.9L12.95 -47.7L12.95 -50.1Q11.8 -51.35 9.8 -52.35L8.2 -53.05L8.2 -50.65M12.95,-50.1L13.5 -49.35L14.15 -47.15L14.15 -47L14.15 -44.65L13.7 -43.05L14.15 -41.25L14.15 -41.15L14.15 -38.75L13.5 -36.7L13.5 -36.65L12.95 -35.85L12.9 -35.85Q11.8 -34.6 9.8 -33.65L8.2 -32.95L5.8 -32.15L-0.65 -31.45Q-4.1 -31.45 -6.95 -32.15L-9.35 -32.85Q-10.25 -33.2 -11.1 -33.65Q-13.15 -34.6 -14.2 -35.85L-14.35 -36L-14.9 -36.8L-14.95 -36.85L-15.4 -38.35L-15.45 -38.9L-15.4 -39.4L-15.4 -40.5L-15.4 -40.7L-15.45 -41.25L-15.4 -41.85L-15.05 -43.05L-15.4 -44.2L-15.45 -44.8L-15.4 -45.25L-15.4 -46.4L-15.4 -46.6L-15.45 -47.15L-15.4 -47.7L-15.4 -46.6M13.5,-49.35L13.5 -46.9L13.95 -45.95L14.15 -47M11.6,-43.05L12.95 -41.85L12.95 -44.15L13.5 -43.45L13.5 -45L13.95 -45.95M13.7,-43.05L13.5 -42.6L13.5 -41L13.95 -40.1L14.15 -41.15M12.9,-41.75Q11.8 -40.5 9.8 -39.5L8.2 -38.8L8.2 -35.3L9.8 -36L10.15 -36.2L11.35 -36.9L12.9 -38.25L12.95 -38.25L12.95 -41.75L12.9 -41.75M13.7,-43.05L13.5 -43.45L13.5 -42.6L12.95 -41.85L12.95 -41.75L13.5 -41L13.5 -39.1L13.95 -40.1M13.5,-37.05L13.5 -39.1L12.95 -38.25L12.95 -35.85M5.8,-47.95L5.8 -45.55L8.2 -44.8M5.8,-38.05L6.9 -38.4L8.2 -38.8L8.2 -41.2L5.8 -40.5L5.8 -38.05L5.8 -36.1L5.8 -34.6L8.2 -35.3L8.2 -32.95M-12.95,-43.05L-11.1 -41.9L-9.35 -41.2Q-8.25 -40.7 -6.95 -40.45L-6.2 -40.3L-0.65 -39.75L5.25 -40.35L5.8 -40.5M11.6,-43.05L9.8 -41.9L8.2 -41.2M5.8,-36.1L4.8 -35.45L3.95 -35.1L5.25 -34.45L5.8 -34.6L5.8 -32.15M5.25,-34.45L2.35 -34L-0.65 -33.85L-3.55 -34L-6.4 -34.4L-6.95 -34.55L-6.95 -32.15M5.8,-38.05L-0.65 -37.35Q-4.1 -37.35 -6.95 -38.05L-6.95 -36.45L-5.55 -35.45L-4.95 -35.15L-2.55 -34.55L-0.4 -34.4L1.45 -34.45L3.95 -35.1M1.45,-34.45L2.35 -34M13.5,-37.05L13.5 -36.7M13.5,-37.05L13.5 -36.65M-9.35,-53.1L-6.95 -53.9L-6.95 -51.45L-6.95 -47.95L-9.35 -47.25L-9.35 -50.75L-9.35 -53.1M-9.35,-50.75L-6.95 -51.45M-9.35,-41.2L-9.35 -38.75L-7.65 -38.2L-6.95 -38.05L-6.95 -40.45M-9.35,-38.75L-11.1 -39.5Q-13.15 -40.5 -14.2 -41.75L-14.25 -41.85L-14.35 -41.7L-14.35 -38.4L-14.2 -38.25L-13 -37.15L-11.3 -36.15L-11.1 -36L-9.35 -35.3L-9.35 -38.75M-14.35,-44.3L-14.35 -44.1L-14.25 -44.2L-14.35 -44.3L-14.95 -45.2L-14.95 -43.25L-14.35 -44.1L-14.35 -41.9L-14.25 -41.85L-12.95 -43.05L-14.2 -44.15L-14.25 -44.2M-15.25,-45.95L-14.95 -45.2L-14.95 -46.75L-15.25 -45.95L-15.4 -46.4M-15.4,-44.2L-15.4 -45.25M-15.4,-40.7L-15.4 -41.85M-15.4,-38.35L-15.4 -39.4M-15.4,-40.5L-15.25 -40.1L-14.95 -40.85L-14.95 -42.75L-15.05 -43.05L-14.95 -43.25L-14.95 -42.75L-14.35 -41.9L-14.35 -41.7L-14.95 -40.85L-14.95 -39.3L-14.35 -38.4L-14.35 -36M-14.95,-39.3L-15.25 -40.1M-14.95,-39.3L-14.95 -37.05L-14.9 -36.8M-14.95,-37.05L-14.95 -36.85M-3.55,-34L-2.55 -34.55M-6.95,-36.45L-6.95 -34.55Q-8.25 -34.8 -9.35 -35.3L-9.35 -32.85M-6.4,-34.4L-4.95 -35.15" />
</g>
</svg>
