<?xml version="1.0" encoding="utf-8"?>
<svg version="1.1" id="Layer_1"
xmlns="http://www.w3.org/2000/svg"
xmlns:xlink="http://www.w3.org/1999/xlink"
xmlns:author="http://www.sothink.com"
width="16px" height="6px"
xml:space="preserve">
<g id="240" transform="matrix(1, 0, 0, 1, 7.45, 2.85)">
<path style="fill:#666666;fill-opacity:1" d="M5,-2.35Q6 -2.35 6.7 -1.65Q7.45 -0.9 7.45 0.1Q7.45 1.1 6.7 1.8Q6 2.55 5 2.55Q4 2.55 3.25 1.8Q2.55 1.1 2.55 0.1Q2.55 -0.9 3.25 -1.65Q4 -2.35 5 -2.35" />
<path style="fill:none;stroke-width:1;stroke-linecap:round;stroke-linejoin:round;stroke-miterlimit:3;stroke:#666666;stroke-opacity:1" d="M5,-2.35Q6 -2.35 6.7 -1.65Q7.45 -0.9 7.45 0.1Q7.45 1.1 6.7 1.8Q6 2.55 5 2.55Q4 2.55 3.25 1.8Q2.55 1.1 2.55 0.1Q2.55 -0.9 3.25 -1.65Q4 -2.35 5 -2.35z" />
<path style="fill:#666666;fill-opacity:1" d="M-4.5,-2.35Q-3.5 -2.35 -2.8 -1.65Q-2.05 -0.9 -2.05 0.1Q-2.05 1.1 -2.8 1.8Q-3.5 2.55 -4.5 2.55Q-5.5 2.55 -6.25 1.8Q-6.95 1.1 -6.95 0.1Q-6.95 -0.9 -6.25 -1.65Q-5.5 -2.35 -4.5 -2.35" />
<path style="fill:none;stroke-width:1;stroke-linecap:round;stroke-linejoin:round;stroke-miterlimit:3;stroke:#666666;stroke-opacity:1" d="M-4.5,-2.35Q-3.5 -2.35 -2.8 -1.65Q-2.05 -0.9 -2.05 0.1Q-2.05 1.1 -2.8 1.8Q-3.5 2.55 -4.5 2.55Q-5.5 2.55 -6.25 1.8Q-6.95 1.1 -6.95 0.1Q-6.95 -0.9 -6.25 -1.65Q-5.5 -2.35 -4.5 -2.35z" />
</g>
</svg>
