<?xml version="1.0" encoding="utf-8"?>
<svg version="1.1" id="Layer_1"
xmlns="http://www.w3.org/2000/svg"
xmlns:xlink="http://www.w3.org/1999/xlink"
xmlns:author="http://www.sothink.com"
width="51px" height="112px"
xml:space="preserve">
<g id="320" transform="matrix(1, 0, 0, 1, 84.15, 89.2)">
<path style="fill:#FBF5E6;fill-opacity:1" d="M-33.85,-3.2L-83.65 21.7L-83.65 -63.8L-33.85 -88.7L-33.85 -3.2" />
<path style="fill:none;stroke-width:1;stroke-linecap:round;stroke-linejoin:round;stroke-miterlimit:3;stroke:#333333;stroke-opacity:1" d="M-33.85,-88.7L-83.65 -63.8L-83.65 21.7L-33.85 -3.2L-33.85 -88.7z" />
<linearGradient
id="LinearGradID_1239" gradientUnits="userSpaceOnUse" gradientTransform="matrix(0.00131226, -0.00489807, 0.00595093, 0.00160217, -74.75, -21.45)" spreadMethod ="pad" x1="-819.2" y1="0" x2="819.2" y2="0" >
<stop  offset="0" style="stop-color:#FFFFFF;stop-opacity:1" />
<stop  offset="0.486275" style="stop-color:#848484;stop-opacity:1" />
<stop  offset="1" style="stop-color:#FFFFFF;stop-opacity:1" />
</linearGradient>
<path style="fill:url(#LinearGradID_1239) " d="M-72.4,-23.85Q-73.1 -22.5 -73.1 -20.6Q-73.1 -18.7 -72.4 -17.4L-71.6 -16.4L-76.75 -18.6Q-77.65 -18.65 -78.3 -19.75Q-78.95 -20.9 -78.9 -22.55Q-78.95 -24.2 -78.3 -25.35Q-77.6 -26.5 -76.65 -26.5L-76.6 -26.5L-76 -26.35L-70.6 -25.15Q-71.65 -25.15 -72.4 -23.85" />
<path style="fill:#CCCCCC;fill-opacity:1" d="M-70.6,-25.15L-70.5 -25.15Q-69.5 -25.1 -68.85 -23.85Q-68.1 -22.5 -68.1 -20.6Q-68.1 -18.7 -68.85 -17.4Q-69.55 -16.05 -70.6 -16.05L-70.75 -16.05L-71.6 -16.4L-72.4 -17.4Q-73.1 -18.7 -73.1 -20.6Q-73.1 -22.5 -72.4 -23.85Q-71.65 -25.15 -70.6 -25.15" />
<path style="fill:none;stroke-width:1;stroke-linecap:round;stroke-linejoin:round;stroke-miterlimit:3;stroke:#584E0E;stroke-opacity:1" d="M-71.6,-16.4L-76.75 -18.6Q-77.65 -18.65 -78.3 -19.75Q-78.95 -20.9 -78.9 -22.55Q-78.95 -24.2 -78.3 -25.35Q-77.6 -26.5 -76.65 -26.5L-76.6 -26.5L-76 -26.35L-70.6 -25.15L-70.5 -25.15Q-69.5 -25.1 -68.85 -23.85Q-68.1 -22.5 -68.1 -20.6Q-68.1 -18.7 -68.85 -17.4Q-69.55 -16.05 -70.6 -16.05L-70.75 -16.05L-71.6 -16.4L-72.4 -17.4Q-73.1 -18.7 -73.1 -20.6Q-73.1 -22.5 -72.4 -23.85Q-71.65 -25.15 -70.6 -25.15" />
</g>
</svg>
