<?xml version="1.0" encoding="utf-8"?>
<svg version="1.1" id="Layer_1"
xmlns="http://www.w3.org/2000/svg"
xmlns:xlink="http://www.w3.org/1999/xlink"
xmlns:author="http://www.sothink.com"
width="35px" height="90px"
xml:space="preserve">
<g id="190" transform="matrix(1, 0, 0, 1, 21.15, 105.2)">
<path style="fill:#D6D6D6;fill-opacity:1" d="M-12.1,-26.7L-13 -27.15L-12.1 -26.7" />
<path style="fill:#9F7806;fill-opacity:1" d="M-20.65,-57.1L-20.65 -63.05L-20.65 -66.3L-13.4 -62.7L7 -52.55L7 -104.7L10 -103.2L13 -101.7L13 -17.2L10 -15.7L7 -17.2L7 -43.3L-13.4 -53.45L-13.4 -53.5L-19.8 -56.65L-20.65 -57.1" />
<path style="fill:#D1D0A7;fill-opacity:1" d="M-13,-27.15L-13 -28.3L-13.05 -28.3L-13.05 -29.7L-13.95 -29.7L-13.95 -30.6L-14.3 -30.6L-14.3 -53.25L-19.3 -53.25L-19.3 -53.5L-19.8 -53.5L-19.8 -56.65L-13.4 -53.5L-13.4 -53.45L7 -43.3L7 -17.2L-12.1 -26.7L-13 -27.15" />
<path style="fill:none;stroke-width:1;stroke-linecap:round;stroke-linejoin:round;stroke-miterlimit:3;stroke:#000000;stroke-opacity:1" d="M-20.65,-66.3L-13.4 -62.7L7 -52.55L7 -104.7L10 -103.2L13 -101.7L13 -17.2L10 -15.7L7 -17.2L-12.1 -26.7L-13 -27.15L-14.35 -27.85M7,-17.2L7 -43.3L-13.4 -53.45M-13.4,-53.5L-19.8 -56.65L-20.65 -57.1M-13,-27.15L-12.1 -26.7M-20.65,-63.05L7 -49.3L7 -52.55M10,-103.2L10 -15.7" />
</g>
</svg>
