<?xml version="1.0" encoding="utf-8"?>
<svg version="1.1" id="Layer_1"
xmlns="http://www.w3.org/2000/svg"
xmlns:xlink="http://www.w3.org/1999/xlink"
xmlns:author="http://www.sothink.com"
width="28px" height="22px"
xml:space="preserve">
<g id="695" transform="matrix(1, 0, 0, 1, 13.85, 38.85)">
<path style="fill:#FFFFFF;fill-opacity:0.94902" d="M10.65,-32.4L10.65 -30.5Q12.95 -28.35 13 -25.35Q13 -22.3 10.5 -20.05Q8.1 -17.85 4.6 -17.85Q1.55 -17.85 -0.7 -19.55L-2.05 -23.6Q-12.8 -19.65 -13.5 -23.5L-13.6 -23.9L-13.6 -24.55L-13.4 -25.35Q-13 -27.1 -11.6 -29.6L-10 -33.55Q-12.45 -38.25 -7.1 -38.25L3 -37.1Q12.15 -41.7 10.65 -32.4" />
<path style="fill:none;stroke-width:0.5;stroke-linecap:round;stroke-linejoin:round;stroke-miterlimit:3;stroke:#999999;stroke-opacity:0.94902" d="M10.65,-30.5Q12.95 -28.35 13 -25.35Q13 -22.3 10.5 -20.05Q8.1 -17.85 4.6 -17.85Q1.55 -17.85 -0.7 -19.55M-2.05,-23.6Q-12.8 -19.65 -13.5 -23.5L-13.6 -23.9L-13.6 -24.55L-13.4 -25.35Q-13 -27.1 -11.6 -29.6M-10,-33.55Q-12.45 -38.25 -7.1 -38.25M3,-37.1Q12.15 -41.7 10.65 -32.4" />
</g>
</svg>
