<?xml version="1.0" encoding="utf-8"?>
<svg version="1.1" id="Layer_1"
xmlns="http://www.w3.org/2000/svg"
xmlns:xlink="http://www.w3.org/1999/xlink"
xmlns:author="http://www.sothink.com"
width="56px" height="99px"
xml:space="preserve">
<g id="78" transform="matrix(1, 0, 0, 1, 27.85, 49.35)">
<path style="fill:#FFB945;fill-opacity:1" d="M23.35,-24.7L13.7 -24.75L15.15 -26.2L16.65 -24.8L20.5 -31.05L25.95 -31.6L23.45 -24.45L23.35 -24.7M22.55,-16.45L23.05 -16.75L23.65 -17.05L23.65 -18.05L27.2 -31.5L20.5 -32.4L16.7 -27.6L13.35 -26.55L13.2 -29.75L2.4 -24.3L2 -19.95L-0.15 -17.35L-3.25 -19.45L-9.8 -12.5L-6.7 -3.1L-3.9 -4.7Q-6.35 6 -5.3 16.8Q-4.5 25.2 -1.6 33.2L-4.75 36.35L-2.6 36.7L-0.85 34.45L7.95 37.5L9.75 35.2L7.95 36.65L5.35 35.95L7.6 34.2L4.2 35.85L0.65 32.25L10.15 30.65Q13.15 27.25 15.25 23.35Q20.05 14.5 21.05 4.65Q22.1 -5.3 20.15 -15Q21.5 -15.2 22.5 -16.35L22.55 -16.45M13.85,-20.75Q15.3 -20.35 13.7 -20.25L13.85 -20.75M14.25,-21.8L14.05 -21.5Q12.45 -21.05 14.25 -21.8M-3.2,-0.7L-1.05 -6.8L0.3 16.95L1.7 -9.4L2.25 14.2L3 -9.1L12.3 -14.9L12.3 -10.45L10.45 -8.4L12.3 -9.85L12.65 7.85L12.95 -10.5L13 -10.5L13 -10.55L12.95 -10.55L13.4 -15.25L14.2 13.65L14.95 -3L18.5 -6.3L16.45 -5.75L14.95 -3.4L15.25 -9.65L15.35 -9.6L15.25 -9.75L15.65 -15.15L15.65 -12.8L16.75 -13.3L17.8 -13.8L18.4 -12.05Q27.5 16.85 1.25 31.05L0.2 29.55Q-8.5 15.6 -3.45 -0.25L-3.45 -0.3L-3.25 -0.55L-1.3 -1.25L-0.75 1.6L-0.9 -1.85L-3.2 -0.7M1.45,-11.35L1.3 -11.35Q2.55 -13 1.45 -11.35M8.25,-9.7L7.85 -9.7Q9.1 -9.15 8.25 -9.7M8.65,-10.35Q9.2 -11.15 8.55 -10.45L8.65 -10.35M15.7,-11.05Q15.1 -10.55 15.75 -10.95L15.7 -11.05M16.7,-11.25Q16.7 -12.05 16.6 -11.35L16.7 -11.25M10.7,-11.75L10 -11.6Q12.2 -11.75 10.7 -11.75M27.6,-40.75L27.6 29.65L-10.9 49.1L-27.6 40.75L-27.6 -29.65L-10.9 -21.3L27.6 -40.75M18.3,3.25Q17.75 3.55 17.5 4.05Q16.35 6.1 18.3 3.25M16.55,8.35L16.3 8.35Q17.2 8.65 16.55 8.35M17.3,10.6Q16.75 12.8 17.2 10.7L17.3 10.6M16.15,12L17.35 12.35L17.5 10.25L16.15 12M8.95,-1.05L8.55 0.65L9.3 0L8.95 0.3L8.95 -1.05M7.65,7.65Q5.1 9.85 7.5 9.9L8.05 9.6L9.85 7.65Q9.15 7.65 8.65 8.2L9.25 7.3L8.25 7.65L8.2 7.35L7.65 7.65M6.65,13.5L6.8 13.9Q8.5 12.9 6.55 13.35L6.25 13.65L6.65 13.5M9.45,15.6L5.85 17.45L8.6 16.25L6.4 18.55L9.45 15.6M5.8,22.8L9 20.6Q10.2 20.55 9.35 20.4L9.25 20.35L9 20.3L9.5 19L8.15 20.4L5.8 22.8M8.4,25.45L9.9 24.2L8.95 24.95L10.25 23.5L8.95 24.6L8.95 23.25L8.4 25.1L8.4 25.45M-2.4,-13.7L-2.3 -10.65L-4.65 -11.15L-6.35 -9.5L-5.2 -5.15L-7.75 -9.4L-7.25 -11.95L-4.5 -13.7L-2.4 -13.7L-2.4 -15.75L-3.9 -15.75L-1.8 -18.15L-0.6 -15.75L-2.4 -13.7M-4.75,-10L-5 -10.2Q-4.5 -11.55 -4.75 -10M-5.3,-9.75Q-6.05 -9.25 -5.55 -9.85L-5.3 -9.75M-3.7,13.45Q-2.25 15.1 -3.3 12.4L-3.7 13.45M-1.65,7.35Q-2.8 5.75 -1.65 7.5L-1.65 7.35M-1.95,20Q-2.15 17.6 -2.2 20.4L-1.95 20" />
<path style="fill:#7D3232;fill-opacity:1" d="M-10.9,-21.3L-27.6 -29.65L10.9 -49.1L27.6 -40.75L-10.9 -21.3" />
<path style="fill:#FFFFFF;fill-opacity:1" d="M15.85,-21.75L15.85 -15.4L15.8 -12.95L17.85 -14.1L19.65 -15L20.15 -15Q22.1 -5.3 21.05 4.65Q20.05 14.5 15.25 23.35Q13.15 27.25 10.15 30.65L0.65 32.25L4.2 35.85L7.6 34.2L5.35 35.95L7.95 36.65L9.75 35.2L7.95 37.5L-0.85 34.45L-2.6 36.7L-4.75 36.35L-1.6 33.2Q-4.5 25.2 -5.3 16.8Q-6.35 6 -3.9 -4.7L-6.7 -3.1L-9.8 -12.5L-3.25 -19.45L-0.15 -17.35L2 -19.95L2.4 -24.3L13.2 -29.75L13.35 -26.55L16.7 -27.6L20.5 -32.4L27.2 -31.5L23.65 -18.05L23.05 -16.75L22.55 -16.45L22.6 -16.5L23.5 -23.35L23.45 -24.45L25.95 -31.6L20.5 -31.05L16.65 -24.8L15.15 -26.2L13.7 -24.75L23.35 -24.7L15.85 -21.75M11.65,-26.35Q10.7 -26.75 11.9 -26.85L11.65 -26.35M11.1,-25.15L11.1 -25.2Q11.55 -25.25 11.1 -25.15M18.6,-20.6L18.5 -20.5Q17.4 -20.65 18.6 -20.6M16.65,-20.4L16.5 -20.35Q17.85 -21.2 16.65 -20.4M17.35,-21.3Q15.4 -20.4 17.4 -21.4L17.35 -21.3M17.25,-21.7Q15.65 -20.9 17.3 -21.8L17.25 -21.7M10.45,-24.45L10.7 -24.45L10.7 -24.2L10.45 -24.2L10.45 -24.45M11.25,-22.8Q10.3 -21.55 11.15 -22.95L11.25 -22.8M12.4,-18.75L12.65 -28.8L2.95 -23.95L2.95 -10.95L12.5 -16.05L12.4 -18.75Q13.15 -18.45 12.45 -19L12.4 -18.75M13.7,-20.25Q15.3 -20.35 13.85 -20.75L13.7 -20.25M14.05,-21.5L14.25 -21.8Q12.45 -21.05 14.05 -21.5M8.1,-22.3L8.15 -22.4L10.25 -21.6L8.3 -17.45Q7.35 -16.6 8.2 -17.1L8.3 -17.45Q9.3 -18 10.1 -17.85Q10.4 -17.7 10.5 -16.85Q11.45 -17.8 10.55 -16.85L10.5 -16.85Q3.9 -12.3 6.6 -16.15M10.65,-17.7L10.95 -17.7L10.95 -17.5L10.65 -17.5L10.65 -17.7M18.45,-16.85Q17.85 -16.8 18.5 -17.2L18.45 -16.85M19.25,-17.65L19 -16.85Q18.2 -15.95 19.25 -17.65M15.25,-9.75L15.25 -9.65L14.95 -3.4L14.8 -2.9L14.95 -3L14.2 13.65L13.4 -15.25L12.95 -10.55L12.95 -10.5L12.65 7.85L12.3 -9.85L12.3 -10.45L12.3 -14.9L3 -9.1L2.25 14.2L1.7 -9.4L0.3 16.95L-1.05 -6.8L-3.2 -0.7L-3.25 -0.55L-3.45 -0.3L-3.5 -0.25L-3.45 -0.25Q-8.5 15.6 0.2 29.55L1.25 31.05Q27.5 16.85 18.4 -12.05L17.8 -13.8L16.75 -13.3L15.7 -12.85L15.65 -15.15L15.25 -9.75M6.6,-16.15L6.8 -16.55L3.6 -19.75Q6.65 -17.15 8.1 -22.3M4.7,-23.2L4.3 -23.2L4.3 -23.45L4.7 -23.45L4.7 -23.2M4.45,-14.8L4.45 -16L5.55 -16L5.55 -14.8L4.65 -14.8L4.75 -14.85L4.7 -15L4.5 -14.8L4.45 -14.8M4.9,-14.95L5 -15.1Q5 -15.7 4.9 -14.95M4.75,-13.85Q5.25 -14.8 5 -14.15L4.75 -13.85M4.85,-15.45Q5.4 -16 4.9 -15.55L4.85 -15.45M5.35,-15.5Q5.2 -14.85 5.5 -15.65L5.35 -15.5M5.6,-14.25Q5.4 -13.65 5.5 -14.25L5.6 -14.25M5.1,-21.65L5.05 -22.15Q6.15 -24.4 5.1 -21.65M1.3,-11.35L1.45 -11.35Q2.55 -13 1.3 -11.35M21.95,-19.3Q23.3 -19.95 22.25 -19.35L21.95 -19.3M20.6,-18.7Q21.65 -18.45 20.5 -18.6L20.6 -18.7M23.5,-23.35L22.5 -21.8Q21.25 -22.65 23.5 -23.35M21.3,-21.2Q20.45 -21.7 21.4 -21.9L21.3 -21.2M20.85,-16.8Q20 -15.55 21.1 -17.3L20.85 -16.8M20.75,-17.9L20.9 -17.9Q20 -17.55 20.75 -17.9M8.95,0.3L9.3 0L8.55 0.65L8.95 0.3M8.05,9.6L7.5 9.9Q5.1 9.85 7.65 7.65L7.7 7.95L8.25 7.65L9.25 7.3L8.65 8.2L8.05 9.6M6.8,13.9L6.65 13.5L6.55 13.35Q8.5 12.9 6.8 13.9M9,20.6L5.8 22.8L8.15 20.4L9 20.3L9.25 20.35L9 20.6M8.4,25.45L8.4 25.1L8.95 24.6L10.25 23.5L8.95 24.95L8.4 25.45M-4.5,-13.7L-7.25 -11.95L-7.75 -9.4L-5.2 -5.15L-6.35 -9.5L-4.65 -11.15L-2.3 -10.65L-2.4 -13.7L-4.5 -13.7M-0.6,-15.75L-1.8 -18.15L-3.9 -15.75L-2.4 -15.75L-2.4 -13.7L-0.6 -15.75M-5,-10.2L-4.75 -10Q-4.5 -11.55 -5 -10.2M-5.55,-9.85Q-6.05 -9.25 -5.3 -9.75L-5.55 -9.85" />
<path style="fill:#7E0101;fill-opacity:1" d="M23.05,-16.75L23.65 -18.05L23.65 -17.05L23.05 -16.75M15.65,-12.8L15.65 -15.15L15.7 -12.85L16.75 -13.3L15.65 -12.8" />
<path style="fill:#FF4040;fill-opacity:1" d="M19.65,-15L17.85 -14.1L15.85 -13.1L15.85 -15.4L15.85 -21.75L23.35 -24.7L23.45 -24.45L23.5 -23.35L22.6 -16.5L19.65 -15M18.5,-20.5L18.6 -20.6Q17.4 -20.65 18.5 -20.5M16.5,-20.35L16.65 -20.4Q17.85 -21.2 16.5 -20.35M17.4,-21.4Q15.4 -20.4 17.35 -21.3L17.4 -21.4M17.3,-21.8Q15.65 -20.9 17.25 -21.7L17.3 -21.8M18.5,-17.2Q17.85 -16.8 18.45 -16.85L18.5 -17.2M19,-16.85L19.25 -17.65Q18.2 -15.95 19 -16.85M22.25,-19.35Q23.3 -19.95 21.95 -19.3L22.25 -19.35M20.5,-18.6Q21.65 -18.45 20.6 -18.7L20.5 -18.6M22.5,-21.8L23.5 -23.35Q21.25 -22.65 22.5 -21.8M21.4,-21.9Q20.45 -21.7 21.3 -21.2L21.4 -21.9M21.1,-17.3Q20 -15.55 20.85 -16.8L21.1 -17.3M20.9,-17.9L20.75 -17.9Q20 -17.55 20.9 -17.9" />
<path style="fill:#FEABAB;fill-opacity:1" d="M22.6,-16.5L22.55 -16.45L22.5 -16.35Q21.5 -15.2 20.15 -15L19.65 -15L22.6 -16.5M17.85,-14.1L15.8 -12.95L15.85 -15.4L15.85 -13.1L17.85 -14.1" />
<path style="fill:#934242;fill-opacity:1" d="M11.9,-26.85Q10.7 -26.75 11.65 -26.35L11.9 -26.85M11.1,-25.2L11.1 -25.15Q11.55 -25.25 11.1 -25.2M10.45,-24.2L10.7 -24.2L10.7 -24.45L10.45 -24.45L10.45 -24.2M11.15,-22.95Q10.3 -21.55 11.25 -22.8L11.15 -22.95M12.45,-19Q13.15 -18.45 12.4 -18.75L12.5 -16.05L2.95 -10.95L2.95 -23.95L12.65 -28.8L12.4 -18.75L12.45 -19M10.55,-16.85Q11.45 -17.8 10.5 -16.85L10.55 -16.85M10.65,-17.5L10.95 -17.5L10.95 -17.7L10.65 -17.7L10.65 -17.5M8.1,-22.3Q6.65 -17.15 3.6 -19.75L6.8 -16.55L6.6 -16.15Q3.9 -12.3 10.5 -16.85Q10.4 -17.7 10.1 -17.85Q9.3 -18 8.3 -17.45L8.2 -17.1Q7.35 -16.6 8.3 -17.45L10.25 -21.6L8.15 -22.4L8.1 -22.3M4.7,-23.45L4.3 -23.45L4.3 -23.2L4.7 -23.2L4.7 -23.45M4.5,-14.8L4.7 -15L4.75 -14.85L4.65 -14.8L5.55 -14.8L5.55 -16L4.45 -16L4.45 -14.8L4.5 -14.8M5,-15.1L4.9 -14.95Q5 -15.7 5 -15.1M5,-14.15Q5.25 -14.8 4.75 -13.85L5 -14.15M4.9,-15.55Q5.4 -16 4.85 -15.45L4.9 -15.55M5.5,-15.65Q5.2 -14.85 5.35 -15.5L5.5 -15.65M5.5,-14.25Q5.4 -13.65 5.6 -14.25L5.5 -14.25M5.05,-22.15L5.1 -21.65Q6.15 -24.4 5.05 -22.15" />
<path style="fill:#B56300;fill-opacity:1" d="M-3.45,-0.25L-3.5 -0.25L-3.45 -0.3L-3.45 -0.25M-0.9,-1.85L-0.75 1.6L-1.3 -1.25L-3.25 -0.55L-3.2 -0.7L-0.9 -1.85M10.45,-8.4L12.3 -10.45L12.3 -9.85L10.45 -8.4M13,-10.55L13 -10.5L12.95 -10.5L12.95 -10.55L13 -10.55M16.45,-5.75L18.5 -6.3L14.95 -3L14.8 -2.9L14.95 -3.4L16.45 -5.75M15.35,-9.6L15.25 -9.65L15.25 -9.75L15.35 -9.6M7.85,-9.7L8.25 -9.7Q9.1 -9.15 7.85 -9.7M8.55,-10.45Q9.2 -11.15 8.65 -10.35L8.55 -10.45M15.75,-10.95Q15.1 -10.55 15.7 -11.05L15.75 -10.95M16.6,-11.35Q16.7 -12.05 16.7 -11.25L16.6 -11.35M10,-11.6L10.7 -11.75Q12.2 -11.75 10 -11.6M17.5,4.05Q17.75 3.55 18.3 3.25Q16.35 6.1 17.5 4.05M16.3,8.35L16.55 8.35Q17.2 8.65 16.3 8.35M17.2,10.7Q16.75 12.8 17.3 10.6L17.2 10.7M17.5,10.25L17.35 12.35L16.15 12L17.5 10.25M8.55,0.65L8.95 -1.05L8.95 0.3L8.55 0.65M8.2,7.35L8.25 7.65L7.7 7.95L7.65 7.65L8.2 7.35M8.05,9.6L8.65 8.2Q9.15 7.65 9.85 7.65L8.05 9.6M6.25,13.65L6.55 13.35L6.65 13.5L6.25 13.65M6.4,18.55L8.6 16.25L5.85 17.45L9.45 15.6L6.4 18.55M8.15,20.4L9.5 19L9 20.3L8.15 20.4M9.25,20.35L9.35 20.4Q10.2 20.55 9 20.6L9.25 20.35M8.4,25.1L8.95 23.25L8.95 24.6L8.4 25.1M8.95,24.95L9.9 24.2L8.4 25.45L8.95 24.95M-3.3,12.4Q-2.25 15.1 -3.7 13.45L-3.3 12.4M-1.65,7.5Q-2.8 5.75 -1.65 7.35L-1.65 7.5M-2.2,20.4Q-2.15 17.6 -1.95 20L-2.2 20.4" />
<path style="fill:none;stroke-width:0.5;stroke-linecap:round;stroke-linejoin:round;stroke-miterlimit:3;stroke:#7E0101;stroke-opacity:1" d="M-27.6,-29.65L10.9 -49.1L27.6 -40.75M-27.6,-29.65L-10.9 -21.3" />
<path style="fill:none;stroke-width:0.5;stroke-linecap:round;stroke-linejoin:round;stroke-miterlimit:3;stroke:#CE6464;stroke-opacity:1" d="M-10.9,-21.3L27.6 -40.75L27.6 29.65M-10.9,-21.3L-10.9 49.1" />
<path style="fill:none;stroke-width:0.5;stroke-linecap:round;stroke-linejoin:round;stroke-miterlimit:3;stroke:#110000;stroke-opacity:1" d="M-10.9,49.1L-27.6 40.75" />
<path style="fill:none;stroke-width:0.05;stroke-linecap:round;stroke-linejoin:round;stroke-miterlimit:3;stroke:#541B1B;stroke-opacity:1" d="M27.6,29.65L-10.9 49.1" />
<path style="fill:none;stroke-width:0.5;stroke-linecap:round;stroke-linejoin:round;stroke-miterlimit:3;stroke:#BA7001;stroke-opacity:1" d="M-27.6,40.75L-27.6 -29.65" />
</g>
</svg>
