<?xml version="1.0" encoding="utf-8"?>
<svg version="1.1" id="Layer_1"
xmlns="http://www.w3.org/2000/svg"
xmlns:xlink="http://www.w3.org/1999/xlink"
xmlns:author="http://www.sothink.com"
width="272px" height="175px"
xml:space="preserve">
<g id="58" transform="matrix(1, 0, 0, 1, 142.15, 84)">
<linearGradient
id="LinearGradID_384" gradientUnits="userSpaceOnUse" gradientTransform="matrix(-0.0504303, -0.103546, 0.0717926, -0.0349426, -35.3, -5)" spreadMethod ="pad" x1="-819.2" y1="0" x2="819.2" y2="0" >
<stop  offset="0" style="stop-color:#FFFFFF;stop-opacity:0" />
<stop  offset="0.180392" style="stop-color:#575757;stop-opacity:0.811765" />
</linearGradient>
<path style="fill:url(#LinearGradID_384) " d="M-142.15,42.3L23.75 -40.6L119.6 7.45L-46.15 90.3L-142.15 42.3" />
<path style="fill:#BA9632;fill-opacity:1" d="M128,-42.55L128 -42.3L128.15 -41.75L128.5 -41.15L110.9 -50.1L110.9 -50.15L110.55 -50.8L110.4 -51.55L128 -42.55" />
<path style="fill:#CFA838;fill-opacity:1" d="M129.05,-42L129.05 -41.9L129.05 -41.75L128.95 -41.35L128.6 -41.05L128.55 -41.1L128.5 -41.15L128.15 -41.75L128 -42.3L128 -42.55L110.4 -51.55L110.4 -51.95Q110.4 -52.6 110.55 -52.95L110.9 -53.2L110.95 -53.2L128.5 -44.25L128.35 -44.25L128.5 -44.2L128.55 -44.2L128.95 -43.55L129.05 -42.9L129.1 -42.65L129.1 -42.25L129.05 -42M128,-43.05L128.05 -43.5L128.15 -43.9L128.15 -43.95L128.2 -44L128.25 -44.1L128.2 -44.1L128.15 -44.05L128.15 -44L128.15 -43.95L128.1 -43.85L128.05 -43.7L128 -43.5L128 -43.05" />
<path style="fill:#E8C24A;fill-opacity:1" d="M128.5,-44.25L128.55 -44.2L128.5 -44.2L128.35 -44.25L128.5 -44.25M128,-43.5L128.05 -43.7L128.1 -43.85L128.15 -43.95L128.15 -44L128.15 -44.05L128.2 -44.1L128.25 -44.1L128.2 -44L128.15 -43.95L128.15 -43.9L128.05 -43.5L128 -43.05L128 -43.5" />
<path style="fill:none;stroke-width:0.5;stroke-linecap:round;stroke-linejoin:round;stroke-miterlimit:3;stroke:#2B220C;stroke-opacity:0.92549" d="M110.4,-51.55L110.55 -50.8L110.9 -50.15M128.5,-41.15L128.15 -41.75L128 -42.3L128 -42.55M110.4,-51.55L110.4 -51.95Q110.4 -52.6 110.55 -52.95L110.9 -53.2M128.55,-44.2L128.95 -43.55L129.05 -42.95L129.1 -42.65L129.1 -42.25L129.1 -41.95L129.05 -41.9L129.05 -41.75L128.95 -41.35L128.6 -41.05M128.35,-44.25L128.25 -44.1M128.15,-44L128.15 -43.95L128.1 -43.85L128.05 -43.7L128 -43.5L128 -43.05L128 -43M128,-42.95L128 -42.55M128.2,-44.1L128.25 -44.1M128.35,-44.25L128.5 -44.25" />
<path style="fill:none;stroke-width:0.5;stroke-linecap:round;stroke-linejoin:round;stroke-miterlimit:3;stroke:#000000;stroke-opacity:0.92549" d="M110.9,-50.15L110.9 -50.1M110.9,-53.2L110.95 -53.2M128.5,-44.25L128.55 -44.2M128.6,-41.05L128.55 -41.1L128.5 -41.15M128,-43L128 -42.95M128.15,-44L128.15 -44.05L128.2 -44.1" />
<path style="fill:none;stroke-width:1;stroke-linecap:round;stroke-linejoin:round;stroke-miterlimit:3;stroke:#000000;stroke-opacity:0.92549" d="M110.95,-53.2L114.8 -66.05L114.5 -83.5" />
<path style="fill:none;stroke-width:0.5;stroke-linecap:round;stroke-linejoin:round;stroke-miterlimit:3;stroke:#F8E8C2;stroke-opacity:0.92549" d="M128.2,-44L128.15 -44L110.9 -52.85" />
<path style="fill:none;stroke-width:1;stroke-linecap:round;stroke-linejoin:round;stroke-miterlimit:3;stroke:#CCCCCC;stroke-opacity:1" d="M114.8,-66.05L128.5 -44.25" />
<path style="fill:none;stroke-width:0.5;stroke-linecap:round;stroke-linejoin:round;stroke-miterlimit:3;stroke:#4D3F18;stroke-opacity:0.92549" d="M128.5,-44.25L110.95 -53.2" />
<path style="fill:none;stroke-width:0.5;stroke-linecap:round;stroke-linejoin:round;stroke-miterlimit:3;stroke:#211A0A;stroke-opacity:0.92549" d="M110.9,-50.1L128.5 -41.15" />
<path style="fill:#FFFFFF;fill-opacity:1" d="M113.3,-46.3L113.45 -46.3Q119 -42.95 124.7 -40.2L124.75 -40.15L124.8 -40.05Q123.45 -29.2 125.5 -18.35L125.45 -18.2L125.4 -18.1L125.2 -18.15Q118.55 -20.55 113.5 -24.95Q113.4 -24.9 113.45 -25L113.4 -25.1Q111.7 -34.95 113.15 -46.15L113.2 -46.25Q113.25 -46.2 113.3 -46.3M116.4,-43.3L117.4 -40.95L117.45 -39.65L117.5 -39.65L117.6 -39.65L117.65 -39.65L117.45 -37.8L117.3 -37.35L117.25 -37.2Q117.25 -37.1 117.4 -37.15L117.45 -37.15Q117.35 -36.9 117.4 -36.65L116.55 -35.1L115.55 -34.15L115.5 -34.25Q114.95 -35.3 114.75 -36.35Q114.5 -36.9 114.4 -37.8L114.25 -38.6L114.3 -39.1L114.35 -39.15L114.45 -39.05L114.45 -39.15L114.35 -39.65L114.55 -41.55L114.6 -41.6L114.65 -41.55L114.7 -41.5L114.7 -41.45L115 -42.4L116.3 -43.3L116.4 -43.3M114.75,-41.05L114.7 -41.05L114.6 -41.05L114.45 -39.65L114.5 -39.15Q114.4 -38.8 114.65 -38.6L114.65 -38.55L114.55 -38.55Q114.4 -38.5 114.45 -38.8L114.35 -39L114.3 -38.65L114.55 -37.75Q114.6 -36.9 114.8 -36.4Q115 -35.35 115.55 -34.3L116.5 -35.15L117.3 -36.65L117.35 -37.1L117.2 -37.05L117.05 -36.85L117 -36.85Q116.9 -36.8 116.95 -36.9L117 -37L117.05 -37L117.2 -37.35Q117.2 -37.65 117.35 -37.75L117.5 -39.5L117.45 -39.55L117.45 -39.45L117.4 -39.4L117.3 -39.3L117.35 -39.4L117.3 -40.95L116.3 -43.2Q115.1 -42.6 115.1 -42.4Q114.75 -41.75 114.75 -41.1L114.75 -41.05M116,-41.4L116.4 -41.1L116.4 -41.2L116.45 -41.45L116.65 -41.3L116.6 -41.05L116.6 -41L116.7 -41.05L116.75 -41.1Q116.7 -40.95 116.8 -41L116.8 -40.85L116.55 -41.05L116.55 -40.65L116.5 -40.4L116.5 -40.15L116.45 -40.1Q116.4 -40.05 116.35 -40.15L116.3 -40.2L116.35 -40.25Q116.05 -40.3 115.95 -40.5L115.9 -40.4L115.85 -40.5L115.8 -40.55L115.85 -40.85L115.85 -41.1L115.85 -41.2L115.9 -41.5L115.9 -41.7L115.9 -41.85Q116 -41.7 116.1 -41.7L116.1 -41.65L116.05 -41.65L116 -41.4M116.4,-40.7L115.95 -41L115.95 -40.55Q116.05 -40.35 116.35 -40.3Q116.3 -40.5 116.4 -40.7M115.55,-39.5L115.55 -39.35L115.7 -39.3L115.7 -39.35L115.75 -39.35L115.8 -39.3L115.85 -39.25L115.85 -39.15L116 -39.1L116.1 -38.95L116.1 -39L116.15 -39.1L116.15 -39.3L116.25 -39.15L116.25 -39.05L116.3 -39.05L116.25 -39L116.25 -38.9Q116.25 -38.8 116.4 -38.85L116.45 -38.85L116.5 -38.8L116.55 -38.65L116.25 -38.85L116.2 -38.55L116.2 -38.5L116.2 -38.25L116.15 -38.15L116.15 -38L116.1 -37.9L116.05 -37.95L116 -37.95L116.05 -38.45L115.9 -38.4L115.8 -38.3Q115.75 -38.25 115.7 -38.35L115.55 -38.35L115.7 -38.45Q115.75 -38.3 115.8 -38.5L116 -38.65L115.85 -38.85L115.8 -38.55L115.7 -38.55Q115.6 -38.5 115.65 -38.6L115.65 -38.65Q115.5 -38.6 115.5 -38.7L115.5 -38.55L115.45 -38.65L115.4 -38.65L115.4 -38.95L115.45 -39.15L115.45 -39.6L115.55 -39.5M116.35,-38.3L116.6 -37.9L116.6 -37.85L116.5 -37.75L116.45 -37.75L116.4 -37.85L116.35 -37.95L116.2 -38.5L116.3 -38.4L116.35 -38.3M116.4,-38.55L116.45 -38.55L116.5 -38.45L116.6 -38.35L116.6 -38.3L116.55 -38.4L116.35 -38.45L116.4 -38.55M115.45,-37.2L115.5 -37.1L115.45 -36.75L115.4 -36.5L115.3 -36.25L115.25 -36.2L115.15 -36.2L115.15 -36.25L115.2 -36.35L115.25 -36.45L115.3 -36.7L115.3 -37.05L115.35 -37.2L115.45 -37.2M120.9,-41.15L121 -41.2L121.35 -40.85L121.5 -40.5L121.45 -40.35L121.25 -40.15L121 -39.7L122.1 -39.55L122.2 -39.65L122.3 -39.3Q122.3 -39 122.1 -39.05L121.05 -39.15L120.85 -39.15L120.55 -38.25L121.3 -38.1L121.3 -38.4L121.3 -38.6L121.35 -38.6L121.6 -38.4L121.7 -38.15L121.6 -37.95L121.95 -37.75L122.9 -36.85L123.3 -35.5Q123.1 -34.35 122.3 -34.2Q121.7 -34 121.45 -34.2Q121.3 -34.2 121.35 -34.35L121.45 -34.4Q122.5 -34.6 122.7 -35.6Q122.8 -36.85 121.45 -37.5Q121.15 -36.75 120.65 -36.35L120.75 -36.15Q120.7 -35.95 120.8 -35.9Q120.75 -35.75 120.85 -35.75L120.75 -35.6L120.55 -35.6Q120.3 -35.6 120.25 -36.15Q119.2 -35.6 118.95 -35.85Q118.55 -35.95 118.7 -36.8L119 -37.6Q119.3 -38.05 120.15 -38.25L120.45 -39.3Q120.1 -39.3 120.1 -39.45L119.8 -39.7L119.7 -40L119.95 -40L120.25 -39.9L120.6 -39.8L120.95 -40.7L120.85 -41L120.9 -41.15M120.1,-37.75L119.7 -37.65Q119.1 -37.45 119.1 -36.8Q119.1 -36.4 119.3 -36.35Q119.45 -36.15 120.2 -36.55L120.1 -37.65L120.1 -37.75M120.5,-37.7Q120.35 -37.2 120.55 -36.85Q120.95 -37 121.15 -37.7L120.5 -37.8L120.5 -37.7M120.55,-32.95Q120.45 -33 120.7 -33.05L121.05 -32.75L121.25 -32.45L121.25 -32.4L121.2 -31.75L121.4 -31.65L121.75 -31.6L122.05 -31.55L122.3 -31.2Q122.3 -30.95 121.9 -31.05L121.45 -31.15L121.2 -31.25L121.2 -30.85L121.15 -30.4L121.6 -30.45L121.8 -30.55L122.05 -30.35Q122.05 -30.1 122.2 -30.05Q122.2 -29.7 121.2 -29.9L121.3 -28.85L122.65 -27.5Q122.65 -27.25 122.45 -27.35Q122.3 -27.35 122.1 -27.5L121.6 -28L121.35 -28.3Q121.05 -27.5 120.1 -28.05L119.4 -28.45Q119.1 -28.65 119.15 -29L120.8 -29.1L120.75 -30Q120.35 -30 120.3 -30.2Q119.35 -30.55 119.4 -30.85L119.9 -30.8L120.7 -30.55L120.75 -31.4L120.2 -31.6Q119.6 -31.8 119.6 -32.15L119.8 -32.2Q119.9 -32 120.4 -31.95L120.75 -31.85L120.55 -32.9L120.55 -32.95M116.25,-36.75L116.35 -36.65L116.4 -36.5L116.2 -36.65L116.2 -36.75L116.25 -36.75M115.95,-36.95L115.95 -36.8L115.85 -36.85L115.9 -36.75L116 -36.65L115.95 -36.65L115.95 -36.5L116.1 -36.4L116.15 -36.4L116.2 -36.45L116.3 -36.3L116.35 -36.25L116.35 -36.2L115.95 -36.45L115.9 -36.2L116.1 -36.1L116.15 -36.1L116.2 -36.15L116.2 -36.05L116.25 -35.95L116.25 -35.9L116.2 -35.65L116.2 -35.45Q116.05 -35.4 116.1 -35.5L116.05 -35.6L116.05 -35.65Q115.75 -35.75 115.6 -36L115.6 -35.95L115.55 -35.85L115.45 -35.95L115.45 -36.05L115.5 -36.2L115.5 -36.4L115.5 -36.5L115.55 -36.5L115.65 -36.4L115.8 -36.3L115.8 -36.85L115.6 -37L115.75 -36.95L115.75 -37.05L115.8 -37.15L115.9 -37.05L115.95 -36.95M115.3,-32.7Q115.8 -31.1 115.25 -30.85Q114.8 -30.75 115.3 -30.25L115.3 -30.2Q116.15 -29.15 115.55 -28.7Q115.75 -29.35 114.95 -30.4L114.8 -30.6Q114.55 -30.75 114.9 -31.05Q115.5 -31.4 115.3 -32.7M114.2,-31.05Q113.9 -31 114.2 -30.7L114.2 -30.65Q114.6 -30.05 114.35 -29.85L114 -30.8L113.9 -30.9Q113.75 -31.1 114 -31.1Q114.3 -31.4 114.2 -32.1Q114.5 -31.2 114.2 -31.05M115,-29.05L115.9 -28.25L116.15 -27.85L116.3 -27.55L116.5 -26.15Q115.35 -26.4 114.2 -27.8L114 -27.9Q113.85 -28.5 113.85 -29.25Q113.85 -29.45 114.2 -29.45L114.65 -29.25L115 -29.05M114.5,-29.1L114.25 -28.95L114.55 -28.55L115.15 -27.95Q115.45 -27.7 115.75 -27.65Q116.05 -27.6 115.95 -27.75L115.7 -28.2L115.05 -28.75L114.5 -29.1M114.1,-27.35Q115.35 -25.95 116.55 -25.7Q116.65 -24.65 116.9 -23.7L116.85 -23.7L116.8 -23.65Q116.65 -23.6 116.7 -23.7L116.65 -23.7L116.65 -23.6L116.65 -23.55Q116.65 -23.35 116.45 -23.55L115.85 -23.95Q115.35 -24.2 115.2 -24.45L114.9 -24.9L114.9 -25.05Q114.7 -25.1 114.65 -25.3Q114.5 -25.3 114.5 -25.45L114.4 -25.45L114.1 -27.35M119.55,-29.1L119.4 -28.85Q119.3 -28.4 119.95 -28.3Q120.5 -28 120.8 -28.65Q120.3 -28.85 120.15 -29L119.55 -29.1M118.55,-25.5L118.25 -25.95L118.25 -26L118.9 -25.55L119.25 -25.05Q119.25 -24.65 119.05 -24.85L118.75 -25.2L118.55 -25.5M118.75,-27.15L118.9 -27.15Q118.95 -27.1 119.15 -27L119.65 -26.6L119.85 -26.25L119.7 -26.05Q119.3 -26.1 118.85 -26.9L118.8 -27.1L118.75 -27.15M120.2,-24.85L120.25 -24.85Q120.3 -24.75 120.35 -24.8Q120.35 -24.7 120.5 -24.75L120.9 -24.5L121.05 -24.5L121.2 -24.45L121.2 -24.6L120.85 -25.4L120.6 -25.5L120.3 -25.7Q120.05 -25.8 120.2 -25.85L120.5 -25.85L120.95 -25.65L122.55 -25.25L123 -25.25L123.2 -25.2L123.6 -24.9L123.8 -24.7L123.45 -24.7L122.8 -24.85L122.15 -25.05L122.45 -24.65Q122.35 -24.65 122.4 -24.25L122.4 -24.15L122.5 -24.15Q122.5 -24.05 122.65 -24.1L122.85 -24.05L123.05 -24L123.55 -23.65L123.9 -23.25L123.9 -23.2L123.8 -22.6L124.2 -20.45L124.15 -19.7L123.85 -19.5L123.75 -19.75Q123.55 -20 123.5 -20.4L123.2 -20.75L122.9 -20.85Q122.85 -20.8 122.8 -20.9Q122.25 -20.95 122.1 -21.15L121.45 -21.45L121.25 -21.55L121.05 -21.6L120.95 -21.2L120.75 -21.45Q120.5 -21.7 120.6 -21.9Q120.5 -21.95 120.55 -22.15L120.6 -22.5L120.5 -23.7L120.2 -24.8L120.2 -24.85M113.7,-25.15Q118.6 -21 125.1 -18.65Q123.05 -29.2 124.4 -39.9Q118.95 -42.55 113.5 -45.8Q112.1 -34.9 113.7 -25.15M121.15,-24.25L120.95 -24.25L120.85 -24.35Q120.8 -24.3 120.75 -24.4Q120.7 -24.2 120.8 -24.15L120.8 -23.95L120.9 -22.9L121 -22.3L121 -21.8L121.15 -21.7L122.85 -21.2L123.05 -21.1L123.45 -20.9Q123.45 -20.6 123.65 -20.65L123.7 -20.9L123.3 -23.2L122.95 -23.65L122.55 -23.85L122.35 -23.95L122.4 -23.75L122.45 -23.4Q122.35 -23.15 122.65 -23.1L123.05 -23Q123 -22.9 123.1 -22.95L123.2 -22.75L122.85 -22.7Q122.2 -22.85 122.15 -23.4L122.15 -23.8L122.1 -24L121.5 -24.15L121.5 -23.9L121.45 -23.35Q121.25 -22.95 121.05 -23.15L121 -23.25L121.1 -23.35L121.25 -24.25L121.15 -24.25M119.8,-23.95L119.55 -23.15L119.45 -22.55L119.35 -22.15L118.95 -22.6L118.65 -23.1L118.75 -23.25L119.55 -24.1L119.75 -24.35L119.85 -24.55L119.9 -24.55L119.95 -24.45L119.95 -24.3L119.8 -23.95M121.35,-22.65L121.7 -22.55L122.55 -22.4L122.9 -22.05L122.6 -22.1Q122.25 -22.1 122.05 -22.25L121.5 -22.45Q121.15 -22.45 121.2 -22.6L121.35 -22.65M121.45,-24.35L122.1 -24.15L122.05 -24.3L122.1 -24.5L121.85 -25.2L121.05 -25.35L121.5 -24.9L121.45 -24.85L121.45 -24.35" />
<path style="fill:#B31F07;fill-opacity:1" d="M113.2,-46.25L113.15 -46.15Q111.7 -34.95 113.4 -25.1L113.45 -25Q113.4 -24.9 113.5 -24.95Q118.55 -20.55 125.2 -18.15L125.4 -18.1L125.45 -18.2L125.5 -18.35Q123.45 -29.2 124.8 -40.05L124.75 -40.15L124.7 -40.2Q119 -42.95 113.45 -46.3L113.3 -46.3Q113.25 -46.2 113.2 -46.25M126.95,-14.9Q118.95 -17.95 112.55 -23.55Q110.35 -35.5 111.95 -49.6Q119.35 -45.55 126.3 -42.05Q124.65 -28.5 126.95 -14.9" />
<path style="fill:#2D4378;fill-opacity:1" d="M116.3,-43.3L115 -42.4L114.7 -41.45L114.7 -41.5L114.65 -41.55L114.6 -41.6L114.55 -41.55L114.35 -39.65L114.45 -39.15L114.45 -39.05L114.35 -39.15L114.3 -39.1L114.25 -38.6L114.4 -37.8Q114.5 -36.9 114.75 -36.35Q114.95 -35.3 115.5 -34.25L115.55 -34.15L116.55 -35.1L117.4 -36.65Q117.35 -36.9 117.45 -37.15L117.4 -37.15Q117.25 -37.1 117.25 -37.2L117.3 -37.35L117.45 -37.8L117.65 -39.65L117.6 -39.65L117.5 -39.65L117.45 -39.65L117.4 -40.95L116.4 -43.3L116.3 -43.3M114.75,-41.1Q114.75 -41.75 115.1 -42.4Q115.1 -42.6 116.3 -43.2L117.3 -40.95L117.35 -39.4L117.3 -39.3L117.4 -39.4L117.45 -39.45L117.45 -39.55L117.5 -39.5L117.35 -37.75Q117.2 -37.65 117.2 -37.35L117.05 -37L117 -37L116.95 -36.9Q116.9 -36.8 117 -36.85L117.05 -36.85L117.2 -37.05L117.35 -37.1L117.3 -36.65L116.5 -35.15L115.55 -34.3Q115 -35.35 114.8 -36.4Q114.6 -36.9 114.55 -37.75L114.3 -38.65L114.35 -39L114.45 -38.8Q114.4 -38.5 114.55 -38.55L114.65 -38.55L114.65 -38.6Q114.4 -38.8 114.5 -39.15L114.45 -39.65L114.6 -41.05L114.7 -41.05L114.75 -41.05L114.75 -41.1M116.05,-41.65L116.1 -41.65L116.1 -41.7Q116 -41.7 115.9 -41.85L115.9 -41.7L115.9 -41.5L115.85 -41.2L115.85 -41.1L115.85 -40.85L115.8 -40.55L115.85 -40.5L115.9 -40.4L115.95 -40.5Q116.05 -40.3 116.35 -40.25L116.3 -40.2L116.35 -40.15Q116.4 -40.05 116.45 -40.1L116.5 -40.15L116.5 -40.4L116.55 -40.65L116.55 -41.05L116.8 -40.85L116.8 -41Q116.7 -40.95 116.75 -41.1L116.7 -41.05L116.6 -41L116.6 -41.05L116.65 -41.3L116.45 -41.45L116.4 -41.2L116.4 -41.1L116 -41.4L116.05 -41.65M116.35,-40.3Q116.05 -40.35 115.95 -40.55L115.95 -41L116.4 -40.7Q116.3 -40.5 116.35 -40.3M115.45,-39.6L115.45 -39.15L115.4 -38.95L115.4 -38.65L115.45 -38.65L115.5 -38.55L115.5 -38.7Q115.5 -38.6 115.65 -38.65L115.65 -38.6Q115.6 -38.5 115.7 -38.55L115.8 -38.55L115.85 -38.85L116 -38.65L115.8 -38.5Q115.75 -38.3 115.7 -38.45L115.55 -38.35L115.7 -38.35Q115.75 -38.25 115.8 -38.3L115.9 -38.4L116.05 -38.45L116 -37.95L116.05 -37.95L116.1 -37.9L116.15 -38L116.15 -38.15L116.2 -38.25L116.2 -38.5L116.2 -38.55L116.25 -38.85L116.55 -38.65L116.5 -38.8L116.45 -38.85L116.4 -38.85Q116.25 -38.8 116.25 -38.9L116.25 -39L116.3 -39.05L116.25 -39.05L116.25 -39.15L116.15 -39.3L116.15 -39.1L116.1 -39L116.1 -38.95L116 -39.1L115.85 -39.15L115.85 -39.25L115.8 -39.3L115.75 -39.35L115.7 -39.35L115.7 -39.3L115.55 -39.35L115.55 -39.5L115.45 -39.6M116.3,-38.4L116.2 -38.5L116.35 -37.95L116.4 -37.85L116.45 -37.75L116.5 -37.75L116.6 -37.85L116.6 -37.9L116.35 -38.3L116.3 -38.4M116.35,-38.45L116.55 -38.4L116.6 -38.3L116.6 -38.35L116.5 -38.45L116.45 -38.55L116.4 -38.55L116.35 -38.45M115.35,-37.2L115.3 -37.05L115.3 -36.7L115.25 -36.45L115.2 -36.35L115.15 -36.25L115.15 -36.2L115.25 -36.2L115.3 -36.25L115.4 -36.5L115.45 -36.75L115.5 -37.1L115.45 -37.2L115.35 -37.2M120.85,-41L120.95 -40.7L120.6 -39.8L120.25 -39.9L119.95 -40L119.7 -40L119.8 -39.7L120.1 -39.45Q120.1 -39.3 120.45 -39.3L120.15 -38.25Q119.3 -38.05 119 -37.6L118.7 -36.8Q118.55 -35.95 118.95 -35.85Q119.2 -35.6 120.25 -36.15Q120.3 -35.6 120.55 -35.6L120.75 -35.6L120.85 -35.75Q120.75 -35.75 120.8 -35.9Q120.7 -35.95 120.75 -36.15L120.65 -36.35Q121.15 -36.75 121.45 -37.5Q122.8 -36.85 122.7 -35.6Q122.5 -34.6 121.45 -34.4L121.35 -34.35Q121.3 -34.2 121.45 -34.2Q121.7 -34 122.3 -34.2Q123.1 -34.35 123.3 -35.5L122.9 -36.85L121.95 -37.75L121.6 -37.95L121.7 -38.15L121.6 -38.4L121.35 -38.6L121.3 -38.6L121.3 -38.4L121.3 -38.1L120.55 -38.25L120.85 -39.15L121.05 -39.15L122.1 -39.05Q122.3 -39 122.3 -39.3L122.2 -39.65L122.1 -39.55L121 -39.7L121.25 -40.15L121.45 -40.35L121.5 -40.5L121.35 -40.85L121 -41.2L120.9 -41.15L120.85 -41M120.1,-37.65L120.2 -36.55Q119.45 -36.15 119.3 -36.35Q119.1 -36.4 119.1 -36.8Q119.1 -37.45 119.7 -37.65L120.1 -37.75L120.1 -37.65M120.5,-37.8L121.15 -37.7Q120.95 -37 120.55 -36.85Q120.35 -37.2 120.5 -37.7L120.5 -37.8M120.55,-32.9L120.75 -31.85L120.4 -31.95Q119.9 -32 119.8 -32.2L119.6 -32.15Q119.6 -31.8 120.2 -31.6L120.75 -31.4L120.7 -30.55L119.9 -30.8L119.4 -30.85Q119.35 -30.55 120.3 -30.2Q120.35 -30 120.75 -30L120.8 -29.1L119.15 -29Q119.1 -28.65 119.4 -28.45L120.1 -28.05Q121.05 -27.5 121.35 -28.3L121.6 -28L122.1 -27.5Q122.3 -27.35 122.45 -27.35Q122.65 -27.25 122.65 -27.5L121.3 -28.85L121.2 -29.9Q122.2 -29.7 122.2 -30.05Q122.05 -30.1 122.05 -30.35L121.8 -30.55L121.6 -30.45L121.15 -30.4L121.2 -30.85L121.2 -31.25L121.45 -31.15L121.9 -31.05Q122.3 -30.95 122.3 -31.2L122.05 -31.55L121.75 -31.6L121.4 -31.65L121.2 -31.75L121.25 -32.4L121.25 -32.45L121.05 -32.75L120.7 -33.05Q120.45 -33 120.55 -32.95L120.55 -32.9M116.2,-36.75L116.2 -36.65L116.4 -36.5L116.35 -36.65L116.25 -36.75L116.2 -36.75M115.9,-37.05L115.8 -37.15L115.75 -37.05L115.75 -36.95L115.6 -37L115.8 -36.85L115.8 -36.3L115.65 -36.4L115.55 -36.5L115.5 -36.5L115.5 -36.4L115.5 -36.2L115.45 -36.05L115.45 -35.95L115.55 -35.85L115.6 -35.95L115.6 -36Q115.75 -35.75 116.05 -35.65L116.05 -35.6L116.1 -35.5Q116.05 -35.4 116.2 -35.45L116.2 -35.65L116.25 -35.9L116.25 -35.95L116.2 -36.05L116.2 -36.15L116.15 -36.1L116.1 -36.1L115.9 -36.2L115.95 -36.45L116.35 -36.2L116.35 -36.25L116.3 -36.3L116.2 -36.45L116.15 -36.4L116.1 -36.4L115.95 -36.5L115.95 -36.65L116 -36.65L115.9 -36.75L115.85 -36.85L115.95 -36.8L115.95 -36.95L115.9 -37.05M114.9,-31.05Q114.55 -30.75 114.8 -30.6L114.95 -30.4Q115.75 -29.35 115.55 -28.7Q116.15 -29.15 115.3 -30.2L115.3 -30.25Q114.8 -30.75 115.25 -30.85Q115.8 -31.1 115.3 -32.7Q115.5 -31.4 114.9 -31.05M114.2,-32.1Q114.3 -31.4 114 -31.1Q113.75 -31.1 113.9 -30.9L114 -30.8L114.35 -29.85Q114.6 -30.05 114.2 -30.65L114.2 -30.7Q113.9 -31 114.2 -31.05Q114.5 -31.2 114.2 -32.1M114.65,-29.25L114.2 -29.45Q113.85 -29.45 113.85 -29.25Q113.85 -28.5 114 -27.9L114.2 -27.8Q115.35 -26.4 116.5 -26.15L116.3 -27.55L116.15 -27.85L115.9 -28.25L115 -29.05L114.65 -29.25M115.05,-28.75L115.7 -28.2L115.95 -27.75Q116.05 -27.6 115.75 -27.65Q115.45 -27.7 115.15 -27.95L114.55 -28.55L114.25 -28.95L114.5 -29.1L115.05 -28.75M114.4,-25.45L114.5 -25.45Q114.5 -25.3 114.65 -25.3Q114.7 -25.1 114.9 -25.05L114.9 -24.9L115.2 -24.45Q115.35 -24.2 115.85 -23.95L116.45 -23.55Q116.65 -23.35 116.65 -23.55L116.65 -23.6L116.65 -23.7L116.7 -23.7Q116.65 -23.6 116.8 -23.65L116.85 -23.7L116.9 -23.7Q116.65 -24.65 116.55 -25.7Q115.35 -25.95 114.1 -27.35L114.4 -25.45M120.15,-29Q120.3 -28.85 120.8 -28.65Q120.5 -28 119.95 -28.3Q119.3 -28.4 119.4 -28.85L119.55 -29.1L120.15 -29M118.75,-25.2L119.05 -24.85Q119.25 -24.65 119.25 -25.05L118.9 -25.55L118.25 -26L118.25 -25.95L118.55 -25.5L118.75 -25.2M118.8,-27.1L118.85 -26.9Q119.3 -26.1 119.7 -26.05L119.85 -26.25L119.65 -26.6L119.15 -27Q118.95 -27.1 118.9 -27.15L118.75 -27.15L118.8 -27.1M120.2,-24.8L120.5 -23.7L120.6 -22.5L120.55 -22.15Q120.5 -21.95 120.6 -21.9Q120.5 -21.7 120.75 -21.45L120.95 -21.2L121.05 -21.6L121.25 -21.55L121.45 -21.45L122.1 -21.15Q122.25 -20.95 122.8 -20.9Q122.85 -20.8 122.9 -20.85L123.2 -20.75L123.5 -20.4Q123.55 -20 123.75 -19.75L123.85 -19.5L124.15 -19.7L124.2 -20.45L123.8 -22.6L123.9 -23.2L123.9 -23.25L123.55 -23.65L123.05 -24L122.85 -24.05L122.65 -24.1Q122.5 -24.05 122.5 -24.15L122.4 -24.15L122.4 -24.25Q122.35 -24.65 122.45 -24.65L122.15 -25.05L122.8 -24.85L123.45 -24.7L123.8 -24.7L123.6 -24.9L123.2 -25.2L123 -25.25L122.55 -25.25L120.95 -25.65L120.5 -25.85L120.2 -25.85Q120.05 -25.8 120.3 -25.7L120.6 -25.5L120.85 -25.4L121.2 -24.6L121.2 -24.45L121.05 -24.5L120.9 -24.5L120.5 -24.75Q120.35 -24.7 120.35 -24.8Q120.3 -24.75 120.25 -24.85L120.2 -24.85L120.2 -24.8M113.5,-45.8Q118.95 -42.55 124.4 -39.9Q123.05 -29.2 125.1 -18.65Q118.6 -21 113.7 -25.15Q112.1 -34.9 113.5 -45.8M121.25,-24.25L121.1 -23.35L121 -23.25L121.05 -23.15Q121.25 -22.95 121.45 -23.35L121.5 -23.9L121.5 -24.15L122.1 -24L122.15 -23.8L122.15 -23.4Q122.2 -22.85 122.85 -22.7L123.2 -22.75L123.1 -22.95Q123 -22.9 123.05 -23L122.65 -23.1Q122.35 -23.15 122.45 -23.4L122.4 -23.75L122.35 -23.95L122.55 -23.85L122.95 -23.65L123.3 -23.2L123.7 -20.9L123.65 -20.65Q123.45 -20.6 123.45 -20.9L123.05 -21.1L122.85 -21.2L121.15 -21.7L121 -21.8L121 -22.3L120.9 -22.9L120.8 -23.95L120.8 -24.15Q120.7 -24.2 120.75 -24.4Q120.8 -24.3 120.85 -24.35L120.95 -24.25L121.15 -24.25L121.25 -24.25M119.95,-24.3L119.95 -24.45L119.9 -24.55L119.85 -24.55L119.75 -24.35L119.55 -24.1L118.75 -23.25L118.65 -23.1L118.95 -22.6L119.35 -22.15L119.45 -22.55L119.55 -23.15L119.8 -23.95L119.95 -24.3M121.2,-22.6Q121.15 -22.45 121.5 -22.45L122.05 -22.25Q122.25 -22.1 122.6 -22.1L122.9 -22.05L122.55 -22.4L121.7 -22.55L121.35 -22.65L121.2 -22.6M121.45,-24.85L121.5 -24.9L121.05 -25.35L121.85 -25.2L122.1 -24.5L122.05 -24.3L122.1 -24.15L121.45 -24.35L121.45 -24.85" />
<path style="fill:none;stroke-width:0.5;stroke-linecap:round;stroke-linejoin:round;stroke-miterlimit:3;stroke:#000000;stroke-opacity:1" d="M126.95,-14.9Q118.95 -17.95 112.55 -23.55Q110.35 -35.5 111.95 -49.6Q119.35 -45.55 126.3 -42.05Q124.65 -28.5 126.95 -14.9z" />
<path style="fill:#373737;fill-opacity:0.513725" d="M119.7,-18.7L116.85 -20.15Q121.85 -42.7 119.7 -18.7" />
<path style="fill:#373737;fill-opacity:0.513725" d="M114.95,-23.1L112.4 -24.4Q111.15 -31.55 111.3 -39.45Q119.85 -49.1 114.95 -23.1" />
</g>
</svg>
