<?xml version="1.0" encoding="utf-8"?>
<svg version="1.1" id="Layer_1"
xmlns="http://www.w3.org/2000/svg"
xmlns:xlink="http://www.w3.org/1999/xlink"
xmlns:author="http://www.sothink.com"
width="111px" height="116px"
xml:space="preserve">
<g id="318" transform="matrix(1, 0, 0, 1, 111.25, 102.9)">
<path style="fill:#D9D3CD;fill-opacity:1" d="M-0.6,-40.45L-0.65 -38.2L-34.2 -21.55L-34.2 -21.35L-41.5 -17.75L-41.5 -17.9L-41.55 -17.9Q-60.4 -8.55 -79.2 0.85L-79.2 0.8L-101.5 11.9L-101.5 11.95Q-102.65 12.8 -103.25 12.75L-103.95 12.65L-111.15 9.15L-111.15 -52.3L-111.15 -52.55L-73.5 -71.35L-73.5 -71.4L-72.35 -71.95L-27.45 -94.4L-26.5 -94.85L-10.6 -102.8L-7.6 -101.85L-7.15 -101.7L-7.15 -42.1L-4.75 -40.75L-4.65 -40.7L-3 -39.8L-2.55 -39.65L-0.55 -40.65L-0.55 -40.45L-0.6 -40.45M-79.2,-66.1L-108.4 -51.55L-108.25 -51.5L-108.15 -51.55L-79.2 -65.95L-79.2 -66.1M-104.8,3.8L-79.2 -8.95L-79.2 -9L-78.2 -9.45L-9.5 -43.7L-9.5 -97.7L-79.2 -63L-79.2 -62.95L-105.45 -49.9L-105.45 4.1L-104.8 3.8M-5.8,-41.3L-6.05 -41.4L-5.8 -41.25L-5.8 -41.3" />
<path style="fill:#006600;fill-opacity:1" d="M-105.45,4.1L-105.45 -49.9L-79.2 -62.95L-79.2 -63L-9.5 -97.7L-9.5 -43.7L-78.2 -9.45L-79.2 -9L-79.2 -8.95L-104.8 3.8L-105.45 4.1" />
<path style="fill:none;stroke-width:0.25;stroke-linecap:round;stroke-linejoin:round;stroke-miterlimit:3;stroke:#333333;stroke-opacity:1" d="M-73.5,-71.4L-72.35 -71.95L-27.45 -94.4L-26.5 -94.85L-10.6 -102.8L-7.6 -101.85L-7.15 -101.7L-7.15 -42.1L-4.75 -40.75L-4.65 -40.7L-3 -39.8L-2.55 -39.65L-0.55 -40.65L-0.55 -40.45L-0.6 -38.25L-0.6 -38.2L-0.65 -38.2L-34.2 -21.55M-41.5,-17.9L-41.55 -17.9Q-60.4 -8.55 -79.2 0.85M-79.2,0.8L-101.5 11.9L-101.5 11.95Q-102.65 12.8 -103.25 12.75L-103.95 12.65L-111.15 9.15L-111.15 -52.3L-111.15 -52.55L-73.5 -71.35L-72.35 -71.95M-26.5,-94.85L-27.45 -94.4M-79.2,-66.1L-108.4 -51.55L-111.15 -52.3M-108.4,-51.55L-108.25 -51.5M-79.2,-66.1L-7.6 -101.85M-79.2,-63L-9.5 -97.7L-9.5 -43.7L-78.2 -9.45L-79.2 -8.95L-104.8 3.8L-105.45 4.15L-105.45 4.1L-105.45 -49.9L-79.2 -62.95M-78.2,-9.45L-79.2 -9M-5.8,-41.3L-6.05 -41.4L-5.8 -41.25L-5.8 -41.3L-4.65 -40.7M-0.65,-38.2L-0.6 -40.45L-0.55 -40.45M-0.65,-38.2L-0.6 -38.25M-41.5,-17.9L-34.2 -21.55M-101.5,11.9L-101.45 9.65Q-102.65 10.9 -103.85 10.3L-108.1 8L-108.25 8.1L-108.25 -51.5M-2.55,-39.65L-101.45 9.65M-108.1,8L-7.15 -42.1" />
</g>
</svg>
