<?xml version="1.0" encoding="utf-8"?>
<svg version="1.1" id="Layer_1"
xmlns="http://www.w3.org/2000/svg"
xmlns:xlink="http://www.w3.org/1999/xlink"
xmlns:author="http://www.sothink.com"
width="80px" height="40px"
xml:space="preserve">
<g id="36" transform="matrix(1, 0, 0, 1, 39.9, 19.95)">
<path style="fill:#B19B7E;fill-opacity:1" d="M-3.35,-14.3L-3.35 -14.45L-3.25 -14.45L-3.35 -14.3" />
<path style="fill:#AD997C;fill-opacity:1" d="M13.1,10.3L12.85 11.05L12.4 11.8L11.65 12.25L10.65 12.5L9.65 12.55L8.25 11.95L7.4 11.3L7.25 9.8L7.3 9.2L12.35 8.55L12.65 8.8L13.05 9.6L13.1 10.3" />
<path style="fill:#BBAA91;fill-opacity:1" d="M-27.3,-0.5Q-27.3 -0.25 -28.2 0.15Q-29.2 0.65 -30 0.65L-30.75 0.55L-31 0Q-31 -1 -28 -1.1Q-27.3 -0.95 -27.3 -0.5M-3.5,9.05L-3.35 9.5Q-3.35 10 -4.15 10.2L-6.35 10.75L-7.15 10.05Q-7.15 8.75 -4.85 8.75Q-4 8.75 -3.5 9.05" />
<path style="fill:#746247;fill-opacity:1" d="M17.75,-1.55Q18.45 -2.25 19.25 -2.25L20.55 -1.4L21.5 -0.45Q21.5 0.5 18.25 0.5Q17.6 0.5 17.35 0L17.15 -0.55Q17.15 -0.9 17.75 -1.55M5.55,-9.55Q5.55 -10.3 6.9 -10.3Q8.7 -10.3 9 -9.5L8.75 -8.95Q8.5 -8.6 6.9 -8.6L5.75 -8.75L5.55 -9.55M-20.8,-2.05Q-20.8 -2.85 -19.75 -2.85Q-19.15 -2.85 -18.9 -2.3Q-19.35 -1.4 -20.15 -1.4L-20.6 -1.55L-20.8 -2.05M-3.25,-14.45L-2.15 -13.85L-1.35 -13.2Q-1.1 -12.85 -1 -12.4Q-0.85 -11.75 -0.95 -10.95L-1.35 -9.45L-1.85 -8.95L-2.35 -8.7L-3.35 -8.45L-4.75 -9.05L-5.6 -9.7L-5.75 -10.45L-5.7 -11.9L-5.35 -13.45L-4.8 -13.9L-4.3 -14.1L-3.35 -14.3L-3.25 -14.45" />
<path style="fill:#594B37;fill-opacity:1" d="M17.15,-0.55L17.35 0Q17.6 0.5 18.25 0.5Q21.5 0.5 21.5 -0.45L20.55 -1.4L19.25 -2.25Q18.45 -2.25 17.75 -1.55Q17.15 -0.9 17.15 -0.55M5.75,-8.75L6.9 -8.6Q8.5 -8.6 8.75 -8.95L9 -9.5Q8.7 -10.3 6.9 -10.3Q5.55 -10.3 5.55 -9.55L5.75 -8.75M13.05,9.6L12.65 8.8L12.35 8.55L7.3 9.2L7.25 9.8L7.4 11.3L8.25 11.95L9.65 12.55L10.65 12.5L11.65 12.25L12.4 11.8L12.85 11.05L13.1 10.3L13.05 9.6M0.05,20L-39.9 -0.05L-0.1 -19.95L39.9 0.05L0.05 20M-28,-1.1Q-31 -1 -31 0L-30.75 0.55L-30 0.65Q-29.2 0.65 -28.2 0.15Q-27.3 -0.25 -27.3 -0.5Q-27.3 -0.95 -28 -1.1M-20.6,-1.55L-20.15 -1.4Q-19.35 -1.4 -18.9 -2.3Q-19.15 -2.85 -19.75 -2.85Q-20.8 -2.85 -20.8 -2.05L-20.6 -1.55M-3.35,-14.45L-3.35 -14.3L-4.3 -14.1L-4.8 -13.9L-5.35 -13.45L-5.7 -11.9L-5.75 -10.45L-5.6 -9.7L-4.75 -9.05L-3.35 -8.45L-2.35 -8.7L-1.85 -8.95L-1.35 -9.45L-0.95 -10.95Q-0.85 -11.75 -1 -12.4Q-1.1 -12.85 -1.35 -13.2L-2.15 -13.85L-3.25 -14.45L-3.35 -14.45M-4.85,8.75Q-7.15 8.75 -7.15 10.05L-6.35 10.75L-4.15 10.2Q-3.35 10 -3.35 9.5L-3.5 9.05Q-4 8.75 -4.85 8.75" />
</g>
</svg>
