<?xml version="1.0" encoding="utf-8"?>
<svg version="1.1" id="Layer_1"
xmlns="http://www.w3.org/2000/svg"
xmlns:xlink="http://www.w3.org/1999/xlink"
xmlns:author="http://www.sothink.com"
width="96px" height="128px"
xml:space="preserve">
<g id="65" transform="matrix(1, 0, 0, 1, -0.8, 124.25)">
<linearGradient
id="LinearGradID_389" gradientUnits="userSpaceOnUse" gradientTransform="matrix(0.0410156, 0, 0, 0.0732727, 82.55, -64.25)" spreadMethod ="pad" x1="-819.2" y1="0" x2="819.2" y2="0" >
<stop  offset="0" style="stop-color:#382615;stop-opacity:0.611765" />
<stop  offset="1" style="stop-color:#FFFFFF;stop-opacity:0" />
</linearGradient>
<path style="fill:url(#LinearGradID_389) " d="M42.7,-57.55L42.8 -57.5L42.75 -57.55L42.7 -57.55M82.6,-64.25L82.8 -64.15L82.75 -64.25L82.6 -64.25M82.75,-77.55L82.7 -77.55L82.8 -77.5L82.75 -77.55M82.7,-37.55L82.8 -37.5L82.75 -37.55L82.7 -37.55M82.75,-24.2L82.6 -24.2L82.8 -24.1L82.75 -24.2M96.05,-4.2L16.05 -44.25L16.05 -124.25L96.05 -84.25L96.05 -4.2" />
<path style="fill:#404040;fill-opacity:1" d="M67.8,-18.1L25.4 3.1L0.8 -9.15L43.25 -30.4L67.8 -18.1" />
<path style="fill:#983D01;fill-opacity:1" d="M43.85,-11.75L44.6 -11.35L42.6 -10.4L32.65 -15.4L34.6 -16.4L34.85 -16.3L36.65 -15.4L43.85 -11.75M36.65,-17.4L38.6 -18.4L40.6 -17.4L48.6 -13.4L48.55 -13.4L46.6 -12.4L36.65 -17.4M50.6,-14.4L40.6 -19.4L42.6 -20.4L44.6 -19.4L52.6 -15.4L52.55 -15.4L50.6 -14.4M56.6,-17.4L56.55 -17.4L54.6 -16.4L44.6 -21.4L46.6 -22.4L48.65 -21.4L56.6 -17.4M48.65,-23.4L50.6 -24.4L52.6 -23.4L55.25 -22.1L55.95 -21.75L57.9 -20.75L60.6 -19.4L60.55 -19.35L58.6 -18.4L48.65 -23.4M64.6,-21.4L64.55 -21.35L62.6 -20.4L52.6 -25.4L54.6 -26.4L56.6 -25.4L64.6 -21.4M56.6,-27.35L56.6 -27.4L58.6 -28.4L68.6 -23.4L66.6 -22.4L56.6 -27.35M30.6,-4.4L20.6 -9.4L22.65 -10.4L22.65 -10.45L24.65 -9.4L32.3 -5.5Q32.45 -5.4 32.55 -5.35L30.6 -4.4M25.15,-11.2L24.7 -11.45L26.7 -12.45L28.7 -11.4L36.6 -7.4L34.55 -6.4L25.15 -11.2M40.6,-9.4L40.55 -9.35L38.6 -8.4L28.7 -13.45L30.6 -14.4L30.65 -14.4L32.65 -13.4L40.6 -9.4" />
<path style="fill:#431B01;fill-opacity:1" d="M32.65,-13.4L32.65 -15.4L42.6 -10.4L42.6 -8.35L42.6 -8.3L40.65 -7.35L40.6 -7.35L40.6 -9.35L40.6 -9.4L32.65 -13.4M46.6,-12.4L46.6 -10.35L46.65 -10.35L44.6 -9.3L44.6 -9.35L44.6 -11.35L44.6 -11.4L43.85 -11.75L36.65 -15.4L36.65 -17.4L46.6 -12.4M48.65,-11.35L48.6 -11.35L48.6 -13.35L48.6 -13.4L40.6 -17.4L40.6 -19.4L50.6 -14.4L50.6 -12.35L50.65 -12.35L48.65 -11.35M54.6,-16.4L54.6 -14.35L54.65 -14.35L52.65 -13.35L52.6 -13.35L52.6 -15.35L52.6 -15.4L44.6 -19.4L44.6 -21.4L54.6 -16.4M58.6,-18.4L58.6 -16.35L58.65 -16.35L56.65 -15.35L56.6 -15.35L56.6 -17.35L56.6 -17.4L48.65 -21.4L48.65 -23.4L58.6 -18.4M62.65,-18.35L60.65 -17.35L60.6 -17.35L60.6 -19.35L60.6 -19.4L57.9 -20.75L55.95 -21.75L55.25 -22.1L52.6 -23.4L52.6 -25.4L62.6 -20.4L62.6 -18.35L62.65 -18.35M66.6,-22.4L66.6 -20.35L66.65 -20.35L66.5 -20.3L64.65 -19.35L64.6 -19.35L64.6 -21.35L64.6 -21.4L56.6 -25.4L56.6 -27.35L66.6 -22.4M66.5,-19.4L66.5 -15.4L64.75 -16.25L64.75 -18.5L66.5 -19.4M30.6,2.6L28.9 1.75L28.9 -2.25L24 -4.7L24 -2.15L22.6 -1.45L22.55 -1.45L20.8 -2.3L20.8 -7.25L20.6 -7.35L20.6 -9.4L30.6 -4.4L30.6 -2.35L30.6 2.6M34.55,-6.4L34.55 -4.35L34.6 -4.3L32.55 -3.3L32.55 -5.35Q32.45 -5.4 32.3 -5.5L24.65 -9.4L24.65 -11.45L25.15 -11.2L34.55 -6.4M28.7,-11.4L28.7 -13.45L38.6 -8.4L38.6 -6.35L38.65 -6.35L36.6 -5.3L36.6 -5.35L36.6 -7.4L28.7 -11.4" />
<path style="fill:#5C2501;fill-opacity:1" d="M42.6,-8.35L42.6 -10.4L44.6 -11.35L44.6 -9.35L42.6 -8.35M66.6,-22.4L68.6 -23.4L68.6 -21.35L67.85 -21L67.3 -20.7L66.6 -20.35L66.6 -22.4M31.7,-2.9L30.6 -2.35L30.6 -4.4L32.55 -5.35L32.55 -3.3L31.7 -2.9M34.55,-6.4L36.6 -7.4L36.6 -5.35L34.55 -4.35L34.55 -6.4M40.6,-7.35L38.6 -6.35L38.6 -8.4L40.55 -9.35L40.6 -9.35L40.6 -7.35M60.6,-17.35L58.6 -16.35L58.6 -18.4L60.55 -19.35L60.6 -19.35L60.6 -17.35M64.55,-21.35L64.6 -21.35L64.6 -19.35L62.6 -18.35L62.6 -20.4L64.55 -21.35M52.55,-15.4L52.6 -15.35L52.6 -13.35L50.6 -12.35L50.6 -14.4L52.55 -15.4M56.55,-17.4L56.6 -17.35L56.6 -15.35L54.6 -14.35L54.6 -16.4L56.55 -17.4M48.6,-11.35L46.6 -10.35L46.6 -12.4L48.55 -13.4L48.6 -13.35L48.6 -11.35" />
<path style="fill:#5C2C00;fill-opacity:1" d="M64.75,-18.5L32.05 -2.15L32.05 1.9L30.6 2.6L30.6 -2.35L31.7 -2.9L32.05 -3.05L32.55 -3.3L34.6 -4.3L36.6 -5.3L38.65 -6.35L40.65 -7.35L42.6 -8.3L44.6 -9.3L46.65 -10.35L48.65 -11.35L50.65 -12.35L52.65 -13.35L54.65 -14.35L56.65 -15.35L58.65 -16.35L60.65 -17.35L62.65 -18.35L64.65 -19.35L66.5 -20.3L66.65 -20.35L67.3 -20.7L67.85 -21L67.85 -16.05L66.5 -15.4L66.5 -19.4L64.75 -18.5" />
<path style="fill:none;stroke-width:0.05;stroke-linecap:round;stroke-linejoin:round;stroke-miterlimit:3;stroke:#000000;stroke-opacity:1" d="M36.65,-15.4L34.85 -16.3L34.6 -16.4L32.65 -15.4L42.6 -10.4L44.6 -11.35L43.85 -11.75L36.65 -15.4L36.65 -17.4L38.6 -18.4L40.6 -17.4L40.6 -19.4L42.6 -20.4L44.6 -19.4L44.6 -21.4L46.6 -22.4L48.65 -21.4L48.65 -23.4L50.6 -24.4L52.6 -23.4L52.6 -25.4L54.6 -26.4L56.6 -25.4L56.6 -27.35L56.6 -27.4L58.6 -28.4L68.6 -23.4L68.6 -21.35L67.85 -21L67.85 -16.05M67.85,-21L67.3 -20.7L66.65 -20.35L66.5 -20.3L66.5 -19.4L66.5 -15.4L64.75 -16.25L64.75 -18.5M32.05,-2.15L32.05 1.9M32.05,-2.15L32.05 -3.05L31.7 -2.9L30.6 -2.35L30.6 2.6L28.9 1.75L28.9 -2.25L24 -4.7L24 -2.15M22.6,-1.45L22.55 -1.45L20.8 -2.3L20.8 -7.25L20.6 -7.35L20.6 -9.4L22.65 -10.4L22.65 -10.45L24.65 -9.4L24.65 -11.45L24.7 -11.45L26.7 -12.45L28.7 -11.4L28.7 -13.45L30.6 -14.4L30.65 -14.4L32.65 -13.4L32.65 -15.4M34.6,-16.4L34.65 -16.4L34.85 -16.3M24.65,-11.45L25.15 -11.2L24.7 -11.45M20.8,-7.25L22.6 -6.4L28.9 -3.2L30.6 -2.35L30.6 -4.4L20.6 -9.4M22.6,-1.45L22.55 -1.45L22.55 -5.45L22.6 -6.4M22.55,-5.45L24 -4.7M28.9,-2.25L28.9 -3.2M42.6,-8.35L40.6 -9.35L40.6 -7.35L38.6 -6.35L36.6 -7.4L36.6 -5.35L34.55 -4.35L32.55 -5.35L32.55 -3.3L34.6 -4.3L36.6 -5.3L38.65 -6.35L40.65 -7.35M38.6,-6.35L38.6 -8.4L28.7 -13.45M30.6,-4.4L32.55 -5.35Q32.45 -5.4 32.3 -5.5L24.65 -9.4M32.05,-3.05L32.55 -3.3L31.7 -2.9M34.55,-4.35L34.55 -6.4L36.6 -7.4L28.7 -11.4M34.55,-6.4L25.15 -11.2M60.6,-19.4L60.55 -19.35L60.6 -19.35L60.6 -19.4L57.9 -20.75L55.95 -21.75L55.25 -22.1L52.6 -23.4M60.55,-19.35L58.6 -18.4L58.6 -16.35L60.6 -17.35L60.6 -19.35L62.6 -18.35L62.6 -20.4L52.6 -25.4M52.6,-15.4L52.55 -15.4L52.6 -15.35L52.6 -15.4L44.6 -19.4M54.6,-14.35L56.6 -15.35L56.6 -17.35L56.55 -17.4L54.6 -16.4L54.6 -14.35L52.6 -15.35L52.6 -13.35L50.6 -12.35L50.6 -14.4L40.6 -19.4M50.65,-12.35L52.65 -13.35L54.65 -14.35M54.6,-16.4L44.6 -21.4M60.65,-17.35L58.65 -16.35L56.65 -15.35L54.65 -14.35M60.65,-17.35L62.65 -18.35M62.6,-18.35L64.6 -19.35L64.6 -21.35L64.55 -21.35L62.6 -20.4M58.6,-16.35L56.6 -17.35L56.6 -17.4L56.55 -17.4M48.6,-13.4L48.55 -13.4L48.6 -13.35L48.6 -13.4L40.6 -17.4M48.55,-13.4L46.6 -12.4L46.6 -10.35L48.6 -11.35L48.6 -13.35L50.6 -12.35M50.65,-12.35L48.65 -11.35L46.65 -10.35L44.6 -9.3L42.6 -8.3L40.65 -7.35M46.6,-10.35L44.6 -11.35L44.6 -9.35M43.85,-11.75L44.6 -11.4L44.6 -11.35M40.55,-9.35L40.6 -9.35L40.6 -9.4L40.55 -9.35L38.6 -8.4M42.6,-10.4L42.6 -8.35L44.6 -9.35M56.6,-17.4L48.65 -21.4M48.65,-23.4L58.6 -18.4M52.55,-15.4L50.6 -14.4M66.5,-20.3L64.65 -19.35L62.65 -18.35M66.6,-22.4L66.6 -20.35L64.6 -21.35L64.6 -21.4L64.55 -21.35M66.6,-20.35L67.3 -20.7M66.6,-22.4L68.6 -23.4M64.6,-21.4L56.6 -25.4M66.6,-22.4L56.6 -27.35M46.6,-12.4L36.65 -17.4M32.65,-13.4L40.6 -9.4" />
<path style="fill:none;stroke-width:0.05;stroke-linecap:round;stroke-linejoin:round;stroke-miterlimit:3;stroke:#293726;stroke-opacity:1" d="M67.85,-16.05L66.5 -15.4M64.75,-18.5L32.05 -2.15M32.05,1.9L30.6 2.6M24,-2.15L22.6 -1.45M64.75,-18.5L66.5 -19.4" />
<path style="fill:#A4865B;fill-opacity:1" d="M27.75,-26.2Q27.5 -26.1 27.7 -26L30.6 -24.15L32.6 -22.55Q32.75 -22.45 32.5 -22.3L31.9 -22L30.4 -21.2L28.25 -20.05L28.2 -20.05L27.85 -20.1L27.5 -20.35L28.1 -21.4L27.95 -21.5L25.8 -21.75L24.15 -23.05L23 -23.95L23.1 -24.15L27.35 -26.4L27.75 -26.4L27.9 -26.3L27.75 -26.2" />
<path style="fill:#2B1100;fill-opacity:1" d="M23.55,-22.85L23.45 -22.6L24.45 -21.85L24.3 -21.75L23.95 -21.15L23 -21.95L22.95 -21.95L22.5 -21.9L20.4 -20.8L19.85 -21.25L19.45 -21.25L16.5 -20.1L16.4 -19.95L18.05 -18.6L17.3 -18.3L15.3 -19.9L15.25 -19.9L14.8 -19.9L12.25 -18.55L11.45 -19.1L47.1 -36.9L47.05 -36.8L45.75 -36.05L45.6 -35.9L45.7 -35.75L47.35 -34.4L45.25 -33.75L45.15 -33.8L44.8 -33.8L40.5 -31.55L39.3 -32.5L38.85 -32.5L36.35 -31.05L36.2 -30.9L36.3 -30.7L38 -29.35L37.2 -28.95L35.7 -30.15L35.3 -30.2L32.65 -28.8Q32.45 -28.7 32.6 -28.55L34.25 -27.25L32.95 -26.6Q32.7 -26.45 32.9 -26.35L33.4 -25.95L30.75 -27.6L30.35 -27.6L27.9 -26.3L27.75 -26.4L27.35 -26.4L23.1 -24.15L23 -23.95L24.15 -23.05L23.55 -22.85M34.85,-24.8L36.5 -23.5L36.5 -23.45L35.4 -22.8L35.25 -22.65Q35.2 -22.6 35.3 -22.5L38.4 -20.05L37.7 -19.7Q37.45 -19.6 37.65 -19.45L38.4 -18.85L37.25 -18.3L37.2 -18.15L39.25 -16.5L39.45 -16.5L39.5 -16.5L39.6 -16.45L39.15 -16.25L38.1 -17.05L37.7 -17.1L36 -16.2L34.2 -17.65L34.15 -17.65L35.6 -18.15Q36.8 -18.8 37.05 -19.65Q37.35 -20.5 36.6 -21.1Q35.8 -21.7 34.4 -21.75Q33.05 -21.75 31.9 -21.1Q30.7 -20.5 30.45 -19.65Q30.2 -18.75 30.95 -18.15Q31.75 -17.55 33.05 -17.55L33.75 -17.6L29.55 -15.35Q29.3 -15.25 29.45 -15.15L27.7 -14.25L26.85 -14.8L28.35 -15.55L28.7 -15.25Q28.85 -15.1 29.15 -15.25L31.75 -16.65L31.95 -16.8L31.85 -17L28.25 -19.85L27.8 -19.85L26.95 -19.35L27.15 -19.75L27.45 -19.75L28.2 -20.05L28.25 -20.05L30.4 -20.9Q30.65 -21 30.5 -21.1L30.4 -21.2L31.9 -22L32.1 -21.85Q32.25 -21.7 32.5 -21.85L35.1 -23.2Q35.35 -23.3 35.2 -23.45L34.05 -24.35L34.85 -24.8M38.25,-26.1L37.9 -26.4L38.75 -26.85L39.1 -26.55L38.25 -26.1M16.65,-15.6L18.25 -16.45L18.4 -16.3L16.9 -15.4L16.65 -15.6M24,-10.65L21.3 -12.5L21.85 -12.8L24.35 -10.8L24 -10.65M40.3,-12.35L29.5 -7L28.5 -7.65L28.95 -7.85L29.6 -7.3Q29.8 -7.15 30 -7.3L30.05 -7.3L32.5 -8.75L32.7 -8.95L32.6 -9.15L32.45 -9.25L33.2 -9.5Q33.5 -9.6 33.4 -9.75L32.75 -10.8L33 -10.65Q33.15 -10.5 33.35 -10.65L34.55 -11.25L34.6 -11.25L34.65 -11.25L35.25 -10.8Q35.4 -10.65 35.65 -10.8L38.3 -12.15L38.45 -12.3L38.4 -12.5L37.85 -12.95L38.05 -13.05L38.65 -12.6L39 -12.6L39.6 -12.9L40.3 -12.35M43.45,-13.95L42.7 -14.55L45.1 -15.8Q45.35 -15.9 45.2 -16.05L45.1 -16.1L45.45 -16.15L48.05 -17.5L48.1 -17.75L47.2 -18.65L48.1 -18.1Q48.3 -17.95 48.55 -18.1L50.85 -19.3L51.25 -18.95L51.65 -18.95L55.9 -21.2Q56.15 -21.35 56 -21.45L55.55 -21.8L55.95 -22L56.15 -21.85Q56.3 -21.7 56.55 -21.85L59.6 -23.65L59.9 -23.75L62.5 -25.1Q62.75 -25.2 62.55 -25.35L62.2 -25.6L63.45 -26.25Q63.7 -26.4 63.5 -26.5L63.45 -26.5L65.4 -27.5L65.45 -27.5L67.6 -26.05L43.45 -13.95M44.65,-16.55L44.95 -16.25L44.6 -16.5L44.65 -16.55M58.85,-29.25Q58.6 -29.1 58.8 -29L56.5 -27.75L55.75 -28.35L55.4 -28.3L55.2 -28.15L55.1 -28.3L55.45 -28.35L57.45 -29.5L57.45 -29.55L58.1 -29.15Q58.3 -29 58.5 -29.15L61.05 -30.45L61.1 -30.4L58.85 -29.25M53.05,-32.45L52.8 -32.3L51.1 -33.7L51.3 -33.8L51.35 -33.8L53.05 -32.45M54,-29.15L53.25 -28.9L52.95 -29.15L53.6 -29.5L54 -29.15M47,-22.3L45.8 -23.25L46.65 -23.75L47 -23.8L49.4 -25.2L49.65 -24.7L46.55 -23.1L46.45 -22.85L47.1 -22.3L47 -22.3" />
<path style="fill:#1A3E91;fill-opacity:1" d="M34.05,-24.35L32.2 -23.4L31.8 -23.4L30.6 -24.15L27.7 -26Q27.5 -26.1 27.75 -26.2L27.9 -26.3L30.35 -27.6L30.75 -27.6L33.4 -25.95L34.85 -25Q35.05 -24.9 34.85 -24.8L34.05 -24.35" />
<path style="fill:#5C2C00;fill-opacity:1" d="M43.45,-13.95L67.6 -26.05L65.45 -27.5L65.45 -27.75L61.85 -30.6L61.45 -30.6L61.1 -30.4L61.05 -30.45L61.15 -30.5Q61.35 -30.65 61.15 -30.75L57.05 -33.35L56.9 -33.4L56.85 -33.5L53.25 -36.35L52.85 -36.35L52.75 -36.3L50.1 -38.4L49.65 -38.4L49.55 -38.35L47.3 -37L47.15 -36.95L47.1 -36.9L11.45 -19.1L12.25 -18.55L12.35 -18.45L16.55 -15.65L16.65 -15.6L16.9 -15.4L17.05 -15.35L21.2 -12.55L21.3 -12.5L24 -10.65L24.15 -10.6L28.35 -7.75L28.5 -7.65L29.5 -7L40.3 -12.35L43.45 -13.95M29.5,-4.75L9.55 -18.15L9.55 -20.35L29.55 -30.4L29.55 -30.35L49.55 -40.4L69.5 -27L69.5 -24.75L29.5 -4.75" />
<path style="fill:#FFFF00;fill-opacity:1" d="M42.9,-29.7L43 -29.5L42.9 -29.35L42.85 -29.3L40.35 -27.85Q40.1 -27.7 39.9 -27.85L38 -29.35L36.3 -30.7L36.2 -30.9L36.35 -31.05L38.85 -32.5L39.3 -32.5L40.5 -31.55L42.9 -29.7M47.5,-34.4L47.45 -34.35L47.4 -34.4L47.35 -34.4L45.7 -35.75L45.6 -35.9L45.75 -36.05L47.05 -36.8L47.1 -36.9L47.15 -36.95L47.3 -37L49.55 -38.35L49.65 -38.4L50.1 -38.4L52.75 -36.3L53.7 -35.6L53.8 -35.4L53.75 -35.3L53.65 -35.2L51.35 -33.85L51.35 -33.8L51.3 -33.8L51.1 -33.7L51 -33.6L49.75 -32.85L49.7 -32.85L49.3 -32.9L48.55 -33.45L48.45 -33.55L48.45 -33.6L48.45 -33.65L48.5 -33.65L48.55 -33.65Q49 -33.3 49.4 -33L49.65 -32.95L50.9 -33.7L50.7 -33.75L47.1 -36.6L47.05 -36.65L45.85 -35.95L45.8 -35.95L45.7 -35.9L45.75 -35.85L47.5 -34.5L47.5 -34.45L47.5 -34.4M38.9,-32.4L36.45 -30.95L36.4 -30.95L36.35 -30.85L36.4 -30.8L40 -27.95L40.3 -27.95L42.75 -29.4L42.8 -29.45L42.9 -29.5L42.85 -29.6L39.25 -32.4L38.9 -32.4M41.6,-21.75L41.95 -21.45L42 -21.25L41.85 -21.1L39.35 -19.6L38.95 -19.65L38.4 -20.05L35.3 -22.5Q35.2 -22.6 35.25 -22.65L35.4 -22.8L36.5 -23.45L36.55 -23.5L36.6 -23.5L36.6 -23.45L36.65 -23.4L36.6 -23.4L35.45 -22.7L35.35 -22.65L35.4 -22.6L39 -19.75L39.3 -19.7L41.75 -21.2L41.9 -21.3L41.85 -21.35L40.4 -22.5L40.4 -22.55L40.4 -22.6L40.45 -22.6L40.5 -22.6L41.6 -21.75M17.05,-15.35L16.9 -15.4L18.4 -16.3L18.5 -16.4L18.9 -16.6L19.35 -16.6L21.15 -15.2L22.75 -13.95L22.95 -13.8L23.05 -13.6L22.85 -13.4L21.95 -12.9L21.85 -12.8L21.3 -12.5L21.2 -12.55L22.8 -13.5L22.9 -13.6L22.9 -13.7L19.3 -16.5L18.95 -16.5L18.55 -16.3L18.5 -16.25L17.05 -15.35M27.15,-10.95L26.15 -10.4L26.1 -10.35L26 -10.3L26.05 -10.25L29.7 -7.4L29.95 -7.4L32.45 -8.85L32.55 -8.95L32.55 -9.05L28.95 -11.85L28.6 -11.85L27.45 -11.15L27.15 -10.95M28.3,-11.8L28.55 -11.95L29 -11.95L32.45 -9.25L32.6 -9.15L32.7 -8.95L32.5 -8.75L30.05 -7.3L30 -7.3Q29.8 -7.15 29.6 -7.3L28.95 -7.85L28.8 -7.95L26 -10.15L25.9 -10.35L26.05 -10.5L27.35 -11.25L28.3 -11.8M53.6,-29.5L51.4 -31.2Q51.3 -31.3 51.35 -31.4L51.5 -31.55L52.7 -32.25L52.8 -32.3L53.05 -32.45L53.1 -32.5L53.15 -32.5L53.15 -32.45L53.2 -32.4L53.15 -32.4L52.85 -32.2L52.8 -32.15L51.55 -31.45L51.55 -31.4L51.45 -31.35L51.5 -31.3L55.1 -28.5L55.1 -28.45L55.4 -28.45L57.35 -29.6L57.4 -29.6L57.45 -29.6L57.5 -29.55L57.45 -29.55L57.45 -29.5L55.45 -28.35L55.1 -28.3L55.05 -28.35L55 -28.35L55 -28.4L54.15 -29.05L54 -29.15L53.6 -29.5M49.7,-38.3L47.25 -36.85L47.2 -36.85L47.15 -36.75L47.2 -36.7L50.8 -33.85L51.1 -33.85L51.25 -33.9L53.55 -35.3L53.65 -35.4L53.7 -35.4L53.65 -35.5L50.05 -38.3L49.7 -38.3M52.85,-29.1L52.85 -29.15L52.9 -29.15L52.95 -29.15L53.25 -28.9L53.4 -28.8L53.95 -28.35L54.05 -28.15L53.85 -28L51.4 -26.5L51.35 -26.5L51.1 -26.45L50.95 -26.55L48.15 -28.75L48.1 -28.8L48.1 -28.85L48.15 -28.85L48.2 -28.85L48.25 -28.85L51.05 -26.65L51.3 -26.6L53.8 -28.1L53.9 -28.2L53.9 -28.25L52.85 -29.05L52.85 -29.1" />
<path style="fill:#8EB101;fill-opacity:1" d="M39.25,-32.4L42.85 -29.6L42.9 -29.5L42.8 -29.45L42.75 -29.4L40.3 -27.95L40 -27.95L36.4 -30.8L36.35 -30.85L36.4 -30.95L36.45 -30.95L38.9 -32.4L39.25 -32.4M50.05,-38.3L53.65 -35.5L53.7 -35.4L53.65 -35.4L53.55 -35.3L51.25 -33.9L51.1 -33.85L50.8 -33.85L47.2 -36.7L47.15 -36.75L47.2 -36.85L47.25 -36.85L49.7 -38.3L50.05 -38.3" />
<path style="fill:#1C4F64;fill-opacity:1" d="M31.8,-23.4L32.2 -23.4L34.05 -24.35L35.2 -23.45Q35.35 -23.3 35.1 -23.2L32.5 -21.85Q32.25 -21.7 32.1 -21.85L31.9 -22L32.5 -22.3Q32.75 -22.45 32.6 -22.55L30.6 -24.15L31.8 -23.4M37.9,-26.4L36.6 -25.7L36.2 -25.7L34.25 -27.25L32.6 -28.55Q32.45 -28.7 32.65 -28.8L35.3 -30.2L35.7 -30.15L37.2 -28.95L39.3 -27.3Q39.45 -27.2 39.2 -27.1L38.75 -26.85L37.9 -26.4M38.05,-13.05L35.05 -15.45Q34.85 -15.6 35.1 -15.7L36 -16.2L37.7 -17.1L38.1 -17.05L39.15 -16.25L36.9 -15.35Q36.6 -15.25 36.8 -15.15L39.6 -12.9L39 -12.6L38.65 -12.6L38.05 -13.05" />
<path style="fill:#E1CD7B;fill-opacity:1" d="M36.65,-23.4L36.6 -23.45L36.6 -23.5L36.55 -23.5L36.5 -23.45L36.5 -23.5L34.85 -24.8Q35.05 -24.9 34.85 -25L33.4 -25.95L32.9 -26.35Q32.7 -26.45 32.95 -26.6L34.25 -27.25L36.2 -25.7L36.6 -25.7L37.9 -26.4L38.25 -26.1L39.55 -25.1L39.55 -24.85L39.5 -24.85L39.35 -24.85L39.35 -24.8L39.35 -24.75L36.7 -23.9L36.55 -23.8L36.75 -23.45L36.65 -23.4M27.35,-11.25L25.5 -10.3L25.2 -10.3L24.55 -10.8L24.5 -10.85L21.95 -12.9L22.85 -13.4L23.05 -13.6L22.95 -13.8L22.75 -13.95L24.25 -14.7L24.65 -14.7L26.6 -13.15L27.85 -12.2L28.3 -11.8L27.35 -11.25M42.55,-18.1L42.75 -17.95L43.55 -16.65L43.9 -16.6L44.35 -16.7L44.6 -16.5L44.95 -16.25L45.05 -16.15L45.1 -16.1L45.2 -16.05Q45.35 -15.9 45.1 -15.8L42.7 -14.55L40.2 -16.5L39.8 -16.5L39.6 -16.45L39.5 -16.5L42.55 -18.1M33,-14.6L33.05 -14.55L33.05 -14.6L33.1 -14.6L36.05 -12.25Q36.2 -12.1 36 -12L34.75 -11.35L34.7 -11.35L34.65 -11.35L34.6 -11.35L34.6 -11.25L34.55 -11.25L33.35 -10.65Q33.15 -10.5 33 -10.65L32.75 -10.8L30.05 -12.95L29.4 -13.5Q29.2 -13.6 29.45 -13.75L30.55 -14.3L32.05 -15.1L32.45 -15.1L33 -14.65L33 -14.6M61.1,-30.4L61.45 -30.6L61.85 -30.6L65.45 -27.75L65.45 -27.5L65.4 -27.5L63.45 -26.5L62.75 -26.15Q62.55 -26 62.4 -26.15L58.8 -29Q58.6 -29.1 58.85 -29.25L61.1 -30.4M51.35,-33.8L51.35 -33.85L53.65 -35.2L53.75 -35.3L53.8 -35.4L53.7 -35.6L52.75 -36.3L52.85 -36.35L53.25 -36.35L56.85 -33.5L56.9 -33.4L56.8 -33.3L56.75 -33.25L54.15 -31.9L53.9 -31.85L53.75 -31.9L53.15 -32.4L53.2 -32.4L53.15 -32.45L53.15 -32.5L53.1 -32.5L53.05 -32.45L51.35 -33.8" />
<path style="fill:#367455;fill-opacity:1" d="M39.2,-27.1Q39.45 -27.2 39.3 -27.3L37.2 -28.95L38 -29.35L39.9 -27.85Q40.1 -27.7 40.35 -27.85L42.85 -29.3L42.9 -29.35L45.2 -27.45L45.65 -27.45L45.75 -27.5L45.95 -27.4L44.85 -26.8L42.95 -28.35L42.8 -28.4L42.55 -28.35L39.1 -26.55L38.75 -26.85L39.2 -27.1" />
<path style="fill:#9DE456;fill-opacity:1" d="M41.4,-23.3L40.4 -25L40.15 -25.05L39.55 -24.85L39.55 -25.1L38.25 -26.1L39.1 -26.55L42.55 -28.35L42.8 -28.4L42.95 -28.35L44.85 -26.8L44.25 -26.5L44.2 -26.35L46.25 -24.75L46.45 -24.75L47.05 -25.05L47.75 -24.5Q47.9 -24.4 47.65 -24.25L46.65 -23.75L45.8 -23.25L43.4 -22L43 -22L41.4 -23.3M55.55,-21.8L56 -21.45Q56.15 -21.35 55.9 -21.2L51.65 -18.95L51.25 -18.95L50.85 -19.3L47.25 -22.15L47.1 -22.3L46.45 -22.85L46.55 -23.1L49.65 -24.7L50.8 -25.3L51.2 -25.3L51.65 -24.95L50.05 -24.1Q49.8 -23.95 50 -23.85L54.1 -21.25L54.5 -21.3L55.55 -21.8M52.7,-32.25L51.5 -31.55L51.35 -31.4Q51.3 -31.3 51.4 -31.2L53.6 -29.5L52.95 -29.15L52.9 -29.15L52.85 -29.15L52.85 -29.1L50.65 -27.95L50.3 -27.95L48.8 -29.15L49.9 -29.7Q50.15 -29.85 49.95 -29.95L49.25 -30.5L49.9 -30.75L50.05 -30.95L48.55 -33.45L49.3 -32.9L49.7 -32.85L49.75 -32.85L51 -33.6L52.7 -32.25" />
<path style="fill:#F54EB3;fill-opacity:1" d="M40.15,-25.05L40.4 -25L41.4 -23.3L41.55 -23.05L41.45 -22.9L40.5 -22.6L40.45 -22.6L40.4 -22.6L40.4 -22.55L37.95 -21.75L37.75 -21.8L36.75 -23.45L36.55 -23.8L36.7 -23.9L39.35 -24.75L39.35 -24.7L39.4 -24.75L39.55 -24.75L39.6 -24.8L39.55 -24.85L40.15 -25.05" />
<path style="fill:#000000;fill-opacity:1" d="M39.35,-24.8L39.35 -24.85L39.5 -24.85L39.55 -24.85L39.6 -24.8L39.55 -24.75L39.4 -24.75L39.35 -24.7L39.35 -24.75L39.35 -24.8M18.25,-16.45L18.3 -16.45L18.4 -16.5L18.5 -16.4L18.4 -16.3L18.25 -16.45M18.55,-16.25L18.5 -16.25L18.55 -16.3L18.55 -16.25M24.35,-10.8L21.85 -12.8L21.95 -12.9L24.5 -10.85L24.55 -10.8L25.2 -10.3L25.5 -10.3L27.35 -11.25L26.05 -10.5L25.9 -10.35L25.55 -10.2Q25.3 -10.05 25.15 -10.2L24.5 -10.7L24.15 -10.6L24 -10.65L24.35 -10.8M28.5,-7.65L28.35 -7.75L28.8 -7.95L28.95 -7.85L28.5 -7.65M27.15,-10.95L27.45 -11.15L27.4 -11.1L27.15 -10.95M52.8,-32.3L52.7 -32.25L51 -33.6L51.1 -33.7L52.8 -32.3M53.4,-28.8L53.25 -28.9L54 -29.15L54.15 -29.05L53.4 -28.8M44.35,-16.75L44.4 -16.8L44.4 -16.75L44.35 -16.75" />
<path style="fill:#990000;fill-opacity:1" d="M18.9,-17.05L18.95 -16.85L18.75 -16.7L18.4 -16.5L18.3 -16.45L18.25 -16.45L16.65 -15.6L16.55 -15.65L18.7 -16.8L18.85 -16.9L18.8 -16.95L15.2 -19.8L14.85 -19.8L12.35 -18.45L12.25 -18.55L14.8 -19.9L15.25 -19.9L15.3 -19.9L17.3 -18.3L18.9 -17.05M23.9,-21.05L22.9 -21.85L22.55 -21.8L20.5 -20.7L20.45 -20.7L20.4 -20.75L20.4 -20.8L22.5 -21.9L22.95 -21.95L23 -21.95L23.95 -21.15L24 -21.15L24 -21.05L23.95 -21L23.9 -21.05M26.65,-18.9L26.45 -18.75L23.85 -17.35Q23.6 -17.2 23.45 -17.35L22.75 -17.9L22.75 -17.95L22.8 -18L22.85 -18L22.85 -17.95L23.5 -17.45L23.8 -17.45L26.4 -18.85L26.55 -18.95L26.5 -19L26.45 -19L26.45 -19.05L26.45 -19.1L26.5 -19.1L26.6 -19.1L26.6 -19.05L26.65 -19L26.65 -18.9M28.35,-15.6L28.4 -15.65L28.45 -15.65L28.45 -15.6L28.8 -15.35L29.1 -15.35L31.8 -16.8L31.8 -16.9L28.2 -19.75L27.85 -19.75L26.95 -19.25L26.9 -19.2L26.9 -19.25L26.85 -19.25L26.85 -19.3L26.9 -19.35L26.95 -19.35L27.8 -19.85L28.25 -19.85L31.85 -17L31.95 -16.8L31.75 -16.65L29.15 -15.25Q28.85 -15.1 28.7 -15.25L28.35 -15.55L28.35 -15.6M34.6,-11.25L34.6 -11.35L34.65 -11.35L34.7 -11.35L34.75 -11.35L35.3 -10.9L35.6 -10.9L38.25 -12.25L38.35 -12.35L38.3 -12.4L34.7 -15.25L34.35 -15.25L33.1 -14.6L33.05 -14.6L33.05 -14.55L33 -14.6L33 -14.65L33 -14.7L34.3 -15.35L34.8 -15.35L37.85 -12.95L38.4 -12.5L38.45 -12.3L38.3 -12.15L35.65 -10.8Q35.4 -10.65 35.25 -10.8L34.65 -11.25L34.6 -11.25" />
<path style="fill:#FF0000;fill-opacity:1" d="M20.4,-20.75L20.45 -20.7L20.5 -20.7L23.45 -18.4Q23.6 -18.25 23.35 -18.15L22.85 -17.95L22.85 -18L22.8 -18L22.75 -17.95L22.75 -17.9L21.95 -17.6L20.45 -17.05L20 -17.1L18.05 -18.6L16.4 -19.95L16.5 -20.1L19.45 -21.25L19.85 -21.25L20.4 -20.8L20.4 -20.75" />
<path style="fill:#542C4D;fill-opacity:1" d="M24.55,-21.85L24.45 -21.85L23.45 -22.6L23.55 -22.85L24.15 -23.05L25.8 -21.75L24.55 -21.85M27.45,-19.75L27.15 -19.75L27.5 -20.35L27.85 -20.1L28.2 -20.05L27.45 -19.75M30.5,-21.1Q30.65 -21 30.4 -20.9L28.25 -20.05L30.4 -21.2L30.5 -21.1M23.3,-16.6L23.6 -16.35Q23.75 -16.2 23.5 -16.1L21.15 -15.2L19.35 -16.6L18.9 -16.6L18.5 -16.4L18.4 -16.5L18.75 -16.7L18.95 -16.85L18.9 -17.05L17.3 -18.3L18.05 -18.6L20 -17.1L20.45 -17.05L21.95 -17.6L23.3 -16.6M28.35,-7.75L24.15 -10.6L24.5 -10.7L25.15 -10.2Q25.3 -10.05 25.55 -10.2L25.9 -10.35L26 -10.15L28.8 -7.95L28.35 -7.75M40.3,-12.35L39.6 -12.9L36.8 -15.15Q36.6 -15.25 36.9 -15.35L39.15 -16.25L39.6 -16.45L39.8 -16.5L40.2 -16.5L42.7 -14.55L43.45 -13.95L40.3 -12.35" />
<path style="fill:#444444;fill-opacity:1" d="M12.35,-18.45L14.85 -19.8L15.2 -19.8L18.8 -16.95L18.85 -16.9L18.7 -16.8L16.55 -15.65L12.35 -18.45M22.55,-21.8L22.9 -21.85L23.9 -21.05L23.05 -19.5L23.15 -19.4L26.45 -19.05L26.45 -19L26.5 -19L26.55 -18.95L26.4 -18.85L23.8 -17.45L23.5 -17.45L22.85 -17.95L23.35 -18.15Q23.6 -18.25 23.45 -18.4L20.5 -20.7L22.55 -21.8" />
<path style="fill:#CCFF33;fill-opacity:1" d="M36.75,-23.45L37.75 -21.8L37.95 -21.75L40.4 -22.55L40.4 -22.5L41.85 -21.35L41.9 -21.3L41.75 -21.2L39.3 -19.7L39 -19.75L35.4 -22.6L35.35 -22.65L35.45 -22.7L36.6 -23.4L36.65 -23.4L36.75 -23.45M17.05,-15.35L18.5 -16.25L18.55 -16.25L18.55 -16.3L18.95 -16.5L19.3 -16.5L22.9 -13.7L22.9 -13.6L22.8 -13.5L21.2 -12.55L17.05 -15.35M27.4,-11.1L27.45 -11.15L28.6 -11.85L28.95 -11.85L32.55 -9.05L32.55 -8.95L32.45 -8.85L29.95 -7.4L29.7 -7.4L26.05 -10.25L26 -10.3L26.1 -10.35L26.15 -10.4L27.15 -10.95L27.4 -11.1M53.9,-31.85L54 -31.7L57.35 -29.6L55.4 -28.45L55.1 -28.45L55.1 -28.5L51.5 -31.3L51.45 -31.35L51.55 -31.4L51.55 -31.45L52.8 -32.15L52.85 -32.2L53.15 -32.4L53.75 -31.9L53.9 -31.85M48,-34.45L47.65 -34.5L47.5 -34.45L47.5 -34.5L45.75 -35.85L45.7 -35.9L45.8 -35.95L45.85 -35.95L47.05 -36.65L47.1 -36.6L50.7 -33.75L50.9 -33.7L49.65 -32.95L49.4 -33Q49 -33.3 48.55 -33.65L48.5 -33.65L48.45 -33.65L48 -34.45M52.85,-29.05L53.9 -28.25L53.9 -28.2L53.8 -28.1L51.3 -26.6L51.05 -26.65L48.25 -28.85L48.8 -29.15L50.3 -27.95L50.65 -27.95L52.85 -29.1L52.85 -29.05" />
<path style="fill:#3F311F;fill-opacity:1" d="M33.8,-17.6L33.75 -17.6L33.05 -17.55Q31.75 -17.55 30.95 -18.15Q30.2 -18.75 30.45 -19.65Q30.7 -20.5 31.9 -21.1Q33.05 -21.75 34.4 -21.75Q35.8 -21.7 36.6 -21.1Q37.35 -20.5 37.05 -19.65Q36.8 -18.8 35.6 -18.15L34.15 -17.65L33.8 -17.6" />
<path style="fill:#F2D0EF;fill-opacity:1" d="M41.95,-21.95L42.35 -21.95L43.55 -21L41.65 -20.35L41.45 -20.15L41.9 -19.4L41.9 -19.25L42.15 -19L42.55 -18.3L40.55 -19.9L40.3 -19.9L38.4 -18.85L37.65 -19.45Q37.45 -19.6 37.7 -19.7L38.4 -20.05L38.95 -19.65L39.35 -19.6L41.85 -21.1L42 -21.25L41.95 -21.45L41.6 -21.75L41.95 -21.95M44.45,-16.75L44.65 -16.55L44.6 -16.5L44.35 -16.7L44.45 -16.75M42.75,-17.95L42.55 -18.1L42.65 -18.15L42.75 -17.95" />
<path style="fill:#FB6604;fill-opacity:1" d="M47.3,-28.1L47.55 -28.1L49.6 -26.5L49.55 -26.35L47.05 -25.05L46.45 -24.75L46.25 -24.75L44.2 -26.35L44.25 -26.5L44.85 -26.8L45.95 -27.4L47.3 -28.1M42.55,-18.1L39.5 -16.5L39.45 -16.5L39.25 -16.5L37.2 -18.15L37.25 -18.3L38.4 -18.85L40.3 -19.9L40.55 -19.9L42.55 -18.3L42.6 -18.25L42.65 -18.15L42.55 -18.1" />
<path style="fill:#80FFE6;fill-opacity:1" d="M23.3,-16.6L21.95 -17.6L22.75 -17.9L23.45 -17.35Q23.6 -17.2 23.85 -17.35L26.45 -18.75L26.65 -18.9L26.65 -19L29.75 -16.5Q29.9 -16.4 29.65 -16.25L28.45 -15.6L28.45 -15.65L28.4 -15.65L28.35 -15.6L28.35 -15.55L26.85 -14.8L23.85 -16.7L23.45 -16.7L23.3 -16.6M29.45,-15.15Q29.3 -15.25 29.55 -15.35L33.75 -17.6L33.8 -17.6L34.15 -17.65L34.2 -17.65L36 -16.2L35.1 -15.7Q34.85 -15.6 35.05 -15.45L38.05 -13.05L37.85 -12.95L34.8 -15.35L34.3 -15.35L33 -14.7L33 -14.65L32.45 -15.1L32.05 -15.1L30.55 -14.3L29.45 -15.15" />
<path style="fill:#FFFFFF;fill-opacity:1" d="M29.65,-16.25Q29.9 -16.4 29.75 -16.5L26.65 -19L26.6 -19.05L26.8 -19.15L26.9 -19.25L26.9 -19.2L26.95 -19.25L27.85 -19.75L28.2 -19.75L31.8 -16.9L31.8 -16.8L29.1 -15.35L28.8 -15.35L28.45 -15.6L29.65 -16.25M34.35,-15.25L34.7 -15.25L38.3 -12.4L38.35 -12.35L38.25 -12.25L35.6 -10.9L35.3 -10.9L34.75 -11.35L36 -12Q36.2 -12.1 36.05 -12.25L33.1 -14.6L34.35 -15.25" />
<path style="fill:#FF4444;fill-opacity:1" d="M23.95,-21L24 -21.05L24 -21.15L23.95 -21.15L24.3 -21.75L24.45 -21.85L24.55 -21.85L25.8 -21.75L27.95 -21.5L28.1 -21.4L27.5 -20.35L27.15 -19.75L26.95 -19.35L26.9 -19.35L26.85 -19.3L26.85 -19.25L26.9 -19.25L26.8 -19.15L26.6 -19.05L26.6 -19.1L26.5 -19.1L26.45 -19.1L26.45 -19.05L23.15 -19.4L23.05 -19.5L23.9 -21.05L23.95 -21" />
<path style="fill:#A3A4F5;fill-opacity:1" d="M26.6,-13.15L24.65 -14.7L24.25 -14.7L22.75 -13.95L21.15 -15.2L23.5 -16.1Q23.75 -16.2 23.6 -16.35L23.3 -16.6L23.45 -16.7L23.85 -16.7L26.85 -14.8L27.7 -14.25L27.95 -14.1Q28.15 -14 27.95 -13.85L26.6 -13.15M58.5,-29.15Q58.3 -29 58.1 -29.15L57.45 -29.55L57.5 -29.55L57.45 -29.6L57.4 -29.6L57.35 -29.6L54 -31.7L53.9 -31.85L54.15 -31.9L56.75 -33.25L56.8 -33.3L56.9 -33.4L57.05 -33.35L61.15 -30.75Q61.35 -30.65 61.15 -30.5L61.05 -30.45L58.5 -29.15M44,-20.65Q43.85 -20.8 44.05 -20.9L44.9 -21.35L46.7 -22.3L47 -22.3L47.1 -22.3L47.25 -22.15L50.85 -19.3L48.55 -18.1Q48.3 -17.95 48.1 -18.1L47.2 -18.65L46.1 -19.35L44 -20.65M63.5,-26.5Q63.7 -26.4 63.45 -26.25L62.2 -25.6L60.85 -24.9Q60.6 -24.75 60.4 -24.9L56.7 -27.2L56.3 -27.45Q56.15 -27.6 56.35 -27.7L56.5 -27.75L58.8 -29L62.4 -26.15Q62.55 -26 62.75 -26.15L63.45 -26.5L63.5 -26.5" />
<path style="fill:#FA6363;fill-opacity:1" d="M30.55,-14.3L29.45 -13.75Q29.2 -13.6 29.4 -13.5L30.05 -12.95L28 -12.3L27.85 -12.2L26.6 -13.15L27.95 -13.85Q28.15 -14 27.95 -14.1L27.7 -14.25L29.45 -15.15L30.55 -14.3" />
<path style="fill:#C002C1;fill-opacity:1" d="M27.85,-12.2L28 -12.3L30.05 -12.95L32.75 -10.8L33.4 -9.75Q33.5 -9.6 33.2 -9.5L32.45 -9.25L29 -11.95L28.55 -11.95L28.3 -11.8L27.85 -12.2" />
<path style="fill:#0E0E7A;fill-opacity:1" d="M56.7,-27.2L60.4 -24.9Q60.6 -24.75 60.85 -24.9L62.2 -25.6L62.55 -25.35Q62.75 -25.2 62.5 -25.1L59.9 -23.75L59.6 -23.65L59.5 -23.7L55.4 -26.3Q55.2 -26.4 55.4 -26.55L56.7 -27.2M54.5,-21.3L54.1 -21.25L50 -23.85Q49.8 -23.95 50.05 -24.1L51.65 -24.95L52 -25.1L52.65 -25.45L53.1 -25.45L57.2 -22.9Q57.35 -22.75 57.15 -22.65L55.95 -22L55.55 -21.8L54.5 -21.3" />
<path style="fill:#C902CA;fill-opacity:1" d="M45.25,-33.75L47.35 -34.4L47.4 -34.4L47.45 -34.35L47.5 -34.4L47.5 -34.45L47.65 -34.5L48 -34.45L48.45 -33.65L48.45 -33.6L48.45 -33.55L48.55 -33.45L50.05 -30.95L49.9 -30.75L49.25 -30.5L46.9 -29.75L46.55 -29.8L44.5 -33.3L44.65 -33.55L45.25 -33.75" />
<path style="fill:#442B42;fill-opacity:1" d="M45.75,-27.5L45.65 -27.45L45.2 -27.45L42.9 -29.35L43 -29.5L42.9 -29.7L40.5 -31.55L44.8 -33.8L45.15 -33.8L45.25 -33.75L44.65 -33.55L44.5 -33.3L46.55 -29.8L46.9 -29.75L49.25 -30.5L49.95 -29.95Q50.15 -29.85 49.9 -29.7L48.8 -29.15L48.25 -28.85L48.2 -28.85L48.15 -28.85L48.1 -28.85L48.1 -28.8L45.75 -27.5" />
<path style="fill:#166968;fill-opacity:1" d="M47,-23.8L46.65 -23.75L47.65 -24.25Q47.9 -24.4 47.75 -24.5L47.05 -25.05L49.55 -26.35L49.6 -26.5L47.55 -28.1L47.3 -28.1L45.95 -27.4L45.75 -27.5L48.1 -28.8L48.15 -28.75L50.95 -26.55L51.1 -26.45L51.05 -26.2L49.4 -25.2L47 -23.8" />
<path style="fill:#3A1E12;fill-opacity:1" d="M49.4,-25.2L51.05 -26.2L51.1 -26.45L51.35 -26.5L51.4 -26.5L53.85 -28L54.05 -28.15L53.95 -28.35L53.4 -28.8L54.15 -29.05L55 -28.4L55 -28.35L55.05 -28.35L55.1 -28.3L55.2 -28.15L51.35 -25.9Q51.15 -25.8 51.3 -25.65L52 -25.1L51.65 -24.95L51.2 -25.3L50.8 -25.3L49.65 -24.7L49.4 -25.2" />
<path style="fill:#2CCBCA;fill-opacity:1" d="M55.4,-26.55Q55.2 -26.4 55.4 -26.3L59.5 -23.7L59.6 -23.65L56.55 -21.85Q56.3 -21.7 56.15 -21.85L55.95 -22L57.15 -22.65Q57.35 -22.75 57.2 -22.9L53.1 -25.45L52.65 -25.45L52 -25.1L51.3 -25.65Q51.15 -25.8 51.35 -25.9L55.2 -28.15L55.4 -28.3L55.75 -28.35L56.5 -27.75L56.35 -27.7Q56.15 -27.6 56.3 -27.45L56.7 -27.2L55.4 -26.55" />
<path style="fill:#C4CC6F;fill-opacity:1" d="M44.6,-21.35L43.55 -21L42.35 -21.95L41.95 -21.95L41.6 -21.75L40.5 -22.6L41.45 -22.9L41.55 -23.05L41.4 -23.3L43 -22L43.4 -22L45.8 -23.25L47 -22.3L46.7 -22.3L44.9 -21.35L44.6 -21.35" />
<path style="fill:#174868;fill-opacity:1" d="M42.15,-19L41.9 -19.25L41.9 -19.4L42.15 -19M44.65,-16.55L44.45 -16.75L46.85 -17.55L47.05 -17.8L46.1 -19.35L47.2 -18.65L48.1 -17.75L48.05 -17.5L45.45 -16.15L45.1 -16.1L45.05 -16.15L44.95 -16.25L44.65 -16.55" />
<path style="fill:#FE78FE;fill-opacity:1" d="M42.65,-18.15L42.6 -18.25L42.55 -18.3L42.15 -19L41.9 -19.4L41.45 -20.15L41.65 -20.35L43.55 -21L44.6 -21.35L44.9 -21.35L44.05 -20.9Q43.85 -20.8 44 -20.65L46.1 -19.35L47.05 -17.8L46.85 -17.55L44.45 -16.75L44.35 -16.7L43.9 -16.6L43.55 -16.65L42.75 -17.95L42.65 -18.15M44.4,-16.75L44.4 -16.8L44.35 -16.75L44.4 -16.75" />
<path style="fill:none;stroke-width:1;stroke-linecap:round;stroke-linejoin:round;stroke-miterlimit:3;stroke:#000000;stroke-opacity:1" d="M47.3,-37L47.1 -36.9L11.45 -19.1M29.55,-30.35L29.55 -30.4M9.55,-20.35L9.55 -18.15L29.5 -4.75L29.5 -7M61.05,-30.45L61.1 -30.4M65.45,-27.5L67.6 -26.05M49.55,-40.4L49.55 -38.35M29.5,-4.75L69.5 -24.75" />
<path style="fill:none;stroke-width:1;stroke-linecap:round;stroke-linejoin:round;stroke-miterlimit:3;stroke:#A94401;stroke-opacity:1" d="M11,-19.4L11.45 -19.1" />
<path style="fill:none;stroke-width:1;stroke-linecap:round;stroke-linejoin:round;stroke-miterlimit:3;stroke:#ECB08A;stroke-opacity:1" d="M11.45,-19.1L12.25 -18.55L12.35 -18.45M29.55,-30.4L9.55 -20.35L11 -19.4M16.55,-15.65L16.65 -15.6M21.2,-12.55L21.3 -12.5M16.9,-15.4L17.05 -15.35M16.9,-15.4L16.65 -15.6M16.55,-15.65L12.35 -18.45M29.5,-7L28.5 -7.65L28.35 -7.75L24.15 -10.6L24 -10.65L21.3 -12.5M21.2,-12.55L17.05 -15.35M49.55,-40.4L29.55 -30.35" />
<path style="fill:none;stroke-width:1;stroke-linecap:round;stroke-linejoin:round;stroke-miterlimit:3;stroke:#6D6A68;stroke-opacity:1" d="M29.5,-7L40.3 -12.35M43.45,-13.95L67.6 -26.05L69.5 -27M43.45,-13.95L40.3 -12.35" />
<path style="fill:none;stroke-width:1;stroke-linecap:round;stroke-linejoin:round;stroke-miterlimit:3;stroke:#975224;stroke-opacity:1" d="M69.5,-24.75L69.5 -27" />
<path style="fill:none;stroke-width:1;stroke-linecap:round;stroke-linejoin:round;stroke-miterlimit:3;stroke:#DA9161;stroke-opacity:1" d="M69.5,-27L49.55 -40.4" />
<path style="fill:#322538;fill-opacity:0.72549" d="M13.25,-20L29.5 -9.1L63.8 -26.25L47.55 -37.15L49.55 -38.15L49.55 -40.4L69.5 -27L29.5 -7L11.45 -19.1L13.25 -20" />
</g>
</svg>
