<?xml version="1.0" encoding="utf-8"?>
<svg version="1.1" id="Layer_1"
xmlns="http://www.w3.org/2000/svg"
xmlns:xlink="http://www.w3.org/1999/xlink"
xmlns:author="http://www.sothink.com"
width="560px" height="340px"
xml:space="preserve">
<g id="371" transform="matrix(1, 0, 0, 1, 239.25, 118.5)">
<path style="fill:#A0BE7E;fill-opacity:1" d="M5.65,54.2L-74.15 14.15L-5 -20.5L74.75 19.6L74.85 19.5L154.55 59.55L154.65 59.5L154.8 59.6L234.5 99.65L234.8 99.45L234.85 99.45L314.65 139.6L314.7 143.55L245.15 178.4L245.05 174.45L245.95 174L245.55 174.2L165.65 134.1L165.4 134.25L85.65 94.25L85.6 94.2L85.5 94.15L85.5 94.2L5.7 54.15L5.65 54.2M5.25,214.5L6.15 214.05L5.75 214.25L-74 174.2L-74.15 174.15L-74.15 174.2L-153.95 134.15L-154 134.2L-233.8 94.15L-164.65 59.5L-84.9 99.6L-84.8 99.5L-84.65 99.55L-5.1 139.55L-5 139.5L74.85 179.65L74.9 183.6Q40.1 201 5.35 218.45L5.25 214.5M74.85,99.5L74.95 99.45L75.1 99.55L154.8 139.6L154.95 139.5L234.8 179.65L234.85 183.6Q200.05 201 165.3 218.45L165.2 214.5L166.1 214.05L165.7 214.25L85.8 174.15L85.2 174.45L86.1 174L85.7 174.2L5.95 134.15L5.8 134.1L5.8 134.15L-74 94.1L-74.05 94.15L-153.85 54.1L-84.7 19.45L-4.95 59.55L-4.85 59.45L74.85 99.5" />
<path style="fill:#618259;fill-opacity:1" d="M74.75,19.6L-5 -20.5L0.5 -23.25L80.6 16.75L80.6 16.9L160.45 56.75L160.45 56.9L240.2 96.75L240.3 96.7L320.4 136.7L320.4 136.75L320.4 140.7L314.7 143.55L314.65 139.6L234.85 99.45L234.8 99.45L234.5 99.65L154.8 59.6L154.65 59.5L154.55 59.55L74.85 19.5L74.75 19.6M-4.85,59.45L-4.95 59.55L-84.7 19.45L-79.25 16.75L-79.25 16.7L-74.15 14.15L5.65 54.2L5.7 54.15L85.5 94.2L85.5 94.15L85.6 94.2L85.65 94.25L165.4 134.25L164.9 134.5L165.65 134.1L245.55 174.2L245.05 174.45L245.15 178.4L240.55 180.7L240.55 180.75L234.85 183.6L234.8 179.65L154.95 139.5L154.8 139.6L75.1 99.55L74.95 99.45L74.85 99.5L-4.85 59.45M165.2,214.5L165.3 218.45L160.65 220.75L80.7 180.7L80.65 180.7L80.6 180.7L80.6 180.75L74.9 183.6L74.85 179.65L-5 139.5L-5.1 139.55L-84.65 99.55L-84.8 99.5L-84.9 99.6L-164.65 59.5L-159.15 56.75L-158.95 56.85L-158.95 56.65L-153.85 54.1L-74.05 94.15L-74 94.1L5.8 134.15L5.8 134.1L5.95 134.15L85.7 174.2L85.2 174.45L85.8 174.15L165.7 214.25L165.2 214.5M5.35,218.45L0.7 220.75L-79.25 180.7L-159.05 140.7L-238.9 100.7L-238.9 96.7L-233.8 94.15L-154 134.2L-153.95 134.15L-74.15 174.2L-74.15 174.15L-74 174.2L5.75 214.25L5.25 214.5L5.35 218.45" />
<path style="fill:none;stroke-width:0.25;stroke-linecap:round;stroke-linejoin:round;stroke-miterlimit:3;stroke:#BECFA7;stroke-opacity:1" d="M9,-11.35Q7.2 -10.95 5.4 -9.55M8.5,-5.45Q6.7 -5.05 4.9 -3.65M5.25,-7.05L4.6 -6.85Q3.15 -6.4 1.65 -5.25M12.25,-9.8L11.6 -9.6Q10.15 -9.15 8.65 -8M21.75,-5.05Q20.3 -4.75 18.85 -3.75L18.15 -3.25M15.5,-8.2Q13.7 -7.8 11.9 -6.4M18.75,-6.65Q16.95 -6.25 15.15 -4.85M14.75,-2.3Q13.3 -2 11.85 -1L11.15 -0.5M5.95,-13.05Q4.15 -12.65 2.35 -11.25M11.75,-3.9Q9.95 -3.5 8.15 -2.1M27.95,-1.8Q26.3 -1.4 24.65 -0.1M25,-3.5Q23.5 -3.15 21.95 -2.1L21.4 -1.7M-22.55,-5.95Q-24.35 -5.55 -26.15 -4.15M-25.8,-7.5Q-27.6 -7.1 -29.4 -5.7M-30.3,-1.95Q-32.1 -1.55 -33.9 -0.15M-33.55,-3.5Q-35.35 -3.1 -37.15 -1.7M-3.8,-17.75Q-5.6 -17.35 -7.4 -15.95M-0.55,-16.2Q-2.35 -15.8 -4.15 -14.4M-10.8,-15Q-12.6 -14.6 -14.4 -13.2M-11.8,-8.35Q-13.6 -7.95 -15.4 -6.55M-15.05,-9.95Q-16.85 -9.55 -18.65 -8.15M-16.05,-2.8Q-17.85 -2.4 -19.65 -1M-5.5,-5.1Q-7.3 -4.7 -9.1 -3.3M-2.25,-3.55L-2.9 -3.35Q-4.35 -2.9 -5.85 -1.75M-4.3,-11.85Q-6.1 -11.45 -7.9 -10.05M-1.05,-10.3Q-2.85 -9.9 -4.65 -8.5M-8.55,-6.8Q-10.35 -6.4 -12.15 -5M-7.55,-13.45Q-9.35 -13.05 -11.15 -11.65M-18.3,-11.5Q-20.1 -11.1 -21.9 -9.7M-19.3,-4.35Q-21.1 -3.95 -22.9 -2.55M-3.25,3.6Q-5.05 4 -6.85 5.4M-0.25,5.2Q-1.7 5.5 -3.15 6.5L-3.85 7M3,6.75Q1.5 7.1 -0.05 8.15L-0.6 8.55M-4.75,10.75Q-6.25 11.1 -7.8 12.15L-8.35 12.55M-6.5,2.05Q-8.3 2.45 -10.1 3.85M-14.25,6.05Q-16.05 6.45 -17.85 7.85M-17.5,4.45L-18.15 4.65Q-19.6 5.1 -21.1 6.25M-9.75,0.45L-10.4 0.65Q-11.85 1.1 -13.35 2.25M-8,9.2Q-9.45 9.5 -10.9 10.5L-11.6 11M-11,7.6Q-12.8 8 -14.6 9.4M-12.5,15Q-14 15.35 -15.55 16.4L-16.1 16.8M-15.75,13.45Q-17.2 13.75 -18.65 14.75L-19.35 15.25M-13.75,22.4Q-15.5 22.8 -17.3 24.15M-1.8,12.45Q-3.45 12.85 -5.1 14.15M-6,18.15Q-7.75 18.55 -9.55 19.9M-2.95,19.85Q-4.75 20.25 -6.55 21.65M-9.55,16.7Q-11.2 17.1 -12.85 18.4M-23.8,1.2Q-25.6 1.6 -27.4 3M-20.75,2.9Q-22.55 3.3 -24.35 4.7M-25.25,8.7L-25.9 8.9Q-27.35 9.35 -28.85 10.5M-22,10.3Q-23.8 10.7 -25.6 12.1M-34.8,3.9Q-36.6 4.3 -38.4 5.7M-31.55,5.45Q-33.35 5.85 -35.15 7.25M-33,12.95L-33.65 13.15Q-35.1 13.6 -36.6 14.75M-31.5,21.45Q-32.95 21.75 -34.4 22.75L-35.1 23.25M-34.5,19.85Q-36.3 20.25 -38.1 21.65M-23.5,17.7Q-24.95 18 -26.4 19L-27.1 19.5M-20.25,19.25Q-21.75 19.6 -23.3 20.65L-23.85 21.05M-26.5,16.1Q-28.3 16.5 -30.1 17.9M-29.75,14.55Q-31.55 14.95 -33.35 16.35M-28.5,7.15Q-30.3 7.55 -32.1 8.95M-28.25,23Q-29.75 23.35 -31.3 24.4L-31.85 24.8M-36.25,11.4Q-38.05 11.8 -39.85 13.2M-35.8,46.1Q-37.4 46.55 -39 47.8M-21.75,26.15Q-23.5 26.55 -25.3 27.9M-25.65,31.55Q-27.45 31.95 -29.25 33.35M-22.4,33.1Q-24.2 33.5 -26 34.9M-35.2,26.7Q-36.7 27.05 -38.25 28.1L-38.8 28.5M-32.25,28.4Q-33.9 28.8 -35.55 30.1M-28.7,29.85Q-30.45 30.25 -32.25 31.6M-1.35,28.9Q-2.95 29.35 -4.55 30.6M-4.2,27.25Q-5.9 27.65 -7.6 28.9M-5.65,34.35Q-7.45 34.75 -9.25 36.15M-15.45,29.4Q-17.25 29.8 -19.05 31.2M-12.2,31Q-13.9 31.4 -15.6 32.65M-12.6,38.05Q-14.4 38.45 -16.2 39.85M-6.35,41.2L-6.85 41.35Q-8.05 41.7 -9.25 42.5L-9.95 43M-3.1,42.75Q-4.9 43.15 -6.7 44.55M-0.15,44.45Q-1.8 44.85 -3.45 46.15M0.6,37.5L0.1 37.65Q-1.1 38 -2.3 38.8L-3 39.3M-16.3,36.35Q-17.9 36.8 -19.5 38.05M-2.4,35.9Q-4.2 36.3 -6 37.7M-9.35,39.6Q-11.15 40 -12.95 41.4M-9.35,32.65Q-10.95 33.1 -12.55 34.35M-7.45,25.65Q-9.25 26.05 -11.05 27.45M-25.3,24.7Q-26.95 25.1 -28.6 26.4M-10.7,24.1Q-12.5 24.5 -14.3 25.9M-19.15,34.7Q-20.85 35.1 -22.55 36.35M-18.7,27.85Q-20.5 28.25 -22.3 29.65M-17.3,20.95Q-18.95 21.35 -20.6 22.65M-18.75,11.85Q-20.55 12.25 -22.35 13.65M-45.8,6.55Q-47.6 6.95 -49.4 8.35M-41.3,0.75Q-43.1 1.15 -44.9 2.55M-42.55,8.15Q-44.35 8.55 -46.15 9.95M-53.8,10.3Q-55.6 10.7 -57.4 12.1M-57.05,8.75Q-58.85 9.15 -60.65 10.55M-54.25,17.15Q-56.05 17.55 -57.85 18.95M-51.2,18.85Q-53 19.25 -54.8 20.65M-47.95,20.4L-48.6 20.6Q-50.05 21.05 -51.55 22.2M-41,16.7L-41.65 16.9Q-43.1 17.35 -44.6 18.5M-44.7,22Q-46.5 22.4 -48.3 23.8M-44.25,15.15Q-46.05 15.55 -47.85 16.95M-50.55,11.9Q-52.35 12.3 -54.15 13.7M-47.3,13.45Q-49.1 13.85 -50.9 15.25M-49.05,5Q-50.85 5.4 -52.65 6.8M-64,12.45Q-65.8 12.85 -67.6 14.25M-60.95,33.3Q-62.75 33.7 -64.55 35.1M-57.95,34.9Q-59.4 35.2 -60.85 36.2L-61.55 36.7M-64.2,31.75Q-66 32.15 -67.8 33.55M-67.45,30.15L-68.1 30.35Q-69.55 30.8 -71.05 31.95M-73.75,26.9Q-75.55 27.3 -77.35 28.7M-77,25.35Q-78.8 25.75 -80.6 27.15M-74.45,32.9L-75.1 33.1Q-76.55 33.55 -78.05 34.7M-71.2,34.5Q-73 34.9 -74.8 36.3M-69.2,42.7Q-70.7 43.05 -72.25 44.1L-72.8 44.5M-72.45,41.15Q-73.9 41.45 -75.35 42.45L-76.05 42.95M-75.45,39.55Q-77.25 39.95 -79.05 41.35M-76.7,46.7Q-78.2 47.05 -79.75 48.1L-80.3 48.5M-61.7,39.2Q-63.2 39.55 -64.75 40.6L-65.3 41M-62.7,45.85Q-64.45 46.25 -66.25 47.6M-66.25,44.4Q-67.9 44.8 -69.55 46.1M-64.95,37.65Q-66.4 37.95 -67.85 38.95L-68.55 39.45M-67.95,36.05Q-69.75 36.45 -71.55 37.85M-70.7,28.6Q-72.5 29 -74.3 30.4M-38.45,25.15Q-39.9 25.45 -41.35 26.45L-42.05 26.95M-52.15,44.05Q-53.95 44.45 -55.75 45.85M-55.2,42.35Q-56.95 42.75 -58.75 44.1M-51.75,38.15Q-53.4 38.55 -55.05 39.85M-54.7,36.45Q-56.2 36.8 -57.75 37.85L-58.3 38.25M-41.9,42.85Q-43.7 43.25 -45.5 44.65M-45.65,47.2Q-47.35 47.6 -49.05 48.85M-45.15,41.3Q-46.95 41.7 -48.75 43.1M-48.2,39.6Q-49.95 40 -51.75 41.35M-48.9,45.6Q-50.7 46 -52.5 47.4M-58.75,40.9Q-60.4 41.3 -62.05 42.6M-59.65,47.55Q-61.45 47.95 -63.25 49.35M-60.75,14Q-62.55 14.4 -64.35 15.8M-41.45,23.55Q-43.25 23.95 -45.05 25.35M-57.5,15.6Q-59.3 16 -61.1 17.4M-46.6,54.05Q-48.4 54.45 -50.2 55.85M-40.35,57.2L-40.85 57.35Q-42.05 57.7 -43.25 58.5L-43.95 59M-43.35,55.6Q-45.15 56 -46.95 57.4M-47.85,61.2L-48.35 61.35Q-49.55 61.7 -50.75 62.5L-51.45 63M-53.15,50.7Q-54.85 51.1 -56.55 52.35M-54.1,58.05Q-55.9 58.45 -57.7 59.85M-50.85,59.6Q-52.65 60 -54.45 61.4M-55.6,65.2L-56.1 65.35Q-57.3 65.7 -58.5 66.5L-59.2 67M-52.35,66.75Q-54.15 67.15 -55.95 68.55M-42.8,71.6Q-44.6 72 -46.4 73.4M-45.85,69.9Q-47.6 70.3 -49.4 71.65M-41.65,64.45Q-43.3 64.85 -44.95 66.15M-44.6,62.75Q-46.4 63.15 -48.2 64.55M-49.4,68.45Q-51.05 68.85 -52.7 70.15M-50.3,52.35Q-51.9 52.8 -53.5 54.05M-63.9,53.1Q-65.7 53.5 -67.5 54.9M-67.15,51.55Q-68.95 51.95 -70.75 53.35M-71.65,57.1Q-73.45 57.5 -75.25 58.9M-74.9,55.55Q-76.7 55.95 -78.5 57.35M-76.15,62.95Q-77.85 63.35 -79.55 64.6M-77.35,70.55Q-79.15 70.95 -80.95 72.35M-73.3,64.6Q-74.9 65.05 -76.5 66.3M-74.1,72.1Q-75.9 72.5 -77.7 73.9M-71.1,73.7L-71.6 73.85Q-72.8 74.2 -74 75L-74.7 75.5M-63.35,69.45L-63.85 69.6Q-65.05 69.95 -66.25 70.75L-66.95 71.25M-66.35,67.85Q-68.15 68.25 -69.95 69.65M-61.85,62.05Q-63.65 62.45 -65.45 63.85M-69.6,66.3Q-71.4 66.7 -73.2 68.1M-68.4,58.7Q-70.1 59.1 -71.8 60.35M-65.55,60.35Q-67.15 60.8 -68.75 62.05M-70.2,49.85Q-71.95 50.25 -73.75 51.6M-64.9,76.95Q-66.55 77.35 -68.2 78.65M-66.3,83.85Q-68.1 84.25 -69.9 85.65M-61.35,78.4Q-63.1 78.8 -64.9 80.15M-72.9,80.7Q-74.55 81.1 -76.2 82.4M-79.1,77.45L-79.6 77.6Q-80.8 77.95 -82 78.75L-82.7 79.25M-75.85,79Q-77.65 79.4 -79.45 80.8M-73.25,87.55Q-75.05 87.95 -76.85 89.35M-63.85,92.4Q-65.65 92.8 -67.45 94.2M-67.85,75.25Q-69.65 75.65 -71.45 77.05M-76.3,85.85Q-78.05 86.25 -79.85 87.6M-70,89.1Q-71.8 89.5 -73.6 90.9M-69.35,82.15Q-71.1 82.55 -72.9 83.9M-63.05,85.4Q-64.85 85.8 -66.65 87.2M-41.15,80.7Q-42.95 81.1 -44.75 82.5M-55.05,81.65Q-56.85 82.05 -58.65 83.45M-56.9,88.7Q-58.7 89.1 -60.5 90.5M-53.65,90.25Q-55.45 90.65 -57.25 92.05M-54.1,97.1Q-55.9 97.5 -57.7 98.9M-42.4,88.1Q-44.2 88.5 -46 89.9M-40.85,96.65L-41.5 96.85Q-42.95 97.3 -44.45 98.45M-44.1,95.1Q-45.9 95.5 -47.7 96.9M-50.4,91.85Q-52.2 92.25 -54 93.65M-47.15,93.4Q-48.95 93.8 -50.75 95.2M-45.65,86.5Q-47.45 86.9 -49.25 88.3M-48.9,84.95Q-50.7 85.35 -52.5 86.75M-47.3,77.4Q-49.1 77.8 -50.9 79.2M-50.55,75.85Q-52.35 76.25 -54.15 77.65M-60.6,93.95Q-62.4 94.35 -64.2 95.75M-57.35,95.55Q-59.15 95.95 -60.95 97.35M-58.3,80.1Q-60.1 80.5 -61.9 81.9M-57.15,72.7Q-58.8 73.1 -60.45 74.4M-58.6,63.6Q-60.4 64 -62.2 65.4M-57.8,56.35Q-59.4 56.8 -61 58.05M-53.6,74.15Q-55.35 74.55 -57.15 75.9M-60.1,71Q-61.9 71.4 -63.7 72.8M-60.65,54.7Q-62.35 55.1 -64.05 56.35M-16.1,55.65Q-17.85 56.05 -19.65 57.4M-13.05,57.35Q-14.85 57.75 -16.65 59.15M-10.65,64.95Q-12.45 65.35 -14.25 66.75M-11.65,71.6Q-13.45 72 -15.25 73.4M-14.9,70Q-16.7 70.4 -18.5 71.8M-0.9,69.65Q-2.7 70.05 -4.5 71.45M-4.15,68.1Q-5.95 68.5 -7.75 69.9M-3.65,62.2L-4.8 62.6Q-6.05 63.05 -7.25 64M-0.4,63.75Q-2.2 64.15 -4 65.55M-7.4,66.5Q-9.2 66.9 -11 68.3M-9.8,58.9Q-11.6 59.3 -13.4 60.7M-23.1,58.4Q-24.85 58.8 -26.65 60.15M-26.65,56.95Q-28.3 57.35 -29.95 58.65M-25.85,50.95L-26.35 51.1Q-27.55 51.45 -28.75 52.25L-29.45 52.75M-22.6,52.5Q-24.4 52.9 -26.2 54.3M-32.85,53.7L-33.35 53.85Q-34.55 54.2 -35.75 55L-36.45 55.5M-35.85,52.1Q-37.65 52.5 -39.45 53.9M-31.8,69.15Q-33.6 69.55 -35.4 70.95M-35.05,67.6Q-36.85 68 -38.65 69.4M-30.6,61.9Q-32.35 62.3 -34.15 63.65M-24.3,65.15Q-26.1 65.55 -27.9 66.95M-27.55,63.6Q-29.35 64 -31.15 65.4M-34.15,60.45Q-35.8 60.85 -37.45 62.15M-29.6,55.25Q-31.4 55.65 -33.2 57.05M-23.65,81.15Q-25.45 81.55 -27.25 82.95M-20.6,82.85Q-22.4 83.25 -24.2 84.65M-34.65,83.85Q-36.45 84.25 -38.25 85.65M-33.4,76.45Q-35.2 76.85 -37 78.25M-36.1,91.35Q-37.9 91.75 -39.7 93.15M-32.85,92.9L-33.5 93.1Q-34.95 93.55 -36.45 94.7M-23.35,97.65Q-24.8 97.95 -26.25 98.95L-26.95 99.45M-21.85,90.25Q-23.65 90.65 -25.45 92.05M-26.35,96.05Q-28.15 96.45 -29.95 97.85M-25.1,88.65L-25.75 88.85Q-27.2 89.3 -28.7 90.45M-29.6,94.5Q-31.4 94.9 -33.2 96.3M-28.35,87.1Q-30.15 87.5 -31.95 88.9M-31.4,85.4Q-33.2 85.8 -35 87.2M-30.15,78Q-31.95 78.4 -33.75 79.8M-26.9,79.6Q-28.7 80 -30.5 81.4M-2.1,76.4L-2.75 76.6Q-4.2 77.05 -5.7 78.2M-5.35,74.85Q-7.15 75.25 -8.95 76.65M-3.1,83.55Q-4.9 83.95 -6.7 85.35M-6.35,82Q-8.15 82.4 -9.95 83.8M-0.1,85.15Q-1.55 85.45 -3 86.45L-3.7 86.95M-9.6,80.4L-10.25 80.6Q-11.7 81.05 -13.2 82.2M-15.9,77.15Q-17.7 77.55 -19.5 78.95M-12.85,78.85Q-14.65 79.25 -16.45 80.65M-17.35,84.4L-18 84.6Q-19.45 85.05 -20.95 86.2M-15.6,93.4Q-17.05 93.7 -18.5 94.7L-19.2 95.2M-12.35,94.95Q-13.85 95.3 -15.4 96.35L-15.95 96.75M-7.85,89.15Q-9.3 89.45 -10.75 90.45L-11.45 90.95M-10.85,87.55Q-12.65 87.95 -14.45 89.35M-4.6,90.7Q-6.1 91.05 -7.65 92.1L-8.2 92.5M-1.65,92.4Q-3.3 92.8 -4.95 94.1M-9.4,96.65Q-11.05 97.05 -12.7 98.35M-14.1,86Q-15.9 86.4 -17.7 87.8M-18.6,91.8Q-20.4 92.2 -22.2 93.6M-18.15,68.45Q-19.95 68.85 -21.75 70.25M-19.15,75.6Q-20.95 76 -22.75 77.4M-8.4,73.15Q-10.2 73.55 -12 74.95M-22.4,74Q-24.2 74.4 -26 75.8M-25.65,72.45Q-27.45 72.85 -29.25 74.25M-16.8,61.65Q-18.6 62.05 -20.4 63.45M-19.65,54.2Q-21.3 54.6 -22.95 55.9M-20.05,60.1Q-21.85 60.5 -23.65 61.9M-39.15,89.65Q-40.95 90.05 -42.75 91.45M-37.9,82.25Q-39.7 82.65 -41.5 84.05M-38.65,44.45Q-40.35 44.85 -42.05 46.1M-39.1,50.55Q-40.9 50.95 -42.7 52.35M-37.1,58.75Q-38.9 59.15 -40.7 60.55M-38.1,65.9Q-39.85 66.3 -41.65 67.65M-56.4,49.1Q-58.2 49.5 -60 50.9M-39.55,73.15Q-41.35 73.55 -43.15 74.95M-73.75,48.4Q-75.4 48.8 -77.05 50.1M-42.8,48.85Q-44.4 49.3 -46 50.55M-28.85,49.35Q-30.65 49.75 -32.45 51.15M-32.1,47.8Q-33.9 48.2 -35.7 49.6M-37.75,18.3Q-39.55 18.7 -41.35 20.1M-39.3,9.7Q-41.1 10.1 -42.9 11.5M-38.05,2.3Q-39.85 2.7 -41.65 4.1M-83.5,22.2Q-85.3 22.6 -87.1 24M-105.5,32.45Q-107.3 32.85 -109.1 34.25M-102.25,34Q-104.05 34.4 -105.85 35.8M-117.75,42.25Q-119.55 42.65 -121.35 44.05M-114.5,43.85Q-116.3 44.25 -118.1 45.65M-104.95,48.65L-105.6 48.85Q-107.05 49.3 -108.55 50.45M-106.75,39.6Q-108.55 40 -110.35 41.4M-103.5,41.15Q-105.3 41.55 -107.1 42.95M-110,38Q-111.8 38.4 -113.6 39.8M-113.25,36.45Q-115.05 36.85 -116.85 38.25M-111.25,45.4Q-113.05 45.8 -114.85 47.2M-108.2,47.1Q-110 47.5 -111.8 48.9M-81.95,36.4L-82.6 36.6Q-84.05 37.05 -85.55 38.2M-85.2,34.85Q-87 35.25 -88.8 36.65M-84,28.1Q-85.8 28.5 -87.6 29.9M-87.25,26.5Q-89.05 26.9 -90.85 28.3M-94.75,30Q-96.55 30.4 -98.35 31.8M-91.5,31.6Q-93.3 32 -95.1 33.4M-93.95,46Q-95.75 46.4 -97.55 47.8M-95.75,37.15Q-97.55 37.55 -99.35 38.95M-92.7,38.85Q-94.5 39.25 -96.3 40.65M-97.2,44.4L-97.85 44.6Q-99.3 45.05 -100.8 46.2M-79.95,45.15Q-81.4 45.45 -82.85 46.45L-83.55 46.95M-82.95,43.55Q-84.75 43.95 -86.55 45.35M-89.45,40.4L-90.1 40.6Q-91.55 41.05 -93.05 42.2M-86.2,42Q-88 42.4 -89.8 43.8M-90.7,47.55Q-92.5 47.95 -94.3 49.35M-88.25,33.15Q-90.05 33.55 -91.85 34.95M-90.5,24.95Q-92.3 25.35 -94.1 26.75M-100.45,42.85Q-102.25 43.25 -104.05 44.65M-99,35.6Q-100.8 36 -102.6 37.4M-98,28.45Q-99.8 28.85 -101.6 30.25M-128.75,44.95Q-130.55 45.35 -132.35 46.75M-125.5,46.5Q-127.3 46.9 -129.1 48.3M-123.95,55.1Q-125.75 55.5 -127.55 56.9M-127,53.4Q-128.8 53.8 -130.6 55.2M-127.65,60.35L-128.3 60.55Q-129.75 61 -131.25 62.15M-133.95,57.1Q-135.75 57.5 -137.55 58.9M-137.2,55.55Q-139 55.95 -140.8 57.35M-133.5,50.25Q-135.3 50.65 -137.1 52.05M-124.4,61.95Q-126.2 62.35 -128 63.75M-130.9,58.8Q-132.7 59.2 -134.5 60.6M-130.25,51.85Q-132.05 52.25 -133.85 53.65M-143.7,52.4Q-145.5 52.8 -147.3 54.2M-157.65,71.4Q-159.45 71.8 -161.25 73.2M-156.95,65.4Q-158.75 65.8 -160.55 67.2M-153.7,66.95Q-155.5 67.35 -157.3 68.75M-154.4,72.95L-155.05 73.15Q-156.5 73.6 -158 74.75M-147.4,70.2L-148.05 70.4Q-149.5 70.85 -151 72M-144.15,71.8Q-145.95 72.2 -147.75 73.6M-150.65,68.65Q-152.45 69.05 -154.25 70.45M-144.9,77.7Q-146.35 78 -147.8 79L-148.5 79.5M-147.9,76.1Q-149.7 76.5 -151.5 77.9M-141.65,79.25Q-143.15 79.6 -144.7 80.65L-145.25 81.05M-146.2,84.45Q-147.85 84.85 -149.5 86.15M-149.15,82.75Q-150.65 83.1 -152.2 84.15L-152.75 84.55M-152.4,81.2Q-153.85 81.5 -155.3 82.5L-156 83M-155.4,79.6Q-157.2 80 -159 81.4M-154.85,95.6Q-156.65 96 -158.45 97.4M-157.9,93.9Q-159.65 94.3 -161.45 95.65M-156.65,86.75Q-158.15 87.1 -159.7 88.15L-160.25 88.55M-153.7,88.45Q-155.35 88.85 -157 90.15M-143.85,93.15Q-145.65 93.55 -147.45 94.95M-147.1,91.6Q-148.9 92 -150.7 93.4M-151.6,97.15Q-153.4 97.55 -155.2 98.95M-150.15,89.9Q-151.9 90.3 -153.7 91.65M-142.65,85.9Q-144.4 86.3 -146.2 87.65M-151.15,74.55Q-152.95 74.95 -154.75 76.35M-125.1,81.35Q-126.9 81.75 -128.7 83.15M-121.85,82.9Q-123.65 83.3 -125.45 84.7M-137.9,74.95Q-139.35 75.25 -140.8 76.25L-141.5 76.75M-131.7,78.2Q-133.35 78.6 -135 79.9M-134.65,76.5Q-136.15 76.85 -137.7 77.9L-138.25 78.3M-135.15,82.4Q-136.9 82.8 -138.7 84.15M-132.1,84.1Q-133.9 84.5 -135.7 85.9M-133.1,90.75Q-134.8 91.15 -136.5 92.4M-137.75,96.4Q-139.35 96.85 -140.95 98.1M-136.35,89.15Q-138.15 89.55 -139.95 90.95M-123.3,95.65Q-125.1 96.05 -126.9 97.45M-126.55,94.1Q-128.35 94.5 -130.15 95.9M-125.6,87.25Q-127.3 87.65 -129 88.9M-122.75,88.9Q-124.35 89.35 -125.95 90.6M-130.25,92.4Q-131.85 92.85 -133.45 94.1M-128.85,85.65Q-130.65 86.05 -132.45 87.45M-128.15,79.65Q-129.9 80.05 -131.7 81.4M-138.7,80.95Q-140.35 81.35 -142 82.65M-140.6,94.75Q-142.3 95.15 -144 96.4M-139.6,87.6Q-141.4 88 -143.2 89.4M-140.9,73.35Q-142.7 73.75 -144.5 75.15M-140.45,53.95Q-142.25 54.35 -144.05 55.75M-84.45,50.7Q-85.95 51.05 -87.5 52.1L-88.05 52.5M-81.5,52.4Q-83.15 52.8 -84.8 54.1M-85.7,58.1Q-87.45 58.5 -89.25 59.85M-82.65,59.8Q-84.45 60.2 -86.25 61.6M-95.45,53.4Q-96.9 53.7 -98.35 54.7L-99.05 55.2M-92.2,54.95Q-93.7 55.3 -95.25 56.35L-95.8 56.75M-91.9,70.95Q-93.6 71.35 -95.3 72.6M-95.15,69.35Q-96.95 69.75 -98.75 71.15M-93.45,62.35Q-95.2 62.75 -97 64.1M-81.05,68.85Q-82.65 69.3 -84.25 70.55M-83.9,67.2Q-85.6 67.6 -87.3 68.85M-87.15,65.6Q-88.95 66 -90.75 67.4M-89.25,56.65Q-90.9 57.05 -92.55 58.35M-90.4,64.05Q-92.2 64.45 -94 65.85M-97,60.9Q-98.65 61.3 -100.3 62.6M-87.7,49.15Q-89.15 49.45 -90.6 50.45L-91.3 50.95M-101.7,50.25Q-103.5 50.65 -105.3 52.05M-103.2,57.65Q-104.65 57.95 -106.1 58.95L-106.8 59.45M-99.95,59.2Q-101.45 59.55 -103 60.6L-103.55 61M-106.2,56.05Q-108 56.45 -109.8 57.85M-112.7,52.9L-113.35 53.1Q-114.8 53.55 -116.3 54.7M-115.95,51.35Q-117.75 51.75 -119.55 53.15M-114.2,59.8Q-116 60.2 -117.8 61.6M-117.45,58.25Q-119.25 58.65 -121.05 60.05M-120.7,56.65L-121.35 56.85Q-122.8 57.3 -124.3 58.45M-114.9,66.65Q-116.4 67 -117.95 68.05L-118.5 68.45M-118.15,65.1Q-119.6 65.4 -121.05 66.4L-121.75 66.9M-111.95,68.35Q-113.6 68.75 -115.25 70.05M-111.2,61.4Q-112.65 61.7 -114.1 62.7L-114.8 63.2M-105.35,71.5Q-107.15 71.9 -108.95 73.3M-101.45,66.1Q-103.2 66.5 -105 67.85M-105,64.65Q-106.65 65.05 -108.3 66.35M-107.95,62.95Q-109.45 63.3 -111 64.35L-111.55 64.75M-108.4,69.8Q-110.15 70.2 -111.95 71.55M-109.45,54.5Q-111.25 54.9 -113.05 56.3M-112.8,93.75L-113.3 93.9Q-114.5 94.25 -115.7 95.05L-116.4 95.55M-115.8,92.15Q-117.6 92.55 -119.4 93.95M-120.3,97.25L-120.8 97.4Q-122 97.75 -123.2 98.55L-123.9 99.05M-112.05,87.85Q-113.85 88.25 -115.65 89.65M-106.6,97Q-108.25 97.4 -109.9 98.7M-102.55,92.55Q-104.35 92.95 -106.15 94.35M-105.8,91L-106.3 91.15Q-107.5 91.5 -108.7 92.3L-109.4 92.8M-108.8,89.4Q-110.6 89.8 -112.4 91.2M-109.55,95.3Q-111.35 95.7 -113.15 97.1M-115.75,86.15Q-117.35 86.6 -118.95 87.85M-85.35,74.3Q-87.15 74.7 -88.95 76.1M-82.1,75.85Q-83.9 76.25 -85.7 77.65M-86.05,81.15L-86.55 81.3Q-87.75 81.65 -88.95 82.45L-89.65 82.95M-82.8,82.7Q-84.6 83.1 -86.4 84.5M-96,76.3Q-97.6 76.75 -99.2 78M-92.3,78Q-94.1 78.4 -95.9 79.8M-96.05,95.7Q-97.8 96.1 -99.6 97.45M-89.05,79.55Q-90.85 79.95 -92.65 81.35M-99.6,94.25Q-101.25 94.65 -102.9 95.95M-98.4,67.8Q-100.2 68.2 -102 69.6M-98.85,74.65Q-100.55 75.05 -102.25 76.3M-98.45,51.8Q-100.25 52.2 -102.05 53.6M-89.05,72.6Q-90.65 73.05 -92.25 74.3M-102.1,73.05Q-103.9 73.45 -105.7 74.85M-119.05,90.6Q-120.85 91 -122.65 92.4M-118.6,84.5Q-120.3 84.9 -122 86.15M-119,49.65Q-120.8 50.05 -122.6 51.45M-121.15,63.5Q-122.95 63.9 -124.75 65.3M-136.75,48.7Q-138.55 49.1 -140.35 50.5M-122.25,48.1Q-124.05 48.5 -125.85 49.9M-121,40.7Q-122.8 41.1 -124.6 42.5M-83.6,102.25L-84.75 102.65Q-86 103.1 -87.2 104.05M-87.35,106.55Q-89.15 106.95 -90.95 108.35M-84.1,108.15Q-85.9 108.55 -87.7 109.95M-96.75,101.7Q-98.55 102.1 -100.35 103.5M-95.85,117.2Q-97.65 117.6 -99.45 119M-92.8,118.9Q-94.6 119.3 -96.4 120.7M-91.6,111.65Q-93.4 112.05 -95.2 113.45M-82.05,116.45L-82.7 116.65Q-84.15 117.1 -85.65 118.25M-89.55,120.45L-90.2 120.65Q-91.65 121.1 -93.15 122.25M-85.3,114.9Q-87.1 115.3 -88.9 116.7M-88.35,113.2Q-90.15 113.6 -91.95 115M-94.85,110.05Q-96.65 110.45 -98.45 111.85M-90.6,105Q-92.4 105.4 -94.2 106.8M-104.25,105.2Q-106.05 105.6 -107.85 107M-107.5,103.65Q-109.3 104.05 -111.1 105.45M-114.1,100.5Q-115.75 100.9 -117.4 102.2M-111.75,109.2Q-113.55 109.6 -115.35 111M-115,107.65Q-116.8 108.05 -118.6 109.45M-113.35,116.5Q-115.15 116.9 -116.95 118.3M-106.85,119.65Q-108.65 120.05 -110.45 121.45M-103.6,121.2Q-105.4 121.6 -107.2 123M-102.35,114.05Q-104.15 114.45 -105.95 115.85M-105.6,112.5Q-107.4 112.9 -109.2 114.3M-110.1,118.05Q-111.9 118.45 -113.7 119.85M-110.55,101.95Q-112.3 102.35 -114.1 103.7M-105.05,128.7L-105.7 128.9Q-107.15 129.35 -108.65 130.5M-101.8,130.3Q-103.6 130.7 -105.4 132.1M-114.6,123.9Q-116.4 124.3 -118.2 125.7M-112.8,132.95L-113.45 133.15Q-114.9 133.6 -116.4 134.75M-116.05,131.4Q-117.85 131.8 -119.65 133.2M-111.3,141.45Q-112.75 141.75 -114.2 142.75L-114.9 143.25M-114.3,139.85Q-116.1 140.25 -117.9 141.65M-118.25,145.15Q-119.7 145.45 -121.15 146.45L-121.85 146.95M-115,146.7Q-116.5 147.05 -118.05 148.1L-118.6 148.5M-117.55,138.3Q-119.35 138.7 -121.15 140.1M-120.8,136.7L-121.45 136.9Q-122.9 137.35 -124.4 138.5M-105.1,144.7Q-106.75 145.1 -108.4 146.4M-101.55,146.15Q-103.3 146.55 -105.1 147.9M-103.3,137.7Q-104.75 138 -106.2 139L-106.9 139.5M-108.05,143Q-109.55 143.35 -111.1 144.4L-111.65 144.8M-100.05,139.25Q-101.55 139.6 -103.1 140.65L-103.65 141.05M-111.35,125.45Q-113.15 125.85 -114.95 127.25M-109.55,134.55Q-111.35 134.95 -113.15 136.35M-108.3,127.15Q-110.1 127.55 -111.9 128.95M-106.3,136.1Q-108.1 136.5 -109.9 137.9M-87.8,129.2Q-89.25 129.5 -90.7 130.5L-91.4 131M-84.55,130.75Q-86.05 131.1 -87.6 132.15L-88.15 132.55M-81.6,132.45Q-83.25 132.85 -84.9 134.15M-80.05,125.2Q-81.5 125.5 -82.95 126.5L-83.65 127M-94.05,126.05Q-95.85 126.45 -97.65 127.85M-97.3,124.45L-97.95 124.65Q-99.4 125.1 -100.9 126.25M-95.55,133.45Q-97 133.75 -98.45 134.75L-99.15 135.25M-93.55,142.4Q-95.3 142.8 -97.1 144.15M-97.1,140.95Q-98.75 141.35 -100.4 142.65M-92.3,135Q-93.8 135.35 -95.35 136.4L-95.9 136.8M-82.75,139.85Q-84.55 140.25 -86.35 141.65M-87.25,145.65Q-89.05 146.05 -90.85 147.45M-85.8,138.15Q-87.55 138.55 -89.35 139.9M-90.8,127.6Q-92.6 128 -94.4 129.4M-90.5,144.1Q-92.3 144.5 -94.1 145.9M-89.35,136.7Q-91 137.1 -92.65 138.4M-99.1,115.65Q-100.9 116.05 -102.7 117.45M-100.55,122.9Q-102.35 123.3 -104.15 124.7M-98.55,131.85Q-100.35 132.25 -102.15 133.65M-86.3,122.05Q-88.1 122.45 -89.9 123.85M-83.05,123.6Q-84.85 124 -86.65 125.4M-117.85,122.3Q-119.65 122.7 -121.45 124.1M-98.1,108.5Q-99.9 108.9 -101.7 110.3M-100,100.15Q-101.8 100.55 -103.6 101.95M-121.6,104.5Q-123.25 104.9 -124.9 106.2M-127.8,101.25L-128.3 101.4Q-129.5 101.75 -130.7 102.55L-131.4 103.05M-124.55,102.8Q-126.35 103.2 -128.15 104.6M-135.55,105.25L-136.05 105.4Q-137.25 105.75 -138.45 106.55L-139.15 107.05M-132.3,106.8Q-134.1 107.2 -135.9 108.6M-133.55,114.2Q-135.3 114.6 -137.1 115.95M-135,121.7Q-136.8 122.1 -138.6 123.5M-137.1,112.75Q-138.75 113.15 -140.4 114.45M-127.25,117.45Q-129.05 117.85 -130.85 119.25M-122.75,111.65Q-124.55 112.05 -126.35 113.45M-130.5,115.9Q-132.3 116.3 -134.1 117.7M-125.8,109.95Q-127.55 110.35 -129.35 111.7M-129.35,108.5Q-131 108.9 -132.65 110.2M-130.8,99.65Q-132.6 100.05 -134.4 101.45M-145.5,100.4Q-147.1 100.85 -148.7 102.1M-141.8,102.1Q-143.6 102.5 -145.4 103.9M-143.3,109.5L-143.8 109.65Q-145 110 -146.2 110.8L-146.9 111.3M-146.3,107.9Q-148.1 108.3 -149.9 109.7M-156.1,103Q-157.8 103.4 -159.5 104.65M-153.25,104.65Q-154.85 105.1 -156.45 106.35M-152.85,120.75Q-154.5 121.15 -156.15 122.45M-159.05,117.5L-159.55 117.65Q-160.75 118 -161.95 118.8L-162.65 119.3M-155.8,119.05Q-157.6 119.45 -159.4 120.85M-151.05,113.75L-151.55 113.9Q-152.75 114.25 -153.95 115.05L-154.65 115.55M-154.05,112.15Q-155.85 112.55 -157.65 113.95M-144.85,117Q-146.5 117.4 -148.15 118.7M-147.8,115.3Q-149.6 115.7 -151.4 117.1M-157.3,110.6Q-159.1 111 -160.9 112.4M-149.55,106.35Q-151.35 106.75 -153.15 108.15M-143.8,132.45Q-145.6 132.85 -147.4 134.25M-143,125.45Q-144.8 125.85 -146.6 127.25M-146.25,123.9Q-148.05 124.3 -149.85 125.7M-153.2,127.6Q-155 128 -156.8 129.4M-156.25,125.9Q-158 126.3 -159.8 127.65M-149.95,129.15Q-151.75 129.55 -153.55 130.95M-122.35,128.15Q-124.15 128.55 -125.95 129.95M-125.6,126.55Q-127.4 126.95 -129.2 128.35M-127.1,133.45Q-128.9 133.85 -130.7 135.25M-136.85,128.75Q-138.65 129.15 -140.45 130.55M-133.6,130.3Q-135.4 130.7 -137.2 132.1M-134.05,137.15Q-135.85 137.55 -137.65 138.95M-127.75,140.4L-128.4 140.6Q-129.85 141.05 -131.35 142.2M-124.5,142Q-126.3 142.4 -128.1 143.8M-128.85,125Q-130.65 125.4 -132.45 126.8M-130.35,131.9Q-132.15 132.3 -133.95 133.7M-131,138.85Q-132.8 139.25 -134.6 140.65M-124.05,135.15Q-125.85 135.55 -127.65 136.95M-137.3,135.6Q-139.1 136 -140.9 137.4M-140.55,134Q-142.35 134.4 -144.15 135.8M-138.25,120.15Q-140.05 120.55 -141.85 121.95M-138.55,103.65Q-140.35 104.05 -142.15 105.45M-149.3,122.2Q-151.05 122.6 -152.85 123.95M-141.3,118.45Q-143.05 118.85 -144.85 120.2M-140.05,111.05Q-141.85 111.45 -143.65 112.85M-85.45,154.35Q-87.25 154.75 -89.05 156.15M-79.2,157.5L-79.7 157.65Q-80.9 158 -82.1 158.8L-82.8 159.3M-81.15,148.9Q-82.75 149.35 -84.35 150.6M-82.2,155.9Q-84 156.3 -85.8 157.7M-92,151Q-93.7 151.4 -95.4 152.65M-92.4,158.05Q-94.2 158.45 -96 159.85M-96.1,156.35Q-97.7 156.8 -99.3 158.05M-95.25,149.4Q-97.05 149.8 -98.85 151.2M-86.15,161.2L-86.65 161.35Q-87.85 161.7 -89.05 162.5L-89.75 163M-82.9,162.75Q-84.7 163.15 -86.5 164.55M-89.15,152.65Q-90.75 153.1 -92.35 154.35M-89.15,159.6Q-90.95 160 -92.75 161.4M-105.45,151.55Q-107.25 151.95 -109.05 153.35M-108.5,149.85Q-110.25 150.25 -112.05 151.6M-102.2,153.1Q-104 153.5 -105.8 154.9M-98.95,154.7Q-100.65 155.1 -102.35 156.35M-121.25,143.55Q-123.05 143.95 -124.85 145.35M-112.05,148.4Q-113.7 148.8 -115.35 150.1M-98.5,147.85Q-100.3 148.25 -102.1 149.65M-84,147.25Q-85.7 147.65 -87.4 148.9M-121.1,120.75Q-122.9 121.15 -124.7 122.55M-119.1,129.7Q-120.9 130.1 -122.7 131.5M-118.05,105.95Q-119.8 106.35 -121.6 107.7M-119.5,113.2Q-121.3 113.6 -123.1 115M-4.05,107.2Q-5.75 107.6 -7.45 108.85M-1.2,108.85Q-2.8 109.3 -4.4 110.55M-2.8,99.8Q-4.6 100.2 -6.4 101.6M-10.55,104.05Q-12.35 104.45 -14.15 105.85M-13.6,102.35Q-15.35 102.75 -17.15 104.1M-15.3,109.35Q-17.1 109.75 -18.9 111.15M-12.45,118Q-14.25 118.4 -16.05 119.8M-16.15,116.3Q-17.75 116.75 -19.35 118M-5.5,114.3Q-7.3 114.7 -9.1 116.1M-6.2,121.15L-6.7 121.3Q-7.9 121.65 -9.1 122.45L-9.8 122.95M-2.25,115.85Q-4.05 116.25 -5.85 117.65M0.75,117.45L0.25 117.6Q-0.95 117.95 -2.15 118.75L-2.85 119.25M-9.2,119.55Q-11 119.95 -12.8 121.35M-9.2,112.6Q-10.8 113.05 -12.4 114.3M-7.3,105.6Q-9.1 106 -10.9 107.4M-12.05,110.95Q-13.75 111.35 -15.45 112.6M-20.1,99.2Q-21.6 99.55 -23.15 100.6L-23.7 101M-25.15,104.65Q-26.8 105.05 -28.45 106.35M-21.6,106.1Q-23.35 106.5 -25.15 107.85M-31.35,101.4Q-32.8 101.7 -34.25 102.7L-34.95 103.2M-28.1,102.95Q-29.6 103.3 -31.15 104.35L-31.7 104.75M-32.1,108.35Q-33.75 108.75 -35.4 110.05M-34.35,99.8Q-36.15 100.2 -37.95 101.6M-35.05,106.65Q-36.55 107 -38.1 108.05L-38.65 108.45M-25.5,111.5Q-27.3 111.9 -29.1 113.3M-22.25,113.05Q-24.05 113.45 -25.85 114.85M-28.55,109.8Q-30.3 110.2 -32.1 111.55M-22.7,132.55Q-24.5 132.95 -26.3 134.35M-25.95,131L-26.45 131.15Q-27.65 131.5 -28.85 132.3L-29.55 132.8M-32.2,127.85Q-34 128.25 -35.8 129.65M-35.95,132.15Q-37.75 132.55 -39.55 133.95M-35.9,126.15Q-37.5 126.6 -39.1 127.85M-32.95,133.75L-33.45 133.9Q-34.65 134.25 -35.85 135.05L-36.55 135.55M-30.7,141.95Q-32.45 142.35 -34.25 143.7M-34.25,140.5Q-35.9 140.9 -37.55 142.2M-23.2,138.45Q-24.95 138.85 -26.75 140.2M-24.4,145.2Q-26.2 145.6 -28 147M-26.75,137Q-28.4 137.4 -30.05 138.7M-29.7,135.3Q-31.5 135.7 -33.3 137.1M-28.95,129.4Q-30.75 129.8 -32.55 131.2M-27.65,143.65Q-29.45 144.05 -31.25 145.45M-10.8,145Q-12.6 145.4 -14.4 146.8M-13.15,137.4Q-14.95 137.8 -16.75 139.2M-0.55,143.8Q-2.35 144.2 -4.15 145.6M-3.8,142.25L-4.9 142.6Q-6.15 143.1 -7.4 144.05M-7.55,146.55Q-9.35 146.95 -11.15 148.35M-16.2,135.7Q-17.95 136.1 -19.75 137.45M-9.9,138.95Q-11.7 139.35 -13.5 140.75M-16.9,141.7Q-18.7 142.1 -20.5 143.5M-20.15,140.15Q-21.95 140.55 -23.75 141.95M-19,114.65Q-20.7 115.05 -22.4 116.3M-19.75,134.25Q-21.4 134.65 -23.05 135.95M-18.55,107.8Q-20.35 108.2 -22.15 109.6M-2.95,122.7Q-4.75 123.1 -6.55 124.5M-17.15,100.9Q-18.8 101.3 -20.45 102.6M-47.8,100.35L-48.45 100.55Q-49.9 101 -51.4 102.15M-38.3,105.1Q-39.75 105.4 -41.2 106.4L-41.9 106.9M-41.3,103.5Q-43.1 103.9 -44.9 105.3M-44.55,101.95Q-46.35 102.35 -48.15 103.75M-54.8,116.5Q-56.3 116.85 -57.85 117.9L-58.4 118.3M-51.85,118.2Q-53.5 118.6 -55.15 119.9M-45.25,121.35Q-47.05 121.75 -48.85 123.15M-48.3,119.65Q-50.05 120.05 -51.85 121.4M-67.55,110.2L-68.2 110.4Q-69.65 110.85 -71.15 112M-73.85,106.95Q-75.65 107.35 -77.45 108.75M-77.1,105.4Q-78.9 105.8 -80.7 107.2M-72.55,121.2Q-74 121.5 -75.45 122.5L-76.15 123M-75.55,119.6Q-77.35 120 -79.15 121.4M-74.55,112.95L-75.2 113.15Q-76.65 113.6 -78.15 114.75M-71.3,114.55Q-73.1 114.95 -74.9 116.35M-61.8,119.25Q-63.3 119.6 -64.85 120.65L-65.4 121.05M-61.05,113.35Q-62.85 113.75 -64.65 115.15M-58.05,114.95Q-59.5 115.25 -60.95 116.25L-61.65 116.75M-65.05,117.7Q-66.5 118 -67.95 119L-68.65 119.5M-64.3,111.8Q-66.1 112.2 -67.9 113.6M-68.05,116.1Q-69.85 116.5 -71.65 117.9M-70.8,108.65Q-72.6 109.05 -74.4 110.45M-66.35,124.45Q-68 124.85 -69.65 126.15M-64,133.15Q-65.8 133.55 -67.6 134.95M-67.25,131.6Q-69.05 132 -70.85 133.4M-62.8,125.9Q-64.55 126.3 -66.35 127.65M-69.3,122.75Q-70.8 123.1 -72.35 124.15L-72.9 124.55M-73.85,128.45Q-75.5 128.85 -77.15 130.15M-76.8,126.75Q-78.3 127.1 -79.85 128.15L-80.4 128.55M-71.75,137.15Q-73.55 137.55 -75.35 138.95M-76.25,143Q-77.95 143.4 -79.65 144.65M-73.4,144.65Q-75 145.1 -76.6 146.35M-65.65,140.4Q-67.25 140.85 -68.85 142.1M-61.95,142.1Q-63.75 142.5 -65.55 143.9M-70.3,129.9Q-72.05 130.3 -73.85 131.65M-69.7,146.35Q-71.5 146.75 -73.3 148.15M-68.5,138.75Q-70.2 139.15 -71.9 140.4M-75,135.6Q-76.8 136 -78.6 137.4M-46.7,134.1Q-48.5 134.5 -50.3 135.9M-45.75,127.25Q-47.45 127.65 -49.15 128.9M-42.9,128.9Q-44.5 129.35 -46.1 130.6M-52.25,124.1Q-54.05 124.5 -55.85 125.9M-53.25,130.75Q-54.95 131.15 -56.65 132.4M-56.5,129.15Q-58.3 129.55 -60.1 130.95M-47.95,141.25L-48.45 141.4Q-49.65 141.75 -50.85 142.55L-51.55 143.05M-55.7,145.25L-56.2 145.4Q-57.4 145.75 -58.6 146.55L-59.3 147.05M-50.95,139.65Q-52.75 140.05 -54.55 141.45M-54.2,138.1Q-56 138.5 -57.8 139.9M-40.45,137.25L-40.95 137.4Q-42.15 137.75 -43.35 138.55L-44.05 139.05M-44.7,142.8Q-46.5 143.2 -48.3 144.6M-41.75,144.5Q-43.4 144.9 -45.05 146.2M-49,125.65Q-50.8 126.05 -52.6 127.45M-50.4,132.4Q-52 132.85 -53.6 134.1M-43.45,135.65Q-45.25 136.05 -47.05 137.45M-58.7,143.65Q-60.5 144.05 -62.3 145.45M-60.75,134.75Q-62.45 135.15 -64.15 136.4M-59.75,127.6Q-61.55 128 -63.35 129.4M-58.85,120.95Q-60.5 121.35 -62.15 122.65M-57.9,136.4Q-59.5 136.85 -61.1 138.1M-55.3,122.4Q-57.05 122.8 -58.85 124.15M-42,122.9Q-43.8 123.3 -45.6 124.7M-45.95,149.95Q-47.7 150.35 -49.5 151.7M-42.9,151.65Q-44.7 152.05 -46.5 153.45M-50.65,155.9Q-52.45 156.3 -54.25 157.7M-57.25,152.75Q-58.9 153.15 -60.55 154.45M-53.7,154.2Q-55.45 154.6 -57.25 155.95M-53.8,170.3Q-55.6 170.7 -57.4 172.1M-57.05,168.75Q-58.85 169.15 -60.65 170.55M-55.15,161.7Q-56.95 162.1 -58.75 163.5M-42.55,168.15Q-44.35 168.55 -46.15 169.95M-45.8,166.55Q-47.6 166.95 -49.4 168.35M-41.3,160.75Q-43.1 161.15 -44.9 162.55M-49.05,165Q-50.85 165.4 -52.65 166.8M-47.4,157.45Q-49.2 157.85 -51 159.25M-63.45,149.5L-63.95 149.65Q-65.15 150 -66.35 150.8L-67.05 151.3M-65,157Q-66.65 157.4 -68.3 158.7M-61.45,158.45Q-63.2 158.85 -65 160.2M-71.2,153.75L-71.7 153.9Q-72.9 154.25 -74.1 155.05L-74.8 155.55M-75.95,159.05Q-77.75 159.45 -79.55 160.85M-74.2,152.15Q-76 152.55 -77.8 153.95M-73.35,167.6Q-75.15 168 -76.95 169.4M-76.4,165.9Q-78.15 166.3 -79.95 167.65M-63.15,165.45Q-64.95 165.85 -66.75 167.25M-66.4,163.9Q-68.2 164.3 -70 165.7M-69.45,162.2Q-71.2 162.6 -73 163.95M-70.1,169.15Q-71.9 169.55 -73.7 170.95M-67.95,155.3Q-69.75 155.7 -71.55 157.1M-73,160.75Q-74.65 161.15 -76.3 162.45M-44.25,175.15Q-46.05 175.55 -47.85 176.95M-44.7,182Q-46.5 182.4 -48.3 183.8M-47.95,180.4L-48.6 180.6Q-50.05 181.05 -51.55 182.2M-41.45,183.55Q-43.25 183.95 -45.05 185.35M-41,176.7L-41.65 176.9Q-43.1 177.35 -44.6 178.5M-54.25,177.15Q-56.05 177.55 -57.85 178.95M-51.2,178.85Q-53 179.25 -54.8 180.65M-38.45,185.15Q-39.9 185.45 -41.35 186.45L-42.05 186.95M-47.3,173.45Q-49.1 173.85 -50.9 175.25M-60.75,174Q-62.55 174.4 -64.35 175.8M-50.55,171.9Q-52.35 172.3 -54.15 173.7M-57.5,175.6Q-59.3 176 -61.1 177.4M-64,172.45Q-65.8 172.85 -67.6 174.25M-58.4,160.15Q-60.2 160.55 -62 161.95M-60.2,151.05Q-62 151.45 -63.8 152.85M-5.5,154.9Q-7.3 155.3 -9.1 156.7M-2.25,156.45L-2.9 156.65Q-4.35 157.1 -5.85 158.25M-1.05,149.7Q-2.85 150.1 -4.65 151.5M-15.05,150.05Q-16.85 150.45 -18.65 151.85M-11.8,151.65Q-13.6 152.05 -15.4 153.45M-13,158.9Q-14.8 159.3 -16.6 160.7M-16.05,157.2Q-17.85 157.6 -19.65 159M-14.25,166.05Q-16.05 166.45 -17.85 167.85M-11,167.6Q-12.8 168 -14.6 169.4M-8,169.2Q-9.45 169.5 -10.9 170.5L-11.6 171M-17.5,164.45L-18.15 164.65Q-19.6 165.1 -21.1 166.25M-4.75,170.75Q-6.25 171.1 -7.8 172.15L-8.35 172.55M-0.25,165.2Q-1.7 165.5 -3.15 166.5L-3.85 167M-6.5,162.05Q-8.3 162.45 -10.1 163.85M-3.25,163.6Q-5.05 164 -6.85 165.4M3,166.75Q1.5 167.1 -0.05 168.15L-0.6 168.55M-9.75,160.45L-10.4 160.65Q-11.85 161.1 -13.35 162.25M-8.55,153.2Q-10.35 153.6 -12.15 155M-25.8,152.5Q-27.6 152.9 -29.4 154.3M-22.55,154.05Q-24.35 154.45 -26.15 155.85M-33.55,156.5Q-35.35 156.9 -37.15 158.3M-31.9,149.2Q-33.7 149.6 -35.5 151M-31.55,165.45Q-33.35 165.85 -35.15 167.25M-33,172.95L-33.65 173.15Q-35.1 173.6 -36.6 174.75M-36.25,171.4Q-38.05 171.8 -39.85 173.2M-34.8,163.9Q-36.6 164.3 -38.4 165.7M-25.25,168.7L-25.9 168.9Q-27.35 169.35 -28.85 170.5M-20.75,162.9Q-22.55 163.3 -24.35 164.7M-22,170.3Q-23.8 170.7 -25.6 172.1M-23.8,161.2Q-25.6 161.6 -27.4 163M-28.5,167.15Q-30.3 167.55 -32.1 168.95M-30.3,158.05Q-32.1 158.45 -33.9 159.85M-27.05,159.65Q-28.85 160.05 -30.65 161.45M-26.5,176.1Q-28.3 176.5 -30.1 177.9M-23.5,177.7Q-24.95 178 -26.4 179L-27.1 179.5M-20.25,179.25Q-21.75 179.6 -23.3 180.65L-23.85 181.05M-28.25,183Q-29.75 183.35 -31.3 184.4L-31.85 184.8M-31.5,181.45Q-32.95 181.75 -34.4 182.75L-35.1 183.25M-34.5,179.85Q-36.3 180.25 -38.1 181.65M-35.2,186.7Q-36.7 187.05 -38.25 188.1L-38.8 188.5M-32.25,188.4Q-33.9 188.8 -35.55 190.1M-25.65,191.55Q-27.45 191.95 -29.25 193.35M-22.4,193.1Q-24.2 193.5 -26 194.9M-21.75,186.15Q-23.5 186.55 -25.3 187.9M-28.7,189.85Q-30.45 190.25 -32.25 191.6M-25.3,184.7Q-26.95 185.1 -28.6 186.4M-29.75,174.55Q-31.55 174.95 -33.35 176.35M-2.95,179.85Q-4.75 180.25 -6.55 181.65M-6,178.15Q-7.75 178.55 -9.55 179.9M-12.5,175Q-14 175.35 -15.55 176.4L-16.1 176.8M-15.75,173.45Q-17.2 173.75 -18.65 174.75L-19.35 175.25M-13.75,182.4Q-15.5 182.8 -17.3 184.15M-12.2,191Q-13.9 191.4 -15.6 192.65M-15.45,189.4Q-17.25 189.8 -19.05 191.2M-2.4,195.9Q-4.2 196.3 -6 197.7M-5.65,194.35Q-7.45 194.75 -9.25 196.15M-1.35,188.9Q-2.95 189.35 -4.55 190.6M-4.2,187.25Q-5.9 187.65 -7.6 188.9M-9.35,192.65Q-10.95 193.1 -12.55 194.35M-10.7,184.1Q-12.5 184.5 -14.3 185.9M-7.45,185.65Q-9.25 186.05 -11.05 187.45M-9.55,176.7Q-11.2 177.1 -12.85 178.4M-1.8,172.45Q-3.45 172.85 -5.1 174.15M-19.15,194.7Q-20.85 195.1 -22.55 196.35M-17.3,180.95Q-18.95 181.35 -20.6 182.65M-18.7,187.85Q-20.5 188.25 -22.3 189.65M-19.3,155.65Q-21.1 156.05 -22.9 157.45M-18.75,171.85Q-20.55 172.25 -22.35 173.65M-18.3,148.5Q-20.1 148.9 -21.9 150.3M-37.75,178.3Q-39.55 178.7 -41.35 180.1M-39.3,169.7Q-41.1 170.1 -42.9 171.5M-38.05,162.3Q-39.85 162.7 -41.65 164.1M-4.3,148.15Q-6.1 148.55 -7.9 149.95M-37.2,138.8Q-39 139.2 -40.8 140.6M-39.65,153.2Q-41.45 153.6 -43.25 155M-38.2,145.95Q-39.95 146.35 -41.75 147.7M-66.45,147.9Q-68.25 148.3 -70.05 149.7M-49.5,148.5Q-51.15 148.9 -52.8 150.2M-52.45,146.8Q-54.25 147.2 -56.05 148.6M-35.15,147.65Q-36.95 148.05 -38.75 149.45M-38.75,124.5Q-40.45 124.9 -42.15 126.15M-39.2,130.6Q-41 131 -42.8 132.4M-79.95,164.45Q-81.6 164.85 -83.25 166.15M-79.5,141.4Q-81.3 141.8 -83.1 143.2M-80.85,109.7Q-82.65 110.1 -84.45 111.5M-80.35,103.8Q-82.15 104.2 -83.95 105.6M-78.8,118.05Q-80.6 118.45 -82.4 119.85M-77.45,150.6Q-79.25 151 -81.05 152.4M-37.6,98.25Q-39.4 98.65 -41.2 100.05M-5.85,98.1Q-7.6 98.5 -9.4 99.85M-78.05,133.9Q-79.8 134.3 -81.6 135.65M-77.8,111.4Q-79.6 111.8 -81.4 113.2M-51.05,98.8Q-52.85 99.2 -54.65 100.6M-117.05,98.8Q-118.85 99.2 -120.65 100.6M-148.35,98.75Q-150.05 99.15 -151.75 100.4M-134.05,98.1Q-135.85 98.5 -137.65 99.9M-103.05,98.45Q-104.8 98.85 -106.6 100.2M-93,97.4Q-94.8 97.8 -96.6 99.2M-89.75,98.95Q-91.55 99.35 -93.35 100.75M-79.4,61.35Q-81.2 61.75 -83 63.15M-77.95,53.85Q-79.7 54.25 -81.5 55.6M-78.7,38Q-80.5 38.4 -82.3 39.8M-77.7,31.35Q-79.5 31.75 -81.3 33.15M-79.85,84.4Q-81.5 84.8 -83.15 86.1M-80.75,29.65Q-82.55 30.05 -84.35 31.45M-80.25,23.75Q-82.05 24.15 -83.85 25.55M-223.65,92.45Q-225.45 92.85 -227.25 94.25M-216.7,88.75Q-218.5 89.15 -220.3 90.55M-213.45,90.3Q-215.25 90.7 -217.05 92.1M-217.15,95.6Q-218.95 96 -220.75 97.4M-213.9,97.15Q-215.7 97.55 -217.5 98.95M-206.95,93.45Q-208.75 93.85 -210.55 95.25M-203.9,95.15Q-205.7 95.55 -207.5 96.95M-208.7,85Q-210.5 85.4 -212.3 86.8M-210.2,91.9Q-212 92.3 -213.8 93.7M-205.45,86.55Q-207.25 86.95 -209.05 88.35M-220.4,94Q-222.2 94.4 -224 95.8M-163.45,62.25Q-165.25 62.65 -167.05 64.05M-170.45,65Q-172.25 65.4 -174.05 66.8M-174.7,70.05Q-176.5 70.45 -178.3 71.85M-171.45,71.65Q-173.25 72.05 -175.05 73.45M-163.95,68.15Q-165.75 68.55 -167.55 69.95M-167.2,66.55Q-169 66.95 -170.8 68.35M-177.95,68.5Q-179.75 68.9 -181.55 70.3M-186.7,79.65Q-188.5 80.05 -190.3 81.45M-183.45,81.2Q-185.25 81.6 -187.05 83M-193.2,76.5Q-195 76.9 -196.8 78.3M-194.45,83.9Q-196.25 84.3 -198.05 85.7M-197.7,82.3Q-199.5 82.7 -201.3 84.1M-195.9,91.4Q-197.7 91.8 -199.5 93.2M-200.65,96.7L-201.3 96.9Q-202.75 97.35 -204.25 98.5M-192.65,92.95L-193.3 93.15Q-194.75 93.6 -196.25 94.75M-186.15,96.1Q-187.95 96.5 -189.75 97.9M-188.15,87.15Q-189.95 87.55 -191.75 88.95M-184.9,88.7L-185.55 88.9Q-187 89.35 -188.5 90.5M-189.4,94.55Q-191.2 94.95 -193 96.35M-191.2,85.45Q-193 85.85 -194.8 87.25M-189.95,78.05Q-191.75 78.45 -193.55 79.85M-165.15,74.9Q-166.95 75.3 -168.75 76.7M-161.9,76.45L-162.55 76.65Q-164 77.1 -165.5 78.25M-162.9,83.6Q-164.7 84 -166.5 85.4M-166.15,82.05Q-167.95 82.45 -169.75 83.85M-169.4,80.45L-170.05 80.65Q-171.5 81.1 -173 82.25M-175.7,77.2Q-177.5 77.6 -179.3 79M-177.15,84.45L-177.8 84.65Q-179.25 85.1 -180.75 86.25M-172.65,78.9Q-174.45 79.3 -176.25 80.7M-175.4,93.45Q-176.85 93.75 -178.3 94.75L-179 95.25M-172.15,95Q-173.65 95.35 -175.2 96.4L-175.75 96.8M-178.4,91.85Q-180.2 92.25 -182 93.65M-167.65,89.2Q-169.1 89.5 -170.55 90.5L-171.25 91M-164.4,90.75Q-165.9 91.1 -167.45 92.15L-168 92.55M-169.2,96.7Q-170.85 97.1 -172.5 98.4M-170.65,87.6Q-172.45 88 -174.25 89.4M-173.9,86.05Q-175.7 86.45 -177.5 87.85M-159.9,85.2Q-161.35 85.5 -162.8 86.5L-163.5 87M-181.65,90.3Q-183.45 90.7 -185.25 92.1M-180.4,82.9Q-182.2 83.3 -184 84.7M-178.95,75.65Q-180.75 76.05 -182.55 77.45M-168.2,73.2Q-170 73.6 -171.8 75M-185.45,72.5Q-187.25 72.9 -189.05 74.3M-182.2,74.05Q-184 74.45 -185.8 75.85M-198.95,89.7Q-200.75 90.1 -202.55 91.5M-200.95,80.75Q-202.75 81.15 -204.55 82.55M-202.2,88.15Q-204 88.55 -205.8 89.95M-167.1,105.65Q-168.9 106.05 -170.7 107.45M-163.85,107.25Q-165.55 107.65 -167.25 108.9M-162.6,99.85Q-164.4 100.25 -166.2 101.65M-178.35,107.85Q-180.15 108.25 -181.95 109.65M-176.95,100.95Q-178.6 101.35 -180.25 102.65M-175.1,109.4Q-176.9 109.8 -178.7 111.2M-173.4,102.4Q-175.15 102.8 -176.95 104.15M-175.95,116.35Q-177.55 116.8 -179.15 118.05M-178.8,114.7Q-180.5 115.1 -182.2 116.35M-172.25,118.05Q-174.05 118.45 -175.85 119.85M-162.05,115.9Q-163.85 116.3 -165.65 117.7M-166,121.2L-166.5 121.35Q-167.7 121.7 -168.9 122.5L-169.6 123M-165.3,114.35Q-167.1 114.75 -168.9 116.15M-169,119.6Q-170.8 120 -172.6 121.4M-169,112.65Q-170.6 113.1 -172.2 114.35M-170.35,104.1Q-172.15 104.5 -173.95 105.9M-171.85,111Q-173.55 111.4 -175.25 112.65M-183.15,97.7Q-184.6 98 -186.05 99L-186.75 99.5M-179.9,99.25Q-181.4 99.6 -182.95 100.65L-183.5 101.05M-187.9,103Q-189.4 103.35 -190.95 104.4L-191.5 104.8M-184.95,104.7Q-186.6 105.1 -188.25 106.4M-194.15,99.85Q-195.95 100.25 -197.75 101.65M-191.15,101.45Q-192.6 101.75 -194.05 102.75L-194.75 103.25M-194.85,106.7Q-196.35 107.05 -197.9 108.1L-198.45 108.5M-198.1,105.15Q-199.55 105.45 -201 106.45L-201.7 106.95M-185.3,111.55Q-187.1 111.95 -188.9 113.35M-191.9,108.4Q-193.55 108.8 -195.2 110.1M-188.35,109.85Q-190.1 110.25 -191.9 111.6M-162.75,122.75Q-164.55 123.15 -166.35 124.55M-182.05,113.1Q-183.85 113.5 -185.65 114.9M-181.4,106.15Q-183.15 106.55 -184.95 107.9M-207.6,100.4L-208.25 100.6Q-209.7 101.05 -211.2 102.2M-204.35,102Q-206.15 102.4 -207.95 103.8M-201.1,103.55Q-202.9 103.95 -204.7 105.35M-197.4,98.3Q-199.2 98.7 -201 100.1M-210.85,98.85Q-212.65 99.25 -214.45 100.65M-165.65,98.15Q-167.4 98.55 -169.2 99.9M-0.15,204.45Q-1.8 204.85 -3.45 206.15M-3.1,202.75Q-4.9 203.15 -6.7 204.55M-9.35,199.6Q-11.15 200 -12.95 201.4M-6.35,201.2L-6.85 201.35Q-8.05 201.7 -9.25 202.5L-9.95 203M-12.6,198.05Q-14.4 198.45 -16.2 199.85M0.6,197.5L0.1 197.65Q-1.1 198 -2.3 198.8L-3 199.3M-16.3,196.35Q-17.9 196.8 -19.5 198.05M-159.35,101.4Q-161.15 101.8 -162.95 103.2M-158.65,78.05Q-160.45 78.45 -162.25 79.85M-159.8,124.45Q-161.45 124.85 -163.1 126.15M-161,108.9Q-162.6 109.35 -164.2 110.6M-161.45,92.45Q-163.1 92.85 -164.75 94.15M-160.7,69.7Q-162.5 70.1 -164.3 71.5M-160.2,63.8Q-162 64.2 -163.8 65.6M164.9,72.95L164.25 73.15Q162.8 73.6 161.3 74.75M168.65,68.65Q166.85 69.05 165.05 70.45M171.9,70.2L171.25 70.4Q169.8 70.85 168.3 72M175.15,71.8Q173.35 72.2 171.55 73.6M165.6,66.95Q163.8 67.35 162 68.75M181.4,74.95Q179.95 75.25 178.5 76.25L177.8 76.75M184.65,76.5Q183.15 76.85 181.6 77.9L181.05 78.3M177.65,79.25Q176.15 79.6 174.6 80.65L174.05 81.05M180.6,80.95Q178.95 81.35 177.3 82.65M166.9,81.2Q165.45 81.5 164 82.5L163.3 83M170.15,82.75Q168.65 83.1 167.1 84.15L166.55 84.55M168.15,74.55Q166.35 74.95 164.55 76.35M171.4,76.1Q169.6 76.5 167.8 77.9M174.4,77.7Q172.95 78 171.5 79L170.8 79.5M167.7,97.15Q165.9 97.55 164.1 98.95M165.6,88.45Q163.95 88.85 162.3 90.15M169.15,89.9Q167.4 90.3 165.6 91.65M178.7,94.75Q177 95.15 175.3 96.4M181.55,96.4Q179.95 96.85 178.35 98.1M179.7,87.6Q177.9 88 176.1 89.4M175.45,93.15Q173.65 93.55 171.85 94.95M172.2,91.6Q170.4 92 168.6 93.4M173.1,84.45Q171.45 84.85 169.8 86.15M176.65,85.9Q174.9 86.3 173.1 87.65M197.45,82.9Q195.65 83.3 193.85 84.7M200.7,84.5Q199 84.9 197.3 86.15M187.6,78.2Q185.95 78.6 184.3 79.9M187.2,84.1Q185.4 84.5 183.6 85.9M191.15,79.65Q189.4 80.05 187.6 81.4M189.05,92.4Q187.45 92.85 185.85 94.1M186.2,90.75Q184.5 91.15 182.8 92.4M199,97.25L198.5 97.4Q197.3 97.75 196.1 98.55L195.4 99.05M196,95.65Q194.2 96.05 192.4 97.45M200.25,90.6Q198.45 91 196.65 92.4M196.55,88.9Q194.95 89.35 193.35 90.6M190.45,85.65Q188.65 86.05 186.85 87.45M192.75,94.1Q190.95 94.5 189.15 95.9M193.7,87.25Q192 87.65 190.3 88.9M194.2,81.35Q192.4 81.75 190.6 83.15M182.95,89.15Q181.15 89.55 179.35 90.95M184.15,82.4Q182.4 82.8 180.6 84.15M178.4,73.35Q176.6 73.75 174.8 75.15M209.75,95.3Q207.95 95.7 206.15 97.1M213.5,91L213 91.15Q211.8 91.5 210.6 92.3L209.9 92.8M210.5,89.4Q208.7 89.8 206.9 91.2M206.5,93.75L206 93.9Q204.8 94.25 203.6 95.05L202.9 95.55M207.25,87.85Q205.45 88.25 203.65 89.65M216.75,92.55Q214.95 92.95 213.15 94.35M219.7,94.25Q218.05 94.65 216.4 95.95M212.7,97Q211.05 97.4 209.4 98.7M223.25,95.7Q221.5 96.1 219.7 97.45M203.5,92.15Q201.7 92.55 199.9 93.95M203.55,86.15Q201.95 86.6 200.35 87.85M236,102.2L234.55 102.7L232.4 104M242.5,105.35Q240.7 105.75 238.9 107.15M239.25,103.75Q237.45 104.15 235.65 105.55M232.25,106.5Q230.45 106.9 228.65 108.3M229,104.95Q227.2 105.35 225.4 106.75M231.25,113.15Q229.45 113.55 227.65 114.95M230.05,120.4L229.4 120.6Q227.95 121.05 226.45 122.2M226.8,118.85Q225 119.25 223.2 120.65M228,111.6Q226.2 112 224.4 113.4M240.8,118Q239 118.4 237.2 119.8M237.55,116.4L236.9 116.6Q235.45 117.05 233.95 118.2M238.75,109.65Q236.95 110.05 235.15 111.45M241.8,111.35Q240 111.75 238.2 113.15M234.3,114.85Q232.5 115.25 230.7 116.65M235.5,108.1Q233.7 108.5 231.9 109.9M221.5,108.45Q219.7 108.85 217.9 110.25M219.3,100.15Q217.5 100.55 215.7 101.95M222.55,101.7Q220.75 102.1 218.95 103.5M208.75,101.95Q207 102.35 205.2 103.7M207.55,109.2Q205.75 109.6 203.95 111M211.8,103.65Q210 104.05 208.2 105.45M206.25,116.45Q204.45 116.85 202.65 118.25M209.5,118Q207.7 118.4 205.9 119.8M220.5,115.6Q218.7 116 216.9 117.4M217.25,114Q215.45 114.4 213.65 115.8M212.75,119.6Q210.95 120 209.15 121.4M216,121.15Q214.2 121.55 212.4 122.95M214,112.45Q212.2 112.85 210.4 114.25M215.05,105.2Q213.25 105.6 211.45 107M222.3,124.4L221.65 124.6Q220.2 125.05 218.7 126.2M224.05,133.4Q222.6 133.7 221.15 134.7L220.45 135.2M217.8,130.25Q216 130.65 214.2 132.05M214.55,128.65L213.9 128.85Q212.45 129.3 210.95 130.45M221.05,131.8Q219.25 132.2 217.45 133.6M208.25,125.4Q206.45 125.8 204.65 127.2M211.3,127.1Q209.5 127.5 207.7 128.9M206.8,132.9L206.15 133.1Q204.7 133.55 203.2 134.7M211.55,142.95Q210.05 143.3 208.5 144.35L207.95 144.75M208.3,141.4Q206.85 141.7 205.4 142.7L204.7 143.2M218.05,146.1Q216.3 146.5 214.5 147.85M219.55,139.2Q218.05 139.55 216.5 140.6L215.95 141M222.5,140.9Q220.85 141.3 219.2 142.6M216.3,137.65Q214.85 137.95 213.4 138.95L212.7 139.45M214.5,144.65Q212.85 145.05 211.2 146.35M210.05,134.5Q208.25 134.9 206.45 136.3M213.3,136.05Q211.5 136.45 209.7 137.85M239.55,125.15Q238.1 125.45 236.65 126.45L235.95 126.95M242.8,126.7Q241.3 127.05 239.75 128.1L239.2 128.5M238,132.4Q236.35 132.8 234.7 134.1M241.55,133.85Q239.8 134.25 238 135.6M228.8,127.55Q227 127.95 225.2 129.35M235.05,130.7Q233.55 131.05 232 132.1L231.45 132.5M231.8,129.15Q230.35 129.45 228.9 130.45L228.2 130.95M230.25,136.65Q228.6 137.05 226.95 138.35M232.35,145.6Q230.55 146 228.75 147.4M229.1,144.05Q227.3 144.45 225.5 145.85M227.3,134.95Q225.8 135.3 224.25 136.35L223.7 136.75M236.85,139.8Q235.05 140.2 233.25 141.6M240.1,141.35Q238.3 141.75 236.5 143.15M233.8,138.1Q232.05 138.5 230.25 139.85M219.05,122.85Q217.25 123.25 215.45 124.65M226.05,142.35Q224.3 142.75 222.5 144.1M225.55,126Q223.75 126.4 221.95 127.8M233.3,122Q231.5 122.4 229.7 123.8M236.55,123.55Q234.75 123.95 232.95 125.35M223.75,117.15Q221.95 117.55 220.15 118.95M224.75,110Q222.95 110.4 221.15 111.8M197.7,104.5Q196.05 104.9 194.4 106.2M201.25,105.95Q199.5 106.35 197.7 107.7M189.95,108.5Q188.3 108.9 186.65 110.2M187,106.8Q185.2 107.2 183.4 108.6M183.75,105.25L183.25 105.4Q182.05 105.75 180.85 106.55L180.15 107.05M191.5,101.25L191 101.4Q189.8 101.75 188.6 102.55L187.9 103.05M188.5,99.65Q186.7 100.05 184.9 101.45M192.05,117.45Q190.25 117.85 188.45 119.25M188.8,115.9Q187 116.3 185.2 117.7M198.5,120.7Q196.7 121.1 194.9 122.5M199.8,113.2Q198 113.6 196.2 115M196.55,111.65Q194.75 112.05 192.95 113.45M193.5,109.95Q191.75 110.35 189.95 111.7M194.75,102.8Q192.95 103.2 191.15 104.6M177.5,102.1Q175.7 102.5 173.9 103.9M176,109.5L175.5 109.65Q174.3 110 173.1 110.8L172.4 111.3M180.75,103.65Q178.95 104.05 177.15 105.45M169.75,106.35Q167.95 106.75 166.15 108.15M166.05,104.65Q164.45 105.1 162.85 106.35M171.5,115.3Q169.7 115.7 167.9 117.1M166.45,120.75Q164.8 121.15 163.15 122.45M168.25,113.75L167.75 113.9Q166.55 114.25 165.35 115.05L164.65 115.55M178,118.45Q176.25 118.85 174.45 120.2M181.05,120.15Q179.25 120.55 177.45 121.95M182.2,112.75Q180.55 113.15 178.9 114.45M174.45,117Q172.8 117.4 171.15 118.7M173,107.9Q171.2 108.3 169.4 109.7M179.25,111.05Q177.45 111.45 175.65 112.85M173.8,100.4Q172.2 100.85 170.6 102.1M175.8,132.4Q174 132.8 172.2 134.2M179.05,133.95Q177.25 134.35 175.45 135.75M176.3,125.45Q174.5 125.85 172.7 127.25M166.1,127.6Q164.3 128 162.5 129.4M169.35,129.15Q167.55 129.55 165.75 130.95M173.05,123.9Q171.25 124.3 169.45 125.7M197.25,128.1Q195.45 128.5 193.65 129.9M200.5,129.65Q198.7 130.05 196.9 131.45M186,130.25Q184.2 130.65 182.4 132.05M189.25,131.85Q187.45 132.25 185.65 133.65M190.75,124.95Q188.95 125.35 187.15 126.75M188.6,138.8Q186.8 139.2 185 140.6M191.85,140.35L191.2 140.55Q189.75 141 188.25 142.15M201.35,145.1Q199.9 145.4 198.45 146.4L197.75 146.9M202.05,138.25Q200.25 138.65 198.45 140.05M198.35,143.5Q196.55 143.9 194.75 145.3M198.8,136.65L198.15 136.85Q196.7 137.3 195.2 138.45M204.6,146.65Q203.1 147 201.55 148.05L201 148.45M192.5,133.4Q190.7 133.8 188.9 135.2M195.1,141.95Q193.3 142.35 191.5 143.75M195.55,135.1Q193.75 135.5 191.95 136.9M194,126.5Q192.2 126.9 190.4 128.3M182.3,135.55Q180.5 135.95 178.7 137.35M201.75,122.25Q199.95 122.65 198.15 124.05M185.55,137.1Q183.75 137.5 181.95 138.9M182.75,128.7Q180.95 129.1 179.15 130.5M184.3,121.7Q182.5 122.1 180.7 123.5M185.75,114.2Q184 114.6 182.2 115.95M170,122.2Q168.25 122.6 166.45 123.95M187.9,158.2Q186.25 158.6 184.6 159.9M190.75,165.65Q188.95 166.05 187.15 167.45M186.5,170.75Q184.8 171.15 183.1 172.4M187.5,164.1Q185.7 164.5 183.9 165.9M200.55,170.6Q198.75 171 196.95 172.4M201,164.5Q199.3 164.9 197.6 166.15M197.75,162.9Q195.95 163.3 194.15 164.7M196.85,168.9Q195.25 169.35 193.65 170.6M194,167.25Q192.3 167.65 190.6 168.9M191.45,159.65Q189.7 160.05 187.9 161.4M194.5,161.35Q192.7 161.75 190.9 163.15M178.7,153.35Q176.9 153.75 175.1 155.15M181.7,154.95Q180.25 155.25 178.8 156.25L178.1 156.75M184.95,156.5Q183.45 156.85 181.9 157.9L181.35 158.3M177.95,159.25Q176.45 159.6 174.9 160.65L174.35 161.05M171.7,156.1Q169.9 156.5 168.1 157.9M172.2,150.2L171.55 150.4Q170.1 150.85 168.6 152M165.2,152.95L164.55 153.15Q163.1 153.6 161.6 154.75M168.45,154.55Q166.65 154.95 164.85 156.35M174.7,157.7Q173.25 158 171.8 159L171.1 159.5M168.95,148.65Q167.15 149.05 165.35 150.45M170.45,162.75Q168.95 163.1 167.4 164.15L166.85 164.55M169.45,169.9Q167.7 170.3 165.9 171.65M165.9,168.45Q164.25 168.85 162.6 170.15M167.2,161.2Q165.75 161.5 164.3 162.5L163.6 163M180,167.6Q178.2 168 176.4 169.4M180.9,160.95Q179.25 161.35 177.6 162.65M176.95,165.9Q175.2 166.3 173.4 167.65M173.4,164.45Q171.75 164.85 170.1 166.15M175.45,151.8Q173.65 152.2 171.85 153.6M177.8,182.1Q176 182.5 174.2 183.9M179,174.75Q177.3 175.15 175.6 176.4M181.05,183.65Q179.25 184.05 177.45 185.45M181.85,176.4Q180.25 176.85 178.65 178.1M168,177.15Q166.2 177.55 164.4 178.95M171.25,178.75Q169.55 179.15 167.85 180.4M168.55,193.75L168.05 193.9Q166.85 194.25 165.65 195.05L164.95 195.55M171.8,195.3Q170 195.7 168.2 197.1M170.05,186.35Q168.25 186.75 166.45 188.15M184.05,185.25L183.55 185.4Q182.35 185.75 181.15 186.55L180.45 187.05M179.55,191.05Q177.75 191.45 175.95 192.85M176.3,189.5L175.8 189.65Q174.6 190 173.4 190.8L172.7 191.3M173.3,187.9Q171.5 188.3 169.7 189.7M166.35,184.65Q164.75 185.1 163.15 186.35M174.1,180.4Q172.5 180.85 170.9 182.1M196.3,175.65Q194.5 176.05 192.7 177.45M199.3,177.25L198.8 177.4Q197.6 177.75 196.4 178.55L195.7 179.05M191.8,181.25L191.3 181.4Q190.1 181.75 188.9 182.55L188.2 183.05M188.8,179.65Q187 180.05 185.2 181.45M190.25,188.5Q188.6 188.9 186.95 190.2M187.3,186.8Q185.5 187.2 183.7 188.6M186.05,194.2Q184.3 194.6 182.5 195.95M189.1,195.9Q187.3 196.3 185.5 197.7M200.1,193.2Q198.3 193.6 196.5 195M201.55,185.95Q199.8 186.35 198 187.7M196.85,191.65Q195.05 192.05 193.25 193.45M193.8,189.95Q192.05 190.35 190.25 191.7M198,184.5Q196.35 184.9 194.7 186.2M193.05,174.1Q191.25 174.5 189.45 175.9M195.05,182.8Q193.25 183.2 191.45 184.6M182.5,192.75Q180.85 193.15 179.2 194.45M183.25,169.15Q181.45 169.55 179.65 170.95M172.5,171.6Q170.7 172 168.9 173.4M175.75,173.15Q173.95 173.55 172.15 174.95M185.55,178.1Q183.75 178.5 181.95 179.9M189.35,172.4Q187.75 172.85 186.15 174.1M184.45,162.4Q182.7 162.8 180.9 164.15M240.4,157.45L239.9 157.6Q238.7 157.95 237.5 158.75L236.8 159.25M238.45,148.85Q236.85 149.3 235.25 150.55M237.4,155.85Q235.6 156.25 233.8 157.65M242.15,150.55Q240.35 150.95 238.55 152.35M227.6,150.95Q225.9 151.35 224.2 152.6M227.2,158Q225.4 158.4 223.6 159.8M230.45,152.6Q228.85 153.05 227.25 154.3M233.45,161.15L232.95 161.3Q231.75 161.65 230.55 162.45L229.85 162.95M239.65,164.4Q238 164.8 236.35 166.1M236.7,162.7Q234.9 163.1 233.1 164.5M230.45,159.55Q228.65 159.95 226.85 161.35M234.15,154.3Q232.35 154.7 230.55 156.1M217.4,153.05Q215.6 153.45 213.8 154.85M220.65,154.65Q218.95 155.05 217.25 156.3M211.1,149.8Q209.35 150.2 207.55 151.55M207.55,167.85Q205.75 168.25 203.95 169.65M213.8,171L213.3 171.15Q212.1 171.5 210.9 172.3L210.2 172.8M210.8,169.4Q209 169.8 207.2 171.2M214.15,151.5Q212.35 151.9 210.55 153.3M216.55,178.45Q214.8 178.85 213 180.2M220,174.25Q218.35 174.65 216.7 175.95M219.6,180.15Q217.8 180.55 216 181.95M206.8,173.75L206.3 173.9Q205.1 174.25 203.9 175.05L203.2 175.55M209.05,181.95Q207.3 182.35 205.5 183.7M212.1,183.65Q210.3 184.05 208.5 185.45M210.05,175.3Q208.25 175.7 206.45 177.1M207.85,189.2Q206.05 189.6 204.25 191M215.35,185.2Q213.55 185.6 211.75 187M213,177Q211.35 177.4 209.7 178.7M226.6,177.4Q224.8 177.8 223 179.2M229.85,178.95Q228.05 179.35 226.25 180.75M223.55,175.7Q221.8 176.1 220 177.45M222.85,181.7Q221.05 182.1 219.25 183.5M217.05,172.55Q215.25 172.95 213.45 174.35M223.5,156.3Q221.9 156.75 220.3 158M224.35,149.35Q222.55 149.75 220.75 151.15M202.55,178.8Q200.75 179.2 198.95 180.6M203.8,172.15Q202 172.55 200.2 173.95M204.6,187.65Q202.8 188.05 201 189.45M205.5,180.5Q203.85 180.9 202.2 182.2M203.85,166.15Q202.25 166.6 200.65 167.85M165.9,146.95Q164.1 147.35 162.3 148.75M221.1,147.8Q219.3 148.2 217.5 149.6M235.6,147.2Q233.9 147.6 232.2 148.85M207.55,148.35Q205.9 148.75 204.25 150.05M203.55,131.35Q201.75 131.75 199.95 133.15M205.3,139.8Q203.5 140.2 201.7 141.6M205,123.85Q203.2 124.25 201.4 125.65M204.3,107.65Q202.5 108.05 200.7 109.45M205.2,100.5Q203.55 100.9 201.9 102.2M299.85,134.2Q298.2 134.6 296.55 135.9M293.65,130.95L293.15 131.1Q291.95 131.45 290.75 132.25L290.05 132.75M287.4,127.8Q285.6 128.2 283.8 129.6M286.65,133.7L286.15 133.85Q284.95 134.2 283.75 135L283.05 135.5M290.65,129.35Q288.85 129.75 287.05 131.15M291.95,143.6Q290.15 144 288.35 145.4M288.9,141.9Q287.15 142.3 285.35 143.65M292.85,136.95Q291.2 137.35 289.55 138.65M302.7,141.65Q300.9 142.05 299.1 143.45M299.45,140.1Q297.65 140.5 295.85 141.9M303.4,135.65Q301.65 136.05 299.85 137.4M295.2,145.15Q293.4 145.55 291.6 146.95M296.9,132.5Q295.1 132.9 293.3 134.3M296.4,138.4Q294.65 138.8 292.85 140.15M289.9,135.25Q288.1 135.65 286.3 137.05M309.7,138.9Q307.9 139.3 306.1 140.7M306.45,137.35Q304.65 137.75 302.85 139.15M271.3,119.6Q269.55 120 267.75 121.35M274.35,121.3Q272.55 121.7 270.75 123.1M267.75,118.15Q266.1 118.55 264.45 119.85M248.8,108.6Q247 109 245.2 110.4M252.05,110.15L251.4 110.35Q249.95 110.8 248.45 111.95M254.55,117.65Q253.1 117.95 251.65 118.95L250.95 119.45M247.05,121.15Q245.6 121.45 244.15 122.45L243.45 122.95M251.55,116.05Q249.75 116.45 247.95 117.85M248.3,114.5Q246.5 114.9 244.7 116.3M245.05,112.9L244.4 113.1Q242.95 113.55 241.45 114.7M264.8,116.45Q263.3 116.8 261.75 117.85L261.2 118.25M261.55,114.9Q260.1 115.2 258.65 116.2L257.95 116.7M257.8,119.2Q256.3 119.55 254.75 120.6L254.2 121M260.75,120.9Q259.1 121.3 257.45 122.6M258.55,113.3Q256.75 113.7 254.95 115.1M255.3,111.75Q253.5 112.15 251.7 113.55M259.85,127.55Q258.05 127.95 256.25 129.35M256.8,125.85Q255.05 126.25 253.25 127.6M263.1,129.1Q261.3 129.5 259.5 130.9M249.3,129.85Q247.55 130.25 245.75 131.6M250.3,122.7Q248.8 123.05 247.25 124.1L246.7 124.5M252.35,131.55Q250.55 131.95 248.75 133.35M246.2,144.6Q244.6 145.05 243 146.3M249.9,146.3Q248.1 146.7 246.3 148.1M251.1,138.7Q249.4 139.1 247.7 140.35M247.85,137.1Q246.05 137.5 244.25 138.9M257.65,142.05Q255.85 142.45 254.05 143.85M263.9,145.2L263.4 145.35Q262.2 145.7 261 146.5L260.3 147M261.7,136.35Q260.1 136.8 258.5 138.05M260.9,143.6Q259.1 144 257.3 145.4M253.95,140.35Q252.35 140.8 250.75 142.05M258.85,134.7Q257.15 135.1 255.45 136.35M255.6,133.1Q253.8 133.5 252 134.9M253.25,124.4Q251.6 124.8 249.95 126.1M276.7,128.85Q275.1 129.3 273.5 130.55M280.85,124.45Q279.15 124.85 277.45 126.1M280.4,130.55Q278.6 130.95 276.8 132.35M267.35,124.05Q265.55 124.45 263.75 125.85M269.2,132.35Q267.6 132.8 266 134.05M272.9,134.05Q271.1 134.45 269.3 135.85M270.6,125.6Q268.8 126 267 127.4M271.65,141.2L271.15 141.35Q269.95 141.7 268.75 142.5L268.05 143M268.65,139.6Q266.85 140 265.05 141.4M277.85,144.45Q276.2 144.85 274.55 146.15M282.4,138.75Q280.6 139.15 278.8 140.55M281.4,145.9Q279.65 146.3 277.85 147.65M279.15,137.2L278.65 137.35Q277.45 137.7 276.25 138.5L275.55 139M274.9,142.75Q273.1 143.15 271.3 144.55M276.15,135.6Q274.35 136 272.55 137.4M273.85,127.2Q272.15 127.6 270.45 128.85M266.35,130.7Q264.65 131.1 262.95 132.35M265.4,138.05Q263.6 138.45 261.8 139.85M264.3,122.35Q262.55 122.75 260.75 124.1M277.6,122.85Q275.8 123.25 274 124.65M273.65,149.9Q271.9 150.3 270.1 151.65M268.95,155.85Q267.15 156.25 265.35 157.65M272.2,157.4Q270.4 157.8 268.6 159.2M279.95,153.15Q278.15 153.55 276.35 154.95M276.7,151.6Q274.9 152 273.1 153.4M259.4,151Q257.6 151.4 255.8 152.8M256.15,149.45L255.65 149.6Q254.45 149.95 253.25 150.75L252.55 151.25M262.35,152.7Q260.7 153.1 259.05 154.4M258.15,158.4Q256.4 158.8 254.6 160.15M248.4,153.7L247.9 153.85Q246.7 154.2 245.5 155L244.8 155.5M251.65,155.25Q249.85 155.65 248.05 157.05M250.15,162.15Q248.4 162.55 246.6 163.9M249.5,169.1Q247.7 169.5 245.9 170.9M256.45,165.4Q254.65 165.8 252.85 167.2M253.2,163.85Q251.4 164.25 249.6 165.65M254.6,156.95Q252.95 157.35 251.3 158.65M261.2,160.1Q259.4 160.5 257.6 161.9M246.6,160.7Q244.95 161.1 243.3 162.4M264.45,161.65Q262.65 162.05 260.85 163.45M265.9,154.15Q264.15 154.55 262.35 155.9M287.7,149.15Q285.9 149.55 284.1 150.95M283.65,132.1Q281.85 132.5 280.05 133.9M267.15,146.75Q265.35 147.15 263.55 148.55M270.1,148.45Q268.45 148.85 266.8 150.15M253.15,147.85Q251.35 148.25 249.55 149.65M284.45,147.6Q282.65 148 280.85 149.4M285.35,140.45Q283.7 140.85 282.05 142.15M283.7,126.1Q282.1 126.55 280.5 127.8M243.2,165.85Q241.45 166.25 239.65 167.6M244.05,119.55Q242.25 119.95 240.45 121.35M243.65,159Q241.85 159.4 240.05 160.8M246.25,167.55Q244.45 167.95 242.65 169.35M245.4,152.1Q243.6 152.5 241.8 153.9M244.6,135.55Q242.8 135.95 241 137.35M243.35,142.95Q241.65 143.35 239.95 144.6M245.75,128.4Q244.1 128.8 242.45 130.1M245.75,106.9Q243.95 107.3 242.15 108.7M202.25,98.8Q200.45 99.2 198.65 100.6M170.95,98.75Q169.25 99.15 167.55 100.4M185.25,98.1Q183.45 98.5 181.65 99.9M216.25,98.45Q214.5 98.85 212.7 100.2M226.3,97.4Q224.5 97.8 222.7 99.2M229.55,98.95Q227.75 99.35 225.95 100.75M92.1,30.2L91.45 30.4Q90 30.85 88.5 32M95.35,31.8Q93.55 32.2 91.75 33.6M101.6,34.95Q100.15 35.25 98.7 36.25L98 36.75M98.6,33.35Q96.8 33.75 95 35.15M85.1,32.95L84.45 33.15Q83 33.6 81.5 34.75M88.85,28.65Q87.05 29.05 85.25 30.45M88.35,34.55Q86.55 34.95 84.75 36.35M85.8,26.95Q84 27.35 82.2 28.75M87.1,41.2Q85.65 41.5 84.2 42.5L83.5 43M90.35,42.75Q88.85 43.1 87.3 44.15L86.75 44.55M96.85,45.9Q95.1 46.3 93.3 47.65M99.9,47.6Q98.1 48 96.3 49.4M94.6,37.7Q93.15 38 91.7 39L91 39.5M97.85,39.25Q96.35 39.6 94.8 40.65L94.25 41.05M100.8,40.95Q99.15 41.35 97.5 42.65M91.6,36.1Q89.8 36.5 88 37.9M93.3,44.45Q91.65 44.85 90 46.15M111.35,39.65Q109.6 40.05 107.8 41.4M104.85,36.5Q103.35 36.85 101.8 37.9L101.25 38.3M110.65,45.65Q108.85 46.05 107.05 47.45M107.4,44.1Q105.6 44.5 103.8 45.9M107.8,38.2Q106.15 38.6 104.5 39.9M117.65,42.9Q115.85 43.3 114.05 44.7M120.9,44.5Q119.2 44.9 117.5 46.15M114.4,41.35Q112.6 41.75 110.8 43.15M113.9,47.25Q112.2 47.65 110.5 48.9M104.35,42.4Q102.6 42.8 100.8 44.15M120.45,50.6Q118.65 51 116.85 52.4M119.2,57.25L118.7 57.4Q117.5 57.75 116.3 58.55L115.6 59.05M116.2,55.65Q114.4 56.05 112.6 57.45M108.7,59.65Q106.9 60.05 105.1 61.45M105.45,58.1Q103.65 58.5 101.85 59.9M109.25,52.4Q107.65 52.85 106.05 54.1M106.4,50.75Q104.7 51.15 103 52.4M111.7,61.25L111.2 61.4Q110 61.75 108.8 62.55L108.1 63.05M107.2,66.8Q105.4 67.2 103.6 68.6M110.15,68.5Q108.5 68.9 106.85 70.2M103.95,65.25L103.45 65.4Q102.25 65.75 101.05 66.55L100.35 67.05M121.45,65.95Q119.7 66.35 117.9 67.7M117.9,64.5Q116.25 64.9 114.6 66.2M116.75,71.65Q114.95 72.05 113.15 73.45M114.95,62.8Q113.15 63.2 111.35 64.6M112.95,54.1Q111.15 54.5 109.35 55.9M113.7,69.95Q111.95 70.35 110.15 71.7M98.9,54.75Q97.2 55.15 95.5 56.4M95.65,53.15Q93.85 53.55 92.05 54.95M84.65,55.6Q82.85 56 81.05 57.4M87.9,57.15Q86.1 57.55 84.3 58.95M89.35,49.9Q87.6 50.3 85.8 51.65M85.45,72.15Q83.65 72.55 81.85 73.95M89.95,66.35Q88.15 66.75 86.35 68.15M88.45,73.75L87.95 73.9Q86.75 74.25 85.55 75.05L84.85 75.55M86.25,64.65Q84.65 65.1 83.05 66.35M99.45,71.05Q97.65 71.45 95.85 72.85M97.7,62.1Q95.9 62.5 94.1 63.9M96.2,69.5L95.7 69.65Q94.5 70 93.3 70.8L92.6 71.3M100.95,63.65Q99.15 64.05 97.35 65.45M94,60.4Q92.4 60.85 90.8 62.1M92.4,51.6Q90.6 52 88.8 53.4M91.15,58.75Q89.45 59.15 87.75 60.4M93.2,67.9Q91.4 68.3 89.6 69.7M94.65,77Q93 77.4 91.35 78.7M98.2,78.45Q96.45 78.85 94.65 80.2M90.2,82.2Q88.45 82.6 86.65 83.95M86.65,80.75Q85 81.15 83.35 82.45M89.55,89.15Q87.75 89.55 85.95 90.95M86.3,87.6Q84.5 88 82.7 89.4M95.65,92.45Q93.85 92.85 92.05 94.25M98.9,94Q97.1 94.4 95.3 95.8M96.5,85.45Q94.7 85.85 92.9 87.25M91.7,75.3Q89.9 75.7 88.1 77.1M93.25,83.9Q91.45 84.3 89.65 85.7M118.35,80.75Q116.55 81.15 114.75 82.55M109,75.9Q107.2 76.3 105.4 77.7M105.85,90.3Q104.05 90.7 102.25 92.1M105.4,97.15Q103.6 97.55 101.8 98.95M109.1,91.9Q107.3 92.3 105.5 93.7M115.4,95.15Q113.6 95.55 111.8 96.95M117.1,88.15Q115.3 88.55 113.5 89.95M118.65,96.7L118 96.9Q116.55 97.35 115.05 98.5M120.35,89.7Q118.55 90.1 116.75 91.5M110.6,85Q108.8 85.4 107 86.8M112.35,93.45Q110.55 93.85 108.75 95.25M113.85,86.55Q112.05 86.95 110.25 88.35M112.25,77.45Q110.45 77.85 108.65 79.25M102.15,95.6Q100.35 96 98.55 97.4M102.6,88.75Q100.8 89.15 99 90.55M120,73.2Q118.2 73.6 116.4 75M105.95,74.2Q104.2 74.6 102.4 75.95M104.5,81.7Q102.7 82.1 100.9 83.5M101.75,56.4Q100.15 56.85 98.55 58.1M102.4,72.75Q100.75 73.15 99.1 74.45M101.25,80.15Q99.45 80.55 97.65 81.95M149.75,58.95Q147.95 59.35 146.15 60.75M146.5,57.4Q144.7 57.8 142.9 59.2M148.85,65Q147.05 65.4 145.25 66.8M147.85,71.65Q146.05 72.05 144.25 73.45M159.1,63.8Q157.3 64.2 155.5 65.6M155.85,62.25L154.75 62.6Q153.5 63.1 152.25 64.05M158.6,69.7Q156.8 70.1 155 71.5M161.65,71.4Q159.85 71.8 158.05 73.2M155.35,68.15Q153.55 68.55 151.75 69.95M152.1,66.55Q150.3 66.95 148.5 68.35M136.45,58.45Q134.7 58.85 132.9 60.2M133.7,51L133.2 51.15Q132 51.5 130.8 52.3L130.1 52.8M136.95,52.55Q135.15 52.95 133.35 54.35M139.9,54.25Q138.25 54.65 136.6 55.95M129.95,55.3Q128.15 55.7 126.35 57.1M126.7,53.75L126.2 53.9Q125 54.25 123.8 55.05L123.1 55.55M128.95,61.95Q127.2 62.35 125.4 63.7M127.75,69.2Q125.95 69.6 124.15 71M141.35,68.5Q139.55 68.9 137.75 70.3M135.25,65.2Q133.45 65.6 131.65 67M125.4,60.5Q123.75 60.9 122.1 62.2M139.5,60.15Q137.7 60.55 135.9 61.95M132.9,57Q131.25 57.4 129.6 58.7M132,63.65Q130.2 64.05 128.4 65.45M140.35,75.65Q138.55 76.05 136.75 77.45M135.85,81.2Q134.05 81.6 132.25 83M138.9,82.9Q137.1 83.3 135.3 84.7M142.15,84.45L141.5 84.65Q140.05 85.1 138.55 86.25M129.35,78.05Q127.55 78.45 125.75 79.85M126.1,76.5Q124.3 76.9 122.5 78.3M126.65,92.95L126 93.15Q124.55 93.6 123.05 94.75M131.15,87.15Q129.35 87.55 127.55 88.95M129.9,94.55Q128.1 94.95 126.3 96.35M140.9,91.85Q139.1 92.25 137.3 93.65M137.65,90.3Q135.85 90.7 134.05 92.1M134.4,88.7L133.75 88.9Q132.3 89.35 130.8 90.5M143.9,93.45Q142.45 93.75 141 94.75L140.3 95.25M128.1,85.45Q126.3 85.85 124.5 87.25M133.15,96.1Q131.35 96.5 129.55 97.9M132.6,79.65Q130.8 80.05 129 81.45M157.4,76.45L156.75 76.65Q155.3 77.1 153.8 78.25M156.4,83.6Q154.6 84 152.8 85.4M159.4,85.2Q157.95 85.5 156.5 86.5L155.8 87M160.65,78.05Q158.85 78.45 157.05 79.85M149.9,80.45L149.25 80.65Q147.8 81.1 146.3 82.25M146.65,78.9Q144.85 79.3 143.05 80.7M147.15,95Q145.65 95.35 144.1 96.4L143.55 96.8M151.65,89.2Q150.2 89.5 148.75 90.5L148.05 91M154.9,90.75Q153.4 91.1 151.85 92.15L151.3 92.55M150.1,96.7Q148.45 97.1 146.8 98.4M148.65,87.6Q146.85 88 145.05 89.4M157.85,92.45Q156.2 92.85 154.55 94.15M161.4,93.9Q159.65 94.3 157.85 95.65M162.65,86.75Q161.15 87.1 159.6 88.15L159.05 88.55M145.4,86.05Q143.6 86.45 141.8 87.85M153.15,82.05Q151.35 82.45 149.55 83.85M154.15,74.9Q152.35 75.3 150.55 76.7M151.1,73.2Q149.3 73.6 147.5 75M143.6,77.2Q141.8 77.6 140 79M144.6,70.05Q142.8 70.45 141 71.85M133.85,72.5Q132.05 72.9 130.25 74.3M137.1,74.05Q135.3 74.45 133.5 75.85M143.45,55.7Q141.7 56.1 139.9 57.45M142.75,61.7Q140.95 62.1 139.15 63.5M121.6,82.3Q119.8 82.7 118 84.1M123.4,91.4Q121.6 91.8 119.8 93.2M124.85,83.9Q123.05 84.3 121.25 85.7M85.8,48.45Q84.15 48.85 82.5 50.15M103.15,49.15Q101.35 49.55 99.55 50.95M122.45,58.8Q120.65 59.2 118.85 60.6M123.7,52.15Q121.9 52.55 120.1 53.95M127.45,47.85Q125.65 48.25 123.85 49.65M123.75,46.15Q122.15 46.6 120.55 47.85M130.7,49.4Q128.9 49.8 127.1 51.2M124.5,67.65Q122.7 68.05 120.9 69.45M116.75,48.9Q115.15 49.35 113.55 50.6M66.65,17.4Q64.85 17.8 63.05 19.2M69.9,18.95Q68.1 19.35 66.3 20.75M76.05,22.25L74.9 22.65Q73.65 23.1 72.45 24.05M53.85,11L53.35 11.15Q52.15 11.5 50.95 12.3L50.25 12.8M47.6,7.85Q45.8 8.25 44 9.65M43.9,6.15Q42.3 6.6 40.7 7.85M45.55,20.5Q43.9 20.9 42.25 22.2M46.85,13.75L46.35 13.9Q45.15 14.25 43.95 15.05L43.25 15.55M49.1,21.95Q47.35 22.35 45.55 23.7M50.1,15.3Q48.3 15.7 46.5 17.1M56.6,18.45Q54.85 18.85 53.05 20.2M60.05,14.25Q58.4 14.65 56.75 15.95M57.1,12.55Q55.3 12.95 53.5 14.35M59.65,20.15Q57.85 20.55 56.05 21.95M50.85,9.4Q49.05 9.8 47.25 11.2M53.05,17Q51.4 17.4 49.75 18.7M57.3,34.05Q55.5 34.45 53.7 35.85M55.4,25.2Q53.6 25.6 51.8 27M44.65,27.65Q42.85 28.05 41.05 29.45M47.9,29.2Q46.1 29.6 44.3 31M49.55,38.05Q47.75 38.45 45.95 39.85M45.05,43.9Q43.25 44.3 41.45 45.7M48.3,45.45Q46.5 45.85 44.7 47.25M56.05,41.2Q54.25 41.6 52.45 43M59.1,42.9Q57.3 43.3 55.5 44.7M54.6,48.7L53.95 48.9Q52.5 49.35 51 50.5M54.05,32.5Q52.25 32.9 50.45 34.3M46.3,36.5Q44.5 36.9 42.7 38.3M60.55,35.65Q58.75 36.05 56.95 37.45M51.35,47.15Q49.55 47.55 47.75 48.95M52.8,39.65Q51 40.05 49.2 41.45M75.55,28.15Q73.75 28.55 71.95 29.95M78.8,29.7Q77 30.1 75.2 31.5M77.6,36.45L76.95 36.65Q75.5 37.1 74 38.25M68.05,31.65Q66.25 32.05 64.45 33.45M64.8,30.05Q63 30.45 61.2 31.85M69.05,25Q67.25 25.4 65.45 26.8M66.85,38.9Q65.05 39.3 63.25 40.7M68.85,47.6Q67.05 48 65.25 49.4M65.6,46.05Q63.8 46.45 62 47.85M62.35,44.45L61.7 44.65Q60.25 45.1 58.75 46.25M70.1,40.45L69.45 40.65Q68 41.1 66.5 42.25M76.6,43.6Q74.8 44 73 45.4M79.6,45.2Q78.15 45.5 76.7 46.5L76 47M82.85,46.75Q81.35 47.1 79.8 48.15L79.25 48.55M80.85,38.05Q79.05 38.45 77.25 39.85M74.35,34.9Q72.55 35.3 70.75 36.7M72.3,26.55Q70.5 26.95 68.7 28.35M71.3,33.2Q69.5 33.6 67.7 35M73.35,42.05Q71.55 42.45 69.75 43.85M52.15,23.65Q50.35 24.05 48.55 25.45M62.9,21.7Q61.1 22.1 59.3 23.5M63.6,15.7Q61.85 16.1 60.05 17.45M79.3,23.8Q77.5 24.2 75.7 25.6M63.8,37.2Q62 37.6 60.2 39M61.55,28.5Q59.75 28.9 57.95 30.3M37.8,2.9Q36 3.3 34.2 4.7M34.05,7.25Q32.35 7.65 30.65 8.9M36.9,8.9Q35.3 9.35 33.7 10.6M34.55,1.35Q32.75 1.75 30.95 3.15M27.55,4.1Q25.75 4.5 23.95 5.9M24.5,2.4Q22.75 2.8 20.95 4.15M29.4,12.4Q27.8 12.85 26.2 14.1M25.6,18.1Q23.8 18.5 22 19.9M28.85,19.65Q27.05 20.05 25.25 21.45M31.85,21.25L31.35 21.4Q30.15 21.75 28.95 22.55L28.25 23.05M39.35,17.25L38.85 17.4Q37.65 17.75 36.45 18.55L35.75 19.05M36.35,15.65Q34.55 16.05 32.75 17.45M35.1,22.8Q33.3 23.2 31.5 24.6M30.8,5.65Q29 6.05 27.2 7.45M26.55,10.75Q24.85 11.15 23.15 12.4M33.1,14.1Q31.3 14.5 29.5 15.9M18,-0.75Q16.5 -0.4 14.95 0.65L14.4 1.05M17,5.9Q15.25 6.3 13.45 7.65M13.45,4.45Q11.8 4.85 10.15 6.15M20.05,7.6Q18.25 8 16.45 9.4M10.5,2.75Q9 3.1 7.45 4.15L6.9 4.55M9.5,9.9Q7.75 10.3 5.95 11.65M5.95,8.45Q4.3 8.85 2.65 10.15M7.25,1.2Q5.8 1.5 4.35 2.5L3.65 3M8.05,17.15Q6.25 17.55 4.45 18.95M4.8,15.6Q3 16 1.2 17.4M3.55,23Q1.85 23.4 0.15 24.65M15.8,13.15Q14 13.55 12.2 14.95M19.05,14.75Q17.35 15.15 15.65 16.4M17.85,22.1Q16.05 22.5 14.25 23.9M14.15,20.4Q12.55 20.85 10.95 22.1M11.3,18.75Q9.6 19.15 7.9 20.4M12.55,11.6Q10.75 12 8.95 13.4M16.35,29.5L15.85 29.65Q14.65 30 13.45 30.8L12.75 31.3M19.6,31.05Q17.8 31.45 16 32.85M8.6,33.75L8.1 33.9Q6.9 34.25 5.7 35.05L5 35.55M5.6,32.15Q3.8 32.55 2 33.95M10.1,26.35Q8.3 26.75 6.5 28.15M6.8,40.75Q5.15 41.15 3.5 42.45M6.45,47.6Q4.65 48 2.85 49.4M3.85,39.05Q2.05 39.45 0.25 40.85M18.35,38.45Q16.6 38.85 14.8 40.2M16.65,45.45Q14.85 45.85 13.05 47.25M10.35,42.2Q8.6 42.6 6.8 43.95M14.8,37Q13.15 37.4 11.5 38.7M13.4,43.9Q11.6 44.3 9.8 45.7M11.85,35.3Q10.05 35.7 8.25 37.1M13.35,27.9Q11.55 28.3 9.75 29.7M36.9,31.65Q35.1 32.05 33.3 33.45M40.15,33.2Q38.35 33.6 36.55 35M24.1,25.25L23.6 25.4Q22.4 25.75 21.2 26.55L20.5 27.05M30.3,28.5Q28.65 28.9 27 30.2M27.35,26.8Q25.55 27.2 23.75 28.6M26.1,34.2Q24.35 34.6 22.55 35.95M24.65,41.7Q22.85 42.1 21.05 43.5M34.05,46.55Q32.25 46.95 30.45 48.35M38.55,40.75Q36.75 41.15 34.95 42.55M29.15,35.9Q27.35 36.3 25.55 37.7M32.4,37.45Q30.6 37.85 28.8 39.25M33.85,29.95Q32.1 30.35 30.3 31.7M30.8,45Q29 45.4 27.2 46.8M20.95,0.95Q19.3 1.35 17.65 2.65M6.4,24.65Q4.8 25.1 3.2 26.35M38.05,24.5Q36.4 24.9 34.75 26.2M21.4,40.15Q19.6 40.55 17.8 41.95M22.55,32.75Q20.9 33.15 19.25 34.45M21.1,23.65Q19.3 24.05 17.5 25.45M21.9,16.4Q20.3 16.85 18.7 18.1M23.3,9.15Q21.5 9.55 19.7 10.95M38.85,56.7L38.2 56.9Q36.75 57.35 35.25 58.5M35.6,55.15Q33.8 55.55 32 56.95M31.9,60.4L31.25 60.6Q29.8 61.05 28.3 62.2M29.3,51.9Q27.5 52.3 25.7 53.7M28.65,58.85Q26.85 59.25 25.05 60.65M25.6,57.15Q23.8 57.55 22 58.95M26.05,50.3Q24.25 50.7 22.45 52.1M38.4,63.55Q36.6 63.95 34.8 65.35M41.4,65.15Q39.95 65.45 38.5 66.45L37.8 66.95M35.15,62Q33.35 62.4 31.55 63.8M32.55,53.45Q30.75 53.85 28.95 55.25M19.1,54Q17.3 54.4 15.5 55.8M15.85,52.45Q14.05 52.85 12.25 54.25M9.15,68.6Q7.35 69 5.55 70.4M5.4,72.9L4.75 73.1Q3.3 73.55 1.8 74.7M6.1,66.9Q4.3 67.3 2.5 68.7M15.65,71.75Q13.85 72.15 12.05 73.55M12.4,70.15L11.75 70.35Q10.3 70.8 8.8 71.95M21.9,74.9Q20.45 75.2 19 76.2L18.3 76.7M18.15,79.2Q16.65 79.55 15.1 80.6L14.55 81M13.6,84.4Q11.95 84.8 10.3 86.1M14.9,77.65Q13.45 77.95 12 78.95L11.3 79.45M7.4,81.15Q5.95 81.45 4.5 82.45L3.8 82.95M4.4,79.55Q2.6 79.95 0.8 81.35M10.65,82.7Q9.15 83.05 7.6 84.1L7.05 84.5M8.65,74.5Q6.85 74.9 5.05 76.3M8.2,97.1Q6.4 97.5 4.6 98.9M4.95,95.55Q3.15 95.95 1.35 97.35M9.65,89.85Q7.9 90.25 6.1 91.6M6.1,88.4Q4.45 88.8 2.8 90.1M3.15,86.7Q1.65 87.05 0.1 88.1L-0.45 88.5M20.2,87.55Q18.4 87.95 16.6 89.35M15.95,93.1Q14.15 93.5 12.35 94.9M19.2,94.7Q17.5 95.1 15.8 96.35M11.9,76.05Q10.1 76.45 8.3 77.85M12.7,91.55Q10.9 91.95 9.1 93.35M17.15,85.85Q15.4 86.25 13.6 87.6M34.7,81.3Q32.9 81.7 31.1 83.1M37.95,82.85Q36.15 83.25 34.35 84.65M25.15,76.45Q23.65 76.8 22.1 77.85L21.55 78.25M27.7,84.05Q25.9 84.45 24.1 85.85M24.65,82.35Q22.9 82.75 21.1 84.1M28.1,78.15Q26.45 78.55 24.8 79.85M29.55,92.35Q27.95 92.8 26.35 94.05M26.7,90.7Q25 91.1 23.3 92.35M36.5,95.6Q34.7 96 32.9 97.4M39.5,97.2L39 97.35Q37.8 97.7 36.6 98.5L35.9 99M37.05,88.85Q35.45 89.3 33.85 90.55M34.2,87.2Q32.5 87.6 30.8 88.85M31.65,79.6Q29.9 80 28.1 81.35M30.95,85.6Q29.15 86 27.35 87.4M33.25,94.05Q31.45 94.45 29.65 95.85M23.45,89.1Q21.65 89.5 19.85 90.9M22.05,96.35Q20.45 96.8 18.85 98.05M21.1,80.9Q19.45 81.3 17.8 82.6M18.9,73.3Q17.1 73.7 15.3 75.1M22.35,55.6Q20.55 56 18.75 57.4M78.05,52.45Q76.4 52.85 74.75 54.15M76.9,59.85Q75.1 60.25 73.3 61.65M75.1,50.75Q73.6 51.1 72.05 52.15L71.5 52.55M71.85,49.2Q70.4 49.5 68.95 50.5L68.25 51M64.1,53.45Q62.65 53.75 61.2 54.75L60.5 55.25M67.35,55Q65.85 55.35 64.3 56.4L63.75 56.8M70.3,56.7Q68.65 57.1 67 58.4M66.1,62.4Q64.35 62.8 62.55 64.15M69.15,64.1Q67.35 64.5 65.55 65.9M64.4,69.4Q62.6 69.8 60.8 71.2M67.65,71Q65.95 71.4 64.25 72.65M75.65,67.25Q73.95 67.65 72.25 68.9M78.5,68.9Q76.9 69.35 75.3 70.6M73.85,58.15Q72.1 58.55 70.3 59.9M80.15,61.4Q78.35 61.8 76.55 63.2M72.4,65.65Q70.6 66.05 68.8 67.45M56.35,57.7Q54.9 58 53.45 59L52.75 59.5M59.6,59.25Q58.1 59.6 56.55 60.65L56 61.05M57.85,50.3Q56.05 50.7 54.25 52.1M50.1,54.55Q48.3 54.95 46.5 56.35M45.35,59.85Q43.55 60.25 41.75 61.65M46.85,52.95L46.2 53.15Q44.75 53.6 43.25 54.75M47.6,68.4Q45.95 68.8 44.3 70.1M44.65,66.7Q43.15 67.05 41.6 68.1L41.05 68.5M48.35,61.45Q46.9 61.75 45.45 62.75L44.75 63.25M51.6,63Q50.1 63.35 48.55 64.4L48 64.8M54.55,64.7Q52.9 65.1 51.25 66.4M58.1,66.15Q56.35 66.55 54.55 67.9M53.35,56.1Q51.55 56.5 49.75 57.9M51.15,69.85Q49.4 70.25 47.6 71.6M54.2,71.55Q52.4 71.95 50.6 73.35M60.7,74.7Q59 75.1 57.3 76.35M47,93.7L46.5 93.85Q45.3 94.2 44.1 95L43.4 95.5M50.25,95.25Q48.45 95.65 46.65 97.05M47.75,87.8Q45.95 88.2 44.15 89.6M54,90.95L53.5 91.1Q52.3 91.45 51.1 92.25L50.4 92.75M57.25,92.5Q55.45 92.9 53.65 94.3M60.2,94.2Q58.55 94.6 56.9 95.9M51,89.35Q49.2 89.75 47.4 91.15M53.2,96.95Q51.55 97.35 49.9 98.65M44.05,86.1Q42.45 86.55 40.85 87.8M73.5,81.2L73 81.35Q71.8 81.7 70.6 82.5L69.9 83M77.45,75.9Q75.65 76.3 73.85 77.7M76.75,82.75Q74.95 83.15 73.15 84.55M79.7,84.45Q78.05 84.85 76.4 86.15M80.45,77.5L79.95 77.65Q78.75 78 77.55 78.8L76.85 79.3M70.5,79.6Q68.7 80 66.9 81.4M67.25,78.05Q65.45 78.45 63.65 79.85M74.2,74.35Q72.4 74.75 70.6 76.15M63.75,95.65Q62 96.05 60.2 97.4M57.45,73.1Q55.65 73.5 53.85 74.9M70.5,72.65Q68.9 73.1 67.3 74.35M63.55,76.35Q61.95 76.8 60.35 78.05M62.55,60.95Q60.9 61.35 59.25 62.65M61.1,51.85Q59.3 52.25 57.5 53.65M61.15,67.85Q59.35 68.25 57.55 69.65M40.75,90.55Q38.95 90.95 37.15 92.35M41.2,84.45Q39.5 84.85 37.8 86.1M44,92.1Q42.2 92.5 40.4 93.9M41.05,4.5Q39.35 4.9 37.65 6.15M40.6,10.6Q38.8 11 37 12.4M9.7,49.15Q7.9 49.55 6.1 50.95M41.6,25.95Q39.85 26.35 38.05 27.7M42.6,18.8Q40.8 19.2 39 20.6M43.85,12.15Q42.05 12.55 40.25 13.95M22.8,48.75Q21 49.15 19.2 50.55M42.1,58.3Q40.3 58.7 38.5 60.1M40.55,49.7Q38.75 50.1 36.95 51.5M41.8,42.3Q40 42.7 38.2 44.1M43.6,51.4Q41.8 51.8 40 53.2M37.3,48.15Q35.5 48.55 33.7 49.95M76.15,102.2L75.05 102.55Q73.8 103.05 72.55 104M75.65,108.1Q73.85 108.5 72.05 109.9M79.4,103.75Q77.6 104.15 75.8 105.55M69.15,104.95Q67.35 105.35 65.55 106.75M66.95,118.85Q65.15 119.25 63.35 120.65M70.2,120.4L69.55 120.6Q68.1 121.05 66.6 122.2M68.15,111.6Q66.35 112 64.55 113.4M77.7,116.4L77.05 116.6Q75.6 117.05 74.1 118.2M80.95,118Q79.15 118.4 77.35 119.8M71.4,113.15Q69.6 113.55 67.8 114.95M78.9,109.65Q77.1 110.05 75.3 111.45M64.9,110Q63.1 110.4 61.3 111.8M72.4,106.5Q70.6 106.9 68.8 108.3M74.45,114.85Q72.65 115.25 70.85 116.65M55.55,105.15Q53.75 105.55 51.95 106.95M59.8,100.1Q58 100.5 56.2 101.9M44.8,107.6Q43 108 41.2 109.4M49.25,101.9Q47.5 102.3 45.7 103.65M45.7,100.45Q44.05 100.85 42.4 102.15M48.05,109.15Q46.25 109.55 44.45 110.95M49.65,118Q47.85 118.4 46.05 119.8M46.4,116.45Q44.6 116.85 42.8 118.25M60.65,115.6Q58.85 116 57.05 117.4M56.15,121.15Q54.35 121.55 52.55 122.95M57.4,114Q55.6 114.4 53.8 115.8M52.9,119.6Q51.1 120 49.3 121.4M54.15,112.45Q52.35 112.85 50.55 114.25M52.3,103.6Q50.5 104 48.7 105.4M54.7,128.65Q54.4 128.7 54.05 128.85Q52.6 129.3 51.1 130.45M57.95,130.25Q56.15 130.65 54.35 132.05M45.15,123.85Q43.35 124.25 41.55 125.65M48.4,125.4Q46.6 125.8 44.8 127.2M46.95,132.9L46.3 133.1Q44.85 133.55 43.35 134.7M48.45,141.4Q47 141.7 45.55 142.7L44.85 143.2M51.7,142.95Q50.2 143.3 48.65 144.35L48.1 144.75M44.75,146.65Q43.25 147 41.7 148.05L41.15 148.45M45.45,139.8Q43.65 140.2 41.85 141.6M58.2,146.1Q56.45 146.5 54.65 147.85M54.65,144.65Q53 145.05 51.35 146.35M59.7,139.2Q58.2 139.55 56.65 140.6L56.1 141M56.45,137.65Q55 137.95 53.55 138.95L52.85 139.45M50.2,134.5Q48.4 134.9 46.6 136.3M53.45,136.05Q51.65 136.45 49.85 137.85M51.45,127.1Q49.65 127.5 47.85 128.9M82.95,126.7Q81.45 127.05 79.9 128.1L79.35 128.5M79.7,125.15Q78.25 125.45 76.8 126.45L76.1 126.95M78.15,132.4Q76.5 132.8 74.85 134.1M75.2,130.7Q73.7 131.05 72.15 132.1L71.6 132.5M64.2,133.4Q62.75 133.7 61.3 134.7L60.6 135.2M71.95,129.15Q70.5 129.45 69.05 130.45L68.35 130.95M68.95,127.55Q67.15 127.95 65.35 129.35M62.45,124.4L61.8 124.6Q60.35 125.05 58.85 126.2M65.7,126Q63.9 126.4 62.1 127.8M66.2,142.35Q64.45 142.75 62.65 144.1M69.25,144.05Q67.45 144.45 65.65 145.85M70.4,136.65Q68.75 137.05 67.1 138.35M67.45,134.95Q65.95 135.3 64.4 136.35L63.85 136.75M80.25,141.35Q78.45 141.75 76.65 143.15M77,139.8Q75.2 140.2 73.4 141.6M72.5,145.6Q70.7 146 68.9 147.4M73.95,138.1Q72.2 138.5 70.4 139.85M61.2,131.8Q59.4 132.2 57.6 133.6M62.65,140.9Q61 141.3 59.35 142.6M61.65,108.45Q59.85 108.85 58.05 110.25M59.2,122.85Q57.4 123.25 55.6 124.65M73.45,122Q71.65 122.4 69.85 123.8M76.7,123.55Q74.9 123.95 73.1 125.35M63.9,117.15Q62.1 117.55 60.3 118.95M63.05,101.65Q61.25 102.05 59.45 103.45M38.2,104.45Q36.55 104.85 34.9 106.15M35.25,102.75Q33.45 103.15 31.65 104.55M32,101.2L31.5 101.35Q30.3 101.7 29.1 102.5L28.4 103M27.5,106.75Q25.7 107.15 23.9 108.55M24.25,105.2L23.75 105.35Q22.55 105.7 21.35 106.5L20.65 107M29,99.6Q27.2 100 25.4 101.4M24.8,121.65Q23 122.05 21.2 123.45M29.3,115.85Q27.5 116.25 25.7 117.65M26.25,114.15Q24.5 114.55 22.7 115.9M38.65,120.7Q36.85 121.1 35.05 122.5M40.3,113.15Q38.5 113.55 36.7 114.95M37.05,111.6Q35.25 112 33.45 113.4M30.45,108.45Q28.8 108.85 27.15 110.15M32.55,117.4Q30.75 117.8 28.95 119.2M34,109.9Q32.25 110.3 30.45 111.65M16.5,109.45L16 109.6Q14.8 109.95 13.6 110.75L12.9 111.25M18,102.05Q16.2 102.45 14.4 103.85M14.3,100.35Q12.7 100.8 11.1 102.05M3.7,102.95Q2 103.35 0.3 104.6M6.55,104.6Q4.95 105.05 3.35 106.3M8.75,113.7L8.25 113.85Q7.05 114.2 5.85 115L5.15 115.5M4,119Q2.2 119.4 0.4 120.8M6.95,120.7Q5.3 121.1 3.65 122.4M5.75,112.1Q3.95 112.5 2.15 113.9M18.5,118.4Q16.75 118.8 14.95 120.15M14.95,116.95Q13.3 117.35 11.65 118.65M12,115.25Q10.2 115.65 8.4 117.05M19.75,111Q17.95 111.4 16.15 112.8M10.25,106.3Q8.45 106.7 6.65 108.1M13.5,107.85Q11.7 108.25 9.9 109.65M19.2,133.95Q17.4 134.35 15.6 135.75M15.95,132.4Q14.15 132.8 12.35 134.2M16.8,125.4Q15 125.8 13.2 127.2M3.55,125.85Q1.8 126.25 0 127.6M9.85,129.1Q8.05 129.5 6.25 130.9M6.6,127.55Q4.8 127.95 3 129.35M13.55,123.85Q11.75 124.25 9.95 125.65M34.15,126.5Q32.35 126.9 30.55 128.3M37.4,128.1Q35.6 128.5 33.8 129.9M26.15,130.25Q24.35 130.65 22.55 132.05M29.4,131.85Q27.6 132.25 25.8 133.65M25.7,137.1Q23.9 137.5 22.1 138.9M28.75,138.8Q26.95 139.2 25.15 140.6M38.95,136.65L38.3 136.85Q36.85 137.3 35.35 138.45M35.25,141.95Q33.45 142.35 31.65 143.75M41.5,145.1Q40.05 145.4 38.6 146.4L37.9 146.9M38.5,143.5Q36.7 143.9 34.9 145.3M32,140.35L31.35 140.55Q29.9 141 28.4 142.15M32.65,133.4Q30.85 133.8 29.05 135.2M35.7,135.1Q33.9 135.5 32.1 136.9M30.9,124.95Q29.1 125.35 27.3 126.75M22.9,128.7Q21.1 129.1 19.3 130.5M22.45,135.55Q20.65 135.95 18.85 137.35M21.25,103.6Q19.45 104 17.65 105.4M22.7,112.7Q21.05 113.1 19.4 114.4M21.55,120.1Q19.75 120.5 17.95 121.9M10.5,122.15Q8.75 122.55 6.95 123.9M27.95,158.2Q26.3 158.6 24.65 159.9M25,156.5Q23.5 156.85 21.95 157.9L21.4 158.3M24.5,162.4Q22.75 162.8 20.95 164.15M26.55,170.75Q24.85 171.15 23.15 172.4M27.55,164.1Q25.75 164.5 23.95 165.9M37.8,162.9Q36 163.3 34.2 164.7M34.55,161.35Q32.75 161.75 30.95 163.15M34.05,167.25Q32.35 167.65 30.65 168.9M36.9,168.9Q35.3 169.35 33.7 170.6M30.8,165.65Q29 166.05 27.2 167.45M31.5,159.65Q29.75 160.05 27.95 161.4M12.25,150.2L11.6 150.4Q10.15 150.85 8.65 152M15.5,151.8Q13.7 152.2 11.9 153.6M14.75,157.7Q13.3 158 11.85 159L11.15 159.5M18,159.25Q16.5 159.6 14.95 160.65L14.4 161.05M18.75,153.35Q16.95 153.75 15.15 155.15M21.75,154.95Q20.3 155.25 18.85 156.25L18.15 156.75M8.5,154.55Q6.7 154.95 4.9 156.35M5.25,152.95L4.6 153.15Q3.15 153.6 1.65 154.75M9,148.65Q7.2 149.05 5.4 150.45M9.5,169.9Q7.75 170.3 5.95 171.65M5.95,168.45Q4.3 168.85 2.65 170.15M7.25,161.2Q5.8 161.5 4.35 162.5L3.65 163M10.5,162.75Q9 163.1 7.45 164.15L6.9 164.55M17,165.9Q15.25 166.3 13.45 167.65M20.05,167.6Q18.25 168 16.45 169.4M13.45,164.45Q11.8 164.85 10.15 166.15M4.25,159.6Q2.45 160 0.65 161.4M11.75,156.1Q9.95 156.5 8.15 157.9M19.05,174.75Q17.35 175.15 15.65 176.4M14.15,180.4Q12.55 180.85 10.95 182.1M17.85,182.1Q16.05 182.5 14.25 183.9M4.8,175.6Q3 176 1.2 177.4M8.05,177.15Q6.25 177.55 4.45 178.95M3.55,183Q1.85 183.4 0.15 184.65M8.6,193.75L8.1 193.9Q6.9 194.25 5.7 195.05L5 195.55M10.1,186.35Q8.3 186.75 6.5 188.15M5.6,192.15Q3.8 192.55 2 193.95M19.6,191.05Q17.8 191.45 16 192.85M16.35,189.5L15.85 189.65Q14.65 190 13.45 190.8L12.75 191.3M11.85,195.3Q10.05 195.7 8.25 197.1M11.3,178.75Q9.6 179.15 7.9 180.4M6.4,184.65Q4.8 185.1 3.2 186.35M13.35,187.9Q11.55 188.3 9.75 189.7M36.35,175.65Q34.55 176.05 32.75 177.45M39.35,177.25L38.85 177.4Q37.65 177.75 36.45 178.55L35.75 179.05M35.1,182.8Q33.3 183.2 31.5 184.6M31.85,181.25L31.35 181.4Q30.15 181.75 28.95 182.55L28.25 183.05M28.85,179.65Q27.05 180.05 25.25 181.45M24.1,185.25L23.6 185.4Q22.4 185.75 21.2 186.55L20.5 187.05M25.6,178.1Q23.8 178.5 22 179.9M26.1,194.2Q24.35 194.6 22.55 195.95M29.15,195.9Q27.35 196.3 25.55 197.7M30.3,188.5Q28.65 188.9 27 190.2M27.35,186.8Q25.55 187.2 23.75 188.6M36.9,191.65Q35.1 192.05 33.3 193.45M40.15,193.2Q38.35 193.6 36.55 195M33.85,189.95Q32.1 190.35 30.3 191.7M38.05,184.5Q36.4 184.9 34.75 186.2M33.1,174.1Q31.3 174.5 29.5 175.9M21.1,183.65Q19.3 184.05 17.5 185.45M22.55,192.75Q20.9 193.15 19.25 194.45M20.95,160.95Q19.3 161.35 17.65 162.65M29.4,172.4Q27.8 172.85 26.2 174.1M23.3,169.15Q21.5 169.55 19.7 170.95M21.9,176.4Q20.3 176.85 18.7 178.1M12.55,171.6Q10.75 172 8.95 173.4M15.8,173.15Q14 173.55 12.2 174.95M80.55,157.45L80.05 157.6Q78.85 157.95 77.65 158.75L76.95 159.25M77.55,155.85Q75.75 156.25 73.95 157.65M78.6,148.85Q77 149.3 75.4 150.55M67.35,158Q65.55 158.4 63.75 159.8M70.6,152.6Q69 153.05 67.4 154.3M64.5,149.35Q62.7 149.75 60.9 151.15M67.75,150.95Q66.05 151.35 64.35 152.6M73.6,161.15L73.1 161.3Q71.9 161.65 70.7 162.45L70 162.95M76.85,162.7Q75.05 163.1 73.25 164.5M79.8,164.4Q78.15 164.8 76.5 166.1M70.6,159.55Q68.8 159.95 67 161.35M74.3,154.3Q72.5 154.7 70.7 156.1M57.55,153.05Q55.75 153.45 53.95 154.85M54.3,151.5Q52.5 151.9 50.7 153.3M43.9,166.15Q42.3 166.6 40.7 167.85M47.6,167.85Q45.8 168.25 44 169.65M53.85,171L53.35 171.15Q52.15 171.5 50.95 172.3L50.25 172.8M50.85,169.4Q49.05 169.8 47.25 171.2M51.25,149.8Q49.5 150.2 47.7 151.55M56.6,178.45Q54.85 178.85 53.05 180.2M59.65,180.15Q57.85 180.55 56.05 181.95M60.05,174.25Q58.4 174.65 56.75 175.95M46.85,173.75L46.35 173.9Q45.15 174.25 43.95 175.05L43.25 175.55M50.1,175.3Q48.3 175.7 46.5 177.1M45.55,180.5Q43.9 180.9 42.25 182.2M49.1,181.95Q47.35 182.35 45.55 183.7M47.9,189.2Q46.1 189.6 44.3 191M44.65,187.65Q42.85 188.05 41.05 189.45M52.15,183.65Q50.35 184.05 48.55 185.45M55.4,185.2Q53.6 185.6 51.8 187M53.05,177Q51.4 177.4 49.75 178.7M69.9,178.95Q68.1 179.35 66.3 180.75M66.65,177.4Q64.85 177.8 63.05 179.2M62.9,181.7Q61.1 182.1 59.3 183.5M60.8,154.65Q59.1 155.05 57.4 156.3M63.6,175.7Q61.85 176.1 60.05 177.45M63.65,156.3Q62.05 156.75 60.45 158M57.1,172.55Q55.3 172.95 53.5 174.35M42.6,178.8Q40.8 179.2 39 180.6M41.6,185.95Q39.85 186.35 38.05 187.7M41.05,164.5Q39.35 164.9 37.65 166.15M40.6,170.6Q38.8 171 37 172.4M40.65,129.65Q38.85 130.05 37.05 131.45M61.25,147.8Q59.45 148.2 57.65 149.6M43.85,172.15Q42.05 172.55 40.25 173.95M47.7,148.35Q46.05 148.75 44.4 150.05M42.2,138.25Q40.4 138.65 38.6 140.05M43.7,131.35Q41.9 131.75 40.1 133.15M75.75,147.2Q74.05 147.6 72.35 148.85M5.95,146.95Q4.15 147.35 2.35 148.75M41.9,122.25Q40.1 122.65 38.3 124.05M41.75,105.9Q40 106.3 38.2 107.65M159.95,101.4Q158.15 101.8 156.35 103.2M155.45,107.25Q153.75 107.65 152.05 108.9M158.3,108.9Q156.7 109.35 155.1 110.6M156.7,99.85Q154.9 100.25 153.1 101.65M148.95,104.1Q147.15 104.5 145.35 105.9M145.9,102.4Q144.15 102.8 142.35 104.15M150.3,119.6Q148.5 120 146.7 121.4M150.3,112.65Q148.7 113.1 147.1 114.35M153.3,121.2L152.8 121.35Q151.6 121.7 150.4 122.5L149.7 123M147.05,118.05Q145.25 118.45 143.45 119.85M160.25,117.5L159.75 117.65Q158.55 118 157.35 118.8L156.65 119.3M157.25,115.9Q155.45 116.3 153.65 117.7M152.2,105.65Q150.4 106.05 148.6 107.45M147.45,111Q145.75 111.4 144.05 112.65M154,114.35Q152.2 114.75 150.4 116.15M136.15,97.7Q134.7 98 133.25 99L132.55 99.5M139.4,99.25Q137.9 99.6 136.35 100.65L135.8 101.05M137.9,106.15Q136.15 106.55 134.35 107.9M140.95,107.85Q139.15 108.25 137.35 109.65M127.4,108.4Q125.75 108.8 124.1 110.1M131.4,103Q129.9 103.35 128.35 104.4L127.8 104.8M128.15,101.45Q126.7 101.75 125.25 102.75L124.55 103.25M125.15,99.85Q123.35 100.25 121.55 101.65M137.25,113.1Q135.45 113.5 133.65 114.9M140.5,114.7Q138.8 115.1 137.1 116.35M134,111.55Q132.2 111.95 130.4 113.35M130.95,109.85Q129.2 110.25 127.4 111.6M134.35,104.7Q132.7 105.1 131.05 106.4M137.05,132.5Q135.25 132.9 133.45 134.3M133.8,130.95L133.3 131.1Q132.1 131.45 130.9 132.25L130.2 132.75M140,134.2Q138.35 134.6 136.7 135.9M126.8,133.7L126.3 133.85Q125.1 134.2 123.9 135L123.2 135.5M130.8,129.35Q129 129.75 127.2 131.15M127.55,127.8Q125.75 128.2 123.95 129.6M129.05,141.9Q127.3 142.3 125.5 143.65M125.5,140.45Q123.85 140.85 122.2 142.15M135.35,145.15Q133.55 145.55 131.75 146.95M139.6,140.1Q137.8 140.5 136 141.9M136.55,138.4Q134.8 138.8 133 140.15M132.1,143.6Q130.3 144 128.5 145.4M130.05,135.25Q128.25 135.65 126.45 137.05M133,136.95Q131.35 137.35 129.7 138.65M159.5,124.45Q157.85 124.85 156.2 126.15M149.85,138.9Q148.05 139.3 146.25 140.7M146.6,137.35Q144.8 137.75 143 139.15M149.15,145Q147.35 145.4 145.55 146.8M156.15,142.25L154.85 142.7Q153.7 143.15 152.55 144.05M159.4,143.8Q157.6 144.2 155.8 145.6M152.4,146.55Q150.6 146.95 148.8 148.35M142.85,141.65Q141.05 142.05 139.25 143.45M143.55,135.65Q141.8 136.05 140 137.4M142.35,100.95Q140.7 101.35 139.05 102.65M143.35,116.35Q141.75 116.8 140.15 118.05M156.55,122.75Q154.75 123.15 152.95 124.55M144.2,109.4Q142.4 109.8 140.6 111.2M121.2,105.15Q119.75 105.45 118.3 106.45L117.6 106.95M118.2,103.55Q116.4 103.95 114.6 105.35M124.45,106.7Q122.95 107.05 121.4 108.1L120.85 108.5M111.7,100.4L111.05 100.6Q109.6 101.05 108.1 102.2M104.95,116.45Q103.45 116.8 101.9 117.85L101.35 118.25M107.9,118.15Q106.25 118.55 104.6 119.85M114.5,121.3Q112.7 121.7 110.9 123.1M111.45,119.6Q109.7 120 107.9 121.35M114.95,102Q113.15 102.4 111.35 103.8M92.2,110.15L91.55 110.35Q90.1 110.8 88.6 111.95M85.9,106.9Q84.1 107.3 82.3 108.7M88.95,108.6Q87.15 109 85.35 110.4M85.2,112.9L84.55 113.1Q83.1 113.55 81.6 114.7M88.45,114.5Q86.65 114.9 84.85 116.3M87.2,121.15Q85.75 121.45 84.3 122.45L83.6 122.95M97.95,119.2Q96.45 119.55 94.9 120.6L94.35 121M94.7,117.65Q93.25 117.95 91.8 118.95L91.1 119.45M100.9,120.9Q99.25 121.3 97.6 122.6M95.45,111.75Q93.65 112.15 91.85 113.55M101.7,114.9Q100.25 115.2 98.8 116.2L98.1 116.7M98.7,113.3Q96.9 113.7 95.1 115.1M91.7,116.05Q89.9 116.45 88.1 117.85M96.95,125.85Q95.2 126.25 93.4 127.6M100,127.55Q98.2 127.95 96.4 129.35M95.75,133.1Q93.95 133.5 92.15 134.9M90.45,122.7Q88.95 123.05 87.4 124.1L86.85 124.5M85.9,128.4Q84.25 128.8 82.6 130.1M89.45,129.85Q87.7 130.25 85.9 131.6M88,137.1Q86.2 137.5 84.4 138.9M90.05,146.3Q88.25 146.7 86.45 148.1M86.35,144.6Q84.75 145.05 83.15 146.3M97.8,142.05Q96 142.45 94.2 143.85M101.05,143.6Q99.25 144 97.45 145.4M104.05,145.2L103.55 145.35Q102.35 145.7 101.15 146.5L100.45 147M91.25,138.7Q89.55 139.1 87.85 140.35M94.1,140.35Q92.5 140.8 90.9 142.05M99,134.7Q97.3 135.1 95.6 136.35M84.75,135.55Q82.95 135.95 81.15 137.35M92.5,131.55Q90.7 131.95 88.9 133.35M93.4,124.4Q91.75 124.8 90.1 126.1M121,124.45Q119.3 124.85 117.6 126.1M120.55,130.55Q118.75 130.95 116.95 132.35M116.85,128.85Q115.25 129.3 113.65 130.55M107.5,124.05Q105.7 124.45 103.9 125.85M110.75,125.6Q108.95 126 107.15 127.4M106.5,130.7Q104.8 131.1 103.1 132.35M109.35,132.35Q107.75 132.8 106.15 134.05M111.8,141.2L111.3 141.35Q110.1 141.7 108.9 142.5L108.2 143M105.55,138.05Q103.75 138.45 101.95 139.85M108.8,139.6Q107 140 105.2 141.4M118,144.45Q116.35 144.85 114.7 146.15M115.05,142.75Q113.25 143.15 111.45 144.55M119.3,137.2L118.8 137.35Q117.6 137.7 116.4 138.5L115.7 139M113.05,134.05Q111.25 134.45 109.45 135.85M116.3,135.6Q114.5 136 112.7 137.4M114,127.2Q112.3 127.6 110.6 128.85M103.25,129.1Q101.45 129.5 99.65 130.9M101.85,136.35Q100.25 136.8 98.65 138.05M117.75,122.85Q115.95 123.25 114.15 124.65M104.45,122.35Q102.7 122.75 100.9 124.1M120.1,153.15Q118.3 153.55 116.5 154.95M116.85,151.6Q115.05 152 113.25 153.4M109.1,155.85Q107.3 156.25 105.5 157.65M106.05,154.15Q104.3 154.55 102.5 155.9M110.9,165Q109.1 165.4 107.3 166.8M106.15,170.3Q104.35 170.7 102.55 172.1M120.65,169.7Q118.85 170.1 117.05 171.5M117.4,168.15Q115.6 168.55 113.8 169.95M114.15,166.55Q112.35 166.95 110.55 168.35M118.65,160.75Q116.85 161.15 115.05 162.55M112.35,157.4Q110.55 157.8 108.75 159.2M113.8,149.9Q112.05 150.3 110.25 151.65M96.3,149.45L95.8 149.6Q94.6 149.95 93.4 150.75L92.7 151.25M98.3,158.4Q96.55 158.8 94.75 160.15M94.75,156.95Q93.1 157.35 91.45 158.65M99.55,151Q97.75 151.4 95.95 152.8M88.55,153.7L88.05 153.85Q86.85 154.2 85.65 155L84.95 155.5M85.55,152.1Q83.75 152.5 81.95 153.9M86.4,167.55Q84.6 167.95 82.8 169.35M89.65,169.1Q87.85 169.5 86.05 170.9M90.3,162.15Q88.55 162.55 86.75 163.9M96.6,165.4Q94.8 165.8 93 167.2M86.75,160.7Q85.1 161.1 83.45 162.4M91.8,155.25Q90 155.65 88.2 157.05M93.35,163.85Q91.55 164.25 89.75 165.65M99.2,174Q97.4 174.4 95.6 175.8M118.5,183.55Q116.7 183.95 114.9 185.35M118.95,176.7L118.3 176.9Q116.85 177.35 115.35 178.5M115.7,175.15Q113.9 175.55 112.1 176.95M115.25,182Q113.45 182.4 111.65 183.8M108.75,178.85Q106.95 179.25 105.15 180.65M105.7,177.15Q103.9 177.55 102.1 178.95M112,180.4L111.35 180.6Q109.9 181.05 108.4 182.2M121.5,185.15Q120.05 185.45 118.6 186.45L117.9 186.95M112.65,173.45Q110.85 173.85 109.05 175.25M109.4,171.9Q107.6 172.3 105.8 173.7M95.95,172.45Q94.15 172.85 92.35 174.25M102.45,175.6Q100.65 176 98.85 177.4M102.9,168.75Q101.1 169.15 99.3 170.55M104.6,161.65Q102.8 162.05 101 163.45M102.5,152.7Q100.85 153.1 99.2 154.4M101.35,160.1Q99.55 160.5 97.75 161.9M158.9,149.7Q157.1 150.1 155.3 151.5M157.7,156.45L157.05 156.65Q155.6 157.1 154.1 158.25M161.95,151.4Q160.15 151.8 158.35 153.2M160.95,158.05Q159.15 158.45 157.35 159.85M148.15,151.65Q146.35 152.05 144.55 153.45M151.4,153.2Q149.6 153.6 147.8 155M146.95,158.9Q145.15 159.3 143.35 160.7M150.2,160.45L149.55 160.65Q148.1 161.1 146.6 162.25M145.7,166.05Q143.9 166.45 142.1 167.85M142.45,164.45L141.8 164.65Q140.35 165.1 138.85 166.25M151.95,169.2Q150.5 169.5 149.05 170.5L148.35 171M148.95,167.6Q147.15 168 145.35 169.4M156.7,163.6Q154.9 164 153.1 165.4M159.7,165.2Q158.25 165.5 156.8 166.5L156.1 167M162.95,166.75Q161.45 167.1 159.9 168.15L159.35 168.55M155.2,170.75Q153.7 171.1 152.15 172.15L151.6 172.55M153.45,162.05Q151.65 162.45 149.85 163.85M154.45,154.9Q152.65 155.3 150.85 156.7M141.65,148.5Q139.85 148.9 138.05 150.3M140.65,155.65Q138.85 156.05 137.05 157.45M137.4,154.05Q135.6 154.45 133.8 155.85M126.4,156.5Q124.6 156.9 122.8 158.3M129.65,158.05Q127.85 158.45 126.05 159.85M127.85,149.15Q126.05 149.55 124.25 150.95M126.95,172.95L126.3 173.15Q124.85 173.6 123.35 174.75M131.45,167.15Q129.65 167.55 127.85 168.95M125.15,163.9Q123.35 164.3 121.55 165.7M128.4,165.45Q126.6 165.85 124.8 167.25M139.2,162.9Q137.4 163.3 135.6 164.7M134.7,168.7L134.05 168.9Q132.6 169.35 131.1 170.5M137.95,170.3Q136.15 170.7 134.35 172.1M136.15,161.2Q134.35 161.6 132.55 163M132.9,159.65Q131.1 160.05 129.3 161.45M134.15,152.5Q132.35 152.9 130.55 154.3M144.2,173.45Q142.75 173.75 141.3 174.75L140.6 175.25M139.7,179.25Q138.2 179.6 136.65 180.65L136.1 181.05M136.45,177.7Q135 178 133.55 179L132.85 179.5M130.2,174.55Q128.4 174.95 126.6 176.35M131.7,183Q130.2 183.35 128.65 184.4L128.1 184.8M128.45,181.45Q127 181.75 125.55 182.75L124.85 183.25M125.45,179.85Q123.65 180.25 121.85 181.65M124.75,186.7Q123.25 187.05 121.7 188.1L121.15 188.5M127.7,188.4Q126.05 188.8 124.4 190.1M131.25,189.85Q129.5 190.25 127.7 191.6M137.55,193.1Q135.75 193.5 133.95 194.9M138.2,186.15Q136.45 186.55 134.65 187.9M141.25,187.85Q139.45 188.25 137.65 189.65M140.8,194.7Q139.1 195.1 137.4 196.35M134.3,191.55Q132.5 191.95 130.7 193.35M134.65,184.7Q133 185.1 131.35 186.4M133.45,176.1Q131.65 176.5 129.85 177.9M157,179.85Q155.2 180.25 153.4 181.65M161.7,173.9Q159.95 174.3 158.15 175.65M160.25,181.4Q158.45 181.8 156.65 183.2M146.2,182.4Q144.45 182.8 142.65 184.15M147.45,175Q145.95 175.35 144.4 176.4L143.85 176.8M150.4,176.7Q148.75 177.1 147.1 178.4M150.6,192.65Q149 193.1 147.4 194.35M147.75,191Q146.05 191.4 144.35 192.65M155.75,187.25Q154.05 187.65 152.35 188.9M157.55,195.9Q155.75 196.3 153.95 197.7M158.6,188.9Q157 189.35 155.4 190.6M160.55,197.5L160.05 197.65Q158.85 198 157.65 198.8L156.95 199.3M154.3,194.35Q152.5 194.75 150.7 196.15M152.5,185.65Q150.7 186.05 148.9 187.45M149.25,184.1Q147.45 184.5 145.65 185.9M153.95,178.15Q152.2 178.55 150.4 179.9M142.65,180.95Q141 181.35 139.35 182.65M141.2,171.85Q139.4 172.25 137.6 173.65M144.5,189.4Q142.7 189.8 140.9 191.2M158.15,172.45Q156.5 172.85 154.85 174.15M143.9,157.2Q142.1 157.6 140.3 159M144.9,150.05Q143.1 150.45 141.3 151.85M122.2,178.3Q120.4 178.7 118.6 180.1M121.9,162.3Q120.1 162.7 118.3 164.1M123.7,171.4Q121.9 171.8 120.1 173.2M155.65,148.15Q153.85 148.55 152.05 149.95M121.55,145.9Q119.8 146.3 118 147.65M122.55,138.75Q120.75 139.15 118.95 140.55M124.6,147.6Q122.8 148 121 149.4M123.8,132.1Q122 132.5 120.2 133.9M93.3,147.85Q91.5 148.25 89.7 149.65M110.25,148.45Q108.6 148.85 106.95 150.15M107.3,146.75Q105.5 147.15 103.7 148.55M123.85,126.1Q122.25 126.55 120.65 127.8M81.7,133.85Q79.95 134.25 78.15 135.6M81.95,111.35Q80.15 111.75 78.35 113.15M121.9,98.3Q120.1 98.7 118.3 100.1M83.35,165.85Q81.6 166.25 79.8 167.6M83.8,159Q82 159.4 80.2 160.8M82.3,150.55Q80.5 150.95 78.7 152.35M83.5,142.95Q81.8 143.35 80.1 144.6M84.2,119.55Q82.4 119.95 80.6 121.35M82.65,105.35Q80.85 105.75 79.05 107.15M108.45,98.85Q106.65 99.25 104.85 100.65M153.65,98.15Q151.9 98.55 150.1 99.9M42.75,98.75Q40.95 99.15 39.15 100.55M56.75,98.4Q55 98.8 53.2 100.15M70.05,98.9Q68.25 99.3 66.45 100.7M66.8,97.35Q65 97.75 63.2 99.15M11.45,98.7Q9.75 99.1 8.05 100.35M25.75,98.05Q23.95 98.45 22.15 99.85M83.4,63Q81.7 63.4 80 64.65M83.7,79.05Q81.9 79.45 80.1 80.85M84.1,39.6Q82.3 40 80.5 41.4M81.85,31.4Q80.05 31.8 78.25 33.2M82.55,25.4Q80.75 25.8 78.95 27.2M83.25,85.9Q81.5 86.3 79.7 87.65M82.2,70.6Q80.4 71 78.6 72.4M81.6,53.9Q79.85 54.3 78.05 55.65M159.8,204.45Q158.15 204.85 156.5 206.15M156.85,202.75Q155.05 203.15 153.25 204.55M153.6,201.2L153.1 201.35Q151.9 201.7 150.7 202.5L150 203M147.35,198.05Q145.55 198.45 143.75 199.85M150.6,199.6Q148.8 200 147 201.4M24.65,201.7Q22.85 202.1 21.05 203.5M18.35,198.45Q16.6 198.85 14.8 200.2M16.65,205.45Q14.85 205.85 13.05 207.25M3.85,199.05Q2.05 199.45 0.25 200.85M6.8,200.75Q5.15 201.15 3.5 202.45M6.45,207.6Q4.65 208 2.85 209.4M10.35,202.2Q8.6 202.6 6.8 203.95M9.7,209.15Q7.9 209.55 6.1 210.95M13.4,203.9Q11.6 204.3 9.8 205.7M21.4,200.15Q19.6 200.55 17.8 201.95M176.6,205.45Q174.8 205.85 173 207.25M181.35,200.15Q179.55 200.55 177.75 201.95M178.3,198.45Q176.55 198.85 174.75 200.2M166.4,207.6Q164.6 208 162.8 209.4M166.75,200.75Q165.1 201.15 163.45 202.45M170.3,202.2Q168.55 202.6 166.75 203.95M169.65,209.15Q167.85 209.55 166.05 210.95M173.35,203.9Q171.55 204.3 169.75 205.7M184.6,201.7Q182.8 202.1 181 203.5M163.35,205.9Q161.6 206.3 159.8 207.65M162.3,190.6Q160.5 191 158.7 192.4M162.65,145.4Q160.85 145.8 159.05 147.2M143.65,196.35Q142.05 196.8 140.45 198.05M164.2,159.6Q162.4 160 160.6 161.4M192.35,197.45Q190.55 197.85 188.75 199.25M174.75,197Q173.1 197.4 171.45 198.7M163.8,199.05Q162 199.45 160.2 200.85M165.55,192.15Q163.75 192.55 161.95 193.95M164.75,175.6Q162.95 176 161.15 177.4M163.5,183Q161.8 183.4 160.1 184.65M162,110.6Q160.2 111 158.4 112.4M163.05,125.9Q161.3 126.3 159.5 127.65M162.35,65.4Q160.55 65.8 158.75 67.2M14.8,197Q13.15 197.4 11.5 198.7M32.4,197.45Q30.6 197.85 28.8 199.25M163.9,79.6Q162.1 80 160.3 81.4M163.5,119.05Q161.7 119.45 159.9 120.85M165.25,112.15Q163.45 112.55 161.65 113.95M163.2,103Q161.5 103.4 159.8 104.65M164.45,95.6Q162.65 96 160.85 97.4M0.3,181.4Q-1.5 181.8 -3.3 183.2M1,158.05Q-0.8 158.45 -2.6 159.85M3.4,205.9Q1.65 206.3 -0.15 207.65M2.35,190.6Q0.55 191 -1.25 192.4M1.75,173.9Q0 174.3 -1.8 175.65M2.7,145.4Q0.9 145.8 -0.9 147.2M2,151.4Q0.2 151.8 -1.6 153.2M0,124.4Q-1.65 124.8 -3.3 126.1M1.9,93.85Q0.15 94.25 -1.65 95.6M0.45,101.35Q-1.35 101.75 -3.15 103.15M2.15,71.35Q0.35 71.75 -1.45 73.15M1.15,78Q-0.65 78.4 -2.45 79.8M2.5,110.55Q0.7 110.95 -1.1 112.35M2.85,65.35Q1.05 65.75 -0.75 67.15M0.3,21.4Q-1.5 21.8 -3.3 23.2M3.4,45.9Q1.65 46.3 -0.15 47.65M2.35,30.6Q0.55 31 -1.25 32.4M1.75,13.9Q0 14.3 -1.8 15.65M1,-1.95Q-0.8 -1.55 -2.6 -0.15M2,-8.6Q0.2 -8.2 -1.6 -6.8M2.7,-14.6Q0.9 -14.2 -0.9 -12.8M-13,-1.1Q-14.8 -0.7 -16.6 0.7M-27.05,-0.35Q-28.85 0.05 -30.65 1.45M31.5,-0.35Q29.75 0.05 27.95 1.4M4.25,-0.4Q2.45 0 0.65 1.4" />
<path style="fill:none;stroke-width:0.5;stroke-linecap:round;stroke-linejoin:round;stroke-miterlimit:3;stroke:#293726;stroke-opacity:1" d="M0.5,-23.25L80.6 16.75L80.6 16.9L160.45 56.75L160.45 56.9L240.2 96.75L240.3 96.7L320.4 136.7M-74.15,14.15L-79.25 16.7L-79.2 16.7Q-39.2 36.65 0.75 56.65L5.65 54.2L-74.15 14.15L-5 -20.5L74.75 19.6L74.85 19.5L80.35 16.75L80.45 16.8M-79.25,16.7L-79.25 16.75L-79.2 16.7M-79.15,96.85L-79.1 96.85L-79.1 96.8L-79.15 96.85L-79.3 96.75L-84.8 99.5L-84.65 99.55L-5.1 139.55L-5 139.5L0.5 136.75L0.65 136.85L0.7 136.8L0.7 136.7L-79 96.9L-79.05 96.9L-79.1 96.85M0.7,136.7L0.7 136.65L0.75 136.65L-79.1 96.65L-79.1 96.75L-79.1 96.8M-153.85,54.1L-74.05 94.15L-74 94.1L-4.95 59.55L-84.7 19.45L-153.85 54.1L-158.95 56.65L-79.1 96.65L-74.05 94.15M-4.95,59.55L-4.85 59.45L0.6 56.75L0.6 56.7L0.75 56.65M-158.95,56.65L-158.95 56.85L-79.1 96.75M-158.95,56.85L-159.15 56.75L-164.65 59.5L-84.9 99.6L-84.8 99.5M-74.15,174.2L-153.95 134.15L-154 134.2L-159.05 136.7L-79.2 176.7L-74.15 174.2L-74.15 174.15L-5.1 139.55M-159.05,140.7L-159.05 136.7L-238.9 96.7L-238.9 100.7L-159.05 140.7L-79.25 180.7L-79.25 176.7L-79.2 176.7M-84.9,99.6L-153.95 134.15M-79.25,180.7L0.7 220.75L0.7 216.75L-79.25 176.7M-74.15,174.15L-74 174.2L5.75 214.25M6.15,214.05L74.85 179.65L-5 139.5M-79.25,16.75L-84.7 19.45M-154,134.2L-233.8 94.15L-238.9 96.7M-233.8,94.15L-164.65 59.5M74.85,19.5L154.55 59.55L154.65 59.5L154.8 59.6L234.5 99.65L234.8 99.45L240.2 96.75M234.8,99.45L234.85 99.45L314.65 139.6L320.4 136.7M320.4,136.75L320.4 140.7L314.7 143.55L245.15 178.4L240.55 180.7L240.55 180.75L234.85 183.6Q200.05 201 165.3 218.45L160.65 220.75L80.7 180.7L80.65 180.7L80.6 180.7L80.6 180.75L74.9 183.6Q40.1 201 5.35 218.45L0.7 220.75M165.4,134.25L85.65 94.25L85.6 94.2L85.5 94.15L85.5 94.2L80.6 96.65L80.4 96.7L80.45 96.7L160.5 136.7L160.55 136.65L164.9 134.5L165.65 134.1L234.5 99.65M240.55,180.7L240.55 176.75L240.5 176.8L234.8 179.65L234.85 183.6M240.55,176.75L240.5 176.75L160.55 136.8L160.45 136.75L154.95 139.5L234.8 179.65L166.1 214.05M165.2,214.5L165.3 218.45M240.5,176.75L240.5 176.7L160.55 136.65L160.55 136.8L160.55 136.7M314.7,143.55L314.65 139.6L245.95 174M245.05,174.45L245.15 178.4M245.05,174.45Q242.8 175.55 240.5 176.7M245.55,174.2L165.65 134.1M154.65,59.5L160.15 56.75L160.3 56.85L160.45 56.75M160.45,56.9L160.3 56.85M85.5,94.15L154.55 59.55M80.6,16.75L80.45 16.8L80.6 16.9M0.6,56.75L0.65 56.7L0.6 56.7M0.65,56.7L80.6 96.65M85.5,94.2L5.7 54.15L5.65 54.2M80.4,96.7L80.4 96.75L80.45 96.7M5.7,54.15L74.75 19.6M86.1,174L154.8 139.6L75.1 99.55L74.95 99.45L74.85 99.5L5.8 134.1L5.95 134.15L85.7 174.2M85.8,174.15L154.8 139.6L160.55 136.7L160.5 136.7M-74,94.1L5.8 134.15L5.8 134.1M0.65,136.85L0.7 136.85L0.7 136.8M0.7,136.85L0.85 136.95L80.6 176.75L80.6 180.7M5.8,134.15L0.75 136.65M80.6,176.75L74.85 179.65L74.9 183.6M80.7,180.7L80.7 176.7L85.2 174.45Q82.95 175.55 80.65 176.7L80.65 180.7M80.65,176.7L0.7 136.65M154.8,139.6L154.95 139.5M165.7,214.25L85.8 174.15L85.2 174.45M80.4,96.75L74.95 99.45M165.2,214.5L160.65 216.75L160.65 220.75M5.25,214.5L5.35 218.45M5.25,214.5L0.7 216.75M80.7,176.7L160.65 216.75M74.85,99.5L-4.85 59.45" />
<path style="fill:none;stroke-width:1;stroke-linecap:round;stroke-linejoin:round;stroke-miterlimit:3;stroke:#000000;stroke-opacity:1" d="M166.1,214.05L165.2 214.5M245.95,174L245.05 174.45M85.2,174.45L86.1 174M5.25,214.5L6.15 214.05" />
<path style="fill:none;stroke-width:0.5;stroke-linecap:round;stroke-linejoin:round;stroke-miterlimit:3;stroke:#293726;stroke-opacity:1" d="M-239,1.7L0.7 -118.25L0.9 -23.45L0.5 -23.25M320.4,136.7L320.45 41.45L1.25 -118.25M-5,-20.5L0.5 -23.25M-238.9,96.7L-238.9 2M320.4,136.7L320.4 136.75" />
</g>
</svg>
