<?xml version="1.0" encoding="utf-8"?>
<svg version="1.1" id="Layer_1"
xmlns="http://www.w3.org/2000/svg"
xmlns:xlink="http://www.w3.org/1999/xlink"
xmlns:author="http://www.sothink.com"
width="44px" height="60px"
xml:space="preserve">
<g id="919" transform="matrix(1, 0, 0, 1, 21.5, 59.5)">
<path style="fill:#FFFFFF;fill-opacity:1" d="M18.75,-55.35L18.4 -54.95L18.5 -54.85Q20.6 -52.8 20.8 -50.3L20.85 -49.7Q20.85 -48.05 20.05 -46.6L19.8 -46.15L18.4 -44.45L18.5 -44.35L18.2 -44.05L14.95 -43.15L14.95 -38.45L11.7 -37.75L8.55 -36.85L9.2 -35.25L12.55 -36.5L15.55 -37.1Q17.1 -37.1 17.7 -36.5Q18.5 -35.7 18.5 -34.5Q18.5 -33.4 17.75 -32.65Q16.7 -31.6 13.65 -31.4L12.4 -31.35L12.75 -29.85L14.25 -29.9L14.2 -27.15L12.7 -25.9L12.7 -19.85L12.7 -17.15L8.15 -17.15L8.15 -15.6L14.75 -15.6L15.9 -15.2Q16.45 -14.65 16.45 -13.55Q16.45 -12.5 15.9 -11.95Q15.45 -11.5 14.75 -11.5L8.15 -11.5L8.15 -10.55L1.35 -10.55L1.25 -10.55L-1.6 -10.55L-3.15 -9.05L-3.15 -2.5Q-3.15 -1.8 -3.6 -1.35Q-4.15 -0.8 -5.2 -0.8Q-6.3 -0.8 -6.85 -1.35Q-7.25 -1.8 -7.25 -2.5L-7.25 -9.05L-8.8 -9.05L-10.5 -10.15L-12.25 -14.05L-12.25 -16.45L-12.1 -16.45L-12.1 -17.95L-11.65 -18.35L-11.45 -18.5L-10.3 -19.9L-11.55 -20.9L-12.25 -19.95L-11.85 -30.9L-10.1 -43.7L-9.7 -43.35L-8.95 -44.05L-9.95 -45.15Q-11.4 -47 -11.45 -49.15L-11.45 -49.4L-11.4 -50.3Q-11.05 -52.6 -8.95 -54.55L-9.7 -55.3L-9.2 -59.25L-8.55 -58.95L-8.3 -59.5L-1.1 -59.5L-0.85 -58.95L0.4 -59.5L4.3 -59.5L5.5 -58.95L5.75 -59.5L13 -59.5L13.25 -58.95L14.5 -59.5L17.65 -56.45L18.75 -55.35M4.5,-51.7L4.45 -50.6L4 -48.15L2.95 -46.15L2 -46.15L2 -46.1L2 -42.85L3.35 -42.85L3.35 -44.8L10.55 -44.8L10.55 -42.85L11.95 -42.85L11.95 -46.1L11.95 -46.15L10.75 -46.15L10.75 -55.55L10.75 -55.6L4.5 -55.6L4.5 -55.55L4.5 -51.7M5.85,-54.25L9.35 -54.25L9.35 -46.1L4.4 -46.1L4.45 -46.15L4.95 -47.05L5.85 -50.6L5.85 -50.65L5.85 -51L5.85 -54.25M2.25,-38.5L-1.75 -37.75L-4.85 -36.85L-4.2 -35.25L-0.9 -36.5L2.1 -37.1Q3.65 -37.1 4.25 -36.5Q5.05 -35.7 5.05 -34.5Q5.05 -33.4 4.3 -32.65Q3.25 -31.6 0.25 -31.4L-1.05 -31.35L-0.7 -29.85Q3.25 -29.9 5.2 -31.4L5.6 -31.75Q6.6 -32.75 6.6 -34.6Q6.6 -36.4 5.5 -37.45Q4.45 -38.5 2.25 -38.5M-5,-44.55L-4.45 -44.55L-5 -43.1L-4.25 -43.1L-3.5 -44.65L-3.5 -46L-5 -46L-5 -44.55M-7.9,-44.55L-7.35 -44.55L-7.9 -43.1L-7.15 -43.1L-6.4 -44.65L-6.4 -46L-7.9 -46L-7.9 -44.55" />
<path style="fill:#000000;fill-opacity:1" d="M-10.7,-44.4L-11.45 -45.45Q-12.55 -47.2 -12.5 -49.3L-12.45 -50.3Q-12.25 -51.8 -11.45 -53.15L-9.7 -55.3L-8.95 -54.55Q-11.05 -52.6 -11.4 -50.3L-11.45 -49.4L-11.45 -49.15Q-11.4 -47 -9.95 -45.15L-8.95 -44.05L-9.7 -43.35L-10.1 -43.7L-10.7 -44.4M-13.7,-17.5Q-14.65 -17.5 -16.35 -18.6Q-17.55 -19.25 -18.25 -19.25Q-19.15 -19.25 -19.55 -18.7L-19.7 -18.5L-20.15 -17.75L-21.5 -18.5Q-21.1 -19.45 -20.3 -20.15L-19.7 -20.6L-18.35 -20.95Q-17.25 -20.95 -16.1 -20.15Q-14.45 -19.3 -13.55 -19.3Q-12.95 -19.3 -12.25 -19.95L-11.55 -20.9L-10.3 -19.9L-11.45 -18.5L-11.65 -18.35L-12.1 -17.95Q-12.8 -17.5 -13.7 -17.5M-1.65,-9.05L-1.65 -2.45Q-1.65 -1.2 -2.45 -0.4Q-3.35 0.5 -5.2 0.5Q-7.1 0.5 -8 -0.4Q-8.8 -1.2 -8.8 -2.45L-8.8 -9.05L-7.25 -9.05L-7.25 -2.5Q-7.25 -1.8 -6.85 -1.35Q-6.3 -0.8 -5.2 -0.8Q-4.15 -0.8 -3.6 -1.35Q-3.15 -1.8 -3.15 -2.5L-3.15 -9.05L-1.65 -9.05M14.8,-17.15Q16.05 -17.15 16.85 -16.35Q17.75 -15.45 17.75 -13.55Q17.75 -11.7 16.85 -10.8L16.55 -10.55Q15.8 -10 14.8 -10L8.15 -10L8.15 -10.55L8.15 -11.5L14.75 -11.5Q15.45 -11.5 15.9 -11.95Q16.45 -12.5 16.45 -13.55Q16.45 -14.65 15.9 -15.2L14.75 -15.6L8.15 -15.6L8.15 -17.15L12.7 -17.15L14.8 -17.15M15.7,-38.5Q17.9 -38.5 18.95 -37.45Q20.05 -36.4 20.05 -34.6Q20.05 -32.75 19.05 -31.75L18.65 -31.4Q17.05 -30.2 14.25 -29.9L12.75 -29.85L12.4 -31.35L13.65 -31.4Q16.7 -31.6 17.75 -32.65Q18.5 -33.4 18.5 -34.5Q18.5 -35.7 17.7 -36.5Q17.1 -37.1 15.55 -37.1L12.55 -36.5L9.2 -35.25L8.55 -36.85L11.7 -37.75L14.95 -38.45L15.7 -38.5M18.5,-44.35L18.4 -44.45L19.8 -46.15L20.05 -46.6Q20.85 -48.05 20.85 -49.7L20.8 -50.3Q20.6 -52.8 18.5 -54.85L18.4 -54.95L18.75 -55.35L17.65 -56.45L18.8 -55.35L19.1 -55.7Q21.65 -53.35 21.85 -50.3L21.9 -49.7Q21.9 -47.8 21 -46.15Q20.3 -44.9 19.1 -43.75L18.5 -44.35M4,-48.15L4.45 -50.6L4.5 -51.7L4.5 -55.55L10.75 -55.55L10.75 -46.15L10.75 -46.1L11.95 -46.1L11.95 -42.85L10.55 -42.85L10.55 -44.8L3.35 -44.8L3.35 -42.85L2 -42.85L2 -46.1L2.95 -46.1L4 -48.15M5.85,-51L5.85 -50.65L5.85 -50.6L4.95 -47.05L4.45 -46.15L4.4 -46.1L9.35 -46.1L9.35 -54.25L5.85 -54.25L5.85 -51M5.5,-37.45Q6.6 -36.4 6.6 -34.6Q6.6 -32.75 5.6 -31.75L5.2 -31.4Q3.25 -29.9 -0.7 -29.85L-1.05 -31.35L0.25 -31.4Q3.25 -31.6 4.3 -32.65Q5.05 -33.4 5.05 -34.5Q5.05 -35.7 4.25 -36.5Q3.65 -37.1 2.1 -37.1L-0.9 -36.5L-4.2 -35.25L-4.85 -36.85L-1.75 -37.75L2.25 -38.5Q4.45 -38.5 5.5 -37.45M-5,-46L-3.5 -46L-3.5 -44.65L-4.25 -43.1L-5 -43.1L-4.45 -44.55L-5 -44.55L-5 -46M-7.9,-46L-6.4 -46L-6.4 -44.65L-7.15 -43.1L-7.9 -43.1L-7.35 -44.55L-7.9 -44.55L-7.9 -46" />
<path style="fill:none;stroke-width:1;stroke-linecap:round;stroke-linejoin:round;stroke-miterlimit:3;stroke:#000000;stroke-opacity:1" d="M12.7,-19.85L12.7 -25.9M18.75,-55.35L17.65 -56.45" />
</g>
</svg>
