<?xml version="1.0" encoding="utf-8"?>
<svg version="1.1" id="Layer_1"
xmlns="http://www.w3.org/2000/svg"
xmlns:xlink="http://www.w3.org/1999/xlink"
xmlns:author="http://www.sothink.com"
width="285px" height="152px"
xml:space="preserve">
<g id="333" transform="matrix(1, 0, 0, 1, 272.5, 40)">
<path style="fill:#333333;fill-opacity:1" d="M-96,14.5L12 -39.5L12 -21.5L-96 32.5L-96 14.5M-254,93L-146 39L-146 57L-254 111L-254 93" />
<path style="fill:#999999;fill-opacity:1" d="M-96,32.5L-114 22.5L-96 14.5L-96 32.5" />
<path style="fill:#AAAAAA;fill-opacity:1" d="M-254,111L-272 101L-254 93L-254 111" />
<path style="fill:#000000;fill-opacity:0.2" d="M-114.6,23L-114.6 22.95L-114.9 22.95L-114.9 22.75L-96.7 32.9L-114.6 32.55L-114.6 28.9L-114.6 28.55L-114.6 28.4L-114.6 28.35L-114.6 23.35L-114.6 23.15L-114.6 23M-272,101.45L-253.8 111.6L-272 111.25L-272 101.45" />
<path style="fill:none;stroke-width:1;stroke-linecap:round;stroke-linejoin:round;stroke-miterlimit:3;stroke:#000000;stroke-opacity:1" d="M-96,14.5L12 -39.5L12 -21.5L-96 32.5L-114 22.5L-96 14.5L-96 32.5M-254,93L-146 39L-146 57L-254 111L-272 101L-254 93L-254 111" />
</g>
</svg>
