<?xml version="1.0" encoding="utf-8"?>
<svg version="1.1" id="Layer_1"
xmlns="http://www.w3.org/2000/svg"
xmlns:xlink="http://www.w3.org/1999/xlink"
xmlns:author="http://www.sothink.com"
width="80px" height="82px"
xml:space="preserve">
<g id="69" transform="matrix(1, 0, 0, 1, 55.85, 122.25)">
<path style="fill:#6D51D1;fill-opacity:1" d="M16,-44.55Q15.65 -44.75 15.65 -45.3L15.65 -75.85Q15.65 -76.4 16 -76.2L22.2 -73.2Q22.55 -73 22.55 -72.45L22.55 -41.9Q22.55 -41.35 22.2 -41.55L16 -44.55M17.75,-71.85L17.75 -71.65L18.1 -71.45L18.5 -71.25L18.5 -70.95L18 -71L17.65 -70.95L17.5 -70.65L17.6 -70.4L17.9 -70.15L18.2 -70.05L18.6 -70L18.65 -69.9L19 -69.8L18.9 -70L19.4 -70.15L19.75 -70.25L20.2 -69.9L20.35 -69.55L20.25 -69.4L19.9 -69.4L19.2 -69.65L19.35 -69.35Q20.1 -69.05 20.45 -69.05L20.75 -69.35L20.65 -69.65L20.35 -70L19.9 -70.35L19.95 -70.4L19.6 -70.65L19.5 -70.6L18.85 -70.85L18.85 -71.1L20.1 -70.65L20.1 -70.85L19.5 -71.05L19.25 -71.15L18.95 -71.25L19.05 -71.5L18.65 -71.75L18.55 -71.45L17.75 -71.85M18,-70.7L18.45 -70.8L18.55 -70.25L18 -70.3L17.85 -70.4L17.8 -70.55L18 -70.7M18.8,-70.65L19.35 -70.5L18.85 -70.3L18.8 -70.65M18.65,-68.35L18.65 -67.7L17.55 -68.2L17.55 -67.95L18.65 -67.5L18.65 -66.65L18.7 -66.45L18.85 -66.35L19.35 -66.05L20.45 -65.5L20.65 -65.45L20.8 -65.5L20.95 -65.65L20.6 -65.95L20.45 -65.75L20.05 -65.9L19.45 -66.2L19.15 -66.35L19.05 -66.45L19 -66.55L19 -67.3L21.1 -66.45L21.05 -66.65Q20.05 -67.05 19 -67.5L19 -68.15L18.65 -68.35M20.15,-64.15L18.55 -64.95L18.55 -64.75L19.75 -64.15L19.95 -63.25L20.3 -62.6L20.9 -61.95L21.2 -61.95L20.8 -62.4L20.5 -62.8L20.3 -63.2L20.15 -63.65L20.15 -64.15M18.95,-64.35L18.55 -64.6L18.25 -64.15L17.9 -63.85L17.45 -63.75L17.75 -63.45L18.05 -63.55L18.4 -63.65L18.65 -63.95L18.95 -64.35M19.5,-55.75L19.5 -57.8L19.2 -57.9L19.2 -55.85L19.5 -55.75M17.55,-54.25L21.1 -52.5L21.1 -52.7L17.55 -54.45L17.55 -54.25M17.55,-60.2L21.1 -58.5L21.1 -58.7L17.55 -60.4L17.55 -60.2M18.15,-60.75Q19.35 -60.15 20.5 -59.6L20.5 -59.8Q19.35 -60.35 18.15 -60.95L18.15 -60.75M17.85,-61.6L20.7 -60.2L20.7 -60.45L17.85 -61.85L17.85 -61.6" />
<path style="fill:#FFFFFF;fill-opacity:1" d="M18.55,-71.45L18.65 -71.75L19.05 -71.5L18.95 -71.25L19.25 -71.15L19.5 -71.05L20.1 -70.85L20.1 -70.65L18.85 -71.1L18.85 -70.85L19.5 -70.6L19.6 -70.65L19.95 -70.4L19.9 -70.35L20.35 -70L20.65 -69.65L20.75 -69.35L20.45 -69.05Q20.1 -69.05 19.35 -69.35L19.2 -69.65L19.9 -69.4L20.25 -69.4L20.35 -69.55L20.2 -69.9L19.75 -70.25L19.4 -70.15L18.9 -70L19 -69.8L18.65 -69.9L18.6 -70L18.2 -70.05L17.9 -70.15L17.6 -70.4L17.5 -70.65L17.65 -70.95L18 -71L18.5 -70.95L18.5 -71.25L18.1 -71.45L17.75 -71.65L17.75 -71.85L18.55 -71.45M17.8,-70.55L17.85 -70.4L18 -70.3L18.55 -70.25L18.45 -70.8L18 -70.7L17.8 -70.55M18.85,-70.3L19.35 -70.5L18.8 -70.65L18.85 -70.3M19,-68.15L19 -67.5Q20.05 -67.05 21.05 -66.65L21.1 -66.45L19 -67.3L19 -66.55L19.05 -66.45L19.15 -66.35L19.45 -66.2L20.05 -65.9L20.45 -65.75L20.6 -65.95L20.95 -65.65L20.8 -65.5L20.65 -65.45L20.45 -65.5L19.35 -66.05L18.85 -66.35L18.7 -66.45L18.65 -66.65L18.65 -67.5L17.55 -67.95L17.55 -68.2L18.65 -67.7L18.65 -68.35L19 -68.15M20.15,-63.65L20.3 -63.2L20.5 -62.8L20.8 -62.4L21.2 -61.95L20.9 -61.95L20.3 -62.6L19.95 -63.25L19.75 -64.15L18.55 -64.75L18.55 -64.95L20.15 -64.15L20.15 -63.65M18.65,-63.95L18.4 -63.65L18.05 -63.55L17.75 -63.45L17.45 -63.75L17.9 -63.85L18.25 -64.15L18.55 -64.6L18.95 -64.35L18.65 -63.95M19.2,-55.85L19.2 -57.9L19.5 -57.8L19.5 -55.75L19.2 -55.85M17.55,-54.45L21.1 -52.7L21.1 -52.5L17.55 -54.25L17.55 -54.45M17.55,-60.4L21.1 -58.7L21.1 -58.5L17.55 -60.2L17.55 -60.4M18.15,-60.95Q19.35 -60.35 20.5 -59.8L20.5 -59.6Q19.35 -60.15 18.15 -60.75L18.15 -60.95M17.85,-61.85L20.7 -60.45L20.7 -60.2L17.85 -61.6L17.85 -61.85" />
<path style="fill:none;stroke-width:1;stroke-linecap:round;stroke-linejoin:round;stroke-miterlimit:3;stroke:#333333;stroke-opacity:1" d="M22.2,-41.55Q22.55 -41.35 22.55 -41.9L22.55 -72.45Q22.55 -73 22.2 -73.2L16 -76.2Q15.65 -76.4 15.65 -75.85M15.65,-45.3Q15.65 -44.75 16 -44.55" />
<path style="fill:none;stroke-width:1;stroke-linecap:round;stroke-linejoin:round;stroke-miterlimit:3;stroke:#1E134A;stroke-opacity:1" d="M16,-44.55L22.2 -41.55" />
<path style="fill:none;stroke-width:1;stroke-linecap:round;stroke-linejoin:round;stroke-miterlimit:3;stroke:#DCD7F4;stroke-opacity:1" d="M15.65,-75.85L15.65 -45.3" />
<path style="fill:#343E31;fill-opacity:0.6" d="M24.1,-54.85L-55.85 -94.85L-55.85 -122.25L24.1 -82.2L24.1 -54.85M10.85,-75.45L10.8 -75.5L10.75 -75.5L10.85 -75.45M10.8,-62.2L10.65 -62.2L10.85 -62.1L10.8 -62.2" />
</g>
</svg>
