<?xml version="1.0" encoding="utf-8"?>
<svg version="1.1" id="Layer_1"
xmlns="http://www.w3.org/2000/svg"
xmlns:xlink="http://www.w3.org/1999/xlink"
xmlns:author="http://www.sothink.com"
width="82px" height="55px"
xml:space="preserve">
<g id="576" transform="matrix(1, 0, 0, 1, 50.5, 80.55)">
<path style="fill:#CCCCCC;fill-opacity:1" d="M29.95,-56L29.95 -60L29.85 -60.05L30.05 -59.95L30.05 -55.95L29.85 -55.85L29.8 -55.9L29.95 -56M-12,-36.95L-49.95 -55.95L-49.95 -56L-50 -56.05L-50 -56.95L-49.95 -57.4L-49.95 -59.95L-49.85 -60L-10.1 -79.9L-8.05 -78.95L29.85 -60.05L-10.15 -40.1L-10.15 -36.05L-8.55 -36.8L-10 -36.05L-10.1 -36L-10.15 -36L-12 -36.95M-10.2,-79.95L-10.15 -79.95L-10.65 -79.7L-10.2 -79.95" />
<path style="fill:#B3B3B3;fill-opacity:1" d="M-8.55,-36.8L-10.15 -36.05L-10.15 -40.1L29.85 -60.05L29.95 -60L29.95 -56L29.8 -55.9L29.8 -55.95L28.8 -55.4L-8.55 -36.8" />
<path style="fill:none;stroke-width:1;stroke-linecap:round;stroke-linejoin:round;stroke-miterlimit:3;stroke:#EEEEEE;stroke-opacity:1" d="M29.85,-60.05L-8.05 -78.95L-10.15 -80L-10.2 -79.95L-49.85 -60.05L-50 -59.95L-49.95 -59.95L-10.15 -40.1L29.85 -60.05L29.95 -60L29.95 -56L29.8 -55.9M28.8,-55.4L29.8 -55.9M-50,-56.95L-50 -56.05L-50 -55.95L-49.95 -55.95L-12 -36.95L-10.15 -36.05L-10.15 -40.1M-50,-56.95L-50 -57.25L-50 -59.95M28.8,-55.4L-8.55 -36.8L-10.15 -36.05" />
<path style="fill:#FEC61D;fill-opacity:1" d="M8,-67.4L7.9 -67.1Q7.9 -66.7 8.5 -66.4L9.9 -66.1Q10.75 -66.1 11.35 -66.4Q11.9 -66.7 11.9 -67.1L11.95 -67.2L11.9 -67.4L12.4 -66.6Q12.4 -66.1 11.7 -65.7Q10.95 -65.35 9.9 -65.35Q8.85 -65.35 8.15 -65.7Q7.4 -66.1 7.4 -66.6Q7.4 -67 8.15 -67.55L8.25 -67.65L8 -67.4M14.2,-64.25L14.1 -63.95Q14.1 -63.55 14.7 -63.25L16.1 -62.95L17.55 -63.25Q18.1 -63.55 18.1 -63.95L18.15 -64.05L18.1 -64.25L18.6 -63.45Q18.6 -62.95 17.9 -62.55L16.1 -62.2Q15.05 -62.2 14.35 -62.55Q13.6 -62.95 13.6 -63.45Q13.6 -63.85 14.35 -64.4L14.45 -64.5L14.2 -64.25M5.65,-64L5.6 -64.2L6.1 -63.4Q6.1 -62.9 5.4 -62.5Q4.65 -62.15 3.6 -62.15Q2.55 -62.15 1.85 -62.5Q1.1 -62.9 1.1 -63.4Q1.1 -63.8 1.85 -64.35L1.95 -64.45L1.7 -64.2L1.6 -63.9Q1.6 -63.5 2.2 -63.2L3.6 -62.9L5.05 -63.2Q5.6 -63.5 5.6 -63.9L5.65 -64M8.2,-61.35L7.95 -61.1L7.85 -60.8Q7.85 -60.4 8.45 -60.1Q9 -59.8 9.85 -59.8L11.3 -60.1Q11.85 -60.4 11.85 -60.8L11.9 -60.9L11.85 -61.1L12.35 -60.3Q12.35 -59.8 11.65 -59.4Q10.9 -59.05 9.85 -59.05Q8.8 -59.05 8.1 -59.4Q7.35 -59.8 7.35 -60.3Q7.35 -60.7 8.1 -61.25L8.2 -61.35M6.1,-57.15Q6.1 -56.65 5.4 -56.25Q4.65 -55.9 3.6 -55.9Q2.55 -55.9 1.85 -56.25Q1.1 -56.65 1.1 -57.15Q1.1 -57.55 1.85 -58.1L1.95 -58.2L1.7 -57.95L1.6 -57.65Q1.6 -57.25 2.2 -56.95L3.6 -56.65L5.05 -56.95Q5.6 -57.25 5.6 -57.65L5.65 -57.75L5.6 -57.95L6.1 -57.15M0.8,-51.4L0.55 -51.15L0.45 -50.85Q0.45 -50.45 1.05 -50.15L2.45 -49.85Q3.3 -49.85 3.9 -50.15Q4.45 -50.45 4.45 -50.85L4.5 -50.95L4.45 -51.15L4.95 -50.35Q4.95 -49.85 4.25 -49.45L2.45 -49.1Q1.4 -49.1 0.7 -49.45Q-0.05 -49.85 -0.05 -50.35Q-0.05 -50.75 0.7 -51.3L0.8 -51.4M8.25,-55.05L8 -54.8L7.9 -54.5Q7.9 -54.1 8.5 -53.8L9.9 -53.5Q10.75 -53.5 11.35 -53.8Q11.9 -54.1 11.9 -54.5L11.95 -54.6L11.9 -54.8L12.4 -54Q12.4 -53.5 11.7 -53.1Q10.95 -52.75 9.9 -52.75Q8.85 -52.75 8.15 -53.1Q7.4 -53.5 7.4 -54Q7.4 -54.4 8.15 -54.95L8.25 -55.05M14.45,-58.25L14.2 -58L14.1 -57.7Q14.1 -57.3 14.7 -57L16.1 -56.7L17.55 -57Q18.1 -57.3 18.1 -57.7L18.15 -57.8L18.1 -58L18.6 -57.2Q18.6 -56.7 17.9 -56.3L16.1 -55.95Q15.05 -55.95 14.35 -56.3Q13.6 -56.7 13.6 -57.2Q13.6 -57.6 14.35 -58.15L14.45 -58.25M24.9,-60.3Q24.9 -59.8 24.2 -59.4L22.4 -59.05Q21.35 -59.05 20.65 -59.4Q19.9 -59.8 19.9 -60.3Q19.9 -60.7 20.65 -61.25L20.75 -61.35L20.5 -61.1L20.4 -60.8Q20.4 -60.4 21 -60.1L22.4 -59.8L23.85 -60.1Q24.4 -60.4 24.4 -60.8L24.45 -60.9L24.4 -61.1L24.9 -60.3M-31.75,-67.4L-31.85 -67.1Q-31.85 -66.7 -31.25 -66.4L-29.85 -66.1Q-29 -66.1 -28.4 -66.4Q-27.85 -66.7 -27.85 -67.1L-27.8 -67.2L-27.85 -67.4Q-27.35 -66.95 -27.35 -66.6Q-27.35 -66.1 -28.05 -65.7L-29.85 -65.35Q-30.9 -65.35 -31.6 -65.7Q-32.35 -66.1 -32.35 -66.6L-31.6 -67.55L-31.5 -67.65L-31.75 -67.4M-25.55,-64.25L-25.65 -63.95Q-25.65 -63.55 -25.05 -63.25Q-24.5 -62.95 -23.65 -62.95Q-22.8 -62.95 -22.2 -63.25Q-21.65 -63.55 -21.65 -63.95L-21.6 -64.05L-21.65 -64.25Q-21.15 -63.8 -21.15 -63.45Q-21.15 -62.95 -21.85 -62.55Q-22.6 -62.2 -23.65 -62.2L-25.4 -62.55Q-26.15 -62.95 -26.15 -63.45Q-26.15 -63.85 -25.4 -64.4L-25.3 -64.5L-25.55 -64.25M-34.1,-64L-34.15 -64.2Q-33.65 -63.75 -33.65 -63.4Q-33.65 -62.9 -34.35 -62.5Q-35.1 -62.15 -36.15 -62.15L-37.9 -62.5Q-38.65 -62.9 -38.65 -63.4Q-38.65 -63.8 -37.9 -64.35L-37.8 -64.45L-38.05 -64.2L-38.15 -63.9Q-38.15 -63.5 -37.55 -63.2L-36.15 -62.9Q-35.3 -62.9 -34.7 -63.2Q-34.15 -63.5 -34.15 -63.9L-34.1 -64M-31.55,-61.35L-31.8 -61.1L-31.9 -60.8Q-31.9 -60.4 -31.3 -60.1L-29.9 -59.8Q-29.05 -59.8 -28.45 -60.1Q-27.9 -60.4 -27.9 -60.8L-27.85 -60.9L-27.9 -61.1Q-27.4 -60.65 -27.4 -60.3Q-27.4 -59.8 -28.1 -59.4Q-28.85 -59.05 -29.9 -59.05L-31.65 -59.4Q-32.4 -59.8 -32.4 -60.3Q-32.4 -60.7 -31.65 -61.25L-31.55 -61.35M-33.65,-57.15Q-33.65 -56.65 -34.35 -56.25Q-35.1 -55.9 -36.15 -55.9L-37.9 -56.25Q-38.65 -56.65 -38.65 -57.15Q-38.65 -57.55 -37.9 -58.1L-37.8 -58.2L-38.05 -57.95L-38.15 -57.65Q-38.15 -57.25 -37.55 -56.95L-36.15 -56.65Q-35.3 -56.65 -34.7 -56.95Q-34.15 -57.25 -34.15 -57.65L-34.1 -57.75L-34.15 -57.95Q-33.65 -57.5 -33.65 -57.15M-39.85,-60.3Q-39.85 -59.8 -40.55 -59.4Q-41.3 -59.05 -42.35 -59.05Q-43.4 -59.05 -44.1 -59.4Q-44.85 -59.8 -44.85 -60.3Q-44.85 -60.7 -44.1 -61.25L-44 -61.35L-44.25 -61.1L-44.35 -60.8Q-44.35 -60.4 -43.75 -60.1L-42.35 -59.8L-40.9 -60.1Q-40.35 -60.4 -40.35 -60.8L-40.3 -60.9L-40.35 -61.1L-39.85 -60.3M-31.75,-54.8L-31.85 -54.5Q-31.85 -54.1 -31.25 -53.8L-29.85 -53.5Q-29 -53.5 -28.4 -53.8Q-27.85 -54.1 -27.85 -54.5L-27.8 -54.6L-27.85 -54.8Q-27.35 -54.35 -27.35 -54Q-27.35 -53.5 -28.05 -53.1L-29.85 -52.75Q-30.9 -52.75 -31.6 -53.1Q-32.35 -53.5 -32.35 -54L-31.6 -54.95L-31.5 -55.05L-31.75 -54.8M-25.3,-58.25L-25.55 -58L-25.65 -57.7Q-25.65 -57.3 -25.05 -57Q-24.5 -56.7 -23.65 -56.7Q-22.8 -56.7 -22.2 -57Q-21.65 -57.3 -21.65 -57.7L-21.6 -57.8L-21.65 -58Q-21.15 -57.55 -21.15 -57.2Q-21.15 -56.7 -21.85 -56.3Q-22.6 -55.95 -23.65 -55.95L-25.4 -56.3Q-26.15 -56.7 -26.15 -57.2Q-26.15 -57.6 -25.4 -58.15L-25.3 -58.25M-24.2,-51.4L-24.45 -51.15L-24.55 -50.85Q-24.55 -50.45 -23.95 -50.15L-22.55 -49.85L-21.1 -50.15Q-20.55 -50.45 -20.55 -50.85L-20.5 -50.95L-20.55 -51.15Q-20.05 -50.7 -20.05 -50.35Q-20.05 -49.85 -20.75 -49.45Q-21.5 -49.1 -22.55 -49.1Q-23.6 -49.1 -24.3 -49.45Q-25.05 -49.85 -25.05 -50.35L-24.3 -51.3L-24.2 -51.4M-11.7,-57.7L-11.95 -57.45L-12.05 -57.15Q-12.05 -56.75 -11.45 -56.45L-10.05 -56.15Q-9.2 -56.15 -8.6 -56.45Q-8.05 -56.75 -8.05 -57.15L-8 -57.25L-8.05 -57.45Q-7.55 -57 -7.55 -56.65Q-7.55 -56.15 -8.25 -55.75Q-9 -55.4 -10.05 -55.4Q-11.1 -55.4 -11.8 -55.75Q-12.55 -56.15 -12.55 -56.65L-11.8 -57.6L-11.7 -57.7M-14.85,-60.3Q-14.85 -59.8 -15.55 -59.4Q-16.3 -59.05 -17.35 -59.05Q-18.4 -59.05 -19.1 -59.4Q-19.85 -59.8 -19.85 -60.3L-19.1 -61.25L-19 -61.35L-19.25 -61.1L-19.35 -60.8Q-19.35 -60.4 -18.75 -60.1Q-18.2 -59.8 -17.35 -59.8Q-16.5 -59.8 -15.9 -60.1Q-15.35 -60.4 -15.35 -60.8L-15.3 -60.9L-15.35 -61.1Q-14.85 -60.65 -14.85 -60.3M-18,-54.5L-18.25 -54.25L-18.35 -53.95Q-18.35 -53.55 -17.75 -53.25L-16.35 -52.95L-14.9 -53.25Q-14.35 -53.55 -14.35 -53.95L-14.3 -54.05L-14.35 -54.25L-13.85 -53.45Q-13.85 -52.95 -14.55 -52.55Q-15.3 -52.2 -16.35 -52.2Q-17.4 -52.2 -18.1 -52.55Q-18.85 -52.95 -18.85 -53.45L-18.1 -54.4L-18 -54.5M-11.75,-51.4L-12 -51.15L-12.1 -50.85Q-12.1 -50.45 -11.5 -50.15L-10.1 -49.85L-8.65 -50.15Q-8.1 -50.45 -8.1 -50.85L-8.05 -50.95L-8.1 -51.15Q-7.6 -50.7 -7.6 -50.35Q-7.6 -49.85 -8.3 -49.45L-10.1 -49.1Q-11.15 -49.1 -11.85 -49.45Q-12.6 -49.85 -12.6 -50.35L-11.85 -51.3L-11.75 -51.4M-4.25,-61.35L-4.5 -61.1L-4.6 -60.8Q-4.6 -60.4 -4 -60.1L-2.6 -59.8Q-1.75 -59.8 -1.15 -60.1Q-0.6 -60.4 -0.6 -60.8L-0.55 -60.9L-0.6 -61.1L-0.1 -60.3Q-0.1 -59.8 -0.8 -59.4Q-1.55 -59.05 -2.6 -59.05Q-3.65 -59.05 -4.35 -59.4Q-5.1 -59.8 -5.1 -60.3Q-5.1 -60.7 -4.35 -61.25L-4.25 -61.35M-5.75,-54.3L-5.85 -54Q-5.85 -53.6 -5.25 -53.3Q-4.7 -53 -3.85 -53Q-3 -53 -2.4 -53.3Q-1.85 -53.6 -1.85 -54L-1.8 -54.1L-1.85 -54.3Q-1.35 -53.85 -1.35 -53.5Q-1.35 -53 -2.05 -52.6Q-2.8 -52.25 -3.85 -52.25Q-4.9 -52.25 -5.6 -52.6Q-6.35 -53 -6.35 -53.5L-5.6 -54.45L-5.5 -54.55L-5.75 -54.3M-5.75,-48.05L-5.85 -47.75Q-5.85 -47.35 -5.25 -47.05Q-4.7 -46.75 -3.85 -46.75Q-3 -46.75 -2.4 -47.05Q-1.85 -47.35 -1.85 -47.75L-1.8 -47.85L-1.85 -48.05Q-1.35 -47.6 -1.35 -47.25Q-1.35 -46.75 -2.05 -46.35Q-2.8 -46 -3.85 -46Q-4.9 -46 -5.6 -46.35Q-6.35 -46.75 -6.35 -47.25L-5.6 -48.2L-5.5 -48.3L-5.75 -48.05M-11.95,-44.85L-12.05 -44.55Q-12.05 -44.15 -11.45 -43.85L-10.05 -43.55Q-9.2 -43.55 -8.6 -43.85Q-8.05 -44.15 -8.05 -44.55L-8 -44.65L-8.05 -44.85Q-7.55 -44.4 -7.55 -44.05Q-7.55 -43.55 -8.25 -43.15Q-9 -42.8 -10.05 -42.8Q-11.1 -42.8 -11.8 -43.15Q-12.55 -43.55 -12.55 -44.05L-11.8 -45L-11.7 -45.1L-11.95 -44.85M-18.25,-48L-18.35 -47.7Q-18.35 -47.3 -17.75 -47L-16.35 -46.7L-14.9 -47Q-14.35 -47.3 -14.35 -47.7L-14.3 -47.8L-14.35 -48L-13.85 -47.2Q-13.85 -46.7 -14.55 -46.3Q-15.3 -45.95 -16.35 -45.95Q-17.4 -45.95 -18.1 -46.3Q-18.85 -46.7 -18.85 -47.2L-18.1 -48.15L-18 -48.25L-18.25 -48" />
<path style="fill:#FEE294;fill-opacity:1" d="M11.35,-67.8L11.5 -67.75L11.8 -67.55L11.9 -67.4L11.95 -67.2L11.9 -67.1L11.5 -66.65L10.45 -66.45L9.35 -66.65Q8.9 -66.9 8.95 -67.2L9 -67.45L9.15 -67.6L9.1 -67.55L9.35 -67.75L10.45 -67.95L11.35 -67.8M17.55,-64.65L17.7 -64.6L18 -64.4L18.1 -64.25L18.15 -64.05L18.1 -63.95L17.7 -63.5L16.65 -63.3L15.55 -63.5Q15.1 -63.75 15.15 -64.05L15.2 -64.3L15.35 -64.45L15.3 -64.4L15.55 -64.6L16.65 -64.8L17.55 -64.65M5.6,-64.2L5.65 -64L5.6 -63.9L5.2 -63.45L4.15 -63.25L3.05 -63.45Q2.6 -63.7 2.65 -64L2.7 -64.25L2.85 -64.4L2.8 -64.35L3.05 -64.55L4.15 -64.75L5.05 -64.6L5.2 -64.55L5.5 -64.35L5.6 -64.2M11.45,-61.45L11.75 -61.25L11.85 -61.1L11.9 -60.9L11.85 -60.8L11.45 -60.35L10.4 -60.15L9.3 -60.35Q8.85 -60.6 8.9 -60.9L8.95 -61.15L9.1 -61.3L9.05 -61.25L9.3 -61.45L10.4 -61.65L11.3 -61.5L11.45 -61.45M5.2,-58.3L5.5 -58.1L5.6 -57.95L5.65 -57.75L5.6 -57.65L5.2 -57.2L4.15 -57L3.05 -57.2Q2.6 -57.45 2.65 -57.75L2.7 -58L2.85 -58.15L2.8 -58.1L3.05 -58.3L4.15 -58.5L5.05 -58.35L5.2 -58.3M4.05,-51.5L4.35 -51.3L4.45 -51.15L4.5 -50.95L4.45 -50.85L4.05 -50.4L3 -50.2L1.9 -50.4Q1.45 -50.65 1.5 -50.95L1.55 -51.2L1.7 -51.35L1.65 -51.3L1.9 -51.5L3 -51.7L3.9 -51.55L4.05 -51.5M11.5,-55.15L11.8 -54.95L11.9 -54.8L11.95 -54.6L11.9 -54.5L11.5 -54.05L10.45 -53.85L9.35 -54.05Q8.9 -54.3 8.95 -54.6L9 -54.85L9.15 -55L9.1 -54.95L9.35 -55.15L10.45 -55.35L11.35 -55.2L11.5 -55.15M17.7,-58.35L18 -58.15L18.1 -58L18.15 -57.8L18.1 -57.7L17.7 -57.25L16.65 -57.05L15.55 -57.25Q15.1 -57.5 15.15 -57.8L15.2 -58.05L15.35 -58.2L15.3 -58.15L15.55 -58.35L16.65 -58.55L17.55 -58.4L17.7 -58.35M24,-60.35L22.95 -60.15L21.85 -60.35Q21.4 -60.6 21.45 -60.9L21.5 -61.15L21.65 -61.3L21.6 -61.25L21.85 -61.45L22.95 -61.65L23.85 -61.5L24 -61.45L24.3 -61.25L24.4 -61.1L24.45 -60.9L24.4 -60.8L24 -60.35M-27.8,-67.2L-27.85 -67.1Q-27.9 -66.85 -28.25 -66.65L-29.3 -66.45L-30.4 -66.65L-30.8 -67.2L-30.75 -67.45L-30.6 -67.6L-30.65 -67.55L-30.4 -67.75L-29.3 -67.95L-28.4 -67.8L-28.25 -67.75L-27.95 -67.55L-27.85 -67.4L-27.8 -67.2M-22.2,-64.65L-22.05 -64.6L-21.75 -64.4L-21.65 -64.25L-21.6 -64.05L-21.65 -63.95L-22.05 -63.5L-23.1 -63.3L-24.2 -63.5Q-24.65 -63.75 -24.6 -64.05L-24.55 -64.3L-24.4 -64.45L-24.45 -64.4L-24.2 -64.6L-23.1 -64.8L-22.2 -64.65M-34.15,-64.2L-34.1 -64L-34.15 -63.9L-34.55 -63.45L-35.6 -63.25L-36.7 -63.45Q-37.15 -63.7 -37.1 -64L-37.05 -64.25L-36.9 -64.4L-36.95 -64.35L-36.7 -64.55L-35.6 -64.75L-34.7 -64.6L-34.55 -64.55L-34.25 -64.35L-34.15 -64.2M-28.3,-61.45L-28 -61.25L-27.9 -61.1L-27.85 -60.9L-27.9 -60.8Q-27.95 -60.55 -28.3 -60.35L-29.35 -60.15L-30.45 -60.35Q-30.9 -60.6 -30.85 -60.9L-30.8 -61.15L-30.65 -61.3L-30.7 -61.25L-30.45 -61.45L-29.35 -61.65L-28.45 -61.5L-28.3 -61.45M-34.55,-57.2L-35.6 -57L-36.7 -57.2Q-37.15 -57.45 -37.1 -57.75L-37.05 -58L-36.9 -58.15L-36.95 -58.1L-36.7 -58.3L-35.6 -58.5L-34.7 -58.35L-34.55 -58.3L-34.25 -58.1L-34.15 -57.95L-34.1 -57.75L-34.15 -57.65L-34.55 -57.2M-40.75,-60.35L-41.8 -60.15L-42.9 -60.35Q-43.35 -60.6 -43.3 -60.9L-43.25 -61.15L-43.1 -61.3L-43.15 -61.25L-42.9 -61.45L-41.8 -61.65L-40.9 -61.5L-40.75 -61.45L-40.45 -61.25L-40.35 -61.1L-40.3 -60.9L-40.35 -60.8L-40.75 -60.35M-28.4,-55.2L-28.25 -55.15L-27.95 -54.95L-27.85 -54.8L-27.8 -54.6L-27.85 -54.5Q-27.9 -54.25 -28.25 -54.05L-29.3 -53.85L-30.4 -54.05L-30.8 -54.6L-30.75 -54.85L-30.6 -55L-30.65 -54.95L-30.4 -55.15L-29.3 -55.35L-28.4 -55.2M-22.05,-58.35L-21.75 -58.15L-21.65 -58L-21.6 -57.8L-21.65 -57.7L-22.05 -57.25L-23.1 -57.05L-24.2 -57.25Q-24.65 -57.5 -24.6 -57.8L-24.55 -58.05L-24.4 -58.2L-24.45 -58.15L-24.2 -58.35L-23.1 -58.55L-22.2 -58.4L-22.05 -58.35M-20.95,-51.5L-20.65 -51.3L-20.55 -51.15L-20.5 -50.95L-20.55 -50.85L-20.95 -50.4L-22 -50.2L-23.1 -50.4Q-23.55 -50.65 -23.5 -50.95L-23.45 -51.2L-23.3 -51.35L-23.35 -51.3L-23.1 -51.5L-22 -51.7L-21.1 -51.55L-20.95 -51.5M-8.45,-57.8L-8.15 -57.6L-8.05 -57.45L-8 -57.25L-8.05 -57.15L-8.45 -56.7L-9.5 -56.5L-10.6 -56.7Q-11.05 -56.95 -11 -57.25L-10.95 -57.5L-10.8 -57.65L-10.85 -57.6L-10.6 -57.8L-9.5 -58L-8.6 -57.85L-8.45 -57.8M-15.75,-60.35L-16.8 -60.15L-17.9 -60.35Q-18.35 -60.6 -18.3 -60.9L-18.25 -61.15L-18.1 -61.3L-18.15 -61.25L-17.9 -61.45L-16.8 -61.65L-15.9 -61.5L-15.75 -61.45L-15.45 -61.25L-15.35 -61.1L-15.3 -60.9L-15.35 -60.8L-15.75 -60.35M-14.75,-54.6L-14.45 -54.4L-14.35 -54.25L-14.3 -54.05L-14.35 -53.95L-14.75 -53.5L-15.8 -53.3L-16.9 -53.5Q-17.35 -53.75 -17.3 -54.05L-17.25 -54.3L-17.1 -54.45L-17.15 -54.4L-16.9 -54.6L-15.8 -54.8L-14.9 -54.65L-14.75 -54.6M-8.5,-51.5L-8.2 -51.3L-8.1 -51.15L-8.05 -50.95L-8.1 -50.85L-8.5 -50.4L-9.55 -50.2L-10.65 -50.4Q-11.1 -50.65 -11.05 -50.95L-11 -51.2L-10.85 -51.35L-10.9 -51.3L-10.65 -51.5L-9.55 -51.7L-8.65 -51.55L-8.5 -51.5M-1,-61.45L-0.7 -61.25L-0.6 -61.1L-0.55 -60.9L-0.6 -60.8L-1 -60.35L-2.05 -60.15L-3.15 -60.35L-3.55 -60.9L-3.5 -61.15L-3.35 -61.3L-3.4 -61.25L-3.15 -61.45L-2.05 -61.65L-1.15 -61.5L-1 -61.45M-2.4,-54.7L-2.25 -54.65L-1.95 -54.45L-1.85 -54.3L-1.8 -54.1L-1.85 -54Q-1.9 -53.75 -2.25 -53.55L-3.3 -53.35L-4.4 -53.55Q-4.85 -53.8 -4.8 -54.1L-4.75 -54.35L-4.6 -54.5L-4.65 -54.45L-4.4 -54.65L-3.3 -54.85L-2.4 -54.7M-1.8,-47.85L-1.85 -47.75Q-1.9 -47.5 -2.25 -47.3L-3.3 -47.1L-4.4 -47.3Q-4.85 -47.55 -4.8 -47.85L-4.75 -48.1L-4.6 -48.25L-4.65 -48.2L-4.4 -48.4L-3.3 -48.6L-2.4 -48.45L-2.25 -48.4L-1.95 -48.2L-1.85 -48.05L-1.8 -47.85M-8,-44.65L-8.05 -44.55L-8.45 -44.1L-9.5 -43.9L-10.6 -44.1Q-11.05 -44.35 -11 -44.65L-10.95 -44.9L-10.8 -45.05L-10.85 -45L-10.6 -45.2L-9.5 -45.4L-8.6 -45.25L-8.45 -45.2L-8.15 -45L-8.05 -44.85L-8 -44.65M-14.3,-47.8L-14.35 -47.7L-14.75 -47.25L-15.8 -47.05L-16.9 -47.25Q-17.35 -47.5 -17.3 -47.8L-17.25 -48.05L-17.1 -48.2L-17.15 -48.15L-16.9 -48.35L-15.8 -48.55L-14.9 -48.4L-14.75 -48.35L-14.45 -48.15L-14.35 -48L-14.3 -47.8" />
<path style="fill:#FEEBB6;fill-opacity:1" d="M10.45,-67.95L9.35 -67.75L9.1 -67.55L9.15 -67.6L9 -67.45L8.95 -67.2Q8.9 -66.9 9.35 -66.65L10.45 -66.45L11.5 -66.65L11.9 -67.1Q11.9 -66.7 11.35 -66.4Q10.75 -66.1 9.9 -66.1L8.5 -66.4Q7.9 -66.7 7.9 -67.1L8 -67.4L8.25 -67.65L8.5 -67.8L9.9 -68.1L11.35 -67.8L10.45 -67.95M16.65,-64.8L15.55 -64.6L15.3 -64.4L15.35 -64.45L15.2 -64.3L15.15 -64.05Q15.1 -63.75 15.55 -63.5L16.65 -63.3L17.7 -63.5L18.1 -63.95Q18.1 -63.55 17.55 -63.25L16.1 -62.95L14.7 -63.25Q14.1 -63.55 14.1 -63.95L14.2 -64.25L14.45 -64.5L14.7 -64.65L16.1 -64.95L17.55 -64.65L16.65 -64.8M2.2,-64.6L3.6 -64.9L5.05 -64.6L4.15 -64.75L3.05 -64.55L2.8 -64.35L2.85 -64.4L2.7 -64.25L2.65 -64Q2.6 -63.7 3.05 -63.45L4.15 -63.25L5.2 -63.45L5.6 -63.9Q5.6 -63.5 5.05 -63.2L3.6 -62.9L2.2 -63.2Q1.6 -63.5 1.6 -63.9L1.7 -64.2L1.95 -64.45L2.2 -64.6M11.3,-60.1L9.85 -59.8Q9 -59.8 8.45 -60.1Q7.85 -60.4 7.85 -60.8L7.95 -61.1L8.2 -61.35L8.45 -61.5L9.85 -61.8L11.3 -61.5L10.4 -61.65L9.3 -61.45L9.05 -61.25L9.1 -61.3L8.95 -61.15L8.9 -60.9Q8.85 -60.6 9.3 -60.35L10.4 -60.15L11.45 -60.35L11.85 -60.8Q11.85 -60.4 11.3 -60.1M5.05,-56.95L3.6 -56.65L2.2 -56.95Q1.6 -57.25 1.6 -57.65L1.7 -57.95L1.95 -58.2L2.2 -58.35L3.6 -58.65L5.05 -58.35L4.15 -58.5L3.05 -58.3L2.8 -58.1L2.85 -58.15L2.7 -58L2.65 -57.75Q2.6 -57.45 3.05 -57.2L4.15 -57L5.2 -57.2L5.6 -57.65Q5.6 -57.25 5.05 -56.95M3.9,-50.15Q3.3 -49.85 2.45 -49.85L1.05 -50.15Q0.45 -50.45 0.45 -50.85L0.55 -51.15L0.8 -51.4L1.05 -51.55L2.45 -51.85L3.9 -51.55L3 -51.7L1.9 -51.5L1.65 -51.3L1.7 -51.35L1.55 -51.2L1.5 -50.95Q1.45 -50.65 1.9 -50.4L3 -50.2L4.05 -50.4L4.45 -50.85Q4.45 -50.45 3.9 -50.15M11.35,-53.8Q10.75 -53.5 9.9 -53.5L8.5 -53.8Q7.9 -54.1 7.9 -54.5L8 -54.8L8.25 -55.05L8.5 -55.2L9.9 -55.5L11.35 -55.2L10.45 -55.35L9.35 -55.15L9.1 -54.95L9.15 -55L9 -54.85L8.95 -54.6Q8.9 -54.3 9.35 -54.05L10.45 -53.85L11.5 -54.05L11.9 -54.5Q11.9 -54.1 11.35 -53.8M17.55,-57L16.1 -56.7L14.7 -57Q14.1 -57.3 14.1 -57.7L14.2 -58L14.45 -58.25L14.7 -58.4L16.1 -58.7L17.55 -58.4L16.65 -58.55L15.55 -58.35L15.3 -58.15L15.35 -58.2L15.2 -58.05L15.15 -57.8Q15.1 -57.5 15.55 -57.25L16.65 -57.05L17.7 -57.25L18.1 -57.7Q18.1 -57.3 17.55 -57M21,-61.5L22.4 -61.8L23.85 -61.5L22.95 -61.65L21.85 -61.45L21.6 -61.25L21.65 -61.3L21.5 -61.15L21.45 -60.9Q21.4 -60.6 21.85 -60.35L22.95 -60.15L24 -60.35L24.4 -60.8Q24.4 -60.4 23.85 -60.1L22.4 -59.8L21 -60.1Q20.4 -60.4 20.4 -60.8L20.5 -61.1L20.75 -61.35L21 -61.5M-31.5,-67.65L-31.25 -67.8L-29.85 -68.1L-28.4 -67.8L-29.3 -67.95L-30.4 -67.75L-30.65 -67.55L-30.6 -67.6L-30.75 -67.45L-30.8 -67.2L-30.4 -66.65L-29.3 -66.45L-28.25 -66.65Q-27.9 -66.85 -27.85 -67.1Q-27.85 -66.7 -28.4 -66.4Q-29 -66.1 -29.85 -66.1L-31.25 -66.4Q-31.85 -66.7 -31.85 -67.1L-31.75 -67.4L-31.5 -67.65M-23.1,-64.8L-24.2 -64.6L-24.45 -64.4L-24.4 -64.45L-24.55 -64.3L-24.6 -64.05Q-24.65 -63.75 -24.2 -63.5L-23.1 -63.3L-22.05 -63.5L-21.65 -63.95Q-21.65 -63.55 -22.2 -63.25Q-22.8 -62.95 -23.65 -62.95Q-24.5 -62.95 -25.05 -63.25Q-25.65 -63.55 -25.65 -63.95L-25.55 -64.25L-25.3 -64.5L-25.05 -64.65L-23.65 -64.95L-22.2 -64.65L-23.1 -64.8M-37.55,-64.6L-36.15 -64.9L-34.7 -64.6L-35.6 -64.75L-36.7 -64.55L-36.95 -64.35L-36.9 -64.4L-37.05 -64.25L-37.1 -64Q-37.15 -63.7 -36.7 -63.45L-35.6 -63.25L-34.55 -63.45L-34.15 -63.9Q-34.15 -63.5 -34.7 -63.2Q-35.3 -62.9 -36.15 -62.9L-37.55 -63.2Q-38.15 -63.5 -38.15 -63.9L-38.05 -64.2L-37.8 -64.45Q-37.7 -64.55 -37.55 -64.6M-28.45,-60.1Q-29.05 -59.8 -29.9 -59.8L-31.3 -60.1Q-31.9 -60.4 -31.9 -60.8L-31.8 -61.1L-31.55 -61.35L-31.3 -61.5L-29.9 -61.8L-28.45 -61.5L-29.35 -61.65L-30.45 -61.45L-30.7 -61.25L-30.65 -61.3L-30.8 -61.15L-30.85 -60.9Q-30.9 -60.6 -30.45 -60.35L-29.35 -60.15L-28.3 -60.35Q-27.95 -60.55 -27.9 -60.8Q-27.9 -60.4 -28.45 -60.1M-37.55,-58.35L-36.15 -58.65L-34.7 -58.35L-35.6 -58.5L-36.7 -58.3L-36.95 -58.1L-36.9 -58.15L-37.05 -58L-37.1 -57.75Q-37.15 -57.45 -36.7 -57.2L-35.6 -57L-34.55 -57.2L-34.15 -57.65Q-34.15 -57.25 -34.7 -56.95Q-35.3 -56.65 -36.15 -56.65L-37.55 -56.95Q-38.15 -57.25 -38.15 -57.65L-38.05 -57.95L-37.8 -58.2Q-37.7 -58.3 -37.55 -58.35M-40.9,-61.5L-41.8 -61.65L-42.9 -61.45L-43.15 -61.25L-43.1 -61.3L-43.25 -61.15L-43.3 -60.9Q-43.35 -60.6 -42.9 -60.35L-41.8 -60.15L-40.75 -60.35L-40.35 -60.8Q-40.35 -60.4 -40.9 -60.1L-42.35 -59.8L-43.75 -60.1Q-44.35 -60.4 -44.35 -60.8L-44.25 -61.1L-44 -61.35L-43.75 -61.5L-42.35 -61.8L-40.9 -61.5M-29.3,-55.35L-30.4 -55.15L-30.65 -54.95L-30.6 -55L-30.75 -54.85L-30.8 -54.6L-30.4 -54.05L-29.3 -53.85L-28.25 -54.05Q-27.9 -54.25 -27.85 -54.5Q-27.85 -54.1 -28.4 -53.8Q-29 -53.5 -29.85 -53.5L-31.25 -53.8Q-31.85 -54.1 -31.85 -54.5L-31.75 -54.8L-31.5 -55.05L-31.25 -55.2L-29.85 -55.5L-28.4 -55.2L-29.3 -55.35M-22.2,-57Q-22.8 -56.7 -23.65 -56.7Q-24.5 -56.7 -25.05 -57Q-25.65 -57.3 -25.65 -57.7L-25.55 -58L-25.3 -58.25L-25.05 -58.4L-23.65 -58.7L-22.2 -58.4L-23.1 -58.55L-24.2 -58.35L-24.45 -58.15L-24.4 -58.2L-24.55 -58.05L-24.6 -57.8Q-24.65 -57.5 -24.2 -57.25L-23.1 -57.05L-22.05 -57.25L-21.65 -57.7Q-21.65 -57.3 -22.2 -57M-21.1,-50.15L-22.55 -49.85L-23.95 -50.15Q-24.55 -50.45 -24.55 -50.85L-24.45 -51.15L-24.2 -51.4L-23.95 -51.55L-22.55 -51.85L-21.1 -51.55L-22 -51.7L-23.1 -51.5L-23.35 -51.3L-23.3 -51.35L-23.45 -51.2L-23.5 -50.95Q-23.55 -50.65 -23.1 -50.4L-22 -50.2L-20.95 -50.4L-20.55 -50.85Q-20.55 -50.45 -21.1 -50.15M-8.6,-56.45Q-9.2 -56.15 -10.05 -56.15L-11.45 -56.45Q-12.05 -56.75 -12.05 -57.15L-11.95 -57.45L-11.7 -57.7L-11.45 -57.85L-10.05 -58.15L-8.6 -57.85L-9.5 -58L-10.6 -57.8L-10.85 -57.6L-10.8 -57.65L-10.95 -57.5L-11 -57.25Q-11.05 -56.95 -10.6 -56.7L-9.5 -56.5L-8.45 -56.7L-8.05 -57.15Q-8.05 -56.75 -8.6 -56.45M-15.9,-61.5L-16.8 -61.65L-17.9 -61.45L-18.15 -61.25L-18.1 -61.3L-18.25 -61.15L-18.3 -60.9Q-18.35 -60.6 -17.9 -60.35L-16.8 -60.15L-15.75 -60.35L-15.35 -60.8Q-15.35 -60.4 -15.9 -60.1Q-16.5 -59.8 -17.35 -59.8Q-18.2 -59.8 -18.75 -60.1Q-19.35 -60.4 -19.35 -60.8L-19.25 -61.1L-19 -61.35L-18.75 -61.5L-17.35 -61.8L-15.9 -61.5M-14.9,-53.25L-16.35 -52.95L-17.75 -53.25Q-18.35 -53.55 -18.35 -53.95L-18.25 -54.25L-18 -54.5L-17.75 -54.65L-16.35 -54.95L-14.9 -54.65L-15.8 -54.8L-16.9 -54.6L-17.15 -54.4L-17.1 -54.45L-17.25 -54.3L-17.3 -54.05Q-17.35 -53.75 -16.9 -53.5L-15.8 -53.3L-14.75 -53.5L-14.35 -53.95Q-14.35 -53.55 -14.9 -53.25M-8.65,-50.15L-10.1 -49.85L-11.5 -50.15Q-12.1 -50.45 -12.1 -50.85L-12 -51.15L-11.75 -51.4L-11.5 -51.55L-10.1 -51.85L-8.65 -51.55L-9.55 -51.7L-10.65 -51.5L-10.9 -51.3L-10.85 -51.35L-11 -51.2L-11.05 -50.95Q-11.1 -50.65 -10.65 -50.4L-9.55 -50.2L-8.5 -50.4L-8.1 -50.85Q-8.1 -50.45 -8.65 -50.15M-1.15,-60.1Q-1.75 -59.8 -2.6 -59.8L-4 -60.1Q-4.6 -60.4 -4.6 -60.8L-4.5 -61.1L-4.25 -61.35L-4 -61.5L-2.6 -61.8L-1.15 -61.5L-2.05 -61.65L-3.15 -61.45L-3.4 -61.25L-3.35 -61.3L-3.5 -61.15L-3.55 -60.9L-3.15 -60.35L-2.05 -60.15L-1 -60.35L-0.6 -60.8Q-0.6 -60.4 -1.15 -60.1M-3.3,-54.85L-4.4 -54.65L-4.65 -54.45L-4.6 -54.5L-4.75 -54.35L-4.8 -54.1Q-4.85 -53.8 -4.4 -53.55L-3.3 -53.35L-2.25 -53.55Q-1.9 -53.75 -1.85 -54Q-1.85 -53.6 -2.4 -53.3Q-3 -53 -3.85 -53Q-4.7 -53 -5.25 -53.3Q-5.85 -53.6 -5.85 -54L-5.75 -54.3L-5.5 -54.55L-5.25 -54.7L-3.85 -55L-2.4 -54.7L-3.3 -54.85M-5.5,-48.3L-5.25 -48.45L-3.85 -48.75L-2.4 -48.45L-3.3 -48.6L-4.4 -48.4L-4.65 -48.2L-4.6 -48.25L-4.75 -48.1L-4.8 -47.85Q-4.85 -47.55 -4.4 -47.3L-3.3 -47.1L-2.25 -47.3Q-1.9 -47.5 -1.85 -47.75Q-1.85 -47.35 -2.4 -47.05Q-3 -46.75 -3.85 -46.75Q-4.7 -46.75 -5.25 -47.05Q-5.85 -47.35 -5.85 -47.75L-5.75 -48.05L-5.5 -48.3M-11.7,-45.1L-11.45 -45.25L-10.05 -45.55L-8.6 -45.25L-9.5 -45.4L-10.6 -45.2L-10.85 -45L-10.8 -45.05L-10.95 -44.9L-11 -44.65Q-11.05 -44.35 -10.6 -44.1L-9.5 -43.9L-8.45 -44.1L-8.05 -44.55Q-8.05 -44.15 -8.6 -43.85Q-9.2 -43.55 -10.05 -43.55L-11.45 -43.85Q-12.05 -44.15 -12.05 -44.55L-11.95 -44.85L-11.7 -45.1M-18,-48.25L-17.75 -48.4L-16.35 -48.7L-14.9 -48.4L-15.8 -48.55L-16.9 -48.35L-17.15 -48.15L-17.1 -48.2L-17.25 -48.05L-17.3 -47.8Q-17.35 -47.5 -16.9 -47.25L-15.8 -47.05L-14.75 -47.25L-14.35 -47.7Q-14.35 -47.3 -14.9 -47L-16.35 -46.7L-17.75 -47Q-18.35 -47.3 -18.35 -47.7L-18.25 -48L-18 -48.25" />
<path style="fill:#FCCE47;fill-opacity:1" d="M11.8,-67.55L11.5 -67.75L11.35 -67.8L9.9 -68.1L8.5 -67.8L8.25 -67.65L8.15 -67.55Q7.4 -67 7.4 -66.6Q7.4 -66.1 8.15 -65.7Q8.85 -65.35 9.9 -65.35Q10.95 -65.35 11.7 -65.7Q12.4 -66.1 12.4 -66.6L11.9 -67.4L11.8 -67.55M18,-64.4L17.7 -64.6L17.55 -64.65L16.1 -64.95L14.7 -64.65L14.45 -64.5L14.35 -64.4Q13.6 -63.85 13.6 -63.45Q13.6 -62.95 14.35 -62.55Q15.05 -62.2 16.1 -62.2L17.9 -62.55Q18.6 -62.95 18.6 -63.45L18.1 -64.25L18 -64.4M-10.15,-40.1L-30.1 -50.05L-30.05 -50.1L-49.9 -60L-49.85 -60.05L-31.8 -69.1L-30 -70L-29.95 -70L-29.9 -70.05L-11.9 -79.05L-10.05 -79.95L-9 -79.5L9.25 -70.4L9.95 -70.05L9.9 -70L9.85 -70L10.85 -69.55L29.8 -60.1L9.8 -50.05L9.75 -50.1L-10.15 -40.1M9.65,-70.1L9.2 -69.85L9.7 -70.1L9.65 -70.1M5.5,-64.35L5.2 -64.55L5.05 -64.6L3.6 -64.9L2.2 -64.6L1.95 -64.45L1.85 -64.35Q1.1 -63.8 1.1 -63.4Q1.1 -62.9 1.85 -62.5Q2.55 -62.15 3.6 -62.15Q4.65 -62.15 5.4 -62.5Q6.1 -62.9 6.1 -63.4L5.6 -64.2L5.5 -64.35M8.1,-61.25Q7.35 -60.7 7.35 -60.3Q7.35 -59.8 8.1 -59.4Q8.8 -59.05 9.85 -59.05Q10.9 -59.05 11.65 -59.4Q12.35 -59.8 12.35 -60.3L11.85 -61.1L11.75 -61.25L11.45 -61.45L11.3 -61.5L9.85 -61.8L8.45 -61.5L8.2 -61.35L8.1 -61.25M5.6,-57.95L5.5 -58.1L5.2 -58.3L5.05 -58.35L3.6 -58.65L2.2 -58.35L1.95 -58.2L1.85 -58.1Q1.1 -57.55 1.1 -57.15Q1.1 -56.65 1.85 -56.25Q2.55 -55.9 3.6 -55.9Q4.65 -55.9 5.4 -56.25Q6.1 -56.65 6.1 -57.15L5.6 -57.95M0.7,-51.3Q-0.05 -50.75 -0.05 -50.35Q-0.05 -49.85 0.7 -49.45Q1.4 -49.1 2.45 -49.1L4.25 -49.45Q4.95 -49.85 4.95 -50.35L4.45 -51.15L4.35 -51.3L4.05 -51.5L3.9 -51.55L2.45 -51.85L1.05 -51.55L0.8 -51.4L0.7 -51.3M8.15,-54.95Q7.4 -54.4 7.4 -54Q7.4 -53.5 8.15 -53.1Q8.85 -52.75 9.9 -52.75Q10.95 -52.75 11.7 -53.1Q12.4 -53.5 12.4 -54L11.9 -54.8L11.8 -54.95L11.5 -55.15L11.35 -55.2L9.9 -55.5L8.5 -55.2L8.25 -55.05L8.15 -54.95M14.35,-58.15Q13.6 -57.6 13.6 -57.2Q13.6 -56.7 14.35 -56.3Q15.05 -55.95 16.1 -55.95L17.9 -56.3Q18.6 -56.7 18.6 -57.2L18.1 -58L18 -58.15L17.7 -58.35L17.55 -58.4L16.1 -58.7L14.7 -58.4L14.45 -58.25L14.35 -58.15M20.75,-61.35L20.65 -61.25Q19.9 -60.7 19.9 -60.3Q19.9 -59.8 20.65 -59.4Q21.35 -59.05 22.4 -59.05L24.2 -59.4Q24.9 -59.8 24.9 -60.3L24.4 -61.1L24.3 -61.25L24 -61.45L23.85 -61.5L22.4 -61.8L21 -61.5L20.75 -61.35M-29.85,-68.1L-31.25 -67.8L-31.5 -67.65L-31.6 -67.55L-32.35 -66.6Q-32.35 -66.1 -31.6 -65.7Q-30.9 -65.35 -29.85 -65.35L-28.05 -65.7Q-27.35 -66.1 -27.35 -66.6Q-27.35 -66.95 -27.85 -67.4L-27.95 -67.55L-28.25 -67.75L-28.4 -67.8L-29.85 -68.1M-21.75,-64.4L-22.05 -64.6L-22.2 -64.65L-23.65 -64.95L-25.05 -64.65L-25.3 -64.5L-25.4 -64.4Q-26.15 -63.85 -26.15 -63.45Q-26.15 -62.95 -25.4 -62.55L-23.65 -62.2Q-22.6 -62.2 -21.85 -62.55Q-21.15 -62.95 -21.15 -63.45Q-21.15 -63.8 -21.65 -64.25L-21.75 -64.4M-34.25,-64.35L-34.55 -64.55L-34.7 -64.6L-36.15 -64.9L-37.55 -64.6Q-37.7 -64.55 -37.8 -64.45L-37.9 -64.35Q-38.65 -63.8 -38.65 -63.4Q-38.65 -62.9 -37.9 -62.5L-36.15 -62.15Q-35.1 -62.15 -34.35 -62.5Q-33.65 -62.9 -33.65 -63.4Q-33.65 -63.75 -34.15 -64.2L-34.25 -64.35M-31.65,-61.25Q-32.4 -60.7 -32.4 -60.3Q-32.4 -59.8 -31.65 -59.4L-29.9 -59.05Q-28.85 -59.05 -28.1 -59.4Q-27.4 -59.8 -27.4 -60.3Q-27.4 -60.65 -27.9 -61.1L-28 -61.25L-28.3 -61.45L-28.45 -61.5L-29.9 -61.8L-31.3 -61.5L-31.55 -61.35L-31.65 -61.25M-37.8,-58.2L-37.9 -58.1Q-38.65 -57.55 -38.65 -57.15Q-38.65 -56.65 -37.9 -56.25L-36.15 -55.9Q-35.1 -55.9 -34.35 -56.25Q-33.65 -56.65 -33.65 -57.15Q-33.65 -57.5 -34.15 -57.95L-34.25 -58.1L-34.55 -58.3L-34.7 -58.35L-36.15 -58.65L-37.55 -58.35Q-37.7 -58.3 -37.8 -58.2M-42.35,-61.8L-43.75 -61.5L-44 -61.35L-44.1 -61.25Q-44.85 -60.7 -44.85 -60.3Q-44.85 -59.8 -44.1 -59.4Q-43.4 -59.05 -42.35 -59.05Q-41.3 -59.05 -40.55 -59.4Q-39.85 -59.8 -39.85 -60.3L-40.35 -61.1L-40.45 -61.25L-40.75 -61.45L-40.9 -61.5L-42.35 -61.8M-27.95,-54.95L-28.25 -55.15L-28.4 -55.2L-29.85 -55.5L-31.25 -55.2L-31.5 -55.05L-31.6 -54.95L-32.35 -54Q-32.35 -53.5 -31.6 -53.1Q-30.9 -52.75 -29.85 -52.75L-28.05 -53.1Q-27.35 -53.5 -27.35 -54Q-27.35 -54.35 -27.85 -54.8L-27.95 -54.95M-25.4,-58.15Q-26.15 -57.6 -26.15 -57.2Q-26.15 -56.7 -25.4 -56.3L-23.65 -55.95Q-22.6 -55.95 -21.85 -56.3Q-21.15 -56.7 -21.15 -57.2Q-21.15 -57.55 -21.65 -58L-21.75 -58.15L-22.05 -58.35L-22.2 -58.4L-23.65 -58.7L-25.05 -58.4L-25.3 -58.25L-25.4 -58.15M-24.3,-51.3L-25.05 -50.35Q-25.05 -49.85 -24.3 -49.45Q-23.6 -49.1 -22.55 -49.1Q-21.5 -49.1 -20.75 -49.45Q-20.05 -49.85 -20.05 -50.35Q-20.05 -50.7 -20.55 -51.15L-20.65 -51.3L-20.95 -51.5L-21.1 -51.55L-22.55 -51.85L-23.95 -51.55L-24.2 -51.4L-24.3 -51.3M-11.8,-57.6L-12.55 -56.65Q-12.55 -56.15 -11.8 -55.75Q-11.1 -55.4 -10.05 -55.4Q-9 -55.4 -8.25 -55.75Q-7.55 -56.15 -7.55 -56.65Q-7.55 -57 -8.05 -57.45L-8.15 -57.6L-8.45 -57.8L-8.6 -57.85L-10.05 -58.15L-11.45 -57.85L-11.7 -57.7L-11.8 -57.6M-17.35,-61.8L-18.75 -61.5L-19 -61.35L-19.1 -61.25L-19.85 -60.3Q-19.85 -59.8 -19.1 -59.4Q-18.4 -59.05 -17.35 -59.05Q-16.3 -59.05 -15.55 -59.4Q-14.85 -59.8 -14.85 -60.3Q-14.85 -60.65 -15.35 -61.1L-15.45 -61.25L-15.75 -61.45L-15.9 -61.5L-17.35 -61.8M-18.1,-54.4L-18.85 -53.45Q-18.85 -52.95 -18.1 -52.55Q-17.4 -52.2 -16.35 -52.2Q-15.3 -52.2 -14.55 -52.55Q-13.85 -52.95 -13.85 -53.45L-14.35 -54.25L-14.45 -54.4L-14.75 -54.6L-14.9 -54.65L-16.35 -54.95L-17.75 -54.65L-18 -54.5L-18.1 -54.4M-11.85,-51.3L-12.6 -50.35Q-12.6 -49.85 -11.85 -49.45Q-11.15 -49.1 -10.1 -49.1L-8.3 -49.45Q-7.6 -49.85 -7.6 -50.35Q-7.6 -50.7 -8.1 -51.15L-8.2 -51.3L-8.5 -51.5L-8.65 -51.55L-10.1 -51.85L-11.5 -51.55L-11.75 -51.4L-11.85 -51.3M-4.35,-61.25Q-5.1 -60.7 -5.1 -60.3Q-5.1 -59.8 -4.35 -59.4Q-3.65 -59.05 -2.6 -59.05Q-1.55 -59.05 -0.8 -59.4Q-0.1 -59.8 -0.1 -60.3L-0.6 -61.1L-0.7 -61.25L-1 -61.45L-1.15 -61.5L-2.6 -61.8L-4 -61.5L-4.25 -61.35L-4.35 -61.25M-1.95,-54.45L-2.25 -54.65L-2.4 -54.7L-3.85 -55L-5.25 -54.7L-5.5 -54.55L-5.6 -54.45L-6.35 -53.5Q-6.35 -53 -5.6 -52.6Q-4.9 -52.25 -3.85 -52.25Q-2.8 -52.25 -2.05 -52.6Q-1.35 -53 -1.35 -53.5Q-1.35 -53.85 -1.85 -54.3L-1.95 -54.45M-3.85,-48.75L-5.25 -48.45L-5.5 -48.3L-5.6 -48.2L-6.35 -47.25Q-6.35 -46.75 -5.6 -46.35Q-4.9 -46 -3.85 -46Q-2.8 -46 -2.05 -46.35Q-1.35 -46.75 -1.35 -47.25Q-1.35 -47.6 -1.85 -48.05L-1.95 -48.2L-2.25 -48.4L-2.4 -48.45L-3.85 -48.75M-10.05,-45.55L-11.45 -45.25L-11.7 -45.1L-11.8 -45L-12.55 -44.05Q-12.55 -43.55 -11.8 -43.15Q-11.1 -42.8 -10.05 -42.8Q-9 -42.8 -8.25 -43.15Q-7.55 -43.55 -7.55 -44.05Q-7.55 -44.4 -8.05 -44.85L-8.15 -45L-8.45 -45.2L-8.6 -45.25L-10.05 -45.55M-16.35,-48.7L-17.75 -48.4L-18 -48.25L-18.1 -48.15L-18.85 -47.2Q-18.85 -46.7 -18.1 -46.3Q-17.4 -45.95 -16.35 -45.95Q-15.3 -45.95 -14.55 -46.3Q-13.85 -46.7 -13.85 -47.2L-14.35 -48L-14.45 -48.15L-14.75 -48.35L-14.9 -48.4L-16.35 -48.7" />
<path style="fill:#CCCCCC;fill-opacity:1" d="M9.75,-70.6L9.25 -70.4L9.7 -70.6L9.75 -70.6M9.7,-70.1L9.2 -69.85L9.65 -70.1L9.7 -70.1M30,-60.05L29.85 -60.15L30.05 -60.05L30.05 -56.05L29.85 -55.95L29.85 -56L30 -56.05L30 -60.05M27.8,-37L29.65 -36.1L31.25 -36.85L29.8 -36.1L29.7 -36.05L29.65 -36.05Q28.7 -36.55 27.8 -37M9.85,-46L9.8 -46Q8.85 -46.5 7.95 -46.95L9.8 -46.05L11.4 -46.8L9.95 -46.05L9.85 -46M7.85,-27.05L9.7 -26.15L11.3 -26.9L9.85 -26.15L9.75 -26.1L9.7 -26.1Q8.75 -26.6 7.85 -27.05M-10.15,-80.05L-10.1 -80.05L-10.6 -79.8L-10.15 -80.05M-10.05,-80.55L-10.55 -80.3L-10.1 -80.55L-10.05 -80.55M-10.05,-36.05L-10.1 -36.05L-11.95 -37L-10.1 -36.1L-8.5 -36.85L-9.95 -36.1L-10.05 -36.05" />
<path style="fill:none;stroke-width:1;stroke-linecap:round;stroke-linejoin:round;stroke-miterlimit:3;stroke:#FEC10E;stroke-opacity:1" d="M9.85,-70L9.9 -70L9.8 -70.05L-10 -60.1L-9.95 -60.1L-10.05 -60.05L9.85 -50.15L9.75 -50.1M9.8,-50.05L29.8 -60.1L10.85 -69.55M9.9,-70L9.95 -70.05L9.25 -70.4L-9 -79.5L-10.05 -80M-29.9,-70.05L-10 -60.1M9.9,-70L10.85 -69.55M-29.9,-70.05L-29.95 -70.05M-10.15,-40.1L9.75 -50.1M-30.05,-50.1L-10.15 -60.1L-10.05 -60.05" />
<path style="fill:none;stroke-width:1;stroke-linecap:round;stroke-linejoin:round;stroke-miterlimit:3;stroke:#FFEDB9;stroke-opacity:1" d="M9.75,-50.1L9.8 -50.05M-30.05,-50.1L-49.9 -60M-30.1,-50.05L-10.15 -40.1" />
<path style="fill:none;stroke-width:0.5;stroke-linecap:round;stroke-linejoin:round;stroke-miterlimit:3;stroke:#FFEDB9;stroke-opacity:1" d="M-10.05,-80L-11.9 -79.05L-29.9 -70.05M-29.95,-70L-29.9 -70.05M-29.95,-70.05L-31.8 -69.1M-49.85,-60.05L-31.8 -69.1" />
<path style="fill:none;stroke-width:1;stroke-linecap:round;stroke-linejoin:round;stroke-miterlimit:3;stroke:#EEEEEE;stroke-opacity:1" d="M-30.1,-50.05L-30.1 -50.1L-30.1 -50.05M-49.9,-60L-49.9 -60.05L-49.9 -60" />
<path style="fill:#FEEBB6;fill-opacity:1" d="M4,-70.05L2.55 -69.75L1.15 -70.05Q0.55 -70.35 0.55 -70.75L0.65 -71.05L0.9 -71.3L1.15 -71.45L2.55 -71.75L4 -71.45L3.1 -71.6L2 -71.4L1.75 -71.2L1.8 -71.25L1.65 -71.1L1.6 -70.85Q1.55 -70.55 2 -70.3L3.1 -70.1L4.15 -70.3L4.55 -70.75Q4.55 -70.35 4 -70.05M-15.7,-74.7L-16.8 -74.5L-17.05 -74.3L-17 -74.35L-17.15 -74.2L-17.2 -73.95L-16.8 -73.4L-15.7 -73.2L-14.65 -73.4L-14.25 -73.85Q-14.25 -73.45 -14.8 -73.15L-16.25 -72.85L-17.65 -73.15Q-18.25 -73.45 -18.25 -73.85L-18.15 -74.15L-17.9 -74.4L-17.65 -74.55L-16.25 -74.85L-14.8 -74.55L-15.7 -74.7M-9.4,-77.9L-10.5 -77.7L-10.75 -77.5L-10.7 -77.55L-10.85 -77.4L-10.9 -77.15L-10.5 -76.6L-9.4 -76.4L-8.35 -76.6L-7.95 -77.05Q-7.95 -76.65 -8.5 -76.35L-9.95 -76.05L-11.35 -76.35Q-11.95 -76.65 -11.95 -77.05L-11.85 -77.35L-11.6 -77.6L-11.35 -77.75L-9.95 -78.05L-8.5 -77.75L-9.4 -77.9M-3.2,-74.75L-4.3 -74.55L-4.55 -74.35L-4.5 -74.4L-4.65 -74.25L-4.7 -74Q-4.75 -73.7 -4.3 -73.45L-3.2 -73.25L-2.15 -73.45L-1.75 -73.9Q-1.75 -73.5 -2.3 -73.2Q-2.9 -72.9 -3.75 -72.9L-5.15 -73.2Q-5.75 -73.5 -5.75 -73.9L-5.65 -74.2L-5.4 -74.45L-5.15 -74.6L-3.75 -74.9L-2.3 -74.6L-3.2 -74.75M-21,-70.05Q-21.6 -69.75 -22.45 -69.75Q-23.3 -69.75 -23.85 -70.05Q-24.45 -70.35 -24.45 -70.75L-24.35 -71.05L-24.1 -71.3L-23.85 -71.45L-22.45 -71.75L-21 -71.45L-21.9 -71.6L-23 -71.4L-23.25 -71.2L-23.2 -71.25L-23.35 -71.1L-23.4 -70.85Q-23.45 -70.55 -23 -70.3L-21.9 -70.1L-20.85 -70.3L-20.45 -70.75Q-20.45 -70.35 -21 -70.05M-2.3,-66.95Q-2.9 -66.65 -3.75 -66.65L-5.15 -66.95Q-5.75 -67.25 -5.75 -67.65L-5.65 -67.95L-5.4 -68.2L-5.15 -68.35L-3.75 -68.65L-2.3 -68.35L-3.2 -68.5L-4.3 -68.3L-4.55 -68.1L-4.5 -68.15L-4.65 -68L-4.7 -67.75Q-4.75 -67.45 -4.3 -67.2L-3.2 -67L-2.15 -67.2L-1.75 -67.65Q-1.75 -67.25 -2.3 -66.95M-8.55,-70.05L-10 -69.75L-11.4 -70.05Q-12 -70.35 -12 -70.75L-11.9 -71.05L-11.65 -71.3L-11.4 -71.45L-10 -71.75L-8.55 -71.45L-9.45 -71.6L-10.55 -71.4L-10.8 -71.2L-10.75 -71.25L-10.9 -71.1L-10.95 -70.85Q-11 -70.55 -10.55 -70.3L-9.45 -70.1L-8.4 -70.3L-8 -70.75Q-8 -70.35 -8.55 -70.05M-8.5,-63.75L-9.95 -63.45L-11.35 -63.75Q-11.95 -64.05 -11.95 -64.45L-11.85 -64.75L-11.6 -65L-11.35 -65.15L-9.95 -65.45L-8.5 -65.15L-9.4 -65.3L-10.5 -65.1L-10.75 -64.9L-10.7 -64.95L-10.85 -64.8L-10.9 -64.55L-10.5 -64L-9.4 -63.8L-8.35 -64L-7.95 -64.45Q-7.95 -64.05 -8.5 -63.75M-17.9,-68.15L-17.65 -68.3L-16.25 -68.6L-14.8 -68.3L-15.7 -68.45L-16.8 -68.25L-17.05 -68.05L-17 -68.1L-17.15 -67.95L-17.2 -67.7L-16.8 -67.15L-15.7 -66.95L-14.65 -67.15L-14.25 -67.6Q-14.25 -67.2 -14.8 -66.9L-16.25 -66.6L-17.65 -66.9Q-18.25 -67.2 -18.25 -67.6L-18.15 -67.9L-17.9 -68.15" />
<path style="fill:#FEE294;fill-opacity:1" d="M4.15,-71.4L4.45 -71.2L4.55 -71.05L4.6 -70.85L4.55 -70.75L4.15 -70.3L3.1 -70.1L2 -70.3Q1.55 -70.55 1.6 -70.85L1.65 -71.1L1.8 -71.25L1.75 -71.2L2 -71.4L3.1 -71.6L4 -71.45L4.15 -71.4M-14.8,-74.55L-14.65 -74.5L-14.35 -74.3L-14.25 -74.15L-14.2 -73.95L-14.25 -73.85L-14.65 -73.4L-15.7 -73.2L-16.8 -73.4L-17.2 -73.95L-17.15 -74.2L-17 -74.35L-17.05 -74.3L-16.8 -74.5L-15.7 -74.7L-14.8 -74.55M-8.5,-77.75L-8.35 -77.7L-8.05 -77.5L-7.95 -77.35L-7.9 -77.15L-7.95 -77.05L-8.35 -76.6L-9.4 -76.4L-10.5 -76.6L-10.9 -77.15L-10.85 -77.4L-10.7 -77.55L-10.75 -77.5L-10.5 -77.7L-9.4 -77.9L-8.5 -77.75M-2.3,-74.6L-2.15 -74.55L-1.85 -74.35L-1.75 -74.2L-1.7 -74L-1.75 -73.9L-2.15 -73.45L-3.2 -73.25L-4.3 -73.45Q-4.75 -73.7 -4.7 -74L-4.65 -74.25L-4.5 -74.4L-4.55 -74.35L-4.3 -74.55L-3.2 -74.75L-2.3 -74.6M-20.85,-71.4L-20.55 -71.2L-20.45 -71.05L-20.4 -70.85L-20.45 -70.75L-20.85 -70.3L-21.9 -70.1L-23 -70.3Q-23.45 -70.55 -23.4 -70.85L-23.35 -71.1L-23.2 -71.25L-23.25 -71.2L-23 -71.4L-21.9 -71.6L-21 -71.45L-20.85 -71.4M-2.15,-68.3L-1.85 -68.1L-1.75 -67.95L-1.7 -67.75L-1.75 -67.65L-2.15 -67.2L-3.2 -67L-4.3 -67.2Q-4.75 -67.45 -4.7 -67.75L-4.65 -68L-4.5 -68.15L-4.55 -68.1L-4.3 -68.3L-3.2 -68.5L-2.3 -68.35L-2.15 -68.3M-8.4,-71.4L-8.1 -71.2L-8 -71.05L-7.95 -70.85L-8 -70.75L-8.4 -70.3L-9.45 -70.1L-10.55 -70.3Q-11 -70.55 -10.95 -70.85L-10.9 -71.1L-10.75 -71.25L-10.8 -71.2L-10.55 -71.4L-9.45 -71.6L-8.55 -71.45L-8.4 -71.4M-8.35,-65.1L-8.05 -64.9L-7.95 -64.75L-7.9 -64.55L-7.95 -64.45L-8.35 -64L-9.4 -63.8L-10.5 -64L-10.9 -64.55L-10.85 -64.8L-10.7 -64.95L-10.75 -64.9L-10.5 -65.1L-9.4 -65.3L-8.5 -65.15L-8.35 -65.1M-14.2,-67.7L-14.25 -67.6L-14.65 -67.15L-15.7 -66.95L-16.8 -67.15L-17.2 -67.7L-17.15 -67.95L-17 -68.1L-17.05 -68.05L-16.8 -68.25L-15.7 -68.45L-14.8 -68.3L-14.65 -68.25L-14.35 -68.05L-14.25 -67.9L-14.2 -67.7" />
<path style="fill:#FEC61D;fill-opacity:1" d="M0.9,-71.3L0.65 -71.05L0.55 -70.75Q0.55 -70.35 1.15 -70.05L2.55 -69.75L4 -70.05Q4.55 -70.35 4.55 -70.75L4.6 -70.85L4.55 -71.05L5.05 -70.25Q5.05 -69.75 4.35 -69.35L2.55 -69Q1.5 -69 0.8 -69.35Q0.05 -69.75 0.05 -70.25Q0.05 -70.65 0.8 -71.2L0.9 -71.3M-18.15,-74.15L-18.25 -73.85Q-18.25 -73.45 -17.65 -73.15L-16.25 -72.85L-14.8 -73.15Q-14.25 -73.45 -14.25 -73.85L-14.2 -73.95L-14.25 -74.15Q-13.75 -73.7 -13.75 -73.35Q-13.75 -72.85 -14.45 -72.45Q-15.2 -72.1 -16.25 -72.1Q-17.3 -72.1 -18 -72.45Q-18.75 -72.85 -18.75 -73.35L-18 -74.3L-17.9 -74.4L-18.15 -74.15M-11.85,-77.35L-11.95 -77.05Q-11.95 -76.65 -11.35 -76.35L-9.95 -76.05L-8.5 -76.35Q-7.95 -76.65 -7.95 -77.05L-7.9 -77.15L-7.95 -77.35L-7.45 -76.55Q-7.45 -76.05 -8.15 -75.65Q-8.9 -75.3 -9.95 -75.3L-11.7 -75.65Q-12.45 -76.05 -12.45 -76.55Q-12.45 -76.95 -11.7 -77.5L-11.6 -77.6L-11.85 -77.35M-5.65,-74.2L-5.75 -73.9Q-5.75 -73.5 -5.15 -73.2L-3.75 -72.9Q-2.9 -72.9 -2.3 -73.2Q-1.75 -73.5 -1.75 -73.9L-1.7 -74L-1.75 -74.2Q-1.25 -73.75 -1.25 -73.4Q-1.25 -72.9 -1.95 -72.5Q-2.7 -72.15 -3.75 -72.15Q-4.8 -72.15 -5.5 -72.5Q-6.25 -72.9 -6.25 -73.4L-5.5 -74.35L-5.4 -74.45L-5.65 -74.2M-24.1,-71.3L-24.35 -71.05L-24.45 -70.75Q-24.45 -70.35 -23.85 -70.05Q-23.3 -69.75 -22.45 -69.75Q-21.6 -69.75 -21 -70.05Q-20.45 -70.35 -20.45 -70.75L-20.4 -70.85L-20.45 -71.05Q-19.95 -70.6 -19.95 -70.25Q-19.95 -69.75 -20.65 -69.35L-22.45 -69L-24.2 -69.35Q-24.95 -69.75 -24.95 -70.25L-24.2 -71.2L-24.1 -71.3M-5.4,-68.2L-5.65 -67.95L-5.75 -67.65Q-5.75 -67.25 -5.15 -66.95L-3.75 -66.65Q-2.9 -66.65 -2.3 -66.95Q-1.75 -67.25 -1.75 -67.65L-1.7 -67.75L-1.75 -67.95Q-1.25 -67.5 -1.25 -67.15Q-1.25 -66.65 -1.95 -66.25Q-2.7 -65.9 -3.75 -65.9Q-4.8 -65.9 -5.5 -66.25Q-6.25 -66.65 -6.25 -67.15L-5.5 -68.1L-5.4 -68.2M-11.65,-71.3L-11.9 -71.05L-12 -70.75Q-12 -70.35 -11.4 -70.05L-10 -69.75L-8.55 -70.05Q-8 -70.35 -8 -70.75L-7.95 -70.85L-8 -71.05Q-7.5 -70.6 -7.5 -70.25Q-7.5 -69.75 -8.2 -69.35Q-8.95 -69 -10 -69Q-11.05 -69 -11.75 -69.35Q-12.5 -69.75 -12.5 -70.25L-11.75 -71.2L-11.65 -71.3M-11.6,-65L-11.85 -64.75L-11.95 -64.45Q-11.95 -64.05 -11.35 -63.75L-9.95 -63.45L-8.5 -63.75Q-7.95 -64.05 -7.95 -64.45L-7.9 -64.55L-7.95 -64.75L-7.45 -63.95Q-7.45 -63.45 -8.15 -63.05Q-8.9 -62.7 -9.95 -62.7L-11.7 -63.05Q-12.45 -63.45 -12.45 -63.95Q-12.45 -64.35 -11.7 -64.9L-11.6 -65M-18.15,-67.9L-18.25 -67.6Q-18.25 -67.2 -17.65 -66.9L-16.25 -66.6L-14.8 -66.9Q-14.25 -67.2 -14.25 -67.6L-14.2 -67.7L-14.25 -67.9Q-13.75 -67.45 -13.75 -67.1Q-13.75 -66.6 -14.45 -66.2Q-15.2 -65.85 -16.25 -65.85Q-17.3 -65.85 -18 -66.2Q-18.75 -66.6 -18.75 -67.1L-18 -68.05L-17.9 -68.15L-18.15 -67.9" />
</g>
</svg>
