<?xml version="1.0" encoding="utf-8"?>
<svg version="1.1" id="Layer_1"
xmlns="http://www.w3.org/2000/svg"
xmlns:xlink="http://www.w3.org/1999/xlink"
xmlns:author="http://www.sothink.com"
width="161px" height="85px"
xml:space="preserve">
<g id="313" transform="matrix(1, 0, 0, 1, 79.5, 23.5)">
<path style="fill:#A0BE7E;fill-opacity:1" d="M-74.15,14.15L-5 -20.5L74.85 19.65L74.9 23.6Q40.1 41 5.35 58.45L5.25 54.5L6.15 54.05L5.75 54.25L-74.15 14.15" />
<path style="fill:#618259;fill-opacity:1" d="M80.6,20.75L74.9 23.6L74.85 19.65L-5 -20.5L0.5 -23.25L80.6 16.75L80.6 20.75M5.75,54.25L5.25 54.5L5.35 58.45L0.7 60.75L-79.25 20.7L-79.25 16.7L-74.15 14.15L5.75 54.25" />
<path style="fill:none;stroke-width:0.25;stroke-linecap:round;stroke-linejoin:round;stroke-miterlimit:3;stroke:#BECFA7;stroke-opacity:1" d="M5.25,-7.05L4.6 -6.85Q3.15 -6.4 1.65 -5.25M8.5,-5.45Q6.7 -5.05 4.9 -3.65M9,-11.35Q7.2 -10.95 5.4 -9.55M21.75,-5.05Q20.3 -4.75 18.85 -3.75L18.15 -3.25M18.75,-6.65Q16.95 -6.25 15.15 -4.85M15.5,-8.2Q13.7 -7.8 11.9 -6.4M12.25,-9.8L11.6 -9.6Q10.15 -9.15 8.65 -8M14.75,-2.3Q13.3 -2 11.85 -1L11.15 -0.5M11.75,-3.9Q9.95 -3.5 8.15 -2.1M5.95,-13.05Q4.15 -12.65 2.35 -11.25M25,-3.5Q23.5 -3.15 21.95 -2.1L21.4 -1.7M27.95,-1.8Q26.3 -1.4 24.65 -0.1M69.9,18.95Q68.1 19.35 66.3 20.75M66.65,17.4Q64.85 17.8 63.05 19.2M53.85,11L53.35 11.15Q52.15 11.5 50.95 12.3L50.25 12.8M47.6,7.85Q45.8 8.25 44 9.65M43.9,6.15Q42.3 6.6 40.7 7.85M46.85,13.75L46.35 13.9Q45.15 14.25 43.95 15.05L43.25 15.55M45.55,20.5Q43.9 20.9 42.25 22.2M49.1,21.95Q47.35 22.35 45.55 23.7M50.1,15.3Q48.3 15.7 46.5 17.1M59.65,20.15Q57.85 20.55 56.05 21.95M57.1,12.55Q55.3 12.95 53.5 14.35M60.05,14.25Q58.4 14.65 56.75 15.95M56.6,18.45Q54.85 18.85 53.05 20.2M53.05,17Q51.4 17.4 49.75 18.7M50.85,9.4Q49.05 9.8 47.25 11.2M44.65,27.65Q42.85 28.05 41.05 29.45M55.4,25.2Q53.6 25.6 51.8 27M47.9,29.2Q46.1 29.6 44.3 31M63.6,15.7Q61.85 16.1 60.05 17.45M62.9,21.7Q61.1 22.1 59.3 23.5M52.15,23.65Q50.35 24.05 48.55 25.45M34.55,1.35Q32.75 1.75 30.95 3.15M36.9,8.9Q35.3 9.35 33.7 10.6M34.05,7.25Q32.35 7.65 30.65 8.9M37.8,2.9Q36 3.3 34.2 4.7M24.5,2.4Q22.75 2.8 20.95 4.15M27.55,4.1Q25.75 4.5 23.95 5.9M31.85,21.25L31.35 21.4Q30.15 21.75 28.95 22.55L28.25 23.05M29.4,12.4Q27.8 12.85 26.2 14.1M25.6,18.1Q23.8 18.5 22 19.9M28.85,19.65Q27.05 20.05 25.25 21.45M35.1,22.8Q33.3 23.2 31.5 24.6M36.35,15.65Q34.55 16.05 32.75 17.45M39.35,17.25L38.85 17.4Q37.65 17.75 36.45 18.55L35.75 19.05M33.1,14.1Q31.3 14.5 29.5 15.9M26.55,10.75Q24.85 11.15 23.15 12.4M30.8,5.65Q29 6.05 27.2 7.45M18,-0.75Q16.5 -0.4 14.95 0.65L14.4 1.05M17,5.9Q15.25 6.3 13.45 7.65M13.45,4.45Q11.8 4.85 10.15 6.15M20.05,7.6Q18.25 8 16.45 9.4M10.5,2.75Q9 3.1 7.45 4.15L6.9 4.55M9.5,9.9Q7.75 10.3 5.95 11.65M5.95,8.45Q4.3 8.85 2.65 10.15M7.25,1.2Q5.8 1.5 4.35 2.5L3.65 3M3.55,23Q1.85 23.4 0.15 24.65M4.8,15.6Q3 16 1.2 17.4M8.05,17.15Q6.25 17.55 4.45 18.95M14.15,20.4Q12.55 20.85 10.95 22.1M17.85,22.1Q16.05 22.5 14.25 23.9M19.05,14.75Q17.35 15.15 15.65 16.4M15.8,13.15Q14 13.55 12.2 14.95M12.55,11.6Q10.75 12 8.95 13.4M11.3,18.75Q9.6 19.15 7.9 20.4M16.35,29.5L15.85 29.65Q14.65 30 13.45 30.8L12.75 31.3M19.6,31.05Q17.8 31.45 16 32.85M10.1,26.35Q8.3 26.75 6.5 28.15M8.6,33.75L8.1 33.9Q6.9 34.25 5.7 35.05L5 35.55M5.6,32.15Q3.8 32.55 2 33.95M3.85,39.05Q2.05 39.45 0.25 40.85M0.6,37.5L0.1 37.65Q-1.1 38 -2.3 38.8L-3 39.3M6.45,47.6Q4.65 48 2.85 49.4M6.8,40.75Q5.15 41.15 3.5 42.45M16.65,45.45Q14.85 45.85 13.05 47.25M18.35,38.45Q16.6 38.85 14.8 40.2M13.35,27.9Q11.55 28.3 9.75 29.7M11.85,35.3Q10.05 35.7 8.25 37.1M13.4,43.9Q11.6 44.3 9.8 45.7M14.8,37Q13.15 37.4 11.5 38.7M10.35,42.2Q8.6 42.6 6.8 43.95M36.9,31.65Q35.1 32.05 33.3 33.45M40.15,33.2Q38.35 33.6 36.55 35M24.1,25.25L23.6 25.4Q22.4 25.75 21.2 26.55L20.5 27.05M30.3,28.5Q28.65 28.9 27 30.2M27.35,26.8Q25.55 27.2 23.75 28.6M26.1,34.2Q24.35 34.6 22.55 35.95M24.65,41.7Q22.85 42.1 21.05 43.5M33.85,29.95Q32.1 30.35 30.3 31.7M32.4,37.45Q30.6 37.85 28.8 39.25M29.15,35.9Q27.35 36.3 25.55 37.7M23.3,9.15Q21.5 9.55 19.7 10.95M21.9,16.4Q20.3 16.85 18.7 18.1M21.1,23.65Q19.3 24.05 17.5 25.45M22.55,32.75Q20.9 33.15 19.25 34.45M21.4,40.15Q19.6 40.55 17.8 41.95M38.05,24.5Q36.4 24.9 34.75 26.2M6.4,24.65Q4.8 25.1 3.2 26.35M20.95,0.95Q19.3 1.35 17.65 2.65M43.85,12.15Q42.05 12.55 40.25 13.95M42.6,18.8Q40.8 19.2 39 20.6M41.6,25.95Q39.85 26.35 38.05 27.7M9.7,49.15Q7.9 49.55 6.1 50.95M40.6,10.6Q38.8 11 37 12.4M41.05,4.5Q39.35 4.9 37.65 6.15M4.25,-0.4Q2.45 0 0.65 1.4M31.5,-0.35Q29.75 0.05 27.95 1.4M-22.55,-5.95Q-24.35 -5.55 -26.15 -4.15M-25.8,-7.5Q-27.6 -7.1 -29.4 -5.7M-30.3,-1.95Q-32.1 -1.55 -33.9 -0.15M-33.55,-3.5Q-35.35 -3.1 -37.15 -1.7M-0.55,-16.2Q-2.35 -15.8 -4.15 -14.4M-3.8,-17.75Q-5.6 -17.35 -7.4 -15.95M-10.8,-15Q-12.6 -14.6 -14.4 -13.2M-15.05,-9.95Q-16.85 -9.55 -18.65 -8.15M-11.8,-8.35Q-13.6 -7.95 -15.4 -6.55M-16.05,-2.8Q-17.85 -2.4 -19.65 -1M-1.05,-10.3Q-2.85 -9.9 -4.65 -8.5M-5.5,-5.1Q-7.3 -4.7 -9.1 -3.3M-2.25,-3.55L-2.9 -3.35Q-4.35 -2.9 -5.85 -1.75M-4.3,-11.85Q-6.1 -11.45 -7.9 -10.05M-7.55,-13.45Q-9.35 -13.05 -11.15 -11.65M-8.55,-6.8Q-10.35 -6.4 -12.15 -5M-19.3,-4.35Q-21.1 -3.95 -22.9 -2.55M-18.3,-11.5Q-20.1 -11.1 -21.9 -9.7M-6.5,2.05Q-8.3 2.45 -10.1 3.85M-4.75,10.75Q-6.25 11.1 -7.8 12.15L-8.35 12.55M3,6.75Q1.5 7.1 -0.05 8.15L-0.6 8.55M-0.25,5.2Q-1.7 5.5 -3.15 6.5L-3.85 7M-3.25,3.6Q-5.05 4 -6.85 5.4M-11,7.6Q-12.8 8 -14.6 9.4M-8,9.2Q-9.45 9.5 -10.9 10.5L-11.6 11M-9.75,0.45L-10.4 0.65Q-11.85 1.1 -13.35 2.25M-14.25,6.05Q-16.05 6.45 -17.85 7.85M-17.5,4.45L-18.15 4.65Q-19.6 5.1 -21.1 6.25M-13.75,22.4Q-15.5 22.8 -17.3 24.15M-15.75,13.45Q-17.2 13.75 -18.65 14.75L-19.35 15.25M-12.5,15Q-14 15.35 -15.55 16.4L-16.1 16.8M-2.95,19.85Q-4.75 20.25 -6.55 21.65M-6,18.15Q-7.75 18.55 -9.55 19.9M-1.8,12.45Q-3.45 12.85 -5.1 14.15M-9.55,16.7Q-11.2 17.1 -12.85 18.4M-23.8,1.2Q-25.6 1.6 -27.4 3M-20.75,2.9Q-22.55 3.3 -24.35 4.7M-25.25,8.7L-25.9 8.9Q-27.35 9.35 -28.85 10.5M-22,10.3Q-23.8 10.7 -25.6 12.1M-34.8,3.9Q-36.6 4.3 -38.4 5.7M-31.55,5.45Q-33.35 5.85 -35.15 7.25M-34.5,19.85Q-36.3 20.25 -38.1 21.65M-31.5,21.45Q-32.95 21.75 -34.4 22.75L-35.1 23.25M-33,12.95L-33.65 13.15Q-35.1 13.6 -36.6 14.75M-26.5,16.1Q-28.3 16.5 -30.1 17.9M-20.25,19.25Q-21.75 19.6 -23.3 20.65L-23.85 21.05M-23.5,17.7Q-24.95 18 -26.4 19L-27.1 19.5M-36.25,11.4Q-38.05 11.8 -39.85 13.2M-28.25,23Q-29.75 23.35 -31.3 24.4L-31.85 24.8M-28.5,7.15Q-30.3 7.55 -32.1 8.95M-29.75,14.55Q-31.55 14.95 -33.35 16.35M-28.7,29.85Q-30.45 30.25 -32.25 31.6M-32.25,28.4Q-33.9 28.8 -35.55 30.1M-35.2,26.7Q-36.7 27.05 -38.25 28.1L-38.8 28.5M-22.4,33.1Q-24.2 33.5 -26 34.9M-25.65,31.55Q-27.45 31.95 -29.25 33.35M-21.75,26.15Q-23.5 26.55 -25.3 27.9M-1.35,28.9Q-2.95 29.35 -4.55 30.6M-4.2,27.25Q-5.9 27.65 -7.6 28.9M-5.65,34.35Q-7.45 34.75 -9.25 36.15M-15.45,29.4Q-17.25 29.8 -19.05 31.2M-12.2,31Q-13.9 31.4 -15.6 32.65M-12.6,38.05Q-14.4 38.45 -16.2 39.85M-0.15,44.45Q-1.8 44.85 -3.45 46.15M-3.1,42.75Q-4.9 43.15 -6.7 44.55M-6.35,41.2L-6.85 41.35Q-8.05 41.7 -9.25 42.5L-9.95 43M-7.45,25.65Q-9.25 26.05 -11.05 27.45M-9.35,32.65Q-10.95 33.1 -12.55 34.35M-9.35,39.6Q-11.15 40 -12.95 41.4M-2.4,35.9Q-4.2 36.3 -6 37.7M-16.3,36.35Q-17.9 36.8 -19.5 38.05M-18.75,11.85Q-20.55 12.25 -22.35 13.65M-17.3,20.95Q-18.95 21.35 -20.6 22.65M-18.7,27.85Q-20.5 28.25 -22.3 29.65M-19.15,34.7Q-20.85 35.1 -22.55 36.35M-10.7,24.1Q-12.5 24.5 -14.3 25.9M-25.3,24.7Q-26.95 25.1 -28.6 26.4M-42.55,8.15Q-44.35 8.55 -46.15 9.95M-41.3,0.75Q-43.1 1.15 -44.9 2.55M-45.8,6.55Q-47.6 6.95 -49.4 8.35M-57.05,8.75Q-58.85 9.15 -60.65 10.55M-53.8,10.3Q-55.6 10.7 -57.4 12.1M-51.2,18.85Q-53 19.25 -54.8 20.65M-54.25,17.15Q-56.05 17.55 -57.85 18.95M-44.25,15.15Q-46.05 15.55 -47.85 16.95M-44.7,22Q-46.5 22.4 -48.3 23.8M-41,16.7L-41.65 16.9Q-43.1 17.35 -44.6 18.5M-47.95,20.4L-48.6 20.6Q-50.05 21.05 -51.55 22.2M-49.05,5Q-50.85 5.4 -52.65 6.8M-47.3,13.45Q-49.1 13.85 -50.9 15.25M-50.55,11.9Q-52.35 12.3 -54.15 13.7M-64,12.45Q-65.8 12.85 -67.6 14.25M-38.45,25.15Q-39.9 25.45 -41.35 26.45L-42.05 26.95M-57.5,15.6Q-59.3 16 -61.1 17.4M-41.45,23.55Q-43.25 23.95 -45.05 25.35M-60.75,14Q-62.55 14.4 -64.35 15.8M-38.05,2.3Q-39.85 2.7 -41.65 4.1M-39.3,9.7Q-41.1 10.1 -42.9 11.5M-37.75,18.3Q-39.55 18.7 -41.35 20.1M-27.05,-0.35Q-28.85 0.05 -30.65 1.45M-13,-1.1Q-14.8 -0.7 -16.6 0.7M2.7,-14.6Q0.9 -14.2 -0.9 -12.8M2,-8.6Q0.2 -8.2 -1.6 -6.8M1,-1.95Q-0.8 -1.55 -2.6 -0.15M1.75,13.9Q0 14.3 -1.8 15.65M2.35,30.6Q0.55 31 -1.25 32.4M3.4,45.9Q1.65 46.3 -0.15 47.65M0.3,21.4Q-1.5 21.8 -3.3 23.2" />
<path style="fill:none;stroke-width:0.5;stroke-linecap:round;stroke-linejoin:round;stroke-miterlimit:3;stroke:#293726;stroke-opacity:1" d="M6.15,54.05L74.85 19.65L80.6 16.75L0.5 -23.25L-5 -20.5L74.85 19.65L74.9 23.6L80.6 20.75L80.6 16.75M5.25,54.5L0.7 56.75L0.7 60.75L5.35 58.45L5.25 54.5M5.35,58.45Q40.1 41 74.9 23.6M5.75,54.25L-74.15 14.15L-79.25 16.7L0.7 56.75M-79.25,16.7L-79.25 20.7L0.7 60.75M-74.15,14.15L-5 -20.5" />
<path style="fill:none;stroke-width:1;stroke-linecap:round;stroke-linejoin:round;stroke-miterlimit:3;stroke:#000000;stroke-opacity:1" d="M5.25,54.5L6.15 54.05" />
</g>
</svg>
