<?xml version="1.0" encoding="utf-8"?>
<svg version="1.1" id="Layer_1"
xmlns="http://www.w3.org/2000/svg"
xmlns:xlink="http://www.w3.org/1999/xlink"
xmlns:author="http://www.sothink.com"
width="52px" height="39px"
xml:space="preserve">
<g id="292" transform="matrix(1, 0, 0, 1, 23.9, 27.1)">
<path style="fill:#614B49;fill-opacity:1" d="M-19,2.15L-19 2.5L-18.9 2.65L-19.1 2.9L-19.55 3.1L-21.15 3.3L-21.35 3.3L-22.7 3.1Q-23.35 2.9 -23.35 2.65L-23.3 2.5L-23.25 -1.55L-22.75 -1.35L-21.2 -1.1L-19.6 -1.35L-19.1 -1.55L-19 2.15" />
<path style="fill:#A3693B;fill-opacity:1" d="M-18.6,-12.8L-18.5 -12.85L-18.55 -12.75L-18.6 -12.8" />
<path style="fill:#BB7648;fill-opacity:1" d="M-1.25,-4.85L-3.3 -5.8L-3.6 -5.95L-3.9 -6.05L-6.55 -7.2L-18.55 -12.75L-18.5 -12.85L5.35 -25.35L25.5 -15.9L9.1 -7.3L3.95 -4.6L3.3 -4.6L3.3 -4.85L3.3 -5L3.3 -5.75L3.25 -7.5L3.2 -7.5L0.4 -7.5L0.3 -7.5L0.25 -7.1L0.2 -6L0.2 -5.75L0.2 -5.6L0.15 -5.05L0.15 -4.6L-0.2 -4.6L-0.2 -4.35L-1.25 -4.85M-16.15,-0.85L-16.15 -1L-15.9 -1.15L-15.95 -1L-16.15 -0.85" />
<path style="fill:#666666;fill-opacity:0.4" d="M-18.9,2.65L-19 2.5L-19 2.15L-6.7 -4.3L-0.2 -1.35L-0.2 -4.35L-0.2 -4.6L0.15 -4.6L0.15 -5.05L0.2 -5.6L0.2 -5.75L0.2 -6L0.25 -7.1L0.3 -7.5L0.4 -7.5L3.2 -7.5L3.25 -7.5L3.3 -5.75L3.3 -5L3.3 -4.85L3.3 -4.6L3.95 -4.6L9.1 -7.3L23.9 -0.45L23.85 -0.5L0.35 11.8L-1.6 10.9L-1.3 10.9L-1.3 10.8L-1.9 10.8L-19.1 2.9L-18.9 2.65M2.1,10.35L1.85 10.5L1.85 10.7L1.85 10.65L2.05 10.5L2.1 10.35M-3.6,-5.95L-3.3 -5.8L-1.25 -4.85L-2.3 -5.35L-3.6 -5.95M-2.05,0.85L-3.65 0.1L-3.65 0.15L-2.05 0.9L-2.05 0.85" />
<linearGradient
id="LinearGradID_1127" gradientUnits="userSpaceOnUse" gradientTransform="matrix(0.0138092, 0, 0, 0.00653076, 16.65, -21.25)" spreadMethod ="pad" x1="-819.2" y1="0" x2="819.2" y2="0" >
<stop  offset="0" style="stop-color:#BFB1A2;stop-opacity:1" />
<stop  offset="0.498039" style="stop-color:#E4E1DE;stop-opacity:1" />
<stop  offset="0.988235" style="stop-color:#C7BBAD;stop-opacity:1" />
</linearGradient>
<path style="fill:url(#LinearGradID_1127) " d="M25.5,-15.9L5.35 -25.35Q6.8 -26.75 8.4 -26.6L25.5 -18.85L25.8 -18.7L25.85 -18.65L26.15 -18.55L26.4 -18.45L27.3 -18.1L27.6 -18L27.6 -17L27.45 -16.95L25.5 -15.9" />
<linearGradient
id="LinearGradID_1128" gradientUnits="userSpaceOnUse" gradientTransform="matrix(0.000701904, 0.0012207, -0.00338745, 0.00193787, 13.75, -7.4)" spreadMethod ="pad" x1="-819.2" y1="0" x2="819.2" y2="0" >
<stop  offset="0" style="stop-color:#BFB1A2;stop-opacity:1" />
<stop  offset="0.498039" style="stop-color:#E4E1DE;stop-opacity:1" />
<stop  offset="0.988235" style="stop-color:#C7BBAD;stop-opacity:1" />
</linearGradient>
<path style="fill:url(#LinearGradID_1128) " d="M12.6,-6.2L12.6 -6.25L15.45 -7.7L15.45 -7.65L12.6 -6.2" />
<linearGradient
id="LinearGradID_1129" gradientUnits="userSpaceOnUse" gradientTransform="matrix(0.000701904, 0.0012207, -0.00338745, 0.00193787, 17.8, -9.5)" spreadMethod ="pad" x1="-819.2" y1="0" x2="819.2" y2="0" >
<stop  offset="0" style="stop-color:#BFB1A2;stop-opacity:1" />
<stop  offset="0.498039" style="stop-color:#E4E1DE;stop-opacity:1" />
<stop  offset="0.988235" style="stop-color:#C7BBAD;stop-opacity:1" />
</linearGradient>
<path style="fill:url(#LinearGradID_1129) " d="M22.65,-11.4L22.75 -11.35L15.45 -7.65L15.45 -7.7L22.65 -11.4" />
<linearGradient
id="LinearGradID_1130" gradientUnits="userSpaceOnUse" gradientTransform="matrix(0.000701904, 0.0012207, -0.00338745, 0.00193787, 25.95, -6.85)" spreadMethod ="pad" x1="-819.2" y1="0" x2="819.2" y2="0" >
<stop  offset="0" style="stop-color:#BFB1A2;stop-opacity:1" />
<stop  offset="0.498039" style="stop-color:#E4E1DE;stop-opacity:1" />
<stop  offset="0.988235" style="stop-color:#C7BBAD;stop-opacity:1" />
</linearGradient>
<path style="fill:url(#LinearGradID_1130) " d="M25.9,-9L26.25 -9.15L26.25 -7.5L26.15 -7.5L26.15 -9L25.9 -9" />
<linearGradient
id="LinearGradID_1131" gradientUnits="userSpaceOnUse" gradientTransform="matrix(0.0336914, 0, 0, 0.0340424, 4.15, -18.3)" spreadMethod ="pad" x1="-819.2" y1="0" x2="819.2" y2="0" >
<stop  offset="0" style="stop-color:#BFB1A2;stop-opacity:1" />
<stop  offset="0.498039" style="stop-color:#DDD8D3;stop-opacity:1" />
<stop  offset="0.988235" style="stop-color:#BFB1A2;stop-opacity:1" />
</linearGradient>
<path style="fill:url(#LinearGradID_1131) " d="M-3.6,-5.95L-2.3 -5.35L-1.25 -4.85L-0.2 -4.35L-0.2 -1.35L-6.7 -4.3L-18.9 -9.9L-19.75 -10.25L-19.75 -9.45L-19.75 -2.25L-19.65 -2.25L-19.6 -2.25L-19.05 -1.95L-18.95 -1.75L-19.1 -1.55L-19.6 -1.35L-21.2 -1.1L-22.75 -1.35L-23.25 -1.55L-23.4 -1.75L-23.35 -1.95L-23.3 -1.95L-22.9 -2.2L-22.75 -2.25L-22.7 -9.15Q-22.8 -10.9 -21.7 -12Q-20.75 -13.05 -19.3 -13.1L-18.5 -12.85L-18.6 -12.8L-18.55 -12.75L-6.55 -7.2L-5.4 -6.7L-5.15 -6.55L-5.05 -6.5L-4.8 -6.4L-4.55 -6.3L-4.2 -6.15L-3.9 -6.05L-3.6 -5.95" />
<linearGradient
id="LinearGradID_1132" gradientUnits="userSpaceOnUse" gradientTransform="matrix(0.000701904, 0.0012207, -0.00338745, 0.00193787, -14.8, -12.6)" spreadMethod ="pad" x1="-819.2" y1="0" x2="819.2" y2="0" >
<stop  offset="0" style="stop-color:#BFB1A2;stop-opacity:1" />
<stop  offset="0.498039" style="stop-color:#E4E1DE;stop-opacity:1" />
<stop  offset="0.988235" style="stop-color:#C7BBAD;stop-opacity:1" />
</linearGradient>
<path style="fill:url(#LinearGradID_1132) " d="M-19.75,-9.45L-19.75 -10.25L-18.9 -9.9L-19.75 -9.45" />
<linearGradient
id="LinearGradID_1133" gradientUnits="userSpaceOnUse" gradientTransform="matrix(0.00109863, 0, 0, 0.0246887, -21.85, -15.1)" spreadMethod ="pad" x1="-819.2" y1="0" x2="819.2" y2="0" >
<stop  offset="0" style="stop-color:#BFB1A2;stop-opacity:1" />
<stop  offset="0.498039" style="stop-color:#E4E1DE;stop-opacity:1" />
<stop  offset="0.988235" style="stop-color:#C7BBAD;stop-opacity:1" />
</linearGradient>
<path style="fill:url(#LinearGradID_1133) " d="M-2.05,0.9L-3.65 0.15L-3.65 0.1L-2.05 0.85L-2.05 0.9" />
<path style="fill:none;stroke-width:1;stroke-linecap:round;stroke-linejoin:round;stroke-miterlimit:3;stroke:#000000;stroke-opacity:1" d="M-19.1,-1.55L-19 2.15L-19 2.5L-18.9 2.65L-19.1 2.9L-19.55 3.1L-21.15 3.3L-21.35 3.3L-22.7 3.1Q-23.35 2.9 -23.35 2.65L-23.3 2.5L-23.25 -1.55L-23.4 -1.75L-23.35 -1.95L-23.3 -1.95L-22.9 -2.2L-22.75 -2.25L-22.7 -9.15Q-22.8 -10.9 -21.7 -12Q-20.75 -13.05 -19.3 -13.1L-18.5 -12.85L5.35 -25.35Q6.8 -26.75 8.4 -26.6L25.5 -18.85L25.8 -18.7L25.85 -18.65L26.15 -18.55L26.4 -18.45L27.3 -18.1L27.6 -18M27.6,-17L27.45 -16.95L25.7 -15.8L25.5 -15.9M5.35,-25.35L25.5 -15.9M-0.2,-1.35L-6.7 -4.3M-23.25,-1.55L-22.75 -1.35L-21.2 -1.1L-19.6 -1.35L-19.1 -1.55L-18.95 -1.75L-19.05 -1.95L-19.6 -2.25L-19.65 -2.25L-19.75 -2.25L-19.75 -9.45L-19.75 -10.25L-18.9 -9.9L-6.7 -4.3M-22.9,-2.2L-22.75 -2.25M-18.5,-12.85L-18.6 -12.8L-18.55 -12.75L-6.55 -7.2L-3.9 -6.05L-3.6 -5.95L-3.3 -5.8L-2.3 -5.35M-1.25,-4.85L-0.2 -4.35M-18.9,-9.9L-19.75 -9.45M-1.25,-4.85L-2.3 -5.35L-3.6 -5.95L-3.9 -6.05L-4.2 -6.15L-4.55 -6.3L-4.8 -6.4L-5.05 -6.5L-5.15 -6.55L-5.4 -6.7L-6.55 -7.2" />
<path style="fill:none;stroke-width:1;stroke-linecap:round;stroke-linejoin:round;stroke-miterlimit:3;stroke:#BB7648;stroke-opacity:1" d="M0.25,-7.1L0.05 -7.1L0.05 -7.75L3.2 -7.5L3.2 -6.5L2.2 -5.6L0.2 -5.6M0.15,-5.05L2.5 -4.85L3.3 -5.75L3.95 -6.25L4 -6.75M0.25,-7.1L0.65 -7.1L0.55 -7.1L0.3 -7L0.2 -6L0.8 -6L1.45 -6.45L1.2 -6.75L0.4 -7.5M3.3,-5L3.3 -4.85L3.2 -4.75L2.5 -4.85M1.45,-6.45L1.7 -6.6L1.95 -7.1L2.05 -7L2.45 -6.6" />
</g>
</svg>
