<?xml version="1.0" encoding="utf-8"?>
<svg version="1.1" id="Layer_1"
xmlns="http://www.w3.org/2000/svg"
xmlns:xlink="http://www.w3.org/1999/xlink"
xmlns:author="http://www.sothink.com"
width="29px" height="34px"
xml:space="preserve">
<g id="684" transform="matrix(1, 0, 0, 1, 12.3, 20.85)">
<path style="fill:#5358FF;fill-opacity:1" d="M9.3,-4.65L4.8 -6.1L9.6 -6.05L8.3 -11.5L10.85 -6.05L15 -9.35L12 -4.95L16.25 -3.9L11.5 -3.75L12.45 1.7L10.05 -3.4L6 -0.5L9.3 -4.65" />
<path style="fill:#6AFF62;fill-opacity:1" d="M4.5,-14.65L5.6 -10.9L3.4 -14.65L-0.4 -11.8L2.5 -15.6L-1.55 -17.8L3.1 -16.75L2.25 -20.85L4.3 -16.95L7.9 -20.1L4.9 -16.05L9.25 -14L4.5 -14.65" />
<path style="fill:#FFFB62;fill-opacity:1" d="M-2.35,12.95L-2.95 7.4L-7 9.45L-3.35 6.15L-7.8 2.4L-2.45 4.9L-1.2 -0.15L-1 5.35L3.5 3.5L-0.4 6.7L4.35 10.15L-1.35 7.55L-2.35 12.95" />
<path style="fill:#FF6666;fill-opacity:1" d="M-2.55,-2.05L-5.9 -6.05L-7.95 -2.3L-6.9 -6.8L-12.3 -7.3L-6.85 -8.2L-8.6 -12.75L-5.5 -8.6L-3.05 -12.45L-4.3 -7.9L1.1 -7.8L-4.6 -6.8L-2.55 -2.05" />
</g>
</svg>
