<?xml version="1.0" encoding="utf-8"?>
<svg version="1.1" id="Layer_1"
xmlns="http://www.w3.org/2000/svg"
xmlns:xlink="http://www.w3.org/1999/xlink"
xmlns:author="http://www.sothink.com"
width="72px" height="36px"
xml:space="preserve">
<g id="596" transform="matrix(1, 0, 0, 1, -85.45, -37.65)">
<linearGradient
id="LinearGradID_2154" gradientUnits="userSpaceOnUse" gradientTransform="matrix(0.000732422, 0.00392151, -0.00419617, 0.000778198, 122.2, 41.65)" spreadMethod ="pad" x1="-819.2" y1="0" x2="819.2" y2="0" >
<stop  offset="0" style="stop-color:#F0F0F0;stop-opacity:1" />
<stop  offset="1" style="stop-color:#C6C6C6;stop-opacity:1" />
</linearGradient>
<path style="fill:url(#LinearGradID_2154) " d="M125.55,39.15Q126.95 40.2 126.95 41.65Q126.95 43.1 125.55 44.1Q124.15 45.15 122.2 45.15Q120.25 45.15 118.85 44.1Q117.45 43.1 117.45 41.65Q117.45 40.2 118.85 39.15Q120.25 38.15 122.2 38.15Q124.15 38.15 125.55 39.15" />
<path style="fill:none;stroke-width:1;stroke-linecap:round;stroke-linejoin:round;stroke-miterlimit:3;stroke:#F6F6F6;stroke-opacity:1" d="M125.55,39.15Q126.95 40.2 126.95 41.65Q126.95 43.1 125.55 44.1Q124.15 45.15 122.2 45.15Q120.25 45.15 118.85 44.1Q117.45 43.1 117.45 41.65Q117.45 40.2 118.85 39.15Q120.25 38.15 122.2 38.15Q124.15 38.15 125.55 39.15z" />
<linearGradient
id="LinearGradID_2155" gradientUnits="userSpaceOnUse" gradientTransform="matrix(0.000534058, 0.00280762, -0.00309753, 0.000549316, 114.2, 46.1)" spreadMethod ="pad" x1="-819.2" y1="0" x2="819.2" y2="0" >
<stop  offset="0" style="stop-color:#F0F0F0;stop-opacity:1" />
<stop  offset="1" style="stop-color:#C6C6C6;stop-opacity:1" />
</linearGradient>
<path style="fill:url(#LinearGradID_2155) " d="M116.65,47.85Q115.65 48.6 114.2 48.6Q112.75 48.6 111.75 47.85Q110.7 47.15 110.7 46.1Q110.7 45.1 111.75 44.35Q112.75 43.6 114.2 43.6Q115.65 43.6 116.65 44.35Q117.7 45.1 117.7 46.1Q117.7 47.15 116.65 47.85" />
<path style="fill:none;stroke-width:1;stroke-linecap:round;stroke-linejoin:round;stroke-miterlimit:3;stroke:#F6F6F6;stroke-opacity:1" d="M116.65,47.85Q115.65 48.6 114.2 48.6Q112.75 48.6 111.75 47.85Q110.7 47.15 110.7 46.1Q110.7 45.1 111.75 44.35Q112.75 43.6 114.2 43.6Q115.65 43.6 116.65 44.35Q117.7 45.1 117.7 46.1Q117.7 47.15 116.65 47.85z" />
<linearGradient
id="LinearGradID_2156" gradientUnits="userSpaceOnUse" gradientTransform="matrix(0.000732422, 0.00392151, -0.00419617, 0.000778198, 109.7, 49.65)" spreadMethod ="pad" x1="-819.2" y1="0" x2="819.2" y2="0" >
<stop  offset="0" style="stop-color:#F0F0F0;stop-opacity:1" />
<stop  offset="1" style="stop-color:#C6C6C6;stop-opacity:1" />
</linearGradient>
<path style="fill:url(#LinearGradID_2156) " d="M109.7,46.15Q111.65 46.15 113.05 47.15Q114.45 48.2 114.45 49.65Q114.45 51.1 113.05 52.1Q111.65 53.15 109.7 53.15Q107.75 53.15 106.35 52.1Q104.95 51.1 104.95 49.65Q104.95 48.2 106.35 47.15Q107.75 46.15 109.7 46.15" />
<path style="fill:none;stroke-width:1;stroke-linecap:round;stroke-linejoin:round;stroke-miterlimit:3;stroke:#F6F6F6;stroke-opacity:1" d="M109.7,46.15Q111.65 46.15 113.05 47.15Q114.45 48.2 114.45 49.65Q114.45 51.1 113.05 52.1Q111.65 53.15 109.7 53.15Q107.75 53.15 106.35 52.1Q104.95 51.1 104.95 49.65Q104.95 48.2 106.35 47.15Q107.75 46.15 109.7 46.15z" />
<linearGradient
id="LinearGradID_2157" gradientUnits="userSpaceOnUse" gradientTransform="matrix(0.000732422, 0.00392151, -0.00419617, 0.000778198, 102.7, 52.15)" spreadMethod ="pad" x1="-819.2" y1="0" x2="819.2" y2="0" >
<stop  offset="0" style="stop-color:#F0F0F0;stop-opacity:1" />
<stop  offset="1" style="stop-color:#C6C6C6;stop-opacity:1" />
</linearGradient>
<path style="fill:url(#LinearGradID_2157) " d="M99.35,54.6Q97.95 53.6 97.95 52.15Q97.95 50.7 99.35 49.65Q100.75 48.65 102.7 48.65Q104.65 48.65 106.05 49.65Q107.45 50.7 107.45 52.15Q107.45 53.6 106.05 54.6Q104.65 55.65 102.7 55.65Q100.75 55.65 99.35 54.6" />
<path style="fill:none;stroke-width:1;stroke-linecap:round;stroke-linejoin:round;stroke-miterlimit:3;stroke:#F6F6F6;stroke-opacity:1" d="M99.35,54.6Q97.95 53.6 97.95 52.15Q97.95 50.7 99.35 49.65Q100.75 48.65 102.7 48.65Q104.65 48.65 106.05 49.65Q107.45 50.7 107.45 52.15Q107.45 53.6 106.05 54.6Q104.65 55.65 102.7 55.65Q100.75 55.65 99.35 54.6z" />
<linearGradient
id="LinearGradID_2158" gradientUnits="userSpaceOnUse" gradientTransform="matrix(0.000732422, 0.00392151, -0.00419617, 0.000778198, 96.7, 55.15)" spreadMethod ="pad" x1="-819.2" y1="0" x2="819.2" y2="0" >
<stop  offset="0" style="stop-color:#F0F0F0;stop-opacity:1" />
<stop  offset="1" style="stop-color:#C6C6C6;stop-opacity:1" />
</linearGradient>
<path style="fill:url(#LinearGradID_2158) " d="M100.05,57.6Q98.65 58.65 96.7 58.65Q94.75 58.65 93.35 57.6Q91.95 56.6 91.95 55.15Q91.95 53.7 93.35 52.65Q94.75 51.65 96.7 51.65Q98.65 51.65 100.05 52.65Q101.45 53.7 101.45 55.15Q101.45 56.6 100.05 57.6" />
<path style="fill:none;stroke-width:1;stroke-linecap:round;stroke-linejoin:round;stroke-miterlimit:3;stroke:#F6F6F6;stroke-opacity:1" d="M100.05,57.6Q98.65 58.65 96.7 58.65Q94.75 58.65 93.35 57.6Q91.95 56.6 91.95 55.15Q91.95 53.7 93.35 52.65Q94.75 51.65 96.7 51.65Q98.65 51.65 100.05 52.65Q101.45 53.7 101.45 55.15Q101.45 56.6 100.05 57.6z" />
<linearGradient
id="LinearGradID_2159" gradientUnits="userSpaceOnUse" gradientTransform="matrix(0.000534058, 0.00280762, -0.00309753, 0.000549316, 89.45, 57.4)" spreadMethod ="pad" x1="-819.2" y1="0" x2="819.2" y2="0" >
<stop  offset="0" style="stop-color:#F0F0F0;stop-opacity:1" />
<stop  offset="1" style="stop-color:#C6C6C6;stop-opacity:1" />
</linearGradient>
<path style="fill:url(#LinearGradID_2159) " d="M91.9,59.15Q90.9 59.9 89.45 59.9Q88 59.9 87 59.15Q85.95 58.45 85.95 57.4Q85.95 56.4 87 55.65Q88 54.9 89.45 54.9Q90.9 54.9 91.9 55.65Q92.95 56.4 92.95 57.4Q92.95 58.45 91.9 59.15" />
<path style="fill:none;stroke-width:1;stroke-linecap:round;stroke-linejoin:round;stroke-miterlimit:3;stroke:#F6F6F6;stroke-opacity:1" d="M91.9,59.15Q90.9 59.9 89.45 59.9Q88 59.9 87 59.15Q85.95 58.45 85.95 57.4Q85.95 56.4 87 55.65Q88 54.9 89.45 54.9Q90.9 54.9 91.9 55.65Q92.95 56.4 92.95 57.4Q92.95 58.45 91.9 59.15z" />
<linearGradient
id="LinearGradID_2160" gradientUnits="userSpaceOnUse" gradientTransform="matrix(0.000732422, 0.00392151, -0.00419617, 0.000778198, 108.95, 52.15)" spreadMethod ="pad" x1="-819.2" y1="0" x2="819.2" y2="0" >
<stop  offset="0" style="stop-color:#F0F0F0;stop-opacity:1" />
<stop  offset="1" style="stop-color:#C6C6C6;stop-opacity:1" />
</linearGradient>
<path style="fill:url(#LinearGradID_2160) " d="M105.6,54.6Q104.2 53.6 104.2 52.15Q104.2 50.7 105.6 49.65Q107 48.65 108.95 48.65Q110.9 48.65 112.3 49.65Q113.7 50.7 113.7 52.15Q113.7 53.6 112.3 54.6Q110.9 55.65 108.95 55.65Q107 55.65 105.6 54.6" />
<path style="fill:none;stroke-width:1;stroke-linecap:round;stroke-linejoin:round;stroke-miterlimit:3;stroke:#F6F6F6;stroke-opacity:1" d="M105.6,54.6Q104.2 53.6 104.2 52.15Q104.2 50.7 105.6 49.65Q107 48.65 108.95 48.65Q110.9 48.65 112.3 49.65Q113.7 50.7 113.7 52.15Q113.7 53.6 112.3 54.6Q110.9 55.65 108.95 55.65Q107 55.65 105.6 54.6z" />
<linearGradient
id="LinearGradID_2161" gradientUnits="userSpaceOnUse" gradientTransform="matrix(0.000732422, 0.00392151, -0.00419617, 0.000778198, 104.2, 55.15)" spreadMethod ="pad" x1="-819.2" y1="0" x2="819.2" y2="0" >
<stop  offset="0" style="stop-color:#F0F0F0;stop-opacity:1" />
<stop  offset="1" style="stop-color:#C6C6C6;stop-opacity:1" />
</linearGradient>
<path style="fill:url(#LinearGradID_2161) " d="M107.55,57.6Q106.15 58.65 104.2 58.65Q102.25 58.65 100.85 57.6Q99.45 56.6 99.45 55.15Q99.45 53.7 100.85 52.65Q102.25 51.65 104.2 51.65Q106.15 51.65 107.55 52.65Q108.95 53.7 108.95 55.15Q108.95 56.6 107.55 57.6" />
<path style="fill:none;stroke-width:1;stroke-linecap:round;stroke-linejoin:round;stroke-miterlimit:3;stroke:#F6F6F6;stroke-opacity:1" d="M107.55,57.6Q106.15 58.65 104.2 58.65Q102.25 58.65 100.85 57.6Q99.45 56.6 99.45 55.15Q99.45 53.7 100.85 52.65Q102.25 51.65 104.2 51.65Q106.15 51.65 107.55 52.65Q108.95 53.7 108.95 55.15Q108.95 56.6 107.55 57.6z" />
<linearGradient
id="LinearGradID_2162" gradientUnits="userSpaceOnUse" gradientTransform="matrix(0.000534058, 0.00280762, -0.00309753, 0.000549316, 97.2, 60.15)" spreadMethod ="pad" x1="-819.2" y1="0" x2="819.2" y2="0" >
<stop  offset="0" style="stop-color:#F0F0F0;stop-opacity:1" />
<stop  offset="1" style="stop-color:#C6C6C6;stop-opacity:1" />
</linearGradient>
<path style="fill:url(#LinearGradID_2162) " d="M99.65,61.9Q98.65 62.65 97.2 62.65Q95.75 62.65 94.75 61.9Q93.7 61.2 93.7 60.15Q93.7 59.15 94.75 58.4Q95.75 57.65 97.2 57.65Q98.65 57.65 99.65 58.4Q100.7 59.15 100.7 60.15Q100.7 61.2 99.65 61.9" />
<path style="fill:none;stroke-width:1;stroke-linecap:round;stroke-linejoin:round;stroke-miterlimit:3;stroke:#F6F6F6;stroke-opacity:1" d="M99.65,61.9Q98.65 62.65 97.2 62.65Q95.75 62.65 94.75 61.9Q93.7 61.2 93.7 60.15Q93.7 59.15 94.75 58.4Q95.75 57.65 97.2 57.65Q98.65 57.65 99.65 58.4Q100.7 59.15 100.7 60.15Q100.7 61.2 99.65 61.9z" />
<linearGradient
id="LinearGradID_2163" gradientUnits="userSpaceOnUse" gradientTransform="matrix(0.000732422, 0.00392151, -0.00419617, 0.000778198, 118.45, 52.15)" spreadMethod ="pad" x1="-819.2" y1="0" x2="819.2" y2="0" >
<stop  offset="0" style="stop-color:#F0F0F0;stop-opacity:1" />
<stop  offset="1" style="stop-color:#C6C6C6;stop-opacity:1" />
</linearGradient>
<path style="fill:url(#LinearGradID_2163) " d="M115.1,54.6Q113.7 53.6 113.7 52.15Q113.7 50.7 115.1 49.65Q116.5 48.65 118.45 48.65Q120.4 48.65 121.8 49.65Q123.2 50.7 123.2 52.15Q123.2 53.6 121.8 54.6Q120.4 55.65 118.45 55.65Q116.5 55.65 115.1 54.6" />
<path style="fill:none;stroke-width:1;stroke-linecap:round;stroke-linejoin:round;stroke-miterlimit:3;stroke:#F6F6F6;stroke-opacity:1" d="M115.1,54.6Q113.7 53.6 113.7 52.15Q113.7 50.7 115.1 49.65Q116.5 48.65 118.45 48.65Q120.4 48.65 121.8 49.65Q123.2 50.7 123.2 52.15Q123.2 53.6 121.8 54.6Q120.4 55.65 118.45 55.65Q116.5 55.65 115.1 54.6z" />
<linearGradient
id="LinearGradID_2164" gradientUnits="userSpaceOnUse" gradientTransform="matrix(0.000732422, 0.00392151, -0.00419617, 0.000778198, 112.45, 55.15)" spreadMethod ="pad" x1="-819.2" y1="0" x2="819.2" y2="0" >
<stop  offset="0" style="stop-color:#F0F0F0;stop-opacity:1" />
<stop  offset="1" style="stop-color:#C6C6C6;stop-opacity:1" />
</linearGradient>
<path style="fill:url(#LinearGradID_2164) " d="M115.8,57.6Q114.4 58.65 112.45 58.65Q110.5 58.65 109.1 57.6Q107.7 56.6 107.7 55.15Q107.7 53.7 109.1 52.65Q110.5 51.65 112.45 51.65Q114.4 51.65 115.8 52.65Q117.2 53.7 117.2 55.15Q117.2 56.6 115.8 57.6" />
<path style="fill:none;stroke-width:1;stroke-linecap:round;stroke-linejoin:round;stroke-miterlimit:3;stroke:#F6F6F6;stroke-opacity:1" d="M115.8,57.6Q114.4 58.65 112.45 58.65Q110.5 58.65 109.1 57.6Q107.7 56.6 107.7 55.15Q107.7 53.7 109.1 52.65Q110.5 51.65 112.45 51.65Q114.4 51.65 115.8 52.65Q117.2 53.7 117.2 55.15Q117.2 56.6 115.8 57.6z" />
<linearGradient
id="LinearGradID_2165" gradientUnits="userSpaceOnUse" gradientTransform="matrix(0.000732422, 0.00392151, -0.00419617, 0.000778198, 108.95, 59.4)" spreadMethod ="pad" x1="-819.2" y1="0" x2="819.2" y2="0" >
<stop  offset="0" style="stop-color:#F0F0F0;stop-opacity:1" />
<stop  offset="1" style="stop-color:#C6C6C6;stop-opacity:1" />
</linearGradient>
<path style="fill:url(#LinearGradID_2165) " d="M112.3,61.85Q110.9 62.9 108.95 62.9Q107 62.9 105.6 61.85Q104.2 60.85 104.2 59.4Q104.2 57.95 105.6 56.9Q107 55.9 108.95 55.9Q110.9 55.9 112.3 56.9Q113.7 57.95 113.7 59.4Q113.7 60.85 112.3 61.85" />
<path style="fill:none;stroke-width:1;stroke-linecap:round;stroke-linejoin:round;stroke-miterlimit:3;stroke:#F6F6F6;stroke-opacity:1" d="M112.3,61.85Q110.9 62.9 108.95 62.9Q107 62.9 105.6 61.85Q104.2 60.85 104.2 59.4Q104.2 57.95 105.6 56.9Q107 55.9 108.95 55.9Q110.9 55.9 112.3 56.9Q113.7 57.95 113.7 59.4Q113.7 60.85 112.3 61.85z" />
<linearGradient
id="LinearGradID_2166" gradientUnits="userSpaceOnUse" gradientTransform="matrix(0.000534058, 0.00280762, -0.00309753, 0.000549316, 111.45, 61.9)" spreadMethod ="pad" x1="-819.2" y1="0" x2="819.2" y2="0" >
<stop  offset="0" style="stop-color:#F0F0F0;stop-opacity:1" />
<stop  offset="1" style="stop-color:#C6C6C6;stop-opacity:1" />
</linearGradient>
<path style="fill:url(#LinearGradID_2166) " d="M113.9,63.65Q112.9 64.4 111.45 64.4Q110 64.4 109 63.65Q107.95 62.95 107.95 61.9Q107.95 60.9 109 60.15Q110 59.4 111.45 59.4Q112.9 59.4 113.9 60.15Q114.95 60.9 114.95 61.9Q114.95 62.95 113.9 63.65" />
<path style="fill:none;stroke-width:1;stroke-linecap:round;stroke-linejoin:round;stroke-miterlimit:3;stroke:#F6F6F6;stroke-opacity:1" d="M113.9,63.65Q112.9 64.4 111.45 64.4Q110 64.4 109 63.65Q107.95 62.95 107.95 61.9Q107.95 60.9 109 60.15Q110 59.4 111.45 59.4Q112.9 59.4 113.9 60.15Q114.95 60.9 114.95 61.9Q114.95 62.95 113.9 63.65z" />
<linearGradient
id="LinearGradID_2167" gradientUnits="userSpaceOnUse" gradientTransform="matrix(0.000534058, 0.00280762, -0.00309753, 0.000549316, 102.95, 63.45)" spreadMethod ="pad" x1="-819.2" y1="0" x2="819.2" y2="0" >
<stop  offset="0" style="stop-color:#F0F0F0;stop-opacity:1" />
<stop  offset="1" style="stop-color:#C6C6C6;stop-opacity:1" />
</linearGradient>
<path style="fill:url(#LinearGradID_2167) " d="M105.4,65.2Q104.4 65.95 102.95 65.95Q101.5 65.95 100.5 65.2Q99.45 64.5 99.45 63.45Q99.45 62.45 100.5 61.7Q101.5 60.95 102.95 60.95Q104.4 60.95 105.4 61.7Q106.45 62.45 106.45 63.45Q106.45 64.5 105.4 65.2" />
<path style="fill:none;stroke-width:1;stroke-linecap:round;stroke-linejoin:round;stroke-miterlimit:3;stroke:#F6F6F6;stroke-opacity:1" d="M105.4,65.2Q104.4 65.95 102.95 65.95Q101.5 65.95 100.5 65.2Q99.45 64.5 99.45 63.45Q99.45 62.45 100.5 61.7Q101.5 60.95 102.95 60.95Q104.4 60.95 105.4 61.7Q106.45 62.45 106.45 63.45Q106.45 64.5 105.4 65.2z" />
<linearGradient
id="LinearGradID_2168" gradientUnits="userSpaceOnUse" gradientTransform="matrix(0.000732422, 0.00392151, -0.00419617, 0.000778198, 138.45, 56.65)" spreadMethod ="pad" x1="-819.2" y1="0" x2="819.2" y2="0" >
<stop  offset="0" style="stop-color:#F0F0F0;stop-opacity:1" />
<stop  offset="1" style="stop-color:#C6C6C6;stop-opacity:1" />
</linearGradient>
<path style="fill:url(#LinearGradID_2168) " d="M141.8,59.1Q140.4 60.15 138.45 60.15Q136.5 60.15 135.1 59.1Q133.7 58.1 133.7 56.65Q133.7 55.2 135.1 54.15Q136.5 53.15 138.45 53.15Q140.4 53.15 141.8 54.15Q143.2 55.2 143.2 56.65Q143.2 58.1 141.8 59.1" />
<path style="fill:none;stroke-width:1;stroke-linecap:round;stroke-linejoin:round;stroke-miterlimit:3;stroke:#F6F6F6;stroke-opacity:1" d="M141.8,59.1Q140.4 60.15 138.45 60.15Q136.5 60.15 135.1 59.1Q133.7 58.1 133.7 56.65Q133.7 55.2 135.1 54.15Q136.5 53.15 138.45 53.15Q140.4 53.15 141.8 54.15Q143.2 55.2 143.2 56.65Q143.2 58.1 141.8 59.1z" />
<linearGradient
id="LinearGradID_2169" gradientUnits="userSpaceOnUse" gradientTransform="matrix(0.000534058, 0.00280762, -0.00309753, 0.000549316, 131.9, 54.4)" spreadMethod ="pad" x1="-819.2" y1="0" x2="819.2" y2="0" >
<stop  offset="0" style="stop-color:#F0F0F0;stop-opacity:1" />
<stop  offset="1" style="stop-color:#C6C6C6;stop-opacity:1" />
</linearGradient>
<path style="fill:url(#LinearGradID_2169) " d="M134.35,56.15Q133.35 56.9 131.9 56.9Q130.45 56.9 129.45 56.15Q128.4 55.45 128.4 54.4Q128.4 53.4 129.45 52.65Q130.45 51.9 131.9 51.9Q133.35 51.9 134.35 52.65Q135.4 53.4 135.4 54.4Q135.4 55.45 134.35 56.15" />
<path style="fill:none;stroke-width:1;stroke-linecap:round;stroke-linejoin:round;stroke-miterlimit:3;stroke:#F6F6F6;stroke-opacity:1" d="M134.35,56.15Q133.35 56.9 131.9 56.9Q130.45 56.9 129.45 56.15Q128.4 55.45 128.4 54.4Q128.4 53.4 129.45 52.65Q130.45 51.9 131.9 51.9Q133.35 51.9 134.35 52.65Q135.4 53.4 135.4 54.4Q135.4 55.45 134.35 56.15z" />
<linearGradient
id="LinearGradID_2170" gradientUnits="userSpaceOnUse" gradientTransform="matrix(0.000732422, 0.00392151, -0.00419617, 0.000778198, 127.7, 60.4)" spreadMethod ="pad" x1="-819.2" y1="0" x2="819.2" y2="0" >
<stop  offset="0" style="stop-color:#F0F0F0;stop-opacity:1" />
<stop  offset="1" style="stop-color:#C6C6C6;stop-opacity:1" />
</linearGradient>
<path style="fill:url(#LinearGradID_2170) " d="M131.05,62.85Q129.65 63.9 127.7 63.9Q125.75 63.9 124.35 62.85Q122.95 61.85 122.95 60.4Q122.95 58.95 124.35 57.9Q125.75 56.9 127.7 56.9Q129.65 56.9 131.05 57.9Q132.45 58.95 132.45 60.4Q132.45 61.85 131.05 62.85" />
<path style="fill:none;stroke-width:1;stroke-linecap:round;stroke-linejoin:round;stroke-miterlimit:3;stroke:#F6F6F6;stroke-opacity:1" d="M131.05,62.85Q129.65 63.9 127.7 63.9Q125.75 63.9 124.35 62.85Q122.95 61.85 122.95 60.4Q122.95 58.95 124.35 57.9Q125.75 56.9 127.7 56.9Q129.65 56.9 131.05 57.9Q132.45 58.95 132.45 60.4Q132.45 61.85 131.05 62.85z" />
<linearGradient
id="LinearGradID_2171" gradientUnits="userSpaceOnUse" gradientTransform="matrix(0.000732422, 0.00392151, -0.00419617, 0.000778198, 117.05, 62.4)" spreadMethod ="pad" x1="-819.2" y1="0" x2="819.2" y2="0" >
<stop  offset="0" style="stop-color:#F0F0F0;stop-opacity:1" />
<stop  offset="1" style="stop-color:#C6C6C6;stop-opacity:1" />
</linearGradient>
<path style="fill:url(#LinearGradID_2171) " d="M113.7,64.85Q112.3 63.85 112.3 62.4Q112.3 60.95 113.7 59.9Q115.1 58.9 117.05 58.9Q119 58.9 120.4 59.9Q121.8 60.95 121.8 62.4Q121.8 63.85 120.4 64.85Q119 65.9 117.05 65.9Q115.1 65.9 113.7 64.85" />
<path style="fill:none;stroke-width:1;stroke-linecap:round;stroke-linejoin:round;stroke-miterlimit:3;stroke:#F6F6F6;stroke-opacity:1" d="M113.7,64.85Q112.3 63.85 112.3 62.4Q112.3 60.95 113.7 59.9Q115.1 58.9 117.05 58.9Q119 58.9 120.4 59.9Q121.8 60.95 121.8 62.4Q121.8 63.85 120.4 64.85Q119 65.9 117.05 65.9Q115.1 65.9 113.7 64.85z" />
<linearGradient
id="LinearGradID_2172" gradientUnits="userSpaceOnUse" gradientTransform="matrix(0.000732422, 0.00392151, -0.00419617, 0.000778198, 130.2, 64.15)" spreadMethod ="pad" x1="-819.2" y1="0" x2="819.2" y2="0" >
<stop  offset="0" style="stop-color:#F0F0F0;stop-opacity:1" />
<stop  offset="1" style="stop-color:#C6C6C6;stop-opacity:1" />
</linearGradient>
<path style="fill:url(#LinearGradID_2172) " d="M133.55,66.6Q132.15 67.65 130.2 67.65Q128.25 67.65 126.85 66.6Q125.45 65.6 125.45 64.15Q125.45 62.7 126.85 61.65Q128.25 60.65 130.2 60.65Q132.15 60.65 133.55 61.65Q134.95 62.7 134.95 64.15Q134.95 65.6 133.55 66.6" />
<path style="fill:none;stroke-width:1;stroke-linecap:round;stroke-linejoin:round;stroke-miterlimit:3;stroke:#F6F6F6;stroke-opacity:1" d="M133.55,66.6Q132.15 67.65 130.2 67.65Q128.25 67.65 126.85 66.6Q125.45 65.6 125.45 64.15Q125.45 62.7 126.85 61.65Q128.25 60.65 130.2 60.65Q132.15 60.65 133.55 61.65Q134.95 62.7 134.95 64.15Q134.95 65.6 133.55 66.6z" />
<linearGradient
id="LinearGradID_2173" gradientUnits="userSpaceOnUse" gradientTransform="matrix(0.000534058, 0.00280762, -0.00309753, 0.000549316, 124.7, 68.15)" spreadMethod ="pad" x1="-819.2" y1="0" x2="819.2" y2="0" >
<stop  offset="0" style="stop-color:#F0F0F0;stop-opacity:1" />
<stop  offset="1" style="stop-color:#C6C6C6;stop-opacity:1" />
</linearGradient>
<path style="fill:url(#LinearGradID_2173) " d="M124.7,70.65Q123.25 70.65 122.25 69.9Q121.2 69.2 121.2 68.15Q121.2 67.15 122.25 66.4Q123.25 65.65 124.7 65.65Q126.15 65.65 127.15 66.4Q128.2 67.15 128.2 68.15Q128.2 69.2 127.15 69.9Q126.15 70.65 124.7 70.65" />
<path style="fill:none;stroke-width:1;stroke-linecap:round;stroke-linejoin:round;stroke-miterlimit:3;stroke:#F6F6F6;stroke-opacity:1" d="M124.7,70.65Q123.25 70.65 122.25 69.9Q121.2 69.2 121.2 68.15Q121.2 67.15 122.25 66.4Q123.25 65.65 124.7 65.65Q126.15 65.65 127.15 66.4Q128.2 67.15 128.2 68.15Q128.2 69.2 127.15 69.9Q126.15 70.65 124.7 70.65z" />
<linearGradient
id="LinearGradID_2174" gradientUnits="userSpaceOnUse" gradientTransform="matrix(0.000534058, 0.00280762, -0.00309753, 0.000549316, 118.7, 70.15)" spreadMethod ="pad" x1="-819.2" y1="0" x2="819.2" y2="0" >
<stop  offset="0" style="stop-color:#F0F0F0;stop-opacity:1" />
<stop  offset="1" style="stop-color:#C6C6C6;stop-opacity:1" />
</linearGradient>
<path style="fill:url(#LinearGradID_2174) " d="M116.25,71.9Q115.2 71.2 115.2 70.15Q115.2 69.15 116.25 68.4Q117.25 67.65 118.7 67.65Q120.15 67.65 121.15 68.4Q122.2 69.15 122.2 70.15Q122.2 71.2 121.15 71.9Q120.15 72.65 118.7 72.65Q117.25 72.65 116.25 71.9" />
<path style="fill:none;stroke-width:1;stroke-linecap:round;stroke-linejoin:round;stroke-miterlimit:3;stroke:#F6F6F6;stroke-opacity:1" d="M116.25,71.9Q115.2 71.2 115.2 70.15Q115.2 69.15 116.25 68.4Q117.25 67.65 118.7 67.65Q120.15 67.65 121.15 68.4Q122.2 69.15 122.2 70.15Q122.2 71.2 121.15 71.9Q120.15 72.65 118.7 72.65Q117.25 72.65 116.25 71.9z" />
<linearGradient
id="LinearGradID_2175" gradientUnits="userSpaceOnUse" gradientTransform="matrix(0.000732422, 0.00392151, -0.00419617, 0.000778198, 152.2, 55.15)" spreadMethod ="pad" x1="-819.2" y1="0" x2="819.2" y2="0" >
<stop  offset="0" style="stop-color:#F0F0F0;stop-opacity:1" />
<stop  offset="1" style="stop-color:#C6C6C6;stop-opacity:1" />
</linearGradient>
<path style="fill:url(#LinearGradID_2175) " d="M155.55,57.6Q154.15 58.65 152.2 58.65Q150.25 58.65 148.85 57.6Q147.45 56.6 147.45 55.15Q147.45 53.7 148.85 52.65Q150.25 51.65 152.2 51.65Q154.15 51.65 155.55 52.65Q156.95 53.7 156.95 55.15Q156.95 56.6 155.55 57.6" />
<path style="fill:none;stroke-width:1;stroke-linecap:round;stroke-linejoin:round;stroke-miterlimit:3;stroke:#F6F6F6;stroke-opacity:1" d="M155.55,57.6Q154.15 58.65 152.2 58.65Q150.25 58.65 148.85 57.6Q147.45 56.6 147.45 55.15Q147.45 53.7 148.85 52.65Q150.25 51.65 152.2 51.65Q154.15 51.65 155.55 52.65Q156.95 53.7 156.95 55.15Q156.95 56.6 155.55 57.6z" />
<linearGradient
id="LinearGradID_2176" gradientUnits="userSpaceOnUse" gradientTransform="matrix(0.000732422, 0.00392151, -0.00419617, 0.000778198, 143.55, 60.15)" spreadMethod ="pad" x1="-819.2" y1="0" x2="819.2" y2="0" >
<stop  offset="0" style="stop-color:#F0F0F0;stop-opacity:1" />
<stop  offset="1" style="stop-color:#C6C6C6;stop-opacity:1" />
</linearGradient>
<path style="fill:url(#LinearGradID_2176) " d="M146.9,62.6Q145.5 63.65 143.55 63.65Q141.6 63.65 140.2 62.6Q138.8 61.6 138.8 60.15Q138.8 58.7 140.2 57.65Q141.6 56.65 143.55 56.65Q145.5 56.65 146.9 57.65Q148.3 58.7 148.3 60.15Q148.3 61.6 146.9 62.6" />
<path style="fill:none;stroke-width:1;stroke-linecap:round;stroke-linejoin:round;stroke-miterlimit:3;stroke:#F6F6F6;stroke-opacity:1" d="M146.9,62.6Q145.5 63.65 143.55 63.65Q141.6 63.65 140.2 62.6Q138.8 61.6 138.8 60.15Q138.8 58.7 140.2 57.65Q141.6 56.65 143.55 56.65Q145.5 56.65 146.9 57.65Q148.3 58.7 148.3 60.15Q148.3 61.6 146.9 62.6z" />
<linearGradient
id="LinearGradID_2177" gradientUnits="userSpaceOnUse" gradientTransform="matrix(0.000534058, 0.00280762, -0.00309753, 0.000549316, 137.95, 63.15)" spreadMethod ="pad" x1="-819.2" y1="0" x2="819.2" y2="0" >
<stop  offset="0" style="stop-color:#F0F0F0;stop-opacity:1" />
<stop  offset="1" style="stop-color:#C6C6C6;stop-opacity:1" />
</linearGradient>
<path style="fill:url(#LinearGradID_2177) " d="M140.4,64.9Q139.4 65.65 137.95 65.65Q136.5 65.65 135.5 64.9Q134.45 64.2 134.45 63.15Q134.45 62.15 135.5 61.4Q136.5 60.65 137.95 60.65Q139.4 60.65 140.4 61.4Q141.45 62.15 141.45 63.15Q141.45 64.2 140.4 64.9" />
<path style="fill:none;stroke-width:1;stroke-linecap:round;stroke-linejoin:round;stroke-miterlimit:3;stroke:#F6F6F6;stroke-opacity:1" d="M140.4,64.9Q139.4 65.65 137.95 65.65Q136.5 65.65 135.5 64.9Q134.45 64.2 134.45 63.15Q134.45 62.15 135.5 61.4Q136.5 60.65 137.95 60.65Q139.4 60.65 140.4 61.4Q141.45 62.15 141.45 63.15Q141.45 64.2 140.4 64.9z" />
<linearGradient
id="LinearGradID_2178" gradientUnits="userSpaceOnUse" gradientTransform="matrix(0.000732422, 0.00392151, -0.00419617, 0.000778198, 111.2, 67.15)" spreadMethod ="pad" x1="-819.2" y1="0" x2="819.2" y2="0" >
<stop  offset="0" style="stop-color:#F0F0F0;stop-opacity:1" />
<stop  offset="1" style="stop-color:#C6C6C6;stop-opacity:1" />
</linearGradient>
<path style="fill:url(#LinearGradID_2178) " d="M114.55,69.6Q113.15 70.65 111.2 70.65Q109.25 70.65 107.85 69.6Q106.45 68.6 106.45 67.15Q106.45 65.7 107.85 64.65Q109.25 63.65 111.2 63.65Q113.15 63.65 114.55 64.65Q115.95 65.7 115.95 67.15Q115.95 68.6 114.55 69.6" />
<path style="fill:none;stroke-width:1;stroke-linecap:round;stroke-linejoin:round;stroke-miterlimit:3;stroke:#F6F6F6;stroke-opacity:1" d="M114.55,69.6Q113.15 70.65 111.2 70.65Q109.25 70.65 107.85 69.6Q106.45 68.6 106.45 67.15Q106.45 65.7 107.85 64.65Q109.25 63.65 111.2 63.65Q113.15 63.65 114.55 64.65Q115.95 65.7 115.95 67.15Q115.95 68.6 114.55 69.6z" />
<linearGradient
id="LinearGradID_2179" gradientUnits="userSpaceOnUse" gradientTransform="matrix(0.000732422, 0.00392151, -0.00419617, 0.000778198, 118.45, 55.9)" spreadMethod ="pad" x1="-819.2" y1="0" x2="819.2" y2="0" >
<stop  offset="0" style="stop-color:#F0F0F0;stop-opacity:1" />
<stop  offset="1" style="stop-color:#C6C6C6;stop-opacity:1" />
</linearGradient>
<path style="fill:url(#LinearGradID_2179) " d="M115.1,53.4Q116.5 52.4 118.45 52.4Q120.4 52.4 121.8 53.4Q123.2 54.45 123.2 55.9Q123.2 57.35 121.8 58.35Q120.4 59.4 118.45 59.4Q116.5 59.4 115.1 58.35Q113.7 57.35 113.7 55.9Q113.7 54.45 115.1 53.4" />
<path style="fill:none;stroke-width:1;stroke-linecap:round;stroke-linejoin:round;stroke-miterlimit:3;stroke:#F6F6F6;stroke-opacity:1" d="M115.1,53.4Q116.5 52.4 118.45 52.4Q120.4 52.4 121.8 53.4Q123.2 54.45 123.2 55.9Q123.2 57.35 121.8 58.35Q120.4 59.4 118.45 59.4Q116.5 59.4 115.1 58.35Q113.7 57.35 113.7 55.9Q113.7 54.45 115.1 53.4z" />
<linearGradient
id="LinearGradID_2180" gradientUnits="userSpaceOnUse" gradientTransform="matrix(0.000534058, 0.00280762, -0.00309753, 0.000549316, 123.7, 51.85)" spreadMethod ="pad" x1="-819.2" y1="0" x2="819.2" y2="0" >
<stop  offset="0" style="stop-color:#F0F0F0;stop-opacity:1" />
<stop  offset="1" style="stop-color:#C6C6C6;stop-opacity:1" />
</linearGradient>
<path style="fill:url(#LinearGradID_2180) " d="M121.25,50.1Q122.25 49.35 123.7 49.35Q125.15 49.35 126.15 50.1Q127.2 50.85 127.2 51.85Q127.2 52.9 126.15 53.6Q125.15 54.35 123.7 54.35Q122.25 54.35 121.25 53.6Q120.2 52.9 120.2 51.85Q120.2 50.85 121.25 50.1" />
<path style="fill:none;stroke-width:1;stroke-linecap:round;stroke-linejoin:round;stroke-miterlimit:3;stroke:#F6F6F6;stroke-opacity:1" d="M121.25,50.1Q122.25 49.35 123.7 49.35Q125.15 49.35 126.15 50.1Q127.2 50.85 127.2 51.85Q127.2 52.9 126.15 53.6Q125.15 54.35 123.7 54.35Q122.25 54.35 121.25 53.6Q120.2 52.9 120.2 51.85Q120.2 50.85 121.25 50.1z" />
<linearGradient
id="LinearGradID_2181" gradientUnits="userSpaceOnUse" gradientTransform="matrix(0.000732422, 0.00392151, -0.00419617, 0.000778198, 124.2, 45.9)" spreadMethod ="pad" x1="-819.2" y1="0" x2="819.2" y2="0" >
<stop  offset="0" style="stop-color:#F0F0F0;stop-opacity:1" />
<stop  offset="1" style="stop-color:#C6C6C6;stop-opacity:1" />
</linearGradient>
<path style="fill:url(#LinearGradID_2181) " d="M127.55,43.4Q128.95 44.45 128.95 45.9Q128.95 47.35 127.55 48.35Q126.15 49.4 124.2 49.4Q122.25 49.4 120.85 48.35Q119.45 47.35 119.45 45.9Q119.45 44.45 120.85 43.4Q122.25 42.4 124.2 42.4Q126.15 42.4 127.55 43.4" />
<path style="fill:none;stroke-width:1;stroke-linecap:round;stroke-linejoin:round;stroke-miterlimit:3;stroke:#F6F6F6;stroke-opacity:1" d="M127.55,43.4Q128.95 44.45 128.95 45.9Q128.95 47.35 127.55 48.35Q126.15 49.4 124.2 49.4Q122.25 49.4 120.85 48.35Q119.45 47.35 119.45 45.9Q119.45 44.45 120.85 43.4Q122.25 42.4 124.2 42.4Q126.15 42.4 127.55 43.4z" />
<linearGradient
id="LinearGradID_2182" gradientUnits="userSpaceOnUse" gradientTransform="matrix(0.000732422, 0.00392151, -0.00419617, 0.000778198, 130.7, 46.4)" spreadMethod ="pad" x1="-819.2" y1="0" x2="819.2" y2="0" >
<stop  offset="0" style="stop-color:#F0F0F0;stop-opacity:1" />
<stop  offset="1" style="stop-color:#C6C6C6;stop-opacity:1" />
</linearGradient>
<path style="fill:url(#LinearGradID_2182) " d="M134.05,48.85Q132.65 49.9 130.7 49.9Q128.75 49.9 127.35 48.85Q125.95 47.85 125.95 46.4Q125.95 44.95 127.35 43.9Q128.75 42.9 130.7 42.9Q132.65 42.9 134.05 43.9Q135.45 44.95 135.45 46.4Q135.45 47.85 134.05 48.85" />
<path style="fill:none;stroke-width:1;stroke-linecap:round;stroke-linejoin:round;stroke-miterlimit:3;stroke:#F6F6F6;stroke-opacity:1" d="M134.05,48.85Q132.65 49.9 130.7 49.9Q128.75 49.9 127.35 48.85Q125.95 47.85 125.95 46.4Q125.95 44.95 127.35 43.9Q128.75 42.9 130.7 42.9Q132.65 42.9 134.05 43.9Q135.45 44.95 135.45 46.4Q135.45 47.85 134.05 48.85z" />
<linearGradient
id="LinearGradID_2183" gradientUnits="userSpaceOnUse" gradientTransform="matrix(0.000534058, 0.00280762, -0.00309753, 0.000549316, 135.3, 48.15)" spreadMethod ="pad" x1="-819.2" y1="0" x2="819.2" y2="0" >
<stop  offset="0" style="stop-color:#F0F0F0;stop-opacity:1" />
<stop  offset="1" style="stop-color:#C6C6C6;stop-opacity:1" />
</linearGradient>
<path style="fill:url(#LinearGradID_2183) " d="M132.85,46.4Q133.85 45.65 135.3 45.65Q136.75 45.65 137.75 46.4Q138.8 47.15 138.8 48.15Q138.8 49.2 137.75 49.9Q136.75 50.65 135.3 50.65Q133.85 50.65 132.85 49.9Q131.8 49.2 131.8 48.15Q131.8 47.15 132.85 46.4" />
<path style="fill:none;stroke-width:1;stroke-linecap:round;stroke-linejoin:round;stroke-miterlimit:3;stroke:#F6F6F6;stroke-opacity:1" d="M132.85,46.4Q133.85 45.65 135.3 45.65Q136.75 45.65 137.75 46.4Q138.8 47.15 138.8 48.15Q138.8 49.2 137.75 49.9Q136.75 50.65 135.3 50.65Q133.85 50.65 132.85 49.9Q131.8 49.2 131.8 48.15Q131.8 47.15 132.85 46.4z" />
<linearGradient
id="LinearGradID_2184" gradientUnits="userSpaceOnUse" gradientTransform="matrix(0.000732422, 0.00392151, -0.00419617, 0.000778198, 141.45, 51.4)" spreadMethod ="pad" x1="-819.2" y1="0" x2="819.2" y2="0" >
<stop  offset="0" style="stop-color:#F0F0F0;stop-opacity:1" />
<stop  offset="1" style="stop-color:#C6C6C6;stop-opacity:1" />
</linearGradient>
<path style="fill:url(#LinearGradID_2184) " d="M141.45,47.9Q143.4 47.9 144.8 48.9Q146.2 49.95 146.2 51.4Q146.2 52.85 144.8 53.85Q143.4 54.9 141.45 54.9Q139.5 54.9 138.1 53.85Q136.7 52.85 136.7 51.4Q136.7 49.95 138.1 48.9Q139.5 47.9 141.45 47.9" />
<path style="fill:none;stroke-width:1;stroke-linecap:round;stroke-linejoin:round;stroke-miterlimit:3;stroke:#F6F6F6;stroke-opacity:1" d="M141.45,47.9Q143.4 47.9 144.8 48.9Q146.2 49.95 146.2 51.4Q146.2 52.85 144.8 53.85Q143.4 54.9 141.45 54.9Q139.5 54.9 138.1 53.85Q136.7 52.85 136.7 51.4Q136.7 49.95 138.1 48.9Q139.5 47.9 141.45 47.9z" />
<path style="fill:#000000;fill-opacity:0.145098" d="M107.85,57.8Q110.35 57.05 113.25 59.25Q117.3 60.35 119.15 63.4Q121.6 65.65 120.65 68.05Q119.6 69.95 116.55 70.65L110.25 68.7Q107.5 66.3 104.5 64.45Q102.5 61.05 103.5 59.4Q104 57.7 107.85 57.8" />
<radialGradient
id="RadialGradID_2185" gradientUnits="userSpaceOnUse" gradientTransform="matrix(-0.00236511, 0.0118408, -0.0160522, -0.00416565, 113, 60.75)" spreadMethod ="pad" cx="0" cy="0" r="819.2" fx="0" fy="0" >
<stop  offset="0"  style="stop-color:#C4C4C4;stop-opacity:1" />
<stop  offset="0.454902"  style="stop-color:#ACACAC;stop-opacity:1" />
<stop  offset="0.666667"  style="stop-color:#898989;stop-opacity:1" />
<stop  offset="0.807843"  style="stop-color:#828282;stop-opacity:1" />
<stop  offset="1"  style="stop-color:#555555;stop-opacity:1" />
<stop  offset="1"  style="stop-color:#646464;stop-opacity:1" />
</radialGradient>
<path style="fill:url(#RadialGradID_2185) " d="M105.4,62.5Q103.4 59.1 104.4 57.45Q104.9 55.75 108.75 55.85Q111.25 55.1 114.15 57.3Q118.2 58.4 120.05 61.45Q122.5 63.7 121.55 66.1Q120.5 68 117.45 68.7L111.15 66.75Q108.4 64.35 105.4 62.5" />
<path style="fill:none;stroke-width:0.5;stroke-linecap:round;stroke-linejoin:round;stroke-miterlimit:3;stroke:#4F4F4F;stroke-opacity:1" d="M105.4,62.5Q103.4 59.1 104.4 57.45Q104.9 55.75 108.75 55.85Q111.25 55.1 114.15 57.3Q118.2 58.4 120.05 61.45Q122.5 63.7 121.55 66.1Q120.5 68 117.45 68.7L111.15 66.75Q108.4 64.35 105.4 62.5z" />
<path style="fill:#000000;fill-opacity:0.145098" d="M121.7,55.35Q119.25 53.1 120.2 50.7Q121.25 48.8 124.3 48.1L130.6 50.05Q133.35 52.45 136.35 54.3Q138.35 57.7 137.35 59.35Q136.85 61.05 133 60.95Q130.5 61.7 127.6 59.5Q123.55 58.4 121.7 55.35" />
<radialGradient
id="RadialGradID_2186" gradientUnits="userSpaceOnUse" gradientTransform="matrix(0.00236511, -0.0118408, 0.0160522, 0.00416565, 130.6, 54.3)" spreadMethod ="pad" cx="0" cy="0" r="819.2" fx="0" fy="0" >
<stop  offset="0"  style="stop-color:#C4C4C4;stop-opacity:1" />
<stop  offset="0.454902"  style="stop-color:#ACACAC;stop-opacity:1" />
<stop  offset="0.666667"  style="stop-color:#898989;stop-opacity:1" />
<stop  offset="0.807843"  style="stop-color:#828282;stop-opacity:1" />
<stop  offset="1"  style="stop-color:#555555;stop-opacity:1" />
<stop  offset="1"  style="stop-color:#646464;stop-opacity:1" />
</radialGradient>
<path style="fill:url(#RadialGradID_2186) " d="M126.15,46.35L132.45 48.3Q135.2 50.7 138.2 52.55Q140.2 55.95 139.2 57.6Q138.7 59.3 134.85 59.2Q132.35 59.95 129.45 57.75Q125.4 56.65 123.55 53.6Q121.1 51.35 122.05 48.95Q123.1 47.05 126.15 46.35" />
<path style="fill:none;stroke-width:0.5;stroke-linecap:round;stroke-linejoin:round;stroke-miterlimit:3;stroke:#4F4F4F;stroke-opacity:1" d="M126.15,46.35L132.45 48.3Q135.2 50.7 138.2 52.55Q140.2 55.95 139.2 57.6Q138.7 59.3 134.85 59.2Q132.35 59.95 129.45 57.75Q125.4 56.65 123.55 53.6Q121.1 51.35 122.05 48.95Q123.1 47.05 126.15 46.35z" />
</g>
</svg>
