<?xml version="1.0" encoding="utf-8"?>
<svg version="1.1" id="Layer_1"
xmlns="http://www.w3.org/2000/svg"
xmlns:xlink="http://www.w3.org/1999/xlink"
xmlns:author="http://www.sothink.com"
width="81px" height="67px"
xml:space="preserve">
<g id="329" transform="matrix(1, 0, 0, 1, 38.4, 45.9)">
<path style="fill:#000000;fill-opacity:0.2" d="M23.4,9.45L23.4 9.5L27.75 7.35L28.15 7.55L1.95 20.6L-38.4 0.6L-16.3 -10.35L23.4 9.45" />
<radialGradient
id="RadialGradID_1260" gradientUnits="userSpaceOnUse" gradientTransform="matrix(-0.0231781, 0, 0, 0.0211029, -5.7, -29.45)" spreadMethod ="pad" cx="0" cy="0" r="819.2" fx="0" fy="0" >
<stop  offset="0"  style="stop-color:#2F0202;stop-opacity:1" />
<stop  offset="0"  style="stop-color:#6B0303;stop-opacity:1" />
<stop  offset="0"  style="stop-color:#2F0202;stop-opacity:1" />
<stop  offset="0"  style="stop-color:#600202;stop-opacity:1" />
<stop  offset="1"  style="stop-color:#400000;stop-opacity:1" />
</radialGradient>
<path style="fill:url(#RadialGradID_1260) " d="M-37.5,-32.4L-37.55 -32.4L-37.5 -32.45L-37.5 -32.4" />
<radialGradient
id="RadialGradID_1261" gradientUnits="userSpaceOnUse" gradientTransform="matrix(-0.0231781, 0, 0, 0.0211029, -5.7, -29.45)" spreadMethod ="pad" cx="0" cy="0" r="819.2" fx="0" fy="0" >
<stop  offset="0"  style="stop-color:#0000FF;stop-opacity:1" />
<stop  offset="1"  style="stop-color:#000000;stop-opacity:1" />
</radialGradient>
<path style="fill:url(#RadialGradID_1261) " d="M-37.5,-32.45L-37.5 -32.4L-37.5 -32.45" />
<radialGradient
id="RadialGradID_1262" gradientUnits="userSpaceOnUse" gradientTransform="matrix(-0.0231781, 0, 0, 0.0211029, -5.7, -29.45)" spreadMethod ="pad" cx="0" cy="0" r="819.2" fx="0" fy="0" >
<stop  offset="0"  style="stop-color:#FFFFFF;stop-opacity:1" />
<stop  offset="1"  style="stop-color:#000000;stop-opacity:1" />
</radialGradient>
<path style="fill:url(#RadialGradID_1262) " d="M-37.5,-32.45L-11.6 -45.4L-3.1 -41.15L-2.75 -40.95L-1.7 -40.45L28.2 -25.5L2.3 -12.45L-37.5 -32.4L-37.5 -32.45" />
<radialGradient
id="RadialGradID_1263" gradientUnits="userSpaceOnUse" gradientTransform="matrix(0.0464478, 0, 0, 0.0464478, 31.5, -23)" spreadMethod ="pad" cx="0" cy="0" r="819.2" fx="0" fy="0" >
<stop  offset="0"  style="stop-color:#FFFFFF;stop-opacity:1" />
<stop  offset="1"  style="stop-color:#000000;stop-opacity:1" />
</radialGradient>
<path style="fill:url(#RadialGradID_1263) " d="M-1.7,-40.45L-2.2 -40.7L1.35 -42.55L41.3 -22L28.4 -15.5L28.4 -20.45L28.2 -25.5L-1.7 -40.45" />
<radialGradient
id="RadialGradID_1264" gradientUnits="userSpaceOnUse" gradientTransform="matrix(0.0112305, 0, 0, 0.0112305, 33.75, -16.75)" spreadMethod ="pad" cx="0" cy="0" r="819.2" fx="0" fy="0" >
<stop  offset="0"  style="stop-color:#FFFFFF;stop-opacity:1" />
<stop  offset="1"  style="stop-color:#000000;stop-opacity:1" />
</radialGradient>
<path style="fill:url(#RadialGradID_1264) " d="M41.3,-22L41.4 -17L28.4 -10.5L28.4 -15.5L41.3 -22" />
<radialGradient
id="RadialGradID_1265" gradientUnits="userSpaceOnUse" gradientTransform="matrix(0.0313721, 0, 0, 0.0313721, 24.25, -21)" spreadMethod ="pad" cx="0" cy="0" r="819.2" fx="0" fy="0" >
<stop  offset="0"  style="stop-color:#FFFFFF;stop-opacity:1" />
<stop  offset="1"  style="stop-color:#000000;stop-opacity:1" />
</radialGradient>
<path style="fill:url(#RadialGradID_1265) " d="M28.2,-25.5L28.4 -20.45L23.4 -17.95L2.4 -7.5L2.4 -8.1L2.35 -11.4L2.3 -12.45L28.2 -25.5" />
<radialGradient
id="RadialGradID_1266" gradientUnits="userSpaceOnUse" gradientTransform="matrix(0.0299072, 0, 0, 0.0299072, 27, -14.75)" spreadMethod ="pad" cx="0" cy="0" r="819.2" fx="0" fy="0" >
<stop  offset="0"  style="stop-color:#FFFFFF;stop-opacity:1" />
<stop  offset="1"  style="stop-color:#000000;stop-opacity:1" />
</radialGradient>
<path style="fill:url(#RadialGradID_1266) " d="M23.4,9.5L23.4 9.45L23.4 5.2L23.4 4.95L23.4 -8.1L23.4 -17.95L28.4 -20.45L28.4 -15.5L28.4 -10.5L28.4 -8.1L28.4 7L27.75 7.35L23.4 9.5" />
<radialGradient
id="RadialGradID_1267" gradientUnits="userSpaceOnUse" gradientTransform="matrix(0.0291138, 0, 0, 0.0291138, -17.5, -19.5)" spreadMethod ="pad" cx="0" cy="0" r="819.2" fx="0" fy="0" >
<stop  offset="0"  style="stop-color:#FFFFFF;stop-opacity:1" />
<stop  offset="1"  style="stop-color:#000000;stop-opacity:1" />
</radialGradient>
<path style="fill:url(#RadialGradID_1267) " d="M2.25,-7.4L-16.6 -16.85L-37.55 -27.4L-37.5 -32.4L2.3 -12.45L2.35 -11.4L2.4 -8.1L2.4 -7.5L2.25 -7.4" />
<path style="fill:#333333;fill-opacity:1" d="M-16.3,-10.35L-16.6 -10.5L-16.6 -16.85L2.25 -7.4L2.4 -7.5L23.4 -17.95L23.4 -8.1L23.4 4.95L23.4 5.2L23.4 9.45L-16.3 -10.35" />
<path style="fill:none;stroke-width:1;stroke-linecap:round;stroke-linejoin:round;stroke-miterlimit:3;stroke:#2F0202;stroke-opacity:1" d="M2.3,-12.45L2.35 -11.4L2.4 -8.1L2.4 -7.5L23.4 -17.95L28.4 -20.45L28.2 -25.5L2.3 -12.45L-37.5 -32.4L-37.55 -27.4L-16.6 -16.85L2.25 -7.4L2.4 -7.5M-16.3,-10.35L23.4 9.45L23.4 5.2L23.4 4.95L23.4 -8.1L23.4 -17.95M23.4,9.45L23.4 9.5L27.75 7.35L28.4 7L28.4 -8.1L28.4 -10.5L28.4 -15.5L28.4 -20.45M28.4,-10.5L41.4 -17L41.3 -22L28.4 -15.5M1.35,-42.55L-2.2 -40.7L-1.7 -40.45L28.2 -25.5M-16.3,-10.35L-16.6 -10.5L-16.6 -16.85M-2.75,-40.95L-3.1 -41.15L-11.6 -45.4L-37.5 -32.45M-37.5,-32.4L-37.55 -32.4L-37.5 -32.45M-2.75,-40.95L-2.2 -40.7" />
<path style="fill:none;stroke-width:1;stroke-linecap:round;stroke-linejoin:round;stroke-miterlimit:3;stroke:#2F0202;stroke-opacity:1" d="M41.3,-22L1.35 -42.55" />
</g>
</svg>
