<?xml version="1.0" encoding="utf-8"?>
<svg version="1.1" id="Layer_1"
xmlns="http://www.w3.org/2000/svg"
xmlns:xlink="http://www.w3.org/1999/xlink"
xmlns:author="http://www.sothink.com"
width="261px" height="159px"
xml:space="preserve">
<g id="569" transform="matrix(1, 0, 0, 1, 21.1, -192)">
<linearGradient
id="LinearGradID_2075" gradientUnits="userSpaceOnUse" gradientTransform="matrix(0.00509644, 0, 0, 0.00738525, 79.95, 245.2)" spreadMethod ="pad" x1="-819.2" y1="0" x2="819.2" y2="0" >
<stop  offset="0" style="stop-color:#DEDDD6;stop-opacity:1" />
<stop  offset="0.498039" style="stop-color:#F4F4F1;stop-opacity:1" />
<stop  offset="1" style="stop-color:#BDBBAC;stop-opacity:1" />
</linearGradient>
<path style="fill:url(#LinearGradID_2075) " d="M82.95,245.3L84.15 249.4L83.2 250.3Q81.85 251.25 79.95 251.25Q78.05 251.25 76.7 250.3L75.8 249.4L76.95 245.3L82.95 245.3" />
<path style="fill:none;stroke-width:1;stroke-linecap:round;stroke-linejoin:round;stroke-miterlimit:3;stroke:#CDCDC0;stroke-opacity:1" d="M76.95,245.3L75.8 249.4L76.7 250.3Q78.05 251.25 79.95 251.25Q81.85 251.25 83.2 250.3L84.15 249.4L82.95 245.3" />
<path style="fill:#663333;fill-opacity:1" d="M114.05,250.45L113.05 251.15L112.8 251.4Q112.35 251.95 112.45 252.35L112.9 252.75L113.6 252.8L114.6 252.1L114.8 251.85L115.2 250.9L114.75 250.5L114.05 250.45M111.9,249.9L111.75 249.85L111.65 250L112.15 250.15L110.7 251.9L111.1 252L112.95 249.8L112.75 249.75L112.35 249.95L111.9 249.9M112.9,252.3Q112.8 252 113.2 251.55L113.45 251.3Q113.8 250.8 114.2 250.75L114.55 250.75L114.75 250.95L114.45 251.65L114.2 251.95L113.45 252.5L113.1 252.5L112.9 252.3M115.1,248.8Q116.5 249.35 116.9 250.45Q117.25 251.6 116.4 252.65Q115.55 253.65 113.95 254L110.9 253.85Q109.45 253.3 109.1 252.15Q108.7 251.05 109.6 250Q110.45 248.95 112.05 248.6L115.1 248.8" />
<path style="fill:#DDBCBC;fill-opacity:1" d="M114.75,250.5L115.2 250.9L114.8 251.85L114.6 252.1L113.6 252.8L112.9 252.75L112.45 252.35Q112.35 251.95 112.8 251.4L113.05 251.15L114.05 250.45L114.75 250.5M112.35,249.95L112.75 249.75L112.95 249.8L111.1 252L110.7 251.9L112.15 250.15L111.65 250L111.75 249.85L111.9 249.9L112.35 249.95M113.1,252.5L113.45 252.5L114.2 251.95L114.45 251.65L114.75 250.95L114.55 250.75L114.2 250.75Q113.8 250.8 113.45 251.3L113.2 251.55Q112.8 252 112.9 252.3L113.1 252.5" />
<path style="fill:#999999;fill-opacity:1" d="M67.85,251.7Q67.25 251.3 66.75 251.4Q66.35 251.35 66.1 251.6Q65.85 251.8 65.9 252.05Q65.9 252.4 66.5 252.75L66.8 252.95L67.9 253.25L68.5 253L68.75 252.6L68.15 251.85L67.85 251.7M67.85,252.1L68.35 252.6L68.25 252.85L67.9 252.95L67.05 252.7L66.8 252.55L66.3 252L66.4 251.75Q66.5 251.65 66.7 251.65Q67.05 251.6 67.55 251.9L67.85 252.1M66.3,253.3L66.8 253.85L66.7 254.1L66.35 254.2L65.5 253.95L65.2 253.75L64.75 253.25Q64.7 253.1 64.8 253L65.15 252.9Q65.5 252.85 66 253.15L66.3 253.3M66.3,252.95Q65.7 252.55 65.2 252.65Q64.8 252.6 64.55 252.85Q64.3 253.05 64.35 253.3Q64.35 253.65 64.95 254L65.25 254.15L66.35 254.5L66.95 254.25L67.2 253.8L66.6 253.1L66.3 252.95M70.7,253.1Q70.8 254.55 69.4 255.7Q68 256.8 65.9 256.95Q63.85 257.1 62.4 256.25Q60.9 255.35 60.8 253.95Q60.75 252.5 62.15 251.4Q63.55 250.25 65.6 250.1Q67.7 249.9 69.2 250.8Q70.65 251.65 70.7 253.1M65.3,255.55L65.6 255.3L63.2 253.9L63.05 254.05L63.2 254.3L63.05 254.6L62.95 254.65L63.1 254.75L63.5 254.5L65.3 255.55" />
<path style="fill:#CCCCCC;fill-opacity:1" d="M68.15,251.85L68.75 252.6L68.5 253L67.9 253.25L66.8 252.95L66.5 252.75Q65.9 252.4 65.9 252.05Q65.85 251.8 66.1 251.6Q66.35 251.35 66.75 251.4Q67.25 251.3 67.85 251.7L68.15 251.85M67.55,251.9Q67.05 251.6 66.7 251.65Q66.5 251.65 66.4 251.75L66.3 252L66.8 252.55L67.05 252.7L67.9 252.95L68.25 252.85L68.35 252.6L67.85 252.1L67.55 251.9M66,253.15Q65.5 252.85 65.15 252.9L64.8 253Q64.7 253.1 64.75 253.25L65.2 253.75L65.5 253.95L66.35 254.2L66.7 254.1L66.8 253.85L66.3 253.3L66 253.15M66.6,253.1L67.2 253.8L66.95 254.25L66.35 254.5L65.25 254.15L64.95 254Q64.35 253.65 64.35 253.3Q64.3 253.05 64.55 252.85Q64.8 252.6 65.2 252.65Q65.7 252.55 66.3 252.95L66.6 253.1M63.5,254.5L63.1 254.75L62.95 254.65L63.05 254.6L63.2 254.3L63.05 254.05L63.2 253.9L65.6 255.3L65.3 255.55L63.5 254.5" />
<path style="fill:none;stroke-width:1;stroke-linecap:round;stroke-linejoin:round;stroke-miterlimit:3;stroke:#8C4646;stroke-opacity:1" d="M115.1,248.8Q116.5 249.35 116.9 250.45Q117.25 251.6 116.4 252.65Q115.55 253.65 113.95 254L110.9 253.85Q109.45 253.3 109.1 252.15Q108.7 251.05 109.6 250Q110.45 248.95 112.05 248.6L115.1 248.8z" />
<path style="fill:none;stroke-width:1;stroke-linecap:round;stroke-linejoin:round;stroke-miterlimit:3;stroke:#CCCCCC;stroke-opacity:1" d="M70.7,253.1Q70.8 254.55 69.4 255.7Q68 256.8 65.9 256.95Q63.85 257.1 62.4 256.25Q60.9 255.35 60.8 253.95Q60.75 252.5 62.15 251.4Q63.55 250.25 65.6 250.1Q67.7 249.9 69.2 250.8Q70.65 251.65 70.7 253.1z" />
<path style="fill:#00CCCC;fill-opacity:0.4" d="M150.85,255.7L153.7 257.1L153.45 257.2L239.5 300.25L138.45 350.75L36.5 299.8L64.95 285.55L-21.1 242.55L79.95 192L177.6 240.85L150.85 254.2L151.35 254.45L150.85 254.7L151.85 255.2L150.85 255.7" />
</g>
</svg>
