<?xml version="1.0" encoding="utf-8"?>
<svg version="1.1" id="Layer_1"
xmlns="http://www.w3.org/2000/svg"
xmlns:xlink="http://www.w3.org/1999/xlink"
xmlns:author="http://www.sothink.com"
width="47px" height="156px"
xml:space="preserve">
<g id="56" transform="matrix(1, 0, 0, 1, 16.45, 152.15)">
<path style="fill:#141414;fill-opacity:0.54902" d="M8.85,-1.6L-1.1 3.4L-4.2 3.35L-14.35 -1.85Q-15.95 -2.65 -14.4 -3.35L-4.5 -8.35L-1.4 -8.4L8.8 -3.2Q10.35 -2.45 8.85 -1.6" />
<path style="fill:#606275;fill-opacity:1" d="M3.25,-15.95L3.45 -15.9L3.65 -15.45L6 -4.95Q6.25 -3.7 5.45 -3.25L-3.7 1.35L-4.45 1.55L-4.65 1.5L-4.85 0.5L-4.85 -11.25Q-4.85 -12.05 -4.2 -12.35L2.85 -15.9L3.2 -15.95L3.25 -15.95" />
<path style="fill:#948D8D;fill-opacity:1" d="M-6.2,1.45L-6.35 1.4L-15.55 -3.25Q-16.4 -3.7 -16.1 -4.95L-13.5 -15.5L-13.4 -15.8L-13.3 -15.9L-13.15 -15.95L-13 -16L-6.3 -19.35Q-4.8 -20.15 -3.55 -19.35L3.2 -15.95L2.85 -15.9L-4.2 -12.35Q-4.85 -12.05 -4.85 -11.25L-4.85 0.5L-4.65 1.5L-4.45 1.55L-5.9 1.5L-6.2 1.45" />
<path style="fill:#815E29;fill-opacity:1" d="M-4.45,1.55L-3.7 1.35L-4 1.5L-4.45 1.55" />
<path style="fill:none;stroke-width:0.5;stroke-linecap:round;stroke-linejoin:round;stroke-miterlimit:3;stroke:#999999;stroke-opacity:1" d="M3.65,-15.45L3.45 -15.9L3.25 -15.95L3.2 -15.95L2.85 -15.9L-4.2 -12.35M5.45,-3.25Q6.25 -3.7 6 -4.95M-13,-16L-12.7 -15.9L-5.75 -12.4M-15.55,-3.25Q-16.4 -3.7 -16.1 -4.95" />
<path style="fill:none;stroke-width:1.75;stroke-linecap:round;stroke-linejoin:round;stroke-miterlimit:3;stroke:#8E92A4;stroke-opacity:1" d="M2.45,-11.05L2.7 -10.65M-2.75,-2.55L-2.95 -2.1M-1.7,-9.6L-1.7 -9.15" />
<path style="fill:none;stroke-width:1.75;stroke-linecap:round;stroke-linejoin:round;stroke-miterlimit:3;stroke:#4D4F5E;stroke-opacity:1" d="M1.75,-7.05Q1.35 -7.45 1 -7.05M3.3,-5.05L3.1 -4.65M-2.35,-0.9Q-2.5 -0.5 -3.05 -0.6" />
<path style="fill:none;stroke-width:0.5;stroke-linecap:round;stroke-linejoin:round;stroke-miterlimit:3;stroke:#6A6A6A;stroke-opacity:1" d="M6,-4.95L3.65 -15.45" />
<path style="fill:none;stroke-width:0.5;stroke-linecap:round;stroke-linejoin:round;stroke-miterlimit:3;stroke:#DDDDDD;stroke-opacity:1" d="M3.2,-15.95L-3.55 -19.35Q-4.8 -20.15 -6.3 -19.35L-13 -16" />
<path style="fill:none;stroke-width:0.5;stroke-linecap:round;stroke-linejoin:round;stroke-miterlimit:3;stroke:#CCCCCC;stroke-opacity:1" d="M-13.5,-15.5L-13.4 -15.8L-13.3 -15.9L-13.15 -15.95L-13 -16" />
<path style="fill:none;stroke-width:1.75;stroke-linecap:round;stroke-linejoin:round;stroke-miterlimit:3;stroke:#A7A5A5;stroke-opacity:1" d="M-10.85,-10.15L-11.55 -9.55M-9.65,-3.15L-9.95 -3.35" />
<path style="fill:none;stroke-width:1.75;stroke-linecap:round;stroke-linejoin:round;stroke-miterlimit:3;stroke:#7B7B7B;stroke-opacity:1" d="M-6.95,-3.2Q-6.95 -2.9 -7.4 -2.7Q-7.8 -2.45 -8.35 -2.45M-9.55,-8.55Q-9.55 -8 -9.85 -7.55L-10.6 -7.15" />
<path style="fill:none;stroke-width:0.5;stroke-linecap:round;stroke-linejoin:round;stroke-miterlimit:3;stroke:#E6E6E6;stroke-opacity:1" d="M-16.1,-4.95L-13.5 -15.5" />
<path style="fill:none;stroke-width:0.5;stroke-linecap:round;stroke-linejoin:round;stroke-miterlimit:3;stroke:#1A1A1A;stroke-opacity:1" d="M-4.45,1.55L-3.7 1.35M-4.45,1.55L-5.9 1.5" />
<path style="fill:none;stroke-width:0.5;stroke-linecap:round;stroke-linejoin:round;stroke-miterlimit:3;stroke:#1E1E1E;stroke-opacity:1" d="M-6.2,1.45L-6.35 1.4" />
<path style="fill:none;stroke-width:0.5;stroke-linecap:round;stroke-linejoin:round;stroke-miterlimit:3;stroke:#373737;stroke-opacity:1" d="M-6.35,1.4L-15.55 -3.25" />
<path style="fill:none;stroke-width:0.5;stroke-linecap:round;stroke-linejoin:round;stroke-miterlimit:3;stroke:#222222;stroke-opacity:1" d="M-3.7,1.35L5.45 -3.25" />
<linearGradient
id="LinearGradID_376" gradientUnits="userSpaceOnUse" gradientTransform="matrix(0, -0.0806427, -0.0451508, -0.013855, 71.6, -68.6)" spreadMethod ="pad" x1="-819.2" y1="0" x2="819.2" y2="0" >
<stop  offset="0" style="stop-color:#A75050;stop-opacity:1" />
<stop  offset="0.25098" style="stop-color:#FFFFFF;stop-opacity:1" />
<stop  offset="1" style="stop-color:#FFFFFF;stop-opacity:1" />
</linearGradient>
<path style="fill:url(#LinearGradID_376) " d="M27.5,-25.45Q9.65 -24.7 -3.8 -35.05L-3.8 -148.25L27.5 -138.65Q22.35 -78.9 27.5 -25.45" />
<path style="fill:none;stroke-width:1;stroke-linecap:round;stroke-linejoin:round;stroke-miterlimit:3;stroke:#604D39;stroke-opacity:1" d="M27.5,-138.65L-3.8 -148.25L-3.8 -35.05Q9.65 -24.7 27.5 -25.45Q22.35 -78.9 27.5 -138.65z" />
<path style="fill:#D6C079;fill-opacity:1" d="M10.05,-144.75L10.25 -144.8L10.15 -145.05L10 -145.75Q10 -146.15 10.15 -146.35L10.25 -146.5L10.5 -146.55L10.7 -146.4Q19.1 -143.9 26.8 -142.3L27.35 -142.15L28.95 -141.85L29.2 -141.9L29.4 -141.75L29.5 -141.65L29.55 -141.65L29.6 -141.7L29.85 -141.75L30.05 -141.6L30.1 -141.55L30.2 -141.35L30.3 -140.7L30.2 -140.05L30.1 -139.9L29.85 -139.85L29.8 -139.85L29.55 -139.9L29.65 -139.95L29.6 -140L29.5 -140.15L29.45 -140.05L29.3 -140.05L29.4 -139.95L29.2 -140L29.1 -140L27.35 -140.5L26.8 -140.65L10.5 -144.65L10.05 -144.75M-3.2,-148.15L-6.25 -148.9L-7.9 -149.3L-8 -149.35L-8.15 -149.6L-8.3 -150.3L-8.15 -150.9L-8.05 -151.05L-8.05 -151.1L-7.9 -151.1L-7.8 -151.1Q-7.7 -151.1 -7.55 -150.95L-6.25 -150.55Q2.1 -147.95 9.8 -146.65L9.65 -146.45Q9.5 -146.25 9.5 -145.85Q9.5 -145.5 9.65 -145.15L10 -144.8L-3.2 -148.15" />
<path style="fill:#AE8A37;fill-opacity:1" d="M10,-146.7L10.25 -146.5L10.15 -146.35Q10 -146.15 10 -145.75L10.15 -145.05L10.25 -144.8L10.05 -144.75L10 -144.8L9.65 -145.15Q9.5 -145.5 9.5 -145.85Q9.5 -146.25 9.65 -146.45L9.8 -146.65L10 -146.7" />
<path style="fill:none;stroke-width:0.5;stroke-linecap:round;stroke-linejoin:round;stroke-miterlimit:3;stroke:#7B6C4A;stroke-opacity:1" d="M29.85,-139.85L30.1 -139.9L30.2 -140.05L30.3 -140.7L30.2 -141.35L30.1 -141.55L30.05 -141.6L29.85 -141.75L29.6 -141.7L29.55 -141.65L29.5 -141.65L29.4 -141.75L29.2 -141.9L28.95 -141.85L27.35 -142.15L26.8 -142.3M26.8,-140.65L27.35 -140.5L29.1 -140M29.2,-140L29.3 -140.05L29.45 -140.05L29.5 -140.15L29.6 -140L29.65 -139.95L29.8 -139.85M29.55,-139.9L29.8 -139.85M29.2,-140L29.4 -139.95" />
<path style="fill:none;stroke-width:0.5;stroke-linecap:round;stroke-linejoin:round;stroke-miterlimit:3;stroke:#614D1F;stroke-opacity:1" d="M26.8,-142.3Q19.1 -143.9 10.7 -146.4L10.5 -146.55L10.25 -146.5L10.15 -146.35Q10 -146.15 10 -145.75L10.15 -145.05L10.25 -144.8L10.5 -144.65L26.8 -140.65M10.25,-146.5L10 -146.7L9.8 -146.65Q2.1 -147.95 -6.25 -150.55L-7.55 -150.95Q-7.7 -151.1 -7.8 -151.1L-7.9 -151.1L-8.05 -151.1L-8.05 -151.05L-8.15 -150.9L-8.3 -150.3L-8.15 -149.6L-8 -149.35L-7.9 -149.3L-6.25 -148.9L-3.2 -148.15L10 -144.8L10.05 -144.75L10.25 -144.8M10.05,-144.75L10.5 -144.65" />
<path style="fill:none;stroke-width:0.5;stroke-linecap:round;stroke-linejoin:round;stroke-miterlimit:3;stroke:#DAC28B;stroke-opacity:1" d="M10,-144.8L9.65 -145.15Q9.5 -145.5 9.5 -145.85Q9.5 -146.25 9.65 -146.45L9.8 -146.65" />
<linearGradient
id="LinearGradID_377" gradientUnits="userSpaceOnUse" gradientTransform="matrix(0, -0.00186157, -0.00202942, -0.000640869, 8.5, -144.45)" spreadMethod ="pad" x1="-819.2" y1="0" x2="819.2" y2="0" >
<stop  offset="0" style="stop-color:#D4D4D4;stop-opacity:1" />
<stop  offset="1" style="stop-color:#FFFFFF;stop-opacity:1" />
</linearGradient>
<path style="fill:url(#LinearGradID_377) " d="M10.15,-141.95L6.85 -143Q6.2 -145.5 6.85 -147.8L10.15 -146.75Q9.65 -144.45 10.15 -141.95" />
<path style="fill:none;stroke-width:0.5;stroke-linecap:round;stroke-linejoin:round;stroke-miterlimit:3;stroke:#707070;stroke-opacity:0.768627" d="M10.15,-146.75L6.85 -147.8Q6.2 -145.5 6.85 -143L10.15 -141.95Q9.65 -144.45 10.15 -146.75z" />
<linearGradient
id="LinearGradID_378" gradientUnits="userSpaceOnUse" gradientTransform="matrix(-0.000289917, -0.0027771, -0.00187683, -0.000473022, 22.25, -141.45)" spreadMethod ="pad" x1="-819.2" y1="0" x2="819.2" y2="0" >
<stop  offset="0" style="stop-color:#D4D4D4;stop-opacity:1" />
<stop  offset="1" style="stop-color:#FFFFFF;stop-opacity:1" />
</linearGradient>
<path style="fill:url(#LinearGradID_378) " d="M24.1,-138L21 -138.7L20.45 -143.95L23.55 -143.15Q24.55 -140.35 24.1 -138" />
<path style="fill:none;stroke-width:0.5;stroke-linecap:round;stroke-linejoin:round;stroke-miterlimit:3;stroke:#707070;stroke-opacity:0.768627" d="M23.55,-143.15L20.45 -143.95L21 -138.7L24.1 -138Q24.55 -140.35 23.55 -143.15z" />
<path style="fill:#B55353;fill-opacity:1" d="M6.45,-141.75L6.75 -141.7L6.75 -141.3L6.25 -137.15L6.65 -136.4L6.55 -136.3L6.2 -136.55L6 -133.85L6.05 -130.45Q6.15 -129.3 6.8 -128.2Q7.4 -127.3 7.4 -126.35Q7.4 -125.1 6.55 -124.3L5.3 -124.6L5.6 -127.7Q5.5 -129.9 3.15 -130.45Q1.7 -130.8 1.65 -128.4L2.35 -125.9Q2.4 -125.4 2.1 -125.85Q0.85 -126.35 0.85 -128.65Q0.5 -131.95 1.85 -131.6L5 -130.65L5.45 -130Q5.35 -132.15 5.85 -136.85Q5.05 -137.6 5 -137.85Q5.05 -138.4 5.25 -138.15L5.95 -137.6L6.45 -141.75M3.05,-134.15L1.25 -131.9L1.05 -132.2L1.05 -133.25Q1.75 -134.95 2.6 -134.75L3.05 -134.4L3.05 -134.15M5.9,-128.6L5.85 -128.65Q5.85 -125.5 6.35 -125L6.8 -126.4Q6.55 -128.5 5.9 -128.6M2.85,-122.55Q2.85 -123.05 2.95 -122.8L4.4 -122.85Q5 -122.7 5.1 -122.15Q4.65 -121.8 4.3 -121.75L4.3 -120.6Q2.85 -122 2.85 -122.55M3.05,-115.8L4.3 -119.65Q4.85 -119.2 4.8 -117.5L3.2 -113.55Q3.2 -112.6 4.4 -109.5L3.85 -109.55Q3.4 -109.7 2.95 -110.75Q2.6 -111.7 2.55 -112.45Q2.6 -114.35 3.05 -115.8M1.05,-116.5Q0.9 -116.35 -1.4 -114.95L-1.55 -116Q-1.5 -116.4 -0.9 -116.7L0.65 -116.85L1.05 -116.5M6.75,-112.05Q6.2 -112.95 6.2 -114.25Q6.2 -114.65 6.55 -114.75Q7.1 -114.1 7.05 -113.2Q7.1 -112.65 6.75 -112.05M5.25,-105.85L5.9 -101.95L6.75 -101.95L7.05 -101.75L7.15 -101.6L7 -101.2L6.1 -101L6.35 -100.05Q7.35 -96.7 9.65 -93.95Q7.6 -94.55 5.95 -99.75L5.65 -100.8L3.2 -99.65Q0.35 -98.2 -1.7 -98.65L-2.9 -99.45Q-2 -99.5 1.9 -100.95L5.35 -101.95Q4.65 -104.65 4.6 -106.35Q4.6 -107.2 4.8 -107.45L6.15 -106.05L6.15 -106.15Q6.15 -106.95 6.45 -107.4Q7.35 -106.9 8.1 -102.6Q6.55 -103.3 6.2 -105.05L5.3 -105.95L5.25 -105.85M0.75,-108.95L1.9 -107.85Q2.05 -108.65 2.5 -108.55L2.85 -108.35L2.85 -107.85L2.3 -102.95L2 -103.2L1.85 -105.85L1.85 -107.1L0.75 -107.9L0.65 -104.05Q0.1 -101.1 -2.3 -101.65Q-3.15 -101.85 -3.8 -103.5L-3.8 -103.9L-3.65 -103.9Q-3.75 -102.95 -2.25 -102.55Q-0.1 -102.1 0.25 -104.8Q0.2 -108.05 0.3 -108.95L0.75 -108.95M20.15,-100.2Q20.8 -99.3 22.05 -98.6Q23.2 -98 23.5 -97.3L23.25 -97.05L21.45 -97.6Q20.7 -97.85 18.9 -101L18.85 -100.85L23.35 -87.35L23.15 -87L22.95 -87.1Q22.7 -87.45 22.2 -88.9Q21.6 -90.2 20.65 -90.5Q19.65 -90.85 18.35 -89.95Q17.05 -89.1 15.25 -89.65Q14.7 -89.85 14.9 -90.1L15 -90.25Q16.6 -90.7 17.9 -91.45Q19 -91.85 21.25 -90.9L18.25 -101.7Q18.25 -102.25 18.4 -102.45Q19 -102.1 20.15 -100.2M19.45,-104.35L21.1 -105.85L21.45 -105.75L21.5 -105.15Q20.6 -103.7 19.8 -103.95L19.45 -104.35M10.4,-88.15L10.45 -89.55L10.2 -89.55Q8.15 -86.85 7.6 -85.15Q7.35 -84.4 6 -83Q4.25 -81.25 2.5 -80.8Q1.2 -80.45 0.4 -81.45Q-0.15 -82.2 -0.15 -82.75L0.05 -83.7L-1.05 -83.4L-1.05 -83.35Q0.3 -78.45 3.75 -78.15L3.8 -77.9Q5.4 -78.7 7.1 -80.4Q6.95 -80.65 6.95 -80.95L7.15 -81.2Q7.35 -80.75 8.8 -80.95L8.6 -81.1Q7.45 -81.5 7.45 -82.1L7.6 -82.3L9.7 -81.05Q9.95 -80.65 8.55 -80.3L7.5 -80.2Q6.2 -78.05 4 -77.45L3.2 -77.5Q1.5 -77.55 -0.05 -79.6Q-1.55 -81.5 -1.55 -83.2Q-1.55 -83.9 0 -84.25L0.85 -84.35L0.4 -82.95Q0.4 -80.8 3.1 -81.5Q3.8 -81.7 5.25 -83.25Q6.75 -84.8 7.1 -85.7L8.45 -88.2Q9.6 -89.9 10.15 -90Q10.9 -90.2 10.9 -88.85L10.8 -88.5Q11.2 -88.1 11.2 -86.1Q11.2 -83.5 8.55 -82.2L8.4 -82.5Q10.65 -84.35 10.65 -87.15L10.4 -88L10.4 -88.05L10.4 -88.15M9.65,-86.85L9.3 -86.3L9.1 -86.8L9.4 -87.1L9.65 -86.85M9.65,-82.45L10.5 -82.75L10.2 -83L10.35 -83.35Q11.4 -83.55 12.05 -83.35Q11.85 -82.45 10.6 -82.1L9.45 -82.15L9.65 -82.45M19.3,-83.95Q20 -83.15 21.45 -82.8L19.55 -82.7Q22.9 -75.2 22.9 -73.55L22.65 -73.15Q21.55 -77.35 17.05 -79.9L16.95 -77.75Q17 -76.35 17.7 -73.2Q18.4 -70.05 18.95 -69.25L19.1 -69.85L20.75 -69.6Q22.25 -69.15 22.2 -67.1Q22.55 -65.25 21.2 -65.65Q17.15 -67 16.25 -78.1L16.35 -80.75L17.85 -80.3Q19.7 -79.75 20.8 -77.7Q18.15 -83.75 18.1 -84.65Q18.1 -85.05 18.6 -85.1L19.3 -83.95M19.1,-65.8Q19.7 -65.35 19.7 -64.65L19.45 -63.45Q21.05 -62.9 21.2 -62.4L19.25 -62.45L18.9 -60.25L19.3 -60.15Q20.2 -59.9 20.15 -58.9Q20.2 -57.95 18.65 -58.35Q18.15 -53.85 18.15 -47.9L18.4 -46.4L19.05 -46.6L20 -46.9L20.75 -45.8Q21 -43.4 19.4 -43.9L19.05 -44.15L17.85 -45.3L15.55 -44.6L15.4 -44.9Q17.8 -46.15 17.75 -49.5Q17.2 -53.5 17.4 -55.1L17.85 -58.65L17.55 -59.1L18.05 -59.8L18.2 -60.85L18.15 -60.9Q17.65 -61.8 17.65 -62.9Q17.65 -63.9 18.7 -63.7L19.1 -65.8M19.3,-68.45L20.2 -67.25Q20.7 -66.65 21.25 -66.45Q21.85 -66.3 21.5 -66.6L21.6 -67.35Q21.95 -68.4 20.75 -68.75L19.65 -69.1L19.3 -68.45M20.25,-45.8Q19.7 -46.65 19.15 -46.3L19.05 -46.2Q18.75 -45.9 18.75 -45.4Q18.75 -44.8 18.9 -44.9L19.05 -44.85L19.8 -44.4Q20.35 -44.25 20.25 -44.5L20.25 -45.8" />
<path style="fill:#B55353;fill-opacity:1" d="M-0.8,-100.35L-0.65 -100.4L-0.65 -100L-0.8 -100.35" />
<path style="fill:#151515;fill-opacity:1" d="M-5.1,-14.6Q-6.2 -14.6 -6.95 -15Q-7.7 -15.35 -7.7 -15.85Q-7.7 -16.4 -6.95 -16.7L-5.15 -17L-3.35 -16.6Q-2.6 -16.25 -2.55 -15.75Q-2.55 -15.2 -3.3 -14.9L-5.1 -14.6" />
<path style="fill:#91786F;fill-opacity:1" d="M-4.2,-150.75Q-6.3 -149.1 -8.45 -150.75Q-6.05 -152.5 -4.2 -150.75" />
<path style="fill:#D6C079;fill-opacity:1" d="M-7.3,-16.35L-7.3 -16.7L-7.25 -17.4Q-6.7 -26.8 -7.55 -43.15L-7.55 -44.4Q-6.65 -58.45 -7.8 -76.15L-7.85 -77.35Q-6.45 -95.95 -8.15 -116L-8.15 -117.1Q-6.8 -132.75 -8.45 -150.75Q-6.3 -149.1 -4.2 -150.75Q-5.5 -132.85 -3.9 -117.1L-3.9 -116Q-5 -95.7 -3.6 -77.35L-3.55 -76.15Q-4.75 -56.65 -3.3 -44.4L-3.3 -43.15Q-4.3 -28.15 -3.15 -17.4L-3.05 -16.7L-3.05 -16.35Q-3.15 -15.8 -3.65 -15.5Q-4.25 -15.2 -5.15 -15.2L-6.65 -15.5Q-7.15 -15.8 -7.3 -16.35" />
<path style="fill:none;stroke-width:1;stroke-linecap:round;stroke-linejoin:round;stroke-miterlimit:3;stroke:#614D1F;stroke-opacity:1" d="M-8.45,-150.75Q-6.3 -149.1 -4.2 -150.75Q-6.05 -152.5 -8.45 -150.75Q-6.8 -132.75 -8.15 -117.1L-8.15 -116Q-5.75 -114.65 -3.9 -116L-3.9 -117.1M-3.9,-117.1Q-5.5 -132.85 -4.2 -150.75M-7.3,-16.35L-7.3 -16.7L-7.25 -17.4Q-6.7 -26.8 -7.55 -43.15L-7.55 -44.4Q-6.65 -58.45 -7.8 -76.15L-7.85 -77.35Q-6.45 -95.95 -8.15 -116M-3.6,-77.35Q-5 -95.7 -3.9 -116M-3.6,-77.35L-3.55 -76.15Q-4.75 -56.65 -3.3 -44.4L-3.3 -43.15Q-4.3 -28.15 -3.15 -17.4L-3.05 -16.7L-3.05 -16.35M-3.55,-76.15Q-5.45 -74.3 -7.8 -76.15M-3.3,-43.15Q-5.1 -41.35 -7.55 -43.15" />
<path style="fill:none;stroke-width:1;stroke-linecap:round;stroke-linejoin:round;stroke-miterlimit:3;stroke:#D9C18C;stroke-opacity:1" d="M-8.15,-117.1Q-5.75 -115.75 -3.9 -117.1" />
<path style="fill:none;stroke-width:1;stroke-linecap:round;stroke-linejoin:round;stroke-miterlimit:3;stroke:#D1B572;stroke-opacity:1" d="M-7.85,-77.35Q-5.5 -75.55 -3.6 -77.35" />
<path style="fill:none;stroke-width:1;stroke-linecap:round;stroke-linejoin:round;stroke-miterlimit:3;stroke:#DCC592;stroke-opacity:1" d="M-3.3,-44.4Q-5.1 -42.6 -7.55 -44.4" />
<path style="fill:none;stroke-width:1;stroke-linecap:round;stroke-linejoin:round;stroke-miterlimit:3;stroke:#130F06;stroke-opacity:1" d="M-3.05,-16.35Q-3.15 -15.8 -3.65 -15.5Q-4.25 -15.2 -5.15 -15.2L-6.65 -15.5Q-7.15 -15.8 -7.3 -16.35" />
<linearGradient
id="LinearGradID_379" gradientUnits="userSpaceOnUse" gradientTransform="matrix(0, -0.00131226, -0.00483704, -0.000946045, -4.45, -146.9)" spreadMethod ="pad" x1="-819.2" y1="0" x2="819.2" y2="0" >
<stop  offset="0" style="stop-color:#D4D4D4;stop-opacity:1" />
<stop  offset="1" style="stop-color:#FFFFFF;stop-opacity:1" />
</linearGradient>
<path style="fill:url(#LinearGradID_379) " d="M-0.45,-149.4L-0.45 -144.75Q-4.65 -144.35 -7.9 -146.2L-7.9 -148.25Q-5.95 -147.4 -4 -147Q-3.55 -148.35 -3.75 -150L-0.45 -149.4" />
<path style="fill:none;stroke-width:0.5;stroke-linecap:round;stroke-linejoin:round;stroke-miterlimit:3;stroke:#707070;stroke-opacity:0.768627" d="M-0.45,-149.4L-0.45 -144.75Q-4.65 -144.35 -7.9 -146.2L-7.9 -148.25Q-5.95 -147.4 -4 -147Q-3.55 -148.35 -3.75 -150L-0.45 -149.4z" />
<linearGradient
id="LinearGradID_380" gradientUnits="userSpaceOnUse" gradientTransform="matrix(-0.00193787, 0, 0, 0.00202942, -4.15, -126.9)" spreadMethod ="pad" x1="-819.2" y1="0" x2="819.2" y2="0" >
<stop  offset="0" style="stop-color:#D4D4D4;stop-opacity:1" />
<stop  offset="1" style="stop-color:#FFFFFF;stop-opacity:1" />
</linearGradient>
<path style="fill:url(#LinearGradID_380) " d="M-1.9,-127.55Q-1.7 -127 -1.75 -125Q-4.8 -123.8 -8 -125.05L-8 -128.3Q-4.75 -127.1 -1.9 -127.55" />
<path style="fill:none;stroke-width:0.5;stroke-linecap:round;stroke-linejoin:round;stroke-miterlimit:3;stroke:#707070;stroke-opacity:0.768627" d="M-8,-128.3L-8 -125.05Q-4.8 -123.8 -1.75 -125Q-1.7 -127 -1.9 -127.55Q-4.75 -127.1 -8 -128.3z" />
<linearGradient
id="LinearGradID_381" gradientUnits="userSpaceOnUse" gradientTransform="matrix(-0.00271606, 0, 0, 0.00202942, -4.35, -94.95)" spreadMethod ="pad" x1="-819.2" y1="0" x2="819.2" y2="0" >
<stop  offset="0" style="stop-color:#D4D4D4;stop-opacity:1" />
<stop  offset="1" style="stop-color:#FFFFFF;stop-opacity:1" />
</linearGradient>
<path style="fill:url(#LinearGradID_381) " d="M-1.45,-96.55L-1.45 -93.25Q-4.6 -91.5 -7.75 -93.25L-7.75 -96.55Q-4.6 -95.7 -1.45 -96.55" />
<path style="fill:none;stroke-width:0.5;stroke-linecap:round;stroke-linejoin:round;stroke-miterlimit:3;stroke:#707070;stroke-opacity:0.768627" d="M-7.75,-96.55L-7.75 -93.25Q-4.6 -91.5 -1.45 -93.25L-1.45 -96.55Q-4.6 -95.7 -7.75 -96.55z" />
<linearGradient
id="LinearGradID_382" gradientUnits="userSpaceOnUse" gradientTransform="matrix(-0.00193787, 0, 0, 0.00202942, -4, -70.65)" spreadMethod ="pad" x1="-819.2" y1="0" x2="819.2" y2="0" >
<stop  offset="0" style="stop-color:#D4D4D4;stop-opacity:1" />
<stop  offset="1" style="stop-color:#FFFFFF;stop-opacity:1" />
</linearGradient>
<path style="fill:url(#LinearGradID_382) " d="M-7.95,-68.9L-7.85 -72.1L-1.75 -72.3L-1.75 -68.95L-2.05 -68.8Q-3.95 -67.9 -5.8 -68.15Q-6.85 -68.35 -7.95 -68.9" />
<path style="fill:none;stroke-width:0.5;stroke-linecap:round;stroke-linejoin:round;stroke-miterlimit:3;stroke:#707070;stroke-opacity:0.768627" d="M-5.8,-68.15Q-3.95 -67.9 -2.05 -68.8M-1.75,-68.95L-1.75 -72.3L-7.85 -72.1L-7.95 -68.9M-5.8,-68.15Q-7.05 -68.3 -8.35 -68.95" />
<linearGradient
id="LinearGradID_383" gradientUnits="userSpaceOnUse" gradientTransform="matrix(-0.00146484, 0, 0, 0.00202942, -4.3, -39.05)" spreadMethod ="pad" x1="-819.2" y1="0" x2="819.2" y2="0" >
<stop  offset="0" style="stop-color:#D4D4D4;stop-opacity:1" />
<stop  offset="1" style="stop-color:#FFFFFF;stop-opacity:1" />
</linearGradient>
<path style="fill:url(#LinearGradID_383) " d="M-8,-40.65Q-5.25 -39.7 -2.4 -40.05L-2.4 -37.3Q-5.25 -36.35 -8 -37.35L-8 -40.65" />
<path style="fill:none;stroke-width:0.5;stroke-linecap:round;stroke-linejoin:round;stroke-miterlimit:3;stroke:#707070;stroke-opacity:0.768627" d="M-8,-37.35Q-5.25 -36.35 -2.4 -37.3L-2.4 -40.05Q-5.25 -39.7 -8 -40.65L-8 -37.35z" />
</g>
</svg>
