<?xml version="1.0" encoding="utf-8"?>
<svg version="1.1" id="Layer_1"
xmlns="http://www.w3.org/2000/svg"
xmlns:xlink="http://www.w3.org/1999/xlink"
xmlns:author="http://www.sothink.com"
width="66px" height="26px"
xml:space="preserve">
<g id="1048" transform="matrix(1, 0, 0, 1, 33, 12.95)">
<path style="fill:none;stroke-width:0.05;stroke-linecap:round;stroke-linejoin:round;stroke-miterlimit:3;stroke:#FCE7FE;stroke-opacity:1" d="M27.4,-11.85L-25.95 -11.85Q-28.3 -11.85 -29.95 -10.9Q-31.6 -9.95 -31.55 -8.55L-31.55 8.7" />
<path style="fill:none;stroke-width:1;stroke-linecap:round;stroke-linejoin:round;stroke-miterlimit:3;stroke:#9F9F9F;stroke-opacity:1" d="M30.05,-11.6Q28.95 -12.45 27.35 -12.45L-28.65 -12.45Q-30.25 -12.45 -31.4 -11.6Q-32.5 -10.7 -32.5 -9.45L-32.5 8.55Q-32.5 9.8 -31.4 10.65Q-30.25 11.55 -28.65 11.55L27.35 11.55Q28.95 11.55 30.05 10.65Q31.2 9.8 31.2 8.55L31.2 -9.45Q31.2 -10.7 30.05 -11.6z" />
<path style="fill:none;stroke-width:0.05;stroke-linecap:round;stroke-linejoin:round;stroke-miterlimit:3;stroke:#FCE7FE;stroke-opacity:1" d="M-26.5,12.45L26.85 12.45Q29.2 12.45 30.9 11.55Q32.5 10.55 32.5 9.15L32.5 -8.05" />
</g>
</svg>
