<?xml version="1.0" encoding="utf-8"?>
<svg version="1.1" id="Layer_1"
xmlns="http://www.w3.org/2000/svg"
xmlns:xlink="http://www.w3.org/1999/xlink"
xmlns:author="http://www.sothink.com"
width="34px" height="98px"
xml:space="preserve">
<g id="584" transform="matrix(1, 0, 0, 1, 0, 0)">
<path style="fill:#E4E9F1;fill-opacity:1" d="M33.85,19.2L33.8 34.9L33.75 60.3L33.65 62.25L33.7 64.35L33.7 69.9L33.7 70.6Q33.65 73.8 31.5 76.6L21.3 90.4Q19.8 92.4 19.7 95.6L19.7 95.8Q19.7 96.5 18.85 97L16.8 97.5Q15.6 97.5 14.75 97Q13.9 96.5 13.9 95.8L14 95.4Q13.9 92.25 12.45 90.25L2.25 76.45Q-0.15 73.35 0 69.75L0.05 34.9L0.05 17.95L0 16.9Q0 9.85 4.95 4.9Q9.95 -0.05 17 0Q24.05 -0.05 29.05 4.9Q34 9.85 34 16.9L33.85 19.2M27.6,6.4Q23.2 2 17 2Q10.75 2 6.4 6.4Q2 10.75 2 17L2.05 17.95L2.05 25L2.05 33L1.9 33L1.9 65.1L31.9 65.1L31.9 33L31.85 33L31.85 25.2L31.9 19.05L32 17Q32 10.75 27.6 6.4M25.45,70.6L24.9 71.3L21.1 82.25Q20.95 82.65 21.15 82.95Q21.35 83.25 21.75 83.25L23.5 83.25L24.3 82.95L24.85 82.25L28.65 71.3Q28.8 70.9 28.6 70.6Q28.4 70.3 28 70.3L26.25 70.3Q25.85 70.3 25.45 70.6M5.1,70.6Q4.9 70.9 5.05 71.3L8.85 82.25L9.4 82.95Q9.8 83.25 10.2 83.25L11.95 83.25Q12.35 83.25 12.55 82.95L12.6 82.25L8.8 71.3L8.25 70.6Q7.85 70.3 7.45 70.3L5.7 70.3Q5.3 70.3 5.1 70.6" />
<path style="fill:#BFBFBF;fill-opacity:1" d="M26.25,70.3L28 70.3Q28.4 70.3 28.6 70.6Q28.8 70.9 28.65 71.3L24.85 82.25L24.3 82.95L23.5 83.25L21.75 83.25Q21.35 83.25 21.15 82.95Q20.95 82.65 21.1 82.25L24.9 71.3L25.45 70.6Q25.85 70.3 26.25 70.3M5.7,70.3L7.45 70.3Q7.85 70.3 8.25 70.6L8.8 71.3L12.6 82.25L12.55 82.95Q12.35 83.25 11.95 83.25L10.2 83.25Q9.8 83.25 9.4 82.95L8.85 82.25L5.05 71.3Q4.9 70.9 5.1 70.6Q5.3 70.3 5.7 70.3" />
<path style="fill:#CCCCCC;fill-opacity:1" d="M25.05,73.6L25.1 74.5L23.4 81.7L23.05 82.15L22.5 82.4L11.65 82.25L11.1 82.05L10.7 81.55L8.4 74.45Q8.2 73.95 8.4 73.6L8.95 73.15L24.45 73.15Q24.85 73.15 25.05 73.6" />
</g>
</svg>
