<?xml version="1.0" encoding="utf-8"?>
<svg version="1.1" id="Layer_1"
xmlns="http://www.w3.org/2000/svg"
xmlns:xlink="http://www.w3.org/1999/xlink"
xmlns:author="http://www.sothink.com"
width="72px" height="69px"
xml:space="preserve">
<g id="275" transform="matrix(1, 0, 0, 1, 36, 34.35)">
<path style="fill:#E2E0D6;fill-opacity:1" d="M12.45,-17.1L11.7 -16.75L10.9 -16.35L1.25 -11.55L1.3 -1.25L12.45 -6.85L12.85 -7.05L13.15 -7.2L14.05 -7.65L14.05 -17.9L12.85 -17.3L12.45 -17.1M1.25,0.45L1.3 5.95L1.3 9.9L1.3 10.75L12.45 5.15L12.85 4.95L13.15 4.8L14.05 4.35L14.05 -5.9L12.85 -5.3L12.45 -5.1L11.7 -4.75L10.9 -4.35L9.45 -3.6L5.1 -1.45L4.9 -1.35L1.25 0.45M26.45,-13.85L26.85 -14.05L27.15 -14.2L28.05 -14.65L28.05 -21L28.05 -24.9L26.85 -24.3L26.45 -24.1L25.7 -23.75L24.9 -23.35L15.25 -18.55L15.3 -8.25L25 -13.1L26.45 -13.85M26.45,-1.85L26.85 -2.05L27.15 -2.2L28.05 -2.65L28.05 -7.75L28.05 -12.9L26.85 -12.3L26.45 -12.1L25.7 -11.75L24.9 -11.35L15.25 -6.55L15.3 3.75L23.75 -0.45L26.45 -1.85M0,16.25L-0.05 16.25L-35.75 34.15L-35.75 1.65L0 -16.25L0 -16.2L35.7 -34.1L35.7 -1.6L0 16.3L0 16.25M0,13L-0.05 13L0 13.05L0 13M-22.7,0.6L-27.05 2.75L-27 7.15L-27 11.65L-27 13.05L-15.85 7.45L-15.45 7.25L-15.15 7.1L-14.25 6.65L-14.25 -3.6L-15.45 -3L-15.85 -2.8L-16.6 -2.45L-17.4 -2.05L-18.7 -1.4L-22.7 0.6M-0.25,-10.6L-1.45 -10L-1.85 -9.8L-2.6 -9.45L-3.4 -9.05L-13.05 -4.25L-13 6.05L-1.85 0.45L-1.45 0.25L-1.15 0.1L-0.25 -0.35L-0.25 -10.6M-3.4,2.95L-13.05 7.75L-13 18.05L-1.85 12.45L-1.45 12.25L-1.15 12.1L-0.25 11.65L-0.25 1.4L-1.45 2L-1.85 2.2L-2.6 2.55L-3.4 2.95M-17.4,9.95L-27.05 14.75L-27 25.05L-15.85 19.45L-15.45 19.25L-15.15 19.1L-14.25 18.65L-14.25 8.4L-15.45 9L-15.85 9.2L-16.6 9.55L-17.4 9.95" />
<path style="fill:#FFFFFF;fill-opacity:1" d="M12.85,-17.3L14.05 -17.9L14.05 -7.65L13.15 -7.2L12.85 -7.05L12.45 -6.85L1.3 -1.25L1.25 -11.55L10.9 -16.35L11.7 -16.75L12.45 -17.1L12.85 -17.3M9.45,-3.6L10.9 -4.35L11.7 -4.75L12.45 -5.1L12.85 -5.3L14.05 -5.9L14.05 4.35L13.15 4.8L12.85 4.95L12.45 5.15L1.3 10.75L1.3 9.9L9.45 -3.6M1.3,5.95L1.25 0.45L4.9 -1.35L1.3 5.95M25,-13.1L15.3 -8.25L15.25 -18.55L24.9 -23.35L25.7 -23.75L26.45 -24.1L26.85 -24.3L28.05 -24.9L28.05 -21L25 -13.1M23.75,-0.45L15.3 3.75L15.25 -6.55L24.9 -11.35L25.7 -11.75L26.45 -12.1L26.85 -12.3L28.05 -12.9L28.05 -7.75L23.75 -0.45M-18.7,-1.4L-17.4 -2.05L-16.6 -2.45L-15.85 -2.8L-15.45 -3L-14.25 -3.6L-14.25 6.65L-15.15 7.1L-15.45 7.25L-15.85 7.45L-27 13.05L-27 11.65L-18.7 -1.4M-27,7.15L-27.05 2.75L-22.7 0.6L-27 7.15M-0.25,-0.35L-1.15 0.1L-1.45 0.25L-1.85 0.45L-13 6.05L-13.05 -4.25L-3.4 -9.05L-2.6 -9.45L-1.85 -9.8L-1.45 -10L-0.25 -10.6L-0.25 -0.35M-2.6,2.55L-1.85 2.2L-1.45 2L-0.25 1.4L-0.25 11.65L-1.15 12.1L-1.45 12.25L-1.85 12.45L-13 18.05L-13.05 7.75L-3.4 2.95L-2.6 2.55M-16.6,9.55L-15.85 9.2L-15.45 9L-14.25 8.4L-14.25 18.65L-15.15 19.1L-15.45 19.25L-15.85 19.45L-27 25.05L-27.05 14.75L-17.4 9.95L-16.6 9.55" />
<path style="fill:#B0FFFF;fill-opacity:1" d="M1.3,9.9L1.3 5.95L4.9 -1.35L5.1 -1.45L9.45 -3.6L1.3 9.9M28.05,-21L28.05 -14.65L27.15 -14.2L26.85 -14.05L26.45 -13.85L25 -13.1L28.05 -21M28.05,-7.75L28.05 -2.65L27.15 -2.2L26.85 -2.05L26.45 -1.85L23.75 -0.45L28.05 -7.75M-22.7,0.6L-18.7 -1.4L-27 11.65L-27 7.15L-22.7 0.6" />
<path style="fill:#D1CCC5;fill-opacity:1" d="M0,16.3L-0.05 16.25L0 16.25L0 16.3M0,13.05L-0.05 13L0 13L0 13.05" />
<path style="fill:none;stroke-width:0.5;stroke-linecap:round;stroke-linejoin:round;stroke-miterlimit:3;stroke:#999999;stroke-opacity:1" d="M12.85,-17.3L14.05 -17.9L14.05 -7.65L13.15 -7.2L12.85 -7.05L12.45 -6.85L1.3 -1.25L1.25 -11.55L10.9 -16.35L11.7 -16.75L12.45 -17.1L12.85 -17.3M4.9,-1.35L5.1 -1.45L9.45 -3.6L10.9 -4.35L11.7 -4.75L12.45 -5.1L12.85 -5.3L14.05 -5.9L14.05 4.35L13.15 4.8L12.85 4.95L12.45 5.15L1.3 10.75L1.3 9.9L1.3 5.95L1.25 0.45L4.9 -1.35M25,-13.1L15.3 -8.25L15.25 -18.55L24.9 -23.35L25.7 -23.75L26.45 -24.1L26.85 -24.3L28.05 -24.9L28.05 -21L28.05 -14.65L27.15 -14.2L26.85 -14.05L26.45 -13.85L25 -13.1M23.75,-0.45L15.3 3.75L15.25 -6.55L24.9 -11.35L25.7 -11.75L26.45 -12.1L26.85 -12.3L28.05 -12.9L28.05 -7.75L28.05 -2.65L27.15 -2.2L26.85 -2.05L26.45 -1.85L23.75 -0.45M-0.05,16.25L-35.75 34.15L-35.75 1.65L0 -16.25L0 -16.2L35.7 -34.1L35.7 -1.6L0 16.3L-0.05 16.25L0 16.25L0 16.3M-0.05,13L-31.95 29L-31.95 3L0 -13L0 -12.95L31.95 -28.95L31.95 -2.95L0 13.05L-0.05 13L0 13L0 13.05M-18.7,-1.4L-17.4 -2.05L-16.6 -2.45L-15.85 -2.8L-15.45 -3L-14.25 -3.6L-14.25 6.65L-15.15 7.1L-15.45 7.25L-15.85 7.45L-27 13.05L-27 11.65L-27 7.15L-27.05 2.75L-22.7 0.6L-18.7 -1.4M-0.25,-0.35L-1.15 0.1L-1.45 0.25L-1.85 0.45L-13 6.05L-13.05 -4.25L-3.4 -9.05L-2.6 -9.45L-1.85 -9.8L-1.45 -10L-0.25 -10.6L-0.25 -0.35M-2.6,2.55L-1.85 2.2L-1.45 2L-0.25 1.4L-0.25 11.65L-1.15 12.1L-1.45 12.25L-1.85 12.45L-13 18.05L-13.05 7.75L-3.4 2.95L-2.6 2.55M-16.6,9.55L-15.85 9.2L-15.45 9L-14.25 8.4L-14.25 18.65L-15.15 19.1L-15.45 19.25L-15.85 19.45L-27 25.05L-27.05 14.75L-17.4 9.95L-16.6 9.55" />
</g>
</svg>
