<?xml version="1.0" encoding="utf-8"?>
<svg version="1.1" id="Layer_1"
xmlns="http://www.w3.org/2000/svg"
xmlns:xlink="http://www.w3.org/1999/xlink"
xmlns:author="http://www.sothink.com"
width="21px" height="29px"
xml:space="preserve">
<g id="96" transform="matrix(1, 0, 0, 1, 11.7, 68.25)">
<path style="fill:#E39D02;fill-opacity:0.772549" d="M6.85,-57.55L6.95 -57.15L6.8 -56.5L6.55 -55.9L6.8 -54.7Q7.65 -56.15 8.25 -56.05L7.15 -54.1L7 -53.85L7.15 -53.1L7 -51.25L6.95 -50.45L7 -50.35L7.15 -49.8L6.8 -49.1L6.75 -47.75L8.3 -47.95L8.6 -48.2Q8.8 -48.15 8.85 -46.85Q8.85 -46.1 8.3 -44.85Q7.6 -43.6 6.5 -42.5Q3.75 -39.65 -0.3 -39.65L-0.75 -39.65L-2.9 -39.4Q-7.55 -39.4 -9.25 -42.75Q-10.75 -43.25 -11.35 -46.6L-11.7 -50.35Q-11.7 -52.15 -10.6 -49.8L-9.65 -47.75L-9.15 -50.35L-8.1 -52.45L-6.9 -55.15L-6.35 -56.6L-5.9 -57.9Q-5.45 -58.45 -4.8 -57.75L-3.8 -62.3L-3.8 -62.5L-3.8 -63.45L-3.6 -63.45L-3.55 -63Q-2.25 -67.65 -1.2 -68.1Q-1.15 -68.5 -1.05 -67.95L-1.55 -65.85L-2.4 -62.65L-2.1 -60.95L-2.05 -62.85L-1.95 -63.25L-1.9 -63.8Q-1.75 -65.6 -1.3 -66.15L-1.85 -63.2L-1.85 -62.85L-1.9 -60.9L-1.9 -60.05Q-1.55 -57.95 -1 -56.4L0.35 -53.3L0.65 -52.95L1.2 -52.45L1.6 -52.25L1.2 -52.1L1.95 -51.15L2.35 -51.6L4.35 -54L4.95 -55.15L5.45 -56.3Q6.05 -57.7 6.8 -57.75L6.85 -57.55M3.75,-48.85L3.6 -48.75L4.4 -48.55Q4.1 -48.65 3.75 -48.85M6.25,-51.25L6.45 -52.65L6.15 -51.6L6.25 -51.25M6.25,-51.15L5.95 -50.85L5.75 -50L5.5 -49.2L6.05 -49.55L6.2 -50.65L6.25 -51.15M7.35,-45.9L7.75 -46.85L6.55 -45.6L5.2 -43.05L6.55 -44.45L7.35 -45.9M-3.05,-59.7L-2.7 -57.85L-1.9 -57.15Q-2.5 -59.15 -2.75 -61.3L-3.05 -59.9L-3.05 -59.7M-3.5,-58.05L-3.1 -58.05L-3.35 -58.9L-3.5 -58.05M-1.95,-56.95L-2.25 -57.05L-1.75 -56.25L-1.85 -56.95L-1.95 -56.95M-9,-49.1L-9.3 -46.95L-8.75 -45.25L-8.65 -45.2L-8.65 -45.35L-9 -46.85L-8.95 -47.85L-8.65 -48.2L-8.7 -48.3L-9 -49.1" />
</g>
</svg>
