<?xml version="1.0" encoding="utf-8"?>
<svg version="1.1" id="Layer_1"
xmlns="http://www.w3.org/2000/svg"
xmlns:xlink="http://www.w3.org/1999/xlink"
xmlns:author="http://www.sothink.com"
width="78px" height="12px"
xml:space="preserve">
<g id="718" transform="matrix(1, 0, 0, 1, 34.5, 14.65)">
<path style="fill:#378426;fill-opacity:0.462745" d="M42.3,-8.4Q29.95 -3.6 30.55 -11.95Q37.35 -17.75 42.3 -8.4" />
<path style="fill:none;stroke-width:1;stroke-linecap:round;stroke-linejoin:round;stroke-miterlimit:3;stroke:#265218;stroke-opacity:0.4" d="M42.3,-8.4Q29.95 -3.6 30.55 -11.95Q37.35 -17.75 42.3 -8.4z" />
<path style="fill:#378426;fill-opacity:0.462745" d="M-23.5,-10.4Q-20.8 -2.45 -34 -3.9Q-31.65 -14.2 -23.5 -10.4" />
<path style="fill:none;stroke-width:1;stroke-linecap:round;stroke-linejoin:round;stroke-miterlimit:3;stroke:#265218;stroke-opacity:0.4" d="M-34,-3.9Q-20.8 -2.45 -23.5 -10.4Q-31.65 -14.2 -34 -3.9z" />
<path style="fill:#378426;fill-opacity:0.45098" d="M9.5,-11.6Q6.35 -6.2 0.25 -11.45Q4.85 -16.8 9.5 -11.6" />
<path style="fill:none;stroke-width:1;stroke-linecap:round;stroke-linejoin:round;stroke-miterlimit:3;stroke:#265218;stroke-opacity:0.4" d="M0.25,-11.45Q6.35 -6.2 9.5 -11.6Q4.85 -16.8 0.25 -11.45z" />
</g>
</svg>
