<?xml version="1.0" encoding="utf-8"?>
<svg version="1.1" id="Layer_1"
xmlns="http://www.w3.org/2000/svg"
xmlns:xlink="http://www.w3.org/1999/xlink"
xmlns:author="http://www.sothink.com"
width="45px" height="67px"
xml:space="preserve">
<g id="641" transform="matrix(1, 0, 0, 1, 38.2, 45.9)">
<path style="fill:#4F0404;fill-opacity:1" d="M1.6,-12.85Q5.05 -18.7 5.05 -25.8Q5.05 -29.45 4.15 -32.75L4.2 -32.75Q6.05 -27.45 5.65 -21.3Q5.2 -13.95 1.5 -8.1L1.6 -11.8L1.6 -12.85M-37.5,0.55L-37.25 -32.3L-19.55 -23.45L-19.5 -18.4L-13.5 -15.4L-13.5 -11.5L-13.5 -2.2L-13.5 1.55L-13.5 6L-19.5 9L-37.5 0.6L-37.5 0.55" />
<path style="fill:#000000;fill-opacity:0.2" d="M-37.5,0.6L-19.5 9L-13.5 6L-13.5 1.55L-13.5 -2.2L-13.5 -11.5L-12.35 -12.1L-3.2 -7.45L-1.05 -6.4Q1.2 -4.45 2.2 -2.05L2.6 -1L3.05 0.1L3.2 0.65Q4.1 3.95 4.1 7.6Q4.05 14.7 0.6 20.5L-38.2 0.9L-37.5 0.55L-37.5 0.6" />
<path style="fill:#400000;fill-opacity:1" d="M-37.25,-32.3L1.6 -12.85L1.6 -11.8L1.5 -8.1L1.5 -7.9L-13.5 -15.4L-19.5 -18.4L-19.55 -23.45L-37.25 -32.3" />
<radialGradient
id="RadialGradID_2774" gradientUnits="userSpaceOnUse" gradientTransform="matrix(0.0212708, 0, 0, 0.021286, 4.5, -31.25)" spreadMethod ="pad" cx="0" cy="0" r="819.2" fx="0" fy="0" >
<stop  offset="0"  style="stop-color:#2F0202;stop-opacity:1" />
<stop  offset="0"  style="stop-color:#6B0303;stop-opacity:1" />
<stop  offset="0"  style="stop-color:#2F0202;stop-opacity:1" />
<stop  offset="0"  style="stop-color:#600202;stop-opacity:1" />
<stop  offset="1"  style="stop-color:#400000;stop-opacity:1" />
</radialGradient>
<path style="fill:url(#RadialGradID_2774) " d="M-37.25,-32.3L-11.45 -45.4L-2.3 -40.85L-0.15 -39.75Q2.1 -37.85 3.15 -35.45L3.55 -34.4L4 -33.3L4.05 -33.25L4.05 -33.1L4.15 -32.75Q5.05 -29.45 5.05 -25.8Q5.05 -18.7 1.6 -12.85L-37.25 -32.3" />
<path style="fill:none;stroke-width:1;stroke-linecap:round;stroke-linejoin:round;stroke-miterlimit:3;stroke:#2F0202;stroke-opacity:1" d="M1.5,-8.1L1.5 -7.9L-13.5 -15.4L-13.5 -11.5M-37.25,-32.3L-11.45 -45.4L-2.3 -40.85L-0.15 -39.75M1.5,-8.1L1.6 -11.8L1.6 -12.85M-19.5,-18.4L-13.5 -15.4M-19.5,-18.4L-19.5 -8.5L-19.5 0.8L-19.5 4.55L-19.5 9L-13.5 6L-13.5 1.55L-13.5 -2.2L-13.5 -11.5" />
<path style="fill:none;stroke-width:1;stroke-linecap:round;stroke-linejoin:round;stroke-miterlimit:3;stroke:#400000;stroke-opacity:1" d="M-0.15,-39.75Q2.1 -37.85 3.15 -35.45L3.55 -34.4L4 -33.3L4.05 -33.25L4.05 -33.1L4.2 -32.75Q6.05 -27.45 5.65 -21.3Q5.2 -13.95 1.5 -8.1M-19.5,9L-37.5 0.6L-37.5 0.55L-37.25 -32.3L-19.55 -23.45M1.6,-12.85Q5.05 -18.7 5.05 -25.8Q5.05 -29.45 4.15 -32.75L4.05 -33.1L4 -33.3M1.6,-12.85L-19.55 -23.45" />
<path style="fill:none;stroke-width:1;stroke-linecap:round;stroke-linejoin:round;stroke-miterlimit:3;stroke:#000000;stroke-opacity:1" d="M-19.55,-23.45L-19.5 -18.4" />
</g>
</svg>
