<?xml version="1.0" encoding="utf-8"?>
<svg version="1.1" id="Layer_1"
xmlns="http://www.w3.org/2000/svg"
xmlns:xlink="http://www.w3.org/1999/xlink"
xmlns:author="http://www.sothink.com"
width="162px" height="73px"
xml:space="preserve">
<g id="26" transform="matrix(1, 0, 0, 1, 81, 36.1)">
<path style="fill:#999999;fill-opacity:1" d="M8.1,-25.7L7.85 -25.6Q7.3 -25.5 7.6 -25.1L7.75 -25.05Q9.2 -25 8.1 -25.7M14.8,-25.7Q15.6 -25.2 16.05 -25.85L16.05 -25.95Q15.8 -26.3 15.3 -26.25L15.1 -26.2Q14.6 -26.05 14.8 -25.7M12.85,-27.6Q17.2 -27.65 20.3 -26.45Q23.4 -25.25 24.4 -22.95Q25.4 -20.7 22.3 -19.6Q19.15 -18.45 14.15 -18.05Q9.05 -17.7 5.85 -19.25Q2.65 -20.85 2.5 -23.05Q2.35 -25.3 5.4 -26.45Q8.5 -27.6 12.85 -27.6M15.95,-23.9Q15.5 -23.75 15.65 -23.35L15.85 -23.3Q17.3 -23.3 16.2 -23.95L15.95 -23.9M16.95,-21.2L16.75 -21L18.3 -20.95L18.25 -21.05Q17.95 -21.45 17.3 -21.35L16.95 -21.2M10.45,-20.75L10.6 -20.7Q12.05 -20.7 10.95 -21.35L10.7 -21.3Q10.2 -21.15 10.45 -20.75M9.75,-23.7L9.9 -23.65Q11.35 -23.6 10.25 -24.25L10 -24.2Q9.55 -24.05 9.75 -23.7M7.7,-23L7.7 -23.1Q7.65 -23.75 6.95 -24L6.8 -23.95Q6.15 -23.6 6.55 -23.05L7.7 -23M22.45,-22.9L22.45 -23Q22.2 -23.45 21.65 -23.35L21.45 -23.35Q20.95 -23.2 21.2 -22.8L22.45 -22.9" />
<path style="fill:#333333;fill-opacity:1" d="M7.75,-25.05L7.6 -25.1Q7.3 -25.5 7.85 -25.6L8.1 -25.7Q9.2 -25 7.75 -25.05M15.1,-26.2L15.3 -26.25Q15.8 -26.3 16.05 -25.95L16.05 -25.85Q15.6 -25.2 14.8 -25.7Q14.6 -26.05 15.1 -26.2M16.2,-23.95Q17.3 -23.3 15.85 -23.3L15.65 -23.35Q15.5 -23.75 15.95 -23.9L16.2 -23.95M17.3,-21.35Q17.95 -21.45 18.25 -21.05L18.3 -20.95L16.75 -21L16.95 -21.2L17.3 -21.35M10.7,-21.3L10.95 -21.35Q12.05 -20.7 10.6 -20.7L10.45 -20.75Q10.2 -21.15 10.7 -21.3M10,-24.2L10.25 -24.25Q11.35 -23.6 9.9 -23.65L9.75 -23.7Q9.55 -24.05 10 -24.2M6.55,-23.05Q6.15 -23.6 6.8 -23.95L6.95 -24Q7.65 -23.75 7.7 -23.1L7.7 -23L6.55 -23.05M21.2,-22.8Q20.95 -23.2 21.45 -23.35L21.65 -23.35Q22.2 -23.45 22.45 -23L22.45 -22.9L21.2 -22.8" />
<path style="fill:none;stroke-width:1;stroke-linecap:round;stroke-linejoin:round;stroke-miterlimit:3;stroke:#333333;stroke-opacity:1" d="M12.85,-27.6Q17.2 -27.65 20.3 -26.45Q23.4 -25.25 24.4 -22.95Q25.4 -20.7 22.3 -19.6Q19.15 -18.45 14.15 -18.05Q9.05 -17.7 5.85 -19.25Q2.65 -20.85 2.5 -23.05Q2.35 -25.3 5.4 -26.45Q8.5 -27.6 12.85 -27.6z" />
<linearGradient
id="LinearGradID_243" gradientUnits="userSpaceOnUse" gradientTransform="matrix(0.013504, 1.52588e-005, 0, 0.00587463, 69.45, 30.8)" spreadMethod ="pad" x1="-819.2" y1="0" x2="819.2" y2="0" >
<stop  offset="0.0117647" style="stop-color:#999999;stop-opacity:1" />
<stop  offset="0.282353" style="stop-color:#B2B2B2;stop-opacity:1" />
<stop  offset="1" style="stop-color:#FFFFFF;stop-opacity:1" />
</linearGradient>
<path style="fill:url(#LinearGradID_243) " d="M77.3,30.35Q76.8 30.45 77.05 30.85L78.35 30.75L78.3 30.65Q78.05 30.25 77.55 30.3L77.3 30.35M80.25,30.65Q81.3 32.95 78.15 34.1Q75 35.2 69.95 35.6Q64.9 35.9 61.75 34.35Q58.5 32.8 58.35 30.6Q58.2 28.35 61.3 27.15Q64.4 26 68.75 26Q73.05 26 76.15 27.2Q79.25 28.35 80.25 30.65M71.75,30.35Q73.2 30.35 72.05 29.7L71.85 29.8Q71.35 29.9 71.55 30.3L71.75 30.35M71.15,27.4L70.95 27.45Q70.45 27.6 70.7 28Q71.45 28.45 71.9 27.85L71.9 27.75Q71.7 27.35 71.15 27.4M72.8,32.5L72.6 32.7L74.15 32.75L74.1 32.65Q73.8 32.2 73.15 32.35L72.8 32.5M65.9,29.45Q65.4 29.55 65.65 29.9L65.8 30Q67.25 30 66.15 29.35L65.9 29.45M62.6,29.7Q62 30 62.4 30.6Q63 31.1 63.55 30.6L63.55 30.5Q63.5 29.9 62.85 29.65L62.6 29.7M63.9,27.95L63.7 28Q63.2 28.15 63.45 28.5L63.6 28.55Q65.05 28.6 63.9 27.95M66.6,32.35Q66.1 32.45 66.3 32.85L66.45 32.9Q67.9 32.9 66.8 32.3L66.6 32.35" />
<path style="fill:#333333;fill-opacity:1" d="M77.55,30.3Q78.05 30.25 78.3 30.65L78.35 30.75L77.05 30.85Q76.8 30.45 77.3 30.35L77.55 30.3M71.55,30.3Q71.35 29.9 71.85 29.8L72.05 29.7Q73.2 30.35 71.75 30.35L71.55 30.3M71.9,27.75L71.9 27.85Q71.45 28.45 70.7 28Q70.45 27.6 70.95 27.45L71.15 27.4Q71.7 27.35 71.9 27.75M73.15,32.35Q73.8 32.2 74.1 32.65L74.15 32.75L72.6 32.7L72.8 32.5L73.15 32.35M66.15,29.35Q67.25 30 65.8 30L65.65 29.9Q65.4 29.55 65.9 29.45L66.15 29.35M62.85,29.65Q63.5 29.9 63.55 30.5L63.55 30.6Q63 31.1 62.4 30.6Q62 30 62.6 29.7L62.85 29.65M63.6,28.55L63.45 28.5Q63.2 28.15 63.7 28L63.9 27.95Q65.05 28.6 63.6 28.55M66.8,32.3Q67.9 32.9 66.45 32.9L66.3 32.85Q66.1 32.45 66.6 32.35L66.8 32.3" />
<path style="fill:none;stroke-width:1;stroke-linecap:round;stroke-linejoin:round;stroke-miterlimit:3;stroke:#333333;stroke-opacity:1" d="M80.25,30.65Q81.3 32.95 78.15 34.1Q75 35.2 69.95 35.6Q64.9 35.9 61.75 34.35Q58.5 32.8 58.35 30.6Q58.2 28.35 61.3 27.15Q64.4 26 68.75 26Q73.05 26 76.15 27.2Q79.25 28.35 80.25 30.65z" />
<linearGradient
id="LinearGradID_244" gradientUnits="userSpaceOnUse" gradientTransform="matrix(0.013504, 1.52588e-005, 0, 0.00587463, -69.45, -30.8)" spreadMethod ="pad" x1="-819.2" y1="0" x2="819.2" y2="0" >
<stop  offset="0.0117647" style="stop-color:#999999;stop-opacity:1" />
<stop  offset="0.345098" style="stop-color:#B2B2B2;stop-opacity:1" />
<stop  offset="1" style="stop-color:#FFFFFF;stop-opacity:1" />
</linearGradient>
<path style="fill:url(#LinearGradID_244) " d="M-60.6,-31Q-60.8 -31.4 -61.35 -31.35L-61.55 -31.3Q-62.05 -31.15 -61.85 -30.8L-60.55 -30.9L-60.6 -31M-60.7,-27.55Q-63.9 -26.45 -68.9 -26.05Q-73.95 -25.65 -77.15 -27.2Q-80.35 -28.85 -80.5 -31.05Q-80.7 -33.3 -77.6 -34.5Q-74.5 -35.6 -70.15 -35.6Q-65.8 -35.6 -62.7 -34.45Q-59.6 -33.3 -58.6 -31Q-57.6 -28.7 -60.7 -27.55M-75.25,-33Q-73.85 -33 -74.95 -33.65L-75.15 -33.6Q-75.7 -33.45 -75.4 -33.1L-75.25 -33M-75.3,-31.1Q-75.35 -31.7 -76.05 -31.95L-76.25 -31.9Q-76.85 -31.55 -76.45 -31Q-75.9 -30.5 -75.35 -31L-75.3 -31.1M-72.95,-32.15Q-73.45 -32.05 -73.25 -31.65L-73.1 -31.6Q-71.65 -31.55 -72.75 -32.25L-72.95 -32.15M-72.1,-29.3L-72.3 -29.25Q-72.8 -29.15 -72.55 -28.75L-72.4 -28.65Q-70.95 -28.65 -72.1 -29.3M-67.95,-34.15Q-68.45 -34.05 -68.2 -33.65Q-67.4 -33.2 -66.95 -33.8L-66.95 -33.9Q-67.2 -34.25 -67.7 -34.25L-67.95 -34.15M-67.35,-31.35L-67.15 -31.25Q-65.7 -31.25 -66.8 -31.95L-67.05 -31.85Q-67.55 -31.75 -67.35 -31.35M-66.25,-28.95L-64.75 -28.9L-64.75 -29Q-65.05 -29.45 -65.7 -29.3L-66.05 -29.15L-66.25 -28.95" />
<path style="fill:#333333;fill-opacity:1" d="M-60.55,-30.9L-61.85 -30.8Q-62.05 -31.15 -61.55 -31.3L-61.35 -31.35Q-60.8 -31.4 -60.6 -31L-60.55 -30.9M-75.4,-33.1Q-75.7 -33.45 -75.15 -33.6L-74.95 -33.65Q-73.85 -33 -75.25 -33L-75.4 -33.1M-75.35,-31Q-75.9 -30.5 -76.45 -31Q-76.85 -31.55 -76.25 -31.9L-76.05 -31.95Q-75.35 -31.7 -75.3 -31.1L-75.35 -31M-72.75,-32.25Q-71.65 -31.55 -73.1 -31.6L-73.25 -31.65Q-73.45 -32.05 -72.95 -32.15L-72.75 -32.25M-72.4,-28.65L-72.55 -28.75Q-72.8 -29.15 -72.3 -29.25L-72.1 -29.3Q-70.95 -28.65 -72.4 -28.65M-67.7,-34.25Q-67.2 -34.25 -66.95 -33.9L-66.95 -33.8Q-67.4 -33.2 -68.2 -33.65Q-68.45 -34.05 -67.95 -34.15L-67.7 -34.25M-67.05,-31.85L-66.8 -31.95Q-65.7 -31.25 -67.15 -31.25L-67.35 -31.35Q-67.55 -31.75 -67.05 -31.85M-66.05,-29.15L-65.7 -29.3Q-65.05 -29.45 -64.75 -29L-64.75 -28.9L-66.25 -28.95L-66.05 -29.15" />
<path style="fill:none;stroke-width:1;stroke-linecap:round;stroke-linejoin:round;stroke-miterlimit:3;stroke:#333333;stroke-opacity:1" d="M-60.7,-27.55Q-63.9 -26.45 -68.9 -26.05Q-73.95 -25.65 -77.15 -27.2Q-80.35 -28.85 -80.5 -31.05Q-80.7 -33.3 -77.6 -34.5Q-74.5 -35.6 -70.15 -35.6Q-65.8 -35.6 -62.7 -34.45Q-59.6 -33.3 -58.6 -31Q-57.6 -28.7 -60.7 -27.55z" />
</g>
</svg>
