<?xml version="1.0" encoding="utf-8"?>
<svg version="1.1" id="Layer_1"
xmlns="http://www.w3.org/2000/svg"
xmlns:xlink="http://www.w3.org/1999/xlink"
xmlns:author="http://www.sothink.com"
width="10px" height="11px"
xml:space="preserve">
<g id="249" transform="matrix(1, 0, 0, 1, 4.55, 5.4)">
<path style="fill:#FFCCFF;fill-opacity:1" d="M-4.3,3.15Q-1.75 1.35 2.5 1.15L2.5 -5.15L4.3 -5.15L4.3 1.65Q3.55 3.85 1.75 5.15Q0.75 4.15 1.35 3.15Q0 4.5 -1.95 4.6Q-1.8 3.6 0.35 2.6Q-2.8 3.65 -4.15 3.1L-4.3 3.15" />
<path style="fill:none;stroke-width:0.5;stroke-linecap:round;stroke-linejoin:round;stroke-miterlimit:3;stroke:#999999;stroke-opacity:1" d="M-4.3,3.15Q-1.75 1.35 2.5 1.15L2.5 -5.15L4.3 -5.15L4.3 1.65Q3.55 3.85 1.75 5.15Q0.75 4.15 1.35 3.15Q0 4.5 -1.95 4.6Q-1.8 3.6 0.35 2.6Q-2.8 3.65 -4.15 3.1" />
</g>
</svg>
