<?xml version="1.0" encoding="utf-8"?>
<svg version="1.1" id="Layer_1"
xmlns="http://www.w3.org/2000/svg"
xmlns:xlink="http://www.w3.org/1999/xlink"
xmlns:author="http://www.sothink.com"
width="21px" height="35px"
xml:space="preserve">
<g id="97" transform="matrix(1, 0, 0, 1, 11.5, 72.9)">
<path style="fill:#E39D02;fill-opacity:0.772549" d="M1.4,-70.85L1.1 -71Q1.2 -71.75 2.35 -72.35L3.5 -72.9L3.2 -72.25L2.85 -71.55L2.8 -71.55L2.55 -70.65L2.6 -70.65L3.4 -71.3L3.45 -71.2L3.45 -70.85L3.25 -70.25L3.45 -69.45Q3.4 -68.45 1.85 -66.6Q0.3 -64.65 -0.85 -64.55L-0.15 -65.15L-0.25 -65.15L-0.45 -65.3L-0.4 -65.45Q-0.6 -65.3 -0.85 -65.25L-0.9 -65.4L0.7 -67.4L0.95 -67.85Q0.8 -67.95 0.8 -68.1Q0.8 -68.8 1.8 -70.5L2.15 -71.1Q1.9 -70.85 1.4 -70.85M1.95,-58.85Q3.7 -59.45 3.7 -58L3.4 -57.3L2.35 -57.05L1.85 -55.8L2.25 -56.1L2.3 -56.15L2.3 -55.8L1.35 -53.95L0.55 -52.8L0.55 -52.75L0.65 -52.4L0.25 -51.35L-0.2 -50.4L0.25 -50.35L0.95 -50.15L3.7 -49.9L5.7 -50.05L5.8 -50L5.8 -49.7L5.9 -49.65L5.8 -49.45L5.05 -47.05L4.75 -46.2L5.05 -46.2L5.3 -45.75L5.2 -44.6L4.9 -43.35L4.9 -43.15Q5.35 -43.2 6.8 -44.2Q8.05 -45.2 8.45 -45.2Q8.85 -45.25 8.9 -44.3L8.9 -43.35Q8.9 -42.85 8.5 -42.05Q8 -41.1 7.15 -40.35Q4.6 -38.25 0 -38.25L-1.7 -38.4L-1.7 -38.3L-1.95 -37.9L-2.55 -37.9Q-4.05 -37.9 -6.75 -39.7Q-9.5 -41.5 -9.5 -42.45L-9.45 -43L-9.95 -44.05Q-11.1 -46.45 -11.5 -49L-11.4 -50.4L-11.5 -50.6Q-11.5 -52.65 -11.05 -54.3Q-10.6 -55.75 -9.75 -56.6L-9.75 -56.8L-9.6 -56.8L-9.55 -56.7L-8.7 -57.4L-8.65 -57.15L-8.6 -56.7L-8.8 -56Q-8.4 -55.5 -8.25 -54.65L-7.95 -53L-7.4 -51.35L-6.95 -50.35L-5.8 -52.3Q-4.15 -54.55 -1.85 -56.45L-0.5 -57.5Q0.05 -58.85 0.65 -59.35L0.75 -58.9L0.95 -58.85L1.1 -58.5L1.95 -58.85M7.95,-43.95L7.95 -43.8L8 -43.95L7.95 -43.95M4.35,-48.6L4.35 -48.5L4.4 -48.6L4.35 -48.6M0.3,-56.25L-0.05 -55.2L1.1 -56.6L0.35 -56.35L0.3 -56.25M-8.2,-50.6L-8.35 -50.6L-8.35 -50.4L-8.55 -50.25L-8.2 -49.9L-7.95 -49.9L-7.85 -49.8L-8.15 -50.4L-8.2 -50.6M-3.85,-51.1L-3.9 -51.3L-4.05 -51.7L-3.65 -52.75L-3.9 -52.3L-5 -50.25Q-4.5 -50.5 -3.9 -51.05L-3.85 -51.1M-3.35,-51.6L-2.05 -53.8L-2.55 -53L-3.35 -51.6M-5.5,-48.5L-5.6 -48.5L-5.5 -48.4L-5.5 -48.5" />
</g>
</svg>
