<?xml version="1.0" encoding="utf-8"?>
<svg version="1.1" id="Layer_1"
xmlns="http://www.w3.org/2000/svg"
xmlns:xlink="http://www.w3.org/1999/xlink"
xmlns:author="http://www.sothink.com"
width="28px" height="26px"
xml:space="preserve">
<g id="126" transform="matrix(1, 0, 0, 1, 6.6, 72.8)">
<path style="fill:#E24747;fill-opacity:1" d="M18.05,-55.1L17.85 -56.9L16.9 -58.85Q16.3 -59.75 14.5 -60.6L10.85 -61.85L4.15 -62.75L0.45 -62.4Q-1.95 -62 -2.7 -61.5L-1.7 -66.1Q-0.7 -69.5 0.35 -70.4Q2.35 -72.05 8.5 -72.3Q12.1 -72.5 15.05 -70.85Q17.95 -69.2 19.2 -66.85L20.05 -64.75Q19.8 -60.3 18.05 -55.1" />
<path style="fill:#999999;fill-opacity:1" d="M-2.7,-61.5Q-1.95 -62 0.45 -62.4L4.15 -62.75L10.85 -61.85L14.5 -60.6Q16.3 -59.75 16.9 -58.85L17.85 -56.9L18.05 -55.1L18.05 -54.95L17.95 -53.4L17.25 -52.3L16.7 -51.5Q13.85 -49.2 10.1 -49.35Q6.6 -49.5 2.6 -51.7Q1.05 -52.6 -0.3 -53.8L-1.3 -54.75L-2.8 -57.85Q-3.1 -59.1 -2.7 -61.5" />
<path style="fill:#787878;fill-opacity:1" d="M14.45,-49.4L12 -48.5L9.1 -47.85Q5.5 -47.35 2.75 -47.8L0.2 -48.4L-2.5 -49.95Q-4.55 -51.6 -5.25 -53.25L-5.85 -56.1L-4.5 -58.95L-2.7 -61.5Q-3.1 -59.1 -2.8 -57.85L-1.3 -54.75L-0.3 -53.8Q1.05 -52.6 2.6 -51.7Q6.6 -49.5 10.1 -49.35Q13.85 -49.2 16.7 -51.5L14.45 -49.4" />
<path style="fill:#C40202;fill-opacity:1" d="M-5.85,-56.1L-6.1 -59.3Q-6.15 -61.75 -5.9 -62.4L-4.25 -66.2Q-3.15 -68.15 0.35 -70.4Q-0.7 -69.5 -1.7 -66.1L-2.7 -61.5L-4.5 -58.95L-5.85 -56.1M16.7,-51.5L17.25 -52.3L17.95 -53.4L18.05 -54.95L18.05 -55.1Q19.8 -60.3 20.05 -64.75Q20.55 -62.9 20.7 -60.3Q20.9 -56.1 18.95 -52.8Q18.05 -51.25 17.1 -50.55Q16.3 -50 14.45 -49.4L16.7 -51.5" />
<path style="fill:none;stroke-width:1;stroke-linecap:round;stroke-linejoin:round;stroke-miterlimit:3;stroke:#6C2F2F;stroke-opacity:1" d="M20.05,-64.75L19.2 -66.85Q17.95 -69.2 15.05 -70.85Q12.1 -72.5 8.5 -72.3Q2.35 -72.05 0.35 -70.4M16.9,-58.85L17.85 -56.9L18.05 -55.1M20.05,-64.75Q20.55 -62.9 20.7 -60.3Q20.9 -56.1 18.95 -52.8Q18.05 -51.25 17.1 -50.55Q16.3 -50 14.45 -49.4L16.7 -51.5L17.25 -52.3L17.95 -53.4L18.05 -54.95L18.05 -55.1M-5.85,-56.1L-6.1 -59.3Q-6.15 -61.75 -5.9 -62.4L-4.25 -66.2Q-3.15 -68.15 0.35 -70.4" />
<path style="fill:none;stroke-width:1;stroke-linecap:round;stroke-linejoin:round;stroke-miterlimit:3;stroke:#666666;stroke-opacity:1" d="M-2.7,-61.5Q-1.95 -62 0.45 -62.4L4.15 -62.75L10.85 -61.85L14.5 -60.6Q16.3 -59.75 16.9 -58.85M-2.5,-49.95Q-4.55 -51.6 -5.25 -53.25L-5.85 -56.1M-2.7,-61.5L-4.5 -58.95L-5.85 -56.1" />
<path style="fill:none;stroke-width:1;stroke-linecap:round;stroke-linejoin:round;stroke-miterlimit:3;stroke:#515151;stroke-opacity:1" d="M14.45,-49.4L12 -48.5L9.1 -47.85Q5.5 -47.35 2.75 -47.8L0.2 -48.4L-2.5 -49.95" />
<path style="fill:none;stroke-width:1;stroke-linecap:round;stroke-linejoin:round;stroke-miterlimit:3;stroke:#515151;stroke-opacity:1" d="M2.55,-56.15L1.5 -55.55Q1.15 -55.25 1.05 -54.7Q0.85 -53.8 0.95 -53.3Q1.05 -52.4 1.95 -52L3.2 -51.7Q4.15 -51.65 4.55 -52Q5.55 -52.9 5.7 -54.6Q6.5 -52.7 7.35 -52.1L9 -51.85Q9.7 -51.95 10.35 -52.5Q10.95 -53.1 10.9 -53.65Q10.8 -55 8.7 -56.3" />
</g>
</svg>
