<?xml version="1.0" encoding="utf-8"?>
<svg version="1.1" id="Layer_1"
xmlns="http://www.w3.org/2000/svg"
xmlns:xlink="http://www.w3.org/1999/xlink"
xmlns:author="http://www.sothink.com"
width="39px" height="52px"
xml:space="preserve">
<g id="803" transform="matrix(1, 0, 0, 1, 18.6, 64.6)">
<path style="fill:#FFFFFF;fill-opacity:1" d="M-13.45,-28.15L-13.2 -28.9L-13.1 -28.9L-12.4 -38.55L-13.25 -38.6L-13.65 -38.65L-13.65 -38.8L-15.7 -41.55L-15.5 -41.55Q-17.9 -44.35 -18 -47.9L-18 -48.65L-17.45 -48.65L-17.45 -52.15L-17.25 -52.65Q-16 -55.7 -12.65 -58.45Q-7.15 -63.5 0.5 -64Q8.1 -63.5 13.55 -58.45Q19 -53.95 19 -48.65Q19 -44.65 16.4 -41.55L16.5 -41.55L16.45 -41.55L13.85 -38.45L13.85 -37.65L13.65 -38.6L12.85 -38.55L13.5 -28.9L13.65 -28.9L13.9 -28.15L14.1 -27.65L14.3 -27.25L14.15 -26.8L13.85 -26.05L13.65 -25.7L12.75 -25L12.7 -25L12.65 -23.5L12.7 -23.5L12.65 -23L12.6 -23L12.55 -22.55L12.6 -22.55L12.35 -19.9L10.55 -19.9L9.8 -18.35L15.2 -18.35L16.35 -17.95Q16.9 -17.4 16.9 -16.3Q16.9 -15.25 16.35 -14.7Q15.9 -14.25 15.2 -14.25L8.6 -14.25L8.6 -12.8L4.1 -13.05L4.75 -13.55Q5.65 -14.45 5.65 -16.3Q5.65 -18.2 4.75 -19.1Q3.95 -19.9 2.7 -19.9L-3.9 -19.9L-3.9 -18.35L2.65 -18.35Q3.35 -18.35 3.8 -17.95Q4.35 -17.4 4.35 -16.3Q4.35 -15.25 3.8 -14.7Q3.35 -14.25 2.65 -14.25L-3.9 -14.25L-3.9 -12.85L-10.45 -13.2L-12.4 -13.6Q-13.85 -15.3 -14.15 -17.25L-14.25 -18.45L-14.2 -19.4L-13.65 -21.25L-13.55 -21.25L-13.55 -21.8L-13.4 -21.95L-13.4 -22L-13.4 -23.3L-13.4 -24Q-12.65 -23.4 -11.85 -23.45L-11.6 -23.5Q-9.7 -23 -8.6 -24.35Q-8.2 -24.15 -8.4 -24.5Q-7.4 -25.25 -7.15 -26.9Q-7.2 -27.6 -7.6 -28.9L-7.15 -35.2L-8.5 -35.3L-9 -28.85L-8.85 -28.8L-8.85 -28.75L-8.8 -28.75L-8.4 -27.35Q-8.25 -25.9 -9.35 -25.45Q-9.9 -24.55 -11.45 -24.85L-11.95 -24.85Q-12.55 -25.05 -13.25 -25.7L-13.45 -26.05L-13.45 -28.15M-10.05,-28.45L-10.1 -28.5L-10.1 -28.45L-10.05 -28.45M-13.75,-21.9L-13.8 -22L-13.75 -21.9" />
<path style="fill:#000000;fill-opacity:1" d="M12.65,-23.5L12.7 -25L12.75 -25L13.65 -25.7L13.85 -26.05L14.15 -26.8L14.3 -27.25L14.1 -27.65L13.9 -28.15L13.65 -28.9L13.5 -28.9L12.85 -38.55L13.65 -38.6L13.85 -37.65L14.5 -34L14.65 -32.05L14.7 -32.1L14.7 -32L14.9 -29.35L14.9 -29L14.8 -29L14.8 -28.9Q15.05 -28.2 15.4 -27.8Q15.35 -27.55 15.55 -27.5Q15.85 -25.9 14.95 -25.05L14.8 -24.85Q14.65 -24.9 14.6 -24.75L14.35 -24.5L13.8 -24Q13.25 -23.6 12.7 -23.5L12.65 -23.5M8.6,-14.25L15.2 -14.25Q15.9 -14.25 16.35 -14.7Q16.9 -15.25 16.9 -16.3Q16.9 -17.4 16.35 -17.95L15.2 -18.35L9.8 -18.35L10.55 -19.9L12.35 -19.9L15.25 -19.9Q16.5 -19.9 17.3 -19.1Q18.2 -18.2 18.2 -16.3Q18.2 -14.45 17.3 -13.55Q16.5 -12.75 15.25 -12.75L8.6 -12.75L8.6 -12.8L8.6 -14.25M-3.9,-14.25L2.65 -14.25Q3.35 -14.25 3.8 -14.7Q4.35 -15.25 4.35 -16.3Q4.35 -17.4 3.8 -17.95Q3.35 -18.35 2.65 -18.35L-3.9 -18.35L-3.9 -19.9L2.7 -19.9Q3.95 -19.9 4.75 -19.1Q5.65 -18.2 5.65 -16.3Q5.65 -14.45 4.75 -13.55L4.1 -13.05L2.8 -12.75L-3.9 -12.75L-3.9 -12.85L-3.9 -14.25M-13.7,-27.65L-13.85 -27.25L-13.7 -26.8L-13.45 -26.05L-13.25 -25.7Q-12.55 -25.05 -11.95 -24.85L-11.45 -24.85Q-9.9 -24.55 -9.35 -25.45Q-8.25 -25.9 -8.4 -27.35L-8.8 -28.75L-8.85 -28.75L-8.85 -28.8L-9 -28.85L-8.5 -35.3L-7.15 -35.2L-7.6 -28.9Q-7.2 -27.6 -7.15 -26.9Q-7.4 -25.25 -8.4 -24.5Q-8.2 -24.15 -8.6 -24.35Q-9.7 -23 -11.6 -23.5L-11.85 -23.45Q-12.65 -23.4 -13.4 -24L-13.95 -24.5L-14.15 -24.75L-14.35 -24.85L-14.55 -25.05Q-15.45 -25.9 -15.1 -27.5Q-14.95 -27.55 -14.95 -27.8L-14.4 -28.9L-14.35 -29L-14.45 -29L-14.5 -29.35L-14.45 -29.35L-14.25 -32L-14.25 -32.1L-14.2 -32.05L-14.1 -34L-13.25 -38.6L-12.4 -38.55L-13.1 -28.9L-13.2 -28.9L-13.45 -28.15L-13.7 -27.65" />
<path style="fill:none;stroke-width:1.2;stroke-linecap:round;stroke-linejoin:round;stroke-miterlimit:3;stroke:#000000;stroke-opacity:1" d="M-17.45,-52.15L-17.25 -52.65Q-16 -55.7 -12.65 -58.45Q-7.15 -63.5 0.5 -64Q8.1 -63.5 13.55 -58.45Q19 -53.95 19 -48.65Q19 -44.65 16.4 -41.55M-15.5,-41.55Q-17.9 -44.35 -18 -47.9L-18 -48.65" />
<path style="fill:#000000;fill-opacity:1" d="M5.4,-44.05Q5.55 -43.6 5.85 -43.3L6.55 -43.05L7.5 -43.65Q7.9 -44.3 7.9 -45.3Q7.9 -46.65 7 -48.55L8.05 -48.55Q8.95 -46.95 8.95 -45.4Q8.95 -43.85 8.3 -43Q7.7 -42.2 6.7 -42.2Q5.35 -42.2 4.8 -43.6Q4.2 -42.2 2.9 -42.2Q1.85 -42.2 1.25 -43.05Q0.6 -43.9 0.6 -45.4Q0.6 -46.95 1.55 -48.55L2.55 -48.55Q1.7 -46.65 1.7 -45.3Q1.7 -44.3 2.05 -43.65Q2.45 -43.05 3 -43.05Q3.4 -43.05 3.7 -43.35L4.15 -44.05L4.25 -45.2L4.25 -47L5.3 -47L5.3 -45.2L5.4 -44.05" />
</g>
</svg>
