<?xml version="1.0" encoding="utf-8"?>
<svg version="1.1" id="Layer_1"
xmlns="http://www.w3.org/2000/svg"
xmlns:xlink="http://www.w3.org/1999/xlink"
xmlns:author="http://www.sothink.com"
width="41px" height="45px"
xml:space="preserve">
<g id="131" transform="matrix(1, 0, 0, 1, 23.85, 45.65)">
<path style="fill:#808080;fill-opacity:1" d="M12.45,-4.75L11.6 -3.7Q8.5 -1.75 4.8 -1.7Q2.15 -1.6 -0.3 -2.55Q-2.8 -3.6 -3.9 -6.1L-3.9 -9.5Q-3.15 -6.75 -0.2 -6L3.25 -5.25Q6.65 -4.95 10 -6.05Q12.45 -6.85 13.4 -9.15Q13.3 -6.8 12.45 -4.75" />
<path style="fill:#666666;fill-opacity:1" d="M0.5,-7.45Q-1.3 -8.35 -1.3 -9.6Q-1.3 -10.85 0.5 -11.75Q2.25 -12.65 4.8 -12.65Q7.35 -12.65 9.15 -11.75Q10.9 -10.85 10.9 -9.6Q10.9 -8.35 9.15 -7.45Q7.35 -6.55 4.8 -6.55Q2.25 -6.55 0.5 -7.45" />
<path style="fill:none;stroke-width:1;stroke-linecap:round;stroke-linejoin:round;stroke-miterlimit:3;stroke:#666666;stroke-opacity:1" d="M13.4,-9.5L13.4 -9.55M-3.9,-9.55L-3.9 -9.5L-3.9 -6.1" />
<path style="fill:none;stroke-width:1;stroke-linecap:round;stroke-linejoin:round;stroke-miterlimit:3;stroke:#515151;stroke-opacity:1" d="M-3.9,-6.1Q-2.8 -3.6 -0.3 -2.55Q2.15 -1.6 4.8 -1.7Q8.5 -1.75 11.6 -3.7L12.45 -4.75Q13.3 -6.8 13.4 -9.15L13.4 -9.5" />
<path style="fill:none;stroke-width:1;stroke-linecap:round;stroke-linejoin:round;stroke-miterlimit:3;stroke:#808080;stroke-opacity:1" d="M13.4,-9.55Q13 -11.85 10.85 -12.65Q6.1 -14.5 1 -13.45Q-1 -13.05 -2.45 -12Q-3.75 -11.1 -3.9 -9.55" />
<path style="fill:none;stroke-width:1;stroke-linecap:round;stroke-linejoin:round;stroke-miterlimit:3;stroke:#A6A6A6;stroke-opacity:1" d="M-3.9,-9.5Q-3.15 -6.75 -0.2 -6L3.25 -5.25Q6.65 -4.95 10 -6.05Q12.45 -6.85 13.4 -9.15" />
<path style="fill:#999999;fill-opacity:1" d="M7.2,-11.5Q4.25 -11.6 3.4 -12.6Q2.65 -13.45 2.45 -16.45Q2.9 -16.85 3.05 -17.6L3.6 -19.55L1.05 -18.6L2.6 -23.35L3.15 -23L4.05 -21.05Q6.05 -21.95 9.2 -22.6Q12.3 -23.25 14.2 -26.6L14.45 -25.3Q15.65 -19.9 14.8 -14.45Q13.35 -11.3 7.2 -11.5" />
<path style="fill:#787878;fill-opacity:1" d="M3.6,-27.35Q11.45 -25.55 13.55 -30.3L14.2 -26.6Q12.3 -23.25 9.2 -22.6Q6.05 -21.95 4.05 -21.05L3.15 -23L2.6 -23.35L3.6 -27.35M-2.15,-10.35L-0.95 -12.25Q1.7 -9.8 5.4 -9.9Q9.25 -9.5 12.55 -11Q8.05 -7.75 2.45 -7.5Q-0.15 -7.4 -2.4 -8.5L-2.15 -10.35" />
<path style="fill:#C40202;fill-opacity:1" d="M-1.4,-27.7L-0.35 -28.6Q-0.8 -29.55 0.35 -30.95Q1.95 -32.95 6.55 -33.05Q9.95 -33.1 11.9 -32.05Q13.35 -31.25 13.55 -30.3Q11.45 -25.55 3.6 -27.35L2.6 -23.35Q0.95 -23.35 -0.2 -24.6Q-1.4 -25.9 -1.4 -27.7M-0.05,-14.9Q-3.3 -15.3 -4.3 -18.55L-4.4 -19.1L1.05 -18.6L-0.05 -14.9" />
<path style="fill:#808080;fill-opacity:1" d="M-0.05,-14.9L1.05 -18.6L3.6 -19.55L3.05 -17.6Q2.9 -16.85 2.45 -16.45Q2.65 -13.45 3.4 -12.6Q4.25 -11.6 7.2 -11.5Q13.35 -11.3 14.8 -14.45L14.3 -12.65L12.55 -11Q9.25 -9.5 5.4 -9.9Q1.7 -9.8 -0.95 -12.25L-0.05 -14.9" />
<path style="fill:#F22F2F;fill-opacity:1" d="M-2.4,-8.5L-6.85 -10.5Q-7.35 -18.65 -2.9 -25.35L-1.4 -27.7Q-1.4 -25.9 -0.2 -24.6Q0.95 -23.35 2.6 -23.35L1.05 -18.6L-4.4 -19.1L-4.3 -18.55Q-3.3 -15.3 -0.05 -14.9L-0.95 -12.25L-2.15 -10.35L-2.4 -8.5" />
<path style="fill:none;stroke-width:1;stroke-linecap:round;stroke-linejoin:round;stroke-miterlimit:3;stroke:#666666;stroke-opacity:1" d="M14.8,-14.45Q15.65 -19.9 14.45 -25.3L14.2 -26.6M2.6,-23.35L1.05 -18.6M14.8,-14.45L14.3 -12.65M13.55,-30.3L14.2 -26.6M-0.05,-14.9L-0.95 -12.25M-2.15,-10.35L-2.4 -8.5" />
<path style="fill:none;stroke-width:1;stroke-linecap:round;stroke-linejoin:round;stroke-miterlimit:3;stroke:#515151;stroke-opacity:1" d="M1.05,-18.6L3.6 -19.55M14.3,-12.65L12.55 -11Q8.05 -7.75 2.45 -7.5Q-0.15 -7.4 -2.4 -8.5M-0.95,-12.25Q1.7 -9.8 5.4 -9.9Q9.25 -9.5 12.55 -11" />
<path style="fill:none;stroke-width:1;stroke-linecap:round;stroke-linejoin:round;stroke-miterlimit:3;stroke:#6C2F2F;stroke-opacity:1" d="M-2.4,-8.5L-6.85 -10.5Q-7.35 -18.65 -2.9 -25.35L-1.4 -27.7L-0.35 -28.6Q1.75 -27.8 3.6 -27.35M13.55,-30.3Q11.45 -25.55 3.6 -27.35L2.6 -23.35M1.05,-18.6L-0.05 -14.9M-0.95,-12.25L-2.15 -10.35" />
<path style="fill:none;stroke-width:2;stroke-linecap:round;stroke-linejoin:round;stroke-miterlimit:3;stroke:#EA3131;stroke-opacity:1" d="M14.3,-12.65L13.45 -15.6M11.45,-14.85L10.55 -10.55M-0.95,-17.9Q3.8 -16.35 8.65 -18.05L12.3 -19.4L14.85 -20.9" />
<path style="fill:none;stroke-width:2;stroke-linecap:round;stroke-linejoin:round;stroke-miterlimit:3;stroke:#6C2F2F;stroke-opacity:1" d="M13.45,-15.6L12.3 -19.4L11.45 -14.85" />
<path style="fill:#F22F2F;fill-opacity:1" d="M8.6,-32.95Q4.55 -30.85 0.6 -32.6L-0.25 -37.1Q-0.65 -38.95 -2.6 -39.65Q-1.85 -42.85 1.3 -44.2Q6.05 -46.2 10.75 -44Q13.55 -42.75 14.8 -40.15Q12.7 -35.1 8.6 -32.95" />
<path style="fill:#999999;fill-opacity:1" d="M-2.65,-32.55L-1.7 -31.3Q-3.75 -29.95 -4.75 -30.95Q-4.85 -32.7 -4.05 -34.35L-3.1 -36.15L-2.6 -39.65Q-0.65 -38.95 -0.25 -37.1L0.6 -32.6L0.95 -30.95Q-0.6 -30.95 -2.65 -32.55" />
<path style="fill:#787878;fill-opacity:1" d="M0.95,-30.95L2.25 -29.2Q0.95 -29.2 -1.15 -30.45L-0.45 -29.7Q-2.8 -28.4 -4.4 -30.3L-4.75 -30.95Q-3.75 -29.95 -1.7 -31.3L-2.65 -32.55Q-0.6 -30.95 0.95 -30.95" />
<path style="fill:#C40202;fill-opacity:1" d="M0.95,-30.95L0.6 -32.6Q4.55 -30.85 8.6 -32.95Q12.7 -35.1 14.8 -40.15Q16.1 -36.95 15.5 -33.45Q15.05 -30.7 12.7 -30Q7.5 -28.35 2.25 -29.2L0.95 -30.95" />
<path style="fill:none;stroke-width:1;stroke-linecap:round;stroke-linejoin:round;stroke-miterlimit:3;stroke:#6C2F2F;stroke-opacity:1" d="M-2.6,-39.65Q-1.85 -42.85 1.3 -44.2Q6.05 -46.2 10.75 -44Q13.55 -42.75 14.8 -40.15Q16.1 -36.95 15.5 -33.45Q15.05 -30.7 12.7 -30Q7.5 -28.35 2.25 -29.2M0.6,-32.6L0.95 -30.95L2.25 -29.2" />
<path style="fill:none;stroke-width:1;stroke-linecap:round;stroke-linejoin:round;stroke-miterlimit:3;stroke:#666666;stroke-opacity:1" d="M-2.65,-32.55L-1.7 -31.3L-1.15 -30.45L-0.45 -29.7Q-2.8 -28.4 -4.4 -30.3L-4.75 -30.95Q-4.85 -32.7 -4.05 -34.35L-3.1 -36.15M-2.6,-39.65Q-0.65 -38.95 -0.25 -37.1L0.6 -32.6" />
<path style="fill:none;stroke-width:1;stroke-linecap:round;stroke-linejoin:round;stroke-miterlimit:3;stroke:#838383;stroke-opacity:1" d="M-3.1,-36.15L-2.6 -39.65" />
<path style="fill:none;stroke-width:1;stroke-linecap:round;stroke-linejoin:round;stroke-miterlimit:3;stroke:#515151;stroke-opacity:1" d="M2.25,-29.2Q0.95 -29.2 -1.15 -30.45" />
<path style="fill:#666666;fill-opacity:1" d="M-23.35,-15.35Q-23.35 -16.8 -21.3 -17.85Q-19.25 -18.85 -16.35 -18.85Q-13.5 -18.85 -11.45 -17.85Q-9.35 -16.8 -9.35 -15.35L-9.35 -15.3L-9.4 -14.75L-9.65 -14.45Q-9.85 -13.9 -10.4 -13.45L-11.45 -12.85L-12.15 -12.5L-12.9 -12.25L-16.35 -11.85L-17.6 -11.85L-19.8 -12.25Q-20.6 -12.5 -21.3 -12.85L-22.2 -13.35L-22.25 -13.45L-23.1 -14.45L-23.3 -14.95L-23.3 -15.15L-23.3 -15.3L-23.35 -15.35M-21.5,-4.65L-20.9 -3.8L-20.2 -3.3L-19.25 -2.85L-18.9 -2.7L-17.95 -2.5L-17.2 -2.4L-18.15 -2.5Q-19.55 -2.75 -20.65 -3.3L-21.4 -3.8L-22.1 -4.65Q-22.3 -5 -21.75 -5.4L-21.5 -4.65M-10.95,-5.4Q-10.35 -5 -10.55 -4.65Q-10.75 -4.2 -11.3 -3.8L-12.15 -3.3Q-13.35 -2.7 -14.9 -2.5Q-13.9 -2.65 -13.05 -3.05L-12.55 -3.3L-11.8 -3.8Q-11.3 -4.2 -11.15 -4.65L-10.95 -5.4" />
<path style="fill:#89544B;fill-opacity:1" d="M-23.35,-15.35L-23.3 -15.3L-23.3 -15.15L-23.35 -15.3L-23.35 -15.35M-9.35,-15L-9.4 -14.75L-9.35 -15.3L-9.35 -15" />
<radialGradient
id="RadialGradID_521" gradientUnits="userSpaceOnUse" gradientTransform="matrix(0.0115356, 0, 0, 0.0115356, -16.25, -11.75)" spreadMethod ="pad" cx="0" cy="0" r="819.2" fx="0" fy="0" >
<stop  offset="0"  style="stop-color:#959595;stop-opacity:1" />
<stop  offset="0.745098"  style="stop-color:#787878;stop-opacity:1" />
<stop  offset="1"  style="stop-color:#787878;stop-opacity:1" />
</radialGradient>
<path style="fill:url(#RadialGradID_521) " d="M-11.15,-4.65Q-11.3 -4.2 -11.8 -3.8L-12.55 -3.3L-13.05 -3.05Q-13.9 -2.65 -14.9 -2.5L-17.2 -2.4L-17.95 -2.5L-18.9 -2.7L-19.25 -2.85L-20.2 -3.3L-20.9 -3.8L-21.5 -4.65L-21.75 -5.4L-23.3 -14.95L-23.1 -14.45L-22.25 -13.45L-22.2 -13.35L-21.3 -12.85Q-20.6 -12.5 -19.8 -12.25L-17.6 -11.85L-16.35 -11.85L-12.9 -12.25L-12.15 -12.5L-11.45 -12.85L-10.4 -13.45Q-9.85 -13.9 -9.65 -14.45L-9.4 -14.75L-10.95 -5.4L-11.15 -4.65" />
<path style="fill:none;stroke-width:1;stroke-linecap:round;stroke-linejoin:round;stroke-miterlimit:3;stroke:#808080;stroke-opacity:1" d="M-23.3,-15.15L-23.3 -15.3L-23.35 -15.3L-23.3 -15.15L-23.3 -14.95L-23.1 -14.45L-22.25 -13.45L-22.2 -13.35M-9.4,-14.75L-9.35 -15.3L-9.35 -15.35M-23.35,-15.35L-23.3 -15.3M-21.75,-5.4L-23.3 -14.95" />
<path style="fill:none;stroke-width:1;stroke-linecap:round;stroke-linejoin:round;stroke-miterlimit:3;stroke:#666666;stroke-opacity:1" d="M-23.35,-15.3L-23.35 -15.35" />
<path style="fill:none;stroke-width:1;stroke-linecap:round;stroke-linejoin:round;stroke-miterlimit:3;stroke:#A6A6A6;stroke-opacity:1" d="M-22.2,-13.35L-21.3 -12.85Q-20.6 -12.5 -19.8 -12.25L-17.6 -11.85L-16.35 -11.85L-12.9 -12.25L-12.15 -12.5L-11.45 -12.85L-10.4 -13.45Q-9.85 -13.9 -9.65 -14.45L-9.4 -14.75M-9.35,-15.35Q-9.35 -16.8 -11.45 -17.85Q-13.5 -18.85 -16.35 -18.85Q-19.25 -18.85 -21.3 -17.85Q-23.35 -16.8 -23.35 -15.35" />
<path style="fill:none;stroke-width:1;stroke-linecap:round;stroke-linejoin:round;stroke-miterlimit:3;stroke:#515151;stroke-opacity:1" d="M-14.9,-2.5L-17.2 -2.4L-17.95 -2.5L-18.9 -2.7L-19.25 -2.85L-20.2 -3.3L-20.9 -3.8L-21.5 -4.65L-21.75 -5.4M-9.35,-15.3L-9.35 -15M-14.9,-2.5Q-13.9 -2.65 -13.05 -3.05L-12.55 -3.3L-11.8 -3.8Q-11.3 -4.2 -11.15 -4.65L-10.95 -5.4" />
<path style="fill:none;stroke-width:1;stroke-linecap:round;stroke-linejoin:round;stroke-miterlimit:3;stroke:#757575;stroke-opacity:1" d="M-9.4,-14.75L-10.95 -5.4" />
<path style="fill:none;stroke-width:1;stroke-linecap:round;stroke-linejoin:round;stroke-miterlimit:3;stroke:#808080;stroke-opacity:1" d="M-8.4,-10.25L-9.8 -12.3M-20,-11.5L-16.4 -6.25" />
<path style="fill:none;stroke-width:1;stroke-linecap:round;stroke-linejoin:round;stroke-miterlimit:3;stroke:#666666;stroke-opacity:1" d="M-8.7,-9.2L-16.7 -5.2L-20.3 -10.45" />
<path style="fill:none;stroke-width:1;stroke-linecap:round;stroke-linejoin:round;stroke-miterlimit:3;stroke:#A6A6A6;stroke-opacity:1" d="M-16.4,-6.25L-8.4 -10.25" />
</g>
</svg>
