<?xml version="1.0" encoding="utf-8"?>
<svg version="1.1" id="Layer_1"
xmlns="http://www.w3.org/2000/svg"
xmlns:xlink="http://www.w3.org/1999/xlink"
xmlns:author="http://www.sothink.com"
width="75px" height="48px"
xml:space="preserve">
<g id="143" transform="matrix(1, 0, 0, 1, 40.7, 41.35)">
<path style="fill:#000000;fill-opacity:0.2" d="M29.6,-19.3L29.85 -19.3L29.65 -18.9L29.6 -19.3M16,-3.65Q18.4 -2.4 20 -2.05L17.55 -0.95L16 -3.65M-2.85,3.85L-3.3 2.9Q-2.2 2.8 -2.85 3.85M15.95,-37.75L16.2 -37.75L16 -37.65L15.95 -37.75" />
<path style="fill:#558046;fill-opacity:1" d="M-32.65,-8.15L-33.7 -9.4L-31.2 -11.3L-30.95 -11.45L-33.3 -11.85L-33.5 -11.8L-35 -11.65L-35.35 -13.45L-40.2 -10.45Q-38.2 -18.7 -34.75 -17.65Q-36.8 -24.1 -29.5 -22.75Q-31.25 -26.85 -28.25 -28.1Q-30.35 -30.45 -34.6 -31.25Q-30.2 -35.2 -28.05 -33.4Q-27.15 -34.35 -26.2 -34.6Q-25.3 -34.85 -20.8 -34.7Q-24.3 -39.2 -27.4 -35.8Q-26.2 -42.5 -20 -40.35L-19.25 -40.45L-17.5 -39.75Q-16.4 -39.4 -15.9 -38.25L-15.25 -36.75L-14 -37.7L-12.85 -37.75Q-12.15 -37.75 -10.5 -35.75Q-9.2 -37.4 -7.5 -36.95L-7.75 -37.6Q-8.45 -39.15 -9.3 -39.3L-7.7 -39.55Q-7.05 -39.55 -6.35 -39.05L-5.35 -38.25L-3.95 -36.6L-3.1 -36.75Q-2.45 -36.75 -1.9 -36.3L-1.25 -35.75L-1.2 -35.7Q-0.45 -36.2 0.7 -35.95L1.6 -35.85L2.05 -36.4Q3 -37.3 5.2 -37.7Q4.6 -37.4 4.3 -36.65L4.15 -36L5.1 -36.25Q7.15 -37 7 -34L7.5 -34L8.6 -36.2Q8.85 -36.45 10.55 -35.1Q12.3 -33.8 11 -30L12.25 -29.75L13.55 -30Q14.05 -30 15 -30.5Q15.25 -30.5 15.95 -31.2L16.3 -32L17 -31.85L17.25 -31.75L17.55 -31.65Q21.8 -33.7 24.05 -28.9Q25.95 -30.2 28.55 -29.4L29.85 -28.9L22.05 -24.2L24.4 -24.1Q24.05 -23.65 22.7 -23.1Q20.6 -22.25 18.1 -22.25L15.8 -22.45L15.3 -22.8L14 -22.8Q14.05 -21.1 13.75 -20.65Q13.25 -20 8.6 -20L5.55 -20.55L5.2 -19.5Q4.75 -18.75 3.75 -19.1L2.35 -19.1L2.5 -16.85L2.5 -15.2Q2.35 -14 1.5 -14L0 -14.85Q-1.2 -15.75 -3.35 -15.75Q-5.3 -15.75 -6 -16.65Q-6.4 -17.1 -6.5 -17.9L-9.45 -16.7Q-11.35 -16 -12.75 -16Q-14.25 -16 -14.25 -19.4L-15.6 -19.25Q-17 -19.25 -17.6 -20.7L-17.85 -21.5L-18 -22.65L-19.25 -22.1L-21.5 -21.25L-21 -19.75L-20.9 -19.55L-20.5 -18.05L-20.55 -17.5L-23.35 -17.6L-24.9 -17.45L-25.9 -17.15L-26.45 -16.7L-26.5 -16.6L-26.25 -15.8L-26 -15Q-26 -14.55 -26.45 -14.3L-23.5 -11.35L-23.5 -10.75L-23.5 -10.45L-25.9 -8.85L-28.35 -7.5Q-29.05 -7.5 -29.5 -8.1L-30.25 -8.75Q-31.2 -8.75 -32.65 -8.15M22.5,-9.25Q24.5 -6.35 24.05 -5.25L23.6 -5.5L24.05 -5.25Q24.25 -7.25 21.45 -9.25L22.5 -9.25M21.65,-2.9L19.95 -3.8L20.25 -4.15L21.65 -2.95L22 -2.7L21.65 -2.9M0.9,-30.75Q0.5 -31.3 -0.15 -31.4Q-0.55 -31.45 -2.3 -34.05L-4.5 -30.4L-4.4 -29.95L-4.3 -29.8L-2.7 -29.4L-2.75 -29.15L-2.65 -28.7L-2.55 -28.55L-0.7 -28.25L-0.5 -28.25L-0.35 -28.25L-0.25 -28.25L-0.05 -28.25L0.25 -28Q1.05 -28.1 1.4 -28.7L2.05 -29.2L3.25 -30.4L3 -31.05L1.15 -30.8L0.9 -30.75M-26,-26L-25.5 -26.1L-25.3 -26.3L-25.25 -26.5L-23.85 -27.5L-23.8 -27.5L-23.45 -27.65Q-22.55 -27.95 -22 -28.8Q-22.45 -29.7 -23.35 -29.6L-24.85 -29.75Q-26.65 -29.6 -26.75 -28.75Q-27.25 -28.45 -27.25 -27.9L-27.2 -27.85L-27.5 -27.15L-26 -26M-15.35,-14Q-13.95 -14.65 -13.1 -13.7L-12.4 -13.6L-12.4 -13.05L-12.5 -12.25L-11.75 -11.45L-11.1 -10.85Q-10.75 -10.65 -10.75 -9.85L-13 -7.75Q-15.2 -6 -15.35 -6L-16.05 -6.1L-16.15 -6.2L-16.2 -6.25L-17.85 -6.55L-19.05 -7.75L-19.2 -7.8L-19.5 -8L-19.75 -9.75L-19.65 -10.1L-20 -10.4Q-20 -11 -18.8 -11.95Q-17.8 -12.75 -16.85 -12.85Q-16.5 -13.45 -15.35 -14" />
<path style="fill:#406035;fill-opacity:1" d="M-3.3,2.9L-3.4 2.95L-7.85 3.7L-9.65 4.1Q-13.75 4.9 -12.45 3.7Q-11.1 2.5 -10.2 1.2L-9.25 -0.15L-10 0.15L-13.75 1.35Q-16.35 1.85 -17.2 0.35L-17.75 -0.3L-20.4 -0.4L-20.95 -0.25L-21.65 -0.05L-24.1 0.25L-24.2 0.25L-24 -0.05L-22.8 -1.5L-19.8 -4.2Q-25.75 -3.7 -26.15 -2.05Q-26.55 -0.4 -26.95 -0.2Q-27.7 -0.4 -28.4 -0.75L-32.4 -0.75L-29.95 -1.65L-31.15 -2.6L-31.8 -3.2L-35.7 -4.3L-31.9 -7.3L-32.65 -8.15Q-31.2 -8.75 -30.25 -8.75L-29.5 -8.1Q-29.05 -7.5 -28.35 -7.5L-25.9 -8.85L-23.5 -10.45L-23.5 -10.75L-23.5 -11.35L-26.45 -14.3Q-26 -14.55 -26 -15L-26.25 -15.8L-26.5 -16.6L-26.45 -16.7L-25.9 -17.15L-24.9 -17.45L-23.35 -17.6L-20.55 -17.5L-20.5 -18.05L-20.9 -19.55L-21 -19.75L-21.5 -21.25L-19.25 -22.1L-18 -22.65L-17.85 -21.5L-17.6 -20.7Q-17 -19.25 -15.6 -19.25L-14.25 -19.4Q-14.25 -16 -12.75 -16Q-11.35 -16 -9.45 -16.7L-6.5 -17.9Q-6.4 -17.1 -6 -16.65Q-5.3 -15.75 -3.35 -15.75Q-1.2 -15.75 0 -14.85L1.5 -14Q2.35 -14 2.5 -15.2L2.5 -16.85L2.35 -19.1L3.75 -19.1Q4.75 -18.75 5.2 -19.5L5.55 -20.55L8.6 -20Q13.25 -20 13.75 -20.65Q14.05 -21.1 14 -22.8L15.3 -22.8L15.8 -22.45L18.1 -22.25Q20.6 -22.25 22.7 -23.1Q24.05 -23.65 24.4 -24.1L24.7 -24.05L26.85 -22.9L27.2 -21.95L27.2 -21.85L27.2 -21.7L27.2 -21.6L27.2 -21.5L27.15 -21.3L27.1 -20.95L27 -20.65Q29.1 -21.55 30.75 -21.25Q32.55 -21 33.8 -19.3L29.85 -19.3L29.6 -19.3L29.65 -18.9Q30 -16.6 29.6 -14.55L31.75 -12.9L28.75 -12.1Q28.35 -11.3 27.6 -10.65L25.75 -11.8L25.45 -11.95Q22.7 -13.35 21.75 -13.35L21.95 -13.05Q22.7 -12.6 23.8 -10.5Q23.1 -9.2 19.8 -12.65L22.5 -9.25L21.45 -9.25Q24.25 -7.25 24.05 -5.25L23.6 -5.5L22.1 -6.2L18.5 -6.4L18.85 -5.9L20.25 -4.15L19.95 -3.8L21.65 -2.9L22 -2.7L22.1 -2.65L22.35 -2.5L22.35 -2.45Q21.6 -1.75 20 -2.05Q18.4 -2.4 16 -3.65L17.55 -0.95L17.75 -0.55Q15.3 0 13.4 -0.95L11.75 -1.8L11.25 -2.25Q7.85 -3.85 7.4 -1.05Q10.7 0.85 9.75 1.5Q8.25 2.55 6.05 3.5L5.95 3.55L0.7 5.1L-4.95 6.15L-2.85 3.85Q-2.2 2.8 -3.3 2.9M15.95,-31.2Q15.25 -30.5 15 -30.5Q14.05 -30 13.55 -30L12.25 -29.75L11 -30Q12.5 -32.1 16.3 -32L15.95 -31.2M1.15,-30.8L3 -31.05L3.25 -30.4L2.05 -29.2L1.4 -28.7Q1.05 -28.1 0.25 -28L-0.05 -28.25L-0.25 -28.25L-0.35 -28.25L-0.5 -28.25L-0.7 -28.25L-2.55 -28.55L-2.65 -28.7L-2.75 -29.15L-2.7 -29.4L-4.3 -29.8L-4.4 -29.95L-4.5 -30.4L-2.3 -34.05Q-0.55 -31.45 -0.15 -31.4Q0.5 -31.3 0.9 -30.75L1.15 -30.8M-27.5,-27.15L-27.2 -27.85L-27.25 -27.9Q-27.25 -28.45 -26.75 -28.75Q-26.65 -29.6 -24.85 -29.75L-23.35 -29.6Q-22.45 -29.7 -22 -28.8Q-22.55 -27.95 -23.45 -27.65L-23.8 -27.5L-23.85 -27.5L-25.25 -26.5L-25.3 -26.3L-25.5 -26.1L-26 -26L-27.5 -27.15M-16.85,-12.85Q-17.8 -12.75 -18.8 -11.95Q-20 -11 -20 -10.4L-19.65 -10.1L-19.75 -9.75L-19.5 -8L-19.2 -7.8L-19.05 -7.75L-17.85 -6.55L-16.2 -6.25L-16.15 -6.2L-16.05 -6.1L-15.35 -6Q-15.2 -6 -13 -7.75L-10.75 -9.85Q-10.75 -10.65 -11.1 -10.85L-11.75 -11.45L-12.5 -12.25L-12.4 -13.05L-12.4 -13.6L-13.1 -13.7Q-13.95 -14.65 -15.35 -14Q-16.5 -13.45 -16.85 -12.85" />
<path style="fill:none;stroke-width:1;stroke-linecap:round;stroke-linejoin:round;stroke-miterlimit:3;stroke:#37522E;stroke-opacity:1" d="M24.05,-28.9Q25.95 -30.2 28.55 -29.4L29.85 -28.9L22.05 -24.2L24.4 -24.1M24.7,-24.05L26.85 -22.9M27,-20.65Q29.1 -21.55 30.75 -21.25Q32.55 -21 33.8 -19.3L29.85 -19.3L29.6 -19.3L29.65 -18.9Q30 -16.6 29.6 -14.55L31.75 -12.9L28.75 -12.1Q28.35 -11.3 27.6 -10.65L25.75 -11.8L25.45 -11.95Q22.7 -13.35 21.75 -13.35L21.95 -13.05Q22.7 -12.6 23.8 -10.5Q23.1 -9.2 19.8 -12.65L22.5 -9.25Q24.5 -6.35 24.05 -5.25L23.6 -5.5L22.1 -6.2L18.5 -6.4L18.85 -5.9L20.25 -4.15L21.65 -2.95L22 -2.7L22.1 -2.65L22.35 -2.5L22.35 -2.45Q21.6 -1.75 20 -2.05Q18.4 -2.4 16 -3.65L17.55 -0.95L17.75 -0.55Q15.3 0 13.4 -0.95L11.75 -1.8L11.25 -2.25Q7.85 -3.85 7.4 -1.05Q10.7 0.85 9.75 1.5Q8.25 2.55 6.05 3.5L5.95 3.55L0.7 5.1L-4.95 6.15L-2.85 3.85M-3.3,2.9L-3.4 2.95L-7.85 3.7L-9.65 4.1Q-13.75 4.9 -12.45 3.7Q-11.1 2.5 -10.2 1.2L-9.25 -0.15L-10 0.15L-13.75 1.35Q-16.35 1.85 -17.2 0.35L-17.75 -0.3L-20.4 -0.4L-20.95 -0.25L-21.65 -0.05L-24.1 0.25M-24.2,0.25L-24 -0.05L-22.8 -1.5L-19.8 -4.2Q-25.75 -3.7 -26.15 -2.05Q-26.55 -0.4 -26.95 -0.2Q-27.7 -0.4 -28.4 -0.75L-32.4 -0.75L-29.95 -1.65L-31.15 -2.6L-31.8 -3.2L-35.7 -4.3L-31.9 -7.3L-32.65 -8.15L-33.7 -9.4L-31.2 -11.3L-30.95 -11.45L-33.3 -11.85L-33.5 -11.8L-35 -11.65L-35.35 -13.45L-40.2 -10.45Q-38.2 -18.7 -34.75 -17.65Q-36.8 -24.1 -29.5 -22.75Q-31.25 -26.85 -28.25 -28.1Q-30.35 -30.45 -34.6 -31.25Q-30.2 -35.2 -28.05 -33.4Q-27.15 -34.35 -26.2 -34.6Q-25.3 -34.85 -20.8 -34.7Q-24.3 -39.2 -27.4 -35.8Q-26.2 -42.5 -20 -40.35L-19.25 -40.45M-3.3,2.9Q-2.2 2.8 -2.85 3.85" />
<path style="fill:none;stroke-width:1;stroke-linecap:round;stroke-linejoin:round;stroke-miterlimit:3;stroke:#719768;stroke-opacity:1" d="M-8.5,-27.75L-6.7 -28.5L-4.5 -28.75M-25.2,-38.25Q-24.25 -39.2 -23.35 -39.5Q-22.45 -39.8 -20.8 -39.5Q-19.2 -39.25 -19.3 -38.5M-32.25,-31.95L-30.6 -32.4M-21.75,-33.8L-21 -33.9L-18.8 -33.45M-23.25,-24.4L-22.55 -26.5L-22 -27.9M-29.55,-21.8L-28.05 -20.7M-38.45,-13.2L-37.1 -15.4L-35.3 -16.55M-29.5,-22.75L-31.5 -22.25Q-32.6 -22.1 -33.3 -21.6M-31.1,-9.8L-30.15 -10.6L-29.25 -11.1M-18.75,-10.65Q-19.25 -10.15 -19.25 -9.3L-18.75 -8.15" />
</g>
</svg>
