<?xml version="1.0" encoding="utf-8"?>
<svg version="1.1" id="Layer_1"
xmlns="http://www.w3.org/2000/svg"
xmlns:xlink="http://www.w3.org/1999/xlink"
xmlns:author="http://www.sothink.com"
width="12px" height="13px"
xml:space="preserve">
<g id="969" transform="matrix(1, 0, 0, 1, 5, 32.75)">
<path style="fill:#FFFFFF;fill-opacity:0.65098" d="M1,-29.75Q0.65 -32 2.7 -30.9L4.85 -31.2Q6.05 -31.2 5.55 -30.05L5.85 -29.1L6.25 -28.05L6.3 -27.85L6.3 -27.7L6.25 -27.6L3.8 -27.65L3.5 -26.65Q2.95 -26.25 2.3 -26.25Q1.55 -26.25 1.05 -26.8L0.65 -27.45Q0.5 -27.75 0.5 -28.05L0.65 -28.7L1 -29.3L1 -29.75M-0.1,-31.1Q0.35 -30.75 0.4 -30.25L0.25 -29.75L-0.1 -29.3Q-0.6 -28.95 -1.25 -28.95L-2.25 -29.25L-2.5 -29.9L-3.1 -29.75Q-4.35 -29.45 -4.65 -29.75L-4.75 -29.9L-4.75 -30L-4.75 -30.1L-4.7 -30.25L-4.35 -30.95L-4.1 -31.6Q-4.55 -32.4 -3.5 -32.4L-1.55 -32.25Q0.2 -33 -0.1 -31.4L-0.1 -31.1M3.1,-23.7Q3.8 -23.15 3.85 -22.4Q3.85 -21.6 3.1 -21Q2.35 -20.45 1.35 -20.45Q0.45 -20.45 -0.2 -20.85L-0.65 -21.9Q-3.85 -20.9 -4.05 -21.9L-4.1 -22L-4.1 -22.15L-4 -22.4L-3.45 -23.45L-3 -24.5Q-3.7 -25.7 -2.15 -25.7L0.9 -25.4Q3.6 -26.6 3.1 -24.2L3.1 -23.7" />
<path style="fill:none;stroke-width:0.5;stroke-linecap:round;stroke-linejoin:round;stroke-miterlimit:3;stroke:#999999;stroke-opacity:0.745098" d="M1,-29.3L0.65 -28.7L0.5 -28.05Q0.5 -27.75 0.65 -27.45L1.05 -26.8Q1.55 -26.25 2.3 -26.25Q2.95 -26.25 3.5 -26.65M3.8,-27.65L6.25 -27.6L6.3 -27.7L6.3 -27.85L6.25 -28.05L5.85 -29.1M5.55,-30.05Q6.05 -31.2 4.85 -31.2M2.7,-30.9Q0.65 -32 1 -29.75M-0.1,-31.1Q0.35 -30.75 0.4 -30.25L0.25 -29.75L-0.1 -29.3Q-0.6 -28.95 -1.25 -28.95L-2.25 -29.25M-2.5,-29.9L-3.1 -29.75Q-4.35 -29.45 -4.65 -29.75L-4.75 -29.9L-4.75 -30L-4.75 -30.1L-4.7 -30.25L-4.35 -30.95M-4.1,-31.6Q-4.55 -32.4 -3.5 -32.4M-1.55,-32.25Q0.2 -33 -0.1 -31.4M3.1,-23.7Q3.8 -23.15 3.85 -22.4Q3.85 -21.6 3.1 -21Q2.35 -20.45 1.35 -20.45Q0.45 -20.45 -0.2 -20.85M-0.65,-21.9Q-3.85 -20.9 -4.05 -21.9L-4.1 -22L-4.1 -22.15L-4 -22.4L-3.45 -23.45M-3,-24.5Q-3.7 -25.7 -2.15 -25.7M0.9,-25.4Q3.6 -26.6 3.1 -24.2" />
</g>
</svg>
