<?xml version="1.0" encoding="utf-8"?>
<svg version="1.1" id="Layer_1"
xmlns="http://www.w3.org/2000/svg"
xmlns:xlink="http://www.w3.org/1999/xlink"
xmlns:author="http://www.sothink.com"
width="75px" height="14px"
xml:space="preserve">
<g id="729" transform="matrix(1, 0, 0, 1, 36.1, 22.05)">
<path style="fill:#2B5E1C;fill-opacity:1" d="M28,-14.9L27.35 -15.8Q27.1 -16.3 27.5 -16.65L28 -16.9L29.9 -15.9L31.05 -15.6L33.8 -15.9L35.9 -16.05L36.4 -15.65L36.5 -15.15Q30.35 -13.1 28 -14.9" />
<path style="fill:#558046;fill-opacity:1" d="M26.6,-19.35Q33.4 -25.15 38.35 -15.8L36.5 -15.15L36.4 -15.65L35.9 -16.05L33.8 -15.9L31.05 -15.6L29.9 -15.9L28 -16.9L27.5 -16.65Q27.1 -16.3 27.35 -15.8L28 -14.9Q26.35 -16.15 26.6 -19.35" />
<path style="fill:none;stroke-width:1;stroke-linecap:round;stroke-linejoin:round;stroke-miterlimit:3;stroke:#265218;stroke-opacity:1" d="M36.5,-15.15L38.35 -15.8Q33.4 -25.15 26.6 -19.35Q26.35 -16.15 28 -14.9Q30.35 -13.1 36.5 -15.15z" />
<path style="fill:#2B5E1C;fill-opacity:1" d="M-33.7,-10L-33.65 -10.5L-33.15 -10.9L-31.05 -10.75L-28.3 -10.45L-27.15 -10.75L-25.25 -11.75L-24.75 -11.5Q-24.35 -11.15 -24.6 -10.65L-25.25 -9.75Q-27.6 -7.95 -33.7 -10" />
<path style="fill:#558046;fill-opacity:1" d="M-24.6,-10.65Q-24.35 -11.15 -24.75 -11.5L-25.25 -11.75L-27.15 -10.75L-28.3 -10.45L-31.05 -10.75L-33.15 -10.9L-33.65 -10.5L-33.7 -10L-35.6 -10.65Q-30.65 -20 -23.8 -14.2Q-23.6 -11 -25.25 -9.75L-24.6 -10.65" />
<path style="fill:none;stroke-width:1;stroke-linecap:round;stroke-linejoin:round;stroke-miterlimit:3;stroke:#265218;stroke-opacity:1" d="M-25.25,-9.75Q-23.6 -11 -23.8 -14.2Q-30.65 -20 -35.6 -10.65L-33.7 -10M-25.25,-9.75Q-27.6 -7.95 -33.7 -10" />
<path style="fill:#558046;fill-opacity:1" d="M8.8,-16.55Q4.85 -12.15 0.8 -18.8Q6.05 -22.8 8.8 -16.55" />
<path style="fill:none;stroke-width:1;stroke-linecap:round;stroke-linejoin:round;stroke-miterlimit:3;stroke:#265218;stroke-opacity:1" d="M0.8,-18.8Q4.85 -12.15 8.8 -16.55Q6.05 -22.8 0.8 -18.8z" />
</g>
</svg>
