<?xml version="1.0" encoding="utf-8"?>
<svg version="1.1" id="Layer_1"
xmlns="http://www.w3.org/2000/svg"
xmlns:xlink="http://www.w3.org/1999/xlink"
xmlns:author="http://www.sothink.com"
width="32px" height="22px"
xml:space="preserve">
<g id="782" transform="matrix(1, 0, 0, 1, 123.2, 9.5)">
<linearGradient
id="LinearGradID_3007" gradientUnits="userSpaceOnUse" gradientTransform="matrix(-0.0156555, -0.00906372, 0.0025177, -0.00436401, -107.85, 7.65)" spreadMethod ="pad" x1="-819.2" y1="0" x2="819.2" y2="0" >
<stop  offset="0.203922" style="stop-color:#CCCCCC;stop-opacity:1" />
<stop  offset="0.803922" style="stop-color:#E7E7E7;stop-opacity:1" />
<stop  offset="1" style="stop-color:#FFFFFF;stop-opacity:1" />
</linearGradient>
<path style="fill:url(#LinearGradID_3007) " d="M-92.95,7.75Q-92 9.35 -93.5 11.8Q-108.1 7.8 -122.7 7.55L-122.2 3.55L-122.15 3.55L-92.95 7.75" />
<linearGradient
id="LinearGradID_3008" gradientUnits="userSpaceOnUse" gradientTransform="matrix(0.0283203, 0, 0, 0.0102234, -104.45, -0.65)" spreadMethod ="pad" x1="-819.2" y1="0" x2="819.2" y2="0" >
<stop  offset="0.00392157" style="stop-color:#FFFFFF;stop-opacity:1" />
<stop  offset="0.180392" style="stop-color:#D10101;stop-opacity:1" />
<stop  offset="0.556863" style="stop-color:#FE3636;stop-opacity:1" />
<stop  offset="0.905882" style="stop-color:#FFFFFF;stop-opacity:1" />
</linearGradient>
<path style="fill:url(#LinearGradID_3008) " d="M-122.15,3.55Q-114.6 -5.5 -100.5 -9Q-93.2 -6 -92.45 0.6Q-91.7 7.15 -93.95 2.65Q-96.25 -1.9 -95.95 -0.2L-92.95 7.75L-122.15 3.55" />
<path style="fill:none;stroke-width:1;stroke-linecap:round;stroke-linejoin:round;stroke-miterlimit:3;stroke:#FFFFFF;stroke-opacity:1" d="M-92.95,7.75Q-92 9.35 -93.5 11.8Q-108.1 7.8 -122.7 7.55L-122.2 3.55L-122.15 3.55L-92.95 7.75z" />
<path style="fill:none;stroke-width:1;stroke-linecap:round;stroke-linejoin:round;stroke-miterlimit:3;stroke:#FFFFFF;stroke-opacity:1" d="M-122.2,3.55L-122.15 3.55" />
<path style="fill:none;stroke-width:1;stroke-linecap:round;stroke-linejoin:round;stroke-miterlimit:3;stroke:#FF0000;stroke-opacity:1" d="M-122.15,3.55Q-114.6 -5.5 -100.5 -9Q-93.2 -6 -92.45 0.6Q-91.7 7.15 -93.95 2.65Q-96.25 -1.9 -95.95 -0.2L-92.95 7.75" />
</g>
</svg>
