<?xml version="1.0" encoding="utf-8"?>
<svg version="1.1" id="Layer_1"
xmlns="http://www.w3.org/2000/svg"
xmlns:xlink="http://www.w3.org/1999/xlink"
xmlns:author="http://www.sothink.com"
width="57px" height="99px"
xml:space="preserve">
<g id="193" transform="matrix(1, 0, 0, 1, 56.45, 120.15)">
<path style="fill:#FFFFFF;fill-opacity:1" d="M-52,-90.1L-2 -115.05L-1.95 -50.1L-52 -25.1L-52 -57.7L-52 -90.1" />
<path style="fill:#CFCAA5;fill-opacity:1" d="M-55.95,-92.75L-53.7 -93.95L-8.95 -116.35L-2.35 -119.65L-0.1 -118.5L0 -118.45L0.05 -48.85L-6.95 -45.35L-51.7 -22.95L-53.85 -21.9L-53.95 -21.95L-55.95 -22.95L-55.95 -92.75M-54,-91.6L-53.8 -91.7L-53.95 -91.75L-54 -91.6M-52,-57.7L-52 -25.1L-1.95 -50.1L-2 -115.05L-52 -90.1L-52 -57.7" />
<path style="fill:none;stroke-width:1;stroke-linecap:round;stroke-linejoin:round;stroke-miterlimit:3;stroke:#000000;stroke-opacity:1" d="M-53.8,-91.7L-51.7 -92.7L-8.75 -114.2L-6.95 -115.1L-0.1 -118.5L-2.35 -119.65L-8.95 -116.35L-53.7 -93.95L-55.95 -92.75L-53.95 -91.75L-53.8 -91.7L-54 -91.6L-53.95 -21.95L-53.85 -21.9L-51.7 -22.95L-6.95 -45.35L0.05 -48.85L0 -118.45L-0.1 -118.5M-37,-52L-17 -62M-46,-54.55Q-46 -54.05 -46.4 -53.5L-46.55 -53.3L-46.65 -53.15L-47.25 -52.7L-47.95 -52.6L-48.15 -52.65L-48.45 -53.15L-48.5 -53.35L-48.15 -54.4L-47.25 -55.2L-46.4 -55.25Q-46 -55.05 -46 -54.55M-46,-65.55L-52 -57.7L-52 -25.1L-1.95 -50.1L-2 -115.05L-52 -90.1L-52 -57.7M-51,-50.1L-49.75 -50.7L-48.75 -47.2L-48.75 -46.45M-48.75,-47.2L-51 -46.1M-49.4,-40.45L-47 -41.65M-49.4,-43.35L-47 -44.55M-53.85,-21.9L-53.95 -21.85L-53.95 -21.95L-55.95 -22.95L-55.95 -92.75M-41,-55L-23 -64" />
<path style="fill:none;stroke-width:1;stroke-linecap:round;stroke-linejoin:round;stroke-miterlimit:3;stroke:#000000;stroke-opacity:1" d="M-41,-39L-44 -49.5Q-43.1 -51.5 -42.9 -53.15Q-42.55 -55.75 -44 -57.5L-41 -66L-49 -57.1L-46 -65.55M-49.4,-43.35Q-50.8 -41.85 -49.4 -40.45M-34,-48.4L-12 -59.15" />
</g>
</svg>
