<?xml version="1.0" encoding="utf-8"?>
<svg version="1.1" id="Layer_1"
xmlns="http://www.w3.org/2000/svg"
xmlns:xlink="http://www.w3.org/1999/xlink"
xmlns:author="http://www.sothink.com"
width="69px" height="23px"
xml:space="preserve">
<g id="737" transform="matrix(1, 0, 0, 1, 34.6, 30)">
<path style="fill:#FFFFFF;fill-opacity:0.101961" d="M29.75,-28.4Q30.45 -29.8 31.75 -30Q32.75 -30.1 33.45 -29.6L34.2 -28.45L34.25 -27.95L32.5 -27.6L29.35 -26.9Q29.25 -27.4 29.75 -28.4M26.25,-25.7Q24.1 -24.75 22.25 -23.3Q21.7 -23.8 21.6 -24.75Q21.5 -25.35 21.85 -26.05Q22.35 -27.1 23.95 -27.3Q25.1 -27.5 25.8 -26.6L26.25 -25.7M18.9,-23.8Q20.55 -24.05 21.1 -22.35Q19.05 -20.7 17.35 -18.45L16.55 -17.45Q16.15 -17.8 15.95 -18.6Q13.85 -19 13.6 -20.8Q13.45 -21.35 13.65 -21.95Q14 -23.1 15.7 -23.35L17.3 -23.15Q17.95 -23.65 18.9 -23.8M13.65,-17.75Q14.9 -17.95 15.8 -17.35Q16.05 -17.15 16.3 -17.05Q12.35 -11.8 12.75 -9.05L13.05 -7.8Q10.95 -9.3 10.55 -11.95Q10.3 -13.3 10.55 -14.7Q11.1 -17.35 13.65 -17.75" />
<path style="fill:#FFFFFF;fill-opacity:0.101961" d="M-33.8,-29.6Q-33.1 -30.1 -32.1 -30Q-30.8 -29.8 -30.1 -28.4Q-29.6 -27.4 -29.7 -26.9L-32.85 -27.6L-34.6 -27.95L-34.55 -28.45L-33.8 -29.6M-26.15,-26.6Q-25.45 -27.5 -24.3 -27.3Q-22.7 -27.1 -22.2 -26.05Q-21.85 -25.35 -21.95 -24.75Q-22.05 -23.8 -22.6 -23.3L-26.6 -25.7L-26.15 -26.6M-13.95,-20.8Q-14.2 -19 -16.3 -18.6Q-16.5 -17.8 -16.9 -17.45L-17.7 -18.45Q-19.4 -20.7 -21.45 -22.35Q-20.9 -24.05 -19.25 -23.8Q-18.3 -23.65 -17.65 -23.15L-16.05 -23.35Q-14.35 -23.1 -14 -21.95Q-13.8 -21.35 -13.95 -20.8M-16.15,-17.35Q-15.25 -17.95 -14 -17.75Q-11.45 -17.35 -10.9 -14.7Q-10.65 -13.3 -10.9 -11.95Q-11.3 -9.3 -13.4 -7.8L-13.1 -9.05Q-12.7 -11.8 -16.65 -17.05L-16.15 -17.35" />
</g>
</svg>
