<?xml version="1.0" encoding="utf-8"?>
<svg version="1.1" id="Layer_1"
xmlns="http://www.w3.org/2000/svg"
xmlns:xlink="http://www.w3.org/1999/xlink"
xmlns:author="http://www.sothink.com"
width="49px" height="26px"
xml:space="preserve">
<g id="508" transform="matrix(1, 0, 0, 1, 34.3, 9.4)">
<path style="fill:#0099FF;fill-opacity:1" d="M10.65,13.85L11 13Q11.95 9.95 8.5 7.85L8.7 7.85L9.35 7.85L9.7 7.85L10 7.85L10.1 7.85L10.15 7.85L10.25 7.85L10.35 7.85L10.45 7.85L10.5 7.85L10.6 7.85L12.85 8.35Q14.45 9.05 13.7 10.85L13.65 10.95Q13.1 12.15 10.65 13.85L6.45 15.95Q-0.55 16.3 -0.5 13.85L3.7 11.75L10.65 13.85M4.15,10.55L4.5 9.7Q5.45 6.65 2 4.55L2.2 4.55L2.85 4.55L3.2 4.55L3.5 4.55L3.6 4.55L3.65 4.55L3.75 4.55L3.85 4.55L3.95 4.55L4 4.55L4.1 4.55Q8.4 4.85 7.15 7.65L6.7 8.35L4.7 10.2L4.15 10.55L-0.05 12.65Q-7.05 13 -7 10.55L-2.8 8.45L4.15 10.55" />
<linearGradient
id="LinearGradID_1986" gradientUnits="userSpaceOnUse" gradientTransform="matrix(0.000640869, 0.00234985, -0.00436401, 0.00119019, 0.85, 7.85)" spreadMethod ="pad" x1="-819.2" y1="0" x2="819.2" y2="0" >
<stop  offset="0" style="stop-color:#01060F;stop-opacity:1" />
<stop  offset="0.901961" style="stop-color:#2C7AC9;stop-opacity:1" />
</linearGradient>
<path style="fill:url(#LinearGradID_1986) " d="M-2.8,8.45Q-0.8 4.65 2 4.55Q5.45 6.65 4.5 9.7L4.15 10.55L-2.8 8.45" />
<linearGradient
id="LinearGradID_1987" gradientUnits="userSpaceOnUse" gradientTransform="matrix(0.00128174, 0.00222778, -0.00370789, 0.00213623, 7.7, 11.7)" spreadMethod ="pad" x1="-819.2" y1="0" x2="819.2" y2="0" >
<stop  offset="0" style="stop-color:#01060F;stop-opacity:1" />
<stop  offset="0.901961" style="stop-color:#2C7AC9;stop-opacity:1" />
</linearGradient>
<path style="fill:url(#LinearGradID_1987) " d="M6.7,8.35Q7.55 7.9 8.5 7.85Q11.95 9.95 11 13L10.65 13.85L3.7 11.75Q4.15 10.85 4.7 10.2L6.7 8.35" />
<path style="fill:none;stroke-width:1;stroke-linecap:round;stroke-linejoin:round;stroke-miterlimit:3;stroke:#00395F;stroke-opacity:1" d="M-7,10.55L-2.8 8.45Q-0.8 4.65 2 4.55L2.2 4.55L2.85 4.55L3.2 4.55L3.5 4.55L3.6 4.55L3.65 4.55L3.75 4.55L3.85 4.55L3.95 4.55L4 4.55L4.1 4.55Q8.4 4.85 7.15 7.65L6.7 8.35Q7.55 7.9 8.5 7.85L8.7 7.85L9.35 7.85L9.7 7.85L10 7.85L10.1 7.85L10.15 7.85L10.25 7.85L10.35 7.85L10.45 7.85L10.5 7.85L10.6 7.85L12.85 8.35Q14.45 9.05 13.7 10.85L13.65 10.95Q13.1 12.15 10.65 13.85M-0.5,13.85L3.7 11.75Q4.15 10.85 4.7 10.2L4.15 10.55L4.5 9.7Q5.45 6.65 2 4.55M8.5,7.85Q11.95 9.95 11 13L10.65 13.85M4.7,10.2L6.7 8.35" />
<path style="fill:none;stroke-width:1;stroke-linecap:round;stroke-linejoin:round;stroke-miterlimit:3;stroke:#091722;stroke-opacity:1" d="M10.65,13.85L6.45 15.95Q-0.55 16.3 -0.5 13.85M4.15,10.55L-0.05 12.65Q-7.05 13 -7 10.55" />
<path style="fill:none;stroke-width:1;stroke-linecap:round;stroke-linejoin:round;stroke-miterlimit:3;stroke:#3ABFFE;stroke-opacity:1" d="M10.9,8.85L11.65 8.95M4.3,5.5L5.15 5.65" />
<path style="fill:none;stroke-width:1;stroke-linecap:round;stroke-linejoin:round;stroke-miterlimit:3;stroke:#72D0FE;stroke-opacity:1" d="M-3.1,10.8L-5.8 10.8" />
<path style="fill:none;stroke-width:1;stroke-linecap:round;stroke-linejoin:round;stroke-miterlimit:3;stroke:#7AD3FE;stroke-opacity:1" d="M3.6,14.2L1.1 14.2" />
<path style="fill:#0099FF;fill-opacity:1" d="M-8.75,3.5L-9.3 3.85L-13.5 5.95Q-20.5 6.3 -20.45 3.85L-16.25 1.75L-9.3 3.85L-8.95 3Q-8 -0.05 -11.45 -2.15L-11.25 -2.15L-10.6 -2.15L-10.25 -2.15L-9.95 -2.15L-9.85 -2.15L-9.8 -2.15L-9.7 -2.15L-9.6 -2.15L-9.5 -2.15L-9.45 -2.15L-9.35 -2.15Q-5.05 -1.85 -6.3 0.95L-6.75 1.65L-8.75 3.5M-2.8,7.15L-2.45 6.3Q-1.5 3.25 -4.95 1.15L-4.75 1.15L-4.1 1.15L-3.75 1.15L-3.45 1.15L-3.35 1.15L-3.3 1.15L-3.2 1.15L-3.1 1.15L-3 1.15L-2.95 1.15L-2.85 1.15Q-1.4 1.25 -0.6 1.65Q1 2.35 0.25 4.15L0.2 4.25Q-0.35 5.45 -2.8 7.15L-7 9.25Q-14 9.6 -13.95 7.15L-9.75 5.05L-2.8 7.15" />
<linearGradient
id="LinearGradID_1988" gradientUnits="userSpaceOnUse" gradientTransform="matrix(0.00128174, 0.00222778, -0.00370789, 0.00213623, -5.75, 5)" spreadMethod ="pad" x1="-819.2" y1="0" x2="819.2" y2="0" >
<stop  offset="0" style="stop-color:#01060F;stop-opacity:1" />
<stop  offset="0.901961" style="stop-color:#2C7AC9;stop-opacity:1" />
</linearGradient>
<path style="fill:url(#LinearGradID_1988) " d="M-9.75,5.05L-8.75 3.5L-6.75 1.65Q-5.9 1.2 -4.95 1.15Q-1.5 3.25 -2.45 6.3L-2.8 7.15L-9.75 5.05" />
<linearGradient
id="LinearGradID_1989" gradientUnits="userSpaceOnUse" gradientTransform="matrix(0.000640869, 0.00234985, -0.00436401, 0.00119019, -12.6, 1.15)" spreadMethod ="pad" x1="-819.2" y1="0" x2="819.2" y2="0" >
<stop  offset="0" style="stop-color:#01060F;stop-opacity:1" />
<stop  offset="0.901961" style="stop-color:#2C7AC9;stop-opacity:1" />
</linearGradient>
<path style="fill:url(#LinearGradID_1989) " d="M-16.25,1.75Q-14.25 -2.05 -11.45 -2.15Q-8 -0.05 -8.95 3L-9.3 3.85L-16.25 1.75" />
<path style="fill:none;stroke-width:1;stroke-linecap:round;stroke-linejoin:round;stroke-miterlimit:3;stroke:#00395F;stroke-opacity:1" d="M-20.45,3.85L-16.25 1.75Q-14.25 -2.05 -11.45 -2.15L-11.25 -2.15L-10.6 -2.15L-10.25 -2.15L-9.95 -2.15L-9.85 -2.15L-9.8 -2.15L-9.7 -2.15L-9.6 -2.15L-9.5 -2.15L-9.45 -2.15L-9.35 -2.15Q-5.05 -1.85 -6.3 0.95L-6.75 1.65Q-5.9 1.2 -4.95 1.15L-4.75 1.15L-4.1 1.15L-3.75 1.15L-3.45 1.15L-3.35 1.15L-3.3 1.15L-3.2 1.15L-3.1 1.15L-3 1.15L-2.95 1.15L-2.85 1.15Q-1.4 1.25 -0.6 1.65Q1 2.35 0.25 4.15L0.2 4.25Q-0.35 5.45 -2.8 7.15M-13.95,7.15L-9.75 5.05L-8.75 3.5L-9.3 3.85M-11.45,-2.15Q-8 -0.05 -8.95 3L-9.3 3.85M-6.75,1.65L-8.75 3.5M-4.95,1.15Q-1.5 3.25 -2.45 6.3L-2.8 7.15" />
<path style="fill:none;stroke-width:1;stroke-linecap:round;stroke-linejoin:round;stroke-miterlimit:3;stroke:#3ABFFE;stroke-opacity:1" d="M-9.15,-1.2L-8.3 -1.05M-2.55,2.15L-1.8 2.25" />
<path style="fill:none;stroke-width:1;stroke-linecap:round;stroke-linejoin:round;stroke-miterlimit:3;stroke:#091722;stroke-opacity:1" d="M-2.8,7.15L-7 9.25Q-14 9.6 -13.95 7.15M-9.3,3.85L-13.5 5.95Q-20.5 6.3 -20.45 3.85" />
<path style="fill:none;stroke-width:1;stroke-linecap:round;stroke-linejoin:round;stroke-miterlimit:3;stroke:#7AD3FE;stroke-opacity:1" d="M-9.85,7.5L-12.35 7.5" />
<path style="fill:none;stroke-width:1;stroke-linecap:round;stroke-linejoin:round;stroke-miterlimit:3;stroke:#72D0FE;stroke-opacity:1" d="M-16.55,4.1L-19.25 4.1" />
<path style="fill:#0099FF;fill-opacity:1" d="M-22.1,-3.2L-22.65 -2.85L-26.85 -0.75Q-33.85 -0.4 -33.8 -2.85L-29.6 -4.95L-22.65 -2.85L-22.3 -3.7Q-21.35 -6.75 -24.8 -8.85L-24.6 -8.85L-23.95 -8.85L-23.6 -8.85L-23.3 -8.85L-23.2 -8.85L-23.15 -8.85L-23.05 -8.85L-22.95 -8.85L-22.85 -8.85L-22.8 -8.85L-22.7 -8.85Q-18.4 -8.55 -19.65 -5.75L-20.1 -5.05Q-20.75 -4.2 -22.1 -3.2M-16.15,0.45L-15.8 -0.4Q-14.85 -3.45 -18.3 -5.55L-18.1 -5.55L-17.45 -5.55L-17.1 -5.55L-16.8 -5.55L-16.7 -5.55L-16.65 -5.55L-16.55 -5.55L-16.45 -5.55L-16.35 -5.55L-16.3 -5.55L-16.2 -5.55L-13.95 -5.05Q-12.35 -4.35 -13.1 -2.55L-13.15 -2.45Q-13.7 -1.25 -16.15 0.45L-20.35 2.55Q-27.35 2.9 -27.3 0.45L-23.1 -1.65L-16.15 0.45" />
<linearGradient
id="LinearGradID_1990" gradientUnits="userSpaceOnUse" gradientTransform="matrix(0.00128174, 0.00222778, -0.00370789, 0.00213623, -19.1, -1.7)" spreadMethod ="pad" x1="-819.2" y1="0" x2="819.2" y2="0" >
<stop  offset="0" style="stop-color:#01060F;stop-opacity:1" />
<stop  offset="0.901961" style="stop-color:#2C7AC9;stop-opacity:1" />
</linearGradient>
<path style="fill:url(#LinearGradID_1990) " d="M-20.1,-5.05Q-19.25 -5.5 -18.3 -5.55Q-14.85 -3.45 -15.8 -0.4L-16.15 0.45L-23.1 -1.65L-22.1 -3.2Q-20.75 -4.2 -20.1 -5.05" />
<linearGradient
id="LinearGradID_1991" gradientUnits="userSpaceOnUse" gradientTransform="matrix(0.000640869, 0.00234985, -0.00436401, 0.00119019, -25.95, -5.55)" spreadMethod ="pad" x1="-819.2" y1="0" x2="819.2" y2="0" >
<stop  offset="0" style="stop-color:#01060F;stop-opacity:1" />
<stop  offset="0.901961" style="stop-color:#2C7AC9;stop-opacity:1" />
</linearGradient>
<path style="fill:url(#LinearGradID_1991) " d="M-29.6,-4.95Q-27.6 -8.75 -24.8 -8.85Q-21.35 -6.75 -22.3 -3.7L-22.65 -2.85L-29.6 -4.95" />
<path style="fill:none;stroke-width:1;stroke-linecap:round;stroke-linejoin:round;stroke-miterlimit:3;stroke:#00395F;stroke-opacity:1" d="M-33.8,-2.85L-29.6 -4.95Q-27.6 -8.75 -24.8 -8.85L-24.6 -8.85L-23.95 -8.85L-23.6 -8.85L-23.3 -8.85L-23.2 -8.85L-23.15 -8.85L-23.05 -8.85L-22.95 -8.85L-22.85 -8.85L-22.8 -8.85L-22.7 -8.85Q-18.4 -8.55 -19.65 -5.75L-20.1 -5.05Q-19.25 -5.5 -18.3 -5.55L-18.1 -5.55L-17.45 -5.55L-17.1 -5.55L-16.8 -5.55L-16.7 -5.55L-16.65 -5.55L-16.55 -5.55L-16.45 -5.55L-16.35 -5.55L-16.3 -5.55L-16.2 -5.55L-13.95 -5.05Q-12.35 -4.35 -13.1 -2.55L-13.15 -2.45Q-13.7 -1.25 -16.15 0.45M-27.3,0.45L-23.1 -1.65L-22.1 -3.2L-22.65 -2.85M-24.8,-8.85Q-21.35 -6.75 -22.3 -3.7L-22.65 -2.85M-18.3,-5.55Q-14.85 -3.45 -15.8 -0.4L-16.15 0.45M-20.1,-5.05Q-20.75 -4.2 -22.1 -3.2" />
<path style="fill:none;stroke-width:1;stroke-linecap:round;stroke-linejoin:round;stroke-miterlimit:3;stroke:#3ABFFE;stroke-opacity:1" d="M-22.5,-7.9L-21.65 -7.75M-15.9,-4.55L-15.15 -4.45" />
<path style="fill:none;stroke-width:1;stroke-linecap:round;stroke-linejoin:round;stroke-miterlimit:3;stroke:#091722;stroke-opacity:1" d="M-16.15,0.45L-20.35 2.55Q-27.35 2.9 -27.3 0.45M-22.65,-2.85L-26.85 -0.75Q-33.85 -0.4 -33.8 -2.85" />
<path style="fill:none;stroke-width:1;stroke-linecap:round;stroke-linejoin:round;stroke-miterlimit:3;stroke:#72D0FE;stroke-opacity:1" d="M-29.9,-2.6L-32.6 -2.6" />
<path style="fill:none;stroke-width:1;stroke-linecap:round;stroke-linejoin:round;stroke-miterlimit:3;stroke:#7AD3FE;stroke-opacity:1" d="M-23.2,0.8L-25.7 0.8" />
</g>
</svg>
