<?xml version="1.0" encoding="utf-8"?>
<svg version="1.1" id="Layer_1"
xmlns="http://www.w3.org/2000/svg"
xmlns:xlink="http://www.w3.org/1999/xlink"
xmlns:author="http://www.sothink.com"
width="28px" height="7px"
xml:space="preserve">
<g id="681" transform="matrix(1, 0, 0, 1, 13.25, 10.6)">
<path style="fill:#FFFFFF;fill-opacity:1" d="M12.75,-5.25L12.35 -5Q11 -7.3 9.05 -8.4L8.9 -8.5L8.35 -8.75L9.5 -8.85L11.25 -8.85L11.35 -8.8Q13.05 -8.45 13.85 -7.05L14.25 -6.1L13.7 -5.8L13.3 -5.4L12.75 -5.25M-0.95,-6.25L-1.3 -6.9Q-1.65 -8 -0.75 -8.95L-0.15 -10.15Q0.15 -10.55 0.65 -10.6Q0.45 -10.55 0.55 -10.3L0.45 -10.2L1.25 -6.65L0.75 -6.55L0.25 -6.35L-0.3 -6.35L-0.95 -6.25M-11.6,-5.1L-12.15 -5.1L-12.65 -5.4L-13.25 -5.6L-13.15 -6.7L-13 -7.25Q-12.5 -8.6 -11.15 -9.3L-9.45 -9.7L-8.3 -9.95L-8.8 -9.5L-8.9 -9.4L-9.9 -8.05Q-10.7 -6.75 -11.1 -4.95L-11.6 -5.1" />
<path style="fill:none;stroke-width:1;stroke-linecap:round;stroke-linejoin:round;stroke-miterlimit:3;stroke:#FFFFFF;stroke-opacity:1" d="M13.7,-5.8L13.3 -5.4L12.75 -5.25M-0.3,-6.35L0.25 -6.35L0.75 -6.55M-11.6,-5.1L-12.15 -5.1L-12.65 -5.4" />
</g>
</svg>
