<?xml version="1.0" encoding="utf-8"?>
<svg version="1.1" id="Layer_1"
xmlns="http://www.w3.org/2000/svg"
xmlns:xlink="http://www.w3.org/1999/xlink"
xmlns:author="http://www.sothink.com"
width="35px" height="28px"
xml:space="preserve">
<g id="157" transform="matrix(1, 0, 0, 1, 16.8, 21.5)">
<path style="fill:#666666;fill-opacity:1" d="M-8.05,-1.05L-14.05 0.95Q-15.85 0.6 -16.45 0Q-17.05 -0.65 -16.6 -1.3Q-16.15 -2 -14.9 -2.3L-12.85 -2.45L-10.3 -4L-15.75 -15L-15.4 -14.95L-15.3 -14.85L-10.75 -9.1L-10.8 -9.5L-2.55 -6.55L1.65 -7.7L3.4 -7.15L14 -11.15L-0.35 -19L-13.75 -13.5Q-14.1 -13.2 -14.25 -13.9L-14.2 -14.1L-1.6 -19.35L-1.15 -19.75L-1.1 -19.55Q3.15 -19.45 -1.1 -19.8L0.6 -21.5L13.3 -13.1L16.8 -14.8L16.95 -13.95L16.8 -14.25Q15.85 -12.75 17.1 -13.35L17.4 -11.75L10 -8.9L14.15 -2.5L14.75 -1.55L14.5 -1.45L14.65 -1.25L12.55 -0.65L12.15 -1.2L7.2 -7.8L3.75 -6.5L4.1 -5.8L4.1 -5.7Q3.25 -5.1 2.3 -4.8L-5 -2.15L-0.2 5.35L-2.45 6.3L-4.2 4.1L-8.05 -1.05M-4.65,-6.5L-10.15 -8.6L-10.35 -8.65L-7.75 -5.4L-4.65 -6.5M-5.95,-1.8L-5.85 -1.85L-5.85 -2.05L2.65 -5.45L-15.6 -1L-7.75 -1.4L-0.9 5.25L-5.95 -1.8" />
<radialGradient
id="RadialGradID_546" gradientUnits="userSpaceOnUse" gradientTransform="matrix(-0.00195313, 0, 0, 0.00195313, 17.35, -13.4)" spreadMethod ="pad" cx="0" cy="0" r="819.2" fx="0" fy="0" >
<stop  offset="0"  style="stop-color:#FAE6BE;stop-opacity:1" />
<stop  offset="0.498039"  style="stop-color:#D38A12;stop-opacity:1" />
<stop  offset="1"  style="stop-color:#F8E5BD;stop-opacity:1" />
<stop  offset="1"  style="stop-color:#D7D7D7;stop-opacity:1" />
</radialGradient>
<path style="fill:url(#RadialGradID_546) " d="M16.8,-14.25L16.95 -13.95L17.25 -13.45L17.1 -13.35Q15.85 -12.75 16.8 -14.25" />
<linearGradient
id="LinearGradID_547" gradientUnits="userSpaceOnUse" gradientTransform="matrix(-0.00299072, -0.00767517, -0.0075531, 0.00294495, 1.3, -12.6)" spreadMethod ="pad" x1="-819.2" y1="0" x2="819.2" y2="0" >
<stop  offset="0" style="stop-color:#FAB849;stop-opacity:1" />
<stop  offset="0.509804" style="stop-color:#FBEFAE;stop-opacity:1" />
<stop  offset="1" style="stop-color:#F8BC5A;stop-opacity:1" />
<stop  offset="1" style="stop-color:#F4B7B7;stop-opacity:1" />
</linearGradient>
<path style="fill:url(#LinearGradID_547) " d="M-13.75,-13.5L-0.35 -19L14 -11.15L3.4 -7.15L1.65 -7.7L-2.55 -6.55L-10.8 -9.5L-13.75 -13.5" />
<path style="fill:#000000;fill-opacity:0.211765" d="M-5,-2.15L2.3 -4.8L12.15 -1.2L12.55 -0.65L-0.2 5.35L-5 -2.15M-4.2,4.1L-14.05 0.95L-8.05 -1.05L-4.2 4.1" />
<radialGradient
id="RadialGradID_548" gradientUnits="userSpaceOnUse" gradientTransform="matrix(-0.00964355, 0, 0, 0.00964355, 10.4, -7.85)" spreadMethod ="pad" cx="0" cy="0" r="819.2" fx="0" fy="0" >
<stop  offset="0"  style="stop-color:#F0B05B;stop-opacity:1" />
<stop  offset="0.498039"  style="stop-color:#79420B;stop-opacity:1" />
<stop  offset="1"  style="stop-color:#EAB359;stop-opacity:1" />
<stop  offset="1"  style="stop-color:#D7D7D7;stop-opacity:1" />
</radialGradient>
<path style="fill:url(#RadialGradID_548) " d="M14.15,-2.5L14.9 -1.35L14.75 -1.55L14.15 -2.5" />
<radialGradient
id="RadialGradID_549" gradientUnits="userSpaceOnUse" gradientTransform="matrix(-0.00921631, 0, 0, 0.00921631, 10.2, -7.15)" spreadMethod ="pad" cx="0" cy="0" r="819.2" fx="0" fy="0" >
<stop  offset="0"  style="stop-color:#F0B05B;stop-opacity:1" />
<stop  offset="0.498039"  style="stop-color:#79420B;stop-opacity:1" />
<stop  offset="1"  style="stop-color:#EAB359;stop-opacity:1" />
<stop  offset="1"  style="stop-color:#D7D7D7;stop-opacity:1" />
</radialGradient>
<path style="fill:url(#RadialGradID_549) " d="M14.75,-1.55L14.9 -1.35L14.65 -1.25L14.5 -1.45L14.75 -1.55" />
<radialGradient
id="RadialGradID_550" gradientUnits="userSpaceOnUse" gradientTransform="matrix(-0.00457764, 0, 0, 0.00457764, 0.2, -20.3)" spreadMethod ="pad" cx="0" cy="0" r="819.2" fx="0" fy="0" >
<stop  offset="0"  style="stop-color:#FAE6BE;stop-opacity:1" />
<stop  offset="0.498039"  style="stop-color:#D38A12;stop-opacity:1" />
<stop  offset="1"  style="stop-color:#F8E5BD;stop-opacity:1" />
<stop  offset="1"  style="stop-color:#D7D7D7;stop-opacity:1" />
</radialGradient>
<path style="fill:url(#RadialGradID_550) " d="M-1.15,-19.75L-1.2 -19.8L-1.1 -19.8Q3.15 -19.45 -1.1 -19.55L-1.15 -19.75" />
<radialGradient
id="RadialGradID_551" gradientUnits="userSpaceOnUse" gradientTransform="matrix(-0.0116577, 0, 0, 0.0116577, -12.85, -11.75)" spreadMethod ="pad" cx="0" cy="0" r="819.2" fx="0" fy="0" >
<stop  offset="0"  style="stop-color:#F0B05B;stop-opacity:1" />
<stop  offset="0.498039"  style="stop-color:#79420B;stop-opacity:1" />
<stop  offset="1"  style="stop-color:#EAB359;stop-opacity:1" />
<stop  offset="1"  style="stop-color:#D7D7D7;stop-opacity:1" />
</radialGradient>
<path style="fill:url(#RadialGradID_551) " d="M-10.8,-9.5L-10.75 -9.1L-15.3 -14.85L-14.2 -14.1L-14.25 -13.9Q-14.1 -13.2 -13.75 -13.5L-10.8 -9.5M-7.75,-5.4L-10.35 -8.65L-10.15 -8.6L-7.75 -5.4" />
<radialGradient
id="RadialGradID_552" gradientUnits="userSpaceOnUse" gradientTransform="matrix(-0.00823975, 0, 0, 0.00823975, -4.25, -0.25)" spreadMethod ="pad" cx="0" cy="0" r="819.2" fx="0" fy="0" >
<stop  offset="0"  style="stop-color:#F0B05B;stop-opacity:1" />
<stop  offset="0.498039"  style="stop-color:#79420B;stop-opacity:1" />
<stop  offset="1"  style="stop-color:#EAB359;stop-opacity:1" />
<stop  offset="1"  style="stop-color:#D7D7D7;stop-opacity:1" />
</radialGradient>
<path style="fill:url(#RadialGradID_552) " d="M-5.85,-1.85L-5.95 -1.8L-6.1 -2L-5.85 -2.05L-5.85 -1.85" />
<radialGradient
id="RadialGradID_553" gradientUnits="userSpaceOnUse" gradientTransform="matrix(-0.0124512, 0, 0, 0.0124512, -6.05, -3.55)" spreadMethod ="pad" cx="0" cy="0" r="819.2" fx="0" fy="0" >
<stop  offset="0"  style="stop-color:#FAE6BE;stop-opacity:1" />
<stop  offset="0.498039"  style="stop-color:#D38A12;stop-opacity:1" />
<stop  offset="1"  style="stop-color:#F8E5BD;stop-opacity:1" />
<stop  offset="1"  style="stop-color:#D7D7D7;stop-opacity:1" />
</radialGradient>
<path style="fill:url(#RadialGradID_553) " d="M-7.75,-1.4L-15.6 -1L2.65 -5.45L-5.85 -2.05L-6.1 -2L-7.75 -1.4" />
<radialGradient
id="RadialGradID_554" gradientUnits="userSpaceOnUse" gradientTransform="matrix(-0.00964355, 0, 0, 0.00964355, -5.9, -0.3)" spreadMethod ="pad" cx="0" cy="0" r="819.2" fx="0" fy="0" >
<stop  offset="0"  style="stop-color:#FAE6BE;stop-opacity:1" />
<stop  offset="0.498039"  style="stop-color:#D38A12;stop-opacity:1" />
<stop  offset="1"  style="stop-color:#F8E5BD;stop-opacity:1" />
<stop  offset="1"  style="stop-color:#D7D7D7;stop-opacity:1" />
</radialGradient>
<path style="fill:url(#RadialGradID_554) " d="M-0.9,5.25L-7.75 -1.4L-6.1 -2L-5.95 -1.8L-0.9 5.25" />
<path style="fill:#0286C9;fill-opacity:0.223529" d="M16.8,-14.8L16.95 -13.95L17.25 -13.45L17.1 -13.35L17.4 -11.75L10 -8.9L14.9 -1.35L14.65 -1.25L12.55 -0.65L-2.45 6.3L-4.2 4.1L-14.05 0.95Q-15.85 0.6 -16.45 0Q-17.05 -0.65 -16.6 -1.3Q-16.15 -2 -14.9 -2.3L-12.85 -2.45L-10.3 -4L-15.75 -15L-15.4 -14.95L-15.3 -14.85L-14.2 -14.1L-1.6 -19.35L-1.15 -19.75L-1.2 -19.8L-1.1 -19.8L0.6 -21.5L13.3 -13.1L16.8 -14.8M3.75,-6.5L4.1 -5.8L4.1 -5.7Q3.25 -5.1 2.3 -4.8L12.15 -1.2L7.2 -7.8L3.75 -6.5M-4.65,-6.5L-10.15 -8.6L-7.75 -5.4L-4.65 -6.5" />
</g>
</svg>
