<?xml version="1.0" encoding="utf-8"?>
<svg version="1.1" id="Layer_1"
xmlns="http://www.w3.org/2000/svg"
xmlns:xlink="http://www.w3.org/1999/xlink"
xmlns:author="http://www.sothink.com"
width="42px" height="21px"
xml:space="preserve">
<g id="1031" transform="matrix(1, 0, 0, 1, 20.65, 10.4)">
<path style="fill:none;stroke-width:1;stroke-linecap:round;stroke-linejoin:round;stroke-miterlimit:3;stroke:#FFFFFF;stroke-opacity:1" d="M19.25,-9.05Q18.4 -9.9 17.15 -9.9L-17.15 -9.9Q-18.4 -9.9 -19.3 -9.05Q-20.15 -8.15 -20.15 -6.9L-20.15 6.9Q-20.15 8.15 -19.3 9Q-18.4 9.9 -17.15 9.9L17.15 9.9Q18.4 9.9 19.25 9Q20.15 8.15 20.15 6.9L20.15 -6.9Q20.15 -8.15 19.25 -9.05z" />
<radialGradient
id="RadialGradID_3152" gradientUnits="userSpaceOnUse" gradientTransform="matrix(0.0396729, 0, 0, 0.0171356, -0.55, 0.15)" spreadMethod ="pad" cx="0" cy="0" r="819.2" fx="0" fy="0" >
<stop  offset="0"  style="stop-color:#FFD2D2;stop-opacity:1" />
<stop  offset="0.0588235"  style="stop-color:#E40C0C;stop-opacity:0.941176" />
<stop  offset="0.313725"  style="stop-color:#E81111;stop-opacity:1" />
<stop  offset="0.647059"  style="stop-color:#FC2E2E;stop-opacity:0.541176" />
<stop  offset="1"  style="stop-color:#FFFFFF;stop-opacity:0" />
</radialGradient>
<path style="fill:url(#RadialGradID_3152) " d="M20.15,-6.9L20.15 6.9Q20.15 8.15 19.25 9Q18.4 9.9 17.15 9.9L-17.15 9.9Q-18.4 9.9 -19.3 9Q-20.15 8.15 -20.15 6.9L-20.15 -6.9Q-20.15 -8.15 -19.3 -9.05Q-18.4 -9.9 -17.15 -9.9L17.15 -9.9Q18.4 -9.9 19.25 -9.05Q20.15 -8.15 20.15 -6.9" />
</g>
</svg>
