<?xml version="1.0" encoding="utf-8"?>
<svg version="1.1" id="Layer_1"
xmlns="http://www.w3.org/2000/svg"
xmlns:xlink="http://www.w3.org/1999/xlink"
xmlns:author="http://www.sothink.com"
width="66px" height="58px"
xml:space="preserve">
<g id="362" transform="matrix(1, 0, 0, 1, 32.45, 28.55)">
<path style="fill:#FCFFC8;fill-opacity:1" d="M1.25,-16.65Q0.7 -16.2 0.05 -16.1L-0.2 -16.1Q-1.05 -16.1 -1.6 -16.65L-1.8 -16.8Q-2.2 -17.3 -2.2 -17.9Q-2.2 -18.7 -1.6 -19.2L-1.1 -19.55L-0.2 -19.75L0.55 -19.6L1.25 -19.2L1.6 -18.8L1.6 -18.75L1.8 -17.9Q1.8 -17.35 1.45 -16.85L1.25 -16.65M21.8,-1.1L21.55 -1.1Q20.7 -1.1 20.15 -1.65L19.95 -1.8Q19.55 -2.3 19.55 -2.9Q19.55 -3.7 20.15 -4.2L20.65 -4.55L21.55 -4.75L22.3 -4.6L23 -4.2L23.35 -3.8L23.35 -3.75L23.55 -2.9Q23.55 -2.35 23.2 -1.85L23 -1.65Q22.45 -1.2 21.8 -1.1M1.35,13.1Q0.8 13.55 0.15 13.65L-0.1 13.65Q-0.95 13.65 -1.5 13.1L-1.7 12.95Q-2.1 12.45 -2.1 11.85Q-2.1 11.05 -1.5 10.55Q-1.3 10.3 -1 10.2L-0.1 10L0.65 10.15Q1 10.25 1.35 10.55L1.7 10.95L1.7 11L1.9 11.85L1.55 12.9L1.35 13.1M-20.3,-1.6L-20.5 -1.4Q-21.05 -0.95 -21.7 -0.85L-21.95 -0.85Q-22.8 -0.85 -23.35 -1.4L-23.55 -1.55Q-23.95 -2.05 -23.95 -2.65Q-23.95 -3.45 -23.35 -3.95L-22.85 -4.3L-21.95 -4.5L-21.2 -4.35L-20.5 -3.95L-20.15 -3.55L-20.15 -3.5L-19.95 -2.65Q-19.95 -2.1 -20.3 -1.6" />
<linearGradient
id="LinearGradID_1437" gradientUnits="userSpaceOnUse" gradientTransform="matrix(-0.00378418, 0.00172424, -0.0017395, -0.00379944, 3.95, -22.2)" spreadMethod ="pad" x1="-819.2" y1="0" x2="819.2" y2="0" >
<stop  offset="0" style="stop-color:#FEF927;stop-opacity:1" />
<stop  offset="1" style="stop-color:#FEFEF5;stop-opacity:1" />
</linearGradient>
<path style="fill:url(#LinearGradID_1437) " d="M1.05,-21.95L1.1 -23.15Q2.15 -24.2 3.4 -24.8L7.25 -24.7Q7.95 -22.65 4.65 -20.15L4.05 -19.75Q2.8 -19.1 1.6 -18.8L1.25 -19.2L0.55 -19.6Q0.95 -20.45 1.05 -21.95" />
<linearGradient
id="LinearGradID_1438" gradientUnits="userSpaceOnUse" gradientTransform="matrix(0.000976563, 0.00561523, -0.00520325, 0.000900269, -1.2, -23.9)" spreadMethod ="pad" x1="-819.2" y1="0" x2="819.2" y2="0" >
<stop  offset="0" style="stop-color:#FEF927;stop-opacity:1" />
<stop  offset="1" style="stop-color:#FEFEF5;stop-opacity:1" />
</linearGradient>
<path style="fill:url(#LinearGradID_1438) " d="M-3.25,-21.65L-3.5 -23.45Q-3.5 -25.4 -2.9 -26.9L-2 -28.05L-1.15 -28.15L-0.25 -27.45L0.7 -25.7Q1.1 -24.45 1.1 -23.15L1.05 -21.95Q0.95 -20.45 0.55 -19.6L-0.2 -19.75L-1.1 -19.55Q-1.2 -20.6 -3.25 -21.65" />
<linearGradient
id="LinearGradID_1439" gradientUnits="userSpaceOnUse" gradientTransform="matrix(-0.00556946, -9.15527e-005, 4.57764e-005, -0.00283813, 6, -17.55)" spreadMethod ="pad" x1="-819.2" y1="0" x2="819.2" y2="0" >
<stop  offset="0" style="stop-color:#FEF927;stop-opacity:1" />
<stop  offset="1" style="stop-color:#FEFEF5;stop-opacity:1" />
</linearGradient>
<path style="fill:url(#LinearGradID_1439) " d="M4.05,-19.75L7.6 -19.55Q11.2 -18.8 10.4 -16.95Q9.6 -14.95 5.5 -15.25L4.4 -15.45L2.15 -16.3L1.45 -16.85Q1.8 -17.35 1.8 -17.9L1.6 -18.75L1.6 -18.8Q2.8 -19.1 4.05 -19.75" />
<linearGradient
id="LinearGradID_1440" gradientUnits="userSpaceOnUse" gradientTransform="matrix(-0.00221252, -0.00363159, 0.00404358, -0.00245667, 3.5, -13)" spreadMethod ="pad" x1="-819.2" y1="0" x2="819.2" y2="0" >
<stop  offset="0" style="stop-color:#FEF927;stop-opacity:1" />
<stop  offset="1" style="stop-color:#FEFEF5;stop-opacity:1" />
</linearGradient>
<path style="fill:url(#LinearGradID_1440) " d="M6.15,-13.1Q7.9 -9.85 6.05 -9.25Q3.95 -8.5 1.45 -11.8L1.4 -11.9L0.5 -13.7L0.45 -13.75L0.05 -15.05L0.05 -16.1Q0.7 -16.2 1.25 -16.65L1.45 -16.85L2.15 -16.3L4.4 -15.45L6.15 -13.1" />
<linearGradient
id="LinearGradID_1441" gradientUnits="userSpaceOnUse" gradientTransform="matrix(0.00164795, 0, 0, 0.0078125, 0.55, -7.3)" spreadMethod ="pad" x1="-819.2" y1="0" x2="819.2" y2="0" >
<stop  offset="0" style="stop-color:#60D101;stop-opacity:1" />
<stop  offset="0.521569" style="stop-color:#A9E969;stop-opacity:1" />
<stop  offset="1" style="stop-color:#68F40B;stop-opacity:1" />
</linearGradient>
<path style="fill:url(#LinearGradID_1441) " d="M1.35,-5L0.95 -4.6L0.1 -0.95L0 -0.9L-0.3 -1.8L-0.2 -11.7L0.45 -13.7L0.5 -13.7L1.4 -11.9L1.35 -5" />
<linearGradient
id="LinearGradID_1442" gradientUnits="userSpaceOnUse" gradientTransform="matrix(0.00157166, -0.00315857, 0.00473022, 0.00236511, -2.45, -12.45)" spreadMethod ="pad" x1="-819.2" y1="0" x2="819.2" y2="0" >
<stop  offset="0" style="stop-color:#FEF927;stop-opacity:1" />
<stop  offset="1" style="stop-color:#FEFEF5;stop-opacity:1" />
</linearGradient>
<path style="fill:url(#LinearGradID_1442) " d="M-1.1,-10.25Q-3.15 -7.15 -4.55 -8.55Q-6.15 -10.05 -4.35 -13.8L-4.05 -14.3L-2.15 -16.55L-1.8 -16.8L-1.6 -16.65Q-1.05 -16.1 -0.2 -16.1L0.05 -16.1L0.05 -15.05L0.45 -13.75L0.45 -13.7L-0.2 -11.7L-1.1 -10.25" />
<linearGradient
id="LinearGradID_1443" gradientUnits="userSpaceOnUse" gradientTransform="matrix(0.00233459, -0.00654602, 0.0037384, 0.00134277, 3.55, -4.35)" spreadMethod ="pad" x1="-819.2" y1="0" x2="819.2" y2="0" >
<stop  offset="0" style="stop-color:#60D101;stop-opacity:1" />
<stop  offset="0.521569" style="stop-color:#A9E969;stop-opacity:1" />
<stop  offset="1" style="stop-color:#68F40B;stop-opacity:1" />
</linearGradient>
<path style="fill:url(#LinearGradID_1443) " d="M0.1,-0.95L0.95 -4.6L1.35 -5Q3.05 -6.45 5.25 -7.05L6.8 -7.45L5.25 -5.95Q3.6 -3.85 2.35 -1.55L0.1 -0.95" />
<linearGradient
id="LinearGradID_1444" gradientUnits="userSpaceOnUse" gradientTransform="matrix(-0.00378418, 0.00172424, -0.0017395, -0.00379944, 4.05, 7.55)" spreadMethod ="pad" x1="-819.2" y1="0" x2="819.2" y2="0" >
<stop  offset="0" style="stop-color:#F4A6DA;stop-opacity:1" />
<stop  offset="1" style="stop-color:#FFFFFF;stop-opacity:1" />
</linearGradient>
<path style="fill:url(#LinearGradID_1444) " d="M3.5,4.95L7.35 5.05Q8.05 7.1 4.75 9.6L4.15 10L1.7 10.95L1.35 10.55Q1 10.25 0.65 10.15L1.15 7.8L1.2 6.6Q2.25 5.55 3.5 4.95" />
<linearGradient
id="LinearGradID_1445" gradientUnits="userSpaceOnUse" gradientTransform="matrix(0.000976563, 0.00561523, -0.00520325, 0.000900269, -1.1, 5.85)" spreadMethod ="pad" x1="-819.2" y1="0" x2="819.2" y2="0" >
<stop  offset="0" style="stop-color:#F4A6DA;stop-opacity:1" />
<stop  offset="1" style="stop-color:#FFFFFF;stop-opacity:1" />
</linearGradient>
<path style="fill:url(#LinearGradID_1445) " d="M-3.15,8.1L-3.4 6.3Q-3.4 4.35 -2.8 2.85L-1.9 1.7L-1.05 1.6Q-0.6 1.8 -0.15 2.3Q0.4 3 0.8 4.05Q1.2 5.3 1.2 6.6L1.15 7.8L0.65 10.15L-0.1 10L-1 10.2Q-1.1 9.15 -3.15 8.1" />
<linearGradient
id="LinearGradID_1446" gradientUnits="userSpaceOnUse" gradientTransform="matrix(-0.00556946, -9.15527e-005, 4.57764e-005, -0.00283813, 6.1, 12.2)" spreadMethod ="pad" x1="-819.2" y1="0" x2="819.2" y2="0" >
<stop  offset="0" style="stop-color:#F4A6DA;stop-opacity:1" />
<stop  offset="1" style="stop-color:#FFFFFF;stop-opacity:1" />
</linearGradient>
<path style="fill:url(#LinearGradID_1446) " d="M4.15,10L7.7 10.2Q11.3 10.95 10.5 12.8Q9.7 14.8 5.6 14.5L4.5 14.3L2.25 13.45L1.55 12.9L1.9 11.85L1.7 11L1.7 10.95L4.15 10" />
<linearGradient
id="LinearGradID_1447" gradientUnits="userSpaceOnUse" gradientTransform="matrix(-0.00221252, -0.00363159, 0.00404358, -0.00245667, 3.6, 16.75)" spreadMethod ="pad" x1="-819.2" y1="0" x2="819.2" y2="0" >
<stop  offset="0" style="stop-color:#F4A6DA;stop-opacity:1" />
<stop  offset="1" style="stop-color:#FFFFFF;stop-opacity:1" />
</linearGradient>
<path style="fill:url(#LinearGradID_1447) " d="M6.25,16.65Q8 19.9 6.15 20.5Q4.05 21.25 1.55 17.95L1.5 17.85L0.6 16.05L0.55 16L0.15 14.7L0.15 13.65Q0.8 13.55 1.35 13.1L1.55 12.9L2.25 13.45L4.5 14.3Q5.55 15.35 6.25 16.65" />
<linearGradient
id="LinearGradID_1448" gradientUnits="userSpaceOnUse" gradientTransform="matrix(0.00157166, -0.00315857, 0.00473022, 0.00236511, -2.35, 17.3)" spreadMethod ="pad" x1="-819.2" y1="0" x2="819.2" y2="0" >
<stop  offset="0" style="stop-color:#F4A6DA;stop-opacity:1" />
<stop  offset="1" style="stop-color:#FFFFFF;stop-opacity:1" />
</linearGradient>
<path style="fill:url(#LinearGradID_1448) " d="M-3.95,15.45L-2.05 13.2L-1.7 12.95L-1.5 13.1Q-0.95 13.65 -0.1 13.65L0.15 13.65L0.15 14.7L0.55 16L0.55 16.05L-0.1 18.05L-1 19.5Q-3.05 22.6 -4.45 21.2Q-6.05 19.7 -4.25 15.95L-3.95 15.45" />
<linearGradient
id="LinearGradID_1449" gradientUnits="userSpaceOnUse" gradientTransform="matrix(0.00164795, 0, 0, 0.0078125, 0.65, 22.45)" spreadMethod ="pad" x1="-819.2" y1="0" x2="819.2" y2="0" >
<stop  offset="0" style="stop-color:#60D101;stop-opacity:1" />
<stop  offset="0.521569" style="stop-color:#A9E969;stop-opacity:1" />
<stop  offset="1" style="stop-color:#68F40B;stop-opacity:1" />
</linearGradient>
<path style="fill:url(#LinearGradID_1449) " d="M1.45,24.75L1.05 25.15L0.2 28.8L0.1 28.85L-0.2 27.95L-0.1 18.05L0.55 16.05L0.6 16.05L1.5 17.85L1.45 24.75" />
<linearGradient
id="LinearGradID_1450" gradientUnits="userSpaceOnUse" gradientTransform="matrix(0.00233459, -0.00654602, 0.0037384, 0.00134277, 3.65, 25.4)" spreadMethod ="pad" x1="-819.2" y1="0" x2="819.2" y2="0" >
<stop  offset="0" style="stop-color:#60D101;stop-opacity:1" />
<stop  offset="0.521569" style="stop-color:#A9E969;stop-opacity:1" />
<stop  offset="1" style="stop-color:#68F40B;stop-opacity:1" />
</linearGradient>
<path style="fill:url(#LinearGradID_1450) " d="M0.2,28.8L1.05 25.15L1.45 24.75Q3.15 23.3 5.35 22.7L6.9 22.3L5.35 23.8Q3.7 25.9 2.45 28.2L0.2 28.8" />
<linearGradient
id="LinearGradID_1451" gradientUnits="userSpaceOnUse" gradientTransform="matrix(0.00540161, 0.00164795, -0.000930786, 0.00305176, -5.75, -20.2)" spreadMethod ="pad" x1="-819.2" y1="0" x2="819.2" y2="0" >
<stop  offset="0" style="stop-color:#FEF927;stop-opacity:1" />
<stop  offset="1" style="stop-color:#FEFEF5;stop-opacity:1" />
</linearGradient>
<path style="fill:url(#LinearGradID_1451) " d="M-6.6,-18.05L-6.85 -18.15Q-8.45 -18.85 -9.6 -19.85L-10.35 -21.1L-10.15 -21.95L-9.15 -22.55L-7.15 -22.8Q-5.25 -22.7 -3.55 -21.8L-3.25 -21.65Q-1.2 -20.6 -1.1 -19.55L-1.6 -19.2Q-2.2 -18.7 -2.2 -17.9L-6.6 -18.05" />
<linearGradient
id="LinearGradID_1452" gradientUnits="userSpaceOnUse" gradientTransform="matrix(0.00498962, -0.00112915, 0.000656128, 0.00288391, -6, -15.75)" spreadMethod ="pad" x1="-819.2" y1="0" x2="819.2" y2="0" >
<stop  offset="0" style="stop-color:#FEF927;stop-opacity:1" />
<stop  offset="1" style="stop-color:#FEFEF5;stop-opacity:1" />
</linearGradient>
<path style="fill:url(#LinearGradID_1452) " d="M-6.85,-18.15L-6.6 -18.05L-2.2 -17.9Q-2.2 -17.3 -1.8 -16.8L-2.15 -16.55L-4.05 -14.3Q-5.25 -13.75 -6.5 -13.55Q-10.15 -12.8 -10.15 -14.75Q-10.25 -16.8 -6.85 -18.15" />
<linearGradient
id="LinearGradID_1453" gradientUnits="userSpaceOnUse" gradientTransform="matrix(-0.00163269, -0.00535583, 0.00331116, -0.00100708, -3.6, -3.65)" spreadMethod ="pad" x1="-819.2" y1="0" x2="819.2" y2="0" >
<stop  offset="0" style="stop-color:#60D101;stop-opacity:1" />
<stop  offset="0.521569" style="stop-color:#A9E969;stop-opacity:1" />
<stop  offset="1" style="stop-color:#68F40B;stop-opacity:1" />
</linearGradient>
<path style="fill:url(#LinearGradID_1453) " d="M-0.1,-0.85L-2.75 -1.55L-3.65 -2.95Q-5.05 -5.1 -7.2 -6.5L-4.4 -5.75L-3 -5.05Q-1.15 -3.95 -0.3 -1.8L0 -0.9L-0.1 -0.85" />
<linearGradient
id="LinearGradID_1454" gradientUnits="userSpaceOnUse" gradientTransform="matrix(0.00540161, 0.00164795, -0.000930786, 0.00305176, -5.65, 9.55)" spreadMethod ="pad" x1="-819.2" y1="0" x2="819.2" y2="0" >
<stop  offset="0" style="stop-color:#F4A6DA;stop-opacity:1" />
<stop  offset="1" style="stop-color:#FFFFFF;stop-opacity:1" />
</linearGradient>
<path style="fill:url(#LinearGradID_1454) " d="M-3.15,8.1Q-1.1 9.15 -1 10.2Q-1.3 10.3 -1.5 10.55Q-2.1 11.05 -2.1 11.85L-6.5 11.7L-6.75 11.6L-9.5 9.9L-10.25 8.65L-10.05 7.8Q-9.7 7.45 -9.05 7.2L-7.05 6.95Q-5.15 7.05 -3.45 7.95L-3.15 8.1" />
<linearGradient
id="LinearGradID_1455" gradientUnits="userSpaceOnUse" gradientTransform="matrix(0.00498962, -0.00112915, 0.000656128, 0.00288391, -5.9, 14)" spreadMethod ="pad" x1="-819.2" y1="0" x2="819.2" y2="0" >
<stop  offset="0" style="stop-color:#F4A6DA;stop-opacity:1" />
<stop  offset="1" style="stop-color:#FFFFFF;stop-opacity:1" />
</linearGradient>
<path style="fill:url(#LinearGradID_1455) " d="M-2.05,13.2L-3.95 15.45L-6.4 16.2Q-10.05 16.95 -10.05 15Q-10.15 12.95 -6.75 11.6L-6.5 11.7L-2.1 11.85Q-2.1 12.45 -1.7 12.95L-2.05 13.2" />
<linearGradient
id="LinearGradID_1456" gradientUnits="userSpaceOnUse" gradientTransform="matrix(-0.00163269, -0.00535583, 0.00331116, -0.00100708, -3.5, 26.1)" spreadMethod ="pad" x1="-819.2" y1="0" x2="819.2" y2="0" >
<stop  offset="0" style="stop-color:#60D101;stop-opacity:1" />
<stop  offset="0.521569" style="stop-color:#A9E969;stop-opacity:1" />
<stop  offset="1" style="stop-color:#68F40B;stop-opacity:1" />
</linearGradient>
<path style="fill:url(#LinearGradID_1456) " d="M0,28.9L-2.65 28.2L-3.55 26.8Q-4.95 24.65 -7.1 23.25L-4.3 24L-2.9 24.7Q-1.05 25.8 -0.2 27.95L0.1 28.85L0 28.9" />
<linearGradient
id="LinearGradID_1457" gradientUnits="userSpaceOnUse" gradientTransform="matrix(0.000976563, 0.00561523, -0.00520325, 0.000900269, 20.55, -8.9)" spreadMethod ="pad" x1="-819.2" y1="0" x2="819.2" y2="0" >
<stop  offset="0" style="stop-color:#FF2222;stop-opacity:1" />
<stop  offset="1" style="stop-color:#FFF4F4;stop-opacity:1" />
</linearGradient>
<path style="fill:url(#LinearGradID_1457) " d="M22.8,-6.95Q22.7 -5.45 22.3 -4.6L21.55 -4.75L20.65 -4.55Q20.55 -5.6 18.5 -6.65Q18.3 -7.45 18.25 -8.45Q18.25 -10.4 18.85 -11.9Q19.15 -12.7 19.75 -13.05L20.6 -13.15L21.5 -12.45L22.45 -10.7Q22.85 -9.45 22.85 -8.15L22.8 -6.95" />
<linearGradient
id="LinearGradID_1458" gradientUnits="userSpaceOnUse" gradientTransform="matrix(0.00540161, 0.00164795, -0.000930786, 0.00305176, 16, -5.2)" spreadMethod ="pad" x1="-819.2" y1="0" x2="819.2" y2="0" >
<stop  offset="0" style="stop-color:#FF2222;stop-opacity:1" />
<stop  offset="1" style="stop-color:#FFF4F4;stop-opacity:1" />
</linearGradient>
<path style="fill:url(#LinearGradID_1458) " d="M20.15,-4.2Q19.55 -3.7 19.55 -2.9L15.15 -3.05L14.9 -3.15Q13.3 -3.85 12.15 -4.85Q11.55 -5.45 11.4 -6.1Q11.35 -6.6 11.6 -6.95L12.6 -7.55L14.6 -7.8Q16.5 -7.7 18.2 -6.8L18.5 -6.65Q20.55 -5.6 20.65 -4.55L20.15 -4.2" />
<linearGradient
id="LinearGradID_1459" gradientUnits="userSpaceOnUse" gradientTransform="matrix(0.00498962, -0.00112915, 0.000656128, 0.00288391, 15.75, -0.75)" spreadMethod ="pad" x1="-819.2" y1="0" x2="819.2" y2="0" >
<stop  offset="0" style="stop-color:#FF2222;stop-opacity:1" />
<stop  offset="1" style="stop-color:#FFF4F4;stop-opacity:1" />
</linearGradient>
<path style="fill:url(#LinearGradID_1459) " d="M19.95,-1.8L19.6 -1.55Q18.5 -0.65 17.7 0.7L15.25 1.45Q11.6 2.2 11.6 0.25Q11.5 -1.8 14.9 -3.15L15.15 -3.05L19.55 -2.9Q19.55 -2.3 19.95 -1.8" />
<linearGradient
id="LinearGradID_1460" gradientUnits="userSpaceOnUse" gradientTransform="matrix(0.00157166, -0.00315857, 0.00473022, 0.00236511, 19.3, 2.55)" spreadMethod ="pad" x1="-819.2" y1="0" x2="819.2" y2="0" >
<stop  offset="0" style="stop-color:#FF2222;stop-opacity:1" />
<stop  offset="1" style="stop-color:#FFF4F4;stop-opacity:1" />
</linearGradient>
<path style="fill:url(#LinearGradID_1460) " d="M22.2,1.3L21.55 3.3L20.65 4.75Q18.6 7.85 17.2 6.45Q15.6 4.95 17.4 1.2L17.7 0.7Q18.5 -0.65 19.6 -1.55L19.95 -1.8L20.15 -1.65Q20.7 -1.1 21.55 -1.1L21.8 -1.1L21.8 -0.05L22.2 1.25L22.2 1.3" />
<linearGradient
id="LinearGradID_1461" gradientUnits="userSpaceOnUse" gradientTransform="matrix(-0.00378418, 0.00172424, -0.0017395, -0.00379944, 25.7, -7.2)" spreadMethod ="pad" x1="-819.2" y1="0" x2="819.2" y2="0" >
<stop  offset="0" style="stop-color:#FF2222;stop-opacity:1" />
<stop  offset="1" style="stop-color:#FFF4F4;stop-opacity:1" />
</linearGradient>
<path style="fill:url(#LinearGradID_1461) " d="M23.35,-3.8L23 -4.2L22.3 -4.6Q22.7 -5.45 22.8 -6.95L22.85 -8.15L25.15 -9.8L29 -9.7Q29.7 -7.65 26.4 -5.15L25.8 -4.75Q24.55 -4.1 23.35 -3.8" />
<linearGradient
id="LinearGradID_1462" gradientUnits="userSpaceOnUse" gradientTransform="matrix(-0.00556946, -9.15527e-005, 4.57764e-005, -0.00283813, 27.75, -2.55)" spreadMethod ="pad" x1="-819.2" y1="0" x2="819.2" y2="0" >
<stop  offset="0" style="stop-color:#FF2222;stop-opacity:1" />
<stop  offset="1" style="stop-color:#FFF4F4;stop-opacity:1" />
</linearGradient>
<path style="fill:url(#LinearGradID_1462) " d="M23.9,-1.3L23.2 -1.85Q23.55 -2.35 23.55 -2.9L23.35 -3.75L23.35 -3.8Q24.55 -4.1 25.8 -4.75L29.35 -4.55Q32.95 -3.8 32.15 -1.95Q31.35 0.05 27.25 -0.25L26.15 -0.45Q24.9 -0.8 23.9 -1.3" />
<linearGradient
id="LinearGradID_1463" gradientUnits="userSpaceOnUse" gradientTransform="matrix(-0.00221252, -0.00363159, 0.00404358, -0.00245667, 25.25, 2)" spreadMethod ="pad" x1="-819.2" y1="0" x2="819.2" y2="0" >
<stop  offset="0" style="stop-color:#FF2222;stop-opacity:1" />
<stop  offset="1" style="stop-color:#FFF4F4;stop-opacity:1" />
</linearGradient>
<path style="fill:url(#LinearGradID_1463) " d="M23,-1.65L23.2 -1.85L23.9 -1.3Q24.9 -0.8 26.15 -0.45Q27.2 0.6 27.9 1.9Q29.65 5.15 27.8 5.75Q25.7 6.5 23.2 3.2L23.15 3.1L22.25 1.3L22.2 1.25L21.8 -0.05L21.8 -1.1Q22.45 -1.2 23 -1.65" />
<linearGradient
id="LinearGradID_1464" gradientUnits="userSpaceOnUse" gradientTransform="matrix(0.00164795, 0, 0, 0.0078125, 22.3, 7.7)" spreadMethod ="pad" x1="-819.2" y1="0" x2="819.2" y2="0" >
<stop  offset="0" style="stop-color:#60D101;stop-opacity:1" />
<stop  offset="0.521569" style="stop-color:#A9E969;stop-opacity:1" />
<stop  offset="1" style="stop-color:#68F40B;stop-opacity:1" />
</linearGradient>
<path style="fill:url(#LinearGradID_1464) " d="M21.45,13.2L21.55 3.3L22.2 1.3L22.25 1.3L23.15 3.1L23.1 10L22.7 10.4L21.85 14.05L21.75 14.1L21.45 13.2" />
<linearGradient
id="LinearGradID_1465" gradientUnits="userSpaceOnUse" gradientTransform="matrix(0.00233459, -0.00654602, 0.0037384, 0.00134277, 25.3, 10.65)" spreadMethod ="pad" x1="-819.2" y1="0" x2="819.2" y2="0" >
<stop  offset="0" style="stop-color:#60D101;stop-opacity:1" />
<stop  offset="0.521569" style="stop-color:#A9E969;stop-opacity:1" />
<stop  offset="1" style="stop-color:#68F40B;stop-opacity:1" />
</linearGradient>
<path style="fill:url(#LinearGradID_1465) " d="M23.1,10Q24.8 8.55 27 7.95L28.55 7.55Q27.65 8.2 27 9.05L24.1 13.45L21.85 14.05L22.7 10.4L23.1 10" />
<linearGradient
id="LinearGradID_1466" gradientUnits="userSpaceOnUse" gradientTransform="matrix(-0.00163269, -0.00535583, 0.00331116, -0.00100708, 18.15, 11.35)" spreadMethod ="pad" x1="-819.2" y1="0" x2="819.2" y2="0" >
<stop  offset="0" style="stop-color:#60D101;stop-opacity:1" />
<stop  offset="0.521569" style="stop-color:#A9E969;stop-opacity:1" />
<stop  offset="1" style="stop-color:#68F40B;stop-opacity:1" />
</linearGradient>
<path style="fill:url(#LinearGradID_1466) " d="M21.75,14.1L21.65 14.15L19 13.45L18.1 12.05Q16.7 9.9 14.55 8.5L17.35 9.25L18.75 9.95Q20.6 11.05 21.45 13.2L21.75 14.1" />
<linearGradient
id="LinearGradID_1467" gradientUnits="userSpaceOnUse" gradientTransform="matrix(0.000976563, 0.00561523, -0.00520325, 0.000900269, -22.95, -8.65)" spreadMethod ="pad" x1="-819.2" y1="0" x2="819.2" y2="0" >
<stop  offset="0" style="stop-color:#3D00F4;stop-opacity:1" />
<stop  offset="1" style="stop-color:#D1C8FB;stop-opacity:1" />
</linearGradient>
<path style="fill:url(#LinearGradID_1467) " d="M-20.7,-6.7Q-20.8 -5.2 -21.2 -4.35L-21.95 -4.5L-22.85 -4.3Q-22.95 -5.35 -25 -6.4L-25.25 -8.2Q-25.25 -10.15 -24.65 -11.65L-23.75 -12.8L-22.9 -12.9L-22 -12.2Q-21.45 -11.5 -21.05 -10.45Q-20.65 -9.2 -20.65 -7.9L-20.7 -6.7" />
<linearGradient
id="LinearGradID_1468" gradientUnits="userSpaceOnUse" gradientTransform="matrix(0.00540161, 0.00164795, -0.000930786, 0.00305176, -27.5, -4.95)" spreadMethod ="pad" x1="-819.2" y1="0" x2="819.2" y2="0" >
<stop  offset="0" style="stop-color:#3D00F4;stop-opacity:1" />
<stop  offset="1" style="stop-color:#D1C8FB;stop-opacity:1" />
</linearGradient>
<path style="fill:url(#LinearGradID_1468) " d="M-23.35,-3.95Q-23.95 -3.45 -23.95 -2.65L-28.35 -2.8L-28.6 -2.9L-31.35 -4.6L-32.1 -5.85L-31.9 -6.7L-30.9 -7.3L-28.9 -7.55Q-27 -7.45 -25.3 -6.55L-25 -6.4Q-22.95 -5.35 -22.85 -4.3L-23.35 -3.95" />
<linearGradient
id="LinearGradID_1469" gradientUnits="userSpaceOnUse" gradientTransform="matrix(-0.00378418, 0.00172424, -0.0017395, -0.00379944, -17.8, -6.95)" spreadMethod ="pad" x1="-819.2" y1="0" x2="819.2" y2="0" >
<stop  offset="0" style="stop-color:#3D00F4;stop-opacity:1" />
<stop  offset="1" style="stop-color:#D1C8FB;stop-opacity:1" />
</linearGradient>
<path style="fill:url(#LinearGradID_1469) " d="M-20.15,-3.55L-20.5 -3.95L-21.2 -4.35Q-20.8 -5.2 -20.7 -6.7L-20.65 -7.9L-18.35 -9.55L-14.5 -9.45Q-13.8 -7.4 -17.1 -4.9L-17.7 -4.5Q-18.95 -3.85 -20.15 -3.55" />
<linearGradient
id="LinearGradID_1470" gradientUnits="userSpaceOnUse" gradientTransform="matrix(0.00498962, -0.00112915, 0.000656128, 0.00288391, -27.75, -0.5)" spreadMethod ="pad" x1="-819.2" y1="0" x2="819.2" y2="0" >
<stop  offset="0" style="stop-color:#3D00F4;stop-opacity:1" />
<stop  offset="1" style="stop-color:#D1C8FB;stop-opacity:1" />
</linearGradient>
<path style="fill:url(#LinearGradID_1470) " d="M-23.55,-1.55L-23.9 -1.3L-25.8 0.95L-28.25 1.7Q-31.9 2.45 -31.9 0.5Q-32 -1.55 -28.6 -2.9L-28.35 -2.8L-23.95 -2.65Q-23.95 -2.05 -23.55 -1.55" />
<linearGradient
id="LinearGradID_1471" gradientUnits="userSpaceOnUse" gradientTransform="matrix(0.00157166, -0.00315857, 0.00473022, 0.00236511, -24.2, 2.8)" spreadMethod ="pad" x1="-819.2" y1="0" x2="819.2" y2="0" >
<stop  offset="0" style="stop-color:#3D00F4;stop-opacity:1" />
<stop  offset="1" style="stop-color:#D1C8FB;stop-opacity:1" />
</linearGradient>
<path style="fill:url(#LinearGradID_1471) " d="M-21.3,1.55L-21.95 3.55L-22.85 5Q-24.9 8.1 -26.3 6.7Q-27.9 5.2 -26.1 1.45L-25.8 0.95L-23.9 -1.3L-23.55 -1.55L-23.35 -1.4Q-22.8 -0.85 -21.95 -0.85L-21.7 -0.85L-21.7 0.2L-21.3 1.5L-21.3 1.55" />
<linearGradient
id="LinearGradID_1472" gradientUnits="userSpaceOnUse" gradientTransform="matrix(-0.00221252, -0.00363159, 0.00404358, -0.00245667, -18.25, 2.25)" spreadMethod ="pad" x1="-819.2" y1="0" x2="819.2" y2="0" >
<stop  offset="0" style="stop-color:#3D00F4;stop-opacity:1" />
<stop  offset="1" style="stop-color:#D1C8FB;stop-opacity:1" />
</linearGradient>
<path style="fill:url(#LinearGradID_1472) " d="M-17.35,-0.2Q-16.3 0.85 -15.6 2.15Q-13.85 5.4 -15.7 6Q-17.8 6.75 -20.3 3.45L-20.35 3.35L-21.25 1.55L-21.3 1.5L-21.7 0.2L-21.7 -0.85Q-21.05 -0.95 -20.5 -1.4L-20.3 -1.6L-19.6 -1.05Q-18.6 -0.55 -17.35 -0.2" />
<linearGradient
id="LinearGradID_1473" gradientUnits="userSpaceOnUse" gradientTransform="matrix(-0.00556946, -9.15527e-005, 4.57764e-005, -0.00283813, -15.75, -2.3)" spreadMethod ="pad" x1="-819.2" y1="0" x2="819.2" y2="0" >
<stop  offset="0" style="stop-color:#3D00F4;stop-opacity:1" />
<stop  offset="1" style="stop-color:#D1C8FB;stop-opacity:1" />
</linearGradient>
<path style="fill:url(#LinearGradID_1473) " d="M-19.6,-1.05L-20.3 -1.6Q-19.95 -2.1 -19.95 -2.65L-20.15 -3.5L-20.15 -3.55Q-18.95 -3.85 -17.7 -4.5L-14.15 -4.3Q-10.55 -3.55 -11.35 -1.7Q-12.15 0.3 -16.25 0L-17.35 -0.2Q-18.6 -0.55 -19.6 -1.05" />
<linearGradient
id="LinearGradID_1474" gradientUnits="userSpaceOnUse" gradientTransform="matrix(0.00233459, -0.00654602, 0.0037384, 0.00134277, -18.2, 10.9)" spreadMethod ="pad" x1="-819.2" y1="0" x2="819.2" y2="0" >
<stop  offset="0" style="stop-color:#60D101;stop-opacity:1" />
<stop  offset="0.521569" style="stop-color:#A9E969;stop-opacity:1" />
<stop  offset="1" style="stop-color:#68F40B;stop-opacity:1" />
</linearGradient>
<path style="fill:url(#LinearGradID_1474) " d="M-20.4,10.25Q-18.7 8.8 -16.5 8.2L-14.95 7.8Q-15.85 8.45 -16.5 9.3Q-18.15 11.4 -19.4 13.7L-21.65 14.3L-20.8 10.65L-20.4 10.25" />
<linearGradient
id="LinearGradID_1475" gradientUnits="userSpaceOnUse" gradientTransform="matrix(0.00164795, 0, 0, 0.0078125, -21.2, 7.95)" spreadMethod ="pad" x1="-819.2" y1="0" x2="819.2" y2="0" >
<stop  offset="0" style="stop-color:#60D101;stop-opacity:1" />
<stop  offset="0.521569" style="stop-color:#A9E969;stop-opacity:1" />
<stop  offset="1" style="stop-color:#68F40B;stop-opacity:1" />
</linearGradient>
<path style="fill:url(#LinearGradID_1475) " d="M-21.75,14.35L-22.05 13.45L-21.95 3.55L-21.3 1.55L-21.25 1.55L-20.35 3.35L-20.4 10.25L-20.8 10.65L-21.65 14.3L-21.75 14.35" />
<linearGradient
id="LinearGradID_1476" gradientUnits="userSpaceOnUse" gradientTransform="matrix(-0.00163269, -0.00535583, 0.00331116, -0.00100708, -25.35, 11.6)" spreadMethod ="pad" x1="-819.2" y1="0" x2="819.2" y2="0" >
<stop  offset="0" style="stop-color:#60D101;stop-opacity:1" />
<stop  offset="0.521569" style="stop-color:#A9E969;stop-opacity:1" />
<stop  offset="1" style="stop-color:#68F40B;stop-opacity:1" />
</linearGradient>
<path style="fill:url(#LinearGradID_1476) " d="M-21.85,14.4L-24.5 13.7L-25.4 12.3Q-26.8 10.15 -28.95 8.75L-26.15 9.5L-24.75 10.2Q-22.9 11.3 -22.05 13.45L-21.75 14.35L-21.85 14.4" />
<path style="fill:none;stroke-width:0.75;stroke-linecap:round;stroke-linejoin:round;stroke-miterlimit:3;stroke:#666666;stroke-opacity:1" d="M1.45,-16.85L2.15 -16.3L4.4 -15.45L5.5 -15.25Q9.6 -14.95 10.4 -16.95Q11.2 -18.8 7.6 -19.55L4.05 -19.75Q2.8 -19.1 1.6 -18.8M4.05,-19.75L4.65 -20.15Q7.95 -22.65 7.25 -24.7L3.4 -24.8Q2.15 -24.2 1.1 -23.15L1.05 -21.95Q0.95 -20.45 0.55 -19.6M0.05,-16.1L0.05 -15.05L0.45 -13.75L0.5 -13.7L1.4 -11.9L1.45 -11.8Q3.95 -8.5 6.05 -9.25Q7.9 -9.85 6.15 -13.1L4.4 -15.45M0.45,-13.75L0.45 -13.7L-0.2 -11.7M22.2,1.25L22.2 1.3L21.55 3.3L20.65 4.75Q18.6 7.85 17.2 6.45Q15.6 4.95 17.4 1.2L17.7 0.7L15.25 1.45Q11.6 2.2 11.6 0.25Q11.5 -1.8 14.9 -3.15Q13.3 -3.85 12.15 -4.85Q11.55 -5.45 11.4 -6.1Q11.35 -6.6 11.6 -6.95L12.6 -7.55L14.6 -7.8Q16.5 -7.7 18.2 -6.8L18.5 -6.65Q18.3 -7.45 18.25 -8.45Q18.25 -10.4 18.85 -11.9Q19.15 -12.7 19.75 -13.05L20.6 -13.15L21.5 -12.45L22.45 -10.7Q22.85 -9.45 22.85 -8.15L25.15 -9.8L29 -9.7Q29.7 -7.65 26.4 -5.15L25.8 -4.75L29.35 -4.55Q32.95 -3.8 32.15 -1.95Q31.35 0.05 27.25 -0.25L26.15 -0.45Q27.2 0.6 27.9 1.9Q29.65 5.15 27.8 5.75Q25.7 6.5 23.2 3.2L23.15 3.1M18.5,-6.65Q20.55 -5.6 20.65 -4.55M22.3,-4.6Q22.7 -5.45 22.8 -6.95L22.85 -8.15M19.55,-2.9L15.15 -3.05L14.9 -3.15M19.95,-1.8L19.6 -1.55Q18.5 -0.65 17.7 0.7M23.35,-3.8Q24.55 -4.1 25.8 -4.75M23.2,-1.85L23.9 -1.3Q24.9 -0.8 26.15 -0.45M21.8,-1.1L21.8 -0.05L22.2 1.25L22.25 1.3L23.15 3.1M-4.05,-14.3Q-5.25 -13.75 -6.5 -13.55Q-10.15 -12.8 -10.15 -14.75Q-10.25 -16.8 -6.85 -18.15Q-8.45 -18.85 -9.6 -19.85L-10.35 -21.1L-10.15 -21.95L-9.15 -22.55L-7.15 -22.8Q-5.25 -22.7 -3.55 -21.8L-3.25 -21.65L-3.5 -23.45Q-3.5 -25.4 -2.9 -26.9L-2 -28.05L-1.15 -28.15L-0.25 -27.45L0.7 -25.7Q1.1 -24.45 1.1 -23.15M1.55,12.9L1.9 11.85L1.7 11L1.7 10.95L1.35 10.55Q1 10.25 0.65 10.15L-0.1 10L-1 10.2Q-1.3 10.3 -1.5 10.55Q-2.1 11.05 -2.1 11.85Q-2.1 12.45 -1.7 12.95L-1.5 13.1Q-0.95 13.65 -0.1 13.65L0.15 13.65Q0.8 13.55 1.35 13.1L1.55 12.9L2.25 13.45L4.5 14.3L5.6 14.5Q9.7 14.8 10.5 12.8Q11.3 10.95 7.7 10.2L4.15 10L1.7 10.95M4.15,10L4.75 9.6Q8.05 7.1 7.35 5.05L3.5 4.95Q2.25 5.55 1.2 6.6L1.15 7.8L0.65 10.15M1.2,6.6Q1.2 5.3 0.8 4.05Q0.4 3 -0.15 2.3Q-0.6 1.8 -1.05 1.6L-1.9 1.7L-2.8 2.85Q-3.4 4.35 -3.4 6.3L-3.15 8.1Q-1.1 9.15 -1 10.2M0.15,13.65L0.15 14.7L0.55 16L0.6 16.05L1.5 17.85L1.55 17.95Q4.05 21.25 6.15 20.5Q8 19.9 6.25 16.65Q5.55 15.35 4.5 14.3M0.55,16L0.55 16.05L-0.1 18.05L-0.2 27.95L0.1 28.85L0.2 28.8L1.05 25.15L1.45 24.75L1.5 17.85M1.45,24.75Q3.15 23.3 5.35 22.7L6.9 22.3L5.35 23.8Q3.7 25.9 2.45 28.2L0.2 28.8L0.15 28.95L0 28.9L-2.65 28.2L-3.55 26.8Q-4.95 24.65 -7.1 23.25L-4.3 24L-2.9 24.7Q-1.05 25.8 -0.2 27.95M0.15,28.95L0.1 28.85L0 28.9M-21.95,3.55L-22.85 5Q-24.9 8.1 -26.3 6.7Q-27.9 5.2 -26.1 1.45L-25.8 0.95L-28.25 1.7Q-31.9 2.45 -31.9 0.5Q-32 -1.55 -28.6 -2.9L-31.35 -4.6L-32.1 -5.85L-31.9 -6.7L-30.9 -7.3L-28.9 -7.55Q-27 -7.45 -25.3 -6.55L-25 -6.4L-25.25 -8.2Q-25.25 -10.15 -24.65 -11.65L-23.75 -12.8L-22.9 -12.9L-22 -12.2Q-21.45 -11.5 -21.05 -10.45Q-20.65 -9.2 -20.65 -7.9L-18.35 -9.55L-14.5 -9.45Q-13.8 -7.4 -17.1 -4.9L-17.7 -4.5L-14.15 -4.3Q-10.55 -3.55 -11.35 -1.7Q-12.15 0.3 -16.25 0L-17.35 -0.2Q-16.3 0.85 -15.6 2.15Q-13.85 5.4 -15.7 6Q-17.8 6.75 -20.3 3.45L-20.35 3.35M-25,-6.4Q-22.95 -5.35 -22.85 -4.3M-21.2,-4.35Q-20.8 -5.2 -20.7 -6.7L-20.65 -7.9M-23.95,-2.65L-28.35 -2.8L-28.6 -2.9M-20.15,-3.55Q-18.95 -3.85 -17.7 -4.5M-23.55,-1.55L-23.9 -1.3L-25.8 0.95M-21.7,-0.85L-21.7 0.2L-21.3 1.5L-21.25 1.55L-20.35 3.35M-3.25,-21.65Q-1.2 -20.6 -1.1 -19.55M-6.85,-18.15L-6.6 -18.05L-2.2 -17.9M-1.8,-16.8L-2.15 -16.55L-4.05 -14.3L-4.35 -13.8Q-6.15 -10.05 -4.55 -8.55Q-3.15 -7.15 -1.1 -10.25L-0.2 -11.7M-20.3,-1.6L-19.6 -1.05Q-18.6 -0.55 -17.35 -0.2M-2.1,11.85L-6.5 11.7L-6.75 11.6Q-10.15 12.95 -10.05 15Q-10.05 16.95 -6.4 16.2L-3.95 15.45L-2.05 13.2L-1.7 12.95M-6.75,11.6L-9.5 9.9L-10.25 8.65L-10.05 7.8Q-9.7 7.45 -9.05 7.2L-7.05 6.95Q-5.15 7.05 -3.45 7.95L-3.15 8.1M-0.1,18.05L-1 19.5Q-3.05 22.6 -4.45 21.2Q-6.05 19.7 -4.25 15.95L-3.95 15.45M-21.95,3.55L-21.3 1.55L-21.3 1.5" />
<path style="fill:none;stroke-width:0.75;stroke-linecap:round;stroke-linejoin:round;stroke-miterlimit:3;stroke:#666666;stroke-opacity:1" d="M1.45,-16.85Q1.8 -17.35 1.8 -17.9L1.6 -18.75L1.6 -18.8L1.25 -19.2L0.55 -19.6L-0.2 -19.75L-1.1 -19.55L-1.6 -19.2Q-2.2 -18.7 -2.2 -17.9Q-2.2 -17.3 -1.8 -16.8L-1.6 -16.65Q-1.05 -16.1 -0.2 -16.1L0.05 -16.1Q0.7 -16.2 1.25 -16.65L1.45 -16.85M-0.2,-11.7L-0.3 -1.8L0 -0.9L0.1 -0.95L0.95 -4.6L1.35 -5L1.4 -11.9M1.35,-5Q3.05 -6.45 5.25 -7.05L6.8 -7.45L5.25 -5.95Q3.6 -3.85 2.35 -1.55L0.1 -0.95L0.05 -0.8L-0.1 -0.85L-2.75 -1.55L-3.65 -2.95Q-5.05 -5.1 -7.2 -6.5L-4.4 -5.75L-3 -5.05Q-1.15 -3.95 -0.3 -1.8M0,-0.9L0.05 -0.8M23.15,3.1L23.1 10Q24.8 8.55 27 7.95L28.55 7.55Q27.65 8.2 27 9.05L24.1 13.45L21.85 14.05L21.8 14.2L21.65 14.15L19 13.45L18.1 12.05Q16.7 9.9 14.55 8.5L17.35 9.25L18.75 9.95Q20.6 11.05 21.45 13.2L21.55 3.3M21.8,-1.1L21.55 -1.1Q20.7 -1.1 20.15 -1.65L19.95 -1.8Q19.55 -2.3 19.55 -2.9Q19.55 -3.7 20.15 -4.2L20.65 -4.55L21.55 -4.75L22.3 -4.6L23 -4.2L23.35 -3.8L23.35 -3.75L23.55 -2.9Q23.55 -2.35 23.2 -1.85L23 -1.65Q22.45 -1.2 21.8 -1.1M21.85,14.05L22.7 10.4L23.1 10M21.85,14.05L21.75 14.1L21.65 14.15M21.75,14.1L21.8 14.2M21.75,14.1L21.45 13.2M-20.35,3.35L-20.4 10.25Q-18.7 8.8 -16.5 8.2L-14.95 7.8Q-15.85 8.45 -16.5 9.3Q-18.15 11.4 -19.4 13.7L-21.65 14.3L-21.7 14.45L-21.85 14.4L-24.5 13.7L-25.4 12.3Q-26.8 10.15 -28.95 8.75L-26.15 9.5L-24.75 10.2Q-22.9 11.3 -22.05 13.45L-21.95 3.55M-20.3,-1.6L-20.5 -1.4Q-21.05 -0.95 -21.7 -0.85L-21.95 -0.85Q-22.8 -0.85 -23.35 -1.4L-23.55 -1.55Q-23.95 -2.05 -23.95 -2.65Q-23.95 -3.45 -23.35 -3.95L-22.85 -4.3L-21.95 -4.5L-21.2 -4.35L-20.5 -3.95L-20.15 -3.55L-20.15 -3.5L-19.95 -2.65Q-19.95 -2.1 -20.3 -1.6M-21.65,14.3L-20.8 10.65L-20.4 10.25M-21.65,14.3L-21.75 14.35L-22.05 13.45M-21.75,14.35L-21.7 14.45M-21.75,14.35L-21.85 14.4M0,-0.9L-0.1 -0.85" />
</g>
</svg>
