<?xml version="1.0" encoding="utf-8"?>
<svg version="1.1" id="Layer_1"
xmlns="http://www.w3.org/2000/svg"
xmlns:xlink="http://www.w3.org/1999/xlink"
xmlns:author="http://www.sothink.com"
width="22px" height="23px"
xml:space="preserve">
<g id="688" transform="matrix(1, 0, 0, 1, 8.95, 13.45)">
<path style="fill:#FFFFFF;fill-opacity:1" d="M7.75,-5.75L3.35 -2.05L7.3 1.15L2.3 -0.95L2.15 3.8L0.9 -1L-3.65 1.55L-3.9 1.65L0.55 -2.15L-3.85 -5.3L1.35 -3.55L1.2 -8L2.65 -3.35L7.75 -5.75" />
<path style="fill:#C988FF;fill-opacity:1" d="M-7.35,-5.95L-5.75 -3.4L-3.8 -5.2L-5.3 -2.85L-2.85 -2.4L-5.35 -2.1L-4.35 0.65L-6 -2L-7.95 0L-6.65 -2.5L-8.95 -2.75L-6.45 -3.15L-7.35 -5.95" />
<path style="fill:#88FAFF;fill-opacity:1" d="M8.85,4.35L10.4 1.35L9.4 4.85L12.6 5L9.45 5.8L10.95 7.95L8.75 6.1L7 8.95L7.95 5.7L5 5.45L8.15 4.85L6.65 2.45L8.85 4.35" />
<path style="fill:#FBFF39;fill-opacity:1" d="M6.35,-9.9L8.35 -7.65L5.8 -9.55L4.65 -6.95L4.95 -9.85L2.7 -9.25L4.9 -10.5L3.1 -12.9L5.5 -11.05L6.7 -13.45L6.15 -10.65L8.65 -11.05L6.35 -9.9" />
</g>
</svg>
