<?xml version="1.0" encoding="utf-8"?>
<svg version="1.1" id="Layer_1"
xmlns="http://www.w3.org/2000/svg"
xmlns:xlink="http://www.w3.org/1999/xlink"
xmlns:author="http://www.sothink.com"
width="39px" height="64px"
xml:space="preserve">
<g id="847" transform="matrix(1, 0, 0, 1, 18.6, 69.6)">
<path style="fill:#000000;fill-opacity:1" d="M16.6,-18.25L7.1 -16.75L-10.25 -13.25Q-14.25 -13 -16 -17.6Q-17.8 -22.35 -17.5 -32.75L-14.25 -39.25L8.75 -36.25Q17.4 -37.8 15.4 -29.5L16.6 -18.25" />
<path style="fill:none;stroke-width:0.5;stroke-linecap:round;stroke-linejoin:round;stroke-miterlimit:3;stroke:#333333;stroke-opacity:1" d="M-10.25,-13.25Q-14.25 -13 -16 -17.6Q-17.8 -22.35 -17.5 -32.75L-14.25 -39.25L8.75 -36.25Q17.4 -37.8 15.4 -29.5L16.6 -18.25" />
<path style="fill:none;stroke-width:1;stroke-linecap:round;stroke-linejoin:round;stroke-miterlimit:3;stroke:#000000;stroke-opacity:1" d="M16.6,-18.25L7.1 -16.75L-10.25 -13.25" />
<linearGradient
id="LinearGradID_3044" gradientUnits="userSpaceOnUse" gradientTransform="matrix(0, 0.0375977, -0.0375671, 0, 0.55, -38.2)" spreadMethod ="pad" x1="-819.2" y1="0" x2="819.2" y2="0" >
<stop  offset="0" style="stop-color:#999999;stop-opacity:1" />
<stop  offset="1" style="stop-color:#333333;stop-opacity:1" />
</linearGradient>
<path style="fill:url(#LinearGradID_3044) " d="M-10.5,-15.65L-12.1 -18L-12 -18.1Q-13.8 -20 -14.15 -22.25L-14.25 -23.45L-14.2 -24.4L-13.65 -26.25L-13.55 -26.25L-13.55 -26.8L-13.4 -26.95L-13.4 -29Q-12.65 -28.4 -11.85 -28.45L-11.6 -28.5Q-9.7 -28 -8.6 -29.35Q-8.2 -29.15 -8.4 -29.5Q-7.4 -30.25 -7.15 -31.9Q-7.2 -32.6 -7.6 -33.9L-7.15 -40.2L-8.5 -40.3L-9 -33.85L-8.85 -33.8L-8.85 -33.75L-8.8 -33.75L-8.4 -32.35Q-8.25 -30.9 -9.35 -30.45Q-9.9 -29.55 -11.45 -29.85L-11.95 -29.85Q-12.55 -30.05 -13.25 -30.7L-13.45 -31.05L-13.7 -31.8L-13.85 -32.25L-13.7 -32.65L-13.45 -33.15L-13.2 -33.9L-13.1 -33.9L-12.4 -43.55L-13.25 -43.6L-13.65 -43.65L-13.65 -43.8L-15.7 -46.55L-15.5 -46.55Q-18.15 -49.65 -18 -53.65Q-18.15 -58.95 -12.65 -63.45Q-7.15 -68.5 0.5 -69Q8.1 -68.5 13.55 -63.45Q19 -58.95 19 -53.65Q19 -49.65 16.4 -46.55L16.45 -46.55L13.85 -43.45L13.85 -42.65L13.65 -43.6L12.85 -43.55L13.5 -33.9L13.65 -33.9L13.9 -33.15L14.1 -32.65L14.3 -32.25L14.15 -31.8L13.85 -31.05L13.65 -30.7L12.75 -30L12.7 -30L12.65 -28.5L12.7 -28.5L12.65 -28L12.6 -28L12.25 -23.8L11.2 -19.7L9.55 -15.7L9.55 -15.65L8.4 -15.65L8.4 -10.45Q8.35 -9.1 7.6 -8.2Q6.95 -7.45 5.9 -7.45Q4.9 -7.45 4.2 -8.2Q3.4 -9.1 3.4 -10.45L3.4 -15.65L2.25 -15.65L2.1 -15.65L2.1 -16.85L1.8 -16.85L1.8 -17L0.9 -18.55L-1.55 -18.55L-3.1 -16.85L-3.1 -15.65L-3.15 -15.65L-4.3 -15.65L-4.3 -10.45Q-4.35 -9.1 -5.1 -8.2Q-5.8 -7.45 -6.8 -7.45Q-7.8 -7.45 -8.55 -8.2Q-9.3 -9.1 -9.3 -10.45L-9.3 -15.65L-10.5 -15.65M-10.1,-33.45L-10.05 -33.45L-10.1 -33.5L-10.1 -33.45" />
<path style="fill:#000000;fill-opacity:1" d="M12.65,-28.5L12.7 -30L12.75 -30L13.65 -30.7L13.85 -31.05L14.15 -31.8L14.3 -32.25L14.1 -32.65L13.9 -33.15L13.65 -33.9L13.5 -33.9L12.85 -43.55L13.65 -43.6L14.65 -37.05L14.7 -37.1L14.7 -37L14.9 -34.35L14.9 -34L14.8 -34L14.8 -33.9Q15.05 -33.2 15.4 -32.8Q15.35 -32.55 15.55 -32.5Q15.85 -30.9 14.95 -30.05L14.8 -29.85Q14.65 -29.9 14.6 -29.75L14.35 -29.5L13.8 -29Q13.25 -28.6 12.7 -28.5L12.65 -28.5M3.4,-15.65L3.4 -10.45Q3.4 -9.1 4.2 -8.2Q4.9 -7.45 5.9 -7.45Q6.95 -7.45 7.6 -8.2Q8.35 -9.1 8.4 -10.45L8.4 -15.65L9.55 -15.65L9.55 -10.45Q9.55 -8.5 8.55 -7.35Q7.45 -6.1 5.9 -6.1Q4.4 -6.1 3.25 -7.35Q2.2 -8.5 2.25 -10.45L2.25 -15.65L3.4 -15.65M-9.3,-15.65L-9.3 -10.45Q-9.3 -9.1 -8.55 -8.2Q-7.8 -7.45 -6.8 -7.45Q-5.8 -7.45 -5.1 -8.2Q-4.35 -9.1 -4.3 -10.45L-4.3 -15.65L-3.15 -15.65L-3.15 -10.45Q-3.15 -8.5 -4.2 -7.35Q-5.3 -6.1 -6.8 -6.1Q-8.3 -6.1 -9.45 -7.35Q-10.5 -8.5 -10.5 -10.45L-10.5 -15.65L-9.3 -15.65M-12.4,-43.55L-13.1 -33.9L-13.2 -33.9L-13.45 -33.15L-13.7 -32.65L-13.85 -32.25L-13.7 -31.8L-13.45 -31.05L-13.25 -30.7Q-12.55 -30.05 -11.95 -29.85L-11.45 -29.85Q-9.9 -29.55 -9.35 -30.45Q-8.25 -30.9 -8.4 -32.35L-8.8 -33.75L-8.85 -33.75L-8.85 -33.8L-9 -33.85L-8.5 -40.3L-7.15 -40.2L-7.6 -33.9Q-7.2 -32.6 -7.15 -31.9Q-7.4 -30.25 -8.4 -29.5Q-8.2 -29.15 -8.6 -29.35Q-9.7 -28 -11.6 -28.5L-11.85 -28.45Q-12.65 -28.4 -13.4 -29L-13.95 -29.5L-14.15 -29.75L-14.35 -29.85L-14.55 -30.05Q-15.45 -30.9 -15.1 -32.5Q-14.95 -32.55 -14.95 -32.8L-14.4 -33.9L-14.35 -34L-14.45 -34L-14.5 -34.35L-14.45 -34.35L-14.25 -37L-14.25 -37.1L-14.2 -37.05L-13.25 -43.6L-12.4 -43.55" />
<path style="fill:none;stroke-width:1.2;stroke-linecap:round;stroke-linejoin:round;stroke-miterlimit:3;stroke:#000000;stroke-opacity:1" d="M-15.5,-46.55Q-18.15 -49.65 -18 -53.65Q-18.15 -58.95 -12.65 -63.45Q-7.15 -68.5 0.5 -69Q8.1 -68.5 13.55 -63.45Q19 -58.95 19 -53.65Q19 -49.65 16.4 -46.55" />
<path style="fill:#000000;fill-opacity:1" d="M2.55,-53.55Q1.7 -51.65 1.7 -50.3Q1.7 -49.3 2.05 -48.65Q2.45 -48.05 3 -48.05Q3.4 -48.05 3.7 -48.35L4.15 -49.05L4.25 -50.2L4.25 -52L5.3 -52L5.3 -50.2L5.4 -49.05Q5.55 -48.6 5.85 -48.3L6.55 -48.05L7.5 -48.65Q7.9 -49.3 7.9 -50.3Q7.9 -51.65 7 -53.55L8.05 -53.55Q8.95 -51.95 8.95 -50.4Q8.95 -48.85 8.3 -48Q7.7 -47.2 6.7 -47.2Q5.35 -47.2 4.8 -48.6Q4.2 -47.2 2.9 -47.2Q1.85 -47.2 1.25 -48.05Q0.6 -48.9 0.6 -50.4Q0.6 -51.95 1.55 -53.55L2.55 -53.55" />
</g>
</svg>
