<?xml version="1.0" encoding="utf-8"?>
<svg version="1.1" id="Layer_1"
xmlns="http://www.w3.org/2000/svg"
xmlns:xlink="http://www.w3.org/1999/xlink"
xmlns:author="http://www.sothink.com"
width="161px" height="85px"
xml:space="preserve">
<g id="511" transform="matrix(1, 0, 0, 1, 80.25, 24.15)">
<path style="fill:#A0BE7E;fill-opacity:1" d="M-74.9,13.45L-74.85 13.4L-74.8 13.5L-74.9 13.45" />
<path style="fill:#618259;fill-opacity:1" d="M-0.05,-23.85L0 -23.85L0 -24L80 16L80 20L79.95 19.95L79.95 16.05L0.15 -23.7L0 -23.8L-0.05 -23.85M-74.8,13.5L-74.95 13.5L-74.9 13.45L-74.8 13.5" />
<path style="fill:#B4BC7C;fill-opacity:1" d="M-74.85,13.4L-74.8 13.4L-74.75 13.5L-74.8 13.5L-74.85 13.4" />
<path style="fill:#C5C673;fill-opacity:1" d="M-74.8,13.4L-5.7 -21.15L74.2 18.9L74.25 22.9L4.65 57.7L4.55 53.75L5.45 53.3L5 53.5L-74.75 13.5L-74.8 13.4" />
<path style="fill:#597976;fill-opacity:1" d="M0,-23.8L0.15 -23.7L79.95 16.05L74.2 18.9L-5.7 -21.15L-0.2 -23.9L-0.05 -23.85L0 -23.8M-74.8,13.5L-74.75 13.5L5 53.5Q4.75 53.6 4.55 53.75L0 56L-80 16L-79.95 16L-74.95 13.5L-74.8 13.5" />
<path style="fill:#4F6A67;fill-opacity:1" d="M79.95,16.05L79.95 19.95L79.95 20.05L74.25 22.9L74.2 18.9L79.95 16.05M4.65,57.7L0 60L-80 20L-80 16L0 56L4.55 53.75L4.65 57.7" />
<path style="fill:none;stroke-width:0.5;stroke-linecap:round;stroke-linejoin:round;stroke-miterlimit:3;stroke:#000000;stroke-opacity:1" d="M4.55,53.75L5.45 53.3" />
<path style="fill:none;stroke-width:0.5;stroke-linecap:round;stroke-linejoin:round;stroke-miterlimit:3;stroke:#293726;stroke-opacity:1" d="M-5.7,-21.15L-0.2 -23.9L-0.05 -23.85L0 -23.85L0 -23.8L0.15 -23.7L79.95 16.05L79.95 19.95L79.95 20.05L74.25 22.9L4.65 57.7L0 60L-80 20L-80 16L-79.95 16L-74.95 13.5L-74.9 13.45L-74.85 13.4L-74.8 13.4M74.2,18.9L74.25 22.9M74.2,18.9L79.95 16.05M0,60L0 56L-80 16M0,56L4.55 53.75L4.65 57.7M-74.75,13.5L-74.8 13.5L-74.9 13.45M0,-23.8L-0.05 -23.85" />
<path style="fill:none;stroke-width:0.25;stroke-linecap:round;stroke-linejoin:round;stroke-miterlimit:3;stroke:#D6CD9E;stroke-opacity:1" d="M8.3,-12Q6.5 -11.6 4.7 -10.2M7.8,-6.1Q6 -5.7 4.2 -4.3M4.55,-7.7L3.9 -7.55Q2.45 -7.05 0.95 -5.9M11.55,-10.45L10.9 -10.3Q9.4 -9.8 7.95 -8.65M14.8,-8.85Q13 -8.45 11.2 -7.05M14.05,-3Q12.6 -2.7 11.15 -1.7L10.45 -1.2M21.1,-5.7Q19.6 -5.4 18.15 -4.4L17.45 -3.9M18.05,-7.3Q16.25 -6.9 14.45 -5.5M17.3,-1.45Q15.8 -1.1 14.25 -0.05L13.7 0.35M5.25,-13.7Q3.45 -13.3 1.65 -11.9M11.05,-4.55Q9.25 -4.2 7.45 -2.8M27.3,-2.5Q25.65 -2.1 24 -0.8M24.35,-4.15Q22.8 -3.85 21.25 -2.8L20.75 -2.4M66,16.7Q64.2 17.1 62.4 18.5M69.25,18.25Q67.45 18.65 65.65 20.05M53.2,10.3L52.7 10.45Q51.45 10.8 50.3 11.6L49.6 12.1M50.2,8.7Q48.4 9.1 46.6 10.5M46.95,7.15Q45.15 7.55 43.35 8.95M43.2,11.45Q42.1 11.7 41.05 12.3L39.65 13.35M46.2,13.05L45.7 13.2Q44.45 13.55 43.3 14.35L42.6 14.85M49.45,14.6Q47.6 15 45.85 16.4M44.85,19.75Q43.2 20.2 41.55 21.5M48.45,21.25Q46.65 21.6 44.85 23M55.95,17.75Q54.15 18.15 52.4 19.5M59.4,13.55Q57.75 13.95 56.1 15.25M59,19.45Q57.15 19.85 55.4 21.25M56.45,11.85Q54.65 12.25 52.85 13.65M52.4,16.3Q50.7 16.7 49.1 18M51.5,22.95Q49.65 23.35 47.9 24.75M47.25,28.5L46.45 28.7Q45.05 29.2 43.65 30.3M54.75,24.5Q52.95 24.9 51.15 26.3M62.25,21Q60.45 21.4 58.65 22.8M62.95,15Q61.15 15.4 59.4 16.75M36.25,8.2Q34.65 8.65 33.05 9.9M37.15,2.2Q35.35 2.6 33.55 4M39.95,9.9Q38.15 10.3 36.35 11.7M40.4,3.8Q38.65 4.2 37 5.45M23.85,1.7Q22.05 2.1 20.25 3.45M26.9,3.4Q25.05 3.8 23.25 5.2M25.85,10.05Q24.15 10.45 22.45 11.7M30.15,4.95Q28.3 5.35 26.5 6.75M23.4,24.55L22.9 24.65Q21.7 25 20.5 25.85L19.8 26.35M24.9,17.4Q23.1 17.8 21.3 19.2M28.15,18.95Q26.35 19.35 24.55 20.75M31.2,20.55L30.7 20.65Q29.45 21 28.25 21.85Q27.9 22.05 27.6 22.35M38.65,16.55L38.15 16.7Q36.95 17.05 35.75 17.85Q35.4 18.05 35.05 18.35M34.45,22.1Q32.6 22.5 30.85 23.9M35.65,14.95Q33.85 15.35 32.05 16.75M28.7,11.7Q27.1 12.15 25.5 13.4M32.4,13.4Q30.6 13.8 28.8 15.2M33.9,0.65Q32.05 1.05 30.3 2.45M33.4,6.55Q31.65 6.95 30 8.2M16.3,5.2Q14.55 5.6 12.75 6.95M19.35,6.9Q17.55 7.3 15.75 8.7M9.8,2.05Q8.25 2.4 6.75 3.45L6.2 3.85M6.55,0.5Q5.1 0.8 3.65 1.8L2.95 2.3M8.8,9.2Q7 9.6 5.25 10.95M5.25,7.75Q3.6 8.15 1.95 9.45M7.35,16.45Q5.55 16.85 3.75 18.25M4.1,14.9Q2.3 15.3 0.5 16.7M15.1,12.45Q13.3 12.85 11.5 14.25M18.35,14.05Q16.65 14.45 14.95 15.7M13.45,19.7Q11.85 20.15 10.25 21.4M17.15,21.4Q15.35 21.8 13.55 23.2M12.75,3.75Q11.1 4.15 9.45 5.45M11.85,10.9Q10.05 11.3 8.25 12.7M10.6,18.05Q8.9 18.4 7.2 19.7M18.9,30.35Q17.1 30.75 15.3 32.15M15.65,28.8L15.15 28.9Q13.95 29.25 12.75 30.1L12.05 30.6M7.4,33.15Q6.2 33.5 5 34.35L4.3 34.85M9.4,25.65Q7.6 26.05 5.8 27.45M4.9,31.45Q3.05 31.85 1.3 33.25M5.75,46.85Q3.95 47.25 2.15 48.65M6.1,40Q4.45 40.4 2.8 41.7M9.65,41.45Q7.85 41.85 6.1 43.2M17.7,37.75Q15.9 38.1 14.1 39.45M15.95,44.7Q14.15 45.1 12.35 46.5M14.1,36.25Q12.45 36.7 10.8 38M12.65,27.2Q10.85 27.6 9.05 29M11.15,34.6Q9.35 35 7.55 36.4M12.7,43.15Q10.9 43.55 9.1 44.95M36.25,30.95Q34.4 31.35 32.6 32.75M39.5,32.5Q37.65 32.9 35.85 34.3M26.65,26.1Q24.85 26.5 23.05 27.9M29.6,27.75Q27.95 28.2 26.3 29.5M25.4,33.5Q23.65 33.85 21.85 35.25M28.45,35.2Q26.65 35.6 24.85 37M24,40.95Q22.15 41.35 20.35 42.75M31.7,36.75Q29.9 37.15 28.1 38.55M33.2,29.25Q31.4 29.6 29.6 31M20.25,0.25Q18.6 0.65 16.95 1.95M22.6,8.45Q20.8 8.85 19 10.25M37.4,23.75Q35.7 24.2 34.1 25.5M5.7,23.95Q4.1 24.4 2.5 25.65M20.4,22.95Q18.6 23.35 16.8 24.75M20.75,39.4Q18.9 39.8 17.1 41.2M21.85,32Q20.2 32.45 18.55 33.75M21.2,15.7Q19.6 16.15 18 17.4M43.5,27.05Q41.95 27.5 40.4 28.75M41.9,18.1Q40.1 18.5 38.3 19.9M43.25,5.45Q41.65 5.9 40.05 7.15M9,48.4Q7.2 48.8 5.4 50.2M40.6,25.3Q39 25.75 37.4 27M30.85,-1.05Q29.05 -0.65 27.3 0.7M-34.25,-4.15Q-36.1 -3.8 -37.9 -2.4M-26.5,-8.15Q-28.35 -7.75 -30.1 -6.35M-23.25,-6.6Q-25.1 -6.2 -26.85 -4.8M-31,-2.65Q-32.8 -2.25 -34.6 -0.85M-4.5,-18.4L-5.65 -18.05L-8.1 -16.6M-1.25,-16.85Q-3.05 -16.45 -4.85 -15.05M-11.5,-15.65Q-13.35 -15.25 -15.1 -13.85M-15.75,-10.6Q-17.6 -10.2 -19.35 -8.8M-12.5,-9Q-14.3 -8.6 -16.1 -7.2M-10.45,-0.25L-11.1 -0.05Q-12.6 0.4 -14.05 1.55M-1.75,-10.95Q-3.55 -10.55 -5.35 -9.15M-6.2,-5.75Q-8 -5.35 -9.8 -3.95M-2.95,-4.2L-3.6 -4.05Q-5.1 -3.6 -6.55 -2.45M-5,-12.5Q-6.8 -12.1 -8.6 -10.7M-8.25,-14.1Q-10.1 -13.7 -11.85 -12.3M-9.25,-7.45Q-11.05 -7.05 -12.85 -5.65M-16.75,-3.45Q-18.55 -3.1 -20.35 -1.7M-20,-5Q-21.85 -4.6 -23.6 -3.2M-19,-12.15Q-20.85 -11.75 -22.6 -10.35M-0.95,4.5Q-2.4 4.8 -3.85 5.8L-4.55 6.3M-5.45,10.05Q-7 10.4 -8.5 11.45L-9.05 11.85M2.3,6.05Q0.8 6.4 -0.75 7.45L-1.3 7.85M-3.95,2.9Q-5.75 3.3 -7.55 4.7M-8.7,8.5Q-10.2 8.8 -11.6 9.8L-12.3 10.3M-18.2,3.75L-18.85 3.95Q-20.35 4.4 -21.8 5.55M-11.7,6.9Q-13.5 7.3 -15.3 8.7M-14.95,5.35Q-16.75 5.75 -18.55 7.15M-10.25,16Q-11.9 16.4 -13.55 17.7M-16.45,12.75Q-17.95 13.05 -19.35 14.05L-20.05 14.55M-13.2,14.3Q-14.75 14.65 -16.25 15.7L-16.8 16.1M-14.45,21.7Q-16.25 22.05 -18 23.45M-3.65,19.15Q-5.45 19.55 -7.25 20.95M-0.4,20.7Q-2.2 21.1 -4 22.5M-7.2,1.35Q-9.05 1.75 -10.8 3.15M-2.5,11.75Q-4.15 12.15 -5.8 13.45M-6.7,17.45Q-8.5 17.85 -10.25 19.2M-21.45,2.2Q-23.25 2.6 -25.05 4M-25.95,8L-26.6 8.2Q-28.1 8.65 -29.55 9.8M-22.7,9.6Q-24.55 10 -26.3 11.4M-24.5,0.5Q-26.3 0.9 -28.1 2.3M-32.3,4.75Q-34.1 5.15 -35.9 6.55M-35.55,3.2Q-37.35 3.6 -39.15 5M-30.45,13.85Q-32.25 14.25 -34.05 15.65M-32.25,20.75Q-33.7 21.05 -35.15 22.05L-35.85 22.55M-29,22.3Q-30.55 22.6 -32.05 23.7L-32.6 24.1M-33.7,12.25L-34.35 12.45Q-35.85 12.9 -37.3 14.05M-35.25,19.15Q-37.05 19.55 -38.85 20.95M-20.95,18.55Q-22.5 18.85 -24 19.95L-24.55 20.35M-24.2,17Q-25.7 17.3 -27.1 18.3L-27.8 18.8M-27.2,15.4Q-29 15.8 -30.8 17.2M-29.25,6.45Q-31.05 6.85 -32.8 8.25M-22.5,25.45Q-24.25 25.8 -26 27.2M-23.1,32.4Q-24.9 32.8 -26.7 34.2M-26.35,30.85Q-28.15 31.25 -29.95 32.65M-35.95,26Q-37.45 26.3 -39 27.4L-39.5 27.8M-32.95,27.65Q-34.65 28.1 -36.25 29.4M-29.4,29.15Q-31.2 29.5 -32.95 30.9M-6.35,33.65Q-8.15 34.05 -9.95 35.45M-0.1,36.8L-0.6 36.9Q-1.8 37.25 -3 38.1L-3.7 38.6M-2.05,28.2Q-3.65 28.65 -5.25 29.9M-4.9,26.55Q-6.65 26.9 -8.3 28.2M-3.1,35.2Q-4.9 35.6 -6.7 37M-16.15,28.7Q-17.95 29.1 -19.75 30.5M-12.9,30.3Q-14.6 30.65 -16.3 31.95M-13.3,37.35Q-15.1 37.7 -16.9 39.1M-7.05,40.45L-7.55 40.6Q-8.75 40.95 -9.95 41.75L-10.65 42.25M-0.85,43.7Q-2.5 44.1 -4.15 45.4M-3.8,42Q-5.6 42.4 -7.4 43.8M-17,35.65Q-18.6 36.1 -20.2 37.35M-8.15,24.95Q-9.95 25.35 -11.75 26.75M-10.05,31.95Q-11.65 32.4 -13.25 33.65M-10.05,38.9Q-11.85 39.25 -13.65 40.65M-26,23.95Q-27.7 24.4 -29.3 25.7M-19.85,34Q-21.6 34.35 -23.25 35.65M-19.4,27.15Q-21.2 27.55 -23 28.95M-18,20.2Q-19.7 20.65 -21.3 21.95M-19.45,11.15Q-21.3 11.55 -23.05 12.95M-11.4,23.4Q-13.2 23.8 -15 25.2M-46.5,5.85Q-48.35 6.25 -50.15 7.65M-43.25,7.45Q-45.05 7.85 -46.85 9.25M-42.05,0.05Q-43.85 0.45 -45.65 1.85M-54.55,9.6Q-56.35 10 -58.15 11.4M-51.95,18.15Q-53.75 18.55 -55.55 19.95M-55,16.45Q-56.8 16.85 -58.6 18.25M-48.7,19.7L-49.35 19.85Q-50.8 20.35 -52.3 21.5M-41.75,16L-42.4 16.2Q-43.9 16.65 -45.35 17.8M-45.45,21.3Q-47.25 21.7 -49.05 23.1M-45,14.45Q-46.8 14.85 -48.6 16.25M-42.2,22.85Q-44 23.25 -45.8 24.65M-49.75,4.3Q-51.6 4.7 -53.4 6.1M-51.3,11.2Q-53.1 11.6 -54.9 13M-48.05,12.75Q-49.85 13.15 -51.65 14.55M-61.5,13.3Q-63.3 13.7 -65.1 15.1M-64.75,11.75Q-66.55 12.15 -68.35 13.55M-39.2,24.45Q-40.65 24.75 -42.1 25.75L-42.75 26.25M-57.8,8.05Q-59.6 8.45 -61.4 9.85M-58.25,14.9Q-60.05 15.3 -61.85 16.7M-36.95,10.7Q-38.75 11.1 -40.55 12.5M-38.8,1.6Q-40.6 2 -42.4 3.4M-40,9Q-41.8 9.4 -43.6 10.8M-38.5,17.6Q-40.3 18 -42.1 19.4M-13.7,-1.8Q-15.55 -1.4 -17.3 0M-27.75,-1.05Q-29.55 -0.65 -31.35 0.75M2.85,22.3Q1.15 22.65 -0.55 23.95M3.15,38.35Q1.35 38.7 -0.45 40.1M3.55,-1.1Q1.75 -0.7 -0.05 0.7M0.3,-2.65Q-1.5 -2.25 -3.3 -0.85M1.3,-9.25Q-0.55 -8.85 -2.3 -7.45M2,-15.25Q0.2 -14.85 -1.6 -13.45M1.05,13.2Q-0.75 13.6 -2.5 14.95M1.65,29.9Q-0.15 30.3 -1.95 31.7M2.7,45.15Q0.95 45.55 -0.85 46.9" />
<path style="fill:none;stroke-width:0.5;stroke-linecap:round;stroke-linejoin:round;stroke-miterlimit:3;stroke:#474B3D;stroke-opacity:1" d="M-74.8,13.4L-5.7 -21.15M5,53.5L-74.75 13.5M5.45,53.3L74.2 18.9L-5.7 -21.15" />
</g>
</svg>
