<?xml version="1.0" encoding="utf-8"?>
<svg version="1.1" id="Layer_1"
xmlns="http://www.w3.org/2000/svg"
xmlns:xlink="http://www.w3.org/1999/xlink"
xmlns:author="http://www.sothink.com"
width="47px" height="19px"
xml:space="preserve">
<g id="119" transform="matrix(1, 0, 0, 1, 28.15, 12)">
<path style="fill:#000000;fill-opacity:0.2" d="M18.35,-3.2Q17.85 -2.15 16.75 -1.3L14.7 -0.05L11.75 1.1Q8.6 2 4.75 2L2.35 1.95Q-1.9 1.5 -5.15 -0.05L-17.6 6.2L-28.15 0.95L-14.1 -6.1L-8.9 -3.5L-9.25 -4.95L-9.25 -5Q-9.25 -7.9 -5.15 -10Q-1 -12 4.75 -12Q10.6 -12 14.7 -10Q18.8 -7.9 18.8 -5L18.8 -4.4L18.35 -3.2" />
</g>
</svg>
