<?xml version="1.0" encoding="utf-8"?>
<svg version="1.1" id="Layer_1"
xmlns="http://www.w3.org/2000/svg"
xmlns:xlink="http://www.w3.org/1999/xlink"
xmlns:author="http://www.sothink.com"
width="116px" height="53px"
xml:space="preserve">
<g id="428" transform="matrix(1, 0, 0, 1, 57.6, 51.8)">
<path style="fill:#3D3A3A;fill-opacity:1" d="M9.55,-25.35L-0.4 -23Q-5.85 -21.85 -7.8 -23.85L-12.35 -28.1Q-14.9 -30.35 -11.25 -30.55L-1.9 -31.25Q3.85 -31.8 6.8 -31.05Q9.7 -30.3 11.85 -28.45Q14 -26.6 9.55 -25.35" />
<path style="fill:#615F5F;fill-opacity:1" d="M19.9,-20.15L29.6 -19.55Q35.4 -18.55 35.8 -16.5Q36.2 -14.4 31.75 -14.2Q27.25 -14 21.8 -12.5Q16.35 -11.05 11.95 -12.05Q7.5 -13.05 7.2 -15.65Q6.9 -18.3 11.5 -19L19.9 -20.15M12.7,-17.8L12.8 -17.9L12.6 -18.2L9.8 -18.5L9.8 -18.45L9.6 -18.35L8.9 -17.75L8.75 -17.5L8.75 -16.5L8.75 -16.25L8.8 -15.25L9 -15Q9.1 -14.85 9.25 -14.85L14.4 -14.5L14.5 -14.6L14.5 -14.7Q12.3 -15.9 9.55 -15.65L9.55 -15.75L9.55 -16.25L9.55 -16.75L9.55 -17L9.8 -17.25L10.15 -17.5L12.7 -17.8M33.65,-3.5L33.55 -3.75L33.55 -4L33.45 -4.2L33.15 -4.5L32.8 -4.2L32.75 -4L32.75 -3.75L32.75 -3.5L32.75 -3.25L32.95 -3L33.05 -2.75L33.05 -2.5L33.5 -2.05L33.9 -1.75L37.8 -1.65L38.15 -1.85L42.45 -2L42.8 -2.15L50.45 -2.35L51.45 -2.7Q51.9 -2.9 52.2 -3.35L52.25 -3.85L52.35 -4.05L52.55 -4.35L52.55 -5.1L52.55 -5.6L52.55 -5.85L52.3 -6L51.8 -6.15L51.55 -5.95L51.35 -5L51.3 -4.5L50.45 -4.05L49.45 -3.65L43.15 -3.5L42.8 -3.35L35.05 -3.5L35.5 -3.05L35.9 -2.75L37.7 -2.6L34.3 -2.75L33.9 -3L33.8 -3.25L33.65 -3.5M33.2,-6.35L43.25 -7.05Q49.45 -7.6 51.55 -6.55L56.15 -3.95Q58.7 -2.45 54.25 -1.2Q49.75 0 44.6 0L34.8 -0.7Q30.1 -1.4 29.7 -3.75Q29.3 -6.15 33.2 -6.35" />
<path style="fill:#595757;fill-opacity:1" d="M10.15,-17.5L9.8 -17.25L9.55 -17L9.55 -16.75L9.55 -16.25L9.55 -15.75L9.55 -15.65Q12.3 -15.9 14.5 -14.7L14.5 -14.6L14.4 -14.5L9.25 -14.85Q9.1 -14.85 9 -15L8.8 -15.25L8.75 -16.25L8.75 -16.5L8.75 -17.5L8.9 -17.75L9.6 -18.35L9.8 -18.45L9.8 -18.5L12.6 -18.2L12.8 -17.9L12.7 -17.8L10.15 -17.5M33.8,-3.25L33.9 -3L34.3 -2.75L37.7 -2.6L35.9 -2.75L35.5 -3.05L35.05 -3.5L42.8 -3.35L43.15 -3.5L49.45 -3.65L50.45 -4.05L51.3 -4.5L51.35 -5L51.55 -5.95L51.8 -6.15L52.3 -6L52.55 -5.85L52.55 -5.6L52.55 -5.1L52.55 -4.35L52.35 -4.05L52.25 -3.85L52.2 -3.35Q51.9 -2.9 51.45 -2.7L50.45 -2.35L42.8 -2.15L42.45 -2L38.15 -1.85L37.8 -1.65L33.9 -1.75L33.5 -2.05L33.05 -2.5L33.05 -2.75L32.95 -3L32.75 -3.25L32.75 -3.5L32.75 -3.75L32.75 -4L32.8 -4.2L33.15 -4.5L33.45 -4.2L33.55 -4L33.55 -3.75L33.65 -3.5L33.8 -3.25M-8.7,-40.05L-8.85 -40.05L-9.1 -40.05L-9.2 -40L-9.25 -39.8L-9.25 -39.3L-9.25 -39.1Q-9 -38.95 -8.7 -38.95Q-8.55 -38.95 -8.45 -39.1L-8.45 -39.3L-8.5 -39.8L-8.7 -40.05M-4.05,-39.4Q-4.05 -37.55 -8.5 -36.3L-18.45 -33.95Q-23.9 -32.8 -28.3 -34.45Q-32.75 -36.15 -33.1 -38.7Q-33.45 -41.25 -30.1 -42.25Q-26.75 -43.3 -20.7 -44.2Q-14.65 -45.1 -9.35 -43.15Q-4.05 -41.25 -4.05 -39.4M-18.7,-42L-19.2 -42.15L-19.2 -42.1L-19.4 -42.05L-19.6 -41.9L-19.55 -41.7Q-19.25 -41.1 -18.65 -41.45L-18.5 -41.55L-18.5 -41.8L-18.7 -42M-19.15,-37.45L-19.35 -37.75L-19.5 -37.75L-19.75 -37.7L-19.85 -37.65L-19.95 -37.5L-19.85 -37.3L-19.5 -37.1L-19.2 -37.3L-19.15 -37.45M-16.75,-40.2L-16.85 -40.15L-17.4 -39.9L-17.6 -39.75L-15.9 -39.75L-15.8 -39.75L-15.55 -39.95L-15.45 -40.15L-15.45 -40.2L-16.25 -40.2L-16.75 -40.2M-15.85,-38.5L-16 -38.5L-17.25 -38.6L-17.2 -38.35Q-16.8 -37.65 -15.95 -38.1L-15.85 -38.25L-15.85 -38.5M-10.85,-41.4L-11 -41.4L-10.7 -41.15L-10.55 -40.9L-10.7 -41.4L-10.85 -41.4M-12.45,-40.55L-12.45 -40.5L-12.35 -40.25L-11.85 -40.15L-11.45 -40.4L-12.45 -40.55M-13.85,-42.45L-14 -42.75L-14.2 -42.75L-14.45 -42.7L-14.5 -42.65L-14.6 -42.5L-14.55 -42.3L-14.2 -42.05L-13.9 -42.3L-13.85 -42.45M-12.9,-38.9L-13 -38.9L-13 -38.85L-13.2 -38.55L-13.25 -38.35L-13.05 -38.15L-12.35 -38.1L-12.25 -38.6L-12.35 -39.1L-12.9 -38.9M-13.25,-40L-13.3 -40.1L-13.4 -40.1L-13.45 -39.85L-13.25 -40" />
<path style="fill:#4F4D4D;fill-opacity:1" d="M-43.65,-50.2Q-37.6 -49 -32.8 -50.1Q-28 -51.25 -28 -49.4Q-28 -47.55 -32.55 -46.1L-42.75 -42.65Q-48.4 -40.65 -52.55 -43.4Q-56.7 -46.15 -57.05 -48.7Q-57.4 -51.25 -53.55 -51.3Q-49.7 -51.4 -43.65 -50.2M-45.2,-47.85L-45.1 -48.05L-45.2 -48.25L-45.75 -48.6L-46.2 -48.8L-46.7 -49.05L-48.5 -49.15L-48.5 -49.1L-48.75 -49.05L-48.95 -48.9L-48.7 -48.65L-46.05 -47.8L-45.5 -47.65L-45.2 -47.85M-52.85,-48.05L-53.1 -48.05L-53.15 -48L-53.25 -47.8L-53.25 -47.55L-53.2 -47.35L-53.05 -47.15L-52.3 -46.85L-52.1 -46.75L-51.05 -46.85Q-50.9 -46.85 -50.75 -47L-50.9 -47.2L-51.7 -47.7L-52.7 -48.05L-52.85 -48.05M-16.25,-40.2L-16.25 -39.9L-15.9 -39.75L-17.6 -39.75L-17.4 -39.9L-16.85 -40.15L-16.75 -40.2L-16.25 -40.2M-16,-38.5L-15.85 -38.5L-15.85 -38.25L-16 -38.5M-11.45,-40.4L-11.85 -40.15L-12.35 -40.25L-12.45 -40.5L-12.45 -40.55L-11.45 -40.4M-13,-38.9L-12.9 -38.9L-13 -38.85L-13 -38.9M-13.45,-39.85L-13.4 -40.1L-13.3 -40.1L-13.25 -40L-13.45 -39.85" />
<path style="fill:#676565;fill-opacity:1" d="M-45.5,-47.65L-46.05 -47.8L-48.7 -48.65L-48.95 -48.9L-48.75 -49.05L-48.5 -49.1L-48.5 -49.15L-46.7 -49.05L-46.2 -48.8L-45.75 -48.6L-45.2 -48.25L-45.1 -48.05L-45.2 -47.85L-45.5 -47.65M-52.7,-48.05L-51.7 -47.7L-50.9 -47.2L-50.75 -47Q-50.9 -46.85 -51.05 -46.85L-52.1 -46.75L-52.3 -46.85L-53.05 -47.15L-53.2 -47.35L-53.25 -47.55L-53.25 -47.8L-53.15 -48L-53.1 -48.05L-52.85 -48.05L-52.7 -48.05M-8.5,-39.8L-8.45 -39.3L-8.45 -39.1Q-8.55 -38.95 -8.7 -38.95Q-9 -38.95 -9.25 -39.1L-9.25 -39.3L-9.25 -39.8L-9.2 -40L-9.1 -40.05L-8.85 -40.05L-8.7 -40.05L-8.5 -39.8M-18.5,-41.8L-18.5 -41.55L-18.65 -41.45Q-19.25 -41.1 -19.55 -41.7L-19.6 -41.9L-19.4 -42.05L-19.2 -42.1L-19.2 -42.15L-18.7 -42L-18.5 -41.8M-19.2,-37.3L-19.5 -37.1L-19.85 -37.3L-19.95 -37.5L-19.85 -37.65L-19.75 -37.7L-19.5 -37.75L-19.35 -37.75L-19.15 -37.45L-19.2 -37.3M-16.25,-39.9L-16.25 -40.2L-15.45 -40.2L-15.45 -40.15L-15.55 -39.95L-15.8 -39.75L-15.9 -39.75L-16.25 -39.9M-15.85,-38.25L-15.95 -38.1Q-16.8 -37.65 -17.2 -38.35L-17.25 -38.6L-16 -38.5L-15.85 -38.25M-10.7,-41.4L-10.55 -40.9L-10.7 -41.15L-11 -41.4L-10.85 -41.4L-10.7 -41.4M-13.9,-42.3L-14.2 -42.05L-14.55 -42.3L-14.6 -42.5L-14.5 -42.65L-14.45 -42.7L-14.2 -42.75L-14 -42.75L-13.85 -42.45L-13.9 -42.3M-12.35,-39.1L-12.25 -38.6L-12.35 -38.1L-13.05 -38.15L-13.25 -38.35L-13.2 -38.55L-13 -38.85L-12.9 -38.9L-12.35 -39.1" />
<path style="fill:none;stroke-width:1;stroke-linecap:round;stroke-linejoin:round;stroke-miterlimit:3;stroke:#000000;stroke-opacity:1" d="M9.55,-25.35L-0.4 -23Q-5.85 -21.85 -7.8 -23.85L-12.35 -28.1Q-14.9 -30.35 -11.25 -30.55L-1.9 -31.25Q3.85 -31.8 6.8 -31.05Q9.7 -30.3 11.85 -28.45Q14 -26.6 9.55 -25.35M19.9,-20.15L29.6 -19.55Q35.4 -18.55 35.8 -16.5Q36.2 -14.4 31.75 -14.2Q27.25 -14 21.8 -12.5Q16.35 -11.05 11.95 -12.05Q7.5 -13.05 7.2 -15.65Q6.9 -18.3 11.5 -19L19.9 -20.15M33.2,-6.35L43.25 -7.05Q49.45 -7.6 51.55 -6.55L56.15 -3.95Q58.7 -2.45 54.25 -1.2Q49.75 0 44.6 0L34.8 -0.7Q30.1 -1.4 29.7 -3.75Q29.3 -6.15 33.2 -6.35M-43.65,-50.2Q-37.6 -49 -32.8 -50.1Q-28 -51.25 -28 -49.4Q-28 -47.55 -32.55 -46.1L-42.75 -42.65Q-48.4 -40.65 -52.55 -43.4Q-56.7 -46.15 -57.05 -48.7Q-57.4 -51.25 -53.55 -51.3Q-49.7 -51.4 -43.65 -50.2M-4.05,-39.4Q-4.05 -37.55 -8.5 -36.3L-18.45 -33.95Q-23.9 -32.8 -28.3 -34.45Q-32.75 -36.15 -33.1 -38.7Q-33.45 -41.25 -30.1 -42.25Q-26.75 -43.3 -20.7 -44.2Q-14.65 -45.1 -9.35 -43.15Q-4.05 -41.25 -4.05 -39.4" />
</g>
</svg>
