<?xml version="1.0" encoding="utf-8"?>
<svg version="1.1" id="Layer_1"
xmlns="http://www.w3.org/2000/svg"
xmlns:xlink="http://www.w3.org/1999/xlink"
xmlns:author="http://www.sothink.com"
width="163px" height="86px"
xml:space="preserve">
<g id="260" transform="matrix(1, 0, 0, 1, 124.15, 22.9)">
<path style="fill:#999999;fill-opacity:1" d="M-124,-17.6L-124.15 -17.55L-124.1 -17.6L-124 -17.6" />
<path style="fill:#000000;fill-opacity:0.2" d="M-5.3,23.45L1.75 24.15L1.75 24.1L-0.35 16.45Q-0.65 15.25 0.55 14Q1.75 12.65 3.8 12L7.5 11.75Q9.2 12.05 9.55 13.2L13.55 27.9Q14.9 28.45 16.15 29.15L20 31.4L23.95 34.45L24.15 34.6L22.6 29Q22.3 27.8 23.5 26.55Q24.7 25.2 26.75 24.55L30.45 24.3Q32.15 24.6 32.5 25.75L37.55 44.3L37.6 44.85Q37.55 45.75 36.6 46.8Q35.4 48.05 33.4 48.75L32.05 49.05Q32 51.75 30.7 54.25Q27.2 61 16.5 62.55Q5.85 64.1 -5.7 59.55Q-17.3 55 -23 46.95Q-25.1 44 -25.95 41.25Q-27.9 39.35 -28.15 36.8L-28 34.55L-31.6 21.45Q-31.9 20.25 -30.7 19Q-29.5 17.65 -27.45 17L-23.75 16.75Q-22.05 17.05 -21.7 18.2L-19.45 26.5L-17.75 25.65Q-15.35 24.25 -11.9 23.65L-11.05 23.55Q-8.25 23.15 -5.3 23.45M-7.45,26.9L-7.5 26.7L-7.6 26.25L-7.45 26.9M-13.05,29.5L-13.05 29.45L-15.4 29.75L-13.05 29.5M-19.7,27.3L-19.5 27.7L-19.5 27.65L-19.7 27.3" />
<path style="fill:#000000;fill-opacity:0.2" d="M-21.9,13.6L-20.2 14.4Q-17.8 15.8 -14.35 16.4L-13.5 16.55Q-10.7 16.9 -7.75 16.6L-0.7 15.95L-2.8 23.6Q-3.1 24.8 -1.9 26.1Q-0.7 27.4 1.35 28.05L5.05 28.35Q6.75 28 7.1 26.85L11.1 12.2L13.7 10.95L15.15 10.15L20.15 11.05Q19.85 12.25 21.05 13.55Q22.25 14.85 24.3 15.5L28 15.8Q29.6 15.5 30 14.5Q33.65 16.55 33.65 19.05Q33.65 23.15 23.8 26.05Q13.95 29 0.05 29Q-13.9 29 -23.75 26.05Q-30.15 24.15 -32.35 21.8Q-31.35 22.6 -29.9 23.05L-26.2 23.35Q-24.5 23 -24.15 21.85L-21.9 13.6M-23.25,23.6L-23.4 23.5L-23.35 23.55L-23.25 23.6" />
<radialGradient
id="RadialGradID_747" gradientUnits="userSpaceOnUse" gradientTransform="matrix(0.022583, 0, 0, 0.022583, 26.75, -6.8)" spreadMethod ="pad" cx="0" cy="0" r="819.2" fx="0" fy="0" >
<stop  offset="0"  style="stop-color:#FFFFFF;stop-opacity:1" />
<stop  offset="0.937255"  style="stop-color:#999999;stop-opacity:1" />
</radialGradient>
<path style="fill:url(#RadialGradID_747) " d="M30.95,-8.65Q32.95 -8 34.15 -6.75Q35.1 -5.7 35.15 -4.75L35.1 -4.2L30.05 14.3L30 14.5Q29.6 15.5 28 15.8L24.3 15.5Q22.25 14.85 21.05 13.55Q19.85 12.25 20.15 11.05L21.7 5.5L21.7 5.45L25.2 -7.45Q25.5 -8.6 27.2 -9Q28.3 -9.2 29.6 -9L30.95 -8.65" />
<radialGradient
id="RadialGradID_748" gradientUnits="userSpaceOnUse" gradientTransform="matrix(0.0606689, 0, 0, 0.0606689, 19.5, -11.8)" spreadMethod ="pad" cx="0" cy="0" r="819.2" fx="0" fy="0" >
<stop  offset="0"  style="stop-color:#FFFFFF;stop-opacity:1" />
<stop  offset="0.827451"  style="stop-color:#999999;stop-opacity:1" />
</radialGradient>
<path style="fill:url(#RadialGradID_748) " d="M21.5,5.65L17.55 8.65L15.15 10.15L13.7 10.95L11.1 12.2L12.15 8.35Q12.45 7.15 11.2 5.8Q10 4.55 8 3.9L4.25 3.55Q2.55 3.95 2.25 5.1L-0.7 15.95L-7.75 16.6Q-10.7 16.9 -13.5 16.55L-14.35 16.4Q-17.8 15.8 -20.2 14.4L-21.9 13.6L-21.7 12.8L-10.05 14.05L-6.5 14.45L-6.45 14.45L-6.45 14.15L-2.95 11.85L-2.95 11.65Q-0.9 9.7 -0.65 7.15Q-0.4 4.7 -1.75 2.55L-1.4 -0.75L-1.5 -1.2L-3.65 -12.8L-10.35 -4L-10.4 -4.05Q-12.65 -5.75 -15.15 -4.9L-15.25 -5.2L-15.35 -5.55L-18.15 -13.45L-22.4 -5.6L-23.25 -4.1L-23.4 -4.05L-23.5 -4L-25.5 -3.15L-25.65 -3.05L-25.7 -3.05L-25.85 -2.95L-27.25 -2.1L-28.4 -1.15Q-27.55 -3.95 -25.45 -6.9Q-19.75 -14.95 -8.15 -19.5Q3.4 -24.05 14.05 -22.5Q24.75 -20.95 28.25 -14.2Q29.55 -11.7 29.6 -9Q28.3 -9.2 27.2 -9Q25.5 -8.6 25.2 -7.45L21.7 5.45L21.5 5.65" />
<radialGradient
id="RadialGradID_749" gradientUnits="userSpaceOnUse" gradientTransform="matrix(0.0190582, 0, 0, 0.0190582, 6.1, 7.45)" spreadMethod ="pad" cx="0" cy="0" r="819.2" fx="0" fy="0" >
<stop  offset="0"  style="stop-color:#FFFFFF;stop-opacity:1" />
<stop  offset="0.937255"  style="stop-color:#999999;stop-opacity:1" />
</radialGradient>
<path style="fill:url(#RadialGradID_749) " d="M-0.7,15.95L2.25 5.1Q2.55 3.95 4.25 3.55L8 3.9Q10 4.55 11.2 5.8Q12.45 7.15 12.15 8.35L11.1 12.2L7.1 26.85Q6.75 28 5.05 28.35L1.35 28.05Q-0.7 27.4 -1.9 26.1Q-3.1 24.8 -2.8 23.6L-0.7 15.95" />
<radialGradient
id="RadialGradID_750" gradientUnits="userSpaceOnUse" gradientTransform="matrix(0.0170746, 0, 0, 0.0170746, -25.6, 9.7)" spreadMethod ="pad" cx="0" cy="0" r="819.2" fx="0" fy="0" >
<stop  offset="0"  style="stop-color:#FFFFFF;stop-opacity:1" />
<stop  offset="0.937255"  style="stop-color:#999999;stop-opacity:1" />
</radialGradient>
<path style="fill:url(#RadialGradID_750) " d="M-24.15,21.85Q-24.5 23 -26.2 23.35L-29.9 23.05Q-31.35 22.6 -32.35 21.8L-33.15 21.1Q-34.35 19.8 -34.05 18.6L-30.45 5.55L-30.3 6.1Q-29.85 7.6 -28.9 8.85L-27 10.75L-23.65 12.65L-22.15 12.75L-21.95 12.8L-21.7 12.8L-21.9 13.6L-24.15 21.85" />
<radialGradient
id="RadialGradID_751" gradientUnits="userSpaceOnUse" gradientTransform="matrix(0.0267639, 0, 0, 0.0267639, -12.65, 6.7)" spreadMethod ="pad" cx="0" cy="0" r="819.2" fx="0" fy="0" >
<stop  offset="0"  style="stop-color:#FFFFFF;stop-opacity:1" />
<stop  offset="0.937255"  style="stop-color:#999999;stop-opacity:1" />
</radialGradient>
<path style="fill:url(#RadialGradID_751) " d="M-30.45,5.55L-30.6 3.25Q-30.35 0.7 -28.4 -1.15L-27.25 -2.1L-25.85 -2.95L-25.7 -3.05L-25.65 -3.05L-25.5 -3.15L-23.5 -4L-23.4 -4.05L-23.25 -4.1L-22.4 -5.6L-18.15 -13.45L-15.35 -5.55L-15.25 -5.2L-15.15 -4.9Q-12.65 -5.75 -10.4 -4.05L-10.35 -4L-3.65 -12.8L-1.5 -1.2L-1.4 -0.75L-1.75 2.55Q-0.4 4.7 -0.65 7.15Q-0.9 9.7 -2.95 11.65L-2.95 11.85L-6.45 14.15L-6.45 14.45L-6.5 14.45L-10.05 14.05L-21.7 12.8L-21.95 12.8L-22.15 12.75L-23.65 12.65L-27 10.75L-28.9 8.85Q-29.85 7.6 -30.3 6.1L-30.45 5.55M-25.6,-0.95Q-25.7 -0.35 -25.3 0.1Q-24.9 0.6 -24.25 0.7Q-23.6 0.75 -23.15 0.35Q-22.75 0 -22.6 -0.5L-22.6 -0.65L-22.6 -0.85Q-22.6 -1.4 -22.95 -1.8Q-23.3 -2.25 -23.95 -2.3L-25.1 -2.05L-25.45 -1.55L-25.6 -0.95M-9.5,0.3L-9.8 0.05L-10.55 -0.25L-11.65 0.05Q-12.15 0.45 -12.2 1.1Q-12.3 1.75 -11.9 2.25Q-11.5 2.7 -10.85 2.8L-9.75 2.45Q-9.25 2.1 -9.2 1.45Q-9.1 0.8 -9.5 0.3M-15.5,10.6L-15.5 10.55L-17.85 10.3L-15.5 10.6M-9.9,13.15L-10.05 13.8L-9.95 13.4L-9.9 13.15M-21.95,12.45L-21.95 12.4L-22.15 12.75L-21.95 12.45" />
<path style="fill:#FFFFFF;fill-opacity:1" d="M-25.45,-1.55L-25.1 -2.05L-23.95 -2.3Q-23.3 -2.25 -22.95 -1.8Q-22.6 -1.4 -22.6 -0.85L-22.6 -0.65L-22.6 -0.5Q-22.75 0 -23.15 0.35Q-23.6 0.75 -24.25 0.7Q-24.9 0.6 -25.3 0.1Q-25.7 -0.35 -25.6 -0.95L-25.45 -1.55M-9.2,1.45Q-9.25 2.1 -9.75 2.45L-10.85 2.8Q-11.5 2.7 -11.9 2.25Q-12.3 1.75 -12.2 1.1Q-12.15 0.45 -11.65 0.05L-10.55 -0.25L-9.8 0.05L-9.5 0.3Q-9.1 0.8 -9.2 1.45" />
<radialGradient
id="RadialGradID_752" gradientUnits="userSpaceOnUse" gradientTransform="matrix(0.0352783, 0, 0, 0.0352783, -16.25, 6.65)" spreadMethod ="pad" cx="0" cy="0" r="819.2" fx="0" fy="0" >
<stop  offset="0"  style="stop-color:#FFFFFF;stop-opacity:1" />
<stop  offset="0.937255"  style="stop-color:#999999;stop-opacity:0.6" />
</radialGradient>
<path style="fill:url(#RadialGradID_752) " d="M-17.85,10.3L-15.5 10.55L-15.5 10.6L-17.85 10.3" />
<path style="fill:#999999;fill-opacity:1" d="M-9.95,13.4L-10.05 13.8L-9.9 13.15L-9.95 13.4M-22.15,12.75L-21.95 12.4L-21.95 12.45L-22.15 12.75M-23.35,23.55L-23.4 23.5L-23.25 23.6L-23.35 23.55" />
<path style="fill:none;stroke-width:2;stroke-linecap:round;stroke-linejoin:round;stroke-miterlimit:3;stroke:#666666;stroke-opacity:1" d="M25.6,-19Q29.4 -23.4 31.85 -18.9L32.1 -18.7Q35.55 -15.2 37.6 -19" />
<path style="fill:none;stroke-width:1.5;stroke-linecap:round;stroke-linejoin:round;stroke-miterlimit:3;stroke:#666666;stroke-opacity:1" d="M-25.45,-1.55L-25.1 -2.05L-23.95 -2.3Q-23.3 -2.25 -22.95 -1.8Q-22.6 -1.4 -22.6 -0.85L-22.6 -0.65L-22.6 -0.5Q-22.75 0 -23.15 0.35Q-23.6 0.75 -24.25 0.7Q-24.9 0.6 -25.3 0.1Q-25.7 -0.35 -25.6 -0.95L-25.45 -1.55M-9.2,1.45Q-9.25 2.1 -9.75 2.45L-10.85 2.8Q-11.5 2.7 -11.9 2.25Q-12.3 1.75 -12.2 1.1Q-12.15 0.45 -11.65 0.05L-10.55 -0.25L-9.8 0.05L-9.5 0.3Q-9.1 0.8 -9.2 1.45M-6.35,8.65L-6.6 11.15M-8.6,7.9L-8.95 11.3M-20.85,0.5L-15.85 1.05Q-17.35 5.5 -15.05 10.45M-23.45,11.05L-23.35 9.7" />
<path style="fill:none;stroke-width:1.5;stroke-linecap:round;stroke-linejoin:round;stroke-miterlimit:3;stroke:#666666;stroke-opacity:1" d="M-22.4,-5.6L-18.15 -13.45L-15.35 -5.55L-15.25 -5.2M-10.4,-4.05L-10.35 -4L-3.65 -12.8L-1.5 -1.2M-20.85,0.5L-20.85 10L-13.5 10.9L-13.55 12.45M-23.35,9.7L-20.9 10L-20.85 10" />
</g>
</svg>
