<?xml version="1.0" encoding="utf-8"?>
<svg version="1.1" id="Layer_1"
xmlns="http://www.w3.org/2000/svg"
xmlns:xlink="http://www.w3.org/1999/xlink"
xmlns:author="http://www.sothink.com"
width="36px" height="28px"
xml:space="preserve">
<g id="357" transform="matrix(1, 0, 0, 1, 17.8, 13.95)">
<linearGradient
id="LinearGradID_1329" gradientUnits="userSpaceOnUse" gradientTransform="matrix(0.00299072, -0.00767517, 0.0075531, 0.00294495, -0.75, -5)" spreadMethod ="pad" x1="-819.2" y1="0" x2="819.2" y2="0" >
<stop  offset="0" style="stop-color:#FAB849;stop-opacity:1" />
<stop  offset="0.509804" style="stop-color:#FBEFAE;stop-opacity:1" />
<stop  offset="1" style="stop-color:#F8BC5A;stop-opacity:1" />
<stop  offset="1" style="stop-color:#F4B7B7;stop-opacity:1" />
</linearGradient>
<path style="fill:url(#LinearGradID_1329) " d="M2.45,1.4L2.2 1.45L-1.25 0.1L-2.35 0.05L-2.75 0.85L-6.65 -0.65L-8.5 -1.35L-9.2 -1.6L-13.4 -3.2L-13.6 -3.25L-13.85 -3.35L-14.35 -3.55L-15 -3.8L-15.7 -4.25L-12.6 -5.15L-10.2 -6.05L-7.9 -6.85L-5.75 -7.9L-3.65 -8.95L-2.1 -9.85L0.9 -11.85L1.8 -11.45L13.75 -6.7L14.55 -6.2L11.15 -1.6Q9.45 -0.85 7.7 -0.25L4.3 1L3.6 1.25L2.45 1.4" />
<radialGradient
id="RadialGradID_1330" gradientUnits="userSpaceOnUse" gradientTransform="matrix(0.0126343, 0, 0, 0.0126343, 10.7, 1.3)" spreadMethod ="pad" cx="0" cy="0" r="819.2" fx="0" fy="0" >
<stop  offset="0"  style="stop-color:#FAE6BE;stop-opacity:1" />
<stop  offset="0.498039"  style="stop-color:#D38A12;stop-opacity:1" />
<stop  offset="1"  style="stop-color:#F8E5BD;stop-opacity:1" />
<stop  offset="1"  style="stop-color:#D7D7D7;stop-opacity:1" />
</radialGradient>
<path style="fill:url(#RadialGradID_1330) " d="M10.1,4.25L8.15 3.55L16.15 -7.2L17.55 -6.45L10.65 3.45L10.1 4.25" />
<radialGradient
id="RadialGradID_1331" gradientUnits="userSpaceOnUse" gradientTransform="matrix(0.0116577, 0, 0, 0.0116577, 13.4, -4.15)" spreadMethod ="pad" cx="0" cy="0" r="819.2" fx="0" fy="0" >
<stop  offset="0"  style="stop-color:#F0B05B;stop-opacity:1" />
<stop  offset="0.498039"  style="stop-color:#79420B;stop-opacity:1" />
<stop  offset="1"  style="stop-color:#EAB359;stop-opacity:1" />
<stop  offset="1"  style="stop-color:#D7D7D7;stop-opacity:1" />
</radialGradient>
<path style="fill:url(#RadialGradID_1331) " d="M7.45,3.3L8.15 2.35L8.3 2.2L11.15 -1.6L14.55 -6.2L15.4 -7.35L16.15 -7.2L8.15 3.55L7.45 3.3" />
<linearGradient
id="LinearGradID_1332" gradientUnits="userSpaceOnUse" gradientTransform="matrix(0.00392151, 0.0112762, -0.00689697, 0.00234985, 2.15, 8.1)" spreadMethod ="pad" x1="-819.2" y1="0" x2="819.2" y2="0" >
<stop  offset="0" style="stop-color:#BCBCBC;stop-opacity:1" />
<stop  offset="1" style="stop-color:#585957;stop-opacity:1" />
<stop  offset="1" style="stop-color:#FF2B2B;stop-opacity:1" />
<stop  offset="1" style="stop-color:#FFFFFF;stop-opacity:1" />
<stop  offset="1" style="stop-color:#D4D0C8;stop-opacity:1" />
</linearGradient>
<path style="fill:url(#LinearGradID_1332) " d="M4.4,1.05L5.05 1.2L8.3 2.2L8.15 2.35L4.4 1.05M3.6,1.25L3.45 1.3L2.9 1.6L2.2 1.45L2.45 1.4L3.6 1.25" />
<radialGradient
id="RadialGradID_1333" gradientUnits="userSpaceOnUse" gradientTransform="matrix(0.00408936, 0, 0, 0.00408936, 6.2, 2.05)" spreadMethod ="pad" cx="0" cy="0" r="819.2" fx="0" fy="0" >
<stop  offset="0"  style="stop-color:#F0B05B;stop-opacity:1" />
<stop  offset="0.498039"  style="stop-color:#79420B;stop-opacity:1" />
<stop  offset="1"  style="stop-color:#EAB359;stop-opacity:1" />
<stop  offset="1"  style="stop-color:#D7D7D7;stop-opacity:1" />
</radialGradient>
<path style="fill:url(#RadialGradID_1333) " d="M8.15,2.35L7.45 3.3L2.9 1.6L3.45 1.3L3.6 1.25L4.3 1L4.4 1.05L8.15 2.35" />
<radialGradient
id="RadialGradID_1334" gradientUnits="userSpaceOnUse" gradientTransform="matrix(0.0124512, 0, 0, 0.0124512, 6.6, 4.05)" spreadMethod ="pad" cx="0" cy="0" r="819.2" fx="0" fy="0" >
<stop  offset="0"  style="stop-color:#FAE6BE;stop-opacity:1" />
<stop  offset="0.498039"  style="stop-color:#D38A12;stop-opacity:1" />
<stop  offset="1"  style="stop-color:#F8E5BD;stop-opacity:1" />
<stop  offset="1"  style="stop-color:#D7D7D7;stop-opacity:1" />
</radialGradient>
<path style="fill:url(#RadialGradID_1334) " d="M-1.4,2.65L-2.45 2.25L-1.25 0.1L2.2 1.45L2.9 1.6L7.45 3.3L8.15 3.55L10.1 4.25L14.35 5.7L16.5 6.45L15.55 8.6L14.85 8.4L8.55 6.25L6.65 5.6L5.95 5.35L-1.4 2.65" />
<radialGradient
id="RadialGradID_1335" gradientUnits="userSpaceOnUse" gradientTransform="matrix(0.00823975, 0, 0, 0.00823975, 4.8, 7.35)" spreadMethod ="pad" cx="0" cy="0" r="819.2" fx="0" fy="0" >
<stop  offset="0"  style="stop-color:#F0B05B;stop-opacity:1" />
<stop  offset="0.498039"  style="stop-color:#79420B;stop-opacity:1" />
<stop  offset="1"  style="stop-color:#EAB359;stop-opacity:1" />
<stop  offset="1"  style="stop-color:#D7D7D7;stop-opacity:1" />
</radialGradient>
<path style="fill:url(#RadialGradID_1335) " d="M1.05,12.95L1 12.85L0.65 12.35L5.95 5.35L6.65 5.6L1.05 12.95" />
<path style="fill:#000000;fill-opacity:0.211765" d="M10.1,4.25L10.65 3.45L14.35 5.7L10.1 4.25M8.55,6.25L14.85 8.4Q14 9 13 9.1L10.8 9.8L8.55 10.5L6.5 11.15L4.4 11.8L8.55 6.25M5.95,5.35L0.65 12.35L1 12.85L-2.5 12.7L-5.1 11.5L-7.6 10.15L-10.75 8.4Q-11.65 7.95 -12 7.15L-12 6.8L-12 6.65L-11 6L-1.4 2.65L5.95 5.35" />
<radialGradient
id="RadialGradID_1336" gradientUnits="userSpaceOnUse" gradientTransform="matrix(0.00964355, 0, 0, 0.00964355, 6.45, 7.3)" spreadMethod ="pad" cx="0" cy="0" r="819.2" fx="0" fy="0" >
<stop  offset="0"  style="stop-color:#FAE6BE;stop-opacity:1" />
<stop  offset="0.498039"  style="stop-color:#D38A12;stop-opacity:1" />
<stop  offset="1"  style="stop-color:#F8E5BD;stop-opacity:1" />
<stop  offset="1"  style="stop-color:#D7D7D7;stop-opacity:1" />
</radialGradient>
<path style="fill:url(#RadialGradID_1336) " d="M4.4,11.8L2.95 13.65L1.05 12.95L6.65 5.6L8.55 6.25L4.4 11.8" />
<radialGradient
id="RadialGradID_1337" gradientUnits="userSpaceOnUse" gradientTransform="matrix(0.00537109, 0, 0, 0.00537109, -0.8, -12.3)" spreadMethod ="pad" cx="0" cy="0" r="819.2" fx="0" fy="0" >
<stop  offset="0"  style="stop-color:#FAE6BE;stop-opacity:1" />
<stop  offset="0.498039"  style="stop-color:#D38A12;stop-opacity:1" />
<stop  offset="1"  style="stop-color:#F8E5BD;stop-opacity:1" />
<stop  offset="1"  style="stop-color:#D7D7D7;stop-opacity:1" />
</radialGradient>
<path style="fill:url(#RadialGradID_1337) " d="M-3.65,-8.95L-0.1 -13.7L0.55 -13.5L-2.1 -9.85L-3.65 -8.95" />
<radialGradient
id="RadialGradID_1338" gradientUnits="userSpaceOnUse" gradientTransform="matrix(0.00457764, 0, 0, 0.00457764, 0.35, -12.7)" spreadMethod ="pad" cx="0" cy="0" r="819.2" fx="0" fy="0" >
<stop  offset="0"  style="stop-color:#FAE6BE;stop-opacity:1" />
<stop  offset="0.498039"  style="stop-color:#D38A12;stop-opacity:1" />
<stop  offset="1"  style="stop-color:#F8E5BD;stop-opacity:1" />
<stop  offset="1"  style="stop-color:#D7D7D7;stop-opacity:1" />
</radialGradient>
<path style="fill:url(#RadialGradID_1338) " d="M0.9,-11.85L-2.1 -9.85L0.55 -13.5L2.1 -12.6L1.8 -11.45L0.9 -11.85" />
<radialGradient
id="RadialGradID_1339" gradientUnits="userSpaceOnUse" gradientTransform="matrix(0.00195313, 0, 0, 0.00195313, -16.8, -5.8)" spreadMethod ="pad" cx="0" cy="0" r="819.2" fx="0" fy="0" >
<stop  offset="0"  style="stop-color:#FAE6BE;stop-opacity:1" />
<stop  offset="0.498039"  style="stop-color:#D38A12;stop-opacity:1" />
<stop  offset="1"  style="stop-color:#F8E5BD;stop-opacity:1" />
<stop  offset="1"  style="stop-color:#D7D7D7;stop-opacity:1" />
</radialGradient>
<path style="fill:url(#RadialGradID_1339) " d="M-16.65,-4.35L-17.55 -4.8L-16.35 -7L-15.4 -6.55L-16.65 -4.35" />
<radialGradient
id="RadialGradID_1340" gradientUnits="userSpaceOnUse" gradientTransform="matrix(0.00341797, 0, 0, 0.00341797, -15.3, -5.8)" spreadMethod ="pad" cx="0" cy="0" r="819.2" fx="0" fy="0" >
<stop  offset="0"  style="stop-color:#FAE6BE;stop-opacity:1" />
<stop  offset="0.498039"  style="stop-color:#D38A12;stop-opacity:1" />
<stop  offset="1"  style="stop-color:#F8E5BD;stop-opacity:1" />
<stop  offset="1"  style="stop-color:#D7D7D7;stop-opacity:1" />
</radialGradient>
<path style="fill:url(#RadialGradID_1340) " d="M-15.7,-4.25L-15.95 -4.2L-16.65 -4.35L-15.4 -6.55L-12.6 -5.15L-15.7 -4.25" />
<linearGradient
id="LinearGradID_1341" gradientUnits="userSpaceOnUse" gradientTransform="matrix(0.00224304, -0.00549316, 0.00747681, 0.00306702, -0.7, -5)" spreadMethod ="pad" x1="-819.2" y1="0" x2="819.2" y2="0" >
<stop  offset="0" style="stop-color:#053FEB;stop-opacity:1" />
<stop  offset="0.498039" style="stop-color:#5782FF;stop-opacity:1" />
<stop  offset="1" style="stop-color:#0F00C8;stop-opacity:1" />
<stop  offset="1" style="stop-color:#FF2B2B;stop-opacity:1" />
<stop  offset="1" style="stop-color:#FFFFFF;stop-opacity:1" />
</linearGradient>
<path style="fill:url(#LinearGradID_1341) " d="M-13.4,-3.2L-13.6 -3.25L-13.4 -3.2M-13.85,-3.35L-14.35 -3.55L-13.85 -3.35" />
<radialGradient
id="RadialGradID_1342" gradientUnits="userSpaceOnUse" gradientTransform="matrix(0.00964355, 0, 0, 0.00964355, -9.85, -0.25)" spreadMethod ="pad" cx="0" cy="0" r="819.2" fx="0" fy="0" >
<stop  offset="0"  style="stop-color:#F0B05B;stop-opacity:1" />
<stop  offset="0.498039"  style="stop-color:#79420B;stop-opacity:1" />
<stop  offset="1"  style="stop-color:#EAB359;stop-opacity:1" />
<stop  offset="1"  style="stop-color:#D7D7D7;stop-opacity:1" />
</radialGradient>
<path style="fill:url(#RadialGradID_1342) " d="M-14.35,6.25L-14.65 5.65L-9.2 -1.6L-8.5 -1.35L-14.35 6.25" />
<radialGradient
id="RadialGradID_1343" gradientUnits="userSpaceOnUse" gradientTransform="matrix(0.00921631, 0, 0, 0.00921631, -9.65, 0.45)" spreadMethod ="pad" cx="0" cy="0" r="819.2" fx="0" fy="0" >
<stop  offset="0"  style="stop-color:#F0B05B;stop-opacity:1" />
<stop  offset="0.498039"  style="stop-color:#79420B;stop-opacity:1" />
<stop  offset="1"  style="stop-color:#EAB359;stop-opacity:1" />
<stop  offset="1"  style="stop-color:#D7D7D7;stop-opacity:1" />
</radialGradient>
<path style="fill:url(#RadialGradID_1343) " d="M-6.65,-0.65L-12.3 6.9L-12.8 6.9L-14.35 6.25L-8.5 -1.35L-6.65 -0.65" />
<radialGradient
id="RadialGradID_1344" gradientUnits="userSpaceOnUse" gradientTransform="matrix(0.00177002, 0, 0, 0.00177002, -2.3, 1.1)" spreadMethod ="pad" cx="0" cy="0" r="819.2" fx="0" fy="0" >
<stop  offset="0"  style="stop-color:#FAE6BE;stop-opacity:1" />
<stop  offset="0.498039"  style="stop-color:#D38A12;stop-opacity:1" />
<stop  offset="1"  style="stop-color:#F8E5BD;stop-opacity:1" />
<stop  offset="1"  style="stop-color:#D7D7D7;stop-opacity:1" />
</radialGradient>
<path style="fill:url(#RadialGradID_1344) " d="M-2.35,0.05L-1.25 0.1L-2.45 2.25L-3.3 1.9L-2.75 0.85L-2.35 0.05" />
<path style="fill:none;stroke-width:0.75;stroke-linecap:round;stroke-linejoin:round;stroke-miterlimit:3;stroke:#666666;stroke-opacity:1" d="M-2.75,0.85L-6.65 -0.65M-8.5,-1.35L-9.2 -1.6L-13.4 -3.2M-13.6,-3.25L-13.85 -3.35L-14.35 -3.55L-15 -3.8L-15.7 -4.25L-15.95 -4.2M-12.6,-5.15L-10.2 -6.05L-7.9 -6.85L-5.75 -7.9L-3.65 -8.95L-2.1 -9.85L0.9 -11.85L1.8 -11.45L13.75 -6.7L14.55 -6.2M4.3,1L7.7 -0.25Q9.45 -0.85 11.15 -1.6M4.3,1L3.6 1.25L3.45 1.3L2.9 1.6M-13.6,-3.25L-13.4 -3.2M-12.6,-5.15L-15.7 -4.25M-8.5,-1.35L-6.65 -0.65" />
<path style="fill:none;stroke-width:0.5;stroke-linecap:round;stroke-linejoin:round;stroke-miterlimit:3;stroke:#666666;stroke-opacity:1" d="M11.15,-1.6L14.55 -6.2L15.4 -7.35L16.15 -7.2L17.55 -6.45L10.65 3.45M10.1,4.25L14.35 5.7L16.5 6.45L15.55 8.6L14.85 8.4M4.4,11.8L2.95 13.65L1.05 12.95L1 12.85L0.65 12.35L5.95 5.35L6.65 5.6L8.55 6.25L14.85 8.4M5.95,5.35L-1.4 2.65L-2.45 2.25L-3.3 1.9L-2.75 0.85M-6.65,-0.65L-12.3 6.9L-12.8 6.9L-14.35 6.25L-14.65 5.65L-9.2 -1.6M-13.4,-3.2L-13.6 -3.25L-13.85 -3.35L-14.35 -3.55M-15.95,-4.2L-16.65 -4.35L-17.55 -4.8L-16.35 -7L-15.4 -6.55L-12.6 -5.15M-3.65,-8.95L-0.1 -13.7L0.55 -13.5L2.1 -12.6L1.8 -11.45M16.15,-7.2L8.15 3.55L10.1 4.25L10.65 3.45M11.15,-1.6L8.3 2.2L8.15 2.35L7.45 3.3L8.15 3.55M8.15,2.35L4.4 1.05L4.3 1M2.2,1.45L2.9 1.6L7.45 3.3M0.55,-13.5L-2.1 -9.85M-16.65,-4.35L-15.4 -6.55M-14.35,6.25L-8.5 -1.35M3.6,1.25L2.45 1.4L2.2 1.45L-1.25 0.1L-2.45 2.25M-1.25,0.1L-2.35 0.05L-2.75 0.85M6.65,5.6L1.05 12.95M2.45,1.4L3.45 1.3M4.4,11.8L8.55 6.25" />
</g>
</svg>
