<?xml version="1.0" encoding="utf-8"?>
<svg version="1.1" id="Layer_1"
xmlns="http://www.w3.org/2000/svg"
xmlns:xlink="http://www.w3.org/1999/xlink"
xmlns:author="http://www.sothink.com"
width="76px" height="16px"
xml:space="preserve">
<g id="711" transform="matrix(1, 0, 0, 1, 37.2, 29.1)">
<path style="fill:#378426;fill-opacity:1" d="M26.15,-26.4L27.25 -27.25L26.35 -26.3L26.15 -25.8Q26 -24.25 26.7 -22.95L27.5 -21.95Q25.9 -23.25 26.15 -26.4M32.9,-21.35L32.75 -21.95L32.4 -22.2L30.05 -22.05Q28.4 -22.6 27.9 -24.2Q28.1 -25.25 28.75 -26.1L29.1 -26.6Q29.7 -27.6 28.5 -27.85L27.6 -27.45Q33.5 -31.2 37.9 -22.85Q35.05 -21.75 32.9 -21.35" />
<path style="fill:#2B5E1C;fill-opacity:1" d="M27.6,-27.45L28.5 -27.85Q29.7 -27.6 29.1 -26.6L28.75 -26.1Q28.1 -25.25 27.9 -24.2Q28.4 -22.6 30.05 -22.05L32.4 -22.2L32.75 -21.95L32.9 -21.35L32.3 -21.25L32.15 -21.2L32.05 -21.2L27.5 -21.95L26.7 -22.95Q26 -24.25 26.15 -25.8L26.35 -26.3L27.25 -27.25L27.6 -27.45" />
<path style="fill:none;stroke-width:1;stroke-linecap:round;stroke-linejoin:round;stroke-miterlimit:3;stroke:#265218;stroke-opacity:1" d="M27.6,-27.45L27.25 -27.25L26.15 -26.4Q25.9 -23.25 27.5 -21.95L32.05 -21.2L32.15 -21.2L32.3 -21.25L32.9 -21.35M27.6,-27.45Q33.5 -31.2 37.9 -22.85Q35.05 -21.75 32.9 -21.35" />
<path style="fill:#378426;fill-opacity:1" d="M-25.5,-18.95L-26.1 -19.7Q-27.25 -20.1 -27.25 -18.9L-27.2 -18.3Q-27.05 -17.25 -27.4 -16.25Q-28.65 -15.1 -30.35 -15.45L-32.3 -16.75L-32.7 -16.7L-33.15 -16.25Q-34.8 -17.7 -36.7 -20.1Q-28.8 -25.05 -25.5 -18.95M-28.15,-14.1L-27 -14.55Q-25.75 -15.4 -25.1 -16.75L-25 -17.3L-25.3 -18.55L-24.75 -17.25Q-26.15 -14.45 -28.15 -14.1" />
<path style="fill:#2B5E1C;fill-opacity:1" d="M-25,-17.3L-25.1 -16.75Q-25.75 -15.4 -27 -14.55L-28.15 -14.1L-32.5 -15.7L-32.55 -15.8L-32.7 -15.9L-33.15 -16.25L-32.7 -16.7L-32.3 -16.75L-30.35 -15.45Q-28.65 -15.1 -27.4 -16.25Q-27.05 -17.25 -27.2 -18.3L-27.25 -18.9Q-27.25 -20.1 -26.1 -19.7L-25.5 -18.95L-25.5 -18.9L-25.3 -18.55L-25 -17.3" />
<path style="fill:none;stroke-width:1;stroke-linecap:round;stroke-linejoin:round;stroke-miterlimit:3;stroke:#265218;stroke-opacity:1" d="M-25.3,-18.55L-25.5 -18.9L-25.5 -18.95M-33.15,-16.25L-32.7 -15.9L-32.55 -15.8L-32.5 -15.7L-28.15 -14.1M-25.3,-18.55L-24.75 -17.25Q-26.15 -14.45 -28.15 -14.1M-33.15,-16.25Q-34.8 -17.7 -36.7 -20.1Q-28.8 -25.05 -25.5 -18.95" />
<path style="fill:#378426;fill-opacity:1" d="M7.4,-25.15Q3.7 -20.8 -1.65 -25.55Q3.5 -29.85 7.4 -25.15" />
<path style="fill:none;stroke-width:1;stroke-linecap:round;stroke-linejoin:round;stroke-miterlimit:3;stroke:#265218;stroke-opacity:1" d="M-1.65,-25.55Q3.7 -20.8 7.4 -25.15Q3.5 -29.85 -1.65 -25.55z" />
</g>
</svg>
