<?xml version="1.0" encoding="utf-8"?>
<svg version="1.1" id="Layer_1"
xmlns="http://www.w3.org/2000/svg"
xmlns:xlink="http://www.w3.org/1999/xlink"
xmlns:author="http://www.sothink.com"
width="103px" height="71px"
xml:space="preserve">
<g id="164" transform="matrix(1, 0, 0, 1, 41.35, 48.65)">
<path style="fill:#000000;fill-opacity:0.101961" d="M25.5,-26.8Q40 -29.55 53.55 -23.95Q56 -22.95 57.85 -21.15Q63.9 -15.4 57.9 -9.65Q51.5 -9.25 46.25 -5.65L30.8 -6.25Q26.05 -9.45 20.55 -10.35Q18.2 -12.7 14.95 -12.95Q14.45 -23.9 25.3 -26.75Q15.25 -25.75 6 -28.85L5.55 -29.75Q2.85 -33.5 -2 -32.9L-2.65 -35Q-3.8 -38.85 -1.15 -41.55Q2.9 -45.6 8.75 -46.75Q24.85 -50.15 35.65 -38.75L35.55 -36.7Q35.15 -32.5 32.1 -29.3L29.95 -29.25Q26.95 -29.25 25.5 -26.8M24.2,-2.2L24.55 0.05Q24.75 2.8 22.45 4.1L20.5 4.2Q14.45 4.1 10.7 8.2L7.65 9.15L5.35 8.45Q2.65 7.85 0.35 9.5Q-4 6.55 -9.15 6.05L-10.4 5.25Q-8.55 9.3 -9.55 13.55L-11.75 14.25L-12.2 15.2L-13.85 15.55Q-16.2 16.2 -18.05 18.2L-22.2 18.6Q-24.35 18.9 -25.55 20.8Q-28.75 22.2 -32.2 21.2Q-42.75 18.15 -41.15 7.1Q-40.75 4.4 -38.5 2.9Q-25.75 -6.1 -12.75 2.65L-13.25 1.45Q-14.35 -1.3 -13.6 -4.35Q-1.9 -10.3 11.2 -10.5Q20.5 -10.6 24.2 -2.2" />
<path style="fill:#898F92;fill-opacity:1" d="M-0.6,-41.1Q-0.25 -42.7 1.1 -43.55Q12.65 -50.8 26.3 -46.65Q36.2 -43.7 32.9 -34.45L30.9 -32.1Q27.8 -32.35 25.5 -30.6L24.85 -29.9L10.05 -30.65Q8.95 -31.9 7.15 -31.75Q4.75 -35.9 -0.15 -35.4L-0.9 -37.4Q-1 -39.4 -0.6 -41.1" />
<path style="fill:#838889;fill-opacity:1" d="M28.15,-11.1L27.25 -11.25Q25.25 -13.7 22.1 -13.2Q20.2 -15.65 17 -15.55Q17.8 -25.65 28.05 -28.3Q44.65 -32.6 56.6 -20.4L56.05 -22.65Q59 -19.9 58.2 -16.15Q57.75 -14 56.05 -12.55L55 -12.65Q53.5 -12.65 53.1 -11.9L52.15 -11.85Q46.75 -11.25 45.45 -8.9Q41.75 -8.5 37.4 -8.85L36.6 -9.1L32.8 -9.3L31.4 -9.45Q29.95 -10.75 28.15 -11.1M14.2,2.25Q10.45 3.3 10.25 5.2L7.45 6.05Q6.5 5.65 5.2 5.35Q1.55 4.5 0.8 6.35L-1.2 5.95Q-2.05 4.75 -4.5 3.5Q-7 2.3 -7.8 3.25Q-13.8 -0.75 -10.15 -6.6Q-0.6 -11.8 10 -10.45Q17.15 -9.6 20.6 -3.15Q23.3 1.8 17.9 2.65Q17.15 1.45 14.2 2.25M-35.55,16.45Q-41.25 12.65 -38.55 6.3Q-34.05 -4.3 -22.1 -2.3Q-10.3 -0.35 -10.85 10.95Q-12.3 10.8 -13.15 11.9L-13.35 12.45Q-16.55 12.65 -18.7 15.2Q-22.9 14.65 -25.5 17.55Q-30.8 19.65 -35.55 16.45" />
<path style="fill:none;stroke-width:1;stroke-linecap:round;stroke-linejoin:round;stroke-miterlimit:3;stroke:#515759;stroke-opacity:1" d="M32.9,-34.45Q36.2 -43.7 26.3 -46.65Q12.65 -50.8 1.1 -43.55Q-0.25 -42.7 -0.6 -41.1Q-1 -39.4 -0.9 -37.4M31.4,-9.45L32.8 -9.3M37.4,-8.85Q41.75 -8.5 45.45 -8.9M56.05,-12.55Q57.75 -14 58.2 -16.15Q59 -19.9 56.05 -22.65L56.6 -20.4Q44.65 -32.6 28.05 -28.3Q17.8 -25.65 17 -15.55M17.9,2.65Q23.3 1.8 20.6 -3.15Q17.15 -9.6 10 -10.45Q-0.6 -11.8 -10.15 -6.6Q-13.8 -0.75 -7.8 3.25M-1.2,5.95L0.8 6.35M7.45,6.05L10.25 5.2M-10.85,10.95Q-10.3 -0.35 -22.1 -2.3Q-34.05 -4.3 -38.55 6.3Q-41.25 12.65 -35.55 16.45Q-30.8 19.65 -25.5 17.55" />
<radialGradient
id="RadialGradID_561" gradientUnits="userSpaceOnUse" gradientTransform="matrix(0.0263062, 0, 0, 0.0263062, -19.05, -0.25)" spreadMethod ="pad" cx="0" cy="0" r="819.2" fx="0" fy="0" >
<stop  offset="0"  style="stop-color:#ADB1B4;stop-opacity:1" />
<stop  offset="0.658824"  style="stop-color:#979C9F;stop-opacity:1" />
</radialGradient>
<path style="fill:url(#RadialGradID_561) " d="M-11.5,7.15Q-13.25 12.6 -19.3 13.85L-30.7 15.3Q-37.9 15.4 -39.4 8.25Q-38.6 -2.1 -28 -3.35Q-16.55 -4.4 -11.6 5.35Q-11.15 6.15 -11.5 7.15" />
<radialGradient
id="RadialGradID_562" gradientUnits="userSpaceOnUse" gradientTransform="matrix(0.0285645, 0, 0, 0.0285645, 41.3, -14.9)" spreadMethod ="pad" cx="0" cy="0" r="819.2" fx="0" fy="0" >
<stop  offset="0"  style="stop-color:#ADB1B4;stop-opacity:1" />
<stop  offset="0.658824"  style="stop-color:#979C9F;stop-opacity:1" />
</radialGradient>
<path style="fill:url(#RadialGradID_562) " d="M50.4,-26.6Q55.65 -25.4 56.3 -20.35Q56.55 -18.5 55 -17.55Q40.5 -9.25 23.95 -15.2Q19.6 -16.6 18.9 -19.4Q18.65 -20.7 19.55 -21.65Q29.6 -31.95 44.75 -27.7L50.4 -26.6" />
<radialGradient
id="RadialGradID_563" gradientUnits="userSpaceOnUse" gradientTransform="matrix(0.0200348, 0.00175476, -0.00175476, 0.0200348, 16.65, -37.3)" spreadMethod ="pad" cx="0" cy="0" r="819.2" fx="0" fy="0" >
<stop  offset="0"  style="stop-color:#ADB1B4;stop-opacity:1" />
<stop  offset="0.658824"  style="stop-color:#979C9F;stop-opacity:1" />
</radialGradient>
<path style="fill:url(#RadialGradID_563) " d="M14.55,-32.95Q9.7 -33.5 5.5 -35.55Q2.1 -37.15 1.15 -40.65L1.1 -41.5Q1.1 -42.45 1.6 -42.85Q14.15 -50.9 28.25 -45.1Q33.8 -42.9 31.6 -38Q24.7 -31.5 14.55 -32.95" />
<path style="fill:none;stroke-width:1;stroke-linecap:round;stroke-linejoin:round;stroke-miterlimit:3;stroke:#6A7377;stroke-opacity:1" d="M18.55,-8.3Q13.9 -10.65 10.45 -11.05L10.2 -11.1M-9.8,-4.3L-9.8 -4.25" />
<path style="fill:none;stroke-width:1;stroke-linecap:round;stroke-linejoin:round;stroke-miterlimit:3;stroke:#9EA6A7;stroke-opacity:1" d="M31.6,-38Q33.8 -42.9 28.25 -45.1Q14.15 -50.9 1.6 -42.85Q1.1 -42.45 1.1 -41.5L1.15 -40.65M44.75,-27.7Q29.6 -31.95 19.55 -21.65Q18.65 -20.7 18.9 -19.4M10.2,-11.1Q1.7 -11 -6.45 -8.85Q-10.85 -7.75 -9.8 -4.3" />
<path style="fill:none;stroke-width:1;stroke-linecap:round;stroke-linejoin:round;stroke-miterlimit:3;stroke:#838889;stroke-opacity:1" d="M1.15,-40.65Q2.1 -37.15 5.5 -35.55Q9.7 -33.5 14.55 -32.95Q24.7 -31.5 31.6 -38M18.9,-19.4Q19.6 -16.6 23.95 -15.2Q40.5 -9.25 55 -17.55Q56.55 -18.5 56.3 -20.35Q55.65 -25.4 50.4 -26.6L44.75 -27.7M-9.8,-4.25Q-2.25 5.3 9.9 1.65Q15.8 -0.1 20.75 -3.55Q21.9 -4.35 21.25 -5.65Q20.3 -7.45 18.55 -8.3M-11.6,5.35Q-16.55 -4.4 -28 -3.35Q-38.6 -2.1 -39.4 8.25Q-37.9 15.4 -30.7 15.3L-19.3 13.85Q-13.25 12.6 -11.5 7.15Q-11.15 6.15 -11.6 5.35" />
</g>
</svg>
