<?xml version="1.0" encoding="utf-8"?>
<svg version="1.1" id="Layer_1"
xmlns="http://www.w3.org/2000/svg"
xmlns:xlink="http://www.w3.org/1999/xlink"
xmlns:author="http://www.sothink.com"
width="22px" height="53px"
xml:space="preserve">
<g id="282" transform="matrix(1, 0, 0, 1, -33.75, 34.55)">
<path style="fill:#FCFFC8;fill-opacity:1" d="M42.25,-23.9Q42.25 -24.7 42.85 -25.2L43.35 -25.55L44.25 -25.75L45 -25.6Q45.35 -25.5 45.7 -25.2L46.05 -24.8L46.05 -24.75L46.25 -23.9L45.9 -22.85L45.7 -22.65Q45.15 -22.2 44.5 -22.1L44.25 -22.1Q43.4 -22.1 42.85 -22.65L42.65 -22.8Q42.25 -23.3 42.25 -23.9" />
<path style="fill:#993300;fill-opacity:1" d="M44.45,-6.9L44.55 -6.95L46.8 -7.55L48.2 -9.85L52.05 -9.3Q55 -8.55 55 -7.45Q55 -6.9 54 -6.4L52.05 -5.75Q49.15 -5 45 -5Q40.85 -5 37.9 -5.75L36 -6.4Q35.05 -6.9 35 -7.5Q35.05 -8.55 37.9 -9.3L40.25 -9.7L40.8 -8.95L41.7 -7.55L44.35 -6.85L44.45 -6.9M44.15,-7.8L42.85 -9.95L44.15 -10L44.15 -7.8" />
<linearGradient
id="LinearGradID_1003" gradientUnits="userSpaceOnUse" gradientTransform="matrix(0.012207, 0, 0, 0.0152588, 45, 5)" spreadMethod ="pad" x1="-819.2" y1="0" x2="819.2" y2="0" >
<stop  offset="0" style="stop-color:#FF0000;stop-opacity:1" />
<stop  offset="0.168627" style="stop-color:#FFFF00;stop-opacity:1" />
<stop  offset="0.364706" style="stop-color:#00FF00;stop-opacity:1" />
<stop  offset="0.498039" style="stop-color:#00FFFF;stop-opacity:1" />
<stop  offset="0.666667" style="stop-color:#0000FF;stop-opacity:1" />
<stop  offset="0.831373" style="stop-color:#FF00FF;stop-opacity:1" />
<stop  offset="1" style="stop-color:#FF0000;stop-opacity:1" />
</linearGradient>
<path style="fill:url(#LinearGradID_1003) " d="M36,-6.4L37.9 -5.75Q40.85 -5 45 -5Q49.15 -5 52.05 -5.75L54 -6.4Q55 -6.9 55 -7.45L55 15Q55 16.05 52.05 16.75L45 17.5L37.9 16.75Q35.05 16.05 35 15L35 -7.5Q35.05 -6.9 36 -6.4" />
<linearGradient
id="LinearGradID_1004" gradientUnits="userSpaceOnUse" gradientTransform="matrix(0.00540161, 0.00164795, -0.000930786, 0.00305176, 38.7, -26.2)" spreadMethod ="pad" x1="-819.2" y1="0" x2="819.2" y2="0" >
<stop  offset="0" style="stop-color:#F4A6DA;stop-opacity:1" />
<stop  offset="1" style="stop-color:#FFFFFF;stop-opacity:1" />
</linearGradient>
<path style="fill:url(#LinearGradID_1004) " d="M43.35,-25.55L42.85 -25.2Q42.25 -24.7 42.25 -23.9L37.85 -24.05L37.6 -24.15Q36 -24.85 34.85 -25.85Q34.25 -26.45 34.1 -27.1Q34.05 -27.6 34.3 -27.95L35.3 -28.55L37.3 -28.8Q39.2 -28.7 40.9 -27.8L41.2 -27.65Q43.25 -26.6 43.35 -25.55" />
<linearGradient
id="LinearGradID_1005" gradientUnits="userSpaceOnUse" gradientTransform="matrix(0.00498962, -0.00112915, 0.000656128, 0.00288391, 38.45, -21.75)" spreadMethod ="pad" x1="-819.2" y1="0" x2="819.2" y2="0" >
<stop  offset="0" style="stop-color:#F4A6DA;stop-opacity:1" />
<stop  offset="1" style="stop-color:#FFFFFF;stop-opacity:1" />
</linearGradient>
<path style="fill:url(#LinearGradID_1005) " d="M42.65,-22.8L42.3 -22.55Q41.2 -21.65 40.4 -20.3Q39.2 -19.75 37.95 -19.55Q34.3 -18.8 34.3 -20.75Q34.2 -22.8 37.6 -24.15L37.85 -24.05L42.25 -23.9Q42.25 -23.3 42.65 -22.8" />
<linearGradient
id="LinearGradID_1006" gradientUnits="userSpaceOnUse" gradientTransform="matrix(0.00157166, -0.00315857, 0.00473022, 0.00236511, 42, -18.45)" spreadMethod ="pad" x1="-819.2" y1="0" x2="819.2" y2="0" >
<stop  offset="0" style="stop-color:#F4A6DA;stop-opacity:1" />
<stop  offset="1" style="stop-color:#FFFFFF;stop-opacity:1" />
</linearGradient>
<path style="fill:url(#LinearGradID_1006) " d="M44.9,-19.7L44.25 -17.7L43.35 -16.25Q41.3 -13.15 39.9 -14.55Q38.3 -16.05 40.1 -19.8L40.4 -20.3Q41.2 -21.65 42.3 -22.55L42.65 -22.8L42.85 -22.65Q43.4 -22.1 44.25 -22.1L44.5 -22.1L44.5 -21.05L44.9 -19.75L44.9 -19.7" />
<linearGradient
id="LinearGradID_1007" gradientUnits="userSpaceOnUse" gradientTransform="matrix(-0.00163269, -0.00535583, 0.00331116, -0.00100708, 40.85, -9.65)" spreadMethod ="pad" x1="-819.2" y1="0" x2="819.2" y2="0" >
<stop  offset="0" style="stop-color:#60D101;stop-opacity:1" />
<stop  offset="0.521569" style="stop-color:#A9E969;stop-opacity:1" />
<stop  offset="1" style="stop-color:#68F40B;stop-opacity:1" />
</linearGradient>
<path style="fill:url(#LinearGradID_1007) " d="M44.15,-7.8L44.45 -6.9L44.35 -6.85L41.7 -7.55L40.8 -8.95L40.25 -9.7Q39 -11.35 37.25 -12.5L40.05 -11.75L41.45 -11.05L42.85 -9.95L44.15 -7.8" />
<linearGradient
id="LinearGradID_1008" gradientUnits="userSpaceOnUse" gradientTransform="matrix(0.000976563, 0.00561523, -0.00520325, 0.000900269, 43.25, -29.9)" spreadMethod ="pad" x1="-819.2" y1="0" x2="819.2" y2="0" >
<stop  offset="0" style="stop-color:#F4A6DA;stop-opacity:1" />
<stop  offset="1" style="stop-color:#FFFFFF;stop-opacity:1" />
</linearGradient>
<path style="fill:url(#LinearGradID_1008) " d="M44.25,-25.75L43.35 -25.55Q43.25 -26.6 41.2 -27.65Q41 -28.45 40.95 -29.45Q40.95 -31.4 41.55 -32.9Q41.85 -33.7 42.45 -34.05L43.3 -34.15L44.2 -33.45L45.15 -31.7Q45.55 -30.45 45.55 -29.15L45.5 -27.95Q45.4 -26.45 45 -25.6L44.25 -25.75" />
<linearGradient
id="LinearGradID_1009" gradientUnits="userSpaceOnUse" gradientTransform="matrix(-0.00378418, 0.00172424, -0.0017395, -0.00379944, 48.4, -28.2)" spreadMethod ="pad" x1="-819.2" y1="0" x2="819.2" y2="0" >
<stop  offset="0" style="stop-color:#F4A6DA;stop-opacity:1" />
<stop  offset="1" style="stop-color:#FFFFFF;stop-opacity:1" />
</linearGradient>
<path style="fill:url(#LinearGradID_1009) " d="M46.05,-24.8L45.7 -25.2Q45.35 -25.5 45 -25.6Q45.4 -26.45 45.5 -27.95L45.55 -29.15L47.85 -30.8L51.7 -30.7Q52.4 -28.65 49.1 -26.15L48.5 -25.75Q47.25 -25.1 46.05 -24.8" />
<linearGradient
id="LinearGradID_1010" gradientUnits="userSpaceOnUse" gradientTransform="matrix(-0.00556946, -9.15527e-005, 4.57764e-005, -0.00283813, 50.45, -23.55)" spreadMethod ="pad" x1="-819.2" y1="0" x2="819.2" y2="0" >
<stop  offset="0" style="stop-color:#F4A6DA;stop-opacity:1" />
<stop  offset="1" style="stop-color:#FFFFFF;stop-opacity:1" />
</linearGradient>
<path style="fill:url(#LinearGradID_1010) " d="M46.6,-22.3L45.9 -22.85L46.25 -23.9L46.05 -24.75L46.05 -24.8Q47.25 -25.1 48.5 -25.75L52.05 -25.55Q55.65 -24.8 54.85 -22.95Q54.05 -20.95 49.95 -21.25L48.85 -21.45Q47.6 -21.8 46.6 -22.3" />
<linearGradient
id="LinearGradID_1011" gradientUnits="userSpaceOnUse" gradientTransform="matrix(-0.00221252, -0.00363159, 0.00404358, -0.00245667, 47.95, -19)" spreadMethod ="pad" x1="-819.2" y1="0" x2="819.2" y2="0" >
<stop  offset="0" style="stop-color:#F4A6DA;stop-opacity:1" />
<stop  offset="1" style="stop-color:#FFFFFF;stop-opacity:1" />
</linearGradient>
<path style="fill:url(#LinearGradID_1011) " d="M44.95,-19.7L44.9 -19.75L44.5 -21.05L44.5 -22.1Q45.15 -22.2 45.7 -22.65L45.9 -22.85L46.6 -22.3Q47.6 -21.8 48.85 -21.45L50.6 -19.1Q52.35 -15.85 50.5 -15.25Q48.4 -14.5 45.9 -17.8L45.85 -17.9L44.95 -19.7" />
<linearGradient
id="LinearGradID_1012" gradientUnits="userSpaceOnUse" gradientTransform="matrix(0.00164795, 0, 0, 0.0078125, 45, -13.3)" spreadMethod ="pad" x1="-819.2" y1="0" x2="819.2" y2="0" >
<stop  offset="0" style="stop-color:#60D101;stop-opacity:1" />
<stop  offset="0.521569" style="stop-color:#A9E969;stop-opacity:1" />
<stop  offset="1" style="stop-color:#68F40B;stop-opacity:1" />
</linearGradient>
<path style="fill:url(#LinearGradID_1012) " d="M44.15,-10L44.25 -17.7L44.9 -19.7L44.95 -19.7L45.85 -17.9L45.8 -11L45.4 -10.6L44.55 -6.95L44.45 -6.9L44.15 -7.8L44.15 -10" />
<linearGradient
id="LinearGradID_1013" gradientUnits="userSpaceOnUse" gradientTransform="matrix(0.00233459, -0.00654602, 0.0037384, 0.00134277, 48, -10.35)" spreadMethod ="pad" x1="-819.2" y1="0" x2="819.2" y2="0" >
<stop  offset="0" style="stop-color:#60D101;stop-opacity:1" />
<stop  offset="0.521569" style="stop-color:#A9E969;stop-opacity:1" />
<stop  offset="1" style="stop-color:#68F40B;stop-opacity:1" />
</linearGradient>
<path style="fill:url(#LinearGradID_1013) " d="M45.8,-11Q47.5 -12.45 49.7 -13.05L51.25 -13.45L49.7 -11.95L48.2 -9.85L46.8 -7.55L44.55 -6.95L45.4 -10.6L45.8 -11" />
<path style="fill:none;stroke-width:0.75;stroke-linecap:round;stroke-linejoin:round;stroke-miterlimit:3;stroke:#666666;stroke-opacity:1" d="M44.15,-7.8L44.15 -10L44.25 -17.7L43.35 -16.25Q41.3 -13.15 39.9 -14.55Q38.3 -16.05 40.1 -19.8L40.4 -20.3Q39.2 -19.75 37.95 -19.55Q34.3 -18.8 34.3 -20.75Q34.2 -22.8 37.6 -24.15Q36 -24.85 34.85 -25.85Q34.25 -26.45 34.1 -27.1Q34.05 -27.6 34.3 -27.95L35.3 -28.55L37.3 -28.8Q39.2 -28.7 40.9 -27.8L41.2 -27.65Q41 -28.45 40.95 -29.45Q40.95 -31.4 41.55 -32.9Q41.85 -33.7 42.45 -34.05L43.3 -34.15L44.2 -33.45L45.15 -31.7Q45.55 -30.45 45.55 -29.15L47.85 -30.8L51.7 -30.7Q52.4 -28.65 49.1 -26.15L48.5 -25.75L52.05 -25.55Q55.65 -24.8 54.85 -22.95Q54.05 -20.95 49.95 -21.25L48.85 -21.45L50.6 -19.1Q52.35 -15.85 50.5 -15.25Q48.4 -14.5 45.9 -17.8L45.85 -17.9L45.8 -11Q47.5 -12.45 49.7 -13.05L51.25 -13.45L49.7 -11.95L48.2 -9.85L46.8 -7.55L44.55 -6.95L44.5 -6.8L44.35 -6.85L41.7 -7.55L40.8 -8.95L40.25 -9.7Q39 -11.35 37.25 -12.5L40.05 -11.75L41.45 -11.05L42.85 -9.95M37.6,-24.15L37.85 -24.05L42.25 -23.9Q42.25 -24.7 42.85 -25.2L43.35 -25.55Q43.25 -26.6 41.2 -27.65M43.35,-25.55L44.25 -25.75L45 -25.6Q45.4 -26.45 45.5 -27.95L45.55 -29.15M45,-25.6Q45.35 -25.5 45.7 -25.2L46.05 -24.8Q47.25 -25.1 48.5 -25.75M46.05,-24.8L46.05 -24.75L46.25 -23.9L45.9 -22.85L46.6 -22.3Q47.6 -21.8 48.85 -21.45M45.9,-22.85L45.7 -22.65Q45.15 -22.2 44.5 -22.1L44.5 -21.05L44.9 -19.75L44.95 -19.7L45.85 -17.9M44.5,-22.1L44.25 -22.1Q43.4 -22.1 42.85 -22.65L42.65 -22.8L42.3 -22.55Q41.2 -21.65 40.4 -20.3M42.65,-22.8Q42.25 -23.3 42.25 -23.9M44.9,-19.7L44.25 -17.7M44.9,-19.7L44.9 -19.75M44.55,-6.95L44.45 -6.9L44.5 -6.8M44.45,-6.9L44.35 -6.85M44.45,-6.9L44.15 -7.8L42.85 -9.95M44.55,-6.95L45.4 -10.6L45.8 -11" />
<path style="fill:none;stroke-width:1;stroke-linecap:round;stroke-linejoin:round;stroke-miterlimit:3;stroke:#666666;stroke-opacity:1" d="M55,-7.45L55 15Q55 16.05 52.05 16.75L45 17.5L37.9 16.75Q35.05 16.05 35 15L35 -7.5" />
<path style="fill:none;stroke-width:1;stroke-linecap:round;stroke-linejoin:round;stroke-miterlimit:3;stroke:#666666;stroke-opacity:1" d="M48.2,-9.85L52.05 -9.3Q55 -8.55 55 -7.45Q55 -6.9 54 -6.4L52.05 -5.75Q49.15 -5 45 -5Q40.85 -5 37.9 -5.75L36 -6.4Q35.05 -6.9 35 -7.5Q35.05 -8.55 37.9 -9.3L40.25 -9.7M42.85,-9.95L44.15 -10" />
</g>
</svg>
