<?xml version="1.0" encoding="utf-8"?>
<svg version="1.1" id="Layer_1"
xmlns="http://www.w3.org/2000/svg"
xmlns:xlink="http://www.w3.org/1999/xlink"
xmlns:author="http://www.sothink.com"
width="64px" height="50px"
xml:space="preserve">
<g id="235" transform="matrix(1, 0, 0, 1, 20.9, 19.35)">
<path style="fill:#FFFFFF;fill-opacity:1" d="M4.1,10.9Q4.1 12.7 1.95 14Q-0.15 15.3 -3.15 15.3Q-6.15 15.3 -8.3 14Q-10.4 12.7 -10.4 10.9Q-10.4 9.1 -8.3 7.8Q-6.15 6.5 -3.15 6.5Q-0.15 6.5 1.95 7.8Q4.1 9.1 4.1 10.9" />
<path style="fill:none;stroke-width:0.5;stroke-linecap:round;stroke-linejoin:round;stroke-miterlimit:3;stroke:#000000;stroke-opacity:1" d="M4.1,10.9Q4.1 12.7 1.95 14Q-0.15 15.3 -3.15 15.3Q-6.15 15.3 -8.3 14Q-10.4 12.7 -10.4 10.9Q-10.4 9.1 -8.3 7.8Q-6.15 6.5 -3.15 6.5Q-0.15 6.5 1.95 7.8Q4.1 9.1 4.1 10.9z" />
<path style="fill:#FF0000;fill-opacity:1" d="M2.85,-12.05L2.55 -12.45Q3.8 -13.5 6.55 -13.35Q6.15 -9.7 4.35 -7.5Q4.15 -10.15 2.85 -12.05M-3.4,-13.15Q-3.2 -16.15 -1.35 -19.1Q-0.2 -16.85 -0.45 -14.25L-0.75 -14.25Q-2.25 -14.3 -3.4 -13.15M0.05,-15.05L0.2 -15.35Q0.5 -17.1 2.55 -18.45Q3.4 -15.45 2.55 -12.45Q1.25 -14.1 -0.4 -14.25L0.05 -15.05" />
<path style="fill:#FFFFFF;fill-opacity:1" d="M-5.8,-6.35L-5.85 -6.75Q-5.85 -9.9 -4.35 -12.05L-3.4 -13.15Q-2.25 -14.3 -0.75 -14.25L-0.45 -14.25L-0.4 -14.25Q1.25 -14.1 2.55 -12.45L2.85 -12.05Q4.15 -10.15 4.35 -7.5L4.35 -6.75Q4.35 -3.95 3.1 -1.85L10.9 7.2L14.6 7.05L17.45 7.15Q22.55 7.5 26.75 9.15Q28.1 9.7 29.4 10.4L32.15 12.25Q32.65 7.65 36.5 4.55L37.5 5.75L35.4 9.5L38.4 6.95L39.05 7.8L36.5 12.45L40.15 9.2L42.15 11.75Q39.75 15.15 35.1 16.15L35.25 16.6L35.55 18.6Q35.5 23.4 29.4 26.75L26.75 28Q22.55 29.7 17.45 30.05L14.6 30.15Q5.95 30.15 -0.2 26.75Q-6.35 23.4 -6.35 18.6Q-6.35 17.05 -5.7 15.65Q-4.9 13.9 -3.2 12.45L-1.25 0.7L-2.6 0.25Q-3.55 -0.3 -4.35 -1.45L-5.05 -2.75Q-5.75 -4.35 -5.8 -6.35M10.5,7.25L12 8.5L10.9 7.2L10.5 7.25M-4.3,-9.6L-4.3 -9.45L-4.15 -8.95L-3.95 -8.55Q-3.55 -7.95 -2.95 -7.95Q-2.35 -7.95 -1.95 -8.55Q-1.55 -9.15 -1.55 -10Q-1.55 -10.9 -1.95 -11.5Q-2.35 -12.1 -2.95 -12.05Q-3.55 -12.1 -3.95 -11.5Q-4.35 -10.9 -4.35 -10L-4.3 -9.65L-4.3 -9.6" />
<path style="fill:#666666;fill-opacity:1" d="M-4.1,-9L-3.65 -8.7L-3.2 -9L-3 -9.65L-3.2 -10.35L-3.65 -10.6L-4.1 -10.35L-4.3 -9.65L-4.35 -10Q-4.35 -10.9 -3.95 -11.5Q-3.55 -12.1 -2.95 -12.05Q-2.35 -12.1 -1.95 -11.5Q-1.55 -10.9 -1.55 -10Q-1.55 -9.15 -1.95 -8.55Q-2.35 -7.95 -2.95 -7.95Q-3.55 -7.95 -3.95 -8.55L-4.15 -8.95L-4.1 -9" />
<path style="fill:#333333;fill-opacity:1" d="M-4.3,-9.45L-4.3 -9.6L-4.3 -9.65L-4.1 -10.35L-3.65 -10.6L-3.2 -10.35L-3 -9.65L-3.2 -9L-3.65 -8.7L-4.1 -9L-4.3 -9.45" />
<path style="fill:#FFCCFF;fill-opacity:1" d="M-5.05,-2.75L-4.35 -1.45Q-3.55 -0.3 -2.6 0.25L-13.2 3.1L-5.05 -2.75L-13.65 -1.95L-5.8 -6.35Q-5.75 -4.35 -5.05 -2.75" />
<path style="fill:none;stroke-width:0.5;stroke-linecap:round;stroke-linejoin:round;stroke-miterlimit:3;stroke:#666666;stroke-opacity:1" d="M4.35,-7.5Q6.15 -9.7 6.55 -13.35Q3.8 -13.5 2.55 -12.45L2.85 -12.05Q4.15 -10.15 4.35 -7.5L4.35 -6.75Q4.35 -3.95 3.1 -1.85L10.9 7.2L14.6 7.05L17.45 7.15Q22.55 7.5 26.75 9.15Q28.1 9.7 29.4 10.4L32.15 12.25Q32.65 7.65 36.5 4.55L37.5 5.75L35.4 9.5L38.4 6.95L39.05 7.8L36.5 12.45L40.15 9.2L42.15 11.75Q39.75 15.15 35.1 16.15L35.25 16.6L35.55 18.6Q35.5 23.4 29.4 26.75L26.75 28Q22.55 29.7 17.45 30.05L14.6 30.15Q5.95 30.15 -0.2 26.75Q-6.35 23.4 -6.35 18.6Q-6.35 17.05 -5.7 15.65Q-4.9 13.9 -3.2 12.45L-1.25 0.7L-2.6 0.25L-13.2 3.1L-5.05 -2.75L-13.65 -1.95L-5.8 -6.35L-5.85 -6.75Q-5.85 -9.9 -4.35 -12.05L-3.4 -13.15Q-3.2 -16.15 -1.35 -19.1Q-0.2 -16.85 -0.45 -14.25L0.05 -15.05L0.2 -15.35Q0.5 -17.1 2.55 -18.45Q3.4 -15.45 2.55 -12.45Q1.25 -14.1 -0.4 -14.25L-0.45 -14.25L-0.75 -14.25Q-2.25 -14.3 -3.4 -13.15M3.1,-1.85L2.85 -1.45Q1.35 0.75 -0.75 0.75L-1.25 0.7M26.45,22.1L26.45 22.25L18.7 22.25L25.6 24.5L24.65 25.4L17.85 23.35L23.05 26.45Q20.6 27.75 17.45 28.05L15.3 28.15Q10.7 28.15 7.45 26.4Q4.2 24.6 4.2 22.1Q4.2 19.55 7.45 17.8Q10.7 16.05 15.3 16.05L17.45 16.15Q20.7 16.45 23.2 17.8Q23.95 18.2 24.55 18.7L25.85 20.1L18.4 21.5L26.4 21.55L26.45 22.1M35.1,16.15Q34.3 14.05 32.15 12.25M10.5,7.25L12 8.5L10.9 7.2L10.5 7.25L8.35 5.45L8.35 9.95L3.85 5.6L3.85 11.4L-0.15 8.3L-3.4 13.75L-3.2 12.45M-4.15,-8.95L-3.95 -8.55Q-3.55 -7.95 -2.95 -7.95Q-2.35 -7.95 -1.95 -8.55Q-1.55 -9.15 -1.55 -10Q-1.55 -10.9 -1.95 -11.5Q-2.35 -12.1 -2.95 -12.05Q-3.55 -12.1 -3.95 -11.5Q-4.35 -10.9 -4.35 -10L-4.3 -9.65L-4.1 -10.35L-3.65 -10.6L-3.2 -10.35L-3 -9.65L-3.2 -9L-3.65 -8.7L-4.1 -9L-4.3 -9.45M-4.15,-8.95L-4.3 -9.45L-4.3 -9.6L-4.3 -9.65M-2.6,0.25Q-3.55 -0.3 -4.35 -1.45L-5.05 -2.75Q-5.75 -4.35 -5.8 -6.35M0.05,-15.05L-0.4 -14.25" />
<path style="fill:#FFFFFF;fill-opacity:1" d="M-9.95,19.8L-8.2 19.4Q-6.1 18.65 -6.05 17.7L-6.05 22.1Q-6.05 23.1 -8.2 23.85L-13.35 24.55Q-16.4 24.55 -18.5 23.85Q-20.65 23.1 -20.65 22.05L-20.6 21.8L-20.6 17.8Q-20.45 18.7 -18.5 19.4L-16.75 19.8L-13.35 20.1L-9.95 19.8" />
<path style="fill:#6699FF;fill-opacity:1" d="M-13.35,20.1L-16.75 19.8L-18.5 19.4Q-20.45 18.7 -20.6 17.8L-20.65 17.6Q-20.65 16.55 -18.5 15.85Q-16.4 15.1 -13.35 15.1Q-10.3 15.1 -8.2 15.85Q-6.05 16.55 -6.05 17.6L-6.05 17.7Q-6.1 18.65 -8.2 19.4L-9.95 19.8L-13.35 20.1" />
<path style="fill:none;stroke-width:0.5;stroke-linecap:round;stroke-linejoin:round;stroke-miterlimit:3;stroke:#666666;stroke-opacity:1" d="M-6.05,17.7L-6.05 17.6Q-6.05 16.55 -8.2 15.85Q-10.3 15.1 -13.35 15.1Q-16.4 15.1 -18.5 15.85Q-20.65 16.55 -20.65 17.6L-20.6 17.8Q-20.45 18.7 -18.5 19.4L-16.75 19.8L-13.35 19.55L-9.95 19.8L-8.2 19.4Q-6.1 18.65 -6.05 17.7L-6.05 22.1Q-6.05 23.1 -8.2 23.85L-13.35 24.55Q-16.4 24.55 -18.5 23.85Q-20.65 23.1 -20.65 22.05L-20.6 21.8L-20.6 17.8M-16.75,19.8L-13.35 20.1L-9.95 19.8" />
</g>
</svg>
