<?xml version="1.0" encoding="utf-8"?>
<svg version="1.1" id="Layer_1"
xmlns="http://www.w3.org/2000/svg"
xmlns:xlink="http://www.w3.org/1999/xlink"
xmlns:author="http://www.sothink.com"
width="235px" height="196px"
xml:space="preserve">
<g id="490" transform="matrix(1, 0, 0, 1, 237.25, 116.6)">
<path style="fill:#C87B31;fill-opacity:1" d="M-203.9,-7.55L-203.9 78.95L-205.9 77.95L-205.9 -8.55L-165.9 -28.55L-163.9 -27.55L-203.9 -7.55" />
<path style="fill:#FFFFFF;fill-opacity:1" d="M-193.3,53.35L-201.95 57.7L-201.95 55.3L-201.9 -5.7L-194.35 -9.5L-193.4 -9.95L-187.5 -12.85L-183.95 -14.6L-174.55 -19.35L-173.65 -19.85L-164.9 -24.25L-164.9 39.1L-165.1 39.2L-166.3 39.75L-166.3 39.8L-167.2 40.25L-174.45 43.9L-183.85 48.6L-193.3 53.35" />
<path style="fill:#DA9C5F;fill-opacity:1" d="M-203.9,78.95L-203.9 -7.55L-163.9 -27.55L-163.9 58.95L-203.9 78.95M-202,58.05L-167.2 40.6L-164.9 39.45L-164.9 39.1L-164.9 -24.25L-173.65 -19.85L-186.2 -13.55L-194.35 -9.5L-201.9 -5.7L-201.95 55.3L-202 58.05M-202,59.4L-202 64.55L-202 70.35L-202 70.6L-164.9 52.05L-164.9 40.85L-167.2 42L-202 59.4M-167.2,51.85L-167.2 52L-201.9 69.15L-201.9 68.95L-167.2 51.85M-202.9,77.05L-164.9 58L-164.9 53.5L-202.9 72.55L-202.9 77.05" />
<path style="fill:#C7CFCB;fill-opacity:0.4" d="M-183.85,48.6L-174.45 43.9L-167.2 40.25L-167.2 40.6L-202 58.05L-201.95 55.3L-201.95 57.7L-193.3 53.35L-183.85 48.6M-167.2,42L-167.2 51.85L-201.9 68.95L-202 64.55L-202 59.4L-167.2 42" />
<path style="fill:#A05E27;fill-opacity:1" d="M-167.2,40.25L-166.3 39.8L-166.3 39.75L-165.1 39.2L-164.9 39.1L-164.9 39.45L-167.2 40.6L-167.2 40.25M-202,64.55L-201.9 68.95L-201.9 69.15L-167.2 52L-167.2 51.85L-167.2 42L-164.9 40.85L-164.9 52.05L-202 70.6L-202 70.35L-202 64.55" />
<path style="fill:#E2BB87;fill-opacity:1" d="M-202.9,72.55L-164.9 53.5L-164.9 58L-202.9 77.05L-202.9 72.55" />
<path style="fill:none;stroke-width:0.5;stroke-linecap:round;stroke-linejoin:round;stroke-miterlimit:3;stroke:#633612;stroke-opacity:1" d="M-163.9,-27.55L-165.9 -28.55L-205.9 -8.55L-205.9 77.95L-203.9 78.95L-203.9 -7.55L-163.9 -27.55L-163.9 58.95L-203.9 78.95" />
<path style="fill:none;stroke-width:0.5;stroke-linecap:round;stroke-linejoin:round;stroke-miterlimit:3;stroke:#A6621E;stroke-opacity:1" d="M-164.9,39.1L-164.9 -24.25L-173.65 -19.85L-186.2 -13.55L-187.5 -12.85L-193.4 -9.95M-194.35,-9.5L-201.9 -5.7L-201.95 55.3M-201.95,57.7L-193.3 53.35M-194.35,-9.5L-193.4 -9.95M-174.45,43.9L-167.2 40.25M-166.3,39.75L-165.1 39.2M-202,58.05L-201.95 55.3M-202,59.4L-202 64.55L-202 70.35M-174.45,43.9L-183.85 48.6L-193.3 53.35M-202.9,72.55L-164.9 53.5L-164.9 58L-202.9 77.05L-202.9 72.55M-167.2,51.85L-201.9 68.95" />
<path style="fill:none;stroke-width:0.5;stroke-linecap:round;stroke-linejoin:round;stroke-miterlimit:3;stroke:#C9B9A0;stroke-opacity:1" d="M-193.4,-9.95L-193.35 -3.55L-183.9 -8.3L-183.95 -14.6M-193.3,53.35L-193.3 45.5L-201.5 49.6M-183.9,-1.3L-174.5 -6L-174.5 -13L-183.9 -8.3L-183.9 -1.3L-183.9 5.7L-174.5 1L-174.5 -6L-165.9 -10.3L-165.9 -17.3L-174.5 -13L-174.55 -19.35M-165.9,-23.3L-165.9 -17.3M-165.9,-10.3L-165.9 -3.3L-165.9 3.8L-165.9 10.7L-165.9 17.7L-165.9 24.7L-165.9 31.8L-165.9 38.9M-183.9,-1.3L-193.35 3.45L-193.35 10.4L-183.9 5.7L-183.85 12.8L-174.45 8.1L-174.5 1L-165.9 -3.3M-165.9,10.7L-174.45 15L-174.5 15L-174.5 22L-165.9 17.7M-183.85,12.8L-183.9 19.7L-183.85 19.7L-174.5 15L-174.45 8.1L-165.9 3.8M-201.55,7.55L-193.35 3.45L-193.35 -3.55Q-197.4 -1.5 -201.5 0.5M-183.85,12.8L-193.3 17.5L-193.4 18.05L-193.35 24.45L-193.3 24.4L-183.9 19.7L-183.9 26.7L-174.5 22L-174.5 29L-165.9 24.7M-201.5,21.6L-193.3 17.5L-193.35 10.4L-201.65 14.6M-183.9,26.7L-193.35 31.45L-193.35 38.4L-183.9 33.7L-183.9 26.7M-201.55,35.55L-193.35 31.45L-193.35 24.45L-201.5 28.5M-193.35,38.4L-193.3 45.5L-183.85 40.8L-183.9 33.7L-174.5 29L-174.45 36.1L-165.9 31.8M-193.35,38.4L-201.65 42.6M-183.85,48.6L-183.85 40.8L-174.45 36.1L-174.45 43.9" />
<path style="fill:#A05E27;fill-opacity:1" d="M-83.4,-72.9L-83.4 -72.8L-133.4 -47.85L-133.4 -47.8L-237 3.9L-237 0.35L-184.25 -26L-184.25 -26.05L-182.45 -26.9L-181.05 -27.6L-133.4 -51.4L-104.25 -65.95L-104.25 -66.05L-101.6 -67.3L-3.4 -116.35L-3.4 -112.8L-83.4 -72.9" />
<path style="fill:#DA9C5F;fill-opacity:1" d="M-3.4,-112.8L-3.4 -109.35L-5.6 -108.25L-5.6 -106.05L-85.6 -66.1L-85.6 -66.05L-135.6 -41.1L-135.6 -41.05L-237 9.6L-237 7.35L-237 3.9L-133.4 -47.8L-133.4 -47.85L-83.4 -72.8L-83.4 -72.9L-3.4 -112.8" />
<path style="fill:none;stroke-width:0.5;stroke-linecap:round;stroke-linejoin:round;stroke-miterlimit:3;stroke:#49250E;stroke-opacity:1" d="M-184.25,-26.05L-182.45 -26.9L-181.05 -27.6L-133.4 -51.4L-104.25 -65.95L-101.6 -67.3M-104.25,-66.05L-101.6 -67.3L-3.4 -116.35M-237,0.35L-184.25 -26L-182.45 -26.9" />
<path style="fill:none;stroke-width:0.5;stroke-linecap:round;stroke-linejoin:round;stroke-miterlimit:3;stroke:#633612;stroke-opacity:1" d="M-3.4,-109.35L-5.6 -108.25M-5.6,-106.05L-85.6 -66.1M-85.6,-66.05L-135.6 -41.1M-135.6,-41.05L-237 9.6M-83.4,-72.8L-133.4 -47.85M-133.4,-47.8L-237 3.9M-3.4,-112.8L-83.4 -72.9M-237,7.35L-5.6 -108.25" />
</g>
</svg>
