<?xml version="1.0" encoding="utf-8"?>
<svg version="1.1" id="Layer_1"
xmlns="http://www.w3.org/2000/svg"
xmlns:xlink="http://www.w3.org/1999/xlink"
xmlns:author="http://www.sothink.com"
width="81px" height="43px"
xml:space="preserve">
<g id="147" transform="matrix(1, 0, 0, 1, 50.5, 58.05)">
<path style="fill:none;stroke-width:1;stroke-linecap:round;stroke-linejoin:round;stroke-miterlimit:3;stroke:#50454E;stroke-opacity:1" d="M10,-46.55Q19.05 -46.7 30 -56.55M-50,-16.55Q-41 -15.7 -30.1 -25.45Q-20.95 -25.45 -10 -35.3M-10,-35.55Q-0.95 -35.7 10 -45.55" />
<path style="fill:none;stroke-width:1;stroke-linecap:round;stroke-linejoin:round;stroke-miterlimit:3;stroke:#A09BA4;stroke-opacity:1" d="M20.4,-50.6L18.65 -49.75M23.8,-52.65L22.15 -51.6M27,-55.05L25.4 -53.8M30,-57.55L28.5 -56.3M12.9,-47.85L11 -47.6M16.85,-49L14.9 -48.35M3.8,-41.65L2.15 -40.6M7,-44.05L5.4 -42.8M10,-46.55L8.5 -45.3M-48.25,-17.5L-49.75 -17.55M-44.3,-18L-46.3 -17.6M-40.55,-19.3L-42.35 -18.6M-7.1,-36.85L-9 -36.6M-3.15,-38L-5.1 -37.35M-10,-36.3L-11.5 -35.05M-13,-33.8L-14.6 -32.55M-16.2,-31.4L-17.9 -30.35M-23.15,-27.75L-25.15 -27.15M-27.1,-26.75L-29.05 -26.5M-33.85,-23.35L-35.45 -22.2M-37.1,-21.15L-38.8 -20.15M-19.65,-29.35L-21.35 -28.5M-30.8,-25.85L-32.3 -24.6M0.4,-39.6L-1.35 -38.75" />
</g>
</svg>
