<?xml version="1.0" encoding="utf-8"?>
<svg version="1.1" id="Layer_1"
xmlns="http://www.w3.org/2000/svg"
xmlns:xlink="http://www.w3.org/1999/xlink"
xmlns:author="http://www.sothink.com"
width="12px" height="41px"
xml:space="preserve">
<g id="15" transform="matrix(1, 0, 0, 1, 540.45, 63.8)">
<path style="fill:#666666;fill-opacity:0.670588" d="M-534.65,-23.35Q-537 -23.35 -538.65 -24.55Q-540.3 -25.75 -540.3 -27.45Q-540.3 -29.15 -538.65 -30.35Q-537 -31.6 -534.65 -31.6Q-532.3 -31.6 -530.65 -30.35Q-529 -29.15 -529 -27.45Q-529 -25.75 -530.65 -24.55Q-532.3 -23.35 -534.65 -23.35" />
<path style="fill:none;stroke-width:0.3;stroke-linecap:round;stroke-linejoin:round;stroke-miterlimit:3;stroke:#C1C1C1;stroke-opacity:0.341176" d="M-534.65,-23.35Q-537 -23.35 -538.65 -24.55Q-540.3 -25.75 -540.3 -27.45Q-540.3 -29.15 -538.65 -30.35Q-537 -31.6 -534.65 -31.6Q-532.3 -31.6 -530.65 -30.35Q-529 -29.15 -529 -27.45Q-529 -25.75 -530.65 -24.55Q-532.3 -23.35 -534.65 -23.35z" />
<linearGradient
id="LinearGradID_210" gradientUnits="userSpaceOnUse" gradientTransform="matrix(0.00996399, 0, 0, 0.0235748, -534.75, -44.4)" spreadMethod ="pad" x1="-819.2" y1="0" x2="819.2" y2="0" >
<stop  offset="0.145098" style="stop-color:#999999;stop-opacity:1" />
<stop  offset="0.741176" style="stop-color:#FFFFFF;stop-opacity:1" />
</linearGradient>
<path style="fill:url(#LinearGradID_210) " d="M-536.95,-62.6L-536.95 -63.2L-536.95 -63.65L-536.35 -63.65L-535.8 -63.65L-535.1 -63.65L-534.55 -63.65L-534.05 -63.65L-534 -63.25L-533.95 -62.6Q-535.45 -62.3 -536.95 -62.6" />
<linearGradient
id="LinearGradID_211" gradientUnits="userSpaceOnUse" gradientTransform="matrix(0.00996399, 0, 0, 0.0235748, -534.75, -44.4)" spreadMethod ="pad" x1="-819.2" y1="0" x2="819.2" y2="0" >
<stop  offset="0.305882" style="stop-color:#804000;stop-opacity:1" />
<stop  offset="1" style="stop-color:#FFFFFF;stop-opacity:1" />
</linearGradient>
<path style="fill:url(#LinearGradID_211) " d="M-537.6,-54.25L-536.95 -56.75L-536.95 -62.6Q-535.45 -62.3 -533.95 -62.6L-533.45 -56.55L-532.75 -54.4Q-535.2 -56.15 -537.6 -54.25M-531.15,-49.55L-530.25 -47L-530.2 -43.8Q-534.5 -41.4 -539.6 -43.8L-539.65 -46.6L-538.9 -49.3Q-535.05 -52.2 -531.15 -49.55M-529.9,-33.25L-529.95 -26.95Q-534.7 -23.1 -539.45 -27.05L-539.5 -27.05L-539.55 -33.2Q-534.75 -29.65 -529.9 -33.25" />
<path style="fill:#FFFFFF;fill-opacity:1" d="M-538.9,-49.3L-537.6 -54.25Q-535.2 -56.15 -532.75 -54.4L-531.15 -49.55Q-535.05 -52.2 -538.9 -49.3M-539.55,-33.2L-539.6 -43.8Q-534.5 -41.4 -530.2 -43.8L-529.9 -33.25Q-534.75 -29.65 -539.55 -33.2" />
<path style="fill:none;stroke-width:0.3;stroke-linecap:round;stroke-linejoin:round;stroke-miterlimit:3;stroke:#333333;stroke-opacity:1" d="M-534.55,-63.65L-535.1 -63.65L-535.1 -63.1L-534.45 -63.15L-534.55 -63.65L-534.05 -63.65L-534 -63.25L-533.95 -62.6L-533.45 -56.55L-532.75 -54.4L-531.15 -49.55L-530.25 -47L-530.2 -43.8L-529.9 -33.25L-529.95 -26.95Q-534.7 -23.1 -539.45 -27.05L-539.5 -27.05L-539.55 -33.2L-539.6 -43.8L-539.65 -46.6L-538.9 -49.3L-537.6 -54.25L-536.95 -56.75L-536.95 -62.6L-536.95 -63.2L-536.95 -63.65L-536.35 -63.65L-535.8 -63.65L-535.1 -63.65M-536.35,-63.65L-536.35 -63.1L-535.8 -63.05L-535.8 -63.65M-535.8,-63.05L-535.1 -63.1M-534.45,-63.15L-534 -63.25M-536.95,-62.6Q-535.45 -62.3 -533.95 -62.6M-532.75,-54.4Q-535.2 -56.15 -537.6 -54.25M-536.35,-63.1L-536.95 -63.2M-530.2,-43.8Q-534.5 -41.4 -539.6 -43.8M-539.55,-33.2Q-534.75 -29.65 -529.9 -33.25M-531.15,-49.55Q-535.05 -52.2 -538.9 -49.3" />
</g>
</svg>
