<?xml version="1.0" encoding="utf-8"?>
<svg version="1.1" id="Layer_1"
xmlns="http://www.w3.org/2000/svg"
xmlns:xlink="http://www.w3.org/1999/xlink"
xmlns:author="http://www.sothink.com"
width="9px" height="113px"
xml:space="preserve">
<g id="384" transform="matrix(1, 0, 0, 1, 3.25, 53.9)">
<radialGradient
id="RadialGradID_1502" gradientUnits="userSpaceOnUse" gradientTransform="matrix(0.0318756, -0.00790405, 0.023819, 0.0823059, -11.2, -19.15)" spreadMethod ="pad" cx="0" cy="0" r="819.2" fx="0" fy="0" >
<stop  offset="0"  style="stop-color:#C1723E;stop-opacity:1" />
<stop  offset="0.192157"  style="stop-color:#D68754;stop-opacity:1" />
<stop  offset="0.345098"  style="stop-color:#C9722C;stop-opacity:1" />
<stop  offset="0.513725"  style="stop-color:#BD7546;stop-opacity:1" />
<stop  offset="0.768627"  style="stop-color:#C86A2D;stop-opacity:1" />
<stop  offset="1"  style="stop-color:#985621;stop-opacity:1" />
</radialGradient>
<path style="fill:url(#RadialGradID_1502) " d="M-2.8,-51.5L0.8 -49.8L0.8 53.85L-2.85 52.15L-2.85 52L-2.8 -51.5" />
<path style="fill:#8A3D20;fill-opacity:1" d="M-2.8,-51.5L-2.85 -51.65L1.4 -53.6L4.95 -51.9L5 -51.9L5 51.95L5 56.45L0.8 58.55L0.8 53.85L0.8 -49.8L-2.8 -51.5M5,-53.9L5 -51.9L5 -53.9" />
<path style="fill:none;stroke-width:0.5;stroke-linecap:round;stroke-linejoin:round;stroke-miterlimit:3;stroke:#633612;stroke-opacity:1" d="M5,-51.9L4.95 -51.9L0.8 -49.8L0.8 53.85M5,-51.9L4.95 -51.9L1.4 -53.6L-2.85 -51.65M-2.8,-51.5L0.8 -49.8M-3,-51.6L-2.85 -51.65" />
<path style="fill:none;stroke-width:0.5;stroke-linecap:round;stroke-linejoin:round;stroke-miterlimit:3;stroke:#49250E;stroke-opacity:1" d="M5,51.95L5 -51.9M-2.85,52L-2.8 -51.5" />
<path style="fill:none;stroke-width:0.5;stroke-linecap:round;stroke-linejoin:round;stroke-miterlimit:3;stroke:#49250E;stroke-opacity:1" d="M0.8,53.85L0.8 58.55L5 56.45L5 51.95M0.8,53.85L-2.85 52" />
</g>
</svg>
