<?xml version="1.0" encoding="utf-8"?>
<svg version="1.1" id="Layer_1"
xmlns="http://www.w3.org/2000/svg"
xmlns:xlink="http://www.w3.org/1999/xlink"
xmlns:author="http://www.sothink.com"
width="153px" height="156px"
xml:space="preserve">
<g id="254" transform="matrix(1, 0, 0, 1, 115.15, 152.8)">
<path style="fill:#FFFF00;fill-opacity:1" d="M3.6,-90.95L4.7 -88.75Q3.8 -90.4 2.9 -91.3L3.6 -90.95" />
<path style="fill:#66CCFF;fill-opacity:1" d="M-8.65,-97.3Q-11.05 -95.65 -11.1 -93.15L-114.9 -147.15L-114.9 -152.55L-8.65 -97.3M-5.3,-78.85Q-2.65 -78.75 -0.35 -77.05L-21.9 2.95L-27.5 2.95L-5.3 -78.85M4.5,-77.55Q5.25 -78.45 6.35 -78.95Q7.65 -79.55 9.4 -79.55L37.6 -25.05L31 -25.05L4.5 -77.55" />
<path style="fill:none;stroke-width:0.5;stroke-linecap:round;stroke-linejoin:round;stroke-miterlimit:3;stroke:#999999;stroke-opacity:1" d="M37.6,-25.05L9.4 -79.55L7.35 -83.55L4.7 -88.75Q3.8 -90.4 2.9 -91.3Q1.85 -92.4 0.85 -92.4L-1.75 -93.75L-1.8 -93.75L-8.65 -97.3L-114.9 -152.55M-114.9,-147.15L-11.1 -93.15L-2.6 -88.75L-5.3 -78.85L-27.5 2.95M-21.9,2.95L-0.35 -77.05L1.25 -82.95L1.45 -83.6L1.6 -83.25L1.85 -82.75L4.5 -77.55L31 -25.05M1.25,-82.95L1.85 -82.75L1.7 -83.05L1.5 -83.45L1.6 -83.25L1.7 -83.05" />
<path style="fill:#FFFF00;fill-opacity:1" d="M11.25,-77.9Q12.5 -77.9 12.1 -76.2Q9.8 -76.15 8.15 -75.4Q6.7 -74.8 5.75 -73.6Q4.1 -74.35 5 -75.1L1.75 -81.45L-0.15 -74.55Q0.8 -73.75 -0.55 -72.95Q-3.6 -75.15 -7 -75.3Q-8.3 -76.1 -6.6 -76.85L-3.5 -88.15L-3.5 -88.2L-13.5 -93.35Q-15.5 -92.55 -14.95 -95.6Q-14.45 -98.65 -12.55 -99.65Q-10.7 -100.75 -10.45 -98.8L-2.45 -94.65L-2.4 -94.65L0.95 -92.9Q4.15 -91.55 5.6 -88.9L9.4 -81.4L9.45 -81.4L11.25 -77.9" />
<path style="fill:none;stroke-width:0.5;stroke-linecap:round;stroke-linejoin:round;stroke-miterlimit:3;stroke:#999999;stroke-opacity:1" d="M11.25,-77.9Q12.5 -77.9 12.1 -76.2Q9.8 -76.15 8.15 -75.4Q6.7 -74.8 5.75 -73.6Q4.1 -74.35 5 -75.1L1.75 -81.45L-0.15 -74.55Q0.8 -73.75 -0.55 -72.95Q-3.6 -75.15 -7 -75.3Q-8.3 -76.1 -6.6 -76.85L-3.5 -88.15L-3.5 -88.2L-13.5 -93.35Q-15.5 -92.55 -14.95 -95.6Q-14.45 -98.65 -12.55 -99.65Q-10.7 -100.75 -10.45 -98.8L-2.45 -94.65L-2.4 -94.65L0.95 -92.9Q4.15 -91.55 5.6 -88.9L9.4 -81.4L9.45 -81.4L11.25 -77.9Q7.65 -77.6 5 -75.1M-13.5,-93.35Q-13.65 -97.35 -10.45 -98.8M-0.15,-74.55Q-3.1 -76.9 -6.6 -76.85" />
</g>
</svg>
