<?xml version="1.0" encoding="utf-8"?>
<svg version="1.1" id="Layer_1"
xmlns="http://www.w3.org/2000/svg"
xmlns:xlink="http://www.w3.org/1999/xlink"
xmlns:author="http://www.sothink.com"
width="24px" height="29px"
xml:space="preserve">
<g id="687" transform="matrix(1, 0, 0, 1, 9.6, 19.25)">
<path style="fill:#FFFFFF;fill-opacity:1" d="M4.8,-4.25L2.9 -1.65L6.35 -0.3L2.45 -1L2.6 2.45L1.45 -0.9L-0.8 1.05L0.95 -1.6L-2.35 -3.25L1.3 -2.5L1.35 -5.8L2.3 -2.45L4.8 -4.25" />
<path style="fill:#5358FF;fill-opacity:1" d="M9.2,-5.6L7.7 -8.45L10 -6.15L11.05 -8.55L10.6 -5.75L13.95 -5.7L10.65 -4.85L11.95 -2.15L9.85 -4.6L8.5 -2.1L9.1 -4.9L5.7 -4.75L9.2 -5.6" />
<path style="fill:#6AFF62;fill-opacity:1" d="M3.3,-15.55L0.85 -13.75L3 -16.1L0.55 -17.5L3.35 -16.9L3 -19.25L4.05 -16.9L6.6 -18.45L4.5 -16.3L6.8 -14.8L4.05 -15.65L4.25 -13.1L3.3 -15.55" />
<path style="fill:#FFFB62;fill-opacity:1" d="M-1.8,5.7L1.1 5.15L-1.85 6.35L-0.25 8.65L-2.45 6.9L-3.15 9.1L-3.05 6.6L-6 6.95L-3.2 5.85L-4.6 3.6L-2.55 5.5L-1.65 3.15L-1.8 5.7" />
<path style="fill:#FF6666;fill-opacity:1" d="M-6.7,-7.7L-8 -10L-6 -8L-4.95 -10.35L-5.25 -7.75L-2.3 -8.15L-5.3 -7.1L-3.8 -4.7L-6 -6.55L-6.75 -4.35L-6.6 -6.9L-9.6 -6.7L-6.7 -7.7" />
</g>
</svg>
