<?xml version="1.0" encoding="utf-8"?>
<svg version="1.1" id="Layer_1"
xmlns="http://www.w3.org/2000/svg"
xmlns:xlink="http://www.w3.org/1999/xlink"
xmlns:author="http://www.sothink.com"
width="13px" height="18px"
xml:space="preserve">
<g id="434" transform="matrix(1, 0, 0, 1, 6.45, 17.4)">
<path style="fill:#117B11;fill-opacity:1" d="M-4.1,-12.7Q-4.85 -13.85 -4.85 -14.55Q-4.85 -15.4 -4.25 -15.95L-3.05 -16.9Q4.15 -16.45 5.95 -14.45L4.05 -14L-1.4 -14.95L-0.15 -13.15Q2.5 -9.2 3 -7.7L3 -6.45Q0.75 -7.25 -2.1 -10.2L-4.1 -12.7M-5.1,-11.35L-4.6 -11.35Q-3.8 -7.65 -3.75 -4.9Q-3.8 -1.75 -4.85 -0.05L-5.1 0Q-5.95 -1.4 -5.95 -6.55L-5.8 -9.7L-5.1 -11.35" />
<path style="fill:none;stroke-width:1;stroke-linecap:round;stroke-linejoin:round;stroke-miterlimit:3;stroke:#005700;stroke-opacity:1" d="M-4.1,-12.7Q-4.85 -13.85 -4.85 -14.55Q-4.85 -15.4 -4.25 -15.95L-3.05 -16.9Q4.15 -16.45 5.95 -14.45L4.05 -14L-1.4 -14.95L-0.15 -13.15Q2.5 -9.2 3 -7.7L3 -6.45Q0.75 -7.25 -2.1 -10.2L-4.1 -12.7L-5.1 -11.35L-4.6 -11.35Q-3.8 -7.65 -3.75 -4.9Q-3.8 -1.75 -4.85 -0.05L-5.1 0Q-5.95 -1.4 -5.95 -6.55L-5.8 -9.7L-5.1 -11.35M-1.4,-14.95L-3.05 -16.9" />
</g>
</svg>
