<?xml version="1.0" encoding="utf-8"?>
<svg version="1.1" id="Layer_1"
xmlns="http://www.w3.org/2000/svg"
xmlns:xlink="http://www.w3.org/1999/xlink"
xmlns:author="http://www.sothink.com"
width="18px" height="13px"
xml:space="preserve">
<g id="1009" transform="matrix(1, 0, 0, 1, 7.95, 5.95)">
<path style="fill:#333333;fill-opacity:1" d="M3.05,-5.95L3.05 -1.95L5.05 -1.95L5.05 -3.95L6.05 -3.95L6.05 -2.95L7.05 -2.95L7.05 -1.95L8.05 -1.95L8.05 -0.95L9.05 -0.95L9.05 0.05L10.05 0.05L10.05 1.05L9.05 1.05L9.05 2.05L8.05 2.05L8.05 3.05L7.05 3.05L7.05 4.05L6.05 4.05L6.05 5.05L5.05 5.05L5.05 3.05L3.05 3.05L3.05 7.05L2.05 7.05L2.05 -5.95L3.05 -5.95M-3.95,-3.95L-2.95 -3.95L-2.95 -1.95L-0.95 -1.95L-0.95 -5.95L0.05 -5.95L0.05 7.05L-0.95 7.05L-0.95 3.05L-2.95 3.05L-2.95 5.05L-3.95 5.05L-3.95 4.05L-4.95 4.05L-4.95 3.05L-5.95 3.05L-5.95 2.05L-6.95 2.05L-6.95 1.05L-7.95 1.05L-7.95 0.05L-6.95 0.05L-6.95 -0.95L-5.95 -0.95L-5.95 -1.95L-4.95 -1.95L-4.95 -2.95L-3.95 -2.95L-3.95 -3.95M-3,-0.95L-3.95 -0.95L-3.95 -1.95L-4.95 -1.95L-4.95 -0.95L-5.95 -0.95L-5.95 0.05L-6.95 0.05L-6.95 1.05L-5.95 1.05L-5.95 2.05L-4.95 2.05L-4.95 3.05L-3.95 3.05L-3.95 2.05L-0.95 2.05L-0.95 -0.95L-1.55 -0.95L-3 -0.95M5.1,2.05L6.05 2.05L6.05 3.05L7.05 3.05L7.05 2.05L8.05 2.05L8.05 1.05L9.05 1.05L9.05 0.05L8.05 0.05L8.05 -0.95L7.05 -0.95L7.05 -1.95L6.05 -1.95L6.05 -0.95L3.05 -0.95L3.05 2.05L3.65 2.05L5.1 2.05" />
<linearGradient
id="LinearGradID_3132" gradientUnits="userSpaceOnUse" gradientTransform="matrix(-0.00457764, 0, 0, -0.00366211, -5.55, 0.65)" spreadMethod ="pad" x1="-819.2" y1="0" x2="819.2" y2="0" >
<stop  offset="0" style="stop-color:#FFFFFF;stop-opacity:1" />
<stop  offset="1" style="stop-color:#333333;stop-opacity:1" />
</linearGradient>
<path style="fill:url(#LinearGradID_3132) " d="M-3,-0.9L-1.55 -0.9L-1.55 -0.95L-0.95 -0.95L-0.95 2.05L-3.95 2.05L-3.95 3.05L-4.95 3.05L-4.95 2.05L-5.95 2.05L-5.95 1.05L-6.95 1.05L-6.95 0.05L-5.95 0.05L-5.95 -0.95L-4.95 -0.95L-4.95 -1.95L-3.95 -1.95L-3.95 -0.95L-3 -0.95L-3 -0.9" />
<linearGradient
id="LinearGradID_3133" gradientUnits="userSpaceOnUse" gradientTransform="matrix(0.00488281, 0, 0, 0.00366211, 8.05, 1.05)" spreadMethod ="pad" x1="-819.2" y1="0" x2="819.2" y2="0" >
<stop  offset="0" style="stop-color:#FFFFFF;stop-opacity:1" />
<stop  offset="1" style="stop-color:#333333;stop-opacity:1" />
</linearGradient>
<path style="fill:url(#LinearGradID_3133) " d="M5.1,2L3.65 2L3.65 2.05L3.05 2.05L3.05 -0.95L6.05 -0.95L6.05 -1.95L7.05 -1.95L7.05 -0.95L8.05 -0.95L8.05 0.05L9.05 0.05L9.05 1.05L8.05 1.05L8.05 2.05L7.05 2.05L7.05 3.05L6.05 3.05L6.05 2.05L5.1 2.05L5.1 2" />
</g>
</svg>
