<?xml version="1.0" encoding="utf-8"?>
<svg version="1.1" id="Layer_1"
xmlns="http://www.w3.org/2000/svg"
xmlns:xlink="http://www.w3.org/1999/xlink"
xmlns:author="http://www.sothink.com"
width="16px" height="26px"
xml:space="preserve">
<g id="387" transform="matrix(1, 0, 0, 1, -35.8, -102.7)">
<path style="fill:#4E3D32;fill-opacity:0.360784" d="M51.6,124.8Q51.6 126.4 49.3 127.5Q47.05 128.65 43.8 128.65Q40.55 128.65 38.25 127.5Q36 126.4 36 124.8Q36 123.2 38.25 122.05Q40.55 120.95 43.8 120.95Q47.05 120.95 49.3 122.05Q51.6 123.2 51.6 124.8" />
<path style="fill:#614F41;fill-opacity:1" d="M38.9,105.95L38.8 105.75L38.75 105.3Q38.75 104.35 40.15 103.65Q41.5 102.95 43.45 102.95Q45.4 102.95 46.8 103.65Q48.2 104.35 48.2 105.3L47.75 106.35L43.45 106.5L43.35 106.5L42.75 106.6L42.5 106.65L42.55 106.6L40.4 107L40.3 107L39.65 105.2Q43.85 104.45 47.1 105.65L47.2 105.55L47.3 105.2Q47.3 104.65 46.2 104.3L43.5 103.95L40.8 104.3Q39.65 104.65 39.65 105.2L39.5 106.65L38.9 105.95M47.45,108.05L47.9 108.35Q50.55 108.8 51.1 111.5L51.1 111.6Q51.05 114.25 50.55 116.45L50.45 116.8L49.45 118.55L49.4 118.65Q50.2 116.25 50 114.35Q49.7 111.55 48.3 109.7Q45.7 108.5 47.45 108.05" />
<path style="fill:#76614E;fill-opacity:1" d="M39.5,106.65L39.65 105.2Q39.65 104.65 40.8 104.3L43.5 103.95L46.2 104.3Q47.3 104.65 47.3 105.2L47.2 105.55L47.1 105.65Q43.85 104.45 39.65 105.2L40.3 107Q39.95 106.2 39.5 106.65" />
<path style="fill:#725F49;fill-opacity:1" d="M48.45,120.9L48.45 120.95L48.85 121.45Q49.25 122 49.35 123.2L48.4 123.9L45.95 124.3Q42.55 125.1 42.35 123.4L45.8 121.85Q44.7 122.3 43.45 120.6Q42.3 119.1 41 116.8Q39.7 114.5 41.4 110.2L44.1 109.4L45.7 108.45Q46.6 107.75 45.05 108.15Q43.45 108.55 41.75 107.45L40.4 107L42.55 106.6L42.5 106.65L42.75 106.6Q42.45 106.65 42.45 106.8L43.1 107.2L44.7 107.4L46.3 107.2L46.95 106.8Q46.95 106.55 46.5 106.45L45.3 106.35L43.55 106.5L43.45 106.5L47.75 106.35L47.35 107.75L47.45 108.05Q45.7 108.5 48.3 109.7Q49.7 111.55 50 114.35Q50.2 116.25 49.4 118.65Q48.9 119.45 48.5 120.8L48.45 120.9M42.5,106.65L41.9 106.75L42.4 106.7L42.5 106.65M47.15,110.55L46 110.7Q45.3 110.85 45.5 111.9L46.1 115.15Q46.45 117.35 47 116.2L47.9 114.2L48.2 112.55L47.9 111.1Q47.6 110.55 47.15 110.55M44,123.15L45.5 123.3L47.1 123.1L47.75 122.45Q47.75 122 47.3 122.1L46.2 122.35L45 122.55L43.9 122.75Q43.4 122.95 44 123.15" />
<path style="fill:#4E3D32;fill-opacity:1" d="M37.75,123.15Q37.75 122.4 38 121.85L38.3 121.35L38.7 120.95L38.7 120.9L38.3 120.35L37.6 119.2L37.45 118.9L36.65 116.7Q36.05 114.45 36.05 111.55L36.05 111.5Q36.5 108.95 39.25 108.35L39.65 108.1Q40.1 107.85 39.5 106.65Q40.1 106.55 40.25 107.05Q40.4 107.55 41.3 107.8L41.8 108.5Q41.2 108.9 40.6 110Q38.8 111.45 39 114.4Q39.2 117.35 40.2 118.9Q41.2 120.4 40.9 121.5Q40.55 122.65 39.85 123.35Q39.4 123.7 39.2 124.5Q38.2 124.1 37.75 123.15" />
<path style="fill:#554637;fill-opacity:1" d="M41.75,107.45Q43.45 108.55 45.05 108.15Q46.6 107.75 45.7 108.45L44.1 109.4L41.4 110.2Q39.7 114.5 41 116.8Q42.3 119.1 43.45 120.6Q44.7 122.3 45.8 121.85L42.35 123.4Q42.55 125.1 45.95 124.3L48.4 123.9Q46.3 125 43.85 125.3Q41.35 125.6 39.2 124.5Q39.4 123.7 39.85 123.35Q40.55 122.65 40.9 121.5Q41.2 120.4 40.2 118.9Q39.2 117.35 39 114.4Q38.8 111.45 40.6 110Q41.2 108.9 41.8 108.5L41.3 107.8Q40.4 107.55 40.25 107.05Q40.1 106.55 39.5 106.65Q39.95 106.2 40.3 107L40.4 107L41.75 107.45" />
<path style="fill:#A48877;fill-opacity:1" d="M42.75,106.6L43.35 106.5L43.45 106.5L43.55 106.5L45.3 106.35L46.5 106.45Q46.95 106.55 46.95 106.8L46.3 107.2L44.7 107.4L43.1 107.2L42.45 106.8Q42.45 106.65 42.75 106.6M47.9,111.1L48.2 112.55L47.9 114.2L47 116.2Q46.45 117.35 46.1 115.15L45.5 111.9Q45.3 110.85 46 110.7L47.15 110.55Q47.6 110.55 47.9 111.1M43.9,122.75L45 122.55L46.2 122.35L47.3 122.1Q47.75 122 47.75 122.45L47.1 123.1L45.5 123.3L44 123.15Q43.4 122.95 43.9 122.75" />
<path style="fill:none;stroke-width:0.5;stroke-linecap:round;stroke-linejoin:round;stroke-miterlimit:3;stroke:#332724;stroke-opacity:1" d="M48.45,120.95L48.85 121.45Q49.25 122 49.35 123.2" />
<path style="fill:none;stroke-width:0.5;stroke-linecap:round;stroke-linejoin:round;stroke-miterlimit:3;stroke:#332724;stroke-opacity:1" d="M47.45,108.05L47.75 106.35M47.45,108.05L47.9 108.35Q50.55 108.8 51.1 111.5L51.1 111.6Q51.05 114.25 50.55 116.45L50.45 116.8L49.45 118.55L49.4 118.65Q48.9 119.45 48.5 120.8L48.45 120.95" />
<path style="fill:none;stroke-width:0.5;stroke-linecap:round;stroke-linejoin:round;stroke-miterlimit:3;stroke:#2B1F1E;stroke-opacity:1" d="M47.75,106.35L48.2 105.3Q48.2 104.35 46.8 103.65Q45.4 102.95 43.45 102.95Q41.5 102.95 40.15 103.65Q38.75 104.35 38.75 105.3L38.8 105.75L38.9 105.95L39.5 106.65M37.75,123.15Q37.75 122.4 38 121.85L38.3 121.35L38.7 120.95L38.7 120.9L38.3 120.35L37.6 119.2L37.45 118.9L36.65 116.7Q36.05 114.45 36.05 111.55L36.05 111.5Q36.5 108.95 39.25 108.35L39.65 108.1Q40.1 107.85 39.5 106.65" />
<path style="fill:none;stroke-width:0.5;stroke-linecap:round;stroke-linejoin:round;stroke-miterlimit:3;stroke:#2B1F1E;stroke-opacity:1" d="M39.2,124.5Q41.35 125.6 43.85 125.3Q46.3 125 48.4 123.9M49.35,123.2L48.4 123.9M39.2,124.5Q38.2 124.1 37.75 123.15" />
</g>
</svg>
