<?xml version="1.0" encoding="utf-8"?>
<svg version="1.1" id="Layer_1"
xmlns="http://www.w3.org/2000/svg"
xmlns:xlink="http://www.w3.org/1999/xlink"
xmlns:author="http://www.sothink.com"
width="8px" height="58px"
xml:space="preserve">
<g id="265" transform="matrix(1, 0, 0, 1, -53, 87.8)">
<linearGradient
id="LinearGradID_796" gradientUnits="userSpaceOnUse" gradientTransform="matrix(0.00126648, 0, 0, 0.0313263, 57.15, -69.25)" spreadMethod ="pad" x1="-819.2" y1="0" x2="819.2" y2="0" >
<stop  offset="0" style="stop-color:#000000;stop-opacity:1" />
<stop  offset="1" style="stop-color:#FFFFFF;stop-opacity:1" />
</linearGradient>
<path style="fill:url(#LinearGradID_796) " d="M58.2,-84.55L56.15 -84.55L56.15 -87.55L58.2 -87.55L58.2 -84.55" />
<linearGradient
id="LinearGradID_797" gradientUnits="userSpaceOnUse" gradientTransform="matrix(0.00126648, 0, 0, 0.0313263, 57.15, -67.45)" spreadMethod ="pad" x1="-819.2" y1="0" x2="819.2" y2="0" >
<stop  offset="0" style="stop-color:#000000;stop-opacity:1" />
<stop  offset="1" style="stop-color:#FFFFFF;stop-opacity:1" />
</linearGradient>
<path style="fill:url(#LinearGradID_797) " d="M56.15,-84.55L58.2 -84.55L58.2 -78L59.35 -76.95L59.55 -76.6Q60.2 -75.45 60.2 -73.9L60.2 -73.85L59.6 -73.85Q59.6 -75.3 58.9 -76.3L58.2 -77L57.15 -77.35L56.15 -77L55.5 -76.3L54.95 -75.2Q54.75 -74.6 54.8 -73.85Q54.75 -72.95 55.05 -72.15L54.45 -72Q54.2 -72.85 54.2 -73.75L54.2 -73.85L54.2 -73.9L54.35 -75.25L54.85 -76.6L54.9 -76.65L55.1 -76.95Q55.55 -77.65 56.15 -78L56.15 -84.55M55.05,-72.15L55.1 -72.2L55.6 -72.85L56.15 -73.25L56.95 -73.5L57.2 -73.5L58.2 -73.25L59.35 -72.2L59.6 -71.8L59.75 -71.45L59.95 -70.85L60.2 -69.15L60.2 -69.1L59.6 -69.1L59.35 -70.7L59.15 -71.15L58.95 -71.45L58.9 -71.55L58.2 -72.25L57.15 -72.6L56.15 -72.25L55.6 -71.7L55.05 -72.15M56.95,-41.7L56.15 -41.7L56.15 -64.95Q56.6 -64.65 57.2 -64.65L58.2 -64.9L58.2 -41.7L57.2 -41.7L57.1 -41.7L57.05 -41.7L57 -41.7L56.95 -41.7" />
<path style="fill:#CCCCCC;fill-opacity:1" d="M59.35,-72.2L59.55 -73.3L59.6 -73.85L60.2 -73.85L60.2 -73.8L60.2 -73.2L59.85 -71.7L59.75 -71.45L59.6 -71.8L59.35 -72.2M55.6,-71.7L55.5 -71.55L55.4 -71.45L55.5 -71.35Q56.15 -70.3 57.15 -70.3L56.9 -69.45Q55.85 -69.6 55.1 -70.7L55.05 -70.75L55.05 -70.7L54.95 -70.45Q54.75 -69.85 54.8 -69.1Q54.75 -67.65 55.5 -66.6L56.15 -65.9Q56.6 -65.55 57.15 -65.55Q57.7 -65.55 58.2 -65.9L58.9 -66.6L59.1 -66.95L59.15 -67.05L59.55 -68.55L59.6 -69.1L60.2 -69.1L60.2 -69.05L60.2 -68.45L59.7 -66.6L59.35 -65.95L58.2 -64.9L57.2 -64.65Q56.6 -64.65 56.15 -64.95L55.65 -65.3L55.1 -65.95L54.9 -66.25L54.9 -66.3Q54.2 -67.5 54.2 -69L54.2 -69.1L54.2 -69.15L54.35 -70.5L54.45 -70.9L54.65 -71.45L54.45 -72L55.05 -72.15L55.6 -71.7" />
<radialGradient
id="RadialGradID_798" gradientUnits="userSpaceOnUse" gradientTransform="matrix(0.00756836, 0, 0, 0.00756836, 60.2, -73.8)" spreadMethod ="pad" cx="0" cy="0" r="819.2" fx="0" fy="0" >
<stop  offset="0"  style="stop-color:#000000;stop-opacity:1" />
<stop  offset="1"  style="stop-color:#FFFFFF;stop-opacity:1" />
</radialGradient>
<path style="fill:url(#RadialGradID_798) " d="M57.2,-69.4L56.9 -69.45L57.15 -70.3Q58.15 -70.3 58.9 -71.35L58.95 -71.45L59.15 -71.15L59.35 -70.7Q58.45 -69.4 57.2 -69.4" />
<path style="fill:#666666;fill-opacity:1" d="M59.45,-37.3Q59.45 -38.75 58.75 -39.75Q58.05 -40.75 57.1 -40.8L57.1 -41.7L57.2 -41.7Q58.35 -41.65 59.2 -40.4Q60.05 -39.15 60.05 -37.35L60.05 -37.3L60.05 -37.25L59.45 -37.3M58.3,-35.2L58.3 -33.05L57.4 -32.6L57.4 -32.9L57.4 -33.8L57.4 -35.3L57.25 -35.35L58.3 -35.2M53.25,-30.45L53.25 -34.8L54.15 -35.85L54.7 -36.25Q56.25 -37.4 58.65 -37.25L58.65 -37.15L58.55 -37.15Q55.65 -36.95 54.15 -34.7L54.15 -30.95L53.25 -30.45M57,-41.7L57.05 -41.7L57.05 -40.8L56.95 -40.8Q55.95 -40.8 55.3 -39.75L54.75 -38.65L54.6 -37.3L54 -37.2L54 -37.3L54 -37.35Q54 -38.1 54.15 -38.7Q54.35 -39.65 54.9 -40.4Q55.75 -41.7 56.95 -41.7L57 -41.7" />
<radialGradient
id="RadialGradID_799" gradientUnits="userSpaceOnUse" gradientTransform="matrix(0.00756836, 0, 0, 0.00756836, 60, -37.25)" spreadMethod ="pad" cx="0" cy="0" r="819.2" fx="0" fy="0" >
<stop  offset="0"  style="stop-color:#000000;stop-opacity:1" />
<stop  offset="1"  style="stop-color:#FFFFFF;stop-opacity:1" />
</radialGradient>
<path style="fill:url(#RadialGradID_799) " d="M55.55,-33.8L55.8 -34.2Q56.3 -33.75 56.95 -33.75L57.05 -33.75L57.05 -32.85L57 -32.85Q56.2 -32.85 55.55 -33.4L55.55 -33.8M54.15,-35.85Q54 -36.5 54 -37.2L54.6 -37.3L54.7 -36.25L54.15 -35.85" />
<radialGradient
id="RadialGradID_800" gradientUnits="userSpaceOnUse" gradientTransform="matrix(0.00756836, 0, 0, 0.00756836, 60.05, -37.25)" spreadMethod ="pad" cx="0" cy="0" r="819.2" fx="0" fy="0" >
<stop  offset="0"  style="stop-color:#000000;stop-opacity:1" />
<stop  offset="1"  style="stop-color:#FFFFFF;stop-opacity:1" />
</radialGradient>
<path style="fill:url(#RadialGradID_800) " d="M60.05,-37.25L60.05 -36.65L59.55 -34.85L59.55 -37.15L59.45 -37.15L59.45 -37.3L60.05 -37.25M57.4,-32.9L57.1 -32.85L57.1 -33.75L57.4 -33.8L57.4 -32.9" />
<radialGradient
id="RadialGradID_801" gradientUnits="userSpaceOnUse" gradientTransform="matrix(0.00634766, 0, 0, 0.00634766, 56.9, -33.95)" spreadMethod ="pad" cx="0" cy="0" r="819.2" fx="0" fy="0" >
<stop  offset="0"  style="stop-color:#000000;stop-opacity:1" />
<stop  offset="1"  style="stop-color:#FFFFFF;stop-opacity:1" />
</radialGradient>
<path style="fill:url(#RadialGradID_801) " d="M54.15,-30.95L54.15 -34.7Q55.65 -36.95 58.55 -37.15L58.65 -37.15L59.45 -37.15L59.55 -37.15L59.55 -34.85L59.55 -33.1L58.3 -32.5L58.3 -33.05L58.3 -35.2L57.25 -35.35Q56.4 -35.25 55.8 -34.2L55.55 -33.8L55.55 -33.4L55.55 -31.1L54.15 -30.35L54.15 -30.95" />
<path style="fill:none;stroke-width:0.5;stroke-linecap:round;stroke-linejoin:round;stroke-miterlimit:3;stroke:#666666;stroke-opacity:1" d="M56.15,-87.55L56.15 -84.55L56.15 -78M58.2,-84.55L58.2 -87.55M55.05,-72.15Q54.75 -72.95 54.8 -73.85Q54.75 -74.6 54.95 -75.2L55.5 -76.3L56.15 -77L57.15 -77.35L58.2 -77L58.9 -76.3Q59.6 -75.3 59.6 -73.85M58.2,-64.9L59.35 -65.95L59.7 -66.6L60.2 -68.45L60.2 -69.05L60.2 -69.1L60.2 -69.15L59.95 -70.85L59.75 -71.45L59.85 -71.7L60.2 -73.2L60.2 -73.8L60.2 -73.85L60.2 -73.9Q60.2 -75.45 59.55 -76.6L59.35 -76.95L58.2 -78L57.2 -78.25L56.95 -78.25L56.15 -78Q55.55 -77.65 55.1 -76.95L54.9 -76.65L54.85 -76.6L54.35 -75.25L54.2 -73.9L54.2 -73.85L54.2 -73.75Q54.2 -72.85 54.45 -72L54.65 -71.45L54.45 -70.9L54.35 -70.5L54.2 -69.15L54.2 -69.1L54.2 -69Q54.2 -67.5 54.9 -66.3L54.9 -66.25L55.1 -65.95L55.65 -65.3L56.15 -64.95Q56.6 -64.65 57.2 -64.65L58.2 -64.9L58.2 -41.7L57.2 -41.7Q58.35 -41.65 59.2 -40.4Q60.05 -39.15 60.05 -37.35L60.05 -37.3L60.05 -37.25L60.05 -36.65L59.55 -34.85L59.55 -33.1L58.3 -32.5L58.3 -33.05L57.4 -32.6M55.05,-72.15L55.1 -72.2L55.6 -72.85L56.15 -73.25L56.95 -73.5L57.2 -73.5L58.2 -73.25L59.35 -72.2L59.55 -73.3L59.6 -73.85M58.2,-84.55L58.2 -78M55.6,-71.7L56.15 -72.25L57.15 -72.6L58.2 -72.25L58.9 -71.55L58.95 -71.45L59.15 -71.15L59.35 -70.7L59.6 -69.1M59.75,-71.45L59.6 -71.8L59.35 -72.2M58.95,-71.45L58.9 -71.35Q58.15 -70.3 57.15 -70.3M56.9,-69.45L57.2 -69.4Q58.45 -69.4 59.35 -70.7M56.9,-69.45Q55.85 -69.6 55.1 -70.7L55.05 -70.75L55.05 -70.7L54.95 -70.45Q54.75 -69.85 54.8 -69.1Q54.75 -67.65 55.5 -66.6L56.15 -65.9Q56.6 -65.55 57.15 -65.55Q57.7 -65.55 58.2 -65.9L58.9 -66.6L59.1 -66.95L59.15 -67.05L59.55 -68.55L59.6 -69.1M57.4,-32.6L57.4 -32.9L57.1 -32.85M57.1,-33.75L57.4 -33.8L57.4 -35.3L57.25 -35.35Q56.4 -35.25 55.8 -34.2Q56.3 -33.75 56.95 -33.75L57.05 -33.75M57.05,-32.85L57 -32.85Q56.2 -32.85 55.55 -33.4L55.55 -31.1L54.15 -30.35L54.15 -30.95L53.25 -30.45L53.25 -34.8L54.15 -35.85Q54 -36.5 54 -37.2L54 -37.3L54 -37.35Q54 -38.1 54.15 -38.7Q54.35 -39.65 54.9 -40.4Q55.75 -41.7 56.95 -41.7L56.15 -41.7L56.15 -64.95M55.6,-71.7L55.5 -71.55L55.4 -71.45L55.5 -71.35Q56.15 -70.3 57.15 -70.3M57.05,-40.8L56.95 -40.8Q55.95 -40.8 55.3 -39.75L54.75 -38.65L54.6 -37.3L54.7 -36.25Q56.25 -37.4 58.65 -37.25L58.65 -37.15L59.45 -37.15L59.45 -37.3Q59.45 -38.75 58.75 -39.75Q58.05 -40.75 57.1 -40.8M57.2,-41.7L57.1 -41.7L57.05 -41.7M56.95,-41.7L57 -41.7M54.15,-30.95L54.15 -34.7Q55.65 -36.95 58.55 -37.15L58.65 -37.15M59.45,-37.15L59.55 -37.15L59.55 -34.85M57.4,-33.8L57.4 -32.9M58.3,-33.05L58.3 -35.2L57.25 -35.35M55.8,-34.2L55.55 -33.8L55.55 -33.4M54.15,-35.85L54.7 -36.25" />
<path style="fill:none;stroke-width:0.5;stroke-linecap:round;stroke-linejoin:round;stroke-miterlimit:3;stroke:#999999;stroke-opacity:1" d="M58.3,-32.5L57.4 -32.6M54.15,-30.35L53.25 -30.45" />
</g>
</svg>
