<?xml version="1.0" encoding="utf-8"?>
<svg version="1.1" id="Layer_1"
xmlns="http://www.w3.org/2000/svg"
xmlns:xlink="http://www.w3.org/1999/xlink"
xmlns:author="http://www.sothink.com"
width="39px" height="27px"
xml:space="preserve">
<g id="805" transform="matrix(1, 0, 0, 1, -5.9, -11.9)">
<path style="fill:#FFFFFF;fill-opacity:1" d="M40.9,34.95L40.95 34.95L38.45 37.9L29.65 37.9L29.65 38.4L21.4 38.4L21.4 37.9L11.25 37.9L10.85 37.85L10.85 37.7L8.8 34.95L9 34.95Q6.35 31.85 6.5 27.85Q6.35 22.55 11.85 18.05Q17.35 13 25 12.5Q32.6 13 38.05 18.05Q43.5 22.55 43.5 27.85Q43.5 31.85 40.9 34.95" />
<path style="fill:none;stroke-width:1.2;stroke-linecap:round;stroke-linejoin:round;stroke-miterlimit:3;stroke:#000000;stroke-opacity:1" d="M9,34.95Q6.35 31.85 6.5 27.85Q6.35 22.55 11.85 18.05Q17.35 13 25 12.5Q32.6 13 38.05 18.05Q43.5 22.55 43.5 27.85Q43.5 31.85 40.9 34.95" />
<path style="fill:#000000;fill-opacity:1" d="M31.2,34.3Q29.85 34.3 29.3 32.9Q28.7 34.3 27.4 34.3Q26.35 34.3 25.75 33.45Q25.1 32.6 25.1 31.1Q25.1 29.55 26.05 27.95L27.05 27.95Q26.2 29.85 26.2 31.2Q26.2 32.2 26.55 32.85Q26.95 33.45 27.5 33.45L28.2 33.15L28.65 32.45L28.75 31.3L28.75 29.5L29.8 29.5L29.8 31.3L29.9 32.45Q30.05 32.9 30.35 33.2L31.05 33.45Q31.65 33.45 32 32.85Q32.4 32.2 32.4 31.2Q32.4 29.85 31.5 27.95L32.55 27.95Q33.45 29.55 33.45 31.1Q33.45 32.65 32.8 33.5Q32.2 34.3 31.2 34.3" />
</g>
</svg>
