<?xml version="1.0" encoding="utf-8"?>
<svg version="1.1" id="Layer_1"
xmlns="http://www.w3.org/2000/svg"
xmlns:xlink="http://www.w3.org/1999/xlink"
xmlns:author="http://www.sothink.com"
width="46px" height="36px"
xml:space="preserve">
<g id="830" transform="matrix(1, 0, 0, 1, 22.05, 51.5)">
<path style="fill:#000000;fill-opacity:1" d="M2.8,-16.65Q-0.9 -17.1 -5.15 -19.1Q-10.7 -18.3 -15.2 -21.25L-14 -32.5Q-15.1 -37 -13.3 -40.55Q-11.3 -44.4 -7.25 -43.65L13.55 -43.6L13.5 -32.15Q13.75 -25.2 15.2 -21.6Q15.9 -19.9 15.8 -18.95Q15.75 -18.1 15 -17.6Q13.75 -16.8 10.75 -17L2.8 -16.65" />
<path style="fill:none;stroke-width:1;stroke-linecap:round;stroke-linejoin:round;stroke-miterlimit:3;stroke:#000000;stroke-opacity:1" d="M-15.2,-21.25Q-10.7 -18.3 -5.15 -19.1Q-0.9 -17.1 2.8 -16.65L10.75 -17" />
<path style="fill:none;stroke-width:0.5;stroke-linecap:round;stroke-linejoin:round;stroke-miterlimit:3;stroke:#333333;stroke-opacity:1" d="M10.75,-17Q13.75 -16.8 15 -17.6Q15.75 -18.1 15.8 -18.95Q15.9 -19.9 15.2 -21.6Q13.75 -25.2 13.5 -32.15L13.55 -43.6L-7.25 -43.65Q-11.3 -44.4 -13.3 -40.55Q-15.1 -37 -14 -32.5L-15.2 -21.25" />
<path style="fill:#000000;fill-opacity:1" d="M15.15,-41.3L15.65 -41.25L16.05 -41.45L16.1 -41.55Q14.7 -41.7 15.15 -41.3M-15.85,-42.85L-17.4 -43.6L-22.05 -44.4L-17.5 -51.5L-14.15 -49.15L-2.75 -46.3L0.8 -46.3L4.85 -47.15L18.25 -49.9L23.5 -41.35L19.7 -42.5L17.15 -41.55L17.1 -41.55L17.2 -41L18.15 -30.95L19.35 -18.5L11.1 -17.25L11.85 -18.85L14.85 -19L11.85 -26.5Q12.55 -28.1 10.95 -29.25Q9.05 -30.6 9 -31.05L11.65 -36.15Q11.15 -37 10.95 -38.75Q10.65 -39.85 9.55 -40L8.95 -40.05L7.45 -40.3L5.75 -40L2.95 -40.15L-1.85 -40.75L-1.85 -40.6L-1.9 -40.75L-2 -41L-2.5 -41L-2.55 -41.1L-2.65 -41.15L-2.95 -41.1L-3.55 -40.9L-3.65 -40.9L-6.9 -41.3Q-9.1 -41.45 -11.2 -40.15Q-13.1 -38.95 -13.7 -37.45Q-14.55 -35.15 -12.5 -30.55L-12.95 -21.35L-14.85 -21L-18.9 -23.25L-17.25 -32.5L-16.25 -36.85L-15.85 -42.85" />
<path style="fill:none;stroke-width:1;stroke-linecap:round;stroke-linejoin:round;stroke-miterlimit:3;stroke:#CCCCCC;stroke-opacity:1" d="M15.15,-41.3L15.65 -41.25L16.05 -41.45L16.1 -41.55M15.15,-41.3L9.55 -40M17.1,-41.55L16.05 -41.45M17.1,-41.55L17.15 -41.55L19.7 -42.5M-17.4,-43.6L-15.85 -42.85L-6.9 -41.3L-3.65 -40.9L-3.55 -40.9M-1.9,-40.75L-1.85 -40.75L2.95 -40.15L5.75 -40L7.45 -40.3L8.95 -40.05L9.55 -40M-1.9,-40.75L-3.55 -40.9" />
<path style="fill:none;stroke-width:1;stroke-linecap:round;stroke-linejoin:round;stroke-miterlimit:3;stroke:#000000;stroke-opacity:1" d="M-6.9,-41.3Q-9.1 -41.45 -11.2 -40.15Q-13.1 -38.95 -13.7 -37.45M-14.85,-21L-18.9 -23.25L-17.25 -32.5L-16.25 -36.85L-15.85 -42.85" />
<path style="fill:none;stroke-width:1;stroke-linecap:round;stroke-linejoin:round;stroke-miterlimit:3;stroke:#FFFFFF;stroke-opacity:1" d="M1.05,-34.55L1.1 -34.45L6.8 -34.25L3.75 -30.7L6.75 -26.45L0.6 -26.7L-1.95 -24.15L-3.7 -26.85L-3.75 -26.85L-4.05 -27.35L-4.5 -26.85L-10.05 -27.85L-8.25 -30.2L-7.15 -31.45L-6.9 -31.65L-9.55 -35.65L-4.65 -34.45L-4.25 -34.95L-4.05 -34.3L-3.45 -35.95L-1.55 -38.25L0.3 -35.6L0.75 -34.5L1.05 -34.55M1.1,-34.45L0.75 -34.5L-4.05 -34.3L-4.65 -34.45L-6.8 -31.8L-6.9 -31.65L-4.05 -27.35L-3.7 -26.85L-0.6 -27.05L0.35 -27L0.6 -26.7L3.75 -30.7L3.7 -30.75L3.3 -31.5L1.1 -34.45" />
</g>
</svg>
