<?xml version="1.0" encoding="utf-8"?>
<svg version="1.1" id="Layer_1"
xmlns="http://www.w3.org/2000/svg"
xmlns:xlink="http://www.w3.org/1999/xlink"
xmlns:author="http://www.sothink.com"
width="21px" height="48px"
xml:space="preserve">
<g id="671" transform="matrix(1, 0, 0, 1, -119.45, 6.1)">
<path style="fill:#56503A;fill-opacity:1" d="M120.5,-1.9L121 -1.75L121.7 -1.35Q122.3 -1.05 122.6 -1L122.95 -0.95L123 -1.5L123 -2.4L122.65 -3.1L122.95 -3.25L123.25 -3.1L123.9 -2.5L124.2 -1.6L124.8 -0.8L125.65 0.15L125.65 0.55L125.5 0.6L124.55 0.6L123.95 0.55L123.8 1.6L125.2 2.7L126.05 3.25Q126.55 3.45 127.05 4.15L127.55 5.25Q127.55 5.55 127.2 5.45L125.5 4.05L123.8 2.45L123.8 2.7L123.9 3.8L123.8 4.7L123.1 4.85Q122.15 4 121.6 2.9L121 1.7L120.45 1.8Q120.05 1.75 120 1.6L119.7 0.8Q119.65 0.55 120.25 0.55Q121.5 0.4 122.15 -0.05L120.8 -1.35L120.5 -1.9M124.05,-0.85L124 -0.75L124.1 -0.75L124.05 -0.85M136.65,-4.2L137.4 -3.45L137.85 -2.7L137.8 -2.5Q137.55 -2.05 137.45 -1.4L137.25 -0.25Q137.1 0.25 136.7 0.15L135.8 -0.3L134.45 -0.8L133.8 -1.05L133.3 -1.45L132.75 -2.1L132.65 -2.5L133.55 -2.3L134.35 -1.9L136 -1.15L136.2 -2.05L136.35 -3.45L135.75 -3.7L134.05 -4.4L133.7 -4.65L133 -5.5Q132.7 -5.8 132.7 -6.1L133.9 -5.4L136.35 -4.25L136.65 -4.2M139.45,-3.65L138.95 -3.7L138.2 -4.65L137.95 -5.25L138.45 -5.05L139.5 -4L139.45 -3.65M137.2,-4.95L137.8 -4.7L138.3 -4.3Q138.7 -3.95 138.7 -3.55Q138.7 -3.15 138.2 -3.4L137.65 -3.85L137.1 -4.7Q136.95 -5.05 137.2 -4.95M136.9,5.9L136.5 5.85L136.4 5.8L135.35 5.05Q134.3 3.85 134.1 3.1L134.55 3.5L135.65 4.3L136 4.4Q136.65 4.95 136.9 5.45L136.9 5.9M133.85,5.2L135.65 6.2Q136.65 7.15 136.65 7.8L136.35 7.9L135.35 7.15L134.15 5.8L133.85 5.2M136.35,9.35L137.3 10.7L137.3 11.25L136.85 11.2L136.4 10.75L133.75 7.85L133.45 7.25L134.55 7.95L136.35 9.35M122.7,1.55L122.25 1.3L121.4 1.6L122.6 3.15L122.75 3.2L122.8 1.65L122.7 1.55M122.85,0.95L122.85 0.9L122.85 0.95M124.6,8.65Q124.6 8.35 124.8 8.5L124.95 8.65L125.5 9.05L125.9 9.45L125.85 9.8L125.65 9.85L125.85 10L126.05 10.25L126.05 9.2L126.1 9.2L125.2 8.7L124.6 8.25Q124.4 7.95 124.7 7.95L126.05 8.4Q127 8.85 127 9.6L126.9 11.6Q126.85 12.15 126.5 11.95Q126.15 11.85 125.75 11.15L125.2 10.4L124.5 10.25L124.45 10.5L124.1 10.65L123.9 10.6L124 11.1L123.75 11.45L123.7 11.55L124.75 11.65L124.75 11.4L124.75 11.25L124.55 10.85Q124.4 10.6 124.6 10.55L125.55 11.3L125.7 11.85L125.65 11.95L126 12.1Q126.35 12.25 126.35 12.5L125.75 12.7L125.65 12.75L126.2 13Q126.8 13.4 126.4 13.6L125.65 13.7L125.95 13.85L126.35 14.1L126.35 14.5L125.9 14.65L125.7 14.8L125.7 14.9L126.6 15.35L126.75 15.4Q127.2 15.65 127.3 16.1L127.3 16.45L126.65 16.25L124.35 15.1L124.05 14.9L123.85 14.9L123.4 15.2Q122.7 14.65 122.75 14.05L122.8 12.55L122.8 12L122.7 12.1Q122.3 12.05 122.15 11.8L122.15 12.05Q121.95 12.35 121.7 12.25L121.25 11.75L120.1 11.5Q119.35 11.15 119.45 10.2L119.6 8.3L119.6 7.3L119.8 6.7L120.05 7L120.4 7.05Q121 7.15 121.4 7.35L122 7.9L122.25 8.3L122.2 11.15L123.2 10.3L123.1 9.85L123.4 9.95L123.15 9.5Q123.1 9.2 123.5 9.4L123.65 9.3L123.65 8.85L123 9.4L122.55 9.4Q122.15 8.6 122.7 8.5L122.25 7.85Q122.05 7.6 122.15 7.5L122.55 7.7L122.05 7.25L121.8 6.8L123.5 7.35L124.35 7.95L124.55 9.15L124.5 10.25L125 9.85L124.8 9.25Q125.1 9.3 124.6 8.65M123.65,12L123.65 12.45L124.7 12.5L124.7 12.45L124 12.3Q123.65 12.1 123.65 12M124.7,13.2L123.65 12.9L123.65 13.35L123.7 13.95L123.75 14.25L124 14.35L123.9 14.15L124.55 14L124.15 13.95Q123.5 13.6 124.05 13.35L124.7 13.3L124.7 13.2M124.75,13.95L124.55 14L124.75 14L124.75 13.95M124,14.35L124.15 14.4L124 14.35M123.95,17.4L125.05 18.25Q125.6 18.75 125.6 19.55L125.6 19.95L125.6 21.95L125.75 24.25L125.6 25.2L125.2 25.4L124.9 25.15L123.6 24.2L122.6 23.45L121.9 22.85L121.65 23.25Q120.6 22.3 120.65 21.75L120.9 19.65L121.1 17.05Q121.25 17.05 121.45 17.2L121.75 18.15L121.8 18.85L121.85 19.1L123.75 19.9L124.4 20.8L124.45 20.9L124.45 19.35L124.4 18.4L124.4 18.3L124.2 18.15L122.35 17.75L121.95 17.25L123.15 17.15L123.95 17.4M121.85,19.8L121.9 21L122.6 20.35L121.85 19.8M136.7,15.95L137.3 15.9L137.95 16.6L138.3 17.35Q138.3 17.75 137.45 17.8L135.6 18Q135.55 18.9 135.65 19.35L136.65 19.65L137.1 19.5L136.8 19.15L136.9 19.05Q138.1 19.55 138.8 20.65Q139.3 21.55 139.3 22.35Q139.1 22.6 138.6 22.35Q138 21.7 137.2 21.4L137.45 21.05L137.9 20.8L137.35 19.8L137.25 20.05L135.45 20.15L133.55 19.5L132.55 18.95L132.2 18.6L131.8 17.7Q131.8 17.35 132.3 17.3Q132.55 17.25 132.75 17.6L133.6 17.45L134.5 17.35L134.55 16.8L134.55 16.55L132.7 16.15L132 15Q132 14.8 132.15 14.75L132.9 13.8L133.3 13.95L133.1 15.25L133.25 15.35L133.95 15.55L134.6 15.8L134.7 13.3L134.4 12.55L134.65 12.6L135.05 12.7Q135.95 13.65 135.9 14.25L135.65 15.9L135.65 16L136.75 16.2L136.7 15.95M132.95,18.25L134 18.75L134.7 19L134.45 17.9L132.75 18.1L132.95 18.25M135.6,17.25Q135.95 16.95 136.25 16.9L135.6 16.85L135.6 17.25M135.4,24.15L135.45 25.5L135.3 26.95L135.45 28.1Q135.6 28.75 136.3 29.95L137.35 31.85L137.05 31.9Q135.3 30.2 134.85 29.25Q134.15 28.1 134.35 26.75L134.5 25.25L134.6 24L134.45 22.7L134.3 22.25L134.7 22.55Q135.25 23.25 135.4 24.15M135.95,33.3L137.05 34.15Q137.6 34.65 137.6 35.45L137.6 35.85L137.6 37.85L137.75 40.15L137.6 41.1L137.2 41.3L136.9 41.05L135.6 40.1L134.6 39.35L133.9 38.75L133.65 39.15Q132.6 38.2 132.65 37.65L132.9 35.55L133.1 32.95Q133.25 32.95 133.45 33.1L133.75 34.05L133.8 34.75L133.85 35L135.75 35.8L136.4 36.7L136.45 36.8L136.45 35.25L136.4 34.3L136.4 34.2L136.2 34.05L134.35 33.65L133.95 33.15L135.15 33.05L135.95 33.3M133.9,36.9L134.6 36.25L133.85 35.7L133.9 36.9M120.25,7.5L120.4 8.5L120.7 8.65L121.15 9L121.15 7.9L121.15 7.85L120.3 7.5L120.25 7.5M120.65,9.55L120.4 9.3L120.4 9.5L120.35 9.95L120.35 10.35Q120.35 9.9 120.65 9.55M120.35,10.75L120.35 10.95L121.05 10.85L121.15 10Q120.65 10.15 120.35 10.75" />
</g>
</svg>
