<?xml version="1.0" encoding="utf-8"?>
<svg version="1.1" id="Layer_1"
xmlns="http://www.w3.org/2000/svg"
xmlns:xlink="http://www.w3.org/1999/xlink"
xmlns:author="http://www.sothink.com"
width="29px" height="16px"
xml:space="preserve">
<g id="742" transform="matrix(1, 0, 0, 1, 14.05, 45)">
<path style="fill:#FFFFFF;fill-opacity:0" d="M1.25,-43.75Q1.25 -40.95 5.9 -36.3L5.5 -35.95Q4.7 -35.25 3.4 -35.25Q0.85 -35.25 -0.1 -37.85Q-0.55 -39.15 -0.5 -40.55Q-0.5 -43.25 1.35 -45L1.25 -43.75M7.15,-35.1Q9.2 -33.15 11.45 -31.75Q11.15 -30 9.5 -30Q8.5 -30 7.8 -30.4Q7.05 -30 6.25 -30Q4.55 -30 4 -31.1Q3.7 -31.65 3.75 -32.25Q3.75 -34.05 5.8 -34.75Q5.9 -35.55 6.25 -35.95L7.15 -35.1M12.7,-31L14.3 -30.2L13.4 -30.1L12.3 -30L12.7 -31" />
<path style="fill:#FFFFFF;fill-opacity:0" d="M0.35,-37.85Q-0.6 -35.25 -3.15 -35.25Q-4.45 -35.25 -5.25 -35.95L-5.65 -36.3Q-1 -40.95 -1 -43.75L-1.1 -45Q0.75 -43.25 0.75 -40.55Q0.8 -39.15 0.35 -37.85M-12.45,-31L-12.05 -29.95L-14.05 -30.15L-12.45 -31M-3.75,-31.1Q-4.3 -30 -6 -30L-7.55 -30.4Q-8.25 -30 -9.25 -30Q-10.9 -30 -11.2 -31.75Q-8.95 -33.15 -6.9 -35.1L-6 -35.95Q-5.65 -35.55 -5.55 -34.75Q-3.5 -34.05 -3.5 -32.25Q-3.45 -31.65 -3.75 -31.1" />
</g>
</svg>
