<?xml version="1.0" encoding="utf-8"?>
<svg version="1.1" id="Layer_1"
xmlns="http://www.w3.org/2000/svg"
xmlns:xlink="http://www.w3.org/1999/xlink"
xmlns:author="http://www.sothink.com"
width="9px" height="39px"
xml:space="preserve">
<g id="468" transform="matrix(1, 0, 0, 1, 4.2, 38.5)">
<path style="fill:#8C7A48;fill-opacity:1" d="M-0.65,0L-2.1 -0.2L-3 -0.5L-3 -1.85L-3 -16.2L-3 -17.3L-2.5 -17.1L-3 -17.3L-3 -19.2L-3 -20.5L-3 -20.55L-3 -34.1L-3.7 -34.3Q-3.35 -36.2 -1.15 -37.2Q0.6 -38 2.25 -38Q2.8 -38 3.15 -37.65L3.65 -37L3.3 -34.85L2.9 -34.5Q1.7 -33.6 -0.45 -33.6L-0.75 -33.6L-0.75 -16.8L-0.65 -16.8L-0.65 0" />
<path style="fill:#96834B;fill-opacity:1" d="M-0.65,-16.8L-0.75 -16.8L-0.75 -33.6L-0.45 -33.6Q1.7 -33.6 2.9 -34.5L3.3 -34.85L3.3 -21.05L3.3 -18.05L3.3 -4.25L3.65 -3.45Q4.1 -1.8 2.9 -0.9Q1.7 0 -0.45 0L-0.65 0L-0.65 -16.8M-3,-17.3L-2.5 -17.1L-3 -17.3" />
<path style="fill:none;stroke-width:1;stroke-linecap:round;stroke-linejoin:round;stroke-miterlimit:3;stroke:#515528;stroke-opacity:1" d="M-3,-17.3L-2.5 -17.1L-1.9 -16.95L-0.95 -16.8L-0.75 -16.8L-0.65 -16.8L-0.45 -16.8Q1.7 -16.8 2.9 -17.7L3.3 -18.05L3.3 -21.05L3.3 -34.85L2.9 -34.5Q1.7 -33.6 -0.45 -33.6L-0.75 -33.6M3.65,-37Q4 -35.7 3.3 -34.85L3.65 -37L3.15 -37.65Q2.8 -38 2.25 -38Q0.6 -38 -1.15 -37.2Q-3.35 -36.2 -3.7 -34.3L-3 -34.1Q-1.95 -33.65 -0.75 -33.6M3.3,-21.05Q4.2 -19.2 3.3 -18.05L3.3 -4.25L3.65 -3.45Q4.1 -1.8 2.9 -0.9Q1.7 0 -0.45 0L-0.65 0L-2.1 -0.2Q-2.45 -0.1 -3.4 -0.5L-3 -1.85L-3 -16.2L-3 -17.3L-3.1 -17.35Q-3.65 -17.5 -3.65 -18.25Q-3.65 -19 -3 -19.2L-3 -20.5M-3,-20.55L-3 -34.1M-3,-17.3L-3 -19.2M-3,-17.3L-2.5 -17.1M-3,-1.85L-3 -0.5L-2.1 -0.2" />
</g>
</svg>
