<?xml version="1.0" encoding="utf-8"?>
<svg version="1.1" id="Layer_1"
xmlns="http://www.w3.org/2000/svg"
xmlns:xlink="http://www.w3.org/1999/xlink"
xmlns:author="http://www.sothink.com"
width="526px" height="292px"
xml:space="preserve">
<g id="579" transform="matrix(1, 0, 0, 1, 205.65, 47.25)">
<path style="fill:#CDCDCD;fill-opacity:1" d="M239.9,143.8L239.8 144L239.85 144L239.95 143.85L239.9 143.8M199.75,83.9L239.8 103.9L279.85 123.9L319.8 143.95L280 163.85L280 164L279.85 164L239.95 183.95L239.9 183.95L239.8 184.1L200 204L199.75 204.05L159.85 224L159.8 224L160 223.8L159.75 223.95L119.9 203.95L159.75 184.05L159.8 184.05L159.85 183.9L159.8 183.9L119.9 163.85L159.75 143.95L159.8 143.95L159.85 143.8L159.8 143.75L119.9 123.75L159.75 103.85L159.85 103.9L159.85 103.85L159.75 103.8L119.9 83.8L159.75 63.9L199.75 83.9M79.8,63.85L39.95 43.85L79.75 23.95L79.85 24L119.75 43.95L79.9 63.9L79.8 63.85M39.95,83.8L79.75 63.9L79.85 63.95L119.75 83.9L79.9 103.85L39.95 83.8M79.75,103.85L79.85 103.9L119.75 123.85L79.9 143.8L79.85 143.75L39.95 123.75L79.75 103.85M79.85,183.9L39.95 163.85L79.75 143.95L79.8 143.95L119.75 163.95L79.9 183.9L79.85 183.9M-40.1,3.9L-16.4 -7.95L-15.5 0.55Q-14.75 2 -13.65 3.15L-11.6 4.8L-10.6 5.35L-9.9 5.65L-6.25 6.85L-1.3 7.5L0 7.5L3.6 7.3L7.95 6.4L9.4 5.9L10.05 6.2L33.35 0.8L39.75 4L-0.15 23.95L-0.2 23.9L-40.1 3.9M0.75,184.6L-0.2 184.1L0.75 184.6M-120.05,43.85L-80.25 23.95L-80.15 24L-40.25 43.95L-80.1 63.9L-80.2 63.85L-120.05 43.85M39.75,44L-0.15 63.95L-0.25 63.9L-40.1 43.9L-0.25 24L-0.2 24.05L39.75 44M-40.25,83.9L-80.1 103.85L-80.2 103.8L-104.5 91.6L-85.25 82L-100.85 74.2L-80.25 63.9L-80.15 63.95L-40.25 83.9M39.75,83.95L-0.15 103.9L-0.25 103.85L-40.1 83.85L-0.25 63.95L-0.15 64L39.75 83.95M39.75,123.9L-0.15 143.85L-0.2 143.8L-40.1 123.8L-0.25 103.9L-0.15 103.95L39.75 123.9" />
<path style="fill:#B8B8B8;fill-opacity:1" d="M-131,88.8L-175.25 66.9L-146.05 52.3L-145.35 52L-145.3 52L-140.8 54.25L-120.05 43.85L-80.2 63.85L-80.25 63.9L-100.85 74.2L-85.25 82L-104.5 91.6L-80.2 103.8L-80.25 103.85L-80.15 103.9L-80.1 103.85L-40.25 83.9L-80.15 63.95L-80.1 63.9L-40.25 43.95L-80.15 24L-40.1 3.9L-0.2 23.9L-0.25 24L-40.1 43.9L-0.25 63.9L-0.25 63.95L-40.1 83.85L-0.25 103.85L-0.25 103.9L-40.1 123.8L-0.2 143.8L-0.25 144L-0.2 144L-0.15 143.85L39.75 123.9L-0.15 103.95L-0.15 103.9L39.75 83.95L-0.15 64L-0.15 63.95L39.75 44L-0.2 24.05L-0.15 23.95L39.75 4L79.75 23.95L39.95 43.85L79.8 63.85L79.75 63.9L39.95 83.8L79.9 103.85L79.75 103.85L39.95 123.75L79.85 143.75L79.75 143.95L39.95 163.85L79.85 183.9L79.75 184.05L79.8 184.05L79.9 183.9L119.75 163.95L79.8 143.95L79.9 143.8L119.75 123.85L79.85 103.9L79.9 103.85L119.75 83.9L79.85 63.95L79.9 63.9L119.75 43.95L159.75 63.9L119.9 83.8L159.75 103.8L159.75 103.85L119.9 123.75L159.8 143.75L159.75 143.95L119.9 163.85L159.8 183.9L159.75 184.05L119.9 203.95L159.75 223.95L150 228.85L109.95 208.9L69.95 188.95L29.85 168.95L-10.2 148.95Q-30.3 138.95 -50.35 128.9Q-70.4 118.9 -90.4 108.95L-131 88.8M-0.2,184.1L-0.15 183.95Q-20.1 173.95 -40.1 163.9L-40.25 163.95L-80.2 143.95L-80.1 143.8L-120.05 123.75L-120.25 123.85L-122.15 122.95L-144.65 111.7L-160.8 103.75L-200.95 83.95L-202 83.45L-205.15 81.9L-205.2 81.85L-205.1 81.8L-184.9 71.75L-140.8 93.7L-100.3 113.9L-60.3 133.9L-20.2 153.95L19.85 173.95L59.9 194L99.85 213.95L139.85 233.95L119.85 243.95L119.75 244L79.85 224.05L79.9 224L39.95 203.95L39.75 204.1L0.75 184.6L-0.2 184.1" />
<path style="fill:#FFFFFF;fill-opacity:1" d="M-184.9,71.75L-184.95 71.7L-182.5 70.5L-184.9 71.75" />
<path style="fill:none;stroke-width:1;stroke-linecap:round;stroke-linejoin:round;stroke-miterlimit:3;stroke:#D5D5D5;stroke-opacity:1" d="M239.95,143.85L239.9 143.8L200 123.8L239.8 103.9L199.75 83.9L159.85 103.85M239.8,103.9L279.85 123.9L319.8 143.95L280 163.85L280 164M239.95,143.85L279.85 123.9M159.75,103.8L119.9 83.8L159.75 63.9L119.75 43.95L79.9 63.9M69.95,188.95L79.75 184.05L79.8 184.05L119.85 203.9L119.9 203.95M159.75,103.8L159.85 103.85M119.75,43.95L79.85 24L79.75 23.95L39.95 43.85L79.8 63.85L79.9 63.9M33.35,0.8L39.75 4L79.75 23.95M29.85,168.95L39.75 164L-0.2 144L-0.25 144L-10.2 148.95M139.85,233.95L119.85 243.95M39.75,204.1L0.75 184.6L-0.2 184.1L-40.25 164.05L-80.25 144L-120.25 123.9L-122.15 122.95L-144.65 111.7L-160.8 103.75L-200.95 83.95L-202 83.45M-140.8,93.7L-131 88.8L-120.25 83.45M-175.25,66.9L-146.05 52.3M-140.8,54.25L-120.05 43.85L-80.25 23.95L-80.15 24L-40.1 3.9L-16.4 -7.95M160,223.8L159.75 223.95L150 228.85M119.85,203.9L109.95 208.9M79.9,224L79.95 223.95L40 203.95L39.95 203.95M99.85,213.95L79.95 223.95L119.85 243.95M59.9,194L40 203.95M159.75,63.9L199.75 83.9M-0.15,23.95L-0.2 23.9L-40.1 3.9M-0.15,23.95L39.75 4M-80.15,24L-40.25 43.95L-80.1 63.9L-80.2 63.85M-145.3,52L-146.05 52.3M-100.3,113.9L-120.05 123.75M-80.1,143.8L-60.3 133.9M-120.25,123.85L-120.25 123.9M-90.4,108.95L-80.25 103.85L-80.15 103.9L-40.25 123.85L-50.35 128.9M-80.2,143.95L-80.25 143.95L-80.25 144M-40.25,163.95L-40.25 164.05M-40.1,163.9L-20.2 153.95M-140.8,93.7L-160.8 103.75M-120.05,43.85L-80.2 63.85M-205.15,81.9L-205.05 81.85L-205.1 81.8M-184.9,71.75L-205.05 81.85L-202 83.45M-0.15,183.95L19.85 173.95" />
<path style="fill:none;stroke-width:1;stroke-linecap:round;stroke-linejoin:round;stroke-miterlimit:3;stroke:#D5D5D5;stroke-opacity:1" d="M239.9,183.95L200 163.9L239.8 144L239.85 144M159.85,103.9L199.75 123.85L159.85 143.8L159.8 143.75L119.9 123.75L159.75 103.85M159.8,143.95L199.75 163.95L159.85 183.9L159.8 183.9L119.9 163.85L159.75 143.95M159.75,223.95L119.9 203.95L159.75 184.05L159.8 184.05L199.75 204.05L159.85 224L159.8 224M200,204L239.8 184.1M239.9,183.95L239.95 183.95L279.85 164L239.85 144M79.75,63.9L79.85 63.95L119.75 83.9L79.9 103.85M79.75,103.85L79.85 103.9L119.75 123.85L79.9 143.8L79.85 143.75L39.95 123.75L79.75 103.85M79.75,143.95L79.8 143.95L119.75 163.95L79.9 183.9M79.75,63.9L39.95 83.8L79.9 103.85M79.75,143.95L39.95 163.85L79.85 183.9L79.9 183.9M159.85,103.9L159.75 103.85M159.8,143.95L159.75 143.95M159.75,223.95L159.8 224M-0.25,24L-0.2 24.05M-0.25,24L-40.1 43.9L-0.25 63.9L-0.15 63.95L39.75 44L-0.2 24.05M-80.25,63.9L-80.15 63.95M-80.25,63.9L-100.85 74.2M-104.5,91.6L-80.2 103.8L-80.1 103.85L-40.25 83.9L-80.15 63.95M-0.25,63.95L-0.15 64M-0.25,63.95L-40.1 83.85L-0.25 103.85L-0.15 103.9L39.75 83.95L-0.15 64M-0.15,103.95L-0.25 103.9L-40.1 123.8L-0.2 143.8L-0.15 143.85L39.75 123.9L-0.15 103.95" />
<path style="fill:none;stroke-width:0.5;stroke-linecap:round;stroke-linejoin:round;stroke-miterlimit:3;stroke:#FFFFFF;stroke-opacity:1" d="M-184.95,71.7L-182.5 70.5" />
<path style="fill:none;stroke-width:0.5;stroke-linecap:round;stroke-linejoin:round;stroke-miterlimit:3;stroke:#FFFFFF;stroke-opacity:1" d="M-184.9,71.75L-184.95 71.7" />
<path style="fill:none;stroke-width:1;stroke-linecap:round;stroke-linejoin:round;stroke-miterlimit:3;stroke:#737373;stroke-opacity:1" d="M19.85,-43.75Q23.1 -41.85 22.75 -38.55Q22.4 -35.3 19.85 -32.95M-20.25,-33.1Q-23.4 -35.7 -22.95 -39.35Q-22.5 -43.05 -20.15 -44.7Q-17.85 -46.35 -16.65 -46.75" />
</g>
</svg>
