<?xml version="1.0" encoding="utf-8"?>
<svg version="1.1" id="Layer_1"
xmlns="http://www.w3.org/2000/svg"
xmlns:xlink="http://www.w3.org/1999/xlink"
xmlns:author="http://www.sothink.com"
width="102px" height="86px"
xml:space="preserve">
<g id="643" transform="matrix(1, 0, 0, 1, 50.05, 74.3)">
<path style="fill:#510B00;fill-opacity:1" d="M-21.05,-12.2L-39.2 -3.15L-39.2 -7.35L-39.2 -7.75Q-39 -9.15 -37.55 -10.1L-37.2 -10.3L-37 -10.45L-34.95 -11.55L-32.85 -12.6L-32.2 -12.95L-31.55 -13.25L-29.55 -14.25L-28.6 -14.75Q-25.05 -13.25 -21.05 -12.2M22.15,-12.05L23.65 -12.45L25.9 -13.15L29.65 -14.6L30.85 -14L32.85 -13Q33.45 -12.7 34.15 -12.35L36.2 -11.3L38.5 -10.05L38.85 -9.85Q40.25 -8.9 40.45 -7.5L40.5 -7.1L40.5 -2.9L22.15 -12.05" />
<path style="fill:#000000;fill-opacity:0.2" d="M40.5,-2.9L40.5 -2.85L44.5 -4.85L44.45 -9.5Q44.25 -10.9 42.85 -11.85L42.5 -12.05L40.2 -13.3Q39.15 -13.85 38.15 -14.35Q37.45 -14.7 36.85 -15L34.85 -16L34.65 -16.1L33.7 -16.6L33.9 -16.7Q40.45 -20.4 44.4 -24.4L44.8 -24.85L44.85 -24.85Q46.95 -27.1 48.25 -29.45Q50.65 -25.5 51.1 -21.05L51.25 -18.85L51.2 -17.5Q51 -15.05 50.3 -12.75Q48.75 -7.9 44.75 -3.7Q41.45 -0.3 36.5 2.7L33.05 4.65L30.45 5.9L26.3 7.6L26.25 7.65L24 8.4L22.2 8.95L19.35 9.7L17.8 10.05L12.35 11L7.85 11.45L4.5 11.65L1 11.7L0.95 11.7L-5.9 11.45L-7.3 11.3L-10.3 11L-10.45 10.95L-16.15 9.95L-17.55 9.65L-24.55 7.5L-28.5 5.85Q-31.65 4.45 -34.5 2.7L-37.9 0.45Q-46.35 -5.7 -48.5 -13.4Q-49.05 -15.4 -49.15 -17.45L-49.2 -18.85Q-49.2 -24.05 -46.7 -28.65Q-45.45 -26.6 -43.6 -24.65Q-41.35 -22.3 -38.25 -20.1L-33.95 -17.35L-32.7 -16.7L-33.55 -16.25L-33.85 -16.1L-35.55 -15.25L-35.85 -15.1L-36.85 -14.6L-37 -14.55L-38.95 -13.55L-41.2 -12.3L-41.55 -12.1Q-43 -11.15 -43.2 -9.75L-43.2 -5.1L-39.25 -3.1L-39.2 -3.15L-21.05 -12.2L-20.2 -11.95L-19.6 -11.8L-17.9 -11.4L-17.6 -11.35L-13.3 -10.6L-10.65 -10.25L-7.8 -9.95L-7.65 -9.95L-2.55 -9.65L0.5 -9.6L3.4 -9.65L4.15 -9.65L8.95 -9.9L14.35 -10.5L19 -11.3L19 -11.35L19.2 -11.35L21.2 -11.8L21.8 -11.95L22.15 -12.05L40.5 -2.9" />
<radialGradient
id="RadialGradID_2783" gradientUnits="userSpaceOnUse" gradientTransform="matrix(0.0892944, 0, 0, 0.089386, -14.1, -49.15)" spreadMethod ="pad" cx="0" cy="0" r="819.2" fx="0" fy="0" >
<stop  offset="0"  style="stop-color:#640100;stop-opacity:1" />
<stop  offset="0.47451"  style="stop-color:#4C0F00;stop-opacity:1" />
<stop  offset="1"  style="stop-color:#630200;stop-opacity:1" />
</radialGradient>
<path style="fill:url(#RadialGradID_2783) " d="M49.95,-37.15Q49 -34.1 47.05 -31.3L44.4 -28.1Q41.1 -24.7 36.15 -21.7L32.7 -19.75L30.1 -18.5L25.95 -16.8L25.9 -16.75L23.65 -16L21.85 -15.45L19 -14.75L17.45 -14.4L12 -13.45L7.5 -12.95L4.15 -12.8L0.65 -12.7L0.6 -12.7L-6.25 -13L-7.65 -13.1L-10.65 -13.45L-10.8 -13.45L-16.5 -14.45L-17.9 -14.8Q-21.5 -15.65 -24.9 -16.9Q-26.95 -17.65 -28.85 -18.55Q-32 -19.95 -34.85 -21.7L-38.25 -23.95Q-42.7 -27.2 -45.4 -30.8Q-47.85 -34.15 -48.85 -37.8Q-49.4 -39.8 -49.5 -41.85L-49.55 -43.25Q-49.55 -55.95 -34.85 -64.9Q-22.45 -72.4 -5.8 -73.55L0.65 -73.8L4.15 -73.7Q16.05 -73.3 25.9 -69.75Q29.2 -68.6 32.25 -67.05L32.7 -66.8L36.15 -64.9Q41.1 -61.9 44.4 -58.45Q50 -52.6 50.75 -45.5L50.9 -43.25L50.85 -41.9Q50.65 -39.45 49.95 -37.15" />
<radialGradient
id="RadialGradID_2784" gradientUnits="userSpaceOnUse" gradientTransform="matrix(0.0970612, 0, 0, 0.0971527, -23.5, -14.95)" spreadMethod ="pad" cx="0" cy="0" r="819.2" fx="0" fy="0" >
<stop  offset="0"  style="stop-color:#640100;stop-opacity:1" />
<stop  offset="0.47451"  style="stop-color:#4C0F00;stop-opacity:1" />
<stop  offset="1"  style="stop-color:#630200;stop-opacity:1" />
</radialGradient>
<path style="fill:url(#RadialGradID_2784) " d="M-28.6,-14.75L-30 -15.35L-32.7 -16.7L-33.95 -17.35L-38.25 -20.1Q-41.35 -22.3 -43.6 -24.65Q-45.45 -26.6 -46.7 -28.65Q-48.75 -32 -49.4 -35.65L-49.4 -35.75L-49.5 -36.45L-49.55 -36.7L-49.5 -41.85Q-49.4 -39.8 -48.85 -37.8Q-47.85 -34.15 -45.4 -30.8Q-42.7 -27.2 -38.25 -23.95L-34.85 -21.7Q-32 -19.95 -28.85 -18.55Q-26.95 -17.65 -24.9 -16.9Q-21.5 -15.65 -17.9 -14.8L-16.5 -14.45L-10.8 -13.45L-10.65 -13.45L-7.65 -13.1L-6.25 -13L0.6 -12.7L0.65 -12.7L4.15 -12.8L7.5 -12.95L12 -13.45L17.45 -14.4L19 -14.75L21.85 -15.45L23.65 -16L25.9 -16.75L25.95 -16.8L30.1 -18.5L32.7 -19.75L36.15 -21.7Q41.1 -24.7 44.4 -28.1L47.05 -31.3Q49 -34.1 49.95 -37.15Q50.65 -39.45 50.85 -41.9L50.85 -38.6L50.75 -37.6L49.5 -32.2L48.25 -29.45Q46.95 -27.1 44.85 -24.85L44.8 -24.85L44.4 -24.4Q40.45 -20.4 33.9 -16.7L33.7 -16.6L32.7 -16L31.55 -15.45L31.35 -15.35L29.65 -14.6L25.9 -13.15L23.65 -12.45L22.15 -12.05L21.8 -11.95L21.2 -11.8L19.2 -11.35L19 -11.35L19 -11.3L14.35 -10.5L8.95 -9.9L4.15 -9.65L3.4 -9.65L0.5 -9.6L-2.55 -9.65L-7.65 -9.95L-7.8 -9.95L-10.65 -10.25L-13.3 -10.6L-17.6 -11.35L-17.9 -11.4L-19.6 -11.8L-20.2 -11.95L-21.05 -12.2Q-25.05 -13.25 -28.6 -14.75" />
<linearGradient
id="LinearGradID_2785" gradientUnits="userSpaceOnUse" gradientTransform="matrix(-0.00595093, -0.0103302, 0.00830078, -0.00479126, 18.45, -3)" spreadMethod ="pad" x1="-819.2" y1="0" x2="819.2" y2="0" >
<stop  offset="0" style="stop-color:#640100;stop-opacity:1" />
<stop  offset="0.47451" style="stop-color:#610A01;stop-opacity:1" />
<stop  offset="1" style="stop-color:#500C00;stop-opacity:1" />
</linearGradient>
<path style="fill:url(#LinearGradID_2785) " d="M34.65,-16.1L34.85 -16L36.85 -15Q37.45 -14.7 38.15 -14.35Q39.15 -13.85 40.2 -13.3L42.5 -12.05L42.85 -11.85Q44.25 -10.9 44.45 -9.5L44.5 -4.85L40.5 -2.85L40.5 -2.9L40.5 -7.1L40.45 -7.5Q40.25 -8.9 38.85 -9.85L38.5 -10.05L36.2 -11.3L34.15 -12.35Q33.45 -12.7 32.85 -13L30.85 -14L29.65 -14.6L31.35 -15.35L31.55 -15.45L32.7 -16L33.7 -16.6L34.65 -16.1" />
<linearGradient
id="LinearGradID_2786" gradientUnits="userSpaceOnUse" gradientTransform="matrix(0.00448608, -0.0110016, 0.00875854, 0.00357056, -22.4, -1.9)" spreadMethod ="pad" x1="-819.2" y1="0" x2="819.2" y2="0" >
<stop  offset="0" style="stop-color:#640100;stop-opacity:1" />
<stop  offset="0.47451" style="stop-color:#610A01;stop-opacity:1" />
<stop  offset="1" style="stop-color:#500C00;stop-opacity:1" />
</linearGradient>
<path style="fill:url(#LinearGradID_2786) " d="M-28.6,-14.75L-29.55 -14.25L-31.55 -13.25L-32.2 -12.95L-32.85 -12.6L-34.95 -11.55L-37 -10.45L-37.2 -10.3L-37.55 -10.1Q-39 -9.15 -39.2 -7.75L-39.2 -7.35L-39.2 -3.15L-39.25 -3.1L-43.2 -5.1L-43.2 -9.75Q-43 -11.15 -41.55 -12.1L-41.2 -12.3L-38.95 -13.55L-37 -14.55L-36.85 -14.6L-35.85 -15.1L-35.55 -15.25L-33.85 -16.1L-33.55 -16.25L-32.7 -16.7L-30 -15.35L-28.6 -14.75" />
<path style="fill:none;stroke-width:1;stroke-linecap:round;stroke-linejoin:round;stroke-miterlimit:3;stroke:#390000;stroke-opacity:1" d="M50.85,-41.9L50.9 -43.25L50.75 -45.5Q50 -52.6 44.4 -58.45Q41.1 -61.9 36.15 -64.9L32.7 -66.8L32.25 -67.05Q29.2 -68.6 25.9 -69.75Q16.05 -73.3 4.15 -73.7L0.65 -73.8L-5.8 -73.55Q-22.45 -72.4 -34.85 -64.9Q-49.55 -55.95 -49.55 -43.25L-49.5 -41.85Q-49.4 -39.8 -48.85 -37.8Q-47.85 -34.15 -45.4 -30.8Q-42.7 -27.2 -38.25 -23.95L-34.85 -21.7Q-32 -19.95 -28.85 -18.55Q-26.95 -17.65 -24.9 -16.9Q-21.5 -15.65 -17.9 -14.8L-16.5 -14.45L-10.8 -13.45L-10.65 -13.45L-7.65 -13.1L-6.25 -13L0.6 -12.7L0.65 -12.7L4.15 -12.8L7.5 -12.95L12 -13.45L17.45 -14.4L19 -14.75L21.85 -15.45L23.65 -16L25.9 -16.75L25.95 -16.8L30.1 -18.5L32.7 -19.75L36.15 -21.7Q41.1 -24.7 44.4 -28.1L47.05 -31.3Q49 -34.1 49.95 -37.15Q50.65 -39.45 50.85 -41.9L50.85 -38.6L50.75 -37.6L49.5 -32.2L48.25 -29.45M-32.7,-16.7L-33.95 -17.35L-38.25 -20.1Q-41.35 -22.3 -43.6 -24.65Q-45.45 -26.6 -46.7 -28.65Q-48.75 -32 -49.4 -35.65L-49.4 -35.75L-49.5 -36.45L-49.55 -36.7L-49.5 -41.85M19,-11.3L14.35 -10.5L8.95 -9.9L4.15 -9.65L3.4 -9.65L0.5 -9.6L-2.55 -9.65L-7.65 -9.95L-7.8 -9.95L-10.65 -10.25L-13.3 -10.6L-17.6 -11.35L-17.9 -11.4L-19.6 -11.8L-20.2 -11.95L-21.05 -12.2M33.7,-16.6L32.7 -16L31.55 -15.45L31.35 -15.35L29.65 -14.6M33.7,-16.6L33.9 -16.7Q40.45 -20.4 44.4 -24.4L44.8 -24.85L44.85 -24.85Q46.95 -27.1 48.25 -29.45M22.15,-12.05L23.65 -12.45L25.9 -13.15L29.65 -14.6M22.15,-12.05L21.8 -11.95L21.2 -11.8L19.2 -11.35M-32.7,-16.7L-30 -15.35L-28.6 -14.75Q-25.05 -13.25 -21.05 -12.2" />
<path style="fill:none;stroke-width:1;stroke-linecap:round;stroke-linejoin:round;stroke-miterlimit:3;stroke:#000000;stroke-opacity:1" d="M-21.05,-12.2L-39.2 -3.15M-39.25,-3.1L-43.2 -5.1L-43.2 -9.75Q-43 -11.15 -41.55 -12.1L-41.2 -12.3L-38.95 -13.55L-37 -14.55L-36.85 -14.6L-35.85 -15.1L-35.55 -15.25L-33.85 -16.1L-33.55 -16.25L-32.7 -16.7M29.65,-14.6L30.85 -14L32.85 -13Q33.45 -12.7 34.15 -12.35L36.2 -11.3L38.5 -10.05L38.85 -9.85Q40.25 -8.9 40.45 -7.5L40.5 -7.1L40.5 -2.9L22.15 -12.05M40.5,-2.85L44.5 -4.85L44.45 -9.5Q44.25 -10.9 42.85 -11.85L42.5 -12.05L40.2 -13.3Q39.15 -13.85 38.15 -14.35Q37.45 -14.7 36.85 -15L34.85 -16L34.65 -16.1L33.7 -16.6M40.5,-2.85L40.5 -2.9M-28.6,-14.75L-29.55 -14.25L-31.55 -13.25L-32.2 -12.95L-32.85 -12.6L-34.95 -11.55L-37 -10.45L-37.2 -10.3L-37.55 -10.1Q-39 -9.15 -39.2 -7.75L-39.2 -7.35L-39.2 -3.15" />
</g>
</svg>
