<?xml version="1.0" encoding="utf-8"?>
<svg version="1.1" id="Layer_1"
xmlns="http://www.w3.org/2000/svg"
xmlns:xlink="http://www.w3.org/1999/xlink"
xmlns:author="http://www.sothink.com"
width="48px" height="20px"
xml:space="preserve">
<g id="817" transform="matrix(1, 0, 0, 1, 23.25, 43.05)">
<path style="fill:#000000;fill-opacity:1" d="M-17.9,-28.5L-17.75 -30.35L-18.05 -35.7L-22.75 -35.75L-16.85 -41.9L-3.35 -37.6L0.75 -34.05L4.05 -31.2L15.9 -42.55L20.6 -42L24.15 -37.2L21.9 -37.8L14.15 -35.3L15.65 -29.05L15.65 -28.75L15.3 -28.75L15.1 -29.45Q13.6 -33.35 4 -31L-1.35 -28.55Q-13.65 -34.75 -15.85 -30.9Q-16.4 -30 -16.3 -28.5L-17.9 -28.5" />
<path style="fill:none;stroke-width:1;stroke-linecap:round;stroke-linejoin:round;stroke-miterlimit:3;stroke:#000000;stroke-opacity:1" d="M-17.9,-28.5L-17.75 -30.35L-18.05 -35.7L-22.75 -35.75L-16.85 -41.9L-3.35 -37.6L0.75 -34.05L4.05 -31.2L15.9 -42.55L20.6 -42L24.15 -37.2L21.9 -37.8L14.15 -35.3L15.65 -29.05M15.1,-29.45Q13.6 -33.35 4 -31L-1.35 -28.55Q-13.65 -34.75 -15.85 -30.9M-17.9,-28.5L-15.85 -30.9M3.9,-31.1L4.1 -31.15L4.15 -31.1L4 -31L3.9 -31.1L4.05 -31.2L4.1 -31.15L14.15 -35.3M0.75,-34.05Q-2 -35.9 -7.2 -35.9L-18.05 -35.7" />
<path style="fill:#000000;fill-opacity:1" d="M0.8,-24.1Q-0.2 -24 -0.2 -25L-0.2 -33.9Q-0.2 -34.9 0.8 -35L7.05 -35.55Q8.05 -35.65 8.05 -34.65L8.05 -25.75Q8.05 -24.75 7.05 -24.65L0.8 -24.1" />
<path style="fill:none;stroke-width:0.5;stroke-linecap:round;stroke-linejoin:round;stroke-miterlimit:3;stroke:#CCCCCC;stroke-opacity:1" d="M7.05,-24.65Q8.05 -24.75 8.05 -25.75L8.05 -34.65Q8.05 -35.65 7.05 -35.55L0.8 -35Q-0.2 -34.9 -0.2 -33.9L-0.2 -25Q-0.2 -24 0.8 -24.1L7.05 -24.65z" />
<path style="fill:none;stroke-width:1.5;stroke-linecap:round;stroke-linejoin:round;stroke-miterlimit:3;stroke:#FF0000;stroke-opacity:1" d="M6.4,-33.2L6.4 -32.9L6.4 -32.6M1.45,-29.1L1.7 -29.2L2 -29.2" />
<path style="fill:none;stroke-width:1.5;stroke-linecap:round;stroke-linejoin:round;stroke-miterlimit:3;stroke:#CCCCCC;stroke-opacity:1" d="M1.7,-31.7L3.1 -31.95" />
<path style="fill:none;stroke-width:1.5;stroke-linecap:round;stroke-linejoin:round;stroke-miterlimit:3;stroke:#00FF00;stroke-opacity:1" d="M4.5,-33.8L4.75 -33.85" />
<path style="fill:none;stroke-width:1.5;stroke-linecap:round;stroke-linejoin:round;stroke-miterlimit:3;stroke:#FFFFFF;stroke-opacity:1" d="M1.7,-27L1.7 -26.05M4.5,-28.8L4.5 -28.2L4.5 -27.85M6.1,-29.8L6.1 -29.15L6.1 -28.85" />
</g>
</svg>
