<?xml version="1.0" encoding="utf-8"?>
<svg version="1.1" id="Layer_1"
xmlns="http://www.w3.org/2000/svg"
xmlns:xlink="http://www.w3.org/1999/xlink"
xmlns:author="http://www.sothink.com"
width="52px" height="26px"
xml:space="preserve">
<g id="1036" transform="matrix(1, 0, 0, 1, 26.25, 13.1)">
<path style="fill:none;stroke-width:0.05;stroke-linecap:round;stroke-linejoin:round;stroke-miterlimit:3;stroke:#FCE7FE;stroke-opacity:1" d="M21.3,-12L-20.6 -12Q-22.45 -12 -23.75 -11.05Q-25.05 -10.1 -25 -8.7L-25 8.55" />
<path style="fill:none;stroke-width:1;stroke-linecap:round;stroke-linejoin:round;stroke-miterlimit:3;stroke:#9F9F9F;stroke-opacity:1" d="M23.35,-11.75Q22.5 -12.6 21.25 -12.6L-22.75 -12.6Q-24 -12.6 -24.9 -11.75Q-25.75 -10.85 -25.75 -9.6L-25.75 8.4Q-25.75 9.65 -24.9 10.5Q-24 11.4 -22.75 11.4L21.25 11.4Q22.5 11.4 23.35 10.5Q24.25 9.65 24.25 8.4L24.25 -9.6Q24.25 -10.85 23.35 -11.75z" />
<path style="fill:none;stroke-width:0.05;stroke-linecap:round;stroke-linejoin:round;stroke-miterlimit:3;stroke:#FCE7FE;stroke-opacity:1" d="M-21.05,12.3L20.85 12.3Q22.7 12.3 24.05 11.4Q25.3 10.4 25.3 9L25.3 -8.2" />
</g>
</svg>
