<?xml version="1.0" encoding="utf-8"?>
<svg version="1.1" id="Layer_1"
xmlns="http://www.w3.org/2000/svg"
xmlns:xlink="http://www.w3.org/1999/xlink"
xmlns:author="http://www.sothink.com"
width="61px" height="34px"
xml:space="preserve">
<g id="39" transform="matrix(1, 0, 0, 1, 30.4, 16.7)">
<path style="fill:#C8C8C8;fill-opacity:1" d="M11.4,-14.2L13.1 -14.15L13.45 -12.65L13.25 -12.1Q12.9 -11.7 12.1 -11.4Q10.85 -12.55 10.85 -13.05L10.85 -13.3Q10.95 -13.9 11.4 -14.2M6.1,-9.9L5.2 -10.5Q4.85 -10.9 4.85 -11.15L5.2 -11.35L6.35 -10.15L6.1 -9.9M1.1,-4.15L1.2 -4.6Q2.35 -4.6 2.6 -4.15Q2.4 -3.95 1.85 -3.9Q1.3 -3.95 1.1 -4.15M22.25,-7.55L24.7 -7.35L23.95 -6.7Q23.2 -6.35 21.7 -6.15Q21.45 -5.6 21.45 -6.8Q21.45 -7.45 22.25 -7.55M-4.65,-4.4L-3.55 -4.35L-2.65 -3.35L-2.75 -3.1L-3.15 -2.6Q-4.5 -3.55 -4.65 -4.4M-8.1,9.35L-10.65 9.55L-10.7 9.3L-10.9 8.8L-10.8 8.35Q-8.15 8.35 -7.65 9.1L-8.1 9.35M-16.05,1.1L-16.35 1.55L-17.9 1.15Q-19.15 0.85 -19.25 0.6Q-18.9 0.55 -18.85 0.35L-17.5 0.5L-16 0.85L-16.05 1.1" />
<path style="fill:#888888;fill-opacity:1" d="M8.6,-6.6L11.45 -6.9L11.65 -6.2L11.85 -5.4L12 -5.05L11.35 -4.9L8.95 -5.15Q8.6 -6.15 8.6 -6.6M12.95,-6.1Q14.75 -6.75 16 -4.95L16.2 -4.65L16.1 -4L16 -3.85L15.1 -3.6Q14.5 -3.65 13.8 -4.55Q13.2 -5.35 12.95 -6.1M-11.4,-1.65L-11.65 -1.4Q-13.4 -2.55 -13.4 -3.15L-13.35 -3.75L-13.3 -3.6L-12.65 -3.6L-11.4 -1.65M-19.45,3L-17.75 3.1L-17.5 3.85L-17.85 4.55L-20.1 4.6L-20.25 3.8L-20.1 3.05L-19.45 3" />
<path style="fill:#373737;fill-opacity:1" d="M-9.9,13.7L-8.4 12.95L29.4 -6L29.9 -6.2L29.9 -3.75L-9.9 16.2L-9.9 13.7" />
<path style="fill:#7B7B7B;fill-opacity:1" d="M-28.1,4.6L-27.25 5L-19.45 8.9L-17.7 9.8L-9.9 13.7L-9.9 16.2L-28.1 7.1L-28.55 6.9L-29.2 6.55L-29.9 6.2L-29.9 3.7L-28.1 2.8L-28.1 2.85L-28.1 4.6" />
<path style="fill:#A1A1A1;fill-opacity:1" d="M-28.1,2.85L-8.4 12.95L-9.9 13.7L-17.7 9.8L-19.45 8.9L-27.25 5L-28.1 4.6L-28.1 2.85" />
<radialGradient
id="RadialGradID_278" gradientUnits="userSpaceOnUse" gradientTransform="matrix(0.999466, 0, 0, 0.998337, 148.9, -84.05)" spreadMethod ="pad" cx="0" cy="0" r="819.2" fx="0" fy="0" >
<stop  offset="0"  style="stop-color:#9D9D9D;stop-opacity:1" />
<stop  offset="1"  style="stop-color:#AEAEAE;stop-opacity:1" />
</radialGradient>
<path style="fill:url(#RadialGradID_278) " d="M10.85,-13.3L10.85 -13.05Q10.85 -12.55 12.1 -11.4Q12.9 -11.7 13.25 -12.1L13.45 -12.65L13.1 -14.15L11.4 -14.2Q10.95 -13.9 10.85 -13.3M6.35,-10.15L5.2 -11.35L4.85 -11.15Q4.85 -10.9 5.2 -10.5L6.1 -9.9L6.35 -10.15M1.85,-3.9Q2.4 -3.95 2.6 -4.15Q2.35 -4.6 1.2 -4.6L1.1 -4.15Q1.3 -3.95 1.85 -3.9M8.95,-5.15L11.35 -4.9L12 -5.05L11.85 -5.4L11.65 -6.2L11.45 -6.9L8.6 -6.6Q8.6 -6.15 8.95 -5.15M13.8,-4.55Q14.5 -3.65 15.1 -3.6L16 -3.85L16.1 -4L16.2 -4.65L16 -4.95Q14.75 -6.75 12.95 -6.1Q13.2 -5.35 13.8 -4.55M-8.4,12.95L-28.1 2.85L-28.1 2.8L9.9 -16.2L27.35 -7.5Q27.65 -7.35 28 -7.15L28.45 -6.95L29.85 -6.2L29.9 -6.2L29.4 -6L-8.4 12.95M21.45,-6.8Q21.45 -5.6 21.7 -6.15Q23.2 -6.35 23.95 -6.7L24.7 -7.35L22.25 -7.55Q21.45 -7.45 21.45 -6.8M-12.65,-3.6L-13.3 -3.6L-13.35 -3.75L-13.4 -3.15Q-13.4 -2.55 -11.65 -1.4L-11.4 -1.65L-12.65 -3.6M-3.15,-2.6L-2.75 -3.1L-2.65 -3.35L-3.55 -4.35L-4.65 -4.4Q-4.5 -3.55 -3.15 -2.6M-7.65,9.1Q-8.15 8.35 -10.8 8.35L-10.9 8.8L-10.7 9.3L-10.65 9.55L-8.1 9.35L-7.65 9.1M-16,0.85L-17.5 0.5L-18.85 0.35Q-18.9 0.55 -19.25 0.6Q-19.15 0.85 -17.9 1.15L-16.35 1.55L-16.05 1.1L-16 0.85M-20.1,3.05L-20.25 3.8L-20.1 4.6L-17.85 4.55L-17.5 3.85L-17.75 3.1L-19.45 3L-20.1 3.05" />
<path style="fill:none;stroke-width:1;stroke-linecap:round;stroke-linejoin:round;stroke-miterlimit:3;stroke:#000000;stroke-opacity:1" d="M29.9,-6.2L29.85 -6.2L29.4 -6L29.9 -6.2L29.9 -6.25L29.85 -6.2L28.45 -6.95L28 -7.15Q27.65 -7.35 27.35 -7.5L9.9 -16.2M-29.9,3.7L-28.1 2.8L-28.1 2.85M-9.9,16.2L-9.9 13.7L-8.4 12.95L29.4 -6M29.9,-6.25L28.45 -6.95M29.9,-6.2L29.9 -3.75L-9.9 16.2L-28.1 7.1L-28.55 6.9L-29.2 6.55L-29.9 6.2M-28.1,4.6L-27.25 5L-19.45 8.9L-17.7 9.8" />
<path style="fill:none;stroke-width:1;stroke-linecap:round;stroke-linejoin:round;stroke-miterlimit:3;stroke:#D0D0D0;stroke-opacity:1" d="M-28.1,2.85L-8.4 12.95" />
<path style="fill:none;stroke-width:1;stroke-linecap:round;stroke-linejoin:round;stroke-miterlimit:3;stroke:#333333;stroke-opacity:1" d="M-29.9,6.2L-29.9 3.7L-28.1 4.6L-17.7 9.8L-9.9 13.7" />
<path style="fill:none;stroke-width:1;stroke-linecap:round;stroke-linejoin:round;stroke-miterlimit:3;stroke:#DDDDDD;stroke-opacity:1" d="M9.9,-16.2L-28.1 2.8" />
</g>
</svg>
