<?xml version="1.0" encoding="utf-8"?>
<svg version="1.1" id="Layer_1"
xmlns="http://www.w3.org/2000/svg"
xmlns:xlink="http://www.w3.org/1999/xlink"
xmlns:author="http://www.sothink.com"
width="51px" height="56px"
xml:space="preserve">
<g id="342" transform="matrix(1, 0, 0, 1, 26.3, 41.35)">
<path style="fill:#666666;fill-opacity:1" d="M-0.1,-8.65L23.75 -20.6L23.75 1.9L-0.1 13.85L-0.1 -8.65" />
<path style="fill:#585858;fill-opacity:1" d="M-0.1,-8.65L-0.1 13.85L-26.05 0.8L-26.05 -4.95L-26.05 -21.7L-0.25 -8.75L-0.1 -8.65" />
<path style="fill:#999999;fill-opacity:1" d="M-3.75,-31.35L-12.75 -26.55L-15.55 -27.95L-2.25 -34.6L0.25 -33.35L-3.1 -31.65L-3.75 -31.35M-7.05,-23.7L-8.55 -24.45L4.75 -31.1L6.25 -30.35L-7.05 -23.7M10.75,-28.1L13.25 -26.85L-0.05 -20.15L-2.55 -21.4L10.75 -28.1M-0.1,-21.15L-0.05 -21.15L-0.4 -21.35L-0.1 -21.15" />
<linearGradient
id="LinearGradID_1302" gradientUnits="userSpaceOnUse" gradientTransform="matrix(0.0106812, 0, 0, 0.00543213, -4, -30.15)" spreadMethod ="pad" x1="-819.2" y1="0" x2="819.2" y2="0" >
<stop  offset="0" style="stop-color:#E6E6E6;stop-opacity:1" />
<stop  offset="1" style="stop-color:#A6A6A6;stop-opacity:1" />
</linearGradient>
<path style="fill:url(#LinearGradID_1302) " d="M4.75,-33.6L-11.05 -25.7L-12.75 -26.55L-3.75 -31.35L-3.1 -31.35L-3.1 -31.65L0.25 -33.35L2.75 -34.6L4.75 -33.6" />
<linearGradient
id="LinearGradID_1303" gradientUnits="userSpaceOnUse" gradientTransform="matrix(0.00305176, 0, 0, 0.00228882, 0.25, -35.25)" spreadMethod ="pad" x1="-819.2" y1="0" x2="819.2" y2="0" >
<stop  offset="0" style="stop-color:#E6E6E6;stop-opacity:1" />
<stop  offset="1" style="stop-color:#A6A6A6;stop-opacity:1" />
</linearGradient>
<path style="fill:url(#LinearGradID_1303) " d="M-2.25,-34.6L-2.25 -37.1L2.75 -34.6L0.25 -33.35L-2.25 -34.6" />
<linearGradient
id="LinearGradID_1304" gradientUnits="userSpaceOnUse" gradientTransform="matrix(0.0303955, 0, 0, 0.0152283, -1.15, -28.65)" spreadMethod ="pad" x1="-819.2" y1="0" x2="819.2" y2="0" >
<stop  offset="0" style="stop-color:#E6E6E6;stop-opacity:1" />
<stop  offset="1" style="stop-color:#A6A6A6;stop-opacity:1" />
</linearGradient>
<path style="fill:url(#LinearGradID_1304) " d="M-8.55,-24.45L-7.05 -23.7L-5.05 -22.7L-2.55 -21.4L-0.05 -20.15L13.25 -26.85L15.75 -28.1L10.75 -30.6L8.75 -31.6L4.75 -33.6L2.75 -34.6L-2.25 -37.1L-18.05 -29.2L-15.55 -27.95L-12.75 -26.55L-11.05 -25.7L-8.55 -24.45M-0.25,-16.25L-26.05 -29.2L-2.25 -41.1L23.75 -28.1L-0.1 -16.15L-0.25 -16.25" />
<linearGradient
id="LinearGradID_1305" gradientUnits="userSpaceOnUse" gradientTransform="matrix(0.0108643, 0, 0, 0.00543213, 1.85, -27.15)" spreadMethod ="pad" x1="-819.2" y1="0" x2="819.2" y2="0" >
<stop  offset="0" style="stop-color:#E6E6E6;stop-opacity:1" />
<stop  offset="1" style="stop-color:#A6A6A6;stop-opacity:1" />
</linearGradient>
<path style="fill:url(#LinearGradID_1305) " d="M-5.05,-22.7L-7.05 -23.7L6.25 -30.35L8.75 -31.6L10.75 -30.6L-5.05 -22.7" />
<linearGradient
id="LinearGradID_1306" gradientUnits="userSpaceOnUse" gradientTransform="matrix(0.00244141, 0, 0, 0.00198364, 6.75, -32)" spreadMethod ="pad" x1="-819.2" y1="0" x2="819.2" y2="0" >
<stop  offset="0" style="stop-color:#E6E6E6;stop-opacity:1" />
<stop  offset="1" style="stop-color:#A6A6A6;stop-opacity:1" />
</linearGradient>
<path style="fill:url(#LinearGradID_1306) " d="M4.75,-33.6L8.75 -31.6L6.25 -30.35L4.75 -31.1L4.75 -33.6" />
<linearGradient
id="LinearGradID_1307" gradientUnits="userSpaceOnUse" gradientTransform="matrix(0.00964355, 0, 0, 0.00558472, -3.15, -29.05)" spreadMethod ="pad" x1="-819.2" y1="0" x2="819.2" y2="0" >
<stop  offset="0" style="stop-color:#E6E6E6;stop-opacity:1" />
<stop  offset="1" style="stop-color:#A6A6A6;stop-opacity:1" />
</linearGradient>
<path style="fill:url(#LinearGradID_1307) " d="M-11.05,-25.7L4.75 -33.6L4.75 -31.1L-8.55 -24.45L-11.05 -25.7" />
<linearGradient
id="LinearGradID_1308" gradientUnits="userSpaceOnUse" gradientTransform="matrix(0.00305176, 0, 0, 0.00228882, 13.25, -28.75)" spreadMethod ="pad" x1="-819.2" y1="0" x2="819.2" y2="0" >
<stop  offset="0" style="stop-color:#E6E6E6;stop-opacity:1" />
<stop  offset="1" style="stop-color:#A6A6A6;stop-opacity:1" />
</linearGradient>
<path style="fill:url(#LinearGradID_1308) " d="M10.75,-28.1L10.75 -30.6L15.75 -28.1L13.25 -26.85L10.75 -28.1" />
<linearGradient
id="LinearGradID_1309" gradientUnits="userSpaceOnUse" gradientTransform="matrix(0.00964355, 0, 0, 0.00561523, 2.85, -26)" spreadMethod ="pad" x1="-819.2" y1="0" x2="819.2" y2="0" >
<stop  offset="0" style="stop-color:#E6E6E6;stop-opacity:1" />
<stop  offset="1" style="stop-color:#A6A6A6;stop-opacity:1" />
</linearGradient>
<path style="fill:url(#LinearGradID_1309) " d="M-2.55,-21.4L-5.05 -22.7L10.75 -30.6L10.75 -28.1L-2.55 -21.4" />
<linearGradient
id="LinearGradID_1310" gradientUnits="userSpaceOnUse" gradientTransform="matrix(0.0145569, 0, 0, 0.0118713, 11.8, -18.4)" spreadMethod ="pad" x1="-819.2" y1="0" x2="819.2" y2="0" >
<stop  offset="0" style="stop-color:#E6E6E6;stop-opacity:1" />
<stop  offset="1" style="stop-color:#A6A6A6;stop-opacity:1" />
</linearGradient>
<path style="fill:url(#LinearGradID_1310) " d="M-0.1,-8.65L-0.1 -16.15L23.75 -28.1L23.75 -20.6L-0.1 -8.65" />
<linearGradient
id="LinearGradID_1311" gradientUnits="userSpaceOnUse" gradientTransform="matrix(0.00964355, 0, 0, 0.00558472, -10.15, -32.55)" spreadMethod ="pad" x1="-819.2" y1="0" x2="819.2" y2="0" >
<stop  offset="0" style="stop-color:#E6E6E6;stop-opacity:1" />
<stop  offset="1" style="stop-color:#A6A6A6;stop-opacity:1" />
</linearGradient>
<path style="fill:url(#LinearGradID_1311) " d="M-15.55,-27.95L-18.05 -29.2L-2.25 -37.1L-2.25 -34.6L-15.55 -27.95" />
<radialGradient
id="RadialGradID_1312" gradientUnits="userSpaceOnUse" gradientTransform="matrix(0.0241699, 0, 0, 0.0241699, 4, -34.35)" spreadMethod ="pad" cx="0" cy="0" r="819.2" fx="0" fy="0" >
<stop  offset="0"  style="stop-color:#E6E6E6;stop-opacity:1" />
<stop  offset="1"  style="stop-color:#A6A6A6;stop-opacity:1" />
</radialGradient>
<path style="fill:url(#RadialGradID_1312) " d="M-3.1,-31.65L-3.1 -31.35L-3.75 -31.35L-3.1 -31.65" />
<radialGradient
id="RadialGradID_1313" gradientUnits="userSpaceOnUse" gradientTransform="matrix(0.0494995, 0, 0, 0.0494995, 12, -23.85)" spreadMethod ="pad" cx="0" cy="0" r="819.2" fx="0" fy="0" >
<stop  offset="0"  style="stop-color:#E6E6E6;stop-opacity:1" />
<stop  offset="1"  style="stop-color:#A6A6A6;stop-opacity:1" />
</radialGradient>
<path style="fill:url(#RadialGradID_1313) " d="M-0.4,-21.35L-0.05 -21.15L-0.1 -21.15L-0.4 -21.35" />
<linearGradient
id="LinearGradID_1314" gradientUnits="userSpaceOnUse" gradientTransform="matrix(0.0158386, 0, 0, 0.0125427, -13.1, -18.95)" spreadMethod ="pad" x1="-819.2" y1="0" x2="819.2" y2="0" >
<stop  offset="0" style="stop-color:#E6E6E6;stop-opacity:1" />
<stop  offset="1" style="stop-color:#A6A6A6;stop-opacity:1" />
</linearGradient>
<path style="fill:url(#LinearGradID_1314) " d="M-0.25,-8.75L-26.05 -21.7L-26.05 -29.2L-0.25 -16.25L-0.1 -16.15L-0.1 -8.65L-0.25 -8.75" />
<path style="fill:none;stroke-width:0.5;stroke-linecap:round;stroke-linejoin:round;stroke-miterlimit:3;stroke:#333333;stroke-opacity:1" d="M-3.75,-31.35L-12.75 -26.55L-11.05 -25.7L4.75 -33.6L2.75 -34.6L0.25 -33.35L-3.1 -31.65L-3.75 -31.35M2.75,-34.6L-2.25 -37.1L-2.25 -34.6L0.25 -33.35M4.75,-31.1L6.25 -30.35L8.75 -31.6L4.75 -33.6L4.75 -31.1L-8.55 -24.45L-7.05 -23.7L6.25 -30.35M13.25,-26.85L15.75 -28.1L10.75 -30.6L10.75 -28.1L13.25 -26.85L-0.05 -20.15L-2.55 -21.4L-5.05 -22.7L-7.05 -23.7M8.75,-31.6L10.75 -30.6L-5.05 -22.7M-26.05,-29.2L-2.25 -41.1L23.75 -28.1L23.75 -20.6L23.75 1.9L-0.1 13.85L-26.05 0.8L-26.05 -4.95M23.75,-28.1L-0.1 -16.15L-0.1 -8.65L23.75 -20.6M-2.25,-37.1L-18.05 -29.2L-15.55 -27.95L-2.25 -34.6M-15.55,-27.95L-12.75 -26.55M-26.05,-29.2L-0.25 -16.25L-0.1 -16.15M-26.05,-21.7L-0.25 -8.75L-0.1 -8.65L-0.1 13.85M-8.55,-24.45L-11.05 -25.7M10.75,-28.1L-2.55 -21.4" />
<path style="fill:none;stroke-width:0.5;stroke-linecap:round;stroke-linejoin:round;stroke-miterlimit:3;stroke:#333333;stroke-opacity:1" d="M-26.05,-4.95L-26.05 -21.7L-26.05 -29.2" />
</g>
</svg>
