<?xml version="1.0" encoding="utf-8"?>
<svg version="1.1" id="Layer_1"
xmlns="http://www.w3.org/2000/svg"
xmlns:xlink="http://www.w3.org/1999/xlink"
xmlns:author="http://www.sothink.com"
width="79px" height="71px"
xml:space="preserve">
<g id="226" transform="matrix(1, 0, 0, 1, 39.2, 44.3)">
<path style="fill:#848484;fill-opacity:0.4" d="M11,21.15L11.2 20.95L11.1 20.75L11.05 20.75L10.65 20.5L10.55 20.45L10.5 20.45L10.5 17L28.8 8.6L34.65 11.6L34.65 12.25L34.55 12.45L35.2 12.85L36.8 13.1L37 13.1L11.05 25L11 21.15M8.95,26L8.1 26.35L-16.75 14.25L-16.75 14L-34.7 5.25L-34.25 4.85L-34.3 4.7L-34.35 3.15L-34.2 2.95L-34.25 2.8L-34.3 2.75L-34.35 2.75L-34.35 1.2L-18.25 -6.25L-18.3 -6.25L-13.05 -8.65L7.6 1.7L7.6 1.75L7.6 5.5L7.6 6.75L7.55 6.75L7.55 7.35L7.5 20.45L7.45 20.45L7.4 20.45L6.8 20.75L6.75 20.95L6.85 21.15L6.75 25.15L6.7 25.35Q6.65 25.55 7.35 25.75L8.9 26L8.95 26" />
<path style="fill:#A38C7E;fill-opacity:1" d="M-18.7,-11.05L-19.1 -11.3L-18.7 -11.05" />
<path style="fill:#614B49;fill-opacity:1" d="M36.8,13.1L35.2 12.85L34.55 12.45L34.65 12.25L34.65 11.6L34.75 8.2L35.25 8.45L36.85 8.65L38.4 8.45L38.9 8.25L38.95 12.25L39 12.45Q39 12.65 38.35 12.85L37 13.1L36.8 13.1M11.05,25L11.05 25.15L11.15 25.35Q11.1 25.55 10.5 25.75L8.95 26L8.9 26L7.35 25.75Q6.65 25.55 6.7 25.35L6.75 25.15L6.85 21.15L7.4 21.35L8.95 21.6L10.55 21.35L11 21.15L11.05 25M-38.55,2.8L-38.5 0.65L-38 0.9L-37.85 0.95L-36.4 1.1L-34.85 0.9L-34.35 0.7L-34.35 1.2L-34.35 2.75L-34.35 3.15L-34.3 4.7L-34.25 4.85L-34.7 5.25L-34.9 5.3L-36.45 5.5L-38.05 5.3L-38.7 4.85L-38.6 4.7L-38.55 3.35L-38.55 3.15L-38.55 3.1L-38.55 2.8" />
<path style="fill:#666666;fill-opacity:0.498039" d="M-38.55,3.35L-38.8 3.25L-38.55 3.15L-38.55 3.35M10.55,20.45L10.65 20.5L10.5 20.45L10.55 20.45" />
<radialGradient
id="RadialGradID_674" gradientUnits="userSpaceOnUse" gradientTransform="matrix(-0.0264282, 0.028717, 0.0391388, 0.0360107, -3.1, -26.8)" spreadMethod ="pad" cx="0" cy="0" r="819.2" fx="0" fy="0" >
<stop  offset="0"  style="stop-color:#9A6030;stop-opacity:1" />
<stop  offset="0.498039"  style="stop-color:#D39C78;stop-opacity:1" />
<stop  offset="0.988235"  style="stop-color:#9D6333;stop-opacity:1" />
</radialGradient>
<path style="fill:url(#RadialGradID_674) " d="M-38.5,-26.45L-38.1 -25.8L-38.5 -26L-38.5 -26.45M-12.65,-13.1L-12.65 -13.15L-12.65 -13.1" />
<linearGradient
id="LinearGradID_675" gradientUnits="userSpaceOnUse" gradientTransform="matrix(-0.0010376, 0, 0, 0.0197906, -36.45, -12.6)" spreadMethod ="pad" x1="-819.2" y1="0" x2="819.2" y2="0" >
<stop  offset="0" style="stop-color:#BFB1A2;stop-opacity:1" />
<stop  offset="0.498039" style="stop-color:#E4E1DE;stop-opacity:1" />
<stop  offset="0.988235" style="stop-color:#C7BBAD;stop-opacity:1" />
</linearGradient>
<path style="fill:url(#LinearGradID_675) " d="M-38.55,3.1L-38.65 2.95L-38.55 2.8L-38.55 3.1M-34.35,2.75L-34.3 2.75L-34.25 2.8L-34.2 2.95L-34.35 3.15L-34.35 2.75" />
<linearGradient
id="LinearGradID_676" gradientUnits="userSpaceOnUse" gradientTransform="matrix(-0.00109863, 0, 0, 0.024704, 37, 1.5)" spreadMethod ="pad" x1="-819.2" y1="0" x2="819.2" y2="0" >
<stop  offset="0" style="stop-color:#BFB1A2;stop-opacity:1" />
<stop  offset="0.498039" style="stop-color:#E4E1DE;stop-opacity:1" />
<stop  offset="0.988235" style="stop-color:#C7BBAD;stop-opacity:1" />
</linearGradient>
<path style="fill:url(#LinearGradID_676) " d="M35.4,0.8L35.4 0.85L35.4 0.8" />
<path style="fill:#000000;fill-opacity:1" d="M8.9,-26.5L7.15 -27.75L11 -30.25L12.25 -29.15L8.9 -26.5" />
<path style="fill:#FFFFCC;fill-opacity:1" d="M12.25,-29.15L11 -30.25L7.15 -27.75L8.9 -26.5L12.25 -29.15M35.4,0.85L35.4 2.15L35.4 2.55L35.4 5.6L28.8 8.6L10.5 17L10.5 5.6L10.5 2.2L10.5 -3.05L8.85 -2.3L7.65 -2.9L3.2 -5.1L1.95 -5.75L0.7 -6.4L-4.15 -8.9L-12.65 -13.15L-12.65 -13.1L-30.3 -21.9L-34.85 -24.2L-37.65 -25.6L-37.7 -25.6L-38.1 -25.8L-38.5 -26.45L-38.35 -30L-8.45 -43.8L38.65 -20L38.7 -19.9L38.9 -16.05L38.3 -15.8L35.4 -14.45L35.4 -9.05L35.4 0.8L35.4 0.85" />
<path style="fill:#999999;fill-opacity:1" d="M-34.7,0.05L-34.3 0.25L-34.25 0.3L-34.2 0.45L-34.35 0.7L-34.85 0.9L-36.4 1.1L-37.85 0.95L-38 0.9L-38.5 0.65L-38.65 0.45L-38.55 0.3Q-38.45 0.1 -38 0L-37.95 0L-37.85 -0.05L-37.7 -25.6L-37.65 -25.6L-34.85 -24.2L-34.85 -20.1L-18.5 -11.9L-34.85 -4.1L-34.85 -2.9L-34.85 -2.05L-34.85 0L-34.7 0.05M7.65,-2.9L8.85 -2.3L10.5 -3.05L10.5 2.2L10.5 5.6L10.5 17L10.5 20.45L10.65 20.5L11.05 20.75L11.1 20.75L11.2 20.95L11 21.15L10.55 21.35L8.95 21.6L7.4 21.35L6.85 21.15L6.75 20.95L6.8 20.75L7.4 20.45L7.45 20.45L7.5 20.45L7.55 7.35L7.55 6.75L7.6 6.75L7.6 5.5L7.6 1.75L7.6 1.2L7.65 -2.9M38.55,7.6L38.95 7.8L39 7.85L39.05 8L38.9 8.25L38.4 8.45L36.85 8.65L35.25 8.45L34.75 8.2L34.6 8L34.7 7.85Q34.8 7.65 35.25 7.55L35.3 7.55L35.4 7.5L35.4 5.6L35.4 2.55L35.4 2.15L35.4 0.85L35.4 0.8L35.4 -9.05L35.4 -14.45L38.3 -15.8L38.4 7.55L38.55 7.6" />
<path style="fill:#666666;fill-opacity:1" d="M-12.65,-13.15L-4.15 -8.9L0.7 -6.4L1.95 -5.75L3.2 -5.1L7.65 -2.9L7.6 1.2L-18.5 -11.9L-34.85 -20.1L-34.85 -24.2L-30.3 -21.9L-12.65 -13.1L-12.65 -13.15" />
<path style="fill:none;stroke-width:1;stroke-linecap:round;stroke-linejoin:round;stroke-miterlimit:3;stroke:#000000;stroke-opacity:1" d="M-8.45,-43.8L-38.35 -30L8.85 -6.3L38.7 -19.9L38.9 -16.05L38.3 -15.8L38.4 7.55L38.55 7.6L38.95 7.8L39 7.85L39.05 8L38.9 8.25L38.95 12.25L39 12.45Q39 12.65 38.35 12.85L37 13.1M-38.35,-30L-38.5 -26.45L-38.1 -25.8L-37.7 -25.6L-37.65 -25.6L-34.85 -24.2L-30.3 -21.9L-12.65 -13.1M-12.65,-13.15L-4.15 -8.9M0.7,-6.4L1.95 -5.75M3.2,-5.1L7.65 -2.9L8.85 -2.3L8.85 -6.3M35.4,-14.45L10.5 -3.05L8.85 -2.3M11.05,25L11.05 25.15L11.15 25.35Q11.1 25.55 10.5 25.75L8.95 26M-34.85,-2.05L-34.85 0L-34.7 0.05L-34.3 0.25L-34.25 0.3L-34.2 0.45L-34.35 0.7L-34.35 1.2L-34.35 2.75L-34.35 3.15L-34.3 4.7L-34.25 4.85L-34.7 5.25L-34.9 5.3L-36.45 5.5L-38.05 5.3L-38.7 4.85L-38.6 4.7L-38.55 3.35L-38.55 3.15L-38.55 3.1L-38.55 2.8L-38.5 0.65L-38.65 0.45L-38.55 0.3Q-38.45 0.1 -38 0L-37.95 0L-37.85 -0.05L-37.7 -25.6M38.7,-19.9L38.7 -19.95M38.3,-15.8L35.4 -14.45L35.4 -9.05L35.4 0.8M35.4,0.85L35.4 2.15L35.4 2.55M10.5,5.6L10.5 17L28.8 8.6L35.4 5.6L35.4 7.5L35.3 7.55L35.25 7.55Q34.8 7.65 34.7 7.85L34.6 8L34.75 8.2L35.25 8.45L36.85 8.65L38.4 8.45L38.9 8.25M35.4,-9.05L34.6 -8.85L10.5 2.2M35.4,0.85L35.4 0.8M34.75,8.2L34.65 11.6L34.65 12.25L34.55 12.45L35.2 12.85L36.8 13.1L37 13.1M38.4,7.55L38.55 7.6M7.55,6.75L7.55 7.35L7.5 20.45L7.45 20.45L7.4 20.45L6.8 20.75L6.75 20.95L6.85 21.15L7.4 21.35L8.95 21.6L10.55 21.35L11 21.15L11.2 20.95L11.1 20.75L11.05 20.75L10.65 20.5L10.5 20.45L10.5 17M7.55,6.75L7.6 5.5L7.6 1.75L7.6 1.2L-18.5 -11.9L-34.85 -4.1M10.65,20.5L10.55 20.45L10.5 20.45M6.85,21.15L6.75 25.15L6.7 25.35Q6.65 25.55 7.35 25.75L8.9 26L8.95 26M11.05,25L11 21.15M7.6,1.2L7.65 -2.9M-38.1,-25.8L-38.5 -26L-38.5 -26.45M-30.3,-21.9L-33.95 -20.25L-34.85 -20.1L-18.5 -11.9M-34.85,-7.1L-34.85 -20.1L-34.85 -24.2M-34.85,-2.9L-34.85 -4.1M-34.35,0.7L-34.85 0.9L-36.4 1.1L-37.85 0.95L-38 0.9L-38.5 0.65M-34.85,0L-34.7 0.05" />
<path style="fill:none;stroke-width:1;stroke-linecap:round;stroke-linejoin:round;stroke-miterlimit:3;stroke:#000000;stroke-opacity:1" d="M12.25,-29.15L11 -30.25L7.15 -27.75L8.9 -26.5L12.25 -29.15M38.7,-19.95L38.65 -19.95L38.65 -20L-8.45 -43.8M-4.15,-8.9L0.7 -6.4M1.95,-5.75L3.2 -5.1M35.4,0.85L35.4 2.15M35.4,2.55L35.4 5.6M10.5,-3.05L10.5 2.2L10.5 5.6M-34.85,-4.1L-34.85 -2.9L-34.85 -2.05M-34.85,-4.1L-34.85 -7.1" />
</g>
</svg>
