<?xml version="1.0" encoding="utf-8"?>
<svg version="1.1" id="Layer_1"
xmlns="http://www.w3.org/2000/svg"
xmlns:xlink="http://www.w3.org/1999/xlink"
xmlns:author="http://www.sothink.com"
width="33px" height="16px"
xml:space="preserve">
<g id="758" transform="matrix(1, 0, 0, 1, 13.95, 27.45)">
<path style="fill:#E11E1E;fill-opacity:1" d="M-13.05,-16.85L-13.15 -16.85L-13.15 -16.9L-13.2 -16.9Q-11.85 -21.85 -11.1 -26.8L-11.1 -26.95Q-9.25 -26.25 -5.95 -26.2L-2.05 -26.25L-0.55 -26.25L-0.5 -26.25L4.9 -26L8.35 -26.1L11.7 -26.1L12.75 -17.9L12.25 -14.35L12.25 -13.8L12.25 -13.7L12.3 -13.45L12.35 -12.9L12.35 -12.75L10.25 -12.55L9 -12.45L8.85 -12.45L8.85 -12.5L8.3 -12.5L6.3 -12.5L6.1 -14.9L6.1 -12.5L2.15 -12.5L1.9 -17.25L1.45 -13.15L1.4 -12.5L-2.95 -12.5Q-2.9 -14.65 -3 -15.2L-3.3 -15.25L-3.55 -14.6L-3.7 -12.5L-6.8 -12.5L-10.4 -13.05L-11.5 -13.45L-11.3 -14.95L-11.25 -15.4L-11.25 -15.85L-11.2 -16.2L-12.85 -16.75Q-12.4 -17.3 -12.15 -18.15L-13.05 -16.85M11.15,-13.8L11.5 -13.8L12.25 -13.8L12.15 -14.3L11.5 -17.9L11.2 -17.9L11.15 -15.8L11.15 -13.8M-5.95,-15.45L-5.85 -15.45L-5.85 -15.5L-5.95 -15.45M-9.7,-16.35L-9.75 -16.4L-9.8 -16.35L-9.7 -16.35" />
<path style="fill:#FFFFFF;fill-opacity:1" d="M17.15,-15.75Q17.15 -14.7 16.6 -14.15Q16.15 -13.7 15.45 -13.7L12.25 -13.7L12.25 -13.8L12.25 -14.35L12.75 -17.9L13.1 -16.5L14.4 -16.85L14.4 -16.75L14.45 -16.8L14.45 -16.75L15.55 -17.1L16.2 -17.35L16.7 -17.25Q17.15 -16.75 17.15 -15.75" />
<path style="fill:#A70303;fill-opacity:1" d="M15.55,-17.1L14.45 -16.75L14.45 -16.8L14.4 -16.75L14.4 -16.85L16.2 -17.35L15.55 -17.1M-13.65,-15.55L-13.35 -16.45L-13.15 -16.9L-13.15 -16.85L-13.25 -16.5L-13.35 -16.25L-13.4 -16.15L-13.4 -16.1L-13.45 -16.05L-13.65 -15.55M-5.85,-15.5L-5.85 -15.45L-5.95 -15.45L-5.85 -15.5M-9.8,-16.35L-9.75 -16.4L-9.7 -16.35L-9.8 -16.35M-12.15,-18.15Q-12.4 -17.3 -12.85 -16.75L-12.9 -16.75L-13.05 -16.85L-12.15 -18.15" />
<path style="fill:#7D0202;fill-opacity:1" d="M2.15,-12.5L1.5 -12.5L1.45 -13.15L1.9 -17.25L2.15 -12.5M11.15,-15.8L11.2 -17.9L11.5 -17.9L12.15 -14.3L12.25 -13.8L11.5 -13.8L11.15 -15.8" />
<path style="fill:#000000;fill-opacity:1" d="M16.7,-17.25Q18.45 -17.05 18.45 -15.75Q18.45 -13.9 17.55 -13Q16.75 -12.2 15.5 -12.2L8.85 -12.2L8.85 -12.35L9 -12.35L10.25 -12.45L12.35 -12.65L12.35 -12.75L12.35 -12.9L12.3 -13.45L12.25 -13.7L15.45 -13.7Q16.15 -13.7 16.6 -14.15Q17.15 -14.7 17.15 -15.75Q17.15 -16.75 16.7 -17.25" />
<path style="fill:#D70404;fill-opacity:1" d="M6.1,-14.9L6.3 -12.5L6.1 -12.5L6.1 -14.9M1.45,-13.15L1.5 -12.5L1.4 -12.5L1.45 -13.15M-3.55,-14.6L-3.3 -15.25L-3 -15.2Q-2.9 -14.65 -2.95 -12.5L-3.7 -12.5L-3.55 -14.6M-13.35,-16.25L-13.25 -16.5L-13.15 -16.85L-13.05 -16.85L-12.9 -16.75L-12.85 -16.75L-11.2 -16.2L-11.25 -15.85L-11.25 -15.4L-11.3 -14.95L-11.5 -13.45Q-13.45 -14.35 -13.45 -15.75L-13.4 -16.05L-13.4 -16.15L-13.35 -16.25M-13.2,-16.9L-13.15 -16.9L-13.35 -16.45L-13.65 -15.55L-13.45 -16.05L-13.9 -14.45L-13.7 -15.45L-13.7 -15.5L-13.4 -17L-13.3 -16.95L-13.2 -16.9M11.15,-15.8L11.5 -13.8L11.15 -13.8L11.15 -15.8" />
<path style="fill:#FC1F1F;fill-opacity:1" d="M-13.2,-16.9L-13.3 -16.95Q-12.4 -20 -12.2 -21.25L-11.1 -26.8Q-11.85 -21.85 -13.2 -16.9M-2.05,-26.25L-0.95 -26.3L-0.55 -26.25L-2.05 -26.25" />
<path style="fill:none;stroke-width:1;stroke-linecap:round;stroke-linejoin:round;stroke-miterlimit:3;stroke:#2E2E2E;stroke-opacity:1" d="M-11.1,-26.95Q-9.25 -26.25 -5.95 -26.2L-2.05 -26.25L-0.95 -26.3L-0.55 -26.25L-0.5 -26.25L4.9 -26L8.35 -26.1M12.75,-17.9L13.1 -16.5M14.45,-16.8L15.55 -17.1L16.2 -17.35L16.7 -17.25M12.35,-12.75L10.25 -12.55L9 -12.45L8.85 -12.45L8.3 -12.5L6.3 -12.5L6.1 -12.5L2.15 -12.5L1.5 -12.5L1.4 -12.5L-2.95 -12.5L-3.7 -12.5L-6.8 -12.5L-10.4 -13.05L-11.5 -13.45Q-13.45 -14.35 -13.45 -15.75L-13.4 -16.05L-13.4 -16.15L-13.25 -16.5M-13.2,-16.9L-13.35 -16.45L-13.4 -16.1L-13.45 -16.05M-0.55,-26.25L-2.05 -26.25M14.45,-16.8L14.4 -16.75L14.3 -16.75L14.25 -16.7L14.15 -16.7L14 -16.65L13.1 -16.5M12.75,-17.9L12.25 -14.35L12.25 -13.8L12.25 -13.7M8.3,-12.5L8.85 -12.5M-13.2,-16.9Q-11.85 -21.85 -11.1 -26.8" />
<path style="fill:none;stroke-width:1;stroke-linecap:round;stroke-linejoin:round;stroke-miterlimit:3;stroke:#333333;stroke-opacity:1" d="M8.35,-26.1L11.7 -26.1L12.75 -17.9" />
<path style="fill:none;stroke-width:1;stroke-linecap:round;stroke-linejoin:round;stroke-miterlimit:3;stroke:#7D0202;stroke-opacity:1" d="M12.75,-17.9L12.05 -19.3L9.1 -24.75L8.35 -26.1" />
</g>
</svg>
