<?xml version="1.0" encoding="utf-8"?>
<svg version="1.1" id="Layer_1"
xmlns="http://www.w3.org/2000/svg"
xmlns:xlink="http://www.w3.org/1999/xlink"
xmlns:author="http://www.sothink.com"
width="81px" height="41px"
xml:space="preserve">
<g id="86" transform="matrix(1, 0, 0, 1, 40.25, 20.3)">
<linearGradient
id="LinearGradID_442" gradientUnits="userSpaceOnUse" gradientTransform="matrix(0.0156555, -0.0144043, 0.0223846, 0.0243378, -15.25, 8.75)" spreadMethod ="pad" x1="-819.2" y1="0" x2="819.2" y2="0" >
<stop  offset="0" style="stop-color:#05050C;stop-opacity:1" />
<stop  offset="1" style="stop-color:#2C3666;stop-opacity:1" />
</linearGradient>
<path style="fill:url(#LinearGradID_442) " d="M-40,-0.05Q-21.5 -11.75 0 -20.05Q24.2 -15.25 40 -0.05L0 19.95Q-20.75 12.8 -40 -0.05" />
<path style="fill:#141B30;fill-opacity:1" d="M0,19.95L40 -0.05Q22.9 13.85 0 19.95Q-23.3 15.85 -40 -0.05Q-20.75 12.8 0 19.95" />
<path style="fill:none;stroke-width:0.5;stroke-linecap:round;stroke-linejoin:round;stroke-miterlimit:3;stroke:#4A5FAC;stroke-opacity:1" d="M0,-20.05Q24.2 -15.25 40 -0.05" />
<path style="fill:none;stroke-width:0.05;stroke-linecap:round;stroke-linejoin:round;stroke-miterlimit:3;stroke:#D6DBED;stroke-opacity:1" d="M40,-0.05L0 19.95" />
<path style="fill:none;stroke-width:0.5;stroke-linecap:round;stroke-linejoin:round;stroke-miterlimit:3;stroke:#121729;stroke-opacity:1" d="M40,-0.05Q22.9 13.85 0 19.95Q-23.3 15.85 -40 -0.05" />
<path style="fill:none;stroke-width:0.05;stroke-linecap:round;stroke-linejoin:round;stroke-miterlimit:3;stroke:#9AA6D3;stroke-opacity:1" d="M0,19.95Q-20.75 12.8 -40 -0.05" />
<path style="fill:none;stroke-width:0.5;stroke-linecap:round;stroke-linejoin:round;stroke-miterlimit:3;stroke:#3E4F8E;stroke-opacity:1" d="M-40,-0.05Q-21.5 -11.75 0 -20.05" />
<path style="fill:#FFFFFF;fill-opacity:0.152941" d="M27.8,-5.7Q29.95 -4.95 31.5 -3.05Q33 -1.2 32.95 0.65Q32.85 2.55 31.3 3.3L16.75 10.5L14 10.75Q12.3 10.4 10.85 9.3L0.75 1.65Q-0.65 0.55 -1.5 -0.95Q-2.3 -2.45 -2.2 -3.8Q-2 -5.15 -1 -5.9L6.25 -11.5Q7.05 -12.1 8.15 -12.15L10.5 -11.85L27.8 -5.7" />
<path style="fill:none;stroke-width:0.05;stroke-linecap:round;stroke-linejoin:round;stroke-miterlimit:3;stroke:#F5F5F5;stroke-opacity:0.552941" d="M13.5,-13.45L13.5 -12.95L13.8 -13.35M13.2,-12.55L13.5 -12.95L13.5 -12.45M13.2,-16.1L14.2 -16M3.55,-16.05L3.55 -17.05M9.5,-13.45L9.5 -12.45M8.25,-13L9.25 -12.9M4.05,-16.15L4.35 -16.55L3.85 -16.55M4.85,-16.55L4.35 -16.55L4.65 -16.95M7.15,-13.65L7.75 -14.45M8.55,-9.75L8.55 -9.25L8.85 -9.65M8.25,-8.85L8.55 -9.25L8.55 -8.75M6.4,-9.7L6.4 -8.7M0.95,-12.25L0.35 -11.45M4.15,-9.55L3.45 -8.85M4.55,-9.75L4.55 -8.75M2.8,-5.05L2.8 -6.05M4.05,-5.45L3.05 -5.65M8.85,-2.45L8.85 -1.45M8.35,-2.35L7.75 -1.55M5.45,-4.7L4.85 -3.9M17.95,-8.75L17.95 -9.75M16.25,-9.95L16.85 -10.75M11.35,-6.3L11.95 -7.1M13.35,-5.95L13.05 -5.55L13.75 -5.5L13.75 -6.05M13.75,-5.5L13.75 -5.05M12.55,-5.6L13.05 -5.55L12.75 -5.15M12.85,-2.45L12.85 -1.95L13.15 -2.35M12.55,-1.55L12.85 -1.95L12.85 -1.45M17.75,-6.05L17.75 -5.6L17.8 -5.6L18.05 -5.95M17.25,-5.6L17.75 -5.6L17.75 -5.55L17.8 -5.6L18.25 -5.6M17.45,-5.15L17.75 -5.55L17.75 -5.05M15.25,-5.1L15.25 -6.1M10.25,-8.5L9.65 -7.7M25.45,-6.3L26.05 -7.1M21.95,-8.75L21.95 -9.75M22.2,-9.25L22.7 -9.25L23 -9.65M22.4,-8.85L22.7 -9.25L23.2 -9.25M23,-2.45L23 -1.45M21.75,-2L22.75 -1.9M20.3,-2.8L20.9 -3.6M27.15,-6.1L27.15 -5.6L27.65 -5.5L27.15 -5.55L27.15 -5.1M27.15,-5.55L26.65 -5.6L27.15 -5.6L27.15 -5.55M27,-2.45L27 -1.45M28.3,-1.55L27.7 -0.75M26.3,-5.7L27 -6.4M31.15,-5.1L31.15 -6.1M36.7,-2.4L36.45 -1.95L36.95 -1.8M35.95,-2.1L36.45 -1.95L36.2 -1.5M37.95,-2.45L37.95 -1.45M33.85,-4.7L33.25 -3.9M32.3,-5.4L31.4 -5.8M36.15,1.15L36.15 1.65L36.5 1.25M35.8,2.05L36.15 1.65L36.15 2.15M31.15,2.1L31.4 1.7L31.15 2.1M31.9,1.7L31.4 1.7L31.7 1.3L31.4 1.7L30.9 1.7L31.35 1M32.15,1.15L32.15 2.15M30.45,5.8L30.45 4.8M31.7,5.35L30.7 5.25M32.25,5.5L31.65 6.3M26.45,5.8L26.45 4.8M22.35,1.3L22.05 1.7L22.05 2.2M22.05,1.2L22.05 1.7L21.75 2.1M21.55,9.45L21.55 8.45M21.85,12L20.85 11.9M25.55,9.45L25.55 8.45M25.95,9.3L26.3 8.95L25.8 8.95M26.8,8.95L26.3 8.95L26.65 8.6M24.85,4.6L25.45 3.8M15.65,1L16.25 0.2M17.05,4.8L17.05 5.3L17.35 4.9M16.75,5.7L17.05 5.3L17.05 5.8M18.05,1.2L18.05 2.2M16.8,1.65L17.8 1.75M11.9,5.65L12.6 4.95M13.05,4.8L13.05 5.8M11.75,9.35L12.05 8.95L12.05 8.45M12.05,8.95L12.35 8.55M12.05,8.95L12.05 9.45M14.85,11.85L15.45 11.05M9.4,2.4L8.8 3.2M7.05,2.2L7.05 1.2M8.3,1.75L7.3 1.65M2.6,2L3.05 1.75L3.05 1.7L2.65 1.7L2.85 1.4L3.05 1.25L3.25 1.1M3.05,2.2L3.05 1.75L3.15 1.7L3.05 1.7L3.05 1.25M3.15,1.7L3.55 1.7M2.25,5.85L2.25 5.35L2.25 4.85M3.45,5.35L2.25 5.35M7.4,8.35L6.95 8.95L7.5 8.95L7.75 8.95L7.85 8.95L7.35 9.05L6.95 9.35M6.95,8.95L6.9 9L7.35 9.05L7.5 8.95M8.05,8.45L8.05 9.45M4.3,5.85L3.7 6.65M2.75,16.35L2.25 16.3L2.25 16.8M2.25,15.8L2.25 16.3L1.75 16.25M2.55,13.2L2.55 12.7L2.25 13.1M5.3,18.1L4.7 18.9M16.5,13.15L16.5 12.65L16.15 13M2.85,12.3L2.55 12.7L2.55 12.2M10,15.65L10.6 14.85M6.9,13.1L7.5 12.3M16.5,12.65L16.5 12.15M16.5,12.65L16.85 12.3M6.55,13.2L6.55 12.2M19.85,8.25L20.45 7.45M-34.85,-1.9L-34.35 -1.9L-34.35 -2.4M-34.35,-1.4L-34.35 -1.9L-33.85 -1.9M-35.75,-2.45L-35.15 -3.25M-24.05,-8.65L-24.05 -9.65M-21.85,-8.65L-21.85 -9.65M-25.35,-5.05L-25.35 -5.55L-25.35 -6.05M-29.35,-6.05L-29.35 -5.05M-29.05,-1.85L-30.05 -1.95M-30.35,-1.4L-30.35 -2.4M-27.95,-1.2L-28.55 -0.4M-22.7,-4.6L-23.3 -3.8M-24.15,-5.55L-25.35 -5.55M-5.75,-12.55L-5.5 -12.85L-5.8 -12.85L-5.95 -12.85L-5.6 -13.1L-5.25 -13.35L-5.5 -12.85L-4.95 -12.85M-5.6,-13.1L-5.8 -12.85M-8.45,-16.05L-9.05 -15.25M-0.45,-16.05L-0.45 -16.45L-0.95 -16.45L-0.75 -16.75L-0.45 -17.05L-0.45 -16.45L0.05 -16.45M-4.7,-13.45L-4.7 -12.45M-0.2,-12.9L-0.7 -12.95L-0.7 -12.45M-0.7,-13.45L-0.7 -12.95L-1.2 -13M-3.5,-18.35L-2.9 -19.15M-14.8,-13.35L-14.8 -12.85L-14.3 -12.8M-14.8,-12.35L-14.8 -12.85L-15.3 -12.9M-13.05,-12.1L-13.65 -11.3M-18.5,-8.85L-19.15 -8.1M-19.15,-9.2L-20.15 -9.2M-15.5,-6.35L-16 -5.7L-15.3 -5.55L-15.3 -6.05M-16.1,-5.55L-16 -5.7M-15.3,-5.05L-15.3 -5.55L-14.8 -5.55M-15.4,-2.4L-15.4 -1.4M-19.4,-2.4L-19.4 -1.4M-19.85,-2.3L-20.15 -1.9L-19.65 -1.85M-13.8,-1.2L-14.4 -0.4M-11.3,-5.05L-11.3 -6.05M-3.95,-8.5L-4.55 -7.7M-9.55,-9.7L-9.55 -8.7M-5.05,-9.2L-5.55 -9.2L-5.55 -8.7M-5.55,-9.7L-5.55 -9.2L-6.05 -9.2M-8.9,-4.85L-9.5 -4.05M-5.5,-1.95L-6 -1.95L-6 -1.9L-5.5 -1.95M-5.7,-2.35L-6 -1.95L-6.3 -1.95L-6 -1.9L-6.3 -1.55M-6.3,-1.95L-6.45 -1.95L-6.55 -1.75L-6.5 -2L-6.35 -2.2L-6.15 -2.65M-6.5,-2L-6.4 -1.95L-6.35 -2.2M-6.3,-1.95L-6.4 -1.95L-6.45 -1.95M-5.3,-2.45L-5.3 -1.45M-1.5,-5.15L-1.2 -5.55L-1.2 -6.05M-1.2,-5.05L-1.2 -5.55L-0.9 -5.95M-0.8,-1.95L-1.3 -1.95L-1.3 -1.45M-1.3,-2.45L-1.3 -1.95L-1.8 -1.95M-9.95,-9.6L-10.55 -8.8M-10.05,-5.45L-11.05 -5.65M-20.65,-1.95L-20.15 -1.9L-20.45 -1.5M-1.75,5.85L-1.75 4.85M-3.45,4.65L-2.85 3.85M-6,1.35L-6.3 1.75L-6.3 2.25M-6.3,1.25L-6.3 1.75L-6.6 2.15M-6.45,8.65L-6.75 9.05L-6.05 9.1L-6.05 8.55M-6.05,9.1L-6.05 9.55M-7.25,9L-6.75 9.05L-7.05 9.45M-0.4,9.75L-1 10.55M-1.55,9.1L-2.05 9.05L-2.05 9.55M-2.05,8.55L-2.05 9.05L-2.55 9M-10.75,1.35L-11.35 2.15M-10.65,5.35L-11.65 5.35M-11.9,5.85L-11.9 4.85M-10.3,1.25L-10.3 2.25M-17.6,4.65L-17 3.85M-16.4,5.3L-15.9 5.35L-15.9 4.85M-15.9,5.85L-15.9 5.35L-15.4 5.4M-20.15,8.55L-20.15 9.55M-15.85,8.65L-16.15 9.05L-16.15 9.55M-16.15,8.55L-16.15 9.05L-16.45 9.45M-13.2,12.1L-12.6 11.3M-19.3,13.5L-19.9 14.3M-11.65,13.2L-11.65 12.7L-12.15 12.65M-11.65,12.2L-11.65 12.7L-11.15 12.75M-10.4,16.85L-11 17.65M-11.85,15.8L-11.85 16.8M-1.75,15.8L-1.75 16.8M-4.1,15.6L-3.5 14.8M-3,16.3L-2 16.3M-7.65,13.2L-7.65 12.2M-9.55,6.05L-10.15 6.85M-7.2,13.1L-6.6 12.3M-24.4,1.25L-24.4 2.25M-20.4,1.25L-20.4 1.75L-20.1 1.35M-20.7,2.15L-20.4 1.75L-20.4 2.25M-26.1,5.85L-26.1 4.85M-30.1,5.85L-30.1 4.85M-20.5,8.7L-21.2 9.4M-24.85,1.35L-25.45 2.15M-23.65,6.05L-24.25 6.85M-24.8,5.35L-25.8 5.35M-31.8,4.65L-31.2 3.85M-34.6,1.25L-34.6 1.75L-34.3 1.35M-34.9,2.15L-34.6 1.75L-34.6 2.25M-20.55,12.75L-21.55 12.65M-22,13.2L-22 12.2M-29.7,7.85L-30.7 7.85M0.05,-1.5L-0.55 -0.7" />
</g>
</svg>
