<?xml version="1.0" encoding="utf-8"?>
<svg version="1.1" id="Layer_1"
xmlns="http://www.w3.org/2000/svg"
xmlns:xlink="http://www.w3.org/1999/xlink"
xmlns:author="http://www.sothink.com"
width="48px" height="41px"
xml:space="preserve">
<g id="538" transform="matrix(1, 0, 0, 1, 24.95, 26.85)">
<path style="fill:#666666;fill-opacity:0.431373" d="M-21.45,-0.05L-11.6 -5.65L-7.65 -3.6L-5.4 -2.45L-5.05 -2.3L-3.85 -1.7L-3.15 -1.35L-3.15 11.7L-1.15 11.65L-1.15 -1.2L8.75 -5.2L20.1 0.5L20.2 1.35L21.7 1.3L21.9 1.4Q10.75 7.95 -4.05 13.75L-24.95 1.9L-23.55 1.1Q-23.1 2.2 -21.85 1.3L-21.45 -0.05" />
<path style="fill:#993300;fill-opacity:1" d="M-20.35,-12.15L-19.4 -13.2L-19 -13.6L-4.55 -24.95L-3.2 -25.85L-3.05 -25.9L-1.1 -26.3L-1.05 -26.3Q0.7 -26.35 2.8 -25.2L20.15 -16.6L20.4 -16.45L20.8 -16.25L21.55 -15.2L21.7 -14.15L21.65 -13.8Q21.2 -12.3 19.05 -11.75L-2.1 -2.75L-20.35 -12.15M15.7,-14.7L-0.65 -23.2L-8.4 -17.35Q-14.75 -12.9 -8.7 -9.1Q-7.9 -8.6 -7 -8.25Q-2.8 -6.5 2.85 -8.15Q4.75 -8.7 6.85 -9.65L15.7 -14.7M-20.3,-10.1L-20.35 -10.1L-20.3 -10.1" />
<linearGradient
id="LinearGradID_2036" gradientUnits="userSpaceOnUse" gradientTransform="matrix(0.00317383, -0.00547791, 0.0122375, 0.00709534, 0.8, -12.2)" spreadMethod ="pad" x1="-819.2" y1="0" x2="819.2" y2="0" >
<stop  offset="0.247059" style="stop-color:#472E23;stop-opacity:1" />
<stop  offset="1" style="stop-color:#993300;stop-opacity:1" />
</linearGradient>
<path style="fill:url(#LinearGradID_2036) " d="M6.85,-9.65Q4.75 -8.7 2.85 -8.15Q-2.8 -6.5 -7 -8.25Q-7.9 -8.6 -8.7 -9.1Q-14.75 -12.9 -8.4 -17.35L-0.65 -23.2L15.7 -14.7L6.85 -9.65" />
<path style="fill:#631E01;fill-opacity:1" d="M-3.15,-1.35L-3.85 -1.7L-5.05 -2.3L-5.4 -2.45L-7.65 -3.6L-11.6 -5.65L-18.8 -9.3L-20.3 -10.1L-20.35 -10.1L-20.35 -12.15L-2.1 -2.75L19.05 -11.75Q21.2 -12.3 21.65 -13.8L21.5 -12.95L21.2 -11.9L20.4 -9.95L18.7 -9.25L8.75 -5.2L-1.15 -1.2L-2.05 -0.8L-2.1 -0.8L-3.15 -1.35M20.8,-16.25L20.4 -16.45L20.15 -16.6L20.8 -16.25M-19,-13.6L-19.4 -13.2L-19 -13.6" />
<path style="fill:#200A00;fill-opacity:1" d="M21.8,0.6L21.7 1.3L20.2 1.35L20.1 0.5L18.7 -9.25L20.4 -9.95L21.8 0.6M-1.15,11.65L-3.15 11.7L-3.15 -1.35L-2.1 -0.8L-2.05 -0.8L-1.15 -1.2L-1.15 11.65M-21.85,1.3Q-23.1 2.2 -23.55 1.1L-23.65 0.65L-20.35 -10.1L-20.3 -10.1L-18.8 -9.3L-21.45 -0.05L-21.85 1.3" />
<path style="fill:none;stroke-width:1;stroke-linecap:round;stroke-linejoin:round;stroke-miterlimit:3;stroke:#000000;stroke-opacity:1" d="M-2.1,-0.8L-2.05 -0.8L-1.15 -1.2L8.75 -5.2L18.7 -9.25L20.4 -9.95L21.2 -11.9L21.5 -12.95L21.65 -13.8Q21.2 -12.3 19.05 -11.75L-2.1 -2.75M20.15,-16.6L20.4 -16.45L20.8 -16.25L21.55 -15.2L21.7 -14.15L21.65 -13.8M20.15,-16.6L2.8 -25.2Q0.7 -26.35 -1.05 -26.3M-3.05,-25.9L-3.2 -25.85L-4.55 -24.95L-19 -13.6M20.4,-9.95L21.8 0.6M-3.2,-25.85Q-2.2 -26.5 -1.1 -26.3M-7.65,-3.6L-5.4 -2.45L-5.05 -2.3L-3.85 -1.7L-2.1 -0.85M-3.15,-1.35L-3.15 11.7L-1.15 11.65L-1.15 -1.2" />
<path style="fill:none;stroke-width:1;stroke-linecap:round;stroke-linejoin:round;stroke-miterlimit:3;stroke:#000000;stroke-opacity:1" d="M-19,-13.6L-19.4 -13.2L-20.35 -12.15L-2.1 -2.75L-2.1 -0.85L-2.05 -0.8M21.8,0.6L21.7 1.3L20.2 1.35L20.1 0.5L18.7 -9.25M-23.55,1.1L-23.65 0.65L-20.35 -10.1L-20.35 -12.15M-20.3,-10.1L-18.8 -9.3L-11.6 -5.65L-7.65 -3.6M-2.1,-0.85L-2.1 -0.8M-18.8,-9.3L-21.45 -0.05M-23.55,1.1Q-23.1 2.2 -21.85 1.3L-21.45 -0.05" />
</g>
</svg>
