<?xml version="1.0" encoding="utf-8"?>
<svg version="1.1" id="Layer_1"
xmlns="http://www.w3.org/2000/svg"
xmlns:xlink="http://www.w3.org/1999/xlink"
xmlns:author="http://www.sothink.com"
width="133px" height="85px"
xml:space="preserve">
<g id="303" transform="matrix(1, 0, 0, 1, 96, 55.7)">
<path style="fill:#666666;fill-opacity:1" d="M-56.3,-30.3L-56.35 -30.35Q-55.7 -30.7 -55 -31L-56.3 -30.3M-28.2,1.05L-27.9 1.15L-28.2 1.3L-35.45 -2L-28.2 1.05M-46.05,-29.65L-47.15 -30.2L-46.05 -29.7L-46.05 -29.65" />
<path style="fill:#333333;fill-opacity:1" d="M-41.9,-4.9L-49.45 -8.7L-49.5 -8.7L-50 -8.95L-52.15 -10.05L-41.9 -15.15L-41.9 -4.9" />
<path style="fill:#FFFFFF;fill-opacity:1" d="M-53,-32L-51.8 -32.6L-51.15 -32.85L-49.8 -33.6L-47.7 -34.6Q-46.7 -35.15 -45.65 -35.65L-43.5 -36.7L-41.7 -37.65L-39.65 -38.6L-37.65 -39.65L-35.6 -40.6L-33.55 -41.65L-31.55 -42.65L-29.55 -43.6L-27.45 -44.65L-25.5 -45.6L-23.5 -46.65L-21.4 -47.65L-19.45 -48.65L-17.35 -49.65L-15.4 -50.65L-13.35 -51.65L-11.3 -52.65L-9.3 -53.65L-3.55 -50.8L-5.55 -49.75L-7.6 -48.75L-9.85 -47.65L-11.65 -46.8L-13.65 -45.75L-15.65 -44.8L-17.95 -43.65L-19.75 -42.75L-21.75 -41.8L-23.95 -40.65L-25.75 -39.8L-27.75 -38.75L-29.85 -37.8L-32.05 -36.7L-33.85 -35.75L-35.95 -34.7L-37.9 -33.75L-39.95 -32.75L-42 -31.7L-42 -29.95L-42.35 -29.75L-43.7 -29.1L-45.5 -28.25L-53 -32M-46.05,-29.7L-47.15 -30.2L-46.05 -29.65L-46.05 -29.7" />
<path style="fill:#000000;fill-opacity:0.2" d="M31.7,-2.5L30.2 -1.75L31.7 -2.5M28.7,-1L2.45 14.4L2.65 14.5L-4.2 18.5Q-11.7 19.6 -26.65 18.35L-28.05 18.3L-30.65 18.15Q-38.85 17.75 -45.2 18.4L-50.65 19.25L-54.65 20.25L-56.9 21.1L-58.5 21.6L-60.3 22.7L-69.7 29.05L-70.35 28.75L-70.45 28.85L-70.85 29.05L-82.85 23.05L-96 16.35L-89.1 12.2L-89.15 12.2L-52.5 -9.8L-50.75 -9L-50.8 -8.95L-49.85 -8.5L-49.5 -8.7L-49.45 -8.7L-41.9 -4.9L-35.45 -2L-28.2 1.3L-27.9 1.15L-25.2 -0.2L-20.3 -2.6L-20.3 -19.05Q-11.1 -21.45 4.3 -20.45L5.7 -20.4L14.4 -19.85Q20.2 -19.6 24.45 -19.85L24.45 -3.1L25.7 -2.5L28.7 -1" />
<linearGradient
id="LinearGradID_1172" gradientUnits="userSpaceOnUse" gradientTransform="matrix(0.00137329, -0.0223083, 0.0180817, 0.00111389, -3.15, -40.35)" spreadMethod ="pad" x1="-819.2" y1="0" x2="819.2" y2="0" >
<stop  offset="0" style="stop-color:#282828;stop-opacity:1" />
<stop  offset="1" style="stop-color:#494949;stop-opacity:1" />
</linearGradient>
<path style="fill:url(#LinearGradID_1172) " d="M32.6,-31.2L32 -30.95Q25.1 -28.65 5.7 -30.25L4.3 -30.3L1.7 -30.45Q-6.5 -30.85 -12.85 -30.2Q-23 -29.15 -28.3 -25.5L-42 -31.7L-39.95 -32.75L-37.9 -33.75L-35.95 -34.7L-33.85 -35.75L-32.05 -36.7L-29.85 -37.8L-27.75 -38.75L-25.75 -39.8L-23.95 -40.65L-21.75 -41.8L-19.75 -42.75L-17.95 -43.65L-15.65 -44.8L-13.65 -45.75L-11.65 -46.8L-9.85 -47.65L-7.6 -48.75L-5.55 -49.75L-3.55 -50.8L-0.45 -52.25Q2.45 -53.75 5.35 -55.2Q17.25 -49.2 29.2 -43.25Q35.55 -38.05 35.7 -34.85L35.7 -34.55Q35.6 -32.4 32.6 -31.2" />
<linearGradient
id="LinearGradID_1173" gradientUnits="userSpaceOnUse" gradientTransform="matrix(0.0474243, 0, 0, 0.0217285, -3.15, -16.75)" spreadMethod ="pad" x1="-819.2" y1="0" x2="819.2" y2="0" >
<stop  offset="0" style="stop-color:#282828;stop-opacity:1" />
<stop  offset="0.235294" style="stop-color:#282828;stop-opacity:1" />
<stop  offset="0.47451" style="stop-color:#515151;stop-opacity:1" />
<stop  offset="0.792157" style="stop-color:#242424;stop-opacity:1" />
<stop  offset="1" style="stop-color:#494949;stop-opacity:1" />
</linearGradient>
<path style="fill:url(#LinearGradID_1173) " d="M-35.45,-2L-41.9 -4.9L-41.9 -15.15L-41.95 -17.7L-42 -22L-42 -29.95L-42 -31.7L-28.3 -25.5Q-23 -29.15 -12.85 -30.2Q-6.5 -30.85 1.7 -30.45L4.3 -30.3L5.7 -30.25Q25.1 -28.65 32 -30.95L32.6 -31.2Q35.6 -32.4 35.7 -34.55L35.7 -24.6Q35.5 -22.25 31.7 -21L28.7 -20.3L25.7 -19.95L24.45 -19.85Q20.2 -19.6 14.4 -19.85L5.7 -20.4L4.3 -20.45Q-11.1 -21.45 -20.3 -19.05Q-25.15 -17.8 -28.3 -15.65L-28.2 1.05L-35.45 -2" />
<path style="fill:#282828;fill-opacity:1" d="M-41.95,-17.7L-57.7 -25.15L-57.7 -29.7Q-57.05 -30.05 -56.35 -30.35L-56.3 -30.3L-55 -31L-54.55 -31.25L-53 -32L-45.5 -28.25L-43.7 -29.1L-42.35 -29.75L-42 -29.95L-42 -22L-41.95 -17.7M-28.2,1.05L-28.3 -15.65Q-25.15 -17.8 -20.3 -19.05L-20.3 -2.6L-25.2 -0.2L-27.9 1.15L-28.2 1.05" />
<path style="fill:#2A2A2A;fill-opacity:1" d="M28.7,-1L25.7 -2.5L24.45 -3.1L24.45 -19.85L25.7 -19.95L28.7 -20.3L28.7 -1" />
<path style="fill:#404040;fill-opacity:1" d="M30.2,-1.75L28.7 -1L28.7 -20.3L31.7 -21L31.7 -2.5L30.2 -1.75" />
<path style="fill:#444444;fill-opacity:1" d="M-9.3,-53.65L-6.3 -55.2L-0.45 -52.25L-3.55 -50.8L-9.3 -53.65" />
<path style="fill:none;stroke-width:1;stroke-linecap:round;stroke-linejoin:round;stroke-miterlimit:3;stroke:#000000;stroke-opacity:1" d="M35.7,-34.55L35.7 -34.85Q35.55 -38.05 29.2 -43.25Q17.25 -49.2 5.35 -55.2Q2.45 -53.75 -0.45 -52.25L-3.55 -50.8L-5.55 -49.75L-7.6 -48.75L-9.85 -47.65L-11.65 -46.8L-13.65 -45.75L-15.65 -44.8L-17.95 -43.65L-19.75 -42.75L-21.75 -41.8L-23.95 -40.65L-25.75 -39.8L-27.75 -38.75L-29.85 -37.8L-32.05 -36.7L-33.85 -35.75L-35.95 -34.7L-37.9 -33.75L-39.95 -32.75L-42 -31.7L-28.3 -25.5Q-23 -29.15 -12.85 -30.2Q-6.5 -30.85 1.7 -30.45L4.3 -30.3L5.7 -30.25Q25.1 -28.65 32 -30.95L32.6 -31.2Q35.6 -32.4 35.7 -34.55L35.7 -24.6Q35.5 -22.25 31.7 -21L31.7 -2.5L30.2 -1.75L28.7 -1L28.7 -20.3L31.7 -21M-49.5,-8.7L-50 -8.95L-52.15 -10.05L-41.9 -15.15L-41.95 -17.7L-57.7 -25.15L-57.7 -29.7Q-57.05 -30.05 -56.35 -30.35Q-55.7 -30.7 -55 -31L-54.75 -31.2L-54.55 -31.25L-53 -32L-51.8 -32.6L-51.15 -32.85L-49.8 -33.6L-47.7 -34.6Q-46.7 -35.15 -45.65 -35.65L-43.5 -36.7L-41.7 -37.65L-39.65 -38.6L-37.65 -39.65L-35.6 -40.6L-33.55 -41.65L-31.55 -42.65L-29.55 -43.6L-27.45 -44.65L-25.5 -45.6L-23.5 -46.65L-21.4 -47.65L-19.45 -48.65L-17.35 -49.65L-15.4 -50.65L-13.35 -51.65L-11.3 -52.65L-9.3 -53.65L-6.3 -55.2L-0.45 -52.25M28.7,-20.3L25.7 -19.95L24.45 -19.85Q20.2 -19.6 14.4 -19.85L5.7 -20.4L4.3 -20.45Q-11.1 -21.45 -20.3 -19.05L-20.3 -2.6L-25.2 -0.2L-27.9 1.15L-28.2 1.3L-35.45 -2L-41.9 -4.9L-49.45 -8.7M24.45,-19.85L24.45 -3.1L25.7 -2.5L28.7 -1M30.2,-1.75L31.7 -2.5M-10.3,-50.1L-7.6 -48.75M-8.3,-51.2L-5.55 -49.75M-9.3,-53.65L-3.55 -50.8M-56.35,-30.35L-56.3 -30.3L-55 -31L-54.55 -31.25M-46.3,-31.85L-42.35 -29.75L-42 -29.95L-42 -31.7L-44.3 -32.85M-42.35,-29.75L-43.7 -29.1L-45.5 -28.25L-50.1 -25.95L-45.25 -23.5L-45.2 -23.5L-42 -22L-42 -29.95M-42.25,-33.9L-39.95 -32.75M-50.1,-25.95L-57.7 -29.7M-42,-22L-41.95 -17.7M-50,-8.95L-49.45 -8.7M-41.9,-4.9L-41.9 -15.15M-18.3,-46.05L-15.65 -44.8M-14.3,-48.1L-11.65 -46.8M-16.3,-47.1L-13.65 -45.75M-28.25,-41L-25.75 -39.8M-27.75,-38.75L-30.25 -40M-24.25,-43.05L-21.75 -41.8M-22.2,-44.05L-19.75 -42.75M-32.25,-39L-29.85 -37.8M-38.3,-35.9L-35.95 -34.7M-36.3,-36.95L-33.85 -35.75M-20.3,-19.05Q-25.15 -17.8 -28.3 -15.65L-28.2 1.05L-27.9 1.15M-28.2,1.05L-28.2 1.3M-28.2,1.05L-35.45 -2" />
<path style="fill:none;stroke-width:0.05;stroke-linecap:round;stroke-linejoin:round;stroke-miterlimit:3;stroke:#000000;stroke-opacity:1" d="M-13.35,-51.65L-10.3 -50.1M-11.3,-52.65L-8.3 -51.2M-44.3,-32.85L-47.7 -34.6M-49.8,-33.6L-46.3 -31.85M-45.65,-35.65L-42.25 -33.9M-53,-32L-45.5 -28.25M-43.7,-29.1L-51.15 -32.85M-19.45,-48.65L-16.3 -47.1M-30.25,-40L-33.55 -41.65M-25.5,-45.6L-22.2 -44.05M-29.55,-43.6L-23.95 -40.65M-27.45,-44.65L-24.25 -43.05M-35.6,-40.6L-32.25 -39M-31.55,-42.65L-28.25 -41M-39.65,-38.6L-36.3 -36.95M-37.65,-39.65L-32.05 -36.7M-21.4,-47.65L-18.3 -46.05M-23.5,-46.65L-17.95 -43.65M-41.7,-37.65L-38.3 -35.9M-43.5,-36.7L-37.9 -33.75M-15.4,-50.65L-9.85 -47.65M-17.35,-49.65L-14.3 -48.1" />
</g>
</svg>
