<?xml version="1.0" encoding="utf-8"?>
<svg version="1.1" id="Layer_1"
xmlns="http://www.w3.org/2000/svg"
xmlns:xlink="http://www.w3.org/1999/xlink"
xmlns:author="http://www.sothink.com"
width="31px" height="23px"
xml:space="preserve">
<g id="17" transform="matrix(1, 0, 0, 1, 19.85, 22.65)">
<path style="fill:#000000;fill-opacity:1" d="M-0.25,-10.3L-0.4 -10.7L-0.2 -11.15L0.25 -11.35L0.7 -11.15L0.85 -10.95L0.9 -10.7L0.7 -10.2Q0.55 -10 0.25 -10L-0.2 -10.2L-0.25 -10.3M-2,-14.4L-1.55 -14.6Q-1.25 -14.6 -1.1 -14.4L-0.9 -13.95L-1.1 -13.45Q-1.25 -13.25 -1.55 -13.25L-2 -13.45L-2.2 -13.95L-2 -14.4" />
<path style="fill:#FCB6C4;fill-opacity:1" d="M-14.85,-9.85L-14.75 -9.8L-13.4 -8.8L-11.9 -9.75L-5.65 -13.65L-5.4 -13.2L2.2 -17.8L3.05 -17.6L3.15 -17.6L3.25 -17.7L4.35 -19.2L5.45 -22.15L7.75 -21.1L10.05 -20.1Q9.6 -18.05 8.55 -16.3Q7.5 -14.55 5.85 -13.1L5 -13.35L0.85 -10.95L0.7 -11.15L0.25 -11.35L-0.2 -11.15L-0.4 -10.7L-0.25 -10.3L-2.25 -9.15L-3.25 -9.25L-3.05 -8.9L-9.1 -5.5L-9.85 -3.8L-9.6 -3.05L-9.1 -2.6L-17.05 -2.3L-19.35 -2.25L-15.55 -10.25L-14.85 -9.85M-2.2,-13.95L-2 -13.45L-1.55 -13.25Q-1.25 -13.25 -1.1 -13.45L-0.9 -13.95L-1.1 -14.4Q-1.25 -14.6 -1.55 -14.6L-2 -14.4L-2.2 -13.95" />
<path style="fill:#FFFFFF;fill-opacity:1" d="M-5.65,-13.65L-11.9 -9.75L-13.4 -8.8L-14.75 -9.8L-14.85 -9.85Q-11.95 -13.15 -7.2 -15.8Q-1.9 -18.8 2.6 -19.15L4.35 -19.2L3.25 -17.7L3.15 -17.6L3.05 -17.6L2.2 -17.8L-5.4 -13.2L-5.65 -13.65M-3.25,-9.25L-2.25 -9.15L-0.25 -10.3L-0.2 -10.2L0.25 -10Q0.55 -10 0.7 -10.2L0.9 -10.7L0.85 -10.95L5 -13.35L5.85 -13.1Q7.5 -14.55 8.55 -16.3Q8.8 -14.15 6.4 -10.4Q3.95 -6.65 -1.55 -3.9Q-7.05 -1.15 -11.35 -0.85Q-15.7 -0.6 -17.05 -2.3L-9.1 -2.6L-9.6 -3.05L-9.85 -3.8L-9.1 -5.5L-3.05 -8.9L-3.25 -9.25" />
<path style="fill:none;stroke-width:1;stroke-linecap:round;stroke-linejoin:round;stroke-miterlimit:3;stroke:#000000;stroke-opacity:1" d="M7.75,-21.1L6.9 -18.6Q6 -16.7 4.6 -15.55M5.45,-22.15L4.35 -19.2L3.25 -17.7L3.15 -17.6L3.05 -17.6M-11.9,-9.75L-5.65 -13.65L-5.4 -13.2L-3.25 -9.25M5.85,-13.1Q7.5 -14.55 8.55 -16.3Q9.6 -18.05 10.05 -20.1M4.35,-19.2L2.6 -19.15Q-1.9 -18.8 -7.2 -15.8Q-11.95 -13.15 -14.85 -9.85M-15.55,-10.25L-19.35 -2.25L-17.05 -2.3Q-15.7 -0.6 -11.35 -0.85Q-7.05 -1.15 -1.55 -3.9Q3.95 -6.65 6.4 -10.4Q8.8 -14.15 8.55 -16.3M-17.05,-2.3L-9.1 -2.6M-9.1,-5.5L-3.05 -8.9L-3.25 -9.25" />
</g>
</svg>
