<?xml version="1.0" encoding="utf-8"?>
<svg version="1.1" id="Layer_1"
xmlns="http://www.w3.org/2000/svg"
xmlns:xlink="http://www.w3.org/1999/xlink"
xmlns:author="http://www.sothink.com"
width="360px" height="216px"
xml:space="preserve">
<g id="1041" transform="matrix(1, 0, 0, 1, -145.05, -196)">
<linearGradient
id="LinearGradID_3167" gradientUnits="userSpaceOnUse" gradientTransform="matrix(0.000671387, 0.000183105, -0.000839233, 0.00315857, 333.55, 322.95)" spreadMethod ="pad" x1="-819.2" y1="0" x2="819.2" y2="0" >
<stop  offset="0" style="stop-color:#F99D06;stop-opacity:1" />
<stop  offset="1" style="stop-color:#BE6F05;stop-opacity:1" />
</linearGradient>
<path style="fill:url(#LinearGradID_3167) " d="M333.25,322.15L333.9 320.3L333.9 323.6Q333.85 324.8 333.25 325.6L333.25 322.15" />
<linearGradient
id="LinearGradID_3168" gradientUnits="userSpaceOnUse" gradientTransform="matrix(-0.0448303, 0.0143738, -0.000991821, -0.00311279, 296.7, 334.5)" spreadMethod ="pad" x1="-819.2" y1="0" x2="819.2" y2="0" >
<stop  offset="0" style="stop-color:#F99D06;stop-opacity:1" />
<stop  offset="1" style="stop-color:#BE6F05;stop-opacity:1" />
</linearGradient>
<path style="fill:url(#LinearGradID_3168) " d="M259.2,343.7L333.25 322.15L333.25 325.6L331.85 326L260.4 346.8L259.2 343.7" />
<path style="fill:#F99D06;fill-opacity:1" d="M260.4,346.8L260.45 346.95L260.9 348.65L261 349.15L261.2 350.2Q261.7 352.85 261.7 355.65L261.6 358.4Q260.4 371.9 247.25 381.75Q232.85 392.55 212.4 392.55Q191.9 392.55 177.45 381.75Q172.65 378.15 169.45 374.05Q167.75 371.9 166.5 369.6L165.6 367.8L165.05 366.45L164 363.3L163.95 363.05L163.55 363.1Q163.1 360.9 163.05 358.65L163.05 358.6L163.05 357.6L163.05 356.85L163.05 356.65L163.05 355.65Q163.05 340.35 177.45 329.55Q191.9 318.75 212.4 318.75Q232.85 318.75 247.25 329.55Q252.1 333.15 255.3 337.3L329.35 315.75Q333.3 316.4 333.9 318.65Q334.1 319.4 333.9 320.3L333.25 322.15L259.2 343.7L260.4 346.8M169.3,365.3Q172.3 373.3 180.75 379.65Q193.9 389.45 212.5 389.5Q231.1 389.45 244.25 379.65Q257.4 369.8 257.4 355.9Q257.4 341.95 244.25 332.15Q231.1 322.3 212.5 322.3Q193.9 322.3 180.75 332.15Q167.6 341.95 167.65 355.9Q167.6 360.85 169.3 365.3M307.15,323.35L256.1 338.2L257.45 340.15L258.8 342.65L309.85 327.75L310 327.55Q311.55 324.1 307.15 323.35" />
<linearGradient
id="LinearGradID_3169" gradientUnits="userSpaceOnUse" gradientTransform="matrix(0.0563354, 0.0151215, -0.00930786, 0.0346985, 211.9, 367.35)" spreadMethod ="pad" x1="-819.2" y1="0" x2="819.2" y2="0" >
<stop  offset="0" style="stop-color:#F99D06;stop-opacity:1" />
<stop  offset="1" style="stop-color:#BE6F05;stop-opacity:1" />
</linearGradient>
<path style="fill:url(#LinearGradID_3169) " d="M261.35,350.15Q262.2 353.05 262.5 356.15L262.6 358.85Q262.6 374.15 248.15 384.95Q233.75 395.75 213.3 395.75Q192.8 395.75 178.35 384.95Q172.85 380.8 169.45 376Q167.75 373.85 166.5 371.55L165.25 368.9L165.05 368.4L164 365.25L163.95 365L163.55 363.1L163.95 363.05L164 363.3L165.05 366.45L165.6 367.8L166.5 369.6Q167.75 371.9 169.45 374.05Q172.65 378.15 177.45 381.75Q191.9 392.55 212.4 392.55Q232.85 392.55 247.25 381.75Q260.4 371.9 261.6 358.4L261.7 355.65Q261.7 352.85 261.2 350.2L261.35 350.15" />
<linearGradient
id="LinearGradID_3170" gradientUnits="userSpaceOnUse" gradientTransform="matrix(0.0862427, -0.0372467, 0.0274048, 0.0355072, 239.5, 346.3)" spreadMethod ="pad" x1="-819.2" y1="0" x2="819.2" y2="0" >
<stop  offset="0" style="stop-color:#EBEBEB;stop-opacity:0.721569" />
<stop  offset="1" style="stop-color:#DFDFDF;stop-opacity:1" />
</linearGradient>
<path style="fill:url(#LinearGradID_3170) " d="M167.65,355.9Q167.6 341.95 180.75 332.15Q193.9 322.3 212.5 322.3Q231.1 322.3 244.25 332.15Q257.4 341.95 257.4 355.9Q257.4 369.8 244.25 379.65Q231.1 389.45 212.5 389.5Q193.9 389.45 180.75 379.65Q172.3 373.3 169.3 365.3Q167.6 360.85 167.65 355.9" />
<linearGradient
id="LinearGradID_3171" gradientUnits="userSpaceOnUse" gradientTransform="matrix(-0.0416107, 0.0122986, -0.00151062, -0.00285339, 271.95, 336.2)" spreadMethod ="pad" x1="-819.2" y1="0" x2="819.2" y2="0" >
<stop  offset="0" style="stop-color:#F99D06;stop-opacity:1" />
<stop  offset="1" style="stop-color:#BE6F05;stop-opacity:1" />
</linearGradient>
<path style="fill:url(#LinearGradID_3171) " d="M310,327.55L309.85 327.75L258.8 342.65L257.45 340.15L256.1 338.2L307.15 323.35Q311.55 324.1 310 327.55" />
<path style="fill:none;stroke-width:0.05;stroke-linecap:round;stroke-linejoin:round;stroke-miterlimit:3;stroke:#FDDDB3;stroke-opacity:1" d="M163.05,358.65L163.05 358.6L163.05 357.6L163.05 356.85L163.05 356.65L163.05 355.65Q163.05 340.35 177.45 329.55Q191.9 318.75 212.4 318.75Q232.85 318.75 247.25 329.55Q252.1 333.15 255.3 337.3L329.35 315.75Q333.3 316.4 333.9 318.65Q334.1 319.4 333.9 320.3L333.9 323.6Q333.85 324.8 333.25 325.6M259.2,343.7L260.4 346.8L260.45 346.95L260.9 348.65L261 349.15L261.35 350.15M333.9,320.3L333.25 322.15M261,349.15L261.2 350.2Q261.7 352.85 261.7 355.65L261.6 358.4Q260.4 371.9 247.25 381.75Q232.85 392.55 212.4 392.55Q191.9 392.55 177.45 381.75Q172.65 378.15 169.45 374.05Q167.75 371.9 166.5 369.6L165.6 367.8L165.05 366.45L164 363.3L163.95 363.05Q163.4 360.85 163.2 358.6L163.1 357.6L163.05 356.85" />
<path style="fill:none;stroke-width:0.05;stroke-linecap:round;stroke-linejoin:round;stroke-miterlimit:3;stroke:#CF6107;stroke-opacity:1" d="M333.25,325.6L331.85 326" />
<path style="fill:none;stroke-width:0.05;stroke-linecap:round;stroke-linejoin:round;stroke-miterlimit:3;stroke:#E98807;stroke-opacity:1" d="M261.35,350.15Q262.2 353.05 262.5 356.15L262.6 358.85Q262.6 374.15 248.15 384.95Q233.75 395.75 213.3 395.75Q192.8 395.75 178.35 384.95Q172.85 380.8 169.45 376Q167.75 373.85 166.5 371.55L165.25 368.9L165.05 368.4L164 365.25L163.95 365L163.55 363.1Q163.1 360.9 163.05 358.65" />
<path style="fill:none;stroke-width:0.05;stroke-linecap:round;stroke-linejoin:round;stroke-miterlimit:3;stroke:#FFFFFF;stroke-opacity:1" d="M167.65,355.9Q167.6 341.95 180.75 332.15Q193.9 322.3 212.5 322.3Q231.1 322.3 244.25 332.15Q257.4 341.95 257.4 355.9Q257.4 369.8 244.25 379.65Q231.1 389.45 212.5 389.5Q193.9 389.45 180.75 379.65Q172.3 373.3 169.3 365.3Q167.6 360.85 167.65 355.9z" />
<path style="fill:none;stroke-width:0.05;stroke-linecap:round;stroke-linejoin:round;stroke-miterlimit:3;stroke:#999999;stroke-opacity:1" d="M168.1,355.9Q168.05 342.15 181.05 332.4Q194.1 322.7 212.5 322.7Q230.9 322.7 243.9 332.4Q256.95 342.15 256.95 355.9Q256.95 369.7 243.9 379.45Q230.9 389.2 212.5 389.2Q194.1 389.2 181.05 379.45Q172.7 373.15 169.7 365.25Q168.05 360.85 168.1 355.9z" />
<path style="fill:none;stroke-width:0.05;stroke-linecap:round;stroke-linejoin:round;stroke-miterlimit:3;stroke:#D56D06;stroke-opacity:1" d="M255.3,337.3L257.3 340.1Q258.4 341.85 259.2 343.7" />
<path style="fill:none;stroke-width:0.05;stroke-linecap:round;stroke-linejoin:round;stroke-miterlimit:3;stroke:#FBBF84;stroke-opacity:1" d="M259.2,343.7L333.25 322.15" />
<path style="fill:none;stroke-width:0.05;stroke-linecap:round;stroke-linejoin:round;stroke-miterlimit:3;stroke:#DB8006;stroke-opacity:1" d="M331.85,326L260.4 346.8" />
<radialGradient
id="RadialGradID_3172" gradientUnits="userSpaceOnUse" gradientTransform="matrix(0.0525818, 0, 0, 0.076828, 178.4, 394.4)" spreadMethod ="pad" cx="0" cy="0" r="819.2" fx="0" fy="0" >
<stop  offset="0.137255"  style="stop-color:#D2D2D2;stop-opacity:0.431373" />
<stop  offset="0.878431"  style="stop-color:#989898;stop-opacity:0.513725" />
</radialGradient>
<path style="fill:url(#RadialGradID_3172) " d="M172.85,386Q172.85 380.6 179.9 376.75Q186.95 372.9 196.95 372.95Q206.95 372.9 214 376.75Q221.1 380.6 221.1 386Q221.1 391.4 214 395.25Q206.95 399.1 196.95 399.1Q186.95 399.1 179.9 395.25Q172.85 391.4 172.85 386" />
<path style="fill:#38862F;fill-opacity:1" d="M209.85,324.55Q209.3 331 205.2 334.85L203.7 329.55Q208.5 326.5 209.05 322.5L208.95 321.4L209 321.35L209.3 322.85Q210.05 324.5 211.6 325.2Q213.3 325.9 214.95 325.2Q216.65 324.5 217.25 322.85Q218 321.2 217.3 319.55Q216.6 317.85 214.9 317.15Q213.35 316.45 211.65 317.15Q210.75 317.55 210.05 318.35L210.3 317.9Q213.65 311.55 206.2 310.7L205.55 308.75Q213.5 308.4 212.6 316.5L216 316.65Q218 317.4 218.75 319.45Q219.5 321.25 218.9 323L218.75 323.35Q218.15 324.9 216.75 325.75L216 326.1L215.65 326.25L215.5 326.3L212.1 326.1Q210.75 325.5 209.85 324.35L209.85 324.55" />
<radialGradient
id="RadialGradID_3173" gradientUnits="userSpaceOnUse" gradientTransform="matrix(0.00631714, -0.00259399, 0.00259399, 0.00631714, 214.05, 321.35)" spreadMethod ="pad" cx="0" cy="0" r="819.2" fx="0" fy="0" >
<stop  offset="0"  style="stop-color:#FFFFFF;stop-opacity:0.870588" />
<stop  offset="1"  style="stop-color:#FFFFFF;stop-opacity:0" />
</radialGradient>
<path style="fill:url(#RadialGradID_3173) " d="M209.25,319.8L209.15 319.95L209.25 319.5L209.5 319.15L210.3 317.9L210.05 318.35L209.25 319.8" />
<path style="fill:none;stroke-width:1;stroke-linecap:round;stroke-linejoin:round;stroke-miterlimit:3;stroke:#000000;stroke-opacity:1" d="M210.05,318.35L209.5 319.15L210.3 317.9Q211 317.05 212.15 316.65L212.6 316.5Q213.5 308.4 205.55 308.75L206.2 310.7Q213.65 311.55 210.3 317.9L210.05 318.35Q210.75 317.55 211.65 317.15Q213.35 316.45 214.9 317.15Q216.6 317.85 217.3 319.55Q218 321.2 217.25 322.85Q216.65 324.5 214.95 325.2Q213.3 325.9 211.6 325.2Q210.05 324.5 209.3 322.85L209 321.35M208.95,321.4L209.05 322.5L209.1 322.7L209.3 323.3L209.85 324.35Q210.75 325.5 212.1 326.1L215.5 326.3L215.65 326.25L216 326.1L216.75 325.75Q218.15 324.9 218.75 323.35L218.9 323Q219.5 321.25 218.75 319.45Q218 317.4 216 316.65L212.6 316.5M209.5,319.15L209.25 319.5L209.15 319.95L209.25 319.8L209.35 319.4L209.5 319.15M208.95,321.4L209 321.1L209 321L208.95 320.85L209 320.7Q209 320.3 209.15 319.95L209.2 320L209.25 319.8L210.05 318.35M209.2,320L209 320.7L209 321M209,321.1L209 321.35M209.05,322.5Q208.5 326.5 203.7 329.55L205.2 334.85Q209.3 331 209.85 324.55L209.85 324.35" />
<path style="fill:#044D00;fill-opacity:1" d="M215.85,337.5Q225.65 347.3 225.65 361.2Q225.65 375.1 215.85 384.9Q212.3 388.45 208.25 390.7Q201.05 394.7 192.15 394.7Q183.25 394.7 176.1 390.7Q172 388.45 168.45 384.9Q158.65 375.1 158.65 361.2Q158.65 347.3 168.45 337.5Q173.8 332.15 180.45 329.7Q185.85 327.7 192.15 327.7Q198.45 327.7 203.9 329.7Q210.5 332.15 215.85 337.5" />
<path style="fill:none;stroke-width:1;stroke-linecap:round;stroke-linejoin:round;stroke-miterlimit:3;stroke:#000000;stroke-opacity:1" d="M215.85,337.5Q225.65 347.3 225.65 361.2Q225.65 375.1 215.85 384.9Q212.3 388.45 208.25 390.7Q201.05 394.7 192.15 394.7Q183.25 394.7 176.1 390.7Q172 388.45 168.45 384.9Q158.65 375.1 158.65 361.2Q158.65 347.3 168.45 337.5Q173.8 332.15 180.45 329.7Q185.85 327.7 192.15 327.7Q198.45 327.7 203.9 329.7Q210.5 332.15 215.85 337.5z" />
<path style="fill:#000000;fill-opacity:1" d="M161.75,348.65Q164.9 349.25 167.5 351.05Q170 352.85 175.65 353.75Q180.55 352.4 185.95 356.15Q188.25 357.7 190.7 356.65Q195.75 354.25 200.85 357.55Q205.15 360.3 211.15 358.55Q213.5 357.9 215.5 358.85Q219.6 360.95 222.25 363Q224.2 364.55 225.4 366.45Q224.7 370.5 222.95 374.25Q221.1 373.1 219.2 372.1Q215.85 370.3 213.6 371.55Q210.9 373.1 207.9 372.1Q202.3 370.4 196.35 370.65Q192.3 370.85 190.05 368.5L185.65 364.15Q181.6 360.45 176.55 361.4Q172.85 362.15 168.6 360.65Q163.6 358.9 159.1 357.95Q159.4 353.1 161.25 348.5L161.75 348.65M216.1,337.1Q222.35 343.25 224.6 351.75L222.35 350.9L220.5 350.75Q215.35 351.7 212.6 345.6Q211.45 343.15 208.95 343.55Q206.1 343.95 204.6 342.95Q199.75 339.7 193.6 339.8Q192.2 339.9 189.85 339Q183.95 336.95 177.8 340.1Q174.8 339.4 171.85 339.45L166.45 339.6Q170.35 334.8 175.45 331.8L177.2 332.25Q179.45 332.75 182.55 332.15Q187.9 331.05 193.1 333.8Q196.45 335.6 200.8 333.8Q205.9 331.7 210.8 334.8Q213.3 336.5 216.1 337.1M167.4,379.4L172.2 380.95L180.4 383.8Q186.75 385.95 192.35 385.35L200.9 385L203.3 385.4Q209.7 387.6 213.4 386.7Q206.9 392.05 197.9 393.55L194.15 394Q189.4 392.1 184.6 392.4L181.45 392.15L180.75 392Q176.8 390.55 173.05 387.85Q167.25 383.75 163.8 378.05L167.4 379.4" />
<path style="fill:none;stroke-width:1;stroke-linecap:round;stroke-linejoin:round;stroke-miterlimit:3;stroke:#000000;stroke-opacity:1" d="M161.25,348.5Q159.4 353.1 159.1 357.95Q163.6 358.9 168.6 360.65Q172.85 362.15 176.55 361.4Q181.6 360.45 185.65 364.15L190.05 368.5Q192.3 370.85 196.35 370.65Q202.3 370.4 207.9 372.1Q210.9 373.1 213.6 371.55Q215.85 370.3 219.2 372.1Q221.1 373.1 222.95 374.25Q224.7 370.5 225.4 366.45Q224.2 364.55 222.25 363Q219.6 360.95 215.5 358.85Q213.5 357.9 211.15 358.55Q205.15 360.3 200.85 357.55Q195.75 354.25 190.7 356.65Q188.25 357.7 185.95 356.15Q180.55 352.4 175.65 353.75Q170 352.85 167.5 351.05Q164.9 349.25 161.75 348.65M216.1,337.1Q222.35 343.25 224.6 351.75L222.35 350.9L220.5 350.75Q215.35 351.7 212.6 345.6Q211.45 343.15 208.95 343.55Q206.1 343.95 204.6 342.95Q199.75 339.7 193.6 339.8Q192.2 339.9 189.85 339Q183.95 336.95 177.8 340.1Q174.8 339.4 171.85 339.45L166.45 339.6Q170.35 334.8 175.45 331.8L177.2 332.25Q179.45 332.75 182.55 332.15Q187.9 331.05 193.1 333.8Q196.45 335.6 200.8 333.8Q205.9 331.7 210.8 334.8Q213.3 336.5 216.1 337.1M167.4,379.4L172.2 380.95L180.4 383.8Q186.75 385.95 192.35 385.35L200.9 385L203.3 385.4Q209.7 387.6 213.4 386.7Q206.9 392.05 197.9 393.55L194.15 394Q189.4 392.1 184.6 392.4L181.45 392.15L180.75 392Q176.8 390.55 173.05 387.85Q167.25 383.75 163.8 378.05L167.4 379.4" />
<radialGradient
id="RadialGradID_3174" gradientUnits="userSpaceOnUse" gradientTransform="matrix(0.0874176, 0, 0, 0.0874176, 177.8, 309.15)" spreadMethod ="pad" cx="0" cy="0" r="819.2" fx="0" fy="0" >
<stop  offset="0.792157"  style="stop-color:#515151;stop-opacity:0" />
<stop  offset="1"  style="stop-color:#000000;stop-opacity:0.631373" />
</radialGradient>
<path style="fill:url(#RadialGradID_3174) " d="M192.15,327.7Q206.05 327.7 215.85 337.5Q225.65 347.3 225.65 361.2Q225.65 375.1 215.85 384.9Q206.05 394.7 192.15 394.7Q178.25 394.7 168.45 384.9Q158.65 375.1 158.65 361.2Q158.65 347.3 168.45 337.5Q178.25 327.7 192.15 327.7" />
<radialGradient
id="RadialGradID_3175" gradientUnits="userSpaceOnUse" gradientTransform="matrix(0.0308533, -0.0045929, 0.00318909, 0.0213318, 188.3, 349.95)" spreadMethod ="pad" cx="0" cy="0" r="819.2" fx="0" fy="0" >
<stop  offset="0"  style="stop-color:#FFFFFF;stop-opacity:0.870588" />
<stop  offset="1"  style="stop-color:#FFFFFF;stop-opacity:0" />
</radialGradient>
<path style="fill:url(#RadialGradID_3175) " d="M188.8,331.95Q195.55 332.4 203.45 335.8Q211.35 339.15 212.3 349.3Q212.9 355.3 209.95 359.45Q208.7 361.25 193.75 362.3Q177.85 363.35 169.95 361.3Q162 359.15 165.3 349.5L166.65 345.95Q169.55 338.9 173.65 335.2L175.95 333.55L178.1 332.7L182.1 331.9L186.3 331.8L188.8 331.95" />
<linearGradient
id="LinearGradID_3176" gradientUnits="userSpaceOnUse" gradientTransform="matrix(-0.136353, -0.115891, 0.157211, -0.184982, 85.55, 181.6)" spreadMethod ="pad" x1="-819.2" y1="0" x2="819.2" y2="0" >
<stop  offset="0" style="stop-color:#D2F9FF;stop-opacity:0.262745" />
<stop  offset="1" style="stop-color:#FFFFFF;stop-opacity:0" />
</linearGradient>
<path style="fill:url(#LinearGradID_3176) " d="M505.05,412L145.05 412L145.05 196L505.05 196L505.05 412" />
</g>
</svg>
