<?xml version="1.0" encoding="utf-8"?>
<svg version="1.1" id="Layer_1"
xmlns="http://www.w3.org/2000/svg"
xmlns:xlink="http://www.w3.org/1999/xlink"
xmlns:author="http://www.sothink.com"
width="47px" height="89px"
xml:space="preserve">
<g id="165" transform="matrix(1, 0, 0, 1, 6.3, 85.45)">
<path style="fill:#000000;fill-opacity:0.101961" d="M-1.3,-19.4L38.7 0.65L33.7 3.15L-6.3 -16.9L-1.3 -19.4" />
<path style="fill:#5E5966;fill-opacity:1" d="M21.6,-32.9L21.3 -37.4L21.3 -33.05L5.65 -40.9L5.7 -69.7L4.95 -51.4Q4.8 -45.6 5.05 -41.2L-1.3 -44.4L-1.3 -84.3L5.7 -80.8L5.7 -79.95Q9 -78.3 12.25 -76.7Q13.4 -71.1 13.6 -64.5L13.6 -76.85L13.65 -76.85L21.35 -73L21.35 -72.15L22.25 -72.55L30.75 -68.3L30.75 -67.55Q34.75 -65.55 38.7 -63.6L38.7 -24.35L21.6 -32.9" />
<linearGradient
id="LinearGradID_564" gradientUnits="userSpaceOnUse" gradientTransform="matrix(0.00588989, -0.0118866, -0.0273743, -0.0135498, 18.6, -21.35)" spreadMethod ="pad" x1="-819.2" y1="0" x2="819.2" y2="0" >
<stop  offset="0" style="stop-color:#4F4D55;stop-opacity:1" />
<stop  offset="1" style="stop-color:#5E5966;stop-opacity:1" />
</linearGradient>
<path style="fill:url(#LinearGradID_564) " d="M5.65,-40.9L21.3 -33.05L21.6 -32.9L38.7 -24.35L38.7 0.65L-1.3 -19.4L-1.3 -44.4L5.05 -41.2L5.65 -40.9" />
<path style="fill:#4E3123;fill-opacity:1" d="M38.7,-64.35L39.25 -64.6L40 -65L40 -64.25L40 0L38.7 0.65L38.7 -63.6L38.7 -64.35" />
<path style="fill:#6A4331;fill-opacity:1" d="M0,-84.95L7.9 -81L6.6 -80.35L5.7 -80.8L-1.3 -84.3L0 -84.95M22.25,-72.55L21.35 -73L13.65 -76.85L14.25 -77.15L14.95 -77.5L23.5 -73.2L32.1 -68.95L32.1 -68.9L32.1 -68.2L39.25 -64.6L38.7 -64.35L30.8 -68.3L30.75 -68.3L22.25 -72.55" />
<path style="fill:#9C8363;fill-opacity:1" d="M6.6,-80.35L5.7 -79.95L5.7 -80.8L6.6 -80.35M5.65,-35.65Q4.7 -41.45 4.95 -51.4L5.7 -69.7L5.65 -35.65M21.35,-73L22.25 -72.55L21.35 -72.15L21.35 -73M21.3,-37.4Q22.45 -24.25 21.3 -16L21.3 -37.4" />
<path style="fill:#704532;fill-opacity:1" d="M6.9,-79.35L7.9 -80L14.25 -77.15L13.65 -76.85L13.6 -76.85L13.6 -64.5Q13.4 -71.1 12.25 -76.7L6.9 -79.35M30.75,-67.55L30.75 -68.3L30.8 -68.3L38.7 -64.35L38.7 -63.6Q34.75 -65.55 30.75 -67.55" />
<path style="fill:none;stroke-width:1;stroke-linecap:round;stroke-linejoin:round;stroke-miterlimit:3;stroke:#4B4154;stroke-opacity:1" d="M5.7,-80.8L5.7 -79.95L6.6 -80.35L5.7 -80.8L-1.3 -84.3L-1.3 -19.4L5.65 -15.9L5.65 -35.65Q4.7 -41.45 4.95 -51.4L5.7 -69.7L5.7 -79.95L6.9 -79.35L7.9 -80L7.9 -81L6.6 -80.35M7.9,-81L0 -84.95L-1.3 -84.3M23.5,-73.2L14.95 -77.5L14.25 -77.15L13.65 -76.85L21.35 -73L22.25 -72.55L23.5 -73.2L32.1 -68.95M32.1,-68.9L32.1 -68.2L39.25 -64.6L40 -64.25L40 0L38.7 0.65L30.75 -3.35L21.3 -8.05L14.6 -11.45L13.55 -11.95L5.65 -15.9M13.65,-76.85L13.6 -76.85L13.6 -64.5L13.6 -62.6L13.55 -11.95M14.25,-77.15L7.9 -80M13.6,-64.5Q13.4 -71.1 12.25 -76.7L6.9 -79.35M20.15,-72.7L20.15 -69.55M7.4,-70.55L7.4 -63.55M38.7,-63.6Q34.75 -65.55 30.75 -67.55L30.75 -68.3L30.8 -68.3L32.1 -68.95M40,-64.25L38.7 -63.6L38.7 0.65M30.75,-68.3L22.25 -72.55L21.35 -72.15L21.3 -37.5L21.3 -37.4Q22.45 -24.25 21.3 -16L21.3 -8.05M30.75,-67.55L30.75 -3.35M21.35,-72.15L21.35 -73M4.5,-73.7L4.5 -76.95M22.5,-38.55L22.5 -43.3M32.15,-31L32.15 -34.35M0,-27.85L0 -23.6M36.9,-14.25L36.9 -28.6M21.3,-37.4L21.3 -16M14.6,-11.45L14.6 -24.85M29.15,-65L29.15 -45.9M5.7,-69.7L5.65 -35.65" />
<path style="fill:#5E5966;fill-opacity:1" d="M38.7,-46.8Q18.45 -56.9 -1.85 -67.05Q-3.5 -70.9 -1.85 -74.15Q18.45 -64 38.7 -53.9Q37.75 -50.15 38.7 -46.8" />
<path style="fill:#58545F;fill-opacity:1" d="M38.7,-6.8Q18.45 -16.9 -1.85 -27.05Q-3.5 -30.9 -1.85 -34.15Q18.45 -24 38.7 -13.9Q37.75 -10.15 38.7 -6.8" />
<path style="fill:none;stroke-width:1;stroke-linecap:round;stroke-linejoin:round;stroke-miterlimit:3;stroke:#4B4154;stroke-opacity:1" d="M38.7,-6.8Q18.45 -16.9 -1.85 -27.05Q-3.5 -30.9 -1.85 -34.15Q18.45 -24 38.7 -13.9Q37.75 -10.15 38.7 -6.8M38.7,-46.8Q18.45 -56.9 -1.85 -67.05Q-3.5 -70.9 -1.85 -74.15Q18.45 -64 38.7 -53.9Q37.75 -50.15 38.7 -46.8" />
<path style="fill:#6A7377;fill-opacity:1" d="M-0.65,-18.6Q-0.65 -18.1 -0.15 -18.1Q0.45 -18.1 0.45 -18.6L0.25 -19L0.85 -18.8Q1.35 -18.65 1.35 -18.05L1.1 -17.55L0.75 -17.35L1.4 -17.3Q3.45 -17.05 3.45 -15.8L3.15 -15.05Q2.7 -14.4 1.95 -14.4Q1 -14.4 0.15 -15.05Q-0.6 -15.7 -0.6 -16.2Q-0.6 -17.1 0.35 -17.3Q0.1 -17.35 -0.1 -17.5L-0.55 -17.75L-0.85 -18.25L-0.65 -18.8L-0.65 -18.6M0.45,-16.4Q0.75 -16.1 1.3 -16.1Q1.6 -16.1 1.75 -16.35L1.85 -16.6Q1.85 -17 1 -17.25Q0.2 -17.55 0.2 -16.85L0.45 -16.4M6.95,-14.45L7.85 -14.35L8.25 -14.6L8.35 -14.85Q8.35 -15.5 7.5 -15.4Q6.7 -15.35 6.7 -14.9Q6.7 -14.55 6.95 -14.45M6.45,-14.55Q6.45 -15.95 7.95 -15.55Q9.45 -15.15 9.45 -14.2Q9.45 -13.2 8.4 -13.2Q7.4 -13.2 6.9 -13.65Q6.45 -14.05 6.45 -14.55M9.05,-13.2Q9.95 -13.2 10.4 -12.65L10.7 -11.85L10.6 -11.55L10.05 -11.25Q9.7 -11.25 9.05 -11.8Q8.45 -12.3 8.45 -12.55Q8.55 -13.2 9.05 -13.2M15.85,-9.85L16.8 -9.65L17.25 -9.35L17.65 -9.6L17.75 -9.9L17.4 -10.4Q16.9 -10.85 16.1 -10.85Q15.4 -10.85 15.35 -10.35Q15.35 -9.85 15.85 -9.85M15.25,-9.05Q14.8 -9.15 14.55 -9.35L14.35 -9.95L14.45 -10.5Q14.7 -11.05 15.75 -11.05Q17.3 -11.05 18.2 -10.2Q18.9 -9.55 18.9 -9L18.75 -8.5Q18.5 -8.05 17.95 -8.05L17.8 -8.05L17.2 -7.9Q16.15 -7.9 15.25 -9.05M22.05,-7.5Q23.45 -7.5 23.45 -6.65Q23.45 -6.05 22.55 -6.05Q22 -6.05 21.65 -6.4Q21.35 -6.7 21.35 -7Q21.35 -7.5 22.05 -7.5M23.35,-5.55Q23.3 -6.05 24.05 -6.05L25.25 -5.7L25.55 -5.25L25.4 -4.85Q25.15 -4.55 24.65 -4.55Q24.2 -4.55 23.75 -4.95Q23.35 -5.3 23.35 -5.55M28.2,-2.7Q28.2 -2.15 29.1 -2.15Q29.5 -2.15 29.6 -2.65Q29.6 -3.2 28.8 -3.2L28.3 -2.95L28.2 -2.7M28.05,-0.95Q27.15 -1.65 27.15 -2.15Q27.4 -3.55 28.85 -3.55Q30.15 -3.55 31.05 -2.7Q31.8 -2 31.8 -1.55L31.5 -0.75Q31 -0.15 30.15 -0.15Q29.05 -0.15 28.05 -0.95M36.9,-1.3Q37.5 -0.65 37.5 -0.1Q37.5 1.1 36.45 1.1L35.85 0.95L35.6 0.95L34.85 0.75Q34.15 0.65 33.5 0.15Q32.75 -0.45 32.75 -1Q32.75 -2.15 33.7 -2L34.65 -2.25L34.7 -2.25L34.65 -1.9L35.2 -1.3L36 -0.85Q36.5 -0.85 36.6 -1.35L36.4 -1.7L36.9 -1.3M33.8,-0.8Q34.05 -0.4 34.4 -0.4Q34.9 -0.4 34.9 -0.9Q34.9 -1.3 34.2 -1.7Q33.55 -2.15 33.55 -1.35L33.8 -0.8M-1.7,-17.15Q-2.15 -17.15 -2.45 -17.55L-2.65 -18.05Q-2.65 -18.75 -1.8 -18.65Q-0.9 -18.55 -0.9 -17.85Q-0.9 -17.15 -1.7 -17.15" />
<path style="fill:#8A9297;fill-opacity:1" d="M0.25,-19L0.45 -18.6Q0.45 -18.1 -0.15 -18.1Q-0.65 -18.1 -0.65 -18.6L-0.65 -18.8Q-0.55 -19.1 -0.15 -19.1L0.25 -19M0.2,-16.85Q0.2 -17.55 1 -17.25Q1.85 -17 1.85 -16.6L1.75 -16.35Q1.6 -16.1 1.3 -16.1Q0.75 -16.1 0.45 -16.4L0.2 -16.85M6.7,-14.9Q6.7 -15.35 7.5 -15.4Q8.35 -15.5 8.35 -14.85L8.25 -14.6L7.85 -14.35L6.95 -14.45Q6.7 -14.55 6.7 -14.9M15.35,-10.35Q15.4 -10.85 16.1 -10.85Q16.9 -10.85 17.4 -10.4L17.75 -9.9L17.65 -9.6L17.25 -9.35L16.8 -9.65L15.85 -9.85Q15.35 -9.85 15.35 -10.35M28.3,-2.95L28.8 -3.2Q29.6 -3.2 29.6 -2.65Q29.5 -2.15 29.1 -2.15Q28.2 -2.15 28.2 -2.7L28.3 -2.95M35.6,-2.25L36.4 -1.7L36.6 -1.35Q36.5 -0.85 36 -0.85L35.2 -1.3L34.65 -1.9L34.7 -2.25Q34.9 -2.6 35.6 -2.25M33.55,-1.35Q33.55 -2.15 34.2 -1.7Q34.9 -1.3 34.9 -0.9Q34.9 -0.4 34.4 -0.4Q34.05 -0.4 33.8 -0.8L33.55 -1.35" />
</g>
</svg>
