<?xml version="1.0" encoding="utf-8"?>
<svg version="1.1" id="Layer_1"
xmlns="http://www.w3.org/2000/svg"
xmlns:xlink="http://www.w3.org/1999/xlink"
xmlns:author="http://www.sothink.com"
width="39px" height="64px"
xml:space="preserve">
<g id="842" transform="matrix(1, 0, 0, 1, 18.6, 70.6)">
<path style="fill:#000000;fill-opacity:1" d="M-10.25,-14.25Q-14.25 -14 -16 -18.6Q-17.8 -23.35 -17.5 -33.75L-14.25 -40.25L8.75 -37.25Q17.4 -38.8 15.4 -30.5L16.6 -19.25L7.1 -17.75L-10.25 -14.25" />
<path style="fill:none;stroke-width:1;stroke-linecap:round;stroke-linejoin:round;stroke-miterlimit:3;stroke:#000000;stroke-opacity:1" d="M16.6,-19.25L7.1 -17.75L-10.25 -14.25" />
<path style="fill:none;stroke-width:0.5;stroke-linecap:round;stroke-linejoin:round;stroke-miterlimit:3;stroke:#333333;stroke-opacity:1" d="M-10.25,-14.25Q-14.25 -14 -16 -18.6Q-17.8 -23.35 -17.5 -33.75L-14.25 -40.25L8.75 -37.25Q17.4 -38.8 15.4 -30.5L16.6 -19.25" />
<linearGradient
id="LinearGradID_3039" gradientUnits="userSpaceOnUse" gradientTransform="matrix(0, 0.0375977, -0.0375671, 0, 0.55, -39.2)" spreadMethod ="pad" x1="-819.2" y1="0" x2="819.2" y2="0" >
<stop  offset="0" style="stop-color:#999999;stop-opacity:1" />
<stop  offset="1" style="stop-color:#333333;stop-opacity:1" />
</linearGradient>
<path style="fill:url(#LinearGradID_3039) " d="M-10.5,-16.65L-12.1 -19L-12 -19.1Q-13.8 -21 -14.15 -23.25L-14.25 -24.45L-14.2 -25.4L-13.65 -27.25L-13.55 -27.25L-13.55 -27.8L-13.4 -27.95L-13.4 -30Q-12.65 -29.4 -11.85 -29.45L-11.6 -29.5Q-9.7 -29 -8.6 -30.35Q-8.2 -30.15 -8.4 -30.5Q-7.4 -31.25 -7.15 -32.9Q-7.2 -33.6 -7.6 -34.9L-7.15 -41.2L-8.5 -41.3L-9 -34.85L-8.85 -34.8L-8.85 -34.75L-8.8 -34.75L-8.4 -33.35Q-8.25 -31.9 -9.35 -31.45Q-9.9 -30.55 -11.45 -30.85L-11.95 -30.85Q-12.55 -31.05 -13.25 -31.7L-13.45 -32.05L-13.7 -32.8L-13.85 -33.25L-13.7 -33.65L-13.45 -34.15L-13.2 -34.9L-13.1 -34.9L-12.4 -44.55L-13.25 -44.6L-13.65 -44.65L-13.65 -44.8L-15.7 -47.55L-15.5 -47.55Q-18.15 -50.65 -18 -54.65Q-18.15 -59.95 -12.65 -64.45Q-7.15 -69.5 0.5 -70Q8.1 -69.5 13.55 -64.45Q19 -59.95 19 -54.65Q19 -50.65 16.4 -47.55L16.45 -47.55L13.85 -44.45L13.85 -43.65L13.65 -44.6L12.85 -44.55L13.5 -34.9L13.65 -34.9L13.9 -34.15L14.1 -33.65L14.3 -33.25L14.15 -32.8L13.85 -32.05L13.65 -31.7L12.75 -31L12.7 -31L12.65 -29.5L12.7 -29.5L12.65 -29L12.6 -29L12.25 -24.8L11.2 -20.7L9.55 -16.7L9.55 -16.65L8.4 -16.65L8.4 -11.45Q8.35 -10.1 7.6 -9.2Q6.95 -8.45 5.9 -8.45Q4.9 -8.45 4.2 -9.2Q3.4 -10.1 3.4 -11.45L3.4 -16.65L2.25 -16.65L2.1 -16.65L2.1 -17.85L1.8 -17.85L1.8 -18L0.9 -19.55L-1.55 -19.55L-3.1 -17.85L-3.1 -16.65L-3.15 -16.65L-4.3 -16.65L-4.3 -11.45Q-4.35 -10.1 -5.1 -9.2Q-5.8 -8.45 -6.8 -8.45Q-7.8 -8.45 -8.55 -9.2Q-9.3 -10.1 -9.3 -11.45L-9.3 -16.65L-10.5 -16.65M-10.1,-34.5L-10.1 -34.45L-10.05 -34.45L-10.1 -34.5" />
<path style="fill:#000000;fill-opacity:1" d="M12.65,-29.5L12.7 -31L12.75 -31L13.65 -31.7L13.85 -32.05L14.15 -32.8L14.3 -33.25L14.1 -33.65L13.9 -34.15L13.65 -34.9L13.5 -34.9L12.85 -44.55L13.65 -44.6L14.65 -38.05L14.7 -38.1L14.7 -38L14.9 -35.35L14.9 -35L14.8 -35L14.8 -34.9Q15.05 -34.2 15.4 -33.8Q15.35 -33.55 15.55 -33.5Q15.85 -31.9 14.95 -31.05L14.8 -30.85Q14.65 -30.9 14.6 -30.75L14.35 -30.5L13.8 -30Q13.25 -29.6 12.7 -29.5L12.65 -29.5M3.4,-16.65L3.4 -11.45Q3.4 -10.1 4.2 -9.2Q4.9 -8.45 5.9 -8.45Q6.95 -8.45 7.6 -9.2Q8.35 -10.1 8.4 -11.45L8.4 -16.65L9.55 -16.65L9.55 -11.45Q9.55 -9.5 8.55 -8.35Q7.45 -7.1 5.9 -7.1Q4.4 -7.1 3.25 -8.35Q2.2 -9.5 2.25 -11.45L2.25 -16.65L3.4 -16.65M-9.3,-16.65L-9.3 -11.45Q-9.3 -10.1 -8.55 -9.2Q-7.8 -8.45 -6.8 -8.45Q-5.8 -8.45 -5.1 -9.2Q-4.35 -10.1 -4.3 -11.45L-4.3 -16.65L-3.15 -16.65L-3.15 -11.45Q-3.15 -9.5 -4.2 -8.35Q-5.3 -7.1 -6.8 -7.1Q-8.3 -7.1 -9.45 -8.35Q-10.5 -9.5 -10.5 -11.45L-10.5 -16.65L-9.3 -16.65M-12.4,-44.55L-13.1 -34.9L-13.2 -34.9L-13.45 -34.15L-13.7 -33.65L-13.85 -33.25L-13.7 -32.8L-13.45 -32.05L-13.25 -31.7Q-12.55 -31.05 -11.95 -30.85L-11.45 -30.85Q-9.9 -30.55 -9.35 -31.45Q-8.25 -31.9 -8.4 -33.35L-8.8 -34.75L-8.85 -34.75L-8.85 -34.8L-9 -34.85L-8.5 -41.3L-7.15 -41.2L-7.6 -34.9Q-7.2 -33.6 -7.15 -32.9Q-7.4 -31.25 -8.4 -30.5Q-8.2 -30.15 -8.6 -30.35Q-9.7 -29 -11.6 -29.5L-11.85 -29.45Q-12.65 -29.4 -13.4 -30L-13.95 -30.5L-14.15 -30.75L-14.35 -30.85L-14.55 -31.05Q-15.45 -31.9 -15.1 -33.5Q-14.95 -33.55 -14.95 -33.8L-14.4 -34.9L-14.35 -35L-14.45 -35L-14.5 -35.35L-14.45 -35.35L-14.25 -38L-14.25 -38.1L-14.2 -38.05L-13.25 -44.6L-12.4 -44.55" />
<path style="fill:none;stroke-width:1.2;stroke-linecap:round;stroke-linejoin:round;stroke-miterlimit:3;stroke:#000000;stroke-opacity:1" d="M-15.5,-47.55Q-18.15 -50.65 -18 -54.65Q-18.15 -59.95 -12.65 -64.45Q-7.15 -69.5 0.5 -70Q8.1 -69.5 13.55 -64.45Q19 -59.95 19 -54.65Q19 -50.65 16.4 -47.55" />
<path style="fill:#000000;fill-opacity:1" d="M1.55,-54.55L2.55 -54.55Q1.7 -52.65 1.7 -51.3Q1.7 -50.3 2.05 -49.65Q2.45 -49.05 3 -49.05Q3.4 -49.05 3.7 -49.35L4.15 -50.05L4.25 -51.2L4.25 -53L5.3 -53L5.3 -51.2L5.4 -50.05Q5.55 -49.6 5.85 -49.3L6.55 -49.05L7.5 -49.65Q7.9 -50.3 7.9 -51.3Q7.9 -52.65 7 -54.55L8.05 -54.55Q8.95 -52.95 8.95 -51.4Q8.95 -49.85 8.3 -49Q7.7 -48.2 6.7 -48.2Q5.35 -48.2 4.8 -49.6Q4.2 -48.2 2.9 -48.2Q1.85 -48.2 1.25 -49.05Q0.6 -49.9 0.6 -51.4Q0.6 -52.95 1.55 -54.55" />
</g>
</svg>
