<?xml version="1.0" encoding="utf-8"?>
<svg version="1.1" id="Layer_1"
xmlns="http://www.w3.org/2000/svg"
xmlns:xlink="http://www.w3.org/1999/xlink"
xmlns:author="http://www.sothink.com"
width="75px" height="40px"
xml:space="preserve">
<g id="163" transform="matrix(1, 0, 0, 1, 30.95, 17.35)">
<path style="fill:#000000;fill-opacity:0.2" d="M43.35,-0.05L-0.65 21.9L-30.95 6.75Q-8.95 -4.25 13 -15.3L43.35 -0.05" />
<path style="fill:#CCCCCC;fill-opacity:1" d="M-27.05,6.5L-27.55 6.25L-27.05 6.5" />
<radialGradient
id="RadialGradID_560" gradientUnits="userSpaceOnUse" gradientTransform="matrix(0.0701294, 0, 0, 0.0701294, -17, 4)" spreadMethod ="pad" cx="0" cy="0" r="819.2" fx="0" fy="0" >
<stop  offset="0.109804"  style="stop-color:#ADB1B4;stop-opacity:1" />
<stop  offset="0.533333"  style="stop-color:#7D8588;stop-opacity:1" />
</radialGradient>
<path style="fill:url(#RadialGradID_560) " d="M0,16.95L-27.55 3.2Q-7.55 -6.8 12.4 -16.85L40 -3L0 16.95" />
<path style="fill:#8D8D8D;fill-opacity:1" d="M-27.55,6.25L-27.55 3.2L0 16.95L40 -3L40 0.05L0 20L-27.05 6.5L-27.55 6.25" />
<path style="fill:none;stroke-width:1;stroke-linecap:round;stroke-linejoin:round;stroke-miterlimit:3;stroke:#666666;stroke-opacity:1" d="M0,16.95L40 -3L12.4 -16.85M40,-3L40 0.05L0 20M-27.05,6.5L-27.55 6.25M-27.05,6.5L-27.55 6.25" />
<path style="fill:none;stroke-width:1;stroke-linecap:round;stroke-linejoin:round;stroke-miterlimit:3;stroke:#BBBBBB;stroke-opacity:1" d="M12.4,-16.85Q-7.55 -6.8 -27.55 3.2" />
<path style="fill:none;stroke-width:1;stroke-linecap:round;stroke-linejoin:round;stroke-miterlimit:3;stroke:#919191;stroke-opacity:1" d="M-27.55,6.25L-27.55 3.2L0 16.95" />
<path style="fill:none;stroke-width:1;stroke-linecap:round;stroke-linejoin:round;stroke-miterlimit:3;stroke:#7B7566;stroke-opacity:1" d="M0,20L-27.05 6.5" />
<path style="fill:none;stroke-width:1;stroke-linecap:round;stroke-linejoin:round;stroke-miterlimit:3;stroke:#9DA2A5;stroke-opacity:1" d="M-20.4,5.45L-15.9 3.2L-20.4 0.95M15.6,-12.5L-15.9 3.2L4.4 13.3" />
</g>
</svg>
