<?xml version="1.0" encoding="utf-8"?>
<svg version="1.1" id="Layer_1"
xmlns="http://www.w3.org/2000/svg"
xmlns:xlink="http://www.w3.org/1999/xlink"
xmlns:author="http://www.sothink.com"
width="44px" height="71px"
xml:space="preserve">
<g id="766" transform="matrix(1, 0, 0, 1, 21.7, 71)">
<path style="fill:#FFFFFF;fill-opacity:1" d="M17.45,-56.95L18.55 -55.85L18.2 -55.45L18.3 -55.35Q20.4 -53.3 20.6 -50.8L20.65 -50.2Q20.65 -48.55 19.85 -47.1L19.6 -46.65L18.2 -44.95L18.3 -44.85L18 -44.55L14.75 -43.65L14.75 -38.95L11.5 -38.25L8.35 -37.35L9 -35.75L12.35 -37L15.35 -37.6Q16.9 -37.6 17.5 -37Q18.3 -36.2 18.3 -35Q18.3 -33.9 17.55 -33.15Q16.5 -32.1 13.45 -31.9L12.2 -31.85L12.55 -30.35L14.05 -30.4L14 -27.65L12.5 -26.4L12.5 -14.15L11.65 -9.55L10.1 -9.55L10.1 -3Q10.1 -2.3 9.65 -1.85Q9.1 -1.3 8.05 -1.3Q6.95 -1.3 6.4 -1.85Q6 -2.3 6 -3L6 -9.55L4.45 -9.55L3.55 -10.85Q4.05 -11.75 4.05 -13.1L4.05 -13.35Q4 -15.05 3.15 -15.9Q2.35 -16.7 1.1 -16.7L-5.5 -16.7L-5.5 -15.15L1.05 -15.15Q1.75 -15.15 2.2 -14.75Q2.7 -14.25 2.75 -13.2L2.6 -12.3L2.65 -12.3L2.6 -12.05L2.2 -11.5Q1.75 -11.05 1.05 -11.05L-5.5 -11.05L-5.5 -9.55L-7.3 -9.5L-7.3 -9.55L-8.85 -9.55L-10.55 -10.65L-12.3 -14.55L-12.3 -18.45L-11.85 -18.85L-11.65 -19L-10.5 -20.4L-11.75 -21.4L-12.45 -20.45L-12.05 -31.4L-10.3 -44.2L-9.9 -43.85L-9.15 -44.55L-10.15 -45.65Q-11.6 -47.5 -11.65 -49.65L-11.65 -49.9L-11.6 -50.8Q-11.25 -53.1 -9.15 -55.05L-9.9 -55.8L-9.4 -59.75L-8.75 -59.45L-4.9 -68.05L-1.05 -59.45L0.2 -60L4.1 -60L5.3 -59.45L9.15 -68.05L13.05 -59.45L14.3 -60L17.45 -56.95M13.9,-55.85L13.95 -55.85L13.95 -55.8Q14 -55.35 14.4 -54.9Q14.8 -54.5 15.4 -54.5L15.8 -54.55Q16.15 -54.65 16.45 -54.9L16.85 -55.8L16.85 -55.85L16.9 -55.85L16.9 -56L16.9 -56.05L16.9 -56.2L16.7 -56.75L16.45 -57.05L16 -57.35L15.6 -57.5L15.4 -57.5L15.35 -57.5L15.15 -57.45L14.75 -57.35L14.4 -57.05L14.15 -56.75L13.9 -56.2L13.9 -56.15L13.9 -56.05L13.9 -55.95L13.9 -55.85M14.75,-56.05L14.7 -56.05L14.7 -56.15L14.9 -56.5L15 -56.6L15.15 -56.7L15.4 -56.7L15.45 -56.7L15.7 -56.65L15.85 -56.6L15.95 -56.55L15.95 -56.5L16.05 -56.35L16.15 -56.15L16.15 -56.05L16.15 -55.95L16.1 -55.75L15.95 -55.45L15.9 -55.45L15.8 -55.35L15.75 -55.3L15.6 -55.3L15.4 -55.25L15.15 -55.3L14.95 -55.35L14.95 -55.4L14.9 -55.45L14.85 -55.5L14.75 -55.7L14.75 -55.75L14.7 -55.9L14.7 -55.95L14.75 -56.05M2.05,-39L-1.95 -38.25L-5.05 -37.35L-4.4 -35.75L-1.1 -37Q0.6 -37.6 1.9 -37.6Q3.45 -37.6 4.05 -37Q4.85 -36.2 4.85 -35Q4.85 -33.9 4.1 -33.15Q3.05 -32.1 0.05 -31.9L-1.25 -31.85L-0.9 -30.35Q3.05 -30.4 5 -31.9L5.4 -32.25Q6.4 -33.25 6.4 -35.1Q6.4 -36.9 5.3 -37.95Q4.25 -39 2.05 -39M-3.05,-55.8L-3.05 -55.7L-3 -55.7L-3 -55.6L-2.55 -54.9L-2.3 -54.7L-1.5 -54.5L-1.1 -54.55L-0.5 -54.9L-0.05 -55.75L-0.05 -55.8L-0.05 -55.95L-0.05 -56L-0.05 -56.15L-0.25 -56.75L-0.5 -57.05L-0.95 -57.35L-1.1 -57.4L-1.5 -57.45L-1.7 -57.45L-1.75 -57.45L-2.15 -57.3L-2.3 -57.2Q-2.45 -57.15 -2.55 -57.05L-2.8 -56.75L-2.85 -56.65L-3 -56.3L-3.05 -56.2L-3.05 -56.15L-3.05 -56L-3.05 -55.95L-3.05 -55.8M-2.2,-56L-2.25 -56L-2.25 -56.05L-2.25 -56.1L-2.2 -56.2L-2.05 -56.5L-1.95 -56.55L-1.8 -56.65L-1.5 -56.7L-1.25 -56.65L-1.2 -56.65L-1.15 -56.6L-1.1 -56.6L-1 -56.5L-0.95 -56.5L-0.85 -56.35L-0.8 -56.15L-0.8 -56L-0.8 -55.95L-0.8 -55.85L-0.85 -55.75L-0.95 -55.45L-1.2 -55.3L-1.3 -55.25L-1.5 -55.25L-1.8 -55.3L-2 -55.4L-2.05 -55.45L-2.1 -55.45L-2.2 -55.7L-2.25 -55.8L-2.25 -55.85L-2.25 -55.9L-2.2 -56" />
<path style="fill:#333333;fill-opacity:1" d="M9.15,-71L14.3 -60L13.05 -59.45L9.15 -68.05L5.3 -59.45L4.1 -60L9.15 -71M-9.95,-60L-4.9 -71L0.2 -60L-1.05 -59.45L-4.9 -68.05L-8.75 -59.45L-9.4 -59.75L-9.95 -60M-10.9,-44.9L-11.65 -45.95Q-12.75 -47.7 -12.7 -49.8L-12.65 -50.8Q-12.45 -52.3 -11.65 -53.65L-9.9 -55.8L-9.15 -55.05Q-11.25 -53.1 -11.6 -50.8L-11.65 -49.9L-11.65 -49.65Q-11.6 -47.5 -10.15 -45.65L-9.15 -44.55L-9.9 -43.85L-10.3 -44.2L-10.9 -44.9M-13.9,-18Q-14.85 -18 -16.55 -19.1Q-17.75 -19.75 -18.45 -19.75Q-19.35 -19.75 -19.75 -19.2L-19.9 -19L-20.35 -18.25L-21.7 -19Q-21.3 -19.95 -20.5 -20.65L-19.9 -21.1L-18.55 -21.45Q-17.45 -21.45 -16.3 -20.65Q-14.65 -19.8 -13.75 -19.8Q-13.15 -19.8 -12.45 -20.45L-11.75 -21.4L-10.5 -20.4L-11.65 -19L-11.85 -18.85L-12.3 -18.45Q-13 -18 -13.9 -18M3.5,-10.75L3.15 -10.35Q2.4 -9.55 1.2 -9.55L-3.2 -9.55L-5.2 -9.55L-5.5 -9.55L-5.5 -11.05L1.05 -11.05Q1.75 -11.05 2.2 -11.5L2.6 -12.05L2.65 -12.3L2.75 -13.1L2.75 -13.2Q2.7 -14.25 2.2 -14.75Q1.75 -15.15 1.05 -15.15L-5.5 -15.15L-5.5 -16.7L1.1 -16.7Q2.35 -16.7 3.15 -15.9Q4 -15.05 4.05 -13.35L4.05 -13.1Q4.05 -11.75 3.55 -10.85L3.5 -10.75M11.65,-2.95Q11.65 -1.7 10.85 -0.9Q9.9 0 8.05 0Q6.15 0 5.25 -0.9Q4.45 -1.7 4.45 -2.95L4.45 -9.55L6 -9.55L6 -3Q6 -2.3 6.4 -1.85Q6.95 -1.3 8.05 -1.3Q9.1 -1.3 9.65 -1.85Q10.1 -2.3 10.1 -3L10.1 -9.55L11.65 -9.55L11.65 -2.95M15.5,-39Q17.7 -39 18.75 -37.95Q19.85 -36.9 19.85 -35.1Q19.85 -33.25 18.85 -32.25L18.45 -31.9Q16.85 -30.7 14.05 -30.4L12.55 -30.35L12.2 -31.85L13.45 -31.9Q16.5 -32.1 17.55 -33.15Q18.3 -33.9 18.3 -35Q18.3 -36.2 17.5 -37Q16.9 -37.6 15.35 -37.6L12.35 -37L9 -35.75L8.35 -37.35L11.5 -38.25L14.75 -38.95L15.5 -39M18.6,-55.85L18.9 -56.2Q21.45 -53.85 21.65 -50.8L21.7 -50.2Q21.7 -48.3 20.8 -46.65Q20.1 -45.4 18.9 -44.25L18.3 -44.85L18.2 -44.95L19.6 -46.65L19.85 -47.1Q20.65 -48.55 20.65 -50.2L20.6 -50.8Q20.4 -53.3 18.3 -55.35L18.2 -55.45L18.55 -55.85L18.6 -55.85M16.85,-55.85L16.85 -55.8L16.45 -54.9Q16.15 -54.65 15.8 -54.55L15.4 -54.5Q14.8 -54.5 14.4 -54.9Q14 -55.35 13.95 -55.8L13.95 -55.85L13.9 -55.95L13.9 -56.05L13.9 -56.15L13.9 -56.2L14.15 -56.75L14.4 -57.05L14.75 -57.35L15.15 -57.45L15.35 -57.5L15.4 -57.5L15.6 -57.5L16 -57.35L16.45 -57.05L16.7 -56.75L16.9 -56.2L16.9 -56.05L16.9 -56L16.85 -55.85M14.7,-55.95L14.7 -55.9L14.75 -55.75L14.75 -55.7L14.85 -55.5L14.9 -55.45L14.95 -55.4L14.95 -55.35L15.15 -55.3L15.4 -55.25L15.6 -55.3L15.75 -55.3L15.8 -55.35L15.9 -55.45L15.95 -55.45L16.1 -55.75L16.15 -55.95L16.15 -56.05L16.15 -56.15L16.05 -56.35L15.95 -56.5L15.95 -56.55L15.85 -56.6L15.7 -56.65L15.45 -56.7L15.4 -56.7L15.15 -56.7L15 -56.6L14.9 -56.5L14.7 -56.15L14.7 -56.05L14.7 -55.95M5.3,-37.95Q6.4 -36.9 6.4 -35.1Q6.4 -33.25 5.4 -32.25L5 -31.9Q3.05 -30.4 -0.9 -30.35L-1.25 -31.85L0.05 -31.9Q3.05 -32.1 4.1 -33.15Q4.85 -33.9 4.85 -35Q4.85 -36.2 4.05 -37Q3.45 -37.6 1.9 -37.6Q0.6 -37.6 -1.1 -37L-4.4 -35.75L-5.05 -37.35L-1.95 -38.25L2.05 -39Q4.25 -39 5.3 -37.95M-0.05,-55.8L-0.05 -55.75L-0.5 -54.9L-1.1 -54.55L-1.5 -54.5L-2.3 -54.7L-2.55 -54.9L-3 -55.6L-3 -55.7L-3 -55.8L-3.05 -55.95L-3.05 -56L-3.05 -56.15L-3.05 -56.2L-3 -56.3L-2.85 -56.65L-2.8 -56.75L-2.55 -57.05Q-2.45 -57.15 -2.3 -57.2L-2.15 -57.3L-1.75 -57.45L-1.7 -57.45L-1.5 -57.45L-1.1 -57.4L-0.95 -57.35L-0.5 -57.05L-0.25 -56.75L-0.05 -56.15L-0.05 -56L-0.05 -55.95L-0.05 -55.8M-2.25,-55.9L-2.25 -55.85L-2.25 -55.8L-2.2 -55.7L-2.1 -55.45L-2.05 -55.45L-2 -55.4L-1.8 -55.3L-1.5 -55.25L-1.3 -55.25L-1.2 -55.3L-0.95 -55.45L-0.85 -55.75L-0.8 -55.85L-0.8 -55.95L-0.8 -56L-0.8 -56.15L-0.85 -56.35L-0.95 -56.5L-1 -56.5L-1.1 -56.6L-1.15 -56.6L-1.2 -56.65L-1.25 -56.65L-1.5 -56.7L-1.8 -56.65L-1.95 -56.55L-2.05 -56.5L-2.2 -56.2L-2.25 -56.1L-2.25 -56.05L-2.25 -56L-2.25 -55.9" />
<path style="fill:#FF0000;fill-opacity:1" d="M18.6,-55.85L18.55 -55.85L17.45 -56.95L18.6 -55.85" />
<path style="fill:none;stroke-width:1;stroke-linecap:round;stroke-linejoin:round;stroke-miterlimit:3;stroke:#333333;stroke-opacity:1" d="M4.1,-60L0.2 -60M12.5,-14.15L12.5 -26.4M18.55,-55.85L17.45 -56.95" />
</g>
</svg>
