<?xml version="1.0" encoding="utf-8"?>
<svg version="1.1" id="Layer_1"
xmlns="http://www.w3.org/2000/svg"
xmlns:xlink="http://www.w3.org/1999/xlink"
xmlns:author="http://www.sothink.com"
width="67px" height="65px"
xml:space="preserve">
<g id="289" transform="matrix(1, 0, 0, 1, 31.3, 48.3)">
<path style="fill:#614B49;fill-opacity:1" d="M35.1,-0.9L35.1 -0.85L35.1 -0.65L35.15 0.7L35.2 0.85L34.55 1.3L33 1.5L31.4 1.3L31.25 1.25L30.75 0.85L30.85 0.7L30.85 -0.85L30.85 -1.25L30.9 -2.8L30.9 -3.3L31.35 -3.1L31.4 -3.1L32.95 -2.9L34.4 -3.05L34.5 -3.1L35.05 -3.35L35.1 -1.2L35.1 -0.9M-2.75,11.2L-2.25 11.4L-0.7 11.65L0.9 11.4L1.4 11.2L1.5 15.2L1.6 15.4L0.95 15.8L-0.65 16.05L-2.2 15.8L-2.85 15.4L-2.8 15.2L-2.8 15.05L-2.75 11.2M-26.4,1.65L-26.35 2.3L-26.3 2.5L-26.95 2.9L-28.5 3.15L-28.7 3.15L-30.1 2.9Q-30.75 2.7 -30.75 2.5L-30.65 2.3L-30.6 -1.7L-30.15 -1.5L-28.55 -1.3L-27 -1.5L-26.45 -1.75L-26.4 1.65" />
<path style="fill:#DAD1CB;fill-opacity:1" d="M-2.1,-12.95L-2.25 -7.9L-2.25 -7.75L-5.25 -9.15L-17.3 -14.65L-20.25 -16L-26.35 -18.8L-27.1 -19L-27.1 -24.4L-2.1 -12.95" />
<path style="fill:#A38C7E;fill-opacity:1" d="M26.85,-25.9L31.4 -28.2L31.4 -24.1L31.4 -23.2L18.75 -16.85L15.6 -15.3L15.65 -15.3L15.2 -15.05L14.45 -14.65L14.4 -14.65L13.55 -14.2L12.35 -13.6L12.3 -13.65L9.95 -12.45L7.8 -11.4L6 -10.5L6 -10.55L1.7 -8.4L0.7 -8.1L0.65 -12.9L9.15 -17.15L9.15 -17.1L26.85 -25.9" />
<linearGradient
id="LinearGradID_1074" gradientUnits="userSpaceOnUse" gradientTransform="matrix(0.000534058, -0.00115967, 0.00637817, 0.00291443, 21.25, -14.3)" spreadMethod ="pad" x1="-819.2" y1="0" x2="819.2" y2="0" >
<stop  offset="0" style="stop-color:#BFB1A2;stop-opacity:1" />
<stop  offset="0.498039" style="stop-color:#E4E1DE;stop-opacity:1" />
<stop  offset="0.988235" style="stop-color:#C7BBAD;stop-opacity:1" />
</linearGradient>
<path style="fill:url(#LinearGradID_1074) " d="M18.75,-16.85L25.75 -13.65L25.75 -10.65L15.65 -15.3L15.6 -15.3L18.75 -16.85" />
<linearGradient
id="LinearGradID_1075" gradientUnits="userSpaceOnUse" gradientTransform="matrix(0.000701904, 0.0012207, -0.00338745, 0.00193787, -22.2, -12.75)" spreadMethod ="pad" x1="-819.2" y1="0" x2="819.2" y2="0" >
<stop  offset="0" style="stop-color:#BFB1A2;stop-opacity:1" />
<stop  offset="0.498039" style="stop-color:#E4E1DE;stop-opacity:1" />
<stop  offset="0.988235" style="stop-color:#C7BBAD;stop-opacity:1" />
</linearGradient>
<path style="fill:url(#LinearGradID_1075) " d="M-27.1,-9.65L-27.1 -12.4L-20.25 -16L-17.3 -14.65L-27.1 -9.65" />
<path style="fill:#666666;fill-opacity:0.501961" d="M35.1,-0.85L35.3 -0.75L35.1 -0.65L35.1 -0.85M-2.4,10.55L-2.25 10.5L-2.4 10.55" />
<radialGradient
id="RadialGradID_1076" gradientUnits="userSpaceOnUse" gradientTransform="matrix(-0.019516, 0.0421906, -0.0389557, -0.0180054, -2.1, -30.45)" spreadMethod ="pad" cx="0" cy="0" r="819.2" fx="0" fy="0" >
<stop  offset="0"  style="stop-color:#9A6030;stop-opacity:1" />
<stop  offset="0.498039"  style="stop-color:#D39C78;stop-opacity:1" />
<stop  offset="0.988235"  style="stop-color:#9D6333;stop-opacity:1" />
</radialGradient>
<path style="fill:url(#RadialGradID_1076) " d="M5,-47.8L-19.3 -35.5L-19.8 -35.25L-20.75 -35.25L-24.1 -33.55L-24.15 -33.55L5 -48.3L34.85 -34.5L34.9 -34.45L34.85 -34.45L34.85 -34L5 -47.8" />
<radialGradient
id="RadialGradID_1077" gradientUnits="userSpaceOnUse" gradientTransform="matrix(0.0264282, 0.028717, -0.0391388, 0.0360107, -0.4, -30.8)" spreadMethod ="pad" cx="0" cy="0" r="819.2" fx="0" fy="0" >
<stop  offset="0"  style="stop-color:#9A6030;stop-opacity:1" />
<stop  offset="0.498039"  style="stop-color:#D39C78;stop-opacity:1" />
<stop  offset="0.988235"  style="stop-color:#9D6333;stop-opacity:1" />
</radialGradient>
<path style="fill:url(#RadialGradID_1077) " d="M-0.6,-12.25L-0.6 -16.25L-30.3 -29.85L-20.45 -34.9L-19.8 -35.25L-19.3 -35.5L5 -47.8L34.85 -34L35 -30.45L35.05 -30L34.65 -29.8L34.2 -29.6L31.4 -28.2L26.85 -25.9L9.15 -17.1L9.15 -17.15L0.65 -12.9L-0.6 -12.25" />
<radialGradient
id="RadialGradID_1078" gradientUnits="userSpaceOnUse" gradientTransform="matrix(0.0104675, 0.0311279, -0.0243988, 0.00819397, -11.65, -20.2)" spreadMethod ="pad" cx="0" cy="0" r="819.2" fx="0" fy="0" >
<stop  offset="0"  style="stop-color:#9A6030;stop-opacity:1" />
<stop  offset="0.498039"  style="stop-color:#D39C78;stop-opacity:1" />
<stop  offset="0.988235"  style="stop-color:#9D6333;stop-opacity:1" />
</radialGradient>
<path style="fill:url(#RadialGradID_1078) " d="M-2.1,-12.95L-27.1 -24.4L-30 -25.75L-30.6 -26L-30.45 -29.9L-30.3 -29.85L-0.6 -16.25L-0.6 -12.25L-2.1 -12.95" />
<radialGradient
id="RadialGradID_1079" gradientUnits="userSpaceOnUse" gradientTransform="matrix(-0.019516, 0.0421906, -0.0389557, -0.0180054, 1.3, -32.15)" spreadMethod ="pad" cx="0" cy="0" r="819.2" fx="0" fy="0" >
<stop  offset="0"  style="stop-color:#9A6030;stop-opacity:1" />
<stop  offset="0.498039"  style="stop-color:#D39C78;stop-opacity:1" />
<stop  offset="0.988235"  style="stop-color:#9D6333;stop-opacity:1" />
</radialGradient>
<path style="fill:url(#RadialGradID_1079) " d="M-30.45,-29.9L-30.4 -30.45L-30.3 -30.4L-24.1 -33.55L-20.75 -35.25L-19.8 -35.25L-20.45 -34.9L-30.3 -29.85L-30.45 -29.9" />
<linearGradient
id="LinearGradID_1080" gradientUnits="userSpaceOnUse" gradientTransform="matrix(0.00109863, 0, 0, 0.024704, -28.75, -7.25)" spreadMethod ="pad" x1="-819.2" y1="0" x2="819.2" y2="0" >
<stop  offset="0" style="stop-color:#BFB1A2;stop-opacity:1" />
<stop  offset="0.498039" style="stop-color:#E4E1DE;stop-opacity:1" />
<stop  offset="0.988235" style="stop-color:#C7BBAD;stop-opacity:1" />
</linearGradient>
<path style="fill:url(#LinearGradID_1080) " d="M-30.1,-9.35L-30 -25.75L-27.1 -24.4L-27.1 -19L-27.1 -12.4L-27.1 -9.65L-27.1 -9.35L-30.1 -9.35" />
<linearGradient
id="LinearGradID_1081" gradientUnits="userSpaceOnUse" gradientTransform="matrix(0.00109863, 0, 0, 0.024704, -28.75, -15)" spreadMethod ="pad" x1="-819.2" y1="0" x2="819.2" y2="0" >
<stop  offset="0" style="stop-color:#BFB1A2;stop-opacity:1" />
<stop  offset="0.498039" style="stop-color:#E4E1DE;stop-opacity:1" />
<stop  offset="0.988235" style="stop-color:#C7BBAD;stop-opacity:1" />
</linearGradient>
<path style="fill:url(#LinearGradID_1081) " d="M-30.1,-2.4L-30.1 -9.1L-27.1 -9.1L-27.1 -8.4L-27.1 -8.15L-27.1 -7.6L-27.1 -7.4L-17.4 -2.95L-2.25 4.05L-2.25 7.05L-20.55 -1.35L-27.1 -4.35L-27.1 -2.45L-27.05 -2.4L-27 -2.4L-26.4 -2.1L-26.35 -1.95L-26.45 -1.75L-27 -1.5L-28.55 -1.3L-30.15 -1.5L-30.6 -1.7L-30.8 -1.95L-30.7 -2.1L-30.65 -2.15L-30.25 -2.35L-30.1 -2.4" />
<linearGradient
id="LinearGradID_1082" gradientUnits="userSpaceOnUse" gradientTransform="matrix(0.00109863, 0, 0, 0.024704, -28.75, -8.45)" spreadMethod ="pad" x1="-819.2" y1="0" x2="819.2" y2="0" >
<stop  offset="0" style="stop-color:#BFB1A2;stop-opacity:1" />
<stop  offset="0.498039" style="stop-color:#E4E1DE;stop-opacity:1" />
<stop  offset="0.988235" style="stop-color:#C7BBAD;stop-opacity:1" />
</linearGradient>
<path style="fill:url(#LinearGradID_1082) " d="M-27.1,-9.15L-27.1 -9.1L-30.1 -9.1L-30.1 -9.35L-27.1 -9.35L-27.1 -9.15" />
<linearGradient
id="LinearGradID_1083" gradientUnits="userSpaceOnUse" gradientTransform="matrix(0.00164795, 0, 0, 0.0196991, -0.7, 3.2)" spreadMethod ="pad" x1="-819.2" y1="0" x2="819.2" y2="0" >
<stop  offset="0" style="stop-color:#BFB1A2;stop-opacity:1" />
<stop  offset="0.498039" style="stop-color:#E4E1DE;stop-opacity:1" />
<stop  offset="0.988235" style="stop-color:#C7BBAD;stop-opacity:1" />
</linearGradient>
<path style="fill:url(#LinearGradID_1083) " d="M-2.25,-7.9L-2.1 -12.95L-0.6 -12.25L0.65 -12.9L0.7 -8.1L0.7 -7.9L-2.25 -7.9" />
<linearGradient
id="LinearGradID_1084" gradientUnits="userSpaceOnUse" gradientTransform="matrix(0.00164795, 0, 0, 0.0196991, -0.7, -3.3)" spreadMethod ="pad" x1="-819.2" y1="0" x2="819.2" y2="0" >
<stop  offset="0" style="stop-color:#BFB1A2;stop-opacity:1" />
<stop  offset="0.498039" style="stop-color:#E4E1DE;stop-opacity:1" />
<stop  offset="0.988235" style="stop-color:#C7BBAD;stop-opacity:1" />
</linearGradient>
<path style="fill:url(#LinearGradID_1084) " d="M0.7,-7.9L0.7 -5.35L-2.25 -5.35L-2.25 -7.75L-2.25 -7.9L0.7 -7.9" />
<linearGradient
id="LinearGradID_1085" gradientUnits="userSpaceOnUse" gradientTransform="matrix(0.0010376, 0, 0, 0.0197906, 32.95, -13.35)" spreadMethod ="pad" x1="-819.2" y1="0" x2="819.2" y2="0" >
<stop  offset="0" style="stop-color:#BFB1A2;stop-opacity:1" />
<stop  offset="0.498039" style="stop-color:#E4E1DE;stop-opacity:1" />
<stop  offset="0.988235" style="stop-color:#C7BBAD;stop-opacity:1" />
</linearGradient>
<path style="fill:url(#LinearGradID_1085) " d="M31.4,-24.1L31.4 -28.2L34.2 -29.6L34.2 -28.5L34.25 -18.75L31.4 -18.75L31.4 -23.2L31.4 -24.1" />
<linearGradient
id="LinearGradID_1086" gradientUnits="userSpaceOnUse" gradientTransform="matrix(0.0010376, 0, 0, 0.0197906, 32.95, -16.6)" spreadMethod ="pad" x1="-819.2" y1="0" x2="819.2" y2="0" >
<stop  offset="0" style="stop-color:#BFB1A2;stop-opacity:1" />
<stop  offset="0.498039" style="stop-color:#E4E1DE;stop-opacity:1" />
<stop  offset="0.988235" style="stop-color:#C7BBAD;stop-opacity:1" />
</linearGradient>
<path style="fill:url(#LinearGradID_1086) " d="M34.4,-3.05L32.95 -2.9L31.4 -3.1L31.4 -4L31.4 -4.5L34.4 -4.5L34.4 -4.05L34.4 -3.05M35.1,-1.2L35.15 -1.05L35.1 -0.9L35.1 -1.2M30.85,-1.25L30.85 -0.85L30.7 -1.05L30.8 -1.2L30.85 -1.25" />
<linearGradient
id="LinearGradID_1087" gradientUnits="userSpaceOnUse" gradientTransform="matrix(0.00164795, 0, 0, 0.0196991, -0.7, -4.5)" spreadMethod ="pad" x1="-819.2" y1="0" x2="819.2" y2="0" >
<stop  offset="0" style="stop-color:#BFB1A2;stop-opacity:1" />
<stop  offset="0.498039" style="stop-color:#E4E1DE;stop-opacity:1" />
<stop  offset="0.988235" style="stop-color:#C7BBAD;stop-opacity:1" />
</linearGradient>
<path style="fill:url(#LinearGradID_1087) " d="M-2.25,-5.35L0.7 -5.35L0.75 10.5L0.85 10.5L0.9 10.5L1.45 10.8L1.55 11L1.4 11.2L0.9 11.4L-0.7 11.65L-2.25 11.4L-2.75 11.2L-2.9 11L-2.85 10.8L-2.8 10.8L-2.4 10.55L-2.25 10.5L-2.25 7.05L-2.25 4.05L-2.25 -5.35" />
<path style="fill:#848484;fill-opacity:0.4" d="M30.85,-1.25L30.8 -1.2L30.7 -1.05L30.85 -0.85L30.85 0.7L30.75 0.85L31.25 1.25L0.15 16.4L-0.65 16.05L0.95 15.8L1.6 15.4L1.5 15.2L1.4 11.2L1.55 11L1.45 10.8L0.9 10.5L0.85 10.5L0.75 10.5L0.7 -5.35L0.7 -7.9L0.7 -8.1L1.7 -8.4L6 -10.55L6 -10.5L7.8 -11.4L9.95 -12.45L25.75 -5.15L25.75 -4.5L27.25 -4.5L30.9 -2.8L30.85 -1.25M-20.55,-1.35L-2.25 7.05L-2.25 10.5L-2.4 10.55L-2.8 10.8L-2.85 10.8L-2.9 11L-2.75 11.2L-2.8 15.05L-28.7 3.15L-28.5 3.15L-26.95 2.9L-26.3 2.5L-26.35 2.3L-26.4 1.65L-20.55 -1.35M-2.25,4.05L-17.4 -2.95L-5.25 -9.15L-2.25 -7.75L-2.25 -5.35L-2.25 4.05" />
<path style="fill:none;stroke-width:1;stroke-linecap:round;stroke-linejoin:round;stroke-miterlimit:3;stroke:#000000;stroke-opacity:1" d="M-2.1,-12.95L-0.6 -12.25L-0.6 -16.25L-30.3 -29.85L-20.45 -34.9L-19.3 -35.5L5 -47.8L34.85 -34L35 -30.45L35.05 -30L34.65 -29.8L34.2 -29.6L34.2 -28.5L34.25 -18.75M31.4,-18.75L31.4 -23.2L18.75 -16.85L25.75 -13.65M25.75,-10.65L15.65 -15.3L15.2 -15.05L14.45 -14.65L13.55 -14.2L12.35 -13.6L12.3 -13.65L9.95 -12.45M30.85,-1.25L30.9 -2.8L30.9 -3.3L30.7 -3.55L30.8 -3.7L30.85 -3.75L31.25 -3.95L31.35 -4L31.4 -4L31.4 -4.5M34.4,-4.5L34.4 -4.05L34.45 -4L34.5 -4L35.1 -3.7L35.15 -3.55L35.05 -3.35L35.1 -1.2M35.1,-0.9L35.1 -0.85M35.1,-0.65L35.15 0.7L35.2 0.85L34.55 1.3L33 1.5L31.4 1.3L31.25 1.25M0.7,-8.1L0.7 -7.9L0.7 -5.35L0.75 10.5L0.85 10.5L0.9 10.5L1.45 10.8L1.55 11L1.4 11.2L1.5 15.2L1.6 15.4L0.95 15.8L-0.65 16.05L-2.2 15.8L-2.85 15.4L-2.8 15.2L-2.8 15.05M-28.7,3.15L-30.1 2.9Q-30.75 2.7 -30.75 2.5L-30.65 2.3L-30.6 -1.7L-30.8 -1.95L-30.7 -2.1L-30.65 -2.15L-30.25 -2.35L-30.15 -2.4L-30.1 -2.4L-30.1 -9.1L-30.1 -9.35L-30 -25.75L-30.6 -26L-30.45 -29.9M34.65,-29.8L35 -30.45M31.4,-28.2L26.85 -25.9Q28.65 -25.1 30.5 -24.25L31.4 -24.1L31.4 -28.2L34.2 -29.6M13.55,-14.2L14.4 -14.65L14.45 -14.65M15.65,-15.3L15.6 -15.3L15.2 -15.05M15.6,-15.3L18.75 -16.85M9.15,-17.15L0.65 -12.9L0.7 -8.1L1.7 -8.4L6 -10.55L7.8 -11.4L9.95 -12.45M6,-10.5L7.8 -11.4M31.4,-23.2L31.4 -24.1M31.4,-3.1L32.95 -2.9L34.4 -3.05L34.5 -3.1L35.05 -3.35M31.25,-3.95L31.4 -4M31.4,-3.1L31.35 -3.1L30.9 -3.3M30.85,-1.25L30.85 -0.85L30.85 0.7L30.75 0.85L31.25 1.25M35.1,-0.65L35.1 -0.85M35.1,-0.9L35.1 -1.2M26.85,-25.9L9.15 -17.1M1.4,11.2L0.9 11.4L-0.7 11.65L-2.25 11.4L-2.75 11.2L-2.8 15.05M-30.3,-29.85L-30.45 -29.9M-20.25,-16L-27.1 -12.4L-27.1 -19L-27.1 -24.4L-30 -25.75M-27.1,-19L-26.35 -18.8L-20.25 -16L-17.3 -14.65L-5.25 -9.15L-2.25 -7.75L-2.25 -7.9L-2.1 -12.95L-27.1 -24.4M-27.1,-12.4L-27.1 -9.65L-17.3 -14.65M-27.1,-9.35L-27.1 -9.65M-27.1,-7.6L-27.1 -8.15M-27.1,-8.4L-27.1 -9.1M-27.1,-9.15L-27.1 -9.1M-30.6,-1.7L-30.15 -1.5L-28.55 -1.3L-27 -1.5L-26.45 -1.75L-26.35 -1.95L-26.4 -2.1L-27 -2.4L-27.05 -2.4L-27.1 -2.45L-27.1 -4.35L-20.55 -1.35L-2.25 7.05L-2.25 4.05L-17.4 -2.95L-27.1 -7.4M-30.1,-2.4L-30.25 -2.35M-2.25,-7.75L-2.25 -5.35L-2.25 4.05M-0.6,-12.25L0.65 -12.9M-2.75,11.2L-2.9 11L-2.85 10.8L-2.8 10.8L-2.4 10.55L-2.25 10.5L-2.25 7.05M-2.4,10.55L-2.25 10.5M-28.7,3.15L-28.5 3.15L-26.95 2.9L-26.3 2.5L-26.35 2.3L-26.4 1.65L-26.45 -1.75M34.85,-34L-0.1 -16.5" />
<linearGradient
id="LinearGradID_1088" gradientUnits="userSpaceOnUse" gradientTransform="matrix(0.0010376, 0, 0, 0.0197906, 32.95, -13.35)" spreadMethod ="pad" x1="-819.2" y1="0" x2="819.2" y2="0" >
<stop  offset="0" style="stop-color:#BFB1A2;stop-opacity:1" />
<stop  offset="0.498039" style="stop-color:#E4E1DE;stop-opacity:1" />
<stop  offset="0.988235" style="stop-color:#C7BBAD;stop-opacity:1" />
</linearGradient>
<path style="fill:url(#LinearGradID_1088) " d="M31.4,-16.15L31.4 -18.75L34.25 -18.75L34.3 -16.15L31.4 -16.15" />
<linearGradient
id="LinearGradID_1089" gradientUnits="userSpaceOnUse" gradientTransform="matrix(0.0010376, 0, 0, 0.0197906, 32.95, -16.6)" spreadMethod ="pad" x1="-819.2" y1="0" x2="819.2" y2="0" >
<stop  offset="0" style="stop-color:#BFB1A2;stop-opacity:1" />
<stop  offset="0.498039" style="stop-color:#E4E1DE;stop-opacity:1" />
<stop  offset="0.988235" style="stop-color:#C7BBAD;stop-opacity:1" />
</linearGradient>
<path style="fill:url(#LinearGradID_1089) " d="M31.4,-11.1L31.4 -15.2L34.3 -15.2L34.4 -4.5L31.4 -4.5L31.4 -8.1L31.4 -11.1" />
<linearGradient
id="LinearGradID_1090" gradientUnits="userSpaceOnUse" gradientTransform="matrix(0.0010376, 0, 0, 0.0197906, 32.95, -15.4)" spreadMethod ="pad" x1="-819.2" y1="0" x2="819.2" y2="0" >
<stop  offset="0" style="stop-color:#BFB1A2;stop-opacity:1" />
<stop  offset="0.498039" style="stop-color:#E4E1DE;stop-opacity:1" />
<stop  offset="0.988235" style="stop-color:#C7BBAD;stop-opacity:1" />
</linearGradient>
<path style="fill:url(#LinearGradID_1090) " d="M31.4,-15.2L31.4 -16.15L34.3 -16.15L34.3 -15.2L31.4 -15.2" />
<path style="fill:#848484;fill-opacity:0.4" d="M25.75,-5.15L27.25 -4.5L25.75 -4.5L25.75 -5.15" />
<linearGradient
id="LinearGradID_1091" gradientUnits="userSpaceOnUse" gradientTransform="matrix(0.000534058, -0.00115967, 0.00637817, 0.00291443, 21.25, -14.3)" spreadMethod ="pad" x1="-819.2" y1="0" x2="819.2" y2="0" >
<stop  offset="0" style="stop-color:#BFB1A2;stop-opacity:1" />
<stop  offset="0.498039" style="stop-color:#E4E1DE;stop-opacity:1" />
<stop  offset="0.988235" style="stop-color:#C7BBAD;stop-opacity:1" />
</linearGradient>
<path style="fill:url(#LinearGradID_1091) " d="M31.4,-8.1L25.75 -10.65L25.75 -13.65L31.4 -11.1L31.4 -8.1" />
<path style="fill:none;stroke-width:1;stroke-linecap:round;stroke-linejoin:round;stroke-miterlimit:3;stroke:#000000;stroke-opacity:1" d="M25.75,-13.65L31.4 -11.1L31.4 -15.2L31.4 -16.15L31.4 -18.75M34.25,-18.75L34.3 -16.15L34.3 -15.2L34.4 -4.5M31.4,-4.5L31.4 -8.1L25.75 -10.65" />
</g>
</svg>
