<?xml version="1.0" encoding="utf-8"?>
<svg version="1.1" id="Layer_1"
xmlns="http://www.w3.org/2000/svg"
xmlns:xlink="http://www.w3.org/1999/xlink"
xmlns:author="http://www.sothink.com"
width="21px" height="10px"
xml:space="preserve">
<g id="740" transform="matrix(1, 0, 0, 1, 19.65, 41.3)">
<path style="fill:#FFFFFF;fill-opacity:0.101961" d="M-10.75,-33.1Q-10.15 -32.8 -9.95 -32.15L-11.55 -32.35L-13.7 -32.65L-12.9 -32.75L-12.7 -32.7L-12.55 -33Q-14.3 -33.2 -14.9 -34.15L-15.2 -35Q-16.9 -35.2 -17 -36.95Q-17 -38.95 -14.85 -38.95Q-13.75 -39 -13.2 -38.4L-12.25 -38.35Q-9.25 -37.85 -9.25 -35.05Q-9.25 -33.45 -10.75 -33.1M-5.65,-32.15L-5.05 -31.75L-8.4 -32Q-8.35 -33 -7 -33.2Q-5.65 -33.35 -5.65 -32.15M-0.25,-31.75L0.85 -31.5L-1.2 -31.55L-0.25 -31.75M-19.65,-40.3Q-19.65 -41.45 -18.5 -41.25Q-17.4 -41.05 -17.4 -39.9Q-17.4 -38.75 -18.4 -38.75Q-19.4 -38.75 -19.65 -40.3" />
</g>
</svg>
