<?xml version="1.0" encoding="utf-8"?>
<svg version="1.1" id="Layer_1"
xmlns="http://www.w3.org/2000/svg"
xmlns:xlink="http://www.w3.org/1999/xlink"
xmlns:author="http://www.sothink.com"
width="44px" height="25px"
xml:space="preserve">
<g id="560" transform="matrix(1, 0, 0, 1, -16.9, -3.75)">
<path style="fill:#FFFFFF;fill-opacity:0.0509804" d="M41.85,11.75Q40.95 15.45 37.95 17.9L34.65 19.85Q32.95 20.5 31.3 21.25Q29.2 22.25 26.9 22.35L26.65 22.4Q26.15 23.25 24.95 23.15L24.25 23.2Q22.7 23.6 22.55 22.3L22.55 22.15L22.15 22.1L22.05 22.15Q20.55 23.25 18.8 21.95Q18.4 21.65 17.85 21.45Q16.35 20.9 17.25 19.65Q17.6 19.2 18.1 19.15L20.25 19.6L21.6 19.45L22.8 19.35Q26.5 18.15 30.25 17.1Q36.65 15.35 37.3 8.75L37.75 4.4Q37.85 3.85 38.4 3.8L38.6 3.75Q40.75 4.95 41.45 6.8Q42.35 7.1 42.3 8.25Q42.3 10.05 41.85 11.75M50.4,11.35Q51.75 11.8 52.05 13.2L52 13.95Q51.55 15.3 50.5 14.6Q49.4 16.45 47.75 17.95L46.4 19.15Q46.2 20.1 45.2 20.65L42.9 22.1L37.95 25.05L36.25 26.4Q33.25 28.8 29.7 27.15Q27.15 25.95 28.1 23.75Q28.3 23.25 28.8 23.3L34.05 22.9Q36.25 22.3 37.9 20.65Q38.5 20.05 39.25 19.6Q42 18 43.95 15.6Q45.05 14.3 45.15 12.65Q45.3 10 47.6 9Q49.8 9.5 50.4 11.35M47.95,12L47.9 12.35L48 12.25L47.95 12M42.85,23.65Q44.6 22.7 46.65 22.65L47.25 22.25L47.35 22.15L49.1 20.45L52.6 16.4L54.05 14.7L54.4 13.9Q54.5 13.35 55.05 13.25L55.75 13.7L56.5 14.1L56.65 14.05Q57.15 14.05 57.3 14.45L57.65 14.75L58.15 15.05L58.25 15Q59.1 14.85 59.3 15.6L59.3 15.65Q60.7 15.25 60.4 16.5L59.8 17.35Q58.15 18.65 56.3 19.1L56.05 19.2Q54.4 20.5 52.5 21.25L52.45 21.25Q50.85 22.45 49 23.25Q48.15 23.6 48 23L47.9 23.05Q47.7 23.8 46.8 23.85L46.45 23.95L44.25 25.1Q43.6 25.4 43 25.8Q42.1 26.3 41.15 26.25L41 26.15Q39.55 28.1 37.2 28.7L36.7 28.7Q36 28.65 36.35 28.05Q36.6 27.75 36.95 27.65Q38.05 27.35 39 26.7L40.05 25.7Q40.95 24.55 42.25 23.95L42.85 23.65" />
<path style="fill:none;stroke-width:1;stroke-linecap:round;stroke-linejoin:round;stroke-miterlimit:3;stroke:#FAFAFA;stroke-opacity:1" d="M55.8,17.95L54.65 18.9" />
<path style="fill:none;stroke-width:1;stroke-linecap:round;stroke-linejoin:round;stroke-miterlimit:3;stroke:#FAFAFA;stroke-opacity:0.8" d="M55.8,17.95L58 16.1M41.6,7.9L41.6 8.3M40.65,25.55L40.65 25.85M35.1,18.55L36.9 17.45" />
<path style="fill:none;stroke-width:1;stroke-linecap:round;stroke-linejoin:round;stroke-miterlimit:3;stroke:#C4C4C4;stroke-opacity:0.152941" d="M52.05,13.55Q45.7 20.7 41.7 23.2Q37.65 25.65 32.3 27.5M42.35,8.7Q42.05 15.4 37.8 18.25Q33.6 21.1 25.2 22.75" />
<path style="fill:none;stroke-width:1;stroke-linecap:round;stroke-linejoin:round;stroke-miterlimit:3;stroke:#D8D8D8;stroke-opacity:0.152941" d="M47.1,12.7L47.95 12M49.95,12.5L50.35 12.7M55.45,16.75L55.8 17.95M48.5,15.95L51.6 12.65M29.8,24.85L29.8 25.35M36.8,24.75L40.15 22.85M33.25,19.5L26.8 21.45M41,11.85L40.15 14.2" />
</g>
</svg>
