<?xml version="1.0" encoding="utf-8"?>
<svg version="1.1" id="Layer_1"
xmlns="http://www.w3.org/2000/svg"
xmlns:xlink="http://www.w3.org/1999/xlink"
xmlns:author="http://www.sothink.com"
width="71px" height="16px"
xml:space="preserve">
<g id="714" transform="matrix(1, 0, 0, 1, 35.85, 25.2)">
<path style="fill:#378426;fill-opacity:1" d="M22.9,-22.5Q29.7 -28.3 34.65 -18.95L33.55 -18.55L33.4 -19.05L33.15 -19.25L28.75 -18.95L27.15 -19L25.5 -19.15L23.8 -19.9Q23.4 -19.85 23.2 -19.6Q23.4 -19 23.75 -18.55Q22.7 -19.9 22.9 -22.5M27.1,-17.2L27.6 -17.25L30.5 -17.6L27.1 -17.2" />
<path style="fill:#2B5E1C;fill-opacity:1" d="M30.5,-17.6L27.6 -17.25L27.1 -17.2L23.75 -18.55Q23.4 -19 23.2 -19.6Q23.4 -19.85 23.8 -19.9L25.5 -19.15L27.15 -19L28.75 -18.95L33.15 -19.25L33.4 -19.05L33.55 -18.55L30.5 -17.6" />
<path style="fill:none;stroke-width:1;stroke-linecap:round;stroke-linejoin:round;stroke-miterlimit:3;stroke:#265218;stroke-opacity:1" d="M30.5,-17.6L33.55 -18.55L34.65 -18.95Q29.7 -28.3 22.9 -22.5Q22.7 -19.9 23.75 -18.55L27.1 -17.2M30.5,-17.6L27.1 -17.2" />
<path style="fill:#378426;fill-opacity:1" d="M-25.15,-14.4L-26.55 -13.25Q-27.3 -12.75 -28.15 -12.65L-29.65 -12.2Q-31.95 -12.2 -34 -11.35L-34.2 -11.1L-34.2 -10.55L-35.35 -10.7Q-33 -21 -24.9 -17.15Q-24.35 -15.5 -24.45 -14.25L-25.15 -14.4M-27.6,-10.95L-31 -10.45L-28.1 -10.85L-27.6 -10.95" />
<path style="fill:#2B5E1C;fill-opacity:1" d="M-28.1,-10.85L-31 -10.45L-34.2 -10.55L-34.2 -11.1L-34 -11.35Q-31.95 -12.2 -29.65 -12.2L-28.15 -12.65Q-27.3 -12.75 -26.55 -13.25L-25.15 -14.4L-24.45 -14.25L-24.75 -13.15L-27.6 -10.95L-28.1 -10.85" />
<path style="fill:none;stroke-width:1;stroke-linecap:round;stroke-linejoin:round;stroke-miterlimit:3;stroke:#265218;stroke-opacity:1" d="M-24.45,-14.25Q-24.35 -15.5 -24.9 -17.15Q-33 -21 -35.35 -10.7L-34.2 -10.55M-24.45,-14.25L-24.75 -13.15L-27.6 -10.95L-31 -10.45L-34.2 -10.55" />
<path style="fill:#378426;fill-opacity:1" d="M7.15,-18.8Q2.9 -13.8 0.05 -22.3Q5.4 -26.65 7.15 -18.8" />
<path style="fill:none;stroke-width:1;stroke-linecap:round;stroke-linejoin:round;stroke-miterlimit:3;stroke:#265218;stroke-opacity:1" d="M0.05,-22.3Q2.9 -13.8 7.15 -18.8Q5.4 -26.65 0.05 -22.3z" />
</g>
</svg>
