<?xml version="1.0" encoding="utf-8"?>
<svg version="1.1" id="Layer_1"
xmlns="http://www.w3.org/2000/svg"
xmlns:xlink="http://www.w3.org/1999/xlink"
xmlns:author="http://www.sothink.com"
width="121px" height="109px"
xml:space="preserve">
<g id="236" transform="matrix(1, 0, 0, 1, 60.3, 54.2)">
<path style="fill:#FFFFFF;fill-opacity:1" d="M17.1,-19.45L20.7 -18.2Q16.2 -16.95 11.35 -16.7L8.2 -21.7Q11.05 -25.85 17.7 -28.45L15.85 -24.45L19.35 -24.45L16.3 -21.45L20.2 -21.45L17.1 -19.45" />
<path style="fill:none;stroke-width:0.5;stroke-linecap:round;stroke-linejoin:round;stroke-miterlimit:3;stroke:#666666;stroke-opacity:1" d="M17.1,-19.45L20.7 -18.2Q16.2 -16.95 11.35 -16.7L8.2 -21.7Q11.05 -25.85 17.7 -28.45L15.85 -24.45L19.35 -24.45L16.3 -21.45L20.2 -21.45L17.1 -19.45z" />
<path style="fill:#FFFFFF;fill-opacity:1" d="M-11.8,3L-11.55 2.05Q-11.2 -2.7 -8.7 -8.45L-6.65 -7.9Q-7.5 -2.15 -9.7 3.6L-11.8 3" />
<path style="fill:#FFFF99;fill-opacity:1" d="M-11.55,2.05L-11.8 3L-9.7 3.6Q-10.05 7.1 -12.15 10.25Q-13.55 7.75 -12.15 5.25Q-15.5 8 -18.05 8.6Q-17.25 6.05 -14.05 4.1Q-17.7 5 -20.9 4.1Q-17 1.7 -11.55 2.05" />
<path style="fill:none;stroke-width:0.5;stroke-linecap:round;stroke-linejoin:round;stroke-miterlimit:3;stroke:#666666;stroke-opacity:1" d="M-9.7,3.6Q-7.5 -2.15 -6.65 -7.9L-8.7 -8.45Q-11.2 -2.7 -11.55 2.05M-9.7,3.6Q-10.05 7.1 -12.15 10.25Q-13.55 7.75 -12.15 5.25Q-15.5 8 -18.05 8.6Q-17.25 6.05 -14.05 4.1Q-17.7 5 -20.9 4.1Q-17 1.7 -11.55 2.05" />
<path style="fill:#FFFFFF;fill-opacity:1" d="M0.3,5L0.3 4.05Q-0.6 -0.65 0.35 -6.85L2.5 -6.8Q3.1 -1.05 2.5 5.1L0.3 5" />
<path style="fill:#FFFF99;fill-opacity:1" d="M0.3,4.05L0.3 5L2.5 5.1Q3.05 8.5 1.85 12.1Q-0.15 10.05 0.55 7.3Q-1.95 10.85 -4.3 12.05Q-4.15 9.4 -1.55 6.65Q-4.9 8.5 -8.2 8.45Q-5.05 5.1 0.3 4.05" />
<path style="fill:none;stroke-width:0.5;stroke-linecap:round;stroke-linejoin:round;stroke-miterlimit:3;stroke:#666666;stroke-opacity:1" d="M2.5,5.1Q3.1 -1.05 2.5 -6.8L0.35 -6.85Q-0.6 -0.65 0.3 4.05M2.5,5.1Q3.05 8.5 1.85 12.1Q-0.15 10.05 0.55 7.3Q-1.95 10.85 -4.3 12.05Q-4.15 9.4 -1.55 6.65Q-4.9 8.5 -8.2 8.45Q-5.05 5.1 0.3 4.05" />
<path style="fill:#FFFFFF;fill-opacity:1" d="M11.5,-17.05Q11.5 -10.55 4.95 -6Q-1.55 -1.4 -10.75 -1.4Q-19.95 -1.4 -26.5 -6Q-33 -10.55 -33 -17.05Q-33 -23.55 -26.5 -28.15Q-19.95 -32.7 -10.75 -32.7Q-1.55 -32.7 4.95 -28.15Q11.5 -23.55 11.5 -17.05" />
<path style="fill:none;stroke-width:0.5;stroke-linecap:round;stroke-linejoin:round;stroke-miterlimit:3;stroke:#666666;stroke-opacity:1" d="M11.5,-17.05Q11.5 -10.55 4.95 -6Q-1.55 -1.4 -10.75 -1.4Q-19.95 -1.4 -26.5 -6Q-33 -10.55 -33 -17.05Q-33 -23.55 -26.5 -28.15Q-19.95 -32.7 -10.75 -32.7Q-1.55 -32.7 4.95 -28.15Q11.5 -23.55 11.5 -17.05z" />
<path style="fill:#FFFFFF;fill-opacity:1" d="M2.45,-14.05L9.6 -13.5L2.8 -11.45L7 -10.05L6.8 -9.95Q4 -8.2 0 -8.2Q-4 -8.2 -6.85 -9.95Q-9.65 -11.65 -9.65 -14.1Q-9.65 -16.55 -6.85 -18.3Q-4 -20 0 -20Q4 -20 6.8 -18.3L7.5 -17.85L1.2 -16.55L9.45 -15.4L2.45 -14.05" />
<path style="fill:none;stroke-width:0.5;stroke-linecap:round;stroke-linejoin:round;stroke-miterlimit:3;stroke:#666666;stroke-opacity:1" d="M2.45,-14.05L9.6 -13.5L2.8 -11.45L7 -10.05L6.8 -9.95Q4 -8.2 0 -8.2Q-4 -8.2 -6.85 -9.95Q-9.65 -11.65 -9.65 -14.1Q-9.65 -16.55 -6.85 -18.3Q-4 -20 0 -20Q4 -20 6.8 -18.3L7.5 -17.85L1.2 -16.55L9.45 -15.4L2.45 -14.05z" />
<linearGradient
id="LinearGradID_692" gradientUnits="userSpaceOnUse" gradientTransform="matrix(0.115753, 0.115753, -0.0587006, 0.0587006, 2.2, -9.4)" spreadMethod ="pad" x1="-819.2" y1="0" x2="819.2" y2="0" >
<stop  offset="0" style="stop-color:#666666;stop-opacity:1" />
<stop  offset="1" style="stop-color:#FFFFFF;stop-opacity:1" />
</linearGradient>
<path style="fill:url(#LinearGradID_692) " d="M2.7,-12L-3.05 -22L-3.3 -22.45L1.55 -20L1.55 -19.95L4.9 -14.2L7.6 -16.9L10.45 -15.5L6.45 -11.5L11.5 -2.8L13.05 -0.1L18.8 9.9L20.35 12.6L25.75 21.95L27.3 24.65L27.3 30.65L25.1 26.85L23.55 24.15L18.15 14.8L16.6 12.1L10.85 2.1L9.3 -0.6L4.25 -9.3L-5.4 0.35L-0.35 9.05L1.2 11.75L6.95 21.75L8.5 24.45L10.1 27.15L5.25 24.75L4.75 23.95L-1 13.95L-2.55 11.25L-7.6 2.55L-17.45 12.4L-16.45 14.1L-21.3 11.75L-26.95 1.9L-31.65 6.6L-34.55 5.25L-34.5 5.2L-28.5 -0.8L-33.9 -10.15L-35.45 -12.85L-43.4 -26.65L-44.95 -29.35L-50.75 -39.3L-52.3 -42L-56.05 -48.5L-56.4 -49.15L-51.45 -46.5L-50.1 -44.2L-48.55 -41.5L-42.8 -31.5L-41.25 -28.8L-33.25 -15.05L-31.7 -12.35L-26.3 -3L-24.75 -0.3L-19 9.7L-9.15 -0.15L-14.9 -10.15L-16.45 -12.85L-21.85 -22.2L-23.4 -24.9L-29.55 -35.5L-24.7 -33.1L-21.25 -27.05L-18.35 -29.95L-15.55 -28.5L-19.7 -24.35L-14.25 -15.05L-12.7 -12.35L-6.95 -2.35L2.7 -12M27.3,-3.95L24.85 -8.2L27.3 -6.95L27.3 -3.95M32.45,-1.05L32.45 -3.75L32.85 -4.15L35.65 -2.7L33 -0.05L38.4 9.3L39.95 12L46.85 23.85L48.4 26.55L54.15 36.55L55.7 39.25L56.2 40.1L56.2 46.1L53.5 41.45L48.85 46.1L46 44.7L51.95 38.75L46.2 28.75L44.65 26.05L37.75 14.2L36.2 11.5L32.45 4.95L32.45 4.9L32.45 -1.05M54.8,15.9L47.9 4.05L47.35 3.1L52.3 5.6L56.2 12.35L56.2 18.4L54.8 15.9M32.25,33.25L32.35 33.35L34.2 36.5L35.75 39.2L36 39.7L36.1 39.9L32.05 37.95L32.25 33.25M-46.55,-0.7L-47.25 -1.05L-46 -2.3L-53.95 -16.1L-56.05 -14L-56.05 -18.25L-55.5 -18.8L-56.05 -19.7L-56.05 -25.7L-53.3 -21L-51.75 -18.3L-43.8 -4.5L-42.25 -1.8L-39.65 2.7L-44.45 0.35L-46.55 -0.7" />
<path style="fill:#A94B01;fill-opacity:1" d="M-34.5,5.2L-34.55 5.25L-31.65 6.6L-21.3 11.75L-16.45 14.1L-9.05 17.75L-6.2 19.15L4.35 24.35L5.25 24.75L10.1 27.15L10.15 27.2L17.05 30.65L17.1 30.6L19.95 32.05L19.9 32.05L20.4 32.3L27.3 35.65L27.3 30.65L27.3 24.65L27.3 20.4L27.3 5.65L27.3 1.4L27.3 -3.95L27.3 -6.95L24.85 -8.2L24.8 -8.3L22.45 -9.5L22.4 -9.45L19.6 -10.9L10.45 -15.5L7.6 -16.9L6.7 -17.4L6.6 -17.45L6.1 -17.65L5.55 -17.95L1.55 -19.95L1.55 -20L-3.3 -22.45L-5.65 -23.65L-5.7 -23.6L-6.9 -24.2L-15.55 -28.5L-18.35 -29.95L-19.95 -30.75L-20.7 -31.15L-24.7 -33.1L-29.55 -35.5L-29.55 -35.55L-30.5 -36L-30.8 -36.15L-31.2 -36.35L-32.85 -37.2L-35.7 -38.6L-46.2 -43.85Q-47.6 -44.55 -49 -45.3L-49.6 -45.6L-51.45 -46.5L-56.4 -49.15L-56.05 -48.5L-56.05 -38.25L-56.05 -34L-56.05 -25.7L-56.05 -19.7L-56.05 -18.25L-56.05 -14L-56.05 -5.4L-47.25 -1.05L-46.55 -0.7L-44.45 0.4L-44.45 0.35L-39.65 2.7L-35.05 4.95L-34.5 5.2M32.45,4.9L32.4 4.9L32.4 6.3L32.4 13.4L32.4 13.75L32.4 15.3L32.35 19.6L32.35 21.95L32.35 31.65L32.35 33.35L32.25 33.25L32.05 37.95L36.1 39.9L36 39.7L40 41.65L46 44.7L48.85 46.1L56.2 49.8L56.2 46.1L56.2 40.1L56.2 38.75L56.2 34.5L56.2 18.75L56.35 18.6L56.2 18.4L56.2 12.35L56.2 7.55L52.3 5.6L47.35 3.1L45.55 2.15L45.5 2.2L44 1.4L37 -2.1L35.7 -2.75L35.65 -2.7L32.85 -4.15L32.45 -4.35L32.45 -3.75L32.45 -1.05L32.45 4.9M-0.8,-24.25L21.7 -13L22.25 -12.7L60 6.2L60 54L7.05 27.95L5.7 27.25L5.65 27.3L2.8 25.9L2.85 25.85L1.5 25.2L-12.6 18.25L-13.6 17.75L-60.05 -5.15L-60.05 -53.95L-59.45 -53.65L-59.3 -53.55L-58.8 -53.35L-58.8 -53.3L-36.55 -42.15L-33.6 -40.7L-33.65 -40.65L-27.25 -37.5L-27.3 -37.55L-26.15 -36.95L-17.8 -32.8L-16.25 -32.05L-16.3 -32L-1 -24.35L-0.9 -24.15L-0.8 -24.25" />
<linearGradient
id="LinearGradID_693" gradientUnits="userSpaceOnUse" gradientTransform="matrix(0.001297, 0.001297, -0.0587006, 0.0587006, 11.2, -0.4)" spreadMethod ="pad" x1="-819.2" y1="0" x2="819.2" y2="0" >
<stop  offset="0" style="stop-color:#666666;stop-opacity:1" />
<stop  offset="1" style="stop-color:#FFFFFF;stop-opacity:1" />
</linearGradient>
<path style="fill:url(#LinearGradID_693) " d="M9.3,-0.6L10.85 2.1L1.2 11.75L-0.35 9.05L9.3 -0.6M13.05,-0.1L11.5 -2.8L19.6 -10.9L22.4 -9.45L13.05 -0.1M-2.55,11.25L-1 13.95L-6.2 19.15L-9.05 17.75L-2.55 11.25M21.7,-13L21.95 -13.25L22.25 -12.7L21.7 -13" />
<linearGradient
id="LinearGradID_694" gradientUnits="userSpaceOnUse" gradientTransform="matrix(0.001297, 0.001297, -0.0587006, 0.0587006, 33.2, 16.6)" spreadMethod ="pad" x1="-819.2" y1="0" x2="819.2" y2="0" >
<stop  offset="0" style="stop-color:#666666;stop-opacity:1" />
<stop  offset="1" style="stop-color:#FFFFFF;stop-opacity:1" />
</linearGradient>
<path style="fill:url(#LinearGradID_694) " d="M19.95,32.05L17.1 30.6L23.55 24.15L25.1 26.85L19.95 32.05M27.3,20.4L27.3 24.65L25.75 21.95L27.3 20.4M45.5,2.2L45.55 2.15L47.35 3.1L47.9 4.05L39.95 12L38.4 9.3L45.5 2.2M32.4,15.3L36.2 11.5L37.75 14.2L32.35 19.6L32.4 15.3" />
<linearGradient
id="LinearGradID_695" gradientUnits="userSpaceOnUse" gradientTransform="matrix(0.001297, 0.001297, -0.0587006, 0.0587006, 40.2, 32.6)" spreadMethod ="pad" x1="-819.2" y1="0" x2="819.2" y2="0" >
<stop  offset="0" style="stop-color:#666666;stop-opacity:1" />
<stop  offset="1" style="stop-color:#FFFFFF;stop-opacity:1" />
</linearGradient>
<path style="fill:url(#LinearGradID_695) " d="M46.85,23.85L54.8 15.9L56.2 18.4L56.35 18.6L56.2 18.75L48.4 26.55L46.85 23.85M35.75,39.2L34.2 36.5L44.65 26.05L46.2 28.75L35.75 39.2" />
<linearGradient
id="LinearGradID_696" gradientUnits="userSpaceOnUse" gradientTransform="matrix(0.001297, 0.001297, -0.0587006, 0.0587006, 55.2, 37.6)" spreadMethod ="pad" x1="-819.2" y1="0" x2="819.2" y2="0" >
<stop  offset="0" style="stop-color:#666666;stop-opacity:1" />
<stop  offset="1" style="stop-color:#FFFFFF;stop-opacity:1" />
</linearGradient>
<path style="fill:url(#LinearGradID_696) " d="M54.15,36.55L56.2 34.5L56.2 38.75L55.7 39.25L54.15 36.55" />
<linearGradient
id="LinearGradID_697" gradientUnits="userSpaceOnUse" gradientTransform="matrix(0.001297, 0.001297, -0.0587006, 0.0587006, 22.2, 8.6)" spreadMethod ="pad" x1="-819.2" y1="0" x2="819.2" y2="0" >
<stop  offset="0" style="stop-color:#666666;stop-opacity:1" />
<stop  offset="1" style="stop-color:#FFFFFF;stop-opacity:1" />
</linearGradient>
<path style="fill:url(#LinearGradID_697) " d="M6.95,21.75L16.6 12.1L18.15 14.8L8.5 24.45L6.95 21.75M20.35,12.6L18.8 9.9L27.3 1.4L27.3 5.65L20.35 12.6M5.25,24.75L4.35 24.35L4.75 23.95L5.25 24.75" />
<linearGradient
id="LinearGradID_698" gradientUnits="userSpaceOnUse" gradientTransform="matrix(0.001297, 0.001297, -0.0587006, 0.0587006, -52.8, -39.4)" spreadMethod ="pad" x1="-819.2" y1="0" x2="819.2" y2="0" >
<stop  offset="0" style="stop-color:#666666;stop-opacity:1" />
<stop  offset="1" style="stop-color:#FFFFFF;stop-opacity:1" />
</linearGradient>
<path style="fill:url(#LinearGradID_698) " d="M-56.05,-34L-56.05 -38.25L-52.3 -42L-50.75 -39.3L-56.05 -34" />
<linearGradient
id="LinearGradID_699" gradientUnits="userSpaceOnUse" gradientTransform="matrix(0.001297, 0.001297, -0.0587006, 0.0587006, -42.8, -29.4)" spreadMethod ="pad" x1="-819.2" y1="0" x2="819.2" y2="0" >
<stop  offset="0" style="stop-color:#666666;stop-opacity:1" />
<stop  offset="1" style="stop-color:#FFFFFF;stop-opacity:1" />
</linearGradient>
<path style="fill:url(#LinearGradID_699) " d="M-41.25,-28.8L-42.8 -31.5L-35.7 -38.6L-32.85 -37.2L-41.25 -28.8M-44.95,-29.35L-43.4 -26.65L-51.75 -18.3L-53.3 -21L-44.95 -29.35" />
<linearGradient
id="LinearGradID_700" gradientUnits="userSpaceOnUse" gradientTransform="matrix(0.001297, 0.001297, -0.0587006, 0.0587006, -26.8, -19.4)" spreadMethod ="pad" x1="-819.2" y1="0" x2="819.2" y2="0" >
<stop  offset="0" style="stop-color:#666666;stop-opacity:1" />
<stop  offset="1" style="stop-color:#FFFFFF;stop-opacity:1" />
</linearGradient>
<path style="fill:url(#LinearGradID_700) " d="M-35.45,-12.85L-33.9 -10.15L-42.25 -1.8L-43.8 -4.5L-35.45 -12.85M-23.4,-24.9L-21.85 -22.2L-31.7 -12.35L-33.25 -15.05L-23.4 -24.9" />
<linearGradient
id="LinearGradID_701" gradientUnits="userSpaceOnUse" gradientTransform="matrix(0.001297, 0.001297, -0.0587006, 0.0587006, -15.8, -11.4)" spreadMethod ="pad" x1="-819.2" y1="0" x2="819.2" y2="0" >
<stop  offset="0" style="stop-color:#666666;stop-opacity:1" />
<stop  offset="1" style="stop-color:#FFFFFF;stop-opacity:1" />
</linearGradient>
<path style="fill:url(#LinearGradID_701) " d="M-12.7,-12.35L-14.25 -15.05L-5.7 -23.6L-5.65 -23.65L-3.3 -22.45L-3.05 -22L-12.7 -12.35M-16.45,-12.85L-14.9 -10.15L-24.75 -0.3L-26.3 -3L-16.45 -12.85" />
<path style="fill:none;stroke-width:0.5;stroke-linecap:round;stroke-linejoin:round;stroke-miterlimit:3;stroke:#666666;stroke-opacity:1" d="M1.55,-19.95L1.55 -20L-3.3 -22.45L-3.05 -22L2.7 -12L4.25 -9.3L9.3 -0.6L10.85 2.1L16.6 12.1L18.15 14.8L23.55 24.15L25.1 26.85L27.3 30.65L27.3 24.65L25.75 21.95L20.35 12.6L18.8 9.9L13.05 -0.1L11.5 -2.8L6.45 -11.5L4.9 -14.2L1.55 -19.95L5.55 -17.95L6.1 -17.65L6.6 -17.45L1.55 -20M4.9,-14.2L7.6 -16.9L6.7 -17.4L6.6 -17.45M7.6,-16.9L10.45 -15.5L19.6 -10.9L22.4 -9.45L22.45 -9.5L24.8 -8.3L24.85 -8.2L27.3 -6.95L32.45 -4.35L32.85 -4.15L35.65 -2.7L35.7 -2.75L37 -2.1L44 1.4L45.55 2.15L47.35 3.1L52.3 5.6L56.2 7.55L56.2 12.35L56.2 18.4L56.35 18.6L56.2 18.75L56.2 34.5L56.2 38.75L56.2 40.1L56.2 46.1L56.2 49.8L48.85 46.1L46 44.7L40 41.65L36.1 39.9L32.05 37.95L27.3 35.65L20.4 32.3L19.9 32.05L19.95 32.05L17.1 30.6L17.05 30.65L10.15 27.2L10.1 27.15L5.25 24.75L4.35 24.35L-6.2 19.15L-9.05 17.75L-16.45 14.1L-21.3 11.75L-31.65 6.6L-34.55 5.25L-35.05 4.95L-39.65 2.7L-44.45 0.35L-44.45 0.4L-46.55 -0.7L-47.25 -1.05L-56.05 -5.4L-56.05 -14L-56.05 -18.25L-56.05 -19.7L-56.05 -25.7L-56.05 -34L-56.05 -38.25L-56.05 -48.5L-52.3 -42L-50.75 -39.3L-44.95 -29.35L-43.4 -26.65L-35.45 -12.85L-33.9 -10.15L-28.5 -0.8L-26.95 1.9L-21.3 11.75M-56.4,-49.15L-51.45 -46.5L-49.6 -45.6L-49 -45.3Q-47.6 -44.55 -46.2 -43.85L-35.7 -38.6L-32.85 -37.2L-31.2 -36.35L-30.8 -36.15L-30.5 -36L-29.55 -35.55L-29.55 -35.5L-24.7 -33.1L-20.7 -31.15L-19.95 -30.75L-18.35 -29.95L-15.55 -28.5L-6.9 -24.2L-5.65 -23.65L-3.3 -22.45M19.6,-10.9L11.5 -2.8M10.45,-15.5L6.45 -11.5M21.7,-13L22.25 -12.7L60 6.2L60 54L7.05 27.95L5.65 27.3L2.8 25.9L1.5 25.2L-12.6 18.25L-13.6 17.75L-60.05 -5.15L-60.05 -53.95L-59.45 -53.65L-59.3 -53.55L-58.8 -53.35L-58.8 -53.3L-36.55 -42.15L-33.6 -40.7L-33.65 -40.65L-27.25 -37.5L-27.3 -37.55L-26.15 -36.95L-17.8 -32.8L-16.25 -32.05L-16.3 -32L-1 -24.35L-0.8 -24.25L21.7 -13M24.85,-8.2L27.3 -3.95L27.3 -6.95M24.85,-8.2L22.4 -9.45L13.05 -0.1M32.45,-4.35L32.45 -3.75L32.45 -1.05L33 -0.05L35.65 -2.7L37 -2.1M32.45,-3.75L32.85 -4.15M56.2,12.35L52.3 5.6M44,1.4L45.5 2.2L45.55 2.15M47.35,3.1L47.9 4.05L54.8 15.9L56.2 18.4L56.2 18.75L48.4 26.55L54.15 36.55L56.2 34.5M54.8,15.9L46.85 23.85L48.4 26.55M46.2,28.75L44.65 26.05L34.2 36.5L35.75 39.2L46.2 28.75L51.95 38.75L53.5 41.45L56.2 46.1M56.2,38.75L55.7 39.25L56.2 40.1M53.5,41.45L48.85 46.1M51.95,38.75L46 44.7M54.15,36.55L55.7 39.25M32.4,4.9L32.45 4.95L32.45 4.9L32.45 -1.05M32.4,4.9L32.4 6.3L32.45 4.95L36.2 11.5L37.75 14.2L44.65 26.05M45.5,2.2L38.4 9.3L39.95 12L47.9 4.05M27.3,20.4L27.3 5.65L27.3 1.4L18.8 9.9M27.3,24.65L27.3 20.4L25.75 21.95M32.4,6.3L32.4 13.4L32.4 13.75L32.4 15.3L36.2 11.5M32.4,15.3L32.35 19.6L37.75 14.2M32.35,19.6L32.35 21.95L32.35 31.65L32.35 33.35L34.2 36.5M27.3,5.65L20.35 12.6M10.85,2.1L1.2 11.75L6.95 21.75L16.6 12.1M1.2,11.75L-0.35 9.05L-5.4 0.35L-6.95 -2.35L-12.7 -12.35L-14.25 -15.05L-19.7 -24.35L-21.25 -27.05L-24.7 -33.1M18.15,14.8L8.5 24.45L10.1 27.15L17.1 30.6L23.55 24.15M6.95,21.75L8.5 24.45M-30.5,-36L-29.55 -35.5L-23.4 -24.9L-21.85 -22.2L-16.45 -12.85L-14.9 -10.15L-9.15 -0.15L-7.6 2.55L-2.55 11.25L-1 13.95L4.75 23.95L4.35 24.35M7.05,27.95L5.7 27.25L5.65 27.3M2.8,25.9L2.85 25.85L1.5 25.2M32.35,31.65L32.25 33.25L32.35 33.35M27.3,35.65L27.3 30.65M35.75,39.2L36 39.7L40 41.65M36,39.7L36.1 39.9M32.25,33.25L32.05 37.95M4.75,23.95L5.25 24.75M19.95,32.05L25.1 26.85M19.95,32.05L20.4 32.3M38.4,9.3L33 -0.05M39.95,12L46.85 23.85M27.3,-3.95L27.3 1.4M-59.3,-53.55L-58.8 -53.3M-46.2,-43.85L-48.55 -41.5L-42.8 -31.5L-35.7 -38.6M-51.45,-46.5L-50.1 -44.2L-48.55 -41.5M-50.1,-44.2L-49 -45.3M-52.3,-42L-56.05 -38.25M-42.8,-31.5L-41.25 -28.8L-32.85 -37.2M-56.05,-34L-50.75 -39.3M-56.05,-25.7L-53.3 -21L-51.75 -18.3L-43.4 -26.65M-47.25,-1.05L-46 -2.3L-53.95 -16.1L-56.05 -14M-56.05,-18.25L-55.5 -18.8L-56.05 -19.7M-55.5,-18.8L-53.95 -16.1M-33.9,-10.15L-42.25 -1.8L-43.8 -4.5L-51.75 -18.3M-53.3,-21L-44.95 -29.35M-17.8,-32.8L-16.3 -32M-33.65,-40.65L-36.55 -42.15M-27.25,-37.5L-26.15 -36.95M-23.4,-24.9L-33.25 -15.05L-31.7 -12.35L-26.3 -3L-24.75 -0.3L-14.9 -10.15M-26.3,-3L-16.45 -12.85M-31.7,-12.35L-21.85 -22.2M-6.9,-24.2L-5.7 -23.6L-5.65 -23.65M-1,-24.35L-0.9 -24.15L-0.8 -24.25M-14.25,-15.05L-5.7 -23.6M-3.05,-22L-12.7 -12.35M-21.25,-27.05L-18.35 -29.95M-15.55,-28.5L-19.7 -24.35M-33.25,-15.05L-41.25 -28.8M-42.25,-1.8L-39.65 2.7M-43.8,-4.5L-35.45 -12.85M-7.6,2.55L-17.45 12.4L-16.45 14.1M-6.2,19.15L-1 13.95M-24.75,-0.3L-19 9.7L-17.45 12.4M-2.55,11.25L-9.05 17.75M-26.95,1.9L-31.65 6.6M-34.55,5.25L-34.5 5.2L-35.05 4.95M-46,-2.3L-44.45 0.35L-46.55 -0.7M-19,9.7L-9.15 -0.15M-34.5,5.2L-28.5 -0.8M9.3,-0.6L-0.35 9.05M-5.4,0.35L4.25 -9.3M2.7,-12L-6.95 -2.35" />
</g>
</svg>
