<?xml version="1.0" encoding="utf-8"?>
<svg version="1.1" id="Layer_1"
xmlns="http://www.w3.org/2000/svg"
xmlns:xlink="http://www.w3.org/1999/xlink"
xmlns:author="http://www.sothink.com"
width="81px" height="43px"
xml:space="preserve">
<g id="612" transform="matrix(1, 0, 0, 1, 40.3, 20.25)">
<path style="fill:#E7E6E0;fill-opacity:1" d="M-10,-15.05L-10.05 -15.1L-0.25 -20L-0.2 -20L-10 -15.05M-40.05,-0.1L-40 -0.1L-30.05 -5.1L-30 -5.1L-30.5 -4.85L-30.65 -4.75L-39.95 -0.1L-40 -0.05L-40.05 -0.1M-0.1,19.95L-10.05 14.95L-10 14.95L-9.4 15.25L-0.1 19.95" />
<path style="fill:#DBDAD0;fill-opacity:1" d="M-19.9,-10L-20.05 -9.9L-20.2 -10L-29.4 -5.4L-29.55 -5.3L-30 -5.1L-30.05 -5.1L-29.55 -5.35L-10.05 -15.1L-10 -15.05L-20 -10.05L-20.05 -10.05L-19.9 -10M19.75,-10L19.8 -10L19.6 -9.9L19.75 -10M19.75,10L19.6 9.9L19.75 9.85L19.9 9.95L19.75 10M19.25,9.6L19.3 9.6L19.15 9.7L19.1 9.7L19.25 9.6M-10.05,14.95L-20 9.95L-10 14.95L-10.05 14.95" />
<path style="fill:#99977B;fill-opacity:1" d="M-40.05,-0.05L-40.05 -0.1L-40 -0.05L-40.05 -0.05" />
<path style="fill:#71403E;fill-opacity:1" d="M-0.25,-19.85Q-10.1 -14.9 -19.9 -10L-20.05 -10.05L-20 -10.05L-10 -15.05L-0.2 -20L0.2 -19.8L19.75 -10L19.6 -9.9L0.05 -19.7L-0.25 -19.85M21.65,9.1L22.45 8.7L20 9.95L19.95 9.95L19.9 9.95L20.6 9.6L21.15 9.3L21.65 9.1M0.4,19.75L0 19.95L-0.05 19.95L0.4 19.75M18.8,9.85L19.1 9.7L19.15 9.7L18.8 9.85M-20.05,9.95L-40.05 -0.05L-40 -0.05L-20 9.95L-20.05 9.95" />
<path style="fill:#FF0000;fill-opacity:1" d="M39.75,0L39.7 0.05L39.75 0" />
<path style="fill:#CCCCCC;fill-opacity:1" d="M-9.4,15.25L-10 14.95L-20 9.95L-40 -0.05L-39.95 -0.1L-30.65 -4.75L-30.5 -4.85L-29.55 -5.3L-29.4 -5.4L-20.2 -10L-20.05 -9.9L-19.9 -10Q-10.1 -14.9 -0.25 -19.85L0.05 -19.7L-26.05 -4.55L-29.2 -2.75L-10.2 -10.75L-15 -6.75L-17.7 -4.5L-2.2 -10.25L-10.2 -5.25L-4.45 -7L-14.2 0.75L3.8 -8L-5.7 1.25L9.8 -6.5L1.05 0.25L4.05 -0.25L2.8 2.5L5.3 2.25L1.8 4.75L9.65 2.3L7.75 5.75L6.55 8L13.95 6.1L14.15 6.2L16.35 7.4L20.6 9.6L19.9 9.95L19.95 9.95L20 9.95L22.45 8.7L23.25 8.3L23.5 8.15L24.6 7.6L39.7 0.05L39.7 1.95L-0.1 21.95L-40.05 1.9L-40.05 -0.05L-20.05 9.95L-20 9.95L-10.05 14.95L-0.1 19.95L-9.4 15.25M19.9,9.95L19.75 9.85L19.6 9.9L19.75 10L19.9 9.95M-0.05,19.95L0 19.95L0.4 19.75L-0.05 19.95M19.15,9.7L19.3 9.6L19.25 9.6L19.1 9.7L18.8 9.85L19.15 9.7" />
<path style="fill:#C6C6C6;fill-opacity:1" d="M0.05,-19.7L19.6 -9.9L19.8 -10Q28.5 -5.6 37.25 -1.25L39.75 0L39.7 0.05L24.6 7.6L23.5 8.15L23.25 8.3L21.65 9.1L21.15 9.3L20.6 9.6L16.35 7.4L14.15 6.2L13.95 6.1L6.55 8L7.75 5.75L9.65 2.3L1.8 4.75L5.3 2.25L2.8 2.5L4.05 -0.25L1.05 0.25L9.8 -6.5L-5.7 1.25L3.8 -8L-14.2 0.75L-4.45 -7L-10.2 -5.25L-2.2 -10.25L-17.7 -4.5L-15 -6.75L-10.2 -10.75L-29.2 -2.75L-26.05 -4.55L0.05 -19.7" />
<path style="fill:none;stroke-width:0.5;stroke-linecap:round;stroke-linejoin:round;stroke-miterlimit:3;stroke:#999999;stroke-opacity:1" d="M39.75,0L39.7 0.05M-0.25,-20L-0.2 -20L0.2 -19.8M20.6,9.6L19.9 9.95M21.65,9.1L21.15 9.3M23.25,8.3L23.5 8.15M-40.05,-0.1L-40 -0.05M-40.05,-0.1L-40 -0.05" />
<path style="fill:none;stroke-width:0.5;stroke-linecap:round;stroke-linejoin:round;stroke-miterlimit:3;stroke:#CECECE;stroke-opacity:1" d="M14.15,6.2L25.3 -0.25M16.35,7.4L28.8 0.75M7.75,5.75L18.05 0M7.75,5.75L3.3 8.25M16.35,7.4L1.05 15.5M-26.95,-0.25L-15 -6.75L1.55 -15.75M-26.05,-4.55L-32.7 -1.25M-26.05,-4.55L-2.2 -16.5M14.15,6.2L-1.2 15" />
<path style="fill:none;stroke-width:0.5;stroke-linecap:round;stroke-linejoin:round;stroke-miterlimit:3;stroke:#C3C3C3;stroke-opacity:1" d="M0.2,-19.8L0.05 -19.7M19.9,9.95L19.75 10" />
<path style="fill:none;stroke-width:0.5;stroke-linecap:round;stroke-linejoin:round;stroke-miterlimit:3;stroke:#B9B9B9;stroke-opacity:1" d="M0.2,-19.8L19.75 -10L19.8 -10Q28.5 -5.6 37.25 -1.25L39.7 0.05L39.7 1.95L-0.1 21.95L-40.05 1.9L-40.05 -0.05L-40.05 -0.1L-40 -0.1L-29.55 -5.35L-10.05 -15.1L-0.25 -20M21.15,9.3L20.6 9.6M23.5,8.15L24.6 7.6L39.7 0.05M23.25,8.3L21.65 9.1M19.75,10L0.4 19.75M-0.1,19.95L-0.05 19.95L-0.1 21.95M-0.1,19.95L-9.4 15.25L-39.95 -0.1L-40 -0.1M-0.05,19.95L0.4 19.75" />
</g>
</svg>
