<?xml version="1.0" encoding="utf-8"?>
<svg version="1.1" id="Layer_1"
xmlns="http://www.w3.org/2000/svg"
xmlns:xlink="http://www.w3.org/1999/xlink"
xmlns:author="http://www.sothink.com"
width="15px" height="29px"
xml:space="preserve">
<g id="19" transform="matrix(1, 0, 0, 1, 6.05, 21)">
<path style="fill:#FFFF99;fill-opacity:1" d="M8.2,-16.55L8.2 -16.5L8.2 -16.55" />
<path style="fill:#FFE0C8;fill-opacity:1" d="M2.95,2.8L3.05 2.15L5.15 -8.25L5.45 -9.65L6.5 -15.15L6.5 -15.2L7.2 -15.8L8.2 -16.5L6.65 -9L6.65 -8.95L4.4 2.3L3.55 2.55L2.95 2.8" />
<path style="fill:#FEC698;fill-opacity:1" d="M2.6,2.25L4.55 -8.15L4.85 -9.75L5.95 -15.45L6.05 -15.5L7.55 -16.6L8.2 -16.5L7.2 -15.8L6.5 -15.2L6.5 -15.15L5.45 -9.65L5.15 -8.25L3.05 2.15L2.95 2.8L2.6 2.25" />
<path style="fill:#FF00FF;fill-opacity:1" d="M6.65,-8.95L6.65 -9L6.75 -9L6.75 -8.95L6.65 -8.95M-5.75,-8.75L-5.8 -8.75L-5.8 -8.8L-5.75 -8.75" />
<path style="fill:#FFFFCC;fill-opacity:1" d="M-5.8,-8.8L-5.9 -9Q-5.9 -9.45 -4.05 -9.8L0.35 -10.1L4.8 -9.8L4.85 -9.75L4.55 -8.15L0.35 -7.85L-3.8 -8.15L-4 -8.25L-4.05 -8.2L-5.7 -8.7L-5.75 -8.75L-5.8 -8.8" />
<path style="fill:none;stroke-width:0.3;stroke-linecap:round;stroke-linejoin:round;stroke-miterlimit:3;stroke:#333333;stroke-opacity:1" d="M7.55,-16.6L8.2 -16.5L8.2 -16.55L8.2 -16.5L6.65 -9L6.75 -9L6.75 -8.95L5.65 5.6Q0.15 9.45 -5 5.45L-5.8 -8.75L-5.8 -8.8L-5.9 -9Q-5.9 -9.45 -4.05 -9.8L0.35 -10.1L4.8 -9.8L4.85 -9.75L5.95 -15.45M6.5,-15.15L6.05 -15.5L7.55 -16.6M8.2,-16.5L7.2 -15.8L3.55 2.55L4.4 2.3L6.65 -8.95L6.65 -9M7.2,-15.8L6.5 -15.2L6.5 -15.15L5.45 -9.65L5.15 -8.25L3.05 2.15L2.95 2.8L3.55 2.55M4.85,-9.75L4.55 -8.15L2.6 2.25L2.95 2.8M-5.8,-8.8L-5.75 -8.75L-5.7 -8.7L-4.05 -8.2L-4 -8.25L-3.8 -8.15L0.35 -7.85L4.55 -8.15" />
<path style="fill:none;stroke-width:1;stroke-linecap:round;stroke-linejoin:round;stroke-miterlimit:3;stroke:#333333;stroke-opacity:1" d="M-4.05,-8.2L-3.8 -8.15" />
<path style="fill:#FEC698;fill-opacity:1" d="M-3.9,5.05L-4.35 4.65L-4.55 -13.4L-4.5 -13.5L-3.2 -14.85L-2.6 -14.95L-3.35 -14L-3.95 -13.3L-3.95 -13.25L-3.9 4.4L-3.9 5.05" />
<path style="fill:#FFE0C8;fill-opacity:1" d="M-3.9,4.4L-3.95 -13.25L-3.95 -13.3L-3.35 -14L-2.6 -14.95L-2.6 4.3L-3.35 4.75L-3.9 5.05L-3.9 4.4" />
<path style="fill:none;stroke-width:0.3;stroke-linecap:round;stroke-linejoin:round;stroke-miterlimit:3;stroke:#333333;stroke-opacity:1" d="M-4.5,-13.5L-3.2 -14.85L-2.6 -14.95L-2.6 4.3L-3.35 4.75L-3.9 5.05L-4.35 4.65L-4.55 -13.4M-4.5,-13.5L-3.95 -13.25L-3.95 -13.3L-3.35 -14L-2.6 -14.95M-3.95,-13.25L-3.9 4.4L-3.9 5.05M-3.35,4.75L-3.35 -14" />
<path style="fill:#FFE0C8;fill-opacity:1" d="M0.5,-1.3L0.65 -1.9L3.35 -19.35L3.35 -19.45L4.05 -20L4.95 -20.8L1.95 -1.8L1.15 -1.5L0.5 -1.3" />
<path style="fill:#FEC698;fill-opacity:1" d="M4.35,-20.85L4.95 -20.8L4.05 -20L3.35 -19.45L3.35 -19.35L0.65 -1.9L0.5 -1.3L0.15 -1.8L2.75 -19.6L2.85 -19.7L4.35 -20.85" />
<path style="fill:none;stroke-width:0.3;stroke-linecap:round;stroke-linejoin:round;stroke-miterlimit:3;stroke:#333333;stroke-opacity:1" d="M2.75,-19.6L0.15 -1.8L0.5 -1.3L0.65 -1.9L3.35 -19.35L2.85 -19.7M3.35,-19.35L3.35 -19.45L4.05 -20L4.95 -20.8L4.35 -20.85L2.85 -19.7M4.95,-20.8L1.95 -1.8L1.15 -1.5L0.5 -1.3M4.05,-20L1.15 -1.5" />
</g>
</svg>
