<?xml version="1.0" encoding="utf-8"?>
<svg version="1.1" id="Layer_1"
xmlns="http://www.w3.org/2000/svg"
xmlns:xlink="http://www.w3.org/1999/xlink"
xmlns:author="http://www.sothink.com"
width="23px" height="34px"
xml:space="preserve">
<g id="98" transform="matrix(1, 0, 0, 1, 13.45, 72.3)">
<path style="fill:#E39D02;fill-opacity:0.772549" d="M5.45,-59.75L5.55 -57.85L6.6 -54.6L7.8 -53.05L7.3 -52.9L7.2 -52.9L7.65 -51.75L8 -51.4Q9.15 -49.9 9.15 -47.3L9.1 -46L7.95 -44.5L8.5 -46L8.75 -47.2Q8.7 -48.85 8.3 -49.55L7.8 -50.2L7.75 -50.2L8 -48.9L7.95 -48.2L8.1 -47.85L8.2 -47.3L8.6 -47.45L8.65 -47.45L8.65 -47Q8.65 -46.55 7.85 -45.8L7.4 -44.85L6.45 -43.75L4.35 -41.25Q1.8 -38.9 0.55 -38.9L-1.7 -39.1Q-3.95 -39.3 -6.25 -40.9L-7.95 -42.55L-8.6 -43.85L-8.6 -43.95L-10.95 -48.2Q-10.25 -48.85 -9.75 -47.85L-9.6 -47.95Q-10.45 -48.7 -10.9 -50.2L-11.3 -52.5Q-13.45 -56.7 -13.45 -57.7L-13.45 -58.05L-13.4 -58.25Q-12.6 -58.5 -10.6 -56.65Q-8.55 -54.8 -7.65 -54.75L-6.6 -55Q-6.25 -55.2 -6.2 -55.85L-5.95 -55.85L-5.9 -55.75L-5.6 -56.5L-5.6 -56.75Q-6.3 -60.2 -6.3 -63.65L-6.25 -65.6L-6.05 -68.3L-6.45 -69.5L-6.4 -69.7L-5.95 -68.85L-5.75 -70.5L-5.3 -72.3L-5.7 -68.3L-4.45 -65.6L-2.45 -61.05L-2.4 -61.2L-2.05 -62.05L-1.7 -61.3Q-2.4 -64.1 -2.6 -66.8Q-2.6 -69.4 -1.3 -66.55Q0.35 -62.6 1.1 -61.3Q1.5 -60.2 2.95 -58.55L3.2 -58.7Q3.65 -58.7 3.8 -58.35L3.3 -58.1L3.8 -57.6L4.1 -57.35L4.4 -60.35Q4.8 -62.9 5.55 -63.65L5.55 -61.5L5.45 -59.75M5.3,-56.75L5.25 -57.15L5.25 -57.35L5.15 -57.7L5.1 -56.25L5.35 -55.85L5.3 -56.75M2,-57.15L0.6 -59.85L-0.6 -62.05L-0.1 -60.2L0.9 -58.25L2 -57.15M2.75,-55.75L3.75 -54.9L2.3 -56.75L2.6 -56.1L2.75 -55.75M2.65,-54L2.75 -54.15L2.45 -54.45L2.65 -54M-11.25,-55.1L-11.25 -55.2L-11.4 -55.35L-11.25 -55.1M-5.4,-58.35L-5.3 -57.85L-5.25 -58.35L-5.4 -58.35M-5.25,-55.35L-5.55 -54.75L-5.8 -54.15L-5.1 -54.65L-5.25 -55.35M-9.4,-51.3L-9.4 -51.4L-9.3 -52L-9.75 -52L-9.4 -51.3M-8.9,-47.2L-7.75 -46L-7.95 -46.45L-8.65 -47.3L-8.9 -47.3L-8.9 -47.2M-8.75,-45.9L-8.4 -45.15L-8.2 -44.95L-8.05 -45.15L-8.75 -45.9M-6.95,-45.4L-7.55 -46.1L-7.65 -46L-6.3 -44.7L-6.2 -44.6L-6.1 -44.7L-6.95 -45.4" />
</g>
</svg>
