<?xml version="1.0" encoding="utf-8"?>
<svg version="1.1" id="Layer_1"
xmlns="http://www.w3.org/2000/svg"
xmlns:xlink="http://www.w3.org/1999/xlink"
xmlns:author="http://www.sothink.com"
width="41px" height="60px"
xml:space="preserve">
<g id="618" transform="matrix(1, 0, 0, 1, 0.4, -0.75)">
<path style="fill:#BBBBBB;fill-opacity:1" d="M20.4,32.75L16.5 32.75L22 31L20.4 32.75" />
<path style="fill:#AFAFAF;fill-opacity:1" d="M19.45,20.45L12.25 22.25L15.75 18.75L7.25 21.5L13.25 17L4.25 20.75L6.55 18.85L10.4 15.65L39.85 1L39.85 40.25L24.2 48.05L24.3 44.8L24.5 40L24.45 40L23.25 40.1L19.75 40.25L27 36.75L19 38.65L18.5 38.75L21.75 35L18.5 36L21.55 32.75L20.45 32.75L11.75 35.5L15.5 32.75L14.75 32.75L13.8 32.75L16.65 30.65L23 26L12.25 30L21 23.25L20.55 23.25L15.5 23.25L25.25 19L19.45 20.45M22,31L16.5 32.75L20.4 32.75L22 31" />
<path style="fill:#B3B3B3;fill-opacity:1" d="M25.25,19L15.5 23.25L20.55 23.25L21 23.25L12.25 30L23 26L16.65 30.65L13.8 32.75L14.75 32.75L15.5 32.75L11.75 35.5L20.45 32.75L21.55 32.75L18.5 36L21.75 35L18.5 38.75L19 38.65L27 36.75L19.75 40.25L23.25 40.1L24.45 40L24.5 40L24.3 44.8L24.2 48.05L-0.15 60.15L-0.15 20.9Q5.15 18.3 10.4 15.65L6.55 18.85L4.25 20.75L13.25 17L7.25 21.5L15.75 18.75L12.25 22.25L19.45 20.45L25.25 19" />
<path style="fill:none;stroke-width:0.5;stroke-linecap:round;stroke-linejoin:round;stroke-miterlimit:3;stroke:#B7B7B7;stroke-opacity:1" d="M16.65,30.65L28.25 25.5M23.25,15.75L36 9M13.75,26L20.55 23.25L32.25 18.5M1.5,21.25L6.55 18.85L32 6.75M19.45,20.45L21.5 19.5M16.65,30.65L11.95 32.75M14.75,32.75L10.25 34.75M28.25,32.75L32.25 30.75M19.45,20.45L4.25 27.5" />
<path style="fill:none;stroke-width:0.5;stroke-linecap:round;stroke-linejoin:round;stroke-miterlimit:3;stroke:#B7B7B7;stroke-opacity:1" d="M24.3,44.8L8.25 53M12.75,41.75L19 38.65L30.75 32.75M24.3,44.8L32.75 40.5M6,47.5L23.25 40.1L35 35" />
<path style="fill:none;stroke-width:0.5;stroke-linecap:round;stroke-linejoin:round;stroke-miterlimit:3;stroke:#A4A4A4;stroke-opacity:1" d="M10.4,15.65Q5.15 18.3 -0.15 20.9L-0.15 60.15L24.2 48.05M10.4,15.65L39.85 1L39.85 40.25L24.2 48.05" />
</g>
</svg>
