<?xml version="1.0" encoding="utf-8"?>
<svg version="1.1" id="Layer_1"
xmlns="http://www.w3.org/2000/svg"
xmlns:xlink="http://www.w3.org/1999/xlink"
xmlns:author="http://www.sothink.com"
width="42px" height="34px"
xml:space="preserve">
<g id="482" transform="matrix(1, 0, 0, 1, 20.85, 33.25)">
<path style="fill:#FFFFFF;fill-opacity:1" d="M-18.2,-24.35L-18.25 -24.35L-18.3 -24.3L-18.3 -24.25L-18.35 -24.2L-18.35 -24.15L-18.25 -24.05L-18.15 -24L-18.05 -24L-18 -23.95L-18.15 -23.8L-18.25 -23.7L-18.3 -23.6L-18.35 -23.6L-18.35 -23.5L-18.3 -23.45L-18.3 -23.4L-18.2 -23.3L-17.8 -23.2L-17.65 -23.05L-17.7 -23L-17.8 -22.9L-17.85 -22.85L-17.9 -22.8L-17.9 -22.75L-17.95 -22.75L-17.95 -22.65L-18 -22.6L-18 -22.45L-18 -22.3L-18 -22.2L-18.15 -22.05L-18.45 -21.7L-18.55 -21.55L-18.55 -21.45L-18.5 -21.4L-18.5 -21.35L-18.4 -21.25L-18.3 -21.2L-18.2 -21.15L-18.15 -21.1L-18 -20.95L-17.9 -20.9L-17.85 -20.95L-17.8 -20.95L-17.75 -21L-17.7 -21.05L-17.75 -21.2L-17.8 -21.35L-17.85 -21.4L-17.85 -21.45L-17.95 -21.5L-18 -21.5L-18.1 -21.55L-18.05 -21.6L-18.05 -21.65L-17.95 -21.7L-17.9 -21.75L-17.85 -21.8L-17.85 -21.85L-17.75 -21.9L-17.7 -22L-17.65 -22.05L-17.6 -22.1L-17.6 -22.2L-17.6 -22.35L-17.6 -22.45L-17.6 -22.55L-17.6 -22.6L-17.55 -22.6L-17.5 -22.7L-17.4 -22.75L-17.35 -22.85L-17.3 -22.9L-17.3 -22.95L-17.25 -22.95L-17.25 -23L-17.2 -23.05L-17.2 -23.25L-17.35 -23.4L-17.7 -23.55L-17.8 -23.65L-17.7 -23.7L-17.65 -23.8L-17.6 -23.85L-17.55 -23.9L-17.55 -24.1L-17.6 -24.1L-17.6 -24.15L-17.65 -24.2L-17.65 -24.25L-17.7 -24.25L-17.75 -24.3L-17.85 -24.35L-18 -24.4L-18.15 -24.4L-18.2 -24.35M-13.2,-17.15L-20.6 -19.2L-19.2 -25.4L-15.1 -24.6L-14.8 -24.6L-15 -25.2L-15 -28.4L-11.45 -28L-11.45 -30.1L-7.4 -30.6L-7.4 -32.8L-3.6 -32.4L-3.1 -30.95L0.4 -33L0.7 -30.75L4.8 -31L5.05 -29.1L10.2 -29L10.2 -27L13.4 -27L13.4 -25.15L14.8 -26L15.2 -25.8L19.2 -22.6L18.05 -21.45L17.4 -20.1L19.2 -18.1L18 -15L20.6 -11.9L18.2 -8.1L19.55 -4.5L18.2 -3.75L19.8 -1.6L17.3 0L15.15 -2.1L14.2 -2.6L0.8 -9.35L-0.6 -10.2L-5.75 -13.3L-11.9 -14.5L-13.2 -17.15M-13,-23.25L-13.05 -23.2L-13.05 -23.15L-13 -23.1L-13 -23.05L-13.05 -23L-13.05 -22.95L-13.1 -22.85L-13.1 -22.75L-13.15 -22.75L-13.15 -22.6L-13.15 -22.45L-13.1 -22.35L-13.05 -22.3L-12.95 -22.25L-12.9 -22.3L-12.85 -22.3L-12.75 -22.4L-12.75 -22.45L-12.75 -22.55L-12.75 -22.7L-12.7 -22.7L-12.7 -22.75L-12.65 -22.8L-12.65 -22.9L-12.6 -22.95L-12.6 -23L-12.6 -23.1L-12.6 -23.2L-12.7 -23.3L-12.75 -23.35L-12.85 -23.4L-12.9 -23.35L-12.95 -23.35L-13 -23.3L-13 -23.25M-4.7,-30.4L-4.75 -30.35L-4.8 -30.35L-4.85 -30.3L-4.85 -30.25L-4.9 -30.2L-4.85 -30.1L-4.85 -29.95L-5 -29.6L-5.15 -29.3L-5.15 -29.2L-5.15 -29.1L-5.1 -29L-5 -28.9L-4.95 -28.85L-4.85 -28.8L-4.75 -28.8L-4.7 -28.8L-4.7 -28.75L-4.55 -28.65L-4.45 -28.55L-4.45 -28.5L-4.4 -28.45L-4.4 -28.35L-4.4 -28.25L-4.35 -28.15L-4.3 -28.1L-4.2 -28.05L-4.15 -28.1L-4.1 -28.1L-4 -28.2L-4 -28.35L-4 -28.5L-4 -28.55L-4.2 -28.8L-4.45 -29.1L-4.65 -29.15L-4.75 -29.25L-4.6 -29.6L-4.45 -29.85L-4.45 -30L-4.45 -30.15L-4.5 -30.3L-4.55 -30.35L-4.65 -30.4L-4.7 -30.4M-9.5,-29L-9.5 -28.9L-9.5 -28.8L-9.45 -28.75L-9.4 -28.7Q-9.2 -28.55 -8.9 -28.55L-8.9 -28.5L-8.85 -28.5L-8.85 -28.45L-8.85 -28.35L-8.9 -28.3L-8.95 -28.25L-9.15 -28.1L-9.25 -28.05L-9.45 -27.85L-9.5 -27.8L-9.55 -27.7L-9.55 -27.65L-9.6 -27.6L-9.6 -27.55L-9.5 -27.45L-9.4 -27.4L-9.3 -27.35L-9.3 -27.3L-9.4 -27.2L-9.5 -27.15L-9.65 -26.95L-9.7 -26.95L-9.7 -26.85L-9.7 -26.75L-9.65 -26.65L-9.6 -26.6L-9.55 -26.5L-9.5 -26.4L-9.5 -26.35L-9.45 -26.35L-9.45 -26.15L-9.35 -26.05L-9.25 -26L-9.2 -26.05L-9.15 -26.05L-9.05 -26.15L-9.05 -26.2L-9.05 -26.3L-9.05 -26.45L-9.1 -26.45L-9.1 -26.5L-9.15 -26.6L-9.2 -26.65L-9.25 -26.75L-9.25 -26.85L-9.1 -27L-9 -27.1L-8.9 -27.25L-8.9 -27.5L-8.95 -27.5L-8.95 -27.55L-9 -27.6L-9 -27.65L-9.05 -27.65L-8.9 -27.8L-8.8 -27.9L-8.6 -28.1L-8.55 -28.15L-8.55 -28.2L-8.5 -28.25L-8.45 -28.3L-8.45 -28.5L-8.45 -28.6L-8.5 -28.7L-8.55 -28.75L-8.75 -28.85Q-9 -28.9 -9.15 -29.05L-9.2 -29.1L-9.3 -29.15L-9.4 -29.1L-9.5 -29M-9.05,-23.45L-9 -23.45L-9 -23.4L-8.95 -23.35L-8.8 -23.25L-8.75 -23.2L-9.2 -22.8L-9.6 -22.4L-9.6 -22.3L-9.65 -22.25L-9.65 -22.1L-9.6 -22.1L-9.6 -22.05L-9.3 -21.9L-9.05 -21.8L-9.1 -21.45L-9.1 -20.95L-9.05 -20.45L-9 -20.4L-8.9 -20.35L-8.85 -20.4L-8.8 -20.4L-8.7 -20.5L-8.7 -20.75L-8.7 -21.25L-8.7 -21.7L-8.7 -21.75L-8.65 -21.8L-8.65 -22L-8.7 -22L-8.7 -22.05L-8.75 -22.1L-8.9 -22.2L-9.2 -22.25L-8.8 -22.65L-8.4 -23L-8.35 -23.05L-8.35 -23.15L-8.35 -23.25L-8.35 -23.35L-8.45 -23.45L-8.5 -23.5L-8.55 -23.6L-8.7 -23.65L-8.85 -23.7L-8.9 -23.65L-8.95 -23.65L-9 -23.6L-9 -23.55L-9.05 -23.55L-9.05 -23.45M-4.25,-25.45L-4.25 -25.35L-4.25 -25.3L-4.2 -25.25L-4.2 -25.2L-4.15 -25.2L-4.15 -25.05L-4.15 -24.95L-4.15 -24.9L-4.2 -24.8L-4.25 -24.75L-4.25 -24.7L-4.3 -24.65L-4.35 -24.6L-4.4 -24.5L-4.5 -24.4L-4.55 -24.3L-4.6 -24.3L-4.6 -24.2L-4.55 -24.15L-4.55 -24.1L-4.4 -23.95L-4.35 -23.9L-4.35 -23.6L-4.4 -23.55L-4.4 -23.4L-4.45 -23.3L-4.45 -23.15L-4.4 -23.1L-4.35 -23.05L-4.3 -22.95L-4.25 -22.95L-4.25 -22.8L-4.25 -22.7L-4.2 -22.55L-4.15 -22.5L-4.05 -22.45L-3.95 -22.5L-3.9 -22.55L-3.85 -22.6L-3.85 -22.7L-3.85 -22.9L-3.85 -23.05L-3.9 -23.15L-4 -23.3L-4 -23.45L-4 -23.55L-3.95 -23.55L-3.95 -23.7L-3.95 -23.95L-4 -24.15L-4.05 -24.2L-4.1 -24.25L-4.1 -24.35L-4.05 -24.35L-4.05 -24.4L-4 -24.45L-3.85 -24.7L-3.75 -24.9L-3.75 -25.05L-3.75 -25.2L-3.75 -25.3L-3.85 -25.4L-3.9 -25.5L-3.95 -25.55L-4.05 -25.6L-4.15 -25.55L-4.25 -25.45M-1,-28.55L-1.05 -28.6L-1.15 -28.65L-1.25 -28.6L-1.3 -28.55L-1.35 -28.4L-1.35 -28.3L-1.3 -28.3L-1.3 -28.15L-1.25 -28.1L-1.25 -28.05L-1.2 -28L-1.2 -27.95L-1.15 -27.95L-1.15 -27.9L-1.1 -27.85L-0.95 -27.7L-0.9 -27.65L0 -27.5L0 -27.45L0.1 -27.35L0.2 -27.3L0.25 -27.35L0.3 -27.35L0.35 -27.4L0.4 -27.45L0.4 -27.5L0.45 -27.55L0.5 -27.6L0.5 -27.8L0.45 -27.85L0.4 -27.9L-0.65 -27.95L-0.7 -28L-0.75 -28L-0.75 -28.05L-0.85 -28.15L-0.9 -28.25L-0.9 -28.35L-0.95 -28.4L-0.95 -28.5L-1 -28.55M-1.1,-22.4L-1.15 -22.35L-1.2 -22.35L-1.25 -22.3L-1.25 -22.25L-1.3 -22.2L-1.3 -22.05L-1.25 -21.95L-1.3 -21.95L-1.35 -21.9L-1.45 -21.9L-1.5 -21.85L-1.55 -21.85L-1.6 -21.8L-1.6 -21.75L-1.65 -21.7L-1.65 -21.65L-1.55 -21.55L-1.45 -21.5L-1.4 -21.5L-1.25 -21.5L-1.25 -21.25L-1.4 -21.2L-1.9 -20.9L-1.95 -20.85L-1.95 -20.7L-1.9 -20.6L-1.85 -20.55L-1.8 -20.5L-1.8 -20.45L-1.75 -20.4L-1.6 -20.25L-1.5 -20.15L-1.25 -20.1L-1.15 -20.15L-1.05 -20.25L-1 -20.25L-0.95 -20.35L-0.9 -20.5L-0.85 -20.55L-0.85 -20.6L-0.85 -20.7L-0.85 -20.8L-0.85 -20.85L-0.8 -20.8L-0.75 -20.75L-0.7 -20.75L-0.65 -20.65L-0.65 -20.55L-0.65 -20.5L-0.6 -20.45L-0.6 -20.4L-0.55 -20.35L-0.65 -20.3L-0.65 -20.2L-0.7 -20.15L-0.7 -20.1L-0.6 -20L-0.35 -20L-0.3 -20L-0.25 -20.05L-0.2 -20.1L-0.15 -20.15L-0.15 -20.25L-0.15 -20.35L-0.15 -20.45L-0.35 -20.8L-0.85 -21.25L-0.85 -21.35L-0.85 -21.55L-0.6 -21.55L-0.55 -21.55L-0.45 -21.65L-0.45 -21.7L-0.4 -21.75L-0.4 -21.8L-0.45 -21.85L-0.5 -21.9L-0.6 -21.95L-0.85 -21.95L-0.85 -22L-0.9 -22L-0.9 -22.25L-0.95 -22.3L-1 -22.35L-1.1 -22.4M8.4,-22.8L8.45 -22.85L8.45 -22.95L8.45 -23.35L8.45 -23.65L8.4 -23.7L8.35 -23.9L8.3 -24L8.25 -24.05L8.15 -24.1L8 -24.1L8 -24.15L8 -24.7L8 -24.85L8.1 -24.85L8.25 -24.8L8.35 -24.9L8.35 -24.95L8.4 -25L8.4 -25.05L8.35 -25.1L8.3 -25.15L8.2 -25.2L7.95 -25.25L7.95 -25.3L7.95 -25.45L7.95 -25.6L7.9 -25.75L7.85 -25.8L7.75 -25.85L7.7 -25.8L7.65 -25.8L7.6 -25.75L7.6 -25.7L7.55 -25.65L7.55 -25.35L7.55 -25.3L7 -25.35L6.95 -25.3L6.9 -25.3L6.85 -25.25L6.85 -25.2L6.8 -25.15L6.8 -25.1L6.9 -25L7 -25L7.6 -24.95L7.6 -24.6L7.6 -24.2L7.55 -24.15L7.55 -24.1L6.8 -23.9L6.6 -23.7L6.55 -23.55L6.55 -23.45L6.55 -23.25L6.6 -23.15L6.65 -23.1L6.75 -23.1L7.55 -23.4L7.55 -23.45L7.65 -23.55L7.7 -23.6L7.75 -23.65L8.05 -23.65L8.05 -23.5L8.05 -23.1L8.1 -22.8L8.15 -22.75L8.25 -22.7L8.3 -22.75L8.35 -22.75L8.4 -22.75L8.4 -22.8M2.5,-21.95L2.45 -21.9L2.4 -21.9L2.35 -21.85L2.35 -21.8L2.3 -21.8L2.3 -21.7L2.3 -21.4L2.35 -21.15Q2.6 -20.9 2.95 -21L3.05 -21.1L3.1 -21.2L3.1 -21.25L3.05 -21.3L3 -21.35L2.9 -21.4L2.7 -21.4L2.7 -21.55L2.7 -21.7L2.65 -21.85L2.6 -21.9L2.5 -21.95M4.2,-22L4.15 -22L4.1 -21.95L4.05 -21.95L4 -21.9L4 -21.85L3.95 -21.85L3.95 -21.75L4 -21.7L4 -21.65L3.95 -21.55L3.85 -21.4L3.8 -21.35L3.75 -21.3L3.65 -21.2L3.65 -21.15L3.6 -21.05L3.6 -20.95L3.65 -20.85L3.8 -20.7L4 -20.55L4.05 -20.5L4.1 -20.45L4.15 -20.4L4.05 -20.4L4 -20.35L3.95 -20.35L3.9 -20.3L3.9 -20.25L3.85 -20.2L3.85 -20.15L3.95 -20.05L4.15 -20.05L4.6 -20.25L4.6 -20.35L4.6 -20.4L4.6 -20.5L4.55 -20.55L4.5 -20.6L4.5 -20.7L4.25 -20.8L4.05 -21.05L4.05 -21.1L4.1 -21.15L4.3 -21.45L4.4 -21.6L4.4 -21.75L4.4 -21.8L4.35 -21.9L4.3 -21.95L4.2 -22M6.85,-21.9L6.85 -21.85L6.8 -21.8L6.8 -21.75L6.9 -21.65L7 -21.6L7.05 -21.6L8.05 -21.65L8.1 -21.6L8.1 -21.5L7.8 -21.3L7.45 -21L7.45 -20.95L7.4 -20.9L7.4 -20.7L7.4 -20.6L7.5 -20.5L7.7 -20.5L7.9 -20.55L7.95 -20.55L8 -20.6L8.1 -20.6L8.15 -20.65L8.2 -20.65L8.25 -20.7L8.3 -20.75L8.35 -20.8L8.35 -20.85L8.45 -20.9L8.55 -21L8.55 -21.15L9.5 -21.15L9.5 -20.95L9.5 -20.8L9.45 -20.75L9.25 -20.7L9.05 -20.55L9 -20.5L9 -20.45L9.1 -20.35L9.2 -20.3L9.3 -20.35L9.75 -20.45L9.85 -20.55L9.9 -20.6L9.9 -20.7L9.9 -21.05L9.9 -21.15L10.45 -21.15L10.55 -21.25L10.55 -21.3L10.6 -21.35L10.6 -21.4L10.55 -21.45L10.5 -21.5L10.4 -21.5L9.85 -21.5L9.85 -21.65L9.8 -21.75L9.75 -21.85L9.7 -21.9L9.6 -21.95L9.55 -21.9L9.5 -21.9L9.45 -21.85L9.45 -21.8L9.4 -21.75L9.4 -21.7L9.45 -21.65L9.45 -21.55L8.5 -21.55L8.5 -21.7L8.45 -21.7L8.45 -21.75L8.4 -21.8L8.4 -21.9L8.25 -22.05L8.15 -22.1L7.45 -22.1L6.95 -21.95L6.9 -21.95L6.85 -21.9M10.15,-25.9L10.45 -24.55L11.15 -25.35L10.15 -25.9M8.9,-24.9L8.8 -24.95L8.7 -24.9L8.65 -24.85L8.6 -24.75L8.6 -24.35L8.65 -24L8.7 -23.95L8.8 -23.9L8.9 -23.95L8.95 -24L9 -24.05L9 -24.1L9 -24.55L8.95 -24.85L8.9 -24.9M13.35,-22.35L13.25 -22.4L13.2 -22.4L13.15 -22.35L13.1 -22.35L13.05 -22.3L13.05 -22.25L13 -22.2L13 -22.15L13.35 -21.85L13.5 -21.6L13.5 -21.45L13.45 -21.35L13.45 -21.3L13.5 -21.2L13.55 -21.15L13.65 -21.1L13.7 -21.1L13.75 -21.15L13.8 -21.15L13.9 -21.25L13.9 -21.35L13.9 -21.5L13.9 -21.65L13.9 -21.75L13.85 -21.8L13.8 -21.85L13.8 -21.9L13.75 -21.95L13.75 -22L13.6 -22.15L13.45 -22.25L13.35 -22.35M17.8,-11.5L17.75 -11.5L17.7 -11.45L17.7 -11.4L17.65 -11.4L17.65 -11.35L17.6 -11.3L17.4 -11.25L16.6 -10.85L16.5 -10.85L16.5 -10.9L16.45 -10.9L16.45 -10.95L16.3 -11.1L16.25 -11.2L16.2 -11.25L16.1 -11.3L16.05 -11.25L16 -11.25L15.95 -11.2L15.95 -11.15L15.9 -11.1L15.95 -11L16.05 -10.85L16.1 -10.8L16.1 -10.75L16.15 -10.7L16.15 -10.65L16.3 -10.5L16.65 -10.5L16.75 -10.5L16.95 -10.65L17.8 -11L17.85 -11.05L18 -11.2L18.1 -11.25L18.1 -11.3L18.15 -11.35L18.15 -11.4L18.1 -11.45L18.05 -11.5L17.95 -11.55L17.85 -11.55L17.8 -11.5M15.85,-15.7L15.75 -15.65L15.6 -15.55L15.4 -15.4L15.35 -15.35L15.2 -15.35L15.15 -15.3L15.1 -15.3L15.05 -15.25L15.05 -15.2L15 -15.15L15 -15.1L15.1 -15Q15.45 -14.9 15.7 -15.15L15.8 -15.25L15.9 -15.3L16 -15.25L16 -15.15L16 -15L16 -14.95L16.1 -14.85L16.35 -14.85L16.5 -14.9L16.55 -14.95L16.65 -14.95L16.85 -15L16.9 -15L17 -15.1L17 -15.15L17.05 -15.2L17.05 -15.25L17 -15.3L16.95 -15.35L16.85 -15.4L16.4 -15.3L16.4 -15.45L16.35 -15.45L16.35 -15.5L16.3 -15.6L16.25 -15.6L16.2 -15.65L16.1 -15.7L15.85 -15.7M9.2,-18.3L9.15 -18.25L9.15 -18.2L9.1 -18.15L9.1 -18.1L9.2 -18L9.55 -17.95L9.6 -17.95L9.7 -18.05L9.7 -18.1L9.75 -18.15L9.75 -18.2L9.7 -18.25L9.65 -18.3L9.55 -18.35L9.3 -18.35L9.25 -18.3L9.2 -18.3M8.6,-18.4L8.55 -18.5L8.55 -18.55L8.5 -18.6L8.4 -18.65L8.35 -18.6L8.3 -18.6L8.25 -18.55L8.25 -18.5L8.2 -18.45L8.2 -18.3L8.15 -18.3L8.15 -18.15L8.1 -18.1L8.1 -18L8.05 -18L8.05 -17.8L8 -17.75L8 -17.65L8 -17.4L8 -17.25L8.1 -17.15L8.3 -16.95L9.15 -16.95Q9.35 -16.95 9.5 -17.1L9.55 -17.2L9.55 -17.25L9.5 -17.3L9.45 -17.35L9.35 -17.4L9.3 -17.4L9.2 -17.35L9.1 -17.3L8.45 -17.3L8.4 -17.35L8.4 -17.45L8.4 -17.6L8.4 -17.75L8.45 -17.8L8.45 -17.95L8.5 -18L8.5 -18.1L8.55 -18.1L8.55 -18.2L8.55 -18.25L8.6 -18.25L8.6 -18.3L8.6 -18.4M10.6,-18.1L10.65 -18.2L10.65 -18.25L10.6 -18.3L10.55 -18.35L10.45 -18.4L10.4 -18.35L10.35 -18.35L10.3 -18.3L10.3 -18.25L10.25 -18.2L10.25 -18.15L10.35 -18.05L10.45 -18L10.5 -18L10.6 -18.1M11.9,-15.65L11.95 -15.8L11.8 -15.6L11.9 -15.65M12.2,-12.2L12.15 -12.15L12.15 -12.05L12.2 -12L12.2 -11.9L12.2 -11.8L12.2 -11.65L12.2 -11.55L12.15 -11.45L12.15 -11.25L12.2 -11.1L12.25 -11L12.3 -10.95L12.35 -10.9L12.5 -10.8L12.6 -10.75L12.65 -10.7L12.65 -10.65L12.7 -10.6L12.8 -10.5L12.85 -10.45L12.85 -10.3L12.95 -10.2L13.05 -10.15L13.1 -10.15L13.15 -10.2L13.2 -10.2L13.25 -10.25L13.25 -10.3L13.3 -10.3L13.3 -10.35L13.25 -10.45L13.25 -10.5L13.2 -10.6L13.1 -10.75L13.05 -10.8L13 -10.85L12.95 -10.9L12.8 -11.05L12.55 -11.25L12.55 -11.35L12.55 -11.45L12.6 -11.5L12.6 -11.55L12.6 -11.8L12.6 -12L12.55 -12.15L12.5 -12.25L12.45 -12.3L12.35 -12.35L12.3 -12.3L12.25 -12.3L12.2 -12.25L12.2 -12.2M13,-6.5L12.9 -6.45L12.8 -6.35L12.8 -6.25L12.8 -6.1L12.85 -6L12.9 -5.95L13.3 -5.9L13.4 -6L13.45 -5.9Q13.6 -5.75 13.85 -5.7L13.95 -5.75L14 -5.8L14.05 -5.85L14.05 -5.9L14 -5.95L14 -6L13.9 -6.05L13.75 -6.15L13.75 -6.3L13.7 -6.35L13.65 -6.4L13.55 -6.45L13.45 -6.4L13.4 -6.35L13.35 -6.25L13.25 -6.3L13.2 -6.35L13.15 -6.4L13.1 -6.45L13 -6.5M12.65,-5.75L12.6 -5.8L12.5 -5.85L11.7 -5.85L11.7 -5.95L11.7 -6.25L11.65 -6.5L11.6 -6.55L11.5 -6.6L11.45 -6.55L11.4 -6.55L11.35 -6.5L11.35 -6.45L11.3 -6.4L11.3 -6.35L11.3 -5.95L11.35 -5.55L11.4 -5.5L12.55 -5.45L12.7 -5.6L12.7 -5.7L12.65 -5.75M16.4,-5.7L16.35 -5.75L16.25 -5.8L15.85 -5.8L15.8 -5.75L15.75 -5.75L15.6 -5.65L15.45 -5.45L15.4 -5.4L15.4 -5.3L15.35 -5.25L15.35 -5.1L15.35 -5.05L15.4 -5L15.45 -4.9L15.5 -4.85L15.9 -4.85L15.95 -4.85L16 -4.9L16.05 -4.95L16.05 -5.05L16 -5.1L15.95 -5.2L15.9 -5.25L15.8 -5.3L15.85 -5.3L15.85 -5.35L16.15 -5.4L16.25 -5.35L16.35 -5.4L16.4 -5.45L16.45 -5.5L16.45 -5.65L16.4 -5.7M9.25,-8.5L9.15 -8.55L9.1 -8.5L9.05 -8.5L9 -8.45L9 -8.4L8.95 -8.4L8.95 -7.8L8.95 -7.65L8 -7.75L8.05 -7.8L8.05 -7.85L8.25 -8.05L8.25 -8.1L8.25 -8.45L8.25 -8.65L8.25 -8.7L8.1 -8.85L8 -8.9L7.65 -8.9L7.55 -8.85L7.45 -8.75L7.45 -8.7L7.4 -8.65L7.4 -8.6L7.5 -8.5L7.6 -8.45L7.85 -8.45L7.85 -8.35L7.85 -8.2L7.75 -8.1L7.7 -8L7.65 -7.95L7.65 -7.9L7.55 -7.9L7.5 -7.9L6.8 -8.1L6.65 -8L6.6 -7.9L6.6 -7.75L6.65 -7.6L6.65 -7.45L6.7 -7.4L6.8 -7.3L6.85 -7.25Q7.25 -7.15 7.6 -7.4L7.7 -7.45L8.15 -7.4L8.9 -7.25L8.75 -7.1L8.65 -7L8.65 -6.95L8.6 -6.9L8.55 -6.8L8.5 -6.7L8.45 -6.6L8.45 -6.55L8.55 -6.45L8.65 -6.4L8.7 -6.45L8.75 -6.45L8.8 -6.5L8.85 -6.5L8.85 -6.55L8.95 -6.7L9 -6.8L9.05 -6.85L9.2 -7L9.25 -7.1L9.3 -7.15L9.55 -7.25L9.6 -7.3L9.6 -7.35L9.65 -7.35L9.65 -7.4L9.75 -7.5L9.75 -7.6L9.7 -7.65L9.65 -7.7L9.35 -7.65L9.35 -7.9L9.3 -8.45L9.25 -8.5M4.7,-17.4L4.55 -18.35L4.45 -16.9L4.7 -17.4M7.15,-18.45L7.1 -18.5L7.05 -18.55L6.95 -18.6L6.9 -18.6L6.8 -18.55L6.7 -18.5L6.2 -18.25L5.95 -18L5.95 -17.95L5.85 -17.9L5.8 -17.85L5.8 -17.8L5.75 -17.7L5.75 -17.65L5.8 -17.55Q6.3 -17.25 6.9 -17.25L7 -17.3L7.05 -17.35L7.1 -17.4L7.1 -17.55L7.05 -17.6L7 -17.65L6.3 -17.75L6.45 -17.9L7.1 -18.3L7.1 -18.35L7.15 -18.4L7.15 -18.45M0.1,-21.6L0.05 -21.7L0 -21.75L-0.05 -21.8L-0.15 -21.85L-0.2 -21.85L-0.3 -21.8L-0.4 -21.7L-0.4 -21.65L-0.35 -21.6L-0.35 -21.5L-0.3 -21.5L-0.3 -21.45L-0.25 -21.4L-0.2 -21.35L-0.2 -21.25L-0.2 -21.15L-0.2 -20.9L-0.15 -20.75L-0.1 -20.7L0 -20.65L0.1 -20.7L0.15 -20.75L0.2 -20.8L0.2 -20.95L0.2 -21.15L0.2 -21.3L0.15 -21.45L0.15 -21.5L0.1 -21.6M-1.25,-20.8L-1.25 -20.65L-1.3 -20.6L-1.3 -20.55L-1.4 -20.55L-1.45 -20.6L-1.45 -20.65L-1.5 -20.65L-1.5 -20.75L-1.45 -20.8L-1.4 -20.8L-1.3 -20.85L-1.25 -20.8M-2.5,-18.95L-1.85 -18.95L-1.85 -18.75L-1.8 -18.7L-1.8 -18.45L-1.9 -18.45L-2.4 -18.3L-2.45 -18.3L-2.5 -18.25L-2.55 -18.2L-2.55 -18.15L-2.6 -18.1L-2.6 -17.9L-2.6 -17.8L-2.55 -17.75L-2.55 -17.7L-2.45 -17.55L-2.35 -17.45L-2.3 -17.45L-2.15 -17.35L-2.1 -17.35L-1.65 -17.45L-1.6 -17.45L-1.55 -17.5L-1.5 -17.5L-1.45 -17.6L-1.45 -17.7L-1.4 -17.7L-1.4 -17.75L-1.4 -17.85L-1.4 -17.95L-1.4 -18.05L-1.4 -18.1L-1.05 -18.1L-0.95 -18.1L-0.95 -17.85L-0.9 -17.6L-0.85 -17.55L-0.75 -17.5L-0.7 -17.55L-0.65 -17.55L-0.6 -17.6L-0.55 -17.65L-0.55 -17.7L-0.55 -17.8L-0.55 -18.05L-0.55 -18.15L-0.35 -18.15L-0.25 -18.25L-0.25 -18.3L-0.2 -18.35L-0.2 -18.4L-0.25 -18.45L-0.3 -18.5L-0.65 -18.55L-0.7 -18.6L-0.75 -18.8L-0.75 -18.85L-0.75 -18.95L-0.8 -19.05L-0.8 -19.1L-0.85 -19.15L-0.95 -19.2L-1 -19.15L-1.05 -19.15L-1.1 -19.1L-1.1 -19.05L-1.15 -18.95L-1.15 -18.8L-1.15 -18.75L-1.1 -18.65L-1 -18.5L-1.05 -18.5L-1.4 -18.5L-1.4 -18.6L-1.4 -18.7L-1.45 -18.8L-1.5 -18.95L-1.5 -19.15L-1.65 -19.3L-1.75 -19.35L-2.15 -19.35L-2.25 -19.3L-2.45 -19.25L-2.5 -19.25L-2.55 -19.2L-2.55 -19.15L-2.6 -19.1L-2.6 -19.05L-2.5 -18.95M-1.9,-18.05L-1.8 -18L-1.8 -17.8L-2.1 -17.75L-2.15 -17.8L-2.15 -17.85L-2.2 -17.9L-2.2 -17.95L-2.05 -18L-1.9 -18.05M1.4,-14.2L1.55 -14.25L1.6 -14.25L1.65 -14.3L1.7 -14.35L1.7 -14.45L1.65 -14.45L1.65 -14.5L1.6 -14.6L1.55 -14.6L1.5 -14.65L1.4 -14.7L0.9 -14.7L0.8 -14.65L0.7 -14.55L0.7 -14.5L0.65 -14.45L0.65 -14.4L0.7 -14.35L0.75 -14.3L0.8 -14.25L0.8 -14.2L0.7 -14.1L0.65 -14.05L0.65 -14L0.6 -13.9L0.6 -13.7L0.6 -13.6L0.65 -13.55L0.65 -13.5L0.7 -13.45L0.7 -13.4L0.75 -13.4L0.8 -13.35L0.8 -13.3L0.85 -13.3L0.85 -13.25L0.9 -13.2L0.9 -13.15L0.95 -13.1L0.95 -12.95L0.9 -12.9L0.9 -12.7L0.85 -12.65L0.7 -12.55L0.35 -12.45L0.3 -12.45L0.25 -12.4L0.25 -12.35L0.2 -12.3L0.2 -12.25L0.3 -12.15L0.9 -12.1L0.75 -12L0.65 -11.9L0.65 -11.85L0.6 -11.6L0.6 -11.3L0.6 -10.95L0.65 -10.95L0.65 -10.9L0.75 -10.8L1.45 -10.7L1.5 -10.7L1.6 -10.8L1.6 -10.9L1.6 -11.15L1.55 -11.35L1.55 -11.4L1.5 -11.45L1.75 -11.5L1.8 -11.55L1.85 -11.6L1.95 -11.55L2.05 -11.6L2.1 -11.6L2.1 -11.65L2.15 -11.7L2.15 -11.75L2.1 -11.8L2.05 -11.9L2 -11.95L1.9 -12L1.75 -12L1.7 -11.95L1.65 -11.95L1.6 -11.9L1.6 -11.85L1.45 -11.85L1.35 -11.8L1.3 -11.75L1.3 -11.7L1.25 -11.65L1.25 -11.6L1.4 -11.45L1.3 -11.45L1.25 -11.4L1.2 -11.3L1.2 -11.2L1.2 -11.1L1.1 -11.1L1 -11.15L1 -11.25L1 -11.5L1 -11.65L1.1 -11.8L1.2 -11.85L1.25 -11.9L1.25 -11.95L1.3 -12L1.3 -12.05L1.35 -12.15L1.35 -12.25L1.3 -12.35L1.3 -12.4L1.25 -12.45L1.25 -12.6L1.3 -12.65L1.3 -12.85L1.35 -12.85L1.35 -13L1.35 -13.15L1.35 -13.25L1.3 -13.3L1.25 -13.35L1.2 -13.4L1.2 -13.45L1.15 -13.45L1.15 -13.5L1.1 -13.55L1.05 -13.6L1 -13.65L1 -13.9L1.05 -13.9L1.1 -13.95L1.1 -14L1.25 -14.1L1.3 -14.1L1.3 -14.15L1.4 -14.2M4.1,-9.95L4.2 -9.85L4.3 -9.8L4.65 -9.8L4.7 -9.8L4.9 -9.7L5 -9.7L5.15 -9.6L5.15 -9.55L5.15 -9.45L4.9 -9.4L4.5 -9.1L4.45 -9.05L4.45 -8.95L4.4 -8.9L4.4 -8.85L4.4 -8.75L4.4 -8.7L4.45 -8.65L4.45 -8.6L4.55 -8.5L5 -8.5L5.3 -8.75L5.45 -9.05L5.55 -9L5.65 -9L5.7 -8.95L5.75 -8.9L5.75 -8.85L5.8 -8.7L5.85 -8.65L5.65 -8.55L5.6 -8.45L5.55 -8.4L5.55 -8.35L5.65 -8.25L5.75 -8.2L5.8 -8.2L6 -8.25L6.1 -8.3L6.15 -8.35L6.2 -8.4L6.25 -8.45L6.25 -8.55L6.25 -8.65L6.25 -8.75L6.2 -8.8L6.1 -9L6.05 -9.1L6 -9.15L5.9 -9.25L6 -9.25L6.1 -9.35L6.1 -9.4L6.15 -9.45L6.15 -9.5L5.55 -9.85L5.6 -9.9L5.6 -9.95L5.6 -10.05L5.55 -10.15L5.55 -10.2L5.5 -10.25L5.4 -10.3L5.35 -10.25L5.3 -10.25L5.25 -10.2L5.25 -10.15L5.2 -10.15L5.2 -10L4.3 -10.2L4.25 -10.15L4.2 -10.15L4.15 -10.1L4.15 -10.05L4.1 -10L4.1 -9.95M-5.55,-18.35L-5.55 -18.4L-5.6 -18.45L-5.65 -18.5L-5.75 -18.55L-6.35 -18.45L-6.4 -18.4L-6.4 -18.35L-6.45 -18.3L-6.45 -18.25L-6.35 -18.15L-5.6 -18.25L-5.55 -18.35M-8.75,-14.7L-8.85 -14.75L-8.95 -14.75L-9.05 -14.7L-9.15 -14.6L-9.15 -14.55L-9.1 -14.5L-9.1 -14.45L-9 -14.4L-8.85 -14.3L-8.8 -14.3L-8.7 -14.35L-8.65 -14.35L-8.65 -14.4L-8.6 -14.45L-8.6 -14.5L-8.65 -14.55L-8.7 -14.65L-8.75 -14.7M6.7,-9.3L6.65 -9.3L6.6 -9.25L6.6 -9.2L6.55 -9.2L6.55 -9.1L6.6 -9.1L6.6 -8.95L6.55 -8.9L6.55 -8.8L6.5 -8.75L6.5 -8.7L6.6 -8.6L6.7 -8.55L6.75 -8.6L6.8 -8.6L6.85 -8.65L6.95 -8.75L7 -8.8L7 -8.95L7 -9.1L6.95 -9.25L6.9 -9.3L6.8 -9.35L6.75 -9.35L6.7 -9.3M4.9,-9L5 -9.05L5.05 -9.05L4.9 -8.9L4.85 -8.9L4.8 -8.85L4.8 -8.9L4.85 -8.9L4.9 -8.95L4.9 -9M7,-7.75L7.05 -7.75L7.15 -7.6L7.05 -7.65L7 -7.7L7 -7.75" />
<path style="fill:#E64A4A;fill-opacity:1" d="M-18.15,-24.4L-18 -24.4L-17.85 -24.35L-17.75 -24.3L-17.7 -24.25L-17.65 -24.25L-17.65 -24.2L-17.6 -24.15L-17.6 -24.1L-17.55 -24.1L-17.55 -23.9L-17.6 -23.85L-17.65 -23.8L-17.7 -23.7L-17.8 -23.65L-17.7 -23.55L-17.35 -23.4L-17.2 -23.25L-17.2 -23.05L-17.25 -23L-17.25 -22.95L-17.3 -22.95L-17.3 -22.9L-17.35 -22.85L-17.4 -22.75L-17.5 -22.7L-17.55 -22.6L-17.6 -22.6L-17.6 -22.55L-17.6 -22.45L-17.6 -22.35L-17.6 -22.2L-17.6 -22.1L-17.65 -22.05L-17.7 -22L-17.75 -21.9L-17.85 -21.85L-17.85 -21.8L-17.9 -21.75L-17.95 -21.7L-18.05 -21.65L-18.05 -21.6L-18.1 -21.55L-18 -21.5L-17.95 -21.5L-17.85 -21.45L-17.85 -21.4L-17.8 -21.35L-17.75 -21.2L-17.7 -21.05L-17.75 -21L-17.8 -20.95L-17.85 -20.95L-17.9 -20.9L-18 -20.95L-18.15 -21.1L-18.2 -21.15L-18.3 -21.2L-18.4 -21.25L-18.5 -21.35L-18.5 -21.4L-18.55 -21.45L-18.55 -21.55L-18.45 -21.7L-18.15 -22.05L-18 -22.2L-18 -22.3L-18 -22.45L-18 -22.6L-17.95 -22.65L-17.95 -22.75L-17.9 -22.75L-17.9 -22.8L-17.85 -22.85L-17.8 -22.9L-17.7 -23L-17.65 -23.05L-17.8 -23.2L-18.2 -23.3L-18.3 -23.4L-18.3 -23.45L-18.35 -23.5L-18.35 -23.6L-18.3 -23.6L-18.25 -23.7L-18.15 -23.8L-18 -23.95L-18.05 -24L-18.15 -24L-18.25 -24.05L-18.35 -24.15L-18.35 -24.2L-18.3 -24.25L-18.3 -24.3L-18.25 -24.35L-18.2 -24.35L-18.15 -24.4M-13,-23.3L-12.95 -23.35L-12.9 -23.35L-12.85 -23.4L-12.75 -23.35L-12.7 -23.3L-12.6 -23.2L-12.6 -23.1L-12.6 -23L-12.6 -22.95L-12.65 -22.9L-12.65 -22.8L-12.7 -22.75L-12.7 -22.7L-12.75 -22.7L-12.75 -22.55L-12.75 -22.45L-12.75 -22.4L-12.85 -22.3L-12.9 -22.3L-12.95 -22.25L-13.05 -22.3L-13.1 -22.35L-13.15 -22.45L-13.15 -22.6L-13.15 -22.75L-13.1 -22.75L-13.1 -22.85L-13.05 -22.95L-13.05 -23L-13 -23.05L-13 -23.1L-13.05 -23.15L-13.05 -23.2L-13 -23.25L-13 -23.3M-4.65,-30.4L-4.55 -30.35L-4.5 -30.3L-4.45 -30.15L-4.45 -30L-4.45 -29.85L-4.6 -29.6L-4.75 -29.25L-4.65 -29.15L-4.45 -29.1L-4.2 -28.8L-4 -28.55L-4 -28.5L-4 -28.35L-4 -28.2L-4.1 -28.1L-4.15 -28.1L-4.2 -28.05L-4.3 -28.1L-4.35 -28.15L-4.4 -28.25L-4.4 -28.35L-4.4 -28.45L-4.45 -28.5L-4.45 -28.55L-4.55 -28.65L-4.7 -28.75L-4.7 -28.8L-4.75 -28.8L-4.85 -28.8L-4.95 -28.85L-5 -28.9L-5.1 -29L-5.15 -29.1L-5.15 -29.2L-5.15 -29.3L-5 -29.6L-4.85 -29.95L-4.85 -30.1L-4.9 -30.2L-4.85 -30.25L-4.85 -30.3L-4.8 -30.35L-4.75 -30.35L-4.7 -30.4L-4.65 -30.4M-9.4,-29.1L-9.3 -29.15L-9.2 -29.1L-9.15 -29.05Q-9 -28.9 -8.75 -28.85L-8.55 -28.75L-8.5 -28.7L-8.45 -28.6L-8.45 -28.5L-8.45 -28.3L-8.5 -28.25L-8.55 -28.2L-8.55 -28.15L-8.6 -28.1L-8.8 -27.9L-8.9 -27.8L-9.05 -27.65L-9 -27.65L-9 -27.6L-8.95 -27.55L-8.95 -27.5L-8.9 -27.5L-8.9 -27.25L-9 -27.1L-9.1 -27L-9.25 -26.85L-9.25 -26.75L-9.2 -26.65L-9.15 -26.6L-9.1 -26.5L-9.1 -26.45L-9.05 -26.45L-9.05 -26.3L-9.05 -26.2L-9.05 -26.15L-9.15 -26.05L-9.2 -26.05L-9.25 -26L-9.35 -26.05L-9.45 -26.15L-9.45 -26.35L-9.5 -26.35L-9.5 -26.4L-9.55 -26.5L-9.6 -26.6L-9.65 -26.65L-9.7 -26.75L-9.7 -26.85L-9.7 -26.95L-9.65 -26.95L-9.5 -27.15L-9.4 -27.2L-9.3 -27.3L-9.3 -27.35L-9.4 -27.4L-9.5 -27.45L-9.6 -27.55L-9.6 -27.6L-9.55 -27.65L-9.55 -27.7L-9.5 -27.8L-9.45 -27.85L-9.25 -28.05L-9.15 -28.1L-8.95 -28.25L-8.9 -28.3L-8.85 -28.35L-8.85 -28.45L-8.85 -28.5L-8.9 -28.5L-8.9 -28.55Q-9.2 -28.55 -9.4 -28.7L-9.45 -28.75L-9.5 -28.8L-9.5 -28.9L-9.5 -29L-9.4 -29.1M-9.05,-23.55L-9 -23.55L-9 -23.6L-8.95 -23.65L-8.9 -23.65L-8.85 -23.7L-8.7 -23.65L-8.55 -23.6L-8.5 -23.5L-8.45 -23.45L-8.35 -23.35L-8.35 -23.25L-8.35 -23.15L-8.35 -23.05L-8.4 -23L-8.8 -22.65L-9.2 -22.25L-8.9 -22.2L-8.75 -22.1L-8.7 -22.05L-8.7 -22L-8.65 -22L-8.65 -21.8L-8.7 -21.75L-8.7 -21.7L-8.7 -21.25L-8.7 -20.75L-8.7 -20.5L-8.8 -20.4L-8.85 -20.4L-8.9 -20.35L-9 -20.4L-9.05 -20.45L-9.1 -20.95L-9.1 -21.45L-9.05 -21.8L-9.3 -21.9L-9.6 -22.05L-9.6 -22.1L-9.65 -22.1L-9.65 -22.25L-9.6 -22.3L-9.6 -22.4L-9.2 -22.8L-8.75 -23.2L-8.8 -23.25L-8.95 -23.35L-9 -23.4L-9 -23.45L-9.05 -23.45L-9.05 -23.55M-4.15,-25.55L-4.05 -25.6L-3.95 -25.55L-3.9 -25.5L-3.85 -25.4L-3.75 -25.3L-3.75 -25.2L-3.75 -25.05L-3.75 -24.9L-3.85 -24.7L-4 -24.45L-4.05 -24.4L-4.05 -24.35L-4.1 -24.35L-4.1 -24.25L-4.05 -24.2L-4 -24.15L-3.95 -23.95L-3.95 -23.7L-3.95 -23.55L-4 -23.55L-4 -23.45L-4 -23.3L-3.9 -23.15L-3.85 -23.05L-3.85 -22.9L-3.85 -22.7L-3.85 -22.6L-3.9 -22.55L-3.95 -22.5L-4.05 -22.45L-4.15 -22.5L-4.2 -22.55L-4.25 -22.7L-4.25 -22.8L-4.25 -22.95L-4.3 -22.95L-4.35 -23.05L-4.4 -23.1L-4.45 -23.15L-4.45 -23.3L-4.4 -23.4L-4.4 -23.55L-4.35 -23.6L-4.35 -23.9L-4.4 -23.95L-4.55 -24.1L-4.55 -24.15L-4.6 -24.2L-4.6 -24.3L-4.55 -24.3L-4.5 -24.4L-4.4 -24.5L-4.35 -24.6L-4.3 -24.65L-4.25 -24.7L-4.25 -24.75L-4.2 -24.8L-4.15 -24.9L-4.15 -24.95L-4.15 -25.05L-4.15 -25.2L-4.2 -25.2L-4.2 -25.25L-4.25 -25.3L-4.25 -25.35L-4.25 -25.45L-4.15 -25.55M-0.95,-28.5L-0.95 -28.4L-0.9 -28.35L-0.9 -28.25L-0.85 -28.15L-0.75 -28.05L-0.75 -28L-0.7 -28L-0.65 -27.95L0.4 -27.9L0.45 -27.85L0.5 -27.8L0.5 -27.6L0.45 -27.55L0.4 -27.5L0.4 -27.45L0.35 -27.4L0.3 -27.35L0.25 -27.35L0.2 -27.3L0.1 -27.35L0 -27.45L0 -27.5L-0.9 -27.65L-0.95 -27.7L-1.1 -27.85L-1.15 -27.9L-1.15 -27.95L-1.2 -27.95L-1.2 -28L-1.25 -28.05L-1.25 -28.1L-1.3 -28.15L-1.3 -28.3L-1.35 -28.3L-1.35 -28.4L-1.3 -28.55L-1.25 -28.6L-1.15 -28.65L-1.05 -28.6L-1 -28.55L-0.95 -28.5M-1,-22.35L-0.95 -22.3L-0.9 -22.25L-0.9 -22L-0.85 -22L-0.85 -21.95L-0.6 -21.95L-0.5 -21.9L-0.45 -21.85L-0.4 -21.8L-0.4 -21.75L-0.45 -21.7L-0.45 -21.65L-0.55 -21.55L-0.6 -21.55L-0.85 -21.55L-0.85 -21.35L-0.85 -21.25L-0.35 -20.8L-0.15 -20.45L-0.15 -20.35L-0.15 -20.25L-0.15 -20.15L-0.2 -20.1L-0.25 -20.05L-0.3 -20L-0.35 -20L-0.6 -20L-0.7 -20.1L-0.7 -20.15L-0.65 -20.2L-0.65 -20.3L-0.55 -20.35L-0.6 -20.4L-0.6 -20.45L-0.65 -20.5L-0.65 -20.55L-0.65 -20.65L-0.7 -20.75L-0.75 -20.75L-0.8 -20.8L-0.85 -20.85L-0.85 -20.8L-0.85 -20.7L-0.85 -20.6L-0.85 -20.55L-0.9 -20.5L-0.95 -20.35L-1 -20.25L-1.05 -20.25L-1.15 -20.15L-1.25 -20.1L-1.5 -20.15L-1.6 -20.25L-1.75 -20.4L-1.8 -20.45L-1.8 -20.5L-1.85 -20.55L-1.9 -20.6L-1.95 -20.7L-1.95 -20.85L-1.9 -20.9L-1.4 -21.2L-1.25 -21.25L-1.25 -21.5L-1.4 -21.5L-1.45 -21.5L-1.55 -21.55L-1.65 -21.65L-1.65 -21.7L-1.6 -21.75L-1.6 -21.8L-1.55 -21.85L-1.5 -21.85L-1.45 -21.9L-1.35 -21.9L-1.3 -21.95L-1.25 -21.95L-1.3 -22.05L-1.3 -22.2L-1.25 -22.25L-1.25 -22.3L-1.2 -22.35L-1.15 -22.35L-1.1 -22.4L-1 -22.35M8.4,-22.75L8.35 -22.75L8.3 -22.75L8.25 -22.7L8.15 -22.75L8.1 -22.8L8.05 -23.1L8.05 -23.5L8.05 -23.65L7.75 -23.65L7.7 -23.6L7.65 -23.55L7.55 -23.45L7.55 -23.4L6.75 -23.1L6.65 -23.1L6.6 -23.15L6.55 -23.25L6.55 -23.45L6.55 -23.55L6.6 -23.7L6.8 -23.9L7.55 -24.1L7.55 -24.15L7.6 -24.2L7.6 -24.6L7.6 -24.95L7 -25L6.9 -25L6.8 -25.1L6.8 -25.15L6.85 -25.2L6.85 -25.25L6.9 -25.3L6.95 -25.3L7 -25.35L7.55 -25.3L7.55 -25.35L7.55 -25.65L7.6 -25.7L7.6 -25.75L7.65 -25.8L7.7 -25.8L7.75 -25.85L7.85 -25.8L7.9 -25.75L7.95 -25.6L7.95 -25.45L7.95 -25.3L7.95 -25.25L8.2 -25.2L8.3 -25.15L8.35 -25.1L8.4 -25.05L8.4 -25L8.35 -24.95L8.35 -24.9L8.25 -24.8L8.1 -24.85L8 -24.85L8 -24.7L8 -24.15L8 -24.1L8.15 -24.1L8.25 -24.05L8.3 -24L8.35 -23.9L8.4 -23.7L8.45 -23.65L8.45 -23.35L8.45 -22.95L8.45 -22.85L8.4 -22.8L8.4 -22.75M2.6,-21.9L2.65 -21.85L2.7 -21.7L2.7 -21.55L2.7 -21.4L2.9 -21.4L3 -21.35L3.05 -21.3L3.1 -21.25L3.1 -21.2L3.05 -21.1L2.95 -21Q2.6 -20.9 2.35 -21.15L2.3 -21.4L2.3 -21.7L2.3 -21.8L2.35 -21.8L2.35 -21.85L2.4 -21.9L2.45 -21.9L2.5 -21.95L2.6 -21.9M4.3,-21.95L4.35 -21.9L4.4 -21.8L4.4 -21.75L4.4 -21.6L4.3 -21.45L4.1 -21.15L4.05 -21.1L4.05 -21.05L4.25 -20.8L4.5 -20.7L4.5 -20.6L4.55 -20.55L4.6 -20.5L4.6 -20.4L4.6 -20.35L4.6 -20.25L4.15 -20.05L3.95 -20.05L3.85 -20.15L3.85 -20.2L3.9 -20.25L3.9 -20.3L3.95 -20.35L4 -20.35L4.05 -20.4L4.15 -20.4L4.1 -20.45L4.05 -20.5L4 -20.55L3.8 -20.7L3.65 -20.85L3.6 -20.95L3.6 -21.05L3.65 -21.15L3.65 -21.2L3.75 -21.3L3.8 -21.35L3.85 -21.4L3.95 -21.55L4 -21.65L4 -21.7L3.95 -21.75L3.95 -21.85L4 -21.85L4 -21.9L4.05 -21.95L4.1 -21.95L4.15 -22L4.2 -22L4.3 -21.95M6.9,-21.95L6.95 -21.95L7.45 -22.1L8.15 -22.1L8.25 -22.05L8.4 -21.9L8.4 -21.8L8.45 -21.75L8.45 -21.7L8.5 -21.7L8.5 -21.55L9.45 -21.55L9.45 -21.65L9.4 -21.7L9.4 -21.75L9.45 -21.8L9.45 -21.85L9.5 -21.9L9.55 -21.9L9.6 -21.95L9.7 -21.9L9.75 -21.85L9.8 -21.75L9.85 -21.65L9.85 -21.5L10.4 -21.5L10.5 -21.5L10.55 -21.45L10.6 -21.4L10.6 -21.35L10.55 -21.3L10.55 -21.25L10.45 -21.15L9.9 -21.15L9.9 -21.05L9.9 -20.7L9.9 -20.6L9.85 -20.55L9.75 -20.45L9.3 -20.35L9.2 -20.3L9.1 -20.35L9 -20.45L9 -20.5L9.05 -20.55L9.25 -20.7L9.45 -20.75L9.5 -20.8L9.5 -20.95L9.5 -21.15L8.55 -21.15L8.55 -21L8.45 -20.9L8.35 -20.85L8.35 -20.8L8.3 -20.75L8.25 -20.7L8.2 -20.65L8.15 -20.65L8.1 -20.6L8 -20.6L7.95 -20.55L7.9 -20.55L7.7 -20.5L7.5 -20.5L7.4 -20.6L7.4 -20.7L7.4 -20.9L7.45 -20.95L7.45 -21L7.8 -21.3L8.1 -21.5L8.1 -21.6L8.05 -21.65L7.05 -21.6L7 -21.6L6.9 -21.65L6.8 -21.75L6.8 -21.8L6.85 -21.85L6.85 -21.9L6.9 -21.95M8.95,-24.85L9 -24.55L9 -24.1L9 -24.05L8.95 -24L8.9 -23.95L8.8 -23.9L8.7 -23.95L8.65 -24L8.6 -24.35L8.6 -24.75L8.65 -24.85L8.7 -24.9L8.8 -24.95L8.9 -24.9L8.95 -24.85M13.45,-22.25L13.6 -22.15L13.75 -22L13.75 -21.95L13.8 -21.9L13.8 -21.85L13.85 -21.8L13.9 -21.75L13.9 -21.65L13.9 -21.5L13.9 -21.35L13.9 -21.25L13.8 -21.15L13.75 -21.15L13.7 -21.1L13.65 -21.1L13.55 -21.15L13.5 -21.2L13.45 -21.3L13.45 -21.35L13.5 -21.45L13.5 -21.6L13.35 -21.85L13 -22.15L13 -22.2L13.05 -22.25L13.05 -22.3L13.1 -22.35L13.15 -22.35L13.2 -22.4L13.25 -22.4L13.35 -22.35L13.45 -22.25M17.85,-11.55L17.95 -11.55L18.05 -11.5L18.1 -11.45L18.15 -11.4L18.15 -11.35L18.1 -11.3L18.1 -11.25L18 -11.2L17.85 -11.05L17.8 -11L16.95 -10.65L16.75 -10.5L16.65 -10.5L16.3 -10.5L16.15 -10.65L16.15 -10.7L16.1 -10.75L16.1 -10.8L16.05 -10.85L15.95 -11L15.9 -11.1L15.95 -11.15L15.95 -11.2L16 -11.25L16.05 -11.25L16.1 -11.3L16.2 -11.25L16.25 -11.2L16.3 -11.1L16.45 -10.95L16.45 -10.9L16.5 -10.9L16.5 -10.85L16.6 -10.85L17.4 -11.25L17.6 -11.3L17.65 -11.35L17.65 -11.4L17.7 -11.4L17.7 -11.45L17.75 -11.5L17.8 -11.5L17.85 -11.55M16.1,-15.7L16.2 -15.65L16.25 -15.6L16.3 -15.6L16.35 -15.5L16.35 -15.45L16.4 -15.45L16.4 -15.3L16.85 -15.4L16.95 -15.35L17 -15.3L17.05 -15.25L17.05 -15.2L17 -15.15L17 -15.1L16.9 -15L16.85 -15L16.65 -14.95L16.55 -14.95L16.5 -14.9L16.35 -14.85L16.1 -14.85L16 -14.95L16 -15L16 -15.15L16 -15.25L15.9 -15.3L15.8 -15.25L15.7 -15.15Q15.45 -14.9 15.1 -15L15 -15.1L15 -15.15L15.05 -15.2L15.05 -15.25L15.1 -15.3L15.15 -15.3L15.2 -15.35L15.35 -15.35L15.4 -15.4L15.6 -15.55L15.75 -15.65L15.85 -15.7L16.1 -15.7M9.25,-18.3L9.3 -18.35L9.55 -18.35L9.65 -18.3L9.7 -18.25L9.75 -18.2L9.75 -18.15L9.7 -18.1L9.7 -18.05L9.6 -17.95L9.55 -17.95L9.2 -18L9.1 -18.1L9.1 -18.15L9.15 -18.2L9.15 -18.25L9.2 -18.3L9.25 -18.3M8.6,-18.3L8.6 -18.25L8.55 -18.25L8.55 -18.2L8.55 -18.1L8.5 -18.1L8.5 -18L8.45 -17.95L8.45 -17.8L8.4 -17.75L8.4 -17.6L8.4 -17.45L8.4 -17.35L8.45 -17.3L9.1 -17.3L9.2 -17.35L9.3 -17.4L9.35 -17.4L9.45 -17.35L9.5 -17.3L9.55 -17.25L9.55 -17.2L9.5 -17.1Q9.35 -16.95 9.15 -16.95L8.3 -16.95L8.1 -17.15L8 -17.25L8 -17.4L8 -17.65L8 -17.75L8.05 -17.8L8.05 -18L8.1 -18L8.1 -18.1L8.15 -18.15L8.15 -18.3L8.2 -18.3L8.2 -18.45L8.25 -18.5L8.25 -18.55L8.3 -18.6L8.35 -18.6L8.4 -18.65L8.5 -18.6L8.55 -18.55L8.55 -18.5L8.6 -18.4L8.6 -18.3M10.5,-18L10.45 -18L10.35 -18.05L10.25 -18.15L10.25 -18.2L10.3 -18.25L10.3 -18.3L10.35 -18.35L10.4 -18.35L10.45 -18.4L10.55 -18.35L10.6 -18.3L10.65 -18.25L10.65 -18.2L10.6 -18.1L10.5 -18M12.2,-12.25L12.25 -12.3L12.3 -12.3L12.35 -12.35L12.45 -12.3L12.5 -12.25L12.55 -12.15L12.6 -12L12.6 -11.8L12.6 -11.55L12.6 -11.5L12.55 -11.45L12.55 -11.35L12.55 -11.25L12.8 -11.05L12.95 -10.9L13 -10.85L13.05 -10.8L13.1 -10.75L13.2 -10.6L13.25 -10.5L13.25 -10.45L13.3 -10.35L13.3 -10.3L13.25 -10.3L13.25 -10.25L13.2 -10.2L13.15 -10.2L13.1 -10.15L13.05 -10.15L12.95 -10.2L12.85 -10.3L12.85 -10.45L12.8 -10.5L12.7 -10.6L12.65 -10.65L12.65 -10.7L12.6 -10.75L12.5 -10.8L12.35 -10.9L12.3 -10.95L12.25 -11L12.2 -11.1L12.15 -11.25L12.15 -11.45L12.2 -11.55L12.2 -11.65L12.2 -11.8L12.2 -11.9L12.2 -12L12.15 -12.05L12.15 -12.15L12.2 -12.2L12.2 -12.25M13.1,-6.45L13.15 -6.4L13.2 -6.35L13.25 -6.3L13.35 -6.25L13.4 -6.35L13.45 -6.4L13.55 -6.45L13.65 -6.4L13.7 -6.35L13.75 -6.3L13.75 -6.15L13.9 -6.05L14 -6L14 -5.95L14.05 -5.9L14.05 -5.85L14 -5.8L13.95 -5.75L13.85 -5.7Q13.6 -5.75 13.45 -5.9L13.4 -6L13.3 -5.9L12.9 -5.95L12.85 -6L12.8 -6.1L12.8 -6.25L12.8 -6.35L12.9 -6.45L13 -6.5L13.1 -6.45M12.7,-5.7L12.7 -5.6L12.55 -5.45L11.4 -5.5L11.35 -5.55L11.3 -5.95L11.3 -6.35L11.3 -6.4L11.35 -6.45L11.35 -6.5L11.4 -6.55L11.45 -6.55L11.5 -6.6L11.6 -6.55L11.65 -6.5L11.7 -6.25L11.7 -5.95L11.7 -5.85L12.5 -5.85L12.6 -5.8L12.65 -5.75L12.7 -5.7M16.45,-5.65L16.45 -5.5L16.4 -5.45L16.35 -5.4L16.25 -5.35L16.15 -5.4L15.85 -5.35L15.85 -5.3L15.8 -5.3L15.9 -5.25L15.95 -5.2L16 -5.1L16.05 -5.05L16.05 -4.95L16 -4.9L15.95 -4.85L15.9 -4.85L15.5 -4.85L15.45 -4.9L15.4 -5L15.35 -5.05L15.35 -5.1L15.35 -5.25L15.4 -5.3L15.4 -5.4L15.45 -5.45L15.6 -5.65L15.75 -5.75L15.8 -5.75L15.85 -5.8L16.25 -5.8L16.35 -5.75L16.4 -5.7L16.45 -5.65M9.3,-8.45L9.35 -7.9L9.35 -7.65L9.65 -7.7L9.7 -7.65L9.75 -7.6L9.75 -7.5L9.65 -7.4L9.65 -7.35L9.6 -7.35L9.6 -7.3L9.55 -7.25L9.3 -7.15L9.25 -7.1L9.2 -7L9.05 -6.85L9 -6.8L8.95 -6.7L8.85 -6.55L8.85 -6.5L8.8 -6.5L8.75 -6.45L8.7 -6.45L8.65 -6.4L8.55 -6.45L8.45 -6.55L8.45 -6.6L8.5 -6.7L8.55 -6.8L8.6 -6.9L8.65 -6.95L8.65 -7L8.75 -7.1L8.9 -7.25L8.15 -7.4L7.7 -7.45L7.6 -7.4Q7.25 -7.15 6.85 -7.25L6.8 -7.3L6.7 -7.4L6.65 -7.45L6.65 -7.6L6.6 -7.75L6.6 -7.9L6.65 -8L6.8 -8.1L7.5 -7.9L7.55 -7.9L7.65 -7.9L7.65 -7.95L7.7 -8L7.75 -8.1L7.85 -8.2L7.85 -8.35L7.85 -8.45L7.6 -8.45L7.5 -8.5L7.4 -8.6L7.4 -8.65L7.45 -8.7L7.45 -8.75L7.55 -8.85L7.65 -8.9L8 -8.9L8.1 -8.85L8.25 -8.7L8.25 -8.65L8.25 -8.45L8.25 -8.1L8.25 -8.05L8.05 -7.85L8.05 -7.8L8 -7.75L8.95 -7.65L8.95 -7.8L8.95 -8.4L9 -8.4L9 -8.45L9.05 -8.5L9.1 -8.5L9.15 -8.55L9.25 -8.5L9.3 -8.45M7.15,-18.4L7.1 -18.35L7.1 -18.3L6.45 -17.9L6.3 -17.75L7 -17.65L7.05 -17.6L7.1 -17.55L7.1 -17.4L7.05 -17.35L7 -17.3L6.9 -17.25Q6.3 -17.25 5.8 -17.55L5.75 -17.65L5.75 -17.7L5.8 -17.8L5.8 -17.85L5.85 -17.9L5.95 -17.95L5.95 -18L6.2 -18.25L6.7 -18.5L6.8 -18.55L6.9 -18.6L6.95 -18.6L7.05 -18.55L7.1 -18.5L7.15 -18.45L7.15 -18.4M0.15,-21.5L0.15 -21.45L0.2 -21.3L0.2 -21.15L0.2 -20.95L0.2 -20.8L0.15 -20.75L0.1 -20.7L0 -20.65L-0.1 -20.7L-0.15 -20.75L-0.2 -20.9L-0.2 -21.15L-0.2 -21.25L-0.2 -21.35L-0.25 -21.4L-0.3 -21.45L-0.3 -21.5L-0.35 -21.5L-0.35 -21.6L-0.4 -21.65L-0.4 -21.7L-0.3 -21.8L-0.2 -21.85L-0.15 -21.85L-0.05 -21.8L0 -21.75L0.05 -21.7L0.1 -21.6L0.15 -21.5M-1.3,-20.85L-1.4 -20.8L-1.45 -20.8L-1.5 -20.75L-1.5 -20.65L-1.45 -20.65L-1.45 -20.6L-1.4 -20.55L-1.3 -20.55L-1.3 -20.6L-1.25 -20.65L-1.25 -20.8L-1.3 -20.85M-2.6,-19.05L-2.6 -19.1L-2.55 -19.15L-2.55 -19.2L-2.5 -19.25L-2.45 -19.25L-2.25 -19.3L-2.15 -19.35L-1.75 -19.35L-1.65 -19.3L-1.5 -19.15L-1.5 -18.95L-1.45 -18.8L-1.4 -18.7L-1.4 -18.6L-1.4 -18.5L-1.05 -18.5L-1 -18.5L-1.1 -18.65L-1.15 -18.75L-1.15 -18.8L-1.15 -18.95L-1.1 -19.05L-1.1 -19.1L-1.05 -19.15L-1 -19.15L-0.95 -19.2L-0.85 -19.15L-0.8 -19.1L-0.8 -19.05L-0.75 -18.95L-0.75 -18.85L-0.75 -18.8L-0.7 -18.6L-0.65 -18.55L-0.3 -18.5L-0.25 -18.45L-0.2 -18.4L-0.2 -18.35L-0.25 -18.3L-0.25 -18.25L-0.35 -18.15L-0.55 -18.15L-0.55 -18.05L-0.55 -17.8L-0.55 -17.7L-0.55 -17.65L-0.6 -17.6L-0.65 -17.55L-0.7 -17.55L-0.75 -17.5L-0.85 -17.55L-0.9 -17.6L-0.95 -17.85L-0.95 -18.1L-1.05 -18.1L-1.4 -18.1L-1.4 -18.05L-1.4 -17.95L-1.4 -17.85L-1.4 -17.75L-1.4 -17.7L-1.45 -17.7L-1.45 -17.6L-1.5 -17.5L-1.55 -17.5L-1.6 -17.45L-1.65 -17.45L-2.1 -17.35L-2.15 -17.35L-2.3 -17.45L-2.35 -17.45L-2.45 -17.55L-2.55 -17.7L-2.55 -17.75L-2.6 -17.8L-2.6 -17.9L-2.6 -18.1L-2.55 -18.15L-2.55 -18.2L-2.5 -18.25L-2.45 -18.3L-2.4 -18.3L-1.9 -18.45L-1.8 -18.45L-1.8 -18.7L-1.85 -18.75L-1.85 -18.95L-2.5 -18.95L-2.6 -19.05M-2.05,-18L-2.2 -17.95L-2.2 -17.9L-2.15 -17.85L-2.15 -17.8L-2.1 -17.75L-1.8 -17.8L-1.8 -18L-1.9 -18.05L-2.05 -18M1.3,-14.15L1.3 -14.1L1.25 -14.1L1.1 -14L1.1 -13.95L1.05 -13.9L1 -13.9L1 -13.65L1.05 -13.6L1.1 -13.55L1.15 -13.5L1.15 -13.45L1.2 -13.45L1.2 -13.4L1.25 -13.35L1.3 -13.3L1.35 -13.25L1.35 -13.15L1.35 -13L1.35 -12.85L1.3 -12.85L1.3 -12.65L1.25 -12.6L1.25 -12.45L1.3 -12.4L1.3 -12.35L1.35 -12.25L1.35 -12.15L1.3 -12.05L1.3 -12L1.25 -11.95L1.25 -11.9L1.2 -11.85L1.1 -11.8L1 -11.65L1 -11.5L1 -11.25L1 -11.15L1.1 -11.1L1.2 -11.1L1.2 -11.2L1.2 -11.3L1.25 -11.4L1.3 -11.45L1.4 -11.45L1.25 -11.6L1.25 -11.65L1.3 -11.7L1.3 -11.75L1.35 -11.8L1.45 -11.85L1.6 -11.85L1.6 -11.9L1.65 -11.95L1.7 -11.95L1.75 -12L1.9 -12L2 -11.95L2.05 -11.9L2.1 -11.8L2.15 -11.75L2.15 -11.7L2.1 -11.65L2.1 -11.6L2.05 -11.6L1.95 -11.55L1.85 -11.6L1.8 -11.55L1.75 -11.5L1.5 -11.45L1.55 -11.4L1.55 -11.35L1.6 -11.15L1.6 -10.9L1.6 -10.8L1.5 -10.7L1.45 -10.7L0.75 -10.8L0.65 -10.9L0.65 -10.95L0.6 -10.95L0.6 -11.3L0.6 -11.6L0.65 -11.85L0.65 -11.9L0.75 -12L0.9 -12.1L0.3 -12.15L0.2 -12.25L0.2 -12.3L0.25 -12.35L0.25 -12.4L0.3 -12.45L0.35 -12.45L0.7 -12.55L0.85 -12.65L0.9 -12.7L0.9 -12.9L0.95 -12.95L0.95 -13.1L0.9 -13.15L0.9 -13.2L0.85 -13.25L0.85 -13.3L0.8 -13.3L0.8 -13.35L0.75 -13.4L0.7 -13.4L0.7 -13.45L0.65 -13.5L0.65 -13.55L0.6 -13.6L0.6 -13.7L0.6 -13.9L0.65 -14L0.65 -14.05L0.7 -14.1L0.8 -14.2L0.8 -14.25L0.75 -14.3L0.7 -14.35L0.65 -14.4L0.65 -14.45L0.7 -14.5L0.7 -14.55L0.8 -14.65L0.9 -14.7L1.4 -14.7L1.5 -14.65L1.55 -14.6L1.6 -14.6L1.65 -14.5L1.65 -14.45L1.7 -14.45L1.7 -14.35L1.65 -14.3L1.6 -14.25L1.55 -14.25L1.4 -14.2L1.3 -14.15M4.1,-10L4.15 -10.05L4.15 -10.1L4.2 -10.15L4.25 -10.15L4.3 -10.2L5.2 -10L5.2 -10.15L5.25 -10.15L5.25 -10.2L5.3 -10.25L5.35 -10.25L5.4 -10.3L5.5 -10.25L5.55 -10.2L5.55 -10.15L5.6 -10.05L5.6 -9.95L5.6 -9.9L5.55 -9.85L6.15 -9.5L6.15 -9.45L6.1 -9.4L6.1 -9.35L6 -9.25L5.9 -9.25L6 -9.15L6.05 -9.1L6.1 -9L6.2 -8.8L6.25 -8.75L6.25 -8.65L6.25 -8.55L6.25 -8.45L6.2 -8.4L6.15 -8.35L6.1 -8.3L6 -8.25L5.8 -8.2L5.75 -8.2L5.65 -8.25L5.55 -8.35L5.55 -8.4L5.6 -8.45L5.65 -8.55L5.85 -8.65L5.8 -8.7L5.75 -8.85L5.75 -8.9L5.7 -8.95L5.65 -9L5.55 -9L5.45 -9.05L5.3 -8.75L5 -8.5L4.55 -8.5L4.45 -8.6L4.45 -8.65L4.4 -8.7L4.4 -8.75L4.4 -8.85L4.4 -8.9L4.45 -8.95L4.45 -9.05L4.5 -9.1L4.9 -9.4L5.15 -9.45L5.15 -9.55L5.15 -9.6L5 -9.7L4.9 -9.7L4.7 -9.8L4.65 -9.8L4.3 -9.8L4.2 -9.85L4.1 -9.95L4.1 -10M-5.6,-18.25L-6.35 -18.15L-6.45 -18.25L-6.45 -18.3L-6.4 -18.35L-6.4 -18.4L-6.35 -18.45L-5.75 -18.55L-5.65 -18.5L-5.6 -18.45L-5.55 -18.4L-5.55 -18.35L-5.6 -18.25M-8.7,-14.65L-8.65 -14.55L-8.6 -14.5L-8.6 -14.45L-8.65 -14.4L-8.65 -14.35L-8.7 -14.35L-8.8 -14.3L-8.85 -14.3L-9 -14.4L-9.1 -14.45L-9.1 -14.5L-9.15 -14.55L-9.15 -14.6L-9.05 -14.7L-8.95 -14.75L-8.85 -14.75L-8.75 -14.7L-8.7 -14.65M6.75,-9.35L6.8 -9.35L6.9 -9.3L6.95 -9.25L7 -9.1L7 -8.95L7 -8.8L6.95 -8.75L6.85 -8.65L6.8 -8.6L6.75 -8.6L6.7 -8.55L6.6 -8.6L6.5 -8.7L6.5 -8.75L6.55 -8.8L6.55 -8.9L6.6 -8.95L6.6 -9.1L6.55 -9.1L6.55 -9.2L6.6 -9.2L6.6 -9.25L6.65 -9.3L6.7 -9.3L6.75 -9.35M4.8,-8.9L4.8 -8.85L4.85 -8.9L4.8 -8.9M4.9,-8.95L4.85 -8.9L4.9 -8.9L5.05 -9.05L5 -9.05L4.9 -9L4.9 -8.95M7,-7.7L7.05 -7.65L7.15 -7.6L7.05 -7.75L7 -7.75L7 -7.7" />
<path style="fill:none;stroke-width:0.5;stroke-linecap:round;stroke-linejoin:round;stroke-miterlimit:3;stroke:#666666;stroke-opacity:1" d="M-15.4,-20.6L-15.1 -24.6L-14.8 -24.6L-15 -25.2L-15.1 -24.6L-19.2 -25.4L-20.6 -19.2L-13.2 -17.15L-13 -17.15L-13.2 -20.4L-14.6 -20.4L-15.4 -20.6L-18.4 -20M-15,-25.2L-15 -28.4L-11.45 -28L-11.45 -30.1L-7.4 -30.6L-7.4 -32.8L-3.6 -32.4L-3.1 -30.95L0.4 -33L0.7 -30.75L4.8 -31L5.05 -29.1L10.2 -29L10.2 -27L13.4 -27L13.4 -25.15L14.8 -26L15.2 -25.8L19.2 -22.6L18.05 -21.45L17.4 -20.1L19.2 -18.1L18 -15L20.6 -11.9L18.2 -8.1L19.55 -4.5L18.2 -3.75L19.8 -1.6L17.3 0L15.15 -2.1L14.2 -2.6L0.8 -9.35L-0.6 -10.2L-5.75 -13.3L-11.9 -14.5L-13.2 -17.15M-11.45,-28L-11.8 -24.6L-6.6 -24.75L-6.3 -24.75L-6.1 -28.6L-6.8 -31.8M-2.8,-29.4L-2.4 -26.6L-5.6 -26.75L-6.1 -28.6M0.7,-30.75L0.8 -30L1 -29.2L1.6 -28.4L2.15 -28Q3.5 -27.2 5.4 -27.2L10.15 -25.95L10.2 -27M-3.1,-30.95L-2.1 -29.4L0.8 -30M0.8,-23.65L2.9 -23.8L1.2 -26.2L-2.2 -25.8L-1.6 -23.2L0.8 -23.65L1 -19.6Q3 -19.5 4 -18.85L4.55 -18.35L4.6 -19.8L11.6 -19.4L10.45 -24.55L8.4 -22.75M5.4,-27.2L6 -22.8L3.2 -22.8L2.9 -23.8M-14.8,-24.6L-11.8 -24.6M10.15,-25.9L10.45 -24.55L11.15 -25.35L10.15 -25.9L10.15 -25.95M11.6,-19.4L11.9 -19.2L12 -18.75L18.05 -21.45L11.15 -25.35L11.6 -25.9M17.6,-17.8L11.95 -15.8L11.8 -15.6L11.9 -15.65L11.95 -15.8L12 -18.75M11.9,-15.65L14.6 -11L17.4 -8.6M8.2,-11.2L7.8 -13.55L6.6 -13.55L4.25 -13.35L2.65 -13.1L2.7 -12.15L10.6 -9.4L10.6 -13.6M14.6,-11L14.6 -9L10.6 -9L10.55 -7.2L14.2 -6.95L17.25 -6.85L18 -6.4M10.6,-9L10.6 -9.4M14.2,-2.6L14.2 -6.95M18.6,-13L15 -13.4M18.2,-3.75L15.15 -2.1M1,-19.6L0.2 -19.6L0.4 -15.75L3.1 -16.1Q4 -16.45 4.45 -16.9L4.55 -18.35L4.7 -17.4L4.45 -16.9L4.25 -13.35M0.4,-15.75L-0.2 -15.8L-4.25 -15L-5.75 -13.3M-0.6,-15L-0.6 -10.2M-7.2,-20.6L-7.2 -19.6L-7.2 -17.2L-13 -17.15L-4.1 -16.35L-3 -21L-6.2 -20.75L-7.2 -20.6M-4.25,-15L-4.1 -16.35M-7.2,-19.6L-11 -19.8M2.7,-12.15L3.2 -9.2M-13.2,-20.4L-10.8 -20.4L-11 -24M11.8,-15.6L6.6 -13.55M-1.6,-23.2L-3 -21M-6.6,-24.75L-6.2 -20.75" />
</g>
</svg>
