<svg height="182" width="220" xmlns="http://www.w3.org/2000/svg"><defs><path d="M1.35 0h.2l.55.1.45.35q.45.45.45 1L2.55 2.6q-.45.4-1 .4l-.8-.2-.25-.2-.45-.7v-.15L0 1.45v-.1q.05-.5.5-.9l.25-.2Q1 .05 1.3 0h.05m.45.85L1.55.8Q1.2.75 1 1q-.2.15-.2.45v.15l.15.45H1l.05.05.2.1.3.05.55-.2.15-.6-.05-.3L2.1 1 2.05.95 1.9.85h-.1" fill-rule="evenodd" id="a"/></defs><path d="M139.141 54.7v9.4l-6.5 1.4-6.2 1.8 1.3 3.2 6.6-2.5 6-1.2c2.067 0 3.5.4 4.3 1.2 1.067 1.067 1.6 2.4 1.6 4 0 1.467-.5 2.7-1.5 3.7-1.4 1.4-4.1 2.233-8.1 2.5l-2.6.1.7 3 3-.1-.1 5.5-3 2.5v24.5l-1.7 9.2h-3V136c0 .933-.3 1.7-.9 2.3-.733.733-1.8 1.1-3.2 1.1-1.467 0-2.567-.367-3.3-1.1-.533-.6-.8-1.367-.8-2.3v-13.1h-3.1l-4.7-7h-3.5l-7.1 7V136c0 .933-.3 1.7-.9 2.3-.733.733-1.8 1.1-3.2 1.1-1.467 0-2.567-.367-3.3-1.1-.533-.6-.8-1.367-.8-2.3v-13.1h-3.1l-3.4-2.2-3.5-7.8v-7.8l.9-.8c1-.8 1.9-1.833 2.7-3.1l-2.5-2c-.533.867-1 1.5-1.4 1.9l.8-21.9 2.001-14.637L110.5 55.13" fill="#fff" fill-rule="evenodd"/><path d="M84.841 101.1c.4-.4.867-1.033 1.4-1.9l2.5 2c-.8 1.267-1.7 2.3-2.7 3.1l-.9.8c-.933.6-2 .9-3.2.9-1.267 0-3.033-.733-5.3-2.2-1.533-.867-2.8-1.3-3.8-1.3-1.133 0-2 .367-2.6 1.1l-1.2 1.9-2.7-1.5 2.4-3.3c1.133-1.067 2.433-1.6 3.9-1.6s2.967.533 4.5 1.6c2.2 1.133 3.9 1.7 5.1 1.7.867 0 1.733-.433 2.6-1.3m7.2 21.8h3.1V136c0 .933.267 1.7.8 2.3.733.733 1.833 1.1 3.3 1.1 1.4 0 2.467-.367 3.2-1.1.6-.6.9-1.367.9-2.3v-13.1h3v13.2c0 1.667-.533 3.033-1.6 4.1-1.2 1.2-3.033 1.8-5.5 1.8-2.533 0-4.4-.6-5.6-1.8-1.067-1.067-1.6-2.433-1.6-4.1v-13.2m26.6 0h3.1V136c0 .933.267 1.7.8 2.3.733.733 1.833 1.1 3.3 1.1 1.4 0 2.467-.367 3.2-1.1.6-.6.9-1.367.9-2.3v-13.1h3v13.2c0 1.667-.533 3.033-1.6 4.1-1.2 1.2-3.033 1.8-5.5 1.8-2.533 0-4.4-.6-5.6-1.8-1.067-1.067-1.6-2.433-1.6-4.1v-13.2m19.1-41.7-3 .1-.7-3 2.6-.1c4-.267 6.7-1.1 8.1-2.5 1-1 1.5-2.233 1.5-3.7 0-1.6-.533-2.933-1.6-4-.8-.8-2.233-1.2-4.3-1.2l-6 1.2-6.6 2.5-1.3-3.2 6.2-1.8 6.5-1.4 1.5-.1c2.933 0 5.1.7 6.5 2.1 1.467 1.4 2.2 3.3 2.2 5.7 0 2.467-.667 4.367-2 5.7l-.8.7c-2.067 1.6-5 2.6-8.8 3" fill-rule="evenodd"/><path d="M134.641 113.7V89.2" fill="none" stroke="#000" stroke-linecap="round" stroke-linejoin="round" stroke-width="2"/><path style="display:inline;fill:#000;fill-opacity:1;stroke:none;stroke-width:.5px;stroke-linecap:butt;stroke-linejoin:miter;stroke-opacity:1" d="M13.867-39.561s-7.72.847-7.96 4.206c-.238 3.36.373 4.272-.548 7.634-.92 3.36-.976 6.02-.349 7.604.69 1.82 2.138 5.293 1.936 5.507-.23.235-.6-.213-1.423-.536-.62-.243-1.577-.387-2.466-.278-2.071.254-5.484 1.018-7.765.29-1.346-.428-4.615-1.173-6.118-.351-1.503.822-6.852 1.077-6.933.882-.07-.211 1.133-1.55 1.383-3.098.25-1.55-.205-7.218 1.151-10.799 1.281-3.381 1.13-5.203 2.414-7.957 1.296-2.78 3.205-4.237 5.505-5.647l21.173 2.543z" transform="matrix(2 0 0 2 109.641 142)"/><g style="display:inline"><path style="fill:#009a4b;fill-opacity:1;stroke:#000;stroke-width:2.089;stroke-linecap:butt;stroke-linejoin:miter;stroke-miterlimit:4;stroke-dasharray:none;stroke-opacity:1" d="M107.126 10.874c.092-.198-.019-2.484-.261-4.518a4.145 4.145 0 0 0-1.076-2.29c-.74-.805-1.993-2.72-4.967-2.675-2.943.046-4.543.596-4.944 1.2-1.026 1.547-.896 3.017-.892 4.28.003.93.208 2.196.16 3.389" transform="translate(18.706 1.102)"/><path style="display:inline;fill:#f7941d;fill-opacity:1;stroke:#000;stroke-width:2.4;stroke-linecap:butt;stroke-linejoin:miter;stroke-miterlimit:4;stroke-dasharray:none;stroke-opacity:1" d="M85.685 60.758c3.842.832 5.778 2.17 10.355 1.965 4.882-.218 7.894-1.856 11.69-1.99 3.901-.137 6.55 2.084 11.256 1.218 3.477-.64 6.558-1.136 9.432-2.696 2.395-1.3 2.856-1.842 6.166-5.367 3.014-3.209 4.239-7.28 4.536-10.56.264-2.919-.105-12.265-1.533-14.559-2.111-3.388-3.251-6.206-5.808-9.315-2.556-3.108-7.007-5.624-9.232-6.372-2.225-.749-4.686-1.662-9.39-1.55-2.552.06-17.704-.548-19.047-.548s-2.251-.172-4.316.261c-1.482.312-4.86.308-6.627.618-.865.152-3.607 1.078-5.823 1.551-2.31.494-4.333.259-5.31.981-2.86 2.118-6.76 8.256-7.96 11.034-2.023 4.684-3.81 10.038-3.381 14.92.427 4.88 2.995 10.01 5.243 11.987 3.289 2.891 4.036 4.831 6.673 5.876 6.083 2.412 7.593 1.358 13.076 2.546z" transform="translate(18.706 1.102)"/><path style="fill:none;stroke:#000;stroke-width:1px;stroke-linecap:butt;stroke-linejoin:miter;stroke-opacity:.550992" d="M89.313 11.974c-2.614.683-15.263 9.996-16.415 23.168-.949 9.759 3.03 18.234 5.794 25.482M98.396 11.515c-4.93 7.922-6.64 16.46-6.85 23.102-.36 11.334.596 15.017.892 19.714.253 4.02.847 5.65 1.581 8.264M108.713 12.069c2.333 2.288 3.538 9.6 3.497 18.204-.073 15.242-.541 19.185-.972 22.639-.43 3.463-.515 6.38-1.031 8.774" transform="translate(18.706 1.102)"/><path style="fill:none;stroke:#000;stroke-width:1px;stroke-linecap:butt;stroke-linejoin:miter;stroke-opacity:.550992" d="M110.067 10.489s13.99 7.24 14.818 22.767c.618 8.652-.98 16.77-6.216 28.52" transform="translate(18.706 1.102)"/></g><path style="fill:#000;fill-opacity:1;stroke:none;stroke-width:.5px;stroke-linecap:butt;stroke-linejoin:miter;stroke-opacity:1" d="m9.492-55.534 5.06-6.195 3.332 8.296zM18.747-48.408l2.329-6.041 3.41 5.668zM10.108-48.844l5.57 7.75 3.019-2.88 2.16 1.273.758-.708-3.284-3.335-2.082 2.476z" transform="matrix(2 0 0 2 109.641 142)"/></svg>