<svg height="182" width="220" xmlns="http://www.w3.org/2000/svg"><defs><path d="M1.35 0h.2l.55.1.45.35q.45.45.45 1L2.55 2.6q-.45.4-1 .4l-.8-.2-.25-.2-.45-.7v-.15L0 1.45v-.1q.05-.5.5-.9l.25-.2Q1 .05 1.3 0h.05m.45.85L1.55.8Q1.2.75 1 1q-.2.15-.2.45v.15l.15.45H1l.05.05.2.1.3.05.55-.2.15-.6-.05-.3L2.1 1 2.05.95 1.9.85h-.1" fill-rule="evenodd" id="a"/></defs><path d="m84.841 101 1.4-1.9 2.5 2v.1l-2.7 3-.9.8v.1c-.933.6-2 .9-3.2.9-1.267 0-3.033-.733-5.3-2.2l-3.8-1.3c-1.2 0-2.067.367-2.6 1.1l-1.2 1.9-2.7-1.5v-.1l2.4-3.3c1.067-1.067 2.367-1.6 3.9-1.6 1.467 0 2.967.533 4.5 1.6 2.2 1.133 3.9 1.7 5.1 1.7.867 0 1.733-.433 2.6-1.3m33.8 21.9h3.1V136c0 .933.267 1.7.8 2.3.733.733 1.833 1.1 3.3 1.1 1.4 0 2.467-.367 3.2-1.1.6-.6.9-1.367.9-2.3v-13.1h3.1v13.2c0 1.667-.533 3.033-1.6 4.1-1.267 1.2-3.133 1.8-5.6 1.8-2.533 0-4.4-.6-5.6-1.8-1.067-1.067-1.6-2.433-1.6-4.1v-13.2m19.2-41.7-3 .1-.7-3 2.5-.1c4.067-.267 6.8-1.1 8.2-2.5 1-1 1.5-2.233 1.5-3.7 0-1.6-.533-2.933-1.6-4-.8-.8-2.233-1.2-4.3-1.2-1.733 0-3.733.4-6 1.2l-6.7 2.5-1.3-3.2 6.3-1.8 6.5-1.4 1.5-.1c2.933 0 5.1.7 6.5 2.1 1.467 1.4 2.2 3.3 2.2 5.7 0 2.467-.667 4.367-2 5.7l-.8.7c-2.133 1.6-5.067 2.6-8.8 3" fill-rule="evenodd" style="stroke-width:2"/><path d="M139.241 54.7v9.4l-6.5 1.4-6.3 1.8 1.3 3.2 6.7-2.5c2.267-.8 4.267-1.2 6-1.2 2.067 0 3.5.4 4.3 1.2 1.067 1.067 1.6 2.4 1.6 4 0 1.467-.5 2.7-1.5 3.7-1.4 1.4-4.133 2.233-8.2 2.5l-2.5.1.7 3 3-.1-.1 5.5-3 2.5v24.5l-1.7 9.2h-3.1V136c0 .933-.3 1.7-.9 2.3-.733.733-1.8 1.1-3.2 1.1-1.467 0-2.567-.367-3.3-1.1-.533-.6-.8-1.367-.8-2.3v-13.1h-3.1l-4.7-7h-3.5l-2.3-1h-16.5l-6.5-6.5V105l.9-.8 2.7-3v-.1l-2.5-2-1.4 1.9.8-21.8 2.246-15.099 22.83-9.873" fill="#fff" fill-rule="evenodd" style="stroke-width:2"/><path d="M134.741 113.7V89.2" fill="none" stroke="#000" stroke-linecap="round" stroke-linejoin="round" style="stroke-width:2"/><path d="M139.241 54.7v9.4l-6.5 1.4-6.3 1.8 1.3 3.2 6.7-2.5c2.267-.8 4.267-1.2 6-1.2 2.067 0 3.5.4 4.3 1.2 1.067 1.067 1.6 2.4 1.6 4 0 1.467-.5 2.7-1.5 3.7-1.4 1.4-4.133 2.233-8.2 2.5l-2.5.1.7 3 3-.1-.1 5.5-3 2.5v24.5l-1.7 9.2h-3.1V136c0 .933-.3 1.7-.9 2.3-.733.733-1.8 1.1-3.2 1.1-1.467 0-2.567-.367-3.3-1.1-.533-.6-.8-1.367-.8-2.3v-13.1h-3.1l-4.7-7h-3.5l-2.3-1h-16.5l-6.5-6.5V105l.9-.8 2.7-3v-.1l-2.5-2-1.4 1.9.8-21.8 2.246-15.099 22.83-9.873" fill="#fff" fill-rule="evenodd" style="stroke-width:2"/><path d="M134.741 113.7V89.2" fill="none" stroke="#000" stroke-linecap="round" stroke-linejoin="round" style="stroke-width:2"/><g><path style="fill:#010101;fill-opacity:1;stroke:none;stroke-width:1px;stroke-linecap:butt;stroke-linejoin:miter;stroke-opacity:1" d="M94.014 58.444s-4.734 5.71-13.081 5.574c-8.348-.136-10.625.074-15.71.868-5.083.795-8.07 3.343-11.482 5.335-3.412 1.992-7.995 3.81-15.217 3.407-7.221-.402-19.538-2.67-22.096-2.824-2.389-.143-7.947.34-7.907 3.728 1.893.323 4.029-.52 6.232-.378 2.623.17 6.991 2.804 8.742 6.473 1.752 3.67 7.091 8.745 10.136 10.698 3.046 1.952 11.808 2.695 15.318 2.148 3.511-.547 10.498-2.63 14.591-1.237 4.094 1.392 14.101 5.164 13.601 8.364-.5 3.2-2.244 7.88-2.244 7.88s2.142-.204 6.193-1.842c4.051-1.638 7.515-8.205 8.55-9.739 1.036-1.533 3.347-4.677 9.87-6.937 7.03-2.436 10.361-2.256 13.026-5.9 2.664-3.642 5.41-7.628 7.821-11.528 2.057-3.328 1.376-7.304 17.018-9.656 15.643-2.352-2.425-6.273-2.425-6.273z"/></g><g><g style="display:inline"><path style="fill:#009a4b;fill-opacity:1;stroke:#000;stroke-width:2.089;stroke-linecap:butt;stroke-linejoin:miter;stroke-miterlimit:4;stroke-dasharray:none;stroke-opacity:1" d="M107.126 10.874c.092-.198-.019-2.484-.261-4.518a4.145 4.145 0 0 0-1.076-2.29c-.74-.805-1.993-2.72-4.967-2.675-2.943.046-4.543.596-4.944 1.2-1.026 1.547-.896 3.017-.892 4.28.003.93.208 2.196.16 3.389" transform="translate(18.706 1.102)"/><path style="display:inline;fill:#f7941d;fill-opacity:1;stroke:#000;stroke-width:2.4;stroke-linecap:butt;stroke-linejoin:miter;stroke-miterlimit:4;stroke-dasharray:none;stroke-opacity:1" d="M85.685 60.758c3.842.832 5.778 2.17 10.355 1.965 4.882-.218 7.894-1.856 11.69-1.99 3.901-.137 6.55 2.084 11.256 1.218 3.477-.64 6.558-1.136 9.432-2.696 2.395-1.3 2.856-1.842 6.166-5.367 3.014-3.209 4.239-7.28 4.536-10.56.264-2.919-.105-12.265-1.533-14.559-2.111-3.388-3.251-6.206-5.808-9.315-2.556-3.108-7.007-5.624-9.232-6.372-2.225-.749-4.686-1.662-9.39-1.55-2.552.06-17.704-.548-19.047-.548s-2.251-.172-4.316.261c-1.482.312-4.86.308-6.627.618-.865.152-3.607 1.078-5.823 1.551-2.31.494-4.333.259-5.31.981-2.86 2.118-6.76 8.256-7.96 11.034-2.023 4.684-3.81 10.038-3.381 14.92.427 4.88 2.995 10.01 5.243 11.987 3.289 2.891 4.036 4.831 6.673 5.876 6.083 2.412 7.593 1.358 13.076 2.546z" transform="translate(18.706 1.102)"/><path style="fill:none;stroke:#000;stroke-width:1px;stroke-linecap:butt;stroke-linejoin:miter;stroke-opacity:.550992" d="M89.313 11.974c-2.614.683-15.263 9.996-16.415 23.168-.949 9.759 3.03 18.234 5.794 25.482M98.396 11.515c-4.93 7.922-6.64 16.46-6.85 23.102-.36 11.334.596 15.017.892 19.714.253 4.02.847 5.65 1.581 8.264M108.713 12.069c2.333 2.288 3.538 9.6 3.497 18.204-.073 15.242-.541 19.185-.972 22.639-.43 3.463-.515 6.38-1.031 8.774" transform="translate(18.706 1.102)"/><path style="fill:none;stroke:#000;stroke-width:1px;stroke-linecap:butt;stroke-linejoin:miter;stroke-opacity:.550992" d="M110.067 10.489s13.99 7.24 14.818 22.767c.618 8.652-.98 16.77-6.216 28.52" transform="translate(18.706 1.102)"/></g><path style="fill:#000;fill-opacity:1;stroke:none;stroke-width:1px;stroke-linecap:butt;stroke-linejoin:miter;stroke-opacity:1" d="m128.626 30.932 10.117-12.391 6.666 16.593zM147.136 45.183l4.656-12.081 6.82 11.337zM129.856 44.312l11.142 15.501 6.037-5.76 4.32 2.545 1.516-1.415-6.568-6.672-4.163 4.954z"/></g></svg>