<svg height="182" width="220" xmlns="http://www.w3.org/2000/svg"><path d="M139.241 54.7v9.4l-6.5 1.4-6.2 1.8 1.3 3.2 6.6-2.5 6-1.2c2.067 0 3.5.4 4.3 1.2 1.067 1.067 1.6 2.4 1.6 4 0 1.467-.5 2.7-1.5 3.7-1.4 1.4-4.133 2.233-8.2 2.5l-2.5.1.7 3 3-.1-.1 5.5-3 2.5v24.5l-1.7 9.2h-3V136c0 .933-.3 1.7-.9 2.3-.733.733-1.8 1.1-3.2 1.1-1.533 0-2.633-.367-3.3-1.1-.6-.6-.867-1.367-.8-2.3v-13.1h-3.2l-4.7-7h-3.5l-7.1 7V136c0 .933-.3 1.7-.9 2.3-.733.733-1.8 1.1-3.2 1.1-1.467 0-2.567-.367-3.3-1.1-.6-.6-.867-1.367-.8-2.3v-13.1h-3.1l-3.4-2.2-3.5-7.8v-7.8l.9-.8c1-.8 1.9-1.833 2.7-3.1l-2.5-2-1.4 1.9.8-21.9 3.5-25.6m31.2 12.5c-1.4-1.4-3.567-2.1-6.5-2.1l-8 1.5-6.2 1.8 1.3 3.2 6.6-2.5 6-1.2c2.067 0 3.5.4 4.3 1.2 1.067 1.067 1.6 2.4 1.6 4 0 1.467-.5 2.7-1.5 3.7-1.4 1.4-4.1 2.233-8.1 2.5l-2.6.1.7 3c5.267-.067 9.2-1.1 11.8-3.1l.9-.7c1.333-1.333 2-3.233 2-5.7-.067-2.4-.833-4.3-2.3-5.7" fill="#fff" fill-rule="evenodd"/><path d="m139.241 64.1 1.5-.1c2.933 0 5.1.7 6.5 2.1 1.467 1.4 2.2 3.3 2.2 5.7 0 2.467-.667 4.367-2 5.7l-.8.7c-2.067 1.6-5 2.6-8.8 3l-3 .1-.7-3 2.5-.1c4.067-.267 6.8-1.1 8.2-2.5 1-1 1.5-2.233 1.5-3.7 0-1.6-.533-2.933-1.6-4-.8-.8-2.233-1.2-4.3-1.2l-6 1.2-6.6 2.5-1.3-3.2 6.2-1.8 6.5-1.4m-6.2 58.8v13.2c0 1.667-.533 3.033-1.6 4.1-1.2 1.2-3.033 1.8-5.5 1.8-2.6 0-4.5-.6-5.7-1.8-1.067-1.067-1.6-2.433-1.6-4.1v-13.2h3.2V136c-.067.933.2 1.7.8 2.3.667.733 1.767 1.1 3.3 1.1 1.4 0 2.467-.367 3.2-1.1.6-.6.9-1.367.9-2.3v-13.1h3m-29.7 0h3v13.2c0 1.667-.533 3.033-1.6 4.1-1.2 1.2-3.033 1.8-5.5 1.8-2.533 0-4.4-.6-5.6-1.8-1.133-1.067-1.667-2.433-1.6-4.1v-13.2h3.1V136c-.067.933.2 1.7.8 2.3.733.733 1.833 1.1 3.3 1.1 1.4 0 2.467-.367 3.2-1.1.6-.6.9-1.367.9-2.3v-13.1m-18.2-17.8c-.933.6-2 .9-3.2.9-1.333 0-3.133-.733-5.4-2.2l-3.8-1.3c-1.133 0-2 .367-2.6 1.1l-1.2 1.9-2.7-1.5 2.4-3.3c1.133-1.067 2.433-1.6 3.9-1.6s3 .533 4.6 1.6c2.2 1.133 3.9 1.7 5.1 1.7.8 0 1.667-.433 2.6-1.3l1.4-1.9 2.5 2c-.8 1.267-1.7 2.3-2.7 3.1l-.9.8m35.2-39c1.467 1.4 2.233 3.3 2.3 5.7 0 2.467-.667 4.367-2 5.7l-.9.7c-2.6 2-6.533 3.033-11.8 3.1l-.7-3 2.6-.1c4-.267 6.7-1.1 8.1-2.5 1-1 1.5-2.233 1.5-3.7 0-1.6-.533-2.933-1.6-4-.8-.8-2.233-1.2-4.3-1.2l-6 1.2-6.6 2.5-1.3-3.2 6.2-1.8 8-1.5c2.933 0 5.1.7 6.5 2.1" fill-rule="evenodd"/><path d="M134.741 89.2v18.9m0 0v5.6" fill="none" stroke="#000" stroke-linecap="round" stroke-linejoin="round" stroke-width="2"/><path style="fill:#009a4b;fill-opacity:1;stroke:#000;stroke-width:2.089;stroke-linecap:butt;stroke-linejoin:miter;stroke-miterlimit:4;stroke-dasharray:none;stroke-opacity:1" d="M111.859 10.812c-.093-.199.019-2.485.261-4.518a4.145 4.145 0 0 1 1.076-2.291c.74-.805 1.993-2.72 4.967-2.674 2.943.045 4.543.595 4.944 1.2 1.025 1.546.895 3.017.892 4.28-.003.929-.208 2.195-.16 3.388"/><path style="display:inline;fill:#000;fill-opacity:1;stroke:none;stroke-width:1px;stroke-linecap:butt;stroke-linejoin:miter;stroke-opacity:1" d="M87.482 52.873s-2.567 4.973-4.818 10.703c-1.537 4.233-3.397 8.944-2.822 15.367.396 7.558.332 14.704.467 18.697.328 9.711-2.102 15.517-1.284 16.924.783 1.576 9.668-4.163 9.408-14.396-.135-5.325-.416-7.42-.206-11.93.155-3.33 1.266-5.486 2.139-7.096 3.96-7.309 4.507-7.713 10.734-10.689l12.441-3.652-2.053-1.098c1.885-.095 6.073-.17 7.305.735 1.385 1.016 2.28 2.692 2.184 4.814-.097 2.122-1.194 3.372.394 3.87 1.589.496 5.107-4.16 6.377-2.776 1.083 1.181 6.105 4.766 6.461 4.252.21-.304-5.108-5.397-5.04-5.977.232-1.953 1.744-3.62 2.84-3.476 1.554.203 2.448-3.577 3.5-3.754 1.054-.178 5.993-3.732 6.401-4.514.408-.782-8.912-2.322-8.912-2.322l-30.07.822z"/><path style="display:inline;fill:#f7941d;fill-opacity:1;stroke:#000;stroke-width:2.4;stroke-linecap:butt;stroke-linejoin:miter;stroke-miterlimit:4;stroke-dasharray:none;stroke-opacity:1" d="M105.685 60.758c3.012-.622 7.04-2.052 11.213.585 4.13 2.61 11.774.895 11.774.895s6.243-3.017 11.021-2.774c4.105.208 6.633-1.86 6.633-1.86s3.554-2.41 6.864-5.935c3.015-3.21 3.779-5.027 4.493-8.108.662-2.856.547-11.288.066-13.901-.64-3.474-2.566-7.818-5.123-10.926-2.556-3.109-4.365-5.758-6.59-6.506-2.224-.749-7.43.117-11.306-1.55-2.345-1.009-19.696-.679-21.04-.679-1.342 0-1.831.813-3.896 1.246-1.482.312-8.154.226-9.922.536-1.767.31-6.56 1.927-8.474 3.343-2.86 2.117-6.076 5.214-7.875 9.99-1.798 4.776-3.258 10.353-2.83 15.234.427 4.881 1.576 10.71 3.824 12.686 3.288 2.89 5.65 3.735 8.092 5.178 4.175 1.077 7.582 3.68 13.076 2.546z"/><path style="display:inline;fill:#000;fill-opacity:1;stroke:none;stroke-width:1.09887px;stroke-linecap:butt;stroke-linejoin:miter;stroke-opacity:1" d="m140.84 16.59-5.39 15.185 15.377-2.857z"/><path style="display:inline;fill:#000;fill-opacity:1;stroke:none;stroke-width:1.13194px;stroke-linecap:butt;stroke-linejoin:miter;stroke-opacity:1" d="m106.274 30.742 9.468-14.044 6.243 14.414z"/><path style="display:inline;fill:#000;fill-opacity:1;stroke:none;stroke-width:1.20332px;stroke-linecap:butt;stroke-linejoin:miter;stroke-opacity:1" d="m120.092 42.74 8.185-12.088 4.431 12.964z"/><path style="display:inline;fill:#000;fill-opacity:1;stroke:none;stroke-width:1.0887px;stroke-linecap:butt;stroke-linejoin:miter;stroke-opacity:1" d="M100.635 38.426c.574.914 9.432 10.668 9.432 10.668l3.113-3.594 4.032 4.339 2.791-3.29 6.421 6.246 6.302-5.713 4.778 4.319 11.885-10.03-11.478 15.718-5.696-5.643-6.614 4.978-4.35-3.02-1.84 1.463-6.074-3.946-4.014 3.532z"/><path style="fill:none;stroke:#000;stroke-width:1px;stroke-linecap:butt;stroke-linejoin:miter;stroke-opacity:.550992" d="M104.562 11.779s-8.8 12.412-10.06 23.547c-1.215 10.736.224 12.344 1.683 18.025 1.46 5.68 2.228 6.682 2.228 6.682l.28.59m13.079-49.138s-5.676 11.77-5.302 23.104c.374 11.334-.171 15.786.741 20.403.912 4.617 1.01 4.883 1.01 4.883m10.717-50.068s5.97 3.227 6.53 20.116c.56 16.888-.857 29.407-1.862 32.008-1.004 2.602-.197.698-.197.698m6.658-52.14s13.99 7.24 14.818 22.767c.618 8.652.638 14.003-4.598 25.754"/></svg>