<svg xmlns:xlink="http://www.w3.org/1999/xlink" height="62.4" width="36.6" xmlns="http://www.w3.org/2000/svg"><use height="62.4" width="36.6" xlink:href="#a"/><defs><linearGradient gradientTransform="matrix(-.0337 0 0 .0341 41.9 -40.45)" gradientUnits="userSpaceOnUse" id="b" spreadMethod="pad" x1="-819.2" x2="819.2"><stop offset="0" stop-color="#bfb1a2"/><stop offset=".498" stop-color="#ddd8d3"/><stop offset=".988" stop-color="#bfb1a2"/></linearGradient><linearGradient gradientTransform="matrix(-.001 0 0 .0198 16.45 -66.1)" gradientUnits="userSpaceOnUse" id="c" spreadMethod="pad" x1="-819.2" x2="819.2"><stop offset="0" stop-color="#bfb1a2"/><stop offset=".498" stop-color="#e4e1de"/><stop offset=".988" stop-color="#c7bbad"/></linearGradient><linearGradient gradientTransform="matrix(-.001 0 0 .0198 16.45 -69.35)" gradientUnits="userSpaceOnUse" id="d" spreadMethod="pad" x1="-819.2" x2="819.2"><stop offset="0" stop-color="#bfb1a2"/><stop offset=".498" stop-color="#e4e1de"/><stop offset=".988" stop-color="#c7bbad"/></linearGradient><linearGradient gradientTransform="matrix(-.001 0 0 .0198 16.45 -68.15)" gradientUnits="userSpaceOnUse" id="e" spreadMethod="pad" x1="-819.2" x2="819.2"><stop offset="0" stop-color="#bfb1a2"/><stop offset=".498" stop-color="#e4e1de"/><stop offset=".988" stop-color="#c7bbad"/></linearGradient><linearGradient gradientTransform="matrix(-.001 0 0 .0198 16.4 -58.9)" gradientUnits="userSpaceOnUse" id="f" spreadMethod="pad" x1="-819.2" x2="819.2"><stop offset="0" stop-color="#bfb1a2"/><stop offset=".498" stop-color="#e4e1de"/><stop offset=".988" stop-color="#c7bbad"/></linearGradient><linearGradient gradientTransform="matrix(-.001 0 0 .0198 16.4 -60.1)" gradientUnits="userSpaceOnUse" id="g" spreadMethod="pad" x1="-819.2" x2="819.2"><stop offset="0" stop-color="#bfb1a2"/><stop offset=".498" stop-color="#e4e1de"/><stop offset=".988" stop-color="#c7bbad"/></linearGradient><linearGradient gradientTransform="matrix(-.0007 .0012 .0034 .0019 31.95 -40.3)" gradientUnits="userSpaceOnUse" id="h" spreadMethod="pad" x1="-819.2" x2="819.2"><stop offset="0" stop-color="#bfb1a2"/><stop offset=".498" stop-color="#e4e1de"/><stop offset=".988" stop-color="#c7bbad"/></linearGradient><linearGradient gradientTransform="matrix(-.0007 .0012 .0034 .0019 27.9 -42.4)" gradientUnits="userSpaceOnUse" id="i" spreadMethod="pad" x1="-819.2" x2="819.2"><stop offset="0" stop-color="#bfb1a2"/><stop offset=".498" stop-color="#e4e1de"/><stop offset=".988" stop-color="#c7bbad"/></linearGradient><linearGradient gradientTransform="matrix(-.0007 .0012 .0034 .0019 30.3 -41.2)" gradientUnits="userSpaceOnUse" id="j" spreadMethod="pad" x1="-819.2" x2="819.2"><stop offset="0" stop-color="#bfb1a2"/><stop offset=".498" stop-color="#e4e1de"/><stop offset=".988" stop-color="#c7bbad"/></linearGradient><linearGradient gradientTransform="matrix(-.0337 0 0 .0341 41.85 -39.55)" gradientUnits="userSpaceOnUse" id="k" spreadMethod="pad" x1="-819.2" x2="819.2"><stop offset="0" stop-color="#bfb1a2"/><stop offset=".498" stop-color="#ddd8d3"/><stop offset=".988" stop-color="#bfb1a2"/></linearGradient><linearGradient gradientTransform="matrix(-.001 0 0 .0198 38.65 -51.15)" gradientUnits="userSpaceOnUse" id="l" spreadMethod="pad" x1="-819.2" x2="819.2"><stop offset="0" stop-color="#bfb1a2"/><stop offset=".498" stop-color="#e4e1de"/><stop offset=".988" stop-color="#c7bbad"/></linearGradient><linearGradient gradientTransform="matrix(-.0138 0 0 .0065 29.35 -42.5)" gradientUnits="userSpaceOnUse" id="m" spreadMethod="pad" x1="-819.2" x2="819.2"><stop offset="0" stop-color="#bfb1a2"/><stop offset=".498" stop-color="#e4e1de"/><stop offset=".988" stop-color="#c7bbad"/></linearGradient><linearGradient gradientTransform="matrix(-.0007 .0012 .0034 .0019 20.15 -28.95)" gradientUnits="userSpaceOnUse" id="n" spreadMethod="pad" x1="-819.2" x2="819.2"><stop offset="0" stop-color="#bfb1a2"/><stop offset=".498" stop-color="#e4e1de"/><stop offset=".988" stop-color="#c7bbad"/></linearGradient><linearGradient gradientTransform="matrix(-.0007 .0012 .0034 .0019 20.1 -28.05)" gradientUnits="userSpaceOnUse" id="o" spreadMethod="pad" x1="-819.2" x2="819.2"><stop offset="0" stop-color="#bfb1a2"/><stop offset=".498" stop-color="#e4e1de"/><stop offset=".988" stop-color="#c7bbad"/></linearGradient><linearGradient gradientTransform="matrix(-.001 0 0 .0198 16.45 -38.15)" gradientUnits="userSpaceOnUse" id="p" spreadMethod="pad" x1="-819.2" x2="819.2"><stop offset="0" stop-color="#bfb1a2"/><stop offset=".498" stop-color="#e4e1de"/><stop offset=".988" stop-color="#c7bbad"/></linearGradient><linearGradient gradientTransform="matrix(-.0337 0 0 .0341 41.95 -40.45)" gradientUnits="userSpaceOnUse" id="q" spreadMethod="pad" x1="-819.2" x2="819.2"><stop offset="0" stop-color="#bfb1a2"/><stop offset=".498" stop-color="#ddd8d3"/><stop offset=".988" stop-color="#bfb1a2"/></linearGradient><linearGradient gradientTransform="matrix(-.0153 0 0 .0174 28.2 -52.55)" gradientUnits="userSpaceOnUse" id="r" spreadMethod="pad" x1="-819.2" x2="819.2"><stop offset="0" stop-color="#a16839"/><stop offset=".498" stop-color="#c98261"/><stop offset=".988" stop-color="#a16839"/></linearGradient><linearGradient gradientTransform="matrix(-.001 0 0 .0198 44.25 -55.15)" gradientUnits="userSpaceOnUse" id="s" spreadMethod="pad" x1="-819.2" x2="819.2"><stop offset="0" stop-color="#bfb1a2"/><stop offset=".498" stop-color="#e4e1de"/><stop offset=".988" stop-color="#c7bbad"/></linearGradient><linearGradient gradientTransform="matrix(-.001 0 0 .0198 16.5 -66.1)" gradientUnits="userSpaceOnUse" id="t" spreadMethod="pad" x1="-819.2" x2="819.2"><stop offset="0" stop-color="#bfb1a2"/><stop offset=".498" stop-color="#e4e1de"/><stop offset=".988" stop-color="#c7bbad"/></linearGradient><linearGradient gradientTransform="matrix(-.001 0 0 .0198 16.5 -69.35)" gradientUnits="userSpaceOnUse" id="u" spreadMethod="pad" x1="-819.2" x2="819.2"><stop offset="0" stop-color="#bfb1a2"/><stop offset=".498" stop-color="#e4e1de"/><stop offset=".988" stop-color="#c7bbad"/></linearGradient><linearGradient gradientTransform="matrix(-.001 0 0 .0198 16.5 -68.15)" gradientUnits="userSpaceOnUse" id="v" spreadMethod="pad" x1="-819.2" x2="819.2"><stop offset="0" stop-color="#bfb1a2"/><stop offset=".498" stop-color="#e4e1de"/><stop offset=".988" stop-color="#c7bbad"/></linearGradient><linearGradient gradientTransform="matrix(-.001 0 0 .0198 16.45 -58.9)" gradientUnits="userSpaceOnUse" id="w" spreadMethod="pad" x1="-819.2" x2="819.2"><stop offset="0" stop-color="#bfb1a2"/><stop offset=".498" stop-color="#e4e1de"/><stop offset=".988" stop-color="#c7bbad"/></linearGradient><linearGradient gradientTransform="matrix(-.001 0 0 .0198 16.45 -60.1)" gradientUnits="userSpaceOnUse" id="x" spreadMethod="pad" x1="-819.2" x2="819.2"><stop offset="0" stop-color="#bfb1a2"/><stop offset=".498" stop-color="#e4e1de"/><stop offset=".988" stop-color="#c7bbad"/></linearGradient><linearGradient gradientTransform="matrix(-.0007 .0012 .0034 .0019 32 -40.3)" gradientUnits="userSpaceOnUse" id="y" spreadMethod="pad" x1="-819.2" x2="819.2"><stop offset="0" stop-color="#bfb1a2"/><stop offset=".498" stop-color="#e4e1de"/><stop offset=".988" stop-color="#c7bbad"/></linearGradient><linearGradient gradientTransform="matrix(-.0007 .0012 .0034 .0019 26.3 -43.3)" gradientUnits="userSpaceOnUse" id="z" spreadMethod="pad" x1="-819.2" x2="819.2"><stop offset="0" stop-color="#bfb1a2"/><stop offset=".498" stop-color="#e4e1de"/><stop offset=".988" stop-color="#c7bbad"/></linearGradient><linearGradient gradientTransform="matrix(-.0007 .0012 .0034 .0019 27.95 -42.4)" gradientUnits="userSpaceOnUse" id="A" spreadMethod="pad" x1="-819.2" x2="819.2"><stop offset="0" stop-color="#bfb1a2"/><stop offset=".498" stop-color="#e4e1de"/><stop offset=".988" stop-color="#c7bbad"/></linearGradient><linearGradient gradientTransform="matrix(-.0007 .0012 .0034 .0019 30.35 -41.2)" gradientUnits="userSpaceOnUse" id="B" spreadMethod="pad" x1="-819.2" x2="819.2"><stop offset="0" stop-color="#bfb1a2"/><stop offset=".498" stop-color="#e4e1de"/><stop offset=".988" stop-color="#c7bbad"/></linearGradient><linearGradient gradientTransform="matrix(-.0337 0 0 .0341 41.9 -39.55)" gradientUnits="userSpaceOnUse" id="C" spreadMethod="pad" x1="-819.2" x2="819.2"><stop offset="0" stop-color="#bfb1a2"/><stop offset=".498" stop-color="#ddd8d3"/><stop offset=".988" stop-color="#bfb1a2"/></linearGradient><linearGradient gradientTransform="matrix(-.001 0 0 .0198 38.7 -51.15)" gradientUnits="userSpaceOnUse" id="D" spreadMethod="pad" x1="-819.2" x2="819.2"><stop offset="0" stop-color="#bfb1a2"/><stop offset=".498" stop-color="#e4e1de"/><stop offset=".988" stop-color="#c7bbad"/></linearGradient><linearGradient gradientTransform="matrix(-.0138 0 0 .0065 29.4 -42.5)" gradientUnits="userSpaceOnUse" id="E" spreadMethod="pad" x1="-819.2" x2="819.2"><stop offset="0" stop-color="#bfb1a2"/><stop offset=".498" stop-color="#e4e1de"/><stop offset=".988" stop-color="#c7bbad"/></linearGradient><linearGradient gradientTransform="matrix(-.0007 .0012 .0034 .0019 20.2 -28.95)" gradientUnits="userSpaceOnUse" id="F" spreadMethod="pad" x1="-819.2" x2="819.2"><stop offset="0" stop-color="#bfb1a2"/><stop offset=".498" stop-color="#e4e1de"/><stop offset=".988" stop-color="#c7bbad"/></linearGradient><linearGradient gradientTransform="matrix(-.0007 .0012 .0034 .0019 20.15 -28.05)" gradientUnits="userSpaceOnUse" id="G" spreadMethod="pad" x1="-819.2" x2="819.2"><stop offset="0" stop-color="#bfb1a2"/><stop offset=".498" stop-color="#e4e1de"/><stop offset=".988" stop-color="#c7bbad"/></linearGradient><linearGradient gradientTransform="matrix(-.001 0 0 .0198 16.5 -38.15)" gradientUnits="userSpaceOnUse" id="H" spreadMethod="pad" x1="-819.2" x2="819.2"><stop offset="0" stop-color="#bfb1a2"/><stop offset=".498" stop-color="#e4e1de"/><stop offset=".988" stop-color="#c7bbad"/></linearGradient><linearGradient gradientTransform="matrix(-.001 0 0 .0198 44.25 -45.8)" gradientUnits="userSpaceOnUse" id="I" spreadMethod="pad" x1="-819.2" x2="819.2"><stop offset="0" stop-color="#bfb1a2"/><stop offset=".498" stop-color="#e4e1de"/><stop offset=".988" stop-color="#c7bbad"/></linearGradient><linearGradient gradientTransform="matrix(-.001 0 0 .0198 44.25 -44.6)" gradientUnits="userSpaceOnUse" id="J" spreadMethod="pad" x1="-819.2" x2="819.2"><stop offset="0" stop-color="#bfb1a2"/><stop offset=".498" stop-color="#e4e1de"/><stop offset=".988" stop-color="#c7bbad"/></linearGradient><g id="a"><path d="m14.45-24.9.05.05.45.2.15.05.65.1.75.05h.05l.8-.05.75-.15.45-.2h.05v2.45l.05 1.55.05.15-.45.4-.2.05-.75.15-.8.05h-.05l-.85-.05-.75-.15q-.65-.2-.65-.45l.1-.15.05-1.35v-.05l.05.05v-.25.05h-.05v-.1l.05.05v-.3l-.05.05v-.05l.05-2.15.05.05v-.05M42.1-12.1l.55.2.7.2.8.05h.35l.35-.05.95-.2.4-.15.05-.05.05 4 .1.2-.15.2-.5.2-.85.2-.4.05h-.2l-1-.05-.75-.2q-.7-.2-.65-.4l.05-.2.1-4h.05l-.1 4-.05.2.65.4.7.2-.7-.2-.65-.4.05-.2.1-4m-26.5-8-.7-.15-.65-.45.1-.15.05-1.35-.05 1.35-.1.15.65.45.7.15m-1.15-4.75-.05 2.1.05-2.1M44.3-7.25l.6-.05-.6.05" fill="#614b49" fill-rule="evenodd" transform="translate(-13.7 69.15)"/><path d="M36.55-35.25v.05l-.25-.1.25-.1h.05v.2l-.05-.05m9.35 22.5-.15-.05h.05l.1.05M14.35-22.2l-.25-.1.25-.1h.05v.2l-.05-.05v.05" fill="#666" fill-opacity=".502" fill-rule="evenodd" transform="translate(-13.7 69.15)"/><path d="m36.5-34.65-.95-.5.95.45-.9-.45.95.45v.05l-.05-.05v.05" fill="#a38c7e" fill-rule="evenodd" transform="translate(-13.7 69.15)"/><path d="m46.25-25.6-.1.05h-.2v-.3h.3v.25m-3.45-.25v.35l-.7-.35h.7m3.1.3v-.3h.05v.3h-.05" fill="#bb7648" fill-rule="evenodd" transform="translate(-13.7 69.15)"/><path d="m46.15-25.55-.2.1v-.05l-.05.05v-.1h.25m-.2.05v-.05.05" fill="#a3693b" fill-rule="evenodd" transform="translate(-13.7 69.15)"/><path d="M15.15-51.15v2.75l-.05-.05v-1.65h.05v-1.05m3 4.25 5 2.55v.05l-.05-.05-4.95-2.55M30-41.65h.05v.9L30-40.8v-.85m3.15 2.45 1.85 1 .1.05h.05l1 .55-1.05-.55-.8-.4.8.4h-.05l-.1-.05-.65-.35-.3-.15-.85-.45v-.05M23.45-63l-.4-.2h.05l.35.2m-4.4-2.3-.95-.5.95.5m23.7 12.55v-.05l.15.2h-.05l-.1-.15m.2.15H43v1.5h-.05v-1.5m.05 5.1v2.35h-.05L43-47.5M23.1-63.2l.05-.05 6.3 3.25v.05h-.05V-60l-6.3-3.2m27.15 34.95-.2.05H50v1l.25.3v.15l-.3-.45v-1H50l.25-.05m-.85 2.5h-.05l.05-.05h.05q.8 0 .75-.6l.05-.25v.25q.1.6-.8.6l-.05.05m-.9 0h-.05l.05-.05v.05" fill="url(#b)" fill-rule="evenodd" transform="translate(-13.7 69.15)"/><path d="M15.2-69.15v.25h-.05v-.25h.05" fill="url(#c)" fill-rule="evenodd" transform="translate(-13.7 69.15)"/><path d="m15.15-67.95-.05 2.25v6.35h-.05v-5.85l.05-2.75h.05m-.05 2.25-.05.5.05-.5m-.05 6.35v-1.4 1.4" fill="url(#d)" fill-rule="evenodd" transform="translate(-13.7 69.15)"/><path d="m17.6-68.3-1.1.35h-.05l1.15-.35" fill="url(#e)" fill-rule="evenodd" transform="translate(-13.7 69.15)"/><path d="M15.1-58.7v-.65h.05v.65h-.05v-.65.65" fill="url(#f)" fill-rule="evenodd" transform="translate(-13.7 69.15)"/><path d="M15.05-58.7h.05l-.05 6.45v2.15H15v-2.15l.05-1.2v2.3-7.55M15-52.25l.05 1.1-.05-1.1" fill="url(#g)" fill-rule="evenodd" transform="translate(-13.7 69.15)"/><path d="m30.35-40.6 2.75 1.45v.05L30-40.75l.3.15h.05" fill="url(#h)" fill-rule="evenodd" transform="translate(-13.7 69.15)"/><path d="m27.85-41.85.3.15-.8-.4L23-44.3l.1-.05.05.05h-.1l4.3 2.2.5.25m2.15 1.1v-.05l.05.05q.15.05.25.15l-.3-.15h.05H30" fill="url(#i)" fill-rule="evenodd" transform="translate(-13.7 69.15)"/><path d="m28.65-41.65.05-.05v.05h-.05" fill="url(#j)" fill-rule="evenodd" transform="translate(-13.7 69.15)"/><path d="M15.1-40v14.4h-.05l-.05.05h-.05l-.55.3-.1.15.15.2v.05l-.05-.05-.15-.2.1-.15.55-.3h.05l.05-.05h.05v-14.45l.05.05m3 4.65v-.05l24.7 12.65-.05 9.95h-.1l-.6.3-.05.2.1.2h-.05l-.1-.2.05-.2.6-.3h.1l.05-9.95-24.65-12.6m-3 8.4-.05 1.35.05-1.35" fill="url(#k)" fill-rule="evenodd" transform="translate(-13.7 69.15)"/><path d="m36.55-35.7-.05.1.05.1v.05l-.1-.15.1-.15v.05" fill="url(#l)" fill-rule="evenodd" transform="translate(-13.7 69.15)"/><path d="M18.1-39.05v.05-.05l.05-.05h.1l.2-.1-.2.1h-.05l-.1.05" fill="url(#m)" fill-rule="evenodd" transform="translate(-13.7 69.15)"/><path d="M19.85-28.75v-2.2h.05v2.2h-.05" fill="url(#n)" fill-rule="evenodd" transform="translate(-13.7 69.15)"/><path d="M19.9-27.6v.05l-.1-.05v-1.15h.05v1.15h.05" fill="url(#o)" fill-rule="evenodd" transform="translate(-13.7 69.15)"/><path d="m14.35-22.45-.1-.15.1-.15v.05l-.05.1.05.1v.05" fill="url(#p)" fill-rule="evenodd" transform="translate(-13.7 69.15)"/><path d="M18.05-50.65v-.05l.05.05.05.15-.05-.15-.05-.05v-.05l.05.1h.05v.15l.05.4-.1-.3v-.25h-.05m9 5.5 1.25.6.05.05 13.8 7.2h-.1l-13.7-7.15-.1-.05-.25-.15-.95-.5" fill="#c1683e" fill-rule="evenodd" transform="translate(-13.7 69.15)"/><path d="m18.1-68.35 1.8.65 22.35 11.6.5.3.2.1.65.35.15.1.15.1.2.15.35.3.7.95.7 1.55v16.95l-.05 5.3-.05 1.2.05-1.2v1.2h-2.95l.05-4.85v-.05l-.65-.8-.1-.05-4.3-2.2-1.35-.7-.35-.2-1-.55h-.05l-.1-.05-1.85-1-2.8-1.45-.3-.15v-.85h-.6v-.4l-.75.35-.05.05h-.25l-.35-.15-.3-.15-4.6-2.4-5-2.55v6.8l-.05-.5.05.5v.1l-.05.35v.2-1.15h-2.95v-10.55l.1-7.55v-.65h-.05l.05-6.95q.1-.85.9-1.45l.35-.2h1.6v-.4M42.75-52.8l-.2-.3-.2-.1-1.7-.9-.3-.15-.75-.4-10.2-5.3-.5-.25.5.25h.05V-60l-6.3-3.25-.05.05h-.05l-1.65-.9h-.05l-2.3-1.2-.95-.5v.35l-.05 14.7v.1l.05.25.1.3.05.4 1.05.65 6.9 3.5.55.25.3.15.95.5.35.2-.35-.2.25.15.1.05 13.7 7.15h.9l.05-7.1v-8.2h-.1l-.15-.2M23.1-63.2l.5.25-.5-.25m3.4 19.5-.15.05-.7.4.95-.45h-.1m19.25 17.3.05-2.35v2.3l-.05.05m4.5-.5-.25-.3v-1h.05l.2-.05h.05v1.5l-.05-.15m0 .45.05-.2v.9h-.9l.05-.05q.9 0 .8-.6v-.05m-1.75.7.05-.05.05.05h-.1" fill="url(#q)" fill-rule="evenodd" transform="translate(-13.7 69.15)"/><path d="m28.9-60.2.5.25 10.2 5.3.75.4.3.15 1.7.9.2.1.2.3v.25l.15.1v1.3l-.05 6h.1v.75h-.05l-.05 7.1h-.35l.05-15.35-24.45-12.8 24.45 12.8-.05 15.35h-.35l-13.8-7.2-.05-.05-1.25-.6-.3-.15-.55-.25-6.9-3.5-1.05-.65-.05-.4-.05-.4v-.15h-.05l-.05-.1.05-14.7v-.35l.95.5 2.3 1.2h.05l1.65.9h.05-.05l.4.2 5.45 2.8" fill="url(#r)" fill-rule="evenodd" transform="translate(-13.7 69.15)"/><path d="M42.95-45.15h-.1l.05-6 .05.05H43v3.6l-.05 2.35" fill="url(#s)" fill-rule="evenodd" transform="translate(-13.7 69.15)"/><path d="M15.2-69.15h.05v.25h-.05v-.25" fill="url(#t)" fill-rule="evenodd" transform="translate(-13.7 69.15)"/><path d="m16.5-67.95-.35.2q-.8.6-.9 1.45l-.05 6.95h-.1v-6.35l.05-2.25h1.35m-1.25 1.65-.15 1.1.15-1.1m-.15 5.55v1.4-1.4" fill="url(#u)" fill-rule="evenodd" transform="translate(-13.7 69.15)"/><path d="M18.1-68.35v.4h-1.6l1.1-.35.45-.05h.05" fill="url(#v)" fill-rule="evenodd" transform="translate(-13.7 69.15)"/><path d="M15.2-59.35h.05v.65h-.1v-.65h.05" fill="url(#w)" fill-rule="evenodd" transform="translate(-13.7 69.15)"/><path d="m15.25-58.7-.1 7.55v1.05h-.05l-.05-2.15.05 2.15h-.05v-2.15l.05-6.45h.15" fill="url(#x)" fill-rule="evenodd" transform="translate(-13.7 69.15)"/><path d="m30.35-40.65 2.8 1.45v.1l-.05-.05-2.75-1.45v-.05m0 .05 2.8 1.45-2.8-1.45" fill="url(#y)" fill-rule="evenodd" transform="translate(-13.7 69.15)"/><path d="M26.5-43.7h.1l-.95.45.7-.4.15-.05" fill="url(#z)" fill-rule="evenodd" transform="translate(-13.7 69.15)"/><path d="m23.15-44.35 4.6 2.4.3.15.35.15h-.1l-.45-.2-.5-.25-4.3-2.2h.1v-.05m6.9 3.55.3.15v.05h-.05q-.1-.1-.25-.15l.3.15-.3-.15v-.05m-2-1 .3.15-.3-.15" fill="url(#A)" fill-rule="evenodd" transform="translate(-13.7 69.15)"/><path d="m28.7-41.7.75-.35v.4h-.75v-.05" fill="url(#B)" fill-rule="evenodd" transform="translate(-13.7 69.15)"/><path d="M15.15-40.6h2.95v1.55l.2.7.2.1.15.1.4.25 1.35.85 7.75 3.95.65.35 13.3 6.9.7.35v-3.25h3l-.05 2.35v1.05l.2-.1.2-.1.1-.05v3l-.5.25v9.55l.15.05.35.2.05.05h.05l.1.2-.2.2-.05.05-.4.15-.95.2-.35.05h-.35l-.8-.05-.7-.2-.55-.2-.1-.2.05-.2.6-.3h.1l.05-9.95L18.1-35.4v9.85l.15.05.4.2.05.05.05.15-.15.25h-.05l-.45.2-.75.15-.8.05h-.05l-.75-.05-.65-.1-.15-.05-.45-.2-.05-.05-.15-.2.1-.15.55-.3H15l.05-.05h.05v-15h.05m2.95 1.55v.05-.05" fill="url(#C)" fill-rule="evenodd" transform="translate(-13.7 69.15)"/><path d="m36.55-35.5-.05-.1.05-.1.05-.05v.3l-.05-.05" fill="url(#D)" fill-rule="evenodd" transform="translate(-13.7 69.15)"/><path d="m18.5-38.25-.2-.1-.2-.7.1-.05h.05l.2-.1h.05v.95l-.3-.85.3.85" fill="url(#E)" fill-rule="evenodd" transform="translate(-13.7 69.15)"/><path d="M19.9-30.95h.1v2.5l-.05-.05v-.25h-.05v-2.2" fill="url(#F)" fill-rule="evenodd" transform="translate(-13.7 69.15)"/><path d="M19.95-28.5v.95l-.05-.05h-.05v-1.15h.1v.25" fill="url(#G)" fill-rule="evenodd" transform="translate(-13.7 69.15)"/><path d="M18.6-22.4v-.4h.05l.05.05.05.15-.15.2m-4.2-.35v.3l-.05-.05-.05-.1.05-.1.05-.05" fill="url(#H)" fill-rule="evenodd" transform="translate(-13.7 69.15)"/><path d="m42.85-37.3.05-7.1h.1l-.05 7.1h-.1" fill="url(#I)" fill-rule="evenodd" transform="translate(-13.7 69.15)"/><path d="M42.95-44.4v-.75H43v.75h-.05" fill="url(#J)" fill-rule="evenodd" transform="translate(-13.7 69.15)"/><path d="m15.1-65.2.15-1.1m-.2 1.1.05-.5m-.05 6.35v.65m.05-.65v-1.4m-.05 0v1.4m.05 10.9v21.5m-.05-26.5-.05 1.2m.05 12.2v13.1L15-25.6m3.5-12.65-.3-.85m-3.15 13.5.05-1.35" fill="none" stroke="#333" stroke-linecap="round" stroke-linejoin="round" transform="translate(-13.7 69.15)"/><path d="m23.15-44.35 4.6 2.4m18 13.2.05-1.2.05-5.3M18.1-65.45l24.45 12.8-.05 15.35M15.1-60.75v-4.45m0 5.85v.65l-.05 6.45.05 2.15v1.65m-.05-12.3v-4.45m0 9.75v-3.25m0 7.55-.05-1.1m.05 2.15.05 1.65m3.1-1.65-.05-.4v-.15h-.05l-.05-.1.05-14.7m.1 15.35.05.4 1.05.65 6.9 3.5.55.25.3.15 1.25.6.05.05 13.8 7.2h.35M34-38.7l.3.15.8.4m-2-1 .05.05 1.9.95m-1.9-1-2.8-1.45 2.75 1.45m-3.1-1.6-1.65-.9 1.65.85m4 2.1-.85-.45M28-44.65l.35.2 13.7 7.15M28-44.65l-.95-.5m-3.9.85-.05-.05m5.25 2.7-.3-.15M30-40.75h.05L30-40.8m.05.05q.15.05.25.15h.05l-.3-.15m12.05 14.9.15-8.6" fill="none" stroke="#000" stroke-linecap="round" stroke-linejoin="round" transform="translate(-13.7 69.15)"/><path d="M15.05-53.45v-2m0 4.3v1.05m0-1.05v-2.3" fill="none" stroke="#333" stroke-linecap="round" stroke-linejoin="round" transform="translate(-13.7 69.15)"/><path d="M45.85-35.25V-52.2l-.7-1.55-.7-.95-.35-.3-.2-.15-.15-.1-.15-.1-.65-.35-.2-.1-.5-.3L19.9-67.7l-1.8-.65h-.05l-.45.05-1.1.35-.35.2q-.8.6-.9 1.45m2.85 25.7.05.5v-6.8l5 2.55m12 6.2 1 .55.35.2 1.35.7 4.3 2.2.1.05M17.6-68.3l-1.15.35m1.6 17.25v.05h.05v.25l.1.3m-.05-.4-.05-.15-.05-.05v-.05m.05.35-.05-.25m5.05 6.3-4.95-2.55m16.95 8.75 1.05.55m-17.65-.65-.2-.1m-.2-.7v.05-1.6m.55 2.45 2.2 1.15 6.4 3.4 1.55.85 13.3 6.9M28.15-33.1l-.9-.5M15.1-48.45l.05.05m-.05 22.8h-.05l-.05.05h-.05l-.55.3-.1.15.15.2.05.05.45.2.15.05.65.1.75.05h.05l.8-.05.75-.15.45-.2h.05l.15-.25-.05-.15-.05-.05-.4-.2-.15-.05v-9.85l24.7 12.65-.05 9.95h-.1l-.6.3-.05.2.1.2.55.2.7.2.8.05m.05 0h.3l.35-.05.95-.2.4-.15.05-.05.2-.2-.1-.2h-.05l-.05-.05-.35-.2-.15-.05v-9.55l.5-.25m0-3-.1.05-.2.1-.2.1v-1.05l.05-2.35M15.1-40l-.05-.05m0 14.45H15l-.05.05h-.05l-.55.3-.1.15.15.2.05.05v-.05m3.7-15.2v.1m-.05.95.1-.05h.05l-.1-1m.1 14.6-.15-.05m.5 2.75v.4l.05 1.55.05.15-.45.4-.2.05-.75.15-.8.05h-.05l-.85-.05-.75-.15q-.65-.2-.65-.45l.1-.15.05-1.35m4.25-.6v-2.05m-4.25 2.45v-.05m0-.3.05-2.15m0 2.15v.55l-.05 1.35-.1.15.65.45.7.15m-1.25-2.6v-.05m0 .25v.05m.05-.3.05-2.1m-.1 2.6v.05m6.5-14.8-1.8-.9m26.9 12.35v-.3m0 .3v.1m-3.9 13.35-.1-.2.05-.2.6-.3h.1l.05-9.95-24.65-12.6m27.8 22.6-.1-.05h-.05m.5.7.05 4 .1.2-.15.2-.5.2-.85.2-.4.05h-.2l-1-.05-.75-.2q-.7-.2-.65-.4l.05-.2.1-4h.05l-.1 4-.05.2.65.4.7.2m1.6 0-.6.05" fill="none" stroke="#000" stroke-linecap="round" stroke-linejoin="round" transform="translate(-13.7 69.15)"/></g></defs></svg>