<svg xmlns="http://www.w3.org/2000/svg" xmlns:xlink="http://www.w3.org/1999/xlink" height="78" width="49"><use height="78" width="48.55" xlink:href="#shape0"/><defs id="defs55"><g id="shape0" transform="translate(-17.85 81)"><path d="M36-21.95l28.8 6.85L46.55-4.05l-28.7-6.85L36-21.95" fill="#000" fill-opacity=".29" fill-rule="evenodd" stroke="none" id="path6"/><path d="M36-21.95l-7.75-1.8" fill="none" stroke="#3f2b1f" stroke-linecap="round" stroke-linejoin="round" stroke-width=".5" id="path8"/><path d="M55.75-69.85l.25 1.5-2.05-.55-2.8-.5-22.6-4.75-2.8-.65 2.8.65 22.6 4.75 2.8.5 2.05.55.1.05-.35-1.55-.65-3.2.65 3.2m-32.9-9.95l32.25 6.75 1.85-.9.9 4.65-1.75 1 10.05 51.5-1.85.9-2.75-.55-2.3-11.75-20.55-4.25 2.05 10.35-1.85.9-2.75-.6-10.4-53-2-.4-.9-4.6m12.9 42.3l-7.2-36.65 7.2 36.65 22.6 4.75.9 4.55-.9-4.55-22.6-4.75.9 4.55 2.05.5-2.05-.5-.9-4.55m15.4-31.9l7.2 36.65-7.2-36.65m2.8.5l10.35 53-10.35-53M38.9-21.2l-2.25-11.75L38.9-21.2" fill="#33231a" fill-rule="evenodd" stroke="none" id="path10"/><path d="M56-68.35l-.25-1.5.35 1.55-.1-.05" fill="#7d451b" fill-rule="evenodd" stroke="none" id="path12"/><path d="M55.1-73.05L22.85-79.8l1.8-.95 32.3 6.8-1.85.9" fill="#8d6347" fill-rule="evenodd" stroke="none" id="path14"/><path d="M56-68.35l-.25-1.5-.65-3.2M25.75-74.8l2.8.65 22.6 4.75 2.8.5 2.05.55.1.05-.35-1.55M64.3-15.9l-2.75-.55-2.3-11.75-20.55-4.25m20.55 4.25l-.9-4.55-22.6-4.75.9 4.55 2.05.5m-2.05-.5L38.9-21.2m25.4 5.3l-10.35-53m4.4 36.15l-7.2-36.65m-22.6-4.75l7.2 36.65" fill="none" stroke="#000" stroke-linecap="round" stroke-linejoin="round" stroke-width=".5" id="path16"/><path d="M55.1-73.05L22.85-79.8m34.1 5.85l.9 4.65-1.75 1 10.05 51.5-1.85.9M38.7-32.45l2.05 10.35-1.85.9m16.2-51.85l1.85-.9-32.3-6.8-1.8.95" fill="none" stroke="#bf9b84" stroke-linecap="round" stroke-linejoin="round" stroke-width=".5" id="path18"/><path d="M22.85-79.8l.9 4.6 2 .4M38.9-21.2l-2.75-.6-10.4-53" fill="none" stroke="#271a14" stroke-linecap="round" stroke-linejoin="round" stroke-width=".5" id="path20"/><path d="M53-66.55l-4.05 62.5-1.75.8 4.1-63.7 1.7.4m2.5-6.2l-.3 5.45-1.75.8.3-5.45 1.75-.8" fill="#724938" fill-rule="evenodd" stroke="none" id="path22"/><path d="M20.5-78.95l1.75-.8 33.25 7-1.75.8-33.25-7" fill="#8d6347" fill-rule="evenodd" stroke="none" id="path24"/><path d="M53.45-66.5l-.45-.05-1.7-.4-4.1 63.7-2.9-.65.9-14.1-21.5-4.5-1.7-.4.3-4.7.05-.8.85.2 22.35 4.7 2.25-35.05.6-9-23.2-4.9-.5 7.9-.1 1.1-.05 1.1-2.2 33.95-.05.8-.3 4.7-.9 14.1-2.9-.55 4.05-63.7-2.05-.4.3-5.5 33.25 7-.3 5.45m-2.15-.45l-2.9-.6 2.9.6m-29.05-6.1l2.95.6-2.95-.6M45.2-18l.35-5.5-.35 5.5m-.5-4.9l-22.4-4.7 22.4 4.7" fill="#543b29" fill-rule="evenodd" stroke="none" id="path26"/><path d="M24.7-64.55l.5-7.9 23.2 4.9-.6 9-22.35-4.7-.8-.2.05-1.1-.05 1.1h-.05l.1-1.1m1.3-7.4l-.55 8.7.55-8.7" fill="#fff" fill-rule="evenodd" stroke="none" id="path28"/><path d="M24.65-63.45l.8.2L23.2-28.2l2.25-35.05 22.35 4.7-2.25 35.05-22.35-4.7-.85-.2 2.2-33.95.05-1.1h.05l-.1 1.1.1-1.1" fill="#eddc02" fill-rule="evenodd" stroke="none" id="path30"/><path d="M23.7-22.5l-.85 12.9-1.75.8.9-14.1 1.7.4" fill="#33231a" fill-rule="evenodd" stroke="none" id="path32"/><path d="M53-66.55l-4.05 62.5-1.75.8m8.3-69.5l-.3 5.45-1.75.8.3-5.45m1.75-.8l-1.75.8" fill="none" stroke="#724938" stroke-linecap="round" stroke-linejoin="round" stroke-width=".5" id="path34"/><path d="M47.2-3.25l-2.9-.65.9-14.1M21.1-8.8l-2.9-.55 4.05-63.7m-2.05-.4l.3-5.5m30.8 12l-4.1 63.7m.6-55.3l.6-9-23.2-4.9-.5 7.9-.05 1.1-.1 1.1-2.2 33.95.85.2m25.2-39.35l2.9.6m-26.1-5.5l-2.95-.6m25.55 14.5L45.55-23.5M21.1-8.8l.9-14.1m.3-4.7l22.4 4.7" fill="none" stroke="#885f44" stroke-linecap="round" stroke-linejoin="round" stroke-width=".5" id="path36"/><path d="M53.45-66.5l-.45-.05-1.7-.4" fill="none" stroke="#000" stroke-linecap="round" stroke-linejoin="round" stroke-width=".5" id="path38"/><path d="M20.5-78.95l1.75-.8 33.25 7m-1.75.8l-33.25-7" fill="none" stroke="#bf9b84" stroke-linecap="round" stroke-linejoin="round" stroke-width=".5" id="path40"/><path d="M25.45-63.25l.55-8.7M23.2-28.2l2.25-35.05m20.1 39.75L23.2-28.2" fill="none" stroke="#342e52" stroke-linecap="round" stroke-linejoin="round" stroke-width="1.25" id="path42"/><path d="M22.25-73.05l-2.05-.4" fill="none" stroke="#1d130e" stroke-linecap="round" stroke-linejoin="round" stroke-width=".5" id="path44"/><path d="M45.2-18l-21.5-4.5m21.85-1L45.2-18M22-22.9l1.7.4m-1.7-.4l.3-4.7.05-.8" fill="none" stroke="#3f2b1f" stroke-linecap="round" stroke-linejoin="round" stroke-width=".5" id="path46"/><path d="M23.7-22.5l-.85 12.9-1.75.8" fill="none" stroke="#33231a" stroke-linecap="round" stroke-linejoin="round" stroke-width=".5" id="path48"/><path d="M43.85-62.9l-.1.95 2.25.45.1-.95-2.25-.45m-1.95-3.25l-1.25-.25-.35.6 1.15.2-.45 3.95-.8-.55.4-2.3-1.2-.05-.05-.9-.55-.15-1.25.8-.3 2.4-.55-.1.25-4 1.15.2-.2-.7-1.25-.25.05-.55 2.35.5.05-.5.6.1-.05.5 2.3.5-.05.55m2.9.75l.5.1-.05.85 1.75.35-.05.5-1.75-.35-.05.8 1.5.3-.15 2.25-2.75-.85-.6.25.15-2.35 1.35.3.15-2.15m.4-1.2l-.05.6 2.1.45-.05.55-4.25-.9-.9 4.6-.4-.6.85-4.65 2.05.45.05-.6.6.1m-14.25-1.8l-.45 4.3q-.8.35-.9-.35-.35-.65.5-.15l.25-3.4-1.5-.3-.05.45L30.15-66l-.5.4-1.05-1.7-1.4 1.4-.25-.65 1.4-1.85-1.35-.3-.25 3.95-.5-.1.3-4.45 1.9.4.05-1.1.5.1-.05 1.1 2 .4M38-64.5l2.15.45-.1 1.55-1.65-.3v.2l-.5-.15.1-1.75m1.55 1.4v-.6l-1.1-.2v.6l1.1.2m-2.05-2.75l.1.45q.45.2.7-.3l-.8-.15m1-1l.2.7 1 .2.35-.6-1.55-.3m-3.45 2.15l.1.15.15-.45-.1.05-.15.25m-3-1.65l-.05.5.55.15.05-.5-.55-.15m.05-.45l.5.15.05-.65-.5-.15-.05.65m2.55.7q.9.4.1-.15l-.1.15m-3.1-2.45l.05-.45 5 1.05-.05.45-1.55.05.05.8.75-.6.2.65.4.25-.05.45-.8.1.95.7-.65-.15.8.85-.4.35-.35-.35-.4.3.7.95-1.2-.15-.4.4-.35-.9-1 .2-.05-.5 1.15-.2.25-.95-.5-.15.15.75-.35.25-.35-.5-.6-.2-.65 1.65-.15-.65.35-1.05-.55-.15-.55 1.35.35-4.1 1.4.3.15 1.55h.8l-.8-.3.05-.45 1.1.2.2-.75-1.45-.45-.3-.35-1.35-.25" fill="#e30202" fill-rule="evenodd" stroke="none" id="path50"/><path d="M42.45-54.6q.3.9 0 .2v-.2m-.2 1.4l.1.55-2.55.45-.15.7 2.65.8.05.45-3.05-1.1v-.8l1.15-.75-.05-1.85.5.05-.1 1.75 1.45-.25m2.2-.75l.45.3-1.1 1.85 1.05-.1.15 1.6.5.25.95-1.35-.7 1.75-1.15-.5-.15-1.5-.8.35-.7 1.15-.45-.3 1.95-3.5M42.7-34.9l-1.55-.3-.1 1.85 1.55.3.1-1.85m-1.45-8.55l-.45-.3 1.95-3.5.45.3-1.1 1.85.8-.2.4 1.7.5.25.95-1.35-.7 1.75-1.15-.5-.15-1.5-.8.35-.7 1.15m-2.45 13.1l-.6-.1.4-5.9 4.75 1-.65 5.75-.75-.2-.25-.65.7.1.15-2.1L39-33.2l-.2 2.85m-7.7-6.7q-.35.65-.45 1.6-.05 1 .2 1.7.2.75.8.85.55.1.95-.45l.4-1.6q.1-.95-.15-1.7-.35-.7-.9-.8-.6-.1-.85.4m8.05 1.4l-.1 1.85 1.45.3.1-1.85-1.45-.3m-3.55 3.6q.55.1.95-.45l.4-1.6q.1-.95-.15-1.7-.35-.7-.9-.8-.6-.1-.85.4l-.45 1.6q-.05 1 .2 1.7.2.75.8.85m1.3.1q-.6.6-1.3.45-.75-.15-1.2-.95-.5-.85-.45-2.3.1-1.4.7-1.95.55-.6 1.3-.45.7.15 1.2.95.5.85.4 2.25-.05 1.45-.65 2M26.8-37.8l.05-.6 1.05-.3.55.15-.35 5.35-.55-.15.3-4.7-1.05.25m3.3-9.4v-2l.55 2.4-.55-.4m.6 9.65q.55-.6 1.3-.45l1.2.95q.5.85.4 2.25-.05 1.45-.65 2-.6.6-1.3.45-.75-.15-1.2-.95-.5-.85-.45-2.3.1-1.4.7-1.95m.8-11.9l.35.25-.7 3.55.35-3.8m2.1.3l.45.1-.05 1h.8l-.1.45h-.5l-1.1 2.35-.55.2-.2-.45.95-.55.25-1.65-1.25-.2.05-.45 1.2.25.05-1.05m3.9 3.4l-.8.95-1.5.05 1.85-1.05-.4-1.25-1.8-.25 1.85-.2.8 1.75m-.65-2.6l-.05.45-1.55-.5.2-.4 1.4.45m1.85.3l.5.05-.1 1.75 1.45-.25.1.55-2.55.45-.15.7 2.65.8.05.45-3.05-1.1v-.8l1.15-.75-.05-1.85m-2.25-5.65l.3-.5 2.15.45.25 1.35-.8.95-1.5.05 1.85-1.05-.4-1.25h-1.85m-.4-1.95l.25.45-2.2 1.1 2 2.45-.45.2-1.95-2.45 2.35-1.75m2.45.65l-.05.45-1.55-.5.2-.4 1.4.45m-5.45.85l-.1-.95h-1.8l.7 2.65-.45.05-1.55-2.8.75-.25-.25-.95.45-.05.25.9.8-.75 1.6 1.1.2.8-.6.8-1.3-1.05 1.3.5m-3.9-.4q.55.05-.1.15l.1-.15m-.65 4.3l.45.3-.25.7.6.1q.8 1.9-.75 3.1l-.35-1 .4.45.7-1.8-.5-.5-1.55 2.55-.4-.35.85-2.25-.3-.1.8-.25.3-.95m-2.45-5.95v-.5l.9.1.3-.95.45.3-.25.7.6.1.2.95q.25 1.6-.95 2.15l-.35-1 .4.45q1.15-1.35.2-2.3L26-53.65l-.4-.35 1.15-2.2h-.7" fill="#000" fill-rule="evenodd" stroke="none" id="path52"/></g></defs></svg>