<svg xmlns="http://www.w3.org/2000/svg" xmlns:xlink="http://www.w3.org/1999/xlink" height="168" width="97"><path d="M42.956 114.2l4.5-2.25" fill="none" stroke="#444" stroke-linecap="round" stroke-linejoin="round" stroke-width=".5"/><path d="M47.456 113.1l-4.5 2.25" fill="none" stroke="#e1e1e1" stroke-linecap="round" stroke-linejoin="round" stroke-width=".5"/><path d="M73.85 107.1l-1.15.8 1.15-.8.7 1.25-1.2.75 1.2-.75.55 1.1.65 1.3.7 1.45.65 1.35.6 1.5.4 1.25.5 1.8.25 1.55v1.2l-.15.9-.3.85-.45.65-.65.5q-.35.25-.9.45-2.85.55-1.3-1.05l.6-.25.95-.45.2-.1.2-.25.2-.35.15-.65.05-.95-.15-1.5-.4-1.6-.5-1.35-.5-1.4-.6-1.35-.7-1.45-.65-1.3-.6-1.1-.65-1.2-.75-1.3-.8-1.45-.8-1.25-.65-1.1-.15-.3-2.1-.75-4.05-3.45 4.1 2.75 2.2.75.65-.2.9 1.1.8 1.25.9 1.6.9 1.55m-1.9-.5l1-1.05-1 1.05m.1-2.65l-.9 1.2.9-1.2m4.35 20.25q-.15-.65-.7-1.3.55.65.7 1.3m1-3.1l1.45-.25-1.45.25m-.75 1.35l.65 1.3-.65-1.3m1.3.8l-1.1-.9 1.1.9m-.9-1.15l1.35.5-1.35-.5m1.65-.35h-1.45 1.45m-.1-3.65l-1.3.55 1.3-.55m-1.15 2.05l1.4-.5-1.4.5m.25-5.1q-.65.4-1.3.65.65-.25 1.3-.65m-.8 2l1.2-.75-1.2.75m-7.35-14.55l.15-.7-.15.7m.15.3l.65-1.2-.65 1.2m1.55-.1l-.9 1.2.9-1.2m-3.8-.95l.05-.7-.05.7m8.45 12.55l1.2-.75-1.2.75m.55-2.1l-1.15.75 1.15-.75m-1.85-.7l1.15-.75-1.15.75m.5-2.05l-1.15.75 1.15-.75" fill="#0f8c33" fill-rule="evenodd"/><path d="M72.7 107.9l1.15-.8-.9-1.55-1 1.05.75 1.3.65 1.2 1.2-.75-.7-1.25m-1.9-.5l-.8-1.45-.8-1.25-.65-1.1-.15-.3-2.1-.75-4.05-3.45 4.1 2.75 2.2.75.65-.2.9 1.1.8 1.25.9 1.6m1.6 2.8l.55 1.1.65 1.3.7 1.45.65 1.35.6 1.5.4 1.25.5 1.8.25 1.55v1.2l-.15.9-.3.85-.45.65-.65.5q-.35.25-.9.45-2.85.55-1.3-1.05l.6-.25.95-.45.2-.1.2-.25.2-.35.15-.65.05-.95-.15-1.5-.4-1.6-.5-1.35-.5-1.4-.6-1.35-.7-1.45-.65-1.3-.6-1.1m.6 1.1l1.15-.75m.65 1.3l-1.15.75m.7 1.45l1.15-.75m.65 1.35l-1.2.75m-8.4-13.25l-.05.7m2.9 2.15l.9-1.2m-.9-1.1l-.65 1.2m0-1l-.15.7m8.55 13.8l-1.2.75m-.5-1.35q.65-.25 1.3-.65m1.15 4.6l-1.4.5m-.15-1.5l1.3-.55m-1.35 3.65h1.45m-.3.85l-1.35-.5m-.2.25l1.1.9m-.65.5l-.65-1.3m2.2-1.6l-1.45.25m-1.7 1.8q.55.65.7 1.3m-5.25-19.05l.9-1.2" fill="none" stroke="#000" stroke-linecap="round" stroke-linejoin="round" stroke-width=".5"/><path d="M56.9 123.75l2.6-1.3 11.4 5.7-1.75.9-1.35.65-13.9 6.95-1.4.7-1.75.85-11.35-5.65 2.45-1.25 15.05-7.55m11.45 5.65l-.55.3.55-.3.8-.35-.8.35" fill="#848484" fill-rule="evenodd"/><path d="M70.9 128.15v2.1L50.75 140.3v-2.1l1.75-.85 1.4-.7-.6.3.6-.3 13.9-6.95 1.35-.65 1.75-.9m-17.6 8.8l-.8.4.8-.4" fill="#484848" fill-rule="evenodd"/><path d="M44.45 121.25l-.1-.05.1-.05v.1m0 2.1l-.1-.05.1-.05v.1" fill="#c2c2c2" fill-rule="evenodd"/><path d="M50.75 140.3l-11.35-5.65v-2.1l11.35 5.65v2.1" fill="#686464" fill-rule="evenodd"/><path d="M56.9 123.75l2.6-1.3 11.4 5.7m-31.5 4.4l2.45-1.25m26.5-1.9l.8-.35 1.75-.9" fill="none" stroke="#737162" stroke-linecap="round" stroke-linejoin="round" stroke-width=".5"/><path d="M41.85 131.3l15.05-7.55m-3.6 13.2l.6-.3 13.9-6.95.55-.3" fill="none" stroke="#666457" stroke-linecap="round" stroke-linejoin="round" stroke-width=".5"/><path d="M52.5 137.35l.8-.4m-2.55 1.25l-11.35-5.65m11.35 5.65l1.75-.85" fill="none" stroke="#32302c" stroke-linecap="round" stroke-linejoin="round" stroke-width=".5"/><path d="M70.9 128.15v2.1" fill="none" stroke="#a6a6a6" stroke-linecap="round" stroke-linejoin="round" stroke-width=".5"/><path d="M39.4 134.65v-2.1" fill="none" stroke="#373737" stroke-linecap="round" stroke-linejoin="round" stroke-width=".5"/><path d="M50.75 140.3v-2.1" fill="none" stroke="#2f2f2f" stroke-linecap="round" stroke-linejoin="round" stroke-width=".5"/><path d="M70.9 130.25L50.75 140.3l-11.35-5.65" fill="none" stroke="#201f1c" stroke-linecap="round" stroke-linejoin="round" stroke-width=".5"/><path d="M53.65 133.95v4.4-4.4l22.1-11.65v4.4L56.4 136.9l-2.75 1.45-15.15-6.1v-4.4l15.15 6.1m0 3.95l2.75-1-2.75 1" fill="#c9bb76" fill-rule="evenodd"/><path d="M53.65 133.95l-15.15-6.1 22.1-11.65 15.15 6.1-22.1 11.65" fill="#fce113" fill-rule="evenodd"/><path d="M38.5 127.85v4.4l15.15 6.1 2.75-1.45 19.35-10.2" fill="none" stroke="#000" stroke-linecap="round" stroke-linejoin="round" stroke-width=".5"/><path d="M53.65 133.95l-15.15-6.1m37.25-5.55l-22.1 11.65m22.1-11.65l-15.15-6.1-22.1 11.65" fill="none" stroke="#544b01" stroke-linecap="round" stroke-linejoin="round" stroke-width=".5"/><path d="M53.65 138.35v-4.4m2.75 2.95l-2.75 1m22.1-11.2v-4.4" fill="none" stroke="#666" stroke-linecap="round" stroke-linejoin="round" stroke-width=".05"/><path d="M69.25 98.65q2.1.8 1.9 4.4l-.05 16.5-10.05 5.05-7.55 3.75-2.55 1.25-9.85-4.9.05-7.8 4.55-9.9 20.15-10.05 3.4 1.7m-18.25 11l.2-.1h-.35l.15.1m-6.35 3v-.1l-.1.05.1.05M45.7 107l5.15 2.55L45.7 107m5.5 2.55l-.25 20.05.25-20.05" fill="#2b994b" fill-rule="evenodd"/><path d="M44.7 92.6v.1l-.1-.05.1-.05m-.05 20.05l-.1-.05.1-.05v.1" fill="#c2c2c2" fill-rule="evenodd"/><path d="M53.5 128.35l-2.55 1.25-9.85-4.9m24.75-27.75l3.4 1.7m-18.25 11l.2-.1h-.35l.15.1m-.15-.1L45.7 107" fill="none" stroke="#737162" stroke-linecap="round" stroke-linejoin="round" stroke-width=".5"/><path d="M61.05 124.6l-7.55 3.75" fill="none" stroke="#666457" stroke-linecap="round" stroke-linejoin="round" stroke-width=".5"/><path d="M69.25 98.65q2.1.8 1.9 4.4l-.05 16.5-10.05 5.05m-19.95.1l.05-7.8 4.55-9.9m5.25 22.6l.25-20.05" fill="none" stroke="#666" stroke-linecap="round" stroke-linejoin="round" stroke-width=".5"/><path d="M45.7 107l20.15-10.05" fill="none" stroke="#a6d0b3" stroke-linecap="round" stroke-linejoin="round" stroke-width=".5"/><path d="M65.95 75.9l2.4-14.45h-34.4l2 14.3q.45 1.55 2.05 1.5h25.9q1.45-.05 2.05-1.35m2.25 2.55q-.7 1.8-2.35 1.85h-29.7q-1.8.05-2.35-2.1l-2.25-19.65h39.4l-2.75 19.9" fill="#b4b5ba" fill-rule="evenodd"/><path d="M65.95 75.9q-.6 1.3-2.05 1.35H38q-1.6.05-2.05-1.5l-2-14.3h34.4l-2.4 14.45" fill="#959595" fill-rule="evenodd"/><path d="M65.95 75.9l2.4-14.45h-34.4l2 14.3q.45 1.55 2.05 1.5h25.9q1.45-.05 2.05-1.35m2.25 2.55l2.75-19.9h-39.4L33.8 78.2q.55 2.15 2.35 2.1h29.7q1.65-.05 2.35-1.85" fill="none" stroke="#666" stroke-linecap="round" stroke-linejoin="round" stroke-width=".5"/><path d="M15.1-63.5q-.6 1.3-2.05 1.35h-25.9q-1.6.05-2.05-1.5l-2-14.3h34.4L15.1-63.5" fill="url(#linearGradient1385)" fill-rule="evenodd" transform="translate(51.05 139.55)"/><path d="M67.5 61.3H34.85l1.9 13.6q.4 1.45 1.95 1.4h24.6q1.35-.05 1.95-1.25L67.5 61.3m-.1 16.15l-.35.7q-.7 1-1.9 1.05h-28.2q-1.75.05-2.25-2l-2.15-18.65H70l-2.6 18.9" fill="#6f7178" fill-opacity=".38" fill-rule="evenodd"/><path d="M71.2 103.1l-.05 16.5L51 129.65l.25-20.05 19.45-9.7q.6 1.15.5 3.2" fill="#1f261e" fill-opacity=".663" fill-rule="evenodd"/><path d="M69.25 100.8L49.1 110.85" fill="none" stroke="#f2bb41" stroke-linecap="round" stroke-linejoin="round" stroke-opacity=".373" stroke-width="2.75"/><path d="M24.7 49.7l-.55.45-23.1-5.2.55-.45 23.1 5.2" fill="#e6e5f7" fill-rule="evenodd"/><path d="M24.15 50.15l.55-.45v82.6l-.55.25v-82.4" fill="#56576d" fill-rule="evenodd"/><path d="M22.7 126.1l-20.25-5.2V49.35L22.7 53.9v72.2" fill="#758588" fill-opacity=".612" fill-rule="evenodd"/><path d="M1.05 44.95l23.1 5.2v82.4l-23.1-5.9v-81.7M22.7 126.1V53.9L2.45 49.35v71.55l20.25 5.2" fill="#888" fill-rule="evenodd"/><path d="M24.15 50.15l.55-.45-23.1-5.2-.55.45 23.1 5.2v82.4l.55-.25V49.7m-.55 82.85l-23.1-5.9v-81.7M22.7 126.1V53.9L2.45 49.35v71.55l20.25 5.2" fill="none" stroke="#000" stroke-linecap="round" stroke-linejoin="round" stroke-width=".05"/><path d="M14.95 55.5L14 56 .1 45.45 14 56v81.7L.1 127.15v-81.7l.95-.5 13.9 10.55m-1.6 3.5l-12.2-9.25v71.9l12.2 9.3V59" fill="#e6e5f7" fill-rule="evenodd"/><path d="M14 56l.95-.5v81.7l-.95.5V56" fill="#a6a5b8" fill-rule="evenodd"/><path d="M1.15 49.75L13.35 59v71.95l-12.2-9.3v-71.9" fill="#707978" fill-opacity=".612" fill-rule="evenodd"/><path d="M14 56l.95-.5-13.9-10.55-.95.5L14 56v81.7l.95-.5V55.5M14 137.7L.1 127.15v-81.7m13.25 85.5V59" fill="none" stroke="#000" stroke-linecap="round" stroke-linejoin="round" stroke-width=".05"/><path d="M1.15 121.65l12.2 9.3" fill="none" stroke="#fff" stroke-linecap="round" stroke-linejoin="round"/><path d="M1.15 49.75v71.9" fill="none" stroke="#666" stroke-linecap="round" stroke-linejoin="round" stroke-width=".5"/><path d="M13.35 59l-12.2-9.25" fill="none" stroke="#000" stroke-linecap="round" stroke-linejoin="round" stroke-width=".5"/><path d="M-51.05-94.35l13.9 10.55v81.7l-13.9-10.55v-81.7M-37.8-80.8L-50-90.05v71.9l12.2 9.3V-80.8" fill="url(#linearGradient1387)" fill-rule="evenodd" transform="translate(51.05 139.55)"/><path d="M87.3 56.1l-1.5.75-1.55.8-27.5 13.75-2.15 1.1-3.65 1.8V61.45H51l.5-.25.15-.05 39.2-19.65 3.45 11.1-3.5 1.75-3.35 1.7-.15.05v-.15.15m0-.15l.15.1-.15-.1" fill="#910404" fill-rule="evenodd"/><path d="M50.95 61.45V74.3l-3.05-1.55-2.5-1.2v-.05L16.45 57l-2.1-1.05-.4-.2-2.95-1.5-3.4-1.7 3.45-11.15L50 60.95l.95.5-.95-.5.95.5M36.4 55.6v-.15l-.15.05.15.1m.45 4l.15.05v-.1l-.15.05" fill="#d90606" fill-rule="evenodd"/><path d="M90.85 41.5l-39.2 19.65-.15.05-.5.25h-.05l-.95-.5L11.05 41.4l27.3-13.65.15.1v-.15l12.35-6.2 40 20m-53.8 5.2l-.15.05.15.05v-.1m1.4-2.65v-.15l-.15.05.15.1M51.5 61.2l-.5.25.5-.25" fill="#ff0808" fill-rule="evenodd"/><path d="M84.25 133.75l.1 7.25-27.6 13.85-2.15 1.05v1.75l-2.5 1.25v-2q0-.4-.35-.65t-.8-.25h-.05l-.8.25-.3.65v2-2l.3-.65.8-.25h.05q.45 0 .8.25.35.25.35.65v6.3l-.35.6-.75.3-.9-.3-.3-.6v-1.3 1.3l.3.6.9.3.75-.3.35-.6v-1.3l4.8 2.4-5.95 3-6-3 4.1-2.05h.05l.7-.35v-3l-2.35-1.15v-85.2 83.65l-2.1-1.05-28.9-14.45v-7.6l28.9 14.5v7.55-80.3l.05-2.05v-1.3.05l2.5 1.2 3.05 1.55 3.65-1.8 2.15-1.1v83.45-7.35l27.5-13.75m3.05 5.8V56.1l.15-.05 3.35-1.7v81.8l.7.2.1.05q.35.25.35.65v4.8l4.8 2.4-5.95 3-6-3 4.1-2.05h.05l.7-.35v-1.7q-1.15.55-2.35 1.15v-1.75m2.35.6v-3.1q0-.4.3-.65l.8-.25h.05v3.4-3.4h-.05l-.8.25q-.3.25-.3.65v3.1l1.15-.6-1.15.6m0 1.7v1.5q0 .35.3.6l.8.3h.05l.7-.2.1-.1.35-.6v-1.5 1.5l-.35.6-.1.1-.7.2h-.05l-.8-.3q-.3-.25-.3-.6v-1.5M54.6 72.5v83.4-83.4M13.95 56.15v84.8l-1.75-.9v3.3q0 .35-.35.6l-.8.3H11q-.45 0-.8-.3l-.3-.6v-1.5 1.5l.3.6q.35.3.8.3h.05l.8-.3q.35-.25.35-.6v-1.5l4.75 2.4-5.95 3-6-3 4.1-2.05h.05l.75-.35v-4.8l.3-.65.8-.25v3.3-85.2l2.95 1.5v.4m37 99.85V74.3 156m-3.5-83.45l.45.2-.45-.2m-2.05-1v1.25-1.25M11 139.45l1.2.6-1.2-.6m1.2.6v-3q0-.4-.35-.65l-.8-.25H11h.05l.8.25q.35.25.35.65v3" fill="#e6e5f7" fill-rule="evenodd"/><path d="M84.25 57.65V61l-27.5 13.75V71.4l27.5-13.75m-67.8 2.7V57L45.4 71.5v1.3l-.05 2.05-28.9-14.5m19.9 7.95l-.15.05.15.1v-.15" fill="#bebdcc" fill-rule="evenodd"/><path d="M84.25 61v-3.35l1.55-.8 1.5-.75v83.45L84.35 141l-.1-7.25V61m-67.8-4v83.7l-2.5-1.25v-83.3l.4-.2 2.1 1.05" fill="#c1c0cf" fill-rule="evenodd"/><path d="M84.25 133.75l-27.5 13.75" fill="none" stroke="#666457" stroke-linecap="round" stroke-linejoin="round" stroke-width=".5"/><path d="M87.3 56.1l-1.5.75m1.5-.75l.15-.05-.15-.1m.15.1l3.35-1.7m-1.15 85.8q-1.15.55-2.35 1.15m2.35-1.15l1.15-.6M52.1 158.9l2.5-1.25m-7.15.1l2.35 1.15m-37.6-18.85l-1.2-.6m1.2.6l1.75.9m31.4 6.65l-28.9-14.5" fill="none" stroke="#737162" stroke-linecap="round" stroke-linejoin="round" stroke-width=".5"/><path d="M90.8 54.35v81.8l.7.2.1.05q.35.25.35.65v6.3l-.35.6-.1.1-.7.2h-.05l-.8-.3q-.3-.25-.3-.6v-3.2m1.15-.6v-3.4h-.05l-.8.25q-.3.25-.3.65v3.1M52.1 158.9v-2q0-.4-.35-.65t-.8-.25h-.05l-.8.25-.3.65v6.3l.3.6.9.3.75-.3.35-.6v-4.3m2.5-1.25V72.5m-3.65 1.8V156m-3.5-83.45v85.2M11 136.15l-.8.25-.3.65v6.3l.3.6q.35.3.8.3h.05l.8-.3q.35-.25.35-.6v-3.3m-1.2-.6v-85.2m0 81.9h.05l.8.25q.35.25.35.65v3" fill="none" stroke="#666" stroke-linecap="round" stroke-linejoin="round" stroke-width=".5"/><path d="M84.25 57.65v76.1l.1 7.25 2.95-1.45m-1.5-82.7l-1.55.8-27.5 13.75v3.35L84.25 61m6.55-6.65l3.5-1.75-3.45-11.1m-39.9 32.8l3.65-1.8 2.15-1.1m35.2 70.45l4.8 2.4-5.95 3-6-3 4.1-2.05h.05l.7-.35M54.6 155.9l2.15-1.05v-80.1M49.8 161.9l-.7.35h-.05l-4.1 2.05 6 3 5.95-3-4.8-2.4m4.65-7.05L84.35 141M38.5 27.7l-.15.05m.15-.05l12.35-6.2 40 20M16.45 57v3.35l28.9 14.5.05-2.05v-1.25l2.5 1.2 3.05 1.55m-5.55-2.8L16.45 57l-2.1-1.05m-.4 83.5l2.5 1.25V60.35M11 54.25l2.95 1.5.4.2M45.4 71.5v.05m2.5 1.2l-.45-.2M11 54.25l-3.4-1.7 3.45-11.15 27.3-13.65m9.1 128.45l-2.1-1.05-28.9-14.45m28.9 14.45v-80.3m-35.45 67l-.75.35H9.1L5 144.25l6 3 5.95-3-4.75-2.4" fill="none" stroke="#000" stroke-linecap="round" stroke-linejoin="round" stroke-width=".5"/><path d="M87.3 139.55V56.1m0-.15v.15m0 85.2v-1.75m-72.95-83.6l-.4.2v83.3m0-83.7v.4m0 84.8v-1.5" fill="none" stroke="#333" stroke-linecap="round" stroke-linejoin="round" stroke-width=".5"/><path d="M90.85 41.5l-39.2 19.65-.15.05m-.5.25h-.05V74.3M50 60.95l.95.5m.05 0l.5-.25M11.05 41.4L50 60.95" fill="none" stroke="#fe6767" stroke-linecap="round" stroke-linejoin="round" stroke-width=".05"/><path d="M54.5 38.35q1.4.95 1.4 2.3 0 1.3-1.4 2.3-1.45.95-3.45.95t-3.45-.95q-1.4-1-1.4-2.3 0-1.35 1.4-2.3 1.45-.9 3.45-.9t3.45.9" fill="#262626" fill-rule="evenodd"/><path d="M47.6 75.85v72.75l-33.5-16.8V59.05l33.5 16.8m-9 40.75l-.15.05.15.1v-.15m-.15 9.15l.05.1.1-.05v.05l.05-.05-.05-.1-.15.05m.15 4.9v-.15l-.15.05.15.1" fill="#a8d2de" fill-opacity=".424" fill-rule="evenodd"/><path d="M-37.1-83.8l.4-.2 2.1 1.05V.75L-37.1-.5V1l-1.75-.9v-3q0-.4-.35-.65l-.8-.25h-.05v-81.9l2.95 1.5v.4" fill="url(#linearGradient1389)" fill-rule="evenodd" transform="translate(51.05 139.55)"/><path d="M39.75-85.2V0l-3.5 1.75V0L33.3 1.45l-.1-83.35 6.55-3.3" fill="url(#linearGradient1391)" fill-rule="evenodd" transform="translate(51.05 139.55)"/><path d="M-3.6 16.5L-34.05 1.3v-5.85l30.45 15.2v5.85" fill="url(#linearGradient1393)" fill-rule="evenodd" transform="translate(51.05 139.55)"/><path d="M82.85 141.75q-14.1 7.1-28.25 14.15v-5.25l28.2-14.05.05 5.15" fill="#ff8c00" fill-opacity=".243" fill-rule="evenodd"/><path d="M84.25 61v72.75l-32.7 16.4V77.4L84.25 61" fill="#2d6775" fill-opacity=".424" fill-rule="evenodd"/><path d="M3.55 18.1l-2.5 1.25v-2q0-.4-.35-.65t-.8-.25h-.05l-.8.25-.3.65v2L-3.6 18.2v-1.55l-2.1-1.05.05-83.6 5.55 2.75 5.8-2.9V15.3l-2.15 1.05v1.75" fill="url(#linearGradient1395)" fill-rule="evenodd" transform="translate(51.05 139.55)"/><path d="M50.3 40.65q-.4-19.7 14.25-27.3" fill="none" stroke="#000" stroke-linecap="round" stroke-linejoin="round" stroke-width=".5"/><path d="M72.05 15.1l1.35 1.15 1.5-.8.85-.35 2.65 8.4-10.1-1.75.55-.3.35-.75-.5-1.8-5.5-4.15.25-.35h-1l-1.85-1.45.2-.4-.15-.45-.4-.25-.5.1-.15.2-3.8-2.9-.85.1Q53.55 7.7 52.7 5.8q-.8-1.85-.95-3.95l2.4-.7 2.4-.65q.2 1.6.7 3.05l.9 1.65.1.1h.1l.85-.1 6.9 5.6.3-.4 5.65 4.7m-15.55-8q-1.25-1.35-1.8-3.3-.35-1.25-.55-2.65.2 1.4.55 2.65.55 1.95 1.8 3.3m6.4 2.05l-.4-.25-.5.1-.25.45.15.5q.1.25.4.3l.5-.15.25-.5-.15-.45m.55 5.25l2.65-3.6-2.65 3.6" fill="#fcb6c4" fill-rule="evenodd"/><path d="M60.6 12.95l-.05.1-.5.15q-.3-.05-.4-.3l-.15-.5.1-.25.15-.2.5-.1.4.25.15.45-.2.4m2.3-3.8l.15.45-.25.5-.5.15q-.3-.05-.4-.3l-.15-.5L62 9l.5-.1.4.25" fill-rule="evenodd"/><path d="M75.75 15.1l2.65 8.4-10.1-1.75m.4-2.85l-5.5-4.15.25-.35m-8.5-5.05Q53.55 7.7 52.7 5.8q-.8-1.85-.95-3.95M56.55.5q.2 1.6.7 3.05l.9 1.65.1.1h.1m7.75 5.5l.3-.4 5.65 4.7M54.15 1.15q.2 1.4.55 2.65.55 1.95 1.8 3.3m9.6 3.7l-2.65 3.6" fill="none" stroke="#000" stroke-linecap="round" stroke-linejoin="round"/><defs id="defs187"><linearGradient gradientTransform="matrix(.0126 .0218 -.0288 .0166 33.1 -26.4)" gradientUnits="userSpaceOnUse" id="gradient0-92" spreadMethod="pad" x1="-819.2" x2="819.2"><stop offset="0" stop-color="#5e5e5e" stop-opacity=".902" id="stop7199"/><stop offset=".553" stop-color="#fff" stop-opacity=".302" id="stop7201"/><stop offset="1" stop-color="#5e5e5e" stop-opacity=".8" id="stop7203"/></linearGradient><linearGradient gradientTransform="matrix(0 -.0124 .021 0 .3 -74.35)" gradientUnits="userSpaceOnUse" id="gradient0-8" spreadMethod="pad" x1="-819.2" x2="819.2"><stop offset="0" stop-color="#333" stop-opacity=".78" id="stop7028"/><stop offset="1" stop-color="#fff" stop-opacity="0" id="stop7030"/></linearGradient><linearGradient gradientTransform="matrix(.0112 -.0423 .0219 .0058 -44.6 -46.55)" gradientUnits="userSpaceOnUse" id="gradient1-97" spreadMethod="pad" x1="-819.2" x2="819.2"><stop offset=".024" stop-color="#121212" stop-opacity=".251" id="stop7033"/><stop offset=".471" stop-color="#f5f5f5" stop-opacity="0" id="stop7035"/><stop offset="1" stop-color="#858585" stop-opacity=".533" id="stop7037"/></linearGradient><linearGradient gradientTransform="matrix(.0086 -.0487 .0122 .0022 -37.55 -41.45)" gradientUnits="userSpaceOnUse" id="gradient2-76" spreadMethod="pad" x1="-819.2" x2="819.2"><stop offset="0" stop-color="#000" stop-opacity=".302" id="stop7040"/><stop offset=".38" stop-color="#f8f8f8" stop-opacity=".012" id="stop7042"/><stop offset=".741" stop-color="#f3f3f3" stop-opacity=".047" id="stop7044"/><stop offset="1" stop-color="#5e5e5e" stop-opacity=".373" id="stop7046"/></linearGradient><linearGradient gradientTransform="matrix(-.0044 -.0479 .0087 -.0008 36.6 -40.65)" gradientUnits="userSpaceOnUse" id="gradient3-4" spreadMethod="pad" x1="-819.2" x2="819.2"><stop offset="0" stop-color="#000" stop-opacity=".302" id="stop7049"/><stop offset=".38" stop-color="#f8f8f8" stop-opacity=".012" id="stop7051"/><stop offset=".741" stop-color="#f3f3f3" stop-opacity=".047" id="stop7053"/><stop offset="1" stop-color="#5e5e5e" stop-opacity=".373" id="stop7055"/></linearGradient><linearGradient gradientTransform="matrix(.003 -.0071 .0207 .0089 -16.9 .75)" gradientUnits="userSpaceOnUse" id="gradient4-3" spreadMethod="pad" x1="-819.2" x2="819.2"><stop offset="0" stop-color="#f2c9ae" stop-opacity=".631" id="stop7058"/><stop offset="1" stop-color="#fff" stop-opacity="0" id="stop7060"/></linearGradient><linearGradient gradientTransform="matrix(0 .0534 -.007 0 0 -24.4)" gradientUnits="userSpaceOnUse" id="gradient5-03" spreadMethod="pad" x1="-819.2" x2="819.2"><stop offset="0" stop-color="#000" stop-opacity=".263" id="stop7063"/><stop offset=".541" stop-color="#c9c9c9" stop-opacity=".043" id="stop7065"/><stop offset="1" stop-color="#000" stop-opacity=".302" id="stop7067"/></linearGradient><linearGradient xlink:href="#gradient0-92" id="linearGradient1243" gradientUnits="userSpaceOnUse" gradientTransform="matrix(.0126 .0218 -.0288 .0166 33.1 -26.4)" x1="-819.2" x2="819.2" spreadMethod="pad"/><linearGradient xlink:href="#gradient0-8" id="linearGradient1385" gradientUnits="userSpaceOnUse" gradientTransform="matrix(0 -.0124 .021 0 .3 -74.35)" x1="-819.2" x2="819.2" spreadMethod="pad"/><linearGradient xlink:href="#gradient1-97" id="linearGradient1387" gradientUnits="userSpaceOnUse" gradientTransform="matrix(.0112 -.0423 .0219 .0058 -44.6 -46.55)" x1="-819.2" x2="819.2" spreadMethod="pad"/><linearGradient xlink:href="#gradient2-76" id="linearGradient1389" gradientUnits="userSpaceOnUse" gradientTransform="matrix(.0086 -.0487 .0122 .0022 -37.55 -41.45)" x1="-819.2" x2="819.2" spreadMethod="pad"/><linearGradient xlink:href="#gradient3-4" id="linearGradient1391" gradientUnits="userSpaceOnUse" gradientTransform="matrix(-.0044 -.0479 .0087 -.0008 36.6 -40.65)" x1="-819.2" x2="819.2" spreadMethod="pad"/><linearGradient xlink:href="#gradient4-3" id="linearGradient1393" gradientUnits="userSpaceOnUse" gradientTransform="matrix(.003 -.0071 .0207 .0089 -16.9 .75)" x1="-819.2" x2="819.2" spreadMethod="pad"/><linearGradient xlink:href="#gradient5-03" id="linearGradient1395" gradientUnits="userSpaceOnUse" gradientTransform="matrix(0 .0534 -.007 0 0 -24.4)" x1="-819.2" x2="819.2" spreadMethod="pad"/></defs></svg>