<svg xmlns="http://www.w3.org/2000/svg" xmlns:xlink="http://www.w3.org/1999/xlink" height="69" width="83"><defs><linearGradient xlink:href="#a" id="c" gradientUnits="userSpaceOnUse" gradientTransform="matrix(.0072 .0144 -.0289 .0145 1453.435 923.308)" x1="-819.2" x2="819.2" spreadMethod="pad"/><linearGradient gradientTransform="matrix(.0072 .0144 -.0289 .0145 25.55 -50.6)" gradientUnits="userSpaceOnUse" id="a" spreadMethod="pad" x1="-819.2" x2="819.2"><stop offset="0" stop-color="#8561ab"/><stop offset="1" stop-color="#6c4e8d"/></linearGradient><linearGradient xlink:href="#b" id="d" gradientUnits="userSpaceOnUse" gradientTransform="matrix(.0072 .0144 -.0289 .0145 1453.435 923.308)" x1="-819.2" x2="819.2" spreadMethod="pad"/><linearGradient gradientTransform="matrix(.0072 .0144 -.0289 .0145 25.55 -50.6)" gradientUnits="userSpaceOnUse" id="b" spreadMethod="pad" x1="-819.2" x2="819.2"><stop offset="0" stop-color="#8561ab"/><stop offset="1" stop-color="#6c4e8d"/></linearGradient></defs><path d="M67.887 19.112q.25 4.15-1 8.05-1.4 4.4-4.25 6.9 4.3-6.25 3.7-13.5-3.2 3.6-3.25 8.3l-1.35 1.05q-2-4.7 1-9.5l-.7 7.1q.9-4.6 4.05-8.2.15-2.2-1.75-2.6l2-.75 1.45 1.9 2.85.1q1.05 5.6-3.4 9.8l1.85-5.7q.6-1.8-.45-3.1l-.75.15" fill="#efecf4" fill-rule="evenodd"/><path d="M1469.185 901.808v21.2l-6.6 3.35-.05-8.65.05 8.65 6.6-3.35v-21.2l-37.65 18.95 37.65-18.95m-22.65 23.95v8.65l-15 7.5v-21.15 21.15l15-7.5v-8.65m23.75-25.7v23.55l-40 20v-23.5l40-20.05m-14.05 14.65l.75-.15q1.05 1.3.45 3.1l-1.85 5.7q4.45-4.2 3.4-9.8l-2.85-.1-1.45-1.9-2 .75q1.9.4 1.75 2.6-3.15 3.6-4.05 8.2l.7-7.1q-3 4.8-1 9.5l1.35-1.05q.05-4.7 3.25-8.3.6 7.25-3.7 13.5 2.85-2.5 4.25-6.9 1.25-3.9 1-8.05m6.35 11.65l-16.05 8.05 16.05-8.05" fill="url(#c)" fill-rule="evenodd" transform="translate(-1388.348 -895.597)"/><path d="M81.937 4.462l-40 20.05v23.5l40-20V4.462" fill="none" stroke="#4a3461" stroke-linecap="round" stroke-linejoin="round"/><path d="M74.187 22.112l.05 8.65 6.6-3.35v-21.2m-37.65 18.95v21.15l15-7.5v-8.65m0 8.65l16.05-8.05" fill="none" stroke="#8663a9" stroke-linecap="round" stroke-linejoin="round"/><path d="M80.837 6.212l-37.65 18.95" fill="none" stroke="#634680" stroke-linecap="round" stroke-linejoin="round"/><path d="M27.789 39.302q.25 4.15-1 8.05-1.4 4.4-4.25 6.9 4.3-6.25 3.7-13.5-3.2 3.6-3.25 8.3l-1.35 1.05q-2-4.7 1-9.5l-.7 7.1q.9-4.6 4.05-8.2.15-2.2-1.75-2.6l2-.75 1.45 1.9 2.85.1q1.05 5.6-3.4 9.8l1.85-5.7q.6-1.8-.45-3.1l-.75.15" fill="#efecf4" fill-rule="evenodd"/><path d="M1469.185 901.808v21.2l-6.6 3.35-.05-8.65.05 8.65 6.6-3.35v-21.2l-37.65 18.95 37.65-18.95m-22.65 23.95v8.65l-15 7.5v-21.15 21.15l15-7.5v-8.65m23.75-25.7v23.55l-40 20v-23.5l40-20.05m-14.05 14.65l.75-.15q1.05 1.3.45 3.1l-1.85 5.7q4.45-4.2 3.4-9.8l-2.85-.1-1.45-1.9-2 .75q1.9.4 1.75 2.6-3.15 3.6-4.05 8.2l.7-7.1q-3 4.8-1 9.5l1.35-1.05q.05-4.7 3.25-8.3.6 7.25-3.7 13.5 2.85-2.5 4.25-6.9 1.25-3.9 1-8.05m6.35 11.65l-16.05 8.05 16.05-8.05" fill="url(#d)" fill-rule="evenodd" transform="translate(-1428.446 -875.406)"/><path d="M41.839 24.652l-40 20.05v23.5l40-20v-23.55" fill="none" stroke="#4a3461" stroke-linecap="round" stroke-linejoin="round"/><path d="M34.089 42.302l.05 8.65 6.6-3.35v-21.2m-37.65 18.95v21.15l15-7.5v-8.65m0 8.65l16.05-8.05" fill="none" stroke="#8663a9" stroke-linecap="round" stroke-linejoin="round"/><path d="M40.739 26.402l-37.65 18.95" fill="none" stroke="#634680" stroke-linecap="round" stroke-linejoin="round"/><path d="M82.5 1.5V4l-40 20.1-2-1v-2.5l2 1 40-20.1" fill="#666" fill-rule="evenodd"/><path d="M80.5.5l2 1-40 20.1-2-1L80.5.5" fill="#999" fill-rule="evenodd"/><path d="M82.5 4l-40 20.1-2-1v-2.5L80.5.5" fill="none" stroke="#464646" stroke-linecap="round" stroke-linejoin="round"/><path d="M.5 40.6l40-20.1 2 1-40 20.1-2-1" fill="#999" fill-rule="evenodd"/><path d="M42.5 21.5V24l-40 20.1-2-1v-2.5l2 1 40-20.1" fill="#666" fill-rule="evenodd"/><path d="M42.5 24l-40 20.1-2-1v-2.5l40-20.1" fill="none" stroke="#464646" stroke-linecap="round" stroke-linejoin="round"/><path d="M.5 40.6l2 1 2-1v26.15l-2 .3h-2V40.6" fill="#666" fill-rule="evenodd"/><path d="M4.5 40.6l-2 1-2-1 2-1 2 1" fill="#999" fill-rule="evenodd"/><path d="M2.5 39.6l-2 1v26.45h2l2-.3V43.1" fill="none" stroke="#464646" stroke-linecap="round" stroke-linejoin="round"/></svg>