<svg xmlns="http://www.w3.org/2000/svg" xmlns:xlink="http://www.w3.org/1999/xlink" height="80" width="34"><g transform="translate(18.95 72.9)"><use height="63.35" transform="translate(-18.95 -57.15)" width="33.35" xlink:href="#shape0"/><use height="28.5" transform="translate(-11 -68.25)" width="21.65" xlink:href="#shape1"/><use height="22.95" transform="translate(-15.7 -54.15)" width="30.1" xlink:href="#shape2"/></g><defs id="defs51"><g id="shape0" transform="translate(18.95 57.15)"><path d="M5.8-53.85l2.4.8 1.6.7q2 1 3.15 2.25l.55.75.65 2.2v.15l-.2 1.05-.45-.95v-2.45 2.45l-.55-.8v-2.4 2.4l.55.8v1.9l-.55.8v.05h-.05l-1.3 1.1-1.8-1.05-1.6-.7v-2.35l-2.4-.8v-5.9m7.9 10.8l.45 1.8v.1l-.2 1.05-.45-.9v-1.6l.2-.45m-23.05 10.2q-.9-.35-1.75-.8-2.05-.95-3.1-2.2l-.15-.15-.55-.8-.05-.25v.2l-.45-1.5v-3.5l.35-1.2-.35-1.15v-3.5l.45-1.45v2.4l.6-.85v3.3l-.6-.9.6.9v.2l.1-.1.05.05 1.25 1.1 1.85 1.15 1.75.7v2.45l-1.75-.75q-2.05-1-3.1-2.25l-.05-.1-.1-.05-.6-.85v-.5l-.1.2.1.3v1.9-1.9l.6.85v-2.2l-.6.85.6-.85v5.7l.15.15 1.2 1.1 1.7 1 .2.15 1.75.7v2.45M8.2-53.05v2.4l-2.4-.8 2.4.8v-2.4m0 2.4v3.5l1.6.7q2 .95 3.15 2.25v-3.5q-1.15-1.2-3.15-2.25l-1.6-.7m-2.95 16.2l-2.9.45-.9-.45 2.5-.65 1.3.65m-8.8.45l-2.85-.4 1.45-.75 2.4.6-1 .55m-11.7-11.95l.3.75v-1.55l-.3.8-.15-.45.15.45m0 5.85l-.15-.4.15.4.3.8v-1.55l-.3.75m.3-5.1v1.95-1.95m2 2.15l-1.3 1.2 1.3-1.2m-2 2.2l.6-.85-.6.85m.6 4.85v-2.4l-.6-.9.6.9v2.4m-.6-1.05v-2.25 2.25" fill="#000" fill-opacity=".392" fill-rule="evenodd" stroke="none" id="path10"/><path d="M14.15-47v2.35l-.45 1.6-.2-.4V-45v1.55l.2.4-.2.45v1.6l-.55-.75v-.1l.55-.75v-.85l-.55-.7.55.7v.85l-.55.75v.1l.55.75v1.9l.45-1 .2-1.05v2.4l-.65 2.05v-2.4l-.55.85.55-.85v2.45l-.55.8h-.05q-1.1 1.25-3.1 2.2l-1.6.7-2.4.8-6.45.7q-3.45 0-6.3-.7l-2.4-.7v-5.9l1.7.55.7.15v3.5l.55.15 2.85.4 2.9.15 3-.15 2.9-.45.55-.15v-3.45l1.1-.35 1.3-.4v-2.4 2.4l-1.3.4-1.1.35v-2.45l-.55.15-5.9.6-5.55-.55.65-.35.9-.35-.9.35-.65.35-.75-.15-2.4-4.4-1.75.75-1.85 1.05-1.25-1.1-.05-.05q1.05-1.3 3.15-2.25l1.75-.8v-3.5l-1.75.8q-2.2 1.05-3.25 2.35l-.6.85v-2.4l.6-.8q1.05-1.35 3.25-2.4l1.75-.75 2.4-.8 6.3-.65 6.45.7v2.4l-6.45-.7-6.3.7v3.5l6.3-.7 6.45.7 2.4.8v2.35l-2.4-.75v-2.4 2.4l2.4.75-2.4 4.3 2.4-.7 1.6-.7 1.8-1.15 1.3-1.1h.05v2.3l-1.35-1.2 1.35 1.2v-2.35l.55-.8.45-.95.2-1.05m-1.2 8.75v-3.5h-.05q-1.1 1.25-3.1 2.25l-1.6.7v3.5l1.6-.7.35-.2 1.2-.7 1.55-1.35h.05v2.4-2.4m-10.1-3.1l1.95.7.45.3-.45-.3-1.95-.7 2.95-4.2-6.45-.7-6.3.7v-2.4l-2.4.7v2.4-2.4l2.4-.7v2.4l-2.4.7 2.4-.7 2.3 4.55q1.9-.7 4.25-.7l3.25.35m5.35 8.4v-2.35l-2.4.7 2.4-.7v2.35m-2.4.8v-2.45 2.45m-12.75 0v-2.4 2.4m0-21.75v2.45l-2.4.7v-2.35 2.35l2.4-.7v-2.45m-7.4 3.95v2.35-2.35m7.4 15.4q-1.3-.25-2.4-.75 1.1.5 2.4.75" fill="#000" fill-opacity=".843" fill-rule="evenodd" stroke="none" id="path12"/><path d="M13.1-.75q0 2.75-3.95 4.7Q5.25 6-.4 6q-5.5 0-9.5-2.05-3.95-1.95-3.95-4.7 0-2.8 3.95-4.75 4-1.95 9.5-1.95 5.65 0 9.55 1.95Q13.1-3.55 13.1-.75" fill="#000" fill-opacity=".2" fill-rule="evenodd" stroke="none" id="path14"/><path d="M5.8-53.85l2.4.8 1.6.7q2 1 3.15 2.25l.55.75.65 2.2v2.5l-.45 1.6.45 1.8v2.5l-.65 2.05v.05l-.55.8h-.05q-1.1 1.25-3.1 2.2l-1.6.7-2.4.8-6.45.7q-3.45 0-6.3-.7l-2.4-.7q-.9-.35-1.75-.8-2.05-.95-3.1-2.2l-.15-.15-.55-.8-.05-.05-.45-1.5-.05-.55.05-.5v-1.3l-.05-.55.05-.6.35-1.2-.35-1.15-.05-.6.05-.45v-1.35l-.05-.55.05-.55.45-1.45.6-.8q1.05-1.35 3.25-2.4l1.75-.75 2.4-.8 6.3-.65 6.45.7v2.4l2.4.8v-2.4m0 2.4v3.5l1.6.7q2 .95 3.15 2.25v-3.5q-1.15-1.2-3.15-2.25l-1.6-.7m5.3 3.75l-.55-.8v-2.4m.55.75v2.45l.45.95.2-1.05m-.65 2v1.55l.2.4-.2.45v1.6l.45.9.2-1.05M13.5-45l-.55.8v.05l.55.7v.85l-.55.75v.1l.55.75v1.9l.45-1m-1-4.05h-.05l-1.3 1.1 1.35 1.2v-2.3m1-1.8l-.45.95v-1.9m-5.3 8.1l1.6-.7q2-1 3.1-2.25h.05v3.5l.55-.85v2.4m-5.3-2.1v3.5l1.6-.7.35-.2 1.2-.7 1.55-1.35h.05v2.4M8.2-44.8v-2.35l-2.4-.8v2.4l2.4.75 1.6.7 1.8 1.05-1.8 1.15-1.6.7v2.4l-1.3.4-1.1.35v3.45l2.4-.7v2.35m-2.95-7.4l-.45-.3-1.95-.7-3.25-.35q-2.35 0-4.25.7l-.9.35-.65.35 5.55.55 5.9-.6.55-.15 2.4-4.3m-2.4 4.3l2.4-.7m-2.4 3.15v-2.45m0-5.05l-2.95 4.2M5.8-34.6v2.45m0-2.45l-.55.15-2.9.45-3 .15-2.9-.15-2.85-.4-.55-.15v2.4m8.4-2.3l2.5-.65.85-.35 1-.65m-4.35 1.65l.9.45m2.9-.45l-1.3-.65m9.55-1.95v.4m-7.7-11.3v-3.5l-6.45-.7-6.3.7v3.5l6.3-.7 6.45.7M-9.35-53.1v2.35l2.4-.7v-2.45m-7.3 9.7q1.05-1.3 3.15-2.25l1.75-.8v-3.5l-1.75.8q-2.2 1.05-3.25 2.35v3.3l.1.1.05.05 1.25 1.1 1.85-1.05 1.75-.75v-2.4l2.4-.7v2.4l6.3-.7 6.45.7m-12.75 0l-2.4.7 2.4 4.4.75.15m-3.15 1.55l1.7.55.7.15v1.6l1.4 1 .6.3 2.4.6 2.15.15 1.85-.05m-14.4-8.6l1.85 1.15 1.75.7v2.45l-1.75-.75q-2.05-1-3.1-2.25l-.05-.1-.1.15v3.3l.15.15 1.2 1.1 1.7 1 .2.15 1.75.7v-3.45m4.7-2.25l-2.3-4.55m-8-3.6v2.4l.6-.85v-2.35m-.6 4.75l.6.9v.2l.1-.1m-.7-2.55v1.55l-.3-.75-.15-.45m0-.2v-1.1m0 2.45v1.05m0 3.5v-1.15m0 3.5v-1.05m0-1.1l.15.4.3-.75v-1.9l-.1-.3.1-.2v-1.95m.6 3.3l.1.05 1.3-1.2m-1.4 1.15l-.6-.85v-.5l.6-.85v2.4l-.6.85v1.55l.6.9v2.4m-.9-9.95l.3-.8m0 7.45l-.3-.8m.3 3.05l.05.25m-.05-.25v.2M-3.55-34l1-.55m-6.8 1.7v-2.45q1.1.5 2.4.75v-1.9m2 1.3l-1.45.75m-8.55-4.9v2.25" fill="none" stroke="#000" stroke-linecap="round" stroke-linejoin="round" stroke-width=".5" id="path16"/><path d="M-3.25-43.15l.55-1.2q1.9-4 2.05-4.7L-.4-51l.5-2.6q.8-3.3 2-3.3 1.75 0 3.25 1.2 1.55 1.15 1.55 2.45l-4.4 6.7L.2-43.1l-2.1 3.45-.15.25-.3.5-.2-.05h-.15l-.2-.15-.7-.35-.85-.65.15-.45.05.05-.05-.15.05-.2 1-2.3" fill="#404040" fill-rule="evenodd" stroke="none" id="path18"/><path d="M4.45-43.5l2.1-.35.85.05v.05l.35.1.3.15.4.25.85.85q0 .9-2.6 2.3-2.45 1.35-3.85 1.35H2.3l-.2-.05-.85-.1v-.85q.35-1.85 1.9-3l1.3-.75" fill="#595959" fill-rule="evenodd" stroke="none" id="path20"/><path d="M-3.25-43.15l-1 2.3-.15-.05v-.1l-.05-.5q0-.8.7-1.4l.5-.25m1.35 3.5L.2-43.1l4.25-.4-1.3.75q-1.55 1.15-1.9 3v.85l.85.1.2.05q-1.7.3-3.75-.7h-.05l-.4-.2" fill="#222" fill-rule="evenodd" stroke="none" id="path22"/><path d="M-13.55-53.1q0 .35-.35.75l-.45.5q-.9.95-2 .95l-2-.45h-.1l-.1-.1-.15-.15q.35-.8 1.4-1.3l3.05-.95h.7l.05.6-.05.15" fill="#555" fill-rule="evenodd" stroke="none" id="path24"/><path d="M-4.3-40.55l-.15.45.85.65.7.35.2.15h.15v.2l-.05.35q-.15.5-.8 1.05-.85.7-1.45.7-.65 0-1.05-.75l-.45-.95L-12-44.5l-5.65-6.1-.7-.75 2 .45q1.1 0 2-.95l.45-.5q.35-.4.35-.75 1.95 3.6 5.95 8.6l3.3 3.95" fill="#1e1e1e" fill-rule="evenodd" stroke="none" id="path26"/><path d="M.2-43.1l2.3-3.45 4.4-6.7q0-1.3-1.55-2.45-1.5-1.2-3.25-1.2-1.2 0-2 3.3L-.4-51l-.25 1.95q-.15.7-2.05 4.7l-.55 1.2-1 2.3-.05.2.05.15-.05-.05-.15.45.85.65.7.35.2.15h.15l.2.05.3-.5.15-.25L.2-43.1l4.25-.4 2.1-.35.85.05v.05l.35.1.3.15.4.25.85.85q0 .9-2.6 2.3-2.45 1.35-3.85 1.35H2.3q-1.7.3-3.75-.7h-.05l-.4-.2m6.35-3.85l-1.3.75q-1.55 1.15-1.9 3v.85l.85.1.2.05m-20.65-12.6l2 .45q1.1 0 2-.95l.45-.5q.35-.4.35-.75l.05-.15-.05-.6h-.7l-3.05.95q-1.05.5-1.4 1.3l.15.15.1.1h.1l.7.75 5.65 6.1 5.65 6.15.45.95q.4.75 1.05.75.6 0 1.45-.7.65-.55.8-1.05l.05-.35v-.2m-.7-4.2l-.5.25q-.7.6-.7 1.4l.05.5v.1l.15.05m-.15-.05l.1.25v.1l-3.3-3.95q-4-5-5.95-8.6M-2.6-38.4l.25-.5" fill="none" stroke="#000" stroke-linecap="round" stroke-linejoin="round" stroke-width=".5" id="path28"/><path d="M10.9-35.05L.2-18.25l.4.2q.55.2.55.6 0 .35-.55.65l-.9.2L9.15-.75M-.5-17.1l.7-1.15-.85-.1.15 1.25v.1l.2.4h-.2L1.8 4.95M-.5-17.1h-.1l.1.1v.4h-.35l-1-.2q-.55-.3-.55-.65 0-.4.55-.6l.55-.2.7 1.15-.25.5m.2-1.75l-.65.1" fill="none" stroke="#000" stroke-linecap="round" stroke-linejoin="round" stroke-width="2.5" id="path30"/><path d="M-.85-16.6L-11.1-.55" fill="none" stroke="#3c3c3c" stroke-linecap="round" stroke-linejoin="round" stroke-width="2.5" id="path32"/><path d="M-.65-18.35l-1.5-12.8" fill="none" stroke="#626262" stroke-linecap="round" stroke-linejoin="round" stroke-width="2.5" id="path34"/><path d="M-1.3-18.25l-9.8-16.5" fill="none" stroke="#2f2f2f" stroke-linecap="round" stroke-linejoin="round" stroke-width="2.5" id="path36"/></g><g id="shape1" transform="translate(11 68.25)"><path d="M6.85-64l-.2 1.15.05.25v1.95l.05.25.05-.2q.05-.25.25-.2l.35 1.2.3 1.65q.05 1.15.5 1.75l.75 1 .65 2.05.2-.65.25-1.1.35 1.25.25 1.45v.35h-.05l-.05.25-.2-1.05-.25-1.4-.2.95-.1.5.1.5.15 2.6-.85 1.55-2 3Q4.15-40.7 2.65-40.7q-3.3 0-4.65-.7-.8-.55-1.15-1.35Q-4.3-41.7-5.7-41.7q-1 0-1.65-.95l-.2-.35q-.6 2.55-.95 3.25l.6-3.95-.1-.35h-.2q-.5 0-1.45-3.35l-.5-1.85v.05l-.15.3-.6-2.7-.1-2.3.05-1.7q.15-.6.7 0l-.3-1.95q0-2.45 1.1.15l.7 2.05.25.95.45-1.7q.75-2.7.75-4l-.1-1.3-.05-.5-.25-1.2.15.35.1-.1.35 1.55q.8 2.3 1.05 4l.2 5.05q2.25-4.6 2.8-9.55l.25-.35q.3.35.2 1.35l-.1 1.95v.2l.05-.2.3-.25q.25 0 .4.6l.65-1.35q1.4-2.8 2.55-4.5L1-63.25l.05-.1.5-1.85.45-2.05.3-1 .1 1.5q0 1.8-.7 6.35v-.45l-.25 2.55-.2 2.45-.45 3.9-.1.35 1.1.75 1.15-2.3q1.25-2.7 1.75-4.65l1.35-6.25q.8-3.45.8.05m-.45 4.15h-.05l-.05-1.3q-.35 1.8-.35 2.35v.15l.4-1.1.05-.1M1.6-63.1l-.05.1.1.65.05.2-.05-.85-.05-.1m5.35 4l.1.8.15 2.6q0 .1.3-.15l-.15-1.05L7-59.25l-.05.15m-13.75.45l-.05-.45v.45h.05m-1.8 6v.4l-.15.9v1.45q.15-.35.2-1.8l.05-.75-.1-.2m6.4-5.3l-.05-.4-.35.7.1.25.3-.55m-5.65 6.8l-.1.5h.05l.05-.5m-.55 1.4v.55l.15-.55h-.15m-.65 2.8v-.5L-9.6-49l-.65-2.45-.1.1.7 2.85.55 1.6.1.35-.05-.4m.15.45h-.05l.05.1v-.1m.85 1.95H-8v-.15l-.05.15" fill="#e39d02" fill-opacity=".773" fill-rule="evenodd" stroke="none" id="path39"/></g><g id="shape2" transform="translate(15.7 54.15)"><path d="M8.2-50.65v3.5l1.6.7q2 .95 3.15 2.25v-3.5q-1.15-1.2-3.15-2.25l-1.6-.7v-2.4l1.6.7q2 1 3.15 2.25l.55.75.65 2.2v.15l-.2 1.05-.45-.95v1.9l-.55.8v.05h-.05l-1.3 1.1-1.8-1.05-1.6-.7v-2.35l-2.4-.8v-3.5l2.4.8m4.75.55v2.4l.55.8-.55-.8v-2.4m.75 7.05l.45 1.8v.1l-.2 1.05-.45-.9v-1.6l.2-.45m-23.05 10.2q-.9-.35-1.75-.8-2.05-.95-3.1-2.2l-.15-.15-.55-.8-.05-.25v.2l-.45-1.5v-3.5l.35-1.2-.35-1.15v-2.2l.15.45.3.75v-1.55l.6-.85v3.5l.1-.1.05.05 1.25 1.1-1.3 1.2 1.3-1.2 1.85 1.15 1.75.7v2.45l-1.75-.75q-2.05-1-3.1-2.25l-.05-.1-.1-.05v-2.2l-.6.85v-1.95l.6.9-.6-.9v1.95l.6-.85v2.2l-.6-.85.6.85v3.5l.15.15 1.2 1.1 1.7 1 .2.15 1.75.7v2.45M13.5-46.9v-2.45 2.45M3.95-35.1l1.3.65-2.9.45-.9-.45 2.5-.65m-7.5 1.1l-2.85-.4 1.45-.75 2.4.6-1 .55m-11.7-6.1l-.15-.4.15.4.3.8v-1.55l-.3.75m.3-2.65v1.9-2.4l-.1.2.1.3m0 1.9l.6-.85-.6.85m.6 4.85v-2.4l-.6-.9.6.9v2.4m-.6-1.05v-2.25 2.25" fill="#000" fill-opacity=".392" fill-rule="evenodd" stroke="none" id="path42"/><path d="M5.8-47.95l2.4.8v2.35l-2.4-.75v-2.4m5.8 4.9l1.3-1.1h.05v-.05l.55-.8v1.55l-.55-.7.55.7V-45l.45-.95.2-1.05v2.35l-.45 1.6-.2.45v1.6l-.55-.75v-.1l.55-.75-.55.75v.1l.55.75v1.9l.45-1 .2-1.05v2.4l-.65 2.05v-.35.4l-.55.8h-.05q-1.1 1.25-3.1 2.2l-1.6.7-2.4.8-6.45.7q-3.45 0-6.3-.7l-2.4-.7v-5.9l1.7.55.7.15q2.85.7 6.3.7l6.45-.7 1.1-.35 1.3-.4v-2.4 2.4l-1.3.4-1.1.35v-2.45l2.4-.7 1.6-.7 1.8-1.15 1.35 1.2v-2.3 2.3l-1.35-1.2m1.3 1.3q-1.1 1.25-3.1 2.25l-1.6.7v3.5l1.6-.7.35-.2 1.2-.7 1.55-1.35h.05v-3.5h-.05m.6-.85v-.85l.2.4-.2-.4v.85m-.55 6.75v-2.4l.55-.85v2.05-2.05l-.55.85v2.4M5.8-36.1v-1.95 1.95l-1 .65-.85.35-2.5.65-1.85.05-2.15-.15-2.4-.6-.6-.3-1.4-1v1.9l.55.15 2.85.4 2.9.15 3-.15 2.9-.45.55-.15v-1.5m2.4 3.15v-2.35l-2.4.7 2.4-.7v2.35m-2.4.8v-2.45 2.45m-12.75 0v-2.4 2.4m-2.4-20.95l2.4-.8v5.95l-2.4.7v-5.85m2.4 1.65l-2.4.7 2.4-.7m0 15v-1.6 1.6m-2.4 1.15q1.1.5 2.4.75-1.3-.25-2.4-.75" fill="#000" fill-opacity=".843" fill-rule="evenodd" stroke="none" id="path44"/><path d="M5.8-40.5v2.45l-6.45.7q-3.45 0-6.3-.7l-.7-.15-1.7-.55v-2.45q1.1.5 2.4.75l.75.15 5.55.55 5.9-.6.55-.15m-12.75.05v2.4-2.4" fill="#2b2b2b" fill-rule="evenodd" stroke="none" id="path46"/><path d="M8.2-50.65v3.5l1.6.7q2 .95 3.15 2.25v-3.5q-1.15-1.2-3.15-2.25l-1.6-.7-2.4-.8v3.5l2.4.8v2.35l1.6.7 1.8 1.05 1.3-1.1h.05v-.05l.55-.8v-1.9l-.55-.8v-2.4q-1.15-1.25-3.15-2.25l-1.6-.7v2.4m4.75.55l.55.75.65 2.2v2.5l-.45 1.6.45 1.8v2.5l-.65 2.05v.05l-.55.8h-.05q-1.1 1.25-3.1 2.2l-1.6.7-2.4.8-6.45.7q-3.45 0-6.3-.7l-2.4-.7q-.9-.35-1.75-.8-2.05-.95-3.1-2.2l-.15-.15-.55-.8-.05-.05-.45-1.5-.05-.55.05-.5v-1.3l-.05-.55.05-.6.35-1.2-.35-1.15-.05-.6.05-.45v-1.35l-.05-.55.05-.55v1.1m28.9-2.75v2.45l.45.95.2-1.05m-1.2 2.85l.55.7V-45l.45-.95m-.25 2.9l-.2.45v1.6l.45.9.2-1.05m-1.25-.6q-1.1 1.25-3.1 2.25l-1.6.7v3.5l1.6-.7.35-.2 1.2-.7 1.55-1.35h.05v-3.5h-.05m.6-.85l-.55.75v.1l.55.75v1.9l.45-1m-.45 3.05v-2.05l-.55.85v2.4m-1.35-7.2l1.35 1.2v-2.3m.75 1.1l-.2-.4v.85m-7.7-5.35v2.4l2.4.75m-2.4 6.75l1.1-.35 1.3-.4v-2.4l-2.4.7v5.9l2.4-.7v2.35M-9.35-41.2q1.1.5 2.4.75l.75.15 5.55.55 5.9-.6.55-.15m5.8-2.55L9.8-41.9l-1.6.7m-2.4 6.6v2.45m-.55-2.3l.55-.15m0-1.5l-1 .65-.85.35 1.3.65-2.9.45-3 .15-2.9-.15-2.85-.4-.55-.15v2.4m8.4-2.3l2.5-.65m-2.5.65l.9.45m11.15-3.05v.35m0-.35v.4M-9.35-53.1l2.4-.8v5.95l-2.4.7v-5.85m0 2.35l2.4-.7m-2.4 12.7l1.7.55.7.15v-2.4m-2.4-.75v2.45l-1.75-.75q-2.05-1-3.1-2.25l-.05-.1-.1.15v3.3l.15.15 1.2 1.1 1.7 1 .2.15 1.75.7v-3.45m15.15.7l-6.45.7q-3.45 0-6.3-.7v1.6l1.4 1 .6.3 2.4.6 2.15.15 1.85-.05m-15.8-9.85v.2l.1-.1-.1-.1-.6-.9v1.95l.6-.85v2.2l.1.05 1.3-1.2-1.25-1.1-.05-.05m-1-1.75l.3.75v-1.55l-.3.8-.15-.45m0 2.2v-1.05m0 4.55v-1.15m0 3.5v-1.05m0-1.1l.15.4.3-.75v-1.9l-.1-.3.1-.2v.5l.6.85v.2l-.6.85v1.55l.6.9v2.4m1.4-7.05l1.85 1.15 1.75.7m-5.6 1.9l-.3-.8m.3 3.05l.05.25m-.05-.25v.2M-3.55-34l1-.55m-4.4-1.9v1.9q-1.3-.25-2.4-.75v2.45m2.95-1.55l1.45-.75m-10-4.15v2.25" fill="none" stroke="#000" stroke-linecap="round" stroke-linejoin="round" stroke-width=".5" id="path48"/></g></defs></svg>