<svg xmlns="http://www.w3.org/2000/svg" xmlns:xlink="http://www.w3.org/1999/xlink" height="79" width="48"><use height="78.7" width="47.05" xlink:href="#a"/><defs><g id="a"><path d="m-26.9-2.2 9-4.5L14.3 9.4l-9 4.5-32.2-16.1" fill-opacity=".2" fill-rule="evenodd" transform="translate(29.6 64.8)"/><path d="m-6.1 4.6-1.8-.9v-15.8h1.8V4.6" fill="#adb4b0" fill-rule="evenodd" transform="translate(29.6 64.8)"/><path d="M-6.1-12.1h1.8V3.7l-1.8.9v-16.7" fill="#7e846c" fill-rule="evenodd" transform="translate(29.6 64.8)"/><path d="M-6.1-12.1h1.8V3.7l-1.8.9-1.8-.9v-15.8h1.8V4.6" fill="none" stroke="#868d78" stroke-linecap="round" stroke-linejoin="round" transform="translate(29.6 64.8)"/><path d="m13.85-39.25.25-2.65v2.55l-.25.1m.25 5.05v32.7l-1.8.9v-32.7l1.8-.9" fill="#adb4b0" fill-rule="evenodd" transform="translate(29.6 64.8)"/><path d="m13.85-39.25.25-.1v5.15l-1.8.9v-8.05l1.55 2.1" fill="#7e846c" fill-rule="evenodd" transform="translate(29.6 64.8)"/><path d="m12.3-.6-40.2-20.1v-40.8l20.1-.5 20.1 20.65V-.6" fill="#d2d5cc" fill-rule="evenodd" transform="translate(29.6 64.8)"/><path d="m13.85-39.25.25-.1V-1.5m-42-19.2v-40.8l20.1-.5 20.1 20.65 1.55 2.1M12.3-33.3v-8.05m0 40.75v-32.7" fill="none" stroke="#9fa89d" stroke-linecap="round" stroke-linejoin="round" transform="translate(29.6 64.8)"/><path d="m14.1-1.5-1.8.9-40.2-20.1m40.2-12.6 1.8-.9" fill="none" stroke="#868d78" stroke-linecap="round" stroke-linejoin="round" transform="translate(29.6 64.8)"/><path d="M10.15-42.75v39.5l-35.9-18v-39.5l35.9 18" fill="#f1f0ef" fill-rule="evenodd" transform="translate(29.6 64.8)"/><path d="m10.15-42.75-35.9-18v39.5l35.9 18z" fill="none" stroke="#bcbeb1" stroke-linecap="round" stroke-linejoin="round" transform="translate(29.6 64.8)"/><path d="M11.85-34-7.8-54.1l-19.65.5v-7.85l19.65-.45 19.65 20.15V-34" fill="#737d77" fill-opacity=".298" fill-rule="evenodd" transform="translate(29.6 64.8)"/><path d="m16.95-41.35-3.6 1.8v-1.25l3.6-1.8-3.6 1.8v1.25L10.2-42.8l.8-.4 2.35 2.4L11-43.2-7.8-62.5l-21.3.45 3.6-1.8 21.3-.45 21.15 21.7v1.25M-7.8-62.5l3.6-1.8-3.6 1.8" fill="#b8bebb" fill-rule="evenodd" transform="translate(29.6 64.8)"/><path d="m10.2-42.8-18-18.45-21.3.45v-1.25l21.3-.45L11-43.2l-.8.4" fill="#7e846c" fill-rule="evenodd" transform="translate(29.6 64.8)"/><path d="M16.95-41.35v-1.25l-3.6 1.8v1.25M-29.1-60.8v-1.25l3.6-1.8 21.3-.45 21.15 21.7m-3.6 1.8L11-43.2-7.8-62.5l-21.3.45m24.9-2.25-3.6 1.8" fill="none" stroke="#9fa89d" stroke-linecap="round" stroke-linejoin="round" transform="translate(29.6 64.8)"/><path d="m13.35-39.55 3.6-1.8m-3.6 1.8L10.2-42.8l-18-18.45-21.3.45" fill="none" stroke="#868d78" stroke-linecap="round" stroke-linejoin="round" transform="translate(29.6 64.8)"/><path d="M6.45-37.45v1.95l1.75.9-.05 5.15q0 1.2-.9.75l-1.15-.6-.15-.9 1 .5q.4.2.4-.35l.1-4.25-1-.5v.75q0 3.45-3.2 3.5l-.4-1.05q2.8.15 2.8-3.25v-.35l-.9-.45v-.7l.9.45v-2.15l.75.35q.3.15.05.25m-1.7.1v.75l-5-2.55v-.75l2.1 1.05v-1.45l.75.4q.3.2.05.25v1.2l2.1 1.1M3.6-34.7q.05.25-.2 0l-.6.9.9 1.45-.65.3-.7-1.25q-1.05.7-2.4.75l-.5-.95q1.45-.2 2.3-.7l-1-1.4.5-.35.95 1.25.65-.95.75.95m-.9-2.15.55-.25 1.5 2.25-.65.3-1.4-2.3m-2.55.5-.6-.9q1.15-.25 1.8-.8l.7 1q.05.25-.2 0-.75.55-1.7.7m3.05 7.6 1.3 2.45-.75.05-.3-.6L0-28.3q-.05.25-.2 0l-.25-1.05 1.05.55.8-1.7.95.7q.15.25-.1.15l-.95 1.2q.95.4 1.85.75l-.6-1.05h.65M1.1-25.9l1.85.9v-.7l-1.85-.9v.7m2.65-.1v4.9q0 .65-.65.35l-.65-.35-.1-.8.5.25.1-.1v-1.1l-1.85-.9v2l-.75-.4v-5.55l3.4 1.7m.95-2.55.75.4q.3.2.05.25v1.35l2 .15.45.95q.05.35-.25.05l-2.2-.55v.95l.2.4 1.6.75.25-.15.1-.65.8.55-.05.85q-.1.7-.75.35L5.4-24.05q-.7-.35-.7-1v-3.5m.8 5.2v1l2.2.35.4.85q.05.25-.25-.05l-2.35-.55v1.1l.2.4 1.6.75.3-.05.1-.65.85.55-.15.85q-.15.55-.7.3l-2.3-1.2q-.7-.35-.7-1V-24l.75.4q.3.2.05.25m-2.55-.9-1.85-.9v.65l1.85.9v-.65M4-18.85q1.75.9 2.95 2.75 1.25 1.8 1.25 3.55 0 1.75-1.25 2.35-1.2.65-2.95-.25-1.75-.9-2.95-2.75Q-.2-15.05-.2-16.8t1.25-2.3q1.2-.65 2.95.25m-2.3 5.3q.95 1.5 2.3 2.2l2.3.15q1-.5 1-1.8 0-1.35-1-2.8-.95-1.5-2.3-2.15l-2.3-.2q-1 .45-1 1.8 0 1.3 1 2.8m-24.5-40.9v5.5l-.9-.5v-6.7l1.4.75 2.3 6.6.1.05 2.35-4.25 1.35.7v6.7l-.9-.5v-5.5h-.1l-2.3 4.3-.9-.45-2.35-6.7h-.05m15.15 9.5q.3.2.05.25v1.55l3.4 1.75v4.3l-.8-.4v-.25l-2.6-1.35v2.9l-.8-.4v-2.9l-2.5-1.3v.5l-.8-.4v-4.55l3.3 1.7v-1.8l.75.4m-.75 2.15-2.5-1.3v2.55l2.5 1.3v-2.55m.8 2.95L-5-38.5v-2.55l-2.6-1.35v2.55m-9.95-4.45q.6.85.6 1.75t-.6 1.2q-.55.3-1.8-.3l-2.3-1.2v2.5l-.9-.45v-6.7l3.25 1.65q1.15.6 1.75 1.55m-2-.8-2.1-1.1v2.45l2.15 1.1q.85.45 1.2.3.35-.15.35-.65 0-.6-.35-1.05-.35-.6-1.25-1.05m8.4 9.6 6.4 3.25v.85l-6.4-3.25v-.85m-7.7 3.9-2.2-1.15v.4l-.8-.4v-3.95l3.75 1.95v3.95l-.75-.4v-.4m0-2.8-2.2-1.15v2.05l2.2 1.15v-2.05m-.85 7.2 3.95 2v.75l-4.3-2.15-.25.3 3.8 1.9v2.9l-2.4-1.2-.25.3 1.95 1 .15-.05.55.8q.25.2-.1.15-.55.5-1.3.75l2.5 1.8-.3.7q-1.85-1.15-2.85-2.25-1.15.1-3.1-.7l-.25-.9q1.65.65 2.75.7l-.8-1.35q-.65.4-1.4.35l-.5-.9q1.45-.05 2.1-.85l-.85-.4V-26l-.5.3-.55-.75-.65.8v5.1l-.8-.4v-4.15q-.5.35-.95.35l-.45-1.05q1.5-.35 2.25-1.6l.65.75q.8-.35 1.5-1.75l.75.7q.2.25-.1.15l-.25.35m-.25 2.25 2.75 1.4v-.55l-2.75-1.4v.55m3.1-3.45-6.25-3.2v.55l-.8-.4v-8.4l7.85 4v8.2l-.8-.4v-.35m5.25 3.4q.45 1.05.55 1.95l-.75-.2-.55-2 .75.25m-.6-5.75 8.4 4.3v.85l-8.4-4.3v-.85m-4.65-4.75-6.25-3.2v6.4l6.25 3.2v-6.4m9.75 10.55q.4.25.05.35v.75l3.3 1.65v.75l-6.3-3.2v3.55q0 2.2-1.4 2.95l-.6-.95q1.25-.55 1.2-2.2H-12q0 .3-.15.05l-.3-1.05 1.6.2v-3.7l2.9 1.5v-1.05l.85.4m-14.35-3.5q.15.25-.2.1-.8.8-2.1.85l-.45-1q1.3-.05 2.05-.8l.7.85m17.7 8.6-2.7-1.35v.85L-4-19.1v4q0 .65-.65.3l-.85-.4-.2-.85.75.35q.15.1.15-.05v-1.15l-.45.3-1.4-2q-.45.85-1.5.9l-.45-1q1.4-.15 1.4-1.3l-1.5-.75v4l-.8-.4v-4.75l2.3 1.15v-.85l-2.55-1.3v-.75l6 3.05v.75m-2.7.65 1.65 2.1v-1.65l-1.65-.85v.4m-10.75-3.75-2.75-1.4v.5l2.75 1.4v-.5m-2.2 1.1.85 1.35q.65-.25.95-.45l-1.8-.9" fill="#4b3a2c" fill-rule="evenodd" transform="translate(29.6 64.8)"/></g></defs></svg>