<svg xmlns="http://www.w3.org/2000/svg" xmlns:xlink="http://www.w3.org/1999/xlink" height="105" width="73"><use height="104.75" width="72.2" xlink:href="#shape0"/><defs id="defs63"><g id="shape0" transform="translate(45 66.1)"><path d="M-45 2.45l5-2.5L0 20l-5 2.5-40-20.05" fill="#000" fill-opacity=".102" fill-rule="evenodd" stroke="none" id="path6"/><path d="M0-19.05v-25.2l1.3-.65-1.3.65V-45l.55-.25.75-.4v.75l-.75-.35.75.35v64.25L0 20v-39.05" fill="#4e3123" fill-rule="evenodd" stroke="none" id="path8"/><path d="M0-45l-7.9-3.95h-.05l-8.5-4.25-.9-.45-7.7-3.85.6-.3.7-.35 8.55 4.3 8.6 4.25v.75l7.15 3.6L0-45m-40-19.95l1.3-.65 7.9 3.95-1.3.65-.9-.45-7-3.5m24.8 11.1l-1.25.65 1.25-.65m8.6 4.25l-1.3.65 1.3-.65" fill="#6a4331" fill-rule="evenodd" stroke="none" id="path10"/><path d="M0-44.25v25.2q-4.05.9-7.95-3.9V-48.2v25.25q-1.65 2.3-4.85 3.2l-3.4.55-1.2-1.75.05-31.85.9-.4-.9.4-.05 31.85q-2.95-3.65-7.75-3.95h-7.9v8.6q-.55-3.45-.7-8.3v-7.45l.75-18.3v-11.1 11.1l-.75 18.3v7.45L-40-22.15v-42.8l7 3.5.9.45-.9.4 1.2.6 5.35 2.65q1.15 5.6 1.35 12.2V-57.5h.05-.05.05l7.7 3.85.9.45 8.5 4.25v.75L0-44.25m-7.9-4.7h-.05.05m-25.1-1.4l-.05 25.45.05-25.45m-1.2-7.25v3.25-3.25m18 33.65v4.75-4.75m-1.15-29.7v.85-.85m-1.2 3.45v-3.15 3.15m9 23.65v-19.1 19.1m-15.55-18.6v1.9l-.05 18.35.05-18.35v-1.9m7.7 27.1q1.15 13.15 0 21.4v-21.4M-31.3-44.2v-7 7" fill="#9c8363" fill-rule="evenodd" stroke="none" id="path12"/><path d="M0-44.25l-7.95-3.95v-.75h.05L0-45v.75m-30.8-16.4l6.35 2.85-.6.3h-.05v12.35q-.2-6.6-1.35-12.2L-31.8-60l1-.65" fill="#704532" fill-rule="evenodd" stroke="none" id="path14"/><path d="M-7.95-22.95q3.9 4.8 7.95 3.9V20l-7.95-4-9.45-4.7V3.35v7.95l-6.7-3.4-1.05-.5v-32.3V7.4l-7.9-3.95L-40-.05v-22.1l6.25-2.45q.15 4.85.7 8.3v-8.6h7.9q4.8.3 7.75 3.95l1.2 1.75 3.4-.55q3.2-.9 4.85-3.2V16v-38.95M-38.7-4.25V-8.5v4.25m21.3-13.8v-2.9 24.3q1.15-8.25 0-21.4m10.85 6.3l-.4-3.2.4 3.2M-24.1-5.5V7.9-5.5m22.3-3.75V5.1-9.25m-31.25 12.7V-16.3 3.45" fill="#93806c" fill-rule="evenodd" stroke="none" id="path16"/><path d="M0-19.05v-25.2m-7.95-3.95v25.25M0-19.05V20m1.3-64.9l-1.3.65m-7.9-4.7h-.05v.75m8.5 2.95l.75.35m-32.1-16.75v1m-1 .65l1-.65m-1.3-.35l1.3-.65m-2.95 37.05v-7.45l.75-18.3v-11.1l.9.45-.9.4 1.2.6m-8.2-4.95v42.8m6.25-2.45q.15 4.85.7 8.3v-8.6l.05-25.45m6.55-7q1.15 5.6 1.35 12.2V-57.5h.05l.6-.3m-.6.3h-.05m7.75 3.85l.9.45 1.25-.65m-1.25.65l-.9.4-.05 31.85v2.9q1.15 13.15 0 21.4v7.95m.05-64.1v-.85m9.4 4.7h.05l1.3-.65m-18.55 24.7l.05-18.35v-1.9M-40-.05v-22.1M-7.95 16v-38.95m-17.2-1.95V7.4l1.05.5m6.7-25.95v21.4M-33.05-16.3V3.45" fill="none" stroke="#754f35" stroke-linecap="round" stroke-linejoin="round" stroke-width="1" id="path18"/><path d="M-34.2-54.35v-3.25m18 38.4v-4.75m-2.35-29.4v3.15m9 4.55v19.1M-38.7-8.5v4.25m31.75-10.7l.4 3.2M-24.1 7.9V-5.5m-7.2-45.7v7M-1.8 5.1V-9.25" fill="none" stroke="#8e755b" stroke-linecap="round" stroke-linejoin="round" stroke-width="1" id="path20"/><path d="M0-44.25l-7.95-3.95M-33-61.45l-7-3.5m8.2 4.95l5.35 2.65m9.1 3.7l-7.7-3.85m17.1 8.55l-8.5-4.25" fill="none" stroke="#895a3d" stroke-linecap="round" stroke-linejoin="round" stroke-width="1" id="path22"/><path d="M-38.7-65.6l7.9 3.95m0 1l6.35 2.85m.7-.35l8.55 4.3 8.6 4.25m0 .75l7.15 3.6M-17.4 11.3l9.45 4.7m-17.2-8.6l-7.9-3.95L-40-.05m22.6 11.35l-6.7-3.4M0 20l-7.95-4" fill="none" stroke="#613d2c" stroke-linecap="round" stroke-linejoin="round" stroke-width="1" id="path24"/><path d="M0 20l1.3-.65V-44.9M-40-64.95l1.3-.65m14.25 7.8l.7-.35m17.15 8.6v.7" fill="none" stroke="#413a30" stroke-linecap="round" stroke-linejoin="round" stroke-width="1" id="path26"/><path d="M-40.55-7.7q-1.65-3.85 0-7.1L0 5.45q-.95 3.75 0 7.1L-40.55-7.7M-33-46q-2.3 0-3-1.75 2.1-.9 3 1.75-.9-2.65-3-1.75.7 1.75 3 1.75m5.45 42.8Q-29.1-5.25-29-3.25q-.1-2 1.45.05m2.4-.55l2.15 1-2.15-1m21.1-30.75L-40-52.25-4.05-34.5m-36.5-13.2q-1.65-3.85 0-7.1L0-34.55q-.95 3.75 0 7.1L-40.55-47.7m28.3 51.95l.25.25-.25-.25M-5.5 8l2 1.5-2-1.5m.95-3.05L-39.05-12l34.5 16.95" fill="#9c8363" fill-rule="evenodd" stroke="none" id="path28"/><path d="M-40.55-7.7q-1.65-3.85 0-7.1m.55-37.45L-4.05-34.5m-36.5-13.2q-1.65-3.85 0-7.1m1.5 42.8l34.5 16.95" fill="none" stroke="#8e755b" stroke-linecap="round" stroke-linejoin="round" stroke-width="1" id="path30"/><path d="M-40.55-14.8L0 5.45q-.95 3.75 0 7.1M-40.55-54.8L0-34.55q-.95 3.75 0 7.1" fill="none" stroke="#754f35" stroke-linecap="round" stroke-linejoin="round" stroke-width="1" id="path32"/><path d="M0 12.55L-40.55-7.7M0-27.45L-40.55-47.7" fill="none" stroke="#613d2c" stroke-linecap="round" stroke-linejoin="round" stroke-width="1" id="path34"/><path d="M-12 4.5l-.25-.25" fill="none" stroke="#6c503e" stroke-linecap="round" stroke-linejoin="round" stroke-width="1" id="path36"/><path d="M-23-2.75l-2.15-1m-3.85.5q-.1-2 1.45.05M-33-46q-.9-2.65-3-1.75.7 1.75 3 1.75M-3.5 9.5l-2-1.5" fill="none" stroke="#a98f78" stroke-linecap="round" stroke-linejoin="round" stroke-width="1" id="path38"/><path d="M22.6 31.35l4.6 2.3v5L-5 22.5 0 20l6.95 3.5 7.9 3.95 1.9.95 5.85 2.95" fill="#000" fill-opacity=".102" fill-rule="evenodd" stroke="none" id="path40"/><path d="M22.65-33.6l.9.45-.9.4v-.85 10.45L14.9-27l7.75 3.85 1.3.65v7.05l-1.3-.65-7.75-3.85L7-23.9l-.25-.15L0-27.35l6.75 3.3.25.15 7.9 3.95 7.75 3.85L22.6-.9q-2.95-3.65-7.75-3.95h-7.9L7-23.9 6.95-4.85v8.6Q6.4.3 6.25-4.55L0-2.1v-25.25l-.55-.3q-1.65-3.85 0-7.1l.55.3 7 3.5-7-3.5V-44.9l7 3.5.9.45-.9.4 1.2.6 5.35 2.65q1 4.75 1.3 10.25l.05.05v-10.45h.05l7.7 3.85m-1.2 3.45v-3.15 3.15M7-40.55v-.85 10.45l1.7.85-1.7-.85v-9.6m1.7 9.4v1.05-1.05M4-27.7q1.9-.8 2.85 1.3l-.05.45Q4.65-26 4-27.7q.65 1.7 2.8 1.75l.05-.45Q5.9-28.5 4-27.7m-4-4.5l6.95 3.45H7l16.95 8.4L7-28.75h-.05L0-32.2m8.7 2.1l6.15 3.05L8.7-30.1m-2.9-7.45v3.25-3.25m9.1 17.6l-.05 15.1.05-15.1m-8.15-4.1L6.25-12v7.45V-12l.5-12.05M22.6 2q.75 8.55.55 15.05l.8.4v7.15l-1.35-.7-6.7-3.3-1.05-.55-7.9-3.95-5.65-2.8-1.3-.65-.55-.3q-1.65-3.85 0-7.1l.55.3L6.95 9l7.9 3.95 7.75 3.85V2m.55 15.05l-.55-.25.55.25m-8.3-.75l2.15 1-2.15-1m-2.4.55L11.7 16q-.75-.65-.7.8-.05-1.45.7-.8l.75.85M.95 8.05l23 11.3-23-11.3" fill="#9c8363" fill-rule="evenodd" stroke="none" id="path42"/><path d="M23.55-33.15l-.9-.45-7.7-3.85.6-.3.7-.35 8.55 4.3-1.25.65M0-44.9l1.3-.65 7.9 3.95-1.3.65-.9-.45-7-3.5" fill="#6a4331" fill-rule="evenodd" stroke="none" id="path44"/><path d="M15.55-37.75l-.6.3h-.05V-27l-.05-.05q-.3-5.5-1.3-10.25L8.2-39.95l1-.65 6.35 2.85" fill="#704532" fill-rule="evenodd" stroke="none" id="path46"/><path d="M6.95-4.85h7.9q4.8.3 7.75 3.95v17.7l-7.75-3.85v-17.8 17.8L6.95 9 0 5.55V-2.1l6.25-2.45q.15 4.85.7 8.3V9-4.85M22.6 23.9v7.45l-5.85-2.95-.85-.45-1.05-.5v-7.4 7.4l-7.9-3.95L0 20v-7.35l1.3.65 5.65 2.8v7.4-7.4l7.9 3.95 1.05.55v7.35-7.35l6.7 3.3M1.3 15.8v-2.5 2.5" fill="#93806c" fill-rule="evenodd" stroke="none" id="path48"/><path d="M14.95-37.45l7.7 3.85M0-44.9l7 3.5m6.55 4.1L8.2-39.95" fill="none" stroke="#895a3d" stroke-linecap="round" stroke-linejoin="round" stroke-width="1" id="path50"/><path d="M22.65-33.6l.9.45 1.25-.65m-9.25-3.95l-.6.3h-.05V-27l7.75 3.85v-9.6l.9-.4m-.9-.45v.85M9.2-41.6v1m-1.3-.35L7-41.4v.85l.9-.4 1.3-.65m-1 1.65l-1.2-.6v9.6l1.7.85m-.5-9.85l1-.65M7-30.95l-7-3.5-.55-.3m24.5 12.25l-1.3-.65M14.9-27l-.05-.05L8.7-30.1m6.15 3.05q-.3-5.5-1.3-10.25M0-34.45V-44.9m7 21L6.95-4.85V9l7.9 3.95 7.75 3.85V2q.75 8.55.55 15.05l.8.4m-9.1-22.3l.05-15.1M6.25-4.55V-12l.5-12.05m15.9 7.95L22.6-.9V2m0 21.9v7.45M0 20v-7.35m-.55-7.4l.55.3v-32.9m14.85 22.5v17.8m7.75 3.85l.55.25M6.95 9L0 5.55M6.95 23.5v-7.4m7.9 3.95v7.4l1.05.5M6.95 3.75Q6.4.3 6.25-4.55" fill="none" stroke="#754f35" stroke-linecap="round" stroke-linejoin="round" stroke-width="1" id="path52"/><path d="M21.45-33.3v3.15M8.7-30.1v-1.05m15.25 10.8L7-28.75h-.05L0-32.2m5.8-2.1v-3.25M1.3 13.3v2.5m14.6 12.15V20.6m8.05-1.25l-23-11.3" fill="none" stroke="#8e755b" stroke-linecap="round" stroke-linejoin="round" stroke-width="1" id="path54"/><path d="M16.25-38.1l-.7.35M0-44.9l1.3-.65" fill="none" stroke="#413a30" stroke-linecap="round" stroke-linejoin="round" stroke-width="1" id="path56"/><path d="M24.8-33.8l-8.55-4.3M1.3-45.55l7.9 3.95m0 1l6.35 2.85m-16.1 10.1l.55.3 6.75 3.3.25.15 7.9 3.95 7.75 3.85 1.3.65m0 40.05l-1.35-.7M0 12.65l-.55-.3M0 20l6.95 3.5m0-7.4L1.3 13.3 0 12.65m15.9 7.95l-1.05-.55-7.9-3.95m8.95 4.5l6.7 3.3m-5.85 4.5l-.85-.45m-1.05-.5l-7.9-3.95m9.8 4.9l5.85 2.95" fill="none" stroke="#613d2c" stroke-linecap="round" stroke-linejoin="round" stroke-width="1" id="path58"/><path d="M4-27.7q.65 1.7 2.8 1.75l.05-.45Q5.9-28.5 4-27.7m7 44.5q-.05-1.45.7-.8l.75.85m4.55.45l-2.15-1" fill="none" stroke="#a98f78" stroke-linecap="round" stroke-linejoin="round" stroke-width="1" id="path60"/></g></defs></svg>