<svg height="464.5" width="2432.4" xmlns:xlink="http://www.w3.org/1999/xlink" xmlns="http://www.w3.org/2000/svg"><g transform="translate(1332.4 249.4)"><use height="20.9" transform="translate(-297.15 -46.9)" width="30.4" xlink:href="#a"/><use height="169.45" transform="matrix(2.0163 .0178 -.0185 2.1036 -1329.16 -163.309)" width="1013.7" xlink:href="#b"/><use height="224.9" transform="matrix(2.1638 0 0 .8022 -1099.993 -249.41)" width="1016.7" xlink:href="#c"/></g><defs><path d="m507.5-84.15-11.75 3.4q-63.9 19.55-162.2 46.5Q210 .6 56.25 12.45q-45.5 4.95-83.6 12.75Q-71.5 32.8-138.4 43q-66.7 12-168.35 22.75L-504.4 84.8q0-18.9-.55-37.4-.35-55.25-1.25-111.45h.75l167.4-8.35q202.8-8 477.2-10.75 201.4-2.4 368.35-1" fill="url(#e)" fill-rule="evenodd" transform="translate(506.2 84.65)" id="b"/><path d="M505.6 88.6q-163.25-1.7-369.55 1-280.5 2.75-480 10.75l-162.3 8.3h-.55l.05 3.8h-.05l-.1-14h-.6l-.85-210.9h1014.8l1.9 204.4-2.6.45-19.2-.15 19.05-3.65" fill="url(#f)" fill-rule="evenodd" transform="translate(508.35 112.45)" id="c"/><path d="m66.8-8.05-15.65 1.2Q34.8-4.7 25.1-4.9l-7.2-.05-4.1-.1-11.65.85L-12-2.3-35.6-.55l-2.3.25h-.1l-1.35.25-3 .65-14.2-1-3.55.85Q-65.4 1.7-70.25 3.1l-5.9-.3q1.4-1.35 4.95-2.8l3.7-1.35 5.55-.5 5.4-.45 5.25.05 10.85 1.6 1.1-.35 4.8-.75 20.2-1.85 9.15-1.05L7.25-6.1l9-1.3 1.65.3 12.95.95L53.7-7.3l18.05-2 12.6-1.05 2.55-.2h.2l4.1-.2 6.3.3-1.65.1-8.75.6L71.75-8.5l-4.95.45m118.8-12.3 12.45-1.45 9-1.25 14.6 1.2L244.5-23l30.65-3 2.55-.2h.05l4.25-.2 6.3.3-1.65.1-29.05 2.3-15.65 1.2q-16.35 2.15-26.05 1.95l-11.3-.15-11.65.85L178.8-18l-23.6 1.75-2.3.25-.05.05-4.4.85-14.2-.95-3.55.8-10.15 2.65-5.9-.25q1.4-1.35 4.95-2.8l3.7-1.35 5.55-.5 5.4-.45 5.25.05 10.85 1.55q2.1-.75 5.9-1.1l20.2-1.85 9.15-1.05m-369.75 34.9 18.65-.55 11.9-.4 23.5-2 7.05.25q5.9-2.75 10.05-5.45h.05q3.05-1 5.7-1.45l6.25-.65 6.65-.55Q-88.5 5-85.1 6.4q1.55.65 2.6 1.3l-6.6 1.95L-105.95 8-120 13.4l-5.3-.25h-.1l-2.5.15-26 3.85q-9.4-.65-20.5-.2l-16.65 1.1Q-196 19.2-202.6 21.1q-10.8 2.05-32.1 1.6l-19 2.05-34.6 1.65 6.3-1.1 4.6-.4.05.05 39.25-2.55q18.05-1.2 26.55-3.95 8.4-2.15 16.25-4.5l11.15.6" fill="#fff" fill-opacity=".145" fill-rule="evenodd" transform="translate(288.3 26.4)" id="g"/><linearGradient gradientTransform="matrix(.0268 .1043 -.1306 .0217 -346.6 -3.65)" gradientUnits="userSpaceOnUse" id="e" spreadMethod="pad" x1="-819.2" x2="819.2"><stop offset="0" stop-color="#1b8ce9" stop-opacity=".714"/><stop offset="1" stop-color="#3df8f7"/></linearGradient><linearGradient gradientTransform="matrix(0 .0507 -.1372 .0001 -10 57.95)" gradientUnits="userSpaceOnUse" id="f" spreadMethod="pad" x1="-819.2" x2="819.2"><stop offset="0" stop-color="#31bcff"/><stop offset="1" stop-color="#c5f5fe"/></linearGradient><use height="20.9" width="30.4" xlink:href="#d" id="a"/><g id="d"><path d="m4.4-10.4.05.25-.2.5-.45.2q-.25 0-.45-.2l-.05-.1-.15-.4.2-.45q.2-.2.45-.2l.45.2.15.2m-3.05-3 .2-.45q.2-.2.45-.2l.45.2.2.45-.2.5-.45.2q-.25 0-.45-.2l-.2-.5" fill-opacity=".6" fill-rule="evenodd" transform="translate(16.3 22.1)"/><path d="m9-21.6 2.3 1.05 2.3 1q-.9 4.1-4.2 7l-.85-.25-4.15 2.4-.15-.2-.45-.2q-.25 0-.45.2l-.2.45.15.4-2 1.15-1-.1.2.35-6.05 3.4-.75 1.7.25.75.5.45-10.25.35 3.8-8 .8.45 1.35 1 1.5-.95 6.25-3.9.25.45 7.6-4.6.85.2h.1l.1-.1Q8.4-19 9-21.6m-7.65 8.2.2.5q.2.2.45.2l.45-.2.2-.5-.2-.45-.45-.2q-.25 0-.45.2l-.2.45m-3.2.75L.3-8.7l-2.15-3.95m10-2.35q2.25-1.8 3.15-5.55-.9 3.75-3.15 5.55" fill="#fcb6c4" fill-opacity=".6" fill-rule="evenodd" transform="translate(16.3 22.1)"/><path d="M13.6-19.55q-.9 4.1-4.2 7M.3-8.7l.2.35-6.05 3.4m0 2.9-10.25.35 3.8-8m3.65.5 6.25-3.9.25.45m8.45-4.4h.1l.1-.1Q8.4-19 9-21.6m2.3 1.05Q10.4-16.8 8.15-15M.3-8.7l-2.15-3.95" fill="none" stroke="#000" stroke-linecap="round" stroke-linejoin="round" stroke-opacity=".6" transform="translate(16.3 22.1)"/></g></defs></svg>