<svg xmlns="http://www.w3.org/2000/svg" height="182" width="160" xml:space="preserve" style="fill-rule:evenodd;clip-rule:evenodd;stroke-linejoin:round;stroke-miterlimit:1.5"><path d="M61.748 67.57c8.816 15.202 9.035 30.403 0 45.605h-41.63c-8.143-14.801-8.872-29.967 0-45.605h41.63Z" style="fill:#714022;stroke:#000;stroke-width:4.1px" transform="matrix(-.46156 .25455 .33014 .59864 89.689 30.839)"/><path d="m115.754 37.817 5.221 1.697-3.002 3.523-3.654-3.784 1.435-1.436Z" style="fill:#411717;stroke:#000;stroke-width:3.16px" transform="matrix(-.91821 -.02925 -.03438 .61871 162.094 10.694)"/><path d="m83.273 85.982 29.009-53.319c2.285-9.232 3.18-7.697 4.829-9.222l7.672 4.644c-.591.438-1.051 1.353-3.711 2.417-.772.309-2.533 3.429-3.579 5.553L88.086 88.237l-4.813-2.255Z" style="fill:#402312;stroke:#000;stroke-width:2.5px" transform="matrix(-1 0 0 1 174.262 -3.107)"/><path d="m75.193 66.966-5.049-11.809-13.649-12.285 23.146-6.644-2.513 17.231 3.483 12.314-5.418 1.193Z" style="fill:#cdc7b5;stroke:#000;stroke-width:4.92px" transform="matrix(-.49688 0 0 .5182 152.468 31.653)"/><path d="m66.945 113.849 3.452-5.693 6.83 3.788-3.937 5.545-6.345-3.64Z" style="fill:#6c3131;stroke:#000;stroke-width:2.5px" transform="matrix(-1 0 0 1 179.529 -6.334)"/><path d="M61.748 67.57c8.816 15.202 9.035 30.403 0 45.605h-41.63c-8.143-14.801-8.872-29.967 0-45.605h41.63Z" style="fill:#714022;stroke:#000;stroke-width:4.1px" transform="matrix(-.46156 .25455 .33014 .59864 83.487 34.284)"/><path d="m80.141 22-2.5 1.1-7.7-17.2-7.7 17.2-1.3-.6-1.1-.5 10.1-22 10.2 22m-20.2 8.4 1.5 1.5c-2.8 2.6-4.434 5.434-4.9 8.5l-.1 2c0 3 1 5.766 3 8.3l2 2.2-1.5 1.4-.8-.7-1.2-1.4c-2.4-2.934-3.6-6.2-3.6-9.8l.1-2c.466-3.734 2.3-7.066 5.5-10m-5.1 70.6 1.4-1.9 2.5 2v.1l-2.7 3-.9.8v.1c-.934.6-2 .9-3.2.9-1.266 0-3.034-.734-5.3-2.2l-3.8-1.3c-1.2 0-2.066.366-2.6 1.1l-1.2 1.9-2.7-1.5v-.1l2.4-3.3c1.066-1.066 2.366-1.6 3.9-1.6 1.466 0 2.966.534 4.5 1.6 2.2 1.134 3.9 1.7 5.1 1.7.866 0 1.734-.434 2.6-1.3m33.8 21.9h3.1V136c0 .934.266 1.7.8 2.3.734.734 1.834 1.1 3.3 1.1 1.4 0 2.466-.366 3.2-1.1.6-.6.9-1.366.9-2.3v-13.1h3.1v13.2c0 1.666-.534 3.034-1.6 4.1-1.266 1.2-3.134 1.8-5.6 1.8-2.534 0-4.4-.6-5.6-1.8-1.066-1.066-1.6-2.434-1.6-4.1v-13.2m19.2-41.7-3 .1-.7-3 2.5-.1c4.066-.266 6.8-1.1 8.2-2.5 1-1 1.5-2.234 1.5-3.7 0-1.6-.534-2.934-1.6-4-.8-.8-2.234-1.2-4.3-1.2-1.734 0-3.734.4-6 1.2l-6.7 2.5-1.3-3.2 6.3-1.8 6.5-1.4 1.5-.1c2.934 0 5.1.7 6.5 2.1 1.466 1.4 2.2 3.3 2.2 5.7 0 2.466-.666 4.366-2 5.7l-.8.7c-2.134 1.6-5.066 2.6-8.8 3m8.5-28.9-.2-.2 2.8-3.4.5-.9c1.066-1.934 1.6-4 1.6-6.2l-.1-1.2c-.266-3.334-1.8-6.366-4.6-9.1l-.2-.2.7-.8h.1l.6-.7c3.4 3.134 5.234 6.734 5.5 10.8l.1 1.2c0 2.534-.6 4.9-1.8 7.1-.934 1.666-2.2 3.266-3.8 4.8l-1.2-1.2m-8-30.3-2.5 1.1-7.8-17.2-7.7 17.2-2.4-1.1 10.1-22 10.3 22m-8.3 32.8h-1.5l1.1-2.9h-1.1V49h3.1v2.7l-1.6 3.1m5.9 0h-1.5l1.1-2.9h-1.1V49h3v2.7l-1.5 3.1"/><path d="M.35-60h3.9l1.2.55 3.85-8.6 3.9 8.6 1.25-.55 3.15 3.05 1.1 1.1-1.1-1.1 1.15 1.1h-.05l-.35.4.1.1c1.4 1.367 2.167 2.883 2.3 4.55l.05.6c0 1.1-.267 2.133-.8 3.1l-.25.45-1.4 1.7.1.1-.3.3-3.25.9v4.7l-3.25.7-3.15.9.65 1.6L12.5-37c1.133-.4 2.133-.6 3-.6 1.033 0 1.75.2 2.15.6.533.533.8 1.2.8 2 0 .733-.25 1.35-.75 1.85-.7.7-2.067 1.117-4.1 1.25l-1.25.05.35 1.5 1.5-.05-.05 2.75-1.5 1.25v12.25l-.85 4.6h-1.55V-3c0 .467-.15.85-.45 1.15-.367.367-.9.55-1.6.55-.733 0-1.283-.183-1.65-.55-.267-.3-.4-.683-.4-1.15v-6.55H4.6l-2.35-3.5H.5l-1.15-.5H-8.9l-3.25-3.25v-1.7l.45-.4 1.35-1.5v-.05l-1.25-1-.7.95.4-10.9 1.75-12.8.4.35.75-.7-1-1.1c-1-1.267-1.5-2.65-1.5-4.15l.05-1c.233-1.533 1.05-2.95 2.45-4.25l-.75-.75.5-3.95.65.3 3.85-8.6 3.85 8.6L.35-60m12.9 16.4.75-1.55v-1.35h-1.5v1.45h.55l-.55 1.45h.75m-2.95 0 .8-1.55v-1.35H9.55v1.45h.55l-.55 1.45h.75" style="fill:#fff" transform="matrix(2 0 0 2 79.441 142)"/><path d="M4.25-60H.35m12.3 45.85V-26.4m6.05-29.45-1.1-1.1" style="fill:none;fill-rule:nonzero;stroke:#000;stroke-width:1px;stroke-miterlimit:4" transform="matrix(2 0 0 2 79.441 142)"/><path d="M107.798 31.7h6.3" stroke-width="3" id="gikopoipoi_eyes_closed" style="display:none" fill="none" stroke="#000" stroke-linecap="round" stroke-linejoin="round"/><path d="M1.35 0h.2l.55.1.45.35c.3.3.45.633.45 1L2.55 2.6c-.3.267-.633.4-1 .4l-.8-.2-.25-.2-.45-.7v-.15L0 1.45v-.1c.033-.333.2-.633.5-.9l.25-.2C.917.117 1.1.033 1.3 0h.05m.45.85L1.55.8C1.317.767 1.133.833 1 1c-.133.1-.2.25-.2.45v.15l.15.45H1l.05.05.2.1.3.05.55-.2.15-.6-.05-.3L2.1 1 2.05.95 1.9.85h-.1" transform="matrix(2.0124 0 0 2 107.922 28.6)" id="gikopoipoi_eyes_open"/></svg>