<svg height="182" width="160" xmlns:xlink="http://www.w3.org/1999/xlink" xmlns="http://www.w3.org/2000/svg"><defs><linearGradient xlink:href="#a" id="b" x1="52.16" y1="82.432" x2="110.082" y2="83.281" gradientUnits="userSpaceOnUse" gradientTransform="matrix(1.00151 0 0 1 -.263 1.46)"/><linearGradient id="a"><stop style="stop-color:#9f7635;stop-opacity:1" offset="0"/><stop style="stop-color:#d2ad65;stop-opacity:1" offset="1"/></linearGradient></defs><path d="M80.141 22h7.8l2.4 1.1 7.8-17.2 7.7 17.2 2.5-1.1 6.3 6.1 2.3 2.1-.1.1-.8.8.2.2c2.8 2.733 4.367 5.767 4.7 9.1v1.2c0 2.2-.533 4.267-1.6 6.2l-.5.9-2.8 3.4.3.3-.6.5-6.5 1.8v9.4l-6.5 1.4.386 3.556-5.286 1.444 6.6-2.5 6-1.2c2.067 0-5.72 3.528-4.92 4.328 1.066 1.067.447.809.447 2.409 0 1.466 9.873 1.163 8.873 2.163-1.4 1.4-4.133 2.233-8.2 2.5l-2.5.1.7 3 3-.1-.1 5.5-3 2.5v24.5l-1.7 9.2h-3V136c0 .933-.3 1.7-.9 2.3-.733.733-1.8 1.1-3.2 1.1-1.533 0-2.633-.367-3.3-1.1-.6-.6-.867-1.367-.8-2.3v-13.1h-3.2l-4.7-7h-3.5l-7.1 7V136c0 .933-.3 1.7-.9 2.3-.733.733-1.8 1.1-3.2 1.1-1.467 0-2.567-.367-3.3-1.1-.6-.6-.867-1.367-.8-2.3v-13.1h-3.1l-3.4-2.2-3.5-7.8v-7.8l.9-.8c1-.8 1.9-1.833 2.7-3.1l-2.5-2-1.4 1.9.8-21.9 3.5-25.6.8.7 1.5-1.4-2-2.2c-2.067-2.533-3.067-5.3-3-8.3l.1-2c.467-3.067 2.1-5.9 4.9-8.5l-1.5-1.5 1-7.9 1.3.6 7.7-17.2 7.7 17.2 2.5-1.1m20.2 29.4v3.8h2.6v-6.5h-2.3V29.8h-12.4v7.7l-.1 2.2-.9 4.9-2 4.1h-1.9v6.6h2.7v-3.9h14.3m-12.1-2.7 1-1.8 1.8-7.1v-.1l.1-.7v-6.5h6.8v16.2h-9.7m28.6-18.4-2.2-2.2 2.2 2.2m-26.5 35.8c-1.4-1.4-3.567-2.1-6.5-2.1l-8 1.5-6.2 1.8 1.3 3.2 6.6-2.5 6-1.2c2.067 0 3.5.4 4.3 1.2 1.067 1.067 1.6 2.4 1.6 4 0 1.467-.5 2.7-1.5 3.7-1.4 1.4-4.1 2.233-8.1 2.5l-2.6.1.7 3c5.267-.067 9.2-1.1 11.8-3.1l.9-.7c1.333-1.333 2-3.233 2-5.7-.067-2.4-.833-4.3-2.3-5.7m-25.3-11.3 1.5-3.1V49h-3v2.9h1.1l-1.1 2.9h1.5m4.3-2.9h1.1l-1.1 2.9h1.5l1.5-3.1V49h-3v2.9" fill="#fff" fill-rule="evenodd"/><path d="m87.941 22 10.2-22 10.2 22-2.5 1.1-7.7-17.2-7.8 17.2-2.4-1.1m29 8.2.5-.6c3.4 3.133 5.267 6.733 5.6 10.8v1.2c0 2.533-.6 4.9-1.8 7.1-.933 1.667-2.2 3.267-3.8 4.8l-1.1-1.1-.3-.3 2.8-3.4.5-.9c1.067-1.933 1.6-4 1.6-6.2v-1.2c-.333-3.333-1.9-6.367-4.7-9.1l-.2-.2.8-.8.1-.1m-13.9 92.7v13.2c0 1.667-.533 3.033-1.6 4.1-1.2 1.2-3.033 1.8-5.5 1.8-2.6 0-4.5-.6-5.7-1.8-1.067-1.067-1.6-2.433-1.6-4.1v-13.2h3.2V136c-.067.933.2 1.7.8 2.3.667.733 1.767 1.1 3.3 1.1 1.4 0 2.467-.367 3.2-1.1.6-.6.9-1.367.9-2.3v-13.1h3m-29.7 0h3v13.2c0 1.667-.533 3.033-1.6 4.1-1.2 1.2-3.033 1.8-5.5 1.8-2.533 0-4.4-.6-5.6-1.8-1.133-1.067-1.667-2.433-1.6-4.1v-13.2h3.1V136c-.067.933.2 1.7.8 2.3.733.733 1.833 1.1 3.3 1.1 1.4 0 2.467-.367 3.2-1.1.6-.6.9-1.367.9-2.3v-13.1m-18.2-17.8c-.933.6-2 .9-3.2.9-1.333 0-3.133-.733-5.4-2.2l-3.8-1.3c-1.133 0-2 .367-2.6 1.1l-1.2 1.9-2.7-1.5 2.4-3.3c1.133-1.067 2.433-1.6 3.9-1.6s3 .533 4.6 1.6c2.2 1.133 3.9 1.7 5.1 1.7.8 0 1.667-.433 2.6-1.3l1.4-1.9 2.5 2c-.8 1.267-1.7 2.3-2.7 3.1l-.9.8m4-51.5-1.2-1.4c-2.467-2.933-3.667-6.2-3.6-9.8l.1-2c.467-3.733 2.3-7.067 5.5-10l1.5 1.5c-2.8 2.6-4.433 5.433-4.9 8.5l-.1 2c-.067 3 .933 5.767 3 8.3l2 2.2-1.5 1.4-.8-.7m1.8-31.1-1.1-.5 10.1-22 10.2 22-2.5 1.1-7.7-17.2-7.7 17.2-1.3-.6m22.4 32.7v-6.5h1.9l2-4.1.9-4.9.1-2.2v-7.7h12.4v18.9h2.3v6.5h-2.6v-3.9h-14.3v3.9h-2.7m14.6-22.7v-.1h-6.9v6.5l-.1.7v.1l-1.8 7.1-1 1.8-.1.1h9.9V32.5m-7.6 33.6c1.467 1.4 2.233 3.3 2.3 5.7 0 2.467-.667 4.367-2 5.7l-.9.7c-2.6 2-6.533 3.033-11.8 3.1l-.7-3 2.6-.1c4-.267 6.7-1.1 8.1-2.5 1-1 1.5-2.233 1.5-3.7 0-1.6-.533-2.933-1.6-4-.8-.8-2.233-1.2-4.3-1.2l-6 1.2-6.6 2.5-1.3-3.2 6.2-1.8 8-1.5c2.933 0 5.1.7 6.5 2.1m-21-14.2V49h3v2.7l-1.5 3.1h-1.5l1.1-2.9h-1.1m-4.3 2.9h-1.5l1.1-2.9h-1.1V49h3v2.7l-1.5 3.1" fill-rule="evenodd"/><path d="M80.141 22h7.8m16.8 67.2v18.9m0 0v5.6m9.9-85.6 2.2 2.2" fill="none" stroke="#000" stroke-linecap="round" stroke-linejoin="round" stroke-width="2"/><path style="fill:#fff;fill-opacity:1;stroke-width:.31091663;stroke-miterlimit:4;stroke-dasharray:none" d="M108.796 80.736c-1.035-.325-1.415-.54-2.163-1.224-.877-.803-1.743-2.204-1.982-3.207-.054-.229-.198-.71-.32-1.068-.12-.358-.22-1.164-.22-1.79 0-1.225.341-2.111 1.18-3.068.469-.535 2.64-1.592 3.85-1.876 1.89-.832 4.431.213 5.702 1.816.37.472.85 1.068 1.066 1.323.338.401.414.71.556 2.261.194 2.127-.021 3.163-.92 4.417-.658.92-1.456 1.748-1.684 1.748-.092 0-.606.2-1.143.443-1.436.652-2.39.707-3.922.225z"/><path style="fill:url(#b);fill-opacity:1;stroke:#d2ad65;stroke-width:0;stroke-miterlimit:4;stroke-dasharray:none;stroke-opacity:1" d="M69.26 131.737c-3.465-.26-4.454-.478-6.235-1.371-1.016-.51-2.73-1.679-3.934-2.684-1.603-1.338-6.365-5.8-6.767-6.34-.574-.773-1.234-2.168-1.472-3.111-.52-2.06-.573-4.09-.211-8.085.288-3.18.313-6.237.063-7.651-.446-2.522-.568-4.566-.57-9.55-.003-4.92.066-6.316.503-10.154.811-7.13 2.555-15.34 5.326-25.083l1.02-3.595c.096-.347.213-.63.26-.63.045 0 1.702-2.42 1.802-2.224.1.196 2.71 1.817 3.084 2.36 13.908-8.295-2.83 3.071-2.525 3.705.635 1.322.116-5.625.864-5.253.47.235 2.403 2.313 3.254 2.255 1.293-.088.603-.172 2.928-1.113 2.425-.98 2.273-.315 3.931-.66.726-.152 1.849.472 2.26.38.684-.154 3.361 2.564 3.709 2.728.86.408 2.247 2.283 2.354 4.572.094 2.017.779 1.642 1.58 3.745.509 1.338-1.948 3.4-1.391 3.933l.319.305.393-.3c.216-.165.394-.341.394-.393 0-.05-2.683-.331-2.942-.623-.502-.564 1.429-1.808.908-3.603-.374-1.288-.493-2.103-.496-3.393-.004-1.859-.392-2.994-1.306-3.818-.79-.712-1.274-.748-3.42-.25-.635.147-1.625.373-2.2.504-.573.13-1.835.559-2.802.953-3.045 1.24-4.81 1.723-5.592 1.526-.578-.144-1.161-.823-1.742-2.026a22.764 22.764 0 0 0-1.343-2.318c-1.264-1.876-2.706-3.956-3.387-6.23-.135-.452-.36-1.51-.62-2.089-.258-.579-.298-1.369-.397-1.707-.175-.6-.522-2.24-.398-2.364.179-.179 3.661.95 7.002 2.261 1.3.51 5.14 2.437 7.136 3.263 1.996.827 4.842 1.435 6.111 1.945 4.038 1.623 4.7 2.11 6.174 4.43 1.4 2.202 2.732 4.983 6.5 10.125 3.509 4.792 5.088 7.016 6.169 8.693.889 1.379.8 1.277.96 1.118.194-.194.306-.158.306.097 0 .184.047.212.247.152.887-.268 1.02-1.093 1.653-2.623.664-1.603.979-2.09 1.859-3.043 1.33-1.443 2.15-2.298 3.066-5.91.847-3.344 1.432-5.573 2.548-7.02.74-.96 1.941-2.216 2.881-2.75 1.38-.786 2.735-1.073 5.271-1.379 3.15-.38 6.024-.955 8.01-2.207.373-.235.421-.244.367-.071-.035.11-.161.669-.28 1.242-.406 1.946-.58 3.715-.596 6.063l-.015 2.275-.305.304c-.275.276-.392.308-1.21.341-.574.023-1.39-.047-2.235-.192-2.235-.383-3.318-.29-4.825.414-2.746 1.283-4.534 3.412-8.356 9.95-.953 1.63-2.131 3.552-2.618 4.27-1.072 1.58-2.575 3.198-3.236 3.481-.257.11-.467.253-.467.317 0 .22.319.879.425.879.421 0-.289-2.905.508-3.709 1.218-1.227.963-1.099 2.546-3.756.738-1.237 1.426-3.405 2.067-4.482 2.529-4.25 10.639-11.337 13.053-12.35.599-.252-1.14 1.632-.186 1.64 3.459-4.66 3.835-1.062 3.702-.327l-.91 5.042-.2.447c-.36.802-1.114 1.182-3.461 1.742-.886.212-1.795.462-2.02.555-.968.402-.74 1.206-1.028 2.09-.116.356-.767 2.663-1.334 2.822-2.064.582-3.393.759-3.998 3.15-.254 1.005-1.24 2.693-.985 3.623.345 1.258 1.008 2.374 1.987 3.348.711.707 1.883 1.555 2.387 1.727.047.016.136 1.046.198 2.29.132 2.646.31 3.72 1.27 7.674.976 4.021 1.083 4.68 1.088 6.696.005 1.868-.081 2.4-.667 4.116-.207.604-.508 1.765-.67 2.58-.28 1.412-.294 1.642-.295 4.885-.002 2.784.042 3.801.24 5.598.491 4.437.575 5.309.697 7.263.12 1.915.116 2.024-.11 2.767-.704 2.315-2.646 3.715-7.487 5.399-4.44 1.544-5.616 1.794-8.41 1.79-2.711-.006-4.173-.349-6.76-1.59-1.707-.818-2.383-1.318-2.786-2.058l-.31-.566.339-.998c.719-2.125 1.073-4.869.954-7.397-.04-.845-.102-1.672-.138-1.838-.061-.284-.09-.297-.52-.233-.25.038-.49.1-.534.14-.043.039-.025.539.04 1.11.152 1.324.048 3.669-.236 5.331-.914 5.335-3.638 7.964-8.977 8.663-1.363.178-4.71.2-6.798.043z"/><path style="fill:none;stroke:#000;stroke-width:2;stroke-linecap:butt;stroke-linejoin:miter;stroke-opacity:1;stroke-miterlimit:4;stroke-dasharray:none" d="M54.36 41.86c6.066 1.42 11.723 4.164 17.494 6.42 2.728 1.397 6.062 1.95 8.14 4.127 4.066 6.803 8.807 12.179 12.605 18.36 3.227 2.85 3.461 7.205 5.997 10.469 1.388 4.17 4.54 5.323 3.16 9.797"/><path style="fill:none;stroke:#000;stroke-width:2;stroke-linecap:butt;stroke-linejoin:miter;stroke-opacity:1;stroke-miterlimit:4;stroke-dasharray:none" d="M54.36 41.86c-.703 1.846.332 3.7 1.087 5.346.862 2.973 2.042 5.902 3.958 8.363.82 1.334 1.153 3.302 2.86 3.807 3.425.143 6.226-2.271 9.537-2.726 1.113-.123 2.168-.652 3.288-.636 1.554.306 2.03 2.148 2.077 3.518-.236 2.242.55 4.407 1.355 6.45.146.773.835 1.24 1.268 1.843"/><path style="fill:none;stroke:#000;stroke-width:2;stroke-linecap:butt;stroke-linejoin:miter;stroke-opacity:1;stroke-miterlimit:4;stroke-dasharray:none" d="M57.14 51.752c-4.79 16.05-9.172 33.18-7.073 50.039 1.287 5.894-1.525 12.073.706 17.842a9.205 9.205 0 0 0 2.55 3.535"/><path style="fill:none;stroke:#000;stroke-width:2;stroke-linecap:butt;stroke-linejoin:miter;stroke-opacity:1;stroke-miterlimit:4;stroke-dasharray:none" d="M53.322 123.168c4.275 3.708 8.587 9.047 14.706 8.969 5.757.553 13.663.956 16.476-5.34 1.318-2.685 1.691-7.34 1.18-10.289"/><path style="fill:none;stroke:#000;stroke-width:2;stroke-linecap:butt;stroke-linejoin:miter;stroke-opacity:1;stroke-miterlimit:4;stroke-dasharray:none" d="M109.985 80.632c-.998 7.013 4.334 13.86 1.378 20.765-2.14 7.206.233 14.625.216 21.922-.678 4.252-5.35 5.637-8.884 6.78-4.488 1.895-9.817 2.331-14.289.15-1.966-.992-3.162-1.341-3.907-3.435M49.693 87.288c6.997 3.835 14.38 9.885 22.599 10.841 2.657.562 5.343.983 8.042 1.287"/><path style="fill:none;stroke:#000;stroke-width:2;stroke-linecap:butt;stroke-linejoin:miter;stroke-opacity:1;stroke-miterlimit:4;stroke-dasharray:none" d="M80.334 99.416c1.978 2.407 2.241 5.868 1.236 8.741-.435 2.425 1.435 4.409 1.735 6.719.21 1.347 1.71 1.985 2.93 1.669 1.106-.21 2.007-1.147 2.113-2.275.761-1.954 1.563-3.918 1.814-6.02.194-1.404.224-2.858-.08-4.238-.552-2.508-.244-6.234-3.104-7.049-1.661-.31-3.372.123-4.964.593-.79.303-2.264.879-1.68 1.86l-.206.147.206-.147zm9.508.427c6.982-.613 13.494-3.531 17.899-9.143 1.02-1.138 2.874-2.252 2.554-4.014"/><path style="fill:none;stroke:#000;stroke-width:2;stroke-linecap:butt;stroke-linejoin:miter;stroke-opacity:1;stroke-miterlimit:4;stroke-dasharray:none" d="M111.956 93.846c-3.229 3.156-6.734 6.196-10.974 7.893-3.455 1.868-7.209 3.402-11.179 3.576M49.247 94.37c5.393 1.01 8.232 6.546 13.382 8.076 4.662 1.714 9.597 2.67 14.493 3.372 1.705.025 3.411-.296 5.113-.076"/><path style="fill:none;stroke:#000;stroke-width:2;stroke-linecap:butt;stroke-linejoin:miter;stroke-opacity:1;stroke-miterlimit:4;stroke-dasharray:none" d="M82.06 111.272c-1.754 1.238-2.608 4.1-4.226 5.047-1.617.946-3.882 2.872-5.103.773-.896-2.54 1.34-5.8 1.9-7.691.559-1.892 1.845-2.286 2.792-3.6"/><path style="fill:none;stroke:#000;stroke-width:2;stroke-linecap:butt;stroke-linejoin:miter;stroke-miterlimit:4;stroke-dasharray:none;stroke-opacity:1" d="M83.032 90.197c.092 5.696 8.688 4.966 8.987-.636-.226-4.857-9.062-5.749-8.987.636z"/><path style="fill:none;stroke:#000;stroke-width:2;stroke-linecap:butt;stroke-linejoin:miter;stroke-opacity:1;stroke-miterlimit:4;stroke-dasharray:none" d="M85.693 78.175c.466.828 1.3 2.104 1.782 2.923.208.353 2.307 2.473 2.639 2.639.998.499 1.896 1.189 2.794 1.863.546.41 1.295.552 1.863.931.737.491 1.471 1.084 2.173 1.553.831.553 3.237 2.09 4.192 2.328.215.054.62.415.62.621m20.182-43.777c-3.238 2.995-7.475 3.82-11.627 4.21-4.18.73-7.177 3.943-8.357 7.9-1.277 3.38-1.142 7.078-4.044 9.694-1.394 1.337-1.124 3.965-3.139 4.586"/><path style="fill:none;stroke:#000;stroke-width:2;stroke-linecap:butt;stroke-linejoin:miter;stroke-opacity:1;stroke-miterlimit:4;stroke-dasharray:none" d="M121.938 47.256c-1.197 2.547-1.862 7.602-1.528 10.366.202 3.934-6.921.476-9.218.567-7.634.82-8.07 15.288-13.546 19.445l-.438.193-.458.166m13.02 1.687c-.02.57-.064 1.148.08 1.707.065.531-.198 1.108.077 1.602.114.575.016 1.17.075 1.752.015.522.208 1.007.402 1.483.128.484.254.983.2 1.488-.025-.357-.07-.742-.309-1.026"/><path style="fill:none;stroke:#000;stroke-width:2;stroke-linecap:butt;stroke-linejoin:miter;stroke-opacity:1;stroke-miterlimit:4;stroke-dasharray:none" d="M118.29 59.985c.11 3.117-3.688 2.988-5.807 3.73-1.075.343-2.125 3.285-2.152 4.454"/><path style="fill:#fff;fill-opacity:1;stroke-width:.33088243;stroke-miterlimit:4;stroke-dasharray:none" d="M79.854 78.785c-1.363-.327-2.367-.796-2.97-1.388-.933-.917-1.11-1.402-1.11-3.03.001-1.361.048-1.57.62-2.747.714-1.473 1.96-2.8 3.163-3.37 2.1-.995 6.282-1.285 7.959-.552 1.331.582 2 1.648 1.996 3.185-.004 2.018-.901 3.985-2.566 5.63-2.151 2.123-4.531 2.885-7.092 2.272z"/><path style="fill:none;stroke:#000;stroke-width:2;stroke-linecap:butt;stroke-linejoin:miter;stroke-opacity:1;stroke-miterlimit:4;stroke-dasharray:none" d="M79.79 67.825c-2.726 1.265-4.444 4.385-4.126 7.361.21 1.514 1.27 2.878 2.727 3.376 1.73.759 3.746.985 5.543.317 3.419-1.165 5.942-4.698 5.747-8.332-.057-1.26-.783-2.473-1.942-3.011-1.73-.812-3.734-.676-5.566-.346-.808.155-1.603.372-2.383.635zm29.947.682c5.232-.843 8.843 6.597 4.957 10.238-3.722 3.815-10.277.05-9.695-5.018.112-2.565 2.075-5.09 4.738-5.22z"/><path d="M1.357 0h.2l.554.1.452.35q.452.45.452 1L2.563 2.6Q2.11 3 1.558 3l-.804-.2-.252-.2-.452-.7v-.15L0 1.45v-.1q.05-.5.502-.9l.252-.2q.251-.2.552-.25h.05m.453.85L1.558.8q-.352-.05-.553.2-.201.15-.201.45v.15l.15.45h.051l.05.05.201.1.302.05.552-.2.151-.6-.05-.3-.1-.15-.05-.05-.151-.1h-.101M18.257 0h.2l.553.1.453.35q.452.45.452 1l-.452 1.15q-.453.4-1.005.4l-.804-.2-.252-.2-.452-.7v-.15l-.05-.3v-.1q.05-.5.502-.9l.252-.2q.251-.2.552-.25h.05m.453.85L18.458.8q-.352-.05-.553.2-.201.15-.201.45v.15l.15.45h.051l.05.05.201.1.302.05.553-.2.15-.6-.05-.3-.1-.15-.05-.05-.151-.1h-.101" style="stroke-width:1.0025" transform="matrix(2.0024 0 0 2 73.743 27)" id="gikopoipoi_eyes_open" fill-rule="evenodd"/><g id="gikopoipoi_eyes_closed" style="display:none" fill="none" stroke="#000" stroke-linecap="round" stroke-linejoin="round"><path d="M107.46 30.1h6.3" stroke-width="3"/><path d="M-.05 1.55H3.1" stroke-width="1.5" style="display:inline" transform="matrix(2 0 0 2 73.719 27)"/></g></svg>