<svg height="182" width="160" xmlns:xlink="http://www.w3.org/1999/xlink" xmlns="http://www.w3.org/2000/svg"><defs><linearGradient xlink:href="#a" id="c" x1="52.16" y1="82.432" x2="110.082" y2="83.281" gradientUnits="userSpaceOnUse" gradientTransform="matrix(1.00151 0 0 1 -1.244 2.548)"/><linearGradient id="a"><stop style="stop-color:#9f7635;stop-opacity:1" offset="0"/><stop style="stop-color:#d2ad65;stop-opacity:1" offset="1"/></linearGradient><linearGradient xlink:href="#a" id="b" x1="52.16" y1="82.432" x2="110.082" y2="83.281" gradientUnits="userSpaceOnUse" gradientTransform="matrix(1.00151 0 0 1 -.865 2.157)"/></defs><path d="m87.941 22 2.4 1.1 7.7-17.2 7.8 17.2 2.5-1.1 6.3 6.1 2.2 2.2-2.2-2.2 2.3 2.2h-.1l-.7.8.2.2c2.8 2.734 4.334 5.766 4.6 9.1l.1 1.2c0 2.2-.534 4.266-1.6 6.2l-.5.9-2.8 3.4.2.2-.6.6-6.5 1.8v9.4l-2.5.4-4 1 .376 2.11-5.376 2.89 6.7-2.5c2.266-.8 4.266-1.2 6-1.2 2.066 0-5.648 7.44-6.722 7.798-37.9 12.668 3.696.304 3.696 1.904 0 1.466 8.426-1.802 7.426-.802-1.4 1.4-4.134 2.234-8.2 2.5l-2.5.1.7 3 3-.1-.1 5.5-3 2.5v11.5l-5.232.44.246 2.582 9.086.078c.934.008 1.7.266 2.3.8.734.734 1.1 1.834 1.1 3.3 0 1.4-.366 2.466-1.1 3.2-.6.6-1.366.9-2.3.9h-13.2v3h-11.6c1.6 0 2.9-.534 3.9-1.6 1.2-1.2 1.8-3.034 1.8-5.5 0-2.534-.6-4.4-1.8-5.6-1.066-1.066-2.434-1.6-4.1-1.6h-13.2v3.1h13.1c.934 0 1.7.266 2.3.8.734.734 1.1 1.834 1.1 3.3 0 1.4-.366 2.466-1.1 3.2-.6.6-1.366.9-2.3.9h-13.1v3h-9l-6.5-6.5v-3.4l.9-.8c1-.8 1.9-1.834 2.7-3.1l-2.5-2-1.4 1.9.8-21.9 3.5-25.6.8.7 1.5-1.4-2-2.2c-2-2.534-3-5.3-3-8.3l.1-2c.466-3.066 2.1-5.9 4.9-8.5l-1.5-1.5 1-7.9 1.3.6 7.7-17.2 7.7 17.2 2.5-1.1h7.8m4 18.4v-7.3h7v16.3h-9.9c1.6-2.266 2.566-5.266 2.9-9m-2.7-2.2-.1 2.2c-.266 3.6-1.266 6.6-3 9h-1.9v6.5h2.7V52h14.5v3.9h2.7v-6.5h-2.4V30.5h-12.5v7.7m-9.22 27.68 3.01.432.81-2.312-4 .5-4 1-6.2 1.8 1.3 3.2 6.6-2.5 6-1.2c2.066 0 3.5.4 4.3 1.2 1.066 1.066 1.6 2.4 1.6 4 0 1.466-.5 2.7-1.5 3.7-1.4 1.4-4.1 2.234-8.1 2.5l-2.6.1.7 3c5.266-.066 9.2-1.1 11.8-3.1l.8-.7c1.334-1.334-4.148-3.728-4.148-6.194 0-2.4-1.72-2.6-3.188-4M65.041 54.8l1.5-3.1V49h-3v2.9h1.1l-1.1 2.9h1.5m4.3 0h1.5l1.5-3.1V49h-3v2.9h1.1l-1.1 2.9" fill="#fff" fill-rule="evenodd"/><path d="m108.341 22-2.5 1.1-7.8-17.2-7.7 17.2-2.4-1.1 10.1-22 10.3 22m-28.2 0-2.5 1.1-7.7-17.2-7.7 17.2-1.3-.6-1.1-.5 10.1-22 10.2 22m-20.2 8.4 1.5 1.5c-2.8 2.6-4.434 5.434-4.9 8.5l-.1 2c0 3 1 5.766 3 8.3l2 2.2-1.5 1.4-.8-.7-1.2-1.4c-2.4-2.934-3.6-6.2-3.6-9.8l.1-2c.466-3.734 2.3-7.066 5.5-10m-5.1 70.7 1.4-1.9 2.5 2c-.8 1.266-1.7 2.3-2.7 3.1l-.9.8a6.24 6.24 0 0 1-2.5.9h-.7c-1.266 0-3.034-.734-5.3-2.2l-3.8-1.3c-1.2 0-2.066.366-2.6 1.1l-1.2 1.9-2.7-1.5 2.4-3.3a5.308 5.308 0 0 1 3.9-1.6c1.466 0 2.966.534 4.5 1.6 2.2 1.134 3.9 1.7 5.1 1.7.866 0 1.734-.434 2.6-1.3m15.8 13.9v-3h13.1c.934 0 1.7-.3 2.3-.9.734-.734 1.1-1.8 1.1-3.2 0-1.466-.366-2.566-1.1-3.3-.6-.534-1.366-.8-2.3-.8h-13.1v-3.1h13.2c1.666 0 3.034.534 4.1 1.6 1.2 1.2 1.8 3.066 1.8 5.6 0 2.466-.6 4.3-1.8 5.5-1 1.066-2.3 1.6-3.9 1.6h-13.4m26.708-.156c0-1-1.634-.86.22-3.018l11.272.174c.934.014 1.7-.3 2.3-.9.734-.734 1.1-1.8 1.1-3.2 0-1.466-.366-2.566-1.1-3.3-.6-.534-1.366-.8-2.3-.8-4.4 0 .378-.078-10.678-.078l.74-2.988 10.038-.034c1.666-.006 3.034.534 4.1 1.6 1.2 1.2 1.8 3.066 1.8 5.6 0 2.466-.6 4.3-1.8 5.5-1.066 1.066-2.434 1.554-4.1 1.6m7.4-62.7-.2-.2 2.8-3.4.5-.9c1.066-1.934 1.6-4 1.6-6.2l-.1-1.2c-.266-3.334-1.8-6.366-4.6-9.1l-.2-.2.7-.8h.1l.6-.7c3.4 3.134 5.234 6.734 5.5 10.8l.1 1.2c0 2.534-.6 4.9-1.8 7.1-.934 1.666-2.2 3.266-3.8 4.8l-1.2-1.2m-27.1-14.1v-7.7h12.5v18.9h2.4v6.5h-2.7V52h-14.5v3.9h-2.7v-6.5h1.9c1.734-2.4 2.734-5.4 3-9l.1-2.2m2.7 2.2c-.334 3.734-1.3 6.734-2.9 9h9.9V33.1h-7v7.3M79.473 66.32c1.468 1.4 6.262 2.366 6.262 4.766 0 2.468 6.14 5.08 4.806 6.414l-.8.7c-2.6 2-6.534 3.034-11.8 3.1l-.7-3 2.6-.1c4-.266 6.7-1.1 8.1-2.5 1-1 1.5-2.234 1.5-3.7 0-1.6-.534-2.934-1.6-4-.8-.8-2.234-1.2-4.3-1.2l-6 1.2-6.6 2.5-1.3-3.2 6.2-1.8 4-1 4-.5-4.708 1.652 2.48.668M69.341 54.8l1.1-2.9h-1.1V49h3v2.7l-1.5 3.1h-1.5m-4.3 0h-1.5l1.1-2.9h-1.1V49h3v2.7l-1.5 3.1" fill-rule="evenodd"/><path d="M104.741 100.7V89.2m12.1-58.9-2.2-2.2m-26.7-6.1h-7.8" fill="none" stroke="#000" stroke-linecap="round" stroke-linejoin="round" stroke-width="2"/><path style="fill:url(#b);fill-opacity:1;stroke:#d2ad65;stroke-width:0;stroke-miterlimit:4;stroke-dasharray:none;stroke-opacity:1" d="M77.257 101.646c-8.706 1.021-6.86-7.141-15.755 11.466-1.185 2.48-7.104 2.456-8.07 2.58-5.099.657-4.298-.776-3.936-4.772.287-3.18.856-6.314.606-7.729-.446-2.522-.568-4.565-.57-9.55-.003-4.92.066-6.315.503-10.154.811-7.129 2.555-15.34 5.326-25.082l1.02-3.595c.096-.347.213-.631.26-.631.045 0 1.702-2.42 1.802-2.223.1.196 2.71 1.817 3.084 2.36 13.908-8.295-2.83 3.07-2.525 3.705.635 1.322.116-5.626.864-5.253.47.235 2.403 2.313 3.254 2.255 1.293-.089.603-.172 2.928-1.113 2.425-.981 2.273-.315 3.931-.66.726-.152 1.849.472 2.26.38.684-.154 3.361 2.563 3.709 2.728.86.408 2.247 2.283 2.354 4.572.094 2.017.779 1.642 1.58 3.744.509 1.338-1.948 3.4-1.392 3.933l.32.305.393-.3c.216-.164.393-.34.393-.392 0-.051-2.682-.332-2.941-.623-.502-.564 1.429-1.808.908-3.603-.374-1.289-.493-2.103-.496-3.394-.004-1.858-.392-2.993-1.306-3.818-.79-.712-1.274-.747-3.42-.25-.635.147-1.625.374-2.2.504-.574.13-1.835.56-2.802.954-3.045 1.24-4.81 1.722-5.592 1.526-.578-.145-1.161-.823-1.742-2.026a22.764 22.764 0 0 0-1.344-2.319c-1.263-1.875-2.705-3.956-3.386-6.229-.135-.452-.36-1.51-.62-2.09-.258-.578-.298-1.368-.397-1.707-.175-.6-.522-2.24-.398-2.364.179-.178 3.661.951 7.002 2.262 1.3.51 5.14 2.437 7.136 3.263 1.995.826 4.842 1.435 6.111 1.945 4.038 1.623 4.7 2.11 6.174 4.43 1.4 2.202 2.732 4.982 6.5 10.125 3.509 4.791 5.088 7.016 6.169 8.692.889 1.38.8 1.277.96 1.118.194-.193.306-.158.306.097 0 .184.047.213.247.152.887-.268 1.02-1.093 1.653-2.623.664-1.603.979-2.089 1.859-3.043 1.33-1.443 2.15-2.297 3.066-5.91.847-3.343 1.432-5.573 2.548-7.02.74-.96 1.941-2.215 2.881-2.75 1.38-.785 2.735-1.072 5.271-1.378 3.15-.38 6.024-.955 8.01-2.208.373-.234.421-.244.367-.07-.035.11-.161.668-.28 1.242-.406 1.946-.58 3.715-.596 6.062l-.015 2.276-.305.304c-.276.275-.392.308-1.21.34-.574.024-1.39-.046-2.235-.192-2.235-.383-3.318-.29-4.825.415-2.746 1.282-4.534 3.412-8.356 9.95-.953 1.63-2.131 3.551-2.618 4.269-1.072 1.581-2.575 3.199-3.236 3.482-.257.11-.467.252-.467.317 0 .22.319.878.425.878.421 0-.289-2.905.508-3.708 1.218-1.227.963-1.1 2.546-3.756.738-1.238 1.426-3.406 2.067-4.483 2.529-4.249 10.639-11.337 13.053-12.35.599-.252-1.14 1.632-.186 1.64 3.459-4.66 3.834-1.061 3.702-.327l-.91 5.043-.2.447c-.36.802-1.114 1.181-3.461 1.742-.886.212-1.795.461-2.02.554-.968.403-.74 1.207-1.028 2.091-.116.356-.767 2.662-1.334 2.822-2.064.581-3.393.758-3.998 3.15-.254 1.004-1.24 2.693-.985 3.623.345 1.258 1.008 2.374 1.987 3.348.71.706 1.883 1.555 2.387 1.727.047.016.136 1.046.198 2.289.132 2.646-.461 4.132 2.2 7.209 2.607 3.012 1.593 8.175 1.543 10.794.938 1.594-13.653-1.99-13.92-.497-1.451 8.11-.942 13.185-1.104 14-2.914.033-2.554 1.359-3.413-.249-.185-.346-7.026 1.068-5.732-.794.277-.398 1.003-3.411.995-3.904-.06-3.84.194-9.405-12.04-7.97z" transform="translate(.32 -1.088)"/><path style="fill:#fff;fill-opacity:1;stroke-width:.310297" d="M107.815 81.824c-1.035-.325-1.415-.54-2.162-1.224-.878-.803-1.744-2.204-1.983-3.208a14.6 14.6 0 0 0-.32-1.067c-.12-.358-.22-1.164-.22-1.79 0-1.226.341-2.112 1.18-3.068.469-.535 2.64-1.593 3.85-1.876 1.89-.833 4.431.212 5.702 1.816.371.472.85 1.067 1.066 1.322.338.402.414.71.556 2.262.195 2.127-.021 3.162-.92 4.417-.658.919-1.456 1.747-1.684 1.748-.092 0-.606.2-1.143.443-1.436.652-2.39.706-3.922.225z" transform="translate(.32 -1.088)"/><path style="fill:url(#c);fill-opacity:1;stroke:#d2ad65;stroke-width:0;stroke-miterlimit:4;stroke-dasharray:none;stroke-opacity:1" d="M53.695 43.164c-.119-.016-.192-.014-.215.008-.123.124.224 1.764.399 2.363.099.339.14 1.13.398 1.71.26.578.484 1.636.62 2.09.45 1.508 1.245 2.922 2.093 4.257-.345.47-.71.979-.728.979-.046 0-.163.283-.26.63-.097.348-.556 1.964-1.02 3.594-2.77 9.742-4.514 17.955-5.326 25.084-.283 2.492-.404 4.014-.459 6.08h60.149c-.696-2.952-.88-4.172-.996-6.51-.062-1.242-.152-2.273-.2-2.289-.503-.172-1.676-1.021-2.386-1.728-.98-.974-1.641-2.09-1.987-3.348-.255-.93.73-2.617.985-3.62.605-2.393 1.934-2.57 3.998-3.151.567-.16 1.218-2.467 1.334-2.823.288-.884.06-1.69 1.03-2.091.224-.094 1.133-.342 2.019-.553 2.347-.56 3.099-.942 3.459-1.744l.2-.446.216-1.187c.1 0 .228.013.318.01.818-.033.933-.065 1.209-.34l.305-.305.015-2.275c.016-2.348.19-4.117.596-6.063.12-.573.245-1.132.28-1.242.054-.173.006-.164-.366.07-1.987 1.253-4.86 1.827-8.01 2.207-2.537.307-3.892.594-5.271 1.38-.94.534-2.141 1.79-2.881 2.75-1.116 1.447-1.701 3.675-2.549 7.019-.916 3.612-1.736 4.467-3.066 5.91-.88.954-1.194 1.44-1.858 3.043-.633 1.53-.768 2.355-1.654 2.623-.201.06-.246.032-.246-.152 0-.255-.113-.29-.307-.096-.159.159-.071.26-.96-1.12-1.082-1.675-2.66-3.899-6.17-8.69-3.767-5.143-5.099-7.925-6.499-10.127-1.474-2.32-2.136-2.805-6.174-4.428-1.27-.51-4.116-1.12-6.11-1.946-1.996-.826-5.836-2.754-7.136-3.263-2.923-1.147-5.957-2.155-6.789-2.27Zm5.229 14.846c-.052.504-.135.747-.301.402-.026-.054.107-.21.3-.402zm19.21 10.426c.521.078 1.083.155 1.083.176 0 .05-.176.227-.393.392l-.394.299-.319-.305c-.123-.118-.083-.32.024-.562zm18.012 9.92c.028.673.058 1.242-.123 1.242-.106 0-.425-.659-.425-.879 0-.064.211-.208.468-.318.024-.01.055-.032.08-.045z" transform="translate(.32 -1.088)"/><path style="fill:none;stroke:#000;stroke-width:2;stroke-linecap:butt;stroke-linejoin:miter;stroke-miterlimit:4;stroke-dasharray:none;stroke-opacity:1" d="M53.38 42.948c6.065 1.42 11.722 4.163 17.493 6.42 2.728 1.396 6.062 1.949 8.14 4.126 4.066 6.804 8.807 12.18 12.605 18.361 3.227 2.85 3.461 7.205 5.997 10.468 1.388 4.17 4.54 5.324 3.16 9.798" transform="translate(.32 -1.088)"/><path style="fill:none;stroke:#000;stroke-width:2;stroke-linecap:butt;stroke-linejoin:miter;stroke-miterlimit:4;stroke-dasharray:none;stroke-opacity:1" d="M53.38 42.948c-.704 1.845.331 3.7 1.086 5.345.862 2.973 2.042 5.903 3.958 8.363.82 1.334 1.153 3.302 2.86 3.808 3.425.143 6.226-2.272 9.537-2.727 1.114-.122 2.168-.652 3.288-.636 1.554.306 2.03 2.148 2.077 3.518-.236 2.242.55 4.408 1.355 6.45.146.773.835 1.24 1.269 1.843" transform="translate(.32 -1.088)"/><path style="fill:none;stroke:#000;stroke-width:2;stroke-linecap:butt;stroke-linejoin:miter;stroke-miterlimit:4;stroke-dasharray:none;stroke-opacity:1" d="M56.159 52.84c.333 3.294-2.066 9.043-2.947 13.595-1.512 7.81-2.69 14.32-4.015 23.524m32.854 1.326c.092 5.696 8.688 4.966 8.987-.636-.225-4.858-9.062-5.75-8.987.636zm2.662-12.023c.465.828 1.3 2.105 1.78 2.923.209.353 2.308 2.474 2.64 2.64.998.498 1.896 1.188 2.794 1.862.546.41 1.295.553 1.863.932.737.49 1.471 1.084 2.173 1.552.831.554 3.237 2.09 4.192 2.329.215.054.62.414.62.62m20.182-43.777c-3.238 2.995-7.475 3.821-11.627 4.21-4.18.73-7.177 3.943-8.357 7.9-1.277 3.381-1.142 7.078-4.044 9.694-1.394 1.338-1.124 3.966-3.139 4.587" transform="translate(.32 -1.088)"/><path style="fill:none;stroke:#000;stroke-width:2;stroke-linecap:butt;stroke-linejoin:miter;stroke-miterlimit:4;stroke-dasharray:none;stroke-opacity:1" d="M120.957 48.343c-1.197 2.548-1.862 7.602-1.528 10.366.202 3.934-6.921.477-9.218.567-7.634.82-8.07 15.289-13.546 19.446l-.438.192-.458.167" transform="translate(.32 -1.088)"/><path style="fill:none;stroke:#000;stroke-width:2;stroke-linecap:butt;stroke-linejoin:miter;stroke-miterlimit:4;stroke-dasharray:none;stroke-opacity:1" d="M117.309 61.073c.11 3.116-3.688 2.987-5.807 3.73-1.075.342-2.124 3.284-2.151 4.453" transform="translate(.32 -1.088)"/><path style="fill:#fff;fill-opacity:1;stroke-width:.330223" d="M78.873 79.872c-1.363-.326-2.367-.796-2.97-1.387-.933-.917-1.11-1.402-1.11-3.03.001-1.362.048-1.571.62-2.748.714-1.473 1.96-2.8 3.163-3.37 2.1-.995 6.282-1.284 7.959-.552 1.332.582 2 1.649 1.996 3.186-.004 2.018-.901 3.985-2.566 5.629-2.15 2.123-4.531 2.886-7.092 2.272z" transform="translate(.32 -1.088)"/><path style="fill:none;stroke:#000;stroke-width:2;stroke-linecap:butt;stroke-linejoin:miter;stroke-miterlimit:4;stroke-dasharray:none;stroke-opacity:1" d="M78.81 68.912c-2.727 1.265-4.445 4.386-4.127 7.362.21 1.514 1.27 2.877 2.727 3.375 1.73.76 3.746.985 5.543.318 3.419-1.166 5.943-4.699 5.747-8.333-.057-1.26-.783-2.472-1.942-3.01-1.73-.812-3.734-.677-5.566-.347-.808.155-1.603.372-2.382.635zm29.946.683c5.232-.844 8.843 6.597 4.957 10.237-3.722 3.815-10.277.05-9.695-5.018.112-2.565 2.075-5.09 4.738-5.22zm-10.317 31.558c4.67.218 9.365-.277 14.032-.092" transform="translate(.32 -1.088)"/><path style="fill:none;stroke:#000;stroke-width:2;stroke-linecap:butt;stroke-linejoin:miter;stroke-miterlimit:4;stroke-dasharray:none;stroke-opacity:1" d="M109.624 88.8c.762.887 1.56 1.812 1.842 2.98.403 1.128.86 2.237 1.272 3.362-.057 1.007-.21 2.012-.08 3.021.125.986-.242 1.917-.187 2.898m-3.681-20.294c-.12.839.16 1.676.027 2.506.137.868.205 1.734.21 2.613.044.865.591 1.6.598 2.472.054.907-.095-.58-.31-.584M99.28 100.829c-1.999 2.145-1.714 4.686-2.231 7.923-.405 2.535 1.245 6.167-1.755 5.935-2.921-.322-1.774-.194-2.921-.322-1.427-.158-3.244-.604-4.438-.07-.419-.146-1.166-1.174-1.079-1.591" transform="translate(.32 -1.088)"/><path style="fill:none;stroke:#000;stroke-width:2;stroke-linecap:butt;stroke-linejoin:miter;stroke-miterlimit:4;stroke-dasharray:none;stroke-opacity:1" d="M49.437 88.268c.152 7.276 1.112 16.314-.24 23.546-.127 2.28 2.216 3.619 4.257 3.402 2.164-.051 4.202-.818 6.308-1.15 2.46-.852 3.37-3.412 4.217-5.619 1.162-2.361 2.4-4.708 3.82-6.922 2.408-2.715 7.87-1.295 11.113-1.408 4.164-.113 6.384 1.92 7.166 2.183"/><path d="M1.357 0h.2l.554.1.452.35q.452.45.452 1L2.563 2.6Q2.11 3 1.558 3l-.804-.2-.252-.2-.452-.7v-.15L0 1.45v-.1q.05-.5.502-.9l.252-.2q.251-.2.552-.25h.05m.453.85L1.558.8q-.352-.05-.553.2-.201.15-.201.45v.15l.15.45h.051l.05.05.201.1.302.05.552-.2.151-.6-.05-.3-.1-.15-.05-.05-.151-.1h-.101M18.257 0h.2l.553.1.453.35q.452.45.452 1l-.452 1.15q-.453.4-1.005.4l-.804-.2-.252-.2-.452-.7v-.15l-.05-.3v-.1q.05-.5.502-.9l.252-.2q.251-.2.552-.25h.05m.453.85L18.458.8q-.352-.05-.553.2-.201.15-.201.45v.15l.15.45h.051l.05.05.201.1.302.05.553-.2.15-.6-.05-.3-.1-.15-.05-.05-.151-.1h-.101" style="stroke-width:1.0025" transform="matrix(2.0024 0 0 2 73.743 27)" id="gikopoipoi_eyes_open" fill-rule="evenodd"/><g id="gikopoipoi_eyes_closed" style="display:none" fill="none" stroke="#000" stroke-linecap="round" stroke-linejoin="round"><path d="M107.46 30.1h6.3" stroke-width="3"/><path d="M-.05 1.55H3.1" stroke-width="1.5" style="display:inline" transform="matrix(2 0 0 2 73.719 27)"/></g></svg>