<svg height="195" width="160" xmlns:xlink="http://www.w3.org/1999/xlink" xmlns="http://www.w3.org/2000/svg"><defs><linearGradient gradientTransform="matrix(-.0157 -.0091 .0025 -.0044 -107.85 7.65)" gradientUnits="userSpaceOnUse" id="a" spreadMethod="pad" x1="-819.2" x2="819.2"><stop offset=".204" stop-color="#ccc"/><stop offset=".804" stop-color="#e7e7e7"/><stop offset="1" stop-color="#fff"/></linearGradient><linearGradient gradientTransform="matrix(.0283 0 0 .0102 -104.45 -.65)" gradientUnits="userSpaceOnUse" id="b" spreadMethod="pad" x1="-819.2" x2="819.2"><stop offset=".004" stop-color="#fff"/><stop offset=".18" stop-color="#d10101"/><stop offset=".557" stop-color="#fe3636"/><stop offset=".906" stop-color="#fff"/></linearGradient><linearGradient xlink:href="#a" id="d" gradientUnits="userSpaceOnUse" gradientTransform="matrix(-.0157 -.0091 .0025 -.0044 -107.85 7.65)" x1="-819.2" x2="819.2" spreadMethod="pad"/><linearGradient xlink:href="#b" id="e" gradientUnits="userSpaceOnUse" gradientTransform="matrix(.0283 0 0 .0102 -104.45 -.65)" x1="-819.2" x2="819.2" spreadMethod="pad"/><radialGradient cx="0" cy="0" gradientTransform="translate(2.6 -.2) scale(.0086)" gradientUnits="userSpaceOnUse" id="c" r="819.2" spreadMethod="pad"><stop offset=".204" stop-color="#ccc"/><stop offset=".757" stop-color="#e7e7e7"/><stop offset="1" stop-color="#fff"/></radialGradient><radialGradient xlink:href="#c" id="f" gradientUnits="userSpaceOnUse" gradientTransform="translate(2.6 -.2) scale(.0086)" cx="0" cy="0" r="819.2" spreadMethod="pad"/></defs><g transform="matrix(2 0 0 2 79.441 155)"><path d="m4.25-60 1.2.55 3.85-8.6 3.9 8.6 1.25-.55 3.15 3.05 1.1 1.1-.35.4.1.1c1.4 1.367 2.167 2.883 2.3 4.55l.05.6c0 1.1-.267 2.133-.8 3.1l-.25.45-1.4 1.7.1.1-.3.3-3.25.9v4.7l-3.25.7-3.15.9.65 1.6L12.5-37c1.133-.4 2.133-.6 3-.6 1.033 0 1.75.2 2.15.6.533.533.8 1.2.8 2 0 .733-.25 1.35-.75 1.85-.7.7-2.067 1.117-4.1 1.25l-1.25.05.35 1.5 1.5-.05-.05 2.75-1.5 1.25v6.75H8.1v1.55h6.6c.467 0 .85.133 1.15.4.367.367.55.917.55 1.65 0 .7-.183 1.233-.55 1.6-.3.3-.683.45-1.15.45H8.1v.95H.5l-3.55 3.5V-3c0 .467-.15.85-.45 1.15-.367.367-.9.55-1.6.55-.733 0-1.283-.183-1.65-.55-.267-.3-.4-.683-.4-1.15v-6.55H-8.7l-1.7-1.1-1.75-3.9v-3.9l.45-.4c.5-.4.95-.917 1.35-1.55l-1.25-1-.7.95.4-10.95 1.75-12.8.4.35.75-.7-1-1.1c-1-1.267-1.5-2.65-1.5-4.15l.05-1c.233-1.533 1.05-2.95 2.45-4.25l-.75-.75.5-3.95.65.3 3.85-8.6 3.85 8.6L.35-60h3.9" fill="#fff" fill-rule="evenodd"/><path d="m14.45-60-1.25.55-3.9-8.6-3.85 8.6-1.2-.55L9.3-71l5.15 11M.35-60l-1.25.55-3.85-8.6-3.85 8.6-.65-.3-.55-.25 5.05-11 5.1 11m-10.1 4.2.75.75c-1.4 1.3-2.217 2.717-2.45 4.25l-.05 1c0 1.5.5 2.883 1.5 4.15l1 1.1-.75.7-.4-.35-.6-.7c-1.2-1.467-1.8-3.1-1.8-4.9l.05-1c.233-1.867 1.15-3.533 2.75-5m-2.55 35.35.7-.95 1.25 1c-.4.633-.85 1.15-1.35 1.55l-.45.4c-.467.3-1 .45-1.6.45-.633 0-1.517-.367-2.65-1.1l-1.9-.65c-.6 0-1.033.183-1.3.55l-.6.95-1.35-.75 1.2-1.65a2.654 2.654 0 0 1 1.95-.8c.733 0 1.483.267 2.25.8 1.1.567 1.95.85 2.55.85.433 0 .867-.217 1.3-.65m3.6 10.9h1.55V-3c0 .467.133.85.4 1.15.367.367.917.55 1.65.55.7 0 1.233-.183 1.6-.55.3-.3.45-.683.45-1.15v-6.55h1.5v6.6c0 .833-.267 1.517-.8 2.05-.6.6-1.517.9-2.75.9-1.267 0-2.2-.3-2.8-.9-.533-.533-.8-1.217-.8-2.05v-6.6m16.8-3.5V-14h6.6c.467 0 .85-.15 1.15-.45.367-.367.55-.9.55-1.6 0-.733-.183-1.283-.55-1.65-.3-.267-.683-.4-1.15-.4H8.1v-1.55h6.65c.833 0 1.517.267 2.05.8.6.6.9 1.533.9 2.8 0 1.233-.3 2.15-.9 2.75l-.3.25c-.5.367-1.083.55-1.75.55H8.1v-.55m6.1-17.35-1.5.05-.35-1.5 1.25-.05c2.033-.133 3.4-.55 4.1-1.25.5-.5.75-1.117.75-1.85 0-.8-.267-1.467-.8-2-.4-.4-1.117-.6-2.15-.6-.867 0-1.867.2-3 .6l-3.35 1.25-.65-1.6 3.15-.9 3.25-.7.75-.05c1.467 0 2.55.35 3.25 1.05.733.7 1.1 1.65 1.1 2.85 0 1.233-.333 2.183-1 2.85l-.4.35c-1.067.8-2.533 1.3-4.4 1.5m4.25-14.45-.1-.1 1.4-1.7.25-.45c.533-.967.8-2 .8-3.1l-.05-.6c-.133-1.667-.9-3.183-2.3-4.55l-.1-.1.35-.4h.05l.3-.35c1.7 1.567 2.617 3.367 2.75 5.4l.05.6c0 1.267-.3 2.45-.9 3.55-.467.833-1.1 1.633-1.9 2.4l-.6-.6" fill="#333" fill-rule="evenodd"/><path d="m18.7-55.85-1.1-1.1 1.15 1.1h-.05" fill="red" fill-rule="evenodd"/><path d="M4.25-60H.35m12.3 40.35v-6.75m6.05-29.45-1.1-1.1" fill="none" stroke="#333" stroke-linecap="round" stroke-linejoin="round"/><path d="m14.402-50.2-2.002 2 1.852 1.8M12.4-48.2v-.05 2.5m0-2.45-1.852 1.8m-.15-3.8 2.002 1.95v-2.95" fill="none" stroke="#fea5c0" stroke-linecap="round" stroke-linejoin="round" style="stroke-width:1.0006"/><path d="m-122.15 3.55 29.2 4.2q.95 1.6-.55 4.05-14.6-4-29.2-4.25l.5-4h.05-.05.05" fill="url(#a)" fill-rule="evenodd" transform="matrix(-1.001 0 0 .9977 -105.445 -66.35)" style="fill:url(#d)"/><path d="M-122.15 3.55Q-114.6-5.5-100.5-9q5.75 1.3 13.75 8.8h-9.2l3 7.95-29.2-4.2" fill="url(#b)" fill-rule="evenodd" transform="matrix(-1.001 0 0 .9977 -105.445 -66.35)" style="fill:url(#e)"/><path d="m-122.15 3.55 29.2 4.2q.95 1.6-.55 4.05-14.6-4-29.2-4.25l.5-4h.05m0 0h-.05" fill="none" stroke="#fff" stroke-linecap="round" stroke-linejoin="round" transform="matrix(-1.001 0 0 .9977 -105.445 -66.35)"/><path d="m-92.95 7.75-3-7.95h9.2q-8-7.5-13.75-8.8-14.1 3.5-21.65 12.55z" fill="none" stroke="red" stroke-linecap="round" stroke-linejoin="round" transform="matrix(-1.001 0 0 .9977 -105.445 -66.35)"/><g fill-rule="evenodd"><path d="M4.9-4.95Q7-2.9 7 0q0 2.9-2.1 4.9Q2.9 7 0 7q-2.9 0-4.95-2.1Q-7 2.9-7 0q0-2.9 2.05-4.95Q-2.9-7 0-7q2.9 0 4.9 2.05" fill="url(#c)" transform="matrix(-1.001 0 0 .9977 -19.76 -68.993)" style="fill:url(#f)"/><path d="M-20.21-76.476q-.5-.2-.8.3-.301.498.15.747l.6-.05h.1q.45.3.75-.249.301-.598-.15-.748l-.5.05-.15-.05m-1.351.15q-.5-.25-.851.349-.3.598.15.898.4.299.8-.35.351-.648-.1-.897m-1.551.848q-.45-.35-.8.2-.401.498.15.797.55.3.8-.2.3-.498-.15-.797m-3.904 3.292q-.25.499.2.698.45.3.751-.249.3-.599-.15-.748-.45-.15-.8.299m2.151-1.097q.3-.55-.2-.849-.45-.349-.85.25-.351.499.2.848.6.35.85-.25m-1.401 3.443q.35-.599-.1-.848-.45-.3-.751.299-.35.549.05.898.45.25.8-.35m.251 2.345q.35-.648-.25-1.097-.55-.4-1.051.299-.5.649.25 1.048.7.399 1.051-.25m-.65.798q-.2.35.15.55.3.199.45-.15.2-.3-.1-.5l-.5.1m1.601 1.397q-.55-.2-.8.3-.351.498.15.748.45.299.8-.3.3-.598-.15-.748m3.754 3.542q.55.3.85-.2.2-.548-.2-.848-.5-.299-.85.2t.2.848m-1.902-.35q.65.4.95-.199.351-.598-.2-.997-.5-.35-.95.249-.45.648.2.948m-.65-1.247q.2-.35-.05-.55-.301-.149-.501.2-.2.35.1.55.25.149.45-.2m5.906-12.073q.3.2.5-.1l-.15-.548-.45.15q-.25.299.1.498m1.652.749q.5.3.8-.2.25-.449-.15-.798-.45-.25-.8.2-.4.498.15.798m.65.399q-.35.598.15.948.451.349.801-.35.4-.648-.1-.947-.45-.25-.85.349m1.4 1.596q.301.2.501-.2.15-.398-.1-.448-.35-.1-.5.2-.2.249.1.448m.65 1.148q-.45.648.25.997.701.4 1.002-.25.3-.648-.25-.997-.551-.35-1.001.25m.35 1.646q-.45.598.2.948.6.349.951-.2.3-.599-.2-.998-.55-.349-.951.25m.8 2.594q.351-.649-.1-.948-.5-.25-.85.35-.3.598.15.947.4.25.8-.35m-2.452 2.445q-.35.549.2.848.551.3.851-.2.2-.548-.2-.847-.5-.3-.85.2m.7-.45q.6.35.95-.399.401-.748-.2-.948-.6-.2-.95.4-.4.548.2.947m-1.051 1.347q-.6-.449-1.101.25-.5.698.2 1.147.75.399 1.101-.3.4-.648-.2-1.097m-4.104 2.245q.3.15.45-.2.2-.349-.1-.399-.25-.15-.45.15-.2.25.1.449m2.002 0q.45.25.75-.3.35-.598-.05-.848-.45-.249-.8.3-.3.549.1.848" fill="#fff"/></g><path d="M15.595-56.7h.201l.554.1.453.35q.453.45.453 1l-.453 1.15q-.453.4-1.006.4l-.805-.2-.252-.2-.452-.7v-.15l-.051-.3v-.1q.05-.5.503-.9l.252-.2q.251-.2.553-.25h.05m.453.85-.251-.05q-.352-.05-.554.2-.201.15-.201.45v.15l.151.45h.05l.05.05.202.1.302.05.553-.2.151-.6-.05-.3-.101-.15-.05-.05-.151-.1h-.101" fill-rule="evenodd" id="gikopoipoi_eyes_open" style="stroke-width:1.0031"/><path d="M14.175-55.15h3.15" stroke-width="1.5" id="gikopoipoi_eyes_closed" style="display:none" fill="none" stroke="#000" stroke-linecap="round" stroke-linejoin="round"/></g></svg>