<svg xmlns="http://www.w3.org/2000/svg" height="182" width="160"><g style="clip-rule:evenodd;fill-rule:evenodd;stroke-linecap:round;stroke-linejoin:round;stroke-miterlimit:1.5"><path d="M70.743 12.385 44.237 40.267l-3.269 6.345-.201 6.162 3.653 6.708s5.71 4.667 7 6.473c.857 1.201.739 4.363.739 4.363s-2.526 22.612 2.18 39.227c.18.634.386 1.243.61 1.832 1.167 3.065-8.536 8.071-7.541 10.407.526 1.236.346 5.666 1.417 6.645 0 0 1.026 1.911 5.385 1.599 4.879-.35 8.775-5.829 10.836-9.134 1.018-1.633 7.643-6.41 9.252-5.847 1.503.526 2.979 6.623 5.656 7.302 1.107.28 3.593 2.609 7.462 1.636 0 0-2.973 16.039 5.405 17.418 8.379 1.379 7.402-16.784 7.402-16.784s17.057-11.346 10.269-57.271c0 0 14.425-4.242 14.531-17.606 0 0 1.06-3.381-4.349-11.866L93.735 11.148l-5.94.955-11.348 1.061z" style="fill:#fff" transform="translate(.913 .934)"/><path style="stroke:#000;stroke-width:2.52px" d="M71.851 13.695h20.736v21.056H71.851z" transform="matrix(.96715 0 0 1 4.302 -.731)"/><path d="M121.008 39.103s10.752 13.568-.192 22.72m-25.92-48.64 22.72 22.4m-73.28 2.944s-12.608 14.272.064 23.744m26.56-49.28L48.176 36.159" style="fill:none;stroke:#000;stroke-width:2.52px" transform="matrix(.96715 0 0 1 4.302 -.731)"/><path d="M88.683 39.743s3.84-.896 3.648 3.584" style="fill:none;stroke:#000;stroke-width:2.52px" transform="matrix(-.96715 0 0 1 194.512 -2.883)"/><path d="m71.865 47.103 7.986.512m-6.144 11.328 6.464-11.392-.128-5.184" style="fill:none;stroke:#000;stroke-width:2.52px" transform="matrix(-.96715 0 0 1 193.544 -1.883)"/><path d="M54.171 123.945s-3.046 16.089 5.978 17.357c0 0 7.936.821 6.464-17.099" style="fill:none;stroke:#000;stroke-width:2.52px" transform="translate(33.913 .934)"/><path d="M55.96 110.874s-13.978 10.547-6.912 17.05c0 0 5.529 6.809 15.462-7.987" style="fill:none;stroke:#000;stroke-width:2.5px" transform="translate(1.064 1.282)"/><path d="M77.714 110.569s1.703 12.544 13.85 9.638" style="fill:none;stroke:#000;stroke-width:2.5px" transform="translate(-1.936 4.282)"/><path d="M69.241 11.673s-32.428 26.143-31.143 36C39.384 57.53 51.67 70.102 51.67 70.102l1.143 7.143s-1.715 21.714.285 29.143c0 0 1.572 12.142 6 12 0 0-2.571 7.714 5.286 8.857 0 0 14.857 3 17.714-7.143l5.572 1.714s-3.714 19.572 5.143 19.286c0 0 7.428.857 7-16.572 0 0 12.714-8.359 10.714-57.142 0 0 16.429-6.498 14.571-20.355 0 0 1-7.429-21.285-25.858l-10-10.428-6.429.857-10.428-.429z" style="fill:none" transform="translate(1.064 1.282)"/></g></svg>