<svg xmlns="http://www.w3.org/2000/svg" height="182" width="160"><g style="clip-rule:evenodd;fill-rule:evenodd;stroke-linecap:round;stroke-linejoin:round;stroke-miterlimit:1.5"><path d="m71.616 11.368-27.84 27.52s-8.72 9.28-.32 21.2c0 0 4.16 5.04 9.36 6.88 0 0-1.6 24.4-.48 27.04 1.12 2.64-.64 15.12 10.08 20.72 0 0 5.76 4.96 12.96 2.32l4.08 2.72 2.64 1.92 5.68.88-.4 7.36 2 7.84 4.96 2.56 4.32-1.68 2.16-7.6-.24-6.88s12.48-8.64 12.56-52.72c0 0 .08-4.08 2.4-5.44 0 0 6.96-4.4 10.08-9.76 0 0 4.48-10.32-2.96-19.2l-26.64-25.84-7.52.48-8.56 1.68-8.32-2" style="fill:#fff" transform="translate(.634 1.269)"/><path d="M74.496 112.328s2 11.84 13.28 9.84c0 0-3.28 18.56 6 18.32 0 0 7.76 1.92 6.48-16.8" style="fill:none;stroke:#000;stroke-width:2.5px" transform="translate(.634 1.269)"/><path style="stroke:#000;stroke-width:2.52px" d="M71.851 13.695h20.736v21.056H71.851z" transform="translate(1.634 -.731)"/><path d="M121.008 39.103s10.752 13.568-.192 22.72m-25.92-48.64 22.72 22.4m-73.28 2.944s-12.608 14.272.064 23.744m26.56-49.28L48.176 36.159" style="fill:none;stroke:#000;stroke-width:2.52px" transform="translate(1.634 -.731)"/><path d="M88.683 39.743s3.84-.896 3.648 3.584" style="fill:none;stroke:#000;stroke-width:2.52px" transform="matrix(-1 0 0 1 199.304 -.883)"/><path d="m71.865 47.103 7.986.512m-6.144 11.328 6.464-11.392-.128-5.184" style="fill:none;stroke:#000;stroke-width:2.52px" transform="matrix(-1 0 0 1 198.304 .117)"/></g></svg>