<svg xmlns="http://www.w3.org/2000/svg" height="182" width="160"><g style="clip-rule:evenodd;fill-rule:evenodd;stroke-linecap:round;stroke-linejoin:round;stroke-miterlimit:1.5"><path d="M110.684 81.265s1.997 15.872-3.84 16.486" style="fill:none;stroke:#000;stroke-width:2.5px" transform="translate(6.634 4.269)"/><path d="m45.688 36.208-5.376 11.878.87 6.349 4.506 5.53s3.072 3.993 7.629 5.222c0 0-1.895 30.054-3.584 33.126 0 0 .665 8.756 2.099 10.189 0 0 1.792 4.403 7.065 7.475l18.688-.358 6.708-.461 13.568.41 9.062-.973 6.4-2.202 1.382-4.198-1.075-4.096-4.864-1.485-1.075-.87s5.274-3.532 2.458-26.727l-1.024-9.933s10.598-1.741 14.95-6.503c0 0 4.608-6.144 3.84-11.98-.768-5.837-4.71-10.189-4.71-10.189L96.632 10.249l-3.226.307-6.707 3.635-10.752-1.946-3.584-1.945-23.04 22.425Z" style="fill:#fff" transform="translate(5.634 6.269)"/><path d="M73.643 102.307s16.845-2.15 16.845 6.298c0 0 1.689 8.652-17.255 6.195" style="fill:none;stroke:#000;stroke-width:2.5px" transform="translate(5.634 6.269)"/><path style="stroke:#000;stroke-width:2.52px" d="M71.851 13.695h20.736v21.056H71.851z" transform="translate(7.634 3.269)"/><path d="M121.008 39.103s10.752 13.568-.192 22.72m-25.92-48.64 22.72 22.4m-73.28 2.944s-12.608 14.272.064 23.744m26.56-49.28L48.176 36.159" style="fill:none;stroke:#000;stroke-width:2.52px" transform="translate(7.634 3.269)"/><path d="m66.987 47.103 12.864.512m-12.8-5.248-.32 4.928 6.976 11.648 6.464-11.392-.128-5.184m8.64-2.624s3.84-.896 3.648 3.584m-34.304-4.48s-4.416-.96-3.84 3.072" style="fill:none;stroke:#000;stroke-width:2.52px" transform="matrix(-1 0 0 1 167.304 4.117)"/><path d="M97.502 101.846s15.77-2.355 16.999 5.735c0 0 1.74 8.652-17.204 7.014" style="fill:none;stroke:#000;stroke-width:2.5px" transform="translate(5.634 6.269)"/><path d="M51.292 81.521s-2.969 15.821 6.144 16.537c0 0 8.09 1.28 6.503-16.332" style="fill:none;stroke:#000;stroke-width:2.5px" transform="translate(8.634 4.269)"/></g></svg>