<?xml version="1.0" encoding="UTF-8" standalone="no"?><!DOCTYPE svg PUBLIC "-//W3C//DTD SVG 1.1//EN" "http://www.w3.org/Graphics/SVG/1.1/DTD/svg11.dtd"><svg width="160px" height="182px" version="1.1" xmlns="http://www.w3.org/2000/svg" xmlns:xlink="http://www.w3.org/1999/xlink" xml:space="preserve" xmlns:serif="http://www.serif.com/" style="fill-rule:evenodd;clip-rule:evenodd;stroke-miterlimit:1.5;"><g><path d="M63.865,73.537C60.807,76.248 57.748,78.959 54.689,81.67C54.509,82.984 53.933,84.257 52.957,85.298C50.454,87.966 46.255,88.099 43.587,85.596C40.919,83.092 40.785,78.893 43.289,76.225C44.474,74.962 46.04,74.267 47.643,74.151L61.96,61.462" style="fill:white;fill-opacity:0.96;stroke:black;stroke-opacity:0.96;stroke-width:2.5px;"/><path d="M46.341,46.9C46.141,39.833 49.708,33.3 57.041,27.3C64.374,20.567 73.141,16.867 83.341,16.2C93.474,16.867 102.174,20.567 109.441,27.3C116.708,33.3 120.341,39.833 120.341,46.9C120.341,52.233 118.608,56.967 115.141,61.1L115.341,61.1L115.241,61.1L110.041,67.3L108.679,67.902L107.681,96.071L107.541,98.2L107.182,109.553L112.685,109.719C120.05,113.609 119.069,117.498 112.805,121.388L100.476,120.944L84.141,117.1L78.617,117.031L75.17,121.86L74.157,134.897C69.753,141.293 66.133,139.716 62.84,134.827L61.549,121.79L58.341,118C55.941,115.467 54.508,112.7 54.041,109.7L53.941,105.4L55.839,95.352L55.642,84.711L56.88,67.1L55.041,66.6L50.941,61.1" style="fill:white;"/><path d="M104.532,77.491C108.22,79.253 111.907,81.015 115.595,82.777C116.131,83.991 117.035,85.056 118.26,85.786C121.403,87.66 125.475,86.631 127.35,83.488C127.804,82.727 128.087,81.911 128.212,81.084C128.601,78.501 127.433,75.819 125.052,74.399C123.564,73.512 121.867,73.275 120.294,73.606L103.033,65.358" style="fill:white;fill-opacity:0.96;stroke:black;stroke-opacity:0.96;stroke-width:2.5px;"/><path d="M100.458,109.646L112.591,109.646C115.553,109.646 117.958,112.222 117.958,115.396C117.958,118.57 115.553,121.146 112.591,121.146L100.458,121.146" style="fill:none;stroke:black;stroke-width:2.5px;"/><path d="M74.168,121.613L74.168,133.746C74.168,136.708 71.592,139.113 68.418,139.113C65.244,139.113 62.668,136.708 62.668,133.746L62.668,121.613" style="fill:none;stroke:black;stroke-width:2.5px;"/><path d="M51.341,61.1C47.808,56.967 46.141,52.233 46.341,46.9C46.141,39.833 49.708,33.3 57.041,27.3C64.374,20.567 73.141,16.867 83.341,16.2C93.474,16.867 102.174,20.567 109.441,27.3C116.708,33.3 120.341,39.833 120.341,46.9C120.341,52.233 118.608,56.967 115.141,61.1" style="fill:none;fill-rule:nonzero;stroke:black;stroke-width:2.5px;stroke-miterlimit:4;"/></g><g><ellipse cx="84.802" cy="14.095" rx="11.385" ry="7.745" style="fill:rgb(243,153,48);stroke:black;stroke-width:2px;stroke-linecap:round;stroke-linejoin:round;"/><circle cx="91.237" cy="11.271" r="0.559" style="fill:rgb(183,126,59);"/><circle cx="88.363" cy="13.273" r="0.559" style="fill:rgb(183,126,59);"/><circle cx="84.34" cy="14.9" r="0.559" style="fill:rgb(183,126,59);"/><circle cx="76.56" cy="13.996" r="0.559" style="fill:rgb(183,126,59);"/><circle cx="82.945" cy="12.087" r="0.559" style="fill:rgb(183,126,59);"/><circle cx="91.359" cy="16.348" r="0.559" style="fill:rgb(183,126,59);"/><circle cx="87.151" cy="18.738" r="0.559" style="fill:rgb(183,126,59);"/><circle cx="82.292" cy="18.105" r="0.559" style="fill:rgb(183,126,59);"/><circle cx="78.212" cy="18.077" r="0.559" style="fill:rgb(183,126,59);"/><circle cx="79.082" cy="12.072" r="0.559" style="fill:rgb(183,126,59);"/><ellipse cx="85.208" cy="7.906" rx="2.247" ry="0.77" style="fill:rgb(151,158,131);stroke:rgb(88,115,73);stroke-width:1px;stroke-linecap:round;stroke-linejoin:round;"/></g><path d="M105.141 39.9h6.3" fill="none" stroke="#000" stroke-linecap="round" stroke-linejoin="round" stroke-width="3" id="gikopoipoi_eyes_closed" style="display:none"/><path d="m109.641 37.6 3.7 4.4h-2.1l-2.9-2.4-2.9 2.4h-2.1l3.8-4.4h2.5" fill-rule="evenodd" id="gikopoipoi_eyes_open" style="stroke-width:2"/></svg>