<?xml version="1.0" encoding="UTF-8" standalone="no"?><!DOCTYPE svg PUBLIC "-//W3C//DTD SVG 1.1//EN" "http://www.w3.org/Graphics/SVG/1.1/DTD/svg11.dtd"><svg width="160px" height="182px" version="1.1" xmlns="http://www.w3.org/2000/svg" xmlns:xlink="http://www.w3.org/1999/xlink" xml:space="preserve" xmlns:serif="http://www.serif.com/" style="fill-rule:evenodd;clip-rule:evenodd;stroke-miterlimit:1.5;"><g><path d="M98.882,73.943C99.258,78.013 99.634,82.083 100.009,86.152C99.241,87.234 98.79,88.556 98.79,89.983C98.79,93.641 101.76,96.612 105.419,96.612C106.306,96.612 107.152,96.438 107.926,96.121C110.343,95.132 112.049,92.755 112.049,89.983C112.049,88.25 111.382,86.672 110.293,85.49L108.535,66.441" style="fill:white;fill-opacity:0.96;stroke:black;stroke-opacity:0.96;stroke-width:2.5px;"/><path d="M46.341,46.9C46.141,39.833 49.708,33.3 57.041,27.3C64.374,20.567 73.141,16.867 83.341,16.2C93.474,16.867 102.174,20.567 109.441,27.3C116.708,33.3 120.341,39.833 120.341,46.9C120.341,52.233 118.608,56.967 115.141,61.1L115.341,61.1L115.241,61.1L110.041,67.3L108.679,67.902L107.681,96.071L107.541,98.2L106.841,106.6L104.741,114.8L100.886,121.79L99.626,135.105C95.691,141.392 92.013,139.985 88.448,135.174L86.818,121.86L84.141,117.1L78.617,117.031L75.17,121.86L74.157,134.897C69.753,141.293 66.133,139.716 62.84,134.827L61.549,121.79L58.341,118C55.941,115.467 54.508,112.7 54.041,109.7L53.941,105.4L55.541,100.3L55.839,95.352C52.629,91.962 52.438,88.422 55.642,84.711L56.88,67.1L55.041,66.6L50.941,61.1" style="fill:white;"/><path d="M99.739,121.752L99.739,133.885C99.739,136.847 97.163,139.252 93.989,139.252C90.815,139.252 88.239,136.847 88.239,133.885L88.239,121.752" style="fill:none;stroke:black;stroke-width:2.5px;"/><path d="M74.168,121.613L74.168,133.746C74.168,136.708 71.592,139.113 68.418,139.113C65.244,139.113 62.668,136.708 62.668,133.746L62.668,121.613" style="fill:none;stroke:black;stroke-width:2.5px;"/><path d="M51.341,61.1C47.808,56.967 46.141,52.233 46.341,46.9C46.141,39.833 49.708,33.3 57.041,27.3C64.374,20.567 73.141,16.867 83.341,16.2C93.474,16.867 102.174,20.567 109.441,27.3C116.708,33.3 120.341,39.833 120.341,46.9C120.341,52.233 118.608,56.967 115.141,61.1" style="fill:none;fill-rule:nonzero;stroke:black;stroke-width:2.5px;stroke-miterlimit:4;"/><path d="M86.003,47.228C84.346,51.517 83.76,55.311 86.003,57.799C87.559,59.306 89.115,58.955 90.67,57.912C91.552,56.007 91.869,53.444 91.851,50.49C91.849,52.803 91.745,55.108 93.425,57.574C94.732,59.125 96.373,59.21 98.43,57.462C100.064,54.803 99.252,51.256 97.586,47.397" style="fill:none;stroke:black;stroke-width:2.5px;"/><path d="M66.558,73.943C66.183,78.013 65.807,82.083 65.431,86.152C66.199,87.234 66.651,88.556 66.651,89.983C66.651,93.641 63.68,96.612 60.021,96.612C56.363,96.612 53.392,93.641 53.392,89.983C53.392,88.25 54.058,86.672 55.148,85.49L56.906,66.441" style="fill:none;stroke:black;stroke-opacity:0.96;stroke-width:2.5px;"/></g><g><ellipse cx="84.802" cy="14.095" rx="11.385" ry="7.745" style="fill:rgb(243,153,48);stroke:black;stroke-width:2px;stroke-linecap:round;stroke-linejoin:round;"/><circle cx="77.187" cy="11.996" r="0.559" style="fill:rgb(183,126,59);"/><circle cx="80.878" cy="14.225" r="0.559" style="fill:rgb(183,126,59);"/><circle cx="84.447" cy="14.265" r="0.559" style="fill:rgb(183,126,59);"/><circle cx="91.139" cy="14.222" r="0.559" style="fill:rgb(183,126,59);"/><circle cx="87.611" cy="11.996" r="0.559" style="fill:rgb(183,126,59);"/><circle cx="78.925" cy="16.665" r="0.559" style="fill:rgb(183,126,59);"/><circle cx="82.725" cy="18.24" r="0.559" style="fill:rgb(183,126,59);"/><circle cx="87.719" cy="17.425" r="0.559" style="fill:rgb(183,126,59);"/><circle cx="92.116" cy="17.805" r="0.559" style="fill:rgb(183,126,59);"/><circle cx="91.519" cy="10.802" r="0.559" style="fill:rgb(183,126,59);"/><ellipse cx="84.396" cy="7.906" rx="2.247" ry="0.77" style="fill:rgb(151,158,131);stroke:rgb(88,115,73);stroke-width:1px;stroke-linecap:round;stroke-linejoin:round;"/></g><g style="display:none" fill="none" stroke="#000" stroke-linecap="round" stroke-linejoin="round" stroke-width="3" id="gikopoipoi_eyes_closed"><path d="M72.341 39.9h6.3m26.2 0h6.3" style="display:inline"/></g><path d="m109.341 37.6 3.7 4.4h-2.1l-2.9-2.4-2.9 2.4h-2.1l3.8-4.4h2.5m-32.5 0 3.7 4.4h-2.1l-2.9-2.4-2.9 2.4h-2.1l3.8-4.4h2.5" style="stroke-width:2" id="gikopoipoi_eyes_open" fill-rule="evenodd"/></svg>