<?xml version="1.0" encoding="UTF-8" standalone="no"?>
<!DOCTYPE svg PUBLIC "-//W3C//DTD SVG 1.1//EN" "http://www.w3.org/Graphics/SVG/1.1/DTD/svg11.dtd"><svg width="160px"
    height="182px" version="1.1" xmlns="http://www.w3.org/2000/svg" xmlns:xlink="http://www.w3.org/1999/xlink"
    xml:space="preserve" xmlns:serif="http://www.serif.com/"
    style="fill-rule:evenodd;clip-rule:evenodd;stroke-miterlimit:1.5;">
    <g>
        <path
            d="M105.16,77.668C108.675,79.755 112.189,81.842 115.703,83.929C116.128,85.186 116.932,86.328 118.086,87.166C121.047,89.315 125.196,88.656 127.346,85.695C127.866,84.978 128.222,84.191 128.421,83.379C129.04,80.841 128.119,78.065 125.875,76.436C124.473,75.418 122.805,75.03 121.208,75.218L104.76,65.45"
            style="fill:white;fill-opacity:0.96;stroke:black;stroke-opacity:0.96;stroke-width:2.5px;" />
        <path
            d="M46.341,46.9C46.141,39.833 49.708,33.3 57.041,27.3C64.374,20.567 73.141,16.867 83.341,16.2C93.474,16.867 102.174,20.567 109.441,27.3C116.708,33.3 120.341,39.833 120.341,46.9C120.341,52.233 118.608,56.967 115.141,61.1L115.341,61.1L115.241,61.1L110.041,67.3L108.679,67.902L107.681,96.071L106.841,106.6L104.741,114.8L100.886,121.79L99.626,135.105C95.691,141.392 92.013,139.985 88.448,135.174L87.826,121.428L76.083,120.697L58.341,118C55.941,115.467 54.508,112.7 54.041,109.7L53.941,105.4L55.541,100.3L56.88,67.1L55.041,66.6L50.941,61.1"
            style="fill:white;" />
        <path
            d="M99.739,121.752L99.739,133.885C99.739,136.847 97.163,139.252 93.989,139.252C90.815,139.252 88.239,136.847 88.239,133.885L88.239,121.752"
            style="fill:none;stroke:black;stroke-width:2.5px;" />
        <path
            d="M76.071,108.929L88.204,108.929C91.166,108.929 93.571,111.505 93.571,114.679C93.571,117.853 91.166,120.429 88.204,120.429L76.071,120.429"
            style="fill:none;stroke:black;stroke-width:2.5px;" />
        <path
            d="M51.341,61.1C47.808,56.967 46.141,52.233 46.341,46.9C46.141,39.833 49.708,33.3 57.041,27.3C64.374,20.567 73.141,16.867 83.341,16.2C93.474,16.867 102.174,20.567 109.441,27.3C116.708,33.3 120.341,39.833 120.341,46.9C120.341,52.233 118.608,56.967 115.141,61.1"
            style="fill:none;fill-rule:nonzero;stroke:black;stroke-width:2.5px;stroke-miterlimit:4;" />
        <path
            d="M86.003,47.228C84.346,51.517 83.76,55.311 86.003,57.799C87.559,59.306 89.115,58.955 90.67,57.912C91.552,56.007 91.869,53.444 91.851,50.49C91.849,52.803 91.745,55.108 93.425,57.574C94.732,59.125 96.373,59.21 98.43,57.462C100.064,54.803 99.252,51.256 97.586,47.397"
            style="fill:none;stroke:black;stroke-width:2.5px;" />
        <path
            d="M58.547,79.672C55.132,81.917 51.717,84.161 48.301,86.406C47.934,87.681 47.183,88.859 46.068,89.748C43.208,92.03 39.033,91.561 36.751,88.701C34.469,85.841 34.938,81.667 37.798,79.385C39.152,78.304 40.801,77.84 42.405,77.955L58.391,67.448"
            style="fill:white;fill-opacity:0.96;stroke:black;stroke-opacity:0.96;stroke-width:2.5px;" />
    </g>
    <path
        d="M42.365,3.144C43.223,3.461 50.453,3.297 51.409,3.589C52.382,3.887 53.523,6.132 54.588,6.399C62.122,8.293 70.962,11.052 81.223,10.421C93.1,9.689 101.977,6.428 109.484,3.02C110.281,2.658 112.159,5.412 111.726,6.89C108.99,16.228 97.799,23.777 82.104,24.743C65.842,25.744 51.866,19.24 48.601,9.774C48.465,9.378 45.148,11.482 44.179,11.048C42.417,10.259 42.412,3.913 42.365,3.144Z"
        style="fill:url(#_Radial1);stroke:black;stroke-width:2.5px;" />
    <g id="gikopoipoi_eyes_closed" style="display:none">
        <path d="M72.341,39.9L78.641,39.9M104.841,39.9L111.141,39.9"
            style="fill:none;stroke:black;stroke-width:3px;stroke-linecap:round;stroke-linejoin:round;" />
    </g>
    <path id="gikopoipoi_eyes_open"
        d="M109.341,37.6L113.041,42L110.941,42L108.041,39.6L105.141,42L103.041,42L106.841,37.6L109.341,37.6M76.841,37.6L80.541,42L78.441,42L75.541,39.6L72.641,42L70.541,42L74.341,37.6L76.841,37.6" />
    <defs>
        <radialGradient id="_Radial1" cx="0" cy="0" r="1" gradientUnits="userSpaceOnUse"
            gradientTransform="matrix(66.812,-5.11477,5.11477,66.812,43.7562,10.0719)">
            <stop offset="0" style="stop-color:rgb(147,173,33);stop-opacity:1" />
            <stop offset="0.21" style="stop-color:rgb(177,175,20);stop-opacity:1" />
            <stop offset="0.43" style="stop-color:rgb(209,177,7);stop-opacity:1" />
            <stop offset="1" style="stop-color:rgb(225,178,0);stop-opacity:1" />
        </radialGradient>
    </defs>
</svg>