<svg xmlns="http://www.w3.org/2000/svg" height="182" width="160"><g style="clip-rule:evenodd;fill-rule:evenodd;stroke-linecap:round;stroke-linejoin:round"><path d="M-15.5-41.55c-1.767-2.067-2.6-4.433-2.5-7.1-.1-3.533 1.683-6.8 5.35-9.8C-8.983-61.817-4.6-63.667.5-64c5.067.333 9.417 2.183 13.05 5.55 3.633 3 5.45 6.267 5.45 9.8 0 2.667-.867 5.033-2.6 7.1h.1-.05L13.9-38.5l-.05-.1-.8.05s3.276 3.995 2.942 3.395c-.766-.3.72 5.06.853 4.093L14.17-27l-.902 1.488-.83 1.929-.188 4.783-1.05 4.1-1.65 4v.05H8.4v5.2c-.033.9-.3 1.65-.8 2.25-.433.5-1 .75-1.7.75-.667 0-1.233-.25-1.7-.75-.533-.6-.8-1.35-.8-2.25v-5.2H2.1v-1.2h-.3V-12l-.9-1.55h-2.45l-1.55 1.7v1.2h-1.2v5.2c-.033.9-.3 1.65-.8 2.25-.467.5-1.033.75-1.7.75s-1.25-.25-1.75-.75c-.5-.6-.75-1.35-.75-2.25v-5.2h-1.2L-12.1-13l.1-.1c-1.2-1.267-1.917-2.65-2.15-4.15l-.1-1.2.05-.95.55-1.85h.1v-.55l.15-.15v-1.35h-.05l-.05-.8v-2.05c-2.635-1.595-3.082-4.106-1.959-7.274l3.059-5.126-.85-.05-.4-.05v-.15l-2.05-2.75h.2m1.75 19.65-.05-.1.05.1" style="fill:#fff" transform="matrix(2 0 0 2 82.64 144.2)"/><path d="M101.74 122.9v10.4c0 2.6-.665 4.666-2 6.2-1.465 1.666-3.233 2.5-5.3 2.5-2 0-3.765-.834-5.3-2.5-1.4-1.534-2.065-3.6-2-6.2v-10.4h2.3v10.4c0 1.8.535 3.3 1.6 4.5.935 1 2.067 1.5 3.4 1.5 1.4 0 2.535-.5 3.4-1.5 1-1.2 1.535-2.7 1.6-4.5v-10.4h2.3m-25.4 0v10.4c0 2.6-.7 4.666-2.1 6.2-1.465 1.666-3.2 2.5-5.2 2.5s-3.765-.834-5.3-2.5c-1.4-1.534-2.1-3.6-2.1-6.2v-10.4h2.4v10.4c0 1.8.5 3.3 1.5 4.5 1 1 2.167 1.5 3.5 1.5 1.335 0 2.467-.5 3.4-1.5 1-1.2 1.535-2.7 1.6-4.5v-10.4h2.3"/><path d="M3.1 23.05C1.333 20.983.5 18.617.6 15.95c-.1-3.533 1.683-6.8 5.35-9.8C9.617 2.783 14 .933 19.1.6c5.067.333 9.417 2.183 13.05 5.55 3.633 3 5.45 6.267 5.45 9.8 0 2.667-.867 5.033-2.6 7.1" style="fill:none;fill-rule:nonzero;stroke:#000;stroke-width:1.2px" transform="matrix(2 0 0 2 45.44 15)"/><path d="M107.929 74.147s.772 9.592-.182 25.753" style="fill:none;stroke:#000;stroke-width:2.5px;stroke-linecap:square;stroke-miterlimit:1.5" transform="matrix(-1 0 0 1 164.353 0)"/><path d="m71.369 29.832 7.834.512" style="fill:none;stroke:#000;stroke-width:2.5px;stroke-linecap:square;stroke-miterlimit:1.5" transform="translate(31)"/><path d="M107.75 36h.402l1.107.2.905.7c.604.6.906 1.266.906 2l-.906 2.3c-.603.534-1.273.8-2.012.8l-1.61-.4-.503-.4-.906-1.4v-.3l-.1-.6v-.2c.066-.666.402-1.266 1.006-1.8l.503-.4a2.385 2.385 0 0 1 1.107-.5h.1m.906 1.7-.503-.1c-.469-.066-.84.066-1.107.4-.267.2-.402.5-.402.9v.3l.302.9h.1l.1.1.403.2.604.1 1.107-.4.302-1.2-.1-.6-.202-.3-.1-.1-.303-.2h-.2"/><path d="m69.325 46.898 7.198.589m-2.816 11.456 2.944-11.52-.192-5.184" style="fill:none;stroke:#000;stroke-width:2.52px;stroke-miterlimit:1.5" transform="matrix(-1 0 0 1 188.777 1.835)"/><path d="M57.067 67.172s-9.536 8.96-5.824 17.344c0 0 2.56 4.352 6.08 5.696 0 0-1.216 3.84 4.096 6.208 0 0 5.632 1.984 8.512-5.184 0 0 1.152-6.784-4.352-7.68 0 0-4.608-1.408-5.12-4.48" style="fill:none;stroke:#000;stroke-width:2.5px;stroke-linecap:square;stroke-miterlimit:1.5" transform="matrix(-1 0 0 1 166.341 1.06)"/><path d="M109.273 68.259s5.824 7.68 5.952 12.608c0 0 .281 7.085-5.084 9.591" style="fill:none;stroke:#000;stroke-width:2.5px;stroke-linecap:square;stroke-miterlimit:1.5" transform="matrix(-1 0 0 1 165.804 0)"/></g></svg>