<svg xmlns="http://www.w3.org/2000/svg" height="182" width="160"><g style="clip-rule:evenodd;fill-rule:evenodd;stroke-linecap:round;stroke-linejoin:round"><path d="M-15.5-41.55c-1.767-2.067-2.6-4.433-2.5-7.1-.1-3.533 1.683-6.8 5.35-9.8C-8.983-61.817-4.6-63.667.5-64c5.067.333 9.417 2.183 13.05 5.55 3.633 3 5.45 6.267 5.45 9.8 0 2.667-.867 5.033-2.6 7.1h.1-.05L13.9-38.5l-.05-.1-.8.05.65 9.65h.15l.25.75.2.5.2.4-.15.45-.3.75-.2.35c-.4.367-.767.617-1.1.75l-.15.1h-.5c-1.067.2-1.767 0-2.1-.6-.767-.3-1.083-.933-.95-1.9l.4-1.4v-.05l.15-.05-.45-6.45-1.35.1.45 6.3-.5 2c.167 1.1.6 1.9 1.3 2.4-.167.233-.117.283.15.15.733.9 1.75 1.183 3.05.85l.25.05h.2l-.05.45h-.05l-.25 2.95h-.05l-.05.2h-1.9l-1.2 1.55h5.05c.467 0 .85.133 1.15.4.367.367.55.917.55 1.65 0 .7-.183 1.233-.55 1.6-.3.3-.683.45-1.15.45H7.6v1.2l-6.65-.45-.05-.1-11.55.3-1.6-.15c-1.067-1.2-1.7-2.483-1.9-3.85l-.1-1.2.05-.95.55-1.85h.1v-.55l.15-.15v-1.35h-.05l-.05-.8v-2.05l-.2-.65-.15-.45.15-.4.25-.5.25-.75h.1l.7-9.65-.85-.05-.4-.05v-.15l-2.05-2.75h.2M-13.8-22l.05.1-.05-.1m3.75-6.45-.05-.05v.05h.05" style="fill:#fff" transform="matrix(2 0 0 2 82.64 144.2)"/><path d="m110.44 67.2 1.6 9 .3 3.9.1-.1v.2l.4 5.3v.7h-.2v.2l1.2 2.2c-.065.334.035.534.3.6.4 2.134 0 3.766-1.2 4.9l-.3.4c-.2-.066-.333 0-.4.2l-.5.5-1.1 1c-.865.666-1.733 1.034-2.6 1.1h-.4l-.5-.1c-2.6.666-4.633.1-6.1-1.7-.533.266-.633.166-.3-.3-1.4-1-2.265-2.6-2.6-4.8l1-4-.9-12.6 2.7-.2.9 12.9-.3.1v.1l-.8 2.8c-.265 1.934.367 3.2 1.9 3.8.667 1.2 2.067 1.6 4.2 1.2h1l.3-.2c.667-.266 1.4-.766 2.2-1.5l.4-.7.6-1.5.3-.9-.4-.8-.4-1-.5-1.5h-.3l-1.3-19.3 1.6-.1.1.2m-3.3 37.3h4c1.667 0 3.035.534 4.1 1.6 1.2 1.2 1.8 3.066 1.8 5.6 0 2.466-.6 4.3-1.8 5.5-1.065 1.066-2.433 1.6-4.1 1.6h-13.3v-3h13.2c.935 0 1.7-.3 2.3-.9.735-.734 1.1-1.8 1.1-3.2 0-1.466-.365-2.566-1.1-3.3-.6-.534-1.365-.8-2.3-.8h-10.1l2.4-3.1h3.8M55.64 96l-.9-.8-.4-.5-.4-.2-.4-.4c-1.2-1.134-1.565-2.766-1.1-4.9.2-.066.3-.266.3-.6l1.2-2.4h-.2l-.1-.7h.1l.4-5.3V80l.1.1.2-3.9 1.7-9.2 1.7.1-1.4 19.3h-.2l-.5 1.5-.5 1-.3.8.3.9.4 1.3V96"/><path d="M3.1 23.05C1.333 20.983.5 18.617.6 15.95c-.1-3.533 1.683-6.8 5.35-9.8C9.617 2.783 14 .933 19.1.6c5.067.333 9.417 2.183 13.05 5.55 3.633 3 5.45 6.267 5.45 9.8 0 2.667-.867 5.033-2.6 7.1" style="fill:none;fill-rule:nonzero;stroke:#000;stroke-width:1.2px" transform="matrix(2 0 0 2 45.44 15)"/><path d="m71.369 29.832 7.834.512" style="fill:none;stroke:#000;stroke-width:2.5px;stroke-linecap:square;stroke-miterlimit:1.5" transform="matrix(-1 .3 .3 1 171.939 -21.509)"/><path d="m71.369 29.832 7.834.512" style="fill:none;stroke:#000;stroke-width:2.5px;stroke-linecap:square;stroke-miterlimit:1.5" transform="matrix(-1 .3 .3 1 154.273 -19.38)"/><path d="m109.676 30.884.385-.118 1.117-.131 1.07.405c.752.398 1.236.947 1.45 1.649l-.196 2.464c-.421.687-.985 1.137-1.691 1.352l-1.657.087-.598-.236-1.274-1.074-.088-.287-.271-.545-.058-.191c-.131-.657.015-1.329.437-2.016l.365-.529c.243-.352.547-.62.912-.801l.097-.03m1.362 1.363-.51.05c-.468.074-.784.309-.943.706-.197.27-.239.596-.122.978l.087.287.552.773.096-.03.125.067.444.074.606-.08.942-.706-.061-1.236-.271-.544-.28-.229-.126-.066-.347-.103-.192.059m-17.491 3.732.385-.117 1.117-.132 1.07.406c.753.398 1.236.947 1.45 1.649l-.195 2.464c-.422.687-.985 1.137-1.691 1.352l-1.657.087-.598-.236-1.274-1.075-.088-.287-.271-.544-.059-.192c-.13-.656.016-1.328.438-2.015l.364-.53a2.38 2.38 0 0 1 .913-.8l.096-.03m1.363 1.362-.51.051c-.469.074-.784.308-.943.706-.198.27-.239.596-.122.978l.087.287.551.773.097-.03.125.067.443.074.607-.08.942-.706-.061-1.236-.272-.545-.28-.228-.125-.066-.347-.103-.192.058"/><path d="m66.987 47.103 12.864.512" style="fill:none;stroke:#000;stroke-width:2.52px;stroke-miterlimit:1.5" transform="matrix(-1 .3 .3 1 166.807 -22.055)"/><path d="m67.051 42.367-.32 4.928 6.976 11.648 6.464-11.392-.128-5.184" style="fill:none;stroke:#000;stroke-width:2.52px;stroke-miterlimit:1.5" transform="matrix(-1 .3 .3 1 167.527 -20.615)"/></g></svg>