<svg xmlns:xlink="http://www.w3.org/1999/xlink" height="160.8" width="90.05" xmlns="http://www.w3.org/2000/svg"><use height="160.8" width="90.05" xlink:href="#a"/><defs><linearGradient gradientTransform="matrix(.0008 0 0 .0235 38.55 -24.45)" gradientUnits="userSpaceOnUse" id="b" spreadMethod="pad" x1="-819.2" x2="819.2"><stop offset=".016"/><stop offset=".49" stop-color="#848484"/><stop offset="1"/></linearGradient><linearGradient gradientTransform="matrix(.0008 0 0 .0235 32.55 -21.45)" gradientUnits="userSpaceOnUse" id="c" spreadMethod="pad" x1="-819.2" x2="819.2"><stop offset=".016"/><stop offset=".49" stop-color="#848484"/><stop offset="1"/></linearGradient><linearGradient gradientTransform="matrix(.0008 0 0 .0235 26.55 -18.45)" gradientUnits="userSpaceOnUse" id="d" spreadMethod="pad" x1="-819.2" x2="819.2"><stop offset=".016"/><stop offset=".49" stop-color="#848484"/><stop offset="1"/></linearGradient><linearGradient gradientTransform="matrix(.0008 0 0 .0235 20.55 -15.45)" gradientUnits="userSpaceOnUse" id="e" spreadMethod="pad" x1="-819.2" x2="819.2"><stop offset=".016"/><stop offset=".49" stop-color="#848484"/><stop offset="1"/></linearGradient><linearGradient gradientTransform="matrix(.0008 0 0 .0235 14.55 -12.45)" gradientUnits="userSpaceOnUse" id="f" spreadMethod="pad" x1="-819.2" x2="819.2"><stop offset=".016"/><stop offset=".49" stop-color="#848484"/><stop offset="1"/></linearGradient><linearGradient gradientTransform="matrix(.0004 .0007 -.0211 .0104 21.25 -34.85)" gradientUnits="userSpaceOnUse" id="g" spreadMethod="pad" x1="-819.2" x2="819.2"><stop offset=".016"/><stop offset=".49" stop-color="#848484"/><stop offset="1"/></linearGradient><linearGradient gradientTransform="matrix(-.0004 -.0007 .0211 -.0104 23.75 -36)" gradientUnits="userSpaceOnUse" id="h" spreadMethod="pad" x1="-819.2" x2="819.2"><stop offset=".016"/><stop offset=".49" stop-color="#848484"/><stop offset="1"/></linearGradient><linearGradient gradientTransform="matrix(-.0004 -.0007 .0211 -.0104 25.75 -37)" gradientUnits="userSpaceOnUse" id="i" spreadMethod="pad" x1="-819.2" x2="819.2"><stop offset=".016"/><stop offset=".49" stop-color="#848484"/><stop offset="1"/></linearGradient><linearGradient gradientTransform="matrix(.0004 .0007 -.0211 .0104 23.25 -35.85)" gradientUnits="userSpaceOnUse" id="j" spreadMethod="pad" x1="-819.2" x2="819.2"><stop offset=".016"/><stop offset=".49" stop-color="#848484"/><stop offset="1"/></linearGradient><linearGradient gradientTransform="matrix(-.0004 -.0007 .0211 -.0104 29.75 -39)" gradientUnits="userSpaceOnUse" id="k" spreadMethod="pad" x1="-819.2" x2="819.2"><stop offset=".016"/><stop offset=".49" stop-color="#848484"/><stop offset="1"/></linearGradient><linearGradient gradientTransform="matrix(.0004 .0007 -.0211 .0104 27.25 -37.85)" gradientUnits="userSpaceOnUse" id="l" spreadMethod="pad" x1="-819.2" x2="819.2"><stop offset=".016"/><stop offset=".49" stop-color="#848484"/><stop offset="1"/></linearGradient><linearGradient gradientTransform="matrix(.0008 0 0 .0235 32.55 -21.45)" gradientUnits="userSpaceOnUse" id="m" spreadMethod="pad" x1="-819.2" x2="819.2"><stop offset=".016"/><stop offset=".49" stop-color="#848484"/><stop offset="1"/></linearGradient><linearGradient gradientTransform="matrix(.0008 0 0 .0235 26.55 -18.45)" gradientUnits="userSpaceOnUse" id="n" spreadMethod="pad" x1="-819.2" x2="819.2"><stop offset=".016"/><stop offset=".49" stop-color="#848484"/><stop offset="1"/></linearGradient><linearGradient gradientTransform="matrix(.0008 0 0 .0235 20.55 -15.45)" gradientUnits="userSpaceOnUse" id="o" spreadMethod="pad" x1="-819.2" x2="819.2"><stop offset=".016"/><stop offset=".49" stop-color="#848484"/><stop offset="1"/></linearGradient><linearGradient gradientTransform="matrix(.0008 0 0 .0235 14.55 -12.45)" gradientUnits="userSpaceOnUse" id="p" spreadMethod="pad" x1="-819.2" x2="819.2"><stop offset=".016"/><stop offset=".49" stop-color="#848484"/><stop offset="1"/></linearGradient><linearGradient gradientTransform="matrix(.0008 0 0 .0235 8.55 -9.45)" gradientUnits="userSpaceOnUse" id="q" spreadMethod="pad" x1="-819.2" x2="819.2"><stop offset=".016"/><stop offset=".49" stop-color="#848484"/><stop offset="1"/></linearGradient><linearGradient gradientTransform="matrix(-.0004 -.0007 .0211 -.0104 17.75 -33)" gradientUnits="userSpaceOnUse" id="r" spreadMethod="pad" x1="-819.2" x2="819.2"><stop offset=".016"/><stop offset=".49" stop-color="#848484"/><stop offset="1"/></linearGradient><linearGradient gradientTransform="matrix(.0004 .0007 -.0211 .0104 15.25 -31.85)" gradientUnits="userSpaceOnUse" id="s" spreadMethod="pad" x1="-819.2" x2="819.2"><stop offset=".016"/><stop offset=".49" stop-color="#848484"/><stop offset="1"/></linearGradient><linearGradient gradientTransform="matrix(-.0004 -.0007 .0211 -.0104 19.75 -34)" gradientUnits="userSpaceOnUse" id="t" spreadMethod="pad" x1="-819.2" x2="819.2"><stop offset=".016"/><stop offset=".49" stop-color="#848484"/><stop offset="1"/></linearGradient><linearGradient gradientTransform="matrix(-.0004 -.0007 .0211 -.0104 23.75 -36)" gradientUnits="userSpaceOnUse" id="u" spreadMethod="pad" x1="-819.2" x2="819.2"><stop offset=".016"/><stop offset=".49" stop-color="#848484"/><stop offset="1"/></linearGradient><linearGradient gradientTransform="matrix(.0004 .0007 -.0211 .0104 17.25 -32.85)" gradientUnits="userSpaceOnUse" id="v" spreadMethod="pad" x1="-819.2" x2="819.2"><stop offset=".016"/><stop offset=".49" stop-color="#848484"/><stop offset="1"/></linearGradient><linearGradient gradientTransform="matrix(.0004 .0007 -.0211 .0104 21.25 -34.85)" gradientUnits="userSpaceOnUse" id="w" spreadMethod="pad" x1="-819.2" x2="819.2"><stop offset=".016"/><stop offset=".49" stop-color="#848484"/><stop offset="1"/></linearGradient><radialGradient cx="0" cy="0" gradientTransform="matrix(.0325 0 0 .0329 14.9 -135.95)" gradientUnits="userSpaceOnUse" id="x" r="819.2" spreadMethod="pad"><stop offset="0" stop-color="#ddbc04"/><stop offset="1" stop-color="#f4ee00"/><stop offset="1" stop-color="#7d7a06"/></radialGradient><radialGradient cx="0" cy="0" gradientTransform="matrix(.0327 0 0 .0332 15.1 -121.05)" gradientUnits="userSpaceOnUse" id="y" r="819.2" spreadMethod="pad"><stop offset="0" stop-color="#ddbc04"/><stop offset="1" stop-color="#f4ee00"/><stop offset="1" stop-color="#7d7a06"/></radialGradient><radialGradient cx="0" cy="0" gradientTransform="matrix(.014 0 0 .0142 35.1 -115.15)" gradientUnits="userSpaceOnUse" id="z" r="819.2" spreadMethod="pad"><stop offset="0" stop-color="#ddbc04"/><stop offset="1" stop-color="#f4ee00"/><stop offset="1" stop-color="#7d7a06"/></radialGradient><radialGradient cx="0" cy="0" gradientTransform="translate(19.25 -122.75) scale(.0385)" gradientUnits="userSpaceOnUse" id="A" r="819.2" spreadMethod="pad"><stop offset="0" stop-color="#fdff88" stop-opacity=".6"/><stop offset=".682" stop-color="#fcffc8" stop-opacity=".102"/><stop offset="1" stop-color="#fff" stop-opacity="0"/><stop offset="1" stop-color="#7d7a06"/></radialGradient><g id="a"><path d="m39.05-43.35.15-.3V-5.7l-.15.35-.4.15q-.25 0-.45-.15l-.3-.35.15-37.8.15.15q.2.15.45.15l.4-.15" fill="url(#b)" fill-rule="evenodd" transform="translate(40.25 150.75)"/><path d="m79.3 107.4-.4.15q-.25 0-.45-.15l-.15-.15-.15 37.8.3.35q.2.15.45.15l.4-.15.15-.35V107.1l-.15.3z" fill="none" stroke="#000" stroke-linecap="round" stroke-linejoin="round" stroke-width=".5"/><path d="m33.05-40.35.15-.3V-2.7l-.15.35-.4.15q-.25 0-.45-.15l-.3-.35.15-37.8.15.15q.2.15.45.15l.4-.15" fill="url(#c)" fill-rule="evenodd" transform="translate(40.25 150.75)"/><path d="m73.3 110.4-.4.15q-.25 0-.45-.15l-.15-.15-.15 37.8.3.35q.2.15.45.15l.4-.15.15-.35V110.1l-.15.3z" fill="none" stroke="#000" stroke-linecap="round" stroke-linejoin="round" stroke-width=".5"/><path d="m27.05-37.35.15-.3V.3l-.15.35-.4.15-.45-.15-.3-.35.15-37.8.15.15q.2.15.45.15l.4-.15" fill="url(#d)" fill-rule="evenodd" transform="translate(40.25 150.75)"/><path d="m67.3 113.4-.4.15q-.25 0-.45-.15l-.15-.15-.15 37.8.3.35.45.15.4-.15.15-.35V113.1l-.15.3z" fill="none" stroke="#000" stroke-linecap="round" stroke-linejoin="round" stroke-width=".5"/><path d="m21.05-34.35.15-.3V3.3l-.15.35-.4.15-.45-.15-.3-.35.15-37.8.15.15q.2.15.45.15l.4-.15" fill="url(#e)" fill-rule="evenodd" transform="translate(40.25 150.75)"/><path d="m61.3 116.4-.4.15q-.25 0-.45-.15l-.15-.15-.15 37.8.3.35.45.15.4-.15.15-.35V116.1l-.15.3z" fill="none" stroke="#000" stroke-linecap="round" stroke-linejoin="round" stroke-width=".5"/><path d="m15.05-31.35.15-.3V6.3l-.15.35-.4.15-.45-.15-.3-.35.15-37.8.15.15q.2.15.45.15l.4-.15" fill="url(#f)" fill-rule="evenodd" transform="translate(40.25 150.75)"/><path d="m55.3 119.4-.4.15q-.25 0-.45-.15l-.15-.15-.15 37.8.3.35.45.15.4-.15.15-.35V119.1l-.15.3z" fill="none" stroke="#000" stroke-linecap="round" stroke-linejoin="round" stroke-width=".5"/><path d="m38.15-43.7-.1.2.05.5q.1.2.35.3h.4L27.15-37v-1.35l11-5.35" fill="url(#g)" fill-rule="evenodd" transform="translate(40.25 150.75)"/><path d="M38.75-42.7h-.3q-.25-.1-.35-.3l-.05-.5.1-.2-11 5.35v-.05l.25-.1 1.75-.9.25-.1 10.9-5.35h.4l.3.3.05.45-.2.4-2.1 1" fill="url(#h)" fill-rule="evenodd" transform="translate(40.25 150.75)"/><path d="m27.4-38.5-.25.1v.05l-1.75.85v-.05l2-.95" fill="url(#i)" fill-rule="evenodd" transform="translate(40.25 150.75)"/><path d="M27.15-38.35V-37l-1.75.85v-1.35l1.75-.85" fill="url(#j)" fill-rule="evenodd" transform="translate(40.25 150.75)"/><path d="m29.4-39.5-.25.1-1.75.9-2 .95-.45.25 4.45-2.25v.05" fill="url(#k)" fill-rule="evenodd" transform="translate(40.25 150.75)"/><path d="M25.4-37.5v1.3l-14.65 7.25h-.4l-.3-.3-.1-.45.2-.4 2.05-1 1.1-.55 11.65-5.65.45-.25v.05" fill="url(#l)" fill-rule="evenodd" transform="translate(40.25 150.75)"/><path d="m78.4 107.05-11 5.35-1.75.85m1.75.5 11.7-5.7H79l2.1-1 .2-.4-.05-.45-.3-.3h-.4l-10.9 5.35-.25.1-1.75.9-.25.1m-1.75 2.25 1.75-.85m.25-1.5-2 .95m4-2-4.45 2.25.45-.25m-.45.25-11.65 5.65-1.1.55-2.05 1-.2.4.1.45.3.3h.4l14.65-7.25m-13.2 5.1.05-.05 1.05-.5" fill="none" stroke="#000" stroke-linecap="round" stroke-linejoin="round" stroke-width=".5"/><path d="m33.05-40.35.15-.3V-2.7l-.15.35-.4.15q-.25 0-.45-.15l-.3-.35.15-37.8.15.15q.2.15.45.15l.4-.15" fill="url(#m)" fill-rule="evenodd" transform="translate(40.25 150.75)"/><path d="m73.3 110.4-.4.15q-.25 0-.45-.15l-.15-.15-.15 37.8.3.35q.2.15.45.15l.4-.15.15-.35V110.1l-.15.3z" fill="none" stroke="#000" stroke-linecap="round" stroke-linejoin="round" stroke-width=".5"/><path d="m27.05-37.35.15-.3V.3l-.15.35-.4.15-.45-.15-.3-.35.15-37.8.15.15q.2.15.45.15l.4-.15" fill="url(#n)" fill-rule="evenodd" transform="translate(40.25 150.75)"/><path d="m67.3 113.4-.4.15q-.25 0-.45-.15l-.15-.15-.15 37.8.3.35.45.15.4-.15.15-.35V113.1l-.15.3z" fill="none" stroke="#000" stroke-linecap="round" stroke-linejoin="round" stroke-width=".5"/><path d="m21.05-34.35.15-.3V3.3l-.15.35-.4.15-.45-.15-.3-.35.15-37.8.15.15q.2.15.45.15l.4-.15" fill="url(#o)" fill-rule="evenodd" transform="translate(40.25 150.75)"/><path d="m61.3 116.4-.4.15q-.25 0-.45-.15l-.15-.15-.15 37.8.3.35.45.15.4-.15.15-.35V116.1l-.15.3z" fill="none" stroke="#000" stroke-linecap="round" stroke-linejoin="round" stroke-width=".5"/><path d="m15.05-31.35.15-.3V6.3l-.15.35-.4.15-.45-.15-.3-.35.15-37.8.15.15q.2.15.45.15l.4-.15" fill="url(#p)" fill-rule="evenodd" transform="translate(40.25 150.75)"/><path d="m55.3 119.4-.4.15q-.25 0-.45-.15l-.15-.15-.15 37.8.3.35.45.15.4-.15.15-.35V119.1l-.15.3z" fill="none" stroke="#000" stroke-linecap="round" stroke-linejoin="round" stroke-width=".5"/><path d="m9.05-28.35.15-.3V9.3l-.15.35-.4.15-.45-.15-.3-.35.15-37.8.15.15q.2.15.45.15l.4-.15" fill="url(#q)" fill-rule="evenodd" transform="translate(40.25 150.75)"/><path d="m49.3 122.4-.4.15q-.25 0-.45-.15l-.15-.15-.15 37.8.3.35.45.15.4-.15.15-.35V122.1l-.15.3z" fill="none" stroke="#000" stroke-linecap="round" stroke-linejoin="round" stroke-width=".5"/><path d="m23.4-36.5 10.9-5.35h.4l.3.3.05.45-.2.4-2.1 1h-.3q-.25-.1-.35-.3l-.05-.5.1-.2-11 5.35v-.05l.25-.1 1.75-.9.25-.1" fill="url(#r)" fill-rule="evenodd" transform="translate(40.25 150.75)"/><path d="M32.75-39.7h.1L21.15-34v-1.35l11-5.35-.1.2.05.5q.1.2.35.3h.3" fill="url(#s)" fill-rule="evenodd" transform="translate(40.25 150.75)"/><path d="m21.4-35.5-.25.1v.05l-1.75.85v-.05l2-.95" fill="url(#t)" fill-rule="evenodd" transform="translate(40.25 150.75)"/><path d="m18.95-34.3 4.45-2.25v.05l-.25.1-1.75.9-2 .95-.45.25" fill="url(#u)" fill-rule="evenodd" transform="translate(40.25 150.75)"/><path d="m21.15-34-1.75.85v-1.35l1.75-.85V-34" fill="url(#v)" fill-rule="evenodd" transform="translate(40.25 150.75)"/><path d="M19.4-33.2 4.75-25.95h-.4l-.3-.3-.1-.45.2-.4 2.05-1 1.1-.55 11.65-5.65.45-.25v1.35" fill="url(#w)" fill-rule="evenodd" transform="translate(40.25 150.75)"/><path d="m63.65 114.25 10.9-5.35h.4l.3.3.05.45-.2.4-2.1 1h.1l-11.7 5.7-1.75.85m0-.05L45 124.8h-.4l-.3-.3-.1-.45.2-.4 2.05-1 .05-.05 1.05-.5 11.65-5.65 4.45-2.25m0 .05-.25.1-1.75.9-.25.1m0 .05 11-5.35M47.55 122.1l-1.1.55m13.2-6.45-.45.25m.45-.2 1.75-.85m-1.75.8 2-.95" fill="none" stroke="#000" stroke-linecap="round" stroke-linejoin="round" stroke-width=".5"/><path d="m30.85-93.75.15 8.9-37 18.4v-8.95h.05l36.8-18.35" fill="#8a002d" fill-rule="evenodd" transform="translate(40.25 150.75)"/><path d="m-39.95-92.4 37.05-18.5 34 17-.25.15-36.8 18.35-.05-.05-33.95-16.95" fill="#88002d" fill-rule="evenodd" transform="translate(40.25 150.75)"/><path d="M-6-66.45-40-83.4v-9h.05L-6-75.45v9" fill="#790027" fill-rule="evenodd" transform="translate(40.25 150.75)"/><path d="m.3 58.35 37.05-18.5 34 17-.25.15.15 8.9-37 18.4-34-16.95V58.3l.05.05L34.25 75.3l.05.05L71.1 57M34.25 75.3v9m-34-25.95H.3z" fill="none" stroke="#510000" stroke-linecap="round" stroke-linejoin="round" stroke-width=".5"/><path d="m4.75-136.9 6.25-3.15 28.45 14.5v.05l-5.75 3.1v-.05h-.05L4.75-136.9" fill="url(#x)" fill-rule="evenodd" transform="translate(40.25 150.75)"/><path d="m35.4-103.35-29.85-14.5q-3.45-9.45-.9-19.05h.1l28.9 14.45v.05q-1.55 9.6 1.8 18.9l-.05.15" fill="url(#y)" fill-rule="evenodd" transform="translate(40.25 150.75)"/><path d="M39.45-125.5v19.85l-3.9 2.05-.1.1q-3.35-9.3-1.8-18.9l.05-.05v.05l5.75-3.1" fill="url(#z)" fill-rule="evenodd" transform="translate(40.25 150.75)"/><path d="m45 13.85 6.25-3.15L79.7 25.2v19.9l-3.9 2.05-.1.1v.15h-.05L45.8 32.9q-3.45-9.45-.9-19.05l.15-.05-.05.05L73.9 28.3h.05v.05l5.75-3.1M45 13.85h-.1m29 14.45v.05m1.8 18.9q-3.35-9.3-1.8-18.9" fill="none" stroke="#510000" stroke-linecap="round" stroke-linejoin="round" stroke-width=".5"/><path d="M12.65-127.05q.45.8.55 1.8l-.2 1.1-.6.45 1.1 1.25q.35.75.35 1.7-.1 1.15-.75 1.45l-1.65-.15q-1.55-.65-3.15-1.5v-8.65q1.35.85 2.9 1.35l1.45 1.2m-1.2 1.5q0-.55-.4-.85l-.85-.5v1.65q.05.1.2.1l.75.25q.3-.1.3-.65m5.8 7.2q.9.5 1.9 1-.6-1.25-.9-2.6l-1 1.6m-6.75-3.2q.65.3.95.25.45.05.5-.6-.05-.55-.5-1.05l-.95-.5-.3-.15v1.85l.3.2m8.85 4.75-1 .8q-.75-.9-1.3-2.1l-.6 1.15-2-1.05q1.7-3.55 3.9-6.75 1.45 5.5 3.9 10.7L20.1-115l-.75-1.8m8.5-2.5q.7 1.1.7 2.4-.1 1.05-.4 1.55-.4.55-1.15.4.75 1.45 1.65 2.75-.9.5-1.5.65l-2.4-4.1.05 2.75-1.95-.9-.2-8.5 3.3 1.45q1.05.5 1.9 1.55m-1.7.6-.9-.75q-.35-.05-.55-.3v2.5q.25.25.6.35.5.2.85 0 .3-.1.35-.75l-.35-1.05" fill="#300" fill-rule="evenodd" transform="translate(40.25 150.75)"/><path d="M41.05-103.4q-8.75 8.15-21.15 8.15-12.4 0-21.15-8.15Q-10-111.5-10-123q0-11.5 8.75-19.65 8.75-8.1 21.15-8.1 12.4 0 21.15 8.1Q49.8-134.5 49.8-123q0 11.5-8.75 19.6" fill="url(#A)" fill-rule="evenodd" transform="translate(40.25 150.75)"/></g></defs></svg>