<svg xmlns:xlink="http://www.w3.org/1999/xlink" height="104.05" width="62.8" xmlns="http://www.w3.org/2000/svg"><use height="104.05" width="62.8" xlink:href="#shape0"/><defs><linearGradient gradientTransform="matrix(.0032 0 0 .0051 17.45 -44.8)" gradientUnits="userSpaceOnUse" id="gradient0" spreadMethod="pad" x1="-819.2" x2="819.2"><stop offset="0" stop-color="#fff"/><stop offset="1" stop-color="#717171"/></linearGradient><g id="shape0"><path d="M52.6-141.45l-4.3.3q-3.3.2-6.65 1.15l-2.3.75h-.05q-3 1.05-5.5 2.55-5.45 3.25-9 8.7-2.3 3.45-3.3 7.05l-2.25 7.2q-1.35-8.25 3.8-16l2.25-3.05q3.2-3.65 7.5-6.05 2.15-1.2 4.65-2.05l2.15-.65 3.5-.9 9.25-1.2.25 2.2" fill="#aa6a2b" fill-rule="evenodd" transform="translate(-14.3 144.15)"/><path d="M73.25-139.2l3.35 1.35-.45 1.75-3.7-.25.8-2.85" fill="#da9c5f" fill-rule="evenodd" transform="translate(-14.3 144.15)"/><path d="M66.45-141.4l6.8 2.2-.8 2.85-4.5-1.75-2.15-1.15.65-2.15" fill="#a05e27" fill-rule="evenodd" transform="translate(-14.3 144.15)"/><path d="M52.6-141.45l-.25-2.2q5.5-.15 10.5 1.1l3.6 1.15-.65 2.15-4.35-1.4-3.55-.55-5.3-.25" fill="#613701" fill-rule="evenodd" transform="translate(-14.3 144.15)"/><path d="M52.35-143.65l-9.25 1.2-3.5.9-2.15.65q-2.5.85-4.65 2.05-4.3 2.4-7.5 6.05l-2.25 3.05q-5.15 7.75-3.8 16l2.25-7.2q1-3.6 3.3-7.05 3.55-5.45 9-8.7 2.5-1.5 5.5-2.55h.05l2.3-.75q3.35-.95 6.65-1.15l4.3-.3-.25-2.2q5.5-.15 10.5 1.1l3.6 1.15 6.8 2.2 3.35 1.35-.45 1.75-3.7-.25-4.5-1.75-2.15-1.15-4.35-1.4-3.55-.55-5.3-.25m-9.5-1l-3.2.75-2.45.8m1.9 1.65l.75-.25q4.25-1.2 8.2-1.65m24.95 1.95l-.8 2.85m-6.65-2.9l.65-2.15" fill="none" stroke="#49250e" stroke-linecap="round" stroke-linejoin="round" transform="translate(-14.3 144.15)"/><path d="M76.15-139.65l-6.65 6v7.4h-3.3v-7.15l-3-5.1 2.4-1 1.8 3.75 1.35-.65 5.4-4.75 2 1.5" fill="#a05e27" fill-rule="evenodd" transform="translate(-14.3 144.15)"/><path d="M76.15-139.65l-6.65 6v7.4h-3.3v-7.15l-3-5.1 2.4-1 1.8 3.75 1.35-.65 5.4-4.75 2 1.5z" fill="none" stroke="#49250e" stroke-linecap="round" stroke-linejoin="round" transform="translate(-14.3 144.15)"/><path d="M19.7-49.5v-63.75" fill="none" stroke="#d8d8d8" stroke-linecap="round" stroke-linejoin="round" transform="translate(-14.3 144.15)"/><path d="M19.2-49.5v-63.75" fill="none" stroke="#d5ffff" stroke-linecap="round" stroke-linejoin="round" transform="translate(-14.3 144.15)"/><path d="M20.05-48.95v2.5l.05 5.75-1 .1q-1.8 0-3.05-1.25-1.25-1.25-1.25-3.05l.2-1.25q.25 1 1.05 1.8.95.95 2.25 1.2v-5.8h1.75" fill="url(#gradient0)" fill-rule="evenodd" transform="translate(-14.3 144.15)"/><path d="M20.05-48.95v2.5l.05 5.75-1 .1q-1.8 0-3.05-1.25-1.25-1.25-1.25-3.05l.2-1.25q.25 1 1.05 1.8.95.95 2.25 1.2v-5.8h1.75z" fill="none" stroke="#666" stroke-linecap="round" stroke-linejoin="round" transform="translate(-14.3 144.15)"/></g></defs></svg>