<svg xmlns="http://www.w3.org/2000/svg" xmlns:xlink="http://www.w3.org/1999/xlink" height="371.072" width="699.712"><use height="370.9" transform="translate(.712 .172)" width="699" xlink:href="#a"/><defs><radialGradient cx="0" cy="0" gradientTransform="translate(-120 168) scale(.4928)" gradientUnits="userSpaceOnUse" id="c" r="819.2" spreadMethod="pad"><stop offset="0" stop-color="#956546"/><stop offset="1" stop-color="#7d513c"/></radialGradient><linearGradient gradientTransform="matrix(.2302 0 0 .1152 -58.7 150.1)" gradientUnits="userSpaceOnUse" id="b" spreadMethod="pad" x1="-819.2" x2="819.2"><stop offset="0" stop-color="#865833"/><stop offset="1" stop-color="#a37a61"/></linearGradient><g id="a"><path d="M-310.6 341v4l-9.05 4.5v-3.9l9.05-4.6m39-36.7 4.55-2.2-4.55 2.35v-.15" fill="#930" fill-rule="evenodd" transform="translate(530 20.9)"/><path d="m117.3 60.4 8.6 6.8h.05l8.6 6.85 7.25 5.75 8.4 6.6 9.15 7.25 9.15 7.25-39.3 20h-.1V104l-12.65 6.3-5.1-4.15-8.25-6.7-1.15-.9v-.05l-6-4.85-8.45-6.85-.1-.1-.2-.15v-.05L79 79.9l38.3-19.5m-388.9 260.75-39 19.85-9.05-7.6-8.45-7.15-8-6.8-6.95-5.85-8.45-7.15-8.35-7 37.05-18.8.05.05h.05l8.5 6.8 8.65 6.8 7.25 5.75 8.4 6.6 8.95 7.1 9.35 7.4m-48.05 12.25 38.7-19.65-38.7 19.65m-31.85-26.95 37.3-18.95-37.3 18.95m8.45 7.15 37.5-19.3-37.5 19.3m53.15-6.95-38.2 19.6 38.2-19.6m-46.2 12.8 37.8-19.4-37.8 19.4M125.95 67.2 87.5 86.8l38.45-19.6m-30 26.45 38.6-19.6-38.6 19.6m33.15 15.4 30.25-15.4-30.25 15.4m-17.75-2.9L150.2 86.4l-38.85 19.75m-8.25-6.7 38.7-19.65-38.7 19.65" fill="#7d513c" fill-rule="evenodd" transform="translate(530 20.9)"/><path d="m-319.65 349.5-57.75-28.9-152.1-76.15V223.8l19.05 9.5 19 9.55 19.2 9.6 18.8 9.4 19.05 9.55 18.55 9.25 19.15 9.6 19.3 9.65 8.4 4.2 49.35 41.5v3.9m-3.05-68.8 51.1 23.6v16.85l-9.35-7.4-8.95-7.1-8.4-6.6-7.25-5.75-8.65-6.8-8.5-6.8m-54.7 39.9v-20.7 20.7" fill="#86340d" fill-rule="evenodd" transform="translate(530 20.9)"/><path d="M-529.5 223.8v-.05l9.05-4.5 19.05 9.5 19.05 9.5 19.25 9.65 18.8 9.4 19.05 9.5 18.55 9.3 19.25 9.55v.05l19.3 9.6h.05l8.25 4.15 8.35 7 8.45 7.15 6.95 5.85 8 6.8 8.45 7.15 9.05 7.6-9.05 4.6-49.35-41.5 9.15-4.65-9.15 4.65-8.4-4.2-19.3-9.65-19.15-9.6-18.55-9.25 9.15-4.6-9.15 4.6-19.05-9.55-18.8-9.4 9.15-4.55-9.15 4.55-19.2-9.6-19-9.55 9.05-4.55-9.05 4.55-19.05-9.5m47.15 14.45-9.1 4.6 9.1-4.6m94.9 47.4-9.25 4.6 9.25-4.6m-56.85-28.35-9.15 4.55 9.15-4.55m37.6 18.8-9.15 4.55 9.15-4.55m29.3 23.8 9.25-4.6-9.25 4.6" fill="#956546" fill-rule="evenodd" transform="translate(530 20.9)"/><path d="m87.4 86.7-.45.25.15-.35.1-.05.2.15" fill="url(#b)" fill-rule="evenodd" transform="translate(530 20.9)"/><path d="M-520.45 219.25-40.9-20.4l4.2 2.1 3.95 1.95 10.9 5.45 1.8.9 4.75 2.35 5.8 2.9L-.05 0 1.7.85 16.45 8.2l1.95 1 1.3.65 1.55.75 4.6 2.3.45.25 4.8 2.4.6.3 3.55 1.8q8 3.95 16.05 8l6.15 3.1 3.85 1.95 2.15 1.05 5.75 2.9 3.65 1.8L111.4 55.7l5.9 4.7L79 79.9l8.2 6.6v.05l-.1.05-.15.35.45-.25.1.1 8.45 6.85 6 4.85v.05l1.15.9 8.25 6.7 5.1 4.15-383.5 191.8-4.55 2.2-51.1-23.6-.1-.05-37.05 18.8-8.25-4.15h-.05l-19.3-9.6v-.05l-19.25-9.55-18.55-9.3-19.05-9.5-18.8-9.4-19.25-9.65-19.05-9.5-19.05-9.5m254.15 6.2.05-.05h-.05v.05" fill="url(#c)" fill-rule="evenodd" transform="translate(530 20.9)"/><path d="M129.1 120.9v.05l-.9.45-.5.25-1 .5-2 1-1 .5-2.5 1.25-311.25 155.55-1 .5-.5.25-1 .5-2 1-1 .5-2.5 1.25-73.55 36.7v-16.7l4.55-2.35 383.5-191.8 12.65-6.3v16.9" fill="#ae5e00" fill-rule="evenodd" transform="translate(530 20.9)"/><path d="M-520.45 219.25-40.9-20.4l4.2 2.1 3.95 1.95 10.9 5.45 1.8.9 4.75 2.35 5.8 2.9L-.05 0l.6.3L1.7.85 16.45 8.2l4.8 2.4 4.6 2.3.45.25 4.8 2.4.6.3 3.55 1.8q8 3.95 16.05 8l6.15 3.1 2.1 1 1.3.65 8.35 4.2 3.05 1.5.6.35M111.4 55.7l5.9 4.7 8.6 6.8h.05l8.6 6.85 7.25 5.75 8.4 6.6 9.15 7.25 9.15 7.25-39.3 20m-.1.05-.9.45-.5.25-1 .5-2 1-1 .5-2.5 1.25-311.25 155.55-1 .5-.5.25-1 .5-2 1-1 .5-2.5 1.25-73.55 36.7-39 19.85v4l-9.05 4.5-57.75-28.9-152.1-76.15v-20.7l9.05-4.5m152.35 76.05 8.25 4.15 37.05-18.8.05.05h.05l51.1 23.6m4.55-2.2 383.5-191.8M87.4 86.7l-.45.25.15-.35.1-.05M79 79.9l38.3-19.5m-383.6 165.05v-.05h.05l-.05.05m-56.4 55.25 8.5 6.8 8.65 6.8 7.25 5.75 8.4 6.6 8.95 7.1 9.35 7.4V304.3m0 .15 4.55-2.35M-310.6 341l-9.05-7.6-8.45-7.15-8-6.8-6.95-5.85-8.45-7.15-8.35-7-9.15 4.65 49.35 41.5 9.05-4.6m29.65-27.25-38.7 19.65m0 16.1v-3.9m-190.8-112.3 19 9.55 9.1-4.6m-19.05-9.5-9.05 4.55-19.05-9.5m132.8 66.45 9.25-4.6m19.3 9.65h.05m-104.15-42.85 18.8 9.4 9.15-4.55m-27.95-4.85 9.15-4.55m37.85 18.9-9.15 4.6 18.55 9.25 9.15-4.55m-46.75-14.25 19.05 9.55m57 28.5v20.7m8.4-16.5-8.4-4.2-19.3-9.65-19.15-9.6m47.7 14.65-9.25 4.6m-114.05-57.05 19.2 9.6m173.95 47.6-37.8 19.4m8 6.8 38.2-19.6m-15.65-12.35-37.5 19.3m28.85-26.1-37.3 18.95m486.05-232.4-38.6 19.6M87.5 86.8l38.45-19.6m-68.5-38.45 3.85 1.95 2.15 1.05 5.75 2.9 3.65 1.8M16.45 8.2l1.95 1 1.3.65 1.55.75M129.1 120.9V104l-12.65 6.3m25.35-30.5-38.7 19.65m47.1-13.05-38.85 19.75m48-12.5-30.25 15.4M-.05 0 1.7.85" fill="none" stroke="#000" stroke-linecap="round" stroke-linejoin="round" transform="translate(530 20.9)"/><path d="M72.85 36.45 111.4 55.7m-631.85 163.55 19.05 9.5 19.05 9.5 19.25 9.65 18.8 9.4 19.05 9.5 18.55 9.3 19.25 9.55v.05l19.3 9.6m484.6-185-5.1-4.15-8.25-6.7-1.15-.9v-.05l-6-4.85-8.45-6.85-.1-.1m-.2-.15v-.05L79 79.9m8.2 6.65.2.15" fill="none" stroke="#000" stroke-linecap="round" stroke-linejoin="round" transform="translate(530 20.9)"/><path d="m-311.6 285.85 71.55-35.75 2.5-1.25 1-.5 2-1 1-.5.5-.25 1-.5L79.2 90.55l2.5-1.25 1-.5 2-1 1-.5.5-.25.9-.45m-378.55 208.55 66.15-33.05 2.5-1.25 1-.5 2-1 1-.5.5-.25 1-.5L93.95 102.55l2.5-1.25 1-.5 2-1 1-.5.5-.25 1-.5M-463.1 247.9 16.45 8.2M-368.1 295.3 111.4 55.7m-518.1 220.4L72.85 36.45M-444.3 257.3 35.25 17.65m-460.5 249.15L54.3 27.15M-387.45 285.7 92.1 46.05m-574.45 192.2L-2.8-1.4m-19.05-9.5L-501.4 228.75" fill="none" stroke="#000" stroke-linecap="round" stroke-linejoin="round" transform="translate(530 20.9)"/></g></defs></svg>