<svg xmlns:xlink="http://www.w3.org/1999/xlink" height="43.9" width="42.7" xmlns="http://www.w3.org/2000/svg"><use height="43.9" width="42.7" xlink:href="#shape0"/><defs><radialGradient cx="0" cy="0" gradientTransform="matrix(-.0526 0 0 -.0537 -33.15 -34.65)" gradientUnits="userSpaceOnUse" id="gradient0" r="819.2" spreadMethod="pad"><stop offset="0" stop-color="#fff"/><stop offset="1"/></radialGradient><radialGradient cx="0" cy="0" gradientTransform="matrix(.0123 0 0 .0126 -29.05 -34.45)" gradientUnits="userSpaceOnUse" id="gradient1" r="819.2" spreadMethod="pad"><stop offset="0" stop-color="#fff"/><stop offset="1"/></radialGradient><g id="shape0"><path d="M-7.15-35.85l4.9 2.55-7.35 3.7-11.05 5.65-12.4-6.35-4.9-2.6v.05H-38v-.05l2.15-1.1 1.75-.85 1.3-.7 5.3-2.7 2.15-1.1 5.95-3 1.05.65-4.7 2.35 1.85 1 .45.2 1.8.9v.1l2.3 1.1.1.05.05.05h.1l.35.2 1.65.85h.05l2.2 1.15 3.45-1.75 1.1-.6.45.25m-4.2 4.5v-.15h-.05l-.1-.05-1.7-.9-1.4.6-.05 1.25v.05l.6.3.2.15 1.25.6 1.25-.6v-1.25l4.65-2.4-4.65 2.4m-7.6-1.4v-.15l.05-.05.05-.35v-.5l-.15-.45q-.2-.6-.7-1.05.5.45.7 1.05l.15.45v.5l-.05.35-.05.05v.15H-19l.05-.1-.1-.2v-.1l.05-.35v-.25l-.05-.2-.1-.5-.55-.85-1.25-1q-1.65-.9-3.8-1.05h-1.85l-1 .1q-1.6.25-2.8.95-1.45.8-1.8 1.85l-.15.5v.8-.5l.05.45v.05h-.05v.45q-.05 1.5 1.95 2.6 1.95 1.05 4.7 1.05l2.45-.25 2.2 1.15v1.65l.3.3h.05l.7.15.7-.15h.05l.3-.3v-2.3l-.3-.3-.75-.15-.75.15-.2.15-.1.15-1.3-.7q.75-.25 1.4-.6 1.35-.8 1.85-2.05l.15-.6m.65 1.15v.25-.25m.7 3.4l3.75-1.9-3.75 1.9m-14.75-5.25l.05.25-.05-.25m4.75 1.95l-.85-.3-.85-.3v-.5l1.25.6.45.5" fill="url(#gradient0)" fill-rule="evenodd" transform="translate(44.45 42.85)"/><path d="M-18.35-41.7l.9.45-4 2.1 2.6 1.35 3.9-2.1.55.3-1.05.55-3.5 1.9v-.1l-1.8-.9-.45-.2-1.85-1 4.7-2.35m-.6 8.95l-.15.6q-.5 1.25-1.85 2.05-.65.35-1.4.6l-1.2-.65q1.4-.25 2.6-.9 1.4-.8 1.8-1.85l.1-.25v.1l.1.2-.05.1h.05m-4.3 3.45l-2.45.25q-2.75 0-4.7-1.05-2-1.1-1.95-2.6v-.45h.05q.25 1.2 1.9 2.1 1.95 1.1 4.7 1.1h1.05l1.4.65" fill="#666" fill-rule="evenodd" transform="translate(44.45 42.85)"/><path d="M-15.45-39.05l2.15 1.1v.05h.05l2.25 1.2 2.3 1.2-3.45 1.75-2.2-1.15h-.05l-1.65-.85-.35-.2h-.1l-.05-.05-.1-.05-2.3-1.1 3.5-1.9M-11-36.7l-3.35 1.8 3.35-1.8m-2.3-1.25l-3.35 1.9 3.35-1.9" fill="#0f0" fill-rule="evenodd" transform="translate(44.45 42.85)"/><path d="M-17.45-41.25l2.5 1.35-3.9 2.1-2.6-1.35 4-2.1" fill="#06f" fill-rule="evenodd" transform="translate(44.45 42.85)"/><path d="M-14.65-30.6l.05-1.25 1.4-.6 1.7.9.1.05h.05v1.4l-1.25.6-1.25-.6-.2-.15-.6-.3v-.05m-3.65-1v.25-.25m6.9.1l-1.2.7-.2-.1-1.8-.95 1.8.95.2.1 1.2-.7m-1.2.7v1.3-1.3m-13.05-3.8l.95.25q.5.2.5.55 0 .35-.5.6l-1.2.2-1.2-.2q-.5-.25-.5-.6l.5-.55.75-.2v.6l.1.15.25.05.25-.05.1-.15v-.65.65l-.1.15-.25.05-.25-.05-.1-.15v-1.2l.1-.15.25-.05.25.05.1.15v.55m-.7-.55l.1.15.25.1.25-.1.1-.15-.1.15-.25.1-.25-.1-.1-.15" fill="#fff" fill-rule="evenodd" transform="translate(44.45 42.85)"/><path d="M-32.35-33.65v-.3l.15-.5q.35-1.05 1.8-1.85 1.2-.7 2.8-.95l1-.1h1.85q2.15.15 3.8 1.05l1.25 1 .55.85.1.5.05.2v.25l-.05.35-.1.25q-.4 1.05-1.8 1.85-1.2.65-2.6.9l-3.6-1.75-.4-.7-1.2-.6-.55.6v.5l.85.3.85.3.05.05 2.9 1.5h-1.05q-2.75 0-4.7-1.1-1.65-.9-1.9-2.1v-.05l-.05-.45m3.9 2.5v-.65.65m2.1-3.4l-.75.2-.5.55q0 .35.5.6l1.2.2 1.2-.2q.5-.25.5-.6t-.5-.55l-.95-.25v-.55l-.1-.15-.25-.05-.25.05-.1.15v.6" fill="url(#gradient1)" fill-rule="evenodd" transform="translate(44.45 42.85)"/><path d="M-22.35-29.5l1.3.7.1-.15.2-.15.75-.15.75.15.3.3v2.3l-.3.3h-.05l-.7.15-.7-.15h-.05l-.3-.3v-1.65l-2.2-1.15-1.4-.65-2.9-1.5-.05-.05-.45-.5-1.25-.6.55-.6 1.2.6.4.7-.4.45.4-.45 3.6 1.75 1.2.65m1.3 1.35v-.65l.3.35.65.1h.1l.75-.1.3-.35-.3.35-.75.1h-.1l-.65-.1-.3-.35v.65" fill="#ccc" fill-rule="evenodd" transform="translate(44.45 42.85)"/><path d="M-2.25-33.3v21.7l-9.85 5v-.05l2.5-1.25v-21.7l7.35-3.7M-37.8-11.2l-.15-.05V-32.9l4.9 2.6 12.4 6.35V-2.3l-17.1-8.9h-.05m-.15-21.55l4.9 2.45-4.9-2.45" fill="#2c2c2c" fill-rule="evenodd" transform="translate(44.45 42.85)"/><path d="M-12.1-6.65l-8.55 4.35v-21.65L-9.6-29.6v21.7l-2.5 1.25" fill="#333" fill-rule="evenodd" transform="translate(44.45 42.85)"/><path d="M-20.65-2.3v.05h.05l.05-.05v.05l.15.05v.05l-6.85 3.2-17.2-9.25 6.65-3h.05l17.1 8.9M-22.2-1v.05h-.05l.05-.05m-.6.35l-.05-.05.1-.05-.05.1" fill-opacity=".2" fill-rule="evenodd" transform="translate(44.45 42.85)"/><path d="M-19.4-42.35l12.25 6.5 4.9 2.55v21.7l-9.85 5m0-.05l-8.55 4.35v-21.65L-9.6-29.6v21.7l-2.5 1.25m-25.7-4.55l-.15-.05v-21.5l-.05-.1v-.05l2.15-1.1 1.75-.85 1.3-.7 5.3-2.7 2.15-1.1 5.95-3m3.95 3.3l2.15 1.1v.05h.05l2.25 1.2 2.3 1.2m-9.65-6.2l-4.7 2.35 1.85 1 .45.2 1.8.9v.1l3.5-1.9m1.1 4.15h-.05.05l2.2 1.15 3.45-1.75m-5.95 4.9l.05-1.25 1.4-.6 1.7.9.1.05h.05v.15l4.65-2.4m-7.65-1.15l3.35-1.8m-5.65.65l.1.05.05.05h.1l.35.2 1.65.85m-5.3-.4q.5.45.7 1.05l.15.45v.5l-.05.35-.05.05v.15l-.15.6q-.5 1.25-1.85 2.05-.65.35-1.4.6l1.3.7v.65l-2.2-1.15-2.45.25q-2.75 0-4.7-1.05-2-1.1-1.95-2.6v-1.25l.15-.5q.35-1.05 1.8-1.85 1.2-.7 2.8-.95l1-.1h1.85q2.15.15 3.8 1.05l1.25 1 .55.85.1.5.05.2v.25l-.05.35v.1l.1.2m-2 3.9l.2-.15.75-.15.75.15.3.3v2.3l-.3.3h-.05l-.7.15-.7-.15h-.05l-.3-.3v-1.65m2-5l-.1.25q-.4 1.05-1.8 1.85-1.2.65-2.6.9l1.2.65m3.4.7l-.3.35-.75.1h-.1l-.65-.1-.3-.35m6.45-3.05l1.8.95.2.1 1.2-.7m-2.45 1.4l-.2-.15-.6-.3m3.3.45l-1.25.6-1.25-.6-3.75 1.9m5-1.3v-1.3m1.25-.55v1.15m1.75.6l7.35-3.7m-16.7-3.85l2.3 1.1 3.35-1.9m-19 4.75l-.05-.25m0-.2l.05.45v.05q.25 1.2 1.9 2.1 1.95 1.1 4.7 1.1h1.05l-2.9-1.5-.05-.05-.85-.3v.65m-9.5-1.6v-.1H-38m.05 0v-.05m4.9 2.6l12.4 6.35m-12.4-6.35l-4.9-2.45m11.6-1.8l-.75.2-.5.55q0 .35.5.6l1.2.2 1.2-.2q.5-.25.5-.6t-.5-.55l-.95-.25v.65l-.1.15-.25.05-.25-.05-.1-.15v-1.2l.1-.15.25-.05.25.05.1.15v.55m0-.55l-.1.15-.25.1-.25-.1-.1-.15m-1.25 3.65l-.45-.5-1.25-.6v.5l.85.3m1.3-.1l-.4-.7-1.2-.6-.55.6m2.15.7l-.4.45m2.9 1.5l1.4.65m-.3-.85l-3.6-1.75m6.5 29.6l-17.1-8.9m20.3-30.05l-4 2.1 2.6 1.35" fill="none" stroke="#000" stroke-linecap="round" stroke-linejoin="round" transform="translate(44.45 42.85)"/><path d="M-15.9-18v-6m-3.15 7.6v-6m1.05 4.95v-6m1.05 4.95v-5.75M-15.9-6v-6m-3.15 7.6v-6M-18-5.45v-6m4.2 3.35l-.1-6m1.15 6.55v-6m2.15 3.9v-6m-4.25 8.6v-6m-2.1 6.55v-6m5.25 3.9v-6m-2.2-5.5l-.1-6m1.25 6.55v-6m1.05 4.95v-5.25m1.1 4.2v-5.25m-4.25 7.85v-6" fill="none" stroke="#666" stroke-linecap="round" stroke-linejoin="round" transform="translate(44.45 42.85)"/></g></defs></svg>