<svg xmlns:xlink="http://www.w3.org/1999/xlink" height="627.15" width="1480.8" xmlns="http://www.w3.org/2000/svg"><g transform="translate(840.25 901.6)"><use height="108" transform="matrix(.9998 0 0 1 439.205 -570.048)" width="42.5" xlink:href="#sprite0"/><use height="108" transform="matrix(.9998 0 0 1 119.605 -729.848)" width="42.5" xlink:href="#sprite0"/><use height="108" transform="matrix(.9998 0 0 1 -.395 -789.848)" width="42.5" xlink:href="#sprite0"/><use height="108" transform="matrix(.9998 0 0 1 279.605 -649.898)" width="42.5" xlink:href="#sprite0"/><use height="108" transform="matrix(.9998 0 0 1 319.205 -630.048)" width="42.5" xlink:href="#sprite0"/><use height="108" transform="matrix(.9998 0 0 1 165.555 -706.898)" width="42.5" xlink:href="#sprite0"/><use height="510.5" transform="translate(-99.05 -901.6)" width="734.85" xlink:href="#shape1"/><use height="41.25" transform="translate(-411.3 -670.25)" width="44.3" xlink:href="#sprite1"/><use height="41.25" transform="translate(-597.2 -577.25)" width="44.3" xlink:href="#sprite1"/><use height="41.25" transform="translate(-238.1 -755.25)" width="44.3" xlink:href="#sprite1"/><use height="41.25" transform="translate(-497.9 -627.25)" width="44.3" xlink:href="#sprite1"/><use height="41.25" transform="translate(-324.7 -714.25)" width="44.3" xlink:href="#sprite1"/><use height="41.25" transform="translate(-144.7 -802.25)" width="44.3" xlink:href="#sprite1"/><use height="531.95" transform="translate(-840.25 -841.5)" width="773.05" xlink:href="#shape3"/><use height="234.25" transform="matrix(.9998 0 0 .9999 591.751 -508.686)" width="17.15" xlink:href="#sprite2"/><use height="246.6" transform="matrix(-1 0 0 1 640.55 -524.65)" width="40.4" xlink:href="#sprite3"/></g><defs><g id="shape0"><path d="M-20-49.45v76.3L17.1 45.4 17-30.9l-37-18.55m-1-3.3l40 20v86.5l-40-20v-86.5m39 100.1L-20 28.3v4.5l38 19.05v-4.5" fill="#da9c5f" fill-rule="evenodd" transform="translate(21.25 54)"/><path d="M-20-49.45L17-30.9l.1 76.3L-20 26.85v-76.3" fill="#c7cfcb" fill-opacity=".4" fill-rule="evenodd" transform="translate(21.25 54)"/><path d="M-20-14l2.3 1.05V26.8L17 43.95l.1-4.6v6.05L-20 26.85V-14" fill="#a05e27" fill-rule="evenodd" transform="translate(21.25 54)"/><path d="M8.5-35.15L17-30.9l.05 35.4L8.4.15l.1-35.3L8.4.15-1.05-4.6l-9.4-4.7-8.15-4.1v-.05l-1.2-.55-.2-.1v-35.35l9.65 4.9 9.4 4.75 9.45 4.65M-19-14.3v-34 34m17.95 9.7l.1-35.2-.1 35.2m-9.3-39.95l-.1 35.25.1-35.25" fill="#fff" fill-rule="evenodd" transform="translate(21.25 54)"/><path d="M-21-52.75l2-1 40 20v86.5l-2 1v-86.5l-40-20" fill="#c87b31" fill-rule="evenodd" transform="translate(21.25 54)"/><path d="M18 47.35v4.5L-20 32.8v-4.5l38 19.05" fill="#e2bb87" fill-rule="evenodd" transform="translate(21.25 54)"/><path d="M17 43.75v.2L-17.7 26.8v-.15L17 43.75" fill="#da9c5f" fill-rule="evenodd" transform="translate(21.25 54)"/><path d="M29.65 54.15l8.65 4.35-.05-35.4-8.5-4.25m-.1 35.3L20.2 49.4l-9.4-4.7-8.15-4.1v-.05L1.45 40m-.2-.1V4.55l9.65 4.9 9.4 4.75 9.45 4.65M38.3 58.5l.05 40m-.1-.75l-34.7-17.1m35.7 20.7l-38-19.05" fill="none" stroke="#a6621e" stroke-linecap="round" stroke-linejoin="round" stroke-width=".5"/><path d="M.25 1.25l2-1 40 20v86.5l-2 1-40-20V1.25m40 20v86.5" fill="none" stroke="#633612" stroke-linecap="round" stroke-linejoin="round" stroke-width=".5"/><path d="M1.25 82.3v4.5l38 19.05v-4.5" fill="none" stroke="#a6621e" stroke-linecap="round" stroke-linejoin="round" stroke-width=".5"/><path d="M29.75 18.85l-.1 35.3M10.8 44.7l.1-35.25m9.4 4.75l-.1 35.2M2.25 5.7v34" fill="none" stroke="#c9b9a0" stroke-linecap="round" stroke-linejoin="round" stroke-width=".5"/><path d="M.25 1.25l40 20" fill="none" stroke="#633612" stroke-linecap="round" stroke-linejoin="round" stroke-width=".5"/><path d="M-19.95-12.65l.35-.8 37 18.5.5.6-.05.75-.55.5-.8-.05L-20-11.4l.05-1.25" fill="#da9c5f" fill-rule="evenodd" transform="translate(21.25 54)"/><path d="M37.85 29.3L2.25 11.5M37.9 36.35L2.25 18.5M38 43.4L2.25 25.5m35.6 24.9L2.25 32.6" fill="none" stroke="#c9b9a0" stroke-linecap="round" stroke-linejoin="round" stroke-width=".5"/></g><g id="shape1"><path d="M635.55-513.85v3.5l-56.45-28.2-24.5-12.25v-.05l-35.2 17.55v-3.5l35.15-17.55 3.4-1.7v3.4l77.6 38.8m-35.7 76.45v1.1l-45.3-22.6v-.1l-12.35 6.15h-1.6l13.95-6.95v-.2l45.3 22.6M595-409.7v1.7l-7.8-3.85-32.85-16.4-.1-.05v-.1l-3.15 1.55v-.8l3.15-1.55v-2.65l.1.05v2.5q13.95 7 27.95 13.95h.25l.5.4 9.6 4.8 2.35.45M-98.8-841.85v-3.55l60.3 30.1 18.35 9.15v2.95-2.95l14.85 7.4 182 90.85v-.05l342.6 171v3.5L265.75-660-5.3-795.25l-14.85-7.4-78.65-39.2m78.65 38.65v.55-.55m14.85 4.45v3.5-3.5m563.25 246.1l-3.4-1.7 3.4 1.7m-3.6 124.4v-1.05 1.05" fill="#a05e27" fill-rule="evenodd" transform="translate(99.05 901.6)"/><path d="M-98.8-845.4v-37.1l38.15-19.1 696.2 347.9v39.85l-77.6-38.8v-3.4l-3.4 1.7-35.15 17.55v3.3l-.1.05v-3.5l-342.6-171v.05l-182-90.85-14.85-7.4-18.35-9.15-60.3-30.1m78.65 39.25v2.95-2.95m578.1 253.35l1.35-.65-1.35-.7 1.35.7-1.35.65" fill="#333" fill-rule="evenodd" transform="translate(99.05 901.6)"/><path d="M635.55-510.35v3.5l-32.5-16.25-48.45-24.2v-.05l-35.2 17.55v-3.5l35.2-17.55v.05l24.5 12.25 56.45 28.2m-35.7 74.05v3.5l-45.3-22.6v-.05l-.2.1v-.9.9l-5.1 2.5h-7.05l12.35-6.15v.1l45.3 22.6M595-408v3.5l-20.9-10.45h-.05l-19.8-9.85v-.05l-3.15 1.55v-3.55l3.15-1.55v.1l.1.05v1.1-1.1l32.85 16.4L595-408M483.25-547.95l-1.9-1-215.6-107.55v.05l-89.05-44.4v-.05l-15.95-7.95h-.05l-166-82.9v-3.5 3.5l-14.85-7.45-2.6-1.25L-47.8-813l1.1.55-1.1-.55-1.05-.5-20.7-10.4-21.05-10.55v.05l-8.2-4.1v-3.35l78.65 39.2v3.45-3.45l14.85 7.4L265.75-660 519.3-533.45v3l-1.05-.5 1.05.5v.05l-1.05-.55-18-8.85-17-8.6v.45m-1.9-1l1.9.95-1.9-.95" fill="#da9c5f" fill-rule="evenodd" transform="translate(99.05 901.6)"/><path d="M635.55-506.85v3.9l-80.1-40v-.8l-.8.4-.1-.05v.1l-35.2 17.6v-4.7h.05v.6l35.2-17.55v.05l48.45 24.2 32.5 16.25m0 85.25v2.05l-35.7-17.85-45.3-22.6v.05l-14.3 7.1h-3.9l18.2-9.1v-.1l81 40.45m0 30.05v.45q-5.3-2.8-11.05-4.4l-2.65-.85v-.35H621q-1.9-.75-3.7-1.65l-5.65-2.35-14.55-7.25-1.55-1.65-.55-.1-2.35-.45-9.6-4.8-.5-.4h-.25q-14-6.95-27.95-13.95v-2.5l-.1-.05v2.65l-3.15 1.55v-2.7l3.25-1.6v-.1l79.7 39.8v-.05l1.5.75m-152.3-152.2v-4.65l17 8.6 18 8.85 1.05.55v4.7l-36.05-18.05M-5.3-791.7l1.35.65v4.25l-1.35-.65-14.8-7.4-49.3-24.65v-4.3l-.2.05.05-.15 20.7 10.4 1.05.5 25.05 12.55 2.55 1.3.05.05v2.05h.05v-2.05l14.8 7.4v4.25-4.25m559.65 359.9v-.15.15M483.25-548l17 8.2-17-8.2" fill="#d8dcdb" fill-rule="evenodd" transform="translate(99.05 901.6)"/><path d="M635.55-500v4l-80.9-40.4-.1-.05v.1l-35.2 17.6v-4l35.2-17.6v-.1l.1.05 80.9 40.4m0 69.8v4.05l-81-40.5v.1l-27.45 13.7h-1.55v-.2h-6.05l35.05-17.5v-.1l81 40.45m-116.4-22.85h-8L483.25-467v-4l35.9 17.95m-35.9-83.75v-4l36.05 18.05v4l-36.05-18.05M-3.95-783.85v4l-1.35-.65v-4 4l-14.8-7.4-49.3-24.65v-4l49.3 24.65 14.8 7.4 1.35.65m0 69.85v4l-1.35-.65-14.8-7.45v.05l-49.3-24.65v-3.95l49.3 24.6v-.05l14.8 7.45v4-4l1.35.65" fill="#e7eae7" fill-rule="evenodd" transform="translate(99.05 901.6)"/><path d="M635.55-496v3.5l-80.9-40.4-.1-.05v.1l-35.2 17.6v-3.5l35.2-17.6v-.1l.1.05 80.9 40.4m0 62.35v3.45l-81-40.45v.1l-35.05 17.5h-.1v-3.45l35.15-17.55v-.1l81 40.5m-81.2-21.7l79.7 39.75v-.05l1.5.75v23.35l-1.5-.75v.05l-79.7-39.8v.1l-3.25 1.6v-22.5h-1.85l5.1-2.5v-.05.05m-35.1-1.15v3.45h-.1L483.25-471v-3.5l36 18m-36-76.8v-3.5l36.05 18.05v3.5l-36.05-18.05M-3.95-779.85v3.5L-5.3-777l-14.8-7.4h-.05l-16.15-8.05L-69.4-809v-3.55l49.3 24.65 14.8 7.4 1.35.65m0 62.35v3.5l-1.35-.65-14.8-7.45v.05l-49.3-24.6v-3.55l49.3 24.65v-.05l14.8 7.45v3.5-3.5l1.35.65M552.1-443.35h.05l-.05-.05v.05M-5.3-777v-3.5 3.5" fill="#eceeeb" fill-rule="evenodd" transform="translate(99.05 901.6)"/><path d="M635.55-502.95v2.95l-80.9-40.4-.1-.05v.1l-35.2 17.6v-2.95l35.2-17.6v-.1l.1.05.8-.4v.8l80.1 40m0 76.8v4.55l-81-40.45v.1l-18.2 9.1h-9.25l27.45-13.7v-.1l81 40.5M483.25-540.8v-2.95l36.05 18.05v2.95l-36.05-18.05m-487.2-246v2.95l-1.35-.65-14.8-7.4-49.3-24.65v-2.95l49.3 24.65 14.8 7.4 1.35.65m-1.35 2.3v-2.95 2.95" fill="#e2e7e5" fill-rule="evenodd" transform="translate(99.05 901.6)"/><path d="M635.55-492.5v55.8l-81-40.45v.1L519.4-459.5v-4.5l-.05-48.25 35.2-17.6v-3.1l.1.05 80.9 40.4m-116.3 28.45v4.55l-36-18v-52.8l36.05 18.05-.05 48.2M-5.3-777v3l1.35.7v52.8l-1.35-.65-64.1-32V-809l33.1 16.55 16.15 8.05h.05l14.8 7.4m0 3v52.85V-774" fill="#f1f1ef" fill-rule="evenodd" transform="translate(99.05 901.6)"/><path d="M635.55-436.7v3.05l-81-40.5v.1L519.4-456.5v-3l35.15-17.55v-.1l81 40.45m-116.3-22.8v3l-36-18v-3l36 18m-36-70.8v-3l36.05 18.05v3l-36.05-18.05M-3.95-720.5v3l-1.35-.65v-3 3l-14.8-7.45v.05l-49.3-24.65v-2.95l64.1 32 1.35.65m523.3 208.25v-3l35.2-17.6v3l-35.2 17.6" fill="#f1f1ee" fill-rule="evenodd" transform="translate(99.05 901.6)"/><path d="M552.1-443.35v-.05l.05.05h-.05" fill="url(#gradient0)" fill-rule="evenodd" transform="translate(99.05 901.6)"/><path d="M29.5 77.7L8.45 67.15m0 .05l-8.2-4.1m0-6.9l60.3 30.1 18.35 9.15 14.85 7.4 182 90.85m0-.05l342.6 171v3.5m.1-3.35l35.15-17.55 3.4-1.7m0 3.4l77.6 38.8M51.25 88.6l-1.05-.5-20.7-10.4m624.1 269.55l3.4 1.7m-3.6 96.4v.85m0 23.45v.15l-.1-.05m.1 3.6v1.1m0-2.15v1.05" fill="none" stroke="#49250e" stroke-linecap="round" stroke-linejoin="round" stroke-width=".5"/><path d="M698.9 468.8l-45.3-22.6m0-.05l-.2.1-5.1 2.5m45.75 43.15v5.2l-20.9-10.45m-.05 0l-19.8-9.85m0-.05l-3.15 1.55M582.3 353.65l-1.9-1L364.8 245.1m0 .05l-89.05-44.4m0-.05l-15.95-7.95h-.05l-166-82.9v17.75m-42.5-39l25.05 12.55 2.6 1.25m0-3.45L.25 59.75m78.65 39.2l14.85 7.4v-3.5M582.3 353.6l-1.9-.95m18.9 9.15l18 8.85 1.05.5v-3L364.8 241.6 93.75 106.35v3.5L78.9 102.4m623.2 276.1l32.5 16.25m0-3.5l-56.45-28.2-24.5-12.25m0-.05l-35.2 17.55m0 3.5l35.2-17.55m0 .05l48.45 24.2m-83.75-7.35v.05m35.25 71.4l-12.35 6.15m12.15 24.6l32.85 16.4 7.8 3.85m-40.65-20.25l-.1-.05m0-.1l-3.15 1.55m48.75-9.45l-45.3-22.6m-54.3-80.9l-17-8.2M93.75 180.45v3m0 3.5v-3.5m0 3.5v4m0-10.5V127.6" fill="none" stroke="#633612" stroke-linecap="round" stroke-linejoin="round" stroke-width=".5"/><path d="M618.35 368.15l.1-.05M657 347.45l1.35.7-1.35.65" fill="none" stroke="#000" stroke-linecap="round" stroke-linejoin="round" stroke-width=".5"/><path d="M519.4-464l-.15-.05m.05-56.15h.05" fill="none" stroke="red" stroke-linecap="round" stroke-linejoin="round" transform="translate(99.05 901.6)"/><path d="M-8.1-804.95q2.15-1.15 4.25-2.25l6.4 3.15-3.65 1.85 3.65-1.85.05.05v9.05l-2.7 1.35-.95.5v3.25l.1.05.1.05.75.4v84.6l-2-1v-96.05l-1.85-.95-1.1-.6-1-.55-.9-.45-1.15-.6m7 2.75l-1 .5 1-.5m479.9 240.15l-1.15-.6 4.25-2.3 6.4 3.2-3.65 1.8 3.65-1.8h.05v9.1l-2.7 1.35v-.05l-.95.5v3.3l.1.05.1.05.75.35v85.2l-2-.95v-96.55l1-.55-1 .5v-.05l-1.85-1-1.1-.6-1-.5-.9-.45m6.1 14.6l.75.6-.75-.6m74.2-13.8l-4.6 2.35v136.4h-2v-1.25l.75-.6-.75.6v-.25l.75-.35.1-.05.1-.05v-3.25l-.6-.35-.35-.2v-26l.75-.6-.75.6v-.25l.75-.35.1-.05.1-.05v-3.3l-.95-.5v-87.55l.75-.6-.75.6v-.25l.75-.35.1-.05.1-.05v-3.3l-.95-.5v.05l-2.7-1.35v-9.1h.05l4.65-2.4 4.6 2.35m-2.6 137.45l-.75-.6.75.35v.25m0-30.5l-.75-.6.75.35v.25m0-92.05l-.75-.6.75.35v.25m-2-12.55l-4.65-2.3 4.65 2.3m-42 14.25l7.1-3.5 7.15 3.55-7.15 3.5-7.05-3.45-.05-.05v-.05m-348.8-174.3v-.05l-1.85-1-1.1-.6-1-.5-.9-.45-1.15-.6 4.25-2.3 6.4 3.2h.05v9.1l-2.7 1.35v-.05l-.95.5v3.3l.1.05.1.05.75.35v84.75h-2v-97.05l1-.55-1 .5m4.65-2.3l-3.65 1.8 3.65-1.8m-3.4 14.3l.75.6-.75-.6M311.7-645.2l4.25-2.3 6.4 3.2h.05v9.1l-2.7 1.35v-.05l-.95.5v3.3l.1.05.1.05.75.35v87.7l-2-.8v-99.2l1-.55-1 .5v-.05l-1.85-1-1.1-.6-1-.5-.9-.45-1.15-.6m10.65.9l-3.65 1.8 3.65-1.8m-2.65 14.9l-.75-.6.75.6M-.1-789.1l-.75-.65.75.65" fill="#ad6825" fill-rule="evenodd" transform="translate(99.05 901.6)"/><path d="M-3.95-802.75l1.85.95v96.05l-1.85-.9v-96.1M481.8-560.5l1.85 1v96.65l-1.85 1.8v-99.45m77.3-.75h.1v9.1l-2.7 1.35v-.05l-.95.5v3.3l.1.05.1.05.75.6v87.55l-.95.5v3.3l.1.05.1.05.75.6v26l-.3.2-.65.35v3.25l.1.05.1.05.75.6v1.3h-2v-136.4l4.6-2.35m-395.4-157.7v97.1l-1.85 2.05V-720l1.85 1v.05m154 176.2h-1.85v-100.3l1.85 1v99.3" fill="#cd892f" fill-rule="evenodd" transform="translate(99.05 901.6)"/><path d="M-5.05-803.35l1.1.6v96.1l-1.1-.55v-96.15M480.7-561.1l1.1.6v99.45h-1.1V-561.1M161.85-720v100.2h-1.1v-100.8l1.1.6m154 177.25h-1.1v-100.9l1.1.6v100.3" fill="#d49541" fill-rule="evenodd" transform="translate(99.05 901.6)"/><path d="M-6.95-804.35l.9.45v96.2l-.9-.45v-96.2m485.75 242.3l.9.45v100.55l-.9-.95v-100.05m-319.95-159.5l.9.45v101.3l-.9-1.35v-100.4m154.9 177.7h-.9V-644.6l.9.45v100.3" fill="#dca254" fill-rule="evenodd" transform="translate(99.05 901.6)"/><path d="M-6.05-803.9l1 .55v96.15l-1-.5v-96.2M479.7-561.6l1 .5v100.05h-1V-561.6M159.75-721.1l1 .5v100.8h-1v-101.3m155 178.35l-1-1.1v-100.3l1 .5v100.9" fill="#d89c4b" fill-rule="evenodd" transform="translate(99.05 901.6)"/><path d="M-8.1-804.95l1.15.6v96.2l-1.15-.55v-96.25m485.75 242.3l1.15.6V-462h-1.15v-100.65M157.7-722.15l1.15.6v100.4l-1.15-1.35v-99.65m155.15 178.3l-1.15-1.35v-100l1.15.6v100.75" fill="#d2913a" fill-rule="evenodd" transform="translate(99.05 901.6)"/><path d="M519.6-453.05h-7.15v-91.6l.05.05.05.05 7.05 3.45v88.05" fill="#c8722e" fill-rule="evenodd" transform="translate(99.05 901.6)"/><path d="M526.75-544.6v91.75h-1.2v-.2h-5.95v-88.05l7.15-3.5" fill="#8a3d20" fill-rule="evenodd" transform="translate(99.05 901.6)"/><path d="M101.6 97.55l-6.4-3.15q-2.1 1.1-4.25 2.25l1.15.6.9.45 1 .55 1.1.6 1.85.95m0 .1l1-.5 3.65-1.85.05.05v9.05l-2.7 1.35-.95.5v3.25m478.7 227.2l1.15.6.9.45 1 .5 1.1.6 1.85 1m0 .05l1-.5 3.65-1.8-6.4-3.2-4.25 2.3m8 15.8l-.75-.6m-.2-.1v-3.3l.95-.45 2.7-1.35v-9.1h-.05m24.2 17.1l7.1-3.5 7.15 3.55v91.75m-14.3-.2v-91.6h.05m.05.1l7.05 3.45 7.15-3.5M262.75 182.6l-1.85-1m2.85.55l-1 .5m1-.5l3.65-1.8-6.4-3.2-4.25 2.3 1.15.6.9.45 1 .5 1.1.6m6.5-1.25h.05v9.1l-2.7 1.35-.95.45v3.3m.95.7l-.75-.6m146.75 61.75l4.25-2.3 6.4 3.2h.05v9.1l-2.7 1.35-.95.45v3.3m-7.05-15.1l1.15.6.9.45 1 .5 1.1.6 1.85 1m0 .05l1-.5 3.65-1.8m-3.4 14.3l.75.6M98.2 111.85l.75.65" fill="none" stroke="#633612" stroke-linecap="round" stroke-linejoin="round" stroke-width=".5"/><path d="M96.95 99.8v.1M582.7 342.1v.05m0 .05v-.05m0 .05v96.55m70.85-96.05v136.4m-34.9-118.6v88.05M262.75 182.7v-.1m0 97.15V182.7m154 76.85v.05m0 .05v-.05m0 .05v99.2m-319.8-163V99.9" fill="none" stroke="#944b1d" stroke-linecap="round" stroke-linejoin="round" stroke-width=".5"/><path d="M98.95 112.5v84.35m-8-3.95V96.65m485.75 242.3V439.6m8 .1v-84.95m70.85 124.35v-1.3m0-4.5v-26m0-4.5v-87.55m-4 .05v87.55m0 4.5v26.05m0 4.45v1.25m4-5.75v-.05m-390.8-278.05v84.5m154-7.55v87.45m-8-3.25v-100m-154 22.7v-99.65" fill="none" stroke="#49250e" stroke-linecap="round" stroke-linejoin="round" stroke-width=".5"/><path d="M655.55 350.8l2.7-1.35v-9.1h-.1l-4.6 2.35m2 135.1l-.75-.6m-.2-.1v-3.25m.95-26.55l-.75-.6m-.2-.1v-3.3l.95-.5m0-87.55l-.75-.6m-.2-.1v-3.3m.95-.45l-.95.45m3.55-10.9l-4.6-2.35-4.65 2.4 4.65 2.3m-4.65-2.3h-.05v9.1l2.7 1.35.95.45v3.3m-.2.1l-.75.6m0 87.55l.95.5v3.3m-.2.1l-.75.6m.95 26.55v3.25m-.2.1l-.75.6m0-4.45l.35.15m3.35-.05l.3-.15" fill="none" stroke="#633612" stroke-linecap="round" stroke-linejoin="round" stroke-width=".5"/></g><g id="shape2"><path d="M-35.15 38.65q-2.6 2.25-2.55 5.45-.05 3.15 2.55 5.45 2.4 2.05 5.75 2.1 3.35-.05 5.75-2.1 2.55-2.3 2.55-5.45 0-3.2-2.55-5.45-2.4-2.1-5.75-2.1t-5.75 2.1m-.3-.4q2.5-2.2 6.05-2.2 3.5 0 6.05 2.2 2.75 2.4 2.75 5.85 0 3.4-2.75 5.8-2.55 2.2-6.05 2.25-3.55-.05-6.05-2.25-2.8-2.4-2.75-5.8-.05-3.45 2.75-5.85m23.3 6.5q.05 6.85-5.45 11.65-5.05 4.4-12.15 4.45-7.1-.05-12.1-4.45-5.55-4.8-5.45-11.65-.1-6.85 5.45-11.65 5-4.4 12.1-4.4t12.15 4.4q5.5 4.8 5.45 11.65m-1 0q.05-6.4-5.1-10.9-4.8-4.15-11.5-4.15t-11.45 4.15q-5.2 4.5-5.1 10.9-.1 6.4 5.1 10.9 4.75 4.15 11.45 4.2 6.7-.05 11.5-4.2 5.15-4.5 5.1-10.9" fill="#ff0" fill-rule="evenodd" transform="translate(51.9 -24.15)"/><path d="M-22.9 62.35q3.85-1.25 7-4 6.4-5.6 6.35-13.55v-.05q.05-8-6.35-13.6-5.75-5-13.8-5.05h-.05q-8.1.05-13.8 5.05-6.45 5.6-6.35 13.6v.05q-.1 7.95 6.35 13.55 5.7 5 13.8 5.1h.05q3.6-.05 6.8-1.1l1.8-.15q-4.6 1.5-8.6 1.55h-.05q-8.2-.05-14-5.15-6.6-5.7-6.5-13.8v-.05q-.1-8.15 6.5-13.85 5.8-5.1 14-5.15h.05q8.15.05 14 5.15 6.55 5.7 6.45 13.85v.05q.1 8.1-6.45 13.8-2.95 2.55-5.4 3.6l-1.8.15M-39.65 44.1q-.05-4.1 3.25-6.95 1.15-1 2.5-1.6 1-.5 2.15-.7l2.35-.25q2.05 0 3.8.65t3.2 1.9l.45.45q2.85 2.7 2.8 6.5.05 4.05-3.25 6.9-2.9 2.55-7 2.6-4.1-.05-7-2.6-3.3-2.85-3.25-6.9m14-8.7q-1.75-.65-3.75-.65l-2.6.3q-2.45.6-4.3 2.25-2.05 1.7-2.75 3.95-.45 1.3-.45 2.85-.05 4 3.2 6.8 2.85 2.5 6.9 2.55 4-.05 6.85-2.5l.05-.05q3.2-2.8 3.2-6.8v-.05q0-4-3.2-6.75-.6-.55-1.3-.95-.9-.6-1.85-.95" fill="#ff0" fill-opacity=".396" fill-rule="evenodd" transform="translate(51.9 -24.15)"/><path d="M-29.7 25.1h-.05q-8.45.05-14.45 5.3-6.8 5.9-6.7 14.3v.1q-.1 8.4 6.7 14.3 6 5.25 14.45 5.3h.05q8.4-.05 14.4-5.3 6.8-5.9 6.7-14.3v-.1q.1-8.4-6.7-14.3-6-5.25-14.4-5.3m0-.3q8.5.05 14.65 5.4v-.05q6.85 6 6.8 14.55v.1q.05 8.55-6.8 14.55-6.15 5.3-14.65 5.4h-.05q-8.55-.1-14.65-5.4-6.9-6-6.8-14.55v-.1q-.1-8.55 6.8-14.55v.05q6.1-5.35 14.65-5.4h.05m10.15 15.15q.35.7.55 1.45.35 1.25.35 2.65v.1q0 4.25-3.4 7.25-1.55 1.3-3.35 2-1.85.65-4 .7-4.3-.05-7.35-2.7v-.05l-1.5-1.55q-1.3-1.65-1.7-3.65h.15l.65 1.85q.8 1.8 2.5 3.25 3 2.6 7.25 2.65h.05l3.9-.65q1.75-.7 3.25-2 3.4-2.95 3.35-7.15v-.05q0-2.2-.9-4.05l.2-.05" fill="#ff0" fill-opacity=".196" fill-rule="evenodd" transform="translate(51.9 -24.15)"/><path d="M-35.3 62.05q-4.35-1.15-7.85-4.15-6.2-5.45-6.1-13.1v-.05q-.1-7.7 6.1-13.1 5.55-4.85 13.4-4.9h.05q7.8.05 13.35 4.9 6.2 5.4 6.15 13.1v.05q.05 7.65-6.15 13.1-3.95 3.45-9.1 4.45l-4.25.45h-.05l-5.55-.75m-2.15-23.1l1.35-1.4q2.75-2.45 6.7-2.45 3.9 0 6.7 2.45 2.3 2 2.9 4.7.15.85.15 1.85.05 3.85-3.05 6.55-2.8 2.4-6.7 2.45-3.95-.05-6.7-2.45-3.15-2.7-3.05-6.55-.05-2.9 1.7-5.15M-39 44.1q-.05 3.8 3 6.45 2.75 2.35 6.6 2.4 3.85-.05 6.6-2.4 3-2.65 3-6.45 0-3.8-3-6.45-2.75-2.4-6.6-2.4-3.85 0-6.6 2.4-3.05 2.65-3 6.45m28.45.7v-.05q.1-7.6-6-12.85-5.5-4.8-13.2-4.85-7.7.05-13.15 4.85-6.15 5.25-6.05 12.85v.05q-.1 7.55 6.05 12.85 4.7 4.1 11.05 4.7l2.1.1h.5q7.35-.2 12.7-4.8 6.1-5.3 6-12.85" fill="#ff0" fill-opacity=".596" fill-rule="evenodd" transform="translate(51.9 -24.15)"/><path d="M-31.2 35.7l.05.2-1.6.4q-1.6.55-2.95 1.75l-1.25 1.3-.1-.1 1.25-1.35q2-1.75 4.6-2.2m10.75 6.7l.15-.05.1.85.05.9q.05 3.65-2.9 6.2-1.35 1.15-2.95 1.75l-.05-.15 2.9-1.7.05-.05q2.85-2.5 2.8-6.05 0-.9-.15-1.7m9.25 2.4q.05 7.25-5.8 12.35-5.3 4.6-12.75 4.65-7.45-.05-12.75-4.65-5.85-5.1-5.8-12.35v-.05q-.05-7.3 5.8-12.35 5.3-4.65 12.75-4.7 7.45.05 12.75 4.7 5.85 5.05 5.8 12.35v.05m-.3-.05q.05-7.15-5.7-12.1-5.2-4.55-12.55-4.6-7.35.05-12.55 4.6-5.75 4.95-5.65 12.1-.1 7.15 5.65 12.15 5.2 4.5 12.55 4.6 7.35-.1 12.55-4.6 5.75-5 5.7-12.15" fill="#ff0" fill-opacity=".796" fill-rule="evenodd" transform="translate(51.9 -24.15)"/><path d="M-34.9 49.3q2.25 2 5.5 2 3.2 0 5.5-2 2.45-2.15 2.45-5.2 0-3.1-2.45-5.2-2.3-2-5.5-2-3.25 0-5.5 2-2.5 2.1-2.45 5.2-.05 3.05 2.45 5.2m-.25-10.65q2.4-2.1 5.75-2.1t5.75 2.1q2.55 2.25 2.55 5.45 0 3.15-2.55 5.45-2.4 2.05-5.75 2.1-3.35-.05-5.75-2.1-2.6-2.3-2.55-5.45-.05-3.2 2.55-5.45m16.45-4.3q-4.6-4-11.05-4-6.45 0-11 4-4.95 4.3-4.9 10.4-.05 6.1 4.9 10.4 4.55 4 11 4.05 6.45-.05 11.05-4.05 4.9-4.3 4.9-10.4 0-6.1-4.9-10.4m5.55 10.4q.05 6.4-5.1 10.9-4.8 4.15-11.5 4.2-6.7-.05-11.45-4.2-5.2-4.5-5.1-10.9-.1-6.4 5.1-10.9 4.75-4.15 11.45-4.15 6.7 0 11.5 4.15 5.15 4.5 5.1 10.9" fill="#f3ed01" fill-rule="evenodd" transform="translate(51.9 -24.15)"/><path d="M-19.25 39.9l-.9-1.5 1.05 1.4q1.35 2.2 1.4 4.95v.05q-.05 4.35-3.55 7.45v-.05l-.05.05-.15-.25h-.05l.05-.05q3.25-2.9 3.4-6.9v-.3q0-1.85-.65-3.4l-.55-1.45m-14.35 7.95l.05-.15q1.7 1.5 4.15 1.5 2.4 0 4.15-1.5l.05.15q-1.75 1.5-4.2 1.5t-4.2-1.5m-1.2-5.75l-.35.95-.15-.05q.35-1.5 1.65-2.65.9-.75 1.95-1.15l1.1-.25 1.2-.1h.05l-.05.15q-2.45 0-4.15 1.5l-1.25 1.6" fill="#f3ed01" fill-opacity=".129" fill-rule="evenodd" transform="translate(51.9 -24.15)"/><path d="M-27.3 55.4l-2.4.2h-.05q-5.05 0-8.65-3.1l.2-.25v-.05.05q3.5 3 8.45 3.05h.05l1.25-.05q4.1-.4 7.15-3l.05-.05v.05q3.5-3.1 3.55-7.45v-.05q-.05-2.75-1.4-4.95l-1.05-1.4-1.7-1.85q-.8-.65-1.6-1.15l2.4 1.65q1.35 1.2 2.25 2.6 1.4 2.25 1.4 5.1v.05l-.2 2.15q-.7 3.1-3.45 5.5l-.05.05q-1.8 1.55-3.95 2.3l-2.25.6m-8.3-11.3v-.05l.2.05q0 2.2 1.75 3.75v-.05l.05.05q1.75 1.5 4.2 1.5t4.2-1.5l.05-.05v.05-.05q1.75-1.55 1.75-3.7 0-2.2-1.75-3.7v-.05l.1-.1q1.8 1.6 1.8 3.85t-1.8 3.85h-.05q-1.8 1.55-4.3 1.55-2.55 0-4.35-1.55-1.85-1.6-1.85-3.85" fill="#f3ed01" fill-opacity=".196" fill-rule="evenodd" transform="translate(51.9 -24.15)"/><path d="M-26.15 34l-1.05-.2-2.5-.2h-.05l-1.15.05-1.4.15q-3.6.6-6.35 3v.05l-1.6 1.65q-2.15 2.7-2.15 6.25l-.35-.05q0-3.6 2.25-6.4l1.65-1.75q2.8-2.45 6.45-3.05l1.45-.2 1.2-.05 2.55.25h.05l1.1.2q1.25.3 2.4.85l.45.25-.15.3q-1.35-.7-2.8-1.1m-3.6 21.95l2.55-.25 2.25-.55.05.3q-2.25.8-4.85.8h-.05l.05-.3m-.9-17.35l-1.15.3-.05.05q-1.1.35-2 1.15-1.4 1.2-1.75 2.85l-.15 1.15v.05q0 2.25 1.9 3.9l-.15.1q-1.9-1.7-1.9-4.05l.1-1.2q.4-1.65 1.85-2.9 1.85-1.65 4.55-1.65 2.65 0 4.55 1.65 1.95 1.65 1.95 4.1v.05l-.15-.05q-.05-2.35-1.9-4-1.85-1.6-4.45-1.6l-1.25.1" fill="#f3ed01" fill-opacity=".329" fill-rule="evenodd" transform="translate(51.9 -24.15)"/><path d="M-23.2 34.8l-.45-.25q-1.15-.55-2.4-.85l-1.1-.2h-.05l-2.55-.25-1.2.05-.05-.3 1.25-.05 1.35.05 1.3.15q1.9.35 3.6 1.15 1.65.75 3.1 2v.05l1.7 1.75q1.15 1.45 1.7 3.1.6 1.65.6 3.55v.05q0 4.9-4 8.4-2 1.7-4.4 2.6-2.3.75-4.95.8-5.45-.05-9.3-3.4h-.05l.25-.25q3.75 3.3 9.05 3.3h.05q2.6 0 4.85-.8 2.35-.85 4.3-2.5 2.9-2.55 3.65-5.9l.2-2.25v-.1q0-2.95-1.45-5.35l-.7-1-1.7-1.8q-1.25-1.05-2.6-1.75m-12.7 9.3q0 2.35 1.9 4.05l.05.05q1.85 1.6 4.55 1.65 2.65-.05 4.55-1.65l.15.1h-.05Q-26.7 50-29.4 50q-2.75 0-4.65-1.7-2-1.75-2-4.15v-.1l.15.05" fill="#f3ed01" fill-opacity=".396" fill-rule="evenodd" transform="translate(51.9 -24.15)"/><path d="M-36.9 44.1q0 2.8 2.3 4.85 2.15 1.85 5.2 1.85 3 0 5.2-1.85 2.25-2.05 2.25-4.85 0-2.85-2.25-4.85-2.2-1.9-5.2-1.9-3.05 0-5.2 1.9-2.3 2-2.3 4.85m-.15 0q0-2.95 2.35-4.95 2.2-1.95 5.3-1.95 3.05 0 5.3 1.95 2.35 2 2.35 4.95 0 2.9-2.35 4.95-2.25 1.9-5.3 1.95-3.1-.05-5.3-1.95-2.35-2.05-2.35-4.95m-3.3-9.25q4.4-3.85 10.6-3.85 6.2 0 10.6 3.85 4.7 4.1 4.7 9.9 0 5.8-4.7 9.95-4.4 3.8-10.6 3.85-6.2-.05-10.6-3.85-4.7-4.15-4.65-9.95-.05-5.8 4.65-9.9m.2.25q-4.6 3.95-4.55 9.65-.05 5.7 4.55 9.7 4.35 3.75 10.4 3.75 6.05 0 10.4-3.75 4.6-4 4.55-9.7.05-5.7-4.55-9.65-4.35-3.8-10.4-3.8-6.05 0-10.4 3.8" fill="#f3ed01" fill-opacity=".796" fill-rule="evenodd" transform="translate(51.9 -24.15)"/><path d="M-37.05 44.1q0 2.9 2.35 4.95 2.2 1.9 5.3 1.95 3.05-.05 5.3-1.95 2.35-2.05 2.35-4.95 0-2.95-2.35-4.95-2.25-1.95-5.3-1.95-3.1 0-5.3 1.95-2.35 2-2.35 4.95m2.25 5.05q-2.45-2.1-2.4-5.05-.05-3 2.4-5.1 2.2-1.95 5.4-1.95 3.15 0 5.4 1.95 2.4 2.1 2.4 5.1 0 2.95-2.4 5.05-2.25 1.95-5.4 2-3.2-.05-5.4-2m-5.55-14.3q-4.7 4.1-4.65 9.9-.05 5.8 4.65 9.95 4.4 3.8 10.6 3.85 6.2-.05 10.6-3.85 4.7-4.15 4.7-9.95 0-5.8-4.7-9.9-4.4-3.85-10.6-3.85-6.2 0-10.6 3.85m21.45-.25q4.8 4.2 4.75 10.15.05 5.95-4.75 10.15-4.55 3.9-10.85 3.95-6.3-.05-10.8-3.95-4.85-4.2-4.8-10.15-.05-5.95 4.8-10.15 4.5-3.9 10.8-3.95 6.3.05 10.85 3.95" fill="#f3ed01" fill-opacity=".863" fill-rule="evenodd" transform="translate(51.9 -24.15)"/><path d="M-28.3 32.35l-1.45-.05q-4.75 0-8.35 2.45l-1.35 1.05-.05.05q-4.25 3.65-4.2 8.9v.05q-.05 5.2 4.2 8.9h.05q4 3.5 9.7 3.55 2.75-.05 5.1-.85 2.5-.9 4.65-2.7 4.25-3.7 4.25-8.9v-.05q0-4.45-3-7.75L-20 35.85q-3.55-3.1-8.3-3.5m8.55 21.6q-4.15 3.6-10 3.6t-9.95-3.6q-4.35-3.8-4.35-9.15v-.05q0-5.4 4.35-9.15 4.1-3.65 9.95-3.65t10 3.65q4.3 3.75 4.3 9.15v.05q0 5.35-4.3 9.15m-4.65-5.25q-2.1 1.75-5 1.8-2.95-.05-5-1.8-2.2-1.9-2.15-4.6-.05-2.7 2.15-4.6 2.05-1.8 5-1.8 2.9 0 5 1.8 2.15 1.9 2.15 4.6 0 2.7-2.15 4.6m-12-4.6q0 2.6 2.1 4.45 2.05 1.75 4.9 1.8 2.8-.05 4.85-1.8 2.15-1.85 2.15-4.45 0-2.65-2.15-4.45-2.05-1.8-4.85-1.8-2.85 0-4.9 1.8-2.1 1.8-2.1 4.45" fill="#f3ed01" fill-opacity=".596" fill-rule="evenodd" transform="translate(51.9 -24.15)"/><path d="M-19.55 54.15v.05q-4.25 3.65-10.2 3.7-5.95-.05-10.15-3.7l-.05-.05q-4.45-3.9-4.4-9.35v-.05q-.05-5.5 4.4-9.4h.05q4.2-3.7 10.15-3.7t10.2 3.7l-.2.25q-4.15-3.65-10-3.65t-9.95 3.65q-4.35 3.75-4.35 9.15v.05q0 5.35 4.35 9.15 4.1 3.6 9.95 3.6t10-3.6l.2.2M-29.4 37.7q-2.95 0-5 1.8-2.2 1.9-2.15 4.6-.05 2.7 2.15 4.6 2.05 1.75 5 1.8 2.9-.05 5-1.8l.1.1q-2.15 1.85-5.1 1.85-3 0-5.1-1.85-2.25-1.95-2.2-4.65v-.1q-.05-2.75 2.2-4.65 2.1-1.85 5.05-1.85l.05.15" fill="#f3ed01" fill-opacity=".663" fill-rule="evenodd" transform="translate(51.9 -24.15)"/><path d="M-37.9 35l-1.4 1.05q-4.1 3.6-4.1 8.65v.1q0 5.05 4.1 8.65 3.95 3.45 9.5 3.45h.05q2.7 0 5-.8 2.5-.85 4.55-2.65 4.1-3.6 4.1-8.65v-.05q0-1.95-.55-3.65-.75-2.1-2.35-3.9l-1.2-1.15q-3.45-3-8.15-3.4l.05-.3q4.75.4 8.3 3.5l1.25 1.15q3 3.3 3 7.75v.05q0 5.2-4.25 8.9-2.15 1.8-4.65 2.7-2.35.8-5.1.85-5.7-.05-9.7-3.55h-.05q-4.25-3.7-4.2-8.9v-.05q-.05-5.25 4.2-8.9l.05-.05 1.35-1.05.2.25m1.65 9v.1q0 2.55 2.05 4.35 2 1.7 4.8 1.7 2.75 0 4.75-1.7 2.05-1.8 2.05-4.3v-.05q0-2.55-2.05-4.35-2-1.75-4.75-1.75-2.8 0-4.8 1.75T-36.25 44m-.15.1q0-2.65 2.1-4.45 2.05-1.8 4.9-1.8 2.8 0 4.85 1.8 2.15 1.8 2.15 4.45 0 2.6-2.15 4.45-2.05 1.75-4.85 1.8-2.85-.05-4.9-1.8-2.1-1.85-2.1-4.45" fill="#f3ed01" fill-opacity=".529" fill-rule="evenodd" transform="translate(51.9 -24.15)"/><path d="M-28.4 33l-1.35-.05L-31 33l-2.25.35q-3.25.7-5.8 2.95l-.05.05q-4 3.45-3.95 8.4v.05h-.35v-.1q0-5.05 4.1-8.65l1.4-1.05q2.1-1.45 4.6-2l2.25-.35 1.3-.05 1.4.05-.05.35m11.4 8.2l.35-.1q.55 1.7.55 3.65v.05q0 5.05-4.1 8.65-2.05 1.8-4.55 2.65-2.3.8-5 .8h-.05l.05-.3q2.65-.05 4.95-.8 2.4-.9 4.4-2.6 4-3.5 4-8.4v-.05q0-1.9-.6-3.55m-19.05 2.85l-.2-.05q.05-2.5 2.05-4.25 2-1.75 4.8-1.75 2.75 0 4.75 1.75 2.05 1.8 2.05 4.35v.05l-.15-.05q0-2.5-2-4.25-1.95-1.65-4.65-1.65-2.75 0-4.65 1.65-2 1.75-2 4.2" fill="#f3ed01" fill-opacity=".463" fill-rule="evenodd" transform="translate(51.9 -24.15)"/><path d="M-26.15 34q1.45.4 2.8 1.1l.15-.3q1.35.7 2.6 1.75l1.7 1.8.7 1q1.45 2.4 1.45 5.35v.1l-.2 2.25q-.75 3.35-3.65 5.9-1.95 1.65-4.3 2.5l-.05-.3-2.25.55-.1-.3 2.25-.6q2.15-.75 3.95-2.3l.05-.05q2.75-2.4 3.45-5.5l.2-2.15v-.05q0-2.85-1.4-5.1-.9-1.4-2.25-2.6l-2.4-1.65q-1.3-.8-2.8-1.2l.1-.2m-4.8-.7l-1.45.2q-3.65.6-6.45 3.05l-1.65 1.75q-2.25 2.8-2.25 6.4l.35.05v.05q0 3.5 2.15 6.2l1.6 1.7q3.7 3.2 8.9 3.25l-.05.3q-5.3 0-9.05-3.3l-.25.25h.05q3.85 3.35 9.3 3.4l-.05.3q-5.55 0-9.5-3.45-4.1-3.6-4.1-8.65h.35v-.05q-.05-4.95 3.95-8.4l.05-.05q2.55-2.25 5.8-2.95L-31 33l.05.3m-7.45 19.2l-.05-.05-1.6-1.65q-1.35-1.75-1.8-3.85l-.25-2.15v-.15q.05-3.35 2.05-5.9l1.55-1.65.05-.05.05-.05q2.7-2.3 6.2-2.9l-2.1.75-1.4.75-1.25.95-.85.8-.2.15v.05q-3.4 2.95-3.45 7.2v.05l.25 2.05.65 1.9q.85 1.75 2.55 3.2V52q3.4 2.95 8.25 2.95h.05l1.2-.05-.05-.3-.8.05h-.4q-4.7-.05-8.05-2.9-1.65-1.45-2.45-3.2l-.45-1.05-.3-1.15-.1-1.55v-.1q0-2.95 1.75-5.25-1.15 2.1-1.1 4.6v.05l.2 2.15.25 1q.8 2.45 3.05 4.4 3.1 2.7 7.5 2.75h.05l4.1-.7-.05-.15q1.85-.7 3.4-2.05 3.45-3.05 3.45-7.35l-.15-.05v-.05q0-1.4-.35-2.65l.15-.05q-.2-.7-.55-1.4l.15-.05.55 1.45q.35 1.25.35 2.7V45q-.3 3.85-3.5 6.65-1.6 1.35-3.45 2.05l.05.15q1.95-.7 3.55-2.1 3.25-2.85 3.35-6.75l.3.05q-.15 4-3.4 6.9l-.05.05h.05l.15.25q-3.05 2.6-7.15 3l-1.25.05h-.05q-4.95-.05-8.45-3.05v-.05.05l-.2.25m.5-14.75l.1.05.1-.1.05-.05.9-.85.15-.1 1.3-.95q.55-.35 1.15-.6.95-.5 2.05-.7l1.3-.25 1.4-.1q2.15 0 4 .7 1 .35 1.95.95l1.4 1.05.55.5q.7.7 1.25 1.5l.7 1.15-.2.05-.7-1.2-.15.05q1.65 2.3 1.6 5.2l-.15.05q.05-3.8-2.8-6.5l.15-.1-.5-.45-1.45-1.1q-.85-.5-1.8-.85-1.8-.65-3.85-.65l-2.4.25-.3.05-1.85.65-1.4.75-.05-.15-1.15.8-.1.1q-3.4 2.95-3.35 7.15v.05l.2 2.05h-.15q.4 2 1.7 3.65l1.5 1.55v.05q3.05 2.65 7.35 2.7l-.05.15q-4.3-.05-7.4-2.75l-1.5-1.6q-1-1.25-1.5-2.7l-.25-1-.2-2.1v-.05q-.05-3.15 1.8-5.55l.6-.75m9.5-4.75l.05-.35-1.4-.05-1.3.05-2.25.35q-2.5.55-4.6 2l-.2-.25q3.6-2.45 8.35-2.45l1.45.05-.05.3q4.7.4 8.15 3.4l1.2 1.15q1.6 1.8 2.35 3.9l-.35.1q-.55-1.65-1.7-3.1l-1.7-1.75v-.05q-1.45-1.25-3.1-2-1.7-.8-3.6-1.15l-1.3-.15m-11.4 11.15l.15-.05q-.05 4.05 3.25 6.9 2.9 2.55 7 2.6 4.1-.05 7-2.6l.1.15q-2.95 2.55-7.1 2.6-4.2-.05-7.15-2.6-1.65-1.45-2.45-3.2-.85-1.75-.8-3.8m3.5 6.75q-3.25-2.8-3.2-6.8 0-1.55.45-2.85.7-2.25 2.75-3.95 1.85-1.65 4.3-2.25l2.6-.3q2 0 3.75.65l-.05.15q1.65.6 3.05 1.85h.05q2.35 2.05 2.95 4.8l-.15.05q-.6-2.7-2.9-4.7-2.8-2.45-6.7-2.45-3.95 0-6.7 2.45l-1.35 1.4-.15-.1q-.9 1.1-1.3 2.45-.45 1.3-.45 2.8-.05 3.9 3.15 6.7l-.1.1m16.75 3.25l-.2-.2q4.3-3.8 4.3-9.15v-.05q0-5.4-4.3-9.15l.2-.25q4.45 3.9 4.45 9.4v.05q0 5.45-4.45 9.35M-31.2 35.7l-.1-.1 1.9-.2q3.75.05 6.5 2.4 2.6 2.25 2.9 5.4h-.2l-.1-.85-.15.05q-.55-2.5-2.7-4.35V38q-2.65-2.25-6.25-2.25l-1.75.15-.05-.2m-1.55.6v.15q-1.55.55-2.8 1.7-2.85 2.45-2.8 5.95h-.15q-.05 3.55 2.8 6.05 2.6 2.25 6.3 2.3l3.35-.55.05.15-1.6.4-1.8.15h-.05q-3.7-.05-6.35-2.3-2.95-2.55-2.9-6.2-.05-2.75 1.65-4.85l.1.1 1.25-1.3q1.35-1.2 2.95-1.75m-3 7.85v-.05l.15-1.15q.35-1.65 1.75-2.85.9-.8 2-1.15l.05-.05 1.15-.3.05.15 1.2-.1q2.55 0 4.35 1.6l-.1.1v.05q1.75 1.5 1.75 3.7 0 2.15-1.75 3.7v.05-.05l-.05.05-.05-.15q-1.75 1.5-4.15 1.5-2.45 0-4.15-1.5l-.05.15-.05-.05v.05q-1.75-1.55-1.75-3.75l-.2-.05v.05l-.15.05m12.7-.05l.15.05v-.05q0-2.45-1.95-4.1-1.9-1.65-4.55-1.65-2.7 0-4.55 1.65-1.45 1.25-1.85 2.9l-.1 1.2-.15-.05q0-2.45 2-4.2 1.9-1.65 4.65-1.65 2.7 0 4.65 1.65 2 1.75 2 4.25l.15.05q0 2.5-2.05 4.3-2 1.7-4.75 1.7-2.8 0-4.8-1.7-2.05-1.8-2.05-4.35V44l.2.05v.1q0 2.4 2 4.15 1.9 1.7 4.65 1.7 2.7 0 4.65-1.7h.05l-.15-.1q-1.9 1.6-4.55 1.65-2.7-.05-4.55-1.65l-.05-.05.15-.1q1.85 1.6 4.45 1.65 2.55-.05 4.4-1.6l.05-.05q1.85-1.65 1.9-3.95M-29.4 39l.05-.15h-.05l-1.2.1-1.1.25q-1.05.4-1.95 1.15-1.3 1.15-1.65 2.65l.15.05.35-.95.15.1q.4-.9 1.2-1.6 1.65-1.45 4.05-1.45 2.35 0 4 1.45t1.7 3.45h.15q-.05-2.1-1.75-3.55h.05Q-27 39-29.4 39m5 9.7q2.15-1.9 2.15-4.6 0-2.7-2.15-4.6-2.1-1.8-5-1.8l-.05-.15h.05q2.95 0 5.1 1.85 2.2 1.9 2.2 4.7 0 2.75-2.2 4.7l-.1-.1m-10.4.45q2.2 1.95 5.4 2 3.15-.05 5.4-2 2.4-2.1 2.4-5.05 0-3-2.4-5.1-2.25-1.95-5.4-1.95-3.2 0-5.4 1.95-2.45 2.1-2.4 5.1-.05 2.95 2.4 5.05m-.1.15q-2.5-2.15-2.45-5.2-.05-3.1 2.45-5.2 2.25-2 5.5-2 3.2 0 5.5 2 2.45 2.1 2.45 5.2 0 3.05-2.45 5.2-2.3 2-5.5 2-3.25 0-5.5-2m12.2 1.35l.05.15q-2.8 2.4-6.75 2.45-3.95-.05-6.8-2.45l.1-.15q2.75 2.4 6.7 2.45 3.9-.05 6.7-2.45m4-16.3q4.9 4.3 4.9 10.4 0 6.1-4.9 10.4-4.6 4-11.05 4.05-6.45-.05-11-4.05-4.95-4.3-4.9-10.4-.05-6.1 4.9-10.4 4.55-4 11-4t11.05 4m-.2.25q-4.55-3.9-10.85-3.95-6.3.05-10.8 3.95-4.85 4.2-4.8 10.15-.05 5.95 4.8 10.15 4.5 3.9 10.8 3.95 6.3-.05 10.85-3.95 4.8-4.2 4.75-10.15.05-5.95-4.75-10.15" fill="#f3ed01" fill-opacity=".929" fill-rule="evenodd" transform="translate(51.9 -24.15)"/><path d="M-19.55 35.35q-4.25-3.7-10.2-3.7-5.95 0-10.15 3.7h-.05q-4.45 3.9-4.4 9.4v.05q-.05 5.45 4.4 9.35l.05.05q4.2 3.65 10.15 3.7 5.95-.05 10.2-3.7v-.05q4.45-3.9 4.45-9.35v-.05q0-5.5-4.45-9.4m-9.9 2.2q-2.95 0-5.05 1.85-2.25 1.9-2.2 4.65v.1q-.05 2.7 2.2 4.65 2.1 1.85 5.1 1.85 2.95 0 5.1-1.85 2.2-1.95 2.2-4.7 0-2.8-2.2-4.7-2.15-1.85-5.1-1.85h-.05m-7.45 6.55q0-2.85 2.3-4.85 2.15-1.9 5.2-1.9 3 0 5.2 1.9 2.25 2 2.25 4.85 0 2.8-2.25 4.85-2.2 1.85-5.2 1.85-3.05 0-5.2-1.85-2.3-2.05-2.3-4.85m-3.25-9q4.35-3.8 10.4-3.8 6.05 0 10.4 3.8 4.6 3.95 4.55 9.65.05 5.7-4.55 9.7-4.35 3.75-10.4 3.75-6.05 0-10.4-3.75-4.6-4-4.55-9.7-.05-5.7 4.55-9.65" fill="#f3ed01" fill-opacity=".729" fill-rule="evenodd" transform="translate(51.9 -24.15)"/><path d="M-42.4 44.75q0-3.55 2.15-6.25l1.6-1.65v-.05q2.75-2.4 6.35-3l1.4-.15 1.15-.05h.05l2.5.2 1.05.2-.1.2-3.15-.4-1.45.1-1.35.2q-3.5.6-6.2 2.9l-.05.05-.05.05-1.55 1.65q-2 2.55-2.05 5.9v.15l.25 2.15q.45 2.1 1.8 3.85l1.6 1.65.05.05q3.6 3.1 8.65 3.1h.05l2.4-.2.1.3-2.55.25q-5.2-.05-8.9-3.25l-1.6-1.7q-2.15-2.7-2.15-6.2v-.05m6.65-.6l.15-.05q0 2.25 1.85 3.85 1.8 1.55 4.35 1.55 2.5 0 4.3-1.55h.05q1.8-1.6 1.8-3.85t-1.8-3.85q-1.8-1.6-4.35-1.6l-1.2.1-.05-.15 1.25-.1q2.6 0 4.45 1.6 1.85 1.65 1.9 4-.05 2.3-1.9 3.95l-.05.05q-1.85 1.55-4.4 1.6-2.6-.05-4.45-1.65-1.9-1.65-1.9-3.9" fill="#f3ed01" fill-opacity=".263" fill-rule="evenodd" transform="translate(51.9 -24.15)"/><path d="M-34.8 42.1l1.25-1.6q1.7-1.5 4.15-1.5 2.4 0 4.15 1.5h-.05q1.7 1.45 1.75 3.55h-.15q-.05-2-1.7-3.45-1.65-1.45-4-1.45-2.4 0-4.05 1.45-.8.7-1.2 1.6l-.15-.1m-4.55-2.65q-1.75 2.3-1.75 5.25v.1l.1 1.55.3 1.15.45 1.05q.8 1.75 2.45 3.2 3.35 2.85 8.05 2.9h.4l.8-.05.05.3-1.2.05h-.05q-4.85 0-8.25-2.95v-.05q-1.7-1.45-2.55-3.2l-.65-1.9-.25-2.05v-.05q.05-4.25 3.45-7.2v-.05l.2-.15-1.55 2.1m20.65 1.9q.65 1.55.65 3.4v.3l-.3-.05v-.95q0-1.45-.35-2.7" fill="#f3ed01" fill-opacity=".063" fill-rule="evenodd" transform="translate(51.9 -24.15)"/><path d="M-25.45 62.35q5.15-1 9.1-4.45 6.2-5.45 6.15-13.1v-.05q.05-7.7-6.15-13.1-5.55-4.85-13.35-4.9h-.05q-7.85.05-13.4 4.9-6.2 5.4-6.1 13.1v.05q-.1 7.65 6.1 13.1 3.5 3 7.85 4.15l-2.05-.3 2.05.3 5.55.75h.05l4.25-.45h1.4-1.4m-11.9-.6q-3.25-1.25-6-3.65v.05Q-49.7 52.6-49.6 44.8v-.05q-.1-7.85 6.25-13.35 5.65-4.95 13.6-5h.05q7.9.05 13.55 5 6.35 5.5 6.25 13.35v.05q.1 7.8-6.25 13.35v-.05q-3.5 3.05-7.9 4.25l-5.65.75h-.05q-4.1-.05-7.6-1.35m1.15-10.95q-3.2-2.8-3.15-6.7 0-1.5.45-2.8.4-1.35 1.3-2.45l.15.1q-1.75 2.25-1.7 5.15-.1 3.85 3.05 6.55l-.1.15v-.05.05m16.4-8.55l.15-.05q.15.9.15 1.85v.1q.05 3.9-3.1 6.65v-.05l-.05.05-.05-.15q3.1-2.7 3.05-6.55 0-1-.15-1.85" fill="#ff0" fill-opacity=".529" fill-rule="evenodd" transform="translate(51.9 -24.15)"/><path d="M-22.9 62.35q-3.2 1.05-6.8 1.1h-.05q-8.1-.1-13.8-5.1-6.45-5.6-6.35-13.55v-.05q-.1-8 6.35-13.6 5.7-5 13.8-5.05h.05q8.05.05 13.8 5.05 6.4 5.6 6.35 13.6v.05q.05 7.95-6.35 13.55-3.15 2.75-7 4h-1.15 1.15m-1.15 0q4.4-1.2 7.9-4.25v.05Q-9.8 52.6-9.9 44.8v-.05q.1-7.85-6.25-13.35-5.65-4.95-13.55-5h-.05q-7.95.05-13.6 5-6.35 5.5-6.25 13.35v.05q-.1 7.8 6.25 13.35v-.05q2.75 2.4 6 3.65 3.5 1.3 7.6 1.35h.05l5.65-.75M-36.3 50.9l.1-.1q2.85 2.4 6.8 2.45 3.95-.05 6.75-2.45l.05-.05v.05q3.15-2.75 3.1-6.65v-.1q0-.95-.15-1.85-.6-2.75-2.95-4.8h-.05q-1.4-1.25-3.05-1.85l.05-.15q.95.35 1.85.95.7.4 1.3.95 3.2 2.75 3.2 6.75v.05q0 4-3.2 6.8l-.05.05q-2.85 2.45-6.85 2.5-4.05-.05-6.9-2.55m.1-.1v-.05.05" fill="#ff0" fill-opacity=".463" fill-rule="evenodd" transform="translate(51.9 -24.15)"/><path d="M-29.7 25.45q8.3.05 14.2 5.2 6.7 5.8 6.6 14.1v.05q.1 8.25-6.6 14.05-5.9 5.15-14.2 5.25h-.05Q-38.1 64-44 58.85q-6.7-5.8-6.55-14.05v-.05q-.15-8.3 6.55-14.1 5.9-5.15 14.25-5.2h.05m8.6 36.75q2.45-1.05 5.4-3.6 6.55-5.7 6.45-13.8v-.05q.1-8.15-6.45-13.85-5.85-5.1-14-5.15h-.05q-8.2.05-14 5.15-6.6 5.7-6.5 13.85v.05q-.1 8.1 6.5 13.8 5.8 5.1 14 5.15h.05q4-.05 8.6-1.55m-.85-24.6l-.45-.45q-1.45-1.25-3.2-1.9-1.75-.65-3.8-.65l-2.35.25q-1.15.2-2.15.7-1.35.6-2.5 1.6-3.3 2.85-3.25 6.95l-.15.05v-.05q-.1-4.15 3.25-7.05l1.2-.9 1.4-.75 1.85-.65.3-.05 2.4-.25q2.05 0 3.85.65.95.35 1.8.85l1.45 1.1.5.45-.15.1M-22.4 51q3.3-2.85 3.25-6.9l.15-.05v.1q.05 4.05-3.25 6.95l-.05.05-.1-.15" fill="#ff0" fill-opacity=".329" fill-rule="evenodd" transform="translate(51.9 -24.15)"/><path d="M-29.7 25.1q8.4.05 14.4 5.3 6.8 5.9 6.7 14.3v.1q.1 8.4-6.7 14.3-6 5.25-14.4 5.3h-.05q-8.45-.05-14.45-5.3-6.8-5.9-6.7-14.3v-.1q-.1-8.4 6.7-14.3 6-5.25 14.45-5.3h.05m0 .35h-.05q-8.35.05-14.25 5.2-6.7 5.8-6.55 14.1v.05q-.15 8.25 6.55 14.05 5.9 5.15 14.25 5.25h.05q8.3-.1 14.2-5.25 6.7-5.8 6.6-14.05v-.05q.1-8.3-6.6-14.1-5.9-5.15-14.2-5.2m-5.65 10.7l-1.2.9q-3.35 2.9-3.25 7.05v.05q-.05 2.05.8 3.8.8 1.75 2.45 3.2 2.95 2.55 7.15 2.6 4.15-.05 7.1-2.6l.05-.05q3.3-2.9 3.25-6.95v-.1q.05-2.9-1.6-5.2l.15-.05.7 1.2q.9 1.85.9 4.05v.05q.05 4.2-3.35 7.15-1.5 1.3-3.25 2l-3.9.65h-.05q-4.25-.05-7.25-2.65-1.7-1.45-2.5-3.25l-.65-1.85-.2-2.05v-.05q-.05-4.2 3.35-7.15l.1-.1 1.15-.8.05.15" fill="#ff0" fill-opacity=".263" fill-rule="evenodd" transform="translate(51.9 -24.15)"/><path d="M-29.7 24.45h-.05q-8.7.1-14.85 5.5-7.05 6.05-6.95 14.75v.1q-.1 8.7 6.95 14.8 6.15 5.35 14.85 5.45h.05q8.65-.1 14.85-5.45 7-6.1 6.9-14.8v-.1q.1-8.7-6.9-14.75-6.2-5.4-14.85-5.5m0-.3q8.75.05 15.05 5.55 7.15 6.15 7.05 15v.1q.1 8.85-7.05 15.05-6.3 5.45-15.05 5.55h-.05q-8.8-.1-15.1-5.55-7.15-6.2-7-15.05v-.1q-.15-8.85 7-15 6.3-5.5 15.1-5.55h.05m-2.5 9.95l1.35-.2 1.45-.1 3.15.4q1.5.4 2.8 1.2.8.5 1.6 1.15l1.7 1.85.9 1.5-.15.05-.7-1.2-1.4-1.65-.45-.4q-3.1-2.75-7.45-2.75l-1.45.1q-1.8.2-3.4.95-1.2.55-2.3 1.45l-.3.25-1.05 1.05-.6.75q-1.85 2.4-1.8 5.55v.05l.2 2.1.25 1q.5 1.45 1.5 2.7l1.5 1.6q3.1 2.7 7.4 2.75h.1q2.15-.05 4-.7l.05.15-4.1.7h-.05q-4.4-.05-7.5-2.75-2.25-1.95-3.05-4.4l-.25-1-.2-2.15v-.05q-.05-2.5 1.1-4.6l1.55-2.1.85-.8 1.25-.95 1.4-.75 2.1-.75" fill="#ff0" fill-opacity=".063" fill-rule="evenodd" transform="translate(51.9 -24.15)"/><path d="M-20 43.2q-.3-3.15-2.9-5.4-2.75-2.35-6.5-2.4l-1.9.2q-2.6.45-4.6 2.2-3 2.55-2.95 6.3v.05q-.05 3.65 2.95 6.25 2.7 2.35 6.5 2.4l1.85-.2q2.6-.45 4.65-2.2 2.95-2.6 2.95-6.3l-.05-.9m-19 .9q-.05-3.8 3-6.45 2.75-2.4 6.6-2.4 3.85 0 6.6 2.4 3 2.65 3 6.45 0 3.8-3 6.45-2.75 2.35-6.6 2.4-3.85-.05-6.6-2.4-3.05-2.65-3-6.45m28.45.7q.1 7.55-6 12.85-5.35 4.6-12.7 4.8h-.5l-2.1-.1q-6.35-.6-11.05-4.7-6.15-5.3-6.05-12.85v-.05q-.1-7.6 6.05-12.85 5.45-4.8 13.15-4.85 7.7.05 13.2 4.85 6.1 5.25 6 12.85v.05m-.3 0v-.05q.05-7.45-5.9-12.6-5.45-4.7-13-4.75-7.55.05-12.95 4.75-6 5.15-5.9 12.6v.05q-.1 7.4 5.9 12.6 5.4 4.65 12.95 4.75 7.55-.1 13-4.75 5.95-5.2 5.9-12.6m-18.4 17.65l-2.6-.1 2.6.1" fill="#ff0" fill-opacity=".663" fill-rule="evenodd" transform="translate(51.9 -24.15)"/><path d="M-31.3 35.6l.1.1q-2.6.45-4.6 2.2l-1.25 1.35q-1.7 2.1-1.65 4.85-.05 3.65 2.9 6.2 2.65 2.25 6.35 2.3h.05l1.8-.15 1.6-.4q1.6-.6 2.95-1.75 2.95-2.55 2.9-6.2l-.05-.9h.2l.05.9q0 3.7-2.95 6.3-2.05 1.75-4.65 2.2l-1.85.2q-3.8-.05-6.5-2.4-3-2.6-2.95-6.25v-.05q-.05-3.75 2.95-6.3 2-1.75 4.6-2.2m20.45 9.2q.05 7.4-5.9 12.6-5.45 4.65-13 4.75-7.55-.1-12.95-4.75-6-5.2-5.9-12.6v-.05q-.1-7.45 5.9-12.6 5.4-4.7 12.95-4.75 7.55.05 13 4.75 5.95 5.15 5.9 12.6v.05m-.35 0v-.05q.05-7.3-5.8-12.35-5.3-4.65-12.75-4.7-7.45.05-12.75 4.7-5.85 5.05-5.8 12.35v.05q-.05 7.25 5.8 12.35 5.3 4.6 12.75 4.65 7.45-.05 12.75-4.65 5.85-5.1 5.8-12.35" fill="#ff0" fill-opacity=".729" fill-rule="evenodd" transform="translate(51.9 -24.15)"/><path d="M-31.15 35.9l1.75-.15q3.6 0 6.25 2.25v.05q2.15 1.85 2.7 4.35.15.8.15 1.7.05 3.55-2.8 6.05l-.05.05-2.9 1.7-3.35.55q-3.7-.05-6.3-2.3-2.85-2.5-2.8-6.05h.15q-.05 3.45 2.8 5.95 2.55 2.2 6.15 2.25 3.6-.05 6.15-2.25 2.8-2.5 2.8-5.95 0-3.5-2.8-5.95-2.55-2.25-6.15-2.25l-3.35.55v-.15l1.6-.4m19.3 8.85q.1-7-5.55-11.9-5.15-4.45-12.35-4.5-7.2.05-12.3 4.5-5.7 4.9-5.6 11.9-.1 7 5.6 11.9 5.1 4.45 12.3 4.5 7.2-.05 12.35-4.5 5.65-4.9 5.55-11.9m.35 0q.05 7.15-5.7 12.15-5.2 4.5-12.55 4.6-7.35-.1-12.55-4.6-5.75-5-5.65-12.15-.1-7.15 5.65-12.1 5.2-4.55 12.55-4.6 7.35.05 12.55 4.6 5.75 4.95 5.7 12.1" fill="#ff0" fill-opacity=".863" fill-rule="evenodd" transform="translate(51.9 -24.15)"/><path d="M-38.35 44.1q-.05-3.5 2.8-5.95 1.25-1.15 2.8-1.7l3.35-.55q3.6 0 6.15 2.25 2.8 2.45 2.8 5.95 0 3.45-2.8 5.95-2.55 2.2-6.15 2.25-3.6-.05-6.15-2.25-2.85-2.5-2.8-5.95m2.9-5.85q-2.8 2.4-2.75 5.85-.05 3.4 2.75 5.8 2.5 2.2 6.05 2.25 3.5-.05 6.05-2.25 2.75-2.4 2.75-5.8 0-3.45-2.75-5.85-2.55-2.2-6.05-2.2-3.55 0-6.05 2.2m23.3 6.5q.05-6.85-5.45-11.65-5.05-4.4-12.15-4.4-7.1 0-12.1 4.4-5.55 4.8-5.45 11.65-.1 6.85 5.45 11.65 5 4.4 12.1 4.45 7.1-.05 12.15-4.45 5.5-4.8 5.45-11.65m.3 0q.1 7-5.55 11.9-5.15 4.45-12.35 4.5-7.2-.05-12.3-4.5-5.7-4.9-5.6-11.9-.1-7 5.6-11.9 5.1-4.45 12.3-4.5 7.2.05 12.35 4.5 5.65 4.9 5.55 11.9" fill="#ff0" fill-opacity=".929" fill-rule="evenodd" transform="translate(51.9 -24.15)"/><path d="M-29.7 24.45q8.65.1 14.85 5.5 7 6.05 6.9 14.75v.1q.1 8.7-6.9 14.8-6.2 5.35-14.85 5.45h-.05q-8.7-.1-14.85-5.45-7.05-6.1-6.95-14.8v-.1q-.1-8.7 6.95-14.75 6.15-5.4 14.85-5.5h.05m0 .35h-.05q-8.55.05-14.65 5.4v-.05q-6.9 6-6.8 14.55v.1q-.1 8.55 6.8 14.55 6.1 5.3 14.65 5.4h.05q8.5-.1 14.65-5.4 6.85-6 6.8-14.55v-.1q.05-8.55-6.8-14.55v.05q-6.15-5.35-14.65-5.4m-8.2 12.95l1.05-1.05.3-.25q1.1-.9 2.3-1.45 1.6-.75 3.4-.95l1.45-.1q4.35 0 7.45 2.75l.45.4 1.4 1.65.7 1.2q.35.7.55 1.4l-.15.05q-.2-.75-.55-1.45l-.7-1.15q-.55-.8-1.25-1.5l-.55-.5-1.4-1.05q-.95-.6-1.95-.95-1.85-.7-4-.7l-1.4.1-1.3.25q-1.1.2-2.05.7-.6.25-1.15.6l-1.3.95-.15.1-.9.85-.05.05-.1.1-.1-.05m8.45 16.5l.05-.15q2.15-.05 4-.7 1.8-.7 3.35-2 3.4-3 3.4-7.25v-.05l.15.05q0 4.3-3.45 7.35-1.55 1.35-3.4 2.05-1.85.65-4 .7h-.1" fill="#ff0" fill-opacity=".129" fill-rule="evenodd" transform="translate(51.9 -24.15)"/><path d="M28.7 10.65l-.45-.25q-1.15-.55-2.4-.85l-1.1-.2h-.05l-2.55-.25-1.2.05m3.65 22.1l-2.4.2h-.05q-5.05 0-8.65-3.1l-.05-.05-1.6-1.65q-1.35-1.75-1.8-3.85l-.25-2.15v-.15q.05-3.35 2.05-5.9l1.55-1.65.05-.05.05-.05q2.7-2.3 6.2-2.9m12.95 5.8l-.9-1.5M20.9 8.85l1.25-.05 1.35.05m-11.25 11.1q-.05-4.1 3.25-6.95 1.15-1 2.5-1.6 1-.5 2.15-.7l2.35-.25q2.05 0 3.8.65t3.2 1.9l.45.45m-3.7-2.2q.95.35 1.85.95.7.4 1.3.95 3.2 2.75 3.2 6.75v.05q0 4-3.2 6.8l-.05.05q-2.85 2.45-6.85 2.5-4.05-.05-6.9-2.55m19.65-9.8q-.75-2.1-2.35-3.9l-1.2-1.15q-3.45-3-8.15-3.4m1.05 22.75l2.25-.6q2.15-.75 3.95-2.3l.05-.05q2.75-2.4 3.45-5.5l.2-2.15v-.05q0-2.85-1.4-5.1-.9-1.4-2.25-2.6l-2.4-1.65m3.7 18.55q-4.15 3.6-10 3.6t-9.95-3.6Q7.85 26 7.85 20.65v-.05q0-5.4 4.35-9.15 4.1-3.65 9.95-3.65t10 3.65M29.6 27q-2.95 2.55-7.1 2.6-4.2-.05-7.15-2.6-1.65-1.45-2.45-3.2-.85-1.75-.8-3.8m6.2 3.7l.05-.15q1.7 1.5 4.15 1.5 2.4 0 4.15-1.5l.05.15m-8.65.2q-1.9-1.65-1.9-3.9m6.35-5.15q2.4 0 4.15 1.5h-.05q1.7 1.45 1.75 3.55h-.15q-.05-2-1.7-3.45-1.65-1.45-4-1.45-2.4 0-4.05 1.45-.8.7-1.2 1.6l-.15-.1m-1.6 2q0 2.6 2.1 4.45 2.05 1.75 4.9 1.8 2.8-.05 4.85-1.8 2.15-1.85 2.15-4.45 0-2.65-2.15-4.45-2.05-1.8-4.85-1.8-2.85 0-4.9 1.8-2.1 1.8-2.1 4.45m13.35 0q-.05 2.3-1.9 3.95l-.05.05q-1.85 1.55-4.4 1.6-2.6-.05-4.45-1.65m-6.5-13.2q-4.7 4.1-4.65 9.9-.05 5.8 4.65 9.95 4.4 3.8 10.6 3.85 6.2-.05 10.6-3.85 4.7-4.15 4.7-9.95 0-5.8-4.7-9.9-4.4-3.85-10.6-3.85-6.2 0-10.6 3.85m23.7 6.25q.55 1.7.55 3.65v.05q0 5.05-4.1 8.65-2.05 1.8-4.55 2.65-2.3.8-5 .8h-.05m10-14.65q.15.85.15 1.85.05 3.85-3.05 6.55" fill="none" stroke="#f3ed01" stroke-linecap="round" stroke-linejoin="round" stroke-opacity=".929" stroke-width="2"/><path d="M-22.9 62.35l1.8-.15m-4.35.15h2.55m-14.45-.6l2.05.3m3.45.3l2.6.1" fill="none" stroke="#000" stroke-linecap="round" stroke-linejoin="round" transform="translate(51.9 -24.15)"/><path d="M-19.7 30.05l-.9-.35-1.05-.2-1.95-.25q-4.5-.45-9.9-.1l.05-.05-3.7-.2-.2-.25q.4-.5-.05-.95l2.75-.65-2.75.3-.1.05-.1.25.05.05h.15-.05l-.45.95-.05.1v.1l-.15-.05.2.1v.05h-.1l-.25.05.55-1.7 18.75.55v.1l-.5 1.75-.25.35m-.05 29.15l-.35 1.35-.7 1.45-2 .25.15-.05-.05-.05-3-.1q-1.8-.15-3.55-.05l-.15.05 3.6.3.9.05-5.1.1h-.05l-1.9-.3h-.15l.35.2-3.35-.4h.25l-.1-.05-2.45-.4h-.15l-.65-.15q-.6-1.35-.6-2.15V59l-.05-.3v-.05l3.2.7.15.2 1.5.1 5.9.45 2.6-.15.2-.05 2.2-.35 1.95-.55 1.4.2M-38.6 29.95l-.1-.3.05-.05.05.1.9.1-.9.15m3.8-1.1h-.1l2.5.15-.05-.05-2.35-.1m13.5 31.65q0 .55 1.05.2v-.05l-.9-.2-.15.05m-1.85.8l-.15.1q.55.45 1.4.3v.05l.95-.05v-.05l-.45-.15h-.05l-1.7-.2m-14.8-1.1l-.55-.85-.1.05q-.1.7.4 1.15v.2q1.5.9 3.3.9l.6.1.4.2 5.05-.2-4.9-.25h-.15l-.05-.05-.25-.15-.2.1-2.35-.55h-.1l.7.4q-1.3-.25-1.6-1.05h-.2" fill="#666" fill-rule="evenodd" transform="translate(51.9 -24.15)"/><path d="M-23.6 29.25l1.95.25 1.05.2.9.35.25-.35h.05q1.7.5 3.15 1.25l-6.7-.3-.65-1.4m9.3 2.8l-1.95-.05v-1.05q1.05.5 1.95 1.1m3.15 4.2l.1-1.1.7 1.15-.8-.05m1.95 3.25l.1.45h-.1v-.45m-2.2 12.15l-.8 1.15-9.1-.55.35-1.2 9.55.6m-37.15-4.35l-.25-1.1h.3l-.05 1.1m2.6-13.6l1.15-.85-.05.9-1.1-.05m3.25-2.3q1.5-.9 2.65-1.15l1.05-.2.4-.1.9-.15 2.35-.2.1.05-.55.5-1.15 1.4-5.75-.15m6.9-1.25l-3.2-.1 3.2.1m16.55.15l-.45-.25.45.25m-6.05 29.6l.75-1.1 3.4.2-1.95.55-2.2.35" fill="red" fill-rule="evenodd" transform="translate(51.9 -24.15)"/><path d="M-33.5 29.15q5.4-.35 9.9.1l.65 1.4.45 1.2.6 1.6L-38 33l1.05-1.45 14.45.3-14.45-.3 1.15-1.4.5.05h.2l.05-.7.4-.15.55-.05h.15v-.05l.2-.05.25-.05m12 5.55l.35 1.2-18.1-.6 18.1.6.4 1.55.35 2-19.95-.85 19.95.85.3 2.4.1 2.65-.25 3.15-19.95-1-.35-.05-.3-3.1 20.85 1-20.85-1 .1-2.45.4-2.45.55-1.9.55-1.4.65-1.3.55.05 16.55.65m-18.8 13.05l19.85 1.05-.5 2.25-.35 1.2-.6 1.65-1.1 2.3-.7 1.25-13.3-.55-.65-1.35 14.65.65-14.65-.65-1.05-2.45-.65-1.9-.45-1.35 18.85 1.2-18.85-1.2-.5-2.1m.5-11.05l19.05.75-19.05-.75m-.95 4.35l20.65.8-20.65-.8m19.45 11.2l-18.05-1.05 18.05 1.05m-17.4.85l16.8.8-16.8-.8" fill="#fff" fill-opacity=".663" fill-rule="evenodd" transform="translate(51.9 -24.15)"/><path d="M-22.95 30.65l6.7.3V32l1.95.05 2 1.65-9.6-.25 9.6.25 1.25 1.45-10.45-.45 10.45.45-.1 1.1-10-.35 10 .35.8.05.75 1.65.4 1.55v.45l-11.2-.5 11.2.5h.1q.2 1.15.25 2.35L-9 45.05q-.2 1.55-.75 3.15l-.45 1.15-.8 1.6-.4.7-9.55-.6.5-2.25.2-1.15.25-3.15-.1-2.65 11.25.45-11.25-.45-.3-2.4-.35-2-.4-1.55-.35-1.2-.4-1.25-.6-1.6 6.25.15-6.25-.15-.45-1.2m-14 .9L-38 33l-.6 1-.65 1.3-.55 1.4-.55 1.9-.4 2.45-.1 2.45.3 3.1.25 1.15-8.25-.45.05-1.1h-.3l-.1-.85-.2-2.25.05-2.35.35-2.5.65-1.9.8-1.35 1.1-1.15.2-.15 1.1.05 6.25.25-6.25-.25.05-.9 2.1-1.45 5.75.15M-12.2 52.8l-1.25 1.5-2.65 2.25-1.9 1.15-1.75.75-.05.05-1.35.5-3.4-.2.85-1.35.7-1.25 1.1-2.3.6-1.65 9.1.55m-26.65 5.85l-.4-.05-1.05-.65-1.95-1.3-1.65-1.4-2.2-2.5-1.2-2-.65-1.45-.6-2 8.25.45.5 2.1.45 1.35.65 1.9 1.05 2.45.65 1.35.7 1.25.65 1.2-3.2-.7M-47.25 35l8 .3-8-.3M-9 45.05l-11-.55 11 .55m-39.5 1.15l7.95.4-7.95-.4m28.25 1.45l10.5.55-10.5-.55m10.05 1.7l-10.25-.55 10.25.55m-38.9-6.25l8.25.4-8.25-.4m39.5-5.15l-11.15-.5 11.15.5m-31.15 3.1l-8.3-.3 8.3.3M-38 33l-6.8-.15 6.8.15m-10.7 5.25l8.35.35-8.35-.35m35.25 16.05l-8.45-.4 8.45.4M-18 57.7l-5.7-.25 5.7.25m-25.9-2.45l6.25.3-6.25-.3m-3.4-4.5l7.95.45-7.95-.45m5.05 5.9l5.25.25-5.25-.25m5.95 1.5l-4-.2 4 .2m-2.4-5.05l-7.4-.35 7.4.35m-9.25-3.8l8.15.55-8.15-.55M-23 56.2l6.9.35-6.9-.35m-16.8-19.5l-8.25-.35 8.25.35" fill="red" fill-opacity=".6" fill-rule="evenodd" transform="translate(51.9 -24.15)"/><path d="M-38 33l16.1.45.4 1.25-16.55-.65L-38 33m2.7-2.8l-.5-.05.55-.5-.05.55m-5 17.55l.1-1.1 19.95 1-.2 1.15-19.85-1.05m15 12.15l-.2.05-2.6.15-5.9-.45-1.5-.1q.65-.05-.15-.2l-.65-1.2 11.75.65-11.75-.65-.7-1.25 13.3.55-.85 1.35-.75 1.1" fill="#fff" fill-rule="evenodd" transform="translate(51.9 -24.15)"/><path d="M-38.25 29l.25-.05h.1v-.05l-.2-.1.15.05v-.1l.05-.1.45-.95h.05-.15l-.05-.05.1-.25.1-.05 2.75-.3-2.75.65q.45.45.05.95l.2.25 3.7.2-.05.05-.25.05-.2.05h-.15l-.55.1-.4.15-.15.05-.15.05-2.35.2-.9-.1-.05-.1v-.45l.4-.15m15.45 33.25l-2.1.15-.9-.05-3.6-.3.15-.05q1.75-.1 3.55.05l3 .1.05.05-.15.05m-7.2.25l-1.75-.1-.35-.2h.15l1.9.3h.05m-5.1-.5q-1.4.2-2.45-.4v-.05h.15l2.45.4.1.05h-.25m.3-33.15l2.35.1.05.05-2.5-.15h.1m11.65 32.45l1.7.2h.05l.45.15v.05l-.95.05v-.05q-.85.15-1.4-.3l.15-.1m1.85-.8l.15-.05.9.2v.05q-1.05.35-1.05-.2m-16.65-.3h.2q.3.8 1.6 1.05l-.7-.4h.1l2.35.55.2-.1.25.15.05.05h.15l4.9.25-5.05.2-.4-.2-.6-.1q-1.8 0-3.3-.9v-.2q-.5-.45-.4-1.15l.1-.05.55.85" fill-rule="evenodd" transform="translate(51.9 -24.15)"/><path d="M-35.05 29.5l-.05.7h-.2l.05-.55.05-.1.15-.05" fill="#fff" fill-opacity=".714" fill-rule="evenodd" transform="translate(51.9 -24.15)"/><path d="M-22.95 30.65l6.7.3q-1.45-.75-3.15-1.25m-3.1 2.15l-.45-1.2m.45 1.2l.6 1.6 9.6.25m-2-1.65l-1.95-.05-6.25-.15m-14.45-.3L-38 33m26.95 2.15l-1.25-1.45m-8.85 2.2l10 .35m1.55 1.7l.4 1.55m.1.45q.2 1.15.25 2.35l-11.25-.45m11.1 3.2q-.2 1.55-.75 3.15l-.45 1.15-.8 1.6-.4.7m-.8 1.15l-1.25 1.5m-6.3 4.15v.6m-22.5-2.4l-1.65-1.4-2.2-2.5-1.2-2m-.65-1.45l-.6-2m-.25-1.1l-.1-.85-.2-2.25m.05-2.35l.35-2.5.65-1.9 8.25.35-.55 1.9-8.35-.35m1.45-3.25l1.1-1.15.2-.15m1.15-.85l2.1-1.45m7.6-1.2h-.2m-1.65 1.35l-5.75-.15m3.7-1.35l3.2.1m-3.45 5.15l-8-.3m26.8 13.8l.2-1.15M-48.5 46.2h-.3m28.4-6.75l-.35-2 11.15.5m-10.8 1.5l11.2.5v-.45m-7.05-8.55V32M-20 44.5l11 .55m-31.85-1.55l.3 3.1-7.95-.4m38.75 2l-10.5-.55m-20.6-4.15l-8.25-.4m28.65 5.7l10.25.55m-34.6-16.5l6.8.15m-11.05 7.75l8.3.3.4-2.45m19.05 13.65l-.6 1.65 8.45.4m-26.35-4.45l.45 1.35m18.05 1.05l9.1.55m-23.3 6.75l1.5.1 5.9.45 2.6-.15.2-.05m-11-1.75l.65 1.2-3.2-.7m1.2-3.1l.65 1.35-5.25-.25m18.55.8l5.7.25m-3.15 1.3l-1.95.55-2.2.35m1.6-2.45l-.85 1.35 3.4.2m-17.55-5.9l1.05 2.45-6.25-.3m3.6 2.7l4 .2m15.35-7.1l9.55.6m-4.7 4.9l-6.9-.35m-16.8-6.35l-8.15-.55m1.85 3.45l7.4.35m18.25-4.3l-.5 2.25m-19.35-3.3l.5 2.1" fill="none" stroke="#fe8d8d" stroke-linecap="round" stroke-linejoin="round" stroke-opacity=".663" transform="translate(51.9 -24.15)"/><path d="M-19.45 29.7h.05m-2.5 3.75l.4 1.25m12.3 4.8l.1.45M-18 57.7l-1.75.75-.05.05-1.35.5m1.4.05v.15m-19.05.05l-.2-.35v-.1l.05-.05.1-.05m0-.05l-.4-.05-1.05-.65-1.95-1.3m3.25-26.6l.4-.1m2.8.2l.55-.5m15.55.4l.45.25m4.95 1.75q-.9-.6-1.95-1.1M-25.3 59.9l.75-1.1m-11.1.55q.8.15.15.2l-.15-.2m-.65-1.2l-.7-1.25m-1.8 2.35V59l-.05-.3" fill="none" stroke="red" stroke-linecap="round" stroke-linejoin="round" transform="translate(51.9 -24.15)"/><path d="M-22.5 31.85l-14.45-.3m15.8 4.35l-.35-1.2-16.55-.65-.55-.05-.65 1.3 18.1.6m-18.65.8l.55-1.4m-1.05 12.45l19.85 1.05m.2-1.15l-19.95-1-.35-.05m19.8-9.15l-19.05-.75m-.55 1.9l19.95.85m-.35-2l-.4-1.55m1.05 5.95l.1 2.65-20.85-1m20.6 4.15l.25-3.15m-.1-2.65l-20.65-.8-.1 2.45m19.55 8.75l.35-1.2-18.85-1.2m.45 1.35l18.05 1.05m-3.25 6.55l-11.75-.65M-23 56.2l-14.65-.65m.65 1.35l13.3.55m1.8-3.55l-16.8-.8-.65-1.9" fill="none" stroke="#d0ac7b" stroke-linecap="round" stroke-linejoin="round" stroke-opacity=".753" transform="translate(51.9 -24.15)"/><path d="M-19.7 30.05l.25-.35.5-1.75v-.1l-18.75-.55-.55 1.7m18.5 30.2l-.35 1.35-.7 1.45-2 .25m-2.1.15l-5.1.1m-1.75-.1l-3.35-.4m-2.45-.45l-.65-.15q-.6-1.35-.6-2.15m.2-29.3l-.1-.3.05-.05" fill="none" stroke="#000" stroke-linecap="round" stroke-linejoin="round" transform="translate(51.9 -24.15)"/><path d="M-21.5 34.7l10.45.45.7 1.15.75 1.65m.75 4.35L-9 45.05m-2.4 6.6l-.8 1.15m-1.25 1.5l-2.65 2.25-1.9 1.15m-29.3-6.95l-.65-1.45m-.6-2l-.25-1.1m-.3-3.1l.05-2.35m1-4.4l.8-1.35m1.3-1.3l1.15-.85m2.1-1.45q1.5-.9 2.65-1.15l1.05-.2m3.2.1l-1.15 1.4M-38 33l-.6 1-6.25-.25-1.1-.05m5.4 12.9l.25 1.15-8.25-.45m38.2-11l-.8-.05m1.95 3.7h.1m-11 1.9l-.3-2.4m-3.3 18l.7-1.25 1.1-2.3m-17.45-2.7l-7.95-.45" fill="none" stroke="#fe8d8d" stroke-linecap="round" stroke-linejoin="round" transform="translate(51.9 -24.15)"/><path d="M-38 33l16.1.45m-13.4-3.25l-.5-.05M-21.15 59l1.4.05" fill="none" stroke="#d0ac7b" stroke-linecap="round" stroke-linejoin="round" transform="translate(51.9 -24.15)"/></g><g id="shape3"><path d="M-118.65-776.6h-1.85l-1.95-6.15h-.15l-2 6.15h-1.8l-2.9-8.05h1.85l1.9 6h.15l1.9-6h1.95l1.9 6h.15l1.9-6h1.8l-2.85 8.05m-93.95 37.05q0 2.95-1.6 5.7 2.4 2.25 4.5 4.95l-1.1 1.3q-2.5-3.55-4.15-5.05-2.6 3.75-6.55 5.5l-.85-1.4q3.6-1.5 5.95-4.8 2.25-3 2.25-5.9h-7.1v-1.55h8.65v1.25m-84.55 40.65v12.65h-1.4v-1.4h-7.35v1.4h-1.4v-12.65h10.15m-8.75 1.35v8.55h7.35v-8.55h-7.35m-164.55 85.95h-8.05v-1.3h8.05v1.3m1.3 3.95q0 2.8-1.55 5.05-1.8 2.7-5.45 3.8l-.95-1.45q3.4-.8 5-3.1 1.4-1.85 1.35-4.3h-9V-609h10.6v1.35m76.15-46.1v5.25h-1.4v-6.8h10.25v4.65q0 3.6-1.7 5.85-1.25 1.9-4.2 3.3l-1-1.5q2.95-1.1 4.3-3.1 1.2-1.75 1.2-4.55v-3.1H-393m-178.55 91.9h-8.65v-1.3h8.65v1.3m-3.15 4.95v2.3q0 4.3-3.9 5.85l-.9-1.35q1.9-.6 2.65-1.75.7-1.05.7-2.75v-2.3h-5.75v-1.55h12.15v1.55h-4.95" fill-rule="evenodd" transform="translate(840.25 841.5)"/><path d="M-87.2-816.6v-.05l-96.4 48.25-1.1.55 1.1-.55-20.8 10.4v-.1l-16.2 8.1v-.05l-42.75 21.45-1.1.55 1.1-.55-27.65 13.8v-.05l-2.55 1.25v-.05l-96.4 48.25-1.1.55 1.1-.55-20.8 10.4v-.1l-16.2 8.1v-.05l-42.75 21.45-1.1.55 1.1-.55-27.65 13.8v-.05l-2.55 1.25v-.05l-96.4 48.25-1.1.55 1.1-.55-20.8 10.4v-.1l-16.2 8.1v-.05L-667.35-527v-3.4l170-84.8v-.05L-291-718.2v-.05l86.6-43.2 133.4-66.6v3.35l-16.2 8.1" fill="#da9c5f" fill-rule="evenodd" transform="translate(840.25 841.5)"/><path d="M-667.35-530.4v-3.5l61.75-30.8q54.1-27 108.25-54.05l18.35-9.15 79.75-39.8L-291-721.75l18.35-9.15 79.75-39.8 115.25-57.55 6.65-3.35 3.55 1.8-3.55 1.75-133.4 66.6-86.6 43.2v.05l-206.35 102.95v.05l-170 84.8" fill="#a05e27" fill-rule="evenodd" transform="translate(840.25 841.5)"/><path d="M656.65 73.1l-20.8 10.4m133.4-70.05v3.35m-133.4 63.25l133.4-66.6" fill="none" stroke="#633612" stroke-linecap="round" stroke-linejoin="round" stroke-width=".5"/><path d="M753.05 24.85l-96.4 48.25m-20.8 10.3l-16.2 8.1m0-.05L576.9 112.9m-27.65 13.75l-2.55 1.25m0-.05l-96.4 48.25m-20.8 10.3l-16.2 8.1m0-.05l-42.75 21.45m-27.65 13.75l-2.55 1.25m0-.05l-96.4 48.25m-20.8 10.3l-16.2 8.1m0-.05L172.9 314.5m0-6.9l61.75-30.8q54.1-27 108.25-54.05l18.35-9.15L441 173.8l108.25-54.05 18.35-9.15 79.75-39.8L762.6 13.25m6.65 3.55l-16.2 8.1" fill="none" stroke="#49250e" stroke-linecap="round" stroke-linejoin="round" stroke-width=".5"/><path d="M576.9 112.9l-27.65 13.8m-98.95 49.4l-20.8 10.4m-58.95 29.4l-27.65 13.8m-98.95 49.4l-20.8 10.4m119.75-63.25L549.25 123.3m0-.05l86.6-43.2M172.9 311.1l170-84.8" fill="none" stroke="#633612" stroke-linecap="round" stroke-linejoin="round" stroke-width=".5"/><path d="M762.6 13.25l6.65-3.35 3.55 1.8-3.55 1.75" fill="none" stroke="#49250e" stroke-linecap="round" stroke-linejoin="round" stroke-width=".5"/><path d="M-835.2-614.35l3.55-1.75 164.3 82.05v3.45l-167.85-83.75" fill="#a05e27" fill-rule="evenodd" transform="translate(840.25 841.5)"/><path d="M-835.25-614.35h.05-.05" fill="#da9c5f" fill-rule="evenodd" transform="translate(840.25 841.5)"/><path d="M-667.35-530.6v3.55l-4.7-2.35L-840-613.3v-3.45l4.75 2.4h.05l167.85 83.75" fill="#79421e" fill-rule="evenodd" transform="translate(840.25 841.5)"/><path d="M5.05 227.15l3.55-1.75 164.3 82.05m-4.7 4.65L.25 228.2v-3.45l4.75 2.4m.05 0H5" fill="none" stroke="#49250e" stroke-linecap="round" stroke-linejoin="round" stroke-width=".5"/><path d="M5 227.15h.05L172.9 310.9" fill="none" stroke="#633612" stroke-linecap="round" stroke-linejoin="round" stroke-width=".5"/><path d="M-662.7-542h.05v9.25l-4.7 2.2h.05l-.05-.05v-9.1l4.65-2.3m-4.65 14.95l4.7-2.3v213.5l-4.7 2.35v-213.55" fill="#cd892f" fill-rule="evenodd" transform="translate(840.25 841.5)"/><path d="M-671.95-542.05l4.6-2.35 4.65 2.4-4.65 2.3-4.6-2.35" fill="#ad6825" fill-rule="evenodd" transform="translate(840.25 841.5)"/><path d="M-667.35-313.5v3.7l-4.7-2.35V-529.4l4.7 2.35v213.55m0-226.2v9.1l-4.7-2.35.05-9.1h.05l4.6 2.35" fill="#80481c" fill-rule="evenodd" transform="translate(840.25 841.5)"/><path d="M168.3 299.45l4.6-2.35 4.65 2.4h.05v9.25l-4.7 2.2m4.7 1.2v213.5m-.05-226.15l-4.65 2.3m.05 9.15h-.05m-4.7-2.4l.05-9.1m.05 0l4.6 2.35" fill="none" stroke="#633612" stroke-linecap="round" stroke-linejoin="round" stroke-width=".5"/><path d="M172.9 310.95v3.5l4.7-2.3M172.9 528v3.7m-4.7-2.35V312.1m4.7-10.3v9.1m0 .05v-.05m0 217.1V314.45m4.7 211.2l-4.7 2.35m0 3.7l-4.7-2.35m0-217.25l4.7 2.35m0-3.55l-4.7-2.35" fill="none" stroke="#49250e" stroke-linecap="round" stroke-linejoin="round" stroke-width=".5"/><path d="M-72.15-836.55v9.1h-.05l-3.6-1.8-1.05.5v-10.1h.05l4.65 2.3" fill="#cd892f" fill-rule="evenodd" transform="translate(840.25 841.5)"/><path d="M-67.55-838.9l-4.6 2.35-4.65-2.3 4.65-2.4 4.6 2.35" fill="#ad6825" fill-rule="evenodd" transform="translate(840.25 841.5)"/><path d="M-67.5-838.9l.05 9.1-4.7 2.35v-9.1l4.6-2.35h.05" fill="#955420" fill-rule="evenodd" transform="translate(840.25 841.5)"/><path d="M768.1 14.05l4.7-2.35-.05-9.1m-.05 0l-4.6 2.35m0 9.1h-.05l-3.6-1.8-1.05.5V2.65h.05l4.65-2.4 4.6 2.35m-9.25.05l4.65 2.3" fill="none" stroke="#633612" stroke-linecap="round" stroke-linejoin="round" stroke-width=".5"/><path d="M768.1 4.95v9.1z" fill="none" stroke="#944b1d" stroke-linecap="round" stroke-linejoin="round" stroke-width=".5"/></g><g id="shape4"><path d="M-5.7-152.45l7.1-3.5 5.2 2.55-7.1 3.45v.1l-5.2-2.6" fill="#ad6825" fill-rule="evenodd" transform="translate(5.95 156.2)"/><path d="M6.6-153.4l.05-.05L6.6 74.2h-.05L-.5 77.8v-227.75l7.1-3.45m4.6 225.95l-.9.45.9-.45M6.6 74.2h-.05.05" fill="#8a3d20" fill-rule="evenodd" transform="translate(5.95 156.2)"/><path d="M-.5 73.8l-5.2-2.5v-223.75l5.2 2.6V73.8" fill="#c8722e" fill-rule="evenodd" transform="translate(5.95 156.2)"/><path d="M.25 3.75l7.1-3.5 5.2 2.55.05-.05M5.45 230l-5.2-2.5V3.75l5.2 2.6m0-.1l7.1-3.45" fill="none" stroke="#633612" stroke-linecap="round" stroke-linejoin="round" stroke-width=".5"/><path d="M5.45 6.35v-.1m0 .1V230" fill="none" stroke="#944b1d" stroke-linecap="round" stroke-linejoin="round" stroke-width=".5"/><path d="M12.5 230.4L5.45 234v-4M12.6 2.75l-.05 227.65m-.05 0h.05" fill="none" stroke="#49250e" stroke-linecap="round" stroke-linejoin="round" stroke-width=".5"/></g><g id="shape5"><path d="M-1.05 54.5v-217.1l34 17.05L33 71.6-1.05 54.5" fill="#333" fill-rule="evenodd" transform="translate(3.3 174.75)"/><path d="M2.25 12.15l34 17.05.05 217.15-34.05-17.1" fill="none" stroke="#000" stroke-linecap="round" stroke-linejoin="round" stroke-width=".5"/><path d="M6.3-172.1l-4.65 2.3-4.6-2.35 4.6-2.35 4.65 2.4m-2.65 14.9l-.55-.4-.2-.2.45.2.3.15v.25" fill="#ad6825" fill-rule="evenodd" transform="translate(3.3 174.75)"/><path d="M1.65-169.8l4.65-2.3h.05v10.1l-1.05-.5-3.6 1.85-.05-.05v-9.1" fill="#cd892f" fill-rule="evenodd" transform="translate(3.3 174.75)"/><path d="M1.65-169.8V55.95l-4.7-2.35v-216.65l.05-9.1h.05l4.6 2.35m0 9.1l-4.7-2.35 4.7 2.35" fill="#955420" fill-rule="evenodd" transform="translate(3.3 174.75)"/><path d="M9.6 2.65l-4.65 2.3M5 14.1l3.6-1.85 1.05.5V2.65H9.6L4.95.25.35 2.6l4.6 2.35m2 12.6l-.55-.4-.2-.2M.25 11.7L.3 2.6m-.05 9.1l4.7 2.35" fill="none" stroke="#633612" stroke-linecap="round" stroke-linejoin="round" stroke-width=".5"/><path d="M4.95 4.95v9.15" fill="none" stroke="#944b1d" stroke-linecap="round" stroke-linejoin="round" stroke-width=".5"/><path d="M4.95 14.1v216.6" fill="none" stroke="#633612" stroke-linecap="round" stroke-linejoin="round" stroke-width=".5"/><path d="M4.95 230.7l-4.7-2.35V11.7" fill="none" stroke="#49250e" stroke-linecap="round" stroke-linejoin="round" stroke-width=".5"/><path d="M32.9-145.15l3.95 2v3.5l-39.9-19.9v-3.5l4.85 2.4 16.7 8.35 14.4 7.15m3.95 93.85v3.5l-39.9-19.9v-3.5q10.8 5.35 21.55 10.75l18.35 9.15M18.5-30.05l18.35 9.15v3.5l-39.9-19.9v-3.5q10.8 5.35 21.55 10.75" fill="#854821" fill-rule="evenodd" transform="translate(3.3 174.75)"/><path d="M1.8-160.65l3.5-1.8 27.6 13.8v3.5l-14.4-7.15-16.7-8.35" fill="#a05e27" fill-rule="evenodd" transform="translate(3.3 174.75)"/><path d="M5.1 14.1l3.5-1.8m31.55 22.8L.25 15.2v-3.5l4.85 2.4 16.7 8.35m18.35 104.5l-39.9-19.9v-3.5q10.8 5.35 21.55 10.75m0 30.4Q11.05 139.3.25 133.95v3.5l39.9 19.9M36.2 29.6l3.95 2M21.8 22.45l14.4 7.15m-14.4 84.7l18.35 9.15m0 30.4L21.8 144.7" fill="none" stroke="#633612" stroke-linecap="round" stroke-linejoin="round" stroke-width=".5"/><path d="M8.6 12.3l27.6 13.8v3.5m3.95 2v3.5m0 88.35v3.5m0 30.4v-3.5" fill="none" stroke="#49250e" stroke-linecap="round" stroke-linejoin="round" stroke-width=".5"/></g><use height="108" width="42.5" xlink:href="#shape0" id="sprite0"/><use height="41.25" width="44.3" xlink:href="#shape2" id="sprite1"/><use height="234.25" width="17.15" xlink:href="#shape4" id="sprite2"/><use height="246.6" width="40.4" xlink:href="#shape5" id="sprite3"/><radialGradient cx="0" cy="0" gradientTransform="matrix(.0319 -.0079 .0238 .0823 543.95 -410.95)" gradientUnits="userSpaceOnUse" id="gradient0" r="819.2" spreadMethod="pad"><stop offset="0" stop-color="#c1723e"/><stop offset=".192" stop-color="#d68754"/><stop offset=".345" stop-color="#c9722c"/><stop offset=".514" stop-color="#bd7546"/><stop offset=".769" stop-color="#c86a2d"/><stop offset="1" stop-color="#985621"/></radialGradient></defs></svg>