<svg height="182" width="160" xmlns="http://www.w3.org/2000/svg"><path d="m4.25-60 1.2.55 3.85-8.6 3.9 8.6 1.25-.55 3.15 3.05 1.1 1.1-.35.4.1.1c1.4 1.367 2.167 2.883 2.3 4.55l.05.6c0 1.1-.267 2.133-.8 3.1l-.25.45-1.4 1.7.1.1-.3.3-3.25.9v4.7l-3.25.7-3.15.9.65 1.6L12.5-37c1.133-.4 2.133-.6 3-.6 1.033 0 1.75.2 2.15.6.533.533.8 1.2.8 2 0 .733-.25 1.35-.75 1.85-.7.7-2.067 1.117-4.1 1.25l-1.25.05.35 1.5 1.5-.05-.05 2.75-1.5 1.25v12.25l-.85 4.6h-1.55V-3c0 .467-.15.85-.45 1.15-.367.367-.9.55-1.6.55-.733 0-1.283-.183-1.65-.55-.267-.3-.4-.683-.4-1.15v-6.55H4.6l-2.35-3.5H.5l-1.15-.5H-8.9l-3.25-3.25v-1.7l.45-.4 1.35-1.5v-.05l-1.25-1-.7.95.4-10.9 1.75-12.8.4.35.75-.7-1-1.1c-1-1.267-1.5-2.65-1.5-4.15l.05-1c.233-1.533 1.05-2.95 2.45-4.25l-.75-.75.5-3.95.65.3 3.85-8.6 3.85 8.6L.35-60h3.9" style="fill:#fff" transform="matrix(2 0 0 2 79.441 142)"/><path d="m14.45-60-1.25.55-3.9-8.6-3.85 8.6-1.2-.55L9.3-71l5.15 11M.35-60l-1.25.55-3.85-8.6-3.85 8.6-.65-.3-.55-.25 5.05-11 5.1 11m-10.1 4.2.75.75c-1.4 1.3-2.217 2.717-2.45 4.25l-.05 1c0 1.5.5 2.883 1.5 4.15l1 1.1-.75.7-.4-.35-.6-.7c-1.2-1.467-1.8-3.1-1.8-4.9l.05-1c.233-1.867 1.15-3.533 2.75-5m-2.55 35.3.7-.95 1.25 1v.05l-1.35 1.5-.45.4v.05c-.467.3-1 .45-1.6.45-.633 0-1.517-.367-2.65-1.1l-1.9-.65c-.6 0-1.033.183-1.3.55l-.6.95-1.35-.75v-.05l1.2-1.65a2.655 2.655 0 0 1 1.95-.8c.733 0 1.483.267 2.25.8 1.1.567 1.95.85 2.55.85.433 0 .867-.217 1.3-.65M4.6-9.55h1.55V-3c0 .467.133.85.4 1.15.367.367.917.55 1.65.55.7 0 1.233-.183 1.6-.55.3-.3.45-.683.45-1.15v-6.55h1.55v6.6c0 .833-.267 1.517-.8 2.05-.633.6-1.567.9-2.8.9C6.933 0 6-.3 5.4-.9c-.533-.533-.8-1.217-.8-2.05v-6.6m9.6-20.85-1.5.05-.35-1.5 1.25-.05c2.033-.133 3.4-.55 4.1-1.25.5-.5.75-1.117.75-1.85 0-.8-.267-1.467-.8-2-.4-.4-1.117-.6-2.15-.6-.867 0-1.867.2-3 .6l-3.35 1.25-.65-1.6 3.15-.9 3.25-.7.75-.05c1.467 0 2.55.35 3.25 1.05.733.7 1.1 1.65 1.1 2.85 0 1.233-.333 2.183-1 2.85l-.4.35c-1.067.8-2.533 1.3-4.4 1.5m4.25-14.45-.1-.1 1.4-1.7.25-.45c.533-.967.8-2 .8-3.1l-.05-.6c-.133-1.667-.9-3.183-2.3-4.55l-.1-.1.35-.4h.05l.3-.35c1.7 1.567 2.617 3.367 2.75 5.4l.05.6c0 1.267-.3 2.45-.9 3.55-.467.833-1.1 1.633-1.9 2.4l-.6-.6" style="fill:#333" transform="matrix(2 0 0 2 79.441 142)"/><path d="m18.7-55.85-1.1-1.1 1.15 1.1h-.05" style="fill:red" transform="matrix(2 0 0 2 79.441 142)"/><path d="M4.25-60H.35m12.3 45.85V-26.4m6.05-29.45-1.1-1.1" style="fill:none;fill-rule:nonzero;stroke:#333;stroke-width:1px" transform="matrix(2 0 0 2 79.441 142)"/><path d="m2-1.7-2 2 1.85 1.8M0 .3V.25v2.5M0 .3l-1.85 1.8M-2-1.7 0 .25V-2.7" style="fill:none;fill-rule:nonzero;stroke:#fea5c0;stroke-width:1px" transform="matrix(2.0024 0 0 2 104.241 45)"/><path d="m60.942 22.822 8.964-19.37 8.787 18.606 11.158-.27 8.421-18.682 8.767 19.278 7.321 5.857c10.599 9.661 9.07 17.396 2.092 24.267l-6.485 2.092-.523 9.832-4.497 2.092c-1.206 5.077.437 9.149 3.974 12.552l-2.682 1.464 10.213 40.584c-24.088.395-49.785 1.04-61.006-.567-1.198-.171 2.325-20.01 1.476-20.236-1.168-.311-3.34 14.051-3.757 13.623l-3.465-9.595c3.256 1.271 6.181.423 7.222-4.028-2.328 2.503-3.952 4.013-6.884 2.337l4.803-20.863 4.71-29.078c-4.971-5.602-5.872-12.527.314-21.756l1.077-8.139Zm47.691 5.225c-2.189 1.58-3.152 1.084-4.492 7.855-1.145 5.783 3.842 9.289 7.838 12.745 5.693 4.924 12.853-1.933 8.962-12.749-2.134-5.931-8.429-10.65-12.308-7.851Z" style="fill:#d1d1d1;fill-opacity:.7;stroke:#000;stroke-width:2px;stroke-miterlimit:1.5"/><path d="m55.446 121.164 2.126-21.679" style="fill:none;stroke:#000;stroke-width:2px;stroke-linecap:butt;stroke-miterlimit:1.5"/><path d="M107.798 31.7h6.3" stroke-width="3" id="gikopoipoi_eyes_closed" style="display:none" fill="none" stroke="#000" stroke-linecap="round" stroke-linejoin="round"/><path d="M110.639 28.6h.402l1.107.2.906.7q.905.9.905 2l-.905 2.3q-.906.8-2.013.8l-1.61-.4-.503-.4-.905-1.4v-.3l-.101-.6v-.2q.1-1 1.006-1.8l.503-.4q.503-.4 1.107-.5h.1m.906 1.7-.503-.1q-.704-.1-1.107.4-.402.3-.402.9v.3l.302.9h.1l.101.1.403.2.603.1 1.107-.4.302-1.2-.1-.6-.202-.3-.1-.1-.302-.2h-.202" fill-rule="evenodd" id="gikopoipoi_eyes_open" style="stroke-width:2.00619"/></svg>