<svg height="182" width="160" xmlns="http://www.w3.org/2000/svg"><path d="m4.2-60 1.2.55 3.85-8.6 3.9 8.6L14.4-60l3.15 3.05 1.1 1.1-.35.4.1.1c1.4 1.367 2.167 2.883 2.3 4.55l.05.6c0 1.1-.267 2.133-.8 3.1l-.25.45-1.4 1.7.1.1-.3.3-3.25.9v4.7l-1.25.2-2 .5-3.15.9.65 1.6L12.45-37c1.133-.4 2.133-.6 3-.6 1.033 0 1.75.2 2.15.6.533.533.8 1.2.8 2 0 .733-.25 1.35-.75 1.85-.7.7-2.067 1.117-4.1 1.25l-1.25.05.35 1.5 1.5-.05-.05 2.75-1.5 1.25v5.75H8.05v1.55h6.6c.467 0 .85.133 1.15.4.367.367.55.917.55 1.65 0 .7-.183 1.233-.55 1.6-.3.3-.683.45-1.15.45h-6.6v1.5h-5.8c.8 0 1.45-.267 1.95-.8.6-.6.9-1.517.9-2.75 0-1.267-.3-2.2-.9-2.8-.533-.533-1.217-.8-2.05-.8h-6.6v1.55H2.1c.467 0 .85.133 1.15.4.367.367.55.917.55 1.65 0 .7-.183 1.233-.55 1.6-.3.3-.683.45-1.15.45h-6.55v1.5h-4.5l-3.25-3.25v-1.7l.45-.4c.5-.4.95-.917 1.35-1.55l-1.25-1-.7.95.4-10.95 1.75-12.8.4.35.75-.7-1-1.1c-1-1.267-1.5-2.65-1.5-4.15l.05-1c.233-1.533 1.05-2.95 2.45-4.25l-.75-.75.5-3.95.65.3 3.85-8.6 3.85 8.6L.3-60h3.9m1.2 22.05-1.35-.8-1.9-.25-2 .25-2 .5-3.1.9.65 1.6L-1-37c1.133-.4 2.133-.6 3-.6 1.033 0 1.75.2 2.15.6.533.533.8 1.2.8 2 0 .733-.25 1.35-.75 1.85-.7.7-2.05 1.117-4.05 1.25l-1.3.05.35 1.5c2.633-.033 4.6-.55 5.9-1.55l.4-.35c.667-.667 1-1.617 1-2.85 0-1.2-.367-2.15-1.1-2.85" style="fill:#fff" transform="matrix(2 0 0 2 79.541 142)"/><path d="m14.4-60-1.25.55-3.9-8.6-3.85 8.6L4.2-60l5.05-11 5.15 11M.3-60l-1.25.55-3.85-8.6-3.85 8.6-.65-.3-.55-.25 5.05-11L.3-60m-10.1 4.2.75.75c-1.4 1.3-2.217 2.717-2.45 4.25l-.05 1c0 1.5.5 2.883 1.5 4.15l1 1.1-.75.7-.4-.35-.6-.7c-1.2-1.467-1.8-3.1-1.8-4.9l.05-1c.233-1.867 1.15-3.533 2.75-5m-2.55 35.35.7-.95 1.25 1c-.4.633-.85 1.15-1.35 1.55l-.45.4a3.13 3.13 0 0 1-1.25.45h-.35c-.633 0-1.517-.367-2.65-1.1-.8-.433-1.433-.65-1.9-.65-.6 0-1.033.183-1.3.55l-.6.95-1.35-.75a4.495 4.495 0 0 1 1.2-1.65 2.654 2.654 0 0 1 1.95-.8c.733 0 1.483.267 2.25.8 1.1.567 1.95.85 2.55.85.433 0 .867-.217 1.3-.65m7.9 6.95V-15H2.1c.467 0 .85-.15 1.15-.45.367-.367.55-.9.55-1.6 0-.733-.183-1.283-.55-1.65-.3-.267-.683-.4-1.15-.4h-6.55v-1.55h6.6c.833 0 1.517.267 2.05.8.6.6.9 1.533.9 2.8 0 1.233-.3 2.15-.9 2.75-.5.533-1.15.8-1.95.8h-6.7m12.5 0V-15h6.6c.467 0 .85-.15 1.15-.45.367-.367.55-.9.55-1.6 0-.733-.183-1.283-.55-1.65-.3-.267-.683-.4-1.15-.4h-6.6v-1.55h6.65c.833 0 1.517.267 2.05.8.6.6.9 1.533.9 2.8 0 1.233-.3 2.15-.9 2.75-.533.533-1.217.8-2.05.8H8.05m6.1-16.9-1.5.05-.35-1.5 1.25-.05c2.033-.133 3.4-.55 4.1-1.25.5-.5.75-1.117.75-1.85 0-.8-.267-1.467-.8-2-.4-.4-1.117-.6-2.15-.6-.867 0-1.867.2-3 .6L9.1-35.75l-.65-1.6 3.15-.9 2-.5 1.25-.2.75-.05 1.85.25c.567.167 1.033.433 1.4.8.733.7 1.1 1.65 1.1 2.85 0 1.233-.333 2.183-1 2.85l-.4.35c-1.067.8-2.533 1.3-4.4 1.5m4.25-14.45-.1-.1 1.4-1.7.25-.45c.533-.967.8-2 .8-3.1l-.05-.6c-.133-1.667-.9-3.183-2.3-4.55l-.1-.1.35-.4h.05l.3-.35c1.7 1.567 2.617 3.367 2.75 5.4l.05.6c0 1.267-.3 2.45-.9 3.55-.467.833-1.1 1.633-1.9 2.4l-.6-.6m-13 6.9c.733.7 1.1 1.65 1.1 2.85 0 1.233-.333 2.183-1 2.85l-.4.35c-1.3 1-3.267 1.517-5.9 1.55l-.35-1.5 1.3-.05c2-.133 3.35-.55 4.05-1.25.5-.5.75-1.117.75-1.85 0-.8-.267-1.467-.8-2-.4-.4-1.117-.6-2.15-.6-.867 0-1.867.2-3 .6l-3.3 1.25-.65-1.6 3.1-.9 2-.5 2-.25 1.9.25 1.35.8" style="fill:#333" transform="matrix(2 0 0 2 79.541 142)"/><path d="m18.65-55.85-1.1-1.1 1.15 1.1h-.05" style="fill:red" transform="matrix(2 0 0 2 79.541 142)"/><path d="M4.2-60H.3m12.3 39.35v-5.75m6.05-29.45-1.1-1.1" style="fill:none;fill-rule:nonzero;stroke:#333;stroke-width:1px" transform="matrix(2 0 0 2 79.541 142)"/><path d="M10.25-2.6H.75l-1.1-1" style="fill:none;fill-rule:nonzero;stroke:#333;stroke-width:1px" transform="matrix(2.0024 0 0 2 84.942 45.4)"/><path d="m2-1.7-2 2 1.85 1.8M0 .3V.25v2.5M0 .3l-1.85 1.8M-2-1.7 0 .25V-2.7" style="fill:none;fill-rule:nonzero;stroke:#fea5c0;stroke-width:1px" transform="matrix(2.0024 0 0 2 67.021 44.2)"/><path d="m60.942 22.822 8.964-19.37 8.787 18.606 11.158-.27 8.421-18.682 8.767 19.278 7.321 5.857c10.599 9.661 9.07 17.396 2.092 24.267l-6.485 2.092-.523 9.832-4.497 2.092c-1.206 5.077.437 9.149 3.974 12.552l-2.682 1.464 8.402 23.924c-4.909-4.444-26.504-8.416-36.105-2.641-7.513 4.519-13.511 12.746-13.881 12.916-8.274-1.395-16.22-13.026-9.814-32.944l4.71-29.078c-4.971-5.602-5.872-12.527.314-21.756l1.077-8.139ZM78.17 66.315c-.687 5.353 1.141 9.779 5.754 13.179 5.311-1.576 8.956-4.241 7.006-10.564-2.84-4.327-7.409-4.427-12.76-2.615Zm15.475-41.881c-15.661 0-26.704 5.333-26.704 14.166s10.36 12.62 26.022 12.62c15.661 0 26.732-3.059 26.732-11.891 0-8.833-10.388-14.895-26.05-14.895Z" style="fill:#d1d1d1;fill-opacity:.7;stroke:#000;stroke-width:2px;stroke-miterlimit:1.5"/><path d="M74.384 91c-13.609-6.578-12.399-4.292 9.54-11.506" style="fill:none;stroke:#000;stroke-width:2px;stroke-linecap:butt;stroke-miterlimit:1.5"/><path d="M98.904 51.055c-.567 8.997-4.745 12.761-6.257 16.446-4.514 11.006.717 28.256 5.91 30.875" style="fill:none;stroke:#000;stroke-width:2px;stroke-miterlimit:1.5"/><path d="M68.619 53.274c-.465 4.856 1.756 8.754 8.515 11.03" style="fill:none;stroke:#000;stroke-width:2px;stroke-linecap:butt;stroke-miterlimit:1.5"/><path d="M1.357 0h.2l.554.1.452.35q.452.45.452 1L2.563 2.6Q2.11 3 1.558 3l-.804-.2-.252-.2-.452-.7v-.15L0 1.45v-.1q.05-.5.502-.9l.252-.2q.251-.2.552-.25h.05m.453.85L1.558.8q-.352-.05-.553.2-.201.15-.201.45v.15l.15.45h.051l.05.05.201.1.302.05.552-.2.151-.6-.05-.3-.1-.15-.05-.05-.151-.1h-.101M18.257 0h.2l.553.1.453.35q.452.45.452 1l-.452 1.15q-.453.4-1.005.4l-.804-.2-.252-.2-.452-.7v-.15l-.05-.3v-.1q.05-.5.502-.9l.252-.2q.251-.2.552-.25h.05m.453.85L18.458.8q-.352-.05-.553.2-.201.15-.201.45v.15l.15.45h.051l.05.05.201.1.302.05.553-.2.15-.6-.05-.3-.1-.15-.05-.05-.151-.1h-.101" style="stroke-width:1.0025" transform="matrix(2.0024 0 0 2 73.743 27)" id="gikopoipoi_eyes_open" fill-rule="evenodd"/><g id="gikopoipoi_eyes_closed" style="display:none" fill="none" stroke="#000" stroke-linecap="round" stroke-linejoin="round"><path d="M107.46 30.1h6.3" stroke-width="3"/><path d="M-.05 1.55H3.1" stroke-width="1.5" style="display:inline" transform="matrix(2 0 0 2 73.719 27)"/></g></svg>