<svg xmlns="http://www.w3.org/2000/svg" xmlns:xlink="http://www.w3.org/1999/xlink" width="79.397" height="70.673" viewBox="0 0 21.007 18.699"><defs><g id="c" transform="translate(40.5 51.65)"><use height="40" transform="translate(-40 -20)" width="80" xlink:href="#a"/><use height="71.65" transform="translate(-40.5 -51.65)" width="62.45" xlink:href="#b"/></g><g id="b"><path d="M0-11.15 3.7-13l4.75-2.65q10.5-6.4 12.55-12.7.4-1.45.45-2.8-.05 1.35-.45 2.8-2.05 6.3-12.55 12.7L3.7-13 0-11.15m21.45-20.4v6.1q.05 6.3-8.45 12.75Q9.2-9.85 3.7-7L0-5.15-5.9-8.1v-6q5.05-2.25 8.85-4.4 27.9-16-8.9-29.65l5.95-3 6.95 3.5q14.35 7.95 14.5 16.1M-40-5.15v-20l21.3 10.65-.05 20h.05-.05L-40-5.15" fill="#e98d3b" fill-rule="evenodd" transform="translate(40.5 51.65)"/><path d="M13-12.7q2.95 2.15 4.9 4.4 3.5 3.9 3.55 7.9V0L21 2.8q-2.5 7.6-17.3 15.35L0 20l-18.7-10L0 .65v-5.8L3.7-7q5.5-2.85 9.3-5.7" fill-opacity=".502" fill-rule="evenodd" transform="translate(40.5 51.65)"/><path d="M0-5.15v1.3L-18.7 5.5h-.05l.05-20 12.8 6.4L0-5.15" fill="#c96318" fill-rule="evenodd" transform="translate(40.5 51.65)"/><path d="M-18.7 10h-.05L-40-.65v-4.5L-18.75 5.5h.05L0-3.85v4.5L-18.7 10V5.55 10m0-4.5v.05-.05" fill="#bcbcbc" fill-rule="evenodd" transform="translate(40.5 51.65)"/><path d="M-40-25.15v-6l34.05-17q36.8 13.65 8.9 29.65-3.8 2.15-8.85 4.4v6l-12.8-6.4L-40-25.15" fill="#ffe7ce" fill-rule="evenodd" transform="translate(40.5 51.65)"/><path d="M21.45-31.15q-.05 1.35-.45 2.8-2.05 6.3-12.55 12.7L3.7-13 0-11.15m21.45-14.3q.05 6.3-8.45 12.75Q9.2-9.85 3.7-7L0-5.15-5.9-8.1v-6M-18.7 10h-.05L-40-.65v-30.5m40-20 6.95 3.5q14.35 7.95 14.5 16.1M0 .65-18.7 10m0-4.45V5.5h-.05L-40-5.15m0-20 21.3 10.65 12.8 6.4M-18.7 5.5h-.05l.05-20M0-3.85-18.7 5.5" fill="none" stroke="#999" stroke-linecap="round" stroke-linejoin="round" transform="translate(40.5 51.65)"/><path d="M21.45-31.55v6.1M0-5.15v5.8M-18.7 10V5.55M-5.9-14.1q5.05-2.25 8.85-4.4 27.9-16-8.9-29.65" fill="none" stroke="#999" stroke-linecap="round" stroke-linejoin="round" transform="translate(40.5 51.65)"/></g><path d="M40 0 0 20-40 0 0-20 40 0" fill="#bcbcbc" fill-rule="evenodd" transform="translate(40 20)" id="a"/></defs><use height="71.65" transform="scale(.26096 .26098)" width="80.5" xlink:href="#c" style="stroke-width:.908543"/></svg>