<svg xmlns="http://www.w3.org/2000/svg" xmlns:xlink="http://www.w3.org/1999/xlink" width="79.935" height="71.211" viewBox="0 0 21.149 18.841"><defs><g id="c" transform="translate(40.5 51.65)"><use height="40" transform="translate(-40 -20)" width="80" xlink:href="#a"/><use height="72.15" transform="translate(-40.5 -51.65)" width="81" xlink:href="#b"/></g><g id="b"><path d="M18.45-10.8 40-.05l-21.55 10.8V-10.8" fill-opacity=".502" fill-rule="evenodd" transform="translate(40.5 51.65)"/><path d="m34.15-22.2-.05-6-40-20L0-51.15l40 20v6l-5.85 2.95M-40-25.15l40 20 18.45-9.2v20L0 14.85v-20 20L-18.7 5.5h-.05.05-.05L-40-5.15v-20" fill="#e98d3b" fill-rule="evenodd" transform="translate(40.5 51.65)"/><path d="m-5.9-48.2 40 20 .05 6-15.7 7.85L0-5.15l-40-20v-6L-5.9-48.2M0-11.15l-40-20 40 20" fill="#ffe7ce" fill-rule="evenodd" transform="translate(40.5 51.65)"/><path d="M18.45 10.75 0 20l-18.75-10L-40-.65v-4.5L-18.75 5.5h.05L0 14.85V20v-5.15l18.45-9.2v5.1" fill="#bcbcbc" fill-rule="evenodd" transform="translate(40.5 51.65)"/><path d="m-5.9-48.2 40 20 .05 6L40-25.15v-6l-40-20m-40 20 40 20m-40-14 40 20 18.45-9.2 15.7-7.85m-15.7 7.85v3.55m0 21.55L0 20l-18.75-10L-40-.65v-24.5m40 40V20m0-5.15 18.45-9.2V-10.8M0 14.85v-20M-18.75 5.5h.05-.05L-40-5.15m40 20L-18.7 5.5m37.15.15v5.1" fill="none" stroke="#999" stroke-linecap="round" stroke-linejoin="round" transform="translate(40.5 51.65)"/></g><path d="M40 0 0 20-40 0 0-20 40 0" fill="#bcbcbc" fill-rule="evenodd" transform="translate(40 20)" id="a"/></defs><use height="72.15" transform="scale(.2611 .26114)" width="81" xlink:href="#c" style="stroke-width:.907995"/></svg>