<svg xmlns:xlink="http://www.w3.org/1999/xlink" height="50.8" width="60.8" xmlns="http://www.w3.org/2000/svg"><use height="50.8" width="60.8" xlink:href="#shape0"/><defs><linearGradient gradientTransform="matrix(.0022 0 0 .0136 .1 .65)" gradientUnits="userSpaceOnUse" id="gradient0" spreadMethod="pad" x1="-819.2" x2="819.2"><stop offset="0" stop-color="#9a9a9a"/><stop offset=".51" stop-color="#dadada"/><stop offset="1" stop-color="#8d8d8d"/></linearGradient><linearGradient gradientTransform="matrix(.0022 0 0 .0136 .1 -6.35)" gradientUnits="userSpaceOnUse" id="gradient1" spreadMethod="pad" x1="-819.2" x2="819.2"><stop offset="0" stop-color="#9a9a9a"/><stop offset=".51" stop-color="#dadada"/><stop offset="1" stop-color="#8d8d8d"/></linearGradient><linearGradient gradientTransform="matrix(.0022 0 0 .0136 .1 -10.25)" gradientUnits="userSpaceOnUse" id="gradient2" spreadMethod="pad" x1="-819.2" x2="819.2"><stop offset="0" stop-color="#868686"/><stop offset=".51" stop-color="#b5b5b5"/><stop offset="1" stop-color="#828282"/></linearGradient><linearGradient gradientTransform="matrix(.0022 0 0 .0136 .1 .65)" gradientUnits="userSpaceOnUse" id="gradient3" spreadMethod="pad" x1="-819.2" x2="819.2"><stop offset="0" stop-color="#868686"/><stop offset=".51" stop-color="#b5b5b5"/><stop offset="1" stop-color="#828282"/></linearGradient><linearGradient gradientTransform="matrix(.0111 -.011 .0044 .0044 .2 .85)" gradientUnits="userSpaceOnUse" id="gradient4" spreadMethod="pad" x1="-819.2" x2="819.2"><stop offset="0" stop-color="#868686"/><stop offset=".51" stop-color="#b5b5b5"/><stop offset="1" stop-color="#828282"/></linearGradient><radialGradient cx="0" cy="0" gradientTransform="translate(-15.05 -15.45) scale(.0224)" gradientUnits="userSpaceOnUse" id="gradient5" r="819.2" spreadMethod="pad"><stop offset="0" stop-color="#a35734"/><stop offset="1" stop-color="#50381b"/></radialGradient><radialGradient cx="0" cy="0" gradientTransform="translate(14.55 -14.6) scale(.0225)" gradientUnits="userSpaceOnUse" id="gradient6" r="819.2" spreadMethod="pad"><stop offset="0" stop-color="#a35734"/><stop offset="1" stop-color="#50381b"/></radialGradient><radialGradient cx="0" cy="0" gradientTransform="translate(-3.45 -27.35) scale(.0409)" gradientUnits="userSpaceOnUse" id="gradient7" r="819.2" spreadMethod="pad"><stop offset="0" stop-color="#a35734"/><stop offset="1" stop-color="#50381b"/></radialGradient><g id="shape0"><path d="M1.95-7.3q7.15.2 12.4 2.55 5.7 2.6 5.8 6.5-.1 2.15-2 3.9-1.4 1.2-3.8 2.25Q8.5 10.6.2 10.6t-14.15-2.7l-1.2-.55q-1.6-.85-2.6-1.7-1.55-1.4-2-3.1h.05V.8q.5-2.8 4.55-5l1.2-.55q5.15-2.3 12.3-2.55v3.1Q-5.8-4-8.8-2.75l-.8.3q-2.6 1.2-2.95 2.8l-.05.5.05.45q.25 1 1.3 1.85l1.65.95.8.35q3.7 1.5 9 1.5t9.05-1.5l2.45-1.3q1.2-1 1.3-2.35-.1-2.05-3.75-3.55Q6.15-4 1.95-4.2v-3.1" fill-opacity=".2" fill-rule="evenodd" transform="translate(30.35 40.2)"/><path d="M-1.65-7.3v-.2.2" fill="url(#gradient0)" fill-rule="evenodd" transform="translate(30.35 40.2)"/><path d="M-1.65-7.5v-.65.65" fill="url(#gradient1)" fill-rule="evenodd" transform="translate(30.35 40.2)"/><path d="M1.9-8.15h.05V-.2q0 .55-.45.8L.2.9-1.15.6q-.55-.25-.5-.55v-8.2H1.9" fill="url(#gradient2)" fill-rule="evenodd" transform="translate(30.35 40.2)"/><path d="M-1.7-10.5l.5.05H1.9v2.3h-3.55l-.05-2.35" fill="url(#gradient3)" fill-rule="evenodd" transform="translate(30.35 40.2)"/><path d="M-1.65-4.2V.05q-.05.3.5.55L.2.9 1.5.6q.45-.25.45-.8v-4q4.2.2 7.3 1.45Q12.9-1.25 13 .8q-.1 1.35-1.3 2.35l-2.45 1.3Q5.5 5.95.2 5.95q-5.3 0-9-1.5l-.8-.35-1.65-.95q-1.05-.85-1.3-1.85l-.05-.45.05-.5q.35-1.6 2.95-2.8l.8-.3Q-5.8-4-1.65-4.2" fill="url(#gradient4)" fill-rule="evenodd" transform="translate(30.35 40.2)"/><path d="M1.9-10.45v2.3m.05 0v.85m-3.6 0V-8.15l-.05-2.35m.05 6.3V.05q-.05.3.5.55L.2.9 1.5.6q.45-.25.45-.8v-7.1m0 3.1q4.2.2 7.3 1.45Q12.9-1.25 13 .8q-.1 1.35-1.3 2.35l-2.45 1.3Q5.5 5.95.2 5.95q-5.3 0-9-1.5l-.8-.35-1.65-.95q-1.05-.85-1.3-1.85l-.05-.45.05-.5q.35-1.6 2.95-2.8l.8-.3Q-5.8-4-1.65-4.2v-3.1m0-.85V-7.3" fill="none" stroke="#400000" stroke-linecap="round" stroke-linejoin="round" transform="translate(30.35 40.2)"/><path d="M.25-5.35l-.15.1-29.95-15.05.2-.1-.05-4.3L.1-9.75h.05l.1 4.4" fill="url(#gradient5)" fill-rule="evenodd" transform="translate(30.35 40.2)"/><path d="M.25-5.35l-.1-4.4v-.05l29.8-14.9v4.5L.25-5.35" fill="url(#gradient6)" fill-rule="evenodd" transform="translate(30.35 40.2)"/><path d="M.1-9.75L-29.7-24.7l-.15-.1 29.8-14.9 30 15L.15-9.8l-.05.05" fill="url(#gradient7)" fill-rule="evenodd" transform="translate(30.35 40.2)"/><path d="M-29.7-24.7l.05 4.3-.2.1L.1-5.25l.15-.1-.1-4.4m-.05 0L-29.7-24.7l-.15-.1 29.8-14.9 30 15v4.5L.25-5.35M.1-9.75l.05-.05 29.8-14.9M.15-9.8v.05" fill="none" stroke="#000" stroke-linecap="round" stroke-linejoin="round" transform="translate(30.35 40.2)"/></g></defs></svg>