<svg xmlns="http://www.w3.org/2000/svg" xmlns:xlink="http://www.w3.org/1999/xlink" height="182" width="160"><defs><path d="M10.25-2.6H.75l-1.1-1" fill="none" stroke="#333" stroke-linecap="round" stroke-linejoin="round" transform="translate(.85 4.1)" id="a"/><path d="M2-1.7l-2 2 1.85 1.8M0 .3V.25v2.5M0 .3l-1.85 1.8M-2-1.7L0 .25V-2.7" fill="none" stroke="#fea5c0" stroke-linecap="round" stroke-linejoin="round" transform="translate(2.5 3.2)" id="c"/><g id="d"><path d="M4.1-60l1.2.55 3.85-8.6 3.9 8.6L14.3-60l3.15 3.05 1.1 1.1-.35.4.1.1q2.1 2.05 2.3 4.55l.05.6q0 1.65-.8 3.1l-.25.45-1.4 1.7.1.1-.3.3-3.25.9v4.7l-3.25.7-3.15.9.65 1.6L12.35-37l3-.6q1.55 0 2.15.6.8.8.8 2 0 1.1-.75 1.85-1.05 1.05-4.1 1.25l-1.25.05.35 1.5 1.5-.05-.05 2.75-1.5 1.25v8.75H7.95v1.55h6.6q.7 0 1.15.4.55.55.55 1.65 0 1.05-.55 1.6-.45.45-1.15.45h-6.6v.95H-1.8l-1.55 1.5V-3q0 .7-.45 1.15-.55.55-1.6.55-1.1 0-1.65-.55-.4-.45-.4-1.15v-6.55H-9l-1.7-1.1-1.75-3.9v-2.4h.15v-1.5l.45-.4.2-.15 1.15-1.4-1.25-1-.7.95.4-10.95 1.75-12.8.4.35.75-.7-1-1.1q-1.45-1.85-1.5-4v-.25l.05-.9q.35-2.3 2.45-4.25l-.75-.75.5-3.95.65.3 3.85-8.6 3.85 8.6L.2-60h3.9m12.8 4v-.2l-.2-.55-.25-.3-.45-.3-.4-.15h-.25l-.2.05-.4.1-.35.3-.25.3-.25.55v.35h.05v.05q.05.45.45.9.4.4 1 .4l.4-.05q.35-.1.65-.35l.4-.9v-.05h.05V-56m-2.2-.05v-.1l.2-.35.1-.1.15-.1h.3l.25.05.15.05.1.05v.05l.1.15.1.2v.2l-.05.2-.15.3h-.05l-.1.1-.05.05h-.15l-.2.05-.25-.05-.2-.05v-.05l-.05-.05-.05-.05-.1-.2v-.05l-.05-.15v-.05l.05-.1h-.05m-9.4 18.1Q4.25-39 2.05-39l-4 .75-3.1.9.65 1.6L-1.1-37q1.7-.6 3-.6 1.55 0 2.15.6.8.8.8 2 0 1.1-.75 1.85Q3.05-32.1.05-31.9l-1.3.05.35 1.5Q3.05-30.4 5-31.9l.4-.35q1-1 1-2.85 0-1.8-1.1-2.85m-5.35-18v-.2l-.2-.6-.25-.3-.45-.3-.15-.05-.4-.05h-.25l-.4.15-.15.1q-.15.05-.25.15l-.25.3-.05.1-.15.35-.05.1v.5H-3v.1l.45.7.25.2.8.2.4-.05.6-.35.45-.85v-.2m-2.2-.05v-.1l.05-.1.15-.3.1-.05.15-.1.3-.05.25.05h.05l.05.05h.05l.1.1h.05l.1.15.05.2V-55.85l-.05.1-.1.3-.25.15-.1.05h-.2l-.3-.05-.2-.1-.05-.05h-.05l-.1-.25-.05-.1v-.1l.05-.1h-.05" fill="#fff" fill-rule="evenodd" transform="translate(21.7 71)"/><path d="M14.3-60l-1.25.55-3.9-8.6-3.85 8.6L4.1-60l5.05-11 5.15 11M.2-60l-1.25.55-3.85-8.6-3.85 8.6-.65-.3-.55-.25 5.05-11L.2-60m-10.1 4.2l.75.75q-2.1 1.95-2.45 4.25l-.05.9v.25q.05 2.15 1.5 4l1 1.1-.75.7-.4-.35-.6-.7-.75-1.05q-1.1-1.75-1.05-3.85l.05-1q.2-1.5 1-2.85l1.75-2.15m-2.55 35.35l.7-.95 1.25 1-1.15 1.4-.2.15-.45.4q-.7.45-1.6.45-.95 0-2.65-1.1-1.2-.65-1.9-.65-.9 0-1.3.55l-.15.2-.45.75-1.35-.75q.4-.95 1.2-1.65l.6-.45 1.35-.35q1.1 0 2.25.8 1.65.85 2.55.85.6 0 1.3-.65M-9-9.55h1.55V-3q0 .7.4 1.15.55.55 1.65.55 1.05 0 1.6-.55.45-.45.45-1.15v-6.55h1.5v6.6q0 1.25-.8 2.05-.9.9-2.75.9-1.9 0-2.8-.9-.8-.8-.8-2.05v-6.6m16.95-1.5V-12h6.6q.7 0 1.15-.45.55-.55.55-1.6 0-1.1-.55-1.65-.45-.4-1.15-.4h-6.6v-1.55h6.65q1.25 0 2.05.8.9.9.9 2.8 0 1.85-.9 2.75l-.3.25q-.75.55-1.75.55H7.95v-.55m6.1-19.35l-1.5.05-.35-1.5 1.25-.05q3.05-.2 4.1-1.25.75-.75.75-1.85 0-1.2-.8-2-.6-.6-2.15-.6l-3 .6L9-35.75l-.65-1.6 3.15-.9 3.25-.7.75-.05q2.2 0 3.25 1.05 1.1 1.05 1.1 2.85 0 1.85-1 2.85l-.4.35q-1.6 1.2-4.4 1.5m4.25-14.45l-.1-.1 1.4-1.7.25-.45q.8-1.45.8-3.1l-.05-.6q-.2-2.5-2.3-4.55l-.1-.1.35-.4h.05l.3-.35q2.55 2.35 2.75 5.4l.05.6q0 1.9-.9 3.55-.7 1.25-1.9 2.4l-.6-.6m-4.4-11.1v-.25l.25-.55.25-.3.35-.3.4-.1.2-.05h.25l.4.15.45.3.25.3.2.55v.2l-.05.15v.05l-.4.9q-.3.25-.65.35l-.4.05q-.6 0-1-.4-.4-.45-.45-.9v-.05l-.05-.1m.8 0v.05l.05.15v.05l.1.2.05.05.05.05v.05l.2.05.25.05.2-.05h.15l.05-.05.1-.1h.05l.15-.3.05-.2v-.2l-.1-.2-.1-.15v-.05l-.1-.05-.15-.05-.25-.05h-.3l-.15.1-.1.1-.2.35v.2m-9.4 18q1.1 1.05 1.1 2.85 0 1.85-1 2.85l-.4.35q-1.95 1.5-5.9 1.55l-.35-1.5 1.3-.05q3-.2 4.05-1.25.75-.75.75-1.85 0-1.2-.8-2-.6-.6-2.15-.6-1.3 0-3 .6l-3.3 1.25-.65-1.6 3.1-.9 4-.75q2.2 0 3.25 1.05m-8.35-18v-.25l.05-.1.15-.35.05-.1.25-.3q.1-.1.25-.15l.15-.1.4-.15h.25l.4.05.15.05.45.3.25.3.2.6V-55.75l-.45.85-.6.35-.4.05-.8-.2-.25-.2-.45-.7v-.2l-.05-.15m.8.05v.1l.05.1.1.25h.05l.05.05.2.1.3.05h.2l.1-.05.25-.15.1-.3.05-.1V-56.15l-.05-.2-.1-.15H-1l-.1-.1h-.05l-.05-.05h-.05l-.25-.05-.3.05-.15.1-.1.05-.15.3-.05.1v.2" fill="#333" fill-rule="evenodd" transform="translate(21.7 71)"/><path d="M18.55-55.85l-1.1-1.1 1.15 1.1h-.05" fill="red" fill-rule="evenodd" transform="translate(21.7 71)"/><path d="M4.1-60H.2m12.3 39.65v-6.05m6.05-29.45l-1.1-1.1" fill="none" stroke="#333" stroke-linecap="round" stroke-linejoin="round" transform="translate(21.7 71)"/></g><g id="e" transform="translate(11.45 4.1)"><use height="2" transform="translate(-.85 -4.1)" width="11.6" xlink:href="#a"/><use height="6.45" transform="translate(-11.45 -3.8)" width="5" xlink:href="#b"/></g><use height="6.45" width="5" xlink:href="#c" id="b"/></defs><g transform="matrix(2 0 0 2 79.741 142)"><use height="71" transform="translate(-21.7 -71)" width="43.4" xlink:href="#d"/><use height="6.75" transform="matrix(1.0012 0 0 1 -9.063 -52.5)" width="22.2" xlink:href="#e"/></g></svg>