<svg xmlns:xlink="http://www.w3.org/1999/xlink" height="417.1" width="658.3" xmlns="http://www.w3.org/2000/svg"><g transform="translate(298.3 180.1)"><use height="200.65" transform="translate(-298.3 -180.1)" width="599.8" xlink:href="#shape0"/><use height="86.15" transform="translate(320.85 150.85)" width="39.15" xlink:href="#sprite0"/></g><defs><linearGradient gradientTransform="matrix(-.0006 .045 -.0338 -.0008 49.5 -24.2)" gradientUnits="userSpaceOnUse" id="gradient0" spreadMethod="pad" x1="-819.2" x2="819.2"><stop offset="0" stop-color="#67fe01"/><stop offset=".169" stop-color="#c1f795"/><stop offset="1" stop-color="#52cb01"/></linearGradient><linearGradient gradientTransform="matrix(.0053 .019 -.0153 .0099 35.8 -1.6)" gradientUnits="userSpaceOnUse" id="gradient1" spreadMethod="pad" x1="-819.2" x2="819.2"><stop offset="0" stop-color="#67fe01"/><stop offset=".169" stop-color="#c1f795"/><stop offset="1" stop-color="#52cb01"/></linearGradient><linearGradient gradientTransform="matrix(-.0056 .0285 -.0171 -.0077 56.05 -5.3)" gradientUnits="userSpaceOnUse" id="gradient2" spreadMethod="pad" x1="-819.2" x2="819.2"><stop offset="0" stop-color="#67fe01"/><stop offset=".169" stop-color="#c1f795"/><stop offset="1" stop-color="#52cb01"/></linearGradient><linearGradient gradientTransform="matrix(-.0006 .045 -.0338 -.0008 49.5 -24.2)" gradientUnits="userSpaceOnUse" id="gradient3" spreadMethod="pad" x1="-819.2" x2="819.2"><stop offset="0" stop-color="#73ff26"/><stop offset=".169" stop-color="#ddfbc8"/><stop offset="1" stop-color="#4ad200"/></linearGradient><linearGradient gradientTransform="matrix(.0053 .019 -.0153 .0099 80.75 -24.6)" gradientUnits="userSpaceOnUse" id="gradient4" spreadMethod="pad" x1="-819.2" x2="819.2"><stop offset="0" stop-color="#67fe01"/><stop offset=".169" stop-color="#c1f795"/><stop offset="1" stop-color="#52cb01"/></linearGradient><linearGradient gradientTransform="matrix(-.0006 .045 -.0338 -.0008 94.45 -47.2)" gradientUnits="userSpaceOnUse" id="gradient5" spreadMethod="pad" x1="-819.2" x2="819.2"><stop offset="0" stop-color="#67fe01"/><stop offset=".169" stop-color="#c1f795"/><stop offset="1" stop-color="#52cb01"/></linearGradient><linearGradient gradientTransform="matrix(-.0056 .0285 -.0171 -.0077 101 -28.3)" gradientUnits="userSpaceOnUse" id="gradient6" spreadMethod="pad" x1="-819.2" x2="819.2"><stop offset="0" stop-color="#67fe01"/><stop offset=".169" stop-color="#c1f795"/><stop offset="1" stop-color="#52cb01"/></linearGradient><linearGradient gradientTransform="matrix(-.0006 .045 -.0338 -.0008 94.45 -47.2)" gradientUnits="userSpaceOnUse" id="gradient7" spreadMethod="pad" x1="-819.2" x2="819.2"><stop offset="0" stop-color="#73ff26"/><stop offset=".169" stop-color="#ddfbc8"/><stop offset="1" stop-color="#4ad200"/></linearGradient><linearGradient gradientTransform="matrix(-.0006 .045 -.0338 -.0008 144.45 -68.2)" gradientUnits="userSpaceOnUse" id="gradient8" spreadMethod="pad" x1="-819.2" x2="819.2"><stop offset="0" stop-color="#67fe01"/><stop offset=".169" stop-color="#c1f795"/><stop offset="1" stop-color="#52cb01"/></linearGradient><linearGradient gradientTransform="matrix(.0053 .019 -.0153 .0099 130.75 -45.6)" gradientUnits="userSpaceOnUse" id="gradient9" spreadMethod="pad" x1="-819.2" x2="819.2"><stop offset="0" stop-color="#67fe01"/><stop offset=".169" stop-color="#c1f795"/><stop offset="1" stop-color="#52cb01"/></linearGradient><linearGradient gradientTransform="matrix(-.0056 .0285 -.0171 -.0077 151 -49.3)" gradientUnits="userSpaceOnUse" id="gradient10" spreadMethod="pad" x1="-819.2" x2="819.2"><stop offset="0" stop-color="#67fe01"/><stop offset=".169" stop-color="#c1f795"/><stop offset="1" stop-color="#52cb01"/></linearGradient><linearGradient gradientTransform="matrix(-.0006 .045 -.0338 -.0008 144.45 -68.2)" gradientUnits="userSpaceOnUse" id="gradient11" spreadMethod="pad" x1="-819.2" x2="819.2"><stop offset="0" stop-color="#73ff26"/><stop offset=".169" stop-color="#ddfbc8"/><stop offset="1" stop-color="#4ad200"/></linearGradient><linearGradient gradientTransform="matrix(-.0006 .045 -.0338 -.0008 285.95 -137.2)" gradientUnits="userSpaceOnUse" id="gradient12" spreadMethod="pad" x1="-819.2" x2="819.2"><stop offset="0" stop-color="#67fe01"/><stop offset=".169" stop-color="#c1f795"/><stop offset="1" stop-color="#52cb01"/></linearGradient><linearGradient gradientTransform="matrix(-.0056 .0285 -.0171 -.0077 242.5 -97.3)" gradientUnits="userSpaceOnUse" id="gradient13" spreadMethod="pad" x1="-819.2" x2="819.2"><stop offset="0" stop-color="#67fe01"/><stop offset=".169" stop-color="#c1f795"/><stop offset="1" stop-color="#52cb01"/></linearGradient><linearGradient gradientTransform="matrix(.0053 .019 -.0153 .0099 272.25 -114.6)" gradientUnits="userSpaceOnUse" id="gradient14" spreadMethod="pad" x1="-819.2" x2="819.2"><stop offset="0" stop-color="#67fe01"/><stop offset=".169" stop-color="#c1f795"/><stop offset="1" stop-color="#52cb01"/></linearGradient><linearGradient gradientTransform="matrix(-.0056 .0285 -.0171 -.0077 292.5 -118.3)" gradientUnits="userSpaceOnUse" id="gradient15" spreadMethod="pad" x1="-819.2" x2="819.2"><stop offset="0" stop-color="#67fe01"/><stop offset=".169" stop-color="#c1f795"/><stop offset="1" stop-color="#52cb01"/></linearGradient><linearGradient gradientTransform="matrix(-.0006 .045 -.0338 -.0008 235.95 -116.2)" gradientUnits="userSpaceOnUse" id="gradient16" spreadMethod="pad" x1="-819.2" x2="819.2"><stop offset="0" stop-color="#67fe01"/><stop offset=".169" stop-color="#c1f795"/><stop offset="1" stop-color="#52cb01"/></linearGradient><linearGradient gradientTransform="matrix(-.0006 .045 -.0338 -.0008 191 -93.2)" gradientUnits="userSpaceOnUse" id="gradient17" spreadMethod="pad" x1="-819.2" x2="819.2"><stop offset="0" stop-color="#67fe01"/><stop offset=".169" stop-color="#c1f795"/><stop offset="1" stop-color="#52cb01"/></linearGradient><linearGradient gradientTransform="matrix(.0053 .019 -.0153 .0099 222.25 -93.6)" gradientUnits="userSpaceOnUse" id="gradient18" spreadMethod="pad" x1="-819.2" x2="819.2"><stop offset="0" stop-color="#67fe01"/><stop offset=".169" stop-color="#c1f795"/><stop offset="1" stop-color="#52cb01"/></linearGradient><linearGradient gradientTransform="matrix(-.0006 .045 -.0338 -.0008 235.95 -116.2)" gradientUnits="userSpaceOnUse" id="gradient19" spreadMethod="pad" x1="-819.2" x2="819.2"><stop offset="0" stop-color="#73ff26"/><stop offset=".169" stop-color="#ddfbc8"/><stop offset="1" stop-color="#4ad200"/></linearGradient><linearGradient gradientTransform="matrix(.0053 .019 -.0153 .0099 177.3 -70.6)" gradientUnits="userSpaceOnUse" id="gradient20" spreadMethod="pad" x1="-819.2" x2="819.2"><stop offset="0" stop-color="#67fe01"/><stop offset=".169" stop-color="#c1f795"/><stop offset="1" stop-color="#52cb01"/></linearGradient><linearGradient gradientTransform="matrix(-.0056 .0285 -.0171 -.0077 197.55 -74.3)" gradientUnits="userSpaceOnUse" id="gradient21" spreadMethod="pad" x1="-819.2" x2="819.2"><stop offset="0" stop-color="#67fe01"/><stop offset=".169" stop-color="#c1f795"/><stop offset="1" stop-color="#52cb01"/></linearGradient><linearGradient gradientTransform="matrix(-.0006 .045 -.0338 -.0008 191 -93.2)" gradientUnits="userSpaceOnUse" id="gradient22" spreadMethod="pad" x1="-819.2" x2="819.2"><stop offset="0" stop-color="#73ff26"/><stop offset=".169" stop-color="#ddfbc8"/><stop offset="1" stop-color="#4ad200"/></linearGradient><linearGradient gradientTransform="matrix(-.0006 .045 -.0338 -.0008 285.95 -137.2)" gradientUnits="userSpaceOnUse" id="gradient23" spreadMethod="pad" x1="-819.2" x2="819.2"><stop offset="0" stop-color="#73ff26"/><stop offset=".169" stop-color="#ddfbc8"/><stop offset="1" stop-color="#4ad200"/></linearGradient><linearGradient gradientTransform="matrix(.0006 .045 .0338 -.0008 -232.8 -114.7)" gradientUnits="userSpaceOnUse" id="gradient24" spreadMethod="pad" x1="-819.2" x2="819.2"><stop offset="0" stop-color="#67fe01"/><stop offset=".169" stop-color="#c1f795"/><stop offset="1" stop-color="#52cb01"/></linearGradient><linearGradient gradientTransform="matrix(-.0053 .019 .0153 .0099 -219.1 -92.1)" gradientUnits="userSpaceOnUse" id="gradient25" spreadMethod="pad" x1="-819.2" x2="819.2"><stop offset="0" stop-color="#67fe01"/><stop offset=".169" stop-color="#c1f795"/><stop offset="1" stop-color="#52cb01"/></linearGradient><linearGradient gradientTransform="matrix(.0006 .045 .0338 -.0008 -187.85 -91.7)" gradientUnits="userSpaceOnUse" id="gradient26" spreadMethod="pad" x1="-819.2" x2="819.2"><stop offset="0" stop-color="#67fe01"/><stop offset=".169" stop-color="#c1f795"/><stop offset="1" stop-color="#52cb01"/></linearGradient><linearGradient gradientTransform="matrix(.0006 .045 .0338 -.0008 -282.8 -135.7)" gradientUnits="userSpaceOnUse" id="gradient27" spreadMethod="pad" x1="-819.2" x2="819.2"><stop offset="0" stop-color="#67fe01"/><stop offset=".169" stop-color="#c1f795"/><stop offset="1" stop-color="#52cb01"/></linearGradient><linearGradient gradientTransform="matrix(.0056 .0285 .0171 -.0077 -289.35 -116.8)" gradientUnits="userSpaceOnUse" id="gradient28" spreadMethod="pad" x1="-819.2" x2="819.2"><stop offset="0" stop-color="#67fe01"/><stop offset=".169" stop-color="#c1f795"/><stop offset="1" stop-color="#52cb01"/></linearGradient><linearGradient gradientTransform="matrix(-.0053 .019 .0153 .0099 -269.1 -113.1)" gradientUnits="userSpaceOnUse" id="gradient29" spreadMethod="pad" x1="-819.2" x2="819.2"><stop offset="0" stop-color="#67fe01"/><stop offset=".169" stop-color="#c1f795"/><stop offset="1" stop-color="#52cb01"/></linearGradient><linearGradient gradientTransform="matrix(-.0053 .019 .0153 .0099 -174.15 -69.1)" gradientUnits="userSpaceOnUse" id="gradient30" spreadMethod="pad" x1="-819.2" x2="819.2"><stop offset="0" stop-color="#67fe01"/><stop offset=".169" stop-color="#c1f795"/><stop offset="1" stop-color="#52cb01"/></linearGradient><linearGradient gradientTransform="matrix(.0056 .0285 .0171 -.0077 -194.4 -72.8)" gradientUnits="userSpaceOnUse" id="gradient31" spreadMethod="pad" x1="-819.2" x2="819.2"><stop offset="0" stop-color="#67fe01"/><stop offset=".169" stop-color="#c1f795"/><stop offset="1" stop-color="#52cb01"/></linearGradient><linearGradient gradientTransform="matrix(.0056 .0285 .0171 -.0077 -239.35 -95.8)" gradientUnits="userSpaceOnUse" id="gradient32" spreadMethod="pad" x1="-819.2" x2="819.2"><stop offset="0" stop-color="#67fe01"/><stop offset=".169" stop-color="#c1f795"/><stop offset="1" stop-color="#52cb01"/></linearGradient><linearGradient gradientTransform="matrix(.0006 .045 .0338 -.0008 -141.3 -66.7)" gradientUnits="userSpaceOnUse" id="gradient33" spreadMethod="pad" x1="-819.2" x2="819.2"><stop offset="0" stop-color="#67fe01"/><stop offset=".169" stop-color="#c1f795"/><stop offset="1" stop-color="#52cb01"/></linearGradient><linearGradient gradientTransform="matrix(.0006 .045 .0338 -.0008 -91.3 -45.7)" gradientUnits="userSpaceOnUse" id="gradient34" spreadMethod="pad" x1="-819.2" x2="819.2"><stop offset="0" stop-color="#67fe01"/><stop offset=".169" stop-color="#c1f795"/><stop offset="1" stop-color="#52cb01"/></linearGradient><linearGradient gradientTransform="matrix(.0056 .0285 .0171 -.0077 -147.85 -47.8)" gradientUnits="userSpaceOnUse" id="gradient35" spreadMethod="pad" x1="-819.2" x2="819.2"><stop offset="0" stop-color="#67fe01"/><stop offset=".169" stop-color="#c1f795"/><stop offset="1" stop-color="#52cb01"/></linearGradient><linearGradient gradientTransform="matrix(-.0053 .019 .0153 .0099 -127.6 -44.1)" gradientUnits="userSpaceOnUse" id="gradient36" spreadMethod="pad" x1="-819.2" x2="819.2"><stop offset="0" stop-color="#67fe01"/><stop offset=".169" stop-color="#c1f795"/><stop offset="1" stop-color="#52cb01"/></linearGradient><linearGradient gradientTransform="matrix(.0056 .0285 .0171 -.0077 -97.85 -26.8)" gradientUnits="userSpaceOnUse" id="gradient37" spreadMethod="pad" x1="-819.2" x2="819.2"><stop offset="0" stop-color="#67fe01"/><stop offset=".169" stop-color="#c1f795"/><stop offset="1" stop-color="#52cb01"/></linearGradient><linearGradient gradientTransform="matrix(-.0053 .019 .0153 .0099 -77.6 -23.1)" gradientUnits="userSpaceOnUse" id="gradient38" spreadMethod="pad" x1="-819.2" x2="819.2"><stop offset="0" stop-color="#67fe01"/><stop offset=".169" stop-color="#c1f795"/><stop offset="1" stop-color="#52cb01"/></linearGradient><linearGradient gradientTransform="matrix(.0006 .045 .0338 -.0008 -46.35 -22.7)" gradientUnits="userSpaceOnUse" id="gradient39" spreadMethod="pad" x1="-819.2" x2="819.2"><stop offset="0" stop-color="#67fe01"/><stop offset=".169" stop-color="#c1f795"/><stop offset="1" stop-color="#52cb01"/></linearGradient><linearGradient gradientTransform="matrix(.0056 .0285 .0171 -.0077 -52.9 -3.8)" gradientUnits="userSpaceOnUse" id="gradient40" spreadMethod="pad" x1="-819.2" x2="819.2"><stop offset="0" stop-color="#67fe01"/><stop offset=".169" stop-color="#c1f795"/><stop offset="1" stop-color="#52cb01"/></linearGradient><linearGradient gradientTransform="matrix(-.0053 .019 .0153 .0099 -32.65 -.1)" gradientUnits="userSpaceOnUse" id="gradient41" spreadMethod="pad" x1="-819.2" x2="819.2"><stop offset="0" stop-color="#67fe01"/><stop offset=".169" stop-color="#c1f795"/><stop offset="1" stop-color="#52cb01"/></linearGradient><linearGradient gradientTransform="matrix(-.0006 .045 -.0338 -.0008 23.35 42.65)" gradientUnits="userSpaceOnUse" id="gradient42" spreadMethod="pad" x1="-819.2" x2="819.2"><stop offset="0" stop-color="#67fe01"/><stop offset=".169" stop-color="#c1f795"/><stop offset="1" stop-color="#52cb01"/></linearGradient><linearGradient gradientTransform="matrix(-.0056 .0285 -.0171 -.0077 29.9 61.55)" gradientUnits="userSpaceOnUse" id="gradient43" spreadMethod="pad" x1="-819.2" x2="819.2"><stop offset="0" stop-color="#67fe01"/><stop offset=".169" stop-color="#c1f795"/><stop offset="1" stop-color="#52cb01"/></linearGradient><linearGradient gradientTransform="matrix(.0053 .019 -.0153 .0099 9.65 65.25)" gradientUnits="userSpaceOnUse" id="gradient44" spreadMethod="pad" x1="-819.2" x2="819.2"><stop offset="0" stop-color="#67fe01"/><stop offset=".169" stop-color="#c1f795"/><stop offset="1" stop-color="#52cb01"/></linearGradient><linearGradient gradientTransform="matrix(-.0006 .045 -.0338 -.0008 23.35 42.65)" gradientUnits="userSpaceOnUse" id="gradient45" spreadMethod="pad" x1="-819.2" x2="819.2"><stop offset="0" stop-color="#73ff26"/><stop offset=".169" stop-color="#ddfbc8"/><stop offset="1" stop-color="#4ad200"/></linearGradient><g id="shape0"><path d="M44 7.1v-.15q-1.55-15.85.05-31.8 1.6-14.95 4.95-26 .85-2.85 1.85-5.4l.8-2.05q1.9-4.75 4.2-8.55L49.7-3.55v1.1L47.6 11.1l.05 5.65.05.25-2.65 1.45L44 7.1" fill="url(#gradient0)" fill-rule="evenodd" transform="translate(298.3 180.1)"/><path d="M45.05 18.45l-.35.35h-1.4l-.2-1.25L41.8 12l-1.95-5.05-13.7-29.35q4.8 3.85 9.65 10.95l3.15 4.8.9 1.5L44 7.1l1.05 11.35" fill="url(#gradient1)" fill-rule="evenodd" transform="translate(298.3 180.1)"/><path d="M49.7-3.55l7.1-16.65q3.95-6.95 8-7.4L48.9 17.65l-1.25-.9-.05-5.65 2.1-13.55v-1.1" fill="url(#gradient2)" fill-rule="evenodd" transform="translate(298.3 180.1)"/><path d="M47.65 16.75l.15.25h-.1l-.05-.25" fill="url(#gradient3)" fill-rule="evenodd" transform="translate(298.3 180.1)"/><path d="M90-4.55l-.35.35h-1.4l-.2-1.25-1.3-5.55-1.95-5.05L71.1-45.4q4.8 3.85 9.65 10.95l3.15 4.8.9 1.5 4.15 12.25L90-4.55" fill="url(#gradient4)" fill-rule="evenodd" transform="translate(298.3 180.1)"/><path d="M88.95-15.9v-.15Q87.4-31.9 89-47.85q1.6-14.95 4.95-26 .85-2.85 1.85-5.4l.8-2.05q1.9-4.75 4.2-8.55l-6.15 63.3v1.1l-2.1 13.55.05 5.65.05.25L90-4.55 88.95-15.9" fill="url(#gradient5)" fill-rule="evenodd" transform="translate(298.3 180.1)"/><path d="M94.65-26.55l7.1-16.65q3.95-6.95 8-7.4L93.85-5.35l-1.25-.9-.05-5.65 2.1-13.55v-1.1" fill="url(#gradient6)" fill-rule="evenodd" transform="translate(298.3 180.1)"/><path d="M92.6-6.25l.15.25h-.1l-.05-.25" fill="url(#gradient7)" fill-rule="evenodd" transform="translate(298.3 180.1)"/><path d="M138.95-36.9v-.15q-1.55-15.85.05-31.8 1.6-14.95 4.95-26 .85-2.85 1.85-5.4l.8-2.05q1.9-4.75 4.2-8.55l-6.15 63.3v1.1l-2.1 13.55.05 5.65.05.25-2.65 1.45-1.05-11.35" fill="url(#gradient8)" fill-rule="evenodd" transform="translate(298.3 180.1)"/><path d="M140-25.55l-.35.35h-1.4l-.2-1.25-1.3-5.55-1.95-5.05-13.7-29.35q4.8 3.85 9.65 10.95l3.15 4.8.9 1.5 4.15 12.25L140-25.55" fill="url(#gradient9)" fill-rule="evenodd" transform="translate(298.3 180.1)"/><path d="M144.65-47.55l7.1-16.65q3.95-6.95 8-7.4l-15.9 45.25-1.25-.9-.05-5.65 2.1-13.55v-1.1" fill="url(#gradient10)" fill-rule="evenodd" transform="translate(298.3 180.1)"/><path d="M142.6-27.25l.15.25h-.1l-.05-.25" fill="url(#gradient11)" fill-rule="evenodd" transform="translate(298.3 180.1)"/><path d="M280.45-105.9v-.15q-1.55-15.85.05-31.8 1.6-14.95 4.95-26 .85-2.85 1.85-5.4l.8-2.05q1.9-4.75 4.2-8.55l-6.15 63.3v1.1l-2.1 13.55.05 5.65.05.25-2.65 1.45-1.05-11.35" fill="url(#gradient12)" fill-rule="evenodd" transform="translate(298.3 180.1)"/><path d="M236.15-95.55l7.1-16.65q3.95-6.95 8-7.4l-15.9 45.25-1.25-.9-.05-5.65 2.1-13.55v-1.1" fill="url(#gradient13)" fill-rule="evenodd" transform="translate(298.3 180.1)"/><path d="M281.5-94.55l-.35.35h-1.4l-.2-1.25-1.3-5.55-1.95-5.05-13.7-29.35q4.8 3.85 9.65 10.95l3.15 4.8.9 1.5 4.15 12.25 1.05 11.35" fill="url(#gradient14)" fill-rule="evenodd" transform="translate(298.3 180.1)"/><path d="M286.15-116.55l7.1-16.65q3.95-6.95 8-7.4l-15.9 45.25-1.25-.9-.05-5.65 2.1-13.55v-1.1" fill="url(#gradient15)" fill-rule="evenodd" transform="translate(298.3 180.1)"/><path d="M234.15-75l-2.65 1.45-1.05-11.35v-.15q-1.55-15.85.05-31.8 1.6-14.95 4.95-26 .85-2.85 1.85-5.4l.8-2.05q1.9-4.75 4.2-8.55l-6.15 63.3v1.1l-2.1 13.55.05 5.65.05.25" fill="url(#gradient16)" fill-rule="evenodd" transform="translate(298.3 180.1)"/><path d="M185.5-61.9v-.15q-1.55-15.85.05-31.8 1.6-14.95 4.95-26 .85-2.85 1.85-5.4l.8-2.05q1.9-4.75 4.2-8.55l-6.15 63.3v1.1l-2.1 13.55.05 5.65.05.25-2.65 1.45-1.05-11.35" fill="url(#gradient17)" fill-rule="evenodd" transform="translate(298.3 180.1)"/><path d="M231.5-73.55l-.35.35h-1.4l-.2-1.25-1.3-5.55-1.95-5.05-13.7-29.35q4.8 3.85 9.65 10.95l3.15 4.8.9 1.5 4.15 12.25 1.05 11.35" fill="url(#gradient18)" fill-rule="evenodd" transform="translate(298.3 180.1)"/><path d="M234.1-75.25l.15.25h-.1l-.05-.25" fill="url(#gradient19)" fill-rule="evenodd" transform="translate(298.3 180.1)"/><path d="M186.55-50.55l-.35.35h-1.4l-.2-1.25-1.3-5.55-1.95-5.05-13.7-29.35q4.8 3.85 9.65 10.95l3.15 4.8.9 1.5 4.15 12.25 1.05 11.35" fill="url(#gradient20)" fill-rule="evenodd" transform="translate(298.3 180.1)"/><path d="M191.2-72.55l7.1-16.65q3.95-6.95 8-7.4l-15.9 45.25-1.25-.9-.05-5.65 2.1-13.55v-1.1" fill="url(#gradient21)" fill-rule="evenodd" transform="translate(298.3 180.1)"/><path d="M189.15-52.25l.15.25h-.1l-.05-.25" fill="url(#gradient22)" fill-rule="evenodd" transform="translate(298.3 180.1)"/><path d="M284.1-96.25l.15.25h-.1l-.05-.25" fill="url(#gradient23)" fill-rule="evenodd" transform="translate(298.3 180.1)"/><path d="M-233-94.05l-6.15-63.3q2.3 3.8 4.25 8.55l.8 2.05 1.8 5.4q3.35 11.05 5 26 1.55 15.95.05 31.8v.15l-1.1 11.35-2.65-1.45h-.1l.2-.25v-5.65l-2.1-13.55v-1.1" fill="url(#gradient24)" fill-rule="evenodd" transform="translate(298.3 180.1)"/><path d="M-228.35-72.05l1.1-11.35 4.15-12.25.9-1.5 3.1-4.8q4.85-7.1 9.7-10.95l-13.7 29.35-2 5.05-1.3 5.55-.15 1.25H-228l-.35-.35" fill="url(#gradient25)" fill-rule="evenodd" transform="translate(298.3 180.1)"/><path d="M-188.05-71.05l-6.15-63.3q2.3 3.8 4.25 8.55l.8 2.05 1.8 5.4q3.35 11.05 5 26 1.55 15.95.05 31.8v.15l-1.1 11.35-2.65-1.45h-.1l.2-.25v-5.65l-2.1-13.55v-1.1" fill="url(#gradient26)" fill-rule="evenodd" transform="translate(298.3 180.1)"/><path d="M-283-115.05l-6.15-63.3q2.3 3.8 4.25 8.55l.8 2.05 1.8 5.4q3.35 11.05 5 26 1.55 15.95.05 31.8v.15l-1.1 11.35-2.65-1.45h-.1l.2-.25v-5.65l-2.1-13.55v-1.1" fill="url(#gradient27)" fill-rule="evenodd" transform="translate(298.3 180.1)"/><path d="M-283-115.05v1.1l2.1 13.55v5.65l-1.3.9-15.85-45.25q4 .45 7.95 7.4l7.1 16.65" fill="url(#gradient28)" fill-rule="evenodd" transform="translate(298.3 180.1)"/><path d="M-278.35-93.05l1.1-11.35 4.15-12.25.9-1.5 3.1-4.8q4.85-7.1 9.7-10.95l-13.7 29.35-2 5.05-1.3 5.55-.15 1.25H-278l-.35-.35" fill="url(#gradient29)" fill-rule="evenodd" transform="translate(298.3 180.1)"/><path d="M-183.4-49.05l1.1-11.35 4.15-12.25.9-1.5 3.1-4.8q4.85-7.1 9.7-10.95l-13.7 29.35-2 5.05-1.3 5.55-.15 1.25h-1.45l-.35-.35" fill="url(#gradient30)" fill-rule="evenodd" transform="translate(298.3 180.1)"/><path d="M-188.05-71.05v1.1l2.1 13.55v5.65l-1.3.9-15.85-45.25q4 .45 7.95 7.4l7.1 16.65" fill="url(#gradient31)" fill-rule="evenodd" transform="translate(298.3 180.1)"/><path d="M-233-94.05v1.1l2.1 13.55v5.65l-1.3.9-15.85-45.25q4 .45 7.95 7.4l7.1 16.65" fill="url(#gradient32)" fill-rule="evenodd" transform="translate(298.3 180.1)"/><path d="M-141.5-46.05l-6.15-63.3q2.3 3.8 4.25 8.55l.8 2.05 1.8 5.4q3.35 11.05 5 26 1.55 15.95.05 31.8v.15l-1.1 11.35-2.65-1.45h-.1l.2-.25v-5.65l-2.1-13.55v-1.1" fill="url(#gradient33)" fill-rule="evenodd" transform="translate(298.3 180.1)"/><path d="M-91.5-25.05l-6.15-63.3q2.3 3.8 4.25 8.55l.8 2.05 1.8 5.4q3.35 11.05 5 26 1.55 15.95.05 31.8v.15l-1.1 11.35-2.65-1.45h-.1l.2-.25v-5.65l-2.1-13.55v-1.1" fill="url(#gradient34)" fill-rule="evenodd" transform="translate(298.3 180.1)"/><path d="M-141.5-46.05v1.1l2.1 13.55v5.65l-1.3.9-15.85-45.25q4 .45 7.95 7.4l7.1 16.65" fill="url(#gradient35)" fill-rule="evenodd" transform="translate(298.3 180.1)"/><path d="M-136.85-24.05l1.1-11.35 4.15-12.25.9-1.5 3.1-4.8q4.85-7.1 9.7-10.95l-13.7 29.35-2 5.05-1.3 5.55-.15 1.25h-1.45l-.35-.35" fill="url(#gradient36)" fill-rule="evenodd" transform="translate(298.3 180.1)"/><path d="M-91.5-25.05v1.1l2.1 13.55v5.65l-1.3.9-15.85-45.25q4 .45 7.95 7.4l7.1 16.65" fill="url(#gradient37)" fill-rule="evenodd" transform="translate(298.3 180.1)"/><path d="M-86.85-3.05l1.1-11.35 4.15-12.25.9-1.5 3.1-4.8q4.85-7.1 9.7-10.95l-13.7 29.35-2 5.05-1.3 5.55-.15 1.25h-1.45l-.35-.35" fill="url(#gradient38)" fill-rule="evenodd" transform="translate(298.3 180.1)"/><path d="M-46.55-2.05l-6.15-63.3q2.3 3.8 4.25 8.55l.8 2.05 1.8 5.4q3.35 11.05 5 26 1.55 15.95.05 31.8v.15l-1.1 11.35q-1.3-.7-2.65-1.45h-.1l.2-.25V12.6l-2.1-13.55v-1.1" fill="url(#gradient39)" fill-rule="evenodd" transform="translate(298.3 180.1)"/><path d="M-46.55-2.05v1.1l2.1 13.55v5.65l-1.3.9L-61.6-26.1q4 .45 7.95 7.4l7.1 16.65" fill="url(#gradient40)" fill-rule="evenodd" transform="translate(298.3 180.1)"/><path d="M-41.9 19.95l1.1-11.35 4.15-12.25.9-1.5 3.1-4.8q4.85-7.1 9.7-10.95l-13.7 29.35-2 5.05-1.3 5.55-.15 1.25h-1.45l-.35-.35" fill="url(#gradient41)" fill-rule="evenodd" transform="translate(298.3 180.1)"/><path d="M437.25 143.2v-.15q-1.55-15.85.05-31.8 1.6-14.95 4.95-26 .85-2.85 1.85-5.4l.8-2.05q1.9-4.75 4.2-8.55l-6.15 63.3 7.1-16.65q3.95-6.95 8-7.4l-15.9 45.25-1.25-.9.15.25h-.1l-2.65 1.45-.35.35h-1.4l-.2-1.25-1.3-5.55-1.95-5.05-13.7-29.35q4.8 3.85 9.65 10.95l3.15 4.8.9 1.5 4.15 12.25 1.05 11.35m-96 32.65v-.15q-1.55-15.85.05-31.8 1.6-14.95 4.95-26 .85-2.85 1.85-5.4l.8-2.05q1.9-4.75 4.2-8.55l-6.15 63.3 7.1-16.65q3.95-6.95 8-7.4l-15.9 45.25-1.25-.9.15.25h-.1l-2.65 1.45-.35.35h-1.4l-.2-1.25-1.3-5.55-1.95-5.05-13.7-29.35q4.8 3.85 9.65 10.95l3.15 4.8.9 1.5 4.15 12.25 1.05 11.35m4.65-22v1.1l-2.1 13.55.05 5.65m42.35-21.3l-.35.35h-1.4l-.2-1.25-1.3-5.55-1.95-5.05-13.7-29.35q4.8 3.85 9.65 10.95l3.15 4.8.9 1.5 4.15 12.25v-.15q-1.55-15.85.05-31.8 1.6-14.95 4.95-26 .85-2.85 1.85-5.4l.8-2.05q1.9-4.75 4.2-8.55l-6.15 63.3 7.1-16.65q3.95-6.95 8-7.4l-15.9 45.25-1.25-.9.15.25h-.1l-2.65 1.45-1.05-11.35m5.7-10.65v1.1l-2.1 13.55.05 5.65m52.05-41.3v1.1l-2.1 13.55.05 5.65M578.75 74.2v-.15q-1.55-15.85.05-31.8 1.6-14.95 4.95-26 .85-2.85 1.85-5.4l.8-2.05q1.9-4.75 4.2-8.55l-6.15 63.3 7.1-16.65q3.95-6.95 8-7.4l-15.9 45.25-1.25-.9.15.25h-.1l-2.65 1.45-.35.35h-1.4l-.2-1.25-1.3-5.55-1.95-5.05-13.7-29.35q4.8 3.85 9.65 10.95l3.15 4.8.9 1.5 4.15 12.25 1.05 11.35m-45.35-1l7.1-16.65q3.95-6.95 8-7.4l-15.9 45.25-1.25-.9.15.25h-.1l-2.65 1.45-.35.35h-1.4l-.2-1.25-1.3-5.55-1.95-5.05-13.7-29.35q4.8 3.85 9.65 10.95l3.15 4.8.9 1.5 4.15 12.25v-.15q-1.55-15.85.05-31.8 1.6-14.95 4.95-26 .85-2.85 1.85-5.4l.8-2.05q1.9-4.75 4.2-8.55l-6.15 63.3v1.1l-2.1 13.55.05 5.65m52.05-41.3v1.1l-2.1 13.55.05 5.65m-98.6 34.35v-.15q-1.55-15.85.05-31.8 1.6-14.95 4.95-26 .85-2.85 1.85-5.4l.8-2.05q1.9-4.75 4.2-8.55l-6.15 63.3 7.1-16.65q3.95-6.95 8-7.4l-15.9 45.25-1.25-.9.15.25h-.1l-2.65 1.45-.35.35h-1.4l-.2-1.25-1.3-5.55-1.95-5.05-13.7-29.35q4.8 3.85 9.65 10.95l3.15 4.8.9 1.5 4.15 12.25 1.05 11.35m44.95-23l-1.05-11.35m-39.25 12.35v1.1l-2.1 13.55.05 5.65M71.05 96.7v-.15q1.5-15.85-.05-31.8-1.65-14.95-5-26l-1.8-5.4-.8-2.05q-1.95-4.75-4.25-8.55l6.15 63.3v1.1l2.1 13.55v5.65l-.2.25h.1l2.65 1.45 1.1-11.35 4.15-12.25.9-1.5 3.1-4.8q4.85-7.1 9.7-10.95L75.2 96.55l-2 5.05-1.3 5.55-.15 1.25H70.3l-.35-.35M116 119.7v-.15q1.5-15.85-.05-31.8-1.65-14.95-5-26l-1.8-5.4-.8-2.05q-1.95-4.75-4.25-8.55l6.15 63.3v1.1l2.1 13.55v5.65l-.2.25h.1l2.65 1.45 1.1-11.35 4.15-12.25.9-1.5 3.1-4.8q4.85-7.1 9.7-10.95l-13.7 29.35-2 5.05-1.3 5.55-.15 1.25h-1.45l-.35-.35M21.05 75.7v-.15q1.5-15.85-.05-31.8-1.65-14.95-5-26l-1.8-5.4-.8-2.05q-1.95-4.75-4.25-8.55l6.15 63.3v1.1l2.1 13.55v5.65l-.2.25h.1l2.65 1.45 1.1-11.35 4.15-12.25.9-1.5 3.1-4.8q4.85-7.1 9.7-10.95L25.2 75.55l-2 5.05-1.3 5.55-.15 1.25H20.3l-.35-.35m-4.65-22L8.2 48.4Q4.25 41.45.25 41L16.1 86.25l1.3-.9m92.85 23.7l-7.1-16.65Q99.2 85.45 95.2 85l15.85 45.25 1.3-.9M65.3 86.05L58.2 69.4q-3.95-6.95-7.95-7.4l15.85 45.25 1.3-.9m95.15 38.35v-.15q1.5-15.85-.05-31.8-1.65-14.95-5-26l-1.8-5.4-.8-2.05q-1.95-4.75-4.25-8.55l6.15 63.3v1.1l2.1 13.55v5.65l-.2.25h.1l2.65 1.45 1.1-11.35 4.15-12.25.9-1.5 3.1-4.8q4.85-7.1 9.7-10.95l-13.7 29.35-2 5.05-1.3 5.55-.15 1.25h-1.45l-.35-.35m51.1 9.65v-.15q1.5-15.85-.05-31.8-1.65-14.95-5-26l-1.8-5.4-.8-2.05q-1.95-4.75-4.25-8.55l6.15 63.3v1.1l2.1 13.55v5.65l-.2.25h.1l2.65 1.45 1.1-11.35 4.15-12.25.9-1.5 3.1-4.8q4.85-7.1 9.7-10.95l-13.7 29.35-2 5.05-1.3 5.55-.15 1.25h-1.45l-.35-.35m-54.65-43l-7.1-16.65q-3.95-6.95-7.95-7.4l15.85 45.25 1.3-.9m47.9.7l-7.1-16.65q-3.95-6.95-7.95-7.4l15.85 45.25 1.3-.9m48.6 13.35v-.15q1.5-15.85-.05-31.8-1.65-14.95-5-26l-1.8-5.4-.8-2.05q-1.95-4.75-4.25-8.55l6.15 63.3v1.1l2.1 13.55v5.65l-.2.25h.1q1.35.75 2.65 1.45l1.1-11.35 4.15-12.25.9-1.5 3.1-4.8q4.85-7.1 9.7-10.95l-13.7 29.35-2 5.05-1.3 5.55-.15 1.25h-1.45l-.35-.35m-4.65-22l-7.1-16.65q-3.95-6.95-7.95-7.4l15.85 45.25 1.3-.9" fill="none" stroke="#666" stroke-linecap="round" stroke-linejoin="round" stroke-width=".5"/></g><g id="shape1"><path d="M21.55 83.85L18.9 85.3l-1.05-11.35v-.15Q16.3 57.95 17.9 42q1.6-14.95 4.95-26 .85-2.85 1.85-5.4l.8-2.05Q27.4 3.8 29.7 0l-6.15 63.3v1.1l-2.1 13.55.05 5.65.05.25" fill="url(#gradient42)" fill-rule="evenodd" transform="translate(.25 .25)"/><path d="M23.55 63.3l7.1-16.65q3.95-6.95 8-7.4L22.75 84.5l-1.25-.9-.05-5.65 2.1-13.55v-1.1" fill="url(#gradient43)" fill-rule="evenodd" transform="translate(.25 .25)"/><path d="M18.9 85.3l-.35.35h-1.4l-.2-1.25-1.3-5.55-1.95-5.05L0 44.45Q4.8 48.3 9.65 55.4l3.15 4.8.9 1.5 4.15 12.25L18.9 85.3" fill="url(#gradient44)" fill-rule="evenodd" transform="translate(.25 .25)"/><path d="M21.5 83.6l.15.25h-.1l-.05-.25" fill="url(#gradient45)" fill-rule="evenodd" transform="translate(.25 .25)"/><path d="M23.8 63.55l7.1-16.65q3.95-6.95 8-7.4L23 84.75l-1.25-.9.15.25h-.1l-2.65 1.45-.35.35h-1.4l-.2-1.25-1.3-5.55-1.95-5.05L.25 44.7q4.8 3.85 9.65 10.95l3.15 4.8.9 1.5L18.1 74.2v-.15q-1.55-15.85.05-31.8 1.6-14.95 4.95-26 .85-2.85 1.85-5.4l.8-2.05q1.9-4.75 4.2-8.55l-6.15 63.3v1.1L21.7 78.2l.05 5.65M18.1 74.2l1.05 11.35" fill="none" stroke="#666" stroke-linecap="round" stroke-linejoin="round" stroke-width=".5"/></g><use height="86.15" width="39.15" xlink:href="#shape1" id="sprite0"/></defs></svg>