<svg xmlns="http://www.w3.org/2000/svg" xmlns:xlink="http://www.w3.org/1999/xlink" height="113.4" width="198.4"><defs><linearGradient gradientTransform="matrix(0 .0358 -.04 0 -.85 -21.85)" gradientUnits="userSpaceOnUse" id="a" spreadMethod="pad" x1="-819.2" x2="819.2"><stop offset="0" stop-color="#d6d6d6"/><stop offset="1" stop-color="#757575"/><stop offset="1" stop-color="#d7d7d7"/></linearGradient><linearGradient gradientTransform="matrix(.1205 0 0 .04 -.35 14.55)" gradientUnits="userSpaceOnUse" id="b" spreadMethod="pad" x1="-819.2" x2="819.2"><stop offset="0" stop-color="#b3b3b3"/><stop offset=".49" stop-color="#d7d7d7"/><stop offset="1" stop-color="#b3b3b3"/></linearGradient><radialGradient id="d" gradientUnits="userSpaceOnUse" gradientTransform="matrix(.09016 0 0 .09245 1.05 -9.85)" spreadMethod="pad" cx="0" cy="0" r="819.2" fx="0" fy="0"><stop offset=".039" stop-color="#65ffff"/><stop offset=".192" stop-color="#0ff"/><stop offset=".941" stop-color="#c4ffff" stop-opacity=".514"/></radialGradient><g id="c"><path d="M-98.75-20.6l.75-4.5q2.95-11 16.8-19.85 4.95-3.2 11.3-6.15 14.75-6.8 32.65-10.15Q-20.15-64.4-.2-64.4l6.95.05q23.4.7 42.7 6 10.65 2.9 20.05 7.25 8.9 4.1 15.1 8.75 12.9 9.7 13.8 21.75v2.4l-30.5-.4.35-3.2q0-7.65-8-13.9-4.75-3.7-12.2-6.85-6.15-2.6-13-4.4-13.6-3.6-30.2-4.1l-5.65-.1q-13.8 0-25.6 2l-.85.15q-12.3 2.1-22.45 6.45-5.1 2.15-8.9 4.55l-.1.05q-11.2 7.1-11.2 16.15 0 1.85.45 3.6 1.25 4.65 5.7 8.7Q-60-6.1-54-3.1l-29.35 8.85L-54-3.1q2 1.05 4.3 2l3.9 1.55 3.05 1.1q6.65 2.2 14.1 3.6l6.5 1L-.8 7.5v19.1V7.5l7.55-.15Q18.1 6.85 28 4.95q6.35-1.25 12.1-3.1l2.3-.75 5.65-2.2 3.65-1.65 29.55 9.6-29.55-9.6q6.9-3.4 10.95-7.25 4.15-4.05 5.25-8.6l30.5.4Q98-4.1 81.3 6.85h-.05l-2.8 1.8-.1.1-1.5.8q-3.4 1.95-7.35 3.75-5.3 2.45-11 4.45-5.8 2-11.95 3.6L28 4.95l18.55 16.4-2.15.5Q24.2 26.6-.2 26.6h-.6q-24.85-.05-45.25-5.05l-1.45-.4h-.1q-7.85-2.05-15.05-4.8l-7.25-3.05-7.35-3.75-6.1-3.8Q-92.6-.7-96.3-8.25q-2.25-4.5-2.45-9.4l29.3-.55-29.3.55-.05-1.25.05-1.7v2.95-2.95M6.75-64.35l-1.9 13.3 1.9-13.3m42.7 6l-14.4 11.4 14.4-11.4m10.8 22.65l24.35-6.65-24.35 6.65M-81.2-44.95l22.5 7-22.5-7m43.95-16.3l10.85 12.1-10.85-12.1m-10.25 82.4l18.85-16-18.85 16" fill="#ccc" fill-rule="evenodd" transform="translate(99.5 64.9)"/><path d="M34.35-46.4l-.05 22.5-9.2-2.25q-6.65-1.35-13.85-1.9L1.7-28.5H-.2l-7.35.2-15.15 1.6q-9 1.55-17.05 4.4-4.75 1.65-9.15 3.75l-6.5 3.4-3.2 1.95V-38v24.8l3.2-1.95 6.5-3.4q4.4-2.1 9.15-3.75 8.05-2.85 17.05-4.4l15.15-1.6 7.35-.2h1.9l9.55.45q7.2.55 13.85 1.9l9.2 2.25.05-22.5M18-5.7v-20.75V-5.7M-27.25-49l.85-.15q11.8-2 25.6-2l5.65.1q16.6.5 30.2 4.1 6.85 1.8 13 4.4 7.45 3.15 12.2 6.85 8 6.25 8 13.9l-.35 3.2q-1.1 4.55-5.25 8.6Q58.6-6.15 51.7-2.75L48.05-1.1 42.4 1.1l-2.3.75Q34.35 3.7 28 4.95q-9.9 1.9-21.25 2.4L-.8 7.5l-21.35-1.35-6.5-1q-7.45-1.4-14.1-3.6L-45.8.45l-3.9-1.55q-2.3-.95-4.3-2-6-3-9.75-6.4-4.45-4.05-5.7-8.7-.45-1.75-.45-3.6 0-9.05 11.2-16.15l.1-.05q3.8-2.4 8.9-4.55Q-39.55-46.9-27.25-49l.05 22.6-.05-22.6M59.5-12.7v-22.7 22.7M44.4-.05V-20.4l3.45 1.55 7.1 3.7q4.25 2.45 7.7 5.15-3.45-2.7-7.7-5.15l-7.1-3.7-3.45-1.55V-.05M34.3-23.9q5.2 1.5 10.1 3.5-4.9-2-10.1-3.5M4.5-29.3v-20.75 20.75M-42.75 1.55Q-30.85-4-15.8-5.7l14.15-.8L16.6-5.15q13 1.95 23.5 7-10.5-5.05-23.5-7L-1.65-6.5l-14.15.8Q-30.85-4-42.75 1.55m3-23.85V-.85-22.3M-9.6-6.8v-20.75V-6.8m-49-6.4l-5.15 3.7 5.15-3.7M6.75-5.35v12.7-12.7m-28.9 1.2v10.3-10.3M28 4.95v-6.7 6.7" fill="url(#a)" fill-rule="evenodd" transform="translate(99.5 64.9)"/><path d="M98.4-18.2V3q-.85 13.65-16.85 24.35l-.15.1-3 1.85q-4.1 2.45-9.05 4.75Q58.75 38.9 46.6 42l-2.2.55q-20.25 4.8-44.8 4.8h-.4v-20.1 20.1q-24.85-.05-45.25-5l-1.55-.4q-12.05-3.1-22.5-7.9-7.8-3.6-13.45-7.6l-.15-.1q-9.1-6.45-12.8-13.85Q-98.7 7.95-99 3l.25-20.65q.2 4.9 2.45 9.4 3.7 7.55 12.95 14l-.35.15.35-.15 6.1 3.8 7.35 3.75 7.25 3.05q7.2 2.75 15.05 4.8h.1l1.45.4q20.4 5 45.25 5.05v.65-.65h.6q24.4 0 44.6-4.75l2.15-.5q6.15-1.6 11.95-3.6 5.7-2 11-4.45 3.95-1.8 7.35-3.75l1.5-.8.1-.1 2.8-1.8.05.05-.05-.05h.05Q98-4.1 98.4-18.2M-83.7 5.9v20.45V5.9M46.6 42l-.05-20.65L46.6 42m34.95-14.65L81.3 6.9v-.05.05l.25 20.45m-129.15-6.2v20.8-20.8" fill="url(#b)" fill-rule="evenodd" transform="translate(99.5 64.9)"/><path d="M-98.75-20.6l.75-4.5q2.95-11 16.8-19.85 4.95-3.2 11.3-6.15 14.75-6.8 32.65-10.15Q-20.15-64.4-.2-64.4l6.95.05q23.4.7 42.7 6 10.65 2.9 20.05 7.25 8.9 4.1 15.1 8.75 12.9 9.7 13.8 21.75v.85m0 1.55V3q-.85 13.65-16.85 24.35l-.15.1-3 1.85q-4.1 2.45-9.05 4.75Q58.75 38.9 46.6 42l-2.2.55q-20.25 4.8-44.8 4.8h-.4V48M18-26.45V-5.7M-58.6-38v24.8l3.2-1.95 6.5-3.4q4.4-2.1 9.15-3.75 8.05-2.85 17.05-4.4l15.15-1.6 7.35-.2h1.9l9.55.45q7.2.55 13.85 1.9l9.2 2.25.05-22.5M62.65-10q4.15-4.05 5.25-8.6l.35-3.2q0-7.65-8-13.9-4.75-3.7-12.2-6.85-6.15-2.6-13-4.4-13.6-3.6-30.2-4.1l-5.65-.1q-13.8 0-25.6 2l-.85.15.05 22.6m73.75 47.75q6.15-1.6 11.95-3.6 5.7-2 11-4.45 3.95-1.8 7.35-3.75l1.5-.8.1-.1 2.8-1.8h.05Q98-4.1 98.4-18.2M62.65-10q-3.45-2.7-7.7-5.15l-7.1-3.7-3.45-1.55V-.05M59.5-35.4v22.7m-55-37.35v20.75m39.9 8.9q-4.9-2-10.1-3.5M-83.35 5.75Q-92.6-.7-96.3-8.25q-2.25-4.5-2.45-9.4L-99 3q.3 4.95 2.5 9.5 3.7 7.4 12.8 13.85V5.9m19.95-15.4q-4.45-4.05-5.7-8.7-.45-1.75-.45-3.6 0-9.05 11.2-16.15l.1-.05q3.8-2.4 8.9-4.55Q-39.55-46.9-27.25-49m-71.5 28.4v2.95m35 8.15l5.15-3.7m49-14.35V-6.8M-39.75-.85V-22.3M40.1 1.85q-10.5-5.05-23.5-7L-1.65-6.5l-14.15.8Q-30.85-4-42.75 1.55m-4.75 19.6l1.45.4q20.4 5 45.25 5.05h.6q24.4 0 44.6-4.75l2.15-.5L46.6 42M6.75 7.35v-12.7M-.8 27.25v20.1q-24.85-.05-45.25-5l-1.55-.4q-12.05-3.1-22.5-7.9-7.8-3.6-13.45-7.6l-.15-.1m.35-20.6l6.1 3.8 7.35 3.75 7.25 3.05q7.2 2.75 15.05 4.8h.1m-.1 20.8v-20.8M81.3 6.85v.05l.25 20.45M28-1.75v6.7m-50.15 1.2v-10.3" fill="none" stroke="#666" stroke-linecap="round" stroke-linejoin="round" transform="translate(99.5 64.9)"/><path d="M98.4-19.75v1.55l-30.5-.4M4.85-51.05l1.9-13.3M51.7-2.75L48.05-1.1 42.4 1.1l-2.3.75Q34.35 3.7 28 4.95l18.55 16.4m34.7-14.5L51.7-2.75q6.9-3.4 10.95-7.25m-27.6-36.95l14.4-11.4m35.15 16L60.25-35.7M-83.7 5.9l.35-.15L-54-3.1q-6-3-9.75-6.4m-5.7-8.7l-29.3.55-.05-1.25.05-1.7m40.05-17.35l-22.5-7m52.55 50.1q-7.45-1.4-14.1-3.6L-45.8.45l-3.9-1.55q-2.3-.95-4.3-2m27.6-46.05l-10.85-12.1M-.8 7.5l-21.35-1.35-6.5-1-18.85 16M-.8 26.6V7.5l7.55-.15M-.8 26.6v.65M81.3 6.9l-.05-.05M28 4.95q-9.9 1.9-21.25 2.4" fill="none" stroke="#666" stroke-linecap="round" stroke-linejoin="round" transform="translate(99.5 64.9)"/></g></defs><use height="113.4" width="198.4" xlink:href="#c"/><path d="M65.6-17.6q0 10.1-19.35 17.3Q26.9 6.85-.4 6.85q-27.3 0-46.65-7.15-19.35-7.2-19.3-17.3-.05-10.1 19.3-17.25T-.4-42q27.3 0 46.65 7.15Q65.6-27.7 65.6-17.6" fill="url(#d)" transform="translate(99.189 64.365)"/></svg>