<?xml version="1.0" encoding="iso-8859-1"?>
<!-- Generator: Adobe Illustrator 15.1.0, SVG Export Plug-In . SVG Version: 6.00 Build 0)  -->
<!DOCTYPE svg PUBLIC "-//W3C//DTD SVG 1.1//EN" "http://www.w3.org/Graphics/SVG/1.1/DTD/svg11.dtd">
<svg version="1.1" id="front-walking-1" xmlns="http://www.w3.org/2000/svg" xmlns:xlink="http://www.w3.org/1999/xlink" x="0px"
	 y="0px" width="159px" height="182px" viewBox="0 0 159 182" style="enable-background:new 0 0 159 182;" xml:space="preserve">
<path style="fill:#FFFFFF;" d="M50.036,62.151l-1.5-2h0.4c-3.533-4.135-5.199-8.867-5-14.201v-1.5
	c0.334-6.533,3.9-12.566,10.701-18.1c7.332-6.732,16.1-10.434,26.299-11.1c10.133,0.666,18.834,4.367,26.1,11.1
	c6.734,5.533,10.367,11.566,10.9,18.1v1.5c0,5.334-1.732,10.066-5.199,14.201h0.199h-0.1l-2.199,2.6v0.301l-2,1.799l13.1,4.701
	l0.1-0.201l1.6,0.201h1.1h0.801l0.801,0.6l1.1,1.1l0.5,0.699l0.5,3l-0.4,0.9c-0.467,2.066-1.4,3.166-2.801,3.301l-4.199,0.199
	l-2.301-1.799V77.45h-0.1l0.1-0.299l-9.898-3.6V73.45l-2.602-1l0.102,1.102l-0.602,1.799l0.701,0.201v0.1l-0.301-0.1l-0.5,17.699
	h-0.1l-0.1,3h0.1v0.199l-0.1,0.801h-0.1l-0.701,8.401l-2.1,8.199l-3.301,8v0.1h-2.299v10.4c-0.066,1.801-0.6,3.301-1.6,4.5
	c-0.867,1-2,1.5-3.4,1.5c-1.334,0-2.467-0.5-3.4-1.5c-1.066-1.199-1.6-2.699-1.6-4.5v-10.4h-2.301h-0.299v-2.4h-0.602v-0.299
	l-0.898-1.5l2.5-0.6l1.299-1c1.201-1.201,1.801-3.033,1.801-5.5c0-2.533-0.6-4.4-1.801-5.602c-1.066-1.066-2.434-1.6-4.1-1.6H69.138
	v3.1h13.1c0.934,0,1.699,0.268,2.299,0.801c0.734,0.734,1.102,1.834,1.102,3.301c0,1.4-0.367,2.467-1.102,3.199
	c-0.6,0.6-1.365,0.9-2.299,0.9h-13.1v2.799h-9.5l-4.301-1.299c-2.066-2.334-3.301-4.834-3.699-7.5l-0.201-2.4v-1.1l0.1-0.801
	l1.102-3.7h0.199v-1.1l0.301-0.301v-0.1v-2.6l0.299-4.801v-0.1l1-15.5h-0.1l-2.9-0.9l-0.9-2.6l-12.199,4.4l0.1,0.299h-0.1v0.102
	l-2.199,1.799l-4.201-0.199c-1.467-0.135-2.434-1.234-2.9-3.301l-0.299-0.9l0.5-3l0.4-0.699l1.199-1.1l0.699-0.6h0.9h1.1l1.5-0.201
	l0.102,0.201l18.1-6.5l-0.5-1.602L50.036,62.151 M59.737,86.35h0.1l-0.1-0.1V86.35 M52.337,99.251l0.1,0.199L52.337,99.251"/>
<path style="fill:#010202;" d="M106.237,75.551l-0.701-0.201l0.602-1.799l-0.102-1.102l2.602,1v0.102l9.898,3.6l-0.1,0.299h0.1
	v0.102l2.301,1.799l4.199-0.199c1.4-0.135,2.334-1.234,2.801-3.301l0.4-0.9l-0.5-3l-0.5-0.699l-1.1-1.1l-0.801-0.6h-0.801h-1.1
	l-1.6-0.201l-0.1,0.201l-13.1-4.701l2-1.799l6.299,1.898v-0.1l5.1,1.9v-0.1l0.602,0.4v0.199h0.199l2.5-0.199
	c0.268,0.199,0.467,0.199,0.6,0c2.066,0.465,3.4,1.465,4,3l0.301,0.5v0.5l0.299,0.6l0.4,1.4c0.268,1.199,0.168,2.266-0.299,3.199
	l-0.201,0.4c-0.467,2.533-1.799,4.133-4,4.799c0.066,0.602-0.066,0.668-0.4,0.201l-5.398,0.4c-0.867-0.467-1.967-1.301-3.301-2.5
	l-8.301-3v0.199l-2.799-1.1V75.551 M86.737,121.951v10.4c0,1.801,0.533,3.301,1.6,4.5c0.934,1,2.066,1.5,3.4,1.5
	c1.4,0,2.533-0.5,3.4-1.5c1-1.199,1.533-2.699,1.6-4.5v-10.4h2.299v10.4c0,2.6-0.666,4.666-2,6.199
	c-1.467,1.668-3.232,2.5-5.299,2.5c-2,0-3.768-0.832-5.301-2.5c-1.4-1.533-2.066-3.6-2-6.199v-10.4H86.737 M69.138,114.751h13.1
	c0.934,0,1.699-0.301,2.299-0.9c0.734-0.732,1.102-1.799,1.102-3.199c0-1.467-0.367-2.566-1.102-3.301
	c-0.6-0.533-1.365-0.801-2.299-0.801h-13.1v-3.1h13.199c1.666,0,3.033,0.533,4.1,1.6c1.201,1.201,1.801,3.068,1.801,5.602
	c0,2.467-0.6,4.299-1.801,5.5l-1.299,1l-2.5,0.6h-0.102H69.138v-0.201V114.751 M52.737,61.45l0.5,1.602l-18.1,6.5l-0.102-0.201
	l-1.5,0.201h-1.1h-0.9l-0.699,0.6l-1.199,1.1l-0.4,0.699l-0.5,3l0.299,0.9c0.467,2.066,1.434,3.166,2.9,3.301l4.201,0.199
	l2.199-1.799V77.45h0.1l-0.1-0.299l12.199-4.4l0.9,2.6l-11.9,4.201l-3.199,2.5c-2.133,0.6-3.934,0.465-5.4-0.4
	c-0.4,0.467-0.533,0.4-0.4-0.201c-2.266-0.666-3.6-2.266-4-4.799l-0.299-0.4c-0.467-0.934-0.566-2-0.301-3.199l0.5-1.4l0.301-0.6
	v-0.5l0.199-0.5c0.6-1.535,1.967-2.535,4.1-3c0.068,0.199,0.268,0.199,0.602,0l2.398,0.199h0.301l-0.1-0.199l0.6-0.4l0.1,0.1
	l5.1-1.9v0.1l3.602-1.299l6.398-1.5L52.737,61.45"/>
<path style="fill:none;stroke:#010202;stroke-width:2.4;stroke-linecap:round;stroke-linejoin:round;stroke-miterlimit:3;" d="
	M48.937,60.151c-3.533-4.135-5.199-8.867-5-14.201v-1.5c0.334-6.533,3.9-12.566,10.701-18.1c7.332-6.732,16.1-10.434,26.299-11.1
	c10.133,0.666,18.834,4.367,26.1,11.1c6.734,5.533,10.367,11.566,10.9,18.1v1.5c0,5.334-1.732,10.066-5.199,14.201"/>
<path style="fill:#010202;" d="M90.737,55.151c0.199,0.6,0.5,1.1,0.9,1.5l1.398,0.5l1.9-1.201c0.533-0.865,0.801-1.967,0.801-3.299
	c0-1.801-0.6-3.967-1.801-6.5h2.1c1.201,2.133,1.801,4.232,1.801,6.299s-0.434,3.668-1.301,4.801c-0.799,1.066-1.865,1.6-3.199,1.6
	c-1.801,0-3.066-0.934-3.801-2.799c-0.799,1.865-2.066,2.799-3.799,2.799c-1.4,0-2.5-0.566-3.301-1.699
	c-0.867-1.135-1.299-2.701-1.299-4.701c0-2.066,0.633-4.166,1.898-6.299h2c-1.133,2.533-1.699,4.699-1.699,6.5
	c0,1.332,0.232,2.434,0.699,3.299c0.533,0.801,1.168,1.201,1.9,1.201c0.533,0,1-0.201,1.4-0.6l0.9-1.4l0.199-2.301v-3.6h2.1v3.6
	L90.737,55.151"/>
<g id="_x38_59_1_" transform="matrix(1, 0, 0, 1, 27.05, 64.6)">
	<path style="fill:#FFFFFF;" d="M22.986-2.449l-1.5-2h0.4c-3.533-4.135-5.199-8.867-5-14.201v-1.5
		c0.334-6.533,3.9-12.566,10.701-18.1c7.332-6.732,16.1-10.434,26.299-11.1c10.133,0.666,18.834,4.367,26.1,11.1
		c6.734,5.533,10.367,11.566,10.9,18.1v1.5c0,5.334-1.732,10.066-5.199,14.201h0.199h-0.1l-2.199,2.6v0.301l-2,1.799l13.1,4.701
		l0.1-0.201l1.6,0.201h1.1h0.801l0.801,0.6l1.1,1.1l0.5,0.699l0.5,3l-0.4,0.9c-0.467,2.066-1.4,3.166-2.801,3.301l-4.199,0.199
		l-2.301-1.799V12.85h-0.1l0.1-0.299l-9.898-3.6V8.85l-2.602-1l0.102,1.102l-0.602,1.799l0.701,0.201v0.1l-0.301-0.1l-0.5,17.699
		h-0.1l-0.1,3h0.1v0.199l-0.1,0.801h-0.1l-0.701,8.401l-2.1,8.199l-3.301,8v0.1h-2.299v10.4c-0.066,1.801-0.6,3.301-1.6,4.5
		c-0.867,1-2,1.5-3.4,1.5c-1.334,0-2.467-0.5-3.4-1.5c-1.066-1.199-1.6-2.699-1.6-4.5v-10.4h-2.301h-0.299v-2.4h-0.602v-0.299
		l-0.898-1.5l2.5-0.6l1.299-1c1.201-1.201,1.801-3.033,1.801-5.5c0-2.533-0.6-4.4-1.801-5.602c-1.066-1.066-2.434-1.6-4.1-1.6
		H42.088v3.1h13.1c0.934,0,1.699,0.268,2.299,0.801c0.734,0.734,1.102,1.834,1.102,3.301c0,1.4-0.367,2.467-1.102,3.199
		c-0.6,0.6-1.365,0.9-2.299,0.9h-13.1v2.799h-9.5l-4.301-1.299c-2.066-2.334-3.301-4.834-3.699-7.5l-0.201-2.4v-1.1l0.1-0.801
		l1.102-3.7h0.199v-1.1l0.301-0.301v-0.1v-2.6l0.299-4.801v-0.1l1-15.5h-0.1l-2.9-0.9l-0.9-2.6l-12.199,4.4l0.1,0.299h-0.1v0.102
		L9.088,14.75l-4.201-0.199c-1.467-0.135-2.434-1.234-2.9-3.301l-0.299-0.9l0.5-3l0.4-0.699l1.199-1.1l0.699-0.6h0.9h1.1l1.5-0.201
		l0.102,0.201l18.1-6.5l-0.5-1.602L22.986-2.449 M32.687,21.75h0.1l-0.1-0.1V21.75 M25.287,34.651l0.1,0.199L25.287,34.651"/>
	<path style="fill:#010202;" d="M79.187,10.951l-0.701-0.201l0.602-1.799L78.986,7.85l2.602,1v0.102l9.898,3.6l-0.1,0.299h0.1v0.102
		l2.301,1.799l4.199-0.199c1.4-0.135,2.334-1.234,2.801-3.301l0.4-0.9l-0.5-3l-0.5-0.699l-1.1-1.1l-0.801-0.6h-0.801h-1.1
		l-1.6-0.201l-0.1,0.201l-13.1-4.701l2-1.799l6.299,1.898v-0.1l5.1,1.9v-0.1l0.602,0.4v0.199h0.199l2.5-0.199
		c0.268,0.199,0.467,0.199,0.6,0c2.066,0.465,3.4,1.465,4,3l0.301,0.5v0.5l0.299,0.6l0.4,1.4c0.268,1.199,0.168,2.266-0.299,3.199
		l-0.201,0.4c-0.467,2.533-1.799,4.133-4,4.799c0.066,0.602-0.066,0.668-0.4,0.201l-5.398,0.4c-0.867-0.467-1.967-1.301-3.301-2.5
		l-8.301-3v0.199l-2.799-1.1V10.951 M59.687,57.351v10.4c0,1.801,0.533,3.301,1.6,4.5c0.934,1,2.066,1.5,3.4,1.5
		c1.4,0,2.533-0.5,3.4-1.5c1-1.199,1.533-2.699,1.6-4.5v-10.4h2.299v10.4c0,2.6-0.666,4.666-2,6.199
		c-1.467,1.668-3.232,2.5-5.299,2.5c-2,0-3.768-0.832-5.301-2.5c-1.4-1.533-2.066-3.6-2-6.199v-10.4H59.687 M42.088,50.151h13.1
		c0.934,0,1.699-0.301,2.299-0.9c0.734-0.732,1.102-1.799,1.102-3.199c0-1.467-0.367-2.566-1.102-3.301
		c-0.6-0.533-1.365-0.801-2.299-0.801h-13.1v-3.1h13.199c1.666,0,3.033,0.533,4.1,1.6c1.201,1.201,1.801,3.068,1.801,5.602
		c0,2.467-0.6,4.299-1.801,5.5l-1.299,1l-2.5,0.6h-0.102H42.088V52.95V50.151 M25.687-3.15l0.5,1.602l-18.1,6.5L7.986,4.75
		l-1.5,0.201h-1.1h-0.9l-0.699,0.6l-1.199,1.1l-0.4,0.699l-0.5,3l0.299,0.9c0.467,2.066,1.434,3.166,2.9,3.301l4.201,0.199
		l2.199-1.799V12.85h0.1l-0.1-0.299l12.199-4.4l0.9,2.6l-11.9,4.201l-3.199,2.5c-2.133,0.6-3.934,0.465-5.4-0.4
		c-0.4,0.467-0.533,0.4-0.4-0.201c-2.266-0.666-3.6-2.266-4-4.799l-0.299-0.4c-0.467-0.934-0.566-2-0.301-3.199l0.5-1.4l0.301-0.6
		v-0.5l0.199-0.5c0.6-1.535,1.967-2.535,4.1-3c0.068,0.199,0.268,0.199,0.602,0l2.398,0.199h0.301l-0.1-0.199l0.6-0.4l0.1,0.1
		l5.1-1.9v0.1l3.602-1.299l6.398-1.5L25.687-3.15"/>
	<path style="fill:none;stroke:#010202;stroke-width:2.4;stroke-linecap:round;stroke-linejoin:round;stroke-miterlimit:3;" d="
		M21.887-4.449c-3.533-4.135-5.199-8.867-5-14.201v-1.5c0.334-6.533,3.9-12.566,10.701-18.1c7.332-6.732,16.1-10.434,26.299-11.1
		c10.133,0.666,18.834,4.367,26.1,11.1c6.734,5.533,10.367,11.566,10.9,18.1v1.5c0,5.334-1.732,10.066-5.199,14.201"/>
	<path style="fill:#010202;" d="M63.687-9.449c0.199,0.6,0.5,1.1,0.9,1.5l1.398,0.5l1.9-1.201c0.533-0.865,0.801-1.967,0.801-3.299
		c0-1.801-0.6-3.967-1.801-6.5h2.1c1.201,2.133,1.801,4.232,1.801,6.299s-0.434,3.668-1.301,4.801c-0.799,1.066-1.865,1.6-3.199,1.6
		c-1.801,0-3.066-0.934-3.801-2.799C61.687-6.683,60.42-5.75,58.687-5.75c-1.4,0-2.5-0.566-3.301-1.699
		c-0.867-1.135-1.299-2.701-1.299-4.701c0-2.066,0.633-4.166,1.898-6.299h2c-1.133,2.533-1.699,4.699-1.699,6.5
		c0,1.332,0.232,2.434,0.699,3.299c0.533,0.801,1.168,1.201,1.9,1.201c0.533,0,1-0.201,1.4-0.6l0.9-1.4l0.199-2.301v-3.6h2.1v3.6
		L63.687-9.449"/>
</g>
<g>
	<g id="_x38_59" transform="matrix(1, 0, 0, 1, 27.05, 64.6)">
		<path style="fill:#FFFFFF;" d="M22.986-2.449l-1.5-2h0.4c-3.533-4.135-5.199-8.867-5-14.201v-1.5
			c0.334-6.533,3.9-12.566,10.701-18.1c7.332-6.732,16.1-10.434,26.299-11.1c10.133,0.666,18.834,4.367,26.1,11.1
			c6.734,5.533,10.367,11.566,10.9,18.1v1.5c0,5.334-1.732,10.066-5.199,14.201h0.199h-0.1l-2.199,2.6v0.301l-2,1.799l13.1,4.701
			l0.1-0.201l1.6,0.201h1.1h0.801l0.801,0.6l1.1,1.1l0.5,0.699l0.5,3l-0.4,0.9c-0.467,2.066-1.4,3.166-2.801,3.301l-4.199,0.199
			l-2.301-1.799V12.85h-0.1l0.1-0.299l-9.898-3.6V8.85l-2.602-1l0.102,1.102l-0.602,1.799l0.701,0.201v0.1l-0.301-0.1l-0.5,17.699
			h-0.1l-0.1,3h0.1v0.199l-0.1,0.801h-0.1l-0.701,8.401l-2.1,8.199l-3.301,8v0.1h-2.299v10.4c-0.066,1.801-0.6,3.301-1.6,4.5
			c-0.867,1-2,1.5-3.4,1.5c-1.334,0-2.467-0.5-3.4-1.5c-1.066-1.199-1.6-2.699-1.6-4.5v-10.4h-2.301h-0.299v-2.4h-0.602v-0.299
			l-0.898-1.5l2.5-0.6l1.299-1c1.201-1.201,1.801-3.033,1.801-5.5c0-2.533-0.6-4.4-1.801-5.602c-1.066-1.066-2.434-1.6-4.1-1.6
			H42.088v3.1h13.1c0.934,0,1.699,0.268,2.299,0.801c0.734,0.734,1.102,1.834,1.102,3.301c0,1.4-0.367,2.467-1.102,3.199
			c-0.6,0.6-1.365,0.9-2.299,0.9h-13.1v2.799h-9.5l-4.301-1.299c-2.066-2.334-3.301-4.834-3.699-7.5l-0.201-2.4v-1.1l0.1-0.801
			l1.102-3.7h0.199v-1.1l0.301-0.301v-0.1v-2.6l0.299-4.801v-0.1l1-15.5h-0.1l-2.9-0.9l-0.9-2.6l-12.199,4.4l0.1,0.299h-0.1v0.102
			L9.088,14.75l-4.201-0.199c-1.467-0.135-2.434-1.234-2.9-3.301l-0.299-0.9l0.5-3l0.4-0.699l1.199-1.1l0.699-0.6h0.9h1.1l1.5-0.201
			l0.102,0.201l18.1-6.5l-0.5-1.602L22.986-2.449 M32.687,21.75h0.1l-0.1-0.1V21.75 M25.287,34.651l0.1,0.199L25.287,34.651"/>
		<path style="fill:#010202;" d="M79.187,10.951l-0.701-0.201l0.602-1.799L78.986,7.85l2.602,1v0.102l9.898,3.6l-0.1,0.299h0.1
			v0.102l2.301,1.799l4.199-0.199c1.4-0.135,2.334-1.234,2.801-3.301l0.4-0.9l-0.5-3l-0.5-0.699l-1.1-1.1l-0.801-0.6h-0.801h-1.1
			l-1.6-0.201l-0.1,0.201l-13.1-4.701l2-1.799l6.299,1.898v-0.1l5.1,1.9v-0.1l0.602,0.4v0.199h0.199l2.5-0.199
			c0.268,0.199,0.467,0.199,0.6,0c2.066,0.465,3.4,1.465,4,3l0.301,0.5v0.5l0.299,0.6l0.4,1.4c0.268,1.199,0.168,2.266-0.299,3.199
			l-0.201,0.4c-0.467,2.533-1.799,4.133-4,4.799c0.066,0.602-0.066,0.668-0.4,0.201l-5.398,0.4c-0.867-0.467-1.967-1.301-3.301-2.5
			l-8.301-3v0.199l-2.799-1.1V10.951 M59.687,57.351v10.4c0,1.801,0.533,3.301,1.6,4.5c0.934,1,2.066,1.5,3.4,1.5
			c1.4,0,2.533-0.5,3.4-1.5c1-1.199,1.533-2.699,1.6-4.5v-10.4h2.299v10.4c0,2.6-0.666,4.666-2,6.199
			c-1.467,1.668-3.232,2.5-5.299,2.5c-2,0-3.768-0.832-5.301-2.5c-1.4-1.533-2.066-3.6-2-6.199v-10.4H59.687 M42.088,50.151h13.1
			c0.934,0,1.699-0.301,2.299-0.9c0.734-0.732,1.102-1.799,1.102-3.199c0-1.467-0.367-2.566-1.102-3.301
			c-0.6-0.533-1.365-0.801-2.299-0.801h-13.1v-3.1h13.199c1.666,0,3.033,0.533,4.1,1.6c1.201,1.201,1.801,3.068,1.801,5.602
			c0,2.467-0.6,4.299-1.801,5.5l-1.299,1l-2.5,0.6h-0.102H42.088V52.95V50.151 M25.687-3.15l0.5,1.602l-18.1,6.5L7.986,4.75
			l-1.5,0.201h-1.1h-0.9l-0.699,0.6l-1.199,1.1l-0.4,0.699l-0.5,3l0.299,0.9c0.467,2.066,1.434,3.166,2.9,3.301l4.201,0.199
			l2.199-1.799V12.85h0.1l-0.1-0.299l12.199-4.4l0.9,2.6l-11.9,4.201l-3.199,2.5c-2.133,0.6-3.934,0.465-5.4-0.4
			c-0.4,0.467-0.533,0.4-0.4-0.201c-2.266-0.666-3.6-2.266-4-4.799l-0.299-0.4c-0.467-0.934-0.566-2-0.301-3.199l0.5-1.4l0.301-0.6
			v-0.5l0.199-0.5c0.6-1.535,1.967-2.535,4.1-3c0.068,0.199,0.268,0.199,0.602,0l2.398,0.199h0.301l-0.1-0.199l0.6-0.4l0.1,0.1
			l5.1-1.9v0.1l3.602-1.299l6.398-1.5L25.687-3.15"/>
		<path style="fill:none;stroke:#010202;stroke-width:2.4;stroke-linecap:round;stroke-linejoin:round;stroke-miterlimit:3;" d="
			M21.887-4.449c-3.533-4.135-5.199-8.867-5-14.201v-1.5c0.334-6.533,3.9-12.566,10.701-18.1c7.332-6.732,16.1-10.434,26.299-11.1
			c10.133,0.666,18.834,4.367,26.1,11.1c6.734,5.533,10.367,11.566,10.9,18.1v1.5c0,5.334-1.732,10.066-5.199,14.201"/>
		<path style="fill:#010202;" d="M63.687-9.449c0.199,0.6,0.5,1.1,0.9,1.5l1.398,0.5l1.9-1.201c0.533-0.865,0.801-1.967,0.801-3.299
			c0-1.801-0.6-3.967-1.801-6.5h2.1c1.201,2.133,1.801,4.232,1.801,6.299s-0.434,3.668-1.301,4.801
			c-0.799,1.066-1.865,1.6-3.199,1.6c-1.801,0-3.066-0.934-3.801-2.799C61.687-6.683,60.42-5.75,58.687-5.75
			c-1.4,0-2.5-0.566-3.301-1.699c-0.867-1.135-1.299-2.701-1.299-4.701c0-2.066,0.633-4.166,1.898-6.299h2
			c-1.133,2.533-1.699,4.699-1.699,6.5c0,1.332,0.232,2.434,0.699,3.299c0.533,0.801,1.168,1.201,1.9,1.201c0.533,0,1-0.201,1.4-0.6
			l0.9-1.4l0.199-2.301v-3.6h2.1v3.6L63.687-9.449"/>
	</g>
</g>
<path d="M71.213,36.93h1.337l4.68,4.099l-1.715,1.018l-3.634-3.285l-3.634,3.285l-1.715-1.018L71.213,36.93z"/>
<g>
	<path d="M71.213,36.93h1.337l4.68,4.099l-1.715,1.018l-3.634-3.285l-3.634,3.285l-1.715-1.018L71.213,36.93z"/>
</g>
<path d="M104.088,36.93h1.337l4.68,4.099l-1.715,1.018l-3.634-3.285l-3.634,3.285l-1.715-1.018L104.088,36.93z"/>
<g>
	<path d="M104.088,36.93h1.337l4.68,4.099l-1.715,1.018l-3.634-3.285l-3.634,3.285l-1.715-1.018L104.088,36.93z"/>
</g>
</svg>
