<?xml version="1.0" encoding="iso-8859-1"?>
<!-- Generator: Adobe Illustrator 15.1.0, SVG Export Plug-In . SVG Version: 6.00 Build 0)  -->
<!DOCTYPE svg PUBLIC "-//W3C//DTD SVG 1.1//EN" "http://www.w3.org/Graphics/SVG/1.1/DTD/svg11.dtd">
<svg version="1.1" id="front-standing" xmlns="http://www.w3.org/2000/svg" xmlns:xlink="http://www.w3.org/1999/xlink" x="0px"
	 y="0px" width="160px" height="182px" viewBox="0 0 160 182" style="enable-background:new 0 0 160 182;" xml:space="preserve">
<path style="fill:#FFFFFF;" d="M62.109,123.3l-3.199-4.699l0.199-0.201c-2.398-2.533-3.832-5.299-4.299-8.299l-0.201-2.4l0.102-1.9
	l1.1-3.699h0.199v-1.1l0.301-0.301v-0.1v-2.6v-1.4c1,0.801,2.033,1.166,3.1,1.1l0.5-0.1c2.533,0.666,4.533,0.1,6-1.699
	c0.533,0.266,0.666,0.166,0.4-0.301c1.332-1,2.166-2.6,2.5-4.801c-0.066-0.934-0.367-2.266-0.9-4l0.9-12.6l-2.701-0.199l-1,12.9
	l0.301,0.1v0.1h0.1l0.801,2.801c0.199,1.932-0.434,3.199-1.9,3.799c-0.732,1.201-2.133,1.6-4.199,1.201h-1
	c-0.801-0.268-1.668-0.834-2.602-1.701l-0.398-0.699l-0.5-1.5l-0.301-0.9l0.301-0.801l0.5-1l0.5-1.5h0.199l1.4-19.299l-1.701-0.1
	L55.811,67.3v-0.299l-4.1-5.5h0.398c-3.533-4.135-5.199-8.867-5-14.201c-0.199-7.066,3.367-13.6,10.701-19.6
	c7.332-6.732,16.1-10.434,26.299-11.1c10.135,0.666,18.834,4.367,26.102,11.1c7.266,6,10.898,12.533,10.898,19.6
	c0,5.334-1.732,10.066-5.199,14.201h0.199h-0.1l-5.199,6.199v1.6l-0.4-1.898l-1.6,0.1l1.299,19.299h0.301l0.5,1.5l0.4,1l0.4,0.801
	l-0.301,0.9l-0.6,1.5l-0.4,0.699l-1.801,1.4h-0.1l-0.1,3h0.1l-0.1,1h-0.1l-0.701,8.4l-2.1,8.199l-3.299,8v0.1H99.91v10.4
	c-0.066,1.801-0.6,3.301-1.6,4.5c-0.867,1-2,1.5-3.4,1.5c-1.334,0-2.467-0.5-3.4-1.5c-1.066-1.199-1.6-2.699-1.6-4.5v-10.4h-2.301
	h-0.299v-2.4h-0.6v-0.299l-1.801-3.1h-4.9l-3.1,3.398v2.4h-0.1H74.51v10.4c-0.066,1.801-0.6,3.301-1.6,4.5
	c-0.934,1-2.066,1.5-3.4,1.5c-1.332,0-2.5-0.5-3.5-1.5c-1-1.199-1.5-2.699-1.5-4.5v-10.4H62.109 M62.91,87.601v0.1h0.1L62.91,87.601
	 M55.51,100.601l0.1,0.199L55.51,100.601"/>
<path style="fill:#010202;" d="M108.41,97.601l0.1-3h0.1l1.801-1.4l0.4-0.699l0.6-1.5l0.301-0.9l-0.4-0.801l-0.4-1l-0.5-1.5h-0.301
	l-1.299-19.299l1.6-0.1l0.4,1.898l1.6,11.201l0.1-0.1v0.199l0.4,5.301v0.699h-0.199V86.8c0.332,0.934,0.732,1.668,1.199,2.201
	c-0.066,0.332,0.033,0.533,0.301,0.6c0.398,2.133,0,3.766-1.201,4.9l-0.299,0.4c-0.201-0.068-0.334,0-0.4,0.199l-0.5,0.5l-1.1,1
	c-0.734,0.533-1.467,0.867-2.201,1H108.41 M89.91,123.3v10.4c0,1.801,0.533,3.301,1.6,4.5c0.934,1,2.066,1.5,3.4,1.5
	c1.4,0,2.533-0.5,3.4-1.5c1-1.199,1.533-2.699,1.6-4.5v-10.4h2.301v10.4c0,2.6-0.668,4.666-2,6.199
	c-1.467,1.668-3.234,2.5-5.301,2.5c-2,0-3.768-0.832-5.301-2.5c-1.398-1.533-2.066-3.6-2-6.199v-10.4H89.91 M64.51,123.3v10.4
	c0,1.801,0.5,3.301,1.5,4.5c1,1,2.168,1.5,3.5,1.5c1.334,0,2.467-0.5,3.4-1.5c1-1.199,1.533-2.699,1.6-4.5v-10.4h2.301v10.4
	c0,2.6-0.701,4.666-2.1,6.199c-1.467,1.668-3.201,2.5-5.201,2.5s-3.766-0.832-5.299-2.5c-1.4-1.533-2.102-3.6-2.102-6.199v-10.4
	H64.51 M58.311,67.501L56.91,86.8h-0.199l-0.5,1.5l-0.5,1l-0.301,0.801l0.301,0.9l0.5,1.5l0.398,0.699
	c0.934,0.867,1.801,1.434,2.602,1.701h1c2.066,0.398,3.467,0,4.199-1.201c1.467-0.6,2.1-1.867,1.9-3.799l-0.801-2.801h-0.1v-0.1
	l-0.301-0.1l1-12.9l2.701,0.199l-0.9,12.6c0.533,1.734,0.834,3.066,0.9,4c-0.334,2.201-1.168,3.801-2.5,4.801
	c0.266,0.467,0.133,0.566-0.4,0.301c-1.467,1.799-3.467,2.365-6,1.699l-0.5,0.1c-1.066,0.066-2.1-0.299-3.1-1.1l-1.1-1l-0.4-0.5
	l-0.4-0.199l-0.4-0.4c-1.199-1.135-1.566-2.768-1.1-4.9c0.199-0.066,0.301-0.268,0.301-0.6l1.1-2.201l0.1-0.199h-0.199l-0.102-0.699
	h0.102l0.398-5.301v-0.199l0.102,0.1l1.898-13.1L58.311,67.501"/>
<path style="fill:none;stroke:#010202;stroke-width:2.4;stroke-linecap:round;stroke-linejoin:round;stroke-miterlimit:3;" d="
	M52.109,61.501c-3.533-4.135-5.199-8.867-5-14.201c-0.199-7.066,3.367-13.6,10.701-19.6c7.332-6.732,16.1-10.434,26.299-11.1
	c10.135,0.666,18.834,4.367,26.102,11.1c7.266,6,10.898,12.533,10.898,19.6c0,5.334-1.732,10.066-5.199,14.201"/>
<path style="fill:#010202;" d="M93.91,56.501c0.199,0.6,0.5,1.1,0.9,1.5l1.4,0.5l1.898-1.201c0.533-0.865,0.801-1.967,0.801-3.299
	c0-1.801-0.6-3.967-1.801-6.5h2.102c1.199,2.133,1.799,4.232,1.799,6.299s-0.434,3.668-1.299,4.801
	c-0.801,1.066-1.867,1.6-3.201,1.6c-1.799,0-3.066-0.934-3.799-2.799C91.91,59.267,90.643,60.2,88.91,60.2
	c-1.4,0-2.5-0.566-3.301-1.699c-0.865-1.135-1.299-2.701-1.299-4.701c0-2.066,0.633-4.166,1.9-6.299h2
	c-1.135,2.533-1.701,4.699-1.701,6.5c0,1.332,0.234,2.434,0.701,3.299c0.533,0.801,1.166,1.201,1.898,1.201c0.533,0,1-0.201,1.4-0.6
	l0.9-1.4l0.199-2.301v-3.6h2.102v3.6L93.91,56.501"/>
<g id="_x38_62_2_" transform="matrix(1, 0, 0, 1, 18.6, 64.6)">
	<path style="fill:#FFFFFF;" d="M43.509,58.7l-3.199-4.699l0.199-0.201c-2.398-2.533-3.832-5.299-4.299-8.299l-0.201-2.4l0.102-1.9
		l1.1-3.699h0.199v-1.1l0.301-0.301v-0.1v-2.6v-1.4c1,0.801,2.033,1.166,3.1,1.1l0.5-0.1c2.533,0.666,4.533,0.1,6-1.699
		c0.533,0.266,0.666,0.166,0.4-0.301c1.332-1,2.166-2.6,2.5-4.801c-0.066-0.934-0.367-2.266-0.9-4l0.9-12.6l-2.701-0.199l-1,12.9
		l0.301,0.1v0.1h0.1l0.801,2.801c0.199,1.932-0.434,3.199-1.9,3.799c-0.732,1.201-2.133,1.6-4.199,1.201h-1
		c-0.801-0.268-1.668-0.834-2.602-1.701l-0.398-0.699l-0.5-1.5l-0.301-0.9l0.301-0.801l0.5-1l0.5-1.5h0.199l1.4-19.299l-1.701-0.1
		L37.211,2.7V2.401l-4.1-5.5h0.398c-3.533-4.135-5.199-8.867-5-14.201c-0.199-7.066,3.367-13.6,10.701-19.6
		c7.332-6.732,16.1-10.434,26.299-11.1c10.135,0.666,18.834,4.367,26.102,11.1c7.266,6,10.898,12.533,10.898,19.6
		c0,5.334-1.732,10.066-5.199,14.201h0.199h-0.1L92.211,3.1v1.6l-0.4-1.898l-1.6,0.1L91.509,22.2h0.301l0.5,1.5l0.4,1l0.4,0.801
		l-0.301,0.9l-0.6,1.5l-0.4,0.699l-1.801,1.4h-0.1l-0.1,3h0.1l-0.1,1h-0.1l-0.701,8.4l-2.1,8.199l-3.299,8v0.1H81.31v10.4
		c-0.066,1.801-0.6,3.301-1.6,4.5c-0.867,1-2,1.5-3.4,1.5c-1.334,0-2.467-0.5-3.4-1.5c-1.066-1.199-1.6-2.699-1.6-4.5V58.7h-2.301
		h-0.299v-2.4h-0.6v-0.299l-1.801-3.1h-4.9l-3.1,3.398v2.4h-0.1H55.91v10.4c-0.066,1.801-0.6,3.301-1.6,4.5
		c-0.934,1-2.066,1.5-3.4,1.5c-1.332,0-2.5-0.5-3.5-1.5c-1-1.199-1.5-2.699-1.5-4.5V58.7H43.509 M44.31,23.001v0.1h0.1L44.31,23.001
		 M36.91,36.001l0.1,0.199L36.91,36.001"/>
	<path style="fill:#010202;" d="M89.81,33.001l0.1-3h0.1l1.801-1.4l0.4-0.699l0.6-1.5l0.301-0.9l-0.4-0.801l-0.4-1l-0.5-1.5h-0.301
		L90.211,2.901l1.6-0.1l0.4,1.898l1.6,11.201l0.1-0.1v0.199l0.4,5.301v0.699h-0.199V22.2c0.332,0.934,0.732,1.668,1.199,2.201
		c-0.066,0.332,0.033,0.533,0.301,0.6c0.398,2.133,0,3.766-1.201,4.9l-0.299,0.4c-0.201-0.068-0.334,0-0.4,0.199l-0.5,0.5l-1.1,1
		c-0.734,0.533-1.467,0.867-2.201,1H89.81 M71.31,58.7v10.4c0,1.801,0.533,3.301,1.6,4.5c0.934,1,2.066,1.5,3.4,1.5
		c1.4,0,2.533-0.5,3.4-1.5c1-1.199,1.533-2.699,1.6-4.5V58.7h2.301v10.4c0,2.6-0.668,4.666-2,6.199
		c-1.467,1.668-3.234,2.5-5.301,2.5c-2,0-3.768-0.832-5.301-2.5c-1.398-1.533-2.066-3.6-2-6.199V58.7H71.31 M45.91,58.7v10.4
		c0,1.801,0.5,3.301,1.5,4.5c1,1,2.168,1.5,3.5,1.5c1.334,0,2.467-0.5,3.4-1.5c1-1.199,1.533-2.699,1.6-4.5V58.7h2.301v10.4
		c0,2.6-0.701,4.666-2.1,6.199c-1.467,1.668-3.201,2.5-5.201,2.5s-3.766-0.832-5.299-2.5c-1.4-1.533-2.102-3.6-2.102-6.199V58.7
		H45.91 M39.711,2.901L38.31,22.2h-0.199l-0.5,1.5l-0.5,1l-0.301,0.801l0.301,0.9l0.5,1.5l0.398,0.699
		c0.934,0.867,1.801,1.434,2.602,1.701h1c2.066,0.398,3.467,0,4.199-1.201c1.467-0.6,2.1-1.867,1.9-3.799l-0.801-2.801h-0.1v-0.1
		l-0.301-0.1l1-12.9L50.211,9.6l-0.9,12.6c0.533,1.734,0.834,3.066,0.9,4c-0.334,2.201-1.168,3.801-2.5,4.801
		c0.266,0.467,0.133,0.566-0.4,0.301c-1.467,1.799-3.467,2.365-6,1.699l-0.5,0.1c-1.066,0.066-2.1-0.299-3.1-1.1l-1.1-1l-0.4-0.5
		l-0.4-0.199l-0.4-0.4c-1.199-1.135-1.566-2.768-1.1-4.9c0.199-0.066,0.301-0.268,0.301-0.6l1.1-2.201l0.1-0.199h-0.199
		l-0.102-0.699h0.102l0.398-5.301v-0.199l0.102,0.1l1.898-13.1L39.711,2.901"/>
	<path style="fill:none;stroke:#010202;stroke-width:2.4;stroke-linecap:round;stroke-linejoin:round;stroke-miterlimit:3;" d="
		M33.509-3.099c-3.533-4.135-5.199-8.867-5-14.201c-0.199-7.066,3.367-13.6,10.701-19.6c7.332-6.732,16.1-10.434,26.299-11.1
		c10.135,0.666,18.834,4.367,26.102,11.1c7.266,6,10.898,12.533,10.898,19.6c0,5.334-1.732,10.066-5.199,14.201"/>
	<path style="fill:#010202;" d="M75.31-8.099c0.199,0.6,0.5,1.1,0.9,1.5l1.4,0.5L79.509-7.3c0.533-0.865,0.801-1.967,0.801-3.299
		c0-1.801-0.6-3.967-1.801-6.5h2.102c1.199,2.133,1.799,4.232,1.799,6.299s-0.434,3.668-1.299,4.801
		c-0.801,1.066-1.867,1.6-3.201,1.6c-1.799,0-3.066-0.934-3.799-2.799C73.31-5.333,72.043-4.4,70.31-4.4
		c-1.4,0-2.5-0.566-3.301-1.699C66.144-7.234,65.711-8.8,65.711-10.8c0-2.066,0.633-4.166,1.9-6.299h2
		c-1.135,2.533-1.701,4.699-1.701,6.5c0,1.332,0.234,2.434,0.701,3.299c0.533,0.801,1.166,1.201,1.898,1.201
		c0.533,0,1-0.201,1.4-0.6l0.9-1.4l0.199-2.301v-3.6h2.102v3.6L75.31-8.099"/>
</g>
<g>
	<g id="_x38_62_1_" transform="matrix(1, 0, 0, 1, 18.6, 64.6)">
		<path style="fill:#FFFFFF;" d="M43.509,58.7l-3.199-4.699l0.199-0.201c-2.398-2.533-3.832-5.299-4.299-8.299l-0.201-2.4l0.102-1.9
			l1.1-3.699h0.199v-1.1l0.301-0.301v-0.1v-2.6v-1.4c1,0.801,2.033,1.166,3.1,1.1l0.5-0.1c2.533,0.666,4.533,0.1,6-1.699
			c0.533,0.266,0.666,0.166,0.4-0.301c1.332-1,2.166-2.6,2.5-4.801c-0.066-0.934-0.367-2.266-0.9-4l0.9-12.6l-2.701-0.199l-1,12.9
			l0.301,0.1v0.1h0.1l0.801,2.801c0.199,1.932-0.434,3.199-1.9,3.799c-0.732,1.201-2.133,1.6-4.199,1.201h-1
			c-0.801-0.268-1.668-0.834-2.602-1.701l-0.398-0.699l-0.5-1.5l-0.301-0.9l0.301-0.801l0.5-1l0.5-1.5h0.199l1.4-19.299l-1.701-0.1
			L37.211,2.7V2.401l-4.1-5.5h0.398c-3.533-4.135-5.199-8.867-5-14.201c-0.199-7.066,3.367-13.6,10.701-19.6
			c7.332-6.732,16.1-10.434,26.299-11.1c10.135,0.666,18.834,4.367,26.102,11.1c7.266,6,10.898,12.533,10.898,19.6
			c0,5.334-1.732,10.066-5.199,14.201h0.199h-0.1L92.211,3.1v1.6l-0.4-1.898l-1.6,0.1L91.509,22.2h0.301l0.5,1.5l0.4,1l0.4,0.801
			l-0.301,0.9l-0.6,1.5l-0.4,0.699l-1.801,1.4h-0.1l-0.1,3h0.1l-0.1,1h-0.1l-0.701,8.4l-2.1,8.199l-3.299,8v0.1H81.31v10.4
			c-0.066,1.801-0.6,3.301-1.6,4.5c-0.867,1-2,1.5-3.4,1.5c-1.334,0-2.467-0.5-3.4-1.5c-1.066-1.199-1.6-2.699-1.6-4.5V58.7h-2.301
			h-0.299v-2.4h-0.6v-0.299l-1.801-3.1h-4.9l-3.1,3.398v2.4h-0.1H55.91v10.4c-0.066,1.801-0.6,3.301-1.6,4.5
			c-0.934,1-2.066,1.5-3.4,1.5c-1.332,0-2.5-0.5-3.5-1.5c-1-1.199-1.5-2.699-1.5-4.5V58.7H43.509 M44.31,23.001v0.1h0.1
			L44.31,23.001 M36.91,36.001l0.1,0.199L36.91,36.001"/>
		<path style="fill:#010202;" d="M89.81,33.001l0.1-3h0.1l1.801-1.4l0.4-0.699l0.6-1.5l0.301-0.9l-0.4-0.801l-0.4-1l-0.5-1.5h-0.301
			L90.211,2.901l1.6-0.1l0.4,1.898l1.6,11.201l0.1-0.1v0.199l0.4,5.301v0.699h-0.199V22.2c0.332,0.934,0.732,1.668,1.199,2.201
			c-0.066,0.332,0.033,0.533,0.301,0.6c0.398,2.133,0,3.766-1.201,4.9l-0.299,0.4c-0.201-0.068-0.334,0-0.4,0.199l-0.5,0.5l-1.1,1
			c-0.734,0.533-1.467,0.867-2.201,1H89.81 M71.31,58.7v10.4c0,1.801,0.533,3.301,1.6,4.5c0.934,1,2.066,1.5,3.4,1.5
			c1.4,0,2.533-0.5,3.4-1.5c1-1.199,1.533-2.699,1.6-4.5V58.7h2.301v10.4c0,2.6-0.668,4.666-2,6.199
			c-1.467,1.668-3.234,2.5-5.301,2.5c-2,0-3.768-0.832-5.301-2.5c-1.398-1.533-2.066-3.6-2-6.199V58.7H71.31 M45.91,58.7v10.4
			c0,1.801,0.5,3.301,1.5,4.5c1,1,2.168,1.5,3.5,1.5c1.334,0,2.467-0.5,3.4-1.5c1-1.199,1.533-2.699,1.6-4.5V58.7h2.301v10.4
			c0,2.6-0.701,4.666-2.1,6.199c-1.467,1.668-3.201,2.5-5.201,2.5s-3.766-0.832-5.299-2.5c-1.4-1.533-2.102-3.6-2.102-6.199V58.7
			H45.91 M39.711,2.901L38.31,22.2h-0.199l-0.5,1.5l-0.5,1l-0.301,0.801l0.301,0.9l0.5,1.5l0.398,0.699
			c0.934,0.867,1.801,1.434,2.602,1.701h1c2.066,0.398,3.467,0,4.199-1.201c1.467-0.6,2.1-1.867,1.9-3.799l-0.801-2.801h-0.1v-0.1
			l-0.301-0.1l1-12.9L50.211,9.6l-0.9,12.6c0.533,1.734,0.834,3.066,0.9,4c-0.334,2.201-1.168,3.801-2.5,4.801
			c0.266,0.467,0.133,0.566-0.4,0.301c-1.467,1.799-3.467,2.365-6,1.699l-0.5,0.1c-1.066,0.066-2.1-0.299-3.1-1.1l-1.1-1l-0.4-0.5
			l-0.4-0.199l-0.4-0.4c-1.199-1.135-1.566-2.768-1.1-4.9c0.199-0.066,0.301-0.268,0.301-0.6l1.1-2.201l0.1-0.199h-0.199
			l-0.102-0.699h0.102l0.398-5.301v-0.199l0.102,0.1l1.898-13.1L39.711,2.901"/>
		<path style="fill:none;stroke:#010202;stroke-width:2.4;stroke-linecap:round;stroke-linejoin:round;stroke-miterlimit:3;" d="
			M33.509-3.099c-3.533-4.135-5.199-8.867-5-14.201c-0.199-7.066,3.367-13.6,10.701-19.6c7.332-6.732,16.1-10.434,26.299-11.1
			c10.135,0.666,18.834,4.367,26.102,11.1c7.266,6,10.898,12.533,10.898,19.6c0,5.334-1.732,10.066-5.199,14.201"/>
		<path style="fill:#010202;" d="M75.31-8.099c0.199,0.6,0.5,1.1,0.9,1.5l1.4,0.5L79.509-7.3c0.533-0.865,0.801-1.967,0.801-3.299
			c0-1.801-0.6-3.967-1.801-6.5h2.102c1.199,2.133,1.799,4.232,1.799,6.299s-0.434,3.668-1.299,4.801
			c-0.801,1.066-1.867,1.6-3.201,1.6c-1.799,0-3.066-0.934-3.799-2.799C73.31-5.333,72.043-4.4,70.31-4.4
			c-1.4,0-2.5-0.566-3.301-1.699C66.144-7.234,65.711-8.8,65.711-10.8c0-2.066,0.633-4.166,1.9-6.299h2
			c-1.135,2.533-1.701,4.699-1.701,6.5c0,1.332,0.234,2.434,0.701,3.299c0.533,0.801,1.166,1.201,1.898,1.201
			c0.533,0,1-0.201,1.4-0.6l0.9-1.4l0.199-2.301v-3.6h2.102v3.6L75.31-8.099"/>
	</g>
</g>
<path d="M76.126,36.93h1.337l4.68,4.099l-1.715,1.018l-3.634-3.285l-3.634,3.285l-1.715-1.018L76.126,36.93z"/>
<g>
	<path d="M76.126,36.93h1.337l4.68,4.099l-1.715,1.018l-3.634-3.285l-3.634,3.285l-1.715-1.018L76.126,36.93z"/>
</g>
<path d="M109.001,36.93h1.337l4.68,4.099l-1.715,1.018l-3.634-3.285l-3.634,3.285l-1.715-1.018L109.001,36.93z"/>
<g>
	<path d="M109.001,36.93h1.337l4.68,4.099l-1.715,1.018l-3.634-3.285l-3.634,3.285l-1.715-1.018L109.001,36.93z"/>
</g>
</svg>
