<?xml version="1.0" encoding="UTF-8" standalone="no"?>
<svg xmlns:xlink="http://www.w3.org/1999/xlink" height="44.25px" width="56.2px" xmlns="http://www.w3.org/2000/svg">
  <g transform="matrix(1.0, 0.0, 0.0, 1.0, 29.2, 51.5)">
    <use height="44.25" transform="matrix(1.0, 0.0, 0.0, 1.0, -29.2, -51.5)" width="56.2" xlink:href="#shape0"/>
  </g>
  <defs>
    <g id="shape0" transform="matrix(1.0, 0.0, 0.0, 1.0, 29.2, 51.5)">
      <path d="M-1.75 -51.4 L-1.9 -51.5 -0.9 -51.5 -0.9 -51.4 -1.75 -51.4" fill="url(#gradient0)" fill-rule="evenodd" stroke="none"/>
      <path d="M18.5 -35.5 L2.1 -8.25 Q0.7 -7.75 -1.0 -7.75 -2.85 -7.75 -4.2 -8.35 L-20.85 -35.7 Q-19.35 -36.55 -16.75 -37.3 -10.35 -39.05 -1.35 -39.05 7.65 -39.05 14.0 -37.3 16.9 -36.5 18.5 -35.5" fill="url(#gradient1)" fill-rule="evenodd" stroke="none"/>
      <path d="M-20.85 -35.7 L-4.2 -8.35 Q-2.85 -7.75 -1.0 -7.75 0.7 -7.75 2.1 -8.25 L18.5 -35.5" fill="none" stroke="#ffffff" stroke-linecap="round" stroke-linejoin="round" stroke-opacity="0.5019608" stroke-width="1.0"/>
      <path d="M-14.3 -49.35 Q-14.0 -49.2 -14.05 -49.4 L-11.05 -49.6 -9.15 -49.65 -3.15 -49.45 3.9 -49.35 6.95 -49.65 8.15 -49.6 9.2 -49.6 9.8 -49.5 Q14.75 -48.6 18.9 -47.3 19.3 -46.6 19.7 -47.05 19.95 -45.85 20.95 -45.4 L23.25 -42.2 Q25.0 -39.55 26.5 -33.85 L26.5 -33.7 Q26.2 -33.2 26.5 -33.45 25.95 -27.8 22.7 -24.05 21.55 -25.8 19.45 -27.0 L17.05 -27.3 Q13.9 -27.2 11.35 -24.3 L6.1 -26.6 Q0.0 -28.55 -1.95 -27.05 L-5.1 -24.5 Q-5.3 -24.0 -5.7 -23.85 L-6.45 -23.95 -10.8 -24.4 -20.25 -24.55 -20.5 -24.55 -21.5 -22.5 Q-21.5 -22.3 -22.15 -22.7 -25.0 -24.5 -28.4 -31.25 -28.2 -31.1 -28.55 -31.55 L-28.55 -31.75 Q-29.1 -37.45 -27.85 -39.7 L-26.8 -41.55 -26.6 -42.15 -25.4 -44.15 Q-23.25 -46.95 -20.9 -48.3 -20.7 -48.25 -20.45 -48.55 L-14.3 -49.35" fill="url(#gradient2)" fill-rule="evenodd" stroke="none"/>
      <path d="M-20.45 -48.55 Q-18.0 -49.3 -15.35 -49.45 L-14.8 -49.45 -14.3 -49.35 -20.45 -48.55" fill="url(#gradient3)" fill-rule="evenodd" stroke="none"/>
      <path d="M-27.85 -39.7 L-27.5 -40.35 -26.8 -41.55 -27.85 -39.7" fill="url(#gradient4)" fill-rule="evenodd" stroke="none"/>
      <path d="M-14.3 -49.35 Q-14.0 -49.2 -14.05 -49.4 L-11.05 -49.6 -9.15 -49.65 -3.15 -49.45 3.9 -49.35 6.95 -49.65 8.15 -49.6 9.2 -49.6 9.8 -49.5 Q14.75 -48.6 18.9 -47.3 19.3 -46.6 19.7 -47.05 19.95 -45.85 20.95 -45.4 L23.25 -42.2 Q25.0 -39.55 26.5 -33.85 L26.5 -33.7 Q26.2 -33.2 26.5 -33.45 25.95 -27.8 22.7 -24.05 L22.65 -23.95 22.6 -24.0 22.55 -24.0 22.5 -24.05 Q22.85 -22.85 22.35 -24.1 L22.5 -24.05 M22.7 -24.05 Q21.55 -25.8 19.45 -27.0 L17.05 -27.3 Q13.9 -27.2 11.35 -24.3 L6.1 -26.6 Q0.0 -28.55 -1.95 -27.05 L-5.1 -24.5 Q-5.3 -24.0 -5.7 -23.85 L-6.45 -23.95 -10.8 -24.4 -20.25 -24.55 -20.5 -24.55 -21.5 -22.5 Q-21.5 -22.3 -22.15 -22.7 -25.0 -24.5 -28.4 -31.25 -28.2 -31.1 -28.55 -31.55 L-28.55 -31.75 Q-29.1 -37.45 -27.85 -39.7 L-27.5 -40.35 -26.8 -41.55 -26.6 -42.15 -25.4 -44.15 Q-23.25 -46.95 -20.9 -48.3 -20.7 -48.25 -20.45 -48.55 -18.0 -49.3 -15.35 -49.45 L-14.8 -49.45 -14.3 -49.35 -20.45 -48.55 M-26.8 -41.55 L-27.85 -39.7" fill="none" stroke="#ffffff" stroke-linecap="round" stroke-linejoin="round" stroke-opacity="0.5019608" stroke-width="1.0"/>
      <path d="M-16.7 -43.4 Q-16.7 -42.4 -15.25 -41.4 L-15.0 -41.2 Q-14.35 -41.95 -12.65 -42.3 L-9.9 -42.5 -10.7 -42.35 Q-11.65 -42.15 -12.15 -41.8 L-12.75 -41.2 -12.9 -40.75 -12.9 -40.45 Q-12.95 -39.35 -11.05 -37.95 L-11.35 -38.15 -12.05 -38.2 -13.5 -38.45 -14.95 -38.75 -17.85 -37.9 -17.8 -38.15 -17.25 -39.15 -18.9 -38.95 -20.4 -38.45 -21.25 -37.9 -21.8 -39.05 -21.8 -39.65 -21.6 -40.15 -24.2 -39.95 -25.2 -39.6 -24.6 -40.8 Q-23.05 -43.0 -21.05 -43.45 L-19.65 -43.65 Q-19.85 -42.55 -18.25 -41.4 L-18.0 -41.2 -18.05 -42.0 Q-17.9 -42.9 -16.8 -43.45 L-16.7 -43.4" fill="url(#gradient5)" fill-rule="evenodd" stroke="none"/>
      <path d="M21.1 -38.85 L20.1 -39.2 17.5 -39.4 17.65 -38.9 17.7 -38.3 17.1 -37.15 16.3 -37.7 14.8 -38.2 13.15 -38.4 13.7 -37.4 13.7 -37.15 10.8 -38.0 9.4 -37.7 7.9 -37.45 7.25 -37.4 6.95 -37.2 7.25 -37.4 7.55 -37.7 6.8 -38.2 5.3 -38.7 3.65 -38.9 4.2 -37.9 4.2 -37.65 1.3 -38.5 -0.1 -38.2 -1.6 -37.95 -2.25 -37.9 -2.55 -37.7 -2.3 -37.9 -2.25 -37.95 Q-0.7 -39.2 -0.7 -40.2 L-0.75 -40.5 -0.9 -40.95 -1.45 -41.55 -2.9 -42.1 -3.75 -42.25 -2.85 -42.25 -1.0 -42.05 Q0.7 -41.7 1.4 -40.95 L1.65 -41.15 Q3.05 -42.15 3.05 -43.15 L3.15 -43.2 Q4.25 -42.65 4.4 -41.75 L4.4 -41.15 4.35 -40.95 4.6 -41.15 Q6.2 -42.3 6.05 -43.4 L6.3 -43.35 6.05 -43.4 5.5 -43.5 8.25 -43.3 Q9.95 -42.95 10.65 -42.2 L10.9 -42.4 Q12.3 -43.4 12.3 -44.4 L12.4 -44.45 Q13.5 -43.9 13.65 -43.0 L13.65 -42.4 13.6 -42.2 13.85 -42.4 Q15.45 -43.55 15.3 -44.65 L16.7 -44.45 Q18.65 -44.0 20.2 -41.8 L20.85 -40.6 19.85 -40.95 19.75 -40.95 20.45 -40.05 21.1 -38.85 M12.55 -42.75 L12.55 -42.65 12.65 -42.7 12.55 -42.75" fill="url(#gradient6)" fill-rule="evenodd" stroke="none"/>
      <path d="M0.05 -47.05 L0.15 -47.4 0.3 -47.15 0.65 -46.9 1.0 -46.8 0.9 -47.2 0.85 -47.4 1.5 -46.95 1.85 -47.05 2.15 -47.15 2.3 -47.2 1.9 -46.2 1.9 -46.1 1.95 -45.85 2.1 -45.6 Q2.2 -45.4 2.45 -45.3 L2.6 -45.25 2.0 -45.4 1.5 -45.85 1.4 -45.75 1.1 -44.9 1.05 -44.9 0.8 -45.5 0.8 -45.85 0.75 -45.85 0.75 -45.75 0.55 -45.6 0.5 -45.6 0.7 -45.9 0.75 -46.45 0.6 -46.25 0.15 -46.2 0.15 -46.45 0.15 -46.6 0.05 -47.05" fill="url(#gradient7)" fill-rule="evenodd" stroke="none"/>
      <path d="M0.05 -47.05 L0.15 -46.6 0.15 -46.45 0.15 -46.2 0.6 -46.25 0.75 -46.45 0.7 -45.9 0.5 -45.6 0.55 -45.6 0.75 -45.75 0.65 -45.3 0.45 -44.9 0.45 -44.8 -0.05 -44.3 -0.3 -44.3 Q-0.25 -44.7 -0.55 -45.05 L-0.6 -45.15 -0.6 -45.05 -0.6 -44.9 -0.8 -44.3 -0.85 -44.35 -1.05 -45.05 -1.15 -45.15 -1.55 -44.7 -2.1 -44.6 -1.95 -44.7 -2.2 -45.6 -2.25 -45.6 -2.25 -45.3 Q-2.3 -44.95 -2.5 -44.8 L-2.75 -45.6 -2.8 -45.6 -3.3 -45.25 -3.6 -45.15 -3.75 -45.15 -3.6 -45.25 -3.35 -45.4 -3.25 -45.6 -3.25 -45.75 -3.25 -45.9 -3.5 -46.7 -3.55 -46.8 -3.5 -46.8 -3.35 -46.7 -3.1 -46.6 -2.85 -46.55 -2.3 -46.9 -2.3 -46.8 -2.45 -46.45 -2.15 -46.45 Q-1.95 -46.55 -1.85 -46.6 L-1.7 -46.8 -1.75 -46.95 -1.6 -46.9 -1.35 -46.8 -1.1 -46.7 -0.55 -47.05 -0.55 -46.95 -0.7 -46.55 -0.4 -46.6 -0.1 -46.8 0.05 -46.95 0.05 -47.05" fill="url(#gradient8)" fill-rule="evenodd" stroke="none"/>
    </g>
    <linearGradient gradientTransform="matrix(0.0124, 0.0, 0.0, 0.0121, 3.2, -60.05)" gradientUnits="userSpaceOnUse" id="gradient0" spreadMethod="pad" x1="-819.2" x2="819.2">
      <stop offset="0.0" stop-color="#ffffff" stop-opacity="0.8"/>
      <stop offset="0.24313725490196078" stop-color="#c2c2c2" stop-opacity="0.3019608"/>
      <stop offset="0.4980392156862745" stop-color="#ffffff" stop-opacity="0.5019608"/>
      <stop offset="0.7450980392156863" stop-color="#ffffff" stop-opacity="0.2"/>
      <stop offset="1.0" stop-color="#ffffff" stop-opacity="0.8"/>
    </linearGradient>
    <linearGradient gradientTransform="matrix(-1.0E-4, 0.0185, -0.0191, -1.0E-4, -0.75, -28.0)" gradientUnits="userSpaceOnUse" id="gradient1" spreadMethod="pad" x1="-819.2" x2="819.2">
      <stop offset="0.0" stop-color="#ffffff" stop-opacity="0.8"/>
      <stop offset="0.24313725490196078" stop-color="#c2c2c2" stop-opacity="0.3019608"/>
      <stop offset="0.4980392156862745" stop-color="#ffffff" stop-opacity="0.5019608"/>
      <stop offset="0.7450980392156863" stop-color="#ffffff" stop-opacity="0.2"/>
      <stop offset="1.0" stop-color="#ffffff" stop-opacity="0.8"/>
    </linearGradient>
    <linearGradient gradientTransform="matrix(0.0, 0.0123, -0.0127, 0.0, -1.65, -39.45)" gradientUnits="userSpaceOnUse" id="gradient2" spreadMethod="pad" x1="-819.2" x2="819.2">
      <stop offset="0.0" stop-color="#ffffff" stop-opacity="0.8"/>
      <stop offset="0.24313725490196078" stop-color="#c2c2c2" stop-opacity="0.3019608"/>
      <stop offset="0.4980392156862745" stop-color="#ffffff" stop-opacity="0.5019608"/>
      <stop offset="0.7450980392156863" stop-color="#ffffff" stop-opacity="0.2"/>
      <stop offset="1.0" stop-color="#ffffff" stop-opacity="0.8"/>
    </linearGradient>
    <linearGradient gradientTransform="matrix(1.0E-4, 0.0176, -0.0197, 1.0E-4, -0.6, -36.0)" gradientUnits="userSpaceOnUse" id="gradient3" spreadMethod="pad" x1="-819.2" x2="819.2">
      <stop offset="0.0" stop-color="#ffffff" stop-opacity="0.8"/>
      <stop offset="0.24313725490196078" stop-color="#c2c2c2" stop-opacity="0.3019608"/>
      <stop offset="0.4980392156862745" stop-color="#ffffff" stop-opacity="0.5019608"/>
      <stop offset="0.7450980392156863" stop-color="#ffffff" stop-opacity="0.2"/>
      <stop offset="1.0" stop-color="#ffffff" stop-opacity="0.8"/>
    </linearGradient>
    <linearGradient gradientTransform="matrix(6.0E-4, 0.0174, -0.0197, 7.0E-4, 0.05, -33.75)" gradientUnits="userSpaceOnUse" id="gradient4" spreadMethod="pad" x1="-819.2" x2="819.2">
      <stop offset="0.0" stop-color="#ffffff" stop-opacity="0.8"/>
      <stop offset="0.24313725490196078" stop-color="#c2c2c2" stop-opacity="0.3019608"/>
      <stop offset="0.4980392156862745" stop-color="#ffffff" stop-opacity="0.5019608"/>
      <stop offset="0.7450980392156863" stop-color="#ffffff" stop-opacity="0.2"/>
      <stop offset="1.0" stop-color="#ffffff" stop-opacity="0.8"/>
    </linearGradient>
    <linearGradient gradientTransform="matrix(-2.0E-4, 0.0013, -0.0041, -6.0E-4, -17.6, -40.65)" gradientUnits="userSpaceOnUse" id="gradient5" spreadMethod="pad" x1="-819.2" x2="819.2">
      <stop offset="0.0" stop-color="#ffffff" stop-opacity="0.7019608"/>
      <stop offset="1.0" stop-color="#ffffff" stop-opacity="0.5019608"/>
    </linearGradient>
    <linearGradient gradientTransform="matrix(0.0147, -0.0037, 0.0011, 0.0044, 10.35, -41.15)" gradientUnits="userSpaceOnUse" id="gradient6" spreadMethod="pad" x1="-819.2" x2="819.2">
      <stop offset="0.0" stop-color="#ffffff" stop-opacity="0.9019608"/>
      <stop offset="0.12549019607843137" stop-color="#ffffff" stop-opacity="0.5019608"/>
      <stop offset="0.24313725490196078" stop-color="#ffffff" stop-opacity="0.9019608"/>
      <stop offset="0.3803921568627451" stop-color="#ffffff" stop-opacity="0.5019608"/>
      <stop offset="0.47843137254901963" stop-color="#ffffff" stop-opacity="0.9019608"/>
      <stop offset="0.6313725490196078" stop-color="#ffffff" stop-opacity="0.5019608"/>
      <stop offset="0.7568627450980392" stop-color="#ffffff" stop-opacity="0.9019608"/>
      <stop offset="1.0" stop-color="#ffffff" stop-opacity="0.5019608"/>
    </linearGradient>
    <linearGradient gradientTransform="matrix(0.0, -6.0E-4, -9.0E-4, 2.0E-4, 0.95, -46.1)" gradientUnits="userSpaceOnUse" id="gradient7" spreadMethod="pad" x1="-819.2" x2="819.2">
      <stop offset="0.0" stop-color="#ffffff" stop-opacity="0.7019608"/>
      <stop offset="1.0" stop-color="#ffffff" stop-opacity="0.5019608"/>
    </linearGradient>
    <linearGradient gradientTransform="matrix(0.0027, 0.0014, 2.0E-4, -0.0016, -1.2, -45.6)" gradientUnits="userSpaceOnUse" id="gradient8" spreadMethod="pad" x1="-819.2" x2="819.2">
      <stop offset="0.0" stop-color="#ffffff" stop-opacity="0.9019608"/>
      <stop offset="0.12549019607843137" stop-color="#ffffff" stop-opacity="0.5019608"/>
      <stop offset="0.24313725490196078" stop-color="#ffffff" stop-opacity="0.9019608"/>
      <stop offset="0.3803921568627451" stop-color="#ffffff" stop-opacity="0.5019608"/>
      <stop offset="0.47843137254901963" stop-color="#ffffff" stop-opacity="0.9019608"/>
      <stop offset="0.6313725490196078" stop-color="#ffffff" stop-opacity="0.5019608"/>
      <stop offset="0.7568627450980392" stop-color="#ffffff" stop-opacity="0.9019608"/>
      <stop offset="1.0" stop-color="#ffffff" stop-opacity="0.5019608"/>
    </linearGradient>
  </defs>
</svg>
