<?xml version="1.0" encoding="UTF-8" standalone="no"?>
<!DOCTYPE svg PUBLIC "-//W3C//DTD SVG 20010904//EN"
              "http://www.w3.org/TR/2001/REC-SVG-20010904/DTD/svg10.dtd">

<svg xmlns="http://www.w3.org/2000/svg"
     width="160" height="182">
  <path fill="mediumseagreen"
        d="M 63.17,21.08
           C 63.17,21.08 68.25,3.88 68.25,3.88
             68.25,3.88 79.58,16.75 79.67,16.67
             79.75,16.58 95.83,5.58 95.92,5.50
             96.00,5.42 95.25,17.33 95.25,17.33
             95.25,17.33 108.92,15.08 109.00,15.08
             109.08,15.08 105.17,23.75 105.17,23.75
             105.17,23.75 118.42,25.17 118.33,25.17
             118.25,25.17 112.00,34.17 112.00,34.17
             112.00,34.17 127.12,38.08 127.12,38.00
             127.12,37.92 116.42,48.58 116.42,48.58
             116.42,48.58 126.25,54.88 126.25,54.88
             126.25,54.88 116.00,62.75 116.00,62.75
             116.00,62.75 120.58,79.25 120.58,79.17
             120.58,79.08 105.42,71.17 105.42,71.17
             105.42,71.17 100.92,88.83 100.92,88.83
             100.92,88.83 92.88,76.88 92.88,76.88
             92.88,76.88 85.62,90.62 85.62,90.62
             85.62,90.62 77.75,77.50 77.75,77.50
             77.75,77.50 64.08,90.08 64.08,90.08
             64.08,90.08 61.86,73.73 61.86,73.73
             61.86,73.73 42.75,77.92 42.75,77.92
             42.75,77.92 54.00,61.12 54.00,61.12
             54.00,61.12 37.75,55.88 37.75,55.88
             37.75,55.88 51.25,45.58 51.50,45.50
             51.75,45.42 37.38,35.88 37.38,35.88
             37.38,35.88 53.75,34.46 54.00,34.38
             54.25,34.29 48.62,18.00 48.62,17.75
             48.62,17.50 63.17,21.08 63.17,21.08 Z
           M 38.25,35.50M 38.25,35.50" />
  <path fill="none" stroke="green" stroke-width="1"
        d="M 92.25,67.12
           C 92.25,67.12 99.19,73.62 99.19,73.62
             99.19,73.62 101.81,63.94 101.81,63.94
             101.81,63.94 111.50,68.00 111.50,68.00
             111.50,68.00 107.62,58.75 107.62,58.75
             107.62,58.75 118.62,55.94 118.62,55.94
             118.62,55.94 107.06,47.44 107.06,47.44
             107.06,47.44 116.56,40.19 116.62,40.06
             116.69,39.94 105.00,38.19 105.12,37.56
             105.25,36.94 109.50,28.19 109.50,28.19
             109.50,28.19 96.69,27.81 96.75,27.81
             96.81,27.81 102.50,19.25 102.50,19.25
             102.50,19.25 88.06,22.38 88.00,22.38
             87.94,22.38 90.38,13.56 90.38,13.56
             90.38,13.56 79.06,21.94 79.06,21.94
             79.06,21.94 70.31,14.31 70.31,14.31
             70.31,14.31 69.00,26.56 69.00,26.56
             69.00,26.56 55.94,25.44 55.94,25.44
             55.94,25.44 60.12,36.69 60.12,36.69
             60.12,36.69 51.00,40.00 51.00,40.00
             51.00,40.00 58.06,48.38 58.25,48.38
             58.44,48.38 49.31,55.06 49.31,55.06
             49.31,55.06 59.12,59.31 59.12,59.31
             59.12,59.31 53.81,71.00 53.88,70.94
             53.94,70.88 64.88,68.88 64.88,68.88
             64.88,68.88 66.56,80.81 66.56,80.81
             66.56,80.81 78.81,70.75 78.81,70.75
             78.81,70.75 86.25,82.19 86.25,82.19
             86.25,82.19 92.25,67.12 92.25,67.12 Z" />
  <path fill="green"
        d="M 76.38,98.38
           C 77.82,99.61 100.44,115.94 112.81,88.06
             97.69,76.75 77.94,94.31 76.91,94.94
             75.88,95.56 62.00,91.91 61.50,91.06
             61.00,90.22 45.75,71.31 25.81,85.62
             30.81,106.56 60.09,95.31 61.38,95.00
             62.66,94.69 74.93,97.14 76.38,98.38 Z" />
  <path fill="olivedrab"
        d="M 71.08,101.00
           C 51.25,90.67 72.29,52.62 73.77,49.25
             75.25,45.88 85.64,46.01 85.31,49.06
             85.00,52.06 63.08,88.17 83.08,96.67
             103.08,105.17 104.62,144.06 102.00,146.17
             99.37,148.27 89.42,148.62 89.12,146.75
             88.83,144.88 90.92,111.33 71.08,101.00 Z" />
</svg>
