<svg xmlns="http://www.w3.org/2000/svg" width="160" height="182"><defs><radialGradient id="a"><stop offset=".6" stop-color="#fff"/><stop offset="1" stop-color="#fff" stop-opacity="0"/></radialGradient></defs><path fill="green" d="M76.38 98.38c1.44 1.23 24.06 17.56 36.43-10.32-15.12-11.31-34.87 6.25-35.9 6.88-1.03.62-14.91-3.03-15.41-3.88-.5-.84-15.75-19.75-35.69-5.44 5 20.94 34.28 9.69 35.57 9.38 1.28-.31 13.55 2.14 15 3.38Z"/><path fill="#6b8e23" d="M85.38 48.69c-.27 1.51 9.87 51.06-10 58.81-19.88 7.75-27.8 32.71-28.46 35.42-.67 2.7-17.13 2.75-16.84-2.34.3-5.08 12-37.58 29.8-38.7 17.79-1.13 13.99-52.25 14.37-53.26.75-2 11.63-2.84 11.13.07Z"/><path fill="gold" d="m63.17 21.08 5.08-17.2s11.33 12.87 11.42 12.79c.08-.09 16.16-11.09 16.25-11.17.08-.08-.67 11.83-.67 11.83s13.67-2.25 13.75-2.25c.08 0-3.83 8.67-3.83 8.67s13.25 1.42 13.16 1.42c-.08 0-6.33 9-6.33 9s15.12 3.91 15.12 3.83c0-.08-10.7 10.58-10.7 10.58l9.83 6.3L116 62.75s4.58 16.5 4.58 16.42c0-.09-15.16-8-15.16-8l-4.5 17.66-8.04-11.95-7.26 13.74-7.87-13.12-13.67 12.58-2.22-16.35-19.11 4.19L54 61.12l-16.25-5.24s13.5-10.3 13.75-10.38c.25-.08-14.12-9.62-14.12-9.62s16.37-1.42 16.62-1.5c.25-.09-5.38-16.38-5.38-16.63s14.55 3.33 14.55 3.33ZM38.25 35.5"/><path fill="peru" d="M76.38 18.5c27.62-3.75 32.37 17.5 37 27.75 4.62 10.25 2.37 23.5-18.63 27.63-21 4.12-36.37 3.24-39.5-13.88-3.13-17.12-6.5-37.75 21.13-41.5Z"/><path d="M33.25 38h5v-2.5h-5V38Zm5-5.01v2.51h15V38h2.5v2.5h2.5V43h2.5v2.5h17.5V43h2.5v-2.5h2.5v-5h2.5V38h2.5v2.5h2.5V43h17.5v-2.5h2.5V38h2.5v-5l-75-.01Z"/><path fill="#fff" d="M58.25 35.5v2.49h2.5V35.5h-2.5Zm2.49 2.51 2.5-.02.01 2.5-2.5.01-.01-2.49Zm2.51-2.51V38h2.5v-2.5h-2.5Zm2.5 2.5-.01 2.51 2.51-.01V38h-2.5Zm-2.49 2.51L63.25 43h2.5v-2.49h-2.49Zm4.99-.01.01 2.5h2.48l.01-2.5h-2.5Zm22.5-5V38h2.5l-.01-2.5h-2.49Zm2.5 2.5v2.5h2.5V38h-2.5Zm2.5-2.5V38h2.5v-2.5h-2.5Zm2.5 2.5v2.5l2.5-.01-.01-2.49h-2.49Z"/><path d="M87.36 64.33c.34 3.11 1.93 4.67 4.76 4.67 4.33 0 6.49-3.1 6.49-9.31 0-2.45-.81-5.35-2.42-8.69h-3.1c1.49 3.22 2.24 6.04 2.24 8.45 0 4.37-1.16 6.55-3.47 6.55-2.12 0-3.17-2.67-3.17-8h-2.66c0 5.33-1.06 8-3.17 8-2.31 0-3.47-2.18-3.47-6.55 0-2.41.75-5.23 2.23-8.45h-3.09c-1.61 3.34-2.42 6.24-2.42 8.69 0 6.21 2.16 9.31 6.48 9.31 2.75 0 4.34-1.56 4.77-4.67Z"/><circle cx="70" cy="38" r="22" fill="url('#a')"/><circle cx="102" cy="38" r="22" fill="url('#a')"/></svg>