<?xml version="1.0" encoding="UTF-8" standalone="no"?>
<!DOCTYPE svg PUBLIC "-//W3C//DTD SVG 20010904//EN"
              "http://www.w3.org/TR/2001/REC-SVG-20010904/DTD/svg10.dtd">

<svg xmlns="http://www.w3.org/2000/svg"
     width="160" height="182">
  <path id="stem move2"
        fill="olivedrab" stroke="black" stroke-width="0"
        d="M 85.38,48.69
           C 85.11,50.20 95.25,99.75 75.38,107.50
             55.50,115.25 47.58,140.21 46.92,142.92
             46.25,145.62 29.79,145.67 30.08,140.58
             30.38,135.50 42.08,103.00 59.88,101.88
             77.67,100.75 73.87,49.63 74.25,48.62
             75.00,46.62 85.88,45.78 85.38,48.69 Z" />
  <path id="petals"
        fill="gold" stroke="black" stroke-width="0"
        d="M 63.17,21.08
           C 63.17,21.08 68.25,3.88 68.25,3.88
             68.25,3.88 79.58,16.75 79.67,16.67
             79.75,16.58 95.83,5.58 95.92,5.50
             96.00,5.42 95.25,17.33 95.25,17.33
             95.25,17.33 108.92,15.08 109.00,15.08
             109.08,15.08 105.17,23.75 105.17,23.75
             105.17,23.75 118.42,25.17 118.33,25.17
             118.25,25.17 112.00,34.17 112.00,34.17
             112.00,34.17 127.12,38.08 127.12,38.00
             127.12,37.92 116.42,48.58 116.42,48.58
             116.42,48.58 126.25,54.88 126.25,54.88
             126.25,54.88 116.00,62.75 116.00,62.75
             116.00,62.75 120.58,79.25 120.58,79.17
             120.58,79.08 105.42,71.17 105.42,71.17
             105.42,71.17 100.92,88.83 100.92,88.83
             100.92,88.83 92.88,76.88 92.88,76.88
             92.88,76.88 85.62,90.62 85.62,90.62
             85.62,90.62 77.75,77.50 77.75,77.50
             77.75,77.50 64.08,90.08 64.08,90.08
             64.08,90.08 61.86,73.73 61.86,73.73
             61.86,73.73 42.75,77.92 42.75,77.92
             42.75,77.92 54.00,61.12 54.00,61.12
             54.00,61.12 37.75,55.88 37.75,55.88
             37.75,55.88 51.25,45.58 51.50,45.50
             51.75,45.42 37.38,35.88 37.38,35.88
             37.38,35.88 53.75,34.46 54.00,34.38
             54.25,34.29 48.62,18.00 48.62,17.75
             48.62,17.50 63.17,21.08 63.17,21.08 Z
           M 38.25,35.50M 38.25,35.50" />
  <path id="core"
        fill="peru" stroke="black" stroke-width="0"
        d="M 76.38,18.50
           C 104.00,14.75 108.75,36.00 113.38,46.25
             118.00,56.50 115.75,69.75 94.75,73.88
             73.75,78.00 58.38,77.12 55.25,60.00
             52.12,42.88 48.75,22.25 76.38,18.50 Z" />
  <path id="dealwithit"
        fill="black" stroke="black" stroke-width="0"
        d="M 33.25,38.00
           C 33.25,38.00 38.25,38.00 38.25,38.00
             38.25,38.00 38.25,35.50 38.25,35.50
             38.25,35.50 33.25,35.50 33.25,35.50
             33.25,35.50 33.25,38.00 33.25,38.00 Z
           M 38.25,32.99
           C 38.25,32.99 38.25,35.50 38.25,35.50
             38.25,35.50 53.25,35.50 53.25,35.50
             53.25,35.50 53.25,38.00 53.25,38.00
             53.25,38.00 55.75,38.00 55.75,38.00
             55.75,38.00 55.75,40.50 55.75,40.50
             55.75,40.50 58.25,40.50 58.25,40.50
             58.25,40.50 58.25,43.00 58.25,43.00
             58.25,43.00 60.75,43.00 60.75,43.00
             60.75,43.00 60.75,45.50 60.75,45.50
             60.75,45.50 78.25,45.50 78.25,45.50
             78.25,45.50 78.25,43.00 78.25,43.00
             78.25,43.00 80.75,43.00 80.75,43.00
             80.75,43.00 80.75,40.50 80.75,40.50
             80.75,40.50 83.25,40.50 83.25,40.50
             83.25,40.50 83.25,35.50 83.25,35.50
             83.25,35.50 85.75,35.50 85.75,35.50
             85.75,35.50 85.75,38.00 85.75,38.00
             85.75,38.00 88.25,38.00 88.25,38.00
             88.25,38.00 88.25,40.50 88.25,40.50
             88.25,40.50 90.75,40.50 90.75,40.50
             90.75,40.50 90.75,43.00 90.75,43.00
             90.75,43.00 108.25,43.00 108.25,43.00
             108.25,43.00 108.25,40.50 108.25,40.50
             108.25,40.50 110.75,40.50 110.75,40.50
             110.75,40.50 110.75,38.00 110.75,38.00
             110.75,38.00 113.25,38.00 113.25,38.00
             113.25,38.00 113.25,33.00 113.25,33.00
             113.25,33.00 38.25,32.99 38.25,32.99 Z" />
  <path id="highlights"
        fill="white" stroke="black" stroke-width="0"
        d="M 58.25,35.50
           C 58.25,35.50 58.25,37.99 58.25,37.99
             58.25,37.99 60.75,37.99 60.75,37.99
             60.75,37.99 60.75,35.50 60.75,35.50
             60.75,35.50 58.25,35.50 58.25,35.50 Z
           M 60.74,38.01
           C 60.74,38.01 63.24,37.99 63.24,37.99
             63.24,37.99 63.25,40.49 63.25,40.49
             63.25,40.49 60.75,40.50 60.75,40.50
             60.75,40.50 60.74,38.01 60.74,38.01 Z
           M 63.25,35.50
           C 63.25,35.50 63.25,38.00 63.25,38.00
             63.25,38.00 65.75,38.00 65.75,38.00
             65.75,38.00 65.75,35.50 65.75,35.50
             65.75,35.50 63.25,35.50 63.25,35.50 Z
           M 65.75,38.00
           C 65.75,38.00 65.74,40.51 65.74,40.51
             65.74,40.51 68.25,40.50 68.25,40.50
             68.25,40.50 68.25,38.00 68.25,38.00
             68.25,38.00 65.75,38.00 65.75,38.00 Z
           M 63.26,40.51
           C 63.26,40.51 63.25,43.00 63.25,43.00
             63.25,43.00 65.75,43.00 65.75,43.00
             65.75,43.00 65.75,40.51 65.75,40.51
             65.75,40.51 63.26,40.51 63.26,40.51 Z
           M 68.25,40.50
           C 68.25,40.50 68.26,43.00 68.26,43.00
             68.26,43.00 70.74,43.00 70.74,43.00
             70.74,43.00 70.75,40.50 70.75,40.50
             70.75,40.50 68.25,40.50 68.25,40.50 Z
           M 90.75,35.50
           C 90.75,35.50 90.75,38.00 90.75,38.00
             90.75,38.00 93.25,38.00 93.25,38.00
             93.25,38.00 93.24,35.50 93.24,35.50
             93.24,35.50 90.75,35.50 90.75,35.50 Z
           M 93.25,38.00
           C 93.25,38.00 93.25,40.50 93.25,40.50
             93.25,40.50 95.75,40.50 95.75,40.50
             95.75,40.50 95.75,38.00 95.75,38.00
             95.75,38.00 93.25,38.00 93.25,38.00 Z
           M 95.75,35.50
           C 95.75,35.50 95.75,38.00 95.75,38.00
             95.75,38.00 98.25,38.00 98.25,38.00
             98.25,38.00 98.25,35.50 98.25,35.50
             98.25,35.50 95.75,35.50 95.75,35.50 Z
           M 98.25,38.00
           C 98.25,38.00 98.25,40.50 98.25,40.50
             98.25,40.50 100.75,40.49 100.75,40.49
             100.75,40.49 100.74,38.00 100.74,38.00
             100.74,38.00 98.25,38.00 98.25,38.00 Z" />
  <path id="grin"
        fill="none" stroke="black" stroke-width="3" stroke-linecap="round"
        d="M 102.08,59.42
           C 70.17,57.83 58.18,67.20 63.67,53.75" />
</svg>
