<svg width="723" height="482.03" xml:space="preserve" style="clip-rule:evenodd;fill-rule:evenodd;stroke-linecap:round;stroke-linejoin:round;stroke-miterlimit:1.5" xmlns="http://www.w3.org/2000/svg"><path d="M1299.09 400.217c-3.25-17.523 3.9-45.242 18.52-51.517l82.42-.652c14.51 4.4 22.35 33.855 18.98 52.352-2.61 10.648-23.61 27.728-27.85 29.847-17.82 8.909-46.75 8.909-64.57 0-4-2-23.9-18.498-26.66-26.769a21.87 21.87 0 0 1-.83-2.905z" style="fill:url(#a)" transform="translate(51.675 163.443) scale(.2285)"/><path d="M1314.13 349.867c-4.34-20.883-18.13-49.251-5.36-56.561 35.17-22.369 67.75-22.18 97.55 2.015 11.4 11.695 1.92 34.912-1.59 54.837l-4.46-2.43c2-13.27 10.73-22.255 5.2-41.158-19.45-20.937-57.57-30.825-93.51-5.54-10.16 4.149.12 24.346 5.53 47.216z" style="fill:#050505" transform="translate(51.714 163.546) scale(.2285)"/><circle cx="1358.88" cy="357.119" r="42.281" style="fill:#0d0d0d" transform="matrix(.1582 -.0791 .1582 .0791 90.74 322.814)"/><circle cx="1358.88" cy="357.119" r="42.281" style="fill:url(#b)" transform="scale(.17422 .0871) rotate(-45 4663.392 707.381)"/><ellipse cx="1353.41" cy="342.794" rx="5.644" ry="5.578" style="fill:#151515" transform="translate(52.964 163.49) scale(.2285)"/><path d="M1411.77 358.652c-1.36 27.794 3.72 28.568 7.65 26.999 13.27-6.539 18-7.142 17.92-17.672-.84-5.202.79-10.417 3.26-14.923.15-.261.29-.52.44-.776 3.18-5.497 7.51-9.832 9.86-11.619-2.2-2.252-4.67-3.889-8.22-3.001-10.34 1.251-13.76 9.666-19.25 16.735-2.75 2.556-6.67 3.94-11.66 4.257z" style="fill:url(#c)" transform="translate(51.714 163.546) scale(.2285)"/><path d="M1449.67 340.595c-6.6 5.345-16.42 7.793-15.03 2.832.42-5.73 11.19-7.967 15.03-2.832z" style="fill:#060606;stroke:#000;stroke-width:1.53px" transform="translate(51.714 163.546) scale(.2285)"/><path d="M1753.54 1350.01c.86 1.38 3.27.6 6.8-1.76-3.42-6.36-12.16-18.53 12.25-40.43 4.08-3.67 6.69-7.51 8.32-11.63 2.08-17.61 2.07-34.62-14.39-46.86l-33.61-4.01c10.44 16.54 18.13 35.84 14.15 53.48-4.71 19.49 1.12 35.27 6.48 51.21z" style="fill:url(#d)" transform="translate(-234.68 -231.24) scale(.3506)"/><path d="M1467.66 492.945c1.18-1.369 2.35-1.81 3.53-.415 3.29 22.217 10.82 20.198 6.81-2.378-.19-1.101-1.19-2.808-2.12-4.819-1.3-2.798-2.61-6.155-2.2-9.123 1.15-3.033 2.62-2.38 4.3.794-1.74 2.443 1.85 7.091 3.22 12.646.49 1.973.28 5.072.93 7.215-.92 25.64-11.67 13.31-14.47-3.92z" style="fill:#180a0a" transform="translate(-156.497 50.79) scale(.3506)"/><path d="M1479.92 320.778c-.22 63.421 20.19 164.638 12.76 149.656z" style="fill:none;stroke:#404040;stroke-width:1px" transform="translate(-156.497 50.79) scale(.3506)"/><path d="M1474.03 469.988h3.35l.37-152.367-3.1-.124z" style="fill:#333" transform="translate(-156.497 50.79) scale(.3506)"/><path d="M1459.57 470.343c-1.68.647-1.04 2.702.35 3.964.7.632 10.74 5.26 25.3 1.374 5.12-1.37 9.99-.84 10.59.131.82 1.326 2.66-1.51 2.31-.78-.72 1.482 1.32-5.703-.33-6.388-.99-.412-6.14 1.587-7 .965-2.24-1.624-7.61-.793-7.41-1.906.23-1.198-.17-1.887-1.25-2.05-1.2-.181-3.96 1.194-6.24 1.449-5.22.584-10.68 1.075-16.32 3.241z" style="fill:#161616" transform="translate(-354.64 -12.314) scale(.48345)"/><path d="m1477.97-29.696-13.58 6.43 5.74 342.338c3.4 4.508 8.44 4.167 11.25 1.206z" style="fill:url(#e)" transform="translate(-156.497 50.79) scale(.3506)"/><path d="m1717.3-57.61 801.41 400.704v343.46L1259.35 1316.23 457.58 915.71l.367-343.643Z" style="fill:url(#f);stroke:#404040;stroke-width:1px;stroke-opacity:.3" transform="translate(-160.256 20.374) scale(.3506)"/><defs><radialGradient id="a" cx="0" cy="0" r="1" gradientUnits="userSpaceOnUse" gradientTransform="matrix(-115.254 7.00702 -4.71963 -77.6302 1359.05 348.372)"><stop offset="0" style="stop-color:black;stop-opacity:1"/><stop offset=".49" style="stop-color:#121212;stop-opacity:1"/><stop offset=".72" style="stop-color:#202020;stop-opacity:1"/><stop offset=".81" style="stop-color:#2b2718;stop-opacity:1"/><stop offset="1" style="stop-color:#4b3d00;stop-opacity:1"/></radialGradient><radialGradient id="b" cx="0" cy="0" r="1" gradientUnits="userSpaceOnUse" gradientTransform="matrix(-27.6027 -10.0644 16.2027 -20.4717 1349.32 338.769)"><stop offset="0" style="stop-color:#333;stop-opacity:1"/><stop offset="1" style="stop-color:#121212;stop-opacity:1"/></radialGradient><radialGradient id="c" cx="0" cy="0" r="1" gradientUnits="userSpaceOnUse" gradientTransform="matrix(17.9295 38.2317 -47.3232 22.1931 1409.91 348.1)"><stop offset="0" style="stop-color:black;stop-opacity:1"/><stop offset=".73" style="stop-color:#151204;stop-opacity:1"/><stop offset="1" style="stop-color:#5e4f14;stop-opacity:1"/></radialGradient><radialGradient id="f" cx="0" cy="0" r="1" gradientUnits="userSpaceOnUse" gradientTransform="matrix(1346.01 -1.35706 .93478 927.169 1488.14 783.602)"><stop offset="0" style="stop-color:#ffa300;stop-opacity:0"/><stop offset=".11" style="stop-color:#e89200;stop-opacity:.07"/><stop offset=".21" style="stop-color:#a06000;stop-opacity:.3"/><stop offset=".35" style="stop-color:#5c3100;stop-opacity:.3"/><stop offset=".46" style="stop-color:#401d00;stop-opacity:.3"/><stop offset=".64" style="stop-color:#090400;stop-opacity:.3"/><stop offset="1" style="stop-color:black;stop-opacity:.3"/></radialGradient><linearGradient id="d" x1="0" y1="0" x2="1" y2="0" gradientUnits="userSpaceOnUse" gradientTransform="rotate(92.162 277.686 1470.266) scale(101.84449)"><stop offset="0" style="stop-color:white;stop-opacity:0"/><stop offset="1" style="stop-color:white;stop-opacity:.04"/></linearGradient><linearGradient id="e" x1="0" y1="0" x2="1" y2="0" gradientUnits="userSpaceOnUse" gradientTransform="rotate(89.457 709.701 768.979) scale(271.91621)"><stop offset="0" style="stop-color:black;stop-opacity:1"/><stop offset="1" style="stop-color:#372921;stop-opacity:1"/></linearGradient></defs></svg>