<?xml version="1.0" encoding="UTF-8" standalone="no"?>
<svg
   width="723"
   height="482.00034"
   viewBox="0 0 723 482.00034"
   version="1.1"
   xml:space="preserve"
   style="clip-rule:evenodd;fill-rule:evenodd;stroke-linecap:round;stroke-linejoin:round;stroke-miterlimit:1.5"
   id="svg190"
   sodipodi:docname="top.summer.svg"
   inkscape:version="1.1.1 (3bf5ae0d25, 2021-09-20)"
   xmlns:inkscape="http://www.inkscape.org/namespaces/inkscape"
   xmlns:sodipodi="http://sodipodi.sourceforge.net/DTD/sodipodi-0.dtd"
   xmlns="http://www.w3.org/2000/svg"
   xmlns:svg="http://www.w3.org/2000/svg"><sodipodi:namedview
   id="namedview192"
   pagecolor="#505050"
   bordercolor="#eeeeee"
   borderopacity="1"
   inkscape:pageshadow="0"
   inkscape:pageopacity="0"
   inkscape:pagecheckerboard="0"
   showgrid="false"
   inkscape:zoom="0.27552083"
   inkscape:cx="1235.8412"
   inkscape:cy="453.6862"
   inkscape:window-width="1920"
   inkscape:window-height="996"
   inkscape:window-x="-8"
   inkscape:window-y="-8"
   inkscape:window-maximized="1"
   inkscape:current-layer="svg190" />
    <g
   transform="matrix(0.35084144,0,0,0.35084144,-233.25384,-233.63212)"
   id="g78">
            <g
   transform="matrix(0.651701,0,0,0.651701,816.848,1126)"
   id="g28">
                <g
   transform="translate(-0.17136,-0.452748)"
   id="g4">
                    <path
   d="m 1299.09,400.217 c -3.25,-17.523 3.9,-45.242 18.52,-51.517 l 82.42,-0.652 c 14.51,4.4 22.35,33.855 18.98,52.352 -2.61,10.648 -23.61,27.728 -27.85,29.847 -17.82,8.909 -46.75,8.909 -64.57,0 -4,-2 -23.9,-18.498 -26.66,-26.769 -0.34,-0.942 -0.62,-1.911 -0.83,-2.905 z"
   style="fill:url(#_Radial1)"
   id="path2" />
                </g>
                <path
   d="m 1314.13,349.867 c -4.34,-20.883 -18.13,-49.251 -5.36,-56.561 35.17,-22.369 67.75,-22.18 97.55,2.015 11.4,11.695 1.92,34.912 -1.59,54.837 l -4.46,-2.43 c 2,-13.27 10.73,-22.255 5.2,-41.158 -19.45,-20.937 -57.57,-30.825 -93.51,-5.54 -10.16,4.149 0.12,24.346 5.53,47.216 z"
   style="fill:#0d0d0d"
   id="path6" />
                <g
   transform="matrix(0.692359,-0.346179,0.692359,0.346179,170.792,697.078)"
   id="g10">
                    <circle
   cx="1358.88"
   cy="357.11899"
   r="42.280998"
   style="fill:#1a1a1a"
   id="circle8" />
                </g>
                <g
   transform="matrix(0.539139,-0.26957,0.539139,0.26957,433.717,620.333)"
   id="g14">
                    <circle
   cx="1358.88"
   cy="357.11899"
   r="42.280998"
   style="fill:url(#_Radial2)"
   id="circle12" />
                </g>
                <g
   transform="translate(5.47176,-0.247506)"
   id="g18">
                    <ellipse
   cx="1353.41"
   cy="342.79401"
   rx="5.6440001"
   ry="5.5780001"
   style="fill:#212121"
   id="ellipse16" />
                </g>
                <path
   d="m 1411.77,358.652 c -1.36,27.794 3.72,28.568 7.65,26.999 13.27,-6.539 18,-7.142 17.92,-17.672 -0.84,-5.202 0.79,-10.417 3.26,-14.923 0.15,-0.261 0.29,-0.52 0.44,-0.776 3.18,-5.497 7.51,-9.832 9.86,-11.619 -2.2,-2.252 -4.67,-3.889 -8.22,-3.001 -10.34,1.251 -13.76,9.666 -19.25,16.735 -2.75,2.556 -6.67,3.94 -11.66,4.257 z"
   style="fill:url(#_Radial3)"
   id="path20" />
                <path
   d="m 1449.67,340.595 c -6.6,5.345 -16.42,7.793 -15.03,2.832 0.42,-5.73 11.19,-7.967 15.03,-2.832 z"
   style="fill:#1a1a1a;stroke:#000000;stroke-width:1.53px"
   id="path22" />
                <g
   transform="matrix(1.53445,0,0,1.53445,-1253.41,-1727.79)"
   id="g26">
                    <path
   d="m 1753.54,1350.01 c 0.86,1.38 3.27,0.6 6.8,-1.76 -3.42,-6.36 -12.16,-18.53 12.25,-40.43 4.08,-3.67 6.69,-7.51 8.32,-11.63 2.08,-17.61 2.07,-34.62 -14.39,-46.86 l -33.61,-4.01 c 10.44,16.54 18.13,35.84 14.15,53.48 -4.71,19.49 1.12,35.27 6.48,51.21 z"
   style="fill:url(#_Linear4)"
   id="path24" />
                </g>
            </g>
            <g
   transform="translate(222.992,804.397)"
   id="g32">
                <path
   d="m 1467.66,492.945 c 1.18,-1.369 2.35,-1.81 3.53,-0.415 3.29,22.217 10.82,20.198 6.81,-2.378 -0.19,-1.101 -1.19,-2.808 -2.12,-4.819 -1.3,-2.798 -2.61,-6.155 -2.2,-9.123 1.15,-3.033 2.62,-2.38 4.3,0.794 -1.74,2.443 1.85,7.091 3.22,12.646 0.49,1.973 0.28,5.072 0.93,7.215 -0.92,25.64 -11.67,13.31 -14.47,-3.92 z"
   style="fill:#180a0a"
   id="path30" />
            </g>
            <g
   transform="translate(222.992,804.397)"
   id="g36">
                <path
   d="m 1479.92,320.778 c -0.22,63.421 20.19,164.638 12.76,149.656 z"
   style="fill:none;stroke:#404040;stroke-width:1px"
   id="path34" />
            </g>
            <g
   transform="translate(222.992,804.397)"
   id="g40">
                <path
   d="m 1474.03,469.988 h 3.35 l 0.37,-152.367 -3.1,-0.124 z"
   style="fill:#333333"
   id="path38" />
            </g>
            <g
   transform="matrix(1.3789,0,0,1.3789,-342.147,624.414)"
   id="g44">
                <path
   d="m 1459.57,470.343 c -1.68,0.647 -1.04,2.702 0.35,3.964 0.7,0.632 10.74,5.26 25.3,1.374 5.12,-1.37 9.99,-0.84 10.59,0.131 0.82,1.326 2.66,-1.51 2.31,-0.78 -0.72,1.482 1.32,-5.703 -0.33,-6.388 -0.99,-0.412 -6.14,1.587 -7,0.965 -2.24,-1.624 -7.61,-0.793 -7.41,-1.906 0.23,-1.198 -0.17,-1.887 -1.25,-2.05 -1.2,-0.181 -3.96,1.194 -6.24,1.449 -5.22,0.584 -10.68,1.075 -16.32,3.241 z"
   style="fill:#161616"
   id="path42" />
            </g>
            <g
   transform="translate(222.992,804.397)"
   id="g48">
                <path
   d="m 1478,-26.876 -13.56,6.777 5.69,339.171 c 3.4,4.508 8.44,4.167 11.25,1.206 z"
   style="fill:url(#_Linear5)"
   id="path46" />
            </g>
            <g
   transform="matrix(0.637428,0,0,0.637428,836.632,1130.77)"
   id="g76">
                <g
   transform="translate(-0.17136,-0.452748)"
   id="g52">
                    <path
   d="m 1299.09,400.217 c -3.25,-17.523 3.9,-45.242 18.52,-51.517 l 82.42,-0.652 c 14.51,4.4 22.35,33.855 18.98,52.352 -2.61,10.648 -23.61,27.728 -27.85,29.847 -17.82,8.909 -46.75,8.909 -64.57,0 -4,-2 -23.9,-18.498 -26.66,-26.769 -0.34,-0.942 -0.62,-1.911 -0.83,-2.905 z"
   style="fill:url(#_Radial6)"
   id="path50" />
                </g>
                <path
   d="m 1314.13,349.867 c -4.34,-20.883 -18.13,-49.251 -5.36,-56.561 35.17,-22.369 67.75,-22.18 97.55,2.015 11.4,11.695 1.92,34.912 -1.59,54.837 l -4.46,-2.43 c 2,-13.27 10.73,-22.255 5.2,-41.158 -19.45,-20.937 -57.57,-30.825 -93.51,-5.54 -10.16,4.149 0.12,24.346 5.53,47.216 z"
   style="fill:#282828"
   id="path54" />
                <g
   transform="matrix(0.692359,-0.346179,0.692359,0.346179,170.792,697.078)"
   id="g58">
                    <circle
   cx="1358.88"
   cy="357.11899"
   r="42.280998"
   style="fill:#1a1a1a"
   id="circle56" />
                </g>
                <g
   transform="matrix(0.539139,-0.26957,0.539139,0.26957,433.717,620.333)"
   id="g62">
                    <circle
   cx="1358.88"
   cy="357.11899"
   r="42.280998"
   style="fill:url(#_Radial7)"
   id="circle60" />
                </g>
                <g
   transform="translate(5.47176,-0.247506)"
   id="g66">
                    <ellipse
   cx="1353.41"
   cy="342.79401"
   rx="5.6440001"
   ry="5.5780001"
   style="fill:#1b1b1b"
   id="ellipse64" />
                </g>
                <path
   d="m 1411.77,358.652 c -1.36,27.794 3.72,28.568 7.65,26.999 13.27,-6.539 18,-7.142 17.92,-17.672 -0.84,-5.202 0.79,-10.417 3.26,-14.923 0.15,-0.261 0.29,-0.52 0.44,-0.776 3.18,-5.497 7.51,-9.832 9.86,-11.619 -2.2,-2.252 -4.67,-3.889 -8.22,-3.001 -10.34,1.251 -13.76,9.666 -19.25,16.735 -2.75,2.556 -6.67,3.94 -11.66,4.257 z"
   style="fill:#141414"
   id="path68" />
                <path
   d="m 1449.67,340.595 c -6.6,5.345 -16.42,7.793 -15.03,2.832 0.42,-5.73 11.19,-7.967 15.03,-2.832 z"
   style="fill:#1a1a1a;stroke:#000000;stroke-width:1.57px"
   id="path70" />
                <g
   transform="matrix(1.5688,0,0,1.5688,-1312.51,-1773.96)"
   id="g74">
                    <path
   d="m 1635.76,1481.01 c -14.37,-14.86 -13.24,-39.67 -5.02,-40.83 33.83,-17.85 17.55,-88.75 -1.09,-101.29 66.79,-9.79 107.12,-17.92 141.89,-9.67 8.58,13.14 22.07,67.85 8.52,87.39 -13.01,6.77 -17.07,30.29 -6.55,52.83 12.05,6.07 5.79,30.46 -17.68,42.35 -36.51,15.52 -71.34,13.58 -104.35,-6.99 -5.97,-6.78 -11.58,-14.14 -15.72,-23.79 z"
   style="fill:url(#_Linear8)"
   id="path72" />
                </g>
            </g>
        </g><g
   transform="matrix(0.48247715,0,0,0.35084144,-437.76802,-223.74938)"
   id="g82">
            <path
   d="m 1460.97,1105.11 c 40.39,0 76.57,17.24 100.79,44.36 19.46,21.8 31.19,49.98 31.19,80.73 0,69.05 -59.14,125.1 -131.98,125.1 -47.4,0 -88.99,-23.73 -112.27,-59.32 -12.5,-19.12 -19.72,-41.65 -19.72,-65.78 0,-69.04 59.14,-125.09 131.99,-125.09 z"
   style="fill:url(#_Radial9)"
   id="path80" />
        </g><g
   transform="matrix(0.35084144,0,0,0.35084144,-240.63471,-220.57176)"
   id="g86">
            <path
   d="m 1729.59,1097.84 c 16.43,-3.53 31.11,-8.1 42.45,-14.67 17.15,-8.1 34.31,-13.74 51.46,-17.77 15.72,-4.15 30.62,-9.12 44.31,-15.31 15.28,-6.79 30.98,-12.94 48.3,-16.68 17.63,-4.57 34.9,-10.18 51.51,-17.8 l 119.69,64.44 -223,85.14 z"
   style="fill:#ffffff;fill-opacity:0.03"
   id="path84" />
        </g><g
   transform="matrix(0.35084144,0,0,0.35084144,-241.00012,-220.91755)"
   id="g90">
            <path
   d="m 2009.31,1223.62 41.98,22.1 35.5,-11.39 -40.64,-21.43 z m 50.02,-15.41 39.97,21.43 34.83,-11.61 -39.97,-21.21 z m -105.58,-9.84 34.5,-13.02 43.32,21.66 -36.69,11.93 z m 152.7,-5.35 41.08,20.32 33.72,-10.71 -39.97,-21.44 z m -65.25,9.18 -40.44,-20.22 35.87,-12.34 43.17,21.58 z m 113.7,-25.25 40.86,22.1 35.73,-12.95 -41.75,-21.44 z m -259.39,-7.7 36.26,-11.79 42.46,20.88 -36.26,11.79 z m 193.91,17.16 -39.92,-19.96 36.18,-13.17 41.98,22.1 z m -103.1,-12 -42.6,-20.95 36.4,-11.72 42.46,20.87 z m 153.62,-3.49 -41.09,-21.22 33.72,-11.61 41.98,21.22 z m -105.28,-12.24 -42.45,-20.87 36.27,-11.8 42.45,20.88 z m 48.36,-15.72 -42.6,-20.95 36.75,-10.98 42,20.59 z"
   style="fill:url(#_Linear10)"
   id="path88" />
        </g><g
   transform="matrix(0.35084144,0,0,0.35084144,-241.00012,-220.91755)"
   id="g94">
            <path
   d="m 2022.93,1226.07 26.57,14.52 24.34,-8.26 -26.35,-13.4 z m 48.68,-15.18 26.13,13.62 24.34,-7.59 -28.14,-13.85 z m -106.07,-13.4 28.58,13.62 23.45,-6.7 -27.46,-14.07 z m 152.74,-2.46 29.7,13.4 20.32,-7.81 -25.9,-13.62 z m -102.72,-11.16 26.8,12.28 23.44,-7.37 -28.58,-13.17 z m 151.18,-5.81 24.11,13.4 23,-8.26 -22.55,-12.28 z m -257.25,-7.59 22.56,-8.04 28.13,15.19 -21.88,7.81 z m 153.63,-3.35 27.25,12.95 23.67,-6.47 -26.58,-14.07 z m -105.39,-11.83 27.46,14.06 23.9,-7.81 -28.59,-14.52 z m 152.29,-3.58 27.69,13.85 24.78,-8.49 -28.36,-12.73 z m -104.06,-12.72 27.47,14.29 24.33,-8.27 -28.13,-14.51 z m 48.9,-15.86 27.47,14.29 22.78,-7.59 -27.02,-14.29 z"
   style="fill:url(#_Linear11)"
   id="path92" />
        </g><path
   d="m 0,341.41468 v -120.5 L 441.83217,0 722.99997,140.58251 v 120.5 L 281.16784,482.00033 Z"
   style="fill:url(#_Radial12);stroke-width:0.350841"
   id="path96" />
    <defs
   id="defs188">
        <radialGradient
   id="_Radial1"
   cx="0"
   cy="0"
   r="1"
   gradientUnits="userSpaceOnUse"
   gradientTransform="matrix(-115.254,7.00702,-4.71961,-77.6302,1356.51,338.02)"><stop
     offset="0"
     style="stop-color:black;stop-opacity:1"
     id="stop100" /><stop
     offset="0.37"
     style="stop-color:rgb(5,5,5);stop-opacity:1"
     id="stop102" /><stop
     offset="0.49"
     style="stop-color:rgb(18,18,18);stop-opacity:1"
     id="stop104" /><stop
     offset="0.59"
     style="stop-color:rgb(32,32,32);stop-opacity:1"
     id="stop106" /><stop
     offset="0.79"
     style="stop-color:rgb(43,39,24);stop-opacity:1"
     id="stop108" /><stop
     offset="1"
     style="stop-color:rgb(75,61,0);stop-opacity:1"
     id="stop110" /></radialGradient>
        <radialGradient
   id="_Radial2"
   cx="0"
   cy="0"
   r="1"
   gradientUnits="userSpaceOnUse"
   gradientTransform="matrix(-27.6998,-40.106,35.4537,-32.3521,1349.85,339.719)"><stop
     offset="0"
     style="stop-color:rgb(80,80,80);stop-opacity:1"
     id="stop113" /><stop
     offset="0.3"
     style="stop-color:rgb(57,57,57);stop-opacity:1"
     id="stop115" /><stop
     offset="1"
     style="stop-color:rgb(39,39,39);stop-opacity:1"
     id="stop117" /></radialGradient>
        <radialGradient
   id="_Radial3"
   cx="0"
   cy="0"
   r="1"
   gradientUnits="userSpaceOnUse"
   gradientTransform="matrix(17.9295,38.2317,-47.3232,22.1931,1409.91,348.1)"><stop
     offset="0"
     style="stop-color:black;stop-opacity:1"
     id="stop120" /><stop
     offset="0.53"
     style="stop-color:rgb(21,18,4);stop-opacity:1"
     id="stop122" /><stop
     offset="1"
     style="stop-color:rgb(94,79,20);stop-opacity:1"
     id="stop124" /></radialGradient>
        <linearGradient
   id="_Linear4"
   x1="0"
   y1="0"
   x2="1"
   y2="0"
   gradientUnits="userSpaceOnUse"
   gradientTransform="matrix(-3.84187,101.772,-101.772,-3.84187,1757.38,1248.24)"><stop
     offset="0"
     style="stop-color:white;stop-opacity:0"
     id="stop127" /><stop
     offset="1"
     style="stop-color:white;stop-opacity:0.04"
     id="stop129" /></linearGradient>
        <linearGradient
   id="_Linear5"
   x1="0"
   y1="0"
   x2="1"
   y2="0"
   gradientUnits="userSpaceOnUse"
   gradientTransform="matrix(2.57729,271.904,-271.904,2.57729,1471.76,52.0129)"><stop
     offset="0"
     style="stop-color:black;stop-opacity:1"
     id="stop132" /><stop
     offset="1"
     style="stop-color:rgb(55,41,33);stop-opacity:1"
     id="stop134" /></linearGradient>
        <radialGradient
   id="_Radial6"
   cx="0"
   cy="0"
   r="1"
   gradientUnits="userSpaceOnUse"
   gradientTransform="matrix(-83.2946,0,0,-38.4936,1359.05,354.644)"><stop
     offset="0"
     style="stop-color:black;stop-opacity:1"
     id="stop137" /><stop
     offset="0.37"
     style="stop-color:rgb(6,6,6);stop-opacity:1"
     id="stop139" /><stop
     offset="0.59"
     style="stop-color:rgb(39,39,39);stop-opacity:1"
     id="stop141" /><stop
     offset="1"
     style="stop-color:black;stop-opacity:1"
     id="stop143" /></radialGradient>
        <radialGradient
   id="_Radial7"
   cx="0"
   cy="0"
   r="1"
   gradientUnits="userSpaceOnUse"
   gradientTransform="matrix(-60.9457,-4.54563,18.0498,-27.9544,1358.95,323.844)"><stop
     offset="0"
     style="stop-color:rgb(145,118,86);stop-opacity:1"
     id="stop146" /><stop
     offset="0.3"
     style="stop-color:rgb(57,51,44);stop-opacity:1"
     id="stop148" /><stop
     offset="0.66"
     style="stop-color:rgb(33,33,33);stop-opacity:1"
     id="stop150" /><stop
     offset="1"
     style="stop-color:rgb(32,32,32);stop-opacity:1"
     id="stop152" /></radialGradient>
        <linearGradient
   id="_Linear8"
   x1="0"
   y1="0"
   x2="1"
   y2="0"
   gradientUnits="userSpaceOnUse"
   gradientTransform="matrix(2.61962,132.728,-102.209,2.01729,1697.1,1374.26)"><stop
     offset="0"
     style="stop-color:white;stop-opacity:0"
     id="stop155" /><stop
     offset="0.5"
     style="stop-color:rgb(223,184,149);stop-opacity:0.1"
     id="stop157" /><stop
     offset="0.72"
     style="stop-color:rgb(232,205,180);stop-opacity:0.07"
     id="stop159" /><stop
     offset="1"
     style="stop-color:white;stop-opacity:0"
     id="stop161" /></linearGradient>
        <radialGradient
   id="_Radial9"
   cx="0"
   cy="0"
   r="1"
   gradientUnits="userSpaceOnUse"
   gradientTransform="matrix(-106.615,-45.0187,22.5617,-101.049,1443.77,1231.82)"><stop
     offset="0"
     style="stop-color:rgb(255,207,92);stop-opacity:0.25"
     id="stop164" /><stop
     offset="0.53"
     style="stop-color:rgb(255,198,71);stop-opacity:0.2"
     id="stop166" /><stop
     offset="1"
     style="stop-color:rgb(255,168,0);stop-opacity:0"
     id="stop168" /></radialGradient>
        <linearGradient
   id="_Linear10"
   x1="0"
   y1="0"
   x2="1"
   y2="0"
   gradientUnits="userSpaceOnUse"
   gradientTransform="matrix(-66.7277,-109.625,109.625,-66.7277,2154.04,1225.62)"><stop
     offset="0"
     style="stop-color:white;stop-opacity:0.15"
     id="stop171" /><stop
     offset="0.5"
     style="stop-color:white;stop-opacity:0.11"
     id="stop173" /><stop
     offset="1"
     style="stop-color:white;stop-opacity:0"
     id="stop175" /></linearGradient>
        <linearGradient
   id="_Linear11"
   x1="0"
   y1="0"
   x2="1"
   y2="0"
   gradientUnits="userSpaceOnUse"
   gradientTransform="matrix(185.571,49.5968,-20.3773,76.2432,1942.56,1160.92)"><stop
     offset="0"
     style="stop-color:white;stop-opacity:0"
     id="stop178" /><stop
     offset="1"
     style="stop-color:white;stop-opacity:0.05"
     id="stop180" /></linearGradient>
        <radialGradient
   id="_Radial12"
   cx="0"
   cy="0"
   r="1"
   gradientUnits="userSpaceOnUse"
   gradientTransform="matrix(277.15386,32.283482,-21.522298,184.76889,263.59419,227.74907)"><stop
     offset="0"
     style="stop-color:rgb(255,129,0);stop-opacity:0"
     id="stop183" /><stop
     offset="1"
     style="stop-color:black;stop-opacity:0.11"
     id="stop185" /></radialGradient>
    
        
        
        
        
        
        
    </defs>
</svg>
