<?xml version="1.0" encoding="iso-8859-1"?>
<!-- Generator: Adobe Illustrator 15.1.0, SVG Export Plug-In . SVG Version: 6.00 Build 0)  -->
<!DOCTYPE svg PUBLIC "-//W3C//DTD SVG 1.1//EN" "http://www.w3.org/Graphics/SVG/1.1/DTD/svg11.dtd">
<svg version="1.1" id="front-sitting" xmlns="http://www.w3.org/2000/svg" xmlns:xlink="http://www.w3.org/1999/xlink" x="0px"
	 y="0px" width="159px" height="182px" viewBox="0 0 159 182" style="enable-background:new 0 0 159 182;" xml:space="preserve">
<path style="fill:#FFFFFF;" d="M51.918,108.72l-5.429-9.724c0,0,2.067-8.498,8.692-14.498c-5.5-5.625-7.841-7.217-8.591-16.295
	c0.875-9.454,7.768-18.328,33.205-18.828s32.695,9.549,32.695,19.087S99.998,85.5,99.998,85.5l0.479,6.793l10.774,4.645L112.795,116
	H65c0,0-6.541-0.333-9.208-0.333C53.452,113.542,51.918,108.72,51.918,108.72z"/>
<line style="fill:#FFFFFF;" x1="81" y1="116" x2="72" y2="116"/>
<path style="fill:#010202;" d="M106.791,78.753l2.799-3.399l0.5-0.9c1.068-1.933,1.6-4,1.6-6.2v-1.199
	c-0.332-3.334-1.898-6.367-4.699-9.101l-0.199-0.2l0.799-0.8l0.1-0.1l0.5-0.601c3.4,3.134,5.268,6.733,5.602,10.801v1.199
	c0,2.533-0.602,4.9-1.801,7.101c-0.934,1.666-2.199,3.267-3.801,4.8l-1.1-1.1L106.791,78.753"/>
<path style="fill:#010202;" d="M52.189,58.554c-2.799,2.6-4.434,5.433-4.898,8.5l-0.102,2c-0.066,3,0.934,5.767,3,8.3l2,2.2
	l-1.5,1.399l-0.799-0.7l-1.201-1.399c-2.465-2.934-3.666-6.2-3.6-9.8l0.1-2c0.469-3.733,2.301-7.067,5.5-10L52.189,58.554"/>
<path style="fill:#010202;" d="M48.48,98.273l0.092-1.851c0.422-2.783,1.936-5.402,4.499-7.783l0.381-0.353l-2.131-2.13
	l-0.353,0.323c-3.113,2.854-4.924,6.153-5.386,9.843l-0.096,1.916c-0.065,3.525,1.124,6.769,3.54,9.644l1.19,1.379l1.1,0.964
	l2.116-1.975l-2.215-2.435C49.343,103.517,48.422,100.974,48.48,98.273z"/>
<path d="M53.334,67.331h12.624v2.262H53.334V67.331z"/>
<g>
	<path d="M53.334,67.331h12.624v2.262H53.334V67.331z"/>
</g>
<path d="M94.167,67.331h12.624v2.262H94.167V67.331z"/>
<g>
	<path d="M94.167,67.331h12.624v2.262H94.167V67.331z"/>
</g>
<path d="M66.033,79.154h27.558v2.262H66.033V79.154z"/>
<g>
	<path d="M66.033,79.154h27.558v2.262H66.033V79.154z"/>
</g>
<g>
	<path style="fill:#FFFFFF;" d="M51.918,108.72l-5.429-9.724c0,0,2.067-8.498,8.692-14.498c-5.5-5.625-7.841-7.217-8.591-16.295
		c0.875-9.454,7.768-18.328,33.205-18.828s32.695,9.549,32.695,19.087S99.998,85.5,99.998,85.5l0.479,6.793l10.774,4.645
		L112.795,116H65c0,0-6.541-0.333-9.208-0.333C53.452,113.542,51.918,108.72,51.918,108.72z"/>
	<line style="fill:#FFFFFF;" x1="81" y1="116" x2="72" y2="116"/>
	<path style="fill:#010202;" d="M106.791,78.753l2.799-3.399l0.5-0.9c1.068-1.933,1.6-4,1.6-6.2v-1.199
		c-0.332-3.334-1.898-6.367-4.699-9.101l-0.199-0.2l0.799-0.8l0.1-0.1l0.5-0.601c3.4,3.134,5.268,6.733,5.602,10.801v1.199
		c0,2.533-0.602,4.9-1.801,7.101c-0.934,1.666-2.199,3.267-3.801,4.8l-1.1-1.1L106.791,78.753"/>
	<path style="fill:#010202;" d="M52.189,58.554c-2.799,2.6-4.434,5.433-4.898,8.5l-0.102,2c-0.066,3,0.934,5.767,3,8.3l2,2.2
		l-1.5,1.399l-0.799-0.7l-1.201-1.399c-2.465-2.934-3.666-6.2-3.6-9.8l0.1-2c0.469-3.733,2.301-7.067,5.5-10L52.189,58.554"/>
	<path style="fill:#010202;" d="M48.48,98.273l0.092-1.851c0.422-2.783,1.936-5.402,4.499-7.783l0.381-0.353l-2.131-2.13
		l-0.353,0.323c-3.113,2.854-4.924,6.153-5.386,9.843l-0.096,1.916c-0.065,3.525,1.124,6.769,3.54,9.644l1.19,1.379l1.1,0.964
		l2.116-1.975l-2.215-2.435C49.343,103.517,48.422,100.974,48.48,98.273z"/>
	<g>
		<path d="M53.334,67.331h12.624v2.262H53.334V67.331z"/>
	</g>
	<g>
		<path d="M94.167,67.331h12.624v2.262H94.167V67.331z"/>
	</g>
	<g>
		<path d="M66.033,79.154h27.558v2.262H66.033V79.154z"/>
	</g>
</g>
<path style="stroke:#010202;stroke-width:1.3526;stroke-miterlimit:10;" d="M65.293,114.017v-10.118
	c0-2.976,0.522-5.329,1.569-7.061c1.839-3.03,4.724-4.545,8.656-4.545c3.967,0,6.861,1.551,8.683,4.653
	c1.028,1.731,1.542,4.058,1.542,6.979v10.091h-1.839v-10.091c0-6.474-2.786-9.711-8.358-9.711c-5.609,0-8.413,3.228-8.413,9.684
	v10.118H65.293z"/>
<path style="stroke:#010202;stroke-width:1.3526;stroke-miterlimit:10;" d="M92.345,114.017v-10.118
	c0-2.976,0.522-5.329,1.569-7.061c1.839-3.03,4.724-4.545,8.655-4.545c3.968,0,6.862,1.551,8.684,4.653
	c1.028,1.731,1.542,4.058,1.542,6.979v10.091h-1.84v-10.091c0-6.474-2.786-9.711-8.358-9.711c-5.609,0-8.413,3.228-8.413,9.684
	v10.118H92.345z"/>
<g>
	<path style="stroke:#010202;stroke-width:1.3526;stroke-miterlimit:10;" d="M65.293,114.017v-10.118
		c0-2.976,0.522-5.329,1.569-7.061c1.839-3.03,4.724-4.545,8.656-4.545c3.967,0,6.861,1.551,8.683,4.653
		c1.028,1.731,1.542,4.058,1.542,6.979v10.091h-1.839v-10.091c0-6.474-2.786-9.711-8.358-9.711c-5.609,0-8.413,3.228-8.413,9.684
		v10.118H65.293z"/>
	<path style="stroke:#010202;stroke-width:1.3526;stroke-miterlimit:10;" d="M92.345,114.017v-10.118
		c0-2.976,0.522-5.329,1.569-7.061c1.839-3.03,4.724-4.545,8.655-4.545c3.968,0,6.862,1.551,8.684,4.653
		c1.028,1.731,1.542,4.058,1.542,6.979v10.091h-1.84v-10.091c0-6.474-2.786-9.711-8.358-9.711c-5.609,0-8.413,3.228-8.413,9.684
		v10.118H92.345z"/>
</g>
</svg>
