<svg xmlns="http://www.w3.org/2000/svg" width="159" height="182"><path d="M83.021 116.57l-8.912 1.252-8.37 5.115 2.241 15.943-5.265 2.507-5.447-3.148-3.913-24.844-6.802-8.868s.828-8.7 6.554-15.564c-6.229-4.805-8.787-6.054-10.794-14.939-.449-9.483 5.132-19.23 30.252-23.265 25.12-4.036 33.702 4.906 35.03 14.351 1.327 9.445-10.004 18.612-10.004 18.612l6.75 48.028-2.306 3.354-7.479.672-3.26-4.338-1.786-11.588-6.489-3.28z" fill="#fff"/><path d="M103.378 76.097l2.299-3.756.369-.961a12.63 12.63 0 00.722-6.362l-.167-1.188c-.793-3.255-2.767-6.041-5.92-8.358l-.226-.17.68-.903.085-.112.412-.665c3.803 2.63 6.153 5.935 7.05 9.916l.167 1.188a14.608 14.608 0 01-.795 7.282c-.692 1.78-1.724 3.541-3.096 5.282l-1.242-.936-.338-.257M91.971 119.251l1.823 12.972c.064.934.437 1.655 1.113 2.167.762.632 1.903.843 3.42.629 1.387-.195 2.394-.707 3.017-1.534.511-.679.702-1.479.572-2.404l-1.823-12.972 2.971-.417 1.837 13.071c.231 1.65-.107 3.078-1.016 4.283-1.021 1.356-2.751 2.205-5.195 2.549-2.575.362-4.54.032-5.895-.99-1.205-.908-1.923-2.188-2.155-3.837l-1.837-13.071 3.168-.446M56.719 124.206l1.823 12.972c.063.934.434 1.655 1.111 2.167.829.623 1.969.833 3.422.629 1.387-.195 2.392-.707 3.015-1.534.513-.679.701-1.479.571-2.404l-1.822-12.972 2.971-.417 1.837 13.071c.231 1.65-.106 3.078-1.014 4.282-1.021 1.356-2.753 2.206-5.196 2.549-2.508.353-4.44.019-5.795-1.004-1.272-.898-1.989-2.178-2.155-3.837l-1.837-13.071 3.069-.431M46.497 63.693c-2.41 2.964-3.635 5.997-3.668 9.099l.178 1.995c.352 2.98 1.727 5.581 4.126 7.801l2.286 1.9-1.29 1.595-.889-.582-1.385-1.219c-2.849-2.562-4.493-5.63-4.928-9.204l-.18-1.994c-.056-3.763 1.295-7.319 4.055-10.668l1.695 1.277M48.352 103.542l-.167-1.845c.031-2.815 1.165-5.619 3.372-8.333l.328-.403-2.406-1.813-.304.369c-2.687 3.26-4.02 6.779-3.964 10.497l.172 1.91c.426 3.5 2.055 6.547 4.848 9.058l1.371 1.2 1.223.802 1.821-2.25-2.532-2.103c-2.178-2.017-3.444-4.406-3.762-7.089zM70.831 104.777a46.937 46.937 0 00-9.797-7.137l-.573-.314-1.946 2.628.785.403c3.315 1.703 6.409 4.036 9.197 6.932l.564.586 2.292-2.601-.522-.497z" fill="#010202"/><path d="M48.852 72.226l12.501-1.757.314 2.24-12.501 1.757-.314-2.24z"/><path d="M48.852 72.226l12.501-1.757.314 2.24-12.501 1.757-.314-2.24zM89.287 66.542l12.501-1.757.315 2.24-12.502 1.757-.314-2.24z"/><path d="M89.287 66.542l12.501-1.757.315 2.24-12.502 1.757-.314-2.24zM63.072 82.166l27.29-3.835.314 2.24-27.289 3.835-.315-2.24z"/><path d="M63.072 82.166l27.29-3.835.314 2.24-27.289 3.835-.315-2.24zM97.929 83.587l3.836 27.29-2.24.314-3.835-27.289 2.239-.315z"/><path d="M97.929 83.587l3.836 27.29-2.24.314-3.835-27.289 2.239-.315z"/><path d="M83.021 116.57l-8.912 1.252-8.37 5.115 2.241 15.943-5.265 2.507-5.447-3.148-3.913-24.844-6.802-8.868s.828-8.7 6.554-15.564c-6.229-4.805-8.787-6.054-10.794-14.939-.449-9.483 5.132-19.23 30.252-23.265 25.12-4.036 33.702 4.906 35.03 14.351 1.327 9.445-10.004 18.612-10.004 18.612l6.75 48.028-2.306 3.354-7.479.672-3.26-4.338-1.786-11.588-6.489-3.28z" fill="#fff"/><path d="M103.378 76.097l2.299-3.756.369-.961a12.63 12.63 0 00.722-6.362l-.167-1.188c-.793-3.255-2.767-6.041-5.92-8.358l-.226-.17.68-.903.085-.112.412-.665c3.803 2.63 6.153 5.935 7.05 9.916l.167 1.188a14.608 14.608 0 01-.795 7.282c-.692 1.78-1.724 3.541-3.096 5.282l-1.242-.936-.338-.257M91.971 119.251l1.823 12.972c.064.934.437 1.655 1.113 2.167.762.632 1.903.843 3.42.629 1.387-.195 2.394-.707 3.017-1.534.511-.679.702-1.479.572-2.404l-1.823-12.972 2.971-.417 1.837 13.071c.231 1.65-.107 3.078-1.016 4.283-1.021 1.356-2.751 2.205-5.195 2.549-2.575.362-4.54.032-5.895-.99-1.205-.908-1.923-2.188-2.155-3.837l-1.837-13.071 3.168-.446M56.719 124.206l1.823 12.972c.063.934.434 1.655 1.111 2.167.829.623 1.969.833 3.422.629 1.387-.195 2.392-.707 3.015-1.534.513-.679.701-1.479.571-2.404l-1.822-12.972 2.971-.417 1.837 13.071c.231 1.65-.106 3.078-1.014 4.282-1.021 1.356-2.753 2.206-5.196 2.549-2.508.353-4.44.019-5.795-1.004-1.272-.898-1.989-2.178-2.155-3.837l-1.837-13.071 3.069-.431M46.497 63.693c-2.41 2.964-3.635 5.997-3.668 9.099l.178 1.995c.352 2.98 1.727 5.581 4.126 7.801l2.286 1.9-1.29 1.595-.889-.582-1.385-1.219c-2.849-2.562-4.493-5.63-4.928-9.204l-.18-1.994c-.056-3.763 1.295-7.319 4.055-10.668l1.695 1.277M48.352 103.542l-.167-1.845c.031-2.815 1.165-5.619 3.372-8.333l.328-.403-2.406-1.813-.304.369c-2.687 3.26-4.02 6.779-3.964 10.497l.172 1.91c.426 3.5 2.055 6.547 4.848 9.058l1.371 1.2 1.223.802 1.821-2.25-2.532-2.103c-2.178-2.017-3.444-4.406-3.762-7.089zM70.831 104.777a46.937 46.937 0 00-9.797-7.137l-.573-.314-1.946 2.628.785.403c3.315 1.703 6.409 4.036 9.197 6.932l.564.586 2.292-2.601-.522-.497z" fill="#010202"/><path d="M48.852 72.226l12.501-1.757.314 2.24-12.501 1.757-.314-2.24zM89.287 66.542l12.501-1.757.315 2.24-12.502 1.757-.314-2.24zM63.072 82.166l27.29-3.835.314 2.24-27.289 3.835-.315-2.24zM97.929 83.587l3.836 27.29-2.24.314-3.835-27.289 2.239-.315z"/></svg>