<svg xmlns:xlink="http://www.w3.org/1999/xlink" height="66.85" width="51.45" xmlns="http://www.w3.org/2000/svg"><use height="66.85" width="51.45" xlink:href="#a"/><defs><g id="a"><path d="M-52.25-1.1q-1.1-1.1-1.1-2.65 0-1.55 1.1-2.65 1.1-1.1 2.65-1.1 1.5 0 2.6 1.05l.05.05.6.8.1.1h4.05l1.65-1.65L-19.3-24.6l.05-.05v1.7Q-29.7-14-38.45-5.15h5v1.25l-12.45.95-.15.5q-.3.75-.9 1.35Q-48.05 0-49.6 0q-1.55 0-2.65-1.1" fill-opacity=".2" fill-rule="evenodd" transform="translate(53.35 66.85)"/><path d="M34.1 42.2h8.75m-8.75 0 8.75 18m-8.8-17.95-18.2 8.95m18.25-9V11.45" fill="none" stroke="#000" stroke-linecap="round" stroke-linejoin="round" stroke-width="2"/><path d="M-26-54.15q-2.7 0-4.65-1.8-1.9-1.75-1.85-4.3-.05-2.5 1.85-4.3 1.95-1.8 4.65-1.8 2.65 0 4.55 1.8 1.95 1.8 1.95 4.3 0 2.55-1.95 4.3-1.9 1.8-4.55 1.8" fill="#999" fill-rule="evenodd" transform="translate(53.35 66.85)"/><path d="m-23.75-66 1.05.45 1.15.8.15.15.8.9.25.35.5.95q.35.95.35 2.05 0 2.5-1.9 4.25-1.05.95-2.3 1.4l-1.95.35h-1l-.6-.1-1.4-.4q-.55-.2-1.05-.55l-.25-.15-.65-.55-.1-.1-.3-.3-.8-1.05-.25-.5-.35-1.3-.05-.15-.05-.85q0-2.5 1.9-4.25 1.3-1.2 3-1.55l.1-.05 1.5-.15h.2l.3.05 1.5.25m.25.05-.25-.05" fill="none" stroke="#333" stroke-linecap="round" stroke-linejoin="round" transform="translate(53.35 66.85)"/><path d="m29.35.8.3-.45-.05.5M29.35.8l-7 9.55m11.15-5.9L29.85 9.5l-.45.65-1.7 2.35m4.1-10.4-3.15 4.4-.2.25L24.7 12m5.95-10.7L27.7 5.45 24.85 9.3l-.2.3-1.25 1.7m9.35-8.15-4.1 5.75-2.55 3.5M32 8.9l-2.35 3.25M27.55.5 21.3 8.8m-.4-1.45L25.75.7" fill="none" stroke="#333" stroke-linecap="round" stroke-linejoin="round" stroke-width=".05"/><path d="M-32.4-60.75q-.05-2.5 1.8-4.25l-.05 1q-.05 2.55 1.85 4.3 1.95 1.8 4.65 1.8 2.65 0 4.55-1.8l.1-.1q-.3 1.95-1.85 3.35-1.9 1.8-4.55 1.8-2.7 0-4.65-1.8-1.9-1.75-1.85-4.3" fill-opacity=".353" fill-rule="evenodd" transform="translate(53.35 66.85)"/><path d="m31.15 9.2 17.8 10.5" fill="none" stroke="#000" stroke-linecap="round" stroke-linejoin="round" stroke-width="5"/></g></defs></svg>