<svg xmlns:xlink="http://www.w3.org/1999/xlink" height="79.65" width="60.8" xmlns="http://www.w3.org/2000/svg"><g transform="translate(30.35 69.05)"><use height="50.8" transform="translate(-30.35 -40.2)" width="60.8" xlink:href="#shape0"/><use height="40.5" transform="translate(-18.4 -63)" width="10.5" xlink:href="#sprite0"/><use height="40.5" transform="translate(-5.3 -69.05)" width="10.5" xlink:href="#sprite0"/><use height="40.5" transform="translate(-6.4 -57)" width="10.5" xlink:href="#sprite0"/><use height="40.5" transform="translate(6.7 -63.05)" width="10.5" xlink:href="#sprite0"/></g><defs><linearGradient gradientTransform="matrix(.0022 0 0 .0136 .1 .65)" gradientUnits="userSpaceOnUse" id="gradient0" spreadMethod="pad" x1="-819.2" x2="819.2"><stop offset="0" stop-color="#9a9a9a"/><stop offset=".51" stop-color="#dadada"/><stop offset="1" stop-color="#8d8d8d"/></linearGradient><linearGradient gradientTransform="matrix(.0022 0 0 .0136 .1 -6.35)" gradientUnits="userSpaceOnUse" id="gradient1" spreadMethod="pad" x1="-819.2" x2="819.2"><stop offset="0" stop-color="#9a9a9a"/><stop offset=".51" stop-color="#dadada"/><stop offset="1" stop-color="#8d8d8d"/></linearGradient><linearGradient gradientTransform="matrix(.0022 0 0 .0136 .1 -10.25)" gradientUnits="userSpaceOnUse" id="gradient2" spreadMethod="pad" x1="-819.2" x2="819.2"><stop offset="0" stop-color="#868686"/><stop offset=".51" stop-color="#b5b5b5"/><stop offset="1" stop-color="#828282"/></linearGradient><linearGradient gradientTransform="matrix(.0022 0 0 .0136 .1 .65)" gradientUnits="userSpaceOnUse" id="gradient3" spreadMethod="pad" x1="-819.2" x2="819.2"><stop offset="0" stop-color="#868686"/><stop offset=".51" stop-color="#b5b5b5"/><stop offset="1" stop-color="#828282"/></linearGradient><linearGradient gradientTransform="matrix(.0111 -.011 .0044 .0044 .2 .85)" gradientUnits="userSpaceOnUse" id="gradient4" spreadMethod="pad" x1="-819.2" x2="819.2"><stop offset="0" stop-color="#868686"/><stop offset=".51" stop-color="#b5b5b5"/><stop offset="1" stop-color="#828282"/></linearGradient><linearGradient gradientTransform="matrix(.0016 0 0 .0027 -2.85 -30.45)" gradientUnits="userSpaceOnUse" id="gradient8" spreadMethod="pad" x1="-819.2" x2="819.2"><stop offset="0" stop-color="#fde68a"/><stop offset="1" stop-color="#f0f1d6"/></linearGradient><linearGradient gradientTransform="matrix(.0038 0 0 .0089 -1.85 -3.1)" gradientUnits="userSpaceOnUse" id="gradient9" spreadMethod="pad" x1="-819.2" x2="819.2"><stop offset="0" stop-color="#f2bf28"/><stop offset="1" stop-color="#f2ebbd"/></linearGradient><linearGradient gradientTransform="matrix(.0061 0 0 .0138 -2.8 -21.25)" gradientUnits="userSpaceOnUse" id="gradient10" spreadMethod="pad" x1="-819.2" x2="819.2"><stop offset="0" stop-color="#327436" stop-opacity=".8"/><stop offset=".486" stop-color="#56ae42"/><stop offset="1" stop-color="#306733"/></linearGradient><linearGradient gradientTransform="matrix(.0061 0 0 .0123 -2.8 -3.1)" gradientUnits="userSpaceOnUse" id="gradient11" spreadMethod="pad" x1="-819.2" x2="819.2"><stop offset="0" stop-color="#327436" stop-opacity=".8"/><stop offset=".486" stop-color="#56ae42"/><stop offset="1" stop-color="#306733"/></linearGradient><radialGradient cx="0" cy="0" gradientTransform="translate(-15.05 -15.45) scale(.0224)" gradientUnits="userSpaceOnUse" id="gradient5" r="819.2" spreadMethod="pad"><stop offset="0" stop-color="#a35734"/><stop offset="1" stop-color="#50381b"/></radialGradient><radialGradient cx="0" cy="0" gradientTransform="translate(14.55 -14.6) scale(.0225)" gradientUnits="userSpaceOnUse" id="gradient6" r="819.2" spreadMethod="pad"><stop offset="0" stop-color="#a35734"/><stop offset="1" stop-color="#50381b"/></radialGradient><radialGradient cx="0" cy="0" gradientTransform="translate(-3.45 -27.35) scale(.0409)" gradientUnits="userSpaceOnUse" id="gradient7" r="819.2" spreadMethod="pad"><stop offset="0" stop-color="#a35734"/><stop offset="1" stop-color="#50381b"/></radialGradient><g id="shape0"><path d="M-1.65-4.2Q-5.8-4-8.8-2.75l-.8.3q-2.6 1.2-2.95 2.8l-.05.5.05.45q.25 1 1.3 1.85l1.65.95.8.35q3.7 1.5 9 1.5t9.05-1.5l2.45-1.3q1.2-1 1.3-2.35-.1-2.05-3.75-3.55Q6.15-4 1.95-4.2v-3.1q7.15.2 12.4 2.55 5.7 2.6 5.8 6.5-.1 2.15-2 3.9-1.4 1.2-3.8 2.25Q8.5 10.6.2 10.6t-14.15-2.7l-1.2-.55q-1.6-.85-2.6-1.7-1.55-1.4-2-3.1h.05V.8q.5-2.8 4.55-5l1.2-.55q5.15-2.3 12.3-2.55v3.1" fill-opacity=".2" fill-rule="evenodd" transform="translate(30.35 40.2)"/><path d="M-1.65-7.5v.2-.2" fill="url(#gradient0)" fill-rule="evenodd" transform="translate(30.35 40.2)"/><path d="M-1.65-8.15v.65-.65" fill="url(#gradient1)" fill-rule="evenodd" transform="translate(30.35 40.2)"/><path d="M-1.65-4.2v-3.95H1.95V-.2q0 .55-.45.8L.2.9-1.15.6q-.55-.25-.5-.55V-4.2" fill="url(#gradient2)" fill-rule="evenodd" transform="translate(30.35 40.2)"/><path d="M1.9-10.45v2.3h-3.55l-.05-2.35.5.05H1.9" fill="url(#gradient3)" fill-rule="evenodd" transform="translate(30.35 40.2)"/><path d="M1.95-4.2q4.2.2 7.3 1.45Q12.9-1.25 13 .8q-.1 1.35-1.3 2.35l-2.45 1.3Q5.5 5.95.2 5.95q-5.3 0-9-1.5l-.8-.35-1.65-.95q-1.05-.85-1.3-1.85l-.05-.45.05-.5q.35-1.6 2.95-2.8l.8-.3Q-5.8-4-1.65-4.2V.05q-.05.3.5.55L.2.9 1.5.6q.45-.25.45-.8v-4" fill="url(#gradient4)" fill-rule="evenodd" transform="translate(30.35 40.2)"/><path d="M1.95-4.2q4.2.2 7.3 1.45Q12.9-1.25 13 .8q-.1 1.35-1.3 2.35l-2.45 1.3Q5.5 5.95.2 5.95q-5.3 0-9-1.5l-.8-.35-1.65-.95q-1.05-.85-1.3-1.85l-.05-.45.05-.5q.35-1.6 2.95-2.8l.8-.3Q-5.8-4-1.65-4.2v-3.1m3.6 0v7.1q0 .55-.45.8L.2.9-1.15.6q-.55-.25-.5-.55V-4.2m3.6-3.95v.85m-.05-3.15v2.3m-3.55 0V-7.3m0-.2v.2m0-.2v-.65l-.05-2.35" fill="none" stroke="#400000" stroke-linecap="round" stroke-linejoin="round" transform="translate(30.35 40.2)"/><path d="M.25-5.35l-.15.1-29.95-15.05.2-.1-.05-4.3L.1-9.75h.05l.1 4.4" fill="url(#gradient5)" fill-rule="evenodd" transform="translate(30.35 40.2)"/><path d="M.25-5.35l-.1-4.4v-.05l29.8-14.9v4.5L.25-5.35" fill="url(#gradient6)" fill-rule="evenodd" transform="translate(30.35 40.2)"/><path d="M.1-9.75L-29.7-24.7l-.15-.1 29.8-14.9 30 15L.15-9.8l-.05.05" fill="url(#gradient7)" fill-rule="evenodd" transform="translate(30.35 40.2)"/><path d="M-29.7-24.7l.05 4.3-.2.1L.1-5.25l.15-.1-.1-4.4m-.05 0L-29.7-24.7l-.15-.1 29.8-14.9 30 15v4.5L.25-5.35M.1-9.75l.05-.05 29.8-14.9M.15-9.8v.05" fill="none" stroke="#000" stroke-linecap="round" stroke-linejoin="round" transform="translate(30.35 40.2)"/></g><g id="shape1"><path d="M-1-32.5l-.1-.05.05-.05H-1l-.1.05.1-.05v.1" fill="url(#gradient8)" fill-rule="evenodd" transform="translate(8.05 33.25)"/><path d="M2.2.95q0 .7-.4 1.3v.05l-1.05.9Q-.7 4.2-2.8 4.25q-1.75 0-3.05-.7V-7.8q1.3.75 3.05.75 2.1 0 3.55-1.05 1.4-.9 1.45-2.3V.95" fill="url(#gradient9)" fill-rule="evenodd" transform="translate(8.05 33.25)"/><path d="M-7.8-13.2q0-.7.35-1.3l.05-.05.2-.3 1.1-3.65.9-4.7q.3-2.45.45-5.3l.1-4.05 1.75.2 1.8-.2.1.05.1 4 .45 5.35q.35 2.55.9 4.65.6 2.45 1.35 3.85l.2.35.2 1.1v.05q-.05 1.35-1.45 2.3-1.45.95-3.55.95-2.05 0-3.55-.95-1.4-.95-1.45-2.35" fill="url(#gradient10)" fill-rule="evenodd" transform="translate(8.05 33.25)"/><path d="M-7.8-13.2q.05 1.4 1.45 2.35 1.5.95 3.55.95 2.1 0 3.55-.95 1.4-.95 1.45-2.3v2.75Q2.15-9 .75-8.1-.7-7.05-2.8-7.05q-1.75 0-3.05-.75V3.55q1.3.7 3.05.7Q-.7 4.2.75 3.2l1.05-.9v-.05q.4-.6.4-1.3V3.7q0 1.4-1.45 2.35Q-.7 7-2.8 7q-2.05 0-3.55-.95-1.3-.85-1.4-2.15v-.75L-7.8-13.2" fill="url(#gradient11)" fill-rule="evenodd" transform="translate(8.05 33.25)"/><path d="M10.25 20.1v-.05m0 2.8V20.1m0 16.8V22.85M.3 36.4L.25 20.05M.3 36.4v.75M6.95.7l-1.8.2L3.4.7l-.1 4.05q-.15 2.85-.45 5.3l-.9 4.7-1.1 3.65-.2.3-.05.05q-.35.6-.35 1.3m10 0l-.2-1.1-.2-.35q-.75-1.4-1.35-3.85-.55-2.1-.9-4.65l-.45-5.35-.1-4-.1-.05L7 .65h.05L5.2.25 3.4.7M7 .65L6.95.7l.1-.05v.1M.3 37.15q.1 1.3 1.4 2.15 1.5.95 3.55.95 2.1 0 3.55-.95 1.45-.95 1.45-2.35v-.05m-9.95.25l-.05-.25.05-.5" fill="none" stroke="#200" stroke-linecap="round" stroke-linejoin="round" stroke-width=".5"/><path d="M.25 20.05q.05 1.4 1.45 2.35 1.5.95 3.55.95 2.1 0 3.55-.95 1.4-.95 1.45-2.3z" fill="none" stroke="#200" stroke-linecap="round" stroke-linejoin="round" stroke-opacity=".102" stroke-width=".5"/></g><use height="40.5" width="10.5" xlink:href="#shape1" id="sprite0"/></defs></svg>