<svg xmlns="http://www.w3.org/2000/svg" xmlns:xlink="http://www.w3.org/1999/xlink" height="414.683" width="521.131"><defs><path d="M492-428H344v-64h148v64m0 132H344v-68h148v68m348-48l84-212 12-12-76-48-8 12H636V92h80v-620h108l-68 196q120 108 120 176 0 64-32 64h-68v76h88q100 0 100-120 0-112-124-208M344-52v-180h228v-324H460v-68q28-20-4-24h-76v92H264v520l-52 8 28 88q16 16 20-12l244-64 20 56 80-36q-40-112-108-204l-68 28 48 92-132 28M124-748v484q0 152-72 288l68 68q84-144 84-356v-408h740v-76H556v-64q28-20-4-24h-76v88H124" fill-rule="evenodd" id="d"/><path d="M436 60h92v-704h408v-88H76v88h360V60m144-580l-48 68q164 104 280 220l64-72Q760-420 580-520" fill-rule="evenodd" id="e"/><path d="M652-152q4 60-24 92-24 28-80 28t-84-28q-16-16-16-48 0-20 20-40 24-24 80-24 36 0 104 20M132 24l92-16q-20-92-20-244 0-336 44-476 32-16 4-28l-88-16q-48 196-48 520 0 148 16 260m604-536l208-8v-84l-216 12q-4-80-8-164 36-24-8-32h-84q12 88 16 200l-288 16v84l296-20q8 140 0 276-52-12-104-12-96 0-144 48-32 32-32 88 0 64 40 104 48 48 140 48T692-4q44-44 44-116Q836-72 920-8l48-76q-112-80-232-124 8-152 0-304" fill-rule="evenodd" id="f"/><path d="M352-332q28-4 12-20l-100-20Q256-96 76 8l52 80q124-72 176-212Q444 52 600 52h356l20-88H568v-192h280v-76H568v-128h396v-76H560v-128h288v-76H560v-96q28-20-4-24h-76v120H184v76h296v128H72v76h416v372q-96-52-156-148 16-76 20-124" fill-rule="evenodd" id="g"/><path d="M436-408q100-32 176-32 80 0 112 32 56 56 56 124 0 84-44 128-80 80-332 84l32 84q256-8 364-116 60-60 60-180 0-100-68-168-64-64-168-64t-220 36q-104 32-232 72l40 84q128-52 224-84" fill-rule="evenodd" id="h"/><path d="M408-28l28 88q296 4 384-84 56-56 56-144 0-92-56-148-64-64-200-64-116 0-260 72 28-116 56-236 124-12 284-32l-16-84q-92 20-252 36 16-64 28-128 40-20-8-32l-76-20q-8 100-28 188-132 12-224 12l12 80q88 0 196-12-28 140-72 280-20 28-44 52l72 56q112-92 160-116 80-40 184-40 80 0 116 36 40 40 40 88 0 56-36 92-68 68-344 60" fill-rule="evenodd" id="i"/><path d="M380-592h-76q4 88 28 200l-176 68 44 72 148-64q44 176 140 388l76-36q-96-200-140-384l168-64q44-16 96-16 56 0 88 32 36 36 36 84 0 44-24 68t-76 24q-52 0-128-44l-28 68q60 48 164 48 80 0 128-48 40-40 40-120 0-72-44-116-64-64-164-64-20 0-40 4l8-100q36-24-8-32h-68l-4 148-164 56q-16-72-16-140 36-24-8-32" fill-rule="evenodd" id="j"/><path d="M860-860l-52 40q60 48 132 128l52-44q-68-80-132-124m-92 60l-52 40q68 56 140 132l52-40q-72-80-140-132m28 184l-52-52-44 16H432q24-44 40-92 48-16 16-32l-96-40q-64 236-268 448l76 52q112-112 188-248h292q-12 96-72 220-80-48-204-104l-48 72q96 52 196 116Q448-96 208 4l92 68Q516-36 632-204l88 64 60-88-96-64q64-132 96-292 32-12 16-32" fill-rule="evenodd" id="k"/><path d="M136-68l84 76q204-124 352-324 72 48 152 116l52-92q-60-48-156-112 56-108 108-308 32-16 4-24l-96-32q-40 196-96 312-112-64-200-104l-48 88q84 36 196 104Q380-200 136-68" fill-rule="evenodd" id="l"/><path d="M212 52h88v-88h-88v88m-12-832l24 600h64l24-600H200" fill-rule="evenodd" id="m"/><path d="M824-660l52-40q-56-80-112-128l-44 44q40 32 104 124m60-204l-48 44q56 52 116 132l52-44q-60-76-120-132M508-620l-32-156q24-32-12-28l-84 12 40 184-264 28 16 84 272-32 40 188-400 44 12 84 408-48 76 332 88-20-76-324 372-40-16-84-376 44-40-188 284-36-16-84-292 40" fill-rule="evenodd" id="n"/><path d="M716-516v352H160v88h556v44h92v-572H160v88h556" fill-rule="evenodd" id="o"/><path d="M268-660l84-44q-36-64-80-112l-76 44q36 40 72 112m208 292v104H60v76h416v164q0 16-16 16h-92l16 88h108q64 0 64-64v-204h416v-76H556v-40q112-48 232-124 32 0 20-16l-68-64-12 12H236v64h424l-116 68-68-4m28-460l-76 44q40 52 72 124l84-44q-20-48-80-124m244 172l68-112q28-4 12-24l-84-40-84 176H80v232h80v-156h704v144h80v-220H748" fill-rule="evenodd" id="p"/><path d="M764-548l-44 72q112 68 176 128l56-72q-60-56-188-128m-328-40h500v-76H708v-144q28-20-4-24h-76v168H436v76m188 108l-60-60q-80 88-184 136l52 76q112-68 176-132 48 4 16-20m44 392q68 72 252 156l48-88Q800-88 716-156q52-72 88-160 40-12 16-24l-84-44q-52 140-76 168-36-44-88-136l-64 44q52 92 104 160Q524-60 352 4l36 88Q596-4 668-88M276 88v-412q44 48 84 104l56-76q-44-56-140-124v-140h104v-76H276v-172q28-20-4-24h-76v196H52v76h140Q160-392 32-232l56 72q72-96 108-188V88h80" fill-rule="evenodd" id="q"/><path d="M332-712q28-16 4-24l-84-20Q224-528 80-388l60 64q96-96 144-220h208v184H224v76h268v236H76v76h876v-76H572v-236h280v-76H572v-184h328v-76H572v-176q28-20-4-24h-76v200H308q20-72 24-92" fill-rule="evenodd" id="r"/><path d="M972-20H804q-68 0-116-12v-160h220v-76H688v-140h272v-76H676v-132h220v-76H676v-116q28-20-4-24h-76v140H388v76h208v132H332v76h276v348q-64-44-120-124 12-60 16-124 28-4 12-20l-92-28Q420-64 284 24l60 76q92-76 124-200Q580 68 812 68h148l12-88M324-744q32 0 8-20l-60-56Q188-656 60-576l56 76q120-84 208-244m20 188q32 0 12-20l-68-56Q204-424 44-324l48 84q56-44 100-92V92h80v-524q48-68 72-124" fill-rule="evenodd" id="s"/><path d="M832 80l84-52q-72-96-264-240l-72 48q64 48 116 96L368-44l120-200h432v-88H100v88h288L276-40l-164 8 28 100q16 12 36-8L756-4q44 40 76 84m88-508l40-96q-280-72-408-264 28-20-4-24l-84-12Q328-572 48-496l36 96q96-28 204-104v80h452v-84q112 64 180 80m-188-84H300q116-84 204-228 88 152 228 228" fill-rule="evenodd" id="t"/><path d="M740-364v-76H548v-116h224v-76H252v76h216v116H288v76h180v156H228v76h564v-76H548v-156h192m-108 8l-48 48q56 44 96 96l52-52q-48-52-100-92M100-784V88h80V36h664v36h80v-856H100m744 76v668H180v-668h664" fill-rule="evenodd" id="w"/><path d="M524 12l12 76h96q60 0 60-60v-268h212v-76H396v76h216V-4q0 16-16 16h-72m-96-644l68 40-24 40-68-48 24-32m36-64h76l-28 64-64-36 16-28m388 8l-60 84q-44-68-88-216l-72 16q56 204 140 308H528q44-76 100-220l12-12-60-48-8 16h-84l16-36q32-4 4-20l-64-20q-56 160-156 264l52 52 36-40 68 48q-56 80-132 140l56 52q56-32 124-128v28h312v-32q64 72 128 120l68-64q-108-84-160-148l108-152 16-4-48-64-12 12H772v64h80m36 724l72-56q-48-96-152-168l-60 56q88 76 140 168M536-132q36-8 4-24l-68-36Q416-88 324-16l64 60q92-76 148-176m-268-88q0 88-48 88h-40l20 88h48q100 0 100-176 0-112-100-252l88-272 12-8-52-56-12 12H72V92h80v-812h96l-64 260q84 156 84 240" fill-rule="evenodd" id="x"/><path d="M536-456l-44 72q68 32 132 84l48-76q-72-52-136-80m20-220l-40 72q40 16 132 80l48-76q-56-44-140-76m192 436l-304 52 12 84 292-60V88h80v-264l132-24-8-80-124 24v-524q28-20-4-24h-76v564M320 88v-440q68 52 108 108l48-80q-60-48-156-104v-72h160v-76H320v-136q48-8 104-20 36 8 28-16l-36-68q-156 48-332 68l16 72q64-8 140-20v120H80v76h160Q216-368 48-200l60 64q84-92 132-188V88h80" fill-rule="evenodd" id="y"/><path d="M732-248q-76-132-88-288h172q-28 180-84 288M336-544h-28v-88h96q-24 36-68 88m384-232q36-16 4-24l-76-24q-52 284-156 432l48 64 60-96q12 104 88 244Q608-68 432 12l48 80Q652 8 740-112q68 96 180 168l52-72Q848-84 784-180q84-168 104-356h68v-76H676q16-52 44-164M112-108q88-4 172-12v108q0 16-16 16h-80l16 76h96q52 0 52-64v-144q68-8 208-28v-68q-124 20-208 28v-40l128-92q32 8 12-24l-60-60-12 20H288q52-44 92-88h152v-64H428q92-116 128-196 36-8 4-24l-60-40q-36 80-80 148v-40H308v-108q28-20-4-24h-64v132H104v64h136v88H56v64h224Q168-376 36-320l40 76q72-32 140-84h164l-68 68-28-4v72l-224 8 24 80q12 40 28-4" fill-rule="evenodd" id="z"/><path d="M552-832h-88v100H88v212h80v-136h688v136h80v-212H556v-68q36-24-4-32m160 440l-316 8 96-128h164l-52 48q60 36 108 72m140 112l60-60q-112-84-244-172h148v-64H208v64h188l-88 128H160l20 84q12 28 28-4l264-8v108H160v76h312v116H52v76h916v-76H552v-116h316v-76H552v-112l236-12q32 20 64 48" fill-rule="evenodd" id="A"/><path d="M740-324l60-84Q680-508 520-564l8-32h308v572q0 16-16 16h-80l20 76h100q56 0 56-56v-684H540l12-112q24-20 0-24l-84-8-8 144H112V68h80v-664h256q-32 152-228 220l36 80q176-68 244-208 128 72 240 180M720-56l64-80Q676-236 536-292l24-76q28-16 4-24l-80-12q-40 208-260 292l40 84q148-56 240-200 104 56 216 172" fill-rule="evenodd" id="K"/><path d="M492-156q4 80-32 116-32 32-80 32-60 0-88-28-20-20-20-44 0-32 20-52 32-32 112-32 44 0 88 8m84-60v-144l260-8v-80l-260 8v-144l328-12v-80l-328 12v-116q36-24-8-32h-72v156l-376 12v80l376-12v140l-304 8v80l304-8v124q-68-4-100-4-108 0-160 52-40 40-40 96 0 64 36 100 52 52 136 52 108 0 156-48 52-52 52-156 128 32 276 124l44-88q-156-76-320-112" fill-rule="evenodd" id="L"/><path d="M476-272l28 172Q524 32 648 32q100 0 180-80 72-72 124-300l-88-44Q820-168 744-92q-36 36-88 36-56 0-64-52l-24-152q-8-84-36-112t-76-28q-52 0-120 28 116-216 200-340 40-4 12-32l-88-48Q232-320 68-64l92 48q44-112 88-184 72-120 172-120 48 0 56 48" fill-rule="evenodd" id="M"/><path d="M440-372q60-20 132-20-28 132-92 220-36-96-40-200m-80 40q8 112 48 232-76 76-136 76-24 0-32-8-24-24-24-56 0-116 72-188 40-40 72-56M588 4l52 88Q808 64 880-8q68-68 68-180 0-120-76-196-68-68-192-80l4-28q28-24-8-32l-76-12-12 64q-100 4-156 24l8-128q180-8 348-28l-16-88q-136 24-328 36 4-68 12-140 32-24-8-32h-76q-8 84-12 176l-188 4 16 88 168-8-8 152q-60 32-116 88-92 92-92 228 0 76 44 120 40 40 88 40 72 0 176-88l20 44 76-56-24-52q80-84 144-292 92 8 144 60 44 44 44 132 0 80-44 124-56 56-220 72" fill-rule="evenodd" id="N"/><path d="M100-292l68 80q188-88 328-196V60h92v-544q120-104 196-204 60-12 28-36l-76-64Q520-468 100-292" fill-rule="evenodd" id="O"/><path d="M740-504v164q0 160-24 224-16 40-76 40-44 0-104-8l12 100h96q116 0 152-80t36-276v-248l-316 12v-192q36-24-8-32h-84v224l-296 8 8 80 284-8Q404-212 128-28l68 68q292-196 316-536l228-8" fill-rule="evenodd" id="P"/><g id="S" transform="translate(56.45 120.15)"><use height="98.8" transform="translate(-56.45 -120.15)" width="57" xlink:href="#a"/><use height="23" transform="matrix(-.7194 .3787 0 1 -5.26 -111.31)" width="62.55" xlink:href="#b"/><use height="8.6" transform="matrix(-.5115 .2613 0 1 -9.331 -57.406)" width="48" xlink:href="#c"/></g><g id="a"><path d="M-17-62l-20 10 20-10m-29 7.45q0-.5-.4-.7l-.85.05-.9.8-.35 1.05.05.2.3.5.2.05.7-.1.6-.45.1-.15.15-.2q.4-.55.4-1.05 0 .5-.4 1.05l-.15.2-.1.15-.6.45-.7.1-.2-.05-.3-.5-.05-.2.35-1.05.9-.8.85-.05q.4.2.4.7m0-11l-3 8.45 8-8.9-3 8.5q1.45 1.75 1.1 4.35-.2 1.65-1.1 3.65l3 10.5-3-10.5q.9-2 1.1-3.65.35-2.6-1.1-4.35l3-8.5-8 8.9 3-8.45-6 7.85v-32.4l50-24.95.05 64.95-50.05 25v-32.6l6-7.85m-5 19.45l2.25-1.1-1-3.5-1.25.6 1.25-.6 1 3.5v.75-.75L-51-46.1m1.6 5.65q-1.4-1.4 0-2.9-1.4 1.5 0 2.9l2.4-1.2-2.4 1.2m2.4-4.1l-2.4 1.2 2.4-1.2m35-14.6L-34-48.4l22-10.75M-23-64l-18 9 18-9" fill="#fff" fill-rule="evenodd" transform="translate(56.45 120.15)"/><path d="M-.1-118.5l-6.85 3.4-1.8.9-42.95 21.5-2.1 1 2.1-1 42.95-21.5 1.8-.9 6.85-3.4.1.05.05 69.6-7 3.5-44.75 22.4-2.15 1.05-.1-.05L-54-91.6l.05 69.65-2-1v-69.8l2.25-1.2 44.75-22.4 6.6-3.3 2.25 1.15m-53.85 26.75l-2-1 2 1-.05.15.2-.1-.15-.05M-52-57.7v32.6l50.05-25-.05-64.95-50 24.95v32.4" fill="#cfcaa5" fill-rule="evenodd" transform="translate(56.45 120.15)"/><path d="M-53.8-91.7l2.1-1 42.95-21.5 1.8-.9 6.85-3.4-2.25-1.15-6.6 3.3-44.75 22.4-2.25 1.2 2 1 .15.05-.2.1.05 69.65.1.05 2.15-1.05 44.75-22.4 7-3.5-.05-69.6-.1-.05M-37-52l20-10m-29 7.45q0 .5-.4 1.05l-.15.2-.1.15-.6.45-.7.1-.2-.05-.3-.5-.05-.2.35-1.05.9-.8.85-.05q.4.2.4.7m0-11l-6 7.85v32.6l50.05-25-.05-64.95-50 24.95v32.4m1 7.6l1.25-.6 1 3.5v.75m0-.75L-51-46.1m1.6 5.65l2.4-1.2m-2.4-1.7l2.4-1.2m-6.95 22.6l-2-1v-69.8m2.1 70.85l-.1.05v-.1M-41-55l18-9" fill="none" stroke="#000" stroke-linecap="round" stroke-linejoin="round" transform="translate(56.45 120.15)"/><path d="M-41-39l-3-10.5q.9-2 1.1-3.65.35-2.6-1.1-4.35l3-8.5-8 8.9 3-8.45m-3.4 22.2q-1.4 1.5 0 2.9M-34-48.4l22-10.75" fill="none" stroke="#000" stroke-linecap="round" stroke-linejoin="round" transform="translate(56.45 120.15)"/></g><g id="b"><g transform="translate(-.5 .55)"><use height="23" transform="translate(0 9) scale(.0098)" width="62.55" xlink:href="#d"/><use height="23" transform="translate(10 9) scale(.0098)" width="62.55" xlink:href="#e"/><use height="23" transform="translate(20 9) scale(.0098)" width="62.55" xlink:href="#f"/></g><g transform="translate(-.5 .55)"><use height="23" transform="translate(0 21) scale(.0098)" width="62.55" xlink:href="#g"/><use height="23" transform="translate(10 21) scale(.0098)" width="62.55" xlink:href="#h"/><use height="23" transform="translate(20 21) scale(.0098)" width="62.55" xlink:href="#i"/><use height="23" transform="translate(30 21) scale(.0098)" width="62.55" xlink:href="#j"/><use height="23" transform="translate(40 21) scale(.0098)" width="62.55" xlink:href="#k"/><use height="23" transform="translate(50 21) scale(.0098)" width="62.55" xlink:href="#l"/></g><use height="23" transform="translate(59.5 21.55) scale(.0098)" width="62.55" xlink:href="#m"/></g><g transform="translate(-.55 .9)" id="c"><use height="8.6" transform="translate(0 6) scale(.0068)" width="48" xlink:href="#n"/><use height="8.6" transform="translate(7 6) scale(.0068)" width="48" xlink:href="#o"/><use height="8.6" transform="translate(14 6) scale(.0068)" width="48" xlink:href="#p"/><use height="8.6" transform="translate(21 6) scale(.0068)" width="48" xlink:href="#q"/><use height="8.6" transform="translate(28 6) scale(.0068)" width="48" xlink:href="#r"/><use height="8.6" transform="translate(35 6) scale(.0068)" width="48" xlink:href="#s"/><use height="8.6" transform="translate(42 6) scale(.0068)" width="48" xlink:href="#t"/></g><g id="T" transform="translate(23.8 55.45)"><use height="47.95" transform="translate(-23.8 -55.45)" width="51" xlink:href="#u"/><use height="10.15" transform="matrix(1.0427 -.5148 0 1.5075 -19.712 -29.268)" width="43.6" xlink:href="#v"/></g><g id="u"><path d="M26.7-54.95v22L-23.3-8v-22l50-24.95" fill="#06f" fill-rule="evenodd" transform="translate(23.8 55.45)"/><path d="M26.7-54.95L-23.3-30v22l50-24.95z" fill="none" stroke="#000" stroke-linecap="round" stroke-linejoin="round" transform="translate(23.8 55.45)"/></g><g fill="#fff" transform="translate(-.9 .6)" id="v"><use height="10.15" transform="translate(0 8) scale(.0088)" width="43.6" xlink:href="#w"/><use height="10.15" transform="translate(9 8) scale(.0088)" width="43.6" xlink:href="#x"/><use height="10.15" transform="translate(18 8) scale(.0088)" width="43.6" xlink:href="#y"/><use height="10.15" transform="translate(27 8) scale(.0088)" width="43.6" xlink:href="#z"/><use height="10.15" transform="translate(36 8) scale(.0088)" width="43.6" xlink:href="#A"/></g><g id="U" transform="translate(23.8 42.1)"><use height="34.6" transform="translate(-23.8 -42.1)" width="24.3" xlink:href="#B"/><use height="10.1" transform="matrix(1.0427 -.5148 0 1.5075 -20.337 -28.884)" width="17.2" xlink:href="#C"/></g><g id="B"><path d="M-23.3-30L0-41.6v21.95L-23.3-8v-22" fill="#06f" fill-rule="evenodd" transform="translate(23.8 42.1)"/><path d="M-23.3-30v22L0-19.65V-41.6z" fill="none" stroke="#000" stroke-linecap="round" stroke-linejoin="round" transform="translate(23.8 42.1)"/></g><g fill="#fff" transform="translate(-.3 .55)" id="C"><use height="10.1" transform="translate(0 8) scale(.0088)" width="17.2" xlink:href="#z"/><use height="10.1" transform="translate(9 8) scale(.0088)" width="17.2" xlink:href="#A"/></g><g id="D"><path d="M28.25-71.9v-8.25l3-1.45v8.3l-2.95 1.4h-.05M-38-51.8l2.95-1.45v8.3L-38-43.5v-8.3" fill="#bebc81" fill-rule="evenodd" transform="translate(41.75 138.85)"/><path d="M34.75-136.9l2.9-1.45v99.9l-1.35-.7-.45-.2q-.55-.25-1.05-.55l-.05-97" fill="url(#E)" fill-rule="evenodd" transform="translate(41.75 138.85)"/><path d="M2-103.45l27.25-13.5v24.85L2-78.6v-24.85" fill="url(#F)" fill-rule="evenodd" transform="translate(41.75 138.85)"/><path d="M34.75-136.9l.05 97-36.55 18v2.85L-41.25.45v-99.8l39.5-19.55 36.5-18M2-103.45v24.85l27.25-13.5v-24.85L2-103.45M28.3-71.9l2.95-1.4v-8.3l-3 1.45v8.3l.05-.05M-38-51.8v8.3l2.95-1.45v-8.3L-38-51.8m2.5-7.55l27.3-13.5V-97.7l-27.3 13.5v24.85M-1.75-21.9v-97 97" fill="url(#G)" fill-rule="evenodd" transform="translate(41.75 138.85)"/><path d="M34.8-39.9q.5.3 1.05.55l.45.25-38.05 18.75v-1.55l36.55-18" fill="url(#H)" fill-rule="evenodd" transform="translate(41.75 138.85)"/><path d="M36.3-39.15l1.35.7L-.4-19.7l-1.35.65v-1.3L36.3-39.1v-.05" fill="url(#I)" fill-rule="evenodd" transform="translate(41.75 138.85)"/><path d="M-35.5-59.35V-84.2l27.3-13.5v24.85l-27.3 13.5" fill="url(#J)" fill-rule="evenodd" transform="translate(41.75 138.85)"/><path d="M37.65-38.45v-99.9l-2.9 1.45.05 97q.5.3 1.05.55l.45.2 1.35.7L-.4-19.7l-1.35.65-39.5 19.5m0-2.75v-97.05l39.5-19.55 36.5-18M2-103.45v24.85l27.25-13.5v-24.85L2-103.45M28.25-71.9v-8.25l3-1.45v8.3l-2.95 1.4-.05.05v-.05m-30 51.55v1.3M36.3-39.1l-.45-.25M-38-51.8v8.3l2.95-1.45v-8.3L-38-51.8m2.5-7.55V-84.2l27.3-13.5v24.85l-27.3 13.5M34.8-39.9l-36.55 18v1.55m0-98.55v97M-41.25.45V-2.3m69.5-69.6h.05" fill="none" stroke="#000" stroke-linecap="round" stroke-linejoin="round" transform="translate(41.75 138.85)"/><path d="M78.05 99.7v.05L40 118.5" fill="none" stroke="#000" stroke-linecap="round" stroke-linejoin="round" stroke-width=".05"/></g><g id="Q"><path d="M158.15-73.85l.85.4v.05q-.4-.25-.85-.45M13-11.5l-1.35-.7 1.35.7m29.75-4.9v-3L45-18.25 67-7.3l12 5.95 4 2 4.2 2.1 4.3 2.15 1.45.7 9.3 4.65 7.6 3.8 6 2.95v2.95l-5.95-3-3.7-1.8-2.75-1.35 1.5.7 1.25.65-1.25-.65-1.5-.7-10.5-5.2-.25-.1-.2-.1-1.5-.75-12-6-22.75-11.3L45-15.25l-2.25-1.15M100-4.3l1.85.9.15.1-.25-.1-1.75-.9m2 1l1.55.75L102-3.3M91.5 4.9l9.65 4.8 1.1.55-1.1-.55-9.65-4.8" fill="#d6d6d6" fill-rule="evenodd" transform="translate(15.5 160.05)"/><path d="M79 7.9L58.5-2.3l-2.25-1.15v-6.2 6.2L49.5-.1l-6.75 3.35V-16.4L45-15.25l11.25 5.6L79 1.65V7.9 1.65l12 6 1.5.75.2.1.25.1 10.5 5.2 2.75 1.35 3.7 1.8 5.95 3v6.3L92.5 14.6V8.4v6.2l-6.75 3.35L79 21.3V7.9m-9-22.3v4l-2-1v-4l2 1m9 13.05l4-1.95 1.95 1 .3.15 1.7.85L89-.3l1.5.75 1.95.95 1.75.9 1.8.9 1.95.95 2 1 2 1 1.55.8 1.5.7 1.5.75 1.5.75 1.8.9 1.6.8 1.6.8 1.5.75 1.35.65V17l-6-2.95-7.6-3.8-9.3-4.65-1.45-.7-4.3-2.15L83 .65l-4-2M92.45-8l.05-.05 1.7.9L92.45-8" fill="#999" fill-rule="evenodd" transform="translate(15.5 160.05)"/><path d="M3.15-150.5v-.45l5.85 2.9 22.85 11.35 10.9 5.4 107.9 53.7 1.75.85v.05l5.75 2.85q.45.2.85.45V61.25l-10.1-5.05v-.05l-3.65-1.8L142 52.7l-23.9-11.9-2.25-1.15V2.3v1.3l-.6-.3-.7-.35 1.3-.65v-6.4l-.35-.15-1.45-.7-1.6-.75-1.45-.7-1.55-.75-2.05-.95-2-.95-2-1-1.85-.85-1.7-.85-1.95-.9-1.55-.75-2-.95-2-.95-1.75-1.1.3-.15.05-6.85L79-29.35v-7.1 7.1l-5.25 2.6-6.7 3.35H67v2.7l-8.5-4.25-2.25-1.15-6.75 3.35-6.75 3.35L36-16.05v16l-4.15-2.1-4.7-2.35v.2l-4-2v.15l-1.2-.6-.8-.4Q3.05-16.05-15-25v-134.55l18.15 9.05M13-11.5l-1.35-.7 1.35.7 1.15.55 7 3.5 2 1 4 1.95-4-1.95-2-1-7-3.5L13-11.5m-1.35-.7l-5.6-2.65-2.9-1.35 2.9 1.35 5.6 2.65M36-44.55v28.5-28.5M21.15-7.15l.4.2.4.2-.4-.2-.4-.2m2 .85l-17.1-8.55 17.1 8.55m-20-9.9l18.4 9.25-18.4-9.25m112.7-1.3v13.4-13.4m-59.6-27.9v19.3-19.3m96.15-31.3l-1.75-.9 1.75.9M42.75-19.4v-111.9 111.9" fill="#bfbfbf" fill-rule="evenodd" transform="translate(15.5 160.05)"/><path d="M83-3.3v-9.4h.05H83h.05l1.95 1-.05 9.4-1.95-1m32.85 6.9v9.45l-1.35-.65.05-9.45.7.35.6.3" fill="#ff0" fill-rule="evenodd" transform="translate(15.5 160.05)"/><path d="M85-11.7h.05H85h.05l1.95 1-.05 9.4-1.7-.85-.3-.15.05-9.4m20 19.35V-1.8l1.55.8-.05 9.4-1.5-.75" fill="#00f" fill-rule="evenodd" transform="translate(15.5 160.05)"/><path d="M89-9.75V-.3l-2.05-1 .05-9.4 2 .95m19 18.9V-.3l1.8.9v9.45l-1.8-.9m3.4-7.75l1.6.8v9.45l-1.6-.8V1.4" fill="#0f0" fill-rule="evenodd" transform="translate(15.5 160.05)"/><path d="M89-9.75l1.55.8-.05 9.4L89-.3v-9.45M113 2.2l1.55.75-.05 9.45-1.5-.75V2.2m-1.6-.8v9.45l-1.6-.8V.6l1.6.8" fill="red" fill-rule="evenodd" transform="translate(15.5 160.05)"/><path d="M90.5.45l.05-9.4.3.15 1.6.8v9.4L90.5.45" fill="#0ff" fill-rule="evenodd" transform="translate(15.5 160.05)"/><path d="M94.2-7.15V2.3l-1.75-.9V-8l1.75.85" fill="#0cf" fill-rule="evenodd" transform="translate(15.5 160.05)"/><path d="M94.2-7.15l.55.25.15.1 1.1.55V3.2l-1.8-.9v-9.45" fill="#c96" fill-rule="evenodd" transform="translate(15.5 160.05)"/><path d="M96 3.2v-9.45l2 1-.05 9.4L96 3.2" fill="#f09" fill-rule="evenodd" transform="translate(15.5 160.05)"/><path d="M90.6-16.4l1.75 1.1 2 .95 2 .95 1.55.75 1.95.9 1.7.85 1.85.85 2 1 2 .95 2.05.95 1.55.75 1.45.7 1.6.75 1.45.7.35.15v6.4l-1.3.65L113 2.2l2.85-1.4L113 2.2l-1.6-.8-1.6-.8-1.8-.9-1.45-.7-1.55-.8-1.45-.7v-.05L102-3.3l-.15-.1-1.85-.9-.4-.2-1.6-.75 1.6.75.4.2-.05 9.45-2-1 .05-9.4-2-1-1.1-.55-.15-.1-.55-.25-1.7-.9-.05.05-1.6-.8-.3-.15-1.55-.8-2-.95-1.95-1H85l-1.95-1 7.55-3.7m-23.55-7L79-17.45v16.1L67-7.3v-16.1h.05m2.95 9l-2-1v4l2 1v-4m22.35-.9l-7.3 3.6 7.3-3.6m5.55 2.65l-7.35 3.7 7.35-3.7m1.95.9l-7.35 3.7 7.35-3.7m-5.5-2.6L87-10.7l7.35-3.65m9.05 4.3L96-6.25l7.4-3.8m-1.85-.85L94.2-7.15l7.35-3.75m7.9 3.75L102-3.3l7.45-3.85M89-9.75l7.35-3.65L89-9.75m22 3.35l-7.45 3.9L111-6.4m3.05 1.45L106.55-1l7.5-3.95m1.8 2.55l-6.05 3 6.05-3M105.4-9.05L98-5.25l7.4-3.8M100-4.3l7.4-3.8-7.4 3.8m12.45-1.4L105-1.8l7.45-3.9m3.05 1.45L108-.3l7.5-3.95m-4.1 5.65l4.45-2.2-4.45 2.2" fill="#fff" fill-rule="evenodd" transform="translate(15.5 160.05)"/><path d="M99.95 5.15L100-4.3l1.75.9.25.1-.05 9.45-2-1" fill="#963" fill-rule="evenodd" transform="translate(15.5 160.05)"/><path d="M103.55-2.55v.05l-.05 9.45-1.55-.8.05-9.45 1.55.75" fill="#c63" fill-rule="evenodd" transform="translate(15.5 160.05)"/><path d="M103.55-2.5l1.45.7v9.45l-1.5-.7.05-9.45" fill="#93c" fill-rule="evenodd" transform="translate(15.5 160.05)"/><path d="M106.55-1l1.45.7v9.45l-1.5-.75.05-9.4" fill="#96c" fill-rule="evenodd" transform="translate(15.5 160.05)"/><path d="M42.75-19.4l6.75-3.35 6.75-3.35 2.25 1.15L67-20.7v13.4L45-18.25l-2.25-1.15" fill="#9c3" fill-rule="evenodd" transform="translate(15.5 160.05)"/><path d="M90.95-23.4l-.05 6.85-.3.15-7.55 3.7H83v9.4l-4 1.95v-16.1l6.7-3.35 5.25-2.6" fill="#bcbcbc" fill-rule="evenodd" transform="translate(15.5 160.05)"/><path d="M79-29.35l11.95 5.95-5.25 2.6-6.7 3.35-11.95-5.95 6.7-3.35 5.25-2.6" fill="#d0d0d0" fill-rule="evenodd" transform="translate(15.5 160.05)"/><path d="M115.85 39.65l-6-3-16.9-8.4L79 21.3 45 4.4l-2.25-1.15-5.05 2.5-1.7.85v-22.65l6.75-3.35v3L36-13.05l6.75-3.35V3.25L49.5-.1l6.75-3.35L58.5-2.3 79 7.9v13.4l6.75-3.35 6.75-3.35 23.35 11.65v13.4M36 6.6l.4-.2-.4.2.4-.2.6-.3.7-.35-.7.35-.6.3-.4.2" fill="#ccc" fill-rule="evenodd" transform="translate(15.5 160.05)"/><path d="M42.75-131.3l107.9 53.7 1.75.85m0 .05l5.75 2.85.85.4V61.25m-.85-135.1q.45.2.85.45m-8.35-4.2l1.75.9" fill="none" stroke="#616161" stroke-linecap="round" stroke-linejoin="round" transform="translate(15.5 160.05)"/><path d="M23.15-6.15l-1.2-.6-.4-.2-.4-.2Q3.05-16.05-15-25v-134.55l18.15 9.05M21.55-6.95L3.15-16.2" fill="none" stroke="#000" stroke-linecap="round" stroke-linejoin="round" transform="translate(15.5 160.05)"/><path d="M36 6.6V-.05m0-16v16m0-16v-28.5" fill="none" stroke="#999" stroke-linecap="round" stroke-linejoin="round" transform="translate(15.5 160.05)"/><path d="M3.15-150.95l5.85 2.9 22.85 11.35 10.9 5.4v111.9L36-16.05m123 77.3l-10.1-5.05m0-.05l-3.65-1.8-1-.5L142 52.7l-23.9-11.9-2.25-1.15-6-3-16.9-8.4L79 21.3 45 4.4l-2.25-1.15-5.05 2.5M36-.05l-4.15-2.1-4.7-2.35m0 .2l-4-2m-1.2-.45l-.8-.4M13-11.5l-1.35-.7 1.35.7 1.15.55 7 3.5 2 1 4 1.95m-24-11.7l2.9 1.35 5.6 2.65M36-13.05l6.75-3.35v-3L45-18.25 67-7.3v-16.1h.05H67M6.05-14.85l17.1 8.55M79-36.45v7.1l11.95 5.95-.05 6.85-.3.15 1.75 1.1 2 .95 2 .95 1.55.75 1.95.9 1.7.85 1.85.85 2 1 2 .95 2.05.95 1.55.75 1.45.7 1.6.75 1.45.7.35.15v-13.4M79-29.35l-5.25 2.6-6.7 3.35L79-17.45l6.7-3.35 5.25-2.6m-34.7-2.7v-19.3M67-20.7l-8.5-4.25-2.25-1.15-6.75 3.35-6.75 3.35m13.5 15.95L58.5-2.3 79 7.9V1.65L56.25-9.65v6.2L49.5-.1l-6.75 3.35V-16.4L45-15.25l11.25 5.6M70-14.4v4l-2-1v-4l2 1m9 13.05v-16.1M67-7.3l12 5.95 4-1.95v-9.4h.05l7.55-3.7M83-12.7h.05l1.95 1h.05l7.3-3.6m-1.8 6.35L89-9.75V-.3l1.5.75.05-9.4 7.35-3.7m-7.35 3.7l.3.15 1.6.8.05-.05 7.35-3.7M89-9.75l-2-.95-.05 9.4L89-.3m-4-11.4h.05l1.95 1 7.35-3.65M85-11.7l-.05 9.4.3.15 1.7.85m-2-1L83-3.3m13-2.95l-1.1-.55-.15-.1-.55-.25V2.3l1.8.9v-9.45l7.4-3.8m-9.2 2.9L92.45-8v9.4l1.75.9M92.5-8.05l1.7.9 7.35-3.75M100-4.3l-.4-.2-1.6-.75-.05 9.4 2 1L100-4.3l1.85.9.15.1 7.45-3.85M98-5.25l-2-1m.35-7.15L89-9.75m11 5.45l1.75.9.25.1 1.55.75v.05L111-6.4m-6 4.6l-1.45-.7-.05 9.45 1.5.7V-1.8l1.55.8 7.5-3.95M102-3.3l1.55.75M108-.3l-1.45-.7-.05 9.4 1.5.75V-.3l1.8.9 6.05-3v-1.7m0 1.7v42.05M108-.3l7.5-3.95M105-1.8l7.45-3.9m-5.05-2.4L100-4.3m-2-.95l7.4-3.8m9.15 12l1.3-.65M113 2.2l1.55.75.7.35.6.3m0-2.8L113 2.2l-1.6-.8v9.45l1.6.8V2.2M109.8.6v9.45l1.6.8m-7.9-3.9l-1.55-.8-2-1m6.55 3.25l-1.5-.75m4.8 2.4l-1.8-.9m-1.8 6l3.7 1.8 5.95 3m-12.4-6.15l2.75 1.35-1.25-.65-1.5-.7-10.5-5.2-.25-.1-.2-.1v6.2l23.35 11.65m0-13.2l-1.35-.65-1.5-.75M111.4 1.4l-1.6-.8m4.75 2.35l-.05 9.45M79-1.35l4 2 4.2 2.1 4.3 2.15 1.45.7 9.3 4.65 7.6 3.8 6 2.95M97.95 4.15L96 3.2m6.25 7.05l-1.1-.55-9.65-4.8M79 21.3l6.75-3.35 6.75-3.35M79 1.65l12 6 1.5.75m-.05-7L90.5.45m54.75 53.9L142 52.7M79 7.9v13.4M36 6.6l.4-.2.6-.3.7-.35m-1.3.65l-.4.2m65.95-.45L102-3.3m13.85 2.5l-4.45 2.2" fill="none" stroke="#000" stroke-linecap="round" stroke-linejoin="round" transform="translate(15.5 160.05)"/></g><g id="R"><g transform="translate(-.15 .9)"><use height="10.3" transform="translate(0 1) scale(.0015)" width="5.75" xlink:href="#K"/><use height="10.3" transform="translate(1.5 1) scale(.0015)" width="5.75" xlink:href="#L"/><use height="10.3" transform="translate(3 1) scale(.0015)" width="5.75" xlink:href="#M"/></g><g transform="translate(-.15 .9)"><use height="10.3" transform="translate(0 5) scale(.0015)" width="5.75" xlink:href="#N"/><use height="10.3" transform="translate(1.5 5) scale(.0015)" width="5.75" xlink:href="#M"/><use height="10.3" transform="translate(3 5) scale(.0015)" width="5.75" xlink:href="#L"/><use height="10.3" transform="translate(4.5 5) scale(.0015)" width="5.75" xlink:href="#M"/></g><g transform="translate(-.15 .9)"><use height="10.3" transform="translate(0 8) scale(.0015)" width="5.75" xlink:href="#O"/><use height="10.3" transform="translate(1.5 8) scale(.0015)" width="5.75" xlink:href="#P"/><use height="10.3" transform="translate(3 8) scale(.0015)" width="5.75" xlink:href="#L"/><use height="10.3" transform="translate(4.5 8) scale(.0015)" width="5.75" xlink:href="#M"/></g></g><radialGradient cx="0" cy="0" gradientTransform="matrix(.1255 -.0011 0 .1185 2.4 -116.85)" gradientUnits="userSpaceOnUse" id="E" r="819.2" spreadMethod="pad"><stop offset="0" stop-color="#bcbcbc"/><stop offset="1" stop-color="#e5e5cc"/></radialGradient><radialGradient cx="0" cy="0" gradientTransform="matrix(.0337 -.0003 0 .0318 12.5 -96.1)" gradientUnits="userSpaceOnUse" id="F" r="819.2" spreadMethod="pad"><stop offset="0" stop-color="#fff"/><stop offset="1" stop-color="#00f"/></radialGradient><radialGradient cx="0" cy="0" gradientTransform="matrix(.1255 -.0011 0 .1185 2.4 -116.85)" gradientUnits="userSpaceOnUse" id="G" r="819.2" spreadMethod="pad"><stop offset="0" stop-color="#fff"/><stop offset="1" stop-color="#e5e5cc"/></radialGradient><radialGradient cx="0" cy="0" gradientTransform="matrix(.0337 -.0003 0 .0318 -19.55 -80.75)" gradientUnits="userSpaceOnUse" id="J" r="819.2" spreadMethod="pad"><stop offset="0" stop-color="#fff"/><stop offset="1" stop-color="#00f"/></radialGradient><linearGradient gradientTransform="matrix(-.0242 -.0002 0 .0126 16.45 -29.75)" gradientUnits="userSpaceOnUse" id="H" spreadMethod="pad" x1="-819.2" x2="819.2"><stop offset="0" stop-color="#fff"/><stop offset="1" stop-color="#bebc81"/></linearGradient><linearGradient gradientTransform="matrix(-.025 -.0002 0 .0129 17.15 -28.7)" gradientUnits="userSpaceOnUse" id="I" spreadMethod="pad" x1="-819.2" x2="819.2"><stop offset="0" stop-color="#fff"/><stop offset="1" stop-color="#bebc81"/></linearGradient><use height="139.8" width="79.9" xlink:href="#D" id="V"/></defs><g transform="translate(320.657 174.43)"><use height="221.8" transform="translate(-15.5 -160.05)" width="175" xlink:href="#Q"/><use height="10.3" transform="matrix(1 .4918 0 1 70.95 -18.676)" width="5.75" xlink:href="#R"/></g><path d="M280.491 174.544L.557 314.2l200.011 99.983 281.128-140.392z" fill="silver" fill-rule="evenodd" stroke="#a0a0a0" stroke-linejoin="round"/><g transform="translate(-682.462 -25.995)"><path d="M1042.586 239.515l-.68-.313-32.588-15.954-3.295-1.622-2.668-1.255-3.818-1.883-.576-.314-33.58-16.529v-33.581l9.048 4.498 4.185 2.093c.453.209.924.436 1.412.68l9.259 4.603v-.419l4.289 2.092 13.443 6.696 3.19 1.621 3.139 1.517c3.138 1.57 6.26 3.121 9.363 4.656l.052.052 16.738 8.317 3.087 1.517v6.044" fill="#d1d0a7"/><path d="M682.962 181.495v-.7l.7.35-.7.35m362.75 59.7h-.05l-1.2-.6-.15-.05-.3-.15-1.05-.55 2.75 1.35" fill="#d6d6d6" fill-rule="evenodd"/><path d="M882.912 176.545v-.05l.1.05h-.1m-120 60v-.05l.1.05h-.1" fill="#e2e0d6" fill-rule="evenodd"/><path d="M966.962 28.495v174l-1.75-.9-.25-.1v-174l2 1" fill="#333" fill-rule="evenodd"/><path d="M1062.812 75.895v-.2l2.1 1.05-2.1-.85m-51-25.4l26.1 13 .25.15-.25-.15 1.9.95v.05q-.85-.45-1.65-.85l-43.35-21.55v-.05l5 2.5 12 5.95-12-5.95v-.1l12 5.95v.1m-20-9.9v-.2l2 1v.2l-2-1m50.95 199.1h.2l-.05.05-.15-.05m.2.1v.05l-.05-.05v.05-.05h.05" fill="#ccc" fill-rule="evenodd"/><path d="M683.012 340.495h-.05.05m318.6-120.9l-.05-.05-.5-.25.55.3m4.1 2l-.45-.2 2.55 1.2-1-.45-1.1-.55m-202.7 58.9h-.05.05" fill="#999" fill-rule="evenodd"/><path d="M923.562 220.195l-1.05.55-.15.3-.2-.1.35-.2.1-.05.95-.5m-120.15 60.1l-.9.45-.15.3-.2-.1.35-.2.1-.05.35-.2.45-.2m-79.85 39.9l-1.05.55-.15.3-.2-.1.35-.2.1-.05.95-.5m302.2-88.75l.35.2-.35-.2m1 .9l.25.15-.15.05-.1-.2m-66.8 162.95l.25-.15.2.4-.45-.25" fill="#9c3" fill-rule="evenodd"/><path d="M1121.312 191.295l1.5-.75v1.5l-1.5-.75m-78.35 48.4v.1h-.05.05-.05v-.05l.05-.05" fill="#99e3f9" fill-rule="evenodd"/><path d="M1026.112 231.645l-.05.05-.1.15v.05l-.05.05-.1-.25v-.1l-.05-.15.35.2" fill="#c4b004" fill-rule="evenodd"/><path d="M1010.962 224.145l2.75 1.45-1.9-.95v.1l-7.25-3.65 1.15.5 1.1.55 1 .45 3.15 1.55M1025.812 231.695l-2.95-1.55 2.95 1.45v.1M964.962 27.495v174q-.8-.45-1.65-.85l-.35-.15v-174l2 1M968.962 29.495v174l-2-1v-174l2 1" fill="#9f7806"/><path d="M1062.812 75.895l2.1.85 57.95 28.75-.05 85.05-1.5.75-25.5-12.65-3-1.5-3-1.5-47.05-23.4v55.4l-2.95-1.45-16-7.95-.05-.05q-4.45-2.2-8.95-4.45l-3-1.45-3.05-1.55-12.85-6.4-4.1-2v.4l-8.85-4.4q-.7-.35-1.35-.65l-4-2-8.65-4.3v-141.9q11.45 5.7 22.85 11.35v-.25l2 1 1 .5 43.35 21.55q.8.4 1.65.85l23 11.4" fill="#ecebdb" fill-rule="evenodd"/><path d="M879.912 209.345v.4l.2-.05 8.65-4.35.2-.1v-.6l2.95-1.45 16-7.95.05-.05 8.95-4.45 3-1.45 3.05-1.55 16.95-8.4v.4l4.05-2 4.8-2.4 1.35-.65 4.05-2 8.6-4.3v32.1l-60 29.45v.55l-60 29.45v.55l-60 29.45v.55l-43.75 21.45v-.25l-55.05 27v-32.05l2.95-1.45 9.1-4.55 6.9-3.4.05-.05 8.95-4.45 3-1.45 3.05-1.55 1.05-.5 4.95-2.45 10.95-5.45v.4l1.1-.55.9-.45 1.05-.5 1.05-.55v.05l.9-.45 3.05-1.55 16.95-8.4v.4l8.85-4.4.2-.1v-.6l2.95-1.45 16-7.95.05-.05 8.95-4.45 3-1.45 3.05-1.55 16.95-8.4v.4l8.85-4.4.2-.1v-.6l2.95-1.45 16-7.95.05-.05 8.95-4.45 3-1.45 3.05-1.55 16.95-8.4" fill="#cfcaa5" fill-rule="evenodd"/><path d="M962.962 26.495v141.9h-.2l-8.6 4.3-4.05 2-1.35.65-4.8 2.4-4.05 2v-.4l-16.95 8.4-3.05 1.55-3 1.45-8.95 4.45-.05.05-16 7.95-2.95 1.45-.2.7-8.65 4.35-.2-.35-16.95 8.4-3.05 1.55-3 1.45-8.95 4.45-.05.05-16 7.95-2.95 1.45-.2.7-8.85 4.4v-.4l-16.95 8.4-3.05 1.55-3 1.45-8.95 4.45-.05.05-16 7.95-2.95 1.45-.2.7-8.85 4.4v-.4l-16.95 8.4-3.05 1.55-.9.45v-.05l-1.05.55-1.05.5-.9.45-1.1.55v-.4l-10.95 5.45-4.95 2.45-1.05.5-3.05 1.55-3 1.45-8.95 4.45-.05.05-6.9 3.4-9.1 4.55-2.95 1.45v32.05l55.05-27v.8l-.55.25-2.45 1.25-5.65 2.8-1.05.55-.4.2-.9.45-4.45 2.2-.95.5-1.75.85-.95.5-16.5 8.25-.4.2h-.05l-2.8 1.4-1.65.85-15.5 7.75h-.05v-159l.7-.35-.7-.35v-15.3l20-9.85v-.15l5-2.4 31.05-15.35v.1l63.95-31.6v-.75l130.85-64.6 29.15-14.4m-260 129.15l5-2.55-5 2.55m179.95 20.9h.1l-.1-.05v.05m-120 60h.1l-.1-.05v.05m-34.4 81.2l1.15-.6-.35.2.35-.2-1.15.6.4-.2-.4.2-.5.25.5-.25m1.85-.95l-.7.35.7-.35" fill="#e9e7d6" fill-rule="evenodd"/><path d="M968.962 29.495l-2-1-2-1-2-1m4 176l2 1m-4-2l.25.1m-2.25-1.1l.35.15q.85.4 1.65.85" fill="none" stroke="#616161" stroke-linecap="round" stroke-linejoin="round"/><path d="M968.962 203.495v-32.1m-6-144.9v174m-243.05 121.55l-16.5 8.25-.45.2m-2.8 1.4l-1.1.6-.55.25m4.45-177.1v-.15l5-2.4m21.35 164.25l.35-.2-1.15.6m-.5.25l.5-.25m9.95-5l.55-.25m-9.35 4.65l.7-.35m-7.75 3.9l-1.75.85m1.75-.85l.95-.5m-3.65 1.85l.95-.5M968.962 29.495v141.9m-3.75 30.2l1.75.9m-4-2l.35.15m-.35-.15l-29.15 14.6m0-174.2l29.15-14.4M991.812 40.845q-11.4-5.65-22.85-11.35M1062.812 75.895l2.1.988 57.95 28.612-.05 85.05m-84.9-127.05l-26.1-13-12-5.95-5-2.5m0 .05l43.35 21.55-.25-.15 1.9.95m0 .05l23 11.4m-51-25.5l-12-5.95m38.35 19.2c.534.267 1.084.55 1.65.85m-48-23.637l2 .737m48.95 166.05v-55.4l78.55 39.05 1.5-.75v1.5l-1.5-.75m-126.5-149.2l-1-.5m-60 173.5l-10.25 5.1-1.05.55m-.35.2l-40.85 20.4-2.25 1.15-75.65 37.8-.9.45m-.35.2l-40.85 20.4-2.25 1.15-20.05 10-.55.25-2.45 1.25m-12.45 6.2l-1.05.55m-.35.2l-1.75.85m18.6-183.95l63.95-31.975 130.85-64.975m108.95 172.6v-5.85m0 5.85v26.2m.15.1h.05m-120.8-18.85l.35-.2m-119.5 59.75l.4-.2m-1.25.65l.35-.2m.45-.25h.05m-80.85 40.45l.35-.2" fill="none" stroke="#000" stroke-linecap="round" stroke-linejoin="round"/><path d="M682.962 181.495v-.7m.7.35l-.7.35" fill="none" stroke="#616161" stroke-linecap="round" stroke-linejoin="round"/><path d="M1001.062 219.295l.5.25.05.05-.55-.3-32.1-15.8m73.15 35.9l-31.15-15.25-3.15-1.55-2.55-1.2-3.65-1.8M736.012 313.995l-5.65 2.8-1.05.55-.4.2-.9.45-4.45 2.2m-3.15 1.6l-.5.25m-16.95 8.45l-2.8 1.4m-1.65.85l-15.5 7.75h-.05v-159m0-.7v-15.3l20-9.85m5-2.55l31.05-15.35m-31.05 15.35l-5 2.55m-20 25.15l.7.35m44.85 136.6l.4-.2m-25.95 12.95h.05l.4-.2m-4.9 2.45l1.65-.85m20.7-10.35l-.45.25" fill="none" stroke="#000" stroke-linecap="round" stroke-linejoin="round"/><path d="M1039.274 317.317l.14-26.167-.14 26.167" fill="#d1d0a7"/><use height="98.8" transform="matrix(-1 0 0 1 1034.463 89.145)" width="57" xlink:href="#S"/><use height="47.95" transform="translate(733.162 158.545)" width="51" xlink:href="#T"/><use height="34.6" transform="translate(865.012 103.145)" width="24.3" xlink:href="#U"/><use height="139.8" transform="translate(841.362 120.945)" width="79.9" xlink:href="#V"/><use height="139.8" transform="translate(721.362 180.945)" width="79.9" xlink:href="#V"/></g><path d="M333.19 309.855l20 10-7.65 3.8 34.9.25v-17.4l-7.45 3.45-19.95-10-19.85 9.9" fill="#fc6" fill-opacity=".6"/><path d="M353.04 299.955l19.95 10 7.45-3.45v17.4l-34.9-.25 7.65-3.8-20-10z" fill="none" stroke="#f60" stroke-linecap="round" stroke-linejoin="round" stroke-miterlimit="3" stroke-opacity=".6"/><path d="M213.367 369.953l20 10-7.65 3.8 34.9.25v-17.4l-7.45 3.45-19.95-10-19.85 9.9" fill="#fc6" fill-opacity=".6"/><path d="M233.216 360.053l19.95 10 7.45-3.45v17.4l-34.9-.25 7.65-3.8-20-10z" fill="none" stroke="#f60" stroke-linecap="round" stroke-linejoin="round" stroke-miterlimit="3" stroke-opacity=".6"/><path d="M108.824 326.175l-20 10 7.65 3.8-34.9.25v-17.4l7.45 3.45 19.95-10 19.85 9.9" fill="#fc6" fill-opacity=".6"/><path d="M88.974 316.275l-19.95 10-7.45-3.45v17.4l34.9-.25-7.65-3.8 20-10z" fill="none" stroke="#f60" stroke-linecap="round" stroke-linejoin="round" stroke-miterlimit="3" stroke-opacity=".6"/><g><path d="M109.022 279.166l19.95 10 19.85-9.9-20-10 7.6-3.8-34.85-.25v17.4l7.45-3.45" fill="#fc6" fill-opacity=".6"/><path d="M101.572 282.616v-17.4l34.85.25-7.6 3.8 20 10-19.85 9.9-19.95-10z" fill="none" stroke="#f60" stroke-linecap="round" stroke-linejoin="round" stroke-miterlimit="3" stroke-opacity=".6"/></g><g><path d="M229.006 219.241l19.95 10 19.85-9.9-20-10 7.6-3.8-34.85-.25v17.4l7.45-3.45" fill="#fc6" fill-opacity=".6"/><path d="M221.556 222.691v-17.4l34.85.25-7.6 3.8 20 10-19.85 9.9-19.95-10z" fill="none" stroke="#f60" stroke-linecap="round" stroke-linejoin="round" stroke-miterlimit="3" stroke-opacity=".6"/></g></svg>