<svg xmlns="http://www.w3.org/2000/svg" height="182" width="160" xml:space="preserve" style="fill-rule:evenodd;clip-rule:evenodd;stroke-linejoin:round;stroke-miterlimit:1.5"><path d="M95.141 127.082s-15.6 7.492-15.501 8.262c1.218 9.443-11.586 7.15-20.4-3.713-5.495-6.772-4.588-22.793 3.234-39.212 3.13-6.569 4.222-15.541 7.996-21.49 21.466-26.615 53.023 1.206 51.938 20.954-1.958 8.059-25.614 24.773-22.919 26.545 14.24 9.362 6.286 18.501-4.348 8.654z" style="fill:#fff" transform="matrix(.9324 -.29605 .30387 .95705 -36.489 16.045)"/><path d="M66.35 79.808c.71-1.167 3.322-7.798 4.068-8.808 21.659-29.336 56.854 5.999 49.834 22.459-1.767 4.142-20.124 20.737-21.261 25.634" style="fill:none;stroke:#000;stroke-width:2.5px" transform="rotate(-16.265 32.113 133.844)"/><path d="M54.073 133.994c-.335 4.909 1.234 7.655 3.256 8.299 2.179.694 4.884-1.053 6.301-5.165" style="fill:none;stroke:#000;stroke-width:2.72px" transform="matrix(-.39432 .91897 .75982 .32603 -5.551 26.205)"/><path d="m66.35 135.872 37.625-.779" style="fill:none;stroke:#000;stroke-width:3.22px" transform="matrix(.32332 -.30224 .69134 .7225 -36.175 43.322)"/><path d="M97.302 116.152c9.428 1.232 5.004-7.874-3.2-10.2" style="fill:none;stroke:#000;stroke-width:2.5px" transform="translate(0 -5)"/><path d="M56.615 97.653c-6.859 16.567-.576 35.531 10.503 38.274" style="fill:none;stroke:#000;stroke-width:2.32px" transform="matrix(1.09645 -.28386 .2564 .99033 -37.608 13.817)"/><path d="m48.062 92.123.408-17.463 2.48-.75-.408 17.463zm36.588-26.3c2.84 2.925 5.844 4.48 9.143 6.565l-5.227 3.407-1.19-.634 2.459-2.787c-2.62-1.49-4.766-3.711-6.532-6.157zm9.206-5.639 3.154 1.23V60.38l-1.834-1.064zm-19.9 5.322-2.315.675-.777 3.665 1.701-.497zm6.366 14.982 4.188-1.33.62 2.124-4.218 1.23z"/></svg>