<svg xmlns="http://www.w3.org/2000/svg" width="159" height="182"><path d="m73.925 115.597 8.913 1.252 8.489 5.132-2.24 15.943 5.204 2.498 5.418-3.151 3.897-24.846 6.795-8.869s1.864-4.775-3.861-11.639c6.229-4.806 14.011-8.866 16.018-17.753.449-9.482-5.133-19.229-30.253-23.265s-33.644 4.914-34.971 14.359 6.994 16.506 6.994 16.506l-4.857 1.663-6.746 47.366 2.246 3.345 7.449.668 3.246-4.34 1.778-11.59 6.481-3.279z" fill="#fff"/><path d="m60.501 76.098-.338.256-1.242.936c-1.372-1.74-2.403-3.503-3.096-5.282a14.613 14.613 0 0 1-.795-7.281l.167-1.188c.896-3.982 3.247-7.287 7.05-9.916l.412.663.085.112.68.904-.226.17c-3.154 2.317-5.127 5.104-5.92 8.358l-.167 1.188c-.306 2.178-.067 4.3.722 6.361l.369.962 2.299 3.757m4.475 42.179 3.168.445-1.837 13.07c-.231 1.65-.95 2.93-2.154 3.837-1.354 1.023-3.32 1.353-5.895.99-2.444-.344-4.176-1.192-5.195-2.549-.908-1.204-1.248-2.633-1.016-4.282l1.837-13.07 2.971.417-1.823 12.973c-.13.924.062 1.724.571 2.403.624.827 1.631 1.34 3.018 1.534 1.516.213 2.658.003 3.419-.63.678-.512 1.05-1.233 1.113-2.167l1.823-12.971m35.252 4.954 3.07.432-1.837 13.07c-.167 1.659-.883 2.939-2.155 3.837-1.354 1.023-3.287 1.357-5.796 1.005-2.442-.344-4.175-1.192-5.195-2.549-.908-1.205-1.245-2.633-1.014-4.282l1.837-13.071 2.971.418-1.823 12.972c-.13.925.06 1.725.571 2.403.624.828 1.629 1.34 3.016 1.534 1.452.204 2.593-.006 3.422-.629.677-.513 1.049-1.233 1.111-2.167l1.822-12.973m17.154-59.538 1.694-1.276c2.76 3.349 4.11 6.905 4.055 10.668l-.18 1.995c-.435 3.573-2.079 6.641-4.928 9.202l-1.385 1.22-.889.581-1.29-1.594 2.286-1.901c2.399-2.221 3.774-4.82 4.126-7.801l.178-1.994c-.032-3.104-1.257-6.136-3.667-9.1m-8.786 38.875.166-1.846c-.03-2.814-1.165-5.618-3.372-8.333l-.328-.402 2.407-1.813.304.37c2.686 3.259 4.02 6.777 3.964 10.496l-.172 1.91c-.426 3.5-2.056 6.547-4.848 9.058l-1.371 1.2-1.224.802-1.82-2.251 2.532-2.103c2.178-2.015 3.443-4.405 3.762-7.088z" fill="#010202"/><path d="m58.359 83.055 2.704.38-3.41 24.262-2.704-.38 3.41-24.262z"/><path d="m58.359 83.055 2.704.38-3.41 24.262-2.704-.38 3.41-24.262zm57.364-8.448-12.501-1.757.315-2.24 12.501 1.757-.315 2.24z"/><path d="m115.723 74.607-12.501-1.757.315-2.24 12.501 1.757-.315 2.24zm.667 10.759-12.501-1.757.314-2.24 12.501 1.758-.314 2.239z"/><path d="m116.39 85.366-12.501-1.757.314-2.24 12.501 1.758-.314 2.239z"/></svg>