<svg xmlns="http://www.w3.org/2000/svg" width="160" height="182"><path d="M82 119h-9l-9 3.9V139l-5.563 1.75-4.956-3.875-.417-25.147L47.563 102s2.031-8.5 8.656-14.5c-5.5-5.625-7.859-7.218-8.609-16.296.875-9.454 7.758-18.329 33.195-18.829s32.691 9.549 32.691 19.087S101 88.5 101 88.5V137l-2.75 3-7.5-.375-2.625-4.75-.156-11.725L82 119z" fill="#fff"/><path d="M107.791 81.753l2.799-3.399.5-.9c1.068-1.933 1.6-4 1.6-6.2v-1.199c-.332-3.334-1.898-6.367-4.699-9.101l-.199-.2.799-.8.1-.1.5-.601c3.4 3.134 5.268 6.733 5.602 10.801v1.199c0 2.533-.602 4.9-1.801 7.101-.934 1.666-2.199 3.267-3.801 4.8l-1.1-1.1-.3-.301M90.489 122.9V136c-.066.934.201 1.699.801 2.301.666.732 1.768 1.1 3.299 1.1 1.4 0 2.469-.367 3.201-1.1.6-.602.9-1.367.9-2.301v-13.1h3v13.2c0 1.666-.535 3.033-1.602 4.1-1.198 1.2-3.03 1.8-5.499 1.8-2.6 0-4.5-.6-5.699-1.801-1.066-1.066-1.6-2.434-1.6-4.1V122.9h3.199M54.891 122.9V136c-.068.934.199 1.699.799 2.301.734.732 1.834 1.1 3.301 1.1 1.4 0 2.467-.367 3.199-1.1.602-.602.9-1.367.9-2.301v-13.1h3v13.2c0 1.666-.533 3.033-1.6 4.1-1.199 1.2-3.033 1.8-5.5 1.8-2.533 0-4.4-.6-5.6-1.801-1.135-1.066-1.666-2.434-1.6-4.1V122.9h3.101M53.189 61.554c-2.799 2.6-4.434 5.433-4.898 8.5l-.102 2c-.066 3 .934 5.767 3 8.3l2 2.2-1.5 1.399-.799-.7-1.201-1.399c-2.465-2.934-3.666-6.2-3.6-9.8l.1-2c.469-3.733 2.301-7.067 5.5-10l1.5 1.5M49.48 101.273l.092-1.851c.422-2.783 1.936-5.402 4.499-7.783l.381-.353-2.131-2.13-.353.323c-3.113 2.854-4.924 6.153-5.386 9.843l-.096 1.916c-.065 3.525 1.124 6.769 3.54 9.644l1.19 1.379 1.1.964 2.116-1.975-2.215-2.435c-1.874-2.298-2.795-4.841-2.737-7.542zM71.569 105.625a46.97 46.97 0 00-8.708-8.431l-.524-.391-2.293 2.332.722.509c3.046 2.148 5.785 4.888 8.143 8.144l.478.659 2.632-2.257-.45-.565z" fill="#010202"/><path d="M54.334 70.331h12.624v2.262H54.334v-2.262z"/><path d="M54.334 70.331h12.624v2.262H54.334v-2.262zM95.167 70.331h12.624v2.262H95.167v-2.262z"/><path d="M95.167 70.331h12.624v2.262H95.167v-2.262zM67.033 82.154h27.558v2.262H67.033v-2.262z"/><path d="M67.033 82.154h27.558v2.262H67.033v-2.262zM101.353 88.413v27.558h-2.262V88.413h2.262z"/><path d="M101.353 88.413v27.558h-2.262V88.413h2.262z"/><path d="M82 119h-9l-9 3.9V139l-5.563 1.75-4.956-3.875-.417-25.147L47.563 102s2.031-8.5 8.656-14.5c-5.5-5.625-7.859-7.218-8.609-16.296.875-9.454 7.758-18.329 33.195-18.829s32.691 9.549 32.691 19.087S101 88.5 101 88.5V137l-2.75 3-7.5-.375-2.625-4.75-.156-11.725L82 119z" fill="#fff"/><path d="M107.791 81.753l2.799-3.399.5-.9c1.068-1.933 1.6-4 1.6-6.2v-1.199c-.332-3.334-1.898-6.367-4.699-9.101l-.199-.2.799-.8.1-.1.5-.601c3.4 3.134 5.268 6.733 5.602 10.801v1.199c0 2.533-.602 4.9-1.801 7.101-.934 1.666-2.199 3.267-3.801 4.8l-1.1-1.1-.3-.301M90.489 122.9V136c-.066.934.201 1.699.801 2.301.666.732 1.768 1.1 3.299 1.1 1.4 0 2.469-.367 3.201-1.1.6-.602.9-1.367.9-2.301v-13.1h3v13.2c0 1.666-.535 3.033-1.602 4.1-1.198 1.2-3.03 1.8-5.499 1.8-2.6 0-4.5-.6-5.699-1.801-1.066-1.066-1.6-2.434-1.6-4.1V122.9h3.199M54.891 122.9V136c-.068.934.199 1.699.799 2.301.734.732 1.834 1.1 3.301 1.1 1.4 0 2.467-.367 3.199-1.1.602-.602.9-1.367.9-2.301v-13.1h3v13.2c0 1.666-.533 3.033-1.6 4.1-1.199 1.2-3.033 1.8-5.5 1.8-2.533 0-4.4-.6-5.6-1.801-1.135-1.066-1.666-2.434-1.6-4.1V122.9h3.101M53.189 61.554c-2.799 2.6-4.434 5.433-4.898 8.5l-.102 2c-.066 3 .934 5.767 3 8.3l2 2.2-1.5 1.399-.799-.7-1.201-1.399c-2.465-2.934-3.666-6.2-3.6-9.8l.1-2c.469-3.733 2.301-7.067 5.5-10l1.5 1.5M49.48 101.273l.092-1.851c.422-2.783 1.936-5.402 4.499-7.783l.381-.353-2.131-2.13-.353.323c-3.113 2.854-4.924 6.153-5.386 9.843l-.096 1.916c-.065 3.525 1.124 6.769 3.54 9.644l1.19 1.379 1.1.964 2.116-1.975-2.215-2.435c-1.874-2.298-2.795-4.841-2.737-7.542zM71.569 105.625a46.97 46.97 0 00-8.708-8.431l-.524-.391-2.293 2.332.722.509c3.046 2.148 5.785 4.888 8.143 8.144l.478.659 2.632-2.257-.45-.565z" fill="#010202"/><path d="M54.334 70.331h12.624v2.262H54.334v-2.262zM95.167 70.331h12.624v2.262H95.167v-2.262zM67.033 82.154h27.558v2.262H67.033v-2.262zM101.353 88.413v27.558h-2.262V88.413h2.262z"/></svg>