<?xml version="1.0" encoding="UTF-8" standalone="no"?>
<svg
   height="182"
   width="160"
   version="1.1"
   id="svg5"
   xmlns:xlink="http://www.w3.org/1999/xlink"
   xmlns="http://www.w3.org/2000/svg"
   xmlns:svg="http://www.w3.org/2000/svg">
  <defs
     id="defs2">
    <filter
       id="a"
       x="0"
       width="1"
       y="0"
       height="1"
       color-interpolation-filters="sRGB">
      <feGaussianBlur
         id="feGaussianBlur1" />
    </filter>
    <filter
       id="b"
       x="0"
       width="1"
       y="0"
       height="1"
       color-interpolation-filters="sRGB">
      <feGaussianBlur
         id="feGaussianBlur2" />
    </filter>
    <radialGradient
       xlink:href="#linearGradient15"
       id="radialGradient16"
       cx="96.805046"
       cy="103.95468"
       fx="96.805046"
       fy="103.95468"
       r="7.0256734"
       gradientTransform="matrix(1,0,0,0.79456788,0,21.35563)"
       gradientUnits="userSpaceOnUse" />
    <linearGradient
       id="linearGradient15">
      <stop
         style="stop-color:#ffed51;stop-opacity:0.91489366;"
         offset="0.34228188"
         id="stop15" />
      <stop
         style="stop-color:#f0ad00;stop-opacity:1;"
         offset="1"
         id="stop16" />
    </linearGradient>
    <radialGradient
       xlink:href="#linearGradient16"
       id="radialGradient23"
       cx="72.87793"
       cy="104.60528"
       fx="72.87793"
       fy="104.60528"
       r="7.6406169"
       gradientTransform="matrix(1,0,0,0.78462207,0,22.529668)"
       gradientUnits="userSpaceOnUse" />
    <linearGradient
       id="linearGradient16">
      <stop
         style="stop-color:#ffed51;stop-opacity:0.91372549;"
         offset="0.48993289"
         id="stop17" />
      <stop
         style="stop-color:#f0ad00;stop-opacity:1;"
         offset="1"
         id="stop18" />
    </linearGradient>
    <radialGradient
       xlink:href="#linearGradient19"
       id="radialGradient22"
       cx="85.016418"
       cy="107.1543"
       fx="85.016418"
       fy="107.1543"
       r="6.7620392"
       gradientTransform="matrix(1,0,0,1.0792455,0,-8.4915005)"
       gradientUnits="userSpaceOnUse" />
    <linearGradient
       id="linearGradient19">
      <stop
         style="stop-color:#ffed51;stop-opacity:0.91372549;"
         offset="0.36017898"
         id="stop19" />
      <stop
         style="stop-color:#f0ad00;stop-opacity:1;"
         offset="1"
         id="stop20" />
    </linearGradient>
    <radialGradient
       xlink:href="#linearGradient21"
       id="radialGradient24"
       cx="83.274254"
       cy="118.87565"
       fx="83.274254"
       fy="118.87565"
       r="19.974972"
       gradientTransform="matrix(1,0,0,0.32604173,0,80.11723)"
       gradientUnits="userSpaceOnUse" />
    <linearGradient
       id="linearGradient21">
      <stop
         style="stop-color:#ffed51;stop-opacity:0.91372549;"
         offset="0.32662195"
         id="stop21" />
      <stop
         style="stop-color:#f0ad00;stop-opacity:1;"
         offset="1"
         id="stop22" />
    </linearGradient>
    <linearGradient
       xlink:href="#linearGradient30"
       id="linearGradient31"
       x1="83.773346"
       y1="47.414211"
       x2="80.648407"
       y2="83.132439"
       gradientUnits="userSpaceOnUse" />
    <linearGradient
       id="linearGradient30">
      <stop
         style="stop-color:#f89200;stop-opacity:1;"
         offset="0"
         id="stop30" />
      <stop
         style="stop-color:#f89200;stop-opacity:1;"
         offset="0.46085012"
         id="stop32" />
      <stop
         style="stop-color:#f5b000;stop-opacity:1;"
         offset="0.6152125"
         id="stop31" />
    </linearGradient>
    <linearGradient
       xlink:href="#linearGradient32"
       id="linearGradient34"
       x1="104.25771"
       y1="46.429131"
       x2="78.232071"
       y2="46.429131"
       gradientUnits="userSpaceOnUse" />
    <linearGradient
       id="linearGradient32">
      <stop
         style="stop-color:#3ace00;stop-opacity:1;"
         offset="0"
         id="stop33" />
      <stop
         style="stop-color:#2fa700;stop-opacity:1;"
         offset="1"
         id="stop34" />
    </linearGradient>
  </defs>
  <path
     d="m 56.323,85.554 0.314,-0.815 -3.807,-6.035 -1.438,-4.56 1.373,-6.522 4.135,-5.647 1.446,-2.354 7.328,-15.627 1.194,-1.258 8.576,17.368 11.82,-0.173 8.065,-16.618 1.081,-1.018 8.527,18.03 2.82,1.392 1.983,1.65 2.253,4.108 0.97,3.683 -0.133,6.317 -3.978,6.408 -2.835,0.964 -3.342,2.884 7.325,7.896 2.089,6.418 -4.807,4.96 -5.472,-0.907 3.919,1.321 1.892,2.312 1.9,4.815 -0.357,5.985 -3.313,2.639 -1.677,0.216 H 61.582 l -8.487,0.512 -2.646,-0.988 -2.067,-4.224 4.465,-5.051 -0.512,-3.703 0.885,-3.95 -0.976,-2.244 -0.565,-6.19 6.837,-12.353 -2.599,-0.362 50.1,0.014"
     opacity="0.99"
     fill="#ffffff"
     id="path2" />
  <circle
     cx="106.132"
     cy="70.220001"
     r="2.118"
     opacity="0.99"
     filter="url(#a)"
     id="circle2" />
  <path
     d="m 97.044,67.205 h -1.749 l 2.64,-4.23 h 2.839 z"
     opacity="0.99"
     filter="url(#b)"
     id="path3" />
  <path
     d="m 103.73,61.089 2.397,-1.113 -10.166,-21.89 -9.745,20.99 -9.803,0.005 -9.705,-20.953 -9.978,21.65 2.37,1.172 7.594,-17.034 7.868,17.26 13.612,-0.212 7.78,-17.2 z m 4.031,0.09 3.162,3.64 1.79,3.047 0.873,2.638 0.172,1.79 0.047,2.78 -0.413,2.408 c 0,0 -0.59,1.647 -0.97,2.435 a 14.584,14.584 0 0 1 -1.002,1.762 c -0.675,1.016 -1.45,1.966 -2.233,2.902 -0.462,0.55 -1.452,1.593 -1.452,1.593 l -1.718,-1.327 2.2,-2.23 1.56,-2.06 1.155,-2.311 0.593,-2.09 0.214,-2.247 -0.186,-2.747 -0.778,-2.7 -1.03,-1.794 -1.372,-1.682 -2.367,-2.512 z m -51.038,25.207 1.793,-1.19 -2.507,-2.742 -1.874,-2.97 -0.74,-2.087 -0.338,-1.701 -0.068,-2.186 0.133,-2.572 0.51,-2.214 1.17,-2.263 1.29,-1.599 1.38,-1.689 1.137,-1.125 -1.636,-1.324 -1.402,1.533 -1.623,1.888 -1.103,1.81 -1.24,2.65 -0.717,2.395 -0.119,1.843 -0.02,2.022 0.133,1.423 0.72,2.528 0.86,1.942 1.358,2.063 c 0,0 1.015,1.38 1.558,2.04 a 53.58,53.58 0 0 0 1.344,1.524 z m 2.527,1.735 -2.087,-1.589 -1.811,1.719 -1.57,1.653 -1.17,1.534 -0.948,1.924 -0.43,1.998 -0.328,1.478 -0.16,2.156 -0.258,2.59 0.155,1.25 0.657,0.926 0.944,-0.022 -0.008,-2.384 0.452,-2.595 0.372,-1.96 0.703,-2.01 0.574,-1.58 0.995,-1.547 1.564,-1.746 z m 44.826,20.696 1.653,-1.398 2.334,2.257 1.101,1.312 0.626,1.082 0.453,1.356 0.398,1.867 0.039,1.449 -0.2,2.146 -0.468,1.405 -0.96,1.717 -1.264,1.513 -1.63,1.46 -0.557,0.477 -1.427,-1.323 1.773,-1.514 1.38,-1.606 0.86,-1.6 0.475,-1.413 0.055,-1.418 -0.086,-2.107 -0.507,-1.451 -1.335,-2.015 -1.294,-1.178 z m -53.533,-3.812 0.768,5.77 0.809,3.488 -2.33,1.536 -1.68,1.982 -0.793,1.874 -0.08,1.994 0.27,1.126 1.05,1.427 2.062,1.063 3.248,0.228 8.395,-0.054 0.386,-2.573 -6.117,0.459 -2.518,0.054 -2.827,-0.456 -1.05,-0.807 -0.534,-1.197 0.105,-1.577 0.645,-1.185 1.224,-1.373 1.453,-0.902 3.624,-1.608 -0.386,-1.95 -2.068,0.965 -0.78,-3.043 -0.283,-2.679 0.084,-2.581 z"
     opacity="0.99"
     id="path4" />
  <path
     d="m 102.445,86.143 3.856,3.936 2.172,2.302 2.106,2.435 1.641,2.434 0.733,1.685 0.335,2.095 -0.296,2.183 -0.857,1.732 -1.636,1.51 -1.81,0.858 -2.17,0.561 -1.976,-0.17 -2.67,-1.137 -2.935,-2.248 -1.695,-1.81 1.704,-1.774 1.44,2.105 1.326,1.294 1.72,0.934 1.936,0.467 1.903,-0.032 1.794,-0.809 1.042,-0.979 0.934,-1.623 0.233,-1.545 -0.523,-1.956 -1.094,-1.747 -2.008,-2.41 -2.464,-2.45 -1.966,-1.668 -1.594,-1.355 -0.824,-0.772 z m -15.439,24.143 -2.652,1.169 -4.506,1.975 -3.375,1.717 -1.611,1.446 -1.323,2.11 -0.412,1.677 0.175,1.803 1.093,1.72 1.629,0.884 2.425,0.398 2.369,0.222 7.056,-0.023 0.35,-2.683 -3.179,0.289 -4.438,0.21 -2.34,-0.131 -1.456,-0.418 -0.75,-0.587 -0.574,-0.903 -0.053,-1.16 0.42,-1.453 1.125,-1.256 1.3,-0.904 1.786,-0.993 1.896,-0.79 2.359,-0.949 2.014,-0.662 2.357,-0.813 z"
     opacity="0.99"
     id="path5"
     style="display:inline" />
  <g
     id="layer11">
    <g
       id="g1"
       style="display:inline"
       transform="matrix(-1,0,0,1,157.32484,-8.1161395)">
      <path
         style="fill:#f89200;fill-opacity:1;stroke:#000000;stroke-width:1.08124;stroke-opacity:1"
         d="m 81.54779,133.03001 c -5.544606,-0.97345 -11.928976,-3.96753 -11.672277,-6.23653 0.466749,1.4689 1.040476,2.76154 0.03121,3.20613 -1.235198,0.54412 -4.241813,0.0653 -5.292938,0.14602 -5.89452,-1.58391 -7.976834,-11.42841 -7.976834,-11.42841 0,0 -0.724593,1.6489 1.434458,6.22277 -0.747637,0.19617 -5.278537,-4.31987 -6.35906,-9.93046 4.786346,-2.09071 8.729493,-6.0045 9.175243,-10.67548 0.214632,-2.24911 -1.391326,-4.785265 -3.365979,-5.883128 -1.938881,-1.077975 -2.412505,-1.462778 -6.650816,0.241339 -3.773434,3.098769 -1.197337,-5.44984 2.395058,-5.772142 0.442803,-0.03973 7.22296,3.146952 11.070693,3.779069 11.309807,1.858008 25.200883,6.744682 34.384045,-0.113409 0.519873,-0.388247 -0.01287,-2.27393 0.558818,-1.864606 16.247519,11.633007 4.195189,29.837507 4.195189,29.837507 0,0 0.43543,-0.87276 1.55092,-7.11573 -1.48446,-2.11683 6.6275,10.78626 -23.47772,15.58704 z"
         id="path4-5" />
      <path
         style="display:none;fill:url(#radialGradient16);stroke:#000000;stroke-width:1.08124;stroke-opacity:1"
         d="m 98.935708,99.292604 c -9.826148,-2.296851 -8.558254,6.580166 -8.558254,6.580166 l 4.69119,0.93116 c 1.775045,-5.58693 2.916145,1.11739 2.916145,1.11739 0,0 -0.06339,0.0621 4.691201,0.99322 0,0 2.85276,-8.75285 -3.740282,-9.621936 z"
         id="path5-4" />
      <path
         style="display:none;fill:url(#radialGradient23);stroke:#000000;stroke-width:1.08124;stroke-opacity:1"
         d="m 79.473603,107.4247 c -4.310827,0.55869 -4.247433,0.55869 -4.247433,0.55869 0,0 -2.408998,-7.51133 -4.120643,0.86908 -4.501011,1.11739 -4.501011,1.11739 -4.501011,1.11739 0,0 -3.993857,-8.25625 5.57871,-10.801411 0,0 10.143136,-0.744925 7.290377,8.256251 z"
         id="path6" />
      <path
         style="display:none;fill:url(#radialGradient22);stroke:#000000;stroke-width:1.08124;stroke-opacity:1"
         d="m 85.242497,101.09284 5.705508,11.54633 -11.791376,1.17946 z"
         id="path7" />
      <path
         style="display:none;fill:url(#radialGradient24);stroke:#000000;stroke-width:1.08124;stroke-opacity:1"
         d="m 102.67599,114.31525 -6.846613,0.49662 -0.06339,2.54516 -3.613488,0.55869 -0.06338,-2.29686 -15.087889,0.68286 0.126789,2.35893 -4.501011,-0.0622 0.190184,-2.85555 -8.811831,-2.60722 c 0,0 1.901833,9.49778 5.451924,9.74609 0,0 8.685039,3.04178 11.284209,1.55192 l 0.316973,-2.85554 5.325141,0.2483 0.190186,1.98647 c 0,0 16.989736,0.68285 16.102206,-9.49778 z"
         id="path8" />
    </g>
  </g>
  <g
     id="layer15">
    <g
       id="g2"
       transform="matrix(-1,0,0,1,163.01364,-6.6112649)">
      <path
         style="fill:url(#linearGradient31);fill-opacity:1;stroke:#000000;stroke-width:0.949732;stroke-opacity:1"
         d="m 99.551402,67.080663 c -3.528238,4.043213 -9.048823,3.007733 -9.048823,3.007733 l -1.85213,-1.874293 c 0,0 0.809451,2.036366 0.22038,2.433268 -1.87941,1.266302 -12.49925,0.186724 -15.425802,-0.504089 -0.594639,-0.140365 0.748002,-2.914476 0.748002,-2.914476 l -2.18189,2.479027 c 0,0 -6.412382,0.173587 -7.218322,-4.267151 4.984799,-5.445839 11.293874,-6.453584 17.465204,-6.192553 6.322499,0.267425 14.25233,2.85344 17.293381,7.832534 z"
         id="path30" />
      <path
         style="display:none;fill:#f86400;fill-opacity:1;stroke:#000000;stroke-width:1.00157;stroke-opacity:1"
         d="m 57.180077,74.380587 c 3.091821,-2.199457 6.043422,-9.646232 6.043422,-9.646232 0,0 3.02196,11.330715 6.624521,11.273308 20.782958,-0.331175 35.90456,4.014436 49.16092,-7.20562 4.60885,-3.900887 -12.13669,-15.792346 -16.96807,-12.667943 -4.756801,3.076166 -7.670632,2.82326 -11.854408,1.162196 -6.01568,-2.388376 -12.439095,-4.641514 -18.130269,-1.162197 -2.83019,1.730245 -5.122699,3.89161 -9.646232,-0.348659 -2.419463,-2.267955 -13.774838,9.607397 -17.377633,14.207442 -3.602795,4.600044 1.234085,5.38795 3.43549,6.386581 2.713405,1.230892 6.284373,-0.271729 8.712259,-1.998876 z"
         id="path19" />
      <g
         id="g15"
         style="display:inline;fill:#3ace00;fill-opacity:1;stroke:#000000;stroke-opacity:1"
         transform="matrix(-0.25932247,0,0,0.27550773,103.53271,41.477763)">
        <path
           style="fill:#2fa700;fill-opacity:1;stroke:#000000;stroke-width:1.00157;stroke-opacity:1"
           d="m 104.0166,51.020434 c -5.831284,0.939389 -16.845547,5.222703 -24.987225,-9.646232 -5.119967,9.420976 -1.743296,29.636015 -1.743296,29.636015 0,0 5.810984,4.416348 11.273308,0.464879 0,0 2.344699,-15.583067 15.457213,-20.454662 z"
           id="path14" />
        <path
           style="fill:url(#linearGradient34);fill-opacity:1;stroke:#000000;stroke-width:1.00157;stroke-opacity:1"
           d="m 103.66794,51.369093 c -18.943802,5.229886 -24.754785,-10.57599 -24.754785,-10.57599 0,0 21.733075,-3.37037 24.754785,10.57599 z"
           id="path15" />
      </g>
    </g>
  </g>
</svg>
