<svg xmlns="http://www.w3.org/2000/svg" xmlns:xlink="http://www.w3.org/1999/xlink" height="132" width="163"><path d="m122.05 128.399 40-20-120-60-40 20 120 60" fill-opacity=".502" fill-rule="evenodd"/><path d="m4.7-65.45-.4-.3-.35-.2q-1.1-.7-2.45-.3l3.45-1.65.35-.2.1-.05q1.8-.65 3.2.4 1.5 1.1 1.95 2.55l1.15 7 .2 1.5-.3.2-.7-4.15L7-58.6l-.75-4.6-.1-.25q-.4-1.1-1.45-2" fill="url(#a)" fill-rule="evenodd" transform="matrix(-1 0 0 1 42.05 68.399)"/><path d="M1.5-66.25q1.35-.4 2.45.3l.35.2.4.3-2.95 1.75q2.45.05.95 1.95l-.6.3-.35-.05Q0-61.95-.3-63.45q-.25-1.7.9-2.4l.9-.4" fill="url(#b)" fill-rule="evenodd" transform="matrix(-1 0 0 1 42.05 68.399)"/><path d="M4.7-65.45q1.05.9 1.45 2l-3.45 1.7q1.5-1.9-.95-1.95l2.95-1.75" fill="url(#c)" fill-rule="evenodd" transform="matrix(-1 0 0 1 42.05 68.399)"/><path d="m35.05 9.799-3.9-2.05-.7 4.15-.3 1.85-.95 6.1.05.45-.1.25v6.2l3.85 2 .05-.25v.3l114.2 59.25 3.4 1.75v-6.5l-121.4-63 121.4 63 1-6.5.5-3.15.5-2.85-3.4-1.75-114.2-59.25m-17.4 29.95-6.5 3-4.9 3.9.2.25-1.85 1.7-2.15 2.55 4.2 2.2 113.75 59 3.75 1.95 3.5-4.5 3.8-3.05 1.2-.95 5.8-2.7.25-.5.4.2.45-.2 6.1-3.05-4.05-2.1-108.1-56.1-4.35-2.25-.55-.3-4.1-2.1-6.5 3.25-.35-.2m21.2 11 3.15 1.6-3.15-1.6-3.5-1.8 3.65 1.35-.15.45m-3.65-1.9.15.1-.1.05-.05-.05v-.1l-17.2-8.9 17.2 8.9m6.8 3.5v.05l-.05.05.05-.1m-11.85-38.6q60.75 31.55 121.5 63.05-60.75-31.5-121.5-63.05M42 52.399l96.7 50.2-96.7-50.2m-30.85-9.65 121.5 63.05-121.5-63.05m-4.7 4.15 121.2 62.9-121.2-62.9" fill="#3c3" fill-rule="evenodd"/><path d="m11.6-56.5.3-.2.95 8.15-.95-6.1-.3-1.85M9.05-39.65l3.85-2v-6.2l.2 2.5.2 3.45q.7 7.6 4.1 10.15l.15.05-4.1 2.1-.35-.15-.15-.1q-3.2-2.5-3.9-9.8" fill="url(#d)" fill-rule="evenodd" transform="matrix(-1 0 0 1 42.05 68.399)"/><path d="m29.15 20.249.1.05-.05-.45-.05.4" fill="#9c6" fill-rule="evenodd"/><path d="m29.15 20.549.1-.25-.1-.05v.3m-22.9 26.1-.1.1.3.15-.2-.25m132.2 56.45.65-.3-.4-.2-.25.5" fill="#fc6" fill-rule="evenodd"/><path d="M33.05 28.799v-.3l-.05.25.05.05-.05-.05q-.7 7.3-3.9 9.8v.05l3.95-2v-7.8m114.75 69.7v.05l3.95-2q-.15-3.75 0-8.1-.7 7.5-3.95 10.05" fill-rule="evenodd"/><path d="M8.55-27.05 9-31.8l3.95 2-.05.5-4.35 2.25" fill="url(#e)" fill-rule="evenodd" transform="matrix(-1 0 0 1 42.05 68.399)"/><path d="M39.6-17.25q2.7 4.05 1.4 8.1L36.8-7.5q1.05-3.8-1.4-7.55l4.2-2.2" fill="url(#f)" fill-rule="evenodd" transform="matrix(-1 0 0 1 42.05 68.399)"/><path d="M36.95-1.15 40-2.6l.1-.05q.5-.2 1.3.3.6.35.65 1.1 0 1.4-.95 2l-.6.25-3.85 1.85q1.1-.6 1.1-2.1V.6q-.1-.65-.65-.95L36-.7l.95-.45" fill="url(#g)" fill-rule="evenodd" transform="matrix(-1 0 0 1 42.05 68.399)"/><path d="m41-9.15-.5 1.2-3.1 5.45q-.5.65-.45 1.35L36-.7l1.1.35q.55.3.65.95v.15q0 1.5-1.1 2.1h-.05l-.7.2q-2.1.4-2.9-1-.8-1.35.1-2.55l3.1-5.45.6-1.55L41-9.15" fill="url(#h)" fill-rule="evenodd" transform="matrix(-1 0 0 1 42.05 68.399)"/><path d="M.05-16v-.05l.05.1L.05-16" fill="url(#i)" fill-rule="evenodd" transform="matrix(-1 0 0 1 42.05 68.399)"/><path d="m6.7-19.45.15-.1-.15.1" fill="url(#j)" fill-rule="evenodd" transform="matrix(-1 0 0 1 42.05 68.399)"/><path d="m-116-1.8-.6.3-.35-.05Q-118.7-2-119-3.5q-.25-1.7.9-2.4l.9-.4q1.35-.4 2.45.3l.35.2.4.3-2.95 1.75q2.45.05.95 1.95" fill="url(#k)" fill-rule="evenodd" transform="matrix(-1 0 0 1 42.05 68.399)"/><path d="m-111 5.8-.6-4.05-.85-5-.1-.25q-.4-1.1-1.45-2l-.4-.3-.35-.2q-1.1-.7-2.45-.3l3.45-1.65.35-.2.1-.05q1.8-.65 3.2.4 1.5 1.1 1.95 2.55l.95 5.9-3.4 1.75.5 2.85-.9.55" fill="url(#l)" fill-rule="evenodd" transform="matrix(-1 0 0 1 42.05 68.399)"/><path d="M-112.55-3.5-116-1.8q1.5-1.9-.95-1.95L-114-5.5q1.05.9 1.45 2" fill="url(#m)" fill-rule="evenodd" transform="matrix(-1 0 0 1 42.05 68.399)"/><path d="M-108.6 14.9v6.5l3.4-1.75q.9 6.3 3.9 8.55l1.75.85-4.05 2.1-2-.95-.15-.1q-3.25-2.55-3.95-10.05l-.2-3.45q-.35-5.05-1.1-10.8l.9-.55.5 3.15 1 6.5M-90 38.5q-1.95-1.35-4.35-2.7l-1.65-.9-.4-.2 5.8 2.7 1.2.95-.6.15" fill="url(#n)" fill-rule="evenodd" transform="matrix(-1 0 0 1 42.05 68.399)"/><path d="m-77.7 50.8-.5 1.2-3.1 5.45q-.5.65-.45 1.35l-.95.45q.45-.05 1.1.35.55.3.65.95v.15q0 1.5-1.1 2.1h-.05l-.7.2q-2.1.4-2.9-1-.8-1.35.1-2.55l3.1-5.45.6-1.55 4.2-1.65" fill="url(#o)" fill-rule="evenodd" transform="matrix(-1 0 0 1 42.05 68.399)"/><path d="m-81.75 58.8 3.05-1.45.1-.05q.5-.2 1.3.3.6.35.65 1.1 0 1.4-.95 2l-.6.25-3.85 1.85q1.1-.6 1.1-2.1v-.15q-.1-.65-.65-.95-.65-.4-1.1-.35l.95-.45" fill="url(#p)" fill-rule="evenodd" transform="matrix(-1 0 0 1 42.05 68.399)"/><path d="M-78.35 43.95q1.75 3.4.65 6.85l-4.2 1.65q1.95-7-8.1-13.95l.6-.15 3.8 3.05 3.5 4.5 3.75-1.95" fill="url(#q)" fill-rule="evenodd" transform="matrix(-1 0 0 1 42.05 68.399)"/><path d="M-105.75 30.15q-.5 4.25-1.55 7.55-.55 1.75-1.25 2.95-.65 1.05-1.75 1.65l-.75.3-2.45 1-.05-.1.65-.75.05-.1q.55-.9 1-2.15v-.1l.25-.7.3-.9q1.25-4.5 1.6-10.65l3.95 2" fill="url(#r)" fill-rule="evenodd" transform="matrix(-1 0 0 1 42.05 68.399)"/><path d="m-118.35 40.35 4.05-1.9.35-.15q.7-.25 1.85 0 .55.15.8.5l-.3.9-.25.7-3.8 1.45q.45-1.3-.75-1.55l-1.95.05" fill="url(#s)" fill-rule="evenodd" transform="matrix(-1 0 0 1 42.05 68.399)"/><path d="m-113.55 43.5-.25.25h-.05l-2.05.95q-1.7.3-2.7-.7-1.35-1.4-.6-2.9l.85-.75 1.95-.05q1.2.25.75 1.55.3 1.25 2.1 1.65" fill="url(#t)" fill-rule="evenodd" transform="matrix(-1 0 0 1 42.05 68.399)"/><path d="m35.05 9.799-3.9-2.05-.7 4.15-.3 1.85-.95 6.1-.05.4.1.05 121.4 63v6.5l-3.4-1.75-114.2-59.25-.05-.05-3.85-2v-6.5m-4.65 16.45-.35-.2-6.5 3.25-6.5 3-4.9 3.9-.1.1-1.55 1.85-2.15 2.55m4.2 2.2 113.75 59m18.05-9.25.65-.3.45-.2 6.1-3.05-4.05-2.1-108.1-56.1-4.35-2.25-.55-.3-4.1-2.1m124.75 32.35L35.05 9.799M18 39.949l-.35-.2m-11.2 7.15-.3-.15m.5 6.6-4.2-2.2m39.55 1.2-3.15-1.6m-3.5-1.8-.15-.1-17.2-8.9m24 12.4v.05m-6.65-3.45 3.5 1.8m113.3 22.9-.5 3.15q-60.75-31.5-121.5-63.05m122 59.9.5-2.85-3.4-1.75m2.4 7.75-1 6.5m-11.55 19.5-.4-.2-96.7-50.2m96.45 50.7-5.8 2.7-121.5-63.05m120.3 64 1.2-.95m-5 4-3.5 4.5-3.75-1.95m11.05-5.6-3.8 3.05-121.2-62.9" fill="none" stroke="#666" stroke-linecap="round" stroke-linejoin="round"/><defs><linearGradient gradientTransform="matrix(.0027 .005 -.0042 .0023 7.3 -63.2)" gradientUnits="userSpaceOnUse" id="u" spreadMethod="pad" x1="-819.2" x2="819.2"><stop offset="0"/><stop offset=".494" stop-color="#cfcfcf"/><stop offset="1"/></linearGradient><linearGradient gradientTransform="matrix(.0012 .002 -.0029 .0017 2.2 -64.35)" gradientUnits="userSpaceOnUse" id="v" spreadMethod="pad" x1="-819.2" x2="819.2"><stop offset="0"/><stop offset=".494" stop-color="#cfcfcf"/><stop offset="1"/></linearGradient><linearGradient gradientTransform="matrix(.0004 .0007 -.002 .0012 3.8 -63.7)" gradientUnits="userSpaceOnUse" id="w" spreadMethod="pad" x1="-819.2" x2="819.2"><stop offset="0"/><stop offset=".494" stop-color="#cfcfcf"/><stop offset="1"/></linearGradient><linearGradient gradientTransform="matrix(.001 .0017 -.009 .0053 38.95 -1.6)" gradientUnits="userSpaceOnUse" id="x" spreadMethod="pad" x1="-819.2" x2="819.2"><stop offset="0"/><stop offset=".494" stop-color="#cfcfcf"/><stop offset="1"/></linearGradient><linearGradient gradientTransform="matrix(-.0006 -.0022 .0065 -.0018 9.55 -21.3)" gradientUnits="userSpaceOnUse" id="y" spreadMethod="pad" x1="-819.2" x2="819.2"><stop offset="0"/><stop offset=".494" stop-color="#cfcfcf"/><stop offset="1"/></linearGradient><linearGradient gradientTransform="matrix(-.0015 -.0056 .0059 -.0016 36.05 -13.3)" gradientUnits="userSpaceOnUse" id="z" spreadMethod="pad" x1="-819.2" x2="819.2"><stop offset="0"/><stop offset=".494" stop-color="#cfcfcf"/><stop offset="1"/></linearGradient><linearGradient gradientTransform="matrix(-.0011 -.0021 .0037 -.002 38.7 -.55)" gradientUnits="userSpaceOnUse" id="A" spreadMethod="pad" x1="-819.2" x2="819.2"><stop offset="0"/><stop offset=".494" stop-color="#cfcfcf"/><stop offset="1"/></linearGradient><linearGradient gradientTransform="matrix(-.0017 -.0029 .0066 -.0038 38.1 -1.6)" gradientUnits="userSpaceOnUse" id="B" spreadMethod="pad" x1="-819.2" x2="819.2"><stop offset="0"/><stop offset=".494" stop-color="#cfcfcf"/><stop offset="1"/></linearGradient><linearGradient gradientTransform="matrix(.0008 .0022 -.003 .0011 2.05 -17.45)" gradientUnits="userSpaceOnUse" id="C" spreadMethod="pad" x1="-819.2" x2="819.2"><stop offset="0"/><stop offset=".494" stop-color="#cfcfcf"/><stop offset="1"/></linearGradient><linearGradient gradientTransform="matrix(.0007 .0019 -.0041 .0015 4.15 -19.6)" gradientUnits="userSpaceOnUse" id="D" spreadMethod="pad" x1="-819.2" x2="819.2"><stop offset="0"/><stop offset=".494" stop-color="#cfcfcf"/><stop offset="1"/></linearGradient><linearGradient gradientTransform="matrix(.0012 .002 -.0029 .0017 -116.5 -4.4)" gradientUnits="userSpaceOnUse" id="E" spreadMethod="pad" x1="-819.2" x2="819.2"><stop offset="0"/><stop offset=".494" stop-color="#cfcfcf"/><stop offset="1"/></linearGradient><linearGradient gradientTransform="matrix(.0027 .005 -.0042 .0023 -111.4 -3.25)" gradientUnits="userSpaceOnUse" id="F" spreadMethod="pad" x1="-819.2" x2="819.2"><stop offset="0"/><stop offset=".494" stop-color="#cfcfcf"/><stop offset="1"/></linearGradient><linearGradient gradientTransform="matrix(.0004 .0007 -.002 .0012 -114.9 -3.75)" gradientUnits="userSpaceOnUse" id="G" spreadMethod="pad" x1="-819.2" x2="819.2"><stop offset="0"/><stop offset=".494" stop-color="#cfcfcf"/><stop offset="1"/></linearGradient><linearGradient gradientTransform="matrix(.001 .0017 -.009 .0053 -79.75 58.35)" gradientUnits="userSpaceOnUse" id="H" spreadMethod="pad" x1="-819.2" x2="819.2"><stop offset="0"/><stop offset=".494" stop-color="#cfcfcf"/><stop offset="1"/></linearGradient><linearGradient gradientTransform="matrix(-.0017 -.0029 .0066 -.0038 -80.6 58.35)" gradientUnits="userSpaceOnUse" id="I" spreadMethod="pad" x1="-819.2" x2="819.2"><stop offset="0"/><stop offset=".494" stop-color="#cfcfcf"/><stop offset="1"/></linearGradient><linearGradient gradientTransform="matrix(-.0011 -.0021 .0037 -.002 -80 59.4)" gradientUnits="userSpaceOnUse" id="J" spreadMethod="pad" x1="-819.2" x2="819.2"><stop offset="0"/><stop offset=".494" stop-color="#cfcfcf"/><stop offset="1"/></linearGradient><linearGradient gradientTransform="matrix(-.0015 -.0056 .0059 -.0016 -82.65 46.65)" gradientUnits="userSpaceOnUse" id="K" spreadMethod="pad" x1="-819.2" x2="819.2"><stop offset="0"/><stop offset=".494" stop-color="#cfcfcf"/><stop offset="1"/></linearGradient><linearGradient gradientTransform="matrix(-.0006 -.0022 .0065 -.0018 -109.15 38.65)" gradientUnits="userSpaceOnUse" id="L" spreadMethod="pad" x1="-819.2" x2="819.2"><stop offset="0"/><stop offset=".494" stop-color="#cfcfcf"/><stop offset="1"/></linearGradient><linearGradient gradientTransform="matrix(.0007 .0019 -.0041 .0015 -114.55 40.35)" gradientUnits="userSpaceOnUse" id="M" spreadMethod="pad" x1="-819.2" x2="819.2"><stop offset="0"/><stop offset=".494" stop-color="#cfcfcf"/><stop offset="1"/></linearGradient><linearGradient gradientTransform="matrix(.0008 .0022 -.003 .0011 -116.65 42.5)" gradientUnits="userSpaceOnUse" id="N" spreadMethod="pad" x1="-819.2" x2="819.2"><stop offset="0"/><stop offset=".494" stop-color="#cfcfcf"/><stop offset="1"/></linearGradient><linearGradient xlink:href="#u" id="a" gradientUnits="userSpaceOnUse" gradientTransform="matrix(.0027 .005 -.0042 .0023 7.3 -63.2)" x1="-819.2" x2="819.2" spreadMethod="pad"/><linearGradient xlink:href="#v" id="b" gradientUnits="userSpaceOnUse" gradientTransform="matrix(.0012 .002 -.0029 .0017 2.2 -64.35)" x1="-819.2" x2="819.2" spreadMethod="pad"/><linearGradient xlink:href="#w" id="c" gradientUnits="userSpaceOnUse" gradientTransform="matrix(.0004 .0007 -.002 .0012 3.8 -63.7)" x1="-819.2" x2="819.2" spreadMethod="pad"/><linearGradient xlink:href="#x" id="d" gradientUnits="userSpaceOnUse" gradientTransform="matrix(.001 .0017 -.009 .0053 38.95 -1.6)" x1="-819.2" x2="819.2" spreadMethod="pad"/><linearGradient xlink:href="#y" id="e" gradientUnits="userSpaceOnUse" gradientTransform="matrix(-.0006 -.0022 .0065 -.0018 9.55 -21.3)" x1="-819.2" x2="819.2" spreadMethod="pad"/><linearGradient xlink:href="#z" id="f" gradientUnits="userSpaceOnUse" gradientTransform="matrix(-.0015 -.0056 .0059 -.0016 36.05 -13.3)" x1="-819.2" x2="819.2" spreadMethod="pad"/><linearGradient xlink:href="#A" id="g" gradientUnits="userSpaceOnUse" gradientTransform="matrix(-.0011 -.0021 .0037 -.002 38.7 -.55)" x1="-819.2" x2="819.2" spreadMethod="pad"/><linearGradient xlink:href="#B" id="h" gradientUnits="userSpaceOnUse" gradientTransform="matrix(-.0017 -.0029 .0066 -.0038 38.1 -1.6)" x1="-819.2" x2="819.2" spreadMethod="pad"/><linearGradient xlink:href="#C" id="i" gradientUnits="userSpaceOnUse" gradientTransform="matrix(.0008 .0022 -.003 .0011 2.05 -17.45)" x1="-819.2" x2="819.2" spreadMethod="pad"/><linearGradient xlink:href="#D" id="j" gradientUnits="userSpaceOnUse" gradientTransform="matrix(.0007 .0019 -.0041 .0015 4.15 -19.6)" x1="-819.2" x2="819.2" spreadMethod="pad"/><linearGradient xlink:href="#E" id="k" gradientUnits="userSpaceOnUse" gradientTransform="matrix(.0012 .002 -.0029 .0017 -116.5 -4.4)" x1="-819.2" x2="819.2" spreadMethod="pad"/><linearGradient xlink:href="#F" id="l" gradientUnits="userSpaceOnUse" gradientTransform="matrix(.0027 .005 -.0042 .0023 -111.4 -3.25)" x1="-819.2" x2="819.2" spreadMethod="pad"/><linearGradient xlink:href="#G" id="m" gradientUnits="userSpaceOnUse" gradientTransform="matrix(.0004 .0007 -.002 .0012 -114.9 -3.75)" x1="-819.2" x2="819.2" spreadMethod="pad"/><linearGradient xlink:href="#H" id="n" gradientUnits="userSpaceOnUse" gradientTransform="matrix(.001 .0017 -.009 .0053 -79.75 58.35)" x1="-819.2" x2="819.2" spreadMethod="pad"/><linearGradient xlink:href="#I" id="o" gradientUnits="userSpaceOnUse" gradientTransform="matrix(-.0017 -.0029 .0066 -.0038 -80.6 58.35)" x1="-819.2" x2="819.2" spreadMethod="pad"/><linearGradient xlink:href="#J" id="p" gradientUnits="userSpaceOnUse" gradientTransform="matrix(-.0011 -.0021 .0037 -.002 -80 59.4)" x1="-819.2" x2="819.2" spreadMethod="pad"/><linearGradient xlink:href="#K" id="q" gradientUnits="userSpaceOnUse" gradientTransform="matrix(-.0015 -.0056 .0059 -.0016 -82.65 46.65)" x1="-819.2" x2="819.2" spreadMethod="pad"/><linearGradient xlink:href="#L" id="r" gradientUnits="userSpaceOnUse" gradientTransform="matrix(-.0006 -.0022 .0065 -.0018 -109.15 38.65)" x1="-819.2" x2="819.2" spreadMethod="pad"/><linearGradient xlink:href="#M" id="s" gradientUnits="userSpaceOnUse" gradientTransform="matrix(.0007 .0019 -.0041 .0015 -114.55 40.35)" x1="-819.2" x2="819.2" spreadMethod="pad"/><linearGradient xlink:href="#N" id="t" gradientUnits="userSpaceOnUse" gradientTransform="matrix(.0008 .0022 -.003 .0011 -116.65 42.5)" x1="-819.2" x2="819.2" spreadMethod="pad"/></defs></svg>