<?xml version="1.0" encoding="UTF-8" standalone="no"?>
<svg
   xmlns:dc="http://purl.org/dc/elements/1.1/"
   xmlns:cc="http://creativecommons.org/ns#"
   xmlns:rdf="http://www.w3.org/1999/02/22-rdf-syntax-ns#"
   xmlns:svg="http://www.w3.org/2000/svg"
   xmlns="http://www.w3.org/2000/svg"
   xmlns:sodipodi="http://sodipodi.sourceforge.net/DTD/sodipodi-0.dtd"
   xmlns:inkscape="http://www.inkscape.org/namespaces/inkscape"
   version="1.1"
   id="Layer_1"
   width="91.199905"
   height="62.699993"
   xml:space="preserve"
   sodipodi:docname="ika.svg"
   inkscape:version="1.0.1 (3bc2e813f5, 2020-09-07)"><metadata
   id="metadata92"><rdf:RDF><cc:Work
       rdf:about=""><dc:format>image/svg+xml</dc:format><dc:type
         rdf:resource="http://purl.org/dc/dcmitype/StillImage" /></cc:Work></rdf:RDF></metadata><defs
   id="defs90" /><sodipodi:namedview
   pagecolor="#ffffff"
   bordercolor="#666666"
   borderopacity="1"
   objecttolerance="10"
   gridtolerance="10"
   guidetolerance="10"
   inkscape:pageopacity="0"
   inkscape:pageshadow="2"
   inkscape:window-width="1920"
   inkscape:window-height="1057"
   id="namedview88"
   showgrid="false"
   inkscape:zoom="4.625"
   inkscape:cx="-11.280433"
   inkscape:cy="38.975275"
   inkscape:window-x="-8"
   inkscape:window-y="-8"
   inkscape:window-maximized="1"
   inkscape:current-layer="Layer_1" />
<g
   id="496"
   transform="matrix(3,0,0,3,48.899909,66.3)">
<path
   style="fill:#000000;fill-opacity:1"
   d="m 3.15,-10.15 0.2,-0.45 q 0.2,-0.2 0.45,-0.2 l 0.45,0.2 0.15,0.2 0.05,0.25 -0.2,0.5 -0.45,0.2 q -0.25,0 -0.45,-0.2 l -0.05,-0.1 -0.15,-0.4 m -1.8,-3.25 0.2,-0.45 q 0.2,-0.2 0.45,-0.2 l 0.45,0.2 0.2,0.45 -0.2,0.5 -0.45,0.2 q -0.25,0 -0.45,-0.2 l -0.2,-0.5"
   id="path80" />
<path
   style="fill:#fcb6c4;fill-opacity:1"
   d="m 3.3,-9.75 -2,1.15 -1,-0.1 0.2,0.35 -6.05,3.4 -0.75,1.7 0.25,0.75 0.5,0.45 -10.25,0.35 3.8,-8 0.8,0.45 1.35,1 1.5,-0.95 6.25,-3.9 0.25,0.45 7.6,-4.6 0.85,0.2 h 0.1 l 0.1,-0.1 Q 8.4,-19 9,-21.6 l 2.3,1.05 2.3,1 q -0.9,4.1 -4.2,7 L 8.55,-12.8 4.4,-10.4 4.25,-10.6 3.8,-10.8 q -0.25,0 -0.45,0.2 l -0.2,0.45 0.15,0.4 M 1.55,-12.9 q 0.2,0.2 0.45,0.2 l 0.45,-0.2 0.2,-0.5 -0.2,-0.45 -0.45,-0.2 q -0.25,0 -0.45,0.2 l -0.2,0.45 0.2,0.5"
   id="path82" />
<path
   style="fill:none;stroke:#000000;stroke-width:1;stroke-linecap:round;stroke-linejoin:round;stroke-miterlimit:3;stroke-opacity:1"
   d="m 13.6,-19.55 q -0.9,4.1 -4.2,7 m -9.1,3.85 0.2,0.35 -6.05,3.4 m 0,2.9 -10.25,0.35 3.8,-8 m 3.65,0.5 6.25,-3.9 0.25,0.45 m 8.45,-4.4 h 0.1 l 0.1,-0.1 Q 8.4,-19 9,-21.6 m 2.3,1.05 Q 10.4,-16.8 8.15,-15 m -7.85,6.3 -2.15,-3.95"
   id="path84" />
</g>
</svg>
