<svg width="160" height="182" xmlns="http://www.w3.org/2000/svg" xml:space="preserve" style="fill-rule:evenodd;clip-rule:evenodd;stroke-linecap:round;stroke-linejoin:round"><path d="M107.341 104.4h4.8c1.666 0 3.034.534 4.1 1.6 1.2 1.2 1.8 3.066 1.8 5.6 0 2.466-.6 4.3-1.8 5.5-1.066 1.066-2.434 1.6-4.1 1.6h-13.3v-3h13.2c.934 0 1.7-.3 2.3-.9.734-.734 1.1-1.8 1.1-3.2 0-1.466-.366-2.566-1.1-3.3-.6-.534-1.366-.8-2.3-.8h-10.8l1.5-3.1h4.6m-31 18.5v10.4c0 2.6-.7 4.666-2.1 6.2-1.466 1.666-3.2 2.5-5.2 2.5s-3.766-.834-5.3-2.5c-1.4-1.534-2.1-3.6-2.1-6.2v-10.4h2.4v10.4c0 1.8.5 3.3 1.5 4.5 1 1 2.166 1.5 3.5 1.5s2.466-.5 3.4-1.5c1-1.2 1.534-2.7 1.6-4.5v-10.4h2.3"/><path d="m14.15-40.65-.7.75.85 4.65-.45 1.3h.05l-1.3 10.5h.05l-.05.4v.05h-.05l-.25 3.1H10l-.75 1.55h5.4c.467 0 .85.133 1.15.4.367.367.55.917.55 1.65 0 .7-.183 1.233-.55 1.6-.3.3-.683.45-1.15.45h-3.5v-.45l-.15.45H8.05v1.45l-7.2-.7v-.05H-1.6l-1.55 1.7v1.2h-1.2v5.2c-.033.9-.3 1.65-.8 2.25-.467.5-1.033.75-1.7.75S-8.1-2.7-8.6-3.2c-.5-.6-.75-1.35-.75-2.25v-5.2h-1.2l-1.6-2.35.1-.1c-1.2-1.267-1.917-2.65-2.15-4.15l-.1-1.2.05-.95.3-19.65-.7-1.05-1.1-1.45h.2c-1.767-2.067-2.6-4.433-2.5-7.1-.1-3.533 1.683-6.8 5.35-9.8C-9.033-61.817-4.65-63.667.45-64c5.067.333 9.417 2.183 13.05 5.55 3.633 3 5.45 6.267 5.45 9.8 0 2.667-.867 5.033-2.6 7.1h.1-.05" style="fill:#fff" transform="matrix(2 0 0 2 82.741 144.2)"/><path d="M9.25 23.05c-1.767-2.067-2.6-4.433-2.5-7.1-.1-3.533 1.683-6.8 5.35-9.8C15.767 2.783 20.15.933 25.25.6c5.067.333 9.417 2.183 13.05 5.55 3.633 3 5.45 6.267 5.45 9.8 0 2.667-.867 5.033-2.6 7.1" style="fill:none;fill-rule:nonzero;stroke:#000;stroke-width:1.2px" transform="matrix(2 0 0 2 33.141 15)"/><path d="M53.25 30.981c30.046 6.553 52.165 6.336 60.349-.342" style="fill:none;stroke:#af6449;stroke-width:5px;stroke-miterlimit:1.5" transform="matrix(-1 0 0 1 166.849 0)"/><path d="M62 26.185c7.468 16.81 11.985 11.534 15 .815" style="fill:none;stroke:#af6449;stroke-width:5px;stroke-miterlimit:1.5" transform="translate(-3 -.185)"/><ellipse cx="39.922" cy="78.112" rx="13.726" ry="20.17" style="fill:#999;stroke:#000;stroke-width:2px;stroke-miterlimit:1.5" transform="scale(-1 1) rotate(6.234 -161.667 -1417.734)"/><path d="M73.92 88.248c0 11.132-26.422 10.034-33.998 10.034-7.575 0-13.726-9.038-13.726-20.17 0-11.132 6.151-20.17 13.726-20.17 7.576 0 33.551-1.694 33.551 9.438" style="fill:#3c3c3c;stroke:#000;stroke-width:2.85px;stroke-miterlimit:1.5" transform="matrix(-.69879 .07634 .07634 .69879 144.39 33.663)"/><ellipse cx="39.922" cy="78.112" rx="13.726" ry="20.17" style="fill:none;stroke:#557aa8;stroke-width:2.24px;stroke-miterlimit:1.5" transform="matrix(-.8856 .09675 .09675 .8856 138.845 19.502)"/><ellipse cx="39.922" cy="78.112" rx="13.726" ry="20.17" style="fill:#e0d7b4;stroke:#000;stroke-width:2px;stroke-miterlimit:1.5" transform="scale(-1 1) rotate(6.234 -172.826 -1212.83)"/><ellipse cx="39.922" cy="78.112" rx="13.726" ry="20.17" style="fill:#e0d7b4;stroke:#a69245;stroke-width:2.49px;stroke-miterlimit:1.5" transform="matrix(-.77183 .08432 .09 .82389 124.85 25.779)"/><path d="M55.081 94.143H44.196c.113-2.681-.28-4.038.898-6.454l-14.256-2.097m12.039 29.709 7.61-4.429m23.669-28.809 3.094-2.672m0 13.745 3.598.144m-5.757 11.946 2.951 1.655m-11.227 5.181.216 3.239m-37.075-11.967 15.138-3.196c.474 2.513 1.033 4.423 1.698 5.592l9.632 2.568 2.152-2.059m0-24.176-2.152-2.197-8.318 1.243c.896-1.527 1.928-2.904 4.168-3.855l-9.876-4.604M66 76.175V72.65l-7.424 2.423" style="fill:none;stroke:#325b8d;stroke-width:2px;stroke-miterlimit:1.5" transform="scale(-1 1) rotate(6.234 -12.602 -1444.238)"/><path d="M116.904 71.453c-11.866 9.448-35.182 6.59-41 7m-29-2.949 16-5.051" style="fill:none;stroke:#545c90;stroke-width:2.5px;stroke-miterlimit:1.5" transform="matrix(-1 0 0 1 172.904 -4.453)"/><path d="M-1.55.85H1.6" fill="none" stroke="#000" stroke-linecap="round" stroke-linejoin="round" stroke-width="1.5" id="gikopoipoi_eyes_closed" style="display:none" transform="matrix(2 0 0 2 108.241 38.2)"/><path d="m109.641 37.6 3.7 4.4h-2.1l-2.9-2.4-2.9 2.4h-2.1l3.8-4.4h2.5" fill-rule="evenodd" id="gikopoipoi_eyes_open" style="stroke-width:2"/></svg>