<svg width="160" height="182" xmlns="http://www.w3.org/2000/svg" xml:space="preserve" style="fill-rule:evenodd;clip-rule:evenodd;stroke-linecap:round;stroke-linejoin:round;stroke-miterlimit:1.5"><path d="M62 26.185c7.468 16.81 11.985 11.534 15 .815" style="fill:none;stroke:#af6449;stroke-width:5px" transform="matrix(-1 0 0 1 137 -10.185)"/><path d="M-15.5-41.55c-1.767-2.067-2.6-4.433-2.5-7.1-.1-3.533 1.683-6.8 5.35-9.8C-8.983-61.817-4.6-63.667.5-64c5.067.333 9.417 2.183 13.05 5.55 3.633 3 5.45 6.267 5.45 9.8 0 2.667-.867 5.033-2.6 7.1h.1-.05l-2.37 2.45.75 1.75c.813.668-.252 3.051-2 5l-.18 8.85v.5h-.05l-.27 13.9h-6.5l-.5-4.5-4.43.05h-2.45l-1.62 1.2-8.93-.65.1-.1c-1.2-1.267-1.917-2.65-2.15-4.15 0 0 6.817-10.783 6.55-11.65l.45-6.3-1.35-.1-.5 6.45.15.05v.05h.05l-4.4-.15h.1l.7-9.65-.85-.05-.4-.05v-.15l-2.05-2.75h.2" style="fill:#fff" transform="matrix(2 0 0 2 82.341 144.2)"/><path d="m104.349 69.695 11.279 2.964 1.92-.56c4.313-.77 6.44-1.1 6.993 5.651-1.929 5.12-6.055 10.405-10.495 4.381L102.46 79.3" style="fill:#fff;stroke:#000;stroke-width:2.5px;stroke-linecap:butt" transform="rotate(106.24 103.309 75.405)"/><path d="m55.541 96.2-1.1-1-.4-.5-.4-.2-.4-.4c-1.2-1.134-1.566-2.766-1.1-4.9.2-.066.3-.266.3-.6l1.2-2.4h-.2l-.1-.7h.1l.4-5.3V80l.1.1 1.9-13.1 1.7.1-1.4 19.3h-.2l-.5 1.5-.5 1-.3.8.8 2.4.4.7c.934.866 1.8 1.434 2.6 1.7h1c2.066.4 3.466 0 4.2-1.2 1.466-.6 2.1-1.866 1.9-3.8l-.8-2.8h-.1v-.1l-.3-.1 1-12.9 2.7.2-.9 12.6c.534 1.734.834 3.066.9 4-.334 2.2-1.166 3.8-2.5 4.8.266.466.134.566-.4.3-1.466 1.8-3.466 2.366-6 1.7l-.5.1c-1.066.066-2.1-.3-3.1-1.1"/><path d="M100.29 125.133v11.43c0 3.472-2.796 6.29-6.24 6.29-3.445 0-6.241-2.818-6.241-6.29v-11.43" style="fill:#fff;stroke:#000;stroke-width:2.5px;stroke-linecap:butt;stroke-linejoin:miter" transform="translate(6.191 -1.853)"/><path d="M100.29 125.133v11.43c0 3.472-2.796 6.29-6.24 6.29-3.445 0-6.241-2.818-6.241-6.29v-11.43" style="fill:#fff;stroke:#000;stroke-width:2.5px;stroke-linecap:butt;stroke-linejoin:miter" transform="rotate(-90 78.469 128.322)"/><path d="M3.1 23.05C1.333 20.983.5 18.617.6 15.95c-.1-3.533 1.683-6.8 5.35-9.8C9.617 2.783 14 .933 19.1.6c5.067.333 9.417 2.183 13.05 5.55 3.633 3 5.45 6.267 5.45 9.8 0 2.667-.867 5.033-2.6 7.1" style="fill:none;fill-rule:nonzero;stroke:#000;stroke-width:1.2px;stroke-miterlimit:4" transform="matrix(2 0 0 2 45.141 15)"/><path d="M93.141 56.1c.2.6.5 1.1.9 1.5l1.4.5 1.9-1.2c.534-.866.8-1.966.8-3.3 0-1.8-.6-3.966-1.8-6.5h2.1c1.2 2.134 1.8 4.234 1.8 6.3s-.434 3.666-1.3 4.8c-.8 1.066-1.866 1.6-3.2 1.6-1.8 0-3.066-.934-3.8-2.8-.8 1.866-2.066 2.8-3.8 2.8-1.4 0-2.5-.566-3.3-1.7-.866-1.134-1.3-2.7-1.3-4.7 0-2.066.634-4.166 1.9-6.3h2c-1.134 2.534-1.7 4.7-1.7 6.5 0 1.334.234 2.434.7 3.3.534.8 1.166 1.2 1.9 1.2.534 0 1-.2 1.4-.6l.9-1.4.2-2.3v-3.6h2.1v3.6l.2 2.3"/><path d="M53.25 30.981c30.046 6.553 52.165 6.336 60.349-.342" style="fill:none;stroke:#af6449;stroke-width:5px"/><ellipse cx="39.922" cy="78.112" rx="13.726" ry="20.17" style="fill:#999;stroke:#000;stroke-width:2px" transform="rotate(16.178 -9.856 119.675)"/><path d="M73.92 88.248c0 11.132-26.422 10.034-33.998 10.034-7.575 0-13.726-9.038-13.726-20.17 0-11.132 6.151-20.17 13.726-20.17 7.576 0 33.551-1.694 33.551 9.438" style="fill:#3c3c3c;stroke:#000;stroke-width:2.85px" transform="rotate(16.179 -98.042 154.24) scale(.70294)"/><ellipse cx="39.922" cy="78.112" rx="13.726" ry="20.17" style="fill:none;stroke:#557aa8;stroke-width:2.24px" transform="rotate(16.178 -48.395 175.564) scale(.89087)"/><ellipse cx="39.922" cy="78.112" rx="13.726" ry="20.17" style="fill:#e0d7b4;stroke:#000;stroke-width:2px" transform="rotate(16.178 -21.015 198.189)"/><ellipse cx="39.922" cy="78.112" rx="13.726" ry="20.17" style="fill:#e0d7b4;stroke:#a69245;stroke-width:2.49px" transform="matrix(.74567 .21633 -.23092 .79597 59.701 29.035)"/><ellipse cx="39.922" cy="78.112" rx="13.726" ry="20.17" style="fill:#caba7e;stroke:#d3c796;stroke-width:7.19px" transform="matrix(.25837 .07496 -.08001 .2758 69.332 75.31)"/><path d="M55.081 94.143H44.196c.113-2.681-.28-4.038.898-6.454l-14.256-2.097m12.039 29.709 7.61-4.429m23.669-28.809 3.094-2.672m0 13.745 3.598.144m-5.757 11.946 2.951 1.655m-11.227 5.181.216 3.239m-37.075-11.967 15.138-3.196c.474 2.513 1.033 4.423 1.698 5.592l9.632 2.568 2.152-2.059m0-24.176-2.152-2.197-8.318 1.243c.896-1.527 1.928-2.904 4.168-3.855l-9.876-4.604M66 76.175V72.65l-7.424 2.423" style="fill:none;stroke:#325b8d;stroke-width:2px" transform="rotate(16.178 48.421 114.463)"/><path d="M110.021 66.439c-4.636 5.395-11.128.869-33.412 16.15m-29.323-6.567 7.586-9.583" style="fill:none;stroke:#545c90;stroke-width:2.5px"/><path d="m119.259 70.495 3.286-18.545c2.852-2.884 4.08-1.437 5.047.704l-4.225 19.484c-1.528 1.709-3.174 2.556-4.108-1.643Z" style="fill:#907554;stroke:#000;stroke-width:2px;stroke-linecap:butt" transform="rotate(-130.5 111.585 87.57)"/><path d="m109.341 37.6 3.7 4.4h-2.1l-2.9-2.4-2.9 2.4h-2.1l3.8-4.4h2.5m-32.5 0 3.7 4.4h-2.1l-2.9-2.4-2.9 2.4h-2.1l3.8-4.4h2.5" style="stroke-width:2" id="gikopoipoi_eyes_open" fill-rule="evenodd"/><g style="display:none" fill="none" stroke="#000" stroke-linecap="round" stroke-linejoin="round" stroke-width="3" id="gikopoipoi_eyes_closed"><path d="M72.341 39.9h6.3m26.2 0h6.3" style="display:inline"/></g></svg>