<svg width="160" height="182" xmlns="http://www.w3.org/2000/svg" xml:space="preserve" style="fill-rule:evenodd;clip-rule:evenodd;stroke-linecap:round;stroke-linejoin:round;stroke-miterlimit:1.5"><path d="M62 26.185c7.468 16.81 11.985 11.534 15 .815" style="fill:none;stroke:#af6449;stroke-width:5px" transform="matrix(-1 0 0 1 137 -10.185)"/><path d="M-15.5-41.55c-1.767-2.067-2.6-4.433-2.5-7.1-.1-3.533 1.683-6.8 5.35-9.8C-8.983-61.817-4.6-63.667.5-64c5.067.333 9.417 2.183 13.05 5.55 3.633 3 5.45 6.267 5.45 9.8 0 2.667-.867 5.033-2.6 7.1h.1-.05l-2.6 3.1v.8l-.2-.95-.8.05.65 9.65h.15l.25.75.2.5.2.4-.15.45-.3.75-.2.35-.9.7h-.05l-.05 1.5h.05l-.05.5h-.05l-.05.45h.05l-.25 2.65h-1.8l-.75 1.55h5.4l1.15.4c.367.367.55.917.55 1.65 0 .7-.183 1.233-.55 1.6-.3.3-.683.45-1.15.45H8.6v1.45l-4.5-.25.65-.5c.6-.6.9-1.517.9-2.75 0-1.267-.3-2.2-.9-2.8-.533-.533-1.217-.8-2.05-.8h-6.6v1.55h6.55c.467 0 .85.133 1.15.4.367.367.55.917.55 1.65 0 .7-.183 1.233-.55 1.6-.3.3-.683.45-1.15.45H-3.9v1.4l-6.55-.35-1.95-.4c-.967-1.133-1.55-2.35-1.75-3.65l-.1-1.2.05-.95.55-1.85h.1v-.55l.15-.15V-24c.5.4 1.017.583 1.55.55l.25-.05c1.267.333 2.267.05 3-.85.267.133.333.083.2-.15.667-.5 1.083-1.3 1.25-2.4-.033-.467-.183-1.133-.45-2l.45-6.3-1.35-.1-.5 6.45.15.05v.05h.05l.4 1.4c.1.967-.217 1.6-.95 1.9-.367.6-1.067.8-2.1.6h-.5c-.4-.133-.833-.417-1.3-.85l-.2-.35v-2.1l.25-.75h.1l.7-9.65-.85-.05-.4-.05v-.15l-2.05-2.75h.2M-13.8-22l.05.1-.05-.1m3.75-6.45-.05-.05v.05h.05" style="fill:#fff" transform="matrix(2 0 0 2 82.341 144.2)"/><path d="m110.041 68.9 1.3 7.3.3 3.9.1-.1v.2l.4 5.3v.7h-.2v.2c.334.934.734 1.666 1.2 2.2-.066.334.034.534.3.6.4 2.134 0 3.766-1.2 4.9l-.3.4c-.2-.066-.334 0-.4.2l-.5.5-1.1 1c-.734.534-1.466.866-2.2 1h-.1l.1-3h.1l1.8-1.4.4-.7.6-1.5.3-.9-.4-.8-.4-1-.5-1.5h-.3l-1.3-19.3 1.6-.1.4 1.9m-3 35.5h5.8c1.666 0 3.034.534 4.1 1.6 1.2 1.2 1.8 3.066 1.8 5.6 0 2.466-.6 4.3-1.8 5.5-1.066 1.066-2.434 1.6-4.1 1.6h-13.3v-3h13.2c.934 0 1.7-.3 2.3-.9.734-.734 1.1-1.8 1.1-3.2 0-1.466-.366-2.566-1.1-3.3l-2.3-.8h-10.8l1.5-3.1h3.6m-16.5 13.7-2.6.6h-13.4v-3h13.1c.934 0 1.7-.3 2.3-.9.734-.734 1.1-1.8 1.1-3.2 0-1.466-.366-2.566-1.1-3.3-.6-.534-1.366-.8-2.3-.8h-13.1v-3.1h13.2c1.666 0 3.034.534 4.1 1.6 1.2 1.2 1.8 3.066 1.8 5.6 0 2.466-.6 4.3-1.8 5.5l-1.3 1m-37-31.7.1-.2h-.2l-.1-.7h.1l.4-5.3V80l.1.1.2-3.9 1.7-9.2 1.7.1-1.4 19.3h-.2l8.8.3h-.1v-.1l-.3-.1 1-12.9 2.7.2-.9 12.6"/><path d="m119.259 70.495 3.286-18.545c2.852-2.884 4.08-1.437 5.047.704l-4.225 19.484c-1.528 1.709-3.174 2.556-4.108-1.643Z" style="fill:#907554;stroke:#000;stroke-width:2px;stroke-linecap:butt" transform="rotate(-176.591 111.042 84.62)"/><path d="M3.1 23.05C1.333 20.983.5 18.617.6 15.95c-.1-3.533 1.683-6.8 5.35-9.8C9.617 2.783 14 .933 19.1.6c5.067.333 9.417 2.183 13.05 5.55 3.633 3 5.45 6.267 5.45 9.8 0 2.667-.867 5.033-2.6 7.1" style="fill:none;fill-rule:nonzero;stroke:#000;stroke-width:1.2px;stroke-miterlimit:4" transform="matrix(2 0 0 2 45.141 15)"/><path d="M93.141 56.1c.2.6.5 1.1.9 1.5l1.4.5 1.9-1.2c.534-.866.8-1.966.8-3.3 0-1.8-.6-3.966-1.8-6.5h2.1c1.2 2.134 1.8 4.234 1.8 6.3s-.434 3.666-1.3 4.8c-.8 1.066-1.866 1.6-3.2 1.6-1.8 0-3.066-.934-3.8-2.8-.8 1.866-2.066 2.8-3.8 2.8-1.4 0-2.5-.566-3.3-1.7-.866-1.134-1.3-2.7-1.3-4.7 0-2.066.634-4.166 1.9-6.3h2c-1.134 2.534-1.7 4.7-1.7 6.5 0 1.334.234 2.434.7 3.3.534.8 1.166 1.2 1.9 1.2.534 0 1-.2 1.4-.6l.9-1.4.2-2.3v-3.6h2.1v3.6l.2 2.3"/><path d="M53.25 30.981c30.046 6.553 52.165 6.336 60.349-.342" style="fill:none;stroke:#af6449;stroke-width:5px"/><ellipse cx="39.922" cy="78.112" rx="13.726" ry="20.17" style="fill:#999;stroke:#000;stroke-width:2px" transform="rotate(16.178 -9.856 119.675)"/><path d="M73.92 88.248c0 11.132-26.422 10.034-33.998 10.034-7.575 0-13.726-9.038-13.726-20.17 0-11.132 6.151-20.17 13.726-20.17 7.576 0 33.551-1.694 33.551 9.438" style="fill:#3c3c3c;stroke:#000;stroke-width:2.85px" transform="rotate(16.179 -98.042 154.24) scale(.70294)"/><ellipse cx="39.922" cy="78.112" rx="13.726" ry="20.17" style="fill:none;stroke:#557aa8;stroke-width:2.24px" transform="rotate(16.178 -48.395 175.564) scale(.89087)"/><ellipse cx="39.922" cy="78.112" rx="13.726" ry="20.17" style="fill:#e0d7b4;stroke:#000;stroke-width:2px" transform="rotate(16.178 -21.015 198.189)"/><ellipse cx="39.922" cy="78.112" rx="13.726" ry="20.17" style="fill:#e0d7b4;stroke:#a69245;stroke-width:2.49px" transform="matrix(.74567 .21633 -.23092 .79597 59.701 29.035)"/><path d="M55.081 94.143H44.196c.113-2.681-.28-4.038.898-6.454l-14.256-2.097m12.039 29.709 7.61-4.429m23.669-28.809 3.094-2.672m0 13.745 3.598.144m-5.757 11.946 2.951 1.655m-11.227 5.181.216 3.239m-37.075-11.967 15.138-3.196c.474 2.513 1.033 4.423 1.698 5.592l9.632 2.568 2.152-2.059m0-24.176-2.152-2.197-8.318 1.243c.896-1.527 1.928-2.904 4.168-3.855l-9.876-4.604M66 76.175V72.65l-7.424 2.423" style="fill:none;stroke:#325b8d;stroke-width:2px" transform="rotate(16.178 48.421 114.463)"/><path d="M110.021 66.439c-4.636 5.395-11.128.869-33.412 16.15m-29.323-6.567 7.586-9.583" style="fill:none;stroke:#545c90;stroke-width:2.5px"/><path d="m109.341 37.6 3.7 4.4h-2.1l-2.9-2.4-2.9 2.4h-2.1l3.8-4.4h2.5m-32.5 0 3.7 4.4h-2.1l-2.9-2.4-2.9 2.4h-2.1l3.8-4.4h2.5" style="stroke-width:2" id="gikopoipoi_eyes_open" fill-rule="evenodd"/><g style="display:none" fill="none" stroke="#000" stroke-linecap="round" stroke-linejoin="round" stroke-width="3" id="gikopoipoi_eyes_closed"><path d="M72.341 39.9h6.3m26.2 0h6.3" style="display:inline"/></g></svg>