<svg xmlns:xlink="http://www.w3.org/1999/xlink" height="195.9" width="264.3" xmlns="http://www.w3.org/2000/svg"><g transform="translate(209.3 192.7)"><use height="103.6" transform="translate(-187.85 -159.25)" width="230.75" xlink:href="#shape0"/><use height="170.05" transform="translate(-124.65 -166.85)" width="167.5" xlink:href="#sprite0"/><use height="129.05" transform="translate(-209.3 -192.7)" width="264.3" xlink:href="#shape2"/><use height="11.25" transform="translate(-134.25 -169.85)" width="35.2" xlink:href="#sprite1"/></g><defs><g id="shape0"><path d="M42.2-78.35l.2.75-.05.4-.35.65-.5.3-.35.1-.35.05-.2.1-.3.15-.65.35-32 15.8q-.65-.05-1.05-.45l-.15-.15q-.25-.3-.25-.7l-.05-.2.05-.4-6.55-3.3 1.55-.5-.3.7 2.85-.9 5 2.5-.85.4h-.25q-.65 0-1.05.4l-.4.7.4-.7q.4-.4 1.05-.4h.25l.85-.4 13.55-6.65-3.55-1.2 2.9-.95 2.95 1.05 10.8-5.35 6.8-2.15m-17.6 7.5l-2.3 1.1 2.3-1.1m13.1 11.3l.1.05q.55.6.55 1.45 0 .9-.65 1.5l-.45.4-12.95-11.7.65-.3 1.9-.95 9.9 8.95.95.6M37.6-57L24.95-68.15 37.6-57m-224.2-101l1.05-.35-.25.7 3.4-1.1 2.75 1.35.25 3-7.2-3.6m14.45 7.2l1.1-.35-.25.7 3.35-1.05 2.75 1.35.25 2.95-7.2-3.6m93.05 43.7l.3 3-7.5-3.75 1.3-.45-.25.7 3.15-1 3 1.5m7.2 6.45l1.4-.45-.25.7 3.1-1 2.85 1.45.3 3-7.4-3.7m-64.5-35.1l.25 3-7.35-3.7 1.2-.4-.25.7 3.3-1.05 2.85 1.45m7.35 6.5l1.25-.4-.25.7 3.2-1 2.75 1.35.3 3-7.25-3.65m-21.9-13.75l.3 2.95-7.05-3.55 1.1-.35-.25.7 3.35-1.05 2.55 1.3m43.35 24.5l-7.2-3.6 1.3-.45-.25.7 3.15-1 2.7 1.35.3 3m7.05 3.5l1.25-.4-.25.7 3.2-1 2.75 1.35.3 3-7.25-3.65m64.4 29.4l.3 3-7.45-3.75 1.45-.45-.25.7 3-.95 2.95 1.45m14.5 7.25l.3 3-7.7-3.85 1.5-.5-.25.7 2.95-.95 3.2 1.6M-14.6-72l1.55-.5-.25.7 2.85-.9 3.1 1.55.3 2.95-7.55-3.8m-35.85-20.75l.3 3-7.5-3.75 1.45-.5-.25.7 3-.95 3 1.5" fill="#f0f0f0" fill-rule="evenodd" transform="translate(187.85 159.25)"/><path d="M36.75-60.15l.95.6" fill="none" stroke="#f0f0f0" stroke-linecap="round" stroke-linejoin="round" transform="translate(187.85 159.25)"/><path d="M24.95-68.15L37.6-57" fill="none" stroke="#fff" stroke-linecap="round" stroke-linejoin="round" transform="translate(187.85 159.25)"/><path d="M-.35-64.9l6.55 3.3M-186.6-158l7.2 3.6m7.25 3.6l7.2 3.6m78.65 39.35l7.5 3.75m6.9 3.45l7.4 3.7m-79-39.5l7.35 3.7m7.1 3.5l7.25 3.65m-35.9-18l7.05 3.55m35.85 17.95l7.2 3.6m7.05 3.5l7.25 3.65m50 25l7.45 3.75m6.8 3.4l7.7 3.85M-14.6-72l7.55 3.8m-50.6-25.3l7.5 3.75" fill="none" stroke="#f0f0f0" stroke-linecap="round" stroke-linejoin="round" transform="translate(187.85 159.25)"/><path d="M42.2-78.35l.2.75-.05.4-.35.65-.5.3-.35.1-.35.05-.2.1-.3.15-.65.35-32 15.8q-.65-.05-1.05-.45l-.15-.15q-.25-.3-.25-.7l-7.3-3.65m9.85 1.55l-5-2.5m2.45 4l.4-.7q.4-.4 1.05-.4h.25l.85-.4 13.55-6.65-3.55-1.2m2.9-.95l2.95 1.05 10.8-5.35M6.2-61l-.05-.2.05-.4m16.1-8.15l2.3-1.1m13.1 11.3l.1.05q.55.6.55 1.45 0 .9-.65 1.5l-.45.4-12.95-11.7.65-.3 1.9-.95 9.9 8.95m-216.4-97.25l-2.75-1.35m17.2 8.6l-2.75-1.35m-11.35-2.25l-8.05-4m22.5 11.25l-8.05-4.05m93.8 43.45l-3-1.5m17.3 8.65l-2.85-1.45m-68.75-34.35l-2.85-1.45m17.15 8.6l-2.75-1.35m3.1 5l-8.05-4.05m-21.15-14l-2.55-1.3m2.95 4.95l-7.95-4m22.45 11.25l-8.2-4.1m36.35 14.7l-2.7-1.35m3.05 4.95l-8-4m21.95 7.55l-2.75-1.35m3.1 4.95l-8.05-4m65.15 29.15l-2.95-1.45m17.45 8.7l-3.2-1.6m3.55 5.2L-29.75-79m22.4 7.85l-3.1-1.55M-7-67.6l-8.35-4.15m-35.1-21l-3-1.5m3.35 5.1l-8.3-4.15M-35.8-82l-8.2-4.1m-20.45-10.2l-8.2-4.1m-6.1-3.05l-8.3-4.2" fill="none" stroke="#737373" stroke-linecap="round" stroke-linejoin="round" transform="translate(187.85 159.25)"/></g><g id="shape2"><path d="M8.25-103.25l1-.3 9.05-2.9.4 3.9.2 1.9-48.05 15.2-2.35 7-4.15-2-.8-8.05-.05-.6 44.75-14.15m-3.65-4.5l-48.05 15.2-2.35 7-4.15-2-.8-8.15-.05-.5 44.85-14.2.8-.25 9.15-2.9.4 3.9.2 1.9M23.5-96.3l9.3-2.95.4 3.9.2 1.9-48.05 15.2-2.35 7-4.15-2-.8-8.2-.05-.45 44.75-14.15.75-.25m14.55 7.05l9.05-2.9.6 5.8-48.05 15.2-2.35 7-4.15-2-.8-8.05-.05-.6 44.75-14.15 1-.3m-232.5-77.9l-.05-.6 44.75-14.15 1-.3 9.05-2.9.4 3.9.2 1.9-48.05 15.2-2.35 7-4.15-2-.8-8.05m-7-4.05l-2.35 7-4.15-2-.85-8.65 54.8-17.35.4 3.9.2 1.9-48.05 15.2m21.5 11.1l-.05-.45 44.75-14.15.75-.25 9.3-2.95.4 3.9.2 1.9-48.05 15.2-2.35 7-4.15-2-.8-8.2m14.45 7.2l-.05-.45 44.75-14.15.8-.25 9.25-2.95.4 3.9.2 1.9-48.05 15.2-2.35 7-4.15-2-.8-8.2m88.8 6.5l9.05-2.9.4 3.9.2 1.9-48.05 15.2-2.35 7-4.15-2-.8-8.05-.05-.6 44.75-14.15 1-.3m14.3 7.1l8.95-2.85.4 3.9.2 1.9-48.05 15.2-2.35 7-4.15-2-.8-8.05-.05-.6 44.9-14.2.95-.3m14.2 7.15l9.05-2.9.4 3.9.2 1.9-48.05 15.2-2.35 7-4.15-2-.8-8.05-.05-.6 44.75-14.15 1-.3m14.25 7.25l9.3-2.95.4 3.9.2 1.9-48.05 15.2-2.35 7-4.15-2-.8-8.2-.05-.45 44.75-14.15.75-.25m23.5 4.2l.1-.05.4 3.9.2 1.9-48.05 15.2-2.35 7-4.15-2-.8-8.05-.05-.6 44.75-14.15 1-.3 8.95-2.85m-95.05-40l8.95-2.85.1-.05.4 3.9.2 1.9-48.05 15.2-2.35 7-4.15-2-.8-8.05-.05-.6 44.75-14.15 1-.3m14.25 7.25l9.3-2.95.4 3.9.2 1.9-48.05 15.2-2.35 7-4.15-2-.8-8.2-.05-.45L-92-153.2l.75-.25" fill="#a61e1e" fill-rule="evenodd" transform="translate(209.3 192.7)"/><path d="M8.1-103.3l.15.05L-36.5-89.1l.05.6-1 .3v-.65l-3.05-1.65-1.35 3.7-3.95 1.25 2.35-7 6.75 3.4L8.1-103.3m-14.05-7.1L-50.8-96.2l.05.5-1.05.3v-.65l-3.05-1.65-1.35 3.7-3.95 1.25 2.35-7 6.75 3.4 44.8-14.15.3.1M47.7-86.35l6.8-2.15-2.4 7L5.7-66.8l1.1-5.4-2.9.85-2.7 5.95-3.9 1.25 2.35-7 48.05-15.2M-7.65-74.2l-1 .3v-.65l-3.05-1.65-1.35 3.7-3.95 1.25 2.35-7 6.75 3.4L36.9-89l.15.05L-7.7-74.8l.05.6m-14.3-7.25l-1.2.35v-.65l-3.05-1.65-1.35 3.7-3.95 1.25 2.35-7 6.75 3.4L22.4-96.2l.35.15L-22-81.9l.05.45m-172.55-86.3l.05.6-1 .3v-.65l-3.05-1.65-1.35 3.7-3.95 1.25 2.35-7 6.75 3.4 44.8-14.15.15.05-44.75 14.15m5 10.65l2.35-7 6.75 3.4 44.8-14.15.35.15-44.75 14.15.05.45-1.2.35v-.65l-3.05-1.65-1.35 3.7-3.95 1.25m14.5 7.2l2.35-7 6.75 3.4 44.8-14.15.3.15-44.75 14.15.05.45-1.15.35v-.65l-3.05-1.65-1.35 3.7-3.95 1.25m125.8 18.05l-44.75 14.15.05.6-1 .3v-.65l-3.05-1.65-1.35 3.7-3.95 1.25 2.35-7 6.75 3.4 44.8-14.15.15.05m-39.75 24.8l2.35-7 6.75 3.4 44.8-14.15.35.15-44.75 14.15.05.45-1.2.35v-.65l-3.05-1.65-1.35 3.7-3.95 1.25m25.6-31.95l-44.9 14.2.05.6-.9.25v-.65l-3.05-1.65-1.35 3.7-3.95 1.25 2.35-7 6.75 3.4 44.8-14.15.2.05m-14.5-7.15l.15.05-44.75 14.15.05.6-1 .3v-.65l-3.05-1.65-1.35 3.7-3.95 1.25 2.35-7 6.75 3.4 44.8-14.15m3.4 46.3l2.35-7 6.75 3.4 44.8-14.15.15.05-44.75 14.15.05.6-1 .3v-.65l-3.05-1.65-1.35 3.7-3.95 1.25m-32.2-60.6l.15.05-44.75 14.15.05.6-1 .3v-.65l-3.05-1.65-1.35 3.7-3.95 1.25 2.35-7 6.75 3.4 44.8-14.15m14.3 7.1l.35.15-44.75 14.15.05.45-1.2.35v-.65l-3.05-1.65-1.35 3.7-3.95 1.25 2.35-7 6.75 3.4 44.8-14.15" fill="#7c2e2e" fill-rule="evenodd" transform="translate(209.3 192.7)"/><path d="M9.3-103.7l-1.2.4-44.8 14.15-6.75-3.4 48.05-15.2 6.8-2.15 6.75 3.4-8.85 2.8m23.15 4.3l-8.85 2.8-1.2.4-44.8 14.15-6.75-3.4 48.05-15.2 6.8-2.15 6.75 3.4m14.5 7.2l-8.85 2.8-1.2.4-44.8 14.15-6.75-3.4 48.05-15.2 6.8-2.15 6.75 3.4m-196.85-89.75l-44.8 14.15-6.75-3.4 48.05-15.2 6.8-2.15 6.75 3.4-8.85 2.8-1.2.4m-37.25 17.85l48.05-15.2 6.8-2.15 6.75 3.4-8.85 2.8-1.2.4-44.8 14.15-6.75-3.4m66.05-3.55l-44.8 14.15-6.75-3.4 48.05-15.2 6.8-2.15 6.75 3.4-8.85 2.8-1.2.4m53.3 18.3l-8.85 2.8-1.2.4-44.8 14.15-6.75-3.4 48.05-15.2 6.8-2.15 6.75 3.4m14.3 7.1l-8.85 2.8-1.2.4-44.8 14.15-6.75-3.4 48.05-15.2 6.8-2.15 6.75 3.4m14.2 7.15l-8.85 2.8-1.2.4-44.8 14.15-6.75-3.4 48.05-15.2 6.8-2.15 6.75 3.4M-25-128l-8.85 2.8-1.2.4-44.8 14.15-6.75-3.4 48.05-15.2 6.8-2.15L-25-128m13.2 6.55l1.3.65-.1.05-8.75 2.75-1.2.4-44.8 14.15-6.75-3.4 48.05-15.2 6.8-2.15 5.45 2.75 1.2.7-1.2-.7m15.6 7.75l-8.85 2.8-1.2.4-44.8 14.15-6.75-3.4 48.05-15.2 6.8-2.15 6.75 3.4m-113.95-51.2l6.8-2.15 5.4 2.75 1.25.7-1.25-.7 1.35.65-.1.05-8.75 2.75-1.2.4-44.8 14.15-6.75-3.4 48.05-15.2m27.85 8.35l-8.85 2.8-1.2.4-44.8 14.15-6.75-3.4 48.05-15.2 6.8-2.15 6.75 3.4" fill="#e05454" fill-rule="evenodd" transform="translate(209.3 192.7)"/><path d="M5.7-66.8l-.15.6L.9-64.7l.3-.7 2.7-5.95 2.9-.85-1.1 5.4m-14.35-7.1v.6l-4.65 1.5.25-.7 1.35-3.7 3.05 1.65v.65m-14.5-7.2v.6L-27.8-79l.25-.7 1.35-3.7 3.05 1.65v.65m-14.3-7.1v.6l-4.65 1.5.25-.7 1.35-3.7 3.05 1.65v.65m-162.4-77.25l1.35-3.7 3.05 1.65v1.25l-4.65 1.5.25-.7m18.7 5.7v.6l-4.65 1.5.25-.7 1.35-3.7 3.05 1.65v.65m10.1 8.6l1.35-3.7 3.05 1.65v1.25l-4.65 1.5.25-.7m71.75 35.75l1.35-3.7 3.05 1.65v1.25l-4.65 1.5.25-.7m-14.2-7.15l1.35-3.7 3.05 1.65v1.25l-4.65 1.5.25-.7M-85-108.3l1.35-3.7 3.05 1.65v1.25l-4.65 1.5.25-.7m14.5 7.2l1.35-3.7 3.05 1.65v1.25l-4.65 1.5.25-.7m-71.8-35.75l1.35-3.7 3.05 1.65v1.25l-4.65 1.5.25-.7m18.9 5.8v.6l-4.65 1.5.25-.7 1.35-3.7 3.05 1.65v.65m-28.8-14.3v.6l-4.65 1.5.25-.7 1.35-3.7 3.05 1.65v.65M-51.8-95.4v.6l-4.65 1.5.25-.7 1.35-3.7 3.05 1.65v.65" fill="#515151" fill-rule="evenodd" transform="translate(209.3 192.7)"/><path d="M8.1-103.3l.15.05m1-.3l.05-.15m-4.9-5.95l.1.9m-.1-.9l-.4-3.9m14.7 11l-.4-3.9m.4 3.9l.1.9m4.8 5.05l-.1.3m9.3-2.95l.4 3.9.1.9m4.8 5.05l-.05.15m9.05-2.9l.6 5.8M36.9-89l.15.05M22.4-96.2l.35.15m-172.5-85.85l-.15-.05m10.6.75l-.4-3.9m4.45 10.4l-.35-.15m14.8 7.35l-.3-.15m-3.7-6.35l-.4-3.9m-28.8-14.3l.4 3.9.1.9m4.8 5.05l-.05.15m72.1 35.65l-.05.15m9.05-2.9l.4 3.9.1.9m4.8 5.05l-.05.15m8.95-2.85l.4 3.9.1.9m4.8 5.05l-.05.15m9.05-2.9l.4 3.9.1.9m4.8 5.05l-.1.3m9.3-2.95l.4 3.9.1.9m13.8 2.3l.4 3.9.1.9m4.8 5.05l-.1.25m-44.05-21.2l-.15-.05m-14-7.1l-.2-.05m-14.3-7.1l.15.05m43 21.45l-.35-.15m14.65 7.25l-.15-.05m1.15-.25l.05-.15m13.1 7.5l.3.1m-104.3-55.5l-.1-.9-.4-3.9m-9.15 2.65l-.1.3m14.55 6.9l-.05.15m-1.15.25l.15.05m10.05-3.2l.4 3.9.1.9m4.8 5.05l-.1.3m9.3-2.95l.4 3.9.1.9M-92-153.2l-.35-.15m-46.95-27.85l.1.9m4.8 5.05l-.1.3m9.7.95l.1.9" fill="none" stroke="#666" stroke-linecap="round" stroke-linejoin="round" transform="translate(209.3 192.7)"/><path d="M9.3-103.7l-1.2.4m.15.05l1-.3m.05-.15l8.85-2.8m-6.75-3.4l-6.8 2.15-48.05 15.2 6.75 3.4L8.1-103.3M4-113.55l-9.15 2.9-.8.25-44.85 14.2m5 10.65l2.35-7m61.75-13.9l-9.05 2.9m23.2 4.15l-8.85 2.8m-.1.3l9.3-2.95m14.15 7.05l-8.85 2.8-1.2.4-44.8 14.15-6.75-3.4-2.35 7m55.05-18l9.05-2.9m.6 5.8l6.8-2.15m-28.8-14.3l-6.8 2.15-48.05 15.2 6.75 3.4L22.4-96.2l1.2-.4m13.45 7.65l1-.3m-1 .3L-7.7-74.8m41.1-18.65l6.8-2.15m-6.8 2.15l-48.05 15.2m37.4-17.8l.75-.25m-.75.25L-22-81.9m-172.5-85.85l44.75-14.15m-.15-.05l-44.8 14.15-6.75-3.4-2.35 7m14.3 7.1l2.35-7 48.05-15.2 6.8-2.15m-7.4-3.65l-9.05 2.9-1 .3M-180-160.55l44.75-14.15m-.35-.15l-44.8 14.15-6.75-3.4m14.5 7.2l-2.35 7m9.45-3.45l44.75-14.15m-.3-.15l-44.8 14.15-6.75-3.4 48.05-15.2m-.6-5.8l-9.3 2.95-.75.25m-73.55-.15l54.8-17.35m14.15 7.05l-8.85 2.8-1.2.4m82.1 32.6l-8.85 2.8-1.2.4-44.8 14.15-6.75-3.4 48.05-15.2 6.8-2.15m-2.15 6.35l9.05-2.9m14.15 7.05l-8.85 2.8m-.05.15l8.95-2.85m14.15 7.05l-8.85 2.8m-.05.15l9.05-2.9M-25-128l-8.85 2.8-1.2.4-44.8 14.15-6.75-3.4 48.05-15.2 6.8-2.15m-2.2 6.5l9.3-2.95m14.15 7.05l-.1.05m.15.05l.1-.05M3.8-113.7l-8.85 2.8-1.2.4-44.8 14.15-6.75-3.4-2.35 7m7.3-43.6l6.8-2.15m-2.15 6.35l-1 .3-44.75 14.15m5 10.65l2.35-7m37.25-17.85l1.2-.4m-1.2.4l-44.8 14.15-6.75-3.4-2.35 7m40.85-25.15l-.95.3-44.9 14.2m44.7-14.25l1.2-.4m-1.2.4l-44.8 14.15-6.75-3.4-2.35 7m50.4-22.2l6.8-2.15m-17.45-.45l1-.3m-1 .3l-44.75 14.15m43 21.45l44.75-14.15.75-.25m-38.15 18.05l-2.35 7m9.3-3.55l44.75-14.15m-.15-.05l-44.8 14.15-6.75-3.4 48.05-15.2m14.3 7.1l6.8-2.15m-17.6-.5l1.2-.4 8.75-2.75m-6.65-3.45l-6.8 2.15m13.6 1.35l-8.95 2.85-1 .3m-37.4 17.8l48.05-15.2m-100.4-49.95l6.8-2.15m-7.4-3.65l-9.25 2.95-.8.25m-.3-.15l1.2-.4 8.85-2.8m-6.75-3.4l-6.8 2.15m19.1 11.4l8.95-2.85.1-.05m-.25 0l-8.75 2.75-1.2.4-44.8 14.15-6.75-3.4 48.05-15.2m3.65 4.5l1-.3m8.9-2.95l-.1.05m14.4 7.05l-8.85 2.8m-.1.3l9.3-2.95M-92-153.2l.75-.25m-1.1.1l1.2-.4m-1.2.4l-44.8 14.15-6.75-3.4-2.35 7m9.5-3.45L-92-153.2m2.95-6.75l-6.8 2.15-48.05 15.2m18.35-35.45l-8.85 2.8-1.2.4m-17.8-11.55l6.8-2.15m14.85 60.15l2.35-7m-31.15-7.3l2.35-7m51.7-10.7l-44.75 14.15M-36.5-89.1l44.75-14.15m-37.4 17.8l-2.35 7m28.8 14.3l2.35-7 48.05-15.2m-100.55-50l-48.05 15.2m33.85-22.35l-48.05 15.2m-86.35-42.9l48.05-15.2" fill="none" stroke="#eb8d8d" stroke-linecap="round" stroke-linejoin="round" transform="translate(209.3 192.7)"/><path d="M4.5-108.75l6.1-1.95 7.55 4.2m.65 4.85l6.1-1.95 7.55 4.2m.85 4.95l6.1-1.95 7.55 4.2m7.55 3.7l-2.4 7m-205.6-105.9l6.1-1.95 7.55 4.2m58.4 33.55l6.1-1.95 7.55 4.2m.65 4.85l6.1-1.95 7.55 4.2m.55 4.9l6.1-1.95 7.55 4.2m.65 4.85l6.1-1.95L-25-128m.85 4.95l6.1-1.95 6.25 3.55m1.2.7l.15.05m.6 4.75l6.1-1.95 7.55 4.2m-14.4-7.05l-1.2-.7m-86.15-42.85l-6.2-3.55-6.1 1.95m13.7 2.35l-.15-.05-1.25-.7m2 5.5l6.1-1.95 7.55 4.2m-42.4-16.55l6.1-1.95 7.55 4.2m-28.15-9.45l6.1-1.95 7.55 4.2" fill="none" stroke="#737373" stroke-linecap="round" stroke-linejoin="round" transform="translate(209.3 192.7)"/><path d="M52.1-81.5L5.7-66.8m-4.5 1.4l-3.9 1.25M-7.65-74.2l-1 .3m-4.4 1.4L-17-71.25m-4.95-10.2l-1.2.35m-4.4 1.4l-3.95 1.25m-4.95-10.05l-1 .3m-4.4 1.4l-3.95 1.25m-158-78.65l3.95-1.25m4.4-1.4l1-.3m8.9 8.8l-3.95 1.25m8.35-2.65l1.2-.35m4.95 10.2l3.95-1.25m4.4-1.4l1.15-.35m62.25 38.75l3.95-1.25m4.4-1.4l1-.3m-23.55-4.2l3.95-1.25m4.4-1.4l.9-.25m27.6 14.5l1.2-.35m-5.6 1.75l-3.95 1.25m14.5 7.2l3.95-1.25m4.4-1.4l1-.3m-81.15-32.8l3.95-1.25m4.4-1.4l1.2-.35m8.9 8.95l-3.95 1.25m9.35-2.95l-1 .3m-27.8-14.6l-1 .3m-4.4 1.4l-3.95 1.25m109.8 47l-1.05.3m-4.4 1.4l-3.95 1.25" fill="none" stroke="#8c3c3c" stroke-linecap="round" stroke-linejoin="round" transform="translate(209.3 192.7)"/><path d="M-50.8-96.2l.05.5.8 8.15 4.15 2m43.1 21.4l-4.15-2-.8-8.05M-17-71.25l-4.15-2-.8-8.2m-9.55 3l-4.15-2-.8-8.05-.05-.6m28.8 14.3l.05.6M-22-81.9l.05.45m-172.5-85.7l-.05-.6m.05.6l.8 8.05 4.15 2m9.55-3l-.05-.45m5 10.65l-4.15-2-.8-8.2m14.45 7.2l-.05-.45m-38.25-10.85l-4.15-2-.85-8.65m48.25 32.15l-4.15-2-.8-8.2m71.55 35.2l.05.6.8 8.05 4.15 2m-19.3-17.75l.05.6.8 8.05 4.15 2m-19.2-17.8l.05.6.8 8.05 4.15 2m38.05 11.25l-.05-.45m5 10.65l-4.15-2-.8-8.2m14.3 7.25l-.05-.6m-71.55-35.2l-.05-.45m5 10.65l-4.15-2-.8-8.2m-14.5-7.05l.8 8.05 4.15 2m-5-10.65l.05.6m91.05 52.9l-4.15-2-.8-8.05" fill="none" stroke="#823737" stroke-linecap="round" stroke-linejoin="round" transform="translate(209.3 192.7)"/></g><g id="shape3"><path d="M28.55-7.9l-.15.25-.4.3q-.3 0-.5-.15l-.25-.4v-.15l.15-.35.4-.25.5.1.25.45v.2m.2-4.35l.25.45-.1.45-.45.3-.5-.1-.2-.45.1-.5.4-.25.5.1" fill-rule="evenodd" transform="translate(-6.65 17.45)"/><path d="M17.3-9.35l-1.6.95-.25.75.15.65-8.45-5.75 7.75-4.2.35.8.55 1.6 1.75.1 7.35.55-.1.5 8.85.8.55.65.1.05h.15l1.75-.6 2.6-1.7 1.3 2.2 1.25 2.15q-1.6 1.4-3.45 2.2-1.9.75-4.05.95l-.55-.7-4.75-.5v-.2l-.25-.45-.5-.1-.4.25-.15.35-2.25-.2-.75-.7-.05.4-6.9-.8m11.45-2.9l-.5-.1-.4.25-.1.5.2.45.5.1.45-.3.1-.45-.25-.45m-4.5 3.3l.55-4.45-.55 4.45m10-.45q1.8-.05 3.7-1.1L40.1-12l-2.15 1.5q-1.9 1.05-3.7 1.1" fill="#fcb6c4" fill-rule="evenodd" transform="translate(-6.65 17.45)"/><path d="M15.6-7l-8.45-5.75 7.75-4.2m2.65 2.5l7.35.55-.1.5-.55 4.45-.05.4-6.9-.8m16.9-2.6l.1.05h.15l1.75-.6 2.6-1.7m2.55 4.35q-1.6 1.4-3.45 2.2-1.9.75-4.05.95M40.1-12l-2.15 1.5q-1.9 1.05-3.7 1.1" fill="none" stroke="#000" stroke-linecap="round" stroke-linejoin="round" transform="translate(-6.65 17.45)"/></g><use height="170.05" width="167.5" xlink:href="#shape1" id="sprite0"/><use height="11.25" width="35.2" xlink:href="#shape3" id="sprite1"/><path d="M251.95 98.95v87.25l-136.8-67.3-.15-.05-30.55-15.25V16.15l167.5 82.8" fill="#757575" fill-opacity=".286" fill-rule="evenodd" transform="translate(-84.45 -16.15)" id="shape1"/></defs></svg>