<svg xmlns:xlink="http://www.w3.org/1999/xlink" height="118.3" width="43.65" xmlns="http://www.w3.org/2000/svg"><g transform="translate(20.2 108.3)"><use height="118.3" transform="translate(-20.2 -108.3)" width="43.65" xlink:href="#a"/><use height="97.5" transform="translate(-17.45 -107.8)" width="34" xlink:href="#b"/></g><defs><g id="a"><path d="M19.25-6.3q4.15 2.7 4.2 6.3-.05 4.15-5.6 7.05Q12.3 10 4.45 10-3.45 10-9 7.05q-5.6-2.9-5.55-7.05Q-14.6-4.15-9-7.1l1.85-.85q5-2.05 11.6-2.05 7.85 0 13.4 2.9l1.4.8" fill="#999" fill-rule="evenodd" transform="translate(20.2 108.3)"/><path d="M-15.45-9.6v-.45l.5-1.6q1-2.05 3.85-3.65 4.35-2.5 10.6-2.5h.8l4 .45.6.1q2.8.6 5.15 1.95 3.9 2.2 4.45 5.2v.75q-.5 3-4.35 5.2l-2 .95q-1.4.55-2.95.95l-.55.1L.7-1.7l-1.15.05Q-6.7-1.7-11.1-4.15q-4.05-2.3-4.35-5.45.3 3.15 4.35 5.45Q-6.7-1.7-.45-1.65L.7-1.7l3.95-.45.55-.1.2 9.8-3.75.6-2.1.05q-6.25 0-10.65-2.5-4.3-2.45-4.35-5.85V-9.6" fill="#ccc" fill-rule="evenodd" transform="translate(20.2 108.3)"/><path d="M5.2-2.25q1.55-.4 2.95-.95l2-.95q3.85-2.2 4.35-5.2l.05 9.2q-.1 3.4-4.4 5.85Q8 6.9 5.4 7.55l-.2-9.8" fill="#b8b8b8" fill-rule="evenodd" transform="translate(20.2 108.3)"/><path d="M14.5-9.35v-.75q-.55-3-4.45-5.2-2.35-1.35-5.15-1.95l-.6-.1-4-.45h-.8q-6.25 0-10.6 2.5-2.85 1.6-3.85 3.65l-.5 1.6v.45q.3 3.15 4.35 5.45Q-6.7-1.7-.45-1.65L.7-1.7l3.95-.45.55-.1q1.55-.4 2.95-.95l2-.95q3.85-2.2 4.35-5.2l.05 9.2q-.1 3.4-4.4 5.85Q8 6.9 5.4 7.55l-3.75.6-2.1.05q-6.25 0-10.65-2.5-4.3-2.45-4.35-5.85V-9.6" fill="none" stroke="#737373" stroke-linecap="round" stroke-linejoin="round" transform="translate(20.2 108.3)"/><path d="M8.75-81.7q3.15-3.2 3.7-7.4l.1-1.8q0-5.4-3.8-9.2-3.8-3.8-9.2-3.8-5.4 0-9.2 3.8-3.8 3.8-3.8 9.2l.05.85q.25 4.8 3.75 8.35 3.8 3.8 9.2 3.8 5.4 0 9.2-3.8m-24.15-8.15-.05-.95q0-6.25 4.4-10.6 4.35-4.4 10.6-4.4 6.2 0 10.6 4.4 4.4 4.35 4.4 10.6l-.1 2.05q-.65 4.9-4.3 8.55-4.4 4.4-10.6 4.4-6.25 0-10.6-4.4-4.05-4.05-4.35-9.65" fill="#769ae4" fill-rule="evenodd" transform="translate(20.2 108.3)"/><path d="M8.75-81.7q-3.8 3.8-9.2 3.8-5.4 0-9.2-3.8-3.5-3.55-3.75-8.35l-.05-.85q0-5.4 3.8-9.2 3.8-3.8 9.2-3.8 5.4 0 9.2 3.8 3.8 3.8 3.8 9.2l-.1 1.8q-.55 4.2-3.7 7.4" fill="#3a76d8" fill-rule="evenodd" transform="translate(20.2 108.3)"/><path d="M14.4-74.8h.05v32.1h-.15v-5.9l-.05-1.85.05-1.75.1-22.6m-29.85 32.1h-.1l.05-1.5-.05-6.7v-23.9h.15l-.05 31.85v.25m-.05-1.5v1.5-1.5m29.8-4.4v-3.6 3.6" fill="#70a9e2" fill-rule="evenodd" transform="translate(20.2 108.3)"/><path d="M5.65-72.75q2-.05 3.45 1.4 1.45 1.45 1.45 3.45v18.25q0 2-1.45 3.4-1.45 1.45-3.45 1.5h-12.2q-2-.05-3.45-1.5-1.45-1.4-1.45-3.4V-67.9q0-2 1.45-3.45 1.45-1.45 3.45-1.4h12.2" fill="#fff" fill-rule="evenodd" transform="translate(20.2 108.3)"/><path d="m-20.2-2.35.05-.3-.05.4v-.1" fill="#ccc" fill-rule="evenodd" transform="translate(20.2 108.3)"/><path d="m16.4-88.6-.05 15.7-.05 25.4-.05 4.05v6.25q-.05 3.2-2.2 6L3.85-17.4q-1.5 2-1.6 5.2v.2q0 .7-.85 1.2t-2.05.5q-1.2 0-2.05-.5-.85-.5-.85-1.2l.1-.4q-.1-3.15-1.55-5.15l-10.2-13.8q-2.4-3.1-2.25-6.7l.05-34.85v-16.95l-.05-1.05q0-7.05 4.95-12 5-4.95 12.05-4.9 7.05-.05 12.05 4.9 4.95 4.95 4.95 12l-.15 2.3m-31.8-1.25q.3 5.6 4.35 9.65 4.35 4.4 10.6 4.4 6.2 0 10.6-4.4 3.65-3.65 4.3-8.55m-8.8 16h-12.2q-2-.05-3.45 1.4-1.45 1.45-1.45 3.45v18.25q0 2 1.45 3.4 1.45 1.45 3.45 1.5h12.2q2-.05 3.45-1.5 1.45-1.4 1.45-3.4V-67.9q0-2-1.45-3.45-1.45-1.45-3.45-1.4M16.3-47.5l-.1 1.95.05 2.1" fill="none" stroke="#737373" stroke-linecap="round" stroke-linejoin="round" transform="translate(20.2 108.3)"/><path d="m-15.4-89.85-.05-.95q0-6.25 4.4-10.6 4.35-4.4 10.6-4.4 6.2 0 10.6 4.4 4.4 4.35 4.4 10.6l-.1 2.05-.05 6.15v7.8h.05m-.15 32.1h-29.75m-.05-1.5-.05-6.7m.15-23.9v-15.05M14.3-42.7v-5.9l-.05-1.85.05-1.75.1-22.6h-29.8l-.05 31.85v.25m29.75-9.5v3.6m-29.8 5.9v-1.5" fill="none" stroke="#fff" stroke-linecap="round" stroke-linejoin="round" transform="translate(20.2 108.3)"/><path d="m2.3-64.15.35-.15.35.15.15.35-.15.35-.35.15q-.2 0-.35-.15l-.15-.35.15-.35m-1.3 0 .15.35-.15.35-.35.15q-.2 0-.35-.15l-.15-.35.15-.35.35-.15.35.15M.55-62.3l.35.15.15.35-.15.35-.35.15q-.2 0-.35-.15l-.15-.35.15-.35.35-.15m3.75-1.85.35-.15.35.15.15.35-.15.35-.35.15q-.2 0-.35-.15-.15-.15-.15-.35l.15-.35m-1.4 2 .15.35-.15.35-.35.15q-.2 0-.35-.15-.15-.15-.15-.35l.15-.35.35-.15.35.15m1.65-.15.35.15.15.35-.15.35q-.15.15-.35.15-.2 0-.35-.15-.15-.15-.15-.35l.15-.35.35-.15m2 0 .35.15.15.35-.15.35-.35.15-.35-.15-.15-.35.15-.35.35-.15m1.55 2.15.35-.15.35.15.15.35-.15.35q-.15.15-.35.15l-.35-.15-.15-.35.15-.35m-2 0 .35-.15.35.15.15.35-.15.35q-.15.15-.35.15-.2 0-.35-.15-.15-.15-.15-.35l.15-.35m.9 2.3-.15.35-.35.15q-.2 0-.35-.15L6-57.85l.15-.35.35-.15.35.15.15.35m-1 1.7.35-.15.35.15.15.35-.15.35q-.15.15-.35.15L6-55.45l-.15-.35.15-.35m2 0 .35-.15.35.15.15.35-.15.35-.35.15q-.2 0-.35-.15l-.15-.35.15-.35m-5.2-3.3q-.15.15-.35.15-.2 0-.35-.15-.15-.15-.15-.35l.15-.35.35-.15.35.15.15.35-.15.35m1.3-.7.35-.15.35.15.15.35-.15.35-.35.15-.35-.15-.15-.35.15-.35m-3.15.35-.15.35-.35.15q-.2 0-.35-.15l-.15-.35.15-.35.35-.15.35.15.15.35m1.55 1.45.35.15.15.35-.15.35-.35.15-.35-.15-.15-.35.15-.35.35-.15m-2.35.2.35-.15.35.15.15.35-.15.35q-.15.15-.35.15-.2 0-.35-.15L0-57.8l.15-.35m.55 2 .15.35-.15.35q-.15.15-.35.15-.2 0-.35-.15l-.15-.35.15-.35.35-.15.35.15m1.65-.15.35.15.15.35-.15.35-.35.15-.35-.15-.15-.35.15-.35.35-.15m1.8-1.9q.15-.15.35-.15l.35.15.15.35-.15.35-.35.15q-.2 0-.35-.15L4-57.85l.15-.35m.55 2.05.15.35-.15.35q-.15.15-.35.15-.2 0-.35-.15-.15-.15-.15-.35l.15-.35.35-.15.35.15m0 2 .15.35-.15.35q-.15.15-.35.15-.2 0-.35-.15-.15-.15-.15-.35l.15-.35.35-.15.35.15m-2 .7-.35.15-.35-.15-.15-.35.15-.35.35-.15.35.15.15.35-.15.35m-2-.7.15.35-.15.35q-.15.15-.35.15-.2 0-.35-.15l-.15-.35.15-.35.35-.15.35.15m1.55 2 .35-.15.35.15.15.35-.15.35q-.15.15-.35.15-.2 0-.35-.15l-.15-.35.15-.35m-2 0 .35-.15.35.15.15.35-.15.35q-.15.15-.35.15-.2 0-.35-.15Q.1-51.6.1-51.8l.15-.35m.95 2 .15.35-.15.35-.35.15-.35-.15-.15-.35.15-.35.35-.15.35.15m3.05-2 .35-.15.35.15.15.35-.15.35-.35.15-.35-.15-.15-.35.15-.35m4.45-2 .15.35-.15.35-.35.15q-.2 0-.35-.15l-.15-.35.15-.35.35-.15.35.15m-2 0 .15.35-.15.35q-.15.15-.35.15L6-53.45l-.15-.35.15-.35.35-.15.35.15m-5.55 6.1.15.35-.15.35Q1-47.2.8-47.2q-.2 0-.35-.15Q.3-47.5.3-47.7l.15-.35.35-.15.35.15m-9-15.75.15-.35.35-.15.35.15.15.35q0 .2-.15.35-.15.15-.35.15l-.35-.15-.15-.35m2.5-.5.35.15.15.35-.15.35q-.15.15-.35.15l-.35-.15-.15-.35.15-.35.35-.15m-1.8 2.15.15.35q0 .2-.15.35-.15.15-.35.15-.2 0-.35-.15L-8-61.8l.15-.35.35-.15.35.15m1.65-.15.35.15.15.35-.15.35-.35.15-.35-.15-.15-.35.15-.35.35-.15m2.5-1.15q-.15.15-.35.15l-.35-.15-.15-.35.15-.35.35-.15.35.15.15.35-.15.35m-.15 1.3.15.35q0 .2-.15.35-.15.15-.35.15-.2 0-.35-.15L-4-61.8l.15-.35.35-.15.35.15m2.15-1.3q-.15.15-.35.15l-.35-.15-.15-.35.15-.35.35-.15q.2 0 .35.15l.15.35-.15.35m-.5 1.15.35.15.15.35q0 .2-.15.35-.15.15-.35.15l-.35-.15-.15-.35.15-.35.35-.15m-.05 2 .35.15.15.35-.15.35q-.15.15-.35.15-.2 0-.35-.15l-.15-.35.15-.35.35-.15m-2.35.15.35-.15.35.15.15.35-.15.35-.35.15q-.2 0-.35-.15l-.15-.35.15-.35m-.1 4 .35-.15.35.15.15.35-.15.35q-.15.15-.35.15-.2 0-.35-.15l-.15-.35.15-.35m2 0 .35-.15.35.15.15.35q0 .2-.15.35-.15.15-.35.15-.2 0-.35-.15l-.15-.35.15-.35m-3.9-4 .35-.15q.2 0 .35.15l.15.35-.15.35q-.15.15-.35.15l-.35-.15-.15-.35.15-.35m-2.1 4 .35-.15q.2 0 .35.15l.15.35-.15.35q-.15.15-.35.15l-.35-.15-.15-.35.15-.35m-1.3 0 .15.35-.15.35q-.15.15-.35.15l-.35-.15-.15-.35.15-.35.35-.15.35.15m3.3 0 .35-.15.35.15.15.35-.15.35-.35.15q-.2 0-.35-.15l-.15-.35.15-.35m.7 2 .15.35-.15.35-.35.15q-.2 0-.35-.15l-.15-.35.15-.35.35-.15.35.15m-2 .7q-.15.15-.35.15l-.35-.15-.15-.35.15-.35.35-.15q.2 0 .35.15l.15.35-.15.35m1.55 1.3.35-.15.35.15.15.35q0 .2-.15.35-.15.15-.35.15-.2 0-.35-.15l-.15-.35.15-.35m4.45-2 .15.35q0 .2-.15.35-.15.15-.35.15-.2 0-.35-.15l-.15-.35.15-.35.35-.15.35.15m-2 0 .15.35-.15.35q-.15.15-.35.15-.2 0-.35-.15l-.15-.35.15-.35.35-.15.35.15m.4 2.35-.15.35-.35.15-.35-.15-.15-.35.15-.35.35-.15.35.15.15.35m-.6 1.65.35-.15.35.15.15.35q0 .2-.15.35-.15.15-.35.15l-.35-.15-.15-.35.15-.35m2.6-1.65q0 .2-.15.35-.15.15-.35.15-.2 0-.35-.15l-.15-.35.15-.35.35-.15.35.15.15.35m-.6 1.65.35-.15.35.15.15.35-.15.35q-.15.15-.35.15l-.35-.15-.15-.35.15-.35" fill="#245bb7" fill-rule="evenodd" transform="translate(20.2 108.3)"/><path d="M19.75 41.7v2.8m0 9.2v3m0-7v3m0-7v2.8m0 9.2v2.85" fill="none" stroke="#245bb7" stroke-linecap="round" stroke-linejoin="round" stroke-width=".25"/><path d="M6.75-90.4v-7.55H-7.9v7.55H6.75m-.6 3-.75.3q-.3.25-.3.7 0 .4.3.7.3.3.75.3.4 0 .7-.3l.3-.7-.3-.7-.7-.3M6.5-101q.55.05.95.6.4.55.55 2.8l.45 13.3-.15 1.75-.7.1h-.45v1.6l-.25.55-.6.25h-.9q-.35 0-.6-.25-.3-.25-.25-.55v-1.6H-5.6v1.6l-.25.55q-.3.25-.65.25h-.9l-.6-.25-.25-.55v-1.55l-.95-.05q-.45-.05-.35-1.3l.5-14.05q.1-2.55.65-2.85l1-.35H6.5M-7.45-87.35l-.75.3q-.35.3-.3.75-.05.4.3.7l.75.3q.4-.05.7-.3.3-.3.3-.7 0-.45-.3-.75t-.7-.3M5.5-98.75v-1.3H-6.55v1.3H5.5" fill="#fff" fill-rule="evenodd" transform="translate(20.2 108.3)"/><path d="M5-72.7q-5.3 2.2-10.95 0l1.6-2.35H3.4L5-72.7M1.7-43.95l.2.6q.25.2.6.2l.55-.2.25-.6-.25-.55-.55-.25-.6.25-.2.55m3.05-.85-1.6 2.35H-4.6l-1.6-2.35q5.65-2.2 10.95 0m-9.4.85.2.6.6.2q.35 0 .55-.2.25-.25.25-.6l-.25-.55-.55-.25-.6.25-.2.55" fill="#3a76d8" fill-rule="evenodd" transform="translate(20.2 108.3)"/><path d="m1.7-43.95.2-.55.6-.25.55.25.25.55-.25.6-.55.2q-.35 0-.6-.2l-.2-.6m-6.35 0 .2-.55.6-.25.55.25.25.55q0 .35-.25.6-.2.2-.55.2l-.6-.2-.2-.6" fill="#245bb7" fill-rule="evenodd" transform="translate(20.2 108.3)"/><path d="M1.3-68.5v-.6h1.4v.6H1.3m-.05 1.95H6v.45H1.25v-.45m7.15-.05v.45H7.1v-.45h1.3M7.35-46.75H2.6V-47l4.8.05-.05.2m-14.4-19.8h4.3v.4h-4.3v-.4m2.9-1.95v-.55h1.35v.55h-1.35" fill="#603" fill-rule="evenodd" transform="translate(20.2 108.3)"/><path d="m2.65-73.35.35-.1.15-.25-.15-.25-.35-.1-.4.1-.1.25.1.25.4.1m.65.35q-.2.25-.55.25-.35 0-.6-.25l-.2-.55.2-.6.6-.2.55.2.25.6-.25.55m-6.5-.75-.15-.25-.35-.1-.4.1-.1.25.1.25.4.1.35-.1.15-.25m.4.2q0 .35-.25.55-.2.25-.55.25-.35 0-.6-.25l-.2-.55.2-.6.6-.2q.35 0 .55.2l.25.6" fill="#245bb7" fill-rule="evenodd" transform="translate(20.2 108.3)"/><path d="m2.65-73.35-.4-.1-.1-.25.1-.25.4-.1.35.1.15.25-.15.25-.35.1m.1 29.45-.35.1-.4-.1-.1-.25.1-.25.4-.1.35.1.15.25-.15.25M-3.2-73.75l-.15.25-.35.1-.4-.1-.1-.25.1-.25.4-.1.35.1.15.25m-.45 29.9-.35.1-.4-.1-.1-.25.1-.25.4-.1.35.1.15.25-.15.25" fill="#fff" fill-rule="evenodd" transform="translate(20.2 108.3)"/></g><g id="b" fill-opacity=".369" fill-rule="evenodd"><path d="m33.85 19.2-.05 15.7-.05 25.4-.1 1.95.05 2.1v6.25q-.05 3.2-2.2 6L21.3 90.4q-1.5 2-1.6 5.2v.2q0 .7-.85 1.2l-2.05.5q-1.2 0-2.05-.5-.85-.5-.85-1.2l.1-.4q-.1-3.15-1.55-5.15l-10.2-13.8q-2.4-3.1-2.25-6.7L.05 34.9V17.95L0 16.9q0-7.05 4.95-12Q9.95-.05 17 0q7.05-.05 12.05 4.9Q34 9.85 34 16.9l-.15 2.3M32 17q0-6.25-4.4-10.6Q23.2 2 17 2 10.75 2 6.4 6.4 2 10.75 2 17l.05.95V33H1.9v32.1h30V33h-.05v-7.8l.05-6.15L32 17m-5.75 53.3q-.4 0-.8.3l-.55.7-3.8 10.95q-.15.4.05.7.2.3.6.3h1.75l.8-.3.55-.7 3.8-10.95q.15-.4-.05-.7-.2-.3-.6-.3h-1.75m-21.15.3q-.2.3-.05.7l3.8 10.95.55.7q.4.3.8.3h1.75q.4 0 .6-.3l.05-.7L8.8 71.3l-.55-.7q-.4-.3-.8-.3H5.7q-.4 0-.6.3" fill="#e4e9f1"/><path d="M26.25 70.3H28q.4 0 .6.3.2.3.05.7l-3.8 10.95-.55.7-.8.3h-1.75q-.4 0-.6-.3-.2-.3-.05-.7l3.8-10.95.55-.7q.4-.3.8-.3m-21.15.3q.2-.3.6-.3h1.75q.4 0 .8.3l.55.7 3.8 10.95-.05.7q-.2.3-.6.3H10.2q-.4 0-.8-.3l-.55-.7-3.8-10.95q-.15-.4.05-.7" fill="#bfbfbf"/><path d="M24.45 73.15q.4 0 .6.45l.05.9-1.7 7.2-.35.45-.55.25-10.85-.15-.55-.2-.4-.5-2.3-7.1q-.2-.5 0-.85l.55-.45h15.5" fill="#ccc"/></g></defs></svg>