<svg xmlns="http://www.w3.org/2000/svg" width="160" height="182"><path d="M87.93 22l2.403 1.1L98.04 5.9l7.709 17.2 2.503-1.1 6.306 6.1 2.303 2.2-.8.8.2.2q4.204 4.1 4.704 9.1v1.2q0 3.3-1.601 6.2l-.5.9-2.804 3.4.2.2-.6.6-6.507 1.8v9.4l-6.508 1.4-6.206 1.8 1.301 3.2 6.607-2.5q3.404-1.2 6.007-1.2 3.103 0 4.305 1.2 1.601 1.6 1.601 4 0 2.2-1.501 3.7-2.103 2.1-8.11 2.5l-2.602.1.7 3 3.004-.1-.1 5.5-3.003 2.5v11.5h-9.01v3.1h13.114q1.402 0 2.303.8 1.1 1.1 1.1 3.3 0 2.1-1.1 3.2-.901.9-2.303.9H95.64v3H61.6l-6.507-6.5v-3.4l.901-.8q1.502-1.2 2.703-3.1l-2.503-2-1.401 1.9.8-21.9L59.1 53.6l.8.7 1.502-1.4-2.002-2.2q-3.003-3.8-3.003-8.3l.2-2q.7-4.6 4.805-8.5l-1.502-1.5 1.001-7.9 1.302.6L69.91 5.9l7.709 17.2 2.503-1.1h7.808" fill="#fff" fill-rule="evenodd"/><path d="M108.253 22l-2.503 1.1L98.04 5.9l-7.708 17.2L87.93 22 98.041 0l10.212 22m-28.131 0l-2.503 1.1L69.91 5.9l-7.708 17.2-1.302-.6-1.1-.5L69.91 0l10.212 22m-20.223 8.4l1.502 1.5q-4.104 3.9-4.805 8.5l-.2 2q0 4.5 3.003 8.3l2.002 2.2-1.502 1.4-.8-.7-1.202-1.4q-3.604-4.4-3.604-9.8l.2-2q.601-5.6 5.406-10m-5.105 70.7l1.401-1.9 2.503 2q-1.201 1.9-2.703 3.1l-.9.8-2.404.9h-.8q-1.903 0-5.306-2.2l-3.804-1.3q-1.702 0-2.603 1.1l-1.202 1.9-2.803-1.5 2.503-3.3q1.702-1.6 3.904-1.6 2.203 0 4.505 1.6 3.304 1.7 5.106 1.7 1.301 0 2.603-1.3M95.639 115v-3h13.114q1.402 0 2.303-.9 1.1-1.1 1.1-3.2 0-2.2-1.1-3.3-.901-.8-2.303-.8H95.64v-3.1H108.853q2.503 0 4.105 1.6 1.802 1.8 1.802 5.6 0 3.7-1.802 5.5-1.602 1.6-4.105 1.6H95.64m12.113-33.8l-3.003.1-.701-3 2.603-.1q6.006-.4 8.109-2.5 1.501-1.5 1.501-3.7 0-2.4-1.601-4-1.202-1.2-4.305-1.2-2.603 0-6.007 1.2l-6.607 2.5-1.301-3.2 6.206-1.8 6.508-1.4 1.501-.1q4.405 0 6.507 2.1 2.203 2.1 2.203 5.7 0 3.7-2.002 5.7l-.801.7q-3.104 2.4-8.81 3m8.51-28.9l-.2-.2 2.802-3.4.5-.9q1.602-2.9 1.602-6.2v-1.2q-.5-5-4.705-9.1l-.2-.2.801-.8.6-.7q5.106 4.7 5.707 10.8v1.2q0 3.8-1.902 7.1-1.402 2.5-3.804 4.8l-1.202-1.2" fill="#333" fill-rule="evenodd"/><path d="M4.25-60H.35M12.6-20.65v-5.75m6.1-29.45l-1.15-1.1" fill="none" stroke="#333" stroke-linecap="round" stroke-linejoin="round" transform="matrix(2.0022 0 0 2 79.42 142)"/><g><path d="M110.659 28.6h.4l1.103.2.902.7q.902.9.902 2l-.902 2.3q-.902.8-2.005.8l-1.603-.4-.501-.4-.902-1.4v-.3l-.1-.6v-.2q.1-1 1.002-1.8l.5-.4q.502-.4 1.103-.5h.1m.903 1.7l-.502-.1q-.701-.1-1.102.4-.401.3-.401.9v.3l.3.9h.1l.101.1.401.2.601.1 1.103-.4.3-1.2-.1-.6-.2-.3-.1-.1-.3-.2h-.201" fill-rule="evenodd"/></g><g><path d="M2-1.7l-2 2 1.85 1.8M0 .3V.25v2.5M0 .3l-1.85 1.8M-2-1.7L0 .25V-2.7" fill="none" stroke="#fea5c0" stroke-linecap="round" stroke-linejoin="round" transform="matrix(2.0046 0 0 2 101.645 45.9)"/></g><g><path d="M95.423 33l.5.5.2-.2.3.3h-.4l7 6.8-.4.5-1.1 1.5-.4.4-1 1-.2.2-2 1.5h-.4l-1.1.3v-.2h-.2q-1.1.3-2.1 1.1l-.8.7-.8 1-.1.1-.4.4-.7.8-.5-.7-.5-.4-.6-.6-.7-.7-.1-.2-1.3-1.6.4-.5.8-.4h.2l.4-.2.9-6.2 4.5-5.2h.6m1 12.6l1.1-.1-1.1.1" fill="#333" fill-rule="evenodd"/><path d="M91.823 50.4l.1.1.2-.4.2.3.4.1.2-.2.2.2.9 1.3.4.6.2.3.3.7.4 1 .5 1.9v1.4-.2l-.1-.2-1.8 2.3h-.1l-.2.2-1 1.2-2.2-.9 1.7-1.9h.1l2.1-2.2-15.5-14.8.4-.5.1-.2.8.1 1.6.2.3.1 2.6.8.3.1.5.3 1.5.9.6.4.3.2.5.3-.1.1-.8.4-.4.5q-.4.4-.1.7l.6.6.6.5 1.3 1.3 1 1.1.4.5.1.1.9.7" fill="#da3fd6" fill-rule="evenodd"/><path d="M90.723 49.1l.4.5.1.1.6.7-.9-.7-.1-.1-.4-.5-1-1.1-1.3-1.3-.6-.5-.6-.6q-.3-.3.1-.7l1.4 1.8.5.4.1.2.7.7 1 1.1m2.9 10.7l-1 1.2 1-1.2m-30.6 34.9l-2.9 3.3-.1.1-3.2.3.2-.2.1-.1 5.1-5.7 2.5.3h.1l-.1.1-1.7 1.9m-6 3.5l3.1-.2-3.1.2" fill="#eb01f8" fill-rule="evenodd"/><path d="M88.323 43.9l.1.1h-.2l.1-.1" fill="#f6f" fill-rule="evenodd"/><path d="M92.123 50.1V50l.2.4-.2-.3m.5 10.9v.1l-1.4 1.5 1.3-1.5.1-.1m-31.1 30.9l.3.3.2.2h-.1l-.7-.1.3-.3v-.1" fill="#8b8b8b" fill-rule="evenodd"/><path d="M57.123 98.1l-.7-.6q-6.6-5.3-11-10.8l-1.7-2-.1-.2 35.2-43.3 15.5 14.8-2.1 2.2h-.1l-1.7 1.9-.8-.3v-.1l-.8-.8-8.9-9.6-.2-.3-.8 1-13.4 15.5-7.5 8.7-.7.8-.1.1-.1.2-1.3 1.4-3.9 4.6-.2.2-.4.3.5.5.1.1 9.6 9.5v.1l-.3.3.7.1H62.223l-5.1 5.7m34.3-44.2l-9.9-8.9 9.9 8.9m-12.7-4.6l-13.2 16.2 13.2-16.2" fill="#ff80ff" fill-rule="evenodd"/><path d="M82.623 60.7l-6.6-6.5-.7.8-.1.1-.1.2-.1-.1-.7.8-.1.1-1.4 1.6.1.1h-.1l6.6 6.5 1-1 1.1-1.3 1.1-1.2v-.1m2.3 4.6l-3.4-3.3 3.4 3.3-6 7-6 7-5.7 6.6-3.8-3.7 3.8 3.7-5.4 6.3-.3-.3-9.6-9.5 3.3-4.2 6.3 6.2 1.9-2.2 1.2-1.4v-.1l-6.3-6.2 20.6-24.4 10.7 9.7-4.7 5.5M69.523 76l3.4 3.3-3.4-3.3 1.1-1.2v-.1l-6.6-6.5-.7.8v-.1l-.7.8-.1.1-1.4 1.6.1.1h-.1l6.6 6.5.7-.7 1.1-1.3m6-7l1.1-1.2v-.1l-6.6-6.5-.7.8-.1.1-.1.2-.1-.1-.7.8-.1.1-1.4 1.6.1.1h-.1l6.6 6.5 1-1 1.1-1.3 3.4 3.3-3.4-3.3m-17.3 5.4l-.2-.2 7.5-8.7-7.3 8.9m-2.4 2.3l.1.1-1 1 .3.3-3.4 4.2-.5-.5.4-.3.2-.2 3.9-4.6" fill="#fff" fill-rule="evenodd"/><path d="M89.023 65.2l.3.7-.3.7-.7.3h-.9l1.6-1.7m-6.6 7.6l-.3.7-.4.2h-.2l.9-1v.1m-6.3 7.3l-.3.6-.5.3h-.1l.9-1.1v.2m-6.6 7.6l.2.4v.2l-.3.7-.7.3H67.923l1.3-1.4.2-.3.1.1m3.4-29.9l-.1-.1 1.4-1.6.1-.1.7-.8.1.1.1-.2.1-.1.7-.8 6.6 6.5-1.1 1.3-1.1 1.2-1 1-6.5-6.4m-14.6 16.7l6.3 6.2-1.2 1.5-1.9 2.1-6.3-6.2-.3-.3 1-1-.1-.1 1.3-1.4.1-.2.1-.1.7-.8.2.2-3 3.7 3-3.7.1.1m2.9-3l-.1-.1 1.4-1.6.1-.1.7-.8v.1l.7-.8 6.6 6.5-1.1 1.3-1.1 1.2-.7.7-6.5-6.4m15.4-3.8l-1.1 1.3-1.1 1.2-1 1-6.5-6.4-.1-.1 1.4-1.6.1-.1.7-.8.1.1.1-.2.1-.1.7-.8 6.6 6.5" fill-rule="evenodd"/><path d="M95.123 59.9l.7-.5q5-1.3 10 0l4.6 4.5h-1.1v.6l-1.9-.6-5.3-1-10.9.9 3.9-3.9" fill="#f30101" fill-rule="evenodd"/><path d="M92.623 61.1l-3.6 4.1-1.6 1.7-.4.5-4.6 5.3 4.6-5.3.4-.5h.1l-5.1 5.9v-.1l-.9 1h.2l-5.6 6.4v-.2l4.9-5.5.5-.7-.5.7-4.9 5.5-.9 1.1-.3.3v.2l-5.4 6.2-.1-.1 5.5-6.2-5.5 6.2-.2.3-2-2 2 2-1.3 1.4-1.5 1.7-1.6 1.8 1.6-1.8 1.5-1.7h.1l-1.6 1.8-1.6 1.8v-.1h-.1l.1-.1h-.1l-2.5-.3h-.2l-.2-.2 5.4-6.3 5.7-6.6 2 2-2-2 6-7 2.1 2.1-2.1-2.1 6-7 4.7-5.5v.1l2.9 1.2-1.3 1.5 1.4-1.5M75.323 81l-.4.4v-.1l.3-.3h.1m15.9-18.4l-2.2 2.6 2.2-2.6m-4.2 4.8l-2.1-2.1 2.1 2.1" fill="#e4e4e4" fill-rule="evenodd"/><path d="M96.123 33.3l-.7-.3.5.5.2-.2.3.3m-.4 0l7 6.8-.4.5-1.1 1.5-.4.4-1 1-.2.2-2 1.5h-.4l-1.1.3m0-.2h-.2q-1.1.3-2.1 1.1l-.4.4-1.2 1.3m-1.7.6l-.1.1m1.2 1.4l.2-.4V50m.6.5l.2-.2.2.2.9 1.3.4.6.2.3.3.7.4 1 .5 1.9v1.4m-38.7 40.4l-.7-.6q-6.6-5.3-11-10.8l-1.7-2m-.1-.2l35.2-43.3.4-.5m.9-.1l1.9.1 2.6.7.3.1.5.3 1.5 1 .6.6m.9.6h-.2l-.8.4m1.6.2l.4-.2.9-6.2 4.5-5.2m2.7 12.5l-1.1.1m-9.4-.7q-.4.4-.1.7l.6.6.6.5 1.3 1.3 1 1.1.4.5.1.1.9.7m-3 8.5l.8.8m0 .1l.8.3 2.2.9m-3.8-2.1l-9.9-8.9m-20.7 24.4l7.3-8.9 13.2-16.2m-23.5 28.8l3-3.7m-6.3 8l9.6 9.5.3.3.2.2h.2l2.5.3h.1m-13-10.4l3.4-4.2m-3.3 4.3l-.1-.1" fill="none" stroke="#333" stroke-linecap="round" stroke-linejoin="round" stroke-width="2"/><path d="M81.523 62l3.4 3.3 2.1 2.1m-23.6 14.8l3.8 3.7 2 2m3.7-8.6l-3.4-3.3m5.4 5.3v.1m0-.1l-2-2m6-7l-3.4-3.3m5.5 5.4l-2.1-2.1" fill="none" stroke="#000" stroke-linecap="round" stroke-linejoin="round" stroke-width=".1"/><path d="M95.823 57.5l-1.9 2.1m-.1 0l-.2.2m-28.8 33l-1.8 1.9-2.9 3.3-.1.1m32.6-37.1l1-1.2m-1 1.2l-.1.1-1.3 1.5m-3.8 4.3l-.4.5-4.6 5.3-.9 1-.5.7-4.9 5.5m11.3-13l1.6-1.7 2.2-2.6m-16.3 18.8l-5.5 6.2m5.8-6.6l-.3.3m.3-.3l.9-1.1m-6.9 8l.2-.3m-4.6 5.2l1.6-1.8 1.5-1.7 1.3-1.4m-9.1 10.1l-3.1.2" fill="none" stroke="#000" stroke-linecap="round" stroke-linejoin="round" stroke-width="2"/><path d="M81.523 45l9.9 8.9" fill="none" stroke="#ffa6ff" stroke-linecap="round" stroke-linejoin="round" stroke-width="2"/></g></svg>