<svg xmlns="http://www.w3.org/2000/svg" width="160" height="182"><path d="M87.941 22l2.4 1.1 7.7-17.2 7.8 17.2 2.5-1.1 6.3 6.1 2.2 2.2-.7.8.2.2q4.2 4.1 4.6 9.1l.1 1.2q0 3.3-1.6 6.2l-.5.9-2.8 3.4.2.2-.6.6-6.5 1.8v9.4l-2.5.4-4 1-6.3 1.8 1.3 3.2 6.7-2.5q3.4-1.2 6-1.2 3.1 0 4.3 1.2 1.6 1.6 1.6 4 0 2.2-1.5 3.7-2.1 2.1-8.2 2.5l-2.5.1.7 3 3-.1-.1 5.5-3 2.5v11.5h-9.1v3.1h13.2q1.4 0 2.3.8 1.1 1.1 1.1 3.3 0 2.1-1.1 3.2-.9.9-2.3.9h-13.2v3h-11.6q2.4 0 3.9-1.6 1.8-1.8 1.8-5.5 0-3.8-1.8-5.6-1.6-1.6-4.1-1.6h-13.2v3.1h13.1q1.4 0 2.3.8 1.1 1.1 1.1 3.3 0 2.1-1.1 3.2-.9.9-2.3.9h-13.1v3h-9l-6.5-6.5v-3.4l.9-.8q1.5-1.2 2.7-3.1l-2.5-2-1.4 1.9.8-21.9 3.5-25.6.8.7 1.5-1.4-2-2.2q-3-3.8-3-8.3l.1-2q.7-4.6 4.9-8.5l-1.5-1.5 1-7.9 1.3.6 7.7-17.2 7.7 17.2 2.5-1.1h7.8m2.4 44.1l-2.7-1.6-3.8-.5-4 .5-4 1-6.2 1.8 1.3 3.2 6.6-2.5q3.4-1.2 6-1.2 3.1 0 4.3 1.2 1.6 1.6 1.6 4 0 2.2-1.5 3.7-2.1 2.1-8.1 2.5l-2.6.1.7 3q7.9-.1 11.8-3.1l.8-.7q2-2 2-5.7 0-3.6-2.2-5.7" fill="#fff" fill-rule="evenodd"/><path d="M108.341 22l-2.5 1.1-7.8-17.2-7.7 17.2-2.4-1.1 10.1-22 10.3 22m-28.2 0l-2.5 1.1-7.7-17.2-7.7 17.2-1.3-.6-1.1-.5 10.1-22 10.2 22m-20.2 8.4l1.5 1.5q-4.2 3.9-4.9 8.5l-.1 2q0 4.5 3 8.3l2 2.2-1.5 1.4-.8-.7-1.2-1.4q-3.6-4.4-3.6-9.8l.1-2q.7-5.6 5.5-10m-5.1 70.7l1.4-1.9 2.5 2q-1.2 1.9-2.7 3.1l-.9.8q-1.1.7-2.5.9h-.7q-1.9 0-5.3-2.2-2.4-1.3-3.8-1.3-1.8 0-2.6 1.1l-1.2 1.9-2.7-1.5q.8-1.9 2.4-3.3 1.6-1.6 3.9-1.6 2.2 0 4.5 1.6 3.3 1.7 5.1 1.7 1.3 0 2.6-1.3m15.8 13.9v-3h13.1q1.4 0 2.3-.9 1.1-1.1 1.1-3.2 0-2.2-1.1-3.3-.9-.8-2.3-.8h-13.1v-3.1h13.2q2.5 0 4.1 1.6 1.8 1.8 1.8 5.6 0 3.7-1.8 5.5-1.5 1.6-3.9 1.6h-13.4m25 0v-3h13.2q1.4 0 2.3-.9 1.1-1.1 1.1-3.2 0-2.2-1.1-3.3-.9-.8-2.3-.8h-13.2v-3.1h13.3q2.5 0 4.1 1.6 1.8 1.8 1.8 5.6 0 3.7-1.8 5.5-1.6 1.6-4.1 1.6h-13.3m12.2-33.8l-3 .1-.7-3 2.5-.1q6.1-.4 8.2-2.5 1.5-1.5 1.5-3.7 0-2.4-1.6-4-1.2-1.2-4.3-1.2-2.6 0-6 1.2l-6.7 2.5-1.3-3.2 6.3-1.8 4-1 2.5-.4 1.5-.1 3.7.5q1.7.5 2.8 1.6 2.2 2.1 2.2 5.7 0 3.7-2 5.7l-.8.7q-3.2 2.4-8.8 3m8.5-28.9l-.2-.2 2.8-3.4.5-.9q1.6-2.9 1.6-6.2l-.1-1.2q-.4-5-4.6-9.1l-.2-.2.7-.8h.1l.6-.7q5.1 4.7 5.5 10.8l.1 1.2q0 3.8-1.8 7.1-1.4 2.5-3.8 4.8l-1.2-1.2m-26 13.8q2.2 2.1 2.2 5.7 0 3.7-2 5.7l-.8.7q-3.9 3-11.8 3.1l-.7-3 2.6-.1q6-.4 8.1-2.5 1.5-1.5 1.5-3.7 0-2.4-1.6-4-1.2-1.2-4.3-1.2-2.6 0-6 1.2l-6.6 2.5-1.3-3.2 6.2-1.8 4-1 4-.5 3.8.5 2.7 1.6" fill="#333" fill-rule="evenodd"/><path d="M116.841 30.3l-2.2-2.2 2.3 2.2h-.1" fill="red" fill-rule="evenodd"/><path d="M87.941 22h-7.8m24.6 78.7V89.2m12.1-58.9l-2.2-2.2" fill="none" stroke="#333" stroke-linecap="round" stroke-linejoin="round" stroke-width="2"/><g><path d="M10.25-2.6H.75l-1.1-1" fill="none" stroke="#333" stroke-linecap="round" stroke-linejoin="round" transform="matrix(2.0024 0 0 2 84.942 45.4)"/><path d="M2-1.7l-2 2 1.85 1.8M0 .3V.25v2.5M0 .3l-1.85 1.8M-2-1.7L0 .25V-2.7" fill="none" stroke="#fea5c0" stroke-linecap="round" stroke-linejoin="round" transform="matrix(2.0024 0 0 2 67.02 44.2)"/></g><g><path d="M76.755 28.9h.402l1.105.2.905.7q.904.9.904 2l-.904 2.3q-.905.8-2.01.8l-1.608-.4-.503-.4-.904-1.4v-.3l-.1-.6v-.2q.1-1 1.004-1.8l.503-.4q.502-.4 1.105-.5h.1m.905 1.7l-.502-.1q-.704-.1-1.106.4-.402.3-.402.9v.3l.302.9h.1l.1.1.403.2.603.1 1.105-.4.302-1.2-.1-.6-.202-.3-.1-.1-.302-.2h-.2M110.555 28.9h.402l1.105.2.905.7q.904.9.904 2l-.904 2.3q-.905.8-2.01.8l-1.608-.4-.503-.4-.904-1.4v-.3l-.1-.6v-.2q.1-1 1.004-1.8l.503-.4q.502-.4 1.105-.5h.1m.905 1.7l-.502-.1q-.704-.1-1.106.4-.402.3-.402.9v.3l.302.9h.1l.1.1.403.2.603.1 1.105-.4.302-1.2-.1-.6-.202-.3-.1-.1-.302-.2h-.2" fill-rule="evenodd"/></g><g><path d="M48.341 56.4h-1.2l.5-7.1h.9v-1.2h1.1v-3.4h-1.1v-.2h-.6l.1-.7 6 .2.2-.3.2.1.4 1.3.2.7 1.5 4 1.1 1.8q1.1 1.6 2.6 2.5l-.1.5-1.1-.1h-.4l-.3-.7-.7-.3h-.9l-.7.3-.1.1h.5l1.3 3.5.5-.1v-.1l1.2 1.8-1.3 1.2-.2 2.6v.2l.1.2v3h-1.3l-1.1-1.2.9-.8-7.9-8.2-.2.4h-.1m9.4 8.9h-.1.1" fill="#ed81ed" fill-rule="evenodd"/><path d="M48.441 56.4l-.1.1v-.1h.1" fill="#da3fd6" fill-rule="evenodd"/><path d="M48.041 43.8l.1-2.1" fill="none" stroke="red" stroke-linecap="round" stroke-linejoin="round" stroke-width="2"/><path d="M46.341 31.2l.3-.3.1.2.6-.5h.5l4.5 5.2.9 6.2.5.2h.1l.4.2-.7.8-.5.5-1.4 1.3-1.1 1.3-.2-.2-.1-.1-.8-1-.5-.4-.4-.3-2.1-1.1h-.2l-1-.1h-.4l-2.1-1.5-.2-.2-1-1-.4-.4-1.1-1.5-.3-.5 6.9-6.8h-.3m-.1 12.2l-1-.3 1 .1v.2" fill="#333" fill-rule="evenodd"/><path d="M54.341 41.6l.1-.1v.1h-.1" fill="#f6f" fill-rule="evenodd"/><path d="M50.141 58.6v.1l-.1-.1h.1m.5-11v.1l-.3.3.3-.4" fill="#8b8b8b" fill-rule="evenodd"/><path d="M53.741 62.8l1.5 1.7h-.9l-.7-.3-.3-.7.3-.7h.1" fill-rule="evenodd"/><path d="M51.441 60.2l2.3 2.6h-.1l-2.2-2.6m3.8 4.3l1.5 1.7h-.1l-1.5-1.7h.1" fill="#e4e4e4" fill-rule="evenodd"/><path d="M49.041 57.4l1.1 1.2h-.1l-1-1.2" fill="#eb01f8" fill-rule="evenodd"/><path d="M46.341 31.2l.3-.3.7-.3m.5 0l4.5 5.2.9 6.2.5.2m.5.2q.3-.2.1-.8m-7.7-10.7l.1.2.6-.5m-1.1 12.8l-1-.3h-.4l-2.1-1.5-.2-.2-1-1-.4-.4-1.1-1.5-.3-.5 6.9-6.8m-.4 12l-1-.1m3.7 1.5l.1.1 1.2 1.3m.3.3l1.1-1.3 1.4-1.3.5-.5.7-.8m-8 .8h.2l2.1 1.1.4.3m1.6 1.7l-.7 1.6-.2.2-1 1.3-.4.6-.1.3-.4.7-.4 1-.4 1.9-.1 1.2" fill="none" stroke="#333" stroke-linecap="round" stroke-linejoin="round" stroke-width="2"/><path d="M46.841 55.1l2.2 2.3 1.1 1.2v.1l.8.9.5.6 2.3 2.6 1.5 1.7 1.5 1.7" fill="none" stroke="#000" stroke-linecap="round" stroke-linejoin="round" stroke-width="2"/><path d="M58.341 53.1l.3.7h.4l1.1.1 1.1.2 2 .3.9.1q11.1 1.8 21.2 7.2l2.6 1.4-2.6-.5q-2-.3-3.8 0l-1.1.1v-1.4h-.9v-.7h-2v-.5h-1.2v-.6h-1.4v-.3h-2.8v-.4h-1V58h-1.8v-.2h-2.5v-.5h-8l-.6-.8v.1l-.6.1h-.2l-.6-.4-.7-1.1-.2-.8v-.1l-.2-.5.3-.7.7-.3h.9l.7.3M102.041 79.1l6.9 11.3-.6 1-.3.5q-5.4-9.9-14.2-19.5V72h-.7v-.6h-.3l-.2-2.8 9.4 10.5m6.3 12.3q-5.5-10-14.5-19.4 9 9.4 14.5 19.4" fill="#f30101" fill-rule="evenodd"/><path d="M60.141 54.5l1.1.2 2 .3.9.1q12.2 2 23.2 8.3l.5.3 1.4.6 2.7 2.6q5.7 5.6 9.8 11.6l.3.6 6.9 11.3-.6 1-.3.5m-15.2-20.5l-.2-2.8-.7-1.7m-33.7-9.8l.6.9m1.2-1.2h3.3l.5.1h.9q7.6.8 15.8 4.3m6.8 2.2l-4.8-.5h-.5m11.8 9.1q9 9.4 14.5 19.4" fill="none" stroke="#e20101" stroke-linecap="round" stroke-linejoin="round" stroke-width="2"/></g></svg>