<svg xmlns="http://www.w3.org/2000/svg" xmlns:xlink="http://www.w3.org/1999/xlink" height="48" width="75"><use height="48" width="75" xlink:href="#a"/><defs><g id="a"><path d="m29.85-19.3-.2.4-.05-.4h.25M20-2.05l-2.45 1.1L16-3.65q2.4 1.25 4 1.6m-22.85 5.9-.45-.95q1.1-.1.45.95M16-37.65l-.05-.1h.25l-.2.1" fill-opacity=".2" fill-rule="evenodd" transform="translate(40.7 41.35)"/><path d="M24.05-28.9q1.9-1.3 4.5-.5l1.3.5-7.8 4.7 2.35.1q-.35.45-1.7 1-2.1.85-4.6.85l-2.3-.2-.5-.35H14q.05 1.7-.25 2.15-.5.65-5.15.65l-3.05-.55-.35 1.05q-.45.75-1.45.4h-1.4l.15 2.25v1.65q-.15 1.2-1 1.2L0-14.85q-1.2-.9-3.35-.9-1.95 0-2.65-.9-.4-.45-.5-1.25l-2.95 1.2q-1.9.7-3.3.7-1.5 0-1.5-3.4l-1.35.15q-1.4 0-2-1.45l-.25-.8-.15-1.15-1.25.55-2.25.85.5 1.5.1.2.4 1.5-.05.55-2.8-.1-1.55.15-1 .3-.55.45-.05.1.25.8.25.8q0 .45-.45.7l2.95 2.95v.9l-2.4 1.6-2.45 1.35q-.7 0-1.15-.6l-.75-.65q-.95 0-2.4.6L-33.7-9.4l2.5-1.9.25-.15-2.35-.4-.2.05-1.5.15-.35-1.8-4.85 3q2-8.25 5.45-7.2-2.05-6.45 5.25-5.1-1.75-4.1 1.25-5.35-2.1-2.35-6.35-3.15 4.4-3.95 6.55-2.15.9-.95 1.85-1.2.9-.25 5.4-.1-3.5-4.5-6.6-1.1 1.2-6.7 7.4-4.55l.75-.1 1.75.7q1.1.35 1.6 1.5l.65 1.5 1.25-.95 1.15-.05q.7 0 2.35 2 1.3-1.65 3-1.2l-.25-.65q-.7-1.55-1.55-1.7l1.6-.25q.65 0 1.35.5l1 .8 1.4 1.65.85-.15q.65 0 1.2.45l.65.55.05.05q.75-.5 1.9-.25l.9.1.45-.55q.95-.9 3.15-1.3-.6.3-.9 1.05l-.15.65.95-.25Q7.15-37 7-34h.5l1.1-2.2q.25-.25 1.95 1.1 1.75 1.3.45 5.1l1.25.25 1.3-.25q.5 0 1.45-.5.25 0 .95-.7l.35-.8.7.15.25.1.3.1q4.25-2.05 6.5 2.75M22.5-9.25q2 2.9 1.55 4l-.45-.25.45.25q.2-2-2.6-4h1.05m-2.25 5.1 1.4 1.2.35.25-.35-.2-1.7-.9.3-.35M1.15-30.8l-.25.05q-.4-.55-1.05-.65-.4-.05-2.15-2.65l-2.2 3.65.1.45.1.15 1.6.4-.05.25.1.45.1.15 1.85.3h.65l.3.25q.8-.1 1.15-.7l.65-.5 1.2-1.2-.25-.65-1.85.25m-19.95-2.65-2.2-.45-.75.1.75-.1 2.2.45m-11.8 1.05-1.65.45 1.65-.45m11.3-6.1q.1-.75-1.5-1-1.65-.3-2.55 0-.9.3-1.85 1.25.95-.95 1.85-1.25.9-.3 2.55 0 1.6.25 1.5 1m14.8 9.75-2.2.25-1.8.75 1.8-.75 2.2-.25m-23 1.6L-26-26l.5-.1.2-.2.05-.2 1.4-1h.05l.35-.15q.9-.3 1.45-1.15-.45-.9-1.35-.8l-1.5-.15q-1.8.15-1.9 1-.5.3-.5.85l.05.05-.3.7m-1.75 16.05-.9.5-.95.8.95-.8.9-.5m-4.05-10.5q.7-.5 1.8-.65l2-.5-2 .5q-1.1.15-1.8.65m-2 5.05-1.8 1.15-1.35 2.2 1.35-2.2 1.8-1.15m7.25-4.15-1.5-1.1 1.5 1.1m6.05-7.2-.55 1.4-.7 2.1.7-2.1.55-1.4m6.65 13.9q1.4-.65 2.25.3l.7.1v.55l-.1.8.75.8.65.6q.35.2.35 1L-13-7.75Q-15.2-6-15.35-6l-.7-.1-.1-.1-.05-.05-1.65-.3-1.2-1.2-.15-.05-.3-.2-.25-1.75.1-.35-.35-.3q0-.6 1.2-1.55 1-.8 1.95-.9.35-.6 1.5-1.15m-3.4 5.85-.5-1.15q0-.85.5-1.35-.5.5-.5 1.35l.5 1.15" fill="#558046" fill-rule="evenodd" transform="translate(40.7 41.35)"/><path d="m24.4-24.1.3.05 2.15 1.15.35.95v.45l-.05.2-.05.35-.1.3q2.1-.9 3.75-.6 1.8.25 3.05 1.95h-4.2l.05.4q.35 2.3-.05 4.35l2.15 1.65-3 .8q-.4.8-1.15 1.45l-1.85-1.15-.3-.15q-2.75-1.4-3.7-1.4l.2.3q.75.45 1.85 2.55-.7 1.3-4-2.15l2.7 3.4h-1.05q2.8 2 2.6 4l-.45-.25-1.5-.7-3.6-.2.35.5 1.4 1.75-.3.35 1.7.9.35.2.1.05.25.15v.05q-.75.7-2.35.4-1.6-.35-4-1.6l1.55 2.7.2.4Q15.3 0 13.4-.95l-1.65-.85-.5-.45q-3.4-1.6-3.85 1.2Q10.7.85 9.75 1.5q-1.5 1.05-3.7 2l-.1.05L.7 5.1l-5.65 1.05 2.1-2.3q.65-1.05-.45-.95l-.1.05-4.45.75-1.8.4q-4.1.8-2.8-.4 1.35-1.2 2.25-2.5l.95-1.35-.75.3-3.75 1.2q-2.6.5-3.45-1l-.55-.65-2.65-.1-.55.15-.7.2-2.45.3h-.1l.2-.3 1.2-1.45 3-2.7q-5.95.5-6.35 2.15-.4 1.65-.8 1.85-.75-.2-1.45-.55h-4l2.45-.9-1.2-.95-.65-.6-3.9-1.1 3.8-3-.75-.85q1.45-.6 2.4-.6l.75.65q.45.6 1.15.6l2.45-1.35 2.4-1.6v-.9l-2.95-2.95q.45-.25.45-.7l-.25-.8-.25-.8.05-.1.55-.45 1-.3 1.55-.15 2.8.1.05-.55-.4-1.5-.1-.2-.5-1.5 2.25-.85 1.25-.55.15 1.15.25.8q.6 1.45 2 1.45l1.35-.15q0 3.4 1.5 3.4 1.4 0 3.3-.7l2.95-1.2q.1.8.5 1.25.7.9 2.65.9 2.15 0 3.35.9l1.5.85q.85 0 1-1.2v-1.65l-.15-2.25h1.4q1 .35 1.45-.4l.35-1.05L8.6-20q4.65 0 5.15-.65.3-.45.25-2.15h1.3l.5.35 2.3.2q2.5 0 4.6-.85 1.35-.55 1.7-1M11-30q1.5-2.1 5.3-2l-.35.8q-.7.7-.95.7-.95.5-1.45.5l-1.3.25L11-30m-9.85-.8L3-31.05l.25.65-1.2 1.2-.65.5q-.35.6-1.15.7l-.3-.25H-.7l-1.85-.3-.1-.15-.1-.45.05-.25-1.6-.4-.1-.15-.1-.45 2.2-3.65q1.75 2.6 2.15 2.65.65.1 1.05.65l.25-.05m-28.65 3.65.3-.7-.05-.05q0-.55.5-.85.1-.85 1.9-1l1.5.15q.9-.1 1.35.8-.55.85-1.45 1.15l-.35.15h-.05l-1.4 1-.05.2-.2.2-.5.1-1.5-1.15M-15.35-14q-1.15.55-1.5 1.15-.95.1-1.95.9Q-20-11-20-10.4l.35.3-.1.35.25 1.75.3.2.15.05 1.2 1.2 1.65.3.05.05.1.1.7.1q.15 0 2.35-1.75l2.25-2.1q0-.8-.35-1l-.65-.6-.75-.8.1-.8v-.55l-.7-.1q-.85-.95-2.25-.3" fill="#406035" fill-rule="evenodd" transform="translate(40.7 41.35)"/><path d="M24.05-28.9q1.9-1.3 4.5-.5l1.3.5-7.8 4.7 2.35.1m.3.05 2.15 1.15m.15 2.25q2.1-.9 3.75-.6 1.8.25 3.05 1.95h-4.2l.05.4q.35 2.3-.05 4.35l2.15 1.65-3 .8q-.4.8-1.15 1.45l-1.85-1.15-.3-.15q-2.75-1.4-3.7-1.4l.2.3q.75.45 1.85 2.55-.7 1.3-4-2.15l2.7 3.4q2 2.9 1.55 4l-.45-.25-1.5-.7-3.6-.2.35.5 1.4 1.75 1.4 1.2.35.25.1.05.25.15v.05q-.75.7-2.35.4-1.6-.35-4-1.6l1.55 2.7.2.4Q15.3 0 13.4-.95l-1.65-.85-.5-.45q-3.4-1.6-3.85 1.2Q10.7.85 9.75 1.5q-1.5 1.05-3.7 2l-.1.05L.7 5.1l-5.65 1.05 2.1-2.3m-.45-.95-.1.05-4.45.75-1.8.4q-4.1.8-2.8-.4 1.35-1.2 2.25-2.5l.95-1.35-.75.3-3.75 1.2q-2.6.5-3.45-1l-.55-.65-2.65-.1-.55.15-.7.2-2.45.3m-.1 0 .2-.3 1.2-1.45 3-2.7q-5.95.5-6.35 2.15-.4 1.65-.8 1.85-.75-.2-1.45-.55h-4l2.45-.9-1.2-.95-.65-.6-3.9-1.1 3.8-3-.75-.85-1.05-1.25 2.5-1.9.25-.15-2.35-.4-.2.05-1.5.15-.35-1.8-4.85 3q2-8.25 5.45-7.2-2.05-6.45 5.25-5.1-1.75-4.1 1.25-5.35-2.1-2.35-6.35-3.15 4.4-3.95 6.55-2.15.9-.95 1.85-1.2.9-.25 5.4-.1-3.5-4.5-6.6-1.1 1.2-6.7 7.4-4.55l.75-.1M-3.3 2.9q1.1-.1.45.95" fill="none" stroke="#37522e" stroke-linecap="round" stroke-linejoin="round" transform="translate(40.7 41.35)"/><path d="m-8.5-27.75 1.8-.75 2.2-.25m-20.7-9.5q.95-.95 1.85-1.25.9-.3 2.55 0 1.6.25 1.5 1m-12.95 6.55 1.65-.45m8.85-1.4.75-.1 2.2.45m-4.45 9.05.7-2.1.55-1.4m-7.55 6.1 1.5 1.1m-10.4 7.5 1.35-2.2 1.8-1.15m5.8-6.2-2 .5q-1.1.15-1.8.65m2.2 11.8.95-.8.9-.5m10.5.45q-.5.5-.5 1.35l.5 1.15" fill="none" stroke="#719768" stroke-linecap="round" stroke-linejoin="round" transform="translate(40.7 41.35)"/></g></defs></svg>