<svg xmlns="http://www.w3.org/2000/svg" xmlns:xlink="http://www.w3.org/1999/xlink" height="80" width="52"><g transform="translate(31.8 72.9)"><use height="18.2" transform="translate(-28.15 -12)" width="46.95" xlink:href="#a"/><use height="22.6" transform="translate(-31.8 -18.8)" width="24.8" xlink:href="#b"/><use height="73.1" transform="translate(-11.25 -72.9)" width="31.15" xlink:href="#c"/></g><defs><g id="d"><path d="M22.15 9v.2l-1.75.85-.65-.3v-1.2l2.4.45m-10.8 13.05L3.25 18q-1.1-2.2-.65-4.1l9.15 4.5-.4 1.85v1.8m-8.1-9.75L.2 10.75q0-1 .55-1.7t1.3-.7l.25.15 8.6 4.25q-.8 0-1.35.65Q9 14 9 14.85l.2.4-5.95-2.95m3.9-8.85L6.5 3.1q-.75-1.5.75-2.45.5-.35.9-.15 2.8.75 5.5 2l1.05-.6L24 6.4l-1.85 1.4-5.4-.2 1.45-1.8v-.75l-.55-.55q-1 0-1.7.7t-.7 1.65l.25.75-8.35-4.15m4.2 10.8 1.8-2.35.6-.7v2.2l-2.4 1.2v-.35m2.85-3.5q1.1-1.2 2.55-1.95l2.05-.4-4.6 2.35m-1.05 1.15.6-.3-.6.3m.5-9.4 4 2-4-2m4.55 3.3 3.95 2-3.95-2" fill="#999" fill-rule="evenodd" transform="translate(.3 .05)"/><path d="m19.75 17.2-6 3v-1.15l.2-.75 5.8-2.9v1.8M24 6.4q0 1.1-.55 1.85t-1.3.75l-2.4-.45-.95-.15-2.05.4q-1.45.75-2.55 1.95l-.45.45-.6.7-1.8 2.35q0 .35-.6.7l-1.55.3-.2-.4q0-.85.55-1.45.55-.65 1.35-.65l.35.25 5.45-5.35.05-.05-.05.05-1.05.05-.15-.1-.25-.75q0-.95.7-1.65t1.7-.7l.55.55v.75l-1.45 1.8 5.4.2L24 6.4" fill="#868686" fill-rule="evenodd" transform="translate(.3 .05)"/><path d="M22.15 9.2q.9 2.8 0 5.65l-1.75.85q.9-2.8 0-5.65l1.75-.85m-2.4-.65v1.2l-5.65 2.8-.35.2V11.2l.45-.45 4.6-2.35.95.15m-8.4 6.05 2.4-1.2q.75 2.45.2 4.9l-.2.75-2.4 1.2.4-1.85q.2-1.9-.4-3.8" fill="#7b7b7b" fill-rule="evenodd" transform="translate(.3 .05)"/><path d="M22.15 14.85v1.8l-1.75.85-.65-.3v-1.8l.65.3 1.75-.85m-8.4 5.35v.65l-2.4 1.2v-1.8l2.4-1.2v1.15M2.6 13.9q.2-.85.65-1.6l5.95 2.95 1.55-.3q.6-.35.6-.7v.35q.6 1.9.4 3.8L2.6 13.9m11.15-1.15.35-.2 5.65 2.85-5.8 2.9q.55-2.45-.2-4.9v-.65" fill="#666" fill-rule="evenodd" transform="translate(.3 .05)"/><path d="m19.75 9.75.65.3q.9 2.85 0 5.65l-.65-.3-5.65-2.85 5.65-2.8" fill="#515151" fill-rule="evenodd" transform="translate(.3 .05)"/><path d="m2.3 8.5 4.85-5.05L15.5 7.6l.15.1 1.05-.05L11.25 13l-.35-.25L2.3 8.5" fill="#aaa" fill-rule="evenodd" transform="translate(.3 .05)"/><path d="M22.15 9v.2q.9 2.8 0 5.65v1.8l-1.75.85-.65-.3-6 3v.65l-2.4 1.2L3.25 18m-.65-4.1q.2-.85.65-1.6L.2 10.75m1.85-2.4.25.15m4.85-5.05L6.5 3.1M24 6.4q0 1.1-.55 1.85t-1.3.75m-2.4-.45v1.2l.65.3 1.75-.85m-5.4-1.6-.05.05M11.25 13l-.35-.25M9 14.85l.2.4 1.55-.3q.6-.35.6-.7l1.8-2.35.6-.7.45-.45m6.2 4.95 1.75-.85m-1.75.85-.65-.3v1.8m-3-9.6 1.45-1.8v-.75l-.55-.55m-2.4 2.35.25.75.15.1 1.05-.05m-2.95 3.95-.6.3m.6-.7v1.55l.35-.2 5.65 2.85m-.95-7-4.6 2.35m-.45 2.65-2.4 1.2q.6 1.9.4 3.8m-.4 1.85 2.4-1.2.2-.75q.55-2.45-.2-4.9v-.65m-2.4 1.85v-.35m0 7.8v-1.8m2.4-1.2v1.15M9.2 15.25 3.25 12.3M15.5 7.6 7.15 3.45m15 4.35-3.95-2" fill="none" stroke="#515151" stroke-linecap="round" stroke-linejoin="round" transform="translate(.3 .05)"/><path d="M20.4 10.05q.9 2.85 0 5.65m-6.3-3.15 5.65-2.8m0 5.65-5.8 2.9" fill="none" stroke="#6a6a6a" stroke-linecap="round" stroke-linejoin="round" transform="translate(.3 .05)"/><path d="M3.25 18q-1.1-2.2-.65-4.1M.2 10.75q0-1 .55-1.7t1.3-.7m.25.15 4.85-5.05M6.5 3.1q-.75-1.5.75-2.45.5-.35.9-.15 2.8.75 5.5 2l1.05-.6L24 6.4m-6.35-1.9-4-2M10.9 12.75 2.3 8.5" fill="none" stroke="gray" stroke-linecap="round" stroke-linejoin="round" transform="translate(.3 .05)"/><path d="m22.15 9-2.4-.45M24 6.4l-1.85 1.4-5.4-.2m-.05.05L11.25 13m-.35-.25q-.8 0-1.35.65Q9 14 9 14.85m5.2-4.1q1.1-1.2 2.55-1.95l2.05-.4.95.15m-2.1-4.05q-1 0-1.7.7t-.7 1.65m-3.5 11.55-.4 1.85" fill="none" stroke="#606060" stroke-linecap="round" stroke-linejoin="round" transform="translate(.3 .05)"/></g><g id="c"><path d="M15.55-9.55v3.85q0 2.25-3.15 3.8l-2.3.9q-2.4.7-5.35.7H3.9Q0-.45-2.9-1.9l-1.35-.8q-1.8-1.3-1.8-3v-4.25l.4 1.35q.4.8 1.3 1.45l.1.15 1.35.8Q-.4-5 2.9-4.65l1.85.05q2.95 0 5.35-.7l2.3-.9 1.55-.95L15.2-8.6l.35-.95" fill="gray" fill-rule="evenodd" transform="translate(11.25 72.9)"/><path d="m15.55-9.55-.35.95-1.25 1.45-1.55.95-2.3.9q-2.4.7-5.35.7L2.9-4.65Q-.4-5-2.9-6.2L-4.25-7l-.1-.15q-.9-.65-1.3-1.45l-.4-1.35V-10q0-2.25 3.15-3.85Q.3-15.4 4.75-15.4q4.5 0 7.65 1.55 3.15 1.6 3.15 3.85v.45M2.5-6.4l2.25.15q3.15 0 5.4-1.1L11.2-8q.65-.5.9-1.05l.25-.95q0-1.6-2.2-2.7-2.25-1.1-5.4-1.1-3.1 0-5.35 1.1-2.2 1.1-2.2 2.7l.3.95.9 1.05 1 .65q1.35.65 3.1.95" fill="#8d8d8d" fill-rule="evenodd" transform="translate(11.25 72.9)"/><path d="M2.5-6.4Q.75-6.7-.6-7.35l-1-.65-.9-1.05-.3-.95q0-1.6 2.2-2.7 2.25-1.1 5.35-1.1 3.15 0 5.4 1.1 2.2 1.1 2.2 2.7l-.25.95q-.25.55-.9 1.05l-1.05.65q-2.25 1.1-5.4 1.1L2.5-6.4" fill="#666" fill-rule="evenodd" transform="translate(11.25 72.9)"/><path d="M-6.05-9.95v4.25m21.6-4.3v.05m-21.6 0V-10" fill="none" stroke="#666" stroke-linecap="round" stroke-linejoin="round" transform="translate(11.25 72.9)"/><path d="M-6.05-5.7q0 1.7 1.8 3l1.35.8Q0-.45 3.9-.3h.85Q7.7-.3 10.1-1l2.3-.9q3.15-1.55 3.15-3.8v-3.85m0-.4v.4" fill="none" stroke="#515151" stroke-linecap="round" stroke-linejoin="round" transform="translate(11.25 72.9)"/><path d="M-6.05-10q0-2.25 3.15-3.85Q.3-15.4 4.75-15.4q4.5 0 7.65 1.55 3.15 1.6 3.15 3.85" fill="none" stroke="gray" stroke-linecap="round" stroke-linejoin="round" transform="translate(11.25 72.9)"/><path d="m15.55-9.55-.35.95-1.25 1.45-1.55.95-2.3.9q-2.4.7-5.35.7L2.9-4.65Q-.4-5-2.9-6.2L-4.25-7l-.1-.15q-.9-.65-1.3-1.45l-.4-1.35z" fill="none" stroke="#a6a6a6" stroke-linecap="round" stroke-linejoin="round" transform="translate(11.25 72.9)"/><path d="m16.7-45.7.25 2.2.5 4.85q.6 6.45.4 9.15l-.4 4.05q-1.8 5.3-9.5 4.95-7.7-.4-8.15-9.95 1.6-1.7 3-6-1.2 2.25-3.8 2.9l.55-1.1q1.75-3.55 2.75-6.6.75 1.05.9 2.3 2.15-3.95 5.95-5.4 3.4-1.1 7.55-1.35m-.1 26.8q-.3 1.55-.95 2.55l-1.5 1-.75.45-.25.1q-2.6 1.4-5.25 1.95l-1 .2-3.75.1H3.1l-1.85-.3q-.9-1.3-1.35-3.55 1.6.7 3.4.95l.5.05q5.65.55 12.8-3.5m-3.45 6.45v.75q-.05 2.1-3.1 2.5Q7-8.8 6.9-10.9v-.15q2.55.55 6.25-1.4m-10 1.5v.05Q2.75-8.85-.2-8.95q-2.95-.1-2.9-2.35v-.85q.7 2.25 6.25 1.2" fill="#999" fill-rule="evenodd" transform="translate(11.25 72.9)"/><path d="m15.9-51.85.8 6.15q-4.15.25-7.55 1.35-3.8 1.45-5.95 5.4-.15-1.25-.9-2.3l.9-3.6.25-2.1q9.8 3.05 12.45-4.9" fill="#787878" fill-rule="evenodd" transform="translate(11.25 72.9)"/><path d="M-1.5-49q-.55-1.6.85-3.9 2.05-3.35 7.8-3.5 4.2-.1 6.65 1.65 1.85 1.3 2.1 2.9-2.65 7.95-12.45 4.9l-.25 2.1-.9 3.6q-4.65-1.35-5.1-6.25l1.3-1.5q2.65 1.3 4.95 2.05Q1.15-47.7-1.5-49m.5 15.45-2.55 4.5q-3.75-.7-3-4.1l5.55-.4" fill="#c40202" fill-rule="evenodd" transform="translate(11.25 72.9)"/><path d="m17.45-25.45-.6 2.8-.05.2h.05l-.2 3.3-.05.25q-7.15 4.05-12.8 3.5l-.5-.05q-1.8-.25-3.4-.95.45 2.25 1.35 3.55L.65-13q-1.85-.5-3.75-1.4-1.25-.65-2.5-1.45v-4.8l.45-2.75q4.25 4.4 8.7 5.2 4.4.8 7.1.15 2.65-.65 4-1.6 1.35-1 2.15-2.8-.8 1.8-2.15 2.8-1.35.95-4 1.6-2.7.65-7.1-.15-4.45-.8-8.7-5.2.65-4.1 1.6-5.65l2.55-4.5q2.6-.65 3.8-2.9-1.4 4.3-3 6 .45 9.55 8.15 9.95 7.7.35 9.5-4.95" fill="gray" fill-rule="evenodd" transform="translate(11.25 72.9)"/><path d="M13.15-14.8v2.35q-3.7 1.95-6.25 1.4v-1.6l1-.2q2.65-.55 5.25-1.95m-10 2.25v1.6Q-2.4-9.9-3.1-12.15v-2.25q1.9.9 3.75 1.4l.6.15 1.85.3h.05" fill="#666" fill-rule="evenodd" transform="translate(11.25 72.9)"/><path d="M-5.6-19.75q-6.45-2.35-4.8-11.2 1.6-8.85 7.6-16.55.45 4.9 5.1 6.25-1 3.05-2.75 6.6l-.55 1.1-5.55.4q-.75 3.4 3 4.1-.95 1.55-1.6 5.65l-.45 2.75v.9" fill="#e24747" fill-rule="evenodd" transform="translate(11.25 72.9)"/><path d="m15.9-51.85.8 6.15.25 2.2.5 4.85q.6 6.45.4 9.15l-.4 4.05-.6 2.8v.2l-.2 3.3-.05.25q-.3 1.55-.95 2.55m-21.25-4.3v.9m22.4-2.7.05-.2m-20.4-6.4q-.95 1.55-1.6 5.65M-1-33.55l.55-1.1q1.75-3.55 2.75-6.6" fill="none" stroke="#666" stroke-linecap="round" stroke-linejoin="round" transform="translate(11.25 72.9)"/><path d="m15.65-16.35-1.5 1-.75.45-.25.1v3.1q-.05 2.1-3.1 2.5Q7-8.8 6.9-10.9v-1.75l-3.75.1v1.6m0 .05Q2.75-8.85-.2-8.95q-2.95-.1-2.9-2.35v-3.1q-1.25-.65-2.5-1.45v-3.9m22.4-2.7q-.8 1.8-2.15 2.8-1.35.95-4 1.6-2.7.65-7.1-.15-4.45-.8-8.7-5.2m18.3 8.6q-2.6 1.4-5.25 1.95l-1 .2m-5.65-.2L.65-13q-1.85-.5-3.75-1.4m6.2 1.85-1.85-.3M-1-33.55q2.6-.65 3.8-2.9" fill="none" stroke="#515151" stroke-linecap="round" stroke-linejoin="round" transform="translate(11.25 72.9)"/><path d="M-5.6-19.75q-6.45-2.35-4.8-11.2 1.6-8.85 7.6-16.55l1.3-1.5q2.65 1.3 4.95 2.05 9.8 3.05 12.45-4.9m-12.45 4.9-.25 2.1-.9 3.6M-5.15-23.4l-.45 2.75m2.05-8.4 2.55-4.5" fill="none" stroke="#6c2f2f" stroke-linecap="round" stroke-linejoin="round" transform="translate(11.25 72.9)"/><path d="m12-37.75-.5-.35m3.25-3.9v-1M5.1-26.75l.2.35.45.15m3.1-6v.9m-4.6-5.5.1.35q.1.15.25.15M12.5-28l.5.75m-3.25-14.5.75-.25m-8 27.4v.35m6.6 11.9v.6m3.25-3.1v.35m1.25-3.75.2-.35M-1.5-3.35-1-3" fill="none" stroke="#b0b0b0" stroke-linecap="round" stroke-linejoin="round" transform="translate(11.25 72.9)"/><path d="m14.5-44.35-.4-.25m1.75 4.6v-.75m-10.25-3L5-44.6m3.5 5.1-.15-.25m-2.5 10-.25-.1m10 4.5V-26m-.25-3.1.4-.65m-3.25 13.9.25-.75M9-23l.25.5M1.5-21.25l.25-.5M4.1-16.5l-.6-.5m5.35 2.65V-15M.1-10.35v.5m2.5 7.1V-2M14-4.85v-.5M11.75-7l-.15-.25m.25-3.6q.4 0 .5-.25m-17.25 6-.25-.25m1.9-2.75-.4-.5m1-10v.85m0-6-.3-.35m1.95-4-.05.35" fill="none" stroke="#666" stroke-linecap="round" stroke-linejoin="round" transform="translate(11.25 72.9)"/><path d="m12.75-33.95-.1.1.1-.1" fill="#ea3131" fill-rule="evenodd" transform="translate(11.25 72.9)"/><path d="m13.8-37.65.1-.05-.1.1v-.05m1.6 1.4.5 2.3-.45-.65-.8-.1-1 .3-.5.3-.1.05-.3.1V-34l.2-1 .4-.2 1.35-.65h.05l.65-.4" fill="#6c2f2f" fill-rule="evenodd" transform="translate(11.25 72.9)"/><path d="M13.8-37.65v.05l.1-.1q1.5-.85 2.8-1.85 1.2-1 1.3-.5l.3.9.15.75-.15.35-.3.25-2.6 1.55-.65.4h-.05l-1.35.65-.4.2-.55.2q-7.3 3.05-14.5 1.05l-.5-.15-.55-.45-.1-.8.5-.55.75-.1q7.2 2.2 14.5-1.2l1.25-.6.05-.05m2.1 3.7v.1l.7 2.45-.45.4-.55.35-1.25-1.65v2l-1.1.4q-1.5.55-.5-4.05l.3-.1.1-.05.5-.3 1-.3.8.1.45.65" fill="#e24747" fill-rule="evenodd" transform="translate(11.25 72.9)"/><path d="m18.3-38.05-.3.25-2.6 1.55m1.2 4.85-.45.4-.55.35-1.25-1.65m0 2-1.1.4q-1.5.55-.5-4.05m.2-1.05-.55.2q-7.3 3.05-14.5 1.05M12.95-35l.4-.2 1.35-.65h.05l.65-.4" fill="none" stroke="#893812" stroke-linecap="round" stroke-linejoin="round" transform="translate(11.25 72.9)"/><path d="M1.25-55.7q.8 2.95 2.15 4.9-4.2-.4-8.95-3.55l.9 1.8q-2.9 1.9-4.35.45l-.05-.5q.15-2.85 1.05-4.3l1.35-2.6.45-2.8q.45-1.75 1.55-3.5Q-.45-64 .6-58.5q.25 1.5.65 2.8" fill="#999" fill-rule="evenodd" transform="translate(11.25 72.9)"/><path d="M-9-52.1q1.45 1.45 4.35-.45l-.9-1.8Q-.8-51.2 3.4-50.8l1.45 1.65-3.55-.25q-2.8-.55-5.15-1.95l1 1.05-1.75.6-1.05.15-1.05-.05q-.8-.15-1.25-.55Q-8.9-51-9-52.1m4.35-.45.5.8.3.4-.3-.4-.5-.8" fill="#787878" fill-rule="evenodd" transform="translate(11.25 72.9)"/><path d="M3.4-50.8q-1.35-1.95-2.15-4.9 11.25 5 17.25-9.5 2.7 8.65-2.6 13.35-6.1 2.55-11.05 2.7L3.4-50.8" fill="#c40202" fill-rule="evenodd" transform="translate(11.25 72.9)"/><path d="M1.25-55.7Q.85-57 .6-58.5-.45-64-4.65-65.8q-.5-.2.25-.95L-3.1-68q6.75-8.25 19.25-1.1l2.35 3.9q-6 14.5-17.25 9.5" fill="#e24747" fill-rule="evenodd" transform="translate(11.25 72.9)"/><path d="M3.4-50.8q-1.35-1.95-2.15-4.9m2.15 4.9 1.45 1.65q4.95-.15 11.05-2.7 5.3-4.7 2.6-13.35l-2.35-3.9Q3.65-76.25-3.1-68l-1.3 1.25q-.75.75-.25.95" fill="none" stroke="#6c2f2f" stroke-linecap="round" stroke-linejoin="round" transform="translate(11.25 72.9)"/><path d="M1.25-55.7Q.85-57 .6-58.5-.45-64-4.65-65.8m-2 6.3L-8-56.9q-.9 1.45-1.05 4.3l.05.5q.1 1.1 1.05 1.95.45.4 1.25.55l1.05.05 1.05-.15 1.75-.6-1-1.05-.3-.4-.5-.8-.9-1.8" fill="none" stroke="#666" stroke-linecap="round" stroke-linejoin="round" transform="translate(11.25 72.9)"/><path d="M-4.65-65.8q-1.1 1.75-1.55 3.5l-.45 2.8" fill="none" stroke="#838383" stroke-linecap="round" stroke-linejoin="round" transform="translate(11.25 72.9)"/><path d="M-3.85-51.35q2.35 1.4 5.15 1.95l3.55.25" fill="none" stroke="#515151" stroke-linecap="round" stroke-linejoin="round" transform="translate(11.25 72.9)"/><path d="m16.25-38 2-1.5m-2.5 5q0 1.25.25 2.5m-1.75-1.75q0 1.75.25 2.75M-1.55-65.6l.85.8 1.6 2.7M-3-35.75q1.45 1 2 1.25" fill="none" stroke="#ea8080" stroke-linecap="round" stroke-linejoin="round" transform="translate(11.25 72.9)"/></g><path d="M18.35-3.2q-.5 1.05-1.6 1.9L14.7-.05 11.75 1.1q-3.15.9-7 .9l-2.4-.05q-4.25-.45-7.5-2L-17.6 6.2-28.15.95-14.1-6.1l5.2 2.6-.35-1.45V-5q0-2.9 4.1-5 4.15-2 9.9-2 5.85 0 9.95 2 4.1 2.1 4.1 5v.6l-.45 1.2" fill-opacity=".2" fill-rule="evenodd" transform="translate(28.15 12)" id="a"/><use height="22.6" width="24.8" xlink:href="#d" id="b"/></defs></svg>