<svg xmlns="http://www.w3.org/2000/svg" xmlns:xlink="http://www.w3.org/1999/xlink" height="45" width="41"><use height="44.45" width="40.05" xlink:href="#shape0"/><defs id="defs84"><radialGradient cx="0" cy="0" gradientTransform="translate(-16.25 -11.75) scale(.0115)" gradientUnits="userSpaceOnUse" id="gradient0" r="819.2" spreadMethod="pad"><stop offset="0" stop-color="#959595" id="stop77"/><stop offset=".745" stop-color="#787878" id="stop79"/><stop offset="1" stop-color="#787878" id="stop81"/></radialGradient><g id="shape0" transform="translate(23.85 45.65)"><path d="M-3.9-9.5Q-3.15-6.75-.2-6l3.45.75q3.4.3 6.75-.8 2.45-.8 3.4-3.1-.1 2.35-.95 4.4L11.6-3.7q-3.1 1.95-6.8 2-2.65.1-5.1-.85Q-2.8-3.6-3.9-6.1v-3.4" fill="gray" fill-rule="evenodd" stroke="none" id="path6"/><path d="M4.8-6.55q-2.55 0-4.3-.9-1.8-.9-1.8-2.15t1.8-2.15q1.75-.9 4.3-.9t4.35.9q1.75.9 1.75 2.15T9.15-7.45q-1.8.9-4.35.9" fill="#666" fill-rule="evenodd" stroke="none" id="path8"/><path d="M13.4-9.5v-.05m-17.3 0v3.45" fill="none" stroke="#666" stroke-linecap="round" stroke-linejoin="round" stroke-width="1" id="path10"/><path d="M13.4-9.15v-.35M-3.9-6.1q1.1 2.5 3.6 3.55 2.45.95 5.1.85 3.7-.05 6.8-2l.85-1.05q.85-2.05.95-4.4" fill="none" stroke="#515151" stroke-linecap="round" stroke-linejoin="round" stroke-width="1" id="path12"/><path d="M13.4-9.55q-.4-2.3-2.55-3.1Q6.1-14.5 1-13.45q-2 .4-3.45 1.45-1.3.9-1.45 2.45" fill="none" stroke="gray" stroke-linecap="round" stroke-linejoin="round" stroke-width="1" id="path14"/><path d="M-3.9-9.5Q-3.15-6.75-.2-6l3.45.75q3.4.3 6.75-.8 2.45-.8 3.4-3.1" fill="none" stroke="#a6a6a6" stroke-linecap="round" stroke-linejoin="round" stroke-width="1" id="path16"/><path d="M14.2-26.6l.25 1.3q1.2 5.4.35 10.85-1.45 3.15-7.6 2.95-2.95-.1-3.8-1.1-.75-.85-.95-3.85.45-.4.6-1.15l.55-1.95-2.55.95 1.55-4.75.55.35.9 1.95q2-.9 5.15-1.55 3.1-.65 5-4" fill="#999" fill-rule="evenodd" stroke="none" id="path18"/><path d="M14.2-26.6q-1.9 3.35-5 4-3.15.65-5.15 1.55L3.15-23l-.55-.35 1-4q7.85 1.8 9.95-2.95l.65 3.7M12.55-11q-4.5 3.25-10.1 3.5-2.6.1-4.85-1l.25-1.85 1.2-1.9Q1.7-9.8 5.4-9.9q3.85.4 7.15-1.1" fill="#787878" fill-rule="evenodd" stroke="none" id="path20"/><path d="M-1.4-27.7l1.05-.9q-.45-.95.7-2.35 1.6-2 6.2-2.1 3.4-.05 5.35 1 1.45.8 1.65 1.75-2.1 4.75-9.95 2.95l-1 4q-1.65 0-2.8-1.25-1.2-1.3-1.2-3.1m1.35 12.8q-3.25-.4-4.25-3.65l-.1-.55 5.45.5-1.1 3.7M3.6-27.35Q1.75-27.8-.35-28.6q2.1.8 3.95 1.25" fill="#c40202" fill-rule="evenodd" stroke="none" id="path22"/><path d="M1.05-18.6l2.55-.95-.55 1.95q-.15.75-.6 1.15.2 3 .95 3.85.85 1 3.8 1.1 6.15.2 7.6-2.95l-.5 1.8L12.55-11Q9.25-9.5 5.4-9.9q-3.7.1-6.35-2.35l.9-2.65 1.1-3.7" fill="gray" fill-rule="evenodd" stroke="none" id="path24"/><path d="M2.6-23.35L1.05-18.6l-5.45-.5.1.55q1 3.25 4.25 3.65l-.9 2.65-1.2 1.9-.25 1.85-4.45-2q-.5-8.15 3.95-14.85l1.5-2.35q0 1.8 1.2 3.1 1.15 1.25 2.8 1.25" fill="#f22f2f" fill-rule="evenodd" stroke="none" id="path26"/><path d="M14.8-14.45q.85-5.45-.35-10.85l-.25-1.3M2.6-23.35L1.05-18.6m13.75 4.15l-.5 1.8m-.75-17.65l.65 3.7M-.05-14.9l-.9 2.65m-1.2 1.9L-2.4-8.5" fill="none" stroke="#666" stroke-linecap="round" stroke-linejoin="round" stroke-width="1" id="path28"/><path d="M1.05-18.6l2.55-.95m10.7 6.9L12.55-11q-4.5 3.25-10.1 3.5-2.6.1-4.85-1m1.45-3.75Q1.7-9.8 5.4-9.9q3.85.4 7.15-1.1" fill="none" stroke="#515151" stroke-linecap="round" stroke-linejoin="round" stroke-width="1" id="path30"/><path d="M-2.4-8.5l-4.45-2q-.5-8.15 3.95-14.85l1.5-2.35 1.05-.9q2.1.8 3.95 1.25l-1 4m10.95-6.95q-2.1 4.75-9.95 2.95M1.05-18.6l-1.1 3.7m-.9 2.65l-1.2 1.9" fill="none" stroke="#6c2f2f" stroke-linecap="round" stroke-linejoin="round" stroke-width="1" id="path32"/><path d="M14.3-12.65l-.85-2.95m-2 .75l-.9 4.3M-.95-17.9q4.75 1.55 9.6-.15l3.65-1.35 2.55-1.5" fill="none" stroke="#ea3131" stroke-linecap="round" stroke-linejoin="round" stroke-width="2" id="path34"/><path d="M13.45-15.6l-1.15-3.8-.85 4.55" fill="none" stroke="#6c2f2f" stroke-linecap="round" stroke-linejoin="round" stroke-width="2" id="path36"/><path d="M-2.6-39.65q.75-3.2 3.9-4.55 4.75-2 9.45.2 2.8 1.25 4.05 3.85-2.1 5.05-6.2 7.2-4.05 2.1-8 .35l-.85-4.5q-.4-1.85-2.35-2.55" fill="#f22f2f" fill-rule="evenodd" stroke="none" id="path38"/><path d="M-4.75-30.95q-.1-1.75.7-3.4l.95-1.8.5-3.5q1.95.7 2.35 2.55l.85 4.5.35 1.65q-1.55 0-3.6-1.6l.95 1.25q-2.05 1.35-3.05.35" fill="#999" fill-rule="evenodd" stroke="none" id="path40"/><path d="M2.25-29.2q-1.3 0-3.4-1.25l.7.75q-2.35 1.3-3.95-.6l-.35-.65q1 1 3.05-.35l.55.85-.55-.85-.95-1.25q2.05 1.6 3.6 1.6l1.3 1.75" fill="#787878" fill-rule="evenodd" stroke="none" id="path42"/><path d="M14.8-40.15q1.3 3.2.7 6.7-.45 2.75-2.8 3.45-5.2 1.65-10.45.8l-1.3-1.75L.6-32.6q3.95 1.75 8-.35 4.1-2.15 6.2-7.2" fill="#c40202" fill-rule="evenodd" stroke="none" id="path44"/><path d="M-2.6-39.65q.75-3.2 3.9-4.55 4.75-2 9.45.2 2.8 1.25 4.05 3.85 1.3 3.2.7 6.7-.45 2.75-2.8 3.45-5.2 1.65-10.45.8M.6-32.6l.35 1.65 1.3 1.75" fill="none" stroke="#6c2f2f" stroke-linecap="round" stroke-linejoin="round" stroke-width="1" id="path46"/><path d="M-1.15-30.45l.7.75q-2.35 1.3-3.95-.6l-.35-.65q-.1-1.75.7-3.4l.95-1.8m.5-3.5q1.95.7 2.35 2.55l.85 4.5m-2.3 1.3l.55.85m-1.5-2.1l.95 1.25" fill="none" stroke="#666" stroke-linecap="round" stroke-linejoin="round" stroke-width="1" id="path48"/><path d="M-3.1-36.15l.5-3.5" fill="none" stroke="#838383" stroke-linecap="round" stroke-linejoin="round" stroke-width="1" id="path50"/><path d="M2.25-29.2q-1.3 0-3.4-1.25" fill="none" stroke="#515151" stroke-linecap="round" stroke-linejoin="round" stroke-width="1" id="path52"/><path d="M-23.3-15.15v-.15l-.05-.05q0-1.45 2.05-2.5 2.05-1 4.95-1 2.85 0 4.9 1 2.1 1.05 2.1 2.5v.05l-.05.55-.25.3q-.2.55-.75 1l-1.05.6-.7.35-.75.25-3.45.4h-1.25l-2.2-.4q-.8-.25-1.5-.6l-.9-.5-.05-.1-.85-1-.2-.5v-.2m6.1 12.75l-.95-.1q-1.4-.25-2.5-.8l-.75-.5-.7-.85q-.2-.35.35-.75l.25.75.6.85.7.5.95.45.35.15.95.2.75.1m6.25-3q.6.4.4.75-.2.45-.75.85l-.85.5q-1.2.6-2.75.8 1-.15 1.85-.55l.5-.25.75-.5q.5-.4.65-.85l.2-.75" fill="#666" fill-rule="evenodd" stroke="none" id="path54"/><path d="M-23.3-15.3v.15l-.05-.15h.05-.05v-.05l.05.05m13.9.55l.05-.55v.3l-.05.25" fill="#89544b" fill-rule="evenodd" stroke="none" id="path56"/><path d="M-23.3-14.95l.2.5.85 1 .05.1.9.5q.7.35 1.5.6l2.2.4h1.25l3.45-.4.75-.25.7-.35 1.05-.6q.55-.45.75-1l.25-.3-1.55 9.35-.2.75q-.15.45-.65.85l-.75.5-.5.25q-.85.4-1.85.55l-2.3.1-.75-.1-.95-.2-.35-.15-.95-.45-.7-.5-.6-.85-.25-.75-1.55-9.55" fill="url(#gradient0)" fill-rule="evenodd" stroke="none" id="path58"/><path d="M-23.3-15.15v-.15h-.05l.05.15v.2l.2.5.85 1 .05.1m12.8-1.4l.05-.55v-.05m-14 0l.05.05m1.55 9.9l-1.55-9.55" fill="none" stroke="gray" stroke-linecap="round" stroke-linejoin="round" stroke-width="1" id="path60"/><path d="M-23.35-15.3v-.05" fill="none" stroke="#666" stroke-linecap="round" stroke-linejoin="round" stroke-width="1" id="path62"/><path d="M-22.2-13.35l.9.5q.7.35 1.5.6l2.2.4h1.25l3.45-.4.75-.25.7-.35 1.05-.6q.55-.45.75-1l.25-.3m.05-.6q0-1.45-2.1-2.5-2.05-1-4.9-1-2.9 0-4.95 1-2.05 1.05-2.05 2.5" fill="none" stroke="#a6a6a6" stroke-linecap="round" stroke-linejoin="round" stroke-width="1" id="path64"/><path d="M-17.2-2.4l-.75-.1-.95-.2-.35-.15-.95-.45-.7-.5-.6-.85-.25-.75m6.85 2.9l-2.3.1m7.85-12.9v.3M-14.9-2.5q1-.15 1.85-.55l.5-.25.75-.5q.5-.4.65-.85l.2-.75" fill="none" stroke="#515151" stroke-linecap="round" stroke-linejoin="round" stroke-width="1" id="path66"/><path d="M-9.4-14.75l-1.55 9.35" fill="none" stroke="#757575" stroke-linecap="round" stroke-linejoin="round" stroke-width="1" id="path68"/><path d="M-8.4-10.25l-1.4-2.05m-10.2.8l3.6 5.25" fill="none" stroke="gray" stroke-linecap="round" stroke-linejoin="round" stroke-width="1" id="path70"/><path d="M-8.7-9.2l-8 4-3.6-5.25" fill="none" stroke="#666" stroke-linecap="round" stroke-linejoin="round" stroke-width="1" id="path72"/><path d="M-16.4-6.25l8-4z" fill="none" stroke="#a6a6a6" stroke-linecap="round" stroke-linejoin="round" stroke-width="1" id="path74"/></g></defs></svg>