<svg xmlns="http://www.w3.org/2000/svg" xmlns:xlink="http://www.w3.org/1999/xlink" height="93" width="83"><g transform="translate(80.7 66.1)"><use height="88.6" transform="translate(-45 -66.1)" width="46.8" xlink:href="#shape0"/><use height="56.8" transform="translate(-80.7 -30.15)" width="75.2" xlink:href="#sprite0"/></g><defs id="defs55"><g id="shape0" transform="translate(45 66.1)"><path d="M-45 2.45l5-2.5L0 20l-5 2.5-40-20.05" fill="#000" fill-opacity=".094" fill-rule="evenodd" stroke="none" id="path8"/><path d="M0-44.25V-45l.55-.25.75.35-.75-.35.75-.4v.75l-1.3.65 1.3-.65v64.25L0 20v-64.25" fill="#4e3123" fill-rule="evenodd" stroke="none" id="path10"/><path d="M0-45v.75l-7.95-3.95v-.75h.05L0-45m-30.8-15.65l6.35 2.85-.6.3h-.05v12.35q-.2-6.6-1.35-12.2L-31.8-60l1-.65" fill="#704532" fill-rule="evenodd" stroke="none" id="path12"/><path d="M.55-45.25L0-45l-7.9-3.95 1.3-.65-1.3.65h-.05l-8.5-4.25-.9-.45-7.7-3.85.6-.3.7-.35 8.55 4.3 8.6 4.25v.75l7.15 3.6M-40-64.95l1.3-.65 7.9 3.95-1.3.65-.9-.45-7-3.5m24.8 11.1l-1.25.65 1.25-.65" fill="#6a4331" fill-rule="evenodd" stroke="none" id="path14"/><path d="M-7.9-48.95h-.05v.75L0-44.25V20l-7.95-4-9.45-4.7V3.35q1.15-8.25 0-21.4v-.1l.05-34.65.9-.4-.9.4-.05 34.65v.1q1.15 13.15 0 21.4v7.95l-6.7-3.4-1.05-.5-7.9-3.95.05-64.05-.05 64.05L-40-.05v-64.9l7 3.5.9.45-.9.4 1.2.6 5.35 2.65q1.15 5.6 1.35 12.2V-57.5h.05-.05.05l7.7 3.85.9.45 8.5 4.25h.05M-33-61.45v.85-.85m7.9 16.3v.6l-.75 17.7q-.25 9.9.7 15.7V7.4v-18.55q-.95-5.8-.7-15.7l.75-17.7v-.6m-9.1-12.45v3.25-3.25m16.85 3.95v.85-.85m9.4 5.45V16v-64.2m-10.6-2v-3.15 3.15m-.85 16.1q.6-.25.6-1.1 0-.8-.6-1.7l-1.4-1.25-1.45-.2q-.55.35-.55 1.15 0 .85.55 1.65.6.95 1.45 1.35l1.4.1m9.85 7.55v-19.1 19.1m-15.6 15.4l.05-32.1v-1.3 1.3l-.05 32.1M-31.3-44.2v-7 7m15.1 20.25v4.75-4.75M-6.55-15v3.35V-15M-38.7-4.25V-8.5v4.25m36.9-5V5.1-9.25M-24.1-5.5V7.9-5.5m6.7-12.55v21.4-21.4" fill="#9c8363" fill-rule="evenodd" stroke="none" id="path16"/><path d="M0-44.25l1.3-.65m-9.2-4.05h-.05v.75M0-44.25V20m-6.6-69.6l-1.3.65h-.05m-22.85-12.7v1m-1 .65l1-.65m0-1l-1.3.65-.9.4 1.2.6m5.35 2.65q1.15 5.6 1.35 12.2V-57.5h.05l.6-.3M-33-60.6l-.05 64.05m7.9 3.95v-18.55q-.95-5.8-.7-15.7l.75-17.7v-.6M-33-60.6v-.85m-7-3.5v64.9M-32.1-61l-.9-.45m7.9 3.95h.05m7.7 3.85l.9.45 1.25-.65m-1.25.65l-.9.4-.05 34.65v.1q1.15 13.15 0 21.4v7.95m9.45 4.7v-64.2m-9.4-4.6v-.85M-19.4-34.1l-1.4-.1q-.85-.4-1.45-1.35-.55-.8-.55-1.65 0-.8.55-1.15l1.45.2 1.4 1.25q.6.9.6 1.7 0 .85-.6 1.1m-5.7-10.45v1.3l-.05 32.1M-24.1 7.9l-1.05-.5m7.75-4.05v-21.4" fill="none" stroke="#754f35" stroke-linecap="round" stroke-linejoin="round" stroke-width="1" id="path18"/><path d="M-33.05 3.45l7.9 3.95M-40-.05l6.95 3.5m15.65 7.85l9.45 4.7m-9.45-4.7l-6.7-3.4M0 20l-7.95-4" fill="none" stroke="#613d2c" stroke-linecap="round" stroke-linejoin="round" stroke-width="1" id="path20"/><path d="M-34.2-54.35v-3.25m15.65 4.25v3.15m9 4.55v19.1M-38.7-8.5v4.25m32.15-7.4V-15m-9.65-4.2v-4.75M-31.3-51.2v7m7.2 52.1V-5.5M-1.8 5.1V-9.25" fill="none" stroke="#8e755b" stroke-linecap="round" stroke-linejoin="round" stroke-width="1" id="path22"/><path d="M-7.95-48.2L0-44.25M-31.8-60l5.35 2.65m-6.55-4.1l-7-3.5m14.95 7.45l7.7 3.85m9.4 4.7l-8.5-4.25" fill="none" stroke="#895a3d" stroke-linecap="round" stroke-linejoin="round" stroke-width="1" id="path24"/><path d="M1.3-44.9l-.75-.35-7.15-3.6v-.7M0 20l1.3-.65V-44.9M-40-64.95l1.3-.65 7.9 3.95m0 1l6.35 2.85.7-.35 8.55 4.3 8.6 4.25" fill="none" stroke="#413a30" stroke-linecap="round" stroke-linejoin="round" stroke-width="1" id="path26"/><path d="M-40.55-7.7q-1.65-3.85 0-7.1L0 5.45q-.95 3.75 0 7.1L-40.55-7.7M-33-46q-2.3 0-3-1.75 2.1-.9 3 1.75-.9-2.65-3-1.75.7 1.75 3 1.75m5.45 42.8Q-29.1-5.25-29-3.25q-.1-2 1.45.05m2.4-.55l2.15 1-2.15-1m-15.4-43.95q-1.65-3.85 0-7.1L0-34.55q-.95 3.75 0 7.1L-40.55-47.7m36.5 13.2L-40-52.25-4.05-34.5m-8.2 38.75l.25.25-.25-.25M-5.5 8l2 1.5-2-1.5m.95-3.05L-39.05-12l34.5 16.95" fill="#9c8363" fill-rule="evenodd" stroke="none" id="path28"/><path d="M-40.55-7.7q-1.65-3.85 0-7.1m0-32.9q-1.65-3.85 0-7.1m.55 2.55L-4.05-34.5m-35 22.5l34.5 16.95" fill="none" stroke="#8e755b" stroke-linecap="round" stroke-linejoin="round" stroke-width="1" id="path30"/><path d="M-40.55-14.8L0 5.45q-.95 3.75 0 7.1M-40.55-54.8L0-34.55q-.95 3.75 0 7.1" fill="none" stroke="#754f35" stroke-linecap="round" stroke-linejoin="round" stroke-width="1" id="path32"/><path d="M-23-2.75l-2.15-1m-3.85.5q-.1-2 1.45.05M-33-46q-.9-2.65-3-1.75.7 1.75 3 1.75M-3.5 9.5l-2-1.5" fill="none" stroke="#a98f78" stroke-linecap="round" stroke-linejoin="round" stroke-width="1" id="path34"/><path d="M-12 4.5l-.25-.25" fill="none" stroke="#6c503e" stroke-linecap="round" stroke-linejoin="round" stroke-width="1" id="path36"/><path d="M0 12.55L-40.55-7.7M0-27.45L-40.55-47.7" fill="none" stroke="#613d2c" stroke-linecap="round" stroke-linejoin="round" stroke-width="1" id="path38"/></g><g id="sprite0" transform="translate(40.7 50.15)"><use height="56.8" transform="translate(-40.7 -50.15)" width="75.2" xlink:href="#shape1" id="use41" x="0" y="0"/></g><g id="shape1" transform="translate(40.7 50.15)"><path d="M24-35l-1.8 1.55q2.95 1.2 5.45.4 2.5-.85 6.85 1.55-4.15.45-5.7 1.85l-3.3 2.45q5.15-1.3 7.3-.95l.3.05-.05.15q-.9 1.95-1.75 5.1-.9 3.1-4.55 9.15-3.65 6.05 0 7.95Q17.8-.65 16.45-.6L16-.75l-4.75-1.5 3 2.6q2.9 2.5 4.5 1.95-4.5 2.25-9.85 1.6Q2.3 5.7.25 5l-2.9-1.05q-.75-.3-.65-1.75 0-.65-.7-.5-.95.15-3.25 1.7-1.05.65-2.75 1.1l-.5.1-7.25.55-7.7-.45 3.4-.3q-3.5-3.3-4.15-2.8l-1.05.7-7.15-.55q1.55-.55 4.5-3.2 2.55-2.35 5.4-4.3l-8.35 1.65q-5.25.9-6.15.1 3.35-1.65 3.3-2.5v-.1l.2-1.7q1.2-4.85 10.4-9.05 9.1-4.2 20.3-15l-.25-.95-1.4-2.7q-1.05-1.85 2.9-1.95l3.25.1-4.35-3.05q4-1.9 5.6-.9l-2.85-3.55q11.85 5.1 5.25-.85 5.8 1.3 8.65 3.3 2.85 1.95 1.5 3.65l.5-.35 2.2-1.4q1.35-.9 7.8-.8-4.55 3.35-5.15 4.65-.65 1.3-.9 1.45-.3.15-.45 1 1.55-1.85 2.2-1.65.65.15 2-.7 1.4-.9 4.4.65L24-35M5.3 3.25q-.5.25 3.15.55l-3-.4q.3-.4-.15-.15" fill="#000" fill-opacity=".2" fill-rule="evenodd" stroke="none" id="path44"/><path d="M-32.65-8.15L-33.7-9.4l2.5-1.9.25-.15-2.35-.4-1.7.2-.35-1.8-4.85 3q2-8.25 5.45-7.2-2.05-6.45 5.25-5.1-1.75-4.1 1.25-5.35-2.1-2.35-6.35-3.15 4.4-3.95 6.55-2.15.9-.95 1.85-1.2.9-.25 5.4-.1-3.5-4.5-6.6-1.1 1.2-6.7 7.4-4.55 1.6.05 1.35-1.65l-4.55-1.3q4.2-4.8 7.55-1 4.7.1 5.8 1.05l-4.35-6.4q7.35 1.1 7.75 5.8 2.55-2.5 3.75-2.5 1.2-.05 2-2.7 2.2 2.15 3 6.3l1-.25q1.45-.05 3.35 1.15 2.75-6.25 8.45-.1-3.25.55-3.8 3.8 3.05-2.95 4.7.5 2.9-1.6 5.4.65l-4.55 1.55q.65 2.05.75 4.4 3.55-.05 6.45 2.15 2.4-1.65 5.8 0l-7.8 4.7 2.35.1q-.35.45-1.7 1-2.1.85-4.6.85l-2.3-.2-.5-.35H14q.05 1.7-.25 2.15-.5.65-5.15.65l-3.05-.55-.35 1.05q-.45.75-1.45.4h-1.4l.15 2.25v1.65q-.15 1.2-1 1.2L0-14.85q-1.2-.9-3.35-.9-1.95 0-2.65-.9-.4-.45-.5-1.25l-2.95 1.2q-1.9.7-3.3.7-1.5 0-1.5-3.4l-1.35.15q-1.4 0-2-1.45-.4-.9-.4-1.95l-1.25.55-2.25.85.5 1.5.5 1.7-.05.55-2.8-.1-2.55.45-.6.55.25.8.25.8q0 .45-.45.7l2.95 2.95v.9l-2.4 1.6-2.45 1.35q-.7 0-1.15-.6l-.75-.65q-.95 0-2.4.6m55.15-1.1q2 2.9 1.55 4l-.45-.25.45.25q.2-2-2.6-4h1.05m-2.25 5.1q.85.9 1.75 1.45l-2.05-1.1.3-.35m-3-27.35q0-.9-1.5-1.15l-.7-.05-1.4-.25q-.7.25-.85.75l-.7.65q-.6.2-.6.95 0 .3.75.85l1.3-.25 1.25-.05.1-.2.1-.25h.5l1.45-.1q.3-.1.3-.55v-.35M.25-28q.8-.1 1.15-.7l.65-.5 1.2-1.2-.25-.65-1.85.25-.25.05q-.4-.55-1.05-.65-.95-.15-1.05.7l-1.15-.35q-2.15-.45-2.15.65l.1.45.1.15 1.6.4-.05.25.1.45.1.15 1.85.3h.65l.3.25m-27-.75q-.5.3-.5.85l.05.05-.3.7L-26-26l.5-.1.2-.2.05-.2 1.4-1h.05l.35-.15q.9-.3 1.45-1.15-.45-.9-1.35-.8l-1.5-.15q-1.8.15-1.9 1M-15.35-14q1.4-.65 2.25.3l.7.1v.55l-.1.8.75.8.65.6q.35.2.35 1L-13-7.75Q-15.2-6-15.35-6l-.7-.1-.1-.1-.05-.05-1.65-.3-1.2-1.2-.15-.05-.3-.2-.25-1.75.1-.35-.35-.3q0-.6 1.2-1.55 1-.8 1.95-.9.35-.6 1.5-1.15m14.6-26.3q1.8-1.9 3.05-2.45-1.25.55-3.05 2.45" fill="#558046" fill-rule="evenodd" stroke="none" id="path46"/><path d="M24.4-24.1l.3.05 2.15 1.15.35.95v.45l-.05.2-.05.35-.1.3q4.4-1.85 6.8 1.35h-4.2q.4 2.55 0 4.75l2.15 1.65-3 .8q-.4.8-1.15 1.45l-2.15-1.3q-2.75-1.4-3.7-1.4l.2.3q.75.45 1.85 2.55-.7 1.3-4-2.15l2.7 3.4h-1.05q2.8 2 2.6 4l-.45-.25-1.5-.7-3.6-.2.35.5 1.4 1.75-.3.35L22-2.7l.1.05.25.15v.05Q20.9-1.05 16-3.65l1.75 3.1Q15.3 0 13.4-.95q-1.95-.95-2.15-1.3-3.4-1.6-3.85 1.2Q10.7.85 9.75 1.5q-4.3 3.1-14.7 4.65 3.7-3.55 1.55-3.2L-9.65 4.1q-4.1.8-2.8-.4 1.35-1.2 2.25-2.5l.95-1.35-.75.3-3.75 1.2q-2.6.5-3.45-1l-.55-.65-2.65-.1-.55.15-.7.2-2.45.3h-.1l.2-.3 1.2-1.45 3-2.7q-5.95.5-6.35 2.15-.4 1.65-.8 1.85-.75-.2-1.45-.55h-4l2.45-.9-1.2-.95-.65-.6-3.9-1.1 3.8-3-.75-.85q1.45-.6 2.4-.6l.75.65q.45.6 1.15.6l2.45-1.35 2.4-1.6v-.9l-2.95-2.95q.45-.25.45-.7l-.25-.8-.25-.8.6-.55 2.55-.45 2.8.1.05-.55-.5-1.7-.5-1.5 2.25-.85 1.25-.55q0 1.05.4 1.95.6 1.45 2 1.45l1.35-.15q0 3.4 1.5 3.4 1.4 0 3.3-.7l2.95-1.2q.1.8.5 1.25.7.9 2.65.9 2.15 0 3.35.9l1.5.85q.85 0 1-1.2v-1.65l-.15-2.25h1.4q1 .35 1.45-.4l.35-1.05L8.6-20q4.65 0 5.15-.65.3-.45.25-2.15h1.3l.5.35 2.3.2q2.5 0 4.6-.85 1.35-.55 1.7-1M.25-28l-.3-.25H-.7l-1.85-.3-.1-.15-.1-.45.05-.25-1.6-.4-.1-.15-.1-.45q0-1.1 2.15-.65l1.15.35q.1-.85 1.05-.7.65.1 1.05.65l.25-.05L3-31.05l.25.65-1.2 1.2-.65.5q-.35.6-1.15.7m17-3.5v.35q0 .45-.3.55l-1.45.1H15l-.1.25-.1.2-1.25.05-1.3.25q-.75-.55-.75-.85 0-.75.6-.95l.7-.65q.15-.5.85-.75l1.4.25.7.05q1.5.25 1.5 1.15m-44 2.75q.1-.85 1.9-1l1.5.15q.9-.1 1.35.8-.55.85-1.45 1.15l-.35.15h-.05l-1.4 1-.05.2-.2.2-.5.1-1.5-1.15.3-.7-.05-.05q0-.55.5-.85M-15.35-14q-1.15.55-1.5 1.15-.95.1-1.95.9Q-20-11-20-10.4l.35.3-.1.35.25 1.75.3.2.15.05 1.2 1.2 1.65.3.05.05.1.1.7.1q.15 0 2.35-1.75l2.25-2.1q0-.8-.35-1l-.65-.6-.75-.8.1-.8v-.55l-.7-.1q-.85-.95-2.25-.3" fill="#406035" fill-rule="evenodd" stroke="none" id="path48"/><path d="M-32.65-8.15L-33.7-9.4l2.5-1.9.25-.15-2.35-.4-1.7.2-.35-1.8-4.85 3q2-8.25 5.45-7.2-2.05-6.45 5.25-5.1-1.75-4.1 1.25-5.35-2.1-2.35-6.35-3.15 4.4-3.95 6.55-2.15.9-.95 1.85-1.2.9-.25 5.4-.1-3.5-4.5-6.6-1.1 1.2-6.7 7.4-4.55 1.6.05 1.35-1.65l-4.55-1.3q4.2-4.8 7.55-1 4.7.1 5.8 1.05l-4.35-6.4q7.35 1.1 7.75 5.8 2.55-2.5 3.75-2.5 1.2-.05 2-2.7 2.2 2.15 3 6.3l1-.25q1.45-.05 3.35 1.15 2.75-6.25 8.45-.1-3.25.55-3.8 3.8 3.05-2.95 4.7.5 2.9-1.6 5.4.65l-4.55 1.55q.65 2.05.75 4.4 3.55-.05 6.45 2.15 2.4-1.65 5.8 0l-7.8 4.7 2.35.1m.3.05l2.15 1.15m.15 2.25q4.4-1.85 6.8 1.35h-4.2q.4 2.55 0 4.75l2.15 1.65-3 .8q-.4.8-1.15 1.45l-2.15-1.3q-2.75-1.4-3.7-1.4l.2.3q.75.45 1.85 2.55-.7 1.3-4-2.15l2.7 3.4q2 2.9 1.55 4l-.45-.25-1.5-.7-3.6-.2.35.5 1.4 1.75q.85.9 1.75 1.45l.1.05.25.15v.05Q20.9-1.05 16-3.65l1.75 3.1Q15.3 0 13.4-.95q-1.95-.95-2.15-1.3-3.4-1.6-3.85 1.2Q10.7.85 9.75 1.5q-4.3 3.1-14.7 4.65 3.7-3.55 1.55-3.2L-9.65 4.1q-4.1.8-2.8-.4 1.35-1.2 2.25-2.5l.95-1.35-.75.3-3.75 1.2q-2.6.5-3.45-1l-.55-.65-2.65-.1-.55.15-.7.2-2.45.3m-.1 0l.2-.3 1.2-1.45 3-2.7q-5.95.5-6.35 2.15-.4 1.65-.8 1.85-.75-.2-1.45-.55h-4l2.45-.9-1.2-.95-.65-.6-3.9-1.1 3.8-3-.75-.85M2.3-42.75q-1.25.55-3.05 2.45" fill="none" stroke="#37522e" stroke-linecap="round" stroke-linejoin="round" stroke-width="1" id="path50"/><path d="M1.5-37.95q-.8.6-1.25 1.65l-.55 1.95m8.55-8.1q0-1.2 1.5-1.2l1.45.2.5.25m-32.35-.8l1.5-.15 1.75.05q.75.15 1.45.85m7.45 15.5l1.8-.75 2.2-.25m-7.5-19.5l1.75.7q1.45.85 2.55 2.7m-17.5 6.6q.95-.95 1.85-1.25.9-.3 2.55 0 1.6.25 1.5 1m-3.95 14.1l.7-2.1.55-1.4m-10.25-4.05l1.65-.45m8.85-1.4l.75-.1 2.2.45M-29.55-21.8l1.5 1.1M-31.1-9.8l.95-.8.9-.5m-4.05-10.5q.7-.5 1.8-.65l1.95-.1m-8.9 9.15l1.35-2.2 1.8-1.15m16.55 5.9q-.5.5-.5 1.35l.5 1.15" fill="none" stroke="#719768" stroke-linecap="round" stroke-linejoin="round" stroke-width="1" id="path52"/></g></defs></svg>