<svg xmlns="http://www.w3.org/2000/svg" height="182" width="160" xml:space="preserve" style="fill-rule:evenodd;clip-rule:evenodd;stroke-linejoin:round;stroke-miterlimit:1.5">
    <g transform="matrix(0.944735,-0.25395,0.260657,0.969711,-30.9343,12.6788)">
        <path d="M100.695,128.644C106.305,128.775 107.474,131.089 104.052,135.397C100.708,139.607 84.113,136.041 84.113,136.041C84.113,136.041 65.067,131.872 59.047,117.683C55.381,109.042 62.112,91.642 62.112,91.642C62.112,91.642 71.078,75.935 74.058,73.694C103.2,45.825 129.939,77.568 122.699,94.084C120.923,100.284 111.928,104.766 105.536,109.971C100.262,114.265 96.706,123.247 96.706,123.247C96.706,123.247 94.206,128.493 100.695,128.644Z" style="fill:white;"/>
    </g>
    <g transform="matrix(0.971568,-0.23676,0.23676,0.971568,-31.671,13.1751)">
        <path d="M68.898,80.955C69.608,79.788 74.826,71.668 75.784,70.746C105.547,42.114 134.665,79.974 120.43,96.448C120.099,96.831 113.895,102.345 110.542,104.624C103.828,109.188 99.103,116.503 97.92,122.046C97.267,125.101 97.155,126.224 97.462,126.875" style="fill:none;stroke:black;stroke-width:2.5px;"/>
    </g>
    <g transform="matrix(0.998994,0.0448332,-0.0448332,0.998994,5.37422,-1.17234)">
        <path d="M99.235,117.152C107.946,111.708 100.932,104.756 95.272,109.013" style="fill:none;stroke:black;stroke-width:2.5px;"/>
    </g>
    <g transform="matrix(1.10807,-0.234417,0.211743,1.00083,-33.0519,12.5787)">
        <path d="M58.072,97.112C51.098,123.474 81.802,132.817 93.284,129.552" style="fill:none;stroke:black;stroke-width:2.32px;"/>
    </g>
    <g transform="matrix(0.998994,0.0448332,-0.0448332,0.998994,3.94496,-3.47373)">
        <path d="M51.466,95.743C51.973,87.285 52.747,81.938 54.092,78.5" style="fill:none;stroke:black;stroke-width:2.5px;"/>
    </g>
    <g transform="matrix(0.99534,0.00760198,-0.0964228,1.00922,6.84055,-11.2468)">
        <path d="M100.003,109.215C93.184,113.824 89.04,108.205 92.407,102.673C97.15,88.938 103.51,83.947 81.557,64.844C74.865,61.217 65.685,58.158 58.714,61.503C54.427,62.97 50.624,65.197 46.895,67.779C38.864,74.053 36.605,80.688 37.221,90.587C41.635,101.241 45.46,102.336 51.827,110.201C52.445,110.761 53.497,112.044 55.209,112.047C60.263,112.054 74.651,114.224 86.128,118.402C88.62,119.31 90.758,118.002 91.601,117.152C91.601,117.152 96.804,116.23 99.218,113.963C99.683,113.674 100.007,113.265 100.225,112.775C101.023,110.978 100.27,111.147 100.003,109.215Z" style="fill:rgb(18,160,1);stroke:rgb(22,120,1);stroke-width:2.61px;stroke-linecap:round;"/>
    </g>
    <g transform="matrix(1.71327,-0.84561,0.745517,1.7987,95.2481,62.5295)">
        <path d="M-5.1,-3.25L-6.85,-3.3C-7.783,-2.9 -8.5,-2.233 -9,-1.3C-9.467,-0.433 -9.333,0.317 -8.6,0.95C-8.067,1.417 -7.45,1.783 -6.75,2.05L-5.8,2.15C-5.367,1.45 -5.117,0.767 -5.05,0.1L-5.95,-1.15L-6.6,-0.95L-6.7,-0.25L-7.4,-0.35L-7.4,-1.7L-5.7,-2.15L-4.75,-1.3L-4.05,0.15C-4.117,1.05 -4.483,1.983 -5.15,2.95L-5.55,3.15L-7.15,2.95L-7.1,3L-9.25,1.7C-10.35,0.7 -10.567,-0.45 -9.9,-1.75L-9.9,-1.8C-9.267,-2.933 -8.383,-3.733 -7.25,-4.2L-4.6,-4.1L-5.1,-3.25ZM-7.7,5.45L-7.65,5.5C-7.417,5.6 -7.167,5.733 -6.9,5.9L-5.85,7.05C-5.983,8.217 -6.383,9.2 -7.05,10L-9.4,11.1C-10.933,10.867 -11.967,10.05 -12.5,8.65L-13.4,5.35L-13,4.75L-12.4,5.15L-11.55,8.3C-11.183,9.3 -10.467,9.9 -9.4,10.1L-7.75,9.25C-7.317,8.683 -7.017,8 -6.85,7.2L-8.1,6.35L-8.15,6.35L-9.85,6.45L-9.8,7.4L-10.8,7.4L-10.7,5.9C-9.767,5 -8.767,4.85 -7.7,5.45ZM-20.706,-10.641L-22.039,-11.368C-22.971,-11.384 -23.872,-11.083 -24.743,-10.466C-25.553,-9.894 -25.837,-9.189 -25.594,-8.351C-25.421,-7.737 -25.131,-7.177 -24.725,-6.671L-24.039,-6.213C-23.341,-6.653 -22.794,-7.15 -22.397,-7.705L-22.451,-9.144L-23.059,-9.224L-23.498,-8.654L-23.99,-9.014L-23.293,-10.19L-21.74,-9.917L-21.441,-8.806L-21.646,-7.271C-22.163,-6.513 -22.93,-5.844 -23.947,-5.263L-24.361,-5.245L-25.501,-6.044L-25.488,-5.981L-26.487,-7.952C-26.824,-9.252 -26.399,-10.338 -25.209,-11.209L-25.183,-11.253C-24.106,-11.992 -23.006,-12.344 -21.885,-12.307L-19.878,-11.185L-20.706,-10.641ZM-27.22,-4.082L-27.207,-4.019C-27.077,-3.841 -26.952,-3.627 -26.831,-3.378L-26.609,-1.967C-27.315,-1.003 -28.134,-0.304 -29.065,0.132L-31.459,0.172C-32.53,-0.63 -32.91,-1.744 -32.601,-3.171L-31.596,-6.396L-30.975,-6.762L-30.716,-6.179L-31.683,-3.105C-31.914,-2.091 -31.668,-1.289 -30.942,-0.698L-29.222,-0.794C-28.592,-1.118 -28.006,-1.596 -27.463,-2.227L-27.995,-3.455L-28.034,-3.475L-29.406,-4.052L-29.858,-3.205L-30.635,-3.596L-29.783,-4.862C-28.593,-5.281 -27.738,-5.021 -27.22,-4.082ZM-20.545,2.216L-20.609,2.158C-20.893,2.05 -21.201,1.903 -21.532,1.717L-22.896,0.393C-22.883,-1.013 -22.536,-2.212 -21.855,-3.206L-19.249,-4.645C-17.433,-4.444 -16.129,-3.518 -15.337,-1.867L-13.886,2.043L-14.28,2.783L-15.028,2.334L-16.402,-1.399C-16.951,-2.579 -17.86,-3.261 -19.128,-3.446L-20.948,-2.343C-21.385,-1.641 -21.651,-0.806 -21.748,0.161L-20.188,1.116L-20.129,1.114L-18.159,0.906L-18.333,-0.23L-17.167,-0.281L-17.101,1.522C-18.08,2.649 -19.228,2.88 -20.545,2.216ZM-14.271,17.232L-13.369,15.793C-13.367,14.963 -13.682,14.159 -14.314,13.381C-14.9,12.657 -15.61,12.401 -16.444,12.614C-17.057,12.766 -17.613,13.022 -18.112,13.382L-18.56,13.992C-18.108,14.616 -17.602,15.105 -17.041,15.46L-15.601,15.418L-15.531,14.877L-16.108,14.483L-15.755,14.046L-14.568,14.672L-14.381,15.26L-14.816,16.054L-15.923,16.317L-17.464,16.128C-18.23,15.665 -18.912,14.979 -19.51,14.07L-18.753,12.689L-18.815,12.7L-16.858,11.818C-15.562,11.521 -14.468,11.905 -13.578,12.968L-13.534,12.991C-12.777,13.954 -12.407,14.935 -12.426,15.934L-13.517,17.718L-14.271,17.232ZM-14.277,-12.251L-15.048,-10.949C-14.947,-10.198 -14.516,-9.47 -13.755,-8.766C-13.049,-8.11 -12.269,-7.879 -11.417,-8.072C-10.791,-8.21 -10.238,-8.441 -9.756,-8.767L-9.361,-9.319C-9.913,-9.884 -10.507,-10.327 -11.142,-10.648L-12.652,-10.61L-12.659,-10.119L-12.002,-9.763L-12.32,-9.368L-13.647,-9.934L-13.917,-10.467L-13.557,-11.186L-12.424,-11.423L-10.779,-11.252C-9.915,-10.833 -9.112,-10.212 -8.37,-9.39L-8.997,-8.139L-8.932,-8.15L-10.883,-7.351C-12.211,-7.082 -13.409,-7.429 -14.479,-8.392L-14.528,-8.413C-15.444,-9.284 -15.954,-10.172 -16.058,-11.076L-15.131,-12.692L-14.277,-12.251ZM-23.712,9.331L-23.793,7.349C-24.284,6.354 -25.031,5.48 -26.034,4.728C-26.965,4.028 -27.725,3.925 -28.314,4.419C-28.748,4.776 -29.309,6.675 -29.309,6.675C-28.552,7.294 -27.828,7.736 -27.136,8.001L-25.927,7.538L-26.189,6.869L-26.917,6.562L-26.874,5.937L-25.486,6.348L-24.878,8.076L-25.671,8.707L-27.102,8.922C-28.034,8.586 -29.025,7.959 -30.076,7.041L-30.247,5.168L-30.294,5.2L-29.14,3.582C-28.206,2.857 -27.042,3.003 -25.648,4.023L-25.596,4.038C-24.376,4.975 -23.478,6.045 -22.901,7.248L-22.778,9.699L-23.712,9.331Z" style="fill:rgb(191,211,184);"/>
    </g>
</svg>
