<svg xmlns="http://www.w3.org/2000/svg" height="182" width="160" xml:space="preserve" style="fill-rule:evenodd;clip-rule:evenodd;stroke-linejoin:round;stroke-miterlimit:1.5">
    <path d="M54.321,139.135C52.917,137.015 53.395,117.43 56.56,111.903C59.014,99.32 70.189,69.742 71.143,67.957C78.566,54.064 93.886,55.792 102.889,60.624C105.801,62.187 120.564,74.848 119.637,84.831C118.761,94.254 107.83,112.871 106.934,112.944C105.518,113.058 107.241,118.319 110.53,115.707C113.375,113.449 119.449,114.468 119.334,119.498C119.233,123.953 107.678,125.914 107.678,125.914C107.678,125.914 65.707,134.326 64.797,133.805C62.528,132.504 61.978,136.572 62.096,137.331C62.707,141.275 56.17,141.925 54.321,139.135Z" style="fill:white;"/>
    <g transform="matrix(0.94397,-0.09033,0.0389,0.99924,0.586,5.663)">
        <path d="M66.35,79.808C67.06,78.641 69.753,72.065 70.418,71C89.178,40.95 127.333,76.555 121.701,93.727C121.439,94.525 114.783,109.851 109.204,115.126C108.691,115.601 108.246,116.143 107.88,116.738C106.942,118.309 107.008,119.91 108.973,120.722" style="fill:none;stroke:black;stroke-width:2.64px;"/>
    </g>
    <g transform="matrix(-0.256,-0.90572,0.90918,-0.25698,4.925,208.05)">
        <path d="M54.103,130.916C54.239,135.485 54.178,137.004 55.397,138.826M55.397,138.826C58.311,143.181 63.595,140.69 63.63,137.128" style="fill:none;stroke:black;stroke-width:2.65px;"/>
    </g>
    <g transform="matrix(-1.21905,0.2177,0.17852,0.98395,160.572,-21.42)">
        <path d="M63.896,135.785L98.984,135.663" style="fill:none;stroke:black;stroke-width:2.22px;"/>
    </g>
    <g transform="matrix(-1.09441,-0.05309,-0.04958,1.0221,178.706,2.372)">
        <path d="M108.398,124.89C108.441,129.165 108.688,135.087 108.398,137.128C107.616,142.637 100.765,141.894 100.763,135.872" style="fill:none;stroke:black;stroke-width:2.36px;"/>
    </g>
    <path d="M57.906,102.425L53.243,119.075L55.835,119.075L60.497,102.399L57.906,102.425ZM59.108,98.26L64.391,81.61L66.981,81.584L61.699,98.234L59.108,98.26Z"/>
    <path d="M109.026,112.966C101.119,115.393 97.52,98.845 97.52,98.845C97.52,98.845 112.008,72.474 90.721,55.018C84.03,51.391 75.412,45.397 68.442,48.743C64.155,50.209 60.352,52.436 56.622,55.018C48.592,61.292 39.898,70.013 40.514,79.913C44.928,90.567 50.415,102.166 56.781,110.03L57.699,106.855C50.144,71.561 71.947,90.029 91.067,107.918C91.847,108.647 102.347,117.078 105.888,116.103C108.059,114.759 109.365,115.425 109.026,112.966Z" style="fill:rgb(18,160,1);stroke:rgb(22,120,1);stroke-width:2.5px;stroke-linecap:round;"/>
    <g transform="matrix(2.15134,-0.736898,1.14086,1.64269,104.363,61.3541)">
        <path d="M-5.1,-3.25L-6.85,-3.3C-7.783,-2.9 -8.5,-2.233 -9,-1.3C-9.467,-0.433 -9.333,0.317 -8.6,0.95C-8.067,1.417 -7.45,1.783 -6.75,2.05L-5.8,2.15C-5.367,1.45 -5.117,0.767 -5.05,0.1L-5.95,-1.15L-6.6,-0.95L-6.7,-0.25L-7.4,-0.35L-7.4,-1.7L-5.7,-2.15L-4.75,-1.3L-4.05,0.15C-4.117,1.05 -4.483,1.983 -5.15,2.95L-5.55,3.15L-7.15,2.95L-7.1,3L-9.25,1.7C-10.35,0.7 -10.567,-0.45 -9.9,-1.75L-9.9,-1.8C-9.267,-2.933 -8.383,-3.733 -7.25,-4.2L-4.6,-4.1L-5.1,-3.25ZM-7.7,5.45L-7.65,5.5C-7.417,5.6 -7.167,5.733 -6.9,5.9L-5.85,7.05C-5.983,8.217 -6.383,9.2 -7.05,10L-9.4,11.1C-10.933,10.867 -11.967,10.05 -12.5,8.65L-13.4,5.35L-13,4.75L-12.4,5.15L-11.55,8.3C-11.183,9.3 -10.467,9.9 -9.4,10.1L-7.75,9.25C-7.317,8.683 -7.017,8 -6.85,7.2L-8.1,6.35L-8.15,6.35L-9.85,6.45L-9.8,7.4L-10.8,7.4L-10.7,5.9C-9.767,5 -8.767,4.85 -7.7,5.45Z" style="fill:rgb(191,211,184);"/>
    </g>
    <g transform="matrix(-1.1003,1.20204,-2.14956,-1.13171,72.0242,88.6361)">
        <path d="M-7.7,5.45L-7.65,5.5C-7.417,5.6 -7.167,5.733 -6.9,5.9L-5.85,7.05C-5.983,8.217 -6.383,9.2 -7.05,10L-9.4,11.1C-10.933,10.867 -11.967,10.05 -12.5,8.65L-13.4,5.35L-13,4.75L-12.4,5.15L-11.55,8.3C-11.183,9.3 -10.467,9.9 -9.4,10.1L-7.75,9.25C-7.317,8.683 -7.017,8 -6.85,7.2L-8.1,6.35L-8.15,6.35L-9.85,6.45L-9.8,7.4L-10.8,7.4L-10.7,5.9C-9.767,5 -8.767,4.85 -7.7,5.45Z" style="fill:rgb(191,211,184);"/>
    </g>
    <g transform="matrix(0.838631,-0.16314,0.330431,1.97251,54.0525,72.0195)">
        <path d="M-5.1,-3.25L-6.85,-3.3C-7.783,-2.9 -8.5,-2.233 -9,-1.3C-9.467,-0.433 -9.333,0.317 -8.6,0.95C-8.067,1.417 -7.45,1.783 -6.75,2.05L-5.8,2.15C-5.367,1.45 -5.117,0.767 -5.05,0.1L-5.95,-1.15L-6.6,-0.95L-6.7,-0.25L-7.4,-0.35L-7.4,-1.7L-5.7,-2.15L-4.75,-1.3L-4.05,0.15C-4.117,1.05 -4.483,1.983 -5.15,2.95L-5.55,3.15L-7.15,2.95L-7.1,3L-9.25,1.7C-10.35,0.7 -10.567,-0.45 -9.9,-1.75L-9.9,-1.8C-9.267,-2.933 -8.383,-3.733 -7.25,-4.2L-4.6,-4.1L-5.1,-3.25ZM-7.7,5.45L-7.65,5.5C-7.417,5.6 -7.167,5.733 -6.9,5.9L-5.85,7.05C-5.983,8.217 -6.383,9.2 -7.05,10L-9.4,11.1C-10.933,10.867 -11.967,10.05 -12.5,8.65L-13.4,5.35L-13,4.75L-12.4,5.15L-11.55,8.3C-11.183,9.3 -10.467,9.9 -9.4,10.1L-7.75,9.25C-7.317,8.683 -7.017,8 -6.85,7.2L-8.1,6.35L-8.15,6.35L-9.85,6.45L-9.8,7.4L-10.8,7.4L-10.7,5.9C-9.767,5 -8.767,4.85 -7.7,5.45Z" style="fill:rgb(191,211,184);"/>
    </g>
    <g transform="matrix(-0.874264,1.14656,-1.89966,-1.44851,81.3995,104.308)">
        <path d="M-4.7,-3.2L-6.85,-3.3C-7.783,-2.9 -8.5,-2.233 -9,-1.3C-9.467,-0.433 -9.333,0.317 -8.6,0.95C-8.067,1.417 -7.45,1.783 -6.75,2.05L-5.8,2.15C-5.367,1.45 -5.117,0.767 -5.05,0.1L-5.95,-1.15L-6.6,-0.95L-6.7,-0.25L-7.4,-0.35L-7.4,-1.7L-6.85,-2.15L-5.7,-2.15L-4.75,-1.3L-4.05,0.15C-4.117,1.05 -4.483,1.983 -5.15,2.95L-7.15,2.95L-7.1,3L-9.25,1.7C-10.35,0.7 -10.567,-0.45 -9.9,-1.75L-9.9,-1.8C-9.267,-2.933 -8.383,-3.733 -7.25,-4.2L-4.6,-4.1L-4.7,-3.2Z" style="fill:rgb(191,211,184);"/>
    </g>
    <g transform="matrix(-0.470524,-0.828829,1.73928,-0.987381,61.754,47.9247)">
        <path d="M-4.7,-3.2L-6.85,-3.3C-7.783,-2.9 -8.5,-2.233 -9,-1.3C-9.467,-0.433 -9.333,0.317 -8.6,0.95C-8.067,1.417 -7.45,1.783 -6.75,2.05L-5.8,2.15C-5.367,1.45 -5.117,0.767 -5.05,0.1L-5.95,-1.15L-6.6,-0.95L-6.7,-0.25L-7.4,-0.35L-7.4,-1.7L-6.85,-2.15L-5.7,-2.15L-4.75,-1.3L-4.05,0.15C-4.117,1.05 -4.483,1.983 -5.15,2.95L-7.15,2.95L-7.1,3L-9.25,1.7C-10.35,0.7 -10.567,-0.45 -9.9,-1.75L-9.9,-1.8C-9.267,-2.933 -8.383,-3.733 -7.25,-4.2L-4.6,-4.1L-4.7,-3.2Z" style="fill:rgb(191,211,184);"/>
    </g>
    <g transform="matrix(1.60166,0.593243,-1.47022,1.03187,70.9932,86.1639)">
        <path d="M-4.7,-3.2L-6.85,-3.3C-7.783,-2.9 -8.5,-2.233 -9,-1.3C-9.467,-0.433 -9.333,0.317 -8.6,0.95C-8.067,1.417 -5.8,2.15 -5.8,2.15C-5.367,1.45 -5.117,0.767 -5.05,0.1L-5.95,-1.15L-6.6,-0.95L-6.7,-0.25L-7.4,-0.35L-7.4,-1.7L-5.7,-2.15L-4.75,-1.3L-4.05,0.15C-4.117,1.05 -4.483,1.983 -5.15,2.95L-7.15,2.95L-7.1,3L-9.25,1.7C-10.35,0.7 -10.567,-0.45 -9.9,-1.75L-9.9,-1.8C-9.267,-2.933 -8.383,-3.733 -7.25,-4.2L-4.6,-4.1L-4.7,-3.2Z" style="fill:rgb(191,211,184);"/>
    </g>
</svg>
