<svg xmlns="http://www.w3.org/2000/svg" height="182" width="160" xml:space="preserve" style="fill-rule:evenodd;clip-rule:evenodd;stroke-linejoin:round;stroke-miterlimit:1.5">
    <path d="M97.849,135.338L79.972,135.338C81.352,138.559 75.944,144.49 73.12,138.943C71.709,136.17 71.831,132.332 72.19,127.921C72.414,125.164 69.71,121.72 65.976,118.725C63.391,116.652 62.035,113.729 61.424,112.211C60.108,108.938 59.216,103.714 60.093,99.588C62.101,90.133 65.321,79.825 70.47,70.929C83.985,52.605 98.541,58.212 109.565,69.285C112.558,72.291 114.338,76.229 116.912,79.564C119.69,83.164 117.954,96.866 114.677,100.741C110.892,105.218 105.617,111.66 106.648,117.265C107.012,119.249 108.217,121.31 108.537,123.256C109.461,128.88 108.806,133.92 108.537,135.338C107.807,143.733 98.396,142.476 97.849,135.338Z" style="fill:white;"/>
    <g transform="matrix(0.93378,-0.01752,0,1,4.394,1.162)">
        <path d="M66.35,79.808C67.06,78.641 69.672,72.01 70.418,71C92.077,41.664 127.884,76.935 121.701,93.727C121.523,94.21 119.837,100.856 115.02,105.332C108.699,111.205 108.757,119.907 110.484,120.618" style="fill:none;stroke:black;stroke-width:2.61px;"/>
    </g>
    <g transform="matrix(-1.06826,0,0,1,166.566,-0.192)">
        <path d="M54.321,126.668C54.683,132.084 54.009,136.75 55.397,138.826M55.397,138.826C58.311,143.181 63.595,140.69 63.63,137.128" style="fill:none;stroke:black;stroke-width:2.42px;"/>
    </g>
    <g transform="matrix(-0.58175,0.00268,-0.00268,0.99998,139.618,-0.263)">
        <path d="M72.841,135.733L98.984,135.663" style="fill:none;stroke:black;stroke-width:3.05px;"/>
    </g>
    <g transform="matrix(-1,0,0,1,180.655,0)">
        <path d="M108.398,124.89C108.441,129.165 108.688,135.087 108.398,137.128C107.616,142.637 100.765,141.894 100.763,135.872" style="fill:none;stroke:black;stroke-width:2.5px;"/>
    </g>
    <path d="M58.401,101.558C56.471,106.437 58.845,113.963 65.055,118.951L67.774,118.285C62.528,113.756 59.939,108.976 60.497,102.399L58.401,101.558ZM64.825,80.556L58.984,98.136L61.266,99.35L66.982,81.584L64.825,80.556Z"/>
    <g transform="matrix(0.999637,-0.127716,-0.0269538,1.00381,4.09778,20.316)">
        <path d="M106.709,110.248C98.803,112.676 93.553,108.249 96.265,103.343C100.342,87.296 100.712,79.377 79.425,61.922C72.733,58.295 65.685,58.158 58.714,61.503C54.427,62.97 50.624,65.197 46.895,67.779C38.864,74.053 35.923,82.46 36.54,92.36C41.397,106.677 65.965,113.283 71.629,115.343C67.042,112.653 64.696,111.262 65.879,107.978C78.477,100.766 80.681,115.987 92.081,118.195C98.969,119.452 102.711,116.011 106.252,115.036C108.486,113.834 108.11,112.813 106.709,110.248Z" style="fill:rgb(18,160,1);stroke:rgb(22,120,1);stroke-width:2.7px;stroke-linecap:round;"/>
    </g>
    <g transform="matrix(1.67285,-1.355,1.09617,1.50324,98.2542,76.4229)">
        <path d="M-5.1,-3.25L-6.85,-3.3C-7.783,-2.9 -8.5,-2.233 -9,-1.3C-9.467,-0.433 -9.333,0.317 -8.6,0.95C-8.067,1.417 -7.45,1.783 -6.75,2.05L-5.8,2.15C-5.367,1.45 -5.117,0.767 -5.05,0.1L-5.95,-1.15L-6.6,-0.95L-6.7,-0.25L-7.4,-0.35L-7.4,-1.7L-5.7,-2.15L-4.75,-1.3L-4.05,0.15C-4.117,1.05 -4.483,1.983 -5.15,2.95L-5.55,3.15L-7.15,2.95L-7.1,3L-9.25,1.7C-10.35,0.7 -10.567,-0.45 -9.9,-1.75L-9.9,-1.8C-9.267,-2.933 -8.383,-3.733 -7.25,-4.2L-4.6,-4.1L-5.1,-3.25ZM-7.7,5.45L-7.65,5.5C-7.417,5.6 -7.167,5.733 -6.9,5.9L-5.85,7.05C-5.983,8.217 -6.383,9.2 -7.05,10L-9.4,11.1C-10.933,10.867 -11.967,10.05 -12.5,8.65L-13.4,5.35L-13,4.75L-12.4,5.15L-11.55,8.3C-11.183,9.3 -10.467,9.9 -9.4,10.1L-7.75,9.25C-7.317,8.683 -7.017,8 -6.85,7.2L-8.1,6.35L-8.15,6.35L-9.85,6.45L-9.8,7.4L-10.8,7.4L-10.7,5.9C-9.767,5 -8.767,4.85 -7.7,5.45ZM-18.981,2.888L-19.038,2.85C-19.272,2.8 -19.529,2.722 -19.809,2.614L-21.018,1.709C-21.154,0.543 -21.007,-0.498 -20.577,-1.416L-18.681,-2.973C-17.233,-3.061 -16.113,-2.477 -15.318,-1.222L-13.771,1.812L-14.002,2.479L-14.637,2.213L-16.106,-0.685C-16.66,-1.584 -17.445,-2.022 -18.46,-1.997L-19.774,-0.829C-20.044,-0.187 -20.166,0.542 -20.141,1.356L-18.816,1.928L-18.77,1.918L-17.245,1.47L-17.5,0.554L-16.59,0.348L-16.35,1.831C-17.001,2.901 -17.878,3.254 -18.981,2.888ZM-22.625,-9.259L-23.948,-9.72C-24.736,-9.61 -25.411,-9.227 -25.973,-8.568C-26.496,-7.958 -26.541,-7.301 -26.106,-6.597C-25.79,-6.08 -25.392,-5.627 -24.912,-5.237L-24.208,-4.925C-23.742,-5.405 -23.419,-5.915 -23.239,-6.454L-23.681,-7.712L-24.214,-7.701L-24.426,-7.142L-24.94,-7.393L-24.677,-8.518L-23.296,-8.486L-22.738,-7.55L-22.487,-6.173C-22.713,-5.439 -23.174,-4.749 -23.869,-4.103L-24.212,-4.032L-25.391,-4.582L-25.363,-4.529L-26.746,-6.128C-27.389,-7.225 -27.33,-8.235 -26.57,-9.159L-26.56,-9.201C-25.858,-9.994 -25.03,-10.449 -24.077,-10.566L-22.08,-9.848L-22.625,-9.259ZM-26.296,-2.63L-26.267,-2.577C-26.109,-2.437 -25.945,-2.266 -25.774,-2.063L-25.199,-0.853C-25.527,0.088 -26.022,0.811 -26.685,1.318L-28.688,1.672C-29.809,1.11 -30.437,0.181 -30.571,-1.114L-30.614,-4.08L-30.193,-4.484L-29.814,-4.007L-29.78,-1.178C-29.695,-0.256 -29.266,0.416 -28.493,0.838L-27.072,0.525C-26.632,0.157 -26.271,-0.341 -25.989,-0.968L-26.775,-1.976L-26.813,-1.988L-28.126,-2.312L-28.273,-1.508L-29.034,-1.748L-28.666,-2.974C-27.781,-3.501 -26.991,-3.386 -26.296,-2.63ZM-15.151,17.129L-13.45,16.295C-12.86,15.658 -12.527,14.945 -12.451,14.156C-12.378,13.423 -12.732,13.013 -13.512,12.924C-14.082,12.857 -14.682,12.886 -15.314,13.012L-16.085,13.345C-16.187,13.961 -16.153,14.49 -15.982,14.932L-14.866,15.334L-14.429,14.939L-14.585,14.462L-14.009,14.232L-13.558,15.072L-13.834,15.58L-14.726,16.06L-15.747,15.927L-16.774,15.318C-17.023,14.73 -17.05,13.997 -16.856,13.119L-15.305,12.285L-15.36,12.275L-13.259,12.187C-12.071,12.351 -11.519,12.975 -11.602,14.061L-11.586,14.092C-11.698,15.06 -12.116,15.926 -12.84,16.688L-14.928,17.73L-15.151,17.129ZM-16.996,-11.138L-17.709,-9.07C-17.598,-8.056 -17.171,-7.185 -16.428,-6.455C-15.739,-5.775 -14.989,-5.71 -14.176,-6.259C-13.58,-6.657 -13.054,-7.163 -12.6,-7.775L-12.232,-8.675C-12.772,-9.279 -13.349,-9.7 -13.963,-9.939L-15.409,-9.387L-15.406,-8.702L-14.77,-8.422L-15.066,-7.766L-16.348,-8.118L-16.617,-8.771L-16.286,-9.891L-15.206,-10.595L-13.628,-10.9C-12.792,-10.601 -12.011,-10.001 -11.285,-9.1L-11.86,-7.152L-11.798,-7.187L-13.651,-5.431C-14.917,-4.619 -16.071,-4.707 -17.114,-5.695L-17.162,-5.708C-18.056,-6.62 -18.562,-7.689 -18.679,-8.914L-17.822,-11.47L-16.996,-11.138ZM-21.815,6.545L-22.01,5.15C-22.42,4.625 -22.998,4.287 -23.746,4.136C-24.44,3.994 -24.974,4.216 -25.347,4.8C-25.623,5.226 -25.879,6.81 -25.879,6.81C-25.311,6.961 -24.778,6.997 -24.281,6.919L-23.475,6.116L-23.703,5.736L-24.23,5.799L-24.244,5.333L-23.253,5.088L-22.71,6.095L-23.216,6.858L-24.193,7.569C-24.862,7.689 -25.593,7.623 -26.385,7.372L-26.635,6.091L-26.665,6.132L-25.979,4.52C-25.382,3.634 -24.565,3.287 -23.528,3.478L-23.491,3.469C-22.58,3.669 -21.883,4.09 -21.399,4.731L-21.142,6.446L-21.815,6.545Z" style="fill:rgb(191,211,184);"/>
    </g>
</svg>
