<svg xmlns="http://www.w3.org/2000/svg" height="182" width="160" xml:space="preserve" style="fill-rule:evenodd;clip-rule:evenodd;stroke-linejoin:round;stroke-miterlimit:1.5">
    <g transform="matrix(1,0,0,1,0.836701,0.309162)">
        <g transform="matrix(0.977473,-0.0395159,0.0405541,1.00331,-8.85575,-9.3713)">
            <path d="M94.489,126.863L81.27,132.481C81.27,132.481 82.107,135.346 82.015,135.502C77.313,143.443 65.717,141.752 59.24,131.631C54.08,123.569 53.894,108.667 62.474,92.419C65.872,85.984 67.877,77.118 71.651,71.169C93.117,44.554 123.493,72.135 122.408,91.883C120.45,99.942 95.836,119.883 99.007,120.471C115.691,123.569 107.494,133.74 94.489,126.863Z" style="fill:white;"/>
        </g>
        <g transform="matrix(0.999858,-0.0168354,0.0168354,0.999858,-8.13176,-10.9294)">
            <path d="M66.35,79.808C67.06,78.641 69.672,72.01 70.418,71C92.077,41.664 128.879,77.782 120.252,93.459C118.31,96.988 104.82,113.555 99.595,117.674C98.321,118.678 98.806,120.703 100.035,120.727C109.838,120.924 110.72,128.844 101.828,129.069" style="fill:none;stroke:black;stroke-width:2.5px;"/>
        </g>
        <g transform="matrix(-0.622841,0.782345,0.833668,0.280322,-6.72703,40.0346)">
            <path d="M54.073,133.994C51.639,137.762 54.106,140.996 57.329,142.293C59.451,143.146 62.213,141.24 63.63,137.128" style="fill:none;stroke:black;stroke-width:2.72px;"/>
        </g>
        <g transform="matrix(0.391615,-0.20621,0.476183,0.879322,-15.7507,15.139)">
            <path d="M66.35,135.872L103.527,136.281" style="fill:none;stroke:black;stroke-width:3.22px;"/>
        </g>
        <g transform="matrix(1.13249,0.0155314,-0.0140153,1.02289,-9.34717,-11.8156)">
            <path d="M56.615,97.653C49.756,114.22 56.039,133.184 67.118,135.927" style="fill:none;stroke:black;stroke-width:2.32px;"/>
        </g>
        <g transform="matrix(0.964556,0.263879,-0.263879,0.964556,30.5739,-15.2189)">
            <path d="M48.062,92.123L48.47,74.66L50.95,73.91L50.542,91.373L48.062,92.123ZM84.65,65.823C87.49,68.748 90.494,70.303 93.793,72.388L88.566,75.795L87.376,75.161L89.835,72.374C87.215,70.884 85.069,68.663 83.303,66.217L84.65,65.823ZM93.856,60.184L97.01,61.414L97.01,60.38L95.176,59.316L93.856,60.184ZM73.956,65.506L71.641,66.181L70.864,69.846L72.565,69.349L73.956,65.506ZM80.322,80.488L84.51,79.158L85.13,81.282L80.912,82.512L80.322,80.488Z"/>
        </g>
    </g>
    <g transform="matrix(1,0,0,1,-4.53991,-12.8875)">
        <path d="M89.648,112.792C89.648,112.792 93.511,115.284 90.472,115.96C85.164,117.139 74.762,119.781 55.52,118.683C49.97,116.877 42.579,111.718 36.533,92.686C36.601,78.08 46.987,66.225 68.042,59.076C73.179,59.473 76.776,60.78 79.245,62.777C75.796,65.054 72.725,68.37 70.343,71.18C64.67,84.29 61.111,94.581 58.639,103.689C59.819,111.138 73.804,112.414 89.648,112.792Z" style="fill:rgb(18,160,1);stroke:rgb(22,120,1);stroke-width:2.5px;stroke-linecap:round;"/>
    </g>
    <g transform="matrix(0.908564,-0.509425,0.513172,0.915245,-58.7964,45.2188)">
        <path d="M103.249,115.501L102.294,117.567L109.99,118.174C115.33,120.377 117.124,118.762 117.493,115.69C117.493,115.69 105.343,116.133 103.249,115.501Z" style="fill:rgb(18,160,1);stroke:rgb(22,120,1);stroke-width:2.39px;stroke-linecap:round;"/>
    </g>
    <g transform="matrix(0.548332,-0.442052,0.518628,0.539474,-22.2858,81.3338)">
        <path d="M95.219,108.991C98.683,108.991 103.701,112.503 103.701,115.505C103.701,118.507 98.397,121.661 95.315,120.91C92.003,120.103 89.356,117.297 89.356,114.295C89.356,111.293 91.755,108.991 95.219,108.991Z" style="fill:rgb(18,160,1);stroke:rgb(22,120,1);stroke-width:3.3px;stroke-linecap:round;"/>
    </g>
    <g transform="matrix(1.71726,-0.719975,0.671536,1.71347,62.0531,56.3802)">
        <path d="M-4.7,-3.2L-6.85,-3.3C-7.783,-2.9 -8.5,-2.233 -9,-1.3C-9.467,-0.433 -9.333,0.317 -8.6,0.95C-8.067,1.417 -7.45,1.783 -6.75,2.05L-5.8,2.15C-5.367,1.45 -5.117,0.767 -5.05,0.1L-5.95,-1.15L-6.45,-1.2L-6.7,-0.25L-7.4,-0.35L-7.4,-1.7L-6.85,-2.15L-5.7,-2.15L-4.75,-1.3L-4.05,-0.4L-4.05,0.15C-4.117,1.05 -4.483,1.983 -5.15,2.95L-7.15,2.95L-7.1,3L-9.25,1.7C-10.35,0.7 -10.567,-0.45 -9.9,-1.75L-9.9,-1.8C-9.267,-2.933 -8.383,-3.733 -7.25,-4.2L-4.6,-4.1L-4.35,-3.8C-4.317,-3.7 -4.7,-3.2 -4.7,-3.2ZM-11.696,5.175L-11.65,5.228C-11.424,5.345 -11.184,5.496 -10.929,5.682L-9.962,6.903C-10.179,8.055 -10.649,9.005 -11.372,9.753L-13.798,10.676C-15.313,10.332 -16.288,9.443 -16.72,8.01L-17.384,4.659L-16.941,4.091L-16.371,4.533L-15.746,7.731C-15.451,8.754 -14.778,9.404 -13.727,9.681L-12.018,8.955C-11.544,8.422 -11.196,7.764 -10.972,6.98L-12.16,6.042L-12.21,6.038L-13.916,6.014L-14.108,7.301L-14.808,7.249L-14.726,5.404C-13.729,4.576 -12.719,4.5 -11.696,5.175ZM2.123,-1.86L2.172,-1.821C2.385,-1.761 2.617,-1.673 2.867,-1.557L3.924,-0.647C3.976,0.44 3.067,0.382 3.095,-0.373L1.911,-0.981L1.868,-0.974L0.437,-0.651L0.537,0.553L-0.058,0.649L-0.364,-1.039C0.301,-1.99 1.13,-2.264 2.123,-1.86ZM-14.326,20.681L-12.928,19.626C-12.449,18.73 -12.306,17.762 -12.498,16.72C-12.675,15.752 -13.247,15.249 -14.215,15.213C-14.923,15.182 -15.633,15.281 -16.346,15.51L-17.15,16.026C-17.052,16.843 -16.82,17.533 -16.456,18.096L-14.973,18.509L-14.552,18.236L-14.918,17.697L-14.341,16.978L-13.545,17.494L-13.818,18.994L-14.544,19.447L-15.816,19.377L-17.237,18.721L-17.268,18.682C-17.778,17.937 -18.074,16.979 -18.157,15.807L-16.596,14.557L-16.666,14.549L-14.176,14.221C-12.693,14.314 -11.806,15.077 -11.515,16.509L-11.484,16.548C-11.271,17.829 -11.461,19.006 -12.054,20.079L-14.186,21.657L-14.669,20.892L-14.326,20.681Z" style="fill:rgb(191,211,184);"/>
    </g>
</svg>
