<svg xmlns="http://www.w3.org/2000/svg" height="182" width="160" xml:space="preserve" style="fill-rule:evenodd;clip-rule:evenodd;stroke-linejoin:round;stroke-miterlimit:1.5">
    <path d="M100.763,135.338L82.576,135.663C83.956,138.885 76.255,144.49 73.431,138.943C72.02,136.17 71.831,132.332 72.19,127.921C72.414,125.164 69.71,121.72 65.976,118.725C63.391,116.652 62.035,113.729 61.424,112.211C60.108,108.938 59.216,103.714 60.093,99.588C62.101,90.133 65.321,79.825 70.47,70.929C83.985,52.605 98.541,58.212 109.565,69.285C112.558,72.291 114.338,76.229 116.912,79.564C119.69,83.164 117.954,96.866 114.677,100.741C110.892,105.218 105.617,111.66 106.648,117.265C107.012,119.249 108.217,121.186 108.537,123.132C109.461,128.756 108.806,133.92 108.537,135.338C107.807,143.733 101.31,142.476 100.763,135.338Z" style="fill:white;"/>
    <g transform="matrix(0.93378,-0.01752,0,1,4.394,1.162)">
        <path d="M66.35,79.808C67.06,78.641 69.672,72.01 70.418,71C92.077,41.664 127.884,76.935 121.701,93.727C121.523,94.21 119.837,100.856 115.02,105.332C108.699,111.205 108.757,119.907 110.484,120.618" style="fill:none;stroke:black;stroke-width:2.61px;"/>
    </g>
    <g transform="matrix(1.06826,0,0,1,14.089,-0.192)">
        <path d="M54.321,126.668C54.683,132.084 54.009,136.75 55.397,138.826M55.397,138.826C58.311,143.181 63.595,140.69 63.63,137.128" style="fill:none;stroke:black;stroke-width:2.42px;"/>
    </g>
    <g transform="matrix(0.58175,0.00268,0.00268,0.99998,41.037,-0.263)">
        <path d="M72.841,135.733L98.984,135.663" style="fill:none;stroke:black;stroke-width:3.05px;"/>
    </g>
    <path d="M108.398,124.89C108.441,129.165 108.688,135.087 108.398,137.128C107.616,142.637 100.765,141.894 100.763,135.872" style="fill:none;stroke:black;stroke-width:2.5px;"/>
    <path d="M57.906,102.425C57.637,109.3 59.691,114.978 65.055,118.951L67.774,118.285C62.528,113.756 59.939,108.976 60.497,102.399L57.906,102.425ZM59.108,98.26L64.391,81.61L66.981,81.584L61.699,98.234L59.108,98.26ZM105.964,83.26C107.899,86.863 110.385,89.197 113.008,92.123L106.944,93.929L105.964,92.987L109.154,91C107.024,88.837 105.564,86.103 104.538,83.26L105.964,83.26ZM111.797,80.484L113.029,83.26L114.219,81.691L113.029,79.96L111.797,80.484ZM96.03,79.96L93.617,79.96L91.845,83.26L93.617,83.26L96.029,79.96L96.03,79.96ZM98.933,95.677L103.326,95.573L103.326,97.786L98.933,97.786L98.933,95.677Z"/>
    <path d="M95.333,117.507C75.522,116.015 67.858,123.45 62.197,127.892C53.002,135.106 41.864,132.506 33.29,115.802C23.541,105.181 26.009,87.721 51.515,72.779C56.652,73.176 69.317,76.28 66.935,79.091C60.046,104.969 51.537,118.44 77.537,109.62C83.072,107.742 87.589,108.275 95.604,113.412L95.333,117.507Z" style="fill:rgb(18,160,1);stroke:rgb(22,120,1);stroke-width:2.5px;stroke-linecap:round;"/>
    <g transform="matrix(0.991205,-0.132336,0.132336,0.991205,-14.2832,14.4394)">
        <path d="M100.972,113.698L100.867,118.614L108.669,122.491C112.749,120.056 113.707,119.063 110.534,113.838C109.473,114.277 108.457,114.521 107.471,114.622C105.184,114.859 103.066,114.33 100.972,113.698Z" style="fill:rgb(18,160,1);stroke:rgb(22,120,1);stroke-width:2.5px;stroke-linecap:round;"/>
    </g>
    <g transform="matrix(0.925,0,0,0.898846,12.9466,13.8717)">
        <path d="M93.523,108.782C96.987,108.782 101.495,111.428 101.495,114.43C101.495,117.432 97.665,119.555 94.201,119.555C90.738,119.555 88.943,117.432 88.943,114.43C88.943,111.428 90.059,108.782 93.523,108.782Z" style="fill:rgb(18,160,1);stroke:rgb(22,120,1);stroke-width:2.74px;stroke-linecap:round;"/>
    </g>
    <g transform="matrix(1.39412,-0.998817,0.725492,1.86378,53.2287,95.1766)">
        <path d="M-5.1,-3.25L-6.85,-3.3C-7.783,-2.9 -8.5,-2.233 -9,-1.3C-9.467,-0.433 -9.333,0.317 -8.6,0.95C-8.067,1.417 -7.45,1.783 -6.75,2.05L-5.8,2.15C-5.367,1.45 -5.117,0.767 -5.05,0.1L-5.5,-0.65L-5.95,-1.15L-6.6,-1.1L-6.5,-0.55L-7.05,-0.15L-7.4,-0.35L-7.75,-1L-7.4,-1.7L-6.55,-2.25L-5.4,-2L-4.75,-1.3L-4.05,-0.4L-4.05,0.15C-4.117,1.05 -4.483,1.983 -5.15,2.95L-5.55,3.15L-7.15,2.95L-9.25,1.7C-10.35,0.7 -10.567,-0.45 -9.9,-1.75L-9.9,-1.8C-9.267,-2.933 -8.383,-3.733 -7.25,-4.2L-4.6,-4.1C-4.6,-4.1 -4.333,-3.583 -4.4,-3.45L-4.7,-3.2L-5.1,-3.25ZM-7.7,5.45L-7.65,5.5C-7.417,5.6 -7.167,5.733 -6.9,5.9L-6,6.65L-5.85,7.05C-5.983,8.217 -6.383,9.2 -7.05,10L-7.2,10.1L-9.4,11.1C-10.933,10.867 -11.967,10.05 -12.5,8.65L-13.4,5.35L-13,4.75L-12.4,5.15L-11.55,8.3C-11.183,9.3 -10.467,9.9 -9.4,10.1L-7.75,9.25C-7.317,8.683 -7.017,8 -6.85,7.2L-8.1,6.35L-8.15,6.35L-9.85,6.45L-9.8,7.4L-10.3,7.9L-10.8,7.4L-10.8,6.05C-10.8,6.05 -8.767,4.85 -7.7,5.45ZM-12.496,-2.726L-12.772,-2.598C-13.37,-2.596 -13.71,-2.88 -13.792,-3.449L-13.897,-3.666C-13.897,-3.666 -14.469,-4.841 -14.419,-5.244L-14.21,-5.531L-13.905,-5.56L-13.55,-5.346L-13.471,-5.003L-13.381,-4.476L-12.886,-3.493L-12.569,-3.337L-12.496,-2.726ZM2.662,-8.603L1.259,-7.813C0.677,-7.115 0.371,-6.346 0.339,-5.507C0.308,-4.726 0.706,-4.303 1.532,-4.238C2.136,-4.187 2.766,-4.239 3.424,-4.396L4.213,-4.778C4.283,-5.435 4.214,-5.995 4.007,-6.458L3.949,-6.555L2.809,-6.844L2.394,-6.641L2.567,-5.909L1.974,-5.644L1.444,-5.9L1.707,-7.068L2.616,-7.609L3.699,-7.506L4.603,-7.252L4.817,-6.896C5.115,-6.282 5.189,-5.505 5.039,-4.566L4.801,-4.248L3.458,-3.625L3.517,-3.616L1.311,-3.447C0.052,-3.577 -0.568,-4.22 -0.548,-5.375L-0.567,-5.407C-0.508,-6.439 -0.122,-7.372 0.592,-8.207L2.726,-9.389L2.998,-8.759L2.662,-8.603ZM3.998,-1.748L4.057,-1.739C4.28,-1.784 4.53,-1.815 4.806,-1.833L6.084,-1.582C6.433,-0.764 6.5,0.061 6.285,0.892L4.856,2.709C3.553,3.28 2.418,3.237 1.451,2.581L-0.547,0.868L-0.604,0.594L-0.109,0.168L0.166,0.268L2.065,1.908C2.745,2.383 3.545,2.434 4.467,2.062L5.44,0.736C5.561,0.165 5.532,-0.418 5.352,-1.015C5.323,-1.198 3.029,-0.987 2.688,-0.089L3.098,0.502L2.898,1.061L2.307,0.972L1.802,-0.046C2.189,-1.067 2.921,-1.635 3.998,-1.748ZM0.643,14.624L2.584,14.307C3.285,13.874 3.54,13.321 3.351,12.647C3.178,12.02 2.445,11.585 1.151,11.341C0.205,11.16 -0.753,11.057 -1.722,11.032L-2.833,11.159C-2.755,11.677 -2.49,12.147 -2.04,12.571L-0.081,13.162L0.502,13.093L0.469,12.909L0.046,12.683L0.33,12.327L1.758,12.711L1.926,13.212L1.434,13.72L0.432,13.827L-0.012,13.795L-1.267,13.493L-2.734,13.078L-3.166,12.74C-3.799,12.172 -4.133,11.524 -4.167,10.796L-2.088,10.377L1.269,10.75C3.249,11.146 4.387,11.811 4.683,12.745L4.722,12.776C4.923,13.6 4.591,14.268 3.725,14.781L0.767,15.247L0.26,15.112C0.145,15.057 0.169,14.673 0.169,14.673L0.643,14.624Z" style="fill:rgb(191,211,184);"/>
    </g>
</svg>
