<svg xmlns="http://www.w3.org/2000/svg" height="182" width="160"><path d="m117.194 106.939 12.201 7.426c-1.294 3.966-1.07 3.35-5.38.97-5.612-3.092-10.358-6.58-10.358-6.58" style="clip-rule:evenodd;fill:#fff;fill-rule:evenodd;stroke:#000;stroke-width:.811998;stroke-linecap:round;stroke-linejoin:round;stroke-miterlimit:1.5;stroke-dasharray:none;stroke-opacity:1"/><path d="M114.846 109.45s-4.225-2.14-5.256-3.645c-.44-.641.253-1.895 1.476-2.307 0 0 .98.022 6.138 3.38z" style="clip-rule:evenodd;fill:#ffae00;fill-rule:evenodd;stroke:#000;stroke-width:.811998;stroke-linecap:round;stroke-linejoin:round;stroke-miterlimit:1.5;stroke-dasharray:none;stroke-opacity:1"/><g style="clip-rule:evenodd;fill-rule:evenodd;stroke-linecap:round;stroke-linejoin:round;stroke-miterlimit:1.5"><path d="m67.066 139.668 15.152-21.02 31.193 21.241" style="fill:none;stroke:#000;stroke-width:2px" transform="translate(9.643 .148)"/><path d="m84.833 138.215 10.265-19.163 29.668 20.149" style="fill:none;stroke:#000;stroke-width:2px" transform="translate(9.643 .148)"/><path d="M86.523 113.591s18.03-1.061 18.878-5.94" style="fill:none;stroke:#000;stroke-width:2px" transform="translate(9.28 .087)"/><path d="M57.045 94.382s-15.95-7.552-10.254-26.816c3.37-11.4 10.116-13.183 15.838-15.192 3.947-1.386 9.072-2.623 9.072-2.623s15.784-3.278 21.8-.27 8.152.933 17.048 10.661c8.896 9.728 3.008 7.168 7.232 12.096 0 0 3.2 14.144-2.88 18.688 0 0-8.192 13.376-30.912 12.032l.192 2.88s8.704 24.512 6.272 29.248c0 0-4.16 8.96-25.856 5.504 0 0-10.88-4.288-9.152-20.224l3.2-25.088z" style="fill:#fff;stroke:#fff;stroke-width:.21px;stroke-linecap:square" transform="translate(9.643 .148)"/><path d="M84.629 102.638s20.8 2.304 31.04-12.928" style="fill:none;stroke:#000;stroke-width:2.5px;stroke-linecap:square" transform="translate(9.643 .148)"/><path d="M46.178 74.886c-1.75-12.75 11.76-20.72 11.76-20.72s42.627-22.12 59.587 17.88" style="fill:none;stroke:#000;stroke-width:2.5px;stroke-linecap:square" transform="translate(9.28 .088)"/><path d="M37.901 51.799s.576.96 4.48 2.752c5.159 3.366-3.701-6.872-4.48-2.752z" style="fill:#00e9ff;stroke:#00e9ff;stroke-width:1px" transform="rotate(15.786 61.425 96.528)"/><path d="M37.901 51.799s.576.96 4.48 2.752c5.159 3.366-3.701-6.872-4.48-2.752z" style="fill:#00e9ff;stroke:#00e9ff;stroke-width:1px" transform="rotate(-60.005 54.901 61.57)"/><path d="M58.82 94.303s-4.86 27.478-1.82 39.398" style="fill:none;stroke:#000;stroke-width:2.52px;stroke-linecap:butt" transform="translate(9.643 .148)"/><path d="m84.977 102.884-39.682 37.01" style="fill:none;stroke:#000;stroke-width:2px" transform="translate(9.28 .088)"/></g></svg>