<svg xmlns="http://www.w3.org/2000/svg" height="182" width="160"><g style="clip-rule:evenodd;fill-rule:evenodd;stroke-linecap:round;stroke-linejoin:round;stroke-miterlimit:1.5"><path d="m83.704 137.624 12.367-24.87 12.142 25.709" style="fill:none;stroke:#000;stroke-width:2px" transform="translate(8.12 -26.012)"/><path d="m59.026 138.305 9.88-28.719 22.08 29.395M83.7 104.095l12.989 8.025s1.89.01 8.37-12.87" style="fill:none;stroke:#000;stroke-width:2px" transform="translate(8.12 -26.012)"/><path d="M57.045 94.382s-16.534-6.916-10.838-26.18C49.313 57.7 57.172 53.854 62.522 52.094a79.786 79.786 0 0 1 8.543-2.267s15.42-4.021 21.436-1.013 8.357 1.759 17.253 11.487c2.445 2.674 2.978 4.897 3.706 6.124 1.922 3.24 1.258 2.239 4.321 5.813 0 0 3.2 14.144-2.88 18.688 0 0-8.192 13.376-30.912 12.032l-.627 3.699c1.591.089 8.533 26.647 2.688 31.194 0 0-5.798 5.273-27.494 1.817 0 0-8.935-2.905-7.207-18.841l7.296-25.549z" style="fill:#fff;stroke:#fff;stroke-width:.21px;stroke-linecap:square" transform="translate(8.12 -26.012)"/><path d="M85.032 102.665s20.397 2.277 30.637-12.955" style="fill:none;stroke:#000;stroke-width:2.5px;stroke-linecap:square" transform="translate(8.12 -26.012)"/><path d="M58.82 94.303s-9.559 25.67-6.519 37.59" style="fill:none;stroke:#000;stroke-width:2.52px;stroke-linecap:butt" transform="translate(8.12 -26.012)"/><path d="M46.178 74.886c-1.75-12.75 11.76-20.72 11.76-20.72s42.627-22.12 59.587 17.88" style="fill:none;stroke:#000;stroke-width:2.5px;stroke-linecap:square" transform="translate(7.439 -25.891)"/></g></svg>