<?xml version="1.0" encoding="UTF-8" standalone="no"?>
<svg
   xmlns:serif="http://www.serif.com/"
   xmlns:dc="http://purl.org/dc/elements/1.1/"
   xmlns:cc="http://creativecommons.org/ns#"
   xmlns:rdf="http://www.w3.org/1999/02/22-rdf-syntax-ns#"
   xmlns:svg="http://www.w3.org/2000/svg"
   xmlns="http://www.w3.org/2000/svg"
   xmlns:xlink="http://www.w3.org/1999/xlink"
   xmlns:sodipodi="http://sodipodi.sourceforge.net/DTD/sodipodi-0.dtd"
   xmlns:inkscape="http://www.inkscape.org/namespaces/inkscape"
   height="182"
   width="160"
   version="1.1"
   id="svg1687"
   sodipodi:docname="front-walking-2.svg"
   inkscape:version="1.0.2-2 (e86c870879, 2021-01-15)">
  <metadata
     id="metadata1691">
    <rdf:RDF>
      <cc:Work
         rdf:about="">
        <dc:format>image/svg+xml</dc:format>
        <dc:type
           rdf:resource="http://purl.org/dc/dcmitype/StillImage" />
        <dc:title></dc:title>
      </cc:Work>
    </rdf:RDF>
  </metadata>
  <sodipodi:namedview
     pagecolor="#ffffff"
     bordercolor="#666666"
     borderopacity="1"
     objecttolerance="10"
     gridtolerance="10"
     guidetolerance="10"
     inkscape:pageopacity="0"
     inkscape:pageshadow="2"
     inkscape:window-width="2077"
     inkscape:window-height="1323"
     id="namedview1689"
     showgrid="false"
     inkscape:zoom="22.153846"
     inkscape:cx="99.485698"
     inkscape:cy="111.18747"
     inkscape:window-x="7"
     inkscape:window-y="125"
     inkscape:window-maximized="0"
     inkscape:current-layer="svg1687"
     inkscape:document-rotation="0" />
  <defs
     id="defs1679">
    <g
       id="c">
      <path
         d="M10.75-56.05v-.05H4.5v3.9l-.05 1.1L4-48.65l-1.05 2H2v3.3h1.35v-1.95h7.2v1.95h1.4v-3.3h-1.2v-9.4M.4-60h3.9l1.2.55 3.85-8.6 3.9 8.6L14.5-60l3.15 3.05 1.15 1.1h-.05l-.35.4.1.1q2.1 2.05 2.3 4.55l.05.6q0 1.65-.8 3.1l-.25.45-1.4 1.7.1.1-.3.3-3.25.9v4.7l-3.25.7-3.15.9.65 1.6L12.55-37l3-.6q1.55 0 2.15.6.8.8.8 2 0 1.1-.75 1.85-1.05 1.05-4.1 1.25l-1.25.05.35 1.5 1.5-.05-.05 2.75-1.5 1.25v12.25l-.85 4.6H10.3V-3q0 .7-.45 1.15-.55.55-1.6.55-1.1 0-1.65-.55Q6.2-2.3 6.2-3v-6.55H4.65l-.9-1.3q.5-.9.5-2.25v-.25q-.05-1.7-.9-2.55-.8-.8-2.05-.8h-6.6v1.55h6.55q.7 0 1.15.4.5.5.55 1.55l-.15.9h.05l-.05.25-.4.55q-.45.45-1.15.45H-5.3v1.5l-1.8.05v-.05h-1.55l-1.7-1.1-1.75-3.9v-3.9l.45-.4.2-.15 1.15-1.4-1.25-1-.7.95.4-10.95 1.75-12.8.4.35.75-.7-1-1.1q-1.45-1.85-1.5-4v-.25l.05-.9q.35-2.3 2.45-4.25l-.75-.75.5-3.95.65.3 3.85-8.6 3.85 8.6L.4-60m5.45 8.85v-3.6h3.5v8.15H4.4l.05-.05.5-.9.9-3.55v-.05m12.9-4.7l-1.1-1.1 1.1 1.1M5.5-37.95Q4.45-39 2.25-39l-4 .75-3.1.9.65 1.6L-.9-37l3-.6q1.55 0 2.15.6.8.8.8 2 0 1.1-.75 1.85Q3.25-32.1.25-31.9l-1.3.05.35 1.5q3.95-.05 5.9-1.55l.4-.35q1-1 1-2.85 0-1.8-1.1-2.85M-7.15-43.6l.75-1.55v-1.35h-1.5v1.45h.55l-.55 1.45h.75m3.65-1.55v-1.35H-5v1.45h.55L-5-43.6h.75l.75-1.55"
         fill="#fff"
         fill-rule="evenodd"
         transform="translate(21.5 71)"
         id="path1665" />
      <path
         d="M10.75-56.05v9.45h1.2v3.25h-1.4v-1.95h-7.2v1.95H2v-3.25h.95L4-48.65l.45-2.45.05-1.1v-3.85h6.25M4.3-60l5.05-11 5.15 11-1.25.55-3.9-8.6-3.85 8.6L4.3-60m14.5 4.15l.3-.35q2.55 2.35 2.75 5.4l.05.6q0 1.9-.9 3.55-.7 1.25-1.9 2.4l-.6-.6-.1-.1 1.4-1.7.25-.45q.8-1.45.8-3.1l-.05-.6q-.2-2.5-2.3-4.55l-.1-.1.35-.4h.05m-3.85 16.9l.75-.05q2.2 0 3.25 1.05 1.1 1.05 1.1 2.85 0 1.85-1 2.85l-.4.35q-1.6 1.2-4.4 1.5l-1.5.05-.35-1.5 1.25-.05q3.05-.2 4.1-1.25.75-.75.75-1.85 0-1.2-.8-2-.6-.6-2.15-.6l-3 .6-3.35 1.25-.65-1.6 3.15-.9 3.25-.7m-3.1 29.4v6.6q0 1.25-.8 2.05-.95.9-2.8.9-1.9 0-2.8-.9-.8-.8-.8-2.05v-6.6H6.2V-3q0 .7.4 1.15.55.55 1.65.55 1.05 0 1.6-.55.45-.45.45-1.15v-6.55h1.55m-8.1-1.3l-.05.1-.35.4q-.75.8-1.95.8h-6.7v-1.5h6.55q.7 0 1.15-.45l.4-.55.05-.25.1-.8v-.1q-.05-1.05-.55-1.55-.45-.4-1.15-.4H-5.3v-1.55h6.6q1.25 0 2.05.8.85.85.9 2.55v.25q0 1.35-.5 2.25m-15.85-7.6q-.7.45-1.6.45-.95 0-2.65-1.1-1.2-.65-1.9-.65-.9 0-1.3.55l-.15.2-.45.75-1.35-.75q.4-.95 1.2-1.65l.6-.45 1.35-.35q1.1 0 2.25.8 1.65.85 2.55.85.6 0 1.3-.65l.7-.95 1.25 1-1.15 1.4-.2.15-.45.4m2-25.75l-.6-.7-.75-1.05q-1.1-1.75-1.05-3.85l.05-1q.2-1.5 1-2.85l1.75-2.15.75.75q-2.1 1.95-2.45 4.25l-.05.9v.25q.05 2.15 1.5 4l1 1.1-.75.7-.4-.35m.9-15.55l-.55-.25 5.05-11L.4-60l-1.25.55-3.85-8.6-3.85 8.6-.65-.3m15.05 8.6v.05l-.9 3.55-.5.9-.05.05h4.95v-8.15h-3.5v3.6m-.35 13.2q1.1 1.05 1.1 2.85 0 1.85-1 2.85l-.4.35q-1.95 1.5-5.9 1.55l-.35-1.5 1.3-.05q3-.2 4.05-1.25.75-.75.75-1.85 0-1.2-.8-2-.6-.6-2.15-.6l-3 .6-3.3 1.25-.65-1.6 3.1-.9 4-.75q2.2 0 3.25 1.05m-9-7.2l-.75 1.55H-5l.55-1.45H-5v-1.45h1.5v1.35m-3.65 1.55h-.75l.55-1.45h-.55v-1.45h1.5v1.35l-.75 1.55"
         fill-rule="evenodd"
         transform="translate(21.5 71)"
         id="path1667" />
      <path
         d="M.4-60h3.9m8.4 33.6v12.25m4.95-42.8l1.1 1.1"
         fill="none"
         stroke="#000"
         stroke-linecap="round"
         stroke-linejoin="round"
         transform="translate(21.5 71)"
         id="path1669" />
    </g>
    <g
       id="d"
       transform="translate(.8)">
      <use
         height="3"
         transform="matrix(1.005 0 0 1 -.804 0)"
         width="4.65"
         xlink:href="#a"
         id="use1672" />
      <use
         height="3"
         transform="matrix(1.005 0 0 1 16.096 0)"
         width="4.65"
         xlink:href="#a"
         id="use1674" />
    </g>
    <path
       d="M1.35 0h.2l.55.1.45.35q.45.45.45 1L2.55 2.6q-.45.4-1 .4l-.8-.2-.25-.2-.45-.7v-.15L0 1.45v-.1q.05-.5.5-.9l.25-.2Q1 .05 1.3 0h.05m.45.85L1.55.8Q1.2.75 1 1q-.2.15-.2.45v.15l.15.45H1l.05.05.2.1.3.05.55-.2.15-.6-.05-.3L2.1 1 2.05.95 1.9.85h-.1"
       fill-rule="evenodd"
       id="b" />
    <use
       height="3"
       transform="translate(.8)"
       width="3"
       xlink:href="#b"
       id="a" />
  </defs>
  <g
     style="clip-rule:evenodd;fill-rule:evenodd;stroke-linecap:square;stroke-linejoin:round;stroke-miterlimit:1.5"
     id="g1803"
     transform="translate(8.845,-0.06)">
    <g
       transform="matrix(2,0,0,2,82.341,144.2)"
       id="g1758">
      <g
         id="body-fill"
         serif:id="body fill"
         transform="matrix(0.5,0,0,0.5,-41.1705,-72.1)">
        <path
           d="m 57.045,94.382 c 0,0 -15.784,-7.802 -10.088,-27.066 2.375,-8.033 7.594,-11.674 13.454,-14.356 8.194,-3.749 17.165,-4.667 17.165,-4.667 0,0 8.909,-2.487 14.925,0.521 6.016,3.008 9.152,1.6 18.048,11.328 8.896,9.728 3.008,7.168 7.232,12.096 0,0 3.2,14.144 -2.88,18.688 0,0 -8.192,13.376 -30.912,12.032 l 0.192,2.88 c 0,0 8.704,24.512 6.272,29.248 0,0 -4.16,8.96 -25.856,5.504 0,0 -10.88,-4.288 -9.152,-20.224 l 3.2,-25.088 z"
           style="fill:#ffffff;stroke:#ffffff;stroke-width:0.21px"
           id="path1693" />
      </g>
      <g
         id="Mouth"
         transform="matrix(0.5,0,0,0.5,-41.1705,-72.1)">
        <path
           d="m 89.78,69.855 -11.2,15.52"
           style="fill:none;stroke:#000000;stroke-width:2px"
           id="path1696" />
        <path
           d="M 92.58,87.775 90.307,70.758"
           style="fill:none;stroke:#000000;stroke-width:2px"
           id="path1698" />
        <path
           d="m 83.38,78.815 8.24,2.32"
           style="fill:none;stroke:#000000;stroke-width:2px;stroke-linecap:round"
           id="path1700" />
      </g>
      <g
         id="g1740">
        <g
           transform="matrix(0.5,0,0,0.5,-41.1705,-72.1)"
           id="g1705">
          <path
             d="m 84.629,102.638 c 0,0 20.8,2.304 31.04,-12.928"
             style="fill:none;stroke:#000000;stroke-width:2.5px"
             id="path1703" />
        </g>
        <g
           transform="matrix(0.5,0,0,0.5,-41.1705,-72.1)"
           id="g1709">
          <path
             d="m 46.178,74.886 c -1.75,-12.75 11.76,-20.72 11.76,-20.72 0,0 42.627,-22.12 59.587,17.88"
             style="fill:none;stroke:#000000;stroke-width:2.5px"
             id="path1707" />
        </g>
        <g
           transform="matrix(0.5,0,0,0.5,-41.1705,-72.1)"
           id="g1713">
          <path
             d="m 79.06,57.455 -5.2,4.4"
             style="fill:none;stroke:#000000;stroke-width:2px"
             id="path1711" />
        </g>
        <g
           transform="matrix(0.5,0,0,0.5,-41.1705,-72.1)"
           id="g1717">
          <path
             d="m 101.22,62.575 0.16,6.64"
             style="fill:none;stroke:#000000;stroke-width:2px"
             id="path1715" />
        </g>
        <g
           transform="matrix(0.5,0,0,0.5,-41.1705,-72.1)"
           id="g1721">
          <path
             d="m 84.45,102.845 12.904,12.603 c 0,0 4.762,2.992 11.242,-9.888"
             style="fill:none;stroke:#000000;stroke-width:2px;stroke-linecap:butt"
             id="path1719" />
        </g>
        <g
           id="cigarette"
           transform="matrix(0.479079,0.893483,-0.4351,0.233297,-5.016,-31.504)">
          <g
             transform="matrix(0.5,0,0,0.5,-41.1705,-72.1)"
             id="g1725" />
          <g
             transform="matrix(0.5,0,0,0.5,-41.1705,-72.1)"
             id="g1729" />
        </g>
        <g
           transform="matrix(0.5,0,0,0.5,-41.1705,-72.1)"
           id="g1734">
          <path
             d="m 43.661,54.807 c 0,0 -5.12,-7.68 -5.76,-3.008 0,0 0.576,0.96 4.48,2.752 3.904,1.792 1.28,0.256 1.28,0.256 z"
             style="fill:#00e9ff;stroke:#00e9ff;stroke-width:1px;stroke-linecap:round"
             id="path1732" />
        </g>
        <g
           transform="matrix(0.356055,-0.351034,0.351034,0.356055,-56.8644,-44.6486)"
           id="g1738">
          <path
             d="m 43.661,54.807 c 0,0 -5.12,-7.68 -5.76,-3.008 0,0 0.576,0.96 4.48,2.752 3.904,1.792 1.28,0.256 1.28,0.256 z"
             style="fill:#00e9ff;stroke:#00e9ff;stroke-width:1px;stroke-linecap:round"
             id="path1736" />
        </g>
      </g>
      <g
         transform="matrix(0.5,0,0,0.5,-41.1705,-72.1)"
         id="g1744">
        <path
           d="m 58.82,94.303 c 0,0 -4.86,27.062 -1.82,38.982"
           style="fill:none;stroke:#000000;stroke-width:2.52px;stroke-linecap:butt"
           id="path1742" />
      </g>
      <g
         transform="matrix(0.5,0,0,0.5,-41.1705,-72.1)"
         id="g1748">
        <path
           d="m 58.516,95.737 -7.655,43.219"
           style="fill:none;stroke:#000000;stroke-width:2px"
           id="path1746" />
      </g>
      <g
         transform="matrix(0.5,0,0,0.5,-41.1705,-72.1)"
         id="g1752">
        <path
           d="m 66.9,140.335 3.44,-30.595 11.271,31.602"
           style="fill:none;stroke:#000000;stroke-width:2px;stroke-linecap:round"
           id="path1750" />
      </g>
      <g
         transform="matrix(0.5,0,0,0.5,-41.1705,-72.1)"
         id="g1756">
        <path
           d="m 88,137.09 -6.163,-26.947 17.877,30.236"
           style="fill:none;stroke:#000000;stroke-width:2px;stroke-linecap:round"
           id="path1754" />
      </g>
    </g>
  </g>
  <path
     d="m 119.51915,108.61769 4.57362,13.53197 c -3.54024,2.20588 -2.97316,1.87798 -4.74513,-2.71538 -2.31117,-5.97656 -3.70533,-11.69867 -3.70533,-11.69867"
     style="clip-rule:evenodd;fill:#ffffff;fill-rule:evenodd;stroke:#000000;stroke-width:0.811998;stroke-linecap:round;stroke-linejoin:round;stroke-miterlimit:1.5;stroke-dasharray:none;stroke-opacity:1"
     id="path929"
     sodipodi:nodetypes="cccc" />
  <path
     d="m 116.10644,109.03249 c 0,0 -1.8603,-4.35625 -1.68343,-6.17098 0.0755,-0.77403 1.41233,-1.28883 2.61429,-0.81823 0,0 0.73671,0.64707 2.52882,6.53476 z"
     style="clip-rule:evenodd;fill:#ffae00;fill-rule:evenodd;stroke:#000000;stroke-width:0.811998;stroke-linecap:round;stroke-linejoin:round;stroke-miterlimit:1.5;stroke-dasharray:none;stroke-opacity:1"
     id="path933"
     sodipodi:nodetypes="csccc" />
</svg>
