<svg xmlns="http://www.w3.org/2000/svg" width="103.002" height="78.721" viewBox="0 0 27.253 20.828"><g fill-rule="evenodd" stroke-linejoin="round"><path d="M26.925.65c-3.37 1.868-6.83 3.566-10.304 5.235-2.619 1.26-5.434 2.607-8.217 4.023l-.796-.398c2.845-1.516 5.592-2.85 8.329-4.163 3.402-1.777 6.8-3.426 10.194-5.094.317.008.562.187.794.397z" fill="#ba665d" stroke="#994941" stroke-width=".265"/><g stroke="#b6b6b6"><path d="m169.5 422.118-.861.42-23.197-15.116c-3.412-2.224-4.942-4.57-4.942-7.57v-12c0-.413-.835-.555-.77-.819.118-.486 1.214-.926 1.552-.992.45-.088 1.098.147 1.946.576l16.324 8.256c2.607 1.319 3.813 1.661 3.96-.285l.475-6.307c.036-.472 1.115-.85 1.547-.884.397-.031 1.008.164 1.966.669l2 1.052z" fill="#b6b6b6" transform="matrix(.26458 .00522 0 .26458 -36.604 -94.32)"/><path d="m168.5 422.618-24.058-14.696c-3.476-2.124-4.942-4.57-4.942-7.57v-12c.002-2.184.897-2.162 2.728-1.235l16.324 8.256c2.607 1.319 3.566 1.626 3.96-.285l1.317-6.394c.183-.888.671-1.181 2.671-.129l2 1.053z" fill="#ebe9e2" transform="matrix(.26458 .00522 0 .26458 -36.604 -94.32)"/></g><path d="m7.538 10.376.003 10.32 19.58-9.788V.59z" fill="#ebe9e2" stroke="#b7af97" stroke-linecap="round" stroke-width=".265"/></g></svg>