<svg xmlns="http://www.w3.org/2000/svg" width="167.927" height="97.736" viewBox="0 0 44.431 25.859"><g fill-rule="evenodd"><g stroke="#b6b6b6" stroke-linejoin="round"><path d="m169.5 422.118-24.058-14.696c-3.476-2.124-4.942-4.57-4.942-7.57v-12c0-.413-.835-.555-.77-.819.118-.486 1.214-.926 1.552-.992.45-.088 1.098.147 1.946.576l16.324 8.256c2.607 1.319 3.813 1.661 3.96-.285l.475-6.307c.036-.472 1.115-.85 1.547-.884.397-.031 1.008.164 1.966.669l2 1.052z" fill="#b6b6b6" transform="matrix(.26458 .00522 0 .26458 -.548 -102.667)"/><path d="m168.5 422.618-24.058-14.696c-3.476-2.124-4.942-4.57-4.942-7.57v-12c.002-2.184.897-2.162 2.728-1.235l16.324 8.256c2.607 1.319 3.566 1.626 3.96-.285l1.317-6.394c.183-.888.671-1.181 2.671-.129l2 1.053z" fill="#ebe9e2" transform="matrix(.26458 .00522 0 .26458 -.548 -102.667)"/></g><path d="M18.359 12.857c3.33-1.564 6.675-3.408 9.717-4.865.45-.185.895-.482 1.335-.681 4.556-2.066 4.98-2.418 7.204-3.595 1.901.678 5.458 3.263 5.556 3.837-2.402 1.287-4.804 2.573-7.298 3.649l-1.52.76a234.398 234.398 0 0 1-9.438 4.717l-5.556-2.5z" fill="#ba665d" stroke="#994941" stroke-width=".265"/><path d="M.253 21.89c3.33-1.563 6.675-3.407 9.717-4.864.45-.185.895-.482 1.335-.681 4.556-2.066 4.98-2.418 7.204-3.595 1.901.678 5.458 3.263 5.556 3.837-2.401 1.287-4.804 2.573-7.298 3.649l-1.52.76a234.429 234.429 0 0 1-9.438 4.718l-5.556-2.5z" fill="#ba665d" stroke="#994941" stroke-width=".265"/></g></svg>