<svg xmlns="http://www.w3.org/2000/svg" width="99.381" height="90.27" viewBox="0 0 26.295 23.884"><g style="display:inline"><path style="display:inline;fill:#ba665d;fill-opacity:1;fill-rule:evenodd;stroke:#994941;stroke-width:1px;stroke-linecap:butt;stroke-linejoin:round;stroke-opacity:1" d="M563.511 101.167c-20.745 14.946-46.334 23.75-70 34.992l-3.01-1.506c10.753-5.728 21.138-10.77 31.48-15.732 13.453-6.442 26.167-12.735 38.529-19.254 1.2.03 2.126.706 3.001 1.5z" transform="translate(-129.646 -26.047) scale(.26458)"/><path style="fill:#9b9b9b;fill-opacity:1;fill-rule:evenodd;stroke:#a8a8a8;stroke-width:1;stroke-linecap:butt;stroke-linejoin:miter;stroke-miterlimit:4;stroke-dasharray:none;stroke-opacity:1" d="m519.501 174.157-2 13-27-13.504v-13z" transform="translate(-129.646 -26.047) scale(.26458)"/><path style="display:inline;fill:#ba665d;fill-opacity:1;fill-rule:evenodd;stroke:#994941;stroke-width:1px;stroke-linecap:butt;stroke-linejoin:round;stroke-opacity:1" d="M493.51 136.16c4.632 12.07 3.7 16.001 4.991 24.494 23.023-11.48 48.216-21.373 69-34.492-.078-6.439-1.723-18.65-3.99-24.995-13.5 6.505-25.056 13.338-38.06 19.026-10.38 5.043-20.795 10.123-31.94 15.966z" transform="translate(-129.646 -26.047) scale(.26458)"/><path style="fill:#9b9b9b;fill-opacity:1;fill-rule:evenodd;stroke:#a8a8a8;stroke-width:1.3;stroke-linecap:butt;stroke-linejoin:bevel;stroke-miterlimit:4;stroke-dasharray:none;stroke-opacity:1" d="m586.5 152.664 2.001-13-69 34.493-2 13z" transform="translate(-129.646 -26.047) scale(.26458)"/><path style="fill:#ba665d;fill-opacity:1;fill-rule:evenodd;stroke:#994941;stroke-width:1px;stroke-linecap:butt;stroke-linejoin:miter;stroke-opacity:1" d="M498.501 160.708c12.585-5.804 25.192-11.595 36.725-18.387 1.702-.698 3.42-1.747 5.046-2.574 9.702-4.935 19.09-8.46 27.23-13.585 2.185.927 19.862 8.255 21 10.502.443.97.568 2.924 0 4-9.079 4.862-18.158 9.723-27.585 13.79l-5.745 2.871c-11.905 6.272-23.796 12.242-35.67 17.832l-21-9.449z" transform="translate(-129.646 -26.047) scale(.26458)"/><path style="fill:none;fill-opacity:1;fill-rule:evenodd;stroke:#994941;stroke-width:1px;stroke-linecap:butt;stroke-linejoin:miter;stroke-opacity:1" d="m498.501 160.708 21 10.449c10.855-4.634 20.787-10.008 30.74-15.367l6.902-3.45c10.815-4.948 21.432-9.85 31.358-15.676" transform="translate(-129.646 -26.047) scale(.26458)"/><path style="fill:#b7af97;fill-opacity:1;fill-rule:evenodd;stroke:#e8e6de;stroke-width:1;stroke-linecap:butt;stroke-linejoin:miter;stroke-miterlimit:4;stroke-dasharray:none;stroke-opacity:1" d="m587.501 152.164-70 34.992-27-13.503v1l27 13.503 70-34.992z" transform="translate(-129.646 -26.047) scale(.26458)"/><path style="fill:none;fill-rule:evenodd;stroke:#545454;stroke-width:.6;stroke-linecap:round;stroke-linejoin:miter;stroke-miterlimit:4;stroke-dasharray:.6,1.2;stroke-dashoffset:0;stroke-opacity:1" d="m522.054 175.88 63.872-31.929" transform="translate(-129.646 -26.047) scale(.26458)"/><path style="display:inline;fill:none;fill-rule:evenodd;stroke:#545454;stroke-width:.6;stroke-linecap:round;stroke-linejoin:miter;stroke-miterlimit:4;stroke-dasharray:.6,1.2;stroke-dashoffset:0;stroke-opacity:1" d="m521.868 176.973 63.633-31.81m-63.838 32.913 63.838-31.912m-64 32.993 64-31.993m-64.171 33.078 64.171-32.078m-64.341 33.164 63.842-31.915M521.016 182.4l63.994-31.99" transform="translate(-129.646 -26.047) scale(.26458)"/></g></svg>