<svg xmlns="http://www.w3.org/2000/svg" width="33.001" height="92.88" viewBox="0 0 8.732 24.575"><g stroke="#b6b6b6" stroke-width=".265"><path d="m.926 21.486 6.366 2.646c.92.382 1.307.133 1.307-.66v-3.176c0-.578-.237-.815-.721-1.067l-4.32-2.25c-.69-.359-.943-.538-1.047-1.15l-.349-2.05c-.048-.284-.177-.495-.706-.76l-.53-.264z" fill="#b6b6b6" fill-rule="evenodd" stroke-linejoin="round"/><path d="m.662 21.619 6.365 2.645c.92.383 1.308.133 1.308-.66v-3.175c0-.579-.237-.816-.722-1.068l-4.319-2.25c-.69-.358-.944-.537-1.048-1.15l-.348-2.05c-.049-.284-.178-.494-.707-.76l-.53-.264z" fill="#ebe9e2" fill-rule="evenodd" stroke-linejoin="round"/><path d="m.926 12.755-.264.132" fill="none"/></g><path d="M.496 11.518c-.182-.015-.351.327-.237.473l5.468 2.717.857.013.151-.574-.972-.012z" fill="#9c9c9c" fill-rule="evenodd"/><path d="M6.455 18.769c.069.17.45.168.53 0V.886c-.164-.074-.339-.34-.53-.252z" fill="#9c9c9c" fill-rule="evenodd"/><path d="M7.238.252c.182-.015.352.326.237.473l-.493.25-.527-.341z" fill="#9c9c9c" fill-rule="evenodd"/></svg>